g 5_2
v -0.114867553 -0.0326385647 -0.471579075
v -0.118875727 0.0320931487 0.276705801
v -0.118875727 -0.0326387919 0.276705801
v -0.114867553 0.0320933722 -0.471579075
v -0.0461755358 0.0723572373 0.276705831
v -0.0661706552 0.0723574683 -0.485848457
v 0.0436816402 0.0723572373 0.276705831
v 0.0585198961 0.0723574758 -0.51775825
v -0.0461755358 -0.0729028434 0.276705801
v -0.0661706552 -0.0729026124 -0.485848516
v 0.0436816402 -0.0729028434 0.276705801
v 0.0585198961 -0.0729026049 -0.51775831
v 0.116381831 -0.0326387919 0.276705801
v 0.112373658 -0.0326385498 -0.532467782
v 0.116381831 0.0320931487 0.276705801
v 0.112373658 0.0320933908 -0.532467782
v 0.0585198961 0.0723574758 -0.51775825
v 0.0436816402 0.0723572373 0.276705831
v -0.139360964 -0.0357934646 0.386748523
v -0.118875727 0.0320931487 0.276705801
v -0.139360964 0.0352503471 0.386748523
v -0.118875727 -0.0326387919 0.276705801
v -0.118875727 0.0320931487 0.276705801
v -0.0540014654 0.0736678392 0.386748582
v -0.139360964 0.0352503471 0.386748523
v -0.0540014654 0.0736678392 0.386748582
v -0.118875727 0.0320931487 0.276705801
v -0.0461755358 0.0723572373 0.276705831
v -0.0461755358 0.0723572373 0.276705831
v 0.0515075661 0.0736678392 0.386748582
v -0.0540014654 0.0736678392 0.386748582
v 0.0436816402 0.0723572373 0.276705831
v 0.116381831 0.0320931487 0.276705801
v 0.0515075661 0.0736678392 0.386748582
v 0.0436816402 0.0723572373 0.276705831
v 0.0515075661 0.0736678392 0.386748582
v 0.116381831 0.0320931487 0.276705801
v 0.13686645 0.0352503471 0.386748523
v 0.116381831 0.0320931487 0.276705801
v 0.13686645 -0.0357934646 0.386748523
v 0.13686645 0.0352503471 0.386748523
v 0.116381831 -0.0326387919 0.276705801
v 0.116381831 -0.0326387919 0.276705801
v 0.0515075661 -0.0742134899 0.386748493
v 0.13686645 -0.0357934646 0.386748523
v 0.0515075661 -0.0742134899 0.386748493
v 0.116381831 -0.0326387919 0.276705801
v 0.0436816402 -0.0729028434 0.276705801
v 0.0436816402 -0.0729028434 0.276705801
v -0.0540014654 -0.0742134899 0.386748493
v 0.0515075661 -0.0742134899 0.386748493
v -0.0461755358 -0.0729028434 0.276705801
v -0.118875727 -0.0326387919 0.276705801
v -0.0540014654 -0.0742134899 0.386748493
v -0.0461755358 -0.0729028434 0.276705801
v -0.0540014654 -0.0742134899 0.386748493
v -0.118875727 -0.0326387919 0.276705801
v -0.139360964 -0.0357934646 0.386748523
v 0.0585198961 0.0723574758 -0.51775825
v -0.0670898408 0.0723575205 -0.65591681
v 0.0140881343 0.0723575279 -0.663919747
v -0.0661706552 0.0723574683 -0.485848457
v -0.1909381 0.0723574981 -0.577377379
v -0.155799553 0.072357513 -0.642144203
v 0.0585198961 -0.0729026049 -0.51775831
v -0.0670898408 -0.0729025602 -0.65591687
v -0.0661706552 -0.0729026124 -0.485848516
v 0.0140881343 -0.0729025602 -0.663919806
v -0.1909381 -0.07290259 -0.577377439
v -0.155799553 -0.0729025677 -0.642144322
v -0.0661706552 0.0723574683 -0.485848457
v -0.114867553 -0.0326385647 -0.471579075
v -0.0661706552 -0.0729026124 -0.485848516
v -0.114867553 0.0320933722 -0.471579075
v -0.155799553 0.072357513 -0.642144203
v -0.1909381 -0.07290259 -0.577377439
v -0.155799553 -0.0729025677 -0.642144322
v -0.1909381 0.0723574981 -0.577377379
v -0.0670898408 0.0723575205 -0.65591681
v 0.0140881343 -0.0729025602 -0.663919806
v 0.0140881343 0.0723575279 -0.663919747
v -0.0670898408 -0.0729025602 -0.65591687
v 0.112373658 -0.0326385498 -0.532467782
v 0.0585198961 0.0723574758 -0.51775825
v 0.0585198961 -0.0729026049 -0.51775831
v 0.112373658 0.0320933908 -0.532467782
v 0.135942385 -0.037007276 -0.588126957
v 0.113471068 0.0364622138 -0.662053287
v 0.113471068 -0.0370072536 -0.662053347
v 0.135942385 0.0364621878 -0.588126957
v 0.0140881343 0.0723575279 -0.663919747
v 0.135942385 0.0364621878 -0.588126957
v 0.0585198961 0.0723574758 -0.51775825
v 0.113471068 0.0364622138 -0.662053287
v 0.0585198961 -0.0729026049 -0.51775831
v 0.135942385 0.0364621878 -0.588126957
v 0.135942385 -0.037007276 -0.588126957
v 0.0585198961 0.0723574758 -0.51775825
v 0.0140881343 -0.0729025602 -0.663919806
v 0.135942385 -0.037007276 -0.588126957
v 0.113471068 -0.0370072536 -0.662053347
v 0.0585198961 -0.0729026049 -0.51775831
v 0.0140881343 0.0723575279 -0.663919747
v 0.113471068 -0.0370072536 -0.662053347
v 0.113471068 0.0364622138 -0.662053287
v 0.0140881343 -0.0729025602 -0.663919806
v -0.0670898408 -0.0729025602 -0.65591687
v -0.155799553 0.072357513 -0.642144203
v -0.155799553 -0.0729025677 -0.642144322
v -0.0670898408 0.0723575205 -0.65591681
v -0.0661706552 0.0723574683 -0.485848457
v -0.1909381 -0.07290259 -0.577377439
v -0.1909381 0.0723574981 -0.577377379
v -0.0661706552 -0.0729026124 -0.485848516
v -0.00435180636 -0.0860727206 0.312039047
v -0.108177491 0.0881991684 0.383682787
v -0.108177491 -0.0860727355 0.383682698
v -0.00435180636 0.0881991833 0.312039077
v -0.186566159 -0.0541398562 0.331569105
v -0.186566159 0.0562637746 0.331569105
v 0.0997705087 -0.0860727355 0.383643627
v -0.00435180636 0.0881991833 0.312039077
v -0.00435180636 -0.0860727206 0.312039047
v 0.0997705087 0.0881991684 0.383643717
v 0.186564326 -0.0541398562 0.331569105
v 0.0997705087 0.0881991684 0.383643717
v 0.0997705087 -0.0860727355 0.383643627
v 0.186564326 0.0562637746 0.331569105
v 0.339390874 -0.0373835117 0.519147813
v 0.186564326 0.0562637746 0.331569105
v 0.186564326 -0.0541398562 0.331569105
v 0.339390874 0.0395098738 0.519147813
v 0.525063455 -0.0178687852 0.672236145
v 0.339390874 0.0395098738 0.519147813
v 0.339390874 -0.0373835117 0.519147813
v 0.525063455 0.0199924652 0.672236264
v 0.631386697 -0.0178687889 0.683084548
v 0.525063455 0.0199924652 0.672236264
v 0.525063455 -0.0178687852 0.672236145
v 0.631386697 0.0199924614 0.683084607
v 0.53591305 -0.017868828 0.806767404
v 0.631386697 0.0199924614 0.683084607
v 0.631386697 -0.0178687889 0.683084548
v 0.53591305 0.0199924242 0.806767464
v 0.53591305 -0.0178688467 0.874031782
v 0.53591305 0.0199924242 0.806767464
v 0.53591305 -0.017868828 0.806767404
v 0.53591305 0.0199924037 0.874031901
v 0.477325439 -0.0178688392 0.847994804
v 0.53591305 0.0199924037 0.874031901
v 0.53591305 -0.0178688467 0.874031782
v 0.477325439 0.0199924111 0.847994924
v 0.459968239 -0.0178688113 0.759031177
v 0.477325439 0.0199924111 0.847994924
v 0.477325439 -0.0178688392 0.847994804
v 0.459968239 0.0199924391 0.759031296
v 0.292645246 -0.0373835377 0.614187479
v 0.459968239 0.0199924391 0.759031296
v 0.459968239 -0.0178688113 0.759031177
v 0.292645246 0.0395098478 0.614187479
v 0.193074942 -0.0541399233 0.5556072
v 0.292645246 0.0395098478 0.614187479
v 0.292645246 -0.0373835377 0.614187479
v 0.193074942 0.0562637076 0.5556072
v 0.14311035 -0.0860727802 0.510654151
v 0.193074942 0.0562637076 0.5556072
v 0.193074942 -0.0541399233 0.5556072
v 0.14311035 0.0881991237 0.510654211
v 0.53591305 -0.017868828 0.806767404
v 0.525063455 -0.0178687852 0.672236145
v 0.459968239 -0.0178688113 0.759031177
v 0.631386697 -0.0178687889 0.683084548
v 0.292645246 -0.0373835377 0.614187479
v 0.339390874 -0.0373835117 0.519147813
v 0.477325439 -0.0178688392 0.847994804
v 0.53591305 -0.0178688467 0.874031782
v 0.193074942 -0.0541399233 0.5556072
v 0.186564326 -0.0541398562 0.331569105
v 0.14311035 -0.0860727802 0.510654151
v 0.0997705087 -0.0860727355 0.383643627
v -0.142827749 -0.0860727802 0.509976625
v -0.108177491 -0.0860727355 0.383682698
v -0.00435180636 -0.0860727206 0.312039047
v 0.135921627 -0.0577010252 0.703125417
v -0.142906487 -0.0577010252 0.709635437
v 0.0505932607 -0.0577163249 0.8441661
v -0.0596380606 -0.0577163249 0.850676715
v 0.0456780978 -0.053235855 0.990792692
v -0.0641491711 -0.053235855 0.985850632
v 0.01432434 -0.0504114628 1.39328718
v -0.186566159 -0.0541398562 0.331569105
v -0.193076774 -0.0541399233 0.5556072
v -0.339393318 -0.0373835117 0.519147813
v -0.29264465 -0.0373835377 0.614187479
v -0.525065303 -0.0178687852 0.672236145
v -0.459967017 -0.0178688113 0.759031177
v -0.53591305 -0.017868828 0.806767404
v -0.631386697 -0.0178687889 0.683084548
v -0.477327883 -0.0178688392 0.847994804
v -0.53591305 -0.0178688467 0.874031782
v -0.142827749 0.0881991237 0.509976745
v 0.0997705087 0.0881991684 0.383643717
v 0.14311035 0.0881991237 0.510654211
v -0.108177491 0.0881991684 0.383682787
v -0.00435180636 0.0881991833 0.312039077
v 0.186564326 0.0562637746 0.331569105
v 0.135921627 0.0623317435 0.703125536
v -0.142906487 0.0623317435 0.709635556
v 0.0505932607 0.0623316988 0.84416616
v -0.0596380606 0.0623316988 0.850676775
v 0.0456780978 0.057851065 0.990792751
v -0.0641491711 0.057851065 0.985850751
v 0.01432434 0.0550264642 1.39328718
v 0.193074942 0.0562637076 0.5556072
v 0.339390874 0.0395098738 0.519147813
v 0.292645246 0.0395098478 0.614187479
v 0.525063455 0.0199924652 0.672236264
v 0.459968239 0.0199924391 0.759031296
v 0.53591305 0.0199924242 0.806767464
v 0.477325439 0.0199924111 0.847994924
v 0.53591305 0.0199924037 0.874031901
v 0.631386697 0.0199924614 0.683084607
v 0.0144110108 0.00230826135 3.04657292
v 0.135921627 0.00230832701 2.82958555
v 0.0891400129 -0.0407751128 2.77516341
v 0.248151854 0.00230848044 2.32122231
v 0.15308471 -0.0546637177 2.33181143
v 0.259609371 0.002306076 1.94635606
v 0.127707511 -0.0560046881 1.92417467
v 0.22326538 0.00230869418 1.61381936
v 0.0809234604 -0.054013256 1.640203
v 0.165578604 0.00230875751 1.40409708
v 0.01432434 -0.0504114628 1.39328718
v 0.0456780978 -0.053235855 0.990792692
v 0.175660402 0.00230888068 0.995735884
v 0.0505932607 -0.0577163249 0.8441661
v 0.227056876 0.00230641081 0.837656677
v 0.135921627 -0.0577010252 0.703125417
v -0.0596380606 -0.0577163249 0.850676715
v -0.177158192 0.00230888533 0.980909884
v -0.0641491711 -0.053235855 0.985850632
v -0.214512318 0.00230640476 0.857186079
v -0.142906487 -0.0577010252 0.709635437
v -0.180110469 0.00230881083 1.22674358
v 0.01432434 -0.0504114628 1.39328718
v -0.098758541 0.00230869884 1.59819865
v 0.0809234604 -0.054013256 1.640203
v -0.0181396473 0.0023060916 1.89438033
v 0.127707511 -0.0560046881 1.92417467
v 0.059315186 0.00230848207 2.3155582
v 0.15308471 -0.0546637177 2.33181143
v 0.0423583984 0.00230835984 2.72074151
v 0.0891400129 -0.0407751128 2.77516341
v 0.0144110108 0.00230826135 3.04657292
v 0.227056876 0.00230641081 0.837656677
v 0.135921627 0.0623317435 0.703125536
v 0.135921627 -0.0577010252 0.703125417
v 0.14311035 0.0881991237 0.510654211
v 0.135921627 -0.0577010252 0.703125417
v 0.135921627 0.0623317435 0.703125536
v 0.14311035 -0.0860727802 0.510654151
v -0.142827749 0.0881991237 0.509976745
v -0.142906487 -0.0577010252 0.709635437
v -0.142827749 -0.0860727802 0.509976625
v -0.142906487 0.0623317435 0.709635556
v -0.142906487 -0.0577010252 0.709635437
v -0.142906487 0.0623317435 0.709635556
v -0.214512318 0.00230640476 0.857186079
v 0.0144110108 0.00230826135 3.04657292
v 0.0891400129 0.045391839 2.77516341
v 0.135921627 0.00230832701 2.82958555
v 0.248151854 0.00230848044 2.32122231
v 0.15308471 0.0592781566 2.33181143
v 0.259609371 0.002306076 1.94635606
v 0.127707511 0.0606194139 1.92417467
v 0.22326538 0.00230869418 1.61381936
v 0.0809234604 0.0586306714 1.640203
v 0.165578604 0.00230875751 1.40409708
v 0.01432434 0.0550264642 1.39328718
v 0.0456780978 0.057851065 0.990792751
v 0.175660402 0.00230888068 0.995735884
v 0.0505932607 0.0623316988 0.84416616
v 0.227056876 0.00230641081 0.837656677
v 0.135921627 0.0623317435 0.703125536
v -0.0596380606 0.0623316988 0.850676775
v -0.177158192 0.00230888533 0.980909884
v -0.214512318 0.00230640476 0.857186079
v -0.0641491711 0.057851065 0.985850751
v -0.142906487 0.0623317435 0.709635556
v -0.180110469 0.00230881083 1.22674358
v 0.01432434 0.0550264642 1.39328718
v -0.098758541 0.00230869884 1.59819865
v 0.0809234604 0.0586306714 1.640203
v -0.0181396473 0.0023060916 1.89438033
v 0.127707511 0.0606194139 1.92417467
v 0.059315186 0.00230848207 2.3155582
v 0.15308471 0.0592781566 2.33181143
v 0.0423583984 0.00230835984 2.72074151
v 0.0891400129 0.045391839 2.77516341
v 0.0144110108 0.00230826135 3.04657292
v -0.186566159 0.0562637746 0.331569105
v -0.339393318 -0.0373835117 0.519147813
v -0.186566159 -0.0541398562 0.331569105
v -0.339393318 0.0395098738 0.519147813
v -0.339393318 0.0395098738 0.519147813
v -0.525065303 -0.0178687852 0.672236145
v -0.339393318 -0.0373835117 0.519147813
v -0.525065303 0.0199924652 0.672236264
v -0.525065303 0.0199924652 0.672236264
v -0.631386697 -0.0178687889 0.683084548
v -0.525065303 -0.0178687852 0.672236145
v -0.631386697 0.0199924614 0.683084607
v -0.631386697 0.0199924614 0.683084607
v -0.53591305 -0.017868828 0.806767404
v -0.631386697 -0.0178687889 0.683084548
v -0.53591305 0.0199924242 0.806767464
v -0.53591305 0.0199924242 0.806767464
v -0.53591305 -0.0178688467 0.874031782
v -0.53591305 -0.017868828 0.806767404
v -0.53591305 0.0199924037 0.874031901
v -0.53591305 0.0199924037 0.874031901
v -0.477327883 -0.0178688392 0.847994804
v -0.53591305 -0.0178688467 0.874031782
v -0.477327883 0.0199924111 0.847994924
v -0.477327883 0.0199924111 0.847994924
v -0.459967017 -0.0178688113 0.759031177
v -0.477327883 -0.0178688392 0.847994804
v -0.459967017 0.0199924391 0.759031296
v -0.459967017 0.0199924391 0.759031296
v -0.29264465 -0.0373835377 0.614187479
v -0.459967017 -0.0178688113 0.759031177
v -0.29264465 0.0395098478 0.614187479
v -0.29264465 0.0395098478 0.614187479
v -0.193076774 -0.0541399233 0.5556072
v -0.29264465 -0.0373835377 0.614187479
v -0.193076774 0.0562637076 0.5556072
v -0.193076774 0.0562637076 0.5556072
v -0.142827749 -0.0860727802 0.509976625
v -0.193076774 -0.0541399233 0.5556072
v -0.142827749 0.0881991237 0.509976745
v -0.186566159 0.0562637746 0.331569105
v -0.193076774 0.0562637076 0.5556072
v -0.339393318 0.0395098738 0.519147813
v -0.29264465 0.0395098478 0.614187479
v -0.525065303 0.0199924652 0.672236264
v -0.459967017 0.0199924391 0.759031296
v -0.53591305 0.0199924242 0.806767464
v -0.477327883 0.0199924111 0.847994924
v -0.53591305 0.0199924037 0.874031901
v -0.631386697 0.0199924614 0.683084607
vt 0.64289999 0.632600009
vt 0.584500015 0.943499982
vt 0.641900003 0.943499982
vt 0.583500028 0.632600009
vt 0.514199972 0.943599999
vt 0.515500009 0.626699984
vt 0.446099997 0.943599999
vt 0.444999993 0.613399982
vt 0.71450001 0.943499982
vt 0.713800013 0.626699984
vt 0.796700001 0.943499982
vt 0.796800017 0.613399982
vt 0.861800015 0.943499982
vt 0.861400008 0.607299984
vt 0.915600002 0.943499982
vt 0.916000009 0.607299984
vt 0.985599995 0.613399982
vt 0.985700011 0.943499982
vt 0.639599979 0.989199996
vt 0.584500015 0.943499982
vt 0.586799979 0.989199996
vt 0.641900003 0.943499982
vt 0.584500015 0.943499982
vt 0.514800012 0.989300013
vt 0.586799979 0.989199996
vt 0.514800012 0.989300013
vt 0.584500015 0.943499982
vt 0.514199972 0.943599999
vt 0.514199972 0.943599999
vt 0.445600003 0.989499986
vt 0.514800012 0.989300013
vt 0.446099997 0.943599999
vt 0.915600002 0.943499982
vt 0.985700011 0.989199996
vt 0.985700011 0.943499982
vt 0.985700011 0.989199996
vt 0.915600002 0.943499982
vt 0.915099978 0.989199996
vt 0.915600002 0.943499982
vt 0.862299979 0.989199996
vt 0.915099978 0.989199996
vt 0.861800015 0.943499982
vt 0.861800015 0.943499982
vt 0.796700001 0.989199996
vt 0.862299979 0.989199996
vt 0.796700001 0.989199996
vt 0.861800015 0.943499982
vt 0.796700001 0.943499982
vt 0.796700001 0.943499982
vt 0.71420002 0.989199996
vt 0.796700001 0.989199996
vt 0.71450001 0.943499982
vt 0.641900003 0.943499982
vt 0.71420002 0.989199996
vt 0.71450001 0.943499982
vt 0.71420002 0.989199996
vt 0.641900003 0.943499982
vt 0.639599979 0.989199996
vt 0.908599973 0.403499991
vt 0.836000025 0.457199991
vt 0.893400013 0.45570001
vt 0.818300009 0.399199992
vt 0.74119997 0.437000006
vt 0.772700012 0.457199991
vt 0.90990001 0.403699994
vt 0.835799992 0.456900001
vt 0.819700003 0.398799986
vt 0.89319998 0.45570001
vt 0.741599977 0.436100006
vt 0.772499979 0.456499994
vt 0.941600025 0.568300009
vt 0.969399989 0.540199995
vt 0.941600025 0.529399991
vt 0.969399989 0.557500005
vt 0.816500008 0.568300009
vt 0.856899977 0.529399991
vt 0.816500008 0.529399991
vt 0.856899977 0.568300009
vt 0.767400026 0.568300009
vt 0.722800016 0.529399991
vt 0.722800016 0.568300009
vt 0.767400026 0.529399991
vt 0.538200021 0.540199995
vt 0.568700016 0.568300009
vt 0.568700016 0.529399991
vt 0.538200021 0.557500005
vt 0.625999987 0.538999975
vt 0.668299973 0.558700025
vt 0.668299973 0.538999975
vt 0.625999987 0.558700025
vt 0.893400013 0.45570001
vt 0.970099986 0.423400015
vt 0.908599973 0.403499991
vt 0.962400019 0.449800014
vt 0.568700016 0.529399991
vt 0.625999987 0.558700025
vt 0.625999987 0.538999975
vt 0.568700016 0.568300009
vt 0.89319998 0.45570001
vt 0.970799983 0.423999995
vt 0.962400019 0.450300008
vt 0.90990001 0.403699994
vt 0.722800016 0.568300009
vt 0.668299973 0.538999975
vt 0.668299973 0.558700025
vt 0.722800016 0.529399991
vt 0.767400026 0.529399991
vt 0.816500008 0.568300009
vt 0.816500008 0.529399991
vt 0.767400026 0.568300009
vt 0.941600025 0.568300009
vt 0.856899977 0.529399991
vt 0.856899977 0.568300009
vt 0.941600025 0.529399991
vt 0.0306000002 0.209900007
vt 0.120700002 0.2456
vt 0.0306000002 0.2456
vt 0.120700002 0.209900007
vt 0.0471000001 0.269199997
vt 0.104199998 0.269199997
vt 0.0306000002 0.245700002
vt 0.120700002 0.209900007
vt 0.0306000002 0.209900007
vt 0.120700002 0.245700002
vt 0.0471000001 0.269300014
vt 0.120700002 0.245700002
vt 0.0306000002 0.245700002
vt 0.104199998 0.269300014
vt 0.0557999983 0.3292
vt 0.104199998 0.269300014
vt 0.0471000001 0.269300014
vt 0.0954999998 0.3292
vt 0.0658999979 0.389899999
vt 0.0954999998 0.3292
vt 0.0557999983 0.3292
vt 0.0854000002 0.389899999
vt 0.0658999979 0.416799992
vt 0.0854000002 0.389899999
vt 0.0658999979 0.389899999
vt 0.0854000002 0.416799992
vt 0.0658999979 0.456200004
vt 0.0854000002 0.416799992
vt 0.0658999979 0.416799992
vt 0.0854000002 0.456200004
vt 0.0658999979 0.473100007
vt 0.0854000002 0.456200004
vt 0.0658999979 0.456200004
vt 0.0854000002 0.473100007
vt 0.0658999979 0.489300013
vt 0.0854000002 0.473100007
vt 0.0658999979 0.473100007
vt 0.0854000002 0.489300013
vt 0.0658999979 0.512099981
vt 0.0854000002 0.489300013
vt 0.0658999979 0.489300013
vt 0.0854000002 0.512099981
vt 0.0557999983 0.567900002
vt 0.0854000002 0.512099981
vt 0.0658999979 0.512099981
vt 0.0954999998 0.567900002
vt 0.0471000001 0.597000003
vt 0.0954999998 0.567900002
vt 0.0557999983 0.567900002
vt 0.104199998 0.597000003
vt 0.0306000002 0.614000022
vt 0.104199998 0.597000003
vt 0.0471000001 0.597000003
vt 0.120700002 0.614000022
vt 0.063000001 0.159700006
vt 0.0816000029 0.111699998
vt 0.122699998 0.145400003
vt 0.00240000011 0.111500002
vt 0.257400006 0.0996999964
vt 0.230399996 0.0636000037
vt 0.102899998 0.176799998
vt 0.0577000007 0.184
vt 0.335399985 0.0824000016
vt 0.357800007 0.00190000003
vt 0.375800014 0.0680999979
vt 0.417699993 0.0240000002
vt 0.586499989 0.0789000019
vt 0.570900023 0.0320000015
vt 0.5 0.00219999999
vt 0.36590001 0.137799993
vt 0.570900023 0.150800005
vt 0.417699993 0.1919
vt 0.498400003 0.198400006
vt 0.409799993 0.244900003
vt 0.491100013 0.247299999
vt 0.401300013 0.391099989
vt 0.632799983 0.0163000003
vt 0.620000005 0.0971999988
vt 0.730700016 0.0896999985
vt 0.68870002 0.122199997
vt 0.855400026 0.151999995
vt 0.800599992 0.180800006
vt 0.852900028 0.200900003
vt 0.932900012 0.159999996
vt 0.806400001 0.213499993
vt 0.847599983 0.225199997
vt 0.588 0.0793000013
vt 0.41960001 0.0241
vt 0.377299994 0.0680999979
vt 0.572799981 0.0324000008
vt 0.502200007 0.00249999994
vt 0.359899998 0.00190000003
vt 0.36680001 0.137700006
vt 0.571699977 0.151199996
vt 0.418199986 0.192000002
vt 0.498800009 0.198699996
vt 0.409799993 0.245000005
vt 0.491100013 0.247600004
vt 0.400000006 0.391200006
vt 0.336800009 0.0822999999
vt 0.231999993 0.0632999986
vt 0.258700013 0.0993999988
vt 0.0826999992 0.111000001
vt 0.123599999 0.144899994
vt 0.063699998 0.159099996
vt 0.103500001 0.176300004
vt 0.0582000017 0.183300003
vt 0.00350000011 0.110699996
vt 0.268000007 0.986800015
vt 0.195800006 0.903900027
vt 0.234799996 0.886099994
vt 0.154200003 0.716300011
vt 0.223399997 0.72390002
vt 0.175799996 0.580799997
vt 0.274800003 0.578000009
vt 0.229200006 0.462500006
vt 0.332100004 0.477499992
vt 0.288399994 0.389099985
vt 0.401300013 0.391099989
vt 0.409799993 0.244900003
vt 0.313600004 0.241699994
vt 0.417699993 0.1919
vt 0.288199991 0.182699993
vt 0.36590001 0.137799993
vt 0.498400003 0.198400006
vt 0.574800014 0.249899998
vt 0.491100013 0.247299999
vt 0.611999989 0.206799999
vt 0.570900023 0.150800005
vt 0.557299972 0.338699996
vt 0.401300013 0.391099989
vt 0.467700005 0.469399989
vt 0.332100004 0.477499992
vt 0.384499997 0.573000014
vt 0.274800003 0.578000009
vt 0.29370001 0.721700013
vt 0.223399997 0.72390002
vt 0.273900002 0.868300021
vt 0.234799996 0.886099994
vt 0.268000007 0.986800015
vt 0.0763000026 0.704400003
vt 0.107299998 0.663399994
vt 0.0452999994 0.663399994
vt 0.120700002 0.614000022
vt 0.0452999994 0.663399994
vt 0.107299998 0.663399994
vt 0.0306000002 0.614000022
vt 0.120700002 0.613900006
vt 0.0452999994 0.663399994
vt 0.0306000002 0.613900006
vt 0.107299998 0.663399994
vt 0.0452999994 0.663399994
vt 0.107299998 0.663399994
vt 0.0763000026 0.70450002
vt 0.267800003 0.986800015
vt 0.234500006 0.886099994
vt 0.195800006 0.903900027
vt 0.153600007 0.716300011
vt 0.222800002 0.723800004
vt 0.175300002 0.580799997
vt 0.274199992 0.578000009
vt 0.228799999 0.462399989
vt 0.331400007 0.477499992
vt 0.288199991 0.389099985
vt 0.400000006 0.391200006
vt 0.409799993 0.245000005
vt 0.313600004 0.241500005
vt 0.418199986 0.192000002
vt 0.288700014 0.182600006
vt 0.36680001 0.137700006
vt 0.498800009 0.198699996
vt 0.574699998 0.25029999
vt 0.612399995 0.207300007
vt 0.491100013 0.247600004
vt 0.571699977 0.151199996
vt 0.557099998 0.3389
vt 0.400000006 0.391200006
vt 0.467299998 0.469399989
vt 0.331400007 0.477499992
vt 0.38409999 0.573000014
vt 0.274199992 0.578000009
vt 0.293199986 0.721700013
vt 0.222800002 0.723800004
vt 0.273000002 0.868300021
vt 0.234500006 0.886099994
vt 0.267800003 0.986800015
vt 0.104199998 0.269199997
vt 0.0557999983 0.329299986
vt 0.0471000001 0.269199997
vt 0.0954999998 0.329299986
vt 0.0954999998 0.329299986
vt 0.0658999979 0.389899999
vt 0.0557999983 0.329299986
vt 0.0854000002 0.389899999
vt 0.0854000002 0.389899999
vt 0.0658999979 0.416799992
vt 0.0658999979 0.389899999
vt 0.0854000002 0.416799992
vt 0.0854000002 0.416799992
vt 0.0658999979 0.456200004
vt 0.0658999979 0.416799992
vt 0.0854000002 0.456200004
vt 0.0854000002 0.456200004
vt 0.0658999979 0.473100007
vt 0.0658999979 0.456200004
vt 0.0854000002 0.473100007
vt 0.0854000002 0.473100007
vt 0.0658999979 0.489300013
vt 0.0658999979 0.473100007
vt 0.0854000002 0.489300013
vt 0.0854000002 0.489300013
vt 0.0658999979 0.512099981
vt 0.0658999979 0.489300013
vt 0.0854000002 0.512099981
vt 0.0854000002 0.512099981
vt 0.0557999983 0.567799985
vt 0.0658999979 0.512099981
vt 0.0954999998 0.567799985
vt 0.0954999998 0.567799985
vt 0.0471000001 0.596899986
vt 0.0557999983 0.567799985
vt 0.104199998 0.596899986
vt 0.104199998 0.596899986
vt 0.0306000002 0.613900006
vt 0.0471000001 0.596899986
vt 0.120700002 0.613900006
vt 0.634800017 0.0167999994
vt 0.621200025 0.0978000015
vt 0.731999993 0.0904999971
vt 0.689800024 0.1228
vt 0.85619998 0.153099999
vt 0.801199973 0.181700006
vt 0.853200018 0.201900005
vt 0.806699991 0.214499995
vt 0.8477 0.226199999
vt 0.933700025 0.161200002
vn -0.887161016 -0.461415976 0.00637756335
vn -0.861973405 0.506932497 -0.00461699534
vn -0.861973226 -0.506932795 -0.00461730221
vn -0.887161016 0.461415827 0.00637784647
vn -0.250982881 0.967991233 -0.000788015546
vn -0.291105062 0.956660628 0.0076334225
vn 0.247410178 0.968899727 0.00462118722
vn 0.361140043 0.932510614 -0.00138389249
vn -0.250982642 -0.967991233 -0.000788599427
vn -0.291104853 -0.956660748 0.00763284042
vn 0.247410014 -0.968899846 0.00462060003
vn 0.361139774 -0.932510734 -0.0013844549
vn 0.863787174 -0.503852963 0.00198821956
vn 0.909550905 -0.415567994 -0.00450551556
vn 0.863787174 0.503852844 0.00198852783
vn 0.909551084 0.415567726 -0.00450526504
vn 0.361140043 0.932510614 -0.00138389249
vn 0.247410178 0.968899727 0.00462118722
vn -0.983110547 0 -0.183012933
vn -0.983110428 0 -0.183012933
vn -0.983110428 0 -0.183012933
vn -0.983110428 0 -0.183012947
vn -0.408273637 0.907139838 -0.10202948
vn -0.408273637 0.907139778 -0.10202948
vn -0.408273637 0.907139838 -0.10202948
vn -0.484007001 0.873915136 -0.0448294841
vn -0.484006941 0.873915136 -0.0448294804
vn -0.484006941 0.873915136 -0.0448294804
vn -0 0.99992907 -0.0119090863
vn -0 0.99992907 -0.0119090872
vn -0 0.99992907 -0.0119090863
vn -0 0.99992907 -0.0119090881
vn 0.484006941 0.873915136 -0.0448294804
vn 0.484007001 0.873915136 -0.0448294841
vn 0.484006941 0.873915136 -0.0448294804
vn 0.408276141 0.907138884 -0.102027655
vn 0.408276141 0.907138884 -0.10202764
vn 0.408276141 0.907138884 -0.102027662
vn 0.983111441 0 -0.183007672
vn 0.983111441 0 -0.183007672
vn 0.983111441 0 -0.183007672
vn 0.983111441 0 -0.183007687
vn 0.408299327 -0.907130361 -0.102010898
vn 0.408299327 -0.907130361 -0.102010898
vn 0.408299327 -0.907130361 -0.102010906
vn 0.484006584 -0.873915315 -0.0448298231
vn 0.484006584 -0.873915315 -0.0448298305
vn 0.484006584 -0.873915315 -0.0448298231
vn -0 -0.99992907 -0.0119095165
vn -0 -0.99992907 -0.0119095175
vn -0 -0.99992907 -0.0119095165
vn -0 -0.99992907 -0.0119095203
vn -0.484006584 -0.873915315 -0.0448298305
vn -0.484006584 -0.873915315 -0.0448298231
vn -0.484006584 -0.873915315 -0.0448298231
vn -0.408296794 -0.907131195 -0.102012716
vn -0.408296824 -0.907131314 -0.102012716
vn -0.408296794 -0.907131195 -0.102012709
vn -0 1 3.01991605E-07
vn -0 1 3.01991577E-07
vn -0 1 3.01991605E-07
vn -0 1 3.01991605E-07
vn -0 1 3.01991605E-07
vn -0 1 3.01991605E-07
vn -0 -1 -3.01991605E-07
vn -0 -1 -3.01991605E-07
vn -0 -1 -3.01991605E-07
vn -0 -1 -3.01991605E-07
vn -0 -1 -3.01991605E-07
vn -0 -1 -3.01991605E-07
vn -0.281201094 2.89805911E-07 -0.959648907
vn -0.281201154 2.89805882E-07 -0.959648848
vn -0.281201154 2.89805882E-07 -0.959648848
vn -0.281201154 2.89805882E-07 -0.959648848
vn -0.878970623 1.44012532E-07 -0.476875961
vn -0.878970623 1.44012532E-07 -0.476875961
vn -0.878970623 1.44012532E-07 -0.476875961
vn -0.878970623 1.44012532E-07 -0.476875961
vn -0.0981093645 3.0053468E-07 -0.9951756
vn -0.098109372 3.0053468E-07 -0.9951756
vn -0.0981093571 3.0053468E-07 -0.9951756
vn -0.0981093571 3.0053468E-07 -0.9951756
vn -0.263485581 2.9132022E-07 -0.964663327
vn -0.263485581 2.9132022E-07 -0.964663327
vn -0.263485581 2.9132022E-07 -0.964663327
vn -0.263485581 2.9132022E-07 -0.964663327
vn 0.95677489 0 -0.290829688
vn 0.95677489 0 -0.290829688
vn 0.95677489 0 -0.290829688
vn 0.95677489 0 -0.290829688
vn 0.339607656 0.934884369 -0.103237346
vn 0.339607626 0.934884369 -0.103237346
vn 0.339607656 0.934884369 -0.103237346
vn 0.339602828 0.934887052 -0.103228375
vn 0.672591984 -2.23477841E-07 0.74001348
vn 0.672592044 -2.23477841E-07 0.74001348
vn 0.672592044 -2.23477841E-07 0.74001348
vn 0.672592103 -2.23477826E-07 0.740013421
vn 0.339602858 -0.934886992 -0.103228956
vn 0.339602828 -0.934886992 -0.103228942
vn 0.339602858 -0.934886992 -0.103228949
vn 0.339607656 -0.93488425 -0.103237905
vn 0.0187771283 3.01938371E-07 -0.999823749
vn 0.0187771302 3.01938343E-07 -0.999823749
vn 0.018777132 3.01938371E-07 -0.999823749
vn 0.0187771283 3.01938371E-07 -0.999823749
vn -0.153416514 2.98416467E-07 -0.988161504
vn -0.153416499 2.98416438E-07 -0.988161504
vn -0.153416514 2.98416467E-07 -0.988161504
vn -0.153416514 2.98416467E-07 -0.988161504
vn -0.591501474 -2.43496999E-07 0.806303918
vn -0.591501474 -2.43496999E-07 0.806303918
vn -0.591501474 -2.43497027E-07 0.806303918
vn -0.591501474 -2.43497027E-07 0.806303918
vn -0.567946494 2.48558848E-07 -0.823065519
vn -0.0870899186 3.00844192E-07 -0.996200502
vn -0.0870835111 3.00844334E-07 -0.996200979
vn -0.567946494 2.48558848E-07 -0.82306546
vn 0.553629875 2.51487393E-07 -0.832762897
vn 0.553629875 2.51487393E-07 -0.832762897
vn 0.566639066 2.48830844E-07 -0.823966146
vn 0.566639066 2.48830844E-07 -0.823966146
vn 0.566639125 2.48830844E-07 -0.823966146
vn 0.566639125 2.48830844E-07 -0.823966146
vn -0.514483392 2.58957925E-07 -0.857500374
vn -0.514483333 2.58957925E-07 -0.857500374
vn -0.514483333 2.58957897E-07 -0.857500374
vn -0.514483333 2.58957897E-07 -0.857500374
vn 0.775266171 1.90748366E-07 -0.631634653
vn 0.775266171 1.90748366E-07 -0.631634653
vn 0.775266111 1.90748366E-07 -0.631634712
vn 0.775266111 1.90748366E-07 -0.631634712
vn 0.636156678 2.33004613E-07 -0.771559954
vn 0.636156559 2.33004627E-07 -0.771559954
vn 0.636156559 2.33004627E-07 -0.771559954
vn 0.636156678 2.33004627E-07 -0.771559954
vn 0.101505145 3.00431822E-07 -0.994835019
vn 0.101505145 3.00431822E-07 -0.994835019
vn 0.101505153 3.00431793E-07 -0.994835019
vn 0.101505153 3.00431793E-07 -0.994835019
vn 0.791592956 -1.84531586E-07 0.611048758
vn 0.791592956 -1.84531586E-07 0.611048758
vn 0.791592956 -1.84531586E-07 0.611048758
vn 0.791592956 -1.84531586E-07 0.611048758
vn 1 0 0
vn 1 0 0
vn 1 0 0
vn 1 0 0
vn -0.40611282 -2.7596684E-07 0.913822889
vn -0.40611282 -2.7596684E-07 0.913822889
vn -0.40611285 -2.75966869E-07 0.913822889
vn -0.40611285 -2.75966869E-07 0.913822889
vn -0.981493831 0 0.191493571
vn -0.981493831 0 0.191493571
vn -0.981493831 0 0.191493571
vn -0.981493831 0 0.191493571
vn -0.654493034 -2.28326229E-07 0.75606811
vn -0.654492915 -2.28326201E-07 0.75606811
vn -0.654493034 -2.28326229E-07 0.75606811
vn -0.654493034 -2.28326229E-07 0.75606811
vn -0.507081568 -2.60285987E-07 0.861898124
vn -0.507081568 -2.60285987E-07 0.861898124
vn -0.507081509 -2.60285987E-07 0.861898124
vn -0.507081509 -2.60285987E-07 0.861898124
vn -0.668840289 -2.24502429E-07 0.743406177
vn -0.668840289 -2.24502429E-07 0.743406177
vn -0.668840289 -2.24502401E-07 0.743406117
vn -0.668840289 -2.24502429E-07 0.743406177
vn -0 -1 -3.01991605E-07
vn 0.0310514066 -0.999297142 0.0209993385
vn 0.0278043561 -0.999395847 0.0208526235
vn -0 -1 -3.01991605E-07
vn 0.0986049399 -0.993816018 0.0510559715
vn 0.101857916 -0.994339406 0.0302358828
vn -0 -1 -3.01991605E-07
vn -0 -1 -3.01991605E-07
vn 0.252082139 -0.967652082 0.0101990672
vn 0.27448836 -0.960346222 -0.0489004999
vn 0.241581902 -0.970018089 0.0265159514
vn 0.121951543 -0.991663337 -0.0416138768
vn -0.238952443 -0.970615864 0.0283985063
vn -0.142840385 -0.988969564 -0.0391902812
vn -0 -1 -3.01991605E-07
vn 0.000660569814 -0.996011853 0.0892192125
vn 0.00195178541 -0.996495545 0.0836224109
vn 0.000729554216 -0.999923825 0.0123243937
vn 0.000204971453 -0.999900222 0.0141214849
vn -0.000184355667 -0.999808252 0.0195851047
vn -0.000951293099 -0.999776065 0.0211404469
vn -0.000314664532 -0.999975562 0.00699254218
vn -0.288807809 -0.956416667 -0.0430950075
vn -0.250835389 -0.967975378 0.0102622118
vn -0.101856984 -0.994339406 0.0302375853
vn -0.0986048281 -0.993815899 0.0510591082
vn -0.0310505051 -0.999297142 0.0209997483
vn -0.027804587 -0.999395847 0.0208537783
vn -0 -1 -3.01991605E-07
vn -0 -1 -3.01991605E-07
vn -0 -1 -3.01991605E-07
vn -0 -1 -3.01991605E-07
vn -0.238915995 0.970728517 0.0246027317
vn 0.121960491 0.991662145 -0.0416163281
vn 0.241503939 0.970134556 0.0226873215
vn -0.142850637 0.988967955 -0.0391924977
vn -0 1 3.01991605E-07
vn 0.274499059 0.960343063 -0.0489031188
vn 0.000602851505 0.996673584 0.0814945847
vn 0.00178323232 0.997077465 0.0763773546
vn 0.000731750624 0.999922991 0.0123895733
vn 0.000208380618 0.999899507 0.0141799841
vn -0.00018435395 0.999808252 0.0195859335
vn -0.000951304974 0.999776065 0.021141313
vn -0.000314660283 0.999975562 0.00699305162
vn 0.252081066 0.96765244 0.0101971244
vn 0.101851016 0.994340122 0.0302360617
vn 0.0986015275 0.993816435 0.0510552377
vn 0.0310555175 0.999297023 0.0210027266
vn 0.0278080311 0.999395728 0.0208559837
vn -0 1 3.01991605E-07
vn -0 1 3.01991605E-07
vn -0 1 3.01991605E-07
vn -0 1 3.01991605E-07
vn 0.469884396 -0.842597902 0.263130099
vn 0.513135731 -0.83057183 0.216430306
vn 0.547228456 -0.819623888 0.169580758
vn 0.521117747 -0.851754069 0.0543261729
vn 0.506848633 -0.860102296 0.0576929227
vn 0.418847889 -0.907602429 -0.0287078489
vn 0.401022285 -0.915259302 -0.0384905264
vn 0.361762524 -0.929015517 -0.0778332055
vn 0.350399077 -0.93295449 -0.0825624987
vn 0.341135353 -0.938986301 -0.0439470299
vn 0.33081618 -0.943264306 -0.0285162367
vn 0.384299517 -0.922782898 0.028028721
vn 0.371977448 -0.927100182 0.0460217707
vn 0.343353957 -0.931270063 0.121836051
vn 0.323420137 -0.935190022 0.144287407
vn 0.322285026 -0.92636627 0.194879144
vn -0.37771669 -0.917735875 0.122844875
vn -0.415446877 -0.908962309 0.0345173813
vn -0.41693604 -0.908746123 0.0185674094
vn -0.351880074 -0.924104631 0.149033234
vn -0.346265405 -0.915614247 0.204330072
vn -0.335870713 -0.940253079 0.0558131225
vn -0.314873189 -0.946615219 0.0690978989
vn -0.314999819 -0.9460603 0.0757965222
vn -0.327418596 -0.941900074 0.0749753118
vn -0.368241847 -0.927257895 0.0677557066
vn -0.39490062 -0.916657448 0.0615854599
vn -0.505092144 -0.862943769 0.0144919949
vn -0.526992321 -0.849867105 0.00222238409
vn -0.625646234 -0.77782011 -0.0596884713
vn -0.638236463 -0.767574608 -0.0590211228
vn -0.641048074 -0.765528679 -0.0549845733
vn 0.82791537 1.69372939E-07 -0.560853183
vn 0.82791537 1.69372925E-07 -0.560853183
vn 0.82791537 1.69372925E-07 -0.560853183
vn 0.999303222 0 0.0373235419
vn 0.999303222 0 0.0373235457
vn 0.999303222 0 0.0373235457
vn 0.999303222 0 0.0373235419
vn -1 0 -0.00039434951
vn -1 0 -0.00039434951
vn -1 0 -0.00039434951
vn -1 0 -0.00039434951
vn -0.899655759 1.3184949E-07 -0.43659988
vn -0.899655759 1.3184949E-07 -0.43659988
vn -0.899655759 1.3184949E-07 -0.43659988
vn 0.469884634 0.842597544 0.263130754
vn 0.54722774 0.819624364 0.169580966
vn 0.513136148 0.830571473 0.216430992
vn 0.521101594 0.8517645 0.0543170311
vn 0.506834865 0.860110939 0.0576853976
vn 0.418858767 0.907597601 -0.0287034418
vn 0.401034474 0.915254235 -0.0384838544
vn 0.361765325 0.929014921 -0.0778279901
vn 0.350397319 0.932955325 -0.0825592056
vn 0.341123968 0.938990414 -0.0439491645
vn 0.330802441 0.943269074 -0.0285190661
vn 0.384284437 0.922789216 0.0280290674
vn 0.371970057 0.927103519 0.0460144132
vn 0.343357593 0.931264281 0.121870466
vn 0.32343179 0.935181201 0.144319251
vn 0.322293758 0.926340938 0.194985211
vn -0.377718031 0.917730451 0.122881182
vn -0.415439725 0.908965886 0.0345082656
vn -0.35189119 0.924096525 0.149058029
vn -0.416920424 0.908753395 0.0185680632
vn -0.346267372 0.915591002 0.204430833
vn -0.335856616 0.940258145 0.0558115318
vn -0.314862579 0.946618974 0.0690937564
vn -0.314997017 0.946061075 0.0757982656
vn -0.327422559 0.941898167 0.0749818757
vn -0.368253708 0.927252769 0.0677610114
vn -0.394911319 0.916652739 0.0615858547
vn -0.505078316 0.862951815 0.0144914836
vn -0.526976526 0.849877 0.00222250051
vn -0.625643611 0.777822018 -0.0596905276
vn -0.638235867 0.767575026 -0.0590220131
vn -0.641048372 0.765528381 -0.0549841374
vn -0.775264978 1.90748835E-07 -0.631636262
vn -0.775264919 1.9074885E-07 -0.631636322
vn -0.775264919 1.9074885E-07 -0.631636322
vn -0.775264978 1.90748835E-07 -0.631636262
vn -0.63615793 2.330043E-07 -0.77155894
vn -0.63615793 2.33004286E-07 -0.771558881
vn -0.636157811 2.330043E-07 -0.77155894
vn -0.63615793 2.330043E-07 -0.77155894
vn -0.101506896 3.00431793E-07 -0.9948349
vn -0.101506896 3.00431793E-07 -0.9948349
vn -0.101506889 3.00431793E-07 -0.9948349
vn -0.101506889 3.00431793E-07 -0.9948349
vn -0.791592956 -1.84531586E-07 0.611048758
vn -0.791592956 -1.84531586E-07 0.611048758
vn -0.791592956 -1.84531586E-07 0.611048758
vn -0.791592956 -1.84531586E-07 0.611048758
vn -1 0 0
vn -1 0 0
vn -1 0 0
vn -1 0 0
vn 0.406127006 -2.75964965E-07 0.913816631
vn 0.406127006 -2.75964965E-07 0.913816631
vn 0.406127006 -2.75964965E-07 0.913816631
vn 0.406127006 -2.75964965E-07 0.913816631
vn 0.981486261 0 0.191532493
vn 0.981486261 0 0.191532493
vn 0.981486261 0 0.191532493
vn 0.981486261 0 0.191532493
vn 0.654494345 -2.28325845E-07 0.756066918
vn 0.654494345 -2.28325845E-07 0.756066859
vn 0.654494345 -2.28325845E-07 0.756066859
vn 0.654494405 -2.28325831E-07 0.756066799
vn 0.507090807 -2.6028431E-07 0.861892641
vn 0.507090867 -2.60284338E-07 0.861892641
vn 0.507090807 -2.60284338E-07 0.861892641
vn 0.507090807 -2.60284338E-07 0.861892641
vn 0.672265828 -2.23567341E-07 0.740309775
vn 0.672265828 -2.23567341E-07 0.740309775
vn 0.672265887 -2.23567341E-07 0.740309775
vn 0.672265887 -2.23567341E-07 0.740309775
vn -0.288819075 0.95641315 -0.0430971608
vn -0.250834137 0.967975676 0.010260269
vn -0.101850092 0.994340122 0.0302377697
vn -0.0986014009 0.993816257 0.0510583594
vn -0.0310546141 0.999297023 0.0210031345
vn -0.0278082639 0.999395728 0.0208571386
vn -0 1 3.01991605E-07
vn -0 1 3.01991605E-07
vn -0 1 3.01991605E-07
vn -0 1 3.01991605E-07
g 5_2_0
f 3/3/3 2/2/2 1/1/1
f 4/4/4 1/1/1 2/2/2
f 2/2/2 5/5/5 4/4/4
f 6/6/6 4/4/4 5/5/5
f 5/5/5 7/7/7 6/6/6
f 8/8/8 6/6/6 7/7/7
f 3/3/3 1/1/1 9/9/9
f 10/10/10 9/9/9 1/1/1
f 9/9/9 10/10/10 11/11/11
f 12/12/12 11/11/11 10/10/10
f 11/11/11 12/12/12 13/13/13
f 14/14/14 13/13/13 12/12/12
f 13/13/13 14/14/14 15/15/15
f 16/16/16 15/15/15 14/14/14
f 16/16/16 17/17/17 15/15/15
f 18/18/18 15/15/15 17/17/17
f 21/21/21 20/20/20 19/19/19
f 22/22/22 19/19/19 20/20/20
f 25/25/25 24/24/24 23/23/23
f 28/28/28 27/27/27 26/26/26
f 31/31/31 30/30/30 29/29/29
f 32/32/32 29/29/29 30/30/30
f 35/35/35 34/34/34 33/33/33
f 38/38/38 37/37/37 36/36/36
f 41/41/41 40/40/40 39/39/39
f 42/42/42 39/39/39 40/40/40
f 45/45/45 44/44/44 43/43/43
f 48/48/48 47/47/47 46/46/46
f 51/51/51 50/50/50 49/49/49
f 52/52/52 49/49/49 50/50/50
f 55/55/55 54/54/54 53/53/53
f 58/58/58 57/57/57 56/56/56
f 61/61/61 60/60/60 59/59/59
f 62/62/62 59/59/59 60/60/60
f 62/62/62 60/60/60 63/63/63
f 64/64/64 63/63/63 60/60/60
f 67/67/67 66/66/66 65/65/65
f 68/68/68 65/65/65 66/66/66
f 67/67/67 69/69/69 66/66/66
f 70/70/70 66/66/66 69/69/69
f 73/73/73 72/72/72 71/71/71
f 74/74/74 71/71/71 72/72/72
f 77/77/77 76/76/76 75/75/75
f 78/78/78 75/75/75 76/76/76
f 81/81/81 80/80/80 79/79/79
f 82/82/82 79/79/79 80/80/80
f 85/85/85 84/84/84 83/83/83
f 86/86/86 83/83/83 84/84/84
f 89/89/89 88/88/88 87/87/87
f 90/90/90 87/87/87 88/88/88
f 93/93/93 92/92/92 91/91/91
f 94/94/94 91/91/91 92/92/92
f 97/97/97 96/96/96 95/95/95
f 98/98/98 95/95/95 96/96/96
f 101/101/101 100/100/100 99/99/99
f 102/102/102 99/99/99 100/100/100
f 105/105/105 104/104/104 103/103/103
f 106/106/106 103/103/103 104/104/104
f 109/109/109 108/108/108 107/107/107
f 110/110/110 107/107/107 108/108/108
f 113/113/113 112/112/112 111/111/111
f 114/114/114 111/111/111 112/112/112
f 117/117/117 116/116/116 115/115/115
f 118/118/118 115/115/115 116/116/116
f 117/117/117 119/119/119 116/116/116
f 120/120/120 116/116/116 119/119/119
f 123/123/123 122/122/122 121/121/121
f 124/124/124 121/121/121 122/122/122
f 127/127/127 126/126/126 125/125/125
f 128/128/128 125/125/125 126/126/126
f 131/131/131 130/130/130 129/129/129
f 132/132/132 129/129/129 130/130/130
f 135/135/135 134/134/134 133/133/133
f 136/136/136 133/133/133 134/134/134
f 139/139/139 138/138/138 137/137/137
f 140/140/140 137/137/137 138/138/138
f 143/143/143 142/142/142 141/141/141
f 144/144/144 141/141/141 142/142/142
f 147/147/147 146/146/146 145/145/145
f 148/148/148 145/145/145 146/146/146
f 151/151/151 150/150/150 149/149/149
f 152/152/152 149/149/149 150/150/150
f 155/155/155 154/154/154 153/153/153
f 156/156/156 153/153/153 154/154/154
f 159/159/159 158/158/158 157/157/157
f 160/160/160 157/157/157 158/158/158
f 163/163/163 162/162/162 161/161/161
f 164/164/164 161/161/161 162/162/162
f 167/167/167 166/166/166 165/165/165
f 168/168/168 165/165/165 166/166/166
f 171/171/171 170/170/170 169/169/169
f 172/172/172 169/169/169 170/170/170
f 171/171/171 173/173/173 170/170/170
f 174/174/174 170/170/170 173/173/173
f 171/171/171 169/169/169 175/175/175
f 176/176/176 175/175/175 169/169/169
f 173/173/173 177/177/177 174/174/174
f 178/178/178 174/174/174 177/177/177
f 177/177/177 179/179/179 178/178/178
f 180/180/180 178/178/178 179/179/179
f 179/179/179 181/181/181 180/180/180
f 182/182/182 180/180/180 181/181/181
f 182/182/182 183/183/183 180/180/180
f 179/179/179 184/184/184 181/181/181
f 185/185/185 181/181/181 184/184/184
f 184/184/184 186/186/186 185/185/185
f 187/187/187 185/185/185 186/186/186
f 186/186/186 188/188/188 187/187/187
f 189/189/189 187/187/187 188/188/188
f 189/189/189 188/188/188 190/190/190
f 182/182/182 181/181/181 191/191/191
f 192/192/192 191/191/191 181/181/181
f 191/191/191 192/192/192 193/193/193
f 194/194/194 193/193/193 192/192/192
f 193/193/193 194/194/194 195/195/195
f 196/196/196 195/195/195 194/194/194
f 196/196/196 197/197/197 195/195/195
f 198/198/198 195/195/195 197/197/197
f 196/196/196 199/199/199 197/197/197
f 200/200/200 197/197/197 199/199/199
f 203/203/203 202/202/202 201/201/201
f 204/204/204 201/201/201 202/202/202
f 202/202/202 205/205/205 204/204/204
f 203/203/203 206/206/206 202/202/202
f 203/203/203 201/201/201 207/207/207
f 208/208/208 207/207/207 201/201/201
f 207/207/207 208/208/208 209/209/209
f 210/210/210 209/209/209 208/208/208
f 209/209/209 210/210/210 211/211/211
f 212/212/212 211/211/211 210/210/210
f 213/213/213 211/211/211 212/212/212
f 214/214/214 206/206/206 203/203/203
f 206/206/206 214/214/214 215/215/215
f 216/216/216 215/215/215 214/214/214
f 215/215/215 216/216/216 217/217/217
f 218/218/218 217/217/217 216/216/216
f 218/218/218 219/219/219 217/217/217
f 218/218/218 220/220/220 219/219/219
f 221/221/221 219/219/219 220/220/220
f 222/222/222 217/217/217 219/219/219
f 225/225/225 224/224/224 223/223/223
f 224/224/224 225/225/225 226/226/226
f 227/227/227 226/226/226 225/225/225
f 226/226/226 227/227/227 228/228/228
f 229/229/229 228/228/228 227/227/227
f 228/228/228 229/229/229 230/230/230
f 231/231/231 230/230/230 229/229/229
f 230/230/230 231/231/231 232/232/232
f 233/233/233 232/232/232 231/231/231
f 233/233/233 234/234/234 232/232/232
f 235/235/235 232/232/232 234/234/234
f 234/234/234 236/236/236 235/235/235
f 237/237/237 235/235/235 236/236/236
f 238/238/238 237/237/237 236/236/236
f 241/241/241 240/240/240 239/239/239
f 242/242/242 239/239/239 240/240/240
f 239/239/239 242/242/242 243/243/243
f 240/240/240 241/241/241 244/244/244
f 245/245/245 244/244/244 241/241/241
f 244/244/244 245/245/245 246/246/246
f 247/247/247 246/246/246 245/245/245
f 246/246/246 247/247/247 248/248/248
f 249/249/249 248/248/248 247/247/247
f 248/248/248 249/249/249 250/250/250
f 251/251/251 250/250/250 249/249/249
f 250/250/250 251/251/251 252/252/252
f 253/253/253 252/252/252 251/251/251
f 254/254/254 252/252/252 253/253/253
f 257/257/257 256/256/256 255/255/255
f 260/260/260 259/259/259 258/258/258
f 261/261/261 258/258/258 259/259/259
f 264/264/264 263/263/263 262/262/262
f 265/265/265 262/262/262 263/263/263
f 268/268/268 267/267/267 266/266/266
f 271/271/271 270/270/270 269/269/269
f 271/271/271 272/272/272 270/270/270
f 273/273/273 270/270/270 272/272/272
f 272/272/272 274/274/274 273/273/273
f 275/275/275 273/273/273 274/274/274
f 274/274/274 276/276/276 275/275/275
f 277/277/277 275/275/275 276/276/276
f 276/276/276 278/278/278 277/277/277
f 279/279/279 277/277/277 278/278/278
f 279/279/279 278/278/278 280/280/280
f 281/281/281 280/280/280 278/278/278
f 280/280/280 281/281/281 282/282/282
f 283/283/283 282/282/282 281/281/281
f 283/283/283 284/284/284 282/282/282
f 287/287/287 286/286/286 285/285/285
f 288/288/288 285/285/285 286/286/286
f 287/287/287 285/285/285 289/289/289
f 286/286/286 290/290/290 288/288/288
f 291/291/291 288/288/288 290/290/290
f 290/290/290 292/292/292 291/291/291
f 293/293/293 291/291/291 292/292/292
f 292/292/292 294/294/294 293/293/293
f 295/295/295 293/293/293 294/294/294
f 294/294/294 296/296/296 295/295/295
f 297/297/297 295/295/295 296/296/296
f 296/296/296 298/298/298 297/297/297
f 299/299/299 297/297/297 298/298/298
f 298/298/298 300/300/300 299/299/299
f 303/303/303 302/302/302 301/301/301
f 304/304/304 301/301/301 302/302/302
f 307/307/307 306/306/306 305/305/305
f 308/308/308 305/305/305 306/306/306
f 311/311/311 310/310/310 309/309/309
f 312/312/312 309/309/309 310/310/310
f 315/315/315 314/314/314 313/313/313
f 316/316/316 313/313/313 314/314/314
f 319/319/319 318/318/318 317/317/317
f 320/320/320 317/317/317 318/318/318
f 323/323/323 322/322/322 321/321/321
f 324/324/324 321/321/321 322/322/322
f 327/327/327 326/326/326 325/325/325
f 328/328/328 325/325/325 326/326/326
f 331/331/331 330/330/330 329/329/329
f 332/332/332 329/329/329 330/330/330
f 335/335/335 334/334/334 333/333/333
f 336/336/336 333/333/333 334/334/334
f 339/339/339 338/338/338 337/337/337
f 340/340/340 337/337/337 338/338/338
f 342/342/342 201/201/201 341/341/341
f 341/341/341 343/343/343 342/342/342
f 344/344/344 342/342/342 343/343/343
f 343/343/343 345/345/345 344/344/344
f 346/346/346 344/344/344 345/345/345
f 346/346/346 345/345/345 347/347/347
f 346/346/346 347/347/347 348/348/348
f 349/349/349 348/348/348 347/347/347
f 350/350/350 347/347/347 345/345/345
f 204/204/204 341/341/341 201/201/201
