g _nWoman_shoulders_MC1
v -0.081470944 0.01467543 1.71218467
v -0.228921697 0.0381386988 1.67676139
v -0.0798906833 0.0390212312 1.70599866
v -0.234453037 0.0146725606 1.68214869
v -0.201224908 0.0738735721 1.64330697
v -0.0762357041 0.0774007291 1.67198586
v -0.078087382 0.0963378623 1.63663542
v -0.0837891251 0.0990093946 1.63001955
v -0.174176306 0.0877994299 1.60354507
v -0.228802279 -0.00881041773 1.67678213
v -0.0800318569 -0.00972446054 1.70594764
v -0.200889274 -0.0444583483 1.6435312
v -0.0766669735 -0.0480934121 1.67183197
v -0.0788095295 -0.0666469336 1.63705182
v -0.084576875 -0.0693176538 1.63040507
v -0.173724741 -0.0582603775 1.60466671
v -0.0742844939 0.0146571705 1.70982635
v -0.0727689415 0.0373877995 1.70399106
v -0.0727983192 0.0146679254 1.70237303
v -0.0714594796 0.0337906964 1.69742548
v -0.0691281781 0.0751908273 1.67043483
v -0.0729020089 -0.00811925717 1.70392513
v -0.0711356923 0.0950070098 1.63321304
v -0.0680272654 0.0692460313 1.66583002
v -0.0700392947 0.0881759226 1.63010705
v -0.0714594796 0.0337906964 1.69742548
v -0.079378657 0.0987936482 1.62313092
v -0.0782963708 0.0919266865 1.62008202
v -0.172913998 0.0863559097 1.59592927
v -0.0782963708 0.0919266865 1.62008202
v -0.171559423 0.0789907649 1.59470153
v -0.178663254 0.0850701854 1.59733427
v -0.177424625 0.0777144134 1.59608531
v -0.206376523 0.0715123713 1.63822699
v -0.205090627 0.0651365817 1.63429582
v -0.232893005 0.0337995626 1.66487336
v -0.234294564 0.0375899635 1.67131007
v -0.238631323 0.014667891 1.66941476
v -0.240117505 0.0146576185 1.67686808
v -0.238631323 0.014667891 1.66941476
v -0.234169558 -0.0082882857 1.67131531
v -0.232887447 -0.00446435576 1.6648736
v -0.205075264 -0.0357977115 1.63430345
v -0.206028223 -0.0421274528 1.63840044
v -0.178222388 -0.0555542558 1.59838831
v -0.177404851 -0.0483692773 1.59613168
v -0.171538234 -0.049645979 1.59474885
v -0.17243585 -0.056841623 1.59700203
v -0.0801588073 -0.0691161305 1.62348902
v -0.0783307329 -0.0625748262 1.62009776
v -0.0718460083 -0.0653397366 1.63357663
v -0.0700705349 -0.0588245802 1.63012314
v -0.0695410967 -0.045903109 1.67025137
v -0.0680454299 -0.0399113558 1.66582179
v -0.0714653209 -0.00445683952 1.69742262
v -0.0680454299 -0.0399113558 1.66582179
v -0.0727983192 0.0146679254 1.70237303
v -0.238631323 0.014667891 1.66941476
v -0.0714594796 0.0337906964 1.69742548
v -0.232893005 0.0337995626 1.66487336
v -0.0727983192 0.0146679254 1.70237303
v -0.0680272654 0.0692460313 1.66583002
v -0.205090627 0.0651365817 1.63429582
v -0.0700392947 0.0881759226 1.63010705
v -0.0782963708 0.0919266865 1.62008202
v -0.232887447 -0.00446435576 1.6648736
v -0.0714653209 -0.00445683952 1.69742262
v -0.205075264 -0.0357977115 1.63430345
v -0.0680454299 -0.0399113558 1.66582179
v -0.0700705349 -0.0588245802 1.63012314
v -0.0783307329 -0.0625748262 1.62009776
v -0.177404851 -0.0483692773 1.59613168
v -0.171538234 -0.049645979 1.59474885
v -0.177424625 0.0777144134 1.59608531
v -0.0782963708 0.0919266865 1.62008202
v -0.171559423 0.0789907649 1.59470153
v 0.0814712495 0.014675444 1.71218467
v 0.228921995 0.0381387398 1.67676139
v 0.23445335 0.0146726035 1.68214869
v 0.0798909813 0.0390212461 1.70599866
v 0.201225176 0.0738736019 1.64330697
v 0.0762359872 0.0774007514 1.67198586
v 0.0780876577 0.0963378623 1.63663542
v 0.0837893933 0.099009417 1.63001955
v 0.174176574 0.0877994522 1.60354507
v 0.228802577 -0.00881037675 1.67678213
v 0.0800321624 -0.00972444657 1.70594764
v 0.200889543 -0.0444583222 1.6435312
v 0.076667279 -0.0480933934 1.67183197
v 0.078809835 -0.0666469112 1.63705182
v 0.0845771581 -0.0693176463 1.63040507
v 0.173725054 -0.0582603477 1.60466671
v 0.0742847994 0.0146571845 1.70982635
v 0.0727692321 0.0373878106 1.70399106
v 0.0727986172 0.0146679394 1.70237303
v 0.0714597702 0.0337907039 1.69742548
v 0.0691284612 0.0751908496 1.67043483
v 0.0729023144 -0.0081192432 1.70392513
v 0.0711359754 0.0950070098 1.63321304
v 0.0680275485 0.0692460388 1.66583002
v 0.0700395703 0.088175945 1.63010705
v 0.0714597702 0.0337907039 1.69742548
v 0.0793789327 0.0987936482 1.62313092
v 0.078296639 0.0919266865 1.62008202
v 0.172914267 0.0863559321 1.59592927
v 0.078296639 0.0919266865 1.62008202
v 0.171559691 0.0789907947 1.59470153
v 0.178663522 0.0850702077 1.59733427
v 0.177424878 0.0777144507 1.59608531
v 0.206376791 0.0715124086 1.63822699
v 0.205090895 0.0651366189 1.63429582
v 0.232893303 0.0337996036 1.66487336
v 0.234294862 0.0375900008 1.67131007
v 0.238631621 0.014667931 1.66941476
v 0.240117818 0.0146576595 1.67686808
v 0.238631621 0.014667931 1.66941476
v 0.234169856 -0.00828824472 1.67131531
v 0.23288776 -0.00446431525 1.6648736
v 0.205075532 -0.0357976705 1.63430345
v 0.206028491 -0.0421274118 1.63840044
v 0.178222686 -0.0555542186 1.59838831
v 0.177405164 -0.04836924 1.59613168
v 0.171538547 -0.0496459529 1.59474885
v 0.172436163 -0.056841597 1.59700203
v 0.0801590905 -0.0691161081 1.62348902
v 0.0783310384 -0.0625748113 1.62009776
v 0.0718463138 -0.0653397217 1.63357663
v 0.070070833 -0.0588245615 1.63012314
v 0.0695414022 -0.0459030904 1.67025137
v 0.0680457354 -0.0399113446 1.66582179
v 0.0680457354 -0.0399113446 1.66582179
v 0.0714656264 -0.00445682881 1.69742262
v 0.0727986172 0.0146679394 1.70237303
v 0.238631621 0.014667931 1.66941476
v 0.0714597702 0.0337907039 1.69742548
v 0.0727986172 0.0146679394 1.70237303
v 0.232893303 0.0337996036 1.66487336
v 0.0680275485 0.0692460388 1.66583002
v 0.205090895 0.0651366189 1.63429582
v 0.0700395703 0.088175945 1.63010705
v 0.078296639 0.0919266865 1.62008202
v 0.23288776 -0.00446431525 1.6648736
v 0.0714656264 -0.00445682881 1.69742262
v 0.205075532 -0.0357976705 1.63430345
v 0.0680457354 -0.0399113446 1.66582179
v 0.070070833 -0.0588245615 1.63012314
v 0.0783310384 -0.0625748113 1.62009776
v 0.177405164 -0.04836924 1.59613168
v 0.171538547 -0.0496459529 1.59474885
v 0.078296639 0.0919266865 1.62008202
v 0.177424878 0.0777144507 1.59608531
v 0.171559691 0.0789907947 1.59470153
vt 0.544416189 0.983408451
vt 0.52610898 0.857902765
vt 0.525142431 0.98353076
vt 0.544389486 0.854530573
vt 0.484203577 0.874461174
vt 0.484266281 0.980550051
vt 0.453107595 0.97277689
vt 0.448839188 0.967271805
vt 0.446612358 0.889377356
vt 0.562691927 0.857992172
vt 0.563742399 0.983402729
vt 0.604479074 0.874763489
vt 0.60465765 0.980160952
vt 0.635251045 0.972272396
vt 0.639557362 0.966684818
vt 0.641431808 0.88988328
vt 0.544432163 0.989587545
vt 0.525042772 0.989665031
vt 0.544441938 0.99566555
vt 0.524854898 0.995660067
vt 0.483355284 0.986547709
vt 0.563865423 0.989540815
vt 0.449897289 0.977719069
vt 0.482412338 0.99242115
vt 0.447090626 0.982466698
vt 0.524854898 0.995660067
vt 0.443297625 0.96933794
vt 0.438203096 0.971014977
vt 0.44080925 0.888540983
vt 0.438203096 0.971014977
vt 0.435385466 0.887071133
vt 0.443193674 0.884498358
vt 0.439774036 0.880194902
vt 0.482319832 0.868542671
vt 0.479732752 0.863015413
vt 0.523297548 0.846679688
vt 0.52478528 0.85211134
vt 0.544397831 0.84348774
vt 0.544397354 0.848805189
vt 0.544397831 0.84348774
vt 0.564029932 0.852195978
vt 0.56548214 0.846745253
vt 0.608925581 0.863304377
vt 0.606368065 0.868850708
vt 0.644907475 0.884890795
vt 0.648583889 0.880604029
vt 0.652766228 0.887238741
vt 0.647326231 0.889046192
vt 0.645154953 0.968788147
vt 0.650252342 0.970789433
vt 0.638513565 0.977273226
vt 0.641496181 0.982036829
vt 0.605573893 0.986167192
vt 0.606400728 0.992065907
vt 0.564021587 0.995538473
vt 0.606400728 0.992065907
vt 0.544441938 0.99566555
vt 0.360175967 0.906856418
vt 0.37049973 0.98461473
vt 0.368156791 0.908914208
vt 0.360175967 0.984620214
vt 0.392816901 0.982259631
vt 0.389743924 0.917651772
vt 0.41055882 0.977182031
vt 0.414412141 0.972333074
vt 0.352194786 0.908916593
vt 0.349851608 0.98461163
vt 0.330610991 0.917659402
vt 0.327534199 0.98225081
vt 0.309806824 0.977169633
vt 0.305953503 0.972319484
vt 0.309645414 0.925206542
vt 0.308200836 0.927642465
vt 0.410725951 0.925191998
vt 0.414412141 0.972333074
vt 0.412170768 0.927627206
vt 0.544416189 0.983408451
vt 0.52610898 0.857902765
vt 0.544389486 0.854530573
vt 0.525142431 0.98353076
vt 0.484203577 0.874461174
vt 0.484266281 0.980550051
vt 0.453107595 0.97277689
vt 0.448839188 0.967271805
vt 0.446612358 0.889377356
vt 0.562691927 0.857992172
vt 0.563742399 0.983402729
vt 0.604479074 0.874763489
vt 0.60465765 0.980160952
vt 0.635251045 0.972272396
vt 0.639557362 0.966684818
vt 0.641431808 0.88988328
vt 0.544432163 0.989587545
vt 0.525042772 0.989665031
vt 0.544441938 0.99566555
vt 0.524854898 0.995660067
vt 0.483355284 0.986547709
vt 0.563865423 0.989540815
vt 0.449897289 0.977719069
vt 0.482412338 0.99242115
vt 0.447090626 0.982466698
vt 0.524854898 0.995660067
vt 0.443297625 0.96933794
vt 0.438203096 0.971014977
vt 0.44080925 0.888540983
vt 0.438203096 0.971014977
vt 0.435385466 0.887071133
vt 0.443193674 0.884498358
vt 0.439774036 0.880194902
vt 0.482319832 0.868542671
vt 0.479732752 0.863015413
vt 0.523297548 0.846679688
vt 0.52478528 0.85211134
vt 0.544397831 0.84348774
vt 0.544397354 0.848805189
vt 0.544397831 0.84348774
vt 0.564029932 0.852195978
vt 0.56548214 0.846745253
vt 0.608925581 0.863304377
vt 0.606368065 0.868850708
vt 0.644907475 0.884890795
vt 0.648583889 0.880604029
vt 0.652766228 0.887238741
vt 0.647326231 0.889046192
vt 0.645154953 0.968788147
vt 0.650252342 0.970789433
vt 0.638513565 0.977273226
vt 0.641496181 0.982036829
vt 0.605573893 0.986167192
vt 0.606400728 0.992065907
vt 0.606400728 0.992065907
vt 0.564021587 0.995538473
vt 0.544441938 0.99566555
vt 0.360175967 0.906856418
vt 0.37049973 0.98461473
vt 0.360175967 0.984620214
vt 0.368156791 0.908914208
vt 0.392816901 0.982259631
vt 0.389743924 0.917651772
vt 0.41055882 0.977182031
vt 0.414412141 0.972333074
vt 0.352194786 0.908916593
vt 0.349851608 0.98461163
vt 0.330610991 0.917659402
vt 0.327534199 0.98225081
vt 0.309806824 0.977169633
vt 0.305953503 0.972319484
vt 0.309645414 0.925206542
vt 0.308200836 0.927642465
vt 0.414412141 0.972333074
vt 0.410725951 0.925191998
vt 0.412170768 0.927627206
vn 0.051677648 -0.00064398878 0.998663664
vn -0.429067045 0.533434212 0.728937149
vn 0.0773173794 0.473475724 0.877406836
vn -0.484829724 -0.000600007595 0.874608338
vn -0.343343884 0.852170765 0.394867122
vn 0.109518349 0.799776435 0.590223193
vn 0.127359644 0.935682297 0.329056472
vn -0.00830414239 0.988399982 0.151645929
vn -0.246683955 0.968129098 0.0432805158
vn -0.428478241 -0.534217417 0.728709877
vn 0.077258803 -0.474686146 0.876757681
vn -0.342122167 -0.852654994 0.394882113
vn 0.10934145 -0.800726831 0.588966131
vn 0.125809446 -0.936187208 0.328215748
vn -0.0095946677 -0.988240123 0.152608693
vn -0.24491246 -0.968460679 0.0458450057
vn 0.69955492 -0.00258810516 0.714574218
vn 0.726211965 0.276171654 0.629559636
vn 0.880506456 -0.00224105478 -0.474028707
vn 0.868305743 -0.303414851 -0.392408729
vn 0.762264371 0.502117336 0.40844968
vn 0.719650447 -0.285062402 0.633121431
vn 0.750768363 0.660533011 -0.00656383019
vn 0.852594972 -0.445041329 -0.273897916
vn 0.820832849 -0.390938699 -0.416413665
vn 0.868305743 -0.303414851 -0.392408729
vn 0.39218092 0.783721745 -0.48163718
vn 0.507118821 -0.285462081 -0.813229263
vn -0.106500864 0.681755304 -0.723786771
vn 0.507118821 -0.285462081 -0.813229263
vn 0.0825267881 -0.411645412 -0.907599747
vn -0.57744199 0.565943122 -0.588446319
vn -0.331515521 -0.490137994 -0.806140304
vn -0.767039418 0.620859325 -0.16181533
vn -0.513427496 -0.40840432 -0.75471729
vn -0.582195997 -0.0967799351 -0.807267904
vn -0.869615972 0.472639084 0.142759606
vn -0.656179368 -0.00172290811 -0.754603028
vn -0.953306139 -0.00217733346 0.3019979
vn -0.656179368 -0.00172290811 -0.754603028
vn -0.865276456 -0.479197681 0.14719452
vn -0.588370144 0.0861192569 -0.80399251
vn -0.52935034 0.375752985 -0.760656297
vn -0.754219413 -0.639186084 -0.150313556
vn -0.566166759 -0.614287019 -0.549642324
vn -0.347705722 0.436610132 -0.829742372
vn 0.065441817 0.357659698 -0.931556106
vn -0.109798066 -0.727530599 -0.677232385
vn 0.361679673 -0.816991568 -0.449124187
vn 0.52491945 0.230772212 -0.819270253
vn 0.722330391 -0.691311419 0.0180920567
vn 0.84271735 0.350633681 -0.408513755
vn 0.745912492 -0.521262944 0.414607704
vn 0.867898345 0.423225671 -0.260062754
vn 0.87500608 0.294454545 -0.384266645
vn 0.867898345 0.423225671 -0.260062754
vn 0.880506456 -0.00224105478 -0.474028707
vn -0.656179368 -0.00172290811 -0.754603028
vn 0.868305743 -0.303414851 -0.392408729
vn -0.582195997 -0.0967799351 -0.807267904
vn 0.880506456 -0.00224105478 -0.474028707
vn 0.852594972 -0.445041329 -0.273897916
vn -0.513427496 -0.40840432 -0.75471729
vn 0.820832849 -0.390938699 -0.416413665
vn 0.507118821 -0.285462081 -0.813229263
vn -0.588370144 0.0861192569 -0.80399251
vn 0.87500608 0.294454545 -0.384266645
vn -0.52935034 0.375752985 -0.760656297
vn 0.867898345 0.423225671 -0.260062754
vn 0.84271735 0.350633681 -0.408513755
vn 0.52491945 0.230772212 -0.819270253
vn -0.347705722 0.436610132 -0.829742372
vn 0.065441817 0.357659698 -0.931556106
vn -0.331515521 -0.490137994 -0.806140304
vn 0.507118821 -0.285462081 -0.813229263
vn 0.0825267881 -0.411645412 -0.907599747
vn -0.0516776182 -0.000644020329 0.998663664
vn 0.429066986 0.53343451 0.72893697
vn 0.484829724 -0.000599930878 0.874608338
vn -0.0773174688 0.473475754 0.877406776
vn 0.343343556 0.852170885 0.394867152
vn -0.109518409 0.799776435 0.590223074
vn -0.127360165 0.935682297 0.329056352
vn 0.00830335636 0.988400102 0.151645496
vn 0.246683612 0.968129098 0.043280229
vn 0.42847842 -0.534217536 0.728709757
vn -0.0772587657 -0.474686176 0.876757681
vn 0.342122525 -0.852654874 0.394881904
vn -0.109341405 -0.800726831 0.588966012
vn -0.12580961 -0.936187088 0.328215957
vn 0.00959431659 -0.988240123 0.152608544
vn 0.244913027 -0.96846056 0.0458446629
vn -0.699554741 -0.00258823158 0.714574397
vn -0.726211965 0.276171416 0.629559815
vn -0.880506754 -0.00224124361 -0.474028468
vn -0.868305743 -0.30341506 -0.39240849
vn -0.762264311 0.502117515 0.408449829
vn -0.719650269 -0.285062432 0.633121431
vn -0.750768542 0.660532832 -0.00656367606
vn -0.852594912 -0.445041507 -0.273897737
vn -0.820833087 -0.390938282 -0.416413695
vn -0.868305743 -0.30341506 -0.39240849
vn -0.392181069 0.783721507 -0.481637269
vn -0.507118821 -0.285462201 -0.813229203
vn 0.106500715 0.681755245 -0.723786891
vn -0.507118821 -0.285462201 -0.813229203
vn -0.0825268254 -0.411645442 -0.907599747
vn 0.577441931 0.565943182 -0.588446379
vn 0.331515491 -0.490137666 -0.806140542
vn 0.76703912 0.620859802 -0.16181542
vn 0.513427496 -0.40840432 -0.75471729
vn 0.582195997 -0.096779719 -0.807267904
vn 0.869615912 0.472639263 0.142759502
vn 0.656179368 -0.00172294094 -0.754602969
vn 0.953306139 -0.0021773458 0.3019979
vn 0.656179368 -0.00172294094 -0.754602969
vn 0.865276396 -0.4791978 0.147194296
vn 0.588370204 0.0861190036 -0.803992629
vn 0.529350102 0.375753254 -0.760656238
vn 0.754219651 -0.639185905 -0.15031369
vn 0.566167355 -0.614286482 -0.549642324
vn 0.34770599 0.43661043 -0.829742074
vn -0.0654416606 0.357659519 -0.931556225
vn 0.109798469 -0.727530539 -0.677232385
vn -0.361680329 -0.816991329 -0.449124217
vn -0.524919212 0.230772436 -0.819270313
vn -0.722330511 -0.6913113 0.01809223
vn -0.842717409 0.350633711 -0.408513516
vn -0.745912433 -0.521262944 0.414607793
vn -0.867898345 0.423225552 -0.260062575
vn -0.867898345 0.423225552 -0.260062575
vn -0.875006139 0.294454515 -0.384266526
vn -0.880506754 -0.00224124361 -0.474028468
vn 0.656179368 -0.00172294094 -0.754602969
vn -0.868305743 -0.30341506 -0.39240849
vn -0.880506754 -0.00224124361 -0.474028468
vn 0.582195997 -0.096779719 -0.807267904
vn -0.852594912 -0.445041507 -0.273897737
vn 0.513427496 -0.40840432 -0.75471729
vn -0.820833087 -0.390938282 -0.416413695
vn -0.507118821 -0.285462201 -0.813229203
vn 0.588370204 0.0861190036 -0.803992629
vn -0.875006139 0.294454515 -0.384266526
vn 0.529350102 0.375753254 -0.760656238
vn -0.867898345 0.423225552 -0.260062575
vn -0.842717409 0.350633711 -0.408513516
vn -0.524919212 0.230772436 -0.819270313
vn 0.34770599 0.43661043 -0.829742074
vn -0.0654416606 0.357659519 -0.931556225
vn -0.507118821 -0.285462201 -0.813229203
vn 0.331515491 -0.490137666 -0.806140542
vn -0.0825268254 -0.411645442 -0.907599747
g _nWoman_shoulders_MC1_0
f 3/3/3 2/2/2 1/1/1
f 2/2/2 4/4/4 1/1/1
f 2/2/2 3/3/3 5/5/5
f 3/3/3 6/6/6 5/5/5
f 5/5/5 6/6/6 7/7/7
f 5/5/5 7/7/7 8/8/8
f 8/8/8 9/9/9 5/5/5
f 1/1/1 4/4/4 10/10/10
f 11/11/11 1/1/1 10/10/10
f 11/11/11 10/10/10 12/12/12
f 13/13/13 11/11/11 12/12/12
f 14/14/14 13/13/13 12/12/12
f 15/15/15 14/14/14 12/12/12
f 12/12/12 16/16/16 15/15/15
f 3/3/3 1/1/1 17/17/17
f 18/18/18 3/3/3 17/17/17
f 17/17/17 19/19/19 18/18/18
f 19/19/19 20/20/20 18/18/18
f 18/18/18 20/20/20 21/21/21
f 19/19/19 17/17/17 22/22/22
f 17/17/17 1/1/1 22/22/22
f 1/1/1 11/11/11 22/22/22
f 21/21/21 6/6/6 18/18/18
f 6/6/6 3/3/3 18/18/18
f 7/7/7 6/6/6 21/21/21
f 23/23/23 7/7/7 21/21/21
f 21/21/21 24/24/24 23/23/23
f 24/24/24 25/25/25 23/23/23
f 26/26/26 24/24/24 21/21/21
f 23/23/23 25/25/25 27/27/27
f 25/25/25 28/28/28 27/27/27
f 27/27/27 8/8/8 23/23/23
f 8/8/8 7/7/7 23/23/23
f 9/9/9 8/8/8 27/27/27
f 29/29/29 9/9/9 27/27/27
f 27/27/27 30/30/30 29/29/29
f 30/30/30 31/31/31 29/29/29
f 32/32/32 29/29/29 31/31/31
f 32/32/32 9/9/9 29/29/29
f 33/33/33 32/32/32 31/31/31
f 32/32/32 33/33/33 34/34/34
f 33/33/33 35/35/35 34/34/34
f 35/35/35 36/36/36 34/34/34
f 36/36/36 37/37/37 34/34/34
f 36/36/36 38/38/38 37/37/37
f 34/34/34 5/5/5 32/32/32
f 5/5/5 9/9/9 32/32/32
f 37/37/37 2/2/2 34/34/34
f 2/2/2 5/5/5 34/34/34
f 4/4/4 2/2/2 37/37/37
f 39/39/39 4/4/4 37/37/37
f 40/40/40 39/39/39 37/37/37
f 39/39/39 40/40/40 41/41/41
f 38/38/38 42/42/42 41/41/41
f 42/42/42 43/43/43 41/41/41
f 43/43/43 44/44/44 41/41/41
f 44/44/44 43/43/43 45/45/45
f 43/43/43 46/46/46 45/45/45
f 46/46/46 47/47/47 45/45/45
f 47/47/47 48/48/48 45/45/45
f 48/48/48 47/47/47 49/49/49
f 47/47/47 50/50/50 49/49/49
f 51/51/51 49/49/49 50/50/50
f 52/52/52 51/51/51 50/50/50
f 51/51/51 52/52/52 53/53/53
f 52/52/52 54/54/54 53/53/53
f 53/53/53 54/54/54 22/22/22
f 44/44/44 12/12/12 41/41/41
f 12/12/12 10/10/10 41/41/41
f 45/45/45 16/16/16 44/44/44
f 16/16/16 12/12/12 44/44/44
f 48/48/48 16/16/16 45/45/45
f 49/49/49 15/15/15 48/48/48
f 15/15/15 16/16/16 48/48/48
f 51/51/51 14/14/14 49/49/49
f 14/14/14 15/15/15 49/49/49
f 53/53/53 13/13/13 51/51/51
f 13/13/13 14/14/14 51/51/51
f 22/22/22 11/11/11 53/53/53
f 11/11/11 13/13/13 53/53/53
f 56/56/56 55/55/55 22/22/22
f 55/55/55 57/57/57 22/22/22
f 41/41/41 10/10/10 39/39/39
f 10/10/10 4/4/4 39/39/39
f 60/60/60 59/59/59 58/58/58
f 59/59/59 61/61/61 58/58/58
f 59/59/59 60/60/60 62/62/62
f 60/60/60 63/63/63 62/62/62
f 64/64/64 62/62/62 63/63/63
f 65/65/65 64/64/64 63/63/63
f 58/58/58 61/61/61 66/66/66
f 61/61/61 67/67/67 66/66/66
f 66/66/66 67/67/67 68/68/68
f 67/67/67 69/69/69 68/68/68
f 68/68/68 69/69/69 70/70/70
f 68/68/68 70/70/70 71/71/71
f 72/72/72 68/68/68 71/71/71
f 71/71/71 73/73/73 72/72/72
f 75/75/75 63/63/63 74/74/74
f 74/74/74 76/76/76 75/75/75
f 79/79/79 78/78/78 77/77/77
f 78/78/78 80/80/80 77/77/77
f 80/80/80 78/78/78 81/81/81
f 82/82/82 80/80/80 81/81/81
f 83/83/83 82/82/82 81/81/81
f 84/84/84 83/83/83 81/81/81
f 81/81/81 85/85/85 84/84/84
f 79/79/79 77/77/77 86/86/86
f 77/77/77 87/87/87 86/86/86
f 86/86/86 87/87/87 88/88/88
f 87/87/87 89/89/89 88/88/88
f 88/88/88 89/89/89 90/90/90
f 88/88/88 90/90/90 91/91/91
f 91/91/91 92/92/92 88/88/88
f 77/77/77 80/80/80 93/93/93
f 80/80/80 94/94/94 93/93/93
f 80/80/80 82/82/82 94/94/94
f 95/95/95 93/93/93 94/94/94
f 96/96/96 95/95/95 94/94/94
f 96/96/96 94/94/94 97/97/97
f 93/93/93 95/95/95 98/98/98
f 87/87/87 77/77/77 98/98/98
f 77/77/77 93/93/93 98/98/98
f 82/82/82 97/97/97 94/94/94
f 82/82/82 83/83/83 97/97/97
f 83/83/83 99/99/99 97/97/97
f 100/100/100 97/97/97 99/99/99
f 101/101/101 100/100/100 99/99/99
f 100/100/100 102/102/102 97/97/97
f 101/101/101 99/99/99 103/103/103
f 104/104/104 101/101/101 103/103/103
f 83/83/83 84/84/84 99/99/99
f 84/84/84 103/103/103 99/99/99
f 84/84/84 85/85/85 103/103/103
f 85/85/85 105/105/105 103/103/103
f 106/106/106 103/103/103 105/105/105
f 107/107/107 106/106/106 105/105/105
f 105/105/105 108/108/108 107/107/107
f 85/85/85 108/108/108 105/105/105
f 108/108/108 109/109/109 107/107/107
f 109/109/109 108/108/108 110/110/110
f 111/111/111 109/109/109 110/110/110
f 112/112/112 111/111/111 110/110/110
f 113/113/113 112/112/112 110/110/110
f 114/114/114 112/112/112 113/113/113
f 85/85/85 81/81/81 108/108/108
f 81/81/81 110/110/110 108/108/108
f 81/81/81 78/78/78 110/110/110
f 78/78/78 113/113/113 110/110/110
f 78/78/78 79/79/79 113/113/113
f 79/79/79 115/115/115 113/113/113
f 115/115/115 116/116/116 113/113/113
f 116/116/116 115/115/115 117/117/117
f 118/118/118 114/114/114 117/117/117
f 119/119/119 118/118/118 117/117/117
f 120/120/120 119/119/119 117/117/117
f 119/119/119 120/120/120 121/121/121
f 122/122/122 119/119/119 121/121/121
f 123/123/123 122/122/122 121/121/121
f 124/124/124 123/123/123 121/121/121
f 123/123/123 124/124/124 125/125/125
f 126/126/126 123/123/123 125/125/125
f 125/125/125 127/127/127 126/126/126
f 127/127/127 128/128/128 126/126/126
f 128/128/128 127/127/127 129/129/129
f 130/130/130 128/128/128 129/129/129
f 130/130/130 129/129/129 98/98/98
f 88/88/88 120/120/120 117/117/117
f 86/86/86 88/88/88 117/117/117
f 88/88/88 92/92/92 120/120/120
f 92/92/92 121/121/121 120/120/120
f 92/92/92 124/124/124 121/121/121
f 92/92/92 91/91/91 124/124/124
f 91/91/91 125/125/125 124/124/124
f 91/91/91 90/90/90 125/125/125
f 90/90/90 127/127/127 125/125/125
f 90/90/90 89/89/89 127/127/127
f 89/89/89 129/129/129 127/127/127
f 89/89/89 87/87/87 129/129/129
f 87/87/87 98/98/98 129/129/129
f 132/132/132 131/131/131 98/98/98
f 133/133/133 132/132/132 98/98/98
f 79/79/79 86/86/86 115/115/115
f 86/86/86 117/117/117 115/115/115
f 136/136/136 135/135/135 134/134/134
f 135/135/135 137/137/137 134/134/134
f 137/137/137 135/135/135 138/138/138
f 139/139/139 137/137/137 138/138/138
f 139/139/139 138/138/138 140/140/140
f 139/139/139 140/140/140 141/141/141
f 136/136/136 134/134/134 142/142/142
f 143/143/143 136/136/136 142/142/142
f 143/143/143 142/142/142 144/144/144
f 145/145/145 143/143/143 144/144/144
f 146/146/146 145/145/145 144/144/144
f 147/147/147 146/146/146 144/144/144
f 147/147/147 144/144/144 148/148/148
f 148/148/148 149/149/149 147/147/147
f 151/151/151 139/139/139 150/150/150
f 150/150/150 152/152/152 151/151/151
