g belt
v -0.177414149 -0.0194916371 1.18504977
v -0.154995367 0.0306867789 1.22550166
v -0.173304021 -0.0236047022 1.19717634
v -0.154719353 0.0377082899 1.21103787
v -0.107819065 0.0665694997 1.2373054
v -0.103067122 0.0794350728 1.22390056
v -0.0579928532 0.0788735971 1.23674715
v -0.0539323948 0.0927174762 1.22384512
v -0.157317832 -0.0122384494 1.176373
v -0.135858461 0.0329438969 1.19607711
v -0.0928797796 0.0672398135 1.20275855
v -0.048797112 0.0754015967 1.20514345
v -0.147726506 0.0245954469 1.2393347
v -0.162435457 -0.0319883302 1.22079694
v -0.148768753 0.0121660205 1.24963737
v -0.166091025 -0.0362857729 1.23569429
v -0.100482672 0.0515608005 1.26045704
v -0.102747351 0.062456958 1.24978638
v -0.147107273 0.00733036036 1.26472259
v -0.161870375 -0.0399577729 1.25131202
v -0.129258424 -0.00707271323 1.26569116
v -0.138642132 -0.0478966907 1.25315094
v -0.0943102315 0.0254812334 1.27579308
v -0.102602452 0.0462669656 1.27606988
v -0.0541869923 0.0579935052 1.27513194
v -0.0495731346 0.0349890739 1.27579808
v -0.000429999229 0.0608706474 1.2696923
v -0.000240355424 0.0344520845 1.27141464
v 0.053031709 0.0597471893 1.27264571
v 0.0466739945 0.034398865 1.27324998
v 0.0538799278 0.0686822757 1.25941992
v 0.00255244016 0.0663870573 1.25361419
v 0.0943360701 0.0161372609 1.26780295
v 0.103059031 0.0385525301 1.26883709
v 0.122492656 -0.0125773335 1.2592653
v 0.143635273 0.00366385211 1.25989711
v 0.12911205 -0.0544224568 1.24322283
v 0.153836042 -0.0478734039 1.2406348
v -0.0514257327 0.0631626695 1.2591629
v 0.000388664979 0.0783535168 1.24296868
v -0.0537077375 0.0746112838 1.24853957
v -0.00370097579 0.0835997164 1.23172128
v 0.0515548512 0.0798047706 1.2368052
v 0.0545550995 0.0771714747 1.24665225
v 0.103798613 0.0493464135 1.24284196
v 0.104709059 0.0460299104 1.25600243
v 0.142453402 0.00956240669 1.23243761
v 0.147640526 0.0110177994 1.24722433
v 0.164815247 -0.038606029 1.21142089
v 0.159046903 -0.0442299768 1.22867703
v 0.170230746 -0.0356893167 1.19618309
v 0.155008435 0.026811609 1.22127438
v 0.1580116 0.0353690647 1.20943522
v 0.177694291 -0.0357357822 1.18137062
v 0.104062743 0.0583535284 1.23262942
v 0.108606003 0.0701283738 1.22027862
v 0.100169562 0.0589383394 1.19833922
v 0.139278576 0.0301679708 1.19045413
v 0.151173517 -0.0204526316 1.16998398
v 0.0544551648 0.0938330069 1.22370267
v 0.0499040931 0.0807126537 1.2019732
v -6.65745101E-05 0.0983938128 1.21964943
v 0.00013640523 0.0747932792 1.20759988
v 0.00925956946 -0.135773674 1.15718806
v -0.0458529219 -0.124985069 1.17431664
v 0.00367274811 -0.139262289 1.18730402
v 0.0411234051 -0.128152892 1.16139793
v 0.0397079661 -0.133330405 1.19367945
v 0.00697466498 -0.112846971 1.14806747
v -0.043369811 -0.121417232 1.15551293
v -0.038786117 -0.0988383666 1.14417827
v -0.0723124295 -0.113058262 1.17549098
v -0.0771289691 -0.0935253575 1.14734674
v -0.085626401 -0.118288651 1.15917957
v -0.112300575 -0.0972275808 1.18254101
v -0.122650757 -0.103377923 1.16581023
v -0.111964382 -0.0843794644 1.15671313
v 0.0388991944 -0.103214145 1.15310121
v 0.0532276183 -0.0936100334 1.14414871
v 0.0593647994 -0.119633041 1.15845072
v 0.0739327967 -0.0885815248 1.14616501
v 0.0812450871 -0.112905726 1.15942109
v -0.160339773 -0.0791812837 1.17711222
v -0.148722455 -0.0736188889 1.19319654
v -0.173304021 -0.0236047022 1.19717634
v -0.177414149 -0.0194916371 1.18504977
v -0.146326542 -0.0611388534 1.16740334
v -0.157317832 -0.0122384494 1.176373
v 0.120593525 -0.099551715 1.16145384
v 0.077896148 -0.112724438 1.1727556
v 0.115120806 -0.0997660011 1.17820525
v 0.107728906 -0.0762693435 1.14949441
v 0.135881126 -0.0598682351 1.15613735
v 0.155130863 -0.0803470314 1.1668818
v 0.177694291 -0.0357357822 1.18137062
v 0.151173517 -0.0204526316 1.16998398
v 0.170230746 -0.0356893167 1.19618309
v 0.148297966 -0.0813706964 1.18316686
v 0.115696393 -0.103682898 1.19382286
v 0.147463024 -0.0860695317 1.19814837
v 0.0790279955 -0.11584051 1.19221544
v 0.109164312 -0.0998941436 1.2085501
v 0.0779427439 -0.117982492 1.20956361
v 0.100093096 -0.11148981 1.22587669
v 0.107635736 -0.107894212 1.2211442
v 0.0920088738 -0.0984501839 1.23143637
v 0.0634538233 -0.10994868 1.22883201
v 0.0769129992 -0.119242303 1.22353876
v 0.0385059975 -0.137656987 1.22400796
v 0.0324547067 -0.124256656 1.22796035
v 0.00953996088 -0.130771667 1.22755158
v 0.00986872334 -0.14729102 1.22399414
v -0.0484933332 -0.129683241 1.22013247
v -0.0483296327 -0.128265813 1.19211376
v 0.0391468331 -0.135565385 1.20876038
v -0.0393623225 -0.112896495 1.22676003
v -0.0692578033 -0.122400284 1.22429931
v -0.060114067 -0.105059355 1.22994912
v -0.0760210231 -0.125171006 1.1914078
v -0.115620211 -0.11166887 1.22837496
v -0.0997162908 -0.0986502618 1.23808944
v -0.126118883 -0.0790755525 1.2456677
v -0.144321337 -0.0887816697 1.23768139
v -0.138642132 -0.0478966907 1.25315094
v -0.161870375 -0.0399577729 1.25131202
v -0.14088358 -0.0787568018 1.22339821
v -0.108852267 -0.10126926 1.21304846
v -0.151389465 -0.0844908282 1.20799065
v -0.118921526 -0.108255051 1.19757628
v -0.162435457 -0.0319883302 1.22079694
v -0.166091025 -0.0362857729 1.23569429
v 0.116516031 -0.0837272406 1.23887658
v 0.153836042 -0.0478734039 1.2406348
v 0.13935253 -0.0910958648 1.22887301
v 0.12911205 -0.0544224568 1.24322283
v 0.0976879373 -0.0956115723 1.22752893
v 0.143067896 -0.0816216841 1.21375406
v 0.159046903 -0.0442299768 1.22867703
v 0.164815247 -0.038606029 1.21142089
v -0.146813795 0.0419977382 1.24481905
v -0.135685056 0.0705643073 1.23208892
v -0.0994269475 0.0826628581 1.25346339
v -0.163172185 0.0415987484 1.22197604
v -0.146142095 0.0791885555 1.19502747
v -0.174559206 0.0455619022 1.18912637
v -0.192325354 -0.000306175934 1.17890334
v -0.182963312 -0.00858971011 1.20886302
v -0.191297323 -0.0574858263 1.16159916
v -0.17834501 -0.0659322888 1.1930517
v -0.171525612 -0.0186941009 1.22957277
v -0.163212582 -0.0771735385 1.21139085
v -0.16358161 -0.102499336 1.14478648
v -0.152047828 -0.10729859 1.18271482
v -0.157930627 0.029377874 1.26774681
v -0.176539093 -0.0219992008 1.25654709
v -0.113322884 -0.135180607 1.19060302
v -0.132820934 -0.132715285 1.21924615
v -0.173455119 -0.0805334076 1.23999476
v -0.18950668 -0.0815533996 1.2738508
v -0.19298546 -0.0291452836 1.28961885
v -0.1630629 -0.123965368 1.25357556
v -0.176090583 0.0218536053 1.298648
v -0.148970991 0.054751914 1.30223596
v -0.116203614 0.0688112229 1.27854848
v -0.143146709 0.0471267588 1.30498862
v -0.11018502 0.060844779 1.27910697
v -0.168061584 0.0169335864 1.30201387
v -0.143146709 0.0471267588 1.30498862
v -0.14988187 0.0238372218 1.26987255
v -0.11018502 0.060844779 1.27910697
v -0.138755754 0.0366970189 1.24217439
v -0.161678046 -0.0195716023 1.22806048
v -0.167238593 -0.0243042987 1.25940835
v -0.173703209 -0.0089306673 1.20510352
v -0.169196561 -0.063049607 1.19015765
v -0.153791219 -0.0738274902 1.21167922
v -0.18175672 -0.0551273823 1.15967417
v -0.156344801 -0.0957602113 1.14329958
v -0.145162225 -0.100554548 1.18004906
v -0.18277733 -0.000618028629 1.17594731
v -0.155065641 0.0380027629 1.21735513
v -0.129560098 0.0644960925 1.22702312
v -0.166013598 0.0420762226 1.18527627
v -0.140795857 0.0712276697 1.19219279
v -0.0933169052 0.0751736015 1.25089741
v -0.129560098 0.0644960925 1.22702312
v -0.164626896 -0.0793662444 1.24454463
v -0.180626661 -0.0818459243 1.2784909
v -0.184128284 -0.0317178853 1.29348314
v -0.125902712 -0.12765567 1.22439778
v -0.106183298 -0.128278941 1.19178557
v -0.145162225 -0.100554548 1.18004906
v -0.15595381 -0.120266423 1.25954545
v -0.15595381 -0.120266423 1.25954545
v -0.125902712 -0.12765567 1.22439778
v -0.106183298 -0.128278941 1.19178557
v -0.106183298 -0.128278941 1.19178557
v -0.106183298 -0.128278941 1.19178557
v -0.145162225 -0.100554548 1.18004906
v -0.0933169052 0.0751736015 1.25089741
v -0.129560098 0.0644960925 1.22702312
v -0.0933169052 0.0751736015 1.25089741
v -0.140795857 0.0712276697 1.19219279
v -0.129560098 0.0644960925 1.22702312
v -0.135685056 0.0705643073 1.23208892
v -0.146142095 0.0791885555 1.19502747
v -0.0933169052 0.0751736015 1.25089741
v -0.156344801 -0.0957602113 1.14329958
v -0.152047828 -0.10729859 1.18271482
v -0.145162225 -0.100554548 1.18004906
v -0.16358161 -0.102499336 1.14478648
v -0.18175672 -0.0551273823 1.15967417
v -0.156344801 -0.0957602113 1.14329958
v -0.18277733 -0.000618028629 1.17594731
v -0.166013598 0.0420762226 1.18527627
v -0.140795857 0.0712276697 1.19219279
v 0.14681372 0.0419977754 1.24481905
v 0.135684967 0.0705643371 1.23208892
v 0.163172096 0.0415987968 1.22197604
v 0.0994268656 0.082662873 1.25346339
v 0.146142021 0.0791886002 1.19502747
v 0.174559116 0.0455619507 1.18912637
v 0.192325249 -0.000306111557 1.17890334
v 0.182963207 -0.00858965144 1.20886302
v 0.191297248 -0.0574857518 1.16159928
v 0.178344935 -0.0659322217 1.19305182
v 0.171525538 -0.0186940413 1.22957277
v 0.163212523 -0.0771734789 1.21139085
v 0.16358158 -0.102499261 1.14478648
v 0.152047813 -0.107298516 1.18271494
v 0.157930568 0.0293779168 1.26774681
v 0.176539019 -0.0219991393 1.25654709
v 0.113322884 -0.135180533 1.19060302
v 0.132820904 -0.132715225 1.21924615
v 0.173455045 -0.0805333331 1.23999476
v 0.189506605 -0.0815533251 1.2738508
v 0.192985371 -0.0291452166 1.28961885
v 0.163062841 -0.123965301 1.25357568
v 0.176090464 0.0218536593 1.298648
v 0.148970902 0.0547519587 1.30223596
v 0.116203524 0.0688112453 1.27854848
v 0.143146634 0.0471267924 1.30498862
v 0.110184945 0.0608447902 1.27910697
v 0.16806148 0.0169336386 1.30201387
v 0.143146634 0.0471267924 1.30498862
v 0.149881795 0.0238372609 1.26987255
v 0.110184945 0.0608447902 1.27910697
v 0.138755679 0.0366970561 1.24217439
v 0.161677971 -0.0195715465 1.22806048
v 0.167238519 -0.0243042409 1.25940835
v 0.173703134 -0.00893060863 1.20510352
v 0.169196486 -0.0630495474 1.19015765
v 0.153791174 -0.0738274306 1.21167922
v 0.181756645 -0.0551273152 1.15967429
v 0.156344771 -0.0957601368 1.14329958
v 0.145162195 -0.100554481 1.18004918
v 0.182777226 -0.000617966638 1.17594731
v 0.155065551 0.0380028151 1.21735513
v 0.129560009 0.0644961149 1.22702324
v 0.166013509 0.0420762785 1.18527627
v 0.140795767 0.0712276995 1.19219279
v 0.0933168307 0.0751736239 1.25089741
v 0.129560009 0.0644961149 1.22702324
v 0.164626837 -0.0793661848 1.24454463
v 0.180626586 -0.0818458572 1.2784909
v 0.18412821 -0.0317178182 1.29348314
v 0.125902697 -0.12765561 1.22439778
v 0.106183276 -0.128278881 1.19178557
v 0.145162195 -0.100554481 1.18004918
v 0.155953795 -0.120266356 1.25954545
v 0.155953795 -0.120266356 1.25954545
v 0.125902697 -0.12765561 1.22439778
v 0.106183276 -0.128278881 1.19178557
v 0.106183276 -0.128278881 1.19178557
v 0.106183276 -0.128278881 1.19178557
v 0.145162195 -0.100554481 1.18004918
v 0.0933168307 0.0751736239 1.25089741
v 0.0933168307 0.0751736239 1.25089741
v 0.129560009 0.0644961149 1.22702324
v 0.140795767 0.0712276995 1.19219279
v 0.129560009 0.0644961149 1.22702324
v 0.135684967 0.0705643371 1.23208892
v 0.146142021 0.0791886002 1.19502747
v 0.0933168307 0.0751736239 1.25089741
v 0.156344771 -0.0957601368 1.14329958
v 0.152047813 -0.107298516 1.18271494
v 0.16358158 -0.102499261 1.14478648
v 0.145162195 -0.100554481 1.18004918
v 0.181756645 -0.0551273152 1.15967429
v 0.156344771 -0.0957601368 1.14329958
v 0.182777226 -0.000617966638 1.17594731
v 0.166013509 0.0420762785 1.18527627
v 0.140795767 0.0712276995 1.19219279
vt 0.0718826726 0.086870648
vt 0.192212999 0.117496729
vt 0.0748615935 0.115782343
vt 0.194118813 0.0892241821
vt 0.302000284 0.109228089
vt 0.315271676 0.0771438479
vt 0.3955217 0.101953536
vt 0.406125963 0.0670225248
vt 0.0935853794 0.0466197059
vt 0.199139416 0.0450726077
vt 0.313015699 0.0294943042
vt 0.406953871 0.0190077871
vt 0.200599104 0.14608103
vt 0.088581942 0.169310838
vt 0.191227213 0.173517495
vt 0.0957865193 0.201562718
vt 0.309036195 0.159930676
vt 0.310240448 0.132563382
vt 0.198972866 0.201167881
vt 0.110762082 0.232560039
vt 0.205850884 0.242581382
vt 0.12815544 0.276904106
vt 0.304891944 0.229811072
vt 0.306258619 0.189455107
vt 0.395909905 0.186719105
vt 0.398247957 0.230420321
vt 0.49635011 0.18571499
vt 0.495100856 0.235973552
vt 0.595200837 0.189913079
vt 0.588033736 0.237730503
vt 0.597675502 0.160594761
vt 0.503321886 0.1530516
vt 0.690423071 0.255181164
vt 0.691721976 0.210415706
vt 0.773084819 0.280603468
vt 0.785645843 0.2347233
vt 0.850085378 0.326328456
vt 0.875453234 0.282506555
vt 0.403178394 0.1556485
vt 0.501611233 0.122290432
vt 0.4020468 0.126045153
vt 0.495637476 0.0983902067
vt 0.597207367 0.114067346
vt 0.60040921 0.13275592
vt 0.70210439 0.158179492
vt 0.697040737 0.182616949
vt 0.805518687 0.189383119
vt 0.794024765 0.210972592
vt 0.909143567 0.222192228
vt 0.892054915 0.256654888
vt 0.92873168 0.193598419
vt 0.810335636 0.148764685
vt 0.812342107 0.125479966
vt 0.950057328 0.164509356
vt 0.700587153 0.133112788
vt 0.706680596 0.0996291637
vt 0.719294131 0.0525423363
vt 0.82092154 0.0798851326
vt 0.931069314 0.102287948
vt 0.602121055 0.0784823075
vt 0.608374357 0.0324536897
vt 0.504702151 0.0633329526
vt 0.507015109 0.0155980671
vt 0.453677356 0.460080951
vt 0.348175108 0.438555151
vt 0.441325843 0.406214535
vt 0.512557507 0.456553072
vt 0.508829117 0.394629389
vt 0.451819956 0.504413247
vt 0.355104804 0.476762503
vt 0.361347616 0.526138544
vt 0.295273662 0.44467172
vt 0.284902453 0.531300366
vt 0.277751327 0.479670435
vt 0.213826582 0.442955762
vt 0.206392765 0.47971487
vt 0.20780161 0.523244798
vt 0.518806458 0.505940378
vt 0.552526534 0.521236598
vt 0.5491274 0.464306861
vt 0.594007194 0.51753056
vt 0.591418266 0.463697791
vt 0.128149197 0.467002273
vt 0.128195241 0.431937695
vt 0.0226578731 0.442851037
vt 0.0166255869 0.470696956
vt 0.118764721 0.509524345
vt 0.0187163968 0.515732586
vt 0.666699171 0.460682958
vt 0.586363971 0.4376508
vt 0.658706844 0.429345548
vt 0.665661514 0.514688611
vt 0.735077381 0.506570101
vt 0.735228419 0.453293562
vt 0.828380406 0.452382326
vt 0.822020531 0.516027272
vt 0.827733397 0.415911853
vt 0.73007971 0.424852133
vt 0.658842504 0.399862289
vt 0.725439429 0.399165034
vt 0.588075519 0.399195999
vt 0.653353095 0.370232522
vt 0.586239278 0.365277261
vt 0.630209506 0.335786432
vt 0.64686197 0.341748446
vt 0.627336681 0.306368202
vt 0.567786872 0.308856398
vt 0.584105611 0.337469578
vt 0.504346609 0.336568862
vt 0.501397491 0.307984889
vt 0.448969185 0.309901148
vt 0.450760424 0.338422298
vt 0.339444458 0.348682076
vt 0.342554152 0.402753145
vt 0.507554412 0.366014719
vt 0.346126676 0.310518563
vt 0.29623419 0.343766272
vt 0.303944945 0.305710584
vt 0.292762697 0.407047898
vt 0.208808631 0.340410441
vt 0.222240895 0.302630186
vt 0.149421722 0.300056994
vt 0.143344864 0.339074045
vt 0.0811202899 0.292235404
vt 0.0474367365 0.326843023
vt 0.136432692 0.369127184
vt 0.214593858 0.374109328
vt 0.136644199 0.401814163
vt 0.209144592 0.408450067
vt 0.0382661745 0.390307963
vt 0.0407533683 0.360203713
vt 0.69451195 0.301277459
vt 0.793978393 0.318082541
vt 0.713007629 0.343645215
vt 0.755896509 0.285754621
vt 0.644032478 0.309094608
vt 0.727722585 0.370825142
vt 0.805809319 0.344450742
vt 0.819990516 0.381336987
vt 0.376228213 0.658842206
vt 0.420776904 0.624510586
vt 0.478807509 0.661952674
vt 0.356331527 0.618276358
vt 0.412415206 0.561813116
vt 0.34417069 0.564161658
vt 0.268186808 0.563843429
vt 0.268582344 0.615225017
vt 0.178083926 0.558963478
vt 0.174092576 0.614568174
vt 0.263677061 0.65573895
vt 0.158734396 0.654240012
vt 0.0931354761 0.554918945
vt 0.0954552591 0.619308472
vt 0.359055459 0.700824857
vt 0.268748224 0.698768735
vt 0.029256979 0.657791018
vt 0.0606423505 0.700336993
vt 0.170553699 0.70137006
vt 0.190020651 0.754823923
vt 0.267558515 0.755828977
vt 0.10943462 0.754695773
vt 0.345278263 0.756302297
vt 0.409000933 0.757885456
vt 0.45204407 0.705521822
vt 0.421167612 0.767563224
vt 0.465225458 0.714455187
vt 0.344177783 0.771539807
vt 0.404031098 0.778374374
vt 0.351345181 0.830611408
vt 0.438806355 0.837253809
vt 0.364605606 0.881604731
vt 0.260496557 0.8800475
vt 0.266293705 0.828395724
vt 0.264291167 0.925363541
vt 0.175983325 0.925361156
vt 0.163532153 0.88041842
vt 0.177770168 0.979419649
vt 0.0996299982 0.979641497
vt 0.104602143 0.919873714
vt 0.263290584 0.975786388
vt 0.345586121 0.925385296
vt 0.404711008 0.919693828
vt 0.333516419 0.978062749
vt 0.394065857 0.976438582
vt 0.461464047 0.88354069
vt 0.404711008 0.919693828
vt 0.173811376 0.824434757
vt 0.188806236 0.768358827
vt 0.266612172 0.768578827
vt 0.070913054 0.833785772
vt 0.042273473 0.879835546
vt 0.104602143 0.919873714
vt 0.113457471 0.775656998
vt 0.0985761806 0.766067803
vt 0.0491812006 0.711220503
vt 0.0140849557 0.662520707
vt 0.017909253 0.647399247
vt 0.017909253 0.647399247
vt 0.0833137706 0.612244666
vt 0.490374863 0.651762486
vt 0.432952762 0.615718424
vt 0.490374863 0.651762486
vt 0.427393496 0.559725821
vt 0.432952762 0.615718424
vt 0.420776904 0.624510586
vt 0.412415206 0.561813116
vt 0.493929327 0.666379273
vt 0.0779290423 0.554478228
vt 0.0954552591 0.619308472
vt 0.0833137706 0.612244666
vt 0.0931354761 0.554918945
vt 0.177202538 0.543843746
vt 0.0957555994 0.539088726
vt 0.269524395 0.548282385
vt 0.345141113 0.548649371
vt 0.407675564 0.546753764
vt 0.623291731 0.641448736
vt 0.579901993 0.60565412
vt 0.644518912 0.601565242
vt 0.520665944 0.641149342
vt 0.590332806 0.543268859
vt 0.658461928 0.547883987
vt 0.734414697 0.550089478
vt 0.732320487 0.601429999
vt 0.824629188 0.548206031
vt 0.826779306 0.603913426
vt 0.735883713 0.642085135
vt 0.840817809 0.644073784
vt 0.909664512 0.546990156
vt 0.905215859 0.611266553
vt 0.639067769 0.683980882
vt 0.729393184 0.684923351
vt 0.97010684 0.651925564
vt 0.937333047 0.693402946
vt 0.827447653 0.690784037
vt 0.806226254 0.743559718
vt 0.728698015 0.74199307
vt 0.886771381 0.746106446
vt 0.651005507 0.739888251
vt 0.587265074 0.73935473
vt 0.545975208 0.685586572
vt 0.574783802 0.748620689
vt 0.53250581 0.694076121
vt 0.651602924 0.755158126
vt 0.591557324 0.760005236
vt 0.642494917 0.813965499
vt 0.554862618 0.817710519
vt 0.627565682 0.864497364
vt 0.731669664 0.866380692
vt 0.727572918 0.814564049
vt 0.726389527 0.911547363
vt 0.814650238 0.91445756
vt 0.828569472 0.869952142
vt 0.811090708 0.968426943
vt 0.889181197 0.971226633
vt 0.886172831 0.911328733
vt 0.725735426 0.9619748
vt 0.645137906 0.908884883
vt 0.586231768 0.901244104
vt 0.655471683 0.961933017
vt 0.595007896 0.958310962
vt 0.530695796 0.863231421
vt 0.586231768 0.901244104
vt 0.820135653 0.813661873
vt 0.806993842 0.757124186
vt 0.729223311 0.754768372
vt 0.922670066 0.826411784
vt 0.949781299 0.873375177
vt 0.886172831 0.911328733
vt 0.882061362 0.766914487
vt 0.897245944 0.757834971
vt 0.948427975 0.704662025
vt 0.985114813 0.657156229
vt 0.981791377 0.641916394
vt 0.981791377 0.641916394
vt 0.917583346 0.604610682
vt 0.509441495 0.63057977
vt 0.509441495 0.63057977
vt 0.568022549 0.596461535
vt 0.575431943 0.54068464
vt 0.568022549 0.596461535
vt 0.579901993 0.60565412
vt 0.590332806 0.543268859
vt 0.505406201 0.645071566
vt 0.924876809 0.547055423
vt 0.905215859 0.611266553
vt 0.909664512 0.546990156
vt 0.917583346 0.604610682
vt 0.826010168 0.533123434
vt 0.907569587 0.531081855
vt 0.733592153 0.534492433
vt 0.65800488 0.53234762
vt 0.595567763 0.52837497
vn -0.922957122 0.119539849 -0.365869343
vn -0.821753383 0.405261904 0.400604725
vn -0.929000914 -0.132093832 0.345700145
vn -0.729121268 0.650385141 -0.213028848
vn -0.471899003 0.743936837 0.473148257
vn -0.418687403 0.907680333 0.0285882317
vn -0.129113585 0.822219014 0.554333389
vn -0.139634714 0.988805056 0.0525995791
vn -0.467483103 0.338253289 -0.816727817
vn -0.409542412 0.600024939 -0.687200904
vn -0.307856202 0.732853711 -0.606753588
vn -0.0872561336 0.680897951 -0.727161765
vn -0.760121703 0.396075398 0.51511097
vn -0.988220692 -0.112264879 0.104002438
vn -0.862265706 0.428614765 0.269791007
vn -0.99770689 -0.0565608628 -0.0371722616
vn -0.419817895 0.765540957 0.487544745
vn -0.378556788 0.725234389 0.575091183
vn -0.656193554 0.23907043 0.715720057
vn -0.729466736 -0.196387336 0.655217707
vn -0.182554409 -0.178085357 0.966933012
vn -0.183028862 -0.296171814 0.937434077
vn -0.08535707 -0.0479157679 0.995197594
vn -0.360369742 0.544305801 0.757538557
vn -0.0564269871 0.619628608 0.782864273
vn 0.0477439463 0.0412411243 0.998007834
vn -0.0153228147 0.622116566 0.782774687
vn 0.0192605741 0.0607677065 0.997966051
vn 0.129010469 0.49516046 0.859169602
vn 0.0338062607 0.0153452791 0.999310613
vn 0.182729006 0.827156961 0.531433523
vn -0.0305322241 0.832784712 0.552754462
vn 0.129782036 -0.0854367465 0.987854779
vn 0.360361964 0.388380378 0.848115504
vn 0.169615552 -0.240826294 0.955632389
vn 0.600302339 0.0993003547 0.793584645
vn 0.170595258 -0.25317052 0.952261508
vn 0.679746449 -0.260454297 0.685644567
vn -0.0806478262 0.840136468 0.53634572
vn 0.00380199775 0.813652992 0.581338406
vn -0.0883090422 0.816843987 0.570059121
vn -0.00973711535 0.783509851 0.621303082
vn 0.166716993 0.845595777 0.507122397
vn 0.213846222 0.891020596 0.400439888
vn 0.546156406 0.721386373 0.425810903
vn 0.545856535 0.77752316 0.312247425
vn 0.846112907 0.451758504 0.282855362
vn 0.83395946 0.537920356 0.123099163
vn 0.95437479 -0.0918431804 0.284136564
vn 0.942161262 -0.181967184 0.281460583
vn 0.90815711 -0.166829422 0.383951277
vn 0.730581641 0.26771751 0.628154278
vn 0.796108603 0.6034199 -0.0457781777
vn 0.965618193 -0.0464417338 -0.255782247
vn 0.444086641 0.632937372 0.634174585
vn 0.4966923 0.85819751 0.129590288
vn 0.35847488 0.762445867 -0.538676143
vn 0.49290216 0.577352166 -0.650931656
vn 0.517674804 0.301868945 -0.800554812
vn 0.239716917 0.959482431 0.148085415
vn 0.169706732 0.780798435 -0.601293206
vn -0.0473406203 0.995513856 -0.0819205269
vn -0.0499084108 0.453816891 -0.88969624
vn 0.0537301563 -0.810171723 -0.583724976
vn -0.276212066 -0.928056419 -0.249836236
vn -0.0383434482 -0.986972749 -0.15625146
vn 0.257477403 -0.78745991 -0.56001097
vn 0.296591192 -0.94524914 -0.136153087
vn 0.0635640621 -0.362839162 -0.929681242
vn -0.201429412 -0.764256716 -0.612648189
vn -0.0958010852 -0.43097806 -0.897262514
vn -0.30626443 -0.937801182 -0.163496554
vn -0.198644638 -0.364418715 -0.9098019
vn -0.281218082 -0.89832294 -0.33753857
vn -0.460591733 -0.883435428 -0.0860060826
vn -0.508851349 -0.800149441 -0.317539304
vn -0.357563853 -0.232028797 -0.904605269
vn -0.113195449 -0.322722346 -0.939700544
vn 0.0545202047 -0.428494394 -0.901898086
vn 0.283333033 -0.770943165 -0.570411265
vn 0.191896766 -0.416117609 -0.888831735
vn 0.2919119 -0.828655064 -0.477617145
vn -0.788755953 -0.584930658 -0.188998073
vn -0.805143178 -0.579994321 0.123899214
vn -0.929000914 -0.132093832 0.345700145
vn -0.922957122 0.119539849 -0.365869343
vn -0.461165547 -0.0944641456 -0.882271349
vn -0.467483103 0.338253289 -0.816727817
vn 0.41944471 -0.762600362 -0.49244985
vn 0.351729155 -0.934740722 -0.0504625775
vn 0.402610153 -0.913564742 -0.0574858077
vn 0.285286635 -0.308487266 -0.907439828
vn 0.406354398 -0.0921835154 -0.909053564
vn 0.724771023 -0.544210017 -0.422542751
vn 0.965618193 -0.0464417338 -0.255782247
vn 0.517674804 0.301868945 -0.800554812
vn 0.90815711 -0.166829422 0.383951277
vn 0.712520719 -0.700232863 0.0445901752
vn 0.400560498 -0.913978815 0.0647605509
vn 0.704639316 -0.701591432 0.10607937
vn 0.400654316 -0.910430789 -0.102916993
vn 0.432476014 -0.901011467 -0.033803761
vn 0.428554118 -0.898131967 -0.0984903574
vn 0.502615869 -0.69590956 0.512920201
vn 0.338093996 -0.933122277 0.122373544
vn 0.288764298 -0.2105892 0.933952451
vn 0.114694923 -0.331115514 0.936593592
vn 0.286917835 -0.804287374 0.520384431
vn 0.296738535 -0.778341472 0.553290904
vn 0.0708087534 -0.252639621 0.964966059
vn -0.033707276 -0.22683993 0.973348558
vn 0.00322094164 -0.865184903 0.501442671
vn -0.210606337 -0.836732745 0.505493164
vn -0.183305874 -0.978135467 -0.0982343033
vn 0.329831719 -0.93386358 -0.138238236
vn -0.0507269278 -0.330084175 0.942587435
vn -0.192419037 -0.771953881 0.605856597
vn 0.0234911181 -0.359831065 0.932721734
vn -0.335466057 -0.919157147 -0.206428409
vn -0.402569026 -0.905593216 0.133562997
vn -0.0171795581 -0.584396303 0.811286569
vn -0.174758673 -0.410754591 0.894840896
vn -0.693856239 -0.659375787 0.289460033
vn -0.183028862 -0.296171814 0.937434077
vn -0.729466736 -0.196387336 0.655217707
vn -0.795954943 -0.605334759 0.00506961159
vn -0.451883256 -0.892075598 -0.00165187125
vn -0.803081989 -0.58995986 0.0837057307
vn -0.494819224 -0.866228878 -0.0692919865
vn -0.988220692 -0.112264879 0.104002438
vn -0.99770689 -0.0565608628 -0.0371722616
vn 0.144074246 -0.480496585 0.86508131
vn 0.679746449 -0.260454297 0.685644567
vn 0.613009036 -0.708056092 0.350537479
vn 0.170595258 -0.25317052 0.952261508
vn 0.26328373 -0.268437833 0.926619053
vn 0.76721561 -0.631510139 0.1121388
vn 0.942161262 -0.181967184 0.281460583
vn 0.95437479 -0.0918431804 0.284136564
vn -0.794056416 0.541310549 0.276509076
vn -0.284785986 0.93295604 0.220204219
vn 0.300296187 0.953524411 0.0247661714
vn -0.810245156 0.376212597 0.449407399
vn -0.0745793879 0.93914324 -0.335332572
vn -0.775421143 0.523560345 -0.352996498
vn -0.888241231 0.253592432 -0.383038521
vn -0.910940886 0.0471459441 0.409834117
vn -0.881034136 -0.109636091 -0.460172594
vn -0.861276627 -0.381361783 0.335806072
vn -0.983203769 0.0827533826 0.162672624
vn -0.901234329 -0.43226251 0.0304271691
vn -0.294286162 -0.728736281 -0.618335724
vn -0.425302148 -0.90174818 -0.0772553533
vn -0.801078558 0.550560534 -0.234853521
vn -0.933315217 0.212002262 -0.289789438
vn 0.183869541 -0.865099609 -0.466684848
vn -0.257070541 -0.964482069 -0.060738463
vn -0.894105077 -0.199007899 -0.401213199
vn -0.907999396 -0.340161622 0.2445959
vn -0.938140988 0.0407306775 0.343849748
vn -0.552581191 -0.82703203 0.103305802
vn -0.828884006 0.387167156 0.403797954
vn -0.403475851 0.768344223 0.496844441
vn -0.0211105254 0.869773805 0.492998898
vn 0.388069034 -0.128370792 0.912646353
vn 0.81036067 -0.206097826 0.548488319
vn 0.251179963 -0.263577759 0.931362092
vn 0.388069034 -0.128370792 0.912646353
vn 0.802164793 -0.554154754 0.222360373
vn 0.81036067 -0.206097826 0.548488319
vn 0.796286523 -0.539353251 -0.273908406
vn 0.983722031 -0.0849818289 -0.158331677
vn 0.936317086 -0.208699971 0.282408625
vn 0.914907038 -0.0488361456 -0.400699645
vn 0.865815997 0.38536489 -0.319149822
vn 0.902598917 0.430080026 -0.0186085291
vn 0.347427875 0.395017773 -0.850443959
vn 0.574686825 -0.00299266982 -0.818367958
vn 0.767206013 0.125374794 -0.629027903
vn 0.408551693 0.163768604 -0.897922814
vn 0.811915278 -0.384633243 -0.439147741
vn 0.785950005 0.0837222189 -0.612595379
vn 0.3756046 0.00585695822 -0.926761508
vn 0.676121175 0.13332963 -0.724626422
vn 0.969527721 0.0759950876 -0.232896313
vn 0.785950005 0.0837222189 -0.612595379
vn 0.894097328 0.205719635 0.397830784
vn 0.247381926 -0.311409146 0.917511046
vn 0.240478173 -0.255459696 0.936434984
vn 0.771830857 -0.294112206 0.563715577
vn 0.955482841 -0.0882878453 -0.28152746
vn 0.767206013 0.125374794 -0.629027903
vn 0.414403856 -0.401574075 0.816705406
vn 0.414403856 -0.401574075 0.816705406
vn 0.771830857 -0.294112206 0.563715577
vn 0.955482841 -0.0882878453 -0.28152746
vn 0.955482841 -0.0882878453 -0.28152746
vn 0.955482841 -0.0882878453 -0.28152746
vn 0.767206013 0.125374794 -0.629027903
vn 0.969527721 0.0759950876 -0.232896313
vn 0.785950005 0.0837222189 -0.612595379
vn 0.969527721 0.0759950876 -0.232896313
vn 0.676121175 0.13332963 -0.724626422
vn 0.785950005 0.0837222189 -0.612595379
vn -0.284785986 0.93295604 0.220204219
vn -0.0745793879 0.93914324 -0.335332572
vn 0.969527721 0.0759950876 -0.232896313
vn 0.574686825 -0.00299266982 -0.818367958
vn -0.425302148 -0.90174818 -0.0772553533
vn 0.767206013 0.125374794 -0.629027903
vn -0.294286162 -0.728736281 -0.618335724
vn 0.347427875 0.395017773 -0.850443959
vn 0.574686825 -0.00299266982 -0.818367958
vn 0.408551693 0.163768604 -0.897922814
vn 0.3756046 0.00585695822 -0.926761508
vn 0.676121175 0.13332963 -0.724626422
vn 0.794056237 0.541310966 0.276508838
vn 0.284784615 0.932956576 0.220204189
vn 0.810245156 0.376212507 0.449407309
vn -0.300296336 0.953524411 0.0247662142
vn 0.0745792091 0.939143181 -0.335332632
vn 0.775421262 0.523560226 -0.352996469
vn 0.888241053 0.253592521 -0.3830387
vn 0.910941005 0.0471465215 0.409833789
vn 0.881034434 -0.109635711 -0.460172206
vn 0.861276746 -0.381361336 0.335806459
vn 0.98320365 0.082753703 0.162672535
vn 0.901234448 -0.432262361 0.0304279383
vn 0.294286102 -0.728735983 -0.618336141
vn 0.425302982 -0.901747882 -0.0772540495
vn 0.801078558 0.550560653 -0.234853402
vn 0.933315217 0.212002337 -0.289789379
vn -0.183867946 -0.865099251 -0.466685981
vn 0.257071108 -0.96448189 -0.060738422
vn 0.894105256 -0.199007899 -0.401212841
vn 0.908000469 -0.340160757 0.244593024
vn 0.938140988 0.0407313369 0.343849599
vn 0.552579701 -0.827032745 0.103308015
vn 0.828884006 0.387167186 0.403798014
vn 0.403475463 0.768344522 0.496844321
vn 0.0211099051 0.869773686 0.492999136
vn -0.388068974 -0.12837103 0.912646353
vn -0.81036067 -0.206098333 0.548488021
vn -0.251180023 -0.263577878 0.931361973
vn -0.388068974 -0.12837103 0.912646353
vn -0.802164733 -0.554154932 0.222360238
vn -0.81036067 -0.206098333 0.548488021
vn -0.796286523 -0.539353549 -0.27390781
vn -0.983722031 -0.0849818438 -0.158331722
vn -0.936317205 -0.208700091 0.282408476
vn -0.914907157 -0.0488362946 -0.400699377
vn -0.865816176 0.385364562 -0.319149822
vn -0.902599275 0.430079281 -0.0186086055
vn -0.347428113 0.395017833 -0.85044378
vn -0.574686289 -0.00299254479 -0.818368375
vn -0.767205477 0.125374317 -0.629028618
vn -0.408551544 0.163767934 -0.897923052
vn -0.811915576 -0.38463375 -0.439146727
vn -0.785949528 0.083719939 -0.612596452
vn -0.37560454 0.00585704017 -0.926761508
vn -0.676121354 0.133329153 -0.724626303
vn -0.969527721 0.0759946778 -0.232896671
vn -0.785949528 0.083719939 -0.612596452
vn -0.894097805 0.205719173 0.397830099
vn -0.247379437 -0.311409891 0.917511463
vn -0.240478233 -0.25545907 0.936435223
vn -0.771830618 -0.294112712 0.563715458
vn -0.955482721 -0.0882885754 -0.281527936
vn -0.767205477 0.125374317 -0.629028618
vn -0.414405882 -0.40157339 0.81670469
vn -0.414405882 -0.40157339 0.81670469
vn -0.771830618 -0.294112712 0.563715458
vn -0.955482721 -0.0882885754 -0.281527936
vn -0.955482721 -0.0882885754 -0.281527936
vn -0.955482721 -0.0882885754 -0.281527936
vn -0.767205477 0.125374317 -0.629028618
vn -0.969527721 0.0759946778 -0.232896671
vn -0.969527721 0.0759946778 -0.232896671
vn -0.785949528 0.083719939 -0.612596452
vn -0.676121354 0.133329153 -0.724626303
vn -0.785949528 0.083719939 -0.612596452
vn 0.284784615 0.932956576 0.220204189
vn 0.0745792091 0.939143181 -0.335332632
vn -0.969527721 0.0759946778 -0.232896671
vn -0.574686289 -0.00299254479 -0.818368375
vn 0.425302982 -0.901747882 -0.0772540495
vn 0.294286102 -0.728735983 -0.618336141
vn -0.767205477 0.125374317 -0.629028618
vn -0.347428113 0.395017833 -0.85044378
vn -0.574686289 -0.00299254479 -0.818368375
vn -0.408551544 0.163767934 -0.897923052
vn -0.37560454 0.00585704017 -0.926761508
vn -0.676121354 0.133329153 -0.724626303
g belt_0
f 3/3/3 2/2/2 1/1/1
f 4/4/4 1/1/1 2/2/2
f 2/2/2 5/5/5 4/4/4
f 6/6/6 4/4/4 5/5/5
f 5/5/5 7/7/7 6/6/6
f 8/8/8 6/6/6 7/7/7
f 1/1/1 4/4/4 9/9/9
f 10/10/10 9/9/9 4/4/4
f 4/4/4 6/6/6 10/10/10
f 11/11/11 10/10/10 6/6/6
f 6/6/6 8/8/8 11/11/11
f 12/12/12 11/11/11 8/8/8
f 2/2/2 3/3/3 13/13/13
f 14/14/14 13/13/13 3/3/3
f 13/13/13 14/14/14 15/15/15
f 16/16/16 15/15/15 14/14/14
f 15/15/15 17/17/17 13/13/13
f 18/18/18 13/13/13 17/17/17
f 5/5/5 18/18/18 7/7/7
f 5/5/5 2/2/2 18/18/18
f 13/13/13 18/18/18 2/2/2
f 15/15/15 16/16/16 19/19/19
f 20/20/20 19/19/19 16/16/16
f 19/19/19 20/20/20 21/21/21
f 22/22/22 21/21/21 20/20/20
f 21/21/21 23/23/23 19/19/19
f 24/24/24 19/19/19 23/23/23
f 17/17/17 15/15/15 24/24/24
f 19/19/19 24/24/24 15/15/15
f 24/24/24 23/23/23 25/25/25
f 24/24/24 25/25/25 17/17/17
f 26/26/26 25/25/25 23/23/23
f 25/25/25 26/26/26 27/27/27
f 28/28/28 27/27/27 26/26/26
f 27/27/27 28/28/28 29/29/29
f 30/30/30 29/29/29 28/28/28
f 29/29/29 31/31/31 27/27/27
f 32/32/32 27/27/27 31/31/31
f 30/30/30 33/33/33 29/29/29
f 34/34/34 29/29/29 33/33/33
f 33/33/33 35/35/35 34/34/34
f 36/36/36 34/34/34 35/35/35
f 35/35/35 37/37/37 36/36/36
f 38/38/38 36/36/36 37/37/37
f 32/32/32 39/39/39 27/27/27
f 25/25/25 27/27/27 39/39/39
f 32/32/32 40/40/40 39/39/39
f 41/41/41 39/39/39 40/40/40
f 40/40/40 42/42/42 41/41/41
f 42/42/42 40/40/40 43/43/43
f 44/44/44 43/43/43 40/40/40
f 31/31/31 44/44/44 32/32/32
f 40/40/40 32/32/32 44/44/44
f 44/44/44 31/31/31 45/45/45
f 46/46/46 45/45/45 31/31/31
f 45/45/45 46/46/46 47/47/47
f 48/48/48 47/47/47 46/46/46
f 46/46/46 34/34/34 48/48/48
f 36/36/36 48/48/48 34/34/34
f 47/47/47 48/48/48 49/49/49
f 50/50/50 49/49/49 48/48/48
f 48/48/48 36/36/36 50/50/50
f 38/38/38 50/50/50 36/36/36
f 7/7/7 41/41/41 42/42/42
f 49/49/49 51/51/51 47/47/47
f 52/52/52 47/47/47 51/51/51
f 47/47/47 52/52/52 45/45/45
f 52/52/52 51/51/51 53/53/53
f 54/54/54 53/53/53 51/51/51
f 52/52/52 53/53/53 55/55/55
f 55/55/55 45/45/45 52/52/52
f 43/43/43 44/44/44 55/55/55
f 45/45/45 55/55/55 44/44/44
f 56/56/56 55/55/55 53/53/53
f 55/55/55 56/56/56 43/43/43
f 56/56/56 53/53/53 57/57/57
f 58/58/58 57/57/57 53/53/53
f 53/53/53 54/54/54 58/58/58
f 59/59/59 58/58/58 54/54/54
f 56/56/56 57/57/57 60/60/60
f 61/61/61 60/60/60 57/57/57
f 60/60/60 61/61/61 62/62/62
f 63/63/63 62/62/62 61/61/61
f 60/60/60 43/43/43 56/56/56
f 60/60/60 62/62/62 43/43/43
f 42/42/42 43/43/43 62/62/62
f 7/7/7 42/42/42 8/8/8
f 62/62/62 8/8/8 42/42/42
f 8/8/8 62/62/62 12/12/12
f 63/63/63 12/12/12 62/62/62
f 41/41/41 7/7/7 18/18/18
f 18/18/18 17/17/17 41/41/41
f 39/39/39 41/41/41 17/17/17
f 39/39/39 17/17/17 25/25/25
f 66/66/66 65/65/65 64/64/64
f 64/64/64 67/67/67 66/66/66
f 68/68/68 66/66/66 67/67/67
f 64/64/64 69/69/69 67/67/67
f 64/64/64 70/70/70 69/69/69
f 65/65/65 70/70/70 64/64/64
f 71/71/71 69/69/69 70/70/70
f 65/65/65 72/72/72 70/70/70
f 71/71/71 70/70/70 73/73/73
f 74/74/74 73/73/73 70/70/70
f 72/72/72 74/74/74 70/70/70
f 72/72/72 75/75/75 74/74/74
f 76/76/76 74/74/74 75/75/75
f 74/74/74 76/76/76 73/73/73
f 77/77/77 73/73/73 76/76/76
f 78/78/78 67/67/67 69/69/69
f 78/78/78 79/79/79 67/67/67
f 80/80/80 67/67/67 79/79/79
f 79/79/79 81/81/81 80/80/80
f 82/82/82 80/80/80 81/81/81
f 76/76/76 75/75/75 83/83/83
f 84/84/84 83/83/83 75/75/75
f 84/84/84 85/85/85 83/83/83
f 86/86/86 83/83/83 85/85/85
f 83/83/83 86/86/86 87/87/87
f 77/77/77 76/76/76 87/87/87
f 83/83/83 87/87/87 76/76/76
f 88/88/88 87/87/87 86/86/86
f 82/82/82 81/81/81 89/89/89
f 82/82/82 89/89/89 90/90/90
f 80/80/80 82/82/82 90/90/90
f 91/91/91 90/90/90 89/89/89
f 92/92/92 89/89/89 81/81/81
f 92/92/92 93/93/93 89/89/89
f 94/94/94 89/89/89 93/93/93
f 89/89/89 94/94/94 91/91/91
f 94/94/94 93/93/93 95/95/95
f 96/96/96 95/95/95 93/93/93
f 95/95/95 97/97/97 94/94/94
f 98/98/98 94/94/94 97/97/97
f 98/98/98 91/91/91 94/94/94
f 91/91/91 98/98/98 99/99/99
f 100/100/100 99/99/99 98/98/98
f 98/98/98 97/97/97 100/100/100
f 90/90/90 91/91/91 101/101/101
f 99/99/99 101/101/101 91/91/91
f 99/99/99 102/102/102 101/101/101
f 99/99/99 100/100/100 102/102/102
f 103/103/103 101/101/101 102/102/102
f 68/68/68 90/90/90 101/101/101
f 102/102/102 104/104/104 103/103/103
f 102/102/102 105/105/105 104/104/104
f 104/104/104 105/105/105 106/106/106
f 106/106/106 107/107/107 104/104/104
f 108/108/108 104/104/104 107/107/107
f 108/108/108 103/103/103 104/104/104
f 108/108/108 107/107/107 109/109/109
f 108/108/108 109/109/109 103/103/103
f 110/110/110 109/109/109 107/107/107
f 110/110/110 111/111/111 109/109/109
f 112/112/112 109/109/109 111/111/111
f 112/112/112 111/111/111 113/113/113
f 112/112/112 113/113/113 66/66/66
f 114/114/114 66/66/66 113/113/113
f 66/66/66 115/115/115 112/112/112
f 115/115/115 103/103/103 109/109/109
f 66/66/66 68/68/68 115/115/115
f 115/115/115 109/109/109 112/112/112
f 116/116/116 113/113/113 111/111/111
f 113/113/113 116/116/116 117/117/117
f 113/113/113 117/117/117 114/114/114
f 118/118/118 117/117/117 116/116/116
f 119/119/119 114/114/114 117/117/117
f 117/117/117 118/118/118 120/120/120
f 121/121/121 120/120/120 118/118/118
f 121/121/121 122/122/122 120/120/120
f 123/123/123 120/120/120 122/122/122
f 122/122/122 124/124/124 123/123/123
f 125/125/125 123/123/123 124/124/124
f 123/123/123 126/126/126 120/120/120
f 127/127/127 120/120/120 126/126/126
f 117/117/117 120/120/120 127/127/127
f 119/119/119 117/117/117 127/127/127
f 126/126/126 128/128/128 127/127/127
f 129/129/129 127/127/127 128/128/128
f 119/119/119 127/127/127 129/129/129
f 128/128/128 126/126/126 130/130/130
f 131/131/131 130/130/130 126/126/126
f 126/126/126 123/123/123 131/131/131
f 125/125/125 131/131/131 123/123/123
f 119/119/119 129/129/129 72/72/72
f 75/75/75 72/72/72 129/129/129
f 128/128/128 130/130/130 84/84/84
f 75/75/75 129/129/129 84/84/84
f 128/128/128 84/84/84 129/129/129
f 85/85/85 84/84/84 130/130/130
f 65/65/65 119/119/119 72/72/72
f 65/65/65 114/114/114 119/119/119
f 66/66/66 114/114/114 65/65/65
f 134/134/134 133/133/133 132/132/132
f 135/135/135 132/132/132 133/133/133
f 134/134/134 132/132/132 105/105/105
f 136/136/136 105/105/105 132/132/132
f 136/136/136 106/106/106 105/105/105
f 134/134/134 105/105/105 137/137/137
f 102/102/102 137/137/137 105/105/105
f 137/137/137 138/138/138 134/134/134
f 133/133/133 134/134/134 138/138/138
f 138/138/138 137/137/137 139/139/139
f 100/100/100 139/139/139 137/137/137
f 137/137/137 102/102/102 100/100/100
f 139/139/139 100/100/100 97/97/97
f 103/103/103 115/115/115 101/101/101
f 68/68/68 101/101/101 115/115/115
f 68/68/68 67/67/67 90/90/90
f 80/80/80 90/90/90 67/67/67
f 31/31/31 29/29/29 46/46/46
f 34/34/34 46/46/46 29/29/29
f 142/142/142 141/141/141 140/140/140
f 143/143/143 140/140/140 141/141/141
f 141/141/141 144/144/144 143/143/143
f 145/145/145 143/143/143 144/144/144
f 145/145/145 146/146/146 143/143/143
f 147/147/147 143/143/143 146/146/146
f 143/143/143 147/147/147 140/140/140
f 146/146/146 148/148/148 147/147/147
f 149/149/149 147/147/147 148/148/148
f 147/147/147 149/149/149 150/150/150
f 150/150/150 140/140/140 147/147/147
f 151/151/151 150/150/150 149/149/149
f 148/148/148 152/152/152 149/149/149
f 153/153/153 149/149/149 152/152/152
f 149/149/149 153/153/153 151/151/151
f 140/140/140 150/150/150 154/154/154
f 155/155/155 154/154/154 150/150/150
f 156/156/156 151/151/151 153/153/153
f 156/156/156 157/157/157 151/151/151
f 158/158/158 151/151/151 157/157/157
f 155/155/155 150/150/150 158/158/158
f 151/151/151 158/158/158 150/150/150
f 158/158/158 159/159/159 155/155/155
f 160/160/160 155/155/155 159/159/159
f 159/159/159 158/158/158 161/161/161
f 157/157/157 161/161/161 158/158/158
f 154/154/154 155/155/155 162/162/162
f 160/160/160 162/162/162 155/155/155
f 162/162/162 163/163/163 154/154/154
f 164/164/164 154/154/154 163/163/163
f 154/154/154 164/164/164 140/140/140
f 142/142/142 140/140/140 164/164/164
f 163/163/163 165/165/165 164/164/164
f 166/166/166 164/164/164 165/165/165
f 162/162/162 167/167/167 163/163/163
f 162/162/162 160/160/160 167/167/167
f 168/168/168 163/163/163 167/167/167
f 167/167/167 169/169/169 168/168/168
f 170/170/170 168/168/168 169/169/169
f 169/169/169 171/171/171 170/170/170
f 171/171/171 169/169/169 172/172/172
f 173/173/173 172/172/172 169/169/169
f 169/169/169 167/167/167 173/173/173
f 172/172/172 174/174/174 171/171/171
f 174/174/174 172/172/172 175/175/175
f 176/176/176 175/175/175 172/172/172
f 175/175/175 177/177/177 174/174/174
f 177/177/177 175/175/175 178/178/178
f 179/179/179 178/178/178 175/175/175
f 175/175/175 176/176/176 179/179/179
f 180/180/180 174/174/174 177/177/177
f 174/174/174 180/180/180 181/181/181
f 181/181/181 171/171/171 174/174/174
f 181/181/181 182/182/182 171/171/171
f 183/183/183 181/181/181 180/180/180
f 183/183/183 184/184/184 181/181/181
f 182/182/182 181/181/181 184/184/184
f 185/185/185 170/170/170 171/171/171
f 185/185/185 171/171/171 186/186/186
f 173/173/173 187/187/187 172/172/172
f 176/176/176 172/172/172 187/187/187
f 187/187/187 173/173/173 188/188/188
f 189/189/189 188/188/188 173/173/173
f 187/187/187 190/190/190 176/176/176
f 191/191/191 176/176/176 190/190/190
f 191/191/191 192/192/192 176/176/176
f 188/188/188 193/193/193 187/187/187
f 190/190/190 187/187/187 193/193/193
f 189/189/189 160/160/160 188/188/188
f 159/159/159 188/188/188 160/160/160
f 159/159/159 161/161/161 188/188/188
f 193/193/193 188/188/188 161/161/161
f 189/189/189 167/167/167 160/160/160
f 189/189/189 173/173/173 167/167/167
f 161/161/161 157/157/157 194/194/194
f 195/195/195 194/194/194 157/157/157
f 195/195/195 157/157/157 196/196/196
f 156/156/156 196/196/196 157/157/157
f 156/156/156 153/153/153 197/197/197
f 199/199/199 198/198/198 153/153/153
f 201/201/201 141/141/141 200/200/200
f 142/142/142 202/202/202 141/141/141
f 204/204/204 203/203/203 141/141/141
f 206/206/206 205/205/205 203/203/203
f 142/142/142 164/164/164 207/207/207
f 166/166/166 207/207/207 164/164/164
f 210/210/210 209/209/209 208/208/208
f 211/211/211 208/208/208 209/209/209
f 213/213/213 152/152/152 212/212/212
f 148/148/148 212/212/212 152/152/152
f 148/148/148 146/146/146 212/212/212
f 214/214/214 212/212/212 146/146/146
f 214/214/214 146/146/146 215/215/215
f 145/145/145 215/215/215 146/146/146
f 215/215/215 145/145/145 216/216/216
f 144/144/144 216/216/216 145/145/145
f 219/219/219 218/218/218 217/217/217
f 220/220/220 217/217/217 218/218/218
f 218/218/218 219/219/219 221/221/221
f 222/222/222 221/221/221 219/219/219
f 222/222/222 219/219/219 223/223/223
f 224/224/224 223/223/223 219/219/219
f 219/219/219 217/217/217 224/224/224
f 223/223/223 224/224/224 225/225/225
f 226/226/226 225/225/225 224/224/224
f 224/224/224 227/227/227 226/226/226
f 227/227/227 224/224/224 217/217/217
f 228/228/228 226/226/226 227/227/227
f 225/225/225 226/226/226 229/229/229
f 230/230/230 229/229/229 226/226/226
f 226/226/226 228/228/228 230/230/230
f 217/217/217 231/231/231 227/227/227
f 232/232/232 227/227/227 231/231/231
f 233/233/233 230/230/230 228/228/228
f 233/233/233 228/228/228 234/234/234
f 235/235/235 234/234/234 228/228/228
f 228/228/228 227/227/227 235/235/235
f 232/232/232 235/235/235 227/227/227
f 235/235/235 232/232/232 236/236/236
f 237/237/237 236/236/236 232/232/232
f 234/234/234 235/235/235 238/238/238
f 236/236/236 238/238/238 235/235/235
f 237/237/237 232/232/232 239/239/239
f 231/231/231 239/239/239 232/232/232
f 239/239/239 231/231/231 240/240/240
f 241/241/241 240/240/240 231/231/231
f 231/231/231 217/217/217 241/241/241
f 220/220/220 241/241/241 217/217/217
f 240/240/240 241/241/241 242/242/242
f 243/243/243 242/242/242 241/241/241
f 239/239/239 240/240/240 244/244/244
f 239/239/239 244/244/244 237/237/237
f 245/245/245 244/244/244 240/240/240
f 244/244/244 245/245/245 246/246/246
f 247/247/247 246/246/246 245/245/245
f 246/246/246 247/247/247 248/248/248
f 248/248/248 249/249/249 246/246/246
f 250/250/250 246/246/246 249/249/249
f 246/246/246 250/250/250 244/244/244
f 249/249/249 248/248/248 251/251/251
f 251/251/251 252/252/252 249/249/249
f 253/253/253 249/249/249 252/252/252
f 252/252/252 251/251/251 254/254/254
f 254/254/254 255/255/255 252/252/252
f 256/256/256 252/252/252 255/255/255
f 252/252/252 256/256/256 253/253/253
f 257/257/257 254/254/254 251/251/251
f 251/251/251 258/258/258 257/257/257
f 258/258/258 251/251/251 248/248/248
f 258/258/258 248/248/248 259/259/259
f 260/260/260 257/257/257 258/258/258
f 259/259/259 261/261/261 258/258/258
f 260/260/260 258/258/258 261/261/261
f 262/262/262 248/248/248 247/247/247
f 262/262/262 263/263/263 248/248/248
f 253/253/253 264/264/264 249/249/249
f 250/250/250 249/249/249 264/264/264
f 264/264/264 265/265/265 250/250/250
f 266/266/266 250/250/250 265/265/265
f 264/264/264 253/253/253 267/267/267
f 268/268/268 267/267/267 253/253/253
f 268/268/268 253/253/253 269/269/269
f 267/267/267 270/270/270 264/264/264
f 265/265/265 264/264/264 270/270/270
f 266/266/266 265/265/265 237/237/237
f 236/236/236 237/237/237 265/265/265
f 270/270/270 238/238/238 265/265/265
f 236/236/236 265/265/265 238/238/238
f 266/266/266 237/237/237 244/244/244
f 266/266/266 244/244/244 250/250/250
f 238/238/238 271/271/271 234/234/234
f 272/272/272 234/234/234 271/271/271
f 272/272/272 273/273/273 234/234/234
f 233/233/233 234/234/234 273/273/273
f 233/233/233 274/274/274 230/230/230
f 276/276/276 230/230/230 275/275/275
f 220/220/220 218/218/218 277/277/277
f 279/279/279 278/278/278 218/218/218
f 281/281/281 218/218/218 280/280/280
f 283/283/283 280/280/280 282/282/282
f 220/220/220 284/284/284 241/241/241
f 243/243/243 241/241/241 284/284/284
f 287/287/287 286/286/286 285/285/285
f 288/288/288 285/285/285 286/286/286
f 225/225/225 229/229/229 289/289/289
f 290/290/290 289/289/289 229/229/229
f 225/225/225 289/289/289 223/223/223
f 291/291/291 223/223/223 289/289/289
f 291/291/291 292/292/292 223/223/223
f 222/222/222 223/223/223 292/292/292
f 292/292/292 293/293/293 222/222/222
f 221/221/221 222/222/222 293/293/293
