g Blue_mag_f_pve_1_helm
v 0.129925372 -0.0639282849 -0.106969863
v 0.129447132 -0.0768407584 -0.117491138
v 0.149054962 -0.089753232 -0.111274021
v 0.129925372 -0.0639282849 -0.106969863
v 0.0907097115 -0.045755174 -0.108404583
v 0.109839302 -0.0261473438 -0.0921444308
v 0.0902314717 -0.0395380571 -0.104100425
v 0.102665706 -0.00414831478 -0.0854490741
v 0.104100425 0.00924239853 -0.0720583608
v 0.0993180272 0.0145030359 -0.0725366006
v 0.0902314717 -0.0395380571 -0.104100425
v 0.0792319572 0.00493824068 -0.0754060392
v 0.102665706 -0.00414831478 -0.0854490741
v 0.0849708344 -0.0247126245 -0.0754060392
v 0.0902314717 -0.0395380571 -0.104100425
v 0.0931009103 -0.0567546885 -0.0859273139
v 0.0849708344 -0.0247126245 -0.0754060392
v 0.0907097115 -0.045755174 -0.108404583
v 0.129447132 -0.0768407584 -0.117491138
v 0.149054962 -0.089753232 -0.111274021
v 0.127534173 -0.0821013958 -0.107448103
v 0.0931009103 -0.0567546885 -0.0859273139
v 0.0792319572 0.00493824068 -0.0754060392
v 0.0859273139 -0.00175711597 -0.0715801211
v 0.0931009103 -0.0567546885 -0.0859273139
v 0.100752746 -0.0189737474 -0.0725366006
v 0.104100425 -0.0491028523 -0.0868837934
v 0.129447132 -0.0744495596 -0.0988397874
v 0.129925372 -0.0639282849 -0.106969863
v 0.149054962 -0.089753232 -0.111274021
v 0.102665706 -0.00414831478 -0.0854490741
v 0.104100425 0.00924239853 -0.0720583608
v 0.0931009103 -0.0567546885 -0.0859273139
v 0.0849708344 -0.0247126245 -0.0754060392
v 0.127534173 -0.0821013958 -0.107448103
v 0.0859273139 -0.00175711597 -0.0715801211
v 0.104100425 0.00924239853 -0.0720583608
v 0.149054962 -0.089753232 -0.111274021
v 0.129925372 -0.0639282849 -0.106969863
v 0.109839302 -0.0261473438 -0.0921444308
v 0.102665706 -0.00414831478 -0.0854490741
v 0.129925372 -0.0639282849 0.10536859
v 0.149054962 -0.089753232 0.109672748
v 0.129447132 -0.0768407584 0.116368105
v 0.0907097115 -0.045755174 0.10680331
v 0.129925372 -0.0639282849 0.10536859
v 0.109839302 -0.0261473438 0.0919778772
v 0.0902314717 -0.0395380571 0.102977392
v 0.102665706 -0.00414831478 0.084326041
v 0.104100425 0.00924239853 0.0714135675
v 0.0993180272 0.0145030359 0.0714135675
v 0.0902314717 -0.0395380571 0.102977392
v 0.102665706 -0.00414831478 0.084326041
v 0.0792319572 0.00493824068 0.074283006
v 0.0849708344 -0.0247126245 0.0738047663
v 0.0902314717 -0.0395380571 0.102977392
v 0.0931009103 -0.0567546885 0.0848042808
v 0.0907097115 -0.045755174 0.10680331
v 0.0849708344 -0.0247126245 0.0738047663
v 0.129447132 -0.0768407584 0.116368105
v 0.149054962 -0.089753232 0.109672748
v 0.127534173 -0.0821013958 0.10584683
v 0.0931009103 -0.0567546885 0.0848042808
v 0.0792319572 0.00493824068 0.074283006
v 0.0859273139 -0.00175711597 0.0699788482
v 0.0931009103 -0.0567546885 0.0848042808
v 0.100752746 -0.0189737474 0.0718918072
v 0.0849708344 -0.0247126245 0.0738047663
v 0.0859273139 -0.00175711597 0.0699788482
v 0.104100425 0.00924239853 0.0714135675
v 0.0931009103 -0.0567546885 0.0848042808
v 0.104100425 -0.0491028523 0.0857607603
v 0.129447132 -0.0744495596 0.0981949941
v 0.127534173 -0.0821013958 0.10584683
v 0.129925372 -0.0639282849 0.10536859
v 0.149054962 -0.089753232 0.109672748
v 0.102665706 -0.00414831478 0.084326041
v 0.104100425 0.00924239853 0.0714135675
v 0.149054962 -0.089753232 0.109672748
v 0.129925372 -0.0639282849 0.10536859
v 0.109839302 -0.0261473438 0.0919778772
v 0.102665706 -0.00414831478 0.084326041
v 0.216486769 0.0766742048 -0.0223214257
v 0.184444705 0.0651964506 -0.0385815776
v 0.201661336 0.0771524446 -0.00653951358
v 0.21409557 0.0613705325 -0.0452769342
v 0.235616359 0.072370047 -0.0333209402
v 0.235616359 0.0618487722 -0.0491028523
v 0.216965008 0.0790654036 -0.0232779052
v 0.236094599 0.074283006 -0.03379918
v 0.280092657 0.0608922927 -0.0519722909
v 0.216965008 0.0790654036 -0.0232779052
v 0.203096055 0.0814566024 -0.00797423286
v 0.21313909 0.0757177253 -0.0314079811
v 0.236094599 0.074283006 -0.03379918
v 0.23322516 0.0714135675 -0.0400162968
v 0.280092657 0.0608922927 -0.0519722909
v 0.236094599 0.0632834915 -0.0505375716
v 0.280092657 0.0608922927 -0.0519722909
v 0.21409557 0.0637617313 -0.0471898933
v 0.21409557 0.0613705325 -0.0452769342
v 0.184444705 0.0680658891 -0.0414510161
v 0.200226617 0.0675876494 -0.0447986945
v 0.184444705 0.0651964506 -0.0385815776
v 0.235616359 0.0618487722 -0.0491028523
v 0.178705828 0.0738047663 -0.0414510161
v 0.186835903 0.0771524446 -0.0266255835
v 0.203096055 0.0814566024 -0.00797423286
v 0.280092657 0.0608922927 -0.0519722909
v 0.216486769 0.0766742048 0.0211983926
v 0.184444705 0.0651964506 0.0374585444
v 0.21409557 0.0613705325 0.0441539011
v 0.201661336 0.0771524446 0.00541648044
v 0.235616359 0.072370047 0.0326761468
v 0.235616359 0.0618487722 0.0479798192
v 0.216965008 0.0790654036 0.0221548721
v 0.216965008 0.0790654036 0.0221548721
v 0.203096055 0.0814566024 0.00685119973
v 0.236094599 0.074283006 0.0331543866
v 0.280092657 0.0608922927 0.0513274975
v 0.236094599 0.074283006 0.0331543866
v 0.21313909 0.0757177253 0.0307631878
v 0.23322516 0.0714135675 0.0388932637
v 0.280092657 0.0608922927 0.0513274975
v 0.236094599 0.0632834915 0.0489362987
v 0.280092657 0.0608922927 0.0513274975
v 0.21409557 0.0637617313 0.0455886204
v 0.21409557 0.0613705325 0.0441539011
v 0.184444705 0.0680658891 0.040327983
v 0.200226617 0.0675876494 0.0431974216
v 0.184444705 0.0651964506 0.0374585444
v 0.235616359 0.0618487722 0.0479798192
v 0.178705828 0.0738047663 0.0408062228
v 0.186835903 0.0771524446 0.0255025504
v 0.203096055 0.0814566024 0.00685119973
v 0.280092657 0.0608922927 0.0513274975
v 0.0261473438 0.0317196673 -0.0639282849
v 0.0859273139 0.0417627023 -0.0754060392
v 0.0304515016 0.0699788482 -0.0605806066
v 0.0601023668 0.0188071938 -0.0768407584
v 0.0940573898 -0.00797423286 -0.0907097115
v 0.0443204547 -0.0074959931 -0.0787537175
v 0.00845247262 0.00685119973 -0.0715801211
v 0.0773189982 -0.0328427004 -0.0993180272
v 0.0954921091 -0.00845247262 -0.0715801211
v 0.11366522 0.0317196673 -0.0620153259
v 0.112230501 0.0321979071 -0.067754203
v 0.0806666765 -0.0333209402 -0.0739713199
v 0.0275820631 0.0312414275 -0.0586676475
v 0.0323644607 0.0695006084 -0.057711168
v 0.0323644607 0.0695006084 -0.057711168
v 0.0873620332 0.0398497432 -0.0601023668
v 0.11366522 0.0317196673 -0.0620153259
v 0.00845247262 0.00685119973 -0.0715801211
v 0.0462334137 -0.0074959931 -0.0658412439
v 0.00988719191 0.00637295997 -0.0581894078
v 0.0806666765 -0.0333209402 -0.0739713199
v 0.0773189982 -0.0328427004 -0.0993180272
v 0.00988719191 0.00637295997 -0.0581894078
v 0.126099454 0.062327012 0.0599358132
v 0.184444705 0.062327012 0.0752394855
v 0.176314629 0.0546751758 0.0919778772
v 0.101709226 0.052283977 0.0661529301
v 0.249007072 0.0541969361 0.0958037953
v 0.186835903 0.0446321408 0.0675876494
v 0.249007072 0.0541969361 0.0958037953
v 0.247094113 0.0398497432 0.0895866784
v 0.284396815 0.0441539011 0.0977167543
v 0.283918575 0.0345891059 0.0938908362
v 0.324568955 0.0274155094 0.094369076
v 0.130881851 0.0537186963 0.0369803047
v 0.143316085 0.0417627023 0.0345891059
v 0.13470777 0.0757177253 0.0436756613
v 0.184444705 0.062327012 0.0752394855
v 0.176314629 0.0546751758 0.0919778772
v 0.125142974 0.0446321408 0.0675876494
v 0.246137634 0.0460668601 0.108238029
v 0.282005616 0.0393715035 0.10728155
v 0.284396815 0.0441539011 0.0977167543
v 0.324568955 0.0274155094 0.094369076
v 0.244702915 0.0331543866 0.102020912
v 0.281527376 0.030284948 0.102499152
v 0.179662307 0.0369803047 0.0838478012
v 0.124664735 0.0250243106 0.064239971
v 0.179662307 0.0369803047 0.0838478012
v 0.186835903 0.0446321408 0.0675876494
v 0.139490167 0.0431974216 0.0561098951
v 0.143316085 0.0417627023 0.0345891059
v 0.247094113 0.0398497432 0.0895866784
v 0.281527376 0.030284948 0.102499152
v 0.283918575 0.0345891059 0.0938908362
v 0.324568955 0.0274155094 0.094369076
v 0.124664735 0.0250243106 0.064239971
v 0.179662307 0.0369803047 0.0838478012
v 0.13470777 0.0757177253 0.0436756613
v 0.184444705 0.062327012 0.0752394855
v 0.126099454 0.062327012 -0.0601023668
v 0.176314629 0.0546751758 -0.0921444308
v 0.184444705 0.062327012 -0.0768407584
v 0.101709226 0.052283977 -0.0667977235
v 0.249007072 0.0541969361 -0.0959703489
v 0.186835903 0.0446321408 -0.0687106825
v 0.247094113 0.0398497432 -0.0902314717
v 0.284396815 0.0441539011 -0.0988397874
v 0.283918575 0.0345891059 -0.0945356296
v 0.324568955 0.0274155094 -0.0950138694
v 0.130881851 0.0537186963 -0.0381033378
v 0.143316085 0.0417627023 -0.0347556595
v 0.13470777 0.0757177253 -0.0452769342
v 0.184444705 0.062327012 -0.0768407584
v 0.176314629 0.0546751758 -0.0921444308
v 0.125142974 0.0446321408 -0.0682324427
v 0.246137634 0.0460668601 -0.109361062
v 0.282005616 0.0393715035 -0.108404583
v 0.284396815 0.0441539011 -0.0988397874
v 0.324568955 0.0274155094 -0.0950138694
v 0.244702915 0.0331543866 -0.102665706
v 0.281527376 0.030284948 -0.104100425
v 0.179662307 0.0369803047 -0.0849708344
v 0.186835903 0.0446321408 -0.0687106825
v 0.139490167 0.0431974216 -0.0572329282
v 0.143316085 0.0417627023 -0.0347556595
v 0.247094113 0.0398497432 -0.0902314717
v 0.281527376 0.030284948 -0.104100425
v 0.283918575 0.0345891059 -0.0945356296
v 0.324568955 0.0274155094 -0.0950138694
v 0.179662307 0.0369803047 -0.0849708344
v 0.124664735 0.0250243106 -0.0648847644
v 0.124664735 0.0250243106 -0.0648847644
v 0.179662307 0.0369803047 -0.0849708344
v 0.184444705 0.062327012 -0.0768407584
v 0.13470777 0.0757177253 -0.0452769342
v 0.123230015 0.0718918072 -0.0615370861
v 0.0873620332 0.0513274975 -0.0720583608
v 0.117969378 0.0384150239 -0.0744495596
v 0.0911879513 0.062327012 -0.067754203
v 0.081623156 0.0278937492 -0.0840143549
v 0.055798209 0.0298067083 -0.0787537175
v 0.0754060392 0.0580228541 -0.0706236415
v 0.11414346 0.0178507142 -0.0792319572
v 0.13279481 0.0140247961 -0.0792319572
v 0.137577208 0.0321979071 -0.0768407584
v 0.124186495 -0.0309297414 -0.0754060392
v 0.146185524 0.0690223687 -0.0615370861
v 0.13327305 0.0886301988 -0.0381033378
v 0.150967921 0.0857607603 -0.037625098
v 0.0663194837 0.0871954796 -0.0567546885
v 0.150011442 0.0958037953 -0.0204084666
v 0.130881851 0.0991514736 -0.0189737474
v 0.149054962 0.103455631 -0.000322396688
v 0.118447618 0.10584683 -0.000322396688
v 0.0921444308 0.060414053 -0.0591458873
v 0.0672759632 0.0848042808 -0.0481463728
v 0.122273536 0.0680658891 -0.0538852499
v 0.131360091 0.0819348422 -0.0323644607
v 0.149533202 0.0891084386 -0.0165825486
v 0.148576723 0.0958037953 -0.000322396688
v 0.128968892 0.0924561169 -0.0141913498
v 0.164836874 0.0766742048 -0.0328427004
v 0.163402155 0.0671094096 -0.0624935656
v 0.116534659 0.0977167543 -0.000322396688
v 0.163402155 0.064239971 -0.0491028523
v 0.144272565 0.0345891059 -0.0610588463
v 0.13327305 0.0145030359 -0.0706236415
v 0.124186495 -0.0299732619 -0.0667977235
v 0.118925857 -0.059624127 -0.0581894078
v 0.117969378 -0.0639282849 -0.0644065247
v 0.106013384 -0.0271038233 -0.0754060392
v 0.0993180272 -0.0605806066 -0.0644065247
v 0.11414346 0.0178507142 -0.0792319572
v 0.11414346 -0.0844925946 -0.037625098
v 0.0954921091 -0.0811449163 -0.037625098
v 0.112230501 -0.0911879513 -0.01371311
v 0.0921444308 -0.0878402729 -0.0189737474
v 0.108404583 -0.0921444308 -0.000322396688
v 0.0821013958 -0.0873620332 -0.000322396688
v 0.116056419 -0.0782754777 -0.0328427004
v 0.0931009103 -0.0806666765 -0.0141913498
v 0.0840143549 -0.0801884368 -0.000322396688
v 0.105535144 -0.0266255835 -0.0658412439
v 0.099796267 -0.055798209 -0.0572329282
v 0.11414346 0.018328954 -0.069667162
v 0.0830578753 0.0293284685 -0.077797238
v 0.11414346 -0.0849708344 -0.00940895215
v 0.0964485886 -0.0739713199 -0.0323644607
v 0.109839302 -0.0878402729 -0.000322396688
v 0.110317542 -0.0854490741 -0.000322396688
v 0.11414346 0.0178507142 -0.0792319572
v 0.081623156 0.0278937492 -0.0840143549
v 0.0572329282 0.0278937492 -0.069667162
v 0.081623156 0.0278937492 -0.0840143549
v 0.055798209 0.0298067083 -0.0787537175
v 0.0414510161 0.0498927782 -0.0644065247
v 0.0395380571 0.0498927782 -0.0715801211
v 0.0500593318 0.0709353277 -0.0639282849
v 0.0400162968 0.0757177253 -0.0615370861
v 0.0213649462 0.0580228541 -0.0634500451
v 0.0232779052 0.0838478012 -0.0581894078
v -0.000634082834 0.0585010939 -0.0534070102
v 0.0051047943 0.0919778772 -0.0519722909
v 0.0414510161 0.0924561169 -0.0524505306
v 0.0213649462 0.102499152 -0.0471898933
v 0.00127887621 0.12641114 -0.0347556595
v 0.0218431859 0.100107953 -0.0381033378
v 0.0404945366 0.0900649181 -0.0438422149
v 0.0672759632 0.0848042808 -0.0481463728
v 0.00223535573 0.0570663746 -0.0452769342
v 0.0074959931 0.0905431579 -0.0433639752
v 0.00271359549 0.124976421 -0.0261473438
v 0.00271359549 0.124976421 -0.0261473438
v 0.00223535573 0.0570663746 -0.0452769342
v 0.0213649462 0.0580228541 -0.0634500451
v 0.00127887621 0.12641114 -0.0347556595
v 0.0218431859 0.100107953 -0.0381033378
v 0.00271359549 0.124976421 -0.0261473438
v 0.0242343847 0.0565881349 -0.055798209
v 0.0213649462 0.0580228541 -0.0634500451
v 0.0395380571 0.0498927782 -0.0715801211
v 0.0213649462 0.0580228541 -0.0634500451
v 0.00223535573 0.0570663746 -0.0452769342
v 0.0232779052 0.0781089241 -0.0471898933
v 0.00223535573 0.0570663746 -0.0452769342
v 0.0074959931 0.0905431579 -0.0433639752
v 0.0242343847 0.0565881349 -0.055798209
v 0.0218431859 0.100107953 -0.0381033378
v 0.00271359549 0.124976421 -0.0261473438
v 0.0404945366 0.0900649181 -0.0438422149
v 0.0433639752 0.0690223687 -0.0524505306
v 0.0672759632 0.0848042808 -0.0481463728
v 0.0629718054 0.0594575734 -0.055798209
v 0.0414510161 0.0498927782 -0.0644065247
v 0.0572329282 0.0278937492 -0.069667162
v 0.176792868 0.0781089241 -0.0242343847
v 0.175358149 0.0838478012 -0.0122783907
v 0.176314629 0.0886301988 -0.000322396688
v 0.149533202 0.0891084386 0.0149812757
v 0.150011442 0.0958037953 0.0192854335
v 0.130881851 0.0991514736 0.0173724745
v 0.13327305 0.0886301988 0.0369803047
v 0.150967921 0.0857607603 0.0365020649
v 0.146185524 0.0690223687 0.0613705325
v 0.123230015 0.0718918072 0.0608922927
v 0.137577208 0.0321979071 0.0752394855
v 0.117969378 0.0384150239 0.0733265265
v 0.0873620332 0.0513274975 0.0714135675
v 0.0911879513 0.062327012 0.0666311698
v 0.13279481 0.0140247961 0.0776306843
v 0.11414346 0.0178507142 0.0776306843
v 0.124186495 -0.0309297414 0.0738047663
v 0.081623156 0.0278937492 0.0828913217
v 0.055798209 0.0298067083 0.0776306843
v 0.0754060392 0.0580228541 0.0695006084
v 0.0663194837 0.0871954796 0.0556316553
v 0.0921444308 0.060414053 0.0585010939
v 0.0672759632 0.0848042808 0.0465450999
v 0.122273536 0.0680658891 0.0527622168
v 0.131360091 0.0819348422 0.0317196673
v 0.13327305 0.0145030359 0.0695006084
v 0.124186495 -0.0299732619 0.0656746903
v 0.118925857 -0.059624127 0.0575446144
v 0.117969378 -0.0639282849 0.064239971
v 0.106013384 -0.0271038233 0.0738047663
v 0.0993180272 -0.0605806066 0.064239971
v 0.11414346 0.0178507142 0.0776306843
v 0.11414346 -0.0844925946 0.0365020649
v 0.0954921091 -0.0811449163 0.0365020649
v 0.112230501 -0.0911879513 0.0121118371
v 0.0921444308 -0.0878402729 0.0173724745
v 0.108404583 -0.0921444308 -0.000322396688
v 0.0821013958 -0.0873620332 -0.000322396688
v 0.116056419 -0.0782754777 0.0321979071
v 0.0931009103 -0.0806666765 0.0130683166
v 0.0840143549 -0.0801884368 -0.000322396688
v 0.105535144 -0.0266255835 0.0651964506
v 0.099796267 -0.055798209 0.0570663746
v 0.11414346 0.018328954 0.0690223687
v 0.0830578753 0.0293284685 0.0766742048
v 0.11414346 -0.0849708344 0.00828591901
v 0.0964485886 -0.0739713199 0.0317196673
v 0.109839302 -0.0878402729 -0.000322396688
v 0.110317542 -0.0854490741 -0.000322396688
v 0.11414346 0.0178507142 0.0776306843
v 0.081623156 0.0278937492 0.0828913217
v 0.0572329282 0.0278937492 0.0685441289
v 0.081623156 0.0278937492 0.0828913217
v 0.055798209 0.0298067083 0.0776306843
v 0.0414510161 0.0498927782 0.0637617313
v 0.0395380571 0.0498927782 0.0704570879
v 0.0500593318 0.0709353277 0.0632834915
v 0.0400162968 0.0757177253 0.0608922927
v 0.0213649462 0.0580228541 0.0632834915
v 0.0232779052 0.0838478012 0.0575446144
v -0.000634082834 0.0585010939 0.0527622168
v 0.0051047943 0.0919778772 0.0508492577
v 0.0414510161 0.0924561169 0.0518057373
v 0.0213649462 0.102499152 0.0460668601
v 0.00127887621 0.12641114 0.0341108661
v 0.0218431859 0.100107953 0.0374585444
v 0.0404945366 0.0900649181 0.042240942
v 0.0672759632 0.0848042808 0.0465450999
v 0.00223535573 0.0570663746 0.0436756613
v 0.0074959931 0.0905431579 0.042240942
v 0.00271359549 0.124976421 0.0250243106
v 0.00271359549 0.124976421 0.0250243106
v 0.0213649462 0.0580228541 0.0632834915
v 0.00223535573 0.0570663746 0.0436756613
v 0.116534659 0.0977167543 -0.000322396688
v 0.128968892 0.0924561169 0.0130683166
v 0.0218431859 0.100107953 0.0374585444
v 0.00127887621 0.12641114 0.0341108661
v 0.00271359549 0.124976421 0.0250243106
v 0.163402155 0.0671094096 0.062327012
v 0.164836874 0.0766742048 0.0321979071
v 0.163402155 0.064239971 0.0475015794
v 0.144272565 0.0345891059 0.060414053
v 0.176792868 0.0781089241 0.0231113516
v 0.175358149 0.0838478012 0.0106771178
v 0.0242343847 0.0565881349 0.0546751758
v 0.0395380571 0.0498927782 0.0704570879
v 0.0213649462 0.0580228541 0.0632834915
v 0.00223535573 0.0570663746 0.0436756613
v 0.0213649462 0.0580228541 0.0632834915
v 0.0232779052 0.0781089241 0.0455886204
v 0.00223535573 0.0570663746 0.0436756613
v 0.0242343847 0.0565881349 0.0546751758
v 0.0074959931 0.0905431579 0.042240942
v 0.0218431859 0.100107953 0.0374585444
v 0.00271359549 0.124976421 0.0250243106
v 0.0404945366 0.0900649181 0.042240942
v 0.0433639752 0.0690223687 0.0513274975
v 0.0672759632 0.0848042808 0.0465450999
v 0.0414510161 0.0498927782 0.0637617313
v 0.0629718054 0.0594575734 0.0546751758
v 0.0672759632 0.0848042808 0.0465450999
v 0.0572329282 0.0278937492 0.0685441289
v 0.136620729 0.102977392 -0.0074959931
v 0.155272079 0.116368105 -0.000322396688
v 0.120360577 0.10536859 -0.000322396688
v 0.150489682 0.100107953 -0.0204084666
v 0.165315114 0.0972385145 -0.0103654317
v 0.183966465 0.094369076 -0.0074959931
v 0.185879424 0.101542672 -0.000322396688
v 0.225573324 0.102977392 -0.000322396688
v 0.207400213 0.0900649181 -0.00988719191
v 0.221747406 0.086239 -0.0194519871
v 0.25426771 0.0795436434 -0.0132348702
v 0.362828135 0.0608922927 -0.000322396688
v 0.136620729 0.102977392 0.00637295997
v 0.150489682 0.100107953 0.0188071938
v 0.25426771 0.0795436434 0.0116335973
v 0.221747406 0.086239 0.0178507142
v 0.183966465 0.094369076 0.00637295997
v 0.165315114 0.0972385145 0.00924239853
v 0.207400213 0.0900649181 0.00876415877
v 0.150011442 0.0977167543 -0.000322396688
v 0.183966465 0.094369076 -0.0074959931
v 0.165315114 0.0972385145 -0.0103654317
v 0.220790926 0.0819348422 -0.000322396688
v 0.207400213 0.0900649181 -0.00988719191
v 0.150489682 0.100107953 -0.0204084666
v 0.136620729 0.102977392 -0.0074959931
v 0.221747406 0.086239 -0.0194519871
v 0.25426771 0.0795436434 -0.0132348702
v 0.362828135 0.0608922927 -0.000322396688
v 0.120360577 0.10536859 -0.000322396688
v 0.183966465 0.094369076 0.00637295997
v 0.165315114 0.0972385145 0.00924239853
v 0.207400213 0.0900649181 0.00876415877
v 0.150489682 0.100107953 0.0188071938
v 0.136620729 0.102977392 0.00637295997
v 0.221747406 0.086239 0.0178507142
v 0.25426771 0.0795436434 0.0116335973
v 0.0261473438 0.0317196673 0.0637617313
v 0.0859273139 0.0417627023 0.074283006
v 0.0601023668 0.0188071938 0.0752394855
v 0.0304515016 0.0699788482 0.0599358132
v 0.0940573898 -0.00797423286 0.0905431579
v 0.0443204547 -0.0074959931 0.0776306843
v 0.00845247262 0.00685119973 0.0699788482
v 0.0773189982 -0.0328427004 0.0986732338
v 0.0954921091 -0.00845247262 0.0699788482
v 0.11366522 0.0317196673 0.0613705325
v 0.112230501 0.0321979071 0.0666311698
v 0.0806666765 -0.0333209402 0.0728482867
v 0.0275820631 0.0312414275 0.0580228541
v 0.0323644607 0.0695006084 0.0570663746
v 0.0323644607 0.0695006084 0.0570663746
v 0.0873620332 0.0398497432 0.0594575734
v 0.11366522 0.0317196673 0.0613705325
v 0.0462334137 -0.0074959931 0.0651964506
v 0.00845247262 0.00685119973 0.0699788482
v 0.00988719191 0.00637295997 0.0575446144
v 0.0806666765 -0.0333209402 0.0728482867
v 0.0773189982 -0.0328427004 0.0986732338
v 0.00988719191 0.00637295997 0.0575446144
v 0.211226131 0.0594575734 0.0599358132
v 0.159576237 0.060414053 0.0608922927
v 0.162445676 0.0656746903 0.0561098951
v 0.236094599 0.040327983 0.072370047
v 0.189705342 0.0699788482 0.0475015794
v 0.163402155 0.0738047663 0.0455886204
v 0.158141518 0.0852825205 0.0345891059
v 0.182531746 0.0766742048 0.0374585444
v 0.191618301 0.0828913217 0.0221548721
v 0.135186009 0.0929343567 0.0168942347
v 0.211226131 0.0857607603 -0.000322396688
v 0.119882337 0.103455631 -0.000322396688
v 0.190183582 0.0790654036 0.0207201528
v 0.211226131 0.0819348422 -0.000322396688
v 0.182053506 0.0733265265 0.0360238251
v 0.189705342 0.0671094096 0.0451103806
v 0.182053506 0.0733265265 0.0360238251
v 0.159097997 0.0580228541 0.0575446144
v 0.235616359 0.0379367842 0.0695006084
v 0.211226131 0.0570663746 0.0570663746
v 0.236094599 0.040327983 0.072370047
v 0.235616359 0.0379367842 0.0695006084
v 0.211226131 0.0819348422 -0.000322396688
v 0.191618301 0.0828913217 0.0221548721
v 0.211226131 0.0857607603 -0.000322396688
v 0.191618301 0.0828913217 -0.0227996655
v 0.211226131 0.0819348422 -0.000322396688
v 0.118925857 0.0991514736 -0.000322396688
v 0.190183582 0.0790654036 0.0207201528
v 0.211226131 0.0819348422 -0.000322396688
v 0.13470777 0.0895866784 0.0154595154
v 0.157663278 0.0814566024 0.0331543866
v 0.182053506 0.0733265265 0.0360238251
v 0.162923915 0.0709353277 0.0431974216
v 0.189705342 0.0671094096 0.0451103806
v 0.211226131 0.0570663746 0.0570663746
v 0.162445676 0.0637617313 0.0532404565
v 0.159097997 0.0580228541 0.0575446144
v 0.235616359 0.0379367842 0.0695006084
v 0.211226131 0.0594575734 -0.0605806066
v 0.159576237 0.060414053 -0.0610588463
v 0.236094599 0.040327983 -0.0739713199
v 0.162445676 0.0656746903 -0.0572329282
v 0.189705342 0.0699788482 -0.0491028523
v 0.163402155 0.0738047663 -0.0471898933
v 0.158141518 0.0852825205 -0.0352338992
v 0.182531746 0.0766742048 -0.0385815776
v 0.191618301 0.0828913217 -0.0227996655
v 0.135186009 0.0929343567 -0.0184955076
v 0.211226131 0.0857607603 -0.000322396688
v 0.119882337 0.103455631 -0.000322396688
v 0.190183582 0.0790654036 -0.0218431859
v 0.211226131 0.0819348422 -0.000322396688
v 0.182053506 0.0733265265 -0.0366686185
v 0.182053506 0.0733265265 -0.0366686185
v 0.189705342 0.0671094096 -0.0467116535
v 0.211226131 0.0570663746 -0.0572329282
v 0.236094599 0.040327983 -0.0739713199
v 0.235616359 0.0379367842 -0.0701454018
v 0.159097997 0.0580228541 -0.0581894078
v 0.235616359 0.0379367842 -0.0701454018
v 0.118925857 0.0991514736 -0.000322396688
v 0.190183582 0.0790654036 -0.0218431859
v 0.13470777 0.0895866784 -0.0165825486
v 0.211226131 0.0819348422 -0.000322396688
v 0.157663278 0.0814566024 -0.0333209402
v 0.182053506 0.0733265265 -0.0366686185
v 0.162923915 0.0709353277 -0.0447986945
v 0.189705342 0.0671094096 -0.0467116535
v 0.211226131 0.0570663746 -0.0572329282
v 0.162445676 0.0637617313 -0.0543634897
v 0.159097997 0.0580228541 -0.0581894078
v 0.235616359 0.0379367842 -0.0701454018
vt 0.929410434 0.443137606
vt 0.909802659 0.411765165
vt 0.909802659 0.337255619
vt 0.929410434 0.443137606
vt 0.901959549 0.560784258
vt 0.945096655 0.596078253
vt 0.905881104 0.576470478
vt 0.945096655 0.68627402
vt 0.95686132 0.752940456
vt 0.945096655 0.772548231
vt 0.905881104 0.576470478
vt 0.909802659 0.752940456
vt 0.945096655 0.68627402
vt 0.878430218 0.674509355
vt 0.905881104 0.576470478
vt 0.870587108 0.560784258
vt 0.878430218 0.674509355
vt 0.901959549 0.560784258
vt 0.909802659 0.411765165
vt 0.909802659 0.337255619
vt 0.890194884 0.411765165
vt 0.870587108 0.560784258
vt 0.909802659 0.752940456
vt 0.890194884 0.745097346
vt 0.99607687 0.521568707
vt 0.97254754 0.658823134
vt 0.97254754 0.537254927
vt 0.9411751 0.41568672
vt 0.929410434 0.443137606
vt 0.909802659 0.337255619
vt 0.945096655 0.68627402
vt 0.95686132 0.752940456
vt 0.99607687 0.521568707
vt 0.999998426 0.647058469
vt 0.945096655 0.380392724
vt 0.98823376 0.721568016
vt 0.95686132 0.752940456
vt 0.909802659 0.337255619
vt 0.929410434 0.443137606
vt 0.945096655 0.596078253
vt 0.945096655 0.68627402
vt 0.929410434 0.443137606
vt 0.909802659 0.337255619
vt 0.909802659 0.411765165
vt 0.901959549 0.560784258
vt 0.929410434 0.443137606
vt 0.945096655 0.596078253
vt 0.905881104 0.576470478
vt 0.945096655 0.68627402
vt 0.95686132 0.752940456
vt 0.945096655 0.772548231
vt 0.905881104 0.576470478
vt 0.945096655 0.68627402
vt 0.909802659 0.752940456
vt 0.878430218 0.674509355
vt 0.905881104 0.576470478
vt 0.870587108 0.560784258
vt 0.901959549 0.560784258
vt 0.878430218 0.674509355
vt 0.909802659 0.411765165
vt 0.909802659 0.337255619
vt 0.890194884 0.411765165
vt 0.870587108 0.560784258
vt 0.909802659 0.752940456
vt 0.890194884 0.745097346
vt 0.99607687 0.521568707
vt 0.97254754 0.658823134
vt 0.999998426 0.647058469
vt 0.98823376 0.721568016
vt 0.95686132 0.752940456
vt 0.99607687 0.521568707
vt 0.97254754 0.537254927
vt 0.9411751 0.41568672
vt 0.945096655 0.380392724
vt 0.929410434 0.443137606
vt 0.909802659 0.337255619
vt 0.945096655 0.68627402
vt 0.95686132 0.752940456
vt 0.909802659 0.337255619
vt 0.929410434 0.443137606
vt 0.945096655 0.596078253
vt 0.945096655 0.68627402
vt 0.078432984 0.537254927
vt 0.0117665478 0.498039377
vt 0.074511429 0.466666936
vt 0.0392174333 0.588235143
vt 0.0823545391 0.611764474
vt 0.0549036536 0.650980024
vt 0.0823545391 0.537254927
vt 0.0901976493 0.611764474
vt 0.0901976493 0.784312897
vt 0.0823545391 0.537254927
vt 0.0823545391 0.466666936
vt 0.101962314 0.541176482
vt 0.0901976493 0.611764474
vt 0.101962314 0.611764474
vt 0.0901976493 0.784312897
vt 0.117648535 0.647058469
vt 0.0901976493 0.784312897
vt 0.133334755 0.576470478
vt 0.13725631 0.580392033
vt 0.156864085 0.482353156
vt 0.13725631 0.525490262
vt 0.164707196 0.490196266
vt 0.12157009 0.647058469
vt 0.149020975 0.454902271
vt 0.12157009 0.458823826
vt 0.0823545391 0.466666936
vt 0.0901976493 0.784312897
vt 0.078432984 0.537254927
vt 0.0117665478 0.498039377
vt 0.0392174333 0.588235143
vt 0.074511429 0.466666936
vt 0.0823545391 0.611764474
vt 0.0549036536 0.650980024
vt 0.0823545391 0.537254927
vt 0.0823545391 0.537254927
vt 0.0823545391 0.466666936
vt 0.0901976493 0.611764474
vt 0.0901976493 0.784312897
vt 0.0901976493 0.611764474
vt 0.101962314 0.541176482
vt 0.101962314 0.611764474
vt 0.0901976493 0.784312897
vt 0.117648535 0.647058469
vt 0.0901976493 0.784312897
vt 0.133334755 0.576470478
vt 0.13725631 0.580392033
vt 0.156864085 0.482353156
vt 0.13725631 0.525490262
vt 0.164707196 0.490196266
vt 0.12157009 0.647058469
vt 0.149020975 0.454902271
vt 0.12157009 0.458823826
vt 0.0823545391 0.466666936
vt 0.0901976493 0.784312897
vt 0.203922746 0.368628059
vt 0.239216742 0.164707196
vt 0.274510738 0.364706504
vt 0.192158081 0.239216742
vt 0.156864085 0.0980407594
vt 0.13725631 0.258824517
vt 0.149020975 0.388235835
vt 0.11372698 0.109805425
vt 0.168628751 0.0313743232
vt 0.239216742 0.0431389884
vt 0.235295187 0.0627467638
vt 0.12157009 0.0274527681
vt 0.207844301 0.388235835
vt 0.274510738 0.372549614
vt 0.282353848 0.352941839
vt 0.258824517 0.14509942
vt 0.243138297 0.0588252087
vt 0.149020975 0.388235835
vt 0.11372698 0.282353848
vt 0.133334755 0.403922055
vt 0.0823545391 0.149020975
vt 0.11372698 0.109805425
vt 0.160785641 0.41568672
vt 0.784312897 0.0666683188
vt 0.780391342 0.274510738
vt 0.815685337 0.258824517
vt 0.815685337 1.88263402E-06
vt 0.803920672 0.509804042
vt 0.745097346 0.309804733
vt 0.803920672 0.509804042
vt 0.780391342 0.521568707
vt 0.815685337 0.635293804
vt 0.799999117 0.647058469
vt 0.815685337 0.788234452
vt 0.713724905 0.0980407594
vt 0.698038685 0.14509942
vt 0.749018901 0.0823545391
vt 0.780391342 0.274510738
vt 0.815685337 0.258824517
vt 0.835293113 0.074511429
vt 0.823528447 0.505882487
vt 0.831371558 0.631372249
vt 0.815685337 0.635293804
vt 0.847057778 0.780391342
vt 0.843136223 0.501960932
vt 0.843136223 0.631372249
vt 0.850979333 0.266667627
vt 0.866665553 0.0627467638
vt 0.850979333 0.266667627
vt 0.886273329 0.286275403
vt 0.898037994 0.125491645
vt 0.933331989 0.1294132
vt 0.858822443 0.505882487
vt 0.843136223 0.631372249
vt 0.858822443 0.631372249
vt 0.870587108 0.772548231
vt 0.866665553 0.0627467638
vt 0.850979333 0.266667627
vt 0.749018901 0.0823545391
vt 0.780391342 0.274510738
vt 0.784312897 0.0666683188
vt 0.815685337 0.258824517
vt 0.780391342 0.274510738
vt 0.815685337 1.88263402E-06
vt 0.803920672 0.509804042
vt 0.745097346 0.309804733
vt 0.780391342 0.521568707
vt 0.815685337 0.635293804
vt 0.799999117 0.647058469
vt 0.815685337 0.788234452
vt 0.713724905 0.0980407594
vt 0.698038685 0.14509942
vt 0.749018901 0.0823545391
vt 0.780391342 0.274510738
vt 0.815685337 0.258824517
vt 0.835293113 0.074511429
vt 0.823528447 0.505882487
vt 0.831371558 0.631372249
vt 0.815685337 0.635293804
vt 0.847057778 0.780391342
vt 0.843136223 0.501960932
vt 0.843136223 0.631372249
vt 0.850979333 0.266667627
vt 0.886273329 0.286275403
vt 0.898037994 0.125491645
vt 0.933331989 0.1294132
vt 0.858822443 0.505882487
vt 0.843136223 0.631372249
vt 0.858822443 0.631372249
vt 0.870587108 0.772548231
vt 0.850979333 0.266667627
vt 0.866665553 0.0627467638
vt 0.866665553 0.0627467638
vt 0.850979333 0.266667627
vt 0.780391342 0.274510738
vt 0.749018901 0.0823545391
vt 0.372549614 0.788234452
vt 0.329412509 0.674509355
vt 0.309804733 0.784312897
vt 0.352941839 0.682352465
vt 0.282353848 0.658823134
vt 0.286275403 0.564705813
vt 0.337255619 0.623529139
vt 0.266667627 0.772548231
vt 0.266667627 0.858822443
vt 0.301961623 0.858822443
vt 0.192158081 0.886273329
vt 0.372549614 0.858822443
vt 0.43137294 0.815685337
vt 0.43137294 0.878430218
vt 0.388235835 0.576470478
vt 0.466666936 0.866665553
vt 0.470588491 0.796077562
vt 0.498039377 0.858822443
vt 0.498039377 0.749018901
vt 0.368628059 0.69411713
vt 0.388235835 0.580392033
vt 0.388235835 0.772548231
vt 0.435294495 0.780391342
vt 0.466666936 0.894116439
vt 0.498039377 0.886273329
vt 0.466666936 0.760783566
vt 0.42352983 0.9411751
vt 0.380392724 0.909802659
vt 0.494117821 0.721568016
vt 0.388235835 0.945096655
vt 0.317647843 0.925488879
vt 0.274510738 0.901959549
vt 0.192158081 0.917645769
vt 0.133334755 0.913724214
vt 0.133334755 0.894116439
vt 0.192158081 0.831371558
vt 0.1294132 0.847057778
vt 0.266667627 0.772548231
vt 0.074511429 0.905881104
vt 0.0666683188 0.839214668
vt 0.0313743232 0.917645769
vt 0.0313743232 0.839214668
vt 0.00784499277 0.917645769
vt 1.88263402E-06 0.823528447
vt 0.074511429 0.925488879
vt 0.0313743232 0.799999117
vt 1.88263402E-06 0.796077562
vt 0.184314971 0.819606892
vt 0.1294132 0.835293113
vt 0.243138297 0.733332681
vt 0.266667627 0.647058469
vt 0.0313743232 0.9411751
vt 0.074511429 0.807842227
vt 0.0117665478 0.933331989
vt 0.0117665478 0.945096655
vt 0.266667627 0.772548231
vt 0.282353848 0.658823134
vt 0.274510738 0.556862703
vt 0.282353848 0.658823134
vt 0.286275403 0.564705813
vt 0.301961623 0.470588491
vt 0.309804733 0.490196266
vt 0.352941839 0.525490262
vt 0.364706504 0.486274711
vt 0.329412509 0.419608275
vt 0.372549614 0.419608275
vt 0.337255619 0.337255619
vt 0.396078945 0.337255619
vt 0.396078945 0.486274711
vt 0.411765165 0.40784361
vt 0.450980716 0.368628059
vt 0.42352983 0.439216051
vt 0.411765165 0.498039377
vt 0.388235835 0.580392033
vt 0.345098729 0.309804733
vt 0.40784361 0.309804733
vt 0.450980716 0.372549614
vt 0.450980716 0.372549614
vt 0.345098729 0.309804733
vt 0.329412509 0.419608275
vt 0.450980716 0.368628059
vt 0.42352983 0.439216051
vt 0.450980716 0.372549614
vt 0.309804733 0.388235835
vt 0.329412509 0.419608275
vt 0.309804733 0.490196266
vt 0.329412509 0.419608275
vt 0.345098729 0.309804733
vt 0.0627467638 0.309804733
vt 0.101962314 0.282353848
vt 0.078432984 0.360784949
vt 0.074511429 0.247059852
vt 0.0549036536 0.372549614
vt 0.0627467638 0.462745381
vt 0.0313743232 0.325490953
vt 0.0431389884 0.258824517
vt 1.88263402E-06 0.282353848
vt 0.019609658 0.219608967
vt 0.0549036536 0.203922746
vt 0.0431389884 0.133334755
vt 0.439216051 0.99607687
vt 0.466666936 0.992155315
vt 0.498039377 0.98823376
vt 0.525490262 0.894116439
vt 0.525490262 0.866665553
vt 0.525490262 0.788234452
vt 0.560784258 0.807842227
vt 0.560784258 0.878430218
vt 0.615686029 0.858822443
vt 0.611764474 0.788234452
vt 0.68627402 0.858822443
vt 0.682352465 0.784312897
vt 0.666666245 0.674509355
vt 0.643136914 0.682352465
vt 0.717646461 0.858822443
vt 0.729411126 0.772548231
vt 0.803920672 0.886273329
vt 0.713724905 0.650980024
vt 0.70980335 0.564705813
vt 0.658823134 0.623529139
vt 0.607842919 0.572548923
vt 0.623529139 0.69411713
vt 0.599999808 0.580392033
vt 0.596078253 0.772548231
vt 0.560784258 0.780391342
vt 0.717646461 0.901959549
vt 0.803920672 0.913724214
vt 0.858822443 0.913724214
vt 0.858822443 0.890194884
vt 0.803920672 0.831371558
vt 0.866665553 0.847057778
vt 0.729411126 0.772548231
vt 0.921567324 0.905881104
vt 0.925488879 0.839214668
vt 0.96470443 0.913724214
vt 0.960782875 0.839214668
vt 0.98823376 0.917645769
vt 0.99607687 0.823528447
vt 0.921567324 0.925488879
vt 0.960782875 0.799999117
vt 0.992155315 0.796077562
vt 0.807842227 0.819606892
vt 0.866665553 0.835293113
vt 0.752940456 0.733332681
vt 0.721568016 0.647058469
vt 0.96470443 0.9411751
vt 0.921567324 0.803920672
vt 0.984312205 0.933331989
vt 0.984312205 0.945096655
vt 0.729411126 0.772548231
vt 0.713724905 0.650980024
vt 0.717646461 0.549019592
vt 0.713724905 0.650980024
vt 0.70980335 0.564705813
vt 0.69411713 0.466666936
vt 0.682352465 0.490196266
vt 0.635293804 0.525490262
vt 0.631372249 0.486274711
vt 0.666666245 0.41568672
vt 0.615686029 0.41568672
vt 0.650980024 0.329412509
vt 0.596078253 0.337255619
vt 0.596078253 0.482353156
vt 0.580392033 0.40784361
vt 0.545098037 0.368628059
vt 0.572548923 0.435294495
vt 0.580392033 0.494117821
vt 0.599999808 0.580392033
vt 0.647058469 0.309804733
vt 0.588235143 0.309804733
vt 0.545098037 0.372549614
vt 0.545098037 0.372549614
vt 0.666666245 0.41568672
vt 0.647058469 0.309804733
vt 0.501960932 0.721568016
vt 0.525490262 0.760783566
vt 0.572548923 0.435294495
vt 0.545098037 0.368628059
vt 0.545098037 0.372549614
vt 0.611764474 0.909802659
vt 0.564705813 0.9411751
vt 0.607842919 0.945096655
vt 0.67843091 0.925488879
vt 0.556862703 0.99607687
vt 0.525490262 0.98823376
vt 0.682352465 0.388235835
vt 0.682352465 0.490196266
vt 0.666666245 0.41568672
vt 0.647058469 0.309804733
vt 0.666666245 0.41568672
vt 0.0627467638 0.309804733
vt 0.101962314 0.282353848
vt 0.074511429 0.247059852
vt 0.078432984 0.360784949
vt 0.0549036536 0.372549614
vt 0.0627467638 0.462745381
vt 0.0313743232 0.325490953
vt 0.0431389884 0.258824517
vt 1.88263402E-06 0.282353848
vt 0.0549036536 0.203922746
vt 0.019609658 0.219608967
vt 1.88263402E-06 0.282353848
vt 0.0431389884 0.133334755
vt 0.682352465 0.235295187
vt 0.647058469 0.200001191
vt 0.70196024 0.196079636
vt 0.650980024 0.282353848
vt 0.623529139 0.258824517
vt 0.592156698 0.239216742
vt 0.592156698 0.200001191
vt 0.525490262 0.200001191
vt 0.549019592 0.250981407
vt 0.525490262 0.286275403
vt 0.470588491 0.258824517
vt 0.286275403 0.180393416
vt 0.67843091 0.156864085
vt 0.647058469 0.117648535
vt 0.470588491 0.133334755
vt 0.525490262 0.117648535
vt 0.592156698 0.164707196
vt 0.623529139 0.141177865
vt 0.556862703 0.141177865
vt 0.301961623 0.0627467638
vt 0.360784949 0.0941192043
vt 0.329412509 0.101962314
vt 0.42352983 0.0627467638
vt 0.4000005 0.101962314
vt 0.301961623 0.133334755
vt 0.274510738 0.0901976493
vt 0.42352983 0.1294132
vt 0.478431601 0.109805425
vt 0.666666245 0.0627467638
vt 0.250981407 0.0627467638
vt 0.360784949 0.0392174333
vt 0.329412509 0.0313743232
vt 0.4000005 0.0313743232
vt 0.301961623 1.88263402E-06
vt 0.274510738 0.0392174333
vt 0.42352983 1.88263402E-06
vt 0.478431601 0.0235312131
vt 0.203922746 0.368628059
vt 0.239216742 0.164707196
vt 0.192158081 0.239216742
vt 0.274510738 0.364706504
vt 0.156864085 0.0980407594
vt 0.13725631 0.258824517
vt 0.149020975 0.388235835
vt 0.11372698 0.109805425
vt 0.168628751 0.0313743232
vt 0.239216742 0.0431389884
vt 0.235295187 0.0627467638
vt 0.12157009 0.0274527681
vt 0.207844301 0.388235835
vt 0.274510738 0.372549614
vt 0.282353848 0.352941839
vt 0.258824517 0.14509942
vt 0.243138297 0.0588252087
vt 0.11372698 0.282353848
vt 0.149020975 0.388235835
vt 0.133334755 0.403922055
vt 0.0823545391 0.149020975
vt 0.11372698 0.109805425
vt 0.160785641 0.41568672
vt 0.164707196 0.682352465
vt 0.250981407 0.635293804
vt 0.243138297 0.615686029
vt 0.133334755 0.772548231
vt 0.192158081 0.611764474
vt 0.235295187 0.580392033
vt 0.243138297 0.537254927
vt 0.196079636 0.564705813
vt 0.180393416 0.505882487
vt 0.274510738 0.470588491
vt 0.156864085 0.435294495
vt 0.301961623 0.396078945
vt 0.180393416 0.513725597
vt 0.156864085 0.435294495
vt 0.184314971 0.564705813
vt 0.180393416 0.607842919
vt 0.184314971 0.564705813
vt 0.250981407 0.647058469
vt 0.13725631 0.788234452
vt 0.160785641 0.67843091
vt 0.133334755 0.772548231
vt 0.125491645 0.768626676
vt 0.156864085 0.435294495
vt 0.180393416 0.505882487
vt 0.156864085 0.435294495
vt 0.180393416 0.505882487
vt 0.156864085 0.435294495
vt 0.588235143 0.729411126
vt 0.474510046 0.545098037
vt 0.42352983 0.592156698
vt 0.572548923 0.643136914
vt 0.541176482 0.545098037
vt 0.501960932 0.498039377
vt 0.541176482 0.490196266
vt 0.494117821 0.450980716
vt 0.458823826 0.372549614
vt 0.545098037 0.447059161
vt 0.556862703 0.42352983
vt 0.42352983 0.266667627
vt 0.164707196 0.682352465
vt 0.250981407 0.635293804
vt 0.133334755 0.772548231
vt 0.243138297 0.615686029
vt 0.192158081 0.611764474
vt 0.235295187 0.580392033
vt 0.243138297 0.537254927
vt 0.196079636 0.564705813
vt 0.180393416 0.505882487
vt 0.274510738 0.470588491
vt 0.156864085 0.435294495
vt 0.301961623 0.396078945
vt 0.180393416 0.513725597
vt 0.156864085 0.435294495
vt 0.184314971 0.564705813
vt 0.184314971 0.564705813
vt 0.180393416 0.607842919
vt 0.160785641 0.67843091
vt 0.133334755 0.772548231
vt 0.125491645 0.768626676
vt 0.250981407 0.647058469
vt 0.13725631 0.788234452
vt 0.588235143 0.729411126
vt 0.474510046 0.545098037
vt 0.572548923 0.643136914
vt 0.42352983 0.592156698
vt 0.541176482 0.545098037
vt 0.501960932 0.498039377
vt 0.541176482 0.490196266
vt 0.494117821 0.450980716
vt 0.458823826 0.372549614
vt 0.545098037 0.447059161
vt 0.556862703 0.42352983
vt 0.42352983 0.266667627
vn 0.77007801 0.626356978 -0.121065248
vn -0.0367510943 -0.149440237 -0.988087533
vn 0.804242085 -0.594301834 -0
vn 0.77007801 0.626356978 -0.121065248
vn -0.59532509 -0.0563445716 -0.80150691
vn 0.925237453 0.378101869 -0.0312190923
vn -0.626356978 0.222942426 -0.746976312
vn 0.676982344 0.378101869 -0.631453785
vn 0.925237453 0.347069981 -0.153225598
vn 0.211504015 0.502229424 -0.838469831
vn -0.626356978 0.222942426 -0.746976312
vn -0.626356978 0.378101869 -0.68170075
vn 0.676982344 0.378101869 -0.631453785
vn -0.657388867 -0.335631569 0.674678685
vn -0.626356978 0.222942426 -0.746976312
vn -0.502229424 -0.676982344 0.538015345
vn -0.657388867 -0.335631569 0.674678685
vn -0.59532509 -0.0563445716 -0.80150691
vn -0.0367510943 -0.149440237 -0.988087533
vn 0.804242085 -0.594301834 -0
vn -0.440165646 -0.894205565 -0.0815512844
vn -0.502229424 -0.676982344 0.538015345
vn -0.626356978 0.378101869 -0.68170075
vn -0.285006203 -0.118408349 0.951183961
vn -0.502229424 -0.676982344 0.538015345
vn 0.614918567 -0.180472126 0.767662014
vn 0.521822901 -0.180472126 0.833744968
vn 0.397695346 -0.242535903 0.884881205
vn 0.77007801 0.626356978 -0.121065248
vn 0.804242085 -0.594301834 -0
vn 0.676982344 0.378101869 -0.631453785
vn 0.925237453 0.347069981 -0.153225598
vn -0.502229424 -0.676982344 0.538015345
vn -0.657388867 -0.335631569 0.674678685
vn -0.440165646 -0.894205565 -0.0815512844
vn -0.285006203 -0.118408349 0.951183961
vn 0.925237453 0.347069981 -0.153225598
vn 0.804242085 -0.594301834 -0
vn 0.77007801 0.626356978 -0.121065248
vn 0.925237453 0.378101869 -0.0312190923
vn 0.676982344 0.378101869 -0.631453785
vn 0.77007801 0.626356978 -0.121065248
vn 0.804242085 -0.594301834 -0
vn -0.0367510943 -0.149440237 0.988087533
vn -0.59532509 -0.0563445716 0.80150691
vn 0.77007801 0.626356978 -0.121065248
vn 0.925237453 0.378101869 -0.0312190923
vn -0.626356978 0.222942426 0.746976312
vn 0.676982344 0.378101869 0.631453785
vn 0.925237453 0.347069981 0.153225598
vn 0.211504015 0.502229424 0.838469831
vn -0.626356978 0.222942426 0.746976312
vn 0.676982344 0.378101869 0.631453785
vn -0.626356978 0.378101869 0.68170075
vn -0.657388867 -0.335631569 -0.674678685
vn -0.626356978 0.222942426 0.746976312
vn -0.502229424 -0.676982344 -0.538015345
vn -0.59532509 -0.0563445716 0.80150691
vn -0.657388867 -0.335631569 -0.674678685
vn -0.0367510943 -0.149440237 0.988087533
vn 0.804242085 -0.594301834 -0
vn -0.440165646 -0.894205565 -0.0815512844
vn -0.502229424 -0.676982344 -0.538015345
vn -0.626356978 0.378101869 0.68170075
vn -0.285006203 -0.118408349 -0.951183961
vn -0.502229424 -0.676982344 -0.538015345
vn 0.614918567 -0.180472126 -0.767662014
vn -0.657388867 -0.335631569 -0.674678685
vn -0.285006203 -0.118408349 -0.951183961
vn 0.925237453 0.347069981 0.153225598
vn -0.502229424 -0.676982344 -0.538015345
vn 0.521822901 -0.180472126 -0.833744968
vn 0.397695346 -0.242535903 -0.884881205
vn -0.440165646 -0.894205565 -0.0815512844
vn 0.77007801 0.626356978 -0.121065248
vn 0.804242085 -0.594301834 -0
vn 0.676982344 0.378101869 0.631453785
vn 0.925237453 0.347069981 0.153225598
vn 0.804242085 -0.594301834 -0
vn 0.77007801 0.626356978 -0.121065248
vn 0.925237453 0.378101869 -0.0312190923
vn 0.676982344 0.378101869 0.631453785
vn 0.490791012 -0.490791012 0.71989469
vn -0.0988148716 -0.98730123 -0.124386099
vn 0.614918567 -0.55285479 0.562340411
vn -0.0677829829 -0.98730123 -0.143672362
vn 0.366663458 -0.397695346 0.841068558
vn -0.00571920569 -0.98730123 -0.158756326
vn 0.459759124 0.81254831 0.358311027
vn 0.428727235 0.81254831 0.394915436
vn 0.983700635 -0.179813961 -0
vn 0.459759124 0.81254831 0.358311027
vn 0.55285479 0.688420756 0.469498078
vn 0.0253126829 0.843580199 -0.536406298
vn 0.428727235 0.81254831 0.394915436
vn 0.0253126829 0.781516421 -0.623370958
vn 0.983700635 -0.179813961 -0
vn -0.0367510943 0.0988148716 -0.99442696
vn 0.983700635 -0.179813961 -0
vn -0.0988148716 0.0367510943 -0.99442696
vn -0.0677829829 -0.98730123 -0.143672362
vn -0.191910537 -0.428727235 -0.882815555
vn -0.0367510943 0.471197535 -0.881261732
vn -0.0988148716 -0.98730123 -0.124386099
vn -0.00571920569 -0.98730123 -0.158756326
vn 0.180472126 0.719452644 -0.670684504
vn 0.0873764602 0.905643976 -0.414938963
vn 0.55285479 0.688420756 0.469498078
vn 0.983700635 -0.179813961 -0
vn 0.490791012 -0.490791012 -0.71989469
vn -0.0988148716 -0.98730123 0.124386099
vn -0.0677829829 -0.98730123 0.143672362
vn 0.614918567 -0.55285479 -0.562340411
vn 0.366663458 -0.397695346 -0.841068558
vn -0.00571920569 -0.98730123 0.158756326
vn 0.459759124 0.81254831 -0.358311027
vn 0.459759124 0.81254831 -0.358311027
vn 0.55285479 0.688420756 -0.469498078
vn 0.428727235 0.81254831 -0.394915436
vn 0.983700635 -0.179813961 -0
vn 0.428727235 0.81254831 -0.394915436
vn 0.0253126829 0.843580199 0.536406298
vn 0.0253126829 0.781516421 0.623370958
vn 0.983700635 -0.179813961 -0
vn -0.0367510943 0.0988148716 0.99442696
vn 0.983700635 -0.179813961 -0
vn -0.0988148716 0.0367510943 0.99442696
vn -0.0677829829 -0.98730123 0.143672362
vn -0.191910537 -0.428727235 0.882815555
vn -0.0367510943 0.471197535 0.881261732
vn -0.0988148716 -0.98730123 0.124386099
vn -0.00571920569 -0.98730123 0.158756326
vn 0.180472126 0.719452644 0.670684504
vn 0.0873764602 0.905643976 0.414938963
vn 0.55285479 0.688420756 -0.469498078
vn 0.983700635 -0.179813961 -0
vn -0.688420756 0.378101869 -0.618963521
vn 0.273567792 0.688420756 -0.671742158
vn -0.533261312 0.719452644 -0.44499468
vn -0.191910537 0.222942426 -0.955754686
vn 0.614918567 -0.149440237 -0.774301473
vn -0.502229424 -0.490791012 -0.711961929
vn -0.781516421 -0.211504015 -0.586939635
vn 0.0563445716 -0.645950456 -0.761297116
vn 0.889335538 -0.457255181 -0
vn 0.894205565 0.409133758 -0.18167547
vn 0.77007801 0.440165646 -0.461772739
vn 0.238562643 -0.971127111 -0
vn -0.843580199 0.285006203 0.455130654
vn -0.191910537 0.905643976 0.378126083
vn -0.191910537 0.905643976 0.378126083
vn 0.428727235 0.874612087 0.22637724
vn 0.894205565 0.409133758 -0.18167547
vn -0.781516421 -0.211504015 -0.586939635
vn -0.440165646 -0.894205565 -0.0815512844
vn -0.905643976 -0.273567792 0.323990204
vn 0.238562643 -0.971127111 -0
vn 0.0563445716 -0.645950456 -0.761297116
vn -0.905643976 -0.273567792 0.323990204
vn -0.160878649 0.781516421 0.602785321
vn 0.273567792 0.905643976 -0.323990204
vn -0.222942426 0.316038092 0.922180351
vn -0.285006203 0.347069981 0.893484131
vn 0.273567792 0.905643976 -0.323990204
vn 0.397695346 -0.397695346 -0.826847521
vn 0.273567792 0.905643976 -0.323990204
vn 0.211504015 -0.366663458 -0.905993356
vn 0.335631569 0.874612087 -0.349864469
vn 0.0253126829 -0.335631569 -0.941653183
vn 0.971127111 -0.238562643 -0
vn 0.55285479 0.347069981 -0.757557925
vn 0.614918567 0.12984676 -0.777827086
vn 0.459759124 0.781516421 -0.421726963
vn 0.273567792 0.905643976 -0.323990204
vn -0.222942426 0.316038092 0.922180351
vn -0.222942426 -0.490791012 0.842271249
vn -0.0367510943 0.253974315 0.966512496
vn 0.242535903 0.222942426 0.944178484
vn 0.335631569 0.874612087 -0.349864469
vn 0.971127111 -0.238562643 -0
vn -0.0988148716 -0.925237453 0.366293975
vn -0.00571920569 -0.956269342 0.292431593
vn -0.0988148716 -0.956269342 0.275289969
vn -0.00571920569 -0.832141787 0.55453344
vn -0.0988148716 -0.956269342 0.275289969
vn 0.397695346 -0.397695346 -0.826847521
vn 0.242535903 -0.925237453 -0.291739594
vn 0.614918567 0.12984676 -0.777827086
vn 0.211504015 -0.366663458 -0.905993356
vn -0.00571920569 -0.956269342 0.292431593
vn 0.0253126829 -0.335631569 -0.941653183
vn 0.971127111 -0.238562643 -0
vn -0.00571920569 -0.832141787 0.55453344
vn -0.0988148716 -0.956269342 0.275289969
vn 0.459759124 0.781516421 -0.421726963
vn 0.273567792 0.905643976 -0.323990204
vn -0.160878649 0.781516421 -0.602785321
vn -0.222942426 0.316038092 -0.922180351
vn 0.273567792 0.905643976 0.323990204
vn -0.285006203 0.347069981 -0.893484131
vn 0.273567792 0.905643976 0.323990204
vn 0.397695346 -0.397695346 0.826847521
vn 0.211504015 -0.366663458 0.905993356
vn 0.335631569 0.874612087 0.349864469
vn 0.0253126829 -0.335631569 0.941653183
vn 0.971127111 -0.238562643 -0
vn 0.55285479 0.347069981 0.757557925
vn 0.614918567 0.12984676 0.777827086
vn 0.459759124 0.781516421 0.421726963
vn 0.273567792 0.905643976 0.323990204
vn -0.222942426 0.316038092 -0.922180351
vn -0.222942426 -0.490791012 -0.842271249
vn -0.0367510943 0.253974315 -0.966512496
vn 0.242535903 0.222942426 -0.944178484
vn 0.335631569 0.874612087 0.349864469
vn 0.971127111 -0.238562643 -0
vn -0.0988148716 -0.925237453 -0.366293975
vn -0.00571920569 -0.956269342 -0.292431593
vn -0.0988148716 -0.956269342 -0.275289969
vn 0.397695346 -0.397695346 0.826847521
vn 0.242535903 -0.925237453 0.291739594
vn 0.614918567 0.12984676 0.777827086
vn 0.211504015 -0.366663458 0.905993356
vn -0.00571920569 -0.956269342 -0.292431593
vn 0.0253126829 -0.335631569 0.941653183
vn 0.971127111 -0.238562643 -0
vn -0.0988148716 -0.956269342 -0.275289969
vn -0.00571920569 -0.832141787 -0.55453344
vn -0.00571920569 -0.832141787 -0.55453344
vn -0.0988148716 -0.956269342 -0.275289969
vn 0.273567792 0.905643976 0.323990204
vn 0.459759124 0.781516421 0.421726963
vn -0.222942426 0.750484533 -0.622149211
vn 0.0873764602 0.316038092 -0.94471439
vn 0.0873764602 0.253974315 -0.963256145
vn 0.211504015 0.688420756 -0.693788812
vn -0.0677829829 -0.55285479 -0.830516134
vn -0.440165646 -0.521822901 -0.730722289
vn 0.0253126829 0.316038092 -0.948408769
vn -0.316038092 -0.211504015 -0.924870789
vn 0.645950456 -0.149440237 -0.748609127
vn 0.583886678 -0.0253126829 -0.811440457
vn 0.645950456 -0.273567792 -0.712677116
vn 0.149440237 0.471197535 -0.869275847
vn -0.440165646 0.719452644 -0.53725422
vn 0.366663458 0.781516421 -0.504767265
vn 0.366663458 0.81254831 -0.453125979
vn 0.676982344 0.688420756 -0.260330116
vn -0.440165646 0.657388867 -0.611632309
vn 0.708014233 0.688420756 -0.157457009
vn -0.59532509 0.719452644 -0.357737237
vn 0.242535903 0.905643976 0.347829447
vn 0.490791012 0.564293201 0.663850409
vn -0.657388867 0.626356978 0.418947268
vn -0.967707753 0.191910537 -0.163438215
vn 0.832141787 0.533261312 0.152224895
vn 0.925237453 0.347069981 -0.153225598
vn -0.843580199 -0.0873764602 -0.529846962
vn 0.521822901 0.719452644 -0.458354397
vn 0.708014233 0.160878649 -0.687629193
vn -0.967707753 0.0988148716 -0.231899387
vn 0.983700635 -0.179813961 -0
vn 0.863173676 -0.211504015 -0.458472744
vn 0.963689517 -0.267025306 -0
vn 0.977814695 -0.209471767 -0
vn 0.971127111 -0.238562643 -0
vn 0.55285479 -0.583886678 -0.594498048
vn -0.626356978 -0.0563445716 -0.777497412
vn -0.657388867 -0.366663458 -0.658329542
vn -0.316038092 -0.211504015 -0.924870789
vn 0.55285479 -0.801109899 -0.229291325
vn -0.719452644 -0.55285479 -0.420403942
vn 0.539346858 -0.842083705 -0
vn -0.657388867 -0.645950456 -0.388056551
vn 0.420427639 -0.907326072 -0
vn -0.843580199 -0.459759124 -0.277477921
vn 0.963689517 -0.267025306 -0
vn -0.843580199 0.253974315 -0.473148492
vn -0.967707753 0.191910537 -0.163438215
vn -0.967707753 0.12984676 -0.216059074
vn -0.967707753 0.12984676 -0.216059074
vn -0.843580199 -0.459759124 0.277477921
vn -0.0988148716 -0.98730123 0.124386099
vn 0.943569624 -0.33117422 -0
vn -0.967707753 0.12984676 -0.216059074
vn 0.955557107 -0.294806064 -0
vn 0.977814695 -0.209471767 -0
vn -0.316038092 -0.211504015 -0.924870789
vn -0.0677829829 -0.55285479 -0.830516134
vn -0.440165646 -0.863173676 0.247356845
vn -0.0677829829 -0.55285479 -0.830516134
vn -0.440165646 -0.521822901 -0.730722289
vn -0.316038092 -0.77007801 0.554165844
vn -0.502229424 -0.335631569 -0.796942316
vn -0.00571920569 0.347069981 -0.937821795
vn -0.0367510943 0.347069981 -0.937118875
vn -0.378101869 -0.459759124 -0.80353004
vn -0.0988148716 0.316038092 -0.943586533
vn -0.781516421 -0.459759124 -0.421726963
vn -0.719452644 0.222942426 -0.657787631
vn 0.242535903 0.843580199 -0.479112496
vn 0.397695346 0.719452644 -0.569408732
vn -0.378101869 0.843580199 -0.3813285
vn 0.521822901 0.160878649 0.837746334
vn 0.335631569 0.285006203 0.89784348
vn 0.490791012 0.564293201 0.663850409
vn -0.378101869 -0.645950456 0.663164373
vn -0.564293201 -0.273567792 0.778931221
vn -0.191910537 0.533261312 0.823894847
vn -0.191910537 0.533261312 0.823894847
vn -0.378101869 -0.645950456 0.663164373
vn -0.378101869 -0.459759124 -0.80353004
vn -0.378101869 0.843580199 -0.3813285
vn 0.521822901 0.160878649 0.837746334
vn -0.191910537 0.533261312 0.823894847
vn 0.0563445716 -0.863173676 0.50175342
vn -0.378101869 -0.459759124 -0.80353004
vn -0.502229424 -0.335631569 -0.796942316
vn -0.378101869 -0.459759124 -0.80353004
vn -0.378101869 -0.645950456 0.663164373
vn 0.149440237 -0.335631569 0.930064011
vn -0.378101869 -0.645950456 0.663164373
vn -0.564293201 -0.273567792 0.778931221
vn 0.0563445716 -0.863173676 0.50175342
vn 0.521822901 0.160878649 0.837746334
vn -0.191910537 0.533261312 0.823894847
vn 0.335631569 0.285006203 0.89784348
vn 0.0873764602 -0.428727235 0.899198706
vn 0.490791012 0.564293201 0.663850409
vn -0.0677829829 -0.428727235 0.900887576
vn -0.316038092 -0.77007801 0.554165844
vn -0.440165646 -0.863173676 0.247356845
vn 0.304599681 0.81254831 -0.496975129
vn 0.273567792 0.843580199 -0.462096431
vn 0.304599681 0.905643976 -0.295005124
vn 0.832141787 0.533261312 -0.152224895
vn 0.676982344 0.688420756 0.260330116
vn -0.440165646 0.657388867 0.611632309
vn -0.440165646 0.719452644 0.53725422
vn 0.366663458 0.781516421 0.504767265
vn 0.0873764602 0.564293201 0.820937597
vn -0.222942426 0.750484533 0.622149211
vn 0.55285479 -0.0873764602 0.828683858
vn 0.0873764602 0.253974315 0.963256145
vn 0.0873764602 0.316038092 0.94471439
vn 0.211504015 0.688420756 0.693788812
vn 0.645950456 -0.149440237 0.748609127
vn -0.316038092 -0.211504015 0.924870789
vn 0.645950456 -0.273567792 0.712677116
vn -0.0677829829 -0.55285479 0.830516134
vn -0.440165646 -0.521822901 0.730722289
vn 0.0253126829 0.316038092 0.948408769
vn 0.366663458 0.81254831 0.453125979
vn 0.242535903 0.905643976 -0.347829447
vn 0.490791012 0.564293201 -0.663850409
vn -0.657388867 0.626356978 -0.418947268
vn -0.967707753 0.191910537 0.163438215
vn 0.963689517 -0.267025306 -0
vn 0.977814695 -0.209471767 -0
vn 0.971127111 -0.238562643 -0
vn 0.55285479 -0.583886678 0.594498048
vn -0.626356978 -0.0563445716 0.777497412
vn -0.657388867 -0.366663458 0.658329542
vn -0.316038092 -0.211504015 0.924870789
vn 0.55285479 -0.801109899 0.229291325
vn -0.719452644 -0.55285479 0.420403942
vn 0.539346858 -0.842083705 -0
vn -0.657388867 -0.645950456 0.388056551
vn 0.420427639 -0.907326072 -0
vn -0.843580199 -0.459759124 -0.277477921
vn 0.963689517 -0.267025306 -0
vn -0.843580199 0.253974315 0.473148492
vn -0.967707753 0.191910537 -0.163438215
vn -0.967707753 0.12984676 0.216059074
vn -0.967707753 0.12984676 0.216059074
vn -0.843580199 -0.459759124 -0.277477921
vn -0.0988148716 -0.98730123 -0.124386099
vn 0.943569624 -0.33117422 -0
vn -0.967707753 0.12984676 0.216059074
vn 0.955557107 -0.294806064 -0
vn 0.977814695 -0.209471767 -0
vn -0.316038092 -0.211504015 0.924870789
vn -0.0677829829 -0.55285479 0.830516134
vn -0.440165646 -0.863173676 -0.247356845
vn -0.0677829829 -0.55285479 0.830516134
vn -0.440165646 -0.521822901 0.730722289
vn -0.316038092 -0.77007801 -0.554165844
vn -0.502229424 -0.335631569 0.796942316
vn -0.00571920569 0.347069981 0.937821795
vn -0.0367510943 0.347069981 0.937118875
vn -0.378101869 -0.459759124 0.80353004
vn -0.0988148716 0.316038092 0.943586533
vn -0.781516421 -0.459759124 0.421726963
vn -0.719452644 0.222942426 0.657787631
vn 0.242535903 0.843580199 0.479112496
vn 0.397695346 0.719452644 0.569408732
vn -0.378101869 0.843580199 0.3813285
vn 0.521822901 0.160878649 -0.837746334
vn 0.335631569 0.285006203 -0.89784348
vn 0.490791012 0.564293201 -0.663850409
vn -0.378101869 -0.645950456 -0.663164373
vn -0.564293201 -0.273567792 -0.778931221
vn -0.191910537 0.533261312 -0.823894847
vn -0.191910537 0.533261312 -0.823894847
vn -0.378101869 -0.459759124 0.80353004
vn -0.378101869 -0.645950456 -0.663164373
vn -0.967707753 0.0988148716 -0.231899387
vn -0.843580199 -0.0873764602 0.529846962
vn 0.521822901 0.160878649 -0.837746334
vn -0.378101869 0.843580199 0.3813285
vn -0.191910537 0.533261312 -0.823894847
vn 0.739046121 0.222942426 0.635694506
vn 0.521822901 0.719452644 0.458354397
vn 0.983700635 -0.179813961 -0
vn 0.863173676 -0.459759124 0.208692964
vn 0.304599681 0.81254831 0.496975129
vn 0.273567792 0.843580199 0.462096431
vn 0.0563445716 -0.863173676 -0.50175342
vn -0.502229424 -0.335631569 0.796942316
vn -0.378101869 -0.459759124 0.80353004
vn -0.378101869 -0.645950456 -0.663164373
vn -0.378101869 -0.459759124 0.80353004
vn 0.149440237 -0.335631569 -0.930064011
vn -0.378101869 -0.645950456 -0.663164373
vn 0.0563445716 -0.863173676 -0.50175342
vn -0.564293201 -0.273567792 -0.778931221
vn 0.521822901 0.160878649 -0.837746334
vn -0.191910537 0.533261312 -0.823894847
vn 0.335631569 0.285006203 -0.89784348
vn 0.0873764602 -0.428727235 -0.899198706
vn 0.490791012 0.564293201 -0.663850409
vn -0.316038092 -0.77007801 -0.554165844
vn -0.0677829829 -0.428727235 -0.900887576
vn 0.490791012 0.564293201 -0.663850409
vn -0.440165646 -0.863173676 -0.247356845
vn -0.471197535 -0.273567792 -0.838530587
vn 0.149440237 0.967707753 -0.203000788
vn -0.967707753 0.00571920569 -0.252009911
vn -0.0677829829 -0.211504015 -0.975023856
vn 0.211504015 -0.459759124 -0.862489188
vn -0.00571920569 -0.242535903 -0.970125572
vn 0.211504015 0.967707753 -0.137141373
vn 0.149440237 0.967707753 -0.203000788
vn -0.222942426 -0.273567792 -0.935658772
vn -0.160878649 -0.242535903 -0.956710194
vn 0.0873764602 -0.366663458 -0.926241471
vn 0.971127111 -0.238562643 -0
vn -0.471197535 -0.273567792 0.838530587
vn -0.0677829829 -0.211504015 0.975023856
vn 0.0873764602 -0.366663458 0.926241471
vn -0.160878649 -0.242535903 0.956710194
vn -0.00571920569 -0.242535903 0.970125572
vn 0.211504015 -0.459759124 0.862489188
vn -0.222942426 -0.273567792 0.935658772
vn -0.160826738 -0.986982655 -0
vn -0.00571920569 -0.242535903 -0.970125572
vn 0.211504015 -0.459759124 -0.862489188
vn -0.190807672 -0.981627441 -0
vn -0.222942426 -0.273567792 -0.935658772
vn -0.0677829829 -0.211504015 -0.975023856
vn -0.471197535 -0.273567792 -0.838530587
vn -0.160878649 -0.242535903 -0.956710194
vn 0.0873764602 -0.366663458 -0.926241471
vn 0.971127111 -0.238562643 -0
vn -0.967707753 0.00571920569 -0.252009911
vn -0.00571920569 -0.242535903 0.970125572
vn 0.211504015 -0.459759124 0.862489188
vn -0.222942426 -0.273567792 0.935658772
vn -0.0677829829 -0.211504015 0.975023856
vn -0.471197535 -0.273567792 0.838530587
vn -0.160878649 -0.242535903 0.956710194
vn 0.0873764602 -0.366663458 0.926241471
vn -0.688420756 0.378101869 0.618963521
vn 0.273567792 0.688420756 0.671742158
vn -0.191910537 0.222942426 0.955754686
vn -0.533261312 0.719452644 0.44499468
vn 0.614918567 -0.149440237 0.774301473
vn -0.502229424 -0.490791012 0.711961929
vn -0.781516421 -0.211504015 0.586939635
vn 0.0563445716 -0.645950456 0.761297116
vn 0.889335538 -0.457255181 -0
vn 0.894205565 0.409133758 0.18167547
vn 0.77007801 0.440165646 0.461772739
vn 0.238562643 -0.971127111 -0
vn -0.843580199 0.285006203 -0.455130654
vn -0.191910537 0.905643976 -0.378126083
vn -0.191910537 0.905643976 -0.378126083
vn 0.428727235 0.874612087 -0.22637724
vn 0.894205565 0.409133758 0.18167547
vn -0.440165646 -0.894205565 -0.0815512844
vn -0.781516421 -0.211504015 0.586939635
vn -0.905643976 -0.273567792 -0.323990204
vn 0.238562643 -0.971127111 -0
vn 0.0563445716 -0.645950456 0.761297116
vn -0.905643976 -0.273567792 -0.323990204
vn 0.490791012 0.81254831 0.314466892
vn -0.160878649 -0.180472126 0.970333897
vn 0.0873764602 0.657388867 0.748468591
vn 0.77007801 -0.0563445716 0.635456645
vn 0.55285479 0.81254831 -0.184707405
vn 0.0873764602 0.719452644 0.689023401
vn 0.180472126 0.874612087 0.449981676
vn 0.708014233 0.626356978 0.326179064
vn 0.676982344 0.471197535 0.565391713
vn 0.211504015 0.874612087 0.436256517
vn 0.863173676 0.471197535 -0.18139484
vn 0.211504015 0.967707753 -0.137141373
vn 0.444997992 -0.895531567 -0
vn 0.778463329 -0.627690087 -0
vn 0.459759124 -0.801109899 -0.383202921
vn 0.490791012 -0.366663458 -0.790368326
vn 0.459759124 -0.801109899 -0.383202921
vn -0.190807672 -0.981627441 -0
vn 0.737390964 -0.675466184 -0
vn 0.459759124 0.00571920569 -0.888025247
vn 0.77007801 -0.0563445716 0.635456645
vn 0.737390964 -0.675466184 -0
vn 0.778463329 -0.627690087 -0
vn 0.676982344 0.471197535 0.565391713
vn 0.863173676 0.471197535 -0.18139484
vn 0.676982344 0.471197535 -0.565391713
vn 0.778463329 -0.627690087 -0
vn -0.12984676 -0.98730123 -0.0915210318
vn 0.444997992 -0.895531567 -0
vn 0.778463329 -0.627690087 -0
vn -0.0988148716 -0.925237453 -0.366293975
vn -0.12984676 -0.925237453 -0.356476471
vn 0.459759124 -0.801109899 -0.383202921
vn -0.0677829829 -0.801109899 -0.594666627
vn 0.490791012 -0.366663458 -0.790368326
vn 0.459759124 0.00571920569 -0.888025247
vn -0.00571920569 -0.708014233 -0.706175004
vn -0.190807672 -0.981627441 -0
vn 0.737390964 -0.675466184 -0
vn 0.490791012 0.81254831 -0.314466892
vn -0.160878649 -0.180472126 -0.970333897
vn 0.77007801 -0.0563445716 -0.635456645
vn 0.0873764602 0.657388867 -0.748468591
vn 0.55285479 0.81254831 -0.184707405
vn 0.0873764602 0.719452644 -0.689023401
vn 0.180472126 0.874612087 -0.449981676
vn 0.708014233 0.626356978 -0.326179064
vn 0.676982344 0.471197535 -0.565391713
vn 0.211504015 0.874612087 -0.436256517
vn 0.863173676 0.471197535 -0.18139484
vn 0.211504015 0.967707753 -0.137141373
vn 0.444997992 -0.895531567 -0
vn 0.778463329 -0.627690087 -0
vn 0.459759124 -0.801109899 0.383202921
vn 0.459759124 -0.801109899 0.383202921
vn 0.490791012 -0.366663458 0.790368326
vn 0.459759124 0.00571920569 0.888025247
vn 0.77007801 -0.0563445716 -0.635456645
vn 0.737390964 -0.675466184 0
vn -0.190807672 -0.981627441 -0
vn 0.737390964 -0.675466184 0
vn -0.12984676 -0.98730123 -0.0915210318
vn 0.444997992 -0.895531567 -0
vn -0.0988148716 -0.925237453 0.366293975
vn 0.778463329 -0.627690087 -0
vn -0.12984676 -0.925237453 0.356476471
vn 0.459759124 -0.801109899 0.383202921
vn -0.0677829829 -0.801109899 0.594666627
vn 0.490791012 -0.366663458 0.790368326
vn 0.459759124 0.00571920569 0.888025247
vn -0.00571920569 -0.708014233 0.706175004
vn -0.190807672 -0.981627441 -0
vn 0.737390964 -0.675466184 0
g Blue_mag_f_pve_1_helm_0
f 3/3/3 2/2/2 1/1/1
f 2/2/2 5/5/5 4/4/4
f 6/6/6 4/4/4 5/5/5
f 5/5/5 7/7/7 6/6/6
f 8/8/8 6/6/6 7/7/7
f 10/10/10 9/9/9 8/8/8
f 12/12/12 10/10/10 11/11/11
f 13/13/13 11/11/11 10/10/10
f 15/15/15 14/14/14 12/12/12
f 17/17/17 15/15/15 16/16/16
f 18/18/18 16/16/16 15/15/15
f 18/18/18 19/19/19 16/16/16
f 21/21/21 19/19/19 20/20/20
f 21/21/21 22/22/22 19/19/19
f 24/24/24 23/23/23 17/17/17
f 27/27/27 26/26/26 25/25/25
f 27/27/27 25/25/25 28/28/28
f 28/28/28 29/29/29 27/27/27
f 29/29/29 28/28/28 30/30/30
f 26/26/26 27/27/27 31/31/31
f 26/26/26 31/31/31 32/32/32
f 34/34/34 33/33/33 26/26/26
f 35/35/35 28/28/28 33/33/33
f 34/34/34 26/26/26 36/36/36
f 37/37/37 36/36/36 26/26/26
f 28/28/28 35/35/35 38/38/38
f 40/40/40 27/27/27 39/39/39
f 40/40/40 41/41/41 27/27/27
f 44/44/44 43/43/43 42/42/42
f 44/44/44 46/46/46 45/45/45
f 47/47/47 45/45/45 46/46/46
f 45/45/45 47/47/47 48/48/48
f 49/49/49 48/48/48 47/47/47
f 51/51/51 49/49/49 50/50/50
f 53/53/53 51/51/51 52/52/52
f 54/54/54 52/52/52 51/51/51
f 56/56/56 54/54/54 55/55/55
f 58/58/58 56/56/56 57/57/57
f 59/59/59 57/57/57 56/56/56
f 58/58/58 57/57/57 60/60/60
f 60/60/60 62/62/62 61/61/61
f 62/62/62 60/60/60 63/63/63
f 65/65/65 59/59/59 64/64/64
f 68/68/68 67/67/67 66/66/66
f 68/68/68 69/69/69 67/67/67
f 70/70/70 67/67/67 69/69/69
f 72/72/72 71/71/71 67/67/67
f 72/72/72 73/73/73 71/71/71
f 74/74/74 66/66/66 73/73/73
f 73/73/73 72/72/72 75/75/75
f 73/73/73 75/75/75 76/76/76
f 67/67/67 77/77/77 72/72/72
f 67/67/67 78/78/78 77/77/77
f 74/74/74 73/73/73 79/79/79
f 81/81/81 80/80/80 72/72/72
f 81/81/81 72/72/72 82/82/82
f 85/85/85 84/84/84 83/83/83
f 86/86/86 83/83/83 84/84/84
f 83/83/83 86/86/86 87/87/87
f 88/88/88 87/87/87 86/86/86
f 83/83/83 89/89/89 85/85/85
f 90/90/90 89/89/89 87/87/87
f 87/87/87 91/91/91 90/90/90
f 91/91/91 87/87/87 88/88/88
f 83/83/83 87/87/87 92/92/92
f 93/93/93 85/85/85 92/92/92
f 89/89/89 95/95/95 94/94/94
f 96/96/96 94/94/94 95/95/95
f 97/97/97 96/96/96 95/95/95
f 96/96/96 98/98/98 94/94/94
f 99/99/99 98/98/98 96/96/96
f 100/100/100 94/94/94 98/98/98
f 100/100/100 98/98/98 101/101/101
f 100/100/100 101/101/101 102/102/102
f 103/103/103 100/100/100 102/102/102
f 94/94/94 100/100/100 103/103/103
f 101/101/101 104/104/104 102/102/102
f 105/105/105 101/101/101 98/98/98
f 106/106/106 103/103/103 102/102/102
f 106/106/106 107/107/107 103/103/103
f 107/107/107 94/94/94 103/103/103
f 89/89/89 94/94/94 107/107/107
f 108/108/108 89/89/89 107/107/107
f 98/98/98 109/109/109 105/105/105
f 112/112/112 111/111/111 110/110/110
f 113/113/113 110/110/110 111/111/111
f 110/110/110 114/114/114 112/112/112
f 115/115/115 112/112/112 114/114/114
f 110/110/110 113/113/113 116/116/116
f 110/110/110 117/117/117 114/114/114
f 118/118/118 117/117/117 113/113/113
f 119/119/119 114/114/114 116/116/116
f 120/120/120 114/114/114 119/119/119
f 114/114/114 120/120/120 115/115/115
f 116/116/116 122/122/122 121/121/121
f 123/123/123 121/121/121 122/122/122
f 123/123/123 124/124/124 121/121/121
f 123/123/123 122/122/122 125/125/125
f 125/125/125 126/126/126 123/123/123
f 127/127/127 125/125/125 122/122/122
f 127/127/127 128/128/128 125/125/125
f 129/129/129 128/128/128 127/127/127
f 130/130/130 129/129/129 127/127/127
f 127/127/127 122/122/122 130/130/130
f 131/131/131 128/128/128 129/129/129
f 132/132/132 125/125/125 128/128/128
f 130/130/130 133/133/133 129/129/129
f 134/134/134 133/133/133 130/130/130
f 122/122/122 134/134/134 130/130/130
f 122/122/122 116/116/116 134/134/134
f 116/116/116 135/135/135 134/134/134
f 136/136/136 125/125/125 132/132/132
f 139/139/139 138/138/138 137/137/137
f 140/140/140 137/137/137 138/138/138
f 141/141/141 140/140/140 138/138/138
f 140/140/140 142/142/142 137/137/137
f 140/140/140 141/141/141 142/142/142
f 143/143/143 137/137/137 142/142/142
f 144/144/144 142/142/142 141/141/141
f 141/141/141 145/145/145 144/144/144
f 145/145/145 141/141/141 146/146/146
f 147/147/147 146/146/146 141/141/141
f 147/147/147 141/141/141 138/138/138
f 148/148/148 144/144/144 145/145/145
f 137/137/137 149/149/149 139/139/139
f 150/150/150 139/139/139 149/149/149
f 139/139/139 151/151/151 138/138/138
f 152/152/152 138/138/138 151/151/151
f 138/138/138 152/152/152 147/147/147
f 153/153/153 147/147/147 152/152/152
f 142/142/142 155/155/155 154/154/154
f 156/156/156 154/154/154 155/155/155
f 155/155/155 142/142/142 157/157/157
f 158/158/158 157/157/157 142/142/142
f 143/143/143 159/159/159 137/137/137
f 149/149/149 137/137/137 159/159/159
f 162/162/162 161/161/161 160/160/160
f 160/160/160 163/163/163 162/162/162
f 161/161/161 162/162/162 164/164/164
f 161/161/161 166/166/166 165/165/165
f 167/167/167 165/165/165 166/166/166
f 166/166/166 168/168/168 167/167/167
f 169/169/169 167/167/167 168/168/168
f 168/168/168 170/170/170 169/169/169
f 165/165/165 171/171/171 161/161/161
f 172/172/172 171/171/171 165/165/165
f 174/174/174 171/171/171 173/173/173
f 163/163/163 176/176/176 175/175/175
f 177/177/177 164/164/164 175/175/175
f 177/177/177 178/178/178 164/164/164
f 179/179/179 164/164/164 178/178/178
f 179/179/179 178/178/178 180/180/180
f 177/177/177 181/181/181 178/178/178
f 182/182/182 178/178/178 181/181/181
f 180/180/180 178/178/178 182/182/182
f 181/181/181 177/177/177 183/183/183
f 184/184/184 183/183/183 176/176/176
f 175/175/175 185/185/185 177/177/177
f 175/175/175 176/176/176 185/185/185
f 185/185/185 186/186/186 181/181/181
f 187/187/187 186/186/186 185/185/185
f 188/188/188 186/186/186 187/187/187
f 189/189/189 181/181/181 186/186/186
f 181/181/181 189/189/189 190/190/190
f 191/191/191 190/190/190 189/189/189
f 192/192/192 190/190/190 191/191/191
f 187/187/187 194/194/194 193/193/193
f 196/196/196 195/195/195 160/160/160
f 199/199/199 198/198/198 197/197/197
f 200/200/200 197/197/197 198/198/198
f 199/199/199 201/201/201 198/198/198
f 199/199/199 202/202/202 201/201/201
f 203/203/203 201/201/201 202/202/202
f 201/201/201 203/203/203 204/204/204
f 205/205/205 204/204/204 203/203/203
f 206/206/206 204/204/204 205/205/205
f 207/207/207 202/202/202 199/199/199
f 207/207/207 208/208/208 202/202/202
f 207/207/207 210/210/210 209/209/209
f 212/212/212 200/200/200 211/211/211
f 213/213/213 211/211/211 201/201/201
f 213/213/213 201/201/201 214/214/214
f 215/215/215 214/214/214 201/201/201
f 214/214/214 215/215/215 216/216/216
f 213/213/213 214/214/214 217/217/217
f 218/218/218 217/217/217 214/214/214
f 214/214/214 216/216/216 218/218/218
f 211/211/211 213/213/213 219/219/219
f 212/212/212 211/211/211 219/219/219
f 219/219/219 217/217/217 220/220/220
f 220/220/220 221/221/221 219/219/219
f 220/220/220 222/222/222 221/221/221
f 223/223/223 220/220/220 217/217/217
f 217/217/217 224/224/224 223/223/223
f 225/225/225 223/223/223 224/224/224
f 224/224/224 226/226/226 225/225/225
f 217/217/217 227/227/227 213/213/213
f 227/227/227 228/228/228 212/212/212
f 230/230/230 221/221/221 229/229/229
f 232/232/232 231/231/231 197/197/197
f 235/235/235 234/234/234 233/233/233
f 236/236/236 233/233/233 234/234/234
f 234/234/234 235/235/235 237/237/237
f 237/237/237 238/238/238 234/234/234
f 239/239/239 234/234/234 238/238/238
f 234/234/234 239/239/239 236/236/236
f 240/240/240 237/237/237 235/235/235
f 240/240/240 235/235/235 241/241/241
f 242/242/242 241/241/241 235/235/235
f 235/235/235 233/233/233 242/242/242
f 241/241/241 243/243/243 240/240/240
f 244/244/244 242/242/242 233/233/233
f 233/233/233 245/245/245 244/244/244
f 246/246/246 244/244/244 245/245/245
f 247/247/247 236/236/236 239/239/239
f 246/246/246 245/245/245 248/248/248
f 249/249/249 248/248/248 245/245/245
f 248/248/248 249/249/249 250/250/250
f 251/251/251 250/250/250 249/249/249
f 236/236/236 247/247/247 252/252/252
f 253/253/253 252/252/252 247/247/247
f 252/252/252 254/254/254 236/236/236
f 233/233/233 236/236/236 254/254/254
f 245/245/245 233/233/233 255/255/255
f 254/254/254 255/255/255 233/233/233
f 245/245/245 255/255/255 249/249/249
f 248/248/248 250/250/250 256/256/256
f 257/257/257 256/256/256 250/250/250
f 258/258/258 249/249/249 255/255/255
f 246/246/246 248/248/248 259/259/259
f 256/256/256 259/259/259 248/248/248
f 259/259/259 260/260/260 246/246/246
f 251/251/251 249/249/249 261/261/261
f 258/258/258 261/261/261 249/249/249
f 260/260/260 259/259/259 262/262/262
f 260/260/260 262/262/262 263/263/263
f 260/260/260 263/263/263 244/244/244
f 242/242/242 244/244/244 263/263/263
f 263/263/263 264/264/264 242/242/242
f 241/241/241 242/242/242 264/264/264
f 264/264/264 265/265/265 241/241/241
f 243/243/243 241/241/241 265/265/265
f 265/265/265 266/266/266 243/243/243
f 267/267/267 243/243/243 266/266/266
f 243/243/243 267/267/267 268/268/268
f 269/269/269 268/268/268 267/267/267
f 268/268/268 270/270/270 243/243/243
f 267/267/267 271/271/271 269/269/269
f 272/272/272 269/269/269 271/271/271
f 271/271/271 273/273/273 272/272/272
f 274/274/274 272/272/272 273/273/273
f 273/273/273 275/275/275 274/274/274
f 276/276/276 274/274/274 275/275/275
f 271/271/271 267/267/267 277/277/277
f 266/266/266 277/277/277 267/267/267
f 271/271/271 277/277/277 273/273/273
f 274/274/274 276/276/276 278/278/278
f 274/274/274 278/278/278 272/272/272
f 279/279/279 278/278/278 276/276/276
f 268/268/268 269/269/269 280/280/280
f 281/281/281 280/280/280 269/269/269
f 269/269/269 272/272/272 281/281/281
f 280/280/280 282/282/282 268/268/268
f 240/240/240 268/268/268 282/282/282
f 282/282/282 283/283/283 240/240/240
f 284/284/284 273/273/273 277/277/277
f 285/285/285 281/281/281 272/272/272
f 285/285/285 272/272/272 278/278/278
f 275/275/275 273/273/273 286/286/286
f 286/286/286 273/273/273 284/284/284
f 287/287/287 286/286/286 284/284/284
f 289/289/289 288/288/288 283/283/283
f 283/283/283 290/290/290 289/289/289
f 292/292/292 291/291/291 290/290/290
f 290/290/290 293/293/293 238/238/238
f 294/294/294 238/238/238 293/293/293
f 238/238/238 294/294/294 295/295/295
f 296/296/296 295/295/295 294/294/294
f 294/294/294 297/297/297 296/296/296
f 298/298/298 296/296/296 297/297/297
f 297/297/297 299/299/299 298/298/298
f 300/300/300 298/298/298 299/299/299
f 295/295/295 296/296/296 247/247/247
f 301/301/301 247/247/247 296/296/296
f 296/296/296 298/298/298 301/301/301
f 302/302/302 301/301/301 298/298/298
f 298/298/298 300/300/300 302/302/302
f 303/303/303 302/302/302 300/300/300
f 302/302/302 303/303/303 304/304/304
f 301/301/301 302/302/302 305/305/305
f 304/304/304 305/305/305 302/302/302
f 247/247/247 301/301/301 306/306/306
f 305/305/305 306/306/306 301/301/301
f 299/299/299 307/307/307 300/300/300
f 308/308/308 300/300/300 307/307/307
f 303/303/303 300/300/300 309/309/309
f 308/308/308 310/310/310 300/300/300
f 299/299/299 312/312/312 311/311/311
f 295/295/295 247/247/247 239/239/239
f 295/295/295 239/239/239 238/238/238
f 315/315/315 314/314/314 313/313/313
f 317/317/317 294/294/294 316/316/316
f 293/293/293 316/316/316 318/318/318
f 316/316/316 320/320/320 319/319/319
f 244/244/244 246/246/246 260/260/260
f 323/323/323 322/322/322 321/321/321
f 324/324/324 321/321/321 322/322/322
f 321/321/321 325/325/325 323/323/323
f 326/326/326 323/323/323 325/325/325
f 325/325/325 321/321/321 327/327/327
f 328/328/328 327/327/327 321/321/321
f 321/321/321 324/324/324 328/328/328
f 327/327/327 328/328/328 329/329/329
f 330/330/330 329/329/329 328/328/328
f 331/331/331 328/328/328 324/324/324
f 328/328/328 331/331/331 330/330/330
f 332/332/332 330/330/330 331/331/331
f 333/333/333 262/262/262 259/259/259
f 259/259/259 256/256/256 333/333/333
f 334/334/334 333/333/333 256/256/256
f 334/334/334 256/256/256 335/335/335
f 257/257/257 335/335/335 256/256/256
f 257/257/257 336/336/336 335/335/335
f 257/257/257 250/250/250 336/336/336
f 337/337/337 336/336/336 250/250/250
f 337/337/337 250/250/250 338/338/338
f 338/338/338 339/339/339 337/337/337
f 340/340/340 337/337/337 339/339/339
f 340/340/340 339/339/339 341/341/341
f 342/342/342 341/341/341 339/339/339
f 341/341/341 342/342/342 343/343/343
f 344/344/344 343/343/343 342/342/342
f 344/344/344 342/342/342 345/345/345
f 346/346/346 345/345/345 342/342/342
f 343/343/343 344/344/344 347/347/347
f 348/348/348 347/347/347 344/344/344
f 347/347/347 348/348/348 349/349/349
f 348/348/348 344/344/344 350/350/350
f 345/345/345 350/350/350 344/344/344
f 350/350/350 345/345/345 351/351/351
f 352/352/352 351/351/351 345/345/345
f 345/345/345 346/346/346 352/352/352
f 353/353/353 352/352/352 346/346/346
f 346/346/346 354/354/354 353/353/353
f 355/355/355 353/353/353 354/354/354
f 354/354/354 346/346/346 356/356/356
f 342/342/342 356/356/356 346/346/346
f 356/356/356 342/342/342 357/357/357
f 339/339/339 357/357/357 342/342/342
f 347/347/347 358/358/358 343/343/343
f 358/358/358 347/347/347 359/359/359
f 349/349/349 359/359/359 347/347/347
f 359/359/359 349/349/349 360/360/360
f 361/361/361 360/360/360 349/349/349
f 349/349/349 362/362/362 361/361/361
f 363/363/363 361/361/361 362/362/362
f 362/362/362 349/349/349 364/364/364
f 361/361/361 363/363/363 365/365/365
f 366/366/366 365/365/365 363/363/363
f 365/365/365 366/366/366 367/367/367
f 368/368/368 367/367/367 366/366/366
f 367/367/367 368/368/368 369/369/369
f 370/370/370 369/369/369 368/368/368
f 360/360/360 361/361/361 371/371/371
f 365/365/365 371/371/371 361/361/361
f 365/365/365 367/367/367 371/371/371
f 368/368/368 372/372/372 370/370/370
f 368/368/368 366/366/366 372/372/372
f 373/373/373 370/370/370 372/372/372
f 362/362/362 374/374/374 363/363/363
f 375/375/375 363/363/363 374/374/374
f 363/363/363 375/375/375 366/366/366
f 374/374/374 362/362/362 376/376/376
f 348/348/348 376/376/376 362/362/362
f 376/376/376 348/348/348 377/377/377
f 378/378/378 371/371/371 367/367/367
f 379/379/379 366/366/366 375/375/375
f 379/379/379 372/372/372 366/366/366
f 378/378/378 367/367/367 380/380/380
f 367/367/367 369/369/369 380/380/380
f 381/381/381 378/378/378 380/380/380
f 383/383/383 377/377/377 382/382/382
f 377/377/377 383/383/383 384/384/384
f 386/386/386 384/384/384 385/385/385
f 384/384/384 351/351/351 387/387/387
f 388/388/388 387/387/387 351/351/351
f 351/351/351 389/389/389 388/388/388
f 390/390/390 388/388/388 389/389/389
f 388/388/388 390/390/390 391/391/391
f 392/392/392 391/391/391 390/390/390
f 391/391/391 392/392/392 393/393/393
f 394/394/394 393/393/393 392/392/392
f 389/389/389 353/353/353 390/390/390
f 395/395/395 390/390/390 353/353/353
f 390/390/390 395/395/395 392/392/392
f 396/396/396 392/392/392 395/395/395
f 392/392/392 396/396/396 394/394/394
f 397/397/397 394/394/394 396/396/396
f 396/396/396 398/398/398 397/397/397
f 398/398/398 396/396/396 399/399/399
f 395/395/395 399/399/399 396/396/396
f 399/399/399 395/395/395 400/400/400
f 353/353/353 400/400/400 395/395/395
f 393/393/393 394/394/394 401/401/401
f 402/402/402 401/401/401 394/394/394
f 402/402/402 394/394/394 403/403/403
f 397/397/397 404/404/404 394/394/394
f 393/393/393 406/406/406 405/405/405
f 353/353/353 389/389/389 352/352/352
f 352/352/352 389/389/389 351/351/351
f 251/251/251 338/338/338 250/250/250
f 251/251/251 407/407/407 338/338/338
f 408/408/408 338/338/338 407/407/407
f 408/408/408 357/357/357 338/338/338
f 339/339/339 338/338/338 357/357/357
f 411/411/411 410/410/410 409/409/409
f 343/343/343 412/412/412 341/341/341
f 341/341/341 412/412/412 340/340/340
f 413/413/413 340/340/340 412/412/412
f 340/340/340 413/413/413 337/337/337
f 336/336/336 337/337/337 413/413/413
f 412/412/412 414/414/414 413/413/413
f 414/414/414 412/412/412 415/415/415
f 343/343/343 415/415/415 412/412/412
f 415/415/415 343/343/343 358/358/358
f 416/416/416 413/413/413 414/414/414
f 413/413/413 416/416/416 336/336/336
f 417/417/417 336/336/336 416/416/416
f 417/417/417 335/335/335 336/336/336
f 387/387/387 419/419/419 418/418/418
f 420/420/420 418/418/418 388/388/388
f 418/418/418 422/422/422 421/421/421
f 425/425/425 424/424/424 423/423/423
f 426/426/426 423/423/423 424/424/424
f 423/423/423 426/426/426 427/427/427
f 428/428/428 427/427/427 426/426/426
f 427/427/427 429/429/429 423/423/423
f 430/430/430 423/423/423 429/429/429
f 423/423/423 430/430/430 425/425/425
f 429/429/429 431/431/431 430/430/430
f 432/432/432 425/425/425 430/430/430
f 430/430/430 433/433/433 432/432/432
f 433/433/433 430/430/430 434/434/434
f 435/435/435 432/432/432 433/433/433
f 438/438/438 437/437/437 436/436/436
f 439/439/439 436/436/436 437/437/437
f 437/437/437 440/440/440 439/439/439
f 440/440/440 437/437/437 441/441/441
f 442/442/442 441/441/441 437/437/437
f 442/442/442 443/443/443 441/441/441
f 444/444/444 441/441/441 443/443/443
f 443/443/443 445/445/445 444/444/444
f 446/446/446 445/445/445 443/443/443
f 447/447/447 446/446/446 443/443/443
f 437/437/437 438/438/438 448/448/448
f 448/448/448 449/449/449 437/437/437
f 450/450/450 447/447/447 443/443/443
f 451/451/451 450/450/450 443/443/443
f 442/442/442 437/437/437 452/452/452
f 442/442/442 452/452/452 443/443/443
f 453/453/453 452/452/452 437/437/437
f 451/451/451 443/443/443 454/454/454
f 454/454/454 443/443/443 452/452/452
f 453/453/453 437/437/437 449/449/449
f 457/457/457 456/456/456 455/455/455
f 458/458/458 455/455/455 456/456/456
f 458/458/458 456/456/456 459/459/459
f 455/455/455 460/460/460 457/457/457
f 455/455/455 461/461/461 460/460/460
f 459/459/459 462/462/462 458/458/458
f 462/462/462 463/463/463 458/458/458
f 463/463/463 464/464/464 458/458/458
f 455/455/455 465/465/465 461/461/461
f 458/458/458 466/466/466 455/455/455
f 467/467/467 455/455/455 466/466/466
f 466/466/466 458/458/458 468/468/468
f 469/469/469 455/455/455 467/467/467
f 470/470/470 455/455/455 469/469/469
f 465/465/465 455/455/455 470/470/470
f 471/471/471 468/468/468 458/458/458
f 472/472/472 471/471/471 458/458/458
f 464/464/464 472/472/472 458/458/458
f 475/475/475 474/474/474 473/473/473
f 476/476/476 473/473/473 474/474/474
f 475/475/475 477/477/477 474/474/474
f 475/475/475 473/473/473 478/478/478
f 475/475/475 478/478/478 477/477/477
f 479/479/479 478/478/478 473/473/473
f 480/480/480 477/477/477 478/478/478
f 477/477/477 480/480/480 481/481/481
f 481/481/481 482/482/482 477/477/477
f 483/483/483 477/477/477 482/482/482
f 477/477/477 483/483/483 474/474/474
f 484/484/484 481/481/481 480/480/480
f 473/473/473 476/476/476 485/485/485
f 486/486/486 485/485/485 476/476/476
f 476/476/476 474/474/474 487/487/487
f 488/488/488 487/487/487 474/474/474
f 474/474/474 483/483/483 488/488/488
f 489/489/489 488/488/488 483/483/483
f 478/478/478 491/491/491 490/490/490
f 492/492/492 490/490/490 491/491/491
f 490/490/490 493/493/493 478/478/478
f 494/494/494 478/478/478 493/493/493
f 485/485/485 495/495/495 473/473/473
f 479/479/479 473/473/473 495/495/495
f 498/498/498 497/497/497 496/496/496
f 499/499/499 496/496/496 497/497/497
f 496/496/496 500/500/500 498/498/498
f 501/501/501 498/498/498 500/500/500
f 501/501/501 500/500/500 502/502/502
f 503/503/503 502/502/502 500/500/500
f 503/503/503 504/504/504 502/502/502
f 505/505/505 502/502/502 504/504/504
f 504/504/504 506/506/506 505/505/505
f 507/507/507 505/505/505 506/506/506
f 504/504/504 503/503/503 508/508/508
f 508/508/508 509/509/509 504/504/504
f 510/510/510 508/508/508 503/503/503
f 511/511/511 510/510/510 500/500/500
f 500/500/500 496/496/496 511/511/511
f 503/503/503 500/500/500 512/512/512
f 497/497/497 513/513/513 499/499/499
f 514/514/514 499/499/499 513/513/513
f 515/515/515 511/511/511 496/496/496
f 496/496/496 516/516/516 515/515/515
f 517/517/517 515/515/515 499/499/499
f 520/520/520 519/519/519 518/518/518
f 520/520/520 522/522/522 521/521/521
f 525/525/525 524/524/524 523/523/523
f 526/526/526 523/523/523 524/524/524
f 526/526/526 524/524/524 527/527/527
f 528/528/528 527/527/527 524/524/524
f 527/527/527 528/528/528 529/529/529
f 530/530/530 529/529/529 528/528/528
f 530/530/530 531/531/531 529/529/529
f 532/532/532 529/529/529 531/531/531
f 532/532/532 531/531/531 533/533/533
f 534/534/534 533/533/533 531/531/531
f 537/537/537 536/536/536 535/535/535
f 538/538/538 535/535/535 536/536/536
f 535/535/535 538/538/538 539/539/539
f 540/540/540 539/539/539 538/538/538
f 540/540/540 541/541/541 539/539/539
f 542/542/542 539/539/539 541/541/541
f 542/542/542 541/541/541 543/543/543
f 544/544/544 543/543/543 541/541/541
f 543/543/543 544/544/544 545/545/545
f 546/546/546 545/545/545 544/544/544
f 543/543/543 547/547/547 542/542/542
f 547/547/547 543/543/543 548/548/548
f 549/549/549 542/542/542 547/547/547
f 542/542/542 550/550/550 539/539/539
f 551/551/551 539/539/539 549/549/549
f 539/539/539 551/551/551 535/535/535
f 552/552/552 535/535/535 551/551/551
f 535/535/535 552/552/552 553/553/553
f 554/554/554 537/537/537 552/552/552
f 556/556/556 555/555/555 537/537/537
f 536/536/536 537/537/537 555/555/555
f 559/559/559 558/558/558 557/557/557
f 560/560/560 557/557/557 558/558/558
f 559/559/559 561/561/561 558/558/558
f 562/562/562 558/558/558 561/561/561
f 561/561/561 563/563/563 562/562/562
f 564/564/564 562/562/562 563/563/563
f 564/564/564 563/563/563 565/565/565
f 566/566/566 565/565/565 563/563/563
f 566/566/566 567/567/567 565/565/565
f 568/568/568 565/565/565 567/567/567
