g blue_war_m_pve_1_helm
v 0.17632623 -0.117850274 -0.055084534
v 0.221267298 -0.0778733194 -0.0895600617
v 0.172938555 -0.0781323314 -0.0946502164
v 0.225078315 -0.1264669 -0.0475950055
v 0.264905751 -0.0886427686 -0.0730018988
v 0.283139795 -0.0520090237 -0.0853118524
v 0.228374138 -0.0302226115 -0.10373836
v 0.291139245 -0.00320133404 -0.0798178762
v 0.226872265 0.0148214633 -0.0959472507
v 0.180382058 -0.132335454 8.17753826E-05
v 0.228387326 -0.138022214 8.17786495E-05
v 0.314121634 -0.0704270303 -0.0476103872
v 0.278269976 -0.108010978 -0.039453648
v 0.322632253 -0.0712897032 8.18382905E-05
v 0.285727501 -0.119331643 8.1799968E-05
v 0.285727501 -0.119331643 8.1799968E-05
v 0.156117633 -0.0922346115 -0.0406671129
v 0.159745798 -0.0637888834 -0.0736820623
v 0.115750358 -0.103758015 -0.0393510424
v 0.134259492 -0.1148993 8.17804175E-05
v 0.114384793 -0.0597997829 -0.0837913305
v 0.15365988 -0.0133278286 -0.101004943
v 0.173450664 -0.0144043956 -0.103920728
v 0.11834868 -0.00480251433 -0.112920158
v 0.112334952 -0.0705188885 -0.0979698226
v 0.112534374 -0.000949321664 -0.117794462
v 0.047760319 -0.069866538 -0.114508718
v 0.044371739 0.0170131326 -0.128825307
v 0.107786968 0.0897613317 -0.0865979269
v 0.0319473632 0.107065946 -0.104980409
v 0.102509439 0.134536147 -0.030361129
v 0.110497795 0.0831688568 -0.0808711573
v 0.0426377282 -0.0580989383 -0.101130627
v 0.0459792763 -0.122140989 -0.0675532594
v 0.114077985 -0.112413183 -0.0531349368
v 0.0459123589 -0.144391835 8.17471082E-05
v 0.11626333 -0.126649097 8.17697073E-05
v 0.114599399 -0.110490501 8.17805048E-05
v 0.0414402895 -0.126762137 8.17584878E-05
v 0.0414337963 -0.11088378 -0.054211352
v 0.0414337963 -0.11088378 -0.054211352
v 0.102509439 0.134536147 -0.030361129
v 0.00567943323 0.154037938 -0.0476486832
v 0.0266632345 0.0950050801 -0.0924282521
v 0.0382515006 0.0179938301 -0.111852959
v 0.00110830518 0.138310626 -0.039790798
v 0.00110830518 0.138310626 -0.039790798
v 0.00110830518 0.138310626 -0.039790798
v 0.0976154804 0.119029328 -0.0222632959
v 0.114599399 -0.110490501 8.17805048E-05
v 0.184413582 0.133257151 -0.0495619252
v 0.177640796 0.130225658 -0.0833059996
v 0.198986411 0.144097403 -0.0595164821
v 0.185935855 0.147355765 -0.0281174965
v 0.219070584 0.148519918 -0.0271916073
v 0.125943363 0.138893455 -0.069330126
v 0.139927849 0.144652426 -0.044350069
v 0.0836706907 0.148823097 -0.064486295
v 0.0780676082 0.133408964 -0.0668027028
v 0.0922259763 0.153203547 -0.0494774282
v 0.0447894074 0.152658507 -0.0467478521
v 0.0447894074 0.152658507 -0.0467478521
v 0.121443138 0.116361842 -0.0717634186
v 0.0780676082 0.133408964 -0.0668027028
v 0.209539428 0.13355206 8.19614143E-05
v 0.183512479 0.144674316 8.19651395E-05
v 0.137714475 0.163416237 -0.0259264652
v 0.13506946 0.171228617 8.19760608E-05
v 0.134819821 0.146721125 8.19592824E-05
v 0.138056815 0.139585882 -0.0257541891
v 0.139927849 0.144652426 -0.044350069
v 0.136326432 0.124196395 -0.0466558076
v 0.139604017 0.121154614 8.19425186E-05
v 0.136326432 0.124196395 -0.0466558076
v 0.144200653 0.105610847 -0.0446940586
v 0.135104954 0.0870809332 -0.0365171395
v 0.13228558 0.101494625 8.19279958E-05
v 0.137459353 0.0700000748 -0.0557201467
v 0.137714475 0.163416192 0.0260904059
v 0.1380568 0.139585853 0.0259181019
v 0.135104939 0.0870808885 0.0366809778
v 0.144200638 0.105610788 0.0448579192
v 0.136326417 0.124196336 0.0468196869
v 0.137459338 0.0700000003 0.0558839515
v 0.139927849 0.144652352 0.0445139892
v 0.136326417 0.124196336 0.0468196869
v 0.185935855 0.14735572 0.0282814279
v 0.219070569 0.148519889 0.0273555592
v 0.198986396 0.144097328 0.0596804172
v 0.184413567 0.133257076 0.0497258417
v 0.177640781 0.130225554 0.0834698975
v 0.125943333 0.138893351 0.0694940239
v 0.139927849 0.144652352 0.0445139892
v 0.0836706683 0.148823023 0.0646501929
v 0.0780675933 0.133408874 0.0669665858
v 0.121443108 0.116361752 0.0719272792
v 0.0922259614 0.153203458 0.0496413447
v 0.0447894 0.152658448 0.04691175
v 0.0447894 0.152658448 0.04691175
v 0.241244256 0.121191643 8.1957689E-05
v 0.241505414 0.139804125 -0.031759955
v 0.263659596 0.120116003 -0.0318085812
v 0.268346727 0.122006185 8.19622874E-05
v 0.283220828 0.108419627 -0.0329675041
v 0.265738487 0.106044337 -0.0589684583
v 0.293608457 0.0745272785 -0.0416957624
v 0.274033964 0.0660479814 -0.0583594367
v 0.29470253 0.0852851346 8.19411216E-05
v 0.282020479 0.118755989 8.19621055E-05
v 0.231229186 0.133885831 -0.0648921803
v 0.214287579 0.112349994 -0.0893957913
v 0.189355388 0.091405876 -0.111943521
v 0.144001141 0.111019745 -0.103379831
v 0.148909003 0.104063347 -0.0789126828
v 0.136516497 0.0808970705 -0.0748409182
v 0.123072349 0.0787718371 -0.117017783
v 0.110497795 0.0831688568 -0.0808711573
v 0.137459353 0.0700000748 -0.0557201467
v 0.14819698 0.0928165764 -0.0628898218
v 0.137459353 0.0700000748 -0.0557201467
v 0.158940613 0.0533263907 -0.130950406
v 0.143671587 0.0353733264 -0.111469232
v 0.121405467 0.060195107 -0.102812544
v 0.110497795 0.0831688568 -0.0808711573
v 0.166064769 0.0368302204 -0.107511505
v 0.121443138 0.116361842 -0.0717634186
v 0.216764629 0.0570663251 -0.0978120863
v 0.18683216 0.0672385171 -0.101482838
v 0.236193925 0.0752869919 -0.0689835474
v 0.283817172 0.0341071263 -0.0660979226
v 0.308279961 0.0420745648 -0.045669321
v 0.320410997 -0.0130969388 -0.0450548083
v 0.328420967 -0.00879146717 8.18818589E-05
v 0.314226985 0.0522401221 8.19214474E-05
v 0.308279932 0.0420744978 0.0458331443
v 0.320410997 -0.013097005 0.0452185534
v 0.283817142 0.0341070369 0.0662617236
v 0.291139245 -0.00320144137 0.0799816474
v 0.314121634 -0.0704271048 0.0477740578
v 0.278269947 -0.108011015 0.0396172665
v 0.285727501 -0.119331643 8.1799968E-05
v 0.264905721 -0.0886428803 0.0731655285
v 0.283139765 -0.0520091318 0.0854755193
v 0.221267253 -0.0778734311 0.0897236913
v 0.228374109 -0.0302227587 0.103902072
v 0.225078285 -0.126466975 0.0477585793
v 0.176326215 -0.117850348 0.0552481078
v 0.172938541 -0.0781324431 0.0948138535
v 0.226872236 0.0148213319 0.0961109996
v 0.180382058 -0.132335454 8.17753826E-05
v 0.228387326 -0.138022214 8.17786495E-05
v 0.285727501 -0.119331643 8.1799968E-05
v 0.156117618 -0.0922346488 0.0408307053
v 0.159745768 -0.0637889877 0.073845692
v 0.173450634 -0.0144045446 0.104084432
v 0.15365985 -0.0133279581 0.101168647
v 0.11438477 -0.0597998984 0.0839549601
v 0.118348643 -0.00480266334 0.113083869
v 0.112334915 -0.0705190375 0.0981334224
v 0.112534337 -0.00094948936 0.117958173
v 0.0477602854 -0.0698666871 0.114672318
v 0.0443716981 0.0170129668 0.128989011
v 0.107786939 0.089761205 0.0867617503
v 0.0319473296 0.107065797 0.105144233
v 0.102509432 0.134536117 0.0305250231
v 0.00567941694 0.154037863 0.0478125624
v 0.038251467 0.0179936811 0.112016663
v 0.0266632065 0.0950049534 0.0925920755
v 0.110497765 0.083168745 0.0810349807
v 0.118348643 -0.00480266334 0.113083869
v 0.0426376946 -0.0580990873 0.101294219
v 0.00110829296 0.138310567 0.0399546623
v 0.00110829296 0.138310567 0.0399546623
v 0.0976154655 0.119029291 0.0224271696
v 0.0459792539 -0.122141063 0.0677167699
v 0.0414337777 -0.110883854 0.0543748885
v 0.0414337777 -0.110883854 0.0543748885
v 0.0414402895 -0.126762137 8.17584878E-05
v 0.0459123589 -0.144391835 8.17471082E-05
v 0.114077963 -0.112413257 0.053298492
v 0.11626333 -0.126649097 8.17697073E-05
v 0.115750358 -0.103758059 0.0395146124
v 0.114599399 -0.110490501 8.17805048E-05
v 0.134259492 -0.1148993 8.17804175E-05
v 0.114599399 -0.110490501 8.17805048E-05
v 0.176708981 0.0107174665 8.18725821E-05
v 0.180331513 0.0545464233 -0.0405216776
v 0.178711608 0.0797879547 8.19200795E-05
v 0.179019004 0.0140436161 -0.0530419499
v 0.137459353 0.0700000748 -0.0557201467
v 0.103600621 0.0107972967 -0.0758477002
v 0.101977155 0.078288421 -0.0644658506
v 0.169733748 -0.0473091863 -0.0500688963
v 0.0989582241 -0.0458769463 -0.0688146353
v 0.135104954 0.0870809332 -0.0365171395
v 0.13228558 0.101494625 8.19279958E-05
v 0.0382515006 0.0179938301 -0.111852959
v 0.0426377282 -0.0580989383 -0.101130627
v 0.0992855057 -0.0830253884 -0.0404871032
v 0.0985624641 -0.0931782424 8.1789949E-05
v 0.172349945 -0.0767744631 8.1812148E-05
v 0.0414402895 -0.126762137 8.17584878E-05
v 0.0414337963 -0.11088378 -0.054211352
v 0.0426377282 -0.0580989383 -0.101130627
v 0.0414337963 -0.11088378 -0.054211352
v 0.0382515006 0.0179938301 -0.111852959
v 0.0266632345 0.0950050801 -0.0924282521
v 0.00110830518 0.138310626 -0.039790798
v 0.0266632345 0.0950050801 -0.0924282521
v 0.0976154804 0.119029328 -0.0222632959
v 0.0780676082 0.133408964 -0.0668027028
v 0.136326432 0.124196395 -0.0466558076
v 0.121443138 0.116361842 -0.0717634186
v 0.0892883763 0.137347803 -0.0518832132
v 0.139927849 0.144652426 -0.044350069
v 0.136326432 0.124196395 -0.0466558076
v 0.0447894074 0.152658507 -0.0467478521
v 0.14819698 0.0928165764 -0.0628898218
v 0.137459353 0.0700000748 -0.0557201467
v 0.136326432 0.124196395 -0.0466558076
v 0.137459353 0.0700000748 -0.0557201467
v 0.101977155 0.078288421 -0.0644658506
v 0.0976154804 0.119029328 -0.0222632959
v 0.110497795 0.0831688568 -0.0808711573
v 0.101977155 0.078288421 -0.0644658506
v 0.102509439 0.134536147 -0.030361129
v 0.0382515006 0.0179938301 -0.111852959
v 0.0319473632 0.107065946 -0.104980409
v 0.0426377282 -0.0580989383 -0.101130627
v 0.172349945 -0.0767744631 8.1812148E-05
v 0.148909003 0.104063347 -0.0789126828
v 0.11834868 -0.00480251433 -0.112920158
v 0.263659596 0.120115966 0.0319725014
v 0.241505384 0.139804095 0.0319238976
v 0.283220828 0.10841959 0.0331314169
v 0.265738457 0.106044263 0.0591323562
v 0.293608457 0.0745272264 0.0418596193
v 0.274033934 0.0660479069 0.0585232787
v 0.231229171 0.133885756 0.0650561005
v 0.214287549 0.11234986 0.0895596892
v 0.189355344 0.091405727 0.112107381
v 0.144001111 0.111019596 0.103543691
v 0.148908973 0.104063235 0.0790765435
v 0.158940569 0.0533262156 0.131114185
v 0.123072304 0.0787716806 0.117181607
v 0.136516467 0.0808969662 0.0750047415
v 0.148908973 0.104063235 0.0790765435
v 0.110497765 0.083168745 0.0810349807
v 0.137459338 0.0700000003 0.0558839515
v 0.148196965 0.092816487 0.0630536601
v 0.137459338 0.0700000003 0.0558839515
v 0.143671557 0.0353731737 0.11163301
v 0.121405438 0.0601949692 0.10297633
v 0.110497765 0.083168745 0.0810349807
v 0.166064754 0.0368300714 0.107675292
v 0.121443108 0.116361752 0.0719272792
v 0.148908973 0.104063235 0.0790765435
v 0.216764614 0.0570661947 0.0979759097
v 0.186832115 0.067238383 0.101646662
v 0.236193895 0.075286895 0.0691473857
v 0.118348643 -0.00480266334 0.113083869
v 0.110497765 0.083168745 0.0810349807
v 0.176708981 0.0107174665 8.18725821E-05
v 0.180331513 0.0545463637 0.0406854823
v 0.179018989 0.0140435407 0.053205695
v 0.178711608 0.0797879547 8.19200795E-05
v 0.137459338 0.0700000003 0.0558839515
v 0.103600591 0.0107971849 0.0760114267
v 0.10197714 0.0782883316 0.0646296516
v 0.169733733 -0.0473092645 0.0502325483
v 0.0989582017 -0.0458770581 0.0689782724
v 0.135104939 0.0870808885 0.0366809778
v 0.13228558 0.101494625 8.19279958E-05
v 0.038251467 0.0179936811 0.112016663
v 0.0426376946 -0.0580990873 0.101294219
v 0.0992854983 -0.0830254257 0.0406506956
v 0.0985624641 -0.0931782424 8.1789949E-05
v 0.172349945 -0.0767744631 8.1812148E-05
v 0.0414402895 -0.126762137 8.17584878E-05
v 0.0414337777 -0.110883854 0.0543748885
v 0.0426376946 -0.0580990873 0.101294219
v 0.0414337777 -0.110883854 0.0543748885
v 0.038251467 0.0179936811 0.112016663
v 0.0266632065 0.0950049534 0.0925920755
v 0.00110829296 0.138310567 0.0399546623
v 0.0976154655 0.119029291 0.0224271696
v 0.0266632065 0.0950049534 0.0925920755
v 0.0780675933 0.133408874 0.0669665858
v 0.136326417 0.124196336 0.0468196869
v 0.0892883688 0.137347728 0.0520470925
v 0.121443108 0.116361752 0.0719272792
v 0.139927849 0.144652352 0.0445139892
v 0.136326417 0.124196336 0.0468196869
v 0.0447894 0.152658448 0.04691175
v 0.136326417 0.124196336 0.0468196869
v 0.148196965 0.092816487 0.0630536601
v 0.137459338 0.0700000003 0.0558839515
v 0.110497765 0.083168745 0.0810349807
v 0.10197714 0.0782883316 0.0646296516
v 0.137459338 0.0700000003 0.0558839515
v 0.0976154655 0.119029291 0.0224271696
v 0.10197714 0.0782883316 0.0646296516
v 0.110497765 0.083168745 0.0810349807
v 0.110497765 0.083168745 0.0810349807
v 0.0426376946 -0.0580990873 0.101294219
v 0.038251467 0.0179936811 0.112016663
v 0.172349945 -0.0767744631 8.1812148E-05
vt 0.278926075 0.907305121
vt 0.321873516 0.84009999
vt 0.262578011 0.832441747
vt 0.347268999 0.930380583
vt 0.381673872 0.866578758
vt 0.388987243 0.820189238
vt 0.322323889 0.773618996
vt 0.39970696 0.764824927
vt 0.327165544 0.714809656
vt 0.272530645 0.983190894
vt 0.367218524 0.995193005
vt 0.442285746 0.856916904
vt 0.423927963 0.91525197
vt 0.493306935 0.864883244
vt 0.494757503 0.952687025
vt 0.494757503 0.952687025
vt 0.229963958 0.895850062
vt 0.231239229 0.825456083
vt 0.169924706 0.899124146
vt 0.198506862 0.960178018
vt 0.172195315 0.803180695
vt 0.227166846 0.735922694
vt 0.252388477 0.742128193
vt 0.179168373 0.704479933
vt 0.151047707 0.79936862
vt 0.168834493 0.69661516
vt 0.0641971081 0.775047064
vt 0.076420553 0.654244006
vt 0.185667396 0.559813857
vt 0.0546711646 0.515937209
vt 0.168886289 0.407081902
vt 0.195424825 0.547281682
vt 0.0421294495 0.765728056
vt 0.0528064705 0.869505227
vt 0.149056807 0.886265635
vt 0.0479187742 0.967982292
vt 0.149115011 0.964001715
vt 0.170519054 0.957911611
vt 0.0234773196 0.957894146
vt 0.0297781117 0.873708606
vt 0.0297781117 0.873708606
vt 0.168886289 0.407081902
vt 0.0281447843 0.414337516
vt 0.0317102 0.520845473
vt 0.0513886139 0.648560822
vt 0.00546301436 0.428472847
vt 0.027915284 0.388514996
vt 0.027915284 0.388514996
vt 0.166122824 0.381380379
vt 0.170519054 0.957911611
vt 0.394940525 0.502854526
vt 0.340370476 0.523251176
vt 0.391412377 0.52686888
vt 0.437183619 0.500262678
vt 0.442329109 0.540751398
vt 0.335820735 0.446051896
vt 0.392613709 0.431034505
vt 0.307792038 0.394059479
vt 0.285930365 0.401049376
vt 0.330260634 0.387606561
vt 0.2762312 0.344703913
vt 0.2762312 0.344703913
vt 0.296708256 0.447605908
vt 0.285930365 0.401049376
vt 0.486598939 0.530350626
vt 0.486015469 0.498661846
vt 0.44206202 0.433358341
vt 0.48482421 0.432484806
vt 0.484354734 0.409438163
vt 0.440562725 0.404626846
vt 0.392613709 0.431034505
vt 0.404964358 0.388979346
vt 0.483745068 0.380456954
vt 0.404964358 0.388979346
vt 0.421721548 0.356866837
vt 0.441092163 0.33064118
vt 0.48318705 0.353030056
vt 0.426096231 0.301082522
vt 0.52753818 0.431529015
vt 0.527911663 0.402701586
vt 0.524336517 0.328781456
vt 0.544750392 0.354145885
vt 0.562833607 0.385566115
vt 0.538173795 0.298606515
vt 0.576818585 0.427206546
vt 0.562833607 0.385566115
vt 0.534854352 0.498247653
vt 0.531221449 0.53893584
vt 0.581535876 0.522998154
vt 0.57712388 0.499106914
vt 0.632335842 0.517297268
vt 0.634204924 0.439972699
vt 0.576818585 0.427206546
vt 0.660222471 0.386923283
vt 0.682342827 0.39304629
vt 0.672023594 0.453252584
vt 0.63750422 0.381357044
vt 0.689884245 0.336351931
vt 0.689884245 0.336351931
vt 0.487380207 0.571896434
vt 0.441410869 0.569200754
vt 0.448889971 0.603213966
vt 0.487895727 0.599176705
vt 0.452022016 0.629203141
vt 0.418531299 0.62282449
vt 0.438941598 0.672039807
vt 0.408471495 0.674778938
vt 0.488770574 0.65208739
vt 0.488111496 0.609840691
vt 0.397268683 0.569160879
vt 0.355118334 0.581525207
vt 0.311742097 0.597450495
vt 0.277839273 0.542592227
vt 0.278986186 0.505650103
vt 0.234503761 0.527184665
vt 0.232012108 0.581897736
vt 0.195424825 0.547281682
vt 0.251049131 0.490648121
vt 0.279036433 0.472417265
vt 0.251049131 0.490648121
vt 0.252127409 0.630814314
vt 0.225243509 0.657883763
vt 0.206336439 0.607741833
vt 0.195424825 0.547281682
vt 0.255282015 0.666796446
vt 0.296708256 0.447605908
vt 0.324810237 0.655883193
vt 0.299835205 0.633511066
vt 0.369057417 0.64343673
vt 0.404928893 0.717959702
vt 0.439515471 0.713852346
vt 0.447323531 0.78450793
vt 0.491672277 0.779386461
vt 0.489582747 0.697404146
vt 0.540455341 0.711613417
vt 0.536065698 0.782578886
vt 0.575316548 0.714414775
vt 0.582591176 0.761061311
vt 0.543880284 0.854968131
vt 0.564226508 0.912668824
vt 0.494757503 0.952687025
vt 0.604595304 0.862286866
vt 0.595503747 0.816121697
vt 0.663275599 0.833384931
vt 0.660180092 0.766912341
vt 0.64155072 0.924646199
vt 0.709088862 0.898786187
vt 0.722185075 0.82329005
vt 0.653017938 0.708269894
vt 0.718777895 0.974306941
vt 0.624203324 0.990202427
vt 0.494757503 0.952687025
vt 0.757729769 0.885244131
vt 0.753171325 0.815042973
vt 0.728686452 0.732572436
vt 0.753473997 0.725331187
vt 0.811340332 0.789825559
vt 0.799895465 0.691893816
vt 0.833004236 0.7852422
vt 0.809606433 0.683767974
vt 0.91990757 0.757235169
vt 0.899283111 0.637591362
vt 0.818669438 0.528530836
vt 0.922967613 0.522605538
vt 0.830033839 0.414001852
vt 0.969256997 0.436427236
vt 0.923344731 0.63062191
vt 0.944712996 0.531290472
vt 0.802521408 0.529381335
vt 0.799895465 0.691893816
vt 0.942004263 0.746746659
vt 0.990329146 0.452986389
vt 0.972125053 0.410772085
vt 0.835416675 0.388744891
vt 0.934486747 0.851667523
vt 0.957538128 0.855071008
vt 0.957538128 0.855071008
vt 0.965667844 0.939380705
vt 0.941398799 0.9503268
vt 0.838597059 0.871370375
vt 0.840564609 0.948768795
vt 0.817998827 0.885166824
vt 0.819773674 0.943819344
vt 0.79229933 0.947746754
vt 0.819773674 0.943819344
vt 0.748912871 0.318334579
vt 0.685718119 0.260987192
vt 0.645896792 0.315213412
vt 0.735399723 0.243526503
vt 0.649982095 0.200906605
vt 0.732803464 0.131235003
vt 0.636857569 0.143428028
vt 0.812019408 0.231642261
vt 0.815749526 0.126912251
vt 0.617262423 0.228500322
vt 0.581035256 0.275651008
vt 0.719244301 0.0232192464
vt 0.826972544 0.0314189419
vt 0.881357074 0.147406712
vt 0.932468653 0.179818183
vt 0.874202371 0.280129731
vt 0.989123881 0.103264451
vt 0.921483874 0.0610861331
vt 0.826972544 0.0314189419
vt 0.921483874 0.0610861331
vt 0.719244301 0.0232192464
vt 0.607477367 0.0270254537
vt 0.507044196 0.0333075225
vt 0.607477367 0.0270254537
vt 0.559304833 0.16879569
vt 0.330844522 0.343063086
vt 0.404964358 0.388979346
vt 0.382339716 0.354229957
vt 0.337874502 0.368999332
vt 0.392613709 0.431034505
vt 0.404964358 0.388979346
vt 0.2762312 0.344703913
vt 0.40861094 0.329756469
vt 0.426096231 0.301082522
vt 0.404964358 0.388979346
vt 0.251049131 0.490648121
vt 0.210194871 0.509241402
vt 0.199831039 0.414299339
vt 0.195424825 0.547281682
vt 0.210194871 0.509241402
vt 0.168886289 0.407081902
vt 0.0513886139 0.648560822
vt 0.0546711646 0.515937209
vt 0.0421294495 0.765728056
vt 0.874202371 0.280129731
vt 0.278986186 0.505650103
vt 0.179168373 0.704479933
vt 0.527014911 0.601638556
vt 0.533204198 0.567340434
vt 0.524856985 0.627752185
vt 0.55807966 0.62000531
vt 0.539378524 0.669996858
vt 0.570052981 0.671486259
vt 0.577290595 0.565518737
vt 0.619852781 0.576175451
vt 0.663770199 0.590342462
vt 0.695555687 0.534175336
vt 0.693043888 0.49736765
vt 0.724586666 0.621262431
vt 0.742821515 0.5715698
vt 0.741404355 0.516315818
vt 0.693043888 0.49736765
vt 0.802521408 0.529381335
vt 0.753216684 0.494122416
vt 0.721740603 0.483920664
vt 0.753216684 0.494122416
vt 0.752390027 0.647217572
vt 0.76938659 0.596322894
vt 0.802521408 0.529381335
vt 0.722859263 0.6573627
vt 0.672023594 0.453252584
vt 0.693043888 0.49736765
vt 0.653027952 0.649257958
vt 0.677074432 0.625900209
vt 0.608304441 0.638602376
vt 0.799895465 0.691893816
vt 0.802521408 0.529381335
vt 0.240504786 0.310865492
vt 0.305833459 0.256256759
vt 0.256857306 0.236694083
vt 0.343556702 0.312135577
vt 0.343829691 0.197747394
vt 0.263729095 0.124605253
vt 0.359133184 0.140874282
vt 0.180751547 0.221555203
vt 0.181015074 0.116751745
vt 0.375471622 0.226712555
vt 0.409873068 0.275368392
vt 0.281392336 0.0172546599
vt 0.173440054 0.0208579171
vt 0.114679284 0.134433866
vt 0.0623740517 0.164640948
vt 0.116771944 0.267354012
vt 0.00868219789 0.0857344419
vt 0.0778749138 0.0464735329
vt 0.173440054 0.0208579171
vt 0.0778749138 0.0464735329
vt 0.281392336 0.0172546599
vt 0.392923266 0.0258178376
vt 0.493035853 0.0363720953
vt 0.435657293 0.169524387
vt 0.392923266 0.0258178376
vt 0.635249555 0.33687371
vt 0.562833607 0.385566115
vt 0.629181683 0.363058895
vt 0.584133387 0.349909663
vt 0.576818585 0.427206546
vt 0.562833607 0.385566115
vt 0.689884245 0.336351931
vt 0.562833607 0.385566115
vt 0.556818724 0.326525897
vt 0.538173795 0.298606515
vt 0.802521408 0.529381335
vt 0.792318046 0.4991934
vt 0.753216684 0.494122416
vt 0.806055009 0.391704172
vt 0.792318046 0.4991934
vt 0.802521408 0.529381335
vt 0.802521408 0.529381335
vt 0.942004263 0.746746659
vt 0.923344731 0.63062191
vt 0.116771944 0.267354012
vn -0.462798238 -0.761888385 -0.453148872
vn 0.0993817002 -0.46494326 -0.879744828
vn -0.385954171 -0.441363961 -0.810084701
vn 0.111128107 -0.867956698 -0.484047264
vn 0.33950007 -0.573640585 -0.745436907
vn 0.495715678 -0.218103394 -0.840652764
vn 0.173721224 -0.0861793831 -0.981016934
vn 0.565923989 0.131414786 -0.813916564
vn 0.261481792 0.118291654 -0.957932353
vn -0.338628143 -0.940920353 -6.91764569E-07
vn 0.11322888 -0.993568897 -6.68318762E-07
vn 0.812225878 -0.377594858 -0.444647342
vn 0.511535466 -0.752533257 -0.41475907
vn 0.92205286 -0.387064099 -1.048518E-07
vn 0.56227231 -0.826952219 -4.52950815E-07
vn 0.56227231 -0.826952219 -4.52950815E-07
vn -0.38365823 -0.765366852 -0.516739726
vn -0.396415889 -0.534913123 -0.746138275
vn 0.799037099 -0.512922883 -0.313767076
vn -0.138729513 -0.990330338 -4.81255654E-07
vn 0.709702849 -0.399203569 -0.580481231
vn -0.0447198451 -0.292459995 -0.955231488
vn -0.124515548 -0.130634114 -0.98358053
vn 0.623493552 -0.132065415 -0.770593584
vn 0.648608625 -0.372556239 -0.663708389
vn 0.597760797 0.0551593304 -0.799774706
vn -0.460063994 -0.404604018 -0.790339649
vn -0.427033901 0.0316972695 -0.903679848
vn 0.636078596 0.468400627 -0.613192439
vn -0.360196471 0.456775814 -0.813396752
vn 0.64387989 0.697645903 0.314179808
vn 0.679302156 0.723664045 -0.121897489
vn -0.964981437 0.100784779 0.242184132
vn -0.477559149 -0.733400524 -0.483798385
vn 0.714480519 -0.594325304 -0.369181603
vn -0.459793657 -0.88802582 -6.03846388E-07
vn 0.743667662 -0.668549418 -3.22190203E-07
vn 0.678730249 -0.734387696 -2.39208248E-07
vn -0.959161878 0.282857776 0
vn -0.95863843 0.241786733 0.150171712
vn -0.95863843 0.241786733 0.150171712
vn 0.64387989 0.697645903 0.314179808
vn -0.523473263 0.851439357 0.0320418254
vn -0.929334462 -0.344661027 0.132462323
vn -0.953690708 -0.0894832462 0.28717047
vn -0.823460102 -0.0790764391 0.561836541
vn -0.823460102 -0.0790764391 0.561836541
vn -0.823460102 -0.0790764391 0.561836541
vn 0.342084378 -0.250684947 0.905613184
vn 0.678730249 -0.734387696 -2.39208248E-07
vn -0.131160289 0.95266372 -0.274278432
vn -0.0301353987 0.810264587 -0.585288823
vn -0.0884582549 0.931319594 -0.353297353
vn 0.116193213 0.979497313 -0.164572969
vn 0.196415529 0.973463297 0.117431074
vn 0.0212912038 0.652576923 -0.757423341
vn -0.38509649 0.914538383 -0.123774812
vn -0.0890861824 0.662322283 -0.743903875
vn -0.490325153 -0.644607961 -0.586567998
vn 0.0745392516 0.806543171 0.586457193
vn -0.935943007 0.221658871 0.273638427
vn -0.935943007 0.221658871 0.273638427
vn -0.583156109 -0.581962883 -0.566787601
vn -0.490325153 -0.644607961 -0.586567998
vn 0.272101849 0.962268472 6.68727296E-07
vn 0.289999992 0.957026601 6.91175785E-07
vn -0.507231295 0.792467296 -0.338691533
vn -0.512127697 0.858909309 5.02882187E-07
vn -0.996988356 -0.0775516257 -2.13073392E-07
vn -0.9970029 -0.0628164113 -0.0451593213
vn -0.38509649 0.914538383 -0.123774812
vn -0.791829228 -0.391598284 0.46867612
vn -0.999696612 0.0246321838 -1.29054243E-07
vn -0.791829228 -0.391598284 0.46867612
vn -0.996928394 -0.075426653 0.0210844763
vn -0.965098381 -0.254163831 0.0631341562
vn -0.984125972 -0.177471638 -2.99832266E-07
vn -0.637615204 0.0324762352 0.769670129
vn -0.507231355 0.792466879 0.338692486
vn -0.9970029 -0.0628165305 0.0451589227
vn -0.965098381 -0.254163682 -0.063134715
vn -0.996928394 -0.0754267052 -0.0210850257
vn -0.791829109 -0.391597509 -0.468676895
vn -0.637614965 0.0324772075 -0.769670367
vn -0.38509658 0.914538205 0.123775758
vn -0.791829109 -0.391597509 -0.468676895
vn 0.116193064 0.979497075 0.164574325
vn 0.196415469 0.973463535 -0.117429808
vn -0.0884585157 0.931319058 0.353298604
vn -0.131160632 0.952663422 0.274279654
vn -0.0301357694 0.810263932 0.585289776
vn 0.021291025 0.652575731 0.757424295
vn -0.38509658 0.914538205 0.123775758
vn -0.0890861899 0.662321508 0.743904531
vn -0.490325183 -0.644608736 0.586566985
vn -0.583156228 -0.581963778 0.566786528
vn 0.0745398551 0.806544006 -0.586455822
vn -0.935942888 0.221658722 -0.273639232
vn -0.935942888 0.221658722 -0.273639232
vn 0.379087538 0.925360739 6.37075857E-07
vn 0.441862732 0.896863759 0.0198175982
vn 0.485548645 0.857818246 -0.168494403
vn 0.383490264 0.923545003 5.99568523E-07
vn 0.738460958 0.582171261 -0.340223402
vn 0.592097402 0.380736858 -0.710253477
vn 0.796423376 0.372610569 -0.476309985
vn 0.509586215 0.315407097 -0.80052501
vn 0.91887486 0.394549012 3.98069801E-07
vn 0.694585383 0.71941036 5.17176545E-07
vn 0.410966396 0.739852846 -0.532657743
vn 0.410155654 0.391827941 -0.823555291
vn 0.487453371 0.163024411 -0.857795
vn -0.513536334 0.764810622 -0.389030993
vn -0.90016675 0.309580654 -0.306365162
vn -0.511998534 0.79836309 0.316976041
vn -0.676317155 0.298036069 -0.673624158
vn 0.679302156 0.723664045 -0.121897489
vn -0.637615204 0.0324762352 0.769670129
vn -0.997785807 0.0633897036 0.0201287381
vn -0.637615204 0.0324762352 0.769670129
vn 0.129172042 -0.277118832 -0.952113271
vn -0.149356842 -0.251269311 -0.956324279
vn -0.767740309 -0.0861830413 -0.634938776
vn 0.679302156 0.723664045 -0.121897489
vn 0.275057495 -0.279635817 -0.919862628
vn -0.583156109 -0.581962883 -0.566787601
vn 0.363086522 0.173619792 -0.915436625
vn 0.514328301 -0.142817467 -0.84561789
vn 0.536097646 0.170232296 -0.826813281
vn 0.533539295 0.303041697 -0.789621234
vn 0.813270688 0.326928169 -0.481361449
vn 0.903202415 0.0635388717 -0.424485773
vn 0.99749738 0.0707032233 2.262245E-07
vn 0.932401896 0.361423135 4.11863169E-07
vn 0.813270509 0.326927453 0.481362104
vn 0.903202295 0.0635383055 0.42448622
vn 0.533539057 0.303040653 0.789621711
vn 0.565923691 0.131413609 0.813916981
vn 0.812225699 -0.377595544 0.444647044
vn 0.511535466 -0.752533793 0.414758176
vn 0.56227231 -0.826952219 -4.52950815E-07
vn 0.339499891 -0.573641539 0.745436251
vn 0.49571538 -0.218104467 0.840652585
vn 0.0993815064 -0.464944363 0.879744291
vn 0.173721001 -0.0861807168 0.981016815
vn 0.111127943 -0.867957354 0.484046102
vn -0.462798446 -0.761888921 0.453147769
vn -0.38595432 -0.441364944 0.810084105
vn 0.261481524 0.118290313 0.957932591
vn -0.338628143 -0.940920353 -6.91764569E-07
vn 0.11322888 -0.993568897 -6.68318762E-07
vn 0.56227231 -0.826952219 -4.52950815E-07
vn -0.383658409 -0.765367508 0.516738534
vn -0.396416187 -0.534914315 0.746137321
vn -0.124515794 -0.130635455 0.983580291
vn -0.0447199754 -0.292461365 0.955231071
vn 0.709702492 -0.399204493 0.580481052
vn 0.623492837 -0.132066444 0.770593941
vn 0.648608327 -0.372557282 0.663707972
vn 0.59776032 0.055158142 0.799775064
vn -0.460064173 -0.404605061 0.790338993
vn -0.427034199 0.0316960663 0.903679788
vn 0.636078358 0.468399853 0.613193274
vn -0.36019665 0.456774831 0.813397229
vn 0.64388001 0.69764632 -0.314178556
vn -0.523473322 0.851439476 -0.0320407599
vn -0.953690588 -0.0894828141 -0.287170798
vn -0.929334462 -0.344660729 -0.132462963
vn 0.679301798 0.723664045 0.121899053
vn 0.623492837 -0.132066444 0.770593941
vn -0.964981437 0.100785129 -0.242184237
vn -0.823459983 -0.0790756717 -0.561836958
vn -0.823459983 -0.0790756717 -0.561836958
vn 0.342084676 -0.250683874 -0.905613363
vn -0.477559358 -0.733401179 0.483797342
vn -0.95863843 0.241786763 -0.150171608
vn -0.95863843 0.241786763 -0.150171608
vn -0.959161878 0.282857776 0
vn -0.459793657 -0.88802582 -6.03846388E-07
vn 0.714480281 -0.59432584 0.369181007
vn 0.743667662 -0.668549418 -3.22190203E-07
vn 0.79903686 -0.512923419 0.313766718
vn 0.678730249 -0.734387696 -2.39208248E-07
vn -0.138729513 -0.990330338 -4.81255654E-07
vn 0.678730249 -0.734387696 -2.39208248E-07
vn -0.997876763 0.0651307777 -1.06828068E-07
vn -0.821589649 -0.345847815 0.45318833
vn -0.791636646 -0.610992014 -5.48207311E-07
vn -0.789245367 -0.00292484928 0.614071012
vn -0.637615204 0.0324762352 0.769670129
vn -0.376289397 -0.0341169201 0.925873756
vn 0.0506438985 -0.221681327 0.973803163
vn -0.687750757 0.417925477 0.593580067
vn -0.384753823 0.355197519 0.851938546
vn -0.965098381 -0.254163831 0.0631341562
vn -0.984125972 -0.177471638 -2.99832266E-07
vn -0.953690708 -0.0894832462 0.28717047
vn -0.964981437 0.100784779 0.242184132
vn -0.388527483 0.762851596 0.516820967
vn -0.41413191 0.910216868 5.06037338E-07
vn -0.703868032 0.710330844 3.34320958E-07
vn -0.959161878 0.282857776 0
vn -0.95863843 0.241786733 0.150171712
vn -0.964981437 0.100784779 0.242184132
vn -0.95863843 0.241786733 0.150171712
vn -0.953690708 -0.0894832462 0.28717047
vn -0.929334462 -0.344661027 0.132462323
vn -0.823460102 -0.0790764391 0.561836541
vn -0.929334462 -0.344661027 0.132462323
vn 0.342084378 -0.250684947 0.905613184
vn -0.490325153 -0.644607961 -0.586567998
vn -0.791829228 -0.391598284 0.46867612
vn -0.583156109 -0.581962883 -0.566787601
vn -0.187235028 -0.582846999 0.79071635
vn -0.38509649 0.914538383 -0.123774812
vn -0.791829228 -0.391598284 0.46867612
vn -0.935943007 0.221658871 0.273638427
vn -0.997785807 0.0633897036 0.0201287381
vn -0.637615204 0.0324762352 0.769670129
vn -0.791829228 -0.391598284 0.46867612
vn -0.637615204 0.0324762352 0.769670129
vn 0.0506438985 -0.221681327 0.973803163
vn 0.342084378 -0.250684947 0.905613184
vn 0.679302156 0.723664045 -0.121897489
vn 0.0506438985 -0.221681327 0.973803163
vn 0.64387989 0.697645903 0.314179808
vn -0.953690708 -0.0894832462 0.28717047
vn -0.360196471 0.456775814 -0.813396752
vn -0.964981437 0.100784779 0.242184132
vn -0.703868032 0.710330844 3.34320958E-07
vn -0.90016675 0.309580654 -0.306365162
vn 0.623493552 -0.132065415 -0.770593584
vn 0.485548645 0.857818067 0.16849564
vn 0.441862673 0.896863878 -0.0198164135
vn 0.738460898 0.582170784 0.340224415
vn 0.592097163 0.380735785 0.710254252
vn 0.796423256 0.372609884 0.47631079
vn 0.509585917 0.315405905 0.800525606
vn 0.410966307 0.73985225 0.532658875
vn 0.410155326 0.391826659 0.823556006
vn 0.487452984 0.163023368 0.857795417
vn -0.513536572 0.764810145 0.389031798
vn -0.900166869 0.309580356 0.306365132
vn 0.129171729 -0.277119935 0.952113032
vn -0.676317275 0.298035234 0.673624516
vn -0.511998534 0.798363507 -0.316975057
vn -0.900166869 0.309580356 0.306365132
vn 0.679301798 0.723664045 0.121899053
vn -0.637614965 0.0324772075 -0.769670367
vn -0.997785807 0.0633899346 -0.0201289393
vn -0.637614965 0.0324772075 -0.769670367
vn -0.149357319 -0.251270503 0.956323981
vn -0.767740488 -0.086183764 0.634938538
vn 0.679301798 0.723664045 0.121899053
vn 0.275057405 -0.279636919 0.91986233
vn -0.583156228 -0.581963778 0.566786528
vn -0.900166869 0.309580356 0.306365132
vn 0.363086373 0.17361851 0.915437043
vn 0.514328003 -0.14281866 0.845617771
vn 0.536097467 0.170231149 0.826813698
vn 0.623492837 -0.132066444 0.770593941
vn 0.679301798 0.723664045 0.121899053
vn -0.997876763 0.0651307777 -1.06828068E-07
vn -0.82158941 -0.345847189 -0.453189194
vn -0.789245188 -0.0029239757 -0.61407119
vn -0.791636646 -0.610992014 -5.48207311E-07
vn -0.637614965 0.0324772075 -0.769670367
vn -0.376289159 -0.0341155864 -0.925873995
vn 0.0506441444 -0.221679956 -0.973803461
vn -0.687750518 0.417926401 -0.593579531
vn -0.384753585 0.35519883 -0.851938128
vn -0.965098381 -0.254163682 -0.063134715
vn -0.984125972 -0.177471638 -2.99832266E-07
vn -0.953690588 -0.0894828141 -0.287170798
vn -0.964981437 0.100785129 -0.242184237
vn -0.388527393 0.762852192 -0.516820073
vn -0.41413191 0.910216868 5.06037338E-07
vn -0.703868032 0.710330844 3.34320958E-07
vn -0.959161878 0.282857776 0
vn -0.95863843 0.241786763 -0.150171608
vn -0.964981437 0.100785129 -0.242184237
vn -0.95863843 0.241786763 -0.150171608
vn -0.953690588 -0.0894828141 -0.287170798
vn -0.929334462 -0.344660729 -0.132462963
vn -0.823459983 -0.0790756717 -0.561836958
vn 0.342084676 -0.250683874 -0.905613363
vn -0.929334462 -0.344660729 -0.132462963
vn -0.490325183 -0.644608736 0.586566985
vn -0.791829109 -0.391597509 -0.468676895
vn -0.187234789 -0.582845628 -0.790717423
vn -0.583156228 -0.581963778 0.566786528
vn -0.38509658 0.914538205 0.123775758
vn -0.791829109 -0.391597509 -0.468676895
vn -0.935942888 0.221658722 -0.273639232
vn -0.791829109 -0.391597509 -0.468676895
vn -0.997785807 0.0633899346 -0.0201289393
vn -0.637614965 0.0324772075 -0.769670367
vn 0.679301798 0.723664045 0.121899053
vn 0.0506441444 -0.221679956 -0.973803461
vn -0.637614965 0.0324772075 -0.769670367
vn 0.342084676 -0.250683874 -0.905613363
vn 0.0506441444 -0.221679956 -0.973803461
vn 0.679301798 0.723664045 0.121899053
vn 0.679301798 0.723664045 0.121899053
vn -0.964981437 0.100785129 -0.242184237
vn -0.953690588 -0.0894828141 -0.287170798
vn -0.703868032 0.710330844 3.34320958E-07
g blue_war_m_pve_1_helm_0
f 3/3/3 2/2/2 1/1/1
f 2/2/2 4/4/4 1/1/1
f 4/4/4 2/2/2 5/5/5
f 6/6/6 5/5/5 2/2/2
f 7/7/7 6/6/6 2/2/2
f 7/7/7 2/2/2 3/3/3
f 6/6/6 7/7/7 8/8/8
f 7/7/7 9/9/9 8/8/8
f 1/1/1 4/4/4 10/10/10
f 4/4/4 11/11/11 10/10/10
f 6/6/6 12/12/12 5/5/5
f 12/12/12 13/13/13 5/5/5
f 13/13/13 4/4/4 5/5/5
f 12/12/12 14/14/14 13/13/13
f 14/14/14 15/15/15 13/13/13
f 11/11/11 4/4/4 16/16/16
f 4/4/4 13/13/13 16/16/16
f 1/1/1 17/17/17 3/3/3
f 17/17/17 1/1/1 10/10/10
f 17/17/17 18/18/18 3/3/3
f 18/18/18 17/17/17 19/19/19
f 19/19/19 17/17/17 20/20/20
f 20/20/20 17/17/17 10/10/10
f 21/21/21 18/18/18 19/19/19
f 18/18/18 21/21/21 22/22/22
f 18/18/18 22/22/22 23/23/23
f 3/3/3 18/18/18 23/23/23
f 21/21/21 24/24/24 22/22/22
f 21/21/21 25/25/25 24/24/24
f 25/25/25 26/26/26 24/24/24
f 26/26/26 25/25/25 27/27/27
f 28/28/28 26/26/26 27/27/27
f 26/26/26 28/28/28 29/29/29
f 28/28/28 30/30/30 29/29/29
f 29/29/29 30/30/30 31/31/31
f 24/24/24 26/26/26 32/32/32
f 26/26/26 29/29/29 32/32/32
f 29/29/29 31/31/31 32/32/32
f 28/28/28 27/27/27 33/33/33
f 34/34/34 27/27/27 25/25/25
f 35/35/35 34/34/34 25/25/25
f 35/35/35 25/25/25 21/21/21
f 34/34/34 35/35/35 36/36/36
f 35/35/35 37/37/37 36/36/36
f 37/37/37 35/35/35 19/19/19
f 38/38/38 37/37/37 19/19/19
f 34/34/34 36/36/36 39/39/39
f 40/40/40 34/34/34 39/39/39
f 34/34/34 40/40/40 27/27/27
f 19/19/19 35/35/35 21/21/21
f 41/41/41 33/33/33 27/27/27
f 30/30/30 43/43/43 42/42/42
f 43/43/43 30/30/30 44/44/44
f 44/44/44 30/30/30 45/45/45
f 46/46/46 43/43/43 44/44/44
f 42/42/42 43/43/43 47/47/47
f 49/49/49 42/42/42 48/48/48
f 50/50/50 19/19/19 20/20/20
f 53/53/53 52/52/52 51/51/51
f 51/51/51 54/54/54 53/53/53
f 54/54/54 55/55/55 53/53/53
f 52/52/52 56/56/56 51/51/51
f 56/56/56 57/57/57 51/51/51
f 57/57/57 56/56/56 58/58/58
f 58/58/58 56/56/56 59/59/59
f 60/60/60 57/57/57 58/58/58
f 61/61/61 58/58/58 59/59/59
f 62/62/62 60/60/60 58/58/58
f 63/63/63 56/56/56 52/52/52
f 56/56/56 63/63/63 64/64/64
f 55/55/55 54/54/54 65/65/65
f 54/54/54 66/66/66 65/65/65
f 66/66/66 54/54/54 67/67/67
f 68/68/68 66/66/66 67/67/67
f 69/69/69 68/68/68 67/67/67
f 70/70/70 69/69/69 67/67/67
f 67/67/67 71/71/71 70/70/70
f 71/71/71 72/72/72 70/70/70
f 69/69/69 70/70/70 73/73/73
f 73/73/73 70/70/70 74/74/74
f 75/75/75 73/73/73 74/74/74
f 73/73/73 75/75/75 76/76/76
f 77/77/77 73/73/73 76/76/76
f 76/76/76 75/75/75 78/78/78
f 67/67/67 54/54/54 71/71/71
f 54/54/54 51/51/51 71/71/71
f 68/68/68 69/69/69 79/79/79
f 66/66/66 68/68/68 79/79/79
f 69/69/69 80/80/80 79/79/79
f 80/80/80 69/69/69 73/73/73
f 73/73/73 77/77/77 81/81/81
f 82/82/82 73/73/73 81/81/81
f 80/80/80 73/73/73 83/83/83
f 73/73/73 82/82/82 83/83/83
f 82/82/82 81/81/81 84/84/84
f 85/85/85 79/79/79 80/80/80
f 86/86/86 85/85/85 80/80/80
f 87/87/87 79/79/79 85/85/85
f 87/87/87 66/66/66 79/79/79
f 66/66/66 87/87/87 65/65/65
f 87/87/87 88/88/88 65/65/65
f 88/88/88 87/87/87 89/89/89
f 87/87/87 90/90/90 89/89/89
f 90/90/90 87/87/87 85/85/85
f 89/89/89 90/90/90 91/91/91
f 92/92/92 91/91/91 90/90/90
f 93/93/93 92/92/92 90/90/90
f 92/92/92 93/93/93 94/94/94
f 92/92/92 94/94/94 95/95/95
f 96/96/96 92/92/92 95/95/95
f 92/92/92 96/96/96 91/91/91
f 93/93/93 97/97/97 94/94/94
f 94/94/94 98/98/98 95/95/95
f 97/97/97 99/99/99 94/94/94
f 100/100/100 65/65/65 88/88/88
f 65/65/65 100/100/100 55/55/55
f 100/100/100 101/101/101 55/55/55
f 101/101/101 100/100/100 102/102/102
f 100/100/100 103/103/103 102/102/102
f 102/102/102 103/103/103 104/104/104
f 102/102/102 104/104/104 105/105/105
f 105/105/105 104/104/104 106/106/106
f 107/107/107 105/105/105 106/106/106
f 106/106/106 104/104/104 108/108/108
f 104/104/104 109/109/109 108/108/108
f 103/103/103 109/109/109 104/104/104
f 110/110/110 101/101/101 102/102/102
f 55/55/55 101/101/101 110/110/110
f 110/110/110 102/102/102 105/105/105
f 53/53/53 55/55/55 110/110/110
f 53/53/53 110/110/110 111/111/111
f 111/111/111 110/110/110 105/105/105
f 52/52/52 53/53/53 111/111/111
f 52/52/52 111/111/111 112/112/112
f 113/113/113 52/52/52 112/112/112
f 52/52/52 113/113/113 114/114/114
f 115/115/115 114/114/114 113/113/113
f 113/113/113 116/116/116 115/115/115
f 116/116/116 117/117/117 115/115/115
f 115/115/115 117/117/117 118/118/118
f 119/119/119 114/114/114 115/115/115
f 119/119/119 115/115/115 120/120/120
f 116/116/116 113/113/113 121/121/121
f 113/113/113 112/112/112 121/121/121
f 116/116/116 121/121/121 122/122/122
f 123/123/123 116/116/116 122/122/122
f 123/123/123 124/124/124 116/116/116
f 125/125/125 122/122/122 121/121/121
f 114/114/114 126/126/126 52/52/52
f 125/125/125 23/23/23 122/122/122
f 125/125/125 9/9/9 23/23/23
f 9/9/9 125/125/125 127/127/127
f 125/125/125 128/128/128 127/127/127
f 121/121/121 128/128/128 125/125/125
f 128/128/128 111/111/111 127/127/127
f 129/129/129 127/127/127 111/111/111
f 127/127/127 129/129/129 107/107/107
f 130/130/130 127/127/127 107/107/107
f 9/9/9 127/127/127 130/130/130
f 105/105/105 107/107/107 129/129/129
f 111/111/111 105/105/105 129/129/129
f 131/131/131 130/130/130 107/107/107
f 130/130/130 131/131/131 132/132/132
f 8/8/8 130/130/130 132/132/132
f 8/8/8 9/9/9 130/130/130
f 132/132/132 131/131/131 133/133/133
f 131/131/131 134/134/134 133/133/133
f 133/133/133 14/14/14 132/132/132
f 14/14/14 12/12/12 132/132/132
f 134/134/134 131/131/131 106/106/106
f 106/106/106 131/131/131 107/107/107
f 108/108/108 134/134/134 106/106/106
f 8/8/8 132/132/132 6/6/6
f 132/132/132 12/12/12 6/6/6
f 112/112/112 111/111/111 128/128/128
f 134/134/134 135/135/135 133/133/133
f 135/135/135 136/136/136 133/133/133
f 14/14/14 133/133/133 136/136/136
f 135/135/135 137/137/137 136/136/136
f 137/137/137 138/138/138 136/136/136
f 139/139/139 14/14/14 136/136/136
f 14/14/14 139/139/139 140/140/140
f 141/141/141 14/14/14 140/140/140
f 140/140/140 139/139/139 142/142/142
f 139/139/139 143/143/143 142/142/142
f 139/139/139 136/136/136 143/143/143
f 136/136/136 138/138/138 143/143/143
f 142/142/142 143/143/143 144/144/144
f 143/143/143 145/145/145 144/144/144
f 145/145/145 143/143/143 138/138/138
f 144/144/144 146/146/146 142/142/142
f 146/146/146 140/140/140 142/142/142
f 146/146/146 144/144/144 147/147/147
f 144/144/144 148/148/148 147/147/147
f 144/144/144 145/145/145 148/148/148
f 149/149/149 145/145/145 138/138/138
f 149/149/149 138/138/138 137/137/137
f 146/146/146 147/147/147 150/150/150
f 151/151/151 146/146/146 150/150/150
f 140/140/140 146/146/146 152/152/152
f 146/146/146 151/151/151 152/152/152
f 153/153/153 147/147/147 148/148/148
f 147/147/147 153/153/153 150/150/150
f 154/154/154 153/153/153 148/148/148
f 154/154/154 148/148/148 155/155/155
f 145/145/145 155/155/155 148/148/148
f 145/145/145 149/149/149 155/155/155
f 156/156/156 154/154/154 155/155/155
f 157/157/157 154/154/154 156/156/156
f 158/158/158 157/157/157 156/156/156
f 159/159/159 157/157/157 158/158/158
f 160/160/160 159/159/159 158/158/158
f 159/159/159 160/160/160 161/161/161
f 160/160/160 162/162/162 161/161/161
f 162/162/162 160/160/160 163/163/163
f 164/164/164 162/162/162 163/163/163
f 164/164/164 163/163/163 165/165/165
f 166/166/166 164/164/164 165/165/165
f 162/162/162 164/164/164 167/167/167
f 164/164/164 168/168/168 167/167/167
f 164/164/164 166/166/166 168/168/168
f 163/163/163 160/160/160 169/169/169
f 165/165/165 163/163/163 169/169/169
f 160/160/160 170/170/170 169/169/169
f 161/161/161 162/162/162 171/171/171
f 166/166/166 172/172/172 168/168/168
f 166/166/166 165/165/165 173/173/173
f 165/165/165 174/174/174 173/173/173
f 161/161/161 175/175/175 159/159/159
f 171/171/171 176/176/176 161/161/161
f 177/177/177 175/175/175 161/161/161
f 175/175/175 177/177/177 178/178/178
f 179/179/179 175/175/175 178/178/178
f 180/180/180 175/175/175 179/179/179
f 181/181/181 180/180/180 179/179/179
f 180/180/180 181/181/181 182/182/182
f 181/181/181 183/183/183 182/182/182
f 175/175/175 180/180/180 159/159/159
f 159/159/159 180/180/180 157/157/157
f 180/180/180 182/182/182 157/157/157
f 154/154/154 157/157/157 182/182/182
f 153/153/153 154/154/154 182/182/182
f 153/153/153 182/182/182 184/184/184
f 153/153/153 184/184/184 150/150/150
f 182/182/182 185/185/185 184/184/184
f 188/188/188 187/187/187 186/186/186
f 187/187/187 189/189/189 186/186/186
f 190/190/190 189/189/189 187/187/187
f 189/189/189 190/190/190 191/191/191
f 190/190/190 192/192/192 191/191/191
f 189/189/189 191/191/191 193/193/193
f 186/186/186 189/189/189 193/193/193
f 191/191/191 194/194/194 193/193/193
f 187/187/187 188/188/188 195/195/195
f 190/190/190 187/187/187 195/195/195
f 188/188/188 196/196/196 195/195/195
f 194/194/194 191/191/191 197/197/197
f 191/191/191 192/192/192 197/197/197
f 198/198/198 194/194/194 197/197/197
f 194/194/194 199/199/199 193/193/193
f 193/193/193 199/199/199 200/200/200
f 201/201/201 193/193/193 200/200/200
f 200/200/200 199/199/199 202/202/202
f 199/199/199 203/203/203 202/202/202
f 194/194/194 204/204/204 199/199/199
f 204/204/204 205/205/205 199/199/199
f 192/192/192 207/207/207 206/206/206
f 209/209/209 192/192/192 208/208/208
f 192/192/192 210/210/210 208/208/208
f 213/213/213 212/212/212 211/211/211
f 212/212/212 214/214/214 211/211/211
f 62/62/62 211/211/211 214/214/214
f 216/216/216 215/215/215 214/214/214
f 215/215/215 60/60/60 214/214/214
f 217/217/217 214/214/214 60/60/60
f 218/218/218 75/75/75 213/213/213
f 75/75/75 218/218/218 219/219/219
f 75/75/75 220/220/220 213/213/213
f 117/117/117 222/222/222 221/221/221
f 225/225/225 224/224/224 223/223/223
f 224/224/224 226/226/226 223/223/223
f 228/228/228 28/28/28 227/227/227
f 227/227/227 28/28/28 229/229/229
f 230/230/230 186/186/186 193/193/193
f 63/63/63 231/231/231 119/119/119
f 23/23/23 7/7/7 3/3/3
f 9/9/9 7/7/7 23/23/23
f 23/23/23 22/22/22 122/122/122
f 24/24/24 122/122/122 22/22/22
f 24/24/24 123/123/123 122/122/122
f 232/232/232 124/124/124 123/123/123
f 121/121/121 112/112/112 128/128/128
f 103/103/103 100/100/100 233/233/233
f 100/100/100 234/234/234 233/233/233
f 103/103/103 233/233/233 235/235/235
f 235/235/235 233/233/233 236/236/236
f 235/235/235 236/236/236 237/237/237
f 236/236/236 238/238/238 237/237/237
f 235/235/235 237/237/237 108/108/108
f 109/109/109 235/235/235 108/108/108
f 109/109/109 103/103/103 235/235/235
f 234/234/234 239/239/239 233/233/233
f 233/233/233 239/239/239 236/236/236
f 234/234/234 100/100/100 88/88/88
f 234/234/234 88/88/88 239/239/239
f 88/88/88 89/89/89 239/239/239
f 239/239/239 89/89/89 240/240/240
f 239/239/239 240/240/240 236/236/236
f 89/89/89 91/91/91 240/240/240
f 241/241/241 240/240/240 91/91/91
f 242/242/242 241/241/241 91/91/91
f 242/242/242 91/91/91 243/243/243
f 241/241/241 242/242/242 244/244/244
f 242/242/242 245/245/245 244/244/244
f 245/245/245 242/242/242 246/246/246
f 247/247/247 246/246/246 242/242/242
f 248/248/248 245/245/245 246/246/246
f 246/246/246 249/249/249 248/248/248
f 247/247/247 250/250/250 246/246/246
f 246/246/246 250/250/250 251/251/251
f 244/244/244 245/245/245 252/252/252
f 245/245/245 253/253/253 252/252/252
f 254/254/254 253/253/253 245/245/245
f 252/252/252 255/255/255 244/244/244
f 256/256/256 247/247/247 91/91/91
f 257/257/257 256/256/256 250/250/250
f 155/155/155 255/255/255 252/252/252
f 149/149/149 255/255/255 155/155/155
f 255/255/255 149/149/149 258/258/258
f 259/259/259 255/255/255 258/258/258
f 240/240/240 259/259/259 258/258/258
f 258/258/258 260/260/260 240/240/240
f 260/260/260 258/258/258 238/238/238
f 258/258/258 137/137/137 238/238/238
f 258/258/258 149/149/149 137/137/137
f 238/238/238 236/236/236 260/260/260
f 236/236/236 240/240/240 260/260/260
f 137/137/137 135/135/135 238/238/238
f 135/135/135 237/237/237 238/238/238
f 135/135/135 134/134/134 237/237/237
f 134/134/134 108/108/108 237/237/237
f 259/259/259 244/244/244 255/255/255
f 241/241/241 244/244/244 259/259/259
f 240/240/240 241/241/241 259/259/259
f 156/156/156 155/155/155 252/252/252
f 252/252/252 158/158/158 156/156/156
f 253/253/253 158/158/158 252/252/252
f 262/262/262 261/261/261 253/253/253
f 265/265/265 264/264/264 263/263/263
f 264/264/264 266/266/266 263/263/263
f 265/265/265 267/267/267 264/264/264
f 267/267/267 265/265/265 268/268/268
f 269/269/269 267/267/267 268/268/268
f 268/268/268 265/265/265 270/270/270
f 265/265/265 263/263/263 270/270/270
f 271/271/271 268/268/268 270/270/270
f 266/266/266 264/264/264 272/272/272
f 264/264/264 267/267/267 272/272/272
f 273/273/273 266/266/266 272/272/272
f 268/268/268 271/271/271 274/274/274
f 269/269/269 268/268/268 274/274/274
f 271/271/271 275/275/275 274/274/274
f 276/276/276 271/271/271 270/270/270
f 276/276/276 270/270/270 277/277/277
f 270/270/270 278/278/278 277/277/277
f 276/276/276 277/277/277 279/279/279
f 280/280/280 276/276/276 279/279/279
f 281/281/281 271/271/271 276/276/276
f 282/282/282 281/281/281 276/276/276
f 284/284/284 269/269/269 283/283/283
f 286/286/286 269/269/269 285/285/285
f 269/269/269 287/287/287 285/285/285
f 290/290/290 289/289/289 288/288/288
f 289/289/289 291/291/291 288/288/288
f 288/288/288 99/99/99 290/290/290
f 97/97/97 292/292/292 290/290/290
f 292/292/292 293/293/293 290/290/290
f 290/290/290 294/294/294 97/97/97
f 295/295/295 82/82/82 291/291/291
f 82/82/82 296/296/296 291/291/291
f 296/296/296 82/82/82 297/297/297
f 300/300/300 299/299/299 298/298/298
f 303/303/303 302/302/302 301/301/301
f 165/165/165 304/304/304 301/301/301
f 162/162/162 306/306/306 305/305/305
f 263/263/263 307/307/307 270/270/270
