g Blue_war_m_pve_3_hand_r
v -0.705405533 0.0509127825 0.947701395
v -0.716715097 0.0374258459 0.954194486
v -0.657667696 0.0370774344 0.914822221
v -0.703827322 0.0229499675 0.952129245
v -0.687342525 0.0223862231 0.946723402
v -0.716894209 0.044467628 0.998623788
v -0.705699921 0.0592507012 0.99618268
v -0.70356518 0.0532121919 1.03699446
v -0.692665994 0.0689179078 1.03857255
v -0.704283297 0.0292194597 0.998883486
v -0.691444099 0.0375545621 1.03951263
v -0.68613112 0.0288937148 0.997969806
v -0.67197752 0.0374970101 1.04299915
v -0.672273517 0.0432867184 0.996346235
v -0.674730659 0.0358748995 0.940004945
v -0.657667696 0.0370774344 0.914822221
v -0.688888073 0.0502768755 0.942287028
v -0.705405533 0.0509127825 0.947701395
v -0.674730659 0.0358748995 0.940004945
v -0.705699921 0.0592507012 0.99618268
v -0.687574148 0.0591259077 0.995255709
v -0.692665994 0.0689179078 1.03857255
v -0.65378201 0.0740720332 1.06180644
v -0.672273517 0.0432867184 0.996346235
v -0.641181767 0.0580407791 1.06562221
v -0.641181767 0.0580407791 1.06562221
v -0.715660691 0.0222538356 0.949120283
v -0.727029264 0.00610271795 0.957230866
v -0.655366659 0.00813928712 0.904139996
v -0.711995542 -0.00962754246 0.952744424
v -0.690161586 -0.00910068024 0.943770885
v -0.669577301 0.00763098104 0.933184206
v -0.693992913 0.0226754751 0.94017905
v -0.715660691 0.0222538356 0.949120283
v -0.726306736 0.0126901874 1.00149012
v -0.714921534 0.0303669926 0.998089552
v -0.712118506 0.0210063457 1.03961754
v -0.700875819 0.0398175903 1.0409019
v -0.710906327 -0.00372962933 0.999847233
v -0.696609199 0.00425580842 1.04077446
v -0.686992943 -0.00248002517 0.996627569
v -0.671004951 0.00624560704 1.04324257
v -0.665345907 0.0165035818 0.994363546
v -0.632830322 0.0326402187 1.06848669
v -0.675158501 0.0424715318 1.04233003
v -0.691048741 0.03194445 0.994364977
v -0.700875819 0.0398175903 1.0409019
v -0.714921534 0.0303669926 0.998089552
v -0.713787973 -0.0132976957 0.944914997
v -0.722213089 -0.0343511999 0.954272449
v -0.653748631 -0.0318055376 0.907971501
v -0.71224761 -0.0042124032 0.993425548
v -0.721812248 -0.0267692599 0.999519944
v -0.707706451 -0.0179201216 1.0388006
v -0.697390735 0.00619438989 1.03582561
v -0.701821864 -0.0418804735 0.998401642
v -0.688391864 -0.0330292992 1.04237545
v -0.678200662 -0.0360726863 0.993786931
v -0.661031008 -0.0262333825 1.04311168
v -0.663219571 -0.0133700678 0.988952816
v -0.627133965 0.00276413793 1.06345046
v -0.670203865 0.0130657302 1.03690958
v -0.688708484 0.00162124506 0.988989055
v -0.697390735 0.00619438989 1.03582561
v -0.71224761 -0.0042124032 0.993425548
v -0.694301903 -0.00865458976 0.934959233
v -0.713787973 -0.0132976957 0.944914997
v -0.653748631 -0.0318055376 0.907971501
v -0.671034694 -0.0224153083 0.927508056
v -0.671034694 -0.0224153083 0.927508056
v -0.682701111 -0.0438768901 0.938170195
v -0.653748631 -0.0318055376 0.907971501
v -0.702150702 -0.0486210473 0.948168755
v -0.653748631 -0.0318055376 0.907971501
v -0.676421165 -0.0792246982 0.949764788
v -0.634616673 -0.0598832406 0.908408582
v -0.707454979 -0.0734128803 0.957877636
v -0.655825496 -0.0557444319 0.934437513
v -0.681140721 -0.0445985086 0.941353977
v -0.700789034 -0.0514650941 0.950114429
v -0.697706103 -0.0416372046 1.00306106
v -0.674207449 -0.0337230377 0.999353766
v -0.681254268 -0.0303927697 1.04989886
v -0.654280663 -0.0216053426 1.05121887
v -0.647167802 -0.0462426953 0.999812126
v -0.610167205 -0.029607458 1.07817292
v -0.665586233 -0.0735988393 1.00856555
v -0.647904932 -0.0625019446 1.06050766
v -0.705729783 -0.0647845939 1.00895345
v -0.690799117 -0.0538914129 1.05361855
v -0.647904932 -0.0625019446 1.06050766
v -0.700789034 -0.0514650941 0.950114429
v -0.707454979 -0.0734128803 0.957877636
v -0.634616673 -0.0598832406 0.908408582
v -0.705729783 -0.0647845939 1.00895345
v -0.697706103 -0.0416372046 1.00306106
v -0.690799117 -0.0538914129 1.05361855
v -0.681254268 -0.0303927697 1.04989886
v -0.607025564 -0.0988071263 1.08673251
v -0.547046244 -0.0778712258 1.05628622
v -0.623286366 -0.0623144507 1.08243096
v -0.56572181 -0.105768077 1.0726043
v -0.550252378 -0.044675678 1.06335878
v -0.60101217 -0.0413204506 1.07835007
v -0.602308393 -0.0835215002 1.13053417
v -0.56572181 -0.105768077 1.0726043
v -0.607025564 -0.0988071263 1.08673251
v -0.553740799 -0.0813536271 1.12346721
v -0.623286366 -0.0623144507 1.08243096
v -0.624967039 -0.0455852076 1.13253748
v -0.597591043 -0.0682358667 1.17433584
v -0.54175967 -0.0569391586 1.17433023
v -0.534072042 -0.0509875901 1.11291099
v -0.547046244 -0.0778712258 1.05628622
v -0.550252378 -0.044675678 1.06335878
v -0.538078964 -0.0117485374 1.11936462
v -0.596822143 -0.0225234162 1.12210429
v -0.60101217 -0.0413204506 1.07835007
v -0.624967039 -0.0455852076 1.13253748
v -0.623286366 -0.0623144507 1.08243096
v -0.56572181 -0.105768077 1.0726043
v -0.592632174 -0.00372638693 1.16585827
v -0.52590555 0.0211785883 1.17537034
v -0.521097839 -0.0241039786 1.16953552
v -0.626647651 -0.0288559478 1.18264389
v -0.626647651 -0.0288559478 1.18264389
v -0.606867731 -0.0811713189 1.04370224
v -0.593465388 -0.0535430759 1.07631159
v -0.614675879 -0.0628713965 1.08682108
v -0.606867731 -0.0811713189 1.04370224
v -0.592150152 -0.0663256422 1.04093826
v -0.566060603 -0.0736563504 1.03224492
v -0.559495032 -0.0551955178 1.07007086
v -0.547106862 -0.0679696947 1.07346356
v -0.564708412 -0.0816687569 1.03423774
v -0.592514694 -0.105318621 0.996593893
v -0.592514694 -0.105318621 0.996593893
v -0.571747601 -0.0850659907 1.0872426
v -0.547106862 -0.0679696947 1.07346356
v -0.577695191 -0.10643547 1.03962862
v -0.59776175 -0.106169514 1.04867983
v -0.604788899 -0.0823616832 1.09373975
v -0.614675879 -0.0628713965 1.08682108
v -0.606867731 -0.0811713189 1.04370224
v -0.592514694 -0.105318621 0.996593893
v -0.592514694 -0.105318621 0.996593893
v -0.564708412 -0.0816687569 1.03423774
v -0.592514694 -0.105318621 0.996593893
v -0.687641263 0.0901864618 1.10087347
v -0.590935886 0.107405439 1.14136612
v -0.640528858 0.0978870392 1.17419708
v -0.651341856 0.0995394289 1.08548057
v -0.698664069 0.062719956 1.12125421
v -0.645595551 0.0736918598 1.19597852
v -0.62100637 0.0761303529 1.07406235
v -0.547925234 0.0929323733 1.1395756
v -0.529372275 0.0599121526 1.15392518
v -0.610819697 0.0403075144 1.07033885
v -0.678597867 0.0833280087 1.02764201
v -0.715102494 0.0727092773 1.04209101
v -0.731810153 0.0480313972 1.03469682
v -0.737212837 0.0323542021 1.04368329
v -0.707159579 0.0171250235 1.12869501
v -0.658540606 0.0446231924 1.20481288
v -0.639492154 -0.000741538999 1.21644127
v -0.692739546 -0.0239843652 1.13482475
v -0.61545527 -0.0442308448 1.18422484
v -0.651416004 -0.0599332601 1.12464583
v -0.67428863 -0.0797348171 1.05564904
v -0.716613293 -0.0653457791 1.04229677
v -0.63346535 -0.0610690489 1.09829438
v -0.648195326 -0.0696175024 1.0498457
v -0.616431355 -0.0491698124 1.07494271
v -0.530817747 0.00822855532 1.13753569
v -0.601728916 -0.0219305027 1.06835949
v -0.619731784 -0.0283134785 1.03105676
v -0.610819697 0.0403075144 1.07033885
v -0.625824749 0.000978827477 1.02443063
v -0.636370897 0.02977461 1.01869404
v -0.625019908 -0.0579683259 1.03776145
v -0.625019908 -0.0579683259 1.03776145
v -0.529372275 0.0599121526 1.15392518
v -0.579018712 -0.0346010923 1.16650379
v -0.527246892 0.0184740331 1.15161836
v -0.597546041 -0.0362849832 1.20785499
v -0.621582925 0.00720430957 1.24007142
v -0.640631258 0.0525690578 1.22844315
v -0.627686322 0.081637755 1.21960878
v -0.622619629 0.105832905 1.19782746
v -0.573026776 0.115351304 1.16499639
v -0.530016005 0.100878246 1.16320586
v -0.511462986 0.0678580031 1.1775552
v -0.561109483 -0.0266552158 1.19013405
v -0.511437774 0.0224217363 1.17578089
v -0.511462986 0.0678580031 1.1775552
v -0.707600713 0.0647448897 1.04366922
v -0.678597867 0.0833280087 1.02764201
v -0.715102494 0.0727092773 1.04209101
v -0.682862997 0.0737699643 1.03143501
v -0.718281984 0.0447845533 1.03329158
v -0.731810153 0.0480313972 1.03469682
v -0.722916842 0.0289154816 1.04180753
v -0.737212837 0.0323542021 1.04368329
v -0.729284048 0.0127141839 1.03545177
v -0.744191706 0.0141790323 1.03756702
v -0.726094484 -0.00184250355 1.04503465
v -0.740926981 -0.00290662283 1.04773712
v -0.725967526 -0.0229008049 1.03540576
v -0.740678668 -0.0265759025 1.03862119
v -0.712919116 -0.0373774171 1.04986465
v -0.726188183 -0.0430717133 1.05306995
v -0.70478332 -0.0567904785 1.03872561
v -0.651536405 0.0653250739 1.01837242
v -0.665057361 0.0557733439 1.02159226
v -0.636370897 0.02977461 1.01869404
v -0.651519477 0.0226238463 1.02169144
v -0.625824749 0.000978827477 1.02443063
v -0.641320467 -0.00294046407 1.02725101
v -0.631216168 -0.0289810263 1.03123581
v -0.619731784 -0.0283134785 1.03105676
v -0.625019908 -0.0579683259 1.03776145
v -0.638104141 -0.0516387895 1.03760004
v -0.667952418 -0.0426476225 1.03576791
v -0.683643937 -0.0129206227 1.03132832
v -0.690401733 0.0176690314 1.02857172
v -0.691669583 0.0502789542 1.02744186
v -0.656763732 -0.0601331331 1.04968715
v -0.625019908 -0.0579683259 1.03776145
v -0.648195326 -0.0696175024 1.0498457
v -0.672515869 -0.0683611184 1.05756545
v -0.67428863 -0.0797348171 1.05564904
v -0.716613293 -0.0653457791 1.04229677
v -0.726188183 -0.0430717133 1.05306995
v -0.716613293 -0.0653457791 1.04229677
v -0.740926981 -0.00290662283 1.04773712
v -0.744191706 0.0141790323 1.03756702
v -0.740678668 -0.0265759025 1.03862119
v -0.726188183 -0.0430717133 1.05306995
v -0.716613293 -0.0653457791 1.04229677
v -0.651536405 0.0653250739 1.01837242
v -0.636370897 0.02977461 1.01869404
v -0.482170939 0.178461611 1.47173762
v -0.583250582 0.0642489567 1.42287385
v -0.58261764 0.147805303 1.36101222
v -0.512948692 0.0888639465 1.50948787
v -0.572327197 -0.0132409045 1.39904141
v -0.484928757 0.030611299 1.50727785
v -0.652704 0.0554222949 1.31193316
v -0.63557297 0.123332709 1.28014946
v -0.687244713 0.0418318249 1.22477531
v -0.686468661 0.09751416 1.19326353
v -0.57610631 0.143111214 1.2111423
v -0.577893257 0.127677739 1.1331718
v -0.518302262 0.109926566 1.18892598
v -0.623250306 -0.0221176576 1.31675184
v -0.65100801 -0.040919058 1.22173715
v -0.575212359 -0.0711379573 1.26387036
v -0.611016691 -0.0773594752 1.16201961
v -0.580837607 0.118942551 1.12344778
v -0.520288289 0.0990389064 1.14059567
v -0.68583709 0.0906011388 1.1785028
v -0.701254129 0.0383703709 1.21280372
v -0.701254129 0.0383703709 1.21280372
v -0.667882085 -0.0446672589 1.20404077
v -0.667882085 -0.0446672589 1.20404077
v -0.623166323 -0.0865503773 1.13839829
v -0.541372955 -0.0684644952 1.1602844
v -0.543659925 -0.0744969994 1.14761782
v -0.506524801 -0.0386547223 1.13867998
v -0.511174202 -0.0326973237 1.1266346
v -0.493806779 0.0391961262 1.13541329
v -0.502743125 0.0413420871 1.14640582
v -0.502101541 0.0383716375 1.12211132
v -0.591097951 0.0750898868 1.12773323
v -0.520288289 0.0990389064 1.14059567
v -0.651519597 0.0601378717 1.16915059
v -0.488446385 0.0453879051 1.17821252
v -0.492367923 -0.0233560167 1.20304596
v -0.524266481 -0.0611627772 1.21490312
v -0.552369118 0.0606666207 1.14761209
v -0.543147683 0.0254441593 1.13376129
v -0.502101541 0.0383716375 1.12211132
v -0.511741102 -0.0480958037 1.22191405
v -0.504370809 -0.0449156612 1.22462034
v -0.478241444 -0.0336327404 1.23420131
v -0.453729391 -0.0197686721 1.23798752
v -0.424288094 0.0245457981 1.23894536
v -0.415896326 0.0427817702 1.23575866
v -0.406999618 0.056519568 1.23711181
v -0.452787727 -0.0186795276 1.23822081
v -0.434124172 0.000625638932 1.24425173
v -0.542030871 -0.065111503 1.24399722
v -0.566214561 -0.06774351 1.28090715
v -0.523848832 -0.0506341793 1.35710847
v -0.429456204 -0.0115503594 1.4706738
v -0.425366312 -0.022583684 1.39819694
v -0.575212359 -0.0711379573 1.26387036
v -0.566214561 -0.06774351 1.28090715
v -0.370976388 -0.00892991014 1.42019427
v -0.413989335 -0.0249020196 1.3644172
v -0.429456204 -0.0115503594 1.4706738
v -0.344806433 0.0125014056 1.3475616
v -0.370976388 -0.00892991014 1.42019427
v -0.419056118 0.0478789993 1.40768003
v -0.429456204 -0.0115503594 1.4706738
v -0.431497067 0.0444140099 1.42159712
v -0.392742872 0.0686290041 1.38038814
v -0.382831007 0.100459993 1.36083496
v -0.342279583 0.0724949613 1.30374992
v -0.444518983 0.046203997 1.43823588
v -0.484928757 0.030611299 1.50727785
v -0.457406044 0.0633660033 1.44626093
v -0.512948692 0.0888639465 1.50948787
v -0.463303894 0.084092997 1.44546485
v -0.482170939 0.178461611 1.47173762
v -0.457878977 0.123682007 1.42424893
v -0.447578162 0.204613343 1.40760291
v -0.447398871 0.143307984 1.40500498
v -0.439436823 0.157485008 1.39050996
v -0.408528775 0.176859543 1.36227751
v -0.416930944 0.158585981 1.36895394
v -0.396930009 0.139960989 1.35767901
v -0.369479358 0.149105743 1.31695223
v -0.342279583 0.0724949613 1.30374992
v -0.382831007 0.100459993 1.36083496
v -0.396134853 0.13030611 1.2859298
v -0.401407719 0.141756564 1.28689659
v -0.342279583 0.0724949613 1.30374992
v -0.368540496 0.0655877069 1.27552819
v -0.383181214 0.0590443499 1.25326276
v -0.411015928 0.139544964 1.27785194
v -0.406999618 0.056519568 1.23711181
v -0.459474444 0.128390923 1.23223579
v -0.488446385 0.0453879051 1.17821252
v -0.522546768 0.0962708294 1.15042686
v -0.502743125 0.0413420871 1.14640582
v -0.493806779 0.0391961262 1.13541329
v -0.502101541 0.0383716375 1.12211132
v -0.447368115 0.141579732 1.26687121
v -0.504999995 0.140449062 1.23865473
v -0.559055388 0.13799262 1.21048236
v -0.520288289 0.0990389064 1.14059567
v -0.502101541 0.0383716375 1.12211132
v -0.566654146 0.14637205 1.22319031
v -0.581905246 0.141344652 1.2497561
v -0.553789914 0.153376341 1.30872393
v -0.553789914 0.153376341 1.30872393
v -0.466681629 0.193754271 1.38847017
v -0.447578162 0.204613343 1.40760291
v -0.457916826 0.184552118 1.35824287
v -0.457916826 0.184552118 1.35824287
v -0.408528775 0.176859543 1.36227751
v -0.439056933 0.166848958 1.32687438
v -0.412200183 0.148165852 1.29660583
v -0.701254129 0.0383703709 1.21280372
v -0.65645355 0.0250035729 1.18298209
v -0.638911128 -0.0216442253 1.17866373
v -0.623166323 -0.0865503773 1.13839829
v -0.623166323 -0.0865503773 1.13839829
v -0.612439573 -0.0402098708 1.1421715
v -0.569164395 -0.0356003791 1.14848769
v -0.543659925 -0.0744969994 1.14761782
v -0.547142804 -0.0181631651 1.13499856
v -0.502101541 0.0383716375 1.12211132
v -0.502101541 0.0383716375 1.12211132
v -0.543147683 0.0254441593 1.13376129
v -0.379990786 0.0270790718 1.28733194
v -0.342279583 0.0724949613 1.30374992
v -0.368540496 0.0655877069 1.27552819
v -0.387034208 -0.00531773083 1.30773079
v -0.424288094 0.0245457981 1.23894536
v -0.405597359 0.0246905219 1.23115432
v -0.415896326 0.0427817702 1.23575866
v -0.415736556 0.00781139964 1.23652852
v -0.434124172 0.000625638932 1.24425173
v -0.428755879 -0.00966118835 1.24277103
v -0.452787727 -0.0186795276 1.23822081
v -0.446118832 -0.0311779547 1.23647809
v -0.453729391 -0.0197686721 1.23798752
v -0.471511036 -0.0457414575 1.23233104
v -0.478241444 -0.0336327404 1.23420131
v -0.497515976 -0.0574542172 1.22269201
v -0.504370809 -0.0449156612 1.22462034
v -0.511741102 -0.0480958037 1.22191405
v -0.519745529 -0.0670043454 1.2142303
v -0.524266481 -0.0611627772 1.21490312
v -0.388216078 0.0165070705 1.25158703
v -0.383181214 0.0590443499 1.25326276
v -0.36696887 0.0109789092 1.27793252
v -0.368540496 0.0655877069 1.27552819
v -0.379990786 0.0270790718 1.28733194
v -0.387034208 -0.00531773083 1.30773079
v -0.38767153 -0.0203416012 1.31070006
v -0.406606317 -0.0430680364 1.35654604
v -0.413989335 -0.0249020196 1.3644172
v -0.422276795 -0.0535967015 1.39374328
v -0.425366312 -0.022583684 1.39819694
v -0.428786695 -0.0574361943 1.42886782
v -0.406999618 0.056519568 1.23711181
v -0.406950712 -0.0121930074 1.26156127
v -0.425484717 -0.0300925002 1.26896775
v -0.438084662 -0.0526244864 1.31614709
v -0.448827058 -0.0525409356 1.2737968
v -0.48172909 -0.0657354742 1.27905977
v -0.496940792 -0.0756121427 1.332219
v -0.521878898 -0.0794313699 1.28515577
v -0.557252049 -0.0897060111 1.35257792
v -0.558858216 -0.0841007084 1.28704691
v -0.587992787 -0.0942893028 1.35734737
v -0.598882496 -0.0800114498 1.36019468
v -0.566214561 -0.06774351 1.28090715
v -0.564816952 -0.092913419 1.4452008
v -0.603787661 -0.101535201 1.45638525
v -0.610048473 -0.0898135677 1.45707607
v -0.610048473 -0.0898135677 1.45707607
v -0.606824756 -0.0932084993 1.5474869
v -0.46417591 -0.0658210814 1.38730514
v -0.428569436 -0.0541955307 1.36909771
v -0.444916338 -0.0617454313 1.4184376
v -0.477396488 -0.0724421293 1.44925606
v -0.449609488 -0.0631234795 1.45273888
v -0.467128396 -0.0671572611 1.461483
v -0.454423159 -0.0483195521 1.45649719
v -0.470384061 -0.0545512252 1.46421015
v -0.485698193 -0.0720632747 1.49713802
v -0.487925828 -0.0614879504 1.50074029
v -0.502535641 -0.0765444711 1.50896013
v -0.433827609 -0.0357750468 1.43088388
v -0.425366312 -0.022583684 1.39819694
v -0.521380723 -0.0836123377 1.49051642
v -0.508541763 -0.0784942359 1.41232264
v -0.567562878 -0.0972533599 1.53180277
v -0.524036467 -0.0821199566 1.55082893
v -0.504452825 -0.0670143887 1.51250517
v -0.525731504 -0.0728135407 1.55421114
v -0.487925828 -0.0614879504 1.50074029
v -0.543723345 -0.0877609998 1.563905
v -0.525731504 -0.0728135407 1.55421114
v -0.545251071 -0.0785679966 1.56722748
v -0.567789018 -0.0957340971 1.60244179
v -0.545251071 -0.0785679966 1.56722748
v -0.569918811 -0.0858674198 1.60589385
v -0.601257145 -0.103338085 1.54615235
v -0.589222074 -0.102609552 1.61339474
v -0.593654573 -0.093697764 1.61937726
v -0.606824756 -0.0932084993 1.5474869
v -0.589222074 -0.102609552 1.61339474
v -0.569918811 -0.0858674198 1.60589385
v -0.593654573 -0.093697764 1.61937726
v -0.566214561 -0.06774351 1.28090715
v -0.523848832 -0.0506341793 1.35710847
v -0.598882496 -0.0800114498 1.36019468
v -0.610048473 -0.0898135677 1.45707607
v -0.433827609 -0.0357750468 1.43088388
v -0.470384061 -0.0545512252 1.46421015
v -0.454423159 -0.0483195521 1.45649719
v -0.504452825 -0.0670143887 1.51250517
v -0.487925828 -0.0614879504 1.50074029
v -0.540437996 -0.0752867609 1.49541771
v -0.566812873 -0.0835253149 1.56121683
v -0.545251071 -0.0785679966 1.56722748
v -0.525731504 -0.0728135407 1.55421114
v -0.58763355 -0.0887106881 1.55444443
v -0.576100171 -0.0829728842 1.4769429
v -0.593654573 -0.093697764 1.61937726
v -0.569918811 -0.0858674198 1.60589385
v -0.606824756 -0.0932084993 1.5474869
v -0.610048473 -0.0898135677 1.45707607
v -0.425366312 -0.022583684 1.39819694
v -0.519745529 -0.0670043454 1.2142303
v -0.542030871 -0.065111503 1.24399722
v -0.524266481 -0.0611627772 1.21490312
v -0.466681629 0.193754271 1.38847017
v -0.478607059 0.218806684 1.41912901
v -0.472652525 0.212924495 1.38425875
v -0.472410619 0.203592107 1.42210197
v -0.457916826 0.184552118 1.35824287
v -0.513409436 0.216260985 1.43344271
v -0.492096215 0.204243466 1.36583734
v -0.456245303 0.201438397 1.34915209
v -0.470267236 0.189032391 1.31560481
v -0.435758471 0.180792004 1.31426787
v -0.457916826 0.184552118 1.35824287
v -0.439056933 0.166848958 1.32687438
v -0.412803382 0.158490807 1.28651285
v -0.472652525 0.212924495 1.38425875
v -0.532704771 0.201173738 1.38520265
v -0.540557444 0.213274494 1.45434749
v -0.518514514 0.220681027 1.47979856
v -0.530903637 0.219542339 1.48877633
v -0.516714454 0.213077471 1.485111
v -0.528970361 0.211779475 1.49397218
v -0.540363729 0.214775845 1.53192365
v -0.542534649 0.223142803 1.52686703
v -0.554827988 0.222509116 1.53615654
v -0.552559674 0.214299202 1.54112101
v -0.565587997 0.225687444 1.56716788
v -0.578362823 0.215750352 1.51288474
v -0.559964299 0.215662494 1.49005282
v -0.594240189 0.192991525 1.41960371
v -0.564085782 0.198658362 1.40824103
v -0.549459517 0.183377296 1.32560956
v -0.52300781 0.187233269 1.32414293
v -0.530628681 0.172079116 1.27872932
v -0.573262453 0.168859988 1.27496874
v -0.600634813 0.174649239 1.3347522
v -0.616086066 0.169209063 1.3278749
v -0.615491569 0.188398048 1.4246918
v -0.616494715 0.15492104 1.33087838
v -0.615626037 0.173947528 1.42777979
v -0.599497676 0.147100955 1.27980471
v -0.59606111 0.158868238 1.27356875
v -0.599497676 0.147100955 1.27980471
v -0.518039167 0.154033855 1.23222709
v -0.504848897 0.176906377 1.28328753
v -0.44674778 0.154875949 1.26218808
v -0.452096552 0.17275627 1.2829951
v -0.59877634 0.195889279 1.51177776
v -0.599014461 0.209387049 1.50833344
v -0.579195976 0.226136312 1.57670224
v -0.577276528 0.21664466 1.58202207
v -0.396848321 0.14015916 1.2816174
v -0.504999995 0.140449062 1.23865473
v -0.559638202 0.147402421 1.21092963
v -0.559055388 0.13799262 1.21048236
v -0.447368115 0.141579732 1.26687121
v -0.411015928 0.139544964 1.27785194
v -0.412200183 0.148165852 1.29660583
v -0.439056933 0.166848958 1.32687438
v -0.401407719 0.141756564 1.28689659
v -0.396134853 0.13030611 1.2859298
v -0.396134853 0.13030611 1.2859298
v -0.563425839 0.21661441 1.57226157
v -0.579195976 0.226136312 1.57670224
v -0.577276528 0.21664466 1.58202207
v -0.566654146 0.14637205 1.22319031
v -0.581905246 0.141344652 1.2497561
v -0.566654146 0.14637205 1.22319031
v -0.559055388 0.13799262 1.21048236
v -0.466681629 0.193754271 1.38847017
v -0.542446852 0.180387527 1.38130069
v -0.472410619 0.203592107 1.42210197
v -0.553789914 0.153376341 1.30872393
v -0.505702376 0.208543167 1.45146346
v -0.528970361 0.211779475 1.49397218
v -0.570524633 0.192671925 1.46133876
v -0.516714454 0.213077471 1.485111
v -0.615626037 0.173947528 1.42777979
v -0.616494715 0.15492104 1.33087838
v -0.575158179 0.204590112 1.52644145
v -0.552559674 0.214299202 1.54112101
v -0.563425839 0.21661441 1.57226157
v -0.540363729 0.214775845 1.53192365
v -0.577276528 0.21664466 1.58202207
v -0.59877634 0.195889279 1.51177776
v -0.49113819 0.209666133 1.44519615
v -0.599497676 0.147100955 1.27980471
v -0.581905246 0.141344652 1.2497561
v -0.505702376 0.208543167 1.45146346
v -0.507428944 0.217246965 1.44695282
v -0.49113819 0.209666133 1.44519615
v -0.493126541 0.219733194 1.44003868
v -0.452787727 -0.0186795276 1.23822081
v -0.492367923 -0.0233560167 1.20304596
v -0.453729391 -0.0197686721 1.23798752
vt 0.948919475 0.132944331
vt 0.949537456 0.10492903
vt 0.997622073 0.0758055821
vt 0.949468255 0.0766282529
vt 0.949020803 0.0489845648
vt 0.920792162 0.105085909
vt 0.920343816 0.133296371
vt 0.892430663 0.105101176
vt 0.892217994 0.132630214
vt 0.920888245 0.0766548589
vt 0.887528479 0.0778017864
vt 0.920636535 0.0487229489
vt 0.890297413 0.0493107252
vt 0.919911981 0.0205485057
vt 0.948286414 0.0212366115
vt 0.997622073 0.0758055821
vt 0.948334873 0.0766404197
vt 0.948919475 0.132944331
vt 0.948286414 0.0212366115
vt 0.920343816 0.133296371
vt 0.919932067 0.0766684562
vt 0.892217994 0.132630214
vt 0.873228788 0.0691672862
vt 0.919911981 0.0205485057
vt 0.870492697 0.0198274739
vt 0.870492697 0.0198274739
vt 0.815078378 0.144234374
vt 0.815697253 0.116209894
vt 0.863795698 0.0870804861
vt 0.815630019 0.087903522
vt 0.815199256 0.0602585152
vt 0.814441919 0.0324843191
vt 0.814505398 0.0879172385
vt 0.815078378 0.144234374
vt 0.786966681 0.116361052
vt 0.786518693 0.14457117
vt 0.758604467 0.116364151
vt 0.758388758 0.14400056
vt 0.787063539 0.0879300013
vt 0.753700554 0.0890684575
vt 0.786811829 0.0599979721
vt 0.756464005 0.0605239533
vt 0.786087275 0.0318238884
vt 0.736651063 0.0309574343
vt 0.753087461 0.0873442516
vt 0.786106944 0.087943241
vt 0.758388758 0.14400056
vt 0.786518693 0.14457117
vt 0.937173963 0.259076506
vt 0.923266947 0.257791698
vt 0.908817708 0.161036208
vt 0.937360108 0.316690207
vt 0.923354566 0.315789133
vt 0.92296046 0.373060882
vt 0.937102735 0.373353422
vt 0.90923965 0.315594316
vt 0.909796894 0.382817626
vt 0.895372391 0.316099524
vt 0.895624578 0.377248704
vt 0.881385028 0.317557961
vt 0.880966485 0.417143971
vt 0.908919752 0.384037584
vt 0.909246445 0.317517728
vt 0.937102735 0.373353422
vt 0.937360108 0.316690207
vt 0.909231067 0.260314345
vt 0.937173963 0.259076506
vt 0.908817708 0.161036208
vt 0.881733537 0.260340363
vt 0.881733537 0.260340363
vt 0.895535409 0.258575588
vt 0.908817708 0.161036208
vt 0.909226656 0.257825822
vt 0.908817708 0.161036208
vt 0.958185375 0.255672127
vt 0.971361935 0.158494577
vt 0.98594445 0.254632086
vt 0.944399118 0.257299691
vt 0.971914649 0.257136613
vt 0.99985981 0.255904168
vt 0.999995887 0.313493133
vt 0.971882284 0.314322263
vt 0.998888135 0.370197743
vt 0.971241236 0.380868316
vt 0.944020867 0.314363182
vt 0.94359684 0.413968891
vt 0.957824528 0.31290704
vt 0.957098067 0.374007851
vt 0.985990584 0.312591136
vt 0.986186981 0.369672954
vt 0.958438039 0.373645335
vt 0.99985981 0.255904168
vt 0.98594445 0.254632086
vt 0.971361935 0.158494577
vt 0.985990584 0.312591136
vt 0.999995887 0.313493133
vt 0.986186981 0.369672954
vt 0.998888135 0.370197743
vt 0.665545344 0.983318388
vt 0.695150495 0.874167919
vt 0.634170651 0.951084733
vt 0.697729707 0.939863324
vt 0.67167145 0.836955905
vt 0.635879159 0.896688521
vt 0.729070306 0.310660064
vt 0.7516343 0.239940524
vt 0.727482021 0.256439924
vt 0.757429063 0.306135714
vt 0.704819381 0.266133547
vt 0.704913974 0.327595055
vt 0.730643749 0.364899993
vt 0.763333738 0.37229991
vt 0.779266596 0.307344794
vt 0.773005307 0.233804941
vt 0.790838778 0.250784755
vt 0.800650299 0.325248688
vt 0.831144214 0.292319536
vt 0.821025431 0.240480214
vt 0.851084471 0.27395767
vt 0.835886776 0.220515937
vt 0.7516343 0.239940524
vt 0.84135735 0.344096214
vt 0.810355425 0.399777889
vt 0.785526633 0.380884528
vt 0.866334319 0.327340215
vt 0.704616129 0.389067948
vt 0.628445268 0.483815193
vt 0.611912608 0.382873565
vt 0.585989177 0.411464959
vt 0.628445268 0.483815193
vt 0.641601741 0.44440642
vt 0.672096252 0.425868332
vt 0.646866679 0.342314065
vt 0.665153503 0.322571307
vt 0.680795908 0.424592078
vt 0.684149623 0.54935652
vt 0.684149623 0.54935652
vt 0.944200754 0.968927205
vt 0.979227781 0.943338931
vt 0.932938218 0.861792743
vt 0.914619148 0.880894661
vt 0.907349348 0.986033499
vt 0.882071078 0.984563172
vt 0.887883425 0.879583955
vt 0.918254435 0.772757888
vt 0.918254435 0.772757888
vt 0.960884869 0.849956453
vt 0.918254435 0.772757888
vt 0.737897098 0.81223011
vt 0.792239547 0.881065965
vt 0.791090488 0.805932164
vt 0.742722213 0.859851897
vt 0.741471946 0.770657361
vt 0.797788322 0.766750157
vt 0.743896365 0.909033179
vt 0.804193854 0.931455612
vt 0.810969234 0.979132414
vt 0.739910126 0.954702199
vt 0.702527106 0.866564989
vt 0.697154224 0.81611383
vt 0.68461144 0.7853266
vt 0.685637534 0.760238707
vt 0.73707968 0.715718567
vt 0.794513345 0.726536751
vt 0.800665438 0.665494204
vt 0.739660501 0.663449228
vt 0.786445737 0.598476827
vt 0.742729783 0.595937908
vt 0.69733882 0.57916671
vt 0.679272294 0.624704421
vt 0.734591603 0.560263038
vt 0.703944027 0.547156215
vt 0.729584932 0.522963285
vt 0.797642112 0.464788705
vt 0.735210001 0.48472482
vt 0.709324837 0.479982883
vt 0.739637136 0.406353563
vt 0.707148552 0.444133431
vt 0.704491377 0.40616101
vt 0.706018031 0.514018536
vt 0.706018031 0.514018536
vt 0.812092304 0.407359838
vt 0.790685654 0.548284292
vt 0.807281554 0.459615499
vt 0.805214763 0.596873581
vt 0.819375217 0.665835917
vt 0.813187718 0.728618026
vt 0.816482067 0.76993686
vt 0.809882998 0.808793247
vt 0.811119139 0.882471263
vt 0.822844207 0.932997942
vt 0.829791665 0.981129408
vt 0.809549272 0.544898868
vt 0.824916184 0.461401731
vt 0.830997586 0.406050891
vt 0.856104672 0.716185331
vt 0.878935277 0.751339495
vt 0.850199401 0.73125124
vt 0.875578046 0.733257949
vt 0.847696483 0.678424716
vt 0.83704716 0.684567392
vt 0.844047904 0.648404837
vt 0.832794309 0.654910028
vt 0.83903569 0.617756069
vt 0.827300549 0.620527387
vt 0.841546535 0.590218723
vt 0.829870522 0.588205338
vt 0.841646433 0.550381184
vt 0.830065966 0.543429136
vt 0.851918101 0.522995293
vt 0.841472685 0.512223005
vt 0.858322322 0.486270666
vt 0.900237918 0.717282951
vt 0.889594316 0.699213028
vt 0.912175953 0.650030196
vt 0.900251269 0.636502624
vt 0.920477867 0.595555604
vt 0.908279657 0.588141263
vt 0.916233599 0.538878858
vt 0.925274193 0.540142119
vt 0.921111405 0.484042674
vt 0.910811543 0.496016562
vt 0.887315333 0.513025641
vt 0.874963224 0.569261491
vt 0.869643509 0.627129376
vt 0.86864543 0.688818872
vt 0.896122873 0.47994709
vt 0.921111405 0.484042674
vt 0.902867854 0.462005258
vt 0.88372308 0.464382023
vt 0.882327497 0.442865461
vt 0.84901005 0.470086098
vt 0.841472685 0.512223005
vt 0.84901005 0.470086098
vt 0.682174087 0.712680936
vt 0.677954733 0.738009095
vt 0.674603403 0.683625877
vt 0.684594035 0.656573296
vt 0.679272294 0.624704421
vt 0.703959942 0.907970726
vt 0.7044245 0.955134332
vt 0.31887114 0.636488736
vt 0.241064727 0.507749319
vt 0.218589604 0.643458664
vt 0.315703034 0.517679989
vt 0.223489076 0.4022322
vt 0.32031101 0.446674734
vt 0.156212211 0.530878961
vt 0.153935969 0.635103106
vt 0.0934491679 0.543648124
vt 0.0847373679 0.624976814
vt 0.134433448 0.755281031
vt 0.0869573131 0.794992745
vt 0.137891024 0.853111506
vt 0.158479929 0.417236805
vt 0.0883150324 0.420311332
vt 0.133125454 0.308183819
vt 0.0582811497 0.331439644
vt 0.081415236 0.790256023
vt 0.0993272513 0.869165957
vt 0.0771310776 0.628849804
vt 0.0815501213 0.548896551
vt 0.0815501213 0.548896551
vt 0.0686938241 0.435793281
vt 0.0686938241 0.435793281
vt 0.0440139435 0.338871717
vt 0.0629968643 0.237440869
vt 0.0518880077 0.24268268
vt 0.050038144 0.175514966
vt 0.0412969626 0.173905879
vt 0.0317714475 0.0730234459
vt 0.0453450754 0.0655989796
vt 0.0188165195 0.0879105553
vt 0.0543285161 0.783375204
vt 0.0993272513 0.869165957
vt 0.0500775762 0.63970989
vt 0.071620062 0.051906988
vt 0.0941699818 0.146492213
vt 0.101319149 0.21900098
vt 0.0629988834 0.868175566
vt 0.0536863282 0.922700763
vt 0.0827138871 0.952306867
vt 0.105437741 0.195376411
vt 0.107599303 0.186982661
vt 0.120002128 0.153357044
vt 0.127943397 0.120153032
vt 0.135414943 0.0505318493
vt 0.135050341 0.0222346541
vt 0.13779074 5.03567571E-06
vt 0.128226161 0.121242099
vt 0.136988923 0.087154448
vt 0.123189032 0.255825758
vt 0.148268014 0.30219388
vt 0.219945073 0.299349606
vt 0.326597333 0.353554696
vt 0.30381605 0.260926336
vt 0.133125454 0.308183819
vt 0.148268014 0.30219388
vt 0.345838457 0.271272033
vt 0.313834935 0.199004844
vt 0.326597333 0.353554696
vt 0.371566981 0.18680121
vt 0.345838457 0.271272033
vt 0.386796474 0.332111508
vt 0.326597333 0.353554696
vt 0.378272593 0.371151775
vt 0.405864179 0.273988336
vt 0.429983646 0.244508401
vt 0.415027082 0.139288902
vt 0.371120721 0.415574998
vt 0.32031101 0.446674734
vt 0.369405687 0.473462313
vt 0.315703034 0.517679989
vt 0.367865503 0.536845446
vt 0.31887114 0.636488736
vt 0.365586191 0.642150998
vt 0.313580036 0.724193335
vt 0.355108291 0.718355775
vt 0.33871159 0.763860822
vt 0.305882692 0.809976876
vt 0.321903259 0.816232145
vt 0.315317035 0.866869032
vt 0.283516556 0.885959089
vt 0.277200431 0.996554792
vt 0.320420444 0.93010515
vt 0.251644909 0.894279242
vt 0.254832983 0.875335217
vt 0.277200431 0.996554792
vt 0.248725072 0.993264496
vt 0.228538185 0.99565661
vt 0.239287198 0.874469817
vt 0.205959141 0.986152887
vt 0.191667393 0.866179347
vt 0.134287775 0.953674614
vt 0.108087398 0.871841669
vt 0.107646413 0.953328311
vt 0.0956540331 0.959786832
vt 0.0827138871 0.952306867
vt 0.216543853 0.844407558
vt 0.175409004 0.809270859
vt 0.137293532 0.777864635
vt 0.0993272513 0.869165957
vt 0.0827138871 0.952306867
vt 0.144554913 0.760874212
vt 0.155711949 0.724977851
vt 0.204243422 0.720779002
vt 0.204243422 0.720779002
vt 0.293537021 0.726494133
vt 0.313580036 0.724193335
vt 0.282809585 0.758019388
vt 0.282809585 0.758019388
vt 0.305882692 0.809976876
vt 0.272065431 0.803386748
vt 0.260262519 0.855663061
vt 0.0815501213 0.548896551
vt 0.0449850783 0.546559215
vt 0.0371016935 0.445861816
vt 0.0440139435 0.338871717
vt 0.0440139435 0.338871717
vt 0.0199405327 0.349464387
vt 0.0197433718 0.257957518
vt 0.0518880077 0.24268268
vt 0.0176013373 0.199479163
vt 0.0188165195 0.0879105553
vt 0.0188165195 0.0879105553
vt 0.000199394664 0.14274627
vt 0.374946982 0.0906985328
vt 0.415027082 0.139288902
vt 0.406056643 0.0828930289
vt 0.3467592 0.118750215
vt 0.527456224 0.472436011
vt 0.536521256 0.488905728
vt 0.54105252 0.464261293
vt 0.524572134 0.496124417
vt 0.512584269 0.488787949
vt 0.510352492 0.503871918
vt 0.495176971 0.484710872
vt 0.492038906 0.50122577
vt 0.493843704 0.484541327
vt 0.473502666 0.493413359
vt 0.476200193 0.475849956
vt 0.45524931 0.479389995
vt 0.458313942 0.461848378
vt 0.453283131 0.457733691
vt 0.439988136 0.466992348
vt 0.440834671 0.45756647
vt 0.540746629 0.521323621
vt 0.565875709 0.49860698
vt 0.547195792 0.560520351
vt 0.577922106 0.530272424
vt 0.558606207 0.57487005
vt 0.535880029 0.6039415
vt 0.525758266 0.605342269
vt 0.505785167 0.66237402
vt 0.51583451 0.680538535
vt 0.492392957 0.708369315
vt 0.510695755 0.726843894
vt 0.484332055 0.750491977
vt 0.553186774 0.465851992
vt 0.519492745 0.537507474
vt 0.503185928 0.545590997
vt 0.487249494 0.607465982
vt 0.482780427 0.55229193
vt 0.460147738 0.554941416
vt 0.446115613 0.621486545
vt 0.432966948 0.55833894
vt 0.405565441 0.640422344
vt 0.409208655 0.556334436
vt 0.385605603 0.642769337
vt 0.374214441 0.639306664
vt 0.400949508 0.538640678
vt 0.395059645 0.758344948
vt 0.368939996 0.767578721
vt 0.360540539 0.76524514
vt 0.360540539 0.76524514
vt 0.357079297 0.883580744
vt 0.464837581 0.695628941
vt 0.48945874 0.6759758
vt 0.475417286 0.737092733
vt 0.452493757 0.77441287
vt 0.470803201 0.779524207
vt 0.459850281 0.792614281
vt 0.476176798 0.796387553
vt 0.465126574 0.807302773
vt 0.444054157 0.834468007
vt 0.447715551 0.846526265
vt 0.432667673 0.848918974
vt 0.495408952 0.766122699
vt 0.510695755 0.726843894
vt 0.420916885 0.822109282
vt 0.434063673 0.722975969
vt 0.387501091 0.869057894
vt 0.41526404 0.899076998
vt 0.436306655 0.860527992
vt 0.418522865 0.90970093
vt 0.447715551 0.846526265
vt 0.401704788 0.914259374
vt 0.418522865 0.90970093
vt 0.405100137 0.925491512
vt 0.382493675 0.959345996
vt 0.405100137 0.925491512
vt 0.385537356 0.971120179
vt 0.364578903 0.882772028
vt 0.367904574 0.97068578
vt 0.361655056 0.97817409
vt 0.357079297 0.883580744
vt 0.367904574 0.97068578
vt 0.385537356 0.971120179
vt 0.36834234 0.985970736
vt 0.751633942 0.155908108
vt 0.687799037 0.134499475
vt 0.707198501 0.246133834
vt 0.645258427 0.317482561
vt 0.612759709 0.0521035939
vt 0.600674689 0.125813454
vt 0.6013273 0.0982900113
vt 0.578073561 0.20176968
vt 0.581242025 0.171606794
vt 0.599776328 0.24237287
vt 0.563014746 0.316401362
vt 0.55285573 0.289707541
vt 0.556035042 0.254861146
vt 0.573494732 0.341767192
vt 0.622316301 0.281603664
vt 0.531614661 0.387500644
vt 0.533863187 0.346089453
vt 0.583626449 0.364653081
vt 0.645258427 0.317482561
vt 0.632559717 0.0169184096
vt 0.439988136 0.466992348
vt 0.421110034 0.497067928
vt 0.435441405 0.463425249
vt 0.519712389 0.754131138
vt 0.535986483 0.713876069
vt 0.532714546 0.758957088
vt 0.526106715 0.708217919
vt 0.512730956 0.7948699
vt 0.556921542 0.692145765
vt 0.545765042 0.782639146
vt 0.523512661 0.807025075
vt 0.533345044 0.851414621
vt 0.510961294 0.859429777
vt 0.512730956 0.7948699
vt 0.501529157 0.843462288
vt 0.496608764 0.905827343
vt 0.532714546 0.758957088
vt 0.571669519 0.756925225
vt 0.575069189 0.665746808
vt 0.56160295 0.632661343
vt 0.56906414 0.619914174
vt 0.558205247 0.623282909
vt 0.565033793 0.610075831
vt 0.573245525 0.561621487
vt 0.577285051 0.570817292
vt 0.584927678 0.558067143
vt 0.580586731 0.547828555
vt 0.593141854 0.519007742
vt 0.59986043 0.590636373
vt 0.587755144 0.619362116
vt 0.61166513 0.71381104
vt 0.591864169 0.727391303
vt 0.583904862 0.836544573
vt 0.566910028 0.838410318
vt 0.573012352 0.899852514
vt 0.600302935 0.903027058
vt 0.617092431 0.825413287
vt 0.627195656 0.835005641
vt 0.625682294 0.708329737
vt 0.636230648 0.837211072
vt 0.635081947 0.706498384
vt 0.624588788 0.906626046
vt 0.615796566 0.906668484
vt 0.624588788 0.906626046
vt 0.566740811 0.965155244
vt 0.556522071 0.893755376
vt 0.519597828 0.934246838
vt 0.522987068 0.89909482
vt 0.622076035 0.593234539
vt 0.613506675 0.598162115
vt 0.60112977 0.508843124
vt 0.602750719 0.498589426
vt 0.484190196 0.925189734
vt 0.555439889 0.977007151
vt 0.593872368 0.989678502
vt 0.594401836 0.999814749
vt 0.515874207 0.950725794
vt 0.492723823 0.933545828
vt 0.488854349 0.896136343
vt 0.501529157 0.843462288
vt 0.484859347 0.915839076
vt 0.477392524 0.922331274
vt 0.48042354 0.936900795
vt 0.589899063 0.507810652
vt 0.60112977 0.508843124
vt 0.602750719 0.498589426
vt 0.600176573 0.977961957
vt 0.614284515 0.948416114
vt 0.600176573 0.977961957
vt 0.594401836 0.999814749
vt 0.547732294 0.28108269
vt 0.506817341 0.206734598
vt 0.530397654 0.318080127
vt 0.530750513 0.10538999
vt 0.498905569 0.326336801
vt 0.467698634 0.356228888
vt 0.457171142 0.278462201
vt 0.47849372 0.356784791
vt 0.445035875 0.197055042
vt 0.484995216 0.080561012
vt 0.427218765 0.352147222
vt 0.434241891 0.390733838
vt 0.414822131 0.417578697
vt 0.445096463 0.390487969
vt 0.40275389 0.417279869
vt 0.419691175 0.313198119
vt 0.509876966 0.331508458
vt 0.515688777 0.033639472
vt 0.531371355 0.0174862649
vt 0.547825158 0.663779795
vt 0.552229702 0.674060822
vt 0.539225459 0.67567277
vt 0.54373306 0.686381459
vt 0.128226161 0.121242099
vt 0.0941699818 0.146492213
vt 0.127943397 0.120153032
vn -0.508467734 0.680686414 -0.527377009
vn -0.931913912 -0.0942111388 -0.350229591
vn 0.725373328 0.00943494402 -0.688291073
vn -0.46051389 -0.833366275 -0.305659413
vn 0.242571726 -0.953241289 -0.180249766
vn -0.987408996 -0.0185348857 0.157098129
vn -0.487361729 0.868868053 -0.0868721604
vn -0.956128836 0.0665990114 0.28527537
vn -0.296571076 0.947065413 -0.122933798
vn -0.450735569 -0.86587131 0.217035592
vn -0.369211435 -0.882741272 0.290604353
vn 0.355039328 -0.930036247 0.0947603136
vn 0.447211266 -0.894385517 -0.00875320472
vn 0.971289754 -0.0671639293 -0.228222162
vn 0.928655565 0.0382128991 0.368969709
vn 0.725373328 0.00943494402 -0.688291073
vn 0.232797414 0.926039636 -0.297078967
vn -0.508467734 0.680686414 -0.527377009
vn 0.928655565 0.0382128991 0.368969709
vn -0.487361729 0.868868053 -0.0868721604
vn 0.332983792 0.90653497 -0.259453267
vn -0.296571076 0.947065413 -0.122933798
vn 0.613743484 0.664792776 -0.425874949
vn 0.971289754 -0.0671639293 -0.228222162
vn 0.894848049 0.125538364 -0.428354025
vn 0.894848049 0.125538364 -0.428354025
vn -0.576319814 0.643132389 -0.50421834
vn -0.940829396 -0.136811689 -0.310036361
vn 0.673028231 0.0223300587 -0.739279687
vn -0.442609847 -0.840554595 -0.312353075
vn 0.202832848 -0.96119684 -0.186974585
vn 0.959039032 0.0735493228 0.273559034
vn 0.0666791722 0.935961902 -0.345729977
vn -0.576319814 0.643132389 -0.50421834
vn -0.976877928 -0.0846648067 0.196319833
vn -0.552992284 0.831384301 -0.0547683574
vn -0.945645571 -0.0181087311 0.324694455
vn -0.425898731 0.902859628 -0.0587762743
vn -0.37626639 -0.901047111 0.21572572
vn -0.279327482 -0.920371771 0.2736637
vn 0.358383089 -0.930073678 0.0807742178
vn 0.462723374 -0.886430085 -0.0113412673
vn 0.969480097 0.0546300597 -0.239005804
vn 0.895773232 0.137182534 -0.422813535
vn 0.268390924 0.911467373 -0.311758786
vn 0.188682988 0.957423627 -0.218491703
vn -0.425898731 0.902859628 -0.0587762743
vn -0.552992284 0.831384301 -0.0547683574
vn -0.705384135 0.482713193 -0.519057989
vn -0.898712814 -0.321498305 -0.298251808
vn 0.756786942 -0.102445401 -0.645583868
vn -0.682505012 0.73040539 -0.0263604522
vn -0.949196756 -0.230046034 0.214719459
vn -0.916162074 -0.202573359 0.345848262
vn -0.564743161 0.825262606 0.00261688349
vn -0.211198375 -0.955825031 0.204435319
vn -0.12150947 -0.966545939 0.225885913
vn 0.560286999 -0.8280496 0.0203037001
vn 0.591755807 -0.800781965 -0.0925923958
vn 0.939157367 0.180107757 -0.29248026
vn 0.886090934 0.103908807 -0.451714277
vn 0.237298608 0.915861368 -0.323863178
vn 0.0889732093 0.970339358 -0.224778384
vn -0.564743161 0.825262606 0.00261688349
vn -0.682505012 0.73040539 -0.0263604522
vn -0.137115568 0.774834573 -0.617114782
vn -0.705384135 0.482713193 -0.519057989
vn 0.756786942 -0.102445401 -0.645583868
vn 0.847362041 0.488833427 0.207411066
vn 0.847362041 0.488833427 0.207411066
vn 0.484138131 -0.873410463 -0.0525785163
vn 0.756786942 -0.102445401 -0.645583868
vn -0.276185095 -0.908389091 -0.313928276
vn 0.756786942 -0.102445401 -0.645583868
vn 0.168785661 -0.955078244 -0.243591487
vn 0.755428553 0.004579945 -0.655215025
vn -0.803279817 -0.528667271 -0.274321645
vn 0.848417878 0.40665704 0.338846833
vn -0.19394742 0.823770404 -0.532716453
vn -0.741879404 0.450697631 -0.496474147
vn -0.722521126 0.69134742 -0.00143535016
vn 0.00969689805 0.979468942 -0.201361507
vn -0.604672313 0.795938313 0.029218141
vn 0.172954574 0.939919531 -0.294343323
vn 0.91731298 0.213712707 -0.335952252
vn 0.915507078 0.0519992933 -0.398927182
vn 0.319541216 -0.945574999 0.0614924543
vn 0.420620322 -0.905838966 0.0503426082
vn -0.863215923 -0.440848112 0.245990396
vn -0.801502764 -0.464216083 0.376957089
vn 0.420620322 -0.905838966 0.0503426082
vn -0.741879404 0.450697631 -0.496474147
vn -0.803279817 -0.528667271 -0.274321645
vn 0.755428553 0.004579945 -0.655215025
vn -0.863215923 -0.440848112 0.245990396
vn -0.722521126 0.69134742 -0.00143535016
vn -0.801502764 -0.464216083 0.376957089
vn -0.604672313 0.795938313 0.029218141
vn -0.578092039 -0.77516526 -0.25481084
vn 0.52723074 -0.274981886 -0.803997993
vn -0.865743339 0.026331136 -0.499795139
vn 0.198934957 -0.892330706 -0.405180007
vn 0.376890659 0.505897403 -0.775900245
vn -0.392097503 0.625451803 -0.674588382
vn -0.459663391 -0.824554145 0.329879045
vn 0.198934957 -0.892330706 -0.405180007
vn -0.578092039 -0.77516526 -0.25481084
vn 0.539708614 -0.80538559 0.245089069
vn -0.865743339 0.026331136 -0.499795139
vn -0.993698061 0.104901545 -0.0394966379
vn -0.411486596 -0.849763334 0.329516262
vn 0.638985217 -0.741018236 0.206372976
vn 0.970191658 -0.207049325 -0.125931427
vn 0.52723074 -0.274981886 -0.803997993
vn 0.376890659 0.505897403 -0.775900245
vn 0.509366095 0.699536979 -0.501192868
vn -0.426191211 0.83809185 -0.340533376
vn -0.392097503 0.625451803 -0.674588382
vn -0.993698061 0.104901545 -0.0394966379
vn -0.865743339 0.026331136 -0.499795139
vn 0.198934957 -0.892330706 -0.405180007
vn -0.431164116 0.833396614 -0.345756531
vn 0.42726323 0.735767186 -0.525445282
vn 0.978532732 -0.11152941 -0.173305884
vn -0.98409754 0.158925623 -0.0793387145
vn -0.98409754 0.158925623 -0.0793387145
vn -0.945488691 0.171685249 -0.276722431
vn -0.341207415 0.847961724 -0.405633271
vn -0.967220187 0.149298146 -0.205414519
vn -0.945488691 0.171685249 -0.276722431
vn -0.311594397 0.834048331 -0.455271631
vn 0.552424312 0.550739169 -0.625710607
vn 0.359265387 0.812589467 -0.458941013
vn 0.972384572 -0.142772913 -0.184618562
vn 0.885677814 -0.231294423 -0.402588725
vn -0.151947826 -0.352980047 -0.923210204
vn -0.151947826 -0.352980047 -0.923210204
vn 0.350822479 -0.858849645 0.3732301
vn 0.972384572 -0.142772913 -0.184618562
vn 0.490529567 -0.871424079 -0.00085405109
vn -0.493117929 -0.855533957 0.157785833
vn -0.620823622 -0.728993416 0.288351715
vn -0.967220187 0.149298146 -0.205414519
vn -0.945488691 0.171685249 -0.276722431
vn -0.151947826 -0.352980047 -0.923210204
vn -0.151947826 -0.352980047 -0.923210204
vn 0.885677814 -0.231294423 -0.402588725
vn -0.151947826 -0.352980047 -0.923210204
vn -0.563515365 0.813581347 0.143303052
vn 0.0416672081 0.950422525 -0.308157295
vn -0.537278056 0.816650987 0.210745037
vn 0.0510057099 0.971547782 -0.231286004
vn -0.824593604 0.400227547 0.39982897
vn -0.769935966 0.483072072 0.416941136
vn 0.590205967 0.567424238 -0.574183524
vn 0.550317764 0.494592816 -0.672702134
vn 0.756091893 0.11950738 -0.643461764
vn 0.766087949 0.223008633 -0.602807105
vn -0.192198172 0.624571025 -0.756948471
vn -0.585538149 0.620076895 -0.522158682
vn -0.728631914 0.230676427 -0.644890606
vn -0.891499281 0.280672967 -0.355600446
vn -0.879187286 0.00857594796 0.476399094
vn -0.838016808 0.159790561 0.521722794
vn -0.6573807 -0.443987995 0.608871996
vn -0.713837266 -0.483166605 0.506938219
vn -0.122959442 -0.925015748 0.359481305
vn -0.184947729 -0.918727756 0.348903537
vn -0.105711289 -0.874235153 -0.473854482
vn -0.601853073 -0.633749127 -0.485937178
vn 0.395540804 -0.914946675 0.0801254511
vn 0.118152365 -0.812265098 -0.571196377
vn 0.689792275 -0.710205078 -0.140696079
vn 0.883111298 -0.343533099 -0.31953007
vn 0.819574833 -0.219604924 -0.529217243
vn 0.607055306 -0.193304777 -0.770789862
vn 0.766087949 0.223008633 -0.602807105
vn 0.514205694 -0.0411950052 -0.856677055
vn 0.431427449 0.084068343 -0.898222029
vn 0.484513104 -0.634017825 -0.602717519
vn 0.484513104 -0.634017825 -0.602717519
vn 0.756091893 0.11950738 -0.643461764
vn 0.475161701 -0.879102588 -0.0374149419
vn 0.907782972 -0.313133836 -0.279065311
vn -0.106047913 -0.91545248 0.388201773
vn -0.651940823 -0.415983886 0.633979976
vn -0.812107086 0.175152481 0.556600153
vn -0.764236569 0.495761365 0.412508428
vn -0.572432339 0.80344969 0.163675949
vn 0.043001689 0.936673045 -0.347554803
vn 0.634230435 0.446846753 -0.63093549
vn 0.779296517 0.0884694904 -0.620378971
vn 0.529455304 -0.838779926 -0.126985088
vn 0.810854852 -0.299016595 -0.503094018
vn 0.779296517 0.0884694904 -0.620378971
vn -0.10293477 0.130092561 -0.986144185
vn -0.192198172 0.624571025 -0.756948471
vn -0.585538149 0.620076895 -0.522158682
vn -0.395718217 0.00429233536 -0.918361902
vn -0.11923375 -0.0775080919 -0.989836276
vn -0.728631914 0.230676427 -0.644890606
vn -0.197137073 0.0281477664 -0.979971707
vn -0.891499281 0.280672967 -0.355600446
vn -0.207536414 -0.0908671916 -0.973997831
vn -0.819280326 0.00446522934 -0.573375821
vn -0.266730636 -0.131681547 -0.954732835
vn -0.959792018 -0.127096072 -0.250291467
vn -0.170768499 -0.153603286 -0.973264635
vn -0.781960666 -0.333693862 -0.526484549
vn -0.257223457 -0.308835298 -0.915672839
vn -0.823233306 -0.535383165 -0.188817337
vn -0.0893621966 -0.131792411 -0.987241149
vn 0.286718816 0.412469923 -0.864673793
vn -0.242924973 0.0417093821 -0.96914804
vn 0.431427449 0.084068343 -0.898222029
vn -0.126955882 -0.144861132 -0.981273413
vn 0.514205694 -0.0411950052 -0.856677055
vn -0.0834815428 -0.213111699 -0.973454714
vn -0.0375091098 -0.214784786 -0.975940883
vn 0.607055306 -0.193304777 -0.770789862
vn 0.484513104 -0.634017825 -0.602717519
vn -0.14753373 -0.425653636 -0.892778158
vn -0.0517861284 -0.388411224 -0.920029759
vn -0.111908928 -0.141852573 -0.983541667
vn -0.212932095 -0.0478618741 -0.975894094
vn -0.315383732 0.139837533 -0.938604653
vn -0.205223739 -0.502727509 -0.839731097
vn 0.484513104 -0.634017825 -0.602717519
vn 0.118152365 -0.812265098 -0.571196377
vn 0.0202868618 -0.217913166 -0.975757301
vn -0.105711289 -0.874235153 -0.473854482
vn -0.601853073 -0.633749127 -0.485937178
vn -0.823233306 -0.535383165 -0.188817337
vn -0.601853073 -0.633749127 -0.485937178
vn -0.959792018 -0.127096072 -0.250291467
vn -0.819280326 0.00446522934 -0.573375821
vn -0.781960666 -0.333693862 -0.526484549
vn -0.823233306 -0.535383165 -0.188817337
vn -0.601853073 -0.633749127 -0.485937178
vn 0.286718816 0.412469923 -0.864673793
vn 0.431427449 0.084068343 -0.898222029
vn 0.146880805 0.666405737 0.730978429
vn -0.803923309 0.0431889407 0.593162715
vn -0.604451478 0.753936708 0.257328451
vn -0.150001839 0.18580918 0.97106868
vn -0.559162319 -0.626197338 0.543336272
vn 0.133907765 -0.237009197 0.962234557
vn -0.895800114 0.0502648987 0.441605777
vn -0.668909431 0.719368279 0.187268421
vn -0.816310287 0.0121929748 0.577484846
vn -0.780460477 0.625084162 -0.0122936117
vn -0.0762592703 0.976426959 -0.201928183
vn 0.0355299599 0.886793494 -0.460798234
vn 0.508389413 0.695342124 -0.507975936
vn -0.687745214 -0.586248636 0.428157836
vn -0.590681732 -0.683188438 0.429358423
vn -0.150881216 -0.967131317 0.204674929
vn -0.0708806589 -0.955311894 0.28697601
vn -0.0869088471 0.405003786 -0.910175204
vn 0.71483016 0.559932292 -0.418919593
vn -0.738970816 0.278059661 -0.613681495
vn -0.988830864 -0.116545379 0.0929024443
vn -0.988830864 -0.116545379 0.0929024443
vn -0.815914273 -0.577948451 0.0161062703
vn -0.815914273 -0.577948451 0.0161062703
vn -0.383179575 -0.713784516 -0.586246729
vn 0.447075576 -0.883917809 0.137159452
vn 0.270645171 -0.870023549 -0.412080228
vn 0.813683629 -0.508538902 -0.281614959
vn 0.36698243 -0.31522122 -0.875191092
vn 0.989313424 0.145042181 0.0148877557
vn 0.98171705 0.150121227 0.117026724
vn 0.392498314 0.164308369 -0.904957354
vn -0.150132045 -0.145939469 -0.977835357
vn 0.71483016 0.559932292 -0.418919593
vn -0.47792998 -0.283122063 -0.831519544
vn 0.79539901 0.102688886 -0.597323477
vn 0.750981987 -0.531792819 -0.391436249
vn 0.241746753 -0.805886865 -0.540467143
vn -0.120637864 -0.0800667405 -0.989462435
vn -0.319598377 0.0897035748 -0.943297386
vn 0.392498314 0.164308369 -0.904957354
vn 0.614969432 -0.317834675 -0.721660495
vn 0.436401516 -0.285739809 -0.853174329
vn 0.37278834 -0.284786522 -0.883133888
vn 0.347763389 -0.150019795 -0.92550236
vn 0.132800579 -0.23950544 -0.96176976
vn 0.231984377 -0.135766596 -0.963198125
vn 0.498774707 0.211901903 -0.840429306
vn 0.406700045 -0.13020651 -0.904235184
vn 0.185792133 -0.181257427 -0.965726137
vn -0.335848868 -0.886247575 -0.319015384
vn -0.980294347 0.135193884 -0.144033596
vn -0.759468615 0.125274822 0.63836807
vn 0.446243823 -0.452600032 0.772023141
vn 0.638168156 -0.651745021 0.409841418
vn -0.150881216 -0.967131317 0.204674929
vn -0.980294347 0.135193884 -0.144033596
vn 0.798828423 -0.319280714 0.509836257
vn 0.850254834 -0.443663865 0.283247501
vn 0.446243823 -0.452600032 0.772023141
vn 0.933702767 -0.344541281 0.0974187925
vn 0.798828423 -0.319280714 0.509836257
vn 0.608506203 0.49503696 0.620208561
vn 0.446243823 -0.452600032 0.772023141
vn 0.602731705 0.538416505 0.588916004
vn 0.682228267 0.166256338 0.711985588
vn 0.8125543 0.295003504 0.50272119
vn 0.965036511 0.108605437 -0.238556713
vn 0.733557284 0.436711371 0.52074641
vn 0.133907765 -0.237009197 0.962234557
vn 0.776211679 0.310628265 0.548639655
vn -0.150001839 0.18580918 0.97106868
vn 0.821622968 0.128417864 0.555377781
vn 0.146880805 0.666405737 0.730978429
vn 0.905846119 0.034500774 0.422199488
vn 0.379482239 0.876493573 0.296230078
vn 0.884759486 -0.0171489958 0.465732247
vn 0.805022418 -0.065597564 0.589606583
vn 0.665630758 0.706092715 0.24159649
vn 0.625486612 -0.00253102789 0.78023082
vn 0.777115643 0.193959981 0.598724306
vn 0.777021825 0.619584203 -0.111142114
vn 0.965036511 0.108605437 -0.238556713
vn 0.8125543 0.295003504 0.50272119
vn 0.660550475 0.31157884 -0.683075249
vn 0.738111079 0.673015177 0.0473574065
vn 0.965036511 0.108605437 -0.238556713
vn 0.80618602 0.102947816 -0.582637072
vn 0.689629495 0.201616943 -0.695529759
vn 0.424644828 0.0348016284 -0.904690921
vn 0.498774707 0.211901903 -0.840429306
vn 0.379381627 0.659337044 -0.649110436
vn 0.79539901 0.102688886 -0.597323477
vn 0.780948281 0.622119606 -0.055560749
vn 0.98171705 0.150121227 0.117026724
vn 0.989313424 0.145042181 0.0148877557
vn 0.392498314 0.164308369 -0.904957354
vn 0.343160212 0.357654989 -0.868518293
vn 0.342808574 0.442801833 -0.828497946
vn 0.154169187 0.637500644 -0.754867375
vn 0.71483016 0.559932292 -0.418919593
vn 0.392498314 0.164308369 -0.904957354
vn -0.709589541 0.525743365 -0.469123274
vn -0.762233615 0.593063712 -0.259375095
vn -0.787745118 0.0493114069 0.61402446
vn -0.787745118 0.0493114069 0.61402446
vn 0.335131139 0.930149376 0.15003106
vn 0.379482239 0.876493573 0.296230078
vn 0.724497139 0.688835025 0.0247033909
vn 0.724497139 0.688835025 0.0247033909
vn 0.665630758 0.706092715 0.24159649
vn 0.689565957 0.722596407 0.0485095344
vn 0.56773454 0.822426975 0.0359356813
vn -0.988830864 -0.116545379 0.0929024443
vn -0.566243887 -0.212866217 -0.796276212
vn -0.682542741 0.0574741922 -0.728582203
vn -0.383179575 -0.713784516 -0.586246729
vn -0.383179575 -0.713784516 -0.586246729
vn -0.333434641 0.152928978 -0.930287063
vn -0.0893004537 -0.0632875338 -0.993992031
vn 0.270645171 -0.870023549 -0.412080228
vn -0.292892307 -0.164984331 -0.941803694
vn 0.392498314 0.164308369 -0.904957354
vn 0.392498314 0.164308369 -0.904957354
vn -0.319598377 0.0897035748 -0.943297386
vn 0.965337574 -0.192139506 0.176651135
vn 0.965036511 0.108605437 -0.238556713
vn 0.80618602 0.102947816 -0.582637072
vn 0.928122818 -0.298752487 0.222114816
vn 0.132800579 -0.23950544 -0.96176976
vn 0.241618365 -0.144015819 -0.959624887
vn 0.231984377 -0.135766596 -0.963198125
vn 0.0955807269 -0.372609884 -0.923052728
vn 0.185792133 -0.181257427 -0.965726137
vn 0.325011224 -0.30508855 -0.895147324
vn 0.406700045 -0.13020651 -0.904235184
vn 0.448670298 -0.332494915 -0.829543293
vn 0.347763389 -0.150019795 -0.92550236
vn 0.39293772 -0.426514447 -0.814668894
vn 0.37278834 -0.284786522 -0.883133888
vn 0.450845361 -0.429069757 -0.782711744
vn 0.436401516 -0.285739809 -0.853174329
vn 0.614969432 -0.317834675 -0.721660495
vn 0.0221685003 -0.569570363 -0.821643591
vn 0.241746753 -0.805886865 -0.540467143
vn 0.676352084 -0.335462511 -0.655753613
vn 0.689629495 0.201616943 -0.695529759
vn 0.965768933 -0.25690797 -0.0358995199
vn 0.80618602 0.102947816 -0.582637072
vn 0.965337574 -0.192139506 0.176651135
vn 0.928122818 -0.298752487 0.222114816
vn 0.860915005 -0.503397048 0.073598057
vn 0.824043214 -0.55872798 0.0936797187
vn 0.850254834 -0.443663865 0.283247501
vn 0.792957067 -0.59636122 0.124789111
vn 0.638168156 -0.651745021 0.409841418
vn 0.799420893 -0.505446553 0.324730545
vn 0.498774707 0.211901903 -0.840429306
vn 0.532925308 -0.672825038 -0.513124943
vn 0.591606796 -0.718083084 -0.366548777
vn 0.449532896 -0.884414256 -0.125425652
vn 0.491583794 -0.836517394 -0.242041573
vn 0.332961857 -0.927104056 -0.172088593
vn 0.28567338 -0.957504272 -0.0397013351
vn 0.216937497 -0.968121469 -0.125215456
vn 0.175984174 -0.983487785 -0.0422049686
vn -0.374154508 -0.867919981 -0.326685339
vn -0.40622139 -0.889842451 -0.207760781
vn -0.941493452 0.27887243 -0.189261913
vn -0.980294347 0.135193884 -0.144033596
vn 0.21902512 -0.975186825 -0.0322293751
vn -0.449293315 -0.890123725 -0.0762582198
vn -0.932139516 0.362057805 0.0054748822
vn -0.932139516 0.362057805 0.0054748822
vn -0.919872701 0.377370328 0.106891699
vn 0.286224037 -0.957382321 -0.0386622511
vn 0.352870584 -0.93067652 -0.0965583771
vn 0.282362372 -0.958699465 -0.0341590419
vn 0.284927338 -0.958399832 0.0169162285
vn 0.616088748 -0.565559149 0.548249424
vn 0.604288995 -0.637636662 0.477759719
vn 0.29928267 0.598178029 0.743379354
vn 0.276711613 0.768165886 0.577366292
vn 0.699848354 -0.557124615 0.447017252
vn 0.425959378 0.684284687 0.591872633
vn 0.611625731 -0.687709451 0.391113251
vn 0.442010105 0.731126249 0.519693494
vn 0.638168156 -0.651745021 0.409841418
vn 0.273914725 -0.961721838 0.00785844307
vn 0.242331147 -0.969969332 -0.0208572224
vn 0.241166383 -0.970480382 0.0026007609
vn 0.689070463 -0.575612307 0.440286756
vn 0.382653385 0.758630097 0.527310848
vn 0.427037597 0.688327193 0.586382508
vn 0.425959378 0.684284687 0.591872633
vn 0.607252538 -0.688041925 0.397294134
vn 0.427037597 0.688327193 0.586382508
vn 0.374928653 0.754269302 0.538986444
vn 0.641438246 -0.603546202 0.473591536
vn 0.374928653 0.754269302 0.538986444
vn 0.36301899 0.662207067 0.655514359
vn -0.43734628 -0.897936881 0.0493712798
vn -0.0952055156 -0.832918942 0.545144022
vn -0.458331794 0.213030711 0.862873077
vn -0.919872701 0.377370328 0.106891699
vn -0.0952055156 -0.832918942 0.545144022
vn 0.36301899 0.662207067 0.655514359
vn -0.458331794 0.213030711 0.862873077
vn -0.980294347 0.135193884 -0.144033596
vn -0.759468615 0.125274822 0.63836807
vn -0.941493452 0.27887243 -0.189261913
vn -0.932139516 0.362057805 0.0054748822
vn 0.442010105 0.731126249 0.519693494
vn 0.276711613 0.768165886 0.577366292
vn 0.29928267 0.598178029 0.743379354
vn 0.382653385 0.758630097 0.527310848
vn 0.425959378 0.684284687 0.591872633
vn -0.257259667 0.962770104 0.0830131471
vn -0.246549636 0.968552589 0.0334532745
vn 0.374928653 0.754269302 0.538986444
vn 0.427037597 0.688327193 0.586382508
vn -0.2460154 0.968394756 0.0410858132
vn -0.25039348 0.964086473 0.0885458142
vn -0.458331794 0.213030711 0.862873077
vn 0.36301899 0.662207067 0.655514359
vn -0.919872701 0.377370328 0.106891699
vn -0.932139516 0.362057805 0.0054748822
vn 0.638168156 -0.651745021 0.409841418
vn 0.0221685003 -0.569570363 -0.821643591
vn -0.335848868 -0.886247575 -0.319015384
vn 0.241746753 -0.805886865 -0.540467143
vn 0.335131139 0.930149376 0.15003106
vn 0.510320127 0.853526354 0.10519594
vn 0.482641578 0.871792018 -0.0838791728
vn 0.823366225 -0.361635059 0.437365055
vn 0.724497139 0.688835025 0.0247033909
vn -0.17758666 0.972877145 -0.148232967
vn -0.140934989 0.948797584 -0.28270188
vn 0.616142213 0.787315249 0.0224369243
vn 0.0532917418 0.931910574 -0.358751476
vn 0.692235231 0.720979691 0.0316016451
vn 0.724497139 0.688835025 0.0247033909
vn 0.689565957 0.722596407 0.0485095344
vn 0.682840765 0.709323704 -0.174895227
vn 0.482641578 0.871792018 -0.0838791728
vn -0.207612067 0.952898681 -0.221091315
vn -0.208192393 0.964654565 -0.161547169
vn 0.426526815 0.871642828 0.241482094
vn 0.231173754 0.955400348 0.183763072
vn 0.746694744 -0.251340717 0.615852773
vn 0.746822178 -0.457007319 0.483115882
vn 0.736655116 -0.352288634 0.577262461
vn 0.447765112 0.861642957 0.238909528
vn 0.260813504 0.948013902 0.182335049
vn 0.757518947 -0.447618127 0.475187451
vn 0.453814805 0.857905686 0.240935475
vn -0.219554275 0.964811325 -0.144689515
vn -0.186110109 0.969252944 -0.160971284
vn -0.248901889 0.950270414 -0.187173754
vn -0.232423246 0.953004181 -0.194325745
vn -0.164927721 0.958291411 -0.233401656
vn -0.130985379 0.951481938 -0.278433293
vn -0.0833000913 0.940614402 -0.329098433
vn -0.208730936 0.931241333 -0.298698843
vn -0.233970881 0.949435711 -0.209354907
vn -0.789233387 0.563402712 -0.244311064
vn -0.801723599 0.595510185 -0.0510579832
vn -0.673288763 -0.738867521 0.0275152512
vn -0.641266167 -0.728742182 0.240234256
vn -0.697501719 -0.699119151 -0.157238305
vn -0.735516846 0.514572382 -0.440715462
vn -0.697501719 -0.699119151 -0.157238305
vn 0.277204692 0.582484424 -0.764113605
vn -0.0102980025 0.923956573 -0.382358819
vn 0.350303948 0.331712365 -0.875930369
vn 0.1908869 0.841072798 -0.506121278
vn -0.602308929 -0.722021878 0.340453148
vn -0.779703975 0.624953568 0.0386612862
vn -0.397706717 0.73981452 0.542682171
vn -0.177675962 -0.298449397 0.937741518
vn 0.89762193 0.192763016 -0.396380335
vn 0.342808574 0.442801833 -0.828497946
vn -0.262876153 0.455506653 -0.850535095
vn 0.154169187 0.637500644 -0.754867375
vn 0.343160212 0.357654989 -0.868518293
vn 0.424644828 0.0348016284 -0.904690921
vn 0.56773454 0.822426975 0.0359356813
vn 0.689565957 0.722596407 0.0485095344
vn 0.738111079 0.673015177 0.0473574065
vn 0.660550475 0.31157884 -0.683075249
vn 0.660550475 0.31157884 -0.683075249
vn 0.71875304 -0.333491147 0.610063553
vn -0.397706717 0.73981452 0.542682171
vn -0.177675962 -0.298449397 0.937741518
vn -0.709589541 0.525743365 -0.469123274
vn -0.762233615 0.593063712 -0.259375095
vn -0.709589541 0.525743365 -0.469123274
vn 0.154169187 0.637500644 -0.754867375
vn 0.335131139 0.930149376 0.15003106
vn 0.165701136 -0.948847055 0.26876089
vn 0.823366225 -0.361635059 0.437365055
vn -0.787745118 0.0493114069 0.61402446
vn 0.637749195 -0.502041101 0.584149599
vn 0.746822178 -0.457007319 0.483115882
vn 0.247873828 -0.945196986 0.212511614
vn 0.746694744 -0.251340717 0.615852773
vn -0.641266167 -0.728742182 0.240234256
vn -0.673288763 -0.738867521 0.0275152512
vn 0.246903107 -0.948548913 0.198226362
vn 0.757518947 -0.447618127 0.475187451
vn 0.71875304 -0.333491147 0.610063553
vn 0.736655116 -0.352288634 0.577262461
vn -0.177675962 -0.298449397 0.937741518
vn -0.602308929 -0.722021878 0.340453148
vn 0.569942534 -0.202806666 0.796263099
vn -0.697501719 -0.699119151 -0.157238305
vn -0.762233615 0.593063712 -0.259375095
vn 0.637749195 -0.502041101 0.584149599
vn 0.274583548 0.920344293 0.278514266
vn 0.569942534 -0.202806666 0.796263099
vn 0.314122677 0.863186419 0.39526704
vn 0.406700045 -0.13020651 -0.904235184
vn 0.750981987 -0.531792819 -0.391436249
vn 0.347763389 -0.150019795 -0.92550236
g Blue_war_m_pve_3_hand_r_0
f 3/3/3 2/2/2 1/1/1
f 3/3/3 4/4/4 2/2/2
f 3/3/3 5/5/5 4/4/4
f 2/2/2 6/6/6 1/1/1
f 2/2/2 4/4/4 6/6/6
f 7/7/7 1/1/1 6/6/6
f 6/6/6 8/8/8 7/7/7
f 9/9/9 7/7/7 8/8/8
f 6/6/6 10/10/10 8/8/8
f 4/4/4 5/5/5 10/10/10
f 10/10/10 6/6/6 4/4/4
f 11/11/11 8/8/8 10/10/10
f 10/10/10 12/12/12 11/11/11
f 12/12/12 10/10/10 5/5/5
f 13/13/13 11/11/11 12/12/12
f 12/12/12 14/14/14 13/13/13
f 14/14/14 12/12/12 15/15/15
f 5/5/5 15/15/15 12/12/12
f 16/16/16 15/15/15 5/5/5
f 3/3/3 18/18/18 17/17/17
f 3/3/3 17/17/17 19/19/19
f 18/18/18 20/20/20 17/17/17
f 21/21/21 17/17/17 20/20/20
f 20/20/20 22/22/22 21/21/21
f 23/23/23 21/21/21 22/22/22
f 21/21/21 23/23/23 24/24/24
f 24/24/24 17/17/17 21/21/21
f 19/19/19 17/17/17 24/24/24
f 25/25/25 24/24/24 23/23/23
f 26/26/26 13/13/13 24/24/24
f 29/29/29 28/28/28 27/27/27
f 29/29/29 30/30/30 28/28/28
f 29/29/29 31/31/31 30/30/30
f 29/29/29 32/32/32 31/31/31
f 29/29/29 33/33/33 32/32/32
f 29/29/29 34/34/34 33/33/33
f 28/28/28 35/35/35 27/27/27
f 36/36/36 27/27/27 35/35/35
f 35/35/35 37/37/37 36/36/36
f 38/38/38 36/36/36 37/37/37
f 35/35/35 39/39/39 37/37/37
f 30/30/30 31/31/31 39/39/39
f 35/35/35 28/28/28 39/39/39
f 30/30/30 39/39/39 28/28/28
f 40/40/40 37/37/37 39/39/39
f 39/39/39 41/41/41 40/40/40
f 31/31/31 32/32/32 41/41/41
f 41/41/41 39/39/39 31/31/31
f 42/42/42 40/40/40 41/41/41
f 41/41/41 43/43/43 42/42/42
f 43/43/43 41/41/41 32/32/32
f 44/44/44 42/42/42 43/43/43
f 44/44/44 43/43/43 45/45/45
f 46/46/46 45/45/45 43/43/43
f 43/43/43 32/32/32 46/46/46
f 33/33/33 46/46/46 32/32/32
f 45/45/45 46/46/46 47/47/47
f 48/48/48 47/47/47 46/46/46
f 46/46/46 33/33/33 48/48/48
f 34/34/34 48/48/48 33/33/33
f 51/51/51 50/50/50 49/49/49
f 49/49/49 50/50/50 52/52/52
f 53/53/53 52/52/52 50/50/50
f 53/53/53 54/54/54 52/52/52
f 55/55/55 52/52/52 54/54/54
f 53/53/53 56/56/56 54/54/54
f 53/53/53 50/50/50 56/56/56
f 57/57/57 54/54/54 56/56/56
f 56/56/56 58/58/58 57/57/57
f 59/59/59 57/57/57 58/58/58
f 58/58/58 60/60/60 59/59/59
f 61/61/61 59/59/59 60/60/60
f 61/61/61 60/60/60 62/62/62
f 63/63/63 62/62/62 60/60/60
f 62/62/62 63/63/63 64/64/64
f 65/65/65 64/64/64 63/63/63
f 63/63/63 66/66/66 65/65/65
f 67/67/67 65/65/65 66/66/66
f 68/68/68 67/67/67 66/66/66
f 68/68/68 66/66/66 69/69/69
f 66/66/66 63/63/63 69/69/69
f 60/60/60 58/58/58 69/69/69
f 60/60/60 70/70/70 63/63/63
f 71/71/71 69/69/69 58/58/58
f 58/58/58 56/56/56 71/71/71
f 72/72/72 69/69/69 71/71/71
f 68/68/68 71/71/71 73/73/73
f 73/73/73 71/71/71 56/56/56
f 73/73/73 56/56/56 50/50/50
f 74/74/74 73/73/73 50/50/50
f 77/77/77 76/76/76 75/75/75
f 76/76/76 78/78/78 75/75/75
f 76/76/76 79/79/79 78/78/78
f 76/76/76 80/80/80 79/79/79
f 80/80/80 81/81/81 79/79/79
f 82/82/82 79/79/79 81/81/81
f 79/79/79 82/82/82 78/78/78
f 81/81/81 83/83/83 82/82/82
f 84/84/84 82/82/82 83/83/83
f 82/82/82 84/84/84 85/85/85
f 85/85/85 78/78/78 82/82/82
f 78/78/78 85/85/85 75/75/75
f 86/86/86 85/85/85 84/84/84
f 85/85/85 86/86/86 87/87/87
f 87/87/87 75/75/75 85/85/85
f 77/77/77 75/75/75 87/87/87
f 88/88/88 87/87/87 86/86/86
f 89/89/89 77/77/77 87/87/87
f 89/89/89 87/87/87 90/90/90
f 91/91/91 90/90/90 87/87/87
f 94/94/94 93/93/93 92/92/92
f 93/93/93 95/95/95 92/92/92
f 96/96/96 92/92/92 95/95/95
f 95/95/95 97/97/97 96/96/96
f 98/98/98 96/96/96 97/97/97
f 101/101/101 100/100/100 99/99/99
f 102/102/102 99/99/99 100/100/100
f 100/100/100 101/101/101 103/103/103
f 104/104/104 103/103/103 101/101/101
f 107/107/107 106/106/106 105/105/105
f 108/108/108 105/105/105 106/106/106
f 107/107/107 105/105/105 109/109/109
f 110/110/110 109/109/109 105/105/105
f 105/105/105 108/108/108 111/111/111
f 105/105/105 111/111/111 110/110/110
f 112/112/112 111/111/111 108/108/108
f 108/108/108 113/113/113 112/112/112
f 113/113/113 108/108/108 114/114/114
f 114/114/114 115/115/115 113/113/113
f 116/116/116 113/113/113 115/115/115
f 116/116/116 115/115/115 117/117/117
f 118/118/118 117/117/117 115/115/115
f 117/117/117 118/118/118 119/119/119
f 120/120/120 119/119/119 118/118/118
f 121/121/121 114/114/114 108/108/108
f 117/117/117 122/122/122 116/116/116
f 123/123/123 116/116/116 122/122/122
f 113/113/113 116/116/116 124/124/124
f 123/123/123 124/124/124 116/116/116
f 124/124/124 112/112/112 113/113/113
f 119/119/119 125/125/125 117/117/117
f 122/122/122 117/117/117 125/125/125
f 126/126/126 110/110/110 111/111/111
f 129/129/129 128/128/128 127/127/127
f 131/131/131 130/130/130 128/128/128
f 131/131/131 128/128/128 132/132/132
f 133/133/133 132/132/132 128/128/128
f 133/133/133 134/134/134 132/132/132
f 135/135/135 132/132/132 134/134/134
f 136/136/136 127/127/127 131/131/131
f 136/136/136 131/131/131 132/132/132
f 135/135/135 137/137/137 132/132/132
f 140/140/140 139/139/139 138/138/138
f 140/140/140 138/138/138 141/141/141
f 142/142/142 141/141/141 138/138/138
f 142/142/142 143/143/143 141/141/141
f 144/144/144 141/141/141 143/143/143
f 145/145/145 140/140/140 141/141/141
f 146/146/146 141/141/141 144/144/144
f 140/140/140 147/147/147 139/139/139
f 148/148/148 147/147/147 140/140/140
f 151/151/151 150/150/150 149/149/149
f 152/152/152 149/149/149 150/150/150
f 149/149/149 153/153/153 151/151/151
f 154/154/154 151/151/151 153/153/153
f 152/152/152 150/150/150 155/155/155
f 156/156/156 155/155/155 150/150/150
f 156/156/156 157/157/157 155/155/155
f 158/158/158 155/155/155 157/157/157
f 152/152/152 159/159/159 149/149/149
f 152/152/152 155/155/155 159/159/159
f 160/160/160 149/149/149 159/159/159
f 149/149/149 160/160/160 153/153/153
f 161/161/161 153/153/153 160/160/160
f 161/161/161 162/162/162 153/153/153
f 163/163/163 153/153/153 162/162/162
f 153/153/153 163/163/163 154/154/154
f 164/164/164 154/154/154 163/163/163
f 164/164/164 163/163/163 165/165/165
f 166/166/166 165/165/165 163/163/163
f 165/165/165 166/166/166 167/167/167
f 168/168/168 167/167/167 166/166/166
f 168/168/168 166/166/166 169/169/169
f 170/170/170 169/169/169 166/166/166
f 168/168/168 169/169/169 171/171/171
f 172/172/172 171/171/171 169/169/169
f 171/171/171 172/172/172 173/173/173
f 171/171/171 173/173/173 174/174/174
f 175/175/175 174/174/174 173/173/173
f 175/175/175 173/173/173 176/176/176
f 175/175/175 176/176/176 177/177/177
f 175/175/175 177/177/177 174/174/174
f 176/176/176 178/178/178 177/177/177
f 178/178/178 179/179/179 177/177/177
f 180/180/180 176/176/176 173/173/173
f 181/181/181 173/173/173 172/172/172
f 182/182/182 174/174/174 177/177/177
f 167/167/167 168/168/168 183/183/183
f 174/174/174 183/183/183 171/171/171
f 171/171/171 183/183/183 168/168/168
f 174/174/174 182/182/182 184/184/184
f 184/184/184 183/183/183 174/174/174
f 167/167/167 183/183/183 185/185/185
f 185/185/185 186/186/186 167/167/167
f 165/165/165 167/167/167 186/186/186
f 186/186/186 187/187/187 165/165/165
f 164/164/164 165/165/165 187/187/187
f 187/187/187 188/188/188 164/164/164
f 154/154/154 164/164/164 188/188/188
f 188/188/188 189/189/189 154/154/154
f 151/151/151 154/154/154 189/189/189
f 189/189/189 190/190/190 151/151/151
f 150/150/150 151/151/151 190/190/190
f 190/190/190 191/191/191 150/150/150
f 156/156/156 150/150/150 191/191/191
f 191/191/191 192/192/192 156/156/156
f 157/157/157 156/156/156 192/192/192
f 193/193/193 185/185/185 183/183/183
f 183/183/183 184/184/184 193/193/193
f 194/194/194 193/193/193 184/184/184
f 184/184/184 182/182/182 194/194/194
f 195/195/195 194/194/194 182/182/182
f 198/198/198 197/197/197 196/196/196
f 199/199/199 196/196/196 197/197/197
f 196/196/196 200/200/200 198/198/198
f 201/201/201 198/198/198 200/200/200
f 200/200/200 202/202/202 201/201/201
f 203/203/203 201/201/201 202/202/202
f 202/202/202 204/204/204 203/203/203
f 205/205/205 203/203/203 204/204/204
f 204/204/204 206/206/206 205/205/205
f 207/207/207 205/205/205 206/206/206
f 206/206/206 208/208/208 207/207/207
f 209/209/209 207/207/207 208/208/208
f 208/208/208 210/210/210 209/209/209
f 211/211/211 209/209/209 210/210/210
f 210/210/210 212/212/212 211/211/211
f 197/197/197 213/213/213 199/199/199
f 214/214/214 199/199/199 213/213/213
f 213/213/213 215/215/215 214/214/214
f 216/216/216 214/214/214 215/215/215
f 215/215/215 217/217/217 216/216/216
f 218/218/218 216/216/216 217/217/217
f 218/218/218 217/217/217 219/219/219
f 220/220/220 219/219/219 217/217/217
f 220/220/220 221/221/221 219/219/219
f 222/222/222 219/219/219 221/221/221
f 208/208/208 223/223/223 210/210/210
f 223/223/223 212/212/212 210/210/210
f 219/219/219 223/223/223 218/218/218
f 219/219/219 222/222/222 223/223/223
f 224/224/224 223/223/223 208/208/208
f 218/218/218 224/224/224 216/216/216
f 224/224/224 218/218/218 223/223/223
f 224/224/224 208/208/208 206/206/206
f 204/204/204 224/224/224 206/206/206
f 225/225/225 224/224/224 204/204/204
f 225/225/225 216/216/216 224/224/224
f 225/225/225 204/204/204 202/202/202
f 226/226/226 225/225/225 202/202/202
f 225/225/225 226/226/226 216/216/216
f 200/200/200 226/226/226 202/202/202
f 200/200/200 196/196/196 226/226/226
f 199/199/199 226/226/226 196/196/196
f 199/199/199 214/214/214 226/226/226
f 214/214/214 216/216/216 226/226/226
f 227/227/227 223/223/223 222/222/222
f 222/222/222 228/228/228 227/227/227
f 229/229/229 227/227/227 228/228/228
f 227/227/227 229/229/229 230/230/230
f 231/231/231 230/230/230 229/229/229
f 231/231/231 232/232/232 230/230/230
f 212/212/212 230/230/230 232/232/232
f 227/227/227 230/230/230 223/223/223
f 212/212/212 223/223/223 230/230/230
f 234/234/234 233/233/233 212/212/212
f 236/236/236 235/235/235 163/163/163
f 163/163/163 235/235/235 166/166/166
f 237/237/237 166/166/166 235/235/235
f 237/237/237 238/238/238 166/166/166
f 238/238/238 239/239/239 166/166/166
f 162/162/162 236/236/236 163/163/163
f 241/241/241 240/240/240 158/158/158
f 155/155/155 158/158/158 240/240/240
f 240/240/240 159/159/159 155/155/155
f 244/244/244 243/243/243 242/242/242
f 245/245/245 242/242/242 243/243/243
f 243/243/243 246/246/246 245/245/245
f 247/247/247 245/245/245 246/246/246
f 243/243/243 244/244/244 248/248/248
f 243/243/243 248/248/248 246/246/246
f 249/249/249 248/248/248 244/244/244
f 248/248/248 249/249/249 250/250/250
f 251/251/251 250/250/250 249/249/249
f 249/249/249 252/252/252 251/251/251
f 253/253/253 251/251/251 252/252/252
f 254/254/254 253/253/253 252/252/252
f 248/248/248 250/250/250 255/255/255
f 255/255/255 246/246/246 248/248/248
f 256/256/256 255/255/255 250/250/250
f 255/255/255 256/256/256 257/257/257
f 258/258/258 257/257/257 256/256/256
f 253/253/253 259/259/259 251/251/251
f 259/259/259 253/253/253 260/260/260
f 261/261/261 251/251/251 259/259/259
f 250/250/250 251/251/251 262/262/262
f 250/250/250 262/262/262 256/256/256
f 261/261/261 263/263/263 251/251/251
f 264/264/264 256/256/256 263/263/263
f 256/256/256 265/265/265 258/258/258
f 266/266/266 258/258/258 265/265/265
f 258/258/258 266/266/266 267/267/267
f 258/258/258 267/267/267 257/257/257
f 268/268/268 267/267/267 266/266/266
f 267/267/267 268/268/268 269/269/269
f 270/270/270 269/269/269 268/268/268
f 269/269/269 270/270/270 271/271/271
f 272/272/272 269/269/269 271/271/271
f 273/273/273 271/271/271 270/270/270
f 259/259/259 274/274/274 261/261/261
f 275/275/275 274/274/274 259/259/259
f 276/276/276 261/261/261 274/274/274
f 272/272/272 277/277/277 269/269/269
f 278/278/278 269/269/269 277/277/277
f 269/269/269 278/278/278 267/267/267
f 278/278/278 279/279/279 267/267/267
f 280/280/280 274/274/274 275/275/275
f 280/280/280 275/275/275 281/281/281
f 282/282/282 281/281/281 275/275/275
f 283/283/283 279/279/279 278/278/278
f 283/283/283 278/278/278 284/284/284
f 284/284/284 278/278/278 285/285/285
f 278/278/278 286/286/286 285/285/285
f 278/278/278 277/277/277 287/287/287
f 287/287/287 277/277/277 288/288/288
f 289/289/289 288/288/288 277/277/277
f 290/290/290 278/278/278 287/287/287
f 291/291/291 290/290/290 287/287/287
f 257/257/257 279/279/279 292/292/292
f 293/293/293 257/257/257 292/292/292
f 267/267/267 279/279/279 257/257/257
f 257/257/257 294/294/294 255/255/255
f 294/294/294 246/246/246 255/255/255
f 246/246/246 294/294/294 247/247/247
f 295/295/295 247/247/247 294/294/294
f 294/294/294 296/296/296 295/295/295
f 298/298/298 294/294/294 297/297/297
f 296/296/296 300/300/300 299/299/299
f 301/301/301 296/296/296 299/299/299
f 303/303/303 300/300/300 302/302/302
f 303/303/303 302/302/302 304/304/304
f 303/303/303 304/304/304 305/305/305
f 306/306/306 305/305/305 304/304/304
f 307/307/307 304/304/304 302/302/302
f 307/307/307 302/302/302 308/308/308
f 309/309/309 308/308/308 302/302/302
f 306/306/306 310/310/310 305/305/305
f 311/311/311 305/305/305 310/310/310
f 310/310/310 312/312/312 311/311/311
f 311/311/311 312/312/312 313/313/313
f 314/314/314 313/313/313 312/312/312
f 313/313/313 314/314/314 315/315/315
f 316/316/316 315/315/315 314/314/314
f 315/315/315 316/316/316 317/317/317
f 318/318/318 317/317/317 316/316/316
f 318/318/318 319/319/319 317/317/317
f 317/317/317 319/319/319 320/320/320
f 321/321/321 320/320/320 319/319/319
f 321/321/321 322/322/322 320/320/320
f 323/323/323 320/320/320 322/322/322
f 323/323/323 322/322/322 324/324/324
f 325/325/325 324/324/324 322/322/322
f 327/327/327 323/323/323 326/326/326
f 328/328/328 326/326/326 323/323/323
f 328/328/328 329/329/329 326/326/326
f 330/330/330 326/326/326 329/329/329
f 326/326/326 330/330/330 331/331/331
f 332/332/332 331/331/331 330/330/330
f 333/333/333 331/331/331 332/332/332
f 332/332/332 334/334/334 333/333/333
f 254/254/254 333/333/333 334/334/334
f 254/254/254 334/334/334 335/335/335
f 336/336/336 335/335/335 334/334/334
f 336/336/336 337/337/337 335/335/335
f 337/337/337 338/338/338 335/335/335
f 339/339/339 331/331/331 333/333/333
f 333/333/333 254/254/254 340/340/340
f 340/340/340 339/339/339 333/333/333
f 341/341/341 340/340/340 254/254/254
f 252/252/252 341/341/341 254/254/254
f 335/335/335 253/253/253 254/254/254
f 335/335/335 342/342/342 253/253/253
f 342/342/342 335/335/335 343/343/343
f 344/344/344 341/341/341 252/252/252
f 344/344/344 252/252/252 345/345/345
f 249/249/249 345/345/345 252/252/252
f 345/345/345 249/249/249 346/346/346
f 244/244/244 346/346/346 249/249/249
f 347/347/347 244/244/244 242/242/242
f 348/348/348 347/347/347 242/242/242
f 349/349/349 348/348/348 242/242/242
f 348/348/348 349/349/349 350/350/350
f 352/352/352 351/351/351 349/349/349
f 353/353/353 350/350/350 352/352/352
f 354/354/354 353/353/353 352/352/352
f 352/352/352 323/323/323 354/354/354
f 327/327/327 354/354/354 323/323/323
f 261/261/261 356/356/356 355/355/355
f 355/355/355 356/356/356 265/265/265
f 357/357/357 265/265/265 356/356/356
f 265/265/265 357/357/357 358/358/358
f 276/276/276 356/356/356 261/261/261
f 360/360/360 359/359/359 357/357/357
f 360/360/360 361/361/361 359/359/359
f 359/359/359 361/361/361 362/362/362
f 362/362/362 361/361/361 270/270/270
f 363/363/363 270/270/270 361/361/361
f 270/270/270 363/363/363 364/364/364
f 366/366/366 365/365/365 363/363/363
f 369/369/369 368/368/368 367/367/367
f 302/302/302 367/367/367 368/368/368
f 370/370/370 367/367/367 302/302/302
f 370/370/370 302/302/302 300/300/300
f 373/373/373 372/372/372 371/371/371
f 374/374/374 371/371/371 372/372/372
f 371/371/371 374/374/374 375/375/375
f 376/376/376 375/375/375 374/374/374
f 375/375/375 376/376/376 377/377/377
f 378/378/378 377/377/377 376/376/376
f 379/379/379 377/377/377 378/378/378
f 380/380/380 379/379/379 378/378/378
f 381/381/381 379/379/379 380/380/380
f 380/380/380 382/382/382 381/381/381
f 383/383/383 381/381/381 382/382/382
f 383/383/383 382/382/382 384/384/384
f 382/382/382 385/385/385 384/384/384
f 385/385/385 386/386/386 384/384/384
f 372/372/372 387/387/387 374/374/374
f 387/387/387 372/372/372 388/388/388
f 387/387/387 388/388/388 389/389/389
f 390/390/390 389/389/389 388/388/388
f 389/389/389 390/390/390 391/391/391
f 391/391/391 392/392/392 389/389/389
f 393/393/393 389/389/389 392/392/392
f 393/393/393 392/392/392 394/394/394
f 395/395/395 394/394/394 392/392/392
f 394/394/394 395/395/395 396/396/396
f 397/397/397 396/396/396 395/395/395
f 396/396/396 397/397/397 398/398/398
f 399/399/399 388/388/388 372/372/372
f 393/393/393 400/400/400 389/389/389
f 387/387/387 389/389/389 400/400/400
f 400/400/400 374/374/374 387/387/387
f 400/400/400 393/393/393 401/401/401
f 402/402/402 401/401/401 393/393/393
f 401/401/401 402/402/402 403/403/403
f 403/403/403 402/402/402 404/404/404
f 405/405/405 404/404/404 402/402/402
f 404/404/404 405/405/405 406/406/406
f 407/407/407 406/406/406 405/405/405
f 406/406/406 407/407/407 408/408/408
f 409/409/409 408/408/408 407/407/407
f 409/409/409 410/410/410 408/408/408
f 411/411/411 408/408/408 410/410/410
f 407/407/407 412/412/412 409/409/409
f 413/413/413 409/409/409 412/412/412
f 410/410/410 409/409/409 414/414/414
f 413/413/413 415/415/415 409/409/409
f 415/415/415 413/413/413 416/416/416
f 402/402/402 417/417/417 405/405/405
f 417/417/417 402/402/402 418/418/418
f 418/418/418 419/419/419 417/417/417
f 420/420/420 417/417/417 419/419/419
f 419/419/419 421/421/421 420/420/420
f 422/422/422 420/420/420 421/421/421
f 421/421/421 423/423/423 422/422/422
f 424/424/424 422/422/422 423/423/423
f 422/422/422 424/424/424 425/425/425
f 422/422/422 425/425/425 420/420/420
f 426/426/426 425/425/425 424/424/424
f 425/425/425 426/426/426 427/427/427
f 423/423/423 421/421/421 428/428/428
f 398/398/398 428/428/428 421/421/421
f 421/421/421 419/419/419 398/398/398
f 428/428/428 398/398/398 429/429/429
f 396/396/396 398/398/398 419/419/419
f 419/419/419 418/418/418 396/396/396
f 394/394/394 396/396/396 418/418/418
f 393/393/393 418/418/418 402/402/402
f 427/427/427 430/430/430 425/425/425
f 420/420/420 425/425/425 430/430/430
f 430/430/430 431/431/431 420/420/420
f 417/417/417 420/420/420 431/431/431
f 431/431/431 430/430/430 412/412/412
f 432/432/432 412/412/412 430/430/430
f 430/430/430 433/433/433 432/432/432
f 427/427/427 433/433/433 430/430/430
f 427/427/427 434/434/434 433/433/433
f 435/435/435 433/433/433 434/434/434
f 434/434/434 427/427/427 436/436/436
f 437/437/437 432/432/432 433/433/433
f 433/433/433 438/438/438 437/437/437
f 439/439/439 437/437/437 438/438/438
f 431/431/431 405/405/405 417/417/417
f 440/440/440 432/432/432 437/437/437
f 437/437/437 441/441/441 440/440/440
f 442/442/442 440/440/440 441/441/441
f 432/432/432 440/440/440 443/443/443
f 444/444/444 443/443/443 440/440/440
f 444/444/444 445/445/445 443/443/443
f 446/446/446 443/443/443 445/445/445
f 443/443/443 446/446/446 413/413/413
f 443/443/443 413/413/413 432/432/432
f 412/412/412 432/432/432 413/413/413
f 440/440/440 448/448/448 447/447/447
f 449/449/449 447/447/447 448/448/448
f 405/405/405 431/431/431 407/407/407
f 412/412/412 407/407/407 431/431/431
f 452/452/452 451/451/451 450/450/450
f 452/452/452 453/453/453 451/451/451
f 451/451/451 455/455/455 454/454/454
f 456/456/456 454/454/454 455/455/455
f 455/455/455 451/451/451 457/457/457
f 458/458/458 455/455/455 457/457/457
f 451/451/451 459/459/459 457/457/457
f 459/459/459 460/460/460 457/457/457
f 457/457/457 460/460/460 461/461/461
f 462/462/462 457/457/457 461/461/461
f 460/460/460 459/459/459 463/463/463
f 464/464/464 463/463/463 459/459/459
f 464/464/464 459/459/459 451/451/451
f 463/463/463 465/465/465 460/460/460
f 466/466/466 460/460/460 465/465/465
f 460/460/460 466/466/466 461/461/461
f 467/467/467 465/465/465 463/463/463
f 453/453/453 467/467/467 464/464/464
f 463/463/463 464/464/464 467/467/467
f 464/464/464 451/451/451 468/468/468
f 451/451/451 454/454/454 469/469/469
f 382/382/382 406/406/406 470/470/470
f 408/408/408 470/470/470 406/406/406
f 406/406/406 382/382/382 404/404/404
f 380/380/380 404/404/404 382/382/382
f 404/404/404 380/380/380 403/403/403
f 378/378/378 403/403/403 380/380/380
f 403/403/403 378/378/378 401/401/401
f 376/376/376 401/401/401 378/378/378
f 401/401/401 376/376/376 400/400/400
f 374/374/374 400/400/400 376/376/376
f 408/408/408 411/411/411 470/470/470
f 411/411/411 471/471/471 470/470/470
f 471/471/471 472/472/472 470/470/470
f 394/394/394 418/418/418 393/393/393
f 475/475/475 474/474/474 473/473/473
f 476/476/476 473/473/473 474/474/474
f 473/473/473 477/477/477 475/475/475
f 475/475/475 478/478/478 474/474/474
f 478/478/478 475/475/475 479/479/479
f 480/480/480 479/479/479 475/475/475
f 479/479/479 480/480/480 481/481/481
f 482/482/482 481/481/481 480/480/480
f 480/480/480 483/483/483 482/482/482
f 484/484/484 482/482/482 483/483/483
f 482/482/482 484/484/484 485/485/485
f 480/480/480 486/486/486 483/483/483
f 479/479/479 487/487/487 478/478/478
f 488/488/488 478/478/478 487/487/487
f 478/478/478 488/488/488 489/489/489
f 490/490/490 489/489/489 488/488/488
f 489/489/489 490/490/490 491/491/491
f 492/492/492 491/491/491 490/490/490
f 492/492/492 490/490/490 493/493/493
f 494/494/494 493/493/493 490/490/490
f 494/494/494 495/495/495 493/493/493
f 496/496/496 493/493/493 495/495/495
f 495/495/495 497/497/497 496/496/496
f 497/497/497 495/495/495 498/498/498
f 499/499/499 498/498/498 495/495/495
f 488/488/488 499/499/499 490/490/490
f 494/494/494 490/490/490 499/499/499
f 495/495/495 494/494/494 499/499/499
f 498/498/498 499/499/499 500/500/500
f 501/501/501 500/500/500 499/499/499
f 487/487/487 501/501/501 488/488/488
f 499/499/499 488/488/488 501/501/501
f 501/501/501 487/487/487 502/502/502
f 503/503/503 502/502/502 487/487/487
f 502/502/502 503/503/503 504/504/504
f 504/504/504 505/505/505 502/502/502
f 506/506/506 502/502/502 505/505/505
f 500/500/500 501/501/501 506/506/506
f 502/502/502 506/506/506 501/501/501
f 506/506/506 507/507/507 500/500/500
f 508/508/508 500/500/500 507/507/507
f 500/500/500 508/508/508 498/498/498
f 507/507/507 509/509/509 508/508/508
f 510/510/510 508/508/508 509/509/509
f 509/509/509 507/507/507 511/511/511
f 505/505/505 512/512/512 506/506/506
f 507/507/507 506/506/506 512/512/512
f 512/512/512 513/513/513 507/507/507
f 505/505/505 504/504/504 514/514/514
f 504/504/504 515/515/515 514/514/514
f 515/515/515 504/504/504 503/503/503
f 516/516/516 514/514/514 515/515/515
f 503/503/503 481/481/481 515/515/515
f 517/517/517 515/515/515 481/481/481
f 515/515/515 517/517/517 516/516/516
f 517/517/517 485/485/485 516/516/516
f 510/510/510 518/518/518 508/508/508
f 519/519/519 508/508/508 518/518/518
f 519/519/519 518/518/518 520/520/520
f 521/521/521 520/520/520 518/518/518
f 519/519/519 498/498/498 508/508/508
f 498/498/498 519/519/519 497/497/497
f 520/520/520 497/497/497 519/519/519
f 485/485/485 517/517/517 482/482/482
f 481/481/481 482/482/482 517/517/517
f 516/516/516 485/485/485 522/522/522
f 514/514/514 516/516/516 523/523/523
f 514/514/514 523/523/523 524/524/524
f 525/525/525 524/524/524 523/523/523
f 526/526/526 523/523/523 516/516/516
f 516/516/516 522/522/522 526/526/526
f 527/527/527 526/526/526 522/522/522
f 485/485/485 528/528/528 522/522/522
f 528/528/528 485/485/485 529/529/529
f 530/530/530 522/522/522 528/528/528
f 530/530/530 531/531/531 522/522/522
f 532/532/532 527/527/527 522/522/522
f 533/533/533 496/496/496 497/497/497
f 497/497/497 534/534/534 533/533/533
f 535/535/535 533/533/533 534/534/534
f 512/512/512 505/505/505 524/524/524
f 514/514/514 524/524/524 505/505/505
f 512/512/512 524/524/524 536/536/536
f 537/537/537 512/512/512 536/536/536
f 513/513/513 512/512/512 537/537/537
f 524/524/524 539/539/539 538/538/538
f 542/542/542 541/541/541 540/540/540
f 543/543/543 540/540/540 541/541/541
f 541/541/541 542/542/542 544/544/544
f 541/541/541 544/544/544 545/545/545
f 546/546/546 541/541/541 545/545/545
f 544/544/544 547/547/547 545/545/545
f 546/546/546 548/548/548 541/541/541
f 549/549/549 541/541/541 548/548/548
f 546/546/546 545/545/545 550/550/550
f 545/545/545 551/551/551 550/550/550
f 552/552/552 550/550/550 551/551/551
f 553/553/553 551/551/551 545/545/545
f 552/552/552 554/554/554 550/550/550
f 554/554/554 555/555/555 550/550/550
f 548/548/548 546/546/546 555/555/555
f 550/550/550 555/555/555 546/546/546
f 556/556/556 544/544/544 542/542/542
f 549/549/549 557/557/557 541/541/541
f 557/557/557 558/558/558 543/543/543
f 543/543/543 541/541/541 557/557/557
f 560/560/560 489/489/489 559/559/559
f 491/491/491 559/559/559 489/489/489
f 559/559/559 561/561/561 560/560/560
f 562/562/562 560/560/560 561/561/561
f 560/560/560 562/562/562 478/478/478
f 489/489/489 560/560/560 478/478/478
f 562/562/562 474/474/474 478/478/478
f 474/474/474 562/562/562 476/476/476
f 561/561/561 476/476/476 562/562/562
f 481/481/481 503/503/503 479/479/479
f 487/487/487 479/479/479 503/503/503
f 399/399/399 372/372/372 373/373/373
f 565/565/565 564/564/564 563/563/563
