g blue_war_f_pve_3_hand_r
v -0.423695743 -0.0188958496 1.25302553
v -0.401031256 0.00771354977 1.24537444
v -0.415111214 -0.0125443991 1.27470064
v -0.396416843 -0.050442636 1.26379251
v -0.387859732 -0.0375907384 1.28677213
v -0.383186519 -0.00901355036 1.29450166
v -0.366161406 -0.0431789011 1.30822706
v -0.365562052 0.00940283015 1.35421968
v -0.340129554 -0.00668531004 1.34334314
v -0.354398161 0.00794328935 1.35980237
v -0.348046869 -0.0449370183 1.31301653
v -0.329128802 -0.0624402687 1.3600297
v -0.323138446 0.00329688983 1.39460731
v -0.32790789 0.0333695002 1.36867952
v -0.316509634 0.0321097486 1.36797845
v -0.31372273 0.00504863961 1.39714551
v -0.298888624 -0.0463730693 1.37446821
v -0.306842744 -0.0531122386 1.37529564
v -0.269290209 -0.0672357529 1.35722458
v -0.270844519 -0.0785731971 1.35600817
v -0.23255603 -0.0618928783 1.33696485
v -0.229957342 -0.0745252594 1.33184826
v -0.306735516 0.0614746064 1.34492683
v -0.299606711 0.0554998107 1.34634411
v -0.354330599 0.01464378 1.35814393
v -0.365562052 0.00940283015 1.35421968
v -0.324839085 0.0656853095 1.33205581
v -0.28395465 -0.0935755745 1.33922279
v -0.233089715 -0.086942859 1.31221282
v -0.196730033 -0.0404933393 1.31430018
v -0.23255603 -0.0618928783 1.33696485
v -0.203572229 -0.0355748683 1.32021654
v -0.192620963 0.0103752697 1.30632377
v -0.200645462 0.00868188962 1.31216109
v -0.224835664 0.051228527 1.31350756
v -0.21936658 0.0580011979 1.30783617
v -0.262845725 0.0672577992 1.32588577
v -0.264935553 0.0774467438 1.32092083
v -0.225072786 0.0552225783 1.28634274
v -0.274863422 0.0802619755 1.30469537
v -0.306735516 0.0614746064 1.34492683
v -0.262845725 0.0672577992 1.32588577
v -0.299606711 0.0554998107 1.34634411
v -0.324839085 0.0656853095 1.33205581
v -0.195576161 0.0088468492 1.28249311
v -0.195022613 -0.0479541197 1.29071271
v -0.210608378 -0.0431172177 1.28896284
v -0.242294759 -0.0759893656 1.30795193
v -0.210401475 0.00407628994 1.28105927
v -0.236260712 -0.0534686409 1.24367547
v -0.244380176 0.00334751979 1.23176074
v -0.26010102 -0.0400298312 1.18940413
v -0.277231187 -0.0829815716 1.2011081
v -0.298010558 -0.0630344972 1.12525392
v -0.314087808 -0.0977773964 1.13723254
v -0.319471836 -0.102371916 1.16467118
v -0.341253877 -0.106405392 1.15128577
v -0.356149435 -0.0990051851 1.16744566
v -0.32727167 -0.0958065167 1.22091103
v -0.295914799 -0.116662033 1.20955753
v -0.333424717 -0.085552536 1.25252414
v -0.283665448 -0.0899414718 1.25612748
v -0.279138595 0.00596333016 1.18920791
v -0.287434697 0.03992204 1.23601115
v -0.299041212 0.0479710959 1.18677402
v -0.323825717 0.00875361916 1.14928555
v -0.333450854 0.0307602584 1.20285046
v -0.372823864 0.00637709023 1.159639
v -0.350347042 0.00709417975 1.13148057
v -0.311294943 -0.0209417604 1.12197447
v -0.336430401 0.040945258 1.23343039
v -0.278549403 0.0655028 1.30085456
v -0.23702468 0.0439889356 1.28540492
v -0.319699705 0.0511409603 1.31937945
v -0.35600692 0.0121563692 1.11633289
v -0.309012562 -0.0187927298 1.10069132
v -0.295756251 -0.0685651004 1.10602546
v -0.316164732 -0.110124312 1.11757982
v -0.348438531 -0.123036839 1.13703668
v -0.385302216 -0.110860489 1.17056429
v -0.360756934 -0.0953674987 1.24948359
v -0.405843228 -0.0515141003 1.2379142
v -0.284618855 -0.0819922164 1.33044398
v -0.323483914 -0.0566038676 1.34833121
v -0.414390236 -0.0327971093 1.21470487
v -0.431847304 -0.0826916471 1.13678038
v -0.409589261 -0.00516871968 1.22331858
v -0.441763729 -0.0399315692 1.13048959
v -0.395193428 0.01674922 1.15947795
v -0.359507591 0.0471758582 1.23127627
v -0.416105121 0.00187252997 1.11389077
v -0.35600692 0.0121563692 1.11633289
v -0.372823864 0.00637709023 1.159639
v -0.350347042 0.00709417975 1.13148057
v -0.336430401 0.040945258 1.23343039
v -0.364974141 0.0348218083 1.29177177
v -0.390623569 0.00992179941 1.27575302
v -0.346739411 0.0372644588 1.28835571
v -0.319699705 0.0511409603 1.31937945
v -0.336390764 0.0199306905 1.33558083
v -0.365562052 0.00940283015 1.35421968
v -0.365562052 0.00940283015 1.35421968
v -0.343305737 -0.0343048684 1.05298615
v -0.334330708 -0.0766075104 1.04655492
v -0.337582231 -0.113489114 1.06712914
v -0.343894392 -0.0843744725 1.04818308
v -0.335908741 -0.105720453 1.04626632
v -0.346631348 -0.0815476626 1.03410053
v -0.333606869 -0.112647325 1.0276984
v -0.347937316 -0.0890938193 1.01498294
v -0.349994153 -0.137114495 1.05756998
v -0.362493902 -0.131618172 1.08453584
v -0.348008335 -0.142508969 1.03797555
v -0.333606869 -0.112647325 1.0276984
v -0.393555641 -0.145405561 1.05082881
v -0.386751235 -0.149879381 1.03071964
v -0.43674019 -0.133505926 1.00865555
v -0.448868692 -0.13080655 1.02598369
v -0.478356719 -0.109995715 0.993958235
v -0.480729938 -0.101805113 1.01688492
v -0.486304909 -0.10069108 0.987550735
v -0.478878736 -0.101359218 0.977886558
v -0.485021859 -0.0834003314 1.01326692
v -0.4879058 -0.0946152061 0.98685813
v -0.481578201 -0.0925466344 0.976828575
v -0.485107303 -0.0800697878 0.990843713
v -0.478878736 -0.101359218 0.977886558
v -0.432714611 -0.0964054391 1.06920552
v -0.445215791 -0.0564879179 1.06407762
v -0.465517938 -0.042107109 1.00914371
v -0.460286766 -0.0410629772 0.990183413
v -0.44176048 -0.0190539304 1.01414764
v -0.428920656 -0.0206299387 0.995267212
v -0.41604507 -0.0142062604 1.01832092
v -0.401749611 -0.026804639 0.999002576
v -0.390820146 -0.0227042008 1.02259219
v -0.381170392 -0.00772212027 1.06608295
v -0.423487395 -0.0221029986 1.06475246
v -0.428304702 -0.0167455003 1.07062173
v -0.451393962 -0.0579021499 1.07066262
v -0.439477861 -0.0957701355 1.07769144
v -0.404123604 -0.125004962 1.08786714
v -0.399864614 -0.120783441 1.07978106
v -0.396660388 -0.120147035 1.12886691
v -0.381170392 -0.00772212027 1.06608295
v -0.355473399 -0.0411888622 1.05213463
v -0.390820146 -0.0227042008 1.02259219
v -0.365552336 -0.0914408863 1.01953292
v -0.376356393 -0.102224663 1.00250459
v -0.401749611 -0.026804639 0.999002576
v -0.460286766 -0.0410629772 0.990183413
v -0.481578201 -0.0925466344 0.976828575
v -0.444921821 -0.0766532123 0.998874187
v -0.448286116 -0.0459032059 0.993849635
v -0.4384709 -0.0352641121 0.994863272
v -0.428920656 -0.0206299387 0.995267212
v -0.478878736 -0.101359218 0.977886558
v -0.43674019 -0.133505926 1.00865555
v -0.429880857 -0.10718292 1.00751543
v -0.40114525 -0.126806393 1.02168834
v -0.386751235 -0.149879381 1.03071964
v -0.377048939 -0.13735415 1.03008509
v -0.396067888 -0.130109951 0.996755064
v -0.418019235 -0.132927746 1.00363612
v -0.348008335 -0.142508969 1.03797555
v -0.360009074 -0.135762796 1.03365529
v -0.350493371 -0.129017413 1.03391433
v -0.333606869 -0.112647325 1.0276984
v -0.342668146 -0.11429932 1.02833092
v -0.352923781 -0.0959313288 1.02025104
v -0.347937316 -0.0890938193 1.01498294
v -0.365552336 -0.0914408863 1.01953292
v -0.376356393 -0.102224663 1.00250459
v -0.316509634 0.0321097486 1.36797845
v -0.294449002 -0.00591717009 1.36404991
v -0.31372273 0.00504863961 1.39714551
v -0.290998995 0.0249011982 1.35257006
v -0.298888624 -0.0463730693 1.37446821
v -0.299606711 0.0554998107 1.34634411
v -0.274834007 -0.0247612987 1.35781991
v -0.269290209 -0.0672357529 1.35722458
v -0.25624001 -0.0243774988 1.34635997
v -0.23255603 -0.0618928783 1.33696485
v -0.238372982 -0.0130547993 1.3319
v -0.203572229 -0.0355748683 1.32021654
v -0.235659003 0.00726672029 1.32389998
v -0.200645462 0.00868188962 1.31216109
v -0.224835664 0.051228527 1.31350756
v -0.263782978 0.0499490015 1.32835996
v -0.262845725 0.0672577992 1.32588577
v -0.282398999 0.0493149981 1.33990991
v -0.299606711 0.0554998107 1.34634411
v -0.451607227 -0.0489793681 0.976982951
v -0.4384709 -0.0352641121 0.994863272
v -0.448286116 -0.0459032059 0.993849635
v -0.44164148 -0.0392184481 0.973008156
v -0.454040289 -0.0591699481 0.976935267
v -0.444921821 -0.0766532123 0.998874187
v -0.444921821 -0.0766532123 0.998874187
v -0.44949457 -0.0650602877 0.975816846
v -0.450563163 -0.0705902353 0.971257925
v -0.454114586 -0.0808747634 0.971206665
v -0.42440486 -0.0583126433 0.96149534
v -0.44642517 -0.0878402889 0.969220102
v -0.445140302 -0.0918108374 0.968911111
v -0.448106378 -0.103471145 0.97116375
v -0.429880857 -0.10718292 1.00751543
v -0.4385252 -0.110638447 0.969722807
v -0.436418056 -0.115351506 0.972893894
v -0.409901232 -0.102756619 0.953624427
v -0.429880857 -0.10718292 1.00751543
v -0.436789393 -0.127514854 0.976425469
v -0.418019235 -0.132927746 1.00363612
v -0.424519956 -0.135681421 0.975325763
v -0.396067888 -0.130109951 0.996755064
v -0.406485409 -0.133834079 0.970735669
v -0.40114525 -0.126806393 1.02168834
v -0.450563163 -0.0705902353 0.971257925
v -0.424314082 -0.0621200353 0.955165744
v -0.417253792 -0.0828786045 0.951203465
v -0.418386519 -0.0802618191 0.952055156
v -0.384285778 -0.123097971 0.983304024
v -0.406485409 -0.133834079 0.970735669
v -0.396067888 -0.130109951 0.996755064
v -0.395233452 -0.1252096 0.962969005
v -0.396609783 -0.0850118622 0.988054812
v -0.40797314 -0.104624309 0.955010056
v -0.409901232 -0.102756619 0.953624427
v -0.417253792 -0.0828786045 0.951203465
v -0.418386519 -0.0802618191 0.952055156
v -0.424314082 -0.0621200353 0.955165744
v -0.42440486 -0.0583126433 0.96149534
v -0.42730701 -0.0396541357 0.968195319
v -0.421838969 -0.0295555089 0.997924984
v -0.376356393 -0.102224663 1.00250459
v -0.377575129 -0.122380301 0.982852459
v -0.44164148 -0.0392184481 0.973008156
v -0.4384709 -0.0352641121 0.994863272
v -0.401749611 -0.026804639 0.999002576
v -0.417253792 -0.0828786045 0.951203465
v -0.44642517 -0.0878402889 0.969220102
v -0.409901232 -0.102756619 0.953624427
v -0.436418056 -0.115351506 0.972893894
v -0.40797314 -0.104624309 0.955010056
v -0.384285778 -0.123097971 0.983304024
v -0.383013159 -0.134096041 0.991030335
v -0.377575129 -0.122380301 0.982852459
v -0.396067888 -0.130109951 0.996755064
v -0.372577161 -0.14661172 1.0126816
v -0.367124826 -0.154347718 0.994989514
v -0.375678629 -0.13933818 0.984443784
v -0.370693624 -0.125244647 0.976655424
v -0.377575129 -0.122380301 0.982852459
v -0.377048939 -0.13735415 1.03008509
v -0.355950683 -0.143595681 1.01913059
v -0.349244297 -0.154473558 1.00201893
v -0.33852908 -0.145527542 1.00120008
v -0.345021278 -0.136974469 1.02035141
v -0.360009074 -0.135762796 1.03365529
v -0.350493371 -0.129017413 1.03391433
v -0.341576904 -0.118666261 1.01371682
v -0.338760495 -0.128513068 0.996170342
v -0.344974935 -0.117145032 0.989104211
v -0.349007457 -0.107444182 1.00143313
v -0.352923781 -0.0959313288 1.02025104
v -0.342668146 -0.11429932 1.02833092
v -0.376356393 -0.102224663 1.00250459
v -0.377575129 -0.122380301 0.982852459
v -0.370693624 -0.125244647 0.976655424
v -0.339266479 -0.127918944 0.975232065
v -0.360108167 -0.133256435 0.967930734
v -0.341126472 -0.133415669 0.974405885
v -0.356416553 -0.138955608 0.969489574
v -0.334088445 -0.14164342 0.976458132
v -0.332706779 -0.135640904 0.957349598
v -0.329689741 -0.145742938 0.964004517
v -0.329011768 -0.147005811 0.952191114
v -0.33175835 -0.148922607 0.926784039
v -0.331834376 -0.15856047 0.966362059
v -0.329550266 -0.158748209 0.950968683
v -0.33175835 -0.148922607 0.926784039
v -0.343747586 -0.162835836 0.962905347
v -0.338043362 -0.161751032 0.949133635
v -0.33175835 -0.148922607 0.926784039
v -0.348366052 -0.158334419 0.971570671
v -0.335563809 -0.153837681 0.975214958
v -0.35159567 -0.153604478 0.957648277
v -0.356526434 -0.149664536 0.969758451
v -0.352484196 -0.142688096 0.952314496
v -0.345961511 -0.152998611 0.948528945
v -0.33175835 -0.148922607 0.926784039
v -0.358439445 -0.15040946 0.96942687
v -0.360108167 -0.133256435 0.967930734
v -0.339704961 -0.160685062 0.973265946
v -0.356416553 -0.138955608 0.969489574
v -0.335563809 -0.153837681 0.975214958
v -0.348366052 -0.158334419 0.971570671
v -0.33175835 -0.148922607 0.926784039
v -0.352484196 -0.142688096 0.952314496
v -0.356416553 -0.138955608 0.969489574
v -0.352484196 -0.142688096 0.952314496
v -0.352484196 -0.142688096 0.952314496
v -0.356416553 -0.138955608 0.969489574
v -0.342668146 -0.11429932 1.02833092
v -0.421838969 -0.0295555089 0.997924984
v -0.401749611 -0.026804639 0.999002576
v -0.4384709 -0.0352641121 0.994863272
v -0.425859213 -0.0644633397 0.937033355
v -0.418386519 -0.0802618191 0.952055156
v -0.424314082 -0.0621200353 0.955165744
v -0.419689536 -0.0827635154 0.937847137
v -0.428631365 -0.0684722587 0.918398261
v -0.428631365 -0.0684722587 0.918398261
v -0.424492091 -0.0851361901 0.919235766
v -0.428631365 -0.0684722587 0.918398261
v -0.434684128 -0.0870995969 0.918499589
v -0.43725124 -0.0751327947 0.917924404
v -0.446324527 -0.0735696331 0.917185962
v -0.454296052 -0.0745034143 0.938361168
v -0.45514673 -0.0760471597 0.916585147
v -0.455037981 -0.0787710845 0.91665709
v -0.455939025 -0.0843711346 0.938755155
v -0.454114586 -0.0808747634 0.971206665
v -0.450563163 -0.0705902353 0.971257925
v -0.424314082 -0.0621200353 0.955165744
v -0.425859213 -0.0644633397 0.937033355
v -0.44642517 -0.0878402889 0.969220102
v -0.449080497 -0.0913413763 0.939412296
v -0.419689536 -0.0827635154 0.937847137
v -0.418386519 -0.0802618191 0.952055156
v -0.443193555 -0.0917497203 0.917990565
v -0.424492091 -0.0851361901 0.919235766
v -0.452385634 -0.0900633782 0.917255163
v -0.449970692 -0.0924086347 0.917470813
v -0.428631365 -0.0684722587 0.918398261
v -0.455037981 -0.0787710845 0.91665709
v -0.434684128 -0.0870995969 0.918499589
v -0.424492091 -0.0851361901 0.919235766
v -0.428631365 -0.0684722587 0.918398261
v -0.436418056 -0.115351506 0.972893894
v -0.43986702 -0.130647957 0.948024571
v -0.439587116 -0.11816103 0.947156906
v -0.436789393 -0.127514854 0.976425469
v -0.40797314 -0.104624309 0.955010056
v -0.409310073 -0.106157631 0.941685855
v -0.400744915 -0.12622194 0.943138301
v -0.395233452 -0.1252096 0.962969005
v -0.439433455 -0.126061216 0.921944916
v -0.440755755 -0.122258164 0.921333015
v -0.413394302 -0.111068487 0.92337513
v -0.405835181 -0.130338401 0.925741613
v -0.430164784 -0.138157055 0.949402809
v -0.432693154 -0.141795486 0.924553335
v -0.413659245 -0.137034506 0.947348714
v -0.406485409 -0.133834079 0.970735669
v -0.424519956 -0.135681421 0.975325763
v -0.395233452 -0.1252096 0.962969005
v -0.400744915 -0.12622194 0.943138301
v -0.418642849 -0.138225302 0.925209463
v -0.423675954 -0.13535659 0.924629211
v -0.436460793 -0.135810956 0.923488796
v -0.412891299 -0.13015008 0.925030887
v -0.400744915 -0.12622194 0.943138301
v -0.405835181 -0.130338401 0.925741613
v -0.412891299 -0.13015008 0.925030887
v -0.405835181 -0.130338401 0.925741613
v -0.440755755 -0.122258164 0.921333015
v -0.429293513 -0.117570579 0.922188461
v -0.439433455 -0.126061216 0.921944916
v -0.416548759 -0.117619753 0.923563719
v -0.405835181 -0.130338401 0.925741613
v -0.412891299 -0.13015008 0.925030887
v -0.416548759 -0.117619753 0.923563719
v -0.428732395 -0.119118661 0.908869445
v -0.417374641 -0.118280225 0.912975967
v -0.429293513 -0.117570579 0.922188461
v -0.412891299 -0.13015008 0.925030887
v -0.413147539 -0.133175179 0.915389061
v -0.417111874 -0.120104685 0.894759476
v -0.428195119 -0.121089675 0.890648782
v -0.438769907 -0.127179161 0.906647265
v -0.437850624 -0.129791528 0.889880121
v -0.434074521 -0.14255397 0.891867936
v -0.435273349 -0.139303908 0.908411026
v -0.42181927 -0.142655715 0.894054294
v -0.423051447 -0.139203534 0.912099004
v -0.423675954 -0.13535659 0.924629211
v -0.412891299 -0.13015008 0.925030887
v -0.413147539 -0.133175179 0.915389061
v -0.436460793 -0.135810956 0.923488796
v -0.429231912 -0.123206384 0.880963981
v -0.428982079 -0.137227252 0.864498019
v -0.419623166 -0.122938961 0.881049275
v -0.428982079 -0.137227252 0.864498019
v -0.412546962 -0.135594711 0.89723891
v -0.422805279 -0.144214436 0.884409547
v -0.414987832 -0.138125762 0.883559763
v -0.412546962 -0.135594711 0.89723891
v -0.428982079 -0.137227252 0.864498019
v -0.412546962 -0.135594711 0.89723891
v -0.428982079 -0.137227252 0.864498019
v -0.414987832 -0.138125762 0.883559763
v -0.412546962 -0.135594711 0.89723891
v -0.412546962 -0.135594711 0.89723891
v -0.428982079 -0.137227252 0.864498019
v -0.439433455 -0.126061216 0.921944916
v -0.455037981 -0.0787710845 0.91665709
v -0.454128027 -0.0917901024 0.901498675
v -0.456182778 -0.0792381987 0.901544929
v -0.452385634 -0.0900633782 0.917255163
v -0.450977862 -0.0914496705 0.884966254
v -0.452770412 -0.0790231079 0.884910583
v -0.445468932 -0.0727006644 0.90488404
v -0.444496691 -0.0736589879 0.888864577
v -0.443829954 -0.07450369 0.876559138
v -0.436178058 -0.0774796978 0.87625289
v -0.43435356 -0.0758062899 0.890033066
v -0.432377696 -0.0897266865 0.890222609
v -0.437015712 -0.0753419399 0.906272054
v -0.43725124 -0.0751327947 0.917924404
v -0.446324527 -0.0735696331 0.917185962
v -0.434684128 -0.0870995969 0.918499589
v -0.434730381 -0.0889012963 0.906473041
v -0.434376925 -0.0905344784 0.876389265
v -0.444753975 -0.0863218755 0.861181498
v -0.444753975 -0.0863218755 0.861181498
v -0.444753975 -0.0863218755 0.861181498
v -0.441078097 -0.0941333473 0.876769185
v -0.441334635 -0.0946841016 0.888642728
v -0.434376925 -0.0905344784 0.876389265
v -0.444753975 -0.0863218755 0.861181498
v -0.442068845 -0.093302846 0.904499888
v -0.434730381 -0.0889012963 0.906473041
v -0.432377696 -0.0897266865 0.890222609
v -0.434376925 -0.0905344784 0.876389265
v -0.434684128 -0.0870995969 0.918499589
v -0.443193555 -0.0917497203 0.917990565
v -0.444753975 -0.0863218755 0.861181498
v -0.434376925 -0.0905344784 0.876389265
v -0.417253792 -0.0828786045 0.951203465
v -0.41090101 -0.105283104 0.93717885
v -0.409901232 -0.102756619 0.953624427
v -0.418569088 -0.0842558295 0.935259819
v -0.423187613 -0.0884798393 0.916701615
v -0.418569088 -0.0842558295 0.935259819
v -0.415746748 -0.107637845 0.918516994
v -0.431951195 -0.0953313783 0.916659594
v -0.427886307 -0.107196793 0.917697608
v -0.442546964 -0.0953988656 0.916138828
v -0.450052798 -0.0954066664 0.937911689
v -0.452011973 -0.0986013189 0.915853322
v -0.452050567 -0.102631174 0.916302979
v -0.450373054 -0.106662035 0.939161122
v -0.448106378 -0.103471145 0.97116375
v -0.445140302 -0.0918108374 0.968911111
v -0.417253792 -0.0828786045 0.951203465
v -0.418569088 -0.0842558295 0.935259819
v -0.4482328 -0.113579318 0.91712606
v -0.4385252 -0.110638447 0.969722807
v -0.443050027 -0.114949919 0.939316154
v -0.41090101 -0.105283104 0.93717885
v -0.409901232 -0.102756619 0.953624427
v -0.415746748 -0.107637845 0.918516994
v -0.436410427 -0.11355719 0.917585969
v -0.452050567 -0.102631174 0.916302979
v -0.445639938 -0.116625242 0.917199612
v -0.427886307 -0.107196793 0.917697608
v -0.423187613 -0.0884798393 0.916701615
v -0.418569088 -0.0842558295 0.935259819
v -0.429867387 -0.0444944575 0.945413589
v -0.42440486 -0.0583126433 0.96149534
v -0.42730701 -0.0396541357 0.968195319
v -0.425480157 -0.0615764596 0.945110023
v -0.44164148 -0.0392184481 0.973008156
v -0.444787741 -0.0434014313 0.945194244
v -0.45661822 -0.0531443208 0.945497692
v -0.451607227 -0.0489793681 0.976982951
v -0.454040289 -0.0591699481 0.976935267
v -0.457966805 -0.0623353049 0.945676804
v -0.455574572 -0.0573008247 0.925436676
v -0.455790699 -0.0555557013 0.925322652
v -0.444707632 -0.0486768335 0.928169906
v -0.432105482 -0.0477757454 0.929531217
v -0.425480157 -0.0615764596 0.945110023
v -0.427455783 -0.063622646 0.931262553
v -0.44949457 -0.0650602877 0.975816846
v -0.452489525 -0.0690566674 0.946952164
v -0.453246742 -0.0674629509 0.925960064
v -0.451336622 -0.0706958696 0.926408052
v -0.432595193 -0.0633816496 0.929498851
v -0.435502321 -0.0515612289 0.929128647
v -0.447309613 -0.0519517027 0.927166164
v -0.450872302 -0.0679546893 0.916833878
v -0.45347479 -0.0565424562 0.915781379
v -0.450958103 -0.0570714287 0.903102994
v -0.448251873 -0.0693048015 0.904262245
v -0.441879749 -0.0629939288 0.876498878
v -0.443429351 -0.0683538318 0.928015471
v -0.427455783 -0.063622646 0.931262553
v -0.425480157 -0.0615764596 0.945110023
v -0.44949457 -0.0650602877 0.975816846
v -0.432595193 -0.0633816496 0.929498851
v -0.440716475 -0.0692929476 0.91920948
v -0.44490394 -0.0508773513 0.917480648
v -0.434002191 -0.0512945168 0.91970557
v -0.432595193 -0.0633816496 0.929498851
v -0.431094795 -0.0640213788 0.920871794
v -0.430138201 -0.0645930022 0.910458565
v -0.433249325 -0.0509071201 0.909102738
v -0.442376614 -0.0502134375 0.906247914
v -0.432903826 -0.0532793924 0.89841485
v -0.44082728 -0.0531410053 0.896129906
v -0.441879749 -0.0629939288 0.876498878
v -0.43025288 -0.0649214908 0.899628639
v -0.431094795 -0.0640213788 0.920871794
v -0.430138201 -0.0645930022 0.910458565
v -0.437939644 -0.0697699785 0.908226013
v -0.43025288 -0.0649214908 0.899628639
v -0.43025288 -0.0649214908 0.899628639
v -0.441879749 -0.0629939288 0.876498878
v -0.437797755 -0.0691029057 0.897757232
v -0.441879749 -0.0629939288 0.876498878
v -0.43025288 -0.0649214908 0.899628639
v -0.441879749 -0.0629939288 0.876498878
v -0.425480157 -0.0615764596 0.945110023
v -0.42440486 -0.0583126433 0.96149534
v -0.435648322 -0.115792476 0.904139936
v -0.427886307 -0.107196793 0.917697608
v -0.42571491 -0.108128309 0.905570149
v -0.436410427 -0.11355719 0.917585969
v -0.447650075 -0.115382381 0.901704311
v -0.4482328 -0.113579318 0.91712606
v -0.452050567 -0.102631174 0.916302979
v -0.451717973 -0.103368506 0.900518835
v -0.442546964 -0.0953988656 0.916138828
v -0.442578107 -0.0953069404 0.902122736
v -0.431951195 -0.0953313783 0.916659594
v -0.430162042 -0.0949867219 0.90426898
v -0.427886307 -0.107196793 0.917697608
v -0.42571491 -0.108128309 0.905570149
v -0.42497322 -0.109058559 0.886744797
v -0.433812976 -0.116265535 0.885735631
v -0.446187824 -0.116231143 0.882241368
v -0.449941009 -0.104631461 0.88107425
v -0.440354943 -0.0961292237 0.88362366
v -0.42920211 -0.0960316733 0.885412335
v -0.431559861 -0.0976695344 0.872627497
v -0.441701889 -0.0974001884 0.874628067
v -0.444743305 -0.111829028 0.856074512
v -0.427455962 -0.11056342 0.873951852
v -0.42497322 -0.109058559 0.886744797
v -0.427455962 -0.11056342 0.873951852
v -0.427455962 -0.11056342 0.873951852
v -0.435378939 -0.117201291 0.876703978
v -0.427455962 -0.11056342 0.873951852
v -0.444743305 -0.111829028 0.856074512
v -0.444743305 -0.111829028 0.856074512
v -0.444743305 -0.111829028 0.856074512
v -0.444743305 -0.111829028 0.856074512
vt 0.191127658 0.687601984
vt 0.136932969 0.684938252
vt 0.186481774 0.716058969
vt 0.254469216 0.709913909
vt 0.233719617 0.752962589
vt 0.182857782 0.772910655
vt 0.252849877 0.798757017
vt 0.163277566 0.877668381
vt 0.211048603 0.880775213
vt 0.169182539 0.899380922
vt 0.274601877 0.822049856
vt 0.292690516 0.914390028
vt 0.188557327 0.976362944
vt 0.124903455 0.947060287
vt 0.119388014 0.965956926
vt 0.188742757 0.991655111
vt 0.296828717 0.978699148
vt 0.295358151 0.961286008
vt 0.377947181 0.978472114
vt 0.380968601 0.95986861
vt 0.463879317 0.981939793
vt 0.464256346 0.958953023
vt 0.0515053496 0.950827599
vt 0.0555630326 0.967088521
vt 0.153413147 0.896939278
vt 0.163277566 0.877668381
vt 0.0427482016 0.910877526
vt 0.381940424 0.915960014
vt 0.469360232 0.919260859
vt 0.551793933 0.969723642
vt 0.463879317 0.981939793
vt 0.550100625 0.986239672
vt 0.640896618 0.974322498
vt 0.639950275 0.990276992
vt 0.735629916 0.984039545
vt 0.733510137 0.968087673
vt 0.8187536 0.970030427
vt 0.818331063 0.951224208
vt 0.728393674 0.930600524
vt 0.819965005 0.919233382
vt 0.904672384 0.945832133
vt 0.8187536 0.970030427
vt 0.897906423 0.96234715
vt 0.915775836 0.905013621
vt 0.643228233 0.93340373
vt 0.556681752 0.928651989
vt 0.557938635 0.902466118
vt 0.470113039 0.894531131
vt 0.643412292 0.906825185
vt 0.557267964 0.810835063
vt 0.66045326 0.805563033
vt 0.598145008 0.713291287
vt 0.519858301 0.702860594
vt 0.58152616 0.578591287
vt 0.506942213 0.570868015
vt 0.47247541 0.60833621
vt 0.449035674 0.568341434
vt 0.41291222 0.584713161
vt 0.408998668 0.688878536
vt 0.464832306 0.691709518
vt 0.376251012 0.735780299
vt 0.453907877 0.778750777
vt 0.680813253 0.714565158
vt 0.760295868 0.785025358
vt 0.747403085 0.708096802
vt 0.726850212 0.617872775
vt 0.80279547 0.691361666
vt 0.807692349 0.583468676
vt 0.750100672 0.569115222
vt 0.66388154 0.579126656
vt 0.833738208 0.735725164
vt 0.816009402 0.893883646
vt 0.728649557 0.902829468
vt 0.89549613 0.872828484
vt 0.75804317 0.540607154
vt 0.66161412 0.545522034
vt 0.57997787 0.544406891
vt 0.506355286 0.527096272
vt 0.442986101 0.52701664
vt 0.363513947 0.560668707
vt 0.348113775 0.703219414
vt 0.248017907 0.663664818
vt 0.385004729 0.892581403
vt 0.298152834 0.892916799
vt 0.20878768 0.624745369
vt 0.284740359 0.483635902
vt 0.158451021 0.644595683
vt 0.210363805 0.475399792
vt 0.0900075585 0.551022291
vt 0.0432711951 0.693963826
vt 0.12548098 0.464306176
vt 0.0229493491 0.474357605
vt 0.046224393 0.553048491
vt 0.0112132831 0.501379848
vt 0.00911194459 0.711585581
vt 0.0978757516 0.784760058
vt 0.143514961 0.740487397
vt 0.0666156784 0.793597937
vt 0.0431956239 0.869761407
vt 0.106209703 0.871654689
vt 0.163277566 0.877668381
vt 0.163277566 0.877668381
vt 0.662830412 0.443923831
vt 0.594110608 0.423416972
vt 0.523121655 0.430078834
vt 0.585667312 0.405846566
vt 0.547552109 0.399612427
vt 0.598239243 0.381498069
vt 0.546504498 0.366252661
vt 0.585694849 0.348434985
vt 0.48612684 0.392128021
vt 0.454700708 0.430662245
vt 0.497990668 0.360250086
vt 0.546504498 0.366252661
vt 0.425112814 0.349304229
vt 0.449264675 0.321494222
vt 0.380478263 0.252284527
vt 0.35375458 0.275433004
vt 0.307970941 0.208107501
vt 0.29230234 0.245619074
vt 0.290213913 0.195404321
vt 0.300208688 0.176885396
vt 0.26808992 0.241131067
vt 0.281748176 0.194638997
vt 0.275192529 0.174950764
vt 0.259514213 0.204766303
vt 0.300208688 0.176885396
vt 0.311481595 0.36686632
vt 0.22886911 0.354939252
vt 0.197131693 0.252290368
vt 0.183732301 0.221780539
vt 0.14944616 0.274818152
vt 0.122499049 0.246564388
vt 0.109717935 0.29156661
vt 0.0758815408 0.260091722
vt 0.0657395348 0.304389924
vt 0.0721543878 0.384600192
vt 0.151654184 0.367597282
vt 0.153707027 0.384002119
vt 0.233570516 0.370244086
vt 0.303208053 0.382448763
vt 0.379870534 0.413982511
vt 0.385958821 0.399803489
vt 0.372344375 0.48487395
vt 0.741936266 0.439058453
vt 0.665154517 0.42174083
vt 0.728306949 0.364087641
vt 0.607872784 0.336855948
vt 0.602757096 0.297745198
vt 0.737829387 0.320073366
vt 0.925355554 0.67217797
vt 0.992115796 0.610778034
vt 0.919887662 0.609514475
vt 0.90944612 0.658026159
vt 0.889034808 0.668576777
vt 0.867007017 0.685331404
vt 0.993019223 0.596204519
vt 0.934922218 0.518499792
vt 0.911331058 0.554578543
vt 0.874949753 0.507484734
vt 0.863376975 0.463371485
vt 0.843654215 0.478310198
vt 0.848313272 0.538793385
vt 0.882591784 0.545486033
vt 0.800192118 0.458051503
vt 0.816239059 0.474183828
vt 0.798314571 0.480521321
vt 0.764619172 0.499603778
vt 0.779124498 0.501019061
vt 0.78559643 0.536146939
vt 0.77387774 0.546658039
vt 0.802794337 0.548673391
vt 0.832470834 0.527917683
vt 0.787361503 0.252124429
vt 0.8619169 0.266105175
vt 0.833369493 0.205121934
vt 0.81469512 0.295427769
vt 0.926426649 0.23489134
vt 0.760995269 0.306198418
vt 0.90260756 0.291973323
vt 0.974655509 0.281788796
vt 0.912028432 0.328546882
vt 0.985311031 0.352263749
vt 0.903667331 0.371338487
vt 0.958939195 0.419166625
vt 0.872369766 0.391270876
vt 0.889739871 0.451525837
vt 0.807848692 0.436726689
vt 0.788410306 0.368803442
vt 0.760970354 0.38022539
vt 0.780817986 0.332369834
vt 0.760995269 0.306198418
vt 0.61424762 0.237868622
vt 0.635552704 0.197575584
vt 0.611650884 0.206727341
vt 0.639071286 0.236633018
vt 0.597123563 0.244531795
vt 0.556935012 0.212961599
vt 0.556935012 0.212961599
vt 0.58283323 0.251648217
vt 0.576514423 0.258247942
vt 0.562997401 0.261386365
vt 0.590851843 0.302494973
vt 0.550579369 0.263546169
vt 0.547775924 0.26549685
vt 0.527748644 0.270823866
vt 0.491153866 0.211923227
vt 0.510428846 0.276336402
vt 0.500080168 0.276155084
vt 0.528761327 0.327450275
vt 0.491153866 0.211923227
vt 0.477058083 0.276982367
vt 0.445186406 0.227164552
vt 0.450848073 0.277488083
vt 0.406101286 0.233286694
vt 0.418330133 0.28060025
vt 0.432525516 0.185053959
vt 0.576514423 0.258247942
vt 0.580713093 0.301630706
vt 0.558209479 0.315858573
vt 0.558542311 0.315839857
vt 0.960847676 0.870567441
vt 0.923658192 0.902741313
vt 0.97246927 0.902855694
vt 0.920554638 0.875516117
vt 0.951151431 0.799742401
vt 0.894160807 0.842476666
vt 0.891686499 0.841275454
vt 0.883543789 0.810693562
vt 0.883563399 0.810360849
vt 0.871986806 0.786708474
vt 0.874006569 0.776735365
vt 0.867491722 0.742090821
vt 0.913844287 0.702479064
vt 0.994950593 0.828826129
vt 0.971705377 0.87300998
vt 0.85497421 0.717689216
vt 0.885773063 0.691117525
vt 0.950946033 0.698489964
vt 0.558209479 0.315858573
vt 0.550579369 0.263546169
vt 0.528761327 0.327450275
vt 0.500080168 0.276155084
vt 0.527851582 0.330045849
vt 0.00814312696 0.127145007
vt 0.029347498 0.139165625
vt 0.0127402917 0.117479198
vt 0.0137364287 0.159113914
vt 0.06905929 0.166086167
vt 0.0717701539 0.133357301
vt 0.0407207049 0.122248694
vt 0.0201140419 0.102083154
vt 0.0127402917 0.117479198
vt 0.0682301372 0.19998996
vt 0.10077738 0.171694577
vt 0.102014966 0.13645561
vt 0.123567015 0.13441889
vt 0.123589531 0.171846583
vt 0.101697683 0.200647637
vt 0.125056878 0.200175956
vt 0.157910228 0.169935212
vt 0.15264681 0.134262607
vt 0.17756556 0.129957959
vt 0.186891511 0.156771615
vt 0.196092203 0.194258958
vt 0.156774551 0.196546912
vt 0.235078484 0.160038739
vt 0.232604548 0.111516491
vt 0.21978876 0.100543976
vt 0.165410683 0.0997022688
vt 0.199446633 0.0812759325
vt 0.163440704 0.0892010257
vt 0.190484926 0.0727161914
vt 0.141190648 0.0931558311
vt 0.150524482 0.059286885
vt 0.135753393 0.0706424713
vt 0.132858351 0.0509335957
vt 0.121650368 0.00861623231
vt 0.115869209 0.0730665103
vt 0.116011329 0.05031991
vt 0.121650368 0.00861623231
vt 0.0964112654 0.0706314072
vt 0.104121082 0.048783116
vt 0.121650368 0.00861623231
vt 0.0910729244 0.0867090374
vt 0.117815472 0.0863364264
vt 0.07899151 0.0599444881
vt 0.0685161427 0.0818651244
vt 0.0663288087 0.0424567573
vt 0.0880645663 0.0430099852
vt 0.121650368 0.00861623231
vt 0.0680496991 0.0865971893
vt 0.0388238318 0.0799349919
vt 0.106889203 0.0867339
vt 0.0506326742 0.0748931915
vt 0.117815472 0.0863364264
vt 0.0910729244 0.0867090374
vt 0.121650368 0.00861623231
vt 0.178196117 0.0397344083
vt 0.190484926 0.0727161914
vt 0.178196117 0.0397344083
vt 0.0663288087 0.0424567573
vt 0.0506326742 0.0748931915
vt 0.156774551 0.196546912
vt 0.860783517 0.667885721
vt 0.829211533 0.661824524
vt 0.889034808 0.668576777
vt 0.447171509 0.14514935
vt 0.413589358 0.164142638
vt 0.445946276 0.175835162
vt 0.414889038 0.138292581
vt 0.450333357 0.114823647
vt 0.450333357 0.114823647
vt 0.424966514 0.104151495
vt 0.450333357 0.114823647
vt 0.435713172 0.0889715925
vt 0.457213342 0.098558642
vt 0.477551103 0.101187594
vt 0.497473061 0.137662321
vt 0.494318247 0.100850783
vt 0.498099089 0.0995161012
vt 0.51376909 0.13603428
vt 0.516988933 0.192289531
vt 0.498420715 0.195668578
vt 0.445946276 0.175835162
vt 0.447171509 0.14514935
vt 0.534712136 0.187211454
vt 0.529946804 0.13551712
vt 0.582325995 0.133529782
vt 0.585467458 0.158449501
vt 0.538753271 0.0977035537
vt 0.573252738 0.101664104
vt 0.520863652 0.0976620391
vt 0.526455104 0.0984772518
vt 0.450333357 0.114823647
vt 0.498099089 0.0995161012
vt 0.556039751 0.096482344
vt 0.573252738 0.101664104
vt 0.450333357 0.114823647
vt 0.88762027 0.201195121
vt 0.908819556 0.154789954
vt 0.888728678 0.156274557
vt 0.910946727 0.204368919
vt 0.830240667 0.175077766
vt 0.833580971 0.152721971
vt 0.798211038 0.141720653
vt 0.784964442 0.175555527
vt 0.893817663 0.110590063
vt 0.889605522 0.112647317
vt 0.841118157 0.121433385
vt 0.808902144 0.109759919
vt 0.928910136 0.155920744
vt 0.922617257 0.114482857
vt 0.956839025 0.151876122
vt 0.970146954 0.192286402
vt 0.937801003 0.200896442
vt 0.994693279 0.178008884
vt 0.985289693 0.143006772
vt 0.94604826 0.11436256
vt 0.938718796 0.107464515
vt 0.913987577 0.109777398
vt 0.96016556 0.105862223
vt 0.985289693 0.143006772
vt 0.97148329 0.112433024
vt 0.96016556 0.105862223
vt 0.97148329 0.112433024
vt 0.889605522 0.112647317
vt 0.868166149 0.113062613
vt 0.893817663 0.110590063
vt 0.842085063 0.110339634
vt 0.808902144 0.109759919
vt 0.818965435 0.101074196
vt 0.842085063 0.110339634
vt 0.86916399 0.0898314193
vt 0.84786284 0.0921335891
vt 0.868166149 0.113062613
vt 0.818965435 0.101074196
vt 0.821524322 0.083844699
vt 0.85502845 0.0617586747
vt 0.873244286 0.0592767075
vt 0.891758382 0.0859141126
vt 0.893179715 0.0585701987
vt 0.911269963 0.0560583025
vt 0.913805366 0.0836739317
vt 0.930153012 0.0527684391
vt 0.935668588 0.08464811
vt 0.938718796 0.107464515
vt 0.96016556 0.105862223
vt 0.956179857 0.0872322395
vt 0.913987577 0.109777398
vt 0.8784796 0.0443365648
vt 0.892617047 0.0108998008
vt 0.865771651 0.041627191
vt 0.892617047 0.0108998008
vt 0.830559611 0.0501504615
vt 0.921185911 0.0379807428
vt 0.934073865 0.0287571996
vt 0.950200915 0.0525673702
vt 0.892617047 0.0108998008
vt 0.950200915 0.0525673702
vt 0.892617047 0.0108998008
vt 0.847304165 0.0244742036
vt 0.830559611 0.0501504615
vt 0.830559611 0.0501504615
vt 0.892617047 0.0108998008
vt 0.893817663 0.110590063
vt 0.498099089 0.0995161012
vt 0.518608928 0.0722776055
vt 0.498378575 0.0753761604
vt 0.520863652 0.0976620391
vt 0.515666485 0.045011349
vt 0.498105824 0.0484277532
vt 0.477276683 0.0795384273
vt 0.482208073 0.0528468862
vt 0.486497223 0.0334405378
vt 0.476909995 0.0288357809
vt 0.466703594 0.0494527593
vt 0.446284413 0.0388377234
vt 0.46204865 0.0775569454
vt 0.457213342 0.098558642
vt 0.477551103 0.101187594
vt 0.435713172 0.0889715925
vt 0.439514041 0.0693054348
vt 0.462754965 0.0139267966
vt 0.500280797 0.00425247848
vt 0.500280797 0.00425247848
vt 0.500280797 0.00425247848
vt 0.524161041 0.0261967778
vt 0.53267169 0.0453618988
vt 0.53386873 0.0187795684
vt 0.500280797 0.00425247848
vt 0.538757861 0.0729943886
vt 0.553442955 0.0738327727
vt 0.549543083 0.0421314612
vt 0.53386873 0.0187795684
vt 0.556039751 0.096482344
vt 0.538753271 0.0977035537
vt 0.500280797 0.00425247848
vt 0.462754965 0.0139267966
vt 0.628241122 0.182859093
vt 0.592206061 0.149393708
vt 0.589998901 0.179227293
vt 0.62957108 0.156416118
vt 0.63479811 0.125732034
vt 0.62957108 0.156416118
vt 0.603189826 0.115165658
vt 0.643019438 0.109378405
vt 0.619934499 0.101157047
vt 0.66591984 0.111708023
vt 0.685036302 0.149073541
vt 0.683737576 0.111792125
vt 0.689188123 0.110066094
vt 0.703344643 0.148385763
vt 0.706558228 0.203963548
vt 0.685190618 0.203834474
vt 0.628241122 0.182859093
vt 0.62957108 0.156416118
vt 0.71109724 0.108672939
vt 0.727231383 0.200014502
vt 0.721389711 0.146935433
vt 0.778705418 0.146391571
vt 0.780168533 0.175277323
vt 0.770779371 0.114201672
vt 0.733364642 0.108847059
vt 0.689188123 0.110066094
vt 0.716536403 0.109986357
vt 0.752151012 0.105367936
vt 0.63479811 0.125732034
vt 0.62957108 0.156416118
vt 0.278775215 0.122335002
vt 0.245775878 0.139105141
vt 0.272099227 0.162034303
vt 0.251306117 0.110338956
vt 0.297598064 0.172233284
vt 0.30337134 0.124266848
vt 0.32805714 0.122884363
vt 0.324655801 0.177627385
vt 0.345841855 0.17504175
vt 0.34207356 0.121386245
vt 0.329524368 0.0879647508
vt 0.327507287 0.0887824148
vt 0.305674732 0.0937892124
vt 0.285314381 0.0948613957
vt 0.251306117 0.110338956
vt 0.259478301 0.0862163603
vt 0.361476868 0.170827612
vt 0.355334371 0.121390432
vt 0.348120481 0.0860624015
vt 0.352455974 0.0874946192
vt 0.266377062 0.0788507313
vt 0.287706375 0.0867392048
vt 0.31096822 0.0890482888
vt 0.34851563 0.0713238046
vt 0.328083754 0.0724059418
vt 0.328776509 0.0516777895
vt 0.347543597 0.0503256284
vt 0.331497371 0.00333090965
vt 0.366301805 0.0870523229
vt 0.395579129 0.0891151205
vt 0.402055204 0.114462271
vt 0.361476868 0.170827612
vt 0.386981547 0.0842294991
vt 0.366657287 0.070146367
vt 0.310152352 0.0723124593
vt 0.291137397 0.0699792579
vt 0.266377062 0.0788507313
vt 0.269562483 0.0634286553
vt 0.275171161 0.0433598794
vt 0.296441227 0.0528955422
vt 0.311163902 0.0535119139
vt 0.302476972 0.0361694694
vt 0.315088987 0.0366175845
vt 0.331497371 0.00333090965
vt 0.287607342 0.0240979269
vt 0.385410547 0.0676962733
vt 0.380927831 0.0476958342
vt 0.365098417 0.0501890294
vt 0.287607342 0.0240979269
vt 0.371159613 0.0286087431
vt 0.331497371 0.00333090965
vt 0.357344478 0.0334351435
vt 0.331497371 0.00333090965
vt 0.371159613 0.0286087431
vt 0.331497371 0.00333090965
vt 0.402055204 0.114462271
vt 0.406436592 0.143909484
vt 0.731063724 0.0841089413
vt 0.752151012 0.105367936
vt 0.752457678 0.08346764
vt 0.733364642 0.108847059
vt 0.710489571 0.0833974257
vt 0.71109724 0.108672939
vt 0.689188123 0.110066094
vt 0.688697457 0.0846293345
vt 0.66591984 0.111708023
vt 0.667734921 0.087358214
vt 0.643019438 0.109378405
vt 0.646291912 0.0866239145
vt 0.619934499 0.101157047
vt 0.623022556 0.0810096338
vt 0.747573793 0.0488375425
vt 0.728475571 0.0517099872
vt 0.707671225 0.0508003607
vt 0.689896345 0.0524949059
vt 0.669334412 0.0560238585
vt 0.651521504 0.0548658445
vt 0.66098094 0.036586158
vt 0.674189746 0.0423903316
vt 0.692792833 0.00716925412
vt 0.646166384 0.0219835639
vt 0.630540133 0.046123676
vt 0.646166384 0.0219835639
vt 0.734825194 0.0264197886
vt 0.721069336 0.0372982994
vt 0.734825194 0.0264197886
vt 0.692792833 0.00716925412
vt 0.692792833 0.00716925412
vt 0.692792833 0.00716925412
vt 0.692792833 0.00716925412
vn -0.990690351 0.0414264426 0.129678458
vn -0.720318854 0.693481565 0.0149672404
vn -0.822097898 0.166229621 0.544539094
vn -0.693896294 -0.585068822 0.419764638
vn -0.673347175 -0.354718238 0.648674548
vn -0.792207301 0.111427113 0.59999305
vn -0.500393212 -0.585753262 0.637573361
vn -0.707947075 0.157733679 0.688426495
vn -0.734578371 -0.619364023 0.277097315
vn -0.689121187 -0.211079538 0.693222523
vn -0.471004605 -0.687904 0.552216232
vn -0.737369835 -0.648875058 0.187741861
vn -0.461996466 0.0916102305 0.882137656
vn -0.32227838 0.631193578 0.705500841
vn 0.362941802 0.535377979 0.762655616
vn 0.292276859 0.251678556 0.922622383
vn 0.441001028 -0.126837477 0.888498902
vn -0.0377264991 -0.45733133 0.888495743
vn 0.464020014 -0.0729493946 0.882815838
vn 0.28207317 -0.559830666 0.779117584
vn 0.526181936 -0.0704961568 0.847444892
vn 0.5951612 -0.547132909 0.58858192
vn 0.0188743044 0.750193 0.660949469
vn 0.364318728 0.433393836 0.824282527
vn -0.640704393 0.589598298 0.491804451
vn -0.707947075 0.157733679 0.688426495
vn -0.636806905 0.767928064 -0.0690186322
vn -0.25296393 -0.967044234 -0.0288911164
vn 0.286839932 -0.901303053 -0.324616134
vn 0.867248595 -0.222571447 0.445355713
vn 0.526181936 -0.0704961568 0.847444892
vn 0.543108284 0.0399756804 0.838710487
vn 0.912338614 0.241779238 0.33042556
vn 0.457083642 0.175962612 0.871843755
vn 0.420873106 0.244968817 0.873416364
vn 0.675553262 0.682261288 0.279548287
vn 0.390208304 0.336592019 0.856996655
vn 0.260538191 0.863567531 0.431706876
vn 0.359951764 0.589917064 -0.72279495
vn -0.142644465 0.877622962 -0.45763579
vn 0.0188743044 0.750193 0.660949469
vn 0.390208304 0.336592019 0.856996655
vn 0.364318728 0.433393836 0.824282527
vn -0.636806905 0.767928064 -0.0690186322
vn 0.710803151 0.160200641 -0.684904873
vn 0.720021427 -0.439291447 -0.537207782
vn 0.420318514 -0.410218298 -0.80935365
vn 0.101108059 -0.809404731 -0.578481853
vn 0.464393198 0.0907292962 -0.880969465
vn 0.818909943 -0.443918169 -0.363762528
vn 0.751240313 0.384070605 -0.536775291
vn 0.862485945 -0.0434395857 -0.504213214
vn 0.781870782 -0.564444125 -0.26472801
vn 0.98362422 -0.0897894949 -0.15627332
vn 0.697087586 -0.71388936 0.0665659606
vn 0.192550674 -0.98058641 -0.0370727517
vn 0.294292033 -0.851209044 0.434552073
vn 0.207687527 -0.917099297 0.340286314
vn -0.312664211 -0.914913714 0.255291998
vn 0.255951941 -0.966651797 0.00854508765
vn -0.04706835 -0.938131213 0.343066216
vn 0.281433582 -0.955008805 0.0935598612
vn 0.741062284 0.426999837 -0.518167794
vn 0.320805609 0.881173134 -0.34730041
vn 0.245612025 0.897428393 -0.366465449
vn 0.222676307 0.820823431 -0.525988817
vn -0.259465605 0.92717135 -0.270242155
vn 0.225408852 0.961308777 -0.158355191
vn 0.308136523 0.951229572 -0.0146399383
vn 0.793547511 0.571897805 -0.207882881
vn 0.0493954085 0.971126258 -0.23339656
vn -0.231084138 0.67447859 -0.701198161
vn 0.192893937 0.491569728 -0.84920615
vn -0.70851028 0.628800094 -0.320349276
vn 0.258331209 0.951649845 -0.166215017
vn 0.771945834 0.572447836 -0.276411086
vn 0.973037183 -0.106151327 -0.20476976
vn 0.711936355 -0.700065434 0.055271849
vn 0.275235355 -0.896504402 0.347167522
vn -0.257476687 -0.894562125 0.365327597
vn -0.151472196 -0.904555202 0.398542464
vn -0.812006593 -0.527696669 0.249362096
vn -0.408473939 -0.845089793 -0.344923586
vn -0.772183657 -0.584071577 -0.25018537
vn -0.986762941 -0.0639002323 0.149048924
vn -0.842363417 -0.45534566 0.288243324
vn -0.853682697 0.519312561 -0.0392480679
vn -0.963246346 0.201615781 0.177503616
vn -0.34373346 0.934929252 -0.0880603269
vn -0.167632818 0.975437999 -0.142898396
vn -0.56025064 0.822661281 -0.0966835544
vn 0.258331209 0.951649845 -0.166215017
vn 0.225408852 0.961308777 -0.158355191
vn 0.308136523 0.951229572 -0.0146399383
vn 0.0493954085 0.971126258 -0.23339656
vn -0.486006975 0.823061585 0.29388243
vn -0.699576497 0.575591624 0.423423022
vn -0.273704499 0.943249166 0.188061073
vn -0.70851028 0.628800094 -0.320349276
vn -0.68416059 0.725405395 -0.0755730942
vn -0.707947075 0.157733679 0.688426495
vn -0.707947075 0.157733679 0.688426495
vn 0.367634326 0.423693955 -0.827845633
vn 0.428723365 -0.0649957433 -0.901094735
vn 0.8464275 -0.513570249 -0.14073357
vn 0.780917943 0.0677712709 -0.620946229
vn 0.993377864 0.0709046796 0.0904038697
vn 0.796667397 0.456409931 -0.396246314
vn 0.818112075 -0.218832731 -0.531794071
vn 0.266862512 0.359862417 -0.894026518
vn 0.589383364 -0.758064628 0.279222578
vn 0.187292725 -0.960602224 0.205340773
vn 0.563268065 -0.754780173 -0.336208284
vn 0.818112075 -0.218832731 -0.531794071
vn -0.230120093 -0.902620256 0.363760054
vn 0.0868622363 -0.881682098 -0.463779688
vn 0.0114435889 -0.759494722 -0.650412798
vn -0.515523493 -0.809732199 0.280302078
vn -0.598709583 -0.787085891 -0.148467526
vn -0.823799372 -0.389091194 0.41226539
vn -0.857307553 -0.474819005 -0.198923573
vn -0.13629584 -0.433196366 -0.890934467
vn -0.934728622 0.134049952 0.329109222
vn -0.971011043 -0.0502906181 -0.233684421
vn -0.321763396 0.0703986064 -0.944199383
vn -0.89424324 0.375324696 -0.243844971
vn -0.13629584 -0.433196366 -0.890934467
vn -0.77332896 -0.621199548 0.126780808
vn -0.968990624 0.233214378 -0.0816593692
vn -0.79818958 0.590707421 0.11814443
vn -0.366109967 0.473445415 -0.801132262
vn -0.505571663 0.862614691 0.0171225481
vn -0.0112987505 0.615294874 -0.788215935
vn 0.0381879844 0.986161113 -0.161331192
vn 0.462515622 0.518553913 -0.719153106
vn 0.596577406 0.654294193 -0.464752257
vn 0.139337346 0.90582931 -0.400072902
vn -0.531068921 0.764441848 -0.365505815
vn -0.58997041 0.676697433 -0.440471828
vn -0.951383471 0.0238120817 -0.307087123
vn -0.821109414 -0.549219668 -0.155361295
vn -0.416670233 -0.897835791 -0.142396748
vn -0.44722423 -0.892483711 -0.0588504896
vn -0.415494531 -0.876590014 0.242804706
vn 0.139337346 0.90582931 -0.400072902
vn 0.365256339 0.384135336 -0.847955108
vn 0.596577406 0.654294193 -0.464752257
vn 0.415832013 0.485609233 -0.768939078
vn 0.487744957 0.531159282 -0.692802072
vn 0.462515622 0.518553913 -0.719153106
vn -0.366109967 0.473445415 -0.801132262
vn -0.321763396 0.0703986064 -0.944199383
vn -0.528265417 -0.29003036 -0.79800874
vn -0.48814556 0.206899568 -0.847883582
vn -0.14449136 0.507395148 -0.849513113
vn -0.0112987505 0.615294874 -0.788215935
vn -0.13629584 -0.433196366 -0.890934467
vn 0.0114435889 -0.759494722 -0.650412798
vn -0.537333965 -0.579332411 -0.61289978
vn 0.0237880219 -0.820622146 -0.57097584
vn 0.0868622363 -0.881682098 -0.463779688
vn -0.0361754745 -0.820764124 -0.570120692
vn -0.0800490007 -0.993706882 -0.0783500448
vn -0.36219126 -0.834942162 0.414353728
vn 0.563268065 -0.754780173 -0.336208284
vn 0.357518166 -0.822390139 -0.442555279
vn 0.565197408 -0.66627872 -0.486440778
vn 0.818112075 -0.218832731 -0.531794071
vn 0.628575206 -0.252726138 -0.735542476
vn 0.237347409 0.0195427071 -0.971228242
vn 0.266862512 0.359862417 -0.894026518
vn 0.415832013 0.485609233 -0.768939078
vn 0.487744957 0.531159282 -0.692802072
vn 0.362941802 0.535377979 0.762655616
vn 0.743770778 0.206729025 0.635663629
vn 0.292276859 0.251678556 0.922622383
vn 0.52961576 0.275443852 0.802270472
vn 0.441001028 -0.126837477 0.888498902
vn 0.364318728 0.433393836 0.824282527
vn 0.499962717 0.0999455303 0.860260546
vn 0.464020014 -0.0729493946 0.882815838
vn 0.526391089 0.100888178 0.844235778
vn 0.526181936 -0.0704961568 0.847444892
vn 0.47621125 0.206357345 0.854774475
vn 0.543108284 0.0399756804 0.838710487
vn 0.352593631 0.17275618 0.919691801
vn 0.457083642 0.175962612 0.871843755
vn 0.420873106 0.244968817 0.873416364
vn 0.422923982 0.11049176 0.899403632
vn 0.390208304 0.336592019 0.856996655
vn 0.435007393 0.235598952 0.869057953
vn 0.364318728 0.433393836 0.824282527
vn -0.872204781 0.4835006 0.0740678608
vn -0.14449136 0.507395148 -0.849513113
vn -0.48814556 0.206899568 -0.847883582
vn -0.41549924 0.900775015 -0.126351893
vn -0.973834336 -0.168333903 0.152677104
vn -0.528265417 -0.29003036 -0.79800874
vn -0.528265417 -0.29003036 -0.79800874
vn -0.904129446 -0.420786798 -0.0740844682
vn -0.850852907 0.522459805 -0.0555441193
vn -0.939403117 -0.260576665 0.222758755
vn 0.852748036 0.281979203 -0.439668626
vn -0.714120746 -0.698741317 -0.0423324592
vn -0.942700148 0.253787428 -0.216583148
vn -0.91553694 -0.36709258 0.164423481
vn -0.537333965 -0.579332411 -0.61289978
vn -0.50076288 -0.863441527 -0.0608719736
vn -0.999608338 -0.0059050913 -0.027356796
vn 0.800662696 -0.339228332 -0.493825287
vn -0.537333965 -0.579332411 -0.61289978
vn -0.876408517 -0.42446959 0.227450341
vn -0.36219126 -0.834942162 0.414353728
vn -0.216327608 -0.96547538 0.145119503
vn -0.0800490007 -0.993706882 -0.0783500448
vn 0.328256756 -0.944570184 -0.00588153256
vn 0.0237880219 -0.820622146 -0.57097584
vn -0.850852907 0.522459805 -0.0555441193
vn 0.358638465 0.863277495 -0.355148405
vn 0.481122553 0.702709556 -0.524137735
vn 0.807549894 0.0297489073 -0.589048564
vn 0.448105752 -0.268746346 -0.852629304
vn 0.328256756 -0.944570184 -0.00588153256
vn -0.0800490007 -0.993706882 -0.0783500448
vn 0.888511419 -0.310909599 -0.337465137
vn 0.743031323 0.293906152 -0.601268411
vn 0.61732316 0.519772232 -0.590549648
vn 0.800662696 -0.339228332 -0.493825287
vn 0.481122553 0.702709556 -0.524137735
vn 0.807549894 0.0297489073 -0.589048564
vn 0.358638465 0.863277495 -0.355148405
vn 0.852748036 0.281979203 -0.439668626
vn 0.505636871 0.791525602 -0.343247235
vn 0.231673181 0.231982276 -0.944728494
vn 0.487744957 0.531159282 -0.692802072
vn -0.2995781 0.373974234 -0.877722204
vn -0.41549924 0.900775015 -0.126351893
vn -0.14449136 0.507395148 -0.849513113
vn 0.462515622 0.518553913 -0.719153106
vn 0.481122553 0.702709556 -0.524137735
vn -0.714120746 -0.698741317 -0.0423324592
vn 0.800662696 -0.339228332 -0.493825287
vn -0.999608338 -0.0059050913 -0.027356796
vn 0.61732316 0.519772232 -0.590549648
vn 0.448105752 -0.268746346 -0.852629304
vn -0.589965105 -0.619815588 -0.517464936
vn -0.2995781 0.373974234 -0.877722204
vn -0.0800490007 -0.993706882 -0.0783500448
vn -0.375472575 -0.884888172 0.275668859
vn -0.473295897 -0.879843175 0.0432090648
vn -0.745718002 -0.403006464 -0.530556679
vn -0.429154932 0.442942291 -0.787164629
vn -0.2995781 0.373974234 -0.877722204
vn -0.0361754745 -0.820764124 -0.570120692
vn 0.191744432 -0.840915501 0.506058514
vn 0.239173144 -0.875156522 0.420591533
vn 0.853769898 -0.381671101 0.354124218
vn 0.737243056 -0.487100333 0.468194276
vn 0.357518166 -0.822390139 -0.442555279
vn 0.565197408 -0.66627872 -0.486440778
vn 0.974384665 0.221462101 0.0391049609
vn 0.965610385 0.255268157 0.0493423678
vn 0.539869666 0.743388474 -0.394859999
vn 0.537660599 0.739945292 -0.404230088
vn 0.237347409 0.0195427071 -0.971228242
vn 0.628575206 -0.252726138 -0.735542476
vn 0.487744957 0.531159282 -0.692802072
vn -0.2995781 0.373974234 -0.877722204
vn -0.429154932 0.442942291 -0.787164629
vn 0.603833199 0.512692571 -0.610353827
vn -0.185046047 0.240120173 -0.952942908
vn 0.363858104 0.492750704 -0.790445566
vn -0.0821882933 0.271447897 -0.958937526
vn 0.971139491 0.184592858 0.151041374
vn 0.485409915 0.861204147 -0.150680318
vn 0.976776123 0.0983843133 0.190339237
vn 0.990666449 0.133240625 -0.02875733
vn 0.235908419 0.0365103595 -0.971089184
vn 0.696244657 -0.628699541 0.346381485
vn 0.793895841 -0.603277624 -0.0760629103
vn 0.235908419 0.0365103595 -0.971089184
vn -0.247964054 -0.966033518 0.0727541745
vn -0.146271333 -0.934559166 -0.32435149
vn 0.235908419 0.0365103595 -0.971089184
vn -0.368056208 -0.929431498 -0.0262985341
vn 0.82346499 -0.472413838 0.314214319
vn -0.792500019 -0.518839002 -0.32054615
vn -0.395912439 -0.227542415 -0.889650404
vn -0.760946989 0.415282756 -0.498497576
vn -0.720210552 -0.48449111 -0.496553212
vn 0.235908419 0.0365103595 -0.971089184
vn -0.371315628 -0.422165006 -0.826983333
vn -0.185046047 0.240120173 -0.952942908
vn 0.430677146 -0.759374857 -0.487716198
vn -0.0821882933 0.271447897 -0.958937526
vn 0.82346499 -0.472413838 0.314214319
vn -0.368056208 -0.929431498 -0.0262985341
vn 0.235908419 0.0365103595 -0.971089184
vn -0.760946989 0.415282756 -0.498497576
vn -0.0821882933 0.271447897 -0.958937526
vn -0.760946989 0.415282756 -0.498497576
vn -0.760946989 0.415282756 -0.498497576
vn -0.0821882933 0.271447897 -0.958937526
vn 0.628575206 -0.252726138 -0.735542476
vn 0.231673181 0.231982276 -0.944728494
vn 0.462515622 0.518553913 -0.719153106
vn -0.14449136 0.507395148 -0.849513113
vn 0.428158671 0.880999327 -0.201296583
vn 0.807549894 0.0297489073 -0.589048564
vn 0.358638465 0.863277495 -0.355148405
vn 0.884770691 -0.460639656 -0.0706544444
vn 0.350664973 0.659425795 -0.664974988
vn 0.350664973 0.659425795 -0.664974988
vn 0.662110507 -0.450283796 -0.599044323
vn 0.350664973 0.659425795 -0.664974988
vn 0.0785045251 -0.0334562175 -0.996352196
vn 0.0774415657 -0.0293223578 -0.99656564
vn -0.245765463 0.928597391 -0.278039813
vn -0.767143309 0.640535653 -0.0347152613
vn -0.641897321 0.4443672 -0.624904513
vn -0.931098998 -0.0944134891 -0.352336168
vn -0.951420605 -0.302782357 0.0558710732
vn -0.939403117 -0.260576665 0.222758755
vn -0.850852907 0.522459805 -0.0555441193
vn 0.358638465 0.863277495 -0.355148405
vn 0.428158671 0.880999327 -0.201296583
vn -0.714120746 -0.698741317 -0.0423324592
vn -0.264252514 -0.95791626 0.112102784
vn 0.884770691 -0.460639656 -0.0706544444
vn 0.807549894 0.0297489073 -0.589048564
vn 0.219809309 -0.972463489 -0.0774519891
vn 0.662110507 -0.450283796 -0.599044323
vn -0.827435732 -0.525287926 -0.198551625
vn -0.238259152 -0.758819044 -0.606156886
vn 0.350664973 0.659425795 -0.664974988
vn -0.931098998 -0.0944134891 -0.352336168
vn 0.0785045251 -0.0334562175 -0.996352196
vn 0.662110507 -0.450283796 -0.599044323
vn 0.350664973 0.659425795 -0.664974988
vn -0.999608338 -0.0059050913 -0.027356796
vn -0.91272825 -0.396113873 0.100104474
vn -0.828552842 0.559482574 -0.0218949951
vn -0.876408517 -0.42446959 0.227450341
vn 0.61732316 0.519772232 -0.590549648
vn 0.374927431 0.898529351 -0.228197947
vn 0.945269704 -0.231700674 -0.229738906
vn 0.888511419 -0.310909599 -0.337465137
vn -0.8865031 -0.295179009 -0.356344998
vn -0.716478109 0.246754736 -0.652511477
vn 0.263472468 0.658899546 -0.704580486
vn 0.715217471 -0.36855951 -0.593824863
vn -0.289776266 -0.944661975 0.153764307
vn -0.277911991 -0.800523877 -0.530967474
vn 0.36608085 -0.930575252 0.00383201893
vn 0.328256756 -0.944570184 -0.00588153256
vn -0.216327608 -0.96547538 0.145119503
vn 0.888511419 -0.310909599 -0.337465137
vn 0.945269704 -0.231700674 -0.229738906
vn 0.320386052 -0.695114076 -0.643559754
vn 0.0730088428 -0.0861143917 -0.993606567
vn -0.827620745 -0.442708492 -0.345040947
vn 0.0947056115 -0.0878186598 -0.991624296
vn 0.945269704 -0.231700674 -0.229738906
vn 0.715217471 -0.36855951 -0.593824863
vn 0.0947056115 -0.0878186598 -0.991624296
vn 0.715217471 -0.36855951 -0.593824863
vn -0.716478109 0.246754736 -0.652511477
vn -0.333508015 0.878115714 -0.343052864
vn -0.8865031 -0.295179009 -0.356344998
vn 0.105787054 -0.0806031302 -0.991116643
vn 0.715217471 -0.36855951 -0.593824863
vn 0.0947056115 -0.0878186598 -0.991624296
vn 0.645160437 0.755494952 -0.113997407
vn -0.333759397 0.936226487 -0.109930158
vn 0.568890154 0.818356574 -0.0815882906
vn -0.309601694 0.944054127 -0.113616727
vn 0.946429968 -0.311333686 0.0856839195
vn 0.901834369 -0.418587059 0.107143767
vn 0.600466669 0.782822371 -0.163183555
vn -0.343003452 0.927074611 -0.151265204
vn -0.948224247 0.307721794 -0.0786015168
vn -0.955310702 0.226898268 -0.18946974
vn -0.61580199 -0.787549794 -0.0235222708
vn -0.613808572 -0.779355824 0.125870958
vn 0.303488076 -0.941295922 0.147840947
vn 0.209503934 -0.949840248 0.232188597
vn 0.207212284 -0.937953532 0.278039753
vn 0.946429968 -0.311333686 0.0856839195
vn 0.901834369 -0.418587059 0.107143767
vn -0.604329765 -0.785327554 0.134336546
vn -0.412780136 0.812909245 -0.410842001
vn -0.162292063 -0.193556547 -0.967572749
vn 0.530870438 0.700444818 -0.477025747
vn -0.162292063 -0.193556547 -0.967572749
vn 0.945436776 -0.325776547 0.00434361305
vn 0.221281216 -0.963168681 -0.152776852
vn 0.882888675 -0.351832658 -0.311000526
vn 0.945436776 -0.325776547 0.00434361305
vn -0.162292063 -0.193556547 -0.967572749
vn 0.945436776 -0.325776547 0.00434361305
vn -0.162292063 -0.193556547 -0.967572749
vn 0.882888675 -0.351832658 -0.311000526
vn 0.945436776 -0.325776547 0.00434361305
vn 0.945436776 -0.325776547 0.00434361305
vn -0.162292063 -0.193556547 -0.967572749
vn -0.958472192 0.279290289 -0.0576888733
vn -0.902671158 0.424155921 0.0726399869
vn -0.70877564 -0.705236435 -0.0166922417
vn -0.914322972 0.400439918 -0.0605083182
vn -0.668053329 -0.728074312 0.153663948
vn -0.739779174 -0.647788882 -0.181924298
vn -0.875825167 0.421899319 -0.23437418
vn -0.128851265 0.991512239 -0.0173418745
vn -0.139820382 0.987023234 -0.0789643079
vn -0.152221516 0.920790911 -0.359127671
vn 0.709540129 0.596107483 -0.375777334
vn 0.748161018 0.662745714 -0.0319864526
vn 0.904121935 -0.426275551 0.0292013828
vn 0.734010279 0.678528428 0.0287773926
vn 0.721348941 0.691669166 0.0353487208
vn -0.192217663 0.979967177 0.0521235019
vn 0.923787236 -0.37608555 0.071950525
vn 0.884574473 -0.453687698 0.108145662
vn 0.828928113 -0.449063212 -0.333497196
vn -0.147996336 -0.0926988274 -0.984633863
vn -0.147996336 -0.0926988274 -0.984633863
vn -0.147996336 -0.0926988274 -0.984633863
vn 0.0412315913 -0.963103592 -0.265953839
vn 0.086261943 -0.99579829 0.0307356995
vn 0.828928113 -0.449063212 -0.333497196
vn -0.147996336 -0.0926988274 -0.984633863
vn 0.170849636 -0.98124975 0.0892144069
vn 0.884574473 -0.453687698 0.108145662
vn 0.904121935 -0.426275551 0.0292013828
vn 0.828928113 -0.449063212 -0.333497196
vn 0.923787236 -0.37608555 0.071950525
vn 0.15789099 -0.978149593 0.135254487
vn -0.147996336 -0.0926988274 -0.984633863
vn 0.828928113 -0.449063212 -0.333497196
vn 0.481122553 0.702709556 -0.524137735
vn 0.893199563 -0.441108555 -0.0872801989
vn 0.800662696 -0.339228332 -0.493825287
vn 0.430495083 0.879010022 -0.204976425
vn 0.276168376 0.660892069 -0.697819948
vn 0.430495083 0.879010022 -0.204976425
vn 0.674352348 -0.441645473 -0.591775477
vn 0.0547108091 -0.0622590706 -0.996559322
vn 0.0647576526 -0.0673086867 -0.995628476
vn -0.305059403 0.899011195 -0.314193398
vn -0.800508976 0.599306762 -0.00410953723
vn -0.652949095 0.392432064 -0.647807479
vn -0.960000157 -0.154904097 -0.233247578
vn -0.931761444 -0.343820661 0.116653703
vn -0.91553694 -0.36709258 0.164423481
vn -0.942700148 0.253787428 -0.216583148
vn 0.481122553 0.702709556 -0.524137735
vn 0.430495083 0.879010022 -0.204976425
vn -0.834091902 -0.517003298 -0.192349613
vn -0.50076288 -0.863441527 -0.0608719736
vn -0.269089043 -0.953432083 0.136228919
vn 0.893199563 -0.441108555 -0.0872801989
vn 0.800662696 -0.339228332 -0.493825287
vn 0.674352348 -0.441645473 -0.591775477
vn 0.294341445 -0.93779695 -0.184119195
vn -0.960000157 -0.154904097 -0.233247578
vn -0.236209482 -0.788211584 -0.568267167
vn 0.0647576526 -0.0673086867 -0.995628476
vn 0.276168376 0.660892069 -0.697819948
vn 0.430495083 0.879010022 -0.204976425
vn 0.62069118 0.750245571 -0.22775887
vn 0.852748036 0.281979203 -0.439668626
vn 0.505636871 0.791525602 -0.343247235
vn 0.8714481 -0.490008533 -0.0216753446
vn -0.41549924 0.900775015 -0.126351893
vn -0.307523817 0.93195045 -0.192087069
vn -0.871143758 0.488828063 -0.0464299656
vn -0.872204781 0.4835006 0.0740678608
vn -0.973834336 -0.168333903 0.152677104
vn -0.964959145 -0.260516316 0.0313860513
vn -0.939240336 0.0803715289 -0.333718449
vn -0.623389184 0.30423224 -0.720297635
vn -0.139604434 0.713077307 -0.687045395
vn 0.466292232 0.595044076 -0.654594541
vn 0.8714481 -0.490008533 -0.0216753446
vn 0.749996006 -0.472669333 -0.462698311
vn -0.904129446 -0.420786798 -0.0740844682
vn -0.331162632 -0.937590897 0.106087804
vn -0.773257792 -0.573035896 -0.271481693
vn -0.219928488 -0.77470839 -0.592839301
vn 0.656598508 -0.364350826 -0.66039902
vn 0.406136245 0.40249455 -0.820397198
vn -0.0917696655 0.707374513 -0.700856268
vn -0.652698398 -0.751530468 -0.095847927
vn -0.903104126 0.390721947 -0.178155407
vn -0.892628193 0.359204799 -0.272372425
vn -0.607081532 -0.77922219 -0.155771494
vn -0.0790071487 -0.0843795314 -0.993296564
vn 0.21188359 -0.976884186 0.0283326991
vn 0.749996006 -0.472669333 -0.462698311
vn 0.8714481 -0.490008533 -0.0216753446
vn -0.904129446 -0.420786798 -0.0740844682
vn 0.656598508 -0.364350826 -0.66039902
vn 0.167158574 -0.980678797 0.101621836
vn -0.284990519 0.958509445 -0.00633252645
vn 0.638645172 0.763065696 0.0993129835
vn 0.656598508 -0.364350826 -0.66039902
vn 0.901985228 -0.406162351 0.1464746
vn 0.920560658 -0.384252608 0.0701290816
vn 0.641500771 0.766744912 -0.0240634959
vn -0.242641568 0.958449423 -0.149999171
vn 0.673982739 0.669165432 -0.312993497
vn -0.194723636 0.905226707 -0.377686828
vn -0.0790071487 -0.0843795314 -0.993296564
vn 0.902908742 -0.378537059 -0.203630939
vn 0.901985228 -0.406162351 0.1464746
vn 0.920560658 -0.384252608 0.0701290816
vn 0.256227732 -0.965679109 0.0425604284
vn 0.902908742 -0.378537059 -0.203630939
vn 0.902908742 -0.378537059 -0.203630939
vn -0.0790071487 -0.0843795314 -0.993296564
vn 0.232255459 -0.950160205 -0.207973674
vn -0.0790071487 -0.0843795314 -0.993296564
vn 0.902908742 -0.378537059 -0.203630939
vn -0.0790071487 -0.0843795314 -0.993296564
vn 0.8714481 -0.490008533 -0.0216753446
vn 0.852748036 0.281979203 -0.439668626
vn 0.282961398 -0.952588856 0.1118358
vn 0.936941028 -0.292971879 0.190549463
vn 0.949765384 -0.28727603 0.124170363
vn 0.30020383 -0.940594018 0.158620656
vn -0.593867898 -0.804029465 0.0292825066
vn -0.589690447 -0.80443418 0.0717696846
vn -0.958223522 0.284344733 -0.0309139434
vn -0.961876333 0.266163498 -0.0628558248
vn -0.333668828 0.942633986 -0.0103128068
vn -0.366744846 0.929566741 -0.0374676399
vn 0.557638407 0.824431181 0.0967086926
vn 0.572539926 0.8186903 0.0440929346
vn 0.936941028 -0.292971879 0.190549463
vn 0.949765384 -0.28727603 0.124170363
vn 0.961603761 -0.27137059 -0.0409426987
vn 0.351071 -0.935360134 0.0430176333
vn -0.59344238 -0.803021014 -0.0546199344
vn -0.956415474 0.254086316 -0.143908113
vn -0.317113787 0.94436729 -0.0872305185
vn 0.607812762 0.786427319 -0.109980084
vn 0.508046389 0.711515248 -0.485422552
vn -0.398409814 0.864046037 -0.307724088
vn -0.284888566 -0.206470981 -0.936059952
vn 0.865036547 -0.311527669 -0.393271387
vn 0.961603761 -0.27137059 -0.0409426987
vn 0.865036547 -0.311527669 -0.393271387
vn 0.865036547 -0.311527669 -0.393271387
vn 0.265737742 -0.952311695 -0.149953097
vn 0.865036547 -0.311527669 -0.393271387
vn -0.284888566 -0.206470981 -0.936059952
vn -0.284888566 -0.206470981 -0.936059952
vn -0.284888566 -0.206470981 -0.936059952
vn -0.284888566 -0.206470981 -0.936059952
g blue_war_f_pve_3_hand_r_0
f 3/3/3 2/2/2 1/1/1
f 1/1/1 4/4/4 3/3/3
f 5/5/5 3/3/3 4/4/4
f 5/5/5 6/6/6 3/3/3
f 5/5/5 7/7/7 6/6/6
f 5/5/5 4/4/4 7/7/7
f 7/7/7 8/8/8 6/6/6
f 8/8/8 7/7/7 9/9/9
f 10/10/10 8/8/8 9/9/9
f 11/11/11 9/9/9 7/7/7
f 10/10/10 9/9/9 12/12/12
f 10/10/10 12/12/12 13/13/13
f 13/13/13 14/14/14 10/10/10
f 14/14/14 13/13/13 15/15/15
f 16/16/16 15/15/15 13/13/13
f 16/16/16 13/13/13 17/17/17
f 18/18/18 17/17/17 13/13/13
f 18/18/18 13/13/13 12/12/12
f 17/17/17 18/18/18 19/19/19
f 20/20/20 19/19/19 18/18/18
f 19/19/19 20/20/20 21/21/21
f 22/22/22 21/21/21 20/20/20
f 14/14/14 15/15/15 23/23/23
f 24/24/24 23/23/23 15/15/15
f 25/25/25 10/10/10 14/14/14
f 10/10/10 25/25/25 26/26/26
f 25/25/25 14/14/14 27/27/27
f 23/23/23 27/27/27 14/14/14
f 20/20/20 28/28/28 22/22/22
f 20/20/20 18/18/18 28/28/28
f 29/29/29 22/22/22 28/28/28
f 22/22/22 29/29/29 30/30/30
f 22/22/22 30/30/30 31/31/31
f 32/32/32 31/31/31 30/30/30
f 30/30/30 33/33/33 32/32/32
f 34/34/34 32/32/32 33/33/33
f 34/34/34 33/33/33 35/35/35
f 36/36/36 35/35/35 33/33/33
f 35/35/35 36/36/36 37/37/37
f 38/38/38 37/37/37 36/36/36
f 36/36/36 39/39/39 38/38/38
f 36/36/36 33/33/33 39/39/39
f 40/40/40 38/38/38 39/39/39
f 38/38/38 40/40/40 41/41/41
f 38/38/38 41/41/41 42/42/42
f 43/43/43 42/42/42 41/41/41
f 44/44/44 41/41/41 40/40/40
f 45/45/45 39/39/39 33/33/33
f 33/33/33 30/30/30 45/45/45
f 46/46/46 45/45/45 30/30/30
f 46/46/46 47/47/47 45/45/45
f 46/46/46 29/29/29 47/47/47
f 46/46/46 30/30/30 29/29/29
f 48/48/48 47/47/47 29/29/29
f 49/49/49 45/45/45 47/47/47
f 45/45/45 49/49/49 39/39/39
f 47/47/47 50/50/50 49/49/49
f 47/47/47 48/48/48 50/50/50
f 51/51/51 49/49/49 50/50/50
f 50/50/50 52/52/52 51/51/51
f 53/53/53 52/52/52 50/50/50
f 52/52/52 53/53/53 54/54/54
f 55/55/55 54/54/54 53/53/53
f 56/56/56 55/55/55 53/53/53
f 57/57/57 55/55/55 56/56/56
f 57/57/57 56/56/56 58/58/58
f 59/59/59 58/58/58 56/56/56
f 60/60/60 59/59/59 56/56/56
f 60/60/60 56/56/56 53/53/53
f 58/58/58 59/59/59 61/61/61
f 62/62/62 53/53/53 50/50/50
f 60/60/60 53/53/53 62/62/62
f 60/60/60 62/62/62 59/59/59
f 59/59/59 62/62/62 61/61/61
f 62/62/62 50/50/50 48/48/48
f 63/63/63 51/51/51 52/52/52
f 52/52/52 54/54/54 63/63/63
f 63/63/63 64/64/64 51/51/51
f 65/65/65 64/64/64 63/63/63
f 65/65/65 63/63/63 66/66/66
f 65/65/65 66/66/66 67/67/67
f 65/65/65 67/67/67 64/64/64
f 67/67/67 66/66/66 68/68/68
f 69/69/69 68/68/68 66/66/66
f 69/69/69 66/66/66 70/70/70
f 66/66/66 63/63/63 70/70/70
f 68/68/68 71/71/71 67/67/67
f 67/67/67 71/71/71 64/64/64
f 64/64/64 71/71/71 72/72/72
f 73/73/73 64/64/64 72/72/72
f 72/72/72 40/40/40 73/73/73
f 39/39/39 73/73/73 40/40/40
f 73/73/73 39/39/39 49/49/49
f 64/64/64 73/73/73 51/51/51
f 49/49/49 51/51/51 73/73/73
f 72/72/72 74/74/74 40/40/40
f 74/74/74 72/72/72 71/71/71
f 44/44/44 40/40/40 74/74/74
f 69/69/69 70/70/70 75/75/75
f 76/76/76 75/75/75 70/70/70
f 70/70/70 54/54/54 76/76/76
f 77/77/77 76/76/76 54/54/54
f 54/54/54 55/55/55 77/77/77
f 78/78/78 77/77/77 55/55/55
f 55/55/55 57/57/57 78/78/78
f 79/79/79 78/78/78 57/57/57
f 57/57/57 58/58/58 79/79/79
f 80/80/80 79/79/79 58/58/58
f 80/80/80 58/58/58 81/81/81
f 61/61/61 81/81/81 58/58/58
f 81/81/81 61/61/61 7/7/7
f 81/81/81 7/7/7 4/4/4
f 82/82/82 81/81/81 4/4/4
f 81/81/81 82/82/82 80/80/80
f 82/82/82 4/4/4 1/1/1
f 11/11/11 7/7/7 61/61/61
f 61/61/61 83/83/83 11/11/11
f 61/61/61 62/62/62 83/83/83
f 48/48/48 83/83/83 62/62/62
f 83/83/83 48/48/48 28/28/28
f 29/29/29 28/28/28 48/48/48
f 83/83/83 28/28/28 84/84/84
f 84/84/84 11/11/11 83/83/83
f 12/12/12 84/84/84 28/28/28
f 12/12/12 28/28/28 18/18/18
f 84/84/84 12/12/12 9/9/9
f 9/9/9 11/11/11 84/84/84
f 82/82/82 1/1/1 85/85/85
f 82/82/82 85/85/85 86/86/86
f 87/87/87 85/85/85 1/1/1
f 87/87/87 88/88/88 85/85/85
f 88/88/88 86/86/86 85/85/85
f 87/87/87 89/89/89 88/88/88
f 90/90/90 89/89/89 87/87/87
f 91/91/91 88/88/88 89/89/89
f 89/89/89 92/92/92 91/91/91
f 89/89/89 93/93/93 92/92/92
f 89/89/89 90/90/90 93/93/93
f 94/94/94 92/92/92 93/93/93
f 87/87/87 2/2/2 90/90/90
f 87/87/87 1/1/1 2/2/2
f 95/95/95 93/93/93 90/90/90
f 90/90/90 2/2/2 96/96/96
f 97/97/97 96/96/96 2/2/2
f 2/2/2 3/3/3 97/97/97
f 97/97/97 3/3/3 6/6/6
f 97/97/97 6/6/6 96/96/96
f 26/26/26 96/96/96 6/6/6
f 96/96/96 98/98/98 90/90/90
f 95/95/95 90/90/90 98/98/98
f 95/95/95 98/98/98 99/99/99
f 100/100/100 99/99/99 98/98/98
f 98/98/98 96/96/96 100/100/100
f 99/99/99 100/100/100 27/27/27
f 25/25/25 27/27/27 100/100/100
f 25/25/25 100/100/100 101/101/101
f 102/102/102 100/100/100 96/96/96
f 104/104/104 103/103/103 77/77/77
f 76/76/76 77/77/77 103/103/103
f 104/104/104 77/77/77 105/105/105
f 78/78/78 105/105/105 77/77/77
f 104/104/104 105/105/105 106/106/106
f 104/104/104 106/106/106 103/103/103
f 105/105/105 107/107/107 106/106/106
f 108/108/108 106/106/106 107/107/107
f 107/107/107 109/109/109 108/108/108
f 110/110/110 108/108/108 109/109/109
f 107/107/107 105/105/105 111/111/111
f 112/112/112 111/111/111 105/105/105
f 105/105/105 78/78/78 112/112/112
f 111/111/111 113/113/113 107/107/107
f 114/114/114 107/107/107 113/113/113
f 111/111/111 115/115/115 113/113/113
f 111/111/111 112/112/112 115/115/115
f 116/116/116 113/113/113 115/115/115
f 116/116/116 115/115/115 117/117/117
f 118/118/118 117/117/117 115/115/115
f 118/118/118 119/119/119 117/117/117
f 120/120/120 119/119/119 118/118/118
f 119/119/119 120/120/120 121/121/121
f 121/121/121 122/122/122 119/119/119
f 122/122/122 117/117/117 119/119/119
f 120/120/120 123/123/123 121/121/121
f 124/124/124 121/121/121 123/123/123
f 124/124/124 125/125/125 121/121/121
f 124/124/124 126/126/126 125/125/125
f 124/124/124 123/123/123 126/126/126
f 127/127/127 121/121/121 125/125/125
f 118/118/118 128/128/128 120/120/120
f 118/118/118 115/115/115 128/128/128
f 128/128/128 129/129/129 120/120/120
f 123/123/123 120/120/120 129/129/129
f 129/129/129 130/130/130 123/123/123
f 123/123/123 130/130/130 126/126/126
f 130/130/130 131/131/131 126/126/126
f 125/125/125 126/126/126 131/131/131
f 130/130/130 132/132/132 131/131/131
f 130/130/130 129/129/129 132/132/132
f 133/133/133 131/131/131 132/132/132
f 134/134/134 133/133/133 132/132/132
f 133/133/133 134/134/134 135/135/135
f 136/136/136 135/135/135 134/134/134
f 134/134/134 137/137/137 136/136/136
f 137/137/137 134/134/134 138/138/138
f 132/132/132 138/138/138 134/134/134
f 138/138/138 132/132/132 129/129/129
f 139/139/139 137/137/137 138/138/138
f 138/138/138 129/129/129 139/139/139
f 139/139/139 91/91/91 137/137/137
f 92/92/92 137/137/137 91/91/91
f 91/91/91 139/139/139 88/88/88
f 140/140/140 88/88/88 139/139/139
f 140/140/140 139/139/139 129/129/129
f 128/128/128 141/141/141 129/129/129
f 141/141/141 128/128/128 142/142/142
f 143/143/143 142/142/142 128/128/128
f 142/142/142 143/143/143 112/112/112
f 143/143/143 115/115/115 112/112/112
f 143/143/143 128/128/128 115/115/115
f 144/144/144 142/142/142 112/112/112
f 112/112/112 79/79/79 144/144/144
f 79/79/79 112/112/112 78/78/78
f 80/80/80 144/144/144 79/79/79
f 140/140/140 129/129/129 141/141/141
f 141/141/141 86/86/86 140/140/140
f 88/88/88 140/140/140 86/86/86
f 144/144/144 80/80/80 86/86/86
f 141/141/141 142/142/142 86/86/86
f 144/144/144 86/86/86 142/142/142
f 86/86/86 80/80/80 82/82/82
f 145/145/145 75/75/75 103/103/103
f 76/76/76 103/103/103 75/75/75
f 146/146/146 145/145/145 103/103/103
f 146/146/146 103/103/103 106/106/106
f 146/146/146 106/106/106 108/108/108
f 108/108/108 147/147/147 146/146/146
f 145/145/145 146/146/146 147/147/147
f 147/147/147 108/108/108 148/148/148
f 148/148/148 108/108/108 110/110/110
f 148/148/148 149/149/149 147/147/147
f 150/150/150 147/147/147 149/149/149
f 153/153/153 152/152/152 151/151/151
f 154/154/154 153/153/153 151/151/151
f 154/154/154 151/151/151 155/155/155
f 156/156/156 155/155/155 151/151/151
f 152/152/152 153/153/153 157/157/157
f 158/158/158 157/157/157 153/153/153
f 159/159/159 158/158/158 153/153/153
f 160/160/160 158/158/158 159/159/159
f 160/160/160 161/161/161 158/158/158
f 160/160/160 162/162/162 161/161/161
f 162/162/162 160/160/160 163/163/163
f 164/164/164 163/163/163 160/160/160
f 161/161/161 162/162/162 165/165/165
f 166/166/166 165/165/165 162/162/162
f 167/167/167 165/165/165 166/166/166
f 165/165/165 167/167/167 168/168/168
f 169/169/169 168/168/168 167/167/167
f 169/169/169 170/170/170 168/168/168
f 171/171/171 168/168/168 170/170/170
f 172/172/172 171/171/171 170/170/170
f 170/170/170 173/173/173 172/172/172
f 176/176/176 175/175/175 174/174/174
f 177/177/177 174/174/174 175/175/175
f 178/178/178 175/175/175 176/176/176
f 174/174/174 177/177/177 179/179/179
f 175/175/175 178/178/178 180/180/180
f 181/181/181 180/180/180 178/178/178
f 180/180/180 181/181/181 182/182/182
f 183/183/183 182/182/182 181/181/181
f 182/182/182 183/183/183 184/184/184
f 185/185/185 184/184/184 183/183/183
f 184/184/184 185/185/185 186/186/186
f 187/187/187 186/186/186 185/185/185
f 188/188/188 186/186/186 187/187/187
f 186/186/186 188/188/188 189/189/189
f 190/190/190 189/189/189 188/188/188
f 189/189/189 190/190/190 191/191/191
f 192/192/192 191/191/191 190/190/190
f 191/191/191 192/192/192 177/177/177
f 70/70/70 63/63/63 54/54/54
f 195/195/195 194/194/194 193/193/193
f 196/196/196 193/193/193 194/194/194
f 193/193/193 197/197/197 195/195/195
f 198/198/198 195/195/195 197/197/197
f 200/200/200 199/199/199 197/197/197
f 201/201/201 198/198/198 200/200/200
f 201/201/201 202/202/202 198/198/198
f 200/200/200 203/203/203 201/201/201
f 204/204/204 199/199/199 202/202/202
f 204/204/204 205/205/205 199/199/199
f 205/205/205 206/206/206 198/198/198
f 199/199/199 206/206/206 207/207/207
f 208/208/208 207/207/207 206/206/206
f 208/208/208 209/209/209 207/207/207
f 208/208/208 210/210/210 209/209/209
f 209/209/209 212/212/212 211/211/211
f 207/207/207 212/212/212 213/213/213
f 214/214/214 213/213/213 212/212/212
f 213/213/213 214/214/214 215/215/215
f 216/216/216 215/215/215 214/214/214
f 217/217/217 207/207/207 213/213/213
f 219/219/219 218/218/218 203/203/203
f 221/221/221 220/220/220 204/204/204
f 224/224/224 223/223/223 222/222/222
f 225/225/225 222/222/222 223/223/223
f 222/222/222 225/225/225 226/226/226
f 227/227/227 226/226/226 225/225/225
f 228/228/228 226/226/226 227/227/227
f 228/228/228 229/229/229 226/226/226
f 230/230/230 226/226/226 229/229/229
f 230/230/230 231/231/231 226/226/226
f 226/226/226 231/231/231 232/232/232
f 232/232/232 233/233/233 226/226/226
f 234/234/234 226/226/226 233/233/233
f 226/226/226 235/235/235 222/222/222
f 236/236/236 222/222/222 235/235/235
f 233/233/233 237/237/237 234/234/234
f 238/238/238 234/234/234 237/237/237
f 234/234/234 239/239/239 226/226/226
f 235/235/235 226/226/226 239/239/239
f 205/205/205 241/241/241 240/240/240
f 244/244/244 243/243/243 242/242/242
f 247/247/247 246/246/246 245/245/245
f 248/248/248 245/245/245 246/246/246
f 246/246/246 249/249/249 248/248/248
f 249/249/249 246/246/246 250/250/250
f 251/251/251 250/250/250 246/246/246
f 251/251/251 246/246/246 252/252/252
f 253/253/253 252/252/252 246/246/246
f 254/254/254 248/248/248 249/249/249
f 249/249/249 250/250/250 255/255/255
f 256/256/256 255/255/255 250/250/250
f 256/256/256 257/257/257 255/255/255
f 258/258/258 255/255/255 257/257/257
f 255/255/255 258/258/258 259/259/259
f 255/255/255 259/259/259 249/249/249
f 254/254/254 249/249/249 259/259/259
f 260/260/260 259/259/259 258/258/258
f 258/258/258 257/257/257 261/261/261
f 262/262/262 261/261/261 257/257/257
f 262/262/262 263/263/263 261/261/261
f 264/264/264 261/261/261 263/263/263
f 264/264/264 265/265/265 261/261/261
f 266/266/266 261/261/261 265/265/265
f 265/265/265 264/264/264 267/267/267
f 268/268/268 267/267/267 264/264/264
f 263/263/263 269/269/269 264/264/264
f 268/268/268 264/264/264 269/269/269
f 263/263/263 270/270/270 269/269/269
f 263/263/263 262/262/262 270/270/270
f 271/271/271 269/269/269 270/270/270
f 270/270/270 272/272/272 271/271/271
f 273/273/273 271/271/271 272/272/272
f 270/270/270 274/274/274 272/272/272
f 274/274/274 270/270/270 262/262/262
f 272/272/272 274/274/274 275/275/275
f 276/276/276 275/275/275 274/274/274
f 277/277/277 275/275/275 276/276/276
f 275/275/275 277/277/277 278/278/278
f 276/276/276 279/279/279 277/277/277
f 280/280/280 277/277/277 279/279/279
f 277/277/277 280/280/280 281/281/281
f 279/279/279 282/282/282 280/280/280
f 283/283/283 280/280/280 282/282/282
f 280/280/280 283/283/283 284/284/284
f 282/282/282 279/279/279 285/285/285
f 286/286/286 285/285/285 279/279/279
f 279/279/279 276/276/276 286/286/286
f 274/274/274 286/286/286 276/276/276
f 282/282/282 285/285/285 287/287/287
f 288/288/288 287/287/287 285/285/285
f 287/287/287 288/288/288 289/289/289
f 290/290/290 287/287/287 289/289/289
f 287/287/287 290/290/290 282/282/282
f 283/283/283 282/282/282 290/290/290
f 290/290/290 289/289/289 291/291/291
f 283/283/283 290/290/290 291/291/291
f 285/285/285 292/292/292 288/288/288
f 285/285/285 250/250/250 292/292/292
f 251/251/251 292/292/292 250/250/250
f 251/251/251 252/252/252 292/292/292
f 293/293/293 292/292/292 252/252/252
f 250/250/250 285/285/285 256/256/256
f 294/294/294 256/256/256 285/285/285
f 294/294/294 286/286/286 256/256/256
f 257/257/257 256/256/256 286/286/286
f 286/286/286 274/274/274 257/257/257
f 262/262/262 257/257/257 274/274/274
f 288/288/288 292/292/292 295/295/295
f 293/293/293 295/295/295 292/292/292
f 297/297/297 296/296/296 294/294/294
f 299/299/299 275/275/275 298/298/298
f 272/272/272 275/275/275 300/300/300
f 301/301/301 300/300/300 275/275/275
f 303/303/303 302/302/302 288/288/288
f 261/261/261 304/304/304 258/258/258
f 260/260/260 258/258/258 304/304/304
f 156/156/156 306/306/306 305/305/305
f 305/305/305 307/307/307 156/156/156
f 310/310/310 309/309/309 308/308/308
f 311/311/311 308/308/308 309/309/309
f 308/308/308 311/311/311 312/312/312
f 314/314/314 313/313/313 311/311/311
f 314/314/314 316/316/316 315/315/315
f 317/317/317 315/315/315 316/316/316
f 315/315/315 317/317/317 318/318/318
f 318/318/318 320/320/320 319/319/319
f 320/320/320 321/321/321 319/319/319
f 322/322/322 319/319/319 321/321/321
f 322/322/322 323/323/323 319/319/319
f 324/324/324 319/319/319 323/323/323
f 324/324/324 325/325/325 319/319/319
f 326/326/326 319/319/319 325/325/325
f 323/323/323 322/322/322 327/327/327
f 328/328/328 327/327/327 322/322/322
f 328/328/328 329/329/329 327/327/327
f 330/330/330 327/327/327 329/329/329
f 328/328/328 331/331/331 329/329/329
f 332/332/332 329/329/329 331/331/331
f 321/321/321 333/333/333 322/322/322
f 322/322/322 333/333/333 328/328/328
f 334/334/334 328/328/328 333/333/333
f 334/334/334 331/331/331 328/328/328
f 334/334/334 333/333/333 331/331/331
f 326/326/326 335/335/335 319/319/319
f 320/320/320 318/318/318 336/336/336
f 338/338/338 331/331/331 337/337/337
f 318/318/318 319/319/319 339/339/339
f 342/342/342 341/341/341 340/340/340
f 343/343/343 340/340/340 341/341/341
f 340/340/340 344/344/344 342/342/342
f 345/345/345 342/342/342 344/344/344
f 345/345/345 344/344/344 346/346/346
f 347/347/347 346/346/346 344/344/344
f 341/341/341 342/342/342 348/348/348
f 349/349/349 348/348/348 342/342/342
f 345/345/345 346/346/346 350/350/350
f 345/345/345 350/350/350 342/342/342
f 351/351/351 350/350/350 346/346/346
f 341/341/341 352/352/352 343/343/343
f 352/352/352 341/341/341 353/353/353
f 352/352/352 353/353/353 354/354/354
f 354/354/354 355/355/355 352/352/352
f 356/356/356 352/352/352 355/355/355
f 356/356/356 343/343/343 352/352/352
f 355/355/355 354/354/354 357/357/357
f 358/358/358 357/357/357 354/354/354
f 359/359/359 354/354/354 353/353/353
f 354/354/354 359/359/359 358/358/358
f 359/359/359 353/353/353 360/360/360
f 361/361/361 360/360/360 353/353/353
f 361/361/361 353/353/353 341/341/341
f 348/348/348 361/361/361 341/341/341
f 360/360/360 362/362/362 359/359/359
f 364/364/364 363/363/363 359/359/359
f 366/366/366 359/359/359 365/365/365
f 368/368/368 367/367/367 342/342/342
f 367/367/367 368/368/368 369/369/369
f 368/368/368 342/342/342 350/350/350
f 350/350/350 370/370/370 368/368/368
f 350/350/350 371/371/371 370/370/370
f 372/372/372 370/370/370 371/371/371
f 375/375/375 374/374/374 373/373/373
f 376/376/376 373/373/373 374/374/374
f 373/373/373 377/377/377 375/375/375
f 378/378/378 375/375/375 377/377/377
f 375/375/375 379/379/379 374/374/374
f 375/375/375 378/378/378 379/379/379
f 380/380/380 374/374/374 379/379/379
f 374/374/374 380/380/380 381/381/381
f 374/374/374 381/381/381 376/376/376
f 382/382/382 381/381/381 380/380/380
f 382/382/382 383/383/383 381/381/381
f 384/384/384 381/381/381 383/383/383
f 383/383/383 385/385/385 384/384/384
f 386/386/386 384/384/384 385/385/385
f 386/386/386 387/387/387 384/384/384
f 387/387/387 386/386/386 388/388/388
f 389/389/389 388/388/388 386/386/386
f 390/390/390 384/384/384 387/387/387
f 391/391/391 382/382/382 380/380/380
f 391/391/391 392/392/392 382/382/382
f 391/391/391 380/380/380 393/393/393
f 379/379/379 393/393/393 380/380/380
f 394/394/394 391/391/391 393/393/393
f 379/379/379 395/395/395 393/393/393
f 396/396/396 385/385/385 383/383/383
f 396/396/396 397/397/397 385/385/385
f 398/398/398 385/385/385 397/397/397
f 385/385/385 398/398/398 386/386/386
f 397/397/397 396/396/396 399/399/399
f 399/399/399 396/396/396 383/383/383
f 389/389/389 386/386/386 400/400/400
f 393/393/393 402/402/402 401/401/401
f 402/402/402 393/393/393 403/403/403
f 404/404/404 379/379/379 378/378/378
f 383/383/383 382/382/382 405/405/405
f 381/381/381 384/384/384 406/406/406
f 390/390/390 406/406/406 384/384/384
f 406/406/406 376/376/376 381/381/381
f 409/409/409 408/408/408 407/407/407
f 410/410/410 407/407/407 408/408/408
f 408/408/408 409/409/409 411/411/411
f 412/412/412 411/411/411 409/409/409
f 409/409/409 413/413/413 412/412/412
f 414/414/414 412/412/412 413/413/413
f 412/412/412 414/414/414 415/415/415
f 415/415/415 414/414/414 416/416/416
f 417/417/417 416/416/416 414/414/414
f 417/417/417 418/418/418 416/416/416
f 417/417/417 419/419/419 418/418/418
f 413/413/413 419/419/419 414/414/414
f 417/417/417 414/414/414 419/419/419
f 419/419/419 413/413/413 420/420/420
f 421/421/421 420/420/420 413/413/413
f 413/413/413 409/409/409 421/421/421
f 407/407/407 421/421/421 409/409/409
f 420/420/420 422/422/422 419/419/419
f 423/423/423 419/419/419 422/422/422
f 423/423/423 418/418/418 419/419/419
f 424/424/424 416/416/416 418/418/418
f 416/416/416 425/425/425 415/415/415
f 415/415/415 426/426/426 412/412/412
f 411/411/411 412/412/412 427/427/427
f 429/429/429 411/411/411 428/428/428
f 428/428/428 430/430/430 429/429/429
f 411/411/411 431/431/431 428/428/428
f 428/428/428 431/431/431 430/430/430
f 429/429/429 432/432/432 411/411/411
f 408/408/408 411/411/411 432/432/432
f 432/432/432 429/429/429 433/433/433
f 434/434/434 433/433/433 429/429/429
f 434/434/434 429/429/429 435/435/435
f 433/433/433 436/436/436 432/432/432
f 437/437/437 432/432/432 436/436/436
f 432/432/432 437/437/437 408/408/408
f 410/410/410 408/408/408 437/437/437
f 416/416/416 439/439/439 438/438/438
f 442/442/442 441/441/441 440/440/440
f 443/443/443 440/440/440 441/441/441
f 445/445/445 441/441/441 444/444/444
f 446/446/446 444/444/444 441/441/441
f 444/444/444 446/446/446 447/447/447
f 448/448/448 447/447/447 446/446/446
f 444/444/444 447/447/447 449/449/449
f 449/449/449 451/451/451 450/450/450
f 451/451/451 452/452/452 450/450/450
f 453/453/453 450/450/450 452/452/452
f 453/453/453 454/454/454 450/450/450
f 455/455/455 450/450/450 454/454/454
f 455/455/455 456/456/456 450/450/450
f 457/457/457 450/450/450 456/456/456
f 458/458/458 453/453/453 452/452/452
f 454/454/454 453/453/453 459/459/459
f 460/460/460 459/459/459 453/453/453
f 453/453/453 458/458/458 460/460/460
f 460/460/460 461/461/461 459/459/459
f 462/462/462 459/459/459 461/461/461
f 461/461/461 460/460/460 463/463/463
f 464/464/464 463/463/463 460/460/460
f 449/449/449 465/465/465 451/451/451
f 466/466/466 460/460/460 458/458/458
f 466/466/466 464/464/464 460/460/460
f 466/466/466 458/458/458 464/464/464
f 463/463/463 464/464/464 467/467/467
f 449/449/449 450/450/450 468/468/468
f 469/469/469 444/444/444 450/450/450
f 472/472/472 471/471/471 470/470/470
f 473/473/473 470/470/470 471/471/471
f 472/472/472 470/470/470 474/474/474
f 475/475/475 474/474/474 470/470/470
f 475/475/475 476/476/476 474/474/474
f 477/477/477 474/474/474 476/476/476
f 477/477/477 476/476/476 478/478/478
f 479/479/479 478/478/478 476/476/476
f 479/479/479 476/476/476 480/480/480
f 481/481/481 480/480/480 476/476/476
f 481/481/481 476/476/476 482/482/482
f 475/475/475 482/482/482 476/476/476
f 475/475/475 470/470/470 482/482/482
f 483/483/483 482/482/482 470/470/470
f 470/470/470 484/484/484 483/483/483
f 485/485/485 483/483/483 484/484/484
f 478/478/478 479/479/479 486/486/486
f 487/487/487 486/486/486 479/479/479
f 479/479/479 488/488/488 487/487/487
f 480/480/480 488/488/488 479/479/479
f 489/489/489 487/487/487 488/488/488
f 485/485/485 490/490/490 483/483/483
f 491/491/491 483/483/483 490/490/490
f 483/483/483 491/491/491 482/482/482
f 492/492/492 482/482/482 491/491/491
f 480/480/480 481/481/481 492/492/492
f 492/492/492 481/481/481 482/482/482
f 488/488/488 480/480/480 493/493/493
f 494/494/494 493/493/493 480/480/480
f 480/480/480 492/492/492 494/494/494
f 494/494/494 495/495/495 493/493/493
f 496/496/496 493/493/493 495/495/495
f 495/495/495 497/497/497 496/496/496
f 488/488/488 493/493/493 498/498/498
f 489/489/489 498/498/498 487/487/487
f 489/489/489 488/488/488 498/498/498
f 498/498/498 499/499/499 487/487/487
f 500/500/500 487/487/487 499/499/499
f 487/487/487 500/500/500 501/501/501
f 499/499/499 498/498/498 502/502/502
f 503/503/503 498/498/498 493/493/493
f 498/498/498 503/503/503 502/502/502
f 492/492/492 491/491/491 504/504/504
f 494/494/494 504/504/504 495/495/495
f 504/504/504 494/494/494 492/492/492
f 505/505/505 504/504/504 491/491/491
f 491/491/491 506/506/506 505/505/505
f 507/507/507 505/505/505 506/506/506
f 507/507/507 508/508/508 505/505/505
f 509/509/509 505/505/505 508/508/508
f 510/510/510 495/495/495 504/504/504
f 504/504/504 505/505/505 510/510/510
f 509/509/509 510/510/510 505/505/505
f 509/509/509 511/511/511 510/510/510
f 509/509/509 508/508/508 511/511/511
f 512/512/512 510/510/510 511/511/511
f 513/513/513 512/512/512 511/511/511
f 514/514/514 513/513/513 511/511/511
f 515/515/515 502/502/502 503/503/503
f 515/515/515 503/503/503 516/516/516
f 517/517/517 516/516/516 503/503/503
f 518/518/518 511/511/511 508/508/508
f 516/516/516 517/517/517 519/519/519
f 510/510/510 512/512/512 495/495/495
f 520/520/520 495/495/495 512/512/512
f 517/517/517 496/496/496 521/521/521
f 522/522/522 521/521/521 496/496/496
f 521/521/521 523/523/523 517/517/517
f 524/524/524 523/523/523 521/521/521
f 496/496/496 517/517/517 493/493/493
f 503/503/503 493/493/493 517/517/517
f 526/526/526 501/501/501 525/525/525
f 529/529/529 528/528/528 527/527/527
f 530/530/530 527/527/527 528/528/528
f 527/527/527 530/530/530 531/531/531
f 532/532/532 531/531/531 530/530/530
f 532/532/532 533/533/533 531/531/531
f 534/534/534 531/531/531 533/533/533
f 533/533/533 535/535/535 534/534/534
f 536/536/536 534/534/534 535/535/535
f 535/535/535 537/537/537 536/536/536
f 538/538/538 536/536/536 537/537/537
f 537/537/537 539/539/539 538/538/538
f 540/540/540 538/538/538 539/539/539
f 529/529/529 527/527/527 541/541/541
f 542/542/542 541/541/541 527/527/527
f 527/527/527 531/531/531 542/542/542
f 543/543/543 542/542/542 531/531/531
f 534/534/534 544/544/544 531/531/531
f 543/543/543 531/531/531 544/544/544
f 536/536/536 545/545/545 534/534/534
f 544/544/544 534/534/534 545/545/545
f 538/538/538 546/546/546 536/536/536
f 545/545/545 536/536/536 546/546/546
f 538/538/538 540/540/540 546/546/546
f 546/546/546 547/547/547 545/545/545
f 548/548/548 545/545/545 547/547/547
f 544/544/544 545/545/545 548/548/548
f 547/547/547 549/549/549 548/548/548
f 547/547/547 550/550/550 549/549/549
f 546/546/546 551/551/551 547/547/547
f 551/551/551 546/546/546 540/540/540
f 552/552/552 547/547/547 551/551/551
f 541/541/541 542/542/542 553/553/553
f 554/554/554 542/542/542 543/543/543
f 554/554/554 555/555/555 542/542/542
f 554/554/554 556/556/556 555/555/555
f 543/543/543 557/557/557 554/554/554
f 543/543/543 544/544/544 558/558/558
f 548/548/548 559/559/559 544/544/544
