g blue_asn_m_pve_2_belt
v -0.071676001 -0.0633149967 1.15207994
v -0.0812169984 -0.0673950016 1.17542994
v -0.0796499997 -0.075567998 1.17541993
v -0.0739680007 -0.078316994 1.21139991
v -0.0758909956 -0.065095 1.21355999
v -0.0665859953 -0.0800160021 1.18809998
v -0.0557910018 -0.0837749913 1.20169997
v -0.0294269975 -0.0924319997 1.21538997
v -0.0438290015 -0.0879629999 1.18809998
v -0.017523 -0.0938379914 1.18525004
v -0.0646610036 -0.0694169998 1.21835995
v -0.0758909956 -0.065095 1.21355999
v -0.0294930004 -0.0779569969 1.21863997
v -0.052652996 -0.044470001 1.21370006
v -0 -0.0468199998 1.21139991
v -0.0388699993 -0.0902389959 1.16569996
v -0.0237479992 -0.0936120003 1.14637995
v -0 -0.0953909978 1.16303003
v -0 -0.0955229998 1.12419999
v -0.0183119997 -0.0646129996 1.14036
v -0.0389840007 -0.0642259941 1.16387999
v -0.0388699993 -0.0902389959 1.16569996
v -0 -0.0661619976 1.12305999
v 0.0294930004 -0.0779569969 1.21863997
v 0.052652996 -0.044470001 1.21370006
v 0.0646610036 -0.0694169998 1.21835995
v 0.0294269975 -0.0924319997 1.21538997
v -0 -0.0952389985 1.20732999
v 0.0739680007 -0.078316994 1.21139991
v 0.0758909956 -0.065095 1.21355999
v 0.0557910018 -0.0837749913 1.20169997
v 0.0665859953 -0.0800160021 1.18809998
v 0.0796499997 -0.075567998 1.17541993
v 0.0812169984 -0.0673950016 1.17542994
v 0.071676001 -0.0633149967 1.15207994
v 0.0758909956 -0.065095 1.21355999
v 0.0438290015 -0.0879629999 1.18809998
v 0.0558580011 -0.0840239972 1.17423999
v 0.0388699993 -0.0902389959 1.16569996
v 0.0640799999 -0.0827429965 1.14063001
v 0.0640799999 -0.0827429965 1.14063001
v 0.0639489964 -0.0535909981 1.14040995
v 0.0668080002 -0.0522359982 1.14671004
v 0.017523 -0.0938379914 1.18525004
v 0.0438290015 -0.0879629999 1.18809998
v 0.0237479992 -0.0936120003 1.14637995
v -0 -0.0955229998 1.12419999
v 0.0183119997 -0.0646129996 1.14036
v 0.0389840007 -0.0642259941 1.16387999
v 0.0388699993 -0.0902389959 1.16569996
v -0 -0.0661619976 1.12305999
v 0.0389840007 -0.0642259941 1.16387999
v 0.0583039969 -0.0552389994 1.14587998
v 0.0640799999 -0.0827429965 1.14063001
v 0.0388699993 -0.0902389959 1.16569996
v 0.0640799999 -0.0827429965 1.14063001
v 0.0639489964 -0.0535909981 1.14040995
v -0.0639489964 -0.0535909981 1.14040995
v -0.0640799999 -0.0827429965 1.14063001
v -0.0583039969 -0.0552389994 1.14587998
v -0.0389840007 -0.0642259941 1.16387999
v -0.0388699993 -0.0902389959 1.16569996
v -0.0205550008 0.224754989 1.25336993
v -0 0.215153009 1.2664299
v -0.0163770001 0.218931988 1.25180995
v -0 0.219366997 1.27346992
v -0 0.215153009 1.2664299
v -0 0.230141997 1.23325992
v -0 0.269030005 1.26522994
v -0 0.219366997 1.27346992
v -0 0.269030005 1.26522994
v -0 0.269030005 1.26522994
v 0.0205550008 0.224754989 1.25336993
v -0 0.215153009 1.2664299
v -0 0.219366997 1.27346992
v 0.0163770001 0.218931988 1.25180995
v -0 0.215153009 1.2664299
v -0 0.269030005 1.26522994
v -0 0.230141997 1.23325992
v -0 0.223024994 1.23721993
v -0.0205550008 0.224754989 1.25336993
v -0.0163770001 0.218931988 1.25180995
v -0 0.230141997 1.23325992
v -0.0558580011 -0.0840239972 1.17423999
v -0.0409539975 -0.0959819928 1.18809998
v -0.0438290015 -0.0879629999 1.18809998
v -0.0578490011 -0.0914549977 1.16677999
v -0.0409539975 -0.0959819928 1.18809998
v -0.0637950003 -0.113644995 1.18809998
v -0.0578490011 -0.0914549977 1.20940995
v -0.0637950003 -0.113644995 1.18809998
v -0.0557910018 -0.0837749913 1.20169997
v -0.0438290015 -0.0879629999 1.18809998
v -0.0578490011 -0.0914549977 1.20940995
v -0.0747449994 -0.0869279951 1.18809998
v -0.0558580011 -0.0840239972 1.17423999
v -0.0665859953 -0.0800160021 1.18809998
v -0.0578490011 -0.0914549977 1.16677999
v -0.0747449994 -0.0869279951 1.18809998
v -0.0637950003 -0.113644995 1.18809998
v -0.0557910018 -0.0837749913 1.20169997
v -0.0665859953 -0.0800160021 1.18809998
v -0.0578490011 -0.0914549977 1.20940995
v -0.0578490011 -0.0914549977 1.20940995
v -0.0637950003 -0.113644995 1.18809998
v -0.0210449994 -0.0989200026 1.18525004
v -0 -0.0953909978 1.16303003
v -0.017523 -0.0938379914 1.18525004
v -0 -0.0989200026 1.15960991
v -0 -0.0952389985 1.20732999
v -0.0210449994 -0.0989200026 1.18525004
v -0.017523 -0.0938379914 1.18525004
v -0 -0.0989200026 1.21089995
v -0 -0.0989200026 1.21089995
v -0 -0.126560003 1.18525004
v -0 -0.0989200026 1.15960991
v -0 -0.126560003 1.18525004
v 0.0210449994 -0.0989200026 1.18525004
v -0 -0.126560003 1.18525004
v -0 -0.0952389985 1.20732999
v 0.017523 -0.0938379914 1.18525004
v -0 -0.0989200026 1.21089995
v -0 -0.0989200026 1.15960991
v -0 -0.126560003 1.18525004
v -0.0639489964 -0.0535909981 1.14040995
v -0.0668080002 -0.0522359982 1.14671004
v -0.0640799999 -0.0827429965 1.14063001
v -0.0640799999 -0.0827429965 1.14063001
v -0.0558580011 -0.0840239972 1.17423999
v -0.0438290015 -0.0879629999 1.18809998
v 0.0205550008 0.224754989 1.25336993
v -0 0.223024994 1.23721993
v 0.0163770001 0.218931988 1.25180995
v -0 0.230141997 1.23325992
v 0.0558580011 -0.0840239972 1.17423999
v 0.0409539975 -0.0959819928 1.18809998
v 0.0578490011 -0.0914549977 1.16677999
v 0.0438290015 -0.0879629999 1.18809998
v 0.0409539975 -0.0959819928 1.18809998
v 0.0637950003 -0.113644995 1.18809998
v 0.0578490011 -0.0914549977 1.20940995
v 0.0637950003 -0.113644995 1.18809998
v 0.0557910018 -0.0837749913 1.20169997
v 0.0578490011 -0.0914549977 1.20940995
v 0.0438290015 -0.0879629999 1.18809998
v 0.0557910018 -0.0837749913 1.20169997
v 0.0747449994 -0.0869279951 1.18809998
v 0.0558580011 -0.0840239972 1.17423999
v 0.0578490011 -0.0914549977 1.16677999
v 0.0665859953 -0.0800160021 1.18809998
v 0.0637950003 -0.113644995 1.18809998
v 0.0747449994 -0.0869279951 1.18809998
v 0.0557910018 -0.0837749913 1.20169997
v 0.0665859953 -0.0800160021 1.18809998
v 0.0578490011 -0.0914549977 1.20940995
v 0.0637950003 -0.113644995 1.18809998
v 0.0578490011 -0.0914549977 1.20940995
v 0.0210449994 -0.0989200026 1.18525004
v -0 -0.0953909978 1.16303003
v -0 -0.0989200026 1.15960991
v 0.017523 -0.0938379914 1.18525004
v -0 -0.0477639996 1.13335001
v -0.0183119997 -0.0646129996 1.14036
v 0.017231999 -0.0646129996 1.14036
v -0.061294999 -0.039388001 1.14175999
v -0.0583039969 -0.0552389994 1.14587998
v -0.0389840007 -0.0642259941 1.16387999
v -0.0668080002 -0.0522359982 1.14671004
v -0.0965289921 0.217907012 1.21153998
v -0 0.228452995 1.21724999
v -0.0998620018 0.226191998 1.22099996
v -0 0.219270989 1.20835996
v -0.177051991 0.16249299 1.21306992
v -0.168956995 0.158050999 1.20398998
v -0.199903995 0.0848819986 1.18731999
v -0.210452989 0.0824559927 1.19494998
v -0.182198003 0.0070199999 1.16798997
v -0.174026996 0.0153359994 1.16190994
v -0.136453003 -0.0220939983 1.15929997
v -0.131950989 -0.011167 1.15365994
v -0.178383008 0.150968 1.22482002
v -0.204413995 0.074939996 1.20811999
v -0.165258989 -0.00443699956 1.20075989
v -0.178036004 0.00640299963 1.18644989
v -0.178740993 0.0175659992 1.20695996
v -0.193839997 0.0586859994 1.22411001
v -0.129479989 -0.0276889987 1.22223997
v -0.162191004 -0.00703400001 1.23302996
v -0.152215987 -0.00118699996 1.23880994
v -0.177980989 0.0648460016 1.26197994
v -0.190207988 0.0654999986 1.2579
v -0.158143997 0.134719998 1.27833998
v -0.168147996 0.142334998 1.27567995
v -0.0912059918 0.189393997 1.2873199
v -0.0960009918 0.201076999 1.28501999
v -0 0.21083799 1.28259003
v -0 0.198137999 1.28548992
v -0.123994999 -0.0189830009 1.23067999
v -0.169137985 0.00212899991 1.21959996
v -0.172975987 0.140405998 1.26472998
v -0.193999007 0.0677789971 1.24405992
v -0.184116989 0.131088004 1.24204993
v -0.195593998 0.0844319984 1.22969997
v -0.107228003 0.200445995 1.26442993
v -0.0947869942 0.213321984 1.25452006
v -0.167243004 0.160286009 1.24749994
v -0.108914003 0.210225999 1.23914993
v -0.115768 0.19902201 1.25089991
v -0.0163770001 0.218931988 1.25180995
v -0 0.223024994 1.23721993
v -0 0.215153009 1.2664299
v -0.172975987 0.140405998 1.26472998
v -0.184116989 0.131088004 1.24204993
v -0.215086997 0.166441992 1.25560999
v -0.184116989 0.131088004 1.24204993
v -0.178383008 0.150968 1.22482002
v -0.167243004 0.160286009 1.24749994
v -0.172975987 0.140405998 1.26472998
v -0.215086997 0.166441992 1.25560999
v -0.178383008 0.150968 1.22482002
v -0.167243004 0.160286009 1.24749994
v -0.108914003 0.210225999 1.23914993
v -0.126479998 0.207313001 1.25413001
v -0.115768 0.19902201 1.25089991
v -0.108914003 0.210225999 1.23914993
v -0.111027002 0.218360007 1.23503995
v -0.107228003 0.200445995 1.26442993
v -0.0936209932 0.216544986 1.25550997
v -0.0947869942 0.213321984 1.25452006
v -0.109073997 0.205498993 1.27459002
v -0.122390002 0.253726989 1.26901996
v -0.111027002 0.218360007 1.23503995
v -0.126479998 0.207313001 1.25413001
v -0.107228003 0.200445995 1.26442993
v -0.115768 0.19902201 1.25089991
v -0.109073997 0.205498993 1.27459002
v -0.107228003 0.200445995 1.26442993
v -0.122390002 0.253726989 1.26901996
v -0.111027002 0.218360007 1.23503995
v -0.245400995 0.0670929998 1.23442996
v -0.204413995 0.074939996 1.20811999
v -0.201119989 0.087635003 1.23127997
v -0.196874991 0.0668179989 1.2478199
v -0.193999007 0.0677789971 1.24405992
v -0.195593998 0.0844319984 1.22969997
v -0.201119989 0.087635003 1.23127997
v -0.193999007 0.0677789971 1.24405992
v -0.195593998 0.0844319984 1.22969997
v -0.199331999 0.0542829968 1.22412002
v -0.193999007 0.0677789971 1.24405992
v -0.193839997 0.0586859994 1.22411001
v -0.196874991 0.0668179989 1.2478199
v -0.193999007 0.0677789971 1.24405992
v -0.245400995 0.0670929998 1.23442996
v -0.204413995 0.074939996 1.20811999
v -0.199331999 0.0542829968 1.22412002
v -0.193839997 0.0586859994 1.22411001
v -0.181187987 0.00573799992 1.18422997
v -0.165258989 -0.00443699956 1.20075989
v -0.178036004 0.00640299963 1.18644989
v -0.181187987 0.00573799992 1.18422997
v -0.170933992 -0.0128680002 1.20077002
v -0.170933992 -0.0128680002 1.20077002
v -0.218726993 -0.0143689997 1.21107996
v -0.172324002 -0.000171000007 1.2244699
v -0.169137985 0.00212899991 1.21959996
v -0.169137985 0.00212899991 1.21959996
v -0.165258989 -0.00443699956 1.20075989
v -0.182578996 0.0184359998 1.20792997
v -0.178036004 0.00640299963 1.18644989
v -0.178740993 0.0175659992 1.20695996
v -0.181187987 0.00573799992 1.18422997
v -0.169137985 0.00212899991 1.21959996
v -0.178740993 0.0175659992 1.20695996
v -0.172324002 -0.000171000007 1.2244699
v -0.218726993 -0.0143689997 1.21107996
v -0.181187987 0.00573799992 1.18422997
v -0.108914003 0.210225999 1.23914993
v -0.0936209932 0.216544986 1.25550997
v -0.111027002 0.218360007 1.23503995
v -0.0947869942 0.213321984 1.25452006
v 0.0965289921 0.217907012 1.21153998
v -0 0.228452995 1.21724999
v -0 0.219270989 1.20835996
v 0.0998620018 0.226191998 1.22099996
v 0.177051991 0.16249299 1.21306992
v 0.168956995 0.158050999 1.20398998
v 0.199903995 0.0848819986 1.18731999
v 0.210452989 0.0824559927 1.19494998
v 0.182198003 0.0070199999 1.16798997
v 0.174026996 0.0153359994 1.16190994
v 0.136453003 -0.0220939983 1.15929997
v 0.131950989 -0.011167 1.15365994
v 0.178383008 0.150968 1.22482002
v 0.204413995 0.074939996 1.20811999
v 0.165258989 -0.00443699956 1.20075989
v 0.178036004 0.00640299963 1.18644989
v 0.178740993 0.0175659992 1.20695996
v 0.193839997 0.0586859994 1.22411001
v 0.129479989 -0.0276889987 1.22223997
v 0.162191004 -0.00703400001 1.23302996
v 0.152215987 -0.00118699996 1.23880994
v 0.177980989 0.0648460016 1.26197994
v 0.190207988 0.0654999986 1.2579
v 0.158143997 0.134719998 1.27833998
v 0.168147996 0.142334998 1.27567995
v 0.0912059918 0.189393997 1.2873199
v 0.0960009918 0.201076999 1.28501999
v -0 0.21083799 1.28259003
v -0 0.198137999 1.28548992
v 0.123994999 -0.0189830009 1.23067999
v 0.169137985 0.00212899991 1.21959996
v 0.172975987 0.140405998 1.26472998
v 0.193999007 0.0677789971 1.24405992
v 0.184116989 0.131088004 1.24204993
v 0.195593998 0.0844319984 1.22969997
v 0.107228003 0.200445995 1.26442993
v 0.0947869942 0.213321984 1.25452006
v 0.167243004 0.160286009 1.24749994
v 0.108914003 0.210225999 1.23914993
v 0.115768 0.19902201 1.25089991
v 0.0163770001 0.218931988 1.25180995
v -0 0.223024994 1.23721993
v -0 0.215153009 1.2664299
v 0.172975987 0.140405998 1.26472998
v 0.215086997 0.166441992 1.25560999
v 0.184116989 0.131088004 1.24204993
v 0.184116989 0.131088004 1.24204993
v 0.178383008 0.150968 1.22482002
v 0.167243004 0.160286009 1.24749994
v 0.215086997 0.166441992 1.25560999
v 0.172975987 0.140405998 1.26472998
v 0.167243004 0.160286009 1.24749994
v 0.178383008 0.150968 1.22482002
v 0.108914003 0.210225999 1.23914993
v 0.126479998 0.207313001 1.25413001
v 0.111027002 0.218360007 1.23503995
v 0.108914003 0.210225999 1.23914993
v 0.115768 0.19902201 1.25089991
v 0.107228003 0.200445995 1.26442993
v 0.0936209932 0.216544986 1.25550997
v 0.109073997 0.205498993 1.27459002
v 0.0947869942 0.213321984 1.25452006
v 0.122390002 0.253726989 1.26901996
v 0.111027002 0.218360007 1.23503995
v 0.126479998 0.207313001 1.25413001
v 0.107228003 0.200445995 1.26442993
v 0.109073997 0.205498993 1.27459002
v 0.122390002 0.253726989 1.26901996
v 0.111027002 0.218360007 1.23503995
v 0.115768 0.19902201 1.25089991
v 0.107228003 0.200445995 1.26442993
v 0.245400995 0.0670929998 1.23442996
v 0.201119989 0.087635003 1.23127997
v 0.204413995 0.074939996 1.20811999
v 0.196874991 0.0668179989 1.2478199
v 0.193999007 0.0677789971 1.24405992
v 0.201119989 0.087635003 1.23127997
v 0.195593998 0.0844319984 1.22969997
v 0.193999007 0.0677789971 1.24405992
v 0.195593998 0.0844319984 1.22969997
v 0.199331999 0.0542829968 1.22412002
v 0.193999007 0.0677789971 1.24405992
v 0.196874991 0.0668179989 1.2478199
v 0.245400995 0.0670929998 1.23442996
v 0.204413995 0.074939996 1.20811999
v 0.193839997 0.0586859994 1.22411001
v 0.193999007 0.0677789971 1.24405992
v 0.193839997 0.0586859994 1.22411001
v 0.199331999 0.0542829968 1.22412002
v 0.181187987 0.00573799992 1.18422997
v 0.165258989 -0.00443699956 1.20075989
v 0.170933992 -0.0128680002 1.20077002
v 0.181187987 0.00573799992 1.18422997
v 0.178036004 0.00640299963 1.18644989
v 0.170933992 -0.0128680002 1.20077002
v 0.218726993 -0.0143689997 1.21107996
v 0.172324002 -0.000171000007 1.2244699
v 0.169137985 0.00212899991 1.21959996
v 0.169137985 0.00212899991 1.21959996
v 0.165258989 -0.00443699956 1.20075989
v 0.182578996 0.0184359998 1.20792997
v 0.178036004 0.00640299963 1.18644989
v 0.181187987 0.00573799992 1.18422997
v 0.178740993 0.0175659992 1.20695996
v 0.169137985 0.00212899991 1.21959996
v 0.172324002 -0.000171000007 1.2244699
v 0.178740993 0.0175659992 1.20695996
v 0.218726993 -0.0143689997 1.21107996
v 0.181187987 0.00573799992 1.18422997
v 0.0183119997 -0.0646129996 1.14036
v 0.0389840007 -0.0642259941 1.16387999
v 0.0583039969 -0.0552389994 1.14587998
v 0.061294999 -0.039388001 1.14175999
v 0.0668080002 -0.0522359982 1.14671004
v -0 -0.0477639996 1.13335001
v 0.108914003 0.210225999 1.23914993
v 0.0936209932 0.216544986 1.25550997
v 0.0947869942 0.213321984 1.25452006
v 0.111027002 0.218360007 1.23503995
v -0.129479989 -0.0276889987 1.22223997
v -0.140785992 -0.0395609997 1.18876994
v -0.136453003 -0.0220939983 1.15929997
v -0.132424995 -0.0358339995 1.22876
v -0.123994999 -0.0189830009 1.23067999
v -0.0646610036 -0.0694169998 1.21835995
v -0.049360998 -0.0403079987 1.22160995
v -0.0758909956 -0.065095 1.21355999
v -0.052652996 -0.044470001 1.21370006
v -0.0812169984 -0.0673950016 1.17542994
v -0.139024004 -0.0241589993 1.14805996
v -0.071676001 -0.0633149967 1.15207994
v -0.131950989 -0.011167 1.15365994
v -0.124359995 0.00532199955 1.15085995
v -0.0712599978 -0.0577409975 1.13765991
v -0.056003999 -0.028554 1.14037001
v -0.061294999 -0.039388001 1.14175999
v -0.0668080002 -0.0522359982 1.14671004
v -0.117716998 -0.00643199962 1.23210001
v -0.117716998 -0.00643199962 1.23210001
v -0.131950989 -0.011167 1.15365994
v -0.124359995 0.00532199955 1.15085995
v -0.123994999 -0.0189830009 1.23067999
v -0.056003999 -0.028554 1.14037001
v -0.052652996 -0.044470001 1.21370006
v -0.049360998 -0.0403079987 1.22160995
v -0.061294999 -0.039388001 1.14175999
v 0.129479989 -0.0276889987 1.22223997
v 0.140785992 -0.0395609997 1.18876994
v 0.132424995 -0.0358339995 1.22876
v 0.136453003 -0.0220939983 1.15929997
v 0.123994999 -0.0189830009 1.23067999
v 0.0646610036 -0.0694169998 1.21835995
v 0.049360998 -0.0403079987 1.22160995
v 0.0758909956 -0.065095 1.21355999
v 0.052652996 -0.044470001 1.21370006
v 0.0812169984 -0.0673950016 1.17542994
v 0.139024004 -0.0241589993 1.14805996
v 0.071676001 -0.0633149967 1.15207994
v 0.131950989 -0.011167 1.15365994
v 0.124359995 0.00532199955 1.15085995
v 0.0712599978 -0.0577409975 1.13765991
v 0.056003999 -0.028554 1.14037001
v 0.061294999 -0.039388001 1.14175999
v 0.0668080002 -0.0522359982 1.14671004
v 0.117716998 -0.00643199962 1.23210001
v 0.117716998 -0.00643199962 1.23210001
v 0.131950989 -0.011167 1.15365994
v 0.123994999 -0.0189830009 1.23067999
v 0.124359995 0.00532199955 1.15085995
v 0.056003999 -0.028554 1.14037001
v 0.052652996 -0.044470001 1.21370006
v 0.061294999 -0.039388001 1.14175999
v 0.049360998 -0.0403079987 1.22160995
vt 0.234484553 0.60481441
vt 0.245129079 0.703518867
vt 0.260871857 0.697291255
vt 0.286380738 0.829427123
vt 0.262273669 0.851822019
vt 0.293209016 0.731114805
vt 0.318806112 0.771975398
vt 0.375278592 0.809118986
vt 0.340585202 0.699521959
vt 0.392418474 0.69249773
vt 0.303783208 0.880648553
vt 0.277827859 0.881066024
vt 0.374035507 0.863188982
vt 0.325803429 0.986259639
vt 0.431338936 0.990388691
vt 0.343666375 0.59530282
vt 0.386829019 0.541243851
vt 0.433292776 0.620242715
vt 0.434787184 0.481413603
vt 0.379350424 0.424718291
vt 0.330825239 0.486106932
vt 0.343666375 0.59530282
vt 0.436072975 0.387023091
vt 0.489353746 0.863865793
vt 0.53666538 0.989281535
vt 0.559427142 0.884719551
vt 0.48846972 0.810803115
vt 0.432082921 0.7726807
vt 0.577361166 0.834626853
vt 0.585309446 0.886583447
vt 0.545433164 0.776959121
vt 0.571546197 0.735975444
vt 0.603830338 0.702590585
vt 0.619490504 0.70937103
vt 0.630794168 0.610717535
vt 0.601389289 0.857331634
vt 0.52478534 0.706247509
vt 0.556593597 0.66800642
vt 0.522480309 0.605212271
vt 0.593506992 0.554456294
vt 0.593506992 0.554456294
vt 0.650547683 0.557480454
vt 0.653012335 0.584543586
vt 0.472702235 0.695011556
vt 0.52478534 0.706247509
vt 0.480972886 0.545008183
vt 0.434787184 0.481413603
vt 0.492909372 0.428044021
vt 0.53509891 0.506166995
vt 0.522480309 0.605212271
vt 0.436072975 0.387023091
vt 0.53509891 0.506166995
vt 0.575404584 0.448486447
vt 0.593506992 0.554456294
vt 0.522480309 0.605212271
vt 0.593506992 0.554456294
vt 0.590559542 0.440296054
vt 0.271261096 0.43884179
vt 0.271942347 0.550987124
vt 0.28605172 0.447583258
vt 0.330825239 0.486106932
vt 0.343666375 0.59530282
vt 0.0773812681 0.788935542
vt 0.125005305 0.738959253
vt 0.0724100545 0.758458197
vt 0.125005305 0.76100558
vt 0.125005305 0.738959253
vt 0.0360251367 0.859270275
vt 0.125005305 0.969420791
vt 0.125005305 0.76100558
vt 0.125005305 0.969420791
vt 0.125005305 0.969420791
vt 0.175031096 0.790955305
vt 0.125005305 0.738959253
vt 0.125005305 0.76100558
vt 0.178612888 0.771263421
vt 0.125005305 0.738959253
vt 0.125005305 0.969420791
vt 0.215823203 0.863580287
vt 0.0346621908 0.815818965
vt 0.0773812681 0.788935542
vt 0.0724100545 0.758458197
vt 0.0360251367 0.859270275
vt 0.188505799 0.54288584
vt 0.153053969 0.603818655
vt 0.160093337 0.62684077
vt 0.179698318 0.499539167
vt 0.153053969 0.603818655
vt 0.110213272 0.519790173
vt 0.110478193 0.648097992
vt 0.110213272 0.519790173
vt 0.110793702 0.668999314
vt 0.160093337 0.62684077
vt 0.110478193 0.648097992
vt 0.0655070469 0.603756726
vt 0.033430554 0.54732734
vt 0.0577393398 0.623151302
vt 0.041894149 0.50417757
vt 0.0655070469 0.603756726
vt 0.110213272 0.519790173
vt 0.110793702 0.668999314
vt 0.0577393398 0.623151302
vt 0.110478193 0.648097992
vt 0.110478193 0.648097992
vt 0.110213272 0.519790173
vt 0.0655070469 0.603756726
vt 0.033430554 0.54732734
vt 0.0577393398 0.623151302
vt 0.041894149 0.50417757
vt 0.110793702 0.668999314
vt 0.0655070469 0.603756726
vt 0.0577393398 0.623151302
vt 0.110478193 0.648097992
vt 0.110478193 0.648097992
vt 0.110213272 0.519790173
vt 0.041894149 0.50417757
vt 0.110213272 0.519790173
vt 0.153053969 0.603818655
vt 0.110213272 0.519790173
vt 0.110793702 0.668999314
vt 0.160093337 0.62684077
vt 0.110478193 0.648097992
vt 0.179698318 0.499539167
vt 0.110213272 0.519790173
vt 0.215257257 0.550865114
vt 0.212532222 0.57776016
vt 0.271942347 0.550987124
vt 0.271942347 0.550987124
vt 0.308890283 0.662612855
vt 0.340585202 0.699521959
vt 0.175031096 0.790955305
vt 0.218581706 0.823693573
vt 0.178612888 0.771263421
vt 0.215823203 0.863580287
vt 0.033430554 0.54732734
vt 0.0655070469 0.603756726
vt 0.041894149 0.50417757
vt 0.0577393398 0.623151302
vt 0.0655070469 0.603756726
vt 0.110213272 0.519790173
vt 0.110478193 0.648097992
vt 0.110213272 0.519790173
vt 0.110793702 0.668999314
vt 0.110478193 0.648097992
vt 0.0577393398 0.623151302
vt 0.110793702 0.668999314
vt 0.153053969 0.603818655
vt 0.188505799 0.54288584
vt 0.179698318 0.499539167
vt 0.160093337 0.62684077
vt 0.110213272 0.519790173
vt 0.153053969 0.603818655
vt 0.110793702 0.668999314
vt 0.160093337 0.62684077
vt 0.110478193 0.648097992
vt 0.110213272 0.519790173
vt 0.110478193 0.648097992
vt 0.153053969 0.603818655
vt 0.188505799 0.54288584
vt 0.179698318 0.499539167
vt 0.160093337 0.62684077
vt 0.944718778 0.424607873
vt 0.910771072 0.506889999
vt 0.983609438 0.492914826
vt 0.816195011 0.426780701
vt 0.825744212 0.492849708
vt 0.859686852 0.585844159
vt 0.807464838 0.485518932
vt 0.201553643 0.0138102798
vt 0.0103552751 0.104055241
vt 0.202187717 0.0615138076
vt 0.00873504858 0.0527032465
vt 0.394814909 0.056192439
vt 0.395231128 0.00656512659
vt 0.564501822 0.0149990646
vt 0.563993275 0.0629541352
vt 0.724206686 0.09526214
vt 0.728057683 0.0481689908
vt 0.824654996 0.153832093
vt 0.828279078 0.100279644
vt 0.410090834 0.11248558
vt 0.568932414 0.124922231
vt 0.730853856 0.244958609
vt 0.714320362 0.165904939
vt 0.680517197 0.224644244
vt 0.589380443 0.213456124
vt 0.785969198 0.395870179
vt 0.710075915 0.364404142
vt 0.705426931 0.412047148
vt 0.55249238 0.378189117
vt 0.554396689 0.328847438
vt 0.398010224 0.37046814
vt 0.397295177 0.321778655
vt 0.219764233 0.376168936
vt 0.217417717 0.327420324
vt 0.0315384381 0.370337874
vt 0.0382529236 0.420938462
vt 0.774229646 0.445847452
vt 0.702096999 0.298697859
vt 0.408424586 0.280521959
vt 0.560141265 0.272424936
vt 0.440696031 0.198181525
vt 0.537591577 0.198558137
vt 0.236619473 0.245234817
vt 0.204134971 0.202205867
vt 0.378993422 0.195582062
vt 0.23113212 0.141497865
vt 0.252977729 0.192562297
vt 0.0516387708 0.235235676
vt 0.01586226 0.184739903
vt 0.0255596787 0.30554837
vt 0.125005305 0.76100558
vt 0.0773812681 0.788935542
vt 0.125005305 0.969420791
vt 0.0773812681 0.788935542
vt 0.0360251367 0.859270275
vt 0.175031096 0.790955305
vt 0.125005305 0.76100558
vt 0.125005305 0.969420791
vt 0.215823203 0.863580287
vt 0.175031096 0.790955305
vt 0.0346621908 0.815818965
vt 0.0773812681 0.788935542
vt 0.0724100545 0.758458197
vt 0.0346621908 0.815818965
vt 0.0360251367 0.859270275
vt 0.125005305 0.738959253
vt 0.175031096 0.790955305
vt 0.178612888 0.771263421
vt 0.125005305 0.76100558
vt 0.125005305 0.969420791
vt 0.215823203 0.863580287
vt 0.0773812681 0.788935542
vt 0.125005305 0.738959253
vt 0.0724100545 0.758458197
vt 0.125005305 0.76100558
vt 0.125005305 0.738959253
vt 0.125005305 0.969420791
vt 0.0360251367 0.859270275
vt 0.125005305 0.969420791
vt 0.215823203 0.863580287
vt 0.175031096 0.790955305
vt 0.125005305 0.76100558
vt 0.125005305 0.738959253
vt 0.178612888 0.771263421
vt 0.175031096 0.790955305
vt 0.125005305 0.738959253
vt 0.178612888 0.771263421
vt 0.0773812681 0.788935542
vt 0.125005305 0.738959253
vt 0.0724100545 0.758458197
vt 0.125005305 0.76100558
vt 0.125005305 0.738959253
vt 0.125005305 0.969420791
vt 0.0360251367 0.859270275
vt 0.0773812681 0.788935542
vt 0.0724100545 0.758458197
vt 0.0360251367 0.859270275
vt 0.0724100545 0.758458197
vt 0.0346621908 0.815818965
vt 0.0360251367 0.859270275
vt 0.0773812681 0.788935542
vt 0.0773812681 0.788935542
vt 0.125005305 0.969420791
vt 0.125005305 0.76100558
vt 0.125005305 0.738959253
vt 0.125005305 0.738959253
vt 0.0724100545 0.758458197
vt 0.175031096 0.790955305
vt 0.218581706 0.823693573
vt 0.178612888 0.771263421
vt 0.215823203 0.863580287
vt 0.125005305 0.738959253
vt 0.178612888 0.771263421
vt 0.125005305 0.76100558
vt 0.125005305 0.969420791
vt 0.215823203 0.863580287
vt 0.218581706 0.823693573
vt 0.175031096 0.790955305
vt 0.215823203 0.863580287
vt 0.178612888 0.771263421
vt 0.201553643 0.0138102798
vt 0.0103552751 0.104055241
vt 0.00873504858 0.0527032465
vt 0.202187717 0.0615138076
vt 0.394814909 0.056192439
vt 0.395231128 0.00656512659
vt 0.564501822 0.0149990646
vt 0.563993275 0.0629541352
vt 0.724206686 0.09526214
vt 0.728057683 0.0481689908
vt 0.824654996 0.153832093
vt 0.828279078 0.100279644
vt 0.410090834 0.11248558
vt 0.568932414 0.124922231
vt 0.730853856 0.244958609
vt 0.714320362 0.165904939
vt 0.680517197 0.224644244
vt 0.589380443 0.213456124
vt 0.785969198 0.395870179
vt 0.710075915 0.364404142
vt 0.705426931 0.412047148
vt 0.55249238 0.378189117
vt 0.554396689 0.328847438
vt 0.398010224 0.37046814
vt 0.397295177 0.321778655
vt 0.219764233 0.376168936
vt 0.217417717 0.327420324
vt 0.0315384381 0.370337874
vt 0.0382529236 0.420938462
vt 0.774229646 0.445847452
vt 0.702096999 0.298697859
vt 0.408424586 0.280521959
vt 0.560141265 0.272424936
vt 0.440696031 0.198181525
vt 0.537591577 0.198558137
vt 0.236619473 0.245234817
vt 0.204134971 0.202205867
vt 0.378993422 0.195582062
vt 0.23113212 0.141497865
vt 0.252977729 0.192562297
vt 0.0516387708 0.235235676
vt 0.01586226 0.184739903
vt 0.0255596787 0.30554837
vt 0.125005305 0.76100558
vt 0.125005305 0.969420791
vt 0.0773812681 0.788935542
vt 0.0773812681 0.788935542
vt 0.0360251367 0.859270275
vt 0.175031096 0.790955305
vt 0.125005305 0.969420791
vt 0.125005305 0.76100558
vt 0.175031096 0.790955305
vt 0.215823203 0.863580287
vt 0.0346621908 0.815818965
vt 0.0773812681 0.788935542
vt 0.0360251367 0.859270275
vt 0.0346621908 0.815818965
vt 0.0724100545 0.758458197
vt 0.125005305 0.738959253
vt 0.175031096 0.790955305
vt 0.125005305 0.76100558
vt 0.178612888 0.771263421
vt 0.125005305 0.969420791
vt 0.215823203 0.863580287
vt 0.0773812681 0.788935542
vt 0.125005305 0.738959253
vt 0.125005305 0.76100558
vt 0.125005305 0.969420791
vt 0.0360251367 0.859270275
vt 0.0724100545 0.758458197
vt 0.125005305 0.738959253
vt 0.125005305 0.969420791
vt 0.175031096 0.790955305
vt 0.215823203 0.863580287
vt 0.125005305 0.76100558
vt 0.125005305 0.738959253
vt 0.175031096 0.790955305
vt 0.178612888 0.771263421
vt 0.125005305 0.738959253
vt 0.178612888 0.771263421
vt 0.0773812681 0.788935542
vt 0.125005305 0.738959253
vt 0.125005305 0.76100558
vt 0.125005305 0.969420791
vt 0.0360251367 0.859270275
vt 0.0724100545 0.758458197
vt 0.125005305 0.738959253
vt 0.0724100545 0.758458197
vt 0.0773812681 0.788935542
vt 0.0360251367 0.859270275
vt 0.0724100545 0.758458197
vt 0.0773812681 0.788935542
vt 0.0360251367 0.859270275
vt 0.0346621908 0.815818965
vt 0.0773812681 0.788935542
vt 0.125005305 0.969420791
vt 0.125005305 0.76100558
vt 0.125005305 0.738959253
vt 0.125005305 0.738959253
vt 0.0724100545 0.758458197
vt 0.175031096 0.790955305
vt 0.218581706 0.823693573
vt 0.215823203 0.863580287
vt 0.178612888 0.771263421
vt 0.125005305 0.738959253
vt 0.125005305 0.76100558
vt 0.178612888 0.771263421
vt 0.125005305 0.969420791
vt 0.215823203 0.863580287
vt 0.910771072 0.506889999
vt 0.859686852 0.585844159
vt 0.825744212 0.492849708
vt 0.816195011 0.426780701
vt 0.807464838 0.485518932
vt 0.944718778 0.424607873
vt 0.218581706 0.823693573
vt 0.175031096 0.790955305
vt 0.178612888 0.771263421
vt 0.215823203 0.863580287
vt 0.906751633 0.934359252
vt 0.833175302 0.895293355
vt 0.768346369 0.957022429
vt 0.909500003 0.899624705
vt 0.941614449 0.923086226
vt 0.921416223 0.595195889
vt 0.988487422 0.614212513
vt 0.903927326 0.635304153
vt 0.978366017 0.581188202
vt 0.823113441 0.627796471
vt 0.75224483 0.916451454
vt 0.773413002 0.597182989
vt 0.730815947 0.953094423
vt 0.687606573 0.934699833
vt 0.746521294 0.61795038
vt 0.682608426 0.597472668
vt 0.709373295 0.584391356
vt 0.743688166 0.577208877
vt 0.970315099 0.928236187
vt 0.968182385 0.0423439443
vt 0.929759026 0.363320976
vt 0.966311693 0.38274619
vt 0.939145088 0.0421797857
vt 0.898780823 0.041213654
vt 0.884925246 0.350452274
vt 0.89690876 0.381617278
vt 0.874272466 0.050966572
vt 0.906751633 0.934359252
vt 0.833175302 0.895293355
vt 0.909500003 0.899624705
vt 0.768346369 0.957022429
vt 0.941614449 0.923086226
vt 0.921416223 0.595195889
vt 0.988487422 0.614212513
vt 0.903927326 0.635304153
vt 0.978366017 0.581188202
vt 0.823113441 0.627796471
vt 0.75224483 0.916451454
vt 0.773413002 0.597182989
vt 0.730815947 0.953094423
vt 0.687606573 0.934699833
vt 0.746521294 0.61795038
vt 0.682608426 0.597472668
vt 0.709373295 0.584391356
vt 0.743688166 0.577208877
vt 0.970315099 0.928236187
vt 0.968182385 0.0423439443
vt 0.929759026 0.363320976
vt 0.939145088 0.0421797857
vt 0.966311693 0.38274619
vt 0.898780823 0.041213654
vt 0.884925246 0.350452274
vt 0.874272466 0.050966572
vt 0.89690876 0.381617278
vn -0.694184244 -0.529346228 -0.487750828
vn -0.780473411 -0.606356502 -0.152292579
vn -0.809957683 -0.578976452 -0.0935673937
vn -0.637686491 -0.607746005 0.473286927
vn -0.612097979 -0.723554015 0.319070071
vn -0.877437234 -0.479681641 -0.00307607371
vn -0.261845946 -0.724648595 0.63743329
vn -0.163456887 -0.792494357 0.587566674
vn 0.506874323 -0.861943662 0.011468064
vn -0.789202988 -0.614003479 0.0125845447
vn -0.0945994258 -0.253245682 0.962765574
vn -0.612097979 -0.723554015 0.319070071
vn -0.0288057532 -0.0684319586 0.997239828
vn 0.885674238 -0.364030421 0.28820619
vn -0 0.199489027 0.979900062
vn -0.30132398 -0.887891769 -0.347637713
vn -0.575982988 -0.678476036 -0.455975682
vn -0 -0.752775729 -0.658277035
vn -0 -0.609405994 -0.792858362
vn -0.463527083 -0.265349209 -0.845418453
vn -0.0874068961 -0.486853957 -0.869099081
vn -0.30132398 -0.887891769 -0.347637713
vn -0 -0.0349641331 -0.999388576
vn 0.0288057588 -0.0684319735 0.997239828
vn -0.885674238 -0.36403048 0.28820622
vn 0.0945994407 -0.253245682 0.962765574
vn 0.163456902 -0.792494357 0.587566674
vn -0 -0.616619527 0.787261307
vn 0.637686491 -0.607746065 0.473286927
vn 0.612097919 -0.723554015 0.319070071
vn 0.261845946 -0.724648595 0.63743329
vn 0.877437234 -0.4796817 -0.00307607371
vn 0.809957683 -0.578976452 -0.0935673937
vn 0.780473411 -0.606356502 -0.152292579
vn 0.694184244 -0.529346228 -0.487750769
vn 0.612097919 -0.723554015 0.319070071
vn -0.506874442 -0.861943662 0.0114680342
vn 0.318500817 -0.70996803 -0.628094494
vn 0.30132398 -0.887891769 -0.347637743
vn 0.182083294 -0.575449586 -0.797310114
vn 0.182083294 -0.575449586 -0.797310114
vn 0.331590801 0.0280821305 -0.943005264
vn -0.259697586 -0.467416346 -0.845032096
vn 0.789202988 -0.614003479 0.0125845745
vn -0.506874442 -0.861943662 0.0114680342
vn 0.575982988 -0.678476095 -0.455975682
vn -0 -0.609405994 -0.792858362
vn 0.516080439 -0.346057296 -0.783521175
vn 0.0874068439 -0.486853898 -0.869099081
vn 0.30132398 -0.887891769 -0.347637743
vn -0 -0.0349641331 -0.999388576
vn 0.0874068439 -0.486853898 -0.869099081
vn -0.599222541 -0.275783539 -0.751582205
vn 0.182083294 -0.575449586 -0.797310114
vn 0.30132398 -0.887891769 -0.347637743
vn 0.182083294 -0.575449586 -0.797310114
vn 0.331590801 0.0280821305 -0.943005264
vn -0.331590712 0.0280821361 -0.943005264
vn -0.182083353 -0.575449526 -0.797310174
vn 0.236300886 -0.291008651 -0.92707926
vn -0.0874068961 -0.486853957 -0.869099081
vn -0.30132398 -0.887891769 -0.347637713
vn -0.992045999 -0.121606171 -0.0325084031
vn -0 0.49686414 0.86782831
vn -0.68651861 0.681687117 0.252972066
vn -0 -0.351493746 0.936190248
vn -0 0.49686414 0.86782831
vn -0 0.163854495 -0.986484587
vn -0 0.96592629 0.258817464
vn -0 -0.351493746 0.936190248
vn -0 0.96592629 0.258817464
vn -0 0.96592629 0.258817464
vn 0.992045999 -0.121606171 -0.0325084031
vn -0 0.49686414 0.86782831
vn -0 -0.351493746 0.936190248
vn 0.68651855 0.681687176 0.252972066
vn -0 0.49686414 0.86782831
vn -0 0.96592629 0.258817464
vn -0 0.163854495 -0.986484587
vn -0 0.865382195 -0.501112401
vn -0.992045999 -0.121606171 -0.0325084031
vn -0.68651861 0.681687117 0.252972066
vn -0 0.163854495 -0.986484587
vn -0.318500817 -0.70996803 -0.628094494
vn 0.966883302 -0.255218625 7.62379859E-05
vn 0.506874323 -0.861943662 0.011468064
vn -0.00364112784 -0.0128441146 -0.999910951
vn 0.966883302 -0.255218625 7.62379859E-05
vn -0.258813322 -0.965927362 8.79052604E-05
vn -0.00349709927 -0.0123605095 0.999917507
vn -0.258813322 -0.965927362 8.79052604E-05
vn -0.261845946 -0.724648595 0.63743329
vn 0.506874323 -0.861943662 0.011468064
vn -0.00349709927 -0.0123605095 0.999917507
vn -0.965617716 0.259966075 9.69621688E-05
vn -0.318500817 -0.70996803 -0.628094494
vn -0.877437234 -0.479681641 -0.00307607371
vn -0.00364112784 -0.0128441146 -0.999910951
vn -0.965617716 0.259966075 9.69621688E-05
vn -0.258813322 -0.965927362 8.79052604E-05
vn -0.261845946 -0.724648595 0.63743329
vn -0.877437234 -0.479681641 -0.00307607371
vn -0.00349709927 -0.0123605095 0.999917507
vn -0.00349709927 -0.0123605095 0.999917507
vn -0.258813322 -0.965927362 8.79052604E-05
vn -0.99999845 -0.00174617185 -0.000126395127
vn -0 -0.752775729 -0.658277035
vn -0.789202988 -0.614003479 0.0125845447
vn -0 -0.0183675084 -0.999831319
vn -0 -0.616619527 0.787261307
vn -0.99999845 -0.00174617185 -0.000126395127
vn -0.789202988 -0.614003479 0.0125845447
vn -0 -0.017852217 0.999840617
vn -0 -0.017852217 0.999840617
vn -0 -1 -7.30644097E-05
vn -0 -0.0183675084 -0.999831319
vn -0 -1 -7.30644097E-05
vn 0.99999845 -0.00174620911 -0.000126376326
vn -0 -1 -7.30644097E-05
vn -0 -0.616619527 0.787261307
vn 0.789202988 -0.614003479 0.0125845745
vn -0 -0.017852217 0.999840617
vn -0 -0.0183675084 -0.999831319
vn -0 -1 -7.30644097E-05
vn -0.331590712 0.0280821361 -0.943005264
vn 0.259697586 -0.467416346 -0.845032096
vn -0.182083353 -0.575449526 -0.797310174
vn -0.182083353 -0.575449526 -0.797310174
vn -0.318500817 -0.70996803 -0.628094494
vn 0.506874323 -0.861943662 0.011468064
vn 0.992045999 -0.121606171 -0.0325084031
vn -0 0.865382195 -0.501112401
vn 0.68651855 0.681687176 0.252972066
vn -0 0.163854495 -0.986484587
vn 0.318500817 -0.70996803 -0.628094494
vn -0.966883302 -0.255218685 7.62191048E-05
vn 0.00364110107 -0.0128441146 -0.999910951
vn -0.506874442 -0.861943662 0.0114680342
vn -0.966883302 -0.255218685 7.62191048E-05
vn 0.258813322 -0.965927362 8.79052604E-05
vn 0.00349709974 -0.0123605113 0.999917507
vn 0.258813322 -0.965927362 8.79052604E-05
vn 0.261845946 -0.724648595 0.63743329
vn 0.00349709974 -0.0123605113 0.999917507
vn -0.506874442 -0.861943662 0.0114680342
vn 0.261845946 -0.724648595 0.63743329
vn 0.965617716 0.259966075 9.69621688E-05
vn 0.318500817 -0.70996803 -0.628094494
vn 0.00364110107 -0.0128441146 -0.999910951
vn 0.877437234 -0.4796817 -0.00307607371
vn 0.258813322 -0.965927362 8.79052604E-05
vn 0.965617716 0.259966075 9.69621688E-05
vn 0.261845946 -0.724648595 0.63743329
vn 0.877437234 -0.4796817 -0.00307607371
vn 0.00349709974 -0.0123605113 0.999917507
vn 0.258813322 -0.965927362 8.79052604E-05
vn 0.00349709974 -0.0123605113 0.999917507
vn 0.99999845 -0.00174620911 -0.000126376326
vn -0 -0.752775729 -0.658277035
vn -0 -0.0183675084 -0.999831319
vn 0.789202988 -0.614003479 0.0125845745
vn -0 -0.312837958 -0.949806452
vn -0.463527083 -0.265349209 -0.845418453
vn -0 -0.384130895 -0.923278689
vn 0.745573699 -0.493771046 -0.447559953
vn 0.236300886 -0.291008651 -0.92707926
vn -0.0874068961 -0.486853957 -0.869099081
vn 0.259697586 -0.467416346 -0.845032096
vn -0.236835852 0.675017953 -0.698755801
vn -0 0.97064656 -0.240510359
vn -0.345774889 0.924237907 -0.161938414
vn -0 0.720884621 -0.693055093
vn -0.756974757 0.637455344 -0.143665686
vn -0.510334313 0.507134914 -0.694530845
vn -0.607926905 0.238165647 -0.757431209
vn -0.965753555 0.111599706 -0.234233871
vn -0.767243028 -0.470492423 -0.43586123
vn -0.496303976 -0.127713054 -0.858703434
vn -0.988068998 0.016152788 -0.153162614
vn -0.938776791 0.314194709 -0.141349599
vn -0.85572803 0.516376913 0.0329286046
vn -0.993972003 -0.0452570282 -0.099857226
vn -0.0534309335 -0.989565134 -0.1338135
vn -0.694253981 -0.457068056 -0.555967808
vn -0.878192842 0.356230915 0.319181502
vn -0.483865112 -0.874718547 0.027239155
vn -0.940713108 -0.101034239 0.323806852
vn -0.576165438 -0.669922352 0.468228042
vn -0.216730416 -0.515675187 0.828919172
vn -0.312292039 -0.270608634 0.910628736
vn -0.748355985 -0.199417278 0.632610559
vn -0.270322204 -0.0168678928 0.962622166
vn -0.627492189 0.345903486 0.697570384
vn -0.101778433 0.152508825 0.983047426
vn -0.295593441 0.630019784 0.718122303
vn -0 0.689993739 0.723815262
vn -0 0.208871067 0.977943182
vn -0.383671969 -0.109135374 0.91699791
vn -0.447845638 -0.553643525 0.702077687
vn -0.755432904 0.321605593 0.570868552
vn -0.481816411 -0.233114138 0.844695628
vn -0.983635962 -0.0774781778 0.162657246
vn -0.584012687 0.750627756 0.30900985
vn -0.62465483 0.181662336 0.75947684
vn 0.592551351 0.761974633 0.261299461
vn -0.388803482 0.872545302 0.295798063
vn -0.740680337 0.565291703 -0.363094866
vn -0.962375522 0.226284921 0.15042761
vn -0.68651861 0.681687117 0.252972066
vn -0 0.865382195 -0.501112401
vn -0 0.49686414 0.86782831
vn -0.755432904 0.321605593 0.570868552
vn -0.983635962 -0.0774781778 0.162657246
vn -0.859715521 0.452790976 0.236367658
vn -0.983635962 -0.0774781778 0.162657246
vn -0.85572803 0.516376913 0.0329286046
vn -0.388803482 0.872545302 0.295798063
vn -0.755432904 0.321605593 0.570868552
vn -0.859715521 0.452790976 0.236367658
vn -0.85572803 0.516376913 0.0329286046
vn -0.388803482 0.872545302 0.295798063
vn -0.740680337 0.565291703 -0.363094866
vn -0.922106266 -0.379111737 -0.0774231404
vn -0.962375522 0.226284921 0.15042761
vn -0.740680337 0.565291703 -0.363094866
vn -0.0157790966 0.197868511 -0.980101585
vn -0.62465483 0.181662336 0.75947684
vn 0.989260912 0.14615348 -0.00144845131
vn 0.592551351 0.761974633 0.261299461
vn 0.0785036609 -0.417271167 0.905384958
vn -0.269204766 0.91187501 0.309859246
vn -0.0157790966 0.197868511 -0.980101585
vn -0.922106266 -0.379111737 -0.0774231404
vn -0.62465483 0.181662336 0.75947684
vn -0.962375522 0.226284921 0.15042761
vn 0.0785036609 -0.417271167 0.905384958
vn -0.62465483 0.181662336 0.75947684
vn -0.269204766 0.91187501 0.309859246
vn -0.0157790966 0.197868511 -0.980101585
vn -0.985562921 -0.0843427703 0.146806091
vn -0.993972003 -0.0452570282 -0.099857226
vn 0.0626500323 0.980754733 0.184919611
vn 0.270971566 -0.188254073 0.94399941
vn -0.481816411 -0.233114138 0.844695628
vn -0.584012687 0.750627756 0.30900985
vn 0.0626500323 0.980754733 0.184919611
vn -0.481816411 -0.233114138 0.844695628
vn -0.584012687 0.750627756 0.30900985
vn 0.166282475 -0.95857501 -0.23126635
vn -0.481816411 -0.233114138 0.844695628
vn -0.483865112 -0.874718547 0.027239155
vn 0.270971566 -0.188254073 0.94399941
vn -0.481816411 -0.233114138 0.844695628
vn -0.985562921 -0.0843427703 0.146806091
vn -0.993972003 -0.0452570282 -0.099857226
vn 0.166282475 -0.95857501 -0.23126635
vn -0.483865112 -0.874718547 0.027239155
vn -0.109063148 0.181320772 -0.977357686
vn -0.0534309335 -0.989565134 -0.1338135
vn -0.694253981 -0.457068056 -0.555967808
vn -0.109063148 0.181320772 -0.977357686
vn 0.44586578 -0.86624825 -0.225427449
vn 0.44586578 -0.86624825 -0.225427449
vn -0.915648639 -0.374209762 0.146815076
vn 0.31810829 -0.0988570303 0.942886114
vn -0.447845638 -0.553643525 0.702077687
vn -0.447845638 -0.553643525 0.702077687
vn -0.0534309335 -0.989565134 -0.1338135
vn -0.223487422 0.95622021 0.188934639
vn -0.694253981 -0.457068056 -0.555967808
vn -0.878192842 0.356230915 0.319181502
vn -0.109063148 0.181320772 -0.977357686
vn -0.447845638 -0.553643525 0.702077687
vn -0.878192842 0.356230915 0.319181502
vn 0.31810829 -0.0988570303 0.942886114
vn -0.915648639 -0.374209762 0.146815076
vn -0.109063148 0.181320772 -0.977357686
vn -0.740680337 0.565291703 -0.363094866
vn 0.989260912 0.14615348 -0.00144845131
vn -0.0157790966 0.197868511 -0.980101585
vn 0.592551351 0.761974633 0.261299461
vn 0.236835852 0.675017953 -0.698755801
vn -0 0.97064656 -0.240510359
vn -0 0.720884621 -0.693055093
vn 0.345774889 0.924237907 -0.161938369
vn 0.756974757 0.637455344 -0.143665686
vn 0.510334313 0.507134974 -0.694530785
vn 0.607926965 0.238165647 -0.757431149
vn 0.965753555 0.111599684 -0.234233811
vn 0.767242968 -0.470492363 -0.43586129
vn 0.496303946 -0.127713054 -0.858703554
vn 0.988068998 0.0161528364 -0.153162614
vn 0.938776791 0.314194709 -0.141349599
vn 0.85572803 0.516376913 0.0329286158
vn 0.993972003 -0.0452570617 -0.0998572037
vn 0.0534309335 -0.989565134 -0.1338135
vn 0.694254041 -0.457067966 -0.555967867
vn 0.878192842 0.356230974 0.319181532
vn 0.483865172 -0.874718487 0.0272391792
vn 0.940713108 -0.101034179 0.323806852
vn 0.576165438 -0.669922292 0.468228012
vn 0.216730416 -0.515675187 0.828919172
vn 0.312292039 -0.270608604 0.910628736
vn 0.748355985 -0.199417278 0.632610559
vn 0.270322174 -0.0168678947 0.962622166
vn 0.627492189 0.345903486 0.697570384
vn 0.101778418 0.152508825 0.983047426
vn 0.295593441 0.630019784 0.718122303
vn -0 0.689993739 0.723815262
vn -0 0.208871067 0.977943182
vn 0.383671969 -0.109135374 0.91699791
vn 0.447845638 -0.553643525 0.702077687
vn 0.755432904 0.321605593 0.570868552
vn 0.481816322 -0.233114079 0.844695687
vn 0.983635962 -0.0774781853 0.162657261
vn 0.584012687 0.750627756 0.30900988
vn 0.62465477 0.181662321 0.7594769
vn -0.59255141 0.761974752 0.261299521
vn 0.388803482 0.872545302 0.295798033
vn 0.740680337 0.565291703 -0.363094866
vn 0.962375522 0.226284921 0.15042755
vn 0.68651855 0.681687176 0.252972066
vn -0 0.865382195 -0.501112401
vn -0 0.49686414 0.86782831
vn 0.755432904 0.321605593 0.570868552
vn 0.859715521 0.452790976 0.236367658
vn 0.983635962 -0.0774781853 0.162657261
vn 0.983635962 -0.0774781853 0.162657261
vn 0.85572803 0.516376913 0.0329286158
vn 0.388803482 0.872545302 0.295798033
vn 0.859715521 0.452790976 0.236367658
vn 0.755432904 0.321605593 0.570868552
vn 0.388803482 0.872545302 0.295798033
vn 0.85572803 0.516376913 0.0329286158
vn 0.740680337 0.565291703 -0.363094866
vn 0.922106266 -0.379111737 -0.0774231106
vn 0.0157790966 0.197868511 -0.980101585
vn 0.740680337 0.565291703 -0.363094866
vn 0.962375522 0.226284921 0.15042755
vn 0.62465477 0.181662321 0.7594769
vn -0.989260912 0.14615348 -0.00144845131
vn -0.0785036907 -0.417271167 0.905384958
vn -0.59255141 0.761974752 0.261299521
vn 0.269204766 0.91187501 0.309859246
vn 0.0157790966 0.197868511 -0.980101585
vn 0.922106266 -0.379111737 -0.0774231106
vn 0.62465477 0.181662321 0.7594769
vn -0.0785036907 -0.417271167 0.905384958
vn 0.269204766 0.91187501 0.309859246
vn 0.0157790966 0.197868511 -0.980101585
vn 0.962375522 0.226284921 0.15042755
vn 0.62465477 0.181662321 0.7594769
vn 0.985562921 -0.0843427703 0.146806091
vn -0.0626500323 0.980754733 0.184919626
vn 0.993972003 -0.0452570617 -0.0998572037
vn -0.270971566 -0.188254029 0.94399941
vn 0.481816322 -0.233114079 0.844695687
vn -0.0626500323 0.980754733 0.184919626
vn 0.584012687 0.750627756 0.30900988
vn 0.481816322 -0.233114079 0.844695687
vn 0.584012687 0.750627756 0.30900988
vn -0.166282475 -0.95857501 -0.231266335
vn 0.481816322 -0.233114079 0.844695687
vn -0.270971566 -0.188254029 0.94399941
vn 0.985562921 -0.0843427703 0.146806091
vn 0.993972003 -0.0452570617 -0.0998572037
vn 0.483865172 -0.874718487 0.0272391792
vn 0.481816322 -0.233114079 0.844695687
vn 0.483865172 -0.874718487 0.0272391792
vn -0.166282475 -0.95857501 -0.231266335
vn 0.109063148 0.181320772 -0.977357686
vn 0.0534309335 -0.989565134 -0.1338135
vn -0.44586581 -0.86624825 -0.225427508
vn 0.109063148 0.181320772 -0.977357686
vn 0.694254041 -0.457067966 -0.555967867
vn -0.44586581 -0.86624825 -0.225427508
vn 0.915648639 -0.374209762 0.146815076
vn -0.31810835 -0.0988570303 0.942886114
vn 0.447845638 -0.553643525 0.702077687
vn 0.447845638 -0.553643525 0.702077687
vn 0.0534309335 -0.989565134 -0.1338135
vn 0.223487392 0.95622021 0.188934684
vn 0.694254041 -0.457067966 -0.555967867
vn 0.109063148 0.181320772 -0.977357686
vn 0.878192842 0.356230974 0.319181532
vn 0.447845638 -0.553643525 0.702077687
vn -0.31810835 -0.0988570303 0.942886114
vn 0.878192842 0.356230974 0.319181532
vn 0.915648639 -0.374209762 0.146815076
vn 0.109063148 0.181320772 -0.977357686
vn 0.516080439 -0.346057296 -0.783521175
vn 0.250030696 -0.946464241 -0.20418185
vn 0.215636268 -0.451102138 -0.866029918
vn -0.745573699 -0.493771046 -0.447559953
vn -0.259697586 -0.467416346 -0.845032096
vn -0 -0.312837958 -0.949806452
vn 0.740680337 0.565291703 -0.363094866
vn -0.989260912 0.14615348 -0.00144845131
vn -0.59255141 0.761974752 0.261299521
vn 0.0157790966 0.197868511 -0.980101585
vn -0.940713108 -0.101034239 0.323806852
vn -0.923530638 -0.382746845 0.0244144611
vn -0.988068998 0.016152788 -0.153162614
vn -0.699490428 -0.274488717 0.659825087
vn -0.383671969 -0.109135374 0.91699791
vn -0.0945994258 -0.253245682 0.962765574
vn 0.678315818 -0.422743917 0.600978673
vn -0.612097979 -0.723554015 0.319070071
vn 0.885674238 -0.364030421 0.28820619
vn -0.780473411 -0.606356502 -0.152292579
vn -0.798228264 -0.0948851928 -0.594834745
vn -0.694184244 -0.529346228 -0.487750828
vn -0.938776791 0.314194709 -0.141349599
vn -0.690022469 0.40142858 -0.602265775
vn 0.238570854 -0.609606624 -0.75595212
vn 0.565924823 -0.220171079 -0.794514716
vn 0.745573699 -0.493771046 -0.447559953
vn 0.259697586 -0.467416346 -0.845032096
vn -0.576303422 0.199769199 0.792443454
vn -0.576303422 0.199769199 0.792443454
vn -0.938776791 0.314194709 -0.141349599
vn -0.690022469 0.40142858 -0.602265775
vn -0.383671969 -0.109135374 0.91699791
vn 0.565924823 -0.220171079 -0.794514716
vn 0.885674238 -0.364030421 0.28820619
vn 0.678315818 -0.422743917 0.600978673
vn 0.745573699 -0.493771046 -0.447559953
vn 0.940713108 -0.101034179 0.323806852
vn 0.923530638 -0.382746845 0.0244144611
vn 0.699490488 -0.274488688 0.659825027
vn 0.988068998 0.0161528364 -0.153162614
vn 0.383671969 -0.109135374 0.91699791
vn 0.0945994407 -0.253245682 0.962765574
vn -0.678315818 -0.422743917 0.600978673
vn 0.612097919 -0.723554015 0.319070071
vn -0.885674238 -0.36403048 0.28820622
vn 0.780473411 -0.606356502 -0.152292579
vn 0.798228264 -0.0948852375 -0.594834805
vn 0.694184244 -0.529346228 -0.487750769
vn 0.938776791 0.314194709 -0.141349599
vn 0.690022409 0.40142855 -0.602265894
vn -0.238570839 -0.609606624 -0.75595212
vn -0.565924823 -0.220171079 -0.794514775
vn -0.745573699 -0.493771046 -0.447559953
vn -0.259697586 -0.467416346 -0.845032096
vn 0.576303422 0.199769199 0.792443454
vn 0.576303422 0.199769199 0.792443454
vn 0.938776791 0.314194709 -0.141349599
vn 0.383671969 -0.109135374 0.91699791
vn 0.690022409 0.40142855 -0.602265894
vn -0.565924823 -0.220171079 -0.794514775
vn -0.885674238 -0.36403048 0.28820622
vn -0.745573699 -0.493771046 -0.447559953
vn -0.678315818 -0.422743917 0.600978673
g blue_asn_m_pve_2_belt_0
f 3/3/3 2/2/2 1/1/1
f 3/3/3 4/4/4 2/2/2
f 4/4/4 5/5/5 2/2/2
f 3/3/3 6/6/6 4/4/4
f 6/6/6 7/7/7 4/4/4
f 8/8/8 4/4/4 7/7/7
f 7/7/7 9/9/9 8/8/8
f 9/9/9 10/10/10 8/8/8
f 4/4/4 8/8/8 11/11/11
f 11/11/11 12/12/12 4/4/4
f 8/8/8 13/13/13 11/11/11
f 11/11/11 13/13/13 14/14/14
f 13/13/13 15/15/15 14/14/14
f 9/9/9 16/16/16 10/10/10
f 16/16/16 17/17/17 10/10/10
f 10/10/10 17/17/17 18/18/18
f 17/17/17 19/19/19 18/18/18
f 17/17/17 20/20/20 19/19/19
f 20/20/20 17/17/17 21/21/21
f 17/17/17 22/22/22 21/21/21
f 20/20/20 23/23/23 19/19/19
f 24/24/24 13/13/13 8/8/8
f 15/15/15 13/13/13 24/24/24
f 15/15/15 24/24/24 25/25/25
f 24/24/24 26/26/26 25/25/25
f 26/26/26 24/24/24 27/27/27
f 27/27/27 24/24/24 8/8/8
f 27/27/27 8/8/8 28/28/28
f 29/29/29 26/26/26 27/27/27
f 30/30/30 26/26/26 29/29/29
f 29/29/29 27/27/27 31/31/31
f 31/31/31 32/32/32 29/29/29
f 32/32/32 33/33/33 29/29/29
f 33/33/33 34/34/34 29/29/29
f 34/34/34 33/33/33 35/35/35
f 34/34/34 36/36/36 29/29/29
f 37/37/37 31/31/31 27/27/27
f 32/32/32 38/38/38 33/33/33
f 38/38/38 37/37/37 39/39/39
f 40/40/40 38/38/38 39/39/39
f 38/38/38 40/40/40 33/33/33
f 33/33/33 41/41/41 35/35/35
f 41/41/41 42/42/42 35/35/35
f 43/43/43 35/35/35 42/42/42
f 45/45/45 44/44/44 39/39/39
f 44/44/44 45/45/45 27/27/27
f 44/44/44 46/46/46 39/39/39
f 46/46/46 44/44/44 18/18/18
f 47/47/47 46/46/46 18/18/18
f 48/48/48 46/46/46 47/47/47
f 46/46/46 48/48/48 49/49/49
f 50/50/50 46/46/46 49/49/49
f 51/51/51 48/48/48 47/47/47
f 44/44/44 27/27/27 28/28/28
f 53/53/53 52/52/52 48/48/48
f 53/53/53 54/54/54 52/52/52
f 54/54/54 55/55/55 52/52/52
f 10/10/10 28/28/28 8/8/8
f 57/57/57 56/56/56 53/53/53
f 60/60/60 59/59/59 58/58/58
f 60/60/60 61/61/61 59/59/59
f 61/61/61 62/62/62 59/59/59
f 65/65/65 64/64/64 63/63/63
f 67/67/67 66/66/66 63/63/63
f 69/69/69 68/68/68 63/63/63
f 71/71/71 63/63/63 70/70/70
f 73/73/73 72/72/72 70/70/70
f 75/75/75 74/74/74 73/73/73
f 77/77/77 76/76/76 73/73/73
f 79/79/79 78/78/78 73/73/73
f 82/82/82 81/81/81 80/80/80
f 81/81/81 83/83/83 80/80/80
f 86/86/86 85/85/85 84/84/84
f 85/85/85 87/87/87 84/84/84
f 89/89/89 87/87/87 88/88/88
f 91/91/91 88/88/88 90/90/90
f 93/93/93 92/92/92 88/88/88
f 92/92/92 94/94/94 88/88/88
f 97/97/97 96/96/96 95/95/95
f 96/96/96 98/98/98 95/95/95
f 100/100/100 99/99/99 98/98/98
f 102/102/102 99/99/99 101/101/101
f 99/99/99 103/103/103 101/101/101
f 105/105/105 104/104/104 99/99/99
f 108/108/108 107/107/107 106/106/106
f 107/107/107 109/109/109 106/106/106
f 112/112/112 111/111/111 110/110/110
f 111/111/111 113/113/113 110/110/110
f 115/115/115 114/114/114 111/111/111
f 117/117/117 111/111/111 116/116/116
f 114/114/114 119/119/119 118/118/118
f 121/121/121 120/120/120 118/118/118
f 120/120/120 122/122/122 118/118/118
f 118/118/118 124/124/124 123/123/123
f 1/1/1 126/126/126 125/125/125
f 125/125/125 127/127/127 1/1/1
f 128/128/128 3/3/3 1/1/1
f 128/128/128 129/129/129 3/3/3
f 129/129/129 128/128/128 16/16/16
f 130/130/130 129/129/129 16/16/16
f 129/129/129 6/6/6 3/3/3
f 133/133/133 132/132/132 131/131/131
f 132/132/132 134/134/134 131/131/131
f 137/137/137 136/136/136 135/135/135
f 136/136/136 138/138/138 135/135/135
f 137/137/137 140/140/140 139/139/139
f 139/139/139 142/142/142 141/141/141
f 144/144/144 143/143/143 139/139/139
f 146/146/146 145/145/145 139/139/139
f 149/149/149 148/148/148 147/147/147
f 148/148/148 150/150/150 147/147/147
f 152/152/152 151/151/151 149/149/149
f 154/154/154 153/153/153 152/152/152
f 153/153/153 155/155/155 152/152/152
f 157/157/157 156/156/156 152/152/152
f 160/160/160 159/159/159 158/158/158
f 159/159/159 161/161/161 158/158/158
f 164/164/164 163/163/163 162/162/162
f 162/162/162 163/163/163 165/165/165
f 163/163/163 166/166/166 165/165/165
f 167/167/167 166/166/166 163/163/163
f 166/166/166 168/168/168 165/165/165
f 171/171/171 170/170/170 169/169/169
f 170/170/170 172/172/172 169/169/169
f 173/173/173 171/171/171 169/169/169
f 174/174/174 173/173/173 169/169/169
f 173/173/173 174/174/174 175/175/175
f 176/176/176 173/173/173 175/175/175
f 177/177/177 176/176/176 175/175/175
f 178/178/178 177/177/177 175/175/175
f 179/179/179 177/177/177 178/178/178
f 180/180/180 179/179/179 178/178/178
f 181/181/181 173/173/173 176/176/176
f 182/182/182 181/181/181 176/176/176
f 177/177/177 179/179/179 183/183/183
f 184/184/184 177/177/177 183/183/183
f 184/184/184 185/185/185 177/177/177
f 182/182/182 176/176/176 185/185/185
f 176/176/176 177/177/177 185/185/185
f 186/186/186 182/182/182 185/185/185
f 179/179/179 187/187/187 183/183/183
f 187/187/187 188/188/188 183/183/183
f 189/189/189 188/188/188 187/187/187
f 188/188/188 189/189/189 190/190/190
f 191/191/191 188/188/188 190/190/190
f 191/191/191 186/186/186 188/188/188
f 191/191/191 190/190/190 192/192/192
f 193/193/193 191/191/191 192/192/192
f 193/193/193 192/192/192 194/194/194
f 195/195/195 193/193/193 194/194/194
f 196/196/196 195/195/195 194/194/194
f 197/197/197 196/196/196 194/194/194
f 198/198/198 189/189/189 187/187/187
f 186/186/186 199/199/199 188/188/188
f 185/185/185 199/199/199 186/186/186
f 193/193/193 200/200/200 191/191/191
f 200/200/200 201/201/201 191/191/191
f 201/201/201 186/186/186 191/191/191
f 183/183/183 188/188/188 199/199/199
f 200/200/200 202/202/202 201/201/201
f 202/202/202 203/203/203 201/201/201
f 203/203/203 202/202/202 182/182/182
f 202/202/202 181/181/181 182/182/182
f 195/195/195 204/204/204 193/193/193
f 204/204/204 200/200/200 193/193/193
f 205/205/205 204/204/204 195/195/195
f 206/206/206 200/200/200 204/204/204
f 181/181/181 206/206/206 207/207/207
f 205/205/205 171/171/171 207/207/207
f 206/206/206 208/208/208 207/207/207
f 208/208/208 206/206/206 204/204/204
f 171/171/171 173/173/173 207/207/207
f 173/173/173 181/181/181 207/207/207
f 205/205/205 209/209/209 171/171/171
f 209/209/209 170/170/170 171/171/171
f 210/210/210 170/170/170 209/209/209
f 209/209/209 205/205/205 195/195/195
f 196/196/196 209/209/209 195/195/195
f 209/209/209 196/196/196 211/211/211
f 214/214/214 213/213/213 212/212/212
f 214/214/214 216/216/216 215/215/215
f 219/219/219 218/218/218 217/217/217
f 221/221/221 220/220/220 219/219/219
f 224/224/224 223/223/223 222/222/222
f 223/223/223 226/226/226 225/225/225
f 229/229/229 228/228/228 227/227/227
f 228/228/228 230/230/230 227/227/227
f 231/231/231 230/230/230 228/228/228
f 231/231/231 228/228/228 232/232/232
f 235/235/235 234/234/234 233/233/233
f 237/237/237 236/236/236 233/233/233
f 238/238/238 233/233/233 236/236/236
f 238/238/238 239/239/239 233/233/233
f 242/242/242 241/241/241 240/240/240
f 240/240/240 243/243/243 242/242/242
f 242/242/242 243/243/243 244/244/244
f 246/246/246 245/245/245 241/241/241
f 248/248/248 242/242/242 247/247/247
f 251/251/251 250/250/250 249/249/249
f 253/253/253 252/252/252 249/249/249
f 254/254/254 249/249/249 252/252/252
f 254/254/254 255/255/255 249/249/249
f 257/257/257 256/256/256 255/255/255
f 260/260/260 259/259/259 258/258/258
f 259/259/259 262/262/262 261/261/261
f 264/264/264 258/258/258 263/263/263
f 264/264/264 263/263/263 265/265/265
f 265/265/265 263/263/263 266/266/266
f 263/263/263 268/268/268 267/267/267
f 271/271/271 270/270/270 269/269/269
f 270/270/270 272/272/272 269/269/269
f 274/274/274 269/269/269 273/273/273
f 269/269/269 275/275/275 273/273/273
f 276/276/276 275/275/275 269/269/269
f 276/276/276 269/269/269 277/277/277
f 280/280/280 279/279/279 278/278/278
f 279/279/279 281/281/281 278/278/278
f 284/284/284 283/283/283 282/282/282
f 283/283/283 285/285/285 282/282/282
f 285/285/285 286/286/286 282/282/282
f 286/286/286 287/287/287 282/282/282
f 287/287/287 286/286/286 288/288/288
f 286/286/286 289/289/289 288/288/288
f 289/289/289 290/290/290 288/288/288
f 290/290/290 291/291/291 288/288/288
f 290/290/290 292/292/292 291/291/291
f 292/292/292 293/293/293 291/291/291
f 286/286/286 294/294/294 289/289/289
f 294/294/294 295/295/295 289/289/289
f 292/292/292 290/290/290 296/296/296
f 290/290/290 297/297/297 296/296/296
f 298/298/298 297/297/297 290/290/290
f 290/290/290 289/289/289 298/298/298
f 289/289/289 295/295/295 298/298/298
f 295/295/295 299/299/299 298/298/298
f 300/300/300 292/292/292 296/296/296
f 301/301/301 300/300/300 296/296/296
f 301/301/301 302/302/302 300/300/300
f 302/302/302 301/301/301 303/303/303
f 301/301/301 304/304/304 303/303/303
f 299/299/299 304/304/304 301/301/301
f 303/303/303 304/304/304 305/305/305
f 304/304/304 306/306/306 305/305/305
f 305/305/305 306/306/306 307/307/307
f 306/306/306 308/308/308 307/307/307
f 308/308/308 309/309/309 307/307/307
f 309/309/309 310/310/310 307/307/307
f 302/302/302 311/311/311 300/300/300
f 312/312/312 299/299/299 301/301/301
f 312/312/312 298/298/298 299/299/299
f 313/313/313 306/306/306 304/304/304
f 314/314/314 313/313/313 304/304/304
f 299/299/299 314/314/314 304/304/304
f 301/301/301 296/296/296 312/312/312
f 315/315/315 313/313/313 314/314/314
f 316/316/316 315/315/315 314/314/314
f 315/315/315 316/316/316 295/295/295
f 294/294/294 315/315/315 295/295/295
f 313/313/313 317/317/317 306/306/306
f 317/317/317 308/308/308 306/306/306
f 317/317/317 318/318/318 308/308/308
f 313/313/313 319/319/319 317/317/317
f 319/319/319 294/294/294 320/320/320
f 285/285/285 318/318/318 320/320/320
f 321/321/321 319/319/319 320/320/320
f 319/319/319 321/321/321 317/317/317
f 294/294/294 286/286/286 320/320/320
f 286/286/286 285/285/285 320/320/320
f 322/322/322 318/318/318 285/285/285
f 283/283/283 322/322/322 285/285/285
f 283/283/283 323/323/323 322/322/322
f 318/318/318 322/322/322 308/308/308
f 322/322/322 309/309/309 308/308/308
f 309/309/309 322/322/322 324/324/324
f 327/327/327 326/326/326 325/325/325
f 329/329/329 326/326/326 328/328/328
f 332/332/332 331/331/331 330/330/330
f 334/334/334 333/333/333 331/331/331
f 337/337/337 336/336/336 335/335/335
f 336/336/336 339/339/339 338/338/338
f 342/342/342 341/341/341 340/340/340
f 341/341/341 343/343/343 340/340/340
f 342/342/342 344/344/344 341/341/341
f 341/341/341 344/344/344 345/345/345
f 348/348/348 347/347/347 346/346/346
f 346/346/346 349/349/349 348/348/348
f 350/350/350 349/349/349 346/346/346
f 352/352/352 351/351/351 346/346/346
f 355/355/355 354/354/354 353/353/353
f 356/356/356 353/353/353 354/354/354
f 356/356/356 354/354/354 357/357/357
f 359/359/359 358/358/358 355/355/355
f 354/354/354 361/361/361 360/360/360
f 364/364/364 363/363/363 362/362/362
f 362/362/362 365/365/365 364/364/364
f 366/366/366 365/365/365 362/362/362
f 368/368/368 367/367/367 362/362/362
f 370/370/370 369/369/369 366/366/366
f 373/373/373 372/372/372 371/371/371
f 372/372/372 375/375/375 374/374/374
f 374/374/374 377/377/377 376/376/376
f 376/376/376 377/377/377 378/378/378
f 376/376/376 378/378/378 379/379/379
f 381/381/381 376/376/376 380/380/380
f 384/384/384 383/383/383 382/382/382
f 383/383/383 385/385/385 382/382/382
f 387/387/387 382/382/382 386/386/386
f 382/382/382 388/388/388 386/386/386
f 387/387/387 389/389/389 382/382/382
f 382/382/382 389/389/389 390/390/390
f 393/393/393 392/392/392 391/391/391
f 393/393/393 391/391/391 394/394/394
f 395/395/395 393/393/393 394/394/394
f 391/391/391 396/396/396 394/394/394
f 399/399/399 398/398/398 397/397/397
f 398/398/398 400/400/400 397/397/397
f 403/403/403 402/402/402 401/401/401
f 402/402/402 404/404/404 401/401/401
f 401/401/401 404/404/404 405/405/405
f 405/405/405 404/404/404 406/406/406
f 407/407/407 405/405/405 406/406/406
f 404/404/404 408/408/408 406/406/406
f 404/404/404 402/402/402 408/408/408
f 407/407/407 406/406/406 409/409/409
f 402/402/402 410/410/410 408/408/408
f 402/402/402 411/411/411 410/410/410
f 411/411/411 402/402/402 403/403/403
f 411/411/411 412/412/412 410/410/410
f 403/403/403 413/413/413 411/411/411
f 411/411/411 413/413/413 414/414/414
f 411/411/411 414/414/414 415/415/415
f 415/415/415 412/412/412 411/411/411
f 414/414/414 416/416/416 415/415/415
f 415/415/415 416/416/416 417/417/417
f 418/418/418 415/415/415 417/417/417
f 412/412/412 415/415/415 418/418/418
f 419/419/419 405/405/405 407/407/407
f 422/422/422 421/421/421 420/420/420
f 421/421/421 423/423/423 420/420/420
f 426/426/426 425/425/425 424/424/424
f 425/425/425 427/427/427 424/424/424
f 430/430/430 429/429/429 428/428/428
f 429/429/429 431/431/431 428/428/428
f 430/430/430 428/428/428 432/432/432
f 430/430/430 432/432/432 433/433/433
f 432/432/432 434/434/434 433/433/433
f 435/435/435 430/430/430 433/433/433
f 429/429/429 430/430/430 435/435/435
f 433/433/433 434/434/434 436/436/436
f 437/437/437 429/429/429 435/435/435
f 438/438/438 429/429/429 437/437/437
f 429/429/429 438/438/438 431/431/431
f 439/439/439 438/438/438 437/437/437
f 440/440/440 431/431/431 438/438/438
f 440/440/440 438/438/438 441/441/441
f 441/441/441 438/438/438 442/442/442
f 439/439/439 442/442/442 438/438/438
f 443/443/443 441/441/441 442/442/442
f 443/443/443 442/442/442 444/444/444
f 442/442/442 445/445/445 444/444/444
f 442/442/442 439/439/439 445/445/445
f 432/432/432 446/446/446 434/434/434
f 449/449/449 448/448/448 447/447/447
f 448/448/448 450/450/450 447/447/447
f 453/453/453 452/452/452 451/451/451
f 452/452/452 454/454/454 451/451/451
