g blue_war_f_pve_1_belt
v 0.0694421455 -0.100508526 1.23057795
v 0.0569853336 -0.134311005 1.22863746
v 0.033601474 -0.113788776 1.22822011
v 0.0890329257 -0.114092566 1.23006904
v 0.119302727 -0.0834284648 1.24688423
v 0.0990503505 -0.0655113235 1.24477601
v 0.128119349 -0.0935239866 1.25420916
v 0.100327604 -0.126793534 1.23932123
v 0.119302727 -0.0834284648 1.24688423
v 0.0569853336 -0.134311005 1.22863746
v 0.128119349 -0.0935239866 1.25420916
v 0.116591394 -0.130544648 1.20256662
v 0.100327604 -0.126793534 1.23932123
v 0.142968222 -0.0928530544 1.21986592
v 0.132686481 -0.135245964 1.15390694
v 0.0721060708 -0.141802341 1.1932205
v 0.0778781772 -0.142426848 1.1486944
v 0.0651857406 -0.13200441 1.18662918
v 0.0712965727 -0.132628351 1.14536822
v 0.0781755745 -0.13892135 1.14845824
v 0.0712965727 -0.132628351 1.14536822
v 0.162102446 -0.0962199196 1.1785928
v 0.145784587 -0.0866397247 1.16741788
v 0.0637260005 -0.142946988 1.23111749
v 0.0492624603 -0.130945116 1.18454194
v 0.0569853336 -0.134311005 1.22863746
v 0.0525695682 -0.131491721 1.14226043
v 0.0569853336 -0.134311005 1.22863746
v 0.0452965312 -0.136588261 1.22536242
v 0.0569853336 -0.134311005 1.22863746
v 0.100327604 -0.126793534 1.23932123
v 0.129008159 -0.131406486 1.15232527
v 0.156007871 -0.0975923613 1.17593801
v 0.145784587 -0.0866397247 1.16741788
v 0.153563246 -0.0894027725 1.14258373
v 0.129008159 -0.131406486 1.15232527
v 0.164571509 -0.0976301581 1.14704537
v 0.153563246 -0.0894027725 1.14258373
v 0.15397644 -0.13915652 1.07078791
v 0.14418079 -0.127753764 1.0674876
v 0.0810862631 -0.141717613 1.12012839
v 0.0781755745 -0.13892135 1.14845824
v 0.14418079 -0.127753764 1.0674876
v 0.0766548291 -0.130689576 1.117378
v 0.0781755745 -0.13892135 1.14845824
v 0.132686481 -0.135245964 1.15390694
v 0.162102446 -0.0962199196 1.1785928
v 0.129008159 -0.131406486 1.15232527
v 0.133613005 -0.0841716528 1.21254897
v 0.119302727 -0.0834284648 1.24688423
v 0.111803293 -0.11877954 1.1501174
v 0.153563246 -0.0894027725 1.14258373
v 0.145784587 -0.0866397247 1.16741788
v 0.14418079 -0.127753764 1.0674876
v 0.0766548291 -0.130689576 1.117378
v 0.0712965727 -0.132628351 1.14536822
v 0.0803523734 -0.0978140905 1.14967453
v 0.113845177 -0.0764052421 1.16483545
v 0.0525695682 -0.131491721 1.14226043
v 0.0356983207 -0.0998603255 1.13928533
v -0.0901374891 -0.112531975 1.23301864
v -0.0996641442 -0.0656578466 1.2452327
v -0.0651888475 -0.106353074 1.23685753
v -0.120866202 -0.0826484933 1.24881792
v -0.0556945875 -0.136931449 1.22965074
v -0.0341992043 -0.116885796 1.22875226
v -0.13129878 -0.0907293931 1.25333917
v -0.106726989 -0.121755198 1.24350405
v -0.0556945875 -0.136931449 1.22965074
v -0.106726989 -0.121755198 1.24350405
v -0.0632561967 -0.147293508 1.23253667
v -0.0714217424 -0.144805729 1.19345045
v -0.13935031 -0.135196716 1.15535522
v -0.119376563 -0.128716975 1.20406818
v -0.0809337199 -0.147192955 1.14799142
v -0.147822797 -0.0922190771 1.21306813
v -0.169192582 -0.0915684402 1.17266643
v -0.15680629 -0.0853886902 1.16753578
v -0.0632561967 -0.147293508 1.23253667
v -0.106726989 -0.121755198 1.24350405
v -0.13129878 -0.0907293931 1.25333917
v -0.120866202 -0.0826484933 1.24881792
v -0.135020837 -0.0839231014 1.21187019
v -0.15680629 -0.0853886902 1.16753578
v -0.0641300082 -0.133772478 1.18643081
v -0.0556945875 -0.136931449 1.22965074
v -0.0632561967 -0.147293508 1.23253667
v -0.0416759998 -0.140410289 1.22720766
v -0.0500317179 -0.134510994 1.18372965
v -0.0731930956 -0.135822579 1.14446151
v -0.0551847629 -0.133892789 1.14059806
v -0.0794998854 -0.13623248 1.11567247
v -0.0814767033 -0.143613756 1.14778864
v -0.135126695 -0.132311538 1.15364718
v -0.0854775012 -0.14736253 1.11790717
v -0.0794998854 -0.13623248 1.11567247
v -0.13935031 -0.135196716 1.15535522
v -0.162989229 -0.0932254195 1.17100227
v -0.169192582 -0.0915684402 1.17266643
v -0.15680629 -0.0853886902 1.16753578
v -0.160633296 -0.0853033364 1.14066362
v -0.172160044 -0.0931662619 1.14508164
v -0.162989229 -0.0932254195 1.17100227
v -0.155746654 -0.139612228 1.0709908
v -0.145833254 -0.128579095 1.06800961
v -0.0794998854 -0.13623248 1.11567247
v -0.160633296 -0.0853033364 1.14066362
v -0.145833254 -0.128579095 1.06800961
v -0.135126695 -0.132311538 1.15364718
v -0.160633296 -0.0853033364 1.14066362
v -0.15680629 -0.0853886902 1.16753578
v -0.0794998854 -0.13623248 1.11567247
v -0.115949906 -0.121323317 1.15088737
v -0.145833254 -0.128579095 1.06800961
v -0.0731930956 -0.135822579 1.14446151
v -0.160633296 -0.0853033364 1.14066362
v -0.15680629 -0.0853886902 1.16753578
v -0.0748780444 -0.0976288766 1.15073681
v -0.15680629 -0.0853886902 1.16753578
v -0.120974854 -0.0756571591 1.16167581
v -0.0551847629 -0.133892789 1.14059806
v -0.0348630808 -0.103880078 1.13880801
v 0.0047559333 -0.120316759 1.22135401
v -0.0416759998 -0.140410289 1.22720766
v -0.0341992043 -0.116885796 1.22875226
v 0.0044275946 -0.142032951 1.21953583
v 0.033601474 -0.113788776 1.22822011
v 0.0452965312 -0.136588261 1.22536242
v -0.0414261669 -0.151836604 1.22948217
v 0.00218416587 -0.152923062 1.2214309
v 0.0452965312 -0.136588261 1.22536242
v 0.0440708473 -0.14665772 1.22646546
v 0.0476997308 -0.14210166 1.19110978
v -0.000309000112 -0.150414184 1.18542039
v 0.0440708473 -0.14665772 1.22646546
v 0.0492624603 -0.130945116 1.18454194
v 0.000992632587 -0.150116786 1.13486445
v -0.0479815416 -0.147142678 1.19094658
v -0.0550562181 -0.146473542 1.14439023
v -0.0499025658 -0.143619731 1.14350367
v 0.00109754654 -0.145019189 1.13363457
v -0.0416759998 -0.140410289 1.22720766
v -0.0500317179 -0.134510994 1.18372965
v -0.0551847629 -0.133892789 1.14059806
v -0.0520209447 -0.132799044 1.11266077
v 0.0484879501 -0.139614478 1.14372158
v 0.052016899 -0.141948044 1.11580658
v 0.0540490896 -0.142006323 1.14511263
v 0.0525695682 -0.131491721 1.14226043
v 0.0503940918 -0.129067197 1.11347461
v -0.000142886594 -0.155011609 1.04491472
v -0.0548487306 -0.146331221 1.11486828
v -0.000139899319 -0.142125458 1.04313099
v -0.0520209447 -0.132799044 1.11266077
v -0.000139899319 -0.142125458 1.04313099
v 0.0484879501 -0.139614478 1.14372158
v 0.052016899 -0.141948044 1.11580658
v -0.0499025658 -0.143619731 1.14350367
v -0.0548487306 -0.146331221 1.11486828
v -0.0551847629 -0.133892789 1.14059806
v -0.00031465615 -0.104677483 1.12712979
v -0.0348630808 -0.103880078 1.13880801
v 0.000581914675 -0.130989164 1.12181342
v -0.0814767033 -0.143613756 1.14778864
v -0.13935031 -0.135196716 1.15535522
v -0.0731930956 -0.135822579 1.14446151
v 0.000581914675 -0.130989164 1.12181342
v 0.0356983207 -0.0998603255 1.13928533
v -0.00031465615 -0.104677483 1.12712979
v 0.0356983207 -0.0998603255 1.13928533
v 0.0525695682 -0.131491721 1.14226043
v 0.033601474 -0.113788776 1.22822011
v 0.0569853336 -0.134311005 1.22863746
v 0.0452965312 -0.136588261 1.22536242
v -0.0556945875 -0.136931449 1.22965074
v -0.0341992043 -0.116885796 1.22875226
v -0.0416759998 -0.140410289 1.22720766
v 0.0540490896 -0.142006323 1.14511263
v -0.0414261669 -0.151836604 1.22948217
v -0.0551847629 -0.133892789 1.14059806
v 0.0540490896 -0.142006323 1.14511263
v 0.0492624603 -0.130945116 1.18454194
v 0.0525695682 -0.131491721 1.14226043
v 0.000581914675 -0.130989164 1.12181342
v 0.0503940918 -0.129067197 1.11347461
v 0.0525695682 -0.131491721 1.14226043
v -0.000139899319 -0.142125458 1.04313099
v -0.0520209447 -0.132799044 1.11266077
v -0.0551847629 -0.133892789 1.14059806
v -0.118538357 0.0191841703 1.26477551
v -0.144336894 0.0136601543 1.22826028
v -0.133272588 0.0294027627 1.23156214
v -0.124922492 0.00410660589 1.2619127
v -0.156175584 0.040135894 1.19105101
v -0.165672451 0.0247496981 1.19126809
v -0.114003181 -0.0301620737 1.24971426
v -0.12646243 -0.0771531239 1.25085974
v -0.134263635 -0.0324643515 1.25584185
v -0.0996641442 -0.0656578466 1.2452327
v -0.100483827 0.00428113481 1.25911438
v -0.124922492 0.00410660589 1.2619127
v -0.135841742 -0.0773073584 1.25714731
v -0.14478226 -0.0373005085 1.2605294
v -0.134890452 0.00427151192 1.26952875
v -0.16755186 -0.0316219442 1.23011804
v -0.152608246 0.011247999 1.23970652
v -0.153597951 -0.075718984 1.22516131
v -0.189807579 -0.0249940436 1.19171524
v -0.171169311 -0.0763573945 1.1811825
v -0.169812009 -0.0713018179 1.18096411
v -0.185395241 -0.0240862928 1.18787193
v -0.144982189 -0.0759013519 1.2118839
v -0.144336894 0.0136601543 1.22826028
v -0.16181846 -0.0751060098 1.17137766
v -0.175077453 -0.0693946704 1.14511657
v -0.171892866 0.0197235271 1.19708681
v -0.187576711 0.028299937 1.1714493
v -0.173070043 0.0234561041 1.20023882
v -0.165672451 0.0247496981 1.19126809
v -0.16181846 -0.0751060098 1.17137766
v -0.165672451 0.0247496981 1.19126809
v -0.178151324 0.027769804 1.16217339
v -0.184850574 -0.0730497465 1.15347123
v -0.225461885 -0.0121757193 1.11022389
v -0.215807676 -0.0104707517 1.10227013
v -0.175077453 -0.0693946704 1.14511657
v -0.178151324 0.027769804 1.16217339
v -0.215807676 -0.0104707517 1.10227013
v -0.171892866 0.0197235271 1.19708681
v -0.187576711 0.028299937 1.1714493
v -0.169812009 -0.0713018179 1.18096411
v -0.184850574 -0.0730497465 1.15347123
v -0.16181846 -0.0751060098 1.17137766
v -0.141221642 -0.019077912 1.16547668
v -0.166172862 -0.0196894519 1.16633248
v -0.16181846 -0.0751060098 1.17137766
v -0.138415232 -0.0550464094 1.16765535
v -0.15680629 -0.0853886902 1.16753578
v -0.144982189 -0.0759013519 1.2118839
v -0.135020837 -0.0839231014 1.21187019
v -0.16181846 -0.0751060098 1.17137766
v -0.12646243 -0.0771531239 1.25085974
v -0.120866202 -0.0826484933 1.24881792
v -0.12646243 -0.0771531239 1.25085974
v -0.0996641442 -0.0656578466 1.2452327
v -0.152608246 0.011247999 1.23970652
v -0.124922492 0.00410660589 1.2619127
v -0.134890452 0.00427151192 1.26952875
v -0.166172862 -0.0196894519 1.16633248
v -0.137063891 0.0119448667 1.17969894
v -0.165672451 0.0247496981 1.19126809
v -0.141221642 -0.019077912 1.16547668
v -0.119488105 0.0394737795 1.18297815
v -0.165672451 0.0247496981 1.19126809
v -0.137063891 0.0119448667 1.17969894
v -0.156175584 0.040135894 1.19105101
v -0.15680629 -0.0853886902 1.16753578
v -0.120974854 -0.0756571591 1.16167581
v -0.16181846 -0.0751060098 1.17137766
v -0.138415232 -0.0550464094 1.16765535
v -0.16181846 -0.0751060098 1.17137766
v -0.100483827 0.00428113481 1.25911438
v -0.124922492 0.00410660589 1.2619127
v -0.118538357 0.0191841703 1.26477551
v -0.135841742 -0.0773073584 1.25714731
v -0.166172862 -0.0196894519 1.16633248
v -0.178151324 0.027769804 1.16217339
v -0.215807676 -0.0104707517 1.10227013
v -0.165672451 0.0247496981 1.19126809
v -0.175077453 -0.0693946704 1.14511657
v -0.16181846 -0.0751060098 1.17137766
v 0.073018536 0.101908237 1.19238484
v 0.0490740873 0.0929894522 1.2270062
v 0.0531823896 0.110393904 1.19085765
v 0.0678916276 0.0852401778 1.22851121
v 0.056528043 0.122246861 1.19986296
v 0.0490828156 0.101985961 1.23817408
v 0.0434369557 0.0762818381 1.26345265
v 0.0609548613 0.0702197328 1.26348579
v 0.0759342313 0.0943811089 1.23551512
v 0.0645303503 0.0746467561 1.27017128
v 0.11951182 0.0711989179 1.23386669
v 0.135420904 0.0892166123 1.19395506
v 0.0843796358 0.117395788 1.19889343
v 0.145030677 0.0275503583 1.23742211
v 0.166109219 0.0377188064 1.20345676
v 0.150882781 0.0332669504 1.19230151
v 0.130844459 0.0230292603 1.23154998
v 0.106133051 0.0526855886 1.27163589
v 0.12614581 0.018512655 1.27272451
v 0.000456422073 0.130258426 1.18992186
v 0.000365845219 0.108195372 1.23318791
v 0.0429337062 0.0814522654 1.26946807
v -0.00109408156 0.0865124911 1.26703858
v -0.0408834442 0.0837078169 1.27065909
v -0.0476201177 0.103882775 1.23525691
v -0.0552760214 0.124413423 1.19515705
v 0.11568059 0.0149476146 1.2646904
v 0.11568059 0.0149476146 1.2646904
v -0.0443432257 0.0942989513 1.22792268
v -0.0391807854 0.0756820217 1.26374066
v -0.0408834442 0.0837078169 1.27065909
v -0.0496219397 0.111904889 1.19020104
v 0.00129091437 0.0806787983 1.26072001
v -0.037621174 0.0645750761 1.26192439
v 0.00259888615 0.0613206625 1.25818408
v 0.0391680896 0.0628265813 1.25940311
v 0.0434369557 0.0762818381 1.26345265
v -0.00109408156 0.0865124911 1.26703858
v 0.0434369557 0.0762818381 1.26345265
v 0.0429337062 0.0814522654 1.26946807
v -0.0408834442 0.0837078169 1.27065909
v -0.0391807854 0.0756820217 1.26374066
v -0.0547204278 0.120567903 1.16535509
v -0.0509721823 0.122527242 1.19496989
v -0.0575544499 0.134009153 1.1719712
v -0.00123584631 0.156783894 1.10563409
v -0.00167115009 0.13978675 1.10045731
v 8.44900569E-05 0.127816021 1.1886555
v 0.0574747175 0.132351398 1.1744082
v 0.0515624657 0.120222211 1.19915986
v -0.00167115009 0.13978675 1.10045731
v 0.0547824167 0.118906133 1.16779685
v 0.0531823896 0.110393904 1.19085765
v -0.0509721823 0.122527242 1.19496989
v -0.0509721823 0.122527242 1.19496989
v -0.0552760214 0.124413423 1.19515705
v -0.0496219397 0.111904889 1.19020104
v 0.0515624657 0.120222211 1.19915986
v 0.000456422073 0.130258426 1.18992186
v 0.0515624657 0.120222211 1.19915986
v 0.056528043 0.122246861 1.19986296
v 0.0645303503 0.0746467561 1.27017128
v 0.0942632258 0.0516043454 1.2633872
v 0.0609548613 0.0702197328 1.26348579
v 0.106133051 0.0526855886 1.27163589
v 0.11568059 0.0149476146 1.2646904
v 0.12614581 0.018512655 1.27272451
v 0.0823367462 0.0427813716 1.25945711
v 0.0609548613 0.0702197328 1.26348579
v 0.0391680896 0.0628265813 1.25940311
v 0.101762645 0.00440472318 1.25742173
v 0.11568059 0.0149476146 1.2646904
v 0.0843796358 0.117395788 1.19889343
v 0.131054536 0.0871442705 1.19198906
v 0.135420904 0.0892166123 1.19395506
v 0.131054536 0.0871442705 1.19198906
v 0.0841216445 0.112551779 1.19691253
v 0.073018536 0.101908237 1.19238484
v 0.167987198 0.0470888764 1.17855799
v 0.159989268 0.0415140726 1.20165098
v 0.159451917 0.116590776 1.11973298
v 0.149473831 0.107136801 1.11487162
v 0.154472589 0.0423889048 1.17196155
v 0.159989268 0.0415140726 1.20165098
v 0.150882781 0.0332669504 1.19230151
v 0.0899725929 0.124343157 1.17554069
v 0.0841216445 0.112551779 1.19691253
v 0.0792810917 0.114782996 1.17062378
v 0.0792810917 0.114782996 1.17062378
v 0.149473831 0.107136801 1.11487162
v 0.113918863 0.0779670328 1.18719923
v 0.154472589 0.0423889048 1.17196155
v 0.149473831 0.107136801 1.11487162
v 0.150882781 0.0332669504 1.19230151
v 0.0792810917 0.114782996 1.17062378
v 0.073018536 0.101908237 1.19238484
v 0.0868956894 0.0680753142 1.18972039
v 0.120674558 0.0340018012 1.18531168
v 0.150882781 0.0332669504 1.19230151
v 0.0470996387 0.0829245076 1.18658972
v 0.0531823896 0.110393904 1.19085765
v 0.000974907714 0.0827379301 1.1769551
v -0.000227798417 0.115957037 1.1755842
v 0.0547824167 0.118906133 1.16779685
v -0.00167115009 0.13978675 1.10045731
v -0.0720781907 0.105212703 1.19213533
v -0.0443432257 0.0942989513 1.22792268
v -0.0630382746 0.0868911222 1.22900522
v -0.0496219397 0.111904889 1.19020104
v -0.0812358111 0.120390519 1.19915462
v -0.0708727762 0.0982154384 1.23798716
v -0.130525038 0.0940413177 1.18812346
v -0.114700362 0.0717394724 1.23290682
v -0.146183744 0.0350135528 1.23489213
v -0.168977186 0.0460890271 1.19773901
v -0.0391807854 0.0756820217 1.26374066
v -0.055830434 0.0715407804 1.26496947
v -0.126629919 0.0228416845 1.27175355
v -0.118538357 0.0191841703 1.26477551
v -0.133272588 0.0294027627 1.23156214
v -0.0983951613 0.0573668927 1.27209389
v -0.0610022545 0.0801698864 1.27290368
v -0.156175584 0.040135894 1.19105101
v -0.0547204278 0.120567903 1.16535509
v -0.000227798417 0.115957037 1.1755842
v -0.00167115009 0.13978675 1.10045731
v -0.0496219397 0.111904889 1.19020104
v 0.000974907714 0.0827379301 1.1769551
v -0.0454231016 0.0834606364 1.18705523
v -0.0720781907 0.105212703 1.19213533
v -0.0797018111 0.0687992349 1.18509185
v -0.108551346 0.0831069201 1.18250346
v -0.078552179 0.118223473 1.166785
v -0.143861085 0.105966568 1.10251665
v -0.163661033 0.0464927033 1.16510057
v -0.156175584 0.040135894 1.19105101
v -0.119488105 0.0394737795 1.18297815
v -0.0867180824 0.0534108058 1.26551151
v -0.0610022545 0.0801698864 1.27290368
v -0.055830434 0.0715407804 1.26496947
v -0.0983951613 0.0573668927 1.27209389
v -0.118538357 0.0191841703 1.26477551
v -0.0717983842 0.0457086079 1.26119304
v -0.055830434 0.0715407804 1.26496947
v -0.037621174 0.0645750761 1.26192439
v -0.100483827 0.00428113481 1.25911438
v -0.118538357 0.0191841703 1.26477551
v -0.126629919 0.0228416845 1.27175355
v -0.130525038 0.0940413177 1.18812346
v -0.0808861405 0.115949035 1.19735193
v -0.0812358111 0.120390519 1.19915462
v -0.0720781907 0.105212703 1.19213533
v -0.0808861405 0.115949035 1.19735193
v -0.126431659 0.0918221772 1.18606865
v -0.16257824 0.0494516827 1.1958667
v -0.163661033 0.0464927033 1.16510057
v -0.156175584 0.040135894 1.19105101
v -0.16257824 0.0494516827 1.1958667
v -0.17267929 0.0557118207 1.17170465
v -0.126431659 0.0918221772 1.18606865
v -0.143861085 0.105966568 1.10251665
v -0.151043773 0.118704744 1.10848939
v -0.0882199258 0.127523884 1.17090309
v -0.0808861405 0.115949035 1.19735193
v -0.078552179 0.118223473 1.166785
v -0.143861085 0.105966568 1.10251665
v -0.130525038 0.0940413177 1.18812346
v -0.168977186 0.0460890271 1.19773901
v -0.156175584 0.040135894 1.19105101
v 0.131054536 0.0871442705 1.19198906
v 0.159989268 0.0415140726 1.20165098
v -0.037621174 0.0645750761 1.26192439
v -0.055830434 0.0715407804 1.26496947
v -0.0391807854 0.0756820217 1.26374066
v 0.0609548613 0.0702197328 1.26348579
v 0.0391680896 0.0628265813 1.25940311
v 0.0434369557 0.0762818381 1.26345265
v 0.11568059 0.0149476146 1.2646904
v 0.140175134 0.0106052728 1.22898149
v 0.122627467 0.00318195764 1.2658397
v 0.130844459 0.0230292603 1.23154998
v 0.150882781 0.0332669504 1.19230151
v 0.155586675 0.0191082899 1.19287813
v 0.114377886 -0.0314392447 1.24869776
v 0.124210231 -0.0780179352 1.25090766
v 0.0990503505 -0.0655113235 1.24477601
v 0.132356212 -0.0326787382 1.25851047
v 0.101762645 0.00440472318 1.25742173
v 0.122627467 0.00318195764 1.2658397
v 0.13387987 -0.0799162015 1.25851655
v 0.143640995 -0.0375025235 1.26486015
v 0.133569777 0.00272904127 1.27057838
v 0.151798591 -0.0778680369 1.22607636
v 0.140236869 -0.0770038068 1.21200514
v 0.163516924 -0.0332144238 1.23535466
v 0.153222665 0.0104029197 1.24121046
v 0.133569777 0.00272904127 1.27057838
v 0.189973071 -0.0275734682 1.19519198
v 0.165639475 -0.0791963264 1.18126786
v 0.164397389 -0.074534148 1.180722
v 0.186112881 -0.0268516447 1.19130814
v 0.133569777 0.00272904127 1.27057838
v 0.140175134 0.0106052728 1.22898149
v 0.152091473 -0.0761747807 1.17328537
v 0.165035784 -0.0725123361 1.14821291
v 0.167649344 0.0165350251 1.19965196
v 0.181383714 0.0233153645 1.17435992
v 0.171857685 0.0226580296 1.1647222
v 0.155586675 0.0191082899 1.19287813
v 0.16876778 0.0201405808 1.20236731
v 0.223037586 -0.0186803713 1.1124649
v 0.176023155 -0.0760595649 1.15676951
v 0.165035784 -0.0725123361 1.14821291
v 0.21337761 -0.0169461574 1.10440719
v 0.21337761 -0.0169461574 1.10440719
v 0.155586675 0.0191082899 1.19287813
v 0.152091473 -0.0761747807 1.17328537
v 0.131386355 -0.0207917988 1.16789162
v 0.133090213 -0.0561231188 1.17326176
v 0.152091473 -0.0761747807 1.17328537
v 0.165409505 -0.0229986086 1.16857338
v 0.145784587 -0.0866397247 1.16741788
v 0.140236869 -0.0770038068 1.21200514
v 0.152091473 -0.0761747807 1.17328537
v 0.133613005 -0.0841716528 1.21254897
v 0.124210231 -0.0780179352 1.25090766
v 0.119302727 -0.0834284648 1.24688423
v 0.0990503505 -0.0655113235 1.24477601
v 0.124210231 -0.0780179352 1.25090766
v 0.165409505 -0.0229986086 1.16857338
v 0.135033458 0.0107623301 1.18366325
v 0.131386355 -0.0207917988 1.16789162
v 0.155586675 0.0191082899 1.19287813
v 0.120674558 0.0340018012 1.18531168
v 0.135033458 0.0107623301 1.18366325
v 0.155586675 0.0191082899 1.19287813
v 0.145784587 -0.0866397247 1.16741788
v 0.152091473 -0.0761747807 1.17328537
v 0.113845177 -0.0764052421 1.16483545
v 0.152091473 -0.0761747807 1.17328537
v 0.133090213 -0.0561231188 1.17326176
v 0.101762645 0.00440472318 1.25742173
v 0.11568059 0.0149476146 1.2646904
v 0.122627467 0.00318195764 1.2658397
v 0.13387987 -0.0799162015 1.25851655
v 0.152091473 -0.0761747807 1.17328537
v 0.165409505 -0.0229986086 1.16857338
v 0.171857685 0.0226580296 1.1647222
v 0.155586675 0.0191082899 1.19287813
v 0.21337761 -0.0169461574 1.10440719
v 0.165035784 -0.0725123361 1.14821291
v 0.152091473 -0.0761747807 1.17328537
v 0.150882781 0.0332669504 1.19230151
v 0.120674558 0.0340018012 1.18531168
v 0.155586675 0.0191082899 1.19287813
vt 0.771459222 0.102898978
vt 0.776616573 0.0599188395
vt 0.750066042 0.0553290844
vt 0.790186286 0.110307954
vt 0.807175457 0.169603333
vt 0.776579082 0.166092709
vt 0.82761097 0.166254461
vt 0.816436648 0.107983246
vt 0.807175457 0.169603333
vt 0.776616573 0.0599188395
vt 0.82761097 0.166254461
vt 0.853016615 0.099331215
vt 0.816436648 0.107983246
vt 0.863877416 0.162616283
vt 0.889596522 0.0906791762
vt 0.836175799 0.0374097154
vt 0.870536447 0.0244211033
vt 0.834146976 0.0135536939
vt 0.867874622 0.00353729539
vt 0.87366873 0.0243205093
vt 0.867874622 0.00353729539
vt 0.900143862 0.15897809
vt 0.902671516 0.180341989
vt 0.801815152 0.0503983274
vt 0.82977581 -0.00256858952
vt 0.80041939 0.0235700943
vt 0.863151789 -0.0135345999
vt 0.80041939 0.0235700943
vt 0.796399772 0.0083974218
vt 0.776616573 0.0599188395
vt 0.816436648 0.107983246
vt 0.893364489 0.089899689
vt 0.902607441 0.158060342
vt 0.902671516 0.180341989
vt 0.933015287 0.164652735
vt 0.893364489 0.089899689
vt 0.92438364 0.153475687
vt 0.933015287 0.164652735
vt 0.965843737 0.0726471767
vt 0.977905929 0.0843787491
vt 0.894899309 0.0186438896
vt 0.87366873 0.0243205093
vt 0.971846163 0.0566195436
vt 0.898093164 0.00467458274
vt 0.87366873 0.0243205093
vt 0.889596522 0.0906791762
vt 0.900143862 0.15897809
vt 0.893364489 0.089899689
vt 0.870545208 0.18204163
vt 0.838418901 0.183741271
vt 0.130582377 0.791975677
vt 0.181934431 0.904319525
vt 0.215337113 0.86648953
vt 0.0344627462 0.889988899
vt 0.0362520777 0.735307097
vt 0.0696574673 0.706815839
vt 0.146165311 0.739300609
vt 0.246982813 0.797312379
vt 0.0630219728 0.676859379
vt 0.11511904 0.641640604
vt 0.56531471 0.30837211
vt 0.549822628 0.258502841
vt 0.546850741 0.316089511
vt 0.574177325 0.251949787
vt 0.554730654 0.357018441
vt 0.528633714 0.35944429
vt 0.597688556 0.25347507
vt 0.589862764 0.309278488
vt 0.554730654 0.357018441
vt 0.589862764 0.309278488
vt 0.578527808 0.364594191
vt 0.611709654 0.375207335
vt 0.660015464 0.322025418
vt 0.624939084 0.315651953
vt 0.6448915 0.385820478
vt 0.632278442 0.255046427
vt 0.666868269 0.256617785
vt 0.668868005 0.236971974
vt 0.578527808 0.364594191
vt 0.589862764 0.309278488
vt 0.597688556 0.25347507
vt 0.604617417 0.231498837
vt 0.636742711 0.234235406
vt 0.668868005 0.236971974
vt 0.611263514 0.397610426
vt 0.579048455 0.389466316
vt 0.578527808 0.364594191
vt 0.577258587 0.402813315
vt 0.607979357 0.413426578
vt 0.643478572 0.405754507
vt 0.638700187 0.424039871
vt 0.671849966 0.403269917
vt 0.647806466 0.385811031
vt 0.663611889 0.322606772
vt 0.668205142 0.39015615
vt 0.671849966 0.403269917
vt 0.660015464 0.322025418
vt 0.669389307 0.257515162
vt 0.666868269 0.256617785
vt 0.668868005 0.236971974
vt 0.697966516 0.24981901
vt 0.690245688 0.2608082
vt 0.669389307 0.257515162
vt 0.733126938 0.335516751
vt 0.739527822 0.350434273
vt 0.671849966 0.403269917
vt 0.697966516 0.24981901
vt 0.744055212 0.32381773
vt 0.663611889 0.322606772
vt 0.697966516 0.24981901
vt 0.668868005 0.236971974
vt 0.553479552 0.518427014
vt 0.641332507 0.557599127
vt 0.659107387 0.43623206
vt 0.552325904 0.55836606
vt 0.7452178 0.540457904
vt 0.738301218 0.585067511
vt 0.606966615 0.606654704
vt 0.738301218 0.585067511
vt 0.702218175 0.642199099
vt 0.540884554 0.591700912
vt 0.531569779 0.629805386
vt 0.278719723 0.736942351
vt 0.194211289 0.698484004
vt 0.213594839 0.735379755
vt 0.278510451 0.71371305
vt 0.345856518 0.728344023
vt 0.362306297 0.699163437
vt 0.213590339 0.670186341
vt 0.278489053 0.680036485
vt 0.362306297 0.699163437
vt 0.337869883 0.670302093
vt 0.35352692 0.625654697
vt 0.277447224 0.626785517
vt 0.337869883 0.670302093
vt 0.379141957 0.63794446
vt 0.276405394 0.573534548
vt 0.198897183 0.627143264
vt 0.184204012 0.584100127
vt 0.184854224 0.578920305
vt 0.276399463 0.56852299
vt 0.194211289 0.698484004
vt 0.175829083 0.639058352
vt 0.157446876 0.579632699
vt 0.165332869 0.54017365
vt 0.3676292 0.577555478
vt 0.364972472 0.549185038
vt 0.369183958 0.581007361
vt 0.395977616 0.576725543
vt 0.385920852 0.537594974
vt 0.275707573 0.479066253
vt 0.186127305 0.55060792
vt 0.275945425 0.454260141
vt 0.165332869 0.54017365
vt 0.275945425 0.454260141
vt 0.3676292 0.577555478
vt 0.364972472 0.549185038
vt 0.184854224 0.578920305
vt 0.186127305 0.55060792
vt 0.134570077 0.579037607
vt 0.0479605496 0.596536279
vt 0.106590793 0.6013062
vt 0.0470475033 0.56618154
vt 0.647806466 0.385811031
vt 0.660015464 0.322025418
vt 0.643478572 0.405754507
vt 0.50951612 0.563577831
vt 0.443752795 0.595154405
vt 0.511081874 0.594352663
vt 0.443752795 0.595154405
vt 0.418079436 0.57587415
vt 0.777670562 0.00844789483
vt 0.80041939 0.0235700943
vt 0.796399772 0.0083974218
vt 0.579048455 0.389466316
vt 0.554475844 0.398464143
vt 0.577258587 0.402813315
vt 0.369183958 0.581007361
vt 0.213590339 0.670186341
vt 0.157446876 0.579632699
vt 0.369183958 0.581007361
vt 0.379141957 0.63794446
vt 0.395977616 0.576725543
vt 0.130582377 0.791975677
vt 0.181934431 0.904319525
vt 0.215337113 0.86648953
vt 0.0344627462 0.889988899
vt 0.0362520777 0.735307097
vt 0.0696574673 0.706815839
vt 0.80041939 0.0235700943
vt 0.82977581 -0.00256858952
vt 0.834146976 0.0135536939
vt 0.796399772 0.0083974218
vt 0.867874622 0.00353729539
vt 0.863151789 -0.0135345999
vt 0.278719723 0.736942351
vt 0.194211289 0.698484004
vt 0.278510451 0.71371305
vt 0.213594839 0.735379755
vt 0.345856518 0.728344023
vt 0.362306297 0.699163437
vt 0.213590339 0.670186341
vt 0.278489053 0.680036485
vt 0.337869883 0.670302093
vt 0.277447224 0.626785517
vt 0.35352692 0.625654697
vt 0.198897183 0.627143264
vt 0.276405394 0.573534548
vt 0.184204012 0.584100127
vt 0.184854224 0.578920305
vt 0.276399463 0.56852299
vt 0.175829083 0.639058352
vt 0.379141957 0.63794446
vt 0.157446876 0.579632699
vt 0.165332869 0.54017365
vt 0.3676292 0.577555478
vt 0.364972472 0.549185038
vt 0.369183958 0.581007361
vt 0.395977616 0.576725543
vt 0.157446876 0.579632699
vt 0.395977616 0.576725543
vt 0.385920852 0.537594974
vt 0.186127305 0.55060792
vt 0.275707573 0.479066253
vt 0.275945425 0.454260141
vt 0.165332869 0.54017365
vt 0.385920852 0.537594974
vt 0.275945425 0.454260141
vt 0.3676292 0.577555478
vt 0.364972472 0.549185038
vt 0.184854224 0.578920305
vt 0.186127305 0.55060792
vt 0.134570077 0.579037607
vt 0.0479605496 0.596536279
vt 0.0470475033 0.56618154
vt 0.134570077 0.579037607
vt 0.106590793 0.6013062
vt 0.643478572 0.405754507
vt 0.607979357 0.413426578
vt 0.611263514 0.397610426
vt 0.638700187 0.424039871
vt 0.577258587 0.402813315
vt 0.579048455 0.389466316
vt 0.577258587 0.402813315
vt 0.554475844 0.398464143
vt 0.35352692 0.625654697
vt 0.362306297 0.699163437
vt 0.337869883 0.670302093
vt 0.50951612 0.563577831
vt 0.443752795 0.595154405
vt 0.418079436 0.57587415
vt 0.511081874 0.594352663
vt 0.146165311 0.739300609
vt 0.0630219728 0.676859379
vt 0.11511904 0.641640604
vt 0.0696574673 0.706815839
vt 0.552325904 0.55836606
vt 0.606966615 0.606654704
vt 0.540884554 0.591700912
vt 0.531569779 0.629805386
vt 0.540884554 0.591700912
vt 0.777670562 0.00844789483
vt 0.796399772 0.0083974218
vt 0.80041939 0.0235700943
vt 0.213590339 0.670186341
vt 0.130582377 0.791975677
vt 0.181934431 0.904319525
vt 0.0344627462 0.889988899
vt 0.215337113 0.86648953
vt 0.0362520777 0.735307097
vt 0.0696574673 0.706815839
vt 0.881654203 0.368493676
vt 0.845404208 0.389776409
vt 0.879172444 0.397240758
vt 0.848296404 0.361953199
vt 0.868232131 0.410453647
vt 0.83205235 0.403546721
vt 0.811635971 0.382312059
vt 0.814938605 0.355412692
vt 0.847839832 0.339168102
vt 0.812656641 0.32921201
vt 0.859313726 0.275997281
vt 0.896550477 0.281414449
vt 0.883023083 0.349124163
vt 0.865158856 0.212015063
vt 0.901593626 0.212365538
vt 0.901930213 0.192962229
vt 0.869901657 0.193929076
vt 0.822076976 0.270580083
vt 0.828724086 0.211664602
vt 0.852536738 0.477872908
vt 0.817507386 0.465522707
vt 0.795872569 0.396639764
vt 0.782478034 0.453172505
vt 0.764133632 0.50542587
vt 0.79422307 0.523223937
vt 0.824312508 0.541022003
vt 0.837873161 0.194895923
vt 0.837873161 0.194895923
vt 0.786898196 0.533469558
vt 0.754225731 0.510831892
vt 0.764133632 0.50542587
vt 0.819570661 0.556107223
vt 0.757631242 0.448173136
vt 0.730813384 0.496883631
vt 0.734495282 0.443981409
vt 0.745913446 0.391999781
vt 0.772755861 0.39330712
vt 0.782478034 0.453172505
vt 0.772755861 0.39330712
vt 0.795872569 0.396639764
vt 0.764133632 0.50542587
vt 0.754225731 0.510831892
vt 0.847717404 0.563386202
vt 0.826972604 0.540805161
vt 0.846497893 0.549033582
vt 0.924445748 0.506093085
vt 0.92797035 0.522990346
vt 0.855406463 0.47886312
vt 0.893431067 0.419958025
vt 0.871595144 0.412104934
vt 0.937816441 0.495916069
vt 0.903387427 0.410070837
vt 0.879172444 0.397240758
vt 0.826972604 0.540805161
vt 0.826972604 0.540805161
vt 0.824312508 0.541022003
vt 0.819570661 0.556107223
vt 0.871595144 0.412104934
vt 0.852536738 0.477872908
vt 0.871595144 0.412104934
vt 0.868232131 0.410453647
vt 0.812656641 0.32921201
vt 0.796378493 0.269053042
vt 0.787462175 0.322787255
vt 0.822076976 0.270580083
vt 0.809737146 0.210517168
vt 0.828724086 0.211664602
vt 0.785326123 0.273495317
vt 0.787462175 0.322787255
vt 0.759901941 0.326628774
vt 0.781123519 0.218062833
vt 0.809737146 0.210517168
vt 0.883023083 0.349124163
vt 0.900380552 0.281944722
vt 0.896550477 0.281414449
vt 0.900380552 0.281944722
vt 0.885936618 0.349109054
vt 0.881654203 0.368493676
vt 0.926095843 0.215856418
vt 0.904268324 0.213146999
vt 0.97404182 0.292637795
vt 0.985118687 0.27991727
vt 0.933876276 0.203999937
vt 0.904268324 0.213146999
vt 0.901930213 0.192962229
vt 0.907884717 0.352858812
vt 0.885936618 0.349109054
vt 0.912223697 0.366506249
vt 0.912223697 0.366506249
vt 0.98136884 0.308048308
vt 0.342221349 0.838069975
vt 0.246775299 0.911906123
vt 0.381863564 0.974940717
vt 0.234539255 0.862006009
vt 0.453703672 0.839834213
vt 0.435725212 0.798064828
vt 0.343919694 0.788595021
vt 0.246982813 0.797312379
vt 0.234539255 0.862006009
vt 0.418686867 0.731429279
vt 0.465675861 0.759592593
vt 0.439010561 0.633830905
vt 0.519815862 0.661442161
vt 0.498152614 0.777279556
vt 0.629427612 0.707417905
vt 0.664743364 0.058017198
vt 0.630190492 0.0364585891
vt 0.632415116 0.0617742017
vt 0.660982668 0.0278278254
vt 0.664289773 0.076710254
vt 0.630114317 0.0826855674
vt 0.670768678 0.14203997
vt 0.635136187 0.143424377
vt 0.634530842 0.204460472
vt 0.66898334 0.207880571
vt 0.599398255 0.0450893492
vt 0.600086868 0.0655312091
vt 0.600078344 0.201040372
vt 0.604761899 0.224459514
vt 0.636737585 0.224794775
vt 0.599503696 0.144808769
vt 0.595938921 0.0886608809
vt 0.668713212 0.225130022
vt 0.794638991 0.854663193
vt 0.716201484 0.918321908
vt 0.794367671 0.991217434
vt 0.766027153 0.833555758
vt 0.661280036 0.864332616
vt 0.726774812 0.807882547
vt 0.784015119 0.788050413
vt 0.733553648 0.728612423
vt 0.775648415 0.702188969
vt 0.822538257 0.790637374
vt 0.890945494 0.673596025
vt 0.785349846 0.59210676
vt 0.744646966 0.602457881
vt 0.702218175 0.642199099
vt 0.575488448 0.143272519
vt 0.595938921 0.0886608809
vt 0.572478056 0.0918734074
vt 0.599503696 0.144808769
vt 0.575898945 0.199415445
vt 0.560008109 0.135361388
vt 0.572478056 0.0918734074
vt 0.544931829 0.0864956602
vt 0.554536641 0.191057324
vt 0.575898945 0.199415445
vt 0.600078344 0.201040372
vt 0.670768678 0.14203997
vt 0.666682124 0.0766957998
vt 0.664289773 0.076710254
vt 0.664743364 0.058017198
vt 0.666682124 0.0766957998
vt 0.674347579 0.141827136
vt 0.67172724 0.207281232
vt 0.698918283 0.218804538
vt 0.668713212 0.225130022
vt 0.67172724 0.207281232
vt 0.692601919 0.206846103
vt 0.674347579 0.141827136
vt 0.754192591 0.152106702
vt 0.744882643 0.138978198
vt 0.687821388 0.0754567906
vt 0.666682124 0.0766957998
vt 0.693235993 0.0629915819
vt 0.753206551 0.125139698
vt 0.670768678 0.14203997
vt 0.66898334 0.207880571
vt 0.668713212 0.225130022
vt 0.900380552 0.281944722
vt 0.904268324 0.213146999
vt 0.576250017 0.050325755
vt 0.600086868 0.0655312091
vt 0.599398255 0.0450893492
vt 0.814938605 0.355412692
vt 0.790024579 0.36846143
vt 0.811635971 0.382312059
vt 0.80041939 0.0235700943
vt 0.82977581 -0.00256858952
vt 0.796399772 0.0083974218
vt 0.834146976 0.0135536939
vt 0.867874622 0.00353729539
vt 0.863151789 -0.0135345999
vt 0.278719723 0.736942351
vt 0.194211289 0.698484004
vt 0.213594839 0.735379755
vt 0.278510451 0.71371305
vt 0.345856518 0.728344023
vt 0.362306297 0.699163437
vt 0.213590339 0.670186341
vt 0.278489053 0.680036485
vt 0.337869883 0.670302093
vt 0.198897183 0.627143264
vt 0.175829083 0.639058352
vt 0.277447224 0.626785517
vt 0.35352692 0.625654697
vt 0.337869883 0.670302093
vt 0.276405394 0.573534548
vt 0.184204012 0.584100127
vt 0.184854224 0.578920305
vt 0.276399463 0.56852299
vt 0.337869883 0.670302093
vt 0.379141957 0.63794446
vt 0.157446876 0.579632699
vt 0.165332869 0.54017365
vt 0.3676292 0.577555478
vt 0.364972472 0.549185038
vt 0.385920852 0.537594974
vt 0.395977616 0.576725543
vt 0.369183958 0.581007361
vt 0.275707573 0.479066253
vt 0.186127305 0.55060792
vt 0.165332869 0.54017365
vt 0.275945425 0.454260141
vt 0.275945425 0.454260141
vt 0.395977616 0.576725543
vt 0.134570077 0.579037607
vt 0.0479605496 0.596536279
vt 0.106590793 0.6013062
vt 0.134570077 0.579037607
vt 0.0470475033 0.56618154
vt 0.643478572 0.405754507
vt 0.607979357 0.413426578
vt 0.638700187 0.424039871
vt 0.611263514 0.397610426
vt 0.577258587 0.402813315
vt 0.579048455 0.389466316
vt 0.554475844 0.398464143
vt 0.577258587 0.402813315
vt 0.50951612 0.563577831
vt 0.443752795 0.595154405
vt 0.511081874 0.594352663
vt 0.418079436 0.57587415
vt 0.146165311 0.739300609
vt 0.11511904 0.641640604
vt 0.0630219728 0.676859379
vt 0.552325904 0.55836606
vt 0.540884554 0.591700912
vt 0.606966615 0.606654704
vt 0.540884554 0.591700912
vt 0.531569779 0.629805386
vt 0.777670562 0.00844789483
vt 0.80041939 0.0235700943
vt 0.796399772 0.0083974218
vt 0.213590339 0.670186341
vt 0.157446876 0.579632699
vt 0.130582377 0.791975677
vt 0.181934431 0.904319525
vt 0.215337113 0.86648953
vt 0.0344627462 0.889988899
vt 0.0362520777 0.735307097
vt 0.0696574673 0.706815839
vt 0.0696574673 0.706815839
vt 0.146165311 0.739300609
vt 0.0630219728 0.676859379
vn -0.104557797 -0.138191298 0.98487097
vn -0.355101079 -0.54313302 0.760861218
vn -0.123666197 -0.124161169 0.984525621
vn -0.288664132 0.0366679616 0.956727982
vn 0.0516500212 -0.128194451 0.990403175
vn -0.257612675 -0.108253092 0.960165083
vn 0.422313571 0.0625757724 0.904287219
vn 0.105567701 -0.530773878 0.840912938
vn 0.0516500212 -0.128194451 0.990403175
vn -0.355101079 -0.54313302 0.760861218
vn 0.422313571 0.0625757724 0.904287219
vn 0.497867495 -0.832551777 0.242869109
vn 0.105567701 -0.530773878 0.840912938
vn 0.924155831 0.128704712 0.359681845
vn 0.583200693 -0.643796504 -0.495381743
vn -0.314745456 -0.947863579 -0.0498993732
vn -0.230582073 -0.771131039 -0.593455017
vn -0.456527799 -0.885584295 -0.0855737254
vn -0.507742763 -0.460997671 -0.727790117
vn 0.0292543545 -0.590068936 -0.806822777
vn -0.507742763 -0.460997671 -0.727790117
vn 0.985214055 0.118383504 -0.123849668
vn 0.504667699 0.713542461 -0.485970765
vn -0.362998486 -0.743757308 0.561299562
vn 0.653544843 -0.754861891 0.0553423129
vn -0.355101079 -0.54313302 0.760861218
vn 0.698672473 -0.17083931 -0.694745123
vn -0.355101079 -0.54313302 0.760861218
vn 0.289484203 -0.462029159 0.838288724
vn -0.355101079 -0.54313302 0.760861218
vn 0.105567701 -0.530773878 0.840912938
vn 0.510033727 -0.679045022 -0.527980566
vn 0.67324096 0.0896576717 -0.733967304
vn 0.504667699 0.713542461 -0.485970765
vn 0.113253936 0.954343736 -0.276408374
vn 0.510033727 -0.679045022 -0.527980566
vn 0.98574245 0.156337216 0.0622127429
vn 0.113253936 0.954343736 -0.276408374
vn 0.589818001 -0.516767502 -0.620537043
vn -0.0331283882 0.338319272 -0.940448105
vn -0.497073829 -0.829987228 -0.253058851
vn 0.0292543545 -0.590068936 -0.806822777
vn -0.0331283882 0.338319272 -0.940448105
vn -0.814396262 0.356550366 -0.45785436
vn 0.0292543545 -0.590068936 -0.806822777
vn 0.583200693 -0.643796504 -0.495381743
vn 0.985214055 0.118383504 -0.123849668
vn 0.510033727 -0.679045022 -0.527980566
vn 0.947821319 0.09020634 0.305773646
vn 0.0516500212 -0.128194451 0.990403175
vn -0.191857785 0.726257026 -0.660107076
vn 0.113253936 0.954343736 -0.276408374
vn 0.504667699 0.713542461 -0.485970765
vn -0.0331283882 0.338319272 -0.940448105
vn -0.814396262 0.356550366 -0.45785436
vn -0.507742763 -0.460997671 -0.727790117
vn 0.162982315 0.15069586 -0.975052536
vn 0.194411203 0.32253468 -0.926377714
vn 0.698672473 -0.17083931 -0.694745123
vn 0.301181048 0.0957415998 -0.94874835
vn 0.212445587 0.0155761652 0.977048695
vn 0.2088072 -0.123322301 0.970150054
vn -0.0139459791 -0.238007545 0.971163213
vn -0.0423503108 -0.0702592283 0.996629298
vn 0.335499913 -0.569627523 0.750309527
vn 0.177073985 -0.133521274 0.975098312
vn -0.511945605 0.117423505 0.850954413
vn -0.15593636 -0.479323715 0.863673866
vn 0.335499913 -0.569627523 0.750309527
vn -0.15593636 -0.479323715 0.863673866
vn 0.339756906 -0.768833578 0.541719615
vn 0.307696879 -0.949879587 -0.0552407913
vn -0.61398828 -0.648400426 -0.450105876
vn -0.518828571 -0.807109356 0.281764656
vn 0.177401751 -0.792871654 -0.582995057
vn -0.901483536 0.149212107 0.406279743
vn -0.958358288 0.200527996 -0.203317329
vn -0.586138844 0.689630091 -0.425266594
vn 0.339756906 -0.768833578 0.541719615
vn -0.15593636 -0.479323715 0.863673866
vn -0.511945605 0.117423505 0.850954413
vn -0.0423503108 -0.0702592283 0.996629298
vn -0.91758883 0.0691338778 0.391473323
vn -0.586138844 0.689630091 -0.425266594
vn 0.389422566 -0.915675044 -0.0994453952
vn 0.335499913 -0.569627523 0.750309527
vn 0.339756906 -0.768833578 0.541719615
vn -0.289820462 -0.295182943 0.910423636
vn -0.674343586 -0.734711468 0.0738905445
vn 0.514421761 -0.409790099 -0.753287673
vn -0.695324838 -0.172413588 -0.697708249
vn 0.832238376 0.28635183 -0.474744201
vn -0.0283247009 -0.598822534 -0.800380707
vn -0.52022773 -0.658980191 -0.54323864
vn 0.421561539 -0.868679643 -0.26015681
vn 0.832238376 0.28635183 -0.474744201
vn -0.61398828 -0.648400426 -0.450105876
vn -0.646091759 0.0772395134 -0.759341419
vn -0.958358288 0.200527996 -0.203317329
vn -0.586138844 0.689630091 -0.425266594
vn -0.0500358716 0.962041438 -0.268277168
vn -0.978614271 0.202310398 0.0372109041
vn -0.646091759 0.0772395134 -0.759341419
vn -0.576660573 -0.511634111 -0.63694042
vn 0.0762379393 0.339123547 -0.937647581
vn 0.832238376 0.28635183 -0.474744201
vn -0.0500358716 0.962041438 -0.268277168
vn 0.0762379393 0.339123547 -0.937647581
vn -0.52022773 -0.658980191 -0.54323864
vn -0.0500358716 0.962041438 -0.268277168
vn -0.586138844 0.689630091 -0.425266594
vn 0.832238376 0.28635183 -0.474744201
vn 0.230912343 0.711030006 -0.664165616
vn 0.0762379393 0.339123547 -0.937647581
vn 0.514421761 -0.409790099 -0.753287673
vn -0.0500358716 0.962041438 -0.268277168
vn -0.586138844 0.689630091 -0.425266594
vn -0.176588759 0.164400831 -0.970458031
vn -0.586138844 0.689630091 -0.425266594
vn -0.19914262 0.10625843 -0.974192619
vn -0.695324838 -0.172413588 -0.697708249
vn -0.296753913 0.144634783 -0.94393748
vn -0.0340409353 -0.0879664421 0.995541632
vn -0.289820462 -0.295182943 0.910423636
vn 0.177073985 -0.133521274 0.975098312
vn -0.00882355031 0.0445440039 0.998968482
vn -0.123666197 -0.124161169 0.984525621
vn 0.289484203 -0.462029159 0.838288724
vn -0.465581983 -0.542200744 0.699465394
vn 0.084472537 -0.734116793 0.673748374
vn 0.289484203 -0.462029159 0.838288724
vn 0.503480673 -0.552689552 0.664109468
vn 0.745738387 -0.665335178 0.0346912779
vn 0.050008148 -0.997779191 -0.0439981408
vn 0.503480673 -0.552689552 0.664109468
vn 0.653544843 -0.754861891 0.0553423129
vn 0.0362627096 -0.766751349 -0.640919209
vn -0.719826937 -0.689530313 0.0799826086
vn -0.667640388 -0.605469406 -0.433200866
vn -0.346099228 -0.485272199 -0.802948356
vn 0.0468432829 -0.84837693 -0.527315974
vn -0.289820462 -0.295182943 0.910423636
vn -0.674343586 -0.734711468 0.0738905445
vn -0.695324838 -0.172413588 -0.697708249
vn -0.683796406 0.685829639 -0.249118701
vn 0.431123167 -0.48606208 -0.760181844
vn 0.814445496 -0.5672701 -0.121996038
vn 0.732904851 -0.536029041 -0.418955207
vn 0.698672473 -0.17083931 -0.694745123
vn 0.67855376 0.692941666 -0.243714184
vn 0.0231169183 -0.66731894 -0.744413316
vn -0.817241967 -0.564592719 -0.115544885
vn 0.0129292943 0.440214753 -0.897799432
vn -0.683796406 0.685829639 -0.249118701
vn 0.0129292943 0.440214753 -0.897799432
vn 0.431123167 -0.48606208 -0.760181844
vn 0.814445496 -0.5672701 -0.121996038
vn -0.346099228 -0.485272199 -0.802948356
vn -0.817241967 -0.564592719 -0.115544885
vn -0.695324838 -0.172413588 -0.697708249
vn -0.0122727845 0.194268182 -0.980871677
vn -0.296753913 0.144634783 -0.94393748
vn -0.0237637367 0.805482268 -0.592143238
vn -0.0283247009 -0.598822534 -0.800380707
vn -0.61398828 -0.648400426 -0.450105876
vn 0.514421761 -0.409790099 -0.753287673
vn -0.0237637367 0.805482268 -0.592143238
vn 0.301181048 0.0957415998 -0.94874835
vn -0.0122727845 0.194268182 -0.980871677
vn 0.301181048 0.0957415998 -0.94874835
vn 0.698672473 -0.17083931 -0.694745123
vn -0.123666197 -0.124161169 0.984525621
vn -0.355101079 -0.54313302 0.760861218
vn 0.289484203 -0.462029159 0.838288724
vn 0.335499913 -0.569627523 0.750309527
vn 0.177073985 -0.133521274 0.975098312
vn -0.289820462 -0.295182943 0.910423636
vn 0.732904851 -0.536029041 -0.418955207
vn -0.465581983 -0.542200744 0.699465394
vn -0.695324838 -0.172413588 -0.697708249
vn 0.732904851 -0.536029041 -0.418955207
vn 0.653544843 -0.754861891 0.0553423129
vn 0.698672473 -0.17083931 -0.694745123
vn -0.0237637367 0.805482268 -0.592143238
vn 0.67855376 0.692941666 -0.243714184
vn 0.698672473 -0.17083931 -0.694745123
vn 0.0129292943 0.440214753 -0.897799432
vn -0.683796406 0.685829639 -0.249118701
vn -0.695324838 -0.172413588 -0.697708249
vn -0.137671202 -0.439818293 0.887471974
vn -0.398468584 0.800833762 0.44708845
vn -0.872720242 -0.363534629 0.325886577
vn 0.000876932172 0.187793329 0.982208192
vn -0.640069544 -0.51845479 -0.567023456
vn -0.301840395 0.915502727 -0.265983343
vn 0.292194486 -0.21041587 0.932924211
vn 0.0644121096 -0.61729604 0.784089684
vn 0.384594053 -0.162962541 0.908587158
vn 0.2088072 -0.123322301 0.970150054
vn 0.160575613 -0.20908381 0.964624047
vn 0.000876932172 0.187793329 0.982208192
vn -0.101471804 -0.649740338 0.753353179
vn -0.323640764 -0.119536243 0.938598871
vn -0.031378895 0.441108674 0.896905005
vn -0.852373719 -0.0757521018 0.517417192
vn -0.497659087 0.718402803 0.48603788
vn -0.546111822 -0.796689272 0.258936793
vn -0.988384843 0.020568233 -0.150573671
vn -0.675120354 -0.676046371 -0.295252055
vn -0.775820196 -0.287728399 -0.561529458
vn -0.984158516 0.0235156324 -0.175724313
vn -0.329914391 -0.930861652 0.157012671
vn -0.398468584 0.800833762 0.44708845
vn -0.348211378 -0.706805825 -0.615771472
vn 0.455691934 -0.598531127 -0.658866644
vn -0.829710364 0.491007149 -0.265504658
vn -0.522931218 0.813110113 0.25572449
vn -0.656734109 0.752664506 0.0468655117
vn -0.301840395 0.915502727 -0.265983343
vn -0.348211378 -0.706805825 -0.615771472
vn -0.301840395 0.915502727 -0.265983343
vn 0.436438143 0.79821229 -0.415185213
vn -0.485518783 -0.873813689 -0.026853608
vn -0.936102569 0.0571008883 -0.347061038
vn -0.0714486912 0.195005238 -0.978196383
vn 0.455691934 -0.598531127 -0.658866644
vn 0.436438143 0.79821229 -0.415185213
vn -0.0714486912 0.195005238 -0.978196383
vn -0.829710364 0.491007149 -0.265504658
vn -0.522931218 0.813110113 0.25572449
vn -0.775820196 -0.287728399 -0.561529458
vn -0.485518783 -0.873813689 -0.026853608
vn -0.348211378 -0.706805825 -0.615771472
vn -0.0471189879 0.179232895 -0.982677639
vn 0.501658082 0.179158643 -0.846310377
vn -0.348211378 -0.706805825 -0.615771472
vn -0.15471527 -0.00281944638 -0.987955093
vn -0.586138844 0.689630091 -0.425266594
vn -0.329914391 -0.930861652 0.157012671
vn -0.91758883 0.0691338778 0.391473323
vn -0.348211378 -0.706805825 -0.615771472
vn 0.0644121096 -0.61729604 0.784089684
vn -0.0423503108 -0.0702592283 0.996629298
vn 0.0644121096 -0.61729604 0.784089684
vn 0.2088072 -0.123322301 0.970150054
vn -0.497659087 0.718402803 0.48603788
vn 0.000876932172 0.187793329 0.982208192
vn -0.031378895 0.441108674 0.896905005
vn 0.501658082 0.179158643 -0.846310377
vn -0.174681723 0.38086468 -0.907980323
vn -0.301840395 0.915502727 -0.265983343
vn -0.0471189879 0.179232895 -0.982677639
vn -0.167919308 0.0845965892 -0.982164264
vn -0.301840395 0.915502727 -0.265983343
vn -0.174681723 0.38086468 -0.907980323
vn -0.640069544 -0.51845479 -0.567023456
vn -0.586138844 0.689630091 -0.425266594
vn -0.19914262 0.10625843 -0.974192619
vn -0.348211378 -0.706805825 -0.615771472
vn -0.15471527 -0.00281944638 -0.987955093
vn -0.348211378 -0.706805825 -0.615771472
vn 0.160575613 -0.20908381 0.964624047
vn 0.000876932172 0.187793329 0.982208192
vn -0.137671202 -0.439818293 0.887471974
vn -0.101471804 -0.649740338 0.753353179
vn 0.501658082 0.179158643 -0.846310377
vn 0.436438143 0.79821229 -0.415185213
vn -0.0714486912 0.195005238 -0.978196383
vn -0.301840395 0.915502727 -0.265983343
vn 0.455691934 -0.598531127 -0.658866644
vn -0.348211378 -0.706805825 -0.615771472
vn -0.519514978 0.580843985 -0.626677334
vn 0.826494455 0.448744833 0.339904189
vn 0.850308001 -0.0213451441 -0.525852501
vn -0.308709353 0.88409853 0.350811005
vn 0.705987334 0.678840935 -0.201883391
vn 0.723903835 0.529830396 0.441862971
vn 0.389426529 -0.136876404 0.910830259
vn -0.393034726 0.168273032 0.903995454
vn -0.231458992 0.8632797 0.448525161
vn -0.442323476 0.315987796 0.839346051
vn 0.581685841 0.624578834 0.52109766
vn 0.68751651 0.652755201 -0.318169206
vn -0.105502643 0.975351572 -0.193799853
vn 0.847204924 -0.389994532 0.360760331
vn 0.975672305 -0.164376736 -0.145065129
vn 0.584234118 -0.50498414 -0.635343671
vn 0.868285 -0.3772358 0.322140425
vn 0.164304718 0.248564884 0.954578221
vn 0.415778548 -0.44604373 0.79257375
vn 0.0438570119 0.937310159 -0.345725715
vn 0.00824688468 0.870626926 0.491874635
vn 0.473915994 -0.000627585512 0.880569756
vn 0.0376404747 0.140760303 0.989327967
vn -0.531434476 0.0592872947 0.845022202
vn -0.800385773 0.458480239 0.38623637
vn -0.729901969 0.607973516 -0.312427938
vn -0.0467189364 -0.342088908 0.938505471
vn -0.0467189364 -0.342088908 0.938505471
vn -0.877850831 0.35312286 0.32354635
vn -0.293090284 -0.103020079 0.95051825
vn -0.531434476 0.0592872947 0.845022202
vn -0.806382775 -0.152000993 -0.571526527
vn -0.000159559437 -0.478416473 0.878132999
vn 0.0944188237 -0.15595302 0.983241439
vn 0.0239115991 -0.128269315 0.991451085
vn -0.0853184834 -0.235767141 0.968057096
vn 0.389426529 -0.136876404 0.910830259
vn 0.0376404747 0.140760303 0.989327967
vn 0.389426529 -0.136876404 0.910830259
vn 0.473915994 -0.000627585512 0.880569756
vn -0.531434476 0.0592872947 0.845022202
vn -0.293090284 -0.103020079 0.95051825
vn -0.719673932 -0.565113127 -0.403381288
vn -0.371502012 0.425434321 -0.825222373
vn -0.810442626 0.58088851 0.0758378878
vn 0.00636245171 0.795336127 -0.606135249
vn -0.016803911 -0.298352957 -0.954307675
vn 0.0209932178 0.951759577 -0.306125671
vn 0.788906991 0.613117039 0.0413933694
vn 0.368290842 0.572211683 -0.732758939
vn -0.016803911 -0.298352957 -0.954307675
vn 0.694159269 -0.555953681 -0.457228959
vn 0.850308001 -0.0213451441 -0.525852501
vn -0.371502012 0.425434321 -0.825222373
vn -0.371502012 0.425434321 -0.825222373
vn -0.729901969 0.607973516 -0.312427938
vn -0.806382775 -0.152000993 -0.571526527
vn 0.368290842 0.572211683 -0.732758939
vn 0.0438570119 0.937310159 -0.345725715
vn 0.368290842 0.572211683 -0.732758939
vn 0.705987334 0.678840935 -0.201883391
vn -0.442323476 0.315987796 0.839346051
vn -0.34508571 -0.411999762 0.843310118
vn -0.393034726 0.168273032 0.903995454
vn 0.164304718 0.248564884 0.954578221
vn -0.0467189364 -0.342088908 0.938505471
vn 0.415778548 -0.44604373 0.79257375
vn -0.163069442 -0.201479286 0.965823174
vn -0.393034726 0.168273032 0.903995454
vn -0.0853184834 -0.235767141 0.968057096
vn -0.364639878 -0.217025101 0.905504167
vn -0.0467189364 -0.342088908 0.938505471
vn -0.105502643 0.975351572 -0.193799853
vn 0.648876488 0.701458573 -0.294813722
vn 0.68751651 0.652755201 -0.318169206
vn 0.648876488 0.701458573 -0.294813722
vn -0.0729425773 0.799013436 -0.596872568
vn -0.519514978 0.580843985 -0.626677334
vn 0.951888621 -0.305769175 -0.0203298572
vn 0.672306836 0.0717143491 -0.736790776
vn 0.628738105 0.613401115 -0.477940887
vn -0.0870451853 -0.0836677253 -0.992684603
vn -0.0468141399 -0.824688017 -0.563647091
vn 0.672306836 0.0717143491 -0.736790776
vn 0.584234118 -0.50498414 -0.635343671
vn -0.153775394 0.98431778 0.0864388794
vn -0.0729425773 0.799013436 -0.596872568
vn -0.85795635 0.161426812 -0.487701058
vn -0.85795635 0.161426812 -0.487701058
vn -0.0870451853 -0.0836677253 -0.992684603
vn -0.386319757 -0.380475283 -0.840235531
vn -0.0468141399 -0.824688017 -0.563647091
vn -0.0870451853 -0.0836677253 -0.992684603
vn 0.584234118 -0.50498414 -0.635343671
vn -0.85795635 0.161426812 -0.487701058
vn -0.519514978 0.580843985 -0.626677334
vn -0.0510179549 0.054648038 -0.997201562
vn 0.183763325 0.0989739373 -0.977975011
vn 0.584234118 -0.50498414 -0.635343671
vn 0.166344464 0.116392761 -0.979174197
vn 0.850308001 -0.0213451441 -0.525852501
vn 0.00393714197 0.000790380407 -0.999992013
vn -0.0121154375 -0.677239776 -0.735662699
vn 0.694159269 -0.555953681 -0.457228959
vn -0.016803911 -0.298352957 -0.954307675
vn 0.623654008 0.53742218 -0.567655742
vn -0.877850831 0.35312286 0.32354635
vn 0.348856181 0.87165451 0.34426403
vn -0.806382775 -0.152000993 -0.571526527
vn 0.126814365 0.974580586 -0.184690773
vn 0.253539681 0.875866771 0.410578936
vn -0.626236916 0.705263317 -0.3323116
vn -0.570862651 0.643116117 0.510409117
vn -0.870621443 -0.27487582 0.407997131
vn -0.982984841 -0.0713218898 -0.169275016
vn -0.293090284 -0.103020079 0.95051825
vn 0.39151755 0.183803961 0.901626348
vn -0.464582264 -0.404519498 0.787735522
vn -0.137671202 -0.439818293 0.887471974
vn -0.872720242 -0.363534629 0.325886577
vn -0.210635439 0.236378327 0.948555768
vn 0.392647177 0.426748961 0.814686179
vn -0.640069544 -0.51845479 -0.567023456
vn -0.719673932 -0.565113127 -0.403381288
vn -0.0121154375 -0.677239776 -0.735662699
vn -0.016803911 -0.298352957 -0.954307675
vn -0.806382775 -0.152000993 -0.571526527
vn 0.00393714197 0.000790380407 -0.999992013
vn -0.135079935 0.116980746 -0.983904898
vn 0.623654008 0.53742218 -0.567655742
vn 0.0815601647 0.107421182 -0.990862608
vn 0.395521611 -0.41742295 -0.818120301
vn 0.878515303 0.141816869 -0.456178516
vn 0.044825688 -0.170113921 -0.984404385
vn -0.216117114 -0.8613832 -0.459687293
vn -0.640069544 -0.51845479 -0.567023456
vn -0.167919308 0.0845965892 -0.982164264
vn 0.255893171 -0.345877886 0.902710974
vn 0.392647177 0.426748961 0.814686179
vn 0.39151755 0.183803961 0.901626348
vn -0.210635439 0.236378327 0.948555768
vn -0.137671202 -0.439818293 0.887471974
vn 0.154683098 -0.20872201 0.965664625
vn 0.39151755 0.183803961 0.901626348
vn 0.0944188237 -0.15595302 0.983241439
vn 0.160575613 -0.20908381 0.964624047
vn -0.137671202 -0.439818293 0.887471974
vn -0.464582264 -0.404519498 0.787735522
vn -0.626236916 0.705263317 -0.3323116
vn 0.0729969069 0.735048532 -0.674073517
vn 0.126814365 0.974580586 -0.184690773
vn 0.623654008 0.53742218 -0.567655742
vn 0.0729969069 0.735048532 -0.674073517
vn -0.572866738 0.779303968 -0.25398618
vn -0.72688055 0.0922461152 -0.680540442
vn -0.216117114 -0.8613832 -0.459687293
vn -0.640069544 -0.51845479 -0.567023456
vn -0.72688055 0.0922461152 -0.680540442
vn -0.99598217 -0.0458790436 0.0769059509
vn -0.572866738 0.779303968 -0.25398618
vn 0.044825688 -0.170113921 -0.984404385
vn -0.500150204 0.697202563 -0.513574004
vn 0.135186911 0.989046514 0.0592575409
vn 0.0729969069 0.735048532 -0.674073517
vn 0.878515303 0.141816869 -0.456178516
vn 0.044825688 -0.170113921 -0.984404385
vn -0.626236916 0.705263317 -0.3323116
vn -0.982984841 -0.0713218898 -0.169275016
vn -0.640069544 -0.51845479 -0.567023456
vn 0.648876488 0.701458573 -0.294813722
vn 0.672306836 0.0717143491 -0.736790776
vn 0.0944188237 -0.15595302 0.983241439
vn 0.39151755 0.183803961 0.901626348
vn -0.293090284 -0.103020079 0.95051825
vn -0.393034726 0.168273032 0.903995454
vn -0.0853184834 -0.235767141 0.968057096
vn 0.389426529 -0.136876404 0.910830259
vn -0.0467189364 -0.342088908 0.938505471
vn 0.359652817 0.853516996 0.377039343
vn -0.118581586 0.263673335 0.957295597
vn 0.868285 -0.3772358 0.322140425
vn 0.584234118 -0.50498414 -0.635343671
vn 0.225365222 0.87967068 -0.418795943
vn -0.440389782 -0.198546886 0.875577509
vn -0.218434408 -0.648122072 0.72953701
vn -0.257612675 -0.108253092 0.960165083
vn -0.512847483 -0.193960875 0.836281478
vn -0.364639878 -0.217025101 0.905504167
vn -0.118581586 0.263673335 0.957295597
vn 0.0468047112 -0.698749661 0.713833451
vn 0.312911451 -0.131570727 0.940625131
vn 0.13962622 0.457288206 0.878289223
vn 0.516184747 -0.820186079 0.24667415
vn 0.354695976 -0.926503003 0.125630707
vn 0.838140845 -0.0931237265 0.537445843
vn 0.488277674 0.735515714 0.469682395
vn 0.13962622 0.457288206 0.878289223
vn 0.994138002 0.0131998165 -0.107309967
vn 0.56122452 -0.721673727 -0.405233413
vn 0.674907923 -0.423512429 -0.604265332
vn 0.98263979 0.0325958282 -0.182638019
vn 0.13962622 0.457288206 0.878289223
vn 0.359652817 0.853516996 0.377039343
vn 0.17196022 -0.702235878 -0.69086498
vn -0.516446233 -0.555514574 -0.651680112
vn 0.657857537 0.642928183 -0.392258584
vn 0.494895846 0.843667567 0.208093852
vn -0.437036574 0.769665003 -0.465419114
vn 0.225365222 0.87967068 -0.418795943
vn 0.565383315 0.819388688 -0.0945715979
vn 0.935834289 0.0281493869 -0.351314455
vn 0.432807058 -0.900221825 -0.0477368571
vn -0.516446233 -0.555514574 -0.651680112
vn 0.089729093 0.175702199 -0.980345547
vn 0.089729093 0.175702199 -0.980345547
vn 0.225365222 0.87967068 -0.418795943
vn 0.17196022 -0.702235878 -0.69086498
vn 0.0125045944 0.181049451 -0.983394504
vn -0.0197616685 -0.0199017264 -0.999606669
vn 0.17196022 -0.702235878 -0.69086498
vn -0.538693428 0.186028942 -0.82170707
vn 0.504667699 0.713542461 -0.485970765
vn 0.354695976 -0.926503003 0.125630707
vn 0.17196022 -0.702235878 -0.69086498
vn 0.947821319 0.09020634 0.305773646
vn -0.218434408 -0.648122072 0.72953701
vn 0.0516500212 -0.128194451 0.990403175
vn -0.257612675 -0.108253092 0.960165083
vn -0.218434408 -0.648122072 0.72953701
vn -0.538693428 0.186028942 -0.82170707
vn 0.205522776 0.393890202 -0.895885527
vn 0.0125045944 0.181049451 -0.983394504
vn 0.225365222 0.87967068 -0.418795943
vn 0.183763325 0.0989739373 -0.977975011
vn 0.205522776 0.393890202 -0.895885527
vn 0.225365222 0.87967068 -0.418795943
vn 0.504667699 0.713542461 -0.485970765
vn 0.17196022 -0.702235878 -0.69086498
vn 0.194411203 0.32253468 -0.926377714
vn 0.17196022 -0.702235878 -0.69086498
vn -0.0197616685 -0.0199017264 -0.999606669
vn -0.364639878 -0.217025101 0.905504167
vn -0.0467189364 -0.342088908 0.938505471
vn -0.118581586 0.263673335 0.957295597
vn 0.0468047112 -0.698749661 0.713833451
vn 0.17196022 -0.702235878 -0.69086498
vn -0.538693428 0.186028942 -0.82170707
vn -0.437036574 0.769665003 -0.465419114
vn 0.225365222 0.87967068 -0.418795943
vn 0.089729093 0.175702199 -0.980345547
vn -0.516446233 -0.555514574 -0.651680112
vn 0.17196022 -0.702235878 -0.69086498
vn 0.584234118 -0.50498414 -0.635343671
vn 0.183763325 0.0989739373 -0.977975011
vn 0.225365222 0.87967068 -0.418795943
g blue_war_f_pve_1_belt_0
f 3/3/3 2/2/2 1/1/1
f 4/4/4 1/1/1 2/2/2
f 4/4/4 5/5/5 1/1/1
f 6/6/6 1/1/1 5/5/5
f 8/8/8 7/7/7 4/4/4
f 9/9/9 4/4/4 7/7/7
f 4/4/4 10/10/10 8/8/8
f 13/13/13 12/12/12 11/11/11
f 14/14/14 11/11/11 12/12/12
f 12/12/12 15/15/15 14/14/14
f 12/12/12 16/16/16 15/15/15
f 17/17/17 15/15/15 16/16/16
f 16/16/16 18/18/18 17/17/17
f 19/19/19 17/17/17 18/18/18
f 17/17/17 20/20/20 15/15/15
f 21/21/21 20/20/20 17/17/17
f 22/22/22 14/14/14 15/15/15
f 22/22/22 23/23/23 14/14/14
f 13/13/13 24/24/24 12/12/12
f 16/16/16 12/12/12 24/24/24
f 18/18/18 25/25/25 19/19/19
f 18/18/18 26/26/26 25/25/25
f 24/24/24 26/26/26 16/16/16
f 27/27/27 19/19/19 25/25/25
f 18/18/18 16/16/16 28/28/28
f 29/29/29 25/25/25 28/28/28
f 24/24/24 31/31/31 30/30/30
f 33/33/33 22/22/22 32/32/32
f 34/34/34 22/22/22 33/33/33
f 34/34/34 33/33/33 35/35/35
f 37/37/37 33/33/33 36/36/36
f 37/37/37 38/38/38 33/33/33
f 37/37/37 39/39/39 38/38/38
f 39/39/39 37/37/37 36/36/36
f 40/40/40 38/38/38 39/39/39
f 39/39/39 36/36/36 41/41/41
f 36/36/36 42/42/42 41/41/41
f 39/39/39 41/41/41 43/43/43
f 44/44/44 43/43/43 41/41/41
f 41/41/41 45/45/45 44/44/44
f 19/19/19 44/44/44 42/42/42
f 36/36/36 46/46/46 42/42/42
f 46/46/46 48/48/48 47/47/47
f 49/49/49 14/14/14 34/34/34
f 49/49/49 50/50/50 14/14/14
f 11/11/11 14/14/14 50/50/50
f 53/53/53 52/52/52 51/51/51
f 54/54/54 51/51/51 52/52/52
f 54/54/54 55/55/55 51/51/51
f 56/56/56 51/51/51 55/55/55
f 51/51/51 57/57/57 53/53/53
f 57/57/57 51/51/51 56/56/56
f 58/58/58 53/53/53 57/57/57
f 59/59/59 57/57/57 56/56/56
f 59/59/59 60/60/60 57/57/57
f 63/63/63 62/62/62 61/61/61
f 64/64/64 61/61/61 62/62/62
f 61/61/61 65/65/65 63/63/63
f 66/66/66 63/63/63 65/65/65
f 64/64/64 67/67/67 61/61/61
f 68/68/68 61/61/61 67/67/67
f 61/61/61 68/68/68 69/69/69
f 71/71/71 69/69/69 70/70/70
f 74/74/74 73/73/73 72/72/72
f 75/75/75 72/72/72 73/73/73
f 74/74/74 76/76/76 73/73/73
f 77/77/77 73/73/73 76/76/76
f 77/77/77 76/76/76 78/78/78
f 72/72/72 79/79/79 74/74/74
f 80/80/80 74/74/74 79/79/79
f 80/80/80 81/81/81 74/74/74
f 76/76/76 74/74/74 81/81/81
f 81/81/81 82/82/82 76/76/76
f 83/83/83 76/76/76 82/82/82
f 83/83/83 84/84/84 76/76/76
f 72/72/72 75/75/75 85/85/85
f 85/85/85 86/86/86 72/72/72
f 87/87/87 72/72/72 86/86/86
f 86/86/86 85/85/85 88/88/88
f 89/89/89 88/88/88 85/85/85
f 85/85/85 90/90/90 89/89/89
f 90/90/90 85/85/85 75/75/75
f 91/91/91 89/89/89 90/90/90
f 90/90/90 93/93/93 92/92/92
f 95/95/95 93/93/93 94/94/94
f 95/95/95 96/96/96 93/93/93
f 94/94/94 93/93/93 97/97/97
f 94/94/94 97/97/97 98/98/98
f 99/99/99 98/98/98 97/97/97
f 100/100/100 98/98/98 99/99/99
f 102/102/102 98/98/98 101/101/101
f 102/102/102 94/94/94 103/103/103
f 104/104/104 94/94/94 102/102/102
f 104/104/104 105/105/105 95/95/95
f 106/106/106 95/95/95 105/105/105
f 102/102/102 107/107/107 104/104/104
f 108/108/108 104/104/104 107/107/107
f 104/104/104 95/95/95 109/109/109
f 111/111/111 110/110/110 98/98/98
f 114/114/114 113/113/113 112/112/112
f 115/115/115 112/112/112 113/113/113
f 114/114/114 116/116/116 113/113/113
f 117/117/117 113/113/113 116/116/116
f 113/113/113 118/118/118 115/115/115
f 113/113/113 119/119/119 118/118/118
f 120/120/120 118/118/118 119/119/119
f 118/118/118 121/121/121 115/115/115
f 122/122/122 121/121/121 118/118/118
f 125/125/125 124/124/124 123/123/123
f 126/126/126 123/123/123 124/124/124
f 123/123/123 126/126/126 127/127/127
f 128/128/128 127/127/127 126/126/126
f 124/124/124 129/129/129 126/126/126
f 130/130/130 126/126/126 129/129/129
f 126/126/126 130/130/130 131/131/131
f 132/132/132 131/131/131 130/130/130
f 132/132/132 133/133/133 128/128/128
f 133/133/133 132/132/132 134/134/134
f 130/130/130 134/134/134 135/135/135
f 136/136/136 128/128/128 133/133/133
f 134/134/134 137/137/137 133/133/133
f 134/134/134 138/138/138 137/137/137
f 138/138/138 134/134/134 129/129/129
f 139/139/139 137/137/137 138/138/138
f 139/139/139 140/140/140 137/137/137
f 141/141/141 137/137/137 140/140/140
f 129/129/129 142/142/142 138/138/138
f 143/143/143 138/138/138 142/142/142
f 138/138/138 143/143/143 139/139/139
f 144/144/144 140/140/140 139/139/139
f 144/144/144 145/145/145 140/140/140
f 141/141/141 146/146/146 137/137/137
f 147/147/147 146/146/146 141/141/141
f 148/148/148 137/137/137 146/146/146
f 133/133/133 148/148/148 136/136/136
f 148/148/148 146/146/146 149/149/149
f 149/149/149 146/146/146 150/150/150
f 147/147/147 151/151/151 150/150/150
f 151/151/151 147/147/147 141/141/141
f 152/152/152 151/151/151 141/141/141
f 140/140/140 152/152/152 141/141/141
f 151/151/151 152/152/152 153/153/153
f 154/154/154 153/153/153 152/152/152
f 155/155/155 150/150/150 151/151/151
f 157/157/157 150/150/150 156/156/156
f 159/159/159 158/158/158 154/154/154
f 162/162/162 161/161/161 160/160/160
f 163/163/163 160/160/160 161/161/161
f 75/75/75 165/165/165 164/164/164
f 166/166/166 75/75/75 164/164/164
f 169/169/169 168/168/168 167/167/167
f 171/171/171 167/167/167 170/170/170
f 174/174/174 173/173/173 172/172/172
f 177/177/177 176/176/176 175/175/175
f 178/178/178 133/133/133 137/137/137
f 130/130/130 179/179/179 134/134/134
f 180/180/180 139/139/139 143/143/143
f 183/183/183 182/182/182 181/181/181
f 186/186/186 185/185/185 184/184/184
f 187/187/187 184/184/184 185/185/185
f 187/187/187 188/188/188 184/184/184
f 189/189/189 184/184/184 188/188/188
f 192/192/192 191/191/191 190/190/190
f 193/193/193 190/190/190 191/191/191
f 192/192/192 194/194/194 191/191/191
f 195/195/195 191/191/191 194/194/194
f 198/198/198 197/197/197 196/196/196
f 199/199/199 196/196/196 197/197/197
f 196/196/196 200/200/200 198/198/198
f 201/201/201 198/198/198 200/200/200
f 197/197/197 198/198/198 202/202/202
f 203/203/203 202/202/202 198/198/198
f 198/198/198 201/201/201 203/203/203
f 204/204/204 203/203/203 201/201/201
f 203/203/203 204/204/204 205/205/205
f 206/206/206 205/205/205 204/204/204
f 202/202/202 207/207/207 197/197/197
f 207/207/207 202/202/202 205/205/205
f 205/205/205 208/208/208 207/207/207
f 205/205/205 206/206/206 208/208/208
f 209/209/209 207/207/207 208/208/208
f 209/209/209 208/208/208 210/210/210
f 211/211/211 210/210/210 208/208/208
f 212/212/212 197/197/197 207/207/207
f 207/207/207 209/209/209 212/212/212
f 213/213/213 206/206/206 201/201/201
f 210/210/210 214/214/214 209/209/209
f 214/214/214 210/210/210 215/215/215
f 211/211/211 208/208/208 216/216/216
f 216/216/216 217/217/217 211/211/211
f 218/218/218 216/216/216 208/208/208
f 218/218/218 208/208/208 206/206/206
f 206/206/206 213/213/213 218/218/218
f 216/216/216 218/218/218 219/219/219
f 220/220/220 212/212/212 209/209/209
f 221/221/221 218/218/218 213/213/213
f 221/221/221 222/222/222 216/216/216
f 223/223/223 210/210/210 211/211/211
f 224/224/224 223/223/223 211/211/211
f 217/217/217 224/224/224 211/211/211
f 224/224/224 225/225/225 223/223/223
f 226/226/226 223/223/223 225/225/225
f 217/217/217 227/227/227 224/224/224
f 228/228/228 224/224/224 227/227/227
f 230/230/230 229/229/229 227/227/227
f 232/232/232 226/226/226 231/231/231
f 235/235/235 234/234/234 233/233/233
f 237/237/237 236/236/236 234/234/234
f 240/240/240 239/239/239 238/238/238
f 241/241/241 238/238/238 239/239/239
f 239/239/239 240/240/240 242/242/242
f 243/243/243 242/242/242 240/240/240
f 245/245/245 244/244/244 243/243/243
f 248/248/248 247/247/247 246/246/246
f 251/251/251 250/250/250 249/249/249
f 252/252/252 249/249/249 250/250/250
f 255/255/255 254/254/254 253/253/253
f 253/253/253 254/254/254 256/256/256
f 259/259/259 258/258/258 257/257/257
f 261/261/261 260/260/260 258/258/258
f 264/264/264 263/263/263 262/262/262
f 203/203/203 205/205/205 265/265/265
f 268/268/268 267/267/267 266/266/266
f 269/269/269 266/266/266 267/267/267
f 268/268/268 266/266/266 270/270/270
f 271/271/271 270/270/270 266/266/266
f 274/274/274 273/273/273 272/272/272
f 275/275/275 272/272/272 273/273/273
f 274/274/274 276/276/276 273/273/273
f 277/277/277 273/273/273 276/276/276
f 273/273/273 278/278/278 275/275/275
f 273/273/273 277/277/277 278/278/278
f 279/279/279 275/275/275 278/278/278
f 275/275/275 279/279/279 280/280/280
f 281/281/281 280/280/280 279/279/279
f 280/280/280 281/281/281 282/282/282
f 282/282/282 283/283/283 280/280/280
f 284/284/284 280/280/280 283/283/283
f 272/272/272 275/275/275 284/284/284
f 280/280/280 284/284/284 275/275/275
f 282/282/282 285/285/285 283/283/283
f 286/286/286 283/283/283 285/285/285
f 286/286/286 285/285/285 287/287/287
f 288/288/288 287/287/287 285/285/285
f 289/289/289 282/282/282 281/281/281
f 289/289/289 290/290/290 282/282/282
f 285/285/285 282/282/282 290/290/290
f 276/276/276 291/291/291 277/277/277
f 292/292/292 277/277/277 291/291/291
f 277/277/277 292/292/292 293/293/293
f 294/294/294 293/293/293 292/292/292
f 294/294/294 292/292/292 295/295/295
f 296/296/296 295/295/295 292/292/292
f 292/292/292 291/291/291 296/296/296
f 297/297/297 296/296/296 291/291/291
f 290/290/290 298/298/298 285/285/285
f 288/288/288 285/285/285 299/299/299
f 296/296/296 297/297/297 300/300/300
f 300/300/300 301/301/301 296/296/296
f 302/302/302 296/296/296 301/301/301
f 303/303/303 300/300/300 297/297/297
f 293/293/293 278/278/278 277/277/277
f 301/301/301 305/305/305 304/304/304
f 306/306/306 304/304/304 305/305/305
f 306/306/306 307/307/307 304/304/304
f 308/308/308 304/304/304 307/307/307
f 304/304/304 310/310/310 309/309/309
f 311/311/311 309/309/309 310/310/310
f 309/309/309 312/312/312 304/304/304
f 313/313/313 304/304/304 312/312/312
f 303/303/303 315/315/315 314/314/314
f 316/316/316 314/314/314 315/315/315
f 316/316/316 317/317/317 314/314/314
f 318/318/318 314/314/314 317/317/317
f 319/319/319 317/317/317 316/316/316
f 315/315/315 319/319/319 316/316/316
f 317/317/317 319/319/319 320/320/320
f 319/319/319 321/321/321 320/320/320
f 317/317/317 320/320/320 322/322/322
f 323/323/323 322/322/322 320/320/320
f 323/323/323 320/320/320 324/324/324
f 321/321/321 274/274/274 320/320/320
f 319/319/319 325/325/325 291/291/291
f 327/327/327 291/291/291 326/326/326
f 328/328/328 327/327/327 326/326/326
f 319/319/319 330/330/330 329/329/329
f 332/332/332 331/331/331 330/330/330
f 324/324/324 331/331/331 276/276/276
f 335/335/335 334/334/334 333/333/333
f 336/336/336 333/333/333 334/334/334
f 334/334/334 337/337/337 336/336/336
f 338/338/338 336/336/336 337/337/337
f 334/334/334 340/340/340 339/339/339
f 341/341/341 339/339/339 340/340/340
f 339/339/339 342/342/342 334/334/334
f 343/343/343 334/334/334 342/342/342
f 346/346/346 345/345/345 344/344/344
f 346/346/346 286/286/286 345/345/345
f 348/348/348 344/344/344 347/347/347
f 349/349/349 344/344/344 348/348/348
f 347/347/347 351/351/351 350/350/350
f 352/352/352 347/347/347 350/350/350
f 352/352/352 350/350/350 353/353/353
f 354/354/354 353/353/353 350/350/350
f 350/350/350 355/355/355 354/354/354
f 356/356/356 354/354/354 355/355/355
f 356/356/356 355/355/355 286/286/286
f 352/352/352 357/357/357 347/347/347
f 357/357/357 358/358/358 347/347/347
f 357/357/357 359/359/359 358/358/358
f 272/272/272 358/358/358 359/359/359
f 357/357/357 352/352/352 360/360/360
f 361/361/361 360/360/360 352/352/352
f 364/364/364 363/363/363 362/362/362
f 365/365/365 362/362/362 363/363/363
f 364/364/364 362/362/362 366/366/366
f 367/367/367 366/366/366 362/362/362
f 362/362/362 368/368/368 367/367/367
f 368/368/368 362/362/362 369/369/369
f 370/370/370 369/369/369 362/362/362
f 371/371/371 367/367/367 368/368/368
f 371/371/371 372/372/372 367/367/367
f 371/371/371 373/373/373 372/372/372
f 374/374/374 372/372/372 373/373/373
f 372/372/372 374/374/374 375/375/375
f 376/376/376 375/375/375 374/374/374
f 379/379/379 378/378/378 377/377/377
f 380/380/380 377/377/377 378/378/378
f 377/377/377 381/381/381 379/379/379
f 382/382/382 379/379/379 381/381/381
f 381/381/381 383/383/383 382/382/382
f 384/384/384 382/382/382 383/383/383
f 384/384/384 383/383/383 385/385/385
f 386/386/386 385/385/385 383/383/383
f 378/378/378 379/379/379 387/387/387
f 388/388/388 387/387/387 379/379/379
f 379/379/379 382/382/382 388/388/388
f 385/385/385 389/389/389 384/384/384
f 389/389/389 385/385/385 390/390/390
f 391/391/391 390/390/390 385/385/385
f 392/392/392 384/384/384 389/389/389
f 392/392/392 393/393/393 384/384/384
f 382/382/382 384/384/384 393/393/393
f 393/393/393 388/388/388 382/382/382
f 386/386/386 394/394/394 385/385/385
f 391/391/391 385/385/385 394/394/394
f 397/397/397 396/396/396 395/395/395
f 398/398/398 395/395/395 396/396/396
f 396/396/396 399/399/399 398/398/398
f 400/400/400 398/398/398 399/399/399
f 401/401/401 398/398/398 400/400/400
f 400/400/400 402/402/402 401/401/401
f 403/403/403 401/401/401 402/402/402
f 401/401/401 403/403/403 404/404/404
f 405/405/405 404/404/404 403/403/403
f 405/405/405 403/403/403 406/406/406
f 407/407/407 406/406/406 403/403/403
f 402/402/402 408/408/408 403/403/403
f 407/407/407 403/403/403 408/408/408
f 411/411/411 410/410/410 409/409/409
f 412/412/412 409/409/409 410/410/410
f 409/409/409 412/412/412 413/413/413
f 409/409/409 413/413/413 414/414/414
f 409/409/409 414/414/414 415/415/415
f 416/416/416 415/415/415 414/414/414
f 417/417/417 414/414/414 413/413/413
f 419/419/419 418/418/418 412/412/412
f 422/422/422 421/421/421 420/420/420
f 423/423/423 421/421/421 422/422/422
f 425/425/425 420/420/420 424/424/424
f 425/425/425 426/426/426 420/420/420
f 428/428/428 426/426/426 427/427/427
f 430/430/430 427/427/427 429/429/429
f 430/430/430 429/429/429 431/431/431
f 427/427/427 430/430/430 432/432/432
f 433/433/433 432/432/432 430/430/430
f 433/433/433 430/430/430 431/431/431
f 433/433/433 431/431/431 434/434/434
f 434/434/434 431/431/431 435/435/435
f 434/434/434 435/435/435 436/436/436
f 434/434/434 436/436/436 433/433/433
f 377/377/377 436/436/436 435/435/435
f 437/437/437 433/433/433 436/436/436
f 439/439/439 438/438/438 426/426/426
f 440/440/440 439/439/439 426/426/426
f 442/442/442 441/441/441 286/286/286
f 445/445/445 444/444/444 443/443/443
f 448/448/448 447/447/447 446/446/446
f 451/451/451 450/450/450 449/449/449
f 452/452/452 449/449/449 450/450/450
f 452/452/452 450/450/450 453/453/453
f 454/454/454 453/453/453 450/450/450
f 457/457/457 456/456/456 455/455/455
f 458/458/458 455/455/455 456/456/456
f 455/455/455 458/458/458 459/459/459
f 460/460/460 459/459/459 458/458/458
f 456/456/456 461/461/461 458/458/458
f 462/462/462 458/458/458 461/461/461
f 458/458/458 462/462/462 460/460/460
f 463/463/463 460/460/460 462/462/462
f 461/461/461 456/456/456 464/464/464
f 465/465/465 464/464/464 456/456/456
f 464/464/464 466/466/466 461/461/461
f 467/467/467 463/463/463 466/466/466
f 462/462/462 466/466/466 468/468/468
f 466/466/466 464/464/464 469/469/469
f 466/466/466 469/469/469 467/467/467
f 470/470/470 469/469/469 464/464/464
f 464/464/464 465/465/465 470/470/470
f 470/470/470 471/471/471 469/469/469
f 472/472/472 469/469/469 471/471/471
f 473/473/473 467/467/467 460/460/460
f 474/474/474 460/460/460 467/467/467
f 475/475/475 471/471/471 470/470/470
f 475/475/475 476/476/476 471/471/471
f 472/472/472 477/477/477 469/469/469
f 478/478/478 477/477/477 472/472/472
f 478/478/478 479/479/479 477/477/477
f 480/480/480 477/477/477 479/479/479
f 481/481/481 477/477/477 480/480/480
f 481/481/481 469/469/469 477/477/477
f 481/481/481 467/467/467 469/469/469
f 467/467/467 481/481/481 474/474/474
f 478/478/478 482/482/482 479/479/479
f 482/482/482 478/478/478 472/472/472
f 483/483/483 482/482/482 472/472/472
f 471/471/471 483/483/483 472/472/472
f 483/483/483 471/471/471 484/484/484
f 482/482/482 483/483/483 485/485/485
f 484/484/484 485/485/485 483/483/483
f 486/486/486 479/479/479 482/482/482
f 487/487/487 474/474/474 481/481/481
f 490/490/490 489/489/489 488/488/488
f 492/492/492 491/491/491 489/489/489
f 495/495/495 494/494/494 493/493/493
f 496/496/496 493/493/493 494/494/494
f 494/494/494 497/497/497 496/496/496
f 498/498/498 496/496/496 497/497/497
f 500/500/500 499/499/499 498/498/498
f 503/503/503 502/502/502 501/501/501
f 504/504/504 501/501/501 502/502/502
f 507/507/507 506/506/506 505/505/505
f 510/510/510 509/509/509 508/508/508
f 512/512/512 511/511/511 510/510/510
f 515/515/515 514/514/514 513/513/513
f 462/462/462 516/516/516 466/466/466
f 517/517/517 470/470/470 465/465/465
f 520/520/520 519/519/519 518/518/518
f 521/521/521 518/518/518 519/519/519
f 521/521/521 522/522/522 518/518/518
f 523/523/523 518/518/518 522/522/522
f 526/526/526 525/525/525 524/524/524
