g blue_mag_m_pve_3_hand_r
v -0.673227966 0.125626996 1.17702198
v -0.57526499 0.141436994 1.19686794
v -0.61510998 0.127287 1.23612702
v -0.617685974 0.145205006 1.13377893
v -0.637587965 0.0908600017 1.26256502
v -0.698695958 0.0831019953 1.20891702
v -0.700553954 0.0211899988 1.22913802
v -0.640802979 0.042146001 1.27638602
v -0.680496991 -0.0307679996 1.22844899
v -0.528979003 0.123574995 1.16676497
v -0.560808003 0.123410992 1.09872496
v -0.525089979 0.0767469928 1.08610499
v -0.495480984 0.0841969922 1.15878701
v -0.508138001 0.0154089993 1.09256303
v -0.482962966 0.0333609991 1.16478503
v -0.354546994 0.0910639912 1.35249603
v -0.367260009 0.139527991 1.34667492
v -0.401046962 0.180156991 1.35728502
v -0.445105016 0.195036992 1.38208997
v -0.488283992 0.183325008 1.41615593
v -0.513324976 0.14634499 1.44341195
v -0.515284956 0.0970650017 1.46061003
v -0.624370992 0.00102700002 1.27791798
v -0.680496991 -0.0307679996 1.22844899
v -0.644697011 -0.0690439939 1.21296692
v -0.50256598 0.0591219999 1.46067595
v -0.474464983 0.0265939999 1.45245409
v -0.596094966 -0.0309590008 1.26571095
v -0.644697011 -0.0690439939 1.21296692
v -0.60167098 -0.086183995 1.18981397
v -0.558544993 -0.048117999 1.24121797
v -0.60167098 -0.086183995 1.18981397
v -0.521477997 -0.0415619984 1.21438003
v -0.555191994 -0.0789609998 1.15298998
v -0.492417961 -0.0115449997 1.18602097
v -0.517498016 -0.0361969993 1.11424696
v -0.508138001 0.0154089993 1.09256303
v -0.482962966 0.0333609991 1.16478503
v -0.394110978 0.0124479998 1.40015388
v -0.363310993 0.0460729972 1.37129891
v -0.354546994 0.0910639912 1.35249603
v -0.434062004 0.0079799993 1.42824793
v -0.394110978 0.0124479998 1.40015388
v -0.375027984 0.0547900014 1.37832105
v -0.363310993 0.0460729972 1.37129891
v -0.400941998 0.0296659991 1.40348208
v -0.354546994 0.0910639912 1.35249603
v -0.366842002 0.0951679945 1.36076093
v -0.367260009 0.139527991 1.34667492
v -0.37885201 0.135325 1.35714698
v -0.401046962 0.180156991 1.35728502
v -0.409030974 0.169094995 1.36793101
v -0.444104999 0.181688994 1.38698804
v -0.445105016 0.195036992 1.38208997
v -0.488283992 0.183325008 1.41615593
v -0.479194969 0.167681992 1.41649199
v -0.434062004 0.0079799993 1.42824793
v -0.434192985 0.0243289992 1.42779398
v -0.468857974 0.0415990017 1.44668102
v -0.474464983 0.0265939999 1.45245409
v -0.489336997 0.0674569979 1.45318401
v -0.50256598 0.0591219999 1.46067595
v -0.515284956 0.0970650017 1.46061003
v -0.500608981 0.100223996 1.45126688
v -0.414576977 0.164705008 1.37315202
v -0.447715968 0.164606988 1.40491998
v -0.443417996 0.150396004 1.39775491
v -0.416931003 0.158585995 1.36895001
v -0.389516979 0.138892993 1.35750794
v -0.396930009 0.139961004 1.35768008
v -0.373548985 0.0990340039 1.35223007
v -0.382831007 0.100459993 1.36082995
v -0.457878977 0.123682 1.42425001
v -0.465533972 0.131779999 1.43570006
v -0.463303983 0.084092997 1.44546998
v -0.475589961 0.0901829973 1.45413184
v -0.458216012 0.0509949997 1.45381999
v -0.457405984 0.0633659959 1.44626009
v -0.392742991 0.0686289966 1.38038993
v -0.382999986 0.0669649988 1.37421
v -0.419055998 0.0478789993 1.40768003
v -0.403151006 0.0410639979 1.40457988
v -0.431496978 0.0444139987 1.42159998
v -0.432994008 0.0330640003 1.43483984
v -0.444518983 0.046203997 1.43824005
v -0.499239981 0.136429995 1.43940794
v -0.513324976 0.14634499 1.44341195
v -0.515284956 0.0970650017 1.46061003
v -0.488283992 0.183325008 1.41615593
v -0.513324976 0.14634499 1.44341195
v -0.656373978 0.0934749991 1.17162204
v -0.698695958 0.0831019953 1.20891702
v -0.675544977 0.0583849996 1.19500399
v -0.673227966 0.125626996 1.17702198
v -0.602393985 0.101444997 1.21169698
v -0.612496972 0.0756810009 1.22470999
v -0.674131989 0.0206399988 1.20520496
v -0.700553954 0.0211899988 1.22913802
v -0.608889997 0.0446779989 1.227898
v -0.660026968 -0.0123279998 1.20525897
v -0.680496991 -0.0307679996 1.22844899
v -0.597425997 0.0157260001 1.23080301
v -0.579916 -0.00180899992 1.22695291
v -0.632578015 -0.0403349996 1.19474494
v -0.680496991 -0.0307679996 1.22844899
v -0.644697011 -0.0690439939 1.21296692
v -0.599206984 -0.0540460013 1.1767379
v -0.644697011 -0.0690439939 1.21296692
v -0.60167098 -0.086183995 1.18981397
v -0.55852598 -0.00758299977 1.21565497
v -0.567952991 -0.0459829979 1.15193903
v -0.555191994 -0.0789609998 1.15298998
v -0.54559499 0.00728999963 1.19639397
v -0.542860985 -0.0191319995 1.12669289
v -0.517498016 -0.0361969993 1.11424696
v -0.54559499 0.00728999963 1.19639397
v -0.537641943 0.0198640004 1.18866992
v -0.508138001 0.0154089993 1.09256303
v -0.537155986 0.019576 1.11172891
v -0.525089979 0.0767469928 1.08610499
v -0.547215998 0.0616419986 1.10581994
v -0.531982958 0.0405639969 1.18070388
v -0.541404963 0.0728459954 1.177724
v -0.617685974 0.145205006 1.13377893
v -0.614426017 0.112144999 1.13912594
v -0.560808003 0.123410992 1.09872496
v -0.575614989 0.0981239974 1.11468804
v -0.562896967 0.0945539996 1.181916
v -0.525089979 0.0767469928 1.08610499
v -0.547215998 0.0616419986 1.10581994
v -0.541404963 0.0728459954 1.177724
v -0.556324959 -0.00805199984 1.18798995
v -0.54559499 0.00728999963 1.19639397
v -0.543742955 0.0098890001 1.17474997
v -0.55852598 -0.00758299977 1.21565497
v -0.531982958 0.0405639969 1.18070388
v -0.547203004 0.0378290005 1.16013002
v -0.556450009 0.0667920038 1.15631998
v -0.541404963 0.0728459954 1.177724
v -0.546492994 -0.0138139995 1.13861001
v -0.560682952 -0.0382039994 1.16136003
v -0.549239993 -0.0380609967 1.12540996
v -0.561841965 -0.0625229999 1.14039004
v -0.56515801 0.0228029992 1.11179996
v -0.579207003 0.0744000003 1.1168499
v -0.605031013 0.106599994 1.12933993
v -0.586241961 0.0975249931 1.16162002
v -0.541404963 0.0728459954 1.177724
v -0.562896967 0.0945539996 1.181916
v -0.64161396 0.0924540013 1.07025003
v -0.620279968 0.0661999956 1.06813002
v -0.61323601 0.0370259993 1.07380998
v -0.607836008 0.00181799987 1.07577002
v -0.647213936 -0.0146049997 1.02672994
v -0.653608024 0.00903499965 1.02314997
v -0.60444802 -0.0266309995 1.0769999
v -0.582277 -0.0249659978 1.08341002
v -0.63479501 -0.0431379974 1.03689003
v -0.646829009 -0.0250789989 1.03019989
v -0.615309954 -0.0479109995 1.08998001
v -0.602690995 -0.0463950001 1.08876991
v -0.582277 -0.0249659978 1.08341002
v -0.635550976 -0.0540530011 1.07493997
v -0.648146987 -0.0627779961 1.05219996
v -0.656147957 0.0189379994 1.02259004
v -0.658675969 0.0404050015 1.02178001
v -0.666521966 0.0519849993 1.02587998
v -0.686482012 0.0423050001 1.03261995
v -0.684049964 0.00748099945 1.0352
v -0.675506949 -0.0237130001 1.03904998
v -0.646829009 -0.0250789989 1.03019989
v -0.665143967 0.069619 1.02883005
v -0.665143967 0.069619 1.02883005
v -0.682554007 0.0833279938 1.03803003
v -0.672617018 0.0923900008 1.05339992
v -0.562896967 0.0945539996 1.181916
v -0.615845978 0.102916002 1.17578006
v -0.586241961 0.0975249931 1.16162002
v -0.634550989 0.102867998 1.1485399
v -0.646835983 0.0704120025 1.17341995
v -0.627605021 0.0717649981 1.19476998
v -0.637215972 0.0328999981 1.17998004
v -0.617211998 0.0373359993 1.20632792
v -0.685294032 0.0681120008 1.11468995
v -0.669375956 0.096122995 1.09440994
v -0.682622969 0.0328529999 1.12285995
v -0.628804982 0.00207099994 1.18327999
v -0.672063947 -0.011217 1.12909997
v -0.635847986 -0.0489719994 1.12633002
v -0.597876966 -0.0267519988 1.18043995
v -0.605458975 -0.0600309968 1.12916994
v -0.579936981 -0.0384400003 1.17351997
v -0.584555984 -0.074510999 1.14408994
v -0.561841965 -0.0625229999 1.14039004
v -0.560682952 -0.0382039994 1.16136003
v -0.705609977 0.0526039973 1.07552993
v -0.693247974 0.0819789991 1.06009996
v -0.64161396 0.0924540013 1.07025003
v -0.605031013 0.106599994 1.12933993
v -0.704616964 0.0466900021 1.05586994
v -0.701903999 0.0163310003 1.08156002
v -0.700366974 0.00988299958 1.06077003
v -0.689616978 -0.0286539998 1.06954002
v -0.691220999 -0.0241149999 1.08945
v -0.658576965 -0.0548699982 1.08077002
v -0.687766016 -0.0355429985 1.05634999
v -0.672060013 -0.0595319979 1.06004
v -0.676166952 -0.0668240041 1.01622999
v -0.691031992 -0.0450679995 1.01337993
v -0.699774027 -0.0547189973 0.985044003
v -0.685662985 -0.0768089965 0.988109946
v -0.696119964 -0.0847679973 0.958059013
v -0.706176996 -0.0660559982 0.954403996
v -0.656584024 -0.0684060007 1.01125002
v -0.667030036 -0.0785299987 0.983509958
v -0.648146987 -0.0627779961 1.05219996
v -0.635550976 -0.0540530011 1.07493997
v -0.615309954 -0.0479109995 1.08998001
v -0.678261042 -0.0323759988 1.00549006
v -0.675506949 -0.0237130001 1.03904998
v -0.687021017 -0.0415920019 0.977123022
v -0.692799985 -0.0540219992 0.946468949
v -0.679135978 -0.0836480036 0.952152014
v -0.562896967 0.0945539996 1.181916
v -0.602393985 0.101444997 1.21169698
v -0.612496972 0.0756810009 1.22470999
v -0.608889997 0.0446779989 1.227898
v -0.597425997 0.0157260001 1.23080301
v -0.602440953 0.0127719995 1.20539904
v -0.578077972 -0.00992099941 1.20247996
v -0.556324959 -0.00805199984 1.18798995
v -0.579916 -0.00180899992 1.22695291
v -0.55852598 -0.00758299977 1.21565497
v -0.556324959 -0.00805199984 1.18798995
v -0.64161396 0.0924540013 1.07025003
v -0.672617018 0.0923900008 1.05339992
v -0.701448977 0.0765779987 1.04589999
v -0.682554007 0.0833279938 1.03803003
v -0.704128027 0.0701119974 1.00045991
v -0.704697013 0.0434259959 1.00294995
v -0.708080947 0.0647720024 0.979764998
v -0.688089967 0.0739369988 0.996074975
v -0.694657981 0.0691870004 0.974896014
v -0.708889961 0.0388309993 0.982335925
v -0.703685999 0.0498559996 1.04611003
v -0.703405976 0.0406230018 1.04499996
v -0.686845005 0.0476919971 1.03228998
v -0.686482012 0.0423050001 1.03261995
v -0.686392963 0.0362689979 1.00115001
v -0.700364947 0.0123249991 1.04701996
v -0.699298978 0.00469500013 0.996475935
v -0.703832984 0.0331019983 0.993582964
v -0.704330981 -0.000729999971 0.972150981
v -0.709124982 0.0271509998 0.968647957
v -0.693058968 0.035726998 0.963905036
v -0.68582195 0.0414729975 0.989488959
v -0.680325985 0.001391 0.994210958
v -0.684049964 0.00748099945 1.0352
v -0.69856298 0.0240899995 0.935912967
v -0.710483968 0.0191339999 0.941103935
v -0.706708968 -0.00301299989 0.943755984
v -0.687231958 -0.00323799998 0.968832016
v -0.693934023 -0.00423400011 0.939100027
v -0.706708968 -0.00301299989 0.943755984
v -0.699953973 0.00309100002 1.04866993
v -0.684049964 0.00748099945 1.0352
v -0.691430926 -0.0244289991 1.05279994
v -0.704461932 -0.00575699983 0.999652028
v -0.694989979 -0.0349709988 1.00425994
v -0.673729002 -0.03675 0.997461975
v -0.673262 -0.0286330003 1.04022002
v -0.68256104 -0.0442590006 0.966785967
v -0.703159034 -0.0417619981 0.974542975
v -0.686448932 0.00655899988 0.991985977
v -0.712457955 -0.0129669998 0.969419003
v -0.69529295 -0.00168999995 0.960610926
v -0.713095009 -0.0460809991 0.941964984
v -0.72052598 -0.0230269991 0.937516987
v -0.706309974 -0.0149839995 0.928152978
v -0.713095009 -0.0460809991 0.941964984
v -0.696651995 -0.0466820002 0.932779968
v -0.692799985 -0.0540219992 0.946468949
v -0.696119964 -0.0847679973 0.958059013
v -0.679135978 -0.0836480036 0.952152014
v -0.706176996 -0.0660559982 0.954403996
v -0.664630949 -0.0672100037 0.959805965
v -0.672589004 -0.0491819978 0.956371963
v -0.665569007 -0.0406539999 0.974610984
v -0.655179977 -0.0606859997 0.978314936
v -0.679135978 -0.0836480036 0.952152014
v -0.667030036 -0.0785299987 0.983509958
v -0.652557969 -0.0582539961 0.985426009
v -0.649132967 -0.0534740016 0.999813974
v -0.656584024 -0.0684060007 1.01125002
v -0.663402021 -0.0381680019 0.981854022
v -0.659983993 -0.0346040018 0.997227967
v -0.687021017 -0.0415920019 0.977123022
v -0.678261042 -0.0323759988 1.00549006
v -0.646796048 -0.0512580015 1.00712991
v -0.63479501 -0.0431379974 1.03689003
v -0.648146987 -0.0627779961 1.05219996
v -0.646829009 -0.0250789989 1.03019989
v -0.65763396 -0.0326649994 1.00459993
v -0.646829009 -0.0250789989 1.03019989
v -0.678261042 -0.0323759988 1.00549006
v -0.675506949 -0.0237130001 1.03904998
v -0.692799985 -0.0540219992 0.946468949
v -0.675506949 -0.0237130001 1.03904998
v -0.647213936 -0.0146049997 1.02672994
v -0.673262 -0.0286330003 1.04022002
v -0.647213936 -0.0146049997 1.02672994
v -0.673729002 -0.03675 0.997461975
v -0.673262 -0.0286330003 1.04022002
v -0.657487035 -0.0238179993 0.994213998
v -0.664411008 0.00188199989 0.991026998
v -0.653608024 0.00903499965 1.02314997
v -0.65961796 -0.0257240012 0.986736953
v -0.664366961 -0.0299609993 0.968096972
v -0.68256104 -0.0442590006 0.966785967
v -0.666687965 0.000154999987 0.983554959
v -0.672069013 -0.00455299998 0.963895977
v -0.686448932 0.00655899988 0.991985977
v -0.69529295 -0.00168999995 0.960610926
v -0.685055017 0.0132089993 1.03454006
v -0.667529941 -0.0314420015 0.960978985
v -0.696651995 -0.0466820002 0.932779968
v -0.683206022 -0.0358659998 0.937219977
v -0.688435972 -0.017719999 0.934527934
v -0.706309974 -0.0149839995 0.928152978
v -0.72052598 -0.0230269991 0.937516987
v -0.713095009 -0.0460809991 0.941964984
v -0.675007999 -0.00698099937 0.956947029
v -0.706309974 -0.0149839995 0.928152978
v -0.602690995 -0.0463950001 1.08876991
v -0.635847986 -0.0489719994 1.12633002
v -0.605458975 -0.0600309968 1.12916994
v -0.602690995 -0.0463950001 1.08876991
v -0.615309954 -0.0479109995 1.08998001
v -0.607406974 -0.0694210008 1.10352993
v -0.602690995 -0.0463950001 1.08876991
v -0.603074968 -0.0508129969 1.07953
v -0.607468009 -0.0814900026 1.07755995
v -0.60341996 -0.0547790006 1.07123995
v -0.580685019 -0.051599998 1.06414998
v -0.578105986 -0.0391779989 1.07902992
v -0.562431991 -0.0649449974 1.06829
v -0.553406 -0.0554729961 1.09511995
v -0.561515987 -0.0789529979 1.10815001
v -0.567969024 -0.0909239948 1.07535005
v -0.549239993 -0.0380609967 1.12540996
v -0.561841965 -0.0625229999 1.14039004
v -0.582277 -0.0249659978 1.08341002
v -0.607069969 -0.0656189993 1.05246997
v -0.585144997 -0.0624199994 1.04527998
v -0.590959966 -0.0860029981 1.03471994
v -0.608639002 -0.0882689953 1.03987002
v -0.563894987 -0.0762749985 1.04868996
v -0.576510012 -0.116228998 1.04747999
v -0.570971966 -0.0979559943 1.03769994
v -0.570971966 -0.0979559943 1.03769994
v -0.576510012 -0.116228998 1.04747999
v -0.599561989 -0.116831996 1.05039001
v -0.570971966 -0.0979559943 1.03769994
v -0.607468009 -0.0814900026 1.07755995
v -0.612527013 -0.104579002 1.04854
v -0.599561989 -0.116831996 1.05039001
v -0.602690995 -0.0463950001 1.08876991
v -0.585994005 -0.0783599988 1.11254001
v -0.607468009 -0.0814900026 1.07755995
v -0.607406974 -0.0694210008 1.10352993
v -0.591030002 -0.0906009972 1.07941997
v -0.561515987 -0.0789529979 1.10815001
v -0.567969024 -0.0909239948 1.07535005
v -0.599561989 -0.116831996 1.05039001
v -0.607468009 -0.0814900026 1.07755995
v -0.612527013 -0.104579002 1.04854
v -0.576510012 -0.116228998 1.04747999
v -0.582277 -0.0249659978 1.08341002
v -0.549239993 -0.0380609967 1.12540996
v -0.665143967 0.069619 1.02883005
v -0.671895981 0.0469419993 1.00142992
v -0.666521966 0.0519849993 1.02587998
v -0.686392963 0.0362689979 1.00115001
v -0.686482012 0.0423050001 1.03261995
v -0.673804998 0.045517996 0.993789971
v -0.672881961 0.0652140006 0.998979032
v -0.665143967 0.069619 1.02883005
v -0.674975932 0.0640039966 0.991353989
v -0.688089967 0.0739369988 0.996074975
v -0.678653002 0.0618549995 0.978699028
v -0.694657981 0.0691870004 0.974896014
v -0.693692029 0.0327150002 0.980054021
v -0.677276969 0.0434559993 0.981404006
v -0.680379987 0.042417001 0.97417295
v -0.68197602 0.0600849986 0.971741021
v -0.693476975 0.0542559996 0.955345988
v -0.690440953 0.0404139981 0.957244039
v -0.701084971 0.0336479992 0.954647958
v -0.704533994 0.0590689965 0.952108979
v -0.704533994 0.0590689965 0.952108979
v -0.712076008 0.0370809995 0.959195971
v -0.713877976 0.0568769984 0.957507968
v -0.682554007 0.0833279938 1.03803003
v -0.703685999 0.0498559996 1.04611003
v -0.686845005 0.0476919971 1.03228998
v -0.686482012 0.0423050001 1.03261995
v -0.658675969 0.0404050015 1.02178001
v -0.686482012 0.0423050001 1.03261995
v -0.686845005 0.0476919971 1.03228998
v -0.668445945 0.0338400006 0.991712034
v -0.686845005 0.0476919971 1.03228998
v -0.68582195 0.0414729975 0.989488959
v -0.670590937 0.0322429985 0.984169006
v -0.693058968 0.035726998 0.963905036
v -0.674068987 0.0293249991 0.969963968
v -0.665036023 0.0132050002 0.994044006
v -0.658675969 0.0404050015 1.02178001
v -0.686845005 0.0476919971 1.03228998
v -0.656147957 0.0189379994 1.02259004
v -0.680325985 0.001391 0.994210958
v -0.684049964 0.00748099945 1.0352
v -0.667192996 0.011717 0.986482978
v -0.670869946 0.0089809997 0.972312987
v -0.687231958 -0.00323799998 0.968832016
v -0.676454008 0.0273959991 0.962567985
v -0.673435986 0.00805300009 0.964804947
v -0.681112945 0.00711099943 0.946803927
v -0.683527946 0.0218149982 0.945116997
v -0.69856298 0.0240899995 0.935912967
v -0.693934023 -0.00423400011 0.939100027
v -0.69856298 0.0240899995 0.935912967
v -0.710483968 0.0191339999 0.941103935
v -0.69856298 0.0240899995 0.935912967
v -0.706708968 -0.00301299989 0.943755984
v -0.684049964 0.00748099945 1.0352
v -0.699953973 0.00309100002 1.04866993
v -0.685055017 0.0132089993 1.03454006
v -0.686448932 0.00655899988 0.991985977
v -0.685055017 0.0132089993 1.03454006
v -0.653608024 0.00903499965 1.02314997
v -0.684049964 0.00748099945 1.0352
v -0.685055017 0.0132089993 1.03454006
v -0.686845005 0.0476919971 1.03228998
v -0.693692029 0.0327150002 0.980054021
v -0.712076008 0.0370809995 0.959195971
v -0.701084971 0.0336479992 0.954647958
v -0.712076008 0.0370809995 0.959195971
v -0.713877976 0.0568769984 0.957507968
v -0.704533994 0.0590689965 0.952108979
v -0.673262 -0.0286330003 1.04022002
v -0.687766016 -0.0355429985 1.05634999
v -0.675506949 -0.0237130001 1.03904998
v -0.582277 -0.0249659978 1.08341002
v -0.549239993 -0.0380609967 1.12540996
v -0.657277942 0.0301079974 1.32649589
v -0.743312955 0.00649699988 1.27869499
v -0.738833964 0.0179069992 1.33990598
v -0.65417397 0.0189489983 1.25894296
v -0.576837957 0.0643339977 1.44607794
v -0.540699959 0.0682719946 1.42203391
v -0.803158045 -0.00978299975 1.24628091
v -0.515667975 0.103583001 1.496696
v -0.521652997 0.0950009972 1.45334589
v -0.526408017 0.0739480034 1.44490898
v -0.532696009 0.109252997 1.43878794
v -0.540699959 0.0682719946 1.42203391
v -0.546707988 0.102003999 1.41618502
v -0.65417397 0.0189489983 1.25894296
v -0.660463035 0.0542539954 1.25282204
v -0.743312955 0.00649699988 1.27869499
v -0.749600947 0.0418020003 1.27257299
v -0.80944699 0.0255220011 1.24015999
v -0.803158045 -0.00978299975 1.24628091
v -0.701020956 -0.0558510013 1.25067902
v -0.640774965 -0.0690479949 1.33524597
v -0.694546938 -0.0921959952 1.2569809
v -0.647248983 -0.0327039994 1.32894397
v -0.574504972 -0.020996999 1.32173491
v -0.568031013 -0.0573420003 1.3280369
v -0.494040966 0.0144790001 1.44040596
v -0.494040966 0.0144790001 1.44040596
v -0.470765978 -0.0153239993 1.47046089
v -0.477238983 0.0210209992 1.46415997
v -0.470765978 -0.0153239993 1.47046089
v -0.466102958 0.00624899985 1.47880793
v -0.426514 0.0166529994 1.49814606
v -0.477238983 0.0210209992 1.46415997
v -0.701020956 -0.0558510013 1.25067902
v -0.645253956 -0.0804589987 1.27403498
v -0.651726961 -0.0441139974 1.26773298
v -0.694546938 -0.0921959952 1.2569809
v -0.550576985 -0.0623239987 1.281371
v -0.55704999 -0.0259789992 1.27506995
v -0.458865017 0.0155219994 1.41685188
v -0.437160969 -0.0135019999 1.44644892
v -0.443634987 0.0228429995 1.440148
v -0.432498991 0.00807099976 1.45479596
v -0.426514 0.0166529994 1.49814606
v -0.448552012 0.0234929994 1.46737194
v -0.426514 0.0166529994 1.49814606
v -0.477238983 0.0210209992 1.46415997
v -0.443634987 0.0228429995 1.440148
v -0.647248983 -0.0327039994 1.32894397
v -0.701020956 -0.0558510013 1.25067902
v -0.651726961 -0.0441139974 1.26773298
v -0.55704999 -0.0259789992 1.27506995
v -0.574504972 -0.020996999 1.32173491
v -0.458865017 0.0155219994 1.41685188
v -0.494040966 0.0144790001 1.44040596
v -0.640774965 -0.0690479949 1.33524597
v -0.550576985 -0.0623239987 1.281371
v -0.645253956 -0.0804589987 1.27403498
v -0.568031013 -0.0573420003 1.3280369
v -0.437160969 -0.0135019999 1.44644892
v -0.470765978 -0.0153239993 1.47046089
v -0.694546938 -0.0921959952 1.2569809
v -0.470765978 -0.0153239993 1.47046089
v -0.443149984 -0.00683499966 1.47263002
v -0.426514 0.0166529994 1.49814606
v -0.540699959 0.0682719946 1.42203391
v -0.494040966 0.0144790001 1.44040596
v -0.458865017 0.0155219994 1.41685188
v -0.576837957 0.0643339977 1.44607794
v -0.477238983 0.0210209992 1.46415997
v -0.576837957 0.0643339977 1.44607794
v -0.560012996 0.0721260011 1.46892107
v -0.494040966 0.0144790001 1.44040596
v -0.443634987 0.0228429995 1.440148
v -0.540699959 0.0682719946 1.42203391
v -0.458865017 0.0155219994 1.41685188
v -0.526408017 0.0739480034 1.44490898
v -0.532557964 0.0815229937 1.47093201
v -0.443634987 0.0228429995 1.440148
v -0.448552012 0.0234929994 1.46737194
v -0.526408017 0.0739480034 1.44490898
v -0.448552012 0.0234929994 1.46737194
v -0.560012996 0.0721260011 1.46892107
v -0.532557964 0.0815229937 1.47093201
v -0.477238983 0.0210209992 1.46415997
v -0.663565993 0.0654129982 1.32037508
v -0.749600947 0.0418020003 1.27257299
v -0.660463035 0.0542539954 1.25282204
v -0.745122969 0.0532119982 1.33378494
v -0.546707988 0.102003999 1.41618502
v -0.583405972 0.101211995 1.43968391
v -0.80944699 0.0255220011 1.24015999
v -0.738833964 0.0179069992 1.33990598
v -0.80944699 0.0255220011 1.24015999
v -0.745122969 0.0532119982 1.33378494
v -0.803158045 -0.00978299975 1.24628091
v -0.657277942 0.0301079974 1.32649589
v -0.663565993 0.0654129982 1.32037508
v -0.560012996 0.0721260011 1.46892107
v -0.566300988 0.107431002 1.46279991
v -0.515667975 0.103583001 1.496696
v -0.560012996 0.0721260011 1.46892107
v -0.576837957 0.0643339977 1.44607794
v -0.566300988 0.107431002 1.46279991
v -0.583405972 0.101211995 1.43968391
v -0.515667975 0.103583001 1.496696
v -0.537451982 0.108994998 1.466169
v -0.532696009 0.109252997 1.43878794
v -0.566300988 0.107431002 1.46279991
v -0.72912395 0.101933002 1.22332299
v -0.681825995 0.161424011 1.29528594
v -0.675351977 0.125080004 1.30158794
v -0.735596955 0.138276994 1.21702099
v -0.60908097 0.173131004 1.28807688
v -0.602607965 0.136785999 1.294379
v -0.521952987 0.171189994 1.41323495
v -0.511815965 0.215149 1.43050194
v -0.505341947 0.178803995 1.43680298
v -0.50067997 0.200377002 1.44515002
v -0.461089998 0.210780993 1.46448803
v -0.505341947 0.178803995 1.43680298
v -0.72912395 0.101933002 1.22332299
v -0.686303973 0.150013998 1.23407495
v -0.735596955 0.138276994 1.21702099
v -0.679830968 0.113669001 1.24037695
v -0.591627002 0.168148994 1.24141192
v -0.585152984 0.131803989 1.24771297
v -0.487158984 0.174377993 1.38931
v -0.478210986 0.216970995 1.40648997
v -0.471738011 0.180627003 1.41279089
v -0.46707499 0.202198997 1.42113793
v -0.461089998 0.210780993 1.46448803
v -0.478210986 0.216970995 1.40648997
v -0.471738011 0.180627003 1.41279089
v -0.477726996 0.187292993 1.438972
v -0.461089998 0.210780993 1.46448803
v -0.505341947 0.178803995 1.43680298
v -0.675351977 0.125080004 1.30158794
v -0.679830968 0.113669001 1.24037695
v -0.72912395 0.101933002 1.22332299
v -0.585152984 0.131803989 1.24771297
v -0.602607965 0.136785999 1.294379
v -0.487158984 0.174377993 1.38931
v -0.521952987 0.171189994 1.41323495
v -0.591627002 0.168148994 1.24141192
v -0.681825995 0.161424011 1.29528594
v -0.686303973 0.150013998 1.23407495
v -0.60908097 0.173131004 1.28807688
v -0.478210986 0.216970995 1.40648997
v -0.511815965 0.215149 1.43050194
v -0.735596955 0.138276994 1.21702099
v -0.478210986 0.216970995 1.40648997
v -0.483128011 0.217620999 1.43371391
v -0.461089998 0.210780993 1.46448803
v -0.546707988 0.102003999 1.41618502
v -0.521952987 0.171189994 1.41323495
v -0.583405972 0.101211995 1.43968391
v -0.487158984 0.174377993 1.38931
v -0.583405972 0.101211995 1.43968391
v -0.505341947 0.178803995 1.43680298
v -0.566300988 0.107431002 1.46279991
v -0.521952987 0.171189994 1.41323495
v -0.546707988 0.102003999 1.41618502
v -0.471738011 0.180627003 1.41279089
v -0.487158984 0.174377993 1.38931
v -0.532696009 0.109252997 1.43878794
v -0.471738011 0.180627003 1.41279089
v -0.537451982 0.108994998 1.466169
v -0.477726996 0.187292993 1.438972
v -0.532696009 0.109252997 1.43878794
v -0.566300988 0.107431002 1.46279991
v -0.477726996 0.187292993 1.438972
v -0.537451982 0.108994998 1.466169
v -0.505341947 0.178803995 1.43680298
v -0.560012996 0.0721260011 1.46892107
v -0.515667975 0.103583001 1.496696
v -0.532557964 0.0815229937 1.47093201
v -0.526408017 0.0739480034 1.44490898
vt 0.992399991 0.2685
vt 0.911599994 0.2086
vt 0.909500003 0.270099998
vt 0.987500012 0.201499999
vt 0.911300004 0.324299991
vt 0.992999971 0.32159999
vt 0.993200004 0.381099999
vt 0.914300025 0.378800005
vt 0.994400024 0.431400001
vt 0.908200026 0.147100002
vt 0.982900023 0.136399999
vt 0.976000011 0.0803999975
vt 0.897899985 0.0934000015
vt 0.962199986 0.0194000006
vt 0.888499975 0.0406000018
vt 0.657800019 0.0722000003
vt 0.665099978 0.121699996
vt 0.672800004 0.173899993
vt 0.679099977 0.2245
vt 0.682099998 0.278800011
vt 0.684800029 0.329299986
vt 0.684499979 0.379799992
vt 0.913200021 0.426600009
vt 0.994400024 0.431400001
vt 0.994400024 0.481000006
vt 0.68599999 0.418099999
vt 0.683499992 0.460200012
vt 0.913500011 0.474400014
vt 0.994400024 0.481000006
vt 0.990999997 0.528100014
vt 0.913699985 0.525600016
vt 0.990999997 0.528100014
vt 0.908999979 0.574699998
vt 0.988099992 0.583400011
vt 0.902499974 0.627099991
vt 0.979900002 0.648299992
vt 0.968200028 0.702600002
vt 0.895600021 0.677999973
vt 0.677600026 0.556200027
vt 0.669799984 0.608500004
vt 0.663699985 0.657199979
vt 0.682399988 0.50910002
vt 0.155300006 0.715200007
vt 0.192599997 0.702400029
vt 0.188899994 0.690800011
vt 0.1664 0.723999977
vt 0.226899996 0.685800016
vt 0.227300003 0.6972
vt 0.262899995 0.700699985
vt 0.256900012 0.711300015
vt 0.288199991 0.733399987
vt 0.277200013 0.74059999
vt 0.279300004 0.772499979
vt 0.289999992 0.773800015
vt 0.270500004 0.812099993
vt 0.2597 0.803600013
vt 0.142100006 0.750899971
vt 0.153899997 0.753700018
vt 0.159600005 0.787
vt 0.147300005 0.790099978
vt 0.176699996 0.807099998
vt 0.168200001 0.816999972
vt 0.195600003 0.83160001
vt 0.200800002 0.819400012
vt 0.273099989 0.745100021
vt 0.261299998 0.778100014
vt 0.253199995 0.768599987
vt 0.26789999 0.743499994
vt 0.258599997 0.718999982
vt 0.258300006 0.724300027
vt 0.230599999 0.703700006
vt 0.229100004 0.712599993
vt 0.226999998 0.783200026
vt 0.229200006 0.794799984
vt 0.193800002 0.788299978
vt 0.195099995 0.800199986
vt 0.169400007 0.782400012
vt 0.179900005 0.780700028
vt 0.200200006 0.716899991
vt 0.201700002 0.708299994
vt 0.178499997 0.739899993
vt 0.173800007 0.727599978
vt 0.172999993 0.752099991
vt 0.160899997 0.757200003
vt 0.1699 0.766900003
vt 0.230499998 0.820200026
vt 0.2359 0.832400024
vt 0.195600003 0.83160001
vt 0.270500004 0.812099993
vt 0.2359 0.832400024
vt 0.108400002 0.861400008
vt 0.115400001 0.91839999
vt 0.144099995 0.896099985
vt 0.0772999972 0.880500019
vt 0.152099997 0.810199976
vt 0.172299996 0.830200016
vt 0.181899995 0.914300025
vt 0.169200003 0.947300017
vt 0.198400006 0.843299985
vt 0.219899997 0.920000017
vt 0.220799997 0.955799997
vt 0.227400005 0.84740001
vt 0.25 0.842400014
vt 0.262600005 0.913800001
vt 0.220799997 0.955799997
vt 0.271400005 0.948400021
vt 0.302300006 0.896499991
vt 0.271400005 0.948400021
vt 0.314900011 0.92900002
vt 0.269699991 0.831200004
vt 0.334899992 0.867999971
vt 0.3583 0.894400001
vt 0.286799997 0.81370002
vt 0.359699994 0.828000009
vt 0.391200006 0.838
vt 0.286799997 0.81370002
vt 0.292100012 0.799300015
vt 0.402500004 0.78579998
vt 0.367300004 0.784699976
vt 0.3917 0.724300027
vt 0.363400012 0.740400016
vt 0.29519999 0.777999997
vt 0.291599989 0.744899988
vt 0.0463000014 0.821200013
vt 0.0778999999 0.809599996
vt 0.0317000002 0.757799983
vt 0.065200001 0.759899974
vt 0.133499995 0.766200006
vt 0.0414000005 0.700699985
vt 0.0714000016 0.712000012
vt 0.138600007 0.736699998
vt 0.788500011 0.9278
vt 0.806800008 0.933000028
vt 0.808899999 0.912
vt 0.791199982 0.9551
vt 0.841300011 0.920300007
vt 0.836199999 0.895600021
vt 0.86619997 0.885800004
vt 0.872500002 0.911800027
vt 0.782500029 0.878099978
vt 0.757000029 0.903400004
vt 0.757700026 0.865999997
vt 0.731999993 0.88349998
vt 0.817700028 0.845099986
vt 0.869799972 0.840399981
vt 0.911899984 0.834599972
vt 0.907500029 0.872399986
vt 0.872500002 0.911800027
vt 0.90109998 0.9023
vt 0.895799994 0.765600026
vt 0.864499986 0.7773
vt 0.834699988 0.785099983
vt 0.798500001 0.788600028
vt 0.787899971 0.7245
vt 0.811100006 0.719299972
vt 0.768599987 0.790000021
vt 0.770699978 0.81309998
vt 0.759299994 0.737299979
vt 0.777800024 0.726999998
vt 0.740499973 0.789499998
vt 0.745899975 0.799600005
vt 0.770699978 0.81309998
vt 0.732500017 0.765600026
vt 0.731700003 0.738699973
vt 0.820800006 0.717700005
vt 0.841899991 0.716499984
vt 0.85619998 0.71420002
vt 0.857500017 0.691200018
vt 0.816699982 0.687300026
vt 0.766499996 0.702000022
vt 0.777800024 0.726999998
vt 0.872799993 0.718500018
vt 0.872799993 0.718500018
vt 0.896000028 0.713100016
vt 0.904299974 0.731599987
vt 0.42899999 0.948800027
vt 0.466800004 0.910899997
vt 0.431899995 0.92019999
vt 0.459399998 0.880599976
vt 0.497599989 0.887700021
vt 0.496100008 0.913999975
vt 0.532899976 0.894200027
vt 0.542299986 0.918200016
vt 0.489800006 0.823700011
vt 0.454299986 0.821799994
vt 0.524900019 0.825399995
vt 0.561500013 0.897599995
vt 0.569100022 0.832400024
vt 0.616100013 0.852800012
vt 0.595200002 0.913999975
vt 0.637099981 0.875199974
vt 0.614600003 0.922200024
vt 0.646499991 0.898899972
vt 0.657500029 0.918099999
vt 0.632000029 0.935500026
vt 0.493299991 0.776199996
vt 0.456200004 0.778999984
vt 0.420300007 0.818499982
vt 0.426800013 0.884299994
vt 0.490200013 0.75029999
vt 0.53579998 0.773299992
vt 0.542999983 0.744099975
vt 0.596199989 0.765799999
vt 0.583100021 0.78670001
vt 0.631200016 0.80309999
vt 0.612800002 0.754000008
vt 0.639900029 0.777899981
vt 0.677299976 0.74940002
vt 0.66140002 0.726199985
vt 0.688799977 0.710300028
vt 0.702499986 0.73089999
vt 0.726700008 0.711600006
vt 0.715699971 0.694500029
vt 0.690699995 0.764999986
vt 0.712800026 0.745800018
vt 0.66079998 0.792400002
vt 0.65109998 0.816500008
vt 0.655300021 0.841499984
vt 0.653199971 0.707599998
vt 0.62379998 0.72359997
vt 0.679499984 0.693899989
vt 0.706900001 0.678200006
vt 0.737100005 0.725000024
vt 0.42899999 0.948800027
vt 0.467700005 0.933200002
vt 0.496499985 0.94690001
vt 0.52609998 0.949999988
vt 0.546899974 0.957300007
vt 0.563199997 0.925499976
vt 0.582499981 0.943099976
vt 0.606299996 0.958199978
vt 0.554099977 0.967599988
vt 0.599900007 0.977100015
vt 0.606299996 0.958199978
vt 0.420300007 0.818499982
vt 0.434899986 0.788800001
vt 0.453000009 0.761500001
vt 0.434300005 0.770099998
vt 0.421799988 0.730799973
vt 0.43689999 0.710699975
vt 0.408300012 0.716700017
vt 0.409799993 0.740499973
vt 0.398200005 0.724900007
vt 0.421299994 0.698300004
vt 0.480100006 0.741299987
vt 0.491699994 0.731700003
vt 0.473100007 0.708299994
vt 0.469799995 0.712899983
vt 0.446999997 0.695100009
vt 0.537500024 0.72390002
vt 0.510999978 0.664799988
vt 0.485900015 0.672599971
vt 0.503499985 0.643899977
vt 0.48269999 0.650900006
vt 0.467999995 0.652700007
vt 0.468600005 0.673900008
vt 0.52700001 0.657100022
vt 0.539200008 0.692499995
vt 0.467500001 0.628199995
vt 0.478500009 0.628499985
vt 0.495799989 0.622699976
vt 0.51639998 0.637899995
vt 0.504700005 0.616299987
vt 0.495799989 0.622699976
vt 0.553600013 0.727800012
vt 0.539200008 0.692499995
vt 0.59890002 0.74000001
vt 0.577199996 0.667299986
vt 0.608500004 0.675599992
vt 0.631099999 0.676400006
vt 0.621200025 0.717599988
vt 0.635599971 0.646000028
vt 0.614700019 0.644900024
vt 0.556699991 0.658100009
vt 0.587000012 0.636799991
vt 0.567600012 0.628799975
vt 0.619499981 0.612999976
vt 0.597599983 0.606299996
vt 0.582300007 0.597899973
vt 0.619499981 0.612999976
vt 0.637000024 0.611699998
vt 0.438800007 0.58160001
vt 0.46509999 0.604099989
vt 0.47389999 0.587899983
vt 0.443399996 0.601599991
vt 0.468400002 0.565800011
vt 0.450300008 0.562300026
vt 0.451299995 0.541599989
vt 0.47330001 0.545099974
vt 0.47389999 0.587899983
vt 0.491899997 0.555999994
vt 0.474099994 0.537899971
vt 0.475800008 0.522199988
vt 0.494700015 0.524399996
vt 0.452199996 0.534200013
vt 0.454899997 0.517400026
vt 0.430400014 0.545099974
vt 0.436500013 0.512000024
vt 0.476799995 0.513100028
vt 0.488000005 0.480599999
vt 0.513499975 0.494899988
vt 0.461199999 0.471899986
vt 0.456699997 0.507399976
vt 0.461199999 0.471899986
vt 0.436500013 0.512000024
vt 0.433299989 0.48210001
vt 0.438800007 0.58160001
vt 0.766499996 0.702000022
vt 0.787899971 0.7245
vt 0.77670002 0.700399995
vt 0.621500015 0.441900015
vt 0.647800028 0.485100001
vt 0.653599977 0.450300008
vt 0.626699984 0.481700003
vt 0.602199972 0.487800002
vt 0.584999979 0.451999992
vt 0.629700005 0.4912
vt 0.634800017 0.510599971
vt 0.656300008 0.518400013
vt 0.604600012 0.497399986
vt 0.610300004 0.51789999
vt 0.584800005 0.502399981
vt 0.594699979 0.535399973
vt 0.562699974 0.477800012
vt 0.636399984 0.517499983
vt 0.651600003 0.558300018
vt 0.640299976 0.545300007
vt 0.622799993 0.550199986
vt 0.617600024 0.567900002
vt 0.628000021 0.584100008
vt 0.651899993 0.577600002
vt 0.612299979 0.524699986
vt 0.617600024 0.567900002
vt 0.574299991 0.341699988
vt 0.579699993 0.289600015
vt 0.549600005 0.304399997
vt 0.574299991 0.341699988
vt 0.583400011 0.332700014
vt 0.54549998 0.332399994
vt 0.574299991 0.341699988
vt 0.57190001 0.351200014
vt 0.537899971 0.362599999
vt 0.568700016 0.359200001
vt 0.591199994 0.372000009
vt 0.602100015 0.356099993
vt 0.607200027 0.391400009
vt 0.632600009 0.376899987
vt 0.648699999 0.40169999
vt 0.614700019 0.421400011
vt 0.660700023 0.354499996
vt 0.680499971 0.380800009
vt 0.605300009 0.340900004
vt 0.560500026 0.378600001
vt 0.577899992 0.387100011
vt 0.562600017 0.406699985
vt 0.547399998 0.400900006
vt 0.591099977 0.404500008
vt 0.569899976 0.441300005
vt 0.576300025 0.422899991
vt 0.576300025 0.422899991
vt 0.569899976 0.441300005
vt 0.543299973 0.430500001
vt 0.576300025 0.422899991
vt 0.537899971 0.362599999
vt 0.533599973 0.408600003
vt 0.543299973 0.430500001
vt 0.574299991 0.341699988
vt 0.667800009 0.881299973
vt 0.680899978 0.842599988
vt 0.658200026 0.858699977
vt 0.694199979 0.856299996
vt 0.685000002 0.898100019
vt 0.709800005 0.874000013
vt 0.72359997 0.828800023
vt 0.680899978 0.842599988
vt 0.709200025 0.818899989
vt 0.736800015 0.847299993
vt 0.605300009 0.340900004
vt 0.660700023 0.354499996
vt 0.508000016 0.586899996
vt 0.533999979 0.564700007
vt 0.502099991 0.566799998
vt 0.539699972 0.547800004
vt 0.508700013 0.54549998
vt 0.543500006 0.56400001
vt 0.538600028 0.582000017
vt 0.508000016 0.586899996
vt 0.546700001 0.581900001
vt 0.548600018 0.597800016
vt 0.559700012 0.581200004
vt 0.570900023 0.595600009
vt 0.565900028 0.545899987
vt 0.557099998 0.563300014
vt 0.564800024 0.563300014
vt 0.566699982 0.580600023
vt 0.586700022 0.577000022
vt 0.584200025 0.563600004
vt 0.594099998 0.556400001
vt 0.596899986 0.583599985
vt 0.596899986 0.583599985
vt 0.606400013 0.560599983
vt 0.60769999 0.58069998
vt 0.514800012 0.611100018
vt 0.480100006 0.741299987
vt 0.473100007 0.708299994
vt 0.469799995 0.712899983
vt 0.841899991 0.716499984
vt 0.857500017 0.691200018
vt 0.850799978 0.689499974
vt 0.474099994 0.425099999
vt 0.439500004 0.444200009
vt 0.472799987 0.444499999
vt 0.481700003 0.430599988
vt 0.493999988 0.460200012
vt 0.494199991 0.439200014
vt 0.483999997 0.408199996
vt 0.442200005 0.412200004
vt 0.439500004 0.444200009
vt 0.457100004 0.3829
vt 0.50120002 0.399899989
vt 0.485599995 0.369500011
vt 0.492300004 0.414000005
vt 0.505299985 0.422899991
vt 0.524600029 0.415899992
vt 0.500400007 0.443300009
vt 0.511399984 0.427899987
vt 0.525200009 0.441199988
vt 0.51700002 0.452499986
vt 0.525399983 0.467700005
vt 0.543299973 0.443300009
vt 0.525399983 0.467700005
vt 0.538699985 0.47240001
vt 0.525399983 0.467700005
vt 0.552100003 0.4542
vt 0.539200008 0.692499995
vt 0.553600013 0.727800012
vt 0.545400023 0.694800019
vt 0.556699991 0.658100009
vt 0.545400023 0.694800019
vt 0.811100006 0.719299972
vt 0.816699982 0.687300026
vt 0.807699978 0.689499974
vt 0.473100007 0.708299994
vt 0.42930001 0.686399996
vt 0.405000001 0.686500013
vt 0.408699989 0.676500022
vt 0.405000001 0.686500013
vt 0.394699991 0.700399995
vt 0.386400014 0.704999983
vt 0.621200025 0.717599988
vt 0.612800002 0.754000008
vt 0.62379998 0.72359997
vt 0.770699978 0.81309998
vt 0.757700026 0.865999997
vt 0.157199994 0.0798000023
vt 0.065700002 0.123800002
vt 0.120099999 0.155000001
vt 0.101999998 0.0386999995
vt 0.305999994 0.0812000036
vt 0.307500005 0.0375000015
vt 0.00270000007 0.155000001
vt 0.321500003 0.722000003
vt 0.321500003 0.680100024
vt 0.301999986 0.667200029
vt 0.340999991 0.667200029
vt 0.3028 0.641099989
vt 0.340200007 0.641099989
vt 0.302100003 0.447400004
vt 0.340900004 0.447400004
vt 0.302100003 0.360100001
vt 0.340900004 0.360100001
vt 0.340900004 0.293900013
vt 0.302100003 0.293900013
vt 0.152899995 0.312700003
vt 0.192900002 0.405400008
vt 0.192900002 0.312700003
vt 0.152899995 0.405400008
vt 0.152899995 0.475400001
vt 0.192900002 0.475600004
vt 0.151299998 0.615199983
vt 0.151299998 0.615199983
vt 0.191599995 0.643999994
vt 0.151199996 0.643400013
vt 0.191599995 0.643999994
vt 0.171299994 0.656499982
vt 0.170699999 0.699100018
vt 0.151199996 0.643400013
vt 0.298999995 0.31220001
vt 0.259000003 0.362800002
vt 0.298999995 0.362800002
vt 0.259000003 0.31220001
vt 0.259000003 0.454299986
vt 0.298999995 0.4542
vt 0.299400002 0.622099996
vt 0.259799987 0.649500012
vt 0.300000012 0.649399996
vt 0.280000001 0.662299991
vt 0.280099988 0.704299986
vt 0.167500004 0.136099994
vt 0.131999999 0.136099994
vt 0.1866 0.114200003
vt 0.186900005 0.155900002
vt 0.543299973 0.112199999
vt 0.64139998 0.112199999
vt 0.5977 0.0811000019
vt 0.5352 0.00680000009
vt 0.506099999 0.0478999987
vt 0.35710001 0.00620000018
vt 0.357800007 0.0487000011
vt 0.403299987 0.0498999991
vt 0.395099998 0.155900002
vt 0.458000004 0.0812000036
vt 0.36590001 0.114699997
vt 0.186900005 0.155900002
vt 0.1866 0.114200003
vt 0.501999974 0.0498999991
vt 0.1866 0.114200003
vt 0.167500004 0.136099994
vt 0.131999999 0.136099994
vt 0.227899998 0.421900004
vt 0.198500007 0.492900014
vt 0.228200004 0.520200014
vt 0.195700005 0.395700008
vt 0.198100001 0.638400018
vt 0.222599998 0.529100001
vt 0.195299998 0.538100004
vt 0.225400001 0.628499985
vt 0.2588 0.511600018
vt 0.232199997 0.404100001
vt 0.231600001 0.504999995
vt 0.2579 0.411799997
vt 0.259299994 0.511200011
vt 0.231900007 0.621100008
vt 0.258399993 0.61680001
vt 0.234200001 0.521000028
vt 0.209999993 0.40079999
vt 0.224299997 0.281500012
vt 0.202099994 0.298000008
vt 0.2271 0.379200011
vt 0.157299995 0.234099999
vt 0.065700002 0.189999998
vt 0.101999998 0.275099993
vt 0.120099999 0.158899993
vt 0.307599992 0.276300013
vt 0.305999994 0.232600003
vt 0.00270000007 0.158899993
vt 0.148599997 0.415100008
vt 0.109800003 0.304500014
vt 0.109800003 0.415100008
vt 0.148599997 0.304500014
vt 0.148599997 0.494100004
vt 0.109800003 0.494100004
vt 0.148599997 0.661899984
vt 0.109800003 0.661899984
vt 0.129199997 0.717000008
vt 0.148599997 0.661899984
vt 0.149399996 0.63410002
vt 0.109800003 0.661899984
vt 0.108999997 0.63410002
vt 0.429399997 0.167999998
vt 0.466199994 0.167999998
vt 0.486400008 0.188600004
vt 0.486099988 0.145199999
vt 0.104500003 0.312700003
vt 0.0644999966 0.405400008
vt 0.104500003 0.405400008
vt 0.0644999966 0.312700003
vt 0.0644999966 0.475600004
vt 0.104500003 0.475499988
vt 0.1061 0.615199983
vt 0.065700002 0.643999994
vt 0.1061 0.64349997
vt 0.0860999972 0.656499982
vt 0.0866999999 0.699100018
vt 0.1061 0.64349997
vt 0.345099986 0.31220001
vt 0.38499999 0.362800002
vt 0.38499999 0.31220001
vt 0.345099986 0.362800002
vt 0.38499999 0.454299986
vt 0.345099986 0.4542
vt 0.344700009 0.622099996
vt 0.384200007 0.649500012
vt 0.344099998 0.649399996
vt 0.364100009 0.662299991
vt 0.363999993 0.704299986
vt 0.384200007 0.649500012
vt 0.186199993 0.157700002
vt 0.166800007 0.177599996
vt 0.131300002 0.177599996
vt 0.185900003 0.199499995
vt 0.545300007 0.202000007
vt 0.599699974 0.233099997
vt 0.643400013 0.202000007
vt 0.537100017 0.307399988
vt 0.508099973 0.266400009
vt 0.358999997 0.307999998
vt 0.359800011 0.265500009
vt 0.394400001 0.157700002
vt 0.40259999 0.263799995
vt 0.457300007 0.2324
vt 0.365200013 0.199000001
vt 0.186199993 0.157700002
vt 0.185900003 0.199499995
vt 0.501299977 0.263799995
vt 0.186199993 0.157700002
vt 0.166800007 0.177599996
vt 0.131300002 0.177599996
vt 0.0280000009 0.41929999
vt 0.0573999994 0.4903
vt 0.0601999983 0.393099993
vt 0.0276999995 0.5176
vt 0.0357999988 0.528100014
vt 0.0603 0.637300014
vt 0.0631000027 0.537100017
vt 0.0329999998 0.627499998
vt 0.414799988 0.399800003
vt 0.388200015 0.507399976
vt 0.415399998 0.500699997
vt 0.389099985 0.407599986
vt 0.412999988 0.611800015
vt 0.385500014 0.501999974
vt 0.386400014 0.607599974
vt 0.410699993 0.511799991
vt 0.0416000001 0.270200014
vt 0.0559 0.389499992
vt 0.0639000013 0.28670001
vt 0.0388999991 0.367900014
vt 0.486099988 0.145199999
vt 0.429399997 0.167999998
vt 0.466199994 0.167999998
vt 0.486400008 0.188600004
vn -0.759992301 0.578163743 -0.296881199
vn -0.0342276618 0.995849371 -0.0843356326
vn -0.463971525 0.85260421 0.240409091
vn -0.38199389 0.715183854 -0.585314214
vn -0.709835291 0.465907216 0.528265238
vn -0.965299606 0.258587688 -0.0364565216
vn -0.980055451 -0.165391296 0.110168472
vn -0.728444278 -0.00797542743 0.685058594
vn -0.834367037 -0.544609845 0.085039489
vn 0.442669928 0.821116805 -0.360292256
vn 0.0185892545 0.559140682 -0.828864336
vn 0.270775825 0.196095511 -0.942457974
vn 0.772981703 0.406152278 -0.487380356
vn 0.385828346 -0.216724634 -0.89675349
vn 0.900888324 -0.101133808 -0.422104478
vn 0.993423581 0.0647558048 0.094426319
vn 0.890985489 0.45173052 0.0456555858
vn 0.613229394 0.780194521 0.12347547
vn 0.258945435 0.908929646 0.326793641
vn -0.0680384189 0.812314689 0.579237103
vn -0.295787692 0.507533252 0.809271038
vn -0.288186908 0.131473094 0.9485057
vn -0.567493618 -0.446451783 0.691832244
vn -0.834367037 -0.544609845 0.085039489
vn -0.584167838 -0.810486019 -0.043131873
vn -0.217863008 -0.22434929 0.949843764
vn 0.0513191596 -0.472441077 0.879866898
vn -0.262264162 -0.767536223 0.584898114
vn -0.584167838 -0.810486019 -0.043131873
vn -0.254985034 -0.946078479 -0.199795261
vn 0.134708226 -0.919666469 0.36887297
vn -0.254985034 -0.946078479 -0.199795261
vn 0.515149832 -0.854211867 0.0703058988
vn 0.0594808385 -0.877863824 -0.475202024
vn 0.799994826 -0.556677878 -0.223870829
vn 0.319816858 -0.592430294 -0.73942107
vn 0.385828346 -0.216724634 -0.89675349
vn 0.900888324 -0.101133808 -0.422104478
vn 0.672012687 -0.585738063 0.453111291
vn 0.922571301 -0.299312592 0.243462697
vn 0.993423581 0.0647558048 0.094426319
vn 0.337452948 -0.640683711 0.689673662
vn 0.672012687 -0.585738063 0.453111291
vn 0.47164467 0.312363118 0.824609339
vn 0.922571301 -0.299312592 0.243462697
vn 0.649136901 0.0752493441 0.756940424
vn 0.993423581 0.0647558048 0.094426319
vn 0.0258478392 0.306212336 0.951612294
vn 0.890985489 0.45173052 0.0456555858
vn 0.335748851 0.0704575405 0.939312816
vn 0.613229394 0.780194521 0.12347547
vn 0.558413148 0.294628561 0.775479674
vn 0.531516194 0.41960901 0.73581171
vn 0.258945435 0.908929646 0.326793641
vn -0.0680384189 0.812314689 0.579237103
vn 0.439814061 0.370802164 0.81796658
vn 0.337452948 -0.640683711 0.689673662
vn 0.50230819 -0.260372609 0.824555993
vn 0.273790389 -0.12842764 0.953176379
vn 0.0513191596 -0.472441077 0.879866898
vn 0.281161666 0.0497439615 0.958370328
vn -0.217863008 -0.22434929 0.949843764
vn -0.288186908 0.131473094 0.9485057
vn 0.269757152 0.245593682 0.931082666
vn 0.558397233 -0.056087099 0.827675581
vn 0.579629958 0.36997956 0.726046979
vn 0.789818525 -0.0960475355 0.605773568
vn 0.282695889 -0.615131676 0.736000001
vn -0.0870840326 -0.404633164 0.910323143
vn 0.00765211927 -0.418202996 0.908321321
vn -0.161174998 0.165998414 0.972865403
vn 0.67798835 0.254712075 0.689531386
vn 0.858420074 0.084613882 0.505920529
vn 0.517297029 0.362755328 0.775120854
vn 0.673652828 0.235014036 0.70068562
vn 0.253965795 0.154317126 0.954823315
vn 0.265273601 -0.13196595 0.955099463
vn 0.806223571 0.269162208 0.526835144
vn 0.554968655 0.326718032 0.765026271
vn 0.426946878 0.426213145 0.797532856
vn 0.416851759 0.666645646 0.617914379
vn 0.632677078 0.322957814 0.703859389
vn 0.522216439 0.6248281 0.580413342
vn 0.551680207 -0.146694198 0.821054041
vn 0.726292312 0.471050769 0.500610232
vn 0.332439959 0.353317469 0.874442935
vn -0.295787692 0.507533252 0.809271038
vn -0.288186908 0.131473094 0.9485057
vn -0.0680384189 0.812314689 0.579237103
vn -0.295787692 0.507533252 0.809271038
vn -0.191596761 -0.577769518 -0.793393433
vn -0.965299606 0.258587688 -0.0364565216
vn -0.190397039 -0.347107083 -0.918294966
vn -0.759992301 0.578163743 -0.296881199
vn -0.640532732 -0.48219353 -0.597668171
vn -0.578399479 -0.296474695 -0.759971559
vn -0.2319334 -0.177111328 -0.95647192
vn -0.980055451 -0.165391296 0.110168472
vn -0.666487455 -0.258755118 -0.699171245
vn -0.267188281 -0.0245757699 -0.963330984
vn -0.834367037 -0.544609845 0.085039489
vn -0.485285252 -0.304302245 -0.819694042
vn -0.584031224 -0.153245077 -0.797134578
vn -0.342015088 0.140179425 -0.929179966
vn -0.834367037 -0.544609845 0.085039489
vn -0.584167838 -0.810486019 -0.043131873
vn -0.522827268 0.202807248 -0.827961922
vn -0.584167838 -0.810486019 -0.043131873
vn -0.254985034 -0.946078479 -0.199795261
vn -0.67731154 -0.279514015 -0.680530012
vn -0.723877728 0.172139898 -0.668108463
vn 0.0594808385 -0.877863824 -0.475202024
vn 0.02630095 -0.285547733 -0.958003461
vn -0.812487125 0.0207578987 -0.582609475
vn 0.319816858 -0.592430294 -0.73942107
vn 0.02630095 -0.285547733 -0.958003461
vn -0.934537411 0.331351966 -0.129790857
vn 0.385828346 -0.216724634 -0.89675349
vn -0.869822204 -0.161055595 -0.466337174
vn 0.270775825 0.196095511 -0.942457974
vn -0.806168318 -0.373757571 -0.458691508
vn -0.465547949 -0.184680641 -0.865539253
vn -0.428873479 -0.314227194 -0.846952558
vn -0.38199389 0.715183854 -0.585314214
vn -0.443715245 -0.651575089 -0.615277708
vn 0.0185892545 0.559140682 -0.828864336
vn -0.679247439 -0.522579134 -0.515299857
vn -0.300788999 -0.297234088 -0.906188607
vn 0.270775825 0.196095511 -0.942457974
vn -0.806168318 -0.373757571 -0.458691508
vn -0.428873479 -0.314227194 -0.846952558
vn 0.704636872 -0.656355321 0.269600868
vn 0.02630095 -0.285547733 -0.958003461
vn 0.953581929 -0.298570216 -0.0392066725
vn -0.67731154 -0.279514015 -0.680530012
vn -0.465547949 -0.184680641 -0.865539253
vn 0.877710342 0.109228551 -0.466576487
vn 0.759360254 0.418852061 -0.497930735
vn -0.428873479 -0.314227194 -0.846952558
vn 0.985175729 -0.0719853565 -0.155714199
vn 0.717423558 -0.494796783 0.490387082
vn 0.993760765 -0.0399312489 -0.104139604
vn 0.705548882 -0.557410121 0.43760103
vn 0.784684002 0.176178932 -0.594333231
vn 0.732153058 0.463256657 -0.499344647
vn 0.31601885 0.934996367 -0.160977557
vn 0.393967807 0.906259418 -0.153242648
vn -0.428873479 -0.314227194 -0.846952558
vn -0.300788999 -0.297234088 -0.906188607
vn 0.293131948 0.840802729 -0.455109328
vn 0.688960612 0.304588825 -0.657692075
vn 0.720740438 0.0906141177 -0.687257111
vn 0.700208485 0.061926432 -0.711247623
vn 0.785331607 -0.247033626 -0.567651987
vn 0.590201259 0.367263883 -0.718873918
vn 0.606131315 -0.211042702 -0.766854465
vn 0.396383643 0.257726401 -0.881168067
vn 0.871094346 -0.23598507 -0.430703729
vn 0.541822016 0.300246298 -0.785035789
vn 0.301214814 -0.93360585 -0.194035918
vn -0.646256745 -0.202980906 -0.735629678
vn 0.396383643 0.257726401 -0.881168067
vn 0.302773356 -0.953024268 -0.00855040364
vn 0.373055518 -0.922669768 0.0975199044
vn 0.734259367 -0.195471242 -0.650118589
vn 0.596359074 0.47406134 -0.647782147
vn 0.682544112 -0.0620464906 -0.728205919
vn 0.281024784 -0.725378215 0.628372073
vn 0.31588614 -0.679921746 0.661756992
vn -0.167384312 0.923241377 0.345843613
vn 0.541822016 0.300246298 -0.785035789
vn 0.67984426 0.500186324 -0.536307216
vn 0.67984426 0.500186324 -0.536307216
vn -0.0449411049 0.938077092 -0.343499273
vn -0.0547319427 0.987919152 -0.144983411
vn -0.300788999 -0.297234088 -0.906188607
vn -0.304509968 0.932089806 0.196168989
vn 0.393967807 0.906259418 -0.153242648
vn -0.389324486 0.885989666 0.251890272
vn -0.763640523 0.272620738 0.585261524
vn -0.81891489 0.241317883 0.520714939
vn -0.751026273 -0.130525857 0.647242248
vn -0.828163564 -0.272478729 0.48979634
vn -0.841458917 0.36126554 0.401788652
vn -0.46035102 0.887041628 0.0351306945
vn -0.85278064 -0.0441526584 0.52039963
vn -0.611715972 -0.351716191 0.708589613
vn -0.739046752 -0.36192748 0.568171024
vn -0.391626179 -0.85123843 0.349316657
vn -0.354296982 -0.660468817 0.662007928
vn -0.62324065 -0.724174142 0.295199782
vn 0.0477713197 -0.726676345 0.68531698
vn -0.16404599 -0.813222051 0.558353603
vn 0.705548882 -0.557410121 0.43760103
vn 0.717423558 -0.494796783 0.490387082
vn -0.965646863 0.19324176 0.173734874
vn -0.692259729 0.708808184 0.135526836
vn 0.293131948 0.840802729 -0.455109328
vn 0.31601885 0.934996367 -0.160977557
vn -0.995758235 0.074480921 -0.0540200919
vn -0.965632319 -0.133818552 0.222815692
vn -0.983314157 -0.18168664 0.00912484247
vn -0.862551749 -0.49632585 0.0983122289
vn -0.839794338 -0.466078013 0.278418511
vn -0.309069425 -0.90828228 0.281956583
vn -0.923552513 -0.382332861 0.0295366552
vn -0.508600891 -0.783220232 0.357618839
vn -0.456799299 -0.837148309 0.300860435
vn -0.979701877 0.137618557 0.145758018
vn -0.966883183 0.151562199 0.205343336
vn -0.442770034 -0.810794652 0.382840335
vn -0.506418645 -0.828306019 -0.239685908
vn -0.911041498 -0.0313766487 -0.411118984
vn 0.504587829 -0.86199832 0.0484783277
vn 0.446021169 -0.892271101 0.0701245889
vn 0.373055518 -0.922669768 0.0975199044
vn 0.302773356 -0.953024268 -0.00855040364
vn 0.301214814 -0.93360585 -0.194035918
vn -0.378526777 0.906241298 -0.188266292
vn -0.167384312 0.923241377 0.345843613
vn -0.438945502 0.872625768 -0.214129075
vn -0.271194458 0.463359505 -0.843653679
vn 0.288711667 -0.722412884 -0.628303409
vn -0.300788999 -0.297234088 -0.906188607
vn -0.640532732 -0.48219353 -0.597668171
vn -0.578399479 -0.296474695 -0.759971559
vn -0.666487455 -0.258755118 -0.699171245
vn -0.485285252 -0.304302245 -0.819694042
vn -0.666886747 -0.54290396 0.510408819
vn -0.157768235 -0.852344275 0.498616397
vn 0.704636872 -0.656355321 0.269600868
vn -0.584031224 -0.153245077 -0.797134578
vn -0.67731154 -0.279514015 -0.680530012
vn 0.704636872 -0.656355321 0.269600868
vn 0.293131948 0.840802729 -0.455109328
vn -0.0547319427 0.987919152 -0.144983411
vn -0.841087341 0.526921988 0.122169383
vn -0.0449411049 0.938077092 -0.343499273
vn -0.777416527 0.627375185 -0.0449891761
vn -0.811626732 -0.546556652 0.206247121
vn -0.804853261 0.593473673 -0.000406758743
vn 0.137132958 0.959419847 -0.246390045
vn 0.0557286255 0.939854681 -0.336997867
vn -0.807085991 -0.5485062 0.218524963
vn -0.993942797 -0.0217776857 -0.107719369
vn -0.968876481 0.0967846513 -0.227840319
vn 0.155699506 0.884077013 0.440642059
vn 0.281024784 -0.725378215 0.628372073
vn 0.172887459 -0.977120757 0.123875007
vn -0.949791849 -0.260939837 -0.172643617
vn -0.682338119 -0.704650104 0.194635481
vn -0.873976409 0.48595646 0.00340092648
vn -0.676752687 -0.708209813 0.2011085
vn -0.903018832 0.429596394 0.00195436855
vn -0.0667882189 0.953707695 -0.293225199
vn 0.0255202781 0.981610179 -0.189182878
vn 0.267205209 -0.958211482 0.102138028
vn 0.31588614 -0.679921746 0.661756992
vn -0.0432626233 0.520519555 -0.852752984
vn -0.822904706 0.255651236 -0.507415354
vn -0.65036118 -0.664331615 -0.368366361
vn 0.254005224 -0.96634686 0.0406807326
vn 0.185659081 -0.707321405 -0.6820755
vn -0.65036118 -0.664331615 -0.368366361
vn -0.995322406 -0.0562411956 -0.0785510018
vn 0.31588614 -0.679921746 0.661756992
vn -0.878585219 -0.473494053 -0.0623809472
vn -0.93113929 0.353542596 0.0893712789
vn -0.561927497 -0.780631542 0.273590803
vn 0.336839139 -0.931406975 0.137914225
vn 0.401825309 -0.574185133 0.713335693
vn 0.315096051 -0.948384285 0.0358017273
vn -0.57853663 -0.75654304 0.304857463
vn -0.185182333 0.968174338 -0.168362528
vn -0.921936393 0.364182174 0.131927043
vn -0.212207243 0.939081848 -0.270357728
vn -0.652343392 -0.730208337 -0.203085855
vn -0.918125629 0.155119881 -0.364668548
vn -0.22180526 0.508450091 -0.83203423
vn -0.652343392 -0.730208337 -0.203085855
vn 0.116884872 -0.724088371 -0.679730773
vn -0.271194458 0.463359505 -0.843653679
vn -0.506418645 -0.828306019 -0.239685908
vn 0.288711667 -0.722412884 -0.628303409
vn -0.911041498 -0.0313766487 -0.411118984
vn 0.794536233 -0.180764109 -0.579686522
vn 0.430238426 0.57630986 -0.694810629
vn 0.451661557 0.761253595 -0.46529007
vn 0.926432967 -0.13305071 -0.352163881
vn 0.288711667 -0.722412884 -0.628303409
vn 0.446021169 -0.892271101 0.0701245889
vn 0.963234723 -0.110784844 -0.244755924
vn 0.963965058 -0.0605517626 -0.259046018
vn 0.504587829 -0.86199832 0.0484783277
vn 0.453649133 0.8180269 -0.353602082
vn 0.459903836 0.818468392 -0.344380289
vn -0.438945502 0.872625768 -0.214129075
vn -0.378526777 0.906241298 -0.188266292
vn 0.942192256 -0.058921054 -0.329851657
vn 0.871094346 -0.23598507 -0.430703729
vn 0.373055518 -0.922669768 0.0975199044
vn 0.541822016 0.300246298 -0.785035789
vn 0.458558857 0.797070324 -0.392940998
vn 0.541822016 0.300246298 -0.785035789
vn -0.378526777 0.906241298 -0.188266292
vn -0.167384312 0.923241377 0.345843613
vn -0.271194458 0.463359505 -0.843653679
vn -0.167384312 0.923241377 0.345843613
vn 0.785331607 -0.247033626 -0.567651987
vn 0.401825309 -0.574185133 0.713335693
vn 0.785331607 -0.247033626 -0.567651987
vn 0.336839139 -0.931406975 0.137914225
vn 0.401825309 -0.574185133 0.713335693
vn 0.920061946 -0.346611083 -0.182610959
vn 0.636040986 0.695310593 -0.334656596
vn 0.590201259 0.367263883 -0.718873918
vn 0.924527407 -0.342354566 -0.167458519
vn 0.911718428 -0.33668977 -0.235392109
vn 0.315096051 -0.948384285 0.0358017273
vn 0.641863286 0.682731271 -0.349126905
vn 0.62506026 0.669282258 -0.401697397
vn -0.185182333 0.968174338 -0.168362528
vn -0.212207243 0.939081848 -0.270357728
vn -0.00403197994 0.89394182 0.44816494
vn 0.857475817 -0.344171971 -0.382466793
vn 0.116884872 -0.724088371 -0.679730773
vn 0.689292669 -0.28003934 -0.668171763
vn 0.503944695 0.413601488 -0.758270204
vn -0.22180526 0.508450091 -0.83203423
vn -0.918125629 0.155119881 -0.364668548
vn -0.652343392 -0.730208337 -0.203085855
vn 0.580166578 0.61108321 -0.53850162
vn -0.22180526 0.508450091 -0.83203423
vn -0.646256745 -0.202980906 -0.735629678
vn -0.391626179 -0.85123843 0.349316657
vn -0.62324065 -0.724174142 0.295199782
vn -0.646256745 -0.202980906 -0.735629678
vn 0.301214814 -0.93360585 -0.194035918
vn -0.918868721 -0.359443247 0.162729606
vn -0.646256745 -0.202980906 -0.735629678
vn -0.770611823 0.573349953 -0.278257787
vn -0.901060343 -0.321079582 0.291544348
vn -0.731452882 0.632924497 -0.253738374
vn 0.157966167 0.806977272 -0.569064438
vn 0.236080408 0.585913479 -0.775223434
vn 0.911569297 0.255329549 -0.322254777
vn 0.956858695 0.0797413588 -0.279397011
vn 0.641899467 -0.747447252 0.17113629
vn 0.695894599 -0.669662058 0.259390414
vn 0.993760765 -0.0399312489 -0.104139604
vn 0.705548882 -0.557410121 0.43760103
vn 0.396383643 0.257726401 -0.881168067
vn -0.755817413 0.514140964 -0.405461639
vn 0.0772908479 0.671391487 -0.737061501
vn -0.0735348612 0.0659947321 -0.995106697
vn -0.695787847 0.0533155724 -0.716265798
vn 0.849634767 0.198600322 -0.488547564
vn 0.407683522 -0.885059476 -0.224641547
vn 0.603506505 -0.254398763 -0.755685866
vn 0.603506505 -0.254398763 -0.755685866
vn 0.407683522 -0.885059476 -0.224641547
vn -0.317555249 -0.938847065 -0.133134499
vn 0.603506505 -0.254398763 -0.755685866
vn -0.901060343 -0.321079582 0.291544348
vn -0.860041976 -0.450062305 -0.240357652
vn -0.317555249 -0.938847065 -0.133134499
vn -0.646256745 -0.202980906 -0.735629678
vn -0.221700013 -0.947025955 0.232359439
vn -0.901060343 -0.321079582 0.291544348
vn -0.918868721 -0.359443247 0.162729606
vn -0.198448747 -0.819169819 0.538125217
vn 0.641899467 -0.747447252 0.17113629
vn 0.695894599 -0.669662058 0.259390414
vn -0.317555249 -0.938847065 -0.133134499
vn -0.901060343 -0.321079582 0.291544348
vn -0.860041976 -0.450062305 -0.240357652
vn 0.407683522 -0.885059476 -0.224641547
vn 0.396383643 0.257726401 -0.881168067
vn 0.993760765 -0.0399312489 -0.104139604
vn 0.67984426 0.500186324 -0.536307216
vn 0.883890986 -0.450878948 -0.12427786
vn 0.682544112 -0.0620464906 -0.728205919
vn 0.172887459 -0.977120757 0.123875007
vn 0.281024784 -0.725378215 0.628372073
vn 0.876828611 -0.452485025 -0.162569702
vn 0.832928419 0.470726728 -0.290940762
vn 0.67984426 0.500186324 -0.536307216
vn 0.826760232 0.468760252 -0.311016589
vn 0.137132958 0.959419847 -0.246390045
vn 0.792883396 0.464989007 -0.393854201
vn 0.0557286255 0.939854681 -0.336997867
vn 0.113013998 -0.992914319 0.0367301181
vn 0.858505309 -0.46149686 -0.223583028
vn 0.810707986 -0.455873579 -0.3673307
vn 0.721167743 0.428148001 -0.544615865
vn 0.547349095 0.291176081 -0.78461802
vn 0.663477302 -0.371675968 -0.64934963
vn 0.0122997398 -0.739861488 -0.672646821
vn -0.106068857 0.518225312 -0.848641217
vn -0.106068857 0.518225312 -0.848641217
vn -0.778681219 -0.534026504 -0.329349846
vn -0.856879771 0.339675993 -0.387785107
vn -0.0449411049 0.938077092 -0.343499273
vn -0.993942797 -0.0217776857 -0.107719369
vn 0.155699506 0.884077013 0.440642059
vn 0.281024784 -0.725378215 0.628372073
vn 0.596359074 0.47406134 -0.647782147
vn 0.281024784 -0.725378215 0.628372073
vn 0.155699506 0.884077013 0.440642059
vn 0.744911373 0.590953112 -0.309647173
vn 0.155699506 0.884077013 0.440642059
vn 0.0255202781 0.981610179 -0.189182878
vn 0.763476133 0.558490932 -0.32433328
vn -0.0667882189 0.953707695 -0.293225199
vn 0.757077336 0.558825672 -0.338449091
vn 0.899431109 -0.391806155 -0.193679094
vn 0.596359074 0.47406134 -0.647782147
vn 0.155699506 0.884077013 0.440642059
vn 0.734259367 -0.195471242 -0.650118589
vn 0.267205209 -0.958211482 0.102138028
vn 0.31588614 -0.679921746 0.661756992
vn 0.906116843 -0.387662381 -0.169322163
vn 0.895909846 -0.396571964 -0.200190678
vn 0.254005224 -0.96634686 0.0406807326
vn 0.738735318 0.529021323 -0.417620093
vn 0.880386531 -0.382568479 -0.280287355
vn 0.79054594 -0.242958635 -0.562146068
vn 0.65915978 0.406711578 -0.632529795
vn -0.0432626233 0.520519555 -0.852752984
vn 0.185659081 -0.707321405 -0.6820755
vn -0.0432626233 0.520519555 -0.852752984
vn -0.822904706 0.255651236 -0.507415354
vn -0.0432626233 0.520519555 -0.852752984
vn -0.65036118 -0.664331615 -0.368366361
vn 0.31588614 -0.679921746 0.661756992
vn -0.995322406 -0.0562411956 -0.0785510018
vn -0.00403197994 0.89394182 0.44816494
vn -0.185182333 0.968174338 -0.168362528
vn -0.00403197994 0.89394182 0.44816494
vn 0.590201259 0.367263883 -0.718873918
vn 0.31588614 -0.679921746 0.661756992
vn -0.00403197994 0.89394182 0.44816494
vn 0.155699506 0.884077013 0.440642059
vn 0.113013998 -0.992914319 0.0367301181
vn -0.778681219 -0.534026504 -0.329349846
vn 0.0122997398 -0.739861488 -0.672646821
vn -0.778681219 -0.534026504 -0.329349846
vn -0.856879771 0.339675993 -0.387785107
vn -0.106068857 0.518225312 -0.848641217
vn 0.401825309 -0.574185133 0.713335693
vn -0.923552513 -0.382332861 0.0295366552
vn -0.167384312 0.923241377 0.345843613
vn 0.396383643 0.257726401 -0.881168067
vn 0.993760765 -0.0399312489 -0.104139604
vn -0.0738366172 -0.776674509 0.625559628
vn 0.235561669 -0.856078088 -0.460044622
vn -0.216627896 -0.519065559 0.826827228
vn 0.403904557 -0.658279717 -0.635239303
vn -0.898379743 -0.23438625 0.3714526
vn 0.527005732 -0.351120412 -0.773937583
vn -0.513737679 -0.727261245 -0.455153435
vn 0.542838275 0.236410037 0.805876434
vn 0.947891116 0.117482856 -0.29614234
vn 0.791771829 0.471601397 -0.388187319
vn 0.925264776 -0.277840555 -0.258243203
vn 0.527005732 -0.351120412 -0.773937583
vn 0.420303702 0.233856514 -0.876730263
vn 0.403904557 -0.658279717 -0.635239303
vn 0.196408644 0.510421574 -0.837193787
vn 0.235561669 -0.856078088 -0.460044622
vn -0.038980715 0.68522954 -0.727283299
vn -0.700576663 0.321599722 -0.6369977
vn -0.513737679 -0.727261245 -0.455153435
vn -0.742717922 0.325969428 -0.584905148
vn -0.237245724 -0.529613078 0.814385891
vn -0.554938316 -0.728248298 -0.402116627
vn -0.448133141 0.654351473 0.609098315
vn -0.379912496 0.857714415 0.346399426
vn -0.0912929252 -0.772099257 0.628910482
vn -0.936631322 -0.304884046 0.172532171
vn -0.936631322 -0.304884046 0.172532171
vn -0.358146906 -0.684486687 0.634987235
vn -0.500712276 -0.145304784 0.85333097
vn -0.358146906 -0.684486687 0.634987235
vn -0.582989931 0.0368815996 0.811641932
vn 0.565290153 0.237642199 0.789919734
vn -0.500712276 -0.145304784 0.85333097
vn -0.742717922 0.325969428 -0.584905148
vn 0.28130275 -0.800615191 -0.529040694
vn 0.0266604554 0.629029155 -0.776924431
vn -0.554938316 -0.728248298 -0.402116627
vn 0.504361451 -0.651113153 -0.567160606
vn 0.289003462 0.559697747 -0.776669443
vn 0.546021938 0.482111454 -0.685148597
vn 0.764605403 -0.62379688 -0.162037119
vn 0.736685872 0.563094437 -0.374457836
vn 0.947414398 0.117130794 -0.297802657
vn 0.565290153 0.237642199 0.789919734
vn 0.216182187 0.941753566 0.257614881
vn 0.565290153 0.237642199 0.789919734
vn -0.500712276 -0.145304784 0.85333097
vn 0.736685872 0.563094437 -0.374457836
vn -0.448133141 0.654351473 0.609098315
vn -0.742717922 0.325969428 -0.584905148
vn 0.0266604554 0.629029155 -0.776924431
vn 0.289003462 0.559697747 -0.776669443
vn -0.379912496 0.857714415 0.346399426
vn 0.546021938 0.482111454 -0.685148597
vn -0.936631322 -0.304884046 0.172532171
vn -0.237245724 -0.529613078 0.814385891
vn 0.504361451 -0.651113153 -0.567160606
vn 0.28130275 -0.800615191 -0.529040694
vn -0.0912929252 -0.772099257 0.628910482
vn 0.764605403 -0.62379688 -0.162037119
vn -0.358146906 -0.684486687 0.634987235
vn -0.554938316 -0.728248298 -0.402116627
vn -0.358146906 -0.684486687 0.634987235
vn 0.36123395 -0.830042422 0.424899459
vn 0.565290153 0.237642199 0.789919734
vn 0.527005732 -0.351120412 -0.773937583
vn -0.936631322 -0.304884046 0.172532171
vn 0.546021938 0.482111454 -0.685148597
vn -0.898379743 -0.23438625 0.3714526
vn -0.500712276 -0.145304784 0.85333097
vn -0.898379743 -0.23438625 0.3714526
vn -0.513634086 -0.350477636 0.783163667
vn -0.936631322 -0.304884046 0.172532171
vn 0.736685872 0.563094437 -0.374457836
vn 0.527005732 -0.351120412 -0.773937583
vn 0.546021938 0.482111454 -0.685148597
vn 0.791771829 0.471601397 -0.388187319
vn 0.408755302 -0.529023051 0.743675828
vn 0.736685872 0.563094437 -0.374457836
vn 0.216182187 0.941753566 0.257614881
vn 0.791771829 0.471601397 -0.388187319
vn 0.216182187 0.941753566 0.257614881
vn -0.513634086 -0.350477636 0.783163667
vn 0.408755302 -0.529023051 0.743675828
vn -0.500712276 -0.145304784 0.85333097
vn -0.358286887 0.869372725 0.340325505
vn -0.038980715 0.68522954 -0.727283299
vn 0.196408644 0.510421574 -0.837193787
vn -0.425931245 0.655993938 0.623100698
vn 0.420303702 0.233856514 -0.876730263
vn -0.946568906 0.026414955 0.321418166
vn -0.700576663 0.321599722 -0.6369977
vn -0.216627896 -0.519065559 0.826827228
vn -0.700576663 0.321599722 -0.6369977
vn -0.425931245 0.655993938 0.623100698
vn -0.513737679 -0.727261245 -0.455153435
vn -0.0738366172 -0.776674509 0.625559628
vn -0.358286887 0.869372725 0.340325505
vn -0.513634086 -0.350477636 0.783163667
vn -0.646076441 0.393135846 0.654239535
vn 0.542838275 0.236410037 0.805876434
vn -0.513634086 -0.350477636 0.783163667
vn -0.898379743 -0.23438625 0.3714526
vn -0.646076441 0.393135846 0.654239535
vn -0.946568906 0.026414955 0.321418166
vn 0.542838275 0.236410037 0.805876434
vn 0.163580313 0.847464085 0.505020916
vn 0.925264776 -0.277840555 -0.258243203
vn -0.646076441 0.393135846 0.654239535
vn -0.554950297 -0.728238821 -0.402117342
vn -0.448134243 0.654351592 0.609097362
vn -0.237247303 -0.529613674 0.814385056
vn -0.742708564 0.325974911 -0.584913969
vn -0.381448776 0.857010663 0.346452773
vn -0.0896070972 -0.772218287 0.629006743
vn -0.992986143 0.0115028452 0.117669351
vn -0.6033234 0.692046523 0.396323681
vn -0.569184899 0.239086807 0.786680341
vn -0.582992375 0.0368707851 0.811640561
vn 0.565297663 0.237635896 0.789916217
vn -0.569184899 0.239086807 0.786680341
vn -0.554950297 -0.728238821 -0.402117342
vn 0.0266628545 0.629030347 -0.776923358
vn -0.742708564 0.325974911 -0.584913969
vn 0.28129676 -0.800617874 -0.529040039
vn 0.288765728 0.559331954 -0.777021229
vn 0.504684448 -0.651242256 -0.566724956
vn 0.714995563 -0.466567904 -0.520668566
vn 0.519052625 0.754805326 -0.40106532
vn 0.903359473 -0.372694373 -0.212227672
vn 0.947417498 0.117101483 -0.297804117
vn 0.565297663 0.237635896 0.789916217
vn 0.519052625 0.754805326 -0.40106532
vn 0.903359473 -0.372694373 -0.212227672
vn 0.504236758 -0.675497353 0.53800422
vn 0.565297663 0.237635896 0.789916217
vn -0.569184899 0.239086807 0.786680341
vn -0.237247303 -0.529613674 0.814385056
vn 0.28129676 -0.800617874 -0.529040039
vn -0.554950297 -0.728238821 -0.402117342
vn 0.504684448 -0.651242256 -0.566724956
vn -0.0896070972 -0.772218287 0.629006743
vn 0.714995563 -0.466567904 -0.520668566
vn -0.992986143 0.0115028452 0.117669351
vn 0.288765728 0.559331954 -0.777021229
vn -0.448134243 0.654351592 0.609097362
vn 0.0266628545 0.629030347 -0.776923358
vn -0.381448776 0.857010663 0.346452773
vn 0.519052625 0.754805326 -0.40106532
vn -0.6033234 0.692046523 0.396323681
vn -0.742708564 0.325974911 -0.584913969
vn 0.519052625 0.754805326 -0.40106532
vn 0.0364667624 0.993400693 0.108743861
vn 0.565297663 0.237635896 0.789916217
vn 0.420303702 0.233856514 -0.876730263
vn -0.992986143 0.0115028452 0.117669351
vn -0.946568906 0.026414955 0.321418166
vn 0.714995563 -0.466567904 -0.520668566
vn -0.946568906 0.026414955 0.321418166
vn -0.569184899 0.239086807 0.786680341
vn -0.646076441 0.393135846 0.654239535
vn -0.992986143 0.0115028452 0.117669351
vn 0.420303702 0.233856514 -0.876730263
vn 0.903359473 -0.372694373 -0.212227672
vn 0.714995563 -0.466567904 -0.520668566
vn 0.925264776 -0.277840555 -0.258243203
vn 0.903359473 -0.372694373 -0.212227672
vn 0.163580313 0.847464085 0.505020916
vn 0.504236758 -0.675497353 0.53800422
vn 0.925264776 -0.277840555 -0.258243203
vn -0.646076441 0.393135846 0.654239535
vn 0.504236758 -0.675497353 0.53800422
vn 0.163580313 0.847464085 0.505020916
vn -0.569184899 0.239086807 0.786680341
vn -0.513634086 -0.350477636 0.783163667
vn 0.542838275 0.236410037 0.805876434
vn 0.408755302 -0.529023051 0.743675828
vn 0.791771829 0.471601397 -0.388187319
g blue_mag_m_pve_3_hand_r_0
f 3/3/3 2/2/2 1/1/1
f 4/4/4 1/1/1 2/2/2
f 3/3/3 1/1/1 5/5/5
f 6/6/6 5/5/5 1/1/1
f 6/6/6 7/7/7 5/5/5
f 8/8/8 5/5/5 7/7/7
f 7/7/7 9/9/9 8/8/8
f 2/2/2 10/10/10 4/4/4
f 11/11/11 4/4/4 10/10/10
f 11/11/11 10/10/10 12/12/12
f 13/13/13 12/12/12 10/10/10
f 12/12/12 13/13/13 14/14/14
f 15/15/15 14/14/14 13/13/13
f 15/15/15 13/13/13 16/16/16
f 17/17/17 16/16/16 13/13/13
f 13/13/13 10/10/10 17/17/17
f 18/18/18 17/17/17 10/10/10
f 10/10/10 2/2/2 18/18/18
f 19/19/19 18/18/18 2/2/2
f 2/2/2 3/3/3 19/19/19
f 20/20/20 19/19/19 3/3/3
f 3/3/3 5/5/5 20/20/20
f 21/21/21 20/20/20 5/5/5
f 5/5/5 8/8/8 21/21/21
f 22/22/22 21/21/21 8/8/8
f 8/8/8 23/23/23 22/22/22
f 23/23/23 8/8/8 24/24/24
f 24/24/24 25/25/25 23/23/23
f 26/26/26 22/22/22 23/23/23
f 26/26/26 23/23/23 27/27/27
f 28/28/28 27/27/27 23/23/23
f 28/28/28 23/23/23 29/29/29
f 29/29/29 30/30/30 28/28/28
f 28/28/28 31/31/31 27/27/27
f 31/31/31 28/28/28 32/32/32
f 31/31/31 32/32/32 33/33/33
f 34/34/34 33/33/33 32/32/32
f 33/33/33 34/34/34 35/35/35
f 36/36/36 35/35/35 34/34/34
f 36/36/36 37/37/37 35/35/35
f 38/38/38 35/35/35 37/37/37
f 33/33/33 35/35/35 39/39/39
f 40/40/40 39/39/39 35/35/35
f 38/38/38 41/41/41 35/35/35
f 40/40/40 35/35/35 41/41/41
f 42/42/42 27/27/27 31/31/31
f 31/31/31 33/33/33 42/42/42
f 39/39/39 42/42/42 33/33/33
f 45/45/45 44/44/44 43/43/43
f 46/46/46 43/43/43 44/44/44
f 45/45/45 47/47/47 44/44/44
f 48/48/48 44/44/44 47/47/47
f 47/47/47 49/49/49 48/48/48
f 50/50/50 48/48/48 49/49/49
f 49/49/49 51/51/51 50/50/50
f 52/52/52 50/50/50 51/51/51
f 52/52/52 51/51/51 53/53/53
f 54/54/54 53/53/53 51/51/51
f 54/54/54 55/55/55 53/53/53
f 56/56/56 53/53/53 55/55/55
f 43/43/43 46/46/46 57/57/57
f 58/58/58 57/57/57 46/46/46
f 58/58/58 59/59/59 57/57/57
f 60/60/60 57/57/57 59/59/59
f 59/59/59 61/61/61 60/60/60
f 62/62/62 60/60/60 61/61/61
f 62/62/62 61/61/61 63/63/63
f 64/64/64 63/63/63 61/61/61
f 52/52/52 53/53/53 65/65/65
f 52/52/52 65/65/65 50/50/50
f 66/66/66 65/65/65 53/53/53
f 66/66/66 53/53/53 56/56/56
f 66/66/66 67/67/67 65/65/65
f 68/68/68 65/65/65 67/67/67
f 65/65/65 68/68/68 69/69/69
f 70/70/70 69/69/69 68/68/68
f 69/69/69 70/70/70 71/71/71
f 72/72/72 71/71/71 70/70/70
f 67/67/67 66/66/66 73/73/73
f 74/74/74 73/73/73 66/66/66
f 73/73/73 74/74/74 75/75/75
f 76/76/76 75/75/75 74/74/74
f 76/76/76 64/64/64 61/61/61
f 76/76/76 77/77/77 75/75/75
f 78/78/78 75/75/75 77/77/77
f 72/72/72 79/79/79 71/71/71
f 80/80/80 71/71/71 79/79/79
f 79/79/79 81/81/81 80/80/80
f 82/82/82 80/80/80 81/81/81
f 81/81/81 83/83/83 82/82/82
f 84/84/84 82/82/82 83/83/83
f 77/77/77 84/84/84 85/85/85
f 85/85/85 78/78/78 77/77/77
f 84/84/84 83/83/83 85/85/85
f 74/74/74 86/86/86 76/76/76
f 64/64/64 76/76/76 86/86/86
f 86/86/86 87/87/87 64/64/64
f 88/88/88 64/64/64 87/87/87
f 74/74/74 66/66/66 86/86/86
f 56/56/56 86/86/86 66/66/66
f 56/56/56 89/89/89 86/86/86
f 82/82/82 46/46/46 80/80/80
f 82/82/82 84/84/84 46/46/46
f 44/44/44 80/80/80 46/46/46
f 80/80/80 44/44/44 71/71/71
f 48/48/48 71/71/71 44/44/44
f 48/48/48 50/50/50 71/71/71
f 69/69/69 71/71/71 50/50/50
f 69/69/69 50/50/50 65/65/65
f 90/90/90 86/86/86 55/55/55
f 58/58/58 46/46/46 84/84/84
f 84/84/84 77/77/77 58/58/58
f 59/59/59 58/58/58 77/77/77
f 77/77/77 76/76/76 59/59/59
f 61/61/61 59/59/59 76/76/76
f 93/93/93 92/92/92 91/91/91
f 94/94/94 91/91/91 92/92/92
f 91/91/91 95/95/95 93/93/93
f 96/96/96 93/93/93 95/95/95
f 93/93/93 97/97/97 92/92/92
f 93/93/93 96/96/96 97/97/97
f 98/98/98 92/92/92 97/97/97
f 99/99/99 97/97/97 96/96/96
f 97/97/97 100/100/100 98/98/98
f 101/101/101 98/98/98 100/100/100
f 100/100/100 97/97/97 102/102/102
f 99/99/99 102/102/102 97/97/97
f 102/102/102 103/103/103 100/100/100
f 104/104/104 100/100/100 103/103/103
f 100/100/100 104/104/104 105/105/105
f 106/106/106 105/105/105 104/104/104
f 104/104/104 103/103/103 107/107/107
f 104/104/104 107/107/107 108/108/108
f 109/109/109 108/108/108 107/107/107
f 110/110/110 107/107/107 103/103/103
f 107/107/107 111/111/111 109/109/109
f 107/107/107 110/110/110 111/111/111
f 112/112/112 109/109/109 111/111/111
f 113/113/113 111/111/111 110/110/110
f 111/111/111 114/114/114 112/112/112
f 115/115/115 112/112/112 114/114/114
f 111/111/111 116/116/116 114/114/114
f 117/117/117 114/114/114 116/116/116
f 115/115/115 114/114/114 118/118/118
f 119/119/119 118/118/118 114/114/114
f 118/118/118 119/119/119 120/120/120
f 121/121/121 120/120/120 119/119/119
f 119/119/119 122/122/122 121/121/121
f 119/119/119 114/114/114 122/122/122
f 117/117/117 122/122/122 114/114/114
f 123/123/123 121/121/121 122/122/122
f 94/94/94 124/124/124 91/91/91
f 125/125/125 91/91/91 124/124/124
f 91/91/91 125/125/125 95/95/95
f 124/124/124 126/126/126 125/125/125
f 127/127/127 125/125/125 126/126/126
f 127/127/127 128/128/128 125/125/125
f 95/95/95 125/125/125 128/128/128
f 126/126/126 129/129/129 127/127/127
f 130/130/130 127/127/127 129/129/129
f 127/127/127 130/130/130 128/128/128
f 131/131/131 128/128/128 130/130/130
f 134/134/134 133/133/133 132/132/132
f 135/135/135 132/132/132 133/133/133
f 133/133/133 134/134/134 136/136/136
f 137/137/137 136/136/136 134/134/134
f 137/137/137 138/138/138 136/136/136
f 139/139/139 136/136/136 138/138/138
f 134/134/134 132/132/132 140/140/140
f 134/134/134 140/140/140 137/137/137
f 141/141/141 140/140/140 132/132/132
f 140/140/140 141/141/141 142/142/142
f 143/143/143 142/142/142 141/141/141
f 144/144/144 137/137/137 140/140/140
f 138/138/138 137/137/137 145/145/145
f 144/144/144 145/145/145 137/137/137
f 145/145/145 146/146/146 138/138/138
f 147/147/147 138/138/138 146/146/146
f 138/138/138 147/147/147 148/148/148
f 149/149/149 148/148/148 147/147/147
f 146/146/146 145/145/145 150/150/150
f 151/151/151 150/150/150 145/145/145
f 145/145/145 144/144/144 152/152/152
f 151/151/151 145/145/145 152/152/152
f 153/153/153 152/152/152 144/144/144
f 153/153/153 154/154/154 152/152/152
f 155/155/155 152/152/152 154/154/154
f 153/153/153 144/144/144 156/156/156
f 157/157/157 156/156/156 144/144/144
f 156/156/156 158/158/158 153/153/153
f 159/159/159 153/153/153 158/158/158
f 158/158/158 156/156/156 160/160/160
f 160/160/160 156/156/156 161/161/161
f 162/162/162 161/161/161 156/156/156
f 160/160/160 163/163/163 158/158/158
f 164/164/164 158/158/158 163/163/163
f 165/165/165 152/152/152 155/155/155
f 165/165/165 166/166/166 152/152/152
f 151/151/151 152/152/152 166/166/166
f 166/166/166 167/167/167 151/151/151
f 167/167/167 166/166/166 168/168/168
f 165/165/165 155/155/155 169/169/169
f 171/171/171 170/170/170 154/154/154
f 167/167/167 172/172/172 151/151/151
f 150/150/150 151/151/151 173/173/173
f 173/173/173 174/174/174 150/150/150
f 175/175/175 150/150/150 174/174/174
f 171/171/171 154/154/154 153/153/153
f 178/178/178 177/177/177 176/176/176
f 177/177/177 178/178/178 179/179/179
f 179/179/179 180/180/180 177/177/177
f 181/181/181 177/177/177 180/180/180
f 180/180/180 182/182/182 181/181/181
f 183/183/183 181/181/181 182/182/182
f 180/180/180 179/179/179 184/184/184
f 185/185/185 184/184/184 179/179/179
f 182/182/182 180/180/180 186/186/186
f 184/184/184 186/186/186 180/180/180
f 182/182/182 186/186/186 187/187/187
f 188/188/188 187/187/187 186/186/186
f 188/188/188 189/189/189 187/187/187
f 190/190/190 187/187/187 189/189/189
f 189/189/189 191/191/191 190/190/190
f 190/190/190 191/191/191 192/192/192
f 193/193/193 192/192/192 191/191/191
f 193/193/193 194/194/194 192/192/192
f 195/195/195 192/192/192 194/194/194
f 184/184/184 185/185/185 196/196/196
f 197/197/197 196/196/196 185/185/185
f 185/185/185 198/198/198 197/197/197
f 198/198/198 185/185/185 199/199/199
f 179/179/179 199/199/199 185/185/185
f 199/199/199 179/179/179 178/178/178
f 200/200/200 196/196/196 197/197/197
f 196/196/196 200/200/200 201/201/201
f 202/202/202 201/201/201 200/200/200
f 202/202/202 203/203/203 201/201/201
f 204/204/204 201/201/201 203/203/203
f 204/204/204 203/203/203 205/205/205
f 203/203/203 206/206/206 205/205/205
f 207/207/207 205/205/205 206/206/206
f 207/207/207 206/206/206 208/208/208
f 209/209/209 208/208/208 206/206/206
f 209/209/209 210/210/210 208/208/208
f 211/211/211 208/208/208 210/210/210
f 211/211/211 210/210/210 212/212/212
f 213/213/213 212/212/212 210/210/210
f 208/208/208 211/211/211 214/214/214
f 215/215/215 214/214/214 211/211/211
f 214/214/214 216/216/216 208/208/208
f 207/207/207 208/208/208 216/216/216
f 205/205/205 207/207/207 217/217/217
f 216/216/216 217/217/217 207/207/207
f 205/205/205 217/217/217 189/189/189
f 205/205/205 189/189/189 204/204/204
f 218/218/218 189/189/189 217/217/217
f 209/209/209 206/206/206 219/219/219
f 220/220/220 219/219/219 206/206/206
f 219/219/219 221/221/221 209/209/209
f 210/210/210 209/209/209 221/221/221
f 221/221/221 222/222/222 210/210/210
f 213/213/213 210/210/210 222/222/222
f 215/215/215 211/211/211 223/223/223
f 212/212/212 223/223/223 211/211/211
f 188/188/188 204/204/204 189/189/189
f 188/188/188 186/186/186 204/204/204
f 201/201/201 204/204/204 186/186/186
f 186/186/186 184/184/184 201/201/201
f 196/196/196 201/201/201 184/184/184
f 225/225/225 224/224/224 177/177/177
f 177/177/177 181/181/181 225/225/225
f 226/226/226 225/225/225 181/181/181
f 226/226/226 181/181/181 227/227/227
f 183/183/183 227/227/227 181/181/181
f 227/227/227 183/183/183 228/228/228
f 229/229/229 228/228/228 183/183/183
f 183/183/183 182/182/182 229/229/229
f 187/187/187 229/229/229 182/182/182
f 187/187/187 190/190/190 229/229/229
f 230/230/230 229/229/229 190/190/190
f 229/229/229 230/230/230 228/228/228
f 192/192/192 230/230/230 190/190/190
f 192/192/192 195/195/195 230/230/230
f 231/231/231 230/230/230 195/195/195
f 232/232/232 228/228/228 230/230/230
f 232/232/232 230/230/230 233/233/233
f 234/234/234 233/233/233 230/230/230
f 236/236/236 197/197/197 235/235/235
f 197/197/197 236/236/236 237/237/237
f 238/238/238 237/237/237 236/236/236
f 237/237/237 238/238/238 239/239/239
f 239/239/239 240/240/240 237/237/237
f 239/239/239 241/241/241 240/240/240
f 239/239/239 242/242/242 241/241/241
f 242/242/242 239/239/239 238/238/238
f 243/243/243 241/241/241 242/242/242
f 244/244/244 240/240/240 241/241/241
f 245/245/245 237/237/237 240/240/240
f 237/237/237 245/245/245 197/197/197
f 200/200/200 197/197/197 245/245/245
f 200/200/200 245/245/245 246/246/246
f 246/246/246 245/245/245 247/247/247
f 245/245/245 240/240/240 248/248/248
f 249/249/249 248/248/248 240/240/240
f 240/240/240 244/244/244 249/249/249
f 246/246/246 250/250/250 200/200/200
f 250/250/250 246/246/246 251/251/251
f 252/252/252 251/251/251 246/246/246
f 251/251/251 252/252/252 253/253/253
f 254/254/254 253/253/253 252/252/252
f 254/254/254 252/252/252 255/255/255
f 256/256/256 255/255/255 252/252/252
f 256/256/256 252/252/252 247/247/247
f 251/251/251 257/257/257 250/250/250
f 258/258/258 250/250/250 257/257/257
f 255/255/255 259/259/259 254/254/254
f 260/260/260 254/254/254 259/259/259
f 260/260/260 261/261/261 254/254/254
f 253/253/253 254/254/254 261/261/261
f 257/257/257 251/251/251 262/262/262
f 253/253/253 262/262/262 251/251/251
f 262/262/262 253/253/253 263/263/263
f 264/264/264 263/263/263 253/253/253
f 250/250/250 266/266/266 265/265/265
f 202/202/202 250/250/250 265/265/265
f 265/265/265 267/267/267 202/202/202
f 203/203/203 202/202/202 267/267/267
f 265/265/265 268/268/268 267/267/267
f 269/269/269 267/267/267 268/268/268
f 269/269/269 270/270/270 267/267/267
f 271/271/271 267/267/267 270/270/270
f 270/270/270 269/269/269 272/272/272
f 273/273/273 272/272/272 269/269/269
f 269/269/269 268/268/268 273/273/273
f 268/268/268 265/265/265 274/274/274
f 268/268/268 274/274/274 275/275/275
f 275/275/275 273/273/273 268/268/268
f 276/276/276 275/275/275 274/274/274
f 273/273/273 275/275/275 277/277/277
f 273/273/273 277/277/277 272/272/272
f 278/278/278 277/277/277 275/275/275
f 278/278/278 275/275/275 279/279/279
f 276/276/276 279/279/279 275/275/275
f 202/202/202 200/200/200 250/250/250
f 267/267/267 271/271/271 206/206/206
f 203/203/203 267/267/267 206/206/206
f 281/281/281 272/272/272 280/280/280
f 284/284/284 283/283/283 282/282/282
f 285/285/285 282/282/282 283/283/283
f 284/284/284 282/282/282 286/286/286
f 287/287/287 286/286/286 282/282/282
f 287/287/287 288/288/288 286/286/286
f 289/289/289 286/286/286 288/288/288
f 286/286/286 289/289/289 290/290/290
f 291/291/291 290/290/290 289/289/289
f 289/289/289 292/292/292 291/291/291
f 292/292/292 293/293/293 291/291/291
f 294/294/294 291/291/291 293/293/293
f 292/292/292 295/295/295 293/293/293
f 292/292/292 289/289/289 295/295/295
f 288/288/288 295/295/295 289/289/289
f 296/296/296 293/293/293 295/295/295
f 295/295/295 297/297/297 296/296/296
f 288/288/288 297/297/297 295/295/295
f 288/288/288 287/287/287 297/297/297
f 298/298/298 296/296/296 297/297/297
f 293/293/293 296/296/296 299/299/299
f 299/299/299 294/294/294 293/293/293
f 299/299/299 300/300/300 294/294/294
f 301/301/301 294/294/294 300/300/300
f 300/300/300 299/299/299 302/302/302
f 303/303/303 302/302/302 299/299/299
f 303/303/303 299/299/299 296/296/296
f 303/303/303 296/296/296 298/298/298
f 303/303/303 298/298/298 304/304/304
f 306/306/306 304/304/304 305/305/305
f 307/307/307 297/297/297 287/287/287
f 310/310/310 309/309/309 308/308/308
f 313/313/313 312/312/312 311/311/311
f 314/314/314 311/311/311 312/312/312
f 314/314/314 315/315/315 311/311/311
f 316/316/316 311/311/311 315/315/315
f 314/314/314 317/317/317 315/315/315
f 314/314/314 312/312/312 317/317/317
f 317/317/317 312/312/312 318/318/318
f 319/319/319 318/318/318 312/312/312
f 317/317/317 318/318/318 320/320/320
f 320/320/320 315/315/315 317/317/317
f 321/321/321 320/320/320 318/318/318
f 315/315/315 320/320/320 322/322/322
f 321/321/321 323/323/323 320/320/320
f 322/322/322 320/320/320 323/323/323
f 316/316/316 315/315/315 324/324/324
f 322/322/322 324/324/324 315/315/315
f 318/318/318 325/325/325 321/321/321
f 325/325/325 318/318/318 319/319/319
f 319/319/319 326/326/326 325/325/325
f 327/327/327 325/325/325 326/326/326
f 327/327/327 326/326/326 328/328/328
f 327/327/327 328/328/328 325/325/325
f 329/329/329 328/328/328 326/326/326
f 329/329/329 326/326/326 330/330/330
f 331/331/331 330/330/330 326/326/326
f 332/332/332 325/325/325 328/328/328
f 332/332/332 321/321/321 325/325/325
f 332/332/332 328/328/328 323/323/323
f 332/332/332 323/323/323 321/321/321
f 333/333/333 323/323/323 328/328/328
f 336/336/336 335/335/335 334/334/334
f 338/338/338 337/337/337 335/335/335
f 336/336/336 340/340/340 339/339/339
f 341/341/341 339/339/339 340/340/340
f 339/339/339 341/341/341 342/342/342
f 343/343/343 342/342/342 341/341/341
f 343/343/343 341/341/341 344/344/344
f 345/345/345 344/344/344 341/341/341
f 344/344/344 345/345/345 346/346/346
f 347/347/347 346/346/346 345/345/345
f 347/347/347 348/348/348 346/346/346
f 349/349/349 346/346/346 348/348/348
f 347/347/347 350/350/350 348/348/348
f 351/351/351 348/348/348 350/350/350
f 345/345/345 352/352/352 347/347/347
f 343/343/343 344/344/344 353/353/353
f 353/353/353 342/342/342 343/343/343
f 354/354/354 353/353/353 344/344/344
f 354/354/354 355/355/355 353/353/353
f 356/356/356 353/353/353 355/355/355
f 353/353/353 356/356/356 342/342/342
f 354/354/354 357/357/357 355/355/355
f 346/346/346 357/357/357 344/344/344
f 354/354/354 344/344/344 357/357/357
f 346/346/346 349/349/349 357/357/357
f 349/349/349 358/358/358 357/357/357
f 359/359/359 357/357/357 358/358/358
f 360/360/360 355/355/355 357/357/357
f 356/356/356 355/355/355 361/361/361
f 361/361/361 362/362/362 356/356/356
f 363/363/363 361/361/361 355/355/355
f 365/365/365 364/364/364 356/356/356
f 365/365/365 356/356/356 366/366/366
f 352/352/352 345/345/345 367/367/367
f 341/341/341 367/367/367 345/345/345
f 370/370/370 369/369/369 368/368/368
f 371/371/371 368/368/368 369/369/369
f 368/368/368 371/371/371 372/372/372
f 373/373/373 372/372/372 371/371/371
f 371/371/371 374/374/374 373/373/373
f 371/371/371 375/375/375 374/374/374
f 376/376/376 374/374/374 375/375/375
f 377/377/377 373/373/373 374/374/374
f 368/368/368 372/372/372 193/193/193
f 368/368/368 193/193/193 370/370/370
f 194/194/194 193/193/193 372/372/372
f 191/191/191 370/370/370 193/193/193
f 379/379/379 347/347/347 378/378/378
f 382/382/382 381/381/381 380/380/380
f 381/381/381 382/382/382 383/383/383
f 384/384/384 383/383/383 382/382/382
f 381/381/381 383/383/383 385/385/385
f 381/381/381 385/385/385 386/386/386
f 386/386/386 387/387/387 381/381/381
f 388/388/388 386/386/386 385/385/385
f 386/386/386 388/388/388 389/389/389
f 388/388/388 390/390/390 389/389/389
f 388/388/388 385/385/385 390/390/390
f 391/391/391 389/389/389 390/390/390
f 383/383/383 392/392/392 385/385/385
f 393/393/393 385/385/385 392/392/392
f 393/393/393 390/390/390 385/385/385
f 393/393/393 394/394/394 390/390/390
f 394/394/394 393/393/393 392/392/392
f 395/395/395 390/390/390 394/394/394
f 395/395/395 391/391/391 390/390/390
f 395/395/395 394/394/394 396/396/396
f 395/395/395 396/396/396 391/391/391
f 397/397/397 396/396/396 394/394/394
f 394/394/394 392/392/392 397/397/397
f 397/397/397 398/398/398 396/396/396
f 398/398/398 397/397/397 392/392/392
f 399/399/399 396/396/396 398/398/398
f 400/400/400 391/391/391 396/396/396
f 398/398/398 401/401/401 399/399/399
f 402/402/402 399/399/399 401/401/401
f 389/389/389 403/403/403 386/386/386
f 380/380/380 386/386/386 403/403/403
f 406/406/406 405/405/405 404/404/404
f 409/409/409 408/408/408 407/407/407
f 412/412/412 411/411/411 410/410/410
f 410/410/410 413/413/413 412/412/412
f 412/412/412 413/413/413 414/414/414
f 415/415/415 414/414/414 413/413/413
f 410/410/410 416/416/416 413/413/413
f 410/410/410 417/417/417 416/416/416
f 417/417/417 410/410/410 418/418/418
f 419/419/419 416/416/416 417/417/417
f 416/416/416 419/419/419 420/420/420
f 421/421/421 420/420/420 419/419/419
f 422/422/422 413/413/413 416/416/416
f 416/416/416 420/420/420 422/422/422
f 413/413/413 422/422/422 415/415/415
f 422/422/422 420/420/420 423/423/423
f 423/423/423 415/415/415 422/422/422
f 424/424/424 423/423/423 420/420/420
f 415/415/415 423/423/423 425/425/425
f 425/425/425 414/414/414 415/415/415
f 426/426/426 425/425/425 423/423/423
f 426/426/426 423/423/423 424/424/424
f 426/426/426 427/427/427 425/425/425
f 428/428/428 425/425/425 427/427/427
f 428/428/428 427/427/427 429/429/429
f 430/430/430 429/429/429 427/427/427
f 427/427/427 426/426/426 430/430/430
f 424/424/424 430/430/430 426/426/426
f 428/428/428 431/431/431 425/425/425
f 414/414/414 425/425/425 431/431/431
f 433/433/433 430/430/430 432/432/432
f 434/434/434 432/432/432 430/430/430
f 437/437/437 436/436/436 435/435/435
f 439/439/439 438/438/438 265/265/265
f 442/442/442 441/441/441 440/440/440
f 246/246/246 443/443/443 252/252/252
f 444/444/444 249/249/249 244/244/244
f 244/244/244 445/445/445 444/444/444
f 446/446/446 444/444/444 445/445/445
f 244/244/244 241/241/241 447/447/447
f 448/448/448 447/447/447 241/241/241
f 241/241/241 243/243/243 448/448/448
f 449/449/449 448/448/448 243/243/243
f 452/452/452 451/451/451 450/450/450
f 454/454/454 453/453/453 140/140/140
f 144/144/144 140/140/140 453/453/453
f 457/457/457 456/456/456 455/455/455
f 458/458/458 455/455/455 456/456/456
f 455/455/455 458/458/458 459/459/459
f 460/460/460 459/459/459 458/458/458
f 461/461/461 456/456/456 457/457/457
f 464/464/464 463/463/463 462/462/462
f 464/464/464 465/465/465 463/463/463
f 463/463/463 465/465/465 462/462/462
f 464/464/464 466/466/466 465/465/465
f 467/467/467 465/465/465 466/466/466
f 466/466/466 468/468/468 467/467/467
f 469/469/469 467/467/467 468/468/468
f 468/468/468 470/470/470 469/469/469
f 471/471/471 469/469/469 470/470/470
f 471/471/471 470/470/470 472/472/472
f 473/473/473 472/472/472 470/470/470
f 476/476/476 475/475/475 474/474/474
f 477/477/477 474/474/474 475/475/475
f 477/477/477 475/475/475 478/478/478
f 479/479/479 478/478/478 475/475/475
f 478/478/478 479/479/479 480/480/480
f 482/482/482 481/481/481 479/479/479
f 481/481/481 484/484/484 483/483/483
f 484/484/484 485/485/485 483/483/483
f 484/484/484 486/486/486 485/485/485
f 485/485/485 486/486/486 487/487/487
f 490/490/490 489/489/489 488/488/488
f 491/491/491 488/488/488 489/489/489
f 489/489/489 490/490/490 492/492/492
f 493/493/493 492/492/492 490/490/490
f 493/493/493 494/494/494 492/492/492
f 495/495/495 492/492/492 494/494/494
f 496/496/496 495/495/495 494/494/494
f 497/497/497 495/495/495 496/496/496
f 498/498/498 497/497/497 496/496/496
f 495/495/495 497/497/497 498/498/498
f 501/501/501 500/500/500 499/499/499
f 499/499/499 500/500/500 502/502/502
f 505/505/505 504/504/504 503/503/503
f 505/505/505 503/503/503 506/506/506
f 507/507/507 506/506/506 503/503/503
f 506/506/506 507/507/507 508/508/508
f 509/509/509 508/508/508 507/507/507
f 512/512/512 511/511/511 510/510/510
f 513/513/513 510/510/510 511/511/511
f 511/511/511 514/514/514 513/513/513
f 515/515/515 513/513/513 514/514/514
f 516/516/516 512/512/512 510/510/510
f 518/518/518 517/517/517 514/514/514
f 518/518/518 514/514/514 519/519/519
f 518/518/518 519/519/519 517/517/517
f 522/522/522 521/521/521 520/520/520
f 523/523/523 520/520/520 521/521/521
f 526/526/526 525/525/525 524/524/524
f 527/527/527 524/524/524 525/525/525
f 530/530/530 529/529/529 528/528/528
f 531/531/531 528/528/528 529/529/529
f 534/534/534 533/533/533 532/532/532
f 535/535/535 532/532/532 533/533/533
f 538/538/538 537/537/537 536/536/536
f 539/539/539 536/536/536 537/537/537
f 542/542/542 541/541/541 540/540/540
f 543/543/543 540/540/540 541/541/541
f 542/542/542 540/540/540 544/544/544
f 545/545/545 544/544/544 540/540/540
f 541/541/541 546/546/546 543/543/543
f 549/549/549 548/548/548 547/547/547
f 550/550/550 547/547/547 548/548/548
f 547/547/547 551/551/551 549/549/549
f 552/552/552 549/549/549 551/551/551
f 552/552/552 551/551/551 553/553/553
f 553/553/553 554/554/554 552/552/552
f 555/555/555 554/554/554 553/553/553
f 557/557/557 556/556/556 551/551/551
f 559/559/559 552/552/552 558/558/558
f 562/562/562 561/561/561 560/560/560
f 561/561/561 563/563/563 560/560/560
f 566/566/566 565/565/565 564/564/564
f 567/567/567 564/564/564 565/565/565
f 565/565/565 566/566/566 568/568/568
f 569/569/569 568/568/568 566/566/566
f 569/569/569 570/570/570 568/568/568
f 571/571/571 568/568/568 570/570/570
f 571/571/571 570/570/570 572/572/572
f 573/573/573 571/571/571 572/572/572
f 574/574/574 571/571/571 573/573/573
f 573/573/573 575/575/575 574/574/574
f 578/578/578 577/577/577 576/576/576
f 579/579/579 576/576/576 577/577/577
f 577/577/577 580/580/580 579/579/579
f 581/581/581 579/579/579 580/580/580
f 581/581/581 580/580/580 582/582/582
f 583/583/583 582/582/582 580/580/580
f 584/584/584 582/582/582 583/583/583
f 585/585/585 584/584/584 583/583/583
f 585/585/585 586/586/586 584/584/584
f 585/585/585 587/587/587 586/586/586
f 590/590/590 589/589/589 588/588/588
f 590/590/590 591/591/591 589/589/589
f 594/594/594 593/593/593 592/592/592
f 593/593/593 595/595/595 592/592/592
f 596/596/596 592/592/592 595/595/595
f 595/595/595 597/597/597 596/596/596
f 598/598/598 596/596/596 597/597/597
f 601/601/601 600/600/600 599/599/599
f 602/602/602 599/599/599 600/600/600
f 599/599/599 602/602/602 603/603/603
f 604/604/604 603/603/603 602/602/602
f 601/601/601 605/605/605 600/600/600
f 604/604/604 607/607/607 606/606/606
f 606/606/606 607/607/607 608/608/608
f 607/607/607 604/604/604 608/608/608
f 611/611/611 610/610/610 609/609/609
f 612/612/612 609/609/609 610/610/610
f 615/615/615 614/614/614 613/613/613
f 616/616/616 613/613/613 614/614/614
f 619/619/619 618/618/618 617/617/617
f 620/620/620 617/617/617 618/618/618
f 623/623/623 622/622/622 621/621/621
f 624/624/624 621/621/621 622/622/622
f 627/627/627 626/626/626 625/625/625
f 628/628/628 625/625/625 626/626/626
f 631/631/631 630/630/630 629/629/629
f 631/631/631 632/632/632 630/630/630
