g blue_asn_m_pve_3_helm
v 0.046367541 -0.0858951956 0.0977922007
v -0 -0.103468157 0.103932649
v 0.0199442916 -0.104543127 0.107066035
v 0.0505769402 -0.0959932506 0.0620252974
v -0 -0.118434392 0.0620098859
v 0.0249404591 -0.122092642 0.0190025326
v -0 -0.124067217 0.010991211
v 0.0541269667 -0.101365246 0.0269287098
v 0.0276148692 -0.115686722 -0.00425811764
v -0 -0.140800491 0.0113078309
v 0.0363940597 -0.135192245 -0.00476242043
v -0 -0.150061652 0.00683319056
v 0.0656462684 -0.0991716161 -0.0173385609
v 0.052223701 -0.0897056386 -0.0144392392
v 0.0591832772 -0.0956033766 -0.00138916017
v 0.0785842314 -0.0511258841 0.00538787851
v 0.0707610175 -0.0475772135 0.0387942493
v 0.0642900914 -0.0549874455 0.0704696625
v 0.0798114315 -0.0485231765 -0.0242687985
v 0.0687737241 -0.050955534 -0.0189819336
v 0.0621778108 -0.0639003962 -0.0619595312
v 0.0506891906 -0.0957078412 -0.0580163561
v 0.0465831161 -0.10104271 -0.0799807757
v 0.0725585967 -0.0308252424 -0.0619453415
v 0.0711751282 -0.0286410954 -0.100540772
v 0.0623397492 -0.0872101784 -0.112008207
v 0.0303152706 -0.121902674 -0.053052213
v 0.0297137182 -0.123943806 -0.0803970322
v -0 -0.140697941 -0.0331004336
v -0 -0.142805636 -0.0744665489
v 0.0418693312 -0.133854896 -0.123772427
v -0 -0.166158214 -0.124909513
v -0 -0.169418901 -0.138325036
v -0.0363940597 -0.135192245 -0.00476242043
v -0.0276148692 -0.115686722 -0.00425811764
v -0.0656462684 -0.0991716161 -0.0173385609
v -0.052223701 -0.0897056386 -0.0144392392
v -0.0591832772 -0.0956033766 -0.00138916017
v -0.0249404591 -0.122092642 0.0190025326
v -0.0505769402 -0.0959932506 0.0620252974
v -0.0541269667 -0.101365246 0.0269287098
v -0.046367541 -0.0858951956 0.0977922007
v -0.0199442916 -0.104543127 0.107066035
v -0.0785842314 -0.0511258841 0.00538787851
v -0.0707610175 -0.0475772135 0.0387942493
v -0.0642900914 -0.0549874455 0.0704696625
v -0.0798114315 -0.0485231765 -0.0242687985
v -0.0687737241 -0.050955534 -0.0189819336
v -0.0798114315 -0.0485231765 -0.0242687985
v -0.0621778108 -0.0639003962 -0.0619595312
v -0.0725585967 -0.0308252424 -0.0619453415
v -0.0711751282 -0.0286410954 -0.100540772
v -0.0623397492 -0.0872101784 -0.112008207
v -0.0465831161 -0.10104271 -0.0799807757
v -0.0506891906 -0.0957078412 -0.0580163561
v -0.0303152706 -0.121902674 -0.053052213
v -0.0297137182 -0.123943806 -0.0803970322
v -0.0418693312 -0.133854896 -0.123772427
v -0 -0.169418901 -0.138325036
v -0 -0.169418901 -0.138325036
v -0 -0.164027244 -0.142223209
v 0.0179778002 -0.0988207385 -0.110078886
v -0 -0.0926789269 -0.120104827
v -0 -0.164027244 -0.142223209
v 0.0317544378 -0.0738366991 -0.106478877
v -0 -0.060917899 -0.119075775
v 0.01385759 -0.0362032838 -0.115804896
v -0 -0.0409871526 -0.119250946
v -0 -0.0337239914 -0.129978031
v 0.0150076197 -0.0298423544 -0.128685296
v -0 -0.0372772254 -0.167348474
v 0.0324728452 -0.0351483114 -0.16061005
v 0.0254610013 -0.0585293099 -0.197255239
v -0 -0.0494142808 -0.210413203
v 0.0634013265 -0.05069796 -0.192632437
v 0.0498168878 -0.0120784566 -0.0996719375
v 0.0653221756 -0.0076334523 -0.142579183
v 0.0711751282 -0.0286410954 -0.100540772
v 0.0623397492 -0.0872101784 -0.112008207
v 0.0418693312 -0.133854896 -0.123772427
v 0.0920004696 -0.0118170688 -0.182745054
v 0.106833942 0.0227833223 -0.145429984
v 0.0744031966 0.0164173879 -0.124451749
v 0.0650440007 -0.0520572737 -0.195352629
v -0.0254610013 -0.0585293099 -0.197255239
v -0.0324728452 -0.0351483114 -0.16061005
v -0.0634013265 -0.05069796 -0.192632437
v -0.0150076197 -0.0298423544 -0.128685296
v -0.01385759 -0.0362032838 -0.115804896
v -0.0317544378 -0.0738366991 -0.106478877
v -0.0179778002 -0.0988207385 -0.110078886
v -0.0498168878 -0.0120784566 -0.0996719375
v -0.0653221756 -0.0076334523 -0.142579183
v -0.0711751282 -0.0286410954 -0.100540772
v -0.0623397492 -0.0872101784 -0.112008207
v -0.0742399469 0.0159850307 -0.124777675
v -0.106833942 0.0227833223 -0.145429984
v -0.0920004696 -0.0118170688 -0.182745054
v -0.0418693312 -0.133854896 -0.123772427
v -0.0650440007 -0.0520572737 -0.195352629
v 0.0498168878 -0.0120784566 -0.0996719375
v 0.0744031966 0.0164173879 -0.124451749
v -0 -0.164027244 -0.142223209
v -0 -0.169418901 -0.138325036
v -0 -0.062776126 0.129988402
v 0.0137981772 -0.0783793926 0.126075745
v -0 -0.0747640207 0.13283065
v 0.0237633679 -0.079613477 0.122317657
v 0.0432213023 -0.050791692 0.121739499
v 0.0451953821 -0.0689615831 0.111793362
v -0 -0.0190401971 0.144482419
v 0.0148596298 -0.00547288405 0.149344176
v -0 -0.013581452 0.150350943
v 0.056482926 -0.0292198751 0.119862363
v 0.0418115333 0.014701209 0.130372316
v 0.022239795 -0.106966808 0.109446406
v 0.0650376678 -0.0702415854 0.0924194306
v 0.0598025545 -0.0927177444 0.0778147876
v 0.0478087887 -0.14097622 0.0377507024
v 0.0111814747 -0.159647197 0.0618150309
v -0 -0.119147204 0.103096768
v -0 -0.16216132 0.0655818135
v -0 -0.116658688 0.111785121
v 0.0181877669 -0.105172977 0.116345666
v 0.0763233081 -0.114570357 0.00159866328
v 0.086281009 -0.0511642955 0.0228761286
v 0.0859051943 -0.102768399 -0.0203222651
v 0.0921382979 -0.0238718353 -0.024248505
v 0.099154897 -0.0721788108 -0.113951415
v 0.10132838 -0.00869714748 -0.0916189551
v 0.106110543 -0.00524450745 -0.123203278
v 0.0977617055 -0.0682671815 -0.13248229
v 0.0926430598 -0.0342711471 -0.162309259
v 0.0650440007 -0.0520572737 -0.195352629
v 0.0961850062 -0.0126432702 -0.189359277
v 0.111089006 0.036255721 -0.14872925
v 0.107376009 0.0630877167 -0.113756403
v 0.0998997986 0.0500794575 -0.0930902064
v 0.0949983597 0.0412067994 -0.0685739145
v 0.0886883363 0.0320640542 -0.0137942499
v 0.0781626925 0.0888103396 -0.086864315
v 0.0726742148 0.0839099213 -0.0592639148
v 0.0505922697 0.115420908 -0.0896298215
v 0.0433263667 0.111005343 -0.0637173429
v 0.0436438322 0.112069301 -0.02725235
v 0.0760460049 0.0750714689 -0.0051036072
v 0.0469160303 0.114970468 0.0141024776
v -0 0.132941529 0.0108670043
v -0 0.125563309 0.059944611
v 0.046991542 0.108088069 0.0652850345
v -0 0.10456457 0.100383148
v 0.0428633727 0.0905252174 0.100605771
v -0 0.12842226 -0.0358049013
v 0.0805602893 0.0600652024 0.0585331731
v 0.0878034681 0.0097176116 0.0420884714
v 0.0740572289 -0.0505606122 0.0857762098
v 0.0708713606 -0.0292846654 0.101275787
v -0 0.0695840791 0.132644042
v 0.0398498587 0.061359413 0.124573059
v 0.0113556525 0.0165585894 0.150855094
v -0 0.0207070149 0.151948243
v 0.0135041708 0.00320151332 0.149977565
v 0.0749584213 0.0454316325 0.0947386175
v -0 -0.00739987334 0.150874332
v -0.0113556525 0.0165585894 0.150855094
v -0.0398498587 0.061359413 0.124573059
v -0.0418115333 0.014701209 0.130372316
v -0.0135041708 0.00320151332 0.149977565
v -0.0749584213 0.0454316325 0.0947386175
v -0.0708713606 -0.0292846654 0.101275787
v -0.056482926 -0.0292198751 0.119862363
v -0.0148596298 -0.00547288405 0.149344176
v -0.0432213023 -0.050791692 0.121739499
v -0.0237633679 -0.079613477 0.122317657
v -0.0451953821 -0.0689615831 0.111793362
v -0.022239795 -0.106966808 0.109446406
v -0.0650376678 -0.0702415854 0.0924194306
v -0.0598025545 -0.0927177444 0.0778147876
v -0.0478087887 -0.14097622 0.0377507024
v -0.0111814747 -0.159647197 0.0618150309
v -0.0181877669 -0.105172977 0.116345666
v -0.0763233081 -0.114570357 0.00159866328
v -0.086281009 -0.0511642955 0.0228761286
v -0.0859051943 -0.102768399 -0.0203222651
v -0.0921382979 -0.0238718353 -0.024248505
v -0.099154897 -0.0721788108 -0.113951415
v -0.10132838 -0.00869714748 -0.0916189551
v -0.106110543 -0.00524450745 -0.123203278
v -0.0977617055 -0.0682671815 -0.13248229
v -0.0926430598 -0.0342711471 -0.162309259
v -0.0650440007 -0.0520572737 -0.195352629
v -0.0961850062 -0.0126432702 -0.189359277
v -0.111089006 0.036255721 -0.14872925
v -0.107376009 0.0630877167 -0.113756403
v -0.0998997986 0.0500794575 -0.0930902064
v -0.0949983597 0.0412067994 -0.0685739145
v -0.0886883363 0.0320640542 -0.0137942499
v -0.0781626925 0.0888103396 -0.086864315
v -0.0726742148 0.0839099213 -0.0592639148
v -0.0505922697 0.115420908 -0.0896298215
v -0.0433263667 0.111005343 -0.0637173429
v -0.0436438322 0.112069301 -0.02725235
v -0.0760460049 0.0750714689 -0.0051036072
v -0.0469160303 0.114970468 0.0141024776
v -0.046991542 0.108088069 0.0652850345
v -0.0428633727 0.0905252174 0.100605771
v -0.0805602893 0.0600652024 0.0585331731
v -0.0878034681 0.0097176116 0.0420884714
v -0.0740572289 -0.0505606122 0.0857762098
v -0.0758970007 -0.0514330193 0.0962231457
v -0.0683293492 -0.0680190623 0.101501308
v -0.0558922961 -0.067301482 0.114579923
v -0.0626775697 -0.0658073723 0.107119441
v -0.0521919392 -0.0528536066 0.122765958
v -0.072061874 -0.0541114695 0.0976185575
v -0.0627134219 -0.0357071497 0.121862791
v -0.0539685935 -0.0547705591 0.11801666
v -0.0603060238 -0.0415770076 0.120747678
v -0.0741880387 -0.0403183922 0.103393555
v -0.072061874 -0.0541114695 0.0976185575
v -0.0741238222 -0.0359462239 0.105756223
v -0.0672506765 -0.0371819399 0.112619624
v -0.0603060238 -0.0415770076 0.120747678
v -0.0741880387 -0.0403183922 0.103393555
v -0.0672506765 -0.0371819399 0.112619624
v 0.0137981772 -0.0783793926 0.126075745
v 0.0169874616 -0.0952925012 0.121588439
v -0 -0.110077493 0.115027465
v -0.0169874616 -0.0952925012 0.121588439
v -0.0137981772 -0.0783793926 0.126075745
v 0.0169874616 -0.0952925012 0.121588439
v 0.0942240208 0.0996946916 -0.11011444
v 0.0701148063 0.128200144 -0.112310939
v -0 0.142224059 -0.0971383676
v -0 0.131797671 -0.0772744715
v 0.0372715518 0.155577064 -0.123682551
v -0 0.169418901 -0.127802432
v -0.0701148063 0.128200144 -0.112310939
v -0.0942240208 0.0996946916 -0.11011444
v -0.0372715518 0.155577064 -0.123682551
v -0 0.124952771 -0.132327273
v 0.0372715518 0.155577064 -0.123682551
v -0 0.169418901 -0.127802432
v 0.0267770216 0.124604754 -0.13232711
v 0.0701148063 0.128200144 -0.112310939
v -0.0372715518 0.155577064 -0.123682551
v -0.0267770216 0.124604754 -0.13232711
v -0.0701148063 0.128200144 -0.112310939
v -0.0564909875 0.121842779 -0.128301233
v -0.0942240208 0.0996946916 -0.11011444
v 0.0701148063 0.128200144 -0.112310939
v 0.0564909875 0.121842779 -0.128301233
v 0.0942240208 0.0996946916 -0.11011444
v -0 -0.159672633 0.0627239943
v 0.00919015054 -0.157115385 0.0592784099
v 0.0447961465 -0.138786733 0.0360360704
v 0.0725973099 -0.11332836 0.000422058103
v 0.0819127336 -0.102180786 -0.0210467521
v 0.0950753838 -0.0718021765 -0.114111938
v 0.0938271284 -0.0675610751 -0.131570891
v -0.00919015054 -0.157115385 0.0592784099
v -0.0447961465 -0.138786733 0.0360360704
v -0.0725973099 -0.11332836 0.000422058103
v -0.0819127336 -0.102180786 -0.0210467521
v -0.0950753838 -0.0718021765 -0.114111938
v -0.0938271284 -0.0675610751 -0.131570891
v -0.0634013265 -0.05069796 -0.192632437
v -0.0950753838 -0.0718021765 -0.114111938
v 0.0938271284 -0.0675610751 -0.131570891
v 0.0650440007 -0.0520572737 -0.195352629
v 0.0634013265 -0.05069796 -0.192632437
v -0.0521919392 -0.0528536066 0.122765958
v -0.0626775697 -0.0658073723 0.107119441
v -0.0539685935 -0.0547705591 0.11801666
v 0.0521919392 -0.0528536066 0.122765958
v 0.0558922961 -0.067301482 0.114579923
v 0.0627134219 -0.0357071497 0.121862791
v 0.0683293492 -0.0680190623 0.101501308
v 0.0758970007 -0.0514330193 0.0962231457
v 0.0741880387 -0.0403183922 0.103393555
v 0.0741238222 -0.0359462239 0.105756223
v 0.0626775697 -0.0658073723 0.107119441
v 0.0539685935 -0.0547705591 0.11801666
v 0.0603060238 -0.0415770076 0.120747678
v 0.0672506765 -0.0371819399 0.112619624
v 0.0603060238 -0.0415770076 0.120747678
v 0.072061874 -0.0541114695 0.0976185575
v 0.0741880387 -0.0403183922 0.103393555
v 0.072061874 -0.0541114695 0.0976185575
v 0.0741880387 -0.0403183922 0.103393555
v 0.0626775697 -0.0658073723 0.107119441
v 0.0539685935 -0.0547705591 0.11801666
v 0.00919015054 -0.157115385 0.0592784099
v -0 -0.103468157 0.103932649
v -0 -0.159672633 0.0627239943
v -0.00919015054 -0.157115385 0.0592784099
v -0.0199442916 -0.104543127 0.107066035
v -0.0447961465 -0.138786733 0.0360360704
v -0.0565472171 -0.0908384025 0.0761775225
v -0.046367541 -0.0858951956 0.0977922007
v -0.0707610175 -0.0475772135 0.0387942493
v -0.0642900914 -0.0549874455 0.0704696625
v -0.046367541 -0.0858951956 0.0977922007
v -0.0725973099 -0.11332836 0.000422058103
v -0.0785842314 -0.0511258841 0.00538787851
v -0.0819127336 -0.102180786 -0.0210467521
v -0.0798114315 -0.0485231765 -0.0242687985
v -0.0950753838 -0.0718021765 -0.114111938
v -0.0725585967 -0.0308252424 -0.0619453415
v -0.0711751282 -0.0286410954 -0.100540772
v -0.102051392 -0.00471217139 -0.123426661
v -0.0938271284 -0.0675610751 -0.131570891
v -0.090930514 -0.0315084755 -0.159235835
v -0.0634013265 -0.05069796 -0.192632437
v -0.0920004696 -0.0118170688 -0.182745054
v -0.106833942 0.0227833223 -0.145429984
v -0.0920004696 -0.0118170688 -0.182745054
v -0.0711751282 -0.0286410954 -0.100540772
v -0.0498168878 -0.0120784566 -0.0996719375
v -0.0742399469 0.0159850307 -0.124777675
v -0.106833942 0.0227833223 -0.145429984
v 0.00919015054 -0.157115385 0.0592784099
v 0.0199442916 -0.104543127 0.107066035
v 0.0565472171 -0.0908384025 0.0761775225
v 0.046367541 -0.0858951956 0.0977922007
v 0.0447961465 -0.138786733 0.0360360704
v 0.0642900914 -0.0549874455 0.0704696625
v 0.0707610175 -0.0475772135 0.0387942493
v 0.0725973099 -0.11332836 0.000422058103
v 0.0785842314 -0.0511258841 0.00538787851
v 0.0819127336 -0.102180786 -0.0210467521
v 0.0798114315 -0.0485231765 -0.0242687985
v 0.0950753838 -0.0718021765 -0.114111938
v 0.0725585967 -0.0308252424 -0.0619453415
v 0.0711751282 -0.0286410954 -0.100540772
v 0.102051392 -0.00471217139 -0.123426661
v 0.0498168878 -0.0120784566 -0.0996719375
v 0.0744031966 0.0164173879 -0.124451749
v 0.106833942 0.0227833223 -0.145429984
v 0.090930514 -0.0315084755 -0.159235835
v 0.0938271284 -0.0675610751 -0.131570891
v 0.0634013265 -0.05069796 -0.192632437
v 0.106833942 0.0227833223 -0.145429984
v 0.0920004696 -0.0118170688 -0.182745054
v 0.0634013265 -0.05069796 -0.192632437
v 0.0950753838 -0.0718021765 -0.114111938
v 0.0785842314 -0.0511258841 0.00538787851
v 0.0798114315 -0.0485231765 -0.0242687985
v 0.0687737241 -0.050955534 -0.0189819336
v 0.0106503125 0.0196617357 0.16084899
v 0.0130917234 0.00517507549 0.156454772
v 0.012380627 0.0115511753 0.167088166
v 0.0113556525 0.0165585894 0.150855094
v -0 -0.00247195712 0.160569295
v -0 0.00624758704 0.170873567
v 0.00739343511 0.030134907 0.175718844
v 0.00846571941 0.0266733933 0.179650873
v 0.00480446918 0.0389470011 0.184547722
v -0 0.0312347598 0.17462036
v -0 0.0402289182 0.182928309
v -0 0.0223802123 0.15906921
v 0.0113556525 0.0165585894 0.150855094
v -0 0.0207070149 0.151948243
v -0 0.037889041 0.185825795
v -0 0.0245890133 0.18202956
v -0 0.0475736335 0.186961964
v 0.0135041708 0.00320151332 0.149977565
v 0.0113556525 0.0165585894 0.150855094
v -0 -0.00739987334 0.150874332
v -0.00846571941 0.0266733933 0.179650873
v -0.00480446918 0.0389470011 0.184547722
v -0.012380627 0.0115511753 0.167088166
v -0.0130917234 0.00517507549 0.156454772
v -0.0106503125 0.0196617357 0.16084899
v -0.0113556525 0.0165585894 0.150855094
v -0.00739343511 0.030134907 0.175718844
v -0.00480446918 0.0389470011 0.184547722
v -0 0.0312347598 0.17462036
v -0.00480446918 0.0389470011 0.184547722
v -0 0.0223802123 0.15906921
v -0.0113556525 0.0165585894 0.150855094
v -0 0.0207070149 0.151948243
v -0.0135041708 0.00320151332 0.149977565
v -0 0.0312347598 0.17462036
v -0 0.0402289182 0.182928309
v -0 0.0475736335 0.186961964
v 0.0107622109 -0.0768837482 0.152612299
v 0.0159250274 -0.0949361622 0.133831486
v 0.0129870838 -0.0892289355 0.157341301
v 0.0137981772 -0.0783793926 0.126075745
v -0 -0.10609211 0.135635376
v -0 -0.097324729 0.160137475
v 0.00648122374 -0.0691733062 0.177014306
v 0.00782352872 -0.0757225007 0.181351155
v -0 -0.06740693 0.175796956
v -0 -0.0736362413 0.151253968
v 0.0137981772 -0.0783793926 0.126075745
v -0 -0.0747640207 0.13283065
v 0.0169874616 -0.0952925012 0.121588439
v -0 -0.079856202 0.18395035
v 0.0169874616 -0.0952925012 0.121588439
v -0 -0.110077493 0.115027465
v 0.00521568628 -0.0674696341 0.191312402
v 0.00432081707 -0.063137494 0.188530415
v 0.00287431502 -0.05816577 0.200835571
v -0 -0.0619722791 0.187754825
v -0 -0.0559218377 0.199460134
v -0 -0.0600137562 0.201920316
v -0 -0.0701966211 0.192986906
v -0 -0.0493185595 0.210413203
v -0 -0.0493185595 0.210413203
v -0.00521568628 -0.0674696341 0.191312402
v -0.00287431502 -0.05816577 0.200835571
v -0.00432081707 -0.063137494 0.188530415
v -0 -0.0619722791 0.187754825
v -0 -0.0559218377 0.199460134
v -0.00648122374 -0.0691733062 0.177014306
v -0.00782352872 -0.0757225007 0.181351155
v -0.0129870838 -0.0892289355 0.157341301
v -0.0107622109 -0.0768837482 0.152612299
v -0.0159250274 -0.0949361622 0.133831486
v -0.0137981772 -0.0783793926 0.126075745
v -0.0169874616 -0.0952925012 0.121588439
v -0 -0.06740693 0.175796956
v -0 -0.0736362413 0.151253968
v -0.0137981772 -0.0783793926 0.126075745
v -0 -0.0747640207 0.13283065
v -0.0785842314 -0.0511258841 0.00538787851
v -0.0687737241 -0.050955534 -0.0189819336
v -0.0798114315 -0.0485231765 -0.0242687985
v -0 -0.0493185595 0.210413203
v -0 -0.0493185595 0.210413203
v -0.0741880387 -0.0403183922 0.103393555
v -0.0829502195 -0.0389968157 0.114265896
v -0.0841464028 -0.0502243713 0.111948237
v -0.0917003602 -0.0310763493 0.128482357
v -0.0948889032 -0.0350681618 0.130060732
v -0.096639514 -0.0238350723 0.137727499
v -0.0872568116 -0.0299974252 0.131478116
v -0.096639514 -0.0238350723 0.137727499
v -0.0752064064 -0.0363533869 0.119843446
v -0.0741880387 -0.0403183922 0.103393555
v -0.0672506765 -0.0371819399 0.112619624
v -0.0776132122 -0.0576398596 0.122228391
v -0.0917907879 -0.0377096124 0.135840148
v -0.0668543205 -0.051032979 0.128487244
v -0.0857723057 -0.0355084352 0.138804778
v -0.069420591 -0.0396172665 0.127217561
v -0.0603060238 -0.0415770076 0.120747678
v -0.0841389224 -0.031432882 0.1357373
v -0.0752064064 -0.0363533869 0.119843446
v -0.0872568116 -0.0299974252 0.131478116
v -0.092967011 -0.0240038205 0.14125137
v -0.0937972143 -0.0224041939 0.138513327
v -0.0955914035 -0.0251644328 0.140254661
v -0.096639514 -0.0238350723 0.137727499
v -0.0971478075 -0.0157809388 0.142402187
v -0.0971478075 -0.0157809388 0.142402187
v -0.0539685935 -0.0547705591 0.11801666
v -0.0626775697 -0.0658073723 0.107119441
v -0.072061874 -0.0541114695 0.0976185575
v -0.0603060238 -0.0415770076 0.120747678
v -0.0672506765 -0.0371819399 0.112619624
v -0.0752064064 -0.0363533869 0.119843446
v -0.0872568116 -0.0299974252 0.131478116
v -0.0937972143 -0.0224041939 0.138513327
v -0.0971478075 -0.0157809388 0.142402187
v 0.0741880387 -0.0403183922 0.103393555
v 0.0841464028 -0.0502243713 0.111948237
v 0.0829502195 -0.0389968157 0.114265896
v 0.0752064064 -0.0363533869 0.119843446
v 0.0672506765 -0.0371819399 0.112619624
v 0.0917003602 -0.0310763493 0.128482357
v 0.0948889032 -0.0350681618 0.130060732
v 0.096639514 -0.0238350723 0.137727499
v 0.0872568116 -0.0299974252 0.131478116
v 0.0937972143 -0.0224041939 0.138513327
v 0.0752064064 -0.0363533869 0.119843446
v 0.0955914035 -0.0251644328 0.140254661
v 0.0917907879 -0.0377096124 0.135840148
v 0.0857723057 -0.0355084352 0.138804778
v 0.092967011 -0.0240038205 0.14125137
v 0.0668543205 -0.051032979 0.128487244
v 0.069420591 -0.0396172665 0.127217561
v 0.0603060238 -0.0415770076 0.120747678
v 0.0672506765 -0.0371819399 0.112619624
v 0.0841389224 -0.031432882 0.1357373
v 0.0752064064 -0.0363533869 0.119843446
v 0.0672506765 -0.0371819399 0.112619624
v 0.0872568116 -0.0299974252 0.131478116
v 0.092967011 -0.0240038205 0.14125137
v 0.092967011 -0.0240038205 0.14125137
v 0.0776132122 -0.0576398596 0.122228391
v 0.072061874 -0.0541114695 0.0976185575
v 0.0626775697 -0.0658073723 0.107119441
v 0.0539685935 -0.0547705591 0.11801666
v 0.0872568116 -0.0299974252 0.131478116
v 0.0937972143 -0.0224041939 0.138513327
v 0.0937972143 -0.0224041939 0.138513327
v 0.0971478075 -0.0157809388 0.142402187
v 0.072061874 -0.0541114695 0.0976185575
v 0.0937972143 -0.0224041939 0.138513327
v 0.0971478075 -0.0157809388 0.142402187
v 0.0971478075 -0.0157809388 0.142402187
vt 0.774240732 0.568207026
vt 0.722349584 0.570322514
vt 0.741199911 0.589862943
vt 0.777752399 0.492288589
vt 0.722176254 0.479385495
vt 0.748233497 0.394194722
vt 0.721971452 0.372096539
vt 0.782808542 0.421440482
vt 0.758549571 0.349593401
vt 0.721918941 0.344250917
vt 0.754317701 0.310834527
vt 0.721887589 0.327789187
vt 0.796843112 0.302749395
vt 0.798151553 0.337008953
vt 0.795021713 0.368406296
vt 0.842535734 0.392891169
vt 0.836100638 0.467995882
vt 0.818131983 0.531045556
vt 0.848295093 0.305527687
vt 0.841792583 0.333647728
vt 0.831991076 0.217671752
vt 0.79689151 0.213665009
vt 0.793104291 0.166597247
vt 0.867276549 0.229137063
vt 0.87639153 0.153270245
vt 0.820049465 0.107039213
vt 0.761179209 0.211204886
vt 0.762133539 0.155185342
vt 0.721730828 0.245497823
vt 0.721564114 0.15811193
vt 0.77274394 0.0626395941
vt 0.721343756 0.043010354
vt 0.721292853 0.0161488056
vt 0.689392865 0.311340213
vt 0.685308218 0.350163221
vt 0.646836877 0.303916931
vt 0.645658791 0.338195443
vt 0.648908079 0.369542599
vt 0.695793986 0.394603014
vt 0.666649342 0.493152618
vt 0.66132313 0.422385335
vt 0.670449197 0.569013715
vt 0.703571737 0.59015584
vt 0.601487875 0.394764662
vt 0.608209133 0.469767332
vt 0.626417756 0.532535791
vt 0.595396221 0.307495952
vt 0.602005422 0.335513234
vt 0.595396221 0.307495952
vt 0.611365318 0.219389558
vt 0.576124072 0.231403589
vt 0.566720009 0.155680537
vt 0.622884512 0.10857451
vt 0.650056303 0.167711139
vt 0.646448374 0.214836478
vt 0.682151437 0.211820245
vt 0.680983245 0.155817032
vt 0.670019925 0.0634390116
vt 0.721292853 0.0161488056
vt 0.721292853 0.0161488056
vt 0.721275866 0.00726521015
vt 0.845451713 0.630058289
vt 0.86490047 0.641360283
vt 0.866359591 0.484263539
vt 0.83135736 0.678266883
vt 0.86416471 0.714298725
vt 0.844291806 0.768920422
vt 0.863666773 0.766682863
vt 0.863275528 0.805454135
vt 0.843233109 0.807180762
vt 0.8624084 0.889377475
vt 0.828379512 0.884833217
vt 0.841959715 0.970618725
vt 0.861474752 0.98075819
vt 0.8059659 0.975133419
vt 0.796023011 0.777030945
vt 0.78296113 0.857263923
vt 0.77888763 0.740825534
vt 0.802777052 0.633743405
vt 0.825590611 0.547780275
vt 0.763119459 0.946006775
vt 0.729650974 0.864483833
vt 0.758671641 0.813934684
vt 0.803356409 0.982064962
vt 0.881173611 0.9722296
vt 0.896495342 0.887636662
vt 0.917036176 0.979739547
vt 0.883273363 0.808793902
vt 0.88299346 0.77048552
vt 0.897702694 0.680959344
vt 0.884536743 0.631667733
vt 0.931102633 0.782470465
vt 0.94240272 0.863883853
vt 0.948927283 0.747552156
vt 0.927113533 0.638566494
vt 0.967157125 0.823546648
vt 0.995530486 0.875627995
vt 0.960421085 0.954242706
vt 0.905841231 0.550939202
vt 0.919506431 0.98688221
vt 0.796023011 0.777030945
vt 0.758671641 0.813934684
vt 0.721275866 0.00726521015
vt 0.721292853 0.0161488056
vt 0.266611367 0.686725974
vt 0.247863978 0.690336704
vt 0.259931445 0.707632184
vt 0.239918768 0.679915667
vt 0.234911248 0.62498498
vt 0.223284006 0.644981384
vt 0.28487578 0.620478153
vt 0.280064225 0.586271405
vt 0.288241953 0.608645558
vt 0.233628616 0.573952436
vt 0.26646173 0.526324153
vt 0.227885902 0.721994519
vt 0.202481747 0.613515735
vt 0.186889961 0.64541471
vt 0.122839883 0.775928736
vt 0.178465679 0.897800088
vt 0.245008856 0.776361823
vt 0.202764854 0.929729223
vt 0.248193488 0.759505749
vt 0.235870689 0.725756884
vt 0.0949932635 0.615126371
vt 0.154150486 0.484233141
vt 0.0864176005 0.527745366
vt 0.158630654 0.357712626
vt 0.0603688844 0.265439034
vt 0.141386896 0.202696085
vt 0.136275724 0.140891671
vt 0.0592413098 0.214859962
vt 0.0752594694 0.100154877
vt 0.0227534212 0.0467351675
vt 0.0835870355 0.0124636889
vt 0.160145253 0.0288381577
vt 0.218241587 0.0457041264
vt 0.216397122 0.105622649
vt 0.213016763 0.163184047
vt 0.217216164 0.278717995
vt 0.281081051 0.0852597952
vt 0.280542821 0.143404722
vt 0.341221869 0.0877074003
vt 0.340673089 0.140125632
vt 0.333963931 0.205298305
vt 0.269733757 0.248163342
vt 0.323580712 0.275988936
vt 0.37711066 0.295242429
vt 0.35681501 0.372727156
vt 0.309877813 0.36215806
vt 0.34066394 0.426525354
vt 0.301803201 0.409136176
vt 0.396459758 0.226008892
vt 0.254903078 0.369915605
vt 0.2105259 0.403746724
vt 0.201469287 0.562179685
vt 0.219510376 0.539803505
vt 0.32231009 0.490352988
vt 0.290176749 0.46570909
vt 0.291445076 0.559581637
vt 0.301021665 0.56397295
vt 0.284122556 0.574555159
vt 0.250614434 0.426190853
vt 0.290764183 0.600094557
vt 0.307496428 0.57940793
vt 0.347699583 0.53210938
vt 0.334897369 0.604271173
vt 0.304713637 0.600461721
vt 0.384140372 0.582612634
vt 0.353850365 0.692265153
vt 0.332150668 0.682887316
vt 0.301742196 0.61363852
vt 0.309444875 0.704253078
vt 0.284004003 0.729962111
vt 0.308172405 0.736449838
vt 0.275284737 0.779047012
vt 0.333124757 0.75557816
vt 0.329527497 0.799598575
vt 0.310168058 0.981721401
vt 0.229169562 0.954874635
vt 0.268915385 0.764753103
vt 0.395202786 0.94885695
vt 0.41438657 0.77229774
vt 0.437756628 0.90277493
vt 0.466531098 0.703685522
vt 0.559399009 0.814278603
vt 0.541774631 0.647938013
vt 0.575292945 0.629247308
vt 0.580703616 0.793109536
vt 0.620499134 0.708448768
vt 0.670691609 0.771244168
vt 0.653394997 0.649950743
vt 0.607146382 0.525967479
vt 0.567284942 0.437440395
vt 0.543009102 0.472862959
vt 0.519347847 0.508369565
vt 0.466602683 0.562016249
vt 0.516344905 0.35152173
vt 0.491515517 0.38329339
vt 0.483716458 0.249378324
vt 0.461760432 0.277939677
vt 0.437631994 0.323410988
vt 0.451728404 0.457638979
vt 0.413148761 0.377316952
vt 0.382935524 0.442849278
vt 0.366524041 0.48261106
vt 0.404922664 0.546477914
vt 0.415380865 0.640311003
vt 0.355827957 0.733678818
vt 0.347254872 0.727535486
vt 0.33222416 0.7410537
vt 0.318104297 0.731273174
vt 0.327201396 0.733477354
vt 0.315493494 0.706335306
vt 0.342819691 0.727828741
vt 0.332404792 0.696243405
vt 0.317242324 0.712166071
vt 0.328772008 0.703245521
vt 0.34901756 0.708060622
vt 0.342819691 0.727828741
vt 0.348528653 0.703936338
vt 0.339692742 0.703932405
vt 0.328772008 0.703245521
vt 0.34901756 0.708060622
vt 0.339692742 0.703932405
vt 0.247863978 0.690336704
vt 0.239989787 0.710040927
vt 0.251087725 0.748506069
vt 0.272674114 0.748526216
vt 0.27448687 0.720475316
vt 0.239989787 0.710040927
vt 0.277804911 0.01610744
vt 0.337961465 0.0135993958
vt 0.422957838 0.130800605
vt 0.414234638 0.162289739
vt 0.399097532 0.0196739435
vt 0.447090775 0.0438601971
vt 0.516707003 0.216045737
vt 0.547283888 0.320259929
vt 0.482316881 0.113986254
vt 0.622379184 0.929316401
vt 0.660835087 0.865873814
vt 0.622378886 0.837545276
vt 0.649229348 0.930539489
vt 0.697642148 0.91679132
vt 0.583922982 0.865875363
vt 0.595529318 0.930539727
vt 0.547116518 0.916794181
vt 0.566068649 0.938611507
vt 0.520769656 0.971981764
vt 0.697642148 0.91679132
vt 0.678690255 0.938610315
vt 0.723990023 0.971975923
vt 0.20083499 0.937026978
vt 0.175838962 0.905116796
vt 0.120171264 0.782378435
vt 0.09142638 0.623183608
vt 0.0816371962 0.536013007
vt 0.0562063009 0.272284627
vt 0.0540824682 0.218913078
vt 0.22754924 0.962917328
vt 0.30895859 0.989854574
vt 0.396486163 0.954391003
vt 0.436620682 0.915832639
vt 0.559289038 0.824901462
vt 0.58198911 0.803521395
vt 0.669659615 0.779458761
vt 0.559289038 0.824901462
vt 0.0540824682 0.218913078
vt 0.0227534212 0.0467351675
vt 0.0198740289 0.0532740355
vt 0.315493494 0.706335306
vt 0.327201396 0.733477354
vt 0.317242324 0.712166071
vt 0.231586814 0.615338683
vt 0.220221385 0.626093507
vt 0.227955535 0.580390453
vt 0.208632737 0.607676983
vt 0.208849669 0.573646069
vt 0.215084076 0.556960702
vt 0.216853902 0.555302739
vt 0.214086503 0.6130054
vt 0.228230014 0.615565777
vt 0.226633474 0.590399504
vt 0.221160367 0.571183443
vt 0.226633474 0.590399504
vt 0.210977241 0.581647277
vt 0.215084076 0.556960702
vt 0.210977241 0.581647277
vt 0.215084076 0.556960702
vt 0.214086503 0.6130054
vt 0.228230014 0.615565777
vt 0.0658695027 0.700155258
vt 0.03574422 0.739070892
vt 0.0678392798 0.709540367
vt 0.0700505823 0.718701243
vt 0.039086327 0.757653236
vt 0.081174992 0.761387706
vt 0.0544460416 0.797466397
vt 0.0426068529 0.791711688
vt 0.0651468188 0.853104949
vt 0.0512680411 0.834423304
vt 0.0426068529 0.791711688
vt 0.0958602875 0.8058182
vt 0.0814136714 0.862753868
vt 0.104335919 0.826146841
vt 0.0944460779 0.877305627
vt 0.141258419 0.894983053
vt 0.106815904 0.912326694
vt 0.123480991 0.93283546
vt 0.139160275 0.964409709
vt 0.147643507 0.902621746
vt 0.159517437 0.942938209
vt 0.181686103 0.924136996
vt 0.169099629 0.967735291
vt 0.145857781 0.997136354
vt 0.169099629 0.967735291
vt 0.123480991 0.93283546
vt 0.11170575 0.948487878
vt 0.125811338 0.985961676
vt 0.145857781 0.997136354
vt 0.0658695027 0.700155258
vt 0.0309982281 0.72177887
vt 0.0262107383 0.672237515
vt 0.0205892157 0.694058061
vt 0.0572288409 0.655180812
vt 0.0103220847 0.652823925
vt 0.0124542024 0.619409919
vt 0.0502732471 0.603635907
vt 0.019526938 0.588284492
vt 0.0482436121 0.577374697
vt 0.0226454604 0.558870316
vt 0.0467675254 0.475920439
vt 0.0176843535 0.517031074
vt 0.0209635291 0.478171587
vt 0.0194584485 0.43354547
vt 0.0073865857 0.485841513
vt 0.00256832712 0.439596176
vt 0.0116395187 0.401842833
vt 0.0408425927 0.416617751
vt 0.048104234 0.461176157
vt 0.0624169558 0.395175934
vt 0.0116395187 0.401842833
vt 0.0378743485 0.385737419
vt 0.0624169558 0.395175934
vt 0.0467675254 0.475920439
vt 0.019526938 0.588284492
vt 0.0226454604 0.558870316
vt 0.0166045856 0.562230349
vt 0.972755969 0.511477709
vt 0.977891028 0.478962064
vt 0.968025267 0.493796349
vt 0.983653724 0.50399065
vt 0.967200935 0.453965664
vt 0.959227979 0.474152923
vt 0.954689682 0.528494358
vt 0.952427328 0.519533634
vt 0.941556036 0.536481142
vt 0.956106246 0.543619752
vt 0.941743314 0.546791792
vt 0.975484908 0.533957839
vt 0.983653724 0.50399065
vt 0.983372986 0.530721784
vt 0.937574804 0.528977871
vt 0.946037948 0.507549882
vt 0.931489646 0.544385552
vt 0.983818948 0.472256303
vt 0.983653724 0.50399065
vt 0.973819911 0.437206984
vt 0.938835084 0.497627139
vt 0.933069646 0.522803426
vt 0.947793186 0.461189032
vt 0.952762067 0.438461661
vt 0.938208282 0.45579803
vt 0.939401567 0.432670593
vt 0.934007823 0.495161057
vt 0.933069646 0.522803426
vt 0.926392496 0.495730281
vt 0.933069646 0.522803426
vt 0.926751912 0.455416322
vt 0.939401567 0.432670593
vt 0.926562011 0.439160466
vt 0.954681695 0.425296664
vt 0.926392496 0.495730281
vt 0.928051531 0.524724603
vt 0.931489646 0.544385552
vt 0.960212886 0.148132443
vt 0.96814537 0.0930874348
vt 0.951313972 0.129071116
vt 0.98338753 0.115278244
vt 0.952931404 0.0676902533
vt 0.939732015 0.11115098
vt 0.938358426 0.182113767
vt 0.932384551 0.171217918
vt 0.942134142 0.19392705
vt 0.966170669 0.167988896
vt 0.98338753 0.115278244
vt 0.983419359 0.149267554
vt 0.977577806 0.0768162012
vt 0.924680412 0.160707116
vt 0.977577806 0.0768162012
vt 0.963872969 0.0316647291
vt 0.923305809 0.190501451
vt 0.926892996 0.198757052
vt 0.914140344 0.21093905
vt 0.929083765 0.206905603
vt 0.916052043 0.217983484
vt 0.911036253 0.205629826
vt 0.918075442 0.18245399
vt 0.903817952 0.229397535
vt 0.903817952 0.229397535
vt 0.912154496 0.17667973
vt 0.907287419 0.202444553
vt 0.906886101 0.173959136
vt 0.902297437 0.17370522
vt 0.903312385 0.202193618
vt 0.909036815 0.145771503
vt 0.916551888 0.151593804
vt 0.926576257 0.0984106064
vt 0.914132357 0.0910197496
vt 0.934830844 0.0517976284
vt 0.918132842 0.0344008207
vt 0.937738717 0.0274393559
vt 0.902112603 0.14432323
vt 0.902670681 0.0892850161
vt 0.918132842 0.0344008207
vt 0.903118312 0.0497416258
vt 0.0814136714 0.862753868
vt 0.0892265365 0.884307504
vt 0.0944460779 0.877305627
vt 0.903817952 0.229397535
vt 0.903817952 0.229397535
vt 0.882843494 0.278828025
vt 0.881376207 0.309332967
vt 0.892739654 0.304433107
vt 0.875565767 0.34736383
vt 0.880198359 0.35071373
vt 0.87362361 0.374758482
vt 0.870177686 0.346646667
vt 0.87362361 0.374758482
vt 0.871245801 0.307430506
vt 0.882843494 0.278828025
vt 0.870508313 0.284495115
vt 0.9041152 0.317550421
vt 0.885562658 0.358531475
vt 0.912496209 0.337419748
vt 0.890287459 0.368002653
vt 0.910917521 0.361134648
vt 0.922949553 0.354670763
vt 0.892427444 0.377236843
vt 0.912148952 0.381508946
vt 0.893120527 0.388189077
vt 0.879076481 0.384349585
vt 0.879648149 0.390884757
vt 0.876719773 0.378731132
vt 0.87362361 0.374758482
vt 0.870394349 0.393251419
vt 0.870394349 0.393251419
vt 0.927719116 0.321101069
vt 0.91887784 0.283213258
vt 0.89956665 0.267739296
vt 0.922949553 0.354670763
vt 0.923468828 0.379272699
vt 0.912148952 0.381508946
vt 0.870177686 0.346646667
vt 0.870354533 0.37432158
vt 0.870394349 0.393251419
vt 0.988483429 0.351905584
vt 0.9745152 0.335810542
vt 0.973751783 0.359232306
vt 0.976141453 0.379209161
vt 0.987483978 0.377380371
vt 0.955956459 0.376317739
vt 0.953649521 0.367539406
vt 0.942815304 0.3841362
vt 0.957083225 0.38698566
vt 0.94349885 0.390608549
vt 0.976141453 0.379209161
vt 0.940423608 0.378518701
vt 0.949047804 0.357938647
vt 0.943728924 0.349855542
vt 0.937332392 0.374615908
vt 0.955511332 0.301057696
vt 0.944121361 0.307626128
vt 0.945556879 0.282642961
vt 0.933430076 0.28514576
vt 0.938897848 0.346905351
vt 0.933964014 0.308096647
vt 0.933430076 0.28514576
vt 0.93343246 0.347094774
vt 0.937332392 0.374615908
vt 0.937332392 0.374615908
vt 0.96645236 0.314955235
vt 0.991507292 0.316880822
vt 0.981148601 0.280503869
vt 0.961316347 0.268279195
vt 0.93343246 0.347094774
vt 0.934048533 0.374412656
vt 0.934048533 0.374412656
vt 0.934220314 0.393251419
vt 0.991507292 0.316880822
vt 0.94349885 0.390608549
vt 0.934220314 0.393251419
vt 0.934220314 0.393251419
vn -0.392497301 -0.524758339 -0.755363941
vn -0 -0.460325152 -0.887750447
vn -0.19131355 0.180659696 -0.964759588
vn 0.7183038 -0.654215753 0.23673068
vn -0 -0.956481874 0.291791737
vn 0.343472183 -0.939155161 0.00379793695
vn -0 -0.790899813 0.611945629
vn 0.757349074 -0.645921588 0.0959570557
vn 0.595823526 -0.501424611 0.627349734
vn -0 -0.197383016 0.980326414
vn 0.643730938 -0.609603107 0.462595403
vn -0 -0.888600826 0.458681136
vn 0.83517319 -0.34198007 0.43073827
vn 0.831995368 -0.324790418 0.449772239
vn 0.761711478 -0.581918597 -0.284897059
vn -0.313789308 -0.807975054 -0.498710811
vn -0.162132919 -0.949470162 -0.268736482
vn -0.197289765 -0.887274742 -0.416917592
vn -0.413349837 -0.910468042 -0.0137817916
vn 0.691808105 -0.641994715 0.330521196
vn 0.941719651 -0.310642928 -0.129092813
vn 0.850491881 -0.487778813 -0.196812987
vn 0.848695338 -0.509958386 0.140209436
vn 0.0949598551 -0.965143919 -0.243885115
vn -0.255912453 -0.329727471 -0.908729076
vn 0.745048344 -0.140815958 -0.651976883
vn 0.641254544 -0.758318722 -0.117240272
vn 0.675830364 -0.708600879 0.202825487
vn -0 -0.984318316 -0.176401272
vn -0 -0.972971022 0.230926871
vn 0.748934507 -0.352533996 -0.561085463
vn -0 -0.94833982 0.317256272
vn -0 -0.936087847 -0.351766229
vn -0.643730998 -0.609603047 0.462595433
vn -0.595823526 -0.50142467 0.627349675
vn -0.83517319 -0.34198007 0.43073827
vn -0.831995249 -0.324790388 0.449772269
vn -0.761711478 -0.581918597 -0.284897059
vn -0.343472183 -0.939155161 0.00379794743
vn -0.7183038 -0.654215753 0.23673068
vn -0.757349074 -0.645921588 0.0959570557
vn 0.392497301 -0.524758339 -0.755363941
vn 0.19131355 0.180659696 -0.964759588
vn 0.313789487 -0.807975054 -0.498710811
vn 0.162133127 -0.949470103 -0.268736482
vn 0.197289631 -0.887274742 -0.416917592
vn 0.413349777 -0.910468042 -0.0137817897
vn -0.691808105 -0.641994715 0.330521196
vn 0.413349777 -0.910468042 -0.0137817897
vn -0.941719651 -0.310642928 -0.129092813
vn -0.0949598849 -0.965143919 -0.243885115
vn 0.255912453 -0.329727471 -0.908729076
vn -0.745048344 -0.140815958 -0.651976883
vn -0.848695338 -0.509958386 0.140209436
vn -0.850491881 -0.487778813 -0.196812958
vn -0.641254544 -0.758318722 -0.117240272
vn -0.675830364 -0.708600879 0.202825472
vn -0.748934448 -0.352533937 -0.561085582
vn -0 -0.936087847 -0.351766229
vn -0 -0.936087847 -0.351766229
vn -0 -0.248980418 -0.968508422
vn 0.249241203 0.174525216 -0.952585816
vn -0 0.102958955 -0.994685531
vn -0 -0.248980418 -0.968508422
vn 0.150811359 0.0839686915 -0.984990001
vn -0 -0.0219500251 -0.999759018
vn 0.473279446 -0.450619698 -0.75693363
vn -0 -0.418559223 -0.908189416
vn -0 -0.979354382 -0.202150702
vn 0.30934307 -0.950333595 -0.0342482142
vn -0 -0.944167912 0.329464734
vn 0.18087104 -0.886488855 0.42593798
vn -0.138826951 -0.887599528 0.439197093
vn -0 -0.962504625 0.271265477
vn -0.199807331 -0.816978097 0.54094702
vn 0.321839929 -0.591195166 -0.739531815
vn 0.605717659 -0.69474411 0.387861639
vn -0.255912453 -0.329727471 -0.908729076
vn 0.745048344 -0.140815958 -0.651976883
vn 0.748934507 -0.352533996 -0.561085463
vn -0.37345171 -0.329569489 0.867132008
vn -0.58138752 -0.795712888 0.169792458
vn 0.303275049 -0.916766524 -0.259929806
vn 0.208483011 -0.977533519 0.0310341995
vn 0.138826951 -0.887599528 0.439197093
vn -0.180871084 -0.886488855 0.42593801
vn 0.199807331 -0.816978097 0.54094702
vn -0.309343159 -0.950333595 -0.0342482291
vn -0.473279446 -0.450619668 -0.75693363
vn -0.150811359 0.0839686915 -0.984990001
vn -0.249241203 0.174525231 -0.952585816
vn -0.320632994 -0.592571318 -0.738954365
vn -0.605717778 -0.694743931 0.387861788
vn 0.255912453 -0.329727471 -0.908729076
vn -0.745048344 -0.140815958 -0.651976883
vn -0.309992462 -0.916840136 -0.251612127
vn 0.579834342 -0.797767878 0.165404215
vn 0.37345171 -0.329569489 0.867132008
vn -0.748934448 -0.352533937 -0.561085582
vn -0.208483011 -0.977533519 0.0310342181
vn 0.321839929 -0.591195166 -0.739531815
vn 0.303275049 -0.916766524 -0.259929806
vn -0 -0.248980418 -0.968508422
vn -0 -0.936087847 -0.351766229
vn -0 -0.111814603 0.993729115
vn 0.652816653 0.250138521 0.715025246
vn -0 0.866777241 0.498695582
vn 0.43435356 -0.242983654 0.867349923
vn 0.177043647 -0.254237682 0.950799048
vn 0.389810562 -0.560040295 0.731028497
vn -0 -0.501117468 0.865379214
vn 0.336300582 -0.175483018 0.925260901
vn -0 -0.513873637 0.857865989
vn 0.543227196 0.166146204 0.822982073
vn 0.634445131 0.0635777935 0.770348847
vn 0.557144642 -0.589431226 0.584945142
vn 0.780064583 -0.5747087 0.247404501
vn 0.793985546 -0.458374619 0.399349153
vn 0.4616054 -0.87540859 -0.14345783
vn 0.313816369 -0.949480176 0.00255891471
vn -0 -0.808009326 0.589169741
vn -0 -0.982953906 0.18385224
vn -0 -0.827395737 0.561619341
vn 0.496769428 -0.506758034 0.704568267
vn 0.609910548 -0.775171161 -0.164677784
vn 0.97555089 -0.143500611 0.166457266
vn 0.688620269 -0.713119268 -0.131388649
vn 0.994720101 -0.0223272592 0.100166611
vn 0.685301006 -0.713436961 -0.146186188
vn 0.989441872 -0.0172967818 0.143894792
vn 0.995314121 -0.0963142961 0.0085567981
vn 0.588760138 -0.752255976 -0.295757562
vn 0.902230561 -0.297575295 -0.312135965
vn 0.208483011 -0.977533519 0.0310341995
vn 0.907530367 -0.377875894 -0.183298618
vn 0.992569506 -0.119564116 0.022585528
vn 0.927961648 0.102994747 0.358160943
vn 0.925303459 0.16718933 0.340383828
vn 0.952283919 0.226895928 0.204141393
vn 0.982644737 0.173761964 0.0649309829
vn 0.717448771 0.511794567 0.472581863
vn 0.807959795 0.568577409 0.154662862
vn 0.458585382 0.738663375 0.494040221
vn 0.525465131 0.837973118 0.147266492
vn 0.561522603 0.826195538 -0.0457520001
vn 0.887161911 0.461339235 0.0104824957
vn 0.601476312 0.798717439 0.0166394338
vn -0 0.999802649 0.0198672004
vn -0 0.958575249 0.284839392
vn 0.581902623 0.767052412 0.270221829
vn -0 0.805231214 0.592961013
vn 0.51681149 0.650512218 0.556542754
vn -0 0.99971205 -0.0239971559
vn 0.920856714 0.351033747 0.169700131
vn 0.989616752 0.0178454369 0.142619401
vn 0.980489671 -0.181468755 0.0755575597
vn 0.920240223 0.198109314 0.337506473
vn -0 0.525505424 0.850790262
vn 0.501673162 0.373892605 0.780082285
vn 0.709131181 0.415332019 0.569765031
vn -0 0.866080344 0.499904931
vn 0.679856241 -0.176074386 0.711894214
vn 0.859134018 0.214499384 0.464627445
vn -0 -0.387578279 0.921836793
vn -0.709131181 0.415332019 0.569765031
vn -0.501673162 0.373892605 0.780082285
vn -0.634445131 0.0635777861 0.770348847
vn -0.6798563 -0.176074356 0.711894155
vn -0.859134018 0.214499399 0.464627445
vn -0.920240223 0.198109314 0.337506473
vn -0.543227196 0.166146204 0.822982073
vn -0.336300641 -0.175483033 0.925260842
vn -0.177043647 -0.254237682 0.950799048
vn -0.43435356 -0.242983654 0.867349923
vn -0.389810532 -0.560040295 0.731028557
vn -0.557144642 -0.589431167 0.584945083
vn -0.780064702 -0.5747087 0.247404516
vn -0.793985546 -0.458374619 0.399349153
vn -0.4616054 -0.87540859 -0.14345783
vn -0.313816398 -0.949480176 0.00255891494
vn -0.496769458 -0.506758094 0.704568267
vn -0.609910607 -0.775171101 -0.164677769
vn -0.97555089 -0.143500611 0.166457266
vn -0.688620269 -0.713119268 -0.131388634
vn -0.994720101 -0.0223272592 0.100166604
vn -0.685301006 -0.713436961 -0.146186188
vn -0.989441872 -0.0172967855 0.143894792
vn -0.995314121 -0.0963142961 0.00855679624
vn -0.588760138 -0.752255917 -0.295757562
vn -0.902230561 -0.297575295 -0.312135965
vn -0.208483011 -0.977533519 0.0310342181
vn -0.907530367 -0.377875954 -0.183298618
vn -0.992569506 -0.119564116 0.022585528
vn -0.927961648 0.102994747 0.358160943
vn -0.925303459 0.16718933 0.340383857
vn -0.9522838 0.226895913 0.204141393
vn -0.982644737 0.173761964 0.0649309829
vn -0.717448831 0.511794508 0.472581863
vn -0.807959795 0.568577409 0.154662892
vn -0.458585382 0.738663375 0.494040221
vn -0.525465131 0.837973118 0.147266477
vn -0.561522603 0.826195538 -0.0457520187
vn -0.887161911 0.461339235 0.0104824891
vn -0.601476312 0.798717439 0.0166394264
vn -0.581902623 0.767052412 0.270221829
vn -0.51681149 0.650512218 0.556542695
vn -0.920856714 0.351033747 0.169700131
vn -0.989616752 0.0178454388 0.142619401
vn -0.980489671 -0.18146877 0.0755575597
vn -0.952437878 -0.193209857 0.235652253
vn -0.709244192 -0.609524012 0.354193628
vn -0.339161634 -0.670939922 0.659400523
vn -0.712064028 -0.304517806 0.632640183
vn -0.264039099 -0.268805325 0.926297545
vn -0.766498446 -0.234808028 0.597783625
vn -0.530346155 0.146554455 0.8350178
vn -0.673104286 -0.0583383515 0.737243056
vn 0.297353417 0.1707647 0.939372301
vn -0.911818624 0.326684922 -0.24872461
vn -0.766498446 -0.234808028 0.597783625
vn -0.945598125 0.159935489 0.283310413
vn -0.760305643 0.247143686 0.600712419
vn 0.297353417 0.1707647 0.939372301
vn -0.911818624 0.326684922 -0.24872461
vn -0.760305643 0.247143686 0.600712419
vn 0.652816653 0.250138521 0.715025246
vn 0.730627954 -0.423246324 0.535766006
vn -0 -0.651980996 0.758235276
vn -0.730627954 -0.423246324 0.535766006
vn -0.652816653 0.250138581 0.715025246
vn 0.730627954 -0.423246324 0.535766006
vn 0.733577847 0.466745526 0.493975788
vn 0.639411628 0.768843234 0.0057337652
vn -0 0.80533427 0.592821062
vn -0 0.944517016 0.328462422
vn 0.50206548 0.818002045 -0.280718297
vn -0 0.936283112 -0.351246268
vn -0.639411569 0.768843234 0.00573374378
vn -0.733577847 0.466745555 0.493975759
vn -0.50206548 0.818002045 -0.280718297
vn -0 0.177335754 -0.98415041
vn 0.50206548 0.818002045 -0.280718297
vn -0 0.936283112 -0.351246268
vn 0.160537496 0.29430905 -0.942130566
vn 0.639411628 0.768843234 0.0057337652
vn -0.50206548 0.818002045 -0.280718297
vn -0.160537496 0.29430905 -0.942130566
vn -0.639411569 0.768843234 0.00573374378
vn -0.277824849 0.78768748 -0.549874306
vn -0.733577847 0.466745555 0.493975759
vn 0.639411628 0.768843234 0.0057337652
vn 0.277824819 0.78768748 -0.549874306
vn 0.733577847 0.466745526 0.493975788
vn -0 -0.258402675 -0.966037273
vn -0.366705209 -0.137761891 -0.92008096
vn -0.60769248 -0.220202401 -0.763033867
vn -0.644960701 -0.42548579 -0.634812951
vn -0.681792796 -0.598195612 -0.421094596
vn -0.652128875 -0.703495026 -0.282529205
vn -0.796772778 -0.603961825 0.019577764
vn 0.366705209 -0.137761876 -0.92008096
vn 0.60769248 -0.220202401 -0.763033867
vn 0.644960701 -0.42548579 -0.634813011
vn 0.681792736 -0.598195612 -0.421094626
vn 0.652128875 -0.703495026 -0.282529205
vn 0.796772778 -0.603961825 0.0195777565
vn 0.199807331 -0.816978097 0.54094702
vn 0.652128875 -0.703495026 -0.282529205
vn -0.796772778 -0.603961825 0.019577764
vn 0.208483011 -0.977533519 0.0310341995
vn -0.199807331 -0.816978097 0.54094702
vn -0.264039099 -0.268805325 0.926297545
vn -0.712064028 -0.304517806 0.632640183
vn -0.673104286 -0.0583383515 0.737243056
vn 0.264039099 -0.268805295 0.926297545
vn 0.339161634 -0.670939922 0.659400523
vn 0.530346215 0.146554455 0.8350178
vn 0.709244192 -0.609524012 0.354193628
vn 0.952437878 -0.193209857 0.235652238
vn 0.911818624 0.326684922 -0.24872461
vn 0.945598125 0.159935459 0.283310413
vn 0.712064028 -0.304517806 0.632640183
vn 0.673104286 -0.0583383478 0.737243056
vn -0.297353417 0.170764685 0.939372301
vn 0.760305643 0.247143686 0.600712419
vn -0.297353417 0.170764685 0.939372301
vn 0.766498446 -0.234807998 0.597783625
vn 0.911818624 0.326684922 -0.24872461
vn 0.766498446 -0.234807998 0.597783625
vn 0.911818624 0.326684922 -0.24872461
vn 0.712064028 -0.304517806 0.632640183
vn 0.673104286 -0.0583383478 0.737243056
vn -0.366705209 -0.137761891 -0.92008096
vn -0 -0.460325152 -0.887750447
vn -0 -0.258402675 -0.966037273
vn 0.366705209 -0.137761876 -0.92008096
vn 0.19131355 0.180659696 -0.964759588
vn 0.60769248 -0.220202401 -0.763033867
vn 0.867521524 0.365103304 -0.337795794
vn 0.392497301 -0.524758339 -0.755363941
vn 0.162133127 -0.949470103 -0.268736482
vn 0.197289631 -0.887274742 -0.416917592
vn 0.392497301 -0.524758339 -0.755363941
vn 0.644960701 -0.42548579 -0.634813011
vn 0.313789487 -0.807975054 -0.498710811
vn 0.681792736 -0.598195612 -0.421094626
vn 0.413349777 -0.910468042 -0.0137817897
vn 0.652128875 -0.703495026 -0.282529205
vn -0.0949598849 -0.965143919 -0.243885115
vn 0.255912453 -0.329727471 -0.908729076
vn 0.843147278 -0.169176534 -0.510374367
vn 0.796772778 -0.603961825 0.0195777565
vn 0.907318711 0.283222675 0.310737163
vn 0.199807331 -0.816978097 0.54094702
vn 0.37345171 -0.329569489 0.867132008
vn 0.579834342 -0.797767878 0.165404215
vn 0.37345171 -0.329569489 0.867132008
vn 0.255912453 -0.329727471 -0.908729076
vn -0.320632994 -0.592571318 -0.738954365
vn -0.309992462 -0.916840136 -0.251612127
vn 0.579834342 -0.797767878 0.165404215
vn -0.366705209 -0.137761891 -0.92008096
vn -0.19131355 0.180659696 -0.964759588
vn -0.867521524 0.365103334 -0.337795824
vn -0.392497301 -0.524758339 -0.755363941
vn -0.60769248 -0.220202401 -0.763033867
vn -0.197289765 -0.887274742 -0.416917592
vn -0.162132919 -0.949470162 -0.268736482
vn -0.644960701 -0.42548579 -0.634812951
vn -0.313789308 -0.807975054 -0.498710811
vn -0.681792796 -0.598195612 -0.421094596
vn -0.413349837 -0.910468042 -0.0137817916
vn -0.652128875 -0.703495026 -0.282529205
vn 0.0949598551 -0.965143919 -0.243885115
vn -0.255912453 -0.329727471 -0.908729076
vn -0.844887555 -0.163951695 -0.509200275
vn 0.321839929 -0.591195166 -0.739531815
vn 0.303275049 -0.916766524 -0.259929806
vn -0.58138752 -0.795712888 0.169792458
vn -0.907318711 0.283222675 0.310737163
vn -0.796772778 -0.603961825 0.019577764
vn -0.199807331 -0.816978097 0.54094702
vn -0.58138752 -0.795712888 0.169792458
vn -0.37345171 -0.329569489 0.867132008
vn -0.199807331 -0.816978097 0.54094702
vn -0.652128875 -0.703495026 -0.282529205
vn -0.313789308 -0.807975054 -0.498710811
vn -0.413349837 -0.910468042 -0.0137817916
vn 0.691808105 -0.641994715 0.330521196
vn 0.772888422 0.604536057 -0.192819893
vn 0.89653194 -0.379534513 0.228438467
vn 0.874503016 -0.27190429 0.401637316
vn 0.709131181 0.415332019 0.569765031
vn -0 -0.857151449 0.515064418
vn -0 -0.669473231 0.742836177
vn 0.710123777 0.615116596 -0.342572302
vn 0.821577191 -0.0972388536 0.561743319
vn 0.853382826 0.41376695 0.317072034
vn -0 0.791757286 -0.61083591
vn -0 0.583094954 -0.812403977
vn -0 0.928240955 -0.371979475
vn 0.709131181 0.415332019 0.569765031
vn -0 0.866080344 0.499904931
vn -0 -0.208222687 0.978081405
vn -0 -0.408599168 0.912713945
vn -0 0.955857694 0.293829948
vn 0.679856241 -0.176074386 0.711894214
vn 0.709131181 0.415332019 0.569765031
vn -0 -0.387578279 0.921836793
vn -0.821577191 -0.0972388536 0.561743319
vn -0.853382826 0.41376695 0.317072034
vn -0.874503016 -0.27190432 0.401637316
vn -0.89653194 -0.379534513 0.228438467
vn -0.772888482 0.604536057 -0.192819908
vn -0.709131181 0.415332019 0.569765031
vn -0.710123777 0.615116596 -0.342572272
vn -0.853382826 0.41376695 0.317072034
vn -0 0.791757286 -0.61083591
vn -0.853382826 0.41376695 0.317072034
vn -0 0.928240955 -0.371979475
vn -0.709131181 0.415332019 0.569765031
vn -0 0.866080344 0.499904931
vn -0.6798563 -0.176074356 0.711894155
vn -0 0.791757286 -0.61083591
vn -0 0.583094954 -0.812403977
vn -0 0.955857694 0.293829948
vn 0.766715348 0.641901374 -0.0105019454
vn 0.906689048 -0.394477129 0.149341688
vn 0.892643929 -0.347570479 0.287022054
vn 0.652816653 0.250138521 0.715025246
vn -0 -0.970826626 0.239782423
vn -0 -0.886887729 0.461985052
vn 0.752471685 0.644895554 -0.133776233
vn 0.884674072 -0.261653423 0.385861635
vn -0 0.944175959 -0.329441518
vn -0 0.990832508 -0.135095999
vn 0.652816653 0.250138521 0.715025246
vn -0 0.866777241 0.498695582
vn 0.730627954 -0.423246324 0.535766006
vn -0 -0.751209795 0.660063565
vn 0.730627954 -0.423246324 0.535766006
vn -0 -0.651980996 0.758235276
vn 0.88334471 -0.218795583 0.414524704
vn 0.729678988 0.656085193 -0.19266741
vn 0.965370715 0.103386424 0.239521682
vn -0 0.921626627 -0.388077646
vn -0 0.873122752 -0.48750031
vn -0 -0.628633499 0.777701735
vn -0 -0.674258173 0.738495708
vn -0 0.666237652 0.7457394
vn -0 0.666237652 0.7457394
vn -0.88334471 -0.218795583 0.414524704
vn -0.965370715 0.103386424 0.239521682
vn -0.729678988 0.656085193 -0.19266741
vn -0 0.921626627 -0.388077646
vn -0 0.873122752 -0.48750031
vn -0.752471685 0.644895554 -0.133776233
vn -0.884674072 -0.261653423 0.385861635
vn -0.892643929 -0.347570479 0.287022054
vn -0.766715348 0.641901374 -0.0105019445
vn -0.906689048 -0.394477099 0.149341673
vn -0.652816653 0.250138581 0.715025246
vn -0.730627954 -0.423246324 0.535766006
vn -0 0.944175959 -0.329441518
vn -0 0.990832508 -0.135095999
vn -0.652816653 0.250138581 0.715025246
vn -0 0.866777241 0.498695582
vn 0.313789487 -0.807975054 -0.498710811
vn -0.691808105 -0.641994715 0.330521196
vn 0.413349777 -0.910468042 -0.0137817897
vn -0 0.666237652 0.7457394
vn -0 0.666237652 0.7457394
vn -0.911818624 0.326684922 -0.24872461
vn -0.525053382 0.629255831 -0.573023558
vn -0.837193787 -0.36303851 -0.409034938
vn -0.360965073 0.658856273 -0.660009503
vn -0.955925763 -0.164961994 -0.242885858
vn -0.867769837 0.260228008 -0.423387319
vn 0.330845237 0.889973402 -0.313829064
vn -0.867769837 0.260228008 -0.423387319
vn 0.166918039 0.977295935 -0.130503356
vn -0.911818624 0.326684922 -0.24872461
vn -0.760305643 0.247143686 0.600712419
vn -0.373437941 -0.857242405 0.354513139
vn -0.576864839 -0.585189283 0.569895089
vn 0.381552577 -0.370997846 0.846627533
vn 0.223469496 -0.202814564 0.953376889
vn 0.574593544 0.621554136 0.53245914
vn 0.297353417 0.1707647 0.939372301
vn 0.65794462 0.648993731 0.381989419
vn 0.166918039 0.977295935 -0.130503356
vn 0.330845237 0.889973402 -0.313829064
vn 0.467114508 0.201095834 0.861025214
vn 0.507816434 0.701318681 -0.500274599
vn -0.661946654 -0.333766729 0.671138108
vn -0.867769837 0.260228008 -0.423387319
vn -0.277727455 0.898130476 0.340923727
vn -0.277727455 0.898130476 0.340923727
vn -0.673104286 -0.0583383515 0.737243056
vn -0.712064028 -0.304517806 0.632640183
vn -0.766498446 -0.234808028 0.597783625
vn 0.297353417 0.1707647 0.939372301
vn -0.760305643 0.247143686 0.600712419
vn 0.166918039 0.977295935 -0.130503356
vn 0.330845237 0.889973402 -0.313829064
vn 0.507816434 0.701318681 -0.500274599
vn -0.277727455 0.898130476 0.340923727
vn 0.911818624 0.326684922 -0.24872461
vn 0.837193787 -0.36303851 -0.409034938
vn 0.525053382 0.629255831 -0.573023617
vn -0.166918039 0.977295935 -0.130503356
vn 0.760305643 0.247143686 0.600712419
vn 0.360965073 0.658856273 -0.660009503
vn 0.955925763 -0.164961994 -0.242885917
vn 0.867769837 0.260228038 -0.423387319
vn -0.330845237 0.889973402 -0.313829064
vn -0.507816434 0.701318681 -0.500274599
vn -0.166918039 0.977295935 -0.130503356
vn 0.661946654 -0.333766729 0.671138108
vn 0.576864839 -0.585189283 0.569895089
vn -0.223469481 -0.202814594 0.953377008
vn -0.467114508 0.201095864 0.861025214
vn -0.381552577 -0.370997846 0.846627533
vn -0.574593544 0.621554136 0.53245914
vn -0.297353417 0.170764685 0.939372301
vn 0.760305643 0.247143686 0.600712419
vn -0.65794462 0.648993731 0.381989419
vn -0.166918039 0.977295935 -0.130503356
vn 0.760305643 0.247143686 0.600712419
vn -0.330845237 0.889973402 -0.313829064
vn -0.467114508 0.201095864 0.861025214
vn -0.467114508 0.201095864 0.861025214
vn 0.373437971 -0.857242465 0.354513109
vn 0.766498446 -0.234807998 0.597783625
vn 0.712064028 -0.304517806 0.632640183
vn 0.673104286 -0.0583383478 0.737243056
vn -0.330845237 0.889973402 -0.313829064
vn -0.507816434 0.701318681 -0.500274599
vn -0.507816434 0.701318681 -0.500274599
vn 0.277727515 0.898130596 0.340923667
vn 0.766498446 -0.234807998 0.597783625
vn -0.507816434 0.701318681 -0.500274599
vn 0.277727515 0.898130596 0.340923667
vn 0.277727515 0.898130596 0.340923667
g blue_asn_m_pve_3_helm_0
f 3/3/3 2/2/2 1/1/1
f 1/1/1 2/2/2 4/4/4
f 5/5/5 4/4/4 2/2/2
f 5/5/5 6/6/6 4/4/4
f 7/7/7 6/6/6 5/5/5
f 8/8/8 4/4/4 6/6/6
f 7/7/7 9/9/9 6/6/6
f 6/6/6 9/9/9 8/8/8
f 7/7/7 10/10/10 9/9/9
f 11/11/11 9/9/9 10/10/10
f 11/11/11 10/10/10 12/12/12
f 11/11/11 13/13/13 9/9/9
f 14/14/14 9/9/9 13/13/13
f 14/14/14 15/15/15 9/9/9
f 15/15/15 8/8/8 9/9/9
f 15/15/15 16/16/16 8/8/8
f 15/15/15 14/14/14 16/16/16
f 17/17/17 8/8/8 16/16/16
f 8/8/8 17/17/17 4/4/4
f 18/18/18 4/4/4 17/17/17
f 4/4/4 18/18/18 1/1/1
f 13/13/13 19/19/19 14/14/14
f 20/20/20 14/14/14 19/19/19
f 20/20/20 16/16/16 14/14/14
f 19/19/19 13/13/13 21/21/21
f 22/22/22 21/21/21 13/13/13
f 22/22/22 23/23/23 21/21/21
f 24/24/24 19/19/19 21/21/21
f 24/24/24 21/21/21 25/25/25
f 26/26/26 25/25/25 21/21/21
f 21/21/21 23/23/23 26/26/26
f 22/22/22 13/13/13 27/27/27
f 22/22/22 27/27/27 23/23/23
f 11/11/11 27/27/27 13/13/13
f 28/28/28 23/23/23 27/27/27
f 27/27/27 11/11/11 29/29/29
f 12/12/12 29/29/29 11/11/11
f 28/28/28 27/27/27 30/30/30
f 29/29/29 30/30/30 27/27/27
f 28/28/28 30/30/30 31/31/31
f 31/31/31 26/26/26 23/23/23
f 28/28/28 31/31/31 23/23/23
f 32/32/32 31/31/31 30/30/30
f 33/33/33 31/31/31 32/32/32
f 12/12/12 34/34/34 29/29/29
f 10/10/10 34/34/34 12/12/12
f 34/34/34 10/10/10 35/35/35
f 7/7/7 35/35/35 10/10/10
f 34/34/34 35/35/35 36/36/36
f 37/37/37 36/36/36 35/35/35
f 38/38/38 37/37/37 35/35/35
f 35/35/35 7/7/7 39/39/39
f 39/39/39 7/7/7 5/5/5
f 5/5/5 40/40/40 39/39/39
f 41/41/41 39/39/39 40/40/40
f 38/38/38 35/35/35 41/41/41
f 39/39/39 41/41/41 35/35/35
f 5/5/5 2/2/2 40/40/40
f 42/42/42 40/40/40 2/2/2
f 2/2/2 43/43/43 42/42/42
f 38/38/38 41/41/41 44/44/44
f 38/38/38 44/44/44 37/37/37
f 45/45/45 44/44/44 41/41/41
f 41/41/41 40/40/40 45/45/45
f 46/46/46 45/45/45 40/40/40
f 46/46/46 40/40/40 42/42/42
f 36/36/36 37/37/37 47/47/47
f 48/48/48 37/37/37 44/44/44
f 48/48/48 49/49/49 37/37/37
f 49/49/49 50/50/50 36/36/36
f 49/49/49 51/51/51 50/50/50
f 51/51/51 52/52/52 50/50/50
f 53/53/53 50/50/50 52/52/52
f 50/50/50 53/53/53 54/54/54
f 54/54/54 55/55/55 50/50/50
f 55/55/55 36/36/36 50/50/50
f 55/55/55 56/56/56 36/36/36
f 55/55/55 54/54/54 56/56/56
f 34/34/34 36/36/36 56/56/56
f 57/57/57 56/56/56 54/54/54
f 56/56/56 29/29/29 34/34/34
f 29/29/29 56/56/56 30/30/30
f 57/57/57 30/30/30 56/56/56
f 57/57/57 58/58/58 30/30/30
f 58/58/58 54/54/54 53/53/53
f 58/58/58 57/57/57 54/54/54
f 32/32/32 30/30/30 58/58/58
f 58/58/58 59/59/59 32/32/32
f 61/61/61 60/60/60 58/58/58
f 64/64/64 63/63/63 62/62/62
f 62/62/62 63/63/63 65/65/65
f 66/66/66 65/65/65 63/63/63
f 65/65/65 66/66/66 67/67/67
f 68/68/68 67/67/67 66/66/66
f 68/68/68 69/69/69 67/67/67
f 70/70/70 67/67/67 69/69/69
f 69/69/69 71/71/71 70/70/70
f 72/72/72 70/70/70 71/71/71
f 72/72/72 71/71/71 73/73/73
f 74/74/74 73/73/73 71/71/71
f 73/73/73 75/75/75 72/72/72
f 67/67/67 76/76/76 65/65/65
f 70/70/70 76/76/76 67/67/67
f 70/70/70 72/72/72 76/76/76
f 77/77/77 76/76/76 72/72/72
f 72/72/72 75/75/75 77/77/77
f 76/76/76 78/78/78 65/65/65
f 79/79/79 65/65/65 78/78/78
f 65/65/65 79/79/79 62/62/62
f 80/80/80 62/62/62 79/79/79
f 64/64/64 62/62/62 80/80/80
f 81/81/81 77/77/77 75/75/75
f 81/81/81 82/82/82 77/77/77
f 83/83/83 77/77/77 82/82/82
f 84/84/84 75/75/75 73/73/73
f 74/74/74 71/71/71 85/85/85
f 86/86/86 85/85/85 71/71/71
f 87/87/87 85/85/85 86/86/86
f 86/86/86 71/71/71 88/88/88
f 69/69/69 88/88/88 71/71/71
f 88/88/88 69/69/69 89/89/89
f 68/68/68 89/89/89 69/69/69
f 68/68/68 66/66/66 89/89/89
f 90/90/90 89/89/89 66/66/66
f 66/66/66 63/63/63 90/90/90
f 63/63/63 64/64/64 91/91/91
f 91/91/91 90/90/90 63/63/63
f 92/92/92 89/89/89 90/90/90
f 92/92/92 88/88/88 89/89/89
f 88/88/88 92/92/92 86/86/86
f 93/93/93 86/86/86 92/92/92
f 86/86/86 93/93/93 87/87/87
f 92/92/92 90/90/90 94/94/94
f 95/95/95 94/94/94 90/90/90
f 90/90/90 91/91/91 95/95/95
f 92/92/92 96/96/96 93/93/93
f 96/96/96 97/97/97 93/93/93
f 98/98/98 93/93/93 97/97/97
f 99/99/99 95/95/95 91/91/91
f 91/91/91 64/64/64 99/99/99
f 98/98/98 87/87/87 93/93/93
f 87/87/87 100/100/100 85/85/85
f 102/102/102 101/101/101 77/77/77
f 104/104/104 103/103/103 31/31/31
f 107/107/107 106/106/106 105/105/105
f 108/108/108 105/105/105 106/106/106
f 105/105/105 108/108/108 109/109/109
f 110/110/110 109/109/109 108/108/108
f 105/105/105 109/109/109 111/111/111
f 112/112/112 111/111/111 109/109/109
f 113/113/113 111/111/111 112/112/112
f 109/109/109 114/114/114 112/112/112
f 115/115/115 112/112/112 114/114/114
f 108/108/108 116/116/116 110/110/110
f 117/117/117 110/110/110 116/116/116
f 117/117/117 116/116/116 118/118/118
f 118/118/118 116/116/116 119/119/119
f 120/120/120 119/119/119 116/116/116
f 116/116/116 121/121/121 120/120/120
f 122/122/122 120/120/120 121/121/121
f 121/121/121 116/116/116 123/123/123
f 124/124/124 123/123/123 116/116/116
f 119/119/119 125/125/125 118/118/118
f 126/126/126 118/118/118 125/125/125
f 125/125/125 127/127/127 126/126/126
f 128/128/128 126/126/126 127/127/127
f 127/127/127 129/129/129 128/128/128
f 130/130/130 128/128/128 129/129/129
f 130/130/130 129/129/129 131/131/131
f 132/132/132 131/131/131 129/129/129
f 132/132/132 133/133/133 131/131/131
f 132/132/132 134/134/134 133/133/133
f 134/134/134 135/135/135 133/133/133
f 135/135/135 136/136/136 133/133/133
f 131/131/131 133/133/133 136/136/136
f 136/136/136 137/137/137 131/131/131
f 138/138/138 131/131/131 137/137/137
f 131/131/131 138/138/138 130/130/130
f 139/139/139 130/130/130 138/138/138
f 130/130/130 139/139/139 128/128/128
f 140/140/140 128/128/128 139/139/139
f 138/138/138 141/141/141 139/139/139
f 142/142/142 139/139/139 141/141/141
f 139/139/139 142/142/142 140/140/140
f 141/141/141 143/143/143 142/142/142
f 144/144/144 142/142/142 143/143/143
f 144/144/144 145/145/145 142/142/142
f 146/146/146 142/142/142 145/145/145
f 146/146/146 140/140/140 142/142/142
f 147/147/147 146/146/146 145/145/145
f 147/147/147 145/145/145 148/148/148
f 148/148/148 149/149/149 147/147/147
f 150/150/150 147/147/147 149/149/149
f 149/149/149 151/151/151 150/150/150
f 152/152/152 150/150/150 151/151/151
f 153/153/153 148/148/148 145/145/145
f 145/145/145 144/144/144 153/153/153
f 146/146/146 154/154/154 140/140/140
f 150/150/150 154/154/154 147/147/147
f 146/146/146 147/147/147 154/154/154
f 150/150/150 152/152/152 154/154/154
f 155/155/155 140/140/140 154/154/154
f 140/140/140 155/155/155 128/128/128
f 126/126/126 128/128/128 155/155/155
f 126/126/126 155/155/155 156/156/156
f 126/126/126 156/156/156 118/118/118
f 117/117/117 118/118/118 156/156/156
f 157/157/157 156/156/156 155/155/155
f 151/151/151 158/158/158 152/152/152
f 159/159/159 152/152/152 158/158/158
f 158/158/158 160/160/160 159/159/159
f 158/158/158 161/161/161 160/160/160
f 115/115/115 159/159/159 160/160/160
f 162/162/162 115/115/115 160/160/160
f 114/114/114 157/157/157 115/115/115
f 163/163/163 115/115/115 157/157/157
f 115/115/115 163/163/163 159/159/159
f 157/157/157 155/155/155 163/163/163
f 152/152/152 159/159/159 163/163/163
f 163/163/163 154/154/154 152/152/152
f 154/154/154 163/163/163 155/155/155
f 112/112/112 115/115/115 162/162/162
f 162/162/162 164/164/164 112/112/112
f 113/113/113 112/112/112 164/164/164
f 161/161/161 158/158/158 165/165/165
f 158/158/158 166/166/166 165/165/165
f 167/167/167 165/165/165 166/166/166
f 167/167/167 168/168/168 165/165/165
f 169/169/169 167/167/167 166/166/166
f 169/169/169 170/170/170 167/167/167
f 171/171/171 167/167/167 170/170/170
f 167/167/167 171/171/171 172/172/172
f 168/168/168 172/172/172 164/164/164
f 113/113/113 164/164/164 172/172/172
f 167/167/167 172/172/172 168/168/168
f 111/111/111 113/113/113 172/172/172
f 172/172/172 173/173/173 111/111/111
f 173/173/173 172/172/172 171/171/171
f 105/105/105 111/111/111 173/173/173
f 105/105/105 173/173/173 174/174/174
f 175/175/175 174/174/174 173/173/173
f 174/174/174 175/175/175 176/176/176
f 177/177/177 176/176/176 175/175/175
f 176/176/176 177/177/177 178/178/178
f 178/178/178 179/179/179 176/176/176
f 180/180/180 176/176/176 179/179/179
f 176/176/176 180/180/180 121/121/121
f 122/122/122 121/121/121 180/180/180
f 121/121/121 123/123/123 176/176/176
f 181/181/181 176/176/176 123/123/123
f 179/179/179 178/178/178 182/182/182
f 183/183/183 182/182/182 178/178/178
f 182/182/182 183/183/183 184/184/184
f 185/185/185 184/184/184 183/183/183
f 184/184/184 185/185/185 186/186/186
f 187/187/187 186/186/186 185/185/185
f 187/187/187 188/188/188 186/186/186
f 189/189/189 186/186/186 188/188/188
f 190/190/190 189/189/189 188/188/188
f 191/191/191 189/189/189 190/190/190
f 192/192/192 191/191/191 190/190/190
f 188/188/188 193/193/193 190/190/190
f 192/192/192 190/190/190 193/193/193
f 193/193/193 188/188/188 194/194/194
f 195/195/195 194/194/194 188/188/188
f 188/188/188 187/187/187 195/195/195
f 196/196/196 195/195/195 187/187/187
f 187/187/187 185/185/185 196/196/196
f 197/197/197 196/196/196 185/185/185
f 195/195/195 196/196/196 198/198/198
f 199/199/199 198/198/198 196/196/196
f 196/196/196 197/197/197 199/199/199
f 198/198/198 199/199/199 200/200/200
f 201/201/201 200/200/200 199/199/199
f 201/201/201 199/199/199 202/202/202
f 203/203/203 202/202/202 199/199/199
f 203/203/203 199/199/199 197/197/197
f 203/203/203 204/204/204 202/202/202
f 204/204/204 148/148/148 202/202/202
f 148/148/148 204/204/204 149/149/149
f 205/205/205 149/149/149 204/204/204
f 149/149/149 205/205/205 151/151/151
f 206/206/206 151/151/151 205/205/205
f 153/153/153 202/202/202 148/148/148
f 202/202/202 153/153/153 201/201/201
f 203/203/203 197/197/197 207/207/207
f 203/203/203 207/207/207 204/204/204
f 205/205/205 204/204/204 207/207/207
f 205/205/205 207/207/207 206/206/206
f 208/208/208 207/207/207 197/197/197
f 197/197/197 185/185/185 208/208/208
f 183/183/183 208/208/208 185/185/185
f 183/183/183 209/209/209 208/208/208
f 183/183/183 178/178/178 209/209/209
f 177/177/177 209/209/209 178/178/178
f 170/170/170 208/208/208 209/209/209
f 151/151/151 206/206/206 158/158/158
f 166/166/166 158/158/158 206/206/206
f 166/166/166 206/206/206 169/169/169
f 170/170/170 169/169/169 208/208/208
f 207/207/207 208/208/208 169/169/169
f 169/169/169 206/206/206 207/207/207
f 209/209/209 177/177/177 210/210/210
f 209/209/209 210/210/210 170/170/170
f 211/211/211 210/210/210 177/177/177
f 211/211/211 177/177/177 212/212/212
f 175/175/175 212/212/212 177/177/177
f 213/213/213 211/211/211 212/212/212
f 212/212/212 214/214/214 213/213/213
f 212/212/212 175/175/175 214/214/214
f 213/213/213 215/215/215 211/211/211
f 173/173/173 214/214/214 175/175/175
f 173/173/173 171/171/171 214/214/214
f 216/216/216 214/214/214 171/171/171
f 171/171/171 170/170/170 216/216/216
f 214/214/214 216/216/216 217/217/217
f 218/218/218 217/217/217 216/216/216
f 219/219/219 170/170/170 210/210/210
f 215/215/215 219/219/219 210/210/210
f 220/220/220 210/210/210 211/211/211
f 222/222/222 216/216/216 221/221/221
f 222/222/222 223/223/223 216/216/216
f 221/221/221 216/216/216 170/170/170
f 224/224/224 221/221/221 170/170/170
f 224/224/224 225/225/225 221/221/221
f 227/227/227 108/108/108 226/226/226
f 227/227/227 228/228/228 124/124/124
f 123/123/123 124/124/124 228/228/228
f 123/123/123 228/228/228 181/181/181
f 229/229/229 181/181/181 228/228/228
f 181/181/181 229/229/229 176/176/176
f 174/174/174 176/176/176 229/229/229
f 174/174/174 229/229/229 230/230/230
f 105/105/105 174/174/174 230/230/230
f 230/230/230 107/107/107 105/105/105
f 124/124/124 116/116/116 231/231/231
f 108/108/108 231/231/231 116/116/116
f 137/137/137 232/232/232 138/138/138
f 141/141/141 138/138/138 232/232/232
f 232/232/232 233/233/233 141/141/141
f 143/143/143 141/141/141 233/233/233
f 143/143/143 233/233/233 234/234/234
f 143/143/143 234/234/234 144/144/144
f 235/235/235 144/144/144 234/234/234
f 235/235/235 153/153/153 144/144/144
f 236/236/236 234/234/234 233/233/233
f 236/236/236 237/237/237 234/234/234
f 235/235/235 201/201/201 153/153/153
f 235/235/235 234/234/234 201/201/201
f 200/200/200 201/201/201 234/234/234
f 200/200/200 234/234/234 238/238/238
f 200/200/200 238/238/238 198/198/198
f 239/239/239 198/198/198 238/238/238
f 198/198/198 239/239/239 195/195/195
f 194/194/194 195/195/195 239/239/239
f 240/240/240 238/238/238 234/234/234
f 237/237/237 240/240/240 234/234/234
f 243/243/243 242/242/242 241/241/241
f 244/244/244 241/241/241 242/242/242
f 242/242/242 245/245/245 244/244/244
f 243/243/243 241/241/241 246/246/246
f 247/247/247 246/246/246 241/241/241
f 246/246/246 247/247/247 248/248/248
f 249/249/249 248/248/248 247/247/247
f 249/249/249 250/250/250 248/248/248
f 252/252/252 244/244/244 251/251/251
f 253/253/253 252/252/252 251/251/251
f 255/255/255 120/120/120 254/254/254
f 122/122/122 254/254/254 120/120/120
f 120/120/120 255/255/255 119/119/119
f 256/256/256 119/119/119 255/255/255
f 119/119/119 256/256/256 125/125/125
f 257/257/257 125/125/125 256/256/256
f 125/125/125 257/257/257 127/127/127
f 258/258/258 127/127/127 257/257/257
f 127/127/127 258/258/258 129/129/129
f 259/259/259 129/129/129 258/258/258
f 129/129/129 259/259/259 132/132/132
f 260/260/260 132/132/132 259/259/259
f 132/132/132 260/260/260 134/134/134
f 122/122/122 180/180/180 254/254/254
f 261/261/261 254/254/254 180/180/180
f 180/180/180 179/179/179 261/261/261
f 262/262/262 261/261/261 179/179/179
f 179/179/179 182/182/182 262/262/262
f 263/263/263 262/262/262 182/182/182
f 182/182/182 184/184/184 263/263/263
f 264/264/264 263/263/263 184/184/184
f 184/184/184 186/186/186 264/264/264
f 265/265/265 264/264/264 186/186/186
f 186/186/186 189/189/189 265/265/265
f 189/189/189 191/191/191 266/266/266
f 267/267/267 266/266/266 191/191/191
f 266/266/266 268/268/268 189/189/189
f 271/271/271 270/270/270 269/269/269
f 274/274/274 273/273/273 272/272/272
f 276/276/276 275/275/275 110/110/110
f 109/109/109 110/110/110 275/275/275
f 109/109/109 275/275/275 114/114/114
f 277/277/277 114/114/114 275/275/275
f 110/110/110 117/117/117 276/276/276
f 278/278/278 276/276/276 117/117/117
f 278/278/278 117/117/117 279/279/279
f 156/156/156 279/279/279 117/117/117
f 156/156/156 157/157/157 279/279/279
f 114/114/114 277/277/277 157/157/157
f 280/280/280 279/279/279 157/157/157
f 281/281/281 157/157/157 277/277/277
f 276/276/276 282/282/282 275/275/275
f 278/278/278 282/282/282 276/276/276
f 275/275/275 283/283/283 277/277/277
f 284/284/284 277/277/277 283/283/283
f 285/285/285 280/280/280 281/281/281
f 277/277/277 285/285/285 281/281/281
f 286/286/286 285/285/285 277/277/277
f 287/287/287 282/282/282 278/278/278
f 288/288/288 287/287/287 279/279/279
f 279/279/279 289/289/289 278/278/278
f 281/281/281 290/290/290 157/157/157
f 292/292/292 275/275/275 291/291/291
f 295/295/295 294/294/294 293/293/293
f 295/295/295 296/296/296 294/294/294
f 297/297/297 294/294/294 296/296/296
f 296/296/296 298/298/298 297/297/297
f 299/299/299 297/297/297 298/298/298
f 299/299/299 300/300/300 297/297/297
f 298/298/298 301/301/301 299/299/299
f 301/301/301 302/302/302 299/299/299
f 303/303/303 299/299/299 302/302/302
f 298/298/298 304/304/304 301/301/301
f 305/305/305 301/301/301 304/304/304
f 304/304/304 306/306/306 305/305/305
f 307/307/307 305/305/305 306/306/306
f 306/306/306 308/308/308 307/307/307
f 307/307/307 308/308/308 309/309/309
f 308/308/308 310/310/310 309/309/309
f 312/312/312 311/311/311 308/308/308
f 311/311/311 312/312/312 313/313/313
f 312/312/312 314/314/314 313/313/313
f 315/315/315 313/313/313 314/314/314
f 311/311/311 313/313/313 316/316/316
f 317/317/317 316/316/316 313/313/313
f 318/318/318 308/308/308 311/311/311
f 318/318/318 311/311/311 319/319/319
f 320/320/320 319/319/319 311/311/311
f 320/320/320 311/311/311 321/321/321
f 323/323/323 322/322/322 294/294/294
f 325/325/325 324/324/324 323/323/323
f 324/324/324 326/326/326 323/323/323
f 293/293/293 323/323/323 326/326/326
f 325/325/325 327/327/327 324/324/324
f 328/328/328 324/324/324 327/327/327
f 324/324/324 328/328/328 326/326/326
f 326/326/326 328/328/328 329/329/329
f 330/330/330 329/329/329 328/328/328
f 329/329/329 330/330/330 331/331/331
f 332/332/332 331/331/331 330/330/330
f 331/331/331 332/332/332 333/333/333
f 334/334/334 333/333/333 332/332/332
f 335/335/335 333/333/333 334/334/334
f 335/335/335 336/336/336 333/333/333
f 335/335/335 337/337/337 336/336/336
f 338/338/338 336/336/336 337/337/337
f 336/336/336 338/338/338 339/339/339
f 341/341/341 336/336/336 340/340/340
f 341/341/341 340/340/340 342/342/342
f 336/336/336 343/343/343 340/340/340
f 344/344/344 340/340/340 343/343/343
f 344/344/344 345/345/345 340/340/340
f 341/341/341 346/346/346 336/336/336
f 349/349/349 348/348/348 347/347/347
f 352/352/352 351/351/351 350/350/350
f 353/353/353 350/350/350 351/351/351
f 351/351/351 352/352/352 354/354/354
f 355/355/355 354/354/354 352/352/352
f 350/350/350 356/356/356 352/352/352
f 357/357/357 352/352/352 356/356/356
f 352/352/352 357/357/357 355/355/355
f 358/358/358 357/357/357 356/356/356
f 356/356/356 359/359/359 358/358/358
f 356/356/356 350/350/350 359/359/359
f 360/360/360 358/358/358 359/359/359
f 361/361/361 359/359/359 350/350/350
f 350/350/350 362/362/362 361/361/361
f 363/363/363 361/361/361 362/362/362
f 358/358/358 364/364/364 357/357/357
f 365/365/365 357/357/357 364/364/364
f 365/365/365 355/355/355 357/357/357
f 366/366/366 358/358/358 360/360/360
f 366/366/366 364/364/364 358/358/358
f 351/351/351 354/354/354 367/367/367
f 351/351/351 367/367/367 368/368/368
f 369/369/369 367/367/367 354/354/354
f 365/365/365 364/364/364 370/370/370
f 371/371/371 370/370/370 364/364/364
f 364/364/364 366/366/366 371/371/371
f 365/365/365 370/370/370 355/355/355
f 372/372/372 355/355/355 370/370/370
f 355/355/355 372/372/372 354/354/354
f 373/373/373 354/354/354 372/372/372
f 372/372/372 374/374/374 373/373/373
f 375/375/375 373/373/373 374/374/374
f 374/374/374 372/372/372 376/376/376
f 370/370/370 376/376/376 372/372/372
f 370/370/370 377/377/377 376/376/376
f 376/376/376 378/378/378 374/374/374
f 376/376/376 379/379/379 378/378/378
f 380/380/380 374/374/374 378/378/378
f 374/374/374 380/380/380 381/381/381
f 382/382/382 381/381/381 380/380/380
f 383/383/383 373/373/373 375/375/375
f 373/373/373 383/383/383 354/354/354
f 369/369/369 354/354/354 383/383/383
f 385/385/385 384/384/384 379/379/379
f 379/379/379 386/386/386 385/385/385
f 389/389/389 388/388/388 387/387/387
f 390/390/390 387/387/387 388/388/388
f 388/388/388 389/389/389 391/391/391
f 392/392/392 391/391/391 389/389/389
f 387/387/387 393/393/393 389/389/389
f 394/394/394 389/389/389 393/393/393
f 389/389/389 394/394/394 392/392/392
f 393/393/393 387/387/387 395/395/395
f 396/396/396 395/395/395 387/387/387
f 387/387/387 397/397/397 396/396/396
f 398/398/398 396/396/396 397/397/397
f 399/399/399 397/397/397 388/388/388
f 400/400/400 392/392/392 394/394/394
f 388/388/388 391/391/391 401/401/401
f 402/402/402 401/401/401 391/391/391
f 394/394/394 393/393/393 403/403/403
f 404/404/404 403/403/403 393/393/393
f 393/393/393 395/395/395 404/404/404
f 405/405/405 403/403/403 404/404/404
f 404/404/404 406/406/406 405/405/405
f 406/406/406 404/404/404 395/395/395
f 407/407/407 405/405/405 406/406/406
f 405/405/405 408/408/408 403/403/403
f 409/409/409 403/403/403 408/408/408
f 400/400/400 394/394/394 409/409/409
f 403/403/403 409/409/409 394/394/394
f 410/410/410 405/405/405 407/407/407
f 411/411/411 408/408/408 405/405/405
f 409/409/409 408/408/408 412/412/412
f 413/413/413 412/412/412 408/408/408
f 412/412/412 413/413/413 414/414/414
f 414/414/414 413/413/413 415/415/415
f 416/416/416 415/415/415 413/413/413
f 414/414/414 417/417/417 412/412/412
f 418/418/418 412/412/412 417/417/417
f 412/412/412 418/418/418 409/409/409
f 418/418/418 417/417/417 419/419/419
f 420/420/420 419/419/419 417/417/417
f 419/419/419 420/420/420 421/421/421
f 422/422/422 421/421/421 420/420/420
f 421/421/421 391/391/391 419/419/419
f 392/392/392 419/419/419 391/391/391
f 419/419/419 392/392/392 418/418/418
f 422/422/422 423/423/423 421/421/421
f 421/421/421 423/423/423 391/391/391
f 417/417/417 424/424/424 420/420/420
f 415/415/415 424/424/424 414/414/414
f 417/417/417 414/414/414 424/424/424
f 425/425/425 420/420/420 424/424/424
f 420/420/420 425/425/425 426/426/426
f 427/427/427 426/426/426 425/425/425
f 400/400/400 418/418/418 392/392/392
f 402/402/402 391/391/391 423/423/423
f 400/400/400 409/409/409 418/418/418
f 430/430/430 429/429/429 428/428/428
f 413/413/413 431/431/431 416/416/416
f 408/408/408 432/432/432 413/413/413
f 435/435/435 434/434/434 433/433/433
f 434/434/434 435/435/435 436/436/436
f 437/437/437 436/436/436 435/435/435
f 437/437/437 438/438/438 436/436/436
f 436/436/436 439/439/439 434/434/434
f 436/436/436 440/440/440 439/439/439
f 441/441/441 434/434/434 439/439/439
f 434/434/434 441/441/441 442/442/442
f 443/443/443 442/442/442 441/441/441
f 435/435/435 444/444/444 437/437/437
f 445/445/445 437/437/437 444/444/444
f 444/444/444 446/446/446 445/445/445
f 447/447/447 445/445/445 446/446/446
f 446/446/446 448/448/448 447/447/447
f 448/448/448 446/446/446 449/449/449
f 450/450/450 447/447/447 448/448/448
f 448/448/448 451/451/451 450/450/450
f 452/452/452 450/450/450 451/451/451
f 450/450/450 452/452/452 453/453/453
f 450/450/450 453/453/453 447/447/447
f 454/454/454 453/453/453 452/452/452
f 445/445/445 447/447/447 455/455/455
f 453/453/453 455/455/455 447/447/447
f 445/445/445 455/455/455 437/437/437
f 456/456/456 437/437/437 455/455/455
f 454/454/454 457/457/457 453/453/453
f 455/455/455 457/457/457 456/456/456
f 453/453/453 458/458/458 455/455/455
f 446/446/446 444/444/444 459/459/459
f 460/460/460 459/459/459 444/444/444
f 460/460/460 444/444/444 461/461/461
f 435/435/435 461/461/461 444/444/444
f 461/461/461 435/435/435 433/433/433
f 462/462/462 446/446/446 459/459/459
f 462/462/462 463/463/463 448/448/448
f 464/464/464 448/448/448 463/463/463
f 466/466/466 465/465/465 438/438/438
f 438/438/438 467/467/467 466/466/466
f 470/470/470 469/469/469 468/468/468
f 470/470/470 468/468/468 471/471/471
f 472/472/472 471/471/471 468/468/468
f 470/470/470 473/473/473 469/469/469
f 474/474/474 469/469/469 473/473/473
f 475/475/475 474/474/474 473/473/473
f 473/473/473 476/476/476 475/475/475
f 473/473/473 470/470/470 476/476/476
f 477/477/477 475/475/475 476/476/476
f 478/478/478 476/476/476 470/470/470
f 475/475/475 479/479/479 474/474/474
f 480/480/480 474/474/474 479/479/479
f 480/480/480 479/479/479 481/481/481
f 482/482/482 481/481/481 479/479/479
f 481/481/481 483/483/483 480/480/480
f 483/483/483 481/481/481 484/484/484
f 483/483/483 484/484/484 485/485/485
f 485/485/485 484/484/484 486/486/486
f 487/487/487 484/484/484 481/481/481
f 484/484/484 487/487/487 488/488/488
f 488/488/488 489/489/489 484/484/484
f 490/490/490 488/488/488 487/487/487
f 487/487/487 491/491/491 490/490/490
f 492/492/492 487/487/487 481/481/481
f 493/493/493 480/480/480 483/483/483
f 480/480/480 493/493/493 474/474/474
f 469/469/469 474/474/474 493/493/493
f 469/469/469 493/493/493 494/494/494
f 495/495/495 494/494/494 493/493/493
f 483/483/483 496/496/496 493/493/493
f 495/495/495 493/493/493 496/496/496
f 483/483/483 485/485/485 496/496/496
f 498/498/498 497/497/497 491/491/491
f 500/500/500 499/499/499 491/491/491
f 469/469/469 501/501/501 468/468/468
f 503/503/503 475/475/475 502/502/502
f 504/504/504 479/479/479 475/475/475
f 504/504/504 482/482/482 479/479/479
