g Blue_mag_m_pve_2_hand_r
v -0.576367974 0.0802489743 1.12446404
v -0.609356761 0.112088278 1.10610843
v -0.58967495 0.0724909753 1.09439898
v -0.607040823 0.115318216 1.11345565
v -0.544025242 0.0276273228 1.13423812
v -0.547764719 0.0194146037 1.1074574
v -0.638556898 0.0828579888 1.05430293
v -0.651940882 0.0977419838 1.05686295
v -0.662559867 0.0766129792 1.03089488
v -0.67600888 0.0849379897 1.03343594
v -0.627757847 0.0493099764 1.05177486
v -0.604381979 0.0473249629 1.06730092
v -0.620435953 0.000653975003 1.05114603
v -0.589189947 0.00277997018 1.07361495
v -0.616506994 -0.0371520333 1.05971396
v -0.59661293 -0.0334180146 1.07001293
v -0.628522992 -0.0414950177 1.03733492
v -0.64368993 -0.0600360185 1.05204201
v -0.634667933 -0.0670650154 1.07837188
v -0.59661293 -0.0334180146 1.07001293
v -0.634686947 -0.0119960206 1.03048396
v -0.641869783 0.0236669816 1.022807
v -0.655584931 0.0538769811 1.02623701
v -0.670922935 0.100801982 1.06266892
v -0.698405981 0.0791139752 1.04160404
v -0.693928897 0.0770519972 1.00498295
v -0.679412901 0.0697149858 1.00289404
v -0.677127004 0.0495709777 1.00349092
v -0.677127004 0.0495709777 1.00349092
v -0.715935946 0.0689569861 1.00786293
v -0.701251864 0.0438569859 1.0467639
v -0.716497958 0.0426559933 1.008672
v -0.692585886 0.0413739756 1.00373805
v -0.678290904 0.04538697 1.03598392
v -0.682208896 0.0400339589 0.951223969
v -0.688918889 0.0537609942 0.951489031
v -0.700010896 0.061522983 0.950401962
v -0.715352893 0.0547199845 0.950466871
v -0.71567291 0.0328989886 0.953280985
v -0.699161947 0.0316959769 0.952021003
v -0.692585886 0.0413739756 1.00373805
v -0.681589901 0.0397809781 0.91721797
v -0.681589901 0.0397809781 0.91721797
v -0.681589901 0.0397809781 0.91721797
v -0.681589901 0.0397809781 0.91721797
v -0.71567291 0.0328989886 0.953280985
v -0.699161947 0.0316959769 0.952021003
v -0.71567291 0.0328989886 0.953280985
v -0.681589901 0.0397809781 0.91721797
v -0.678290904 0.04538697 1.03598392
v -0.655584931 0.0538769811 1.02623701
v -0.681589901 0.0397809781 0.91721797
v -0.699161947 0.0316959769 0.952021003
v -0.642671943 -0.0707333907 1.11032832
v -0.618319929 -0.0665760115 1.09074891
v -0.634667933 -0.0670650154 1.07837188
v -0.616708934 -0.0707290322 1.13461697
v -0.64368993 -0.0600360185 1.05204201
v -0.642671943 -0.0707333907 1.11032832
v -0.667945921 -0.0600290373 1.06889701
v -0.642671943 -0.0707333907 1.11032832
v -0.687938988 -0.0800500363 1.02538395
v -0.687631011 -0.0317480192 1.05611396
v -0.704708934 -0.0544430241 1.01722896
v -0.694931924 -0.0896380246 0.958706975
v -0.707008898 -0.070132032 0.954967022
v -0.662415922 -0.0796490088 1.01222003
v -0.675753951 -0.0868910179 0.959290981
v -0.666972995 -0.0642430186 0.908600986
v -0.680986941 -0.0377100371 1.00428987
v -0.707008898 -0.070132032 0.954967022
v -0.698570907 -0.0566450506 0.95143497
v -0.660057902 -0.0180870332 1.03911698
v -0.682777941 -0.0357300229 1.00378597
v -0.6676355 -0.0582335442 1.0815686
v -0.691827476 -0.0256857816 1.07137108
v -0.697212875 0.00642098906 1.05264902
v -0.708212852 -0.0364610292 1.01399803
v -0.715743899 -0.0115980189 1.00806701
v -0.71141988 -0.0475530326 0.945798993
v -0.721378028 -0.0201460253 0.943622947
v -0.695134938 0.000839967688 0.997870982
v -0.704033852 -0.00544902775 0.951020956
v -0.68332696 -0.0239220336 0.895348966
v -0.682777941 -0.0357300229 1.00378597
v -0.689849913 -0.0444940366 0.952098072
v -0.670248926 0.0144199776 1.03666997
v -0.694953978 0.00433297874 1.00216198
v -0.68332696 -0.0239220336 0.895348966
v -0.699000895 -0.000357041339 1.06970775
v -0.701970398 0.0212882403 1.06913042
v -0.704081237 0.0455999449 1.06478298
v -0.701251864 0.0438569859 1.0467639
v -0.69662559 0.089883171 1.05546427
v -0.658833623 0.057286866 1.12851477
v -0.646467328 0.103912488 1.11037207
v -0.673340201 0.103167087 1.06656873
v -0.69662559 0.089883171 1.05546427
v -0.654918432 0.00489268778 1.13586819
v -0.619821846 -0.037675336 1.14862084
v -0.642671943 -0.0707333907 1.11032832
v -0.616708934 -0.0707290322 1.13461697
v -0.580601394 -0.0412118509 1.17031634
v -0.716905892 0.00392398564 1.014346
v -0.721230924 0.0259979758 1.01118195
v -0.721896887 -0.00204801559 0.955850959
v -0.727043927 0.0144839715 0.954549968
v -0.702731848 0.0354749821 1.00137794
v -0.714111924 0.0276769847 0.952008963
v -0.690202951 0.00816397928 0.908511937
v -0.690202951 0.00816397928 0.908511937
v -0.694953978 0.00433297874 1.00216198
v -0.700648963 -0.00207403186 0.952947974
v -0.690202951 0.00816397928 0.908511937
v -0.701251864 0.0438569859 1.0467639
v -0.678290904 0.04538697 1.03598392
v -0.69662559 0.089883171 1.05546427
v -0.69662559 0.089883171 1.05546427
v -0.673340201 0.103167087 1.06656873
v -0.673340201 0.103167087 1.06656873
v -0.673340201 0.103167087 1.06656873
v -0.582652867 0.126177818 1.13634479
v -0.634667933 -0.0670650154 1.07837188
v -0.618319929 -0.0665760115 1.09074891
v -0.692408979 -0.00979703851 0.941869915
v -0.663642943 -0.0218130145 0.986060977
v -0.671777964 -0.000160026553 0.986160934
v -0.680528939 -0.0303150173 0.941937029
v -0.689849913 -0.0444940366 0.952098072
v -0.682777941 -0.0357300229 1.00378597
v -0.68332696 -0.0239220336 0.895348966
v -0.670248926 0.0144199776 1.03666997
v -0.68332696 -0.0239220336 0.895348966
v -0.704033852 -0.00544902775 0.951020956
v -0.660057902 -0.0180870332 1.03911698
v -0.663642943 -0.0218130145 0.986060977
v -0.68332696 -0.0239220336 0.895348966
v -0.670248926 0.0144199776 1.03666997
v -0.695134938 0.000839967688 0.997870982
v -0.704033852 -0.00544902775 0.951020956
v -0.642722905 -0.0583350249 1.00276804
v -0.65832597 -0.0354670323 0.997978926
v -0.664007962 -0.0713260248 0.952174067
v -0.679219961 -0.0527660362 0.945761979
v -0.675753951 -0.0868910179 0.959290981
v -0.662415922 -0.0796490088 1.01222003
v -0.666972995 -0.0642430186 0.908600986
v -0.666972995 -0.0642430186 0.908600986
v -0.660057902 -0.0180870332 1.03911698
v -0.680986941 -0.0377100371 1.00428987
v -0.698570907 -0.0566450506 0.95143497
v -0.666972995 -0.0642430186 0.908600986
v -0.692835927 0.0270049702 0.948778987
v -0.670102894 0.0150399897 0.990836024
v -0.681960881 0.038848985 0.993467987
v -0.683865905 0.00804398302 0.949853063
v -0.700648963 -0.00207403186 0.952947974
v -0.690202951 0.00816397928 0.908511937
v -0.678290904 0.04538697 1.03598392
v -0.702731848 0.0354749821 1.00137794
v -0.690202951 0.00816397928 0.908511937
v -0.714111924 0.0276769847 0.952008963
v -0.690202951 0.00816397928 0.908511937
v -0.670102894 0.0150399897 0.990836024
v -0.694953978 0.00433297874 1.00216198
v -0.670248926 0.0144199776 1.03666997
v -0.68332696 -0.0239220336 0.895348966
v -0.704033852 -0.00544902775 0.951020956
v -0.666972995 -0.0642430186 0.908600986
v -0.698570907 -0.0566450506 0.95143497
v -0.666972995 -0.0642430186 0.908600986
v -0.707008898 -0.070132032 0.954967022
v -0.546370625 -0.0312979631 1.16133916
v -0.550959945 -0.0297520161 1.08936203
v -0.545522451 -0.0836845934 1.11510265
v -0.551107585 -0.087479122 1.05710292
v -0.554494619 -0.056511905 1.04763806
v -0.546370625 -0.0312979631 1.16133916
v -0.592806697 -0.0542869084 1.047858
v -0.60838896 -0.0810310319 1.06511796
v -0.618319929 -0.0665760115 1.09074891
v -0.598077416 -0.0852933079 1.02738154
v -0.593858004 -0.0704012439 1.02379465
v -0.58263725 -0.0918698013 0.981151342
v -0.569261014 -0.0720302388 1.02726567
v -0.571604848 -0.0971711129 1.03186059
v -0.546370625 -0.0312979631 1.16133916
v -0.545522451 -0.0836845934 1.11510265
v -0.577656984 -0.0920990258 1.12505698
v -0.616708934 -0.0707290322 1.13461697
v -0.569465101 -0.121760003 1.0554738
v -0.609723926 -0.0984079987 1.07340777
v -0.60838896 -0.0810310319 1.06511796
v -0.595408857 -0.099324435 1.02879655
v -0.598077416 -0.0852933079 1.02738154
v -0.58263725 -0.0918698013 0.981151342
v -0.574391961 -0.103776872 1.02570987
v -0.574604988 -0.107750021 1.05285561
v -0.545522451 -0.0836845934 1.11510265
v -0.551107585 -0.087479122 1.05710292
v -0.574604988 -0.107750021 1.05285561
v -0.569465101 -0.121760003 1.0554738
v -0.574391961 -0.103776872 1.02570987
v -0.574604988 -0.107750021 1.05285561
v -0.571604848 -0.0971711129 1.03186059
v -0.574391961 -0.103776872 1.02570987
v -0.58263725 -0.0918698013 0.981151342
v -0.559095681 0.0764042884 1.45003581
v -0.600926936 0.0102670761 1.37904441
v -0.628584981 0.0646981224 1.40716851
v -0.527436078 0.021735128 1.42551935
v -0.558778226 -0.0510097481 1.32583666
v -0.455646783 -0.0416005403 1.38796473
v -0.43258512 0.00202315324 1.47922099
v -0.476772219 0.0383373499 1.49728942
v -0.536702335 0.0840738565 1.54651499
v -0.489205539 -0.0717954934 1.33551633
v -0.388074249 -0.0159542933 1.46196532
v -0.394496083 -0.0613581464 1.33365548
v -0.607911587 0.163198829 1.34995937
v -0.531136751 0.188635558 1.38783991
v -0.58112967 0.196778253 1.31096077
v -0.476819903 0.232876644 1.3213774
v -0.45090872 0.228784099 1.434273
v -0.489190131 0.197835341 1.46324778
v -0.536702335 0.0840738565 1.54651499
v -0.512973368 0.218018934 1.29952466
v -0.418029517 0.226372138 1.29428315
v -0.411325306 0.242094457 1.41186953
v -0.421002924 0.0159402937 1.47156394
v -0.388253927 0.00117211812 1.45455658
v -0.512050807 0.0866386592 1.5380801
v -0.46327731 0.182876945 1.45981896
v -0.434822291 0.208245248 1.43132079
v -0.405523211 0.218795717 1.41031098
v -0.405523211 0.218795717 1.41031098
v -0.410436809 0.190081224 1.29807782
v -0.428169161 0.214946017 1.29612088
v -0.506221771 0.205641612 1.30046344
v -0.563728511 0.177537173 1.30004406
v -0.59060365 0.143896535 1.32661951
v -0.613872111 0.0628389791 1.37941158
v -0.592343748 0.0232375544 1.35823381
v -0.551872253 -0.02957136 1.3108989
v -0.483450472 -0.0448058136 1.32772768
v -0.426962882 -0.037344072 1.32626188
v -0.592395902 0.180863187 1.26911223
v -0.52815336 0.198554873 1.26738322
v -0.524594784 0.174770012 1.26955843
v -0.431724548 0.187444881 1.26487672
v -0.430499494 0.212323934 1.26039565
v -0.583363712 0.160121664 1.26192904
v -0.619768381 0.142223403 1.30608416
v -0.60873425 0.124680109 1.29397762
v -0.640229225 0.060021434 1.36132872
v -0.630294323 0.0569237322 1.34096861
v -0.610250771 -0.00528084766 1.32467771
v -0.630294323 0.0569237322 1.34096861
v -0.601859152 0.00992274471 1.30967927
v -0.574128151 -0.0438492484 1.2762816
v -0.568528533 -0.0232671835 1.26713824
v -0.574128151 -0.0438492484 1.2762816
v -0.501107335 -0.0529543869 1.29414964
v -0.424967289 -0.0515302643 1.28248775
v -0.426962882 -0.037344072 1.32626188
v -0.500084281 -0.0283583682 1.29261076
v -0.568528533 -0.0232671835 1.26713824
v -0.574128151 -0.0438492484 1.2762816
v -0.4238846 -0.0300200079 1.27887273
v -0.594006479 0.065577738 1.31800044
v -0.569081187 -0.0039979741 1.28042436
v -0.569081187 -0.0039979741 1.28042436
v -0.427246422 -0.023576064 1.3228451
v -0.4238846 -0.0300200079 1.27887273
v -0.397776634 -0.0280642454 1.32392716
v -0.388074249 -0.0159542933 1.46196532
v -0.397776634 -0.0280642454 1.32392716
v -0.388253927 0.00117211812 1.45455658
v -0.536702335 0.0840738565 1.54651499
v -0.454388291 0.0462003872 1.48962212
v -0.512050807 0.0866386592 1.5380801
v -0.536702335 0.0840738565 1.54651499
v -0.430499494 0.212323934 1.26039565
v -0.428169161 0.214946017 1.29612088
v -0.42887795 0.187378034 1.30028427
v -0.431724548 0.187444881 1.26487672
v -0.42887795 0.187378034 1.30028427
v -0.428169161 0.214946017 1.29612088
v -0.410436809 0.190081224 1.29807782
v -0.410436809 0.190081224 1.29807782
v -0.431724548 0.187444881 1.26487672
v -0.411923707 0.187365621 1.25855601
v -0.594006479 0.065577738 1.31800044
v -0.580224931 0.118499599 1.28809798
v -0.569847584 0.141143903 1.27124453
v -0.524594784 0.174770012 1.26955843
v -0.569847584 0.141143903 1.27124453
v -0.503054857 0.170412019 1.22208357
v -0.431724548 0.187444881 1.26487672
v -0.411923707 0.187365621 1.25855601
v -0.403616846 0.167979911 1.19961226
v -0.477181166 0.15719904 1.17258275
v -0.536857188 0.152111635 1.17862391
v -0.528092802 0.120250717 1.11028481
v -0.582652867 0.126177818 1.13634479
v -0.600520968 0.119103774 1.22306108
v -0.580224931 0.118499599 1.28809798
v -0.594006479 0.065577738 1.31800044
v -0.631588101 0.0535517484 1.24534988
v -0.569081187 -0.0039979741 1.28042436
v -0.590686142 -0.00660237297 1.23849881
v -0.524569333 -0.0432913974 1.21070981
v -0.490560621 -0.0430510715 1.25514698
v -0.462756157 -0.0339391902 1.17075968
v -0.499740064 -0.0319821462 1.13293576
v -0.546370625 -0.0312979631 1.16133916
v -0.395612627 -0.030011978 1.19452071
v -0.500084281 -0.0283583682 1.29261076
v -0.4238846 -0.0300200079 1.27887273
v -0.397776634 -0.0280642454 1.32392716
v -0.427246422 -0.023576064 1.3228451
v -0.654918432 0.00489268778 1.13586819
v -0.658833623 0.057286866 1.12851477
v -0.646467328 0.103912488 1.11037207
v -0.619821846 -0.037675336 1.14862084
v -0.580601394 -0.0412118509 1.17031634
v -0.401148587 -0.00541691761 1.19331217
v -0.397776634 -0.0280642454 1.32392716
v -0.40562138 0.0137580149 1.31715178
v -0.395612627 -0.030011978 1.19452071
v -0.397409111 0.0226232912 1.39987564
v -0.388253927 0.00117211812 1.45455658
v -0.444518924 0.046203997 1.43823588
v -0.421002924 0.0159402937 1.47156394
v -0.454388291 0.0462003872 1.48962212
v -0.457405955 0.0633659959 1.44626093
v -0.463303983 0.0840929896 1.44546509
v -0.512050807 0.0866386592 1.5380801
v -0.457878977 0.123682 1.42424905
v -0.46327731 0.182876945 1.45981896
v -0.447398901 0.143307984 1.4050051
v -0.434822291 0.208245248 1.43132079
v -0.439436913 0.157485023 1.39051008
v -0.405523211 0.218795717 1.41031098
v -0.412459493 0.173666611 1.36343813
v -0.412865907 0.16909118 1.30641949
v -0.387486041 0.145939723 1.35066032
v -0.42103675 0.168673202 1.2876178
v -0.410436809 0.190081224 1.29807782
v -0.411923707 0.187365621 1.25855601
v -0.403616846 0.167979911 1.19961226
v -0.406135559 0.142997846 1.20639861
v -0.367010862 0.103663713 1.34647429
v -0.400157154 0.0932153687 1.28771257
v -0.471625954 -0.0164867491 1.23914528
v -0.484357685 0.0581465811 1.18818688
v -0.544025242 0.0276273228 1.13423812
v -0.374217153 0.0215702523 1.36770964
v -0.480485409 0.132330745 1.18176198
v -0.477181166 0.15719904 1.17258275
v -0.403616846 0.167979911 1.19961226
v -0.528092802 0.120250717 1.11028481
v -0.527953267 0.0954399481 1.1196022
v -0.576367974 0.0802489743 1.12446404
v -0.582652867 0.126177818 1.13634479
v -0.502656281 -0.00451179035 1.13366318
v -0.546370625 -0.0312979631 1.16133916
v -0.499740064 -0.0319821462 1.13293576
v -0.462756157 -0.0339391902 1.17075968
v -0.472071677 -0.00856187847 1.17171311
v -0.395612627 -0.030011978 1.19452071
v -0.471625954 -0.0164867491 1.23914528
v -0.40562138 0.0137580149 1.31715178
v -0.424967289 -0.0515302643 1.28248775
v -0.426962882 -0.037344072 1.32626188
v -0.427246422 -0.023576064 1.3228451
v -0.480485409 0.132330745 1.18176198
v -0.42103675 0.168673202 1.2876178
v -0.40562138 0.0137580149 1.31715178
v -0.397409111 0.0226232912 1.39987564
v -0.382830918 0.100459993 1.36083508
v -0.392742902 0.0686289743 1.38038814
v -0.39692992 0.139961034 1.35767913
v -0.419055998 0.0478789657 1.40768015
v -0.431496978 0.0444139764 1.421597
v -0.416930944 0.158586025 1.36895418
v -0.633881688 -0.0298094545 1.24724388
v -0.644501925 -0.0564011186 1.17932153
v -0.686081827 0.0572989546 1.29029596
v -0.6206218 -0.007527804 1.24118829
v -0.660112917 0.0570541695 1.28632855
v -0.502021074 -0.0582107902 1.23799789
v -0.507006347 -0.0835210234 1.2396363
v -0.694537461 0.0434855111 1.16984022
v -0.741679072 0.0151409935 1.07232773
v -0.712422788 0.113040596 1.05757475
v -0.640385807 0.127524331 1.15140986
v -0.63424319 0.127798378 1.02145648
v -0.608775914 0.155422643 1.05737293
v -0.544332623 0.145224422 1.07709467
v -0.54937613 0.150992483 1.10241759
v -0.524107218 0.178239062 1.18842661
v -0.610012472 0.151243955 1.21186423
v -0.686081827 0.0572989546 1.29029596
v -0.505560875 0.166202739 1.14610922
v -0.698651969 0.100176983 1.0522573
v -0.72723037 0.0161418729 1.06469297
v -0.689558566 -0.0735317767 1.07965386
v -0.644892633 -0.0565496609 1.17845726
v -0.680290461 -0.0616579428 1.07288706
v -0.64589864 -0.115965284 1.05600536
v -0.640596092 -0.0974550918 1.04157007
v -0.60785234 0.143399447 1.05176127
v -0.628203034 0.112513065 1.01983333
v -0.543166101 0.131973162 1.07165062
v -0.591680884 0.140676886 1.21250141
v -0.660112917 0.0570541695 1.28632855
v -0.686081827 0.0572989546 1.29029596
v -0.574588776 -0.124093533 1.1015079
v -0.640596092 -0.0974550918 1.04157007
v -0.644513011 -0.056873586 1.1783433
v -0.51989454 -0.110597149 1.0750308
v -0.574093938 -0.111295573 1.09698153
v -0.49830994 -0.0828961059 1.13016272
v -0.519853175 -0.0981301293 1.06876612
v -0.498564363 -0.0646579713 1.122931
v -0.536974251 -0.0901311785 1.17302501
v -0.507006347 -0.0835210234 1.2396363
v -0.643276453 -0.0575876422 1.17795753
v -0.519853175 -0.0981301293 1.06876612
v -0.574093938 -0.111295573 1.09698153
v -0.502021074 -0.0582107902 1.23799789
v -0.507006347 -0.0835210234 1.2396363
v -0.498564363 -0.0646579713 1.122931
v -0.502021074 -0.0582107902 1.23799789
v -0.519853175 -0.0981301293 1.06876612
v -0.741679072 0.0151409935 1.07232773
v -0.644501925 -0.0564011186 1.17932153
v -0.644892633 -0.0565496609 1.17845726
v -0.644501925 -0.0564011186 1.17932153
v -0.643276453 -0.0575876422 1.17795753
v -0.644513011 -0.056873586 1.1783433
v -0.644892633 -0.0565496609 1.17845726
v -0.673177779 0.0464543588 1.15523386
v -0.6206218 -0.007527804 1.24118829
v -0.660112917 0.0570541695 1.28632855
v -0.632168233 -0.0333712921 1.15383065
v -0.680290461 -0.0616579428 1.07288706
v -0.72723037 0.0161418729 1.06469297
v -0.640596092 -0.0974550918 1.04157007
v -0.574093938 -0.111295573 1.09698153
v -0.502021074 -0.0582107902 1.23799789
v -0.698651969 0.100176983 1.0522573
v -0.634442687 0.121508211 1.15370822
v -0.591680884 0.140676886 1.21250141
v -0.660112917 0.0570541695 1.28632855
v -0.628203034 0.112513065 1.01983333
v -0.60785234 0.143399447 1.05176127
v -0.543166101 0.131973162 1.07165062
v -0.544823229 0.135889933 1.10922468
v -0.523014128 0.163120762 1.19553518
v -0.502611995 0.152090535 1.15359855
v -0.544823229 0.135889933 1.10922468
v -0.574588776 -0.124093533 1.1015079
v -0.574093938 -0.111295573 1.09698153
v -0.640596092 -0.0974550918 1.04157007
v -0.628203034 0.112513065 1.01983333
v -0.544823229 0.135889933 1.10922468
v -0.54937613 0.150992483 1.10241759
v -0.543166101 0.131973162 1.07165062
v -0.502611995 0.152090535 1.15359855
v -0.523014128 0.163120762 1.19553518
v -0.524107218 0.178239062 1.18842661
v -0.502611995 0.152090535 1.15359855
v -0.523014128 0.163120762 1.19553518
v -0.644892633 -0.0565496609 1.17845726
v -0.644513011 -0.056873586 1.1783433
v -0.64589864 -0.115965284 1.05600536
v -0.502021074 -0.0582107902 1.23799789
v -0.574093938 -0.111295573 1.09698153
v -0.519853175 -0.0981301293 1.06876612
v -0.60522294 0.0580219589 1.41073763
v -0.603072166 0.0701312348 1.46363938
v -0.552232146 0.0711774752 1.44636893
v -0.617449462 0.0582641289 1.42232645
v -0.653687418 0.0683515966 1.44835305
v -0.642359972 0.0769889727 1.51791811
v -0.685063541 0.0680234507 1.43669569
v -0.668542922 0.0815432221 1.5231936
v -0.638381064 0.0901644975 1.566504
v -0.642991006 0.0863045901 1.51643312
v -0.642359972 0.0769889727 1.51791811
v -0.638381064 0.0901644975 1.566504
v -0.685063541 0.0680234507 1.43669569
v -0.653687418 0.0683515966 1.44835305
v -0.654153049 0.0771772712 1.44696319
v -0.617449462 0.0582641289 1.42232645
v -0.618914008 0.0789891183 1.41882896
v -0.60522294 0.0580219589 1.41073763
v -0.606644034 0.0803794712 1.40676057
v -0.604489684 0.0897181109 1.46034145
v -0.547124445 0.0949031264 1.4421711
v -0.603072166 0.0701312348 1.46363938
v -0.552232146 0.0711774752 1.44636893
v -0.642991006 0.0863045901 1.51643312
v -0.685063541 0.0680234507 1.43669569
v -0.668542922 0.0815432221 1.5231936
v -0.638381064 0.0901644975 1.566504
v -0.604489684 0.0897181109 1.46034145
v -0.642359972 0.0769889727 1.51791811
v -0.642991006 0.0863045901 1.51643312
v -0.71378094 0.011841855 1.10203564
v -0.764024436 0.0157186799 1.16223598
v -0.678815961 0.0296170749 1.18360376
v -0.743259668 0.00803223159 1.10619831
v -0.771699965 0.00134937279 1.08287692
v -0.798624933 0.00211460586 1.1053431
v -0.804426193 -0.00923221558 1.00847673
v -0.819065213 0.0022222423 1.11253607
v -0.82014668 0.0126427524 1.11071956
v -0.773084521 0.0139749832 1.08065069
v -0.804426193 -0.00923221558 1.00847673
v -0.744846463 0.0221035816 1.10370243
v -0.71571213 0.0283742975 1.09908044
v -0.680747151 0.0461495332 1.18064857
v -0.765589297 0.0295958109 1.15977442
v -0.800009608 0.0147402165 1.10311699
v -0.819065213 0.0022222423 1.11253607
v -0.82014668 0.0126427524 1.11071956
v -0.82014668 0.0126427524 1.11071956
v -0.773084521 0.0139749832 1.08065069
v -0.800009608 0.0147402165 1.10311699
v -0.804426193 -0.00923221558 1.00847673
v -0.744846463 0.0221035816 1.10370243
v -0.765589297 0.0295958109 1.15977442
v -0.71571213 0.0283742975 1.09908044
v -0.680747151 0.0461495332 1.18064857
v -0.641177893 -0.112274446 1.08042634
v -0.628724515 -0.140694767 1.13967884
v -0.587235212 -0.0695439726 1.14371645
v -0.646630406 -0.125860482 1.08408594
v -0.667712212 -0.153177604 1.06977618
v -0.667667747 -0.175879166 1.09651363
v -0.718535244 -0.184475735 1.01355422
v -0.671996057 -0.193628758 1.1080693
v -0.682695746 -0.187906221 1.1130681
v -0.678561628 -0.147375047 1.07484508
v -0.718535244 -0.184475735 1.01355422
v -0.657479703 -0.120057903 1.08915496
v -0.652027249 -0.106471859 1.08549523
v -0.601051867 -0.0621642396 1.15007484
v -0.639905155 -0.134716645 1.14488685
v -0.678517163 -0.170076609 1.10158241
v -0.671996057 -0.193628758 1.1080693
v -0.682695746 -0.187906221 1.1130681
v -0.682695746 -0.187906221 1.1130681
v -0.678561628 -0.147375047 1.07484508
v -0.678517163 -0.170076609 1.10158241
v -0.718535244 -0.184475735 1.01355422
v -0.657479703 -0.120057903 1.08915496
v -0.639905155 -0.134716645 1.14488685
v -0.652027249 -0.106471859 1.08549523
v -0.601051867 -0.0621642396 1.15007484
v -0.684377551 0.113515384 1.06221139
v -0.682206988 0.172558203 1.09356248
v -0.637617409 0.123455867 1.14256072
v -0.691560209 0.125670224 1.05688465
v -0.713189244 0.136017561 1.02823913
v -0.718187153 0.169861004 1.03597879
v -0.748403311 0.12403816 0.955164611
v -0.725196958 0.19024086 1.03429389
v -0.714478433 0.193484932 1.02745235
v -0.725196958 0.19024086 1.03429389
v -0.748403311 0.12403816 0.955164611
v -0.702320695 0.139307052 1.02130198
v -0.713189244 0.136017561 1.02823913
v -0.691560209 0.125670224 1.05688465
v -0.68069154 0.128959715 1.04994738
v -0.684377551 0.113515384 1.06221139
v -0.673509121 0.116804928 1.05527413
v -0.707318544 0.17315048 1.02904141
v -0.671015739 0.175936982 1.08640695
v -0.718187153 0.169861004 1.03597879
v -0.682206988 0.172558203 1.09356248
v -0.623831987 0.127576143 1.13368547
v -0.637617409 0.123455867 1.14256072
v -0.725196958 0.19024086 1.03429389
v -0.714478433 0.193484932 1.02745235
vt 0.278061301 0.968009531
vt 0.258964419 0.910973787
vt 0.288675785 0.911747098
vt 0.251973569 0.920248926
vt 0.319005668 0.989443481
vt 0.324554086 0.953505278
vt 0.269596308 0.835251391
vt 0.255253524 0.834974527
vt 0.264069617 0.790166557
vt 0.249244586 0.789059222
vt 0.292930126 0.828876853
vt 0.299860477 0.866847634
vt 0.3239398 0.825920463
vt 0.329598337 0.878118336
vt 0.346923232 0.831002057
vt 0.352932394 0.86241281
vt 0.345826745 0.796634793
vt 0.361485153 0.79635644
vt 0.36258167 0.813171387
vt 0.352932394 0.86241281
vt 0.329071879 0.789428055
vt 0.306264043 0.780005336
vt 0.282535255 0.779173017
vt 0.242270768 0.832664609
vt 0.227752849 0.779450119
vt 0.248674601 0.74425149
vt 0.26099956 0.744621158
vt 0.274464667 0.736214519
vt 0.274464667 0.736214519
vt 0.23367396 0.732610941
vt 0.197970927 0.746931016
vt 0.221042141 0.711546957
vt 0.210734561 0.690483689
vt 0.201479986 0.723650098
vt 0.269859493 0.664060771
vt 0.261745125 0.670249879
vt 0.254815102 0.671266615
vt 0.246920064 0.666185915
vt 0.238323271 0.651219308
vt 0.280692935 0.657316566
vt 0.27999115 0.728639007
vt 0.263631225 0.618329287
vt 0.263631225 0.618329287
vt 0.263631225 0.618329287
vt 0.263631225 0.618329287
vt 0.238323271 0.651219308
vt 0.236042514 0.635328352
vt 0.238323271 0.651219308
vt 0.263631225 0.618329287
vt 0.282008827 0.757739902
vt 0.282535255 0.779173017
vt 0.263631225 0.618329287
vt 0.236042514 0.635328352
vt 0.0984382555 0.861413896
vt 0.0813006312 0.840887129
vt 0.0881428868 0.82398057
vt 0.0815645084 0.901350915
vt 0.0862568021 0.7910918
vt 0.0984382555 0.861413896
vt 0.105161175 0.789890528
vt 0.0984382555 0.861413896
vt 0.0937130973 0.72919178
vt 0.130688176 0.753212571
vt 0.107617252 0.707574666
vt 0.0772653446 0.65306735
vt 0.088406004 0.638747334
vt 0.0770897418 0.733535051
vt 0.0671333522 0.658425033
vt 0.0645892099 0.579158545
vt 0.116257809 0.690483689
vt 0.088406004 0.638747334
vt 0.0936695859 0.624426425
vt 0.127047569 0.728268981
vt 0.119196631 0.69399333
vt 0.110277563 0.801258266
vt 0.135754183 0.778691411
vt 0.163364634 0.739262402
vt 0.1309513 0.692053556
vt 0.144723639 0.678473592
vt 0.115249127 0.614542425
vt 0.130073905 0.603547931
vt 0.157838225 0.663413942
vt 0.142355353 0.597080648
vt 0.111564487 0.537030101
vt 0.119196631 0.69399333
vt 0.104327545 0.623133719
vt 0.16235593 0.713949025
vt 0.160206467 0.674592972
vt 0.111564487 0.537030101
vt 0.157697603 0.766456485
vt 0.16909954 0.765806019
vt 0.19267045 0.768398404
vt 0.197970927 0.746931016
vt 0.223817289 0.793407857
vt 0.186974004 0.886063635
vt 0.218077078 0.875024199
vt 0.238566473 0.842858195
vt 0.223817289 0.793407857
vt 0.155431688 0.884565473
vt 0.118203044 0.886429906
vt 0.0984382555 0.861413896
vt 0.0815645084 0.901350915
vt 0.0680860728 0.963103354
vt 0.173847497 0.685771823
vt 0.186128438 0.685956359
vt 0.173233241 0.612787127
vt 0.182224989 0.612601697
vt 0.198365599 0.67773366
vt 0.191216439 0.604748726
vt 0.171961427 0.540079296
vt 0.171961427 0.540079296
vt 0.160206467 0.674592972
vt 0.162311897 0.603640497
vt 0.171961427 0.540079296
vt 0.197970927 0.746931016
vt 0.201479986 0.723650098
vt 0.223817289 0.793407857
vt 0.223817289 0.793407857
vt 0.238566473 0.842858195
vt 0.238566473 0.842858195
vt 0.238566473 0.842858195
vt 0.241296828 0.957929909
vt 0.36258167 0.813171387
vt 0.367186934 0.824350536
vt 0.33709842 0.656392634
vt 0.338633627 0.725682318
vt 0.324159384 0.717181802
vt 0.348019749 0.6670174
vt 0.354686648 0.677363992
vt 0.342800438 0.73076278
vt 0.357011437 0.607335567
vt 0.309948355 0.75958693
vt 0.357011437 0.607335567
vt 0.327887297 0.656576931
vt 0.332843989 0.774276733
vt 0.338633627 0.725682318
vt 0.357011437 0.607335567
vt 0.309948355 0.75958693
vt 0.317931175 0.708683133
vt 0.327887297 0.656576931
vt 0.359379739 0.753305256
vt 0.347142607 0.738338709
vt 0.377757609 0.691683829
vt 0.368064344 0.673206389
vt 0.388503611 0.706650734
vt 0.376442045 0.766978145
vt 0.386485964 0.636714041
vt 0.386485964 0.636714041
vt 0.332843989 0.774276733
vt 0.343589723 0.731964171
vt 0.363766164 0.664060771
vt 0.386485964 0.636714041
vt 0.299904168 0.660272956
vt 0.307887048 0.722910285
vt 0.290561855 0.719862103
vt 0.312536031 0.665630877
vt 0.320387244 0.663599253
vt 0.313983679 0.610476315
vt 0.282008827 0.757739902
vt 0.282623082 0.710715532
vt 0.313983679 0.610476315
vt 0.287886083 0.649740934
vt 0.313983679 0.610476315
vt 0.307887048 0.722910285
vt 0.313764304 0.723650098
vt 0.309948355 0.75958693
vt 0.111564487 0.537030101
vt 0.142355353 0.597080648
vt 0.0645892099 0.579158545
vt 0.0936695859 0.624426425
vt 0.0645892099 0.579158545
vt 0.088406004 0.638747334
vt 0.349603981 0.995391965
vt 0.357669234 0.927914619
vt 0.384117454 0.98371613
vt 0.407407761 0.926990628
vt 0.386749089 0.89779681
vt 0.349603981 0.995391965
vt 0.377362967 0.85437578
vt 0.377582341 0.822779596
vt 0.367186934 0.824350536
vt 0.400477648 0.805595815
vt 0.404162049 0.828137279
vt 0.435610443 0.807905436
vt 0.407890171 0.857239544
vt 0.420829445 0.884307981
vt 0.0504023097 0.99815762
vt 0.033586666 0.928797424
vt 0.0502519198 0.897785366
vt 0.0815645084 0.901350915
vt 0.0262547731 0.826383054
vt 0.0502909049 0.82629019
vt 0.0702474713 0.80023706
vt 0.0340182036 0.759956777
vt 0.0469134115 0.734920502
vt 0.0163421389 0.678380847
vt 0.0182722546 0.767162502
vt 0.0252898484 0.816497743
vt 0.033586666 0.928797424
vt 0.00651729712 0.844952106
vt 0.0252898484 0.816497743
vt 0.0262547731 0.826383054
vt 0.0182722546 0.767162502
vt 0.0252898484 0.816497743
vt 0.00485055754 0.769841969
vt 0.0182722546 0.767162502
vt 0.0163421389 0.678380847
vt 0.656123519 0.855181277
vt 0.684167325 0.725958109
vt 0.651578605 0.74823463
vt 0.700555623 0.83268553
vt 0.73050338 0.684313715
vt 0.763168275 0.816648483
vt 0.746137619 0.94022119
vt 0.710764527 0.948736489
vt 0.66363281 0.981509268
vt 0.763912141 0.730424285
vt 0.774749696 0.938903749
vt 0.812070668 0.787816644
vt 0.589638472 0.746411204
vt 0.572689772 0.847782195
vt 0.560393453 0.738792121
vt 0.514707446 0.832952917
vt 0.54628551 0.961090684
vt 0.579164565 0.95743382
vt 0.66363281 0.981509268
vt 0.524882376 0.779944897
vt 0.478105009 0.846272707
vt 0.520703435 0.965451837
vt 0.751003325 0.962981403
vt 0.778844416 0.953995585
vt 0.664881468 0.99913168
vt 0.576049209 0.994973302
vt 0.543215692 0.99337405
vt 0.514891863 0.985740483
vt 0.514891863 0.985740483
vt 0.46107316 0.879354894
vt 0.477227539 0.821016252
vt 0.519437671 0.766733468
vt 0.553393602 0.71700716
vt 0.58660078 0.708464563
vt 0.649728417 0.709452271
vt 0.681908309 0.692712724
vt 0.731036186 0.655036449
vt 0.772092819 0.702290475
vt 0.805560052 0.732184172
vt 0.55261296 0.67140609
vt 0.520105958 0.71172899
vt 0.515752733 0.678080022
vt 0.464920938 0.740940571
vt 0.469159365 0.773672104
vt 0.55127883 0.651570022
vt 0.585413814 0.667524517
vt 0.583559752 0.640154481
vt 0.645318985 0.664970279
vt 0.634938836 0.63455689
vt 0.691740513 0.638418913
vt 0.652204871 0.639041841
vt 0.688234448 0.612392604
vt 0.729929566 0.60000515
vt 0.721504629 0.572421849
vt 0.729929566 0.60000515
vt 0.768675864 0.65236783
vt 0.814397752 0.67375803
vt 0.805560052 0.732184172
vt 0.774334192 0.623465359
vt 0.737031102 0.576239169
vt 0.729929566 0.60000515
vt 0.818537831 0.648121953
vt 0.657033801 0.584454596
vt 0.706591845 0.569095433
vt 0.745433331 0.552639842
vt 0.813201249 0.729240894
vt 0.825774908 0.684521496
vt 0.823777497 0.753711998
vt 0.774749696 0.938903749
vt 0.829569399 0.813503385
vt 0.778844416 0.953995585
vt 0.66363281 0.981509268
vt 0.721424341 0.972302198
vt 0.664881468 0.99913168
vt 0.66363281 0.981509268
vt 0.469159365 0.773672104
vt 0.477227539 0.821016252
vt 0.461276084 0.825683534
vt 0.454950184 0.787265778
vt 0.461276084 0.825683534
vt 0.477227539 0.821016252
vt 0.456148028 0.840450108
vt 0.456148028 0.840450108
vt 0.454950184 0.787265778
vt 0.4420757 0.794670343
vt 0.614203572 0.59467262
vt 0.574349105 0.608403742
vt 0.54993546 0.626360416
vt 0.0890577361 0.508025229
vt 0.12286514 0.479869276
vt 0.0673373491 0.453364819
vt 0.030370215 0.538773596
vt 0.0170182791 0.537899673
vt 0.00150413951 0.459482402
vt 0.0422898829 0.395110458
vt 0.0803275257 0.379292637
vt 0.0630623028 0.282916188
vt 0.101512901 0.299235165
vt 0.133727834 0.399350226
vt 0.141574815 0.49134782
vt 0.18149431 0.510943711
vt 0.181925833 0.40051347
vt 0.230803907 0.464609265
vt 0.22801283 0.398120075
vt 0.279833943 0.39838028
vt 0.289327741 0.469626725
vt 0.32624343 0.376792192
vt 0.312040389 0.310730398
vt 0.277149498 0.325151831
vt 0.361063302 0.441744477
vt 0.273621082 0.513963997
vt 0.323598534 0.534591258
vt 0.32877937 0.604507983
vt 0.310996413 0.589028895
vt 0.201445565 0.242069602
vt 0.168910742 0.242488533
vt 0.135726124 0.232187942
vt 0.236093208 0.263668984
vt 0.254879564 0.309299082
vt 0.801827312 0.531840622
vt 0.817792296 0.369378
vt 0.846045613 0.380381793
vt 0.788225412 0.520858049
vt 0.837439775 0.259222299
vt 0.810228944 0.197618991
vt 0.85028553 0.174219742
vt 0.82107079 0.155415192
vt 0.842622578 0.106869534
vt 0.861579716 0.155605659
vt 0.875181437 0.148577034
vt 0.870567679 0.00789609272
vt 0.903137386 0.172418222
vt 0.938417256 0.115012936
vt 0.919263303 0.199354738
vt 0.960642397 0.156614006
vt 0.931343853 0.219291568
vt 0.976521194 0.192767337
vt 0.950485706 0.261395842
vt 0.951427758 0.342382699
vt 0.928044856 0.285855979
vt 0.954592466 0.374130368
vt 0.965231538 0.344300658
vt 0.976840258 0.384761482
vt 0.999814212 0.450648546
vt 0.9864586 0.470450103
vt 0.900378108 0.295725703
vt 0.904318333 0.384277195
vt 0.852594495 0.52044034
vt 0.904268146 0.564312696
vt 0.889461279 0.678489923
vt 0.84956789 0.300038368
vt 0.950975001 0.550424695
vt 0.966983557 0.562960982
vt 0.999996126 0.488467872
vt 0.951125741 0.671558619
vt 0.934505582 0.666343689
vt 0.920780003 0.729357481
vt 0.949199557 0.753261387
vt 0.852218211 0.665840447
vt 0.850211501 0.750700355
vt 0.83627516 0.678747773
vt 0.820915103 0.617680609
vt 0.837243199 0.603926301
vt 0.789105952 0.551511943
vt 0.852594495 0.52044034
vt 0.846045613 0.380381793
vt 0.814397752 0.67375803
vt 0.805560052 0.732184172
vt 0.813201249 0.729240894
vt 0.950975001 0.550424695
vt 0.954592466 0.374130368
vt 0.846045613 0.380381793
vt 0.837439775 0.259222299
vt 0.898100615 0.268393487
vt 0.872151732 0.252748251
vt 0.926325083 0.268678218
vt 0.850222111 0.218729094
vt 0.847124696 0.199472964
vt 0.941488445 0.252672583
vt 0.513241708 0.533731699
vt 0.486683398 0.462406665
vt 0.576870859 0.561253905
vt 0.518897235 0.562367916
vt 0.568811417 0.584843874
vt 0.462043881 0.669221878
vt 0.452937961 0.644348264
vt 0.553189278 0.407575369
vt 0.520614922 0.277314246
vt 0.577167988 0.24132742
vt 0.617762744 0.369281322
vt 0.623607814 0.196810544
vt 0.643286586 0.246209949
vt 0.68074578 0.275338352
vt 0.678538561 0.308844388
vt 0.697103739 0.422197521
vt 0.643252134 0.446759671
vt 0.576870859 0.561253905
vt 0.707698107 0.366968006
vt 0.574798882 0.219982371
vt 0.517225504 0.259733379
vt 0.463825762 0.331143141
vt 0.485917211 0.4651649
vt 0.46215108 0.310170591
vt 0.422212124 0.349644959
vt 0.422971934 0.317297935
vt 0.644944072 0.230057582
vt 0.627918482 0.17703557
vt 0.685391188 0.259133995
vt 0.653124511 0.464020014
vt 0.591241717 0.57153666
vt 0.576870859 0.561253905
vt 0.404310554 0.458294094
vt 0.408911854 0.336880863
vt 0.484999359 0.464260638
vt 0.368895203 0.517681241
vt 0.39614132 0.450377285
vt 0.397570014 0.571724176
vt 0.355110556 0.562402844
vt 0.391785771 0.583450854
vt 0.431548297 0.558636427
vt 0.452937961 0.644348264
vt 0.483092487 0.463279605
vt 0.364529938 0.502409041
vt 0.39614132 0.450377285
vt 0.451134562 0.6580984
vt 0.452937961 0.644348264
vt 0.391785771 0.583450854
vt 0.451134562 0.6580984
vt 0.355110556 0.562402844
vt 0.520614922 0.277314246
vt 0.486683398 0.462406665
vt 0.485917211 0.4651649
vt 0.486683398 0.462406665
vt 0.483092487 0.463279605
vt 0.484999359 0.464260638
vt 0.485917211 0.4651649
vt 0.338547826 0.191937059
vt 0.374312252 0.125104472
vt 0.348828733 0.0794970319
vt 0.377278775 0.203336328
vt 0.372884989 0.287061542
vt 0.338318229 0.287482411
vt 0.394839197 0.309613019
vt 0.417309254 0.253408194
vt 0.425521195 0.112294495
vt 0.305311322 0.26993826
vt 0.304256886 0.165807575
vt 0.299270332 0.102968745
vt 0.348828733 0.0794970319
vt 0.274940282 0.264698416
vt 0.271290153 0.227255121
vt 0.254208088 0.182938129
vt 0.262861639 0.158327699
vt 0.271469712 0.0815262124
vt 0.256098807 0.106272161
vt 0.262861639 0.158327699
vt 0.404310554 0.458294094
vt 0.39614132 0.450377285
vt 0.408911854 0.336880863
vt 0.621239424 0.175077066
vt 0.688673198 0.305596024
vt 0.678538561 0.308844388
vt 0.686815619 0.262092113
vt 0.716186047 0.357098758
vt 0.705817699 0.434033722
vt 0.697103739 0.422197521
vt 0.716686726 0.376297325
vt 0.69732374 0.443131089
vt 0.485917211 0.4651649
vt 0.484999359 0.464260638
vt 0.422212124 0.349644959
vt 0.425521195 0.112294495
vt 0.417309254 0.253408194
vt 0.442680597 0.257468969
vt 0.65563494 0.0965852663
vt 0.666353285 0.16648528
vt 0.631871343 0.169243529
vt 0.665626526 0.105302922
vt 0.693584859 0.12352059
vt 0.701982975 0.217876792
vt 0.710015833 0.0943000764
vt 0.719240725 0.213314638
vt 0.710923731 0.283565521
vt 0.69633925 0.222620949
vt 0.701982975 0.217876792
vt 0.710923731 0.283565521
vt 0.795914829 0.404431313
vt 0.777973711 0.423094153
vt 0.773943603 0.41562438
vt 0.775787115 0.482224941
vt 0.762484431 0.474302262
vt 0.772955537 0.503755391
vt 0.758975804 0.496930569
vt 0.739353955 0.434178293
vt 0.713683128 0.499212682
vt 0.727991164 0.42087996
vt 0.705394924 0.472159952
vt 0.74500519 0.339920372
vt 0.795914829 0.404431313
vt 0.757453978 0.314262092
vt 0.725818813 0.284001291
vt 0.739353955 0.434178293
vt 0.739599109 0.335730702
vt 0.74500519 0.339920372
vt 0.585527778 0.0698510185
vt 0.590858519 0.15968439
vt 0.63243711 0.105794936
vt 0.574261248 0.0982057452
vt 0.552667379 0.108436026
vt 0.553043485 0.150615156
vt 0.508518457 0.0801311061
vt 0.546575308 0.17188473
vt 0.545847535 0.179782853
vt 0.552516162 0.0937637314
vt 0.508518457 0.0801311061
vt 0.570376635 0.0836367905
vt 0.579291761 0.0565278158
vt 0.637211144 0.123350859
vt 0.592626512 0.174398661
vt 0.555461824 0.164829627
vt 0.546575308 0.17188473
vt 0.545847535 0.179782853
vt 0.878541112 0.741944313
vt 0.873431802 0.801941514
vt 0.879009724 0.765519619
vt 0.830956459 0.799072504
vt 0.8904773 0.821237385
vt 0.913740516 0.777428389
vt 0.894495547 0.852973104
vt 0.941360772 0.855054021
vt 0.0926175937 0.121464349
vt 0.107414171 0.204042867
vt 0.151311696 0.143134892
vt 0.0852597281 0.136570975
vt 0.0610985681 0.151442543
vt 0.0631293058 0.200636357
vt 0.00921588391 0.124920815
vt 0.0560714304 0.225016177
vt 0.0552184992 0.236678362
vt 0.0604756325 0.133694232
vt 0.00921588391 0.124920815
vt 0.0814019218 0.119975455
vt 0.088152945 0.108063318
vt 0.15695098 0.1632815
vt 0.109756522 0.220466748
vt 0.0664690584 0.217873573
vt 0.0560714304 0.225016177
vt 0.0552184992 0.236678362
vt 0.840088844 0.87006712
vt 0.844587028 0.940901756
vt 0.844599128 0.896033227
vt 0.796707809 0.969954908
vt 0.866902113 0.94955349
vt 0.885399282 0.883055806
vt 0.872778654 0.964366257
vt 0.928138375 0.938046932
vt 0.499987572 0.134074107
vt 0.491932809 0.21649754
vt 0.541168749 0.213526443
vt 0.491541415 0.1406876
vt 0.470488638 0.125136897
vt 0.460097075 0.163453713
vt 0.436337024 0.051193554
vt 0.450226218 0.180981398
vt 0.148408413 0.0111638736
vt 0.147803202 4.52995391E-06
vt 0.101496592 0.104589827
vt 0.15232031 0.0828600451
vt 0.151519001 0.100096427
vt 0.172018334 0.11295706
vt 0.175863028 0.0969609469
vt 0.178588003 0.124434873
vt 0.182981372 0.11155124
vt 0.154624656 0.0353807472
vt 0.197375447 0.0315676853
vt 0.157983735 0.0191883296
vt 0.199648723 0.0156637002
vt 0.23979184 0.090810366
vt 0.24522315 0.0712856874
vt 0.147803202 4.52995391E-06
vt 0.148408413 0.0111638736
vn 0.432452828 0.277997345 -0.857730687
vn 0.467760682 0.71908766 -0.513918996
vn 0.691788137 0.419124812 -0.58801657
vn 0.220606118 0.875473976 -0.429974735
vn 0.782684207 0.0511639342 -0.620312631
vn 0.861871898 0.204193801 -0.46420002
vn 0.576980948 0.451863378 -0.680376709
vn 0.237630069 0.803968787 -0.545129478
vn 0.56380558 0.513568878 -0.646815419
vn 0.0589529797 0.88993609 -0.452259153
vn 0.660183966 0.247742519 -0.709070444
vn 0.608812153 0.218194827 -0.762717962
vn 0.718889713 0.0322202258 -0.694377065
vn 0.558548152 0.11208231 -0.821864724
vn 0.670487821 -0.40648073 -0.620660543
vn 0.222386256 0.190905467 -0.956085503
vn 0.863927841 -0.291285992 -0.410829902
vn 0.457439393 -0.887581587 -0.0542976446
vn 0.189598799 -0.931129277 -0.311529487
vn 0.222386256 0.190905467 -0.956085503
vn 0.79611218 0.0662678778 -0.60150975
vn 0.728989482 0.213947341 -0.650231481
vn 0.664754987 0.30660376 -0.681245089
vn -0.0754392147 0.876975954 -0.474575818
vn -0.776501656 0.621444523 -0.104171626
vn -0.00760930078 0.96257478 -0.27090919
vn 0.671560109 0.594539344 -0.442187637
vn 0.825307786 -0.4996472 -0.26309666
vn 0.825307786 -0.4996472 -0.26309666
vn -0.829226017 0.55618161 0.0551935881
vn -0.993227065 0.0162415132 0.115049459
vn -0.757317007 -0.613418162 0.224029452
vn 0.198841751 -0.97687304 0.0786197037
vn -0.581129909 -0.070568867 -0.810745358
vn 0.914792418 -0.403813154 -0.00947693456
vn 0.754155695 0.624762714 -0.202288643
vn 0.0136438701 0.912180007 -0.409562588
vn -0.785364091 0.44074589 -0.434679598
vn -0.707421541 -0.66795361 -0.231068864
vn 0.147171423 -0.988975286 -0.0163846351
vn 0.198841751 -0.97687304 0.0786197037
vn 0.431075275 -0.136321083 -0.891958833
vn 0.431075275 -0.136321083 -0.891958833
vn 0.431075275 -0.136321083 -0.891958833
vn 0.431075275 -0.136321083 -0.891958833
vn -0.707421541 -0.66795361 -0.231068864
vn 0.147171423 -0.988975286 -0.0163846351
vn -0.707421541 -0.66795361 -0.231068864
vn 0.431075275 -0.136321083 -0.891958833
vn -0.581129909 -0.070568867 -0.810745358
vn 0.664754987 0.30660376 -0.681245089
vn 0.431075275 -0.136321083 -0.891958833
vn 0.147171423 -0.988975286 -0.0163846351
vn -0.489172816 -0.806049943 0.333156735
vn -0.536071301 -0.730667531 -0.42279157
vn 0.189598799 -0.931129277 -0.311529487
vn -0.477523237 -0.667596161 0.571215332
vn 0.457439393 -0.887581587 -0.0542976446
vn -0.489172816 -0.806049943 0.333156735
vn -0.498611182 -0.846582472 0.186238885
vn -0.489172816 -0.806049943 0.333156735
vn -0.426483542 -0.822340727 0.376653075
vn -0.911098242 -0.357285827 0.205540508
vn -0.973659337 0.159364313 0.163065851
vn -0.440548033 -0.880349278 -0.175791278
vn -0.950713038 -0.0313417651 -0.308484107
vn 0.453105807 -0.886101186 0.0975694731
vn 0.403129756 -0.905084252 -0.135309935
vn 0.340925127 0.0998038352 -0.934777677
vn -0.463448286 0.858306587 -0.220284879
vn -0.950713038 -0.0313417651 -0.308484107
vn -0.593978882 0.718725085 -0.361418456
vn -0.100633524 -0.322956353 -0.941048384
vn 0.352571934 -0.932626605 0.0768151134
vn -0.73014158 -0.604317069 0.31889531
vn -0.898609161 -0.37050432 0.23500675
vn -0.979461551 -0.167174742 0.112729043
vn -0.553715527 -0.777682602 0.297672331
vn -0.931759536 0.332516074 0.145798638
vn -0.511258543 -0.83509177 -0.20306778
vn -0.919764757 0.255267024 -0.298113227
vn -0.354154468 0.924293816 -0.142321944
vn -0.30019176 0.931448996 -0.205640048
vn 0.307883531 0.0588862486 -0.949600041
vn 0.352571934 -0.932626605 0.0768151134
vn 0.414813697 -0.908301234 -0.0540219769
vn -0.368045419 -0.238145083 -0.89879334
vn 0.239633128 -0.969428241 0.0527714007
vn 0.307883531 0.0588862486 -0.949600041
vn -0.963388622 -0.172535449 0.205216587
vn -0.968315601 -0.0639865473 0.241393253
vn -0.967314363 0.0907167792 0.236797988
vn -0.993227065 0.0162415132 0.115049459
vn -0.712462902 0.695297599 -0.0946458206
vn -0.883149445 0.138490334 0.448182583
vn -0.63506496 0.718258083 0.284249485
vn -0.209030882 0.96119827 -0.180011064
vn -0.712462902 0.695297599 -0.0946458206
vn -0.812462509 -0.298049688 0.501069903
vn -0.633381546 -0.478060812 0.60851109
vn -0.489172816 -0.806049943 0.333156735
vn -0.477523237 -0.667596161 0.571215332
vn 0.0360616781 -0.786621749 0.616381168
vn -0.611685574 -0.736688793 0.288323402
vn -0.900672436 0.404092342 0.159682795
vn -0.623326421 -0.764624357 -0.163749248
vn -0.93355751 0.222343281 -0.281129509
vn -0.353997737 0.926475167 -0.1277868
vn -0.426931411 0.844053686 -0.324504077
vn 0.275417149 -0.0992856547 -0.95618403
vn 0.275417149 -0.0992856547 -0.95618403
vn 0.239633128 -0.969428241 0.0527714007
vn 0.21680811 -0.974776626 -0.0529590771
vn 0.275417149 -0.0992856547 -0.95618403
vn -0.993227065 0.0162415132 0.115049459
vn -0.581129909 -0.070568867 -0.810745358
vn -0.712462902 0.695297599 -0.0946458206
vn -0.712462902 0.695297599 -0.0946458206
vn -0.209030882 0.96119827 -0.180011064
vn -0.209030882 0.96119827 -0.180011064
vn -0.209030882 0.96119827 -0.180011064
vn -0.213639364 0.845338225 -0.489654452
vn 0.189598799 -0.931129277 -0.311529487
vn -0.536071301 -0.730667531 -0.42279157
vn 0.475826859 0.83946532 -0.262463003
vn 0.870240271 -0.365081102 -0.330753237
vn 0.42601946 0.767214119 -0.479468405
vn 0.964541554 -0.188202992 -0.185038611
vn 0.414813697 -0.908301234 -0.0540219769
vn 0.352571934 -0.932626605 0.0768151134
vn 0.307883531 0.0588862486 -0.949600041
vn -0.368045419 -0.238145083 -0.89879334
vn 0.307883531 0.0588862486 -0.949600041
vn -0.30019176 0.931448996 -0.205640048
vn -0.100633524 -0.322956353 -0.941048384
vn 0.870240271 -0.365081102 -0.330753237
vn 0.307883531 0.0588862486 -0.949600041
vn -0.368045419 -0.238145083 -0.89879334
vn -0.354154468 0.924293816 -0.142321944
vn -0.30019176 0.931448996 -0.205640048
vn 0.914657831 -0.236373752 -0.327915221
vn 0.327746809 0.786463737 -0.523504317
vn 0.957576454 -0.154988796 -0.242952287
vn 0.215562195 0.92293644 -0.318937898
vn 0.403129756 -0.905084252 -0.135309935
vn 0.453105807 -0.886101186 0.0975694731
vn 0.340925127 0.0998038352 -0.934777677
vn 0.340925127 0.0998038352 -0.934777677
vn -0.100633524 -0.322956353 -0.941048384
vn -0.463448286 0.858306587 -0.220284879
vn -0.593978882 0.718725085 -0.361418456
vn 0.340925127 0.0998038352 -0.934777677
vn 0.423294842 0.841188312 -0.336487532
vn 0.836562037 -0.419423044 -0.352488637
vn 0.272716969 0.875571787 -0.398747534
vn 0.917718232 -0.357660234 -0.172836825
vn 0.21680811 -0.974776626 -0.0529590771
vn 0.275417149 -0.0992856547 -0.95618403
vn -0.581129909 -0.070568867 -0.810745358
vn -0.353997737 0.926475167 -0.1277868
vn 0.275417149 -0.0992856547 -0.95618403
vn -0.426931411 0.844053686 -0.324504077
vn 0.275417149 -0.0992856547 -0.95618403
vn 0.836562037 -0.419423044 -0.352488637
vn 0.239633128 -0.969428241 0.0527714007
vn -0.368045419 -0.238145083 -0.89879334
vn 0.307883531 0.0588862486 -0.949600041
vn -0.30019176 0.931448996 -0.205640048
vn 0.340925127 0.0998038352 -0.934777677
vn -0.593978882 0.718725085 -0.361418456
vn 0.340925127 0.0998038352 -0.934777677
vn -0.950713038 -0.0313417651 -0.308484107
vn 0.362999231 -0.931745052 -0.00909272861
vn 0.858807087 0.234113187 -0.455676764
vn 0.854292631 -0.448749036 0.262313426
vn 0.907858968 -0.347547024 -0.234527513
vn 0.695174634 0.456015855 -0.555681527
vn 0.362999231 -0.931745052 -0.00909272861
vn -0.472584307 0.66661483 -0.576444983
vn -0.960418165 0.0318994112 -0.276729822
vn -0.536071301 -0.730667531 -0.42279157
vn -0.956235886 0.048764579 -0.28850475
vn -0.561950743 0.668989599 -0.486481518
vn 0.0224116668 -0.119548477 -0.992575407
vn 0.629383683 0.46110332 -0.625507832
vn 0.87583679 -0.369648188 -0.310274482
vn 0.362999231 -0.931745052 -0.00909272861
vn 0.854292631 -0.448749036 0.262313426
vn 0.0966524109 -0.83512789 0.541497707
vn -0.477523237 -0.667596161 0.571215332
vn 0.0894503519 -0.907701612 -0.409971207
vn -0.76486963 -0.644184589 0.000887525326
vn -0.960418165 0.0318994112 -0.276729822
vn -0.692825198 -0.67869854 -0.243642092
vn -0.956235886 0.048764579 -0.28850475
vn 0.0224116668 -0.119548477 -0.992575407
vn 0.444652706 -0.858295262 -0.256150812
vn 0.00354510196 -0.700722098 -0.713425457
vn 0.854292631 -0.448749036 0.262313426
vn 0.907858968 -0.347547024 -0.234527513
vn 0.00354510196 -0.700722098 -0.713425457
vn 0.0894503519 -0.907701612 -0.409971207
vn 0.444652706 -0.858295262 -0.256150812
vn 0.00354510196 -0.700722098 -0.713425457
vn 0.87583679 -0.369648188 -0.310274482
vn 0.444652706 -0.858295262 -0.256150812
vn 0.0224116668 -0.119548477 -0.992575407
vn -0.828657806 -0.0909723416 0.552313566
vn -0.798231006 -0.578803003 0.166776359
vn -0.919980943 -0.110601582 0.376035094
vn -0.420156389 -0.713367581 0.560870051
vn -0.559622586 -0.781257212 -0.276513517
vn -0.165634245 -0.854755521 0.491892546
vn 0.0720226914 -0.523125947 0.849206686
vn 0.000375096628 -0.65701288 0.753879249
vn -0.439305156 -0.089818351 0.893836498
vn -0.11514385 -0.965458035 -0.233736485
vn 0.65737462 -0.467768282 0.590805829
vn 0.596206069 -0.712960482 -0.369087726
vn -0.895676136 0.444188058 0.0214753635
vn -0.566365719 0.736878633 0.369106621
vn -0.652827561 0.614600837 -0.44281143
vn -0.255531043 0.965018094 -0.0586851649
vn 0.0361392386 0.808596849 0.587251961
vn -0.241266727 0.72056669 0.650057018
vn -0.439305156 -0.089818351 0.893836498
vn -0.188604638 0.60262531 -0.775416672
vn 0.431452572 0.589210987 -0.683139145
vn 0.576601446 0.745825529 0.333579123
vn 0.597423315 0.480783284 0.641819894
vn 0.846940517 0.395608574 0.355226129
vn 0.535413802 0.0684764832 0.841809392
vn 0.691511869 0.132759124 0.710060835
vn 0.667264581 -0.0789920464 0.740620196
vn 0.898345947 -0.0693086982 0.433786541
vn 0.898345947 -0.0693086982 0.433786541
vn 0.89855504 0.170759767 -0.404277027
vn 0.216110066 0.164227158 -0.962458253
vn -0.196728632 0.649192333 -0.73474288
vn -0.657809556 0.72184056 -0.215017989
vn -0.906199098 0.422685862 -0.011827793
vn -0.989716709 -0.142841265 0.00756655727
vn -0.828037739 -0.552250683 0.0968124419
vn -0.451317877 -0.892313302 -0.00943614915
vn 0.00795094203 -0.85993737 -0.51033771
vn 0.372495651 -0.546075404 -0.750365674
vn -0.629740536 0.633746922 -0.449212432
vn -0.169441327 0.686147153 -0.707454383
vn -0.231909558 0.459068358 -0.857597947
vn 0.256313622 0.812243521 -0.523988426
vn 0.500901818 0.543005884 -0.673974633
vn -0.267822772 -0.171406463 -0.94809854
vn -0.903570175 0.428200215 0.0143344272
vn -0.620876789 -0.277350038 -0.733204603
vn -0.926699281 -0.0680913776 0.369583577
vn -0.779621303 -0.115060113 -0.615590692
vn -0.766304016 -0.632372975 0.113501824
vn -0.779621303 -0.115060113 -0.615590692
vn -0.738278568 0.05100023 -0.672565043
vn -0.451111972 -0.768842161 -0.45318839
vn -0.176612064 0.138238013 -0.974524677
vn -0.451111972 -0.768842161 -0.45318839
vn -0.0919258222 -0.911713481 -0.400410146
vn 0.561260939 -0.656632721 -0.503805101
vn 0.372495651 -0.546075404 -0.750365674
vn -0.0806370974 -0.779563367 -0.621110797
vn -0.176612064 0.138238013 -0.974524677
vn -0.451111972 -0.768842161 -0.45318839
vn 0.295217276 -0.938478291 -0.1791794
vn -0.844553947 -0.116667353 -0.522606254
vn -0.833294988 -0.238994285 -0.498498946
vn -0.833294988 -0.238994285 -0.498498946
vn 0.558938146 -0.724735439 -0.40292266
vn 0.295217276 -0.938478291 -0.1791794
vn 0.875014007 -0.293959022 -0.384627819
vn 0.65737462 -0.467768282 0.590805829
vn 0.875014007 -0.293959022 -0.384627819
vn 0.846940517 0.395608574 0.355226129
vn -0.439305156 -0.089818351 0.893836498
vn 0.704396307 0.29974696 0.643410802
vn 0.535413802 0.0684764832 0.841809392
vn -0.439305156 -0.089818351 0.893836498
vn 0.500901818 0.543005884 -0.673974633
vn 0.216110066 0.164227158 -0.962458253
vn 0.51696223 0.551147163 -0.654970884
vn 0.256313622 0.812243521 -0.523988426
vn 0.51696223 0.551147163 -0.654970884
vn 0.216110066 0.164227158 -0.962458253
vn 0.89855504 0.170759767 -0.404277027
vn 0.89855504 0.170759767 -0.404277027
vn 0.256313622 0.812243521 -0.523988426
vn 0.697507977 0.712027967 -0.080615893
vn -0.844553947 -0.116667353 -0.522606254
vn -0.883887529 -0.053030923 -0.464683264
vn -0.638397396 0.236140594 -0.732588768
vn -0.231909558 0.459068358 -0.857597947
vn -0.638397396 0.236140594 -0.732588768
vn -0.232473239 0.947696865 -0.218693167
vn 0.256313622 0.812243521 -0.523988426
vn 0.697507977 0.712027967 -0.080615893
vn 0.727912545 0.40599981 -0.552546382
vn 0.315023839 0.576348126 -0.754044294
vn -0.269277185 0.935329974 -0.229450464
vn 0.26659584 0.289366752 -0.919344127
vn -0.213639364 0.845338225 -0.489654452
vn -0.700861037 0.698119044 0.146368101
vn -0.883887529 -0.053030923 -0.464683264
vn -0.844553947 -0.116667353 -0.522606254
vn -0.925178587 -0.0128089525 0.379315943
vn -0.833294988 -0.238994285 -0.498498946
vn -0.603976727 -0.708809912 0.36441806
vn -0.213065371 -0.976655245 0.0273442492
vn -0.0720546842 -0.981894672 0.175188228
vn 0.369870424 -0.678042054 -0.63518095
vn 0.148432821 -0.498823553 -0.853898525
vn 0.362999231 -0.931745052 -0.00909272861
vn 0.747413099 -0.487200826 -0.451673657
vn -0.0806370974 -0.779563367 -0.621110797
vn 0.295217276 -0.938478291 -0.1791794
vn 0.875014007 -0.293959022 -0.384627819
vn 0.558938146 -0.724735439 -0.40292266
vn -0.812462509 -0.298049688 0.501069903
vn -0.883149445 0.138490334 0.448182583
vn -0.63506496 0.718258083 0.284249485
vn -0.633381546 -0.478060812 0.60851109
vn 0.0360616781 -0.786621749 0.616381168
vn 0.546019852 0.673568308 -0.498164892
vn 0.875014007 -0.293959022 -0.384627819
vn 0.944309294 0.00364879286 -0.329039186
vn 0.747413099 -0.487200826 -0.451673657
vn 0.9149791 0.237035632 0.326538444
vn 0.846940517 0.395608574 0.355226129
vn 0.692254245 0.687309623 0.219976321
vn 0.597423315 0.480783284 0.641819894
vn 0.704396307 0.29974696 0.643410802
vn 0.911724269 0.39971754 0.0947881043
vn 0.888801098 0.284931988 0.358951598
vn 0.535413802 0.0684764832 0.841809392
vn 0.914336622 -0.0814358369 0.396682113
vn 0.691511869 0.132759124 0.710060835
vn 0.884480417 -0.24901478 0.394570529
vn 0.667264581 -0.0789920464 0.740620196
vn 0.77628082 -0.392946154 0.492931426
vn 0.898345947 -0.0693086982 0.433786541
vn 0.929864824 -0.0197051577 0.367373288
vn 0.969255507 0.0918870196 -0.228255585
vn 0.875230134 0.410008073 0.256642908
vn 0.950485766 -0.185983747 -0.248971745
vn 0.89855504 0.170759767 -0.404277027
vn 0.697507977 0.712027967 -0.080615893
vn 0.727912545 0.40599981 -0.552546382
vn 0.662867069 -0.720615208 -0.203275651
vn 0.985323071 0.140405297 0.0970818102
vn 0.847375929 -0.0203504413 -0.530603409
vn 0.533769727 0.69054836 -0.488091022
vn 0.752981901 -0.154379964 -0.639675736
vn 0.782684207 0.0511639342 -0.620312631
vn 0.803222001 -0.561721087 0.198252097
vn 0.729956567 -0.283693105 -0.621837378
vn 0.315023839 0.576348126 -0.754044294
vn 0.727912545 0.40599981 -0.552546382
vn 0.26659584 0.289366752 -0.919344127
vn 0.509375632 -0.325862229 -0.796461105
vn 0.432452828 0.277997345 -0.857730687
vn -0.213639364 0.845338225 -0.489654452
vn 0.316319823 0.428810537 -0.846205175
vn 0.362999231 -0.931745052 -0.00909272861
vn 0.148432821 -0.498823553 -0.853898525
vn 0.369870424 -0.678042054 -0.63518095
vn 0.330949545 0.853956461 -0.40153566
vn 0.747413099 -0.487200826 -0.451673657
vn 0.533769727 0.69054836 -0.488091022
vn 0.944309294 0.00364879286 -0.329039186
vn 0.561260939 -0.656632721 -0.503805101
vn 0.372495651 -0.546075404 -0.750365674
vn 0.558938146 -0.724735439 -0.40292266
vn 0.729956567 -0.283693105 -0.621837378
vn 0.950485766 -0.185983747 -0.248971745
vn 0.944309294 0.00364879286 -0.329039186
vn 0.9149791 0.237035632 0.326538444
vn 0.660677373 0.178803161 0.729064345
vn 0.71617502 0.167570606 0.677505374
vn 0.569239497 0.173513174 0.803653955
vn 0.680481136 0.294837713 0.670832396
vn 0.669893086 0.539919078 0.509637833
vn 0.63026154 0.0877340659 0.77140981
vn -0.286404043 -0.576210439 0.765476406
vn -0.574053824 -0.718906045 0.391964614
vn -0.550594568 0.147983149 0.821551263
vn 0.709856868 0.477582783 0.517704487
vn 0.659080982 0.107032217 0.744416773
vn 0.708796203 0.561760426 0.426653534
vn 0.460708916 -0.600290358 0.653757393
vn -0.955642402 0.0668828562 0.286835104
vn -0.957244575 -0.109689228 -0.267677277
vn -0.770484269 0.542721927 -0.334375501
vn -0.582847416 0.809277117 0.0732086971
vn -0.0564493313 0.591943026 -0.804000556
vn 0.0312460903 0.934793115 -0.353815824
vn 0.668172181 0.69830358 -0.256744802
vn 0.435523659 0.88274461 -0.176298752
vn 0.335928857 0.867517948 0.36683017
vn -0.290301681 0.857608974 0.424537033
vn -0.550594568 0.147983149 0.821551263
vn 0.721179724 0.58730495 -0.367386371
vn 0.0720309541 -0.428939372 -0.900456846
vn 0.117781393 -0.104252718 -0.987551928
vn -0.807181954 -0.56916821 -0.15654029
vn -0.684105754 -0.590026021 0.428799033
vn 0.0407648273 0.227410749 -0.972945333
vn -0.306095898 -0.836558819 -0.454394788
vn 0.121263325 0.149913236 -0.98123461
vn 0.624342263 -0.364190817 -0.691058397
vn 0.354553878 -0.54708302 -0.758282006
vn 0.666208565 -0.432275534 -0.607703865
vn 0.580428362 -0.284212589 0.763102889
vn 0.659080982 0.107032217 0.744416773
vn -0.550594568 0.147983149 0.821551263
vn 0.000734761881 -0.993928075 -0.110028915
vn 0.121263325 0.149913236 -0.98123461
vn -0.448376417 -0.802873492 0.39287746
vn 0.433878511 -0.726896048 -0.532326579
vn 0.174518868 0.317402661 -0.93209374
vn 0.84562856 -0.533447027 0.0186185893
vn 0.226581603 0.391914338 -0.891663611
vn 0.382800609 0.855719686 -0.348148555
vn -0.00440194877 -0.967759252 0.251838475
vn 0.460708916 -0.600290358 0.653757393
vn -0.30359599 -0.857395649 0.415574521
vn 0.226581603 0.391914338 -0.891663611
vn 0.174518868 0.317402661 -0.93209374
vn 0.708796203 0.561760426 0.426653534
vn 0.460708916 -0.600290358 0.653757393
vn 0.382800609 0.855719686 -0.348148555
vn 0.708796203 0.561760426 0.426653534
vn 0.226581603 0.391914338 -0.891663611
vn -0.957244575 -0.109689228 -0.267677277
vn -0.574053824 -0.718906045 0.391964614
vn -0.684105754 -0.590026021 0.428799033
vn -0.574053824 -0.718906045 0.391964614
vn -0.30359599 -0.857395649 0.415574521
vn -0.448376417 -0.802873492 0.39287746
vn -0.684105754 -0.590026021 0.428799033
vn 0.923565924 -0.0414520688 -0.381192505
vn 0.709856868 0.477582783 0.517704487
vn 0.659080982 0.107032217 0.744416773
vn 0.620688856 0.652381837 -0.434906036
vn 0.0407648273 0.227410749 -0.972945333
vn 0.117781393 -0.104252718 -0.987551928
vn 0.121263325 0.149913236 -0.98123461
vn 0.174518868 0.317402661 -0.93209374
vn 0.708796203 0.561760426 0.426653534
vn 0.0720309541 -0.428939372 -0.900456846
vn 0.58750391 -0.803093374 -0.099399969
vn 0.580428362 -0.284212589 0.763102889
vn 0.659080982 0.107032217 0.744416773
vn 0.354553878 -0.54708302 -0.758282006
vn 0.624342263 -0.364190817 -0.691058397
vn 0.666208565 -0.432275534 -0.607703865
vn 0.603115499 -0.776115179 -0.184111714
vn 0.577021956 -0.268643528 0.771282196
vn 0.856527865 -0.510662436 0.0747247934
vn 0.603115499 -0.776115179 -0.184111714
vn 0.000734761881 -0.993928075 -0.110028915
vn 0.174518868 0.317402661 -0.93209374
vn 0.121263325 0.149913236 -0.98123461
vn 0.354553878 -0.54708302 -0.758282006
vn 0.603115499 -0.776115179 -0.184111714
vn 0.435523659 0.88274461 -0.176298752
vn 0.666208565 -0.432275534 -0.607703865
vn 0.856527865 -0.510662436 0.0747247934
vn 0.577021956 -0.268643528 0.771282196
vn 0.335928857 0.867517948 0.36683017
vn 0.856527865 -0.510662436 0.0747247934
vn 0.577021956 -0.268643528 0.771282196
vn -0.684105754 -0.590026021 0.428799033
vn -0.448376417 -0.802873492 0.39287746
vn -0.306095898 -0.836558819 -0.454394788
vn 0.708796203 0.561760426 0.426653534
vn 0.174518868 0.317402661 -0.93209374
vn 0.226581603 0.391914338 -0.891663611
vn -0.390085816 -0.858812749 -0.332074881
vn 0.384180784 -0.664544225 0.640926003
vn 0.306512475 -0.301329464 0.902912319
vn -0.394329995 -0.849158645 -0.351330996
vn -0.154567197 -0.902875483 -0.401154339
vn 0.543799877 -0.765109658 0.344802767
vn -0.778747439 -0.133529812 -0.612961948
vn -0.930184364 -0.00551665528 0.367051333
vn 0.255515069 0.171737596 0.951429546
vn 0.444323778 0.889561236 0.106099926
vn 0.543799877 -0.765109658 0.344802767
vn 0.255515069 0.171737596 0.951429546
vn -0.778747439 -0.133529812 -0.612961948
vn -0.154567197 -0.902875483 -0.401154339
vn -0.294975489 0.724200249 -0.623316526
vn -0.394329995 -0.849158645 -0.351330996
vn -0.566844285 0.554694831 -0.609098554
vn -0.390085816 -0.858812749 -0.332074881
vn -0.528090119 0.649106741 -0.547522962
vn 0.201511815 0.896095872 0.395480931
vn 0.162276104 0.684649765 0.710578084
vn 0.384180784 -0.664544225 0.640926003
vn 0.306512475 -0.301329464 0.902912319
vn 0.444323778 0.889561236 0.106099926
vn -0.778747439 -0.133529812 -0.612961948
vn -0.930184364 -0.00551665528 0.367051333
vn 0.255515069 0.171737596 0.951429546
vn 0.201511815 0.896095872 0.395480931
vn 0.543799877 -0.765109658 0.344802767
vn 0.444323778 0.889561236 0.106099926
vn 0.0202652737 -0.859315634 -0.511044085
vn -0.393621862 -0.565195739 0.724993467
vn -0.165150061 -0.368222833 0.914952159
vn 0.261134595 -0.872469664 -0.413044065
vn 0.569075346 -0.772663355 -0.281326711
vn -0.103729464 -0.822195172 0.559674263
vn -0.158958614 -0.191459626 -0.968542874
vn -0.469431013 -0.491992414 0.733197153
vn -0.587922394 0.601314664 0.541080415
vn 0.393449664 0.734666884 -0.552686036
vn -0.158958614 -0.191459626 -0.968542874
vn 0.0416256264 0.698882699 -0.714024127
vn -0.206066966 0.651240051 -0.730357945
vn -0.309395283 0.606543362 0.732379496
vn -0.553405881 0.660405338 0.507549763
vn -0.310896933 0.917058587 0.249693081
vn -0.469431013 -0.491992414 0.733197153
vn -0.587922394 0.601314664 0.541080415
vn -0.587922394 0.601314664 0.541080415
vn 0.393449664 0.734666884 -0.552686036
vn -0.310896933 0.917058587 0.249693081
vn -0.158958614 -0.191459626 -0.968542874
vn 0.0416256264 0.698882699 -0.714024127
vn -0.553405881 0.660405338 0.507549763
vn -0.206066966 0.651240051 -0.730357945
vn -0.309395283 0.606543362 0.732379496
vn 0.365019053 -0.388789445 -0.845933735
vn 0.60886544 -0.676997483 0.413469762
vn 0.633543134 -0.404897362 0.659303486
vn 0.462393463 -0.197733596 -0.864345849
vn 0.623334408 0.0773599744 -0.778119326
vn 0.843954146 -0.53021878 0.081298165
vn -0.491541713 -0.187575012 -0.850413084
vn 0.551176071 -0.684187949 0.477589577
vn -0.376679331 -0.185656652 0.907548547
vn -0.632866144 0.748107553 -0.199538082
vn -0.491541713 -0.187575012 -0.850413084
vn -0.83074379 0.488011986 -0.267785609
vn -0.923241258 0.294408232 -0.246879086
vn -0.0967713967 -0.0187008698 0.995130897
vn -0.431297094 -0.124298386 0.893606603
vn -0.609020829 0.249235868 0.75297749
vn 0.551176071 -0.684187949 0.477589577
vn -0.376679331 -0.185656652 0.907548547
vn -0.376679331 -0.185656652 0.907548547
vn -0.632866144 0.748107553 -0.199538082
vn -0.609020829 0.249235868 0.75297749
vn -0.491541713 -0.187575012 -0.850413084
vn -0.83074379 0.488011986 -0.267785609
vn -0.431297094 -0.124298386 0.893606603
vn -0.923241258 0.294408232 -0.246879086
vn -0.0967713967 -0.0187008698 0.995130897
vn -0.852980256 -0.517546058 -0.0676073506
vn -0.547157705 0.558123171 0.62379241
vn -0.217073932 0.582040846 0.783649981
vn -0.742822528 -0.668326974 0.0394177511
vn -0.535831451 -0.803941429 0.257997483
vn -0.674291253 0.156377286 0.721718311
vn -0.399539977 -0.419255108 -0.81522578
vn -0.501481116 0.626462698 0.596708596
vn 0.428098083 0.903729439 0.00230265595
vn -0.501481116 0.626462698 0.596708596
vn -0.399539977 -0.419255108 -0.81522578
vn 0.717609346 -0.428824216 -0.548768282
vn -0.535831451 -0.803941429 0.257997483
vn -0.742822528 -0.668326974 0.0394177511
vn 0.544176519 -0.278674811 -0.791335702
vn -0.852980256 -0.517546058 -0.0676073506
vn 0.431525737 -0.125737309 -0.893294811
vn 0.779615819 0.590029597 -0.209914461
vn 0.489086032 0.87111634 -0.0441723578
vn -0.674291253 0.156377286 0.721718311
vn -0.547157705 0.558123171 0.62379241
vn 0.508369744 0.801897407 0.313880116
vn -0.217073932 0.582040846 0.783649981
vn -0.501481116 0.626462698 0.596708596
vn 0.428098083 0.903729439 0.00230265595
g Blue_mag_m_pve_2_hand_r_0
f 3/3/3 2/2/2 1/1/1
f 2/2/2 4/4/4 1/1/1
f 3/3/3 1/1/1 5/5/5
f 6/6/6 3/3/3 5/5/5
f 3/3/3 7/7/7 2/2/2
f 7/7/7 8/8/8 2/2/2
f 7/7/7 9/9/9 8/8/8
f 9/9/9 10/10/10 8/8/8
f 11/11/11 7/7/7 3/3/3
f 9/9/9 7/7/7 11/11/11
f 12/12/12 11/11/11 3/3/3
f 11/11/11 12/12/12 13/13/13
f 12/12/12 14/14/14 13/13/13
f 6/6/6 14/14/14 3/3/3
f 14/14/14 12/12/12 3/3/3
f 13/13/13 14/14/14 15/15/15
f 14/14/14 16/16/16 15/15/15
f 13/13/13 15/15/15 17/17/17
f 17/17/17 15/15/15 18/18/18
f 15/15/15 19/19/19 18/18/18
f 15/15/15 20/20/20 19/19/19
f 21/21/21 13/13/13 17/17/17
f 22/22/22 13/13/13 21/21/21
f 22/22/22 11/11/11 13/13/13
f 23/23/23 9/9/9 11/11/11
f 22/22/22 23/23/23 11/11/11
f 8/8/8 10/10/10 24/24/24
f 10/10/10 25/25/25 24/24/24
f 8/8/8 24/24/24 2/2/2
f 10/10/10 26/26/26 25/25/25
f 27/27/27 26/26/26 10/10/10
f 9/9/9 27/27/27 10/10/10
f 23/23/23 28/28/28 9/9/9
f 29/29/29 27/27/27 9/9/9
f 26/26/26 30/30/30 25/25/25
f 25/25/25 30/30/30 31/31/31
f 30/30/30 32/32/32 31/31/31
f 32/32/32 33/33/33 31/31/31
f 33/33/33 34/34/34 31/31/31
f 29/29/29 35/35/35 27/27/27
f 35/35/35 36/36/36 27/27/27
f 27/27/27 36/36/36 26/26/26
f 36/36/36 37/37/37 26/26/26
f 26/26/26 37/37/37 30/30/30
f 37/37/37 38/38/38 30/30/30
f 30/30/30 38/38/38 32/32/32
f 38/38/38 39/39/39 32/32/32
f 40/40/40 35/35/35 29/29/29
f 41/41/41 40/40/40 29/29/29
f 35/35/35 42/42/42 36/36/36
f 36/36/36 43/43/43 37/37/37
f 37/37/37 44/44/44 38/38/38
f 40/40/40 45/45/45 35/35/35
f 33/33/33 32/32/32 46/46/46
f 47/47/47 33/33/33 46/46/46
f 38/38/38 49/49/49 48/48/48
f 41/41/41 29/29/29 50/50/50
f 29/29/29 51/51/51 50/50/50
f 53/53/53 39/39/39 52/52/52
f 56/56/56 55/55/55 54/54/54
f 55/55/55 57/57/57 54/54/54
f 56/56/56 59/59/59 58/58/58
f 61/61/61 60/60/60 58/58/58
f 58/58/58 60/60/60 62/62/62
f 62/62/62 60/60/60 63/63/63
f 64/64/64 62/62/62 63/63/63
f 62/62/62 64/64/64 65/65/65
f 64/64/64 66/66/66 65/65/65
f 62/62/62 65/65/65 67/67/67
f 67/67/67 58/58/58 62/62/62
f 65/65/65 68/68/68 67/67/67
f 65/65/65 69/69/69 68/68/68
f 70/70/70 64/64/64 63/63/63
f 64/64/64 70/70/70 71/71/71
f 70/70/70 72/72/72 66/66/66
f 73/73/73 70/70/70 63/63/63
f 74/74/74 73/73/73 63/63/63
f 63/63/63 60/60/60 75/75/75
f 60/60/60 61/61/61 75/75/75
f 76/76/76 63/63/63 75/75/75
f 77/77/77 63/63/63 76/76/76
f 78/78/78 63/63/63 77/77/77
f 79/79/79 78/78/78 77/77/77
f 78/78/78 79/79/79 80/80/80
f 79/79/79 81/81/81 80/80/80
f 79/79/79 82/82/82 81/81/81
f 82/82/82 79/79/79 77/77/77
f 82/82/82 83/83/83 81/81/81
f 81/81/81 84/84/84 80/80/80
f 85/85/85 78/78/78 80/80/80
f 78/78/78 85/85/85 63/63/63
f 86/86/86 85/85/85 80/80/80
f 87/87/87 82/82/82 77/77/77
f 88/88/88 87/87/87 77/77/77
f 86/86/86 80/80/80 89/89/89
f 90/90/90 77/77/77 76/76/76
f 77/77/77 90/90/90 91/91/91
f 77/77/77 91/91/91 92/92/92
f 93/93/93 77/77/77 92/92/92
f 92/92/92 94/94/94 93/93/93
f 92/92/92 91/91/91 95/95/95
f 95/95/95 96/96/96 92/92/92
f 97/97/97 94/94/94 96/96/96
f 96/96/96 98/98/98 92/92/92
f 95/95/95 91/91/91 99/99/99
f 91/91/91 90/90/90 99/99/99
f 90/90/90 76/76/76 99/99/99
f 99/99/99 76/76/76 100/100/100
f 76/76/76 75/75/75 100/100/100
f 100/100/100 75/75/75 101/101/101
f 100/100/100 101/101/101 102/102/102
f 102/102/102 103/103/103 100/100/100
f 104/104/104 77/77/77 31/31/31
f 105/105/105 104/104/104 31/31/31
f 104/104/104 105/105/105 106/106/106
f 105/105/105 107/107/107 106/106/106
f 105/105/105 108/108/108 107/107/107
f 108/108/108 109/109/109 107/107/107
f 109/109/109 110/110/110 107/107/107
f 107/107/107 111/111/111 106/106/106
f 112/112/112 104/104/104 106/106/106
f 104/104/104 112/112/112 77/77/77
f 113/113/113 112/112/112 106/106/106
f 108/108/108 105/105/105 93/93/93
f 113/113/113 106/106/106 114/114/114
f 116/116/116 108/108/108 115/115/115
f 94/94/94 25/25/25 31/31/31
f 24/24/24 25/25/25 117/117/117
f 119/119/119 24/24/24 118/118/118
f 4/4/4 2/2/2 119/119/119
f 2/2/2 24/24/24 120/120/120
f 4/4/4 121/121/121 96/96/96
f 122/122/122 4/4/4 96/96/96
f 1/1/1 4/4/4 122/122/122
f 20/20/20 124/124/124 123/123/123
f 127/127/127 126/126/126 125/125/125
f 126/126/126 128/128/128 125/125/125
f 129/129/129 128/128/128 126/126/126
f 130/130/130 129/129/129 126/126/126
f 128/128/128 131/131/131 125/125/125
f 126/126/126 127/127/127 21/21/21
f 127/127/127 22/22/22 21/21/21
f 132/132/132 22/22/22 127/127/127
f 129/129/129 133/133/133 128/128/128
f 127/127/127 125/125/125 134/134/134
f 130/130/130 126/126/126 135/135/135
f 136/136/136 21/21/21 135/135/135
f 134/134/134 125/125/125 137/137/137
f 139/139/139 138/138/138 127/127/127
f 139/139/139 127/127/127 140/140/140
f 142/142/142 21/21/21 141/141/141
f 141/141/141 143/143/143 142/142/142
f 143/143/143 144/144/144 142/142/142
f 145/145/145 143/143/143 141/141/141
f 146/146/146 145/145/145 141/141/141
f 143/143/143 147/147/147 144/144/144
f 145/145/145 148/148/148 143/143/143
f 141/141/141 17/17/17 146/146/146
f 21/21/21 17/17/17 141/141/141
f 149/149/149 21/21/21 142/142/142
f 150/150/150 149/149/149 142/142/142
f 17/17/17 18/18/18 146/146/146
f 150/150/150 142/142/142 151/151/151
f 142/142/142 144/144/144 151/151/151
f 151/151/151 144/144/144 152/152/152
f 155/155/155 154/154/154 153/153/153
f 154/154/154 156/156/156 153/153/153
f 157/157/157 156/156/156 154/154/154
f 156/156/156 158/158/158 153/153/153
f 154/154/154 155/155/155 22/22/22
f 155/155/155 23/23/23 22/22/22
f 159/159/159 23/23/23 155/155/155
f 160/160/160 159/159/159 155/155/155
f 157/157/157 161/161/161 156/156/156
f 160/160/160 155/155/155 162/162/162
f 155/155/155 153/153/153 162/162/162
f 162/162/162 153/153/153 163/163/163
f 165/165/165 157/157/157 164/164/164
f 165/165/165 164/164/164 166/166/166
f 164/164/164 22/22/22 166/166/166
f 168/168/168 167/167/167 81/81/81
f 170/170/170 169/169/169 66/66/66
f 172/172/172 171/171/171 65/65/65
f 175/175/175 174/174/174 173/173/173
f 175/175/175 176/176/176 174/174/174
f 176/176/176 177/177/177 174/174/174
f 174/174/174 177/177/177 16/16/16
f 16/16/16 14/14/14 174/174/174
f 14/14/14 6/6/6 174/174/174
f 174/174/174 6/6/6 178/178/178
f 177/177/177 179/179/179 16/16/16
f 179/179/179 180/180/180 16/16/16
f 180/180/180 181/181/181 16/16/16
f 180/180/180 179/179/179 182/182/182
f 179/179/179 183/183/183 182/182/182
f 183/183/183 184/184/184 182/182/182
f 185/185/185 184/184/184 183/183/183
f 177/177/177 176/176/176 185/185/185
f 177/177/177 185/185/185 179/179/179
f 185/185/185 183/183/183 179/179/179
f 186/186/186 184/184/184 185/185/185
f 176/176/176 186/186/186 185/185/185
f 5/5/5 178/178/178 6/6/6
f 188/188/188 187/187/187 103/103/103
f 189/189/189 188/188/188 103/103/103
f 189/189/189 103/103/103 190/190/190
f 189/189/189 191/191/191 188/188/188
f 190/190/190 192/192/192 189/189/189
f 192/192/192 191/191/191 189/189/189
f 192/192/192 190/190/190 55/55/55
f 193/193/193 192/192/192 55/55/55
f 192/192/192 193/193/193 194/194/194
f 193/193/193 195/195/195 194/194/194
f 195/195/195 196/196/196 194/194/194
f 194/194/194 196/196/196 197/197/197
f 192/192/192 198/198/198 191/191/191
f 192/192/192 194/194/194 198/198/198
f 194/194/194 197/197/197 198/198/198
f 191/191/191 200/200/200 199/199/199
f 202/202/202 201/201/201 200/200/200
f 204/204/204 203/203/203 200/200/200
f 206/206/206 205/205/205 200/200/200
f 206/206/206 207/207/207 205/205/205
f 210/210/210 209/209/209 208/208/208
f 209/209/209 211/211/211 208/208/208
f 209/209/209 212/212/212 211/211/211
f 212/212/212 213/213/213 211/211/211
f 213/213/213 214/214/214 211/211/211
f 214/214/214 215/215/215 211/211/211
f 216/216/216 211/211/211 215/215/215
f 213/213/213 212/212/212 217/217/217
f 214/214/214 213/213/213 218/218/218
f 213/213/213 219/219/219 218/218/218
f 219/219/219 213/213/213 217/217/217
f 220/220/220 210/210/210 208/208/208
f 221/221/221 220/220/220 208/208/208
f 222/222/222 220/220/220 221/221/221
f 223/223/223 222/222/222 221/221/221
f 224/224/224 223/223/223 221/221/221
f 225/225/225 224/224/224 221/221/221
f 221/221/221 226/226/226 225/225/225
f 227/227/227 222/222/222 223/223/223
f 228/228/228 227/227/227 223/223/223
f 228/228/228 223/223/223 229/229/229
f 223/223/223 224/224/224 229/229/229
f 214/214/214 230/230/230 215/215/215
f 218/218/218 231/231/231 214/214/214
f 231/231/231 230/230/230 214/214/214
f 226/226/226 232/232/232 225/225/225
f 232/232/232 233/233/233 225/225/225
f 225/225/225 233/233/233 224/224/224
f 233/233/233 234/234/234 224/224/224
f 224/224/224 234/234/234 229/229/229
f 234/234/234 235/235/235 229/229/229
f 229/229/229 236/236/236 228/228/228
f 236/236/236 237/237/237 228/228/228
f 228/228/228 238/238/238 227/227/227
f 238/238/238 239/239/239 227/227/227
f 227/227/227 239/239/239 240/240/240
f 222/222/222 227/227/227 240/240/240
f 240/240/240 241/241/241 222/222/222
f 241/241/241 220/220/220 222/222/222
f 220/220/220 241/241/241 242/242/242
f 210/210/210 220/220/220 242/242/242
f 210/210/210 242/242/242 243/243/243
f 209/209/209 210/210/210 243/243/243
f 209/209/209 243/243/243 244/244/244
f 212/212/212 209/209/209 244/244/244
f 212/212/212 244/244/244 245/245/245
f 217/217/217 212/212/212 245/245/245
f 219/219/219 217/217/217 245/245/245
f 246/246/246 219/219/219 245/245/245
f 240/240/240 239/239/239 247/247/247
f 241/241/241 240/240/240 247/247/247
f 248/248/248 247/247/247 239/239/239
f 248/248/248 249/249/249 247/247/247
f 250/250/250 249/249/249 248/248/248
f 251/251/251 250/250/250 248/248/248
f 249/249/249 252/252/252 247/247/247
f 247/247/247 252/252/252 253/253/253
f 252/252/252 254/254/254 253/253/253
f 253/253/253 254/254/254 255/255/255
f 254/254/254 256/256/256 255/255/255
f 255/255/255 242/242/242 253/253/253
f 242/242/242 241/241/241 253/253/253
f 253/253/253 241/241/241 247/247/247
f 243/243/243 242/242/242 255/255/255
f 257/257/257 243/243/243 255/255/255
f 255/255/255 258/258/258 257/257/257
f 258/258/258 259/259/259 257/257/257
f 257/257/257 259/259/259 260/260/260
f 259/259/259 261/261/261 260/260/260
f 244/244/244 243/243/243 257/257/257
f 262/262/262 244/244/244 257/257/257
f 245/245/245 244/244/244 262/262/262
f 263/263/263 245/245/245 262/262/262
f 264/264/264 245/245/245 263/263/263
f 264/264/264 265/265/265 245/245/245
f 264/264/264 263/263/263 266/266/266
f 267/267/267 266/266/266 263/263/263
f 268/268/268 267/267/267 263/263/263
f 269/269/269 264/264/264 266/266/266
f 259/259/259 258/258/258 270/270/270
f 271/271/271 259/259/259 270/270/270
f 271/271/271 261/261/261 259/259/259
f 272/272/272 266/266/266 267/267/267
f 274/274/274 273/273/273 264/264/264
f 273/273/273 275/275/275 246/246/246
f 275/275/275 219/219/219 246/246/246
f 219/219/219 277/277/277 276/276/276
f 277/277/277 278/278/278 218/218/218
f 215/215/215 280/280/280 279/279/279
f 280/280/280 281/281/281 279/279/279
f 230/230/230 280/280/280 215/215/215
f 208/208/208 211/211/211 282/282/282
f 208/208/208 282/282/282 221/221/221
f 248/248/248 239/239/239 283/283/283
f 239/239/239 284/284/284 283/283/283
f 286/286/286 251/251/251 285/285/285
f 251/251/251 288/288/288 287/287/287
f 287/287/287 288/288/288 289/289/289
f 238/238/238 228/228/228 289/289/289
f 291/291/291 285/285/285 290/290/290
f 292/292/292 291/291/291 290/290/290
f 256/256/256 254/254/254 293/293/293
f 254/254/254 294/294/294 293/293/293
f 295/295/295 294/294/294 254/254/254
f 252/252/252 295/295/295 254/254/254
f 252/252/252 249/249/249 295/295/295
f 298/298/298 297/297/297 296/296/296
f 299/299/299 298/298/298 296/296/296
f 299/299/299 300/300/300 298/298/298
f 300/300/300 301/301/301 298/298/298
f 301/301/301 302/302/302 298/298/298
f 302/302/302 303/303/303 298/298/298
f 298/298/298 303/303/303 297/297/297
f 302/302/302 304/304/304 303/303/303
f 304/304/304 305/305/305 303/303/303
f 303/303/303 306/306/306 297/297/297
f 307/307/307 297/297/297 306/306/306
f 308/308/308 307/307/307 306/306/306
f 306/306/306 309/309/309 308/308/308
f 310/310/310 308/308/308 309/309/309
f 311/311/311 310/310/310 309/309/309
f 310/310/310 311/311/311 312/312/312
f 313/313/313 310/310/310 312/312/312
f 313/313/313 312/312/312 314/314/314
f 315/315/315 314/314/314 312/312/312
f 316/316/316 315/315/315 312/312/312
f 312/312/312 311/311/311 316/316/316
f 317/317/317 313/313/313 314/314/314
f 310/310/310 313/313/313 318/318/318
f 313/313/313 319/319/319 318/318/318
f 313/313/313 317/317/317 319/319/319
f 317/317/317 320/320/320 319/319/319
f 319/319/319 320/320/320 321/321/321
f 322/322/322 311/311/311 309/309/309
f 323/323/323 322/322/322 309/309/309
f 309/309/309 306/306/306 323/323/323
f 306/306/306 324/324/324 323/323/323
f 306/306/306 303/303/303 324/324/324
f 303/303/303 305/305/305 324/324/324
f 322/322/322 325/325/325 311/311/311
f 325/325/325 326/326/326 311/311/311
f 316/316/316 311/311/311 326/326/326
f 329/329/329 328/328/328 327/327/327
f 328/328/328 330/330/330 327/327/327
f 329/329/329 331/331/331 328/328/328
f 332/332/332 328/328/328 331/331/331
f 332/332/332 331/331/331 333/333/333
f 334/334/334 332/332/332 333/333/333
f 335/335/335 334/334/334 333/333/333
f 336/336/336 335/335/335 333/333/333
f 337/337/337 335/335/335 336/336/336
f 338/338/338 335/335/335 337/337/337
f 339/339/339 338/338/338 337/337/337
f 340/340/340 338/338/338 339/339/339
f 341/341/341 340/340/340 339/339/339
f 342/342/342 340/340/340 341/341/341
f 343/343/343 342/342/342 341/341/341
f 344/344/344 342/342/342 343/343/343
f 345/345/345 344/344/344 343/343/343
f 344/344/344 345/345/345 346/346/346
f 345/345/345 347/347/347 346/346/346
f 348/348/348 346/346/346 347/347/347
f 346/346/346 348/348/348 349/349/349
f 349/349/349 344/344/344 346/346/346
f 348/348/348 350/350/350 349/349/349
f 351/351/351 350/350/350 348/348/348
f 352/352/352 351/351/351 348/348/348
f 348/348/348 347/347/347 353/353/353
f 353/353/353 354/354/354 348/348/348
f 354/354/354 353/353/353 329/329/329
f 329/329/329 355/355/355 354/354/354
f 355/355/355 356/356/356 354/354/354
f 357/357/357 356/356/356 355/355/355
f 353/353/353 358/358/358 329/329/329
f 357/357/357 359/359/359 356/356/356
f 356/356/356 359/359/359 354/354/354
f 359/359/359 348/348/348 354/354/354
f 352/352/352 359/359/359 360/360/360
f 361/361/361 352/352/352 360/360/360
f 360/360/360 359/359/359 362/362/362
f 359/359/359 363/363/363 362/362/362
f 363/363/363 359/359/359 357/357/357
f 357/357/357 364/364/364 363/363/363
f 363/363/363 364/364/364 362/362/362
f 362/362/362 364/364/364 365/365/365
f 366/366/366 357/357/357 355/355/355
f 366/366/366 367/367/367 357/357/357
f 367/367/367 366/366/366 368/368/368
f 368/368/368 366/366/366 369/369/369
f 366/366/366 370/370/370 369/369/369
f 369/369/369 370/370/370 371/371/371
f 370/370/370 327/327/327 371/371/371
f 372/372/372 327/327/327 370/370/370
f 366/366/366 372/372/372 370/370/370
f 372/372/372 373/373/373 327/327/327
f 376/376/376 375/375/375 374/374/374
f 352/352/352 378/378/378 377/377/377
f 380/380/380 379/379/379 358/358/358
f 353/353/353 381/381/381 358/358/358
f 381/381/381 382/382/382 358/358/358
f 383/383/383 381/381/381 353/353/353
f 347/347/347 383/383/383 353/353/353
f 358/358/358 382/382/382 331/331/331
f 382/382/382 384/384/384 331/331/331
f 384/384/384 385/385/385 331/331/331
f 331/331/331 385/385/385 333/333/333
f 386/386/386 383/383/383 347/347/347
f 345/345/345 386/386/386 347/347/347
f 343/343/343 386/386/386 345/345/345
f 389/389/389 388/388/388 387/387/387
f 387/387/387 390/390/390 389/389/389
f 390/390/390 391/391/391 389/389/389
f 392/392/392 390/390/390 387/387/387
f 393/393/393 392/392/392 387/387/387
f 394/394/394 388/388/388 389/389/389
f 388/388/388 394/394/394 395/395/395
f 396/396/396 395/395/395 394/394/394
f 397/397/397 396/396/396 394/394/394
f 398/398/398 396/396/396 397/397/397
f 399/399/399 398/398/398 397/397/397
f 400/400/400 399/399/399 397/397/397
f 401/401/401 400/400/400 397/397/397
f 397/397/397 402/402/402 401/401/401
f 397/397/397 403/403/403 402/402/402
f 397/397/397 404/404/404 403/403/403
f 394/394/394 404/404/404 397/397/397
f 402/402/402 405/405/405 401/401/401
f 396/396/396 406/406/406 395/395/395
f 406/406/406 407/407/407 395/395/395
f 395/395/395 407/407/407 408/408/408
f 395/395/395 408/408/408 409/409/409
f 407/407/407 410/410/410 408/408/408
f 408/408/408 410/410/410 411/411/411
f 408/408/408 411/411/411 409/409/409
f 410/410/410 412/412/412 411/411/411
f 399/399/399 413/413/413 398/398/398
f 413/413/413 414/414/414 398/398/398
f 400/400/400 415/415/415 399/399/399
f 415/415/415 413/413/413 399/399/399
f 403/403/403 416/416/416 402/402/402
f 417/417/417 416/416/416 403/403/403
f 418/418/418 417/417/417 403/403/403
f 411/411/411 420/420/420 419/419/419
f 411/411/411 419/419/419 421/421/421
f 419/419/419 423/423/423 422/422/422
f 422/422/422 424/424/424 419/419/419
f 422/422/422 425/425/425 424/424/424
f 425/425/425 426/426/426 424/424/424
f 419/419/419 424/424/424 427/427/427
f 428/428/428 427/427/427 424/424/424
f 427/427/427 428/428/428 387/387/387
f 419/419/419 427/427/427 429/429/429
f 429/429/429 427/427/427 387/387/387
f 388/388/388 429/429/429 387/387/387
f 431/431/431 430/430/430 422/422/422
f 433/433/433 424/424/424 432/432/432
f 424/424/424 434/434/434 432/432/432
f 426/426/426 436/436/436 435/435/435
f 439/439/439 438/438/438 437/437/437
f 442/442/442 441/441/441 440/440/440
f 443/443/443 442/442/442 440/440/440
f 419/419/419 441/441/441 442/442/442
f 446/446/446 445/445/445 444/444/444
f 445/445/445 447/447/447 444/444/444
f 444/444/444 447/447/447 448/448/448
f 449/449/449 444/444/444 448/448/448
f 448/448/448 447/447/447 450/450/450
f 447/447/447 451/451/451 450/450/450
f 452/452/452 451/451/451 447/447/447
f 445/445/445 452/452/452 447/447/447
f 444/444/444 449/449/449 453/453/453
f 454/454/454 444/444/444 453/453/453
f 454/454/454 455/455/455 444/444/444
f 455/455/455 456/456/456 444/444/444
f 454/454/454 453/453/453 457/457/457
f 458/458/458 454/454/454 457/457/457
f 454/454/454 458/458/458 459/459/459
f 460/460/460 454/454/454 459/459/459
f 454/454/454 460/460/460 461/461/461
f 454/454/454 461/461/461 455/455/455
f 461/461/461 463/463/463 462/462/462
f 466/466/466 465/465/465 464/464/464
f 398/398/398 467/467/467 396/396/396
f 467/467/467 406/406/406 396/396/396
f 469/469/469 468/468/468 400/400/400
f 468/468/468 470/470/470 400/400/400
f 471/471/471 468/468/468 401/401/401
f 405/405/405 471/471/471 401/401/401
f 473/473/473 472/472/472 405/405/405
f 472/472/472 474/474/474 405/405/405
f 416/416/416 475/475/475 402/402/402
f 478/478/478 477/477/477 476/476/476
f 481/481/481 480/480/480 479/479/479
f 484/484/484 483/483/483 482/482/482
f 483/483/483 485/485/485 482/482/482
f 486/486/486 485/485/485 483/483/483
f 487/487/487 486/486/486 483/483/483
f 488/488/488 486/486/486 487/487/487
f 489/489/489 488/488/488 487/487/487
f 490/490/490 489/489/489 487/487/487
f 493/493/493 492/492/492 491/491/491
f 496/496/496 495/495/495 494/494/494
f 497/497/497 495/495/495 496/496/496
f 498/498/498 497/497/497 496/496/496
f 499/499/499 497/497/497 498/498/498
f 500/500/500 499/499/499 498/498/498
f 500/500/500 498/498/498 501/501/501
f 502/502/502 500/500/500 501/501/501
f 501/501/501 503/503/503 502/502/502
f 503/503/503 504/504/504 502/502/502
f 501/501/501 498/498/498 505/505/505
f 498/498/498 496/496/496 505/505/505
f 496/496/496 506/506/506 505/505/505
f 506/506/506 507/507/507 505/505/505
f 507/507/507 508/508/508 505/505/505
f 510/510/510 503/503/503 509/509/509
f 511/511/511 510/510/510 509/509/509
f 514/514/514 513/513/513 512/512/512
f 513/513/513 515/515/515 512/512/512
f 516/516/516 515/515/515 513/513/513
f 517/517/517 516/516/516 513/513/513
f 518/518/518 516/516/516 517/517/517
f 519/519/519 518/518/518 517/517/517
f 518/518/518 519/519/519 520/520/520
f 515/515/515 516/516/516 521/521/521
f 521/521/521 516/516/516 522/522/522
f 523/523/523 515/515/515 521/521/521
f 512/512/512 515/515/515 523/523/523
f 524/524/524 512/512/512 523/523/523
f 513/513/513 514/514/514 525/525/525
f 526/526/526 513/513/513 525/525/525
f 517/517/517 513/513/513 526/526/526
f 527/527/527 517/517/517 526/526/526
f 528/528/528 517/517/517 527/527/527
f 529/529/529 528/528/528 527/527/527
f 532/532/532 531/531/531 530/530/530
f 531/531/531 533/533/533 530/530/530
f 534/534/534 531/531/531 532/532/532
f 535/535/535 534/534/534 532/532/532
f 536/536/536 534/534/534 535/535/535
f 537/537/537 536/536/536 535/535/535
f 540/540/540 539/539/539 538/538/538
f 539/539/539 541/541/541 538/538/538
f 542/542/542 541/541/541 539/539/539
f 543/543/543 542/542/542 539/539/539
f 544/544/544 542/542/542 543/543/543
f 545/545/545 544/544/544 543/543/543
f 544/544/544 545/545/545 546/546/546
f 541/541/541 542/542/542 547/547/547
f 547/547/547 542/542/542 548/548/548
f 549/549/549 541/541/541 547/547/547
f 538/538/538 541/541/541 549/549/549
f 550/550/550 538/538/538 549/549/549
f 539/539/539 540/540/540 551/551/551
f 552/552/552 539/539/539 551/551/551
f 543/543/543 539/539/539 552/552/552
f 553/553/553 543/543/543 552/552/552
f 554/554/554 543/543/543 553/553/553
f 555/555/555 554/554/554 553/553/553
f 558/558/558 557/557/557 556/556/556
f 557/557/557 559/559/559 556/556/556
f 560/560/560 557/557/557 558/558/558
f 561/561/561 560/560/560 558/558/558
f 562/562/562 560/560/560 561/561/561
f 563/563/563 562/562/562 561/561/561
f 566/566/566 565/565/565 564/564/564
f 565/565/565 567/567/567 564/564/564
f 568/568/568 567/567/567 565/565/565
f 569/569/569 568/568/568 565/565/565
f 570/570/570 568/568/568 569/569/569
f 571/571/571 570/570/570 569/569/569
f 574/574/574 573/573/573 572/572/572
f 575/575/575 574/574/574 572/572/572
f 575/575/575 576/576/576 574/574/574
f 577/577/577 576/576/576 575/575/575
f 578/578/578 577/577/577 575/575/575
f 579/579/579 577/577/577 578/578/578
f 580/580/580 579/579/579 578/578/578
f 581/581/581 575/575/575 572/572/572
f 578/578/578 575/575/575 581/581/581
f 580/580/580 578/578/578 582/582/582
f 582/582/582 578/578/578 581/581/581
f 581/581/581 583/583/583 582/582/582
f 583/583/583 584/584/584 582/582/582
f 582/582/582 584/584/584 585/585/585
f 585/585/585 580/580/580 582/582/582
f 584/584/584 586/586/586 585/585/585
f 587/587/587 583/583/583 581/581/581
f 588/588/588 587/587/587 581/581/581
