g Blue_mag_f_pve_2_hand_r
v -0.434388191 -0.0217307899 0.962209761
v -0.418361396 -0.0255865492 1.02573633
v -0.45171845 -0.0305206738 0.976523578
v -0.406162202 -0.0122733396 1.01750314
v -0.433395535 -0.0328032114 0.941351235
v -0.44132334 -0.0382694192 0.919081688
v -0.456849784 -0.0439571217 0.91766721
v -0.454686612 -0.061717581 0.979946494
v -0.418361396 -0.0255865492 1.02573633
v -0.43181625 -0.0537849888 1.02005649
v -0.452807873 -0.0880307555 0.98450923
v -0.457351983 -0.062434677 0.918072343
v -0.437133133 -0.0490441583 0.880692244
v -0.447659224 -0.053819187 0.878371775
v -0.457351983 -0.062434677 0.918072343
v -0.448303699 -0.0691546127 0.880199552
v -0.41941756 -0.0642424598 0.860710144
v -0.41941756 -0.0642424598 0.860710144
v -0.458489716 -0.0896562189 0.921806037
v -0.46097675 -0.0741410106 0.919028163
v -0.452954829 -0.0937089026 0.880924523
v -0.456289023 -0.0820906982 0.879284501
v -0.44679594 -0.0674650446 0.915162027
v -0.447037697 -0.072820805 0.879554033
v -0.423981726 -0.0864292681 0.853346169
v -0.441574574 -0.0893451944 0.916814983
v -0.452954829 -0.0937089026 0.880924523
v -0.437942952 -0.0937255546 0.882186711
v -0.423981726 -0.0864292681 0.853346169
v -0.452954829 -0.0937089026 0.880924523
v -0.423981726 -0.0864292681 0.853346169
v -0.435339868 -0.06059248 0.942652941
v -0.440202653 -0.0633296445 0.918347061
v -0.440202653 -0.0633296445 0.918347061
v -0.457351983 -0.062434677 0.918072343
v -0.448303699 -0.0691546127 0.880199552
v -0.436790913 -0.0700012594 0.881860316
v -0.41941756 -0.0642424598 0.860710144
v -0.423981726 -0.0864292681 0.853346169
v -0.431956023 -0.0732900873 0.88059479
v -0.436719 -0.141953781 0.983491063
v -0.429712296 -0.0839833692 1.02293253
v -0.42233929 -0.110014044 1.02803636
v -0.446759075 -0.114854343 0.988258898
v -0.421630919 -0.142479524 0.995988011
v -0.413515836 -0.114566259 1.03290892
v -0.41404736 -0.134696752 0.958704293
v -0.411891103 -0.139700651 0.978120327
v -0.396429688 -0.141167328 0.98951447
v -0.399440557 -0.137175694 1.00906479
v -0.371410787 -0.125787124 1.04246902
v -0.440298229 -0.148680463 0.933605373
v -0.450553894 -0.130667612 0.925509155
v -0.434881955 -0.155252233 0.886798561
v -0.44259426 -0.141537935 0.882433176
v -0.432313591 -0.118888102 0.920310318
v -0.436272204 -0.132056892 0.881335735
v -0.420784533 -0.148373738 0.928488731
v -0.421823502 -0.153329268 0.890141964
v -0.408049494 -0.13729912 0.856788218
v -0.408049494 -0.13729912 0.856788218
v -0.408049494 -0.13729912 0.856788218
v -0.423301846 -0.105193362 0.947439075
v -0.433464646 -0.117495626 0.919695497
v -0.452465922 -0.118027061 0.92280066
v -0.456727922 -0.100545436 0.91764164
v -0.444221169 -0.125653267 0.875527024
v -0.450722158 -0.1063926 0.872576296
v -0.441040754 -0.0917884037 0.913836777
v -0.439967722 -0.0960909501 0.880339086
v -0.433464646 -0.117495626 0.919695497
v -0.444221169 -0.125653267 0.875527024
v -0.430398047 -0.12352521 0.88315475
v -0.429922968 -0.0823494866 0.944279611
v -0.441574574 -0.0893451944 0.916814983
v -0.444221169 -0.125653267 0.875527024
v -0.417243272 -0.108938292 0.845296681
v -0.417243272 -0.108938292 0.845296681
v -0.444221169 -0.125653267 0.875527024
v -0.450722158 -0.1063926 0.872576296
v -0.439967722 -0.0960909501 0.880339086
v -0.406162202 -0.0122733396 1.01750314
v -0.434388191 -0.0217307899 0.962209761
v -0.396199942 -0.015161721 1.00065696
v -0.420484811 -0.0238713808 0.961127818
v -0.433395535 -0.0328032114 0.941351235
v -0.423783928 -0.0386488736 0.94164747
v -0.410912871 -0.0343248993 0.961385608
v -0.396199942 -0.015161721 1.00065696
v -0.381435305 -0.0370022207 0.993866086
v -0.403113037 -0.0578883104 0.961224675
v -0.387922585 -0.0542161353 0.973557889
v -0.389737159 -0.0903722346 0.959913552
v -0.378191113 -0.0846380442 0.979785204
v -0.396591991 -0.11864765 0.968180954
v -0.37985149 -0.110753417 0.980406463
v -0.40140301 -0.121641025 0.950988293
v -0.41404736 -0.134696752 0.958704293
v -0.411891103 -0.139700651 0.978120327
v -0.37985149 -0.110753417 0.980406463
v -0.404587358 -0.100900494 0.945419073
v -0.408346713 -0.0758278295 0.939141989
v -0.41828239 -0.0546107627 0.939467311
v -0.423234671 -0.0924686864 0.909381688
v -0.417636454 -0.107681699 0.910506546
v -0.430595934 -0.099126339 0.875834644
v -0.422455966 -0.113543205 0.877649963
v -0.430398047 -0.12352521 0.88315475
v -0.433464646 -0.117495626 0.919695497
v -0.417243272 -0.108938292 0.845296681
v -0.417243272 -0.108938292 0.845296681
v -0.405841738 -0.133383557 0.925074875
v -0.415811807 -0.117303513 0.919458508
v -0.412685454 -0.14238131 0.887098193
v -0.422137678 -0.129323959 0.880418599
v -0.421823502 -0.153329268 0.890141964
v -0.420784533 -0.148373738 0.928488731
v -0.408049494 -0.13729912 0.856788218
v -0.408049494 -0.13729912 0.856788218
v -0.436272204 -0.132056892 0.881335735
v -0.432313591 -0.118888102 0.920310318
v -0.423301846 -0.105193362 0.947439075
v -0.404587358 -0.100900494 0.945419073
v -0.408049494 -0.13729912 0.856788218
v -0.423301846 -0.105193362 0.947439075
v -0.411891103 -0.139700651 0.978120327
v -0.396429688 -0.141167328 0.98951447
v -0.345680505 -0.113035455 0.998138428
v -0.354082495 -0.0774607584 0.997061729
v -0.338907421 -0.10537646 1.04347622
v -0.340723902 -0.159036368 0.98352325
v -0.339454651 -0.130454093 0.974332392
v -0.351178318 -0.142595991 1.01556909
v -0.37985149 -0.110753417 0.980406463
v -0.364107728 -0.127726451 0.971485972
v -0.33624804 -0.141242951 0.949847639
v -0.331681818 -0.153564215 0.951653063
v -0.328205019 -0.146151051 0.917835951
v -0.35313192 -0.138910547 0.946954787
v -0.328205019 -0.146151051 0.917835951
v -0.354340166 -0.143571064 0.947494626
v -0.328205019 -0.146151051 0.917835951
v -0.37985149 -0.110753417 0.980406463
v -0.376548886 -0.140923083 0.977371812
v -0.354340166 -0.143571064 0.947494626
v -0.376548886 -0.140923083 0.977371812
v -0.338907421 -0.10537646 1.04347622
v -0.429568499 -0.0575748608 0.920564175
v -0.431049377 -0.0434223078 0.919854045
v -0.44132334 -0.0382694192 0.919081688
v -0.425048083 -0.0641467348 0.883929431
v -0.429692417 -0.054502476 0.883117199
v -0.437133133 -0.0490441583 0.880692244
v -0.41941756 -0.0642424598 0.860710144
v -0.436790913 -0.0700012594 0.881860316
v -0.425048083 -0.0641467348 0.883929431
v -0.440202653 -0.0633296445 0.918347061
v -0.41941756 -0.0642424598 0.860710144
v -0.435339868 -0.06059248 0.942652941
v -0.431344718 -0.0650810823 0.912926674
v -0.422806323 -0.0818029419 0.912879944
v -0.431956023 -0.0732900873 0.88059479
v -0.435339868 -0.06059248 0.942652941
v -0.44679594 -0.0674650446 0.915162027
v -0.447037697 -0.072820805 0.879554033
v -0.431956023 -0.0732900873 0.88059479
v -0.425966054 -0.0866150483 0.882658839
v -0.437942952 -0.0937255546 0.882186711
v -0.441574574 -0.0893451944 0.916814983
v -0.423981726 -0.0864292681 0.853346169
v -0.423981726 -0.0864292681 0.853346169
v -0.429922968 -0.0823494866 0.944279611
v -0.429568499 -0.0575748608 0.920564175
v -0.435339868 -0.06059248 0.942652941
v -0.429922968 -0.0823494866 0.944279611
v -0.408346713 -0.0758278295 0.939141989
v -0.441040754 -0.0917884037 0.913836777
v -0.439967722 -0.0960909501 0.880339086
v -0.417243272 -0.108938292 0.845296681
v -0.371410787 -0.125787124 1.04246902
v -0.379398018 -0.153093234 1.01750982
v -0.376671016 -0.153392464 1.00960827
v -0.351178318 -0.142595991 1.01556909
v -0.371410787 -0.125787124 1.04246902
v -0.350737244 -0.179169282 0.983023763
v -0.340723902 -0.159036368 0.98352325
v -0.37844649 -0.166335389 0.982944667
v -0.396429688 -0.141167328 0.98951447
v -0.376548886 -0.140923083 0.977371812
v -0.351587862 -0.168010533 0.948373258
v -0.354340166 -0.143571064 0.947494626
v -0.328205019 -0.146151051 0.917835951
v -0.350470394 -0.173153624 0.975779712
v -0.338907421 -0.10537646 1.04347622
v -0.338106006 -0.166724339 0.94851613
v -0.328205019 -0.146151051 0.917835951
v -0.331681818 -0.153564215 0.951653063
v -0.328205019 -0.146151051 0.917835951
v -0.350470394 -0.173153624 0.975779712
v -0.350737244 -0.179169282 0.983023763
v -0.350470394 -0.173153624 0.975779712
v -0.350470394 -0.173153624 0.975779712
v -0.350737244 -0.179169282 0.983023763
v -0.376548886 -0.140923083 0.977371812
v -0.37985149 -0.110753417 0.980406463
v -0.396429688 -0.141167328 0.98951447
v -0.365262419 -0.0576501004 1.06078172
v -0.354082495 -0.0774607584 0.997061729
v -0.338907421 -0.10537646 1.04347622
v -0.381435305 -0.0370022207 0.993866086
v -0.396199942 -0.015161721 1.00065696
v -0.3849774 -0.021134343 1.06438494
v -0.346861333 -0.0782992691 1.09897494
v -0.355739534 -0.0476770215 1.08791578
v -0.329726696 -0.0642591938 1.14456034
v -0.335968703 -0.0332911015 1.13720024
v -0.376336217 -0.0205485858 1.0944041
v -0.355963707 -0.011732406 1.14325035
v -0.303989708 -0.0514910929 1.19546032
v -0.303072691 -0.0144412946 1.18621027
v -0.32301569 0.0137792025 1.19716036
v -0.251654953 0.00381510123 1.25618005
v -0.281509936 0.0482113846 1.27831328
v -0.256913483 -0.0418762229 1.26689827
v -0.224837184 0.00864831824 1.31832683
v -0.22751838 -0.0291866269 1.32845366
v -0.246498853 0.0554091409 1.32615876
v -0.276740998 -0.0548236556 1.29679406
v -0.256045401 -0.0567000434 1.34167147
v -0.338142246 0.0297516789 1.11181986
v -0.313359261 0.0360973366 1.16233563
v -0.367274851 0.00718419766 1.05128372
v -0.247768149 0.046170745 1.21535683
v -0.228787214 -0.0370223746 1.23520863
v -0.274489373 0.0749413595 1.34091473
v -0.263783038 0.0499489494 1.32835996
v -0.235659018 0.00726667559 1.32389998
v -0.238372982 -0.0130548459 1.3319
v -0.224837184 0.00864831824 1.31832683
v -0.246498853 0.0554091409 1.32615876
v -0.282399058 0.0493149646 1.33990991
v -0.274489373 0.0749413595 1.34091473
v -0.25624001 -0.0243775584 1.34635997
v -0.281285733 -0.0467106961 1.35810971
v -0.274834007 -0.0247613434 1.35781991
v -0.256045401 -0.0567000434 1.34167147
v -0.245684892 -0.0635413006 1.16758251
v -0.285784721 -0.0765635967 1.15239108
v -0.327885211 -0.0908328295 1.10320818
v -0.245684892 -0.0635413006 1.16758251
v -0.327885211 -0.0908328295 1.10320818
v -0.338907421 -0.10537646 1.04347622
v -0.388024449 -0.00836985186 1.36834455
v -0.442359954 -0.0162891448 1.34627438
v -0.446000516 -0.00836986676 1.40352702
v -0.40511474 -0.0162811782 1.31888688
v -0.468991488 -0.0144789517 1.37785792
v -0.477255046 -0.0104872109 1.41547418
v -0.468991488 -0.00226078602 1.37785792
v -0.341769099 -0.0167995188 1.31886423
v -0.38887164 -0.0164495278 1.29583621
v -0.353216708 -0.00836984627 1.37298
v -0.441850305 -0.00317988475 1.47239006
v -0.474205226 -0.000366799301 1.34046149
v -0.474205226 -0.0163729358 1.34046149
v -0.474205226 -0.000366799301 1.34046149
v -0.468991488 -0.00226078602 1.37785792
v -0.477207541 -0.00413518678 1.41494644
v -0.441850305 -0.00317988475 1.47239006
v -0.442359954 -0.0162891448 1.34627438
v -0.442359954 -0.00045057878 1.34627438
v -0.40511474 -0.0162811782 1.31888688
v -0.40511474 -0.000458525901 1.31888688
v -0.38887164 -0.000290166179 1.29583621
v -0.442359954 -0.00045057878 1.34627438
v -0.40511474 -0.000458525901 1.31888688
v -0.446000516 -0.00836986676 1.40352702
v -0.441850305 -0.00317988475 1.47239006
v -0.477207541 -0.00413518678 1.41494644
v -0.468991488 -0.00226078602 1.37785792
v -0.442359954 -0.00045057878 1.34627438
v -0.40511474 -0.000458525901 1.31888688
v -0.388024449 -0.00836985186 1.36834455
v -0.341769099 5.9840524E-05 1.31886423
v -0.38887164 -0.000290166179 1.29583621
v -0.353216708 -0.00836984627 1.37298
v -0.474205226 -0.000366799301 1.34046149
v -0.228787214 -0.0370223746 1.23520863
v -0.243810147 -0.0850817561 1.17334116
v -0.224604964 -0.0580524988 1.24157083
v -0.245684892 -0.0635413006 1.16758251
v -0.245131046 -0.0822181404 1.21222436
v -0.276740998 -0.0548236556 1.29679406
v -0.287494332 -0.095448643 1.15829623
v -0.285784721 -0.0765635967 1.15239108
v -0.245684892 -0.0635413006 1.16758251
v -0.351576418 -0.101019621 1.17306542
v -0.323871732 -0.109197587 1.10712838
v -0.371302068 -0.10828121 1.11541903
v -0.341475904 -0.0850252062 1.23455703
v -0.256913483 -0.0418762229 1.26689827
v -0.228787214 -0.0370223746 1.23520863
v -0.323871732 -0.109197587 1.10712838
v -0.327885211 -0.0908328295 1.10320818
v -0.334893912 -0.123741232 1.04739654
v -0.384018153 -0.101132832 1.15423465
v -0.334893912 -0.123741232 1.04739654
v -0.356363773 -0.121350706 1.06214786
v -0.371410787 -0.125787124 1.04246902
v -0.377164274 -0.0586541146 1.24408281
v -0.385738909 -0.0654928312 1.21566391
v -0.384018153 -0.101132832 1.15423465
v -0.40151754 -0.0138739999 1.24821615
v -0.404861659 -0.0304160919 1.21780479
v -0.404384464 -0.0105938278 1.2163527
v -0.389283746 0.0279765297 1.23523498
v -0.411525905 0.0152518796 1.14274645
v -0.378470361 0.0319285281 1.26365936
v -0.391103178 -0.0106358062 1.26713157
v -0.332632452 0.0558981486 1.23767424
v -0.371765673 -0.0546373539 1.26358294
v -0.383589238 0.0375148393 1.14948142
v -0.31464833 0.048553016 1.1591742
v -0.247264832 0.0586633049 1.21410203
v -0.282839328 0.0678981096 1.27346122
v -0.339112163 0.0414482504 1.10673141
v -0.39769125 0.0143739339 1.07001603
v -0.281509936 0.0482113846 1.27831328
v -0.247768149 0.046170745 1.21535683
v -0.247768149 0.046170745 1.21535683
v -0.313359261 0.0360973366 1.16233563
v -0.338142246 0.0297516789 1.11181986
v -0.368404537 0.0182227623 1.04494536
v -0.367274851 0.00718419766 1.05128372
v -0.31464833 0.048553016 1.1591742
v -0.411525905 0.0152518796 1.14274645
v -0.368404537 0.0182227623 1.04494536
v -0.392889768 0.0135431932 1.04793119
v -0.367274851 0.00718419766 1.05128372
v -0.368404537 0.0182227623 1.04494536
v -0.3849774 -0.021134343 1.06438494
v -0.327885211 -0.0908328295 1.10320818
v -0.338907421 -0.10537646 1.04347622
v -0.428023934 -0.0432571433 1.25028205
v -0.385738909 -0.0654928312 1.21566391
v -0.39306125 -0.0804156289 1.24345648
v -0.404861659 -0.0304160919 1.21780479
v -0.392989963 -0.0961991474 1.24352551
v -0.443912178 -0.0509513654 1.25166357
v -0.445946157 -0.0570217408 1.20326149
v -0.435853422 0.0140025513 1.23756528
v -0.424061358 0.00623964518 1.23746109
v -0.428023934 -0.0432571433 1.25028205
v -0.442481071 -0.00478928676 1.1941613
v -0.463565439 -0.00419818377 1.19423509
v -0.474045485 -0.0644956082 1.2044208
v -0.433525532 -0.100833975 1.20236754
v -0.414504737 -0.0864083394 1.20065117
v -0.385364801 -0.115052618 1.15557563
v -0.398568541 -0.11395742 1.1300106
v -0.373079628 -0.139127046 1.04900491
v -0.358366966 -0.139552251 1.06400514
v -0.371410787 -0.125787124 1.04246902
v -0.356363773 -0.121350706 1.06214786
v -0.370330065 -0.158357501 1.01254785
v -0.358615816 -0.148315102 1.01106858
v -0.439295977 -9.51867405E-05 1.13267946
v -0.422020972 0.0234912038 1.14271224
v -0.415976316 0.00673835166 1.03637958
v -0.402163267 0.0223021004 1.04764724
v -0.436507791 0.0124605363 1.00033522
v -0.418763995 0.0104304161 1.00044847
v -0.411525905 0.0152518796 1.14274645
v -0.424061358 0.00623964518 1.23746109
v -0.435853422 0.0140025513 1.23756528
v -0.39769125 0.0143739339 1.07001603
v -0.392889768 0.0135431932 1.04793119
v -0.404384464 -0.0105938278 1.2163527
v -0.47401613 -0.0312329065 1.02239192
v -0.481721669 -0.0539158806 1.02706575
v -0.473567337 -0.0307334196 0.981330693
v -0.475410819 -0.0340888835 0.963531613
v -0.461723894 -0.0341201834 0.963393986
v -0.418763995 0.0104304161 1.00044847
v -0.487709075 -0.0703113526 0.971938074
v -0.461723894 -0.0341201834 0.963393986
v -0.474677682 -0.0680555776 0.971363187
v -0.473784536 -0.100491673 0.978567779
v -0.429712296 -0.0839833692 1.02293253
v -0.459007323 -0.128870055 0.969287872
v -0.469906181 -0.13406837 0.970228374
v -0.487695843 -0.105072156 0.97960335
v -0.444704473 -0.141662896 0.964191616
v -0.430401593 -0.154455721 0.959095538
v -0.43181625 -0.0537849888 1.02005649
v -0.418361396 -0.0255865492 1.02573633
v -0.42233929 -0.110014044 1.02803636
v -0.486002028 -0.100876421 0.991831422
v -0.485865742 -0.0808241665 0.992283523
v -0.483368546 -0.0578390695 0.983878672
v -0.482275963 -0.0832872167 1.03328133
v -0.480624557 -0.10020519 1.0353868
v -0.453534931 -0.132972986 1.03097999
v -0.441998124 -0.140881926 1.03159988
v -0.439010113 -0.153832629 0.992686212
v -0.440914422 -0.161579847 0.960172236
v -0.358615816 -0.148315102 1.01106858
v -0.461624593 -0.135424778 0.990843952
v -0.48117578 -0.109018892 0.995494664
v -0.371410787 -0.125787124 1.04246902
v -0.413515836 -0.114566259 1.03290892
v -0.430401593 -0.154455721 0.959095538
v -0.440914422 -0.161579847 0.960172236
v -0.371302068 -0.10828121 1.11541903
v -0.385364801 -0.115052618 1.15557563
v -0.384018153 -0.101132832 1.15423465
v -0.356363773 -0.121350706 1.06214786
v -0.392989963 -0.0961991474 1.24352551
v -0.39306125 -0.0804156289 1.24345648
v -0.385738909 -0.0654928312 1.21566391
v -0.440914422 -0.161579847 0.960172236
v -0.358615816 -0.148315102 1.01106858
v -0.430401593 -0.154455721 0.959095538
v -0.461723894 -0.0341201834 0.963393986
v -0.418361396 -0.0255865492 1.02573633
v -0.418763995 0.0104304161 1.00044847
v -0.415976316 0.00673835166 1.03637958
v -0.418361396 -0.0255865492 1.02573633
v -0.415976316 0.00673835166 1.03637958
v -0.392889768 0.0135431932 1.04793119
v -0.435853422 0.0140025513 1.23756528
v -0.358615816 -0.148315102 1.01106858
v -0.371410787 -0.125787124 1.04246902
v -0.404861659 -0.0304160919 1.21780479
v -0.404384464 -0.0105938278 1.2163527
v -0.464282364 -0.139490962 0.991374254
v -0.453534931 -0.132972986 1.03097999
v -0.460623622 -0.158744469 1.03442097
v -0.484894961 -0.217169181 0.895123899
v -0.464282364 -0.139490962 0.991374254
v -0.461624593 -0.135424778 0.990843952
v -0.441998124 -0.140881926 1.03159988
v -0.460623622 -0.158744469 1.03442097
v -0.453534931 -0.132972986 1.03097999
v -0.439010113 -0.153832629 0.992686212
v -0.484894961 -0.217169181 0.895123899
v -0.484894961 -0.217169181 0.895123899
v -0.439010113 -0.153832629 0.992686212
v -0.464282364 -0.139490962 0.991374254
v -0.461624593 -0.135424778 0.990843952
v -0.481721669 -0.0539158806 1.02706575
v -0.510522962 -0.0185714997 1.01644182
v -0.47401613 -0.0312329065 1.02239192
v -0.498483062 -0.0476818681 0.981160939
v -0.483368546 -0.0578390695 0.983878672
v -0.534540653 -0.020544488 0.865360677
v -0.510522962 -0.0185714997 1.01644182
v -0.534540653 -0.020544488 0.865360677
v -0.481857091 -0.0232680384 0.979114592
v -0.47401613 -0.0312329065 1.02239192
v -0.534540653 -0.020544488 0.865360677
v -0.498483062 -0.0476818681 0.981160939
v -0.481857091 -0.0232680384 0.979114592
v -0.498483062 -0.0476818681 0.981160939
v -0.473567337 -0.0307334196 0.981330693
v -0.481857091 -0.0232680384 0.979114592
v -0.473567337 -0.0307334196 0.981330693
v -0.483368546 -0.0578390695 0.983878672
v -0.485865742 -0.0808241665 0.992283523
v -0.490429819 -0.0821544081 0.992160857
v -0.486002028 -0.100876421 0.991831422
v -0.541759312 -0.130283788 0.888373792
v -0.48117578 -0.109018892 0.995494664
v -0.541759312 -0.130283788 0.888373792
v -0.490429819 -0.0821544081 0.992160857
v -0.506362259 -0.0981823504 1.03371048
v -0.48117578 -0.109018892 0.995494664
v -0.480624557 -0.10020519 1.0353868
v -0.482275963 -0.0832872167 1.03328133
v -0.480624557 -0.10020519 1.0353868
v -0.506362259 -0.0981823504 1.03371048
v -0.541759312 -0.130283788 0.888373792
v -0.490429819 -0.0821544081 0.992160857
v -0.490429819 -0.0821544081 0.992160857
v -0.482275963 -0.0832872167 1.03328133
v -0.485865742 -0.0808241665 0.992283523
v -0.306728184 0.0707144737 1.3619771
v -0.290998995 0.0249011386 1.35257006
v -0.327676296 0.0595352538 1.38046753
v -0.294449002 -0.00591723807 1.36404991
v -0.349809796 0.036656145 1.41022551
v -0.366338998 0.00515323924 1.44154549
v -0.34534499 -0.0200682376 1.42679262
v -0.282399058 0.0493149646 1.33990991
v -0.274489373 0.0749413595 1.34091473
v -0.326339781 -0.0402285866 1.41194057
v -0.274834007 -0.0247613434 1.35781991
v -0.281285733 -0.0467106961 1.35810971
v -0.27740401 -0.0594964027 1.38796246
v -0.256045401 -0.0567000434 1.34167147
v -0.341475904 -0.0850252062 1.23455703
v -0.381802946 -0.064003773 1.27266228
v -0.350071549 -0.102866277 1.24988198
v -0.371765673 -0.0546373539 1.26358294
v -0.418809086 -0.0166243706 1.28613245
v -0.391103178 -0.0106358062 1.26713157
v -0.378470361 0.0319285281 1.26365936
v -0.373126507 -0.00263786153 1.35010993
v -0.339464724 -0.0562354177 1.32404137
v -0.337684005 -0.0512438081 1.4122957
v -0.364377826 -0.0267529935 1.42700589
v -0.34534499 -0.0200682376 1.42679262
v -0.366338998 0.00515323924 1.44154549
v -0.326339781 -0.0402285866 1.41194057
v -0.370911181 0.000377075194 1.38182533
v -0.368814617 0.041013632 1.41051185
v -0.338964581 0.0706044957 1.38096881
v -0.349809796 0.036656145 1.41022551
v -0.327676296 0.0595352538 1.38046753
v -0.313705802 0.0840326846 1.36218941
v -0.343946457 0.06809441 1.30772173
v -0.287107527 0.0904685259 1.2672081
v -0.277156383 0.090508543 1.34083843
v -0.306728184 0.0707144737 1.3619771
v -0.277156383 0.090508543 1.34083843
v -0.274489373 0.0749413595 1.34091473
v -0.366338998 0.00515323924 1.44154549
v -0.393060446 0.0027989652 1.44161713
v -0.393060446 0.0027989652 1.44161713
v -0.366338998 0.00515323924 1.44154549
v -0.337894738 0.0704909712 1.23887491
v -0.374892712 0.0577980988 1.26147163
v -0.332632452 0.0558981486 1.23767424
v -0.282839328 0.0678981096 1.27346122
v -0.287107527 0.0904685259 1.2672081
v -0.332632452 0.0558981486 1.23767424
v -0.287107527 0.0904685259 1.2672081
v -0.274489373 0.0749413595 1.34091473
v -0.277156383 0.090508543 1.34083843
v -0.282839328 0.0678981096 1.27346122
v -0.281509936 0.0482113846 1.27831328
v -0.284888744 -0.0733507872 1.38938642
v -0.265993088 -0.100148678 1.28794527
v -0.27740401 -0.0594964027 1.38796246
v -0.350071549 -0.102866277 1.24988198
v -0.341475904 -0.0850252062 1.23455703
v -0.260074854 -0.086695537 1.28183579
v -0.27740401 -0.0594964027 1.38796246
v -0.284888744 -0.0733507872 1.38938642
v -0.276039124 -0.0673398674 1.26212978
v -0.341475904 -0.0850252062 1.23455703
v -0.27740401 -0.0594964027 1.38796246
v -0.276740998 -0.0548236556 1.29679406
v -0.276039124 -0.0673398674 1.26212978
v -0.47401613 -0.0312329065 1.02239192
v -0.481857091 -0.0232680384 0.979114592
v -0.473567337 -0.0307334196 0.981330693
v -0.276740998 -0.0548236556 1.29679406
v -0.276039124 -0.0673398674 1.26212978
v -0.27740401 -0.0594964027 1.38796246
v -0.276740998 -0.0548236556 1.29679406
v -0.453534931 -0.132972986 1.03097999
v -0.461624593 -0.135424778 0.990843952
v -0.469906181 -0.13406837 0.970228374
v -0.406162202 -0.0122733396 1.01750314
v -0.392889768 0.0135431932 1.04793119
v -0.418361396 -0.0255865492 1.02573633
v -0.406162202 -0.0122733396 1.01750314
v -0.392889768 0.0135431932 1.04793119
v -0.371410787 -0.125787124 1.04246902
v -0.334893912 -0.123741232 1.04739654
v -0.338907421 -0.10537646 1.04347622
vt 0.673641503 0.884400606
vt 0.695658326 0.983790338
vt 0.691883504 0.887841761
vt 0.679627478 0.98814863
vt 0.665632546 0.853815794
vt 0.661115587 0.815178871
vt 0.667198658 0.798783362
vt 0.708754599 0.87476337
vt 0.695658326 0.983790338
vt 0.71631223 0.951763868
vt 0.726625681 0.866342127
vt 0.683628082 0.785851479
vt 0.659570813 0.738360703
vt 0.669037998 0.728088796
vt 0.683628082 0.785851479
vt 0.682987273 0.71977365
vt 0.675306678 0.686418176
vt 0.675306678 0.686418176
vt 0.708524466 0.771890759
vt 0.692896187 0.778555095
vt 0.703267395 0.702598333
vt 0.691091418 0.708197892
vt 0.691583335 0.778192997
vt 0.688726246 0.702587903
vt 0.700924635 0.665071428
vt 0.713697553 0.76522553
vt 0.703267395 0.702598333
vt 0.709666729 0.705758393
vt 0.700924635 0.665071428
vt 0.703267395 0.702598333
vt 0.700924635 0.665071428
vt 0.697518528 0.828956604
vt 0.691404521 0.786914647
vt 0.691404521 0.786914647
vt 0.683628082 0.785851479
vt 0.682987273 0.71977365
vt 0.688828647 0.722716272
vt 0.675306678 0.686418176
vt 0.700924635 0.665071428
vt 0.68957895 0.69088304
vt 0.769981384 0.837490737
vt 0.740491986 0.936547339
vt 0.764661431 0.927795172
vt 0.745798886 0.855490506
vt 0.778705716 0.859191597
vt 0.777665555 0.935605705
vt 0.786723435 0.800035357
vt 0.790303946 0.832093775
vt 0.799361169 0.85823524
vt 0.796810269 0.889272332
vt 0.817253888 0.94573015
vt 0.771827519 0.749195695
vt 0.749394357 0.748435199
vt 0.767164767 0.6683743
vt 0.750612438 0.670738339
vt 0.744789958 0.749943316
vt 0.744381309 0.676371396
vt 0.784666657 0.742995143
vt 0.774646223 0.674718201
vt 0.753756762 0.634549439
vt 0.753756762 0.634549439
vt 0.753756762 0.634549439
vt 0.743543088 0.804939985
vt 0.742914557 0.749875844
vt 0.736586452 0.75314641
vt 0.717838287 0.757234395
vt 0.733878195 0.670999169
vt 0.713238478 0.679831326
vt 0.715287924 0.758612096
vt 0.710464656 0.700857282
vt 0.742914557 0.749875844
vt 0.733878195 0.670999169
vt 0.739611089 0.686035693
vt 0.719594538 0.816051364
vt 0.713697553 0.76522553
vt 0.733878195 0.670999169
vt 0.721575618 0.635917306
vt 0.721575618 0.635917306
vt 0.733878195 0.670999169
vt 0.713238478 0.679831326
vt 0.710464656 0.700857282
vt 0.760879397 0.626889467
vt 0.762974501 0.530473828
vt 0.774193466 0.612252414
vt 0.773603439 0.535182178
vt 0.777435482 0.49579981
vt 0.78662473 0.498718888
vt 0.787219346 0.537442923
vt 0.774193466 0.612252414
vt 0.80070442 0.602650344
vt 0.812814116 0.536759138
vt 0.814894557 0.563414633
vt 0.849068761 0.534799397
vt 0.847813904 0.573497415
vt 0.873783529 0.543239832
vt 0.872368395 0.570746899
vt 0.874888599 0.51169914
vt 0.884610534 0.524947286
vt 0.888413429 0.552703798
vt 0.872368395 0.570746899
vt 0.853721797 0.503674507
vt 0.82816726 0.494787604
vt 0.804043531 0.494762123
vt 0.838697195 0.436607689
vt 0.855430007 0.438466072
vt 0.842390537 0.375624299
vt 0.859296143 0.379601032
vt 0.865978122 0.385226667
vt 0.859032512 0.447875381
vt 0.856786788 0.326196343
vt 0.856786788 0.326196343
vt 0.884563506 0.464171678
vt 0.865377903 0.453262627
vt 0.890703619 0.395438761
vt 0.874622703 0.382489949
vt 0.899172187 0.396315932
vt 0.896597803 0.467976898
vt 0.887520671 0.345422357
vt 0.887520671 0.345422357
vt 0.872027397 0.379104435
vt 0.860800207 0.449135184
vt 0.850935638 0.500494123
vt 0.853721797 0.503674507
vt 0.887520671 0.345422357
vt 0.850935638 0.500494123
vt 0.888413429 0.552703798
vt 0.890614092 0.558400512
vt 0.887208998 0.612152517
vt 0.849815607 0.612016916
vt 0.882333279 0.693364501
vt 0.933376372 0.582844853
vt 0.906299889 0.571026981
vt 0.913664341 0.636647284
vt 0.872368395 0.570746899
vt 0.894550681 0.558409572
vt 0.917884171 0.528577626
vt 0.931447923 0.531631947
vt 0.925589859 0.475492686
vt 0.909390152 0.518371344
vt 0.925589859 0.475492686
vt 0.906424999 0.506318748
vt 0.925589859 0.475492686
vt 0.872368395 0.570746899
vt 0.893839359 0.548727632
vt 0.906424999 0.506318748
vt 0.893839359 0.548727632
vt 0.882333279 0.693364501
vt 0.802725017 0.458163589
vt 0.788537681 0.458233446
vt 0.779770613 0.454191238
vt 0.810731232 0.395760834
vt 0.799718201 0.394054741
vt 0.791705191 0.388132989
vt 0.812906504 0.357624292
vt 0.812029243 0.38762477
vt 0.810731232 0.395760834
vt 0.804336905 0.450148702
vt 0.812906504 0.357624292
vt 0.80349791 0.493917495
vt 0.809302092 0.443495214
vt 0.828576446 0.444108248
vt 0.816987514 0.386615068
vt 0.80349791 0.493917495
vt 0.805883586 0.441991687
vt 0.810955942 0.379951447
vt 0.816987514 0.386615068
vt 0.832045317 0.390453875
vt 0.834467351 0.384832978
vt 0.828902185 0.443798393
vt 0.832600534 0.340672374
vt 0.832600534 0.340672374
vt 0.826470554 0.495758176
vt 0.802725017 0.458163589
vt 0.80349791 0.493917495
vt 0.826470554 0.495758176
vt 0.82816726 0.494787604
vt 0.831454158 0.438540131
vt 0.83599788 0.38069436
vt 0.856786788 0.326196343
vt 0.817253888 0.94573015
vt 0.816347539 0.888589442
vt 0.818264186 0.879035771
vt 0.837883592 0.899429917
vt 0.817253888 0.94573015
vt 0.837128341 0.825493455
vt 0.84979862 0.836209059
vt 0.81665206 0.836098671
vt 0.799361169 0.85823524
vt 0.799879789 0.822579324
vt 0.831153393 0.776527643
vt 0.81165719 0.76551497
vt 0.853711009 0.722699404
vt 0.837148011 0.818682134
vt 0.843731821 0.97405833
vt 0.842263103 0.77611959
vt 0.853711009 0.722699404
vt 0.854046702 0.778192759
vt 0.853711009 0.722699404
vt 0.837148011 0.818682134
vt 0.837128341 0.825493455
vt 0.837148011 0.818682134
vt 0.837148011 0.818682134
vt 0.837128341 0.825493455
vt 0.893839359 0.548727632
vt 0.872368395 0.570746899
vt 0.890614092 0.558400512
vt 0.906258941 0.142291591
vt 0.957367778 0.0919404104
vt 0.915790915 0.0476532429
vt 0.964801669 0.172846332
vt 0.961976469 0.218135536
vt 0.907507956 0.212997496
vt 0.871889234 0.102749698
vt 0.881414175 0.154815704
vt 0.830502331 0.118173264
vt 0.83521235 0.172384903
vt 0.881755054 0.212245837
vt 0.837519825 0.222433165
vt 0.782018483 0.126063123
vt 0.783835173 0.191794068
vt 0.783113658 0.255820453
vt 0.710527241 0.197181776
vt 0.701950908 0.290855736
vt 0.709497869 0.11892923
vt 0.65426445 0.194804788
vt 0.652217567 0.133021876
vt 0.652206838 0.278924763
vt 0.691518962 0.0647948757
vt 0.649440885 0.0661317855
vt 0.854870319 0.308093816
vt 0.807231128 0.315586239
vt 0.912131488 0.273694992
vt 0.743534982 0.372941852
vt 0.718874097 0.0519897379
vt 0.648590982 0.339169294
vt 0.638433754 0.287778169
vt 0.644092917 0.195380449
vt 0.639841259 0.150531113
vt 0.65426445 0.194804788
vt 0.652206838 0.278924763
vt 0.627559662 0.319433272
vt 0.648590982 0.339169294
vt 0.629958093 0.106681935
vt 0.624284744 0.047574047
vt 0.6160357 0.0825520158
vt 0.649440885 0.0661317855
vt 0.777922571 0.0161706172
vt 0.808852136 0.0541707799
vt 0.863999486 0.0679851547
vt 0.777922571 0.0161706172
vt 0.863999486 0.0679851547
vt 0.915790915 0.0476532429
vt 0.235685691 0.219830275
vt 0.277748376 0.137571305
vt 0.226188794 0.0923604444
vt 0.28646332 0.230488345
vt 0.256591588 0.0667550787
vt 0.224841863 0.0286870785
vt 0.259637833 0.0433680788
vt 0.259109706 0.342789769
vt 0.298458964 0.281103164
vt 0.216743276 0.275978893
vt 0.161936864 0.0560642332
vt 0.294922203 0.0492332503
vt 0.292162985 0.0789583325
vt 0.305435866 0.0895052627
vt 0.259637833 0.0433680788
vt 0.225295022 0.0177068394
vt 0.161936864 0.0560642332
vt 0.277748376 0.137571305
vt 0.29283303 0.141372561
vt 0.28646332 0.230488345
vt 0.300962806 0.221774206
vt 0.312170506 0.269175798
vt 0.29283303 0.141372561
vt 0.300962806 0.221774206
vt 0.140763938 0.149415061
vt 0.178355873 0.252641916
vt 0.169856504 0.129083261
vt 0.142703578 0.0848105848
vt 0.105467878 0.0692222789
vt 0.0629525259 0.0722203106
vt 0.0788495988 0.164660737
vt 0.0169143826 0.144115642
vt 0.0382119492 0.0572396293
vt 0.0562005714 0.210941955
vt 0.125203714 0.0244025104
vt 0.649437428 0.612006962
vt 0.640945494 0.468750238
vt 0.629732013 0.604204118
vt 0.660384297 0.479054153
vt 0.623250484 0.527757645
vt 0.565610051 0.652425647
vt 0.611015618 0.403328866
vt 0.627618253 0.391030997
vt 0.656070292 0.444000214
vt 0.551605761 0.379079551
vt 0.598415911 0.285027921
vt 0.555761576 0.269660324
vt 0.537343264 0.490908593
vt 0.599869311 0.656891108
vt 0.637438834 0.641524434
vt 0.598415911 0.285027921
vt 0.615393698 0.281538546
vt 0.605339944 0.170340702
vt 0.531335533 0.32482484
vt 0.605339944 0.170340702
vt 0.583174646 0.184975415
vt 0.575257301 0.142375678
vt 0.497084171 0.491521329
vt 0.499593943 0.436281681
vt 0.531335533 0.32482484
vt 0.452048361 0.499034345
vt 0.461982131 0.440055162
vt 0.443271577 0.444001287
vt 0.412179023 0.497452915
vt 0.403728962 0.324819118
vt 0.412567645 0.552799344
vt 0.452597082 0.537861526
vt 0.36031431 0.543979347
vt 0.495946437 0.529067993
vt 0.376268685 0.360368073
vt 0.320378661 0.420574337
vt 0.281110018 0.55949825
vt 0.329912484 0.638837814
vt 0.326521218 0.315201253
vt 0.367934495 0.210633546
vt 0.319072038 0.66830039
vt 0.273804396 0.576690733
vt 0.271827281 0.547302902
vt 0.30898717 0.416160315
vt 0.315363348 0.316209048
vt 0.334972233 0.186500147
vt 0.323382527 0.188037798
vt 0.320378661 0.420574337
vt 0.403728962 0.324819118
vt 0.334972233 0.186500147
vt 0.357031584 0.176236868
vt 0.333934247 0.163471937
vt 0.334972233 0.186500147
vt 0.349811226 0.10705819
vt 0.615393698 0.281538546
vt 0.622002244 0.173212543
vt 0.0977642164 0.312011451
vt 0.0489965454 0.283660978
vt 0.0554455034 0.337747693
vt 0.0790137947 0.250466734
vt 0.0479126163 0.361787289
vt 0.107249454 0.336816728
vt 0.111523874 0.403188288
vt 0.165504992 0.324275255
vt 0.158647969 0.303682804
vt 0.114645407 0.309501797
vt 0.165145516 0.402961701
vt 0.159853235 0.424865365
vt 0.116458707 0.440654069
vt 0.0783178881 0.449436873
vt 0.0684439912 0.429536134
vt 0.0363795757 0.519625783
vt 0.0475767553 0.565853119
vt 0.0255324114 0.717584372
vt 0.0146307722 0.684985995
vt 0.0141183902 0.72779417
vt 0.00179417036 0.697345316
vt 0.0272835344 0.796319008
vt 0.0156506635 0.792912602
vt 0.196011499 0.500470638
vt 0.213465095 0.462446213
vt 0.246198684 0.643081725
vt 0.257004499 0.606363595
vt 0.242484465 0.719926536
vt 0.256579638 0.704338968
vt 0.223312974 0.451708972
vt 0.176742896 0.313653916
vt 0.165504992 0.324275255
vt 0.256304979 0.563293457
vt 0.266874522 0.596210003
vt 0.205420196 0.320716143
vt 0.190591082 0.721301258
vt 0.172148526 0.727175117
vt 0.205012992 0.791472435
vt 0.207098067 0.826790571
vt 0.219599396 0.824717164
vt 0.257010341 0.725329995
vt 0.174447402 0.828765571
vt 0.206697777 0.864125788
vt 0.174566567 0.854091227
vt 0.146754563 0.851006925
vt 0.138453722 0.965824425
vt 0.11958871 0.849976361
vt 0.122633725 0.839643359
vt 0.146677405 0.82336247
vt 0.105115905 0.841347039
vt 0.092413336 0.829593062
vt 0.170200959 0.967657685
vt 0.19291918 0.999945521
vt 0.0991533473 0.965924144
vt 0.148552746 0.800409138
vt 0.16289933 0.797802866
vt 0.181584388 0.801779926
vt 0.147969738 0.730987787
vt 0.134860605 0.728132308
vt 0.100759171 0.748902023
vt 0.0881688669 0.74398905
vt 0.0916724652 0.793796539
vt 0.0951211527 0.832050204
vt 0.0205374528 0.850765288
vt 0.116892308 0.806626439
vt 0.140730619 0.791952848
vt 0.0269948058 0.938023567
vt 0.0729659945 0.961386383
vt 0.092413336 0.829593062
vt 0.0951211527 0.832050204
vt 0.0132853799 0.578317225
vt 0.0363795757 0.519625783
vt 0.0249941684 0.511228144
vt 5.02519179E-05 0.672357261
vt 0.0479126163 0.361787289
vt 0.0351253636 0.353702098
vt 0.014198727 0.390483797
vt 0.0951211527 0.832050204
vt 0.0205374528 0.850765288
vt 0.092413336 0.829593062
vt 0.219599396 0.824717164
vt 0.281865329 0.782655895
vt 0.257010341 0.725329995
vt 0.288152248 0.725084424
vt 0.256614268 0.703124464
vt 0.246198684 0.643081725
vt 0.266031772 0.617871165
vt 0.165504992 0.324275255
vt 0.0156506635 0.792912602
vt 0.0141183902 0.72779417
vt 0.131769106 0.245780438
vt 0.148746073 0.249496862
vt 0.720848024 0.502047062
vt 0.747350454 0.535841048
vt 0.756540775 0.499381304
vt 0.674264669 0.336314261
vt 0.720848024 0.502047062
vt 0.719488442 0.508684516
vt 0.951553345 0.675283134
vt 0.975010574 0.691132963
vt 0.958223462 0.652045906
vt 0.941381693 0.751375794
vt 0.969753981 0.984073043
vt 0.969753981 0.984073043
vt 0.941381693 0.751375794
vt 0.915284932 0.770217299
vt 0.91396451 0.761239469
vt 0.968160808 0.272301018
vt 0.999998927 0.332660288
vt 0.990464568 0.260971904
vt 0.957480669 0.370309204
vt 0.948346376 0.338960767
vt 0.95596981 0.61121583
vt 0.532484651 0.0764730573
vt 0.481838137 0.28519097
vt 0.545113862 0.1435408
vt 0.56165719 0.0843674615
vt 0.95596981 0.61121583
vt 0.957480669 0.370309204
vt 0.928525329 0.381377578
vt 0.957480669 0.370309204
vt 0.92684257 0.363408446
vt 0.928525329 0.381377578
vt 0.92684257 0.363408446
vt 0.948346376 0.338960767
vt 0.854548216 0.853161156
vt 0.857718229 0.859673381
vt 0.871477664 0.835298538
vt 0.959587574 0.985363185
vt 0.874921143 0.817131817
vt 0.959587574 0.985363185
vt 0.857718229 0.859673381
vt 0.887449205 0.730600655
vt 0.874921143 0.817131817
vt 0.863483131 0.742295086
vt 0.862568378 0.709527373
vt 0.863483131 0.742295086
vt 0.719815791 0.564525485
vt 0.662529826 0.362832278
vt 0.685091138 0.547704995
vt 0.685091138 0.547704995
vt 0.705488324 0.596414447
vt 0.682947099 0.553265452
vt 0.449400157 0.273599386
vt 0.466233373 0.208269089
vt 0.42954734 0.252761066
vt 0.461119294 0.159977183
vt 0.404404283 0.211590499
vt 0.382109582 0.156665355
vt 0.403008044 0.123001449
vt 0.475323677 0.246628538
vt 0.477331072 0.285855681
vt 0.422462404 0.0970010459
vt 0.476256102 0.133328363
vt 0.474761128 0.101406209
vt 0.461408645 0.0605814829
vt 0.497141451 0.0863728896
vt 0.381460398 0.988829672
vt 0.42027536 0.912514269
vt 0.374149472 0.945873797
vt 0.423140883 0.944407701
vt 0.467754662 0.892167568
vt 0.471566498 0.946416318
vt 0.519610882 0.94993645
vt 0.475167871 0.754133046
vt 0.408190072 0.788637698
vt 0.420448333 0.626892984
vt 0.4511545 0.6045416
vt 0.439979911 0.572333634
vt 0.481868416 0.557641864
vt 0.413162053 0.601345241
vt 0.476617366 0.693373382
vt 0.513429344 0.634026289
vt 0.549642444 0.682872891
vt 0.527256429 0.609606743
vt 0.55889976 0.660115719
vt 0.57716465 0.706526756
vt 0.555338919 0.817641437
vt 0.620019436 0.864847183
vt 0.614386559 0.72847259
vt 0.583832502 0.682788312
vt 0.614386559 0.72847259
vt 0.618445396 0.700345337
vt 0.481868416 0.557641864
vt 0.480361611 0.583008349
vt 0.480361611 0.583008349
vt 0.481868416 0.557641864
vt 0.578738153 0.942340553
vt 0.540868104 0.921380639
vt 0.574321568 0.971684456
vt 0.634208024 0.897423744
vt 0.620019436 0.864847183
vt 0.587560236 0.963923156
vt 0.620019436 0.864847183
vt 0.628670216 0.724893749
vt 0.614386559 0.72847259
vt 0.640467882 0.848546743
vt 0.658092678 0.836142898
vt 0.365488917 0.646914721
vt 0.32259059 0.818258345
vt 0.36080122 0.619464457
vt 0.374149472 0.945873797
vt 0.355034113 0.971346796
vt 0.309361935 0.821647108
vt 0.352169186 0.633938968
vt 0.365488917 0.646914721
vt 0.304773659 0.880707026
vt 0.355034113 0.971346796
vt 0.352169186 0.633938968
vt 0.293959349 0.756730258
vt 0.280165762 0.818952739
vt 0.56165719 0.0843674615
vt 0.545113862 0.1435408
vt 0.55330801 0.144191846
vt 0.565610051 0.652425647
vt 0.579294682 0.591579437
vt 0.621800303 9.55889618E-07
vt 0.691518962 0.0647948757
vt 0.100759171 0.748902023
vt 0.116892308 0.806626439
vt 0.122633725 0.839643359
vt 0.949304461 0.239614874
vt 0.918807328 0.275195777
vt 0.951114058 0.260564953
vt 0.949304461 0.239614874
vt 0.918807328 0.275195777
vt 0.575257301 0.142375678
vt 0.605339944 0.170340702
vt 0.60965842 0.136756107
vn -0.299124002 0.914714515 -0.271702528
vn 0.179470152 0.822375536 -0.539897144
vn -0.79511404 0.578542173 0.181886271
vn -0.189776495 0.978381515 -0.0821858421
vn 0.104327925 0.918844879 -0.380578369
vn 0.0347418748 0.960794806 -0.275075257
vn -0.811301827 0.554147899 -0.186304688
vn -0.957372308 0.0648464039 0.281483799
vn 0.179470152 0.822375536 -0.539897144
vn -0.449476659 -0.0571171232 -0.891464114
vn -0.948858559 -0.0966159776 0.300553977
vn -0.77593565 -0.630452633 -0.0212886166
vn 0.125973746 0.913255811 -0.387420237
vn -0.675151229 0.436813444 -0.594444931
vn -0.77593565 -0.630452633 -0.0212886166
vn -0.643369734 -0.66497463 -0.379320443
vn 0.615157008 -0.133427262 -0.777032197
vn 0.615157008 -0.133427262 -0.777032197
vn -0.674051821 -0.737432599 0.0429807343
vn -0.901808262 0.421184331 -0.0966725871
vn -0.571032405 -0.769456446 -0.286109537
vn -0.871897697 0.186230376 -0.452893496
vn -0.337275445 0.926948965 -0.164350167
vn -0.381101459 0.833654463 -0.399727345
vn 0.477211148 -0.0961061567 -0.873517692
vn 0.217955694 -0.971340001 0.0948360115
vn -0.571032405 -0.769456446 -0.286109537
vn 0.222810566 -0.974811971 -0.00984747335
vn 0.477211148 -0.0961061567 -0.873517692
vn -0.571032405 -0.769456446 -0.286109537
vn 0.477211148 -0.0961061567 -0.873517692
vn -0.2447249 -0.104827195 -0.963909209
vn 0.199579328 -0.973634601 0.110470779
vn 0.199579328 -0.973634601 0.110470779
vn -0.77593565 -0.630452633 -0.0212886166
vn -0.643369734 -0.66497463 -0.379320443
vn 0.138877794 -0.990201533 0.0146285808
vn 0.615157008 -0.133427262 -0.777032197
vn 0.477211148 -0.0961061567 -0.873517692
vn 0.515904248 0.820160806 -0.247343794
vn -0.516030788 -0.823726773 0.234917551
vn -0.542506874 -0.106972903 -0.833212554
vn -0.610177517 0.618125141 -0.495585144
vn -0.875767767 -0.293475091 0.383279473
vn -0.218361288 -0.9253546 0.309898466
vn 0.0348771363 0.527377009 0.848915279
vn 0.548734486 -0.835989654 0.00342045887
vn 0.204312205 -0.918597043 -0.338284016
vn -0.317771673 -0.786608875 -0.52940309
vn -0.376027077 -0.804799676 0.459239781
vn 0.828009665 -0.53246963 0.175715968
vn -0.47494188 -0.861567557 0.179252833
vn -0.973535955 0.199841425 -0.110864758
vn -0.38624683 -0.880733907 -0.274082512
vn -0.879324138 -0.0560790449 -0.472910345
vn -0.388362676 0.873614013 -0.29321152
vn -0.578368604 0.685974598 -0.441507131
vn 0.405428767 -0.891102552 0.203871861
vn 0.439216167 -0.89661181 -0.0563605204
vn 0.536405802 0.102900647 -0.837663531
vn 0.536405802 0.102900647 -0.837663531
vn 0.536405802 0.102900647 -0.837663531
vn 0.248013526 -0.304741353 -0.919577122
vn 0.342020363 -0.928578973 0.144094065
vn -0.642681539 -0.763954997 0.0577327758
vn -0.930625618 0.351489484 -0.101937316
vn -0.451393783 -0.837496161 -0.307967126
vn -0.842849851 0.240950227 -0.481193453
vn -0.304008573 0.93529129 -0.181132659
vn -0.258711755 0.927868664 -0.268566757
vn 0.342020363 -0.928578973 0.144094065
vn -0.451393783 -0.837496161 -0.307967126
vn 0.440441072 -0.897640824 0.0158954039
vn -0.00889201649 -0.217388794 -0.976044655
vn 0.217955694 -0.971340001 0.0948360115
vn -0.451393783 -0.837496161 -0.307967126
vn 0.507417202 0.0620432422 -0.85946393
vn 0.507417202 0.0620432422 -0.85946393
vn -0.451393783 -0.837496161 -0.307967126
vn -0.842849851 0.240950227 -0.481193453
vn -0.258711755 0.927868664 -0.268566757
vn -0.189776495 0.978381515 -0.0821858421
vn -0.299124002 0.914714515 -0.271702528
vn 0.486908525 0.843183637 -0.227950484
vn 0.373797953 0.801873684 -0.466126382
vn 0.104327925 0.918844879 -0.380578369
vn 0.677463055 0.52911216 -0.510964096
vn 0.699919879 0.433435112 -0.567667365
vn 0.486908525 0.843183637 -0.227950484
vn 0.780090988 0.509760737 -0.362769783
vn 0.713858187 0.32686311 -0.619327962
vn 0.659497619 0.399877936 -0.636522174
vn 0.834252536 -0.033953853 -0.550336063
vn 0.699581385 0.068245627 -0.711286426
vn 0.77925092 -0.512690544 -0.360439211
vn 0.363746166 0.0103540011 -0.931440473
vn 0.907838941 -0.38679567 -0.161918595
vn 0.548734486 -0.835989654 0.00342045887
vn 0.204312205 -0.918597043 -0.338284016
vn 0.363746166 0.0103540011 -0.931440473
vn 0.796182573 -0.00768840453 -0.605007708
vn 0.79343605 0.213076293 -0.570138395
vn 0.762516737 0.346004963 -0.546670675
vn 0.529494166 0.767684698 -0.360965699
vn 0.938067555 -0.328174114 -0.111044988
vn 0.536704242 0.828756511 -0.158464953
vn 0.990423441 -0.137807697 0.00839355122
vn 0.440441072 -0.897640824 0.0158954039
vn 0.342020363 -0.928578973 0.144094065
vn 0.507417202 0.0620432422 -0.85946393
vn 0.507417202 0.0620432422 -0.85946393
vn 0.963290393 -0.240078419 -0.120141357
vn 0.403472781 0.78856796 -0.464079916
vn 0.98921448 -0.140539467 -0.0412724316
vn 0.262362212 0.930371165 -0.256077349
vn 0.439216167 -0.89661181 -0.0563605204
vn 0.405428767 -0.891102552 0.203871861
vn 0.536405802 0.102900647 -0.837663531
vn 0.536405802 0.102900647 -0.837663531
vn -0.578368604 0.685974598 -0.441507131
vn -0.388362676 0.873614013 -0.29321152
vn 0.248013526 -0.304741353 -0.919577122
vn 0.796182573 -0.00768840453 -0.605007708
vn 0.536405802 0.102900647 -0.837663531
vn 0.248013526 -0.304741353 -0.919577122
vn 0.204312205 -0.918597043 -0.338284016
vn -0.317771673 -0.786608875 -0.52940309
vn 0.92079854 0.220981553 -0.321398944
vn 0.807338834 0.356029689 -0.470581532
vn 0.960373402 0.137719706 -0.242314085
vn 0.92191422 -0.275296926 0.272554189
vn 0.820366085 0.543605387 -0.177461982
vn 0.687078595 -0.515945077 0.511589348
vn 0.363746166 0.0103540011 -0.931440473
vn -0.249394134 0.550800562 -0.79650563
vn 0.677129567 0.735815167 -0.00846239645
vn 0.981752276 -0.0516676307 0.18301104
vn 0.417718381 0.171064138 -0.892327547
vn -0.473677695 0.679221272 -0.56061393
vn 0.417718381 0.171064138 -0.892327547
vn -0.796019375 0.0402253605 -0.603932977
vn 0.417718381 0.171064138 -0.892327547
vn 0.363746166 0.0103540011 -0.931440473
vn -0.633176625 0.0194359832 -0.773763239
vn -0.796019375 0.0402253605 -0.603932977
vn -0.633176625 0.0194359832 -0.773763239
vn 0.960373402 0.137719706 -0.242314085
vn 0.851115942 -0.523618042 -0.0377588309
vn 0.777328551 0.570761621 -0.264558852
vn 0.0347418748 0.960794806 -0.275075257
vn 0.906373084 -0.384601921 0.174840406
vn 0.756733418 0.65152669 -0.0535487644
vn 0.125973746 0.913255811 -0.387420237
vn 0.615157008 -0.133427262 -0.777032197
vn 0.138877794 -0.990201533 0.0146285808
vn 0.906373084 -0.384601921 0.174840406
vn 0.199579328 -0.973634601 0.110470779
vn 0.615157008 -0.133427262 -0.777032197
vn -0.2447249 -0.104827195 -0.963909209
vn 0.346575201 0.884316981 -0.312840372
vn 0.897155643 -0.413362622 -0.155702204
vn 0.515904248 0.820160806 -0.247343794
vn -0.2447249 -0.104827195 -0.963909209
vn -0.337275445 0.926948965 -0.164350167
vn -0.381101459 0.833654463 -0.399727345
vn 0.515904248 0.820160806 -0.247343794
vn 0.937193513 -0.348727554 0.00758370524
vn 0.222810566 -0.974811971 -0.00984747335
vn 0.217955694 -0.971340001 0.0948360115
vn 0.477211148 -0.0961061567 -0.873517692
vn 0.477211148 -0.0961061567 -0.873517692
vn -0.00889201649 -0.217388794 -0.976044655
vn 0.851115942 -0.523618042 -0.0377588309
vn -0.2447249 -0.104827195 -0.963909209
vn -0.00889201649 -0.217388794 -0.976044655
vn 0.79343605 0.213076293 -0.570138395
vn -0.304008573 0.93529129 -0.181132659
vn -0.258711755 0.927868664 -0.268566757
vn 0.507417202 0.0620432422 -0.85946393
vn 0.828009665 -0.53246963 0.175715968
vn -0.240894869 -0.886233509 0.395676404
vn -0.208711267 -0.912090719 0.352888197
vn 0.687078595 -0.515945077 0.511589348
vn 0.828009665 -0.53246963 0.175715968
vn 0.296526939 -0.9549914 0.00795897096
vn 0.92191422 -0.275296926 0.272554189
vn -0.686939061 -0.70237118 -0.186519057
vn -0.317771673 -0.786608875 -0.52940309
vn -0.633176625 0.0194359832 -0.773763239
vn -0.432087719 -0.713359118 -0.551741779
vn -0.796019375 0.0402253605 -0.603932977
vn 0.417718381 0.171064138 -0.892327547
vn 0.323244572 -0.902647972 -0.284146935
vn 0.960373402 0.137719706 -0.242314085
vn 0.54878366 -0.815860093 -0.182232887
vn 0.417718381 0.171064138 -0.892327547
vn 0.981752276 -0.0516676307 0.18301104
vn 0.417718381 0.171064138 -0.892327547
vn 0.323244572 -0.902647972 -0.284146935
vn 0.296526939 -0.9549914 0.00795897096
vn 0.323244572 -0.902647972 -0.284146935
vn 0.323244572 -0.902647972 -0.284146935
vn 0.296526939 -0.9549914 0.00795897096
vn -0.633176625 0.0194359832 -0.773763239
vn 0.363746166 0.0103540011 -0.931440473
vn -0.317771673 -0.786608875 -0.52940309
vn 0.864979625 0.464053035 -0.190958425
vn 0.807338834 0.356029689 -0.470581532
vn 0.960373402 0.137719706 -0.242314085
vn 0.780090988 0.509760737 -0.362769783
vn 0.486908525 0.843183637 -0.227950484
vn 0.916494071 0.103924707 -0.386313677
vn 0.799880862 0.489607841 -0.347094804
vn 0.843066096 0.360811651 -0.398816466
vn 0.714276075 0.495604455 -0.494151801
vn 0.78447032 0.370765686 -0.497130781
vn 0.937468112 0.0729742274 -0.340335697
vn 0.867140889 0.1007457 -0.487767309
vn 0.618824899 0.517302215 -0.591146648
vn 0.748787045 0.260325044 -0.609548092
vn 0.815926552 -0.143002644 -0.560191095
vn 0.811258674 0.227700874 -0.53852731
vn 0.925519109 0.323307127 -0.19719775
vn 0.985613286 0.158259675 0.059332259
vn 0.949294388 0.200783312 0.241921872
vn 0.881153882 -0.316425115 0.351344347
vn 0.759022892 0.530724049 0.377115667
vn 0.943435669 -0.329444081 0.0373617075
vn 0.579158187 -0.743323803 0.334732234
vn 0.878863871 -0.325006694 -0.349240661
vn 0.764247894 -0.429712504 -0.480907857
vn 0.593773663 -0.472014546 -0.651640356
vn 0.866621733 -0.487068266 -0.108310878
vn 0.633161962 0.773166239 0.0363293327
vn 0.827821732 0.167704314 0.535337687
vn 0.311038911 -0.633564591 0.708414197
vn 0.446248829 0.200928807 0.872060597
vn 0.553225458 0.12725696 0.823254049
vn 0.949294388 0.200783312 0.241921872
vn 0.759022892 0.530724049 0.377115667
vn 0.579462647 -0.109536313 0.807604313
vn 0.827821732 0.167704314 0.535337687
vn 0.597868145 -0.115847059 0.793179154
vn 0.683091104 0.339755744 0.646492541
vn 0.6304003 -0.021252647 0.775979221
vn 0.579158187 -0.743323803 0.334732234
vn 0.556259215 0.453723073 -0.696211874
vn 0.470797479 0.416793972 -0.777581155
vn 0.743508399 0.49334234 -0.451451629
vn 0.556259215 0.453723073 -0.696211874
vn 0.743508399 0.49334234 -0.451451629
vn 0.960373402 0.137719706 -0.242314085
vn 0.216627404 0.00209105434 0.976252079
vn -0.0845858753 -0.852875769 -0.515216589
vn 0.78020519 -0.022622617 0.625114441
vn -0.478464186 -0.776947498 -0.409175515
vn -0.622866452 -0.779004753 0.0720345825
vn -0.737709641 -0.647119761 0.19240725
vn -0.623385608 0.779595971 0.0601692498
vn -0.0116193984 -0.992960751 0.117872521
vn -0.552829981 -0.739458621 -0.384161294
vn -0.132008016 0 0.991248608
vn 0.377763987 0.0678064302 0.92341578
vn -0.569225371 0.577219009 -0.585491836
vn -0.569225192 -0.577219188 -0.585491776
vn -0.569225371 0.577219009 -0.585491836
vn -0.623385608 0.779595971 0.0601692498
vn -0.733442366 0.670575917 0.111310862
vn 0.377763987 0.0678064302 0.92341578
vn -0.0845858753 -0.852875769 -0.515216589
vn -0.0769585669 0.854824066 -0.51317966
vn -0.478464186 -0.776947498 -0.409175515
vn -0.479859084 0.777337432 -0.406794429
vn -0.5528301 0.73945868 -0.384161085
vn -0.0769585669 0.854824066 -0.51317966
vn -0.479859084 0.777337432 -0.406794429
vn 0.78020519 -0.022622617 0.625114441
vn 0.377763987 0.0678064302 0.92341578
vn -0.733442366 0.670575917 0.111310862
vn -0.623385608 0.779595971 0.0601692498
vn -0.0769585669 0.854824066 -0.51317966
vn -0.479859084 0.777337432 -0.406794429
vn 0.216627404 0.00209105434 0.976252079
vn -0.0116198026 0.992960751 0.117872693
vn -0.5528301 0.73945868 -0.384161085
vn -0.132008016 0 0.991248608
vn -0.569225371 0.577219009 -0.585491836
vn 0.633161962 0.773166239 0.0363293327
vn 0.68230778 -0.606555223 -0.408101499
vn 0.907253444 -0.256969422 0.332953364
vn 0.556259215 0.453723073 -0.696211874
vn 0.412891328 -0.887659311 0.203915641
vn 0.943435669 -0.329444081 0.0373617075
vn 0.441575736 -0.851536751 -0.282658726
vn 0.470797479 0.416793972 -0.777581155
vn 0.556259215 0.453723073 -0.696211874
vn -0.0964911282 -0.957867622 0.270516485
vn 0.6586501 -0.734825552 -0.161900088
vn 0.60750705 -0.729674578 0.313863397
vn -0.243695334 -0.953847468 -0.17546387
vn 0.985613286 0.158259675 0.059332259
vn 0.633161962 0.773166239 0.0363293327
vn 0.6586501 -0.734825552 -0.161900088
vn 0.743508399 0.49334234 -0.451451629
vn 0.625651479 -0.640751481 -0.444969416
vn 0.659612715 -0.669474363 0.341635942
vn 0.625651479 -0.640751481 -0.444969416
vn 0.564209521 -0.817370832 0.116501249
vn 0.828009665 -0.53246963 0.175715968
vn -0.674009264 -0.658529043 0.334740072
vn 0.255616248 -0.647584319 0.717840433
vn 0.659612715 -0.669474363 0.341635942
vn -0.940726638 -0.0482143089 0.335721195
vn -0.0443960205 -0.0693551227 0.996603608
vn -0.352390617 0.65905726 0.664427876
vn -0.753058016 0.640168965 0.15194501
vn 0.0207822286 0.996054888 0.0862718746
vn -0.746973276 0.351389199 -0.564408123
vn -0.950138152 -0.0324376076 -0.310137749
vn -0.164777532 0.804335892 -0.570869565
vn -0.840228915 -0.384542376 -0.382285982
vn -0.420761883 0.904616296 -0.0680364221
vn 0.457023293 0.743144572 -0.488739073
vn 0.788063765 0.572732389 -0.225683719
vn 0.91660583 0.341095388 -0.208536699
vn 0.520825565 0.722962916 -0.453944206
vn 0.216149956 0.97590524 -0.0298030581
vn 0.925519109 0.323307127 -0.19719775
vn 0.866621733 -0.487068266 -0.108310878
vn 0.866621733 -0.487068266 -0.108310878
vn 0.764247894 -0.429712504 -0.480907857
vn 0.878863871 -0.325006694 -0.349240661
vn 0.300050914 0.388190597 -0.871365368
vn 0.593773663 -0.472014546 -0.651640356
vn 0.457023293 0.743144572 -0.488739073
vn 0.0207822286 0.996054888 0.0862718746
vn 0.300050914 0.388190597 -0.871365368
vn 0.41654551 0.575101614 -0.704093754
vn 0.593773663 -0.472014546 -0.651640356
vn 0.300050914 0.388190597 -0.871365368
vn 0.916494071 0.103924707 -0.386313677
vn 0.743508399 0.49334234 -0.451451629
vn 0.960373402 0.137719706 -0.242314085
vn 0.326928943 0.195747435 0.924554229
vn 0.255616248 -0.647584319 0.717840433
vn 0.724173725 0.144570142 0.674293637
vn -0.0443960205 -0.0693551227 0.996603608
vn 0.345922768 -0.708085001 0.615591645
vn -0.67977649 -0.206034064 0.703884959
vn -0.508078575 -0.149358436 0.848261893
vn -0.355604678 0.752045929 0.554952562
vn 0.568020463 0.495812923 0.656903505
vn 0.326928943 0.195747435 0.924554229
vn -0.72768122 0.613951921 0.305848241
vn -0.510704339 0.658136904 0.553206146
vn -0.700566113 -0.176711723 0.69136107
vn -0.0659272522 -0.688102722 0.722612083
vn -0.29876551 -0.814627528 0.49711296
vn 0.398385018 -0.84342593 0.360447019
vn 0.0984076932 -0.935951054 0.338099986
vn 0.714235187 -0.685997248 0.13883765
vn 0.650728643 -0.758152485 -0.0419172049
vn 0.828009665 -0.53246963 0.175715968
vn 0.564209521 -0.817370832 0.116501249
vn 0.382102072 -0.923613489 -0.0305952691
vn 0.943282783 0.00109865086 -0.331988662
vn -0.3840819 0.923199892 0.0135282977
vn -0.145252615 0.988353848 0.0453686528
vn 0.351358443 0.830426097 -0.432365417
vn 0.105330989 0.896899223 -0.42950809
vn -0.256006777 0.90569216 -0.337908506
vn 0.699092269 0.554673374 -0.451228738
vn 0.0207822286 0.996054888 0.0862718746
vn 0.568020463 0.495812923 0.656903505
vn -0.355604678 0.752045929 0.554952562
vn 0.216149956 0.97590524 -0.0298030581
vn 0.41654551 0.575101614 -0.704093754
vn -0.352390617 0.65905726 0.664427876
vn -0.60395205 0.740821123 0.293983012
vn -0.970793247 0.00107478769 0.239915356
vn -0.511948764 0.759263813 -0.401779562
vn -0.589720368 0.350936115 -0.727374554
vn 0.392064512 0.0555680357 -0.918257952
vn 0.699092269 0.554673374 -0.451228738
vn -0.764144719 -0.0258617923 -0.644526184
vn 0.392064512 0.0555680357 -0.918257952
vn 0.366395682 -0.253418744 -0.895283818
vn 0.281352401 0.104744472 -0.953870833
vn -0.542506874 -0.106972903 -0.833212554
vn 0.16317752 0.419726044 -0.89286238
vn -0.712550759 -0.393502325 -0.580884933
vn -0.846113861 -0.287344486 -0.448914796
vn 0.16942957 0.517617047 -0.83866924
vn 0.410345197 0.0116202338 -0.911856234
vn -0.449476659 -0.0571171232 -0.891464114
vn 0.179470152 0.822375536 -0.539897144
vn -0.610177517 0.618125141 -0.495585144
vn -0.208884016 -0.0116412705 -0.97787112
vn -0.942425728 0.310023516 -0.125375688
vn -0.977276564 0.0010283211 -0.21196568
vn -0.929906845 0.244880855 0.27442044
vn -0.691940546 -0.591028035 0.414613128
vn -0.784963429 -0.44022581 0.435928464
vn -0.0461710542 -0.861667335 0.505368888
vn 0.138161063 -0.981142581 0.135169625
vn -0.292786479 -0.738730371 -0.607085943
vn 0.943282783 0.00109865086 -0.331988662
vn -0.789844751 -0.609063804 -0.0720174909
vn -0.568808436 -0.817627192 0.0891218036
vn 0.828009665 -0.53246963 0.175715968
vn 0.0348771363 0.527377009 0.848915279
vn 0.410345197 0.0116202338 -0.911856234
vn -0.292786479 -0.738730371 -0.607085943
vn 0.60750705 -0.729674578 0.313863397
vn 0.398385018 -0.84342593 0.360447019
vn 0.659612715 -0.669474363 0.341635942
vn 0.564209521 -0.817370832 0.116501249
vn 0.345922768 -0.708085001 0.615591645
vn 0.724173725 0.144570142 0.674293637
vn 0.255616248 -0.647584319 0.717840433
vn -0.292786479 -0.738730371 -0.607085943
vn 0.943282783 0.00109865086 -0.331988662
vn 0.410345197 0.0116202338 -0.911856234
vn 0.392064512 0.0555680357 -0.918257952
vn 0.179470152 0.822375536 -0.539897144
vn 0.699092269 0.554673374 -0.451228738
vn 0.351358443 0.830426097 -0.432365417
vn 0.179470152 0.822375536 -0.539897144
vn 0.351358443 0.830426097 -0.432365417
vn 0.41654551 0.575101614 -0.704093754
vn -0.355604678 0.752045929 0.554952562
vn 0.943282783 0.00109865086 -0.331988662
vn 0.828009665 -0.53246963 0.175715968
vn -0.0443960205 -0.0693551227 0.996603608
vn -0.352390617 0.65905726 0.664427876
vn -0.765616477 0.467678398 -0.441710532
vn -0.784963429 -0.44022581 0.435928464
vn -0.342376143 -0.518984914 0.783219755
vn -0.232631534 -0.508417368 -0.829092443
vn -0.765616477 0.467678398 -0.441710532
vn -0.789844751 -0.609063804 -0.0720174909
vn -0.0461710542 -0.861667335 0.505368888
vn -0.342376143 -0.518984914 0.783219755
vn -0.784963429 -0.44022581 0.435928464
vn 0.138161063 -0.981142581 0.135169625
vn -0.232631534 -0.508417368 -0.829092443
vn -0.232631534 -0.508417368 -0.829092443
vn 0.138161063 -0.981142581 0.135169625
vn -0.765616477 0.467678398 -0.441710532
vn -0.789844751 -0.609063804 -0.0720174909
vn -0.970793247 0.00107478769 0.239915356
vn -0.654874325 0.512411952 0.55549407
vn -0.60395205 0.740821123 0.293983012
vn -0.436540157 -0.830109358 -0.346916556
vn -0.977276564 0.0010283211 -0.21196568
vn -0.292397499 0.0765432715 -0.953228593
vn -0.654874325 0.512411952 0.55549407
vn -0.292397499 0.0765432715 -0.953228593
vn 0.607432008 0.65436399 -0.450371057
vn -0.60395205 0.740821123 0.293983012
vn -0.292397499 0.0765432715 -0.953228593
vn -0.436540157 -0.830109358 -0.346916556
vn 0.607432008 0.65436399 -0.450371057
vn -0.436540157 -0.830109358 -0.346916556
vn -0.511948764 0.759263813 -0.401779562
vn 0.607432008 0.65436399 -0.450371057
vn -0.511948764 0.759263813 -0.401779562
vn -0.977276564 0.0010283211 -0.21196568
vn -0.942425728 0.310023516 -0.125375688
vn -0.242919788 0.843092382 -0.479776293
vn -0.208884016 -0.0116412705 -0.97787112
vn -0.378658146 -0.257429212 -0.889015198
vn -0.568808436 -0.817627192 0.0891218036
vn -0.378658146 -0.257429212 -0.889015198
vn -0.242919788 0.843092382 -0.479776293
vn -0.734509289 -0.129149497 0.666195571
vn -0.568808436 -0.817627192 0.0891218036
vn -0.691940546 -0.591028035 0.414613128
vn -0.929906845 0.244880855 0.27442044
vn -0.691940546 -0.591028035 0.414613128
vn -0.734509289 -0.129149497 0.666195571
vn -0.378658146 -0.257429212 -0.889015198
vn -0.242919788 0.843092382 -0.479776293
vn -0.242919788 0.843092382 -0.479776293
vn -0.929906845 0.244880855 0.27442044
vn -0.942425728 0.310023516 -0.125375688
vn 0.576112986 0.13284786 0.806501865
vn 0.694970965 0.140818462 0.705113828
vn 0.580137908 0.29165265 0.760512173
vn 0.673764944 0.288759798 0.680190146
vn 0.466863573 0.463963777 0.752845287
vn 0.26970619 0.173699439 0.947146773
vn 0.497143388 -0.0950857624 0.862442553
vn 0.579462647 -0.109536313 0.807604313
vn 0.827821732 0.167704314 0.535337687
vn 0.544792354 -0.0367354751 0.837765932
vn 0.6304003 -0.021252647 0.775979221
vn 0.683091104 0.339755744 0.646492541
vn 0.791070879 0.201033697 0.577747643
vn 0.579158187 -0.743323803 0.334732234
vn -0.243695334 -0.953847468 -0.17546387
vn -0.810288012 -0.572722137 -0.124188408
vn -0.398559779 -0.872698903 -0.282040268
vn -0.840228915 -0.384542376 -0.382285982
vn -0.993368208 -0.0989933461 -0.0584806763
vn -0.950138152 -0.0324376076 -0.310137749
vn -0.746973276 0.351389199 -0.564408123
vn -0.971723795 -0.066015847 0.226703972
vn -0.531382799 -0.774176002 0.343924254
vn -0.260381907 -0.767064631 0.586355865
vn -0.452417314 -0.723659396 0.521186769
vn 0.497143388 -0.0950857624 0.862442553
vn 0.26970619 0.173699439 0.947146773
vn 0.544792354 -0.0367354751 0.837765932
vn -0.997235358 -0.0691761151 -0.0271365028
vn -0.573951781 0.746047139 0.337628365
vn -0.293412566 0.812269151 0.504110932
vn 0.466863573 0.463963777 0.752845287
vn 0.580137908 0.29165265 0.760512173
vn 0.0456384085 0.843308568 0.535488427
vn -0.609586298 0.786284208 0.100805506
vn 0.463879764 0.714722693 -0.523437619
vn 0.611439586 0.713175654 0.342815131
vn 0.576112986 0.13284786 0.806501865
vn 0.611439586 0.713175654 0.342815131
vn 0.827821732 0.167704314 0.535337687
vn 0.26970619 0.173699439 0.947146773
vn -0.808656037 -0.0241336375 0.587786555
vn -0.808656037 -0.0241336375 0.587786555
vn 0.26970619 0.173699439 0.947146773
vn -0.189847693 0.59686929 -0.779554307
vn -0.736990094 0.574102163 -0.356724262
vn -0.164777532 0.804335892 -0.570869565
vn 0.91660583 0.341095388 -0.208536699
vn 0.463879764 0.714722693 -0.523437619
vn -0.164777532 0.804335892 -0.570869565
vn 0.463879764 0.714722693 -0.523437619
vn 0.827821732 0.167704314 0.535337687
vn 0.611439586 0.713175654 0.342815131
vn 0.91660583 0.341095388 -0.208536699
vn 0.925519109 0.323307127 -0.19719775
vn 0.296817541 -0.757941365 0.580882132
vn 0.492527187 -0.868809879 -0.0508560464
vn 0.791070879 0.201033697 0.577747643
vn -0.398559779 -0.872698903 -0.282040268
vn -0.243695334 -0.953847468 -0.17546387
vn 0.927608728 -0.126853913 -0.351354569
vn 0.791070879 0.201033697 0.577747643
vn 0.296817541 -0.757941365 0.580882132
vn 0.484633744 -0.870649874 -0.0842554271
vn -0.243695334 -0.953847468 -0.17546387
vn 0.791070879 0.201033697 0.577747643
vn 0.943435669 -0.329444081 0.0373617075
vn 0.484633744 -0.870649874 -0.0842554271
vn -0.60395205 0.740821123 0.293983012
vn 0.607432008 0.65436399 -0.450371057
vn -0.511948764 0.759263813 -0.401779562
vn 0.943435669 -0.329444081 0.0373617075
vn 0.484633744 -0.870649874 -0.0842554271
vn 0.791070879 0.201033697 0.577747643
vn 0.943435669 -0.329444081 0.0373617075
vn -0.784963429 -0.44022581 0.435928464
vn -0.789844751 -0.609063804 -0.0720174909
vn -0.712550759 -0.393502325 -0.580884933
vn -0.189776495 0.978381515 -0.0821858421
vn 0.41654551 0.575101614 -0.704093754
vn 0.179470152 0.822375536 -0.539897144
vn -0.189776495 0.978381515 -0.0821858421
vn 0.41654551 0.575101614 -0.704093754
vn 0.828009665 -0.53246963 0.175715968
vn 0.625651479 -0.640751481 -0.444969416
vn 0.960373402 0.137719706 -0.242314085
g Blue_mag_f_pve_2_hand_r_0
f 3/3/3 2/2/2 1/1/1
f 4/4/4 1/1/1 2/2/2
f 5/5/5 3/3/3 1/1/1
f 5/5/5 6/6/6 3/3/3
f 7/7/7 3/3/3 6/6/6
f 3/3/3 7/7/7 8/8/8
f 3/3/3 8/8/8 9/9/9
f 10/10/10 9/9/9 8/8/8
f 8/8/8 11/11/11 10/10/10
f 12/12/12 8/8/8 7/7/7
f 6/6/6 13/13/13 7/7/7
f 14/14/14 7/7/7 13/13/13
f 7/7/7 14/14/14 15/15/15
f 16/16/16 15/15/15 14/14/14
f 13/13/13 17/17/17 14/14/14
f 14/14/14 18/18/18 16/16/16
f 11/11/11 8/8/8 19/19/19
f 20/20/20 19/19/19 8/8/8
f 19/19/19 20/20/20 21/21/21
f 22/22/22 21/21/21 20/20/20
f 20/20/20 23/23/23 22/22/22
f 20/20/20 8/8/8 23/23/23
f 24/24/24 22/22/22 23/23/23
f 24/24/24 25/25/25 22/22/22
f 19/19/19 26/26/26 11/11/11
f 19/19/19 27/27/27 26/26/26
f 28/28/28 26/26/26 27/27/27
f 28/28/28 27/27/27 29/29/29
f 22/22/22 31/31/31 30/30/30
f 32/32/32 23/23/23 8/8/8
f 32/32/32 8/8/8 33/33/33
f 35/35/35 34/34/34 8/8/8
f 35/35/35 36/36/36 34/34/34
f 37/37/37 34/34/34 36/36/36
f 37/37/37 36/36/36 38/38/38
f 24/24/24 40/40/40 39/39/39
f 43/43/43 42/42/42 41/41/41
f 44/44/44 41/41/41 42/42/42
f 41/41/41 45/45/45 43/43/43
f 46/46/46 43/43/43 45/45/45
f 41/41/41 47/47/47 45/45/45
f 48/48/48 45/45/45 47/47/47
f 48/48/48 49/49/49 45/45/45
f 50/50/50 45/45/45 49/49/49
f 45/45/45 50/50/50 46/46/46
f 50/50/50 51/51/51 46/46/46
f 41/41/41 44/44/44 52/52/52
f 41/41/41 52/52/52 47/47/47
f 53/53/53 52/52/52 44/44/44
f 52/52/52 53/53/53 54/54/54
f 55/55/55 54/54/54 53/53/53
f 53/53/53 56/56/56 55/55/55
f 53/53/53 44/44/44 56/56/56
f 57/57/57 55/55/55 56/56/56
f 52/52/52 54/54/54 58/58/58
f 58/58/58 47/47/47 52/52/52
f 59/59/59 58/58/58 54/54/54
f 57/57/57 60/60/60 55/55/55
f 55/55/55 61/61/61 54/54/54
f 54/54/54 62/62/62 59/59/59
f 63/63/63 56/56/56 44/44/44
f 63/63/63 44/44/44 64/64/64
f 44/44/44 11/11/11 65/65/65
f 66/66/66 65/65/65 11/11/11
f 65/65/65 66/66/66 67/67/67
f 68/68/68 67/67/67 66/66/66
f 66/66/66 69/69/69 68/68/68
f 66/66/66 11/11/11 69/69/69
f 70/70/70 68/68/68 69/69/69
f 65/65/65 71/71/71 44/44/44
f 65/65/65 72/72/72 71/71/71
f 73/73/73 71/71/71 72/72/72
f 74/74/74 69/69/69 11/11/11
f 74/74/74 11/11/11 75/75/75
f 11/11/11 44/44/44 42/42/42
f 11/11/11 42/42/42 10/10/10
f 68/68/68 77/77/77 76/76/76
f 73/73/73 79/79/79 78/78/78
f 81/81/81 78/78/78 80/80/80
f 84/84/84 83/83/83 82/82/82
f 85/85/85 83/83/83 84/84/84
f 85/85/85 86/86/86 83/83/83
f 86/86/86 85/85/85 87/87/87
f 88/88/88 87/87/87 85/85/85
f 85/85/85 89/89/89 88/88/88
f 90/90/90 88/88/88 89/89/89
f 88/88/88 90/90/90 91/91/91
f 88/88/88 91/91/91 87/87/87
f 92/92/92 91/91/91 90/90/90
f 91/91/91 92/92/92 93/93/93
f 94/94/94 93/93/93 92/92/92
f 92/92/92 90/90/90 94/94/94
f 93/93/93 94/94/94 95/95/95
f 96/96/96 95/95/95 94/94/94
f 95/95/95 97/97/97 93/93/93
f 97/97/97 95/95/95 98/98/98
f 99/99/99 98/98/98 95/95/95
f 95/95/95 100/100/100 99/99/99
f 101/101/101 93/93/93 97/97/97
f 102/102/102 93/93/93 101/101/101
f 102/102/102 91/91/91 93/93/93
f 103/103/103 87/87/87 91/91/91
f 102/102/102 103/103/103 91/91/91
f 102/102/102 101/101/101 104/104/104
f 105/105/105 104/104/104 101/101/101
f 104/104/104 105/105/105 106/106/106
f 107/107/107 106/106/106 105/105/105
f 107/107/107 105/105/105 108/108/108
f 109/109/109 108/108/108 105/105/105
f 107/107/107 110/110/110 106/106/106
f 108/108/108 111/111/111 107/107/107
f 97/97/97 112/112/112 101/101/101
f 113/113/113 101/101/101 112/112/112
f 112/112/112 114/114/114 113/113/113
f 115/115/115 113/113/113 114/114/114
f 114/114/114 112/112/112 116/116/116
f 117/117/117 116/116/116 112/112/112
f 114/114/114 118/118/118 115/115/115
f 116/116/116 119/119/119 114/114/114
f 112/112/112 97/97/97 117/117/117
f 98/98/98 117/117/117 97/97/97
f 115/115/115 120/120/120 113/113/113
f 121/121/121 113/113/113 120/120/120
f 121/121/121 122/122/122 113/113/113
f 123/123/123 113/113/113 122/122/122
f 123/123/123 122/122/122 105/105/105
f 120/120/120 115/115/115 124/124/124
f 109/109/109 105/105/105 125/125/125
f 127/127/127 126/126/126 96/96/96
f 96/96/96 94/94/94 128/128/128
f 129/129/129 128/128/128 94/94/94
f 128/128/128 129/129/129 130/130/130
f 129/129/129 94/94/94 90/90/90
f 132/132/132 128/128/128 131/131/131
f 133/133/133 131/131/131 128/128/128
f 128/128/128 132/132/132 134/134/134
f 135/135/135 134/134/134 132/132/132
f 132/132/132 131/131/131 136/136/136
f 132/132/132 136/136/136 135/135/135
f 137/137/137 136/136/136 131/131/131
f 137/137/137 138/138/138 136/136/136
f 139/139/139 135/135/135 136/136/136
f 136/136/136 140/140/140 139/139/139
f 139/139/139 141/141/141 135/135/135
f 139/139/139 142/142/142 141/141/141
f 135/135/135 144/144/144 143/143/143
f 146/146/146 135/135/135 145/145/145
f 133/133/133 128/128/128 147/147/147
f 149/149/149 87/87/87 148/148/148
f 103/103/103 148/148/148 87/87/87
f 87/87/87 149/149/149 86/86/86
f 150/150/150 86/86/86 149/149/149
f 148/148/148 151/151/151 149/149/149
f 152/152/152 149/149/149 151/151/151
f 149/149/149 152/152/152 150/150/150
f 153/153/153 150/150/150 152/152/152
f 151/151/151 154/154/154 152/152/152
f 152/152/152 154/154/154 153/153/153
f 156/156/156 148/148/148 155/155/155
f 157/157/157 155/155/155 148/148/148
f 155/155/155 158/158/158 156/156/156
f 157/157/157 148/148/148 159/159/159
f 103/103/103 102/102/102 160/160/160
f 161/161/161 160/160/160 102/102/102
f 160/160/160 161/161/161 162/162/162
f 103/103/103 160/160/160 163/163/163
f 164/164/164 163/163/163 160/160/160
f 162/162/162 165/165/165 160/160/160
f 164/164/164 160/160/160 165/165/165
f 167/167/167 166/166/166 161/161/161
f 167/167/167 161/161/161 168/168/168
f 169/169/169 168/168/168 161/161/161
f 167/167/167 170/170/170 166/166/166
f 168/168/168 171/171/171 167/167/167
f 169/169/169 161/161/161 172/172/172
f 103/103/103 174/174/174 173/173/173
f 176/176/176 175/175/175 161/161/161
f 176/176/176 104/104/104 175/175/175
f 177/177/177 175/175/175 104/104/104
f 177/177/177 104/104/104 178/178/178
f 106/106/106 178/178/178 104/104/104
f 178/178/178 106/106/106 179/179/179
f 181/181/181 180/180/180 50/50/50
f 182/182/182 181/181/181 50/50/50
f 182/182/182 183/183/183 181/181/181
f 183/183/183 184/184/184 181/181/181
f 182/182/182 185/185/185 183/183/183
f 186/186/186 183/183/183 185/185/185
f 185/185/185 182/182/182 187/187/187
f 50/50/50 187/187/187 182/182/182
f 50/50/50 188/188/188 187/187/187
f 189/189/189 187/187/187 188/188/188
f 187/187/187 189/189/189 190/190/190
f 191/191/191 190/190/190 189/189/189
f 191/191/191 192/192/192 190/190/190
f 187/187/187 190/190/190 193/193/193
f 194/194/194 184/184/184 183/183/183
f 190/190/190 196/196/196 195/195/195
f 197/197/197 186/186/186 195/195/195
f 195/195/195 198/198/198 197/197/197
f 199/199/199 195/195/195 186/186/186
f 195/195/195 199/199/199 190/190/190
f 187/187/187 201/201/201 200/200/200
f 203/203/203 202/202/202 186/186/186
f 206/206/206 205/205/205 204/204/204
f 209/209/209 208/208/208 207/207/207
f 210/210/210 207/207/207 208/208/208
f 210/210/210 211/211/211 207/207/207
f 212/212/212 207/207/207 211/211/211
f 209/209/209 207/207/207 213/213/213
f 214/214/214 213/213/213 207/207/207
f 207/207/207 212/212/212 214/214/214
f 213/213/213 214/214/214 215/215/215
f 216/216/216 215/215/215 214/214/214
f 214/214/214 217/217/217 216/216/216
f 217/217/217 214/214/214 212/212/212
f 218/218/218 216/216/216 217/217/217
f 215/215/215 216/216/216 219/219/219
f 220/220/220 219/219/219 216/216/216
f 216/216/216 218/218/218 220/220/220
f 221/221/221 220/220/220 218/218/218
f 220/220/220 221/221/221 222/222/222
f 223/223/223 222/222/222 221/221/221
f 219/219/219 220/220/220 224/224/224
f 222/222/222 224/224/224 220/220/220
f 222/222/222 225/225/225 224/224/224
f 226/226/226 224/224/224 225/225/225
f 225/225/225 222/222/222 227/227/227
f 223/223/223 227/227/227 222/222/222
f 224/224/224 226/226/226 228/228/228
f 229/229/229 228/228/228 226/226/226
f 217/217/217 230/230/230 218/218/218
f 231/231/231 218/218/218 230/230/230
f 218/218/218 231/231/231 221/221/221
f 230/230/230 217/217/217 232/232/232
f 212/212/212 232/232/232 217/217/217
f 233/233/233 221/221/221 231/231/231
f 223/223/223 221/221/221 233/233/233
f 224/224/224 234/234/234 219/219/219
f 227/227/227 223/223/223 235/235/235
f 237/237/237 225/225/225 236/236/236
f 238/238/238 226/226/226 237/237/237
f 239/239/239 237/237/237 226/226/226
f 240/240/240 236/236/236 239/239/239
f 236/236/236 240/240/240 241/241/241
f 242/242/242 241/241/241 240/240/240
f 243/243/243 229/229/229 238/238/238
f 243/243/243 244/244/244 229/229/229
f 243/243/243 245/245/245 244/244/244
f 226/226/226 238/238/238 246/246/246
f 247/247/247 219/219/219 234/234/234
f 215/215/215 219/219/219 248/248/248
f 248/248/248 249/249/249 215/215/215
f 250/250/250 248/248/248 219/219/219
f 213/213/213 215/215/215 251/251/251
f 251/251/251 252/252/252 213/213/213
f 255/255/255 254/254/254 253/253/253
f 256/256/256 253/253/253 254/254/254
f 254/254/254 255/255/255 257/257/257
f 258/258/258 257/257/257 255/255/255
f 257/257/257 258/258/258 259/259/259
f 253/253/253 256/256/256 260/260/260
f 261/261/261 260/260/260 256/256/256
f 262/262/262 253/253/253 260/260/260
f 263/263/263 258/258/258 255/255/255
f 259/259/259 264/264/264 257/257/257
f 265/265/265 257/257/257 264/264/264
f 265/265/265 254/254/254 257/257/257
f 265/265/265 266/266/266 254/254/254
f 268/268/268 267/267/267 258/258/258
f 268/268/268 258/258/258 269/269/269
f 271/271/271 270/270/270 266/266/266
f 254/254/254 271/271/271 272/272/272
f 272/272/272 273/273/273 261/261/261
f 274/274/274 261/261/261 273/273/273
f 276/276/276 272/272/272 275/275/275
f 279/279/279 278/278/278 277/277/277
f 279/279/279 277/277/277 280/280/280
f 281/281/281 280/280/280 277/277/277
f 281/281/281 277/277/277 282/282/282
f 283/283/283 282/282/282 277/277/277
f 283/283/283 284/284/284 282/282/282
f 285/285/285 282/282/282 284/284/284
f 286/286/286 284/284/284 283/283/283
f 287/287/287 280/280/280 281/281/281
f 290/290/290 289/289/289 288/288/288
f 291/291/291 288/288/288 289/289/289
f 292/292/292 289/289/289 290/290/290
f 292/292/292 290/290/290 293/293/293
f 292/292/292 294/294/294 289/289/289
f 294/294/294 295/295/295 289/289/289
f 296/296/296 289/289/289 295/295/295
f 294/294/294 292/292/292 297/297/297
f 294/294/294 297/297/297 298/298/298
f 299/299/299 298/298/298 297/297/297
f 300/300/300 297/297/297 292/292/292
f 293/293/293 290/290/290 301/301/301
f 302/302/302 301/301/301 290/290/290
f 294/294/294 303/303/303 295/295/295
f 304/304/304 295/295/295 303/303/303
f 303/303/303 305/305/305 304/304/304
f 297/297/297 306/306/306 299/299/299
f 298/298/298 299/299/299 307/307/307
f 308/308/308 307/307/307 299/299/299
f 308/308/308 309/309/309 307/307/307
f 300/300/300 310/310/310 297/297/297
f 311/311/311 297/297/297 310/310/310
f 311/311/311 312/312/312 297/297/297
f 310/310/310 313/313/313 311/311/311
f 314/314/314 311/311/311 313/313/313
f 314/314/314 313/313/313 315/315/315
f 316/316/316 315/315/315 313/313/313
f 315/315/315 316/316/316 317/317/317
f 316/316/316 313/313/313 318/318/318
f 319/319/319 318/318/318 313/313/313
f 316/316/316 318/318/318 320/320/320
f 319/319/319 313/313/313 321/321/321
f 310/310/310 321/321/321 313/313/313
f 321/321/321 310/310/310 300/300/300
f 320/320/320 322/322/322 316/316/316
f 323/323/323 322/322/322 320/320/320
f 324/324/324 323/323/323 320/320/320
f 320/320/320 325/325/325 324/324/324
f 323/323/323 326/326/326 322/322/322
f 327/327/327 322/322/322 326/326/326
f 325/325/325 328/328/328 324/324/324
f 329/329/329 324/324/324 328/328/328
f 324/324/324 330/330/330 323/323/323
f 331/331/331 323/323/323 330/330/330
f 332/332/332 326/326/326 331/331/331
f 326/326/326 332/332/332 333/333/333
f 334/334/334 333/333/333 332/332/332
f 335/335/335 331/331/331 326/326/326
f 322/322/322 327/327/327 336/336/336
f 322/322/322 336/336/336 316/316/316
f 326/326/326 337/337/337 327/327/327
f 338/338/338 327/327/327 337/337/337
f 340/340/340 339/339/339 338/338/338
f 341/341/341 338/338/338 339/339/339
f 343/343/343 342/342/342 305/305/305
f 346/346/346 345/345/345 344/344/344
f 347/347/347 344/344/344 345/345/345
f 346/346/346 344/344/344 348/348/348
f 349/349/349 348/348/348 344/344/344
f 349/349/349 350/350/350 348/348/348
f 349/349/349 351/351/351 350/350/350
f 351/351/351 349/349/349 352/352/352
f 353/353/353 352/352/352 349/349/349
f 354/354/354 350/350/350 351/351/351
f 354/354/354 355/355/355 350/350/350
f 356/356/356 350/350/350 355/355/355
f 356/356/356 357/357/357 350/350/350
f 358/358/358 350/350/350 357/357/357
f 358/358/358 348/348/348 350/350/350
f 348/348/348 358/358/358 359/359/359
f 360/360/360 359/359/359 358/358/358
f 360/360/360 358/358/358 357/357/357
f 360/360/360 361/361/361 359/359/359
f 360/360/360 357/357/357 361/361/361
f 362/362/362 359/359/359 361/361/361
f 361/361/361 363/363/363 362/362/362
f 364/364/364 362/362/362 363/363/363
f 365/365/365 361/361/361 357/357/357
f 365/365/365 366/366/366 361/361/361
f 355/355/355 354/354/354 367/367/367
f 367/367/367 354/354/354 368/368/368
f 367/367/367 368/368/368 369/369/369
f 370/370/370 369/369/369 368/368/368
f 369/369/369 371/371/371 367/367/367
f 355/355/355 367/367/367 371/371/371
f 372/372/372 371/371/371 369/369/369
f 368/368/368 373/373/373 370/370/370
f 373/373/373 368/368/368 374/374/374
f 375/375/375 374/374/374 368/368/368
f 373/373/373 376/376/376 370/370/370
f 370/370/370 376/376/376 377/377/377
f 374/374/374 378/378/378 373/373/373
f 355/355/355 371/371/371 379/379/379
f 355/355/355 379/379/379 380/380/380
f 379/379/379 371/371/371 381/381/381
f 371/371/371 382/382/382 381/381/381
f 382/382/382 371/371/371 383/383/383
f 384/384/384 383/383/383 371/371/371
f 382/382/382 385/385/385 381/381/381
f 382/382/382 386/386/386 385/385/385
f 387/387/387 385/385/385 386/386/386
f 387/387/387 388/388/388 385/385/385
f 389/389/389 388/388/388 387/387/387
f 390/390/390 388/388/388 389/389/389
f 390/390/390 391/391/391 388/388/388
f 392/392/392 388/388/388 391/391/391
f 392/392/392 385/385/385 388/388/388
f 390/390/390 393/393/393 391/391/391
f 391/391/391 393/393/393 394/394/394
f 387/387/387 386/386/386 395/395/395
f 389/389/389 387/387/387 395/395/395
f 396/396/396 395/395/395 386/386/386
f 389/389/389 397/397/397 390/390/390
f 393/393/393 390/390/390 397/397/397
f 392/392/392 398/398/398 385/385/385
f 392/392/392 391/391/391 398/398/398
f 399/399/399 385/385/385 398/398/398
f 385/385/385 399/399/399 380/380/380
f 400/400/400 385/385/385 380/380/380
f 401/401/401 380/380/380 399/399/399
f 401/401/401 356/356/356 380/380/380
f 402/402/402 356/356/356 401/401/401
f 356/356/356 402/402/402 357/357/357
f 403/403/403 357/357/357 402/402/402
f 402/402/402 391/391/391 403/403/403
f 403/403/403 404/404/404 357/357/357
f 365/365/365 357/357/357 404/404/404
f 355/355/355 380/380/380 356/356/356
f 405/405/405 365/365/365 404/404/404
f 406/406/406 365/365/365 405/405/405
f 365/365/365 406/406/406 407/407/407
f 406/406/406 405/405/405 391/391/391
f 408/408/408 391/391/391 405/405/405
f 409/409/409 391/391/391 402/402/402
f 409/409/409 398/398/398 391/391/391
f 407/407/407 394/394/394 410/410/410
f 411/411/411 410/410/410 394/394/394
f 394/394/394 393/393/393 411/411/411
f 397/397/397 411/411/411 393/393/393
f 413/413/413 391/391/391 412/412/412
f 416/416/416 415/415/415 414/414/414
f 415/415/415 362/362/362 414/414/414
f 362/362/362 417/417/417 414/414/414
f 415/415/415 416/416/416 418/418/418
f 419/419/419 418/418/418 416/416/416
f 420/420/420 419/419/419 416/416/416
f 423/423/423 422/422/422 421/421/421
f 425/425/425 424/424/424 384/384/384
f 427/427/427 425/425/425 426/426/426
f 429/429/429 370/370/370 428/428/428
f 430/430/430 428/428/428 370/370/370
f 431/431/431 368/368/368 354/354/354
f 433/433/433 361/361/361 432/432/432
f 353/353/353 434/434/434 352/352/352
f 435/435/435 352/352/352 434/434/434
f 438/438/438 437/437/437 436/436/436
f 436/436/436 439/439/439 438/438/438
f 441/441/441 440/440/440 437/437/437
f 444/444/444 443/443/443 442/442/442
f 442/442/442 443/443/443 445/445/445
f 446/446/446 445/445/445 443/443/443
f 449/449/449 448/448/448 447/447/447
f 449/449/449 450/450/450 448/448/448
f 453/453/453 452/452/452 451/451/451
f 452/452/452 454/454/454 451/451/451
f 455/455/455 451/451/451 454/454/454
f 456/456/456 454/454/454 452/452/452
f 459/459/459 458/458/458 457/457/457
f 457/457/457 460/460/460 459/459/459
f 463/463/463 462/462/462 461/461/461
f 466/466/466 465/465/465 464/464/464
f 468/468/468 464/464/464 467/467/467
f 471/471/471 470/470/470 469/469/469
f 473/473/473 472/472/472 471/471/471
f 475/475/475 471/471/471 474/474/474
f 474/474/474 477/477/477 476/476/476
f 476/476/476 477/477/477 478/478/478
f 480/480/480 479/479/479 476/476/476
f 483/483/483 482/482/482 481/481/481
f 481/481/481 485/485/485 484/484/484
f 486/486/486 484/484/484 485/485/485
f 489/489/489 488/488/488 487/487/487
f 488/488/488 489/489/489 490/490/490
f 491/491/491 490/490/490 489/489/489
f 492/492/492 490/490/490 491/491/491
f 492/492/492 493/493/493 490/490/490
f 488/488/488 494/494/494 487/487/487
f 495/495/495 487/487/487 494/494/494
f 493/493/493 496/496/496 490/490/490
f 490/490/490 496/496/496 497/497/497
f 496/496/496 498/498/498 497/497/497
f 496/496/496 499/499/499 498/498/498
f 500/500/500 498/498/498 499/499/499
f 503/503/503 502/502/502 501/501/501
f 504/504/504 501/501/501 502/502/502
f 502/502/502 505/505/505 504/504/504
f 506/506/506 504/504/504 505/505/505
f 507/507/507 506/506/506 505/505/505
f 505/505/505 502/502/502 508/508/508
f 509/509/509 508/508/508 502/502/502
f 509/509/509 510/510/510 508/508/508
f 510/510/510 511/511/511 508/508/508
f 511/511/511 510/510/510 512/512/512
f 512/512/512 513/513/513 511/511/511
f 514/514/514 512/512/512 510/510/510
f 511/511/511 515/515/515 508/508/508
f 508/508/508 515/515/515 516/516/516
f 517/517/517 508/508/508 516/516/516
f 516/516/516 518/518/518 517/517/517
f 519/519/519 517/517/517 518/518/518
f 517/517/517 519/519/519 520/520/520
f 517/517/517 520/520/520 521/521/521
f 521/521/521 508/508/508 517/517/517
f 521/521/521 520/520/520 522/522/522
f 522/522/522 520/520/520 523/523/523
f 524/524/524 520/520/520 519/519/519
f 520/520/520 524/524/524 525/525/525
f 526/526/526 525/525/525 524/524/524
f 518/518/518 516/516/516 527/527/527
f 528/528/528 527/527/527 516/516/516
f 529/529/529 516/516/516 515/515/515
f 529/529/529 515/515/515 511/511/511
f 529/529/529 511/511/511 530/530/530
f 522/522/522 531/531/531 521/521/521
f 532/532/532 521/521/521 531/531/531
f 531/531/531 533/533/533 532/532/532
f 507/507/507 532/532/532 533/533/533
f 521/521/521 532/532/532 508/508/508
f 505/505/505 508/508/508 532/532/532
f 532/532/532 507/507/507 505/505/505
f 535/535/535 534/534/534 531/531/531
f 536/536/536 531/531/531 534/534/534
f 539/539/539 538/538/538 537/537/537
f 540/540/540 537/537/537 538/538/538
f 538/538/538 541/541/541 540/540/540
f 543/543/543 542/542/542 509/509/509
f 510/510/510 509/509/509 542/542/542
f 542/542/542 544/544/544 510/510/510
f 514/514/514 510/510/510 544/544/544
f 543/543/543 509/509/509 545/545/545
f 502/502/502 545/545/545 509/509/509
f 545/545/545 546/546/546 543/543/543
f 548/548/548 542/542/542 547/547/547
f 543/543/543 547/547/547 549/549/549
f 547/547/547 546/546/546 550/550/550
f 547/547/547 543/543/543 551/551/551
f 547/547/547 553/553/553 552/552/552
f 547/547/547 554/554/554 553/553/553
f 557/557/557 556/556/556 555/555/555
f 559/559/559 292/292/292 558/558/558
f 292/292/292 559/559/559 300/300/300
f 561/561/561 229/229/229 560/560/560
f 400/400/400 381/381/381 385/385/385
f 564/564/564 563/563/563 562/562/562
f 565/565/565 212/212/212 211/211/211
f 212/212/212 565/565/565 566/566/566
f 569/569/569 568/568/568 567/567/567
f 572/572/572 571/571/571 570/570/570
