g Blue_mag_pve_3_hammer
v -0.628281832 -0.158589363 13.3229599
v 0.129377261 -0.909287691 12.4805479
v -0.621320844 -0.158589244 12.4805489
v 0.12937808 -0.916249216 13.3229599
v 0.880075872 -0.158589423 12.4805479
v 0.887038112 -0.158589229 13.3229599
v -0.621320844 -0.158589244 12.4805489
v 0.129377291 -1.3061254 12.4875107
v -1.01815867 -0.158589125 12.4875116
v 0.129377261 -0.909287691 12.4805479
v 1.27691364 -0.158589408 12.4875107
v 0.880075872 -0.158589423 12.4805479
v -1.01815867 -0.158589125 12.4875116
v 0.129376695 -0.923305511 11.5917664
v -0.6353392 -0.158589125 11.5917673
v 0.129377291 -1.3061254 12.4875107
v 0.894092977 -0.158589467 11.5917664
v 1.27691364 -0.158589408 12.4875107
v -0.6353392 -0.158589125 11.5917673
v 0.129376158 -1.11118782 10.8444614
v -0.823221922 -0.158588961 10.8444614
v 0.129376695 -0.923305511 11.5917664
v 1.08197486 -0.158589736 10.8444605
v 0.894092977 -0.158589467 11.5917664
v -0.823221922 -0.158588961 10.8444614
v 0.129376262 -0.804856062 10.8374987
v -0.516890287 -0.158589065 10.8374996
v 0.129376158 -1.11118782 10.8444614
v 0.775643051 -0.158589631 10.8374987
v 1.08197486 -0.158589736 10.8444605
v -0.516890287 -0.158589065 10.8374996
v 0.129375294 -0.800415754 10.0296059
v -0.512450337 -0.158588946 10.0296068
v 0.129376262 -0.804856062 10.8374987
v 0.771202326 -0.158589825 10.0296059
v 0.775643051 -0.158589631 10.8374987
v -0.512450337 -0.158588946 10.0296068
v 0.129375219 -0.892588496 9.96424675
v -0.604623258 -0.158588916 9.96424675
v 0.129375294 -0.800415754 10.0296059
v 0.86337477 -0.158589855 9.9642458
v 0.771202326 -0.158589825 10.0296059
v -0.604623258 -0.158588916 9.96424675
v 0.129374981 -0.762188554 9.51554585
v -0.474223584 -0.158588901 9.5155468
v 0.129375219 -0.892588496 9.96424675
v 0.732974708 -0.1585899 9.51554585
v 0.86337477 -0.158589855 9.9642458
v -0.474223584 -0.158588901 9.5155468
v 0.129374981 -0.762187183 9.51539135
v -0.474222213 -0.158588901 9.51539135
v -0.474223584 -0.158588901 9.5155468
v 0.129374981 -0.762188554 9.51554585
v 0.129374981 -0.762187183 9.51539135
v 0.732973456 -0.1585899 9.5153904
v -0.474222213 -0.158588901 9.51539135
v 0.129374653 -0.89975518 9.05129147
v -0.611790419 -0.158588782 9.05129147
v 0.129374981 -0.762187183 9.51539135
v 0.870540977 -0.158590034 9.05129051
v 0.732973456 -0.1585899 9.5153904
v -0.611790419 -0.158588782 9.05129147
v 0.129374653 -0.89975518 9.05129147
v -0.611790419 -0.158588782 9.05129147
v 0.12937589 0.582576454 9.05129051
v 0.12937589 0.582576454 9.05129147
v 0.870540977 -0.158590034 9.05129051
v 0.129374653 -0.89975518 9.05129147
v -0.611790419 -0.158588782 9.05129147
v 0.129374653 -0.899755239 9.05129147
v 0.870540977 -0.158590034 9.05129051
v 0.12937589 0.582576454 9.05129051
v 0.12937589 0.582576454 9.05129147
v 0.870540977 -0.158590034 9.05129051
v 0.870540977 -0.158590034 9.05129051
v 0.870540977 -0.158590034 9.05129051
v 0.129374653 -0.89975518 9.05129147
v -0.611790419 -0.158588782 9.05129147
v 0.129374698 -0.639939249 8.98888779
v -0.351974636 -0.158588856 8.98888779
v 0.129374653 -0.899755239 9.05129147
v 0.610725224 -0.158589944 8.98888683
v 0.870540977 -0.158590034 9.05129051
v -0.351974636 -0.158588856 8.98888779
v 0.129374385 -0.780460656 8.56427574
v -0.492496133 -0.158588916 8.56427574
v 0.129374698 -0.639939249 8.98888779
v 0.751246274 -0.158590078 8.56427479
v 0.610725224 -0.158589944 8.98888683
v -0.492496133 -0.158588916 8.56427574
v 0.129374221 -0.636452913 8.22076988
v -0.348488599 -0.158588916 8.22077084
v 0.129374385 -0.780460656 8.56427574
v 0.607238173 -0.158589989 8.22076988
v 0.751246274 -0.158590078 8.56427479
v -0.348488599 -0.158588916 8.22077084
v 0.129369721 -0.637943745 2.26634645
v -0.349982977 -0.158588275 2.26634669
v 0.129374221 -0.636452913 8.22076988
v 0.60872519 -0.158591032 2.26634598
v 0.607238173 -0.158589989 8.22076988
v -0.349982977 -0.158588275 2.26634669
v 0.129369497 -0.855417073 2.04077029
v -0.567456424 -0.158588171 2.04077077
v 0.129369721 -0.637943745 2.26634645
v 0.826198161 -0.158591077 2.04076982
v 0.60872519 -0.158591032 2.26634598
v -0.567456424 -0.158588171 2.04077077
v 0.129369155 -0.851498544 1.49097037
v -0.563538313 -0.158588111 1.49097085
v 0.129369497 -0.855417073 2.04077029
v 0.822279334 -0.158591151 1.49097013
v 0.826198161 -0.158591077 2.04076982
v -0.563538313 -0.158588111 1.49097085
v 0.129368812 -0.613782287 1.07498169
v -0.325822204 -0.158588126 1.07498205
v 0.129369155 -0.851498544 1.49097037
v 0.584562719 -0.158591166 1.07498145
v 0.822279334 -0.158591151 1.49097013
v -0.325822204 -0.158588126 1.07498205
v 0.129366294 -0.615067363 -2.2027967
v -0.327109218 -0.158587992 -2.20279622
v 0.129368812 -0.613782287 1.07498169
v 0.585845768 -0.158591643 -2.2027967
v 0.584562719 -0.158591166 1.07498145
v -0.327109218 -0.158587992 -2.20279622
v 0.129366189 -0.802763104 -2.28296876
v -0.514805198 -0.158587918 -2.28296828
v 0.129366294 -0.615067363 -2.2027967
v 0.773541629 -0.158591703 -2.282969
v 0.585845768 -0.158591643 -2.2027967
v -0.514805198 -0.158587918 -2.28296828
v 0.129365668 -0.896675348 -2.82048941
v -0.60871774 -0.158587828 -2.82048893
v 0.129366189 -0.802763104 -2.28296876
v 0.867453337 -0.158591807 -2.82048965
v 0.773541629 -0.158591703 -2.282969
v -0.60871774 -0.158587828 -2.82048893
v 0.12936537 -1.25482726 -3.12678099
v -0.966869891 -0.158587664 -3.12678027
v 0.129365668 -0.896675348 -2.82048941
v 1.22560525 -0.158591881 -3.12678146
v 0.867453337 -0.158591807 -2.82048965
v -0.966869891 -0.158587664 -3.12678027
v 0.129365519 -0.692646027 -3.17360234
v -0.404688567 -0.158587843 -3.17360187
v 0.12936537 -1.25482726 -3.12678099
v 0.663423896 -0.158591703 -3.17360258
v 1.22560525 -0.158591881 -3.12678146
v -0.404688567 -0.158587843 -3.17360187
v 0.129365101 -0.694209039 -3.82343507
v -0.406251937 -0.158587754 -3.82343459
v 0.129365519 -0.692646027 -3.17360234
v 0.66498661 -0.158591911 -3.82343531
v 0.663423896 -0.158591703 -3.17360258
v 0.129374981 -0.762188554 9.51554585
v 0.732974708 -0.1585899 9.51554585
v 0.732973456 -0.1585899 9.5153904
v 0.887038112 -0.158589229 13.3229599
v 0.129377738 0.592109084 12.4805489
v 0.880075872 -0.158589423 12.4805479
v 0.129377827 0.599070609 13.3229599
v -0.621320844 -0.158589244 12.4805489
v -0.628281832 -0.158589363 13.3229599
v 0.880075872 -0.158589423 12.4805479
v 0.129377872 0.988946795 12.4875107
v 1.27691364 -0.158589408 12.4875107
v 0.129377738 0.592109084 12.4805489
v -1.01815867 -0.158589125 12.4875116
v -0.621320844 -0.158589244 12.4805489
v 1.27691364 -0.158589408 12.4875107
v 0.129377186 0.606126785 11.5917664
v 0.894092977 -0.158589467 11.5917664
v 0.129377872 0.988946795 12.4875107
v -0.6353392 -0.158589125 11.5917673
v -1.01815867 -0.158589125 12.4875116
v 0.894092977 -0.158589467 11.5917664
v 0.129376784 0.79400903 10.8444614
v 1.08197486 -0.158589736 10.8444605
v 0.129377186 0.606126785 11.5917664
v -0.823221922 -0.158588961 10.8444614
v -0.6353392 -0.158589125 11.5917673
v 1.08197486 -0.158589736 10.8444605
v 0.12937668 0.487677336 10.8374996
v 0.775643051 -0.158589631 10.8374987
v 0.129376784 0.79400903 10.8444614
v -0.516890287 -0.158589065 10.8374996
v -0.823221922 -0.158588961 10.8444614
v 0.775643051 -0.158589631 10.8374987
v 0.129376471 0.483236998 10.0296059
v 0.771202326 -0.158589825 10.0296059
v 0.12937668 0.487677336 10.8374996
v -0.512450337 -0.158588946 10.0296068
v -0.516890287 -0.158589065 10.8374996
v 0.771202326 -0.158589825 10.0296059
v 0.129376471 0.57540971 9.96424675
v 0.86337477 -0.158589855 9.9642458
v 0.129376471 0.483236998 10.0296059
v -0.604623258 -0.158588916 9.96424675
v -0.512450337 -0.158588946 10.0296068
v 0.86337477 -0.158589855 9.9642458
v 0.129376143 0.445009679 9.51554585
v 0.732974708 -0.1585899 9.51554585
v 0.129376471 0.57540971 9.96424675
v -0.474223584 -0.158588901 9.5155468
v -0.604623258 -0.158588916 9.96424675
v 0.732974708 -0.1585899 9.51554585
v 0.129376143 0.445008308 9.51539135
v 0.732973456 -0.1585899 9.5153904
v 0.732974708 -0.1585899 9.51554585
v 0.129376143 0.445009679 9.51554585
v 0.129376143 0.445008308 9.51539135
v -0.474222213 -0.158588901 9.51539135
v 0.732973456 -0.1585899 9.5153904
v 0.12937589 0.582576454 9.05129147
v 0.870540977 -0.158590034 9.05129051
v 0.129376143 0.445008308 9.51539135
v -0.611790419 -0.158588782 9.05129147
v -0.474222213 -0.158588901 9.51539135
v 0.870540977 -0.158590034 9.05129051
v 0.129375771 0.322760463 8.98888683
v 0.610725224 -0.158589944 8.98888683
v 0.12937589 0.582576454 9.05129147
v -0.351974636 -0.158588856 8.98888779
v -0.611790419 -0.158588782 9.05129147
v 0.610725224 -0.158589944 8.98888683
v 0.129375547 0.463281721 8.56427574
v 0.751246274 -0.158590078 8.56427479
v 0.129375771 0.322760463 8.98888683
v -0.492496133 -0.158588916 8.56427574
v -0.351974636 -0.158588856 8.98888779
v 0.751246274 -0.158590078 8.56427479
v 0.129375294 0.319273919 8.22076988
v 0.607238173 -0.158589989 8.22076988
v 0.129375547 0.463281721 8.56427574
v -0.348488599 -0.158588916 8.22077084
v -0.492496133 -0.158588916 8.56427574
v 0.607238173 -0.158589989 8.22076988
v 0.129372314 0.320764422 2.26634645
v 0.60872519 -0.158591032 2.26634598
v 0.129375294 0.319273919 8.22076988
v -0.349982977 -0.158588275 2.26634669
v -0.348488599 -0.158588916 8.22077084
v 0.60872519 -0.158591032 2.26634598
v 0.129372239 0.538237751 2.04077029
v 0.826198161 -0.158591077 2.04076982
v 0.129372314 0.320764422 2.26634645
v -0.567456424 -0.158588171 2.04077077
v -0.349982977 -0.158588275 2.26634669
v 0.826198161 -0.158591077 2.04076982
v 0.129371896 0.534319043 1.49097061
v 0.822279334 -0.158591151 1.49097013
v 0.129372239 0.538237751 2.04077029
v -0.563538313 -0.158588111 1.49097085
v -0.567456424 -0.158588171 2.04077077
v 0.822279334 -0.158591151 1.49097013
v 0.129371867 0.296603054 1.07498181
v 0.584562719 -0.158591166 1.07498145
v 0.129371896 0.534319043 1.49097061
v -0.325822204 -0.158588126 1.07498205
v -0.563538313 -0.158588111 1.49097085
v 0.584562719 -0.158591166 1.07498145
v 0.129370108 0.297887832 -2.20279646
v 0.585845768 -0.158591643 -2.2027967
v 0.129371867 0.296603054 1.07498181
v -0.327109218 -0.158587992 -2.20279622
v -0.325822204 -0.158588126 1.07498205
v 0.585845768 -0.158591643 -2.2027967
v 0.129370123 0.485583603 -2.28296852
v 0.773541629 -0.158591703 -2.282969
v 0.129370108 0.297887832 -2.20279646
v -0.514805198 -0.158587918 -2.28296828
v -0.327109218 -0.158587992 -2.20279622
v 0.773541629 -0.158591703 -2.282969
v 0.129370123 0.579495728 -2.82048917
v 0.867453337 -0.158591807 -2.82048965
v 0.129370123 0.485583603 -2.28296852
v -0.60871774 -0.158587828 -2.82048893
v -0.514805198 -0.158587918 -2.28296828
v 0.867453337 -0.158591807 -2.82048965
v 0.129370049 0.93764776 -3.12678075
v 1.22560525 -0.158591881 -3.12678146
v 0.129370123 0.579495728 -2.82048917
v -0.966869891 -0.158587664 -3.12678027
v -0.60871774 -0.158587828 -2.82048893
v 1.22560525 -0.158591881 -3.12678146
v 0.129369825 0.375466377 -3.17360234
v 0.663423896 -0.158591703 -3.17360258
v 0.129370049 0.93764776 -3.12678075
v -0.404688567 -0.158587843 -3.17360187
v -0.966869891 -0.158587664 -3.12678027
v 0.663423896 -0.158591703 -3.17360258
v 0.129369423 0.377029449 -3.82343507
v 0.66498661 -0.158591911 -3.82343531
v 0.129369825 0.375466377 -3.17360234
v -0.406251937 -0.158587754 -3.82343459
v -0.404688567 -0.158587843 -3.17360187
v 0.129376143 0.445009679 9.51554585
v -0.474223584 -0.158588901 9.5155468
v -0.474222213 -0.158588901 9.51539135
v 0.74883467 -0.837378263 -3.82826924
v -0.534966528 -0.168239415 -3.32808638
v 0.748835206 -0.168239832 -3.32808733
v -0.534967065 -0.837377846 -3.82826877
v 0.748834193 -0.568451881 -4.61922264
v -0.534967422 -0.568451464 -4.61922216
v 0.748834491 0.266892165 -4.60787725
v -0.534967184 0.266892582 -4.6078763
v 0.748835146 0.514236867 -3.80991101
v -0.534966588 0.514237285 -3.8099103
v 0.748835206 -0.168239832 -3.32808733
v -0.534966528 -0.168239415 -3.32808638
v 0.748834193 -0.568451881 -4.61922264
v 0.74883467 -0.837378263 -3.82826924
v 0.748835206 -0.168239832 -3.32808733
v 0.748834491 0.266892165 -4.60787725
v 0.748835146 0.514236867 -3.80991101
v -0.534966528 -0.168239415 -3.32808638
v -0.534967065 -0.837377846 -3.82826877
v -0.534967422 -0.568451464 -4.61922216
v -0.534967184 0.266892582 -4.6078763
v -0.534966588 0.514237285 -3.8099103
v 0.0760490745 -0.158588126 -3.36046386
v 1.23375535 -0.534842312 -4.29424
v 0.0760487169 -0.534842014 -3.73671865
v 1.52792275 -0.158588499 -4.05965042
v 0.939588249 -0.15858826 -4.52883196
v 0.0760485977 -0.158588022 -4.11297131
v -1.37582588 -0.15858756 -4.05964994
v -1.08165896 -0.534841597 -4.29423952
v -0.787491739 -0.158587694 -4.52883101
v 1.52792275 -0.158588499 -4.05965042
v 1.51968443 -0.534842253 -5.54698181
v 1.88650525 -0.158588409 -5.63070536
v 1.15286434 -0.158588201 -5.46325588
v 0.939588249 -0.15858826 -4.52883196
v 1.88650525 -0.158588409 -5.63070536
v 0.718526065 -0.534841895 -6.55160332
v 0.881776333 -0.158587918 -6.89059496
v 0.555275798 -0.158587903 -6.21260834
v 1.15286434 -0.158588201 -5.46325588
v 0.718526304 0.217666045 -6.55160284
v 1.51968467 0.217665642 -5.54698181
v -0.56643182 -0.534841478 -6.55160189
v -0.729682207 -0.158587396 -6.89059353
v -0.403181076 -0.15858759 -6.21260786
v 0.939588249 -0.15858826 -4.52883196
v 1.23375559 0.217665568 -4.29424
v 1.15286434 -0.158588201 -5.46325588
v 1.88650525 -0.158588409 -5.63070536
v 1.52792275 -0.158588499 -4.05965042
v 0.0760485977 -0.158588022 -4.11297131
v 0.0760489628 0.217665881 -3.73671865
v 0.939588249 -0.15858826 -4.52883196
v 1.52792275 -0.158588499 -4.05965042
v 0.0760490745 -0.158588126 -3.36046386
v -0.787491739 -0.158587694 -4.52883101
v -1.08165872 0.217666328 -4.29423952
v -1.37582588 -0.15858756 -4.05964994
v -0.729682207 -0.158587396 -6.89059353
v -1.36758935 -0.534841359 -5.5469799
v -1.73440981 -0.158587232 -5.63070536
v -1.00076866 -0.158587486 -5.46325731
v -0.403181076 -0.15858759 -6.21260786
v -1.36758912 0.217666596 -5.5469799
v -0.566431582 0.217666462 -6.55160189
v 0.555275798 -0.158587903 -6.21260834
v 0.881776333 -0.158587918 -6.89059496
v -1.37582588 -0.15858756 -4.05964994
v -1.73440981 -0.158587232 -5.63070536
v -1.73440981 -0.158587232 -5.63070536
v -1.08165896 -0.534841597 -4.29423952
v -1.37582588 -0.15858756 -4.05964994
v -0.787491739 -0.158587694 -4.52883101
v -1.00076866 -0.158587486 -5.46325731
v -1.00076866 -0.158587486 -5.46325731
v -1.08165872 0.217666328 -4.29423952
v -0.787491739 -0.158587694 -4.52883101
v 0.514237106 -0.401944458 -6.59967136
v 0.514237285 0.084768787 -6.59967136
v 0.0861170292 -0.15858756 -7.65350437
v 0.514237285 0.084768787 -6.59967136
v -0.342001408 0.0847690627 -6.59967089
v 0.0861170292 -0.15858756 -7.65350437
v -0.342001408 0.0847690627 -6.59967089
v -0.342001557 -0.40194419 -6.59967089
v 0.0861170292 -0.15858756 -7.65350437
v -0.342001557 -0.40194419 -6.59967089
v 0.514237106 -0.401944458 -6.59967136
v 0.0861170292 -0.15858756 -7.65350437
v -0.478372842 -0.401944071 -6.53457308
v -0.478372514 0.0847692564 -6.53457308
v -1.60244131 -0.158586651 -6.89558315
v -0.478372514 0.0847692564 -6.53457308
v -1.06304026 0.0847693607 -5.90902901
v -1.60244131 -0.158586651 -6.89558315
v -1.06304026 0.0847693607 -5.90902901
v -1.06304061 -0.401943892 -5.90902901
v -1.60244131 -0.158586651 -6.89558315
v -1.06304061 -0.401943892 -5.90902901
v -0.478372842 -0.401944071 -6.53457308
v -1.60244131 -0.158586651 -6.89558315
v -1.37453973 -0.401943773 -5.57758045
v -1.37453949 0.0847695693 -5.57758045
v -2.21643662 -0.158586696 -5.01067448
v -1.37453949 0.0847695693 -5.57758045
v -1.24049711 0.0847695693 -4.73189831
v -2.21643662 -0.158586696 -5.01067448
v -1.24049711 0.0847695693 -4.73189831
v -1.24049735 -0.401943773 -4.73189974
v -2.21643662 -0.158586696 -5.01067448
v -1.24049735 -0.401943773 -4.73189974
v -1.37453973 -0.401943773 -5.57758045
v -2.21643662 -0.158586696 -5.01067448
v 0.62925303 -0.401944637 -6.53457403
v 1.75332117 -0.158588365 -6.89558601
v 0.629253209 0.0847687423 -6.53457403
v 0.629253209 0.0847687423 -6.53457403
v 1.75332117 -0.158588365 -6.89558601
v 1.21392155 0.0847683102 -5.90902996
v 1.21392155 0.0847683102 -5.90902996
v 1.75332117 -0.158588365 -6.89558601
v 1.21392131 -0.401944995 -5.90902996
v 1.21392131 -0.401944995 -5.90902996
v 1.75332117 -0.158588365 -6.89558601
v 0.62925303 -0.401944637 -6.53457403
v 1.52542126 -0.401945144 -5.57758236
v 2.36731887 -0.158588812 -5.01067734
v 1.52542138 0.0847681686 -5.57758236
v 1.52542138 0.0847681686 -5.57758236
v 2.36731887 -0.158588812 -5.01067734
v 1.39137948 0.084768258 -4.73189974
v 1.39137948 0.084768258 -4.73189974
v 2.36731887 -0.158588812 -5.01067734
v 1.39137971 -0.401945144 -4.73190117
v 1.39137971 -0.401945144 -4.73190117
v 2.36731887 -0.158588812 -5.01067734
v 1.52542126 -0.401945144 -5.57758236
v -3.20153379 -0.981109798 15.3526783
v -4.05354691 -0.207372829 15.9132795
v -3.20153308 -0.207372963 15.9132786
v -4.05354738 -0.9811095 15.3526793
v -3.20153427 -0.687045097 14.4435768
v -4.05354786 -0.687044919 14.4435768
v -3.20153403 0.268433273 14.4423199
v -4.05354738 0.268433839 14.4423199
v -3.20153332 0.564887464 15.350647
v -4.05354691 0.564887702 15.350647
v -3.20153308 -0.207372963 15.9132786
v -4.05354691 -0.207372829 15.9132795
v -5.30788517 -0.208440736 15.1005011
v -5.30788517 -0.208440736 15.1005011
v -4.05354691 -0.207372829 15.9132795
v -4.05354691 -0.207372829 15.9132795
v -5.30788517 -0.208440736 15.1005011
v -4.29737091 0.0631899834 14.1559563
v -1.78091538 0.0631894395 12.0545673
v -1.78091395 0.0631891638 14.1559553
v -1.7809155 -0.464660436 12.0545673
v -4.29737139 -0.46465987 14.1559563
v -1.78091431 -0.464660704 14.1559553
v -1.78091538 0.0631894395 12.0545673
v -4.29737139 -0.46465987 14.1559563
v -1.7809155 -0.464660436 12.0545673
v -4.29737091 0.0631899834 14.1559563
v -1.78091538 0.0631894395 12.0545673
v -1.78091431 -0.464660704 14.1559553
v -1.78091395 0.0631891638 14.1559553
v -1.7809155 -0.464660436 12.0545673
v -1.78091395 0.0631891638 14.1559553
v -4.29737139 -0.46465987 14.1559563
v -4.29737091 0.0631899834 14.1559563
v -1.78091431 -0.464660704 14.1559553
v -4.29736996 0.0631898791 16.0907936
v -1.78091288 0.0631890595 16.0907917
v -1.78091156 0.0631887838 18.1921806
v -1.78091168 -0.464661002 18.1921806
v -1.780913 -0.464660734 16.0907917
v -4.29737043 -0.464659899 16.0907936
v -1.78091156 0.0631887838 18.1921806
v -4.29737043 -0.464659899 16.0907936
v -4.29736996 0.0631898791 16.0907936
v -1.78091168 -0.464661002 18.1921806
v -1.78091156 0.0631887838 18.1921806
v -1.780913 -0.464660734 16.0907917
v -1.78091168 -0.464661002 18.1921806
v -1.78091288 0.0631890595 16.0907917
v -1.78091288 0.0631890595 16.0907917
v -4.29737043 -0.464659899 16.0907936
v -1.780913 -0.464660734 16.0907917
v -4.29736996 0.0631898791 16.0907936
v -2.64126635 -1.25532746 16.7526226
v -1.33245432 -1.25532794 13.9553318
v -2.64126825 -1.25532758 13.9553328
v -1.33245265 -1.25532806 16.7526226
v -3.28728986 -1.60539496 17.4075165
v -3.12981248 -1.60539436 13.4882097
v -3.28729272 -1.60539412 12.9887447
v -3.12981009 -1.60539484 17.2500362
v -0.853946209 -1.60539544 13.4882088
v -0.696466267 -1.6053952 12.9887438
v -0.853943467 -1.60539579 17.2500343
v -0.696463525 -1.60539591 17.4075146
v -3.12981009 -1.60539484 17.2500362
v -2.64126825 -1.25532758 13.9553328
v -3.12981248 -1.60539436 13.4882097
v -2.64126635 -1.25532746 16.7526226
v -3.12981248 -1.60539436 13.4882097
v -1.33245432 -1.25532794 13.9553318
v -0.853946209 -1.60539544 13.4882088
v -2.64126825 -1.25532758 13.9553328
v -0.853946209 -1.60539544 13.4882088
v -1.33245265 -1.25532806 16.7526226
v -0.853943467 -1.60539579 17.2500343
v -1.33245432 -1.25532794 13.9553318
v -0.853943467 -1.60539579 17.2500343
v -2.64126635 -1.25532746 16.7526226
v -3.12981009 -1.60539484 17.2500362
v -1.33245265 -1.25532806 16.7526226
v -3.28729272 -1.60539412 12.9887447
v -3.28728914 1.25106823 17.4075165
v -3.28728986 -1.60539496 17.4075165
v -3.28729177 1.25106859 12.9887457
v -3.28728986 -1.60539496 17.4075165
v -0.696462631 1.2510674 17.4075146
v -0.696463525 -1.60539591 17.4075146
v -3.28728914 1.25106823 17.4075165
v -0.696463525 -1.60539591 17.4075146
v -0.696466148 -1.16749918 13.0600462
v -0.696466267 -1.6053952 12.9887438
v -0.696463585 -1.16749954 16.9992695
v -0.696466267 -1.6053952 12.9887438
v -0.696465433 0.813171387 13.0600471
v -0.696465373 1.25106728 12.9887447
v -0.696466148 -1.16749918 13.0600462
v -0.696463585 -1.16749954 16.9992695
v 2.65511131 -1.16750026 13.0600452
v -0.696466148 -1.16749918 13.0600462
v 2.6551137 -1.16750062 16.9992676
v -0.696466148 -1.16749918 13.0600462
v 2.65511203 0.813170314 13.0600452
v -0.696465433 0.813171387 13.0600471
v 2.65511131 -1.16750026 13.0600452
v 2.6551137 -1.16750062 16.9992676
v 3.33013248 -1.60495269 12.6664629
v 2.65511131 -1.16750026 13.0600452
v 3.3301363 -1.60495329 17.3928471
v 3.3301363 -1.60495329 17.3928471
v 5.02936602 -1.604954 17.3928471
v 4.26393318 -1.60495329 16.9276505
v 4.2639308 -1.60495245 13.1995821
v 3.33013248 -1.60495269 12.6664629
v 5.02936316 -1.60495317 12.6664619
v 3.33013248 -1.60495269 12.6664629
v 5.02936316 -1.60495317 12.6664619
v 4.2639308 -1.03498113 12.6664619
v 4.26393127 0.680650294 12.6664629
v 3.3301332 1.25062239 12.6664629
v 5.02936411 1.2506218 12.6664629
v 4.2639308 -1.60495245 13.1995821
v 4.2639308 -1.03498113 12.6664619
v 5.02936316 -1.60495317 12.6664619
v 3.3301363 -1.60495329 17.3928471
v 4.26393366 -1.03498149 17.3928471
v 5.02936602 -1.604954 17.3928471
v 4.26393414 0.680649877 17.3928471
v 3.33013606 1.2506218 17.3928471
v 5.02936697 1.2506212 17.3928471
v 4.26393366 -1.03498149 17.3928471
v 4.26393318 -1.60495329 16.9276505
v 5.02936602 -1.604954 17.3928471
v -0.696463525 -1.60539591 17.4075146
v -0.696462989 0.813171148 16.9992695
v -0.696463585 -1.16749954 16.9992695
v -0.696462631 1.2510674 17.4075146
v -0.696463585 -1.16749954 16.9992695
v 2.65511441 0.813169897 16.9992676
v 2.6551137 -1.16750062 16.9992676
v -0.696462989 0.813171148 16.9992695
v 2.6551137 -1.16750062 16.9992676
v 3.33013606 1.2506218 17.3928471
v 3.3301363 -1.60495329 17.3928471
v 2.65511441 0.813169897 16.9992676
v -2.64126587 0.900999725 16.7526226
v -1.33245349 0.900999367 13.9553328
v -1.33245194 0.900999367 16.7526226
v -2.64126754 0.900999963 13.9553328
v -3.28728914 1.25106823 17.4075165
v -3.12981153 1.25106812 13.4882116
v -3.12980914 1.25106812 17.2500362
v -3.28729177 1.25106859 12.9887457
v -0.853945315 1.25106728 13.4882097
v -0.696465373 1.25106728 12.9887447
v -0.853942573 1.25106752 17.2500343
v -0.696462631 1.2510674 17.4075146
v -3.12980914 1.25106812 17.2500362
v -2.64126754 0.900999963 13.9553328
v -2.64126587 0.900999725 16.7526226
v -3.12981153 1.25106812 13.4882116
v -3.12981153 1.25106812 13.4882116
v -1.33245349 0.900999367 13.9553328
v -2.64126754 0.900999963 13.9553328
v -0.853945315 1.25106728 13.4882097
v -0.853945315 1.25106728 13.4882097
v -1.33245194 0.900999367 16.7526226
v -1.33245349 0.900999367 13.9553328
v -0.853942573 1.25106752 17.2500343
v -0.853942573 1.25106752 17.2500343
v -2.64126587 0.900999725 16.7526226
v -1.33245194 0.900999367 16.7526226
v -3.12980914 1.25106812 17.2500362
v 4.26393414 1.25062144 16.9276524
v 4.26393318 -1.60495329 16.9276505
v 4.26393366 -1.03498149 17.3928471
v 4.26393414 0.680649877 17.3928471
v 4.26393175 1.25062203 13.1995821
v 4.2639308 -1.60495245 13.1995821
v 4.26393127 0.680650294 12.6664629
v 4.2639308 -1.03498113 12.6664619
v -0.696465373 1.25106728 12.9887447
v -3.28729272 -1.60539412 12.9887447
v -0.696466267 -1.6053952 12.9887438
v -3.28729177 1.25106859 12.9887457
v -0.696462631 1.2510674 17.4075146
v -0.696465433 0.813171387 13.0600471
v -0.696462989 0.813171148 16.9992695
v -0.696465373 1.25106728 12.9887447
v -0.696462989 0.813171148 16.9992695
v 2.65511203 0.813170314 13.0600452
v 2.65511441 0.813169897 16.9992676
v -0.696465433 0.813171387 13.0600471
v 2.65511441 0.813169897 16.9992676
v 3.3301332 1.25062239 12.6664629
v 3.33013606 1.2506218 17.3928471
v 2.65511203 0.813170314 13.0600452
v 2.65511203 0.813170314 13.0600452
v 3.33013248 -1.60495269 12.6664629
v 3.3301332 1.25062239 12.6664629
v 2.65511131 -1.16750026 13.0600452
v 3.33013606 1.2506218 17.3928471
v 4.26393414 1.25062144 16.9276524
v 5.02936697 1.2506212 17.3928471
v 4.26393175 1.25062203 13.1995821
v 3.3301332 1.25062239 12.6664629
v 5.02936411 1.2506218 12.6664629
v 4.26393175 1.25062203 13.1995821
v 5.02936411 1.2506218 12.6664629
v 4.26393127 0.680650294 12.6664629
v 4.26393414 0.680649877 17.3928471
v 5.02936697 1.2506212 17.3928471
v 4.26393414 1.25062144 16.9276524
v 4.07864666 -1.56273353 15.9173603
v 4.07864714 -1.1598382 16.2831059
v 4.72604561 -1.57044029 15.9173594
v 4.07864666 -1.1598382 15.528327
v 4.07864666 -1.56273353 15.9173603
v 4.72604561 -1.57044029 15.9173594
v 4.72604561 -1.57044029 15.9173594
v 4.07864714 -1.1598382 16.2831059
v 4.07864666 -1.1598382 15.528327
v 2.83342218 -1.07926226 15.4127808
v 3.07916164 -1.96919703 15.0470333
v 2.61090612 -1.06882584 15.0470343
v 3.37754059 -1.5812068 15.444005
v 4.26223183 -1.58120668 15.4440031
v 5.04177189 -1.99180925 15.0470324
v 2.61090612 -1.06882584 15.0470343
v 3.37754011 -1.58120668 14.6267757
v 2.83342147 -1.07926214 14.6580009
v 3.07916164 -1.96919703 15.0470333
v 5.04177189 -1.99180925 15.0470324
v 4.26223135 -1.5812068 14.6267757
v 5.04177189 -1.99180925 15.0470324
v 4.26223183 -1.58120668 15.4440031
v 4.26223135 -1.5812068 14.6267757
v 4.07864571 -1.56273377 14.21661
v 4.07864618 -1.15983784 14.5823555
v 4.72604465 -1.57044017 14.21661
v 4.07864618 -1.15983796 13.8275766
v 4.07864571 -1.56273377 14.21661
v 4.72604465 -1.57044017 14.21661
v 4.72604465 -1.57044017 14.21661
v 4.07864618 -1.15983784 14.5823555
v 4.07864618 -1.15983796 13.8275766
v 4.07864761 1.21318579 15.9173603
v 4.72604656 1.22089219 15.9173603
v 4.07864809 0.810290635 16.2831059
v 4.07864714 0.810290813 15.528327
v 4.72604656 1.22089219 15.9173603
v 4.07864761 1.21318579 15.9173603
v 4.72604656 1.22089219 15.9173603
v 4.07864714 0.810290813 15.528327
v 4.07864809 0.810290635 16.2831059
v 2.8334229 0.729715466 15.4127808
v 3.07916284 1.61965036 15.0470343
v 3.37754154 1.23165965 15.444005
v 2.61090684 0.71927923 15.0470343
v 4.26223278 1.23165929 15.444005
v 5.04177284 1.64226091 15.0470333
v 2.61090684 0.71927923 15.0470343
v 3.37754107 1.23165965 14.6267767
v 3.07916284 1.61965036 15.0470343
v 2.83342218 0.729715586 14.6580009
v 5.04177284 1.64226091 15.0470333
v 4.2622323 1.23165941 14.6267757
v 5.04177284 1.64226091 15.0470333
v 4.2622323 1.23165941 14.6267757
v 4.26223278 1.23165929 15.444005
v 4.07864666 1.21318603 14.21661
v 4.72604561 1.22089207 14.21661
v 4.07864714 0.810290873 14.5823555
v 4.07864666 0.810290754 13.8275776
v 4.72604561 1.22089207 14.21661
v 4.07864666 1.21318603 14.21661
v 4.72604561 1.22089207 14.21661
v 4.07864666 0.810290754 13.8275776
v 4.07864714 0.810290873 14.5823555
vt 0.0172441229 0.321170539
vt 0.0614158548 0.402747244
vt 0.0614158548 0.321920097
vt 0.0172441229 0.402747244
vt 0.0614158548 0.483574629
vt 0.0172441229 0.484323949
vt 0.0614158548 0.321920097
vt 0.072794728 0.402747244
vt 0.072794728 0.279192835
vt 0.0614158548 0.402747244
vt 0.072794728 0.526301861
vt 0.0614158548 0.483574629
vt 0.072794728 0.279192835
vt 0.119762808 0.402747244
vt 0.119762808 0.320410937
vt 0.072794728 0.402747244
vt 0.119762808 0.485083789
vt 0.072794728 0.526301861
vt 0.119762808 0.320410937
vt 0.158947572 0.402747244
vt 0.158947572 0.300181627
vt 0.119762808 0.402747244
vt 0.158947572 0.505312979
vt 0.119762808 0.485083789
vt 0.158947572 0.300181627
vt 0.16872263 0.402747244
vt 0.16872263 0.333164275
vt 0.158947572 0.402747244
vt 0.16872263 0.472330451
vt 0.158947572 0.505312979
vt 0.16872263 0.333164275
vt 0.201674193 0.402747244
vt 0.201674193 0.333642542
vt 0.16872263 0.402747244
vt 0.201674193 0.471852541
vt 0.16872263 0.472330451
vt 0.201674193 0.333642542
vt 0.205101341 0.402747244
vt 0.205101341 0.32371828
vt 0.201674193 0.402747244
vt 0.205101341 0.481776685
vt 0.201674193 0.471852541
vt 0.205101341 0.32371828
vt 0.228628784 0.402747244
vt 0.228628784 0.337758154
vt 0.205101341 0.402747244
vt 0.228628784 0.467736572
vt 0.205101341 0.481776685
vt 0.228628784 0.337758154
vt 0.228636757 0.402747244
vt 0.228636757 0.337758392
vt 0.228628784 0.337758154
vt 0.228628784 0.402747244
vt 0.228636757 0.402747244
vt 0.228636757 0.467736453
vt 0.228636757 0.337758392
vt 0.252971709 0.402747244
vt 0.252971709 0.322946459
vt 0.228636757 0.402747244
vt 0.252971709 0.482548386
vt 0.228636757 0.467736453
vt 0.252971709 0.322946459
vt 0.252971709 0.402747244
vt 0.252971828 0.322946459
vt 0.252971828 0.402747244
vt 0.252971828 0.402747244
vt 0.252971709 0.482548386
vt 0.252971709 0.402747244
vt 0.252971709 0.322946459
vt 0.252971709 0.402747244
vt 0.252971709 0.482548386
vt 0.252971828 0.402747244
vt 0.252971828 0.402747244
vt 0.252971828 0.482548386
vt 0.252971709 0.482548386
vt 0.252971709 0.482548386
vt 0.252971709 0.402747244
vt 0.252971709 0.322946459
vt 0.256243855 0.402747244
vt 0.256243855 0.350920856
vt 0.252971709 0.402747244
vt 0.256243855 0.454573989
vt 0.252971709 0.482548386
vt 0.256243855 0.350920856
vt 0.278508246 0.402747244
vt 0.278508365 0.335790843
vt 0.256243855 0.402747244
vt 0.278508365 0.469703764
vt 0.256243855 0.454573989
vt 0.278508365 0.335790843
vt 0.296519876 0.402747244
vt 0.296519876 0.351296127
vt 0.278508246 0.402747244
vt 0.296519876 0.45419848
vt 0.278508365 0.469703764
vt 0.296519876 0.351296127
vt 0.608738065 0.402747124
vt 0.608738065 0.351135701
vt 0.296519876 0.402747244
vt 0.608738065 0.454359144
vt 0.296519876 0.45419848
vt 0.608738065 0.351135701
vt 0.620566189 0.402747124
vt 0.620566189 0.327720493
vt 0.608738065 0.402747124
vt 0.620566189 0.477774352
vt 0.608738065 0.454359144
vt 0.620566189 0.327720493
vt 0.64939487 0.402747124
vt 0.64939487 0.328142405
vt 0.620566189 0.402747124
vt 0.64939487 0.477352083
vt 0.620566189 0.477774352
vt 0.64939487 0.328142405
vt 0.67120707 0.402747124
vt 0.67120707 0.353737146
vt 0.64939487 0.402747124
vt 0.67120707 0.451757461
vt 0.64939487 0.477352083
vt 0.67120707 0.353737146
vt 0.843076408 0.402747005
vt 0.843076408 0.353598744
vt 0.67120707 0.402747124
vt 0.843076408 0.451896101
vt 0.67120707 0.451757461
vt 0.843076408 0.353598744
vt 0.847280145 0.402747005
vt 0.847280145 0.33338955
vt 0.843076408 0.402747005
vt 0.847280145 0.472104937
vt 0.843076408 0.451896101
vt 0.847280145 0.33338955
vt 0.875464797 0.402747005
vt 0.875464797 0.32327804
vt 0.847280145 0.402747005
vt 0.875464797 0.482216537
vt 0.847280145 0.472104937
vt 0.875464797 0.32327804
vt 0.891525149 0.402747005
vt 0.891525149 0.28471595
vt 0.875464797 0.402747005
vt 0.891525149 0.520778298
vt 0.875464797 0.482216537
vt 0.891525149 0.28471595
vt 0.903490484 0.402747005
vt 0.903490484 0.345245838
vt 0.891525149 0.402747005
vt 0.903490484 0.460248888
vt 0.891525149 0.520778298
vt 0.903490484 0.345245838
vt 0.937564015 0.402746886
vt 0.937564015 0.345077544
vt 0.903490484 0.402747005
vt 0.937564135 0.460417062
vt 0.903490484 0.460248888
vt 0.228628784 0.402747244
vt 0.228628784 0.467736572
vt 0.228636757 0.467736453
vt 0.0172441229 0.484323949
vt 0.0614158548 0.402747244
vt 0.0614158548 0.483574629
vt 0.0172441229 0.402747244
vt 0.0614158548 0.321920097
vt 0.0172441229 0.321170539
vt 0.0614158548 0.483574629
vt 0.072794728 0.402747244
vt 0.072794728 0.526301861
vt 0.0614158548 0.402747244
vt 0.072794728 0.279192835
vt 0.0614158548 0.321920097
vt 0.072794728 0.526301861
vt 0.119762808 0.402747244
vt 0.119762808 0.485083789
vt 0.072794728 0.402747244
vt 0.119762808 0.320410937
vt 0.072794728 0.279192835
vt 0.119762808 0.485083789
vt 0.158947572 0.402747244
vt 0.158947572 0.505312979
vt 0.119762808 0.402747244
vt 0.158947572 0.300181627
vt 0.119762808 0.320410937
vt 0.158947572 0.505312979
vt 0.168722734 0.402747244
vt 0.16872263 0.472330451
vt 0.158947572 0.402747244
vt 0.16872263 0.333164275
vt 0.158947572 0.300181627
vt 0.16872263 0.472330451
vt 0.201674193 0.402747244
vt 0.201674193 0.471852541
vt 0.168722734 0.402747244
vt 0.201674193 0.333642542
vt 0.16872263 0.333164275
vt 0.201674193 0.471852541
vt 0.205101341 0.402747244
vt 0.205101341 0.481776685
vt 0.201674193 0.402747244
vt 0.205101341 0.32371828
vt 0.201674193 0.333642542
vt 0.205101341 0.481776685
vt 0.228628784 0.402747244
vt 0.228628784 0.467736572
vt 0.205101341 0.402747244
vt 0.228628784 0.337758154
vt 0.205101341 0.32371828
vt 0.228628784 0.467736572
vt 0.228636876 0.402747244
vt 0.228636757 0.467736453
vt 0.228628784 0.467736572
vt 0.228628784 0.402747244
vt 0.228636876 0.402747244
vt 0.228636757 0.337758392
vt 0.228636757 0.467736453
vt 0.252971828 0.402747244
vt 0.252971709 0.482548386
vt 0.228636876 0.402747244
vt 0.252971709 0.322946459
vt 0.228636757 0.337758392
vt 0.252971709 0.482548386
vt 0.256243855 0.402747244
vt 0.256243855 0.454573989
vt 0.252971828 0.402747244
vt 0.256243855 0.350920856
vt 0.252971709 0.322946459
vt 0.256243855 0.454573989
vt 0.278508365 0.402747244
vt 0.278508365 0.469703764
vt 0.256243855 0.402747244
vt 0.278508365 0.335790843
vt 0.256243855 0.350920856
vt 0.278508365 0.469703764
vt 0.296519876 0.402747244
vt 0.296519876 0.45419848
vt 0.278508365 0.402747244
vt 0.296519876 0.351296127
vt 0.278508365 0.335790843
vt 0.296519876 0.45419848
vt 0.608738065 0.402747363
vt 0.608738065 0.454359144
vt 0.296519876 0.402747244
vt 0.608738065 0.351135701
vt 0.296519876 0.351296127
vt 0.608738065 0.454359144
vt 0.620566189 0.402747363
vt 0.620566189 0.477774352
vt 0.608738065 0.402747363
vt 0.620566189 0.327720493
vt 0.608738065 0.351135701
vt 0.620566189 0.477774352
vt 0.64939487 0.402747363
vt 0.64939487 0.477352083
vt 0.620566189 0.402747363
vt 0.64939487 0.328142405
vt 0.620566189 0.327720493
vt 0.64939487 0.477352083
vt 0.67120707 0.402747363
vt 0.67120707 0.451757461
vt 0.64939487 0.402747363
vt 0.67120707 0.353737146
vt 0.64939487 0.328142405
vt 0.67120707 0.451757461
vt 0.843076408 0.402747482
vt 0.843076408 0.451896101
vt 0.67120707 0.402747363
vt 0.843076408 0.353598744
vt 0.67120707 0.353737146
vt 0.843076408 0.451896101
vt 0.847280145 0.402747482
vt 0.847280145 0.472104937
vt 0.843076408 0.402747482
vt 0.847280145 0.33338955
vt 0.843076408 0.353598744
vt 0.847280145 0.472104937
vt 0.875464797 0.402747482
vt 0.875464797 0.482216537
vt 0.847280145 0.402747482
vt 0.875464797 0.32327804
vt 0.847280145 0.33338955
vt 0.875464797 0.482216537
vt 0.891525149 0.402747482
vt 0.891525149 0.520778298
vt 0.875464797 0.402747482
vt 0.891525149 0.28471595
vt 0.875464797 0.32327804
vt 0.891525149 0.520778298
vt 0.903490484 0.402747482
vt 0.903490484 0.460248888
vt 0.891525149 0.402747482
vt 0.903490484 0.345245838
vt 0.891525149 0.28471595
vt 0.903490484 0.460248888
vt 0.937564015 0.402747482
vt 0.937564135 0.460417062
vt 0.903490484 0.402747482
vt 0.937564015 0.345077544
vt 0.903490484 0.345245838
vt 0.228628784 0.402747244
vt 0.228628784 0.337758154
vt 0.228636757 0.337758392
vt 0.815951288 0.871459007
vt 0.851960897 0.982923508
vt 0.851961017 0.871459007
vt 0.815951169 0.982923031
vt 0.77994138 0.87145853
vt 0.779941261 0.982923031
vt 0.743931532 0.87145853
vt 0.743931413 0.982922792
vt 0.707921624 0.871458292
vt 0.707921624 0.982922792
vt 0.671911955 0.871458292
vt 0.671911716 0.982922316
vt 0.769941628 0.602944613
vt 0.78127116 0.673207879
vt 0.753081441 0.717640698
vt 0.734750032 0.60395211
vt 0.72432977 0.674838603
vt 0.753081441 0.717640936
vt 0.78127104 0.673208117
vt 0.769941628 0.602944851
vt 0.734749913 0.603952348
vt 0.72432977 0.674838841
vt 0.755480051 0.847048998
vt 0.817062795 0.748902977
vt 0.755480051 0.807501912
vt 0.832710683 0.773559749
vt 0.801414967 0.724245608
vt 0.755480051 0.767955065
vt 0.67824918 0.773559511
vt 0.693897009 0.748902977
vt 0.709544778 0.724245608
vt 0.832710683 0.773559749
vt 0.832272649 0.617231309
vt 0.851785302 0.608431399
vt 0.812759995 0.62603122
vt 0.801414967 0.724245608
vt 0.851785302 0.608431399
vt 0.789655864 0.511638761
vt 0.798339665 0.476008117
vt 0.780972004 0.547269166
vt 0.812759995 0.62603122
vt 0.789655864 0.511638761
vt 0.832272649 0.617231309
vt 0.721304059 0.511638761
vt 0.71262008 0.476008117
vt 0.729987919 0.547269166
vt 0.801414967 0.724245608
vt 0.817062795 0.748902977
vt 0.812759995 0.62603122
vt 0.851785302 0.608431399
vt 0.832710683 0.773559749
vt 0.755480051 0.767955065
vt 0.755480051 0.807501912
vt 0.801414967 0.724245608
vt 0.832710683 0.773559749
vt 0.755480051 0.847048998
vt 0.709544778 0.724245608
vt 0.693897009 0.748902977
vt 0.67824918 0.773559511
vt 0.71262008 0.476008117
vt 0.678687274 0.617231309
vt 0.659174621 0.60843116
vt 0.698199809 0.62603122
vt 0.729987919 0.547269166
vt 0.678687274 0.617231309
vt 0.721304059 0.511638761
vt 0.780972004 0.547269166
vt 0.798339665 0.476008117
vt 0.67824918 0.773559511
vt 0.659174621 0.60843116
vt 0.659174621 0.60843116
vt 0.693897009 0.748902977
vt 0.67824918 0.773559511
vt 0.709544778 0.724245608
vt 0.698199809 0.62603122
vt 0.698199809 0.62603122
vt 0.693897009 0.748902977
vt 0.709544778 0.724245608
vt 0.537863255 0.948367655
vt 0.514783859 0.948367655
vt 0.526323438 0.868983626
vt 0.616914034 0.988995552
vt 0.581121802 0.988995552
vt 0.599018037 0.903795362
vt 0.542534828 0.92062819
vt 0.566477656 0.92062819
vt 0.554506183 0.838274539
vt 0.581121802 0.988995552
vt 0.616914034 0.988995552
vt 0.599018037 0.903795362
vt 0.537863255 0.948367655
vt 0.514783859 0.948367655
vt 0.526323438 0.868983626
vt 0.616914034 0.988995552
vt 0.581121802 0.988995552
vt 0.599018037 0.903795362
vt 0.542534828 0.92062819
vt 0.566477656 0.92062819
vt 0.554506183 0.838274539
vt 0.581121802 0.988995552
vt 0.616914034 0.988995552
vt 0.599018037 0.903795362
vt 0.537863255 0.948367655
vt 0.514783859 0.948367655
vt 0.526323438 0.868983626
vt 0.616914034 0.988995552
vt 0.581121802 0.988995552
vt 0.599018037 0.903795362
vt 0.542534828 0.92062819
vt 0.566477656 0.92062819
vt 0.554506183 0.838274539
vt 0.581121802 0.988995552
vt 0.616914034 0.988995552
vt 0.599018037 0.903795362
vt 0.514783859 0.948367655
vt 0.526323438 0.868983626
vt 0.537863255 0.948367655
vt 0.581121802 0.988995552
vt 0.599018037 0.903795362
vt 0.616914034 0.988995552
vt 0.566477656 0.92062819
vt 0.554506183 0.838274539
vt 0.542534828 0.92062819
vt 0.616914034 0.988995552
vt 0.599018037 0.903795362
vt 0.581121802 0.988995552
vt 0.514783859 0.948367655
vt 0.526323438 0.868983626
vt 0.537863255 0.948367655
vt 0.581121802 0.988995552
vt 0.599018037 0.903795362
vt 0.616914034 0.988995552
vt 0.566477656 0.92062819
vt 0.554506183 0.838274539
vt 0.542534828 0.92062819
vt 0.616914034 0.988995552
vt 0.599018037 0.903795362
vt 0.581121802 0.988995552
vt 0.962703884 0.827087402
vt 0.898519456 0.828308403
vt 0.92730397 0.891376793
vt 0.932298541 0.781941235
vt 0.987493336 0.734747887
vt 0.951136291 0.717362225
vt 0.987493634 0.62711215
vt 0.95113641 0.6444965
vt 0.962705791 0.534771919
vt 0.932299793 0.579916239
vt 0.927307069 0.470480114
vt 0.898521483 0.533546984
vt 0.885077357 0.680927634
vt 0.885077357 0.680927634
vt 0.898519456 0.828308403
vt 0.898521483 0.533546984
vt 0.885077357 0.680927634
vt 0.538443565 0.683837354
vt 0.647960603 0.503133357
vt 0.647960603 0.683837354
vt 0.647960603 0.503133357
vt 0.538443565 0.683837354
vt 0.647960603 0.683837354
vt 0.403134346 0.274256349
vt 0.289428294 0.318751395
vt 0.403134346 0.318751395
vt 0.289428294 0.274256349
vt 0.403134346 0.274256349
vt 0.512461126 0.318751395
vt 0.512461126 0.274256349
vt 0.403134346 0.318751395
vt 0.512461126 0.274256349
vt 0.619876862 0.318751395
vt 0.619876862 0.274256349
vt 0.512461126 0.318751395
vt 0.551913917 0.810228944
vt 0.661430895 0.810228944
vt 0.661430895 0.990932941
vt 0.661430895 0.990932941
vt 0.661430895 0.810228944
vt 0.551913917 0.810228944
vt 0.405483246 0.274256349
vt 0.512898862 0.318751395
vt 0.512898862 0.274256349
vt 0.405483246 0.318751395
vt 0.512461126 0.274256349
vt 0.403134286 0.318751395
vt 0.512461126 0.318751395
vt 0.403134286 0.274256349
vt 0.403134286 0.274256349
vt 0.289428294 0.318751395
vt 0.403134286 0.318751395
vt 0.289428294 0.274256349
vt 0.0409973226 0.92919749
vt 0.100992776 0.675832033
vt 0.0409973226 0.675832033
vt 0.100992776 0.92919749
vt 0.0113839004 0.988514662
vt 0.0186027065 0.633522511
vt 0.0113839004 0.5882833
vt 0.0186027065 0.974250734
vt 0.122927412 0.633522511
vt 0.130146161 0.5882833
vt 0.122927412 0.974250734
vt 0.130146161 0.988514662
vt 0.0186027065 0.974250734
vt 0.0409973226 0.675832033
vt 0.0186027065 0.633522511
vt 0.0409973226 0.92919749
vt 0.0186027065 0.633522511
vt 0.100992776 0.675832033
vt 0.122927412 0.633522511
vt 0.0409973226 0.675832033
vt 0.122927412 0.633522511
vt 0.100992776 0.92919749
vt 0.122927412 0.974250734
vt 0.100992776 0.675832033
vt 0.122927412 0.974250734
vt 0.0409973226 0.92919749
vt 0.0186027065 0.974250734
vt 0.100992776 0.92919749
vt 0.572045386 0.254202902
vt 0.387274981 0.0136112552
vt 0.387274981 0.254202902
vt 0.572045386 0.0136112552
vt 0.387274981 0.254202902
vt 0.278939903 0.0136112552
vt 0.278939903 0.254202902
vt 0.387274981 0.0136112552
vt 0.130146161 0.988514662
vt 0.137033314 0.594741106
vt 0.130146161 0.5882833
vt 0.137033314 0.951537788
vt 0.680380404 0.254202902
vt 0.691308439 0.0504941009
vt 0.680380404 0.0136112552
vt 0.691308439 0.217320412
vt 0.137033314 0.951537788
vt 0.283780873 0.594741106
vt 0.137033314 0.594741106
vt 0.283780873 0.951537788
vt 0.691308439 0.217320412
vt 0.823507667 0.0504941009
vt 0.691308439 0.0504941009
vt 0.823507667 0.217320412
vt 0.283780873 0.951537788
vt 0.314723492 0.559092462
vt 0.283780873 0.594741106
vt 0.314723581 0.987186253
vt 0.314723581 0.987186253
vt 0.392615557 0.987186253
vt 0.357528448 0.945051014
vt 0.357528448 0.607380152
vt 0.314723492 0.559092462
vt 0.392615557 0.559092462
vt 0.856181204 0.254165709
vt 0.927234292 0.254165709
vt 0.89522779 0.206158638
vt 0.89522779 0.0616556332
vt 0.856181204 0.0136488173
vt 0.927234292 0.0136488173
vt 0.510950863 0.606782615
vt 0.489337593 0.558350325
vt 0.510950983 0.558350325
vt 0.0890500322 0.254165709
vt 0.0500033535 0.206158638
vt 0.0179969147 0.254165709
vt 0.0500033535 0.0616556332
vt 0.0890500322 0.0136488173
vt 0.0179969147 0.0136488173
vt 0.489337593 0.987727284
vt 0.510950863 0.945465624
vt 0.510950983 0.987727284
vt 0.278939903 0.254202902
vt 0.261869192 0.0504941009
vt 0.261869192 0.217320412
vt 0.278939903 0.0136112552
vt 0.261869192 0.217320412
vt 0.121723518 0.0504941009
vt 0.121723518 0.217320412
vt 0.261869192 0.0504941009
vt 0.121723518 0.217320412
vt 0.0890500322 0.0136488173
vt 0.0890500322 0.254165709
vt 0.121723518 0.0504941009
vt 0.0409963056 0.929206371
vt 0.100991808 0.675841033
vt 0.100991808 0.929206371
vt 0.0409963056 0.675841033
vt 0.0113828843 0.988523602
vt 0.018601723 0.633531392
vt 0.018601723 0.974259794
vt 0.0113828843 0.588292122
vt 0.122926459 0.633531392
vt 0.130145207 0.588292122
vt 0.122926459 0.974259794
vt 0.130145207 0.988523841
vt 0.018601723 0.974259794
vt 0.0409963056 0.675841033
vt 0.0409963056 0.929206371
vt 0.018601723 0.633531392
vt 0.018601723 0.633531392
vt 0.100991808 0.675841033
vt 0.0409963056 0.675841033
vt 0.122926459 0.633531392
vt 0.122926459 0.633531392
vt 0.100991808 0.929206371
vt 0.100991808 0.675841033
vt 0.122926459 0.974259794
vt 0.122926459 0.974259794
vt 0.0409963056 0.929206371
vt 0.100991808 0.929206371
vt 0.018601723 0.974259794
vt 0.402668059 0.945465624
vt 0.510950863 0.945465624
vt 0.489337593 0.987727284
vt 0.424281269 0.987727284
vt 0.402668059 0.606782615
vt 0.510950863 0.606782615
vt 0.424281269 0.558350325
vt 0.489337593 0.558350325
vt 0.680380404 0.0136112552
vt 0.572045386 0.254202902
vt 0.680380404 0.254202902
vt 0.572045386 0.0136112552
vt 0.130145207 0.988523841
vt 0.137032375 0.594750226
vt 0.137032375 0.951546669
vt 0.130145207 0.588292122
vt 0.137032375 0.951546669
vt 0.283779949 0.594750226
vt 0.283779949 0.951546669
vt 0.137032375 0.594750226
vt 0.283779949 0.951546669
vt 0.314722598 0.559101403
vt 0.314722598 0.987195671
vt 0.283779949 0.594750226
vt 0.823507667 0.0504941009
vt 0.856181204 0.254165709
vt 0.856181204 0.0136488173
vt 0.823507667 0.217320412
vt 0.314722598 0.987195671
vt 0.357527524 0.945060313
vt 0.392614633 0.987195671
vt 0.357527524 0.607389212
vt 0.314722598 0.559101403
vt 0.392614633 0.55910188
vt 0.402668059 0.606782615
vt 0.402668059 0.558350325
vt 0.424281269 0.558350325
vt 0.424281269 0.987727284
vt 0.402668059 0.987727284
vt 0.402668059 0.945465624
vt 0.517611563 0.829693615
vt 0.517611563 0.867735863
vt 0.551690459 0.829693615
vt 0.517611563 0.789230108
vt 0.517611563 0.829693615
vt 0.551690459 0.829693615
vt 0.559653401 0.988742173
vt 0.540726125 0.93330127
vt 0.579785764 0.93330127
vt 0.526675463 0.788083673
vt 0.539899349 0.749193907
vt 0.514701247 0.749193907
vt 0.555955946 0.791403651
vt 0.60356313 0.791403651
vt 0.645512223 0.749193907
vt 0.514701247 0.749193907
vt 0.555955946 0.704508424
vt 0.526675463 0.707828879
vt 0.539899349 0.749193907
vt 0.645512223 0.749193907
vt 0.60356313 0.704508424
vt 0.645512223 0.749193907
vt 0.60356313 0.791403651
vt 0.60356313 0.704508424
vt 0.518630028 0.648220479
vt 0.518630028 0.68626219
vt 0.552708864 0.648220479
vt 0.518630028 0.607756555
vt 0.518630028 0.648220479
vt 0.552708864 0.648220479
vt 0.559657753 0.988742173
vt 0.540730357 0.93330127
vt 0.579789996 0.93330127
vt 0.517611444 0.829693615
vt 0.55169034 0.829693615
vt 0.517611444 0.867735624
vt 0.517611444 0.789229751
vt 0.55169034 0.829693615
vt 0.517611444 0.829693615
vt 0.559653401 0.988742173
vt 0.579785764 0.93330127
vt 0.540726125 0.93330127
vt 0.526675463 0.788083434
vt 0.539899349 0.749193668
vt 0.555955946 0.791403651
vt 0.514701247 0.749193668
vt 0.60356313 0.791403651
vt 0.645512223 0.749193668
vt 0.514701247 0.749193668
vt 0.555955946 0.704508185
vt 0.539899349 0.749193668
vt 0.526675463 0.70782876
vt 0.645512223 0.749193668
vt 0.60356313 0.704508185
vt 0.645512223 0.749193668
vt 0.60356313 0.704508185
vt 0.60356313 0.791403651
vt 0.518629909 0.648220479
vt 0.552708745 0.648220479
vt 0.518630028 0.686262429
vt 0.518629909 0.607756555
vt 0.552708745 0.648220479
vt 0.518629909 0.648220479
vt 0.559657753 0.988742173
vt 0.579789996 0.93330127
vt 0.540730357 0.93330127
vn -0.999965906 0 -0.00826295931
vn -2.77555046E-07 -0.999965906 -0.00826356933
vn -0.999965906 0 -0.00826295838
vn -0 -0.999965906 -0.00826357026
vn 0.999965906 -2.17803276E-07 -0.00826421566
vn 0.999965906 0 -0.00826421566
vn 0.0175429452 0 0.999846101
vn 6.28116595E-07 0.0175423417 0.999846101
vn 0.0175429452 0 0.999846101
vn 6.35033871E-07 0.0175423399 0.999846101
vn -0.0175416861 0 0.999846101
vn -0.0175416842 1.0583603E-07 0.999846101
vn -0.91954267 1.94932028E-07 -0.392990023
vn -5.02644241E-07 -0.919542491 -0.392990619
vn -0.91954267 2.64528609E-07 -0.392990023
vn -3.89334645E-07 -0.919542491 -0.392990619
vn 0.919542193 -2.47294878E-07 -0.392991304
vn 0.919542193 0 -0.392991304
vn -0.969819069 2.83539777E-07 0.243825778
vn -1.62925559E-07 -0.969819188 0.243825227
vn -0.969819069 2.24126396E-07 0.243825749
vn -1.62925559E-07 -0.969819188 0.243825227
vn 0.969819307 -5.26714643E-07 0.243824586
vn 0.969819307 -1.58043335E-07 0.243824556
vn -0.022721678 1.41713045E-07 -0.999741852
vn -6.36656011E-07 -0.0227209125 -0.999741852
vn -0.022721678 1.46853921E-07 -0.999741852
vn -6.36260097E-07 -0.0227209143 -0.999741852
vn 0.0227204189 1.28883727E-07 -0.999741852
vn 0.0227204189 1.28091855E-07 -0.999741852
vn -0.99998498 6.49342667E-07 -0.00549551984
vn -8.64589026E-07 -0.99998498 -0.00549611636
vn -0.99998498 6.47749346E-07 -0.00549551891
vn -3.29287019E-07 -0.99998498 -0.00549611636
vn 0.99998498 -8.06876358E-07 -0.0054967762
vn 0.99998498 -4.86491672E-07 -0.0054967762
vn -0.578431964 4.26411219E-07 0.815730572
vn 4.13700576E-07 -0.578432858 0.815730035
vn -0.578431964 1.69891564E-07 0.815730572
vn 1.66139799E-07 -0.578432798 0.815730035
vn 0.578433633 -4.05141179E-07 0.81572938
vn 0.578433633 -6.43654005E-07 0.81572938
vn -0.960270703 8.31843863E-07 -0.279070109
vn -1.00182854E-06 -0.960270584 -0.279070675
vn -0.960270703 1.14399154E-06 -0.279070109
vn -8.49446337E-07 -0.960270584 -0.279070646
vn 0.960270464 -7.89458056E-07 -0.279071182
vn 0.960270464 -6.06964136E-07 -0.279071182
vn -0.99996078 7.04146487E-07 -0.00886211824
vn 1.49805672E-07 -0.999962926 -0.00860959385
vn -0.99996078 9.68394943E-07 -0.00886211824
vn -0.99996078 7.04146487E-07 -0.00886211824
vn 1.53657254E-07 -0.999962926 -0.00860959291
vn 1.49805672E-07 -0.999962926 -0.00860959385
vn 0.999965072 -9.12915368E-07 -0.0083574485
vn -0.958765864 8.33398133E-07 0.284196973
vn -6.1670454E-07 -0.958766103 0.284196317
vn -0.958765864 7.27118675E-07 0.284197003
vn -7.85952807E-07 -0.958766103 0.284196347
vn 0.958766341 -8.93316212E-07 0.284195751
vn 0.958766341 -7.22805964E-07 0.284195751
vn -0.845861316 0.53340292 6.02086686E-07
vn -0.707106113 0.707107365 5.38101801E-07
vn 0.707106233 -0.707107246 -5.38101801E-07
vn 8.62471836E-07 1 1.33157712E-07
vn 8.08808693E-07 1 1.33157755E-07
vn 0.923879802 0.3826828 -5.29084843E-07
vn 9.35655521E-07 0.426401317 0.904534042
vn 0.923879802 -6.13375562E-07 0.38268286
vn 0.894427478 -3.50991456E-07 0.447212934
vn 0.948683441 -3.51228493E-07 0.316227168
vn 0.707106233 -0.707107246 -5.38101801E-07
vn 0.816496313 -0.577350676 -5.89502406E-07
vn -0.707107425 -0.707106054 3.49788422E-07
vn -0.382683009 7.72927365E-07 0.923879743
vn 0.97528708 0.220941588 -5.82897258E-07
vn 0.816496313 -0.577350676 -5.89502406E-07
vn -0.233544037 5.91571734E-07 -0.972346246
vn -8.96825668E-07 -0.233543113 -0.972346485
vn -0.233544067 8.23202583E-07 -0.972346246
vn -6.77154674E-07 -0.233543113 -0.972346485
vn 0.23354286 2.504934E-07 -0.972346485
vn 0.233542904 4.29960977E-07 -0.972346485
vn -0.949362397 1.00016416E-06 0.314183176
vn -7.22342747E-07 -0.949362516 0.314182818
vn -0.949362397 9.99812528E-07 0.314183146
vn -9.82119786E-07 -0.949362516 0.314182818
vn 0.949362755 -7.17331034E-07 0.314182043
vn 0.949362755 -1.0838362E-06 0.314182043
vn -0.922235727 4.77317087E-07 -0.386628181
vn -1.42089436E-06 -0.922235489 -0.386628687
vn -0.922235727 1.01022533E-06 -0.386628181
vn -1.16990054E-06 -0.922235489 -0.386628687
vn 0.922235072 -1.08279016E-06 -0.386629432
vn 0.922235072 -1.06367702E-06 -0.386629432
vn -1 2.09648852E-06 0.000250970683
vn -2.04309526E-06 -1 0.000250379962
vn -1 2.09688733E-06 0.000250970654
vn -1.98905082E-06 -1 0.000250379991
vn 1 -2.0969544E-06 0.000249727862
vn 1 -1.82827034E-06 0.000249727891
vn -0.719918132 2.11591737E-06 0.694059014
vn -5.62552884E-07 -0.719918728 0.694058359
vn -0.719918072 9.75315515E-07 0.694059074
vn -1.77258426E-06 -0.719918668 0.694058418
vn 0.719919086 -1.09072494E-06 0.694058001
vn 0.719919086 -2.23026586E-06 0.694057941
vn -0.999974608 2.10333951E-06 -0.0071264077
vn -2.0420116E-06 -0.999974608 -0.00712698512
vn -0.999974608 2.09197651E-06 -0.00712640677
vn -1.99919486E-06 -0.999974608 -0.00712698512
vn 0.999974608 -2.14356919E-06 -0.00712766359
vn 0.999974608 -1.93993583E-06 -0.00712766265
vn -0.868235886 1.78140499E-06 -0.496151626
vn -3.09023289E-06 -0.868235528 -0.496152252
vn -0.868235886 2.80388349E-06 -0.496151626
vn -1.86406282E-06 -0.868235528 -0.496152192
vn 0.86823535 -2.71266549E-06 -0.49615258
vn 0.86823535 -1.48649553E-06 -0.49615258
vn -1 3.65230972E-06 0.000392656657
vn -3.81430891E-06 -1 0.000392082758
vn -1 3.54613894E-06 0.000392656657
vn -3.65211622E-06 -1 0.0003920827
vn 1 -3.92195079E-06 0.000391400972
vn 1 -3.65241362E-06 0.000391401001
vn -0.392805159 1.74789056E-06 0.919621706
vn 2.45280972E-07 -0.392805785 0.919621408
vn -0.392805129 1.53970106E-07 0.919621706
vn -1.36323331E-06 -0.392805845 0.919621408
vn 0.392806232 -4.35988795E-07 0.91962117
vn 0.392806292 -2.06305731E-06 0.91962117
vn -0.985078216 3.11530994E-06 0.17210713
vn -2.63840116E-06 -0.985078335 0.172106519
vn -0.985078216 2.66578854E-06 0.17210713
vn -2.78304606E-06 -0.985078335 0.172106519
vn 0.985078454 -2.88487104E-06 0.172105879
vn 0.985078454 -2.96344342E-06 0.172105893
vn -0.649939299 1.90594324E-06 0.759986162
vn -4.0764013E-07 -0.649939835 0.759985685
vn -0.649939239 7.48164496E-07 0.759986162
vn -1.56324484E-06 -0.649939835 0.759985685
vn 0.649940133 -9.50561457E-07 0.759985387
vn 0.649940133 -2.17483444E-06 0.759985387
vn -0.0829982832 1.73959009E-07 -0.996549606
vn -9.70475071E-07 -0.0829975381 -0.996549726
vn -0.0829982907 4.67974161E-07 -0.996549606
vn -6.6218837E-07 -0.0829975531 -0.996549726
vn 0.0829970315 -2.05754162E-07 -0.996549726
vn 0.0829970241 0 -0.996549726
vn -0.999997139 3.86344482E-06 0.00240585068
vn -3.86992451E-06 -0.999997139 0.00240532611
vn -0.999997139 3.87111459E-06 0.00240585068
vn -3.86225429E-06 -0.999997139 0.00240532611
vn 0.999997139 -4.14036049E-06 0.0024047175
vn 0.999997139 -3.70327007E-06 0.0024047175
vn 1.53657254E-07 -0.999962926 -0.00860959291
vn 0.999965072 -1.13251201E-06 -0.0083574485
vn 0.999965072 -9.12915368E-07 -0.0083574485
vn 0.999965906 0 -0.00826421566
vn 2.13715495E-07 0.999965906 -0.00826360472
vn 0.999965906 -2.17803276E-07 -0.00826421566
vn -2.17982873E-07 0.999965906 -0.00826360285
vn -0.999965906 0 -0.00826295838
vn -0.999965906 0 -0.00826295931
vn -0.0175416842 1.0583603E-07 0.999846101
vn 6.23206233E-07 -0.017542135 0.999846101
vn -0.0175416861 0 0.999846101
vn 6.25973996E-07 -0.017542135 0.999846101
vn 0.0175429452 0 0.999846101
vn 0.0175429452 0 0.999846101
vn 0.919542193 0 -0.392991304
vn -0 0.919542491 -0.392990708
vn 0.919542193 -2.47294878E-07 -0.392991304
vn -0 0.919542491 -0.392990708
vn -0.91954267 2.64528609E-07 -0.392990023
vn -0.91954267 1.94932028E-07 -0.392990023
vn 0.969819307 -1.58043335E-07 0.243824556
vn 4.98795316E-07 0.969819188 0.243825108
vn 0.969819307 -5.26714643E-07 0.243824586
vn 5.16696332E-07 0.969819188 0.243825078
vn -0.969819069 2.24126396E-07 0.243825749
vn -0.969819069 2.83539777E-07 0.243825778
vn 0.0227204189 1.28091855E-07 -0.999741852
vn -6.18685874E-07 0.0227211844 -0.999741852
vn 0.0227204189 1.28883727E-07 -0.999741852
vn -6.19081788E-07 0.0227211863 -0.999741852
vn -0.022721678 1.46853921E-07 -0.999741852
vn -0.022721678 1.41713045E-07 -0.999741852
vn 0.99998498 -4.86491672E-07 -0.0054967762
vn 8.0415748E-07 0.99998498 -0.00549617968
vn 0.99998498 -8.06876358E-07 -0.0054967762
vn 4.29977149E-07 0.99998498 -0.00549617922
vn -0.99998498 6.47749346E-07 -0.00549551891
vn -0.99998498 6.49342667E-07 -0.00549551984
vn 0.578433633 -6.43654005E-07 0.81572938
vn 9.16705062E-07 0.57843262 0.815730214
vn 0.578433633 -4.05141179E-07 0.81572938
vn 1.23620521E-06 0.57843262 0.815730095
vn -0.578431964 1.69891564E-07 0.815730572
vn -0.578431964 4.26411219E-07 0.815730572
vn 0.960270464 -6.06964136E-07 -0.279071182
vn 7.44813292E-07 0.960270584 -0.279070646
vn 0.960270464 -7.89458056E-07 -0.279071182
vn 5.89361775E-07 0.960270584 -0.279070646
vn -0.960270703 1.14399154E-06 -0.279070109
vn -0.960270703 8.31843863E-07 -0.279070109
vn 0.999965072 -1.13251201E-06 -0.0083574485
vn 1.92386551E-06 0.999962926 -0.00860997103
vn 0.999965072 -9.12915368E-07 -0.0083574485
vn 0.999965072 -1.13251201E-06 -0.0083574485
vn 1.88287675E-06 0.999962926 -0.0086099701
vn 1.92386551E-06 0.999962926 -0.00860997103
vn -0.99996078 9.68394943E-07 -0.00886211824
vn 0.958766341 -7.22805964E-07 0.284195751
vn 9.1321948E-07 0.958766103 0.284196466
vn 0.958766341 -8.93316212E-07 0.284195751
vn 1.04966909E-06 0.958765984 0.284196436
vn -0.958765864 7.27118675E-07 0.284197003
vn -0.958765864 8.33398133E-07 0.284196973
vn 0.233542904 4.29960977E-07 -0.972346485
vn -2.84693073E-07 0.233544245 -0.972346246
vn 0.23354286 2.504934E-07 -0.972346485
vn -4.87299872E-07 0.23354426 -0.972346246
vn -0.233544067 8.23202583E-07 -0.972346246
vn -0.233544037 5.91571734E-07 -0.972346246
vn 0.949362755 -1.0838362E-06 0.314182043
vn 9.94800416E-07 0.949362636 0.31418252
vn 0.949362755 -7.17331034E-07 0.314182043
vn 1.19346339E-06 0.949362636 0.31418249
vn -0.949362397 9.99812528E-07 0.314183146
vn -0.949362397 1.00016416E-06 0.314183176
vn 0.922235072 -1.06367702E-06 -0.386629432
vn 8.03769183E-07 0.92223537 -0.386628956
vn 0.922235072 -1.08279016E-06 -0.386629432
vn 5.9042469E-07 0.92223531 -0.386628956
vn -0.922235727 1.01022533E-06 -0.386628181
vn -0.922235727 4.77317087E-07 -0.386628181
vn 1 -1.82827034E-06 0.000249727891
vn 1.98973976E-06 1 0.000250318582
vn 1 -2.0969544E-06 0.000249727862
vn 1.93570827E-06 1 0.000250318582
vn -1 2.09688733E-06 0.000250970654
vn -1 2.09648852E-06 0.000250970683
vn 0.719919086 -2.23026586E-06 0.694057941
vn 1.50348808E-06 0.719918489 0.694058657
vn 0.719919086 -1.09072494E-06 0.694058001
vn 2.6440905E-06 0.719918489 0.694058657
vn -0.719918072 9.75315515E-07 0.694059074
vn -0.719918132 2.11591737E-06 0.694059014
vn 0.999974608 -1.93993583E-06 -0.00712766265
vn 2.03306172E-06 0.999974608 -0.00712708523
vn 0.999974608 -2.14356919E-06 -0.00712766359
vn 2.04408116E-06 0.999974608 -0.00712708663
vn -0.999974608 2.09197651E-06 -0.00712640677
vn -0.999974608 2.10333951E-06 -0.0071264077
vn 0.86823535 -1.48649553E-06 -0.49615258
vn 2.67180758E-06 0.868235648 -0.496152014
vn 0.86823535 -2.71266549E-06 -0.49615258
vn 1.14339537E-06 0.868235648 -0.496152073
vn -0.868235886 2.80388349E-06 -0.496151626
vn -0.868235886 1.78140499E-06 -0.496151626
vn 1 -3.65241362E-06 0.000391401001
vn 3.81480095E-06 1 0.00039197522
vn 1 -3.92195079E-06 0.000391400972
vn 3.70626299E-06 1 0.000391975162
vn -1 3.54613894E-06 0.000392656657
vn -1 3.65230972E-06 0.000392656657
vn 0.392806292 -2.06305731E-06 0.91962117
vn 9.28010593E-07 0.392805517 0.919621587
vn 0.392806232 -4.35988795E-07 0.91962117
vn 2.48986862E-06 0.392805576 0.919621587
vn -0.392805129 1.53970106E-07 0.919621706
vn -0.392805159 1.74789056E-06 0.919621706
vn 0.985078454 -2.96344342E-06 0.172105893
vn 2.9122582E-06 0.985078335 0.172106445
vn 0.985078454 -2.88487104E-06 0.172105879
vn 2.85087845E-06 0.985078335 0.172106445
vn -0.985078216 2.66578854E-06 0.17210713
vn -0.985078216 3.11530994E-06 0.17210713
vn 0.649940133 -2.17483444E-06 0.759985387
vn 1.2910856E-06 0.649939537 0.759985864
vn 0.649940133 -9.50561457E-07 0.759985387
vn 2.48428546E-06 0.649939597 0.759985805
vn -0.649939239 7.48164496E-07 0.759986162
vn -0.649939299 1.90594324E-06 0.759986162
vn 0.0829970241 0 -0.996549726
vn -2.87213823E-07 0.0829978064 -0.996549726
vn 0.0829970315 -2.05754162E-07 -0.996549726
vn -5.89145259E-07 0.0829978213 -0.996549726
vn -0.0829982907 4.67974161E-07 -0.996549606
vn -0.0829982832 1.73959009E-07 -0.996549606
vn 0.999997139 -3.70327007E-06 0.0024047175
vn 3.81922291E-06 0.999997139 0.00240524136
vn 0.999997139 -4.14036049E-06 0.0024047175
vn 3.81167001E-06 0.999997139 0.00240524113
vn -0.999997139 3.87111459E-06 0.00240585068
vn -0.999997139 3.86344482E-06 0.00240585068
vn 1.88287675E-06 0.999962926 -0.0086099701
vn -0.99996078 7.04146487E-07 -0.00886211824
vn -0.99996078 9.68394943E-07 -0.00886211824
vn -1.4293434E-07 -0.955165684 0.296071887
vn 6.16315617E-07 -0.0135813542 0.999907732
vn 6.16315617E-07 -0.0135813542 0.999907732
vn -1.42934311E-07 -0.955165684 0.296071917
vn -7.11370944E-07 -0.576743901 -0.816925049
vn -7.11370944E-07 -0.576743901 -0.816925049
vn -3.07781846E-07 0.598718345 -0.800959706
vn -3.07781846E-07 0.598718345 -0.800959706
vn 5.10600103E-07 0.94677186 0.321905226
vn 5.10600103E-07 0.94677186 0.321905226
vn 6.16315617E-07 -0.0135813542 0.999907732
vn 6.16315617E-07 -0.0135813542 0.999907732
vn 1 -3.25841256E-07 -6.2783306E-07
vn 1 -3.25841256E-07 -6.2783306E-07
vn 1 -3.25841256E-07 -6.2783306E-07
vn 1 -3.25841228E-07 -6.27833117E-07
vn 1 -3.25841256E-07 -6.2783306E-07
vn -1 3.25841256E-07 6.2783306E-07
vn -1 3.25841228E-07 6.27833117E-07
vn -1 3.25841256E-07 6.2783306E-07
vn -1 3.25841228E-07 6.27833117E-07
vn -1 3.25841256E-07 6.2783306E-07
vn 3.80276958E-07 -1.50840762E-07 1
vn 0.15223673 -0.98085922 0.121404745
vn -3.36364224E-07 -0.980859399 0.194717512
vn 0.78183192 -3.37775759E-07 0.623489141
vn -0.781832337 3.37775816E-07 -0.623488724
vn -2.9673825E-07 1.33158153E-07 -1
vn -0.781831443 1.54047754E-07 0.623489857
vn -0.152237117 -0.98085922 0.121404789
vn 0.781831384 -1.71730264E-07 -0.623489916
vn 0.78183192 -3.37775759E-07 0.623489141
vn 0.189836055 -0.98085922 -0.0433294214
vn 0.974927902 -2.88041377E-07 -0.222520813
vn -0.974928081 2.88041491E-07 0.222520247
vn -0.781832337 3.37775816E-07 -0.623488724
vn 0.974927902 -2.88041377E-07 -0.222520813
vn 0.0844851136 -0.980858982 -0.175436527
vn 0.433883458 0 -0.900969028
vn -0.433883756 0 0.90096879
vn -0.974928081 2.88041491E-07 0.222520247
vn 0.0844857469 0.980858982 -0.175436333
vn 0.189836606 0.980859101 -0.0433291718
vn -0.084485583 -0.980858982 -0.175436154
vn -0.433884203 2.61348674E-07 -0.90096873
vn 0.43388474 -2.14049493E-07 0.900968313
vn -0.781832337 3.37775816E-07 -0.623488724
vn 0.152237311 0.980859101 0.121404991
vn -0.974928081 2.88041491E-07 0.222520247
vn 0.974927902 -2.88041377E-07 -0.222520813
vn 0.78183192 -3.37775759E-07 0.623489141
vn -2.9673825E-07 1.33158153E-07 -1
vn 3.02844853E-07 0.980859339 0.19471778
vn -0.781832337 3.37775816E-07 -0.623488724
vn 0.78183192 -3.37775759E-07 0.623489141
vn 3.80276958E-07 -1.50840762E-07 1
vn 0.781831384 -1.71730264E-07 -0.623489916
vn -0.152236462 0.980859339 0.121405043
vn -0.781831443 1.54047754E-07 0.623489857
vn -0.433884203 2.61348674E-07 -0.90096873
vn -0.189836517 -0.98085922 -0.0433288701
vn -0.974927902 3.47302318E-07 -0.222521245
vn 0.974927902 -3.23652671E-07 0.222521186
vn 0.43388474 -2.14049493E-07 0.900968313
vn -0.189835861 0.980859339 -0.0433286391
vn -0.0844849199 0.980859101 -0.175435916
vn -0.433883756 0 0.90096879
vn 0.433883458 0 -0.900969028
vn -0.781831443 1.54047754E-07 0.623489857
vn -0.974927902 3.47302318E-07 -0.222521245
vn -0.974927902 3.47302318E-07 -0.222521245
vn -0.152237117 -0.98085922 0.121404789
vn -0.781831443 1.54047754E-07 0.623489857
vn 0.781831384 -1.71730264E-07 -0.623489916
vn 0.974927902 -3.23652671E-07 0.222521186
vn 0.974927902 -3.23652671E-07 0.222521186
vn -0.152236462 0.980859339 0.121405043
vn 0.781831384 -1.71730264E-07 -0.623489916
vn 0.926466346 -2.51763396E-07 -0.376377493
vn 0.926466346 -2.51763396E-07 -0.376377493
vn 0.926466346 -2.51763396E-07 -0.376377493
vn 1.76221263E-07 0.974357963 -0.225003675
vn 1.76221263E-07 0.974357963 -0.225003675
vn 1.76221263E-07 0.974357963 -0.225003675
vn -0.926466942 3.51998722E-07 -0.376376063
vn -0.926466942 3.51998722E-07 -0.376376063
vn -0.926466942 3.51998722E-07 -0.376376092
vn -4.58750918E-07 -0.974357843 -0.225003973
vn -4.58750918E-07 -0.974357843 -0.225003973
vn -4.58750918E-07 -0.974357843 -0.225003958
vn 0.305780619 0 -0.952102005
vn 0.305780619 0 -0.952102005
vn 0.305780619 0 -0.952102005
vn -0.162348911 0.974996209 -0.151740223
vn -0.162348896 0.974996209 -0.151740193
vn -0.162348926 0.974996209 -0.151740208
vn -0.877416611 3.59556822E-07 0.479729325
vn -0.877416611 3.5955685E-07 0.479729325
vn -0.877416611 3.59556822E-07 0.479729325
vn -0.162350059 -0.974995971 -0.151740789
vn -0.162350059 -0.974995971 -0.151740789
vn -0.162350044 -0.974995971 -0.151740789
vn -0.558542252 3.8000087E-07 -0.829476118
vn -0.558542252 3.8000087E-07 -0.829476118
vn -0.558542252 3.8000087E-07 -0.829476118
vn -0.252501667 0.966768444 0.0400220454
vn -0.252501667 0.966768444 0.0400220454
vn -0.252501667 0.966768444 0.0400220454
vn -0.274662644 -2.40708118E-06 0.961540699
vn -0.274662614 -2.40708096E-06 0.961540699
vn -0.274662614 -2.40708096E-06 0.961540699
vn -0.252502412 -0.966768205 0.0400222205
vn -0.252502412 -0.966768205 0.0400222205
vn -0.252502441 -0.966768205 0.0400222242
vn -0.305781811 2.26416347E-07 -0.952101588
vn -0.305781782 2.26416347E-07 -0.952101588
vn -0.305781752 2.26416333E-07 -0.952101588
vn 0.162349761 0.97499609 -0.151740476
vn 0.162349761 0.97499609 -0.151740476
vn 0.162349761 0.97499609 -0.151740462
vn 0.877417147 -3.49778446E-07 0.479728252
vn 0.877417147 -3.49778446E-07 0.479728252
vn 0.877417147 -3.49778446E-07 0.479728252
vn 0.162348926 -0.97499609 -0.151740909
vn 0.162348926 -0.97499609 -0.151740924
vn 0.162348926 -0.97499609 -0.151740909
vn 0.558541238 0 -0.829476774
vn 0.558541238 0 -0.829476774
vn 0.558541179 0 -0.829476774
vn 0.252502441 0.966768205 0.0400218889
vn 0.252502471 0.966768205 0.0400218852
vn 0.252502441 0.966768205 0.0400218852
vn 0.274663806 -2.45691126E-06 0.961540341
vn 0.274663806 -2.45691103E-06 0.961540341
vn 0.274663806 -2.45691103E-06 0.961540341
vn 0.252501816 -0.966768444 0.0400218554
vn 0.252501786 -0.966768444 0.0400218517
vn 0.252501816 -0.966768444 0.0400218554
vn -1.14965012E-07 -0.9506495 0.310266882
vn -0.258246481 0.00126990315 0.966078222
vn 5.54122266E-07 0.00131451711 0.999999166
vn -0.258247137 -0.918402314 0.299742371
vn -6.6251539E-07 -0.588848233 -0.808243632
vn -0.258247733 -0.568873763 -0.780827105
vn -1.83129771E-07 0.586721063 -0.809789121
vn -0.258247256 0.566819191 -0.782319963
vn 5.44954503E-07 0.951461971 0.307766497
vn -0.258246511 0.919187367 0.297326863
vn 5.54122266E-07 0.00131451711 0.999999166
vn -0.258246481 0.00126990315 0.966078222
vn -1 2.86382345E-07 4.89726744E-07
vn -1 2.86382345E-07 4.89726744E-07
vn -0.258246481 0.00126990315 0.966078222
vn -0.258246481 0.00126990315 0.966078222
vn -1 2.86382345E-07 4.89726744E-07
vn 3.2584137E-07 1 1.33158053E-07
vn 3.2584137E-07 1 1.33158053E-07
vn 3.2584137E-07 1 1.33158053E-07
vn -3.2584137E-07 -1 -1.33158053E-07
vn -3.2584137E-07 -1 -1.33158053E-07
vn -3.2584137E-07 -1 -1.33158053E-07
vn -0.640965879 3.11061228E-07 -0.767569363
vn -0.640965879 3.11061228E-07 -0.767569363
vn -0.640965879 3.11061228E-07 -0.767569363
vn -0.640965879 3.11061228E-07 -0.767569363
vn 1 -3.25841256E-07 -6.2783306E-07
vn 1 -3.25841256E-07 -6.2783306E-07
vn 1 -3.25841256E-07 -6.2783306E-07
vn 1 -3.25841256E-07 -6.2783306E-07
vn 6.27833003E-07 -1.33158252E-07 1
vn 6.27833003E-07 -1.33158252E-07 1
vn 6.27833003E-07 -1.33158252E-07 1
vn 6.27833003E-07 -1.33158252E-07 1
vn 3.2584137E-07 1 1.33158053E-07
vn 3.2584137E-07 1 1.33158053E-07
vn 3.2584137E-07 1 1.33158053E-07
vn -3.2584137E-07 -1 -1.33158053E-07
vn -3.2584137E-07 -1 -1.33158053E-07
vn -3.2584137E-07 -1 -1.33158053E-07
vn -0.640964866 1.06644706E-07 0.767570198
vn -0.640964866 1.06644706E-07 0.767570198
vn -0.640964866 1.06644706E-07 0.767570198
vn -0.640964866 1.06644706E-07 0.767570198
vn 1 -3.25841256E-07 -6.2783306E-07
vn 1 -3.25841256E-07 -6.2783306E-07
vn 1 -3.25841256E-07 -6.2783306E-07
vn 1 -3.25841256E-07 -6.2783306E-07
vn -6.27833003E-07 1.33158252E-07 -1
vn -6.27833003E-07 1.33158252E-07 -1
vn -6.27833003E-07 1.33158252E-07 -1
vn -6.27833003E-07 1.33158252E-07 -1
vn -3.54987435E-07 -1 0
vn -3.54987435E-07 -1 0
vn -3.54987463E-07 -1 0
vn -3.54987463E-07 -1 0
vn -2.43664033E-07 -1 -1.80954927E-07
vn -2.43664033E-07 -1 -1.80954927E-07
vn -2.43664033E-07 -1 -1.80954927E-07
vn -2.43664033E-07 -1 -1.80954927E-07
vn -4.45376969E-07 -1 -7.1552239E-07
vn -4.45376969E-07 -1 -7.1552239E-07
vn 9.14340319E-07 -1 -1.34324665E-07
vn 9.14340433E-07 -1 -1.34324679E-07
vn 0.582457423 -0.812861204 -4.01156399E-07
vn 0.582457364 -0.812861204 -4.01156342E-07
vn 0.582457364 -0.812861204 -4.01156342E-07
vn 0.582457423 -0.812861204 -4.01156399E-07
vn -0 -0.800225914 0.599698663
vn -0 -0.800225914 0.599698663
vn -0 -0.800225914 0.599698663
vn -0 -0.800225914 0.599698663
vn -0.590443373 -0.807079077 3.56615772E-07
vn -0.590443373 -0.807079077 3.56615772E-07
vn -0.590443373 -0.807079077 3.566158E-07
vn -0.590443432 -0.807079077 3.566158E-07
vn -6.93587708E-07 -0.817778885 -0.575532496
vn -6.93587708E-07 -0.817778885 -0.575532496
vn -6.93587765E-07 -0.817778885 -0.575532556
vn -6.93587651E-07 -0.817778885 -0.575532496
vn -1 3.25841256E-07 6.2783306E-07
vn -1 3.25841256E-07 6.2783306E-07
vn -1 3.25841256E-07 6.2783306E-07
vn -1 3.25841228E-07 6.27833117E-07
vn 5.9838527E-07 -1.59867483E-07 1
vn 5.9838527E-07 -1.59867483E-07 1
vn 5.9838527E-07 -1.59867483E-07 1
vn 5.9838527E-07 -1.59867483E-07 1
vn 1 -3.25841256E-07 -6.2783306E-07
vn 1 -3.25841256E-07 -6.2783306E-07
vn 1 -3.25841256E-07 -6.2783306E-07
vn 1 -3.25841256E-07 -6.2783306E-07
vn 1 -3.25841256E-07 -6.2783306E-07
vn 1 -3.25841256E-07 -6.2783306E-07
vn 1 -3.25841256E-07 -6.2783306E-07
vn 1 -3.25841256E-07 -6.2783306E-07
vn -3.25841313E-07 -1 0
vn -3.25841313E-07 -1 0
vn -3.25841313E-07 -1 0
vn -3.25841313E-07 -1 0
vn -6.50596576E-07 2.4871602E-07 -1
vn -6.50596576E-07 2.4871602E-07 -1
vn -6.50596576E-07 2.4871602E-07 -1
vn -6.50596576E-07 2.4871602E-07 -1
vn -0.543841481 -0.83918798 3.26892177E-07
vn -0.543841481 -0.83918798 3.26892177E-07
vn -0.543841481 -0.83918798 3.26892177E-07
vn -0.543841481 -0.83918798 3.26892177E-07
vn -4.38089785E-07 -1 -7.88986824E-07
vn -4.38089785E-07 -1 -7.88986711E-07
vn -4.38089785E-07 -1 -7.88986824E-07
vn -3.25840887E-07 -1 6.00273154E-07
vn -3.25840887E-07 -1 6.00273211E-07
vn -3.25840887E-07 -1 6.00273154E-07
vn -6.27833003E-07 1.33158252E-07 -1
vn -6.27833003E-07 1.33158252E-07 -1
vn -6.27833003E-07 1.33158252E-07 -1
vn -6.27833003E-07 1.33158252E-07 -1
vn -6.27833003E-07 1.33158252E-07 -1
vn -2.68640008E-07 7.21632262E-07 -1
vn 0.453382552 0.608860314 0.650947928
vn 0.453382552 0.608860314 0.650947928
vn 0.453382552 0.608860314 0.650947928
vn 8.97228006E-07 2.28620053E-07 1
vn 8.97228006E-07 2.28620067E-07 1
vn 8.97228006E-07 2.28620053E-07 1
vn 3.58438257E-07 -5.7451382E-07 1
vn 3.58438257E-07 -5.74513876E-07 1
vn 3.58438257E-07 -5.7451382E-07 1
vn 0.425982922 0.572065532 -0.700913489
vn 0.425982922 0.572065473 -0.700913429
vn 0.425982922 0.572065532 -0.700913489
vn 1 -3.25841256E-07 -6.2783306E-07
vn 1 -3.25841256E-07 -6.2783306E-07
vn 1 -3.25841256E-07 -6.2783306E-07
vn 1 -3.25841256E-07 -6.2783306E-07
vn 7.18887293E-07 -2.87235252E-07 1
vn 7.18887293E-07 -2.87235252E-07 1
vn 7.18887293E-07 -2.87235252E-07 1
vn 7.18887293E-07 -2.87235281E-07 1
vn -0.503696561 0 0.863880575
vn -0.503696561 0 0.863880694
vn -0.503696561 0 0.863880694
vn -0.503696561 0 0.863880694
vn 3.84133699E-07 1 0
vn 3.84133699E-07 1 0
vn 3.84133699E-07 1 0
vn 3.84133699E-07 1 0
vn 1.41629471E-06 1 0
vn 1.41629471E-06 1 0
vn 1.41629471E-06 1 0
vn 1.41629459E-06 1 0
vn 3.88548528E-07 1 4.3866055E-07
vn 3.88548528E-07 1 4.3866055E-07
vn 1.63818072E-07 1 0
vn 1.63818058E-07 1 0
vn 0.582458735 0.81286025 -3.5266649E-07
vn 0.582458794 0.81286025 -3.52666575E-07
vn 0.582458794 0.81286025 -3.52666575E-07
vn 0.582458735 0.81286025 -3.52666547E-07
vn 6.46008118E-07 0.800225198 0.599699676
vn 6.46008118E-07 0.800225139 0.599699676
vn 6.46008232E-07 0.800225139 0.599699676
vn 6.46008118E-07 0.800225139 0.599699676
vn -0.59044373 0.807078779 3.79290867E-07
vn -0.59044373 0.807078779 3.79290867E-07
vn -0.59044373 0.807078838 3.79290896E-07
vn -0.59044379 0.807078779 3.79290896E-07
vn -0 0.817778409 -0.575533271
vn -0 0.817778409 -0.57553333
vn -0 0.817778409 -0.575533271
vn -0 0.817778409 -0.57553333
vn 1 -3.25841256E-07 -6.2783306E-07
vn 1 -3.25841228E-07 -6.27833117E-07
vn 1 -3.25841256E-07 -6.2783306E-07
vn 1 -3.25841256E-07 -6.2783306E-07
vn 1 -3.25841256E-07 -6.2783306E-07
vn 1 -3.25841256E-07 -6.2783306E-07
vn 1 -3.25841256E-07 -6.2783306E-07
vn 1 -3.25841256E-07 -6.2783306E-07
vn -6.27832947E-07 2.39995217E-07 -1
vn -6.27833003E-07 2.39995217E-07 -1
vn -6.27833003E-07 2.39995217E-07 -1
vn -6.27833003E-07 2.39995217E-07 -1
vn 1 -3.25841256E-07 -6.2783306E-07
vn 1 -3.25841256E-07 -6.2783306E-07
vn 1 -3.25841256E-07 -6.2783306E-07
vn 1 -3.25841256E-07 -6.2783306E-07
vn 3.48604885E-07 1 0
vn 3.48604885E-07 1 0
vn 3.48604885E-07 1 0
vn 3.48604885E-07 1 0
vn -0.543841124 0.839188159 4.37424859E-07
vn -0.543841064 0.839188159 4.37424774E-07
vn -0.543841124 0.839188159 4.37424831E-07
vn -0.543841124 0.839188159 4.37424859E-07
vn -0.503698111 3.05000299E-07 -0.863879681
vn -0.503698111 3.05000299E-07 -0.863879681
vn -0.503698111 3.05000299E-07 -0.863879681
vn -0.503698111 3.05000299E-07 -0.863879681
vn 3.2584137E-07 1 1.33158053E-07
vn 3.2584137E-07 1 1.33158053E-07
vn 3.2584137E-07 1 1.33158053E-07
vn 3.2584137E-07 1 1.33158053E-07
vn 3.2584137E-07 1 1.33158053E-07
vn 3.2584137E-07 1 1.33158053E-07
vn 0.453381777 -0.608861089 0.650947869
vn 0.453381807 -0.608861089 0.650947869
vn 0.453381777 -0.608861089 0.650947869
vn 0.425982594 -0.572065651 -0.700913489
vn 0.425982594 -0.572065771 -0.700913489
vn 0.425982594 -0.572065651 -0.700913489
vn -0.00800060388 -0.67212534 0.740394175
vn -0.00800060295 -0.67212534 0.740394235
vn -0.00800060388 -0.67212534 0.740394235
vn -0.0082690781 -0.694598734 -0.719349802
vn -0.00826907903 -0.694598854 -0.719349742
vn -0.0082690781 -0.694598734 -0.719349742
vn 0.535594821 0.84447515 -2.23815249E-07
vn 0.535594761 0.84447515 -2.23815249E-07
vn 0.535594761 0.84447515 -2.23815249E-07
vn -0.626542687 -0.437965453 0.644694209
vn -0.357463747 -0.599075973 0.716468871
vn -0.626542687 -0.437965453 0.64469409
vn -0.295354605 -0.625430703 0.722220242
vn -0.00561204925 -0.706725895 0.707465112
vn -0.00561204879 -0.706725895 0.707465112
vn -0.641229749 -0.449067771 -0.622223854
vn -0.30403322 -0.644235551 -0.701800704
vn -0.641229749 -0.449067831 -0.622223854
vn -0.36627993 -0.61761421 -0.695982456
vn -0.00577073358 -0.726590395 -0.687046707
vn -0.00577073358 -0.726590395 -0.687046707
vn 0.466029137 0.88476944 -3.7821556E-07
vn 0.466029137 0.88476938 -3.7821556E-07
vn 0.466029137 0.88476944 -3.7821556E-07
vn -0.00800030027 -0.672124684 0.740394711
vn -0.00800030213 -0.672124684 0.740394831
vn -0.00800029933 -0.672124684 0.740394711
vn -0.00826890487 -0.694598615 -0.719349921
vn -0.00826890394 -0.694598675 -0.719349861
vn -0.00826890394 -0.694598675 -0.719349861
vn 0.535595238 0.844474852 0
vn 0.535595238 0.844474792 0
vn 0.535595238 0.844474852 0
vn -0.00800026767 0.67212534 0.740394175
vn -0.00800026767 0.67212534 0.740394175
vn -0.00800026953 0.67212534 0.740394175
vn -0.00826869626 0.694599271 -0.719349325
vn -0.00826869626 0.694599271 -0.719349265
vn -0.00826869626 0.694599271 -0.719349325
vn 0.535593987 -0.844475627 -4.48712512E-07
vn 0.535593987 -0.844475627 -4.48712512E-07
vn 0.535593987 -0.844475627 -4.48712512E-07
vn -0.626542211 0.437965393 0.644694507
vn -0.357463211 0.599075794 0.716469228
vn -0.295354128 0.625430584 0.7222206
vn -0.62654233 0.437965393 0.644694507
vn -0.00561154401 0.706725657 0.707465351
vn -0.00561154447 0.706725657 0.70746541
vn -0.641229689 0.449068338 -0.622223437
vn -0.304033041 0.644236028 -0.701800525
vn -0.366279781 0.617614865 -0.695982158
vn -0.641229689 0.449068397 -0.622223496
vn -0.00577031821 0.726590693 -0.687046409
vn -0.00577031821 0.726590693 -0.687046409
vn 0.466028214 -0.884769797 -4.10402293E-07
vn 0.466028154 -0.884769797 -4.10402293E-07
vn 0.466028154 -0.884769797 -4.10402293E-07
vn -0.00799986534 0.672125518 0.740394115
vn -0.00799986534 0.672125518 0.740394115
vn -0.00799986534 0.672125518 0.740394115
vn -0.00826845597 0.694599032 -0.719349504
vn -0.00826845597 0.694599032 -0.719349504
vn -0.00826845691 0.694599152 -0.719349504
vn 0.535594046 -0.844475627 -5.33097648E-07
vn 0.535594046 -0.844475627 -5.33097648E-07
vn 0.535594046 -0.844475627 -5.33097705E-07
g Blue_mag_pve_3_hammer_0
f 3/3/3 2/2/2 1/1/1
f 2/2/2 4/4/4 1/1/1
f 2/2/2 5/5/5 4/4/4
f 5/5/5 6/6/6 4/4/4
f 9/9/9 8/8/8 7/7/7
f 8/8/8 10/10/10 7/7/7
f 8/8/8 11/11/11 10/10/10
f 11/11/11 12/12/12 10/10/10
f 15/15/15 14/14/14 13/13/13
f 14/14/14 16/16/16 13/13/13
f 14/14/14 17/17/17 16/16/16
f 17/17/17 18/18/18 16/16/16
f 21/21/21 20/20/20 19/19/19
f 20/20/20 22/22/22 19/19/19
f 20/20/20 23/23/23 22/22/22
f 23/23/23 24/24/24 22/22/22
f 27/27/27 26/26/26 25/25/25
f 26/26/26 28/28/28 25/25/25
f 26/26/26 29/29/29 28/28/28
f 29/29/29 30/30/30 28/28/28
f 33/33/33 32/32/32 31/31/31
f 32/32/32 34/34/34 31/31/31
f 32/32/32 35/35/35 34/34/34
f 35/35/35 36/36/36 34/34/34
f 39/39/39 38/38/38 37/37/37
f 38/38/38 40/40/40 37/37/37
f 38/38/38 41/41/41 40/40/40
f 41/41/41 42/42/42 40/40/40
f 45/45/45 44/44/44 43/43/43
f 44/44/44 46/46/46 43/43/43
f 44/44/44 47/47/47 46/46/46
f 47/47/47 48/48/48 46/46/46
f 51/51/51 50/50/50 49/49/49
f 54/54/54 53/53/53 52/52/52
f 54/54/54 55/55/55 53/53/53
f 58/58/58 57/57/57 56/56/56
f 57/57/57 59/59/59 56/56/56
f 57/57/57 60/60/60 59/59/59
f 60/60/60 61/61/61 59/59/59
f 64/64/64 63/63/63 62/62/62
f 64/64/64 62/62/62 65/65/65
f 65/65/65 62/62/62 66/66/66
f 65/65/65 66/66/66 67/67/67
f 69/69/69 68/68/68 64/64/64
f 70/70/70 68/68/68 69/69/69
f 70/70/70 71/71/71 68/68/68
f 69/69/69 64/64/64 72/72/72
f 73/73/73 69/69/69 72/72/72
f 73/73/73 72/72/72 74/74/74
f 75/75/75 74/74/74 63/63/63
f 75/75/75 73/73/73 74/74/74
f 74/74/74 72/72/72 76/76/76
f 74/74/74 76/76/76 77/77/77
f 80/80/80 79/79/79 78/78/78
f 79/79/79 81/81/81 78/78/78
f 79/79/79 82/82/82 81/81/81
f 82/82/82 83/83/83 81/81/81
f 86/86/86 85/85/85 84/84/84
f 85/85/85 87/87/87 84/84/84
f 85/85/85 88/88/88 87/87/87
f 88/88/88 89/89/89 87/87/87
f 92/92/92 91/91/91 90/90/90
f 91/91/91 93/93/93 90/90/90
f 91/91/91 94/94/94 93/93/93
f 94/94/94 95/95/95 93/93/93
f 98/98/98 97/97/97 96/96/96
f 97/97/97 99/99/99 96/96/96
f 97/97/97 100/100/100 99/99/99
f 100/100/100 101/101/101 99/99/99
f 104/104/104 103/103/103 102/102/102
f 103/103/103 105/105/105 102/102/102
f 103/103/103 106/106/106 105/105/105
f 106/106/106 107/107/107 105/105/105
f 110/110/110 109/109/109 108/108/108
f 109/109/109 111/111/111 108/108/108
f 109/109/109 112/112/112 111/111/111
f 112/112/112 113/113/113 111/111/111
f 116/116/116 115/115/115 114/114/114
f 115/115/115 117/117/117 114/114/114
f 115/115/115 118/118/118 117/117/117
f 118/118/118 119/119/119 117/117/117
f 122/122/122 121/121/121 120/120/120
f 121/121/121 123/123/123 120/120/120
f 121/121/121 124/124/124 123/123/123
f 124/124/124 125/125/125 123/123/123
f 128/128/128 127/127/127 126/126/126
f 127/127/127 129/129/129 126/126/126
f 127/127/127 130/130/130 129/129/129
f 130/130/130 131/131/131 129/129/129
f 134/134/134 133/133/133 132/132/132
f 133/133/133 135/135/135 132/132/132
f 133/133/133 136/136/136 135/135/135
f 136/136/136 137/137/137 135/135/135
f 140/140/140 139/139/139 138/138/138
f 139/139/139 141/141/141 138/138/138
f 139/139/139 142/142/142 141/141/141
f 142/142/142 143/143/143 141/141/141
f 146/146/146 145/145/145 144/144/144
f 145/145/145 147/147/147 144/144/144
f 145/145/145 148/148/148 147/147/147
f 148/148/148 149/149/149 147/147/147
f 152/152/152 151/151/151 150/150/150
f 151/151/151 153/153/153 150/150/150
f 151/151/151 154/154/154 153/153/153
f 154/154/154 155/155/155 153/153/153
f 158/158/158 157/157/157 156/156/156
f 161/161/161 160/160/160 159/159/159
f 160/160/160 162/162/162 159/159/159
f 160/160/160 163/163/163 162/162/162
f 163/163/163 164/164/164 162/162/162
f 167/167/167 166/166/166 165/165/165
f 166/166/166 168/168/168 165/165/165
f 166/166/166 169/169/169 168/168/168
f 169/169/169 170/170/170 168/168/168
f 173/173/173 172/172/172 171/171/171
f 172/172/172 174/174/174 171/171/171
f 172/172/172 175/175/175 174/174/174
f 175/175/175 176/176/176 174/174/174
f 179/179/179 178/178/178 177/177/177
f 178/178/178 180/180/180 177/177/177
f 178/178/178 181/181/181 180/180/180
f 181/181/181 182/182/182 180/180/180
f 185/185/185 184/184/184 183/183/183
f 184/184/184 186/186/186 183/183/183
f 184/184/184 187/187/187 186/186/186
f 187/187/187 188/188/188 186/186/186
f 191/191/191 190/190/190 189/189/189
f 190/190/190 192/192/192 189/189/189
f 190/190/190 193/193/193 192/192/192
f 193/193/193 194/194/194 192/192/192
f 197/197/197 196/196/196 195/195/195
f 196/196/196 198/198/198 195/195/195
f 196/196/196 199/199/199 198/198/198
f 199/199/199 200/200/200 198/198/198
f 203/203/203 202/202/202 201/201/201
f 202/202/202 204/204/204 201/201/201
f 202/202/202 205/205/205 204/204/204
f 205/205/205 206/206/206 204/204/204
f 209/209/209 208/208/208 207/207/207
f 212/212/212 211/211/211 210/210/210
f 212/212/212 213/213/213 211/211/211
f 216/216/216 215/215/215 214/214/214
f 215/215/215 217/217/217 214/214/214
f 215/215/215 218/218/218 217/217/217
f 218/218/218 219/219/219 217/217/217
f 222/222/222 221/221/221 220/220/220
f 221/221/221 223/223/223 220/220/220
f 221/221/221 224/224/224 223/223/223
f 224/224/224 225/225/225 223/223/223
f 228/228/228 227/227/227 226/226/226
f 227/227/227 229/229/229 226/226/226
f 227/227/227 230/230/230 229/229/229
f 230/230/230 231/231/231 229/229/229
f 234/234/234 233/233/233 232/232/232
f 233/233/233 235/235/235 232/232/232
f 233/233/233 236/236/236 235/235/235
f 236/236/236 237/237/237 235/235/235
f 240/240/240 239/239/239 238/238/238
f 239/239/239 241/241/241 238/238/238
f 239/239/239 242/242/242 241/241/241
f 242/242/242 243/243/243 241/241/241
f 246/246/246 245/245/245 244/244/244
f 245/245/245 247/247/247 244/244/244
f 245/245/245 248/248/248 247/247/247
f 248/248/248 249/249/249 247/247/247
f 252/252/252 251/251/251 250/250/250
f 251/251/251 253/253/253 250/250/250
f 251/251/251 254/254/254 253/253/253
f 254/254/254 255/255/255 253/253/253
f 258/258/258 257/257/257 256/256/256
f 257/257/257 259/259/259 256/256/256
f 257/257/257 260/260/260 259/259/259
f 260/260/260 261/261/261 259/259/259
f 264/264/264 263/263/263 262/262/262
f 263/263/263 265/265/265 262/262/262
f 263/263/263 266/266/266 265/265/265
f 266/266/266 267/267/267 265/265/265
f 270/270/270 269/269/269 268/268/268
f 269/269/269 271/271/271 268/268/268
f 269/269/269 272/272/272 271/271/271
f 272/272/272 273/273/273 271/271/271
f 276/276/276 275/275/275 274/274/274
f 275/275/275 277/277/277 274/274/274
f 275/275/275 278/278/278 277/277/277
f 278/278/278 279/279/279 277/277/277
f 282/282/282 281/281/281 280/280/280
f 281/281/281 283/283/283 280/280/280
f 281/281/281 284/284/284 283/283/283
f 284/284/284 285/285/285 283/283/283
f 288/288/288 287/287/287 286/286/286
f 287/287/287 289/289/289 286/286/286
f 287/287/287 290/290/290 289/289/289
f 290/290/290 291/291/291 289/289/289
f 294/294/294 293/293/293 292/292/292
f 293/293/293 295/295/295 292/292/292
f 293/293/293 296/296/296 295/295/295
f 296/296/296 297/297/297 295/295/295
f 300/300/300 299/299/299 298/298/298
f 303/303/303 302/302/302 301/301/301
f 302/302/302 304/304/304 301/301/301
f 301/301/301 304/304/304 305/305/305
f 304/304/304 306/306/306 305/305/305
f 305/305/305 306/306/306 307/307/307
f 306/306/306 308/308/308 307/307/307
f 307/307/307 308/308/308 309/309/309
f 308/308/308 310/310/310 309/309/309
f 309/309/309 310/310/310 311/311/311
f 310/310/310 312/312/312 311/311/311
f 315/315/315 314/314/314 313/313/313
f 313/313/313 316/316/316 315/315/315
f 316/316/316 317/317/317 315/315/315
f 320/320/320 319/319/319 318/318/318
f 318/318/318 321/321/321 320/320/320
f 318/318/318 322/322/322 321/321/321
f 325/325/325 324/324/324 323/323/323
f 324/324/324 326/326/326 323/323/323
f 327/327/327 324/324/324 325/325/325
f 328/328/328 327/327/327 325/325/325
f 325/325/325 323/323/323 329/329/329
f 330/330/330 325/325/325 329/329/329
f 328/328/328 325/325/325 330/330/330
f 331/331/331 328/328/328 330/330/330
f 324/324/324 333/333/333 332/332/332
f 333/333/333 334/334/334 332/332/332
f 335/335/335 333/333/333 324/324/324
f 336/336/336 335/335/335 324/324/324
f 333/333/333 338/338/338 337/337/337
f 338/338/338 339/339/339 337/337/337
f 340/340/340 338/338/338 333/333/333
f 341/341/341 340/340/340 333/333/333
f 342/342/342 340/340/340 341/341/341
f 343/343/343 342/342/342 341/341/341
f 337/337/337 339/339/339 343/343/343
f 339/339/339 342/342/342 343/343/343
f 338/338/338 344/344/344 339/339/339
f 344/344/344 345/345/345 339/339/339
f 340/340/340 346/346/346 338/338/338
f 346/346/346 344/344/344 338/338/338
f 348/348/348 343/343/343 347/347/347
f 343/343/343 349/349/349 347/347/347
f 350/350/350 343/343/343 348/348/348
f 351/351/351 350/350/350 348/348/348
f 353/353/353 348/348/348 352/352/352
f 348/348/348 354/354/354 352/352/352
f 355/355/355 348/348/348 353/353/353
f 356/356/356 355/355/355 353/353/353
f 353/353/353 352/352/352 357/357/357
f 358/358/358 353/353/353 357/357/357
f 356/356/356 353/353/353 358/358/358
f 359/359/359 356/356/356 358/358/358
f 344/344/344 361/361/361 360/360/360
f 361/361/361 362/362/362 360/360/360
f 363/363/363 361/361/361 344/344/344
f 364/364/364 363/363/363 344/344/344
f 365/365/365 363/363/363 364/364/364
f 366/366/366 365/365/365 364/364/364
f 360/360/360 362/362/362 366/366/366
f 362/362/362 365/365/365 366/366/366
f 366/366/366 364/364/364 367/367/367
f 342/342/342 366/366/366 367/367/367
f 360/360/360 366/366/366 342/342/342
f 368/368/368 360/360/360 342/342/342
f 369/369/369 358/358/358 365/365/365
f 370/370/370 369/369/369 365/365/365
f 361/361/361 372/372/372 371/371/371
f 372/372/372 373/373/373 371/371/371
f 375/375/375 374/374/374 361/361/361
f 374/374/374 330/330/330 361/361/361
f 365/365/365 377/377/377 376/376/376
f 377/377/377 378/378/378 376/376/376
f 381/381/381 380/380/380 379/379/379
f 384/384/384 383/383/383 382/382/382
f 387/387/387 386/386/386 385/385/385
f 390/390/390 389/389/389 388/388/388
f 393/393/393 392/392/392 391/391/391
f 396/396/396 395/395/395 394/394/394
f 399/399/399 398/398/398 397/397/397
f 402/402/402 401/401/401 400/400/400
f 405/405/405 404/404/404 403/403/403
f 408/408/408 407/407/407 406/406/406
f 411/411/411 410/410/410 409/409/409
f 414/414/414 413/413/413 412/412/412
f 417/417/417 416/416/416 415/415/415
f 420/420/420 419/419/419 418/418/418
f 423/423/423 422/422/422 421/421/421
f 426/426/426 425/425/425 424/424/424
f 429/429/429 428/428/428 427/427/427
f 432/432/432 431/431/431 430/430/430
f 435/435/435 434/434/434 433/433/433
f 438/438/438 437/437/437 436/436/436
f 441/441/441 440/440/440 439/439/439
f 440/440/440 442/442/442 439/439/439
f 439/439/439 442/442/442 443/443/443
f 442/442/442 444/444/444 443/443/443
f 443/443/443 444/444/444 445/445/445
f 444/444/444 446/446/446 445/445/445
f 445/445/445 446/446/446 447/447/447
f 446/446/446 448/448/448 447/447/447
f 447/447/447 448/448/448 449/449/449
f 448/448/448 450/450/450 449/449/449
f 446/446/446 451/451/451 448/448/448
f 444/444/444 451/451/451 446/446/446
f 442/442/442 451/451/451 444/444/444
f 453/453/453 452/452/452 442/442/442
f 448/448/448 455/455/455 454/454/454
f 458/458/458 457/457/457 456/456/456
f 461/461/461 460/460/460 459/459/459
f 464/464/464 463/463/463 462/462/462
f 463/463/463 465/465/465 462/462/462
f 468/468/468 467/467/467 466/466/466
f 467/467/467 469/469/469 466/466/466
f 472/472/472 471/471/471 470/470/470
f 471/471/471 473/473/473 470/470/470
f 476/476/476 475/475/475 474/474/474
f 479/479/479 478/478/478 477/477/477
f 482/482/482 481/481/481 480/480/480
f 481/481/481 483/483/483 480/480/480
f 486/486/486 485/485/485 484/484/484
f 485/485/485 487/487/487 484/484/484
f 490/490/490 489/489/489 488/488/488
f 489/489/489 491/491/491 488/488/488
f 494/494/494 493/493/493 492/492/492
f 493/493/493 495/495/495 492/492/492
f 498/498/498 497/497/497 496/496/496
f 497/497/497 499/499/499 496/496/496
f 500/500/500 497/497/497 498/498/498
f 501/501/501 500/500/500 498/498/498
f 502/502/502 500/500/500 501/501/501
f 503/503/503 502/502/502 501/501/501
f 496/496/496 499/499/499 503/503/503
f 499/499/499 502/502/502 503/503/503
f 506/506/506 505/505/505 504/504/504
f 505/505/505 507/507/507 504/504/504
f 510/510/510 509/509/509 508/508/508
f 509/509/509 511/511/511 508/508/508
f 514/514/514 513/513/513 512/512/512
f 513/513/513 515/515/515 512/512/512
f 518/518/518 517/517/517 516/516/516
f 517/517/517 519/519/519 516/516/516
f 522/522/522 521/521/521 520/520/520
f 521/521/521 523/523/523 520/520/520
f 526/526/526 525/525/525 524/524/524
f 525/525/525 527/527/527 524/524/524
f 530/530/530 529/529/529 528/528/528
f 529/529/529 531/531/531 528/528/528
f 534/534/534 533/533/533 532/532/532
f 533/533/533 535/535/535 532/532/532
f 538/538/538 537/537/537 536/536/536
f 537/537/537 539/539/539 536/536/536
f 542/542/542 541/541/541 540/540/540
f 541/541/541 543/543/543 540/540/540
f 546/546/546 545/545/545 544/544/544
f 545/545/545 547/547/547 544/544/544
f 550/550/550 549/549/549 548/548/548
f 551/551/551 550/550/550 548/548/548
f 552/552/552 551/551/551 548/548/548
f 553/553/553 551/551/551 552/552/552
f 556/556/556 555/555/555 554/554/554
f 557/557/557 556/556/556 554/554/554
f 558/558/558 557/557/557 554/554/554
f 559/559/559 557/557/557 558/558/558
f 562/562/562 561/561/561 560/560/560
f 565/565/565 564/564/564 563/563/563
f 564/564/564 566/566/566 563/563/563
f 566/566/566 567/567/567 563/563/563
f 566/566/566 568/568/568 567/567/567
f 571/571/571 570/570/570 569/569/569
f 574/574/574 573/573/573 572/572/572
f 573/573/573 575/575/575 572/572/572
f 578/578/578 577/577/577 576/576/576
f 577/577/577 579/579/579 576/576/576
f 582/582/582 581/581/581 580/580/580
f 581/581/581 583/583/583 580/580/580
f 586/586/586 585/585/585 584/584/584
f 585/585/585 587/587/587 584/584/584
f 590/590/590 589/589/589 588/588/588
f 589/589/589 591/591/591 588/588/588
f 589/589/589 592/592/592 591/591/591
f 592/592/592 593/593/593 591/591/591
f 592/592/592 594/594/594 593/593/593
f 594/594/594 595/595/595 593/593/593
f 594/594/594 590/590/590 595/595/595
f 590/590/590 588/588/588 595/595/595
f 598/598/598 597/597/597 596/596/596
f 597/597/597 599/599/599 596/596/596
f 602/602/602 601/601/601 600/600/600
f 601/601/601 603/603/603 600/600/600
f 606/606/606 605/605/605 604/604/604
f 605/605/605 607/607/607 604/604/604
f 610/610/610 609/609/609 608/608/608
f 609/609/609 611/611/611 608/608/608
f 614/614/614 613/613/613 612/612/612
f 612/612/612 615/615/615 614/614/614
f 616/616/616 612/612/612 613/613/613
f 617/617/617 616/616/616 613/613/613
f 618/618/618 616/616/616 617/617/617
f 619/619/619 618/618/618 617/617/617
f 622/622/622 621/621/621 620/620/620
f 621/621/621 623/623/623 620/620/620
f 626/626/626 625/625/625 624/624/624
f 625/625/625 627/627/627 624/624/624
f 630/630/630 629/629/629 628/628/628
f 629/629/629 631/631/631 628/628/628
f 634/634/634 633/633/633 632/632/632
f 633/633/633 635/635/635 632/632/632
f 638/638/638 637/637/637 636/636/636
f 637/637/637 639/639/639 636/636/636
f 642/642/642 641/641/641 640/640/640
f 640/640/640 641/641/641 643/643/643
f 643/643/643 644/644/644 640/640/640
f 643/643/643 645/645/645 644/644/644
f 648/648/648 647/647/647 646/646/646
f 651/651/651 650/650/650 649/649/649
f 654/654/654 653/653/653 652/652/652
f 657/657/657 656/656/656 655/655/655
f 660/660/660 659/659/659 658/658/658
f 663/663/663 662/662/662 661/661/661
f 662/662/662 664/664/664 661/661/661
f 665/665/665 664/664/664 662/662/662
f 666/666/666 665/665/665 662/662/662
f 669/669/669 668/668/668 667/667/667
f 668/668/668 670/670/670 667/667/667
f 671/671/671 670/670/670 668/668/668
f 672/672/672 671/671/671 668/668/668
f 675/675/675 674/674/674 673/673/673
f 678/678/678 677/677/677 676/676/676
f 681/681/681 680/680/680 679/679/679
f 684/684/684 683/683/683 682/682/682
f 687/687/687 686/686/686 685/685/685
f 690/690/690 689/689/689 688/688/688
f 693/693/693 692/692/692 691/691/691
f 696/696/696 695/695/695 694/694/694
f 695/695/695 697/697/697 694/694/694
f 696/696/696 698/698/698 695/695/695
f 698/698/698 699/699/699 695/695/695
f 702/702/702 701/701/701 700/700/700
f 701/701/701 703/703/703 700/700/700
f 702/702/702 704/704/704 701/701/701
f 704/704/704 705/705/705 701/701/701
f 708/708/708 707/707/707 706/706/706
f 711/711/711 710/710/710 709/709/709
f 714/714/714 713/713/713 712/712/712
f 717/717/717 716/716/716 715/715/715
