g blue_mag_m_pve_1_helm
v 0.145580307 -0.115548223 -0.020589117
v 0.166592211 -0.0835050866 -0.065677762
v 0.138715416 -0.0897833407 -0.0658758134
v 0.186871722 -0.103527591 -0.0347761139
v 0.223031521 -0.0614854209 -0.0393614843
v 0.19657509 -0.04966278 -0.0690975562
v 0.189329594 -0.107770711 0.00171545893
v 0.166594595 -0.113469176 0.00241320301
v 0.144037187 -0.045042444 -0.0887995735
v 0.203490481 -0.0904346481 -0.0207808912
v 0.107149549 -0.087798126 -0.0667786002
v 0.10028667 -0.111777343 -0.0336690173
v 0.112446681 -0.0394655317 -0.0897436291
v 0.114898354 0.0151064359 -0.0908208042
v 0.0807611942 -0.0359169245 -0.0960075855
v 0.0768859237 0.0299338289 -0.096617423
v 0.149664894 0.0104702264 -0.0898750499
v 0.123387881 0.0610522889 -0.0802056193
v 0.154839769 0.0567425713 -0.0787190124
v 0.187264815 0.0052635842 -0.077488929
v 0.200692102 0.0596594326 -0.0674888194
v 0.187527761 0.089673385 -0.0597458407
v 0.160646468 0.0975517854 -0.0633795038
v 0.240188628 0.0605375282 -0.0383605473
v 0.212396786 0.0131693231 -0.0681724548
v 0.198467135 0.107741505 -0.0333972834
v 0.158533826 0.118673921 -0.0325489864
v 0.132281557 0.0951490551 -0.0642502233
v 0.0957036167 0.0987614319 -0.0662588626
v 0.0914813578 0.0705541372 -0.0835202262
v 0.0534932017 0.0353921317 -0.0877285376
v 0.0692854077 0.0733512416 -0.0776304677
v 0.0748874322 0.0954080001 -0.0612880997
v 0.213723719 0.103517339 0.00232813461
v 0.242248744 0.0651318356 -0.0150008751
v 0.244153112 0.00224250928 -0.0398672968
v 0.247863442 0.0362042002 0.00168701261
v 0.257751375 0.077417776 0.00101753988
v 0.0801543593 0.124479815 -0.0423649736
v 0.244452477 -0.0146275638 -0.0233196728
v 0.274055064 -0.0104967998 0.000848748838
v 0.23889035 -0.0471900962 0.00144913327
v 0.236087933 -0.0281846784 -0.0404734537
v 0.232160598 -0.0649175495 0.00198339391
v 0.230668485 -0.0172907021 -0.0495301746
v 0.220860079 -0.0282403622 -0.05456293
v 0.201687992 -0.0360466242 -0.0682222098
v 0.180216894 -0.0194989573 -0.0761416629
v 0.178200811 -0.00584908295 -0.0781625584
v 0.232160598 -0.0649175495 0.00198339391
v 0.226617754 -0.103864439 0.00110158336
v 0.232160598 -0.0649175495 0.00198339391
v 0.226617754 -0.103864439 0.00110158336
v 0.227339223 -0.00305736554 -0.0555052012
v 0.0703911334 -0.110614792 -0.0353017449
v 0.0743653104 -0.0898072794 -0.0707206503
v 0.0528299361 -0.101785533 -0.0304530859
v 0.0546946973 -0.0836520344 -0.0637161285
v 0.0535136834 -0.108160742 8.17871041E-05
v 0.069323726 -0.116564497 8.17871041E-05
v 0.0589852929 -0.0320257805 -0.0864004865
v 0.0893040076 -0.115424298 0.00105154701
v 0.138930649 -0.144553274 0.00338409538
v 0.166594595 -0.113469176 0.00241320301
v 0.212396786 0.0131693231 -0.0681724548
v 0.216108799 0.00362816779 -0.0917075202
v 0.228463054 0.00828381069 -0.0783728808
v 0.187264815 0.0052635842 -0.077488929
v 0.20793134 -0.0123324161 -0.0972309187
v 0.178200811 -0.00584908295 -0.0781625584
v 0.258654296 -0.00457338523 -0.0999300107
v 0.263435721 -0.0111283753 -0.0884305835
v 0.237757474 -0.00109275628 -0.0650382265
v 0.263121277 -0.0243676826 -0.0836673602
v 0.23854728 -0.0190088321 -0.0595148355
v 0.227339223 -0.00305736554 -0.0555052012
v 0.230668485 -0.0172907021 -0.0495301746
v 0.230369985 -0.0349694453 -0.0650382265
v 0.220860079 -0.0282403622 -0.05456293
v 0.257895112 -0.0365358889 -0.0884305835
v 0.251578033 -0.0085425619 -0.111429416
v 0.246351853 -0.02071077 -0.116192631
v 0.20872131 -0.030248519 -0.0917075202
v 0.246037409 -0.0339500792 -0.111429423
v 0.218015566 -0.0396250561 -0.0783728808
v 0.2508187 -0.0405050367 -0.0999300107
v 0.2508187 -0.0405050367 -0.0999300107
v 0.218015566 -0.0396250561 -0.0783728808
v 0.285729885 -0.0381698608 -0.122712068
v 0.28728807 -0.0421845242 -0.114376351
v 0.28728807 -0.0421845242 -0.114376351
v 0.290376246 -0.0391830914 -0.106040627
v 0.325912327 -0.0443339162 -0.121090971
v 0.326591671 -0.0426446199 -0.116767541
v 0.293185323 -0.0309237428 -0.102587856
v 0.32763809 -0.0384368561 -0.114976719
v 0.294069976 -0.0222447459 -0.106040627
v 0.32843852 -0.0341754481 -0.116767541
v 0.292511821 -0.0182300862 -0.114376351
v 0.328524202 -0.0323566981 -0.121090971
v 0.289423645 -0.0212315153 -0.122712068
v 0.327844739 -0.034045957 -0.125414416
v 0.286614597 -0.0294908639 -0.126164839
v 0.32679829 -0.0382537246 -0.127205238
v 0.325997829 -0.0425151289 -0.125414416
v 0.365087152 -0.0466033705 -0.119785279
v 0.325912327 -0.0443339162 -0.121090971
v 0.365087152 -0.0466033705 -0.119785279
v 0.180216894 -0.0194989573 -0.0761416629
v 0.201687992 -0.0360466242 -0.0682222098
v 0.116290659 0.129456446 -0.0206271838
v 0.0875187367 0.0947324708 -0.0141599728
v 0.0927584618 0.134651184 -0.0263257492
v 0.100467458 0.0918035135 -0.018002877
v 0.0801543593 0.124479815 -0.0423649736
v 0.0748874322 0.0954080001 -0.0612880997
v 0.0927584618 0.134651184 -0.0263257492
v 0.0801543593 0.124479815 -0.0423649736
v 0.201687992 -0.0360466242 -0.0682222098
v 0.136658296 0.0676811337 -0.0529675707
v 0.125848964 0.113181636 -0.0437879451
v 0.131786689 0.111820154 -0.0439670086
v 0.106257528 0.0698076338 -0.0544201806
v 0.116290659 0.129456446 -0.0206271838
v 0.100467458 0.0918035135 -0.018002877
v 0.133257538 0.113397874 -0.0418871976
v 0.138166159 0.0853639618 -0.0263812486
v 0.120653674 0.135377631 -0.00427294197
v 0.133871302 0.0926906839 -0.0103176357
v 0.1728663 0.123444699 -0.00210602698
v 0.167204052 0.0867963806 -0.00648950506
v 0.167204052 0.0867963806 0.0066530793
v 0.1728663 0.123444699 -0.00210602698
v 0.1728663 0.123444699 0.00226960122
v 0.1728663 0.123444699 0.00226960122
v 0.133871302 0.0926906839 0.0104812095
v 0.120653674 0.135377631 0.0044365162
v 0.138166159 0.0853639618 0.0265448224
v 0.133257538 0.113397874 0.0420507602
v 0.136658296 0.0676811337 0.0531311445
v 0.125848964 0.113181636 0.0439515114
v 0.106257528 0.0698076338 0.0545837544
v 0.131786689 0.111820154 0.0441305712
v 0.116290659 0.129456446 0.0207907576
v 0.100459725 0.0917458609 0.0176336709
v 0.133257538 0.113397874 -0.0418871976
v 0.136658296 0.0676811337 -0.0529675707
v 0.131786689 0.111820154 -0.0439670086
v 0.0801543593 0.124479815 -0.0423649736
v 0.0858665034 0.128656149 -0.0451712012
v 0.112636022 0.118619412 -0.0590024516
v 0.132721484 0.107076727 -0.0663270354
v 0.102448449 0.131614774 -0.0473574325
v 0.153313935 0.109644145 -0.0590571724
v 0.179308176 0.127283394 -0.0252454784
v 0.199628189 0.129798263 8.17871041E-05
v 0.202650815 0.118031025 8.17871041E-05
v 0.158533826 0.118673921 -0.0325489864
v 0.140562251 0.135968477 -0.024097072
v 0.141754955 0.127502024 -0.0381043963
v 0.179308176 0.127283394 -0.0252454784
v 0.175128043 0.134142861 -0.00402668864
v 0.123070136 0.146103516 -0.00672247075
v 0.136195019 0.123092614 -0.0480949208
v 0.153313935 0.109644145 -0.0590571724
v 0.132721484 0.107076727 -0.0663270354
v 0.13436453 0.121636048 -0.0510357767
v 0.133257538 0.113397874 -0.0418871976
v 0.120653674 0.135377631 -0.00427294197
v 0.123070136 0.146103516 -0.00672247075
v 0.127551511 0.122968383 -0.0511265062
v 0.112636022 0.118619412 -0.0590024516
v 0.102448449 0.131614774 -0.0473574325
v 0.118676133 0.14018923 -0.0264796522
v 0.0955610722 0.145243555 -0.0279051345
v 0.111105084 0.148626864 -0.00773138925
v 0.0885525048 0.153530493 -0.00879548211
v 0.0927584618 0.134651184 -0.0263257492
v 0.086432077 0.142896622 -0.00682219304
v 0.125848964 0.113181636 -0.0437879451
v 0.131786689 0.111820154 -0.0439670086
v 0.13436453 0.121636048 -0.0510357767
v 0.116290659 0.129456446 -0.0206271838
v 0.108909786 0.137999848 -0.0056004324
v 0.111105084 0.148626864 -0.00773138925
v 0.0861053318 0.147222191 -0.0286240857
v 0.0728229955 0.150161728 -0.0296001956
v 0.0786832869 0.155800208 -0.00872408785
v 0.0634385794 0.159217253 -0.00936684292
v 0.0700202361 0.139642417 -0.0279320255
v 0.0610076301 0.148308858 -0.00775876921
v 0.13436453 0.121636048 -0.0510357767
v 0.133257538 0.113397874 -0.0418871976
v 0.0955610722 0.145243555 -0.0279051345
v 0.083686322 0.136621326 -0.0268815029
v 0.083686322 0.136621326 -0.0268815029
v 0.0927584618 0.134651184 -0.0263257492
v 0.0765484944 0.144866288 -0.00697274599
v 0.0786832869 0.155800208 -0.00872408785
v 0.083686322 0.136621326 -0.0268815029
v 0.0650845245 0.151719868 -0.0305533111
v 0.0397867821 0.142213851 -0.0510200188
v 0.0211882871 0.161739796 -0.0323318988
v 0.0375616662 0.13220641 -0.0439547636
v 0.0184715986 0.150749341 -0.0271238461
v -0.00466160197 0.174049273 -0.0114345308
v 0.0539172776 0.161274046 -0.00949375983
v -0.00466160197 0.174049273 -0.0114345308
v 0.0858665034 0.128656149 -0.0451712012
v 0.0801543593 0.124479815 -0.0423649736
v 0.0375616662 0.13220641 -0.0439547636
v 0.0728229955 0.150161728 -0.0296001956
v 0.0626678839 0.141220868 -0.0286833141
v 0.0517233759 0.150326163 -0.0079606073
v 0.0539172776 0.161274046 -0.00949375983
v 0.0517233759 0.150326163 -0.0079606073
v 0.0650845245 0.151719868 -0.0305533111
v 0.1728663 0.123444699 0.00226960122
v 0.1728663 0.123444699 -0.00210602698
v 0.175128043 0.134142861 0.00419026287
v 0.140562251 0.135968477 0.0242606476
v 0.179308176 0.127283394 0.0254090521
v 0.158533826 0.118673921 0.0327125601
v 0.141754955 0.127502024 0.0382679701
v 0.123070136 0.146103516 0.00688604498
v 0.136195019 0.123092614 0.0482584834
v 0.123070136 0.146103516 0.00688604498
v 0.120653674 0.135377631 0.0044365162
v 0.133257538 0.113397874 0.0420507602
v 0.153313935 0.109644145 0.0592207462
v 0.132721484 0.107076727 0.0664906129
v 0.13436453 0.121636048 0.0511993393
v 0.133257538 0.113397874 0.0420507602
v 0.127551511 0.122968383 0.0512900725
v 0.131786689 0.111820154 0.0441305712
v 0.125848964 0.113181636 0.0439515114
v 0.118676133 0.14018923 0.0266432259
v 0.116290659 0.129456446 0.0207907576
v 0.108909786 0.137999848 0.00576400664
v 0.111105084 0.148626864 0.00789496303
v 0.0955610722 0.145243555 0.0280687083
v 0.0885525048 0.153530493 0.00895905681
v 0.102448449 0.131614774 0.04752101
v 0.0861053318 0.147222191 0.0287876595
v 0.0728229955 0.150161728 0.0297637694
v 0.0786832869 0.155800208 0.00888766255
v 0.0634385794 0.159217253 0.00953041669
v 0.0650845245 0.151719868 0.0307168867
v 0.0626678839 0.141220868 0.0288468879
v 0.0700202361 0.139642417 0.0280955993
v 0.0397867821 0.142213851 0.0511835963
v 0.0211882871 0.161739796 0.0324954726
v 0.0375616662 0.13220641 0.0441183373
v 0.0184715986 0.150749341 0.0272874199
v -0.00466160197 0.174049273 0.0115981055
v 0.0539172776 0.161274046 0.00965733454
v -0.00466160197 0.174049273 0.0115981055
v 0.0858665034 0.128656149 0.045334775
v 0.083686322 0.136621326 0.0270450786
v 0.0955610722 0.145243555 0.0280687083
v 0.0927584618 0.134651184 0.0264893249
v 0.0861053318 0.147222191 0.0287876595
v 0.0765484944 0.144866288 0.00713632023
v 0.0765484944 0.144866288 0.00713632023
v 0.0786832869 0.155800208 0.00888766255
v 0.0184715986 0.150749341 0.0272874199
v -0.00744524458 0.163324714 0.0101253316
v 0.1728663 0.123444699 -0.00210602698
v 0.123070136 0.146103516 -0.00672247075
v 0.175128043 0.134142861 -0.00402668864
v 0.120653674 0.135377631 -0.00427294197
v 0.199628189 0.129798263 8.17871041E-05
v 0.123070136 0.146103516 0.00688604498
v 0.1728663 0.123444699 0.00226960122
v 0.120653674 0.135377631 0.0044365162
v 0.086432077 0.142896622 -0.00682219304
v 0.111105084 0.148626864 -0.00773138925
v 0.108909786 0.137999848 -0.0056004324
v 0.086432077 0.142896622 -0.00682219304
v 0.0885525048 0.153530493 -0.00879548211
v 0.0927584618 0.134651184 -0.0263257492
v 0.108909786 0.137999848 -0.0056004324
v 0.116290659 0.129456446 -0.0206271838
v 0.086432077 0.142896622 -0.00682219304
v 0.0786832869 0.155800208 -0.00872408785
v 0.0610076301 0.148308858 -0.00775876921
v 0.0634385794 0.159217253 -0.00936684292
v 0.0610076301 0.148308858 -0.00775876921
v 0.0765484944 0.144866288 -0.00697274599
v 0.0626678839 0.141220868 -0.0286833141
v 0.0728229955 0.150161728 -0.0296001956
v 0.0700202361 0.139642417 -0.0279320255
v 0.0539172776 0.161274046 -0.00949375983
v -0.00744524458 0.163324714 -0.00996175781
v -0.00466160197 0.174049273 -0.0114345308
v 0.0517233759 0.150326163 -0.0079606073
v 0.0184715986 0.150749341 -0.0271238461
v -0.00466160197 0.174049273 -0.0114345308
v -0.00744524458 0.163324714 -0.00996175781
v 0.0184715986 0.150749341 -0.0271238461
v 0.0517233759 0.150326163 -0.0079606073
v 0.0626678839 0.141220868 -0.0286833141
v -0.00744524458 0.163324714 -0.00996175781
v 0.0700202361 0.139642417 -0.0279320255
v 0.0801543593 0.124479815 -0.0423649736
v 0.0765484944 0.144866288 -0.00697274599
v 0.083686322 0.136621326 -0.0268815029
v 0.0610076301 0.148308858 -0.00775876921
v 0.0801543593 0.124479815 -0.0423649736
v 0.0927584618 0.134651184 -0.0263257492
v 0.0801543593 0.124479815 -0.0423649736
v 0.0375616662 0.13220641 -0.0439547636
v 0.0184715986 0.150749341 -0.0271238461
v 0.145580307 -0.115548223 0.0207526926
v 0.166592211 -0.0835050866 0.0658413395
v 0.186871722 -0.103527591 0.0349396877
v 0.138715416 -0.0897833407 0.0660393834
v 0.223031521 -0.0614854209 0.0395250581
v 0.19657509 -0.04966278 0.0692611262
v 0.189329594 -0.107770711 0.00171545893
v 0.166594595 -0.113469176 0.00241320301
v 0.143593073 -0.0442394242 0.0854918808
v 0.203490481 -0.0904346481 0.0209444668
v 0.107149549 -0.087798126 0.0669421777
v 0.10028667 -0.111777343 0.033832591
v 0.11215207 -0.038747523 0.0864015818
v 0.114526086 0.0149369473 0.0874172598
v 0.080922246 -0.0352513939 0.0926465467
v 0.0769805908 0.0295543689 0.093211852
v 0.149170846 0.010286605 0.0864870027
v 0.123387881 0.0610522889 0.0803691968
v 0.154839769 0.0567425713 0.0788825899
v 0.203467816 0.00534221437 0.0773923546
v 0.200692102 0.0596594326 0.0676523894
v 0.187527761 0.089673385 0.0599094145
v 0.160646468 0.0975517854 0.0635430738
v 0.240188628 0.0605375282 0.038524121
v 0.220097512 0.0119351577 0.0659176633
v 0.198467135 0.107741505 0.0335608572
v 0.158533826 0.118673921 0.0327125601
v 0.132281557 0.0951490551 0.0644137934
v 0.0957036167 0.0987614319 0.0664224401
v 0.0896545649 0.0714764521 0.084219262
v 0.0534932017 0.0353921317 0.0878921077
v 0.0692854077 0.0733512416 0.0777940378
v 0.0748874322 0.0954080001 0.0614516735
v 0.213723719 0.103517339 0.00232813461
v 0.242248744 0.0651318356 0.0151644489
v 0.244153112 0.00224250928 0.0400308706
v 0.247863442 0.0362042002 0.00168701261
v 0.257751375 0.077417776 0.00101753988
v 0.257751375 0.077417776 0.00101753988
v 0.0801543593 0.124479815 0.0425285473
v 0.244452477 -0.0146275638 0.0234832466
v 0.274055064 -0.0104967998 0.000848748838
v 0.23889035 -0.0471900962 0.00144913327
v 0.236087933 -0.0281846784 0.0406370312
v 0.232160598 -0.0649175495 0.00198339391
v 0.236237019 -0.0182016268 0.0455035008
v 0.224231735 -0.0334833376 0.0523100682
v 0.209289625 -0.0375684276 0.06611415
v 0.196750373 -0.0275774356 0.0772060305
v 0.190281972 -0.00772243133 0.0790758505
v 0.232160598 -0.0649175495 0.00198339391
v 0.226617754 -0.103864439 0.00110158336
v 0.232160598 -0.0649175495 0.00198339391
v 0.226617754 -0.103864439 0.00110158336
v 0.235114887 -0.00284999982 0.0508895703
v 0.0703911334 -0.110614792 0.0354653224
v 0.0743653104 -0.0898072794 0.0708842203
v 0.0528299361 -0.101785533 0.0306166597
v 0.0546946973 -0.0836520344 0.063879706
v 0.0535136834 -0.108160742 8.17871041E-05
v 0.069323726 -0.116564497 8.17871041E-05
v 0.0589852929 -0.0320257805 0.086564064
v 0.0893040076 -0.115424298 0.00105154701
v 0.138930649 -0.144553274 0.00338409538
v 0.166594595 -0.113469176 0.00241320301
v 0.220097512 0.0119351577 0.0659176633
v 0.223395079 0.00234266045 0.0884165764
v 0.203467816 0.00534221437 0.0773923546
v 0.235202059 0.0071176365 0.074635677
v 0.216702998 -0.0139861209 0.0927918926
v 0.190281972 -0.00772243133 0.0790758505
v 0.26679644 -0.0052872831 0.0940110981
v 0.271108687 -0.0117399748 0.0822708085
v 0.243949026 -0.00213953224 0.0608547814
v 0.270600021 -0.0249369107 0.0774078518
v 0.244512096 -0.0200061649 0.0551465563
v 0.235114887 -0.00284999982 0.0508895703
v 0.236237019 -0.0182016268 0.0455035008
v 0.236561537 -0.0360162221 0.0608547777
v 0.224231735 -0.0334833376 0.0523100682
v 0.265568107 -0.0371474959 0.0822708234
v 0.260189325 -0.00935877394 0.105751328
v 0.255157411 -0.0215693377 0.110614315
v 0.21600759 -0.0315340348 0.0884165615
v 0.254648715 -0.0347662941 0.105751351
v 0.258960843 -0.041218929 0.0940110981
v 0.224754572 -0.0407912247 0.074635677
v 0.254648715 -0.0347662941 0.105751351
v 0.21600759 -0.0315340348 0.0884165615
v 0.294329226 -0.0398295708 0.114771195
v 0.295549124 -0.0437704735 0.106344365
v 0.298298746 -0.0406952091 0.0979175642
v 0.330071211 -0.0453165323 0.111553945
v 0.330575675 -0.0435891002 0.10722167
v 0.300967634 -0.0324053019 0.0944270268
v 0.331549793 -0.0393655747 0.105427176
v 0.301992476 -0.0237568654 0.0979175717
v 0.332422554 -0.0351199321 0.107221693
v 0.300772876 -0.0198160317 0.106344357
v 0.332683086 -0.0333393104 0.111553952
v 0.298022956 -0.022891216 0.114771195
v 0.332178324 -0.0350666903 0.115886286
v 0.295354038 -0.0311811324 0.118261687
v 0.331204206 -0.0392902158 0.117680788
v 0.294329226 -0.0398295708 0.114771195
v 0.330331504 -0.0435358472 0.115886286
v 0.368530661 -0.0475142561 0.109549388
v 0.368530661 -0.0475142561 0.109549388
v 0.368530661 -0.0475142561 0.109549388
v 0.368530661 -0.0475142561 0.109549388
v 0.330331504 -0.0435358472 0.115886286
v 0.368530661 -0.0475142561 0.109549388
v 0.368530661 -0.0475142561 0.109549388
v 0.368530661 -0.0475142561 0.109549388
v 0.368530661 -0.0475142561 0.109549388
v 0.196750373 -0.0275774356 0.0772060305
v 0.209289625 -0.0375684276 0.06611415
v 0.224231735 -0.0334833376 0.0523100682
v 0.196750373 -0.0275774356 0.0772060305
v 0.0874314308 0.0946250111 0.0139196236
v 0.116290659 0.129456446 0.0207907576
v 0.0927584618 0.134651184 0.0264893249
v 0.100459725 0.0917458609 0.0176336709
v 0.0801543593 0.124479815 0.0425285473
v 0.0748874322 0.0954080001 0.0614516735
v 0.220097512 0.0119351577 0.0659176633
v 0.136658296 0.0676811337 0.0531311445
v 0.133257538 0.113397874 0.0420507602
v 0.131786689 0.111820154 0.0441305712
v 0.0801543593 0.124479815 0.0425285473
v 0.0858665034 0.128656149 0.045334775
v 0.112636022 0.118619412 0.0591660254
v 0.132721484 0.107076727 0.0664906129
v 0.153313935 0.109644145 0.0592207462
v 0.0858665034 0.128656149 0.045334775
v 0.102448449 0.131614774 0.04752101
v 0.179308176 0.127283394 0.0254090521
v 0.199628189 0.129798263 8.17871041E-05
v 0.202650815 0.118031025 8.17871041E-05
v 0.132721484 0.107076727 0.0664906129
v 0.133257538 0.113397874 0.0420507602
v 0.13436453 0.121636048 0.0511993393
v 0.131786689 0.111820154 0.0441305712
v 0.086432077 0.142896622 0.00698576728
v 0.0885525048 0.153530493 0.00895905681
v 0.108909786 0.137999848 0.00576400664
v 0.0927584618 0.134651184 0.0264893249
v 0.108909786 0.137999848 0.00576400664
v 0.086432077 0.142896622 0.00698576728
v 0.116290659 0.129456446 0.0207907576
v 0.0801543593 0.124479815 0.0425285473
v 0.083686322 0.136621326 0.0270450786
v 0.0765484944 0.144866288 0.00713632023
v 0.0700202361 0.139642417 0.0280955993
v 0.0610076301 0.148308858 0.00792234298
v 0.0801543593 0.124479815 0.0425285473
v 0.0626678839 0.141220868 0.0288468879
v 0.0375616662 0.13220641 0.0441183373
v 0.0184715986 0.150749341 0.0272874199
v 0.0517233759 0.150326163 0.00812418107
v -0.00744524458 0.163324714 0.0101253316
v 0.0885525048 0.153530493 0.00895905681
v 0.0927584618 0.134651184 0.0264893249
v 0.086432077 0.142896622 0.00698576728
v 0.0786832869 0.155800208 0.00888766255
v 0.0610076301 0.148308858 0.00792234298
v 0.0765484944 0.144866288 0.00713632023
v 0.0634385794 0.159217253 0.00953041669
v 0.0634385794 0.159217253 0.00953041669
v 0.0700202361 0.139642417 0.0280955993
v 0.0610076301 0.148308858 0.00792234298
v 0.0728229955 0.150161728 0.0297637694
v 0.0650845245 0.151719868 0.0307168867
v 0.0517233759 0.150326163 0.00812418107
v 0.0539172776 0.161274046 0.00965733454
v 0.0539172776 0.161274046 0.00965733454
v -0.00744524458 0.163324714 0.0101253316
v 0.0517233759 0.150326163 0.00812418107
v -0.00744524458 0.163324714 0.0101253316
v -0.00466160197 0.174049273 0.0115981055
v 0.0801543593 0.124479815 0.0425285473
v 0.0375616662 0.13220641 0.0441183373
v 0.0801543593 0.124479815 0.0425285473
v 0.0858665034 0.128656149 0.045334775
v 0.132721484 0.107076727 0.0664906129
v 0.112636022 0.118619412 0.0591660254
v 0.199628189 0.129798263 8.17871041E-05
vt 0.0633458048 0.360859305
vt 0.139896929 0.386556864
vt 0.133755803 0.347567797
vt 0.0950603932 0.420745283
vt 0.14497076 0.480770081
vt 0.179565415 0.435607493
vt 0.0512160212 0.440057158
vt 0.0412132517 0.402898431
vt 0.197538927 0.358659029
vt 0.0938642621 0.45968926
vt 0.139667809 0.30376631
vt 0.0855084136 0.292174399
vt 0.209900618 0.316497386
vt 0.280065924 0.333463788
vt 0.221525788 0.272473484
vt 0.306616366 0.283989757
vt 0.266401738 0.37961182
vt 0.338808089 0.36203593
vt 0.324804306 0.404616356
vt 0.247226104 0.431882977
vt 0.312887281 0.471372545
vt 0.356624931 0.467786014
vt 0.379618704 0.431929052
vt 0.301152319 0.540129244
vt 0.248324215 0.469883323
vt 0.381577253 0.509843826
vt 0.422333181 0.465186536
vt 0.385460258 0.388570637
vt 0.39809224 0.335235149
vt 0.356362045 0.318812668
vt 0.319140702 0.252888203
vt 0.365884453 0.288156837
vt 0.400639653 0.301783323
vt 0.380995899 0.568473756
vt 0.30901286 0.572503865
vt 0.223824605 0.527319252
vt 0.262394756 0.592172384
vt 0.319990814 0.608443797
vt 0.449936032 0.312687725
vt 0.195434123 0.54354918
vt 0.188135788 0.600079715
vt 0.13652131 0.548179686
vt 0.18561396 0.508470356
vt 0.10921552 0.527428448
vt 0.203630686 0.49922964
vt 0.19458133 0.481725216
vt 0.195228711 0.447115362
vt 0.221370205 0.418712586
vt 0.237623438 0.418140441
vt 0.10921552 0.527428448
vt 0.060848482 0.49653247
vt 0.10921552 0.527428448
vt 0.060848482 0.49653247
vt 0.222962275 0.493036121
vt 0.0933333784 0.248060197
vt 0.145901978 0.257005632
vt 0.0976311564 0.218696773
vt 0.150452375 0.226201743
vt 0.0551706962 0.213417515
vt 0.0461179838 0.239566714
vt 0.227997333 0.238484472
vt 0.0406413525 0.272646248
vt 0.0111812409 0.351363569
vt 0.0412132517 0.402898431
vt 0.336147428 0.845098853
vt 0.356950015 0.886191487
vt 0.368547112 0.854947567
vt 0.302164644 0.884797156
vt 0.350748807 0.919037163
vt 0.289905101 0.911248684
vt 0.432848305 0.876767159
vt 0.441570193 0.85209918
vt 0.383843839 0.825469196
vt 0.452547699 0.827850521
vt 0.398792773 0.795428753
vt 0.365582734 0.808414042
vt 0.37918672 0.783468723
vt 0.415035427 0.766084909
vt 0.389845163 0.757596552
vt 0.465619892 0.804838836
vt 0.426894873 0.901499748
vt 0.423952818 0.926362514
vt 0.351358175 0.952831626
vt 0.423947126 0.951487601
vt 0.355905652 0.986882746
vt 0.426460147 0.976946354
vt 0.480799943 0.784110606
vt 0.431239724 0.736563206
vt 0.494958282 0.946284711
vt 0.497134626 0.96329993
vt 0.527392566 0.832359195
vt 0.51730895 0.845854461
vt 0.576868355 0.877922952
vt 0.572057068 0.884766698
vt 0.508849621 0.860864937
vt 0.568008661 0.892125547
vt 0.502439916 0.877193511
vt 0.565363646 0.900295317
vt 0.49815169 0.89425981
vt 0.564090788 0.909028113
vt 0.49568817 0.911610484
vt 0.563714623 0.918004036
vt 0.494659066 0.929006755
vt 0.563722193 0.927002251
vt 0.564034283 0.935836494
vt 0.630717456 0.91954571
vt 0.565442801 0.944311142
vt 0.630717456 0.91954571
vt 0.293936372 0.93963635
vt 0.321054578 0.984431446
vt 0.453423232 0.353432298
vt 0.501211107 0.324586123
vt 0.445773631 0.323739022
vt 0.507921875 0.386472374
vt 0.449936032 0.312687725
vt 0.443983734 0.28819105
vt 0.447816551 0.33046928
vt 0.449936032 0.312687725
vt 0.40460375 0.714232862
vt 0.62508291 0.888350487
vt 0.631823421 0.803669274
vt 0.630053461 0.805404246
vt 0.68162483 0.870343924
vt 0.627501965 0.754935384
vt 0.690080583 0.796546221
vt 0.633241653 0.805334687
vt 0.586820066 0.838413715
vt 0.609739482 0.739077568
vt 0.568331182 0.803399503
vt 0.53404665 0.720211565
vt 0.507818401 0.780619383
vt 0.484942943 0.760860026
vt 0.53404665 0.720211565
vt 0.533857584 0.720047951
vt 0.533857584 0.720047951
vt 0.45110783 0.702143729
vt 0.500245035 0.64449805
vt 0.415390968 0.690336108
vt 0.435168386 0.634242177
vt 0.361851841 0.660977304
vt 0.436983734 0.635369182
vt 0.365779459 0.597526073
vt 0.435801506 0.63761282
vt 0.464609861 0.619513154
vt 0.431705594 0.572502673
vt 0.633241653 0.805334687
vt 0.62508291 0.888350487
vt 0.630053461 0.805404246
vt 0.449936032 0.312687725
vt 0.448707879 0.326927662
vt 0.423388928 0.364686996
vt 0.401501477 0.393007785
vt 0.448214889 0.351763546
vt 0.399778545 0.428019822
vt 0.419865429 0.501704633
vt 0.421031028 0.5504722
vt 0.404430121 0.555567086
vt 0.0459568724 0.885523558
vt 0.0816797614 0.865371585
vt 0.0587559789 0.85562104
vt 0.0532019958 0.924315572
vt 0.0870843977 0.932506621
vt 0.118010223 0.856513977
vt 0.0498864502 0.832653642
vt 0.0135030122 0.854640365
vt 0.0128870513 0.818942428
vt 0.0455472767 0.822550595
vt 0.0630688965 0.820317268
vt 0.124182083 0.848487556
vt 0.118010223 0.856513977
vt 0.0502735823 0.806531072
vt 0.0354029909 0.787769496
vt 0.0591994822 0.766019464
vt 0.094262436 0.789857686
vt 0.0948469415 0.750496924
vt 0.122219026 0.782155573
vt 0.128084213 0.750160158
vt 0.103790134 0.738466024
vt 0.130267859 0.739111662
vt 0.0633572191 0.820505619
vt 0.0631573647 0.822436333
vt 0.0455472767 0.822550595
vt 0.102927066 0.807974219
vt 0.12592946 0.796927989
vt 0.122219026 0.782155573
vt 0.0892015472 0.725506067
vt 0.0845942721 0.706381083
vt 0.117725179 0.706229091
vt 0.118186526 0.691978037
vt 0.0898448527 0.695491195
vt 0.116443321 0.681708694
vt 0.0455472767 0.822550595
vt 0.0630688965 0.820317268
vt 0.0948469415 0.750496924
vt 0.101123765 0.730779946
vt 0.101123765 0.730779946
vt 0.103790134 0.738466024
vt 0.12360049 0.71769619
vt 0.117725179 0.706229091
vt 0.101123765 0.730779946
vt 0.0773876309 0.683908641
vt 0.0324938148 0.66377908
vt 0.0561636314 0.61642313
vt 0.0150589775 0.654677153
vt 0.0388101861 0.608473063
vt 0.0751550496 0.561453879
vt 0.100881606 0.651515067
vt 0.0751550496 0.561453879
vt 0.0429084748 0.743369818
vt 0.0321201533 0.738322318
vt 0.0140211219 0.669171751
vt 0.0845942721 0.706381083
vt 0.0926320553 0.687461972
vt 0.10885936 0.664000213
vt 0.100881606 0.651515067
vt 0.10885936 0.664000213
vt 0.0773876309 0.683908641
vt 0.0986914486 0.929091811
vt 0.0959625244 0.928048074
vt 0.102044493 0.939607263
vt 0.151583359 0.898550808
vt 0.130533054 0.961020291
vt 0.161942825 0.940575302
vt 0.173734874 0.910194933
vt 0.1330937 0.86367321
vt 0.19542563 0.901733339
vt 0.1330937 0.86367321
vt 0.134933263 0.852719843
vt 0.194951713 0.882915676
vt 0.204977259 0.945522368
vt 0.229794636 0.921895266
vt 0.205263466 0.898359418
vt 0.194951713 0.882915676
vt 0.213020056 0.883778453
vt 0.193444028 0.884278417
vt 0.194629356 0.882817864
vt 0.194684401 0.837538123
vt 0.176449314 0.842889905
vt 0.167773113 0.815146685
vt 0.181058034 0.810102701
vt 0.22118625 0.810480654
vt 0.198960319 0.783817589
vt 0.234676301 0.849304378
vt 0.242064089 0.798052847
vt 0.258268982 0.788815856
vt 0.236041501 0.762328327
vt 0.245485649 0.752346158
vt 0.278497756 0.779355347
vt 0.265750945 0.769635379
vt 0.262160987 0.777320087
vt 0.322590828 0.801458418
vt 0.338966995 0.750643671
vt 0.340590417 0.809177339
vt 0.356125325 0.75907439
vt 0.363708258 0.69840467
vt 0.284770012 0.738790989
vt 0.363708258 0.69840467
vt 0.261161357 0.846955836
vt 0.230361819 0.79211098
vt 0.22118625 0.810480654
vt 0.223343879 0.795266807
vt 0.242064089 0.798052847
vt 0.224291489 0.765180409
vt 0.224291489 0.765180409
vt 0.236041501 0.762328327
vt 0.356125325 0.75907439
vt 0.378328502 0.70824635
vt 0.0959625244 0.928048074
vt 0.118010223 0.856513977
vt 0.0870843977 0.932506621
vt 0.126060769 0.854217172
vt 0.0793905258 0.973253846
vt 0.1330937 0.86367321
vt 0.0986914486 0.929091811
vt 0.129390046 0.855313659
vt 0.1387375 0.748604059
vt 0.122219026 0.782155573
vt 0.133841321 0.785068572
vt 0.1387375 0.748604059
vt 0.128084213 0.750160158
vt 0.667761564 0.747546852
vt 0.628022134 0.722721517
vt 0.627501965 0.754935384
vt 0.664805472 0.708846211
vt 0.117725179 0.706229091
vt 0.12748304 0.688206494
vt 0.118186526 0.691978037
vt 0.12748304 0.688206494
vt 0.129960194 0.706108332
vt 0.0926320553 0.687461972
vt 0.0845942721 0.706381083
vt 0.0898448527 0.695491195
vt 0.100881606 0.651515067
vt 0.0920268074 0.555971444
vt 0.0751550496 0.561453879
vt 0.115458854 0.649308681
vt 0.0388101861 0.608473063
vt 0.0751550496 0.561453879
vt 0.0585513711 0.556476116
vt 0.767827928 0.666304767
vt 0.706225693 0.674206197
vt 0.715223134 0.717019796
vt 0.784018278 0.608555973
vt 0.701073229 0.728684962
vt 0.696918607 0.760999084
vt 0.675904989 0.699513853
vt 0.685491085 0.738098025
vt 0.694440365 0.687818587
vt 0.696918607 0.760999084
vt 0.667761564 0.747546852
vt 0.696918607 0.760999084
vt 0.762494683 0.722594082
vt 0.767827928 0.666304767
vt 0.939121306 0.358411431
vt 0.862763762 0.384926766
vt 0.907919645 0.418900311
vt 0.868514895 0.34576121
vt 0.858514428 0.479660451
vt 0.823546112 0.434202135
vt 0.947808504 0.436388403
vt 0.955088437 0.398605973
vt 0.804382503 0.357251853
vt 0.909194231 0.457849085
vt 0.862260461 0.301868439
vt 0.916266203 0.289801002
vt 0.79212302 0.314821452
vt 0.721999526 0.331996173
vt 0.780296147 0.270546257
vt 0.695436358 0.282515556
vt 0.736043215 0.378123403
vt 0.663385034 0.360616088
vt 0.677353144 0.403010786
vt 0.760241032 0.452560663
vt 0.689204156 0.469615132
vt 0.645590544 0.466277659
vt 0.622548938 0.430503666
vt 0.701365232 0.538418949
vt 0.757996202 0.478824288
vt 0.620838821 0.508463919
vt 0.579903662 0.463948429
vt 0.616717875 0.387177795
vt 0.604184031 0.333862156
vt 0.644513547 0.315027624
vt 0.682721138 0.251359582
vt 0.636306584 0.286719769
vt 0.601793468 0.300391108
vt 0.623834908 0.561170459
vt 0.693648279 0.570655048
vt 0.778851092 0.525094509
vt 0.739689767 0.585638463
vt 0.682790399 0.604777515
vt 0.682790399 0.604777515
vt 0.554316521 0.310637385
vt 0.80725652 0.541865528
vt 0.81339103 0.597172916
vt 0.864284813 0.544575989
vt 0.81779623 0.507637084
vt 0.891206563 0.52222693
vt 0.803237617 0.507468224
vt 0.817120433 0.484018534
vt 0.812543333 0.456276149
vt 0.79520905 0.438192278
vt 0.770340145 0.432801247
vt 0.891206563 0.52222693
vt 0.940838218 0.493434548
vt 0.891206563 0.52222693
vt 0.940838218 0.493434548
vt 0.782180309 0.503591359
vt 0.908144891 0.245672658
vt 0.855703175 0.255057365
vt 0.903294384 0.216413572
vt 0.850572765 0.224359751
vt 0.946710885 0.210678577
vt 0.955283105 0.236850053
vt 0.773211241 0.236759558
vt 0.958204806 0.270061761
vt 0.986315787 0.348723203
vt 0.955088437 0.398605973
vt 0.788942456 0.935879648
vt 0.761695564 0.901949823
vt 0.751883745 0.9426319
vt 0.793112338 0.902671635
vt 0.731799126 0.894685984
vt 0.719458461 0.949406445
vt 0.80103898 0.830940127
vt 0.825814426 0.832311809
vt 0.82468152 0.899594724
vt 0.851201177 0.831384897
vt 0.856530309 0.896986961
vt 0.831765294 0.923071206
vt 0.858161151 0.921144068
vt 0.888209105 0.894605935
vt 0.892082512 0.922394574
vt 0.876628637 0.828298628
vt 0.777161121 0.826761305
vt 0.754410684 0.819494128
vt 0.702553213 0.883515835
vt 0.732646286 0.80928272
vt 0.90138942 0.822933972
vt 0.919659078 0.892384589
vt 0.924623013 0.814447641
vt 0.951078653 0.886762798
vt 0.893950701 0.749269247
vt 0.879122198 0.756199718
vt 0.863396585 0.76101166
vt 0.858749032 0.696222782
vt 0.851248741 0.698873162
vt 0.846936882 0.763394713
vt 0.843305588 0.700004339
vt 0.830173254 0.763109982
vt 0.835112572 0.699287474
vt 0.813623786 0.760306716
vt 0.826992095 0.696948767
vt 0.797621548 0.755461514
vt 0.819095254 0.693597674
vt 0.782336056 0.74901557
vt 0.811534882 0.689754188
vt 0.768120468 0.740778685
vt 0.804564416 0.685270667
vt 0.844195426 0.627598405
vt 0.844195426 0.627598405
vt 0.844195426 0.627598405
vt 0.844195426 0.627598405
vt 0.866016209 0.692786813
vt 0.844195426 0.627598405
vt 0.844195426 0.627598405
vt 0.844195426 0.627598405
vt 0.844195426 0.627598405
vt 0.961386085 0.927589297
vt 0.92774725 0.92410475
vt 0.892082512 0.922394574
vt 0.691283166 0.924351454
vt 0.501211107 0.324586123
vt 0.549435258 0.350725025
vt 0.558156073 0.321348041
vt 0.501213431 0.378295273
vt 0.554316521 0.310637385
vt 0.558968008 0.287087917
vt 0.788942456 0.935879648
vt 0.361851841 0.660977304
vt 0.435168386 0.634242177
vt 0.435801506 0.63761282
vt 0.554316521 0.310637385
vt 0.553640544 0.325476646
vt 0.578846991 0.363265604
vt 0.600671351 0.391611516
vt 0.602385044 0.426649034
vt 0.553640544 0.325476646
vt 0.554053903 0.350292414
vt 0.582522988 0.500539482
vt 0.581657588 0.549378633
vt 0.598335624 0.554390967
vt 0.600671351 0.391611516
vt 0.194951713 0.882915676
vt 0.205263466 0.898359418
vt 0.193444028 0.884278417
vt 0.193470001 0.777268171
vt 0.198960319 0.783817589
vt 0.1702829 0.804646254
vt 0.479894131 0.585270107
vt 0.511042297 0.62166965
vt 0.515550256 0.579918325
vt 0.464609861 0.619513154
vt 0.460668504 0.556691289
vt 0.484564483 0.564541936
vt 0.521564901 0.566196203
vt 0.489672869 0.546082377
vt 0.528092563 0.544129312
vt 0.460668504 0.556691289
vt 0.497130364 0.528636873
vt 0.481749237 0.48009944
vt 0.531503081 0.462175518
vt 0.537828267 0.528743744
vt 0.580202937 0.432504028
vt 0.198960319 0.783817589
vt 0.223343879 0.795266807
vt 0.203224614 0.775095642
vt 0.236041501 0.762328327
vt 0.243597835 0.743763387
vt 0.227316394 0.755349636
vt 0.245485649 0.752346158
vt 0.245485649 0.752346158
vt 0.262160987 0.777320087
vt 0.252308756 0.747047484
vt 0.258268982 0.788815856
vt 0.278497756 0.779355347
vt 0.271207958 0.736390054
vt 0.284770012 0.738790989
vt 0.284770012 0.738790989
vt 0.356057197 0.681283772
vt 0.280004948 0.72738564
vt 0.356057197 0.681283772
vt 0.363708258 0.69840467
vt 0.271900088 0.852124333
vt 0.331388056 0.819791794
vt 0.271900088 0.852124333
vt 0.261161357 0.846955836
vt 0.229794636 0.921895266
vt 0.235889852 0.882926702
vt 0.0793905258 0.973253846
vn 0.142361924 -0.849352837 -0.508264542
vn 0.277201593 -0.601977468 -0.748854101
vn 0.057099361 -0.698464692 -0.713363051
vn 0.422541291 -0.803395629 -0.419540644
vn 0.745347738 -0.471813709 -0.471007943
vn 0.475183606 -0.290759683 -0.830457211
vn 0.325181663 -0.94555378 0.0136003066
vn 0.389695197 -0.920542181 0.0272003785
vn 0.14134717 -0.238715693 -0.96074748
vn 0.644073248 -0.660187364 -0.386422396
vn 0.0591409504 -0.664134145 -0.74527055
vn 0.0144244358 -0.924372852 -0.38121736
vn 0.0798966289 -0.236162394 -0.968423367
vn 0.117717974 0.0856051072 -0.989350379
vn -0.118782468 -0.213390544 -0.969719172
vn -0.102744587 0.143187955 -0.984347939
vn 0.191091493 0.0743582323 -0.978751719
vn 0.131103545 0.318646282 -0.938763261
vn 0.156527176 0.265252262 -0.951388776
vn 0.0185790639 0.314601183 -0.949042141
vn 0.407653242 0.262421399 -0.874616444
vn 0.353613228 0.544971108 -0.760239542
vn 0.270540684 0.50547111 -0.819333076
vn 0.826123118 0.329457939 -0.457141012
vn 0.440718859 0.594219327 -0.672807753
vn 0.531155765 0.665476203 -0.524418592
vn 0.319106251 0.686233163 -0.653647721
vn 0.0529915281 0.126332417 -0.990571499
vn -0.126296341 0.481564909 -0.867262602
vn 0.0202531219 0.410694003 -0.911548316
vn -0.302644938 0.177800998 -0.936372161
vn -0.202627659 0.446441382 -0.871568799
vn -0.540268362 0.554521263 -0.632942617
vn 0.742184639 0.669790387 0.0232978482
vn 0.843089223 0.319363475 -0.432674825
vn 0.897230804 -0.0449807309 -0.439265013
vn 0.996048868 0.087686263 0.0140681211
vn 0.897452116 0.440832675 0.0156883933
vn -0.90005964 -0.361800939 -0.24288395
vn 0.891309083 -0.207772702 -0.402987272
vn 0.997433245 -0.0712086409 0.00750735356
vn 0.903140366 -0.429240376 0.00949980319
vn 0.8272053 -0.291104436 -0.480613708
vn 0.906855464 -0.421053261 0.0180927105
vn 0.950276315 -0.227747381 -0.212381527
vn 0.652934194 -0.747887313 -0.119755656
vn 0.180077523 -0.647801578 -0.740219712
vn -0.0161746833 -0.22874184 -0.97335273
vn -0.00461413851 -0.0511558168 -0.998680055
vn 0.906855464 -0.421053261 0.0180927105
vn 0.73527503 -0.67767179 0.0114708999
vn 0.906855464 -0.421053261 0.0180927105
vn 0.73527503 -0.67767179 0.0114708999
vn 0.923707068 0.363976896 -0.119524613
vn -0.248620763 -0.896592259 -0.366483122
vn -0.156495884 -0.657717884 -0.736828566
vn -0.481540382 -0.816988707 -0.317251116
vn -0.430948496 -0.603328645 -0.671027482
vn -0.474856377 -0.880063236 0
vn -0.231736764 -0.97277844 -0.000350651913
vn -0.418730617 -0.180247888 -0.890042305
vn -0.0395552255 -0.999204576 0.00505498983
vn 0.0701921657 -0.994853795 0.0730682388
vn 0.389695197 -0.920542181 0.0272003785
vn 0.440718859 0.594219327 -0.672807753
vn -0.163921729 0.752811909 -0.63749814
vn 0.301625669 0.951200724 -0.0651078373
vn 0.0185790639 0.314601183 -0.949042141
vn -0.462689847 0.0998768583 -0.880876124
vn -0.00461413851 -0.0511558168 -0.998680055
vn 0.332598567 0.938244224 -0.095267728
vn 0.607902884 0.595174491 0.52556771
vn 0.592602611 0.599717855 0.537736595
vn 0.599993885 -0.129204571 0.789502025
vn 0.706732213 -0.123511039 0.69661653
vn 0.923707068 0.363976896 -0.119524613
vn 0.950276315 -0.227747381 -0.212381527
vn 0.27480042 -0.808370531 0.520597637
vn 0.652934194 -0.747887313 -0.119755656
vn 0.307599157 -0.793165863 0.52561444
vn -0.05388451 0.715541184 -0.696489155
vn -0.330636054 0.07317698 -0.940917075
vn -0.48308301 -0.62962234 -0.608446002
vn -0.345889688 -0.626974463 -0.698042572
vn -0.169973046 -0.98454833 -0.0421158262
vn -0.0861888528 -0.991582453 -0.0966217294
vn -0.0861888528 -0.991582453 -0.0966217294
vn -0.169973046 -0.98454833 -0.0421158262
vn -0.197977871 -0.659086406 -0.725541055
vn -0.0691092238 -0.995266318 -0.0683288127
vn -0.0691092238 -0.995266318 -0.0683288127
vn 0.188516542 -0.767806411 0.612319291
vn -0.0580492765 -0.997628748 -0.0369747318
vn 0.0546050556 -0.739164829 0.671307445
vn 0.423118681 -0.091194354 0.901473343
vn 0.227539018 -0.0490753725 0.972531557
vn 0.488997549 0.621281087 0.612283587
vn 0.355141908 0.65059787 0.671265066
vn 0.34908253 0.9346627 -0.0674317181
vn 0.359628379 0.932373703 -0.0366980955
vn 0.0932376981 0.68298167 -0.724460244
vn 0.242948875 0.649838924 -0.720198095
vn -0.13029629 0.0291900802 -0.991045296
vn 0.0759820864 -0.0161419325 -0.996978521
vn -0.0475978479 -0.69174999 -0.72056675
vn 0.976556182 -0.212957501 0.0314170793
vn -0.0580492765 -0.997628748 -0.0369747318
vn 0.976556182 -0.212957501 0.0314170793
vn -0.0161746833 -0.22874184 -0.97335273
vn 0.180077523 -0.647801578 -0.740219712
vn 0.6608482 -0.236673698 0.712225556
vn -0.439154565 0.117473669 0.890698195
vn -0.594753683 -0.203773245 0.777653277
vn 0.660616934 -0.227759153 0.715339839
vn -0.90005964 -0.361800939 -0.24288395
vn -0.540268362 0.554521263 -0.632942617
vn -0.594753683 -0.203773245 0.777653277
vn -0.90005964 -0.361800939 -0.24288395
vn 0.180077523 -0.647801578 -0.740219712
vn -0.486701608 -0.217292622 0.846111953
vn 0.551659465 -0.0552953221 0.832234561
vn -0.458128273 0.119117685 0.880868614
vn 0.369421065 -0.336429119 0.866223693
vn 0.6608482 -0.236673698 0.712225556
vn 0.660616934 -0.227759153 0.715339839
vn -0.998136759 0.0286611151 0.0538648814
vn -0.982328594 -0.186816543 -0.0114081707
vn -0.81524545 0.0501993597 0.576935768
vn -0.763269126 -0.29467532 0.574966609
vn -0.742194355 0.143029228 0.654744387
vn -0.728321552 0.0306488723 0.684549809
vn -0.728321314 0.0306488052 -0.684550107
vn -0.742194355 0.143029228 0.654744387
vn -0.742194355 0.143029243 -0.654744327
vn -0.742194355 0.143029243 -0.654744327
vn -0.763269126 -0.29467532 -0.574966609
vn -0.815245509 0.0501993969 -0.576935589
vn -0.982328594 -0.186816484 0.011408153
vn -0.998136878 0.0286610611 -0.0538648516
vn -0.48670122 -0.217292815 -0.846112132
vn 0.551659346 -0.0552954227 -0.832234621
vn 0.373205513 -0.336326063 -0.864640057
vn -0.458128214 0.119117558 -0.880868614
vn 0.662630796 -0.233985543 -0.711457133
vn 0.660383165 -0.21704568 -0.718877733
vn -0.998136759 0.0286611151 0.0538648814
vn -0.486701608 -0.217292622 0.846111953
vn -0.458128273 0.119117685 0.880868614
vn -0.90005964 -0.361800939 -0.24288395
vn -0.239914611 -0.0993791744 -0.96569401
vn -0.0305787735 0.591590941 -0.805658281
vn 0.0940381065 0.310837239 -0.945799708
vn 0.0622958541 0.710449517 -0.700985551
vn 0.458137333 0.645001054 -0.611624062
vn 0.254907846 0.752387762 -0.6074
vn 0.679442465 0.733728826 0
vn 0.91204977 0.409999967 -0.00807197019
vn 0.319106251 0.686233163 -0.653647721
vn 0.189191565 0.871697485 -0.452050984
vn 0.3696751 0.809373856 -0.456348896
vn 0.254907846 0.752387762 -0.6074
vn -0.0881497487 0.986916661 0.135000199
vn -0.516824186 0.809950113 0.277260751
vn -0.349458009 0.80885464 -0.472898871
vn 0.458137333 0.645001054 -0.611624062
vn 0.0940381065 0.310837239 -0.945799708
vn 0.106738299 0.966291547 -0.23428078
vn -0.998136759 0.0286611151 0.0538648814
vn -0.81524545 0.0501993597 0.576935768
vn -0.516824186 0.809950113 0.277260751
vn 0.473818064 0.852303505 -0.221529379
vn -0.0305787735 0.591590941 -0.805658281
vn 0.0622958541 0.710449517 -0.700985551
vn 0.780618489 0.623124599 -0.0484827757
vn -0.100122616 0.957055449 -0.2720671
vn 0.567597389 0.651502252 0.503366709
vn -0.526466131 0.794892907 0.301626712
vn -0.594753683 -0.203773245 0.777653277
vn -0.779425383 -0.269426823 0.565601587
vn 0.551659465 -0.0552953221 0.832234561
vn -0.458128273 0.119117685 0.880868614
vn 0.106738299 0.966291547 -0.23428078
vn 0.6608482 -0.236673698 0.712225556
vn 0.304783285 -0.459663868 0.834156096
vn 0.567597389 0.651502252 0.503366709
vn 0.54573983 0.836192906 0.0543074422
vn -0.0849677473 0.95617497 -0.280196279
vn 0.573050618 0.636152625 0.516645789
vn -0.53916043 0.78861922 0.295610785
vn -0.444401413 -0.651064932 0.615322471
vn -0.813900411 -0.273915231 0.512383103
vn 0.106738299 0.966291547 -0.23428078
vn -0.998136759 0.0286611151 0.0538648814
vn -0.100122616 0.957055449 -0.2720671
vn 0.0564306192 -0.610415161 0.790068924
vn 0.0564306192 -0.610415161 0.790068924
vn -0.594753683 -0.203773245 0.777653277
vn 0.325557292 -0.504502952 0.799680769
vn 0.573050618 0.636152625 0.516645789
vn 0.0564306192 -0.610415161 0.790068924
vn 0.505603194 0.86116755 0.0524969101
vn -0.260418504 0.139023215 -0.955434382
vn -0.315633357 0.576518118 -0.753659368
vn -0.481487215 -0.85646224 -0.186125115
vn -0.64036864 -0.736123502 -0.219203472
vn -0.643625677 0.75078094 0.148573264
vn 0.53738457 0.647856891 0.53990674
vn -0.643625677 0.75078094 0.148573264
vn -0.239914611 -0.0993791744 -0.96569401
vn -0.90005964 -0.361800939 -0.24288395
vn -0.481487215 -0.85646224 -0.186125115
vn -0.0849677473 0.95617497 -0.280196279
vn 0.0708259717 -0.556741714 0.827660799
vn 0.286603272 -0.501559496 0.816269934
vn 0.53738457 0.647856891 0.53990674
vn 0.286603272 -0.501559496 0.816269934
vn 0.505603194 0.86116755 0.0524969101
vn -0.742194355 0.143029243 -0.654744327
vn -0.742194355 0.143029228 0.654744387
vn -0.0881497487 0.986916661 -0.135000199
vn 0.189191476 0.871697485 0.452051073
vn 0.254907846 0.752387762 0.6074
vn 0.319106251 0.686233163 0.653647721
vn 0.369674772 0.809374034 0.456348985
vn -0.516824186 0.809950113 -0.27726078
vn -0.349458307 0.808854401 0.47289893
vn -0.516824186 0.809950113 -0.27726078
vn -0.815245509 0.0501993969 -0.576935589
vn -0.998136878 0.0286610611 -0.0538648516
vn 0.458137304 0.645001054 0.611624062
vn 0.094038181 0.310837448 0.945799649
vn 0.106738076 0.966291666 0.234280601
vn -0.998136878 0.0286610611 -0.0538648516
vn 0.473818153 0.852303505 0.221529096
vn -0.458128214 0.119117558 -0.880868614
vn 0.551659346 -0.0552954227 -0.832234621
vn 0.78061837 0.623124599 0.0484827906
vn 0.662630796 -0.233985543 -0.711457133
vn 0.304783285 -0.459663868 -0.834156096
vn 0.56759733 0.651502252 -0.503366709
vn -0.100122586 0.957055449 0.2720671
vn -0.526466131 0.794892907 -0.301626712
vn 0.0622959174 0.710449517 0.700985551
vn 0.54573983 0.836192906 -0.0543074422
vn -0.0849677473 0.95617497 0.280196279
vn 0.573050618 0.636152625 -0.516645789
vn -0.53916043 0.78861922 -0.295610785
vn 0.505603194 0.86116755 -0.0524969101
vn 0.0708259717 -0.556741714 -0.827660799
vn -0.444401413 -0.651064932 -0.615322471
vn -0.260418504 0.139023215 0.955434382
vn -0.315633357 0.576518178 0.753659308
vn -0.481487215 -0.85646224 0.186125115
vn -0.64036864 -0.736123502 0.219203472
vn -0.643625677 0.75078094 -0.148573264
vn 0.53738451 0.647856951 -0.539906681
vn -0.643625677 0.75078094 -0.148573264
vn -0.239914596 -0.0993791819 0.96569401
vn 0.0564306192 -0.610415161 -0.790068924
vn -0.100122586 0.957055449 0.2720671
vn -0.595790327 -0.20040755 -0.777734399
vn 0.54573983 0.836192906 -0.0543074422
vn 0.325557292 -0.504502952 -0.799680769
vn 0.325557292 -0.504502952 -0.799680769
vn 0.573050618 0.636152625 -0.516645789
vn -0.64036864 -0.736123502 0.219203472
vn -0.917090356 -0.268916219 -0.294328779
vn -0.742194355 0.143029228 0.654744387
vn -0.516824186 0.809950113 0.277260751
vn -0.0881497487 0.986916661 0.135000199
vn -0.81524545 0.0501993597 0.576935768
vn 0.679442465 0.733728826 0
vn -0.516824186 0.809950113 -0.27726078
vn -0.742194355 0.143029243 -0.654744327
vn -0.815245509 0.0501993969 -0.576935589
vn -0.779425383 -0.269426823 0.565601587
vn 0.567597389 0.651502252 0.503366709
vn 0.304783285 -0.459663868 0.834156096
vn -0.779425383 -0.269426823 0.565601587
vn -0.526466131 0.794892907 0.301626712
vn -0.594753683 -0.203773245 0.777653277
vn 0.304783285 -0.459663868 0.834156096
vn 0.6608482 -0.236673698 0.712225556
vn -0.779425383 -0.269426823 0.565601587
vn 0.573050618 0.636152625 0.516645789
vn -0.813900411 -0.273915231 0.512383103
vn -0.53916043 0.78861922 0.295610785
vn -0.813900411 -0.273915231 0.512383103
vn 0.325557292 -0.504502952 0.799680769
vn 0.0708259717 -0.556741714 0.827660799
vn -0.0849677473 0.95617497 -0.280196279
vn -0.444401413 -0.651064932 0.615322471
vn 0.53738457 0.647856891 0.53990674
vn -0.917090356 -0.268916219 0.294328779
vn -0.643625677 0.75078094 0.148573264
vn 0.286603272 -0.501559496 0.816269934
vn -0.64036864 -0.736123502 -0.219203472
vn -0.643625677 0.75078094 0.148573264
vn -0.917090356 -0.268916219 0.294328779
vn -0.64036864 -0.736123502 -0.219203472
vn 0.286603272 -0.501559496 0.816269934
vn 0.0708259717 -0.556741714 0.827660799
vn -0.917090356 -0.268916219 0.294328779
vn -0.444401413 -0.651064932 0.615322471
vn -0.90005964 -0.361800939 -0.24288395
vn 0.325557292 -0.504502952 0.799680769
vn 0.0564306192 -0.610415161 0.790068924
vn -0.813900411 -0.273915231 0.512383103
vn -0.90005964 -0.361800939 -0.24288395
vn -0.594753683 -0.203773245 0.777653277
vn -0.90005964 -0.361800939 -0.24288395
vn -0.481487215 -0.85646224 -0.186125115
vn -0.64036864 -0.736123502 -0.219203472
vn 0.146319255 -0.807932794 0.570819736
vn 0.265151411 -0.583400011 0.767684281
vn 0.422059834 -0.801334321 0.423944354
vn 0.0565730259 -0.675563157 0.735128522
vn 0.7397632 -0.483676553 0.467768461
vn 0.442664474 -0.401562124 0.801745594
vn 0.325181663 -0.94555378 0.0136003066
vn 0.389695197 -0.920542181 0.0272003785
vn 0.0893076509 -0.223792061 0.97053659
vn 0.630034149 -0.653049171 0.420218647
vn 0.0607927218 -0.63853699 0.767186284
vn 0.0140213883 -0.923518419 0.383297563
vn 0.084199734 -0.204699561 0.9751966
vn 0.110333554 0.0524005592 0.992512345
vn -0.0571773201 -0.197837427 0.978565872
vn -0.0362742357 0.0899185091 0.995288253
vn 0.103967987 0.0559074022 0.993008018
vn 0.126636967 0.281203479 0.951255858
vn 0.133770943 0.250690848 0.95878011
vn 0.0354959369 0.396406949 0.917388439
vn 0.405348808 0.291456312 0.866455674
vn 0.353613228 0.544971108 0.760239542
vn 0.270540684 0.50547111 0.819333076
vn 0.827681959 0.335612386 0.449785411
vn 0.530032814 0.593054891 0.606095016
vn 0.524267972 0.666368127 0.530185461
vn 0.319106251 0.686233163 0.653647721
vn 0.0529915281 0.126332417 0.990571499
vn -0.125139102 0.486396611 0.864730358
vn 0.00448577572 0.396723896 0.917926967
vn -0.206892744 0.135109723 0.968989611
vn -0.243267059 0.464339077 0.851592779
vn -0.540354609 0.554458916 0.632923543
vn 0.742184639 0.669790387 0.0232978482
vn 0.827053189 0.300911278 0.474800259
vn 0.920231342 -0.0388082378 0.38944605
vn 0.996048868 0.087686263 0.0140681211
vn 0.897452116 0.440832675 0.0156883933
vn 0.897452116 0.440832675 0.0156883933
vn -0.900477886 -0.359415472 0.24486728
vn 0.880383193 -0.206185058 0.427098632
vn 0.997433245 -0.0712086409 0.00750735356
vn 0.903140366 -0.429240376 0.00949980319
vn 0.855857551 -0.306998461 0.416244894
vn 0.906855464 -0.421053261 0.0180927105
vn 0.965046942 -0.261312842 0.0199994389
vn 0.625126839 -0.759056389 0.181795925
vn 0.269351065 -0.831006348 0.486701578
vn -0.0762351826 -0.374057949 0.924266636
vn -0.0399457775 0.00982948951 0.999153495
vn 0.906855464 -0.421053261 0.0180927105
vn 0.73527503 -0.67767179 0.0114708999
vn 0.906855464 -0.421053261 0.0180927105
vn 0.73527503 -0.67767179 0.0114708999
vn 0.941362381 0.314750969 0.121526837
vn -0.248620763 -0.896592259 0.366483152
vn -0.154387683 -0.635854363 0.756210089
vn -0.481540382 -0.816988707 0.317251116
vn -0.415818065 -0.591981709 0.690400541
vn -0.474856377 -0.880063236 0
vn -0.231736764 -0.97277844 -0.000350651913
vn -0.283497393 -0.190179721 0.939925969
vn -0.0395552255 -0.999204576 0.00505498983
vn 0.0701921657 -0.994853795 0.0730682388
vn 0.389695197 -0.920542181 0.0272003785
vn 0.530032814 0.593054891 0.606095016
vn -0.165289074 0.711166978 0.683316171
vn 0.0354959369 0.396406949 0.917388439
vn 0.301352262 0.951459229 0.0625473559
vn -0.429780394 0.0966096073 0.897750139
vn -0.0399457775 0.00982948951 0.999153495
vn 0.339426994 0.936398685 0.0891453624
vn 0.576796889 0.60463053 -0.549297094
vn 0.598089755 0.613072157 -0.516169786
vn 0.553434908 -0.113631092 -0.825104654
vn 0.680001378 -0.142388299 -0.719252169
vn 0.941362381 0.314750969 0.121526837
vn 0.965046942 -0.261312842 0.0199994389
vn 0.285626918 -0.80932945 -0.513228297
vn 0.625126839 -0.759056389 0.181795925
vn 0.277477652 -0.784552574 -0.554511905
vn -0.0216927622 0.706741691 0.707138956
vn -0.28637144 0.0740994588 0.955249012
vn -0.442402363 -0.590814471 0.67469877
vn -0.305512935 -0.632552683 0.711715519
vn -0.0803164318 -0.992626131 0.0907892138
vn -0.141751364 -0.988783777 0.0470443889
vn -0.305512935 -0.632552683 0.711715519
vn -0.442402363 -0.590814471 0.67469877
vn -0.170763746 -0.668088555 0.724221945
vn -0.0706275254 -0.9958691 0.0570647046
vn 0.16479975 -0.761330664 -0.627069831
vn -0.0511803031 -0.998206496 0.0310547892
vn 0.0498395488 -0.735826373 -0.675333738
vn 0.398180634 -0.0879344642 -0.91308254
vn 0.220283464 -0.0482020006 -0.974244237
vn 0.485181123 0.61594522 -0.62065351
vn 0.355862677 0.646509647 -0.674823761
vn 0.374693125 0.924967527 0.0635622963
vn 0.375071704 0.926471353 0.0311789196
vn 0.138856679 0.672026873 0.72739166
vn 0.271364957 0.643166304 0.716029525
vn -0.0841507316 0.0174155105 0.996300817
vn 0.107310534 -0.0237239357 0.99394244
vn -0.170763746 -0.668088555 0.724221945
vn -0.0255620815 -0.69754529 0.716084599
vn 0.975326657 -0.214853004 -0.0507553816
vn 0.975326657 -0.214853004 -0.0507553816
vn 0.975326657 -0.214853004 -0.0507553816
vn 0.975326657 -0.214853004 -0.0507553816
vn -0.0255620815 -0.69754529 0.716084599
vn 0.975326657 -0.214853004 -0.0507553816
vn 0.975326657 -0.214853004 -0.0507553816
vn 0.975326657 -0.214853004 -0.0507553816
vn 0.975326657 -0.214853004 -0.0507553816
vn -0.0762351826 -0.374057949 0.924266636
vn 0.269351065 -0.831006348 0.486701578
vn 0.625126839 -0.759056389 0.181795925
vn -0.0762351826 -0.374057949 0.924266636
vn -0.440658331 0.12924695 -0.888321638
vn 0.662630796 -0.233985543 -0.711457133
vn -0.595790327 -0.20040755 -0.777734399
vn 0.660383165 -0.21704568 -0.718877733
vn -0.900477886 -0.359415472 0.24486728
vn -0.540354609 0.554458916 0.632923543
vn 0.530032814 0.593054891 0.606095016
vn -0.48670122 -0.217292815 -0.846112132
vn -0.998136878 0.0286610611 -0.0538648516
vn -0.458128214 0.119117558 -0.880868614
vn -0.900477886 -0.359415472 0.24486728
vn -0.239914596 -0.0993791819 0.96569401
vn -0.030578658 0.591590941 0.805658162
vn 0.094038181 0.310837448 0.945799649
vn 0.458137304 0.645001054 0.611624062
vn -0.239914596 -0.0993791819 0.96569401
vn 0.0622959174 0.710449517 0.700985551
vn 0.254907846 0.752387762 0.6074
vn 0.679442465 0.733728826 0
vn 0.91204977 0.409999967 -0.00807197019
vn 0.094038181 0.310837448 0.945799649
vn -0.998136878 0.0286610611 -0.0538648516
vn 0.106738076 0.966291666 0.234280601
vn -0.458128214 0.119117558 -0.880868614
vn -0.779425383 -0.269426823 -0.565601587
vn -0.526466131 0.794892907 -0.301626712
vn 0.304783285 -0.459663868 -0.834156096
vn -0.595790327 -0.20040755 -0.777734399
vn 0.304783285 -0.459663868 -0.834156096
vn -0.779425383 -0.269426823 -0.565601587
vn 0.662630796 -0.233985543 -0.711457133
vn -0.900477886 -0.359415472 0.24486728
vn 0.0564306192 -0.610415161 -0.790068924
vn 0.325557292 -0.504502952 -0.799680769
vn -0.444401413 -0.651064932 -0.615322471
vn -0.813900411 -0.273915231 -0.512383103
vn -0.900477886 -0.359415472 0.24486728
vn 0.0708259717 -0.556741714 -0.827660799
vn -0.481487215 -0.85646224 0.186125115
vn -0.64036864 -0.736123502 0.219203472
vn 0.286603272 -0.501559496 -0.816269934
vn -0.917090356 -0.268916219 -0.294328779
vn -0.526466131 0.794892907 -0.301626712
vn -0.595790327 -0.20040755 -0.777734399
vn -0.779425383 -0.269426823 -0.565601587
vn 0.573050618 0.636152625 -0.516645789
vn -0.813900411 -0.273915231 -0.512383103
vn 0.325557292 -0.504502952 -0.799680769
vn -0.53916043 0.78861922 -0.295610785
vn -0.53916043 0.78861922 -0.295610785
vn -0.444401413 -0.651064932 -0.615322471
vn -0.813900411 -0.273915231 -0.512383103
vn -0.0849677473 0.95617497 0.280196279
vn 0.505603194 0.86116755 -0.0524969101
vn 0.286603272 -0.501559496 -0.816269934
vn 0.53738451 0.647856951 -0.539906681
vn 0.53738451 0.647856951 -0.539906681
vn -0.917090356 -0.268916219 -0.294328779
vn 0.286603272 -0.501559496 -0.816269934
vn -0.917090356 -0.268916219 -0.294328779
vn -0.643625677 0.75078094 -0.148573264
vn -0.900477886 -0.359415472 0.24486728
vn -0.481487215 -0.85646224 0.186125115
vn -0.900477886 -0.359415472 0.24486728
vn -0.239914596 -0.0993791819 0.96569401
vn 0.094038181 0.310837448 0.945799649
vn -0.030578658 0.591590941 0.805658162
vn 0.679442465 0.733728826 0
g blue_mag_m_pve_1_helm_0
f 3/3/3 2/2/2 1/1/1
f 4/4/4 1/1/1 2/2/2
f 4/4/4 2/2/2 5/5/5
f 6/6/6 5/5/5 2/2/2
f 4/4/4 7/7/7 1/1/1
f 8/8/8 1/1/1 7/7/7
f 6/6/6 2/2/2 9/9/9
f 3/3/3 9/9/9 2/2/2
f 10/10/10 7/7/7 4/4/4
f 5/5/5 10/10/10 4/4/4
f 3/3/3 1/1/1 11/11/11
f 12/12/12 11/11/11 1/1/1
f 9/9/9 3/3/3 13/13/13
f 11/11/11 13/13/13 3/3/3
f 13/13/13 14/14/14 9/9/9
f 13/13/13 15/15/15 14/14/14
f 16/16/16 14/14/14 15/15/15
f 17/17/17 9/9/9 14/14/14
f 14/14/14 18/18/18 17/17/17
f 14/14/14 16/16/16 18/18/18
f 19/19/19 17/17/17 18/18/18
f 17/17/17 19/19/19 20/20/20
f 21/21/21 20/20/20 19/19/19
f 21/21/21 19/19/19 22/22/22
f 23/23/23 22/22/22 19/19/19
f 21/21/21 22/22/22 24/24/24
f 24/24/24 25/25/25 21/21/21
f 25/25/25 20/20/20 21/21/21
f 26/26/26 24/24/24 22/22/22
f 27/27/27 26/26/26 22/22/22
f 23/23/23 27/27/27 22/22/22
f 23/23/23 19/19/19 28/28/28
f 18/18/18 28/28/28 19/19/19
f 28/28/28 18/18/18 29/29/29
f 30/30/30 29/29/29 18/18/18
f 30/30/30 18/18/18 16/16/16
f 16/16/16 31/31/31 30/30/30
f 32/32/32 30/30/30 31/31/31
f 30/30/30 32/32/32 29/29/29
f 33/33/33 29/29/29 32/32/32
f 26/26/26 34/34/34 24/24/24
f 35/35/35 24/24/24 34/34/34
f 24/24/24 35/35/35 36/36/36
f 24/24/24 36/36/36 25/25/25
f 37/37/37 36/36/36 35/35/35
f 38/38/38 35/35/35 34/34/34
f 38/38/38 37/37/37 35/35/35
f 33/33/33 39/39/39 29/29/29
f 40/40/40 36/36/36 37/37/37
f 40/40/40 37/37/37 41/41/41
f 41/41/41 42/42/42 40/40/40
f 36/36/36 40/40/40 43/43/43
f 42/42/42 43/43/43 40/40/40
f 43/43/43 42/42/42 5/5/5
f 44/44/44 5/5/5 42/42/42
f 43/43/43 5/5/5 45/45/45
f 43/43/43 45/45/45 36/36/36
f 46/46/46 45/45/45 5/5/5
f 5/5/5 6/6/6 46/46/46
f 47/47/47 46/46/46 6/6/6
f 47/47/47 6/6/6 48/48/48
f 9/9/9 48/48/48 6/6/6
f 9/9/9 17/17/17 48/48/48
f 49/49/49 48/48/48 17/17/17
f 49/49/49 17/17/17 20/20/20
f 50/50/50 10/10/10 5/5/5
f 10/10/10 52/52/52 51/51/51
f 7/7/7 10/10/10 53/53/53
f 54/54/54 36/36/36 45/45/45
f 54/54/54 25/25/25 36/36/36
f 12/12/12 55/55/55 11/11/11
f 56/56/56 11/11/11 55/55/55
f 11/11/11 56/56/56 13/13/13
f 15/15/15 13/13/13 56/56/56
f 55/55/55 57/57/57 56/56/56
f 58/58/58 56/56/56 57/57/57
f 56/56/56 58/58/58 15/15/15
f 57/57/57 55/55/55 59/59/59
f 60/60/60 59/59/59 55/55/55
f 55/55/55 12/12/12 60/60/60
f 61/61/61 15/15/15 58/58/58
f 15/15/15 61/61/61 16/16/16
f 31/31/31 16/16/16 61/61/61
f 62/62/62 60/60/60 12/12/12
f 12/12/12 1/1/1 62/62/62
f 62/62/62 1/1/1 63/63/63
f 1/1/1 64/64/64 63/63/63
f 67/67/67 66/66/66 65/65/65
f 68/68/68 65/65/65 66/66/66
f 66/66/66 69/69/69 68/68/68
f 70/70/70 68/68/68 69/69/69
f 67/67/67 71/71/71 66/66/66
f 71/71/71 67/67/67 72/72/72
f 73/73/73 72/72/72 67/67/67
f 67/67/67 65/65/65 73/73/73
f 72/72/72 73/73/73 74/74/74
f 75/75/75 74/74/74 73/73/73
f 73/73/73 76/76/76 75/75/75
f 76/76/76 73/73/73 65/65/65
f 77/77/77 75/75/75 76/76/76
f 75/75/75 77/77/77 78/78/78
f 79/79/79 78/78/78 77/77/77
f 74/74/74 75/75/75 80/80/80
f 78/78/78 80/80/80 75/75/75
f 81/81/81 66/66/66 71/71/71
f 66/66/66 81/81/81 69/69/69
f 82/82/82 69/69/69 81/81/81
f 69/69/69 82/82/82 83/83/83
f 84/84/84 83/83/83 82/82/82
f 83/83/83 84/84/84 85/85/85
f 86/86/86 85/85/85 84/84/84
f 80/80/80 78/78/78 87/87/87
f 88/88/88 87/87/87 78/78/78
f 84/84/84 89/89/89 86/86/86
f 90/90/90 86/86/86 89/89/89
f 87/87/87 91/91/91 80/80/80
f 92/92/92 80/80/80 91/91/91
f 91/91/91 93/93/93 92/92/92
f 94/94/94 92/92/92 93/93/93
f 92/92/92 94/94/94 95/95/95
f 96/96/96 95/95/95 94/94/94
f 95/95/95 96/96/96 97/97/97
f 98/98/98 97/97/97 96/96/96
f 97/97/97 98/98/98 99/99/99
f 100/100/100 99/99/99 98/98/98
f 99/99/99 100/100/100 101/101/101
f 102/102/102 101/101/101 100/100/100
f 101/101/101 102/102/102 103/103/103
f 104/104/104 103/103/103 102/102/102
f 103/103/103 104/104/104 89/89/89
f 105/105/105 89/89/89 104/104/104
f 104/104/104 106/106/106 105/105/105
f 93/93/93 106/106/106 94/94/94
f 105/105/105 106/106/106 107/107/107
f 102/102/102 108/108/108 104/104/104
f 100/100/100 108/108/108 102/102/102
f 98/98/98 108/108/108 100/100/100
f 96/96/96 108/108/108 98/98/98
f 94/94/94 108/108/108 96/96/96
f 103/103/103 82/82/82 101/101/101
f 81/81/81 101/101/101 82/82/82
f 101/101/101 81/81/81 99/99/99
f 71/71/71 99/99/99 81/81/81
f 99/99/99 71/71/71 97/97/97
f 72/72/72 97/97/97 71/71/71
f 97/97/97 72/72/72 95/95/95
f 74/74/74 95/95/95 72/72/72
f 95/95/95 74/74/74 92/92/92
f 80/80/80 92/92/92 74/74/74
f 107/107/107 90/90/90 105/105/105
f 89/89/89 105/105/105 90/90/90
f 82/82/82 103/103/103 84/84/84
f 89/89/89 84/84/84 103/103/103
f 110/110/110 109/109/109 85/85/85
f 83/83/83 85/85/85 109/109/109
f 83/83/83 109/109/109 69/69/69
f 70/70/70 69/69/69 109/109/109
f 113/113/113 112/112/112 111/111/111
f 114/114/114 111/111/111 112/112/112
f 116/116/116 112/112/112 115/115/115
f 118/118/118 112/112/112 117/117/117
f 88/88/88 78/78/78 119/119/119
f 79/79/79 119/119/119 78/78/78
f 122/122/122 121/121/121 120/120/120
f 123/123/123 120/120/120 121/121/121
f 121/121/121 124/124/124 123/123/123
f 125/125/125 123/123/123 124/124/124
f 127/127/127 126/126/126 120/120/120
f 126/126/126 127/127/127 128/128/128
f 129/129/129 128/128/128 127/127/127
f 128/128/128 129/129/129 130/130/130
f 131/131/131 130/130/130 129/129/129
f 131/131/131 132/132/132 130/130/130
f 134/134/134 133/133/133 132/132/132
f 132/132/132 136/136/136 135/135/135
f 137/137/137 135/135/135 136/136/136
f 136/136/136 138/138/138 137/137/137
f 139/139/139 137/137/137 138/138/138
f 138/138/138 140/140/140 139/139/139
f 142/142/142 141/141/141 140/140/140
f 143/143/143 140/140/140 141/141/141
f 141/141/141 142/142/142 144/144/144
f 145/145/145 144/144/144 142/142/142
f 148/148/148 147/147/147 146/146/146
f 150/150/150 29/29/29 149/149/149
f 29/29/29 150/150/150 151/151/151
f 29/29/29 151/151/151 152/152/152
f 153/153/153 151/151/151 150/150/150
f 28/28/28 29/29/29 152/152/152
f 28/28/28 152/152/152 23/23/23
f 23/23/23 152/152/152 154/154/154
f 27/27/27 23/23/23 154/154/154
f 26/26/26 27/27/27 155/155/155
f 26/26/26 155/155/155 156/156/156
f 157/157/157 26/26/26 156/156/156
f 157/157/157 34/34/34 26/26/26
f 160/160/160 159/159/159 158/158/158
f 161/161/161 158/158/158 159/159/159
f 161/161/161 159/159/159 162/162/162
f 163/163/163 162/162/162 159/159/159
f 163/163/163 159/159/159 164/164/164
f 160/160/160 164/164/164 159/159/159
f 160/160/160 165/165/165 164/164/164
f 160/160/160 158/158/158 165/165/165
f 165/165/165 166/166/166 164/164/164
f 167/167/167 164/164/164 166/166/166
f 164/164/164 167/167/167 168/168/168
f 168/168/168 169/169/169 164/164/164
f 170/170/170 164/164/164 169/169/169
f 167/167/167 166/166/166 171/171/171
f 172/172/172 171/171/171 166/166/166
f 172/172/172 173/173/173 171/171/171
f 171/171/171 173/173/173 174/174/174
f 175/175/175 174/174/174 173/173/173
f 174/174/174 175/175/175 176/176/176
f 177/177/177 176/176/176 175/175/175
f 175/175/175 178/178/178 177/177/177
f 179/179/179 177/177/177 178/178/178
f 171/171/171 174/174/174 180/180/180
f 180/180/180 181/181/181 171/171/171
f 182/182/182 171/171/171 181/181/181
f 183/183/183 180/180/180 174/174/174
f 183/183/183 174/174/174 184/184/184
f 185/185/185 184/184/184 174/174/174
f 175/175/175 173/173/173 186/186/186
f 186/186/186 173/173/173 187/187/187
f 186/186/186 187/187/187 188/188/188
f 189/189/189 188/188/188 187/187/187
f 187/187/187 190/190/190 189/189/189
f 191/191/191 189/189/189 190/190/190
f 181/181/181 193/193/193 192/192/192
f 186/186/186 195/195/195 194/194/194
f 197/197/197 194/194/194 196/196/196
f 199/199/199 198/198/198 186/186/186
f 200/200/200 186/186/186 198/198/198
f 187/187/187 173/173/173 201/201/201
f 202/202/202 201/201/201 173/173/173
f 202/202/202 203/203/203 201/201/201
f 202/202/202 204/204/204 203/203/203
f 205/205/205 203/203/203 204/204/204
f 203/203/203 205/205/205 206/206/206
f 201/201/201 203/203/203 207/207/207
f 208/208/208 207/207/207 203/203/203
f 173/173/173 209/209/209 202/202/202
f 209/209/209 210/210/210 202/202/202
f 211/211/211 202/202/202 210/210/210
f 201/201/201 213/213/213 212/212/212
f 215/215/215 214/214/214 201/201/201
f 213/213/213 217/217/217 216/216/216
f 219/219/219 218/218/218 162/162/162
f 220/220/220 162/162/162 218/218/218
f 222/222/222 220/220/220 221/221/221
f 222/222/222 221/221/221 223/223/223
f 224/224/224 223/223/223 221/221/221
f 225/225/225 221/221/221 220/220/220
f 224/224/224 221/221/221 226/226/226
f 227/227/227 226/226/226 221/221/221
f 227/227/227 228/228/228 226/226/226
f 229/229/229 226/226/226 228/228/228
f 230/230/230 224/224/224 226/226/226
f 223/223/223 224/224/224 230/230/230
f 230/230/230 226/226/226 231/231/231
f 232/232/232 231/231/231 226/226/226
f 226/226/226 233/233/233 232/232/232
f 232/232/232 234/234/234 231/231/231
f 232/232/232 235/235/235 234/234/234
f 236/236/236 234/234/234 235/235/235
f 234/234/234 236/236/236 237/237/237
f 238/238/238 237/237/237 236/236/236
f 238/238/238 239/239/239 237/237/237
f 240/240/240 237/237/237 239/239/239
f 237/237/237 240/240/240 241/241/241
f 242/242/242 241/241/241 240/240/240
f 241/241/241 243/243/243 237/237/237
f 234/234/234 237/237/237 243/243/243
f 243/243/243 241/241/241 244/244/244
f 243/243/243 244/244/244 245/245/245
f 244/244/244 246/246/246 245/245/245
f 247/247/247 245/245/245 246/246/246
f 245/245/245 248/248/248 243/243/243
f 248/248/248 245/245/245 249/249/249
f 250/250/250 249/249/249 245/245/245
f 251/251/251 243/243/243 248/248/248
f 252/252/252 251/251/251 248/248/248
f 251/251/251 252/252/252 253/253/253
f 254/254/254 253/253/253 252/252/252
f 252/252/252 255/255/255 254/254/254
f 248/248/248 256/256/256 252/252/252
f 257/257/257 252/252/252 256/256/256
f 258/258/258 243/243/243 251/251/251
f 244/244/244 260/260/260 259/259/259
f 261/261/261 259/259/259 260/260/260
f 259/259/259 263/263/263 262/262/262
f 265/265/265 262/262/262 264/264/264
f 267/267/267 266/266/266 257/257/257
f 270/270/270 269/269/269 268/268/268
f 271/271/271 268/268/268 269/269/269
f 272/272/272 270/270/270 220/220/220
f 222/222/222 272/272/272 220/220/220
f 220/220/220 274/274/274 273/273/273
f 275/275/275 273/273/273 274/274/274
f 278/278/278 277/277/277 276/276/276
f 280/280/280 279/279/279 277/277/277
f 283/283/283 282/282/282 281/281/281
f 284/284/284 281/281/281 282/282/282
f 287/287/287 286/286/286 285/285/285
f 289/289/289 285/285/285 288/288/288
f 292/292/292 291/291/291 290/290/290
f 295/295/295 294/294/294 293/293/293
f 296/296/296 293/293/293 294/294/294
f 299/299/299 298/298/298 297/297/297
f 302/302/302 301/301/301 300/300/300
f 303/303/303 300/300/300 301/301/301
f 302/302/302 305/305/305 304/304/304
f 307/307/307 306/306/306 304/304/304
f 308/308/308 304/304/304 306/306/306
f 304/304/304 309/309/309 307/307/307
f 307/307/307 309/309/309 310/310/310
f 312/312/312 311/311/311 302/302/302
f 313/313/313 312/312/312 302/302/302
f 316/316/316 315/315/315 314/314/314
f 317/317/317 314/314/314 315/315/315
f 316/316/316 318/318/318 315/315/315
f 319/319/319 315/315/315 318/318/318
f 316/316/316 314/314/314 320/320/320
f 321/321/321 320/320/320 314/314/314
f 317/317/317 315/315/315 322/322/322
f 319/319/319 322/322/322 315/315/315
f 320/320/320 323/323/323 316/316/316
f 323/323/323 318/318/318 316/316/316
f 317/317/317 324/324/324 314/314/314
f 325/325/325 314/314/314 324/324/324
f 324/324/324 317/317/317 326/326/326
f 322/322/322 326/326/326 317/317/317
f 326/326/326 322/322/322 327/327/327
f 326/326/326 327/327/327 328/328/328
f 329/329/329 328/328/328 327/327/327
f 330/330/330 327/327/327 322/322/322
f 327/327/327 330/330/330 331/331/331
f 327/327/327 331/331/331 329/329/329
f 332/332/332 331/331/331 330/330/330
f 330/330/330 333/333/333 332/332/332
f 334/334/334 332/332/332 333/333/333
f 334/334/334 335/335/335 332/332/332
f 336/336/336 332/332/332 335/335/335
f 334/334/334 337/337/337 335/335/335
f 338/338/338 337/337/337 334/334/334
f 333/333/333 338/338/338 334/334/334
f 339/339/339 335/335/335 337/337/337
f 339/339/339 340/340/340 335/335/335
f 340/340/340 336/336/336 335/335/335
f 331/331/331 332/332/332 341/341/341
f 336/336/336 341/341/341 332/332/332
f 341/341/341 342/342/342 331/331/331
f 343/343/343 331/331/331 342/342/342
f 343/343/343 329/329/329 331/331/331
f 329/329/329 343/343/343 344/344/344
f 345/345/345 344/344/344 343/343/343
f 343/343/343 342/342/342 345/345/345
f 346/346/346 345/345/345 342/342/342
f 339/339/339 337/337/337 347/347/347
f 348/348/348 347/347/347 337/337/337
f 337/337/337 349/349/349 348/348/348
f 337/337/337 338/338/338 349/349/349
f 350/350/350 348/348/348 349/349/349
f 348/348/348 351/351/351 347/347/347
f 350/350/350 352/352/352 348/348/348
f 346/346/346 342/342/342 353/353/353
f 349/349/349 354/354/354 350/350/350
f 350/350/350 354/354/354 355/355/355
f 356/356/356 355/355/355 354/354/354
f 356/356/356 354/354/354 357/357/357
f 349/349/349 357/357/357 354/354/354
f 357/357/357 318/318/318 356/356/356
f 358/358/358 356/356/356 318/318/318
f 357/357/357 359/359/359 318/318/318
f 357/357/357 349/349/349 359/359/359
f 360/360/360 318/318/318 359/359/359
f 318/318/318 360/360/360 319/319/319
f 361/361/361 319/319/319 360/360/360
f 361/361/361 362/362/362 319/319/319
f 322/322/322 319/319/319 362/362/362
f 322/322/322 362/362/362 330/330/330
f 363/363/363 330/330/330 362/362/362
f 330/330/330 363/363/363 333/333/333
f 323/323/323 364/364/364 318/318/318
f 366/366/366 323/323/323 365/365/365
f 323/323/323 320/320/320 367/367/367
f 368/368/368 359/359/359 349/349/349
f 368/368/368 349/349/349 338/338/338
f 370/370/370 369/369/369 324/324/324
f 325/325/325 324/324/324 369/369/369
f 324/324/324 326/326/326 370/370/370
f 328/328/328 370/370/370 326/326/326
f 369/369/369 370/370/370 371/371/371
f 372/372/372 371/371/371 370/370/370
f 370/370/370 328/328/328 372/372/372
f 371/371/371 373/373/373 369/369/369
f 374/374/374 369/369/369 373/373/373
f 369/369/369 374/374/374 325/325/325
f 375/375/375 372/372/372 328/328/328
f 328/328/328 329/329/329 375/375/375
f 344/344/344 375/375/375 329/329/329
f 376/376/376 325/325/325 374/374/374
f 314/314/314 325/325/325 376/376/376
f 314/314/314 376/376/376 377/377/377
f 378/378/378 314/314/314 377/377/377
f 381/381/381 380/380/380 379/379/379
f 382/382/382 379/379/379 380/380/380
f 380/380/380 381/381/381 383/383/383
f 384/384/384 383/383/383 381/381/381
f 382/382/382 380/380/380 385/385/385
f 385/385/385 386/386/386 382/382/382
f 387/387/387 382/382/382 386/386/386
f 386/386/386 388/388/388 387/387/387
f 389/389/389 387/387/387 388/388/388
f 387/387/387 389/389/389 390/390/390
f 391/391/391 390/390/390 389/389/389
f 389/389/389 392/392/392 391/391/391
f 393/393/393 391/391/391 392/392/392
f 392/392/392 389/389/389 394/394/394
f 388/388/388 394/394/394 389/389/389
f 395/395/395 385/385/385 380/380/380
f 380/380/380 383/383/383 395/395/395
f 396/396/396 395/395/395 383/383/383
f 383/383/383 397/397/397 396/396/396
f 398/398/398 396/396/396 397/397/397
f 394/394/394 399/399/399 392/392/392
f 400/400/400 392/392/392 399/399/399
f 399/399/399 401/401/401 400/400/400
f 402/402/402 400/400/400 401/401/401
f 401/401/401 399/399/399 403/403/403
f 404/404/404 403/403/403 399/399/399
f 399/399/399 394/394/394 404/404/404
f 405/405/405 404/404/404 394/394/394
f 404/404/404 405/405/405 406/406/406
f 407/407/407 406/406/406 405/405/405
f 405/405/405 408/408/408 407/407/407
f 409/409/409 407/407/407 408/408/408
f 408/408/408 410/410/410 409/409/409
f 411/411/411 409/409/409 410/410/410
f 410/410/410 412/412/412 411/411/411
f 413/413/413 411/411/411 412/412/412
f 412/412/412 414/414/414 413/413/413
f 415/415/415 413/413/413 414/414/414
f 414/414/414 416/416/416 415/415/415
f 417/417/417 415/415/415 416/416/416
f 416/416/416 418/418/418 417/417/417
f 419/419/419 417/417/417 418/418/418
f 420/420/420 417/417/417 419/419/419
f 421/421/421 415/415/415 417/417/417
f 416/416/416 414/414/414 396/396/396
f 395/395/395 396/396/396 414/414/414
f 414/414/414 412/412/412 395/395/395
f 422/422/422 413/413/413 415/415/415
f 385/385/385 395/395/395 412/412/412
f 412/412/412 410/410/410 385/385/385
f 423/423/423 411/411/411 413/413/413
f 418/418/418 416/416/416 398/398/398
f 396/396/396 398/398/398 416/416/416
f 386/386/386 385/385/385 410/410/410
f 410/410/410 408/408/408 386/386/386
f 388/388/388 386/386/386 408/408/408
f 408/408/408 405/405/405 388/388/388
f 394/394/394 388/388/388 405/405/405
f 425/425/425 424/424/424 406/406/406
f 406/406/406 424/424/424 404/404/404
f 403/403/403 404/404/404 424/424/424
f 426/426/426 406/406/406 407/407/407
f 427/427/427 407/407/407 409/409/409
f 428/428/428 409/409/409 411/411/411
f 402/402/402 429/429/429 400/400/400
f 430/430/430 400/400/400 429/429/429
f 400/400/400 430/430/430 392/392/392
f 431/431/431 392/392/392 430/430/430
f 384/384/384 432/432/432 383/383/383
f 397/397/397 383/383/383 432/432/432
f 435/435/435 434/434/434 433/433/433
f 436/436/436 433/433/433 434/434/434
f 437/437/437 435/435/435 433/433/433
f 433/433/433 438/438/438 437/437/437
f 390/390/390 439/439/439 387/387/387
f 382/382/382 387/387/387 439/439/439
f 442/442/442 441/441/441 440/440/440
f 444/444/444 443/443/443 342/342/342
f 342/342/342 445/445/445 444/444/444
f 342/342/342 446/446/446 445/445/445
f 446/446/446 336/336/336 447/447/447
f 336/336/336 340/340/340 447/447/447
f 449/449/449 448/448/448 445/445/445
f 340/340/340 339/339/339 450/450/450
f 339/339/339 451/451/451 450/450/450
f 339/339/339 452/452/452 451/451/451
f 347/347/347 452/452/452 339/339/339
f 453/453/453 341/341/341 336/336/336
f 342/342/342 341/341/341 453/453/453
f 456/456/456 455/455/455 454/454/454
f 458/458/458 240/240/240 457/457/457
f 459/459/459 457/457/457 240/240/240
f 462/462/462 461/461/461 460/460/460
f 463/463/463 460/460/460 461/461/461
f 465/465/465 460/460/460 464/464/464
f 465/465/465 467/467/467 466/466/466
f 468/468/468 466/466/466 467/467/467
f 467/467/467 465/465/465 469/469/469
f 470/470/470 467/467/467 469/469/469
f 471/471/471 470/470/470 469/469/469
f 472/472/472 470/470/470 471/471/471
f 470/470/470 472/472/472 473/473/473
f 474/474/474 473/473/473 472/472/472
f 477/477/477 476/476/476 475/475/475
f 241/241/241 475/475/475 476/476/476
f 480/480/480 479/479/479 478/478/478
f 481/481/481 478/478/478 479/479/479
f 484/484/484 483/483/483 482/482/482
f 485/485/485 482/482/482 483/483/483
f 249/249/249 487/487/487 486/486/486
f 488/488/488 486/486/486 487/487/487
f 491/491/491 490/490/490 489/489/489
f 493/493/493 489/489/489 492/492/492
f 495/495/495 494/494/494 251/251/251
f 497/497/497 251/251/251 496/496/496
f 499/499/499 498/498/498 234/234/234
f 234/234/234 243/243/243 499/499/499
f 161/161/161 162/162/162 500/500/500
