g blue_asn_f_pve_2_belt
v -0.123564062 -0.0851275658 1.21154308
v -0.151389612 -0.0559107379 1.21293436
v -0.14165067 -0.0517369054 1.21989075
v -0.13052045 -0.0906926759 1.20319542
v -0.111042564 -0.101822896 1.19902158
v -0.105477454 -0.096257786 1.20876053
v -0.154172167 -0.023911355 1.2226733
v -0.145824502 -0.023911355 1.22406458
v -0.138868115 0.0206095256 1.23102097
v -0.129129172 0.016435693 1.23380352
v -0.101303622 0.0456525209 1.2351948
v -0.105477454 0.0553914635 1.2351948
v -0.0498263535 0.0720867938 1.2351948
v -0.0456525209 0.0623478511 1.2351948
v 0.00165091471 0.0706955162 1.2351948
v 0.00165091471 0.0804344589 1.23797735
v -0.120781507 -0.103214174 1.16006581
v -0.144433225 -0.0906926759 1.16423965
v -0.137476837 -0.0809537333 1.15728326
v -0.166693665 -0.0517369054 1.17676114
v -0.158346 -0.0475630728 1.1670222
v -0.116607674 -0.0934752309 1.15310943
v -0.16391111 -0.0155636899 1.17815242
v -0.170867498 -0.0169549674 1.18789136
v -0.149998335 0.0359135783 1.19902158
v -0.14721578 0.0359135783 1.18789136
v -0.112433842 0.0776519038 1.20319542
v -0.111042564 0.0762606263 1.19623903
v -0.0567827411 0.0985210666 1.20597797
v -0.0567827411 0.0971297891 1.19484775
v 0.00165091471 0.104086177 1.20180414
v 0.00165091471 0.101303622 1.1920652
v -0.00808802792 0.0901734015 1.21989075
v -0.0595652961 0.0832170139 1.22128202
v -0.0706955162 0.088782124 1.20736925
v 0.00165091471 0.0999123441 1.20876053
v 0.00165091471 0.0859995689 1.22684713
v -0.0665216837 0.0720867938 1.22684713
v -0.0776519038 0.0762606263 1.21989075
v -0.119390229 0.0456525209 1.22823841
v -0.113825119 0.0595652961 1.22128202
v -0.127737894 0.0581740186 1.20597797
v -0.129129172 0.0428699659 1.21849947
v -0.111042564 -0.101822896 1.19902158
v -0.120781507 -0.111561839 1.17676114
v -0.120781507 -0.103214174 1.16006581
v -0.112433842 -0.111561839 1.2101518
v -0.105477454 -0.096257786 1.20876053
v -0.101303622 -0.0851275658 1.21293436
v -0.0637391287 -0.135213556 1.19763031
v -0.0567827411 -0.137996112 1.20041286
v -0.101303622 -0.0851275658 1.21293436
v -0.0679129612 -0.135213556 1.16423965
v -0.0679129612 -0.135213556 1.16423965
v -0.0609565736 -0.128257169 1.14476176
v -0.101303622 -0.0851275658 1.21293436
v -0.0414786884 -0.114344394 1.20319542
v -0.0428699659 -0.117126949 1.19763031
v -0.0609565736 -0.128257169 1.14476176
v -0.119390229 -0.0948665084 1.14476176
v -0.0595652961 -0.122692059 1.13084899
v -0.105477454 -0.0712147906 1.14754432
v -0.0456525209 -0.0976490635 1.1364141
v -0.116607674 -0.0934752309 1.15310943
v -0.0526089085 -0.105996729 1.1364141
v -0.0567827411 -0.117126949 1.14058793
v -0.0609565736 -0.128257169 1.14476176
v -0.0428699659 -0.117126949 1.19763031
v -0.0456525209 -0.0976490635 1.1364141
v -0.0526089085 -0.105996729 1.1364141
v -0.0414786884 -0.114344394 1.20319542
v -0.101303622 -0.0851275658 1.21293436
v -0.116607674 -0.0934752309 1.15310943
v -0.105477454 -0.0712147906 1.14754432
v -0.101303622 -0.0851275658 1.21293436
v -0.105477454 -0.096257786 1.20876053
v -0.0581740186 0.0901734015 1.2226733
v -0.0665216837 0.0720867938 1.22684713
v -0.0693042387 0.0832170139 1.24075991
v -0.0665216837 0.0720867938 1.22684713
v -0.0595652961 0.0832170139 1.22128202
v -0.0706955162 0.088782124 1.20736925
v -0.0706955162 0.0929559565 1.20597797
v -0.0804344589 0.123564062 1.2351948
v -0.0706955162 0.0929559565 1.20597797
v -0.0693042387 0.0832170139 1.24075991
v -0.0846082914 0.0832170139 1.2226733
v -0.0804344589 0.123564062 1.2351948
v -0.0706955162 0.088782124 1.20736925
v -0.0776519038 0.0762606263 1.21989075
v -0.0665216837 0.0720867938 1.22684713
v -0.0846082914 0.0832170139 1.2226733
v -0.0776519038 0.0762606263 1.21989075
v -0.0846082914 0.0832170139 1.2226733
v -0.0706955162 0.088782124 1.20736925
v -0.0706955162 0.0929559565 1.20597797
v -0.0804344589 0.123564062 1.2351948
v -0.127737894 0.0581740186 1.20597797
v -0.137476837 0.0442612434 1.21989075
v -0.129129172 0.0428699659 1.21849947
v -0.129129172 0.0609565736 1.20319542
v -0.151389612 0.0804344589 1.2351948
v -0.151389612 0.0804344589 1.2351948
v -0.123564062 0.0498263535 1.23797735
v -0.119390229 0.0456525209 1.22823841
v -0.137476837 0.0442612434 1.21989075
v -0.129129172 0.0428699659 1.21849947
v -0.151389612 0.0804344589 1.2351948
v -0.116607674 0.0637391287 1.2226733
v -0.129129172 0.0609565736 1.20319542
v -0.119390229 0.0456525209 1.22823841
v -0.123564062 0.0498263535 1.23797735
v -0.119390229 0.0456525209 1.22823841
v -0.113825119 0.0595652961 1.22128202
v -0.127737894 0.0581740186 1.20597797
v -0.129129172 0.0609565736 1.20319542
v 0.126865891 -0.0851275658 1.21154308
v 0.156082719 -0.0559107379 1.21293436
v 0.133822279 -0.0906926759 1.20319542
v 0.144952499 -0.0517369054 1.21989075
v 0.115735671 -0.101822896 1.19902158
v 0.110170561 -0.096257786 1.20876053
v 0.156082719 -0.023911355 1.2226733
v 0.147735054 -0.023911355 1.22406458
v 0.139387389 0.0206095256 1.23102097
v 0.132431001 0.016435693 1.23380352
v 0.101822896 0.0456525209 1.2351948
v 0.110170561 0.0553914635 1.2351948
v 0.0503456279 0.0720867938 1.2351948
v 0.0503456279 0.0623478511 1.2351948
v 0.00165091471 0.0706955162 1.2351948
v 0.00165091471 0.0804344589 1.23797735
v 0.124083336 -0.103214174 1.16006581
v 0.146343777 -0.0906926759 1.16423965
v 0.139387389 -0.0809537333 1.15728326
v 0.168604217 -0.0517369054 1.17676114
v 0.161647829 -0.0475630728 1.1670222
v 0.117126949 -0.0934752309 1.15310943
v 0.165821662 -0.0155636899 1.17815242
v 0.172778049 -0.0169549674 1.18789136
v 0.153300164 0.0359135783 1.19902158
v 0.149126332 0.0359135783 1.18789136
v 0.117126949 0.0776519038 1.20319542
v 0.115735671 0.0762606263 1.19623903
v 0.058693293 0.0985210666 1.20597797
v 0.058693293 0.0971297891 1.19484775
v 0.00165091471 0.104086177 1.20180414
v 0.00165091471 0.101303622 1.1920652
v 0.0086073023 0.0901734015 1.21989075
v 0.061475848 0.0832170139 1.22128202
v 0.0726060681 0.088782124 1.20736925
v 0.00165091471 0.0999123441 1.20876053
v 0.00165091471 0.0859995689 1.22684713
v 0.0712147906 0.0720867938 1.22684713
v 0.0809537333 0.0762606263 1.21989075
v 0.122692059 0.0456525209 1.22823841
v 0.117126949 0.0595652961 1.22128202
v 0.129648446 0.0581740186 1.20597797
v 0.132431001 0.0428699659 1.21849947
v 0.115735671 -0.101822896 1.19902158
v 0.124083336 -0.111561839 1.17676114
v 0.115735671 -0.111561839 1.2101518
v 0.124083336 -0.103214174 1.16006581
v 0.110170561 -0.096257786 1.20876053
v 0.101822896 -0.0851275658 1.21293436
v 0.0670409581 -0.135213556 1.19763031
v 0.058693293 -0.137996112 1.20041286
v 0.101822896 -0.0851275658 1.21293436
v 0.0712147906 -0.135213556 1.16423965
v 0.0628671255 -0.128257169 1.14476176
v 0.119909504 -0.0948665084 1.14476176
v 0.117126949 -0.0934752309 1.15310943
v 0.110170561 -0.0712147906 1.14754432
v 0.061475848 -0.122692059 1.13084899
v 0.0503456279 -0.0976490635 1.1364141
v 0.0628671255 -0.128257169 1.14476176
v 0.0531281829 -0.105996729 1.1364141
v 0.0600845705 -0.117126949 1.14058793
v 0.0628671255 -0.128257169 1.14476176
v 0.101822896 -0.0851275658 1.21293436
v 0.0461717953 -0.114344394 1.20319542
v 0.0475630728 -0.117126949 1.19763031
v 0.0475630728 -0.117126949 1.19763031
v 0.0503456279 -0.0976490635 1.1364141
v 0.0461717953 -0.114344394 1.20319542
v 0.0531281829 -0.105996729 1.1364141
v 0.101822896 -0.0851275658 1.21293436
v 0.117126949 -0.0934752309 1.15310943
v 0.110170561 -0.096257786 1.20876053
v 0.101822896 -0.0851275658 1.21293436
v 0.110170561 -0.0712147906 1.14754432
v 0.0600845705 0.0901734015 1.2226733
v 0.0712147906 0.0720867938 1.22684713
v 0.061475848 0.0832170139 1.22128202
v 0.0726060681 0.088782124 1.20736925
v 0.0739973457 0.0929559565 1.20597797
v 0.0712147906 0.0720867938 1.22684713
v 0.0726060681 0.0832170139 1.24075991
v 0.0739973457 0.0929559565 1.20597797
v 0.0837362883 0.123564062 1.2351948
v 0.0726060681 0.0832170139 1.24075991
v 0.0865188433 0.0832170139 1.2226733
v 0.0837362883 0.123564062 1.2351948
v 0.0726060681 0.088782124 1.20736925
v 0.0809537333 0.0762606263 1.21989075
v 0.0865188433 0.0832170139 1.2226733
v 0.0809537333 0.0762606263 1.21989075
v 0.0712147906 0.0720867938 1.22684713
v 0.0726060681 0.088782124 1.20736925
v 0.0865188433 0.0832170139 1.2226733
v 0.0739973457 0.0929559565 1.20597797
v 0.0837362883 0.123564062 1.2351948
v 0.129648446 0.0581740186 1.20597797
v 0.137996112 0.0442612434 1.21989075
v 0.131039724 0.0609565736 1.20319542
v 0.132431001 0.0428699659 1.21849947
v 0.156082719 0.0804344589 1.2351948
v 0.126865891 0.0498263535 1.23797735
v 0.156082719 0.0804344589 1.2351948
v 0.137996112 0.0442612434 1.21989075
v 0.122692059 0.0456525209 1.22823841
v 0.132431001 0.0428699659 1.21849947
v 0.118518226 0.0637391287 1.2226733
v 0.156082719 0.0804344589 1.2351948
v 0.131039724 0.0609565736 1.20319542
v 0.122692059 0.0456525209 1.22823841
v 0.117126949 0.0595652961 1.22128202
v 0.129648446 0.0581740186 1.20597797
v 0.131039724 0.0609565736 1.20319542
v 0.122692059 0.0456525209 1.22823841
v 0.126865891 0.0498263535 1.23797735
v 0.00165091471 0.0999123441 1.20876053
v -0.013653138 0.0999123441 1.2226733
v -0.00808802792 0.0901734015 1.21989075
v 0.00165091471 0.0999123441 1.20876053
v 0.00165091471 0.105477454 1.20736925
v 0.00165091471 0.133303005 1.23936863
v 0.00165091471 0.091564679 1.23936863
v 0.00165091471 0.0859995689 1.22684713
v -0.013653138 0.0999123441 1.2226733
v -0.00808802792 0.0901734015 1.21989075
v 0.0169549674 0.0999123441 1.2226733
v 0.00165091471 0.133303005 1.23936863
v 0.00165091471 0.105477454 1.20736925
v 0.00165091471 0.091564679 1.23936863
v 0.00165091471 0.0999123441 1.20876053
v 0.0086073023 0.0901734015 1.21989075
v 0.00165091471 0.105477454 1.20736925
v 0.00165091471 0.0859995689 1.22684713
v 0.00165091471 0.105477454 1.20736925
v 0.00165091471 0.133303005 1.23936863
v -0.013653138 0.0999123441 1.2226733
v -0.0609565736 -0.128257169 1.14476176
v -0.0679129612 -0.135213556 1.16423965
v -0.0665216837 -0.139387389 1.16284837
v -0.0623478511 -0.147735054 1.19484775
v -0.0567827411 -0.146343777 1.17119603
v -0.0456525209 -0.150517609 1.18510881
v -0.0233920806 -0.158865274 1.19763031
v -0.0373048558 -0.151908887 1.17119603
v -0.016435693 -0.156082719 1.1670222
v -0.0567827411 -0.137996112 1.20041286
v -0.0233920806 -0.147735054 1.20180414
v -0.0428699659 -0.117126949 1.19763031
v 0.00165091471 -0.118518226 1.19623903
v -0.0331310232 -0.151908887 1.14615304
v -0.0456525209 -0.147735054 1.16006581
v -0.054000186 -0.140778667 1.13363154
v -0.0192182481 -0.150517609 1.13502282
v -0.0331310232 -0.132431001 1.14754432
v -0.016435693 -0.126865891 1.12945771
v 0.00165091471 -0.149126332 1.11693621
v 0.00165091471 -0.133822279 1.11554493
v 0.00165091471 -0.154691442 1.14893559
v 0.0280851876 -0.147735054 1.20180414
v 0.0280851876 -0.158865274 1.19763031
v -0.0498263535 -0.118518226 1.13919665
v -0.054000186 -0.117126949 1.13502282
v 0.00165091471 -0.160256552 1.18928264
v 0.0197375224 -0.126865891 1.12945771
v 0.023911355 -0.150517609 1.13502282
v 0.0350415751 -0.132431001 1.14754432
v 0.0350415751 -0.151908887 1.14615304
v 0.058693293 -0.137996112 1.20041286
v 0.0475630728 -0.117126949 1.19763031
v 0.064258403 -0.147735054 1.19484775
v 0.0503456279 -0.150517609 1.18510881
v 0.0600845705 -0.146343777 1.17119603
v 0.0712147906 -0.139387389 1.16284837
v 0.0712147906 -0.135213556 1.16423965
v 0.0670409581 -0.135213556 1.19763031
v 0.058693293 -0.137996112 1.20041286
v 0.0183462449 -0.156082719 1.1670222
v 0.0392154077 -0.151908887 1.17119603
v 0.0503456279 -0.147735054 1.16006581
v 0.0573020154 -0.140778667 1.13363154
v 0.0628671255 -0.128257169 1.14476176
v 0.0573020154 -0.117126949 1.13502282
v 0.0503456279 -0.118518226 1.13919665
v 0.0628671255 -0.128257169 1.14476176
v 0.0712147906 -0.135213556 1.16423965
v 0.0628671255 -0.128257169 1.14476176
v 0.0600845705 -0.117126949 1.14058793
v -0.0345223008 -0.157473997 1.16980476
v -0.0456525209 -0.147735054 1.16006581
v -0.0498263535 -0.151908887 1.15310943
v -0.0373048558 -0.151908887 1.17119603
v -0.054000186 -0.174169327 1.1670222
v -0.0456525209 -0.147735054 1.16006581
v -0.0623478511 -0.151908887 1.17119603
v -0.0498263535 -0.151908887 1.15310943
v -0.0567827411 -0.146343777 1.17119603
v -0.0456525209 -0.150517609 1.18510881
v -0.0456525209 -0.150517609 1.18510881
v -0.0498263535 -0.157473997 1.18928264
v -0.0498263535 -0.157473997 1.18928264
v -0.054000186 -0.174169327 1.1670222
v -0.0498263535 -0.151908887 1.15310943
v -0.0345223008 -0.157473997 1.16980476
v -0.0373048558 -0.151908887 1.17119603
v -0.0345223008 -0.157473997 1.16980476
v -0.054000186 -0.174169327 1.1670222
v -0.016435693 -0.156082719 1.1670222
v 0.00165091471 -0.160256552 1.18928264
v 0.00165091471 -0.182516992 1.16423965
v 0.00165091471 -0.154691442 1.14893559
v -0.0567827411 -0.117126949 1.14058793
v -0.0609565736 -0.128257169 1.14476176
v -0.0609565736 -0.128257169 1.14476176
v -0.0679129612 -0.135213556 1.16423965
v -0.0637391287 -0.135213556 1.19763031
v -0.0567827411 -0.137996112 1.20041286
v -0.016435693 -0.126865891 1.12945771
v -0.0498263535 -0.118518226 1.13919665
v -0.0331310232 -0.132431001 1.14754432
v -0.0526089085 -0.105996729 1.1364141
v -0.0526089085 -0.105996729 1.1364141
v -0.0567827411 -0.117126949 1.14058793
v 0.00165091471 -0.114344394 1.12945771
v 0.0197375224 -0.126865891 1.12945771
v 0.0531281829 -0.105996729 1.1364141
v 0.0503456279 -0.118518226 1.13919665
v 0.0350415751 -0.132431001 1.14754432
v 0.0600845705 -0.117126949 1.14058793
v 0.0378241302 -0.157473997 1.16980476
v 0.0503456279 -0.147735054 1.16006581
v 0.0392154077 -0.151908887 1.17119603
v 0.0503456279 -0.151908887 1.15310943
v 0.0503456279 -0.150517609 1.18510881
v 0.0503456279 -0.157473997 1.18928264
v 0.0573020154 -0.174169327 1.1670222
v 0.0503456279 -0.151908887 1.15310943
v 0.0503456279 -0.150517609 1.18510881
v 0.0670409581 -0.151908887 1.17119603
v 0.0600845705 -0.146343777 1.17119603
v 0.0503456279 -0.157473997 1.18928264
v 0.0670409581 -0.151908887 1.17119603
v 0.0573020154 -0.174169327 1.1670222
v 0.0503456279 -0.147735054 1.16006581
v 0.0670409581 -0.151908887 1.17119603
v 0.0600845705 -0.146343777 1.17119603
v 0.0503456279 -0.151908887 1.15310943
v 0.0573020154 -0.174169327 1.1670222
v 0.0183462449 -0.156082719 1.1670222
v 0.00165091471 -0.182516992 1.16423965
v 0.00165091471 -0.160256552 1.18928264
v 0.00165091471 -0.154691442 1.14893559
vt 0.802212962 0.519134525
vt 0.728535012 0.375656414
vt 0.713023865 0.429945429
vt 0.817724109 0.468723297
vt 0.86425755 0.534645673
vt 0.840990829 0.585056901
vt 0.650979276 0.325245186
vt 0.643223703 0.36790084
vt 0.542401246 0.270956171
vt 0.534645673 0.317489612
vt 0.429945429 0.309734039
vt 0.429945429 0.255445023
vt 0.286467318 0.286467318
vt 0.290345105 0.336878546
vt 0.174011501 0.379534201
vt 0.166255927 0.34463412
vt 0.918546565 0.36790084
vt 0.868135337 0.301978465
vt 0.875890911 0.239933876
vt 0.771190667 0.197278221
vt 0.782824028 0.142989206
vt 0.934057713 0.301978465
vt 0.689757144 0.092577978
vt 0.685879358 0.142989206
vt 0.554034607 0.0848224044
vt 0.557912393 0.0305333893
vt 0.422189856 0.0654334704
vt 0.422189856 0.0266556025
vt 0.274833957 0.0887001912
vt 0.274833957 0.0382889628
vt 0.13911142 0.142989206
vt 0.135233633 0.0887001912
vt 0.174011501 0.232178303
vt 0.298100678 0.193400435
vt 0.317489612 0.100333552
vt 0.146866993 0.177889287
vt 0.158500353 0.282589531
vt 0.329122972 0.228300516
vt 0.34463412 0.177889287
vt 0.472601084 0.224422729
vt 0.445456576 0.170133714
vt 0.472601084 0.0964557648
vt 0.495867805 0.170133714
vt 0.856501977 0.96120222
vt 0.790579601 0.922424352
vt 0.751801733 0.945691073
vt 0.872013124 0.914668779
vt 0.895279845 0.976713367
vt 0.930179926 0.965080007
vt 0.872013124 0.639345916
vt 0.891402058 0.600568048
vt 0.930179926 0.965080007
vt 0.782824028 0.627712556
vt 0.782824028 0.627712556
vt 0.732412799 0.600568048
vt 0.930179926 0.965080007
vt 0.96120222 0.627712556
vt 0.953446647 0.588934688
vt 0.732412799 0.600568048
vt 0.705268292 0.930179926
vt 0.701390505 0.608323622
vt 0.64710149 0.937935499
vt 0.635468129 0.585056901
vt 0.713023865 0.972835581
vt 0.662612637 0.573423541
vt 0.701390505 0.569545754
vt 0.732412799 0.600568048
vt 0.166255927 0.0421667496
vt 0.00726666848 0.0150222421
vt 0.0150222421 0.0615556836
vt 0.177889287 0.0150222421
vt 0.751801733 0.0111444553
vt 0.891402058 0.115844699
vt 0.918546565 0.0111444553
vt 0.751801733 0.0111444553
vt 0.763435094 0.0693112572
vt 0.115844699 0.872013124
vt 0.111966912 0.751801733
vt 0.092577978 0.782824028
vt 0.111966912 0.751801733
vt 0.131355846 0.85262419
vt 0.131355846 0.96120222
vt 0.115844699 0.984468941
vt 0.00726666848 0.918546565
vt 0.115844699 0.984468941
vt 0.092577978 0.782824028
vt 0.0576778968 0.720779439
vt 0.00726666848 0.918546565
vt 0.0189000289 0.662612637
vt 0.073189044 0.685879358
vt 0.111966912 0.751801733
vt 0.0576778968 0.720779439
vt 0.073189044 0.685879358
vt 0.0576778968 0.720779439
vt 0.0189000289 0.662612637
vt 0.00726666848 0.682001571
vt 0.00726666848 0.918546565
vt 0.0189000289 0.662612637
vt 0.0576778968 0.720779439
vt 0.073189044 0.685879358
vt 0.00726666848 0.682001571
vt 0.00726666848 0.918546565
vt 0.00726666848 0.918546565
vt 0.092577978 0.782824028
vt 0.111966912 0.751801733
vt 0.0576778968 0.720779439
vt 0.073189044 0.685879358
vt 0.00726666848 0.918546565
vt 0.115844699 0.872013124
vt 0.115844699 0.984468941
vt 0.111966912 0.751801733
vt 0.092577978 0.782824028
vt 0.111966912 0.751801733
vt 0.131355846 0.85262419
vt 0.131355846 0.96120222
vt 0.115844699 0.984468941
vt 0.802212962 0.519134525
vt 0.728535012 0.375656414
vt 0.817724109 0.468723297
vt 0.713023865 0.429945429
vt 0.86425755 0.534645673
vt 0.840990829 0.585056901
vt 0.650979276 0.325245186
vt 0.643223703 0.36790084
vt 0.542401246 0.270956171
vt 0.534645673 0.317489612
vt 0.429945429 0.309734039
vt 0.429945429 0.255445023
vt 0.286467318 0.286467318
vt 0.290345105 0.336878546
vt 0.174011501 0.379534201
vt 0.166255927 0.34463412
vt 0.918546565 0.36790084
vt 0.868135337 0.301978465
vt 0.875890911 0.239933876
vt 0.771190667 0.197278221
vt 0.782824028 0.142989206
vt 0.934057713 0.301978465
vt 0.689757144 0.092577978
vt 0.685879358 0.142989206
vt 0.554034607 0.0848224044
vt 0.557912393 0.0305333893
vt 0.422189856 0.0654334704
vt 0.422189856 0.0266556025
vt 0.274833957 0.0887001912
vt 0.274833957 0.0382889628
vt 0.13911142 0.142989206
vt 0.135233633 0.0887001912
vt 0.174011501 0.232178303
vt 0.298100678 0.193400435
vt 0.317489612 0.100333552
vt 0.146866993 0.177889287
vt 0.158500353 0.282589531
vt 0.329122972 0.228300516
vt 0.34463412 0.177889287
vt 0.472601084 0.224422729
vt 0.445456576 0.170133714
vt 0.472601084 0.0964557648
vt 0.495867805 0.170133714
vt 0.856501977 0.96120222
vt 0.790579601 0.922424352
vt 0.872013124 0.914668779
vt 0.751801733 0.945691073
vt 0.895279845 0.976713367
vt 0.930179926 0.965080007
vt 0.872013124 0.639345916
vt 0.891402058 0.600568048
vt 0.930179926 0.965080007
vt 0.782824028 0.627712556
vt 0.732412799 0.600568048
vt 0.705268292 0.930179926
vt 0.713023865 0.972835581
vt 0.64710149 0.937935499
vt 0.701390505 0.608323622
vt 0.635468129 0.585056901
vt 0.732412799 0.600568048
vt 0.662612637 0.573423541
vt 0.701390505 0.569545754
vt 0.732412799 0.600568048
vt 0.930179926 0.965080007
vt 0.96120222 0.627712556
vt 0.953446647 0.588934688
vt 0.166255927 0.0421667496
vt 0.00726666848 0.0150222421
vt 0.177889287 0.0150222421
vt 0.0150222421 0.0615556836
vt 0.751801733 0.0111444553
vt 0.891402058 0.115844699
vt 0.763435094 0.0693112572
vt 0.751801733 0.0111444553
vt 0.918546565 0.0111444553
vt 0.115844699 0.872013124
vt 0.111966912 0.751801733
vt 0.131355846 0.85262419
vt 0.131355846 0.96120222
vt 0.115844699 0.984468941
vt 0.111966912 0.751801733
vt 0.092577978 0.782824028
vt 0.115844699 0.984468941
vt 0.00726666848 0.918546565
vt 0.092577978 0.782824028
vt 0.0576778968 0.720779439
vt 0.00726666848 0.918546565
vt 0.0189000289 0.662612637
vt 0.073189044 0.685879358
vt 0.0576778968 0.720779439
vt 0.073189044 0.685879358
vt 0.111966912 0.751801733
vt 0.0189000289 0.662612637
vt 0.0576778968 0.720779439
vt 0.00726666848 0.682001571
vt 0.00726666848 0.918546565
vt 0.0189000289 0.662612637
vt 0.0576778968 0.720779439
vt 0.00726666848 0.682001571
vt 0.073189044 0.685879358
vt 0.00726666848 0.918546565
vt 0.092577978 0.782824028
vt 0.00726666848 0.918546565
vt 0.0576778968 0.720779439
vt 0.111966912 0.751801733
vt 0.073189044 0.685879358
vt 0.115844699 0.872013124
vt 0.00726666848 0.918546565
vt 0.115844699 0.984468941
vt 0.111966912 0.751801733
vt 0.131355846 0.85262419
vt 0.131355846 0.96120222
vt 0.115844699 0.984468941
vt 0.111966912 0.751801733
vt 0.092577978 0.782824028
vt 0.0189000289 0.662612637
vt 0.0576778968 0.720779439
vt 0.073189044 0.685879358
vt 0.0189000289 0.662612637
vt 0.00726666848 0.682001571
vt 0.00726666848 0.918546565
vt 0.092577978 0.782824028
vt 0.111966912 0.751801733
vt 0.0576778968 0.720779439
vt 0.073189044 0.685879358
vt 0.115844699 0.872013124
vt 0.00726666848 0.918546565
vt 0.115844699 0.984468941
vt 0.092577978 0.782824028
vt 0.131355846 0.96120222
vt 0.131355846 0.85262419
vt 0.115844699 0.984468941
vt 0.111966912 0.751801733
vt 0.00726666848 0.682001571
vt 0.00726666848 0.918546565
vt 0.0576778968 0.720779439
vt 0.243811663 0.519134525
vt 0.243811663 0.643223703
vt 0.255445023 0.643223703
vt 0.282589531 0.790579601
vt 0.286467318 0.685879358
vt 0.317489612 0.728535012
vt 0.375656414 0.778946241
vt 0.340756333 0.662612637
vt 0.387289774 0.639345916
vt 0.290345105 0.85262419
vt 0.371778627 0.840990829
vt 0.317489612 0.968957794
vt 0.433823216 0.984468941
vt 0.34463412 0.523012312
vt 0.309734039 0.619956982
vt 0.286467318 0.499745591
vt 0.379534201 0.472601084
vt 0.329122972 0.433823216
vt 0.36790084 0.35626748
vt 0.433823216 0.402800922
vt 0.433823216 0.340756333
vt 0.433823216 0.55015682
vt 0.491990018 0.840990829
vt 0.491990018 0.782824028
vt 0.270956171 0.402800922
vt 0.24768945 0.429945429
vt 0.433823216 0.747923946
vt 0.499745591 0.35626748
vt 0.488112231 0.472601084
vt 0.542401246 0.433823216
vt 0.523012312 0.523012312
vt 0.573423541 0.85262419
vt 0.546279033 0.968957794
vt 0.585056901 0.790579601
vt 0.55015682 0.732412799
vt 0.577301327 0.685879358
vt 0.612201409 0.643223703
vt 0.619956982 0.64710149
vt 0.604445835 0.825479682
vt 0.573423541 0.85262419
vt 0.476478871 0.643223703
vt 0.523012312 0.662612637
vt 0.554034607 0.623834769
vt 0.581179114 0.503623378
vt 0.619956982 0.523012312
vt 0.623834769 0.445456576
vt 0.596690261 0.410556495
vt 0.619956982 0.523012312
vt 0.619956982 0.64710149
vt 0.619956982 0.523012312
vt 0.631590343 0.468723297
vt 0.232178303 0.953446647
vt 0.278711744 0.965080007
vt 0.286467318 0.914668779
vt 0.228300516 0.984468941
vt 0.228300516 0.821601895
vt 0.154622567 0.732412799
vt 0.16237814 0.825479682
vt 0.177889287 0.709146078
vt 0.146866993 0.829357469
vt 0.174011501 0.941813286
vt 0.174011501 0.941813286
vt 0.181767074 0.926302139
vt 0.181767074 0.926302139
vt 0.228300516 0.821601895
vt 0.177889287 0.709146078
vt 0.232178303 0.953446647
vt 0.228300516 0.984468941
vt 0.232178303 0.953446647
vt 0.228300516 0.821601895
vt 0.205033795 0.519134525
vt 0.142989206 0.45321215
vt 0.142989206 0.627712556
vt 0.224422729 0.643223703
vt 0.236056089 0.457089937
vt 0.243811663 0.519134525
vt 0.243811663 0.519134525
vt 0.243811663 0.643223703
vt 0.263200597 0.821601895
vt 0.290345105 0.85262419
vt 0.937935499 0.197278221
vt 0.957324433 0.0382889628
vt 0.910790992 0.0964557648
vt 0.992224514 0.0305333893
vt 0.992224514 0.0305333893
vt 0.965080007 0.00338888168
vt 0.968957794 0.290345105
vt 0.937935499 0.387289774
vt 0.992224514 0.554034607
vt 0.957324433 0.546279033
vt 0.910790992 0.488112231
vt 0.965080007 0.581179114
vt 0.16237814 0.825479682
vt 0.154622567 0.732412799
vt 0.146866993 0.829357469
vt 0.177889287 0.709146078
vt 0.174011501 0.941813286
vt 0.181767074 0.926302139
vt 0.228300516 0.821601895
vt 0.177889287 0.709146078
vt 0.174011501 0.941813286
vt 0.232178303 0.953446647
vt 0.228300516 0.984468941
vt 0.181767074 0.926302139
vt 0.232178303 0.953446647
vt 0.228300516 0.821601895
vt 0.278711744 0.965080007
vt 0.232178303 0.953446647
vt 0.228300516 0.984468941
vt 0.286467318 0.914668779
vt 0.228300516 0.821601895
vt 0.0848224044 0.519134525
vt 0.142989206 0.627712556
vt 0.142989206 0.45321215
vt 0.0654334704 0.643223703
vn -0.299376731 -0.55297284 0.777556822
vn -0.678198762 -0.395130327 0.619611542
vn -0.267808228 -0.300424819 0.915436334
vn -0.520356249 -0.710815353 0.473255647
vn -0.899178281 -0.174150808 0.401434821
vn -0.867609778 0.204671223 0.453169906
vn -0.64663026 -0.0794453006 0.758655226
vn -0.236239726 -0.174150808 0.955961447
vn -0.583493254 0.236239726 0.776998336
vn -0.236239726 0.0152602073 0.971574968
vn -0.0783972125 0.0468287099 0.995821746
vn -0.299376731 0.425650741 0.853929165
vn -0.0783972125 0.425650741 0.901485066
vn 0.0163082953 0.0152602073 0.999750552
vn 0.0163082953 -0.142582306 0.989648587
vn 0.0163082953 0.425650741 0.904740563
vn -0.615061757 -0.67924685 -0.400403236
vn -0.678198762 -0.647678348 -0.347216354
vn -0.488787747 -0.268856316 -0.829941456
vn -0.930746783 -0.268856316 -0.247844117
vn -0.741335768 -0.111013803 -0.661889126
vn -0.930746783 0.299376731 -0.209961897
vn -0.804472773 0.236239726 -0.544990229
vn -0.962315286 0.141534218 -0.23220111
vn -0.836041275 0.488787747 0.249241899
vn -0.77290427 0.488787747 -0.404605398
vn -0.520356249 0.804472773 0.286448829
vn -0.551924752 0.804472773 -0.219550965
vn -0.204671223 0.930746783 0.303018342
vn -0.204671223 0.930746783 -0.303018342
vn 0.0163082953 0.962315286 0.271446735
vn 0.0163082953 0.930746783 -0.365300513
vn -0.678198762 0.457219244 0.575323389
vn 0.395130327 0.551924752 0.734337179
vn -0.394082239 0.899178281 0.190204123
vn 0.0163082953 0.962315286 -0.271446735
vn 0.0163082953 0.267808228 0.963334206
vn -0.141534218 0.330945234 0.932975518
vn -0.709767265 0.299376731 0.637655081
vn -0.330945234 0.109965715 0.937220782
vn 0.047876798 0.804472773 0.592056898
vn -0.709767265 0.64663026 -0.279463301
vn -0.899178281 -0.142582306 0.413701227
vn -0.899178281 -0.174150808 0.401434821
vn -0.899178281 -0.395130327 0.188017138
vn -0.615061757 -0.67924685 -0.400403236
vn -0.678198762 -0.331993322 0.655611831
vn -0.867609778 0.204671223 0.453169906
vn -0.551924752 0.17310272 0.815729438
vn -0.583493254 -0.742383856 0.329244336
vn -0.109965715 -0.363561824 0.92505694
vn -0.551924752 0.17310272 0.815729438
vn -0.77290427 -0.584541343 -0.246840855
vn -0.77290427 -0.584541343 -0.246840855
vn -0.678198762 -0.489835835 -0.547820494
vn -0.551924752 0.17310272 0.815729438
vn 0.710815353 -0.395130327 0.581905111
vn 0.900226369 -0.268856316 0.342503673
vn -0.678198762 -0.489835835 -0.547820494
vn -0.77290427 -0.047876798 -0.632713838
vn 0.331993322 -0.55297284 -0.764199891
vn -0.64663026 0.425650741 -0.633001385
vn 0.584541343 -0.205719311 -0.784850931
vn -0.930746783 0.299376731 -0.209961897
vn 0.805520861 -0.521404337 -0.281555784
vn 0.331993322 -0.426698829 -0.841254149
vn -0.678198762 -0.489835835 -0.547820494
vn 0.900226369 -0.268856316 0.342503673
vn 0.584541343 -0.205719311 -0.784850931
vn 0.805520861 -0.521404337 -0.281555784
vn 0.710815353 -0.395130327 0.581905111
vn -0.551924752 0.17310272 0.815729438
vn -0.930746783 0.299376731 -0.209961897
vn -0.64663026 0.425650741 -0.633001385
vn -0.551924752 0.17310272 0.815729438
vn -0.867609778 0.204671223 0.453169906
vn 0.990032756 0.140837292 -0
vn -0.141534218 0.330945234 0.932975518
vn 0.0794453006 -0.395130327 0.915183298
vn -0.141534218 0.330945234 0.932975518
vn 0.395130327 0.551924752 0.734337179
vn -0.394082239 0.899178281 0.190204123
vn -0.0152602073 0.204671223 -0.978711815
vn -0.204671223 0.899178281 0.386766221
vn -0.0152602073 0.204671223 -0.978711815
vn 0.0794453006 -0.395130327 0.915183298
vn -0.930746783 -0.300424819 -0.208459477
vn -0.204671223 0.899178281 0.386766221
vn -0.394082239 0.899178281 0.190204123
vn -0.709767265 0.299376731 0.637655081
vn -0.141534218 0.330945234 0.932975518
vn -0.930746783 -0.300424819 -0.208459477
vn -0.709767265 0.299376731 0.637655081
vn -0.930746783 -0.300424819 -0.208459477
vn -0.394082239 0.899178281 0.190204123
vn -0.0152602073 0.204671223 -0.978711815
vn -0.204671223 0.899178281 0.386766221
vn -0.709767265 0.64663026 -0.279463301
vn -0.615061757 -0.773952358 -0.150654512
vn -0.899178281 -0.142582306 0.413701227
vn -0.0783972125 0.236239726 -0.968527062
vn -0.64663026 0.615061757 0.451185485
vn -0.64663026 0.615061757 0.451185485
vn 0.300424819 -0.426698829 0.853037536
vn -0.330945234 0.109965715 0.937220782
vn -0.615061757 -0.773952358 -0.150654512
vn -0.899178281 -0.142582306 0.413701227
vn -0.64663026 0.615061757 0.451185485
vn 0.805520861 0.583493254 0.103304233
vn -0.0783972125 0.236239726 -0.968527062
vn -0.330945234 0.109965715 0.937220782
vn 0.300424819 -0.426698829 0.853037536
vn -0.330945234 0.109965715 0.937220782
vn 0.047876798 0.804472773 0.592056898
vn -0.709767265 0.64663026 -0.279463301
vn -0.0783972125 0.236239726 -0.968527062
vn 0.331993322 -0.55297284 0.764199891
vn 0.710815353 -0.395130327 0.581905111
vn 0.55297284 -0.710815353 0.434698254
vn 0.300424819 -0.300424819 0.90525679
vn 0.931794871 -0.174150808 0.318480476
vn 0.900226369 0.204671223 0.384320407
vn 0.67924685 -0.0794453006 0.729597259
vn 0.268856316 -0.174150808 0.947305535
vn 0.616109845 0.236239726 0.75139833
vn 0.268856316 0.0152602073 0.9630594
vn 0.111013803 0.0468287099 0.992714968
vn 0.331993322 0.425650741 0.841784937
vn 0.111013803 0.425650741 0.898051993
vn 0.0163082953 0.0152602073 0.999750552
vn 0.0163082953 -0.142582306 0.989648587
vn 0.0163082953 0.425650741 0.904740563
vn 0.647678348 -0.67924685 -0.345161519
vn 0.710815353 -0.647678348 -0.274325157
vn 0.521404337 -0.268856316 -0.809848009
vn 0.963193525 -0.268808915 -0
vn 0.773952358 -0.111013803 -0.623436992
vn 0.963363374 0.267808228 -0.0144831779
vn 0.837089364 0.236239726 -0.493429012
vn 0.993947413 0.109856906 -0
vn 0.868657866 0.488787747 0.0807468284
vn 0.805520861 0.488787747 -0.334996539
vn 0.55297284 0.804472773 0.216897663
vn 0.584541343 0.804472773 -0.105522398
vn 0.237287814 0.930746783 0.278217395
vn 0.237287814 0.930746783 -0.278217395
vn 0.0163082953 0.962315286 0.271446735
vn 0.0163082953 0.930746783 -0.365300513
vn 0.710815353 0.457219244 0.534501728
vn -0.362513736 0.551924752 0.750974606
vn 0.426698829 0.899178281 0.0969872591
vn 0.0163082953 0.962315286 -0.271446735
vn 0.0163082953 0.267808228 0.963334206
vn 0.174150808 0.330945234 0.927440968
vn 0.742383856 0.299376731 0.599366152
vn 0.363561824 0.109965715 0.92505694
vn -0.0152602073 0.804472773 0.593793469
vn 0.742383856 0.64663026 -0.175315481
vn 0.931794871 -0.142582306 0.333809232
vn 0.931794871 -0.174150808 0.318480476
vn 0.9206445 -0.390401979 -0
vn 0.710815353 -0.331993322 0.620098354
vn 0.647678348 -0.67924685 -0.345161519
vn 0.900226369 0.204671223 0.384320407
vn 0.584541343 0.17310272 0.792683333
vn 0.616109845 -0.742383856 0.263201196
vn 0.142582306 -0.363561824 0.920593877
vn 0.584541343 0.17310272 0.792683333
vn 0.805520861 -0.584541343 -0.0971985672
vn 0.710815353 -0.489835835 -0.504779545
vn 0.805520861 -0.047876798 -0.590630134
vn 0.963363374 0.267808228 -0.0144831779
vn 0.67924685 0.425650741 -0.597867178
vn -0.267808228 -0.584541343 -0.765891749
vn -0.551924752 -0.205719311 -0.808120432
vn 0.710815353 -0.489835835 -0.504779545
vn -0.77290427 -0.521404337 -0.361602691
vn -0.267808228 -0.458267332 -0.847507997
vn 0.710815353 -0.489835835 -0.504779545
vn 0.584541343 0.17310272 0.792683333
vn -0.678198762 -0.395130327 0.619611542
vn -0.867609778 -0.268856316 0.418293622
vn -0.867609778 -0.268856316 0.418293622
vn -0.551924752 -0.205719311 -0.808120432
vn -0.678198762 -0.395130327 0.619611542
vn -0.77290427 -0.521404337 -0.361602691
vn 0.584541343 0.17310272 0.792683333
vn 0.963363374 0.267808228 -0.0144831779
vn 0.900226369 0.204671223 0.384320407
vn 0.584541343 0.17310272 0.792683333
vn 0.67924685 0.425650741 -0.597867178
vn -0.962315286 0.17310272 0.209725389
vn 0.174150808 0.330945234 0.927440968
vn -0.362513736 0.551924752 0.750974606
vn 0.426698829 0.899178281 0.0969872591
vn 0.047876798 0.204671223 -0.977659196
vn 0.174150808 0.330945234 0.927440968
vn -0.0468287099 -0.395130327 0.917430704
vn 0.047876798 0.204671223 -0.977659196
vn 0.237287814 0.899178281 0.367658691
vn -0.0468287099 -0.395130327 0.917430704
vn 0.954656487 -0.297709577 -0
vn 0.237287814 0.899178281 0.367658691
vn 0.426698829 0.899178281 0.0969872591
vn 0.742383856 0.299376731 0.599366152
vn 0.954656487 -0.297709577 -0
vn 0.742383856 0.299376731 0.599366152
vn 0.174150808 0.330945234 0.927440968
vn 0.426698829 0.899178281 0.0969872591
vn 0.954656487 -0.297709577 -0
vn 0.047876798 0.204671223 -0.977659196
vn 0.237287814 0.899178281 0.367658691
vn 0.742383856 0.64663026 -0.175315481
vn 0.641772497 -0.766895079 -0
vn 0.111013803 0.236239726 -0.965332444
vn 0.931794871 -0.142582306 0.333809232
vn 0.67924685 0.615061757 0.400403236
vn -0.267808228 -0.426698829 0.863832658
vn 0.67924685 0.615061757 0.400403236
vn 0.641772497 -0.766895079 -0
vn 0.363561824 0.109965715 0.92505694
vn 0.931794871 -0.142582306 0.333809232
vn -0.77290427 0.583493254 0.249308265
vn 0.67924685 0.615061757 0.400403236
vn 0.111013803 0.236239726 -0.965332444
vn 0.363561824 0.109965715 0.92505694
vn -0.0152602073 0.804472773 0.593793469
vn 0.742383856 0.64663026 -0.175315481
vn 0.111013803 0.236239726 -0.965332444
vn 0.363561824 0.109965715 0.92505694
vn -0.267808228 -0.426698829 0.863832658
vn 0.0163082953 0.962315286 -0.271446735
vn -0.962315286 -0.111013803 -0.248244287
vn -0.678198762 0.457219244 0.575323389
vn 0.0163082953 0.962315286 -0.271446735
vn 0.0163082953 0.267808228 -0.963334206
vn 0.0163082953 0.899178281 0.437278468
vn 0.0163082953 -0.521404337 0.853153888
vn 0.0163082953 0.267808228 0.963334206
vn -0.962315286 -0.111013803 -0.248244287
vn -0.678198762 0.457219244 0.575323389
vn 0.993832559 -0.110891142 -0
vn 0.0163082953 0.899178281 0.437278468
vn 0.0163082953 0.267808228 -0.963334206
vn 0.0163082953 -0.521404337 0.853153888
vn 0.0163082953 0.962315286 -0.271446735
vn 0.710815353 0.457219244 0.534501728
vn 0.0163082953 0.267808228 -0.963334206
vn 0.0163082953 0.267808228 0.963334206
vn 0.0163082953 0.267808228 -0.963334206
vn 0.0163082953 0.899178281 0.437278468
vn -0.962315286 -0.111013803 -0.248244287
vn -0.678198762 -0.489835835 -0.547820494
vn -0.77290427 -0.584541343 -0.246840855
vn -0.77290427 -0.584541343 -0.246840855
vn -0.615061757 -0.67924685 0.400403236
vn -0.867609778 -0.489835835 -0.0855226754
vn -0.267808228 -0.805520861 0.528597101
vn -0.141534218 -0.900226369 0.411777306
vn 0.489835835 -0.868657866 -0.0741239947
vn -0.362513736 -0.931794871 -0.0184961814
vn -0.109965715 -0.363561824 0.92505694
vn -0.0152602073 -0.174150808 0.984600742
vn 0.900226369 -0.268856316 0.342503673
vn 0.0163082953 0.204671223 0.978694912
vn -0.267808228 -0.805520861 -0.528597101
vn -0.299376731 -0.616109845 -0.72854803
vn -0.267808228 -0.458267332 -0.847507997
vn -0.488787747 -0.647678348 -0.584464966
vn -0.17310272 -0.268856316 -0.947497614
vn -0.394082239 -0.111013803 -0.912345946
vn 0.0163082953 -0.616109845 -0.787491396
vn 0.0163082953 -0.174150808 -0.98458394
vn 0.0163082953 -0.931794871 -0.362618749
vn 0.047876798 -0.174150808 0.983554426
vn 0.174150808 -0.900226369 0.399078916
vn 0.111013803 -0.205719311 -0.972293937
vn -0.267808228 0.141534218 -0.953019841
vn 0.0163082953 -0.994931877 0.0992199592
vn 0.426698829 -0.111013803 -0.89755448
vn 0.521404337 -0.647678348 -0.555563025
vn 0.205719311 -0.268856316 -0.940954752
vn 0.300424819 -0.805520861 -0.510765182
vn 0.142582306 -0.363561824 0.920593877
vn -0.867609778 -0.268856316 0.418293622
vn 0.647678348 -0.67924685 0.345161519
vn 0.300424819 -0.805520861 0.510765182
vn 0.87838599 -0.477951935 -0
vn 0.805520861 -0.584541343 -0.0971985672
vn 0.805520861 -0.584541343 -0.0971985672
vn 0.616109845 -0.742383856 0.263201196
vn 0.142582306 -0.363561824 0.920593877
vn 0.390401979 -0.9206445 -0
vn -0.457219244 -0.868657866 -0.190746099
vn 0.331993322 -0.616109845 -0.714275222
vn 0.300424819 -0.458267332 -0.83650223
vn 0.710815353 -0.489835835 -0.504779545
vn 0.300424819 0.109965715 -0.947445233
vn -0.0783972125 -0.205719311 -0.975465757
vn 0.710815353 -0.489835835 -0.504779545
vn 0.805520861 -0.584541343 -0.0971985672
vn 0.710815353 -0.489835835 -0.504779545
vn -0.267808228 -0.458267332 -0.847507997
vn 0.965374192 -0.260869066 -0
vn -0.299376731 -0.616109845 -0.72854803
vn 0.0163082953 0.141534218 -0.989799022
vn 0.489835835 -0.868657866 -0.0741239947
vn -0.236239726 -0.963363374 -0.126971657
vn -0.299376731 -0.616109845 -0.72854803
vn -0.962315286 0.236239726 0.134685123
vn 0.0163082953 0.141534218 -0.989799022
vn -0.867609778 -0.489835835 -0.0855226754
vn -0.267808228 -0.805520861 0.528597101
vn -0.267808228 -0.805520861 0.528597101
vn 0.0163082953 -0.142582306 0.989648587
vn 0.0163082953 -0.142582306 0.989648587
vn -0.236239726 -0.963363374 -0.126971657
vn 0.0163082953 0.141534218 -0.989799022
vn 0.965374192 -0.260869066 -0
vn 0.489835835 -0.868657866 -0.0741239947
vn 0.965374192 -0.260869066 -0
vn -0.236239726 -0.963363374 -0.126971657
vn -0.362513736 -0.931794871 -0.0184961814
vn 0.0163082953 -0.994931877 0.0992199592
vn 0.0163082953 -0.994931877 -0.0992199592
vn 0.0163082953 -0.931794871 -0.362618749
vn 0.331993322 -0.426698829 -0.841254149
vn -0.678198762 -0.489835835 -0.547820494
vn -0.678198762 -0.489835835 -0.547820494
vn -0.77290427 -0.584541343 -0.246840855
vn -0.583493254 -0.742383856 0.329244336
vn -0.109965715 -0.363561824 0.92505694
vn -0.394082239 -0.111013803 -0.912345946
vn 0.111013803 -0.205719311 -0.972293937
vn -0.17310272 -0.268856316 -0.947497614
vn 0.805520861 -0.521404337 -0.281555784
vn 0.805520861 -0.521404337 -0.281555784
vn 0.331993322 -0.426698829 -0.841254149
vn 0.0163082953 0.0152602073 -0.999750552
vn 0.426698829 -0.111013803 -0.89755448
vn -0.77290427 -0.521404337 -0.361602691
vn -0.0783972125 -0.205719311 -0.975465757
vn 0.205719311 -0.268856316 -0.940954752
vn -0.267808228 -0.458267332 -0.847507997
vn -0.962315286 -0.268856316 -0.0408114147
vn 0.331993322 -0.616109845 -0.714275222
vn -0.457219244 -0.868657866 -0.190746099
vn 0.0163082953 0.141534218 -0.989799022
vn 0.300424819 -0.805520861 0.510765182
vn 0.0163082953 -0.142582306 0.989648587
vn 0.268808915 -0.963193525 -0
vn 0.0163082953 0.141534218 -0.989799022
vn 0.300424819 -0.805520861 0.510765182
vn 0.979489637 0.201494541 -0
vn 0.87838599 -0.477951935 -0
vn 0.0163082953 -0.142582306 0.989648587
vn 0.979489637 0.201494541 -0
vn 0.268808915 -0.963193525 -0
vn 0.331993322 -0.616109845 -0.714275222
vn 0.979489637 0.201494541 -0
vn 0.87838599 -0.477951935 -0
vn 0.0163082953 0.141534218 -0.989799022
vn 0.268808915 -0.963193525 -0
vn 0.390401979 -0.9206445 -0
vn 0.0163082953 -0.994931877 -0.0992199592
vn 0.0163082953 -0.994931877 0.0992199592
vn 0.0163082953 -0.931794871 -0.362618749
g blue_asn_f_pve_2_belt_0
f 3/3/3 2/2/2 1/1/1
f 4/4/4 1/1/1 2/2/2
f 4/4/4 5/5/5 1/1/1
f 6/6/6 1/1/1 5/5/5
f 2/2/2 3/3/3 7/7/7
f 8/8/8 7/7/7 3/3/3
f 7/7/7 8/8/8 9/9/9
f 10/10/10 9/9/9 8/8/8
f 10/10/10 11/11/11 9/9/9
f 12/12/12 9/9/9 11/11/11
f 12/12/12 11/11/11 13/13/13
f 14/14/14 13/13/13 11/11/11
f 14/14/14 15/15/15 13/13/13
f 16/16/16 13/13/13 15/15/15
f 5/5/5 4/4/4 17/17/17
f 18/18/18 17/17/17 4/4/4
f 18/18/18 19/19/19 17/17/17
f 18/18/18 20/20/20 19/19/19
f 21/21/21 19/19/19 20/20/20
f 22/22/22 17/17/17 19/19/19
f 21/21/21 20/20/20 23/23/23
f 24/24/24 23/23/23 20/20/20
f 24/24/24 25/25/25 23/23/23
f 26/26/26 23/23/23 25/25/25
f 25/25/25 27/27/27 26/26/26
f 28/28/28 26/26/26 27/27/27
f 27/27/27 29/29/29 28/28/28
f 30/30/30 28/28/28 29/29/29
f 29/29/29 31/31/31 30/30/30
f 32/32/32 30/30/30 31/31/31
f 20/20/20 2/2/2 24/24/24
f 7/7/7 24/24/24 2/2/2
f 24/24/24 7/7/7 25/25/25
f 9/9/9 25/25/25 7/7/7
f 2/2/2 20/20/20 4/4/4
f 18/18/18 4/4/4 20/20/20
f 29/29/29 33/33/33 31/31/31
f 33/33/33 29/29/29 13/13/13
f 13/13/13 29/29/29 34/34/34
f 35/35/35 34/34/34 29/29/29
f 27/27/27 35/35/35 29/29/29
f 36/36/36 31/31/31 33/33/33
f 13/13/13 16/16/16 33/33/33
f 37/37/37 33/33/33 16/16/16
f 13/13/13 34/34/34 38/38/38
f 12/12/12 13/13/13 38/38/38
f 38/38/38 39/39/39 12/12/12
f 39/39/39 27/27/27 12/12/12
f 27/27/27 39/39/39 35/35/35
f 12/12/12 40/40/40 9/9/9
f 12/12/12 27/27/27 41/41/41
f 12/12/12 41/41/41 40/40/40
f 41/41/41 27/27/27 42/42/42
f 25/25/25 42/42/42 27/27/27
f 25/25/25 43/43/43 42/42/42
f 43/43/43 25/25/25 9/9/9
f 40/40/40 43/43/43 9/9/9
f 46/46/46 45/45/45 44/44/44
f 47/47/47 44/44/44 45/45/45
f 48/48/48 44/44/44 47/47/47
f 48/48/48 47/47/47 49/49/49
f 47/47/47 45/45/45 50/50/50
f 47/47/47 50/50/50 51/51/51
f 47/47/47 51/51/51 52/52/52
f 53/53/53 50/50/50 45/45/45
f 45/45/45 46/46/46 54/54/54
f 55/55/55 54/54/54 46/46/46
f 57/57/57 56/56/56 51/51/51
f 57/57/57 51/51/51 58/58/58
f 60/60/60 59/59/59 46/46/46
f 61/61/61 55/55/55 60/60/60
f 60/60/60 62/62/62 61/61/61
f 63/63/63 61/61/61 62/62/62
f 64/64/64 62/62/62 60/60/60
f 61/61/61 63/63/63 65/65/65
f 66/66/66 61/61/61 65/65/65
f 67/67/67 61/61/61 66/66/66
f 60/60/60 46/46/46 64/64/64
f 70/70/70 69/69/69 68/68/68
f 71/71/71 68/68/68 69/69/69
f 74/74/74 73/73/73 72/72/72
f 76/76/76 75/75/75 73/73/73
f 79/79/79 78/78/78 77/77/77
f 81/81/81 77/77/77 80/80/80
f 81/81/81 82/82/82 77/77/77
f 83/83/83 77/77/77 82/82/82
f 85/85/85 84/84/84 77/77/77
f 77/77/77 84/84/84 86/86/86
f 86/86/86 88/88/88 87/87/87
f 90/90/90 87/87/87 89/89/89
f 86/86/86 92/92/92 91/91/91
f 93/93/93 78/78/78 92/92/92
f 96/96/96 95/95/95 94/94/94
f 94/94/94 97/97/97 96/96/96
f 100/100/100 99/99/99 98/98/98
f 101/101/101 98/98/98 99/99/99
f 99/99/99 102/102/102 101/101/101
f 104/104/104 103/103/103 99/99/99
f 104/104/104 106/106/106 105/105/105
f 107/107/107 105/105/105 106/106/106
f 109/109/109 108/108/108 104/104/104
f 110/110/110 108/108/108 109/109/109
f 112/112/112 111/111/111 109/109/109
f 114/114/114 109/109/109 113/113/113
f 114/114/114 115/115/115 109/109/109
f 116/116/116 109/109/109 115/115/115
f 119/119/119 118/118/118 117/117/117
f 120/120/120 117/117/117 118/118/118
f 119/119/119 117/117/117 121/121/121
f 122/122/122 121/121/121 117/117/117
f 118/118/118 123/123/123 120/120/120
f 124/124/124 120/120/120 123/123/123
f 123/123/123 125/125/125 124/124/124
f 126/126/126 124/124/124 125/125/125
f 126/126/126 125/125/125 127/127/127
f 128/128/128 127/127/127 125/125/125
f 128/128/128 129/129/129 127/127/127
f 130/130/130 127/127/127 129/129/129
f 130/130/130 129/129/129 131/131/131
f 132/132/132 131/131/131 129/129/129
f 121/121/121 133/133/133 119/119/119
f 134/134/134 119/119/119 133/133/133
f 134/134/134 133/133/133 135/135/135
f 134/134/134 135/135/135 136/136/136
f 137/137/137 136/136/136 135/135/135
f 138/138/138 135/135/135 133/133/133
f 137/137/137 139/139/139 136/136/136
f 140/140/140 136/136/136 139/139/139
f 140/140/140 139/139/139 141/141/141
f 142/142/142 141/141/141 139/139/139
f 141/141/141 142/142/142 143/143/143
f 144/144/144 143/143/143 142/142/142
f 143/143/143 144/144/144 145/145/145
f 146/146/146 145/145/145 144/144/144
f 145/145/145 146/146/146 147/147/147
f 148/148/148 147/147/147 146/146/146
f 136/136/136 140/140/140 118/118/118
f 123/123/123 118/118/118 140/140/140
f 140/140/140 141/141/141 123/123/123
f 125/125/125 123/123/123 141/141/141
f 118/118/118 119/119/119 136/136/136
f 145/145/145 147/147/147 149/149/149
f 145/145/145 149/149/149 129/129/129
f 145/145/145 129/129/129 150/150/150
f 150/150/150 151/151/151 145/145/145
f 151/151/151 143/143/143 145/145/145
f 152/152/152 149/149/149 147/147/147
f 129/129/129 149/149/149 132/132/132
f 153/153/153 132/132/132 149/149/149
f 150/150/150 129/129/129 154/154/154
f 129/129/129 128/128/128 154/154/154
f 155/155/155 154/154/154 128/128/128
f 143/143/143 155/155/155 128/128/128
f 155/155/155 143/143/143 151/151/151
f 156/156/156 128/128/128 125/125/125
f 143/143/143 128/128/128 157/157/157
f 157/157/157 128/128/128 156/156/156
f 143/143/143 157/157/157 158/158/158
f 159/159/159 156/156/156 125/125/125
f 159/159/159 141/141/141 158/158/158
f 158/158/158 141/141/141 143/143/143
f 141/141/141 159/159/159 125/125/125
f 134/134/134 136/136/136 119/119/119
f 162/162/162 161/161/161 160/160/160
f 163/163/163 160/160/160 161/161/161
f 160/160/160 164/164/164 162/162/162
f 162/162/162 164/164/164 165/165/165
f 162/162/162 166/166/166 161/161/161
f 166/166/166 162/162/162 167/167/167
f 162/162/162 168/168/168 167/167/167
f 169/169/169 161/161/161 166/166/166
f 161/161/161 169/169/169 163/163/163
f 170/170/170 163/163/163 169/169/169
f 170/170/170 171/171/171 163/163/163
f 163/163/163 171/171/171 172/172/172
f 173/173/173 172/172/172 171/171/171
f 171/171/171 174/174/174 173/173/173
f 175/175/175 173/173/173 174/174/174
f 176/176/176 174/174/174 171/171/171
f 175/175/175 174/174/174 177/177/177
f 174/174/174 178/178/178 177/177/177
f 174/174/174 179/179/179 178/178/178
f 181/181/181 167/167/167 180/180/180
f 167/167/167 181/181/181 182/182/182
f 185/185/185 184/184/184 183/183/183
f 186/186/186 183/183/183 184/184/184
f 189/189/189 188/188/188 187/187/187
f 191/191/191 190/190/190 188/188/188
f 194/194/194 193/193/193 192/192/192
f 194/194/194 192/192/192 195/195/195
f 196/196/196 195/195/195 192/192/192
f 198/198/198 192/192/192 197/197/197
f 200/200/200 199/199/199 192/192/192
f 200/200/200 192/192/192 201/201/201
f 203/203/203 201/201/201 202/202/202
f 205/205/205 204/204/204 202/202/202
f 207/207/207 206/206/206 197/197/197
f 201/201/201 208/208/208 206/206/206
f 211/211/211 210/210/210 209/209/209
f 212/212/212 210/210/210 211/211/211
f 215/215/215 214/214/214 213/213/213
f 216/216/216 213/213/213 214/214/214
f 217/217/217 214/214/214 215/215/215
f 219/219/219 218/218/218 214/214/214
f 218/218/218 221/221/221 220/220/220
f 222/222/222 220/220/220 221/221/221
f 224/224/224 223/223/223 218/218/218
f 224/224/224 225/225/225 223/223/223
f 227/227/227 226/226/226 223/223/223
f 227/227/227 223/223/223 228/228/228
f 229/229/229 228/228/228 223/223/223
f 231/231/231 223/223/223 230/230/230
f 234/234/234 233/233/233 232/232/232
f 236/236/236 235/235/235 233/233/233
f 238/238/238 237/237/237 233/233/233
f 238/238/238 240/240/240 239/239/239
f 241/241/241 239/239/239 240/240/240
f 243/243/243 238/238/238 242/242/242
f 243/243/243 242/242/242 244/244/244
f 245/245/245 239/239/239 242/242/242
f 247/247/247 246/246/246 242/242/242
f 248/248/248 242/242/242 246/246/246
f 247/247/247 242/242/242 249/249/249
f 252/252/252 251/251/251 250/250/250
f 255/255/255 254/254/254 253/253/253
f 255/255/255 256/256/256 254/254/254
f 255/255/255 257/257/257 256/256/256
f 258/258/258 256/256/256 257/257/257
f 259/259/259 256/256/256 258/258/258
f 258/258/258 260/260/260 259/259/259
f 261/261/261 259/259/259 260/260/260
f 256/256/256 259/259/259 262/262/262
f 263/263/263 262/262/262 259/259/259
f 262/262/262 263/263/263 264/264/264
f 265/265/265 264/264/264 263/263/263
f 260/260/260 266/266/266 261/261/261
f 260/260/260 267/267/267 266/266/266
f 257/257/257 255/255/255 267/267/267
f 268/268/268 266/266/266 267/267/267
f 268/268/268 267/267/267 255/255/255
f 269/269/269 261/261/261 266/266/266
f 266/266/266 270/270/270 269/269/269
f 266/266/266 268/268/268 270/270/270
f 271/271/271 269/269/269 270/270/270
f 269/269/269 271/271/271 272/272/272
f 273/273/273 272/272/272 271/271/271
f 272/272/272 274/274/274 269/269/269
f 261/261/261 269/269/269 274/274/274
f 263/263/263 259/259/259 275/275/275
f 263/263/263 275/275/275 265/265/265
f 276/276/276 275/275/275 259/259/259
f 277/277/277 270/270/270 268/268/268
f 277/277/277 268/268/268 278/278/278
f 279/279/279 276/276/276 259/259/259
f 261/261/261 279/279/279 259/259/259
f 273/273/273 280/280/280 272/272/272
f 281/281/281 272/272/272 280/280/280
f 272/272/272 281/281/281 274/274/274
f 280/280/280 282/282/282 281/281/281
f 283/283/283 281/281/281 282/282/282
f 275/275/275 276/276/276 284/284/284
f 284/284/284 285/285/285 275/275/275
f 265/265/265 275/275/275 285/285/285
f 286/286/286 284/284/284 276/276/276
f 286/286/286 276/276/276 287/287/287
f 287/287/287 288/288/288 286/286/286
f 289/289/289 286/286/286 288/288/288
f 289/289/289 290/290/290 286/286/286
f 291/291/291 286/286/286 290/290/290
f 291/291/291 292/292/292 286/286/286
f 281/281/281 283/283/283 293/293/293
f 294/294/294 293/293/293 283/283/283
f 287/287/287 276/276/276 294/294/294
f 293/293/293 294/294/294 276/276/276
f 294/294/294 283/283/283 295/295/295
f 288/288/288 295/295/295 289/289/289
f 296/296/296 295/295/295 283/283/283
f 296/296/296 289/289/289 295/295/295
f 289/289/289 296/296/296 297/297/297
f 298/298/298 297/297/297 296/296/296
f 296/296/296 299/299/299 298/298/298
f 279/279/279 293/293/293 276/276/276
f 299/299/299 296/296/296 282/282/282
f 283/283/283 282/282/282 296/296/296
f 301/301/301 289/289/289 300/300/300
f 303/303/303 302/302/302 298/298/298
f 293/293/293 274/274/274 281/281/281
f 306/306/306 305/305/305 304/304/304
f 307/307/307 304/304/304 305/305/305
f 308/308/308 306/306/306 304/304/304
f 311/311/311 310/310/310 309/309/309
f 312/312/312 309/309/309 310/310/310
f 312/312/312 310/310/310 313/313/313
f 315/315/315 314/314/314 310/310/310
f 317/317/317 316/316/316 310/310/310
f 317/317/317 310/310/310 318/318/318
f 316/316/316 319/319/319 314/314/314
f 320/320/320 314/314/314 319/319/319
f 322/322/322 321/321/321 316/316/316
f 325/325/325 324/324/324 323/323/323
f 325/325/325 323/323/323 326/326/326
f 328/328/328 327/327/327 278/278/278
f 278/278/278 268/268/268 329/329/329
f 268/268/268 255/255/255 329/329/329
f 331/331/331 330/330/330 256/256/256
f 332/332/332 331/331/331 256/256/256
f 335/335/335 334/334/334 333/333/333
f 334/334/334 336/336/336 333/333/333
f 334/334/334 338/338/338 337/337/337
f 339/339/339 333/333/333 337/337/337
f 340/340/340 333/333/333 339/339/339
f 339/339/339 341/341/341 340/340/340
f 342/342/342 340/340/340 341/341/341
f 342/342/342 343/343/343 340/340/340
f 344/344/344 342/342/342 341/341/341
f 347/347/347 346/346/346 345/345/345
f 348/348/348 345/345/345 346/346/346
f 347/347/347 345/345/345 349/349/349
f 345/345/345 351/351/351 350/350/350
f 352/352/352 351/351/351 345/345/345
f 350/350/350 354/354/354 353/353/353
f 355/355/355 353/353/353 354/354/354
f 356/356/356 353/353/353 345/345/345
f 350/350/350 358/358/358 357/357/357
f 361/361/361 360/360/360 359/359/359
f 362/362/362 359/359/359 360/360/360
f 360/360/360 363/363/363 362/362/362
f 366/366/366 365/365/365 364/364/364
f 364/364/364 365/365/365 367/367/367
