g blue_asn_m_pve_1_helm
v 0.0911939964 -0.0564209968 1.79585004
v 0.103569001 -0.0605109967 1.81862998
v 0.104077995 -0.0209339987 1.78429985
v 0.146182999 0.0285560004 1.79779994
v 0.131193995 -0.00588699989 1.84723008
v 0.125426993 0.0359530002 1.7707299
v 0.0962919965 -0.00301499991 1.73427987
v 0.116450004 0.0429939963 1.74717999
v 0.0466509983 -0.0678419992 1.74673986
v 0.0393909998 -0.063138999 1.75783002
v 0.0505350009 -0.0409660004 1.73807001
v 0.0639149994 -0.0303729996 1.71324992
v 0.141887993 0.0951119959 1.79942
v 0.129096001 0.100009002 1.77275991
v 0.111088999 0.0924470052 1.74201989
v 0.107376002 0.119278997 1.77699995
v 0.13010399 0.140775993 1.81219995
v 0.135063991 0.0691590011 1.84510994
v 0.0942240059 0.155885994 1.78063989
v 0.0927700028 0.200692996 1.79293001
v 0.0592469983 0.201123998 1.76388001
v 0.0569389984 0.223673001 1.78437996
v 0.00790300034 -0.0630519986 1.74561
v 0.0131159993 -0.0727979988 1.7297399
v 0.0204049982 -0.0420389995 1.71732998
v 0.0883329958 0.18894501 1.83510995
v 0.107132994 0.129612997 1.86660004
v 0.107331999 0.0560860001 1.89608002
v 0.0841339976 0.112697996 1.92507005
v 0.0898329988 0.0578039959 1.94001997
v 0.077526994 -0.0251869988 1.92788994
v 0.107250005 -0.014498 1.88322008
v 0.0882680044 -0.070438996 1.85787988
v 0.0621140003 -0.0850619972 1.89565992
v 0.0767989978 0.001712 1.96719992
v 0.0456349999 -0.0508690029 1.98404002
v 0.0586199984 0.00955499988 2.01671982
v 0.0207080003 -0.0943389982 1.96262991
v 0.0649349988 0.079215996 2.01468992
v 0.0532520004 0.135178 1.98688996
v 0.0504279993 0.173152 1.90363991
v 0.0125449998 0.00709299976 2.03671002
v -0 -0.0702339932 1.99475002
v -0.0352229998 -0.00426999992 2.02729988
v -0.0449949987 0.0672729984 2.03140998
v -0.0692519993 0.0556300022 2.01015997
v -0.0726049989 0.105674997 1.98250997
v -0.0401679985 0.134421989 1.99882996
v -0.0639909953 0.144889995 1.94201994
v -0.0134449992 0.166103989 1.95419991
v 0.00629100017 0.136554003 2.01410985
v -0.0379730016 0.188031003 1.89751005
v 0.016384 0.0788259953 2.04057002
v -0.0589979962 -0.0144659989 1.99990988
v -0.0814249963 0.0184339993 1.97147989
v -0.0775600001 -0.0138989994 1.9413799
v -0.0482770018 -0.0554269962 1.97059
v -0.0284699984 -0.0749190003 1.97934997
v -3.30000003E-05 -0.0950279981 1.97184992
v -0.0184860006 -0.0947439969 1.96348
v -0.044836998 -0.0729319975 1.95731986
v -0.0184860006 -0.0947439969 1.96348
v -0.0419479981 -0.086778 1.92210996
v -0.0760990009 -0.0493039973 1.92059994
v -0.0698190033 -0.0783400014 1.87440991
v -0.0995929986 3.09999996E-05 1.88856995
v -0.0920349956 0.0296059977 1.90443993
v -0.0975259915 0.0553819984 1.93050992
v -0.101798996 0.0999419987 1.89119995
v -0.0941660032 -0.0301529989 1.86435997
v -0.0949530005 -0.0753259957 1.84117997
v -0.122993998 -0.0108850002 1.83447993
v -0.0990040004 -0.0743520036 1.82238007
v -0.140332997 0.00176799996 1.80290997
v -0.117126994 0.0534170009 1.85146999
v -0.145764992 0.0979660004 1.80591989
v -0.0967679992 0.0830139965 1.86469996
v -0.0936929956 0.140977994 1.83826005
v -0.127618 0.155943006 1.81687999
v -0.125632003 0.154047996 1.8004899
v -0.106284998 0.17647399 1.78954995
v -0.0942240059 0.155885994 1.78063989
v -0.0704759955 0.181340992 1.77459002
v -0.0864459947 0.203973994 1.79419005
v -0.0298099983 0.233616009 1.77911997
v -0.0299270004 0.199990988 1.75855994
v 0.0130289989 0.201951995 1.76714993
v -0.136738002 0.101900995 1.78428996
v -0.107376002 0.119278997 1.77699995
v -0.113058001 0.0876099914 1.76208997
v -0.111088999 0.0924470052 1.74201989
v -0.0667489991 0.196456999 1.82161999
v -0.0912359953 0.159505993 1.86081994
v -0.0579449981 0.205529004 1.84056997
v -0.013753999 0.217609987 1.80777991
v 0.0268820003 0.233054996 1.77688992
v 0.0397849977 0.210273981 1.80376995
v -0.00262300018 0.221763983 1.82828987
v -0.0298099983 0.233616009 1.77911997
v 0.0477120019 0.224248007 1.82785988
v 0.0113419993 0.218871996 1.8573699
v 0.0315589979 0.183487996 1.90535986
v 0.0532520004 0.135178 1.98688996
v 0.0504279993 0.173152 1.90363991
v 0.0504279993 0.173152 1.90363991
v 0.0477120019 0.224248007 1.82785988
v 0.0569389984 0.223673001 1.78437996
v 0.0532520004 0.135178 1.98688996
v 0.0268820003 0.233054996 1.77688992
v 0.0592469983 0.201123998 1.76388001
v 0.0267769992 0.180795982 1.75843
v 0.0564909987 0.178033993 1.76244986
v -0 0.181143999 1.75843
v -0.0267769992 0.180795982 1.75843
v -0.0564909987 0.178033993 1.76244986
v 0.0268820003 0.233054996 1.77688992
v -0.0298099983 0.233616009 1.77911997
v 0.0477120019 0.224248007 1.82785988
v 0.0504279993 0.173152 1.90363991
v 0.0397849977 0.210273981 1.80376995
v 0.0477120019 0.224248007 1.82785988
v 0.0927700028 0.200692996 1.79293001
v -0.105087996 0.0221900009 1.7501899
v -0.102520995 0.0199670009 1.7334199
v -0.123421997 0.00845099986 1.7742399
v -0.0961859971 0.0435480028 1.70139003
v -0.0767509937 -0.0254389998 1.74994993
v -0.0767509937 -0.0254389998 1.74994993
v -0.075910002 -0.0205359999 1.72415996
v -0.0650439933 0.00413399981 1.69539988
v -0.0823049992 -0.0619259961 1.80227005
v -0.0990040004 -0.0743520036 1.82238007
v -0.0822439939 -0.0581309982 1.78235984
v -0.0767509937 -0.0254389998 1.74994993
v -0.0268140007 -0.0209949985 1.69798994
v -0.0254609976 -0.00233799987 1.69350004
v -0.0650439933 0.00413399981 1.69539988
v -0.075910002 -0.0205359999 1.72415996
v -0.0394039974 -0.0521400012 1.72050989
v -0.0407240018 -0.0517819971 1.74348998
v -0.0767509937 -0.0254389998 1.74994993
v 0.0223959982 -0.0355069973 1.69898999
v 0.0254609976 -0.00233799987 1.69350004
v -0 0.00677699968 1.68033993
v 0.0650439933 0.00413399981 1.69539988
v 0.0961849988 0.0435480028 1.70139003
v -0.0161910001 -0.0604059957 1.74582994
v -0.0520459972 -0.0587959997 1.77039003
v -0.0822439939 -0.0581309982 1.78235984
v -0.0767509937 -0.0254389998 1.74994993
v -0.0254609976 -0.00233799987 1.69350004
v 0.0416009985 -0.0917099938 1.92910004
v 0.0564909987 0.178033993 1.76244986
v 0.0800409988 0.0184309985 1.92484999
v 0.0621140003 -0.0850619972 1.89565992
v 0.0882680044 -0.070438996 1.85787988
v 0.116944999 -0.00458699977 1.84457994
v 0.103569001 -0.0605109967 1.81862998
v 0.0911939964 -0.0564209968 1.79585004
v 0.103167996 0.030429 1.77912986
v 0.075462997 0.0253099985 1.72182989
v 0.0838000029 0.0302409995 1.89345002
v 0.0550419986 0.0372189991 1.7751199
v 0.0797649994 0.0628599972 1.81125998
v 0.0934409946 0.0551189966 1.84766996
v 0.0934409946 0.0551189966 1.84766996
v 0.0838000029 0.0302409995 1.89345002
v 4.1999996E-05 0.0203600004 1.75074995
v 0.00188700005 -0.00121999998 1.70615005
v 0.0393909998 -0.063138999 1.75783002
v 0.00188700005 -0.00121999998 1.70615005
v 0.00790300034 -0.0630519986 1.74561
v -0.0419479981 -0.086778 1.92210996
v -0.0812449977 0.0184309985 1.92484999
v -0.0698190033 -0.0783400014 1.87440991
v -0.0746989995 0.00705999974 1.95627999
v -0.0585689992 -0.00478299987 1.9941299
v -0.0184860006 -0.0947439969 1.96348
v -0.0327610001 -0.00732599944 2.01663995
v -3.30000003E-05 -0.0950279981 1.97184992
v 0.000348000001 -0.00577999977 2.02348995
v -0.0838000029 0.0302409995 1.89345002
v -0.131377995 0.0159290005 1.80453002
v -0.0949530005 -0.0753259957 1.84117997
v -0.0831289962 0.0502399988 1.84983003
v -0.0731169954 0.0474789999 1.8063699
v -0.119753994 0.0154269999 1.78394997
v -0.0823049992 -0.0619259961 1.80227005
v -0.0990040004 -0.0743520036 1.82238007
v -0.0461799987 0.0256699994 1.77128994
v -0.0621769987 -0.00535000023 1.72666001
v -0.0822439939 -0.0581309982 1.78235984
v -0.0823049992 -0.0619259961 1.80227005
v 4.1999996E-05 0.0203600004 1.75074995
v 0.00188700005 -0.00121999998 1.70615005
v -0.0990040004 -0.0743520036 1.82238007
v -0.0161910001 -0.0604059957 1.74582994
v -0.0520459972 -0.0587959997 1.77039003
v 0.00188700005 -0.00121999998 1.70615005
v 0.00790300034 -0.0630519986 1.74561
v -0.0822439939 -0.0581309982 1.78235984
v 0.0437830016 0.00134399987 2.00996995
v 0.0752729997 0.0152209997 1.96108985
v 0.0613839999 0.00950099993 1.9964
v 0.0207080003 -0.0943389982 1.96262991
v 0.0416009985 -0.0917099938 1.92910004
v 0.000348000001 -0.00577999977 2.02348995
v -3.30000003E-05 -0.0950279981 1.97184992
v -0.0585689992 -0.00478299987 1.9941299
v -0.0372099988 -0.0408199951 1.98203003
v -0.056595996 -0.0213980004 1.97369003
v -0.0327610001 -0.00732599944 2.01663995
v -0 -0.0498259999 1.9859699
v 0.000348000001 -0.00577999977 2.02348995
v -0.0635050014 -0.0247159991 1.94401002
v -0.0452969968 -0.0549030006 1.92993999
v -0.0645660013 -0.0300049987 1.91182995
v -0.0812449977 0.0184309985 1.92484999
v -0.0746989995 0.00705999974 1.95627999
v -0.0473610014 -0.0511959977 1.91200995
v -0.0659699962 -0.0263030007 1.90031993
v -0.0597809963 -0.0289919991 1.90942991
v -0.0610379986 -0.0261359997 1.90131998
v -0.0448279977 -0.0469669998 1.90954995
v -0.0277509987 -0.0596010014 1.90220988
v -0.0276060011 -0.0637679994 1.9052999
v -0.0454769991 -0.0437419973 1.88738
v -0.0493069962 -0.0481279977 1.8837899
v -0.0147189992 -0.061228998 1.88431001
v -0.0126119992 -0.0669180006 1.88046002
v -0.0472639985 -0.0543869995 1.86406994
v -0.0136600006 -0.0694399998 1.85626006
v -0.00975499954 -0.0757859945 1.85746002
v -0.0099019995 -0.0714550018 1.88093984
v -0.0135519998 -0.064962998 1.89266992
v -0.0108599998 -0.0687780008 1.89549994
v -0.024228001 -0.0672279969 1.91874993
v -0 -0.0688169971 1.91320002
v -0 -0.073439002 1.88188004
v -0.0635830015 -0.0275579989 1.87440991
v -0.0541520007 -0.0320469998 1.83595991
v -0.0427559987 -0.0466529988 1.84309995
v -0.0587499999 -0.00117299997 1.82570004
v -0.0719799995 0.000310999982 1.88281
v -0.0654050037 0.0255329981 1.81444001
v -0.0838000029 0.0302409995 1.89345002
v -0.0391860008 -0.0300619993 1.7882899
v -0.0456269979 -0.0356579982 1.80332994
v -0.0173840001 -0.0629899949 1.78199005
v -0.0186829995 -0.0563379973 1.79225004
v -0.0366629995 -0.0455189981 1.81415999
v -0 -0.0601469986 1.78873003
v -0 -0.0676189959 1.77975988
v -0.0160099994 -0.0482829995 1.76818991
v -0 -0.0524630025 1.76561987
v -0.0161230005 -0.0690679997 1.83930993
v -0 -0.079192996 1.84494996
v -0.0150689995 -0.0709029958 1.85141993
v -0.00950600021 -0.0774379969 1.85013998
v -0 -0.0776109993 1.85806
v 0.00950600021 -0.0774379969 1.85013998
v 0.00975499954 -0.0757859945 1.85746002
v 0.0099019995 -0.0714550018 1.88093984
v 0.0108599998 -0.0687780008 1.89549994
v 0.024228001 -0.0672279969 1.91874993
v 0.0276060011 -0.0637679994 1.9052999
v 0.0135519998 -0.064962998 1.89266992
v 0.0126119992 -0.0669180006 1.88046002
v 0.0136600006 -0.0694399998 1.85626006
v 0.0472639985 -0.0543869995 1.86406994
v 0.0493069962 -0.0481279977 1.8837899
v 0.0147189992 -0.061228998 1.88431001
v 0.0454769991 -0.0437419973 1.88738
v 0.0659699962 -0.0263030007 1.90031993
v 0.0610379986 -0.0261359997 1.90131998
v 0.0597809963 -0.0289919991 1.90942991
v 0.0645660013 -0.0300049987 1.91182995
v 0.0800409988 0.0184309985 1.92484999
v 0.0635050014 -0.0247159991 1.94401002
v 0.0752729997 0.0152209997 1.96108985
v 0.0452969968 -0.0549030006 1.92993999
v 0.0473610014 -0.0511959977 1.91200995
v 0.0372099988 -0.0408199951 1.98203003
v 0.056595996 -0.0213980004 1.97369003
v 0.0437830016 0.00134399987 2.00996995
v 0.0613839999 0.00950099993 1.9964
v 0.0448279977 -0.0469669998 1.90954995
v 0.0277509987 -0.0596010014 1.90220988
v 0.0541520007 -0.0320469998 1.83595991
v 0.0635830015 -0.0275579989 1.87440991
v 0.0427559987 -0.0466529988 1.84309995
v 0.0587499999 -0.00117299997 1.82570004
v 0.0719799995 0.000310999982 1.88281
v 0.0654050037 0.0255329981 1.81444001
v 0.0838000029 0.0302409995 1.89345002
v 0.0391860008 -0.0300619993 1.7882899
v 0.0456269979 -0.0356579982 1.80332994
v 0.0173840001 -0.0629899949 1.78199005
v 0.0186829995 -0.0563379973 1.79225004
v 0.0366629995 -0.0455189981 1.81415999
v 0.0160099994 -0.0482829995 1.76818991
v 0.0161230005 -0.0690679997 1.83930993
v 0.0150689995 -0.0709029958 1.85141993
v 4.1999996E-05 0.0203600004 1.75074995
v -0 -0.0524630025 1.76561987
v 0.0550419986 0.0372189991 1.7751199
v 0.0797649994 0.0628599972 1.81125998
v 0.0934409946 0.0551189966 1.84766996
v 0.0934409946 0.0551189966 1.84766996
v 0.0838000029 0.0302409995 1.89345002
v 0.0147189992 -0.061228998 1.88431001
v -0.0126119992 -0.0669180006 1.88046002
v -0.0147189992 -0.061228998 1.88431001
v 0.0126119992 -0.0669180006 1.88046002
v 4.1999996E-05 0.0203600004 1.75074995
v -0.0461799987 0.0256699994 1.77128994
v -0.0731169954 0.0474789999 1.8063699
v -0.0831289962 0.0502399988 1.84983003
v -0 -0.0524630025 1.76561987
vt 0.352400005 0.722199976
vt 0.378699988 0.73210001
vt 0.347299993 0.640699983
vt 0.375400007 0.529299974
vt 0.415499985 0.619799972
vt 0.345099986 0.510699987
vt 0.299600005 0.586099982
vt 0.3222 0.489899993
vt 0.288199991 0.759500027
vt 0.29429999 0.785700023
vt 0.279599994 0.703499973
vt 0.266099989 0.649699986
vt 0.386799991 0.400900006
vt 0.359899998 0.379400015
vt 0.322699994 0.383700013
vt 0.361200005 0.315600008
vt 0.4102 0.317900002
vt 0.426200002 0.472000003
vt 0.381900012 0.234300002
vt 0.418500006 0.176200002
vt 0.390500009 0.112400003
vt 0.420599997 0.0921000019
vt 0.261900008 0.824000001
vt 0.256300002 0.789699972
vt 0.243000001 0.728299975
vt 0.458000004 0.215700001
vt 0.467900008 0.357499987
vt 0.478899986 0.521399975
vt 0.529299974 0.410600007
vt 0.520699978 0.533100009
vt 0.500800014 0.713800013
vt 0.452499986 0.661000013
vt 0.420599997 0.77640003
vt 0.463400006 0.834399998
vt 0.53670001 0.669200003
vt 0.559199989 0.800700009
vt 0.579599977 0.670700014
vt 0.546800017 0.902899981
vt 0.590900004 0.529500008
vt 0.613200009 0.39230001
vt 0.537100017 0.262600005
vt 0.61500001 0.703499973
vt 0.600399971 0.878499985
vt 0.647199988 0.752499998
vt 0.666400015 0.62559998
vt 0.683799982 0.655499995
vt 0.710900009 0.568400025
vt 0.687900007 0.501800001
vt 0.743099988 0.490099996
vt 0.707099974 0.404000014
vt 0.650200009 0.466399997
vt 0.770200014 0.378699988
vt 0.625 0.568599999
vt 0.668099999 0.790199995
vt 0.70660001 0.743499994
vt 0.719299972 0.82130003
vt 0.665899992 0.885800004
vt 0.635100007 0.913999975
vt 0.58950001 0.938899994
vt 0.632799983 0.968100011
vt 0.667299986 0.925999999
vt 0.632799983 0.968100011
vt 0.695599973 0.984000027
vt 0.7245 0.897400022
vt 0.760900021 0.985499978
vt 0.7773 0.812099993
vt 0.768899977 0.748700023
vt 0.753199995 0.687900007
vt 0.792299986 0.603699982
vt 0.790300012 0.8847
vt 0.810299993 0.985400021
vt 0.833000004 0.847800016
vt 0.836199999 0.99000001
vt 0.869300008 0.825800002
vt 0.825299978 0.711199999
vt 0.886200011 0.638800025
vt 0.811999977 0.640399992
vt 0.840900004 0.518999994
vt 0.879999995 0.522199988
vt 0.893999994 0.519999981
vt 0.897899985 0.457100004
vt 0.924499989 0.476000011
vt 0.920099974 0.390399992
vt 0.884599984 0.396299988
vt 0.876600027 0.277399987
vt 0.914900005 0.287800014
vt 0.905900002 0.197400004
vt 0.906899989 0.631200016
vt 0.931100011 0.584399998
vt 0.935800016 0.667200029
vt 0.956700027 0.665799975
vt 0.849900007 0.38530001
vt 0.819800019 0.483200014
vt 0.829699993 0.3653
vt 0.840600014 0.261599988
vt 0.871100008 0.174500003
vt 0.832899988 0.148100004
vt 0.815500021 0.248400003
vt 0.876600027 0.277399987
vt 0.791899979 0.153600007
vt 0.780099988 0.244299993
vt 0.711799979 0.274699986
vt 0.613200009 0.39230001
vt 0.696799994 0.247400001
vt 0.696799994 0.247400001
vt 0.791899979 0.153600007
vt 0.86589998 0.1149
vt 0.613200009 0.39230001
vt 0.871100008 0.174500003
vt 0.899200022 0.102700002
vt 0.926699996 0.164399996
vt 0.923200011 0.102200001
vt 0.929899991 0.222800002
vt 0.933099985 0.287099987
vt 0.932399988 0.362800002
vt 0.871100008 0.174500003
vt 0.876600027 0.277399987
vt 0.479200006 0.113300003
vt 0.537100017 0.262600005
vt 0.451299995 0.0895999968
vt 0.479200006 0.113300003
vt 0.418500006 0.176200002
vt 0.933899999 0.811600029
vt 0.950600028 0.818599999
vt 0.901199996 0.826399982
vt 0.987699986 0.784600019
vt 0.934199989 0.927699983
vt 0.934199989 0.927699983
vt 0.959999979 0.918200016
vt 0.996200025 0.886300027
vt 0.870500028 0.993799984
vt 0.836199999 0.99000001
vt 0.894299984 0.984300017
vt 0.934199989 0.927699983
vt 0.186800003 0.75
vt 0.172299996 0.72359997
vt 0.142399997 0.779699981
vt 0.159600005 0.853600025
vt 0.204699993 0.824100018
vt 0.211600006 0.867699981
vt 0.169699997 0.905399978
vt 0.231099993 0.698000014
vt 0.2148 0.638499975
vt 0.184 0.658399999
vt 0.247600004 0.580900013
vt 0.271600008 0.48179999
vt 0.237299994 0.84920001
vt 0.215900004 0.9278
vt 0.197400004 0.98150003
vt 0.169699997 0.905399978
vt 0.173800007 0.718699992
vt 0.502900004 0.870299995
vt 0.370900005 0.139300004
vt 0.314599991 0.855199993
vt 0.3204 0.965200007
vt 0.342400014 0.953400016
vt 0.35620001 0.888599992
vt 0.363099992 0.949899971
vt 0.375999987 0.955299973
vt 0.390100002 0.867200017
vt 0.414799988 0.885900021
vt 0.332599998 0.841199994
vt 0.413800001 0.836499989
vt 0.384299994 0.817600012
vt 0.360599995 0.824500024
vt 0.360599995 0.824500024
vt 0.332599998 0.841199994
vt 0.446500003 0.863900006
vt 0.4454 0.920099974
vt 0.409200013 0.976300001
vt 0.4454 0.920099974
vt 0.425999999 0.984399974
vt 0.077200003 0.666599989
vt 0.0384999998 0.749499977
vt 0.0910999998 0.714999974
vt 0.0318000019 0.718999982
vt 0.0227000006 0.680199981
vt 0.0658000037 0.623899996
vt 0.0157999992 0.648699999
vt 0.0627000034 0.604799986
vt 0.0116999997 0.61559999
vt 0.0434000008 0.783399999
vt 0.0821999982 0.841799974
vt 0.107199997 0.752099991
vt 0.0469999984 0.842700005
vt 0.0626000017 0.888599992
vt 0.0861999989 0.852699995
vt 0.123599999 0.807699978
vt 0.1162 0.773800015
vt 0.0847000033 0.926900029
vt 0.111000001 0.91049999
vt 0.126000002 0.835399985
vt 0.123599999 0.807699978
vt 0.0988000035 0.973800004
vt 0.124899998 0.968699992
vt 0.1162 0.773800015
vt 0.1461 0.906899989
vt 0.136700004 0.865700006
vt 0.124899998 0.968699992
vt 0.154599994 0.924399972
vt 0.126000002 0.835399985
vt 0.266900003 0.870899975
vt 0.296000004 0.854499996
vt 0.276899993 0.858900011
vt 0.283499986 0.975300014
vt 0.301899999 0.970799983
vt 0.246999994 0.89410001
vt 0.273000002 0.983699977
vt 0.0754854679 0.561151266
vt 0.112124227 0.519591451
vt 0.0842894688 0.513145089
vt 0.107047468 0.611668587
vt 0.148388475 0.52612257
vt 0.148561791 0.633639097
vt 0.0760802403 0.452653408
vt 0.106342845 0.415540934
vt 0.0755692944 0.388507009
vt 0.0261228494 0.413018107
vt 0.046024885 0.485704303
vt 0.101212867 0.382349372
vt 0.0707672909 0.366542459
vt 0.0780045763 0.380130768
vt 0.0745263696 0.368598223
vt 0.0996700078 0.372425675
vt 0.120639168 0.359247684
vt 0.122904845 0.367793441
vt 0.098592706 0.350500703
vt 0.0975412056 0.33773613
vt 0.132679686 0.342327118
vt 0.136652276 0.331112027
vt 0.102535501 0.300855994
vt 0.135596201 0.284938812
vt 0.14120926 0.286732674
vt 0.140607387 0.329803228
vt 0.136642143 0.350963354
vt 0.140328318 0.355819225
vt 0.127227992 0.392543674
vt 0.149183676 0.387420893
vt 0.149134234 0.331053853
vt 0.0741013587 0.316733837
vt 0.0860450119 0.24286139
vt 0.101562314 0.258648515
vt 0.0596602261 0.213143587
vt 0.0469789468 0.327286124
vt 0.0366042145 0.182101607
vt 0.0158589482 0.338953972
vt 0.0997310579 0.14981699
vt 0.0979988351 0.181676984
vt 0.135906175 0.14579308
vt 0.130938128 0.164003968
vt 0.108764462 0.203269124
vt 0.149909288 0.158516645
vt 0.149986431 0.139635801
vt 0.131068528 0.114083171
vt 0.150145501 0.100122809
vt 0.133676827 0.255628347
vt 0.14943628 0.267753243
vt 0.135449275 0.277398944
vt 0.14242819 0.275416017
vt 0.149308383 0.288214564
vt 0.156372353 0.275698185
vt 0.157408625 0.28704977
vt 0.157633618 0.330126524
vt 0.158247605 0.356097102
vt 0.17097953 0.393535018
vt 0.17558074 0.369027257
vt 0.162015811 0.351227522
vt 0.16155754 0.331549883
vt 0.163090244 0.285699129
vt 0.196085528 0.303269863
vt 0.200585485 0.340447664
vt 0.16538398 0.3430022
vt 0.199346974 0.353185296
vt 0.226921394 0.371487379
vt 0.223013818 0.373544693
vt 0.220066875 0.385476589
vt 0.222404718 0.393633485
vt 0.271244943 0.418951869
vt 0.221100926 0.45743227
vt 0.257036984 0.505097032
vt 0.191531062 0.41780591
vt 0.197040737 0.385062099
vt 0.184672073 0.520845771
vt 0.212386355 0.517234564
vt 0.2025913 0.610939026
vt 0.231545791 0.581529498
vt 0.198727801 0.375264406
vt 0.177952081 0.360629082
vt 0.213085204 0.246371269
vt 0.224298194 0.321083307
vt 0.197414771 0.261308789
vt 0.239685014 0.217463255
vt 0.251480162 0.332180262
vt 0.262957484 0.186673045
vt 0.282907158 0.343957186
vt 0.199988604 0.15336287
vt 0.201510072 0.184869409
vt 0.163998887 0.146836758
vt 0.168843448 0.165194035
vt 0.190611973 0.205706477
vt 0.169058636 0.115651846
vt 0.165342137 0.256597519
vt 0.16332975 0.278280139
vt 0.212900877 0.0109726191
vt 0.150145501 0.100122809
vt 0.26042062 0.096937418
vt 0.299584359 0.166798711
vt 0.303988487 0.246140718
vt 0.303988487 0.246140718
vt 0.282907158 0.343957186
vt 0.023306448 0.0979386568
vt 0.0300472211 0.0435911417
vt 0.023306448 0.0394016504
vt 0.0300472211 0.0937488079
vt 0.0878966227 0.00783264637
vt 0.0535150692 0.0882765055
vt 0.0163471978 0.158877015
vt 0.00420835428 0.245157003
vt 0.150145501 0.100122809
vn -0.286192119 -0.956890583 -0.0495425276
vn -0.0678165779 -0.996989071 0.0375999697
vn 0.733225584 -0.479902446 -0.481740534
vn 0.949853003 -0.179472178 -0.256064475
vn 0.914761603 -0.291096628 0.280131996
vn 0.854338765 -0.190023169 -0.483731925
vn 0.765139818 -0.495254308 -0.411441714
vn 0.904161632 -0.117305122 -0.410769314
vn 0.370853961 -0.87834084 -0.301636785
vn -0.417893559 -0.393531919 0.818839192
vn 0.579875231 -0.630010426 -0.516557515
vn 0.510786355 -0.697658658 -0.502364099
vn 0.960421026 0.215299055 -0.176742479
vn 0.801795185 0.434205145 -0.410597682
vn 0.841170311 0.202287719 -0.501509964
vn 0.662866831 0.511185646 -0.547080219
vn 0.913032055 0.399159729 -0.0839282572
vn 0.925309181 0.0957620591 0.366923094
vn 0.665735483 0.224164441 -0.711720765
vn 0.69062984 0.692308009 -0.20914124
vn 0.340670317 0.34502238 -0.874587417
vn 0.419141263 0.907666624 0.0214875918
vn -0.183577836 -0.302129388 0.935423434
vn 0.0560955219 -0.931697965 -0.358876228
vn 0.162967458 -0.740990639 -0.651440382
vn 0.652819157 0.680332899 0.333128065
vn 0.811718762 0.367302746 0.454093844
vn 0.892683923 0.0284448583 0.449784696
vn 0.866842031 0.339090884 0.365516275
vn 0.944229126 0.0316110663 0.327768326
vn 0.866378963 -0.347003311 0.359132409
vn 0.828517616 -0.281992108 0.483775914
vn -0.212492228 -0.924522638 -0.316393733
vn -0.18422623 -0.905757129 -0.381660521
vn 0.929036021 -0.235679984 0.285214186
vn 0.664321721 -0.532331109 0.524690747
vn 0.684497118 -0.253401518 0.683557928
vn -0.0119763529 -0.878837287 -0.476971328
vn 0.753447533 0.198825583 0.626725852
vn 0.61919421 0.620894849 0.480716258
vn 0.594024658 0.694235682 0.406413078
vn 0.143367603 -0.269026637 0.952402413
vn 0.0306432545 -0.591179132 0.805957973
vn -0.394669354 -0.334646404 0.855714858
vn -0.451716274 0.151503071 0.879203796
vn -0.810265899 0.0281691886 0.585385084
vn -0.839375436 0.356873304 0.409988195
vn -0.464382678 0.642891645 0.609129846
vn -0.707585931 0.603723824 0.367205262
vn -0.11645373 0.892869234 0.434997916
vn 0.0697526187 0.682538688 0.727513134
vn -0.348687559 0.830304325 0.43475461
vn 0.153703004 0.202561393 0.967131972
vn -0.743816972 -0.396770358 0.537874997
vn -0.930799007 -0.209335193 0.299653053
vn -0.918163002 -0.265376806 0.294196963
vn -0.781428754 -0.463734239 0.417516023
vn -0.505408108 -0.588706613 0.630862117
vn -0.0234906692 -0.926081061 -0.376592785
vn 0.332732141 -0.898479104 -0.286399335
vn -0.722398758 -0.599236012 0.345045418
vn 0.332732141 -0.898479104 -0.286399335
vn 0.444700032 -0.829799235 -0.337157458
vn -0.853771508 -0.427953899 0.296529263
vn 0.192176491 -0.865265489 -0.463015974
vn -0.917400658 -0.154065862 0.36693278
vn -0.967410743 -0.0701836497 0.243291676
vn -0.986027002 -0.0322294794 0.163438082
vn -0.986990988 0.103677183 0.122881196
vn -0.840914488 -0.366924971 0.397780031
vn -0.00766772591 -0.968318045 -0.249602616
vn -0.876568496 -0.242208272 0.415888011
vn 0.172776282 -0.984731674 -0.0212569255
vn -0.952094316 -0.288152069 -0.102395572
vn -0.845786095 0.0971117541 0.524609625
vn -0.981595695 0.129733503 0.140139475
vn -0.946969807 0.121715806 0.297377437
vn -0.845474422 0.299235672 0.442301899
vn -0.788628459 0.421341211 0.447813064
vn -0.789331734 0.401817799 -0.464217424
vn -0.669225097 0.407989055 -0.621033549
vn -0.492403507 0.185505137 -0.8503685
vn -0.484014541 0.378251046 -0.789085567
vn -0.589674652 0.790676951 -0.164662823
vn -0.218398184 0.937669277 -0.270330399
vn -0.153587803 0.33188951 -0.930730939
vn 0.017246943 0.356083423 -0.934294999
vn -0.769936204 0.193739772 -0.607999444
vn -0.547804534 0.356755316 -0.756727099
vn -0.893256843 0.101982698 -0.437826306
vn -0.991996825 -0.00629102578 -0.126106322
vn -0.555634022 0.779437304 0.289393127
vn -0.880122781 0.456273407 0.131142914
vn -0.526809514 0.839184225 0.135060847
vn -0.0962472036 0.96633184 0.238619551
vn 0.118010148 0.944813728 -0.305615127
vn 0.243546873 0.957529783 0.154342353
vn -0.114465013 0.992790103 -0.0355740674
vn -0.218398184 0.937669277 -0.270330399
vn 0.376351982 0.922436118 -0.0864348337
vn 0.0146933524 0.919912934 0.391847104
vn 0.278766692 0.855225861 0.436895698
vn 0.61919421 0.620894849 0.480716258
vn 0.594024658 0.694235682 0.406413078
vn 0.594024658 0.694235682 0.406413078
vn 0.376351982 0.922436118 -0.0864348337
vn 0.419141263 0.907666624 0.0214875918
vn 0.61919421 0.620894849 0.480716258
vn 0.118010148 0.944813728 -0.305615127
vn 0.340670317 0.34502238 -0.874587417
vn 0.000550450641 0.301123828 -0.953584909
vn 0.304208219 0.0226718709 -0.952335715
vn 0.0886239037 0.27115038 -0.95844841
vn -0.0619961992 -0.00341411866 -0.998070538
vn -0.469137758 0.383393526 -0.795562148
vn 0.118010148 0.944813728 -0.305615127
vn -0.218398184 0.937669277 -0.270330399
vn 0.376351982 0.922436118 -0.0864348337
vn 0.594024658 0.694235682 0.406413078
vn 0.243546873 0.957529783 0.154342353
vn 0.376351982 0.922436118 -0.0864348337
vn 0.69062984 0.692308009 -0.20914124
vn -0.885993898 -0.231480628 -0.401785493
vn -0.901506364 -0.340029448 -0.26770556
vn -0.763530076 -0.280011356 -0.581906796
vn -0.879175365 -0.283758134 -0.382795036
vn -0.684843242 -0.591760874 -0.425216228
vn -0.684843242 -0.591760874 -0.425216228
vn -0.683956087 -0.591603816 -0.426859379
vn -0.53793937 -0.497536361 -0.680498958
vn 0.737198472 -0.674251378 -0.0438563935
vn 0.172776282 -0.984731674 -0.0212569255
vn -0.0586416312 -0.950183094 0.306126207
vn -0.684843242 -0.591760874 -0.425216228
vn -0.201965317 -0.479875237 -0.853773832
vn -0.260773778 -0.207962483 -0.942734718
vn -0.53793937 -0.497536361 -0.680498958
vn -0.683956087 -0.591603816 -0.426859379
vn -0.391585171 -0.773304522 -0.498659253
vn -0.436888248 -0.867307603 -0.238549814
vn -0.684843242 -0.591760874 -0.425216228
vn 0.103423409 -0.693332255 -0.713157833
vn 0.322813928 -0.250270426 -0.912773728
vn -0.0122609315 -0.339313567 -0.940593421
vn 0.488130391 -0.437920153 -0.754953444
vn 0.841760397 -0.23490116 -0.486066759
vn -0.100505069 -0.492390126 0.864552379
vn 0.402616322 -0.554926574 0.72798121
vn -0.0586416312 -0.950183094 0.306126207
vn -0.684843242 -0.591760874 -0.425216228
vn -0.260773778 -0.207962483 -0.942734718
vn -0.449071854 -0.885742724 0.117449112
vn 0.304208219 0.0226718709 -0.952335715
vn 0.033968512 -0.485399336 -0.873632431
vn -0.18422623 -0.905757129 -0.381660521
vn -0.212492228 -0.924522638 -0.316393733
vn -0.99131012 0.00781127298 -0.131313786
vn -0.0678165779 -0.996989071 0.0375999697
vn -0.286192119 -0.956890583 -0.0495425276
vn -0.815020502 -0.425647527 0.393148512
vn -0.465528607 -0.421793163 0.778057694
vn 0.076831609 -0.886145055 -0.456994295
vn 0.453701138 -0.888092935 -0.0737990364
vn 0.173912063 -0.984758377 0.00234885328
vn -0.197290614 -0.922677338 -0.331274807
vn -0.197290614 -0.922677338 -0.331274807
vn 0.076831609 -0.886145055 -0.456994295
vn 0.192950889 -0.949184954 -0.248631969
vn 0.0689797103 -0.195306882 0.978313386
vn -0.417893559 -0.393531919 0.818839192
vn 0.0689797103 -0.195306882 0.978313386
vn -0.183577836 -0.302129388 0.935423434
vn 0.444700032 -0.829799235 -0.337157458
vn 0.155049011 -0.595807493 -0.788018525
vn 0.192176491 -0.865265489 -0.463015974
vn 0.417385906 -0.897060633 -0.145159379
vn 0.548312306 -0.803382337 -0.232229337
vn 0.332732141 -0.898479104 -0.286399335
vn 0.446410447 -0.727824211 -0.520566583
vn -0.0234906692 -0.926081061 -0.376592785
vn -0.108416572 -0.744606555 -0.658640206
vn 0.0538367592 -0.64257139 -0.764332175
vn 0.965174854 -0.238379985 0.107761703
vn -0.00766772591 -0.968318045 -0.249602616
vn -0.143821418 -0.955174088 -0.258762181
vn -0.283521801 -0.948179841 0.143423811
vn 0.745046675 -0.299273551 0.596104622
vn 0.737198472 -0.674251378 -0.0438563935
vn 0.172776282 -0.984731674 -0.0212569255
vn -0.360392302 -0.932709455 0.0130591961
vn 0.470236689 -0.158433318 0.868202925
vn -0.0586416312 -0.950183094 0.306126207
vn 0.737198472 -0.674251378 -0.0438563935
vn 0.192950889 -0.949184954 -0.248631969
vn 0.0689797103 -0.195306882 0.978313386
vn 0.172776282 -0.984731674 -0.0212569255
vn -0.100505069 -0.492390126 0.864552379
vn 0.402616322 -0.554926574 0.72798121
vn 0.0689797103 -0.195306882 0.978313386
vn -0.183577836 -0.302129388 0.935423434
vn -0.0586416312 -0.950183094 0.306126207
vn -0.673981905 -0.131293178 0.726987183
vn 0.519500852 0.663849056 -0.537980735
vn 0.509556949 0.606527507 0.61030817
vn -0.0119763529 -0.878837287 -0.476971328
vn -0.449071854 -0.885742724 0.117449112
vn -0.108416572 -0.744606555 -0.658640206
vn -0.0234906692 -0.926081061 -0.376592785
vn 0.548312306 -0.803382337 -0.232229337
vn -0.482978761 -0.739025831 0.469651312
vn -0.799091935 -0.526932538 0.28947252
vn 0.446410447 -0.727824211 -0.520566583
vn 0.00881017558 -0.838138223 0.545386732
vn -0.108416572 -0.744606555 -0.658640206
vn -0.860082984 -0.477876514 0.178581193
vn -0.621668339 -0.771084666 0.137683868
vn -0.76790148 -0.606198847 -0.207002968
vn 0.155049011 -0.595807493 -0.788018525
vn 0.417385906 -0.897060633 -0.145159379
vn -0.647771358 -0.597519219 -0.472613066
vn -0.757635057 -0.651300609 0.0423871763
vn -0.182701334 -0.705909431 -0.684333265
vn -0.0176749304 -0.968373954 0.248876378
vn -0.426012456 -0.250531822 -0.869337261
vn -0.575564921 -0.480104595 -0.661985338
vn -0.536724567 -0.759545028 -0.367448062
vn -0.115619585 -0.572038591 0.812036932
vn -0.529684782 -0.717838466 0.451820731
vn -0.154639244 -0.587712705 0.794153929
vn -0.561603427 -0.724066257 0.400411814
vn -0.655676544 -0.752425194 -0.0628063753
vn -0.636409998 -0.726978481 0.257846296
vn -0.551037252 -0.813224554 0.187146202
vn -0.574912488 -0.808869004 0.123315282
vn -0.71901387 -0.649962962 -0.2461043
vn -0.405409008 -0.913407147 -0.0364828371
vn -0.289276302 -0.952725947 0.0929113552
vn -0 -0.989068568 0.147456378
vn -0 -0.986243784 0.165297598
vn -0.915002227 -0.387511969 -0.112273626
vn -0.876077473 -0.432059914 -0.214038625
vn -0.64194417 -0.712594807 -0.283048302
vn -0.934651256 -0.272548229 -0.228351831
vn -0.948397934 -0.282803506 -0.143399805
vn -0.897173703 -0.348184228 -0.271748245
vn 0.0538367592 -0.64257139 -0.764332175
vn -0.782359958 -0.257184535 -0.567246854
vn -0.848128319 -0.441985995 -0.292107463
vn -0.47157529 -0.874200284 -0.115718462
vn -0.392681658 -0.902896881 0.174866587
vn -0.663651466 -0.733157814 -0.148480132
vn -0 -0.967363417 0.253392965
vn -0 -0.994724572 -0.102580801
vn -0.50631237 -0.352336287 -0.787087679
vn -2.84148409E-05 -0.475988537 -0.879451513
vn -0.565523922 -0.80284071 -0.188757852
vn -0 -0.979960144 -0.199193776
vn -0.669338524 -0.736985564 0.0940113217
vn -0.467801809 -0.882798851 -0.0427497253
vn -0 -0.985599995 0.169093892
vn 0.467801809 -0.882798851 -0.0427497253
vn 0.551037252 -0.813224554 0.187146202
vn 0.574912488 -0.808869004 0.123315282
vn 0.405409008 -0.913407147 -0.0364828371
vn 0.289276302 -0.952725947 0.0929113552
vn 0.536724567 -0.759545028 -0.367448062
vn 0.71901387 -0.649962902 -0.2461043
vn 0.561603487 -0.724066198 0.400411874
vn 0.636409998 -0.726978481 0.257846296
vn 0.655676544 -0.752425194 -0.0628063753
vn 0.529684782 -0.717838466 0.451820761
vn 0.154639244 -0.587712705 0.794153929
vn 0.11561957 -0.572038531 0.812036932
vn 0.762163043 -0.645576835 0.0483545139
vn 0.0176749304 -0.968373954 0.248876378
vn 0.182701334 -0.705909431 -0.684333205
vn 0.774009228 -0.598508298 -0.20663397
vn 0.033968512 -0.485399336 -0.873632431
vn 0.86797744 -0.462630779 0.180521086
vn 0.519500852 0.663849056 -0.537980735
vn 0.621668339 -0.771084666 0.137683868
vn 0.647771358 -0.597519219 -0.472613066
vn 0.487003058 -0.710558057 0.507873297
vn 0.792804539 -0.493825018 0.357208312
vn -0.673981905 -0.131293178 0.726987183
vn 0.509556949 0.606527507 0.61030817
vn 0.426012456 -0.250531822 -0.869337261
vn 0.575564921 -0.480104595 -0.661985338
vn 0.876077473 -0.432059884 -0.214038625
vn 0.915002227 -0.387511969 -0.112273626
vn 0.64194417 -0.712594807 -0.283048302
vn 0.934651256 -0.272548229 -0.228351831
vn 0.950055361 -0.281579763 -0.13456507
vn 0.891149938 -0.355799407 -0.281529158
vn 0.076831609 -0.886145055 -0.456994295
vn 0.780553699 -0.258198798 -0.569270909
vn 0.848128319 -0.441985995 -0.292107463
vn 0.47157529 -0.874200165 -0.115718469
vn 0.392681658 -0.902896881 0.174866587
vn 0.663651407 -0.733157933 -0.148480132
vn 0.5062868 -0.352563769 -0.787002146
vn 0.565523803 -0.80284071 -0.188757837
vn 0.669338524 -0.736985564 0.0940113217
vn 0.192950889 -0.949184954 -0.248631969
vn -2.84148409E-05 -0.475988537 -0.879451513
vn 0.453701138 -0.888092935 -0.0737990364
vn 0.173912063 -0.984758377 0.00234885328
vn -0.197290614 -0.922677338 -0.331274807
vn -0.197290614 -0.922677338 -0.331274807
vn 0.076831609 -0.886145055 -0.456994295
vn 0.154639244 -0.587712705 0.794153929
vn -0.561603427 -0.724066257 0.400411814
vn -0.154639244 -0.587712705 0.794153929
vn 0.561603487 -0.724066198 0.400411874
vn 0.192950889 -0.949184954 -0.248631969
vn -0.360392302 -0.932709455 0.0130591961
vn -0.283521801 -0.948179841 0.143423811
vn -0.143821418 -0.955174088 -0.258762181
vn -2.84148409E-05 -0.475988537 -0.879451513
g blue_asn_m_pve_1_helm_0
f 3/3/3 2/2/2 1/1/1
f 2/2/2 3/3/3 4/4/4
f 2/2/2 4/4/4 5/5/5
f 6/6/6 4/4/4 3/3/3
f 3/3/3 7/7/7 6/6/6
f 8/8/8 6/6/6 7/7/7
f 1/1/1 9/9/9 3/3/3
f 1/1/1 10/10/10 9/9/9
f 11/11/11 3/3/3 9/9/9
f 3/3/3 11/11/11 7/7/7
f 12/12/12 7/7/7 11/11/11
f 4/4/4 6/6/6 13/13/13
f 14/14/14 13/13/13 6/6/6
f 6/6/6 8/8/8 14/14/14
f 15/15/15 14/14/14 8/8/8
f 16/16/16 14/14/14 15/15/15
f 14/14/14 16/16/16 13/13/13
f 17/17/17 13/13/13 16/16/16
f 18/18/18 13/13/13 17/17/17
f 13/13/13 18/18/18 4/4/4
f 5/5/5 4/4/4 18/18/18
f 16/16/16 19/19/19 17/17/17
f 20/20/20 17/17/17 19/19/19
f 19/19/19 21/21/21 20/20/20
f 22/22/22 20/20/20 21/21/21
f 10/10/10 23/23/23 9/9/9
f 24/24/24 9/9/9 23/23/23
f 11/11/11 9/9/9 25/25/25
f 24/24/24 25/25/25 9/9/9
f 11/11/11 25/25/25 12/12/12
f 20/20/20 26/26/26 17/17/17
f 27/27/27 17/17/17 26/26/26
f 17/17/17 27/27/27 18/18/18
f 28/28/28 18/18/18 27/27/27
f 27/27/27 29/29/29 28/28/28
f 30/30/30 28/28/28 29/29/29
f 28/28/28 30/30/30 31/31/31
f 31/31/31 32/32/32 28/28/28
f 32/32/32 31/31/31 33/33/33
f 34/34/34 33/33/33 31/31/31
f 35/35/35 31/31/31 30/30/30
f 35/35/35 36/36/36 31/31/31
f 36/36/36 35/35/35 37/37/37
f 38/38/38 31/31/31 36/36/36
f 37/37/37 35/35/35 39/39/39
f 30/30/30 39/39/39 35/35/35
f 39/39/39 30/30/30 40/40/40
f 29/29/29 40/40/40 30/30/30
f 40/40/40 29/29/29 41/41/41
f 37/37/37 42/42/42 36/36/36
f 43/43/43 36/36/36 42/42/42
f 36/36/36 43/43/43 38/38/38
f 43/43/43 42/42/42 44/44/44
f 44/44/44 42/42/42 45/45/45
f 45/45/45 46/46/46 44/44/44
f 46/46/46 45/45/45 47/47/47
f 48/48/48 47/47/47 45/45/45
f 49/49/49 47/47/47 48/48/48
f 48/48/48 50/50/50 49/49/49
f 50/50/50 48/48/48 51/51/51
f 48/48/48 45/45/45 51/51/51
f 52/52/52 49/49/49 50/50/50
f 53/53/53 51/51/51 45/45/45
f 53/53/53 45/45/45 42/42/42
f 53/53/53 39/39/39 51/51/51
f 54/54/54 44/44/44 46/46/46
f 44/44/44 54/54/54 43/43/43
f 46/46/46 55/55/55 54/54/54
f 55/55/55 56/56/56 54/54/54
f 57/57/57 54/54/54 56/56/56
f 54/54/54 57/57/57 58/58/58
f 58/58/58 43/43/43 54/54/54
f 43/43/43 58/58/58 59/59/59
f 60/60/60 59/59/59 58/58/58
f 57/57/57 61/61/61 58/58/58
f 62/62/62 58/58/58 61/61/61
f 62/62/62 61/61/61 63/63/63
f 64/64/64 63/63/63 61/61/61
f 61/61/61 57/57/57 64/64/64
f 56/56/56 64/64/64 57/57/57
f 65/65/65 63/63/63 64/64/64
f 64/64/64 56/56/56 66/66/66
f 67/67/67 66/66/66 56/56/56
f 56/56/56 55/55/55 67/67/67
f 68/68/68 67/67/67 55/55/55
f 55/55/55 46/46/46 68/68/68
f 47/47/47 68/68/68 46/46/46
f 47/47/47 49/49/49 68/68/68
f 69/69/69 68/68/68 49/49/49
f 65/65/65 64/64/64 70/70/70
f 66/66/66 70/70/70 64/64/64
f 65/65/65 70/70/70 71/71/71
f 72/72/72 71/71/71 70/70/70
f 70/70/70 66/66/66 72/72/72
f 71/71/71 72/72/72 73/73/73
f 74/74/74 73/73/73 72/72/72
f 75/75/75 74/74/74 72/72/72
f 66/66/66 67/67/67 75/75/75
f 75/75/75 72/72/72 66/66/66
f 74/74/74 75/75/75 76/76/76
f 76/76/76 75/75/75 77/77/77
f 77/77/77 75/75/75 67/67/67
f 69/69/69 77/77/77 68/68/68
f 67/67/67 68/68/68 77/77/77
f 77/77/77 78/78/78 76/76/76
f 77/77/77 69/69/69 78/78/78
f 79/79/79 76/76/76 78/78/78
f 79/79/79 80/80/80 76/76/76
f 80/80/80 79/79/79 81/81/81
f 80/80/80 81/81/81 82/82/82
f 83/83/83 82/82/82 81/81/81
f 81/81/81 84/84/84 83/83/83
f 84/84/84 81/81/81 79/79/79
f 84/84/84 85/85/85 83/83/83
f 86/86/86 83/83/83 85/85/85
f 86/86/86 85/85/85 87/87/87
f 88/88/88 76/76/76 80/80/80
f 82/82/82 89/89/89 80/80/80
f 88/88/88 80/80/80 89/89/89
f 88/88/88 89/89/89 90/90/90
f 89/89/89 91/91/91 90/90/90
f 84/84/84 79/79/79 92/92/92
f 78/78/78 92/92/92 79/79/79
f 84/84/84 92/92/92 85/85/85
f 78/78/78 93/93/93 92/92/92
f 94/94/94 92/92/92 93/93/93
f 52/52/52 94/94/94 93/93/93
f 92/92/92 94/94/94 95/95/95
f 85/85/85 95/95/95 96/96/96
f 97/97/97 96/96/96 95/95/95
f 98/98/98 95/95/95 94/94/94
f 95/95/95 98/98/98 97/97/97
f 95/95/95 99/99/99 92/92/92
f 100/100/100 97/97/97 98/98/98
f 100/100/100 98/98/98 101/101/101
f 98/98/98 94/94/94 101/101/101
f 52/52/52 101/101/101 94/94/94
f 101/101/101 52/52/52 102/102/102
f 50/50/50 102/102/102 52/52/52
f 102/102/102 50/50/50 103/103/103
f 103/103/103 104/104/104 102/102/102
f 51/51/51 103/103/103 50/50/50
f 52/52/52 93/93/93 49/49/49
f 69/69/69 49/49/49 93/93/93
f 102/102/102 105/105/105 101/101/101
f 106/106/106 101/101/101 105/105/105
f 96/96/96 97/97/97 107/107/107
f 93/93/93 78/78/78 69/69/69
f 108/108/108 51/51/51 39/39/39
f 39/39/39 53/53/53 37/37/37
f 42/42/42 37/37/37 53/53/53
f 107/107/107 110/110/110 109/109/109
f 112/112/112 111/111/111 110/110/110
f 87/87/87 110/110/110 111/111/111
f 111/111/111 113/113/113 87/87/87
f 87/87/87 113/113/113 86/86/86
f 114/114/114 86/86/86 113/113/113
f 114/114/114 115/115/115 86/86/86
f 83/83/83 86/86/86 115/115/115
f 115/115/115 82/82/82 83/83/83
f 87/87/87 116/116/116 110/110/110
f 116/116/116 87/87/87 117/117/117
f 119/119/119 26/26/26 118/118/118
f 26/26/26 119/119/119 27/27/27
f 29/29/29 27/27/27 119/119/119
f 26/26/26 20/20/20 120/120/120
f 121/121/121 26/26/26 120/120/120
f 22/22/22 120/120/120 122/122/122
f 90/90/90 124/124/124 123/123/123
f 123/123/123 125/125/125 90/90/90
f 88/88/88 90/90/90 125/125/125
f 90/90/90 91/91/91 124/124/124
f 126/126/126 124/124/124 91/91/91
f 123/123/123 127/127/127 125/125/125
f 123/123/123 124/124/124 128/128/128
f 129/129/129 128/128/128 124/124/124
f 126/126/126 130/130/130 124/124/124
f 129/129/129 124/124/124 130/130/130
f 88/88/88 125/125/125 76/76/76
f 74/74/74 76/76/76 125/125/125
f 125/125/125 131/131/131 74/74/74
f 132/132/132 74/74/74 131/131/131
f 133/133/133 131/131/131 125/125/125
f 133/133/133 125/125/125 134/134/134
f 137/137/137 136/136/136 135/135/135
f 137/137/137 135/135/135 138/138/138
f 139/139/139 138/138/138 135/135/135
f 139/139/139 140/140/140 138/138/138
f 141/141/141 138/138/138 140/140/140
f 135/135/135 25/25/25 139/139/139
f 24/24/24 139/139/139 25/25/25
f 135/135/135 142/142/142 25/25/25
f 142/142/142 12/12/12 25/25/25
f 142/142/142 143/143/143 12/12/12
f 142/142/142 144/144/144 143/143/143
f 142/142/142 135/135/135 144/144/144
f 145/145/145 12/12/12 143/143/143
f 12/12/12 145/145/145 7/7/7
f 146/146/146 7/7/7 145/145/145
f 7/7/7 146/146/146 8/8/8
f 146/146/146 15/15/15 8/8/8
f 139/139/139 24/24/24 147/147/147
f 147/147/147 140/140/140 139/139/139
f 140/140/140 147/147/147 148/148/148
f 148/148/148 149/149/149 140/140/140
f 150/150/150 140/140/140 149/149/149
f 23/23/23 147/147/147 24/24/24
f 151/151/151 144/144/144 135/135/135
f 59/59/59 38/38/38 43/43/43
f 38/38/38 152/152/152 31/31/31
f 34/34/34 31/31/31 152/152/152
f 21/21/21 19/19/19 153/153/153
f 2/2/2 5/5/5 33/33/33
f 32/32/32 33/33/33 5/5/5
f 32/32/32 5/5/5 28/28/28
f 18/18/18 28/28/28 5/5/5
f 156/156/156 155/155/155 154/154/154
f 154/154/154 157/157/157 156/156/156
f 158/158/158 156/156/156 157/157/157
f 158/158/158 157/157/157 159/159/159
f 160/160/160 159/159/159 157/157/157
f 159/159/159 160/160/160 161/161/161
f 162/162/162 157/157/157 154/154/154
f 161/161/161 160/160/160 163/163/163
f 164/164/164 163/163/163 160/160/160
f 157/157/157 165/165/165 160/160/160
f 164/164/164 160/160/160 166/166/166
f 157/157/157 167/167/167 165/165/165
f 163/163/163 168/168/168 161/161/161
f 169/169/169 161/161/161 168/168/168
f 159/159/159 161/161/161 170/170/170
f 171/171/171 170/170/170 161/161/161
f 170/170/170 171/171/171 172/172/172
f 175/175/175 174/174/174 173/173/173
f 176/176/176 173/173/173 174/174/174
f 176/176/176 177/177/177 173/173/173
f 178/178/178 173/173/173 177/177/177
f 177/177/177 179/179/179 178/178/178
f 180/180/180 178/178/178 179/179/179
f 180/180/180 179/179/179 181/181/181
f 182/182/182 174/174/174 175/175/175
f 183/183/183 182/182/182 175/175/175
f 184/184/184 183/183/183 175/175/175
f 185/185/185 182/182/182 183/183/183
f 185/185/185 183/183/183 186/186/186
f 187/187/187 186/186/186 183/183/183
f 187/187/187 183/183/183 188/188/188
f 189/189/189 188/188/188 183/183/183
f 186/186/186 187/187/187 190/190/190
f 191/191/191 190/190/190 187/187/187
f 187/187/187 192/192/192 191/191/191
f 193/193/193 192/192/192 187/187/187
f 190/190/190 191/191/191 194/194/194
f 195/195/195 194/194/194 191/191/191
f 196/196/196 183/183/183 184/184/184
f 198/198/198 197/197/197 191/191/191
f 199/199/199 191/191/191 197/197/197
f 200/200/200 199/199/199 197/197/197
f 201/201/201 198/198/198 191/191/191
f 204/204/204 203/203/203 202/202/202
f 205/205/205 202/202/202 203/203/203
f 205/205/205 203/203/203 206/206/206
f 154/154/154 206/206/206 203/203/203
f 202/202/202 205/205/205 207/207/207
f 208/208/208 207/207/207 205/205/205
f 206/206/206 154/154/154 155/155/155
f 211/211/211 210/210/210 209/209/209
f 212/212/212 209/209/209 210/210/210
f 210/210/210 213/213/213 212/212/212
f 214/214/214 212/212/212 213/213/213
f 211/211/211 215/215/215 210/210/210
f 216/216/216 210/210/210 215/215/215
f 215/215/215 217/217/217 216/216/216
f 217/217/217 215/215/215 218/218/218
f 219/219/219 218/218/218 215/215/215
f 215/215/215 211/211/211 219/219/219
f 209/209/209 219/219/219 211/211/211
f 220/220/220 216/216/216 217/217/217
f 217/217/217 218/218/218 221/221/221
f 217/217/217 221/221/221 222/222/222
f 217/217/217 222/222/222 220/220/220
f 223/223/223 222/222/222 221/221/221
f 224/224/224 220/220/220 222/222/222
f 224/224/224 225/225/225 220/220/220
f 226/226/226 220/220/220 225/225/225
f 223/223/223 221/221/221 227/227/227
f 228/228/228 227/227/227 221/221/221
f 227/227/227 228/228/228 229/229/229
f 230/230/230 229/229/229 228/228/228
f 228/228/228 231/231/231 230/230/230
f 232/232/232 230/230/230 231/231/231
f 232/232/232 233/233/233 230/230/230
f 234/234/234 230/230/230 233/233/233
f 230/230/230 234/234/234 235/235/235
f 225/225/225 235/235/235 226/226/226
f 236/236/236 235/235/235 234/234/234
f 236/236/236 226/226/226 235/235/235
f 226/226/226 236/236/236 237/237/237
f 238/238/238 237/237/237 236/236/236
f 234/234/234 239/239/239 236/236/236
f 238/238/238 236/236/236 239/239/239
f 238/238/238 213/213/213 237/237/237
f 231/231/231 228/228/228 240/240/240
f 240/240/240 241/241/241 231/231/231
f 242/242/242 231/231/231 241/241/241
f 241/241/241 240/240/240 243/243/243
f 244/244/244 243/243/243 240/240/240
f 243/243/243 244/244/244 245/245/245
f 246/246/246 245/245/245 244/244/244
f 245/245/245 247/247/247 243/243/243
f 248/248/248 243/243/243 247/247/247
f 248/248/248 241/241/241 243/243/243
f 248/248/248 247/247/247 249/249/249
f 249/249/249 250/250/250 248/248/248
f 251/251/251 248/248/248 250/250/250
f 242/242/242 241/241/241 251/251/251
f 248/248/248 251/251/251 241/241/241
f 250/250/250 249/249/249 252/252/252
f 253/253/253 252/252/252 249/249/249
f 254/254/254 249/249/249 247/247/247
f 253/253/253 249/249/249 255/255/255
f 254/254/254 255/255/255 249/249/249
f 244/244/244 218/218/218 246/246/246
f 218/218/218 244/244/244 221/221/221
f 240/240/240 221/221/221 244/244/244
f 221/221/221 240/240/240 228/228/228
f 250/250/250 252/252/252 256/256/256
f 250/250/250 256/256/256 251/251/251
f 257/257/257 256/256/256 252/252/252
f 242/242/242 251/251/251 256/256/256
f 256/256/256 258/258/258 242/242/242
f 242/242/242 258/258/258 231/231/231
f 232/232/232 231/231/231 258/258/258
f 232/232/232 258/258/258 233/233/233
f 259/259/259 233/233/233 258/258/258
f 256/256/256 257/257/257 259/259/259
f 258/258/258 256/256/256 259/259/259
f 233/233/233 259/259/259 260/260/260
f 257/257/257 260/260/260 259/259/259
f 233/233/233 260/260/260 234/234/234
f 239/239/239 234/234/234 260/260/260
f 257/257/257 261/261/261 260/260/260
f 262/262/262 260/260/260 261/261/261
f 239/239/239 260/260/260 263/263/263
f 262/262/262 263/263/263 260/260/260
f 263/263/263 264/264/264 239/239/239
f 238/238/238 239/239/239 264/264/264
f 238/238/238 264/264/264 265/265/265
f 266/266/266 265/265/265 264/264/264
f 213/213/213 238/238/238 265/265/265
f 264/264/264 263/263/263 267/267/267
f 264/264/264 267/267/267 266/266/266
f 268/268/268 267/267/267 263/263/263
f 263/263/263 262/262/262 268/268/268
f 269/269/269 268/268/268 262/262/262
f 269/269/269 270/270/270 268/268/268
f 270/270/270 271/271/271 268/268/268
f 268/268/268 271/271/271 272/272/272
f 273/273/273 272/272/272 271/271/271
f 271/271/271 274/274/274 273/273/273
f 275/275/275 273/273/273 274/274/274
f 275/275/275 274/274/274 276/276/276
f 277/277/277 276/276/276 274/274/274
f 278/278/278 277/277/277 274/274/274
f 277/277/277 278/278/278 279/279/279
f 280/280/280 279/279/279 278/278/278
f 279/279/279 281/281/281 277/277/277
f 282/282/282 277/277/277 281/281/281
f 277/277/277 282/282/282 276/276/276
f 281/281/281 279/279/279 283/283/283
f 284/284/284 283/283/283 279/279/279
f 279/279/279 280/280/280 284/284/284
f 283/283/283 284/284/284 285/285/285
f 286/286/286 285/285/285 284/284/284
f 286/286/286 284/284/284 280/280/280
f 285/285/285 214/214/214 283/283/283
f 213/213/213 283/283/283 214/214/214
f 287/287/287 276/276/276 282/282/282
f 287/287/287 282/282/282 288/288/288
f 266/266/266 288/288/288 282/282/282
f 281/281/281 265/265/265 282/282/282
f 266/266/266 282/282/282 265/265/265
f 213/213/213 265/265/265 283/283/283
f 281/281/281 283/283/283 265/265/265
f 288/288/288 266/266/266 267/267/267
f 213/213/213 210/210/210 237/237/237
f 216/216/216 237/237/237 210/210/210
f 216/216/216 220/220/220 237/237/237
f 226/226/226 237/237/237 220/220/220
f 290/290/290 270/270/270 289/289/289
f 291/291/291 289/289/289 270/270/270
f 289/289/289 292/292/292 290/290/290
f 293/293/293 290/290/290 292/292/292
f 292/292/292 294/294/294 293/293/293
f 295/295/295 293/293/293 294/294/294
f 294/294/294 292/292/292 296/296/296
f 297/297/297 296/296/296 292/292/292
f 289/289/289 297/297/297 292/292/292
f 297/297/297 298/298/298 296/296/296
f 298/298/298 297/297/297 299/299/299
f 300/300/300 299/299/299 297/297/297
f 297/297/297 289/289/289 300/300/300
f 291/291/291 300/300/300 289/289/289
f 299/299/299 252/252/252 298/298/298
f 253/253/253 298/298/298 252/252/252
f 301/301/301 296/296/296 298/298/298
f 301/301/301 298/298/298 255/255/255
f 253/253/253 255/255/255 298/298/298
f 278/278/278 293/293/293 295/295/295
f 278/278/278 274/274/274 293/293/293
f 290/290/290 293/293/293 274/274/274
f 274/274/274 271/271/271 290/290/290
f 270/270/270 290/290/290 271/271/271
f 299/299/299 302/302/302 252/252/252
f 299/299/299 300/300/300 302/302/302
f 257/257/257 252/252/252 302/302/302
f 291/291/291 302/302/302 300/300/300
f 291/291/291 270/270/270 303/303/303
f 303/303/303 302/302/302 291/291/291
f 269/269/269 303/303/303 270/270/270
f 269/269/269 262/262/262 303/303/303
f 261/261/261 303/303/303 262/262/262
f 257/257/257 302/302/302 261/261/261
f 302/302/302 303/303/303 261/261/261
f 305/305/305 304/304/304 301/301/301
f 301/301/301 304/304/304 296/296/296
f 306/306/306 296/296/296 304/304/304
f 296/296/296 306/306/306 294/294/294
f 307/307/307 294/294/294 306/306/306
f 307/307/307 308/308/308 294/294/294
f 310/310/310 294/294/294 309/309/309
f 313/313/313 312/312/312 311/311/311
f 314/314/314 311/311/311 312/312/312
f 316/316/316 315/315/315 247/247/247
f 254/254/254 247/247/247 315/315/315
f 247/247/247 245/245/245 316/316/316
f 317/317/317 316/316/316 245/245/245
f 317/317/317 245/245/245 318/318/318
f 246/246/246 318/318/318 245/245/245
f 254/254/254 315/315/315 319/319/319
