g Blue_var_pve_3_sword
v -0.662001789 0.223617136 -3.22009158
v 0.000881651242 -0.285247594 3.08107162
v 0.000882098044 -0.425683051 -3.61355948
v -0.52676332 0.223617151 3.08107162
v 0.000882165856 -0.875473738 -3.61220217
v -1.11225021 0.223617077 -2.95528674
v 0.663765788 0.223617345 -3.22009158
v 0.528526425 0.223617315 3.08107162
v 1.11401439 0.22361739 -2.95528316
v 0.000881651242 -0.285247594 3.08107162
v -0.52676332 0.223617151 3.08107162
v 0.000881574408 0.223617226 3.08107162
v 0.528526425 0.223617315 3.08107162
v 0.000881497515 0.732482135 3.08107162
v 0.000882092572 0.223617226 -5.06961679
v -1.11225021 0.223617077 -2.95528674
v 0.000882165856 -0.875473738 -3.61220217
v 1.11401439 0.22361739 -2.95528316
v 0.000882092572 0.223617226 -5.06961679
v 0.000882165856 -0.875473738 -3.61220217
v 0.000881030865 -0.166127369 12.5569334
v -1.02593696 0.223617077 11.5069818
v -1.38555229 0.223617032 12.5391588
v -0.898211718 0.223617092 13.5331812
v 0.000881219166 -0.197337434 9.66876793
v -1.41973555 0.223617017 10.1959505
v -0.944131315 0.223617092 9.14446068
v -0.954610884 0.223617092 14.9944458
v 0.000880791456 -0.0710647032 16.0972214
v -1.35534298 0.223617032 16.2482071
v -0.590363383 0.223617151 21.4513187
v 0.000880269625 0.223617226 23.6058598
v 0.592124224 0.223617315 21.4513187
v 0.000881423883 -0.346295744 6.80317593
v -0.904552042 0.223617092 6.80317593
v 1.02769923 0.22361739 11.5069838
v 1.38731456 0.223617435 12.5391598
v 1.42149782 0.223617449 10.1959505
v 0.945893586 0.223617375 9.14446068
v 1.35710466 0.223617435 16.2482071
v 0.956372499 0.223617375 14.9944458
v 0.899973512 0.223617375 13.5331812
v 0.906314611 0.223617375 6.80317593
v -0.898948967 -0.0451532416 7.05563164
v -0.53955543 -0.151630327 7.76677275
v -0.477274239 -0.599313557 7.23598385
v -0.775075138 -0.700143397 6.14283848
v -1.25268173 -0.100355662 6.30814886
v -0.861003757 -0.699408829 5.50719213
v -1.26327324 -0.292821556 5.43851805
v -0.611354232 -0.866832316 5.2604084
v -0.828594029 -0.719664693 5.04544353
v -0.401151717 -0.92013222 4.55434704
v -1.16207862 -0.249711305 4.69582129
v -0.668520749 -0.515022814 3.88093495
v -0.337282181 -0.6200369 3.74265742
v 0.00088167534 -1.00725329 4.41718245
v 0.000881688553 -0.975204885 4.13285875
v -1.00735557 -0.240582064 3.82315063
v -1.22217023 -0.0860383138 3.77895379
v -1.44103217 -0.088363044 4.55352545
v -0.573735595 -0.180677965 3.1292491
v -0.588792086 -0.198332891 3.54891467
v -0.510953963 -0.944835007 5.32717133
v -0.596272647 -0.633920193 5.29850864
v -0.486242175 -0.740277231 5.38443613
v 0.000881662301 -0.938038468 4.4580698
v -0.379326135 -0.854374647 4.58555651
v -0.787901223 -0.550722837 5.50355768
v -1.12932289 0.223617077 2.67492557
v -1.50126219 0.223617017 3.66467404
v 0.000881679123 -0.643969238 3.49479008
v 0.339045465 -0.620036781 3.74265742
v 0.40291512 -0.920132041 4.55434704
v 0.670284033 -0.515022635 3.88093495
v 1.16384172 -0.249710962 4.69582129
v 0.830357313 -0.719664454 5.04544353
v 1.0091188 -0.240581751 3.82315063
v 1.22393334 -0.0860379487 3.77895379
v 1.4427954 -0.0883626044 4.55352545
v 0.575498819 -0.180677772 3.1292491
v 0.59055531 -0.198332712 3.54891467
v 0.613117576 -0.866832197 5.2604084
v 0.512717187 -0.944834888 5.32717133
v 0.598035872 -0.633920014 5.29850864
v 0.48800537 -0.740277112 5.38443613
v 0.789664388 -0.550722539 5.50355768
v 1.26503623 -0.292821169 5.43851805
v 0.862766862 -0.69940865 5.50719213
v 1.2544446 -0.100355282 6.30814886
v 0.776838124 -0.700143158 6.14283848
v 0.900711715 -0.0451529697 7.05563164
v 0.479037166 -0.599313438 7.23598289
v 1.0071677 0.223617375 7.20218801
v 0.54131794 -0.151630655 7.76677227
v 0.000881474465 -0.893300235 7.30678082
v 0.000881238258 -0.23301515 9.45276546
v 0.419706881 -0.109876163 8.83625603
v 0.402301461 -0.966695547 6.10176086
v 0.401709706 -0.757945597 6.04145241
v 0.702661932 -0.583292425 6.05446959
v 0.000881602464 -1.15271592 5.90953922
v 0.000881577958 -0.964017987 5.84661484
v 0.862766862 -0.69940865 5.50719213
v 0.741047561 -0.580894649 5.75331879
v 0.000881577958 -0.964017987 5.84661484
v 0.067401439 -0.952954948 5.66889811
v -0.417944312 -0.109876297 8.83625603
v -0.400538296 -0.966695666 6.10176086
v -0.39994669 -0.757945776 6.04145241
v -0.700898886 -0.583292603 6.05446959
v 0.000881577958 -0.964017987 5.84661484
v -0.861003757 -0.699408829 5.50719213
v -0.739284575 -0.580894828 5.75331879
v 0.000881577958 -0.964017987 5.84661484
v -0.0656382665 -0.952954948 5.66889811
v 0.0534896739 -1.07577705 5.1131444
v 0.123609073 -0.804128945 5.60405445
v 0.169798464 -0.892912865 5.09982157
v 0.741047561 -0.580894649 5.75331879
v 0.710846305 -0.506027579 5.68707037
v 0.333050489 -0.840566158 4.97154665
v 0.162208304 -0.998527408 4.98705435
v 0.146821588 -0.970844924 4.84596539
v 0.230548218 -0.873917699 4.7498436
v 0.000881640008 -0.940001667 4.81342173
v -0.145058289 -0.970844984 4.84596539
v -0.228784963 -0.873917758 4.7498436
v -0.189714432 -0.959650338 4.66119862
v 0.000881659507 -1.03267968 4.72618389
v 0.000881674467 -1.03050208 4.48575783
v -0.222334132 -0.976381719 4.56596565
v -0.331287235 -0.840566218 4.97154665
v -0.160445035 -0.998527527 4.98705435
v -0.168035239 -0.892912984 5.09982157
v -0.379326135 -0.854374647 4.58555651
v -0.121845938 -0.804128945 5.60405445
v -0.709083378 -0.506027758 5.68707037
v -0.051726386 -1.07577705 5.1131444
v -0.739284575 -0.580894828 5.75331879
v 0.191477731 -0.959650218 4.66119862
v 0.381089479 -0.854374528 4.58555651
v 0.22409752 -0.97638166 4.56596565
v -0.168035239 -0.892912984 5.09982157
v 0.169798464 -0.892912865 5.09982157
v -0.787901223 -0.550722837 5.50355768
v -0.739284575 -0.580894828 5.75331879
v -0.739284575 -0.580894828 5.75331879
v -0.596272647 -0.633920193 5.29850864
v -0.611354232 -0.866832316 5.2604084
v -0.787901223 -0.550722837 5.50355768
v 0.789664388 -0.550722539 5.50355768
v 0.710846305 -0.506027579 5.68707037
v 0.381089479 -0.854374528 4.58555651
v 0.512717187 -0.944834888 5.32717133
v 0.381089479 -0.854374528 4.58555651
v 0.381089479 -0.854374528 4.58555651
v 0.48800537 -0.740277112 5.38443613
v -0.510953963 -0.944835007 5.32717133
v -0.379326135 -0.854374647 4.58555651
v -0.486242175 -0.740277231 5.38443613
v -0.379326135 -0.854374647 4.58555651
v -1.77256846 -0.637046754 4.92884874
v -1.28312838 -0.770720363 5.47145414
v -1.28312838 -0.770720303 4.92884874
v -1.76070571 -0.637047052 5.47145414
v -1.64283931 -0.00132575072 6.32662773
v -1.24989045 -0.129536912 6.6677599
v -1.19564366 -0.239291802 3.72664547
v -1.42715991 0.223617017 8.17673397
v -1.19436204 0.223617047 8.78332901
v -1.24989057 0.576771021 6.6677599
v -1.64283943 0.448559761 6.32662773
v -1.28312862 1.21795452 5.47145414
v -1.76070595 1.08428097 5.47145414
v -1.77256882 1.08428073 4.92884874
v -1.28312862 1.2179544 4.92884874
v -1.19564378 0.686525941 3.72664547
v -1.19564366 -0.239291802 3.72664547
v -1.60720551 -0.103651725 3.59901118
v -1.14384913 0.223617047 2.26619625
v -1.43085277 0.223617017 2.02988029
v -1.60720563 0.550885737 3.59901118
v -1.19564378 0.686525941 3.72664547
v -1.82006907 0.0229564868 3.68507433
v -1.70419014 0.223616973 2.60852647
v -2.22930431 0.223616898 3.29179549
v -2.48588324 0.223616868 4.55015516
v -1.82006907 0.424277455 3.68507433
v -1.44103241 0.535597086 4.55352545
v -1.22217035 0.533272445 3.77895379
v -1.50126219 0.223617017 3.66467404
v -1.16207874 0.696945429 4.69582129
v -1.00735581 0.687816203 3.82315063
v -0.573735654 0.627912283 3.1292491
v -0.588792205 0.645567238 3.54891467
v -0.668520927 0.962257147 3.88093495
v -0.401152074 1.36736643 4.55434704
v -0.337282389 1.06727123 3.74265742
v 0.000881303626 1.45448768 4.41718245
v 0.000881326559 1.42243934 4.13285875
v -0.828594267 1.16689897 5.04544353
v -0.611354589 1.31406677 5.2604084
v -0.51095432 1.39206934 5.32717133
v -0.596272886 1.08115458 5.29850864
v -0.486242473 1.18751156 5.38443613
v 0.000881311425 1.38527298 4.4580698
v -0.379326463 1.30160904 4.58555651
v -0.787901461 0.997957051 5.50355768
v -1.26327348 0.74005568 5.43851805
v -0.861004114 1.14664316 5.50719213
v -1.25268185 0.547589779 6.30814886
v -0.775075436 1.14737773 6.14283848
v -0.898949027 0.492387444 7.05563164
v -0.477274477 1.04654777 7.23598385
v -0.53955555 0.598864615 7.76677275
v -1.55604625 0.552365899 5.06786871
v -2.40588975 0.223616868 5.02311945
v -1.81270027 0.510400414 5.6959281
v -0.400538653 1.41393006 6.10176086
v -0.399947017 1.20518005 6.04145241
v -0.700899124 1.03052688 6.05446959
v 0.000881186803 1.59995043 5.90953922
v 0.000881219283 1.41125238 5.84661484
v -0.861004114 1.14664316 5.50719213
v -0.739284873 1.02812922 5.75331879
v 0.000881219283 1.41125238 5.84661484
v -0.0656386167 1.40018928 5.66889811
v 0.000881137094 1.34053469 7.30678082
v 0.402301103 1.41393018 6.10176086
v 0.401709408 1.20518029 6.04145241
v 0.776837885 1.14737785 6.14283848
v 0.702661753 1.03052711 6.05446959
v 0.000881219283 1.41125238 5.84661484
v 0.862766564 1.1466434 5.50719213
v 0.741047323 1.02812946 5.75331879
v 0.000881219283 1.41125238 5.84661484
v 0.0674010813 1.40018928 5.66889811
v 0.479036927 1.04654801 7.23598289
v 0.900711656 0.492387712 7.05563164
v 1.25444448 0.547590137 6.30814886
v 0.862766564 1.1466434 5.50719213
v 1.26503611 0.740056038 5.43851805
v 0.613117218 1.31406689 5.2604084
v 0.830357015 1.1668992 5.04544353
v 0.402914762 1.36736655 4.55434704
v 1.16384149 0.696945786 4.69582129
v 0.670283794 0.962257385 3.88093495
v 0.339045256 1.06727135 3.74265742
v 1.00911868 0.687816501 3.82315063
v 1.22393334 0.533272743 3.77895379
v 1.44279528 0.535597503 4.55352545
v 0.5754987 0.627912462 3.1292491
v 0.590555131 0.645567358 3.54891467
v 0.51271683 1.39206946 5.32717133
v 0.598035634 1.0811547 5.29850864
v 0.488005042 1.18751168 5.38443613
v 0.789664149 0.997957289 5.50355768
v 1.13108623 0.22361739 2.67492437
v 1.50302517 0.223617449 3.66467524
v 1.82183218 0.424278021 3.68507457
v 2.48764586 0.223617613 4.55015659
v 2.23106742 0.223617569 3.29179597
v 1.82183218 0.0229570065 3.68507457
v 1.70595336 0.223617494 2.60852695
v 1.50302517 0.223617449 3.66467524
v 0.575498879 0.223617315 2.06879902
v 0.710846066 0.95326221 5.68707037
v 0.123608768 1.2513634 5.60405445
v 0.789664149 0.997957289 5.50355768
v 0.741047323 1.02812946 5.75331879
v 0.741047323 1.02812946 5.75331879
v 0.598035634 1.0811547 5.29850864
v 0.613117218 1.31406689 5.2604084
v 0.789664149 0.997957289 5.50355768
v 0.053489279 1.52301145 5.1131444
v 0.169798121 1.34014738 5.09982157
v 0.741047323 1.02812946 5.75331879
v 0.333050191 1.28780067 4.97154665
v 0.162207946 1.44576204 4.98705435
v 0.146821216 1.4180795 4.84596539
v 0.230547905 1.32115233 4.7498436
v 0.00088128855 1.38723612 4.81342173
v -0.145058662 1.4180795 4.84596539
v -0.228785276 1.32115221 4.7498436
v -0.189714789 1.40688479 4.66119862
v 0.00088128011 1.47991419 4.72618389
v 0.000881295709 1.47773659 4.48575783
v -0.222334489 1.42361629 4.56596565
v -0.331287533 1.28780055 4.97154665
v -0.160445407 1.44576204 4.98705435
v -0.168035582 1.34014738 5.09982157
v -0.379326463 1.30160904 4.58555651
v -0.121846244 1.2513634 5.60405445
v -0.709083557 0.953262031 5.68707037
v -0.0517267846 1.52301145 5.1131444
v -0.739284873 1.02812922 5.75331879
v 0.191477373 1.40688491 4.66119862
v 0.381089121 1.30160916 4.58555651
v 0.224097148 1.42361629 4.56596565
v -0.168035582 1.34014738 5.09982157
v 0.169798121 1.34014738 5.09982157
v 0.000881219283 1.41125238 5.84661484
v 0.381089121 1.30160916 4.58555651
v 0.51271683 1.39206946 5.32717133
v 0.381089121 1.30160916 4.58555651
v 0.488005042 1.18751168 5.38443613
v 0.381089121 1.30160916 4.58555651
v 0.789664149 0.997957289 5.50355768
v 0.710846066 0.95326221 5.68707037
v -1.81270015 -0.0631664917 5.6959281
v -1.55604613 -0.105131902 5.06786871
v -2.31603074 0.223616883 5.98825312
v -1.69784725 0.223616973 6.93072081
v -0.709083378 -0.506027758 5.68707037
v -0.787901223 -0.550722837 5.50355768
v -1.55604613 -0.105131902 5.06786871
v -1.55604625 0.552365899 5.06786871
v -2.40588975 0.223616868 5.02311945
v -1.16207862 -0.249711305 4.69582129
v -1.16207874 0.696945429 4.69582129
v -1.44103241 0.535597086 4.55352545
v -1.44103217 -0.088363044 4.55352545
v -2.48588324 0.223616868 4.55015516
v -1.77256846 -0.637046754 4.92884874
v -1.76070571 -0.537982106 5.41582632
v -1.76070571 -0.637047052 5.47145414
v -1.65549326 0.0687494501 6.29597759
v -1.64283931 -0.00132575072 6.32662773
v -1.47554576 0.223617017 7.76847267
v -1.42715991 0.223617017 8.17673397
v -1.64283943 0.448559761 6.32662773
v -1.77256858 -0.537982106 4.99407482
v -1.76070571 -0.537982106 5.41582632
v -1.56555712 -0.0165582635 3.68514037
v -1.77256846 -0.637046754 4.92884874
v -1.60720551 -0.103651725 3.59901118
v -1.44919825 0.223617017 2.2665453
v -1.43085277 0.223617017 2.02988029
v -1.60720563 0.550885737 3.59901118
v -1.56555712 0.463792264 3.68514037
v -1.77256882 1.08428073 4.92884874
v -1.76070595 1.08428097 5.47145414
v -1.65549326 0.378484517 6.29597759
v -1.76070595 0.985216022 5.41582632
v -1.77256882 1.08428073 4.92884874
v -1.77256882 0.985216022 4.99407482
v -1.76070595 0.985216022 5.41582632
v -1.47554576 0.223617017 7.76847267
v -1.28312838 -0.770720363 5.47145414
v -1.28312838 -0.537982225 5.0248127
v -1.28312838 -0.770720303 4.92884874
v -1.19873655 -0.152198449 3.83714581
v -1.28312838 -0.770720363 5.47145414
v -1.28312838 -0.537982047 5.44656372
v -1.25357449 0.0196551997 6.53049183
v -1.24989045 -0.129536912 6.6677599
v -1.20196712 0.223617047 8.40129662
v -1.19873655 -0.152198449 3.83714581
v -1.19564366 -0.239291802 3.72664547
v -1.15289474 0.223617047 2.5329442
v -1.14384913 0.223617047 2.26619625
v -1.19564378 0.686525941 3.72664547
v -1.19873667 0.599432588 3.83714581
v -1.28312862 1.2179544 4.92884874
v -1.19436204 0.223617047 8.78332901
v -1.20196712 0.223617047 8.40129662
v -1.24989057 0.576771021 6.6677599
v -1.25357461 0.427578926 6.53049183
v -1.28312862 1.21795452 5.47145414
v -1.28312862 0.985216141 5.44656372
v -1.28312862 0.98521626 5.0248127
v -1.28312862 1.21795452 5.47145414
v -1.19873667 0.599432588 3.83714581
v 0.000881474465 -0.893300235 7.30678082
v -1.00540495 0.223617092 7.20218801
v -1.19873655 -0.152198449 3.83714581
v -1.77256858 -0.537982106 4.99407482
v -1.56555712 -0.0165582635 3.68514037
v -1.15289474 0.223617047 2.5329442
v -1.44919825 0.223617017 2.2665453
v -1.56555712 0.463792264 3.68514037
v -1.19873667 0.599432588 3.83714581
v -1.77256882 0.985216022 4.99407482
v -1.28312838 -0.537982225 5.0248127
v -1.77256858 -0.537982106 4.99407482
v -1.76070571 -0.537982106 5.41582632
v -1.28312838 -0.537982047 5.44656372
v -1.65549326 0.0687494501 6.29597759
v -1.28312838 -0.537982047 5.44656372
v -1.25357449 0.0196551997 6.53049183
v -1.47554576 0.223617017 7.76847267
v -1.20196712 0.223617047 8.40129662
v -1.25357461 0.427578926 6.53049183
v -1.65549326 0.378484517 6.29597759
v -1.28312862 0.985216141 5.44656372
v -1.77256882 0.985216022 4.99407482
v -1.28312862 0.98521626 5.0248127
v -1.76070595 0.985216022 5.41582632
v -1.28312862 0.985216141 5.44656372
v 1.77433193 -0.637046218 4.92884922
v 1.28489149 -0.770719945 5.47145414
v 1.76246881 -0.637046516 5.47145414
v 1.28489149 -0.770719886 4.92884874
v 1.64460218 -0.00132525421 6.32662773
v 1.25165331 -0.129536524 6.6677599
v 1.19740689 -0.239291459 3.72664547
v 1.42892241 0.223617449 8.17673397
v 1.19612432 0.22361742 8.78332806
v 1.25165308 0.576771379 6.6677599
v 1.64460206 0.448560238 6.32662773
v 1.28489113 1.21795487 5.47145414
v 1.76246858 1.08428156 5.47145414
v 1.77433157 1.08428121 4.92884922
v 1.28489113 1.21795475 4.92884874
v 1.19740677 0.686526299 3.72664547
v 1.60896862 -0.103651248 3.59901142
v 1.19740689 -0.239291459 3.72664547
v 1.1456126 0.22361742 2.26619506
v 1.43261611 0.223617449 2.02988052
v 1.6089685 0.550886214 3.59901142
v 1.19740677 0.686526299 3.72664547
v 2.40765262 0.223617613 5.02311993
v 1.81446302 -0.0631659254 5.6959281
v 1.557809 -0.105131425 5.06786871
v 2.31779361 0.223617584 5.98825312
v 1.69960999 0.223617494 6.93072081
v 1.81446302 0.510401011 5.6959281
v 1.557809 0.552366376 5.06786871
v 0.598035872 -0.633920014 5.29850864
v 0.789664388 -0.550722539 5.50355768
v 0.613117576 -0.866832197 5.2604084
v 0.789664388 -0.550722539 5.50355768
v 0.741047561 -0.580894649 5.75331879
v 0.741047561 -0.580894649 5.75331879
v 1.557809 -0.105131425 5.06786871
v 2.40765262 0.223617613 5.02311993
v 1.557809 0.552366376 5.06786871
v 1.16384172 -0.249710962 4.69582129
v 1.16384149 0.696945786 4.69582129
v 1.44279528 0.535597503 4.55352545
v 1.4427954 -0.0883626044 4.55352545
v 2.48764586 0.223617613 4.55015659
v 1.77433193 -0.637046218 4.92884922
v 1.76246881 -0.53798157 5.41582632
v 1.77433193 -0.53798157 4.99407482
v 1.56732011 -0.0165577717 3.68514061
v 1.76246881 -0.637046516 5.47145414
v 1.76246881 -0.53798157 5.41582632
v 1.65725601 0.0687499195 6.29597759
v 1.64460218 -0.00132525421 6.32662773
v 1.47730827 0.223617449 7.76847267
v 1.42892241 0.223617449 8.17673397
v 1.77433193 -0.637046218 4.92884922
v 1.60896862 -0.103651248 3.59901142
v 1.45096147 0.223617449 2.26654673
v 1.43261611 0.223617449 2.02988052
v 1.28489149 -0.770719945 5.47145414
v 1.28489149 -0.537981808 5.0248127
v 1.28489149 -0.537981629 5.44656372
v 1.25533736 0.0196555797 6.53049183
v 1.25165331 -0.129536524 6.6677599
v 1.20372951 0.22361742 8.40129662
v 1.28489149 -0.770719945 5.47145414
v 1.28489149 -0.770719886 4.92884874
v 1.20049989 -0.152198091 3.83714581
v 1.19740689 -0.239291459 3.72664547
v 1.20049989 -0.152198091 3.83714581
v 1.15465808 0.22361742 2.53294325
v 1.1456126 0.22361742 2.26619506
v 1.19740677 0.686526299 3.72664547
v 1.20049977 0.599432945 3.83714581
v 1.28489113 1.21795475 4.92884874
v 1.20372951 0.22361742 8.40129662
v 1.19612432 0.22361742 8.78332806
v 1.25165308 0.576771379 6.6677599
v 1.25533724 0.427579284 6.53049183
v 1.28489113 1.21795487 5.47145414
v 1.28489113 0.985216498 5.44656372
v 1.28489113 0.985216677 5.0248127
v 1.28489113 1.21795487 5.47145414
v 1.20049977 0.599432945 3.83714581
v 1.26503611 0.740056038 5.43851805
v 1.2544446 -0.100355282 6.30814886
v 1.25444448 0.547590137 6.30814886
v 1.26503623 -0.292821169 5.43851805
v 1.81446302 -0.0631659254 5.6959281
v 1.81446302 0.510401011 5.6959281
v 1.69960999 0.223617494 6.93072081
v 1.0071677 0.223617375 7.20218801
v 1.20049989 -0.152198091 3.83714581
v 1.77433193 -0.53798157 4.99407482
v 1.28489149 -0.537981808 5.0248127
v 1.76246881 -0.53798157 5.41582632
v 1.28489149 -0.537981629 5.44656372
v 1.65725601 0.0687499195 6.29597759
v 1.56732011 -0.0165577717 3.68514061
v 1.77433193 -0.53798157 4.99407482
v 1.15465808 0.22361742 2.53294325
v 1.45096147 0.223617449 2.26654673
v 1.56731987 0.463792741 3.68514061
v 1.20049977 0.599432945 3.83714581
v 1.77433157 0.985216558 4.99407482
v 1.28489113 0.985216677 5.0248127
v 1.76246858 0.985216558 5.41582632
v 1.28489113 0.985216498 5.44656372
v 1.65725577 0.378485054 6.29597759
v 1.28489149 -0.537981629 5.44656372
v 1.25533736 0.0196555797 6.53049183
v 1.47730827 0.223617449 7.76847267
v 1.20372951 0.22361742 8.40129662
v 1.25533724 0.427579284 6.53049183
v 1.28489113 0.985216498 5.44656372
v 0.000881577958 -0.964017987 5.84661484
v -0.573735595 0.223617151 2.06879878
v -0.662001789 0.223617136 -3.22009158
v 0.000881497515 0.732482135 3.08107162
v -0.52676332 0.223617151 3.08107162
v 0.000881901942 0.872917473 -3.61355948
v 0.000881833956 1.32270825 -3.61220217
v -1.11225021 0.223617077 -2.95528674
v 0.663765788 0.223617345 -3.22009158
v 0.528526425 0.223617315 3.08107162
v 1.11401439 0.22361739 -2.95528316
v 0.000882092572 0.223617226 -5.06961679
v 0.000881833956 1.32270825 -3.61220217
v -1.11225021 0.223617077 -2.95528674
v 1.11401439 0.22361739 -2.95528316
v 0.000881833956 1.32270825 -3.61220217
v 0.000882092572 0.223617226 -5.06961679
v 0.00088091311 0.613361835 12.5569334
v -1.38555229 0.223617032 12.5391588
v -1.02593696 0.223617077 11.5069818
v -0.898211718 0.223617092 13.5331812
v 0.000881091983 0.6445719 9.66876793
v -1.41973555 0.223617017 10.1959505
v -0.944131315 0.223617092 9.14446068
v -0.954610884 0.223617092 14.9944458
v 0.000880702399 0.518299162 16.0972214
v -1.35534298 0.223617032 16.2482071
v -0.590363383 0.223617151 21.4513187
v 0.000880269625 0.223617226 23.6058598
v 0.592124224 0.223617315 21.4513187
v 0.000881251763 0.793530166 6.80317593
v -0.904552042 0.223617092 6.80317593
v 1.02769923 0.22361739 11.5069838
v 1.38731456 0.223617435 12.5391598
v 1.42149782 0.223617449 10.1959505
v 0.945893586 0.223617375 9.14446068
v 1.35710466 0.223617435 16.2482071
v 0.956372499 0.223617375 14.9944458
v 0.899973512 0.223617375 13.5331812
v 0.906314611 0.223617375 6.80317593
v -0.51095432 1.39206934 5.32717133
v -0.379326463 1.30160904 4.58555651
v -0.486242473 1.18751156 5.38443613
v -0.379326463 1.30160904 4.58555651
v -0.596272886 1.08115458 5.29850864
v -0.787901461 0.997957051 5.50355768
v -0.611354589 1.31406677 5.2604084
v -0.787901461 0.997957051 5.50355768
v -0.739284873 1.02812922 5.75331879
v -0.739284873 1.02812922 5.75331879
v -0.709083557 0.953262031 5.68707037
v -0.787901461 0.997957051 5.50355768
v -1.82006907 0.424277455 3.68507433
v -1.70419014 0.223616973 2.60852647
v -1.82006907 0.0229564868 3.68507433
v -1.50126219 0.223617017 3.66467404
v 0.000881417072 1.09120369 3.49479008
v -1.26327324 -0.292821556 5.43851805
v -1.25268185 0.547589779 6.30814886
v -1.25268173 -0.100355662 6.30814886
v -1.26327348 0.74005568 5.43851805
v -1.81270027 0.510400414 5.6959281
v -1.81270015 -0.0631664917 5.6959281
v -1.69784725 0.223616973 6.93072081
v -1.00540495 0.223617092 7.20218801
v 0.54131788 0.59886533 7.76677227
v 0.000881100364 0.680249631 9.45276546
v 0.419706762 0.557110786 8.83625603
v -0.417944431 0.557110727 8.83625603
v 1.0071677 0.223617375 7.20218801
v 0.000881137094 1.34053469 7.30678082
v 1.82183218 0.424278021 3.68507457
v 1.82183218 0.0229570065 3.68507457
v 1.70595336 0.223617494 2.60852695
v 1.50302517 0.223617449 3.66467524
v 1.77433157 1.08428121 4.92884922
v 1.76246858 0.985216558 5.41582632
v 1.76246858 1.08428156 5.47145414
v 1.77433157 0.985216558 4.99407482
v 1.65725577 0.378485054 6.29597759
v 1.64460206 0.448560238 6.32662773
v 1.56731987 0.463792741 3.68514061
v 1.6089685 0.550886214 3.59901142
v 1.47730827 0.223617449 7.76847267
v 1.42892241 0.223617449 8.17673397
v 1.45096147 0.223617449 2.26654673
v 1.43261611 0.223617449 2.02988052
v -1.00540495 0.223617092 7.20218801
vt 0.213232368 0.501877964
vt 0.256217182 0.804263294
vt 0.256217182 0.48184976
vt 0.22200191 0.804263294
vt 0.256217182 0.463563353
vt 0.184035823 0.497001708
vt 0.299202144 0.501877964
vt 0.290432513 0.804263294
vt 0.328398645 0.497001737
vt 0.256217182 0.804263294
vt 0.22200191 0.804263294
vt 0.256217182 0.804263294
vt 0.290432513 0.804263294
vt 0.256217182 0.804263294
vt 0.256217182 0.389378339
vt 0.184035823 0.497001708
vt 0.256217182 0.463563353
vt 0.328398645 0.497001737
vt 0.256217182 0.389378339
vt 0.256217182 0.463563353
vt 0.100845709 0.415987581
vt 0.0342613794 0.362543017
vt 0.0109419934 0.415082783
vt 0.0425437726 0.465680271
vt 0.100845709 0.268974572
vt 0.00872536749 0.295809031
vt 0.039566081 0.242286369
vt 0.0388865657 0.540061235
vt 0.100845709 0.596194565
vt 0.0129009485 0.603880048
vt 0.062506333 0.868727863
vt 0.100845709 0.978398085
vt 0.139185131 0.868727863
vt 0.100845739 0.123110637
vt 0.0421326123 0.123110637
vt 0.167430073 0.362543046
vt 0.190749452 0.415082783
vt 0.192966104 0.295809031
vt 0.162125394 0.242286369
vt 0.188790485 0.603880048
vt 0.162804902 0.540061235
vt 0.15914765 0.465680271
vt 0.159558848 0.123110637
vt 0.273754239 0.272048324
vt 0.297059238 0.308246702
vt 0.30109787 0.281228751
vt 0.281786859 0.225585669
vt 0.250816286 0.234000176
vt 0.276214778 0.193229884
vt 0.250129551 0.189734429
vt 0.2924034 0.180668205
vt 0.278316379 0.169726133
vt 0.306034088 0.144728601
vt 0.256691515 0.151929736
vt 0.288696408 0.110450506
vt 0.310175657 0.103411973
vt 0.332104027 0.137746453
vt 0.332104027 0.123274028
vt 0.266724586 0.107509136
vt 0.252794772 0.105259597
vt 0.238602683 0.144686639
vt 0.29484278 0.062969923
vt 0.293866456 0.0843317509
vt 0.298913896 0.184066623
vt 0.293381333 0.182607621
vt 0.300516367 0.186981648
vt 0.332104027 0.139827788
vt 0.307449341 0.146317065
vt 0.280955195 0.19304511
vt 0.258815527 0.0398438573
vt 0.234697089 0.0994424224
vt 0.332104027 0.0957978368
vt 0.354032338 0.103411973
vt 0.358173966 0.144728601
vt 0.375511646 0.110450506
vt 0.407516539 0.151929736
vt 0.385891616 0.169726133
vt 0.397483468 0.107509136
vt 0.411413193 0.105259597
vt 0.425605416 0.144686639
vt 0.369365335 0.062969923
vt 0.370341599 0.0843317509
vt 0.371804655 0.180668205
vt 0.365294158 0.184066623
vt 0.370826721 0.182607621
vt 0.363691688 0.186981648
vt 0.383252919 0.19304511
vt 0.414078534 0.189734429
vt 0.387993217 0.193229884
vt 0.413391709 0.234000176
vt 0.382421196 0.225585669
vt 0.390453815 0.272048324
vt 0.363110185 0.281228751
vt 0.397356987 0.279508322
vt 0.367148817 0.308246702
vt 0.332104027 0.284832448
vt 0.332103968 0.394067019
vt 0.359262943 0.362685412
vt 0.35813421 0.223494619
vt 0.358095884 0.220424861
vt 0.37761122 0.221087426
vt 0.332104027 0.21371004
vt 0.332104027 0.210507363
vt 0.387993217 0.193229884
vt 0.380100369 0.205758423
vt 0.332104027 0.210507363
vt 0.336417556 0.201461166
vt 0.304945171 0.362685412
vt 0.306073844 0.223494619
vt 0.30611223 0.220424861
vt 0.286596835 0.221087426
vt 0.332104027 0.210507363
vt 0.276214778 0.193229884
vt 0.284107685 0.205758423
vt 0.332104027 0.210507363
vt 0.327790499 0.201461166
vt 0.33551544 0.175531
vt 0.34006232 0.198160619
vt 0.343057454 0.172494262
vt 0.380100369 0.205758423
vt 0.37814194 0.20238623
vt 0.353643596 0.165964603
vt 0.342565238 0.166754067
vt 0.341567516 0.159572363
vt 0.346996903 0.154679596
vt 0.332104027 0.157915652
vt 0.322640538 0.159572363
vt 0.31721127 0.154679596
vt 0.319744766 0.150167406
vt 0.332104027 0.153475106
vt 0.332104027 0.14123708
vt 0.317629576 0.145319879
vt 0.310564458 0.165964603
vt 0.321642816 0.166754067
vt 0.321150601 0.172494262
vt 0.307449341 0.146317065
vt 0.324145734 0.198160619
vt 0.286066115 0.20238623
vt 0.328692615 0.175531
vt 0.284107685 0.205758423
vt 0.344463229 0.150167406
vt 0.356758773 0.146317065
vt 0.346578479 0.145319879
vt 0.321150601 0.172494262
vt 0.343057454 0.172494262
vt 0.280955195 0.19304511
vt 0.284107685 0.205758423
vt 0.284107685 0.205758423
vt 0.293381333 0.182607621
vt 0.2924034 0.180668205
vt 0.280955195 0.19304511
vt 0.383252919 0.19304511
vt 0.37814194 0.20238623
vt 0.356758773 0.146317065
vt 0.365294158 0.184066623
vt 0.356758773 0.146317065
vt 0.356758773 0.146317065
vt 0.363691688 0.186981648
vt 0.298913896 0.184066623
vt 0.307449341 0.146317065
vt 0.300516367 0.186981648
vt 0.307449341 0.146317065
vt 0.38075915 0.738344669
vt 0.426363498 0.770886242
vt 0.426363498 0.738344669
vt 0.38075915 0.770886242
vt 0.38075915 0.838637948
vt 0.426363498 0.838637948
vt 0.426363498 0.65350008
vt 0.38075915 0.961956739
vt 0.426363498 0.961956739
vt 0.426363498 0.838637948
vt 0.38075915 0.838637948
vt 0.426363498 0.770886242
vt 0.38075915 0.770886242
vt 0.38075915 0.738344669
vt 0.426363498 0.738344669
vt 0.426363498 0.65350008
vt 0.426363498 0.65350008
vt 0.38075915 0.65350008
vt 0.426363498 0.556444407
vt 0.38075915 0.556444407
vt 0.38075915 0.65350008
vt 0.426363498 0.65350008
vt 0.214023963 0.100480855
vt 0.221538171 0.0456825495
vt 0.187486991 0.0804623365
vt 0.17084901 0.144514948
vt 0.214023963 0.100480855
vt 0.238602683 0.144686639
vt 0.252794772 0.105259597
vt 0.234697089 0.0994424224
vt 0.256691515 0.151929736
vt 0.266724586 0.107509136
vt 0.29484278 0.062969923
vt 0.293866456 0.0843317509
vt 0.288696408 0.110450506
vt 0.306034088 0.144728601
vt 0.310175657 0.103411973
vt 0.332103968 0.137746453
vt 0.332103968 0.123274028
vt 0.278316379 0.169726133
vt 0.2924034 0.180668205
vt 0.298913896 0.184066623
vt 0.293381333 0.182607621
vt 0.300516307 0.186981648
vt 0.332103968 0.139827788
vt 0.307449341 0.146317065
vt 0.280955195 0.19304511
vt 0.250129551 0.189734429
vt 0.276214778 0.193229884
vt 0.250816286 0.234000176
vt 0.281786799 0.225585669
vt 0.273754239 0.272048324
vt 0.30109787 0.281228751
vt 0.297059238 0.308246702
vt 0.231144562 0.170867682
vt 0.176036209 0.168589771
vt 0.214501753 0.20283708
vt 0.306073844 0.223494619
vt 0.30611217 0.220424861
vt 0.286596835 0.221087426
vt 0.332103968 0.21371004
vt 0.332103968 0.210507363
vt 0.276214778 0.193229884
vt 0.284107685 0.205758423
vt 0.332103968 0.210507363
vt 0.327790499 0.201461166
vt 0.332103968 0.284832448
vt 0.35813421 0.223494619
vt 0.358095884 0.220424861
vt 0.382421196 0.225585669
vt 0.37761122 0.221087426
vt 0.332103968 0.210507363
vt 0.387993217 0.193229884
vt 0.380100369 0.205758423
vt 0.332103968 0.210507363
vt 0.336417556 0.201461166
vt 0.363110185 0.281228751
vt 0.390453815 0.272048324
vt 0.413391709 0.234000176
vt 0.387993217 0.193229884
vt 0.414078534 0.189734429
vt 0.371804655 0.180668205
vt 0.385891616 0.169726133
vt 0.358173966 0.144728601
vt 0.407516539 0.151929736
vt 0.375511646 0.110450506
vt 0.354032338 0.103411973
vt 0.397483468 0.107509136
vt 0.411413193 0.105259597
vt 0.425605416 0.144686639
vt 0.369365335 0.062969923
vt 0.370341599 0.0843317509
vt 0.365294158 0.184066623
vt 0.370826721 0.182607621
vt 0.363691688 0.186981648
vt 0.383252919 0.19304511
vt 0.405392468 0.0398438573
vt 0.429511011 0.0994425416
vt 0.450184107 0.100480855
vt 0.493358999 0.144515008
vt 0.476721108 0.0804623365
vt 0.450184107 0.100480855
vt 0.442669928 0.0456825495
vt 0.429511011 0.0994425416
vt 0.369365335 0.00899112038
vt 0.37814194 0.20238623
vt 0.34006232 0.198160619
vt 0.383252919 0.19304511
vt 0.380100369 0.205758423
vt 0.380100369 0.205758423
vt 0.370826721 0.182607621
vt 0.371804655 0.180668205
vt 0.383252919 0.19304511
vt 0.33551544 0.175531
vt 0.343057454 0.172494262
vt 0.380100369 0.205758423
vt 0.353643596 0.165964603
vt 0.342565238 0.166754067
vt 0.341567516 0.159572363
vt 0.346996903 0.154679596
vt 0.332103968 0.157915652
vt 0.322640538 0.159572363
vt 0.31721127 0.154679596
vt 0.319744766 0.150167406
vt 0.332103968 0.153475106
vt 0.332103968 0.14123708
vt 0.317629516 0.145319879
vt 0.310564458 0.165964603
vt 0.321642816 0.166754067
vt 0.321150541 0.172494262
vt 0.307449341 0.146317065
vt 0.324145734 0.198160619
vt 0.286066115 0.20238623
vt 0.328692615 0.175531
vt 0.284107685 0.205758423
vt 0.344463229 0.150167406
vt 0.356758654 0.146317065
vt 0.346578479 0.145319879
vt 0.321150541 0.172494262
vt 0.343057454 0.172494262
vt 0.332103968 0.210507363
vt 0.356758654 0.146317065
vt 0.365294158 0.184066623
vt 0.356758654 0.146317065
vt 0.363691688 0.186981648
vt 0.356758654 0.146317065
vt 0.383252919 0.19304511
vt 0.37814194 0.20238623
vt 0.214501753 0.20283708
vt 0.231144562 0.170867682
vt 0.181863174 0.217716902
vt 0.221949533 0.265690297
vt 0.286066115 0.20238623
vt 0.280955195 0.19304511
vt 0.231144562 0.170867682
vt 0.231144562 0.170867682
vt 0.176036209 0.168589771
vt 0.256691515 0.151929736
vt 0.256691515 0.151929736
vt 0.238602683 0.144686639
vt 0.238602683 0.144686639
vt 0.17084901 0.144514948
vt 0.434951514 0.752046347
vt 0.447849482 0.785676062
vt 0.434951514 0.785676062
vt 0.447849482 0.846191406
vt 0.434951514 0.846191406
vt 0.447849482 0.9620592
vt 0.434951514 0.9620592
vt 0.434938639 0.846191406
vt 0.447849482 0.752046347
vt 0.447849482 0.785676062
vt 0.447849482 0.660025299
vt 0.434951514 0.752046347
vt 0.434951514 0.660025299
vt 0.447849482 0.555835366
vt 0.434951514 0.555835366
vt 0.434938639 0.660025299
vt 0.447836369 0.660025299
vt 0.434938639 0.752046347
vt 0.434938639 0.785676062
vt 0.447836369 0.846191406
vt 0.447836369 0.785676062
vt 0.434938639 0.752046347
vt 0.447836369 0.752046347
vt 0.447836369 0.785676062
vt 0.447836369 0.9620592
vt 0.468613118 0.756522596
vt 0.454050034 0.724907577
vt 0.468613118 0.724907577
vt 0.454050034 0.646559179
vt 0.468613118 0.756522596
vt 0.454050034 0.756522596
vt 0.454050034 0.831276655
vt 0.468613118 0.831276655
vt 0.454050034 0.961964011
vt 0.454050034 0.646559179
vt 0.468613118 0.646559179
vt 0.454050034 0.555924058
vt 0.468613118 0.555924058
vt 0.468782514 0.646559179
vt 0.454219192 0.646559179
vt 0.468782514 0.724907577
vt 0.468613118 0.961964011
vt 0.454050034 0.961964011
vt 0.468782514 0.831276655
vt 0.454219192 0.831276655
vt 0.468782514 0.756522596
vt 0.454219192 0.756522596
vt 0.454219192 0.724907577
vt 0.468782514 0.756522596
vt 0.454219192 0.646559179
vt 0.332104027 0.284832448
vt 0.266851008 0.279508322
vt 0.372686237 0.65350008
vt 0.327081889 0.738344669
vt 0.327081889 0.65350008
vt 0.372686237 0.556444407
vt 0.327081889 0.556444407
vt 0.327081889 0.65350008
vt 0.372686237 0.65350008
vt 0.327081889 0.738344669
vt 0.372686237 0.738344669
vt 0.327081889 0.738344669
vt 0.327081889 0.770886242
vt 0.372686237 0.770886242
vt 0.327081889 0.838637948
vt 0.372686237 0.770886242
vt 0.372686237 0.838637948
vt 0.327081889 0.961956739
vt 0.372686237 0.961956739
vt 0.372686237 0.838637948
vt 0.327081889 0.838637948
vt 0.372686237 0.770886242
vt 0.327081889 0.738344669
vt 0.372686237 0.738344669
vt 0.327081889 0.770886242
vt 0.372686237 0.770886242
vt 0.38075915 0.738344669
vt 0.426363498 0.770886242
vt 0.38075915 0.770886242
vt 0.426363498 0.738344669
vt 0.38075915 0.838637948
vt 0.426363498 0.838637948
vt 0.426363498 0.65350008
vt 0.38075915 0.961956739
vt 0.426363498 0.961956739
vt 0.426363498 0.838637948
vt 0.38075915 0.838637948
vt 0.426363498 0.770886242
vt 0.38075915 0.770886242
vt 0.38075915 0.738344669
vt 0.426363498 0.738344669
vt 0.426363498 0.65350008
vt 0.38075915 0.65350008
vt 0.426363498 0.65350008
vt 0.426363498 0.556444407
vt 0.38075915 0.556444407
vt 0.38075915 0.65350008
vt 0.426363498 0.65350008
vt 0.488171875 0.16858983
vt 0.449706316 0.20283708
vt 0.433063507 0.170867682
vt 0.482344925 0.217716902
vt 0.442258656 0.265690297
vt 0.449706316 0.20283708
vt 0.433063507 0.170867682
vt 0.370826721 0.182607621
vt 0.383252919 0.19304511
vt 0.371804655 0.180668205
vt 0.383252919 0.19304511
vt 0.380100369 0.205758423
vt 0.380100369 0.205758423
vt 0.433063507 0.170867682
vt 0.488171875 0.16858983
vt 0.433063507 0.170867682
vt 0.407516539 0.151929736
vt 0.407516539 0.151929736
vt 0.425605416 0.144686639
vt 0.425605416 0.144686639
vt 0.493358999 0.144515008
vt 0.434951514 0.752046227
vt 0.447849482 0.785675943
vt 0.447849482 0.752046227
vt 0.447849482 0.660025299
vt 0.434951514 0.785675943
vt 0.447849482 0.785675943
vt 0.447849482 0.846191347
vt 0.434951514 0.846191347
vt 0.447849482 0.9620592
vt 0.434951514 0.9620592
vt 0.434951514 0.752046227
vt 0.434951514 0.660025299
vt 0.447849482 0.555835366
vt 0.434951514 0.555835366
vt 0.468613118 0.756522596
vt 0.454050034 0.724907577
vt 0.454050034 0.756522596
vt 0.454050034 0.831276655
vt 0.468613118 0.831276655
vt 0.454050034 0.961964011
vt 0.468613118 0.756522596
vt 0.468613118 0.724907577
vt 0.454050034 0.646559179
vt 0.468613118 0.646559179
vt 0.454050034 0.646559179
vt 0.454050034 0.555923998
vt 0.468613118 0.555923998
vt 0.468782514 0.646559179
vt 0.454219192 0.646559179
vt 0.468782514 0.724907577
vt 0.454050034 0.961964011
vt 0.468613118 0.961964011
vt 0.468782514 0.831276655
vt 0.454219192 0.831276655
vt 0.468782514 0.756522596
vt 0.454219192 0.756522596
vt 0.454219192 0.724907577
vt 0.468782514 0.756522596
vt 0.454219192 0.646559179
vt 0.414078534 0.189734429
vt 0.413391709 0.234000176
vt 0.413391709 0.234000176
vt 0.414078534 0.189734429
vt 0.449706316 0.20283708
vt 0.449706316 0.20283708
vt 0.442258656 0.265690297
vt 0.397356987 0.279508322
vt 0.372686237 0.65350008
vt 0.327081889 0.738344669
vt 0.372686237 0.738344669
vt 0.327081889 0.770886242
vt 0.372686237 0.770886242
vt 0.327081889 0.838637948
vt 0.327081889 0.65350008
vt 0.327081889 0.738344669
vt 0.372686237 0.556444407
vt 0.327081889 0.556444407
vt 0.327081889 0.65350008
vt 0.372686237 0.65350008
vt 0.327081889 0.738344669
vt 0.372686237 0.738344669
vt 0.327081889 0.770886242
vt 0.372686237 0.770886242
vt 0.327081889 0.838637948
vt 0.372686237 0.770886242
vt 0.372686237 0.838637948
vt 0.327081889 0.961956739
vt 0.372686237 0.961956739
vt 0.372686237 0.838637948
vt 0.372686237 0.770886242
vt 0.332104027 0.210507363
vt 0.29484278 0.00899112038
vt 0.213232368 0.501877964
vt 0.256217182 0.804263294
vt 0.22200191 0.804263294
vt 0.256217182 0.48184976
vt 0.256217182 0.463563353
vt 0.184035823 0.497001708
vt 0.299202144 0.501877964
vt 0.290432513 0.804263294
vt 0.328398645 0.497001737
vt 0.256217182 0.389378339
vt 0.256217182 0.463563353
vt 0.184035823 0.497001708
vt 0.328398645 0.497001737
vt 0.256217182 0.463563353
vt 0.256217182 0.389378339
vt 0.100845709 0.415987581
vt 0.0109419934 0.415082783
vt 0.0342613794 0.362543017
vt 0.0425437726 0.465680271
vt 0.100845709 0.268974572
vt 0.00872536749 0.295809031
vt 0.039566081 0.242286369
vt 0.0388865657 0.540061235
vt 0.100845709 0.596194565
vt 0.0129009485 0.603880048
vt 0.062506333 0.868727863
vt 0.100845709 0.978398085
vt 0.139185131 0.868727863
vt 0.100845709 0.123110637
vt 0.0421326123 0.123110637
vt 0.167430073 0.362543046
vt 0.190749452 0.415082783
vt 0.192966104 0.295809031
vt 0.162125394 0.242286369
vt 0.188790485 0.603880048
vt 0.162804902 0.540061235
vt 0.15914765 0.465680271
vt 0.159558848 0.123110637
vt 0.298913896 0.184066623
vt 0.307449341 0.146317065
vt 0.300516307 0.186981648
vt 0.307449341 0.146317065
vt 0.293381333 0.182607621
vt 0.280955195 0.19304511
vt 0.2924034 0.180668205
vt 0.280955195 0.19304511
vt 0.284107685 0.205758423
vt 0.284107685 0.205758423
vt 0.286066115 0.20238623
vt 0.280955195 0.19304511
vt 0.214023963 0.100480855
vt 0.221538171 0.0456825495
vt 0.214023963 0.100480855
vt 0.234697089 0.0994424224
vt 0.332103968 0.0957978368
vt 0.250129551 0.189734429
vt 0.250816286 0.234000176
vt 0.250816286 0.234000176
vt 0.250129551 0.189734429
vt 0.214501753 0.20283708
vt 0.214501753 0.20283708
vt 0.221949533 0.265690297
vt 0.266851008 0.279508322
vt 0.367148817 0.308246702
vt 0.332103968 0.394067019
vt 0.359262943 0.362685412
vt 0.304945171 0.362685412
vt 0.397356987 0.279508322
vt 0.332103968 0.284832448
vt 0.450184107 0.100480855
vt 0.450184107 0.100480855
vt 0.442669928 0.0456825495
vt 0.429511011 0.0994425416
vt 0.38075915 0.738344669
vt 0.38075915 0.770886242
vt 0.38075915 0.770886242
vt 0.38075915 0.738344669
vt 0.38075915 0.838637948
vt 0.38075915 0.838637948
vt 0.38075915 0.65350008
vt 0.38075915 0.65350008
vt 0.38075915 0.961956739
vt 0.38075915 0.961956739
vt 0.38075915 0.556444407
vt 0.38075915 0.556444407
vt 0.266851008 0.279508322
vn -0.0455359109 -0.550509393 0.833586216
vn -0 -0.809378147 0.587287903
vn -1.72780994E-06 -0.38855195 0.921426833
vn -0.495568335 -0.513052106 0.700849116
vn -5.36173843E-07 -0.980632842 0.195855096
vn -0.486661375 -0.755911708 0.437901974
vn 0.0455330312 -0.550508559 0.833586872
vn 0.495568424 -0.513051987 0.700849295
vn 0.48666054 -0.755911589 0.437903136
vn -0 -0.809378147 0.587287903
vn -0.495568335 -0.513052106 0.700849116
vn -0 0 1
vn 0.495568424 -0.513051987 0.700849295
vn -0 0 1
vn 3.8916545E-07 -0.798411608 -0.602112114
vn -0.486661375 -0.755911708 0.437901974
vn -5.36173843E-07 -0.980632842 0.195855096
vn 0.48666054 -0.755911589 0.437903136
vn 3.8916545E-07 -0.798411608 -0.602112114
vn -5.36173843E-07 -0.980632842 0.195855096
vn 1.39339448E-07 -0.999669075 0.0257258974
vn -0.305982113 -0.952034354 -0.00233461033
vn -0.270753652 -0.962562919 0.0128515344
vn -0.321715355 -0.945298135 0.0539502874
vn 1.52135968E-07 -0.999831915 -0.0183331221
vn -0.326117724 -0.944975793 -0.0258421358
vn -0.417811006 -0.907063365 -0.0516731963
vn -0.308960289 -0.951003313 -0.0116691124
vn 1.51210813E-07 -0.999994278 -0.00339470804
vn -0.213656411 -0.976826608 -0.012669744
vn -0.147338301 -0.988351047 0.0381271057
vn 1.48386647E-07 -0.999230742 0.0392155349
vn 0.147338584 -0.988350987 0.038127128
vn 1.93333292E-07 -0.999700427 0.0244776141
vn -0.476679504 -0.878813803 0.0215176847
vn 0.305982411 -0.952034354 -0.00233462569
vn 0.27075392 -0.962562859 0.012851554
vn 0.326117992 -0.944975793 -0.0258421171
vn 0.417811275 -0.907063127 -0.0516731516
vn 0.213656723 -0.976826608 -0.0126697179
vn 0.308960557 -0.951003194 -0.0116690788
vn 0.321715653 -0.945298076 0.0539503358
vn 0.476679832 -0.878813624 0.0215177312
vn -0.764412105 -0.541212022 0.350376546
vn -0.694343507 -0.662616134 0.280761361
vn -0.616391063 -0.701221585 0.358260065
vn -0.53553772 -0.838997364 -0.096347332
vn -0.924733818 -0.325623214 0.197070941
vn -0.119168445 -0.955232263 0.270795554
vn -0.701290548 -0.693129838 0.166621119
vn -0.565575302 -0.734705746 0.374609113
vn -0.630085468 -0.768629372 -0.110459097
vn -0.176070303 -0.97566694 0.130664542
vn -0.748821735 -0.650722861 -0.125800505
vn -0.559303522 -0.793604314 -0.239524201
vn -0.396650493 -0.840995312 -0.3679609
vn 1.19347064E-07 -0.97357136 0.228383198
vn 1.46986324E-07 -0.938024938 -0.346567929
vn -0.442077816 -0.880798995 -0.169588372
vn -0.379557341 -0.887876093 -0.260023534
vn -0.462039948 -0.666978836 0.584515572
vn -0.273586303 -0.940063 -0.203548878
vn -0.150660604 -0.97556895 -0.159895271
vn 0.162585154 -0.799050868 0.578864157
vn -0.104191981 -0.637909412 0.763030589
vn -0.338219434 -0.816324353 0.468211621
vn 1.42916235E-07 -0.993694961 0.112116732
vn 0.358197391 -0.816210628 0.453315258
vn 0.471861452 -0.830931902 0.294786423
vn -0.816807389 -2.03762198E-07 -0.576910436
vn -0.246671706 0 -0.969099104
vn 1.6330479E-07 -0.887535572 -0.460739344
vn 0.396650791 -0.840995252 -0.3679609
vn 0.176070601 -0.975666881 0.130664453
vn 0.559303761 -0.793604076 -0.239524171
vn 0.748821914 -0.650722623 -0.125800431
vn 0.630085766 -0.768629134 -0.110458925
vn 0.442078114 -0.880798876 -0.169588283
vn 0.379557818 -0.887875915 -0.260023564
vn 0.462039769 -0.666978896 0.584515631
vn 0.273586571 -0.940062881 -0.2035487
vn 0.150660947 -0.97556895 -0.159895226
vn 0.565575242 -0.734705687 0.374609292
vn -0.162585169 -0.799051046 0.578864038
vn 0.104191758 -0.637909353 0.763030589
vn 0.338219523 -0.816324234 0.468211859
vn -0.47186169 -0.830931783 0.294786066
vn 0.701290786 -0.693129539 0.166621223
vn 0.119168431 -0.955232143 0.270795703
vn 0.924733818 -0.325622916 0.197071001
vn 0.535537958 -0.838997245 -0.0963472649
vn 0.764412105 -0.541211843 0.350376666
vn 0.61639142 -0.701221347 0.358259946
vn 0.913442373 1.11367527E-07 0.406968087
vn 0.694343567 -0.662616014 0.28076148
vn 1.45365874E-07 -0.946409345 0.322969466
vn -0 -0.969224274 0.246179134
vn 0.674637258 -0.715432346 0.181717023
vn 0.580856383 -0.740313888 -0.338439167
vn 0.503640354 -0.676922023 -0.536770821
vn -0.099244155 -0.89237076 -0.440255702
vn 1.60756727E-07 -0.829494536 -0.558514774
vn 1.94598798E-07 -0.841529787 -0.540210783
vn 0.119168431 -0.955232143 0.270795703
vn -0.386593431 -0.85531944 -0.344926327
vn 1.94598798E-07 -0.841529787 -0.540210783
vn 0.408545524 -0.912319005 -0.0276524052
vn -0.674637139 -0.715432525 0.181716904
vn -0.580856204 -0.740314126 -0.338439256
vn -0.503640056 -0.676922143 -0.53677094
vn 0.0992442071 -0.89237076 -0.440255672
vn 1.94598798E-07 -0.841529787 -0.540210783
vn -0.119168445 -0.955232263 0.270795554
vn 0.386593699 -0.855319381 -0.344926119
vn 1.94598798E-07 -0.841529787 -0.540210783
vn -0.408545136 -0.912319064 -0.027652476
vn 0.410189241 -0.74957031 -0.519508421
vn 0.640702009 -0.730033994 -0.237805218
vn 0.509785354 -0.831514597 0.220685795
vn -0.386593431 -0.85531944 -0.344926327
vn -0.0801210478 -0.925384521 -0.370464832
vn 0.441348344 -0.892540336 0.0926466733
vn 0.337279797 -0.912042737 0.233281791
vn 0.268969923 -0.871514559 -0.410021454
vn 0.432622969 -0.893779516 0.118302383
vn 1.61976956E-07 -0.987555683 -0.157269642
vn -0.268969655 -0.871514618 -0.410021484
vn -0.432622731 -0.893779635 0.118302293
vn -0.441356182 -0.822927058 0.357765108
vn -0 -0.912206769 0.409730077
vn 1.44589791E-07 -0.807187259 -0.590295494
vn -0.520899177 -0.778945744 -0.349152595
vn -0.441348255 -0.892540395 0.0926466063
vn -0.337279677 -0.912042856 0.233281791
vn -0.509785235 -0.831514776 0.22068575
vn 0.358197391 -0.816210628 0.453315258
vn -0.640701771 -0.730034173 -0.237805277
vn 0.0801214948 -0.925384521 -0.370464593
vn -0.410189033 -0.749570489 -0.519508481
vn 0.386593699 -0.855319381 -0.344926119
vn 0.441356331 -0.822926879 0.357765257
vn -0.358197272 -0.816210806 0.453315258
vn 0.520899534 -0.778945565 -0.349152535
vn -0.509785235 -0.831514776 0.22068575
vn 0.509785354 -0.831514597 0.220685795
vn 0.471861452 -0.830931902 0.294786423
vn 0.386593699 -0.855319381 -0.344926119
vn 0.386593699 -0.855319381 -0.344926119
vn -0.104191981 -0.637909412 0.763030589
vn -0.565575302 -0.734705746 0.374609113
vn 0.471861452 -0.830931902 0.294786423
vn -0.47186169 -0.830931783 0.294786066
vn -0.0801210478 -0.925384521 -0.370464832
vn -0.358197272 -0.816210806 0.453315258
vn -0.162585169 -0.799051046 0.578864038
vn -0.358197272 -0.816210806 0.453315258
vn -0.358197272 -0.816210806 0.453315258
vn 0.338219523 -0.816324234 0.468211859
vn 0.162585154 -0.799050868 0.578864157
vn 0.358197391 -0.816210628 0.453315258
vn -0.338219434 -0.816324353 0.468211621
vn 0.358197391 -0.816210628 0.453315258
vn -0.805337012 -0.572621644 -0.153416857
vn 0.509694993 -0.830640972 0.22415781
vn 0.555057704 -0.819524288 -0.142446056
vn -0.772753716 -0.594556153 0.222158924
vn -0.856532514 -0.428440154 0.28773436
vn 0.574301541 -0.787177086 0.224788368
vn 0.670859873 -0.706850886 -0.224296331
vn -0.942903638 -1.84238203E-07 0.333065838
vn 0.1036845 0 0.99461019
vn 0.574301362 0.787177324 0.224788353
vn -0.856532633 0.428439885 0.28773433
vn 0.509694576 0.830641091 0.224157721
vn -0.772753954 0.594555974 0.222158864
vn -0.805337191 0.572621465 -0.153416857
vn 0.555057526 0.819524348 -0.142446056
vn 0.670859635 0.706851125 -0.224296346
vn 0.670859873 -0.706850886 -0.224296331
vn -0.850156844 -0.456950754 -0.261590064
vn 0.323764354 0 -0.946137786
vn -0.687122583 0 -0.726541519
vn -0.850157022 0.456950545 -0.261590034
vn 0.670859635 0.706851125 -0.224296346
vn 0.00620176876 -0.920159638 -0.391494155
vn 0.28823483 0 -0.957559824
vn -0.893240094 -1.66596976E-07 -0.449579895
vn -0.863282919 -1.93553461E-07 0.50472033
vn 0.00620147819 0.920159638 -0.391494125
vn -0.462040156 0.666978717 0.584515512
vn -0.37955758 0.887875974 -0.260023475
vn -0.246671706 0 -0.969099104
vn -0.748821855 0.650722623 -0.125800535
vn -0.442078054 0.880798876 -0.169588357
vn -0.273586571 0.940062881 -0.203548819
vn -0.150660917 0.97556895 -0.159895211
vn -0.559303641 0.793604195 -0.23952423
vn -0.176070586 0.975666881 0.130664513
vn -0.396650702 0.840995252 -0.367961019
vn -1.84517788E-07 0.97357136 0.228383094
vn -1.64096008E-07 0.938024938 -0.346567929
vn -0.630085766 0.768629134 -0.110459074
vn -0.56557554 0.734705627 0.374609053
vn 0.162584931 0.799050987 0.578864157
vn -0.104192153 0.637909353 0.763030589
vn -0.338219613 0.816324294 0.46821174
vn -1.57171428E-07 0.99369508 0.112116456
vn 0.358197004 0.816210866 0.453315258
vn 0.471861243 0.830931962 0.294786364
vn -0.701290846 0.693129599 0.166621119
vn -0.119168811 0.955232143 0.270795584
vn -0.924733877 0.325622857 0.197070912
vn -0.535538018 0.838997245 -0.0963472426
vn -0.764412224 0.541211724 0.350376487
vn -0.616391361 0.701221406 0.358260125
vn -0.694343686 0.662615836 0.280761331
vn -0.569434166 0.615261197 -0.545158982
vn -0.824772358 -2.07082365E-07 -0.565464914
vn 0.0976362526 0.905571818 0.412803471
vn -0.580856442 0.740313888 -0.338439107
vn -0.503640354 0.676922023 -0.53677094
vn 0.0992437303 0.89237082 -0.440255463
vn -1.08973879E-07 0.829494536 -0.558514833
vn -0 0.841529727 -0.540210843
vn -0.119168811 0.955232143 0.270795584
vn 0.386593342 0.85531956 -0.344926208
vn -0 0.841529727 -0.540210843
vn -0.408545434 0.912319005 -0.0276525412
vn -1.05950718E-07 0.946409345 0.322969496
vn 0.580856383 0.740314007 -0.338439226
vn 0.503640175 0.676922143 -0.536770821
vn 0.535537839 0.838997304 -0.09634725
vn -0.0992443487 0.89237082 -0.440255523
vn -0 0.841529727 -0.540210843
vn 0.119168095 0.955232263 0.270795792
vn -0.386593699 0.855319262 -0.344926327
vn -0 0.841529727 -0.540210843
vn 0.408545136 0.912319064 -0.027652448
vn 0.616391182 0.701221585 0.358259887
vn 0.764411986 0.541212082 0.350376695
vn 0.924733818 0.325623244 0.197071016
vn 0.119168095 0.955232263 0.270795792
vn 0.701290548 0.693129838 0.166621253
vn 0.565575063 0.734705865 0.374609202
vn 0.630085528 0.768629372 -0.110458896
vn 0.176070333 0.97566694 0.130664364
vn 0.748821735 0.650722861 -0.125800431
vn 0.559303403 0.793604314 -0.239524215
vn 0.396650493 0.840995312 -0.3679609
vn 0.442077875 0.880798995 -0.169588313
vn 0.37955752 0.887876093 -0.260023564
vn 0.46203953 0.666979015 0.584515512
vn 0.273586273 0.940063 -0.203548655
vn 0.150660649 0.97556895 -0.159895182
vn -0.162585452 0.799051046 0.578863978
vn 0.104191616 0.637909293 0.763030648
vn 0.338219166 0.816324353 0.468211859
vn -0.471862018 0.830931664 0.294786036
vn 0.81680733 0 -0.576910615
vn 0.246670052 0 -0.969099522
vn -0.00620253151 0.920159578 -0.391494393
vn 0.863282442 2.56754845E-07 0.504721105
vn 0.893240213 0 -0.449579686
vn -0.00620228844 -0.920159578 -0.391494423
vn -0.288234413 0 -0.957559943
vn 0.246670052 0 -0.969099522
vn 0.737170935 1.1130976E-07 -0.675706267
vn -0.080121398 0.925384402 -0.370464891
vn 0.640701771 0.730034173 -0.237805247
vn -0.471862018 0.830931664 0.294786036
vn -0.386593699 0.855319262 -0.344926327
vn -0.386593699 0.855319262 -0.344926327
vn 0.104191616 0.637909293 0.763030648
vn 0.565575063 0.734705865 0.374609202
vn -0.471862018 0.830931664 0.294786036
vn 0.410189062 0.749570489 -0.519508481
vn 0.509785175 0.831514776 0.220685899
vn -0.386593699 0.855319262 -0.344926327
vn 0.441348076 0.892540514 0.092646718
vn 0.337279677 0.912042737 0.233281925
vn 0.268969655 0.871514618 -0.410021514
vn 0.432622999 0.893779516 0.118302502
vn -1.44104135E-07 0.987555683 -0.157269984
vn -0.268969983 0.871514559 -0.410021573
vn -0.432623327 0.893779337 0.11830239
vn -0.441356599 0.822926641 0.357765377
vn -1.6983185E-07 0.912206709 0.409730375
vn -0 0.80718708 -0.590295553
vn -0.520899653 0.778945386 -0.349152535
vn -0.441348404 0.892540336 0.092646651
vn -0.337280035 0.912042618 0.233281896
vn -0.509785414 0.831514597 0.22068578
vn 0.358197004 0.816210866 0.453315258
vn -0.64070195 0.730033994 -0.237805396
vn 0.0801211447 0.925384521 -0.370464683
vn -0.410189271 0.749570429 -0.519508541
vn 0.386593342 0.85531956 -0.344926208
vn 0.441356212 0.822926819 0.357765555
vn -0.358197212 0.816210806 0.453315258
vn 0.520899475 0.778945625 -0.349152476
vn -0.509785414 0.831514597 0.22068578
vn 0.509785175 0.831514776 0.220685899
vn -0 0.841529727 -0.540210843
vn -0.358197212 0.816210806 0.453315258
vn -0.162585452 0.799051046 0.578863978
vn -0.358197212 0.816210806 0.453315258
vn 0.338219166 0.816324353 0.468211859
vn -0.358197212 0.816210806 0.453315258
vn -0.471862018 0.830931664 0.294786036
vn -0.080121398 0.925384402 -0.370464891
vn 0.0976365805 -0.905571818 0.412803471
vn -0.569434047 -0.615261376 -0.545159042
vn -0.93644774 -1.41399738E-07 0.350807011
vn 0.254794806 0 0.96699518
vn 0.0801214948 -0.925384521 -0.370464593
vn 0.471861452 -0.830931902 0.294786423
vn -0.569434047 -0.615261376 -0.545159042
vn -0.569434166 0.615261197 -0.545158982
vn -0.824772358 -2.07082365E-07 -0.565464914
vn -0.748821735 -0.650722861 -0.125800505
vn -0.748821855 0.650722623 -0.125800535
vn -0.462040156 0.666978717 0.584515512
vn -0.462039948 -0.666978836 0.584515572
vn -0.863282919 -1.93553461E-07 0.50472033
vn -0.805337012 -0.572621644 -0.153416857
vn -0.767907321 0.632558703 -0.100934982
vn -0.772753716 -0.594556153 0.222158924
vn -0.606875777 0.757051051 -0.242023736
vn -0.856532514 -0.428440154 0.28773436
vn -0.999824703 -1.50969399E-07 0.0187265594
vn -0.942903638 -1.84238203E-07 0.333065838
vn -0.856532633 0.428439885 0.28773433
vn -0.720365942 0.684705675 0.110684611
vn -0.767907321 0.632558703 -0.100934982
vn -0.551717639 0.818148255 0.161990926
vn -0.805337012 -0.572621644 -0.153416857
vn -0.850156844 -0.456950754 -0.261590064
vn -0.998855352 -1.07279028E-07 0.0478334576
vn -0.687122583 0 -0.726541519
vn -0.850157022 0.456950545 -0.261590034
vn -0.55171746 -0.818148375 0.161990896
vn -0.805337191 0.572621465 -0.153416857
vn -0.772753954 0.594555974 0.222158864
vn -0.606875479 -0.757051289 -0.242023751
vn -0.767907083 -0.632558882 -0.100934975
vn -0.805337191 0.572621465 -0.153416857
vn -0.720365703 -0.684705913 0.110684589
vn -0.767907083 -0.632558882 -0.100934975
vn -0.999824703 -1.50969399E-07 0.0187265594
vn 0.509694993 -0.830640972 0.22415781
vn 0.751717687 0.645560086 0.134806097
vn 0.555057704 -0.819524288 -0.142446056
vn 0.731269419 0.637102962 0.243608177
vn 0.509694993 -0.830640972 0.22415781
vn 0.794117093 0.580548584 -0.179837286
vn 0.744911134 0.638334334 -0.194001704
vn 0.574301541 -0.787177086 0.224788368
vn 0.99921751 1.55650227E-07 -0.0395532027
vn 0.731269419 0.637102962 0.243608177
vn 0.670859873 -0.706850886 -0.224296331
vn 0.980712891 1.48083586E-07 0.19545424
vn 0.323764354 0 -0.946137786
vn 0.670859635 0.706851125 -0.224296346
vn 0.731269538 -0.637102723 0.243608147
vn 0.555057526 0.819524348 -0.142446056
vn 0.1036845 0 0.99461019
vn 0.99921751 1.55650227E-07 -0.0395532027
vn 0.574301362 0.787177324 0.224788353
vn 0.744911432 -0.638334036 -0.19400169
vn 0.509694576 0.830641091 0.224157721
vn 0.794117212 -0.580548346 -0.179837286
vn 0.751717806 -0.645559907 0.134806097
vn 0.509694576 0.830641091 0.224157721
vn 0.731269538 -0.637102723 0.243608147
vn 1.45365874E-07 -0.946409345 0.322969466
vn -0.913442373 -1.91043E-07 0.406968087
vn 0.731269419 0.637102962 0.243608177
vn -0.720365942 0.684705675 0.110684611
vn -0.551717639 0.818148255 0.161990926
vn 0.980712891 1.48083586E-07 0.19545424
vn -0.998855352 -1.07279028E-07 0.0478334576
vn -0.55171746 -0.818148375 0.161990896
vn 0.731269538 -0.637102723 0.243608147
vn -0.720365703 -0.684705913 0.110684589
vn 0.751717687 0.645560086 0.134806097
vn -0.720365942 0.684705675 0.110684611
vn -0.767907321 0.632558703 -0.100934982
vn 0.794117093 0.580548584 -0.179837286
vn -0.606875777 0.757051051 -0.242023736
vn 0.794117093 0.580548584 -0.179837286
vn 0.744911134 0.638334334 -0.194001704
vn -0.999824703 -1.50969399E-07 0.0187265594
vn 0.99921751 1.55650227E-07 -0.0395532027
vn 0.744911432 -0.638334036 -0.19400169
vn -0.606875479 -0.757051289 -0.242023751
vn 0.794117212 -0.580548346 -0.179837286
vn -0.720365703 -0.684705913 0.110684589
vn 0.751717806 -0.645559907 0.134806097
vn -0.767907083 -0.632558882 -0.100934975
vn 0.794117212 -0.580548346 -0.179837286
vn 0.80533725 -0.572621346 -0.153416753
vn -0.509694636 -0.830641091 0.224157676
vn 0.772753894 -0.594556034 0.222159028
vn -0.555057526 -0.819524348 -0.142446086
vn 0.856532812 -0.428439677 0.287734389
vn -0.574301422 -0.787177324 0.224788338
vn -0.670859694 -0.706851006 -0.224296421
vn 0.942903519 1.32485468E-07 0.333066165
vn -0.103685945 -1.17442632E-07 0.994610071
vn -0.574301541 0.787177086 0.224788338
vn 0.856532693 0.428439885 0.287734419
vn -0.509694934 0.830641031 0.224157736
vn 0.772753656 0.594556212 0.222159073
vn 0.805337131 0.572621524 -0.153416738
vn -0.555057883 0.819524229 -0.142446116
vn -0.670860052 0.706850767 -0.224296406
vn 0.850157201 -0.456950188 -0.261589915
vn -0.670859694 -0.706851006 -0.224296421
vn -0.323762745 0 -0.946138322
vn 0.687123656 0 -0.726540387
vn 0.850157022 0.456950396 -0.261589915
vn -0.670860052 0.706850767 -0.224296406
vn 0.824772477 0 -0.565464735
vn -0.0976363793 -0.905571818 0.412803501
vn 0.569434345 -0.615261137 -0.545158982
vn 0.93644774 0 0.35080716
vn -0.254794955 0 0.96699512
vn -0.0976365879 0.905571818 0.412803531
vn 0.569434106 0.615261316 -0.545158982
vn 0.104191758 -0.637909353 0.763030589
vn -0.47186169 -0.830931783 0.294786066
vn 0.565575242 -0.734705687 0.374609292
vn -0.47186169 -0.830931783 0.294786066
vn -0.386593431 -0.85531944 -0.344926327
vn -0.386593431 -0.85531944 -0.344926327
vn 0.569434345 -0.615261137 -0.545158982
vn 0.824772477 0 -0.565464735
vn 0.569434106 0.615261316 -0.545158982
vn 0.748821914 -0.650722623 -0.125800431
vn 0.748821735 0.650722861 -0.125800431
vn 0.46203953 0.666979015 0.584515512
vn 0.462039769 -0.666978896 0.584515631
vn 0.863282442 2.56754845E-07 0.504721105
vn 0.80533725 -0.572621346 -0.153416753
vn 0.767907023 0.632559001 -0.100934684
vn 0.720365703 0.684705913 0.110684842
vn 0.551717043 0.818148613 0.16199097
vn 0.772753894 -0.594556034 0.222159028
vn 0.767907023 0.632559001 -0.100934684
vn 0.60687542 0.757051349 -0.242023677
vn 0.856532812 -0.428439677 0.287734389
vn 0.999824703 1.00703268E-07 0.0187266041
vn 0.942903519 1.32485468E-07 0.333066165
vn 0.80533725 -0.572621346 -0.153416753
vn 0.850157201 -0.456950188 -0.261589915
vn 0.998855352 1.07278979E-07 0.0478343032
vn 0.687123656 0 -0.726540387
vn -0.509694636 -0.830641091 0.224157676
vn -0.751717925 0.645559907 0.134806022
vn -0.794117212 0.580548406 -0.179837376
vn -0.744911373 0.638334095 -0.194001809
vn -0.574301422 -0.787177324 0.224788338
vn -0.99921751 -1.50877725E-07 -0.0395533629
vn -0.509694636 -0.830641091 0.224157676
vn -0.555057526 -0.819524348 -0.142446086
vn -0.731269538 0.637102783 0.243608087
vn -0.670859694 -0.706851006 -0.224296421
vn -0.731269538 0.637102783 0.243608087
vn -0.980712891 -1.48083586E-07 0.195453808
vn -0.323762745 0 -0.946138322
vn -0.670860052 0.706850767 -0.224296406
vn -0.73126936 -0.637102962 0.243608072
vn -0.555057883 0.819524229 -0.142446116
vn -0.99921751 -1.50877725E-07 -0.0395533629
vn -0.103685945 -1.17442632E-07 0.994610071
vn -0.574301541 0.787177086 0.224788338
vn -0.744911253 -0.638334215 -0.194001794
vn -0.509694934 0.830641031 0.224157736
vn -0.794116974 -0.580548584 -0.179837361
vn -0.751717627 -0.645560145 0.134805992
vn -0.509694934 0.830641031 0.224157736
vn -0.73126936 -0.637102962 0.243608072
vn 0.701290548 0.693129838 0.166621253
vn 0.924733818 -0.325622916 0.197071001
vn 0.924733818 0.325623244 0.197071016
vn 0.701290786 -0.693129539 0.166621223
vn -0.0976363793 -0.905571818 0.412803501
vn -0.0976365879 0.905571818 0.412803531
vn -0.254794955 0 0.96699512
vn 0.913442373 1.11367527E-07 0.406968087
vn -0.731269538 0.637102783 0.243608087
vn 0.720365703 0.684705913 0.110684842
vn -0.751717925 0.645559907 0.134806022
vn 0.767907023 0.632559001 -0.100934684
vn -0.794117212 0.580548406 -0.179837376
vn 0.60687542 0.757051349 -0.242023677
vn 0.551717043 0.818148613 0.16199097
vn 0.720365703 0.684705913 0.110684842
vn -0.980712891 -1.48083586E-07 0.195453808
vn 0.998855352 1.07278979E-07 0.0478343032
vn 0.551717341 -0.818148494 0.161990955
vn -0.73126936 -0.637102962 0.243608072
vn 0.720365942 -0.684705615 0.110684849
vn -0.751717627 -0.645560145 0.134805992
vn 0.767907202 -0.632558882 -0.100934714
vn -0.794116974 -0.580548584 -0.179837361
vn 0.606875658 -0.75705111 -0.242023721
vn -0.794117212 0.580548406 -0.179837376
vn -0.744911373 0.638334095 -0.194001809
vn 0.999824703 1.00703268E-07 0.0187266041
vn -0.99921751 -1.50877725E-07 -0.0395533629
vn -0.744911253 -0.638334215 -0.194001794
vn -0.794116974 -0.580548584 -0.179837361
vn 1.94598798E-07 -0.841529787 -0.540210783
vn -0.737171531 -1.8609586E-07 -0.675705671
vn -0.0455361307 0.550509393 0.833586216
vn -1.52288763E-07 0.999782622 0.020853417
vn -0.69466722 0.719174862 0.01500047
vn -1.84514943E-06 0.38855195 0.921426833
vn -8.323168E-07 0.980632842 0.195855036
vn -0.486661673 0.755911589 0.437902004
vn 0.0455329157 0.550508618 0.833586872
vn 0.694666982 0.719175041 0.0150005603
vn 0.486660391 0.755911708 0.437903017
vn 1.48051754E-07 0.798411608 -0.602112114
vn -8.323168E-07 0.980632842 0.195855036
vn -0.486661673 0.755911589 0.437902004
vn 0.486660391 0.755911708 0.437903017
vn -8.323168E-07 0.980632842 0.195855036
vn 1.48051754E-07 0.798411608 -0.602112114
vn -1.87479699E-07 0.999669075 0.025725903
vn -0.27075398 0.962562859 0.0128515484
vn -0.305982441 0.952034235 -0.00233461452
vn -0.321715683 0.945298076 0.0539502911
vn -1.60038496E-07 0.999831915 -0.018333137
vn -0.326118022 0.944975734 -0.0258421507
vn -0.417811275 0.907063127 -0.0516732074
vn -0.308960557 0.951003194 -0.0116691133
vn -1.50779186E-07 0.999994278 -0.00339470548
vn -0.213656723 0.976826608 -0.0126697496
vn -0.147338614 0.988350987 0.038127102
vn -1.53372753E-07 0.999230742 0.0392155424
vn 0.147338331 0.988351047 0.0381271318
vn -1.30537359E-07 0.999700427 0.024477616
vn -0.476679772 0.878813624 0.0215176828
vn 0.305982083 0.952034473 -0.00233462756
vn 0.270753592 0.962562919 0.0128515605
vn 0.326117694 0.944975913 -0.0258421358
vn 0.417811066 0.907063246 -0.0516731814
vn 0.21365644 0.976826727 -0.0126697132
vn 0.308960289 0.951003313 -0.0116690751
vn 0.321715355 0.945298135 0.0539503433
vn 0.476679593 0.878813684 0.0215177331
vn 0.162584931 0.799050987 0.578864157
vn 0.358197004 0.816210866 0.453315258
vn -0.338219613 0.816324294 0.46821174
vn 0.358197004 0.816210866 0.453315258
vn -0.104192153 0.637909353 0.763030589
vn 0.471861243 0.830931962 0.294786364
vn -0.56557554 0.734705627 0.374609053
vn 0.471861243 0.830931962 0.294786364
vn 0.386593342 0.85531956 -0.344926208
vn 0.386593342 0.85531956 -0.344926208
vn 0.0801211447 0.925384521 -0.370464683
vn 0.471861243 0.830931962 0.294786364
vn 0.00620147819 0.920159638 -0.391494125
vn 0.28823483 0 -0.957559824
vn 0.00620176876 -0.920159638 -0.391494155
vn -0.246671706 0 -0.969099104
vn -1.04723576E-07 0.887535453 -0.460739434
vn -0.701290548 -0.693129838 0.166621119
vn -0.924733877 0.325622857 0.197070912
vn -0.924733818 -0.325623214 0.197070941
vn -0.701290846 0.693129599 0.166621119
vn 0.0976362526 0.905571818 0.412803471
vn 0.0976365805 -0.905571818 0.412803471
vn 0.254794806 0 0.96699518
vn -0.913442373 -1.91043E-07 0.406968087
vn 0.694343328 0.662616253 0.280761451
vn -2.69748512E-07 0.969224393 0.246179074
vn 0.67463696 0.715432644 0.181717023
vn -0.674637377 0.715432286 0.181716904
vn 0.913442373 1.11367527E-07 0.406968087
vn -1.05950718E-07 0.946409345 0.322969496
vn -0.00620253151 0.920159578 -0.391494393
vn -0.00620228844 -0.920159578 -0.391494423
vn -0.288234413 0 -0.957559943
vn 0.246670052 0 -0.969099522
vn 0.805337131 0.572621524 -0.153416738
vn 0.767907202 -0.632558882 -0.100934714
vn 0.772753656 0.594556212 0.222159073
vn 0.720365942 -0.684705615 0.110684849
vn 0.606875658 -0.75705111 -0.242023721
vn 0.856532693 0.428439885 0.287734419
vn 0.551717341 -0.818148494 0.161990955
vn 0.850157022 0.456950396 -0.261589915
vn 0.999824703 1.00703268E-07 0.0187266041
vn 0.942903519 1.32485468E-07 0.333066165
vn 0.998855352 1.07278979E-07 0.0478343032
vn 0.687123656 0 -0.726540387
vn -0.913442373 -1.91043E-07 0.406968087
g Blue_var_pve_3_sword_0
f 3/3/3 2/2/2 1/1/1
f 2/2/2 4/4/4 1/1/1
f 5/5/5 3/3/3 1/1/1
f 6/6/6 5/5/5 1/1/1
f 2/2/2 3/3/3 7/7/7
f 8/8/8 2/2/2 7/7/7
f 5/5/5 9/9/9 3/3/3
f 9/9/9 7/7/7 3/3/3
f 12/12/12 11/11/11 10/10/10
f 13/13/13 12/12/12 10/10/10
f 12/12/12 14/14/14 11/11/11
f 12/12/12 13/13/13 14/14/14
f 17/17/17 16/16/16 15/15/15
f 20/20/20 19/19/19 18/18/18
f 23/23/23 22/22/22 21/21/21
f 21/21/21 24/24/24 23/23/23
f 21/21/21 22/22/22 25/25/25
f 22/22/22 26/26/26 25/25/25
f 26/26/26 27/27/27 25/25/25
f 28/28/28 24/24/24 21/21/21
f 29/29/29 28/28/28 21/21/21
f 30/30/30 28/28/28 29/29/29
f 29/29/29 31/31/31 30/30/30
f 32/32/32 31/31/31 29/29/29
f 33/33/33 32/32/32 29/29/29
f 25/25/25 27/27/27 34/34/34
f 27/27/27 35/35/35 34/34/34
f 21/21/21 25/25/25 36/36/36
f 36/36/36 37/37/37 21/21/21
f 25/25/25 38/38/38 36/36/36
f 39/39/39 38/38/38 25/25/25
f 25/25/25 34/34/34 39/39/39
f 29/29/29 40/40/40 33/33/33
f 40/40/40 29/29/29 41/41/41
f 29/29/29 21/21/21 41/41/41
f 21/21/21 37/37/37 42/42/42
f 21/21/21 42/42/42 41/41/41
f 34/34/34 43/43/43 39/39/39
f 46/46/46 45/45/45 44/44/44
f 46/46/46 44/44/44 47/47/47
f 44/44/44 48/48/48 47/47/47
f 49/49/49 47/47/47 48/48/48
f 50/50/50 49/49/49 48/48/48
f 49/49/49 50/50/50 51/51/51
f 50/50/50 52/52/52 51/51/51
f 51/51/51 52/52/52 53/53/53
f 52/52/52 54/54/54 53/53/53
f 54/54/54 52/52/52 50/50/50
f 54/54/54 55/55/55 53/53/53
f 56/56/56 53/53/53 55/55/55
f 57/57/57 53/53/53 56/56/56
f 58/58/58 57/57/57 56/56/56
f 55/55/55 54/54/54 59/59/59
f 60/60/60 59/59/59 54/54/54
f 61/61/61 60/60/60 54/54/54
f 60/60/60 62/62/62 59/59/59
f 62/62/62 63/63/63 59/59/59
f 64/64/64 51/51/51 53/53/53
f 51/51/51 64/64/64 65/65/65
f 64/64/64 66/66/66 65/65/65
f 57/57/57 67/67/67 53/53/53
f 67/67/67 68/68/68 53/53/53
f 65/65/65 66/66/66 69/69/69
f 70/70/70 62/62/62 60/60/60
f 71/71/71 70/70/70 60/60/60
f 72/72/72 58/58/58 56/56/56
f 57/57/57 58/58/58 73/73/73
f 74/74/74 57/57/57 73/73/73
f 67/67/67 57/57/57 74/74/74
f 74/74/74 73/73/73 75/75/75
f 75/75/75 76/76/76 74/74/74
f 76/76/76 77/77/77 74/74/74
f 76/76/76 75/75/75 78/78/78
f 78/78/78 79/79/79 76/76/76
f 79/79/79 80/80/80 76/76/76
f 81/81/81 79/79/79 78/78/78
f 82/82/82 81/81/81 78/78/78
f 81/81/81 82/82/82 63/63/63
f 62/62/62 81/81/81 63/63/63
f 77/77/77 83/83/83 74/74/74
f 83/83/83 84/84/84 74/74/74
f 84/84/84 83/83/83 85/85/85
f 86/86/86 84/84/84 85/85/85
f 86/86/86 85/85/85 87/87/87
f 77/77/77 88/88/88 83/83/83
f 77/77/77 76/76/76 88/88/88
f 88/88/88 89/89/89 83/83/83
f 89/89/89 88/88/88 90/90/90
f 91/91/91 89/89/89 90/90/90
f 91/91/91 90/90/90 92/92/92
f 93/93/93 91/91/91 92/92/92
f 90/90/90 94/94/94 92/92/92
f 92/92/92 95/95/95 93/93/93
f 93/93/93 95/95/95 96/96/96
f 96/96/96 95/95/95 97/97/97
f 95/95/95 98/98/98 97/97/97
f 99/99/99 93/93/93 96/96/96
f 91/91/91 93/93/93 99/99/99
f 99/99/99 100/100/100 91/91/91
f 100/100/100 101/101/101 91/91/91
f 99/99/99 102/102/102 100/100/100
f 102/102/102 99/99/99 96/96/96
f 102/102/102 103/103/103 100/100/100
f 104/104/104 91/91/91 101/101/101
f 105/105/105 104/104/104 101/101/101
f 105/105/105 101/101/101 100/100/100
f 105/105/105 100/100/100 106/106/106
f 107/107/107 105/105/105 106/106/106
f 97/97/97 108/108/108 96/96/96
f 102/102/102 96/96/96 109/109/109
f 102/102/102 109/109/109 110/110/110
f 110/110/110 109/109/109 47/47/47
f 111/111/111 110/110/110 47/47/47
f 112/112/112 102/102/102 110/110/110
f 47/47/47 113/113/113 111/111/111
f 113/113/113 114/114/114 111/111/111
f 111/111/111 114/114/114 110/110/110
f 110/110/110 114/114/114 115/115/115
f 114/114/114 116/116/116 115/115/115
f 47/47/47 109/109/109 46/46/46
f 117/117/117 107/107/107 116/116/116
f 118/118/118 107/107/107 117/117/117
f 119/119/119 118/118/118 117/117/117
f 107/107/107 118/118/118 120/120/120
f 86/86/86 118/118/118 119/119/119
f 121/121/121 118/118/118 86/86/86
f 122/122/122 86/86/86 119/119/119
f 123/123/123 122/122/122 119/119/119
f 123/123/123 124/124/124 122/122/122
f 124/124/124 125/125/125 122/122/122
f 124/124/124 126/126/126 125/125/125
f 124/124/124 127/127/127 126/126/126
f 126/126/126 127/127/127 128/128/128
f 126/126/126 128/128/128 129/129/129
f 130/130/130 126/126/126 129/129/129
f 131/131/131 130/130/130 129/129/129
f 132/132/132 131/131/131 129/129/129
f 128/128/128 127/127/127 133/133/133
f 127/127/127 134/134/134 133/133/133
f 127/127/127 124/124/124 134/134/134
f 124/124/124 123/123/123 134/134/134
f 133/133/133 134/134/134 135/135/135
f 134/134/134 123/123/123 135/135/135
f 66/66/66 133/133/133 135/135/135
f 66/66/66 136/136/136 133/133/133
f 132/132/132 129/129/129 136/136/136
f 129/129/129 128/128/128 136/136/136
f 137/137/137 66/66/66 135/135/135
f 137/137/137 138/138/138 66/66/66
f 137/137/137 135/135/135 139/139/139
f 116/116/116 137/137/137 139/139/139
f 137/137/137 116/116/116 140/140/140
f 128/128/128 133/133/133 68/68/68
f 136/136/136 67/67/67 132/132/132
f 67/67/67 131/131/131 132/132/132
f 130/130/130 131/131/131 141/141/141
f 130/130/130 141/141/141 126/126/126
f 141/141/141 125/125/125 126/126/126
f 125/125/125 141/141/141 142/142/142
f 141/141/141 143/143/143 142/142/142
f 67/67/67 142/142/142 143/143/143
f 131/131/131 143/143/143 141/141/141
f 131/131/131 67/67/67 143/143/143
f 139/139/139 117/117/117 116/116/116
f 139/139/139 144/144/144 117/117/117
f 144/144/144 145/145/145 117/117/117
f 138/138/138 147/147/147 146/146/146
f 148/148/148 113/113/113 146/146/146
f 150/150/150 149/149/149 113/113/113
f 149/149/149 151/151/151 113/113/113
f 142/142/142 86/86/86 122/122/122
f 153/153/153 86/86/86 152/152/152
f 118/118/118 153/153/153 105/105/105
f 122/122/122 125/125/125 154/154/154
f 154/154/154 67/67/67 74/74/74
f 156/156/156 74/74/74 155/155/155
f 158/158/158 157/157/157 155/155/155
f 53/53/53 160/160/160 159/159/159
f 162/162/162 161/161/161 159/159/159
f 165/165/165 164/164/164 163/163/163
f 164/164/164 166/166/166 163/163/163
f 167/167/167 166/166/166 164/164/164
f 168/168/168 167/167/167 164/164/164
f 169/169/169 165/165/165 163/163/163
f 170/170/170 167/167/167 168/168/168
f 171/171/171 170/170/170 168/168/168
f 170/170/170 171/171/171 172/172/172
f 173/173/173 170/170/170 172/172/172
f 173/173/173 172/172/172 174/174/174
f 175/175/175 173/173/173 174/174/174
f 175/175/175 174/174/174 176/176/176
f 174/174/174 177/177/177 176/176/176
f 177/177/177 178/178/178 176/176/176
f 180/180/180 179/179/179 163/163/163
f 181/181/181 179/179/179 180/180/180
f 182/182/182 181/181/181 180/180/180
f 181/181/181 182/182/182 183/183/183
f 184/184/184 183/183/183 176/176/176
f 184/184/184 181/181/181 183/183/183
f 187/187/187 186/186/186 185/185/185
f 188/188/188 187/187/187 185/185/185
f 61/61/61 188/188/188 185/185/185
f 60/60/60 61/61/61 185/185/185
f 186/186/186 187/187/187 189/189/189
f 187/187/187 188/188/188 189/189/189
f 189/189/189 188/188/188 190/190/190
f 191/191/191 189/189/189 190/190/190
f 191/191/191 192/192/192 189/189/189
f 191/191/191 190/190/190 193/193/193
f 194/194/194 191/191/191 193/193/193
f 195/195/195 191/191/191 194/194/194
f 196/196/196 195/195/195 194/194/194
f 193/193/193 197/197/197 194/194/194
f 197/197/197 193/193/193 198/198/198
f 198/198/198 199/199/199 197/197/197
f 198/198/198 200/200/200 199/199/199
f 200/200/200 201/201/201 199/199/199
f 193/193/193 202/202/202 198/198/198
f 202/202/202 203/203/203 198/198/198
f 203/203/203 204/204/204 198/198/198
f 204/204/204 203/203/203 205/205/205
f 206/206/206 204/204/204 205/205/205
f 207/207/207 200/200/200 198/198/198
f 208/208/208 207/207/207 198/198/198
f 206/206/206 205/205/205 209/209/209
f 202/202/202 210/210/210 203/203/203
f 210/210/210 211/211/211 203/203/203
f 211/211/211 210/210/210 212/212/212
f 213/213/213 211/211/211 212/212/212
f 212/212/212 214/214/214 213/213/213
f 214/214/214 215/215/215 213/213/213
f 215/215/215 214/214/214 216/216/216
f 202/202/202 193/193/193 210/210/210
f 193/193/193 217/217/217 210/210/210
f 210/210/210 217/217/217 218/218/218
f 219/219/219 210/210/210 218/218/218
f 220/220/220 213/213/213 215/215/215
f 220/220/220 221/221/221 213/213/213
f 221/221/221 222/222/222 213/213/213
f 220/220/220 223/223/223 221/221/221
f 223/223/223 224/224/224 221/221/221
f 225/225/225 213/213/213 222/222/222
f 226/226/226 225/225/225 222/222/222
f 226/226/226 222/222/222 221/221/221
f 226/226/226 221/221/221 227/227/227
f 228/228/228 226/226/226 227/227/227
f 229/229/229 215/215/215 216/216/216
f 215/215/215 229/229/229 220/220/220
f 229/229/229 223/223/223 220/220/220
f 223/223/223 229/229/229 230/230/230
f 223/223/223 230/230/230 231/231/231
f 231/231/231 230/230/230 232/232/232
f 233/233/233 231/231/231 232/232/232
f 234/234/234 223/223/223 231/231/231
f 232/232/232 235/235/235 233/233/233
f 235/235/235 236/236/236 233/233/233
f 233/233/233 236/236/236 231/231/231
f 231/231/231 236/236/236 237/237/237
f 236/236/236 238/238/238 237/237/237
f 229/229/229 239/239/239 230/230/230
f 239/239/239 232/232/232 230/230/230
f 232/232/232 239/239/239 240/240/240
f 241/241/241 232/232/232 240/240/240
f 242/242/242 232/232/232 241/241/241
f 243/243/243 242/242/242 241/241/241
f 242/242/242 243/243/243 244/244/244
f 243/243/243 245/245/245 244/244/244
f 244/244/244 245/245/245 246/246/246
f 245/245/245 247/247/247 246/246/246
f 247/247/247 245/245/245 243/243/243
f 247/247/247 248/248/248 246/246/246
f 249/249/249 246/246/246 248/248/248
f 200/200/200 246/246/246 249/249/249
f 201/201/201 200/200/200 249/249/249
f 248/248/248 247/247/247 250/250/250
f 251/251/251 250/250/250 247/247/247
f 252/252/252 251/251/251 247/247/247
f 251/251/251 253/253/253 250/250/250
f 253/253/253 254/254/254 250/250/250
f 254/254/254 253/253/253 196/196/196
f 253/253/253 195/195/195 196/196/196
f 255/255/255 244/244/244 246/246/246
f 244/244/244 255/255/255 256/256/256
f 255/255/255 257/257/257 256/256/256
f 256/256/256 257/257/257 258/258/258
f 253/253/253 251/251/251 259/259/259
f 251/251/251 260/260/260 259/259/259
f 251/251/251 252/252/252 261/261/261
f 251/251/251 261/261/261 260/260/260
f 252/252/252 262/262/262 261/261/261
f 262/262/262 263/263/263 261/261/261
f 263/263/263 262/262/262 264/264/264
f 265/265/265 263/263/263 264/264/264
f 263/263/263 265/265/265 261/261/261
f 264/264/264 262/262/262 80/80/80
f 79/79/79 264/264/264 80/80/80
f 266/266/266 79/79/79 259/259/259
f 79/79/79 266/266/266 264/264/264
f 79/79/79 81/81/81 259/259/259
f 81/81/81 267/267/267 259/259/259
f 267/267/267 253/253/253 259/259/259
f 269/269/269 268/268/268 257/257/257
f 268/268/268 271/271/271 270/270/270
f 272/272/272 235/235/235 270/270/270
f 274/274/274 273/273/273 235/235/235
f 273/273/273 275/275/275 235/235/235
f 238/238/238 269/269/269 276/276/276
f 269/269/269 277/277/277 276/276/276
f 269/269/269 238/238/238 278/278/278
f 269/269/269 257/257/257 277/277/277
f 257/257/257 279/279/279 277/277/277
f 279/279/279 280/280/280 277/277/277
f 281/281/281 280/280/280 279/279/279
f 282/282/282 281/281/281 279/279/279
f 283/283/283 281/281/281 282/282/282
f 284/284/284 281/281/281 283/283/283
f 284/284/284 283/283/283 285/285/285
f 286/286/286 285/285/285 283/283/283
f 287/287/287 286/286/286 283/283/283
f 287/287/287 288/288/288 286/286/286
f 288/288/288 289/289/289 286/286/286
f 284/284/284 285/285/285 290/290/290
f 291/291/291 284/284/284 290/290/290
f 280/280/280 281/281/281 291/291/291
f 281/281/281 284/284/284 291/291/291
f 291/291/291 290/290/290 292/292/292
f 280/280/280 291/291/291 292/292/292
f 290/290/290 206/206/206 292/292/292
f 293/293/293 206/206/206 290/290/290
f 285/285/285 286/286/286 293/293/293
f 286/286/286 289/289/289 293/293/293
f 206/206/206 294/294/294 292/292/292
f 295/295/295 294/294/294 206/206/206
f 292/292/292 294/294/294 296/296/296
f 294/294/294 228/228/228 296/296/296
f 228/228/228 294/294/294 297/297/297
f 290/290/290 285/285/285 208/208/208
f 288/288/288 207/207/207 289/289/289
f 207/207/207 293/293/293 289/289/289
f 288/288/288 287/287/287 298/298/298
f 287/287/287 283/283/283 298/298/298
f 283/283/283 282/282/282 298/298/298
f 298/298/298 282/282/282 299/299/299
f 300/300/300 298/298/298 299/299/299
f 299/299/299 207/207/207 300/300/300
f 300/300/300 288/288/288 298/298/298
f 207/207/207 288/288/288 300/300/300
f 276/276/276 296/296/296 228/228/228
f 301/301/301 296/296/296 276/276/276
f 302/302/302 301/301/301 276/276/276
f 238/238/238 276/276/276 228/228/228
f 238/238/238 228/228/228 303/303/303
f 200/200/200 207/207/207 246/246/246
f 207/207/207 304/304/304 246/246/246
f 282/282/282 279/279/279 304/304/304
f 257/257/257 299/299/299 279/279/279
f 246/246/246 306/306/306 305/305/305
f 308/308/308 307/307/307 305/305/305
f 257/257/257 310/310/310 309/309/309
f 310/310/310 269/269/269 236/236/236
f 311/311/311 218/218/218 50/50/50
f 218/218/218 312/312/312 50/50/50
f 312/312/312 54/54/54 50/50/50
f 311/311/311 313/313/313 218/218/218
f 314/314/314 313/313/313 311/311/311
f 313/313/313 314/314/314 219/219/219
f 313/313/313 219/219/219 218/218/218
f 315/315/315 137/137/137 114/114/114
f 66/66/66 315/315/315 316/316/316
f 319/319/319 318/318/318 317/317/317
f 317/317/317 318/318/318 320/320/320
f 318/318/318 321/321/321 320/320/320
f 320/320/320 321/321/321 322/322/322
f 323/323/323 320/320/320 322/322/322
f 324/324/324 323/323/323 322/322/322
f 327/327/327 326/326/326 325/325/325
f 328/328/328 326/326/326 327/327/327
f 329/329/329 328/328/328 327/327/327
f 330/330/330 328/328/328 329/329/329
f 331/331/331 330/330/330 329/329/329
f 330/330/330 331/331/331 332/332/332
f 334/334/334 333/333/333 325/325/325
f 333/333/333 335/335/335 325/325/325
f 335/335/335 337/337/337 336/336/336
f 335/335/335 338/338/338 337/337/337
f 338/338/338 339/339/339 337/337/337
f 339/339/339 338/338/338 340/340/340
f 338/338/338 341/341/341 340/340/340
f 340/340/340 341/341/341 342/342/342
f 344/344/344 332/332/332 343/343/343
f 345/345/345 344/344/344 343/343/343
f 345/345/345 343/343/343 346/346/346
f 341/341/341 347/347/347 346/346/346
f 347/347/347 348/348/348 346/346/346
f 344/344/344 349/349/349 332/332/332
f 352/352/352 351/351/351 350/350/350
f 353/353/353 351/351/351 352/352/352
f 351/351/351 355/355/355 354/354/354
f 355/355/355 356/356/356 354/354/354
f 356/356/356 357/357/357 354/354/354
f 356/356/356 358/358/358 357/357/357
f 360/360/360 359/359/359 352/352/352
f 361/361/361 359/359/359 360/360/360
f 362/362/362 361/361/361 360/360/360
f 361/361/361 362/362/362 363/363/363
f 364/364/364 361/361/361 363/363/363
f 364/364/364 363/363/363 365/365/365
f 367/367/367 366/366/366 357/357/357
f 366/366/366 367/367/367 368/368/368
f 367/367/367 369/369/369 368/368/368
f 368/368/368 369/369/369 370/370/370
f 369/369/369 371/371/371 370/370/370
f 371/371/371 372/372/372 370/370/370
f 372/372/372 365/365/365 373/373/373
f 372/372/372 374/374/374 365/365/365
f 46/46/46 96/96/96 45/45/45
f 96/96/96 46/46/46 109/109/109
f 108/108/108 45/45/45 375/375/375
f 376/376/376 48/48/48 44/44/44
f 379/379/379 378/378/378 377/377/377
f 379/379/379 377/377/377 380/380/380
f 381/381/381 379/379/379 380/380/380
f 382/382/382 381/381/381 380/380/380
f 383/383/383 382/382/382 380/380/380
f 384/384/384 382/382/382 383/383/383
f 386/386/386 385/385/385 377/377/377
f 386/386/386 387/387/387 385/385/385
f 387/387/387 388/388/388 385/385/385
f 387/387/387 389/389/389 388/388/388
f 389/389/389 391/391/391 390/390/390
f 389/389/389 392/392/392 391/391/391
f 392/392/392 393/393/393 391/391/391
f 393/393/393 392/392/392 394/394/394
f 392/392/392 395/395/395 394/394/394
f 394/394/394 395/395/395 396/396/396
f 398/398/398 397/397/397 383/383/383
f 399/399/399 397/397/397 398/398/398
f 400/400/400 399/399/399 398/398/398
f 395/395/395 399/399/399 400/400/400
f 403/403/403 402/402/402 401/401/401
f 402/402/402 404/404/404 401/401/401
f 403/403/403 405/405/405 402/402/402
f 405/405/405 406/406/406 402/402/402
f 404/404/404 407/407/407 401/401/401
f 405/405/405 408/408/408 406/406/406
f 408/408/408 409/409/409 406/406/406
f 409/409/409 408/408/408 410/410/410
f 408/408/408 411/411/411 410/410/410
f 410/410/410 411/411/411 412/412/412
f 411/411/411 413/413/413 412/412/412
f 412/412/412 413/413/413 414/414/414
f 415/415/415 412/412/412 414/414/414
f 416/416/416 415/415/415 414/414/414
f 418/418/418 417/417/417 401/401/401
f 418/418/418 419/419/419 417/417/417
f 419/419/419 420/420/420 417/417/417
f 420/420/420 419/419/419 421/421/421
f 421/421/421 422/422/422 414/414/414
f 419/419/419 422/422/422 421/421/421
f 424/424/424 88/88/88 423/423/423
f 88/88/88 425/425/425 423/423/423
f 76/76/76 425/425/425 88/88/88
f 424/424/424 423/423/423 426/426/426
f 426/426/426 427/427/427 424/424/424
f 427/427/427 426/426/426 428/428/428
f 423/423/423 428/428/428 426/426/426
f 428/428/428 423/423/423 243/243/243
f 423/423/423 429/429/429 243/243/243
f 429/429/429 247/247/247 243/243/243
f 431/431/431 430/430/430 104/104/104
f 430/430/430 432/432/432 104/104/104
f 104/104/104 434/434/434 433/433/433
f 435/435/435 121/121/121 433/433/433
f 438/438/438 437/437/437 436/436/436
f 436/436/436 439/439/439 438/438/438
f 439/439/439 440/440/440 438/438/438
f 441/441/441 440/440/440 439/439/439
f 442/442/442 441/441/441 439/439/439
f 442/442/442 443/443/443 441/441/441
f 446/446/446 445/445/445 444/444/444
f 447/447/447 446/446/446 444/444/444
f 449/449/449 448/448/448 444/444/444
f 449/449/449 450/450/450 448/448/448
f 450/450/450 451/451/451 448/448/448
f 450/450/450 452/452/452 451/451/451
f 452/452/452 453/453/453 451/451/451
f 455/455/455 447/447/447 454/454/454
f 447/447/447 455/455/455 456/456/456
f 455/455/455 457/457/457 456/456/456
f 460/460/460 459/459/459 458/458/458
f 461/461/461 460/460/460 458/458/458
f 462/462/462 461/461/461 458/458/458
f 461/461/461 462/462/462 463/463/463
f 459/459/459 465/465/465 464/464/464
f 459/459/459 466/466/466 465/465/465
f 468/468/468 467/467/467 465/465/465
f 468/468/468 469/469/469 467/467/467
f 469/469/469 470/470/470 467/467/467
f 470/470/470 469/469/469 471/471/471
f 469/469/469 472/472/472 471/471/471
f 471/471/471 472/472/472 473/473/473
f 462/462/462 475/475/475 474/474/474
f 475/475/475 476/476/476 474/474/474
f 476/476/476 477/477/477 474/474/474
f 477/477/477 476/476/476 478/478/478
f 479/479/479 477/477/477 478/478/478
f 480/480/480 479/479/479 478/478/478
f 473/473/473 480/480/480 481/481/481
f 482/482/482 480/480/480 473/473/473
f 58/58/58 72/72/72 73/73/73
f 485/485/485 484/484/484 483/483/483
f 484/484/484 486/486/486 483/483/483
f 483/483/483 486/486/486 487/487/487
f 488/488/488 483/483/483 487/487/487
f 487/487/487 489/489/489 488/488/488
f 484/484/484 485/485/485 490/490/490
f 493/493/493 492/492/492 491/491/491
f 494/494/494 492/492/492 493/493/493
f 495/495/495 494/494/494 493/493/493
f 496/496/496 494/494/494 495/495/495
f 498/498/498 497/497/497 491/491/491
f 499/499/499 491/491/491 497/497/497
f 500/500/500 499/499/499 497/497/497
f 499/499/499 500/500/500 501/501/501
f 502/502/502 499/499/499 501/501/501
f 501/501/501 503/503/503 502/502/502
f 503/503/503 504/504/504 502/502/502
f 503/503/503 505/505/505 504/504/504
f 505/505/505 506/506/506 504/504/504
f 505/505/505 507/507/507 506/506/506
f 509/509/509 496/496/496 508/508/508
f 496/496/496 509/509/509 510/510/510
f 509/509/509 511/511/511 510/510/510
f 511/511/511 512/512/512 510/510/510
f 512/512/512 507/507/507 510/510/510
f 507/507/507 512/512/512 513/513/513
f 116/116/116 107/107/107 514/514/514
f 123/123/123 119/119/119 135/135/135
f 62/62/62 70/70/70 515/515/515
f 70/70/70 195/195/195 515/515/515
f 195/195/195 70/70/70 191/191/191
f 70/70/70 192/192/192 191/191/191
f 518/518/518 517/517/517 516/516/516
f 517/517/517 519/519/519 516/516/516
f 516/516/516 519/519/519 520/520/520
f 521/521/521 516/516/516 520/520/520
f 519/519/519 517/517/517 522/522/522
f 517/517/517 523/523/523 522/522/522
f 522/522/522 524/524/524 519/519/519
f 524/524/524 520/520/520 519/519/519
f 527/527/527 526/526/526 525/525/525
f 530/530/530 529/529/529 528/528/528
f 533/533/533 532/532/532 531/531/531
f 534/534/534 531/531/531 532/532/532
f 533/533/533 531/531/531 535/535/535
f 536/536/536 533/533/533 535/535/535
f 537/537/537 536/536/536 535/535/535
f 534/534/534 538/538/538 531/531/531
f 538/538/538 539/539/539 531/531/531
f 540/540/540 539/539/539 538/538/538
f 541/541/541 539/539/539 540/540/540
f 541/541/541 542/542/542 539/539/539
f 542/542/542 543/543/543 539/539/539
f 537/537/537 535/535/535 544/544/544
f 545/545/545 537/537/537 544/544/544
f 535/535/535 531/531/531 546/546/546
f 547/547/547 546/546/546 531/531/531
f 548/548/548 535/535/535 546/546/546
f 548/548/548 549/549/549 535/535/535
f 544/544/544 535/535/535 549/549/549
f 550/550/550 539/539/539 543/543/543
f 550/550/550 551/551/551 539/539/539
f 531/531/531 539/539/539 551/551/551
f 547/547/547 531/531/531 552/552/552
f 552/552/552 531/531/531 551/551/551
f 553/553/553 544/544/544 549/549/549
f 556/556/556 555/555/555 554/554/554
f 557/557/557 198/198/198 554/554/554
f 559/559/559 558/558/558 225/225/225
f 558/558/558 560/560/560 225/225/225
f 225/225/225 562/562/562 561/561/561
f 563/563/563 295/295/295 561/561/561
f 294/294/294 564/564/564 226/226/226
f 564/564/564 206/206/206 565/565/565
f 568/568/568 567/567/567 566/566/566
f 568/568/568 566/566/566 569/569/569
f 201/201/201 570/570/570 199/199/199
f 570/570/570 201/201/201 249/249/249
f 573/573/573 572/572/572 571/571/571
f 572/572/572 574/574/574 571/571/571
f 571/571/571 574/574/574 575/575/575
f 576/576/576 571/571/571 575/575/575
f 577/577/577 576/576/576 575/575/575
f 572/572/572 573/573/573 578/578/578
f 229/229/229 580/580/580 579/579/579
f 580/580/580 581/581/581 579/579/579
f 582/582/582 580/580/580 229/229/229
f 579/579/579 239/239/239 229/229/229
f 579/579/579 240/240/240 239/239/239
f 583/583/583 241/241/241 240/240/240
f 216/216/216 582/582/582 584/584/584
f 587/587/587 586/586/586 585/585/585
f 585/585/585 586/586/586 588/588/588
f 591/591/591 590/590/590 589/589/589
f 590/590/590 592/592/592 589/589/589
f 593/593/593 590/590/590 591/591/591
f 594/594/594 593/593/593 591/591/591
f 592/592/592 595/595/595 589/589/589
f 595/595/595 596/596/596 589/589/589
f 597/597/597 593/593/593 594/594/594
f 598/598/598 597/597/597 594/594/594
f 596/596/596 595/595/595 599/599/599
f 600/600/600 596/596/596 599/599/599
f 277/277/277 280/280/280 292/292/292
f 214/214/214 212/212/212 601/601/601
f 60/60/60 185/185/185 71/71/71
