g blue_asn_m_pve_2_helm
v -0.0286669992 -0.0871569961 1.96732998
v -0.0347579978 -0.0586709976 2.00442004
v -0.00936600007 -0.0994209945 1.96369994
v -0.0425909981 -0.054341998 1.99581993
v -0.054928001 -0.0516569987 1.96600997
v -0.0866629928 0.00491099991 1.97281992
v -0.064181 -0.00561799994 2.02918005
v -0.0822480023 0.0811839923 2.01654983
v -0.0992069989 0.089492999 1.96783006
v -0.0750989988 0.144990996 1.96938002
v -0.0706599951 0.171054989 1.92199004
v 0.00874700025 -0.0577379987 2.00810003
v 0.0105289994 -0.0994359925 1.96329999
v 0.00739300018 -0.096036993 1.95956993
v -0.00657199975 -0.0960149914 1.95981991
v -0.0677839965 0.0851429999 2.02988005
v -0.0536670014 -0.00801800005 2.03936005
v -0.0117659997 0.172443002 1.94868994
v -0.00135499996 0.200728998 1.88106
v 0.0419549979 0.186438993 1.88542008
v 0.0235680006 0.165725991 1.96618998
v -0.0205530003 0.137695998 2.0162499
v 0.0270889997 0.128557995 2.02427983
v -0.00153300003 0.0705740005 2.05955005
v -0.0334669985 0.0770149976 2.04264998
v -0.0228640009 -0.00598699972 2.04181004
v 0.00589899998 -0.0081899995 2.04610991
v 0.0294390004 0.067805998 2.05307984
v 0.0217810012 -0.00960200001 2.03909993
v 0.0217810012 -0.00960200001 2.03909993
v 0.0414999984 0.216390982 1.83145988
v -0.00886099972 0.226114005 1.84370995
v 0.0440879986 0.236499995 1.80054986
v -0.0139619987 0.257205993 1.79742992
v 0.0417839997 0.23511298 1.78143001
v -0.0531469993 0.221086994 1.84494996
v -0.0695239976 0.242824003 1.79712999
v -0.0714949965 0.206727996 1.84010994
v -0.102693997 0.219906002 1.79845989
v -0.0750069991 0.242136985 1.77948999
v -0.102273993 0.216447994 1.78239
v -0.136995003 0.14518699 1.79568994
v -0.13601099 0.144809991 1.80917001
v -0.124533005 0.144139007 1.77622998
v -0.104929999 0.0741219968 1.75495994
v -0.128507987 0.0690210015 1.76707983
v -0.109174997 0.0225159992 1.75811005
v -0.0929720029 0.0382919982 1.73167002
v -0.0841469914 -0.0241279993 1.7536999
v -0.0706449971 -0.00199100003 1.70479989
v -0.0395409986 -0.0210299995 1.68868995
v -0.0450709984 -0.0679500028 1.76294005
v -0.0961849988 0.0435480028 1.70139003
v -0.0628649965 0.00755500002 1.67367005
v -0.025446998 0.00130600005 1.66346991
v -0.111088999 0.0924470052 1.74201989
v -0.09454 0.207964003 1.77051997
v -0.00893899985 -0.0279099979 1.67294991
v -0.00834900048 0.00733499974 1.65711999
v -0.0094440002 -0.0513079949 1.69387996
v -0.0100360001 -0.0655080006 1.71729994
v -0.0254609976 -0.00233799987 1.69350004
v -0.0650439933 0.00413399981 1.69539988
v -0.0961849988 0.0435480028 1.70139003
v -0 0.00677699968 1.68033993
v -0.0604799986 0.225899994 1.76746988
v -0.0160039999 0.255834013 1.77966988
v -0.0211999975 0.230487004 1.76645005
v -0.0267769992 0.180795982 1.75843
v -0.0564909987 0.178033993 1.76244986
v -0 0.181143999 1.75843
v 0.0346909985 0.217868 1.76892996
v 0.0417839997 0.23511298 1.78143001
v 0.0267769992 0.180795982 1.75843
v -0.025446998 0.00130600005 1.66346991
v -0.00834900048 0.00733499974 1.65711999
v -0.0942240059 0.155885994 1.78063989
v -0.107376002 0.119278997 1.77699995
v -0.111088999 0.0924470052 1.74201989
v -0.0841009989 0.115784995 1.88277996
v -0.108337 0.0467309989 1.84649992
v -0.101480998 0.141203001 1.84192002
v -0.0936919972 0.0255559981 1.88354993
v -0.064647004 0.195401981 1.87186992
v -0.101466998 0.0895650014 1.93747997
v -0.0913379937 0.00534399971 1.9420799
v -0.0962869972 -0.0162709989 1.85020995
v -0.0734279975 -0.0346440002 1.88708997
v -0.0625449941 -0.0540749952 1.94160986
v -0.0788619965 0.161893994 1.91217995
v -0.0503959991 0.20761998 1.87402999
v -0.069385998 -0.0774680004 1.86766005
v -0.0761789978 -0.0678359941 1.84158003
v -0.0711300001 -0.0656759962 1.84307992
v -0.0646369979 -0.075830996 1.86729991
v -0.0555479974 -0.0861060023 1.8915199
v -0.111239001 -0.006941 1.83406007
v -0.119741 0.000740999996 1.81143999
v -0.128681004 0.0559950024 1.83219993
v -0.139769003 0.0668520033 1.80822003
v -0.00963999983 -0.0613119975 1.72018993
v -0.0424959995 -0.064695999 1.76517999
v -0.0450709984 -0.0679500028 1.76294005
v -0.0100360001 -0.0655080006 1.71729994
v -0.0761789978 -0.0678359941 1.84158003
v -0.0415039994 -0.0904579982 1.92179
v -0.0471180007 -0.094189994 1.92509985
v -0.00657199975 -0.0960149914 1.95981991
v -0.0471180007 -0.094189994 1.92509985
v -0.0600099973 -0.0872449949 1.89373994
v -0.0555479974 -0.0861060023 1.8915199
v -0.0415039994 -0.0904579982 1.92179
v -0.0600099973 -0.0872449949 1.89373994
v 0.0476559997 -0.052513998 1.97785985
v 0.0105289994 -0.0994359925 1.96329999
v 0.00874700025 -0.0577379987 2.00810003
v 0.0640140027 -0.0118589997 2.00714993
v 0.0717850029 -0.00820699986 1.9878999
v 0.0730680004 0.067181997 2.02117991
v 0.0850159973 0.0738469958 1.99954998
v 0.0681079999 0.125115991 1.98800993
v 0.0217810012 -0.00960200001 2.03909993
v 0.0270889997 0.128557995 2.02427983
v 0.0235680006 0.165725991 1.96618998
v 0.0294390004 0.067805998 2.05307984
v 0.0217810012 -0.00960200001 2.03909993
v 0.0814350024 0.00990599953 1.94412994
v 0.0836649984 0.0829189941 1.95399988
v 0.0977029949 0.0262150001 1.88406992
v 0.0874209926 0.099879995 1.89022005
v 0.114657998 0.0433599986 1.85689998
v 0.109048992 0.118949004 1.8448199
v 0.0672549978 0.162038997 1.88822007
v 0.0828450024 0.182189003 1.83638
v 0.0698539987 0.142949998 1.94804001
v 0.0419549979 0.186438993 1.88542008
v 0.110965997 -0.0138079999 1.84552991
v 0.0763899982 -0.035668999 1.88688993
v 0.0569889992 -0.0475050025 1.94428992
v 0.103151999 -0.0391229987 1.84923005
v 0.10540399 -0.0389409997 1.81294
v 0.0809169933 -0.067753002 1.83850992
v 0.0682419986 -0.0705310032 1.9027499
v 0.0585509986 -0.0931989923 1.90028
v 0.0338610001 -0.0973579958 1.94774985
v 0.0756120011 -0.0656609982 1.84052002
v 0.0540640019 -0.0917109922 1.89786994
v 0.0301670004 -0.094596006 1.94492996
v 0.00739300018 -0.096036993 1.95956993
v 0.111437999 -0.0152269993 1.80956995
v 0.0746359974 -0.0227620006 1.76817
v 0.101380996 0.00893799961 1.79553998
v 0.115664996 0.0226039998 1.75823998
v 0.0878940001 -0.00959900022 1.73230994
v 0.0885479972 0.0373049974 1.73145998
v 0.0784349963 0.00527400011 1.71044993
v 0.0961849988 0.0435480028 1.70139003
v 0.0719500035 0.0193109997 1.67948997
v 0.0395409986 -0.0210299995 1.68868995
v 0.025446998 0.00130600005 1.66346991
v 0.111088999 0.0924470052 1.74201989
v 0.107607998 0.0784559995 1.75783992
v 0.126341 0.144737989 1.77948999
v 0.00893899985 -0.0292799994 1.67294991
v 0.00834900048 0.00733499974 1.65711999
v 0.00973699987 -0.0512739979 1.6924299
v 0.049879998 -0.0386069976 1.70870996
v 0.0427139997 -0.0360509977 1.72526991
v 0.136664003 0.0672639981 1.78814995
v 0.138123989 0.138164997 1.80423987
v 0.131264001 0.130172998 1.82870996
v 0.114049993 0.0561379977 1.83275998
v 0.126341 0.144737989 1.77948999
v 0.100190997 0.209102988 1.7838999
v 0.101155996 0.212222993 1.80581999
v 0.0947669968 0.201067999 1.77119005
v 0.0417839997 0.23511298 1.78143001
v 0.0346909985 0.217868 1.76892996
v 0.0440879986 0.236499995 1.80054986
v 0.0417839997 0.23511298 1.78143001
v 0.0414999984 0.216390982 1.83145988
v 0.0564909987 0.178033993 1.76244986
v 0.0267769992 0.180795982 1.75843
v 0.0942240059 0.155885994 1.78063989
v 0.126341 0.144737989 1.77948999
v 0.107376002 0.119278997 1.77699995
v 0.111088999 0.0924470052 1.74201989
v 0.126341 0.144737989 1.77948999
v 0.0377749987 -0.0648369938 1.76975989
v 0.0808329955 -0.0438019969 1.76917005
v 0.0503939986 -0.0467329957 1.72660995
v 0.0554979965 -0.0660620034 1.79947007
v 0.0516970009 -0.063281998 1.80125999
v 0.0352010019 -0.0615829974 1.77199996
v 0.00499100005 -0.0608440004 1.72182989
v 0.00540199969 -0.0650689974 1.71895993
v -0.0094440002 -0.0513079949 1.69387996
v -0.0100360001 -0.0655080006 1.71729994
v -0.00893899985 -0.0279099979 1.67294991
v -0.00834900048 0.00733499974 1.65711999
v 0.025446998 0.00130600005 1.66346991
v -0 0.00677699968 1.68033993
v 0.0254609976 -0.00233799987 1.69350004
v 0.0650439933 0.00413399981 1.69539988
v 0.0719500035 0.0193109997 1.67948997
v 0.0961849988 0.0435480028 1.70139003
v 0.00834900048 0.00733499974 1.65711999
v -0.00834900048 0.00733499974 1.65711999
v -0.00963999983 -0.0613119975 1.72018993
v 0.00499100005 -0.0608440004 1.72182989
v -0.0100360001 -0.0655080006 1.71729994
v 0.0207499992 0.0256159995 1.75298989
v 0.0588979982 0.0499259979 1.77208996
v 0.0226379987 0.0033199999 1.70498991
v 0.0472989976 0.0371289998 1.7798599
v 0.021968998 0.0262859985 1.76706994
v 0.0146249998 0.00771296863 1.77619994
v 0.0646756217 0.0440290011 1.81239998
v -0 0.0143439993 1.76349998
v -0 0.0233629979 1.74823999
v -0 -0.00140099996 1.70262992
v -0.0146249998 0.00771296863 1.77619994
v 0.00499100005 -0.0608440004 1.72182989
v 0.0226379987 0.0033199999 1.70498991
v -0.00963999983 -0.0613119975 1.72018993
v 0.0226379987 0.0033199999 1.70498991
v 0.0352010019 -0.0615829974 1.77199996
v 0.0588979982 0.0499259979 1.77208996
v 0.0516970009 -0.063281998 1.80125999
v 0.0646756217 0.0440290011 1.81239998
v 0.0761738792 0.0114369998 1.87177992
v 0.0756120011 -0.0656609982 1.84052002
v 0.0540640019 -0.0917109922 1.89786994
v 0.072529994 0.00712499954 1.93051994
v 0.0301670004 -0.094596006 1.94492996
v 0.0566029958 -0.0156218242 1.98564994
v 0.0332299992 -0.0140269995 2.00268006
v 0.00739300018 -0.096036993 1.95956993
v -0 -0.0125969993 2.00899005
v -0.00657199975 -0.0960149914 1.95981991
v -0.0332399979 -0.0139460005 2.00271988
v -0.0614689998 -0.0156218242 1.98353994
v -0.0614689998 -0.0156218242 1.98353994
v -0.0415039994 -0.0904579982 1.92179
v -0.0725279972 0.0071159997 1.93050992
v -0.0415039994 -0.0904579982 1.92179
v -0.0415039994 -0.0904579982 1.92179
v -0.0555479974 -0.0861060023 1.8915199
v -0.0761738792 0.0114369998 1.87177992
v -0.0646369979 -0.075830996 1.86729991
v -0.0711300001 -0.0656759962 1.84307992
v -0.0555479974 -0.0861060023 1.8915199
v -0.0207499992 0.0256159995 1.75298989
v -0.0226379987 0.0033199999 1.70498991
v -0.0588979982 0.0499259979 1.77208996
v -0.0472999997 0.0371289998 1.7798599
v -0.0219700001 0.0262859985 1.76706994
v -0.0146249998 0.00771296863 1.77619994
v -0.0646756217 0.0440290011 1.81239998
v -0 0.0143439993 1.76349998
v -0 0.0233629979 1.74823999
v -0 -0.00140099996 1.70262992
v -0.0424959995 -0.064695999 1.76517999
v -0.0646756217 0.0440290011 1.81239998
v -0.0711300001 -0.0656759962 1.84307992
v -0.00963999983 -0.0613119975 1.72018993
v -0.0761738792 0.0114369998 1.87177992
v -0.00963999983 -0.0613119975 1.72018993
v -0.0484089926 -0.00696499972 1.79036999
v -0.018623 -0.0371049978 1.77312994
v -0.0146249998 0.00771296863 1.77619994
v -0.00674199965 -0.0409049988 1.76860988
v -0.00671599992 -0.0539759994 1.78193998
v -0.0248316638 -0.0480019972 1.78667009
v -0.0561250001 -0.0279569998 1.86667001
v -0.0327955447 -0.0551000014 1.84404993
v -0.0761738792 0.0114369998 1.87177992
v -0.0646756217 0.0440290011 1.81239998
v -0.0110919997 -0.0737599954 1.84160995
v -0.0634659976 -0.037423186 1.92022002
v -0.0528159998 -0.0415159985 1.89442003
v -0.0541029982 -0.0419530012 1.90082991
v -0.0502619967 -0.0398110002 1.90003002
v -0.0353269987 -0.0575769991 1.90147996
v -0.0336330011 -0.053727001 1.90066993
v -0.0164100006 -0.0580729991 1.89255989
v -0.0161759984 -0.0627239943 1.89246988
v -0.0363720022 -0.0652011856 1.91550994
v -0.0343449973 -0.0661788285 1.94327998
v -0.0059799999 -0.0728931874 1.91485
v -0 -0.0764348283 1.94203985
v -0.0616249964 -0.0374038219 1.94647002
v -0.0725279972 0.0071159997 1.93050992
v -0.0301749986 -0.0495398231 1.98893988
v -0 -0.0591838248 1.99468994
v -0 -0.0125969993 2.00899005
v -0.0332399979 -0.0139460005 2.00271988
v -0.0614689998 -0.0156218242 1.98353994
v -0.0614689998 -0.0156218242 1.98353994
v -0.017492 -0.0575089976 1.88813996
v -0.0175800007 -0.0621390007 1.88689995
v -0.0337579995 -0.0568259992 1.88700998
v -0.0321709998 -0.0529979989 1.88794994
v -0.0489819981 -0.0394969992 1.89445007
v -0.0322320014 -0.0562020019 1.87208998
v -0.00819499977 -0.0723059997 1.86627996
v 0.0059799999 -0.0728931874 1.91485
v 0.00819499977 -0.0723059997 1.86627996
v 0.0110919997 -0.0737599954 1.84160995
v 0.00671599992 -0.0539759994 1.78193998
v 0.00674199965 -0.0409049988 1.76860988
v 0.0146249998 0.00771296863 1.77619994
v -0.0146249998 0.00771296863 1.77619994
v 0.0248316638 -0.0480019972 1.78667009
v 0.0327955447 -0.0551000014 1.84404993
v 0.0561250001 -0.0279569998 1.86667001
v 0.0484089926 -0.00696499972 1.79036999
v 0.0761738792 0.0114369998 1.87177992
v 0.0646756217 0.0440290011 1.81239998
v 0.0634659976 -0.037423186 1.92022002
v 0.072529994 0.00712499954 1.93051994
v 0.0616619997 -0.0373648256 1.94647002
v 0.0343449973 -0.0661788285 1.94327998
v 0.0363720022 -0.0652011856 1.91550994
v 0.0301780012 -0.0495498255 1.98891008
v 0.0332299992 -0.0140269995 2.00268006
v 0.0566029958 -0.0156218242 1.98564994
v 0.018623 -0.0371049978 1.77312994
v 0.0146249998 0.00771296863 1.77619994
v 0.0541029982 -0.0419530012 1.90082991
v 0.0528159998 -0.0415159985 1.89442003
v 0.0502619967 -0.0398110002 1.90003002
v 0.0353269987 -0.0575769991 1.90147996
v 0.0161759984 -0.0627239943 1.89246988
v 0.0336330011 -0.053727001 1.90066993
v 0.0164100006 -0.0580729991 1.89255989
v 0.017492 -0.0575089976 1.88813996
v 0.0175800007 -0.0621390007 1.88689995
v 0.0337579995 -0.0568259992 1.88700998
v 0.0321709998 -0.0529979989 1.88794994
v 0.0489819981 -0.0394969992 1.89445007
v 0.0322320014 -0.0562020019 1.87208998
v -0.0761738792 0.0114369998 1.87177992
vt 0.916874886 0.834373832
vt 0.861092806 0.868414402
vt 0.948603332 0.848720431
vt 0.85689193 0.852379799
vt 0.860305965 0.809793234
vt 0.780531883 0.793815374
vt 0.783343077 0.860810757
vt 0.69484973 0.835639358
vt 0.685725629 0.782256961
vt 0.618786275 0.796015143
vt 0.576111615 0.743587375
vt 0.887011707 0.929251313
vt 0.969626129 0.87244606
vt 0.972536385 0.863097429
vt 0.957323372 0.846239328
vt 0.689018428 0.85610497
vt 0.785234928 0.8768363
vt 0.526871443 0.818912148
vt 0.457009107 0.735381246
vt 0.402017027 0.781557679
vt 0.503881574 0.877368689
vt 0.610399842 0.884648442
vt 0.590282559 0.953500867
vt 0.694991052 0.942249179
vt 0.691769063 0.897688031
vt 0.789524496 0.911480665
vt 0.796275675 0.949185371
vt 0.690762043 0.98715508
vt 0.805853367 0.972428441
vt 0.805853367 0.972428441
vt 0.364378035 0.686813354
vt 0.44132185 0.672402024
vt 0.347351015 0.629590869
vt 0.426204473 0.608632922
vt 0.345173091 0.599238157
vt 0.495128602 0.652589202
vt 0.482056856 0.59283793
vt 0.521646678 0.640711784
vt 0.519129097 0.581927896
vt 0.482253432 0.575007141
vt 0.515955329 0.565124869
vt 0.607565165 0.549708366
vt 0.610544205 0.56641835
vt 0.600392342 0.519677222
vt 0.699570298 0.473065257
vt 0.705526531 0.509784997
vt 0.772353709 0.490778267
vt 0.756720901 0.439316034
vt 0.850987017 0.482633889
vt 0.832292676 0.397451937
vt 0.888099194 0.361743569
vt 0.94146502 0.494072855
vt 0.747163296 0.392336428
vt 0.824768007 0.342699051
vt 0.877738595 0.295639455
vt 0.671552002 0.457091689
vt 0.511757255 0.547932684
vt 0.933036923 0.325246572
vt 0.89955914 0.268975317
vt 0.958669543 0.36886096
vt 0.975686371 0.409480155
vt 0.830594301 0.270464659
vt 0.79289633 0.324635506
vt 0.747163296 0.392336428
vt 0.869805336 0.241544545
vt 0.470305055 0.553269625
vt 0.424482405 0.589324832
vt 0.425958335 0.557699502
vt 0.43309328 0.485120237
vt 0.48137337 0.489652693
vt 0.389368415 0.488460839
vt 0.344472736 0.563509762
vt 0.345173091 0.599238157
vt 0.344761044 0.496842861
vt 0.877738595 0.295639455
vt 0.89955914 0.268975317
vt 0.556682348 0.497781992
vt 0.609327674 0.474967539
vt 0.671552002 0.457091689
vt 0.643744826 0.683323741
vt 0.734671772 0.626080871
vt 0.611518323 0.627197385
vt 0.764366508 0.678864837
vt 0.535340786 0.682564855
vt 0.684222937 0.748040199
vt 0.784115314 0.75692749
vt 0.823707759 0.632216096
vt 0.852525949 0.693832159
vt 0.868798614 0.775737762
vt 0.589197338 0.728639126
vt 0.511591196 0.690369606
vt 0.921416044 0.672151446
vt 0.910671175 0.628000736
vt 0.91984278 0.629208922
vt 0.929277062 0.671114206
vt 0.938554466 0.714750051
vt 0.806310654 0.603422642
vt 0.794812977 0.570110381
vt 0.720916927 0.59466815
vt 0.706810057 0.561998248
vt 0.981621802 0.41512388
vt 0.948230565 0.497257411
vt 0.94146502 0.494072855
vt 0.975686371 0.409480155
vt 0.910671175 0.628000736
vt 0.945726693 0.767050862
vt 0.934521317 0.768937111
vt 0.957323372 0.846239328
vt 0.934521317 0.768937111
vt 0.930890441 0.717008948
vt 0.938554466 0.714750051
vt 0.945726693 0.767050862
vt 0.930890441 0.717008948
vt 0.542578161 0.367908925
vt 0.563059449 0.454571456
vt 0.614021719 0.378910214
vt 0.555195034 0.298027486
vt 0.527877927 0.29987672
vt 0.543761075 0.197599426
vt 0.512092412 0.197404221
vt 0.491884023 0.132084623
vt 0.628498614 0.291560084
vt 0.558946013 0.0963031054
vt 0.470576286 0.0457667485
vt 0.612666309 0.177925304
vt 0.628498614 0.291560084
vt 0.464394897 0.293074697
vt 0.454209894 0.195713058
vt 0.376358181 0.291731685
vt 0.364418089 0.188554063
vt 0.328279346 0.279001385
vt 0.289505124 0.182489708
vt 0.349789977 0.0956512094
vt 0.270787358 0.0914157033
vt 0.435955346 0.115103602
vt 0.345350385 0.0446487144
vt 0.334994107 0.35677281
vt 0.409586161 0.374168903
vt 0.493540168 0.373756498
vt 0.349574953 0.388777882
vt 0.303965926 0.40048179
vt 0.351718336 0.442111164
vt 0.441728622 0.416480511
vt 0.450805664 0.449060649
vt 0.52376318 0.444602102
vt 0.355151147 0.450341612
vt 0.449826211 0.456300884
vt 0.523236573 0.45225969
vt 0.561321378 0.463063568
vt 0.291037738 0.371462673
vt 0.228678375 0.412817687
vt 0.25839597 0.348732501
vt 0.203012824 0.333393902
vt 0.176197082 0.39388302
vt 0.148881257 0.335007459
vt 0.136316508 0.389759094
vt 0.105251685 0.335109502
vt 0.086393699 0.390082091
vt 0.112167716 0.460290104
vt 0.0553205907 0.464018852
vt 0.14463523 0.252810627
vt 0.16908747 0.267512769
vt 0.185426384 0.169864431
vt 0.0915521383 0.505812287
vt 0.0414989069 0.487861425
vt 0.131362915 0.518996418
vt 0.150672257 0.460182816
vt 0.1745781 0.465371937
vt 0.225256592 0.265080422
vt 0.21977061 0.177290037
vt 0.25235182 0.180307642
vt 0.292775601 0.269874543
vt 0.185426384 0.169864431
vt 0.193796992 0.0869626999
vt 0.217188716 0.0846650004
vt 0.17665717 0.089884758
vt 0.181758314 0.0109266732
vt 0.150874197 0.0172495339
vt 0.208344519 0.0101455245
vt 0.181758314 0.0109266732
vt 0.258232385 0.019642273
vt 0.12362963 0.0770598054
vt 0.0998021811 0.0410883501
vt 0.150559396 0.137721851
vt 0.185426384 0.169864431
vt 0.146339744 0.191757873
vt 0.14463523 0.252810627
vt 0.185426384 0.169864431
vt 0.249695972 0.504897177
vt 0.247887924 0.436580688
vt 0.190020084 0.473953933
vt 0.294765502 0.480584294
vt 0.297834963 0.487386078
vt 0.253362447 0.510695159
vt 0.176579267 0.543678582
vt 0.170287609 0.53922081
vt 0.123509675 0.545011163
vt 0.159071058 0.559391618
vt 0.0808849633 0.529451191
vt 0.0300413519 0.507134438
vt 0.0553205907 0.464018852
vt 0.0101683307 0.476660639
vt 0.0198836159 0.43409577
vt 0.0537828729 0.385981232
vt 0.086393699 0.390082091
vt 0.105251685 0.335109502
vt 0.0414989069 0.487861425
vt 0.0300413519 0.507134438
vt 0.165826708 0.561887324
vt 0.176579267 0.543678582
vt 0.159071058 0.559391618
vt 0.962680042 0.204084828
vt 0.9405123 0.190053344
vt 0.951171339 0.233357608
vt 0.948015869 0.185597837
vt 0.963140368 0.194978178
vt 0.974378467 0.186928108
vt 0.936543286 0.166604936
vt 0.979864419 0.19995527
vt 0.975439608 0.211726263
vt 0.960239649 0.245262548
vt 0.993295252 0.195549995
vt 0.918965995 0.2650235
vt 0.951171339 0.233357608
vt 0.924399912 0.274306267
vt 0.951171339 0.233357608
vt 0.887197495 0.230875909
vt 0.9405123 0.190053344
vt 0.874515593 0.210138679
vt 0.936543286 0.166604936
vt 0.895547152 0.1395953
vt 0.856650352 0.183210447
vt 0.820931375 0.153075472
vt 0.87590152 0.103217907
vt 0.800249338 0.12226852
vt 0.850602269 0.0708535016
vt 0.831971705 0.0602925718
vt 0.785951674 0.109702736
vt 0.812427402 0.0467702821
vt 0.777275145 0.105135441
vt 0.790073812 0.0387036353
vt 0.76719451 0.0288850516
vt 0.76719451 0.0288850516
vt 0.741182685 0.0999906436
vt 0.728334486 0.0290065184
vt 0.741182685 0.0999906436
vt 0.741182685 0.0999906436
vt 0.717556 0.100127816
vt 0.68749702 0.035446506
vt 0.698444128 0.0960682929
vt 0.679756403 0.0926969945
vt 0.717556 0.100127816
vt 0.591714978 0.0279103033
vt 0.577542663 0.0573587231
vt 0.617858887 0.035235811
vt 0.616251409 0.0263114795
vt 0.598445356 0.0211310573
vt 0.596789658 0.00655110087
vt 0.640193045 0.0223140158
vt 0.582617223 0.011551002
vt 0.57655853 0.0234771706
vt 0.562057436 0.0587512776
vt 0.622624338 0.104144126
vt 0.640193045 0.0223140158
vt 0.679756403 0.0926969945
vt 0.577371657 0.103066139
vt 0.68749702 0.035446506
vt 0.577371657 0.103066139
vt 0.0955905467 0.66918999
vt 0.150187716 0.663569033
vt 0.101215065 0.616196215
vt 0.16874364 0.65631932
vt 0.171312019 0.682412446
vt 0.151611805 0.685741246
vt 0.0860471725 0.778228939
vt 0.136380836 0.75305742
vt 0.0192075428 0.777986586
vt 0.0109837782 0.664843976
vt 0.1661755 0.752509058
vt 0.0822820365 0.854415238
vt 0.104876563 0.815674126
vt 0.104285181 0.826708972
vt 0.10964568 0.823059261
vt 0.133289039 0.831098378
vt 0.131889835 0.825781882
vt 0.14785704 0.81541127
vt 0.154132128 0.816266
vt 0.131916136 0.846873224
vt 0.134405941 0.880258381
vt 0.169286862 0.844203293
vt 0.176537171 0.87719053
vt 0.083916679 0.891148984
vt 0.0268731583 0.876139224
vt 0.136812165 0.941054881
vt 0.175966203 0.940333188
vt 0.176469207 0.993965089
vt 0.12258485 0.979122579
vt 0.0698583573 0.955153883
vt 0.0698583573 0.955153883
vt 0.147390217 0.811293662
vt 0.151841342 0.807493269
vt 0.131819084 0.804371893
vt 0.131891683 0.80951494
vt 0.110700503 0.817432106
vt 0.133151084 0.787181795
vt 0.167908818 0.780344069
vt 0.184662282 0.844420135
vt 0.187658697 0.780384481
vt 0.189846188 0.752905309
vt 0.187398553 0.682936251
vt 0.190869391 0.656281054
vt 0.203659981 0.572044075
vt 0.155663729 0.572126389
vt 0.206905082 0.68674475
vt 0.219779313 0.754135787
vt 0.269338787 0.780828059
vt 0.263700783 0.672068536
vt 0.33590731 0.782883942
vt 0.348129153 0.670841396
vt 0.270804793 0.856710613
vt 0.325027794 0.880403221
vt 0.268117011 0.892901242
vt 0.218622118 0.881069601
vt 0.22184065 0.847833335
vt 0.215274647 0.941314042
vt 0.229722485 0.978791535
vt 0.275617152 0.959975779
vt 0.209223956 0.664388597
vt 0.260166287 0.618947327
vt 0.24977617 0.828651726
vt 0.249480113 0.817611158
vt 0.244590566 0.824888647
vt 0.220955744 0.832153857
vt 0.200400457 0.816838086
vt 0.222419724 0.827004373
vt 0.206683636 0.816119015
vt 0.207256377 0.812011182
vt 0.202891693 0.808077991
vt 0.222922802 0.805528581
vt 0.222723633 0.810727656
vt 0.243685439 0.819211423
vt 0.222088903 0.788214505
vt 0.0192075428 0.777986586
vn -0.570997834 -0.708912075 0.41401124
vn -0.406750232 -0.665507317 0.625822842
vn -0.0552750081 -0.9862656 0.155643627
vn -0.762870491 -0.558113456 0.326401591
vn -0.797943532 -0.5267663 0.292922258
vn -0.924064875 -0.301497579 0.234953985
vn -0.79517591 -0.330741704 0.508237362
vn -0.830404937 0.153620154 0.535563767
vn -0.967035353 0.138685897 0.21356225
vn -0.646115541 0.651547611 0.3975178
vn -0.585045457 0.727934182 0.357538372
vn 0.227778271 -0.654237509 0.721172869
vn 0.124698803 -0.977784634 0.168485969
vn -0.246881947 -0.207791626 -0.946505129
vn 0.320380509 -0.223551154 -0.920533061
vn -0.517286599 0.290599287 0.804963708
vn -0.40687111 -0.340674758 0.847582877
vn -0.0837721303 0.918647766 0.386094064
vn 0.127062052 0.86383307 0.487491071
vn 0.429350138 0.815115929 0.388901681
vn 0.241234109 0.883467793 0.401610136
vn -0.194682971 0.713159144 0.673425913
vn 0.29943803 0.633997142 0.713010907
vn -0.107479125 0.163583457 0.980657279
vn -0.340899915 0.217111215 0.914685667
vn -0.131283283 -0.344087869 0.929714143
vn 0.0837212279 -0.39565599 0.914574802
vn 0.409836829 0.107697792 0.905778646
vn 0.442944676 -0.392465889 0.806083441
vn 0.442944676 -0.392465889 0.806083441
vn 0.404587507 0.769849658 0.493599534
vn 0.113440193 0.839387655 0.531563282
vn 0.372477829 0.896397591 0.240274131
vn 0.0555753112 0.974790335 0.216090813
vn 0.318411767 0.802400589 -0.504744768
vn -0.372880995 0.798534334 0.472549051
vn -0.38577795 0.875268638 0.291685045
vn -0.687386215 0.539448619 0.486307859
vn -0.750543892 0.607458591 0.260149747
vn -0.414707989 0.798130453 -0.437041193
vn -0.755484939 0.503007352 -0.41979295
vn -0.950024307 0.204150781 -0.236169949
vn -0.878615499 0.248975307 0.407487541
vn -0.497367978 0.109385811 -0.860615969
vn -0.872560143 -0.10830085 -0.476350605
vn -0.782484412 -0.0354134962 -0.621662199
vn -0.827787638 -0.265696526 -0.494138658
vn -0.925238669 -0.281218886 -0.254655361
vn -0.754018784 -0.535363495 -0.380580693
vn -0.763083696 -0.533243477 -0.365177661
vn -0.527778089 -0.631058693 -0.568520069
vn -0.0661525801 -0.995746553 -0.0641313344
vn -0.912813365 -0.406919539 -0.0344695598
vn -0.511368036 0.41595158 -0.751988709
vn -0.446788043 0.423788428 -0.787898362
vn -0.965012014 -0.260882825 -0.0263060462
vn -0.431469768 0.204195827 -0.878713787
vn -0.235420868 -0.543775737 -0.805534005
vn -0.234776706 0.568132758 -0.788736463
vn -0.289659232 -0.749665439 -0.595062375
vn -0.0834402815 -0.996266782 -0.0221433658
vn -0.00267697312 0.991405606 0.130796641
vn 0.529677451 0.828114986 0.183486819
vn -0.912813365 -0.406919539 -0.0344695598
vn -0 0.994221628 0.1073469
vn -0.146497518 0.316179574 -0.937320113
vn 0.0389313549 0.85978055 -0.509177506
vn 0.0155060776 0.333634734 -0.942574859
vn -0.0562220998 0.139478445 -0.988627732
vn -0.207835644 0.00227778871 -0.978161097
vn 0.0318397395 0.203170493 -0.978625536
vn 0.140404001 0.373987883 -0.916744053
vn 0.318411767 0.802400589 -0.504744768
vn 0.0700653195 0.257969022 -0.963609278
vn -0.446788043 0.423788428 -0.787898362
vn -0.234776706 0.568132758 -0.788736463
vn 0.0445499532 -0.134514228 -0.989909768
vn 0.599299252 0.391985416 -0.697988451
vn -0.965012014 -0.260882825 -0.0263060462
vn -0.976314902 0.178237319 0.122640423
vn -0.787167788 -0.0255715102 0.616208434
vn -0.759506226 0.243147328 0.603348732
vn -0.980869949 -0.12795949 0.146698043
vn -0.780025065 0.553468943 0.291946948
vn -0.992012441 0.121871002 -0.03253996
vn -0.958174169 -0.280138612 0.0585201234
vn -0.850159526 -0.280822605 0.445384622
vn -0.930719554 -0.29973495 0.209571004
vn -0.866261542 -0.446552157 0.224013716
vn -0.924225092 0.371436179 0.0885611922
vn -0.297443599 0.821538091 0.486417979
vn -0.51560694 -0.846460223 -0.132870167
vn -0.443338484 -0.894069791 -0.0639553517
vn 0.868132234 -0.492403358 -0.0623326637
vn 0.765150905 -0.461977094 -0.448465526
vn 0.71502459 -0.559675694 -0.418930739
vn -0.854655325 -0.309849203 0.416602522
vn -0.914504766 -0.402145982 -0.0442678705
vn -0.792065322 -0.0781990588 0.605406702
vn -0.990613103 -0.121523172 0.0625931025
vn 0.427775323 -0.147462338 0.89177525
vn 0.847380877 -0.346956164 0.401954025
vn -0.0661525801 -0.995746553 -0.0641313344
vn -0.0834402815 -0.996266782 -0.0221433658
vn -0.443338484 -0.894069791 -0.0639553517
vn 0.788748384 -0.323591709 -0.522651315
vn -0.370180368 -0.928951979 0.00386074698
vn 0.320380509 -0.223551154 -0.920533061
vn -0.370180368 -0.928951979 0.00386074698
vn -0.544198573 -0.836923182 -0.0583745725
vn 0.71502459 -0.559675694 -0.418930739
vn 0.788748384 -0.323591709 -0.522651315
vn -0.544198573 -0.836923182 -0.0583745725
vn 0.723499179 -0.560521007 0.402945608
vn 0.124698803 -0.977784634 0.168485969
vn 0.227778271 -0.654237509 0.721172869
vn 0.742722392 -0.392143697 0.542758524
vn 0.920193553 -0.331398249 0.208372131
vn 0.745371401 0.0695402622 0.663012564
vn 0.948578954 0.116425306 0.294352114
vn 0.753012478 0.527471364 0.393377811
vn 0.442944676 -0.392465889 0.806083441
vn 0.29943803 0.633997142 0.713010907
vn 0.241234109 0.883467793 0.401610136
vn 0.409836829 0.107697792 0.905778646
vn 0.442944676 -0.392465889 0.806083441
vn 0.961590827 -0.230316937 0.149322063
vn 0.986939192 0.13765572 0.0836777464
vn 0.922532439 -0.110021308 0.369904369
vn 0.931478024 0.205293 0.300338894
vn 0.967503011 -0.00520223612 0.252806127
vn 0.744012594 0.170696303 0.645993888
vn 0.780837536 0.542498469 0.309819639
vn 0.572598577 0.554451406 0.60391593
vn 0.798298061 0.555108607 0.233612001
vn 0.429350138 0.815115929 0.388901681
vn 0.946821034 -0.187147513 0.261736065
vn 0.891409457 -0.152585089 0.426739782
vn 0.896973073 -0.373635113 0.236296654
vn 0.881098747 -0.381149918 0.279981762
vn 0.833863318 -0.491027951 -0.252118021
vn 0.364368558 -0.925203264 -0.105993301
vn 0.897907376 -0.298794836 0.323239833
vn 0.458324552 -0.888784826 0.000414541195
vn 0.343199253 -0.929042161 0.138184026
vn -0.809063613 -0.586406767 -0.0392808467
vn -0.700945079 -0.560131311 -0.441507548
vn -0.711200118 -0.324494451 -0.623616755
vn -0.246881947 -0.207791626 -0.946505129
vn 0.935041487 -0.10945981 -0.337218076
vn 0.866076946 -0.301257551 -0.398941875
vn 0.939525187 -0.292436421 -0.178250626
vn 0.884913683 -0.319731742 -0.338672966
vn 0.783160627 -0.531651497 -0.322499812
vn 0.934467971 -0.202232957 -0.29303816
vn 0.819638968 -0.389373273 -0.420214742
vn 0.919267952 -0.391052634 0.0449919589
vn 0.216580823 0.530359864 -0.819640875
vn 0.53110534 -0.514496386 -0.673216641
vn 0.49297601 0.423585296 -0.759967148
vn 0.957277775 -0.27088663 -0.101191074
vn 0.903852224 -0.106534131 -0.414369136
vn 0.629104197 0.16940251 -0.758637428
vn 0.205509201 -0.548514843 -0.810492098
vn 0.231374279 0.571403623 -0.787377775
vn 0.237025231 -0.772500932 -0.589119017
vn 0.53441757 -0.811142862 -0.237582028
vn 0.803367257 -0.458171397 -0.380368412
vn 0.976930141 -0.152133033 -0.149876669
vn 0.981246889 0.189982772 -0.0325719118
vn 0.791680694 0.136508152 0.595489085
vn 0.97202456 -0.166470543 0.165697828
vn 0.629104197 0.16940251 -0.758637428
vn 0.654280126 0.664593279 -0.360878408
vn 0.613281667 0.722325921 0.319579154
vn 0.43256104 0.321882576 -0.842189133
vn 0.318411767 0.802400589 -0.504744768
vn 0.140404001 0.373987883 -0.916744053
vn 0.372477829 0.896397591 0.240274131
vn 0.318411767 0.802400589 -0.504744768
vn 0.404587507 0.769849658 0.493599534
vn 0.184308097 0.101942755 -0.977567434
vn 0.0700653195 0.257969022 -0.963609278
vn 0.0368588082 -0.133502096 -0.990362823
vn 0.629104197 0.16940251 -0.758637428
vn -0.512257934 0.452960163 -0.729670465
vn 0.957277775 -0.27088663 -0.101191074
vn 0.629104197 0.16940251 -0.758637428
vn -0.121777475 -0.99186784 0.0369915068
vn 0.787317514 -0.395287335 -0.473158598
vn 0.69488889 -0.340480745 -0.633405387
vn -0.0104789492 -0.99982965 -0.0151957553
vn -0.8086043 -0.44434607 0.385636836
vn -0.848197579 -0.27541706 0.452444702
vn -0.552177846 -0.105580986 0.827014089
vn 0.0583432503 -0.996356368 0.0622101836
vn -0.289659232 -0.749665439 -0.595062375
vn -0.0834402815 -0.996266782 -0.0221433658
vn -0.235420868 -0.543775737 -0.805534005
vn -0.234776706 0.568132758 -0.788736463
vn 0.49297601 0.423585296 -0.759967148
vn -0 0.994221628 0.1073469
vn 0.0148634566 0.992609203 0.120441318
vn -0.519955158 0.779451013 0.349431932
vn 0.216580823 0.530359864 -0.819640875
vn 0.919267952 -0.391052634 0.0449919589
vn 0.231374279 0.571403623 -0.787377775
vn -0.234776706 0.568132758 -0.788736463
vn 0.427775323 -0.147462338 0.89177525
vn -0.552177846 -0.105580986 0.827014089
vn -0.0834402815 -0.996266782 -0.0221433658
vn 0.323817044 -0.932792246 0.158243909
vn -0.448553056 -0.866020441 0.220927224
vn -0.462320566 -0.316170037 0.828429937
vn 0.635814369 -0.728505671 -0.254989445
vn 0.502355456 -0.799230158 -0.329954743
vn 0.369929403 -0.249879971 -0.894825339
vn -0.370850146 -0.657109857 -0.656259716
vn 4.17226147E-06 -0.848069847 -0.529884517
vn -0 -0.999626517 0.0273265466
vn -0.00994727481 -0.300930738 0.953594089
vn -0.369927108 -0.249888271 -0.894823909
vn -0.552177846 -0.105580986 0.827014089
vn -0.462320566 -0.316170037 0.828429937
vn 0.427775323 -0.147462338 0.89177525
vn -0.462320566 -0.316170037 0.828429937
vn -0.848197579 -0.27541706 0.452444702
vn -0.448553056 -0.866020441 0.220927224
vn -0.8086043 -0.44434607 0.385636836
vn -0.370850146 -0.657109857 -0.656259716
vn -0.321421832 -0.87984395 -0.350089699
vn -0.809063613 -0.586406767 -0.0392808467
vn -0.700945079 -0.560131311 -0.441507548
vn 0.309795558 0.863027215 -0.399012357
vn -0.711200118 -0.324494451 -0.623616755
vn 0.527298212 0.650654018 0.546448469
vn 0.160762712 0.840732276 0.517034352
vn -0.246881947 -0.207791626 -0.946505129
vn 0.000100958518 0.874263823 0.485451132
vn 0.320380509 -0.223551154 -0.920533061
vn -0.149181843 0.844481528 0.514388859
vn -0.807555258 0.541146636 0.234552458
vn -0.807555258 0.541146636 0.234552458
vn 0.788748384 -0.323591709 -0.522651315
vn -0.270812482 0.895071447 -0.354270756
vn 0.788748384 -0.323591709 -0.522651315
vn 0.788748384 -0.323591709 -0.522651315
vn 0.71502459 -0.559675694 -0.418930739
vn 0.321719944 -0.825201094 -0.464262277
vn 0.765150905 -0.461977094 -0.448465526
vn 0.868132234 -0.492403358 -0.0623326637
vn 0.71502459 -0.559675694 -0.418930739
vn -0.323817521 -0.932793975 0.158232331
vn 0.427514195 -0.348197818 0.834260106
vn 0.448502213 -0.873577297 0.188966841
vn -0.635820985 -0.728499353 -0.254990757
vn -0.502349555 -0.799230993 -0.329961658
vn -0.369927108 -0.249888271 -0.894823909
vn 0.355116606 -0.737143099 -0.574902058
vn 4.17226147E-06 -0.848069847 -0.529884517
vn -0 -0.999626517 0.0273265466
vn -0.00994727481 -0.300930738 0.953594089
vn 0.847380877 -0.346956164 0.401954025
vn 0.355116606 -0.737143099 -0.574902058
vn 0.868132234 -0.492403358 -0.0623326637
vn 0.427775323 -0.147462338 0.89177525
vn 0.321719944 -0.825201094 -0.464262277
vn 0.427775323 -0.147462338 0.89177525
vn -0.767003 -0.140064359 -0.626169682
vn -0.497755229 -0.265162468 -0.82578969
vn -0.369927108 -0.249888271 -0.894823909
vn -0.198809087 -0.333883435 -0.921410203
vn -0.194101155 -0.82954067 -0.523628712
vn -0.626851857 -0.640905738 -0.443053752
vn -0.834533274 -0.518410027 -0.186561972
vn -0.722736895 -0.684402406 -0.0961497352
vn 0.321719944 -0.825201094 -0.464262277
vn 0.355116606 -0.737143099 -0.574902058
vn -0.338960737 -0.936123371 -0.0936943963
vn -0.871020079 -0.489839315 -0.0371682644
vn -0.415751457 -0.907323122 0.062574096
vn -0.507260382 -0.775418341 -0.376049817
vn 0.263821065 -0.726549208 -0.634448349
vn -0.448725343 -0.523349643 -0.724396765
vn -0.264876604 -0.085514158 -0.960483015
vn -0.883645892 -0.0353224464 -0.466821313
vn -0.767372727 -0.601877809 -0.221093073
vn -0.498043925 -0.847906172 -0.181679368
vn -0.489181399 -0.856257915 0.165903375
vn -0.183686599 -0.978219271 -0.0966756642
vn 8.07582182E-07 -0.991636455 0.129062697
vn -0.855900407 -0.48882553 0.16877234
vn -0.270812482 0.895071447 -0.354270756
vn -0.458399713 -0.630155385 0.626716852
vn 0.000160293886 -0.716381192 0.697709143
vn 0.000100958518 0.874263823 0.485451132
vn -0.149181843 0.844481528 0.514388859
vn -0.807555258 0.541146636 0.234552458
vn -0.807555258 0.541146636 0.234552458
vn -0.625654578 -0.188624695 0.756952405
vn -0.65801686 -0.677242994 0.32917437
vn -0.362047851 -0.777372122 0.514406323
vn 0.0363518931 -0.252490789 0.966916203
vn 0.327628285 -0.6337111 0.700763881
vn -0.609890282 -0.791662335 -0.036117252
vn -0.315864384 -0.947163463 0.0557772815
vn 0.183686599 -0.978219271 -0.0966756642
vn 0.315864354 -0.947163463 0.0557772815
vn 0.338960856 -0.936123371 -0.0936944038
vn 0.194101125 -0.82954067 -0.523628652
vn 0.198809072 -0.333883435 -0.921410203
vn 0.369929403 -0.249879971 -0.894825339
vn -0.369927108 -0.249888271 -0.894823909
vn 0.626851857 -0.640905738 -0.443053752
vn 0.722736835 -0.684402406 -0.0961497277
vn 0.834533274 -0.518410027 -0.186561972
vn 0.767003 -0.140064359 -0.626169682
vn -0.321421832 -0.87984395 -0.350089699
vn -0.370850146 -0.657109857 -0.656259716
vn 0.870954335 -0.489937663 -0.0374098681
vn 0.309795558 0.863027215 -0.399012357
vn 0.862679183 -0.466904581 0.194382906
vn 0.489185542 -0.856253624 0.165913701
vn 0.498043925 -0.847906172 -0.181679368
vn 0.469102979 -0.623649418 0.62530297
vn 0.160762712 0.840732276 0.517034352
vn 0.527298212 0.650654018 0.546448469
vn 0.497755229 -0.265162408 -0.82578969
vn 0.369929403 -0.249879971 -0.894825339
vn 0.507260382 -0.775418341 -0.376049817
vn 0.415751457 -0.907323122 0.0625741035
vn -0.263821065 -0.726549208 -0.634448349
vn 0.448725343 -0.523349643 -0.724396765
vn 0.767372727 -0.601877809 -0.221093073
vn 0.264876604 -0.085514158 -0.960483015
vn 0.883645892 -0.0353224464 -0.466821313
vn 0.625654578 -0.188624695 0.756952405
vn 0.65801686 -0.677242994 0.32917437
vn 0.362047851 -0.777372122 0.514406323
vn -0.0363518931 -0.252490789 0.966916203
vn -0.327628285 -0.6337111 0.700763881
vn 0.609890282 -0.791662335 -0.036117252
vn 0.321719944 -0.825201094 -0.464262277
g blue_asn_m_pve_2_helm_0
f 3/3/3 2/2/2 1/1/1
f 4/4/4 1/1/1 2/2/2
f 4/4/4 5/5/5 1/1/1
f 5/5/5 4/4/4 6/6/6
f 7/7/7 6/6/6 4/4/4
f 7/7/7 8/8/8 6/6/6
f 9/9/9 6/6/6 8/8/8
f 8/8/8 10/10/10 9/9/9
f 11/11/11 9/9/9 10/10/10
f 2/2/2 3/3/3 12/12/12
f 13/13/13 12/12/12 3/3/3
f 13/13/13 3/3/3 14/14/14
f 15/15/15 14/14/14 3/3/3
f 8/8/8 7/7/7 16/16/16
f 8/8/8 16/16/16 10/10/10
f 17/17/17 16/16/16 7/7/7
f 7/7/7 4/4/4 17/17/17
f 2/2/2 17/17/17 4/4/4
f 11/11/11 10/10/10 18/18/18
f 18/18/18 19/19/19 11/11/11
f 19/19/19 18/18/18 20/20/20
f 21/21/21 20/20/20 18/18/18
f 18/18/18 22/22/22 21/21/21
f 22/22/22 18/18/18 10/10/10
f 10/10/10 16/16/16 22/22/22
f 23/23/23 21/21/21 22/22/22
f 22/22/22 24/24/24 23/23/23
f 22/22/22 25/25/25 24/24/24
f 16/16/16 17/17/17 25/25/25
f 25/25/25 22/22/22 16/16/16
f 25/25/25 26/26/26 24/24/24
f 26/26/26 25/25/25 17/17/17
f 27/27/27 24/24/24 26/26/26
f 27/27/27 26/26/26 12/12/12
f 24/24/24 27/27/27 28/28/28
f 28/28/28 23/23/23 24/24/24
f 29/29/29 28/28/28 27/27/27
f 17/17/17 2/2/2 26/26/26
f 12/12/12 26/26/26 2/2/2
f 30/30/30 27/27/27 12/12/12
f 20/20/20 31/31/31 19/19/19
f 32/32/32 19/19/19 31/31/31
f 31/31/31 33/33/33 32/32/32
f 34/34/34 32/32/32 33/33/33
f 33/33/33 35/35/35 34/34/34
f 32/32/32 34/34/34 36/36/36
f 37/37/37 36/36/36 34/34/34
f 36/36/36 37/37/37 38/38/38
f 39/39/39 38/38/38 37/37/37
f 37/37/37 40/40/40 39/39/39
f 41/41/41 39/39/39 40/40/40
f 41/41/41 42/42/42 39/39/39
f 43/43/43 39/39/39 42/42/42
f 42/42/42 41/41/41 44/44/44
f 42/42/42 44/44/44 45/45/45
f 45/45/45 46/46/46 42/42/42
f 46/46/46 45/45/45 47/47/47
f 48/48/48 47/47/47 45/45/45
f 47/47/47 48/48/48 49/49/49
f 50/50/50 49/49/49 48/48/48
f 50/50/50 51/51/51 49/49/49
f 52/52/52 49/49/49 51/51/51
f 48/48/48 53/53/53 50/50/50
f 54/54/54 50/50/50 53/53/53
f 50/50/50 54/54/54 51/51/51
f 55/55/55 51/51/51 54/54/54
f 56/56/56 45/45/45 44/44/44
f 53/53/53 48/48/48 56/56/56
f 45/45/45 56/56/56 48/48/48
f 57/57/57 44/44/44 41/41/41
f 51/51/51 55/55/55 58/58/58
f 59/59/59 58/58/58 55/55/55
f 58/58/58 60/60/60 51/51/51
f 52/52/52 51/51/51 60/60/60
f 60/60/60 61/61/61 52/52/52
f 55/55/55 54/54/54 62/62/62
f 63/63/63 62/62/62 54/54/54
f 64/64/64 63/63/63 54/54/54
f 62/62/62 65/65/65 55/55/55
f 66/66/66 57/57/57 40/40/40
f 41/41/41 40/40/40 57/57/57
f 40/40/40 67/67/67 66/66/66
f 68/68/68 66/66/66 67/67/67
f 68/68/68 69/69/69 66/66/66
f 70/70/70 66/66/66 69/69/69
f 66/66/66 70/70/70 57/57/57
f 69/69/69 68/68/68 71/71/71
f 72/72/72 71/71/71 68/68/68
f 68/68/68 67/67/67 72/72/72
f 73/73/73 72/72/72 67/67/67
f 67/67/67 34/34/34 73/73/73
f 40/40/40 37/37/37 67/67/67
f 34/34/34 67/67/67 37/37/37
f 74/74/74 71/71/71 72/72/72
f 76/76/76 75/75/75 65/65/65
f 77/77/77 57/57/57 70/70/70
f 57/57/57 77/77/77 44/44/44
f 78/78/78 44/44/44 77/77/77
f 78/78/78 79/79/79 44/44/44
f 82/82/82 81/81/81 80/80/80
f 83/83/83 80/80/80 81/81/81
f 80/80/80 84/84/84 82/82/82
f 38/38/38 82/82/82 84/84/84
f 80/80/80 83/83/83 85/85/85
f 86/86/86 85/85/85 83/83/83
f 81/81/81 87/87/87 83/83/83
f 88/88/88 83/83/83 87/87/87
f 83/83/83 88/88/88 86/86/86
f 89/89/89 86/86/86 88/88/88
f 85/85/85 86/86/86 9/9/9
f 6/6/6 9/9/9 86/86/86
f 86/86/86 89/89/89 6/6/6
f 9/9/9 11/11/11 85/85/85
f 90/90/90 85/85/85 11/11/11
f 85/85/85 90/90/90 80/80/80
f 84/84/84 80/80/80 90/90/90
f 90/90/90 11/11/11 84/84/84
f 38/38/38 84/84/84 36/36/36
f 91/91/91 36/36/36 84/84/84
f 91/91/91 84/84/84 11/11/11
f 91/91/91 11/11/11 19/19/19
f 19/19/19 32/32/32 91/91/91
f 36/36/36 91/91/91 32/32/32
f 87/87/87 92/92/92 88/88/88
f 92/92/92 87/87/87 93/93/93
f 93/93/93 94/94/94 92/92/92
f 95/95/95 92/92/92 94/94/94
f 95/95/95 96/96/96 92/92/92
f 97/97/97 93/93/93 87/87/87
f 97/97/97 98/98/98 93/93/93
f 97/97/97 99/99/99 98/98/98
f 100/100/100 98/98/98 99/99/99
f 100/100/100 99/99/99 43/43/43
f 98/98/98 100/100/100 47/47/47
f 46/46/46 47/47/47 100/100/100
f 43/43/43 42/42/42 100/100/100
f 46/46/46 100/100/100 42/42/42
f 99/99/99 97/97/97 81/81/81
f 87/87/87 81/81/81 97/97/97
f 81/81/81 82/82/82 99/99/99
f 43/43/43 99/99/99 82/82/82
f 93/93/93 98/98/98 49/49/49
f 47/47/47 49/49/49 98/98/98
f 49/49/49 52/52/52 93/93/93
f 43/43/43 82/82/82 39/39/39
f 38/38/38 39/39/39 82/82/82
f 102/102/102 52/52/52 101/101/101
f 104/104/104 101/101/101 103/103/103
f 103/103/103 102/102/102 105/105/105
f 94/94/94 93/93/93 102/102/102
f 107/107/107 106/106/106 3/3/3
f 108/108/108 3/3/3 106/106/106
f 3/3/3 1/1/1 109/109/109
f 89/89/89 109/109/109 1/1/1
f 109/109/109 89/89/89 110/110/110
f 88/88/88 110/110/110 89/89/89
f 110/110/110 88/88/88 92/92/92
f 110/110/110 92/92/92 111/111/111
f 89/89/89 1/1/1 5/5/5
f 5/5/5 6/6/6 89/89/89
f 111/111/111 112/112/112 110/110/110
f 107/107/107 113/113/113 112/112/112
f 116/116/116 115/115/115 114/114/114
f 114/114/114 117/117/117 116/116/116
f 118/118/118 117/117/117 114/114/114
f 117/117/117 118/118/118 119/119/119
f 120/120/120 119/119/119 118/118/118
f 120/120/120 121/121/121 119/119/119
f 117/117/117 119/119/119 122/122/122
f 122/122/122 116/116/116 117/117/117
f 121/121/121 123/123/123 119/119/119
f 123/123/123 121/121/121 124/124/124
f 125/125/125 119/119/119 123/123/123
f 125/125/125 126/126/126 119/119/119
f 118/118/118 127/127/127 120/120/120
f 128/128/128 120/120/120 127/127/127
f 120/120/120 128/128/128 121/121/121
f 127/127/127 129/129/129 128/128/128
f 130/130/130 128/128/128 129/129/129
f 129/129/129 131/131/131 130/130/130
f 132/132/132 130/130/130 131/131/131
f 130/130/130 132/132/132 133/133/133
f 134/134/134 133/133/133 132/132/132
f 128/128/128 130/130/130 135/135/135
f 133/133/133 135/135/135 130/130/130
f 135/135/135 121/121/121 128/128/128
f 135/135/135 124/124/124 121/121/121
f 124/124/124 135/135/135 136/136/136
f 133/133/133 136/136/136 135/135/135
f 133/133/133 134/134/134 136/136/136
f 131/131/131 129/129/129 137/137/137
f 138/138/138 137/137/137 129/129/129
f 129/129/129 127/127/127 138/138/138
f 139/139/139 138/138/138 127/127/127
f 127/127/127 118/118/118 139/139/139
f 114/114/114 139/139/139 118/118/118
f 137/137/137 138/138/138 140/140/140
f 140/140/140 141/141/141 137/137/137
f 140/140/140 142/142/142 141/141/141
f 140/140/140 143/143/143 142/142/142
f 143/143/143 140/140/140 138/138/138
f 138/138/138 139/139/139 143/143/143
f 144/144/144 142/142/142 143/143/143
f 143/143/143 145/145/145 144/144/144
f 145/145/145 143/143/143 139/139/139
f 139/139/139 114/114/114 145/145/145
f 142/142/142 144/144/144 146/146/146
f 147/147/147 146/146/146 144/144/144
f 145/145/145 148/148/148 144/144/144
f 147/147/147 144/144/144 148/148/148
f 145/145/145 115/115/115 148/148/148
f 115/115/115 145/145/145 114/114/114
f 149/149/149 148/148/148 115/115/115
f 150/150/150 137/137/137 141/141/141
f 150/150/150 141/141/141 151/151/151
f 152/152/152 150/150/150 151/151/151
f 152/152/152 151/151/151 153/153/153
f 154/154/154 153/153/153 151/151/151
f 153/153/153 154/154/154 155/155/155
f 156/156/156 155/155/155 154/154/154
f 155/155/155 156/156/156 157/157/157
f 158/158/158 157/157/157 156/156/156
f 156/156/156 159/159/159 158/158/158
f 160/160/160 158/158/158 159/159/159
f 157/157/157 161/161/161 155/155/155
f 162/162/162 155/155/155 161/161/161
f 155/155/155 162/162/162 153/153/153
f 161/161/161 163/163/163 162/162/162
f 159/159/159 164/164/164 160/160/160
f 165/165/165 160/160/160 164/164/164
f 164/164/164 159/159/159 166/166/166
f 167/167/167 166/166/166 159/159/159
f 159/159/159 156/156/156 167/167/167
f 154/154/154 167/167/167 156/156/156
f 167/167/167 168/168/168 166/166/166
f 167/167/167 154/154/154 168/168/168
f 169/169/169 153/153/153 162/162/162
f 162/162/162 170/170/170 169/169/169
f 170/170/170 171/171/171 169/169/169
f 172/172/172 169/169/169 171/171/171
f 170/170/170 162/162/162 173/173/173
f 170/170/170 173/173/173 174/174/174
f 174/174/174 175/175/175 170/170/170
f 170/170/170 175/175/175 171/171/171
f 176/176/176 174/174/174 173/173/173
f 174/174/174 176/176/176 177/177/177
f 178/178/178 177/177/177 176/176/176
f 175/175/175 174/174/174 179/179/179
f 180/180/180 179/179/179 174/174/174
f 134/134/134 171/171/171 175/175/175
f 175/175/175 179/179/179 134/134/134
f 181/181/181 134/134/134 179/179/179
f 172/172/172 152/152/152 169/169/169
f 153/153/153 169/169/169 152/152/152
f 172/172/172 131/131/131 152/152/152
f 150/150/150 152/152/152 131/131/131
f 132/132/132 171/171/171 134/134/134
f 172/172/172 132/132/132 131/131/131
f 132/132/132 172/172/172 171/171/171
f 181/181/181 136/136/136 134/134/134
f 150/150/150 131/131/131 137/137/137
f 176/176/176 182/182/182 178/178/178
f 182/182/182 183/183/183 178/178/178
f 184/184/184 182/182/182 176/176/176
f 184/184/184 176/176/176 185/185/185
f 184/184/184 185/185/185 186/186/186
f 186/186/186 188/188/188 187/187/187
f 191/191/191 190/190/190 189/189/189
f 192/192/192 189/189/189 190/190/190
f 192/192/192 193/193/193 189/189/189
f 194/194/194 189/189/189 193/193/193
f 194/194/194 195/195/195 189/189/189
f 196/196/196 189/189/189 195/195/195
f 196/196/196 166/166/166 189/189/189
f 166/166/166 191/191/191 189/189/189
f 190/190/190 191/191/191 151/151/151
f 168/168/168 151/151/151 191/191/191
f 191/191/191 166/166/166 168/168/168
f 151/151/151 168/168/168 154/154/154
f 190/190/190 151/151/151 141/141/141
f 190/190/190 141/141/141 192/192/192
f 142/142/142 192/192/192 141/141/141
f 142/142/142 146/146/146 192/192/192
f 193/193/193 192/192/192 146/146/146
f 166/166/166 196/196/196 197/197/197
f 198/198/198 197/197/197 196/196/196
f 166/166/166 197/197/197 164/164/164
f 199/199/199 164/164/164 197/197/197
f 164/164/164 199/199/199 165/165/165
f 200/200/200 165/165/165 199/199/199
f 165/165/165 202/202/202 201/201/201
f 203/203/203 201/201/201 202/202/202
f 203/203/203 204/204/204 201/201/201
f 205/205/205 201/201/201 204/204/204
f 204/204/204 206/206/206 205/205/205
f 208/208/208 202/202/202 207/207/207
f 210/210/210 209/209/209 196/196/196
f 211/211/211 196/196/196 209/209/209
f 214/214/214 213/213/213 212/212/212
f 213/213/213 215/215/215 212/212/212
f 216/216/216 212/212/212 215/215/215
f 216/216/216 215/215/215 217/217/217
f 218/218/218 217/217/217 215/215/215
f 215/215/215 213/213/213 218/218/218
f 216/216/216 219/219/219 212/212/212
f 216/216/216 217/217/217 219/219/219
f 220/220/220 212/212/212 219/219/219
f 212/212/212 220/220/220 214/214/214
f 221/221/221 214/214/214 220/220/220
f 217/217/217 222/222/222 219/219/219
f 224/224/224 221/221/221 223/223/223
f 223/223/223 221/221/221 225/225/225
f 223/223/223 227/227/227 226/226/226
f 228/228/228 226/226/226 227/227/227
f 227/227/227 229/229/229 228/228/228
f 230/230/230 228/228/228 229/229/229
f 230/230/230 229/229/229 231/231/231
f 232/232/232 231/231/231 229/229/229
f 232/232/232 233/233/233 231/231/231
f 234/234/234 231/231/231 233/233/233
f 233/233/233 235/235/235 234/234/234
f 236/236/236 234/234/234 235/235/235
f 236/236/236 235/235/235 237/237/237
f 238/238/238 237/237/237 235/235/235
f 239/239/239 237/237/237 238/238/238
f 238/238/238 240/240/240 239/239/239
f 241/241/241 239/239/239 240/240/240
f 241/241/241 240/240/240 242/242/242
f 244/244/244 243/243/243 240/240/240
f 243/243/243 246/246/246 245/245/245
f 248/248/248 245/245/245 247/247/247
f 250/250/250 249/249/249 248/248/248
f 251/251/251 249/249/249 250/250/250
f 245/245/245 252/252/252 249/249/249
f 255/255/255 254/254/254 253/253/253
f 255/255/255 253/253/253 256/256/256
f 257/257/257 256/256/256 253/253/253
f 257/257/257 258/258/258 256/256/256
f 259/259/259 256/256/256 258/258/258
f 259/259/259 255/255/255 256/256/256
f 257/257/257 253/253/253 260/260/260
f 257/257/257 260/260/260 258/258/258
f 261/261/261 260/260/260 253/253/253
f 253/253/253 254/254/254 261/261/261
f 262/262/262 261/261/261 254/254/254
f 255/255/255 263/263/263 254/254/254
f 255/255/255 264/264/264 263/263/263
f 265/265/265 263/263/263 259/259/259
f 266/266/266 254/254/254 263/263/263
f 259/259/259 267/267/267 265/265/265
f 262/262/262 254/254/254 268/268/268
f 271/271/271 270/270/270 269/269/269
f 270/270/270 271/271/271 272/272/272
f 272/272/272 273/273/273 270/270/270
f 274/274/274 270/270/270 273/273/273
f 274/274/274 269/269/269 270/270/270
f 269/269/269 274/274/274 275/275/275
f 276/276/276 275/275/275 274/274/274
f 275/275/275 277/277/277 269/269/269
f 278/278/278 269/269/269 277/277/277
f 269/269/269 278/278/278 271/271/271
f 276/276/276 274/274/274 279/279/279
f 273/273/273 279/279/279 274/274/274
f 275/275/275 280/280/280 277/277/277
f 275/275/275 281/281/281 280/280/280
f 282/282/282 280/280/280 281/281/281
f 282/282/282 281/281/281 283/283/283
f 282/282/282 283/283/283 284/284/284
f 285/285/285 284/284/284 283/283/283
f 285/285/285 286/286/286 284/284/284
f 287/287/287 284/284/284 286/286/286
f 284/284/284 287/287/287 288/288/288
f 284/284/284 288/288/288 282/282/282
f 280/280/280 282/282/282 288/288/288
f 288/288/288 289/289/289 280/280/280
f 288/288/288 290/290/290 289/289/289
f 290/290/290 288/288/288 287/287/287
f 291/291/291 289/289/289 290/290/290
f 292/292/292 280/280/280 289/289/289
f 293/293/293 280/280/280 292/292/292
f 289/289/289 291/291/291 294/294/294
f 289/289/289 294/294/294 292/292/292
f 295/295/295 294/294/294 291/291/291
f 295/295/295 296/296/296 294/294/294
f 297/297/297 294/294/294 296/296/296
f 297/297/297 298/298/298 294/294/294
f 298/298/298 292/292/292 294/294/294
f 293/293/293 292/292/292 299/299/299
f 286/286/286 300/300/300 287/287/287
f 301/301/301 287/287/287 300/300/300
f 301/301/301 300/300/300 302/302/302
f 303/303/303 302/302/302 300/300/300
f 303/303/303 304/304/304 302/302/302
f 281/281/281 302/302/302 304/304/304
f 304/304/304 283/283/283 281/281/281
f 302/302/302 305/305/305 301/301/301
f 302/302/302 281/281/281 305/305/305
f 306/306/306 301/301/301 305/305/305
f 301/301/301 306/306/306 287/287/287
f 290/290/290 287/287/287 306/306/306
f 305/305/305 276/276/276 306/306/306
f 279/279/279 306/306/306 276/276/276
f 276/276/276 305/305/305 275/275/275
f 275/275/275 305/305/305 281/281/281
f 290/290/290 306/306/306 307/307/307
f 308/308/308 307/307/307 306/306/306
f 308/308/308 306/306/306 309/309/309
f 279/279/279 309/309/309 306/306/306
f 279/279/279 273/273/273 309/309/309
f 310/310/310 309/309/309 273/273/273
f 310/310/310 273/273/273 311/311/311
f 272/272/272 311/311/311 273/273/273
f 311/311/311 272/272/272 312/312/312
f 313/313/313 312/312/312 272/272/272
f 307/307/307 291/291/291 290/290/290
f 310/310/310 314/314/314 309/309/309
f 315/315/315 309/309/309 314/314/314
f 309/309/309 315/315/315 308/308/308
f 315/315/315 314/314/314 316/316/316
f 317/317/317 316/316/316 314/314/314
f 316/316/316 317/317/317 318/318/318
f 319/319/319 318/318/318 317/317/317
f 316/316/316 318/318/318 320/320/320
f 321/321/321 320/320/320 318/318/318
f 320/320/320 321/321/321 322/322/322
f 322/322/322 323/323/323 320/320/320
f 324/324/324 320/320/320 323/323/323
f 323/323/323 325/325/325 291/291/291
f 323/323/323 322/322/322 325/325/325
f 295/295/295 291/291/291 325/325/325
f 295/295/295 325/325/325 296/296/296
f 326/326/326 296/296/296 325/325/325
f 326/326/326 325/325/325 327/327/327
f 327/327/327 325/325/325 322/322/322
f 327/327/327 322/322/322 321/321/321
f 317/317/317 314/314/314 328/328/328
f 329/329/329 317/317/317 328/328/328
f 329/329/329 319/319/319 317/317/317
f 328/328/328 311/311/311 329/329/329
f 311/311/311 328/328/328 310/310/310
f 314/314/314 310/310/310 328/328/328
f 320/320/320 324/324/324 330/330/330
f 330/330/330 331/331/331 320/320/320
f 330/330/330 332/332/332 331/331/331
f 330/330/330 333/333/333 332/332/332
f 333/333/333 330/330/330 324/324/324
f 333/333/333 324/324/324 334/334/334
f 307/307/307 334/334/334 324/324/324
f 335/335/335 332/332/332 333/333/333
f 335/335/335 333/333/333 336/336/336
f 334/334/334 336/336/336 333/333/333
f 336/336/336 334/334/334 337/337/337
f 338/338/338 337/337/337 334/334/334
f 338/338/338 339/339/339 337/337/337
f 340/340/340 337/337/337 339/339/339
f 331/331/331 341/341/341 339/339/339
f 340/340/340 339/339/339 341/341/341
f 341/341/341 331/331/331 332/332/332
f 307/307/307 308/308/308 334/334/334
f 338/338/338 334/334/334 308/308/308
f 339/339/339 338/338/338 342/342/342
f 308/308/308 342/342/342 338/338/338
f 339/339/339 342/342/342 331/331/331
f 342/342/342 308/308/308 315/315/315
f 315/315/315 316/316/316 342/342/342
f 316/316/316 331/331/331 342/342/342
f 316/316/316 320/320/320 331/331/331
f 324/324/324 323/323/323 307/307/307
f 291/291/291 307/307/307 323/323/323
f 293/293/293 343/343/343 280/280/280
