g Blue_war_f_pve_2_belt
v 0.0627646223 0.119133525 1.23330283
v 0.1095272 0.121928096 1.19022679
v 0.0903651416 0.091687426 1.23265624
v 0.0408296771 0.0815912038 1.2824893
v 0.137781292 0.0821899772 1.20587111
v 0.122067064 0.0601628497 1.23191357
v 0.162352055 0.0242842287 1.21504366
v 0.146638528 0.0173284914 1.23224413
v 0.132122844 0.0111532398 1.26001692
v 0.145569876 -0.0321061686 1.25080919
v 0.158179432 -0.0285628699 1.22800326
v 0.137268364 -0.0873684734 1.23941422
v 0.142774612 -0.0322630666 1.24860084
v 0.1451675 -0.0837223977 1.21322155
v 0.113793865 -0.116140217 1.20612741
v 0.123237073 -0.116125494 1.17551446
v 0.147975966 -0.084558472 1.19933379
v 0.113713145 -0.124027461 1.15576446
v 0.112236209 -0.118197925 1.2301935
v 0.0600016378 -0.144251674 1.22519636
v 0.0576280951 -0.141277418 1.19446909
v 0.0532788821 -0.131913081 1.19455314
v 0.0553795248 -0.135553896 1.22619653
v 0.166514352 -0.0280807205 1.21398425
v 0.10795486 -0.114080802 1.23078585
v 0.0553795248 -0.135553896 1.22619653
v 0.0600016378 -0.144251674 1.22519636
v 0.132199392 -0.0842224956 1.23954093
v 0.106532283 -0.116332278 1.15573728
v 0.105526693 -0.13136439 1.12903762
v 0.0996724293 -0.122775219 1.12914979
v 0.106532283 -0.116332278 1.15573728
v 0.0756227076 -0.138932735 1.1276511
v 0.0706069916 -0.129914209 1.12744522
v 0.0532788821 -0.131913081 1.19455314
v 0.0996724293 -0.122775219 1.12914979
v 0.0706069916 -0.129914209 1.12744522
v 0.142774612 -0.0322630666 1.24860084
v 0.0408296771 0.0815912038 1.2824893
v 0.0753797144 0.0662023723 1.27798963
v 0.10755714 0.0463833213 1.26874423
v 0.101399228 0.043550279 1.26644039
v 0.127173081 0.00778349862 1.25719321
v 0.037362881 0.0732420161 1.27692962
v 0.0709837675 0.0607797988 1.27137816
v 0.101399228 0.043550279 1.26644039
v 0.1095272 0.121928096 1.19022679
v 0.0925868601 0.0381118581 1.18636727
v 0.137781292 0.0821899772 1.20587111
v 0.101646267 0.115381733 1.18636096
v 0.162352055 0.0242842287 1.21504366
v 0.113271251 0.00824372284 1.19479525
v 0.166514352 -0.0280807205 1.21398425
v 0.0719183683 0.0508469939 1.18544412
v 0.0622206479 0.133273736 1.17960525
v -0 0.0506350696 1.17106843
v -0 0.127149671 1.17438126
v 0.166514352 -0.0280807205 1.21398425
v 0.127932817 -0.0256617069 1.18182445
v 0.147975966 -0.084558472 1.19933379
v 0.109692059 -0.0668082684 1.16606474
v 0.123237073 -0.116125494 1.17551446
v 0.0644861609 -0.0783464909 1.16009974
v 0.123237073 -0.116125494 1.17551446
v 0.106532283 -0.116332278 1.15573728
v -0 -0.120744057 1.14334655
v 0.106532283 -0.116332278 1.15573728
v -0 -0.0767286643 1.14480329
v 0.101646267 0.115381733 1.18636096
v 0.0614416115 0.165299416 1.16391683
v 0.0545776337 0.158129349 1.15878284
v 0.0560969524 0.100302964 1.22690332
v 0.0545776337 0.158129349 1.15878284
v 0.0464643463 0.0904930308 1.24552846
v 0.106885448 -0.107288063 1.21510971
v 0.0553795248 -0.135553896 1.22619653
v 0.0628086105 -0.125885546 1.20453703
v 0.10795486 -0.114080802 1.23078585
v 0.132199392 -0.0842224956 1.23954093
v 0.13584964 -0.0795606449 1.22164369
v 0.142774612 -0.0322630666 1.24860084
v 0.150328979 -0.0188453291 1.21032989
v 0.127173081 0.00778349862 1.25719321
v 0.140597984 0.00828512199 1.21664
v 0.122140117 0.0325588584 1.22238004
v 0.148177862 -0.0496589281 1.19972992
v 0.101399228 0.043550279 1.26644039
v 0.0981709287 0.0502716824 1.22505999
v 0.106677972 -0.086184442 1.18549001
v 0.08370132 -0.0945428461 1.1822499
v 0.0641717166 -0.117107712 1.20212471
v -0 -0.123107448 1.20904148
v -0 -0.130892321 1.21190679
v -0 -0.117612928 1.17710996
v 0.0401724614 -0.110895939 1.17826998
v 0.0709837675 0.0607797988 1.27137816
v 0.055141408 0.0770483017 1.23838878
v 0.0464643463 0.0904930308 1.24552846
v 0.037362881 0.0732420161 1.27692962
v 0.0676896274 0.0646265745 1.22529995
v 0.0307708345 0.0676754713 1.22026992
v -0 0.0858901218 1.2592994
v 0.0464643463 0.0904930308 1.24552846
v -0 0.0972315967 1.26174462
v -0 0.0677308664 1.21420991
v 0.106532283 -0.116332278 1.15573728
v -0 -0.130892321 1.21190679
v 0.0628086105 -0.125885546 1.20453703
v -0 -0.120744057 1.14334655
v 0.0464643463 0.0904930308 1.24552846
v -0 0.0972315967 1.26174462
v 0.0560969524 0.100302964 1.22690332
v -0 0.127149671 1.17438126
v 0.0622206479 0.133273736 1.17960525
v -0.0560969524 0.100302964 1.22690332
v -0.0464643463 0.0904930308 1.24552846
v -0.0622206479 0.133273736 1.17960525
v 0.0464643463 0.0904930308 1.24552846
v 0.0408296771 0.0815912038 1.2824893
v 0.037362881 0.0732420161 1.27692962
v 0.0627646223 0.119133525 1.23330283
v 0.0545776337 0.158129349 1.15878284
v 0.0560969524 0.100302964 1.22690332
v 0.0622206479 0.133273736 1.17960525
v 0.101646267 0.115381733 1.18636096
v 0.106532283 -0.116332278 1.15573728
v 0.0706069916 -0.129914209 1.12744522
v 0.0996724293 -0.122775219 1.12914979
v 0.106532283 -0.116332278 1.15573728
v 0.0532788821 -0.131913081 1.19455314
v 0.0532788821 -0.131913081 1.19455314
v 0.0553795248 -0.135553896 1.22619653
v 0.0532788821 -0.131913081 1.19455314
v 0.0148322675 -0.144888282 1.22872806
v -0 -0.147740692 1.22102034
v -0 -0.144883111 1.23145628
v 0.029670028 -0.144883111 1.21834016
v 0.0235528741 -0.148424685 1.21150815
v -0 -0.155486137 1.21056902
v 0.0176487342 -0.154861182 1.20625079
v 0.0327674672 -0.145055741 1.18155599
v 0.0208127405 -0.154818982 1.17758584
v -0 -0.160985216 1.19542563
v 0.0154682156 -0.159549996 1.18968225
v 0.0077899741 -0.171030581 1.17786515
v -0 -0.170297965 1.18198061
v -0 -0.171368137 1.16943097
v 0.0137207787 -0.161911845 1.17066407
v -0 -0.149703801 1.1651727
v -0 -0.157994971 1.16657627
v -0 -0.170707852 1.15437293
v -0 -0.170707852 1.15437293
v -0 -0.140836313 1.14729691
v 0.041862011 -0.144883111 1.18815625
v 0.0323596559 -0.144883126 1.15546417
v 0.0394071005 -0.144883111 1.17294776
v 0.0498783849 -0.144883111 1.17041361
v 0.0526804738 -0.144883111 1.18801105
v 0.0501123816 -0.132801428 1.17041743
v 0.05290718 -0.132801428 1.18800807
v 0.0446074679 -0.144883111 1.1555804
v 0.0446074679 -0.144883111 1.1555804
v 0.0448486693 -0.132801428 1.15559077
v 0.0446074679 -0.144883111 1.1555804
v 0.0479562357 -0.144883111 1.20909297
v 0.0385256931 -0.144883111 1.20537925
v 0.0365853123 -0.144883111 1.22623038
v 0.0481508635 -0.132801428 1.20917058
v 0.036747817 -0.132801428 1.22638857
v 0.0186862946 -0.144883111 1.23747897
v -0 -0.144883111 1.24126422
v 0.0187675469 -0.132801428 1.23767138
v -0 -0.132801428 1.24149096
v -0.0186862946 -0.144883111 1.23747897
v -0.0148322675 -0.144888282 1.22872806
v -0.029670028 -0.144883111 1.21834016
v -0.0235528741 -0.148424685 1.21150815
v -0.0176487342 -0.154861182 1.20625079
v -0.0327674672 -0.145055741 1.18155599
v -0.0208127405 -0.154818982 1.17758584
v -0.0154682156 -0.159549996 1.18968225
v -0.0077899741 -0.171030581 1.17786515
v -0.0137207787 -0.161911845 1.17066407
v -0 -0.149703801 1.1651727
v -0 -0.157994971 1.16657627
v -0 -0.170707852 1.15437293
v -0 -0.170707852 1.15437293
v -0 -0.140836313 1.14729691
v -0.041862011 -0.144883111 1.18815625
v -0.0323596559 -0.144883126 1.15546417
v -0.0394071005 -0.144883111 1.17294776
v -0.0498783849 -0.144883111 1.17041361
v -0.0526804738 -0.144883111 1.18801105
v -0.0501123816 -0.132801428 1.17041743
v -0.05290718 -0.132801428 1.18800807
v -0.0446074679 -0.144883111 1.1555804
v -0.0448486693 -0.132801428 1.15559077
v -0.0446074679 -0.144883111 1.1555804
v -0.0479562357 -0.144883111 1.20909297
v -0.0385256931 -0.144883111 1.20537925
v -0.0365853123 -0.144883111 1.22623038
v -0.0481508635 -0.132801428 1.20917058
v -0.036747817 -0.132801428 1.22638857
v -0.0187675469 -0.132801428 1.23767138
v 0.0168002322 -0.140836328 1.14861834
v -0 -0.140836313 1.14729691
v 0.0233480837 -0.140836328 1.13234317
v -0 -0.14076075 1.1093576
v 0.0364929177 -0.140722603 1.15016639
v 0.0323596559 -0.144883126 1.15546417
v 0.0369076729 -0.132498935 1.15008533
v 0.0233539585 -0.132493332 1.13211656
v -0 -0.132493347 1.10933602
v 0.0364929177 -0.140722603 1.15016639
v 0.0446148664 -0.132801399 1.13648975
v 0.0369076729 -0.132498935 1.15008533
v 0.0447273999 -0.144807562 1.13666177
v 0.0323596559 -0.144883126 1.15546417
v 0.0323596559 -0.144883126 1.15546417
v 0.0525131226 -0.144807562 1.14216042
v 0.0446074679 -0.144883111 1.1555804
v 0.0527073666 -0.132801443 1.14220488
v 0.0525131226 -0.144807562 1.14216042
v 0.0446148664 -0.132801399 1.13648975
v 0.0446074679 -0.144883111 1.1555804
v 0.0527073666 -0.132801443 1.14220488
v 0.0525131226 -0.144807562 1.14216042
v 0.0448486693 -0.132801428 1.15559077
v 0.13388592 -0.0736577287 1.19028997
v -0.0627646223 0.119133525 1.23330283
v -0.0903651416 0.091687426 1.23265624
v -0.1095272 0.121928096 1.19022679
v -0.0408296771 0.0815911815 1.2824893
v -0.137781292 0.0821899772 1.20587111
v -0.122067064 0.0601628497 1.23191357
v -0.160404623 0.0241798405 1.21499407
v -0.146638528 0.0173284914 1.23224413
v -0.132122844 0.0111532398 1.26001692
v -0.145569876 -0.0321061686 1.25080919
v -0.158179432 -0.0285628699 1.22800326
v -0.137268364 -0.0873684734 1.23941422
v -0.142774612 -0.0322630778 1.24860084
v -0.132199392 -0.0842224956 1.23954093
v -0.1451675 -0.0837223977 1.21322155
v -0.113793865 -0.116140217 1.20612741
v -0.123237073 -0.116125494 1.17551446
v -0.144596994 -0.0835761279 1.19739914
v -0.113713145 -0.124027461 1.15576446
v -0.112236209 -0.118197925 1.2301935
v -0.0600016378 -0.144251674 1.22519636
v -0.0576280951 -0.141277418 1.19446909
v -0.0532788821 -0.131913081 1.19455314
v -0.0553795248 -0.135553896 1.22619653
v -0.165803328 -0.02776617 1.21302497
v -0.10795486 -0.114080802 1.23078585
v -0.0553795248 -0.135553896 1.22619653
v -0.0600016378 -0.144251674 1.22519636
v -0.106532283 -0.116332278 1.15573728
v -0.105526693 -0.13136439 1.12903762
v -0.0996724293 -0.122775219 1.12914979
v -0.106532283 -0.116332278 1.15573728
v -0.0756227076 -0.138932735 1.1276511
v -0.0706069916 -0.129914209 1.12744522
v -0.0532788821 -0.131913081 1.19455314
v -0.0996724293 -0.122775219 1.12914979
v -0.0706069916 -0.129914209 1.12744522
v -0.0408296771 0.0815911815 1.2824893
v -0.0753797144 0.0662023947 1.27798963
v -0.10755714 0.0463833213 1.26874423
v -0.101399228 0.043550279 1.26644039
v -0.127173081 0.00778348884 1.25719321
v -0.0709837675 0.0607797988 1.27137816
v -0.037362881 0.0732420161 1.27692962
v -0.1095272 0.121928096 1.19022679
v -0.0925868601 0.0381118767 1.18636727
v -0.101646267 0.115381733 1.18636096
v -0.137781292 0.0821899772 1.20587111
v -0.160404623 0.0241798405 1.21499407
v -0.113271251 0.00824372284 1.19479525
v -0.165803328 -0.02776617 1.21302497
v -0.127932817 -0.0256616976 1.18182445
v -0.144596994 -0.0835761279 1.19739914
v -0.110288084 -0.0670631751 1.16197455
v -0.123237073 -0.116125494 1.17551446
v -0.0644861609 -0.0783464909 1.16009974
v -0.106532283 -0.116332278 1.15573728
v -0.0719183683 0.0508470125 1.18544412
v -0.0622206479 0.133273736 1.17960525
v -0 0.0506350696 1.17106843
v -0 0.127149671 1.17438126
v -0 -0.120744057 1.14334655
v -0 -0.0767286643 1.14480329
v -0.106532283 -0.116332278 1.15573728
v -0.101646267 0.115381733 1.18636096
v -0.0614416115 0.165299371 1.16391683
v -0.0545776337 0.158129349 1.15878284
v -0.0560969524 0.100302964 1.22690332
v -0.0545776337 0.158129349 1.15878284
v -0.0464643463 0.0904930308 1.24552846
v -0.106885448 -0.107288063 1.21510971
v -0.0553795248 -0.135553896 1.22619653
v -0.10795486 -0.114080802 1.23078585
v -0.0628086105 -0.125885546 1.20453703
v -0.132199392 -0.0842224956 1.23954093
v -0.13584964 -0.0795606449 1.22164369
v -0.142774612 -0.0322630778 1.24860084
v -0.150328979 -0.0188453291 1.21032989
v -0.127173081 0.00778348884 1.25719321
v -0.140597984 0.00828512199 1.21664
v -0.122140117 0.0325588807 1.22238004
v -0.148177862 -0.0496589281 1.19972992
v -0.101399228 0.043550279 1.26644039
v -0.0981709287 0.0502716824 1.22505999
v -0.106677972 -0.086184442 1.18549001
v -0.08370132 -0.0945428461 1.1822499
v -0.0641717166 -0.117107712 1.20212471
v -0 -0.123107448 1.20904148
v -0 -0.130892321 1.21190679
v -0 -0.117612928 1.17710996
v -0.0401724614 -0.110895939 1.17826998
v -0.0709837675 0.0607797988 1.27137816
v -0.055141408 0.0770483017 1.23838878
v -0.0464643463 0.0904930308 1.24552846
v -0.037362881 0.0732420161 1.27692962
v -0.0676896274 0.0646265745 1.22529995
v -0.0307708345 0.0676754713 1.22026992
v -0 0.0858901218 1.2592994
v -0.0464643463 0.0904930308 1.24552846
v -0 0.0972315967 1.26174462
v -0 0.0677308664 1.21420991
v -0.106532283 -0.116332278 1.15573728
v -0 -0.130892321 1.21190679
v -0 -0.120744057 1.14334655
v -0.0628086105 -0.125885546 1.20453703
v -0.0464643463 0.0904930308 1.24552846
v -0.037362881 0.0732420161 1.27692962
v -0.0408296771 0.0815911815 1.2824893
v -0.0627646223 0.119133525 1.23330283
v -0.0545776337 0.158129349 1.15878284
v -0.0622206479 0.133273736 1.17960525
v -0.0560969524 0.100302964 1.22690332
v -0.101646267 0.115381733 1.18636096
v -0.106532283 -0.116332278 1.15573728
v -0.0996724293 -0.122775219 1.12914979
v -0.0706069916 -0.129914209 1.12744522
v -0.0532788821 -0.131913081 1.19455314
v -0.106532283 -0.116332278 1.15573728
v -0.0532788821 -0.131913081 1.19455314
v -0.0553795248 -0.135553896 1.22619653
v -0.0532788821 -0.131913081 1.19455314
v -0.0168002322 -0.140836328 1.14861834
v -0 -0.140836313 1.14729691
v -0.0233480837 -0.140836328 1.13234317
v -0 -0.14076075 1.1093576
v -0.0364929177 -0.140722603 1.15016639
v -0.0369076729 -0.132498935 1.15008533
v -0.0233539585 -0.132493332 1.13211656
v -0 -0.14076075 1.1093576
v -0 -0.14076075 1.1093576
v -0 -0.132493347 1.10933602
v -0.0364929177 -0.140722603 1.15016639
v -0.0446148664 -0.132801399 1.13648975
v -0.0447273999 -0.144807562 1.13666177
v -0.0369076729 -0.132498935 1.15008533
v -0.0323596559 -0.144883126 1.15546417
v -0.0525131226 -0.144807562 1.14216042
v -0.0323596559 -0.144883126 1.15546417
v -0.0446074679 -0.144883111 1.1555804
v -0.0527073666 -0.132801443 1.14220488
v -0.0446148664 -0.132801399 1.13648975
v -0.0525131226 -0.144807562 1.14216042
v -0.0446074679 -0.144883111 1.1555804
v -0.0527073666 -0.132801443 1.14220488
v -0.0448486693 -0.132801428 1.15559077
v -0.0525131226 -0.144807562 1.14216042
v -0.0446074679 -0.144883111 1.1555804
v -0.0323596559 -0.144883126 1.15546417
v -0.13388592 -0.0736577287 1.19028997
vt 0.788492143 0.504371285
vt 0.76507163 0.316459477
vt 0.731830478 0.471234709
vt 0.746501207 0.686222255
vt 0.688806236 0.327668041
vt 0.666621149 0.432912797
vt 0.594869375 0.328310579
vt 0.592028677 0.416310996
vt 0.589799404 0.513521314
vt 0.521441758 0.491629452
vt 0.521165073 0.408202261
vt 0.436483264 0.503032506
vt 0.520501137 0.502013981
vt 0.432037711 0.418231457
vt 0.365273386 0.454538882
vt 0.356188416 0.35649249
vt 0.425375342 0.376255572
vt 0.327870786 0.318279564
vt 0.377138764 0.524618328
vt 0.294939995 0.586711824
vt 0.27405706 0.502801597
vt 0.259376317 0.512650073
vt 0.281384468 0.599601448
vt 0.517970681 0.355614364
vt 0.37862733 0.542390287
vt 0.30003497 0.615162492
vt 0.294939995 0.586711824
vt 0.438738614 0.519912183
vt 0.337679684 0.292508811
vt 0.295552313 0.258236021
vt 0.306428641 0.236245617
vt 0.337679684 0.292508811
vt 0.253086239 0.296642005
vt 0.238143399 0.30547151
vt 0.259376317 0.512650073
vt 0.284645379 0.235535637
vt 0.243318707 0.272217929
vt 0.520501137 0.502013981
vt 0.746501207 0.686222255
vt 0.699691117 0.621860981
vt 0.651551664 0.55708915
vt 0.649592459 0.578473151
vt 0.585349262 0.531472623
vt 0.736498117 0.711465657
vt 0.6919173 0.645905614
vt 0.649592459 0.578473151
vt 0.544055104 0.102540247
vt 0.478505999 0.13452825
vt 0.510485649 0.0592622422
vt 0.540031731 0.1171453
vt 0.464732289 0.023787329
vt 0.45437929 0.105116561
vt 0.423283756 0.0206139684
vt 0.492518961 0.174138129
vt 0.557161331 0.176732659
vt 0.498410523 0.288669914
vt 0.557512224 0.275203496
vt 0.423283756 0.0206139684
vt 0.42689234 0.0866051689
vt 0.377734244 0.0632423535
vt 0.39369604 0.12350364
vt 0.35496527 0.110236511
vt 0.387845963 0.201426208
vt 0.35496527 0.110236511
vt 0.352527678 0.148885012
vt 0.364429623 0.315860391
vt 0.352527678 0.148885012
vt 0.397858143 0.303213298
vt 0.768759072 0.28409192
vt 0.870117605 0.310222328
vt 0.873035729 0.27677545
vt 0.808370113 0.553836346
vt 0.883132279 0.330013454
vt 0.791001618 0.61213249
vt 0.693054616 0.176730618
vt 0.635472119 0.224306718
vt 0.642687023 0.173854277
vt 0.694354892 0.212595001
vt 0.734430969 0.202788189
vt 0.734707594 0.163468271
vt 0.788863957 0.19275552
vt 0.795317829 0.106581077
vt 0.831882119 0.206112832
vt 0.827962756 0.116956785
vt 0.861232281 0.137147203
vt 0.760564685 0.0997047499
vt 0.873188436 0.239770502
vt 0.892947257 0.160581991
vt 0.697206736 0.0999841616
vt 0.671393633 0.0993861705
vt 0.646052718 0.155897409
vt 0.578392446 0.170911461
vt 0.578007936 0.188941628
vt 0.579191148 0.102186687
vt 0.621950507 0.102481082
vt 0.903125703 0.273601949
vt 0.938795626 0.226006091
vt 0.948807359 0.257601231
vt 0.930458724 0.324748456
vt 0.926798403 0.185718566
vt 0.965895712 0.186903059
vt 0.995485485 0.282231808
vt 0.948807359 0.257601231
vt 0.992739439 0.306282103
vt 0.998404741 0.179458082
vt 0.889595211 0.147480264
vt 0.991070032 0.0006237466
vt 0.927880585 0.0335709006
vt 0.999998212 0.143645063
vt 0.809190929 0.943976521
vt 0.788156092 0.77128166
vt 0.847027898 0.975875854
vt 0.951671004 0.775417805
vt 0.949005783 0.999997079
vt 0.849540472 0.569729269
vt 0.811320782 0.59970516
vt 0.951784909 0.550773919
vt 0.791001618 0.61213249
vt 0.746501207 0.686222255
vt 0.759552062 0.704722703
vt 0.788492143 0.504371285
vt 0.738320768 0.876520813
vt 0.672417581 0.970594406
vt 0.709993482 0.896928966
vt 0.676814377 0.853384733
vt 0.675656259 0.050981991
vt 0.629726589 0.0120770587
vt 0.660443246 2.93133053E-06
vt 0.675656259 0.050981991
vt 0.6289922 0.158338875
vt 0.6289922 0.158338875
vt 0.635472119 0.224306718
vt 0.6289922 0.158338875
vt 0.0867399126 0.41156292
vt 0.110492721 0.388276368
vt 0.108864486 0.422286421
vt 0.0644091815 0.378654748
vt 0.0738954246 0.35347113
vt 0.112495899 0.348289728
vt 0.084917888 0.330685318
vt 0.0519197658 0.263470352
vt 0.0755156204 0.238091484
vt 0.114875123 0.299780607
vt 0.0895449966 0.277338237
vt 0.107821204 0.236890823
vt 0.117296338 0.250663489
vt 0.119206168 0.212458223
vt 0.0926336646 0.215520799
vt 0.0854736716 0.160220906
vt 0.0945221707 0.169802412
vt 0.121361598 0.168479115
vt 0.121361598 0.168479115
vt 0.0688726828 0.112697966
vt 0.0396329388 0.291360617
vt 0.0376838818 0.187971503
vt 0.0367865786 0.244553417
vt 0.0196558051 0.247082293
vt 0.0231496021 0.299413174
vt 0.00085864932 0.251169384
vt 0.00527330488 0.310187846
vt 0.0192911513 0.198680639
vt 0.0192911513 0.198680639
vt 4.04503862E-06 0.200385913
vt 0.0192911513 0.198680639
vt 0.0352075286 0.35861814
vt 0.048726473 0.342483044
vt 0.0543779209 0.405225307
vt 0.0194273777 0.378451854
vt 0.0421929024 0.433578223
vt 0.0804965198 0.438694924
vt 0.107345618 0.453075051
vt 0.0731267184 0.473196387
vt 0.105505697 0.490383387
vt 0.135077938 0.449760139
vt 0.131579444 0.420663834
vt 0.156619266 0.397062302
vt 0.149783045 0.36873427
vt 0.141238391 0.342039406
vt 0.180161551 0.289288044
vt 0.159505308 0.255078584
vt 0.141879439 0.287863046
vt 0.127942726 0.240938231
vt 0.144952431 0.226062998
vt 0.15734984 0.174780801
vt 0.147571146 0.180560663
vt 0.121361598 0.168479115
vt 0.121361598 0.168479115
vt 0.178200796 0.13488251
vt 0.189474344 0.321509004
vt 0.201538444 0.220952034
vt 0.196853027 0.276779503
vt 0.213398695 0.286122322
vt 0.204846278 0.335997283
vt 0.231422827 0.29766959
vt 0.221313104 0.353720456
vt 0.218509912 0.238836303
vt 0.237245873 0.248249933
vt 0.218509912 0.238836303
vt 0.187230796 0.389166385
vt 0.175552994 0.367949337
vt 0.163884506 0.427101672
vt 0.200760305 0.41492179
vt 0.1730811 0.459797382
vt 0.138939142 0.486481249
vt 0.050366126 0.145591646
vt 0.0688726828 0.112697966
vt 0.0273808818 0.114208356
vt 0.0363602899 0.0130592706
vt 0.0262758061 0.18308644
vt 0.0376838818 0.187971503
vt 0.0132393623 0.182838157
vt 0.0145848775 0.110851869
vt 0.0235281941 0.00839264877
vt 0.102534994 0.0476956889
vt 0.080221802 0.0816240311
vt 0.0907805786 0.0368011519
vt 0.09715195 0.098433055
vt 0.113154635 0.0346830636
vt 0.113154635 0.0346830636
vt 0.11072164 0.111236811
vt 0.122862935 0.0682788193
vt 0.10300795 0.146046758
vt 0.11072164 0.111236811
vt 0.088903293 0.132738784
vt 0.122862935 0.0682788193
vt 0.127007157 0.130489558
vt 0.11072164 0.111236811
vt 0.139210671 0.0877981707
vt 0.729302883 0.0971660316
vt 0.56153214 0.727460504
vt 0.504870534 0.760597229
vt 0.538111567 0.915372312
vt 0.519541204 0.545609891
vt 0.461846232 0.904163599
vt 0.439661086 0.798919082
vt 0.368098289 0.890695989
vt 0.365267158 0.818246365
vt 0.362839371 0.718310475
vt 0.294481903 0.74020201
vt 0.292907 0.82219857
vt 0.209523216 0.728799343
vt 0.293541193 0.729817629
vt 0.211778611 0.711919725
vt 0.204072699 0.809180737
vt 0.138442814 0.777189672
vt 0.129739329 0.872759461
vt 0.195083633 0.852995932
vt 0.100910887 0.913552463
vt 0.150178894 0.707213461
vt 0.0679799095 0.645120084
vt 0.0470970087 0.729030371
vt 0.0324162617 0.719181955
vt 0.0544245988 0.632230282
vt 0.289005756 0.873952627
vt 0.151667312 0.689441741
vt 0.073074922 0.616669297
vt 0.0679799095 0.645120084
vt 0.110719666 0.939322948
vt 0.0685922429 0.973595858
vt 0.0794686973 0.995586514
vt 0.110719666 0.939322948
vt 0.0261261296 0.935189664
vt 0.0111833122 0.92636025
vt 0.0324162617 0.719181955
vt 0.0576852709 0.996296287
vt 0.0163588319 0.959613442
vt 0.519541204 0.545609891
vt 0.472731143 0.609970868
vt 0.42459172 0.674742639
vt 0.422632635 0.653358757
vt 0.358389199 0.700359106
vt 0.464957446 0.585926056
vt 0.509538233 0.520366251
vt 0.544055104 0.102540247
vt 0.478505999 0.13452825
vt 0.540031731 0.1171453
vt 0.510485649 0.0592622422
vt 0.464732289 0.023787329
vt 0.45437929 0.105116561
vt 0.423283756 0.0206139684
vt 0.42689234 0.0866051689
vt 0.377734244 0.0632423535
vt 0.39369604 0.12350364
vt 0.35496527 0.110236511
vt 0.387845963 0.201426208
vt 0.352527678 0.148885012
vt 0.492518961 0.174138129
vt 0.557161331 0.176732659
vt 0.498410523 0.288669914
vt 0.557512224 0.275203496
vt 0.364429623 0.315860391
vt 0.397858143 0.303213298
vt 0.352527678 0.148885012
vt 0.541799307 0.947740018
vt 0.643157721 0.921609461
vt 0.646075785 0.955056071
vt 0.581410348 0.677995205
vt 0.656172216 0.901818216
vt 0.564041674 0.619699419
vt 0.693054616 0.176730618
vt 0.635472119 0.224306718
vt 0.694354892 0.212595001
vt 0.642687023 0.173854277
vt 0.734430969 0.202788189
vt 0.734707594 0.163468271
vt 0.788863957 0.19275552
vt 0.795317829 0.106581077
vt 0.831882119 0.206112832
vt 0.827962756 0.116956785
vt 0.861232281 0.137147203
vt 0.760564685 0.0997047499
vt 0.873188436 0.239770502
vt 0.892947257 0.160581991
vt 0.697206736 0.0999841616
vt 0.671393633 0.0993861705
vt 0.646052718 0.155897409
vt 0.578392446 0.170911461
vt 0.578007936 0.188941628
vt 0.579191148 0.102186687
vt 0.621950507 0.102481082
vt 0.903125703 0.273601949
vt 0.938795626 0.226006091
vt 0.948807359 0.257601231
vt 0.930458724 0.324748456
vt 0.926798403 0.185718566
vt 0.965895712 0.186903059
vt 0.995485485 0.282231808
vt 0.948807359 0.257601231
vt 0.992739439 0.306282103
vt 0.998404741 0.179458082
vt 0.889595211 0.147480264
vt 0.991070032 0.0006237466
vt 0.999998212 0.143645063
vt 0.927880585 0.0335709006
vt 0.564041674 0.619699419
vt 0.532592058 0.527109027
vt 0.519541204 0.545609891
vt 0.56153214 0.727460504
vt 0.738320768 0.876520813
vt 0.709993482 0.896928966
vt 0.672417581 0.970594406
vt 0.676814377 0.853384733
vt 0.675656259 0.050981991
vt 0.660443246 2.93133053E-06
vt 0.629726589 0.0120770587
vt 0.6289922 0.158338875
vt 0.675656259 0.050981991
vt 0.6289922 0.158338875
vt 0.635472119 0.224306718
vt 0.6289922 0.158338875
vt 0.193191752 0.17438449
vt 0.178200796 0.13488251
vt 0.218782678 0.15251781
vt 0.219366997 0.0497511365
vt 0.213261425 0.220532715
vt 0.226094559 0.225353479
vt 0.231697291 0.154123053
vt 0.219366997 0.0497511365
vt 0.219366997 0.0497511365
vt 0.232310265 0.0500076786
vt 0.156979471 0.0314353257
vt 0.134666488 0.0653641522
vt 0.151596442 0.0821726993
vt 0.145225048 0.0205406714
vt 0.167599142 0.0184227023
vt 0.165166125 0.0949765593
vt 0.167599142 0.0184227023
vt 0.177307472 0.0520184599
vt 0.157452434 0.12978664
vt 0.143347755 0.116478793
vt 0.165166125 0.0949765593
vt 0.177307472 0.0520184599
vt 0.181451723 0.114229433
vt 0.193655118 0.071537815
vt 0.165166125 0.0949765593
vt 0.218509912 0.238836303
vt 0.201538444 0.220952034
vt 0.729302883 0.0971660316
vn -0.255979896 0.779117167 0.57223314
vn 0.801204145 0.550077081 -0.235557333
vn 0.532432973 0.582132101 0.61452204
vn -0.440465689 0.365894884 0.819823742
vn 0.879627585 0.448638439 -0.158047393
vn 0.636811018 0.477994502 0.604973435
vn 0.960224748 0.235656455 -0.14978151
vn 0.757713377 0.259401083 0.598816752
vn 0.413796782 0.00676339539 0.910344124
vn 0.319800019 -0.177218646 0.930763841
vn 0.875099719 -0.0509762056 0.481250256
vn 0.535972536 -0.454456806 0.711479068
vn -0.915409148 -0.150857419 0.373186439
vn 0.834522307 -0.510190606 0.208034083
vn 0.573411167 -0.815303504 0.0804973468
vn 0.789301217 -0.496763378 -0.36087352
vn 0.886550784 -0.367379904 -0.281175524
vn 0.918206632 -0.305218995 -0.252463877
vn 0.429644585 -0.686051488 0.587144732
vn -0.241301507 -0.838313818 0.488879919
vn -0.423901528 -0.902470946 -0.0765094012
vn -0.939760983 0.321542054 -0.116017342
vn -0.760079265 0.157838821 0.630370021
vn 0.988019049 0.00412789639 -0.15427649
vn -0.373896152 0.280855536 0.883924127
vn -0.760079265 0.157838821 0.630370021
vn -0.241301507 -0.838313818 0.488879919
vn -0.629492164 0.175208569 0.756995082
vn 0.414099514 0.725644469 -0.54951036
vn 0.68648845 -0.386275262 -0.616056025
vn 0.211409196 0.684335053 -0.697847784
vn 0.414099514 0.725644469 -0.54951036
vn -0.220366523 -0.731027424 -0.645784259
vn -0.660048783 0.332622081 -0.673571169
vn -0.939760983 0.321542054 -0.116017342
vn 0.211409196 0.684335053 -0.697847784
vn -0.660048783 0.332622081 -0.673571169
vn -0.915409148 -0.150857419 0.373186439
vn -0.440465689 0.365894884 0.819823742
vn 0.223365933 0.0502080508 0.973440707
vn 0.404911458 0.141238093 0.903381646
vn -0.449882984 -0.745350897 0.491993219
vn -0.745910227 -0.510677814 0.427581578
vn -0.834983468 -0.50654614 0.214973345
vn -0.422662646 -0.861034155 0.282801092
vn -0.449882984 -0.745350897 0.491993219
vn 0.801204145 0.550077081 -0.235557333
vn 0.288704485 -0.00683449861 -0.957393944
vn 0.879627585 0.448638439 -0.158047393
vn 0.34424597 -0.0824765936 -0.935249925
vn 0.960224748 0.235656455 -0.14978151
vn 0.435782731 0.131897241 -0.890335083
vn 0.988019049 0.00412789639 -0.15427649
vn 0.117942847 -0.0284455791 -0.992612839
vn -0.341540396 -0.359927535 -0.868217826
vn -0 -0.00957902707 -0.999954104
vn -0 0.82692498 -0.562312365
vn 0.988019049 0.00412789639 -0.15427649
vn 0.63577795 0.228660002 -0.737225175
vn 0.886550784 -0.367379904 -0.281175524
vn 0.474221706 -0.0516718701 -0.878887832
vn 0.789301217 -0.496763378 -0.36087352
vn 0.190841377 0.158823207 -0.968687177
vn 0.789301217 -0.496763378 -0.36087352
vn 0.414099514 0.725644469 -0.54951036
vn -0 -0.602958739 -0.797772348
vn 0.414099514 0.725644469 -0.54951036
vn -0 0.0330784172 -0.99945277
vn 0.34424597 -0.0824765936 -0.935249925
vn -0.00188586744 0.955033243 -0.296492606
vn -0.602325499 0.250929624 -0.757785082
vn -0.581313789 0.780862629 0.228752971
vn -0.602325499 0.250929624 -0.757785082
vn -0.627845407 0.306436568 0.715476573
vn -0.556126356 0.722691774 0.410414517
vn -0.760079265 0.157838821 0.630370021
vn -0.545781434 0.588216186 0.596761644
vn -0.373896152 0.280855536 0.883924127
vn -0.629492164 0.175208569 0.756995082
vn -0.852463186 0.520566583 0.0481346548
vn -0.915409148 -0.150857419 0.373186439
vn -0.968133867 -0.0460452177 -0.246163949
vn -0.745910227 -0.510677814 0.427581578
vn -0.879339874 -0.373246044 -0.295717388
vn -0.751949191 -0.624995232 -0.209650844
vn -0.948739231 0.265572369 -0.171362653
vn -0.449882984 -0.745350897 0.491993219
vn -0.556193888 -0.828996897 -0.0584165193
vn -0.48303625 0.757097244 0.439863354
vn -0.344539225 0.766859293 0.541497469
vn -0.246227533 0.61354959 0.750285923
vn -0 0.736080766 0.67689383
vn -0 -0.625380516 0.780320048
vn -0 0.974118888 0.226036578
vn -0.211933106 0.872430086 0.44039768
vn -0.422662646 -0.861034155 0.282801092
vn -0.389579087 -0.831251621 0.396546274
vn -0.627845407 0.306436568 0.715476573
vn -0.834983468 -0.50654614 0.214973345
vn -0.318417102 -0.820999205 0.473889112
vn -0.0448788665 -0.892127872 0.449548483
vn -0 -0.563725293 0.825962424
vn -0.627845407 0.306436568 0.715476573
vn -0 0.457023263 0.889454782
vn -0 -0.927598059 0.373579651
vn 0.414099514 0.725644469 -0.54951036
vn -0 -0.625380516 0.780320048
vn -0.545781434 0.588216186 0.596761644
vn -0 -0.602958739 -0.797772348
vn -0.627845407 0.306436568 0.715476573
vn -0 0.457023263 0.889454782
vn -0.581313789 0.780862629 0.228752971
vn -0 0.82692498 -0.562312365
vn -0.341540396 -0.359927535 -0.868217826
vn 0.581313729 0.780862629 0.228752926
vn 0.627845287 0.306436598 0.715476692
vn 0.341540396 -0.359927595 -0.868217826
vn -0.627845407 0.306436568 0.715476573
vn -0.440465689 0.365894884 0.819823742
vn -0.834983468 -0.50654614 0.214973345
vn -0.255979896 0.779117167 0.57223314
vn -0.602325499 0.250929624 -0.757785082
vn -0.581313789 0.780862629 0.228752971
vn -0.341540396 -0.359927535 -0.868217826
vn 0.34424597 -0.0824765936 -0.935249925
vn 0.414099514 0.725644469 -0.54951036
vn -0.660048783 0.332622081 -0.673571169
vn 0.211409196 0.684335053 -0.697847784
vn 0.414099514 0.725644469 -0.54951036
vn -0.939760983 0.321542054 -0.116017342
vn -0.939760983 0.321542054 -0.116017342
vn -0.760079265 0.157838821 0.630370021
vn -0.939760983 0.321542054 -0.116017342
vn 0.0407907255 -0.996006191 0.0794212297
vn -0 -0.920612097 0.390478432
vn -0 -0.992998242 0.118129328
vn 0.0939514562 -0.989000261 0.114243418
vn 0.30513829 -0.902205467 0.304821253
vn -0 -0.866083384 0.499899507
vn 0.396051228 -0.840196908 0.370422304
vn 0.325498849 -0.945538759 -0.0026276717
vn 0.604152501 -0.772498906 -0.195563614
vn -0 -0.907152891 0.420801133
vn 0.575679123 -0.788228095 0.217462599
vn 0.45358023 -0.889036238 0.0622870252
vn -0 -0.911908925 0.410392702
vn -0 -0.988872349 -0.148766533
vn 0.765697777 -0.29005599 -0.574085653
vn -0 -0.667916954 -0.744235814
vn -0 0.23880063 -0.971068561
vn -0 -0.401218832 -0.915982306
vn -0 -0.401218832 -0.915982306
vn -0 -0.976376832 -0.216074675
vn 0.0419172347 -0.998962045 -0.0178284887
vn -0.00899703242 -0.944721341 -0.327750742
vn 0.00850584358 -0.999960065 -0.0027527432
vn 0.69777596 -0.693826735 -0.178081989
vn 0.738312721 -0.674057722 0.0232484844
vn 0.968951881 -0.0185931027 -0.246549159
vn 0.99933356 -0.0185578279 0.0314335823
vn 0.567985713 -0.821444869 0.0511912629
vn 0.567985713 -0.821444869 0.0511912629
vn 0.99528873 -0.0198659915 0.0948980376
vn 0.567985713 -0.821444869 0.0511912629
vn 0.678725839 -0.674845815 0.289679706
vn 0.115325741 -0.99263376 0.0371239744
vn 0.518812418 -0.669520378 0.531579018
vn 0.9196468 -0.0175859239 0.392352551
vn 0.698458016 -0.0185578801 0.715410292
vn 0.273770332 -0.675126493 0.685021222
vn -0 -0.671768308 0.74076134
vn 0.371176302 -0.0175446458 0.928396702
vn -0 -0.018758107 0.999824107
vn -0.273770303 -0.675126493 0.685021162
vn -0.0407907255 -0.996006191 0.0794212297
vn -0.0939514562 -0.989000261 0.114243418
vn -0.30513829 -0.902205467 0.304821223
vn -0.396051228 -0.840196908 0.370422304
vn -0.325498849 -0.945538759 -0.0026276717
vn -0.604152501 -0.772498906 -0.195563614
vn -0.575679123 -0.788228095 0.217462599
vn -0.45358023 -0.889036238 0.0622870252
vn -0.765697777 -0.29005599 -0.574085653
vn -0 -0.667916954 -0.744235814
vn -0 0.23880063 -0.971068561
vn -0 -0.401218832 -0.915982306
vn -0 -0.401218832 -0.915982306
vn -0 -0.976376832 -0.216074675
vn -0.0419172347 -0.998962045 -0.0178284887
vn 0.00899703801 -0.944721341 -0.327750772
vn -0.00850584358 -0.999960065 -0.0027527432
vn -0.69777596 -0.693826735 -0.178082004
vn -0.738312721 -0.674057722 0.0232484844
vn -0.968951881 -0.0185931027 -0.246549159
vn -0.99933356 -0.0185578279 0.0314335823
vn -0.567985713 -0.821444869 0.0511912629
vn -0.99528873 -0.0198659915 0.0948980302
vn -0.567985713 -0.821444869 0.0511912629
vn -0.678725839 -0.674845815 0.289679706
vn -0.115325741 -0.99263376 0.0371239744
vn -0.518812418 -0.669520378 0.531579018
vn -0.9196468 -0.0175859239 0.392352551
vn -0.698457956 -0.0185578857 0.715410352
vn -0.371176302 -0.0175446458 0.928396702
vn 0.00723693054 -0.972081006 -0.234533772
vn -0 -0.976376832 -0.216074675
vn 0.539813519 -0.698013902 -0.470508188
vn -0 -0.578757286 -0.815499842
vn -0.46734643 -0.321867347 -0.823400736
vn -0.00899703242 -0.944721341 -0.327750742
vn -0.0783637166 0.000241528716 -0.996924818
vn 0.750999808 -0.0170229338 -0.660082936
vn -0 -0.00260237069 -0.999996662
vn -0.46734643 -0.321867347 -0.823400736
vn -0.218050182 -0.00376271782 -0.975930333
vn -0.0783637166 0.000241528716 -0.996924818
vn -0.161825269 -0.577500284 -0.800191164
vn -0.00899703242 -0.944721341 -0.327750742
vn -0.00899703242 -0.944721341 -0.327750742
vn 0.791376412 -0.586228788 -0.17337583
vn 0.567985713 -0.821444869 0.0511912629
vn 0.978098273 -0.0155732287 -0.20756039
vn 0.791376412 -0.586228788 -0.17337583
vn -0.218050182 -0.00376271782 -0.975930333
vn 0.567985713 -0.821444869 0.0511912629
vn 0.978098273 -0.0155732287 -0.20756039
vn 0.791376412 -0.586228788 -0.17337583
vn 0.99528873 -0.0198659915 0.0948980376
vn -0.663336277 0.726752341 0.178370446
vn 0.255979985 0.779117227 0.572233021
vn -0.532432973 0.582132161 0.614522099
vn -0.801203966 0.55007726 -0.235557362
vn 0.440465629 0.365894437 0.81982398
vn -0.884620905 0.439412892 -0.156083703
vn -0.642585039 0.47532782 0.600955725
vn -0.955116451 0.244059831 -0.167891279
vn -0.775124192 0.265603572 0.573268831
vn -0.413796961 0.00676349131 0.910344124
vn -0.319800228 -0.177218795 0.930763841
vn -0.89110142 -0.0465590321 0.45140937
vn -0.535972655 -0.454456776 0.711479008
vn 0.915409029 -0.150857225 0.373186648
vn 0.629492164 0.175208569 0.756995082
vn -0.866392672 -0.486003309 0.114736155
vn -0.573411107 -0.815303564 0.0804973394
vn -0.786206186 -0.509794712 -0.349269509
vn -0.88152808 -0.278669417 -0.381118953
vn -0.918206632 -0.305218995 -0.252463877
vn -0.429644585 -0.686051488 0.587144732
vn 0.241301507 -0.838313818 0.488879919
vn 0.423901528 -0.902470946 -0.0765094012
vn 0.939760983 0.321542114 -0.116017357
vn 0.760079265 0.157838821 0.630370021
vn -0.981096327 0.0126001481 -0.193109542
vn 0.373896211 0.280855536 0.883924127
vn 0.760079265 0.157838821 0.630370021
vn 0.241301507 -0.838313818 0.488879919
vn -0.414099514 0.725644469 -0.549510419
vn -0.68648845 -0.386275262 -0.616056025
vn -0.211409196 0.684335053 -0.697847843
vn -0.414099514 0.725644469 -0.549510419
vn 0.220366523 -0.731027424 -0.645784259
vn 0.660048783 0.332622081 -0.673571169
vn 0.939760983 0.321542114 -0.116017357
vn -0.211409196 0.684335053 -0.697847843
vn 0.660048783 0.332622081 -0.673571169
vn 0.440465629 0.365894437 0.81982398
vn -0.223366231 0.0502090566 0.973440647
vn -0.404911518 0.141238049 0.903381646
vn 0.449882984 -0.745350897 0.491993278
vn 0.745910287 -0.510677636 0.427581817
vn 0.422662526 -0.861033976 0.282801718
vn 0.834983706 -0.506546021 0.214973167
vn -0.801203966 0.55007726 -0.235557362
vn -0.292921603 -0.00737792067 -0.956108034
vn -0.34424597 -0.0824766085 -0.935249925
vn -0.884620905 0.439412892 -0.156083703
vn -0.955116451 0.244059831 -0.167891279
vn -0.439525515 0.141417429 -0.88702786
vn -0.981096327 0.0126001481 -0.193109542
vn -0.649874389 0.227266997 -0.725267589
vn -0.88152808 -0.278669417 -0.381118953
vn -0.492466331 -0.100377031 -0.864523768
vn -0.786206186 -0.509794712 -0.349269509
vn -0.176273108 0.135102138 -0.975025773
vn -0.414099514 0.725644469 -0.549510419
vn -0.117942862 -0.0284455903 -0.992612839
vn 0.341540396 -0.359927595 -0.868217826
vn -0 -0.00957902707 -0.999954104
vn -0 0.82692498 -0.562312365
vn -0 -0.602958739 -0.797772348
vn -0 0.0330784172 -0.99945277
vn -0.414099514 0.725644469 -0.549510419
vn -0.34424597 -0.0824766085 -0.935249925
vn 0.00188484218 0.955033362 -0.296492249
vn 0.602325439 0.250930756 -0.757784724
vn 0.581313729 0.780862629 0.228752926
vn 0.602325439 0.250930756 -0.757784724
vn 0.627845287 0.306436598 0.715476692
vn 0.556126475 0.722691715 0.410414547
vn 0.760079265 0.157838821 0.630370021
vn 0.373896211 0.280855536 0.883924127
vn 0.545781434 0.588216186 0.596761644
vn 0.629492164 0.175208569 0.756995082
vn 0.852463186 0.520566583 0.0481346734
vn 0.915409029 -0.150857225 0.373186648
vn 0.968133867 -0.0460452475 -0.246163979
vn 0.745910287 -0.510677636 0.427581817
vn 0.879339874 -0.373245895 -0.295717508
vn 0.751949072 -0.624995172 -0.209651008
vn 0.948739231 0.265572369 -0.171362653
vn 0.449882984 -0.745350897 0.491993278
vn 0.556193709 -0.828997076 -0.058416564
vn 0.48303625 0.757097244 0.439863354
vn 0.344539225 0.766859293 0.541497469
vn 0.246227533 0.61354959 0.750285923
vn -0 0.736080766 0.67689383
vn -0 -0.625380516 0.780320048
vn -0 0.974118888 0.226036578
vn 0.211933106 0.872430086 0.44039768
vn 0.422662526 -0.861033976 0.282801718
vn 0.389579087 -0.831251621 0.396546274
vn 0.627845287 0.306436598 0.715476692
vn 0.834983706 -0.506546021 0.214973167
vn 0.318417102 -0.820999205 0.473889112
vn 0.0448788665 -0.892127872 0.449548483
vn -0 -0.563725293 0.825962424
vn 0.627845287 0.306436598 0.715476692
vn -0 0.457023263 0.889454782
vn -0 -0.927598059 0.373579651
vn -0.414099514 0.725644469 -0.549510419
vn -0 -0.625380516 0.780320048
vn -0 -0.602958739 -0.797772348
vn 0.545781434 0.588216186 0.596761644
vn 0.627845287 0.306436598 0.715476692
vn 0.834983706 -0.506546021 0.214973167
vn 0.440465629 0.365894437 0.81982398
vn 0.255979985 0.779117227 0.572233021
vn 0.602325439 0.250930756 -0.757784724
vn 0.341540396 -0.359927595 -0.868217826
vn 0.581313729 0.780862629 0.228752926
vn -0.34424597 -0.0824766085 -0.935249925
vn -0.414099514 0.725644469 -0.549510419
vn -0.211409196 0.684335053 -0.697847843
vn 0.660048783 0.332622081 -0.673571169
vn 0.939760983 0.321542114 -0.116017357
vn -0.414099514 0.725644469 -0.549510419
vn 0.939760983 0.321542114 -0.116017357
vn 0.760079265 0.157838821 0.630370021
vn 0.939760983 0.321542114 -0.116017357
vn -0.00723693147 -0.972081006 -0.234533772
vn -0 -0.976376832 -0.216074675
vn -0.539813519 -0.698013902 -0.470508188
vn -0 -0.578757286 -0.815499842
vn 0.46734643 -0.321867347 -0.823400736
vn 0.0783637464 0.000241527639 -0.996924818
vn -0.750999868 -0.0170229357 -0.660082877
vn -0 -0.578757286 -0.815499842
vn -0 -0.578757286 -0.815499842
vn -0 -0.00260237069 -0.999996662
vn 0.46734643 -0.321867347 -0.823400736
vn 0.218050182 -0.00376271782 -0.975930333
vn 0.161825269 -0.577500284 -0.800191164
vn 0.0783637464 0.000241527639 -0.996924818
vn 0.00899703801 -0.944721341 -0.327750772
vn -0.791376412 -0.586228788 -0.17337583
vn 0.00899703801 -0.944721341 -0.327750772
vn -0.567985713 -0.821444869 0.0511912629
vn -0.978098273 -0.0155732287 -0.20756039
vn 0.218050182 -0.00376271782 -0.975930333
vn -0.791376412 -0.586228788 -0.17337583
vn -0.567985713 -0.821444869 0.0511912629
vn -0.978098273 -0.0155732287 -0.20756039
vn -0.99528873 -0.0198659915 0.0948980302
vn -0.791376412 -0.586228788 -0.17337583
vn -0.567985713 -0.821444869 0.0511912629
vn 0.00899703801 -0.944721341 -0.327750772
vn 0.663336277 0.726752341 0.178370446
g Blue_war_f_pve_2_belt_0
f 3/3/3 2/2/2 1/1/1
f 1/1/1 4/4/4 3/3/3
f 2/2/2 3/3/3 5/5/5
f 6/6/6 5/5/5 3/3/3
f 5/5/5 6/6/6 7/7/7
f 8/8/8 7/7/7 6/6/6
f 8/8/8 6/6/6 9/9/9
f 9/9/9 10/10/10 8/8/8
f 11/11/11 8/8/8 10/10/10
f 10/10/10 12/12/12 11/11/11
f 10/10/10 13/13/13 12/12/12
f 14/14/14 11/11/11 12/12/12
f 14/14/14 12/12/12 15/15/15
f 15/15/15 16/16/16 14/14/14
f 17/17/17 14/14/14 16/16/16
f 16/16/16 15/15/15 18/18/18
f 19/19/19 15/15/15 12/12/12
f 19/19/19 20/20/20 15/15/15
f 21/21/21 15/15/15 20/20/20
f 15/15/15 21/21/21 18/18/18
f 21/21/21 20/20/20 22/22/22
f 23/23/23 22/22/22 20/20/20
f 11/11/11 14/14/14 24/24/24
f 17/17/17 24/24/24 14/14/14
f 19/19/19 12/12/12 25/25/25
f 25/25/25 26/26/26 19/19/19
f 27/27/27 19/19/19 26/26/26
f 28/28/28 25/25/25 12/12/12
f 29/29/29 16/16/16 18/18/18
f 21/21/21 30/30/30 18/18/18
f 30/30/30 31/31/31 18/18/18
f 32/32/32 18/18/18 31/31/31
f 21/21/21 33/33/33 30/30/30
f 33/33/33 21/21/21 34/34/34
f 35/35/35 34/34/34 21/21/21
f 30/30/30 33/33/33 36/36/36
f 37/37/37 36/36/36 33/33/33
f 28/28/28 12/12/12 38/38/38
f 7/7/7 8/8/8 24/24/24
f 11/11/11 24/24/24 8/8/8
f 40/40/40 3/3/3 39/39/39
f 40/40/40 41/41/41 3/3/3
f 41/41/41 40/40/40 42/42/42
f 41/41/41 42/42/42 9/9/9
f 43/43/43 9/9/9 42/42/42
f 41/41/41 9/9/9 6/6/6
f 6/6/6 3/3/3 41/41/41
f 9/9/9 43/43/43 10/10/10
f 13/13/13 10/10/10 43/43/43
f 45/45/45 40/40/40 44/44/44
f 4/4/4 44/44/44 40/40/40
f 45/45/45 46/46/46 40/40/40
f 49/49/49 48/48/48 47/47/47
f 50/50/50 47/47/47 48/48/48
f 49/49/49 51/51/51 48/48/48
f 52/52/52 48/48/48 51/51/51
f 51/51/51 53/53/53 52/52/52
f 48/48/48 54/54/54 50/50/50
f 50/50/50 54/54/54 55/55/55
f 54/54/54 56/56/56 55/55/55
f 57/57/57 55/55/55 56/56/56
f 59/59/59 52/52/52 58/58/58
f 58/58/58 60/60/60 59/59/59
f 61/61/61 59/59/59 60/60/60
f 62/62/62 61/61/61 60/60/60
f 61/61/61 64/64/64 63/63/63
f 65/65/65 63/63/63 62/62/62
f 67/67/67 66/66/66 63/63/63
f 68/68/68 63/63/63 66/66/66
f 71/71/71 70/70/70 69/69/69
f 2/2/2 69/69/69 70/70/70
f 2/2/2 70/70/70 1/1/1
f 1/1/1 70/70/70 72/72/72
f 73/73/73 72/72/72 70/70/70
f 72/72/72 74/74/74 1/1/1
f 77/77/77 76/76/76 75/75/75
f 78/78/78 75/75/75 76/76/76
f 78/78/78 79/79/79 75/75/75
f 80/80/80 75/75/75 79/79/79
f 79/79/79 81/81/81 80/80/80
f 82/82/82 80/80/80 81/81/81
f 81/81/81 83/83/83 82/82/82
f 84/84/84 82/82/82 83/83/83
f 85/85/85 84/84/84 83/83/83
f 86/86/86 80/80/80 82/82/82
f 83/83/83 87/87/87 85/85/85
f 87/87/87 88/88/88 85/85/85
f 80/80/80 89/89/89 75/75/75
f 90/90/90 75/75/75 89/89/89
f 91/91/91 77/77/77 75/75/75
f 91/91/91 92/92/92 77/77/77
f 93/93/93 77/77/77 92/92/92
f 92/92/92 91/91/91 94/94/94
f 95/95/95 94/94/94 91/91/91
f 90/90/90 95/95/95 91/91/91
f 90/90/90 91/91/91 75/75/75
f 88/88/88 87/87/87 96/96/96
f 88/88/88 96/96/96 97/97/97
f 97/97/97 96/96/96 98/98/98
f 96/96/96 99/99/99 98/98/98
f 88/88/88 97/97/97 100/100/100
f 97/97/97 101/101/101 100/100/100
f 97/97/97 102/102/102 101/101/101
f 97/97/97 103/103/103 102/102/102
f 104/104/104 102/102/102 103/103/103
f 105/105/105 101/101/101 102/102/102
f 108/108/108 107/107/107 106/106/106
f 109/109/109 106/106/106 107/107/107
f 112/112/112 111/111/111 110/110/110
f 112/112/112 113/113/113 111/111/111
f 112/112/112 114/114/114 113/113/113
f 113/113/113 115/115/115 111/111/111
f 111/111/111 115/115/115 116/116/116
f 117/117/117 115/115/115 113/113/113
f 120/120/120 119/119/119 118/118/118
f 119/119/119 121/121/121 118/118/118
f 124/124/124 123/123/123 122/122/122
f 124/124/124 122/122/122 125/125/125
f 128/128/128 127/127/127 126/126/126
f 127/127/127 130/130/130 129/129/129
f 77/77/77 129/129/129 131/131/131
f 77/77/77 133/133/133 132/132/132
f 136/136/136 135/135/135 134/134/134
f 134/134/134 135/135/135 137/137/137
f 135/135/135 138/138/138 137/137/137
f 135/135/135 139/139/139 138/138/138
f 140/140/140 138/138/138 139/139/139
f 138/138/138 140/140/140 141/141/141
f 142/142/142 141/141/141 140/140/140
f 139/139/139 143/143/143 140/140/140
f 144/144/144 140/140/140 143/143/143
f 142/142/142 140/140/140 144/144/144
f 144/144/144 143/143/143 145/145/145
f 146/146/146 145/145/145 143/143/143
f 145/145/145 146/146/146 147/147/147
f 144/144/144 145/145/145 148/148/148
f 147/147/147 148/148/148 145/145/145
f 148/148/148 142/142/142 144/144/144
f 142/142/142 148/148/148 149/149/149
f 150/150/150 149/149/149 148/148/148
f 148/148/148 151/151/151 150/150/150
f 147/147/147 152/152/152 148/148/148
f 142/142/142 149/149/149 153/153/153
f 141/141/141 154/154/154 138/138/138
f 141/141/141 142/142/142 155/155/155
f 141/141/141 155/155/155 156/156/156
f 156/156/156 154/154/154 141/141/141
f 156/156/156 157/157/157 154/154/154
f 158/158/158 154/154/154 157/157/157
f 157/157/157 159/159/159 158/158/158
f 160/160/160 158/158/158 159/159/159
f 157/157/157 156/156/156 161/161/161
f 155/155/155 162/162/162 156/156/156
f 159/159/159 157/157/157 163/163/163
f 164/164/164 163/163/163 157/157/157
f 158/158/158 165/165/165 154/154/154
f 158/158/158 160/160/160 165/165/165
f 166/166/166 154/154/154 165/165/165
f 154/154/154 166/166/166 138/138/138
f 166/166/166 137/137/137 138/138/138
f 166/166/166 165/165/165 137/137/137
f 167/167/167 137/137/137 165/165/165
f 165/165/165 168/168/168 167/167/167
f 168/168/168 165/165/165 160/160/160
f 169/169/169 167/167/167 168/168/168
f 167/167/167 170/170/170 137/137/137
f 167/167/167 169/169/169 170/170/170
f 134/134/134 137/137/137 170/170/170
f 134/134/134 170/170/170 136/136/136
f 171/171/171 136/136/136 170/170/170
f 170/170/170 172/172/172 171/171/171
f 172/172/172 170/170/170 169/169/169
f 173/173/173 171/171/171 172/172/172
f 171/171/171 174/174/174 136/136/136
f 175/175/175 136/136/136 174/174/174
f 136/136/136 175/175/175 135/135/135
f 135/135/135 175/175/175 176/176/176
f 175/175/175 174/174/174 176/176/176
f 177/177/177 135/135/135 176/176/176
f 135/135/135 177/177/177 139/139/139
f 178/178/178 139/139/139 177/177/177
f 177/177/177 179/179/179 178/178/178
f 180/180/180 178/178/178 179/179/179
f 139/139/139 178/178/178 143/143/143
f 181/181/181 143/143/143 178/178/178
f 178/178/178 180/180/180 181/181/181
f 181/181/181 182/182/182 143/143/143
f 146/146/146 143/143/143 182/182/182
f 146/146/146 182/182/182 147/147/147
f 182/182/182 181/181/181 183/183/183
f 183/183/183 147/147/147 182/182/182
f 180/180/180 183/183/183 181/181/181
f 180/180/180 184/184/184 183/183/183
f 185/185/185 183/183/183 184/184/184
f 186/186/186 183/183/183 185/185/185
f 187/187/187 147/147/147 183/183/183
f 184/184/184 180/180/180 188/188/188
f 189/189/189 179/179/179 177/177/177
f 179/179/179 190/190/190 180/180/180
f 190/190/190 179/179/179 191/191/191
f 189/189/189 191/191/191 179/179/179
f 191/191/191 189/189/189 192/192/192
f 193/193/193 192/192/192 189/189/189
f 192/192/192 193/193/193 194/194/194
f 195/195/195 194/194/194 193/193/193
f 192/192/192 196/196/196 191/191/191
f 194/194/194 197/197/197 192/192/192
f 198/198/198 192/192/192 197/197/197
f 193/193/193 189/189/189 199/199/199
f 193/193/193 199/199/199 195/195/195
f 200/200/200 199/199/199 189/189/189
f 200/200/200 189/189/189 177/177/177
f 176/176/176 200/200/200 177/177/177
f 200/200/200 176/176/176 199/199/199
f 201/201/201 199/199/199 176/176/176
f 199/199/199 201/201/201 202/202/202
f 202/202/202 195/195/195 199/199/199
f 203/203/203 202/202/202 201/201/201
f 201/201/201 176/176/176 174/174/174
f 201/201/201 174/174/174 203/203/203
f 204/204/204 203/203/203 174/174/174
f 174/174/174 171/171/171 204/204/204
f 173/173/173 204/204/204 171/171/171
f 142/142/142 206/206/206 205/205/205
f 205/205/205 206/206/206 207/207/207
f 208/208/208 207/207/207 206/206/206
f 207/207/207 209/209/209 205/205/205
f 210/210/210 205/205/205 209/209/209
f 209/209/209 207/207/207 211/211/211
f 212/212/212 211/211/211 207/207/207
f 207/207/207 208/208/208 212/212/212
f 213/213/213 212/212/212 208/208/208
f 205/205/205 155/155/155 142/142/142
f 216/216/216 215/215/215 214/214/214
f 217/217/217 214/214/214 215/215/215
f 217/217/217 218/218/218 214/214/214
f 217/217/217 220/220/220 219/219/219
f 221/221/221 219/219/219 220/220/220
f 223/223/223 217/217/217 222/222/222
f 224/224/224 222/222/222 217/217/217
f 227/227/227 226/226/226 225/225/225
f 228/228/228 225/225/225 226/226/226
f 80/80/80 229/229/229 89/89/89
f 80/80/80 86/86/86 229/229/229
f 232/232/232 231/231/231 230/230/230
f 230/230/230 231/231/231 233/233/233
f 232/232/232 234/234/234 231/231/231
f 235/235/235 231/231/231 234/234/234
f 234/234/234 236/236/236 235/235/235
f 237/237/237 235/235/235 236/236/236
f 237/237/237 238/238/238 235/235/235
f 238/238/238 237/237/237 239/239/239
f 240/240/240 239/239/239 237/237/237
f 239/239/239 240/240/240 241/241/241
f 239/239/239 241/241/241 242/242/242
f 243/243/243 242/242/242 241/241/241
f 244/244/244 241/241/241 240/240/240
f 244/244/244 245/245/245 241/241/241
f 245/245/245 244/244/244 246/246/246
f 247/247/247 246/246/246 244/244/244
f 245/245/245 246/246/246 248/248/248
f 249/249/249 241/241/241 245/245/245
f 249/249/249 245/245/245 250/250/250
f 251/251/251 250/250/250 245/245/245
f 251/251/251 245/245/245 248/248/248
f 251/251/251 252/252/252 250/250/250
f 253/253/253 250/250/250 252/252/252
f 247/247/247 244/244/244 254/254/254
f 240/240/240 254/254/254 244/244/244
f 243/243/243 241/241/241 255/255/255
f 249/249/249 255/255/255 241/241/241
f 255/255/255 249/249/249 256/256/256
f 257/257/257 256/256/256 249/249/249
f 246/246/246 258/258/258 248/248/248
f 259/259/259 251/251/251 248/248/248
f 259/259/259 248/248/248 260/260/260
f 261/261/261 260/260/260 248/248/248
f 262/262/262 251/251/251 259/259/259
f 262/262/262 263/263/263 251/251/251
f 264/264/264 251/251/251 263/263/263
f 259/259/259 265/265/265 262/262/262
f 266/266/266 262/262/262 265/265/265
f 240/240/240 237/237/237 254/254/254
f 236/236/236 254/254/254 237/237/237
f 268/268/268 267/267/267 231/231/231
f 268/268/268 231/231/231 269/269/269
f 269/269/269 270/270/270 268/268/268
f 269/269/269 238/238/238 270/270/270
f 271/271/271 270/270/270 238/238/238
f 269/269/269 235/235/235 238/238/238
f 235/235/235 269/269/269 231/231/231
f 238/238/238 239/239/239 271/271/271
f 242/242/242 271/271/271 239/239/239
f 272/272/272 268/268/268 270/270/270
f 272/272/272 273/273/273 268/268/268
f 233/233/233 268/268/268 273/273/273
f 276/276/276 275/275/275 274/274/274
f 277/277/277 274/274/274 275/275/275
f 277/277/277 275/275/275 278/278/278
f 279/279/279 278/278/278 275/275/275
f 278/278/278 279/279/279 280/280/280
f 281/281/281 280/280/280 279/279/279
f 280/280/280 281/281/281 282/282/282
f 283/283/283 282/282/282 281/281/281
f 283/283/283 284/284/284 282/282/282
f 283/283/283 285/285/285 284/284/284
f 286/286/286 284/284/284 285/285/285
f 287/287/287 275/275/275 276/276/276
f 287/287/287 276/276/276 288/288/288
f 287/287/287 288/288/288 289/289/289
f 290/290/290 289/289/289 288/288/288
f 292/292/292 291/291/291 285/285/285
f 293/293/293 285/285/285 291/291/291
f 232/232/232 295/295/295 294/294/294
f 296/296/296 294/294/294 295/295/295
f 295/295/295 232/232/232 230/230/230
f 230/230/230 297/297/297 295/295/295
f 298/298/298 295/295/295 297/297/297
f 297/297/297 230/230/230 299/299/299
f 302/302/302 301/301/301 300/300/300
f 303/303/303 300/300/300 301/301/301
f 302/302/302 300/300/300 304/304/304
f 305/305/305 304/304/304 300/300/300
f 304/304/304 305/305/305 306/306/306
f 307/307/307 306/306/306 305/305/305
f 306/306/306 307/307/307 308/308/308
f 309/309/309 308/308/308 307/307/307
f 309/309/309 310/310/310 308/308/308
f 305/305/305 311/311/311 307/307/307
f 312/312/312 308/308/308 310/310/310
f 313/313/313 312/312/312 310/310/310
f 305/305/305 300/300/300 314/314/314
f 315/315/315 314/314/314 300/300/300
f 303/303/303 316/316/316 300/300/300
f 316/316/316 303/303/303 317/317/317
f 318/318/318 317/317/317 303/303/303
f 317/317/317 319/319/319 316/316/316
f 320/320/320 316/316/316 319/319/319
f 320/320/320 315/315/315 316/316/316
f 316/316/316 315/315/315 300/300/300
f 312/312/312 313/313/313 321/321/321
f 321/321/321 313/313/313 322/322/322
f 321/321/321 322/322/322 323/323/323
f 324/324/324 321/321/321 323/323/323
f 322/322/322 313/313/313 325/325/325
f 326/326/326 322/322/322 325/325/325
f 322/322/322 326/326/326 327/327/327
f 322/322/322 327/327/327 328/328/328
f 329/329/329 328/328/328 327/327/327
f 330/330/330 327/327/327 326/326/326
f 333/333/333 332/332/332 331/331/331
f 334/334/334 331/331/331 332/332/332
f 337/337/337 336/336/336 335/335/335
f 337/337/337 335/335/335 338/338/338
f 341/341/341 340/340/340 339/339/339
f 339/339/339 340/340/340 342/342/342
f 345/345/345 344/344/344 343/343/343
f 345/345/345 347/347/347 346/346/346
f 303/303/303 348/348/348 347/347/347
f 350/350/350 303/303/303 349/349/349
f 352/352/352 180/180/180 351/351/351
f 351/351/351 353/353/353 352/352/352
f 354/354/354 352/352/352 353/353/353
f 353/353/353 351/351/351 355/355/355
f 190/190/190 355/355/355 351/351/351
f 351/351/351 180/180/180 190/190/190
f 355/355/355 356/356/356 353/353/353
f 357/357/357 353/353/353 356/356/356
f 353/353/353 357/357/357 358/358/358
f 360/360/360 359/359/359 357/357/357
f 363/363/363 362/362/362 361/361/361
f 364/364/364 361/361/361 362/362/362
f 365/365/365 363/363/363 361/361/361
f 363/363/363 367/367/367 366/366/366
f 368/368/368 366/366/366 367/367/367
f 370/370/370 363/363/363 369/369/369
f 371/371/371 369/369/369 363/363/363
f 374/374/374 373/373/373 372/372/372
f 375/375/375 372/372/372 373/373/373
f 377/377/377 191/191/191 376/376/376
f 378/378/378 305/305/305 314/314/314
f 311/311/311 305/305/305 378/378/378
