g Blue_mag_f_pve_2_helmet
v 0.194450006 0.0654910579 -0.0371203125
v 0.232437342 0.0757286996 7.64751462E-07
v 0.182005689 0.0702961981 -0.0333239362
v 0.246857092 0.0730532333 7.64759932E-07
v 0.167300493 0.0487624742 -0.0551680401
v 0.156095028 0.056782756 -0.0517064147
v 0.181411475 0.0671586469 -0.0307533499
v 0.232390448 0.0756914467 7.64735603E-07
v 0.16661422 0.046343632 -0.0525430329
v 0.193764836 0.062119849 -0.0348909907
v 0.15524286 0.0544462427 -0.0490562096
v 0.246857092 0.0730532333 7.64759932E-07
v 0.16661422 0.046343632 -0.0525430329
v 0.181411475 0.0671586469 -0.0307533499
v 0.193764836 0.062119849 -0.0348909907
v 0.15524286 0.0544462427 -0.0490562096
v 0.232390448 0.0756914467 7.64735603E-07
v 0.246821746 0.0730179325 7.6474555E-07
v 0.0854613185 -0.0487929769 -0.0664420053
v 0.115312234 -0.0139212841 -0.0718064979
v 0.0934351534 -0.0117393853 -0.0757935345
v 0.106011614 -0.0526085421 -0.0671337843
v 0.127275661 0.0319434591 -0.0704931021
v 0.101869158 0.0388877988 -0.0791256577
v 0.100868709 -0.0800724328 -0.0370730646
v 0.0803282633 -0.0762042776 -0.0364362784
v 0.0993274823 -0.0883028135 6.99803536E-07
v 0.0787911192 -0.0844128206 6.9981877E-07
v 0.0871382207 -0.0392262563 -0.051784277
v 0.0933472887 -0.010657466 -0.058879938
v 0.101869158 0.0388877988 -0.0791256577
v 0.109720774 0.035324052 -0.0432917885
v 0.0825041011 -0.0639731884 7.07083132E-07
v 0.0826409012 -0.0632426068 -0.0311839171
v 0.117025286 -0.00563875074 -0.0680340305
v 0.107827917 -0.0437954366 -0.0607039258
v 0.102468848 -0.0724136308 -0.0323877595
v 0.10140875 -0.0780747756 7.03453054E-07
v 0.126879081 0.0241013616 -0.053630814
v 0.101869158 0.0388877988 -0.0791256577
v 0.142860025 0.0567171611 -0.0552404188
v 0.146323115 0.0289628953 -0.0731448606
v 0.160637379 0.0481420457 -0.0637097657
v 0.17326881 0.0648175925 -0.0505512133
v 0.160114527 0.0805934966 -0.0358557291
v 0.1173902 0.0880841389 -0.0440619513
v 0.165310726 0.0911492109 -0.0166719425
v 0.106762685 0.106030844 -0.0215775128
v 0.169195175 0.0931969434 7.66684934E-07
v 0.0927859768 0.113875046 7.68874372E-07
v 0.107867464 0.0597662106 -0.063921608
v 0.103427149 0.0766241252 -0.0547570586
v 0.157809556 0.0301420707 -0.0951070413
v 0.146323115 0.0289628953 -0.0731448606
v 0.187665135 0.0514753237 -0.0557049662
v 0.220635444 0.0216175448 -0.0844737068
v 0.162311271 0.0737637654 7.59562397E-07
v 0.11400073 0.064800106 -0.043635115
v 0.104781672 0.0963364989 -0.0204456486
v 0.0904795602 0.102445483 7.64797335E-07
v 0.155650228 0.0551360361 -0.0316038355
v 0.106762685 0.106030844 0.0215790439
v 0.165310726 0.0911492109 0.0166734736
v 0.117390193 0.0880841017 0.0440634862
v 0.160114512 0.0805934668 0.0358572491
v 0.14286001 0.0567171238 0.055241935
v 0.107867464 0.0597661734 0.0639231056
v 0.103427142 0.076624088 0.0547585748
v 0.17326881 0.0648175627 0.0505527295
v 0.160637349 0.0481420085 0.0637112632
v 0.1463231 0.0289628413 0.0731463581
v 0.127275661 0.0319434032 0.0704945996
v 0.101869151 0.0388877429 0.0791271552
v 0.157809541 0.0301420148 0.095108524
v 0.1463231 0.0289628413 0.0731463581
v 0.18766512 0.0514752865 0.0557064824
v 0.220635429 0.0216174889 0.0844751894
v 0.11400073 0.0648000687 0.0436366312
v 0.104781672 0.0963364989 0.0204471797
v 0.0904795602 0.102445483 7.64797335E-07
v 0.0978626013 0.0584061258 0.0685293674
v 0.0893777087 0.0652441084 0.0570924729
v 0.0876000077 0.0569272824 0.0733423904
v 0.0893777087 0.0652441084 0.0570924729
v 0.085157834 0.0401783884 0.0878888294
v 0.060263928 0.0842513815 0.0498005077
v 0.0687575266 0.0875637606 0.0523658656
v 0.073636353 0.08307603 0.0438949652
v 0.0893777087 0.0652441084 0.0570924729
v 0.073591359 0.0950834602 0.0340876244
v 0.0733007416 0.0930134058 0.0318922438
v 0.103427142 0.076624088 0.0547585748
v 0.085147351 0.0401489586 0.0579178445
v 0.060263928 0.0842513815 0.0498005077
v 0.0607869327 0.0802107975 0.0458070822
v 0.060263928 0.0842513815 0.0498005077
v 0.0733007416 0.0930134058 0.0318922438
v 0.0607869327 0.0802107975 0.0458070822
v 0.103427149 0.0766241252 -0.0547570586
v 0.0978626236 0.0584061854 -0.0685278699
v 0.0876000226 0.056927342 -0.0733408928
v 0.0893777162 0.0652441457 -0.0570909567
v 0.068757534 0.0875637978 -0.0523643494
v 0.0602639392 0.0842514187 -0.0497989915
v 0.0851578414 0.0401784442 -0.0878873393
v 0.0735913664 0.0950835049 -0.0340861045
v 0.0736363605 0.0830760673 -0.043893449
v 0.0893777162 0.0652441457 -0.0570909567
v 0.0733007491 0.0930134431 -0.0318907239
v 0.103427149 0.0766241252 -0.0547570586
v 0.0602639392 0.0842514187 -0.0497989915
v 0.0851473585 0.0401489958 -0.0579163507
v 0.0607869364 0.0802108347 -0.045805566
v 0.0733007491 0.0930134431 -0.0318907239
v 0.0602639392 0.0842514187 -0.0497989915
v 0.0607869364 0.0802108347 -0.045805566
v 0.065860875 0.0378050618 -0.0696769357
v 0.0416113064 0.0489255711 -0.058401864
v 0.0440788344 0.0355246104 -0.0787228197
v 0.0649292916 0.053693857 -0.0610563979
v 0.0661603734 0.0184040796 -0.0734759271
v 0.107847773 0.010665182 -0.0720647275
v 0.108071834 0.0103942901 -0.0619010404
v 0.0662681684 0.0183297731 -0.0661779046
v 0.0434527956 0.0227432419 -0.0839260817
v 0.0403822362 0.0233356468 -0.060264688
v 0.0174325891 0.0490703322 -0.0665023103
v 0.0403822362 0.0233356468 -0.060264688
v 0.0208310746 0.0484434254 -0.0537960455
v 0.0243854951 0.0539797395 -0.0648118258
v 0.0416113064 0.0489255711 -0.058401864
v 0.0347186923 0.0582488142 -0.0537220165
v 0.0360129923 0.0839043856 -0.0426824018
v 0.107470036 0.0493861102 -0.067351155
v 0.157809556 0.0301420707 -0.0951070413
v 0.234128952 0.0142386882 -0.0583959892
v 0.220635444 0.0216175448 -0.0844737068
v 0.183059037 0.0208413769 -0.0536887161
v 0.280157328 0.00497774919 -0.0559549257
v 0.148665801 0.0237059724 -0.0530731902
v 0.146323115 0.0289628953 -0.0731448606
v 0.151059926 0.037303362 -0.0495274328
v 0.187665135 0.0514753237 -0.0557049662
v 0.23693797 0.0261396524 -0.058814656
v 0.280157328 0.00497774919 -0.0559549257
v 0.17326881 0.0648175925 -0.0505512133
v 0.187665135 0.0514753237 -0.0557049662
v 0.155650228 0.0551360361 -0.0316038355
v 0.160114527 0.0805934966 -0.0358557291
v 0.126879081 0.0241013616 -0.053630814
v 0.127275661 0.0319434591 -0.0704931021
v 0.146323115 0.0289628953 -0.0731448606
v 0.187665135 0.0514753237 -0.0557049662
v 0.23693797 0.0261396524 -0.058814656
v 0.280157328 0.00497774919 -0.0559549257
v 0.0733007491 0.0930134431 -0.0318907239
v 0.0736363605 0.0830760673 -0.043893449
v 0.0607869364 0.0802108347 -0.045805566
v 0.0893777162 0.0652441457 -0.0570909567
v 0.0851473585 0.0401489958 -0.0579163507
v 0.0893777162 0.0652441457 -0.0570909567
v 0.103427149 0.0766241252 -0.0547570586
v 0.109720774 0.035324052 -0.0432917885
v 0.11400073 0.064800106 -0.043635115
v 0.1173902 0.0880841389 -0.0440619513
v 0.0360129923 0.0839043856 -0.0426824018
v 0.0347186923 0.0582488142 -0.0537220165
v 0.0208310746 0.0484434254 -0.0537960455
v 0.0416113064 0.0489255711 -0.058401864
v 0.0403822362 0.0233356468 -0.060264688
v 0.0662681684 0.0183297731 -0.0661779046
v 0.0649292916 0.053693857 -0.0610563979
v 0.107470036 0.0493861102 -0.067351155
v 0.108071834 0.0103942901 -0.0619010404
v 0.216621563 0.0742014274 -0.0164392367
v 0.250921458 0.067778416 -0.0125421165
v 0.251564085 0.0695910975 -0.0159053281
v 0.251564085 0.0695910975 -0.0159053281
v 0.267429471 0.0818876326 7.69120561E-07
v 0.267878383 0.0839723945 7.69866062E-07
v 0.250921458 0.067778416 -0.0125421165
v 0.331397176 0.0527085997 7.63208561E-07
v 0.250921458 0.067778416 -0.0125421165
v 0.232796222 0.0908587798 7.69974974E-07
v 0.251564085 0.0695910975 -0.0159053281
v 0.216621563 0.0742014274 -0.0164392367
v 0.217808589 0.0779993236 -0.0217180438
v 0.216621563 0.0742014274 -0.0164392367
v 0.217808589 0.0779993236 -0.0217180438
v 0.233183682 0.0926626101 7.7061992E-07
v 0.207499683 0.0978696793 7.70756571E-07
v 0.181021646 0.0808678418 -0.0205587391
v 0.217808589 0.0779993236 0.0217195749
v 0.207499683 0.0978696793 7.70756571E-07
v 0.181021646 0.0808678418 0.020560259
v 0.232796222 0.0908587798 7.69974974E-07
v 0.251564085 0.0695910975 0.0159068536
v 0.267878383 0.0839723945 7.69866062E-07
v 0.216621563 0.0742014274 0.0164407622
v 0.267429471 0.0818876326 7.69120561E-07
v 0.251564085 0.0695910975 0.0159068536
v 0.250921458 0.067778416 0.012543642
v 0.331397176 0.0527085997 7.63208561E-07
v 0.250921458 0.067778416 0.012543642
v 0.217808589 0.0779993236 0.0217195749
v 0.216621563 0.0742014274 0.0164407622
v 0.183959782 0.0867631882 -0.0302652176
v 0.207499683 0.0978696793 7.70756571E-07
v 0.20827955 0.101507865 7.72057206E-07
v 0.117558382 0.114343144 7.70629697E-07
v 0.183959782 0.0867631882 -0.0302652176
v 0.181021646 0.0808678418 -0.0205587391
v 0.106250942 0.100896411 7.65280049E-07
v 0.117558382 0.114343144 7.70629697E-07
v 0.183959782 0.0867631882 -0.0302652176
v 0.181021646 0.0808678418 -0.0205587391
v 0.207499683 0.0978696793 7.70756571E-07
v 0.183959767 0.086763151 0.0302667487
v 0.117558382 0.114343144 7.70629697E-07
v 0.183959767 0.086763151 0.0302667487
v 0.181021646 0.0808678418 0.020560259
v 0.106250942 0.100896411 7.65280049E-07
v 0.117558382 0.114343144 7.70629697E-07
v 0.183959767 0.086763151 0.0302667487
v 0.181021646 0.0808678418 0.020560259
v 0.181021646 0.0808678418 -0.0205587391
v 0.216621563 0.0742014274 -0.0164392367
v 0.217808589 0.0779993236 -0.0217180438
v 0.250921458 0.067778416 -0.0125421165
v 0.218958676 0.0866819546 7.67648658E-07
v 0.253248513 0.0802052394 7.67629615E-07
v 0.216621563 0.0742014274 -0.0164392367
v 0.182715431 0.093504943 7.67661106E-07
v 0.181021646 0.0808678418 -0.0205587391
v 0.331397176 0.0527085997 7.63208561E-07
v 0.106250942 0.100896411 7.65280049E-07
v 0.0851473585 0.0401489958 -0.0579163507
v 0.101869158 0.0388877988 -0.0791256577
v 0.0851578414 0.0401784442 -0.0878873393
v 0.109720774 0.035324052 -0.0432917885
v 0.246857092 0.0730532333 7.64759932E-07
v 0.193764836 0.062119849 -0.0348909907
v 0.246821746 0.0730179325 7.6474555E-07
v 0.194449991 0.0654910207 0.0371218324
v 0.232437342 0.0757286996 7.64751462E-07
v 0.246857092 0.0730532333 7.64759932E-07
v 0.182005674 0.0702961683 0.0333254561
v 0.167300493 0.0487624407 0.0551695377
v 0.156095028 0.0567827225 0.0517079309
v 0.18141146 0.0671586096 0.0307548698
v 0.232390448 0.0756914467 7.64735603E-07
v 0.166614205 0.0463435985 0.0525445305
v 0.193764836 0.0621198118 0.0348924994
v 0.155242845 0.0544462055 0.0490577258
v 0.246857092 0.0730532333 7.64759932E-07
v 0.166614205 0.0463435985 0.0525445305
v 0.18141146 0.0671586096 0.0307548698
v 0.155242845 0.0544462055 0.0490577258
v 0.193764836 0.0621198118 0.0348924994
v 0.232390448 0.0756914467 7.64735603E-07
v 0.246821746 0.0730179325 7.6474555E-07
v 0.085461311 -0.0487930141 0.0664434284
v 0.115312219 -0.0139213344 0.0718079582
v 0.106011607 -0.0526085794 0.0671352074
v 0.0934351459 -0.0117394365 0.0757949948
v 0.101869151 0.0388877429 0.0791271552
v 0.100868709 -0.0800724477 0.0370744728
v 0.0803282559 -0.0762042999 0.0364376865
v 0.0993274823 -0.0883028135 6.99803536E-07
v 0.0787911192 -0.0844128206 6.9981877E-07
v 0.0871382207 -0.0392262936 0.0517857149
v 0.0933472887 -0.0106575079 0.0588813946
v 0.101869151 0.0388877429 0.0791271552
v 0.109720759 0.0353240147 0.0432932861
v 0.0825041011 -0.0639731884 7.07083132E-07
v 0.0826409012 -0.0632426217 0.0311853327
v 0.117025279 -0.00563879777 0.0680354908
v 0.107827909 -0.0437954739 0.0607053638
v 0.102468848 -0.0724136457 0.032389164
v 0.10140875 -0.0780747756 7.03453054E-07
v 0.126879066 0.0241013262 0.0536322929
v 0.0658608675 0.0378050134 0.0696784183
v 0.0416113026 0.0489255339 0.0584033616
v 0.0649292842 0.0536938161 0.0610578954
v 0.0440788269 0.0355245546 0.0787242949
v 0.0661603659 0.0184040293 0.0734774023
v 0.107847765 0.0106651308 0.0720662028
v 0.108071819 0.0103942491 0.0619025156
v 0.0662681609 0.0183297247 0.0661793873
v 0.0434527881 0.022743186 0.0839275345
v 0.0403822325 0.023335604 0.0602661632
v 0.0174325816 0.0490702949 0.0665037856
v 0.0403822325 0.023335604 0.0602661632
v 0.0208310671 0.0484433882 0.0537975244
v 0.0243854877 0.0539797023 0.0648133233
v 0.0416113026 0.0489255339 0.0584033616
v 0.0347186849 0.0582487769 0.0537235141
v 0.0360129848 0.0839043483 0.0426839218
v 0.107470021 0.0493860729 0.0673526525
v 0.157809541 0.0301420148 0.095108524
v 0.234128952 0.0142386518 0.0583974868
v 0.183059037 0.0208413377 0.0536902137
v 0.220635429 0.0216174889 0.0844751894
v 0.280157328 0.00497771148 0.0559564233
v 0.148665801 0.0237059351 0.0530746691
v 0.1463231 0.0289628413 0.0731463581
v 0.151059926 0.0373033248 0.0495289303
v 0.18766512 0.0514752865 0.0557064824
v 0.23693797 0.0261396132 0.0588161536
v 0.280157328 0.00497771148 0.0559564233
v 0.17326881 0.0648175627 0.0505527295
v 0.18766512 0.0514752865 0.0557064824
v 0.155650213 0.0551360212 0.0316053368
v 0.160114512 0.0805934668 0.0358572491
v 0.126879066 0.0241013262 0.0536322929
v 0.127275661 0.0319434032 0.0704945996
v 0.1463231 0.0289628413 0.0731463581
v 0.18766512 0.0514752865 0.0557064824
v 0.23693797 0.0261396132 0.0588161536
v 0.280157328 0.00497771148 0.0559564233
v 0.0733007416 0.0930134058 0.0318922438
v 0.0607869327 0.0802107975 0.0458070822
v 0.073636353 0.08307603 0.0438949652
v 0.0893777087 0.0652441084 0.0570924729
v 0.085147351 0.0401489586 0.0579178445
v 0.0893777087 0.0652441084 0.0570924729
v 0.103427142 0.076624088 0.0547585748
v 0.103427142 0.076624088 0.0547585748
v 0.109720759 0.0353240147 0.0432932861
v 0.11400073 0.0648000687 0.0436366312
v 0.117390193 0.0880841017 0.0440634862
v 0.0360129848 0.0839043483 0.0426839218
v 0.0208310671 0.0484433882 0.0537975244
v 0.0347186849 0.0582487769 0.0537235141
v 0.0416113026 0.0489255339 0.0584033616
v 0.0403822325 0.023335604 0.0602661632
v 0.0662681609 0.0183297247 0.0661793873
v 0.0649292842 0.0536938161 0.0610578954
v 0.107470021 0.0493860729 0.0673526525
v 0.108071819 0.0103942491 0.0619025156
v 0.155650213 0.0551360212 0.0316053368
v 0.216621563 0.0742014274 0.0164407622
v 0.251564085 0.0695910975 0.0159068536
v 0.250921458 0.067778416 0.012543642
v 0.181021646 0.0808678418 0.020560259
v 0.217808589 0.0779993236 0.0217195749
v 0.216621563 0.0742014274 0.0164407622
v 0.250921458 0.067778416 0.012543642
v 0.218958676 0.0866819546 7.67648658E-07
v 0.216621563 0.0742014274 0.0164407622
v 0.253248513 0.0802052394 7.67629615E-07
v 0.182715431 0.093504943 7.67661106E-07
v 0.181021646 0.0808678418 0.020560259
v 0.331397176 0.0527085997 7.63208561E-07
v 0.106250942 0.100896411 7.65280049E-07
v 0.085147351 0.0401489586 0.0579178445
v 0.101869151 0.0388877429 0.0791271552
v 0.109720759 0.0353240147 0.0432932861
v 0.085147351 0.0401489586 0.0579178445
v 0.085157834 0.0401783884 0.0878888294
v 0.193764836 0.0621198118 0.0348924994
v 0.246857092 0.0730532333 7.64759932E-07
v 0.246821746 0.0730179325 7.6474555E-07
vt 0.166388482 0.784214616
vt 0.25283879 0.893792272
vt 0.171367377 0.732728958
vt 0.25698936 0.949050069
vt 0.109067686 0.706435621
vt 0.119092822 0.65603894
vt 0.176453128 0.721655428
vt 0.252781987 0.893313706
vt 0.104876369 0.717388391
vt 0.16122219 0.79565388
vt 0.123097546 0.644499838
vt 0.25698936 0.949050069
vt 0.10858351 0.175935
vt 0.162151694 0.242986143
vt 0.175289467 0.197346687
vt 0.0982264951 0.22602205
vt 0.274874151 0.230605692
vt 0.296197206 0.19542022
vt 0.118083507 0.454421401
vt 0.183656856 0.505783856
vt 0.175719857 0.435121
vt 0.121825509 0.518070221
vt 0.257967323 0.487868696
vt 0.254364818 0.400963604
vt 0.0591279827 0.523317754
vt 0.0573936738 0.458056241
vt 2.32613911E-05 0.52324295
vt 0.000129132852 0.452845186
vt 0.116668217 0.400947899
vt 0.167734012 0.383244962
vt 0.254364818 0.400963604
vt 0.235029668 0.289616317
vt 0.0105673531 0.38732779
vt 0.0606605671 0.414970905
vt 0.196755439 0.516694963
vt 0.130296767 0.544840574
vt 0.0596137792 0.550514162
vt 0.00487576239 0.556982875
vt 0.249924526 0.544854581
vt 0.254364818 0.400963604
vt 0.306544602 0.524896741
vt 0.255738467 0.546496212
vt 0.291130543 0.588415682
vt 0.327465057 0.616163671
vt 0.358572423 0.56612438
vt 0.351004332 0.426120341
vt 0.393152088 0.578467786
vt 0.395183355 0.387070686
vt 0.431906313 0.598107576
vt 0.431906313 0.345025629
vt 0.295312434 0.409678698
vt 0.323946476 0.389485002
vt 0.234638959 0.608683109
vt 0.255738467 0.546496212
vt 0.313521296 0.67033726
vt 0.262773812 0.805295587
vt 0.431906313 0.65413785
vt 0.325530767 0.37996462
vt 0.384778857 0.364149839
vt 0.418997854 0.316470891
vt 0.338925153 0.640998542
vt 0.46862933 0.387933671
vt 0.470660537 0.579330981
vt 0.512808263 0.426983565
vt 0.505240202 0.566987932
vt 0.557267964 0.525759816
vt 0.568500221 0.410541922
vt 0.539866269 0.390347987
vt 0.536347628 0.617026746
vt 0.572682083 0.589278817
vt 0.608074248 0.547359526
vt 0.605845213 0.488731802
vt 0.609447837 0.401826799
vt 0.629173577 0.609546423
vt 0.608074248 0.547359526
vt 0.550291359 0.671200216
vt 0.601038873 0.806158781
vt 0.538281918 0.380827844
vt 0.479033798 0.365013063
vt 0.444814801 0.317334026
vt 0.576073706 0.376590699
vt 0.555965304 0.34687677
vt 0.584635139 0.343793482
vt 0.555965304 0.34687677
vt 0.617011011 0.346366405
vt 0.535148501 0.237256557
vt 0.532223105 0.265236259
vt 0.522633016 0.29207015
vt 0.555965304 0.34687677
vt 0.500810325 0.26586476
vt 0.498913884 0.274404764
vt 0.539866269 0.390347987
vt 0.616139114 0.250907063
vt 0.535148501 0.237256557
vt 0.540779352 0.223589152
vt 0.535148501 0.237256557
vt 0.498637468 0.257345974
vt 0.530000627 0.222262606
vt 0.323946476 0.389485002
vt 0.287738919 0.375727862
vt 0.279177547 0.342930496
vt 0.30784744 0.346013188
vt 0.33158955 0.264373034
vt 0.328664035 0.236393213
vt 0.245917812 0.344611377
vt 0.36300233 0.265001535
vt 0.341179669 0.291206807
vt 0.30784744 0.346013188
vt 0.36489886 0.273541301
vt 0.323946476 0.389485002
vt 0.328664035 0.236393213
vt 0.247673571 0.250044078
vt 0.323033243 0.222725809
vt 0.365175217 0.256483108
vt 0.328664035 0.236393213
vt 0.333811998 0.22139962
vt 0.758742869 0.230436325
vt 0.810076177 0.264065921
vt 0.792141616 0.196574762
vt 0.76730758 0.28816551
vt 0.750436187 0.160761058
vt 0.682445943 0.170232594
vt 0.679509461 0.13709794
vt 0.749462545 0.13260527
vt 0.784579337 0.165060908
vt 0.798119307 0.105377957
vt 0.840249836 0.194394082
vt 0.798119307 0.105377957
vt 0.854780316 0.17024146
vt 0.839372158 0.222606003
vt 0.810076177 0.264065921
vt 0.838701367 0.27316615
vt 0.889270306 0.299694359
vt 0.695558369 0.294684112
vt 0.811499357 0.924104035
vt 0.666481912 0.908741772
vt 0.706853569 0.971934676
vt 0.744456232 0.825788558
vt 0.592818141 0.970912993
vt 0.797662556 0.778426826
vt 0.814494073 0.841549754
vt 0.786222875 0.732664824
vt 0.718648612 0.735093057
vt 0.656367779 0.872251868
vt 0.592818141 0.970912993
vt 0.733236432 0.676769078
vt 0.718648612 0.735093057
vt 0.775491834 0.647805154
vt 0.742137611 0.599111617
vt 0.83240366 0.756806076
vt 0.843358278 0.814129889
vt 0.814494073 0.841549754
vt 0.313521296 0.67033726
vt 0.306676984 0.845787168
vt 0.31141299 0.999123156
vt 0.509953439 0.747621059
vt 0.501988649 0.809428453
vt 0.524999082 0.835570753
vt 0.457382947 0.871613085
vt 0.454505086 0.975459456
vt 0.457382947 0.871613085
vt 0.434540868 0.812327087
vt 0.395648599 0.972358763
vt 0.399925172 0.850278199
vt 0.403473556 0.753827274
vt 0.399176359 0.0511615239
vt 0.424429715 0.066801697
vt 0.437061757 0.0468857288
vt 0.431296855 0.0858611614
vt 0.454860508 0.0973995775
vt 0.452652693 0.148796514
vt 0.420933962 0.126367345
vt 0.413084745 0.206634149
vt 0.448221117 0.229270875
vt 0.880791903 0.532420874
vt 0.88181901 0.407731652
vt 0.888599038 0.409213424
vt 0.888599038 0.409213424
vt 0.929505944 0.363610595
vt 0.929522395 0.366645157
vt 0.887233794 0.396708608
vt 0.928228915 0.111832649
vt 0.887233794 0.396708608
vt 0.930169404 0.498495668
vt 0.888599038 0.409213424
vt 0.880791903 0.532420874
vt 0.882037759 0.54800272
vt 0.880791903 0.532420874
vt 0.882037759 0.54800272
vt 0.930222094 0.508944869
vt 0.93076992 0.609464228
vt 0.869244277 0.674254954
vt 0.978806734 0.54589808
vt 0.93076992 0.609464228
vt 0.992990553 0.671511829
vt 0.930169404 0.498495668
vt 0.970858216 0.407527566
vt 0.929522395 0.366645157
vt 0.979877532 0.530370593
vt 0.929505944 0.363610595
vt 0.970858216 0.407527566
vt 0.972103298 0.394963622
vt 0.928228915 0.111832649
vt 0.972103298 0.394963622
vt 0.978806734 0.54589808
vt 0.979877532 0.530370593
vt 0.872936428 0.706579387
vt 0.93076992 0.609464228
vt 0.930831134 0.62031585
vt 0.93266058 0.949899197
vt 0.872936428 0.706579387
vt 0.869244277 0.674254954
vt 0.932899415 0.992827713
vt 0.93266058 0.949899197
vt 0.872936428 0.706579387
vt 0.86291337 0.734527707
vt 0.93076992 0.609464228
vt 0.989664853 0.703950346
vt 0.93266058 0.949899197
vt 0.989664853 0.703950346
vt 0.992990553 0.671511829
vt 0.932899415 0.992827713
vt 0.93266058 0.949899197
vt 0.989664853 0.703950346
vt 0.99999851 0.731426239
vt 0.869244277 0.674254954
vt 0.870552182 0.54540509
vt 0.882037759 0.54800272
vt 0.15639019 0.154652968
vt 0.217100084 0.0882522687
vt 0.155691519 0.091442205
vt 0.218098447 0.161938116
vt 0.282000691 0.0843247846
vt 0.282149643 0.170269713
vt 0.0110037168 0.129809842
vt 0.417304516 0.0886198506
vt 0.013806873 0.262017101
vt 0.055527363 0.244886145
vt 0.0447594263 0.189245373
vt 0.0288911853 0.349435091
vt 0.25698936 0.949050069
vt 0.16122219 0.79565388
vt 0.256753027 0.948885858
vt 0.0719581619 0.796508729
vt 0.158408433 0.906086326
vt 0.162559003 0.961343884
vt 0.0769370496 0.745022774
vt 0.0146373538 0.718729377
vt 0.024662504 0.668332875
vt 0.0820227712 0.733949125
vt 0.15835163 0.905607522
vt 0.0104460362 0.729682326
vt 0.0667918697 0.807947576
vt 0.0286672059 0.656794071
vt 0.162559003 0.961343884
vt 0.10858351 0.175935
vt 0.162151694 0.242986143
vt 0.0982264951 0.22602205
vt 0.175289467 0.197346687
vt 0.274874151 0.230605692
vt 0.296197206 0.19542022
vt 0.745729029 0.455284745
vt 0.680155814 0.506646991
vt 0.741987109 0.518933356
vt 0.688092768 0.435984105
vt 0.609447837 0.401826799
vt 0.804684639 0.52418071
vt 0.806418955 0.458919466
vt 0.863789439 0.524105906
vt 0.863683522 0.45370841
vt 0.747144401 0.401811004
vt 0.696078718 0.384107947
vt 0.609447837 0.401826799
vt 0.628782988 0.290479451
vt 0.853245258 0.388190895
vt 0.803152144 0.415834129
vt 0.667057276 0.517558336
vt 0.733515859 0.54570365
vt 0.804198921 0.551377416
vt 0.858936846 0.55784601
vt 0.613888085 0.545717657
vt 0.530556083 0.125060648
vt 0.581889629 0.158690348
vt 0.539120972 0.182789966
vt 0.563955069 0.0911989957
vt 0.522249699 0.0553853773
vt 0.454259306 0.0648572892
vt 0.451322734 0.0317224041
vt 0.521275818 0.0272296015
vt 0.556392848 0.0596851073
vt 0.569932699 2.17247452E-06
vt 0.61206305 0.0890184268
vt 0.569932699 2.17247452E-06
vt 0.626593649 0.0648660213
vt 0.611185551 0.117230207
vt 0.581889629 0.158690348
vt 0.6105147 0.167790979
vt 0.661083579 0.194318444
vt 0.467371821 0.189308554
vt 0.811499357 0.924104035
vt 0.666481912 0.908741772
vt 0.744456232 0.825788558
vt 0.706853569 0.971934676
vt 0.592818141 0.970912993
vt 0.797662556 0.778426826
vt 0.814494073 0.841549754
vt 0.786222875 0.732664824
vt 0.718648612 0.735093057
vt 0.656367779 0.872251868
vt 0.592818141 0.970912993
vt 0.733236432 0.676769078
vt 0.718648612 0.735093057
vt 0.775491834 0.647805154
vt 0.742137611 0.599111617
vt 0.83240366 0.756806076
vt 0.843358278 0.814129889
vt 0.814494073 0.841549754
vt 0.550291359 0.671200216
vt 0.557135701 0.846650362
vt 0.552399576 0.999986768
vt 0.509591341 0.747621059
vt 0.524636924 0.835570753
vt 0.501626492 0.809428453
vt 0.45702076 0.871613085
vt 0.454142988 0.975459456
vt 0.45702076 0.871613085
vt 0.43417874 0.812327087
vt 0.43417874 0.812327087
vt 0.395286471 0.972358763
vt 0.399562955 0.850278199
vt 0.403111398 0.753827274
vt 0.399176359 0.0511615239
vt 0.437061757 0.0468857288
vt 0.424429715 0.066801697
vt 0.431296855 0.0858611614
vt 0.454860508 0.0973995775
vt 0.452652693 0.148796514
vt 0.420933962 0.126367345
vt 0.413084745 0.206634149
vt 0.448221117 0.229270875
vt 0.524887443 0.641862094
vt 0.979877532 0.530370593
vt 0.970858216 0.407527566
vt 0.977620482 0.40576002
vt 0.992990553 0.671511829
vt 0.978806734 0.54589808
vt 0.990256608 0.542766571
vt 0.15639019 0.154652968
vt 0.217100084 0.0882522687
vt 0.218098447 0.161938116
vt 0.155691519 0.091442205
vt 0.282000691 0.0843247846
vt 0.282149643 0.170269713
vt 0.0110037168 0.129809842
vt 0.417304516 0.0886198506
vt 0.10884019 0.287658513
vt 0.0671197027 0.270527631
vt 0.0937558785 0.375076473
vt 0.10884019 0.287658513
vt 0.0778876245 0.214886621
vt 0.0667918697 0.807947576
vt 0.162559003 0.961343884
vt 0.1623227 0.961180389
vn 0.504333854 0.279439032 -0.817044139
vn 0.015697591 0.999876738 5.5166123E-07
vn -0.318115592 0.94677335 -0.0492196865
vn 0.967130542 0.25428018 -4.52593412E-07
vn 0.573631108 0.0371937007 -0.818268895
vn -0.345055938 0.924136639 -0.164036572
vn -0.500397921 -0.0612502694 0.863626242
vn -0.921589494 -0.388165981 -2.93738537E-07
vn 0.284833342 -0.907700956 0.308137715
vn 0.346579492 -0.937745214 -0.0227312297
vn -0.606074214 0.114294566 0.787153542
vn 0.967130542 0.25428018 -4.52593412E-07
vn 0.284833342 -0.907700956 0.308137715
vn -0.500397921 -0.0612502694 0.863626242
vn 0.346579492 -0.937745214 -0.0227312297
vn -0.606074214 0.114294566 0.787153542
vn -0.921589494 -0.388165981 -2.93738537E-07
vn 0.532199681 -0.846618772 -3.01823093E-07
vn -0.701672256 -0.23011978 -0.674315214
vn 0.732252896 -0.229120165 -0.641334236
vn -0.604438722 0.00638733711 -0.796626091
vn 0.541215479 -0.468132704 -0.69852525
vn 0.385025561 -0.132987589 -0.913274109
vn -0.00971276686 -0.10844706 -0.994054854
vn 0.505992115 -0.783295989 -0.361136228
vn -0.768039286 -0.536776006 -0.349266678
vn 0.503604949 -0.86393398 -2.17224041E-07
vn -0.78627032 -0.617882669 -2.12610757E-07
vn -0.980964124 0.193719119 -0.0134986937
vn -0.978649676 0.203240827 0.0306268465
vn -0.00971276686 -0.10844706 -0.994054854
vn -0.812568545 -0.0915656388 0.575628579
vn -0.984018385 0.178067029 0
vn -0.984187126 0.177106738 -0.0029916137
vn 0.964321196 -0.252099097 0.0808125809
vn 0.976328671 -0.215440542 0.0191782713
vn 0.979908407 -0.199267745 -0.00847685058
vn 0.979918242 -0.19939965 0
vn 0.56994009 -0.82164067 -0.00865370501
vn -0.00971276686 -0.10844706 -0.994054854
vn 0.100178018 0.541497946 -0.834712088
vn -0.54411155 -0.417207241 -0.727929056
vn -0.385800749 0.693903208 -0.607993484
vn 0.694226563 0.719459713 0.0206687171
vn 0.731638908 0.506113887 -0.456676215
vn -0.298524499 0.646149695 -0.702405572
vn 0.807394981 0.48681283 -0.33335641
vn -0.347913027 0.742127895 -0.572889745
vn 0.885364115 0.464898139 0
vn -0.611946464 0.790899158 0
vn 0.268704981 0.511913896 -0.815930068
vn -0.520551801 0.846930861 -0.108322993
vn -0.386872232 -0.118584931 -0.914476693
vn -0.54411155 -0.417207241 -0.727929056
vn 0.560184658 0.753184676 0.344827443
vn 0.328284919 -0.166065857 -0.929866135
vn 0.963885069 -0.266318709 0
vn -0.805621445 0.124664053 0.579165816
vn -0.839451849 0.11672502 -0.530750394
vn -0.98024106 0.197806671 -1.31609283E-07
vn 0.836960137 -0.3871696 0.386778295
vn -0.347912908 0.742127836 0.572889984
vn 0.807394862 0.4868128 0.333356917
vn -0.298524648 0.646149158 0.702406108
vn 0.731639028 0.50611335 0.456676632
vn 0.100178078 0.541497469 0.834712446
vn 0.268704474 0.511913538 0.815930486
vn -0.52055192 0.846930802 0.108323485
vn 0.694226742 0.719459653 -0.0206684265
vn -0.38580054 0.69390291 0.60799402
vn -0.544110894 -0.417208493 0.727928817
vn 0.385025799 -0.132988483 0.913273931
vn -0.00971301273 -0.108447365 0.994054854
vn -0.386872262 -0.118585743 0.914476454
vn -0.544110894 -0.417208493 0.727928817
vn 0.560184777 0.753184974 -0.344826728
vn 0.32828477 -0.166066602 0.929866135
vn -0.805621207 0.124664433 -0.579166114
vn -0.83945179 0.116724961 0.530750513
vn -0.98024106 0.197806671 -1.31609283E-07
vn 0.168332428 0.639899373 0.749795318
vn 0.316733867 0.722945154 -0.614027739
vn 0.199315861 0.674205542 0.711140037
vn 0.316733867 0.722945154 -0.614027739
vn -0.267976582 -0.369969338 0.889556825
vn -0.890816629 0.345281899 0.295340806
vn 0.0859632716 0.794504344 0.601143181
vn 0.824359596 -0.21761924 -0.522564054
vn 0.316733867 0.722945154 -0.614027739
vn 0.323765635 0.900309265 -0.290893435
vn 0.197989315 0.15341109 -0.968124628
vn -0.52055192 0.846930802 0.108323485
vn -0.553863168 -0.681019485 -0.479007363
vn -0.890816629 0.345281899 0.295340806
vn -0.789375305 -0.389295042 -0.474695593
vn -0.890816629 0.345281899 0.295340806
vn 0.197989315 0.15341109 -0.968124628
vn -0.789375305 -0.389295042 -0.474695593
vn -0.520551801 0.846930861 -0.108322993
vn 0.168332532 0.639899909 -0.749794781
vn 0.199315488 0.67420584 -0.711139739
vn 0.316733748 0.722944021 0.61402905
vn 0.085963279 0.794504583 -0.601143003
vn -0.890816629 0.345282018 -0.295340627
vn -0.267976522 -0.369968981 -0.889557004
vn 0.323765546 0.900309265 0.290893584
vn 0.824359715 -0.217619196 0.522563815
vn 0.316733748 0.722944021 0.61402905
vn 0.197989598 0.153410926 0.968124628
vn -0.520551801 0.846930861 -0.108322993
vn -0.890816629 0.345282018 -0.295340627
vn -0.553863108 -0.681019843 0.479006976
vn -0.789375246 -0.389295131 0.474695623
vn 0.197989598 0.153410926 0.968124628
vn -0.890816629 0.345282018 -0.295340627
vn -0.789375246 -0.389295131 0.474695623
vn 0.0691344291 0.394674361 -0.916216373
vn 0.546778381 0.668815732 0.503705263
vn 0.125976726 0.533968866 -0.836066484
vn -0.0160480924 0.955307424 0.295178175
vn 0.0104510402 -0.674040675 -0.738620281
vn -0.123499706 -0.702258825 -0.701128006
vn -0.19872646 -0.671841323 0.713538408
vn -0.0744176507 -0.756633103 0.649590969
vn -0.198376119 -0.486920863 -0.85062027
vn -0.300310254 -0.716558635 0.629569292
vn -0.894302726 0.0675381124 -0.442336053
vn -0.300310254 -0.716558635 0.629569292
vn -0.640141845 -0.240310609 0.729704857
vn 0.0302940011 0.637300789 -0.770019472
vn 0.546778381 0.668815732 0.503705263
vn 0.954214454 0.0586000755 0.293327093
vn 0.273857325 0.859973669 0.430636078
vn 0.0573029928 0.998192728 0.0180997308
vn -0.386872232 -0.118584931 -0.914476693
vn -0.113101132 -0.757476389 0.642991185
vn 0.328284919 -0.166065857 -0.929866135
vn 0.0011645467 -0.750758529 0.660575747
vn 0.936589003 -0.299828887 0.181393996
vn -0.0920853466 -0.846906245 0.523708045
vn -0.54411155 -0.417207241 -0.727929056
vn 0.230090171 -0.44771269 0.864067018
vn 0.560184658 0.753184676 0.344827443
vn 0.39550671 0.764659703 0.508792758
vn 0.936589003 -0.299828887 0.181393996
vn 0.694226563 0.719459713 0.0206687171
vn 0.560184658 0.753184676 0.344827443
vn 0.836960137 -0.3871696 0.386778295
vn 0.731638908 0.506113887 -0.456676215
vn 0.56994009 -0.82164067 -0.00865370501
vn 0.385025561 -0.132987589 -0.913274109
vn -0.54411155 -0.417207241 -0.727929056
vn 0.560184658 0.753184676 0.344827443
vn 0.39550671 0.764659703 0.508792758
vn 0.936589003 -0.299828887 0.181393996
vn 0.197989598 0.153410926 0.968124628
vn 0.824359715 -0.217619196 0.522563815
vn -0.789375246 -0.389295131 0.474695623
vn 0.316733748 0.722944021 0.61402905
vn -0.553863108 -0.681019843 0.479006976
vn 0.316733748 0.722944021 0.61402905
vn -0.520551801 0.846930861 -0.108322993
vn -0.812568545 -0.0915656388 0.575628579
vn -0.805621445 0.124664053 0.579165816
vn -0.298524499 0.646149695 -0.702405572
vn 0.273857325 0.859973669 0.430636078
vn 0.954214454 0.0586000755 0.293327093
vn -0.640141845 -0.240310609 0.729704857
vn 0.546778381 0.668815732 0.503705263
vn -0.300310254 -0.716558635 0.629569292
vn -0.0744176507 -0.756633103 0.649590969
vn -0.0160480924 0.955307424 0.295178175
vn 0.0573029928 0.998192728 0.0180997308
vn -0.19872646 -0.671841323 0.713538408
vn 0.1576626 -0.98552531 -0.0623094924
vn 0.146480739 -0.98700887 0.0660069659
vn 0.3775419 -0.25970003 -0.888829529
vn 0.3775419 -0.25970003 -0.888829529
vn 0.97659874 0.21506983 0
vn 0.81618011 0.577797532 0
vn 0.146480739 -0.98700887 0.0660069659
vn 0.95001471 -0.312204957 0
vn 0.146480739 -0.98700887 0.0660069659
vn 0.939734638 0.341904581 0
vn 0.3775419 -0.25970003 -0.888829529
vn 0.1576626 -0.98552531 -0.0623094924
vn 0.422585279 -0.123036809 -0.897932947
vn 0.1576626 -0.98552531 -0.0623094924
vn 0.422585279 -0.123036809 -0.897932947
vn 0.814382434 0.580328703 0
vn 0.872454584 0.488695264 0
vn -0.00681605423 -0.988515317 -0.150967076
vn 0.422584802 -0.123037092 0.897933125
vn 0.872454584 0.488695264 0
vn -0.00681594852 -0.988515615 0.150965244
vn 0.939734638 0.341904581 0
vn 0.377541423 -0.259700358 0.888829768
vn 0.81618011 0.577797532 0
vn 0.157662496 -0.98552531 0.0623091944
vn 0.97659874 0.21506983 0
vn 0.377541423 -0.259700358 0.888829768
vn 0.14648062 -0.98700887 -0.0660072118
vn 0.95001471 -0.312204957 0
vn 0.14648062 -0.98700887 -0.0660072118
vn 0.422584802 -0.123037092 0.897933125
vn 0.157662496 -0.98552531 0.0623091944
vn 0.28750056 -0.124781534 -0.949617326
vn 0.872454584 0.488695264 0
vn 0.827890158 0.560890257 3.47166917E-07
vn -0.505827963 0.86263442 2.62994263E-07
vn 0.28750056 -0.124781534 -0.949617326
vn -0.00681605423 -0.988515317 -0.150967076
vn -0.983522415 -0.180786625 3.58890077E-07
vn -0.505827963 0.86263442 2.62994263E-07
vn 0.28750056 -0.124781534 -0.949617326
vn -0.00681605423 -0.988515317 -0.150967076
vn 0.872454584 0.488695264 0
vn 0.287500888 -0.124783374 0.949616909
vn -0.505827963 0.86263442 2.62994263E-07
vn 0.287500888 -0.124783374 0.949616909
vn -0.00681594852 -0.988515615 0.150965244
vn -0.983522415 -0.180786625 3.58890077E-07
vn -0.505827963 0.86263442 2.62994263E-07
vn 0.287500888 -0.124783374 0.949616909
vn -0.00681594852 -0.988515615 0.150965244
vn -0.00681605423 -0.988515317 -0.150967076
vn 0.1576626 -0.98552531 -0.0623094924
vn 0.422585279 -0.123036809 -0.897932947
vn 0.146480739 -0.98700887 0.0660069659
vn -0.214815021 -0.976654768 -1.82639937E-07
vn -0.257061869 -0.966394961 -2.23145634E-07
vn 0.1576626 -0.98552531 -0.0623094924
vn -0.163250223 -0.986584663 -1.72094886E-07
vn -0.00681605423 -0.988515317 -0.150967076
vn 0.95001471 -0.312204957 0
vn -0.983522415 -0.180786625 3.58890077E-07
vn -0.553863108 -0.681019843 0.479006976
vn -0.00971276686 -0.10844706 -0.994054854
vn -0.267976522 -0.369968981 -0.889557004
vn -0.812568545 -0.0915656388 0.575628579
vn 0.967130542 0.25428018 -4.52593412E-07
vn 0.346579492 -0.937745214 -0.0227312297
vn 0.532199681 -0.846618772 -3.01823093E-07
vn 0.504333913 0.279437929 0.817044497
vn 0.015697591 0.999876738 5.5166123E-07
vn 0.967130542 0.25428018 -4.52593412E-07
vn -0.318115771 0.946773231 0.0492200144
vn 0.573630869 0.0371932276 0.818269074
vn -0.345055938 0.924136639 0.164036587
vn -0.500395715 -0.0612635314 -0.863626599
vn -0.921589494 -0.388165981 -2.93738537E-07
vn 0.284832925 -0.907700956 -0.308138281
vn 0.34657228 -0.937748253 0.0227152705
vn -0.606074274 0.114295363 -0.787153482
vn 0.967130542 0.25428018 -4.52593412E-07
vn 0.284832925 -0.907700956 -0.308138281
vn -0.500395715 -0.0612635314 -0.863626599
vn -0.606074274 0.114295363 -0.787153482
vn 0.34657228 -0.937748253 0.0227152705
vn -0.921589494 -0.388165981 -2.93738537E-07
vn 0.532199681 -0.846618772 -3.01823093E-07
vn -0.701672316 -0.230120257 0.674314916
vn 0.732252777 -0.229120716 0.641334176
vn 0.541215599 -0.468133152 0.698524833
vn -0.604438782 0.00638660463 0.796625912
vn -0.00971301273 -0.108447365 0.994054854
vn 0.505991936 -0.783296168 0.36113587
vn -0.768039286 -0.536776185 0.34926635
vn 0.503604949 -0.86393398 -2.17224041E-07
vn -0.78627032 -0.617882669 -2.12610757E-07
vn -0.980964124 0.193719119 0.0134987012
vn -0.978649676 0.203240871 -0.0306268465
vn -0.00971301273 -0.108447365 0.994054854
vn -0.812568545 -0.0915653855 -0.575628579
vn -0.984018385 0.178067029 0
vn -0.984187126 0.177106738 0.00299161044
vn 0.964321196 -0.252099037 -0.0808124542
vn 0.976328671 -0.215440542 -0.0191783328
vn 0.979908407 -0.199267745 0.00847683847
vn 0.979918242 -0.19939965 0
vn 0.569939852 -0.821640849 0.00865277089
vn 0.0691343099 0.394673705 0.916216671
vn 0.546778977 0.66881597 -0.50370425
vn -0.0160481576 0.955307662 -0.295177609
vn 0.125976369 0.533967912 0.83606708
vn 0.0104509108 -0.674041033 0.738620043
vn -0.123499922 -0.702259243 0.70112747
vn -0.198726356 -0.671840787 -0.713538945
vn -0.0744176209 -0.756632686 -0.649591327
vn -0.198376611 -0.486921489 0.850619853
vn -0.300310224 -0.716558278 -0.629569769
vn -0.894302905 0.0675375983 0.442335695
vn -0.300310224 -0.716558278 -0.629569769
vn -0.640141547 -0.240310207 -0.729705215
vn 0.0302930064 0.637300313 0.770019948
vn 0.546778977 0.66881597 -0.50370425
vn 0.954214573 0.0586003475 -0.293326944
vn 0.273856163 0.859975874 -0.430632472
vn 0.0573021993 0.998192847 -0.0180995967
vn -0.386872262 -0.118585743 0.914476454
vn -0.113101251 -0.757476151 -0.642991483
vn 0.00116471504 -0.750758171 -0.660575986
vn 0.32828477 -0.166066602 0.929866135
vn 0.936589122 -0.299828291 -0.181393802
vn -0.0920850486 -0.846905649 -0.523709059
vn -0.544110894 -0.417208493 0.727928817
vn 0.230090424 -0.447711855 -0.864067376
vn 0.560184777 0.753184974 -0.344826728
vn 0.39550668 0.764659762 -0.508792698
vn 0.936589122 -0.299828291 -0.181393802
vn 0.694226742 0.719459653 -0.0206684265
vn 0.560184777 0.753184974 -0.344826728
vn 0.836960256 -0.387169242 -0.386778384
vn 0.731639028 0.50611335 0.456676632
vn 0.569939852 -0.821640849 0.00865277089
vn 0.385025799 -0.132988483 0.913273931
vn -0.544110894 -0.417208493 0.727928817
vn 0.560184777 0.753184974 -0.344826728
vn 0.39550668 0.764659762 -0.508792698
vn 0.936589122 -0.299828291 -0.181393802
vn 0.197989315 0.15341109 -0.968124628
vn -0.789375305 -0.389295042 -0.474695593
vn 0.824359596 -0.21761924 -0.522564054
vn 0.316733867 0.722945154 -0.614027739
vn -0.553863168 -0.681019485 -0.479007363
vn 0.316733867 0.722945154 -0.614027739
vn -0.52055192 0.846930802 0.108323485
vn -0.52055192 0.846930802 0.108323485
vn -0.812568545 -0.0915653855 -0.575628579
vn -0.805621207 0.124664433 -0.579166114
vn -0.298524648 0.646149158 0.702406108
vn 0.273856163 0.859975874 -0.430632472
vn -0.640141547 -0.240310207 -0.729705215
vn 0.954214573 0.0586003475 -0.293326944
vn 0.546778977 0.66881597 -0.50370425
vn -0.300310224 -0.716558278 -0.629569769
vn -0.0744176209 -0.756632686 -0.649591327
vn -0.0160481576 0.955307662 -0.295177609
vn 0.0573021993 0.998192847 -0.0180995967
vn -0.198726356 -0.671840787 -0.713538945
vn 0.836960256 -0.387169242 -0.386778384
vn 0.157662496 -0.98552531 0.0623091944
vn 0.377541423 -0.259700358 0.888829768
vn 0.14648062 -0.98700887 -0.0660072118
vn -0.00681594852 -0.988515615 0.150965244
vn 0.422584802 -0.123037092 0.897933125
vn 0.157662496 -0.98552531 0.0623091944
vn 0.14648062 -0.98700887 -0.0660072118
vn -0.214815021 -0.976654768 -1.82639937E-07
vn 0.157662496 -0.98552531 0.0623091944
vn -0.257061869 -0.966394961 -2.23145634E-07
vn -0.163250223 -0.986584663 -1.72094886E-07
vn -0.00681594852 -0.988515615 0.150965244
vn 0.95001471 -0.312204957 0
vn -0.983522415 -0.180786625 3.58890077E-07
vn -0.553863168 -0.681019485 -0.479007363
vn -0.00971301273 -0.108447365 0.994054854
vn -0.812568545 -0.0915653855 -0.575628579
vn -0.553863168 -0.681019485 -0.479007363
vn -0.267976582 -0.369969338 0.889556825
vn 0.34657228 -0.937748253 0.0227152705
vn 0.967130542 0.25428018 -4.52593412E-07
vn 0.532199681 -0.846618772 -3.01823093E-07
g Blue_mag_f_pve_2_helmet_0
f 3/3/3 2/2/2 1/1/1
f 4/4/4 1/1/1 2/2/2
f 1/1/1 5/5/5 3/3/3
f 6/6/6 3/3/3 5/5/5
f 3/3/3 7/7/7 2/2/2
f 3/3/3 6/6/6 7/7/7
f 8/8/8 2/2/2 7/7/7
f 5/5/5 1/1/1 9/9/9
f 10/10/10 9/9/9 1/1/1
f 11/11/11 7/7/7 6/6/6
f 1/1/1 12/12/12 10/10/10
f 15/15/15 14/14/14 13/13/13
f 16/16/16 13/13/13 14/14/14
f 14/14/14 15/15/15 17/17/17
f 18/18/18 17/17/17 15/15/15
f 21/21/21 20/20/20 19/19/19
f 22/22/22 19/19/19 20/20/20
f 20/20/20 21/21/21 23/23/23
f 24/24/24 23/23/23 21/21/21
f 22/22/22 25/25/25 19/19/19
f 26/26/26 19/19/19 25/25/25
f 25/25/25 27/27/27 26/26/26
f 28/28/28 26/26/26 27/27/27
f 19/19/19 29/29/29 21/21/21
f 30/30/30 21/21/21 29/29/29
f 21/21/21 30/30/30 31/31/31
f 32/32/32 31/31/31 30/30/30
f 28/28/28 33/33/33 26/26/26
f 34/34/34 26/26/26 33/33/33
f 26/26/26 34/34/34 19/19/19
f 29/29/29 19/19/19 34/34/34
f 20/20/20 35/35/35 22/22/22
f 20/20/20 23/23/23 35/35/35
f 36/36/36 22/22/22 35/35/35
f 22/22/22 36/36/36 25/25/25
f 37/37/37 25/25/25 36/36/36
f 25/25/25 37/37/37 27/27/27
f 38/38/38 27/27/27 37/37/37
f 39/39/39 35/35/35 23/23/23
f 41/41/41 23/23/23 40/40/40
f 23/23/23 41/41/41 42/42/42
f 43/43/43 42/42/42 41/41/41
f 43/43/43 41/41/41 44/44/44
f 45/45/45 44/44/44 41/41/41
f 45/45/45 41/41/41 46/46/46
f 45/45/45 46/46/46 47/47/47
f 48/48/48 47/47/47 46/46/46
f 47/47/47 48/48/48 49/49/49
f 50/50/50 49/49/49 48/48/48
f 51/51/51 46/46/46 41/41/41
f 51/51/51 41/41/41 40/40/40
f 46/46/46 51/51/51 52/52/52
f 43/43/43 44/44/44 53/53/53
f 54/54/54 43/43/43 53/53/53
f 55/55/55 53/53/53 44/44/44
f 53/53/53 55/55/55 56/56/56
f 49/49/49 57/57/57 47/47/47
f 47/47/47 57/57/57 45/45/45
f 46/46/46 58/58/58 48/48/48
f 59/59/59 48/48/48 58/58/58
f 48/48/48 59/59/59 50/50/50
f 60/60/60 50/50/50 59/59/59
f 61/61/61 45/45/45 57/57/57
f 50/50/50 62/62/62 49/49/49
f 63/63/63 49/49/49 62/62/62
f 57/57/57 49/49/49 63/63/63
f 62/62/62 64/64/64 63/63/63
f 65/65/65 63/63/63 64/64/64
f 63/63/63 65/65/65 57/57/57
f 65/65/65 64/64/64 66/66/66
f 67/67/67 66/66/66 64/64/64
f 64/64/64 68/68/68 67/67/67
f 65/65/65 66/66/66 69/69/69
f 70/70/70 69/69/69 66/66/66
f 70/70/70 66/66/66 71/71/71
f 72/72/72 71/71/71 66/66/66
f 72/72/72 66/66/66 73/73/73
f 66/66/66 67/67/67 73/73/73
f 70/70/70 74/74/74 69/69/69
f 70/70/70 75/75/75 74/74/74
f 76/76/76 69/69/69 74/74/74
f 74/74/74 77/77/77 76/76/76
f 64/64/64 62/62/62 78/78/78
f 79/79/79 78/78/78 62/62/62
f 62/62/62 50/50/50 79/79/79
f 80/80/80 79/79/79 50/50/50
f 81/81/81 73/73/73 67/67/67
f 68/68/68 82/82/82 81/81/81
f 81/81/81 83/83/83 73/73/73
f 83/83/83 81/81/81 84/84/84
f 85/85/85 73/73/73 83/83/83
f 85/85/85 83/83/83 86/86/86
f 87/87/87 86/86/86 83/83/83
f 88/88/88 87/87/87 82/82/82
f 83/83/83 89/89/89 87/87/87
f 87/87/87 88/88/88 90/90/90
f 90/90/90 86/86/86 87/87/87
f 91/91/91 90/90/90 88/88/88
f 81/81/81 67/67/67 92/92/92
f 85/85/85 94/94/94 93/93/93
f 95/95/95 93/93/93 94/94/94
f 90/90/90 97/97/97 96/96/96
f 98/98/98 96/96/96 97/97/97
f 100/100/100 99/99/99 51/51/51
f 40/40/40 100/100/100 51/51/51
f 100/100/100 40/40/40 101/101/101
f 101/101/101 102/102/102 100/100/100
f 101/101/101 103/103/103 102/102/102
f 103/103/103 101/101/101 104/104/104
f 105/105/105 104/104/104 101/101/101
f 105/105/105 101/101/101 40/40/40
f 104/104/104 106/106/106 103/103/103
f 103/103/103 106/106/106 107/107/107
f 107/107/107 108/108/108 103/103/103
f 109/109/109 107/107/107 106/106/106
f 110/110/110 100/100/100 108/108/108
f 105/105/105 112/112/112 111/111/111
f 113/113/113 111/111/111 112/112/112
f 106/106/106 115/115/115 114/114/114
f 116/116/116 114/114/114 115/115/115
f 119/119/119 118/118/118 117/117/117
f 120/120/120 117/117/117 118/118/118
f 117/117/117 121/121/121 119/119/119
f 117/117/117 122/122/122 121/121/121
f 122/122/122 123/123/123 121/121/121
f 124/124/124 121/121/121 123/123/123
f 121/121/121 124/124/124 125/125/125
f 125/125/125 119/119/119 121/121/121
f 126/126/126 125/125/125 124/124/124
f 125/125/125 127/127/127 119/119/119
f 125/125/125 128/128/128 127/127/127
f 129/129/129 127/127/127 128/128/128
f 130/130/130 119/119/119 127/127/127
f 119/119/119 130/130/130 131/131/131
f 132/132/132 131/131/131 130/130/130
f 133/133/133 130/130/130 127/127/127
f 132/132/132 130/130/130 133/133/133
f 127/127/127 129/129/129 133/133/133
f 120/120/120 134/134/134 117/117/117
f 122/122/122 117/117/117 134/134/134
f 137/137/137 136/136/136 135/135/135
f 138/138/138 135/135/135 136/136/136
f 139/139/139 136/136/136 137/137/137
f 138/138/138 140/140/140 135/135/135
f 141/141/141 135/135/135 140/140/140
f 140/140/140 138/138/138 142/142/142
f 138/138/138 136/136/136 143/143/143
f 144/144/144 143/143/143 136/136/136
f 144/144/144 136/136/136 145/145/145
f 142/142/142 138/138/138 146/146/146
f 147/147/147 146/146/146 138/138/138
f 142/142/142 146/146/146 148/148/148
f 149/149/149 148/148/148 146/146/146
f 150/150/150 140/140/140 142/142/142
f 148/148/148 150/150/150 142/142/142
f 150/150/150 151/151/151 140/140/140
f 152/152/152 140/140/140 151/151/151
f 154/154/154 56/56/56 153/153/153
f 155/155/155 56/56/56 154/154/154
f 158/158/158 157/157/157 156/156/156
f 157/157/157 158/158/158 159/159/159
f 160/160/160 159/159/159 158/158/158
f 160/160/160 162/162/162 161/161/161
f 160/160/160 163/163/163 162/162/162
f 163/163/163 164/164/164 162/162/162
f 164/164/164 165/165/165 162/162/162
f 168/168/168 167/167/167 166/166/166
f 167/167/167 168/168/168 169/169/169
f 170/170/170 169/169/169 168/168/168
f 170/170/170 171/171/171 169/169/169
f 172/172/172 169/169/169 171/171/171
f 172/172/172 171/171/171 173/173/173
f 174/174/174 173/173/173 171/171/171
f 177/177/177 176/176/176 175/175/175
f 180/180/180 179/179/179 178/178/178
f 181/181/181 178/178/178 179/179/179
f 183/183/183 179/179/179 182/182/182
f 180/180/180 185/185/185 184/184/184
f 186/186/186 184/184/184 185/185/185
f 188/188/188 187/187/187 184/184/184
f 190/190/190 184/184/184 189/189/189
f 190/190/190 189/189/189 191/191/191
f 192/192/192 191/191/191 189/189/189
f 190/190/190 194/194/194 193/193/193
f 195/195/195 193/193/193 194/194/194
f 190/190/190 193/193/193 196/196/196
f 198/198/198 196/196/196 197/197/197
f 199/199/199 197/197/197 196/196/196
f 198/198/198 201/201/201 200/200/200
f 202/202/202 200/200/200 201/201/201
f 200/200/200 204/204/204 203/203/203
f 206/206/206 196/196/196 205/205/205
f 209/209/209 208/208/208 207/207/207
f 207/207/207 210/210/210 209/209/209
f 212/212/212 211/211/211 208/208/208
f 214/214/214 211/211/211 213/213/213
f 216/216/216 213/213/213 215/215/215
f 209/209/209 218/218/218 217/217/217
f 219/219/219 218/218/218 209/209/209
f 221/221/221 217/217/217 220/220/220
f 223/223/223 222/222/222 220/220/220
f 225/225/225 224/224/224 222/222/222
f 228/228/228 227/227/227 226/226/226
f 231/231/231 230/230/230 229/229/229
f 232/232/232 229/229/229 230/230/230
f 230/230/230 233/233/233 232/232/232
f 234/234/234 232/232/232 233/233/233
f 229/229/229 235/235/235 231/231/231
f 234/234/234 233/233/233 236/236/236
f 239/239/239 238/238/238 237/237/237
f 240/240/240 237/237/237 238/238/238
f 243/243/243 242/242/242 241/241/241
f 246/246/246 245/245/245 244/244/244
f 247/247/247 244/244/244 245/245/245
f 244/244/244 247/247/247 248/248/248
f 249/249/249 248/248/248 247/247/247
f 247/247/247 245/245/245 250/250/250
f 247/247/247 250/250/250 249/249/249
f 251/251/251 250/250/250 245/245/245
f 248/248/248 252/252/252 244/244/244
f 253/253/253 244/244/244 252/252/252
f 254/254/254 249/249/249 250/250/250
f 244/244/244 253/253/253 255/255/255
f 258/258/258 257/257/257 256/256/256
f 259/259/259 256/256/256 257/257/257
f 257/257/257 260/260/260 259/259/259
f 261/261/261 259/259/259 260/260/260
f 264/264/264 263/263/263 262/262/262
f 265/265/265 262/262/262 263/263/263
f 263/263/263 72/72/72 265/265/265
f 266/266/266 265/265/265 72/72/72
f 264/264/264 262/262/262 267/267/267
f 268/268/268 267/267/267 262/262/262
f 267/267/267 268/268/268 269/269/269
f 270/270/270 269/269/269 268/268/268
f 262/262/262 265/265/265 271/271/271
f 272/272/272 271/271/271 265/265/265
f 265/265/265 273/273/273 272/272/272
f 274/274/274 272/272/272 273/273/273
f 270/270/270 268/268/268 275/275/275
f 276/276/276 275/275/275 268/268/268
f 271/271/271 276/276/276 262/262/262
f 268/268/268 262/262/262 276/276/276
f 263/263/263 264/264/264 277/277/277
f 263/263/263 277/277/277 72/72/72
f 278/278/278 277/277/277 264/264/264
f 264/264/264 267/267/267 278/278/278
f 279/279/279 278/278/278 267/267/267
f 267/267/267 269/269/269 279/279/279
f 280/280/280 279/279/279 269/269/269
f 281/281/281 72/72/72 277/277/277
f 284/284/284 283/283/283 282/282/282
f 285/285/285 282/282/282 283/283/283
f 282/282/282 285/285/285 286/286/286
f 287/287/287 282/282/282 286/286/286
f 287/287/287 286/286/286 288/288/288
f 289/289/289 288/288/288 286/286/286
f 286/286/286 290/290/290 289/289/289
f 290/290/290 286/286/286 285/285/285
f 291/291/291 289/289/289 290/290/290
f 290/290/290 285/285/285 292/292/292
f 290/290/290 292/292/292 293/293/293
f 294/294/294 293/293/293 292/292/292
f 295/295/295 292/292/292 285/285/285
f 285/285/285 296/296/296 295/295/295
f 297/297/297 295/295/295 296/296/296
f 295/295/295 298/298/298 292/292/292
f 295/295/295 297/297/297 298/298/298
f 294/294/294 292/292/292 298/298/298
f 287/287/287 299/299/299 282/282/282
f 284/284/284 282/282/282 299/299/299
f 302/302/302 301/301/301 300/300/300
f 303/303/303 300/300/300 301/301/301
f 301/301/301 304/304/304 303/303/303
f 302/302/302 300/300/300 305/305/305
f 306/306/306 305/305/305 300/300/300
f 302/302/302 305/305/305 307/307/307
f 302/302/302 308/308/308 301/301/301
f 309/309/309 301/301/301 308/308/308
f 301/301/301 309/309/309 310/310/310
f 307/307/307 311/311/311 302/302/302
f 312/312/312 302/302/302 311/311/311
f 307/307/307 313/313/313 311/311/311
f 314/314/314 311/311/311 313/313/313
f 305/305/305 315/315/315 307/307/307
f 315/315/315 313/313/313 307/307/307
f 315/315/315 305/305/305 316/316/316
f 317/317/317 316/316/316 305/305/305
f 319/319/319 318/318/318 77/77/77
f 77/77/77 320/320/320 319/319/319
f 323/323/323 322/322/322 321/321/321
f 323/323/323 324/324/324 322/322/322
f 325/325/325 322/322/322 324/324/324
f 327/327/327 325/325/325 326/326/326
f 329/329/329 325/325/325 328/328/328
f 330/330/330 329/329/329 328/328/328
f 331/331/331 330/330/330 328/328/328
f 334/334/334 333/333/333 332/332/332
f 334/334/334 335/335/335 333/333/333
f 336/336/336 333/333/333 335/335/335
f 336/336/336 335/335/335 337/337/337
f 338/338/338 337/337/337 335/335/335
f 338/338/338 339/339/339 337/337/337
f 340/340/340 337/337/337 339/339/339
f 341/341/341 57/57/57 65/65/65
f 344/344/344 343/343/343 342/342/342
f 347/347/347 346/346/346 345/345/345
f 350/350/350 349/349/349 348/348/348
f 351/351/351 348/348/348 349/349/349
f 349/349/349 350/350/350 352/352/352
f 353/353/353 352/352/352 350/350/350
f 354/354/354 348/348/348 351/351/351
f 352/352/352 353/353/353 355/355/355
f 358/358/358 357/357/357 356/356/356
f 360/360/360 359/359/359 357/357/357
f 363/363/363 362/362/362 361/361/361
