g blue_war_m_pve_3_boots
v -0.158334851 -0.107323289 0.687852323
v -0.13700515 -0.0642024204 0.700829744
v -0.131338745 -0.0921487287 0.684367597
v -0.178535357 -0.0770088062 0.712896109
v -0.185710102 -0.111273035 0.692633808
v -0.209488541 -0.101400286 0.696709752
v -0.213866949 -0.0619312786 0.711367011
v -0.193159506 -0.0347661488 0.723451138
v -0.234817922 -0.0809183791 0.702897489
v -0.126589969 -0.103453234 0.637331426
v -0.124118716 -0.0895663053 0.712186694
v -0.165711358 -0.125661358 0.653836727
v -0.192481935 -0.125832796 0.662159741
v -0.200548232 -0.124902189 0.612477422
v -0.169845209 -0.121871367 0.609297752
v -0.202261403 -0.118170708 0.596771777
v -0.187933818 -0.107204184 0.570765674
v -0.210017473 -0.123730063 0.555506825
v -0.192379713 -0.103461042 0.552612305
v -0.161929622 -0.0999516845 0.562838554
v -0.185336664 -0.0966605321 0.531499386
v -0.149683625 -0.0748188272 0.535701275
v -0.130793437 -0.0827668905 0.579527795
v -0.181218117 -0.0704738498 0.500847101
v -0.213762254 -0.0898645744 0.511453986
v -0.210732043 -0.105291441 0.53829354
v -0.215491056 -0.0667876899 0.494715899
v -0.243635699 -0.0618064851 0.513566136
v -0.208239704 -0.104740411 0.551339388
v -0.210017473 -0.123730063 0.555506825
v -0.222707763 -0.0988430679 0.559299707
v -0.23204793 -0.0915880948 0.538554013
v -0.243728027 -0.086928755 0.573054731
v -0.260122657 -0.0586941168 0.55771184
v -0.221152261 -0.102154255 0.576553047
v -0.210017473 -0.123730063 0.555506825
v -0.226123914 -0.113750055 0.619011045
v -0.262647301 -0.0678659827 0.611785769
v -0.275452346 0.00749203004 0.622342527
v -0.27101177 0.00859983917 0.555022359
v -0.267771482 -0.00045051999 0.667028248
v -0.252147943 -0.0866383836 0.65912503
v -0.234817922 -0.0809183791 0.702897489
v -0.234343141 -0.0268838182 0.7508986
v -0.184048593 -0.0595720708 0.825563788
v -0.274260342 0.0382016711 0.62726891
v -0.252637982 -0.00393180968 0.508072317
v -0.209060937 -0.0215661395 0.477477789
v -0.171467379 -0.0170849003 0.483418614
v -0.130818173 -0.0118811298 0.516254425
v -0.0980450138 -0.0156966187 0.575806201
v -0.0874424502 -0.0302588195 0.654142678
v -0.124118716 -0.0895663053 0.712186694
v -0.0976262465 -0.0523050576 0.735463023
v -0.122001357 -0.067597501 0.814320028
v -0.242177308 0.00428739982 0.422993422
v -0.210600182 -0.00530403014 0.443470955
v -0.216692984 -0.0232144091 0.406529188
v -0.249447748 0.00818984956 0.379036546
v -0.219833985 -0.0191002693 0.375240058
v -0.22182779 0.0117657697 0.343642414
v -0.0976183414 0.0394666605 0.493361622
v -0.0919235498 0.0106981602 0.604753077
v -0.0874424502 -0.0302588195 0.654142678
v -0.186655208 0.00214711996 0.367577761
v -0.18325308 -0.00549458014 0.415806979
v -0.118285939 0.0500493608 0.388887942
v -0.303373128 0.068006292 0.417572975
v -0.299955875 0.0529541112 0.516979635
v -0.0845089033 0.0981444344 0.580408096
v -0.0803061947 0.108997695 0.496276617
v -0.0931873396 0.121835493 0.388134897
v -0.277840525 0.12671712 0.608877838
v -0.307020247 0.136596352 0.525597811
v -0.317505568 0.146916449 0.421754569
v -0.240223616 0.203953207 0.601359665
v -0.261031896 0.219205946 0.526798368
v -0.27335903 0.220299989 0.417140067
v -0.193469048 0.249482647 0.408599526
v -0.231336743 0.220717102 0.280962199
v -0.176863685 0.253179789 0.5191769
v -0.101859182 0.204481542 0.506358564
v -0.16744563 0.22998029 0.588988721
v -0.105160609 0.185854197 0.580359578
v -0.0803061947 0.108997695 0.496276617
v -0.0845089033 0.0981444344 0.580408096
v -0.0931873396 0.121835493 0.388134897
v -0.119758919 0.209915131 0.396446913
v -0.185154676 0.210083619 0.276484698
v -0.240223616 0.203953207 0.601359665
v -0.288053304 0.164168552 0.285570234
v -0.291587263 0.0806851164 0.290675163
v -0.289390951 0.170186147 0.199595422
v -0.234608799 0.224378049 0.20479469
v -0.237276003 0.27294594 0.134882793
v -0.317257166 0.198095381 0.0946832448
v -0.147770703 0.142571375 0.274411321
v -0.200432807 0.216307238 0.200988531
v -0.194243878 0.264853597 0.128868923
v -0.166251734 0.156959742 0.190046877
v -0.147510961 0.176862001 0.0824775025
v -0.304117739 0.0899038836 0.213410407
v -0.236001372 0.0120497299 0.231208429
v -0.268900603 0.0257592294 0.295422941
v -0.231926337 -0.0208470691 0.2895028
v -0.231926337 -0.0208470691 0.2895028
v -0.235219091 0.266682267 0.124771051
v -0.309033304 0.195070297 0.0836608559
v -0.200656369 0.260504752 0.119983591
v -0.157701954 0.178354427 0.0729964972
v -0.185169518 0.0159701295 0.283454388
v -0.231926337 -0.0208470691 0.2895028
v -0.160354942 0.0647119805 0.277684122
v -0.147770703 0.142571375 0.274411321
v -0.162393108 0.0800800622 0.205674171
v -0.166251734 0.156959742 0.190046877
v -0.236001372 0.0120497299 0.231208429
v -0.236001372 0.0120497299 0.231208429
v -0.137630194 0.0741881132 0.126670733
v -0.147510961 0.176862001 0.0824775025
v -0.223321095 0.000232399994 0.210203573
v -0.146964207 0.0672459304 0.116588324
v -0.157701954 0.178354427 0.0729964972
v -0.230501339 -0.000589069969 0.190157637
v -0.254133493 0.00295483996 0.191497758
v -0.258262694 0.0054784799 0.212991551
v -0.236001372 0.0120497299 0.231208429
v -0.352083772 0.0960468873 0.135278359
v -0.236001372 0.0120497299 0.231208429
v -0.345896214 0.091018185 0.124535412
v -0.309033304 0.195070297 0.0836608559
v -0.13700515 -0.0642024204 0.700829744
v -0.167460456 -0.0340389609 0.723116279
v -0.144855425 -0.0418356322 0.710729063
v -0.193159506 -0.0347661488 0.723451138
v -0.122001357 -0.067597501 0.814320028
v -0.194614753 -0.0278517697 0.721466422
v -0.124118716 -0.0895663053 0.712186694
v -0.131338745 -0.0921487287 0.684367597
v -0.142134458 -0.0348366909 0.710983574
v -0.194614753 -0.0278517697 0.721466422
v -0.234817922 -0.0809183791 0.702897489
v -0.184048593 -0.0595720708 0.825563788
v -0.193159506 -0.0347661488 0.723451138
v -0.234343141 -0.0268838182 0.7508986
v -0.184093714 -0.053760618 0.823794484
v -0.193159506 -0.0347661488 0.723451138
v -0.184093714 -0.053760618 0.823794484
v -0.194614753 -0.0278517697 0.721466422
v -0.0990599617 -0.0463696979 0.736717641
v -0.0874424502 -0.0302588195 0.654142678
v -0.120868139 -0.062183518 0.812371016
v -0.144855425 -0.0418356322 0.710729063
v -0.120868139 -0.062183518 0.812371016
v -0.0976262465 -0.0523050576 0.735463023
v -0.120868139 -0.062183518 0.812371016
v -0.144855425 -0.0418356322 0.710729063
v -0.142134458 -0.0348366909 0.710983574
v -0.21841675 -0.118202947 0.661010981
v -0.246440887 -0.0969721079 0.629851222
v -0.146410331 -0.111722931 0.608600736
v 0.158334851 -0.107323289 0.687852323
v 0.131338745 -0.0921487287 0.684367597
v 0.13700515 -0.0642024204 0.700829744
v 0.178535357 -0.0770088062 0.712896109
v 0.185710102 -0.111273035 0.692633808
v 0.209488541 -0.101400286 0.696709752
v 0.213866949 -0.0619312786 0.711367011
v 0.193159506 -0.0347661488 0.723451138
v 0.234817922 -0.0809183791 0.702897489
v 0.126589969 -0.103453234 0.637331426
v 0.124118716 -0.0895663053 0.712186694
v 0.165711358 -0.125661358 0.653836727
v 0.192481935 -0.125832796 0.662159741
v 0.200548232 -0.124902189 0.612477422
v 0.169845209 -0.121871367 0.609297752
v 0.202261403 -0.118170708 0.596771777
v 0.187933818 -0.107204184 0.570765674
v 0.210017473 -0.123730063 0.555506825
v 0.192379713 -0.103461042 0.552612305
v 0.161929622 -0.0999516845 0.562838554
v 0.185336664 -0.0966605321 0.531499386
v 0.149683625 -0.0748188272 0.535701275
v 0.130793437 -0.0827668905 0.579527795
v 0.181218117 -0.0704738498 0.500847101
v 0.213762254 -0.0898645744 0.511453986
v 0.210732043 -0.105291441 0.53829354
v 0.215491056 -0.0667876899 0.494715899
v 0.243635699 -0.0618064851 0.513566136
v 0.208239704 -0.104740411 0.551339388
v 0.210017473 -0.123730063 0.555506825
v 0.222707763 -0.0988430679 0.559299707
v 0.23204793 -0.0915880948 0.538554013
v 0.243728027 -0.086928755 0.573054731
v 0.260122657 -0.0586941168 0.55771184
v 0.221152261 -0.102154255 0.576553047
v 0.210017473 -0.123730063 0.555506825
v 0.226123914 -0.113750055 0.619011045
v 0.262647301 -0.0678659827 0.611785769
v 0.275452346 0.00749203004 0.622342527
v 0.27101177 0.00859983917 0.555022359
v 0.267771482 -0.00045051999 0.667028248
v 0.252147943 -0.0866383836 0.65912503
v 0.234817922 -0.0809183791 0.702897489
v 0.234343141 -0.0268838182 0.7508986
v 0.184048593 -0.0595720708 0.825563788
v 0.274260342 0.0382016711 0.62726891
v 0.252637982 -0.00393180968 0.508072317
v 0.209060937 -0.0215661395 0.477477789
v 0.171467379 -0.0170849003 0.483418614
v 0.130818173 -0.0118811298 0.516254425
v 0.0980450138 -0.0156966187 0.575806201
v 0.0874424502 -0.0302588195 0.654142678
v 0.124118716 -0.0895663053 0.712186694
v 0.0976262465 -0.0523050576 0.735463023
v 0.122001357 -0.067597501 0.814320028
v 0.242177308 0.00428739982 0.422993422
v 0.210600182 -0.00530403014 0.443470955
v 0.216692984 -0.0232144091 0.406529188
v 0.249447748 0.00818984956 0.379036546
v 0.219833985 -0.0191002693 0.375240058
v 0.22182779 0.0117657697 0.343642414
v 0.0976183414 0.0394666605 0.493361622
v 0.0919235498 0.0106981602 0.604753077
v 0.0874424502 -0.0302588195 0.654142678
v 0.186655208 0.00214711996 0.367577761
v 0.18325308 -0.00549458014 0.415806979
v 0.118285939 0.0500493608 0.388887942
v 0.303373128 0.068006292 0.417572975
v 0.299955875 0.0529541112 0.516979635
v 0.0845089033 0.0981444344 0.580408096
v 0.0803061947 0.108997695 0.496276617
v 0.0931873396 0.121835493 0.388134897
v 0.277840525 0.12671712 0.608877838
v 0.307020247 0.136596352 0.525597811
v 0.317505568 0.146916449 0.421754569
v 0.240223616 0.203953207 0.601359665
v 0.261031896 0.219205946 0.526798368
v 0.27335903 0.220299989 0.417140067
v 0.193469048 0.249482647 0.408599526
v 0.231336743 0.220717102 0.280962199
v 0.176863685 0.253179789 0.5191769
v 0.101859182 0.204481542 0.506358564
v 0.16744563 0.22998029 0.588988721
v 0.105160609 0.185854197 0.580359578
v 0.0803061947 0.108997695 0.496276617
v 0.0845089033 0.0981444344 0.580408096
v 0.0931873396 0.121835493 0.388134897
v 0.119758919 0.209915131 0.396446913
v 0.185154676 0.210083619 0.276484698
v 0.240223616 0.203953207 0.601359665
v 0.288053304 0.164168552 0.285570234
v 0.291587263 0.0806851164 0.290675163
v 0.289390951 0.170186147 0.199595422
v 0.234608799 0.224378049 0.20479469
v 0.237276003 0.27294594 0.134882793
v 0.317257166 0.198095381 0.0946832448
v 0.147770703 0.142571375 0.274411321
v 0.200432807 0.216307238 0.200988531
v 0.194243878 0.264853597 0.128868923
v 0.166251734 0.156959742 0.190046877
v 0.147510961 0.176862001 0.0824775025
v 0.304117739 0.0899038836 0.213410407
v 0.236001372 0.0120497299 0.231208429
v 0.268900603 0.0257592294 0.295422941
v 0.231926337 -0.0208470691 0.2895028
v 0.231926337 -0.0208470691 0.2895028
v 0.235219091 0.266682267 0.124771051
v 0.309033304 0.195070297 0.0836608559
v 0.200656369 0.260504752 0.119983591
v 0.157701954 0.178354427 0.0729964972
v 0.231926337 -0.0208470691 0.2895028
v 0.185169518 0.0159701295 0.283454388
v 0.160354942 0.0647119805 0.277684122
v 0.147770703 0.142571375 0.274411321
v 0.162393108 0.0800800622 0.205674171
v 0.166251734 0.156959742 0.190046877
v 0.236001372 0.0120497299 0.231208429
v 0.236001372 0.0120497299 0.231208429
v 0.137630194 0.0741881132 0.126670733
v 0.147510961 0.176862001 0.0824775025
v 0.223321095 0.000232399994 0.210203573
v 0.146964207 0.0672459304 0.116588324
v 0.157701954 0.178354427 0.0729964972
v 0.230501339 -0.000589069969 0.190157637
v 0.254133493 0.00295483996 0.191497758
v 0.258262694 0.0054784799 0.212991551
v 0.236001372 0.0120497299 0.231208429
v 0.352083772 0.0960468873 0.135278359
v 0.236001372 0.0120497299 0.231208429
v 0.345896214 0.091018185 0.124535412
v 0.309033304 0.195070297 0.0836608559
v 0.13700515 -0.0642024204 0.700829744
v 0.167460456 -0.0340389609 0.723116279
v 0.144855425 -0.0418356322 0.710729063
v 0.193159506 -0.0347661488 0.723451138
v 0.122001357 -0.067597501 0.814320028
v 0.194614753 -0.0278517697 0.721466422
v 0.124118716 -0.0895663053 0.712186694
v 0.131338745 -0.0921487287 0.684367597
v 0.142134458 -0.0348366909 0.710983574
v 0.194614753 -0.0278517697 0.721466422
v 0.234817922 -0.0809183791 0.702897489
v 0.184048593 -0.0595720708 0.825563788
v 0.193159506 -0.0347661488 0.723451138
v 0.234343141 -0.0268838182 0.7508986
v 0.184093714 -0.053760618 0.823794484
v 0.193159506 -0.0347661488 0.723451138
v 0.184093714 -0.053760618 0.823794484
v 0.194614753 -0.0278517697 0.721466422
v 0.0990599617 -0.0463696979 0.736717641
v 0.0874424502 -0.0302588195 0.654142678
v 0.120868139 -0.062183518 0.812371016
v 0.144855425 -0.0418356322 0.710729063
v 0.0976262465 -0.0523050576 0.735463023
v 0.120868139 -0.062183518 0.812371016
v 0.144855425 -0.0418356322 0.710729063
v 0.120868139 -0.062183518 0.812371016
v 0.142134458 -0.0348366909 0.710983574
v 0.21841675 -0.118202947 0.661010981
v 0.246440887 -0.0969721079 0.629851222
v 0.146410331 -0.111722931 0.608600736
v -0.234343141 -0.0268838182 0.7508986
v -0.194614753 -0.0278517697 0.721466422
v -0.184093714 -0.053760618 0.823794484
v -0.267771482 -0.00045051999 0.667028248
v -0.0874424502 -0.0302588195 0.654142678
v -0.142134458 -0.0348366909 0.710983574
v -0.0990599617 -0.0463696979 0.736717641
v -0.120868139 -0.062183518 0.812371016
v -0.274260342 0.0382016711 0.62726891
v -0.207828 0.0343259983 0.582180977
v -0.237655997 0.0702930018 0.592724979
v -0.277840525 0.12671712 0.608877838
v -0.239817008 0.116187997 0.597847998
v -0.183104992 0.0316150002 0.576600015
v -0.0874424502 -0.0302588195 0.654142678
v -0.0919235498 0.0106981602 0.604753077
v -0.156684995 0.0541789979 0.573614001
v -0.123314999 0.0805490017 0.567224979
v -0.0845089033 0.0981444344 0.580408096
v -0.125082999 0.125741988 0.572185993
v -0.105160609 0.185854197 0.580359578
v -0.227213994 0.146708995 0.59799701
v -0.240223616 0.203953207 0.601359665
v -0.201812983 0.165711001 0.594015956
v -0.16744563 0.22998029 0.588988721
v -0.166896984 0.171466008 0.586492956
v -0.105160609 0.185854197 0.580359578
v -0.140004992 0.157738999 0.578871012
v -0.227049425 0.206517428 0.112180613
v -0.200656369 0.260504752 0.119983591
v -0.235219091 0.266682267 0.124771051
v -0.157701954 0.178354427 0.0729964972
v -0.176523164 0.173397556 0.0739116967
v -0.309033304 0.195070297 0.0836608559
v -0.288256347 0.18242538 0.0820042044
v -0.305906147 0.0980334654 0.12034484
v -0.345896214 0.091018185 0.124535412
v -0.241113588 0.0418229811 0.174453571
v -0.254133493 0.00295483996 0.191497758
v -0.230501339 -0.000589069969 0.190157637
v -0.146964207 0.0672459304 0.116588324
v -0.188503191 0.0853540599 0.118159957
v -0.176523164 0.173397556 0.0739116967
v -0.146964207 0.0672459304 0.116588324
v -0.241113588 0.0418229811 0.174453571
v -0.227049425 0.206517428 0.112180613
v -0.251263916 0.21081613 0.074687086
v -0.215985581 0.213048518 0.0737981498
v -0.270751745 0.240231857 0.0350156203
v -0.288256347 0.18242538 0.0820042044
v -0.227049425 0.206517428 0.112180613
v -0.31915924 0.191227973 0.0349067301
v -0.19813928 0.243292287 0.0348444097
v -0.205018952 0.228968933 0.000654309988
v -0.279256552 0.228381708 0.00106196001
v -0.324665129 0.183580399 -0.00178510987
v -0.336379737 0.119496502 0.0342072211
v -0.319082767 0.109303728 0.0777920187
v -0.348197967 0.0694132596 -0.000732740271
v -0.339063287 0.0233109389 0.0733052194
v -0.366533607 -0.028850209 -0.000939709949
v -0.345945925 -0.0498039909 0.0787620395
v -0.34816581 -0.0993413776 -0.00123559998
v -0.304709077 0.00181436993 0.106445245
v -0.280136704 -0.0860932618 0.119661719
v -0.305906147 0.0980334654 0.12034484
v -0.246189207 0.0329179391 0.142371878
v -0.241113588 0.0418229811 0.174453571
v -0.256090641 -0.0158617795 0.119628169
v -0.280136704 -0.0860932618 0.119661719
v -0.244717732 -0.0919819996 0.119765244
v -0.208385125 -0.00644298969 0.103351355
v -0.190135479 -0.0756815821 0.079122439
v -0.222749189 -0.128760114 0.0567755587
v -0.271996677 -0.145202294 0.0739670172
v -0.278238475 -0.17665644 -0.00218513981
v -0.19574298 -0.105575703 -0.000516569999
v -0.325286299 -0.110714279 0.0601051971
v -0.34816581 -0.0993413776 -0.00123559998
v -0.280136704 -0.0860932618 0.119661719
v -0.181444034 -0.0442695878 0.00156555988
v -0.183034435 0.0214383006 0.0595705956
v -0.181444034 -0.0442695878 0.00156555988
v -0.173802435 0.0542123578 -0.00110069755
v -0.177166805 0.0887687653 0.0523672551
v -0.158413038 0.178106248 0.000301629974
v -0.188503191 0.0853540599 0.118159957
v -0.188503191 0.0853540599 0.118159957
v -0.176523164 0.173397556 0.0739116967
v -0.153736964 0.183376923 0.0360236317
v -0.205018952 0.228968933 0.000654309988
v -0.19813928 0.243292287 0.0348444097
v -0.215985581 0.213048518 0.0737981498
v -0.227049425 0.206517428 0.112180613
v -0.158413038 0.178106248 0.000301629974
v -0.241113588 0.0418229811 0.174453571
v -0.244717732 -0.0919819996 0.119765244
v -0.271996677 -0.145202294 0.0739670172
v -0.269549906 -0.129195854 0.119256951
v -0.264124781 -0.102412477 0.142062142
v -0.271996677 -0.145202294 0.0739670172
v -0.280136704 -0.0860932618 0.119661719
v -0.269549906 -0.129195854 0.119256951
v -0.280136704 -0.0860932618 0.119661719
v -0.264124781 -0.102412477 0.142062142
v -0.280136704 -0.0860932618 0.119661719
v -0.244717732 -0.0919819996 0.119765244
v -0.264124781 -0.102412477 0.142062142
v -0.19574298 -0.105575703 -0.000516569999
v -0.34816581 -0.0993413776 -0.00123559998
v -0.278238475 -0.17665644 -0.00218513981
v -0.181444034 -0.0442695878 0.00156555988
v -0.34816581 -0.0993413776 -0.00123559998
v -0.366533607 -0.028850209 -0.000939709949
v -0.348197967 0.0694132596 -0.000732740271
v -0.173802435 0.0542123578 -0.00110069755
v -0.324665129 0.183580399 -0.00178510987
v -0.158413038 0.178106248 0.000301629974
v -0.205018952 0.228968933 0.000654309988
v -0.279256552 0.228381708 0.00106196001
v 0.234343141 -0.0268838182 0.7508986
v 0.184093714 -0.053760618 0.823794484
v 0.194614753 -0.0278517697 0.721466422
v 0.267771482 -0.00045051999 0.667028248
v 0.0874424502 -0.0302588195 0.654142678
v 0.183104992 0.0316150002 0.576600015
v 0.0919235498 0.0106981602 0.604753077
v 0.156684995 0.0541789979 0.573614001
v 0.123314999 0.0805490017 0.567224979
v 0.0845089033 0.0981444344 0.580408096
v 0.125082999 0.125741988 0.572185993
v 0.105160609 0.185854197 0.580359578
v 0.207828 0.0343259983 0.582180977
v 0.274260342 0.0382016711 0.62726891
v 0.237655997 0.0702930018 0.592724979
v 0.277840525 0.12671712 0.608877838
v 0.239817008 0.116187997 0.597847998
v 0.227213994 0.146708995 0.59799701
v 0.240223616 0.203953207 0.601359665
v 0.201812983 0.165711001 0.594015956
v 0.16744563 0.22998029 0.588988721
v 0.166896984 0.171466008 0.586492956
v 0.105160609 0.185854197 0.580359578
v 0.140004992 0.157738999 0.578871012
v 0.142134458 -0.0348366909 0.710983574
v 0.120868139 -0.062183518 0.812371016
v 0.0990599617 -0.0463696979 0.736717641
v 0.227049425 0.206517428 0.112180613
v 0.235219091 0.266682267 0.124771051
v 0.200656369 0.260504752 0.119983591
v 0.157701954 0.178354427 0.0729964972
v 0.176523164 0.173397556 0.0739116967
v 0.309033304 0.195070297 0.0836608559
v 0.288256347 0.18242538 0.0820042044
v 0.305906147 0.0980334654 0.12034484
v 0.309033304 0.195070297 0.0836608559
v 0.345896214 0.091018185 0.124535412
v 0.241113588 0.0418229811 0.174453571
v 0.254133493 0.00295483996 0.191497758
v 0.230501339 -0.000589069969 0.190157637
v 0.241113588 0.0418229811 0.174453571
v 0.146964207 0.0672459304 0.116588324
v 0.188503191 0.0853540599 0.118159957
v 0.157701954 0.178354427 0.0729964972
v 0.176523164 0.173397556 0.0739116967
v 0.227049425 0.206517428 0.112180613
v 0.215985581 0.213048518 0.0737981498
v 0.251263916 0.21081613 0.074687086
v 0.270751745 0.240231857 0.0350156203
v 0.288256347 0.18242538 0.0820042044
v 0.227049425 0.206517428 0.112180613
v 0.31915924 0.191227973 0.0349067301
v 0.19813928 0.243292287 0.0348444097
v 0.205018952 0.228968933 0.000654309988
v 0.279256552 0.228381708 0.00106196001
v 0.324665129 0.183580399 -0.00178510987
v 0.336379737 0.119496502 0.0342072211
v 0.319082767 0.109303728 0.0777920187
v 0.348197967 0.0694132596 -0.000732740271
v 0.339063287 0.0233109389 0.0733052194
v 0.366533607 -0.028850209 -0.000939709949
v 0.345945925 -0.0498039909 0.0787620395
v 0.34816581 -0.0993413776 -0.00123559998
v 0.304709077 0.00181436993 0.106445245
v 0.280136704 -0.0860932618 0.119661719
v 0.305906147 0.0980334654 0.12034484
v 0.246189207 0.0329179391 0.142371878
v 0.241113588 0.0418229811 0.174453571
v 0.256090641 -0.0158617795 0.119628169
v 0.280136704 -0.0860932618 0.119661719
v 0.244717732 -0.0919819996 0.119765244
v 0.208385125 -0.00644298969 0.103351355
v 0.190135479 -0.0756815821 0.079122439
v 0.222749189 -0.128760114 0.0567755587
v 0.271996677 -0.145202294 0.0739670172
v 0.278238475 -0.17665644 -0.00218513981
v 0.19574298 -0.105575703 -0.000516569999
v 0.325286299 -0.110714279 0.0601051971
v 0.34816581 -0.0993413776 -0.00123559998
v 0.280136704 -0.0860932618 0.119661719
v 0.181444034 -0.0442695878 0.00156555988
v 0.183034435 0.0214383006 0.0595705956
v 0.181444034 -0.0442695878 0.00156555988
v 0.173802435 0.0542123578 -0.00110069755
v 0.177166805 0.0887687653 0.0523672551
v 0.158413038 0.178106248 0.000301629974
v 0.188503191 0.0853540599 0.118159957
v 0.176523164 0.173397556 0.0739116967
v 0.153736964 0.183376923 0.0360236317
v 0.205018952 0.228968933 0.000654309988
v 0.19813928 0.243292287 0.0348444097
v 0.215985581 0.213048518 0.0737981498
v 0.227049425 0.206517428 0.112180613
v 0.158413038 0.178106248 0.000301629974
v 0.188503191 0.0853540599 0.118159957
v 0.241113588 0.0418229811 0.174453571
v 0.244717732 -0.0919819996 0.119765244
v 0.269549906 -0.129195854 0.119256951
v 0.271996677 -0.145202294 0.0739670172
v 0.264124781 -0.102412477 0.142062142
v 0.271996677 -0.145202294 0.0739670172
v 0.269549906 -0.129195854 0.119256951
v 0.280136704 -0.0860932618 0.119661719
v 0.264124781 -0.102412477 0.142062142
v 0.280136704 -0.0860932618 0.119661719
v 0.280136704 -0.0860932618 0.119661719
v 0.264124781 -0.102412477 0.142062142
v 0.244717732 -0.0919819996 0.119765244
v 0.19574298 -0.105575703 -0.000516569999
v 0.278238475 -0.17665644 -0.00218513981
v 0.34816581 -0.0993413776 -0.00123559998
v 0.181444034 -0.0442695878 0.00156555988
v 0.34816581 -0.0993413776 -0.00123559998
v 0.366533607 -0.028850209 -0.000939709949
v 0.348197967 0.0694132596 -0.000732740271
v 0.173802435 0.0542123578 -0.00110069755
v 0.324665129 0.183580399 -0.00178510987
v 0.158413038 0.178106248 0.000301629974
v 0.205018952 0.228968933 0.000654309988
v 0.279256552 0.228381708 0.00106196001
vt 0.404633164 0.818734229
vt 0.414577425 0.867055714
vt 0.423054159 0.826219797
vt 0.387845159 0.855111122
vt 0.388294518 0.81584692
vt 0.37316072 0.81935358
vt 0.364094913 0.860615909
vt 0.373738348 0.900791228
vt 0.35306561 0.824198961
vt 0.427135408 0.768033981
vt 0.434514225 0.849722862
vt 0.402592361 0.779910982
vt 0.388932824 0.783570886
vt 0.388921082 0.731813669
vt 0.404740751 0.735078216
vt 0.388766348 0.717399955
vt 0.399551034 0.690203071
vt 0.388543129 0.679381132
vt 0.398017764 0.668703914
vt 0.411875844 0.683937728
vt 0.401361704 0.64894402
vt 0.421427011 0.648487687
vt 0.429781497 0.698811531
vt 0.403780997 0.612026334
vt 0.387542307 0.628600121
vt 0.388051748 0.657785296
vt 0.386063099 0.603315473
vt 0.369281769 0.616012156
vt 0.388189495 0.667253852
vt 0.388543129 0.679381132
vt 0.377665877 0.670902491
vt 0.376122296 0.649146438
vt 0.365542054 0.680157363
vt 0.352884531 0.654008746
vt 0.377116799 0.690815091
vt 0.388543129 0.679381132
vt 0.374490976 0.735707164
vt 0.347999573 0.713126063
vt 0.308824062 0.693792939
vt 0.324016452 0.616663218
vt 0.307434797 0.752481818
vt 0.353125691 0.770216465
vt 0.35306561 0.824198961
vt 0.315529883 0.859149516
vt 0.322287858 0.962958395
vt 0.293848038 0.688149095
vt 0.349814653 0.570830941
vt 0.386121213 0.550632596
vt 0.414309502 0.557641327
vt 0.443907917 0.596539021
vt 0.465161264 0.668601871
vt 0.472468197 0.766509533
vt 0.434514225 0.849722862
vt 0.463334918 0.863058031
vt 0.459723115 0.956657708
vt 0.365016699 0.47640869
vt 0.385564446 0.506956577
vt 0.385869622 0.461811095
vt 0.364383161 0.420120329
vt 0.38555783 0.431026846
vt 0.384174049 0.384788662
vt 0.469333172 0.553164005
vt 0.482542694 0.685029507
vt 0.472468197 0.766509533
vt 0.405708849 0.416928381
vt 0.405791521 0.477639288
vt 0.453076661 0.437312573
vt 0.316419542 0.442983478
vt 0.307453096 0.557599664
vt 0.520846069 0.619408011
vt 0.507900178 0.529927552
vt 0.494466007 0.415769309
vt 0.250110745 0.636608124
vt 0.26322341 0.540552139
vt 0.274234593 0.425099939
vt 0.201307952 0.605067849
vt 0.214182079 0.520919919
vt 0.231486678 0.40252623
vt 0.189362705 0.380006939
vt 0.225778282 0.241352886
vt 0.168480814 0.496259421
vt 0.123813517 0.463935465
vt 0.154900789 0.572725654
vt 0.108878441 0.543189645
vt 0.0736798123 0.423771232
vt 0.0577942207 0.517914653
vt 0.102973647 0.306990892
vt 0.147640109 0.351307541
vt 0.195669115 0.229026347
vt 0.201307952 0.605067849
vt 0.274369359 0.265151352
vt 0.323500752 0.294526547
vt 0.281159699 0.164408535
vt 0.232355118 0.150999397
vt 0.229394972 0.0540150031
vt 0.288527608 0.0352463946
vt 0.152910411 0.208667666
vt 0.207509577 0.142903119
vt 0.210403323 0.0438990816
vt 0.16726017 0.135256618
vt 0.152193666 0.0224638209
vt 0.329105556 0.201050788
vt 0.384460807 0.26200071
vt 0.35576582 0.321457714
vt 0.384170473 0.324110776
vt 0.384170473 0.324110776
vt 0.229773521 0.0418191776
vt 0.289288878 0.0174857602
vt 0.210779548 0.0318523869
vt 0.153455496 0.00692918152
vt 0.412382841 0.321900934
vt 0.384170473 0.324110776
vt 0.440325737 0.30311957
vt 0.482967496 0.281278282
vt 0.441512108 0.215668231
vt 0.484308839 0.189926535
vt 0.384460807 0.26200071
vt 0.384460807 0.26200071
vt 0.438977957 0.118553303
vt 0.495639503 0.0697319135
vt 0.392055154 0.240146786
vt 0.433459461 0.106454633
vt 0.496102273 0.0536915883
vt 0.389010429 0.220351011
vt 0.381062627 0.22265783
vt 0.376661777 0.240968734
vt 0.384460807 0.26200071
vt 0.339186013 0.0959164128
vt 0.384460807 0.26200071
vt 0.344843388 0.0852227435
vt 0.289288878 0.0174857602
vt 0.414577425 0.867055714
vt 0.390076458 0.901584387
vt 0.40654254 0.895126641
vt 0.373738348 0.900791228
vt 0.459723115 0.956657708
vt 0.375442266 0.909416437
vt 0.434514225 0.849722862
vt 0.423054159 0.826219797
vt 0.405531824 0.903891742
vt 0.375442266 0.909416437
vt 0.35306561 0.824198961
vt 0.322287858 0.962958395
vt 0.373738348 0.900791228
vt 0.315529883 0.859149516
vt 0.32264173 0.963173449
vt 0.373738348 0.900791228
vt 0.32264173 0.963173449
vt 0.375442266 0.909416437
vt 0.466749966 0.863963723
vt 0.472468197 0.766509533
vt 0.45977217 0.956308305
vt 0.40654254 0.895126641
vt 0.45977217 0.956308305
vt 0.463334918 0.863058031
vt 0.45977217 0.956308305
vt 0.40654254 0.895126641
vt 0.405531824 0.903891742
vt 0.376149237 0.778782487
vt 0.361138701 0.742386758
vt 0.416813672 0.736780643
vt 0.647622764 0.81975168
vt 0.629201829 0.827237248
vt 0.637678266 0.868073285
vt 0.664410532 0.856128931
vt 0.663961351 0.81686461
vt 0.679095089 0.82037127
vt 0.688160658 0.861633718
vt 0.678517044 0.901808977
vt 0.699190438 0.82521683
vt 0.62512064 0.769051433
vt 0.617741406 0.850740314
vt 0.649663746 0.780928433
vt 0.663323224 0.784588575
vt 0.663335264 0.732831359
vt 0.647515357 0.736095846
vt 0.663490057 0.718417525
vt 0.65270561 0.691220641
vt 0.663713574 0.680398703
vt 0.65423888 0.669721484
vt 0.6403808 0.68495518
vt 0.650895178 0.649961531
vt 0.630829632 0.649505138
vt 0.622474849 0.699829102
vt 0.648476124 0.613043964
vt 0.664714754 0.629617572
vt 0.664205074 0.658802986
vt 0.666193843 0.604333162
vt 0.682975233 0.617029786
vt 0.66406697 0.668271661
vt 0.663713574 0.680398703
vt 0.674590766 0.67192018
vt 0.676134109 0.650164247
vt 0.686714351 0.681175113
vt 0.699371994 0.655026793
vt 0.675139844 0.691832662
vt 0.663713574 0.680398703
vt 0.677765131 0.736724854
vt 0.704256833 0.714143634
vt 0.743432105 0.694811046
vt 0.72824043 0.617681146
vt 0.74482125 0.753499925
vt 0.699130476 0.771234214
vt 0.699190438 0.82521683
vt 0.736725748 0.860167563
vt 0.729967415 0.963976443
vt 0.758408606 0.689167142
vt 0.702442527 0.57184875
vt 0.666135728 0.551650405
vt 0.637947619 0.558658838
vt 0.608349264 0.597556353
vt 0.58709532 0.669619083
vt 0.579788029 0.767526627
vt 0.617741406 0.850740314
vt 0.588920772 0.864075184
vt 0.592532098 0.957674921
vt 0.687240779 0.477426261
vt 0.666693032 0.507974148
vt 0.666388214 0.462828547
vt 0.687874675 0.421138018
vt 0.666700006 0.432044297
vt 0.668083847 0.385806113
vt 0.582923949 0.554181218
vt 0.569713891 0.686046839
vt 0.579788029 0.767526627
vt 0.646549106 0.417945832
vt 0.646466017 0.478656739
vt 0.599180877 0.438329786
vt 0.735838234 0.444001406
vt 0.744804323 0.558617532
vt 0.531410873 0.620424867
vt 0.54435724 0.530944347
vt 0.55779177 0.416786283
vt 0.802146196 0.63762641
vt 0.78903383 0.541570365
vt 0.778023124 0.426118106
vt 0.85094893 0.606086493
vt 0.838075519 0.521938264
vt 0.820771277 0.403544575
vt 0.862895429 0.381025463
vt 0.826480567 0.242371172
vt 0.883776665 0.497278064
vt 0.928444088 0.464954346
vt 0.897356153 0.573744535
vt 0.943378806 0.544208527
vt 0.978577971 0.424790472
vt 0.994463325 0.518933773
vt 0.949284673 0.308009893
vt 0.904618204 0.352326304
vt 0.856589854 0.230044991
vt 0.85094893 0.606086493
vt 0.777889311 0.266169637
vt 0.728757739 0.295544595
vt 0.771099448 0.165426642
vt 0.819904029 0.152017742
vt 0.82286483 0.0550335273
vt 0.763732135 0.0362645611
vt 0.899348676 0.209686428
vt 0.844749749 0.143921465
vt 0.841856539 0.0449175462
vt 0.884998977 0.136275381
vt 0.900066316 0.0234824643
vt 0.723153293 0.202068597
vt 0.667798102 0.263018042
vt 0.696492374 0.322475642
vt 0.668088019 0.325128227
vt 0.668088019 0.325128227
vt 0.82248652 0.0428373441
vt 0.762971163 0.0185038075
vt 0.841480255 0.0328708515
vt 0.898804545 0.0079479441
vt 0.668088019 0.325128227
vt 0.639875829 0.322918147
vt 0.611932814 0.304137021
vt 0.569291294 0.282295138
vt 0.610747039 0.216685563
vt 0.567950189 0.190943629
vt 0.667798102 0.263018042
vt 0.667798102 0.263018042
vt 0.613281548 0.119570635
vt 0.55662024 0.0707490072
vt 0.660203636 0.241164476
vt 0.618799984 0.107471965
vt 0.556157291 0.0547085628
vt 0.66324842 0.2213687
vt 0.671196282 0.223675281
vt 0.675596952 0.241986305
vt 0.667798102 0.263018042
vt 0.713073552 0.0969342217
vt 0.667798102 0.263018042
vt 0.707416117 0.0862407908
vt 0.762971163 0.0185038075
vt 0.637678266 0.868073285
vt 0.662179172 0.902601957
vt 0.645712793 0.896144211
vt 0.678517044 0.901808977
vt 0.592532098 0.957674921
vt 0.676813304 0.910434008
vt 0.617741406 0.850740314
vt 0.629201829 0.827237248
vt 0.646723568 0.904909313
vt 0.676813304 0.910434008
vt 0.699190438 0.82521683
vt 0.729967415 0.963976443
vt 0.678517044 0.901808977
vt 0.736725748 0.860167563
vt 0.729613364 0.964191616
vt 0.678517044 0.901808977
vt 0.729613364 0.964191616
vt 0.676813304 0.910434008
vt 0.585505664 0.864980936
vt 0.579788029 0.767526627
vt 0.592482984 0.957325637
vt 0.645712793 0.896144211
vt 0.588920772 0.864075184
vt 0.592482984 0.957325637
vt 0.645712793 0.896144211
vt 0.592482984 0.957325637
vt 0.646723568 0.904909313
vt 0.676106811 0.779800177
vt 0.691117585 0.743404567
vt 0.635442615 0.737798095
vt 0.90897423 0.608257532
vt 0.915224314 0.669255257
vt 0.965378284 0.581769109
vt 0.855598748 0.658803225
vt 0.937669516 0.823121428
vt 0.936059415 0.72325623
vt 0.967791021 0.734838486
vt 0.990593851 0.64476645
vt 0.825818539 0.701595783
vt 0.844455361 0.793884873
vt 0.820287168 0.774734497
vt 0.776996434 0.76412189
vt 0.795694053 0.798449099
vt 0.851936698 0.814704895
vt 0.937669516 0.823121428
vt 0.904740989 0.873885512
vt 0.853923142 0.84954536
vt 0.853558242 0.898824573
vt 0.86099124 0.952406049
vt 0.83134371 0.929617941
vt 0.807031572 0.993181229
vt 0.784480155 0.832712829
vt 0.750353277 0.859623194
vt 0.783857346 0.873732984
vt 0.762221396 0.955773473
vt 0.79319191 0.916431844
vt 0.807031572 0.993181229
vt 0.809746802 0.936620474
vt 0.0641100481 0.0724174008
vt 0.0687667802 0.0333636031
vt 0.0577887967 0.0331626162
vt 0.0921148732 0.0837481841
vt 0.0864878371 0.0893565044
vt 0.0364752486 0.0919451341
vt 0.0436914638 0.0986125097
vt 0.0388095453 0.158963054
vt 0.0263233259 0.168122619
vt 0.0662304237 0.195874125
vt 0.064265199 0.225102931
vt 0.0710151866 0.225005955
vt 0.100630648 0.162778527
vt 0.0864756182 0.153834075
vt 0.0864878371 0.0893565044
vt 0.100630648 0.162778527
vt 0.0662304237 0.195874125
vt 0.062358208 0.65641737
vt 0.0765268877 0.624963701
vt 0.059896715 0.618634343
vt 0.0866909698 0.580602467
vt 0.0960282758 0.647682309
vt 0.062358208 0.65641737
vt 0.113675185 0.608134866
vt 0.0543214157 0.569301367
vt 0.0620796159 0.535759807
vt 0.0972341374 0.555157065
vt 0.126618385 0.584180057
vt 0.139878154 0.650445461
vt 0.127049804 0.689033926
vt 0.169336498 0.656642914
vt 0.159453869 0.738112926
vt 0.207053185 0.725109816
vt 0.182030797 0.783734143
vt 0.227224231 0.794932783
vt 0.148842394 0.785569787
vt 0.170636773 0.85268563
vt 0.115716048 0.727005482
vt 0.112576969 0.818031549
vt 0.0968812183 0.806665301
vt 0.138276994 0.835454583
vt 0.170636773 0.85268563
vt 0.168376327 0.868786991
vt 0.128368378 0.884428561
vt 0.158145189 0.921965718
vt 0.186930597 0.920870662
vt 0.198209345 0.882102489
vt 0.231510162 0.906528175
vt 0.187109292 0.981530547
vt 0.201904237 0.827946782
vt 0.227224231 0.794932783
vt 0.170636773 0.85268563
vt 0.150967419 0.995714307
vt 0.114741929 0.935280323
vt 0.150967419 0.995714307
vt 0.100129373 0.995008349
vt 0.0835660174 0.94246763
vt 0.0400223807 0.995595396
vt 0.0850933865 0.878398836
vt 0.0850933865 0.878398836
vt 0.0435488895 0.922185361
vt 0.0395768955 0.96307236
vt 0.00668013794 0.985287189
vt 0.0064356993 0.948808193
vt 0.0185114816 0.904695988
vt 0.0235499218 0.867845654
vt 0.0400223807 0.995595396
vt 0.0968812183 0.806665301
vt 0.0794753507 0.324833006
vt 0.0356983021 0.259233803
vt 0.0499683097 0.316732317
vt 0.0607242063 0.35836032
vt 0.0356983021 0.259233803
vt 0.0357021764 0.368700951
vt 0.0499683097 0.316732317
vt 0.0357021764 0.368700951
vt 0.0607242063 0.35836032
vt 0.0235227421 0.306524843
vt 0.02352608 0.259233803
vt 0.0064305733 0.28210631
vt 0.552197456 0.893502533
vt 0.510198891 0.905706108
vt 0.533263862 0.941049099
vt 0.552984774 0.858321011
vt 0.510198891 0.905706108
vt 0.50158155 0.868829191
vt 0.501583338 0.812922895
vt 0.550045669 0.803386271
vt 0.502192497 0.747743189
vt 0.547935307 0.733688891
vt 0.532597244 0.710504532
vt 0.512326777 0.718424082
vt 0.90897423 0.608257532
vt 0.965378284 0.581769109
vt 0.915224314 0.669255257
vt 0.855598748 0.658803225
vt 0.937669516 0.823121428
vt 0.851936698 0.814704895
vt 0.904740989 0.873885512
vt 0.853923142 0.84954536
vt 0.853558242 0.898824573
vt 0.86099124 0.952406049
vt 0.83134371 0.929617941
vt 0.807031572 0.993181229
vt 0.844455361 0.793884873
vt 0.825818539 0.701595783
vt 0.820287168 0.774734497
vt 0.776996434 0.76412189
vt 0.795694053 0.798449099
vt 0.784480155 0.832712829
vt 0.750353277 0.859623194
vt 0.783857346 0.873732984
vt 0.762221396 0.955773473
vt 0.79319191 0.916431844
vt 0.807031572 0.993181229
vt 0.809746802 0.936620474
vt 0.936059415 0.72325623
vt 0.990593851 0.64476645
vt 0.967791021 0.734838486
vt 0.0641100481 0.0724174008
vt 0.0577887967 0.0331626162
vt 0.0687667802 0.0333636031
vt 0.0921148732 0.0837481841
vt 0.0864878371 0.0893565044
vt 0.0364752486 0.0919451341
vt 0.0436914638 0.0986125097
vt 0.0388095453 0.158963054
vt 0.0364752486 0.0919451341
vt 0.0263233259 0.168122619
vt 0.0662304237 0.195874125
vt 0.064265199 0.225102931
vt 0.0710151866 0.225005955
vt 0.0662304237 0.195874125
vt 0.100630648 0.162778527
vt 0.0864756182 0.153834075
vt 0.0921148732 0.0837481841
vt 0.0864878371 0.0893565044
vt 0.062358208 0.65641737
vt 0.059896715 0.618634343
vt 0.0765268877 0.624963701
vt 0.0866909698 0.580602467
vt 0.0960282758 0.647682309
vt 0.062358208 0.65641737
vt 0.113675185 0.608134866
vt 0.0543214157 0.569301367
vt 0.0620796159 0.535759807
vt 0.0972341374 0.555157065
vt 0.126618385 0.584180057
vt 0.139878154 0.650445461
vt 0.127049804 0.689033926
vt 0.169336498 0.656642914
vt 0.159453869 0.738112926
vt 0.207053185 0.725109816
vt 0.182030797 0.783734143
vt 0.227224231 0.794932783
vt 0.148842394 0.785569787
vt 0.170636773 0.85268563
vt 0.115716048 0.727005482
vt 0.112576969 0.818031549
vt 0.0968812183 0.806665301
vt 0.138276994 0.835454583
vt 0.170636773 0.85268563
vt 0.168376327 0.868786991
vt 0.128368378 0.884428561
vt 0.158145189 0.921965718
vt 0.186930597 0.920870662
vt 0.198209345 0.882102489
vt 0.231510162 0.906528175
vt 0.187109292 0.981530547
vt 0.201904237 0.827946782
vt 0.227224231 0.794932783
vt 0.170636773 0.85268563
vt 0.150967419 0.995714307
vt 0.114741929 0.935280323
vt 0.150967419 0.995714307
vt 0.100129373 0.995008349
vt 0.0835660174 0.94246763
vt 0.0400223807 0.995595396
vt 0.0850933865 0.878398836
vt 0.0435488895 0.922185361
vt 0.0395768955 0.96307236
vt 0.00668013794 0.985287189
vt 0.0064356993 0.948808193
vt 0.0185114816 0.904695988
vt 0.0235499218 0.867845654
vt 0.0400223807 0.995595396
vt 0.0850933865 0.878398836
vt 0.0968812183 0.806665301
vt 0.0794753507 0.324833006
vt 0.0499683097 0.316732317
vt 0.0356983021 0.259233803
vt 0.0607242063 0.35836032
vt 0.0356983021 0.259233803
vt 0.0499683097 0.316732317
vt 0.0357021764 0.368700951
vt 0.0607242063 0.35836032
vt 0.0357021764 0.368700951
vt 0.0235227421 0.306524843
vt 0.0064305733 0.28210631
vt 0.02352608 0.259233803
vt 0.552197456 0.893502533
vt 0.533263862 0.941049099
vt 0.510198891 0.905706108
vt 0.552984774 0.858321011
vt 0.510198891 0.905706108
vt 0.50158155 0.868829191
vt 0.501583338 0.812922895
vt 0.550045669 0.803386271
vt 0.502192497 0.747743189
vt 0.547935307 0.733688891
vt 0.532597244 0.710504532
vt 0.512326777 0.718424082
vn 0.371243656 -0.710515797 0.597783804
vn -0.436351687 -0.540661693 0.719223261
vn -0.0913276225 -0.877389908 0.471005619
vn 0.10083466 -0.388182402 0.91604954
vn 0.00955663808 -0.753537536 0.65733552
vn -0.270642817 -0.651020646 0.709171712
vn 0.415420264 -0.705334246 0.574394941
vn 0.706146657 -0.135989025 0.694884002
vn -0.596465826 -0.575853407 0.559125483
vn 0.719010353 -0.694199681 -0.0333314873
vn -0.0480427146 -0.976548254 0.209870115
vn 0.295549244 -0.943102717 0.152341038
vn -0.106354758 -0.962950349 0.247821063
vn -0.182668254 -0.961443484 -0.205568954
vn 0.233817503 -0.932557225 -0.275075346
vn -0.188931599 -0.94792217 -0.256414741
vn 0.369550675 -0.894005537 -0.253350168
vn -0.19898814 -0.85451144 -0.479806244
vn 0.324045897 -0.880665541 -0.345575511
vn 0.404915303 -0.841506779 -0.357645124
vn 0.322707683 -0.834697068 -0.446251661
vn 0.657157063 -0.556779206 -0.508076251
vn 0.758755624 -0.557138324 -0.337471098
vn 0.373899251 -0.53225565 -0.759541512
vn -0.210235685 -0.743174791 -0.635210276
vn -0.164913699 -0.95707804 -0.238338172
vn -0.255261511 -0.439477772 -0.861220598
vn -0.754011154 -0.372890264 -0.540758789
vn -0.228979364 -0.80354023 -0.549446583
vn -0.19898814 -0.85451144 -0.479806244
vn -0.650994182 -0.745309591 -0.143944845
vn -0.648954093 -0.716511428 -0.255870879
vn -0.713730812 -0.681228876 -0.162836447
vn -0.91641438 -0.346948057 -0.199528754
vn -0.654101968 -0.750918269 -0.0909524634
vn -0.19898814 -0.85451144 -0.479806244
vn -0.538440108 -0.833606303 -0.123218261
vn -0.937831044 -0.346190721 -0.0249976516
vn -0.996914148 -0.0659919903 0.0425119288
vn -0.936708331 -0.341788292 -0.0758827999
vn -0.69135648 0.507610917 0.514156818
vn -0.852241218 -0.469129264 0.231522486
vn -0.596465826 -0.575853407 0.559125483
vn -0.635726333 0.55704993 0.534366429
vn 0.272501528 -0.463844121 0.842965961
vn -0.54366672 0.372644871 0.752038777
vn -0.804491758 -0.491823107 -0.333020955
vn -0.176904276 -0.709870338 -0.68175441
vn 0.453377247 -0.659497142 -0.599593699
vn 0.665766954 -0.51466459 -0.540254235
vn 0.914498329 -0.319260389 -0.248526916
vn 0.929740846 0.301881433 0.210830733
vn -0.0480427146 -0.976548254 0.209870115
vn 0.959755898 -0.235249355 0.153383255
vn -0.0838620141 -0.406281888 0.909891307
vn -0.642739236 -0.765629351 0.0264203101
vn -0.0478139222 -0.992455244 -0.112899475
vn -0.109864376 -0.987253964 0.115149416
vn -0.680608273 -0.722618997 -0.120806053
vn -0.137544841 -0.916912794 -0.374636233
vn -0.13736099 -0.975810289 -0.170076713
vn 0.872102261 -0.434542686 -0.224967182
vn 0.779010653 0.389776319 0.491138279
vn 0.929740846 0.301881433 0.210830733
vn 0.46984297 -0.831275582 -0.297032863
vn 0.4516128 -0.887515545 -0.0914445668
vn 0.791560948 -0.549913406 -0.266508251
vn -0.906154156 -0.419799984 -0.0515031815
vn -0.934979618 -0.351164192 0.0499692596
vn 0.658874154 0.0530329235 0.750381529
vn 0.998812556 -0.0152736166 -0.0462613963
vn 0.962839782 -0.00875614956 -0.269931197
vn -0.518847644 0.139610082 0.84338969
vn -0.959473431 0.178775266 0.217830434
vn -0.982436419 0.186135158 -0.0131298117
vn -0.338921517 0.519856215 0.784143925
vn -0.630018055 0.74843812 0.207165956
vn -0.645661175 0.763103843 -0.0281821266
vn 0.0629728362 0.992853224 -0.101374961
vn -0.287647128 0.952472508 -0.100275375
vn 0.10742905 0.986370981 0.124624357
vn 0.813000143 0.581510127 0.029607784
vn 0.190845802 0.671702743 0.715816438
vn 0.651150107 0.319739968 0.688309431
vn 0.998812556 -0.0152736166 -0.0462613963
vn 0.658874154 0.0530329235 0.750381529
vn 0.962839782 -0.00875614956 -0.269931197
vn 0.742368758 0.634711325 -0.214546323
vn 0.572993457 0.792292416 -0.209645852
vn -0.338921517 0.519856215 0.784143925
vn -0.909828901 0.410177052 -0.0629764944
vn -0.956858695 -0.287034899 -0.0450818054
vn -0.836634278 0.482773155 0.258791894
vn -0.276052386 0.902046561 0.331823945
vn -0.251366079 0.96545279 0.0686733946
vn -0.826789081 0.509725749 -0.237906277
vn 0.939245701 0.170795053 -0.297735721
vn 0.615737259 0.752137542 0.234854832
vn 0.555479348 0.831123948 -0.0259947944
vn 0.955515683 0.284625173 0.0773198828
vn 0.899424613 0.226780772 -0.373638541
vn -0.921638906 -0.184474438 0.341395438
vn -0.0760513619 -0.973464012 0.215833351
vn -0.840190232 -0.540126324 -0.0484136716
vn -0.110748738 -0.993625402 0.0210524891
vn -0.110748738 -0.993625402 0.0210524891
vn -0.102602154 0.656647921 -0.747185528
vn -0.362110823 0.265958756 -0.893387735
vn 0.119542658 0.615358472 -0.779129982
vn 0.303463548 0.177321211 -0.936198294
vn 0.709091544 -0.652196169 -0.268010169
vn -0.110748738 -0.993625402 0.0210524891
vn 0.850437284 -0.440698504 -0.287299693
vn 0.939245701 0.170795053 -0.297735721
vn 0.937167108 -0.334787875 0.0981578976
vn 0.955515683 0.284625173 0.0773198828
vn -0.0760513619 -0.973464012 0.215833351
vn -0.0760513619 -0.973464012 0.215833351
vn 0.942912757 -0.323016316 -0.0810922831
vn 0.899424613 0.226780772 -0.373638541
vn 0.38368237 -0.870215654 0.309051126
vn 0.382940978 -0.644413352 -0.661881924
vn 0.303463548 0.177321211 -0.936198294
vn 0.0492834896 -0.894676626 -0.44398737
vn -0.298160255 -0.852383673 -0.429584146
vn -0.512122035 -0.751910985 0.415163487
vn -0.0760513619 -0.973464012 0.215833351
vn -0.988186121 -0.146358773 0.0454683676
vn -0.0760513619 -0.973464012 0.215833351
vn -0.578518808 -0.501515329 -0.643271506
vn -0.362110823 0.265958756 -0.893387735
vn -0.436351687 -0.540661693 0.719223261
vn 0.260751456 0.390870184 0.882739604
vn -0.326408267 -0.211890265 0.921173275
vn 0.706146657 -0.135989025 0.694884002
vn -0.0838620141 -0.406281888 0.909891307
vn 0.32117933 0.870941341 0.371893972
vn -0.0480427146 -0.976548254 0.209870115
vn -0.0913276225 -0.877389908 0.471005619
vn 0.0029603343 0.877259493 0.480007291
vn 0.32117933 0.870941341 0.371893972
vn -0.596465826 -0.575853407 0.559125483
vn 0.272501528 -0.463844121 0.842965961
vn 0.706146657 -0.135989025 0.694884002
vn -0.635726333 0.55704993 0.534366429
vn 0.360931545 0.525820076 0.770221889
vn 0.706146657 -0.135989025 0.694884002
vn 0.360931545 0.525820076 0.770221889
vn 0.32117933 0.870941341 0.371893972
vn 0.668770015 0.686685383 0.284973204
vn 0.929740846 0.301881433 0.210830733
vn 0.115677714 0.560741305 0.819870651
vn -0.326408267 -0.211890265 0.921173275
vn 0.115677714 0.560741305 0.819870651
vn 0.959755898 -0.235249355 0.153383255
vn 0.115677714 0.560741305 0.819870651
vn -0.326408267 -0.211890265 0.921173275
vn 0.0029603343 0.877259493 0.480007291
vn -0.465920717 -0.852520287 0.236911103
vn -0.758337855 -0.651427031 -0.0238025337
vn 0.507203698 -0.819522679 -0.266696125
vn -0.371243656 -0.710515797 0.597783804
vn 0.0913276449 -0.877389908 0.471005619
vn 0.436351717 -0.540661752 0.719223261
vn -0.10083466 -0.388182461 0.91604954
vn -0.00955663808 -0.753537536 0.65733552
vn 0.270642817 -0.651020646 0.709171712
vn -0.415420294 -0.705334246 0.574394882
vn -0.706146657 -0.13598904 0.694884062
vn 0.596465826 -0.575853407 0.559125483
vn -0.719010353 -0.694199681 -0.0333314873
vn 0.0480427146 -0.976548254 0.209870115
vn -0.295549244 -0.943102717 0.152341038
vn 0.106354758 -0.962950349 0.247821063
vn 0.182668209 -0.961443484 -0.205568969
vn -0.233817503 -0.932557225 -0.275075346
vn 0.188931584 -0.947922051 -0.256414741
vn -0.369550705 -0.894005537 -0.253350168
vn 0.198988184 -0.85451144 -0.479806244
vn -0.324045897 -0.880665541 -0.345575511
vn -0.404915333 -0.841506779 -0.357645124
vn -0.322707683 -0.834697068 -0.446251661
vn -0.657157063 -0.556779206 -0.508076251
vn -0.758755624 -0.557138324 -0.337471098
vn -0.373899221 -0.53225565 -0.759541512
vn 0.210235715 -0.743174851 -0.635210276
vn 0.164913699 -0.95707804 -0.238338172
vn 0.25526154 -0.439477772 -0.861220598
vn 0.754011154 -0.372890264 -0.540758789
vn 0.228979364 -0.80354023 -0.549446583
vn 0.198988184 -0.85451144 -0.479806244
vn 0.650994182 -0.745309591 -0.143944845
vn 0.648954034 -0.716511488 -0.255870908
vn 0.713730812 -0.681228876 -0.162836432
vn 0.91641438 -0.346948117 -0.199528739
vn 0.654101968 -0.750918269 -0.0909524411
vn 0.198988184 -0.85451144 -0.479806244
vn 0.538440108 -0.833606303 -0.123218253
vn 0.937831044 -0.346190691 -0.0249976497
vn 0.996914148 -0.0659919903 0.0425119326
vn 0.936708331 -0.341788292 -0.0758827999
vn 0.69135648 0.507610977 0.514156818
vn 0.852241218 -0.469129264 0.231522486
vn 0.596465826 -0.575853407 0.559125483
vn 0.635726333 0.55704993 0.534366429
vn -0.272501528 -0.463844061 0.842965961
vn 0.54366672 0.372644871 0.752038836
vn 0.804491758 -0.491823107 -0.333020955
vn 0.176904276 -0.709870338 -0.68175441
vn -0.453377247 -0.659497142 -0.599593699
vn -0.665766954 -0.51466459 -0.540254414
vn -0.914498329 -0.319260389 -0.248526886
vn -0.929740846 0.301881433 0.210830733
vn 0.0480427146 -0.976548254 0.209870115
vn -0.959755898 -0.23524937 0.153383255
vn 0.0838620141 -0.406281829 0.909891367
vn 0.642739296 -0.765629292 0.0264203157
vn 0.0478139296 -0.992455244 -0.112899475
vn 0.109864414 -0.987253964 0.115149416
vn 0.680608273 -0.722618997 -0.120806053
vn 0.137544781 -0.916912794 -0.374636173
vn 0.13736099 -0.975810289 -0.170076713
vn -0.872102261 -0.434542745 -0.224967182
vn -0.779010653 0.389776319 0.491138279
vn -0.929740846 0.301881433 0.210830733
vn -0.469842941 -0.831275582 -0.297032893
vn -0.45161283 -0.887515485 -0.0914445817
vn -0.791560948 -0.549913406 -0.266508251
vn 0.906154156 -0.419799984 -0.0515031815
vn 0.934979618 -0.351164192 0.0499692596
vn -0.658874154 0.0530329235 0.750381529
vn -0.998812556 -0.0152736176 -0.0462614037
vn -0.962839782 -0.00875614863 -0.269931227
vn 0.518847644 0.139610082 0.84338969
vn 0.959473431 0.178775266 0.217830434
vn 0.982436419 0.186135158 -0.0131298117
vn 0.338921517 0.519856215 0.784143925
vn 0.630018055 0.74843812 0.207165956
vn 0.645661175 0.763103843 -0.0281821266
vn -0.0629728362 0.992853224 -0.101374961
vn 0.287647128 0.952472508 -0.100275375
vn -0.10742905 0.986370981 0.124624357
vn -0.813000262 0.581510067 0.0296077821
vn -0.190845802 0.671702743 0.715816438
vn -0.651150048 0.319739938 0.688309491
vn -0.998812556 -0.0152736176 -0.0462614037
vn -0.658874154 0.0530329235 0.750381529
vn -0.962839782 -0.00875614863 -0.269931227
vn -0.742368877 0.634711206 -0.214546338
vn -0.572993457 0.792292416 -0.209645793
vn 0.338921517 0.519856215 0.784143925
vn 0.909828901 0.410177052 -0.0629765019
vn 0.956858695 -0.287034959 -0.0450818092
vn 0.836634278 0.482773155 0.258791894
vn 0.276052386 0.902046561 0.331823945
vn 0.251366079 0.96545279 0.0686733946
vn 0.826789081 0.50972569 -0.237906247
vn -0.939245701 0.170795053 -0.297735721
vn -0.615737259 0.752137542 0.234854832
vn -0.555479228 0.831123948 -0.0259948075
vn -0.955515683 0.284625113 0.0773198828
vn -0.899424613 0.226780802 -0.3736386
vn 0.921638906 -0.184474468 0.341395497
vn 0.0760513768 -0.973464012 0.215833351
vn 0.840190232 -0.540126324 -0.0484136753
vn 0.110748738 -0.993625402 0.0210524723
vn 0.110748738 -0.993625402 0.0210524723
vn 0.102602191 0.65664798 -0.747185528
vn 0.362110823 0.265958726 -0.893387735
vn -0.119542643 0.615358472 -0.779129982
vn -0.303463548 0.177321211 -0.936198294
vn 0.110748738 -0.993625402 0.0210524723
vn -0.709091544 -0.652196169 -0.268010169
vn -0.850437284 -0.440698504 -0.287299693
vn -0.939245701 0.170795053 -0.297735721
vn -0.937167108 -0.334787875 0.0981578976
vn -0.955515683 0.284625113 0.0773198828
vn 0.0760513768 -0.973464012 0.215833351
vn 0.0760513768 -0.973464012 0.215833351
vn -0.942912757 -0.323016316 -0.0810922906
vn -0.899424613 0.226780802 -0.3736386
vn -0.383682311 -0.870215654 0.309051096
vn -0.382940918 -0.644413352 -0.661881924
vn -0.303463548 0.177321211 -0.936198294
vn -0.0492834896 -0.894676626 -0.44398737
vn 0.298160255 -0.852383673 -0.429584146
vn 0.512122035 -0.751910985 0.415163487
vn 0.0760513768 -0.973464012 0.215833351
vn 0.988186121 -0.146358758 0.0454683676
vn 0.0760513768 -0.973464012 0.215833351
vn 0.578518808 -0.501515329 -0.643271506
vn 0.362110823 0.265958726 -0.893387735
vn 0.436351717 -0.540661752 0.719223261
vn -0.260751456 0.390870184 0.882739604
vn 0.326408207 -0.211890265 0.921173275
vn -0.706146657 -0.13598904 0.694884062
vn 0.0838620141 -0.406281829 0.909891367
vn -0.321179271 0.870941222 0.371894002
vn 0.0480427146 -0.976548254 0.209870115
vn 0.0913276449 -0.877389908 0.471005619
vn -0.00296031823 0.877259493 0.480007291
vn -0.321179271 0.870941222 0.371894002
vn 0.596465826 -0.575853407 0.559125483
vn -0.272501528 -0.463844061 0.842965961
vn -0.706146657 -0.13598904 0.694884062
vn 0.635726333 0.55704993 0.534366429
vn -0.360931605 0.525820076 0.770221889
vn -0.706146657 -0.13598904 0.694884062
vn -0.360931605 0.525820076 0.770221889
vn -0.321179271 0.870941222 0.371894002
vn -0.668770015 0.686685443 0.284973234
vn -0.929740846 0.301881433 0.210830733
vn -0.115677692 0.560741246 0.81987071
vn 0.326408207 -0.211890265 0.921173275
vn -0.959755898 -0.23524937 0.153383255
vn -0.115677692 0.560741246 0.81987071
vn 0.326408207 -0.211890265 0.921173275
vn -0.115677692 0.560741246 0.81987071
vn -0.00296031823 0.877259493 0.480007291
vn 0.465920746 -0.852520287 0.236911103
vn 0.758337855 -0.651427031 -0.0238025337
vn -0.507203817 -0.819522679 -0.266696155
vn -0.635726333 0.55704993 0.534366429
vn 0.32117933 0.870941341 0.371893972
vn 0.360931545 0.525820076 0.770221889
vn -0.69135648 0.507610917 0.514156818
vn 0.929740846 0.301881433 0.210830733
vn 0.0029603343 0.877259493 0.480007291
vn 0.668770015 0.686685383 0.284973204
vn 0.115677714 0.560741305 0.819870651
vn -0.54366672 0.372644871 0.752038777
vn 0.334983379 0.720243156 0.607483268
vn 0.52787286 0.16429168 0.833281815
vn -0.518847644 0.139610082 0.84338969
vn 0.251200795 -0.101249829 0.962624907
vn 0.0584398061 0.754220307 0.654015601
vn 0.929740846 0.301881433 0.210830733
vn 0.779010653 0.389776319 0.491138279
vn -0.180783018 0.380305827 0.907019794
vn -0.296887428 0.210206464 0.931488693
vn 0.658874154 0.0530329235 0.750381529
vn -0.177753627 -0.0952864513 0.979451001
vn 0.651150107 0.319739968 0.688309431
vn 0.207717702 -0.0342524461 0.977588892
vn -0.338921517 0.519856215 0.784143925
vn 0.182530761 -0.0231296327 0.982928097
vn 0.190845802 0.671702743 0.715816438
vn 0.166107461 -0.0775623471 0.983052611
vn 0.651150107 0.319739968 0.688309431
vn 0.121651806 -0.202218339 0.971755326
vn 0.0137952687 0.710874736 -0.703183293
vn 0.119542658 0.615358472 -0.779129982
vn -0.102602154 0.656647921 -0.747185528
vn 0.303463548 0.177321211 -0.936198294
vn 0.830411553 0.421405733 -0.364463866
vn -0.362110823 0.265958756 -0.893387735
vn -0.70924288 0.645587683 -0.283180088
vn -0.792905629 -0.486040026 -0.367512763
vn -0.578518808 -0.501515329 -0.643271506
vn -0.0967666656 -0.707527339 -0.700029552
vn -0.298160255 -0.852383673 -0.429584146
vn 0.0492834896 -0.894676626 -0.44398737
vn 0.382940978 -0.644413352 -0.661881924
vn 0.577795625 -0.661653578 -0.477877468
vn 0.830411553 0.421405733 -0.364463866
vn 0.382940978 -0.644413352 -0.661881924
vn -0.0967666656 -0.707527339 -0.700029552
vn 0.0137952687 0.710874736 -0.703183293
vn -0.270584494 0.812305272 0.516666532
vn 0.339110464 0.802757025 0.490494788
vn -0.341491938 0.921488583 0.18504627
vn -0.70924288 0.645587683 -0.283180088
vn 0.0137952687 0.710874736 -0.703183293
vn -0.825410306 0.49770394 0.266436756
vn 0.432218552 0.892936409 0.125903293
vn 0.273449212 0.586610675 -0.762308002
vn -0.334831774 0.657948971 -0.674530029
vn -0.683535099 0.349995583 -0.640533328
vn -0.958556056 0.134374559 0.251224369
vn -0.901765943 0.227072224 0.367772341
vn -0.773251653 0.122725204 -0.622109592
vn -0.881697476 0.105779715 0.459804654
vn -0.815974414 -0.0137318987 -0.577924788
vn -0.825768054 -0.136293814 0.547294378
vn -0.718259096 -0.37392357 -0.586758137
vn -0.531356871 -0.0568284653 0.845239818
vn -0.511884332 -0.0629244149 0.856746674
vn -0.792905629 -0.486040026 -0.367512763
vn 0.00396075519 -0.620531201 0.78417182
vn -0.0967666656 -0.707527339 -0.700029552
vn 0.0139312726 -0.152783498 0.988161504
vn -0.511884332 -0.0629244149 0.856746674
vn 0.543716967 -0.208783209 0.812884569
vn 0.679365814 -0.152353913 0.717809498
vn 0.851387501 -0.293621004 0.434656173
vn 0.617313862 -0.724777162 0.30597657
vn -0.0905103832 -0.855091631 0.510515511
vn -0.0836776868 -0.876374543 -0.474305391
vn 0.674322665 -0.390306324 -0.626857162
vn -0.719884753 -0.556718171 0.414524883
vn -0.718259096 -0.37392357 -0.586758137
vn -0.511884332 -0.0629244149 0.856746674
vn 0.748618305 -0.0922424719 -0.65655309
vn 0.968705058 -0.0953622535 0.229164869
vn 0.748618305 -0.0922424719 -0.65655309
vn 0.736026347 -0.0761113763 -0.672660649
vn 0.982292712 -0.0951625407 0.161384672
vn 0.727028966 0.173010081 -0.664451957
vn 0.577795625 -0.661653578 -0.477877468
vn 0.577795625 -0.661653578 -0.477877468
vn 0.830411553 0.421405733 -0.364463866
vn 0.948240399 0.264628708 0.175532758
vn 0.273449212 0.586610675 -0.762308002
vn 0.432218552 0.892936409 0.125903293
vn 0.339110464 0.802757025 0.490494788
vn 0.0137952687 0.710874736 -0.703183293
vn 0.727028966 0.173010081 -0.664451957
vn -0.0967666656 -0.707527339 -0.700029552
vn 0.543716967 -0.208783209 0.812884569
vn -0.0905103832 -0.855091631 0.510515511
vn -0.15469709 -0.848008275 0.506903172
vn 0.018394554 -0.0171206724 0.999684215
vn -0.0905103832 -0.855091631 0.510515511
vn -0.511884332 -0.0629244149 0.856746674
vn -0.15469709 -0.848008275 0.506903172
vn -0.511884332 -0.0629244149 0.856746674
vn 0.018394554 -0.0171206724 0.999684215
vn -0.511884332 -0.0629244149 0.856746674
vn 0.543716967 -0.208783209 0.812884569
vn 0.018394554 -0.0171206724 0.999684215
vn 0.674322665 -0.390306324 -0.626857162
vn -0.718259096 -0.37392357 -0.586758137
vn -0.0836776868 -0.876374543 -0.474305391
vn 0.748618305 -0.0922424719 -0.65655309
vn -0.718259096 -0.37392357 -0.586758137
vn -0.815974414 -0.0137318987 -0.577924788
vn -0.773251653 0.122725204 -0.622109592
vn 0.736026347 -0.0761113763 -0.672660649
vn -0.683535099 0.349995583 -0.640533328
vn 0.727028966 0.173010081 -0.664451957
vn 0.273449212 0.586610675 -0.762308002
vn -0.334831774 0.657948971 -0.674530029
vn 0.635726333 0.55704993 0.534366429
vn -0.360931605 0.525820076 0.770221889
vn -0.321179271 0.870941222 0.371894002
vn 0.69135648 0.507610977 0.514156818
vn -0.929740846 0.301881433 0.210830733
vn -0.0584398061 0.754220307 0.654015601
vn -0.779010653 0.389776319 0.491138279
vn 0.180783018 0.380305827 0.907019794
vn 0.296887428 0.210206464 0.931488693
vn -0.658874154 0.0530329235 0.750381529
vn 0.177753627 -0.0952864513 0.979451001
vn -0.651150048 0.319739938 0.688309491
vn -0.334983379 0.720243156 0.607483268
vn 0.54366672 0.372644871 0.752038836
vn -0.527872741 0.164291695 0.833281815
vn 0.518847644 0.139610082 0.84338969
vn -0.251200795 -0.101249829 0.962624907
vn -0.207717702 -0.0342524461 0.977588892
vn 0.338921517 0.519856215 0.784143925
vn -0.182530761 -0.0231296327 0.982928097
vn -0.190845802 0.671702743 0.715816438
vn -0.166107476 -0.0775623471 0.983052611
vn -0.651150048 0.319739938 0.688309491
vn -0.121651806 -0.202218339 0.971755326
vn -0.00296031823 0.877259493 0.480007291
vn -0.115677692 0.560741246 0.81987071
vn -0.668770015 0.686685443 0.284973234
vn -0.0137952548 0.710874736 -0.703183293
vn 0.102602191 0.65664798 -0.747185528
vn -0.119542643 0.615358472 -0.779129982
vn -0.303463548 0.177321211 -0.936198294
vn -0.830411553 0.421405733 -0.364463866
vn 0.362110823 0.265958726 -0.893387735
vn 0.70924294 0.645587683 -0.283180118
vn 0.792905629 -0.486040026 -0.367512882
vn 0.362110823 0.265958726 -0.893387735
vn 0.578518808 -0.501515329 -0.643271506
vn 0.0967666656 -0.707527339 -0.700029552
vn 0.298160255 -0.852383673 -0.429584146
vn -0.0492834896 -0.894676626 -0.44398737
vn 0.0967666656 -0.707527339 -0.700029552
vn -0.382940918 -0.644413352 -0.661881924
vn -0.577795565 -0.661653519 -0.477877468
vn -0.303463548 0.177321211 -0.936198294
vn -0.830411553 0.421405733 -0.364463866
vn -0.0137952548 0.710874736 -0.703183293
vn -0.339110464 0.802757025 0.490494788
vn 0.270584494 0.812305272 0.516666532
vn 0.341491938 0.921488583 0.185046285
vn 0.70924294 0.645587683 -0.283180118
vn -0.0137952548 0.710874736 -0.703183293
vn 0.825410306 0.49770394 0.266436756
vn -0.432218552 0.892936409 0.125903293
vn -0.273449212 0.586610675 -0.762308002
vn 0.334831774 0.657948971 -0.674530029
vn 0.683535099 0.349995583 -0.640533328
vn 0.958556056 0.134374559 0.251224369
vn 0.901765943 0.227072224 0.367772341
vn 0.773251653 0.122725211 -0.622109592
vn 0.881697476 0.105779722 0.459804654
vn 0.815974414 -0.0137318969 -0.577924788
vn 0.825768054 -0.136293814 0.547294378
vn 0.718259096 -0.37392351 -0.586758137
vn 0.531356871 -0.0568284653 0.845239818
vn 0.511884332 -0.0629244298 0.856746674
vn 0.792905629 -0.486040026 -0.367512882
vn -0.00396074913 -0.620531142 0.78417182
vn 0.0967666656 -0.707527339 -0.700029552
vn -0.0139312726 -0.152783498 0.988161504
vn 0.511884332 -0.0629244298 0.856746674
vn -0.543716967 -0.208783209 0.812884569
vn -0.679365814 -0.152353898 0.717809439
vn -0.851387501 -0.293621004 0.434656173
vn -0.617313862 -0.724777162 0.305976599
vn 0.0905103832 -0.855091631 0.510515511
vn 0.0836776868 -0.876374543 -0.474305391
vn -0.674322665 -0.390306383 -0.626857162
vn 0.719884753 -0.556718171 0.414524883
vn 0.718259096 -0.37392351 -0.586758137
vn 0.511884332 -0.0629244298 0.856746674
vn -0.748618305 -0.0922424793 -0.65655309
vn -0.968705058 -0.0953622535 0.229164854
vn -0.748618305 -0.0922424793 -0.65655309
vn -0.736026287 -0.0761113837 -0.672660649
vn -0.982292712 -0.0951625407 0.161384672
vn -0.727028966 0.173010081 -0.664451838
vn -0.577795565 -0.661653519 -0.477877468
vn -0.830411553 0.421405733 -0.364463866
vn -0.948240399 0.264628708 0.175532758
vn -0.273449212 0.586610675 -0.762308002
vn -0.432218552 0.892936409 0.125903293
vn -0.339110464 0.802757025 0.490494788
vn -0.0137952548 0.710874736 -0.703183293
vn -0.727028966 0.173010081 -0.664451838
vn -0.577795565 -0.661653519 -0.477877468
vn 0.0967666656 -0.707527339 -0.700029552
vn -0.543716967 -0.208783209 0.812884569
vn 0.15469709 -0.848008275 0.506903172
vn 0.0905103832 -0.855091631 0.510515511
vn -0.018394554 -0.0171206724 0.999684215
vn 0.0905103832 -0.855091631 0.510515511
vn 0.15469709 -0.848008275 0.506903172
vn 0.511884332 -0.0629244298 0.856746674
vn -0.018394554 -0.0171206724 0.999684215
vn 0.511884332 -0.0629244298 0.856746674
vn 0.511884332 -0.0629244298 0.856746674
vn -0.018394554 -0.0171206724 0.999684215
vn -0.543716967 -0.208783209 0.812884569
vn -0.674322665 -0.390306383 -0.626857162
vn 0.0836776868 -0.876374543 -0.474305391
vn 0.718259096 -0.37392351 -0.586758137
vn -0.748618305 -0.0922424793 -0.65655309
vn 0.718259096 -0.37392351 -0.586758137
vn 0.815974414 -0.0137318969 -0.577924788
vn 0.773251653 0.122725211 -0.622109592
vn -0.736026287 -0.0761113837 -0.672660649
vn 0.683535099 0.349995583 -0.640533328
vn -0.727028966 0.173010081 -0.664451838
vn -0.273449212 0.586610675 -0.762308002
vn 0.334831774 0.657948971 -0.674530029
g blue_war_m_pve_3_boots_0
f 3/3/3 2/2/2 1/1/1
f 2/2/2 4/4/4 1/1/1
f 5/5/5 1/1/1 4/4/4
f 5/5/5 4/4/4 6/6/6
f 7/7/7 6/6/6 4/4/4
f 7/7/7 4/4/4 8/8/8
f 9/9/9 6/6/6 7/7/7
f 3/3/3 1/1/1 10/10/10
f 10/10/10 11/11/11 3/3/3
f 12/12/12 10/10/10 1/1/1
f 1/1/1 5/5/5 12/12/12
f 13/13/13 12/12/12 5/5/5
f 5/5/5 6/6/6 13/13/13
f 13/13/13 14/14/14 12/12/12
f 15/15/15 12/12/12 14/14/14
f 16/16/16 15/15/15 14/14/14
f 17/17/17 15/15/15 16/16/16
f 16/16/16 18/18/18 17/17/17
f 17/17/17 18/18/18 19/19/19
f 17/17/17 19/19/19 20/20/20
f 21/21/21 20/20/20 19/19/19
f 20/20/20 21/21/21 22/22/22
f 23/23/23 20/20/20 22/22/22
f 22/22/22 21/21/21 24/24/24
f 25/25/25 24/24/24 21/21/21
f 21/21/21 26/26/26 25/25/25
f 21/21/21 19/19/19 26/26/26
f 24/24/24 25/25/25 27/27/27
f 28/28/28 27/27/27 25/25/25
f 29/29/29 26/26/26 19/19/19
f 19/19/19 30/30/30 29/29/29
f 30/30/30 31/31/31 29/29/29
f 29/29/29 31/31/31 26/26/26
f 25/25/25 26/26/26 32/32/32
f 32/32/32 26/26/26 31/31/31
f 25/25/25 32/32/32 28/28/28
f 32/32/32 31/31/31 33/33/33
f 32/32/32 33/33/33 34/34/34
f 34/34/34 28/28/28 32/32/32
f 35/35/35 33/33/33 31/31/31
f 31/31/31 36/36/36 35/35/35
f 16/16/16 35/35/35 36/36/36
f 37/37/37 35/35/35 16/16/16
f 35/35/35 37/37/37 33/33/33
f 33/33/33 38/38/38 34/34/34
f 38/38/38 39/39/39 34/34/34
f 40/40/40 34/34/34 39/39/39
f 39/39/39 38/38/38 41/41/41
f 42/42/42 41/41/41 38/38/38
f 42/42/42 43/43/43 41/41/41
f 41/41/41 43/43/43 44/44/44
f 43/43/43 45/45/45 44/44/44
f 41/41/41 46/46/46 39/39/39
f 39/39/39 46/46/46 40/40/40
f 40/40/40 47/47/47 34/34/34
f 28/28/28 34/34/34 47/47/47
f 47/47/47 48/48/48 28/28/28
f 27/27/27 28/28/28 48/48/48
f 27/27/27 48/48/48 24/24/24
f 49/49/49 24/24/24 48/48/48
f 49/49/49 50/50/50 24/24/24
f 22/22/22 24/24/24 50/50/50
f 50/50/50 51/51/51 22/22/22
f 23/23/23 22/22/22 51/51/51
f 51/51/51 52/52/52 23/23/23
f 10/10/10 23/23/23 52/52/52
f 10/10/10 52/52/52 53/53/53
f 52/52/52 54/54/54 53/53/53
f 55/55/55 53/53/53 54/54/54
f 47/47/47 56/56/56 48/48/48
f 57/57/57 48/48/48 56/56/56
f 48/48/48 57/57/57 49/49/49
f 57/57/57 56/56/56 58/58/58
f 56/56/56 59/59/59 58/58/58
f 60/60/60 58/58/58 59/59/59
f 61/61/61 60/60/60 59/59/59
f 50/50/50 62/62/62 51/51/51
f 63/63/63 51/51/51 62/62/62
f 64/64/64 51/51/51 63/63/63
f 61/61/61 65/65/65 60/60/60
f 60/60/60 65/65/65 58/58/58
f 66/66/66 58/58/58 65/65/65
f 57/57/57 58/58/58 66/66/66
f 66/66/66 49/49/49 57/57/57
f 49/49/49 66/66/66 62/62/62
f 50/50/50 49/49/49 62/62/62
f 67/67/67 62/62/62 66/66/66
f 65/65/65 67/67/67 66/66/66
f 56/56/56 68/68/68 59/59/59
f 68/68/68 56/56/56 69/69/69
f 47/47/47 69/69/69 56/56/56
f 40/40/40 69/69/69 47/47/47
f 69/69/69 40/40/40 46/46/46
f 63/63/63 62/62/62 70/70/70
f 71/71/71 70/70/70 62/62/62
f 62/62/62 67/67/67 71/71/71
f 72/72/72 71/71/71 67/67/67
f 46/46/46 73/73/73 69/69/69
f 74/74/74 69/69/69 73/73/73
f 69/69/69 74/74/74 68/68/68
f 75/75/75 68/68/68 74/74/74
f 73/73/73 76/76/76 74/74/74
f 77/77/77 74/74/74 76/76/76
f 74/74/74 77/77/77 75/75/75
f 78/78/78 75/75/75 77/77/77
f 78/78/78 77/77/77 79/79/79
f 79/79/79 80/80/80 78/78/78
f 81/81/81 79/79/79 77/77/77
f 81/81/81 82/82/82 79/79/79
f 81/81/81 83/83/83 82/82/82
f 81/81/81 77/77/77 83/83/83
f 84/84/84 82/82/82 83/83/83
f 82/82/82 84/84/84 85/85/85
f 86/86/86 85/85/85 84/84/84
f 85/85/85 87/87/87 82/82/82
f 88/88/88 82/82/82 87/87/87
f 88/88/88 79/79/79 82/82/82
f 79/79/79 88/88/88 89/89/89
f 80/80/80 79/79/79 89/89/89
f 90/90/90 83/83/83 77/77/77
f 75/75/75 78/78/78 91/91/91
f 80/80/80 91/91/91 78/78/78
f 91/91/91 92/92/92 75/75/75
f 68/68/68 75/75/75 92/92/92
f 91/91/91 80/80/80 93/93/93
f 94/94/94 93/93/93 80/80/80
f 94/94/94 95/95/95 93/93/93
f 96/96/96 93/93/93 95/95/95
f 87/87/87 97/97/97 88/88/88
f 89/89/89 88/88/88 97/97/97
f 94/94/94 98/98/98 95/95/95
f 99/99/99 95/95/95 98/98/98
f 94/94/94 80/80/80 98/98/98
f 89/89/89 98/98/98 80/80/80
f 98/98/98 89/89/89 100/100/100
f 97/97/97 100/100/100 89/89/89
f 98/98/98 100/100/100 99/99/99
f 101/101/101 99/99/99 100/100/100
f 93/93/93 102/102/102 91/91/91
f 92/92/92 91/91/91 102/102/102
f 102/102/102 103/103/103 92/92/92
f 68/68/68 92/92/92 59/59/59
f 104/104/104 59/59/59 92/92/92
f 61/61/61 59/59/59 104/104/104
f 105/105/105 61/61/61 104/104/104
f 106/106/106 104/104/104 103/103/103
f 95/95/95 107/107/107 96/96/96
f 95/95/95 99/99/99 107/107/107
f 108/108/108 96/96/96 107/107/107
f 109/109/109 107/107/107 99/99/99
f 99/99/99 101/101/101 109/109/109
f 110/110/110 109/109/109 101/101/101
f 112/112/112 111/111/111 61/61/61
f 61/61/61 111/111/111 65/65/65
f 111/111/111 113/113/113 65/65/65
f 67/67/67 65/65/65 113/113/113
f 67/67/67 113/113/113 72/72/72
f 114/114/114 72/72/72 113/113/113
f 113/113/113 115/115/115 114/114/114
f 116/116/116 114/114/114 115/115/115
f 111/111/111 117/117/117 113/113/113
f 115/115/115 113/113/113 117/117/117
f 106/106/106 118/118/118 111/111/111
f 115/115/115 119/119/119 116/116/116
f 120/120/120 116/116/116 119/119/119
f 117/117/117 121/121/121 115/115/115
f 119/119/119 115/115/115 121/121/121
f 119/119/119 122/122/122 120/120/120
f 123/123/123 120/120/120 122/122/122
f 122/122/122 119/119/119 124/124/124
f 121/121/121 124/124/124 119/119/119
f 124/124/124 121/121/121 125/125/125
f 126/126/126 125/125/125 121/121/121
f 126/126/126 121/121/121 127/127/127
f 126/126/126 128/128/128 125/125/125
f 128/128/128 126/126/126 102/102/102
f 102/102/102 93/93/93 128/128/128
f 96/96/96 128/128/128 93/93/93
f 129/129/129 102/102/102 126/126/126
f 128/128/128 96/96/96 130/130/130
f 130/130/130 125/125/125 128/128/128
f 131/131/131 130/130/130 96/96/96
f 104/104/104 92/92/92 129/129/129
f 134/134/134 133/133/133 132/132/132
f 4/4/4 132/132/132 133/133/133
f 133/133/133 135/135/135 4/4/4
f 134/134/134 132/132/132 136/136/136
f 135/135/135 133/133/133 137/137/137
f 136/136/136 132/132/132 138/138/138
f 139/139/139 138/138/138 132/132/132
f 133/133/133 134/134/134 140/140/140
f 140/140/140 141/141/141 133/133/133
f 7/7/7 143/143/143 142/142/142
f 144/144/144 143/143/143 7/7/7
f 146/146/146 145/145/145 143/143/143
f 143/143/143 147/147/147 146/146/146
f 149/149/149 148/148/148 147/147/147
f 54/54/54 151/151/151 150/150/150
f 150/150/150 152/152/152 54/54/54
f 55/55/55 152/152/152 153/153/153
f 55/55/55 155/155/155 154/154/154
f 158/158/158 157/157/157 156/156/156
f 14/14/14 37/37/37 16/16/16
f 37/37/37 14/14/14 159/159/159
f 13/13/13 159/159/159 14/14/14
f 159/159/159 13/13/13 6/6/6
f 6/6/6 43/43/43 159/159/159
f 42/42/42 159/159/159 43/43/43
f 37/37/37 159/159/159 160/160/160
f 42/42/42 160/160/160 159/159/159
f 160/160/160 33/33/33 37/37/37
f 38/38/38 33/33/33 160/160/160
f 42/42/42 38/38/38 160/160/160
f 20/20/20 161/161/161 17/17/17
f 15/15/15 17/17/17 161/161/161
f 15/15/15 161/161/161 12/12/12
f 10/10/10 12/12/12 161/161/161
f 23/23/23 161/161/161 20/20/20
f 161/161/161 23/23/23 10/10/10
f 164/164/164 163/163/163 162/162/162
f 164/164/164 162/162/162 165/165/165
f 166/166/166 165/165/165 162/162/162
f 166/166/166 167/167/167 165/165/165
f 168/168/168 165/165/165 167/167/167
f 168/168/168 169/169/169 165/165/165
f 167/167/167 170/170/170 168/168/168
f 163/163/163 171/171/171 162/162/162
f 172/172/172 171/171/171 163/163/163
f 173/173/173 162/162/162 171/171/171
f 162/162/162 173/173/173 166/166/166
f 174/174/174 166/166/166 173/173/173
f 166/166/166 174/174/174 167/167/167
f 174/174/174 173/173/173 175/175/175
f 176/176/176 175/175/175 173/173/173
f 176/176/176 177/177/177 175/175/175
f 176/176/176 178/178/178 177/177/177
f 179/179/179 177/177/177 178/178/178
f 179/179/179 178/178/178 180/180/180
f 178/178/178 181/181/181 180/180/180
f 182/182/182 180/180/180 181/181/181
f 182/182/182 181/181/181 183/183/183
f 181/181/181 184/184/184 183/183/183
f 183/183/183 185/185/185 182/182/182
f 186/186/186 182/182/182 185/185/185
f 187/187/187 182/182/182 186/186/186
f 182/182/182 187/187/187 180/180/180
f 186/186/186 185/185/185 188/188/188
f 188/188/188 189/189/189 186/186/186
f 190/190/190 180/180/180 187/187/187
f 191/191/191 180/180/180 190/190/190
f 192/192/192 191/191/191 190/190/190
f 190/190/190 187/187/187 192/192/192
f 187/187/187 186/186/186 193/193/193
f 193/193/193 192/192/192 187/187/187
f 186/186/186 189/189/189 193/193/193
f 193/193/193 194/194/194 192/192/192
f 194/194/194 193/193/193 195/195/195
f 195/195/195 193/193/193 189/189/189
f 196/196/196 192/192/192 194/194/194
f 197/197/197 192/192/192 196/196/196
f 196/196/196 177/177/177 197/197/197
f 196/196/196 198/198/198 177/177/177
f 196/196/196 194/194/194 198/198/198
f 199/199/199 194/194/194 195/195/195
f 199/199/199 195/195/195 200/200/200
f 201/201/201 200/200/200 195/195/195
f 200/200/200 202/202/202 199/199/199
f 203/203/203 199/199/199 202/202/202
f 204/204/204 203/203/203 202/202/202
f 204/204/204 202/202/202 205/205/205
f 204/204/204 205/205/205 206/206/206
f 207/207/207 202/202/202 200/200/200
f 200/200/200 201/201/201 207/207/207
f 201/201/201 195/195/195 208/208/208
f 189/189/189 208/208/208 195/195/195
f 208/208/208 189/189/189 209/209/209
f 188/188/188 209/209/209 189/189/189
f 188/188/188 185/185/185 209/209/209
f 210/210/210 209/209/209 185/185/185
f 210/210/210 185/185/185 211/211/211
f 183/183/183 211/211/211 185/185/185
f 211/211/211 183/183/183 212/212/212
f 184/184/184 212/212/212 183/183/183
f 212/212/212 184/184/184 213/213/213
f 171/171/171 213/213/213 184/184/184
f 213/213/213 171/171/171 214/214/214
f 215/215/215 213/213/213 214/214/214
f 214/214/214 216/216/216 215/215/215
f 208/208/208 209/209/209 217/217/217
f 218/218/218 217/217/217 209/209/209
f 209/209/209 210/210/210 218/218/218
f 217/217/217 218/218/218 219/219/219
f 217/217/217 219/219/219 220/220/220
f 221/221/221 220/220/220 219/219/219
f 221/221/221 222/222/222 220/220/220
f 211/211/211 212/212/212 223/223/223
f 224/224/224 223/223/223 212/212/212
f 212/212/212 225/225/225 224/224/224
f 226/226/226 222/222/222 221/221/221
f 221/221/221 219/219/219 226/226/226
f 227/227/227 226/226/226 219/219/219
f 219/219/219 218/218/218 227/227/227
f 227/227/227 218/218/218 210/210/210
f 210/210/210 223/223/223 227/227/227
f 210/210/210 211/211/211 223/223/223
f 228/228/228 227/227/227 223/223/223
f 228/228/228 226/226/226 227/227/227
f 229/229/229 217/217/217 220/220/220
f 229/229/229 230/230/230 217/217/217
f 208/208/208 217/217/217 230/230/230
f 230/230/230 201/201/201 208/208/208
f 230/230/230 207/207/207 201/201/201
f 224/224/224 231/231/231 223/223/223
f 232/232/232 223/223/223 231/231/231
f 223/223/223 232/232/232 228/228/228
f 233/233/233 228/228/228 232/232/232
f 207/207/207 230/230/230 234/234/234
f 235/235/235 234/234/234 230/230/230
f 230/230/230 229/229/229 235/235/235
f 236/236/236 235/235/235 229/229/229
f 234/234/234 235/235/235 237/237/237
f 238/238/238 237/237/237 235/235/235
f 235/235/235 236/236/236 238/238/238
f 239/239/239 238/238/238 236/236/236
f 239/239/239 240/240/240 238/238/238
f 241/241/241 240/240/240 239/239/239
f 242/242/242 238/238/238 240/240/240
f 242/242/242 240/240/240 243/243/243
f 242/242/242 243/243/243 244/244/244
f 242/242/242 244/244/244 238/238/238
f 245/245/245 244/244/244 243/243/243
f 243/243/243 246/246/246 245/245/245
f 247/247/247 245/245/245 246/246/246
f 246/246/246 243/243/243 248/248/248
f 249/249/249 248/248/248 243/243/243
f 249/249/249 243/243/243 240/240/240
f 249/249/249 240/240/240 250/250/250
f 240/240/240 241/241/241 250/250/250
f 251/251/251 238/238/238 244/244/244
f 241/241/241 239/239/239 252/252/252
f 236/236/236 252/252/252 239/239/239
f 252/252/252 236/236/236 253/253/253
f 229/229/229 253/253/253 236/236/236
f 252/252/252 254/254/254 241/241/241
f 255/255/255 241/241/241 254/254/254
f 255/255/255 254/254/254 256/256/256
f 257/257/257 256/256/256 254/254/254
f 250/250/250 258/258/258 249/249/249
f 248/248/248 249/249/249 258/258/258
f 255/255/255 256/256/256 259/259/259
f 260/260/260 259/259/259 256/256/256
f 250/250/250 241/241/241 259/259/259
f 255/255/255 259/259/259 241/241/241
f 258/258/258 250/250/250 261/261/261
f 259/259/259 261/261/261 250/250/250
f 259/259/259 260/260/260 261/261/261
f 262/262/262 261/261/261 260/260/260
f 253/253/253 263/263/263 252/252/252
f 254/254/254 252/252/252 263/263/263
f 263/263/263 253/253/253 264/264/264
f 229/229/229 220/220/220 253/253/253
f 265/265/265 253/253/253 220/220/220
f 220/220/220 222/222/222 265/265/265
f 222/222/222 266/266/266 265/265/265
f 265/265/265 267/267/267 264/264/264
f 256/256/256 257/257/257 268/268/268
f 256/256/256 268/268/268 260/260/260
f 269/269/269 268/268/268 257/257/257
f 270/270/270 260/260/260 268/268/268
f 260/260/260 270/270/270 262/262/262
f 271/271/271 262/262/262 270/270/270
f 273/273/273 272/272/272 222/222/222
f 273/273/273 222/222/222 226/226/226
f 273/273/273 226/226/226 274/274/274
f 228/228/228 274/274/274 226/226/226
f 228/228/228 233/233/233 274/274/274
f 275/275/275 274/274/274 233/233/233
f 274/274/274 275/275/275 276/276/276
f 277/277/277 276/276/276 275/275/275
f 276/276/276 278/278/278 274/274/274
f 273/273/273 274/274/274 278/278/278
f 279/279/279 267/267/267 273/273/273
f 276/276/276 277/277/277 280/280/280
f 281/281/281 280/280/280 277/277/277
f 280/280/280 282/282/282 276/276/276
f 278/278/278 276/276/276 282/282/282
f 280/280/280 281/281/281 283/283/283
f 284/284/284 283/283/283 281/281/281
f 282/282/282 280/280/280 285/285/285
f 283/283/283 285/285/285 280/280/280
f 285/285/285 286/286/286 282/282/282
f 287/287/287 282/282/282 286/286/286
f 282/282/282 287/287/287 288/288/288
f 287/287/287 286/286/286 289/289/289
f 289/289/289 263/263/263 287/287/287
f 263/263/263 289/289/289 254/254/254
f 257/257/257 254/254/254 289/289/289
f 290/290/290 287/287/287 263/263/263
f 289/289/289 291/291/291 257/257/257
f 291/291/291 289/289/289 286/286/286
f 292/292/292 257/257/257 291/291/291
f 265/265/265 290/290/290 253/253/253
f 165/165/165 294/294/294 293/293/293
f 295/295/295 293/293/293 294/294/294
f 294/294/294 165/165/165 296/296/296
f 293/293/293 295/295/295 297/297/297
f 294/294/294 296/296/296 298/298/298
f 297/297/297 299/299/299 293/293/293
f 300/300/300 293/293/293 299/299/299
f 295/295/295 294/294/294 301/301/301
f 302/302/302 301/301/301 294/294/294
f 304/304/304 168/168/168 303/303/303
f 304/304/304 305/305/305 168/168/168
f 307/307/307 304/304/304 306/306/306
f 304/304/304 309/309/309 308/308/308
f 310/310/310 308/308/308 309/309/309
f 312/312/312 215/215/215 311/311/311
f 311/311/311 215/215/215 313/313/313
f 216/216/216 314/314/314 313/313/313
f 216/216/216 316/316/316 315/315/315
f 319/319/319 318/318/318 317/317/317
f 198/198/198 175/175/175 177/177/177
f 198/198/198 320/320/320 175/175/175
f 174/174/174 175/175/175 320/320/320
f 320/320/320 167/167/167 174/174/174
f 167/167/167 320/320/320 204/204/204
f 203/203/203 204/204/204 320/320/320
f 203/203/203 320/320/320 321/321/321
f 198/198/198 321/321/321 320/320/320
f 321/321/321 198/198/198 194/194/194
f 194/194/194 199/199/199 321/321/321
f 199/199/199 203/203/203 321/321/321
f 176/176/176 322/322/322 178/178/178
f 181/181/181 178/178/178 322/322/322
f 176/176/176 173/173/173 322/322/322
f 171/171/171 322/322/322 173/173/173
f 322/322/322 184/184/184 181/181/181
f 184/184/184 322/322/322 171/171/171
f 325/325/325 324/324/324 323/323/323
f 326/326/326 323/323/323 324/324/324
f 326/326/326 324/324/324 327/327/327
f 328/328/328 327/327/327 324/324/324
f 327/327/327 328/328/328 329/329/329
f 330/330/330 329/329/329 328/328/328
f 326/326/326 332/332/332 331/331/331
f 333/333/333 331/331/331 332/332/332
f 331/331/331 333/333/333 334/334/334
f 335/335/335 334/334/334 333/333/333
f 332/332/332 326/326/326 336/336/336
f 337/337/337 336/336/336 326/326/326
f 337/337/337 338/338/338 336/336/336
f 339/339/339 336/336/336 338/338/338
f 339/339/339 338/338/338 340/340/340
f 341/341/341 340/340/340 338/338/338
f 340/340/340 341/341/341 342/342/342
f 343/343/343 342/342/342 341/341/341
f 335/335/335 344/344/344 334/334/334
f 334/334/334 344/344/344 345/345/345
f 346/346/346 345/345/345 344/344/344
f 345/345/345 346/346/346 347/347/347
f 348/348/348 347/347/347 346/346/346
f 347/347/347 348/348/348 349/349/349
f 350/350/350 342/342/342 349/349/349
f 350/350/350 349/349/349 348/348/348
f 353/353/353 352/352/352 351/351/351
f 352/352/352 354/354/354 351/351/351
f 355/355/355 351/351/351 354/354/354
f 353/353/353 351/351/351 356/356/356
f 357/357/357 356/356/356 351/351/351
f 357/357/357 358/358/358 356/356/356
f 359/359/359 356/356/356 358/358/358
f 358/358/358 360/360/360 359/359/359
f 361/361/361 359/359/359 360/360/360
f 362/362/362 361/361/361 360/360/360
f 364/364/364 363/363/363 360/360/360
f 363/363/363 364/364/364 354/354/354
f 365/365/365 354/354/354 364/364/364
f 362/362/362 367/367/367 366/366/366
f 370/370/370 369/369/369 368/368/368
f 369/369/369 370/370/370 371/371/371
f 369/369/369 371/371/371 372/372/372
f 373/373/373 369/369/369 372/372/372
f 374/374/374 372/372/372 371/371/371
f 375/375/375 371/371/371 370/370/370
f 375/375/375 376/376/376 371/371/371
f 377/377/377 371/371/371 376/376/376
f 371/371/371 377/377/377 374/374/374
f 378/378/378 374/374/374 377/377/377
f 374/374/374 378/378/378 379/379/379
f 372/372/372 374/374/374 380/380/380
f 379/379/379 380/380/380 374/374/374
f 378/378/378 381/381/381 379/379/379
f 379/379/379 381/381/381 380/380/380
f 382/382/382 380/380/380 381/381/381
f 381/381/381 383/383/383 382/382/382
f 384/384/384 382/382/382 383/383/383
f 383/383/383 385/385/385 384/384/384
f 382/382/382 384/384/384 386/386/386
f 384/384/384 387/387/387 386/386/386
f 372/372/372 380/380/380 388/388/388
f 386/386/386 388/388/388 382/382/382
f 380/380/380 382/382/382 388/388/388
f 388/388/388 386/386/386 389/389/389
f 390/390/390 388/388/388 389/389/389
f 391/391/391 389/389/389 386/386/386
f 391/391/391 386/386/386 392/392/392
f 393/393/393 391/391/391 392/392/392
f 391/391/391 393/393/393 394/394/394
f 391/391/391 394/394/394 389/389/389
f 395/395/395 394/394/394 393/393/393
f 395/395/395 393/393/393 396/396/396
f 397/397/397 396/396/396 393/393/393
f 397/397/397 398/398/398 396/396/396
f 399/399/399 396/396/396 398/398/398
f 396/396/396 399/399/399 395/395/395
f 397/397/397 400/400/400 398/398/398
f 401/401/401 398/398/398 400/400/400
f 397/397/397 402/402/402 400/400/400
f 384/384/384 400/400/400 402/402/402
f 400/400/400 384/384/384 401/401/401
f 403/403/403 395/395/395 399/399/399
f 395/395/395 404/404/404 394/394/394
f 395/395/395 405/405/405 404/404/404
f 406/406/406 404/404/404 405/405/405
f 407/407/407 404/404/404 406/406/406
f 406/406/406 408/408/408 407/407/407
f 394/394/394 404/404/404 409/409/409
f 407/407/407 410/410/410 404/404/404
f 411/411/411 410/410/410 407/407/407
f 411/411/411 407/407/407 412/412/412
f 408/408/408 413/413/413 412/412/412
f 414/414/414 412/412/412 413/413/413
f 414/414/414 415/415/415 412/412/412
f 411/411/411 412/412/412 415/415/415
f 416/416/416 411/411/411 415/415/415
f 412/412/412 407/407/407 417/417/417
f 409/409/409 389/389/389 394/394/394
f 418/418/418 389/389/389 409/409/409
f 421/421/421 420/420/420 419/419/419
f 422/422/422 421/421/421 419/419/419
f 425/425/425 424/424/424 423/423/423
f 427/427/427 426/426/426 425/425/425
f 430/430/430 429/429/429 428/428/428
f 433/433/433 432/432/432 431/431/431
f 431/431/431 432/432/432 434/434/434
f 436/436/436 434/434/434 435/435/435
f 436/436/436 437/437/437 434/434/434
f 438/438/438 434/434/434 437/437/437
f 437/437/437 439/439/439 438/438/438
f 440/440/440 438/438/438 439/439/439
f 440/440/440 439/439/439 441/441/441
f 442/442/442 441/441/441 439/439/439
f 445/445/445 444/444/444 443/443/443
f 443/443/443 446/446/446 445/445/445
f 446/446/446 447/447/447 445/445/445
f 447/447/447 446/446/446 448/448/448
f 447/447/447 448/448/448 449/449/449
f 450/450/450 449/449/449 448/448/448
f 450/450/450 451/451/451 449/449/449
f 452/452/452 449/449/449 451/451/451
f 451/451/451 453/453/453 452/452/452
f 454/454/454 452/452/452 453/453/453
f 455/455/455 448/448/448 446/446/446
f 446/446/446 456/456/456 455/455/455
f 457/457/457 455/455/455 456/456/456
f 456/456/456 458/458/458 457/457/457
f 459/459/459 457/457/457 458/458/458
f 460/460/460 459/459/459 458/458/458
f 458/458/458 461/461/461 460/460/460
f 462/462/462 460/460/460 461/461/461
f 461/461/461 463/463/463 462/462/462
f 464/464/464 462/462/462 463/463/463
f 463/463/463 465/465/465 464/464/464
f 453/453/453 466/466/466 465/465/465
f 466/466/466 464/464/464 465/465/465
f 469/469/469 468/468/468 467/467/467
f 467/467/467 447/447/447 469/469/469
f 467/467/467 445/445/445 447/447/447
f 472/472/472 471/471/471 470/470/470
f 472/472/472 470/470/470 473/473/473
f 474/474/474 473/473/473 470/470/470
f 471/471/471 475/475/475 470/470/470
f 476/476/476 470/470/470 475/475/475
f 476/476/476 478/478/478 477/477/477
f 479/479/479 477/477/477 478/478/478
f 477/477/477 479/479/479 480/480/480
f 481/481/481 480/480/480 479/479/479
f 481/481/481 482/482/482 480/480/480
f 482/482/482 484/484/484 483/483/483
f 485/485/485 480/480/480 484/484/484
f 484/484/484 486/486/486 485/485/485
f 487/487/487 485/485/485 486/486/486
f 490/490/490 489/489/489 488/488/488
f 490/490/490 491/491/491 489/489/489
f 490/490/490 492/492/492 491/491/491
f 490/490/490 493/493/493 492/492/492
f 494/494/494 491/491/491 492/492/492
f 495/495/495 489/489/489 491/491/491
f 495/495/495 491/491/491 496/496/496
f 497/497/497 496/496/496 491/491/491
f 491/491/491 494/494/494 497/497/497
f 498/498/498 497/497/497 494/494/494
f 498/498/498 494/494/494 499/499/499
f 499/499/499 494/494/494 500/500/500
f 492/492/492 500/500/500 494/494/494
f 501/501/501 498/498/498 499/499/499
f 499/499/499 500/500/500 501/501/501
f 502/502/502 501/501/501 500/500/500
f 501/501/501 502/502/502 503/503/503
f 504/504/504 503/503/503 502/502/502
f 503/503/503 504/504/504 505/505/505
f 504/504/504 502/502/502 506/506/506
f 504/504/504 506/506/506 507/507/507
f 500/500/500 492/492/492 508/508/508
f 500/500/500 508/508/508 502/502/502
f 506/506/506 502/502/502 508/508/508
f 508/508/508 509/509/509 506/506/506
f 508/508/508 510/510/510 509/509/509
f 511/511/511 506/506/506 509/509/509
f 511/511/511 512/512/512 506/506/506
f 511/511/511 513/513/513 512/512/512
f 511/511/511 514/514/514 513/513/513
f 511/511/511 509/509/509 514/514/514
f 515/515/515 513/513/513 514/514/514
f 515/515/515 516/516/516 513/513/513
f 517/517/517 513/513/513 516/516/516
f 517/517/517 516/516/516 518/518/518
f 519/519/519 518/518/518 516/516/516
f 516/516/516 515/515/515 519/519/519
f 517/517/517 518/518/518 520/520/520
f 521/521/521 520/520/520 518/518/518
f 517/517/517 520/520/520 522/522/522
f 504/504/504 522/522/522 520/520/520
f 520/520/520 521/521/521 504/504/504
f 523/523/523 519/519/519 515/515/515
f 524/524/524 515/515/515 514/514/514
f 515/515/515 524/524/524 525/525/525
f 526/526/526 525/525/525 524/524/524
f 524/524/524 527/527/527 526/526/526
f 526/526/526 527/527/527 528/528/528
f 527/527/527 524/524/524 529/529/529
f 529/529/529 530/530/530 527/527/527
f 527/527/527 530/530/530 531/531/531
f 528/528/528 531/531/531 532/532/532
f 533/533/533 532/532/532 531/531/531
f 530/530/530 534/534/534 531/531/531
f 533/533/533 531/531/531 534/534/534
f 530/530/530 535/535/535 534/534/534
f 531/531/531 536/536/536 527/527/527
f 514/514/514 537/537/537 524/524/524
f 537/537/537 514/514/514 509/509/509
f 509/509/509 538/538/538 537/537/537
f 541/541/541 540/540/540 539/539/539
f 540/540/540 542/542/542 539/539/539
f 545/545/545 544/544/544 543/543/543
f 547/547/547 546/546/546 544/544/544
f 550/550/550 549/549/549 548/548/548
f 553/553/553 552/552/552 551/551/551
f 551/551/551 554/554/554 553/553/553
f 556/556/556 555/555/555 554/554/554
f 556/556/556 554/554/554 557/557/557
f 558/558/558 557/557/557 554/554/554
f 557/557/557 558/558/558 559/559/559
f 560/560/560 559/559/559 558/558/558
f 560/560/560 561/561/561 559/559/559
f 562/562/562 559/559/559 561/561/561
