g blue_war_f_pve_3_belt
v -0.107105292 -0.145131424 1.15682268
v -0.149034694 -0.117267571 1.17467225
v -0.10532663 -0.144007042 1.17030907
v -0.152873039 -0.117610782 1.16154099
v -0.122914083 -0.139606953 1.1396991
v -0.145271018 -0.124665618 1.14162815
v -0.113344163 -0.1235587 1.1371001
v -0.136225045 -0.108941585 1.13993585
v -0.104820557 -0.142072231 1.15634537
v -0.101542607 -0.135503784 1.15413535
v -0.0585334189 -0.155576423 1.15302122
v -0.0545880981 -0.147643059 1.15197206
v -0.134848475 -0.123094201 1.18849146
v -0.114745274 -0.136185095 1.18688357
v -0.151162222 -0.114261903 1.16183257
v -0.147564322 -0.108091153 1.15946245
v -0.147564322 -0.108091153 1.15946245
v -0.146717444 -0.112885505 1.17461216
v -0.186433509 -0.0706069916 1.16985118
v -0.180471167 -0.0680865049 1.16671169
v -0.191104636 -0.0225623194 1.17488837
v -0.196986541 -0.0229443088 1.17848933
v -0.187080756 0.0236081183 1.18713987
v -0.181845427 0.0222661588 1.1829592
v -0.16008687 0.0563229173 1.18944693
v -0.163955316 0.059997499 1.19343972
v -0.161073685 0.0780651718 1.17641115
v -0.166233405 0.0626950264 1.19391084
v -0.13982375 0.0972225815 1.18054581
v -0.150461331 0.0675545335 1.17112827
v -0.125801802 0.0983851701 1.20268881
v -0.160779402 0.0598036163 1.20836544
v -0.125870526 0.0919137374 1.21509528
v -0.147983193 0.0656574816 1.2222687
v -0.133064657 0.0786684602 1.22467649
v -0.141317576 0.0585306995 1.21902788
v -0.125869542 0.0726294965 1.2212913
v -0.121944942 0.0947152153 1.20047998
v -0.118240327 0.0907799974 1.19644904
v -0.128585711 0.0872735381 1.17616701
v -0.150461331 0.0675545335 1.17112827
v -0.120148629 0.0871762931 1.21178269
v -0.070187971 0.114713177 1.20509553
v -0.069440119 0.109875746 1.20107722
v -0 0.120423608 1.2065326
v -0.0338546894 0.0726997629 1.3006047
v -0.0681060702 0.0665152073 1.29199076
v -0 0.071299471 1.31224322
v -0.0340239666 0.0661500692 1.29971397
v -0 0.0651585832 1.31238413
v -0 0.071299471 1.31224322
v -0.0657181516 0.0598473884 1.29191661
v -0 0.115152806 1.20181131
v -0.10350126 0.0431790575 1.28633738
v -0.0990784466 0.038672097 1.28622866
v -0.12532717 0.00607485976 1.27987802
v -0.130887136 0.00916029979 1.27978504
v -0.15771769 0.0553329885 1.20513654
v -0.136916876 -0.0307659507 1.27388
v -0.144136354 -0.0299118087 1.27316976
v -0.134533405 -0.0606074706 1.27244639
v -0.140360445 -0.0629350394 1.27173054
v -0.123031944 -0.0953999385 1.27405024
v -0.117852062 -0.0915553868 1.2749989
v -0.132087857 -0.116706289 1.18745506
v -0.0813552067 -0.134257406 1.25466692
v -0.109745204 -0.129279077 1.18642592
v -0.0782137439 -0.128215939 1.2566427
v -0.0592241623 -0.14567636 1.18075252
v -0.102386624 -0.140226007 1.16962385
v -0.0588718504 -0.146615669 1.17309272
v -0.0520771481 -0.145207986 1.20205641
v -0.0585334189 -0.155576423 1.15302122
v -0.0479715988 -0.146610051 1.2570821
v -0.0466527231 -0.140109777 1.25900948
v -0.0423625261 -0.146057799 1.21550119
v -0.0151223298 -0.14826569 1.23008776
v -0 -0.153632641 1.26828694
v -0 -0.147012904 1.27051342
v -0.00692324992 -0.155341387 1.25425875
v -0.10532663 -0.144007042 1.17030907
v -0.107105292 -0.145131424 1.15682268
v -0.00692324992 -0.155341387 1.25425875
v -0 -0.153632641 1.26828694
v -0 -0.155364454 1.25917017
v -0.00692324992 -0.155341387 1.25425875
v -0.125801802 0.0983851701 1.20268881
v -0.13982375 0.0972225815 1.18054581
v -0.16008687 0.0563229173 1.18944693
v -0.150461331 0.0675545335 1.17112827
v 0.107105292 -0.145131424 1.15682268
v 0.149034694 -0.117267571 1.17467225
v 0.152873039 -0.117610782 1.16154099
v 0.10532663 -0.144007042 1.17030907
v 0.122914083 -0.139606953 1.1396991
v 0.145271018 -0.124665618 1.14162815
v 0.113344163 -0.1235587 1.1371001
v 0.136225045 -0.108941585 1.13993585
v 0.104820557 -0.142072231 1.15634537
v 0.101542607 -0.135503784 1.15413535
v 0.0585334189 -0.155576423 1.15302122
v 0.0545880981 -0.147643059 1.15197206
v 0.134848475 -0.123094201 1.18849146
v 0.114745274 -0.136185095 1.18688357
v 0.151162222 -0.114261903 1.16183257
v 0.147564322 -0.108091153 1.15946245
v 0.147564322 -0.108091153 1.15946245
v 0.146717444 -0.112885505 1.17461216
v 0.186433509 -0.0706069916 1.16985118
v 0.180471167 -0.0680865049 1.16671169
v 0.191104636 -0.0225623194 1.17488837
v 0.196986541 -0.0229443088 1.17848933
v 0.187080756 0.0236081183 1.18713987
v 0.181845427 0.0222661588 1.1829592
v 0.16008687 0.0563229173 1.18944693
v 0.163955316 0.059997499 1.19343972
v 0.161073685 0.0780651718 1.17641115
v 0.166233405 0.0626950264 1.19391084
v 0.13982375 0.0972225815 1.18054581
v 0.150461331 0.0675545335 1.17112827
v 0.125801802 0.0983851701 1.20268881
v 0.160779402 0.0598036163 1.20836544
v 0.125870526 0.0919137374 1.21509528
v 0.147983193 0.0656574816 1.2222687
v 0.133064657 0.0786684602 1.22467649
v 0.141317576 0.0585306995 1.21902788
v 0.125869542 0.0726294965 1.2212913
v 0.121944942 0.0947152153 1.20047998
v 0.118240327 0.0907799974 1.19644904
v 0.128585711 0.0872735381 1.17616701
v 0.150461331 0.0675545335 1.17112827
v 0.120148629 0.0871762931 1.21178269
v 0.070187971 0.114713177 1.20509553
v 0.069440119 0.109875746 1.20107722
v -0 0.120423608 1.2065326
v 0.0338546894 0.0726997629 1.3006047
v 0.0681060702 0.0665152073 1.29199076
v -0 0.071299471 1.31224322
v 0.0340239666 0.0661500692 1.29971397
v -0 0.0651585832 1.31238413
v -0 0.071299471 1.31224322
v 0.0657181516 0.0598473884 1.29191661
v -0 0.115152806 1.20181131
v 0.10350126 0.0431790575 1.28633738
v 0.0990784466 0.038672097 1.28622866
v 0.12532717 0.00607485976 1.27987802
v 0.130887136 0.00916029979 1.27978504
v 0.15771769 0.0553329885 1.20513654
v 0.136916876 -0.0307659507 1.27388
v 0.144136354 -0.0299118087 1.27316976
v 0.134533405 -0.0606074706 1.27244639
v 0.140360445 -0.0629350394 1.27173054
v 0.123031944 -0.0953999385 1.27405024
v 0.117852062 -0.0915553868 1.2749989
v 0.132087857 -0.116706289 1.18745506
v 0.0813552067 -0.134257406 1.25466692
v 0.109745204 -0.129279077 1.18642592
v 0.0782137439 -0.128215939 1.2566427
v 0.0592241623 -0.14567636 1.18075252
v 0.102386624 -0.140226007 1.16962385
v 0.0588718504 -0.146615669 1.17309272
v 0.0520771481 -0.145207986 1.20205641
v 0.0479715988 -0.146610051 1.2570821
v 0.0466527231 -0.140109777 1.25900948
v 0.0423625261 -0.146057799 1.21550119
v 0.0151223298 -0.14826569 1.23008776
v -0 -0.153632641 1.26828694
v -0 -0.147012904 1.27051342
v 0.00692324992 -0.155341387 1.25425875
v 0.10532663 -0.144007042 1.17030907
v 0.107105292 -0.145131424 1.15682268
v 0.00692324992 -0.155341387 1.25425875
v -0 -0.153632641 1.26828694
v 0.00692324992 -0.155341387 1.25425875
v -0 -0.155364454 1.25917017
v 0.125801802 0.0983851701 1.20268881
v 0.13982375 0.0972225815 1.18054581
v 0.16008687 0.0563229173 1.18944693
v 0.150461331 0.0675545335 1.17112827
v -0.00841409992 -0.192836106 1.17972136
v -0.0105445301 -0.195082888 1.18577015
v -0 -0.191355586 1.17862558
v -0.00338222994 -0.194332898 1.21160507
v -0 -0.193865046 1.21240997
v -0 -0.180901051 1.17765749
v -0.00875267014 -0.17899242 1.17780328
v -0.0103394128 -0.195036307 1.17528272
v 0.00338222994 -0.194332898 1.21160507
v 0.0105445301 -0.195082888 1.18577015
v 0.00841409992 -0.192836106 1.17972136
v 0.00875267014 -0.17899242 1.17780328
v 0.0103394128 -0.195036307 1.17528272
v -0.00874933973 -0.175333261 1.16448665
v -0.00875267014 -0.17899242 1.17780328
v -0.0103394128 -0.195036307 1.17528272
v -0.0105763599 -0.188187316 1.16490352
v -0.0103394128 -0.195036307 1.17528272
v 0.00874933973 -0.175333261 1.16448665
v 0.00875267014 -0.17899242 1.17780328
v 0.0103394128 -0.195036307 1.17528272
v 0.0105763599 -0.188187316 1.16490352
v 0.0103394128 -0.195036307 1.17528272
v -0.00893019978 -0.177269131 1.19167161
v -0.00338222994 -0.194332898 1.21160507
v -0.0105445301 -0.195082888 1.18577015
v -0.00291456981 -0.181525677 1.21475613
v -0 -0.193865046 1.21240997
v -0 -0.181249857 1.21472788
v -0.00338222994 -0.194332898 1.21160507
v -0 -0.175393105 1.1999948
v -0.00893019978 -0.177269131 1.19167161
v -0.00291456981 -0.181525677 1.21475613
v -0 -0.181249857 1.21472788
v -0 -0.165896177 1.27269089
v -0.0146477493 -0.169951186 1.2670002
v -0.00849942025 -0.162787333 1.26811731
v -0 -0.178528786 1.27383733
v -0.0126786195 -0.186882734 1.26154256
v -0 -0.192907289 1.26440275
v 0.0146477493 -0.169951186 1.2670002
v 0.00849942025 -0.162787333 1.26811731
v 0.0126786195 -0.186882734 1.26154256
v -0.0109887691 -0.194700733 1.25365412
v -0 -0.198519364 1.25458562
v -0.0126786195 -0.186882734 1.26154256
v -0 -0.195919126 1.23937619
v -0.0119600398 -0.190207317 1.24229527
v -0.0172786098 -0.17714864 1.24766076
v -0.0124033401 -0.185688168 1.23369086
v -0.0126786195 -0.186882734 1.26154256
v -0 -0.192111209 1.22875595
v -0.00483408011 -0.183189899 1.21907735
v -0 -0.184178278 1.21913218
v -0.00470090983 -0.179395214 1.21794975
v -0 -0.177822515 1.21733963
v -0.00900956988 -0.175777808 1.22225726
v -0 -0.171144918 1.22473729
v -0.0142859798 -0.172847599 1.23052013
v -0.0164059605 -0.164488003 1.25237715
v -0.0146477493 -0.169951186 1.2670002
v -0.0126786195 -0.186882734 1.26154256
v -0.013673069 -0.158568174 1.23783946
v -0 -0.171144918 1.22473729
v -0.00849942025 -0.162787333 1.26811731
v -0.00692324992 -0.155341387 1.25425875
v -0.013673069 -0.158568174 1.23783946
v 0.00483408011 -0.183189899 1.21907735
v 0.00470090983 -0.179395214 1.21794975
v 0.00900956988 -0.175777808 1.22225726
v -0 -0.171144918 1.22473729
v 0.0124033401 -0.185688168 1.23369086
v 0.0119600398 -0.190207317 1.24229527
v 0.0109887691 -0.194700733 1.25365412
v 0.0126786195 -0.186882734 1.26154256
v 0.0172786098 -0.17714864 1.24766076
v 0.0126786195 -0.186882734 1.26154256
v 0.0142859798 -0.172847599 1.23052013
v 0.0164059605 -0.164488003 1.25237715
v 0.0146477493 -0.169951186 1.2670002
v 0.0126786195 -0.186882734 1.26154256
v 0.0136695188 -0.158571437 1.237836
v 0.00849942025 -0.162787333 1.26811731
v 0.00692324992 -0.155341387 1.25425875
v 0.0136695188 -0.158571437 1.237836
v -0 -0.171144918 1.22473729
v -0 -0.155364454 1.25917017
v -0 -0.165896177 1.27269089
v 0.00692324992 -0.155341387 1.25425875
v -0 -0.169125751 1.21890604
v -0.013673069 -0.158568174 1.23783946
v -0 -0.171144918 1.22473729
v -0.0157327987 -0.155632034 1.22951281
v -0.016484065 -0.168146938 1.2148751
v -0 -0.175393105 1.1999948
v -0.00893019978 -0.177269131 1.19167161
v -0.0461208671 -0.164224163 1.20535624
v -0.0512827113 -0.169068277 1.1940316
v -0.0435523503 -0.155299827 1.21567667
v -0.0551050045 -0.154629022 1.20356667
v -0.0682118312 -0.157224715 1.18583632
v -0.0618168376 -0.17363064 1.18866432
v -0.0656239688 -0.173814371 1.17997372
v -0.0697542205 -0.160322696 1.1775564
v -0.0650127605 -0.166381702 1.1686933
v -0.0515194163 -0.184731781 1.18783629
v -0.0105445301 -0.195082888 1.18577015
v -0.0570932142 -0.181168303 1.17338026
v -0.0694960654 -0.162857592 1.14657128
v -0.0508154184 -0.176679492 1.1703223
v -0.0103394128 -0.195036307 1.17528272
v -0.0105763599 -0.188187316 1.16490352
v -0.00874933973 -0.175333261 1.16448665
v -0.0366259776 -0.166270629 1.16751099
v -0.0602252707 -0.170030177 1.14335716
v -0 -0.167172462 1.10954416
v -0 -0.180901051 1.17765749
v -0.050864201 -0.158925608 1.08673573
v -0 -0.160581931 1.05815852
v -0.0276305508 -0.161111072 1.05056071
v -0 -0.168572158 1.03129244
v -0.0331966206 -0.153669953 1.03948426
v -0 -0.164535895 1.01324654
v -0 -0.161635742 1.01226449
v -0.0284615792 -0.146081999 1.0400368
v -0.0595061183 -0.150191084 1.08301365
v -0.0468701459 -0.13847445 1.08641183
v -0.0331966206 -0.153669953 1.03948426
v -0.0694960654 -0.162857592 1.14657128
v -0.0694960654 -0.162857592 1.14657128
v -0.0545880981 -0.147643059 1.15197206
v -0.0585334189 -0.155576423 1.15302122
v -0.0650127605 -0.166381702 1.1686933
v 0.0276305508 -0.161111072 1.05056071
v 0.050864201 -0.158925608 1.08673573
v 0.0602252707 -0.170030177 1.14335716
v 0.00874933973 -0.175333261 1.16448665
v 0.0366259776 -0.166270629 1.16751099
v 0.0508154184 -0.176679492 1.1703223
v 0.0595061183 -0.150191084 1.08301365
v 0.0331966206 -0.153669953 1.03948426
v -0 -0.161635742 1.01226449
v 0.0284615792 -0.146081999 1.0400368
v 0.0468701459 -0.13847445 1.08641183
v 0.0331966206 -0.153669953 1.03948426
v 0.0694960654 -0.162857592 1.14657128
v 0.0570932142 -0.181168303 1.17338026
v 0.0515194163 -0.184731781 1.18783629
v 0.0618168376 -0.17363064 1.18866432
v 0.0512827113 -0.169068277 1.1940316
v 0.0682118312 -0.157224715 1.18583632
v 0.0551050045 -0.154629022 1.20356667
v 0.0461208671 -0.164224163 1.20535624
v 0.00893019978 -0.177269131 1.19167161
v 0.016484065 -0.168146938 1.2148751
v 0.0157327987 -0.155632034 1.22951281
v 0.0136695188 -0.158571437 1.237836
v -0 -0.171144918 1.22473729
v 0.0435523503 -0.155299827 1.21567667
v 0.0656239688 -0.173814371 1.17997372
v 0.0697542205 -0.160322696 1.1775564
v 0.0650127605 -0.166381702 1.1686933
v 0.0105445301 -0.195082888 1.18577015
v 0.0103394128 -0.195036307 1.17528272
v 0.0105763599 -0.188187316 1.16490352
v 0.0151223298 -0.14826569 1.23008776
v 0.0423625261 -0.146057799 1.21550119
v 0.0151223298 -0.14826569 1.23008776
v 0.0694960654 -0.162857592 1.14657128
v 0.0656239688 -0.173814371 1.17997372
v 0.0650127605 -0.166381702 1.1686933
v 0.0592241623 -0.14567636 1.18075252
v 0.0520771481 -0.145207986 1.20205641
v 0.0588718504 -0.146615669 1.17309272
v 0.0650127605 -0.166381702 1.1686933
v 0.0585334189 -0.155576423 1.15302122
v 0.0423625261 -0.146057799 1.21550119
v 0.00692324992 -0.155341387 1.25425875
v -0.0650127605 -0.166381702 1.1686933
v -0.0656239688 -0.173814371 1.17997372
v -0.0585334189 -0.155576423 1.15302122
v -0.0588718504 -0.146615669 1.17309272
v -0.0650127605 -0.166381702 1.1686933
v -0.0592241623 -0.14567636 1.18075252
v -0.0520771481 -0.145207986 1.20205641
v -0.0423625261 -0.146057799 1.21550119
v -0.0423625261 -0.146057799 1.21550119
v -0.0151223298 -0.14826569 1.23008776
v -0.0151223298 -0.14826569 1.23008776
v -0.00692324992 -0.155341387 1.25425875
v -0 -0.155364454 1.25917017
v -0.00692324992 -0.155341387 1.25425875
v -0 -0.165896177 1.27269089
v 0.00893019978 -0.177269131 1.19167161
v 0.0105445301 -0.195082888 1.18577015
v 0.00338222994 -0.194332898 1.21160507
v 0.00291456981 -0.181525677 1.21475613
v -0 -0.193865046 1.21240997
v 0.00338222994 -0.194332898 1.21160507
v -0 -0.181249857 1.21472788
v -0 -0.175393105 1.1999948
v 0.00291456981 -0.181525677 1.21475613
v -0 -0.181249857 1.21472788
v 0.00893019978 -0.177269131 1.19167161
v 0.0694960654 -0.162857592 1.14657128
v 0.0545880981 -0.147643059 1.15197206
v 0.0585334189 -0.155576423 1.15302122
v 0.0650127605 -0.166381702 1.1686933
v -0.0782137439 -0.128215939 1.2566427
v -0.0545880981 -0.147643059 1.15197206
v -0.0466527231 -0.140109777 1.25900948
v -0.101542607 -0.135503784 1.15413535
v -0.147564322 -0.108091153 1.15946245
v -0.117852062 -0.0915553868 1.2749989
v -0.134533405 -0.0606074706 1.27244639
v -0.180471167 -0.0680865049 1.16671169
v -0.191104636 -0.0225623194 1.17488837
v -0.136916876 -0.0307659507 1.27388
v -0.181845427 0.0222661588 1.1829592
v -0.12532717 0.00607485976 1.27987802
v -0.16008687 0.0563229173 1.18944693
v -0.0990784466 0.038672097 1.28622866
v -0.118240327 0.0907799974 1.19644904
v -0.0657181516 0.0598473884 1.29191661
v -0.069440119 0.109875746 1.20107722
v -0.0340239666 0.0661500692 1.29971397
v -0 0.115152806 1.20181131
v -0 0.0651585832 1.31238413
v -0 -0.147643059 1.15197206
v -0 -0.147012904 1.27051342
v 0.0782137439 -0.128215939 1.2566427
v 0.0545880981 -0.147643059 1.15197206
v 0.101542607 -0.135503784 1.15413535
v 0.0466527231 -0.140109777 1.25900948
v 0.147564322 -0.108091153 1.15946245
v 0.117852062 -0.0915553868 1.2749989
v 0.134533405 -0.0606074706 1.27244639
v 0.180471167 -0.0680865049 1.16671169
v 0.191104636 -0.0225623194 1.17488837
v 0.136916876 -0.0307659507 1.27388
v 0.181845427 0.0222661588 1.1829592
v 0.12532717 0.00607485976 1.27987802
v 0.16008687 0.0563229173 1.18944693
v 0.0990784466 0.038672097 1.28622866
v 0.118240327 0.0907799974 1.19644904
v 0.0657181516 0.0598473884 1.29191661
v 0.069440119 0.109875746 1.20107722
v 0.0340239666 0.0661500692 1.29971397
v -0 0.115152806 1.20181131
v -0 0.0651585832 1.31238413
v -0 -0.147643059 1.15197206
v -0 -0.147012904 1.27051342
vt 0.88670826 0.135764614
vt 0.776056468 0.105589136
vt 0.873581529 0.15721041
vt 0.783209085 0.0806551203
vt 0.870262623 0.0897851512
vt 0.825826287 0.0645812526
vt 0.895536661 0.0640765056
vt 0.829917073 0.0302403104
vt 0.895455897 0.135091975
vt 0.909410179 0.12235795
vt 0.979441285 0.199023813
vt 0.993804634 0.186103314
vt 0.79013145 0.145818278
vt 0.833622098 0.168978393
vt 0.777776003 0.0749478042
vt 0.778275669 0.0560952723
vt 0.778275669 0.0560952723
vt 0.767484128 0.107705183
vt 0.659969747 0.0414359644
vt 0.664309025 0.0272517558
vt 0.556088388 0.0146851912
vt 0.555059254 0.0289122518
vt 0.451937377 0.0372427516
vt 0.450361907 0.0228564721
vt 0.359754205 0.0369144455
vt 0.358929992 0.0535891466
vt 0.309672117 0.0347263999
vt 0.352699459 0.0571369156
vt 0.259127915 0.0578922294
vt 0.308663905 0.00618452486
vt 0.244911909 0.108671404
vt 0.3539626 0.0867950171
vt 0.26090759 0.127267867
vt 0.331436694 0.120235786
vt 0.294848025 0.136181146
vt 0.342373431 0.135486275
vt 0.29529202 0.154503688
vt 0.233544812 0.109318778
vt 0.220857963 0.0979547724
vt 0.236719295 0.0406314097
vt 0.308663905 0.00618452486
vt 0.253406048 0.138966501
vt 0.136176988 0.181081131
vt 0.12916027 0.169454575
vt 0.0146966819 0.273661703
vt 0.214613512 0.408621103
vt 0.267965436 0.352372289
vt 0.171339273 0.473478407
vt 0.226921767 0.416109681
vt 0.182114303 0.481403649
vt 0.171339273 0.473478407
vt 0.277943194 0.364107341
vt 0.00644839136 0.260527641
vt 0.34833473 0.307173312
vt 0.353858054 0.319753945
vt 0.442162991 0.289097458
vt 0.439337432 0.275550157
vt 0.364607215 0.0888085067
vt 0.527829468 0.279647976
vt 0.528320432 0.263810962
vt 0.593010366 0.289957196
vt 0.598338723 0.277198344
vt 0.66828227 0.31144622
vt 0.663875639 0.324309796
vt 0.780275762 0.153116152
vt 0.794643462 0.341190517
vt 0.832097888 0.184181139
vt 0.786263525 0.354336977
vt 0.933010817 0.243482083
vt 0.878338456 0.163917899
vt 0.944488049 0.231967971
vt 0.917020023 0.28892538
vt 0.979441285 0.199023813
vt 0.854014099 0.391008556
vt 0.843441784 0.401610345
vt 0.916447103 0.324398875
vt 0.946245134 0.384485573
vt 0.925310671 0.472373009
vt 0.913187802 0.481586754
vt 0.931837678 0.439284891
vt 0.873581529 0.15721041
vt 0.88670826 0.135764614
vt 0.931837678 0.439284891
vt 0.925310671 0.472373009
vt 0.937568247 0.456602007
vt 0.931837678 0.439284891
vt 0.244911909 0.108671404
vt 0.259127915 0.0578922294
vt 0.359754205 0.0369144455
vt 0.308663905 0.00618452486
vt 0.88670826 0.135764614
vt 0.776056468 0.105589136
vt 0.783209085 0.0806551203
vt 0.873581529 0.15721041
vt 0.870262623 0.0897851512
vt 0.825826287 0.0645812526
vt 0.895536661 0.0640765056
vt 0.829917073 0.0302403104
vt 0.895455897 0.135091975
vt 0.909410179 0.12235795
vt 0.979441285 0.199023813
vt 0.993804634 0.186103314
vt 0.79013145 0.145818278
vt 0.833622098 0.168978393
vt 0.777776003 0.0749478042
vt 0.778275669 0.0560952723
vt 0.778275669 0.0560952723
vt 0.767484128 0.107705183
vt 0.659969747 0.0414359644
vt 0.664309025 0.0272517558
vt 0.556088388 0.0146851912
vt 0.555059254 0.0289122518
vt 0.451937377 0.0372427516
vt 0.450361907 0.0228564721
vt 0.359754205 0.0369144455
vt 0.358929992 0.0535891466
vt 0.309672117 0.0347263999
vt 0.352699459 0.0571369156
vt 0.259127915 0.0578922294
vt 0.308663905 0.00618452486
vt 0.244911909 0.108671404
vt 0.3539626 0.0867950171
vt 0.26090759 0.127267867
vt 0.331436694 0.120235786
vt 0.294848025 0.136181146
vt 0.342373431 0.135486275
vt 0.29529202 0.154503688
vt 0.233544812 0.109318778
vt 0.220857963 0.0979547724
vt 0.236719295 0.0406314097
vt 0.308663905 0.00618452486
vt 0.253406048 0.138966501
vt 0.136176988 0.181081131
vt 0.12916027 0.169454575
vt 0.0146966819 0.273661703
vt 0.214613512 0.408621103
vt 0.267965436 0.352372289
vt 0.171339273 0.473478407
vt 0.226921767 0.416109681
vt 0.182114303 0.481403649
vt 0.171339273 0.473478407
vt 0.277943194 0.364107341
vt 0.00644839136 0.260527641
vt 0.34833473 0.307173312
vt 0.353858054 0.319753945
vt 0.442162991 0.289097458
vt 0.439337432 0.275550157
vt 0.364607215 0.0888085067
vt 0.527829468 0.279647976
vt 0.528320432 0.263810962
vt 0.593010366 0.289957196
vt 0.598338723 0.277198344
vt 0.66828227 0.31144622
vt 0.663875639 0.324309796
vt 0.780275762 0.153116152
vt 0.794643462 0.341190517
vt 0.832097888 0.184181139
vt 0.786263525 0.354336977
vt 0.933010817 0.243482083
vt 0.878338456 0.163917899
vt 0.944488049 0.231967971
vt 0.917020023 0.28892538
vt 0.854014099 0.391008556
vt 0.843441784 0.401610345
vt 0.916447103 0.324398875
vt 0.946245134 0.384485573
vt 0.925310671 0.472373009
vt 0.913187802 0.481586754
vt 0.931837678 0.439284891
vt 0.873581529 0.15721041
vt 0.88670826 0.135764614
vt 0.931837678 0.439284891
vt 0.925310671 0.472373009
vt 0.931837678 0.439284891
vt 0.937568247 0.456602007
vt 0.244911909 0.108671404
vt 0.259127915 0.0578922294
vt 0.359754205 0.0369144455
vt 0.308663905 0.00618452486
vt 0.319059372 0.511589825
vt 0.316963136 0.526296437
vt 0.339792013 0.50815624
vt 0.332743943 0.582099676
vt 0.339790225 0.583428502
vt 0.339792132 0.481288433
vt 0.323384345 0.482384801
vt 0.305382252 0.509626627
vt 0.346835732 0.58209914
vt 0.362619996 0.526296735
vt 0.36052376 0.511589944
vt 0.356199086 0.48238492
vt 0.374200702 0.509626985
vt 0.306770802 0.459827363
vt 0.323384345 0.482384801
vt 0.305382252 0.509626627
vt 0.291678548 0.485207915
vt 0.305382252 0.509626627
vt 0.372812986 0.459827542
vt 0.356199086 0.48238492
vt 0.374200702 0.509626985
vt 0.387904823 0.485208154
vt 0.374200702 0.509626985
vt 0.283620298 0.550238788
vt 0.332743943 0.582099676
vt 0.316963136 0.526296437
vt 0.308147848 0.597173512
vt 0.335228205 0.589315772
vt 0.310737729 0.602974415
vt 0.332743943 0.582099676
vt 0.279039383 0.576792657
vt 0.283620298 0.550238788
vt 0.308147848 0.597173512
vt 0.303555131 0.601249397
vt 0.239642739 0.939102948
vt 0.1860504 0.919991076
vt 0.205226973 0.947019994
vt 0.23964256 0.901046634
vt 0.193838909 0.859185636
vt 0.23964256 0.85080719
vt 0.293234915 0.919991195
vt 0.274058551 0.947019994
vt 0.285446078 0.859185934
vt 0.195418969 0.817736268
vt 0.23964256 0.821044087
vt 0.193838909 0.859185636
vt 0.23964256 0.779485524
vt 0.196832523 0.778615415
vt 0.153254658 0.757754385
vt 0.199096784 0.750759363
vt 0.146467328 0.813251972
vt 0.23964256 0.751463592
vt 0.231755912 0.71627301
vt 0.239643499 0.718382418
vt 0.231650576 0.707609653
vt 0.239641532 0.701832175
vt 0.217253461 0.704217255
vt 0.23964256 0.675151765
vt 0.188082501 0.7122491
vt 0.121113278 0.732588828
vt 0.0941146016 0.775922894
vt 0.146467328 0.813251972
vt 0.148070365 0.683690786
vt 0.23964256 0.675151765
vt 0.0702636391 0.753701627
vt 0.0895468667 0.705893755
vt 0.148070365 0.683690786
vt 0.247530341 0.716272295
vt 0.247634351 0.707608461
vt 0.262032896 0.704217434
vt 0.23964256 0.675151765
vt 0.280188113 0.750759959
vt 0.282452106 0.778616011
vt 0.28386566 0.817736685
vt 0.285446078 0.859185934
vt 0.326029807 0.757756114
vt 0.332816541 0.813253701
vt 0.291203529 0.712249935
vt 0.358170837 0.732592642
vt 0.385169566 0.775926173
vt 0.332816541 0.813253701
vt 0.331199914 0.683692396
vt 0.409020603 0.753703356
vt 0.389734477 0.705895603
vt 0.331199914 0.683692396
vt 0.23964256 0.675151765
vt 0.416579276 0.707630277
vt 0.440873653 0.756650686
vt 0.389734477 0.705895603
vt 0.700687349 0.893391609
vt 0.666215658 0.943506479
vt 0.700685322 0.906500459
vt 0.651221335 0.92670846
vt 0.659499109 0.881216049
vt 0.700695574 0.845443487
vt 0.682965219 0.824950159
vt 0.5895347 0.851730287
vt 0.579682648 0.820332706
vt 0.588314056 0.884302616
vt 0.558532774 0.85806638
vt 0.526701093 0.817049265
vt 0.558350205 0.794205785
vt 0.539741874 0.771152198
vt 0.517122984 0.799590051
vt 0.503103852 0.777073205
vt 0.589508891 0.785024047
vt 0.690477252 0.785240829
vt 0.570109725 0.754376769
vt 0.535360575 0.681086004
vt 0.587743461 0.743478656
vt 0.692492247 0.766845405
vt 0.690405965 0.742430747
vt 0.684304953 0.717269123
vt 0.619125962 0.722239256
vt 0.560748816 0.676713288
vt 0.70073849 0.587740898
vt 0.700711608 0.752169192
vt 0.579660952 0.537674069
vt 0.700757802 0.46805799
vt 0.634946108 0.451300323
vt 0.700768352 0.403330445
vt 0.615802944 0.423573077
vt 0.700775087 0.362193406
vt 0.700775802 0.358664453
vt 0.602924526 0.408041179
vt 0.554798841 0.526594758
vt 0.519692183 0.509924531
vt 0.615802944 0.423573077
vt 0.535360575 0.681086004
vt 0.535360575 0.681086004
vt 0.483179092 0.674816966
vt 0.502137482 0.689748466
vt 0.525566638 0.735419929
vt 0.766575217 0.451321781
vt 0.821832061 0.537713766
vt 0.840698898 0.676759899
vt 0.717129529 0.717274845
vt 0.78230679 0.722266734
vt 0.813682377 0.743516743
vt 0.846697748 0.52664268
vt 0.785727501 0.423600733
vt 0.700775802 0.358664453
vt 0.798610985 0.408073068
vt 0.881809294 0.509984016
vt 0.785727501 0.423600733
vt 0.866085291 0.6811409
vt 0.831313014 0.754420757
vt 0.811903298 0.785061717
vt 0.843058646 0.794254303
vt 0.821717024 0.820373654
vt 0.874699533 0.817109227
vt 0.842853606 0.858115196
vt 0.811854184 0.851768017
vt 0.718432903 0.824955761
vt 0.741879702 0.881229639
vt 0.750142217 0.926724553
vt 0.735135078 0.943507195
vt 0.700685322 0.906500459
vt 0.813063562 0.884341061
vt 0.861675441 0.771206677
vt 0.884283841 0.799653769
vt 0.898312092 0.777142107
vt 0.710934699 0.785244465
vt 0.708926022 0.766848624
vt 0.71102035 0.74243474
vt 0.762782693 0.940518141
vt 0.825390279 0.902179837
vt 0.762782693 0.940518141
vt 0.866085291 0.6811409
vt 0.861675441 0.771206677
vt 0.875862002 0.735478222
vt 0.901695192 0.840643406
vt 0.858201802 0.876377046
vt 0.917404175 0.825971186
vt 0.898312092 0.777142107
vt 0.946679175 0.78166163
vt 0.825390279 0.902179837
vt 0.718170404 0.982899487
vt 0.525566638 0.735419929
vt 0.539741874 0.771152198
vt 0.45473507 0.781574368
vt 0.483993053 0.82589525
vt 0.503103852 0.777073205
vt 0.499696821 0.840573311
vt 0.543177724 0.876322567
vt 0.575980842 0.902136922
vt 0.575980842 0.902136922
vt 0.63857466 0.940496564
vt 0.63857466 0.940496564
vt 0.68316555 0.982899487
vt 0.0627025366 0.707629561
vt 0.0895468667 0.705893755
vt 0.0384106487 0.756650925
vt 0.395961165 0.550241351
vt 0.362619996 0.526296735
vt 0.346835732 0.58209914
vt 0.371430397 0.597174883
vt 0.344351113 0.589314938
vt 0.346835732 0.58209914
vt 0.368840516 0.602975368
vt 0.400540054 0.576795876
vt 0.371430397 0.597174883
vt 0.376022696 0.601251185
vt 0.395961165 0.550241351
vt 0.866085291 0.6811409
vt 0.918268502 0.674888372
vt 0.899305642 0.689813793
vt 0.875862002 0.735478222
vt 1.7402823 0.304838359
vt 1.89373922 0.137792453
vt 1.80058467 0.341085672
vt 1.80235147 0.0948086232
vt 1.69719601 0.0567571968
vt 1.62197828 0.295417219
vt 1.55375338 0.269471318
vt 1.59153867 0.0324319303
vt 1.4929558 0.0295047965
vt 1.49140024 0.264698327
vt 1.39763987 0.0458714962
vt 1.41122174 0.281144053
vt 1.31731844 0.0743843466
vt 1.32938313 0.314760476
vt 1.21616578 0.126796961
vt 1.25907648 0.358501136
vt 1.12612927 0.18865408
vt 1.21140718 0.40879783
vt 1.01209056 0.277968496
vt 1.17192674 0.473190278
vt 1.99309301 0.192192897
vt 1.87529707 0.408553958
vt 1.7402823 0.304838359
vt 1.89373922 0.137792453
vt 1.80235147 0.0948086232
vt 1.80058467 0.341085672
vt 1.69719601 0.0567571968
vt 1.62197828 0.295417219
vt 1.55375338 0.269471318
vt 1.59153867 0.0324319303
vt 1.4929558 0.0295047965
vt 1.49140024 0.264698327
vt 1.39763987 0.0458714962
vt 1.41122174 0.281144053
vt 1.31731844 0.0743843466
vt 1.32938313 0.314760476
vt 1.21616578 0.126796961
vt 1.25907648 0.358501136
vt 1.12612927 0.18865408
vt 1.21140718 0.40879783
vt 1.01209056 0.277968496
vt 1.17192674 0.473190278
vt 1.99309301 0.192192897
vt 1.87529707 0.408553958
vn 0.226373956 -0.952718914 -0.202685878
vn -0.859939933 -0.215856418 0.462503374
vn 0.27424553 -0.914833009 0.296428621
vn -0.981627166 -0.188989788 -0.026286887
vn -0.139411032 -0.770510674 -0.621995151
vn -0.727467954 -0.34094727 -0.595437109
vn 0.192654431 -0.256604373 -0.947121203
vn -0.486930639 0.188333467 -0.852894485
vn 0.403414994 -0.7404356 -0.537597895
vn 0.467608154 0.319471985 -0.824184537
vn -0.967274189 0.225674093 0.115982734
vn -0.239060134 0.925254703 -0.294540286
vn -0.475590706 -0.330516338 0.815213084
vn -0.00743751414 -0.686630845 0.726968169
vn -0.960997522 0.122718856 -0.247838303
vn -0.12119855 0.607755721 -0.784820855
vn -0.12119855 0.607755721 -0.784820855
vn -0.834661543 -0.224345103 0.503000379
vn -0.87435627 -0.360273063 -0.325122297
vn 0.167676404 0.247985363 -0.954142511
vn 0.170533001 0.175678656 -0.969564617
vn -0.970254481 0.04373613 -0.238103539
vn -0.904727101 0.396396637 -0.156008363
vn 0.152861938 0.125865132 -0.980199575
vn -0.065398179 -0.332686514 -0.940767169
vn -0.950870931 -0.207085207 -0.230130807
vn -0.794077277 0.384314448 -0.470896631
vn -0.999144793 -0.0412610136 0.00267487438
vn -0.239714161 0.895817697 -0.374229521
vn -0.436820567 -0.00219480041 -0.899545968
vn 0.114962548 0.972061634 0.204645678
vn -0.824220002 -0.123152837 0.552715719
vn 0.0964955315 0.74548614 0.659499049
vn -0.524649799 0.0154149542 0.851178646
vn -0.0830680057 0.347349614 0.934049189
vn -0.526373744 0.154945448 0.836015821
vn -0.273739278 0.431637645 0.859508932
vn 0.338939518 0.934565127 -0.10820365
vn 0.517623544 0.129095078 -0.845813453
vn 0.2517533 0.613719642 -0.748310387
vn -0.436820567 -0.00219480041 -0.899545968
vn 0.0722487941 0.748478711 0.659211397
vn -0.225192413 0.95741576 -0.180674762
vn 0.088763766 -0.11778032 -0.989064574
vn -0 0.982480943 -0.186363205
vn -0.265503615 0.502387583 0.822869718
vn -0.331426322 0.465425432 0.820692241
vn -0 0.493535817 0.869725466
vn -0.0974810943 -0.884728193 0.455799758
vn -0 -0.760696054 0.649108112
vn -0 0.493535817 0.869725466
vn 0.198266283 -0.834316194 0.514399588
vn -0 -0.162752926 -0.986666858
vn -0.433973849 0.304119825 0.848043561
vn 0.493178427 -0.703101814 0.512272298
vn 0.695834696 -0.482256085 0.53220588
vn -0.517837107 0.152591676 0.841760397
vn -0.80768466 -0.0697837994 0.585470557
vn 0.80805397 -0.144603834 0.571085334
vn -0.593237102 -0.0269193016 0.804577589
vn 0.711231828 0.283639491 0.643193603
vn -0.602213085 -0.227167025 0.765332937
vn -0.46435684 -0.472998232 0.748762667
vn 0.585699439 0.318225592 0.745445251
vn -0.513861358 -0.508563697 0.690875947
vn -0.31751737 -0.758811712 0.568671703
vn -0.0858340338 -0.81219703 0.577034295
vn 0.403411299 0.538689435 0.739643872
vn -0.893343568 -0.392587483 0.218660414
vn 0.25367409 -0.889413178 0.380254686
vn -0.87335372 -0.485353678 0.0410493053
vn -0.767487228 -0.531514645 0.358406901
vn -0.967274189 0.225674093 0.115982734
vn -0.277599394 -0.792089105 0.543629885
vn 0.00381395197 0.619705915 0.784824729
vn -0.472456545 -0.707657695 0.525362194
vn -0.658820927 -0.623023868 0.421658903
vn -0 -0.731182814 0.682181656
vn -0 0.483354181 0.875424922
vn -0.877609074 -0.270022362 0.396093637
vn 0.27424553 -0.914833009 0.296428621
vn 0.226373956 -0.952718914 -0.202685878
vn -0.877609074 -0.270022362 0.396093637
vn -0 -0.731182814 0.682181656
vn -0 -0.260897845 0.965366364
vn -0.877609074 -0.270022362 0.396093637
vn 0.114962548 0.972061634 0.204645678
vn -0.239714161 0.895817697 -0.374229521
vn -0.065398179 -0.332686514 -0.940767169
vn -0.436820567 -0.00219480041 -0.899545968
vn -0.226373956 -0.952718914 -0.202685878
vn 0.859939933 -0.215856478 0.462503374
vn 0.981627166 -0.188989788 -0.0262868702
vn -0.27424553 -0.914833009 0.296428621
vn 0.139411047 -0.770510674 -0.621995151
vn 0.727468014 -0.340947241 -0.595437169
vn -0.192654431 -0.256604373 -0.947121203
vn 0.486930639 0.188333467 -0.852894485
vn -0.403415024 -0.7404356 -0.537597895
vn -0.467608243 0.319471985 -0.824184537
vn 0.96727407 0.225674093 0.115982816
vn 0.239060134 0.925254703 -0.294540256
vn 0.475590706 -0.330516338 0.815213084
vn 0.00743750576 -0.686630845 0.726968169
vn 0.960997522 0.122718856 -0.247838289
vn 0.121198587 0.607755721 -0.784820855
vn 0.121198587 0.607755721 -0.784820855
vn 0.834661603 -0.224345118 0.503000319
vn 0.87435627 -0.360273063 -0.325122297
vn -0.167676404 0.247985363 -0.954142511
vn -0.170532987 0.175678656 -0.969564617
vn 0.970254481 0.0437361188 -0.238103539
vn 0.904727101 0.396396637 -0.156008363
vn -0.152861938 0.125865132 -0.980199575
vn 0.0653981268 -0.332686573 -0.940767169
vn 0.950870931 -0.207085207 -0.230130851
vn 0.794077277 0.384314448 -0.470896631
vn 0.999144793 -0.0412610136 0.00267485855
vn 0.239714161 0.895817697 -0.374229521
vn 0.436820567 -0.00219480041 -0.899545968
vn -0.114962533 0.972061634 0.204645663
vn 0.824220002 -0.123152882 0.552715719
vn -0.0964955315 0.74548614 0.659499049
vn 0.524649799 0.0154149514 0.851178646
vn 0.0830680132 0.347349554 0.934049189
vn 0.526373744 0.154945448 0.836015821
vn 0.273739278 0.431637615 0.859508932
vn -0.338939518 0.934565127 -0.10820365
vn -0.517623544 0.129095063 -0.845813453
vn -0.2517533 0.613719642 -0.748310387
vn 0.436820567 -0.00219480041 -0.899545968
vn -0.0722487941 0.748478711 0.659211397
vn 0.225192443 0.95741576 -0.180674762
vn -0.088763766 -0.117780268 -0.989064574
vn -0 0.982480943 -0.186363205
vn 0.265503615 0.502387583 0.822869718
vn 0.331426352 0.465425521 0.820692241
vn -0 0.493535817 0.869725466
vn 0.0974810943 -0.884728193 0.455799758
vn -0 -0.760696054 0.649108112
vn -0 0.493535817 0.869725466
vn -0.198266268 -0.834316134 0.514399648
vn -0 -0.162752926 -0.986666858
vn 0.433973849 0.304119796 0.848043501
vn -0.493178427 -0.703101814 0.512272298
vn -0.695834696 -0.482256085 0.53220588
vn 0.517837107 0.152591676 0.841760397
vn 0.80768466 -0.0697837994 0.585470557
vn -0.80805397 -0.144603834 0.571085393
vn 0.593237102 -0.0269193016 0.804577589
vn -0.711231828 0.283639461 0.643193603
vn 0.602213085 -0.227167025 0.765332937
vn 0.46435684 -0.472998232 0.748762667
vn -0.585699439 0.318225592 0.745445251
vn 0.513861358 -0.508563697 0.690875947
vn 0.31751734 -0.758811712 0.568671703
vn 0.0858340338 -0.81219703 0.577034295
vn -0.403411299 0.538689435 0.739643872
vn 0.893343568 -0.392587483 0.218660414
vn -0.25367412 -0.889413178 0.380254686
vn 0.87335372 -0.485353649 0.0410493053
vn 0.767487228 -0.531514645 0.358406901
vn 0.277599394 -0.792089105 0.543629885
vn -0.00381393731 0.619705975 0.784824848
vn 0.472456545 -0.707657695 0.525362194
vn 0.658741474 -0.623079598 0.421700835
vn -0 -0.731182814 0.682181656
vn -0 0.483354181 0.875424922
vn 0.877649128 -0.270053208 0.395983905
vn -0.27424553 -0.914833009 0.296428621
vn -0.226373956 -0.952718914 -0.202685878
vn 0.877649128 -0.270053208 0.395983905
vn -0 -0.731182814 0.682181656
vn 0.877649128 -0.270053208 0.395983905
vn -0 -0.260897845 0.965366364
vn -0.114962533 0.972061634 0.204645663
vn 0.239714161 0.895817697 -0.374229521
vn 0.0653981268 -0.332686573 -0.940767169
vn 0.436820567 -0.00219480041 -0.899545968
vn 0.604914069 -0.633433759 -0.482535571
vn -0.171747446 -0.95480597 0.24258709
vn -0 -0.622357011 -0.7827335
vn -0.502424181 -0.715004802 0.486146122
vn -0 -0.73657167 0.676359475
vn -0 -0.61813587 -0.786071241
vn 0.495769143 -0.60596025 -0.622113466
vn 0.402213424 -0.859272182 -0.31603086
vn 0.502424181 -0.715004802 0.486146122
vn 0.171747446 -0.95480597 0.24258709
vn -0.60491401 -0.633433819 -0.482535541
vn -0.495769054 -0.60596025 -0.622113466
vn -0.402213424 -0.859272182 -0.31603086
vn -0.00444342569 -0.895936072 -0.444160908
vn 0.495769143 -0.60596025 -0.622113466
vn 0.402213424 -0.859272182 -0.31603086
vn 0.456784338 -0.484676391 -0.745946944
vn 0.402213424 -0.859272182 -0.31603086
vn 0.00444342708 -0.895936072 -0.444160849
vn -0.495769054 -0.60596025 -0.622113466
vn -0.402213424 -0.859272182 -0.31603086
vn -0.456784338 -0.484676391 -0.745946944
vn -0.402213424 -0.859272182 -0.31603086
vn -0.53645432 -0.484218895 0.691193879
vn -0.502424181 -0.715004802 0.486146122
vn -0.171747446 -0.95480597 0.24258709
vn -0.517513216 0.375168115 0.76904422
vn -0 -0.73657167 0.676359475
vn -0 0.513953388 0.857818127
vn -0.502424181 -0.715004802 0.486146122
vn -0 -0.207401246 0.978255928
vn -0.53645432 -0.484218895 0.691193879
vn -0.517513216 0.375168115 0.76904422
vn -0 0.513953388 0.857818127
vn -0 0.39438349 0.918945909
vn -0.798679173 0.116700895 0.590332508
vn -0.448915124 0.612169027 0.650941074
vn -0 -0.255991876 0.966678858
vn -0.754880488 -0.431882501 0.493591815
vn -0 -0.712804914 0.701362371
vn 0.798679233 0.116700888 0.590332508
vn 0.448915064 0.612169087 0.650941133
vn 0.754880488 -0.431882501 0.493591815
vn -0.662107646 -0.737859607 0.131059989
vn -0 -0.98398596 0.178245902
vn -0.754880488 -0.431882501 0.493591815
vn -0 -0.94857347 -0.316556811
vn -0.747313857 -0.621939301 -0.233909234
vn -0.992255926 -0.121153086 -0.027386168
vn -0.796739519 -0.501667023 -0.336951464
vn -0.754880488 -0.431882501 0.493591815
vn -0 -0.897905827 -0.440187544
vn -0.464809269 -0.482512891 -0.742383718
vn -0 -0.575190365 -0.818019629
vn -0.41203478 0.067930989 -0.908632338
vn -0 0.322211087 -0.94666779
vn -0.642887533 0.252830505 -0.723030031
vn -4.2221356E-07 0.232995272 -0.972477794
vn -0.908519566 0.0591741428 -0.413630992
vn -0.917960525 0.380482256 0.112168133
vn -0.798679173 0.116700895 0.590332508
vn -0.754880488 -0.431882501 0.493591815
vn -0.996337295 0.0847062245 0.0117032072
vn -4.2221356E-07 0.232995272 -0.972477794
vn -0.448915124 0.612169027 0.650941074
vn -0.877609074 -0.270022362 0.396093637
vn -0.996337295 0.0847062245 0.0117032072
vn 0.464809269 -0.482512981 -0.742383718
vn 0.41203478 0.067930989 -0.908632338
vn 0.64289099 0.252835453 -0.723025143
vn -4.2221356E-07 0.232995272 -0.972477794
vn 0.796739519 -0.501667023 -0.336951464
vn 0.747313857 -0.621939301 -0.233909234
vn 0.662107646 -0.737859607 0.131059974
vn 0.754880488 -0.431882501 0.493591815
vn 0.992255926 -0.121153086 -0.0273861699
vn 0.754880488 -0.431882501 0.493591815
vn 0.90851146 0.0592478439 -0.413638383
vn 0.917942643 0.380549252 0.112087399
vn 0.798679233 0.116700888 0.590332508
vn 0.754880488 -0.431882501 0.493591815
vn 0.996355176 0.0845154077 0.0115567101
vn 0.448915064 0.612169087 0.650941133
vn 0.877649128 -0.270053208 0.395983905
vn 0.996355176 0.0845154077 0.0115567101
vn -4.2221356E-07 0.232995272 -0.972477794
vn -0 -0.260897845 0.965366364
vn -0 0.39438349 0.918945909
vn 0.877649128 -0.270053208 0.395983905
vn -3.78771574E-07 -0.962629855 0.270820677
vn -0.996337295 0.0847062245 0.0117032072
vn -4.2221356E-07 0.232995272 -0.972477794
vn -0.718001366 -0.447827786 0.532845497
vn -0.22474207 -0.845398426 0.484553784
vn -0 -0.207401246 0.978255928
vn -0.53645432 -0.484218895 0.691193879
vn -0.433751196 -0.714985073 0.548321307
vn -0.373986453 -0.506954789 0.776615083
vn -0.553112686 -0.293735325 0.779606283
vn -0.817230284 -0.0571948625 0.573466241
vn -0.896015584 0.222468197 0.384270638
vn -0.643179655 -0.413247019 0.64462924
vn -0.826547742 -0.546800137 0.133523494
vn -0.974109352 0.130800948 -0.184396565
vn -0.938922942 0.340179086 -0.0519796871
vn -0.338133126 -0.846702039 0.410806179
vn -0.171747446 -0.95480597 0.24258709
vn -0.2028988 -0.954769433 -0.21736446
vn -0.999635339 -0.00127661473 -0.0269746091
vn 0.226962611 -0.829330206 -0.510587335
vn 0.402213424 -0.859272182 -0.31603086
vn 0.456784338 -0.484676391 -0.745946944
vn -0.00444342569 -0.895936072 -0.444160908
vn -0.0904111341 -0.855744362 -0.509438276
vn -0.348550171 -0.913606226 -0.20937188
vn -0 -0.986927211 -0.161166266
vn -0 -0.61813587 -0.786071241
vn -0.400014132 -0.88629055 -0.233404517
vn -0 -0.995748818 0.0921108723
vn -0.312091738 -0.942958415 -0.1158804
vn -0 -0.997321427 -0.0731442943
vn -0.786056936 -0.185104147 -0.589788914
vn -0 -0.69558543 -0.718443394
vn -0 -0.227989942 -0.973663568
vn -0.665657699 0.458270371 -0.588971972
vn -0.939283133 0.0586203597 -0.338098824
vn -0.657322705 0.73032093 -0.185898408
vn -0.786056936 -0.185104147 -0.589788914
vn -0.999635339 -0.00127661473 -0.0269746091
vn -0.999635339 -0.00127661473 -0.0269746091
vn -0.239060134 0.925254703 -0.294540286
vn -0.967274189 0.225674093 0.115982734
vn -0.938922942 0.340179086 -0.0519796871
vn 0.312091768 -0.942958415 -0.1158804
vn 0.400014132 -0.88629055 -0.233404517
vn 0.348550171 -0.913606226 -0.20937185
vn 0.00444342708 -0.895936072 -0.444160849
vn 0.0904111341 -0.855744362 -0.509438276
vn -0.226962611 -0.829330206 -0.510587275
vn 0.939283133 0.0586203597 -0.338098824
vn 0.786056876 -0.185104132 -0.589788973
vn -0 -0.227989942 -0.973663568
vn 0.665657699 0.458270371 -0.588971972
vn 0.657322764 0.730320871 -0.185898378
vn 0.786056876 -0.185104132 -0.589788973
vn 0.999635339 -0.00127661473 -0.0269746017
vn 0.2028988 -0.954769433 -0.217364401
vn 0.338133126 -0.846702039 0.410806179
vn 0.643179655 -0.413247019 0.64462924
vn 0.373986483 -0.506954789 0.776615024
vn 0.896015584 0.222468227 0.384270638
vn 0.817230284 -0.0571948513 0.573466241
vn 0.433751196 -0.714985073 0.548321307
vn 0.53645432 -0.484218895 0.691193879
vn 0.22474207 -0.845398426 0.484553844
vn 0.717934906 -0.447744012 0.533005416
vn 0.996355176 0.0845154077 0.0115567101
vn -4.2221356E-07 0.232995272 -0.972477794
vn 0.553112686 -0.293735296 0.779606283
vn 0.826547742 -0.546800137 0.133523494
vn 0.974109352 0.130800948 -0.184396565
vn 0.938922942 0.340179086 -0.0519797094
vn 0.171747446 -0.95480597 0.24258709
vn -0.402213424 -0.859272182 -0.31603086
vn -0.456784338 -0.484676391 -0.745946944
vn 0.658741474 -0.623079598 0.421700835
vn 0.472456545 -0.707657695 0.525362194
vn 0.658741474 -0.623079598 0.421700835
vn 0.999635339 -0.00127661473 -0.0269746017
vn 0.826547742 -0.546800137 0.133523494
vn 0.938922942 0.340179086 -0.0519797094
vn 0.893343568 -0.392587483 0.218660414
vn 0.767487228 -0.531514645 0.358406901
vn 0.87335372 -0.485353649 0.0410493053
vn 0.938922942 0.340179086 -0.0519797094
vn 0.96727407 0.225674093 0.115982816
vn 0.472456545 -0.707657695 0.525362194
vn 0.877649128 -0.270053208 0.395983905
vn -0.938922942 0.340179086 -0.0519796871
vn -0.826547742 -0.546800137 0.133523494
vn -0.967274189 0.225674093 0.115982734
vn -0.87335372 -0.485353678 0.0410493053
vn -0.938922942 0.340179086 -0.0519796871
vn -0.893343568 -0.392587483 0.218660414
vn -0.767487228 -0.531514645 0.358406901
vn -0.472456545 -0.707657695 0.525362194
vn -0.472456545 -0.707657695 0.525362194
vn -0.658820927 -0.623023868 0.421658903
vn -0.658820927 -0.623023868 0.421658903
vn -0.877609074 -0.270022362 0.396093637
vn -0 -0.260897845 0.965366364
vn -0.877609074 -0.270022362 0.396093637
vn -0 0.39438349 0.918945909
vn 0.53645432 -0.484218895 0.691193879
vn 0.171747446 -0.95480597 0.24258709
vn 0.502424181 -0.715004802 0.486146122
vn 0.517513216 0.375168175 0.76904422
vn -0 -0.73657167 0.676359475
vn 0.502424181 -0.715004802 0.486146122
vn -0 0.513953388 0.857818127
vn -0 -0.207401246 0.978255928
vn 0.517513216 0.375168175 0.76904422
vn -0 0.513953388 0.857818127
vn 0.53645432 -0.484218895 0.691193879
vn 0.999635339 -0.00127661473 -0.0269746017
vn 0.239060134 0.925254703 -0.294540256
vn 0.96727407 0.225674093 0.115982816
vn 0.938922942 0.340179086 -0.0519797094
vn 0.403411299 0.538689435 0.739643872
vn -0.239060134 0.925254703 -0.294540286
vn 0.00381395197 0.619705915 0.784824729
vn 0.467608154 0.319471985 -0.824184537
vn -0.12119855 0.607755721 -0.784820855
vn 0.585699439 0.318225592 0.745445251
vn 0.711231828 0.283639491 0.643193603
vn 0.167676404 0.247985363 -0.954142511
vn 0.170533001 0.175678656 -0.969564617
vn 0.80805397 -0.144603834 0.571085334
vn 0.152861938 0.125865132 -0.980199575
vn 0.695834696 -0.482256085 0.53220588
vn -0.065398179 -0.332686514 -0.940767169
vn 0.493178427 -0.703101814 0.512272298
vn 0.517623544 0.129095078 -0.845813453
vn 0.198266283 -0.834316194 0.514399588
vn 0.088763766 -0.11778032 -0.989064574
vn -0.0974810943 -0.884728193 0.455799758
vn -0 -0.162752926 -0.986666858
vn -0 -0.760696054 0.649108112
vn -0 0.998579741 -0.0532771461
vn -0 0.483354181 0.875424922
vn -0.403411299 0.538689435 0.739643872
vn 0.239060134 0.925254703 -0.294540256
vn -0.467608243 0.319471985 -0.824184537
vn -0.00381393731 0.619705975 0.784824848
vn 0.121198587 0.607755721 -0.784820855
vn -0.585699439 0.318225592 0.745445251
vn -0.711231828 0.283639461 0.643193603
vn -0.167676404 0.247985363 -0.954142511
vn -0.170532987 0.175678656 -0.969564617
vn -0.80805397 -0.144603834 0.571085393
vn -0.152861938 0.125865132 -0.980199575
vn -0.695834696 -0.482256085 0.53220588
vn 0.0653981268 -0.332686573 -0.940767169
vn -0.493178427 -0.703101814 0.512272298
vn -0.517623544 0.129095063 -0.845813453
vn -0.198266268 -0.834316134 0.514399648
vn -0.088763766 -0.117780268 -0.989064574
vn 0.0974810943 -0.884728193 0.455799758
vn -0 -0.162752926 -0.986666858
vn -0 -0.760696054 0.649108112
vn -0 0.998579741 -0.0532771461
vn -0 0.483354181 0.875424922
g blue_war_f_pve_3_belt_0
f 3/3/3 2/2/2 1/1/1
f 4/4/4 1/1/1 2/2/2
f 1/1/1 4/4/4 5/5/5
f 6/6/6 5/5/5 4/4/4
f 5/5/5 6/6/6 7/7/7
f 8/8/8 7/7/7 6/6/6
f 1/1/1 5/5/5 9/9/9
f 9/9/9 5/5/5 10/10/10
f 7/7/7 10/10/10 5/5/5
f 9/9/9 10/10/10 11/11/11
f 12/12/12 11/11/11 10/10/10
f 2/2/2 3/3/3 13/13/13
f 14/14/14 13/13/13 3/3/3
f 4/4/4 15/15/15 6/6/6
f 4/4/4 2/2/2 15/15/15
f 15/15/15 16/16/16 6/6/6
f 8/8/8 6/6/6 17/17/17
f 18/18/18 15/15/15 2/2/2
f 15/15/15 19/19/19 16/16/16
f 15/15/15 18/18/18 19/19/19
f 20/20/20 16/16/16 19/19/19
f 20/20/20 19/19/19 21/21/21
f 22/22/22 21/21/21 19/19/19
f 22/22/22 23/23/23 21/21/21
f 24/24/24 21/21/21 23/23/23
f 24/24/24 23/23/23 25/25/25
f 26/26/26 25/25/25 23/23/23
f 26/26/26 27/27/27 25/25/25
f 26/26/26 28/28/28 27/27/27
f 27/27/27 28/28/28 29/29/29
f 27/27/27 29/29/29 30/30/30
f 31/31/31 29/29/29 28/28/28
f 28/28/28 32/32/32 31/31/31
f 28/28/28 26/26/26 32/32/32
f 33/33/33 31/31/31 32/32/32
f 32/32/32 34/34/34 33/33/33
f 35/35/35 33/33/33 34/34/34
f 34/34/34 36/36/36 35/35/35
f 37/37/37 35/35/35 36/36/36
f 31/31/31 33/33/33 38/38/38
f 38/38/38 39/39/39 29/29/29
f 40/40/40 29/29/29 39/39/39
f 40/40/40 41/41/41 29/29/29
f 42/42/42 38/38/38 33/33/33
f 33/33/33 35/35/35 42/42/42
f 37/37/37 42/42/42 35/35/35
f 38/38/38 43/43/43 39/39/39
f 38/38/38 42/42/42 43/43/43
f 44/44/44 39/39/39 43/43/43
f 43/43/43 45/45/45 44/44/44
f 45/45/45 43/43/43 46/46/46
f 47/47/47 46/46/46 43/43/43
f 43/43/43 42/42/42 47/47/47
f 48/48/48 45/45/45 46/46/46
f 46/46/46 47/47/47 49/49/49
f 49/49/49 50/50/50 46/46/46
f 51/51/51 46/46/46 50/50/50
f 52/52/52 49/49/49 47/47/47
f 53/53/53 44/44/44 45/45/45
f 54/54/54 47/47/47 42/42/42
f 47/47/47 54/54/54 52/52/52
f 37/37/37 54/54/54 42/42/42
f 55/55/55 52/52/52 54/54/54
f 55/55/55 54/54/54 56/56/56
f 57/57/57 56/56/56 54/54/54
f 57/57/57 54/54/54 36/36/36
f 37/37/37 36/36/36 54/54/54
f 36/36/36 58/58/58 57/57/57
f 36/36/36 34/34/34 58/58/58
f 32/32/32 58/58/58 34/34/34
f 58/58/58 32/32/32 26/26/26
f 26/26/26 23/23/23 58/58/58
f 58/58/58 23/23/23 57/57/57
f 56/56/56 57/57/57 59/59/59
f 60/60/60 59/59/59 57/57/57
f 60/60/60 57/57/57 23/23/23
f 23/23/23 22/22/22 60/60/60
f 59/59/59 60/60/60 61/61/61
f 62/62/62 61/61/61 60/60/60
f 60/60/60 22/22/22 62/62/62
f 19/19/19 62/62/62 22/22/22
f 19/19/19 18/18/18 62/62/62
f 63/63/63 62/62/62 18/18/18
f 62/62/62 63/63/63 61/61/61
f 64/64/64 61/61/61 63/63/63
f 18/18/18 65/65/65 63/63/63
f 65/65/65 18/18/18 13/13/13
f 2/2/2 13/13/13 18/18/18
f 63/63/63 65/65/65 66/66/66
f 63/63/63 66/66/66 64/64/64
f 67/67/67 66/66/66 65/65/65
f 65/65/65 13/13/13 67/67/67
f 68/68/68 64/64/64 66/66/66
f 14/14/14 67/67/67 13/13/13
f 67/67/67 69/69/69 66/66/66
f 67/67/67 70/70/70 69/69/69
f 67/67/67 14/14/14 70/70/70
f 71/71/71 69/69/69 70/70/70
f 72/72/72 66/66/66 69/69/69
f 71/71/71 70/70/70 73/73/73
f 9/9/9 73/73/73 70/70/70
f 70/70/70 3/3/3 9/9/9
f 3/3/3 70/70/70 14/14/14
f 66/66/66 74/74/74 68/68/68
f 66/66/66 72/72/72 74/74/74
f 75/75/75 68/68/68 74/74/74
f 76/76/76 74/74/74 72/72/72
f 76/76/76 77/77/77 74/74/74
f 74/74/74 78/78/78 75/75/75
f 79/79/79 75/75/75 78/78/78
f 77/77/77 80/80/80 74/74/74
f 82/82/82 9/9/9 81/81/81
f 84/84/84 74/74/74 83/83/83
f 86/86/86 85/85/85 84/84/84
f 38/38/38 88/88/88 87/87/87
f 90/90/90 89/89/89 27/27/27
f 93/93/93 92/92/92 91/91/91
f 94/94/94 91/91/91 92/92/92
f 91/91/91 95/95/95 93/93/93
f 96/96/96 93/93/93 95/95/95
f 95/95/95 97/97/97 96/96/96
f 98/98/98 96/96/96 97/97/97
f 95/95/95 91/91/91 99/99/99
f 97/97/97 95/95/95 100/100/100
f 99/99/99 100/100/100 95/95/95
f 99/99/99 101/101/101 100/100/100
f 102/102/102 100/100/100 101/101/101
f 92/92/92 103/103/103 94/94/94
f 104/104/104 94/94/94 103/103/103
f 105/105/105 93/93/93 96/96/96
f 93/93/93 105/105/105 92/92/92
f 98/98/98 106/106/106 96/96/96
f 105/105/105 96/96/96 107/107/107
f 108/108/108 92/92/92 105/105/105
f 105/105/105 107/107/107 109/109/109
f 108/108/108 105/105/105 109/109/109
f 110/110/110 109/109/109 107/107/107
f 110/110/110 111/111/111 109/109/109
f 112/112/112 109/109/109 111/111/111
f 112/112/112 111/111/111 113/113/113
f 114/114/114 113/113/113 111/111/111
f 114/114/114 115/115/115 113/113/113
f 116/116/116 113/113/113 115/115/115
f 116/116/116 115/115/115 117/117/117
f 118/118/118 116/116/116 117/117/117
f 117/117/117 119/119/119 118/118/118
f 117/117/117 120/120/120 119/119/119
f 121/121/121 118/118/118 119/119/119
f 118/118/118 121/121/121 122/122/122
f 118/118/118 122/122/122 116/116/116
f 123/123/123 122/122/122 121/121/121
f 122/122/122 123/123/123 124/124/124
f 125/125/125 124/124/124 123/123/123
f 124/124/124 125/125/125 126/126/126
f 127/127/127 126/126/126 125/125/125
f 121/121/121 128/128/128 123/123/123
f 128/128/128 119/119/119 129/129/129
f 130/130/130 129/129/129 119/119/119
f 130/130/130 119/119/119 131/131/131
f 132/132/132 123/123/123 128/128/128
f 127/127/127 125/125/125 132/132/132
f 123/123/123 132/132/132 125/125/125
f 128/128/128 129/129/129 133/133/133
f 132/132/132 128/128/128 133/133/133
f 134/134/134 133/133/133 129/129/129
f 133/133/133 134/134/134 135/135/135
f 135/135/135 136/136/136 133/133/133
f 137/137/137 133/133/133 136/136/136
f 133/133/133 137/137/137 132/132/132
f 135/135/135 138/138/138 136/136/136
f 136/136/136 139/139/139 137/137/137
f 139/139/139 136/136/136 140/140/140
f 141/141/141 140/140/140 136/136/136
f 142/142/142 137/137/137 139/139/139
f 143/143/143 135/135/135 134/134/134
f 144/144/144 132/132/132 137/137/137
f 137/137/137 142/142/142 144/144/144
f 144/144/144 127/127/127 132/132/132
f 145/145/145 144/144/144 142/142/142
f 145/145/145 146/146/146 144/144/144
f 147/147/147 144/144/144 146/146/146
f 127/127/127 144/144/144 126/126/126
f 147/147/147 126/126/126 144/144/144
f 148/148/148 126/126/126 147/147/147
f 126/126/126 148/148/148 124/124/124
f 122/122/122 124/124/124 148/148/148
f 148/148/148 116/116/116 122/122/122
f 113/113/113 116/116/116 148/148/148
f 148/148/148 147/147/147 113/113/113
f 146/146/146 149/149/149 147/147/147
f 150/150/150 147/147/147 149/149/149
f 150/150/150 113/113/113 147/147/147
f 112/112/112 113/113/113 150/150/150
f 149/149/149 151/151/151 150/150/150
f 152/152/152 150/150/150 151/151/151
f 150/150/150 152/152/152 112/112/112
f 109/109/109 112/112/112 152/152/152
f 109/109/109 152/152/152 108/108/108
f 153/153/153 108/108/108 152/152/152
f 152/152/152 151/151/151 153/153/153
f 154/154/154 153/153/153 151/151/151
f 155/155/155 108/108/108 153/153/153
f 155/155/155 103/103/103 108/108/108
f 92/92/92 108/108/108 103/103/103
f 153/153/153 156/156/156 155/155/155
f 153/153/153 154/154/154 156/156/156
f 157/157/157 155/155/155 156/156/156
f 155/155/155 157/157/157 103/103/103
f 158/158/158 156/156/156 154/154/154
f 104/104/104 103/103/103 157/157/157
f 157/157/157 156/156/156 159/159/159
f 157/157/157 159/159/159 160/160/160
f 157/157/157 160/160/160 104/104/104
f 161/161/161 160/160/160 159/159/159
f 162/162/162 159/159/159 156/156/156
f 161/161/161 101/101/101 160/160/160
f 99/99/99 160/160/160 101/101/101
f 160/160/160 99/99/99 94/94/94
f 94/94/94 104/104/104 160/160/160
f 156/156/156 158/158/158 163/163/163
f 156/156/156 163/163/163 162/162/162
f 164/164/164 163/163/163 158/158/158
f 165/165/165 162/162/162 163/163/163
f 166/166/166 165/165/165 163/163/163
f 163/163/163 164/164/164 167/167/167
f 168/168/168 167/167/167 164/164/164
f 166/166/166 163/163/163 169/169/169
f 171/171/171 170/170/170 99/99/99
f 173/173/173 172/172/172 163/163/163
f 175/175/175 174/174/174 173/173/173
f 177/177/177 128/128/128 176/176/176
f 179/179/179 117/117/117 178/178/178
f 182/182/182 181/181/181 180/180/180
f 181/181/181 182/182/182 183/183/183
f 184/184/184 183/183/183 182/182/182
f 182/182/182 180/180/180 185/185/185
f 186/186/186 185/185/185 180/180/180
f 181/181/181 187/187/187 180/180/180
f 184/184/184 182/182/182 188/188/188
f 189/189/189 188/188/188 182/182/182
f 189/189/189 182/182/182 190/190/190
f 182/182/182 185/185/185 190/190/190
f 191/191/191 190/190/190 185/185/185
f 192/192/192 189/189/189 190/190/190
f 185/185/185 194/194/194 193/193/193
f 180/180/180 195/195/195 194/194/194
f 193/193/193 194/194/194 196/196/196
f 197/197/197 196/196/196 194/194/194
f 199/199/199 185/185/185 198/198/198
f 200/200/200 190/190/190 199/199/199
f 198/198/198 201/201/201 199/199/199
f 202/202/202 199/199/199 201/201/201
f 205/205/205 204/204/204 203/203/203
f 206/206/206 203/203/203 204/204/204
f 208/208/208 206/206/206 207/207/207
f 209/209/209 207/207/207 206/206/206
f 211/211/211 206/206/206 210/210/210
f 213/213/213 210/210/210 212/212/212
f 216/216/216 215/215/215 214/214/214
f 217/217/217 214/214/214 215/215/215
f 215/215/215 218/218/218 217/217/217
f 219/219/219 217/217/217 218/218/218
f 217/217/217 220/220/220 214/214/214
f 221/221/221 214/214/214 220/220/220
f 220/220/220 217/217/217 222/222/222
f 219/219/219 222/222/222 217/217/217
f 224/224/224 219/219/219 223/223/223
f 225/225/225 223/223/223 219/219/219
f 224/224/224 223/223/223 226/226/226
f 227/227/227 226/226/226 223/223/223
f 227/227/227 223/223/223 228/228/228
f 227/227/227 228/228/228 229/229/229
f 227/227/227 229/229/229 226/226/226
f 230/230/230 228/228/228 223/223/223
f 231/231/231 226/226/226 229/229/229
f 229/229/229 232/232/232 231/231/231
f 233/233/233 231/231/231 232/232/232
f 232/232/232 234/234/234 233/233/233
f 235/235/235 233/233/233 234/234/234
f 234/234/234 236/236/236 235/235/235
f 234/234/234 232/232/232 236/236/236
f 229/229/229 236/236/236 232/232/232
f 237/237/237 235/235/235 236/236/236
f 236/236/236 229/229/229 238/238/238
f 228/228/228 238/238/238 229/229/229
f 228/228/228 239/239/239 238/238/238
f 239/239/239 228/228/228 240/240/240
f 241/241/241 240/240/240 228/228/228
f 242/242/242 238/238/238 239/239/239
f 238/238/238 242/242/242 236/236/236
f 236/236/236 242/242/242 243/243/243
f 240/240/240 244/244/244 239/239/239
f 245/245/245 239/239/239 244/244/244
f 246/246/246 239/239/239 245/245/245
f 233/233/233 247/247/247 231/231/231
f 235/235/235 248/248/248 233/233/233
f 247/247/247 233/233/233 248/248/248
f 248/248/248 235/235/235 249/249/249
f 248/248/248 249/249/249 247/247/247
f 250/250/250 249/249/249 235/235/235
f 251/251/251 247/247/247 249/249/249
f 251/251/251 231/231/231 247/247/247
f 231/231/231 251/251/251 226/226/226
f 252/252/252 226/226/226 251/251/251
f 252/252/252 253/253/253 226/226/226
f 224/224/224 226/226/226 253/253/253
f 224/224/224 253/253/253 219/219/219
f 254/254/254 219/219/219 253/253/253
f 255/255/255 252/252/252 251/251/251
f 252/252/252 255/255/255 253/253/253
f 256/256/256 253/253/253 255/255/255
f 251/251/251 249/249/249 257/257/257
f 257/257/257 255/255/255 251/251/251
f 255/255/255 257/257/257 258/258/258
f 258/258/258 259/259/259 255/255/255
f 260/260/260 255/255/255 259/259/259
f 261/261/261 258/258/258 257/257/257
f 257/257/257 249/249/249 261/261/261
f 259/259/259 258/258/258 262/262/262
f 263/263/263 262/262/262 258/258/258
f 258/258/258 264/264/264 263/263/263
f 265/265/265 261/261/261 249/249/249
f 267/267/267 262/262/262 266/266/266
f 268/268/268 266/266/266 262/262/262
f 271/271/271 270/270/270 269/269/269
f 272/272/272 269/269/269 270/270/270
f 269/269/269 272/272/272 273/273/273
f 269/269/269 273/273/273 274/274/274
f 275/275/275 274/274/274 273/273/273
f 273/273/273 276/276/276 275/275/275
f 277/277/277 275/275/275 276/276/276
f 276/276/276 273/273/273 278/278/278
f 272/272/272 278/278/278 273/273/273
f 278/278/278 279/279/279 276/276/276
f 277/277/277 276/276/276 279/279/279
f 279/279/279 280/280/280 277/277/277
f 277/277/277 280/280/280 281/281/281
f 281/281/281 280/280/280 282/282/282
f 283/283/283 282/282/282 280/280/280
f 283/283/283 284/284/284 282/282/282
f 281/281/281 285/285/285 277/277/277
f 285/285/285 286/286/286 277/277/277
f 286/286/286 275/275/275 277/277/277
f 285/285/285 281/281/281 287/287/287
f 282/282/282 287/287/287 281/281/281
f 282/282/282 288/288/288 287/287/287
f 287/287/287 289/289/289 285/285/285
f 285/285/285 289/289/289 286/286/286
f 290/290/290 286/286/286 289/289/289
f 290/290/290 289/289/289 291/291/291
f 291/291/291 289/289/289 292/292/292
f 293/293/293 292/292/292 289/289/289
f 289/289/289 294/294/294 293/293/293
f 293/293/293 294/294/294 292/292/292
f 287/287/287 294/294/294 289/289/289
f 295/295/295 292/292/292 294/294/294
f 296/296/296 292/292/292 295/295/295
f 294/294/294 297/297/297 295/295/295
f 297/297/297 298/298/298 295/295/295
f 298/298/298 297/297/297 299/299/299
f 300/300/300 298/298/298 299/299/299
f 299/299/299 301/301/301 300/300/300
f 302/302/302 300/300/300 301/301/301
f 302/302/302 301/301/301 303/303/303
f 304/304/304 303/303/303 301/301/301
f 301/301/301 299/299/299 305/305/305
f 297/297/297 305/305/305 299/299/299
f 297/297/297 294/294/294 305/305/305
f 304/304/304 301/301/301 306/306/306
f 305/305/305 306/306/306 307/307/307
f 308/308/308 305/305/305 294/294/294
f 294/294/294 287/287/287 308/308/308
f 305/305/305 309/309/309 306/306/306
f 310/310/310 306/306/306 309/309/309
f 310/310/310 309/309/309 311/311/311
f 309/309/309 312/312/312 311/311/311
f 298/298/298 300/300/300 313/313/313
f 314/314/314 298/298/298 313/313/313
f 298/298/298 314/314/314 295/295/295
f 314/314/314 315/315/315 295/295/295
f 295/295/295 315/315/315 316/316/316
f 316/316/316 296/296/296 295/295/295
f 317/317/317 316/316/316 315/315/315
f 315/315/315 318/318/318 317/317/317
f 317/317/317 318/318/318 316/316/316
f 314/314/314 313/313/313 319/319/319
f 314/314/314 319/319/319 315/315/315
f 320/320/320 319/319/319 313/313/313
f 313/313/313 300/300/300 320/320/320
f 302/302/302 320/320/320 300/300/300
f 302/302/302 321/321/321 320/320/320
f 322/322/322 320/320/320 321/321/321
f 322/322/322 323/323/323 320/320/320
f 319/319/319 324/324/324 323/323/323
f 325/325/325 315/315/315 319/319/319
f 315/315/315 325/325/325 326/326/326
f 315/315/315 326/326/326 318/318/318
f 318/318/318 326/326/326 327/327/327
f 327/327/327 326/326/326 328/328/328
f 327/327/327 328/328/328 329/329/329
f 330/330/330 329/329/329 328/328/328
f 330/330/330 331/331/331 329/329/329
f 332/332/332 329/329/329 331/331/331
f 329/329/329 332/332/332 333/333/333
f 334/334/334 333/333/333 332/332/332
f 333/333/333 334/334/334 274/274/274
f 269/269/269 274/274/274 334/334/334
f 335/335/335 269/269/269 334/334/334
f 335/335/335 336/336/336 269/269/269
f 337/337/337 269/269/269 336/336/336
f 335/335/335 334/334/334 338/338/338
f 332/332/332 338/338/338 334/334/334
f 331/331/331 338/338/338 332/332/332
f 328/328/328 339/339/339 330/330/330
f 339/339/339 328/328/328 326/326/326
f 340/340/340 330/330/330 339/339/339
f 341/341/341 340/340/340 339/339/339
f 333/333/333 342/342/342 329/329/329
f 342/342/342 327/327/327 329/329/329
f 327/327/327 342/342/342 318/318/318
f 343/343/343 318/318/318 342/342/342
f 318/318/318 343/343/343 344/344/344
f 344/344/344 316/316/316 318/318/318
f 335/335/335 338/338/338 345/345/345
f 346/346/346 345/345/345 338/338/338
f 338/338/338 331/331/331 346/346/346
f 335/335/335 347/347/347 336/336/336
f 339/339/339 326/326/326 348/348/348
f 350/350/350 349/349/349 348/348/348
f 352/352/352 331/331/331 351/351/351
f 330/330/330 351/351/351 331/331/331
f 330/330/330 340/340/340 351/351/351
f 353/353/353 351/351/351 340/340/340
f 353/353/353 340/340/340 354/354/354
f 353/353/353 354/354/354 355/355/355
f 352/352/352 356/356/356 331/331/331
f 357/357/357 336/336/336 347/347/347
f 359/359/359 358/358/358 288/288/288
f 362/362/362 361/361/361 360/360/360
f 283/283/283 361/361/361 362/362/362
f 361/361/361 283/283/283 363/363/363
f 280/280/280 363/363/363 283/283/283
f 280/280/280 279/279/279 363/363/363
f 364/364/364 363/363/363 279/279/279
f 364/364/364 279/279/279 365/365/365
f 278/278/278 366/366/366 279/279/279
f 366/366/366 278/278/278 367/367/367
f 272/272/272 367/367/367 278/278/278
f 272/272/272 270/270/270 368/368/368
f 369/369/369 368/368/368 270/270/270
f 371/371/371 244/244/244 370/370/370
f 372/372/372 370/370/370 244/244/244
f 375/375/375 374/374/374 373/373/373
f 376/376/376 375/375/375 373/373/373
f 378/378/378 376/376/376 377/377/377
f 379/379/379 377/377/377 376/376/376
f 382/382/382 381/381/381 380/380/380
f 383/383/383 380/380/380 381/381/381
f 319/319/319 323/323/323 384/384/384
f 385/385/385 384/384/384 323/323/323
f 384/384/384 385/385/385 386/386/386
f 387/387/387 384/384/384 386/386/386
f 390/390/390 389/389/389 388/388/388
f 391/391/391 388/388/388 389/389/389
f 391/391/391 392/392/392 388/388/388
f 393/393/393 388/388/388 392/392/392
f 393/393/393 392/392/392 394/394/394
f 395/395/395 394/394/394 392/392/392
f 395/395/395 396/396/396 394/394/394
f 397/397/397 394/394/394 396/396/396
f 396/396/396 398/398/398 397/397/397
f 399/399/399 397/397/397 398/398/398
f 398/398/398 400/400/400 399/399/399
f 401/401/401 399/399/399 400/400/400
f 402/402/402 401/401/401 400/400/400
f 401/401/401 402/402/402 403/403/403
f 404/404/404 403/403/403 402/402/402
f 404/404/404 405/405/405 403/403/403
f 404/404/404 406/406/406 405/405/405
f 407/407/407 405/405/405 406/406/406
f 409/409/409 408/408/408 390/390/390
f 389/389/389 390/390/390 408/408/408
f 412/412/412 411/411/411 410/410/410
f 413/413/413 410/410/410 411/411/411
f 412/412/412 410/410/410 414/414/414
f 415/415/415 414/414/414 410/410/410
f 415/415/415 416/416/416 414/414/414
f 417/417/417 414/414/414 416/416/416
f 417/417/417 416/416/416 418/418/418
f 419/419/419 418/418/418 416/416/416
f 418/418/418 419/419/419 420/420/420
f 421/421/421 420/420/420 419/419/419
f 420/420/420 421/421/421 422/422/422
f 423/423/423 422/422/422 421/421/421
f 423/423/423 424/424/424 422/422/422
f 423/423/423 425/425/425 424/424/424
f 426/426/426 424/424/424 425/425/425
f 427/427/427 426/426/426 425/425/425
f 426/426/426 427/427/427 428/428/428
f 429/429/429 428/428/428 427/427/427
f 411/411/411 430/430/430 413/413/413
f 431/431/431 413/413/413 430/430/430
