g blue_asn_m_pve_1_hand_r
v -0.536351979 0.0730619952 1.18498003
v -0.498632014 0.0528359972 1.22687995
v -0.504975975 0.0895540044 1.22024
v -0.529495001 0.0417600013 1.19053996
v -0.52423501 0.117083997 1.22457993
v -0.557143986 0.100423999 1.18419993
v -0.53451097 0.0139639992 1.19857001
v -0.508058012 0.0185359996 1.24276996
v -0.485240996 0.13622199 1.25816
v -0.464039981 0.106645003 1.24362993
v -0.477910995 0.121091001 1.25969994
v -0.463128984 0.0803269967 1.25663996
v -0.459328979 0.125294998 1.27336991
v -0.484866977 0.143693 1.29197001
v -0.503793955 0.138253003 1.2778399
v -0.530008018 0.140735 1.30457985
v -0.515152991 0.150325999 1.32570994
v -0.443637013 0.0840120018 1.27096999
v -0.469294995 0.152450994 1.27705002
v -0.489363998 0.156367987 1.34537995
v -0.446099997 0.157038003 1.30673993
v -0.446096987 0.11727199 1.26574993
v -0.416832983 0.124511994 1.29297996
v -0.439942002 0.0844409987 1.26953995
v -0.402747989 0.0750239938 1.29746985
v -0.452095985 0.0430950001 1.28865993
v -0.443706006 0.0229559988 1.29520988
v -0.465119004 0.01822 1.31621993
v -0.469182014 0.0417019986 1.27632999
v -0.48525396 0.010484999 1.29988992
v -0.504617989 -0.00437799981 1.32861996
v -0.527478993 -0.0132560004 1.28798997
v -0.479833961 -0.00381099992 1.35167992
v -0.411862969 0.0315389968 1.32075
v -0.456585974 -0.00204199995 1.37715995
v -0.417699009 0.0511349998 1.33055997
v -0.411240995 0.0907359943 1.31375003
v -0.437301993 0.0212840009 1.35587001
v -0.465133011 0.0203159992 1.39134991
v -0.417064011 0.0299589988 1.38425004
v -0.453185976 0.0242049992 1.41184998
v -0.403151006 0.0410629995 1.40457988
v -0.43294397 0.0330270007 1.43481004
v -0.458178997 0.0508900024 1.45381999
v -0.48129499 0.0472389981 1.42930996
v -0.487008989 0.0868289992 1.43596995
v -0.467934966 0.088496998 1.45604002
v -0.392517 0.0620969981 1.35689998
v -0.383029997 0.105416998 1.34425998
v -0.376857966 0.109206997 1.36031008
v -0.381428987 0.0680160001 1.37765002
v -0.382831007 0.100459993 1.36082995
v -0.392742991 0.0686289966 1.38038993
v -0.394245982 0.148838997 1.34561992
v -0.390662998 0.147920996 1.36169994
v -0.430247992 0.164421991 1.36855996
v -0.415556967 0.167546004 1.38229001
v -0.45488897 0.161986008 1.39432001
v -0.44036898 0.160778999 1.41071999
v -0.478185982 0.132091999 1.42393994
v -0.460018992 0.130735993 1.43906999
v -0.487008989 0.0868289992 1.43596995
v -0.467934966 0.088496998 1.45604002
v -0.491960973 0.127726004 1.39862001
v -0.463521987 0.162308007 1.36695993
v -0.451501995 0.148343995 1.32623994
v -0.416931003 0.158585995 1.36895001
v -0.396930009 0.139961004 1.35768008
v -0.44739899 0.143307999 1.40499997
v -0.457878977 0.123682 1.42425001
v -0.439436972 0.157484993 1.39050996
v -0.463303983 0.084092997 1.44546998
v -0.41959098 0.128355995 1.30867994
v -0.568838 0.133151993 1.22232997
v -0.557143986 0.100423999 1.18419993
v -0.592862964 0.125179008 1.18989992
v -0.551768005 0.131228998 1.26339996
v -0.541575968 0.138236001 1.2908299
v -0.693378985 0.0571149997 1.17012
v -0.667724967 0.0874139965 1.1753099
v -0.673668981 0.0915450007 1.18005991
v -0.686906934 0.055751998 1.16508996
v -0.594199002 0.142168999 1.17400002
v -0.589898944 0.13552399 1.17164004
v -0.701294005 0.0230710004 1.15200996
v -0.708092988 0.0224710014 1.15693998
v -0.643862963 0.040194001 1.26231003
v -0.630186975 0.0701159984 1.26956999
v -0.615750968 0.0993340015 1.26997995
v -0.608975947 0.0916769952 1.28794992
v -0.59007901 0.101887994 1.31415999
v -0.630567968 0.0789309964 1.34427989
v -0.646041989 0.0651459992 1.30273998
v -0.5722 0.102426 1.34524
v -0.600283027 0.0777229965 1.37943995
v -0.562427998 0.113972992 1.35369003
v -0.561506987 0.0891829953 1.37580991
v -0.547541976 0.0947599933 1.39779007
v -0.497821003 0.145183995 1.45572007
v -0.502080977 0.102884993 1.47370994
v -0.493831992 0.103836998 1.46817994
v -0.490880996 0.140482992 1.4533
v -0.467603981 0.169346005 1.3680799
v -0.515152991 0.150325999 1.32570994
v -0.63813597 0.0194389988 1.30676997
v -0.621059954 0.0149670001 1.27371001
v -0.596283972 0.00483699981 1.29419994
v -0.620562971 0.0167939998 1.34850001
v -0.575406015 0.00407700008 1.32134986
v -0.560279965 0.013824 1.35005999
v -0.592419028 0.0330859981 1.38289988
v -0.553745985 0.0349279977 1.37962008
v -0.546932995 0.00820400007 1.36218989
v -0.539528966 0.0371479988 1.40154004
v -0.478461981 0.0130460002 1.46632993
v -0.440614015 -0.0148839997 1.38286996
v -0.498082012 -0.0173969995 1.33264005
v -0.494945973 -0.0100899991 1.32923007
v -0.495010972 0.0546349995 1.47757995
v -0.600284994 -0.0062330002 1.27846003
v -0.573608994 0.000984999933 1.32031989
v -0.535755992 -0.0276629999 1.27340996
v -0.519931972 -0.0213790014 1.30473995
v -0.516707003 -0.0140540004 1.30145991
v -0.565225959 -0.0555949993 1.18988001
v -0.655945957 -0.0294269975 1.18976998
v -0.651318967 -0.0245679989 1.18429995
v -0.562944949 -0.0484539978 1.18641996
v -0.684419036 -0.00403899979 1.17502999
v -0.678490996 -0.00168999995 1.16971004
v -0.701294005 0.0230710004 1.15200996
v -0.701294005 0.0230710004 1.15200996
v -0.532442987 -0.0203200001 1.27025998
v -0.516707003 -0.0140540004 1.30145991
v -0.559909999 0.137206003 1.26016998
v -0.568838 0.133151993 1.22232997
v -0.551768005 0.131228998 1.26339996
v -0.574037015 0.139250994 1.22467005
v -0.58908999 0.106653005 1.31184006
v -0.54322499 0.140284002 1.29150999
v -0.541575968 0.138236001 1.2908299
v -0.530008018 0.140735 1.30457985
v -0.515152991 0.150325999 1.32570994
v -0.589898944 0.13552399 1.17164004
v -0.489363998 0.156367987 1.34537995
v -0.463521987 0.162308007 1.36695993
v -0.467603981 0.169346005 1.3680799
v -0.490880996 0.140482992 1.4533
v -0.463521987 0.162308007 1.36695993
v -0.574037015 0.139250994 1.22467005
v -0.594199002 0.142168999 1.17400002
v -0.637215972 0.0328999981 1.17998004
v -0.627605021 0.0717649981 1.19476998
v -0.617540002 0.0244129989 1.20079994
v -0.646835983 0.0704120025 1.17341995
v -0.615845978 0.102916002 1.17578006
v -0.634550989 0.102867998 1.1485399
v -0.663751006 0.0744509995 1.15009999
v -0.659744024 0.0363430008 1.15939999
v -0.682622969 0.0328529999 1.12285995
v -0.685294032 0.0681120008 1.11468995
v -0.672063947 -0.011217 1.12909997
v -0.644141972 -0.0023109999 1.16597998
v -0.635847986 -0.0489719994 1.12633002
v -0.605031013 0.106599994 1.12933993
v -0.586241961 0.0975249931 1.16162002
v -0.605189025 0.107109003 1.19550002
v -0.557143986 0.100423999 1.18419993
v -0.669375956 0.096122995 1.09440994
v -0.64161396 0.0924540013 1.07025003
v -0.672617018 0.0923900008 1.05339992
v -0.693247974 0.0819789991 1.06009996
v -0.705609977 0.0526039973 1.07552993
v -0.704616964 0.0466900021 1.05586994
v -0.701903999 0.0163310003 1.08156002
v -0.700366974 0.00988299958 1.06077003
v -0.691220999 -0.0241149999 1.08945
v -0.689616978 -0.0286539998 1.06954002
v -0.658576965 -0.0548699982 1.08077002
v -0.672060013 -0.0595319979 1.06004
v -0.687766016 -0.0355429985 1.05634999
v -0.676166952 -0.0668240041 1.01622999
v -0.691031992 -0.0450679995 1.01337993
v -0.685662985 -0.0768089965 0.988109946
v -0.699774027 -0.0547189973 0.985044003
v -0.696119964 -0.0847679973 0.958059013
v -0.706176996 -0.0660559982 0.954403996
v -0.667030036 -0.0785299987 0.983509958
v -0.656584024 -0.0684060007 1.01125002
v -0.648146987 -0.0627779961 1.05219996
v -0.648146987 -0.0627779961 1.05219996
v -0.691430926 -0.0244289991 1.05279994
v -0.699953973 0.00309100002 1.04866993
v -0.700364947 0.0123249991 1.04701996
v -0.685055017 0.0132089993 1.03454006
v -0.704461932 -0.00575699983 0.999652028
v -0.694989979 -0.0349709988 1.00425994
v -0.673262 -0.0286330003 1.04022002
v -0.673729002 -0.03675 0.997461975
v -0.703159034 -0.0417619981 0.974542975
v -0.68256104 -0.0442590006 0.966785967
v -0.686448932 0.00655899988 0.991985977
v -0.712457955 -0.0129669998 0.969419003
v -0.686448932 0.00655899988 0.991985977
v -0.69529295 -0.00168999995 0.960610926
v -0.713095009 -0.0460809991 0.941964984
v -0.72052598 -0.0230269991 0.937516987
v -0.696651995 -0.0466820002 0.932779968
v -0.706309974 -0.0149839995 0.928152978
v -0.703832984 0.0331019983 0.993582964
v -0.703405976 0.0406230018 1.04499996
v -0.686845005 0.0476919971 1.03228998
v -0.68582195 0.0414729975 0.989488959
v -0.693058968 0.035726998 0.963905036
v -0.709124982 0.0271509998 0.968647957
v -0.699298978 0.00469500013 0.996475935
v -0.704330981 -0.000729999971 0.972150981
v -0.684049964 0.00748099945 1.0352
v -0.680325985 0.001391 0.994210958
v -0.710483968 0.0191339999 0.941103935
v -0.69856298 0.0240899995 0.935912967
v -0.706708968 -0.00301299989 0.943755984
v -0.693934023 -0.00423400011 0.939100027
v -0.69856298 0.0240899995 0.935912967
v -0.687231958 -0.00323799998 0.968832016
v -0.700364947 0.0123249991 1.04701996
v -0.703685999 0.0498559996 1.04611003
v -0.701448977 0.0765779987 1.04589999
v -0.704128027 0.0701119974 1.00045991
v -0.704697013 0.0434259959 1.00294995
v -0.708080947 0.0647720024 0.979764998
v -0.694657981 0.0691870004 0.974896014
v -0.688089967 0.0739369988 0.996074975
v -0.708889961 0.0388309993 0.982335925
v -0.682554007 0.0833279938 1.03803003
v -0.686845005 0.0476919971 1.03228998
v -0.686482012 0.0423050001 1.03261995
v -0.703685999 0.0498559996 1.04611003
v -0.686392963 0.0362689979 1.00115001
v -0.693692029 0.0327150002 0.980054021
v -0.713877976 0.0568769984 0.957507968
v -0.712076008 0.0370809995 0.959195971
v -0.704533994 0.0590689965 0.952108979
v -0.704533994 0.0590689965 0.952108979
v -0.704533994 0.0590689965 0.952108979
v -0.701084971 0.0336479992 0.954647958
v -0.693692029 0.0327150002 0.980054021
v -0.597876966 -0.0267519988 1.18043995
v -0.605458975 -0.0600309968 1.12916994
v -0.579936981 -0.0384400003 1.17351997
v -0.584555984 -0.074510999 1.14408994
v -0.561841965 -0.0625229999 1.14039004
v -0.560682952 -0.0382039994 1.16136003
v -0.615309954 -0.0479109995 1.08998001
v -0.602690995 -0.0463950001 1.08876991
v -0.635550976 -0.0540530011 1.07493997
v -0.585994005 -0.0783599988 1.11254001
v -0.561515987 -0.0789529979 1.10815001
v -0.591030002 -0.0906009972 1.07941997
v -0.607406974 -0.0694210008 1.10352993
v -0.602690995 -0.0463950001 1.08876991
v -0.603074968 -0.0508129969 1.07953
v -0.607468009 -0.0814900026 1.07755995
v -0.60341996 -0.0547790006 1.07123995
v -0.567969024 -0.0909239948 1.07535005
v -0.612527013 -0.104579002 1.04854
v -0.608639002 -0.0882689953 1.03987002
v -0.607069969 -0.0656189993 1.05246997
v -0.599561989 -0.116831996 1.05039001
v -0.576510012 -0.116228998 1.04747999
v -0.648146987 -0.0627779961 1.05219996
v -0.635550976 -0.0540530011 1.07493997
v -0.628804982 0.00207099994 1.18327999
v -0.578077972 -0.00992099941 1.20247996
v -0.576602995 0.00276499987 1.21399999
v -0.552448988 0.00372599973 1.20468998
v -0.556324959 -0.00805199984 1.18798995
v -0.549239993 -0.0380609967 1.12540996
v -0.560682952 -0.0382039994 1.16136003
v -0.546492994 -0.0138139995 1.13861001
v -0.561841965 -0.0625229999 1.14039004
v -0.556324959 -0.00805199984 1.18798995
v -0.546139956 0.0105139995 1.17513001
v -0.552448988 0.00372599973 1.20468998
v -0.53451097 0.0139639992 1.19857001
v -0.54865998 0.0391249992 1.16097999
v -0.56515801 0.0228029992 1.11179996
v -0.558497965 0.0656500012 1.15752995
v -0.576656997 0.0761250034 1.11511004
v -0.536351979 0.0730619952 1.18498003
v -0.529495001 0.0417600013 1.19053996
v -0.586241961 0.0975249931 1.16162002
v -0.605031013 0.106599994 1.12933993
v -0.620279968 0.0661999956 1.06813002
v -0.64161396 0.0924540013 1.07025003
v -0.61323601 0.0370259993 1.07380998
v -0.607836008 0.00181799987 1.07577002
v -0.653608024 0.00903499965 1.02314997
v -0.647213936 -0.0146049997 1.02672994
v -0.664411008 0.00188199989 0.991026998
v -0.657487035 -0.0238179993 0.994213998
v -0.673729002 -0.03675 0.997461975
v -0.673262 -0.0286330003 1.04022002
v -0.656147957 0.0189379994 1.02259004
v -0.658675969 0.0404050015 1.02178001
v -0.666521966 0.0519849993 1.02587998
v -0.665143967 0.069619 1.02883005
v -0.672881961 0.0652140006 0.998979032
v -0.671895981 0.0469419993 1.00142992
v -0.674975932 0.0640039966 0.991353989
v -0.673804998 0.045517996 0.993789971
v -0.688089967 0.0739369988 0.996074975
v -0.678653002 0.0618549995 0.978699028
v -0.694657981 0.0691870004 0.974896014
v -0.686482012 0.0423050001 1.03261995
v -0.666687965 0.000154999987 0.983554959
v -0.686448932 0.00655899988 0.991985977
v -0.672069013 -0.00455299998 0.963895977
v -0.65961796 -0.0257240012 0.986736953
v -0.664366961 -0.0299609993 0.968096972
v -0.68256104 -0.0442590006 0.966785967
v -0.667529941 -0.0314420015 0.960978985
v -0.683206022 -0.0358659998 0.937219977
v -0.696651995 -0.0466820002 0.932779968
v -0.675007999 -0.00698099937 0.956947029
v -0.688435972 -0.017719999 0.934527934
v -0.696651995 -0.0466820002 0.932779968
v -0.706309974 -0.0149839995 0.928152978
v -0.69529295 -0.00168999995 0.960610926
v -0.686448932 0.00655899988 0.991985977
v -0.686448932 0.00655899988 0.991985977
v -0.685055017 0.0132089993 1.03454006
v -0.684049964 0.00748099945 1.0352
v -0.653608024 0.00903499965 1.02314997
v -0.680325985 0.001391 0.994210958
v -0.665036023 0.0132050002 0.994044006
v -0.684049964 0.00748099945 1.0352
v -0.668445945 0.0338400006 0.991712034
v -0.68582195 0.0414729975 0.989488959
v -0.686845005 0.0476919971 1.03228998
v -0.670590937 0.0322429985 0.984169006
v -0.674068987 0.0293249991 0.969963968
v -0.693058968 0.035726998 0.963905036
v -0.667192996 0.011717 0.986482978
v -0.670869946 0.0089809997 0.972312987
v -0.687231958 -0.00323799998 0.968832016
v -0.676454008 0.0273959991 0.962567985
v -0.673435986 0.00805300009 0.964804947
v -0.683527946 0.0218149982 0.945116997
v -0.681112945 0.00711099943 0.946803927
v -0.69856298 0.0240899995 0.935912967
v -0.693934023 -0.00423400011 0.939100027
v -0.693934023 -0.00423400011 0.939100027
v -0.679135978 -0.0836480036 0.952152014
v -0.696119964 -0.0847679973 0.958059013
v -0.679135978 -0.0836480036 0.952152014
v -0.692799985 -0.0540219992 0.946468949
v -0.687021017 -0.0415920019 0.977123022
v -0.678261042 -0.0323759988 1.00549006
v -0.675506949 -0.0237130001 1.03904998
v -0.692799985 -0.0540219992 0.946468949
v -0.692799985 -0.0540219992 0.946468949
v -0.664630949 -0.0672100037 0.959805965
v -0.672589004 -0.0491819978 0.956371963
v -0.679135978 -0.0836480036 0.952152014
v -0.665569007 -0.0406539999 0.974610984
v -0.655179977 -0.0606859997 0.978314936
v -0.667030036 -0.0785299987 0.983509958
v -0.679135978 -0.0836480036 0.952152014
v -0.652557969 -0.0582539961 0.985426009
v -0.656584024 -0.0684060007 1.01125002
v -0.649132967 -0.0534740016 0.999813974
v -0.663402021 -0.0381680019 0.981854022
v -0.659983993 -0.0346040018 0.997227967
v -0.678261042 -0.0323759988 1.00549006
v -0.687021017 -0.0415920019 0.977123022
v -0.65763396 -0.0326649994 1.00459993
v -0.675506949 -0.0237130001 1.03904998
v -0.646829009 -0.0250789989 1.03019989
v -0.646796048 -0.0512580015 1.00712991
v -0.63479501 -0.0431379974 1.03689003
v -0.648146987 -0.0627779961 1.05219996
v -0.646829009 -0.0250789989 1.03019989
v -0.60444802 -0.0266309995 1.0769999
v -0.582277 -0.0249659978 1.08341002
v -0.602690995 -0.0463950001 1.08876991
v -0.615309954 -0.0479109995 1.08998001
v -0.635550976 -0.0540530011 1.07493997
v -0.673262 -0.0286330003 1.04022002
v -0.553406 -0.0554729961 1.09511995
v -0.561515987 -0.0789529979 1.10815001
v -0.562431991 -0.0649449974 1.06829
v -0.567969024 -0.0909239948 1.07535005
v -0.578105986 -0.0391779989 1.07902992
v -0.580685019 -0.051599998 1.06414998
v -0.603074968 -0.0508129969 1.07953
v -0.60341996 -0.0547790006 1.07123995
v -0.607069969 -0.0656189993 1.05246997
v -0.585144997 -0.0624199994 1.04527998
v -0.590959966 -0.0860029981 1.03471994
v -0.608639002 -0.0882689953 1.03987002
v -0.563894987 -0.0762749985 1.04868996
v -0.570971966 -0.0979559943 1.03769994
v -0.576510012 -0.116228998 1.04747999
v -0.602690995 -0.0463950001 1.08876991
v -0.576510012 -0.116228998 1.04747999
v -0.608639002 -0.0882689953 1.03987002
v -0.599561989 -0.116831996 1.05039001
v -0.612527013 -0.104579002 1.04854
v -0.602690995 -0.0463950001 1.08876991
v -0.646829009 -0.0250789989 1.03019989
v -0.673262 -0.0286330003 1.04022002
v -0.675506949 -0.0237130001 1.03904998
v -0.602690995 -0.0463950001 1.08876991
v -0.615309954 -0.0479109995 1.08998001
v -0.635550976 -0.0540530011 1.07493997
v -0.648146987 -0.0627779961 1.05219996
v -0.658675969 0.0404050015 1.02178001
v -0.686482012 0.0423050001 1.03261995
v -0.686845005 0.0476919971 1.03228998
v -0.696651995 -0.0466820002 0.932779968
v -0.706309974 -0.0149839995 0.928152978
v -0.686482012 0.0423050001 1.03261995
v -0.686482012 0.0423050001 1.03261995
v -0.686392963 0.0362689979 1.00115001
v -0.677276969 0.0434559993 0.981404006
v -0.693692029 0.0327150002 0.980054021
v -0.68197602 0.0600849986 0.971741021
v -0.680379987 0.042417001 0.97417295
v -0.693476975 0.0542559996 0.955345988
v -0.690440953 0.0404139981 0.957244039
v -0.701084971 0.0336479992 0.954647958
v -0.704533994 0.0590689965 0.952108979
v -0.693692029 0.0327150002 0.980054021
v -0.682554007 0.0833279938 1.03803003
v -0.672617018 0.0923900008 1.05339992
v -0.691430926 -0.0244289991 1.05279994
v -0.675506949 -0.0237130001 1.03904998
v -0.673262 -0.0286330003 1.04022002
v -0.692799985 -0.0540219992 0.946468949
v -0.679135978 -0.0836480036 0.952152014
v -0.679135978 -0.0836480036 0.952152014
v -0.557143986 0.100423999 1.18419993
v -0.605189025 0.107109003 1.19550002
v -0.59007901 0.101887994 1.31415999
v -0.58908999 0.106653005 1.31184006
v -0.562427998 0.113972992 1.35369003
v -0.615750968 0.0993340015 1.26997995
v -0.470026016 0.00639799982 1.3993299
v -0.481958002 0.0302859992 1.40400994
v -0.456585974 -0.00204199995 1.37715995
v -0.470026016 0.00639799982 1.3993299
v -0.481958002 0.0302859992 1.40400994
v -0.457872987 0.0631200001 1.25094998
v -0.471558988 0.020996999 1.27956998
v -0.560153008 -0.00977799948 1.25275004
v -0.552448988 0.00372599973 1.20468998
v -0.494945973 -0.0100899991 1.32923007
v -0.440614015 -0.0148839997 1.38286996
v -0.43868196 -0.00723999972 1.38057995
v -0.473095983 0.0190919992 1.46304989
v -0.473095983 0.0190919992 1.46304989
v -0.486389995 0.0530429967 1.47226
v -0.473095983 0.0190919992 1.46304989
v -0.551548004 0.0655249953 1.40692985
v -0.557278991 0.0636700019 1.39880991
v -0.551706016 0.0728569999 1.49906003
v -0.551548004 0.0655249953 1.40692985
v -0.501357019 0.0601279996 1.50539994
v -0.541754007 0.0794319957 1.56278002
v -0.508163989 0.0716919973 1.56408989
v -0.523558021 0.0844069943 1.59152997
v -0.504861951 0.0795679986 1.58938003
v -0.498926997 0.0896419957 1.61178994
v -0.551706016 0.0728569999 1.49906003
v -0.507233024 0.100236997 1.50216997
v -0.551548004 0.0655249953 1.40692985
v -0.541754007 0.0794319957 1.56278002
v -0.511803031 0.0965299979 1.56208992
v -0.523558021 0.0844069943 1.59152997
v -0.506972969 0.0939759985 1.58822
v -0.498926997 0.0896419957 1.61178994
v -0.573608994 0.000984999933 1.32031989
v -0.596283972 0.00483699981 1.29419994
v -0.575406015 0.00407700008 1.32134986
v -0.560279965 0.013824 1.35005999
v -0.495010972 0.0546349995 1.47757995
v -0.507233024 0.100236997 1.50216997
v -0.502080977 0.102884993 1.47370994
v -0.501357019 0.0601279996 1.50539994
v -0.493831992 0.103836998 1.46817994
v -0.486389995 0.0530429967 1.47226
v -0.511803031 0.0965299979 1.56208992
v -0.508163989 0.0716919973 1.56408989
v -0.506972969 0.0939759985 1.58822
v -0.504861951 0.0795679986 1.58938003
v -0.498926997 0.0896419957 1.61178994
v -0.431496978 0.0444139987 1.42159998
v -0.419055998 0.0478789993 1.40768003
v -0.457405984 0.0633659959 1.44626009
v -0.467934966 0.088496998 1.45604002
v -0.463303983 0.084092997 1.44546998
v -0.565225959 -0.0555949993 1.18988001
v -0.532442987 -0.0203200001 1.27025998
v -0.562944949 -0.0484539978 1.18641996
v -0.592862964 0.125179008 1.18989992
v -0.605189025 0.107109003 1.19550002
v -0.560153008 -0.00977799948 1.25275004
v -0.576602995 0.00276499987 1.21399999
v -0.59273994 -0.0202699993 1.22413003
v -0.617540002 0.0244129989 1.20079994
v -0.651318967 -0.0245679989 1.18429995
v -0.532442987 -0.0203200001 1.27025998
v -0.678490996 -0.00168999995 1.16971004
v -0.686906934 0.055751998 1.16508996
v -0.701294005 0.0230710004 1.15200996
v -0.627605021 0.0717649981 1.19476998
v -0.667724967 0.0874139965 1.1753099
v -0.605189025 0.107109003 1.19550002
v -0.592862964 0.125179008 1.18989992
v -0.552448988 0.00372599973 1.20468998
v -0.532442987 -0.0203200001 1.27025998
v -0.562944949 -0.0484539978 1.18641996
v -0.651318967 -0.0245679989 1.18429995
v -0.527478993 -0.0132560004 1.28798997
v -0.516707003 -0.0140540004 1.30145991
v -0.560153008 -0.00977799948 1.25275004
v -0.568838 0.133151993 1.22232997
v -0.589898944 0.13552399 1.17164004
v -0.589898944 0.13552399 1.17164004
v -0.667724967 0.0874139965 1.1753099
v -0.516707003 -0.0140540004 1.30145991
v -0.504617989 -0.00437799981 1.32861996
v -0.527478993 -0.0132560004 1.28798997
v -0.504617989 -0.00437799981 1.32861996
v -0.516707003 -0.0140540004 1.30145991
v -0.494945973 -0.0100899991 1.32923007
v -0.479833961 -0.00381099992 1.35167992
v -0.43868196 -0.00723999972 1.38057995
v -0.456585974 -0.00204199995 1.37715995
v -0.470026016 0.00639799982 1.3993299
v -0.473095983 0.0190919992 1.46304989
v -0.487008989 0.0868289992 1.43596995
v -0.486389995 0.0530429967 1.47226
v -0.493831992 0.103836998 1.46817994
v -0.48129499 0.0472389981 1.42930996
v -0.490880996 0.140482992 1.4533
v -0.491960973 0.127726004 1.39862001
v -0.463521987 0.162308007 1.36695993
v -0.473095983 0.0190919992 1.46304989
v -0.481958002 0.0302859992 1.40400994
v -0.470026016 0.00639799982 1.3993299
vt 0.519699991 0.601700008
vt 0.551800013 0.508099973
vt 0.514199972 0.509899974
vt 0.550999999 0.598999977
vt 0.480599999 0.514800012
vt 0.488200009 0.616999984
vt 0.578299999 0.606599987
vt 0.589900017 0.512000024
vt 0.479299992 0.414700001
vt 0.511799991 0.420700014
vt 0.4921 0.397700012
vt 0.535700023 0.398000002
vt 0.493999988 0.357499987
vt 0.458299994 0.363000005
vt 0.45629999 0.407200009
vt 0.4208 0.404000014
vt 0.413899988 0.343100011
vt 0.536599994 0.353700012
vt 0.471899986 0.340200007
vt 0.419400007 0.264499992
vt 0.470800012 0.275299996
vt 0.507200003 0.343300015
vt 0.50940001 0.268099993
vt 0.535899997 0.34799999
vt 0.552200019 0.270099998
vt 0.580500007 0.360799998
vt 0.595700026 0.338
vt 0.619000018 0.355599999
vt 0.579200029 0.397500008
vt 0.620199978 0.405999988
vt 0.656099975 0.399100006
vt 0.64410001 0.487199992
vt 0.66049999 0.329899997
vt 0.593200028 0.268999994
vt 0.663600028 0.245399997
vt 0.584500015 0.234699994
vt 0.541700006 0.236399993
vt 0.627900004 0.230100006
vt 0.667299986 0.189099997
vt 0.621900022 0.161899999
vt 0.662500024 0.143900007
vt 0.615999997 0.112199999
vt 0.65200001 0.0886999965
vt 0.67869997 0.058699999
vt 0.696200013 0.1109
vt 0.723399997 0.0559
vt 0.706099987 0.0156999994
vt 0.577499986 0.166500002
vt 0.535600007 0.157499999
vt 0.53490001 0.124700002
vt 0.576600015 0.122000001
vt 0.541700006 0.1118
vt 0.57980001 0.102600001
vt 0.495799989 0.153699994
vt 0.495599985 0.125400007
vt 0.4551 0.151800007
vt 0.460700005 0.115199998
vt 0.423599988 0.137999997
vt 0.42719999 0.0961999968
vt 0.383300006 0.104699999
vt 0.389200002 0.0636000037
vt 0.341800004 0.0771000013
vt 0.351099998 0.0263
vt 0.377299994 0.156900004
vt 0.427599996 0.1928
vt 0.461199999 0.244000003
vt 0.472200006 0.0958999991
vt 0.500400007 0.107900001
vt 0.424499989 0.0599000007
vt 0.397399992 0.0386999995
vt 0.443699986 0.0777999982
vt 0.3574 0.00579999993
vt 0.502900004 0.242500007
vt 0.446099997 0.570900023
vt 0.488200009 0.616999984
vt 0.450300008 0.646700025
vt 0.435099989 0.4912
vt 0.423099995 0.440400004
vt 0.809899986 0.0577999987
vt 0.773999989 0.0842999965
vt 0.778400004 0.0973000005
vt 0.805899978 0.0443999991
vt 0.699299991 0.1655
vt 0.694299996 0.159700006
vt 0.839699984 0.00769999996
vt 0.839699984 0.0182000007
vt 0.837499976 0.248999998
vt 0.803799987 0.277500004
vt 0.773299992 0.297300011
vt 0.778900027 0.329600006
vt 0.76730001 0.394899994
vt 0.811399996 0.400900006
vt 0.819100022 0.327899992
vt 0.772899985 0.467999995
vt 0.816500008 0.474599987
vt 0.765399992 0.487699986
vt 0.797599971 0.52700001
vt 0.796400011 0.573199987
vt 0.745100021 0.713699996
vt 0.783500016 0.734300017
vt 0.778199971 0.749800026
vt 0.741599977 0.725199997
vt 0.680999994 0.602100015
vt 0.701699972 0.486099988
vt 0.85650003 0.33070001
vt 0.873000026 0.279900014
vt 0.895600021 0.33160001
vt 0.860899985 0.402500004
vt 0.903599977 0.400099993
vt 0.89410001 0.468800008
vt 0.852199972 0.477299988
vt 0.868700027 0.529399991
vt 0.899600029 0.493900001
vt 0.869400024 0.574899971
vt 0.921599984 0.719099998
vt 0.987100005 0.60799998
vt 0.959699988 0.479799986
vt 0.967599988 0.476700008
vt 0.882200003 0.737100005
vt 0.901300013 0.300799996
vt 0.903199971 0.397300005
vt 0.960099995 0.345499992
vt 0.957000017 0.413700014
vt 0.964999974 0.412900001
vt 0.977400005 0.176899999
vt 0.899999976 0.101000004
vt 0.904500008 0.0882999972
vt 0.9824 0.171700001
vt 0.868799984 0.0595999993
vt 0.873099983 0.0463999994
vt 0.839699984 0.00769999996
vt 0.839699984 0.00769999996
vt 0.967999995 0.3477
vt 0.964999974 0.412900001
vt 0.712499976 0.335700005
vt 0.698899984 0.266200006
vt 0.704900026 0.348399997
vt 0.70660001 0.264400005
vt 0.767799973 0.39230001
vt 0.712499976 0.403499991
vt 0.709999979 0.40290001
vt 0.704400003 0.434700012
vt 0.701699972 0.486099988
vt 0.694299996 0.159700006
vt 0.686800003 0.541899979
vt 0.674799979 0.605199993
vt 0.680999994 0.602100015
vt 0.741599977 0.725199997
vt 0.674799979 0.605199993
vt 0.70660001 0.264400005
vt 0.699299991 0.1655
vt 0.0747999996 0.221200004
vt 0.0573999994 0.155699998
vt 0.0513000004 0.239500001
vt 0.0816000029 0.156000003
vt 0.0617000014 0.0886000022
vt 0.0900000036 0.0854000002
vt 0.1052 0.147200003
vt 0.100199997 0.211400002
vt 0.137400001 0.211199999
vt 0.140200004 0.152700007
vt 0.130899996 0.286199987
vt 0.0907000005 0.278800011
vt 0.1153 0.371899992
vt 0.0904000029 0.0255999994
vt 0.0573000014 0.0310999993
vt 0.0419000015 0.0917000026
vt 0.0273000002 0.0118000004
vt 0.144500002 0.0914999992
vt 0.152400002 0.0324000008
vt 0.173500001 0.0729999989
vt 0.179800004 0.111599997
vt 0.179499999 0.169400007
vt 0.198200002 0.167799994
vt 0.179199994 0.2315
vt 0.199900001 0.240700006
vt 0.170399994 0.301400006
vt 0.188099995 0.316399992
vt 0.161300004 0.374900013
vt 0.181600004 0.381500006
vt 0.197699994 0.34040001
vt 0.207399994 0.4375
vt 0.224099994 0.404700011
vt 0.226099998 0.476599991
vt 0.242300004 0.445800006
vt 0.2465 0.510399997
vt 0.260800004 0.490700006
vt 0.215000004 0.50150001
vt 0.194700003 0.46419999
vt 0.171200007 0.4199
vt 0.171200007 0.4199
vt 0.204999998 0.313499987
vt 0.211899996 0.255499989
vt 0.212500006 0.227200001
vt 0.228 0.241799995
vt 0.255400002 0.282299995
vt 0.248400003 0.335299999
vt 0.217700005 0.342799991
vt 0.246999994 0.374500006
vt 0.274500012 0.3477
vt 0.275200009 0.385699987
vt 0.263000011 0.245100006
vt 0.281899989 0.297800004
vt 0.263000011 0.245100006
vt 0.291099995 0.264200002
vt 0.302100003 0.353700012
vt 0.307500005 0.319299996
vt 0.310699999 0.37560001
vt 0.319999993 0.308400005
vt 0.254299998 0.156399995
vt 0.208700001 0.174099997
vt 0.223199993 0.147
vt 0.251899987 0.1206
vt 0.276300013 0.119999997
vt 0.275599986 0.151700005
vt 0.2597 0.207800001
vt 0.280600011 0.197799996
vt 0.228200004 0.235799998
vt 0.264499992 0.238499999
vt 0.298900008 0.150099993
vt 0.305500001 0.134299994
vt 0.302599996 0.183899999
vt 0.3116 0.192100003
vt 0.305500001 0.134299994
vt 0.28670001 0.224199995
vt 0.212500006 0.227200001
vt 0.205500007 0.150099993
vt 0.192200005 0.112099998
vt 0.221100003 0.0628999993
vt 0.236200005 0.0960000008
vt 0.235699996 0.0416000001
vt 0.230599999 0.0188999996
vt 0.214100003 0.0373999998
vt 0.25029999 0.072300002
vt 0.185800001 0.0775000006
vt 0.223199993 0.147
vt 0.222000003 0.141200006
vt 0.205500007 0.150099993
vt 0.247700006 0.1162
vt 0.260699987 0.0892999992
vt 0.252900004 0.0238000005
vt 0.263099998 0.0454000011
vt 0.254799992 0.00850000046
vt 0.254799992 0.00850000046
vt 0.254799992 0.00850000046
vt 0.272100002 0.0449000001
vt 0.260699987 0.0892999992
vt 0.056400001 0.340200007
vt 0.0951000005 0.418300003
vt 0.0487000011 0.373899996
vt 0.0716999993 0.434199989
vt 0.0520000011 0.449900001
vt 0.0362999998 0.404900014
vt 0.132699996 0.432999998
vt 0.128600001 0.453099996
vt 0.152099997 0.412200004
vt 0.0846000016 0.476799995
vt 0.0666999966 0.501399994
vt 0.0996000022 0.530799985
vt 0.105499998 0.466300011
vt 0.128600001 0.453099996
vt 0.131400004 0.469900012
vt 0.114699997 0.514699996
vt 0.134000003 0.484699994
vt 0.0812999979 0.549300015
vt 0.124700002 0.577199996
vt 0.138400003 0.562300026
vt 0.140400007 0.51880002
vt 0.113399997 0.594699979
vt 0.0949999988 0.60710001
vt 0.171200007 0.4199
vt 0.152099997 0.412200004
vt 0.0707999989 0.274699986
vt 0.0289999992 0.316399992
vt 0.0201999992 0.292699993
vt 0.00410000002 0.322899997
vt 0.0148999998 0.351200014
vt 0.409399986 0.593100011
vt 0.426899999 0.539200008
vt 0.396400005 0.555400014
vt 0.436800003 0.584100008
vt 0.415699989 0.478199989
vt 0.39410001 0.479299992
vt 0.416900009 0.445899993
vt 0.40110001 0.435000002
vt 0.366299987 0.477699995
vt 0.354900002 0.574999988
vt 0.342700005 0.462399989
vt 0.317400008 0.525399983
vt 0.355100006 0.404399991
vt 0.379500002 0.421099991
vt 0.307399988 0.438899994
vt 0.28639999 0.484400004
vt 0.286000013 0.6171
vt 0.26699999 0.584999979
vt 0.308299989 0.646899998
vt 0.337199986 0.681400001
vt 0.281199992 0.762700021
vt 0.307900012 0.788100004
vt 0.271200001 0.830200016
vt 0.289700001 0.848999977
vt 0.303200006 0.873199999
vt 0.315699995 0.831900001
vt 0.262300014 0.737600029
vt 0.246000007 0.698499978
vt 0.231800005 0.664900005
vt 0.231800005 0.629400015
vt 0.204799995 0.627900004
vt 0.205200002 0.658100009
vt 0.197999999 0.626399994
vt 0.197999999 0.658200026
vt 0.199399993 0.5977
vt 0.186800003 0.62650001
vt 0.178100005 0.600000024
vt 0.220899999 0.687300026
vt 0.26730001 0.843999982
vt 0.251800001 0.826799989
vt 0.259799987 0.877900004
vt 0.287600011 0.863799989
vt 0.280900002 0.895399988
vt 0.292100012 0.929700017
vt 0.278499991 0.906000018
vt 0.265899986 0.949000001
vt 0.267199993 0.980000019
vt 0.257600009 0.888999999
vt 0.2509 0.936100006
vt 0.267199993 0.980000019
vt 0.237000003 0.954699993
vt 0.239199996 0.88380003
vt 0.251800001 0.826799989
vt 0.251800001 0.826799989
vt 0.2579 0.778800011
vt 0.256000012 0.776000023
vt 0.281199992 0.762700021
vt 0.237399995 0.799700022
vt 0.233600006 0.768100023
vt 0.256000012 0.776000023
vt 0.224299997 0.743399978
vt 0.210299999 0.725700021
vt 0.222399995 0.690699995
vt 0.217700005 0.751100004
vt 0.207100004 0.766900003
vt 0.189600006 0.753899992
vt 0.227799997 0.778900027
vt 0.217600003 0.795899987
vt 0.218999997 0.833000004
vt 0.202199996 0.775200009
vt 0.212400004 0.80339998
vt 0.189999998 0.798900008
vt 0.197400004 0.819700003
vt 0.174600005 0.804499984
vt 0.191 0.850399971
vt 0.191 0.850399971
vt 0.242400005 0.536800027
vt 0.2465 0.510399997
vt 0.242400005 0.536800027
vt 0.271800011 0.518999994
vt 0.255299985 0.424499989
vt 0.237800002 0.386799991
vt 0.215900004 0.346700013
vt 0.274100006 0.469300002
vt 0.34009999 0.988900006
vt 0.360500008 0.944400012
vt 0.344300002 0.949999988
vt 0.372200012 0.977299988
vt 0.339100003 0.915499985
vt 0.3583 0.907299995
vt 0.377200007 0.913200021
vt 0.372200012 0.977299988
vt 0.356999993 0.895299971
vt 0.369399995 0.857800007
vt 0.353799999 0.869099975
vt 0.337900013 0.903699994
vt 0.335500002 0.876100004
vt 0.319200009 0.878199995
vt 0.323000014 0.934700012
vt 0.334800005 0.860899985
vt 0.319099993 0.833500028
vt 0.327600002 0.800499976
vt 0.351900011 0.854700029
vt 0.348399997 0.795400023
vt 0.372900009 0.797699988
vt 0.327600002 0.800499976
vt 0.361699998 0.702799976
vt 0.376899987 0.667699993
vt 0.379700005 0.717899978
vt 0.380400002 0.725799978
vt 0.379500002 0.761900008
vt 0.315699995 0.831900001
vt 0.416799992 0.649900019
vt 0.441000015 0.639400005
vt 0.421999991 0.697700024
vt 0.447699994 0.69569999
vt 0.392100006 0.683499992
vt 0.403100014 0.714600027
vt 0.3829 0.727800012
vt 0.386999995 0.74150002
vt 0.40079999 0.77700001
vt 0.412699997 0.748000026
vt 0.428600013 0.778400004
vt 0.424400002 0.806800008
vt 0.429699987 0.729200006
vt 0.443599999 0.756799996
vt 0.459399998 0.766499996
vt 0.379700005 0.717899978
vt 0.459399998 0.766499996
vt 0.424400002 0.806800008
vt 0.453399986 0.806900024
vt 0.439900011 0.822600007
vt 0.379700005 0.717899978
vt 0.327600002 0.800499976
vt 0.315699995 0.831900001
vt 0.319099993 0.833500028
vt 0.379700005 0.717899978
vt 0.380400002 0.725799978
vt 0.379500002 0.761900008
vt 0.372900009 0.797699988
vt 0.246000007 0.698499978
vt 0.220899999 0.687300026
vt 0.222399995 0.690699995
vt 0.310699999 0.37560001
vt 0.319999993 0.308400005
vt 0.220899999 0.687300026
vt 0.220899999 0.687300026
vt 0.198799998 0.685899973
vt 0.186900005 0.658200026
vt 0.178100005 0.687900007
vt 0.180600002 0.627200007
vt 0.180700004 0.657999992
vt 0.162900001 0.631900012
vt 0.164100006 0.655900002
vt 0.155100003 0.668200016
vt 0.154499993 0.618700027
vt 0.178100005 0.687900007
vt 0.230700001 0.585799992
vt 0.242400005 0.571799994
vt 0.204999998 0.313499987
vt 0.215900004 0.346700013
vt 0.217700005 0.342799991
vt 0.34009999 0.988900006
vt 0.242400005 0.536800027
vt 0.242400005 0.536800027
vt 0.326999992 0.390399992
vt 0.0419000015 0.0917000026
vt 0.76730001 0.394899994
vt 0.767799973 0.39230001
vt 0.765399992 0.487699986
vt 0.773299992 0.297300011
vt 0.679700017 0.209399998
vt 0.686699986 0.1646
vt 0.663600028 0.245399997
vt 0.679700017 0.209399998
vt 0.686699986 0.1646
vt 0.549499989 0.41929999
vt 0.596300006 0.416299999
vt 0.636200011 0.575800002
vt 0.596099973 0.624599993
vt 0.967599988 0.476700008
vt 0.987100005 0.60799998
vt 0.993200004 0.611199975
vt 0.925000012 0.730099976
vt 0.925000012 0.730099976
vt 0.889400005 0.750400007
vt 0.925000012 0.730099976
vt 0.833000004 0.587599993
vt 0.833000004 0.560299993
vt 0.832700014 0.762000024
vt 0.833000004 0.587599993
vt 0.877600014 0.784200013
vt 0.833100021 0.875699997
vt 0.861599982 0.897499979
vt 0.833500028 0.932699978
vt 0.849300027 0.949699998
vt 0.833800018 0.99089998
vt 0.832700014 0.762000024
vt 0.787899971 0.783800006
vt 0.833000004 0.587599993
vt 0.833100021 0.875699997
vt 0.804799974 0.898100019
vt 0.833500028 0.932699978
vt 0.817799985 0.950200021
vt 0.833800018 0.99089998
vt 0.903199971 0.397300005
vt 0.895600021 0.33160001
vt 0.903599977 0.400099993
vt 0.89410001 0.468800008
vt 0.515200019 0.744199991
vt 0.539900005 0.658500016
vt 0.513100028 0.653299987
vt 0.541599989 0.734099984
vt 0.503899992 0.653800011
vt 0.506099999 0.749499977
vt 0.595499992 0.667800009
vt 0.596599996 0.714600027
vt 0.620000005 0.675400019
vt 0.620599985 0.702499986
vt 0.642700016 0.68690002
vt 0.640100002 0.068400003
vt 0.620800018 0.0810000002
vt 0.6778 0.0333000012
vt 0.706099987 0.0156999994
vt 0.694999993 0.00600000005
vt 0.977400005 0.176899999
vt 0.967999995 0.3477
vt 0.9824 0.171700001
vt 0.450300008 0.646700025
vt 0.457300007 0.68629998
vt 0.0590999983 0.82980001
vt 0.0573000014 0.783500016
vt 0.0419999994 0.795099974
vt 0.0496000014 0.735499978
vt 0.0168999992 0.736500025
vt 0.0654999986 0.863900006
vt 0.0157999992 0.69569999
vt 0.0364000015 0.649100006
vt 0.0164999999 0.655200005
vt 0.0653999969 0.693700016
vt 0.0568000004 0.645900011
vt 0.0874999985 0.686399996
vt 0.0991000012 0.679700017
vt 0.0710999966 0.781499982
vt 0.0654999986 0.863900006
vt 0.0185000002 0.832899988
vt 0.0168999992 0.736500025
vt 0.0758000016 0.869000018
vt 0.0820999965 0.882499993
vt 0.0590999983 0.82980001
vt 0.109200001 0.718999982
vt 0.105300002 0.66049999
vt 0.105300002 0.66049999
vt 0.0568000004 0.645900011
vt 0.156499997 0.766200006
vt 0.144700006 0.789900005
vt 0.165099993 0.759800017
vt 0.144700006 0.789900005
vt 0.156499997 0.766200006
vt 0.139599994 0.783500016
vt 0.127299994 0.800199986
vt 0.100699998 0.807299972
vt 0.110200003 0.81400001
vt 0.111299999 0.843100011
vt 0.0973000005 0.906899989
vt 0.136000007 0.926599979
vt 0.110100001 0.937600017
vt 0.133699998 0.966000021
vt 0.1206 0.896000028
vt 0.154300004 0.974900007
vt 0.165299997 0.919099987
vt 0.194600001 0.916400015
vt 0.0973000005 0.906899989
vt 0.1215 0.863699973
vt 0.111299999 0.843100011
vn 0.704934597 0.268014431 -0.656685233
vn 0.684962034 -0.255995035 -0.682124376
vn 0.559466004 0.242195353 -0.792678475
vn 0.815939963 -0.109871745 -0.56760031
vn 0.351491213 0.738676667 -0.575161397
vn 0.429372549 0.627689123 -0.649342537
vn 0.692043483 -0.646175086 -0.321766406
vn 0.595162213 -0.684375882 -0.421202689
vn 0.501972139 0.86049062 -0.0870630965
vn 0.8444134 0.386219233 -0.371215165
vn 0.779156983 0.618107617 -0.104198933
vn 0.980848074 0.0794712901 -0.177823871
vn -0.181232318 0.211754948 -0.96037215
vn -0.438804597 0.570250154 -0.694453239
vn 0.00318103516 0.961909711 -0.273348659
vn 0.273896188 0.834203124 -0.478629321
vn -0.355874628 0.933826268 -0.0363574624
vn 0.0595513321 -0.214649335 -0.97487396
vn -0.181013182 0.620653629 -0.762904525
vn 0.225704551 0.855104625 -0.46674782
vn 0.446630031 0.893977821 -0.0364031419
vn 0.0992474258 0.15697901 -0.982602358
vn 0.813821077 0.429779202 -0.3911331
vn 0.188585073 -0.184943303 -0.964485168
vn 0.950450003 -0.076089099 -0.301422238
vn 0.100332215 -0.555725455 -0.825289428
vn 0.079049319 -0.714624107 -0.695027769
vn 0.0146622462 -0.824947178 -0.565019667
vn 0.921346843 -0.375075817 -0.102167435
vn 0.547964096 -0.808279216 -0.215453267
vn 0.790645719 -0.147183731 -0.59431994
vn 0.815123975 -0.0574027039 -0.576435447
vn 0.668183863 -0.09747722 -0.737582922
vn 0.866632581 -0.498945057 0.0013386854
vn 0.835873485 0.547374249 -0.0411938801
vn 0.949704647 -0.303375959 0.0776157826
vn 0.984657466 0.0310410522 -0.171714962
vn 0.791368246 -0.513333201 0.332001954
vn 0.553946197 -0.590643406 0.586757243
vn 0.502506375 -0.864531338 -0.00853576604
vn -0.0265127812 -0.950356543 0.310031474
vn 0.764278293 -0.294798672 0.573561072
vn 0.542946398 -0.483790576 0.686407983
vn 0.0658708289 -0.28896451 0.955070972
vn 0.634792984 -0.436636925 0.637484133
vn 0.422045112 0.241497904 0.873817325
vn 0.0633688495 0.147734717 0.986994803
vn 0.771388233 -0.515383601 -0.373282552
vn 0.86465174 -0.04802588 -0.500071049
vn 0.86114198 0.0980383083 0.498821616
vn 0.911609232 -0.0715495571 0.404782921
vn -0.326211333 0.325406045 0.887523055
vn 0.242952228 0.541787386 0.804636955
vn 0.615756631 0.675502479 -0.405635476
vn 0.647071123 0.412160218 0.64142257
vn 0.0410422683 0.968470514 -0.245724216
vn 0.792989373 0.46272856 0.396295488
vn -0.373692274 0.90277648 0.212952361
vn 0.569862783 0.533749521 0.624794185
vn -0.661325216 0.55057776 0.509424269
vn 0.325532824 0.407731116 0.853102386
vn 0.422045112 0.241497904 0.873817325
vn 0.0633688495 0.147734717 0.986994803
vn 0.510304153 0.391206533 0.765863657
vn 0.287304878 0.942488134 -0.170798227
vn 0.334955543 0.94179368 0.0288028419
vn 0.0597289726 -0.79985553 0.597213149
vn -0.190758675 -0.284457684 0.939518452
vn 0.905632377 -0.390793383 0.164652631
vn 0.962894082 -0.161754176 0.21603407
vn 0.607782125 -0.766844153 0.206278518
vn 0.935751498 0.140514627 0.32345745
vn 0.782149553 0.556794882 -0.279681146
vn 0.572807074 0.743755341 -0.344557762
vn 0.429372549 0.627689123 -0.649342537
vn 0.488627762 -0.460103542 -0.741314828
vn 0.365962416 0.877492487 -0.309965283
vn 0.325175881 0.865005851 -0.382132828
vn -0.866325378 0.478736281 -0.142449185
vn -0.0126975859 0.222490802 -0.974852085
vn -0.740291297 0.644361138 -0.191748381
vn -0.000537899672 0.315309972 -0.948988676
vn 0.000215453212 0.881489158 -0.472204238
vn 0.595696628 -0.0476281643 -0.801796198
vn -0.118683308 -0.0967675745 -0.988205552
vn -0.945996165 -0.161109835 -0.281309128
vn -0.948850274 -0.115367837 0.293893427
vn -0.845348001 0.508028388 0.165208414
vn -0.688991129 0.625373423 0.366332352
vn -0.75592196 0.607274175 0.244540647
vn -0.682058871 0.661122561 0.312590212
vn -0.783106446 0.48478967 0.389516681
vn -0.936551452 0.3470487 0.0492796786
vn -0.64292562 0.634878039 0.428458303
vn -0.520002425 0.45699507 0.721632242
vn -0.712391317 0.624276578 0.320589006
vn -0.59004271 0.577586591 0.564130604
vn -0.837604046 0.302228421 0.45505771
vn -0.153490603 0.731626272 0.664201558
vn 0.0527232811 0.692937136 0.719067693
vn 0.794973016 0.170302659 0.58224988
vn 0.82018894 0.313878268 0.478299648
vn 0.371316642 0.921294868 -0.115497917
vn -0.355874628 0.933826268 -0.0363574624
vn -0.778386354 -0.61671412 0.117381886
vn -0.666057944 -0.698239982 0.26235038
vn -0.541241229 -0.768711269 0.340794533
vn -0.594914079 -0.651764214 0.470404804
vn -0.4478001 -0.79089278 0.417089671
vn -0.418969512 -0.734557569 0.533750653
vn -0.348430574 -0.49753207 0.794391572
vn -0.390418112 -0.63849473 0.663248181
vn -0.511275589 -0.742887974 0.432105005
vn -0.725196719 -0.455213904 0.516594589
vn 0.0458927825 -0.633759439 0.772167623
vn 0.621050715 -0.783484995 0.02114865
vn 0.227253392 -0.966829479 -0.116604626
vn 0.711955309 0.155603066 -0.684767962
vn 0.22420454 -0.524344265 0.821459353
vn -0.487773478 -0.732612312 0.474716961
vn -0.489981711 -0.752646208 0.439819843
vn 0.36917147 -0.925079107 0.0891128704
vn 0.295410782 -0.955085516 -0.0233238507
vn 0.842667818 0.0626703054 -0.534774184
vn 0.25925374 -0.907619238 -0.330174029
vn -0.521197498 -0.850390494 -0.0720360205
vn 0.119800232 -0.355150878 -0.927100658
vn 0.574979186 0.11458382 -0.810104609
vn -0.690165579 -0.722155333 -0.0465102717
vn 0.113946371 -0.446759999 -0.887367904
vn -0.118683308 -0.0967675745 -0.988205552
vn -0.118683308 -0.0967675745 -0.988205552
vn 0.87035042 0.176647857 -0.459658176
vn 0.842667818 0.0626703054 -0.534774184
vn 0.0608744025 0.997576296 -0.033703845
vn 0.572807074 0.743755341 -0.344557762
vn 0.365962416 0.877492487 -0.309965283
vn 0.119662717 0.992807746 0.003699678
vn -0.696831167 0.634881377 0.333694547
vn 0.0191323683 0.982961476 -0.182813495
vn 0.325175881 0.865005851 -0.382132828
vn 0.273896188 0.834203124 -0.478629321
vn -0.355874628 0.933826268 -0.0363574624
vn 0.595696628 -0.0476281643 -0.801796198
vn 0.225704551 0.855104625 -0.46674782
vn 0.287304878 0.942488134 -0.170798227
vn 0.371316642 0.921294868 -0.115497917
vn 0.82018894 0.313878268 0.478299648
vn 0.287304878 0.942488134 -0.170798227
vn 0.119662717 0.992807746 0.003699678
vn 0.000215453212 0.881489158 -0.472204238
vn -0.716631889 -0.0994668454 0.690322399
vn -0.580034256 0.320015609 -0.749099731
vn -0.309456706 -0.835623026 -0.453840107
vn -0.727865517 0.285281032 0.623559594
vn -0.37617448 0.903299272 0.206259698
vn -0.406913102 0.882218301 0.236880824
vn -0.769807935 0.395612895 0.500885308
vn -0.774405479 -0.0671068579 0.629120708
vn -0.869687676 -0.0452029482 0.491528332
vn -0.847423911 0.350407243 0.398857623
vn -0.745835543 -0.397360295 0.534634531
vn -0.650198102 -0.393277019 0.65005821
vn -0.418735564 -0.841052353 0.342478514
vn 0.30206117 0.931510746 -0.202600345
vn 0.410200149 0.88077569 -0.236580089
vn 0.0411405452 0.23701942 -0.970633388
vn 0.429372549 0.627689123 -0.649342537
vn -0.43868205 0.894431591 0.0868918002
vn 0.352943242 0.825758755 -0.439947307
vn -0.0767764971 0.93644774 -0.342302561
vn -0.712017477 0.698340118 0.0731585324
vn -0.971131086 0.179108962 0.157557786
vn -0.99877423 0.0359457061 -0.0340264738
vn -0.965590179 -0.137246653 0.220904753
vn -0.983913898 -0.178562716 0.00537393335
vn -0.826341569 -0.478996724 0.29617843
vn -0.879615247 -0.462296754 0.112066284
vn -0.295280665 -0.888213038 0.351975799
vn -0.501785755 -0.808690429 0.306970388
vn -0.93837887 -0.343652278 -0.0367175005
vn -0.453555524 -0.837027371 0.306059688
vn -0.979772329 0.137602597 0.145298496
vn -0.442256093 -0.813598931 0.377447098
vn -0.966332853 0.151155487 0.208213419
vn -0.505729079 -0.830954373 -0.23184678
vn -0.91257149 -0.0374377668 -0.407199651
vn 0.440669596 -0.895221531 0.0662468821
vn 0.503145814 -0.861979187 0.0619367138
vn 0.38001579 -0.922340333 0.069829978
vn 0.38001579 -0.922340333 0.069829978
vn -0.87988925 -0.471565962 -0.0584859215
vn -0.995496988 -0.0576122142 -0.0752762929
vn -0.951799333 -0.26048255 -0.161947697
vn -0.00281814043 0.889364064 0.45719102
vn -0.932680845 0.350244164 0.0862288997
vn -0.566803277 -0.78063035 0.263344169
vn 0.421800941 -0.561729014 0.711719453
vn 0.336324692 -0.932469964 0.131854251
vn -0.575776041 -0.757540643 0.307594031
vn 0.317750365 -0.947785854 0.0271412674
vn -0.201768205 0.962014616 -0.183894917
vn -0.921693504 0.362763554 0.137417853
vn -0.201768205 0.962014616 -0.183894917
vn -0.210088432 0.939841509 -0.269371212
vn -0.652343333 -0.730208397 -0.203085855
vn -0.918837011 0.146966547 -0.366250455
vn 0.125351593 -0.725137174 -0.67709893
vn -0.217547193 0.504887521 -0.835321307
vn -0.871895254 0.489686131 -0.00248452974
vn -0.970405161 0.0987859443 -0.220352635
vn 0.138881758 0.878289402 0.457514465
vn -0.00208715117 0.976714611 -0.214532599
vn -0.0645278022 0.954480767 -0.291208684
vn -0.903600156 0.428320378 0.00696015218
vn -0.681248128 -0.707803369 0.186856925
vn -0.678094864 -0.705594599 0.20572722
vn 0.326847643 -0.676503181 0.659934878
vn 0.268654525 -0.958043396 0.0998874307
vn -0.824675083 0.244423851 -0.510066748
vn -0.0375186875 0.515280485 -0.85619998
vn -0.656292796 -0.655022502 -0.374466568
vn 0.201793343 -0.703867435 -0.6810655
vn -0.0375186875 0.515280485 -0.85619998
vn 0.267878622 -0.963066995 0.0272578914
vn -0.951799333 -0.26048255 -0.161947697
vn -0.984018624 -0.0828747228 -0.157604694
vn -0.813287199 0.576069057 0.0819037184
vn -0.777742147 0.627356231 -0.0392587855
vn -0.809692025 -0.551929712 0.199430093
vn -0.804794431 0.593543589 -0.00346996449
vn 0.0597064123 0.934463918 -0.351015955
vn 0.146389201 0.959761798 -0.239640251
vn -0.79569459 -0.558107316 0.235342726
vn -0.0667098463 0.944235504 -0.322442651
vn 0.138881758 0.878289402 0.457514465
vn 0.29530406 -0.72984755 0.616537094
vn -0.984018624 -0.0828747228 -0.157604694
vn 0.183492109 -0.972474277 0.143611729
vn 0.110302202 -0.993267655 0.0353942774
vn -0.837210894 0.359593689 -0.412031859
vn -0.761119664 -0.549465716 -0.344650924
vn -0.108253576 0.521377385 -0.846431792
vn -0.108253576 0.521377385 -0.846431792
vn -0.108253576 0.521377385 -0.846431792
vn 0.0122997724 -0.739861429 -0.672646821
vn 0.110302202 -0.993267655 0.0353942774
vn -0.357904226 -0.648857772 0.671482086
vn -0.568752527 -0.770017743 0.289125055
vn 0.0570914522 -0.721173584 0.690397918
vn -0.129898503 -0.860544443 0.492533803
vn 0.679813445 -0.609603405 0.407722384
vn 0.715475738 -0.492235094 0.495781332
vn 0.209438846 -0.927596152 -0.309355468
vn -0.593749702 -0.187360093 -0.782532752
vn 0.31189841 -0.948352456 0.0578529537
vn -0.201855361 -0.922585309 0.328771383
vn 0.616137028 -0.752891183 0.231365755
vn -0.215999335 -0.823792338 0.524128437
vn -0.909894526 -0.366234303 0.194844782
vn -0.593749702 -0.187360093 -0.782532752
vn -0.770611644 0.573350012 -0.278257787
vn -0.896817744 -0.340252012 0.282748133
vn -0.731453001 0.632924497 -0.253738374
vn 0.696095526 -0.669455945 0.259383619
vn -0.859389722 -0.466384292 -0.209606588
vn -0.695787787 0.0533156022 -0.716265857
vn -0.755817413 0.514140904 -0.405461609
vn -0.338062018 -0.933526993 -0.119337425
vn 0.408038676 -0.884786606 -0.225071535
vn 0.38001579 -0.922340333 0.069829978
vn 0.31189841 -0.948352456 0.0578529537
vn -0.576452911 -0.386684507 0.719845235
vn -0.0254010819 -0.681016147 0.731827676
vn 0.0704409629 -0.995332062 -0.0659702048
vn 0.45325464 -0.890434325 0.0410736054
vn 0.721634924 -0.577889681 0.38116461
vn 0.992764533 -0.0757411569 -0.0931761935
vn 0.715475738 -0.492235094 0.495781332
vn 0.993447125 -0.0518542267 -0.101852179
vn 0.679813445 -0.609603405 0.407722384
vn 0.721634924 -0.577889681 0.38116461
vn 0.947335005 -0.303325772 -0.102712266
vn 0.45325464 -0.890434325 0.0410736054
vn 0.692043483 -0.646175086 -0.321766406
vn 0.891103446 0.114143081 -0.439210653
vn 0.795689344 0.180923298 -0.578052998
vn 0.775393963 0.396744907 -0.491281748
vn 0.733895481 0.480074286 -0.480547667
vn 0.704934597 0.268014431 -0.656685233
vn 0.815939963 -0.109871745 -0.56760031
vn 0.410200149 0.88077569 -0.236580089
vn 0.30206117 0.931510746 -0.202600345
vn 0.68123132 0.324872613 -0.656034827
vn 0.352943242 0.825758755 -0.439947307
vn 0.712612033 0.0779648945 -0.697212756
vn 0.649179757 0.0965835154 -0.754478157
vn 0.609396994 0.36598444 -0.703342438
vn 0.786834002 -0.245406643 -0.566275477
vn 0.645077109 0.674692214 -0.358700454
vn 0.920096874 -0.346047819 -0.183500856
vn 0.336324692 -0.932469964 0.131854251
vn 0.421800941 -0.561729014 0.711719453
vn 0.732672453 -0.193327457 -0.652545512
vn 0.624265134 0.467945367 -0.625555813
vn 0.659426451 -0.0629204363 -0.749131322
vn 0.679960847 0.492269307 -0.543437481
vn 0.837576985 0.464731127 -0.287210375
vn 0.88243711 -0.461427361 -0.0915948004
vn 0.828079462 0.467448354 -0.309477597
vn 0.881682634 -0.444863796 -0.15726395
vn 0.146389201 0.959761798 -0.239640251
vn 0.793411195 0.461799651 -0.396534771
vn 0.0597064123 0.934463918 -0.351015955
vn 0.29530406 -0.72984755 0.616537094
vn 0.647643745 0.678604424 -0.346487641
vn -0.201768205 0.962014616 -0.183894917
vn 0.629779696 0.663226664 -0.404361248
vn 0.924922943 -0.340028346 -0.169994801
vn 0.91306746 -0.334127516 -0.233809277
vn 0.317750365 -0.947785854 0.0271412674
vn 0.852188349 -0.349944353 -0.388990909
vn 0.696078718 -0.310382396 -0.647408068
vn 0.125351593 -0.725137174 -0.67709893
vn 0.580208957 0.61063087 -0.53896904
vn 0.504808307 0.413335174 -0.757840753
vn 0.125351593 -0.725137174 -0.67709893
vn -0.217547193 0.504887521 -0.835321307
vn -0.210088432 0.939841509 -0.269371212
vn -0.201768205 0.962014616 -0.183894917
vn -0.201768205 0.962014616 -0.183894917
vn -0.00281814043 0.889364064 0.45719102
vn 0.326847643 -0.676503181 0.659934878
vn 0.609396994 0.36598444 -0.703342438
vn 0.268654525 -0.958043396 0.0998874307
vn 0.90073508 -0.389682204 -0.191896006
vn 0.326847643 -0.676503181 0.659934878
vn 0.76116091 0.547070861 -0.348349929
vn -0.00208715117 0.976714611 -0.214532599
vn 0.138881758 0.878289402 0.457514465
vn 0.768282413 0.555187702 -0.318604469
vn 0.760348022 0.550681651 -0.344413429
vn -0.0645278022 0.954480767 -0.291208684
vn 0.906116843 -0.387662411 -0.169322193
vn 0.895909846 -0.396572053 -0.200190648
vn 0.267878622 -0.963066995 0.0272578914
vn 0.738806903 0.528267801 -0.418446451
vn 0.869547486 -0.394997925 -0.296418369
vn 0.66038686 0.406203061 -0.631575882
vn 0.793725431 -0.296389818 -0.53118062
vn -0.0375186875 0.515280485 -0.85619998
vn 0.201793343 -0.703867435 -0.6810655
vn 0.201793343 -0.703867435 -0.6810655
vn 0.29107964 -0.72269243 -0.626887858
vn -0.505729079 -0.830954373 -0.23184678
vn 0.29107964 -0.72269243 -0.626887858
vn -0.262274116 0.46309638 -0.846613348
vn -0.437357217 0.873511612 -0.213766694
vn -0.376755685 0.909105182 -0.177715749
vn -0.150331512 0.928005576 0.340890199
vn -0.262274116 0.46309638 -0.846613348
vn -0.262274116 0.46309638 -0.846613348
vn 0.792682827 -0.174269795 -0.584195137
vn 0.430238366 0.57630986 -0.694810629
vn 0.29107964 -0.72269243 -0.626887858
vn 0.451661468 0.761253595 -0.465290099
vn 0.927106798 -0.131558627 -0.350949198
vn 0.440669596 -0.895221531 0.0662468821
vn 0.29107964 -0.72269243 -0.626887858
vn 0.958171248 -0.0924053937 -0.270867199
vn 0.503145814 -0.861979187 0.0619367138
vn 0.96838522 -0.0365887322 -0.246761635
vn 0.46808508 0.801708817 -0.371697873
vn 0.478766233 0.814082742 -0.328712851
vn -0.376755685 0.909105182 -0.177715749
vn -0.437357217 0.873511612 -0.213766694
vn 0.45545581 0.801883936 -0.386706859
vn -0.150331512 0.928005576 0.340890199
vn 0.549391925 0.299147964 -0.780178785
vn 0.941806912 -0.0581466034 -0.331087381
vn 0.881700575 -0.212391511 -0.421300173
vn 0.38001579 -0.922340333 0.069829978
vn 0.549391925 0.299147964 -0.780178785
vn 0.53735286 -0.266848743 -0.800027311
vn 0.460134506 0.151212156 -0.874877751
vn -0.593749702 -0.187360093 -0.782532752
vn 0.209438846 -0.927596152 -0.309355468
vn 0.31189841 -0.948352456 0.0578529537
vn 0.421800941 -0.561729014 0.711719453
vn 0.956858814 0.0797413811 -0.279396981
vn 0.616137028 -0.752891183 0.231365755
vn 0.905789971 0.257718474 -0.336341679
vn 0.696095526 -0.669455945 0.259383619
vn 0.236080423 0.585913479 -0.775223434
vn 0.165247187 0.798869014 -0.578361154
vn -0.770611644 0.573350012 -0.278257787
vn -0.731453001 0.632924497 -0.253738374
vn -0.755817413 0.514140904 -0.405461609
vn 0.0886827558 0.675565362 -0.731947243
vn -0.0735348836 0.0659947321 -0.995106697
vn -0.695787787 0.0533156022 -0.716265857
vn 0.848658383 0.210851088 -0.48509872
vn 0.603892803 -0.254516959 -0.755337417
vn 0.408038676 -0.884786606 -0.225071535
vn -0.593749702 -0.187360093 -0.782532752
vn 0.408038676 -0.884786606 -0.225071535
vn -0.695787787 0.0533156022 -0.716265857
vn -0.338062018 -0.933526993 -0.119337425
vn -0.859389722 -0.466384292 -0.209606588
vn -0.593749702 -0.187360093 -0.782532752
vn 0.549391925 0.299147964 -0.780178785
vn 0.421800941 -0.561729014 0.711719453
vn -0.150331512 0.928005576 0.340890199
vn -0.593749702 -0.187360093 -0.782532752
vn 0.209438846 -0.927596152 -0.309355468
vn 0.31189841 -0.948352456 0.0578529537
vn 0.38001579 -0.922340333 0.069829978
vn 0.624265134 0.467945367 -0.625555813
vn 0.29530406 -0.72984755 0.616537094
vn 0.138881758 0.878289402 0.457514465
vn 0.125351593 -0.725137174 -0.67709893
vn -0.217547193 0.504887521 -0.835321307
vn 0.29530406 -0.72984755 0.616537094
vn 0.29530406 -0.72984755 0.616537094
vn 0.183492109 -0.972474277 0.143611729
vn 0.859926343 -0.452878743 -0.235430777
vn 0.110302202 -0.993267655 0.0353942774
vn 0.724456728 0.425678492 -0.542181134
vn 0.813391387 -0.452407062 -0.365680456
vn 0.547349095 0.291176081 -0.78461802
vn 0.663477302 -0.371675968 -0.64934957
vn 0.0122997724 -0.739861429 -0.672646821
vn -0.108253576 0.521377385 -0.846431792
vn 0.110302202 -0.993267655 0.0353942774
vn -0.0667098463 0.944235504 -0.322442651
vn -0.0767764971 0.93644774 -0.342302561
vn -0.87988925 -0.471565962 -0.0584859215
vn -0.150331512 0.928005576 0.340890199
vn 0.421800941 -0.561729014 0.711719453
vn -0.262274116 0.46309638 -0.846613348
vn 0.29107964 -0.72269243 -0.626887858
vn 0.29107964 -0.72269243 -0.626887858
vn 0.429372549 0.627689123 -0.649342537
vn 0.0411405452 0.23701942 -0.970633388
vn -0.682058871 0.661122561 0.312590212
vn -0.696831167 0.634881377 0.333694547
vn -0.712391317 0.624276578 0.320589006
vn -0.688991129 0.625373423 0.366332352
vn 0.738492548 0.648981094 0.182899639
vn 0.732182086 -0.402893841 0.549168408
vn 0.835873485 0.547374249 -0.0411938801
vn 0.738492548 0.648981094 0.182899639
vn 0.732182086 -0.402893841 0.549168408
vn 0.946464837 -0.168671563 -0.275234848
vn 0.834047735 -0.551509678 0.0141921323
vn 0.619576156 -0.401807934 -0.674296439
vn 0.45325464 -0.890434325 0.0410736054
vn 0.711955309 0.155603066 -0.684767962
vn 0.621050715 -0.783484995 0.02114865
vn 0.907303512 0.316086322 -0.277290195
vn 0.8780092 0.0306153782 0.477663666
vn 0.8780092 0.0306153782 0.477663666
vn 0.809026241 0.137955636 0.571353436
vn 0.8780092 0.0306153782 0.477663666
vn -0.853170633 -0.0801002607 0.515445352
vn -0.624557018 -0.0345439762 0.780214906
vn -0.985679865 -0.136500716 0.0990082026
vn -0.853170633 -0.0801002607 0.515445352
vn 0.631911874 -0.733406007 0.250604987
vn -0.93253839 -0.108963706 0.344236791
vn 0.627960443 -0.753866374 0.193264589
vn -0.764612615 -0.0604503378 0.641648889
vn 0.666773498 -0.729123294 0.154247567
vn 0.469874024 0.13884072 0.871746361
vn -0.985679865 -0.136500716 0.0990082026
vn 0.390669912 0.912898898 0.118289977
vn -0.853170633 -0.0801002607 0.515445352
vn -0.93253839 -0.108963706 0.344236791
vn 0.382451147 0.922111034 0.0586713403
vn -0.764612615 -0.0604503378 0.641648889
vn 0.427603155 0.903671503 0.023093842
vn 0.469874024 0.13884072 0.871746361
vn -0.489981711 -0.752646208 0.439819843
vn -0.541241229 -0.768711269 0.340794533
vn -0.4478001 -0.79089278 0.417089671
vn -0.418969512 -0.734557569 0.533750653
vn 0.22420454 -0.524344265 0.821459353
vn 0.390669912 0.912898898 0.118289977
vn 0.0527232811 0.692937136 0.719067693
vn 0.631911874 -0.733406007 0.250604987
vn 0.794973016 0.170302659 0.58224988
vn 0.809026241 0.137955636 0.571353436
vn 0.382451147 0.922111034 0.0586713403
vn 0.627960443 -0.753866374 0.193264589
vn 0.427603155 0.903671503 0.023093842
vn 0.666773498 -0.729123294 0.154247567
vn 0.469874024 0.13884072 0.871746361
vn 0.570561409 0.596923113 0.564041078
vn 0.407167166 0.665679038 0.625369012
vn 0.83593303 0.274065852 0.475503802
vn 0.0633688495 0.147734717 0.986994803
vn 0.935751498 0.140514627 0.32345745
vn 0.25925374 -0.907619238 -0.330174029
vn 0.87035042 0.176647857 -0.459658176
vn 0.574979186 0.11458382 -0.810104609
vn 0.488627762 -0.460103542 -0.741314828
vn 0.0411405452 0.23701942 -0.970633388
vn 0.619576156 -0.401807934 -0.674296439
vn 0.0704409629 -0.995332062 -0.0659702048
vn 0.500976741 0.307890117 -0.808842421
vn -0.309456706 -0.835623026 -0.453840107
vn 0.119800232 -0.355150878 -0.927100658
vn 0.87035042 0.176647857 -0.459658176
vn 0.113946371 -0.446759999 -0.887367904
vn -0.000537899672 0.315309972 -0.948988676
vn -0.118683308 -0.0967675745 -0.988205552
vn -0.580034256 0.320015609 -0.749099731
vn -0.0126975859 0.222490802 -0.974852085
vn 0.0411405452 0.23701942 -0.970633388
vn 0.488627762 -0.460103542 -0.741314828
vn 0.45325464 -0.890434325 0.0410736054
vn 0.87035042 0.176647857 -0.459658176
vn 0.574979186 0.11458382 -0.810104609
vn 0.119800232 -0.355150878 -0.927100658
vn 0.815123975 -0.0574027039 -0.576435447
vn 0.842667818 0.0626703054 -0.534774184
vn 0.619576156 -0.401807934 -0.674296439
vn 0.572807074 0.743755341 -0.344557762
vn 0.595696628 -0.0476281643 -0.801796198
vn 0.595696628 -0.0476281643 -0.801796198
vn -0.0126975859 0.222490802 -0.974852085
vn 0.842667818 0.0626703054 -0.534774184
vn 0.790645719 -0.147183731 -0.59431994
vn 0.815123975 -0.0574027039 -0.576435447
vn 0.790645719 -0.147183731 -0.59431994
vn 0.842667818 0.0626703054 -0.534774184
vn 0.711955309 0.155603066 -0.684767962
vn 0.668183863 -0.09747722 -0.737582922
vn 0.907303512 0.316086322 -0.277290195
vn 0.835873485 0.547374249 -0.0411938801
vn 0.738492548 0.648981094 0.182899639
vn 0.8780092 0.0306153782 0.477663666
vn 0.422045112 0.241497904 0.873817325
vn 0.809026241 0.137955636 0.571353436
vn 0.794973016 0.170302659 0.58224988
vn 0.634792984 -0.436636925 0.637484133
vn 0.82018894 0.313878268 0.478299648
vn 0.510304153 0.391206533 0.765863657
vn 0.287304878 0.942488134 -0.170798227
vn 0.8780092 0.0306153782 0.477663666
vn 0.732182086 -0.402893841 0.549168408
vn 0.738492548 0.648981094 0.182899639
g blue_asn_m_pve_1_hand_r_0
f 3/3/3 2/2/2 1/1/1
f 4/4/4 1/1/1 2/2/2
f 3/3/3 1/1/1 5/5/5
f 6/6/6 5/5/5 1/1/1
f 4/4/4 2/2/2 7/7/7
f 8/8/8 7/7/7 2/2/2
f 5/5/5 9/9/9 3/3/3
f 10/10/10 3/3/3 9/9/9
f 9/9/9 11/11/11 10/10/10
f 12/12/12 10/10/10 11/11/11
f 11/11/11 13/13/13 12/12/12
f 13/13/13 11/11/11 14/14/14
f 15/15/15 14/14/14 11/11/11
f 9/9/9 5/5/5 15/15/15
f 15/15/15 11/11/11 9/9/9
f 15/15/15 16/16/16 14/14/14
f 17/17/17 14/14/14 16/16/16
f 18/18/18 12/12/12 13/13/13
f 14/14/14 17/17/17 19/19/19
f 14/14/14 19/19/19 13/13/13
f 17/17/17 20/20/20 19/19/19
f 21/21/21 19/19/19 20/20/20
f 19/19/19 21/21/21 22/22/22
f 13/13/13 22/22/22 18/18/18
f 22/22/22 13/13/13 19/19/19
f 23/23/23 22/22/22 21/21/21
f 22/22/22 23/23/23 24/24/24
f 24/24/24 18/18/18 22/22/22
f 25/25/25 24/24/24 23/23/23
f 18/18/18 24/24/24 26/26/26
f 27/27/27 26/26/26 24/24/24
f 24/24/24 25/25/25 27/27/27
f 28/28/28 26/26/26 27/27/27
f 26/26/26 28/28/28 29/29/29
f 26/26/26 29/29/29 18/18/18
f 30/30/30 29/29/29 28/28/28
f 30/30/30 28/28/28 31/31/31
f 30/30/30 31/31/31 32/32/32
f 33/33/33 31/31/31 28/28/28
f 27/27/27 33/33/33 28/28/28
f 27/27/27 34/34/34 33/33/33
f 34/34/34 27/27/27 25/25/25
f 35/35/35 33/33/33 34/34/34
f 34/34/34 25/25/25 36/36/36
f 37/37/37 36/36/36 25/25/25
f 25/25/25 23/23/23 37/37/37
f 34/34/34 36/36/36 38/38/38
f 38/38/38 35/35/35 34/34/34
f 38/38/38 39/39/39 35/35/35
f 38/38/38 40/40/40 39/39/39
f 38/38/38 36/36/36 40/40/40
f 41/41/41 39/39/39 40/40/40
f 40/40/40 42/42/42 41/41/41
f 43/43/43 41/41/41 42/42/42
f 43/43/43 44/44/44 41/41/41
f 45/45/45 41/41/41 44/44/44
f 45/45/45 44/44/44 46/46/46
f 47/47/47 46/46/46 44/44/44
f 48/48/48 40/40/40 36/36/36
f 36/36/36 37/37/37 48/48/48
f 49/49/49 48/48/48 37/37/37
f 49/49/49 50/50/50 48/48/48
f 51/51/51 48/48/48 50/50/50
f 48/48/48 51/51/51 40/40/40
f 42/42/42 40/40/40 51/51/51
f 50/50/50 52/52/52 51/51/51
f 53/53/53 51/51/51 52/52/52
f 51/51/51 53/53/53 42/42/42
f 49/49/49 54/54/54 50/50/50
f 55/55/55 50/50/50 54/54/54
f 54/54/54 56/56/56 55/55/55
f 57/57/57 55/55/55 56/56/56
f 56/56/56 58/58/58 57/57/57
f 59/59/59 57/57/57 58/58/58
f 58/58/58 60/60/60 59/59/59
f 61/61/61 59/59/59 60/60/60
f 60/60/60 62/62/62 61/61/61
f 63/63/63 61/61/61 62/62/62
f 64/64/64 62/62/62 60/60/60
f 60/60/60 58/58/58 64/64/64
f 58/58/58 56/56/56 65/65/65
f 65/65/65 64/64/64 58/58/58
f 66/66/66 65/65/65 56/56/56
f 56/56/56 54/54/54 66/66/66
f 57/57/57 67/67/67 55/55/55
f 68/68/68 55/55/55 67/67/67
f 55/55/55 68/68/68 50/50/50
f 52/52/52 50/50/50 68/68/68
f 59/59/59 61/61/61 69/69/69
f 70/70/70 69/69/69 61/61/61
f 67/67/67 57/57/57 71/71/71
f 59/59/59 71/71/71 57/57/57
f 59/59/59 69/69/69 71/71/71
f 63/63/63 72/72/72 61/61/61
f 70/70/70 61/61/61 72/72/72
f 20/20/20 65/65/65 66/66/66
f 20/20/20 66/66/66 21/21/21
f 66/66/66 73/73/73 21/21/21
f 73/73/73 66/66/66 54/54/54
f 54/54/54 49/49/49 73/73/73
f 37/37/37 73/73/73 49/49/49
f 73/73/73 37/37/37 23/23/23
f 23/23/23 21/21/21 73/73/73
f 5/5/5 75/75/75 74/74/74
f 76/76/76 74/74/74 75/75/75
f 77/77/77 5/5/5 74/74/74
f 5/5/5 77/77/77 15/15/15
f 77/77/77 78/78/78 15/15/15
f 78/78/78 16/16/16 15/15/15
f 81/81/81 80/80/80 79/79/79
f 82/82/82 79/79/79 80/80/80
f 81/81/81 83/83/83 80/80/80
f 84/84/84 80/80/80 83/83/83
f 82/82/82 85/85/85 79/79/79
f 86/86/86 79/79/79 85/85/85
f 86/86/86 87/87/87 79/79/79
f 88/88/88 79/79/79 87/87/87
f 79/79/79 88/88/88 81/81/81
f 89/89/89 81/81/81 88/88/88
f 81/81/81 89/89/89 83/83/83
f 90/90/90 89/89/89 88/88/88
f 89/89/89 90/90/90 91/91/91
f 91/91/91 90/90/90 92/92/92
f 93/93/93 92/92/92 90/90/90
f 90/90/90 88/88/88 93/93/93
f 93/93/93 88/88/88 87/87/87
f 91/91/91 92/92/92 94/94/94
f 95/95/95 94/94/94 92/92/92
f 94/94/94 96/96/96 91/91/91
f 94/94/94 97/97/97 96/96/96
f 97/97/97 94/94/94 95/95/95
f 98/98/98 96/96/96 97/97/97
f 96/96/96 98/98/98 99/99/99
f 100/100/100 99/99/99 98/98/98
f 100/100/100 101/101/101 99/99/99
f 102/102/102 99/99/99 101/101/101
f 99/99/99 103/103/103 96/96/96
f 99/99/99 102/102/102 103/103/103
f 104/104/104 96/96/96 103/103/103
f 93/93/93 105/105/105 92/92/92
f 105/105/105 93/93/93 87/87/87
f 105/105/105 87/87/87 106/106/106
f 105/105/105 106/106/106 107/107/107
f 105/105/105 107/107/107 108/108/108
f 109/109/109 108/108/108 107/107/107
f 109/109/109 110/110/110 108/108/108
f 111/111/111 108/108/108 110/110/110
f 112/112/112 111/111/111 110/110/110
f 110/110/110 113/113/113 112/112/112
f 114/114/114 112/112/112 113/113/113
f 113/113/113 115/115/115 114/114/114
f 115/115/115 113/113/113 116/116/116
f 117/117/117 116/116/116 113/113/113
f 117/117/117 118/118/118 116/116/116
f 119/119/119 114/114/114 115/115/115
f 107/107/107 106/106/106 120/120/120
f 120/120/120 121/121/121 107/107/107
f 113/113/113 110/110/110 121/121/121
f 120/120/120 122/122/122 121/121/121
f 123/123/123 121/121/121 122/122/122
f 121/121/121 123/123/123 113/113/113
f 117/117/117 113/113/113 123/123/123
f 123/123/123 122/122/122 124/124/124
f 118/118/118 117/117/117 124/124/124
f 123/123/123 124/124/124 117/117/117
f 122/122/122 120/120/120 125/125/125
f 126/126/126 125/125/125 120/120/120
f 126/126/126 127/127/127 125/125/125
f 128/128/128 125/125/125 127/127/127
f 126/126/126 129/129/129 127/127/127
f 130/130/130 127/127/127 129/129/129
f 130/130/130 129/129/129 131/131/131
f 120/120/120 106/106/106 126/126/126
f 129/129/129 126/126/126 106/106/106
f 106/106/106 87/87/87 129/129/129
f 86/86/86 129/129/129 87/87/87
f 86/86/86 132/132/132 129/129/129
f 122/122/122 125/125/125 133/133/133
f 133/133/133 134/134/134 122/122/122
f 137/137/137 136/136/136 135/135/135
f 138/138/138 135/135/135 136/136/136
f 138/138/138 89/89/89 135/135/135
f 89/89/89 139/139/139 135/135/135
f 140/140/140 135/135/135 139/139/139
f 135/135/135 140/140/140 137/137/137
f 141/141/141 137/137/137 140/140/140
f 141/141/141 140/140/140 142/142/142
f 143/143/143 142/142/142 140/140/140
f 139/139/139 96/96/96 140/140/140
f 104/104/104 140/140/140 96/96/96
f 136/136/136 144/144/144 138/138/138
f 138/138/138 83/83/83 89/89/89
f 104/104/104 103/103/103 145/145/145
f 147/147/147 146/146/146 145/145/145
f 149/149/149 103/103/103 148/148/148
f 151/151/151 150/150/150 144/144/144
f 154/154/154 153/153/153 152/152/152
f 155/155/155 152/152/152 153/153/153
f 153/153/153 156/156/156 155/155/155
f 157/157/157 155/155/155 156/156/156
f 158/158/158 155/155/155 157/157/157
f 152/152/152 155/155/155 159/159/159
f 158/158/158 159/159/159 155/155/155
f 159/159/159 158/158/158 160/160/160
f 161/161/161 160/160/160 158/158/158
f 160/160/160 162/162/162 159/159/159
f 163/163/163 159/159/159 162/162/162
f 159/159/159 163/163/163 152/152/152
f 164/164/164 163/163/163 162/162/162
f 157/157/157 156/156/156 165/165/165
f 166/166/166 165/165/165 156/156/156
f 156/156/156 167/167/167 166/166/166
f 168/168/168 166/166/166 167/167/167
f 157/157/157 165/165/165 169/169/169
f 157/157/157 169/169/169 158/158/158
f 161/161/161 158/158/158 169/169/169
f 170/170/170 169/169/169 165/165/165
f 170/170/170 171/171/171 169/169/169
f 172/172/172 169/169/169 171/171/171
f 169/169/169 172/172/172 161/161/161
f 173/173/173 161/161/161 172/172/172
f 161/161/161 173/173/173 160/160/160
f 174/174/174 173/173/173 172/172/172
f 173/173/173 174/174/174 175/175/175
f 160/160/160 175/175/175 162/162/162
f 175/175/175 160/160/160 173/173/173
f 176/176/176 175/175/175 174/174/174
f 175/175/175 176/176/176 177/177/177
f 177/177/177 162/162/162 175/175/175
f 178/178/178 177/177/177 176/176/176
f 177/177/177 178/178/178 179/179/179
f 179/179/179 178/178/178 180/180/180
f 181/181/181 180/180/180 178/178/178
f 180/180/180 181/181/181 182/182/182
f 183/183/183 182/182/182 181/181/181
f 182/182/182 183/183/183 184/184/184
f 185/185/185 184/184/184 183/183/183
f 184/184/184 185/185/185 186/186/186
f 187/187/187 186/186/186 185/185/185
f 184/184/184 188/188/188 182/182/182
f 189/189/189 182/182/182 188/188/188
f 180/180/180 182/182/182 190/190/190
f 180/180/180 190/190/190 179/179/179
f 189/189/189 191/191/191 182/182/182
f 178/178/178 176/176/176 192/192/192
f 178/178/178 192/192/192 181/181/181
f 193/193/193 192/192/192 176/176/176
f 176/176/176 194/194/194 193/193/193
f 193/193/193 194/194/194 195/195/195
f 193/193/193 196/196/196 192/192/192
f 193/193/193 195/195/195 196/196/196
f 197/197/197 192/192/192 196/196/196
f 192/192/192 197/197/197 198/198/198
f 199/199/199 198/198/198 197/197/197
f 197/197/197 200/200/200 199/199/199
f 197/197/197 196/196/196 200/200/200
f 201/201/201 199/199/199 200/200/200
f 202/202/202 196/196/196 195/195/195
f 203/203/203 200/200/200 196/196/196
f 196/196/196 204/204/204 203/203/203
f 205/205/205 203/203/203 202/202/202
f 200/200/200 203/203/203 206/206/206
f 200/200/200 206/206/206 201/201/201
f 207/207/207 206/206/206 203/203/203
f 203/203/203 205/205/205 207/207/207
f 206/206/206 207/207/207 208/208/208
f 208/208/208 201/201/201 206/206/206
f 209/209/209 207/207/207 205/205/205
f 211/211/211 210/210/210 194/194/194
f 211/211/211 212/212/212 210/210/210
f 213/213/213 210/210/210 212/212/212
f 213/213/213 214/214/214 210/210/210
f 215/215/215 210/210/210 214/214/214
f 210/210/210 215/215/215 216/216/216
f 217/217/217 216/216/216 215/215/215
f 216/216/216 194/194/194 210/210/210
f 194/194/194 216/216/216 218/218/218
f 219/219/219 218/218/218 216/216/216
f 215/215/215 214/214/214 220/220/220
f 215/215/215 220/220/220 217/217/217
f 221/221/221 220/220/220 214/214/214
f 222/222/222 217/217/217 220/220/220
f 222/222/222 220/220/220 223/223/223
f 224/224/224 223/223/223 220/220/220
f 217/217/217 222/222/222 225/225/225
f 223/223/223 225/225/225 222/222/222
f 217/217/217 225/225/225 216/216/216
f 219/219/219 216/216/216 225/225/225
f 194/194/194 176/176/176 211/211/211
f 218/218/218 195/195/195 226/226/226
f 174/174/174 211/211/211 176/176/176
f 174/174/174 227/227/227 211/211/211
f 227/227/227 174/174/174 228/228/228
f 228/228/228 229/229/229 227/227/227
f 230/230/230 227/227/227 229/229/229
f 229/229/229 231/231/231 230/230/230
f 231/231/231 229/229/229 232/232/232
f 233/233/233 232/232/232 229/229/229
f 234/234/234 230/230/230 231/231/231
f 233/233/233 229/229/229 235/235/235
f 228/228/228 235/235/235 229/229/229
f 228/228/228 172/172/172 235/235/235
f 172/172/172 228/228/228 174/174/174
f 171/171/171 235/235/235 172/172/172
f 211/211/211 227/227/227 236/236/236
f 227/227/227 230/230/230 237/237/237
f 237/237/237 236/236/236 238/238/238
f 239/239/239 237/237/237 230/230/230
f 234/234/234 240/240/240 230/230/230
f 239/239/239 230/230/230 240/240/240
f 231/231/231 241/241/241 234/234/234
f 242/242/242 234/234/234 241/241/241
f 234/234/234 242/242/242 240/240/240
f 241/241/241 243/243/243 242/242/242
f 232/232/232 244/244/244 231/231/231
f 241/241/241 231/231/231 244/244/244
f 246/246/246 242/242/242 245/245/245
f 246/246/246 247/247/247 242/242/242
f 164/164/164 249/249/249 248/248/248
f 248/248/248 249/249/249 250/250/250
f 251/251/251 250/250/250 249/249/249
f 251/251/251 252/252/252 250/250/250
f 253/253/253 250/250/250 252/252/252
f 164/164/164 254/254/254 249/249/249
f 255/255/255 249/249/249 254/254/254
f 164/164/164 179/179/179 254/254/254
f 256/256/256 254/254/254 179/179/179
f 251/251/251 257/257/257 252/252/252
f 251/251/251 249/249/249 257/257/257
f 258/258/258 252/252/252 257/257/257
f 257/257/257 259/259/259 258/258/258
f 257/257/257 260/260/260 259/259/259
f 260/260/260 257/257/257 249/249/249
f 249/249/249 261/261/261 260/260/260
f 262/262/262 260/260/260 261/261/261
f 260/260/260 262/262/262 263/263/263
f 263/263/263 259/259/259 260/260/260
f 264/264/264 263/263/263 262/262/262
f 265/265/265 258/258/258 259/259/259
f 263/263/263 266/266/266 259/259/259
f 266/266/266 263/263/263 267/267/267
f 268/268/268 267/267/267 263/263/263
f 268/268/268 263/263/263 264/264/264
f 269/269/269 259/259/259 266/266/266
f 269/269/269 270/270/270 259/259/259
f 265/265/265 259/259/259 270/270/270
f 272/272/272 179/179/179 271/271/271
f 164/164/164 162/162/162 179/179/179
f 177/177/177 179/179/179 162/162/162
f 164/164/164 248/248/248 163/163/163
f 273/273/273 163/163/163 248/248/248
f 154/154/154 273/273/273 248/248/248
f 154/154/154 248/248/248 274/274/274
f 275/275/275 154/154/154 274/274/274
f 275/275/275 274/274/274 276/276/276
f 277/277/277 276/276/276 274/274/274
f 274/274/274 250/250/250 277/277/277
f 250/250/250 274/274/274 248/248/248
f 253/253/253 277/277/277 250/250/250
f 273/273/273 152/152/152 163/163/163
f 152/152/152 273/273/273 154/154/154
f 280/280/280 279/279/279 278/278/278
f 281/281/281 278/278/278 279/279/279
f 279/279/279 280/280/280 282/282/282
f 283/283/283 282/282/282 280/280/280
f 282/282/282 283/283/283 284/284/284
f 285/285/285 284/284/284 283/283/283
f 283/283/283 280/280/280 286/286/286
f 287/287/287 286/286/286 280/280/280
f 280/280/280 278/278/278 287/287/287
f 286/286/286 287/287/287 288/288/288
f 289/289/289 288/288/288 287/287/287
f 288/288/288 290/290/290 286/286/286
f 291/291/291 286/286/286 290/290/290
f 285/285/285 283/283/283 291/291/291
f 286/286/286 291/291/291 283/283/283
f 288/288/288 289/289/289 292/292/292
f 293/293/293 292/292/292 289/289/289
f 289/289/289 294/294/294 293/293/293
f 295/295/295 293/293/293 294/294/294
f 289/289/289 287/287/287 296/296/296
f 294/294/294 289/289/289 296/296/296
f 297/297/297 296/296/296 287/287/287
f 296/296/296 297/297/297 298/298/298
f 299/299/299 298/298/298 297/297/297
f 298/298/298 299/299/299 300/300/300
f 301/301/301 300/300/300 299/299/299
f 301/301/301 299/299/299 302/302/302
f 303/303/303 302/302/302 299/299/299
f 304/304/304 296/296/296 298/298/298
f 294/294/294 296/296/296 305/305/305
f 304/304/304 305/305/305 296/296/296
f 305/305/305 306/306/306 294/294/294
f 295/295/295 294/294/294 307/307/307
f 306/306/306 307/307/307 294/294/294
f 307/307/307 306/306/306 308/308/308
f 309/309/309 308/308/308 306/306/306
f 308/308/308 309/309/309 310/310/310
f 311/311/311 310/310/310 309/309/309
f 308/308/308 310/310/310 312/312/312
f 308/308/308 312/312/312 307/307/307
f 310/310/310 313/313/313 312/312/312
f 310/310/310 311/311/311 313/313/313
f 314/314/314 312/312/312 313/313/313
f 306/306/306 305/305/305 315/315/315
f 300/300/300 301/301/301 316/316/316
f 300/300/300 316/316/316 317/317/317
f 316/316/316 318/318/318 317/317/317
f 316/316/316 319/319/319 318/318/318
f 320/320/320 318/318/318 319/319/319
f 319/319/319 302/302/302 320/320/320
f 321/321/321 320/320/320 302/302/302
f 319/319/319 316/316/316 301/301/301
f 301/301/301 302/302/302 319/319/319
f 300/300/300 317/317/317 298/298/298
f 320/320/320 322/322/322 318/318/318
f 322/322/322 320/320/320 321/321/321
f 322/322/322 321/321/321 323/323/323
f 324/324/324 323/323/323 321/321/321
f 322/322/322 323/323/323 325/325/325
f 325/325/325 318/318/318 322/322/322
f 326/326/326 325/325/325 323/323/323
f 323/323/323 327/327/327 326/326/326
f 328/328/328 326/326/326 327/327/327
f 328/328/328 329/329/329 326/326/326
f 325/325/325 326/326/326 329/329/329
f 325/325/325 329/329/329 318/318/318
f 329/329/329 330/330/330 318/318/318
f 332/332/332 298/298/298 331/331/331
f 304/304/304 298/298/298 333/333/333
f 332/332/332 333/333/333 334/334/334
f 336/336/336 304/304/304 335/335/335
f 337/337/337 335/335/335 304/304/304
f 336/336/336 338/338/338 304/304/304
f 305/305/305 304/304/304 338/338/338
f 338/338/338 339/339/339 305/305/305
f 340/340/340 305/305/305 339/339/339
f 338/338/338 341/341/341 339/339/339
f 338/338/338 336/336/336 341/341/341
f 341/341/341 342/342/342 339/339/339
f 343/343/343 339/339/339 342/342/342
f 344/344/344 341/341/341 336/336/336
f 336/336/336 335/335/335 344/344/344
f 341/341/341 344/344/344 342/342/342
f 344/344/344 335/335/335 345/345/345
f 345/345/345 342/342/342 344/344/344
f 346/346/346 345/345/345 335/335/335
f 342/342/342 345/345/345 347/347/347
f 347/347/347 343/343/343 342/342/342
f 348/348/348 347/347/347 345/345/345
f 348/348/348 345/345/345 346/346/346
f 347/347/347 348/348/348 349/349/349
f 347/347/347 349/349/349 343/343/343
f 350/350/350 349/349/349 348/348/348
f 348/348/348 346/346/346 350/350/350
f 349/349/349 350/350/350 351/351/351
f 351/351/351 343/343/343 349/349/349
f 352/352/352 351/351/351 350/350/350
f 353/353/353 350/350/350 346/346/346
f 355/355/355 187/187/187 354/354/354
f 357/357/357 356/356/356 187/187/187
f 185/185/185 358/358/358 187/187/187
f 185/185/185 183/183/183 358/358/358
f 359/359/359 358/358/358 183/183/183
f 359/359/359 183/183/183 360/360/360
f 181/181/181 360/360/360 183/183/183
f 181/181/181 192/192/192 360/360/360
f 361/361/361 187/187/187 358/358/358
f 364/364/364 363/363/363 362/362/362
f 365/365/365 362/362/362 363/363/363
f 364/364/364 366/366/366 363/363/363
f 367/367/367 363/363/363 366/366/366
f 367/367/367 368/368/368 363/363/363
f 369/369/369 363/363/363 368/368/368
f 367/367/367 370/370/370 368/368/368
f 368/368/368 370/370/370 371/371/371
f 372/372/372 371/371/371 370/370/370
f 370/370/370 373/373/373 372/372/372
f 366/366/366 373/373/373 367/367/367
f 370/370/370 367/367/367 373/373/373
f 374/374/374 372/372/372 373/373/373
f 374/374/374 373/373/373 375/375/375
f 376/376/376 375/375/375 373/373/373
f 366/366/366 376/376/376 373/373/373
f 366/366/366 364/364/364 376/376/376
f 374/374/374 377/377/377 372/372/372
f 377/377/377 374/374/374 375/375/375
f 375/375/375 378/378/378 377/377/377
f 379/379/379 377/377/377 378/378/378
f 380/380/380 372/372/372 377/377/377
f 380/380/380 371/371/371 372/372/372
f 380/380/380 381/381/381 371/371/371
f 382/382/382 371/371/371 381/381/381
f 377/377/377 383/383/383 380/380/380
f 381/381/381 380/380/380 383/383/383
f 381/381/381 383/383/383 384/384/384
f 297/297/297 384/384/384 383/383/383
f 384/384/384 297/297/297 385/385/385
f 287/287/287 385/385/385 297/297/297
f 385/385/385 386/386/386 384/384/384
f 381/381/381 384/384/384 387/387/387
f 387/387/387 388/388/388 381/381/381
f 383/383/383 299/299/299 297/297/297
f 299/299/299 383/383/383 389/389/389
f 385/385/385 287/287/287 278/278/278
f 278/278/278 390/390/390 385/385/385
f 390/390/390 278/278/278 391/391/391
f 390/390/390 391/391/391 392/392/392
f 393/393/393 392/392/392 391/391/391
f 281/281/281 391/391/391 278/278/278
f 394/394/394 385/385/385 390/390/390
f 390/390/390 392/392/392 394/394/394
f 395/395/395 394/394/394 392/392/392
f 394/394/394 395/395/395 396/396/396
f 397/397/397 396/396/396 395/395/395
f 397/397/397 395/395/395 398/398/398
f 399/399/399 398/398/398 395/395/395
f 395/395/395 392/392/392 399/399/399
f 399/399/399 400/400/400 398/398/398
f 401/401/401 398/398/398 400/400/400
f 399/399/399 402/402/402 400/400/400
f 402/402/402 399/399/399 392/392/392
f 392/392/392 393/393/393 402/402/402
f 402/402/402 393/393/393 403/403/403
f 403/403/403 400/400/400 402/402/402
f 404/404/404 403/403/403 393/393/393
f 403/403/403 404/404/404 400/400/400
f 396/396/396 405/405/405 394/394/394
f 407/407/407 400/400/400 406/406/406
f 406/406/406 408/408/408 407/407/407
f 409/409/409 407/407/407 408/408/408
f 385/385/385 394/394/394 410/410/410
f 413/413/413 412/412/412 411/411/411
f 415/415/415 384/384/384 414/414/414
f 417/417/417 381/381/381 416/416/416
f 420/420/420 419/419/419 418/418/418
f 422/422/422 421/421/421 207/207/207
f 306/306/306 423/423/423 309/309/309
f 425/425/425 309/309/309 424/424/424
f 309/309/309 425/425/425 311/311/311
f 311/311/311 425/425/425 426/426/426
f 427/427/427 426/426/426 425/425/425
f 426/426/426 313/313/313 311/311/311
f 313/313/313 426/426/426 428/428/428
f 429/429/429 428/428/428 426/426/426
f 429/429/429 426/426/426 427/427/427
f 428/428/428 429/429/429 430/430/430
f 431/431/431 430/430/430 429/429/429
f 431/431/431 432/432/432 430/430/430
f 433/433/433 430/430/430 432/432/432
f 428/428/428 430/430/430 314/314/314
f 433/433/433 314/314/314 430/430/430
f 428/428/428 314/314/314 313/313/313
f 429/429/429 434/434/434 431/431/431
f 432/432/432 431/431/431 434/434/434
f 435/435/435 307/307/307 312/312/312
f 435/435/435 436/436/436 307/307/307
f 295/295/295 307/307/307 436/436/436
f 439/439/439 438/438/438 437/437/437
f 440/440/440 376/376/376 364/364/364
f 186/186/186 441/441/441 184/184/184
f 188/188/188 184/184/184 442/442/442
f 290/290/290 288/288/288 443/443/443
f 292/292/292 443/443/443 288/288/288
f 156/156/156 153/153/153 444/444/444
f 447/447/447 446/446/446 445/445/445
f 446/446/446 448/448/448 445/445/445
f 450/450/450 449/449/449 39/39/39
f 452/452/452 451/451/451 39/39/39
f 39/39/39 41/41/41 453/453/453
f 45/45/45 453/453/453 41/41/41
f 455/455/455 454/454/454 29/29/29
f 12/12/12 29/29/29 454/454/454
f 454/454/454 455/455/455 2/2/2
f 8/8/8 2/2/2 455/455/455
f 12/12/12 18/18/18 29/29/29
f 2/2/2 3/3/3 454/454/454
f 10/10/10 454/454/454 3/3/3
f 10/10/10 12/12/12 454/454/454
f 455/455/455 30/30/30 8/8/8
f 455/455/455 29/29/29 30/30/30
f 32/32/32 8/8/8 30/30/30
f 8/8/8 32/32/32 456/456/456
f 456/456/456 457/457/457 8/8/8
f 7/7/7 8/8/8 457/457/457
f 460/460/460 459/459/459 458/458/458
f 460/460/460 461/461/461 116/116/116
f 115/115/115 116/116/116 462/462/462
f 464/464/464 463/463/463 115/115/115
f 119/119/119 115/115/115 463/463/463
f 114/114/114 119/119/119 465/465/465
f 465/465/465 466/466/466 114/114/114
f 112/112/112 114/114/114 466/466/466
f 466/466/466 111/111/111 112/112/112
f 111/111/111 466/466/466 95/95/95
f 95/95/95 92/92/92 111/111/111
f 108/108/108 111/111/111 92/92/92
f 108/108/108 92/92/92 105/105/105
f 97/97/97 95/95/95 466/466/466
f 97/97/97 466/466/466 98/98/98
f 465/465/465 98/98/98 466/466/466
f 100/100/100 98/98/98 465/465/465
f 468/468/468 119/119/119 467/467/467
f 469/469/469 467/467/467 119/119/119
f 467/467/467 469/469/469 470/470/470
f 471/471/471 470/470/470 469/469/469
f 470/470/470 471/471/471 472/472/472
f 473/473/473 472/472/472 471/471/471
f 474/474/474 472/472/472 473/473/473
f 476/476/476 100/100/100 475/475/475
f 477/477/477 475/475/475 100/100/100
f 475/475/475 478/478/478 476/476/476
f 479/479/479 476/476/476 478/478/478
f 478/478/478 480/480/480 479/479/479
f 481/481/481 479/479/479 480/480/480
f 482/482/482 481/481/481 480/480/480
f 485/485/485 484/484/484 483/483/483
f 485/485/485 483/483/483 486/486/486
f 489/489/489 488/488/488 487/487/487
f 490/490/490 487/487/487 488/488/488
f 489/489/489 487/487/487 491/491/491
f 492/492/492 491/491/491 487/487/487
f 488/488/488 493/493/493 490/490/490
f 494/494/494 490/490/490 493/493/493
f 493/493/493 495/495/495 494/494/494
f 496/496/496 494/494/494 495/495/495
f 497/497/497 496/496/496 495/495/495
f 43/43/43 42/42/42 498/498/498
f 499/499/499 498/498/498 42/42/42
f 499/499/499 42/42/42 53/53/53
f 498/498/498 500/500/500 43/43/43
f 44/44/44 43/43/43 500/500/500
f 44/44/44 500/500/500 501/501/501
f 502/502/502 501/501/501 500/500/500
f 505/505/505 504/504/504 503/503/503
f 6/6/6 507/507/507 506/506/506
f 510/510/510 509/509/509 508/508/508
f 509/509/509 510/510/510 511/511/511
f 511/511/511 510/510/510 512/512/512
f 508/508/508 513/513/513 510/510/510
f 514/514/514 511/511/511 512/512/512
f 511/511/511 514/514/514 515/515/515
f 516/516/516 515/515/515 514/514/514
f 511/511/511 515/515/515 517/517/517
f 518/518/518 517/517/517 515/515/515
f 519/519/519 517/517/517 518/518/518
f 519/519/519 518/518/518 520/520/520
f 521/521/521 508/508/508 509/509/509
f 523/523/523 510/510/510 522/522/522
f 524/524/524 510/510/510 523/523/523
f 526/526/526 522/522/522 525/525/525
f 525/525/525 522/522/522 527/527/527
f 520/520/520 529/529/529 528/528/528
f 520/520/520 531/531/531 530/530/530
f 534/534/534 533/533/533 532/532/532
f 537/537/537 536/536/536 535/535/535
f 537/537/537 535/535/535 538/538/538
f 537/537/537 538/538/538 539/539/539
f 540/540/540 539/539/539 538/538/538
f 540/540/540 541/541/541 539/539/539
f 542/542/542 539/539/539 541/541/541
f 545/545/545 544/544/544 543/543/543
f 546/546/546 543/543/543 544/544/544
f 545/545/545 543/543/543 547/547/547
f 548/548/548 547/547/547 543/543/543
f 547/547/547 548/548/548 549/549/549
f 544/544/544 550/550/550 546/546/546
f 551/551/551 546/546/546 550/550/550
f 552/552/552 551/551/551 550/550/550
