g blue_war_m_pve_3_helm
v -0 -0.0849869996 1.77949798
v -0.0360529982 -0.0558349974 1.87470198
v -0 -0.0811540037 1.86986101
v -0.062495999 -0.00679099979 1.82276988
v -0 -0.0669419989 1.87920702
v -0.033059001 -0.0522499979 1.88122499
v -0 -0.0627099946 1.89928293
v -0.0314470008 -0.0550069995 1.90423203
v -0.0624689981 -0.0303929988 1.87814605
v -0.0876659974 0.00794500019 1.87988007
v -0.0886389986 0.0090859998 1.83364296
v -0.0796899945 -0.0102709997 1.82538402
v -0.0898939967 0.014450999 1.820122
v -0.0817370042 -0.0039789998 1.90606391
v -0.0642789975 -0.0315709971 1.91223204
v -0.0695829988 -0.0172409993 1.76891601
v -0 -0.0954490006 1.72856498
v -0.0871419981 0.0123709999 1.779163
v 0.033059001 -0.0522499979 1.88122499
v 0.0314470008 -0.0550069995 1.90423203
v 0.0360529982 -0.0558349974 1.87470198
v 0.0624689981 -0.0303929988 1.87814605
v 0.062495999 -0.00679099979 1.82276988
v -0 -0.0849869996 1.77949798
v 0.0876659974 0.00794500019 1.87988007
v 0.0886389986 0.0090859998 1.83364296
v 0.0796899945 -0.0102709997 1.82538402
v 0.0898939967 0.014450999 1.820122
v 0.0817370042 -0.0039789998 1.90606391
v 0.0642789975 -0.0315709971 1.91223204
v 0.0695829988 -0.0172409993 1.76891601
v -0 -0.0954490006 1.72856498
v 0.0871419981 0.0123709999 1.779163
v -0 -0.0627099946 1.89928293
v -0.0314470008 -0.0550069995 1.90423203
v -0 -0.0780590028 1.89024389
v -0.0940039977 0.0854179934 1.96593201
v -0.10774 0.0797069967 1.90141094
v -0.0978190005 0.114441 1.90925789
v -0.0997119993 0.0513819978 1.952865
v -0.0734909996 0.0381049998 2.00551796
v -0.0784810036 0.00482300017 1.98475599
v -0.0434499979 -0.00268199993 2.01326394
v -0.0423070006 -0.0371039994 1.98744595
v -0 -0.0348509997 2.00385189
v -0 0.00581200002 2.0258348
v -0.0409899987 0.0430269986 2.027565
v -0 0.0678499937 2.03072405
v -0.0271199979 0.0685319975 2.02855301
v -0.0341289975 0.105967999 2.02073288
v -0 0.124704994 2.01711392
v -0.0364379995 0.152987003 1.98201787
v -0.0741279945 0.124429993 1.97975993
v -0.0762429982 0.150558993 1.91383696
v -0.0978190005 0.114441 1.90925789
v -0.0940039977 0.0854179934 1.96593201
v -0.0377550013 0.171711996 1.91555488
v -0 0.163527995 1.97685802
v -0 0.17845501 1.9147799
v -0.0623979978 0.0759039968 2.01797795
v -0.0940039977 0.0854179934 1.96593201
v -0 0.179474995 1.83621001
v -0.035441 0.174848005 1.833009
v -0.0741060004 0.155969992 1.82525992
v -0.0975319967 0.123934001 1.81699288
v 0.0377550013 0.171711996 1.91555488
v 0.0364379995 0.152987003 1.98201787
v 0.0762429982 0.150558993 1.91383696
v 0.0741279945 0.124429993 1.97975993
v 0.0978190005 0.114441 1.90925789
v 0.0940039977 0.0854179934 1.96593201
v 0.0623979978 0.0759039968 2.01797795
v 0.0341289975 0.105967999 2.02073288
v 0.0271199979 0.0685319975 2.02855301
v 0.0409899987 0.0430269986 2.027565
v 0.0434499979 -0.00268199993 2.01326394
v 0.0423070006 -0.0371039994 1.98744595
v -0 -0.0634569973 1.976035
v -0.0405670032 -0.0561340004 1.95225096
v -0.0745879933 -0.0212820005 1.95891798
v -0.0960050002 0.0203800015 1.93498087
v -0.106316 0.0493989997 1.88805795
v -0.0876659974 0.00794500019 1.87988007
v -0.0886389986 0.0090859998 1.83364296
v -0.114416994 0.0523719974 1.83085597
v -0.0898939967 0.014450999 1.820122
v -0.101197995 0.0168359987 1.82014096
v -0.109361 0.0912390053 1.80746794
v -0.0817370042 -0.0039789998 1.90606391
v -0.0698909983 -0.0172109995 1.94837904
v -0.0642789975 -0.0315709971 1.91223204
v -0.0391709991 -0.0508760028 1.94442785
v -0.0348769985 -0.0585500002 1.90635896
v -0.0314470008 -0.0550069995 1.90423203
v -0 -0.0780590028 1.89024389
v -0 -0.0832939968 1.89186001
v -0 -0.0776700005 1.92501092
v -0 -0.0832939968 1.89186001
v -0.0975319967 0.123934001 1.81699288
v -0.102194004 0.0155659998 1.78283286
v -0.115590997 0.0511979982 1.79444695
v -0 -0.0806329995 1.93317902
v -0.115590997 0.0511979982 1.79444695
v -0.0871419981 0.0123709999 1.779163
v -0 -0.0776700005 1.92501092
v 0.0348769985 -0.0585500002 1.90635896
v 0.0391709991 -0.0508760028 1.94442785
v 0.0642789975 -0.0315709971 1.91223204
v 0.0314470008 -0.0550069995 1.90423203
v -0 -0.0780590028 1.89024389
v -0 -0.0832939968 1.89186001
v 0.0698909983 -0.0172109995 1.94837904
v 0.0817370042 -0.0039789998 1.90606391
v 0.0960050002 0.0203800015 1.93498087
v 0.0876659974 0.00794500019 1.87988007
v 0.106316 0.0493989997 1.88805795
v 0.0886389986 0.0090859998 1.83364296
v 0.114416994 0.0523719974 1.83085597
v 0.0898939967 0.014450999 1.820122
v 0.101197995 0.0168359987 1.82014096
v 0.10774 0.0797069967 1.90141094
v 0.109361 0.0912390053 1.80746794
v 0.0997119993 0.0513819978 1.952865
v 0.0940039977 0.0854179934 1.96593201
v 0.0978190005 0.114441 1.90925789
v 0.0734909996 0.0381049998 2.00551796
v 0.0784810036 0.00482300017 1.98475599
v 0.0940039977 0.0854179934 1.96593201
v 0.0745879933 -0.0212820005 1.95891798
v 0.0405670032 -0.0561340004 1.95225096
v -0 -0.0806329995 1.93317902
v -0 -0.0806329995 1.93317902
v -0 -0.0776700005 1.92501092
v -0 -0.0806329995 1.93317902
v -0 -0.0776700005 1.92501092
v -0 -0.0202099979 1.77635694
v -0.0695829988 -0.0172409993 1.76891601
v -0 -0.0954490006 1.72856498
v -0.0348969996 0.0300319996 1.78024697
v -0 0.0107270004 1.77296698
v -0.0871419981 0.0123709999 1.779163
v -0.0620829985 0.0620249957 1.78978896
v -0.115590997 0.0511979982 1.79444695
v -0.109361 0.0912390053 1.80746794
v -0.0759749934 0.103730999 1.80292594
v -0.0975319967 0.123934001 1.81699288
v -0.065219 0.144051 1.81521797
v -0.0741060004 0.155969992 1.82525992
v -0.102194004 0.0155659998 1.78283286
v 0.0695829988 -0.0172409993 1.76891601
v 0.0348969996 0.0300319996 1.78024697
v 0.0871419981 0.0123709999 1.779163
v 0.0620829985 0.0620249957 1.78978896
v 0.115590997 0.0511979982 1.79444695
v 0.109361 0.0912390053 1.80746794
v 0.0759749934 0.103730999 1.80292594
v 0.0975319967 0.123934001 1.81699288
v 0.065219 0.144051 1.81521797
v 0.0741060004 0.155969992 1.82525992
v 0.102194004 0.0155659998 1.78283286
v -0.0288350005 0.157117993 1.82065797
v -0.035441 0.174848005 1.833009
v -0.065219 0.144051 1.81521797
v -0 0.179474995 1.83621001
v -0 0.158102989 1.82265997
v 0.0288350005 0.157117993 1.82065797
v 0.035441 0.174848005 1.833009
v 0.065219 0.144051 1.81521797
v -0.0759749934 0.103730999 1.80292594
v -0.0738199949 0.148669004 1.80250108
v -0.065219 0.144051 1.81521797
v -0.0827579945 0.107571997 1.79432404
v -0.0942240059 0.155885994 1.78063798
v -0.107376002 0.119278997 1.77699602
v -0.0700749978 0.0724849999 1.77375591
v -0.111088999 0.0924470052 1.74202299
v -0.0620829985 0.0620249957 1.78978896
v -0.0961849988 0.0435480028 1.70139289
v -0.0463119969 0.0319689997 1.753636
v -0.0650439933 0.00413399981 1.69539988
v -0.0348969996 0.0300319996 1.78024697
v -0.0254609976 -0.00233799987 1.69349694
v -0 0.0212030001 1.74400401
v -0 0.00677699968 1.68033898
v -0 0.0107270004 1.77296698
v -0.0564909987 0.178033993 1.76245093
v -0.0393810011 0.165977985 1.79825389
v -0.0267769992 0.180795982 1.758425
v -0.065219 0.144051 1.81521797
v -0.0288350005 0.157117993 1.82065797
v -0 0.168680996 1.79819191
v -0 0.158102989 1.82265997
v -0 0.181143999 1.758425
v 0.0254609976 -0.00233799987 1.69349694
v 0.0463119969 0.0319689997 1.753636
v 0.0650439933 0.00413399981 1.69539988
v 0.0961849988 0.0435480028 1.70139289
v 0.0700749978 0.0724849999 1.77375591
v 0.111088999 0.0924470052 1.74202299
v 0.107376002 0.119278997 1.77699602
v 0.0827579945 0.107571997 1.79432404
v 0.0942240059 0.155885994 1.78063798
v 0.0738199949 0.148669004 1.80250108
v 0.0759749934 0.103730999 1.80292594
v 0.065219 0.144051 1.81521797
v 0.0620829985 0.0620249957 1.78978896
v 0.0348969996 0.0300319996 1.78024697
v 0.0564909987 0.178033993 1.76245093
v 0.0393810011 0.165977985 1.79825389
v 0.0267769992 0.180795982 1.758425
v 0.065219 0.144051 1.81521797
v 0.0288350005 0.157117993 1.82065797
v -0 0.168680996 1.79819191
v -0 0.158102989 1.82265997
v -0 0.181143999 1.758425
v -0 -0.0627099946 1.89928293
v -0 -0.0780590028 1.89024389
v 0.0314470008 -0.0550069995 1.90423203
v 0.035441 0.174848005 1.833009
v 0.0741060004 0.155969992 1.82525992
v 0.0975319967 0.123934001 1.81699288
v 0.0975319967 0.123934001 1.81699288
v 0.115590997 0.0511979982 1.79444695
v 0.115590997 0.0511979982 1.79444695
v 0.102194004 0.0155659998 1.78283286
v 0.0871419981 0.0123709999 1.779163
vt 0.229602158 0.659131527
vt 0.183571041 0.893124938
vt 0.229598656 0.868067384
vt 0.116008274 0.779122353
vt 0.229598179 0.903166533
vt 0.185712203 0.91237092
vt 0.229597434 0.950305223
vt 0.190932184 0.965713024
vt 0.142049074 0.910221219
vt 0.0881801248 0.918022752
vt 0.0801466107 0.80812943
vt 0.0983370319 0.774854064
vt 0.0683895499 0.772754669
vt 0.105330475 0.978689075
vt 0.143986866 0.990104556
vt 0.113361038 0.648255706
vt 0.229604363 0.536599398
vt 0.0720723197 0.671950698
vt 0.273483694 0.912376523
vt 0.268261939 0.965717554
vt 0.275625408 0.893130898
vt 0.317146271 0.910233498
vt 0.343191952 0.77913928
vt 0.229602158 0.659131527
vt 0.371014476 0.918043852
vt 0.379052401 0.808152676
vt 0.360863626 0.774874687
vt 0.390811235 0.772777438
vt 0.353861988 0.978707075
vt 0.315205604 0.990116358
vt 0.345842153 0.648274779
vt 0.229604363 0.536599398
vt 0.387129009 0.67197144
vt 0.914533556 0.846408606
vt 0.885813296 0.865271926
vt 0.914444625 0.860937715
vt 0.539499223 0.427376032
vt 0.502395034 0.307847142
vt 0.479028225 0.368890524
vt 0.557515442 0.358691692
vt 0.611932337 0.449911833
vt 0.617224514 0.357971787
vt 0.656641364 0.372334242
vt 0.66156143 0.29255271
vt 0.701120019 0.297098279
vt 0.700090349 0.380613327
vt 0.65900749 0.459045649
vt 0.699633479 0.500467181
vt 0.673085213 0.503043413
vt 0.66667372 0.575244546
vt 0.698520899 0.611117363
vt 0.665947199 0.691225648
vt 0.625407279 0.652809501
vt 0.615137637 0.798529148
vt 0.573960781 0.770610094
vt 0.584518969 0.614273667
vt 0.658466101 0.824761629
vt 0.697966516 0.714636564
vt 0.697173059 0.837046862
vt 0.635536373 0.525503755
vt 0.584518969 0.614273667
vt 0.696114123 0.995798111
vt 0.650083721 0.991929412
vt 0.599338472 0.97978723
vt 0.556014597 0.968929172
vt 0.736031592 0.826901555
vt 0.730289102 0.693048596
vt 0.779695749 0.803041339
vt 0.771343589 0.656869292
vt 0.821229756 0.777350068
vt 0.812745631 0.620571971
vt 0.762794614 0.529183626
vt 0.730978191 0.577207208
vt 0.725990832 0.504513621
vt 0.740241408 0.461203575
vt 0.744227529 0.375067353
vt 0.740363181 0.294889927
vt 0.701455653 0.228231192
vt 0.661542118 0.214853525
vt 0.624002278 0.278388858
vt 0.57258445 0.286612272
vt 0.518700182 0.246316314
vt 0.552143812 0.176602125
vt 0.523135066 0.101417899
vt 0.478528619 0.156930327
vt 0.511546433 0.0852894783
vt 0.501241505 0.0912684202
vt 0.432073712 0.17176342
vt 0.580473721 0.2022475
vt 0.619186819 0.254261851
vt 0.617264569 0.169997931
vt 0.658975244 0.203321815
vt 0.657333195 0.124640346
vt 0.656645954 0.113785505
vt 0.702384055 0.0768613815
vt 0.702370226 0.0795308352
vt 0.701976597 0.139519334
vt 0.702370226 0.0795308352
vt 0.410775363 0.233293176
vt 0.479653776 0.0292446613
vt 0.455518663 0.0969194174
vt 0.701962769 0.145759344
vt 0.455518663 0.0969194174
vt 0.491746128 0.00612223148
vt 0.701976597 0.139519334
vt 0.746755838 0.127145648
vt 0.744064093 0.205729961
vt 0.786156356 0.174699068
vt 0.747587264 0.116325736
vt 0.702384055 0.0768613815
vt 0.702370226 0.0795308352
vt 0.783123732 0.258844733
vt 0.822431326 0.208850026
vt 0.829264402 0.293596506
vt 0.85099721 0.184601307
vt 0.883584261 0.255910397
vt 0.880851984 0.11082375
vt 0.924772322 0.168428421
vt 0.892607987 0.0952358246
vt 0.902836859 0.101694703
vt 0.899126947 0.318235874
vt 0.971030653 0.185492396
vt 0.843398094 0.366435766
vt 0.860534251 0.436022282
vt 0.921747029 0.380396366
vt 0.787680864 0.454995155
vt 0.783731282 0.362683535
vt 0.812745631 0.620571971
vt 0.778001964 0.282727361
vt 0.741378784 0.217143536
vt 0.701962769 0.145759344
vt 0.701962769 0.145759344
vt 0.701976597 0.139519334
vt 0.701962769 0.145759344
vt 0.701976597 0.139519334
vt 0.91357404 0.691961288
vt 0.955804527 0.691863656
vt 0.913569748 0.583367705
vt 0.93517226 0.752138376
vt 0.91357547 0.728784323
vt 0.966553748 0.729527712
vt 0.95208329 0.792551398
vt 0.984716237 0.778434396
vt 0.982314527 0.830768228
vt 0.961626232 0.844585299
vt 0.974980414 0.873735428
vt 0.953968704 0.894804597
vt 0.959488809 0.913685203
vt 0.975710571 0.733531117
vt 0.871344268 0.691877723
vt 0.891979396 0.752148867
vt 0.860597193 0.729541063
vt 0.875068009 0.792565465
vt 0.8424353 0.778448701
vt 0.844837725 0.830785632
vt 0.865526855 0.844598293
vt 0.85217756 0.873754501
vt 0.873194635 0.894811869
vt 0.867677391 0.913694978
vt 0.851440609 0.733545184
vt 0.93147856 0.910740137
vt 0.93528229 0.937305331
vt 0.953968704 0.894804597
vt 0.913583696 0.943627477
vt 0.913583696 0.912669301
vt 0.895687997 0.91073966
vt 0.891885698 0.937305331
vt 0.873194635 0.894811869
vt 0.107122205 0.368189454
vt 0.0709025934 0.443982482
vt 0.0877541229 0.460709929
vt 0.0954641923 0.354895949
vt 0.0404940024 0.405545473
vt 0.0610019118 0.324430823
vt 0.126864463 0.275365472
vt 0.0678004324 0.222225666
vt 0.147245258 0.299923539
vt 0.103798822 0.0894241333
vt 0.17263484 0.19347167
vt 0.155522034 0.0392045975
vt 0.188931197 0.251939416
vt 0.200300455 0.0337405205
vt 0.230827644 0.165383697
vt 0.230766624 0.0108014345
vt 0.230856061 0.236777663
vt 0.0174716786 0.506514549
vt 0.0638637394 0.5345366
vt 0.0165895447 0.577301145
vt 0.0877541229 0.460709929
vt 0.0934307203 0.551152587
vt 0.0689887926 0.626740098
vt 0.0998895168 0.617929339
vt 0.0206433348 0.639727592
vt 0.261250108 0.0336431265
vt 0.289042443 0.1932863
vt 0.306031644 0.0389635563
vt 0.357793123 0.089014411
vt 0.334878772 0.275035739
vt 0.393896818 0.221693277
vt 0.400780588 0.323860884
vt 0.366347551 0.354462862
vt 0.421372503 0.404867768
vt 0.3910079 0.443446159
vt 0.354701877 0.367803574
vt 0.374175221 0.460252762
vt 0.314518571 0.299661994
vt 0.272793144 0.251806259
vt 0.444520712 0.505709767
vt 0.398164183 0.533965111
vt 0.445493728 0.576487899
vt 0.374175221 0.460252762
vt 0.368618488 0.550733328
vt 0.393158257 0.626195192
vt 0.362246364 0.617544651
vt 0.441520005 0.638934851
vt 0.914533556 0.846408606
vt 0.914444625 0.860937715
vt 0.94301182 0.86670053
vt 0.742183089 0.994452953
vt 0.793080628 0.985070586
vt 0.836538017 0.976546764
vt 0.991590202 0.248041034
vt 0.948480308 0.109522462
vt 0.948480308 0.109522462
vt 0.92514354 0.0407065153
vt 0.913321674 0.0170155764
vn -0 -0.988756597 0.149534181
vn -0.581671655 -0.80148536 0.138849735
vn -0 -0.944146454 0.329526365
vn -0.464892238 -0.874652982 0.137322024
vn -0 -0.797021925 0.603950322
vn -0.462882578 -0.840251863 0.282341391
vn -0 -0.44721359 -0.89442718
vn -0.501450002 -0.570755243 -0.650220335
vn -0.739495695 -0.659003735 -0.137332201
vn -0.860312939 -0.506099045 -0.0610353909
vn -0.783563495 -0.618741751 0.0564524271
vn -0.367088437 -0.775242507 0.514047742
vn -0.747968853 -0.658406794 0.0839235783
vn -0.850354016 -0.526175618 -0.0061032474
vn -0.751427889 -0.659728765 0.0106815491
vn -0.605867982 -0.371214569 -0.703650236
vn -0 -0.678795159 -0.734327674
vn -0.511086345 -0.22971952 -0.828263104
vn 0.462882578 -0.840251863 0.282341391
vn 0.501450002 -0.570755243 -0.650220335
vn 0.581671655 -0.80148536 0.138849735
vn 0.739495695 -0.659003735 -0.137332201
vn 0.464892238 -0.874652982 0.137322024
vn -0 -0.988756597 0.149534181
vn 0.860312939 -0.506099045 -0.0610353909
vn 0.783563495 -0.618741751 0.0564524271
vn 0.367088437 -0.775242507 0.514047742
vn 0.747968853 -0.658406794 0.0839235783
vn 0.850354016 -0.526175618 -0.0061032474
vn 0.751427889 -0.659728765 0.0106815491
vn 0.605867982 -0.371214569 -0.703650236
vn -0 -0.678795159 -0.734327674
vn 0.511086345 -0.22971952 -0.828263104
vn -0 -0.44721359 -0.89442718
vn -0.501450002 -0.570755243 -0.650220335
vn -0 -0.0268986616 -0.9996382
vn -0.914081991 0.177457377 0.36464113
vn -0.988173306 0.102078483 0.114427082
vn -0.914078414 0.385753483 0.125119567
vn -0.960174561 -0.0822080299 0.26703307
vn -0.746519506 -0.133935615 0.651743829
vn -0.805600524 -0.356966525 0.472845227
vn -0.413542241 -0.415937513 0.809925199
vn -0.477167845 -0.664425671 0.575195134
vn -0 -0.608166158 0.793809772
vn -0 -0.312469333 0.949927807
vn -0.303945392 -0.108248644 0.946519673
vn -0 0.0790493265 0.996870697
vn -0.148863256 0.106525123 0.983103275
vn -0.285554498 0.388687938 0.876002431
vn -0 0.524155915 0.851622283
vn -0.358298659 0.77812624 0.515888989
vn -0.712581873 0.509640992 0.48217532
vn -0.691959858 0.708457768 0.13884972
vn -0.914078414 0.385753483 0.125119567
vn -0.914081991 0.177457377 0.36464113
vn -0.332586259 0.933244169 0.135800123
vn -0 0.888279319 0.459303528
vn -0 0.99270612 0.120559238
vn -0.59313035 0.158683345 0.789313614
vn -0.914081991 0.177457377 0.36464113
vn -0 0.905578017 -0.424179733
vn -0.210641325 0.882151484 -0.421234965
vn -0.529417455 0.738990366 -0.416665822
vn -0.721711099 0.495097369 -0.483747631
vn 0.332586259 0.933244169 0.135800123
vn 0.358298659 0.77812624 0.515888989
vn 0.691959858 0.708457768 0.13884972
vn 0.712581873 0.509640992 0.48217532
vn 0.914078414 0.385753483 0.125119567
vn 0.914081991 0.177457377 0.36464113
vn 0.59313035 0.158683345 0.789313614
vn 0.285554498 0.388687938 0.876002431
vn 0.148863256 0.106525123 0.983103275
vn 0.303945392 -0.108248644 0.946519673
vn 0.413542241 -0.415937513 0.809925199
vn 0.477167845 -0.664425671 0.575195134
vn -0 -0.85112083 0.524969876
vn -0.616669834 -0.786369681 -0.0366196893
vn -0.796218216 -0.605007589 -0.00152587018
vn -0.929160416 -0.358545095 0.0900356621
vn -0.964438736 -0.253508508 0.0747745261
vn -0.860312939 -0.506099045 -0.0610353909
vn -0.783563495 -0.618741751 0.0564524271
vn -0.981831372 -0.170187235 0.083925359
vn -0.747968853 -0.658406794 0.0839235783
vn -0.523210704 -0.684204996 0.508049309
vn -0.765808225 0.334564388 -0.549185216
vn -0.850354016 -0.526175618 -0.0061032474
vn -0.744883776 -0.617871583 -0.25175947
vn -0.751427889 -0.659728765 0.0106815491
vn -0.673918068 -0.700935841 -0.233502179
vn -0.621799588 -0.6287148 -0.466993541
vn -0.501450002 -0.570755243 -0.650220335
vn -0 -0.0268986616 -0.9996382
vn -0 -0.850346327 -0.526223302
vn -0 -0.999272168 -0.0381456204
vn -0 -0.850346327 -0.526223302
vn -0.721711099 0.495097369 -0.483747631
vn -0.596734881 -0.520915091 -0.610372841
vn -0.811796069 0.0683888793 -0.579922438
vn -0 -0.997200727 -0.074770987
vn -0.811796069 0.0683888793 -0.579922438
vn -0.511086345 -0.22971952 -0.828263104
vn -0 -0.999272168 -0.0381456204
vn 0.621799588 -0.6287148 -0.466993541
vn 0.673918068 -0.700935841 -0.233502179
vn 0.751427889 -0.659728765 0.0106815491
vn 0.501450002 -0.570755243 -0.650220335
vn -0 -0.0268986616 -0.9996382
vn -0 -0.850346327 -0.526223302
vn 0.744883776 -0.617871583 -0.25175947
vn 0.850354016 -0.526175618 -0.0061032474
vn 0.929160416 -0.358545095 0.0900356621
vn 0.860312939 -0.506099045 -0.0610353909
vn 0.964438736 -0.253508508 0.0747745261
vn 0.783563495 -0.618741751 0.0564524271
vn 0.981831372 -0.170187235 0.083925359
vn 0.747968853 -0.658406794 0.0839235783
vn 0.523210704 -0.684204996 0.508049309
vn 0.988173306 0.102078483 0.114427082
vn 0.765808225 0.334564388 -0.549185216
vn 0.960174561 -0.0822080299 0.26703307
vn 0.914081991 0.177457377 0.36464113
vn 0.914078414 0.385753483 0.125119567
vn 0.746519506 -0.133935615 0.651743829
vn 0.805600524 -0.356966525 0.472845227
vn 0.914081991 0.177457377 0.36464113
vn 0.796218216 -0.605007589 -0.00152587018
vn 0.616669834 -0.786369681 -0.0366196893
vn -0 -0.997200727 -0.074770987
vn -0 -0.997200727 -0.074770987
vn -0 -0.999272168 -0.0381456204
vn -0 -0.997200727 -0.074770987
vn -0 -0.999272168 -0.0381456204
vn -0 0.30469957 -0.952448606
vn -0.605867982 -0.371214569 -0.703650236
vn -0 -0.678795159 -0.734327674
vn -0.411669791 -0.491462469 -0.767458618
vn -0 -0.524415314 -0.851462603
vn -0.511086345 -0.22971952 -0.828263104
vn -0.738595545 -0.160045713 -0.654875517
vn -0.811796069 0.0683888793 -0.579922438
vn -0.765808225 0.334564388 -0.549185216
vn -0.898231089 0.0726903304 -0.433470935
vn -0.721711099 0.495097369 -0.483747631
vn -0.580537736 0.757330894 -0.299041718
vn -0.529417455 0.738990366 -0.416665822
vn -0.596734881 -0.520915091 -0.610372841
vn 0.605867982 -0.371214569 -0.703650236
vn 0.411669791 -0.491462469 -0.767458618
vn 0.511086345 -0.22971952 -0.828263104
vn 0.738595545 -0.160045713 -0.654875517
vn 0.811796069 0.0683888793 -0.579922438
vn 0.765808225 0.334564388 -0.549185216
vn 0.898231089 0.0726903304 -0.433470935
vn 0.721711099 0.495097369 -0.483747631
vn 0.580537736 0.757330894 -0.299041718
vn 0.529417455 0.738990366 -0.416665822
vn 0.596734881 -0.520915091 -0.610372841
vn -0.128774196 0.94599694 -0.297501266
vn -0.210641325 0.882151484 -0.421234965
vn -0.580537736 0.757330894 -0.299041718
vn -0 0.905578017 -0.424179733
vn -0 0.945725083 -0.324967831
vn 0.128774196 0.94599694 -0.297501266
vn 0.210641325 0.882151484 -0.421234965
vn 0.580537736 0.757330894 -0.299041718
vn -0.898231089 0.0726903304 -0.433470935
vn -0.574909091 0.504500329 0.644173026
vn -0.580537736 0.757330894 -0.299041718
vn -0.730220795 -0.284610599 0.62110734
vn -0.528188348 0.525804341 0.666743577
vn -0.680538535 -0.289274186 0.673192203
vn -0.772499621 -0.533185959 0.344901651
vn -0.656505883 -0.577542126 0.485226929
vn -0.738595545 -0.160045713 -0.654875517
vn -0.646510303 -0.593620062 0.479207367
vn -0.481224269 -0.807244837 0.341729313
vn -0.394305885 -0.773605287 0.496042222
vn -0.411669791 -0.491462469 -0.767458618
vn 0.123712167 -0.923453689 0.363219708
vn -0 -0.986324251 0.164816618
vn -0 -0.975220621 0.221234679
vn -0 -0.524415314 -0.851462603
vn -0.184345275 0.892297864 0.412093967
vn -0.205091983 0.885688365 0.416525304
vn -0.0232960358 0.939471543 0.341834128
vn -0.580537736 0.757330894 -0.299041718
vn -0.128774196 0.94599694 -0.297501266
vn -0 0.938065946 0.346456707
vn -0 0.945725083 -0.324967831
vn -0 0.946233094 0.323485434
vn -0.123712167 -0.923453689 0.363219708
vn 0.481224269 -0.807244837 0.341729313
vn 0.394305885 -0.773605287 0.496042222
vn 0.646510303 -0.593620062 0.479207367
vn 0.772499621 -0.533185959 0.344901651
vn 0.656505883 -0.577542126 0.485226929
vn 0.680538535 -0.289274186 0.673192203
vn 0.730220795 -0.284610599 0.62110734
vn 0.528188348 0.525804341 0.666743577
vn 0.574909091 0.504500329 0.644173026
vn 0.898231089 0.0726903304 -0.433470935
vn 0.580537736 0.757330894 -0.299041718
vn 0.738595545 -0.160045713 -0.654875517
vn 0.411669791 -0.491462469 -0.767458618
vn 0.184345275 0.892297864 0.412093967
vn 0.205091983 0.885688365 0.416525304
vn 0.0232960358 0.939471543 0.341834128
vn 0.580537736 0.757330894 -0.299041718
vn 0.128774196 0.94599694 -0.297501266
vn -0 0.938065946 0.346456707
vn -0 0.945725083 -0.324967831
vn -0 0.946233094 0.323485434
vn -0 -0.44721359 -0.89442718
vn -0 -0.0268986616 -0.9996382
vn 0.501450002 -0.570755243 -0.650220335
vn 0.210641325 0.882151484 -0.421234965
vn 0.529417455 0.738990366 -0.416665822
vn 0.721711099 0.495097369 -0.483747631
vn 0.721711099 0.495097369 -0.483747631
vn 0.811796069 0.0683888793 -0.579922438
vn 0.811796069 0.0683888793 -0.579922438
vn 0.596734881 -0.520915091 -0.610372841
vn 0.511086345 -0.22971952 -0.828263104
g blue_war_m_pve_3_helm_0
f 3/3/3 2/2/2 1/1/1
f 4/4/4 1/1/1 2/2/2
f 3/3/3 5/5/5 2/2/2
f 6/6/6 2/2/2 5/5/5
f 5/5/5 7/7/7 6/6/6
f 8/8/8 6/6/6 7/7/7
f 2/2/2 9/9/9 4/4/4
f 2/2/2 6/6/6 9/9/9
f 6/6/6 8/8/8 9/9/9
f 10/10/10 4/4/4 9/9/9
f 4/4/4 10/10/10 11/11/11
f 12/12/12 4/4/4 11/11/11
f 12/12/12 11/11/11 13/13/13
f 10/10/10 9/9/9 14/14/14
f 14/14/14 9/9/9 15/15/15
f 15/15/15 9/9/9 8/8/8
f 4/4/4 16/16/16 1/1/1
f 12/12/12 16/16/16 4/4/4
f 17/17/17 1/1/1 16/16/16
f 13/13/13 18/18/18 12/12/12
f 16/16/16 12/12/12 18/18/18
f 5/5/5 19/19/19 7/7/7
f 20/20/20 7/7/7 19/19/19
f 19/19/19 5/5/5 21/21/21
f 3/3/3 21/21/21 5/5/5
f 3/3/3 1/1/1 21/21/21
f 19/19/19 21/21/21 22/22/22
f 19/19/19 22/22/22 20/20/20
f 22/22/22 21/21/21 23/23/23
f 23/23/23 21/21/21 24/24/24
f 23/23/23 25/25/25 22/22/22
f 25/25/25 23/23/23 26/26/26
f 23/23/23 27/27/27 26/26/26
f 26/26/26 27/27/27 28/28/28
f 22/22/22 25/25/25 29/29/29
f 22/22/22 29/29/29 30/30/30
f 30/30/30 20/20/20 22/22/22
f 23/23/23 24/24/24 31/31/31
f 31/31/31 27/27/27 23/23/23
f 32/32/32 31/31/31 24/24/24
f 31/31/31 33/33/33 27/27/27
f 28/28/28 27/27/27 33/33/33
f 36/36/36 35/35/35 34/34/34
f 39/39/39 38/38/38 37/37/37
f 40/40/40 37/37/37 38/38/38
f 37/37/37 40/40/40 41/41/41
f 42/42/42 41/41/41 40/40/40
f 41/41/41 42/42/42 43/43/43
f 44/44/44 43/43/43 42/42/42
f 43/43/43 44/44/44 45/45/45
f 45/45/45 46/46/46 43/43/43
f 47/47/47 43/43/43 46/46/46
f 43/43/43 47/47/47 41/41/41
f 46/46/46 48/48/48 47/47/47
f 49/49/49 47/47/47 48/48/48
f 49/49/49 48/48/48 50/50/50
f 51/51/51 50/50/50 48/48/48
f 50/50/50 51/51/51 52/52/52
f 52/52/52 53/53/53 50/50/50
f 53/53/53 52/52/52 54/54/54
f 54/54/54 55/55/55 53/53/53
f 56/56/56 53/53/53 55/55/55
f 57/57/57 54/54/54 52/52/52
f 52/52/52 58/58/58 57/57/57
f 58/58/58 52/52/52 51/51/51
f 59/59/59 57/57/57 58/58/58
f 53/53/53 56/56/56 60/60/60
f 60/60/60 50/50/50 53/53/53
f 50/50/50 60/60/60 49/49/49
f 47/47/47 49/49/49 60/60/60
f 60/60/60 41/41/41 47/47/47
f 41/41/41 60/60/60 61/61/61
f 59/59/59 62/62/62 57/57/57
f 63/63/63 57/57/57 62/62/62
f 57/57/57 63/63/63 54/54/54
f 64/64/64 54/54/54 63/63/63
f 54/54/54 64/64/64 55/55/55
f 65/65/65 55/55/55 64/64/64
f 59/59/59 58/58/58 66/66/66
f 59/59/59 66/66/66 62/62/62
f 67/67/67 66/66/66 58/58/58
f 66/66/66 67/67/67 68/68/68
f 69/69/69 68/68/68 67/67/67
f 68/68/68 69/69/69 70/70/70
f 71/71/71 70/70/70 69/69/69
f 69/69/69 72/72/72 71/71/71
f 67/67/67 73/73/73 69/69/69
f 72/72/72 69/69/69 73/73/73
f 73/73/73 67/67/67 51/51/51
f 58/58/58 51/51/51 67/67/67
f 51/51/51 48/48/48 73/73/73
f 74/74/74 73/73/73 48/48/48
f 73/73/73 74/74/74 72/72/72
f 74/74/74 48/48/48 75/75/75
f 75/75/75 72/72/72 74/74/74
f 46/46/46 75/75/75 48/48/48
f 75/75/75 46/46/46 76/76/76
f 45/45/45 76/76/76 46/46/46
f 76/76/76 45/45/45 77/77/77
f 78/78/78 77/77/77 45/45/45
f 78/78/78 45/45/45 44/44/44
f 44/44/44 79/79/79 78/78/78
f 79/79/79 44/44/44 80/80/80
f 42/42/42 80/80/80 44/44/44
f 80/80/80 42/42/42 81/81/81
f 40/40/40 81/81/81 42/42/42
f 81/81/81 40/40/40 82/82/82
f 82/82/82 83/83/83 81/81/81
f 83/83/83 82/82/82 84/84/84
f 82/82/82 85/85/85 84/84/84
f 86/86/86 84/84/84 85/85/85
f 87/87/87 86/86/86 85/85/85
f 82/82/82 38/38/38 85/85/85
f 38/38/38 82/82/82 40/40/40
f 88/88/88 85/85/85 38/38/38
f 89/89/89 81/81/81 83/83/83
f 81/81/81 90/90/90 80/80/80
f 81/81/81 89/89/89 90/90/90
f 91/91/91 90/90/90 89/89/89
f 90/90/90 91/91/91 92/92/92
f 90/90/90 92/92/92 80/80/80
f 93/93/93 92/92/92 91/91/91
f 94/94/94 93/93/93 91/91/91
f 94/94/94 95/95/95 93/93/93
f 96/96/96 93/93/93 95/95/95
f 92/92/92 93/93/93 97/97/97
f 98/98/98 97/97/97 93/93/93
f 88/88/88 38/38/38 99/99/99
f 39/39/39 99/99/99 38/38/38
f 87/87/87 100/100/100 86/86/86
f 100/100/100 87/87/87 101/101/101
f 85/85/85 101/101/101 87/87/87
f 79/79/79 92/92/92 102/102/102
f 79/79/79 80/80/80 92/92/92
f 102/102/102 78/78/78 79/79/79
f 88/88/88 103/103/103 85/85/85
f 104/104/104 86/86/86 100/100/100
f 98/98/98 106/106/106 105/105/105
f 107/107/107 105/105/105 106/106/106
f 106/106/106 108/108/108 107/107/107
f 106/106/106 109/109/109 108/108/108
f 109/109/109 106/106/106 110/110/110
f 111/111/111 110/110/110 106/106/106
f 112/112/112 107/107/107 108/108/108
f 108/108/108 113/113/113 112/112/112
f 114/114/114 112/112/112 113/113/113
f 113/113/113 115/115/115 114/114/114
f 116/116/116 114/114/114 115/115/115
f 116/116/116 115/115/115 117/117/117
f 116/116/116 117/117/117 118/118/118
f 119/119/119 118/118/118 117/117/117
f 119/119/119 120/120/120 118/118/118
f 116/116/116 118/118/118 121/121/121
f 122/122/122 121/121/121 118/118/118
f 114/114/114 116/116/116 123/123/123
f 121/121/121 123/123/123 116/116/116
f 123/123/123 121/121/121 124/124/124
f 125/125/125 124/124/124 121/121/121
f 124/124/124 126/126/126 123/123/123
f 127/127/127 123/123/123 126/126/126
f 123/123/123 127/127/127 114/114/114
f 126/126/126 76/76/76 127/127/127
f 77/77/77 127/127/127 76/76/76
f 76/76/76 126/126/126 75/75/75
f 72/72/72 75/75/75 126/126/126
f 126/126/126 128/128/128 72/72/72
f 127/127/127 77/77/77 129/129/129
f 129/129/129 114/114/114 127/127/127
f 112/112/112 114/114/114 129/129/129
f 130/130/130 129/129/129 77/77/77
f 130/130/130 107/107/107 129/129/129
f 112/112/112 129/129/129 107/107/107
f 130/130/130 131/131/131 107/107/107
f 77/77/77 78/78/78 130/130/130
f 131/131/131 130/130/130 78/78/78
f 133/133/133 107/107/107 132/132/132
f 135/135/135 134/134/134 92/92/92
f 138/138/138 137/137/137 136/136/136
f 137/137/137 139/139/139 136/136/136
f 140/140/140 136/136/136 139/139/139
f 137/137/137 141/141/141 139/139/139
f 142/142/142 139/139/139 141/141/141
f 142/142/142 141/141/141 143/143/143
f 143/143/143 144/144/144 142/142/142
f 145/145/145 142/142/142 144/144/144
f 146/146/146 145/145/145 144/144/144
f 145/145/145 146/146/146 147/147/147
f 148/148/148 147/147/147 146/146/146
f 149/149/149 143/143/143 141/141/141
f 150/150/150 138/138/138 136/136/136
f 140/140/140 151/151/151 136/136/136
f 150/150/150 136/136/136 151/151/151
f 150/150/150 151/151/151 152/152/152
f 153/153/153 152/152/152 151/151/151
f 153/153/153 154/154/154 152/152/152
f 154/154/154 153/153/153 155/155/155
f 156/156/156 155/155/155 153/153/153
f 156/156/156 157/157/157 155/155/155
f 156/156/156 158/158/158 157/157/157
f 159/159/159 157/157/157 158/158/158
f 160/160/160 152/152/152 154/154/154
f 162/162/162 161/161/161 148/148/148
f 163/163/163 148/148/148 161/161/161
f 162/162/162 164/164/164 161/161/161
f 165/165/165 161/161/161 164/164/164
f 165/165/165 164/164/164 166/166/166
f 167/167/167 159/159/159 166/166/166
f 167/167/167 166/166/166 164/164/164
f 168/168/168 166/166/166 159/159/159
f 171/171/171 170/170/170 169/169/169
f 172/172/172 169/169/169 170/170/170
f 170/170/170 173/173/173 172/172/172
f 174/174/174 172/172/172 173/173/173
f 172/172/172 174/174/174 175/175/175
f 172/172/172 175/175/175 169/169/169
f 176/176/176 175/175/175 174/174/174
f 177/177/177 169/169/169 175/175/175
f 176/176/176 178/178/178 175/175/175
f 179/179/179 175/175/175 178/178/178
f 175/175/175 179/179/179 177/177/177
f 178/178/178 180/180/180 179/179/179
f 181/181/181 177/177/177 179/179/179
f 180/180/180 182/182/182 179/179/179
f 183/183/183 179/179/179 182/182/182
f 179/179/179 183/183/183 181/181/181
f 184/184/184 183/183/183 182/182/182
f 185/185/185 181/181/181 183/183/183
f 173/173/173 170/170/170 186/186/186
f 187/187/187 186/186/186 170/170/170
f 188/188/188 186/186/186 187/187/187
f 170/170/170 189/189/189 187/187/187
f 190/190/190 187/187/187 189/189/189
f 187/187/187 190/190/190 191/191/191
f 187/187/187 191/191/191 188/188/188
f 192/192/192 191/191/191 190/190/190
f 193/193/193 188/188/188 191/191/191
f 183/183/183 184/184/184 194/194/194
f 183/183/183 194/194/194 195/195/195
f 196/196/196 195/195/195 194/194/194
f 196/196/196 197/197/197 195/195/195
f 195/195/195 197/197/197 198/198/198
f 199/199/199 198/198/198 197/197/197
f 199/199/199 200/200/200 198/198/198
f 201/201/201 198/198/198 200/200/200
f 200/200/200 202/202/202 201/201/201
f 203/203/203 201/201/201 202/202/202
f 201/201/201 203/203/203 204/204/204
f 201/201/201 204/204/204 198/198/198
f 205/205/205 204/204/204 203/203/203
f 206/206/206 198/198/198 204/204/204
f 198/198/198 206/206/206 195/195/195
f 207/207/207 195/195/195 206/206/206
f 195/195/195 207/207/207 183/183/183
f 185/185/185 183/183/183 207/207/207
f 202/202/202 208/208/208 203/203/203
f 209/209/209 203/203/203 208/208/208
f 208/208/208 210/210/210 209/209/209
f 203/203/203 209/209/209 211/211/211
f 212/212/212 211/211/211 209/209/209
f 209/209/209 213/213/213 212/212/212
f 209/209/209 210/210/210 213/213/213
f 214/214/214 212/212/212 213/213/213
f 215/215/215 213/213/213 210/210/210
f 218/218/218 217/217/217 216/216/216
f 219/219/219 62/62/62 66/66/66
f 66/66/66 68/68/68 219/219/219
f 220/220/220 219/219/219 68/68/68
f 68/68/68 70/70/70 220/220/220
f 221/221/221 220/220/220 70/70/70
f 125/125/125 121/121/121 222/222/222
f 122/122/122 222/222/222 121/121/121
f 223/223/223 122/122/122 118/118/118
f 118/118/118 120/120/120 224/224/224
f 225/225/225 224/224/224 120/120/120
f 120/120/120 119/119/119 225/225/225
f 226/226/226 225/225/225 119/119/119
