g blue_war_f_pve_1_shoulderstrap
v 0.259389132 0.190867186 1.51514173
v 0.165383548 0.203289852 1.53049386
v 0.204627335 0.203807667 1.47842085
v 0.195750684 0.158170253 1.47149956
v 0.157611772 0.162140042 1.52451432
v 0.125238508 0.164277643 1.56156623
v 0.131852806 0.211491764 1.56117988
v 0.0994484872 0.192364484 1.59575069
v 0.0982304066 0.145673856 1.58129847
v 0.0866059363 0.18836233 1.60313487
v 0.083101213 0.141942635 1.58887076
v 0.119581707 0.192364618 1.67132401
v 0.110070959 0.192048818 1.67476189
v 0.125131264 0.160762161 1.65366173
v 0.135805413 0.165431842 1.72143292
v 0.126643732 0.118885569 1.57783699
v 0.169255048 0.189195082 1.63855159
v 0.125797942 0.16427131 1.72481298
v 0.154903069 0.125345498 1.77713156
v 0.144341573 0.121625908 1.78260171
v 0.145728111 0.128421709 1.69969118
v 0.165419444 0.0688728094 1.73792291
v 0.17024526 0.0628860146 1.8137275
v 0.144341573 0.121625908 1.78260171
v 0.179558426 0.0111826127 1.76359606
v 0.209110424 0.0764554068 1.72186577
v 0.228766799 0.0201782752 1.73610103
v 0.184827954 -0.0115784509 1.83261526
v 0.158329353 0.0592497326 1.81922126
v 0.169280216 -0.0144787999 1.83817685
v 0.193391085 -0.0862319618 1.82454252
v 0.175302953 -0.087880075 1.83279526
v 0.144341573 0.121625908 1.78260171
v 0.188173518 0.111112036 1.70581496
v 0.162957802 0.143012494 1.68606532
v 0.202050552 0.177825108 1.67312729
v 0.208255172 0.152288154 1.72386122
v 0.256911933 0.158704862 1.67330945
v 0.270035774 0.136770174 1.68858969
v 0.235284209 0.12690933 1.71725261
v 0.247133091 0.077009134 1.72580564
v 0.281040996 0.0904243514 1.70139432
v 0.294018686 0.0295751709 1.71174002
v 0.262189567 0.022768097 1.73548913
v 0.28153652 0.0827826485 1.65802133
v 0.270385116 0.123946041 1.63038909
v 0.30368638 0.02417529 1.67418563
v 0.373201221 0.0428360924 1.59434354
v 0.363843918 -0.031059742 1.57794344
v 0.298916608 -0.0355675109 1.65798914
v 0.349265665 0.109033763 1.58125877
v 0.30096522 -0.0330239721 1.70153701
v 0.270385116 0.123946041 1.63038909
v 0.328721762 0.0362772755 1.55214417
v 0.320205152 -0.0207439959 1.54359353
v 0.336060941 -0.0965264514 1.54793179
v 0.373201221 0.0428360924 1.59434354
v 0.308049142 0.0883755386 1.54129732
v 0.275139183 0.128696844 1.52072704
v 0.307236344 0.16529049 1.55324304
v 0.354334325 0.103931151 1.48507535
v 0.328721762 0.0362772755 1.55214417
v 0.373729855 0.0488669388 1.49296021
v 0.367070079 -0.0155215664 1.48663437
v 0.335383594 -0.0643438399 1.46250451
v 0.295877397 -0.0654268786 1.52347803
v 0.299349248 -0.102501914 1.43611276
v 0.264210194 -0.102417201 1.49670589
v 0.298710167 -0.0270786304 1.44330013
v 0.299349248 -0.102501914 1.43611276
v 0.265345901 -0.0575574301 1.419788
v 0.24989368 -0.135948598 1.3926338
v 0.22164093 -0.0939109027 1.38383758
v 0.24989368 -0.135948598 1.3926338
v 0.226216972 -0.128970757 1.47003806
v 0.216985852 -0.138528362 1.45748138
v 0.155277535 -0.170659035 1.54417491
v 0.130075142 -0.143445998 1.53708816
v 0.192801088 -0.108741947 1.45023811
v 0.192922011 -0.147457942 1.51543868
v 0.256055117 -0.175782695 1.48163688
v 0.217609152 -0.177586436 1.52410305
v 0.162244201 -0.159598634 1.55924582
v 0.190693334 -0.204427689 1.57021284
v 0.163230091 -0.194335729 1.59624183
v 0.179849386 -0.191623405 1.6079042
v 0.140130341 -0.16196537 1.57987726
v 0.142404735 -0.195549935 1.60931361
v 0.124199763 -0.163995966 1.59062982
v 0.171475857 -0.195966199 1.63462007
v 0.156190485 -0.198759764 1.64144325
v 0.181167886 -0.1900426 1.68249905
v 0.170973778 -0.193319514 1.68903899
v 0.187843069 -0.173808411 1.72176123
v 0.176561162 -0.177498475 1.72882366
v 0.173484907 -0.156321943 1.6533922
v 0.178309381 -0.14380236 1.69885111
v 0.179128677 -0.104539856 1.70082593
v 0.175186083 -0.108976819 1.70641661
v 0.217545718 -0.120961003 1.67416394
v 0.190562919 -0.159324124 1.63825941
v 0.162836626 -0.14709124 1.70669889
v 0.162836626 -0.14709124 1.70669889
v 0.180842161 -0.0528469831 1.73730743
v 0.175805092 -0.0799822584 1.73408151
v 0.155826315 -0.111788072 1.71500826
v 0.181291506 -0.0660419613 1.77337122
v 0.156219557 -0.0824487284 1.7427603
v 0.155826315 -0.111788072 1.71500826
v 0.161845788 -0.0682364255 1.78197205
v 0.186867118 -0.0691526085 1.80149019
v 0.168878973 -0.0709671974 1.80974936
v 0.193391085 -0.0862319618 1.82454252
v 0.228133351 -0.0396575704 1.72267425
v 0.211104527 -0.0804602429 1.70990348
v 0.202429712 -0.10217873 1.69759238
v 0.266119123 -0.0342553295 1.72951782
v 0.260535359 -0.071012646 1.72136712
v 0.248708829 -0.0931540504 1.71928585
v 0.222761288 -0.11447686 1.7202543
v 0.298370808 -0.0600493997 1.69424081
v 0.297873735 -0.097617656 1.68263912
v 0.28278482 -0.121174753 1.6645962
v 0.23924844 -0.13554652 1.68095577
v 0.270400316 -0.145849586 1.63787806
v 0.288545907 -0.0940712839 1.61965036
v 0.259508401 -0.140473768 1.57714689
v 0.300380707 -0.135602415 1.51565278
v 0.238558695 -0.159030065 1.55062461
v 0.256055117 -0.175782695 1.48163688
v 0.249190375 -0.175988391 1.6122905
v 0.240477055 -0.196525469 1.57984555
v 0.209631816 -0.180102482 1.64617264
v 0.196439669 -0.209026873 1.61578548
v 0.190693334 -0.204427689 1.57021284
v 0.163230091 -0.194335729 1.59624183
v 0.297873735 -0.097617656 1.68263912
v 0.259389132 0.190867186 1.51514173
v 0.212870896 0.183135509 1.57646024
v 0.251326472 0.152029917 1.61680925
v 0.195864677 0.194310024 1.60493767
v 0.349265665 0.109033763 1.58125877
v 0.233345449 0.182322323 1.64904356
v 0.236177579 0.148033723 1.49620247
v 0.269646287 0.155149028 1.42583406
v 0.236177579 0.148033723 1.49620247
v 0.316850722 0.140046179 1.46078622
v 0.354334325 0.103931151 1.48507535
v 0.236177579 0.148033723 1.49620247
v 0.204627335 0.203807667 1.47842085
v 0.269646287 0.155149028 1.42583406
v 0.298532099 0.0942665488 1.44548166
v 0.258186787 0.10408207 1.41805136
v 0.211733371 0.160000652 1.38602448
v 0.320500702 0.073406592 1.45944118
v 0.331163704 0.0429008938 1.46491373
v 0.373729855 0.0488669388 1.49296021
v 0.325943589 0.00882800762 1.46106315
v 0.298710167 -0.0270786304 1.44330013
v 0.178766668 0.156273946 1.45219338
v 0.171835363 0.119004674 1.4481169
v 0.0973565355 0.135281354 1.53606582
v 0.109508567 0.170827016 1.53990042
v 0.126643732 0.118885569 1.57783699
v 0.125238508 0.164277643 1.56156623
v 0.20548524 0.113421783 1.38298929
v 0.211733371 0.160000652 1.38602448
v 0.0930613652 0.116328873 1.64671516
v 0.159484476 0.0850397125 1.62744308
v 0.126643732 0.118885569 1.57783699
v 0.101617418 0.0923744813 1.69133985
v 0.111627519 0.0447051525 1.72502077
v 0.12000449 0.108304411 1.72953486
v 0.130216718 0.0533274338 1.76551223
v 0.104158476 0.145289898 1.67581201
v 0.0866059363 0.18836233 1.60313487
v 0.083101213 0.141942635 1.58887076
v 0.125797942 0.16427131 1.72481298
v 0.144341573 0.121625908 1.78260171
v 0.1213677 -0.000811775331 1.74520075
v 0.133396551 -0.0126871597 1.78133035
v 0.137261629 -0.0654069781 1.74225068
v 0.124334551 -0.0486693643 1.72592759
v 0.158329353 0.0592497326 1.81922126
v 0.169280216 -0.0144787999 1.83817685
v 0.194101915 0.0166908205 1.64598203
v 0.173539534 -0.0477079377 1.62965035
v 0.127033263 -0.0943748057 1.69314706
v 0.14105697 -0.103281632 1.58523643
v 0.127105117 -0.130093575 1.64833724
v 0.146528825 -0.149912983 1.67352128
v 0.140940666 -0.104028568 1.70584118
v 0.156219557 -0.0824487284 1.7427603
v 0.155826315 -0.111788072 1.71500826
v 0.124199763 -0.163995966 1.59062982
v 0.142404735 -0.195549935 1.60931361
v 0.156190485 -0.198759764 1.64144325
v 0.170973778 -0.193319514 1.68903899
v 0.176561162 -0.177498475 1.72882366
v 0.325943589 0.00882800762 1.46106315
v 0.331163704 0.0429008938 1.46491373
v 0.298710167 -0.0270786304 1.44330013
v 0.265345901 -0.0575574301 1.419788
v 0.162836626 -0.14709124 1.70669889
v 0.176561162 -0.177498475 1.72882366
v 0.155826315 -0.111788072 1.71500826
v 0.162836626 -0.14709124 1.70669889
v 0.161845788 -0.0682364255 1.78197205
v 0.168878973 -0.0709671974 1.80974936
v 0.175302953 -0.087880075 1.83279526
v 0.175302953 -0.087880075 1.83279526
v 0.162836626 -0.14709124 1.70669889
v 0.176561162 -0.177498475 1.72882366
v 0.155826315 -0.111788072 1.71500826
v 0.110070959 0.192048818 1.67476189
v 0.144341573 0.121625908 1.78260171
v 0.175302953 -0.087880075 1.83279526
v 0.336060941 -0.0965264514 1.54793179
v 0.295877397 -0.0654268786 1.52347803
v 0.300380707 -0.135602415 1.51565278
v 0.264210194 -0.102417201 1.49670589
v 0.256055117 -0.175782695 1.48163688
v 0.226216972 -0.128970757 1.47003806
v 0.299303442 -0.060644377 1.63491821
v 0.298370808 -0.0600493997 1.69424081
v 0.299303442 -0.060644377 1.63491821
v 0.298532099 0.0942665488 1.44548166
v 0.258186787 0.10408207 1.41805136
v 0.0973565355 0.135281354 1.53606582
v 0.0973565355 0.135281354 1.53606582
v 0.171835363 0.119004674 1.4481169
v 0.20548524 0.113421783 1.38298929
v 0.320500702 0.073406592 1.45944118
v 0.298532099 0.0942665488 1.44548166
v 0.331163704 0.0429008938 1.46491373
v 0.130075142 -0.143445998 1.53708816
v 0.265345901 -0.0575574301 1.419788
v 0.130075142 -0.143445998 1.53708816
v 0.192801088 -0.108741947 1.45023811
v 0.22164093 -0.0939109027 1.38383758
v 0.270385116 0.123946041 1.63038909
v 0.304409653 0.107868858 1.71859086
v 0.330142498 0.106700502 1.67394006
v 0.348032743 0.0759477392 1.68486297
v 0.270385116 0.123946041 1.63038909
v 0.270035774 0.136770174 1.68858969
v 0.322186887 0.140312701 1.66724885
v 0.270385116 0.123946041 1.63038909
v 0.251326472 0.152029917 1.61680925
v 0.34853667 0.124185547 1.68333757
v 0.362984091 0.0956894085 1.69616508
v 0.320400149 0.123095721 1.73375225
v 0.327762991 0.101892062 1.74872148
v 0.33838293 0.0770769119 1.75537193
v 0.302375317 0.138455898 1.70768404
v 0.251326472 0.152029917 1.61680925
v 0.256911933 0.158704862 1.67330945
v 0.304409653 0.107868858 1.71859086
v 0.348032743 0.0759477392 1.68486297
v 0.353944004 0.044194486 1.6916194
v 0.379364073 0.048155766 1.70273376
v 0.377264857 -0.00232209032 1.69843483
v 0.35749945 0.0109784584 1.68636763
v 0.347409189 0.044826664 1.76004386
v 0.377264857 -0.00232209032 1.69843483
v 0.349468678 0.00965503044 1.75763774
v 0.345593482 -0.0169130322 1.75282753
v 0.3441706 -0.0403678417 1.73878586
v 0.320873469 -0.0417377464 1.76891792
v 0.308683783 -0.0526132099 1.74783337
v 0.331296235 -0.0600305162 1.71227992
v 0.371630013 -0.0343058966 1.68700731
v 0.349075317 -0.0232380871 1.67694879
v 0.35749945 0.0109784584 1.68636763
v 0.32462737 -0.0287546385 1.7185899
v 0.3531349 -0.0591329932 1.67053878
v 0.320120841 -0.020936314 1.77505994
v 0.299303442 -0.060644377 1.63491821
v 0.288545907 -0.0940712839 1.61965036
v 0.297873735 -0.097617656 1.68263912
v 0.298370808 -0.0600493997 1.69424081
v 0.32462737 -0.0287546385 1.7185899
v 0.288545907 -0.0940712839 1.61965036
v 0.283339709 -0.0452675894 1.77809477
v 0.305558324 -0.0295501873 1.75152123
v 0.283934385 -0.029499976 1.77597511
v 0.264024168 -0.040321026 1.79838157
v 0.268616855 -0.0377117991 1.80672324
v 0.246131554 -0.0347938836 1.814381
v 0.268312573 -0.0302029047 1.80533433
v 0.292524964 -0.040049132 1.79477811
v 0.291916281 -0.0250314232 1.79200101
v 0.283934385 -0.029499976 1.77597511
v 0.305558324 -0.0295501873 1.75152123
v 0.345593482 -0.0169130322 1.75282753
v 0.32462737 -0.0287546385 1.7185899
v 0.264321446 -0.0324372314 1.79732192
v 0.246131554 -0.0347938836 1.814381
v 0.264321446 -0.0324372314 1.79732192
v 0.304409653 0.107868858 1.71859086
v 0.270035774 0.136770174 1.68858969
v 0.260187596 0.11362724 1.77441537
v 0.286204875 0.103272833 1.74844635
v 0.282647192 0.126077443 1.74369574
v 0.265268624 0.098604925 1.77300882
v 0.296789587 0.120607927 1.76585948
v 0.26935789 0.11206051 1.78998578
v 0.274502158 0.097618565 1.78963065
v 0.302463531 0.100246087 1.77225387
v 0.265268624 0.098604925 1.77300882
v 0.286204875 0.103272833 1.74844635
v 0.251642853 0.0971066728 1.80093873
v 0.249783725 0.104445376 1.80198371
v 0.244692624 0.105255514 1.79356349
v 0.247233123 0.097744368 1.79285944
v 0.247233123 0.097744368 1.79285944
v 0.304409653 0.107868858 1.71859086
v 0.327762991 0.101892062 1.74872148
v 0.304409653 0.107868858 1.71859086
v 0.224841401 0.0938235149 1.81128538
v 0.224841401 0.0938235149 1.81128538
v 0.333196342 0.042270489 1.73908699
v 0.349468678 0.00965503044 1.75763774
v 0.33481285 0.00679938542 1.7325145
v 0.345593482 -0.0169130322 1.75282753
v 0.32462737 -0.0287546385 1.7185899
v 0.33838293 0.0770769119 1.75537193
v 0.324792385 0.075569883 1.73092234
v 0.327762991 0.101892062 1.74872148
v 0.304409653 0.107868858 1.71859086
v 0.32462737 -0.0287546385 1.7185899
v 0.33481285 0.00679938542 1.7325145
v 0.333196342 0.042270489 1.73908699
v 0.324792385 0.075569883 1.73092234
v 0.304409653 0.107868858 1.71859086
v 0.299303442 -0.060644377 1.63491821
v 0.298370808 -0.0600493997 1.69424081
v 0.14105697 -0.103281632 1.58523643
v 0.14105697 -0.103281632 1.58523643
v 0.14105697 -0.103281632 1.58523643
v -0.147322595 0.14584288 1.69845057
v -0.0868381634 0.16906181 1.64871883
v -0.106984176 0.138333455 1.70143747
v -0.0867780969 0.178816274 1.64184427
v -0.145976946 0.072733961 1.75960732
v -0.094059512 0.107971191 1.67908919
v -0.181851923 0.105882756 1.74395156
v -0.199468285 0.158560663 1.66365993
v -0.236224309 0.117084578 1.70721817
v -0.272382379 0.161612302 1.63278341
v -0.278941602 0.121993326 1.67801833
v -0.210287571 0.0797006339 1.77207756
v -0.265313238 0.0807204023 1.73296201
v -0.306251258 0.0843533203 1.70918572
v -0.28696391 0.0596477389 1.75662184
v -0.330586463 0.0579482764 1.73553741
v -0.345927507 0.0272359326 1.7521832
v -0.305113435 0.0339333825 1.78393424
v -0.236274555 0.0591743737 1.7993474
v -0.309543908 0.148997143 1.59953105
v -0.350021034 0.0920320377 1.63725686
v -0.325294793 0.0742304474 1.59787822
v -0.344075859 0.0214302577 1.61317563
v -0.369663835 0.0283448547 1.6463263
v -0.288667649 0.120771751 1.56755471
v -0.253186792 0.186521873 1.55644453
v -0.238406971 0.136493221 1.53889215
v -0.17906478 0.19243069 1.55390358
v -0.161905855 0.14870882 1.53292191
v -0.318771839 0.127962753 1.52120864
v -0.369219273 0.0903388858 1.55524337
v -0.397017211 0.0221228879 1.57166374
v -0.344075859 0.0214302577 1.61317563
v -0.291101098 0.0894156992 1.50431716
v -0.228422165 0.115794674 1.47027826
v -0.254769593 0.145295799 1.4855063
v -0.317036629 0.0620977879 1.52235198
v -0.330196768 0.0194655713 1.52717185
v -0.397017211 0.0221228879 1.57166374
v -0.195778117 0.103010431 1.47040832
v -0.2170486 0.0855950415 1.47126734
v -0.290968895 0.0955018625 1.43669939
v -0.264354616 0.0699561313 1.44036639
v -0.321781904 0.0594953708 1.42777312
v -0.28795138 0.0452464968 1.42954695
v -0.208474383 0.142678067 1.47597611
v -0.164059997 0.143393785 1.48454893
v -0.152682751 0.107446365 1.48131883
v -0.331456602 0.0234113354 1.4239471
v -0.292485982 0.0220503565 1.42723465
v -0.0966629013 0.15446642 1.51552629
v -0.107790932 0.149782196 1.54735208
v -0.0962493569 0.134012491 1.5433172
v -0.0813619047 0.127863035 1.56746578
v -0.0849049836 0.119279258 1.51273644
v -0.118976116 0.188476026 1.56668425
v -0.104979046 0.186095744 1.58655715
v -0.0813619047 0.127863035 1.56746578
v -0.17906478 0.19243069 1.55390358
v -0.134394199 0.217618972 1.61841714
v -0.0849049836 0.119279258 1.51273644
v -0.0622112453 0.133758068 1.58455706
v -0.0776517093 0.18700701 1.60760367
v -0.0439223647 0.13889879 1.58682215
v -0.0606657602 0.192488477 1.60646737
v -0.0300679207 0.141631871 1.59526765
v -0.0479816794 0.19369337 1.61637783
v -0.0464700498 0.188130468 1.63352394
v -0.0464700498 0.188130468 1.63352394
v -0.0663835332 0.176925242 1.65677691
v -0.0471354648 0.125358656 1.63748574
v -0.0281388089 0.138043329 1.61455655
v -0.069090724 0.127944097 1.63091516
v -0.0776517093 0.18700701 1.60760367
v -0.0926703215 0.206760913 1.64389431
v -0.0464700498 0.188130468 1.63352394
v -0.0300679207 0.141631871 1.59526765
v -0.0479816794 0.19369337 1.61637783
v -0.208821163 0.211792961 1.59000099
v -0.255347013 0.209083855 1.57161355
v -0.208821163 0.211792961 1.59000099
v -0.17906478 0.19243069 1.55390358
v -0.151814088 -0.0899973214 1.75153255
v -0.144627705 -0.0139304101 1.74731934
v -0.126609668 -0.0703350827 1.72404981
v -0.10379079 -0.112384163 1.67626274
v -0.144627705 -0.0139304101 1.74731934
v -0.16609779 -0.0100804288 1.78261268
v -0.188044757 -0.0265903175 1.76924908
v -0.180761769 0.0228744112 1.76455534
v -0.198350459 -0.0986537412 1.75024426
v -0.161581486 -0.145162001 1.70169616
v -0.121076822 -0.140856057 1.69730759
v -0.10379079 -0.112384163 1.67626274
v -0.106344342 -0.171579599 1.64959085
v -0.0890678018 -0.142015055 1.63695049
v -0.139209285 -0.200447217 1.66169035
v -0.0994186252 -0.18811512 1.65910387
v -0.0697550923 -0.14135763 1.63863337
v -0.0853498727 -0.213974074 1.62999105
v -0.0558313355 -0.164751157 1.61118889
v -0.225940883 -0.142146438 1.67027724
v -0.247928575 -0.0949827284 1.71610725
v -0.290634692 -0.133920759 1.63740051
v -0.294686973 -0.0940797403 1.6872226
v -0.21857664 -0.0684565306 1.77622437
v -0.270631284 -0.060712751 1.74485481
v -0.315331846 -0.0568047129 1.71669662
v -0.3297396 -0.116479985 1.59471965
v -0.357977301 -0.0624341331 1.63121963
v -0.329253674 -0.0389795192 1.59790719
v -0.344075859 0.0214302577 1.61317563
v -0.369267255 -0.0224360023 1.6438334
v -0.299313664 -0.0896469578 1.56511223
v -0.269848764 -0.181696102 1.5448494
v -0.245280549 -0.136267617 1.52925849
v -0.206324592 -0.160311431 1.52665544
v -0.229139537 -0.196642771 1.53959274
v -0.327095181 -0.0949120894 1.50948405
v -0.377720773 -0.0466489084 1.55311477
v -0.277707011 -0.128283352 1.47168326
v -0.303868353 -0.0545368977 1.50289214
v -0.258439928 -0.0865826309 1.46659303
v -0.228189871 -0.15568015 1.4647789
v -0.19988203 -0.115744315 1.46083128
v -0.296502292 -0.0593053661 1.4381181
v -0.268340915 -0.034582708 1.43868637
v -0.3205854 -0.0228549801 1.42696846
v -0.287356764 -0.0111994399 1.42951834
v -0.240057006 -0.0577442683 1.465886
v -0.142790735 -0.185915709 1.54686224
v -0.179180279 -0.182771504 1.48822427
v -0.133850634 -0.194396213 1.5250833
v -0.151636288 -0.143775463 1.48211098
v -0.107387543 -0.161731571 1.51754332
v -0.292485982 0.0220503565 1.42723465
v -0.331456602 0.0234113354 1.4239471
v -0.32102415 -0.029473586 1.52281034
v -0.330196768 0.0194655713 1.52717185
v -0.397017211 0.0221228879 1.57166374
v -0.377720773 -0.0466489084 1.55311477
v -0.344075859 0.0214302577 1.61317563
v -0.397017211 0.0221228879 1.57166374
v -0.128461421 -0.162964433 1.54136014
v -0.107387543 -0.161731571 1.51754332
v -0.142790735 -0.185915709 1.54686224
v -0.327095181 -0.0949120894 1.50948405
v -0.154314265 -0.205567762 1.5873431
v -0.159157097 -0.216576636 1.56258607
v -0.118777044 -0.153530061 1.56733096
v -0.219054192 -0.185803548 1.57196379
v -0.176942989 -0.219957918 1.61895859
v -0.132163465 -0.225086614 1.64060259
v -0.125305712 -0.206413612 1.60241711
v -0.154314265 -0.205567762 1.5873431
v -0.118777044 -0.153530061 1.56733096
v -0.0946032181 -0.156459004 1.58341348
v -0.240833208 -0.204957411 1.58695281
v -0.28584972 -0.198464409 1.57030976
v -0.290634692 -0.133920759 1.63740051
v -0.229139537 -0.196642771 1.53959274
v -0.119528256 -0.19049032 1.6425482
v -0.125305712 -0.206413612 1.60241711
v -0.0833956003 -0.165680021 1.57914293
v -0.113705233 -0.216710359 1.59814918
v -0.0638303161 -0.174477577 1.5882591
v -0.0934497342 -0.223997965 1.60602403
v -0.119528256 -0.19049032 1.6425482
v -0.0934497342 -0.223997965 1.60602403
v -0.0638303161 -0.174477577 1.5882591
v -0.0558313355 -0.164751157 1.61118889
v -0.0934497342 -0.223997965 1.60602403
v -0.094059512 0.107971191 1.67908919
v -0.126135781 0.0554284714 1.73067343
v -0.144627705 -0.0139304101 1.74731934
v -0.144830704 0.0843736529 1.61071622
v -0.0813619047 0.127863035 1.56746578
v -0.0962493569 0.134012491 1.5433172
v -0.0849049836 0.119279258 1.51273644
v -0.173562825 0.0963296741 1.52360022
v -0.282577991 0.0631993338 1.53661978
v -0.156173155 0.0557574928 1.64198637
v -0.126135781 0.0554284714 1.73067343
v -0.166466042 0.0084312344 1.66297054
v -0.144627705 -0.0139304101 1.74731934
v -0.2170486 0.0855950415 1.47126734
v -0.264354616 0.0699561313 1.44036639
v -0.306625009 0.016826855 1.53609383
v -0.28607443 -0.0383655839 1.53766525
v -0.161035731 -0.0390009917 1.64456904
v -0.144627705 -0.0139304101 1.74731934
v -0.126609668 -0.0703350827 1.72404981
v -0.292485982 0.0220503565 1.42723465
v -0.287356764 -0.0111994399 1.42951834
v -0.268340915 -0.034582708 1.43868637
v -0.203106403 -0.0908723697 1.5530771
v -0.146831065 -0.061002288 1.60852647
v -0.10379079 -0.112384163 1.67626274
v -0.0890678018 -0.142015055 1.63695049
v -0.126609668 -0.0703350827 1.72404981
v -0.240057006 -0.0577442683 1.465886
v -0.107387543 -0.161731571 1.51754332
v -0.128461421 -0.162964433 1.54136014
v -0.118777044 -0.153530061 1.56733096
v -0.0946032181 -0.156459004 1.58341348
v -0.0697550923 -0.14135763 1.63863337
v -0.151636288 -0.143775463 1.48211098
v -0.19988203 -0.115744315 1.46083128
v -0.258439928 -0.0865826309 1.46659303
v -0.240057006 -0.0577442683 1.465886
v -0.258439928 -0.0865826309 1.46659303
v -0.0833956003 -0.165680021 1.57914293
v -0.0697550923 -0.14135763 1.63863337
v -0.0558313355 -0.164751157 1.61118889
v -0.0558313355 -0.164751157 1.61118889
v -0.0638303161 -0.174477577 1.5882591
v -0.0890678018 -0.142015055 1.63695049
v -0.126135781 0.0554284714 1.73067343
v -0.094059512 0.107971191 1.67908919
v -0.069090724 0.127944097 1.63091516
v -0.0622112453 0.133758068 1.58455706
v -0.094059512 0.107971191 1.67908919
v -0.0471354648 0.125358656 1.63748574
v -0.0622112453 0.133758068 1.58455706
v -0.0281388089 0.138043329 1.61455655
v -0.0439223647 0.13889879 1.58682215
v -0.0300679207 0.141631871 1.59526765
v -0.378566265 -0.0207448192 1.68014395
v -0.369267255 -0.0224360023 1.6438334
v -0.332244933 -0.0367139913 1.73877382
v -0.398809195 -0.00490106409 1.70558548
v -0.418979645 -0.0293224715 1.66381133
v -0.428080887 -0.0134498533 1.68892813
v -0.397934109 0.0271807667 1.70489454
v -0.347578108 -0.00720456755 1.75215745
v -0.431453854 0.0143226441 1.6866914
v -0.369263232 0.0422720537 1.68203294
v -0.425568461 0.024648618 1.66033018
v -0.369267255 -0.0224360023 1.6438334
v -0.417320848 -0.0223571733 1.63569939
v -0.421636581 0.011099454 1.63502514
v -0.369267255 -0.0224360023 1.6438334
v -0.417320848 -0.0223571733 1.63569939
v -0.31049183 -0.00276568765 1.78119123
v -0.261264771 0.0295339953 1.82251203
v -0.264106661 -0.0133005232 1.82167923
v -0.221636713 0.027026223 1.8291465
v -0.224411771 -0.0154959271 1.8282733
v -0.202100083 -0.0366663262 1.80061412
v -0.240263075 -0.0472678021 1.80167401
v -0.198105216 0.0459847488 1.80303752
v -0.180761769 0.0228744112 1.76455534
v -0.180761769 0.0228744112 1.76455534
v -0.297629178 -0.0335240215 1.76789963
v -0.16609779 -0.0100804288 1.78261268
v -0.180761769 0.0228744112 1.76455534
v -0.461846709 -0.00580169074 1.67737269
v -0.461079955 -0.024614539 1.67862499
v -0.510252118 -0.0359159708 1.67291546
v -0.462806284 -0.0345280692 1.66210616
v -0.464994848 0.00395095954 1.65899873
v -0.466349661 -0.00616763439 1.6423955
v -0.510252118 -0.0359159708 1.67291546
v -0.465006828 -0.0257924926 1.64414561
v -0.465006828 -0.0257924926 1.64414561
v -0.195778117 0.103010431 1.47040832
v -0.152682751 0.107446365 1.48131883
v -0.28795138 0.0452464968 1.42954695
v 0.32462737 -0.0287546385 1.7185899
v -0.369267255 -0.0224360023 1.6438334
v 0.24989368 -0.135948598 1.3926338
v -0.180761769 0.0228744112 1.76455534
v -0.198105216 0.0459847488 1.80303752
v -0.236274555 0.0591743737 1.7993474
v -0.238406971 0.136493221 1.53889215
v -0.254769593 0.145295799 1.4855063
vt 0.174203977 0.499120593
vt 0.217059046 0.428196251
vt 0.165940911 0.449161232
vt 0.134334534 0.435078382
vt 0.195038289 0.398833573
vt 0.240283579 0.3707093
vt 0.255383253 0.412832826
vt 0.301011711 0.400265127
vt 0.278232872 0.355038524
vt 0.311580718 0.390125722
vt 0.293892801 0.350975722
vt 0.372837871 0.424848706
vt 0.377750635 0.41767934
vt 0.352430254 0.453202158
vt 0.415838212 0.46129632
vt 0.254312307 0.331074476
vt 0.310503125 0.474670053
vt 0.423278928 0.45478943
vt 0.465867549 0.508650422
vt 0.476302326 0.505468845
vt 0.394279927 0.500661433
vt 0.432790101 0.569462121
vt 0.500042498 0.572372794
vt 0.476302326 0.505468845
vt 0.453204095 0.640357912
vt 0.392343193 0.584325135
vt 0.398965359 0.643620729
vt 0.521941602 0.644184113
vt 0.512004912 0.569855392
vt 0.537164271 0.641346753
vt 0.531663835 0.710791588
vt 0.543819249 0.716385603
vt 0.476302326 0.505468845
vt 0.389318377 0.543248475
vt 0.371486008 0.50000453
vt 0.322599113 0.512238681
vt 0.354092211 0.54163897
vt 0.297899574 0.555951953
vt 0.307928234 0.567795515
vt 0.347715557 0.56261301
vt 0.361841261 0.601212263
vt 0.32370767 0.597565532
vt 0.330917507 0.648666143
vt 0.368084103 0.648003101
vt 0.287255853 0.60594362
vt 0.264870226 0.569282234
vt 0.29639861 0.659053802
vt 0.198113069 0.653017581
vt 0.194320768 0.707707107
vt 0.289412051 0.712138951
vt 0.190678701 0.604413748
vt 0.326691538 0.69872117
vt 0.264870226 0.569282234
vt 0.143477455 0.65607959
vt 0.143743664 0.715022743
vt 0.190078065 0.766151786
vt 0.198113069 0.653017581
vt 0.13805306 0.597823143
vt 0.134227306 0.541078448
vt 0.18393828 0.548372984
vt 0.0710177869 0.598385215
vt 0.143477455 0.65607959
vt 0.0736427009 0.651019216
vt 0.0763655379 0.709622979
vt 0.0752030313 0.76802206
vt 0.141467929 0.768455982
vt 0.0782218874 0.822572351
vt 0.141481519 0.822991908
vt 0.0236569401 0.768385649
vt 0.0782218874 0.822572351
vt 0.0243901331 0.830500782
vt 0.0762020648 0.884062171
vt 0.0475193337 0.907841802
vt 0.0762020648 0.884062171
vt 0.149017438 0.881786823
vt 0.140333444 0.899910808
vt 0.238430023 0.943292379
vt 0.225521162 0.972512066
vt 0.124713123 0.935145736
vt 0.207347333 0.913099945
vt 0.185111791 0.86256659
vt 0.226693556 0.882837951
vt 0.261496067 0.938535631
vt 0.283931375 0.892148495
vt 0.321328253 0.90220356
vt 0.326657772 0.88363421
vt 0.297465086 0.942846239
vt 0.336964786 0.919265687
vt 0.315241009 0.947989583
vt 0.360262871 0.889982641
vt 0.367010474 0.904093981
vt 0.404977888 0.877464592
vt 0.412346631 0.886230886
vt 0.439682007 0.859125376
vt 0.44936493 0.862809479
vt 0.374980867 0.848240197
vt 0.419760287 0.82819289
vt 0.420231014 0.787732244
vt 0.426658005 0.789572716
vt 0.373440057 0.793262362
vt 0.357507765 0.847293079
vt 0.436805636 0.826184273
vt 0.436805636 0.826184273
vt 0.444679111 0.72074908
vt 0.447389424 0.750742912
vt 0.445939422 0.793672502
vt 0.479548991 0.72000742
vt 0.464872062 0.760580063
vt 0.445939422 0.793672502
vt 0.492833465 0.734886289
vt 0.506810606 0.708362997
vt 0.515277386 0.725517631
vt 0.531663835 0.710791588
vt 0.40055123 0.703723907
vt 0.408399016 0.747733772
vt 0.402695566 0.776178539
vt 0.36748895 0.69469589
vt 0.367330998 0.723970234
vt 0.371315837 0.74254638
vt 0.384311527 0.762684703
vt 0.3257716 0.716133595
vt 0.315297663 0.737548828
vt 0.311557204 0.762995362
vt 0.350680619 0.783376932
vt 0.30080682 0.791944742
vt 0.266024679 0.760807574
vt 0.250560164 0.81709832
vt 0.185022801 0.812206209
vt 0.237529665 0.848924875
vt 0.185111791 0.86256659
vt 0.292883664 0.82700032
vt 0.275343537 0.851566315
vt 0.336759925 0.838594079
vt 0.317844003 0.869956434
vt 0.283931375 0.892148495
vt 0.321328253 0.90220356
vt 0.315297663 0.737548828
vt 0.174203977 0.499120593
vt 0.241815001 0.485287786
vt 0.257113308 0.538908362
vt 0.271008164 0.47960785
vt 0.190678701 0.604413748
vt 0.291515827 0.524212122
vt 0.131479174 0.489817083
vt 0.0612413287 0.49276346
vt 0.131479174 0.489817083
vt 0.0671114922 0.546773314
vt 0.0710177869 0.598385215
vt 0.131479174 0.489817083
vt 0.165940911 0.449161232
vt 0.0612413287 0.49276346
vt 0.0205523204 0.552678645
vt 0.0123704607 0.49128288
vt 0.0555175096 0.434808433
vt 0.0245151203 0.602428377
vt 0.0274085123 0.653447866
vt 0.0736427009 0.651019216
vt 0.0279864706 0.70602721
vt 0.0236569401 0.768385649
vt 0.118883856 0.412731379
vt 0.0995174795 0.380252033
vt 0.202270657 0.332397878
vt 0.212365597 0.361682624
vt 0.254312307 0.331074476
vt 0.240283579 0.3707093
vt 0.027186146 0.415640444
vt 0.0555175096 0.434808433
vt 0.291402251 0.10573002
vt 0.323747367 0.136438638
vt 0.33108148 0.0957332179
vt 0.275878042 0.128885478
vt 0.266436189 0.160109997
vt 0.251729459 0.128850132
vt 0.242769599 0.162593275
vt 0.27022925 0.0989601836
vt 0.295073301 0.0611864552
vt 0.312296659 0.0791474208
vt 0.240594372 0.101159208
vt 0.220509246 0.132992953
vt 0.262416333 0.18835181
vt 0.243339539 0.198122829
vt 0.265274376 0.224571973
vt 0.273579389 0.215070456
vt 0.211329594 0.168433398
vt 0.209065363 0.206529111
vt 0.327600628 0.179660887
vt 0.329802662 0.216287851
vt 0.289967448 0.240802139
vt 0.347697228 0.257432222
vt 0.310662836 0.263239145
vt 0.293840677 0.273599744
vt 0.281041175 0.246961981
vt 0.259276122 0.238572568
vt 0.273253649 0.252973229
vt 0.337313741 0.28637749
vt 0.323476285 0.302247733
vt 0.305318981 0.302458853
vt 0.279771894 0.297107935
vt 0.260104626 0.286278874
vt 0.446231216 0.176440209
vt 0.445225805 0.15819934
vt 0.448067218 0.201880693
vt 0.451499552 0.228236288
vt 0.274684697 0.271401852
vt 0.260104626 0.286278874
vt 0.273253649 0.252973229
vt 0.274684697 0.271401852
vt 0.239741191 0.230341733
vt 0.226066336 0.232878566
vt 0.215593681 0.243382841
vt 0.215593681 0.243382841
vt 0.436805636 0.826184273
vt 0.44936493 0.862809479
vt 0.445939422 0.793672502
vt 0.258962721 0.0765539035
vt 0.220509246 0.132992953
vt 0.543819249 0.716385603
vt 0.190078065 0.766151786
vt 0.141467929 0.768455982
vt 0.185022801 0.812206209
vt 0.141481519 0.822991908
vt 0.185111791 0.86256659
vt 0.149017438 0.881786823
vt 0.274197966 0.736053884
vt 0.3257716 0.716133595
vt 0.274197966 0.736053884
vt 0.441461056 0.123786651
vt 0.439245552 0.098375164
vt 0.337706774 0.0688189492
vt 0.337706774 0.0688189492
vt 0.398595333 0.0719007477
vt 0.436483234 0.0649764761
vt 0.443422347 0.141121745
vt 0.441461056 0.123786651
vt 0.445225805 0.15819934
vt 0.364499241 0.285328627
vt 0.451499552 0.228236288
vt 0.364499241 0.285328627
vt 0.420358866 0.266311973
vt 0.458910257 0.262700468
vt 0.0447709188 0.037703827
vt 0.0276629366 0.117045112
vt 0.0723252594 0.102407411
vt 0.079272598 0.138889343
vt 0.0447709188 0.037703827
vt 0.012231105 0.075681597
vt 0.0883832499 0.073115319
vt 0.0447709188 0.037703827
vt 0.0463074893 0.00876349676
vt 0.0988316163 0.099897176
vt 0.101871841 0.128304571
vt 0.148149058 0.0904950127
vt 0.164514065 0.116745807
vt 0.157292083 0.145432368
vt 0.128417253 0.0589094646
vt 0.0463074893 0.00876349676
vt 0.0913187116 0.0141552631
vt 0.151631147 0.0413954929
vt 0.079272598 0.138889343
vt 0.0768357515 0.172627762
vt 0.0998866484 0.173673019
vt 0.098430261 0.219176158
vt 0.076565288 0.207120359
vt 0.155505016 0.1758136
vt 0.098430261 0.219176158
vt 0.154834941 0.207581609
vt 0.160685301 0.236031041
vt 0.142769426 0.261777103
vt 0.17382212 0.274088979
vt 0.161453426 0.291832805
vt 0.120249145 0.292340815
vt 0.0931251645 0.247765034
vt 0.0666444823 0.241794929
vt 0.076565288 0.207120359
vt 0.0256238319 0.22446312
vt 0.0799660683 0.273499042
vt 0.184568018 0.261419088
vt 0.0329329222 0.302653164
vt 0.0293718278 0.332786232
vt 0.0799255818 0.331765682
vt 0.111587316 0.332027137
vt 0.141843393 0.312477946
vt 0.0293718278 0.332786232
vt 0.197059572 0.301123202
vt 0.167962804 0.310771972
vt 0.195244059 0.314781725
vt 0.222456694 0.305851877
vt 0.226146474 0.298181117
vt 0.244728148 0.308077902
vt 0.229387462 0.292589724
vt 0.205394983 0.287556767
vt 0.210331246 0.27723363
vt 0.219629794 0.264674693
vt 0.201789811 0.244646981
vt 0.160685301 0.236031041
vt 0.198152512 0.221881539
vt 0.2219235 0.31282872
vt 0.244728148 0.308077902
vt 0.234991863 0.286792785
vt 0.151631147 0.0413954929
vt 0.114028998 0.0217523035
vt 0.205055892 0.0536038727
vt 0.176351324 0.0418374874
vt 0.16909337 0.0606404059
vt 0.203962654 0.0398404971
vt 0.180886135 0.0786507577
vt 0.212123424 0.0664860308
vt 0.216089413 0.0775985792
vt 0.190095037 0.0924125835
vt 0.225129992 0.0910079926
vt 0.205884352 0.110337973
vt 0.234615266 0.0647968054
vt 0.23174575 0.0588824674
vt 0.228545889 0.0508869886
vt 0.239913657 0.0710353926
vt 0.228232265 0.0438126475
vt 0.151631147 0.0413954929
vt 0.164514065 0.116745807
vt 0.198973373 0.129898623
vt 0.254749388 0.048439201
vt 0.254749388 0.048439201
vt 0.176242948 0.176199168
vt 0.154834941 0.207581609
vt 0.179015249 0.205907464
vt 0.160685301 0.236031041
vt 0.198152512 0.221881539
vt 0.157292083 0.145432368
vt 0.180419028 0.14731656
vt 0.164514065 0.116745807
vt 0.198973373 0.129898623
vt 0.0256238319 0.22446312
vt 0.0316457748 0.196463123
vt 0.0308547169 0.170648932
vt 0.0337729231 0.145607561
vt 0.0276629366 0.117045112
vt 0.0329329222 0.302653164
vt 0.00733072078 0.259130865
vt 0.280519068 0.986799359
vt 0.280519068 0.986799359
vt 0.280519068 0.986799359
vt 0.877868354 0.758330584
vt 0.917680919 0.827750564
vt 0.913965821 0.762882531
vt 0.906999469 0.843614459
vt 0.912065566 0.664264202
vt 0.952171087 0.757193446
vt 0.870252192 0.693131447
vt 0.81969142 0.765360892
vt 0.80700022 0.705424011
vt 0.748252511 0.760690272
vt 0.756726444 0.71098429
vt 0.857862771 0.658933759
vt 0.79050833 0.665706158
vt 0.742641509 0.666187644
vt 0.782230556 0.639979005
vt 0.737429738 0.630366445
vt 0.737660229 0.599380732
vt 0.780852854 0.608572185
vt 0.845758319 0.640502214
vt 0.703306198 0.768810272
vt 0.677052617 0.701119125
vt 0.645130694 0.733265579
vt 0.616079867 0.685710311
vt 0.639498293 0.645401299
vt 0.67277205 0.797298491
vt 0.729820967 0.835261345
vt 0.69615525 0.85612756
vt 0.782054901 0.871755958
vt 0.755037963 0.906147659
vt 0.631451964 0.824302971
vt 0.602006733 0.769184589
vt 0.555029988 0.721801996
vt 0.616079867 0.685710311
vt 0.598912358 0.855624974
vt 0.640020788 0.92135942
vt 0.65754503 0.887377322
vt 0.571547091 0.82181251
vt 0.533525467 0.799906433
vt 0.555029988 0.721801996
vt 0.657992125 0.953189194
vt 0.628568232 0.954300284
vt 0.572058976 0.910356522
vt 0.571034372 0.942304373
vt 0.53170687 0.899570823
vt 0.531574667 0.93281281
vt 0.683435678 0.918439507
vt 0.720193565 0.93565625
vt 0.706665397 0.976650715
vt 0.498986423 0.894235015
vt 0.50694561 0.932920098
vt 0.784940958 0.951164544
vt 0.806445539 0.930582702
vt 0.813332796 0.952358067
vt 0.845715106 0.956435859
vt 0.789392412 0.989247441
vt 0.824342847 0.891849279
vt 0.850034595 0.891553879
vt 0.845715106 0.956435859
vt 0.782054901 0.871755958
vt 0.850977063 0.852566838
vt 0.789392412 0.989247441
vt 0.874907196 0.949453771
vt 0.888258934 0.885834098
vt 0.892870188 0.951399267
vt 0.904529631 0.893317699
vt 0.908288896 0.953622222
vt 0.921351612 0.894402504
vt 0.92618221 0.879221916
vt 0.92618221 0.879221916
vt 0.92416048 0.849862576
vt 0.97898525 0.836859226
vt 0.981859803 0.871211112
vt 0.966762602 0.815945864
vt 0.888258934 0.885834098
vt 0.887935817 0.850191653
vt 0.92618221 0.879221916
vt 0.984624565 0.890266359
vt 0.921351612 0.894402504
vt 0.780496418 0.836819708
vt 0.742900014 0.830546141
vt 0.780496418 0.836819708
vt 0.782054901 0.871755958
vt 0.912373364 0.480322808
vt 0.950545609 0.568458438
vt 0.948841631 0.480548263
vt 0.954525709 0.39869231
vt 0.950545609 0.568458438
vt 0.917863429 0.570857167
vt 0.897594213 0.547391713
vt 0.89619863 0.603774548
vt 0.86917305 0.481743753
vt 0.881889641 0.404810876
vt 0.917526066 0.393376797
vt 0.954525709 0.39869231
vt 0.931275666 0.333064824
vt 0.969483376 0.345380962
vt 0.890418947 0.333565444
vt 0.928421617 0.315645903
vt 0.986195445 0.327998757
vt 0.928436041 0.281148136
vt 0.991222024 0.288208038
vt 0.819244921 0.409679711
vt 0.812642992 0.47465995
vt 0.751671135 0.417768419
vt 0.759470284 0.470160365
vt 0.85760361 0.518753946
vt 0.799833417 0.515409887
vt 0.748149514 0.512772858
vt 0.695243061 0.406694263
vt 0.673343003 0.467541635
vt 0.633622944 0.440194607
vt 0.59544903 0.49038583
vt 0.65296638 0.507028162
vt 0.659706533 0.376374096
vt 0.7261464 0.324459583
vt 0.692276418 0.301816911
vt 0.726916373 0.266628444
vt 0.753384173 0.29344371
vt 0.61570102 0.337534696
vt 0.585161626 0.403933078
vt 0.638431489 0.278144509
vt 0.575719714 0.320098788
vt 0.60171771 0.257496536
vt 0.673048317 0.241271898
vt 0.652213633 0.202848464
vt 0.551596403 0.26549834
vt 0.545458078 0.23273845
vt 0.513845682 0.274274856
vt 0.511370242 0.24270083
vt 0.590661943 0.224889576
vt 0.796839595 0.233180135
vt 0.724468052 0.221304178
vt 0.779692829 0.217242345
vt 0.716075003 0.178704873
vt 0.78243047 0.17555584
vt 0.477230698 0.245708108
vt 0.472582996 0.28459087
vt 0.556207061 0.351594895
vt 0.514509082 0.375480145
vt 0.539732695 0.451230764
vt 0.585161626 0.403933078
vt 0.59544903 0.49038583
vt 0.539732695 0.451230764
vt 0.805219114 0.20336169
vt 0.78243047 0.17555584
vt 0.796839595 0.233180135
vt 0.61570102 0.337534696
vt 0.835492909 0.276828468
vt 0.817964554 0.266342461
vt 0.833101273 0.204452306
vt 0.782262862 0.312995046
vt 0.850073457 0.308794826
vt 0.886784494 0.308281928
vt 0.876351476 0.27084738
vt 0.835492909 0.276828468
vt 0.833101273 0.204452306
vt 0.861674309 0.204637721
vt 0.770321667 0.330785632
vt 0.737024724 0.341178089
vt 0.751671135 0.417768419
vt 0.753384173 0.29344371
vt 0.909987152 0.315048754
vt 0.876351476 0.27084738
vt 0.876208782 0.202707693
vt 0.891172647 0.267880082
vt 0.898069203 0.198649928
vt 0.91752249 0.261305094
vt 0.909987152 0.315048754
vt 0.91752249 0.261305094
vt 0.988215864 0.263135493
vt 0.991222024 0.288208038
vt 0.91752249 0.261305094
vt 0.952171087 0.757193446
vt 0.947248697 0.666117668
vt 0.950545609 0.568458438
vt 0.511364758 0.0797723904
vt 0.462282389 0.0800951496
vt 0.459139913 0.0953953639
vt 0.454922825 0.115816034
vt 0.503842771 0.132767066
vt 0.561650455 0.152117357
vt 0.543618262 0.0612366609
vt 0.546855032 0.0118015232
vt 0.588926673 0.0489935093
vt 0.595118463 0.00682244916
vt 0.515717924 0.171768293
vt 0.539197743 0.201769039
vt 0.583093941 0.156780407
vt 0.608673632 0.15072833
vt 0.633285284 0.0597804599
vt 0.595118463 0.00682244916
vt 0.637848318 0.0143139185
vt 0.577764571 0.216355786
vt 0.600994587 0.213507637
vt 0.619814217 0.205345854
vt 0.655598879 0.125377581
vt 0.666175604 0.0791996494
vt 0.676633835 0.0324960165
vt 0.702537715 0.0448320918
vt 0.637848318 0.0143139185
vt 0.63926816 0.182273313
vt 0.725216031 0.117290117
vt 0.716811717 0.102528252
vt 0.710956395 0.0892300978
vt 0.718562305 0.0768038407
vt 0.713488281 0.0445245914
vt 0.710309267 0.14474003
vt 0.689180791 0.168820366
vt 0.657110453 0.184705302
vt 0.63926816 0.182273313
vt 0.657110453 0.184705302
vt 0.727293909 0.0767512098
vt 0.713488281 0.0445245914
vt 0.732927799 0.0536476187
vt 0.732927799 0.0536476187
vt 0.736878216 0.0673324838
vt 0.702537715 0.0448320918
vt 0.546855032 0.0118015232
vt 0.503030598 0.0295234714
vt 0.474175543 0.0454014353
vt 0.456711382 0.0662782565
vt 0.503030598 0.0295234714
vt 0.466171116 0.0354226641
vt 0.456711382 0.0662782565
vt 0.448315293 0.041819375
vt 0.447891444 0.0599371605
vt 0.44324562 0.0517964177
vt 0.674432695 0.533618987
vt 0.65296638 0.507028162
vt 0.743987679 0.540370286
vt 0.685430527 0.565604746
vt 0.627806306 0.536619127
vt 0.639127374 0.559782863
vt 0.684157968 0.601862609
vt 0.738082767 0.569908321
vt 0.635936081 0.584035754
vt 0.673609912 0.636447966
vt 0.621729791 0.601797223
vt 0.65296638 0.507028162
vt 0.616630316 0.516488433
vt 0.606258869 0.612971008
vt 0.588381767 0.648288548
vt 0.580806017 0.620242417
vt 0.776057661 0.578382552
vt 0.826713383 0.606950223
vt 0.8270576 0.575164437
vt 0.854284167 0.604978323
vt 0.856695116 0.571339667
vt 0.877764404 0.548526466
vt 0.843507051 0.54706955
vt 0.868890405 0.624180377
vt 0.89619863 0.603774548
vt 0.89619863 0.603774548
vt 0.783352971 0.549722075
vt 0.917863429 0.570857167
vt 0.89619863 0.603774548
vt 0.583670855 0.566481709
vt 0.582411051 0.554172575
vt 0.530088425 0.551194012
vt 0.582124889 0.541886866
vt 0.582947969 0.578605294
vt 0.576520145 0.58703053
vt 0.530088425 0.551194012
vt 0.565049052 0.592241108
vt 0.581097424 0.528850138
vt 0.499286056 0.16609852
vt 0.480961174 0.149344966
vt 0.560531497 0.212886438
vt 0.141843393 0.312477946
vt 0.588381767 0.648288548
vt 0.0762020648 0.884062171
vt 0.89619863 0.603774548
vt 0.868890405 0.624180377
vt 0.845758319 0.640502214
vt 0.69615525 0.85612756
vt 0.65754503 0.887377322
vn 0.559749424 0.734071255 -0.384473592
vn -0.356902063 0.847462356 -0.392973959
vn -0.0311902352 0.701052368 -0.712427318
vn -0.0246246401 0.918052673 -0.395693094
vn -0.39978832 0.833581507 -0.381197035
vn -0.840981305 0.399742872 -0.364631265
vn -0.440958768 0.826287448 -0.350434721
vn -0.496513575 0.81235081 -0.305876493
vn -0.494234532 -0.0431735814 -0.868255973
vn -0.796772122 0.568751872 -0.204145953
vn -0.842189193 -0.237774432 -0.483922154
vn 0.567477822 0.823146701 0.0199617613
vn -0.537109017 0.767223835 0.350544602
vn 0.523942888 0.79549098 0.304430544
vn 0.627324343 0.739551485 0.243983105
vn -0.543166876 -0.788275957 -0.289120615
vn -0.127772272 0.894287586 0.428863704
vn -0.527942181 0.631771922 0.567574978
vn 0.656036615 0.62818706 0.418326557
vn -0.442573398 0.499092698 0.745006859
vn 0.672404289 0.630641162 0.387510121
vn 0.752761185 0.449277908 0.481144369
vn 0.743403614 0.399088293 0.536730468
vn -0.442573398 0.499092698 0.745006859
vn 0.90010947 0.133946046 0.414561749
vn 0.0772611573 0.387652844 0.918561816
vn 0.207030252 0.058590468 0.976578593
vn 0.784992695 0.16523616 0.597062349
vn -0.359385669 0.295999795 0.885000587
vn -0.308700085 0.0393717736 0.950344145
vn 0.676014125 -0.725247562 0.130464166
vn -0.273485869 -0.80466032 0.526998341
vn -0.442573398 0.499092698 0.745006859
vn -0.133020267 0.284407109 0.949430525
vn -0.290204436 0.648288786 0.703919709
vn -0.0745879635 0.883066118 0.463282764
vn -0.102269091 0.427077234 0.898413122
vn 0.468461931 0.846278191 0.253685921
vn 0.0749696791 0.255470335 0.963905811
vn 0.269471645 0.168411687 0.94816798
vn 0.201382592 0.257389456 0.945090294
vn 0.813436329 0.322619617 0.483981252
vn 0.8065148 0.14921768 0.57207334
vn 0.319536924 0.0795851722 0.944225729
vn 0.867268443 0.397436231 0.29981643
vn 0.936187744 0.350580335 0.0254171658
vn 0.91482842 0.119733423 0.385684878
vn 0.991644561 0.123635449 0.0368131436
vn 0.969635546 -0.221630991 -0.103375964
vn 0.950567722 -0.172692075 0.258066773
vn 0.885315418 0.46428147 -0.0256745853
vn 0.894524455 -0.118046224 0.431150824
vn 0.936187744 0.350580335 0.0254171658
vn 0.982573152 0.0816204846 -0.166997239
vn 0.947903037 -0.210549161 -0.239058137
vn 0.879744291 -0.417872518 -0.226787657
vn 0.991644561 0.123635449 0.0368131436
vn 0.877693951 0.458832592 -0.13829717
vn 0.704849899 0.635635436 -0.314887673
vn 0.724381685 0.673697412 -0.146297455
vn 0.860433936 0.498121023 -0.107372262
vn 0.982573152 0.0816204846 -0.166997239
vn 0.988382041 0.117917612 -0.0958984122
vn 0.949099362 -0.286015391 -0.131930545
vn 0.832867563 -0.461610496 -0.305364341
vn 0.859429181 -0.379757702 -0.342294693
vn 0.752920985 -0.554509521 -0.35444212
vn 0.765751302 -0.484632909 -0.422795355
vn -0.0490288995 0.550707638 -0.833257079
vn 0.752920985 -0.554509521 -0.35444212
vn -0.040723782 0.66962266 -0.741584182
vn 0.192479387 -0.716913462 -0.670064688
vn -0.448219538 0.258213013 -0.85581851
vn 0.192479387 -0.716913462 -0.670064688
vn 0.456854105 -0.850222349 -0.261546314
vn -0.00866949186 -0.981744349 -0.190007374
vn -0.203104332 -0.9720667 0.117621809
vn -0.969604254 -0.180271208 -0.165438533
vn -0.882925689 0.168501869 -0.438234389
vn 0.00991005264 -0.947939992 -0.318294972
vn 0.291648299 -0.756936073 -0.584798276
vn -0.0490281843 -0.946385205 -0.31929785
vn -0.611796916 -0.767843425 -0.190055147
vn -0.22936286 -0.885670543 -0.40370822
vn -0.240637019 -0.948874891 -0.204280034
vn -0.539055109 -0.664016306 0.518171608
vn -0.569312096 -0.301342905 -0.764902711
vn -0.572521269 -0.809895754 -0.127625346
vn -0.873595595 -0.264467716 -0.40851891
vn 0.740039945 -0.654154718 -0.156276822
vn -0.412475526 -0.89398241 0.175098062
vn 0.819261134 -0.572535694 -0.0318466201
vn -0.281310707 -0.907289863 0.312552959
vn 0.83618778 -0.0580783226 0.545359373
vn -0.124639012 -0.317859977 0.939909637
vn 0.864867449 -0.441109091 0.239639565
vn 0.914247453 0.17831108 0.36380887
vn 0.637373209 -0.450264364 0.625313938
vn 0.705101609 -0.272677094 0.654583037
vn -0.303062052 -0.715847671 0.629059255
vn -0.167552769 -0.663399339 0.729264975
vn -0.462746531 0.0333337151 0.885863662
vn -0.462746531 0.0333337151 0.885863662
vn 0.825274885 -0.312160969 0.470613271
vn 0.775947094 -0.531546533 0.339653194
vn -0.214697376 -0.545699298 0.810010731
vn 0.586131632 -0.808557451 -0.051812049
vn -0.195879355 -0.817884207 0.541014612
vn -0.214697376 -0.545699298 0.810010731
vn -0.458629519 -0.856293499 0.237529829
vn 0.674071848 -0.631063402 -0.383908957
vn -0.534424126 -0.806638777 -0.252437264
vn 0.676014125 -0.725247562 0.130464166
vn 0.108391002 -0.288624704 0.95128715
vn -0.0624091476 -0.291475624 0.954540193
vn -0.228931665 -0.657544672 0.717791975
vn 0.288274109 -0.186729729 0.939164639
vn 0.273686379 -0.267332733 0.923920453
vn 0.234447613 -0.275522381 0.93226707
vn -0.254161835 -0.523066282 0.813513041
vn 0.220803127 -0.054572992 0.973790348
vn 0.675824702 -0.62264204 0.394433528
vn 0.728018284 -0.63400501 0.260819972
vn 0.0556285195 -0.775129378 0.629348814
vn 0.769529998 -0.617050648 0.164535955
vn 0.840090096 -0.536231935 0.0818769187
vn 0.742109835 -0.669513941 0.0319997519
vn 0.777018607 -0.502502084 -0.379122317
vn 0.638196528 -0.767985046 -0.0538883097
vn 0.291648299 -0.756936073 -0.584798276
vn 0.7476089 -0.64417994 0.161595702
vn 0.667275131 -0.695080757 -0.267594248
vn -0.119798981 -0.637256324 0.761283517
vn -0.213897794 -0.891098499 0.400238991
vn -0.22936286 -0.885670543 -0.40370822
vn -0.240637019 -0.948874891 -0.204280034
vn 0.675824702 -0.62264204 0.394433528
vn 0.559749424 0.734071255 -0.384473592
vn 0.38199386 0.911574841 0.152026042
vn 0.584284723 0.807098031 0.0848770365
vn 0.328458548 0.942569375 0.0606461391
vn 0.885315418 0.46428147 -0.0256745853
vn 0.470003307 0.877497196 0.0953712016
vn 0.55868113 0.689871907 -0.460382491
vn 0.505582809 0.726964712 -0.464659274
vn 0.55868113 0.689871907 -0.460382491
vn 0.629153788 0.725699246 -0.278434902
vn 0.860433936 0.498121023 -0.107372262
vn 0.55868113 0.689871907 -0.460382491
vn -0.0311902352 0.701052368 -0.712427318
vn 0.505582809 0.726964712 -0.464659274
vn 0.204753816 -0.555600166 -0.80584383
vn 0.275608748 -0.713658631 -0.643996358
vn -0.14098689 0.629276812 -0.76428616
vn 0.05047445 -0.30448842 -0.951177776
vn -0.0467674881 -0.0389977731 -0.998144269
vn 0.988382041 0.117917612 -0.0958984122
vn -0.0642484128 0.272122234 -0.960115433
vn -0.0490288995 0.550707638 -0.833257079
vn -0.528797269 0.763950467 -0.369801491
vn -0.698623836 -0.620934308 -0.355479062
vn -0.949939489 -0.302312285 -0.0788805559
vn -0.615490258 0.786319852 0.0535989217
vn -0.543166876 -0.788275957 -0.289120615
vn -0.840981305 0.399742872 -0.364631265
vn -0.28152281 -0.509676039 -0.813003838
vn -0.14098689 0.629276812 -0.76428616
vn -0.896533072 -0.442174554 -0.0266489703
vn -0.572449028 -0.686132967 -0.448913842
vn -0.543166876 -0.788275957 -0.289120615
vn -0.965093136 -0.261567503 -0.0133291241
vn -0.971220672 -0.229563728 -0.0634881854
vn -0.915089667 0.11380963 0.386856973
vn -0.905973494 0.0599261858 0.419071347
vn -0.940758169 0.119616196 0.317279011
vn -0.796772122 0.568751872 -0.204145953
vn -0.842189193 -0.237774432 -0.483922154
vn -0.527942181 0.631771922 0.567574978
vn -0.442573398 0.499092698 0.745006859
vn -0.993580699 -0.107946381 -0.0338393264
vn -0.909210026 -0.142273799 0.391273886
vn -0.792932808 -0.45323956 0.407224089
vn -0.998606026 -0.0510741733 -0.0133224828
vn -0.359385669 0.295999795 0.885000587
vn -0.308700085 0.0393717736 0.950344145
vn -0.803846121 -0.0802143663 -0.589403927
vn -0.779093564 0.496076256 -0.383303583
vn -0.987426758 -0.0850190446 0.133267492
vn -0.864791334 0.429700881 -0.259794444
vn -0.985906363 -0.121759214 0.114731565
vn -0.851132691 -0.370342553 0.372047782
vn -0.701418936 -0.47490105 0.531488836
vn -0.195879355 -0.817884207 0.541014612
vn -0.214697376 -0.545699298 0.810010731
vn -0.873595595 -0.264467716 -0.40851891
vn -0.572521269 -0.809895754 -0.127625346
vn -0.412475526 -0.89398241 0.175098062
vn -0.281310707 -0.907289863 0.312552959
vn -0.124639012 -0.317859977 0.939909637
vn -0.0642484128 0.272122234 -0.960115433
vn -0.0467674881 -0.0389977731 -0.998144269
vn -0.0490288995 0.550707638 -0.833257079
vn -0.040723782 0.66962266 -0.741584182
vn -0.462746531 0.0333337151 0.885863662
vn -0.124639012 -0.317859977 0.939909637
vn -0.214697376 -0.545699298 0.810010731
vn -0.462746531 0.0333337151 0.885863662
vn -0.458629519 -0.856293499 0.237529829
vn -0.534424126 -0.806638777 -0.252437264
vn -0.273485869 -0.80466032 0.526998341
vn -0.273485869 -0.80466032 0.526998341
vn -0.462746531 0.0333337151 0.885863662
vn -0.124639012 -0.317859977 0.939909637
vn -0.214697376 -0.545699298 0.810010731
vn -0.537109017 0.767223835 0.350544602
vn -0.442573398 0.499092698 0.745006859
vn -0.273485869 -0.80466032 0.526998341
vn 0.879744291 -0.417872518 -0.226787657
vn 0.859429181 -0.379757702 -0.342294693
vn 0.777018607 -0.502502084 -0.379122317
vn 0.765751302 -0.484632909 -0.422795355
vn 0.291648299 -0.756936073 -0.584798276
vn 0.456854105 -0.850222349 -0.261546314
vn 0.990421414 -0.109431669 -0.0842027888
vn 0.220803127 -0.054572992 0.973790348
vn 0.990421414 -0.109431669 -0.0842027888
vn 0.204753816 -0.555600166 -0.80584383
vn 0.275608748 -0.713658631 -0.643996358
vn -0.949939489 -0.302312285 -0.0788805559
vn -0.949939489 -0.302312285 -0.0788805559
vn -0.698623836 -0.620934308 -0.355479062
vn -0.28152281 -0.509676039 -0.813003838
vn 0.05047445 -0.30448842 -0.951177776
vn 0.204753816 -0.555600166 -0.80584383
vn -0.0467674881 -0.0389977731 -0.998144269
vn -0.969604254 -0.180271208 -0.165438533
vn -0.040723782 0.66962266 -0.741584182
vn -0.969604254 -0.180271208 -0.165438533
vn -0.882925689 0.168501869 -0.438234389
vn -0.448219538 0.258213013 -0.85581851
vn 0.936187744 0.350580335 0.0254171658
vn -0.743254542 -0.656786382 -0.127295822
vn 0.125997335 -0.547546983 -0.827234626
vn -0.0729893818 -0.317717016 -0.945372105
vn 0.936187744 0.350580335 0.0254171658
vn 0.0749696791 0.255470335 0.963905811
vn 0.557280838 0.707716823 -0.434252143
vn 0.936187744 0.350580335 0.0254171658
vn 0.584284723 0.807098031 0.0848770365
vn 0.789141119 0.518973649 -0.328515768
vn 0.921443343 0.321903795 -0.21753183
vn 0.497879714 0.772626102 0.393909544
vn 0.408950865 0.0336786248 0.911934674
vn -0.000144197387 0.211922124 0.977286577
vn -0.121576712 0.890130162 0.439189374
vn 0.584284723 0.807098031 0.0848770365
vn 0.468461931 0.846278191 0.253685921
vn -0.743254542 -0.656786382 -0.127295822
vn -0.0729893818 -0.317717016 -0.945372105
vn -0.319364846 -0.0698913038 -0.945050955
vn 0.957893431 0.133685991 -0.254102975
vn 0.974724531 -0.0497351065 -0.217803746
vn -0.148850724 0.24599281 -0.957773983
vn 0.105872303 0.0436317027 0.993421972
vn 0.974724531 -0.0497351065 -0.217803746
vn 0.0987564921 -0.128574193 0.986770391
vn 0.405929238 0.122215658 0.905695736
vn 0.681957424 -0.600394964 0.417684108
vn 0.513975501 -0.630392969 0.58175081
vn -0.458447337 -0.86851716 -0.188424587
vn 0.102200121 -0.867130578 0.487483054
vn 0.915263414 -0.266762704 -0.301878363
vn -0.0333639272 0.533526778 -0.845124841
vn -0.148850724 0.24599281 -0.957773983
vn -0.89699167 0.423171669 -0.127794772
vn 0.762719691 -0.51325953 -0.393476009
vn 0.34463194 0.710646927 0.613359332
vn 0.990421414 -0.109431669 -0.0842027888
vn 0.840090096 -0.536231935 0.0818769187
vn 0.675824702 -0.62264204 0.394433528
vn 0.220803127 -0.054572992 0.973790348
vn -0.89699167 0.423171669 -0.127794772
vn 0.840090096 -0.536231935 0.0818769187
vn -0.498208255 -0.810957372 -0.306817174
vn -0.661465943 0.58803612 -0.465484977
vn -0.623794913 0.584629774 -0.518736839
vn -0.516492724 -0.800316155 -0.304515094
vn 0.282151997 -0.516459286 0.808492362
vn -0.85283643 0.0190761704 0.521829605
vn 0.11060188 0.813251674 0.571304679
vn 0.453238994 -0.517819524 0.725560009
vn 0.233812436 0.820121825 0.52223742
vn -0.623794913 0.584629774 -0.518736839
vn -0.661465943 0.58803612 -0.465484977
vn 0.405929238 0.122215658 0.905695736
vn -0.89699167 0.423171669 -0.127794772
vn -0.623577356 0.573618114 -0.531143486
vn -0.85283643 0.0190761704 0.521829605
vn -0.623577356 0.573618114 -0.531143486
vn -0.743254542 -0.656786382 -0.127295822
vn 0.0749696791 0.255470335 0.963905811
vn -0.711447716 0.616036594 -0.338143706
vn -0.461178333 -0.766598701 -0.446812183
vn -0.673047423 0.692539096 -0.259608924
vn -0.438891649 -0.764802337 -0.47164768
vn 0.322950035 0.779895067 0.536159515
vn 0.228069678 0.706089914 0.670388937
vn 0.438732982 -0.644438803 0.626268208
vn 0.538941205 -0.559192181 0.629957557
vn -0.438891649 -0.764802337 -0.47164768
vn -0.461178333 -0.766598701 -0.446812183
vn 0.351723641 -0.704463303 0.616459191
vn 0.135262355 0.611658037 0.779473305
vn -0.70341599 0.623353779 -0.34152016
vn -0.42013666 -0.749165416 -0.512090325
vn -0.42013666 -0.749165416 -0.512090325
vn -0.743254542 -0.656786382 -0.127295822
vn 0.408950865 0.0336786248 0.911934674
vn -0.743254542 -0.656786382 -0.127295822
vn -0.830228388 -0.260973066 0.49255836
vn -0.830228388 -0.260973066 0.49255836
vn -0.978884459 -0.144664332 0.144421458
vn 0.0987564921 -0.128574193 0.986770391
vn -0.992320955 0.0851515159 0.0897123292
vn 0.405929238 0.122215658 0.905695736
vn -0.89699167 0.423171669 -0.127794772
vn -0.000144197387 0.211922124 0.977286577
vn -0.930162609 -0.358000726 0.0814434364
vn 0.408950865 0.0336786248 0.911934674
vn -0.743254542 -0.656786382 -0.127295822
vn -0.89699167 0.423171669 -0.127794772
vn -0.992320955 0.0851515159 0.0897123292
vn -0.978884459 -0.144664332 0.144421458
vn -0.930162609 -0.358000726 0.0814434364
vn -0.743254542 -0.656786382 -0.127295822
vn 0.990421414 -0.109431669 -0.0842027888
vn 0.220803127 -0.054572992 0.973790348
vn -0.864791334 0.429700881 -0.259794444
vn -0.864791334 0.429700881 -0.259794444
vn -0.864791334 0.429700881 -0.259794444
vn -0.0155893974 0.740891695 0.671443462
vn 0.240501702 0.317563236 0.917230844
vn 0.569020629 0.481370151 0.666707039
vn 0.406066447 0.619176567 0.672108829
vn 0.392633826 0.245640904 0.886283875
vn 0.901610136 -0.376447082 0.21304132
vn 0.0306247659 0.661581993 0.749247253
vn -0.190047815 0.830591917 0.523449063
vn -0.283994645 0.760200977 0.584330022
vn -0.457289159 0.764085293 0.455038875
vn -0.432390779 0.722831607 0.539029419
vn 0.199455932 0.619283974 0.759410739
vn -0.317376107 0.782607317 0.535535455
vn -0.467474967 0.756865263 0.456751674
vn -0.353958488 0.79119724 0.498718739
vn -0.465946674 0.731162429 0.498292297
vn -0.600583196 0.33885324 0.724208713
vn -0.57848233 0.470499784 0.666324377
vn -0.00274681393 0.777436137 0.628955901
vn -0.775621235 0.610025644 -0.162112549
vn -0.894063294 0.447940677 9.49856767E-05
vn -0.87310487 0.487516135 -0.00400763238
vn -0.997046769 0.0761528984 -0.00992288254
vn -0.586528301 0.522187531 -0.619116008
vn -0.692700326 0.671754897 -0.2625103
vn -0.45560497 0.491798282 -0.741996288
vn -0.262038618 0.85118258 -0.454779059
vn 0.131504714 0.835835993 -0.532996058
vn -0.0232350752 0.861256659 -0.507638812
vn -0.612923324 0.709050536 -0.34867242
vn -0.807140827 0.584287405 -0.0844502524
vn -0.997618735 0.0388234481 0.0570036061
vn -0.997046769 0.0761528984 -0.00992288254
vn -0.70239383 0.462122589 -0.541373789
vn 0.075278081 0.456244051 -0.886664867
vn -0.307860821 0.774859846 -0.552099526
vn -0.7948879 0.240882561 -0.556892097
vn -0.848076165 0.0293745045 -0.52905941
vn -0.997618735 0.0388234481 0.0570036061
vn 0.299452007 -0.347555727 -0.888557017
vn 0.430301964 -0.657736838 -0.61824137
vn -0.256866455 0.722608328 -0.641760767
vn 0.630068243 -0.330982745 -0.702470183
vn -0.607210875 0.432338119 -0.666617393
vn 0.649901807 -0.102693334 -0.753048301
vn -0.0545929186 0.710944176 -0.701126218
vn 0.167094797 0.704890668 -0.689353585
vn 0.353081524 -0.537661612 -0.765671909
vn -0.716036081 0.0362712964 -0.697120368
vn 0.693331242 -0.00874149427 -0.720565975
vn 0.575364411 0.75766623 -0.308054745
vn 0.576757908 0.757916272 -0.304816723
vn 0.988931239 0.104894966 0.104938135
vn 0.722434342 -0.394684941 -0.567725599
vn 0.864628375 -0.33882314 -0.370967269
vn 0.320601642 0.781759858 -0.534851551
vn 0.567461789 0.670945823 -0.477303684
vn 0.722434342 -0.394684941 -0.567725599
vn 0.131504714 0.835835993 -0.532996058
vn -0.262597054 0.960026622 -0.096910201
vn 0.864628375 -0.33882314 -0.370967269
vn 0.469440222 -0.482250035 -0.739635587
vn 0.238015622 0.858380258 -0.45445776
vn 0.365586638 -0.352930546 -0.861270189
vn -0.0330613889 0.864359498 -0.501786351
vn 0.809946418 -0.243212044 -0.533698976
vn 0.435812175 0.894818544 -0.0967852771
vn 0.541462302 0.708701193 0.452284485
vn 0.541462302 0.708701193 0.452284485
vn 0.0873537362 0.376698017 0.92220813
vn 0.352763027 -0.746208966 0.564562201
vn 0.91120404 -0.399108082 0.102077633
vn 0.349208772 -0.871182382 0.345100611
vn 0.238015622 0.858380258 -0.45445776
vn 0.52377516 0.744077563 0.414738655
vn 0.541462302 0.708701193 0.452284485
vn 0.809946418 -0.243212044 -0.533698976
vn 0.435812175 0.894818544 -0.0967852771
vn 0.224413559 0.964998424 0.135707811
vn -0.49648881 0.808559835 -0.315800309
vn 0.224413559 0.964998424 0.135707811
vn 0.131504714 0.835835993 -0.532996058
vn 0.42547214 -0.365395635 0.827924728
vn 0.968435884 -0.0165912677 0.248710066
vn 0.940002739 0.153859377 0.304503024
vn 0.94922632 0.209184572 0.234970853
vn 0.968435884 -0.0165912677 0.248710066
vn 0.158362523 -0.0158803109 0.987253368
vn 0.333198398 -0.349463582 0.875702143
vn 0.281081915 0.305270851 0.90983659
vn -0.111084342 -0.644895375 0.756154835
vn -0.0897836462 -0.694878578 0.713500261
vn 0.609781027 -0.414288133 0.675671875
vn 0.94922632 0.209184572 0.234970853
vn 0.324325532 -0.0614250042 0.943949163
vn 0.360913843 0.325677812 0.873885036
vn 0.146632522 -0.655089438 0.741186023
vn 0.0136874933 -0.253574342 0.967219114
vn 0.696816087 0.503993332 0.510331333
vn 0.40563339 -0.789881527 0.459944397
vn 0.981371343 0.187291458 -0.0428046808
vn -0.365659446 -0.754188776 0.545428693
vn -0.400311738 -0.730683625 0.553038955
vn -0.576732695 -0.676107168 0.458539397
vn -0.5146662 -0.697106004 0.499161184
vn 0.128069937 -0.64341706 0.754726887
vn -0.406355262 -0.764077425 0.501059949
vn -0.526124299 -0.74082005 0.417586952
vn -0.87002492 -0.437224507 -0.227796793
vn -0.932787895 -0.346310616 -0.0998786315
vn -0.93173629 -0.350529999 -0.0948482528
vn -0.997046769 0.0761528984 -0.00992288254
vn -0.625180542 -0.542457879 -0.561149597
vn -0.838739097 -0.477622688 -0.261520952
vn -0.573430359 -0.331474334 -0.749201179
vn -0.589366734 -0.675810575 -0.4426364
vn -0.36049813 -0.796417952 -0.485550731
vn -0.0715483204 -0.767418444 -0.637141943
vn -0.795698702 -0.48332718 -0.365045816
vn -0.881228685 -0.458215266 -0.116080716
vn -0.579707861 -0.541078568 -0.609239459
vn -0.810659468 -0.234745204 -0.536400855
vn 0.0635504425 -0.174278975 -0.982643425
vn -0.276230246 -0.682902634 -0.676269829
vn 0.377630651 0.42227903 -0.824060321
vn -0.335089833 -0.670487344 -0.661937714
vn 0.717281282 0.270068586 -0.64231652
vn -0.596039355 -0.366652906 -0.714354753
vn 0.678734124 0.0951280743 -0.7281968
vn 0.858486593 0.257833064 -0.443309039
vn 0.58393532 -0.80932945 -0.0632886961
vn -0.0576264821 -0.868227839 -0.492807984
vn 0.396144271 -0.917613328 -0.0324876159
vn 0.605735183 0.240625352 -0.758409142
vn 0.969675422 -0.0575938597 -0.237512872
vn 0.693331242 -0.00874149427 -0.720565975
vn -0.716036081 0.0362712964 -0.697120368
vn -0.813967347 -0.0717004538 -0.576468825
vn -0.848076165 0.0293745045 -0.52905941
vn -0.997618735 0.0388234481 0.0570036061
vn -0.881228685 -0.458215266 -0.116080716
vn -0.997046769 0.0761528984 -0.00992288254
vn -0.997618735 0.0388234481 0.0570036061
vn 0.870504618 -0.362212151 0.33320272
vn 0.969675422 -0.0575938597 -0.237512872
vn 0.58393532 -0.80932945 -0.0632886961
vn -0.795698702 -0.48332718 -0.365045816
vn 0.162648678 -0.968185484 -0.190163478
vn 0.282460064 -0.943026781 -0.175831795
vn 0.777165532 -0.00941063091 -0.62922591
vn 0.143760741 -0.931105018 0.335225701
vn -0.59866339 -0.786634266 -0.151025102
vn 0.375835091 -0.875404179 0.303999096
vn 0.00594665343 -0.853389084 -0.521240652
vn 0.162648678 -0.968185484 -0.190163478
vn 0.777165532 -0.00941063091 -0.62922591
vn 0.433187634 0.307324708 -0.847289801
vn 0.190308467 -0.930537224 0.312862754
vn -0.795232236 -0.597147822 -0.104977101
vn -0.576732695 -0.676107168 0.458539397
vn -0.0715483204 -0.767418444 -0.637141943
vn 0.33847037 -0.717594981 0.608683169
vn 0.00594665343 -0.853389084 -0.521240652
vn 0.200021565 0.24074702 -0.949753761
vn -0.41781345 -0.773610592 -0.476401627
vn 0.758793592 -0.0575753413 -0.648781538
vn 0.179056615 -0.965515375 -0.188993856
vn 0.33847037 -0.717594981 0.608683169
vn 0.179056615 -0.965515375 -0.188993856
vn 0.758793592 -0.0575753413 -0.648781538
vn 0.981371343 0.187291458 -0.0428046808
vn 0.179056615 -0.965515375 -0.188993856
vn 0.901610136 -0.376447082 0.21304132
vn 0.945336819 -0.233365536 0.227769375
vn 0.968435884 -0.0165912677 0.248710066
vn 0.490528435 -0.827242851 -0.273954481
vn 0.722434342 -0.394684941 -0.567725599
vn 0.988931239 0.104894966 0.104938135
vn 0.864628375 -0.33882314 -0.370967269
vn 0.259282172 -0.949027717 -0.179218367
vn 0.659832776 -0.681009531 -0.317563832
vn 0.70216918 -0.545303762 -0.457823366
vn 0.945336819 -0.233365536 0.227769375
vn 0.865765035 -0.0871875584 -0.492797256
vn 0.968435884 -0.0165912677 0.248710066
vn 0.430301964 -0.657736838 -0.61824137
vn 0.630068243 -0.330982745 -0.702470183
vn 0.94733566 -0.0558510013 -0.315334529
vn 0.773024619 0.570035934 -0.278373897
vn 0.745468318 0.529160857 -0.40529719
vn 0.968435884 -0.0165912677 0.248710066
vn 0.940002739 0.153859377 0.304503024
vn 0.693331242 -0.00874149427 -0.720565975
vn 0.678734124 0.0951280743 -0.7281968
vn 0.717281282 0.270068586 -0.64231652
vn 0.485077143 0.756112933 -0.439310074
vn 0.508110583 0.764020264 -0.397613674
vn 0.94922632 0.209184572 0.234970853
vn 0.360913843 0.325677812 0.873885036
vn 0.940002739 0.153859377 0.304503024
vn 0.858486593 0.257833064 -0.443309039
vn 0.969675422 -0.0575938597 -0.237512872
vn 0.870504618 -0.362212151 0.33320272
vn 0.777165532 -0.00941063091 -0.62922591
vn 0.433187634 0.307324708 -0.847289801
vn 0.696816087 0.503993332 0.510331333
vn 0.605735183 0.240625352 -0.758409142
vn 0.377630651 0.42227903 -0.824060321
vn 0.0635504425 -0.174278975 -0.982643425
vn 0.858486593 0.257833064 -0.443309039
vn 0.0635504425 -0.174278975 -0.982643425
vn 0.200021565 0.24074702 -0.949753761
vn 0.696816087 0.503993332 0.510331333
vn 0.981371343 0.187291458 -0.0428046808
vn 0.981371343 0.187291458 -0.0428046808
vn 0.758793592 -0.0575753413 -0.648781538
vn 0.360913843 0.325677812 0.873885036
vn 0.945336819 -0.233365536 0.227769375
vn 0.901610136 -0.376447082 0.21304132
vn 0.349208772 -0.871182382 0.345100611
vn 0.469440222 -0.482250035 -0.739635587
vn 0.901610136 -0.376447082 0.21304132
vn 0.352763027 -0.746208966 0.564562201
vn 0.469440222 -0.482250035 -0.739635587
vn 0.91120404 -0.399108082 0.102077633
vn 0.365586638 -0.352930546 -0.861270189
vn 0.809946418 -0.243212044 -0.533698976
vn -0.259427577 -0.950535297 0.170821741
vn -0.625180542 -0.542457879 -0.561149597
vn -0.500799119 -0.720165133 0.480169207
vn -0.517725289 -0.45747605 0.722963452
vn 0.0535227843 -0.98826468 0.143067077
vn -0.21966432 -0.485511512 0.84618324
vn -0.605223 0.5966084 0.527032793
vn -0.618664265 -0.283984065 0.732534945
vn -0.542106271 0.560592175 0.625984907
vn -0.405127555 0.906941473 -0.115450889
vn -0.379870594 0.914865851 -0.136816859
vn -0.625180542 -0.542457879 -0.561149597
vn 0.0306294728 -0.587090313 -0.808941782
vn -0.139513835 0.46346733 -0.875062287
vn -0.625180542 -0.542457879 -0.561149597
vn 0.0306294728 -0.587090313 -0.808941782
vn -0.609055877 -0.24627018 0.75392437
vn -0.361047685 0.389339805 0.847383678
vn -0.427822143 -0.365146577 0.826822996
vn 0.279551357 0.340948999 0.897554994
vn 0.230652526 -0.4064852 0.884064078
vn 0.602752328 -0.684632897 0.409838289
vn -0.0801450983 -0.717148244 0.692296922
vn 0.666710973 0.658723593 0.348682851
vn 0.281081915 0.305270851 0.90983659
vn 0.281081915 0.305270851 0.90983659
vn -0.466005474 -0.656529963 0.59313345
vn 0.158362523 -0.0158803109 0.987253368
vn 0.281081915 0.305270851 0.90983659
vn -0.425071359 0.467890859 0.77485007
vn -0.0353112556 -0.501419187 0.864483654
vn -0.905254602 -0.361064643 0.223933935
vn 0.0803866014 -0.996762514 0.00158896542
vn -0.545263886 0.838257432 -0.00343213277
vn -0.483822137 0.372157335 -0.792095304
vn -0.905254602 -0.361064643 0.223933935
vn -0.213205621 -0.558945835 -0.801325738
vn -0.213205621 -0.558945835 -0.801325738
vn 0.299452007 -0.347555727 -0.888557017
vn 0.353081524 -0.537661612 -0.765671909
vn 0.649901807 -0.102693334 -0.753048301
vn -0.89699167 0.423171669 -0.127794772
vn -0.625180542 -0.542457879 -0.561149597
vn 0.192479387 -0.716913462 -0.670064688
vn 0.281081915 0.305270851 0.90983659
vn 0.666710973 0.658723593 0.348682851
vn -0.00274681393 0.777436137 0.628955901
vn -0.262038618 0.85118258 -0.454779059
vn -0.307860821 0.774859846 -0.552099526
g blue_war_f_pve_1_shoulderstrap_0
f 3/3/3 2/2/2 1/1/1
f 3/3/3 4/4/4 2/2/2
f 5/5/5 2/2/2 4/4/4
f 5/5/5 6/6/6 2/2/2
f 7/7/7 2/2/2 6/6/6
f 7/7/7 6/6/6 8/8/8
f 9/9/9 8/8/8 6/6/6
f 8/8/8 9/9/9 10/10/10
f 11/11/11 10/10/10 9/9/9
f 8/8/8 10/10/10 12/12/12
f 13/13/13 12/12/12 10/10/10
f 8/8/8 12/12/12 14/14/14
f 15/15/15 14/14/14 12/12/12
f 12/12/12 13/13/13 15/15/15
f 9/9/9 16/16/16 11/11/11
f 9/9/9 6/6/6 16/16/16
f 7/7/7 8/8/8 17/17/17
f 8/8/8 14/14/14 17/17/17
f 18/18/18 15/15/15 13/13/13
f 15/15/15 18/18/18 19/19/19
f 20/20/20 19/19/19 18/18/18
f 14/14/14 15/15/15 21/21/21
f 19/19/19 21/21/21 15/15/15
f 21/21/21 19/19/19 22/22/22
f 23/23/23 22/22/22 19/19/19
f 19/19/19 24/24/24 23/23/23
f 22/22/22 23/23/23 25/25/25
f 22/22/22 25/25/25 26/26/26
f 27/27/27 26/26/26 25/25/25
f 28/28/28 25/25/25 23/23/23
f 23/23/23 29/29/29 28/28/28
f 30/30/30 28/28/28 29/29/29
f 31/31/31 25/25/25 28/28/28
f 31/31/31 28/28/28 32/32/32
f 30/30/30 32/32/32 28/28/28
f 29/29/29 23/23/23 33/33/33
f 22/22/22 34/34/34 21/21/21
f 22/22/22 26/26/26 34/34/34
f 35/35/35 21/21/21 34/34/34
f 21/21/21 35/35/35 14/14/14
f 17/17/17 14/14/14 35/35/35
f 36/36/36 17/17/17 35/35/35
f 34/34/34 37/37/37 35/35/35
f 37/37/37 36/36/36 35/35/35
f 37/37/37 38/38/38 36/36/36
f 38/38/38 37/37/37 39/39/39
f 40/40/40 39/39/39 37/37/37
f 34/34/34 40/40/40 37/37/37
f 40/40/40 41/41/41 39/39/39
f 40/40/40 34/34/34 41/41/41
f 41/41/41 42/42/42 39/39/39
f 42/42/42 41/41/41 43/43/43
f 44/44/44 43/43/43 41/41/41
f 42/42/42 45/45/45 39/39/39
f 39/39/39 45/45/45 46/46/46
f 43/43/43 47/47/47 42/42/42
f 45/45/45 42/42/42 47/47/47
f 47/47/47 48/48/48 45/45/45
f 48/48/48 47/47/47 49/49/49
f 50/50/50 49/49/49 47/47/47
f 51/51/51 45/45/45 48/48/48
f 43/43/43 52/52/52 47/47/47
f 50/50/50 47/47/47 52/52/52
f 51/51/51 53/53/53 45/45/45
f 48/48/48 54/54/54 51/51/51
f 54/54/54 48/48/48 55/55/55
f 49/49/49 56/56/56 55/55/55
f 49/49/49 55/55/55 57/57/57
f 58/58/58 51/51/51 54/54/54
f 58/58/58 59/59/59 51/51/51
f 60/60/60 51/51/51 59/59/59
f 60/60/60 59/59/59 1/1/1
f 58/58/58 61/61/61 59/59/59
f 58/58/58 62/62/62 61/61/61
f 63/63/63 61/61/61 54/54/54
f 54/54/54 55/55/55 63/63/63
f 64/64/64 63/63/63 55/55/55
f 64/64/64 55/55/55 65/65/65
f 66/66/66 65/65/65 55/55/55
f 65/65/65 66/66/66 67/67/67
f 68/68/68 67/67/67 66/66/66
f 65/65/65 69/69/69 64/64/64
f 65/65/65 70/70/70 69/69/69
f 71/71/71 69/69/69 70/70/70
f 70/70/70 72/72/72 71/71/71
f 73/73/73 71/71/71 72/72/72
f 67/67/67 68/68/68 74/74/74
f 75/75/75 74/74/74 68/68/68
f 76/76/76 74/74/74 75/75/75
f 76/76/76 75/75/75 77/77/77
f 77/77/77 78/78/78 76/76/76
f 79/79/79 76/76/76 78/78/78
f 80/80/80 77/77/77 75/75/75
f 75/75/75 81/81/81 80/80/80
f 82/82/82 80/80/80 81/81/81
f 80/80/80 82/82/82 83/83/83
f 80/80/80 83/83/83 77/77/77
f 84/84/84 83/83/83 82/82/82
f 84/84/84 85/85/85 83/83/83
f 86/86/86 85/85/85 84/84/84
f 87/87/87 83/83/83 85/85/85
f 85/85/85 88/88/88 87/87/87
f 89/89/89 87/87/87 88/88/88
f 85/85/85 90/90/90 88/88/88
f 91/91/91 88/88/88 90/90/90
f 90/90/90 92/92/92 91/91/91
f 93/93/93 91/91/91 92/92/92
f 92/92/92 94/94/94 93/93/93
f 95/95/95 93/93/93 94/94/94
f 94/94/94 92/92/92 96/96/96
f 90/90/90 85/85/85 96/96/96
f 92/92/92 90/90/90 96/96/96
f 97/97/97 94/94/94 96/96/96
f 96/96/96 98/98/98 97/97/97
f 99/99/99 97/97/97 98/98/98
f 98/98/98 96/96/96 100/100/100
f 101/101/101 100/100/100 96/96/96
f 97/97/97 102/102/102 94/94/94
f 97/97/97 99/99/99 103/103/103
f 98/98/98 104/104/104 99/99/99
f 105/105/105 99/99/99 104/104/104
f 99/99/99 105/105/105 106/106/106
f 107/107/107 105/105/105 104/104/104
f 105/105/105 107/107/107 108/108/108
f 108/108/108 109/109/109 105/105/105
f 110/110/110 108/108/108 107/107/107
f 107/107/107 111/111/111 110/110/110
f 107/107/107 104/104/104 111/111/111
f 112/112/112 110/110/110 111/111/111
f 111/111/111 113/113/113 112/112/112
f 25/25/25 111/111/111 104/104/104
f 104/104/104 114/114/114 25/25/25
f 115/115/115 114/114/114 104/104/104
f 104/104/104 98/98/98 115/115/115
f 116/116/116 115/115/115 98/98/98
f 27/27/27 25/25/25 114/114/114
f 114/114/114 117/117/117 27/27/27
f 115/115/115 117/117/117 114/114/114
f 44/44/44 27/27/27 117/117/117
f 118/118/118 117/117/117 115/115/115
f 118/118/118 115/115/115 119/119/119
f 120/120/120 119/119/119 115/115/115
f 116/116/116 120/120/120 115/115/115
f 118/118/118 119/119/119 121/121/121
f 122/122/122 121/121/121 119/119/119
f 122/122/122 119/119/119 123/123/123
f 120/120/120 123/123/123 119/119/119
f 117/117/117 118/118/118 52/52/52
f 121/121/121 52/52/52 118/118/118
f 52/52/52 43/43/43 117/117/117
f 44/44/44 117/117/117 43/43/43
f 44/44/44 41/41/41 27/27/27
f 26/26/26 27/27/27 41/41/41
f 26/26/26 41/41/41 34/34/34
f 120/120/120 116/116/116 124/124/124
f 120/120/120 124/124/124 123/123/123
f 100/100/100 124/124/124 116/116/116
f 125/125/125 123/123/123 124/124/124
f 123/123/123 125/125/125 126/126/126
f 127/127/127 126/126/126 125/125/125
f 126/126/126 127/127/127 56/56/56
f 128/128/128 56/56/56 127/127/127
f 127/127/127 129/129/129 128/128/128
f 129/129/129 82/82/82 128/128/128
f 82/82/82 130/130/130 128/128/128
f 127/127/127 131/131/131 129/129/129
f 125/125/125 131/131/131 127/127/127
f 132/132/132 129/129/129 131/131/131
f 131/131/131 125/125/125 133/133/133
f 124/124/124 133/133/133 125/125/125
f 100/100/100 101/101/101 124/124/124
f 133/133/133 124/124/124 101/101/101
f 133/133/133 101/101/101 134/134/134
f 132/132/132 131/131/131 134/134/134
f 133/133/133 134/134/134 131/131/131
f 132/132/132 134/134/134 84/84/84
f 132/132/132 84/84/84 129/129/129
f 84/84/84 82/82/82 129/129/129
f 86/86/86 134/134/134 101/101/101
f 86/86/86 135/135/135 134/134/134
f 86/86/86 101/101/101 136/136/136
f 137/137/137 123/123/123 126/126/126
f 96/96/96 85/85/85 101/101/101
f 139/139/139 138/138/138 2/2/2
f 138/138/138 139/139/139 60/60/60
f 140/140/140 60/60/60 139/139/139
f 2/2/2 141/141/141 139/139/139
f 139/139/139 141/141/141 140/140/140
f 60/60/60 140/140/140 142/142/142
f 53/53/53 142/142/142 140/140/140
f 143/143/143 140/140/140 141/141/141
f 38/38/38 140/140/140 143/143/143
f 143/143/143 36/36/36 38/38/38
f 141/141/141 17/17/17 143/143/143
f 36/36/36 143/143/143 17/17/17
f 2/2/2 7/7/7 141/141/141
f 7/7/7 17/17/17 141/141/141
f 144/144/144 138/138/138 59/59/59
f 138/138/138 144/144/144 3/3/3
f 146/146/146 59/59/59 145/145/145
f 147/147/147 145/145/145 59/59/59
f 147/147/147 59/59/59 148/148/148
f 146/146/146 145/145/145 4/4/4
f 4/4/4 150/150/150 149/149/149
f 147/147/147 152/152/152 151/151/151
f 153/153/153 151/151/151 152/152/152
f 151/151/151 153/153/153 154/154/154
f 154/154/154 4/4/4 151/151/151
f 147/147/147 61/61/61 152/152/152
f 155/155/155 152/152/152 61/61/61
f 155/155/155 61/61/61 156/156/156
f 157/157/157 156/156/156 148/148/148
f 157/157/157 64/64/64 156/156/156
f 158/158/158 156/156/156 64/64/64
f 158/158/158 64/64/64 159/159/159
f 4/4/4 154/154/154 160/160/160
f 160/160/160 154/154/154 161/161/161
f 161/161/161 162/162/162 160/160/160
f 163/163/163 160/160/160 162/162/162
f 162/162/162 164/164/164 163/163/163
f 165/165/165 163/163/163 164/164/164
f 166/166/166 161/161/161 154/154/154
f 166/166/166 167/167/167 153/153/153
f 160/160/160 163/163/163 4/4/4
f 5/5/5 4/4/4 163/163/163
f 6/6/6 5/5/5 163/163/163
f 170/170/170 169/169/169 168/168/168
f 171/171/171 168/168/168 169/169/169
f 172/172/172 171/171/171 169/169/169
f 171/171/171 172/172/172 173/173/173
f 174/174/174 173/173/173 172/172/172
f 168/168/168 171/171/171 175/175/175
f 173/173/173 175/175/175 171/171/171
f 175/175/175 176/176/176 168/168/168
f 177/177/177 168/168/168 176/176/176
f 170/170/170 168/168/168 177/177/177
f 175/175/175 173/173/173 178/178/178
f 179/179/179 178/178/178 173/173/173
f 173/173/173 174/174/174 179/179/179
f 172/172/172 180/180/180 174/174/174
f 181/181/181 174/174/174 180/180/180
f 181/181/181 180/180/180 182/182/182
f 183/183/183 182/182/182 180/180/180
f 174/174/174 181/181/181 184/184/184
f 185/185/185 184/184/184 181/181/181
f 180/180/180 186/186/186 183/183/183
f 180/180/180 172/172/172 186/186/186
f 187/187/187 183/183/183 186/186/186
f 187/187/187 188/188/188 183/183/183
f 187/187/187 189/189/189 188/188/188
f 190/190/190 188/188/188 189/189/189
f 190/190/190 191/191/191 188/188/188
f 192/192/192 188/188/188 191/191/191
f 182/182/182 183/183/183 192/192/192
f 188/188/188 192/192/192 183/183/183
f 182/182/182 192/192/192 193/193/193
f 194/194/194 193/193/193 192/192/192
f 192/192/192 191/191/191 194/194/194
f 189/189/189 195/195/195 190/190/190
f 191/191/191 190/190/190 196/196/196
f 195/195/195 196/196/196 190/190/190
f 197/197/197 191/191/191 196/196/196
f 197/197/197 198/198/198 191/191/191
f 198/198/198 199/199/199 191/191/191
f 187/187/187 186/186/186 200/200/200
f 201/201/201 200/200/200 186/186/186
f 200/200/200 202/202/202 187/187/187
f 187/187/187 202/202/202 189/189/189
f 203/203/203 189/189/189 202/202/202
f 205/205/205 204/204/204 191/191/191
f 207/207/207 206/206/206 191/191/191
f 193/193/193 208/208/208 182/182/182
f 182/182/182 208/208/208 181/181/181
f 209/209/209 181/181/181 208/208/208
f 181/181/181 209/209/209 210/210/210
f 185/185/185 181/181/181 211/211/211
f 213/213/213 94/94/94 212/212/212
f 214/214/214 212/212/212 99/99/99
f 178/178/178 215/215/215 175/175/175
f 176/176/176 175/175/175 215/215/215
f 184/184/184 216/216/216 174/174/174
f 217/217/217 112/112/112 31/31/31
f 111/111/111 25/25/25 31/31/31
f 219/219/219 55/55/55 218/218/218
f 218/218/218 220/220/220 219/219/219
f 221/221/221 219/219/219 220/220/220
f 220/220/220 222/222/222 221/221/221
f 223/223/223 221/221/221 222/222/222
f 49/49/49 224/224/224 218/218/218
f 50/50/50 224/224/224 49/49/49
f 126/126/126 218/218/218 224/224/224
f 52/52/52 225/225/225 50/50/50
f 226/226/226 50/50/50 225/225/225
f 169/169/169 170/170/170 227/227/227
f 228/228/228 227/227/227 170/170/170
f 170/170/170 229/229/229 228/228/228
f 231/231/231 228/228/228 230/230/230
f 231/231/231 232/232/232 228/228/228
f 234/234/234 233/233/233 169/169/169
f 233/233/233 235/235/235 169/169/169
f 186/186/186 169/169/169 235/235/235
f 169/169/169 186/186/186 172/172/172
f 189/189/189 237/237/237 236/236/236
f 239/239/239 238/238/238 237/237/237
f 237/237/237 240/240/240 239/239/239
f 243/243/243 242/242/242 241/241/241
f 243/243/243 244/244/244 242/242/242
f 246/246/246 245/245/245 242/242/242
f 243/243/243 248/248/248 247/247/247
f 249/249/249 247/247/247 248/248/248
f 247/247/247 250/250/250 243/243/243
f 251/251/251 243/243/243 250/250/250
f 250/250/250 252/252/252 251/251/251
f 253/253/253 251/251/251 252/252/252
f 251/251/251 253/253/253 254/254/254
f 247/247/247 255/255/255 250/250/250
f 252/252/252 250/250/250 255/255/255
f 247/247/247 256/256/256 255/255/255
f 257/257/257 255/255/255 256/256/256
f 255/255/255 257/257/257 258/258/258
f 259/259/259 243/243/243 251/251/251
f 259/259/259 251/251/251 260/260/260
f 261/261/261 260/260/260 251/251/251
f 261/261/261 262/262/262 260/260/260
f 263/263/263 260/260/260 262/262/262
f 254/254/254 264/264/264 251/251/251
f 261/261/261 251/251/251 264/264/264
f 261/261/261 264/264/264 265/265/265
f 266/266/266 265/265/265 264/264/264
f 266/266/266 267/267/267 262/262/262
f 267/267/267 268/268/268 265/265/265
f 268/268/268 267/267/267 269/269/269
f 269/269/269 270/270/270 268/268/268
f 271/271/271 268/268/268 270/270/270
f 268/268/268 271/271/271 272/272/272
f 272/272/272 262/262/262 268/268/268
f 262/262/262 272/272/272 273/273/273
f 273/273/273 274/274/274 265/265/265
f 273/273/273 275/275/275 274/274/274
f 276/276/276 273/273/273 272/272/272
f 276/276/276 272/272/272 271/271/271
f 277/277/277 269/269/269 267/267/267
f 273/273/273 278/278/278 275/275/275
f 273/273/273 276/276/276 278/278/278
f 276/276/276 271/271/271 279/279/279
f 280/280/280 279/279/279 271/271/271
f 280/280/280 271/271/271 281/281/281
f 282/282/282 281/281/281 271/271/271
f 283/283/283 278/278/278 276/276/276
f 270/270/270 269/269/269 284/284/284
f 270/270/270 284/284/284 285/285/285
f 286/286/286 285/285/285 284/284/284
f 284/284/284 287/287/287 286/286/286
f 287/287/287 284/284/284 288/288/288
f 287/287/287 288/288/288 289/289/289
f 288/288/288 290/290/290 289/289/289
f 291/291/291 288/288/288 284/284/284
f 291/291/291 284/284/284 269/269/269
f 277/277/277 292/292/292 269/269/269
f 291/291/291 269/269/269 292/292/292
f 290/290/290 288/288/288 292/292/292
f 291/291/291 292/292/292 288/288/288
f 292/292/292 277/277/277 293/293/293
f 294/294/294 293/293/293 277/277/277
f 277/277/277 295/295/295 294/294/294
f 296/296/296 294/294/294 295/295/295
f 297/297/297 286/286/286 287/287/287
f 297/297/297 287/287/287 298/298/298
f 290/290/290 299/299/299 298/298/298
f 293/293/293 299/299/299 292/292/292
f 290/290/290 292/292/292 299/299/299
f 301/301/301 300/300/300 257/257/257
f 304/304/304 303/303/303 302/302/302
f 305/305/305 302/302/302 303/303/303
f 304/304/304 302/302/302 306/306/306
f 307/307/307 306/306/306 302/302/302
f 307/307/307 308/308/308 306/306/306
f 309/309/309 306/306/306 308/308/308
f 308/308/308 310/310/310 309/309/309
f 311/311/311 309/309/309 310/310/310
f 308/308/308 307/307/307 312/312/312
f 308/308/308 312/312/312 310/310/310
f 313/313/313 312/312/312 307/307/307
f 307/307/307 302/302/302 313/313/313
f 314/314/314 313/313/313 302/302/302
f 302/302/302 305/305/305 314/314/314
f 315/315/315 310/310/310 312/312/312
f 316/316/316 314/314/314 305/305/305
f 303/303/303 304/304/304 317/317/317
f 255/255/255 317/317/317 304/304/304
f 309/309/309 311/311/311 318/318/318
f 319/319/319 318/318/318 311/311/311
f 309/309/309 253/253/253 306/306/306
f 252/252/252 306/306/306 253/253/253
f 255/255/255 304/304/304 252/252/252
f 306/306/306 252/252/252 304/304/304
f 313/313/313 320/320/320 312/312/312
f 314/314/314 320/320/320 313/313/313
f 312/312/312 321/321/321 315/315/315
f 316/316/316 321/321/321 314/314/314
f 324/324/324 323/323/323 322/322/322
f 264/264/264 322/322/322 323/323/323
f 323/323/323 324/324/324 325/325/325
f 326/326/326 325/325/325 324/324/324
f 264/264/264 327/327/327 322/322/322
f 328/328/328 322/322/322 327/327/327
f 327/327/327 329/329/329 328/328/328
f 330/330/330 328/328/328 329/329/329
f 332/332/332 274/274/274 331/331/331
f 274/274/274 332/332/332 260/260/260
f 333/333/333 260/260/260 332/332/332
f 333/333/333 334/334/334 260/260/260
f 244/244/244 260/260/260 334/334/334
f 334/334/334 335/335/335 244/244/244
f 337/337/337 275/275/275 336/336/336
f 83/83/83 338/338/338 77/77/77
f 78/78/78 77/77/77 338/338/338
f 339/339/339 83/83/83 87/87/87
f 340/340/340 87/87/87 89/89/89
f 343/343/343 342/342/342 341/341/341
f 344/344/344 341/341/341 342/342/342
f 343/343/343 341/341/341 345/345/345
f 343/343/343 345/345/345 346/346/346
f 343/343/343 346/346/346 342/342/342
f 347/347/347 345/345/345 341/341/341
f 341/341/341 348/348/348 347/347/347
f 349/349/349 347/347/347 348/348/348
f 348/348/348 350/350/350 349/349/349
f 351/351/351 349/349/349 350/350/350
f 347/347/347 349/349/349 352/352/352
f 353/353/353 352/352/352 349/349/349
f 349/349/349 351/351/351 353/353/353
f 354/354/354 353/353/353 351/351/351
f 353/353/353 354/354/354 355/355/355
f 356/356/356 355/355/355 354/354/354
f 356/356/356 357/357/357 355/355/355
f 358/358/358 355/355/355 357/357/357
f 355/355/355 359/359/359 353/353/353
f 352/352/352 353/353/353 359/359/359
f 355/355/355 358/358/358 359/359/359
f 350/350/350 360/360/360 351/351/351
f 361/361/361 351/351/351 360/360/360
f 351/351/351 361/361/361 354/354/354
f 361/361/361 360/360/360 362/362/362
f 362/362/362 363/363/363 361/361/361
f 364/364/364 361/361/361 363/363/363
f 364/364/364 354/354/354 361/361/361
f 365/365/365 362/362/362 360/360/360
f 360/360/360 366/366/366 365/365/365
f 367/367/367 365/365/365 366/366/366
f 366/366/366 368/368/368 367/367/367
f 369/369/369 367/367/367 368/368/368
f 365/365/365 370/370/370 362/362/362
f 371/371/371 362/362/362 370/370/370
f 371/371/371 372/372/372 362/362/362
f 373/373/373 362/362/362 372/372/372
f 370/370/370 374/374/374 371/371/371
f 374/374/374 370/370/370 375/375/375
f 376/376/376 375/375/375 370/370/370
f 367/367/367 376/376/376 365/365/365
f 370/370/370 365/365/365 376/376/376
f 377/377/377 371/371/371 374/374/374
f 377/377/377 378/378/378 371/371/371
f 379/379/379 371/371/371 378/378/378
f 375/375/375 376/376/376 380/380/380
f 380/380/380 381/381/381 375/375/375
f 375/375/375 381/381/381 382/382/382
f 382/382/382 374/374/374 375/375/375
f 383/383/383 382/382/382 381/381/381
f 382/382/382 383/383/383 384/384/384
f 377/377/377 374/374/374 384/384/384
f 382/382/382 384/384/384 374/374/374
f 385/385/385 384/384/384 383/383/383
f 386/386/386 380/380/380 376/376/376
f 386/386/386 387/387/387 380/380/380
f 388/388/388 380/380/380 387/387/387
f 378/378/378 377/377/377 389/389/389
f 384/384/384 389/389/389 377/377/377
f 385/385/385 390/390/390 384/384/384
f 389/389/389 384/384/384 390/390/390
f 387/387/387 391/391/391 388/388/388
f 387/387/387 369/369/369 391/391/391
f 387/387/387 386/386/386 369/369/369
f 392/392/392 391/391/391 369/369/369
f 392/392/392 393/393/393 391/391/391
f 392/392/392 394/394/394 393/393/393
f 395/395/395 391/391/391 393/393/393
f 392/392/392 369/369/369 396/396/396
f 396/396/396 397/397/397 392/392/392
f 397/397/397 398/398/398 392/392/392
f 399/399/399 396/396/396 369/369/369
f 396/396/396 399/399/399 348/348/348
f 400/400/400 396/396/396 348/348/348
f 397/397/397 396/396/396 400/400/400
f 401/401/401 388/388/388 391/391/391
f 398/398/398 397/397/397 402/402/402
f 403/403/403 402/402/402 397/397/397
f 402/402/402 403/403/403 404/404/404
f 405/405/405 404/404/404 403/403/403
f 404/404/404 405/405/405 406/406/406
f 407/407/407 406/406/406 405/405/405
f 403/403/403 408/408/408 405/405/405
f 407/407/407 405/405/405 409/409/409
f 410/410/410 408/408/408 403/403/403
f 410/410/410 411/411/411 408/408/408
f 412/412/412 408/408/408 411/411/411
f 411/411/411 410/410/410 413/413/413
f 342/342/342 413/413/413 410/410/410
f 413/413/413 342/342/342 346/346/346
f 342/342/342 410/410/410 344/344/344
f 344/344/344 410/410/410 414/414/414
f 344/344/344 414/414/414 415/415/415
f 414/414/414 397/397/397 415/415/415
f 400/400/400 415/415/415 397/397/397
f 400/400/400 348/348/348 415/415/415
f 341/341/341 415/415/415 348/348/348
f 344/344/344 415/415/415 341/341/341
f 412/412/412 417/417/417 416/416/416
f 418/418/418 416/416/416 417/417/417
f 419/419/419 350/350/350 348/348/348
f 419/419/419 420/420/420 350/350/350
f 420/420/420 366/366/366 350/350/350
f 421/421/421 366/366/366 420/420/420
f 422/422/422 419/419/419 348/348/348
f 419/419/419 399/399/399 366/366/366
f 366/366/366 360/360/360 350/350/350
f 425/425/425 424/424/424 423/423/423
f 425/425/425 423/423/423 426/426/426
f 428/428/428 423/423/423 427/427/427
f 428/428/428 427/427/427 345/345/345
f 423/423/423 428/428/428 429/429/429
f 430/430/430 428/428/428 345/345/345
f 345/345/345 347/347/347 430/430/430
f 352/352/352 430/430/430 347/347/347
f 423/423/423 429/429/429 431/431/431
f 431/431/431 432/432/432 423/423/423
f 433/433/433 423/423/423 432/432/432
f 433/433/433 434/434/434 423/423/423
f 433/433/433 435/435/435 434/434/434
f 436/436/436 434/434/434 435/435/435
f 433/433/433 432/432/432 437/437/437
f 437/437/437 435/435/435 433/433/433
f 435/435/435 438/438/438 436/436/436
f 439/439/439 436/436/436 438/438/438
f 438/438/438 440/440/440 439/439/439
f 441/441/441 439/439/439 440/440/440
f 432/432/432 431/431/431 442/442/442
f 443/443/443 442/442/442 431/431/431
f 442/442/442 443/443/443 444/444/444
f 445/445/445 444/444/444 443/443/443
f 431/431/431 446/446/446 443/443/443
f 447/447/447 443/443/443 446/446/446
f 443/443/443 447/447/447 445/445/445
f 448/448/448 445/445/445 447/447/447
f 444/444/444 445/445/445 449/449/449
f 450/450/450 449/449/449 445/445/445
f 445/445/445 448/448/448 450/450/450
f 450/450/450 451/451/451 449/449/449
f 451/451/451 450/450/450 452/452/452
f 453/453/453 452/452/452 450/450/450
f 454/454/454 449/449/449 451/451/451
f 449/449/449 454/454/454 455/455/455
f 444/444/444 449/449/449 455/455/455
f 456/456/456 455/455/455 454/454/454
f 456/456/456 457/457/457 455/455/455
f 458/458/458 455/455/455 457/457/457
f 454/454/454 451/451/451 459/459/459
f 460/460/460 459/459/459 451/451/451
f 461/461/461 456/456/456 459/459/459
f 459/459/459 462/462/462 461/461/461
f 463/463/463 461/461/461 462/462/462
f 461/461/461 463/463/463 464/464/464
f 456/456/456 461/461/461 464/464/464
f 457/457/457 456/456/456 464/464/464
f 465/465/465 464/464/464 463/463/463
f 466/466/466 463/463/463 462/462/462
f 466/466/466 467/467/467 463/463/463
f 466/466/466 468/468/468 467/467/467
f 469/469/469 467/467/467 468/468/468
f 470/470/470 463/463/463 467/467/467
f 457/457/457 471/471/471 458/458/458
f 457/457/457 472/472/472 471/471/471
f 464/464/464 465/465/465 472/472/472
f 457/457/457 464/464/464 472/472/472
f 473/473/473 471/471/471 472/472/472
f 472/472/472 474/474/474 473/473/473
f 474/474/474 472/472/472 465/465/465
f 475/475/475 473/473/473 474/474/474
f 469/469/469 468/468/468 476/476/476
f 477/477/477 476/476/476 468/468/468
f 468/468/468 478/478/478 477/477/477
f 468/468/468 466/466/466 478/478/478
f 479/479/479 477/477/477 478/478/478
f 479/479/479 478/478/478 480/480/480
f 481/481/481 480/480/480 478/478/478
f 481/481/481 478/478/478 459/459/459
f 451/451/451 482/482/482 481/481/481
f 483/483/483 481/481/481 482/482/482
f 485/485/485 484/484/484 473/473/473
f 486/486/486 473/473/473 484/484/484
f 462/462/462 487/487/487 478/478/478
f 462/462/462 478/478/478 466/466/466
f 454/454/454 487/487/487 456/456/456
f 489/489/489 486/486/486 488/488/488
f 471/471/471 484/484/484 488/488/488
f 488/488/488 484/484/484 490/490/490
f 489/489/489 458/458/458 471/471/471
f 491/491/491 458/458/458 489/489/489
f 491/491/491 489/489/489 442/442/442
f 442/442/442 489/489/489 488/488/488
f 492/492/492 442/442/442 488/488/488
f 442/442/442 492/492/492 432/432/432
f 437/437/437 432/432/432 492/492/492
f 492/492/492 493/493/493 437/437/437
f 493/493/493 492/492/492 494/494/494
f 495/495/495 494/494/494 492/492/492
f 495/495/495 496/496/496 494/494/494
f 497/497/497 494/494/494 496/496/496
f 442/442/442 498/498/498 491/491/491
f 442/442/442 444/444/444 498/498/498
f 499/499/499 498/498/498 444/444/444
f 498/498/498 499/499/499 458/458/458
f 499/499/499 455/455/455 458/458/458
f 499/499/499 500/500/500 455/455/455
f 491/491/491 498/498/498 501/501/501
f 437/437/437 493/493/493 502/502/502
f 437/437/437 502/502/502 435/435/435
f 493/493/493 503/503/503 502/502/502
f 497/497/497 504/504/504 503/503/503
f 505/505/505 503/503/503 504/504/504
f 504/504/504 506/506/506 505/505/505
f 507/507/507 505/505/505 506/506/506
f 505/505/505 508/508/508 503/503/503
f 502/502/502 438/438/438 435/435/435
f 502/502/502 440/440/440 438/438/438
f 502/502/502 505/505/505 440/440/440
f 505/505/505 509/509/509 440/440/440
f 511/511/511 440/440/440 510/510/510
f 512/512/512 510/510/510 440/440/440
f 514/514/514 513/513/513 345/345/345
f 514/514/514 345/345/345 515/515/515
f 518/518/518 517/517/517 516/516/516
f 516/516/516 519/519/519 518/518/518
f 519/519/519 516/516/516 520/520/520
f 520/520/520 516/516/516 521/521/521
f 522/522/522 521/521/521 516/516/516
f 522/522/522 516/516/516 523/523/523
f 522/522/522 523/523/523 524/524/524
f 525/525/525 524/524/524 523/523/523
f 520/520/520 521/521/521 526/526/526
f 527/527/527 526/526/526 521/521/521
f 524/524/524 528/528/528 522/522/522
f 521/521/521 522/522/522 528/528/528
f 528/528/528 524/524/524 529/529/529
f 530/530/530 529/529/529 524/524/524
f 524/524/524 531/531/531 530/530/530
f 532/532/532 530/530/530 531/531/531
f 529/529/529 533/533/533 528/528/528
f 528/528/528 533/533/533 521/521/521
f 534/534/534 533/533/533 529/529/529
f 535/535/535 534/534/534 529/529/529
f 529/529/529 530/530/530 536/536/536
f 537/537/537 536/536/536 530/530/530
f 537/537/537 530/530/530 538/538/538
f 538/538/538 539/539/539 537/537/537
f 540/540/540 538/538/538 530/530/530
f 536/536/536 541/541/541 529/529/529
f 535/535/535 529/529/529 541/541/541
f 537/537/537 542/542/542 536/536/536
f 542/542/542 537/537/537 543/543/543
f 544/544/544 543/543/543 537/537/537
f 545/545/545 544/544/544 537/537/537
f 546/546/546 545/545/545 537/537/537
f 547/547/547 536/536/536 542/542/542
f 536/536/536 547/547/547 548/548/548
f 536/536/536 548/548/548 549/549/549
f 551/551/551 550/550/550 536/536/536
f 553/553/553 552/552/552 545/545/545
f 554/554/554 552/552/552 553/553/553
f 556/556/556 552/552/552 555/555/555
f 557/557/557 553/553/553 537/537/537
f 559/559/559 558/558/558 516/516/516
f 517/517/517 560/560/560 516/516/516
f 517/517/517 561/561/561 560/560/560
f 562/562/562 516/516/516 560/560/560
f 560/560/560 564/564/564 563/563/563
f 565/565/565 563/563/563 564/564/564
f 564/564/564 566/566/566 565/565/565
f 567/567/567 565/565/565 566/566/566
f 569/569/569 448/448/448 568/568/568
f 570/570/570 568/568/568 448/448/448
f 568/568/568 570/570/570 571/571/571
f 568/568/568 571/571/571 572/572/572
f 573/573/573 572/572/572 571/571/571
f 571/571/571 574/574/574 573/573/573
f 571/571/571 575/575/575 574/574/574
f 575/575/575 571/571/571 570/570/570
f 357/357/357 574/574/574 575/575/575
f 576/576/576 573/573/573 574/574/574
f 574/574/574 577/577/577 576/576/576
f 578/578/578 576/576/576 577/577/577
f 568/568/568 572/572/572 579/579/579
f 580/580/580 579/579/579 572/572/572
f 577/577/577 364/364/364 578/578/578
f 581/581/581 578/578/578 364/364/364
f 364/364/364 582/582/582 581/581/581
f 583/583/583 581/581/581 582/582/582
f 364/364/364 577/577/577 354/354/354
f 356/356/356 354/354/354 577/577/577
f 357/357/357 356/356/356 574/574/574
f 577/577/577 574/574/574 356/356/356
f 575/575/575 584/584/584 357/357/357
f 358/358/358 357/357/357 584/584/584
f 358/358/358 584/584/584 585/585/585
f 586/586/586 585/585/585 584/584/584
f 585/585/585 586/586/586 587/587/587
f 588/588/588 587/587/587 586/586/586
f 588/588/588 586/586/586 589/589/589
f 590/590/590 589/589/589 586/586/586
f 586/586/586 584/584/584 590/590/590
f 587/587/587 591/591/591 585/585/585
f 589/589/589 591/591/591 588/588/588
f 587/587/587 588/588/588 591/591/591
f 591/591/591 589/589/589 592/592/592
f 359/359/359 585/585/585 591/591/591
f 585/585/585 359/359/359 358/358/358
f 590/590/590 429/429/429 589/589/589
f 429/429/429 593/593/593 589/589/589
f 594/594/594 590/590/590 584/584/584
f 584/584/584 575/575/575 594/594/594
f 570/570/570 594/594/594 575/575/575
f 570/570/570 448/448/448 594/594/594
f 447/447/447 594/594/594 448/448/448
f 594/594/594 447/447/447 590/590/590
f 446/446/446 590/590/590 447/447/447
f 590/590/590 446/446/446 429/429/429
f 446/446/446 431/431/431 429/429/429
f 596/596/596 429/429/429 595/595/595
f 569/569/569 450/450/450 448/448/448
f 359/359/359 430/430/430 352/352/352
f 599/599/599 598/598/598 597/597/597
f 599/599/599 600/600/600 598/598/598
f 599/599/599 597/597/597 601/601/601
f 597/597/597 598/598/598 576/576/576
f 573/573/573 576/576/576 598/598/598
f 598/598/598 600/600/600 573/573/573
f 572/572/572 573/573/573 600/600/600
f 576/576/576 578/578/578 597/597/597
f 601/601/601 597/597/597 578/578/578
f 578/578/578 581/581/581 601/601/601
f 602/602/602 601/601/601 581/581/581
f 603/603/603 601/601/601 602/602/602
f 603/603/603 602/602/602 604/604/604
f 603/603/603 605/605/605 600/600/600
f 600/600/600 605/605/605 572/572/572
f 604/604/604 602/602/602 583/583/583
f 581/581/581 583/583/583 602/602/602
f 580/580/580 572/572/572 605/605/605
f 607/607/607 520/520/520 606/606/606
f 606/606/606 520/520/520 526/526/526
f 607/607/607 519/519/519 520/520/520
f 533/533/533 608/608/608 521/521/521
f 608/608/608 527/527/527 521/521/521
f 285/285/285 609/609/609 270/270/270
f 271/271/271 270/270/270 609/609/609
f 610/610/610 364/364/364 363/363/363
f 76/76/76 79/79/79 611/611/611
f 73/73/73 611/611/611 79/79/79
f 100/100/100 116/116/116 98/98/98
f 614/614/614 613/613/613 612/612/612
f 386/386/386 616/616/616 615/615/615
f 367/367/367 369/369/369 386/386/386
