g blue_war_f_pve_3_torso
v 0.0389381833 -0.0422895439 1.65067995
v 0.0602328666 -0.040933542 1.68747377
v 0.0389649794 -0.0636570603 1.67373657
v 0.0478279404 -0.00204148819 1.67161989
v 0.0164384879 -0.0553233512 1.64754009
v 0.0152278254 -0.0771487728 1.6559304
v -0 -0.0591867976 1.63992012
v 0.0210255198 -0.0764739588 1.64671183
v -0 -0.0804361999 1.6402241
v -0 -0.0591867976 1.63992012
v 0.0526429489 -0.0584817678 1.65986538
v 0.0602328666 -0.040933542 1.68747377
v 0.0711493492 -0.00727614993 1.70017099
v 0.0487945974 -0.119033612 1.5922116
v -0 -0.129906461 1.58723354
v 0.0511638112 -0.1221442 1.58650208
v -0 -0.126419276 1.57308483
v 0.0791775584 -0.103919573 1.60108364
v 0.0873956457 -0.108156852 1.58340883
v 0.0225480031 -0.148617655 1.5607214
v 0.107611805 -0.0770563334 1.6190027
v 0.125096828 -0.0442255884 1.64286983
v 0.074723728 -0.0304801799 1.67350876
v 0.0602328666 -0.040933542 1.68747377
v 0.133150458 -0.0110168504 1.66313612
v 0.0784013644 0.00459176488 1.68320549
v 0.0711493492 -0.00727614993 1.70017099
v 0.130018279 0.027834639 1.67008436
v 0.131847814 -0.0514533967 1.6137892
v 0.109610371 -0.0736264065 1.59744823
v 0.141980484 -0.0512596443 1.57056594
v 0.124676622 -0.0723498762 1.56604624
v 0.11533954 -0.108116679 1.55867279
v 0.137706369 -0.0741310865 1.52137101
v 0.13341862 -0.111679837 1.52393472
v 0.131853864 -0.0906237587 1.47370148
v 0.138637871 -0.120570458 1.48939753
v 0.154156655 -0.0431571491 1.51945436
v 0.129500851 -0.131656513 1.46028376
v 0.125275865 -0.144837305 1.52341425
v 0.112171628 -0.141502202 1.54686582
v 0.116275184 -0.170830727 1.51642001
v 0.106675155 -0.165643305 1.53746748
v 0.0929859206 -0.189152122 1.51932371
v 0.0872131139 -0.172736257 1.5429467
v 0.0665653273 -0.182887748 1.53779733
v 0.068788521 -0.158195078 1.56002235
v 0.0928196236 -0.149490088 1.55687463
v 0.0459866114 -0.170999661 1.54829836
v 0.0638355389 -0.197186306 1.51313019
v 0.0711372867 -0.200217888 1.49234951
v 0.03802865 -0.195836738 1.49047089
v 0.0369829163 -0.18686682 1.52082765
v 0.01628902 -0.180920184 1.48234081
v 0.0119168125 -0.172386989 1.52078843
v 0.0507939644 -0.194117337 1.46578598
v 0.0365540609 -0.178606883 1.45141017
v -0 -0.160587266 1.51971281
v -0 -0.14799656 1.54510295
v 0.067865029 -0.169335052 1.43508577
v 0.0779145882 -0.188260317 1.45612407
v 0.103155144 -0.154580206 1.43951309
v 0.105574422 -0.17636241 1.45929575
v 0.125997126 -0.160066202 1.47579551
v 0.0942585841 -0.193305597 1.48751092
v 0.114924975 -0.180164009 1.49505007
v 0.0641809553 -0.160704717 1.43346369
v 0.100114875 -0.144699126 1.43678737
v 0.131240323 -0.152242944 1.49818957
v 0.0318603218 -0.171079174 1.44972098
v 0.0106471134 -0.171380013 1.48081601
v -0 -0.168262288 1.47937834
v -0.0106471134 -0.171380013 1.48081601
v -0.0119168125 -0.172386989 1.52078843
v -0.0225480031 -0.148617655 1.5607214
v -0.0369829163 -0.18686682 1.52082765
v -0.01628902 -0.180920184 1.48234081
v -0.03802865 -0.195836738 1.49047089
v -0.0507939644 -0.194117337 1.46578598
v -0.0365540609 -0.178606883 1.45141017
v -0.0638355389 -0.197186306 1.51313019
v -0.0711372867 -0.200217888 1.49234951
v -0.0929859206 -0.189152122 1.51932371
v -0.0665653273 -0.182887748 1.53779733
v -0.0872131139 -0.172736257 1.5429467
v -0.068788521 -0.158195078 1.56002235
v -0.0928196236 -0.149490088 1.55687463
v -0.0511638112 -0.1221442 1.58650208
v -0.0487945974 -0.119033612 1.5922116
v -0.0210255198 -0.0764739588 1.64671183
v -0.0152278254 -0.0771487728 1.6559304
v -0 -0.0591867976 1.63992012
v -0.0389649794 -0.0636570603 1.67373657
v -0.0164384879 -0.0553233512 1.64754009
v -0.0389381833 -0.0422895439 1.65067995
v -0.0602328666 -0.040933542 1.68747377
v -0.0478279404 -0.00204148819 1.67161989
v -0.0526429489 -0.0584817678 1.65986538
v -0.0602328666 -0.040933542 1.68747377
v -0.0711493492 -0.00727614993 1.70017099
v -0.0791775584 -0.103919573 1.60108364
v -0.0873956457 -0.108156852 1.58340883
v -0.107611805 -0.0770563334 1.6190027
v -0.125096828 -0.0442255884 1.64286983
v -0.074723728 -0.0304801799 1.67350876
v -0.0602328666 -0.040933542 1.68747377
v -0.133150458 -0.0110168504 1.66313612
v -0.0784013644 0.00459176488 1.68320549
v -0.0711493492 -0.00727614993 1.70017099
v -0.130018279 0.027834639 1.67008436
v -0.131847814 -0.0514533967 1.6137892
v -0.109610371 -0.0736264065 1.59744823
v -0.141980484 -0.0512596443 1.57056594
v -0.124676622 -0.0723498762 1.56604624
v -0.11533954 -0.108116679 1.55867279
v -0.137706369 -0.0741310865 1.52137101
v -0.13341862 -0.111679837 1.52393472
v -0.131853864 -0.0906237587 1.47370148
v -0.138637871 -0.120570458 1.48939753
v -0.154156655 -0.0431571491 1.51945436
v -0.129500851 -0.131656513 1.46028376
v -0.125275865 -0.144837305 1.52341425
v -0.112171628 -0.141502202 1.54686582
v -0.116275184 -0.170830727 1.51642001
v -0.106675155 -0.165643305 1.53746748
v -0.114924975 -0.180164009 1.49505007
v -0.0942585841 -0.193305597 1.48751092
v -0.105574422 -0.17636241 1.45929575
v -0.0779145882 -0.188260317 1.45612407
v -0.103155144 -0.154580206 1.43951309
v -0.067865029 -0.169335052 1.43508577
v -0.125997126 -0.160066202 1.47579551
v -0.0641809553 -0.160704717 1.43346369
v -0.100114875 -0.144699126 1.43678737
v -0.0318603218 -0.171079174 1.44972098
v -0.0459866114 -0.170999661 1.54829836
v 0.0478279404 -0.00204148819 1.67161989
v 0.0489023067 0.010327097 1.68214011
v 0.0711493492 -0.00727614993 1.70017099
v 0.0631368607 0.0247978158 1.7085762
v 0.0493209064 0.0303920973 1.6905297
v 0.0339810923 0.0467590317 1.71201575
v 0.0257930979 0.0488722846 1.69348979
v -0 0.0553517081 1.71313143
v -0 0.053607285 1.69388986
v 0.0630318671 0.0362105593 1.68879569
v 0.0784013644 0.00459176488 1.68320549
v 0.0711493492 -0.00727614993 1.70017099
v 0.110902481 0.0585123003 1.65864456
v 0.130018279 0.027834639 1.67008436
v 0.0330602862 0.0528886691 1.69026029
v 0.0413418673 0.0885124356 1.62711453
v 0.103429459 0.0778127089 1.61637235
v 0.0507451557 0.0942103043 1.57361162
v 0.108149953 0.0932586566 1.5824697
v -0 0.0918373838 1.62308502
v -0 0.0939353555 1.56870437
v 0.0539145693 0.0892020613 1.51777661
v -0 0.0876592621 1.51460266
v -0 0.0593379773 1.69041789
v -0 0.0553517081 1.71313143
v 0.0511567295 0.0764249489 1.44126785
v -0 0.077536054 1.44617975
v -0 0.0656964555 1.38560486
v 0.0459894091 0.0628899708 1.38285339
v 0.0399016887 0.0325028375 1.37542605
v -0 0.0295115486 1.3792454
v 0.0882300735 0.036825221 1.3630085
v 0.0746721849 0.0215866901 1.3586843
v -0 0.0360855721 1.29207397
v 0.0504638664 0.0332550444 1.29356885
v 0.0940747559 0.011214084 1.28964341
v 0.0981538743 -0.00281960983 1.33547711
v 0.111610278 0.00153433986 1.3380934
v 0.125699341 0.00994292926 1.40622449
v 0.0969266668 0.0545646884 1.42853332
v 0.115843371 0.0852602869 1.54196727
v 0.131752908 0.0572901666 1.51567125
v 0.145084843 0.021209158 1.51313341
v 0.131752908 0.0572901666 1.51567125
v 0.0676896796 0.0646265447 1.22530007
v 0.0981709287 0.0502715483 1.22505987
v 0.0307708718 0.0676754415 1.22026992
v 0.122139946 0.0325587951 1.2223798
v -0 0.0677308068 1.21421015
v -0.0307708718 0.0676754415 1.22026992
v -0.0676896796 0.0646265447 1.22530007
v -0.0504638664 0.0332550444 1.29356885
v -0.0399016887 0.0325028375 1.37542605
v -0.0459894091 0.0628899708 1.38285339
v -0.0882300735 0.036825221 1.3630085
v -0.0746721849 0.0215866901 1.3586843
v -0.0940747559 0.011214084 1.28964341
v -0.0981538743 -0.00281960983 1.33547711
v -0.0981709287 0.0502715483 1.22505987
v -0.0511567295 0.0764249489 1.44126785
v -0.0539145693 0.0892020613 1.51777661
v -0.0507451557 0.0942103043 1.57361162
v -0.0413418673 0.0885124356 1.62711453
v -0.103429459 0.0778127089 1.61637235
v -0.110902481 0.0585123003 1.65864456
v -0.108149953 0.0932586566 1.5824697
v -0.0330602862 0.0528886691 1.69026029
v -0.0630318671 0.0362105593 1.68879569
v -0.0784013644 0.00459176488 1.68320549
v -0.0631368607 0.0247978158 1.7085762
v -0.0711493492 -0.00727614993 1.70017099
v -0.130018279 0.027834639 1.67008436
v -0.0339810923 0.0467590317 1.71201575
v -0.0493209064 0.0303920973 1.6905297
v -0.0257930979 0.0488722846 1.69348979
v -0.0489023067 0.010327097 1.68214011
v -0.0711493492 -0.00727614993 1.70017099
v -0.0478279404 -0.00204148819 1.67161989
v -0 -0.162897408 1.34913361
v 0.0488589481 -0.160995066 1.389853
v 0.0372591689 -0.136489242 1.34390211
v -0 -0.135357723 1.31549835
v 0.0720131472 -0.119749591 1.33764076
v 0.0525408797 -0.117554054 1.25649786
v 0.0960472301 -0.0882574841 1.26575005
v -0 -0.127539739 1.25428343
v -0 -0.117612995 1.17710984
v 0.0401723906 -0.110895984 1.17826998
v 0.106109619 -0.0670454651 1.33341098
v 0.101744108 -0.0906577408 1.35035884
v 0.106677994 -0.0861845091 1.18549001
v 0.133886024 -0.0736577958 1.19029009
v 0.0837012827 -0.0945428982 1.18224978
v 0.114972815 -0.029913472 1.2804147
v 0.107473105 -0.0340315886 1.32641554
v 0.0981538743 -0.00281960983 1.33547711
v 0.0940747559 0.011214084 1.28964341
v 0.150329024 -0.0188454222 1.21032989
v 0.148177966 -0.0496589653 1.19972992
v 0.122139946 0.0325587951 1.2223798
v 0.140598029 0.00828504656 1.21664011
v 0.111610278 0.00153433986 1.3380934
v 0.120070949 -0.034732379 1.32916999
v 0.12020532 -0.073413372 1.33791184
v 0.117761411 -0.102917552 1.35697842
v 0.0801741853 -0.134031326 1.3418628
v 0.0971051753 -0.130884513 1.3947922
v 0.0460804701 -0.166123688 1.42671216
v 0.0802411139 -0.143961549 1.42096961
v 0.110217415 -0.120097205 1.43687797
v 0.118104264 -0.103510462 1.39779675
v 0.100114875 -0.144699126 1.43678737
v 0.0641809553 -0.160704717 1.43346369
v 0.0210707001 -0.174144879 1.41995704
v -0 -0.174418554 1.4470253
v -0 -0.175451502 1.42763352
v 0.0318603218 -0.171079174 1.44972098
v 0.0106471134 -0.171380013 1.48081601
v -0 -0.168262288 1.47937834
v 0.131853864 -0.0906237587 1.47370148
v 0.129500851 -0.131656513 1.46028376
v 0.134868041 -0.041699253 1.39994383
v 0.154156655 -0.0431571491 1.51945436
v 0.125699341 0.00994292926 1.40622449
v 0.152973384 -0.0104206046 1.51616335
v 0.145084843 0.021209158 1.51313341
v -0.0106471134 -0.171380013 1.48081601
v -0.0210707001 -0.174144879 1.41995704
v -0.0318603218 -0.171079174 1.44972098
v -0.0460804701 -0.166123688 1.42671216
v -0.0488589481 -0.160995066 1.389853
v -0.0372591689 -0.136489242 1.34390211
v -0.0720131472 -0.119749591 1.33764076
v -0.0525408797 -0.117554054 1.25649786
v -0.0960472301 -0.0882574841 1.26575005
v -0.0401723906 -0.110895984 1.17826998
v -0.106109619 -0.0670454651 1.33341098
v -0.101744108 -0.0906577408 1.35035884
v -0.106677994 -0.0861845091 1.18549001
v -0.133886024 -0.0736577958 1.19029009
v -0.0837012827 -0.0945428982 1.18224978
v -0.114972815 -0.029913472 1.2804147
v -0.107473105 -0.0340315886 1.32641554
v -0.0981538743 -0.00281960983 1.33547711
v -0.0940747559 0.011214084 1.28964341
v -0.150329024 -0.0188454222 1.21032989
v -0.148177966 -0.0496589653 1.19972992
v -0.122139946 0.0325587951 1.2223798
v -0.140598029 0.00828504656 1.21664011
v -0.111610278 0.00153433986 1.3380934
v -0.120070949 -0.034732379 1.32916999
v -0.12020532 -0.073413372 1.33791184
v -0.117761411 -0.102917552 1.35697842
v -0.0801741853 -0.134031326 1.3418628
v -0.0971051753 -0.130884513 1.3947922
v -0.0802411139 -0.143961549 1.42096961
v -0.110217415 -0.120097205 1.43687797
v -0.118104264 -0.103510462 1.39779675
v -0.100114875 -0.144699126 1.43678737
v -0.0641809553 -0.160704717 1.43346369
v -0.131853864 -0.0906237587 1.47370148
v -0.129500851 -0.131656513 1.46028376
v -0.134868041 -0.041699253 1.39994383
v -0.154156655 -0.0431571491 1.51945436
v -0.152973384 -0.0104206046 1.51616335
v -0.125699341 0.00994292926 1.40622449
v -0.145084843 0.021209158 1.51313341
v -0.111610278 0.00153433986 1.3380934
v -0.125699341 0.00994292926 1.40622449
v -0.0969266668 0.0545646884 1.42853332
v -0.115843371 0.0852602869 1.54196727
v -0.131752908 0.0572901666 1.51567125
v -0.145084843 0.021209158 1.51313341
v -0.131752908 0.0572901666 1.51567125
v -0.122139946 0.0325587951 1.2223798
v -0.131240323 -0.152242944 1.49818957
v 0.172308788 0.018797189 1.64838135
v 0.180069044 0.0744493529 1.58363152
v 0.212378055 0.0146923 1.58328462
v 0.148788363 0.0682507381 1.63628078
v 0.15683341 -0.0350737199 1.63060379
v 0.188097343 -0.0382108986 1.5775274
v 0.130018279 0.027834639 1.67008436
v 0.110902481 0.0585123003 1.65864456
v 0.133150458 -0.0110168504 1.66313612
v 0.141980484 -0.0512596443 1.57056594
v 0.131847814 -0.0514533967 1.6137892
v 0.125096828 -0.0442255884 1.64286983
v 0.137355506 0.0925508216 1.58255219
v 0.103429459 0.0778127089 1.61637235
v 0.108149953 0.0932586566 1.5824697
v 0.221676767 0.0653627962 1.48931193
v 0.191413343 0.0708694309 1.4727211
v 0.256343931 0.0589084141 1.41761088
v 0.223852366 0.0657971352 1.4053961
v 0.259540558 0.0619698614 1.3296988
v 0.292318434 0.0569123477 1.34919477
v 0.305713028 0.0138401194 1.36661828
v 0.271018952 0.0150244292 1.43016899
v 0.287487477 -0.0315943398 1.36648524
v 0.255220026 -0.0280103087 1.43272042
v 0.242479846 0.0143969404 1.50334179
v 0.22459209 -0.0302756857 1.49877572
v 0.214832202 -0.0371646173 1.41483581
v 0.248753831 -0.0382848792 1.34615982
v 0.282398969 0.0493150093 1.33990991
v 0.290998966 0.0249011777 1.35256982
v 0.294448972 -0.0059171496 1.36404991
v 0.274834007 -0.0247612856 1.35781991
v 0.263783008 0.0499490313 1.32835996
v 0.232597858 0.0283384286 1.32115686
v 0.235659018 0.00726668676 1.3239001
v 0.185522825 -0.0350211002 1.47190726
v 0.154156655 -0.0431571491 1.51945436
v 0.193831787 -0.0119678797 1.39908934
v 0.152973384 -0.0104206046 1.51616335
v 0.154156655 -0.0431571491 1.51945436
v 0.145084843 0.021209158 1.51313341
v 0.192632258 0.0375578776 1.39500284
v 0.232597858 0.0283384286 1.32115686
v 0.224521592 -0.0164889693 1.32772684
v 0.235659018 0.00726668676 1.3239001
v 0.25623998 -0.0243775267 1.34635997
v 0.238372967 -0.0130548961 1.3319
v 0.235659018 0.00726668676 1.3239001
v 0.154233798 0.0657351166 1.51256144
v 0.115843371 0.0852602869 1.54196727
v 0.131752908 0.0572901666 1.51567125
v 0.131752908 0.0572901666 1.51567125
v 0.168048382 0.065843448 1.48018157
v 0.131752908 0.0572901666 1.51567125
v 0.145084843 0.021209158 1.51313341
v 0.192632258 0.0375578776 1.39500284
v 0.154539108 0.0735287666 1.48226714
v 0.154539108 0.0735287666 1.48226714
v 0.154233798 0.0657351166 1.51256144
v 0.115843371 0.0852602869 1.54196727
v 0.154539108 0.0735287666 1.48226714
v 0.115843371 0.0852602869 1.54196727
v -0.172308788 0.018797189 1.64838135
v -0.180069044 0.0744493529 1.58363152
v -0.148788363 0.0682507381 1.63628078
v -0.212378055 0.0146923 1.58328462
v -0.15683341 -0.0350737199 1.63060379
v -0.188097343 -0.0382108986 1.5775274
v -0.130018279 0.027834639 1.67008436
v -0.110902481 0.0585123003 1.65864456
v -0.133150458 -0.0110168504 1.66313612
v -0.141980484 -0.0512596443 1.57056594
v -0.131847814 -0.0514533967 1.6137892
v -0.125096828 -0.0442255884 1.64286983
v -0.137355506 0.0925508216 1.58255219
v -0.103429459 0.0778127089 1.61637235
v -0.108149953 0.0932586566 1.5824697
v -0.221676767 0.0653627962 1.48931193
v -0.191413343 0.0708694309 1.4727211
v -0.256343931 0.0589084141 1.41761088
v -0.223852366 0.0657971352 1.4053961
v -0.259540558 0.0619698614 1.3296988
v -0.292318434 0.0569123477 1.34919477
v -0.305713028 0.0138401194 1.36661828
v -0.271018952 0.0150244292 1.43016899
v -0.287487477 -0.0315943398 1.36648524
v -0.255220026 -0.0280103087 1.43272042
v -0.242479846 0.0143969404 1.50334179
v -0.22459209 -0.0302756857 1.49877572
v -0.214832202 -0.0371646173 1.41483581
v -0.248753831 -0.0382848792 1.34615982
v -0.282398969 0.0493150093 1.33990991
v -0.290998966 0.0249011777 1.35256982
v -0.294448972 -0.0059171496 1.36404991
v -0.274834007 -0.0247612856 1.35781991
v -0.263783008 0.0499490313 1.32835996
v -0.232597858 0.0283384286 1.32115686
v -0.235659018 0.00726668676 1.3239001
v -0.185522825 -0.0350211002 1.47190726
v -0.154156655 -0.0431571491 1.51945436
v -0.193831787 -0.0119678797 1.39908934
v -0.152973384 -0.0104206046 1.51616335
v -0.154156655 -0.0431571491 1.51945436
v -0.145084843 0.021209158 1.51313341
v -0.192632258 0.0375578776 1.39500284
v -0.232597858 0.0283384286 1.32115686
v -0.224521592 -0.0164889693 1.32772684
v -0.235659018 0.00726668676 1.3239001
v -0.25623998 -0.0243775267 1.34635997
v -0.238372967 -0.0130548961 1.3319
v -0.235659018 0.00726668676 1.3239001
v -0.154233798 0.0657351166 1.51256144
v -0.131752908 0.0572901666 1.51567125
v -0.115843371 0.0852602869 1.54196727
v -0.168048382 0.065843448 1.48018157
v -0.131752908 0.0572901666 1.51567125
v -0.131752908 0.0572901666 1.51567125
v -0.145084843 0.021209158 1.51313341
v -0.192632258 0.0375578776 1.39500284
v -0.154539108 0.0735287666 1.48226714
v -0.154233798 0.0657351166 1.51256144
v -0.154539108 0.0735287666 1.48226714
v -0.115843371 0.0852602869 1.54196727
v -0.154539108 0.0735287666 1.48226714
v -0.115843371 0.0852602869 1.54196727
v 0.253452748 -0.0267376397 1.55136561
v 0.256879151 0.013707649 1.58480835
v 0.289099216 0.00965468958 1.52748644
v 0.196506739 -0.0300629493 1.6208142
v 0.191516325 -0.0603965782 1.58262932
v 0.256349951 0.0466942601 1.55068707
v 0.20171617 0.0167754702 1.64723039
v 0.196681648 0.0597613454 1.62001872
v 0.191011369 0.0817499831 1.58368552
v 0.248971596 -0.0555867106 1.50260174
v 0.308336645 -0.00416495977 1.47493231
v 0.310857177 0.0210434012 1.47370982
v 0.256292611 0.0673306584 1.49660492
v 0.301701725 0.00974254962 1.4707756
v 0.244530752 0.0574369989 1.49621701
v 0.188873872 0.103716053 1.52724397
v 0.177222311 0.0905428976 1.52720535
v 0.1206505 0.120599598 1.55927122
v 0.117188364 0.103706509 1.55520594
v 0.1206505 0.120599598 1.55927122
v 0.1312107 0.113005444 1.61481822
v 0.137125865 0.0943853259 1.65347254
v 0.141169608 0.0601649508 1.6827029
v 0.143177122 0.01848929 1.70096338
v 0.135502845 0.0171646792 1.6894393
v 0.143177122 0.01848929 1.70096338
v 0.138850063 -0.0263687801 1.68225825
v 0.143177122 0.01848929 1.70096338
v 0.135502845 0.0171646792 1.6894393
v 0.128909886 -0.0368701145 1.65958679
v 0.133151561 -0.0641990975 1.65598786
v 0.125873685 -0.0934628248 1.6168189
v 0.120320804 -0.0808098167 1.6114949
v 0.118034817 -0.112488903 1.56528437
v 0.113680504 -0.0978762805 1.56058776
v 0.188422844 -0.0906325504 1.53219938
v 0.118034817 -0.112488903 1.56528437
v 0.238989443 -0.0470430404 1.50048804
v 0.182072431 -0.0759940147 1.52766371
v 0.248971596 -0.0555867106 1.50260174
v 0.308336645 -0.00416495977 1.47493231
v 0.301701725 0.00974254962 1.4707756
v 0.113680504 -0.0978762805 1.56058776
v 0.118034817 -0.112488903 1.56528437
v 0.301701725 0.00974254962 1.4707756
v 0.308336645 -0.00416495977 1.47493231
v 0.310857177 0.0210434012 1.47370982
v 0.125183091 0.0958418474 1.61342287
v 0.1206505 0.120599598 1.55927122
v 0.1312107 0.113005444 1.61481822
v 0.117188364 0.103706509 1.55520594
v 0.137125865 0.0943853259 1.65347254
v 0.132057548 0.0662963912 1.65947449
v 0.141169608 0.0601649508 1.6827029
v 0.132057548 0.0662963912 1.65947449
v 0.137125865 0.0943853259 1.65347254
v 0.135502845 0.0171646792 1.6894393
v 0.135502845 0.0171646792 1.6894393
v 0.244530752 0.0574369989 1.49621701
v 0.132057548 0.0662963912 1.65947449
v 0.301701725 0.00974254962 1.4707756
v 0.135502845 0.0171646792 1.6894393
v 0.238989443 -0.0470430404 1.50048804
v 0.128909886 -0.0368701145 1.65958679
v 0.182072431 -0.0759940147 1.52766371
v 0.113680504 -0.0978762805 1.56058776
v 0.120320804 -0.0808098167 1.6114949
v 0.132057548 0.0662963912 1.65947449
v 0.177222311 0.0905428976 1.52720535
v 0.117188364 0.103706509 1.55520594
v 0.132057548 0.0662963912 1.65947449
v 0.117188364 0.103706509 1.55520594
v 0.125183091 0.0958418474 1.61342287
v -0.253452748 -0.0267376397 1.55136561
v -0.289099216 0.00965468958 1.52748644
v -0.256879151 0.013707649 1.58480835
v -0.196506739 -0.0300629493 1.6208142
v -0.191516325 -0.0603965782 1.58262932
v -0.256349951 0.0466942601 1.55068707
v -0.20171617 0.0167754702 1.64723039
v -0.196681648 0.0597613454 1.62001872
v -0.191011369 0.0817499831 1.58368552
v -0.248971596 -0.0555867106 1.50260174
v -0.308336645 -0.00416495977 1.47493231
v -0.310857177 0.0210434012 1.47370982
v -0.256292611 0.0673306584 1.49660492
v -0.301701725 0.00974254962 1.4707756
v -0.244530752 0.0574369989 1.49621701
v -0.188873872 0.103716053 1.52724397
v -0.177222311 0.0905428976 1.52720535
v -0.1206505 0.120599598 1.55927122
v -0.117188364 0.103706509 1.55520594
v -0.1206505 0.120599598 1.55927122
v -0.1312107 0.113005444 1.61481822
v -0.137125865 0.0943853259 1.65347254
v -0.141169608 0.0601649508 1.6827029
v -0.143177122 0.01848929 1.70096338
v -0.135502845 0.0171646792 1.6894393
v -0.143177122 0.01848929 1.70096338
v -0.143177122 0.01848929 1.70096338
v -0.138850063 -0.0263687801 1.68225825
v -0.135502845 0.0171646792 1.6894393
v -0.128909886 -0.0368701145 1.65958679
v -0.133151561 -0.0641990975 1.65598786
v -0.125873685 -0.0934628248 1.6168189
v -0.120320804 -0.0808098167 1.6114949
v -0.118034817 -0.112488903 1.56528437
v -0.113680504 -0.0978762805 1.56058776
v -0.118034817 -0.112488903 1.56528437
v -0.188422844 -0.0906325504 1.53219938
v -0.238989443 -0.0470430404 1.50048804
v -0.248971596 -0.0555867106 1.50260174
v -0.308336645 -0.00416495977 1.47493231
v -0.301701725 0.00974254962 1.4707756
v -0.182072431 -0.0759940147 1.52766371
v -0.113680504 -0.0978762805 1.56058776
v -0.118034817 -0.112488903 1.56528437
v -0.301701725 0.00974254962 1.4707756
v -0.310857177 0.0210434012 1.47370982
v -0.308336645 -0.00416495977 1.47493231
v -0.125183091 0.0958418474 1.61342287
v -0.1206505 0.120599598 1.55927122
v -0.117188364 0.103706509 1.55520594
v -0.1312107 0.113005444 1.61481822
v -0.137125865 0.0943853259 1.65347254
v -0.132057548 0.0662963912 1.65947449
v -0.141169608 0.0601649508 1.6827029
v -0.137125865 0.0943853259 1.65347254
v -0.132057548 0.0662963912 1.65947449
v -0.135502845 0.0171646792 1.6894393
v -0.135502845 0.0171646792 1.6894393
v -0.244530752 0.0574369989 1.49621701
v -0.301701725 0.00974254962 1.4707756
v -0.132057548 0.0662963912 1.65947449
v -0.238989443 -0.0470430404 1.50048804
v -0.135502845 0.0171646792 1.6894393
v -0.128909886 -0.0368701145 1.65958679
v -0.182072431 -0.0759940147 1.52766371
v -0.113680504 -0.0978762805 1.56058776
v -0.120320804 -0.0808098167 1.6114949
v -0.132057548 0.0662963912 1.65947449
v -0.177222311 0.0905428976 1.52720535
v -0.117188364 0.103706509 1.55520594
v -0.117188364 0.103706509 1.55520594
v -0.132057548 0.0662963912 1.65947449
v -0.125183091 0.0958418474 1.61342287
vt 0.292450488 0.372816443
vt 0.343248516 0.375319839
vt 0.317384392 0.346167684
vt 0.318897605 0.421316147
vt 0.277612418 0.346102536
vt 0.28936711 0.321005166
vt 0.263063729 0.334907353
vt 0.294219106 0.31162256
vt 0.263149291 0.307753474
vt 0.263063729 0.334907353
vt 0.337205201 0.335761189
vt 0.343248516 0.375319839
vt 0.362898141 0.414690822
vt 0.324105412 0.228112176
vt 0.263437271 0.21808672
vt 0.32590425 0.220118567
vt 0.263504624 0.200073168
vt 0.364514142 0.246062711
vt 0.377928913 0.226567835
vt 0.289871812 0.171073124
vt 0.402588457 0.281328321
vt 0.428509504 0.326753139
vt 0.370043933 0.370527357
vt 0.343248516 0.375319839
vt 0.446246982 0.369828224
vt 0.387696505 0.411364079
vt 0.362898141 0.414690822
vt 0.456968158 0.415888846
vt 0.44402796 0.293184698
vt 0.417828262 0.260178536
vt 0.475805283 0.249035299
vt 0.449449569 0.229790106
vt 0.419044226 0.19998008
vt 0.485470623 0.182237759
vt 0.448993474 0.160251573
vt 0.500118554 0.11861524
vt 0.461944312 0.116453059
vt 0.521799207 0.202278167
vt 0.460327804 0.0714187473
vt 0.417879671 0.140585035
vt 0.399766952 0.166559666
vt 0.396756887 0.120813996
vt 0.384560496 0.142654225
vt 0.367635489 0.114899822
vt 0.36215809 0.144033298
vt 0.340035319 0.132417232
vt 0.343455613 0.168185174
vt 0.373189837 0.170931771
vt 0.317255229 0.147371277
vt 0.339591563 0.101972893
vt 0.350134999 0.0824974552
vt 0.31750074 0.0731349662
vt 0.31074208 0.10910885
vt 0.291413426 0.0608849637
vt 0.280424774 0.11062599
vt 0.336197942 0.048307173
vt 0.324633718 0.0252180025
vt 0.26374808 0.111397728
vt 0.263645887 0.153093755
vt 0.372122228 0.0150956139
vt 0.369081557 0.046126876
vt 0.419615269 0.033087004
vt 0.401526392 0.0581466705
vt 0.425915718 0.0829885378
vt 0.374740601 0.0830577314
vt 0.396495014 0.0968767777
vt 0.372436494 0.00625402015
vt 0.425837487 0.0245616529
vt 0.42663449 0.110309318
vt 0.319284856 0.0186647978
vt 0.279826492 0.0582859702
vt 0.263810337 0.0597710498
vt 0.247775182 0.0581654273
vt 0.247114375 0.110585734
vt 0.237336189 0.170968622
vt 0.216847762 0.108977258
vt 0.236300558 0.0608214363
vt 0.210290655 0.0730345771
vt 0.191826671 0.0481947176
vt 0.203335777 0.025291577
vt 0.188081607 0.10172382
vt 0.177696586 0.0822318718
vt 0.159971401 0.114428505
vt 0.187429965 0.132102817
vt 0.165229112 0.143544361
vt 0.183761597 0.167782307
vt 0.154004425 0.170312017
vt 0.200965211 0.219773382
vt 0.202702954 0.227751747
vt 0.232052729 0.311436474
vt 0.236845776 0.320845932
vt 0.263063729 0.334907353
vt 0.208663106 0.345828056
vt 0.248441979 0.346016079
vt 0.233428806 0.372634023
vt 0.182612851 0.374813825
vt 0.206675798 0.420964211
vt 0.188900337 0.335297912
vt 0.182612851 0.374813825
vt 0.162717223 0.414059967
vt 0.162165731 0.245439142
vt 0.148874983 0.225871637
vt 0.123846419 0.280444682
vt 0.0976269245 0.325700551
vt 0.155839652 0.369849056
vt 0.182612851 0.374813825
vt 0.0796392858 0.368682921
vt 0.137938038 0.410574555
vt 0.162717223 0.414059967
vt 0.0686413795 0.414680123
vt 0.0822958201 0.291986436
vt 0.10873238 0.259174585
vt 0.0508105382 0.247556657
vt 0.077312097 0.228524044
vt 0.107933499 0.198970482
vt 0.0416677743 0.180635408
vt 0.0783021599 0.158965617
vt 0.0275743846 0.116834007
vt 0.0657423511 0.115000308
vt 0.00518063828 0.200368792
vt 0.0678494498 0.0698725805
vt 0.109558232 0.139600873
vt 0.127456442 0.165735975
vt 0.130824864 0.120058119
vt 0.142843485 0.141982645
vt 0.131297827 0.0961512253
vt 0.15314737 0.0825865939
vt 0.12670736 0.0574251525
vt 0.159151822 0.0457592867
vt 0.10916426 0.0320754126
vt 0.15661779 0.0147557072
vt 0.102042638 0.0819277391
vt 0.157985374 0.0062382021
vt 0.103228748 0.0234102868
vt 0.207174823 0.0185195059
vt 0.210105047 0.147164404
vt 0.736998498 0.62574774
vt 0.744474173 0.610611677
vt 0.713418126 0.595202804
vt 0.742272496 0.576337814
vt 0.758550584 0.593533397
vt 0.777888238 0.568125427
vt 0.787638485 0.58683461
vt 0.813337207 0.565571308
vt 0.813352048 0.58547765
vt 0.739245653 0.552784562
vt 0.708248675 0.574479282
vt 0.713418126 0.595202804
vt 0.695322037 0.50750941
vt 0.667667329 0.532731652
vt 0.776218593 0.544799507
vt 0.77061981 0.469301581
vt 0.705016911 0.460221589
vt 0.76039964 0.413527727
vt 0.700849414 0.42219305
vt 0.813256383 0.464733988
vt 0.81320554 0.40838626
vt 0.757168889 0.355299264
vt 0.813150585 0.352085322
vt 0.813319445 0.542063773
vt 0.813337207 0.565571308
vt 0.760525763 0.275080651
vt 0.813077986 0.280672073
vt 0.813013017 0.21739307
vt 0.766226888 0.213122115
vt 0.771668732 0.180319101
vt 0.812975109 0.181312874
vt 0.719854891 0.185108587
vt 0.731956184 0.165462002
vt 0.812882006 0.0925457031
vt 0.758251965 0.0949212387
vt 0.707096219 0.0954035521
vt 0.696613908 0.141366884
vt 0.684267104 0.149565175
vt 0.663536727 0.219439238
vt 0.710256994 0.256343275
vt 0.692421496 0.379058063
vt 0.667021513 0.343707651
vt 0.630809307 0.327999473
vt 0.667021513 0.343707651
vt 0.744442344 0.0155462306
vt 0.710919738 0.0192053206
vt 0.781739533 0.0107951351
vt 0.680742145 0.02265127
vt 0.812790215 0.00514273904
vt 0.843853116 0.0107307006
vt 0.881159902 0.0154043417
vt 0.867517352 0.0948089808
vt 0.854279399 0.180234998
vt 0.859790146 0.213027537
vt 0.906104028 0.184920028
vt 0.893961132 0.165296659
vt 0.918674409 0.0951847285
vt 0.92925328 0.141128346
vt 0.914689958 0.0189935807
vt 0.865618646 0.274976313
vt 0.8691383 0.355191112
vt 0.866021037 0.41343081
vt 0.855900824 0.469229519
vt 0.921487868 0.460033864
vt 0.931260884 0.507317424
vt 0.925587893 0.421984285
vt 0.85042423 0.544741511
vt 0.887409091 0.552668631
vt 0.918440521 0.574313939
vt 0.884418666 0.576229692
vt 0.913303018 0.595048428
vt 0.958955109 0.532499135
vt 0.848790169 0.568072677
vt 0.868167162 0.593451798
vt 0.839067996 0.586797118
vt 0.882271409 0.610508025
vt 0.913303018 0.595048428
vt 0.889771879 0.625632167
vt 0.663683116 0.836482525
vt 0.71909678 0.879399955
vt 0.711037159 0.818356216
vt 0.66355145 0.788580418
vt 0.755871773 0.806843042
vt 0.724906623 0.718303978
vt 0.787109077 0.718124032
vt 0.663367033 0.719303668
vt 0.663153172 0.632608056
vt 0.705039024 0.631625235
vt 0.830163181 0.787156761
vt 0.806496441 0.810458302
vt 0.77598834 0.627728343
vt 0.804434419 0.623343647
vt 0.753335357 0.629475832
vt 0.860726714 0.717551827
vt 0.867587984 0.770665705
vt 0.906839907 0.770578742
vt 0.913526535 0.72308445
vt 0.862318158 0.629219651
vt 0.831802189 0.624291062
vt 0.922251225 0.641639888
vt 0.890698433 0.63364476
vt 0.911552548 0.782102942
vt 0.870500565 0.78532964
vt 0.83474189 0.805537641
vt 0.810778081 0.833621562
vt 0.758428454 0.82456398
vt 0.781760633 0.881767988
vt 0.716009319 0.922739387
vt 0.761822283 0.913427711
vt 0.807579637 0.926175773
vt 0.819445372 0.87878567
vt 0.779993951 0.934413314
vt 0.73699224 0.930514812
vt 0.687097371 0.915724456
vt 0.663825929 0.945972741
vt 0.663840532 0.924609721
vt 0.699381471 0.948982239
vt 0.675822139 0.983783782
vt 0.6638394 0.982566178
vt 0.857113421 0.95724982
vt 0.810359895 0.964146435
vt 0.888795495 0.8643803
vt 0.925908566 0.994012654
vt 0.945883453 0.851668835
vt 0.960189998 0.979644954
vt 0.993473589 0.96417433
vt 0.651858866 0.983830273
vt 0.64056921 0.915740013
vt 0.628237963 0.949123681
vt 0.611734569 0.922684789
vt 0.608440042 0.879543483
vt 0.616210282 0.818543613
vt 0.571290076 0.807231843
vt 0.601814806 0.718584776
vt 0.539595127 0.718719661
vt 0.621255219 0.63181597
vt 0.496886969 0.787987471
vt 0.520679593 0.811145544
vt 0.550244451 0.628268898
vt 0.521748781 0.624037325
vt 0.572930217 0.629901826
vt 0.465998769 0.718590379
vt 0.459360391 0.771710157
vt 0.420094788 0.771818221
vt 0.413117677 0.724287212
vt 0.463850588 0.630245507
vt 0.49436152 0.625144243
vt 0.404337436 0.642794311
vt 0.435700268 0.634862721
vt 0.415452629 0.783401012
vt 0.456525326 0.786397874
vt 0.492402554 0.80639559
vt 0.516522408 0.834330499
vt 0.568803906 0.8249349
vt 0.545767486 0.88227272
vt 0.565939486 0.913790941
vt 0.520294487 0.92688185
vt 0.508111835 0.879553318
vt 0.547946393 0.934944153
vt 0.59100616 0.930677176
vt 0.470956683 0.958259702
vt 0.51776123 0.964869797
vt 0.438695252 0.865563571
vt 0.402386487 0.995432913
vt 0.368018001 0.981268823
vt 0.381534129 0.85319382
vt 0.334639609 0.966000617
vt 0.941617906 0.1493036
vt 0.962492406 0.219136953
vt 0.915848196 0.25613746
vt 0.933933377 0.378820091
vt 0.959262729 0.343413532
vt 0.995443225 0.327630043
vt 0.959262729 0.343413532
vt 0.944874346 0.0223761145
vt 0.101075396 0.109235272
vt 0.182826087 0.938284516
vt 0.252840579 0.883280873
vt 0.18628566 0.858770132
vt 0.239498779 0.947196901
vt 0.122747943 0.927188754
vt 0.12590985 0.860420346
vt 0.193107769 0.988615036
vt 0.23988311 0.994496107
vt 0.143616721 0.975310028
vt 0.0760808587 0.873926461
vt 0.0874481797 0.925965548
vt 0.102163374 0.957561076
vt 0.293002188 0.910804749
vt 0.288995445 0.967434049
vt 0.316746056 0.930729985
vt 0.259583056 0.772208452
vt 0.299623072 0.773277283
vt 0.259832323 0.68555069
vt 0.298324168 0.690689981
vt 0.300689042 0.59967798
vt 0.263860762 0.601862729
vt 0.215793416 0.605828404
vt 0.206620738 0.685070336
vt 0.16607897 0.609537065
vt 0.155316517 0.688510895
vt 0.195889637 0.769083023
vt 0.14136152 0.766522229
vt 0.105593145 0.681637704
vt 0.122757599 0.600830793
vt 0.27009958 0.588321984
vt 0.232131884 0.588544548
vt 0.192612454 0.598418117
vt 0.157706782 0.594896078
vt 0.301480591 0.587738454
vt 0.345947802 0.600435257
vt 0.360361636 0.581984699
vt 0.0900709033 0.750350475
vt 0.0736369491 0.812312186
vt 0.0680909753 0.667053998
vt 0.0457058549 0.798920572
vt 0.0736369491 0.812312186
vt 0.0104519669 0.792819917
vt 0.0159785096 0.65229404
vt 0.0482259393 0.561266065
vt 0.088708818 0.587354779
vt 0.073834002 0.565187037
vt 0.130331323 0.58647126
vt 0.0989578366 0.57682389
vt 0.073834002 0.565187037
vt 0.344269454 0.8275581
vt 0.353296816 0.883424759
vt 0.363412917 0.840263605
vt 0.363412917 0.840263605
vt 0.327032506 0.79142797
vt 0.363412917 0.840263605
vt 0.388785899 0.817271352
vt 0.344117463 0.69118607
vt 0.323032081 0.805545688
vt 0.323032081 0.805545688
vt 0.344269454 0.8275581
vt 0.334737122 0.884049714
vt 0.323032081 0.805545688
vt 0.334737122 0.884049714
vt 0.182826087 0.938284516
vt 0.252840579 0.883280873
vt 0.239498779 0.947196901
vt 0.18628566 0.858770132
vt 0.122747943 0.927188754
vt 0.12590985 0.860420346
vt 0.193107769 0.988615036
vt 0.23988311 0.994496107
vt 0.143616721 0.975310028
vt 0.0760808587 0.873926461
vt 0.0874481797 0.925965548
vt 0.102163374 0.957561076
vt 0.293002188 0.910804749
vt 0.288995445 0.967434049
vt 0.316746056 0.930729985
vt 0.259583056 0.772208452
vt 0.299623072 0.773277283
vt 0.259832323 0.68555069
vt 0.298324168 0.690689981
vt 0.300689042 0.59967798
vt 0.263860762 0.601862729
vt 0.215793416 0.605828404
vt 0.206620738 0.685070336
vt 0.16607897 0.609537065
vt 0.155316517 0.688510895
vt 0.195889637 0.769083023
vt 0.14136152 0.766522229
vt 0.105593145 0.681637704
vt 0.122757599 0.600830793
vt 0.27009958 0.588321984
vt 0.232131884 0.588544548
vt 0.192612454 0.598418117
vt 0.157706782 0.594896078
vt 0.301480591 0.587738454
vt 0.345947802 0.600435257
vt 0.360361636 0.581984699
vt 0.0900709033 0.750350475
vt 0.0736369491 0.812312186
vt 0.0680909753 0.667053998
vt 0.0457058549 0.798920572
vt 0.0736369491 0.812312186
vt 0.0104519669 0.792819917
vt 0.0159785096 0.65229404
vt 0.0482259393 0.561266065
vt 0.088708818 0.587354779
vt 0.073834002 0.565187037
vt 0.130331323 0.58647126
vt 0.0989578366 0.57682389
vt 0.073834002 0.565187037
vt 0.344269454 0.8275581
vt 0.363412917 0.840263605
vt 0.353296816 0.883424759
vt 0.327032506 0.79142797
vt 0.363412917 0.840263605
vt 0.363412917 0.840263605
vt 0.388785899 0.817271352
vt 0.344117463 0.69118607
vt 0.323032081 0.805545688
vt 0.344269454 0.8275581
vt 0.323032081 0.805545688
vt 0.334737122 0.884049714
vt 0.323032081 0.805545688
vt 0.334737122 0.884049714
vt 0.602103889 0.512556851
vt 0.561354697 0.522752523
vt 0.600059867 0.559927583
vt 0.552518845 0.45488441
vt 0.592788637 0.448128581
vt 0.554317534 0.559605598
vt 0.51232779 0.473846376
vt 0.493364781 0.511277795
vt 0.487266034 0.546189725
vt 0.649265349 0.511532605
vt 0.641339242 0.584236622
vt 0.624611914 0.6024611
vt 0.558797777 0.60718596
vt 0.624330759 0.615514278
vt 0.554849982 0.619060338
vt 0.488522321 0.597192407
vt 0.481585056 0.609677553
vt 0.424971431 0.578014731
vt 0.423749954 0.593832016
vt 0.424971431 0.578014731
vt 0.427029371 0.529578567
vt 0.431922048 0.4946087
vt 0.44378534 0.460188627
vt 0.464829147 0.426215887
vt 0.451125711 0.425777018
vt 0.464829147 0.426215887
vt 0.501680791 0.403527379
vt 0.464829147 0.426215887
vt 0.466512173 0.41268748
vt 0.513904095 0.381485283
vt 0.537547588 0.389477998
vt 0.577939093 0.381403834
vt 0.574887574 0.369902611
vt 0.625195682 0.379034996
vt 0.623071611 0.364960223
vt 0.642340004 0.446337759
vt 0.625195682 0.379034996
vt 0.659965336 0.509458899
vt 0.656078637 0.446170211
vt 0.649265349 0.511532605
vt 0.641339242 0.584236622
vt 0.654230773 0.587991238
vt 0.639414728 0.378658444
vt 0.625195682 0.379034996
vt 0.638083518 0.598819971
vt 0.641339242 0.584236622
vt 0.624611914 0.6024611
vt 0.413113892 0.524480879
vt 0.424971431 0.578014731
vt 0.427029371 0.529578567
vt 0.409221977 0.577654243
vt 0.431922048 0.4946087
vt 0.421885014 0.470894396
vt 0.44378534 0.460188627
vt 0.421885014 0.470894396
vt 0.431922048 0.4946087
vt 0.451125711 0.425777018
vt 0.259434134 0.568988144
vt 0.227280781 0.441313833
vt 0.228177696 0.557127893
vt 0.259428948 0.408587217
vt 0.259434134 0.568988144
vt 0.298335463 0.443652958
vt 0.293389231 0.556631982
vt 0.32301119 0.475861013
vt 0.347473353 0.514568746
vt 0.325698346 0.536706269
vt 0.228177696 0.557127893
vt 0.199311852 0.479629129
vt 0.179742172 0.513311207
vt 0.228177696 0.557127893
vt 0.179742172 0.513311207
vt 0.202654436 0.538470089
vt 0.602103889 0.512556851
vt 0.600059867 0.559927583
vt 0.561354697 0.522752523
vt 0.552518845 0.45488441
vt 0.592788637 0.448128581
vt 0.554317534 0.559605598
vt 0.51232779 0.473846376
vt 0.493364781 0.511277795
vt 0.487266034 0.546189725
vt 0.649265349 0.511532605
vt 0.641339242 0.584236622
vt 0.624611914 0.6024611
vt 0.558797777 0.60718596
vt 0.624330759 0.615514278
vt 0.554849982 0.619060338
vt 0.488522321 0.597192407
vt 0.481585056 0.609677553
vt 0.424971431 0.578014731
vt 0.423749954 0.593832016
vt 0.424971431 0.578014731
vt 0.427029371 0.529578567
vt 0.431922048 0.4946087
vt 0.44378534 0.460188627
vt 0.464829147 0.426215887
vt 0.451125711 0.425777018
vt 0.464829147 0.426215887
vt 0.464829147 0.426215887
vt 0.501680791 0.403527379
vt 0.466512173 0.41268748
vt 0.513904095 0.381485283
vt 0.537547588 0.389477998
vt 0.577939093 0.381403834
vt 0.574887574 0.369902611
vt 0.625195682 0.379034996
vt 0.623071611 0.364960223
vt 0.625195682 0.379034996
vt 0.642340004 0.446337759
vt 0.659965336 0.509458899
vt 0.649265349 0.511532605
vt 0.641339242 0.584236622
vt 0.654230773 0.587991238
vt 0.656078637 0.446170211
vt 0.639414728 0.378658444
vt 0.625195682 0.379034996
vt 0.638083518 0.598819971
vt 0.624611914 0.6024611
vt 0.641339242 0.584236622
vt 0.413113892 0.524480879
vt 0.424971431 0.578014731
vt 0.409221977 0.577654243
vt 0.427029371 0.529578567
vt 0.431922048 0.4946087
vt 0.421885014 0.470894396
vt 0.44378534 0.460188627
vt 0.431922048 0.4946087
vt 0.421885014 0.470894396
vt 0.451125711 0.425777018
vt 0.259434134 0.568988144
vt 0.227280781 0.441313833
vt 0.259428948 0.408587217
vt 0.228177696 0.557127893
vt 0.298335463 0.443652958
vt 0.259434134 0.568988144
vt 0.293389231 0.556631982
vt 0.32301119 0.475861013
vt 0.347473353 0.514568746
vt 0.325698346 0.536706269
vt 0.228177696 0.557127893
vt 0.199311852 0.479629129
vt 0.179742172 0.513311207
vt 0.179742172 0.513311207
vt 0.228177696 0.557127893
vt 0.202654436 0.538470089
vn -0.725194573 0.398136258 0.561765373
vn -0.0171618871 -0.527441442 0.849418044
vn -0.158894166 -0.459619701 0.87378633
vn -0.807008088 -0.16648671 0.566586435
vn -0.537220538 0.424324632 0.728932679
vn -0.289460689 -0.638488829 0.713123083
vn -0 0.233606547 0.972331166
vn 0.19070974 -0.895404994 0.402342588
vn -0 -0.66050458 0.750821948
vn -0 0.233606547 0.972331166
vn 0.410203725 -0.767746389 0.492238224
vn -0.0171618871 -0.527441442 0.849418044
vn 0.263817191 -0.278036594 0.923632026
vn 0.158193707 -0.789756298 0.592671752
vn -0 -0.971402645 0.237437993
vn 0.142391324 -0.74175626 0.655379653
vn -0 -0.933401823 0.358832777
vn 0.324224383 -0.786057889 0.526299775
vn 0.538209319 -0.612762392 0.57866478
vn -0.294108182 -0.680455327 0.671178818
vn 0.568273962 -0.721030295 0.396459222
vn 0.419653922 -0.662425816 0.620550334
vn 0.557695031 -0.512842178 0.652663052
vn -0.0171618871 -0.527441442 0.849418044
vn 0.40923655 -0.348068982 0.843429565
vn 0.665822089 0.00339626824 0.74610275
vn 0.263817191 -0.278036594 0.923632026
vn 0.326064616 0.205476224 0.922746658
vn 0.586690485 -0.787356377 0.189378783
vn 0.754036427 -0.644292057 0.127736628
vn 0.550217092 -0.822890818 0.141816214
vn 0.770914257 -0.536118746 0.343900979
vn 0.757007003 -0.284353375 0.588288724
vn 0.925399423 -0.352772862 0.138517797
vn 0.951023579 -0.111377425 0.288356155
vn 0.972447097 -0.161755607 -0.167874366
vn 0.998852611 -0.0141148353 -0.0457638502
vn 0.638816774 -0.744732559 -0.193097427
vn 0.863884807 -0.130735382 -0.486427158
vn 0.861320674 -0.310817957 0.401894212
vn 0.694137454 -0.33901 0.635016024
vn 0.750170767 -0.564062774 0.345075548
vn 0.611546278 -0.532228351 0.585443497
vn 0.386504799 -0.842077136 0.376191765
vn 0.302550137 -0.660318196 0.687345088
vn 0.010127523 -0.794461906 0.607229531
vn 0.128909618 -0.586002052 0.799989939
vn 0.423433483 -0.459697783 0.780629218
vn -0.203137428 -0.718708336 0.664976299
vn -0.0348437428 -0.944802463 0.325782597
vn 0.101170093 -0.994429231 -0.0295849442
vn -0.391534656 -0.920159757 0.00258342223
vn -0.365371197 -0.844272256 0.392056495
vn -0.694737732 -0.6965307 -0.179400489
vn -0.597709537 -0.74048543 0.307285815
vn -0.185117632 -0.895194411 -0.405411571
vn -0.422012478 -0.632321477 -0.649673045
vn -0 -0.926190794 0.377055138
vn -0 -0.864318013 0.502945721
vn 0.0126842288 -0.469475538 -0.882854402
vn 0.201017097 -0.820217252 -0.535570502
vn 0.504073024 -0.327548027 -0.799138665
vn 0.571135759 -0.65502274 -0.494721174
vn 0.852880538 -0.442203134 -0.277581036
vn 0.412725657 -0.90480566 -0.104805849
vn 0.704843402 -0.709160388 0.0169517715
vn 0.189981252 -0.663313925 -0.723824322
vn 0.524470508 -0.256963938 -0.81172663
vn 0.932410657 -0.34791398 0.0978072509
vn -0.197934955 -0.890827417 -0.408959985
vn -0.535054803 -0.844383717 -0.0270635448
vn -0 -0.982373238 0.18693012
vn 0.535054803 -0.844383717 -0.0270635448
vn 0.597709537 -0.74048543 0.307285815
vn 0.294108182 -0.680455327 0.671178818
vn 0.365371197 -0.844272256 0.392056495
vn 0.694737732 -0.6965307 -0.179400489
vn 0.391534626 -0.920159757 0.00258342363
vn 0.185117617 -0.895194411 -0.405411571
vn 0.422012478 -0.632321477 -0.649673045
vn 0.0348437428 -0.944802463 0.325782597
vn -0.101170093 -0.994429231 -0.0295849442
vn -0.386504799 -0.842077136 0.376191765
vn -0.010127523 -0.794461906 0.607229531
vn -0.302550137 -0.660318196 0.687345088
vn -0.128909633 -0.586002111 0.799989939
vn -0.423433483 -0.459697723 0.780629218
vn -0.142391309 -0.741756141 0.655379653
vn -0.158193707 -0.789756298 0.592671752
vn -0.190709755 -0.895404994 0.402342588
vn 0.289460659 -0.63848877 0.713123143
vn -0 0.233606547 0.972331166
vn 0.158894211 -0.459619701 0.87378633
vn 0.537220538 0.424324632 0.728932679
vn 0.725194573 0.398136258 0.561765373
vn 0.0171618871 -0.527441442 0.849418044
vn 0.807008088 -0.166486651 0.566586256
vn -0.410203725 -0.767746389 0.492238224
vn 0.0171618871 -0.527441442 0.849418044
vn -0.263817191 -0.278036535 0.923632026
vn -0.324224383 -0.786057889 0.526299775
vn -0.538209319 -0.612762392 0.57866478
vn -0.568273962 -0.721030295 0.396459281
vn -0.419653922 -0.662425756 0.620550334
vn -0.557695031 -0.512842178 0.652663052
vn 0.0171618871 -0.527441442 0.849418044
vn -0.40923655 -0.348068982 0.843429565
vn -0.665822089 0.00339626824 0.74610275
vn -0.263817191 -0.278036535 0.923632026
vn -0.326064616 0.205476224 0.922746658
vn -0.586690485 -0.787356377 0.189378783
vn -0.754036427 -0.644292057 0.127736628
vn -0.550217152 -0.822890818 0.141816199
vn -0.770914257 -0.536118746 0.343900979
vn -0.757007003 -0.284353375 0.588288724
vn -0.925399423 -0.352772862 0.138517782
vn -0.951023579 -0.111377425 0.288356155
vn -0.972447097 -0.161755607 -0.167874366
vn -0.998852611 -0.0141148334 -0.0457638502
vn -0.638816774 -0.744732559 -0.193097427
vn -0.863884807 -0.130735382 -0.486427158
vn -0.861320674 -0.310817957 0.401894212
vn -0.694137454 -0.33901 0.635016024
vn -0.750170767 -0.564062774 0.345075548
vn -0.611546278 -0.532228351 0.585443497
vn -0.704843283 -0.709160447 0.0169517752
vn -0.412725657 -0.90480566 -0.104805849
vn -0.571135759 -0.65502274 -0.494721174
vn -0.201017112 -0.820217192 -0.535570562
vn -0.504073083 -0.327548087 -0.799138665
vn -0.0126842288 -0.469475538 -0.882854402
vn -0.852880538 -0.442203075 -0.277581006
vn -0.189981252 -0.663313925 -0.723824322
vn -0.524470508 -0.256963938 -0.81172663
vn 0.197934955 -0.890827417 -0.408959985
vn 0.203137413 -0.718708277 0.664976358
vn -0.807008088 -0.16648671 0.566586435
vn -0.760052383 -0.33552742 0.556544363
vn 0.263817191 -0.278036594 0.923632026
vn 0.223410755 0.0873622373 0.970801473
vn -0.727895081 -0.576575398 0.37111935
vn -0.119721852 0.1094843 0.986752152
vn -0.378474891 -0.921609163 0.085984841
vn -0 0.0767505243 0.997050285
vn -0 -0.995915592 0.0902891755
vn 0.576720417 0.494766295 0.650076807
vn 0.665822089 0.00339626824 0.74610275
vn 0.263817191 -0.278036594 0.923632026
vn 0.217093587 0.676238596 0.703968585
vn 0.326064616 0.205476224 0.922746658
vn 0.261636406 0.877534926 0.401844323
vn 0.111724004 0.941256106 0.318676472
vn 0.081962809 0.925860882 0.368868202
vn 0.0551101863 0.998206496 0.0233796723
vn 0.010830706 0.991101742 0.132665113
vn -0 0.962792158 0.270242721
vn -0 0.999350011 -0.0360475592
vn 0.0842248499 0.983116448 -0.16244477
vn -0 0.99053663 -0.137248859
vn -0 0.950306237 0.311316699
vn -0 0.0767505243 0.997050285
vn 0.198770791 0.96093601 -0.192593277
vn -0 0.985835135 -0.167717576
vn -0 0.724925876 -0.688826859
vn 0.0900208578 0.759045362 -0.644783974
vn -0.0634906515 0.754743576 -0.652940392
vn -0 0.782288969 -0.622915745
vn 0.282761574 0.708381534 -0.646715999
vn 0.0992116109 0.826229811 -0.554528058
vn -0 0.972877741 0.231319994
vn 0.242232904 0.939448297 0.242405146
vn 0.714533865 0.641933799 0.278140992
vn 0.574991882 0.659456789 -0.484253138
vn 0.544464588 0.515209317 -0.661904514
vn 0.878912032 0.418903798 -0.228107929
vn 0.577379227 0.774763227 -0.257633686
vn 0.0820389614 0.956336379 -0.280517757
vn 0.212018505 0.64131856 -0.737399936
vn 0.0203833077 0.276380479 -0.960832119
vn 0.212018505 0.64131856 -0.737399936
vn 0.212901637 0.868263662 0.44809711
vn 0.472478002 0.747956097 0.466182679
vn -0.0204480719 0.91834259 0.39525792
vn 0.686349511 0.531640649 0.496268779
vn -0 0.926412344 0.37651068
vn 0.0204480775 0.91834259 0.39525792
vn -0.212901622 0.868263662 0.44809711
vn -0.242232874 0.939448297 0.242405146
vn 0.063490659 0.754743576 -0.652940392
vn -0.0900208578 0.759045362 -0.644783974
vn -0.282761574 0.708381534 -0.646715999
vn -0.0992116109 0.826229811 -0.554528058
vn -0.714533865 0.641933799 0.278141022
vn -0.574991882 0.659456789 -0.484253138
vn -0.472478032 0.747956038 0.466182679
vn -0.198770791 0.96093601 -0.192593277
vn -0.0842248499 0.983116448 -0.16244477
vn -0.0551101938 0.998206496 0.0233796723
vn -0.111724004 0.941256106 0.318676472
vn -0.081962809 0.925860882 0.368868202
vn -0.217093587 0.676238596 0.703968585
vn -0.010830706 0.991101742 0.132665113
vn -0.261636436 0.877534926 0.401844323
vn -0.576720417 0.494766295 0.650076807
vn -0.665822089 0.00339626824 0.74610275
vn -0.223410755 0.0873622373 0.970801473
vn -0.263817191 -0.278036535 0.923632026
vn -0.326064616 0.205476224 0.922746658
vn 0.119721867 0.109484218 0.986752272
vn 0.727895081 -0.576575398 0.37111935
vn 0.378474921 -0.921609163 0.0859848559
vn 0.760052383 -0.33552742 0.556544363
vn -0.263817191 -0.278036535 0.923632026
vn 0.807008088 -0.166486651 0.566586256
vn -0 -0.874992311 -0.484136969
vn 0.383099735 -0.890805542 -0.24433586
vn 0.348930687 -0.846063018 -0.403019607
vn -0 -0.946938276 -0.321415454
vn 0.452977657 -0.696098626 -0.557007968
vn 0.360049725 -0.926275849 -0.111253165
vn 0.758667231 -0.647338688 0.0733252466
vn -0 -0.991885304 -0.127136156
vn -0 -0.993068099 -0.117540292
vn 0.252985418 -0.959786594 -0.121687785
vn 0.675708473 -0.458330423 -0.577365756
vn 0.377375543 -0.410143256 -0.830283225
vn 0.423821718 -0.905558169 -0.0184265766
vn 0.643318415 -0.744488299 0.178546086
vn 0.357054442 -0.924050927 -0.136535779
vn 0.962162971 0.021252552 0.271644771
vn 0.84885627 0.123616293 -0.513967037
vn 0.574991882 0.659456789 -0.484253138
vn 0.714533865 0.641933799 0.278140992
vn 0.875233591 -0.0724383965 0.478245646
vn 0.821422398 -0.37613669 0.428703129
vn 0.686349511 0.531640649 0.496268779
vn 0.795946598 0.321952641 0.512655377
vn 0.544464588 0.515209317 -0.661904514
vn 0.692462623 0.0764767528 -0.717388928
vn 0.639045179 -0.37714234 -0.670361757
vn 0.799464524 -0.403236181 -0.445260644
vn 0.191282034 -0.651673615 -0.733984172
vn 0.662730217 -0.744478285 -0.0808746442
vn 0.34653005 -0.934197605 -0.0848036185
vn 0.543584287 -0.784261405 -0.299082458
vn 0.820608437 -0.428940415 -0.377640098
vn 0.898011923 -0.433457613 -0.0754253417
vn 0.524470508 -0.256963938 -0.81172663
vn 0.189981252 -0.663313925 -0.723824322
vn 0.182399154 -0.982722402 -0.0314176045
vn -0 -0.998192132 0.0601044819
vn -0 -0.999575555 -0.0291325822
vn -0.197934955 -0.890827417 -0.408959985
vn -0.535054803 -0.844383717 -0.0270635448
vn -0 -0.982373238 0.18693012
vn 0.972447097 -0.161755607 -0.167874366
vn 0.863884807 -0.130735382 -0.486427158
vn 0.984733641 -0.0238272212 -0.172429755
vn 0.638816774 -0.744732559 -0.193097427
vn 0.878912032 0.418903798 -0.228107929
vn 0.0986576676 -0.209007949 -0.97292465
vn 0.0203833077 0.276380479 -0.960832119
vn 0.535054803 -0.844383717 -0.0270635448
vn -0.182399169 -0.982722402 -0.031417612
vn 0.197934955 -0.890827417 -0.408959985
vn -0.34653005 -0.934197605 -0.084803611
vn -0.383099824 -0.890805542 -0.24433589
vn -0.348930627 -0.846063018 -0.403019577
vn -0.452977657 -0.696098626 -0.557007968
vn -0.360049725 -0.926275849 -0.111253165
vn -0.75866729 -0.647338629 0.0733252466
vn -0.252985418 -0.959786594 -0.12168777
vn -0.675708473 -0.458330423 -0.577365756
vn -0.377375543 -0.410143286 -0.830283225
vn -0.423821718 -0.905558169 -0.0184265729
vn -0.643318415 -0.744488299 0.178546086
vn -0.357054442 -0.924050927 -0.136535779
vn -0.962162971 0.0212525576 0.271644741
vn -0.84885627 0.123616308 -0.513967037
vn -0.574991882 0.659456789 -0.484253138
vn -0.714533865 0.641933799 0.278141022
vn -0.875233591 -0.0724383891 0.478245646
vn -0.821422398 -0.37613669 0.428703099
vn -0.686349511 0.531640649 0.496268779
vn -0.795946598 0.321952641 0.512655377
vn -0.544464648 0.515209317 -0.661904514
vn -0.692462564 0.0764767453 -0.717388928
vn -0.639045179 -0.37714234 -0.670361757
vn -0.799464524 -0.403236151 -0.445260614
vn -0.191282034 -0.651673615 -0.733984172
vn -0.662730217 -0.744478285 -0.0808746442
vn -0.543584287 -0.784261405 -0.299082428
vn -0.820608437 -0.428940415 -0.377640098
vn -0.898012042 -0.433457613 -0.0754253492
vn -0.524470508 -0.256963938 -0.81172663
vn -0.189981252 -0.663313925 -0.723824322
vn -0.972447097 -0.161755607 -0.167874366
vn -0.863884807 -0.130735382 -0.486427158
vn -0.984733641 -0.0238272231 -0.17242977
vn -0.638816774 -0.744732559 -0.193097427
vn -0.0986576676 -0.209007964 -0.97292465
vn -0.878912032 0.418903798 -0.228107929
vn -0.0203833077 0.276380479 -0.960832119
vn -0.544464648 0.515209317 -0.661904514
vn -0.878912032 0.418903798 -0.228107929
vn -0.577379286 0.774763227 -0.257633716
vn -0.0820389614 0.956336379 -0.280517727
vn -0.21201852 0.64131856 -0.737399936
vn -0.0203833077 0.276380479 -0.960832119
vn -0.21201852 0.64131856 -0.737399936
vn -0.686349511 0.531640649 0.496268779
vn -0.932410657 -0.34791398 0.0978072509
vn 0.710393846 0.0402479172 0.702652752
vn 0.621191263 0.721438825 0.306018531
vn 0.899394095 0.00951716024 0.437035233
vn 0.396518826 0.721535325 0.567591012
vn 0.565545976 -0.665236771 0.487460494
vn 0.578142762 -0.773439348 0.259889454
vn 0.326064616 0.205476224 0.922746658
vn 0.217093587 0.676238596 0.703968585
vn 0.40923655 -0.348068982 0.843429565
vn 0.550217092 -0.822890818 0.141816214
vn 0.586690485 -0.787356377 0.189378783
vn 0.419653922 -0.662425816 0.620550334
vn 0.153880283 0.978782117 0.135301158
vn 0.081962809 0.925860882 0.368868202
vn 0.010830706 0.991101742 0.132665113
vn 0.586108565 0.791336536 0.173963144
vn -0.043904826 0.971819162 -0.231602594
vn 0.573348165 0.784405828 0.23659946
vn -0.214552447 0.959632576 -0.181858346
vn -0.0175640434 0.766596496 -0.641888857
vn 0.743985116 0.614979684 -0.261315912
vn 0.991480827 -0.0586191006 -0.116317049
vn 0.907436609 0.0483966768 0.417392522
vn 0.702338278 -0.676684678 -0.220950052
vn 0.596992493 -0.747938156 0.29015252
vn 0.928169429 0.0311216488 0.370854318
vn 0.577555299 -0.791836977 0.198554873
vn -0.264929265 -0.958977878 -0.10086567
vn 0.0681479201 -0.831417203 -0.551453769
vn 0.590926468 0.170580834 -0.788484573
vn 0.593369126 -0.200704813 -0.779506743
vn 0.567455232 -0.228223503 -0.791143835
vn 0.506183147 -0.141507253 -0.850737512
vn 0.324754477 0.19199416 -0.926106334
vn -0.42196992 0.23098214 -0.876691878
vn 0.0748059079 -0.154248849 -0.985196114
vn -0.382773489 -0.902527213 -0.197304621
vn 0.638816774 -0.744732559 -0.193097427
vn -0.837890506 -0.399870843 -0.371541232
vn 0.0986576676 -0.209007949 -0.97292465
vn 0.638816774 -0.744732559 -0.193097427
vn 0.0203833077 0.276380479 -0.960832119
vn -0.816095412 0.378287524 -0.43690604
vn -0.42196992 0.23098214 -0.876691878
vn -0.454137355 -0.437005639 -0.776392519
vn 0.0748059079 -0.154248849 -0.985196114
vn 0.464328349 -0.252540141 -0.848895013
vn 0.354147017 -0.402847856 -0.843974888
vn 0.0748059079 -0.154248849 -0.985196114
vn -0.837337017 0.130829588 -0.530801535
vn 0.0820389614 0.956336379 -0.280517757
vn 0.212018505 0.64131856 -0.737399936
vn 0.212018505 0.64131856 -0.737399936
vn -0.685300171 0.0443475805 -0.72690922
vn 0.212018505 0.64131856 -0.737399936
vn 0.0203833077 0.276380479 -0.960832119
vn -0.816095412 0.378287524 -0.43690604
vn -0.666151464 0.206042871 -0.716790497
vn -0.666151464 0.206042871 -0.716790497
vn -0.837337017 0.130829588 -0.530801535
vn 0.0820389614 0.956336379 -0.280517757
vn -0.666151464 0.206042871 -0.716790497
vn 0.0820389614 0.956336379 -0.280517757
vn -0.710393846 0.0402479172 0.702652752
vn -0.621191263 0.721438825 0.306018531
vn -0.396518826 0.721535444 0.567590952
vn -0.899394095 0.00951715838 0.437035292
vn -0.565545976 -0.665236771 0.487460494
vn -0.578142762 -0.773439348 0.259889454
vn -0.326064616 0.205476224 0.922746658
vn -0.217093587 0.676238596 0.703968585
vn -0.40923655 -0.348068982 0.843429565
vn -0.550217152 -0.822890818 0.141816199
vn -0.586690485 -0.787356377 0.189378783
vn -0.419653922 -0.662425756 0.620550334
vn -0.153880268 0.978782117 0.135301128
vn -0.081962809 0.925860882 0.368868202
vn -0.010830706 0.991101742 0.132665113
vn -0.586108565 0.791336536 0.173963174
vn 0.043904826 0.971819162 -0.231602564
vn -0.573348165 0.784405828 0.23659946
vn 0.214552447 0.959632576 -0.181858346
vn 0.0175640434 0.766596496 -0.641888857
vn -0.743985116 0.614979804 -0.261315972
vn -0.991480827 -0.0586191155 -0.116317049
vn -0.907436728 0.0483966805 0.417392552
vn -0.702338278 -0.676684678 -0.220950052
vn -0.596992493 -0.747938156 0.29015252
vn -0.928169429 0.0311216488 0.370854318
vn -0.577555299 -0.791836977 0.198554873
vn 0.264929265 -0.958977878 -0.10086567
vn -0.0681479275 -0.831417203 -0.551453829
vn -0.590926468 0.170580834 -0.788484573
vn -0.593369126 -0.200704813 -0.779506743
vn -0.567455232 -0.228223532 -0.791143835
vn -0.506183147 -0.141507238 -0.850737512
vn -0.324754477 0.19199416 -0.926106334
vn 0.42196995 0.230982125 -0.876691818
vn -0.0748059228 -0.154248849 -0.985196114
vn 0.382773489 -0.902527213 -0.197304621
vn -0.638816774 -0.744732559 -0.193097427
vn 0.837890506 -0.399870843 -0.371541202
vn -0.0986576676 -0.209007964 -0.97292465
vn -0.638816774 -0.744732559 -0.193097427
vn -0.0203833077 0.276380479 -0.960832119
vn 0.816095412 0.378287613 -0.43690604
vn 0.42196995 0.230982125 -0.876691818
vn 0.454137355 -0.437005639 -0.776392519
vn -0.0748059228 -0.154248849 -0.985196114
vn -0.464328349 -0.252540141 -0.848895013
vn -0.354147017 -0.402847856 -0.843974888
vn -0.0748059228 -0.154248849 -0.985196114
vn 0.837337017 0.130829602 -0.530801713
vn -0.21201852 0.64131856 -0.737399936
vn -0.0820389614 0.956336379 -0.280517727
vn 0.685300171 0.0443475991 -0.72690922
vn -0.21201852 0.64131856 -0.737399936
vn -0.21201852 0.64131856 -0.737399936
vn -0.0203833077 0.276380479 -0.960832119
vn 0.816095412 0.378287613 -0.43690604
vn 0.666151524 0.206042945 -0.716790378
vn 0.837337017 0.130829602 -0.530801713
vn 0.666151524 0.206042945 -0.716790378
vn -0.0820389614 0.956336379 -0.280517727
vn 0.666151524 0.206042945 -0.716790378
vn -0.0820389614 0.956336379 -0.280517727
vn 0.698246479 -0.587587655 0.408891916
vn 0.814554751 0.0136636449 0.579925776
vn 0.899208009 -0.00634661689 0.437475413
vn 0.637660265 -0.543998122 0.545394659
vn 0.562514365 -0.717729867 0.410416037
vn 0.703892291 0.61772573 0.350643277
vn 0.728984773 0.0122558447 0.684420109
vn 0.641768813 0.599609673 0.478122443
vn 0.52923733 0.793559074 0.300286502
vn 0.406491697 -0.810265303 -0.422178328
vn 0.72696358 -0.515230477 -0.453939855
vn 0.784685254 0.416263372 -0.459340572
vn 0.36897859 0.78690505 -0.494606078
vn -0.130831271 -0.0222051982 -0.991155982
vn -0.512273967 -0.14146398 -0.847091138
vn 0.142731398 0.876222789 -0.460284203
vn -0.510901332 -0.306660831 -0.803080976
vn -0.491515189 0.832370698 -0.256069899
vn -0.819282651 -0.262456983 -0.509796381
vn -0.491515189 0.832370698 -0.256069899
vn -0.269515097 0.901627719 0.338273674
vn -0.216561526 0.763219893 0.608766377
vn -0.17072922 0.518189371 0.838052094
vn -0.0783020854 0.016796669 0.996788263
vn -0.986641347 0.0111048967 0.162528753
vn -0.0783020854 0.016796669 0.996788263
vn -0.173849463 -0.460264206 0.870593607
vn -0.0783020854 0.016796669 0.996788263
vn -0.986641347 0.0111048967 0.162528753
vn -0.987546742 0.15630056 0.0179312658
vn -0.228461727 -0.661243618 0.71453619
vn -0.266799331 -0.826297343 0.496035069
vn -0.969774902 -0.112264402 0.216641128
vn -0.408317119 -0.899269998 -0.156813979
vn -0.842364609 0.0992920548 -0.529681802
vn 0.215846553 -0.906404138 -0.363100171
vn -0.408317119 -0.899269998 -0.156813979
vn -0.479519427 0.0416061729 -0.876544416
vn -0.49816528 0.190797091 -0.845829606
vn 0.406491697 -0.810265303 -0.422178328
vn 0.72696358 -0.515230477 -0.453939855
vn -0.130831271 -0.0222051982 -0.991155982
vn -0.842364609 0.0992920548 -0.529681802
vn -0.408317119 -0.899269998 -0.156813979
vn -0.130831271 -0.0222051982 -0.991155982
vn 0.72696358 -0.515230477 -0.453939855
vn 0.784685254 0.416263372 -0.459340572
vn -0.96777302 0.15041019 0.20197098
vn -0.491515189 0.832370698 -0.256069899
vn -0.269515097 0.901627719 0.338273674
vn -0.819282651 -0.262456983 -0.509796381
vn -0.216561526 0.763219893 0.608766377
vn -0.992946565 -0.115532093 0.02663696
vn -0.17072922 0.518189371 0.838052094
vn -0.992946565 -0.115532093 0.02663696
vn -0.216561526 0.763219893 0.608766377
vn -0.986641347 0.0111048967 0.162528753
vn -0.986641347 0.0111048967 0.162528753
vn -0.512273967 -0.14146398 -0.847091138
vn -0.992946565 -0.115532093 0.02663696
vn -0.130831271 -0.0222051982 -0.991155982
vn -0.986641347 0.0111048967 0.162528753
vn -0.479519427 0.0416061729 -0.876544416
vn -0.987546742 0.15630056 0.0179312658
vn -0.49816528 0.190797091 -0.845829606
vn -0.842364609 0.0992920548 -0.529681802
vn -0.969774902 -0.112264402 0.216641128
vn -0.992946565 -0.115532093 0.02663696
vn -0.510901332 -0.306660831 -0.803080976
vn -0.819282651 -0.262456983 -0.509796381
vn -0.992946565 -0.115532093 0.02663696
vn -0.819282651 -0.262456983 -0.509796381
vn -0.96777302 0.15041019 0.20197098
vn -0.698246479 -0.587587655 0.408891916
vn -0.899208009 -0.00634661689 0.437475413
vn -0.814554751 0.0136636449 0.579925776
vn -0.637660265 -0.543998122 0.545394719
vn -0.562514424 -0.717729867 0.410416037
vn -0.703892291 0.617725611 0.350643218
vn -0.728984773 0.0122558447 0.684420109
vn -0.641768813 0.599609733 0.478122443
vn -0.52923733 0.793558955 0.300286472
vn -0.406491697 -0.810265303 -0.422178328
vn -0.72696358 -0.515230477 -0.453939855
vn -0.784685254 0.416263372 -0.459340572
vn -0.36897862 0.786904991 -0.494606078
vn 0.130831271 -0.0222051982 -0.991155982
vn 0.512273967 -0.141463965 -0.847091138
vn -0.142731398 0.876222789 -0.460284203
vn 0.510901332 -0.306660831 -0.803080976
vn 0.491515189 0.832370698 -0.256069899
vn 0.819282651 -0.262456983 -0.509796381
vn 0.491515189 0.832370698 -0.256069899
vn 0.269515097 0.901627719 0.338273674
vn 0.216561511 0.763219893 0.608766377
vn 0.170729205 0.518189371 0.838052094
vn 0.0783020854 0.016796669 0.996788263
vn 0.986641347 0.0111048967 0.162528768
vn 0.0783020854 0.016796669 0.996788263
vn 0.0783020854 0.016796669 0.996788263
vn 0.173849478 -0.460264266 0.870593607
vn 0.986641347 0.0111048967 0.162528768
vn 0.987546742 0.15630056 0.0179312676
vn 0.228461772 -0.661243618 0.71453619
vn 0.266799331 -0.826297343 0.496035069
vn 0.969774902 -0.112264402 0.216641128
vn 0.408317119 -0.899269998 -0.156813979
vn 0.842364609 0.0992920399 -0.529681802
vn 0.408317119 -0.899269998 -0.156813979
vn -0.215846553 -0.906404138 -0.363100231
vn 0.479519486 0.0416061766 -0.876544416
vn -0.406491697 -0.810265303 -0.422178328
vn -0.72696358 -0.515230477 -0.453939855
vn 0.130831271 -0.0222051982 -0.991155982
vn 0.49816528 0.190797091 -0.845829666
vn 0.842364609 0.0992920399 -0.529681802
vn 0.408317119 -0.899269998 -0.156813979
vn 0.130831271 -0.0222051982 -0.991155982
vn -0.784685254 0.416263372 -0.459340572
vn -0.72696358 -0.515230477 -0.453939855
vn 0.96777302 0.15041019 0.20197098
vn 0.491515189 0.832370698 -0.256069899
vn 0.819282651 -0.262456983 -0.509796381
vn 0.269515097 0.901627719 0.338273674
vn 0.216561511 0.763219893 0.608766377
vn 0.992946565 -0.115532085 0.02663696
vn 0.170729205 0.518189371 0.838052094
vn 0.216561511 0.763219893 0.608766377
vn 0.992946565 -0.115532085 0.02663696
vn 0.986641347 0.0111048967 0.162528768
vn 0.986641347 0.0111048967 0.162528768
vn 0.512273967 -0.141463965 -0.847091138
vn 0.130831271 -0.0222051982 -0.991155982
vn 0.992946565 -0.115532085 0.02663696
vn 0.479519486 0.0416061766 -0.876544416
vn 0.986641347 0.0111048967 0.162528768
vn 0.987546742 0.15630056 0.0179312676
vn 0.49816528 0.190797091 -0.845829666
vn 0.842364609 0.0992920399 -0.529681802
vn 0.969774902 -0.112264402 0.216641128
vn 0.992946565 -0.115532085 0.02663696
vn 0.510901332 -0.306660831 -0.803080976
vn 0.819282651 -0.262456983 -0.509796381
vn 0.819282651 -0.262456983 -0.509796381
vn 0.992946565 -0.115532085 0.02663696
vn 0.96777302 0.15041019 0.20197098
g blue_war_f_pve_3_torso_0
f 3/3/3 2/2/2 1/1/1
f 1/1/1 2/2/2 4/4/4
f 1/1/1 5/5/5 3/3/3
f 6/6/6 3/3/3 5/5/5
f 5/5/5 7/7/7 6/6/6
f 6/6/6 8/8/8 3/3/3
f 9/9/9 8/8/8 6/6/6
f 9/9/9 6/6/6 10/10/10
f 11/11/11 3/3/3 8/8/8
f 3/3/3 11/11/11 12/12/12
f 13/13/13 4/4/4 12/12/12
f 8/8/8 9/9/9 14/14/14
f 15/15/15 14/14/14 9/9/9
f 14/14/14 15/15/15 16/16/16
f 17/17/17 16/16/16 15/15/15
f 14/14/14 16/16/16 18/18/18
f 11/11/11 8/8/8 18/18/18
f 14/14/14 18/18/18 8/8/8
f 19/19/19 18/18/18 16/16/16
f 20/20/20 16/16/16 17/17/17
f 11/11/11 18/18/18 21/21/21
f 18/18/18 19/19/19 21/21/21
f 21/21/21 22/22/22 11/11/11
f 23/23/23 11/11/11 22/22/22
f 23/23/23 24/24/24 11/11/11
f 24/24/24 23/23/23 13/13/13
f 22/22/22 25/25/25 23/23/23
f 26/26/26 23/23/23 25/25/25
f 26/26/26 27/27/27 23/23/23
f 25/25/25 28/28/28 26/26/26
f 22/22/22 21/21/21 29/29/29
f 30/30/30 29/29/29 21/21/21
f 30/30/30 21/21/21 19/19/19
f 29/29/29 30/30/30 31/31/31
f 32/32/32 31/31/31 30/30/30
f 30/30/30 19/19/19 32/32/32
f 33/33/33 32/32/32 19/19/19
f 32/32/32 33/33/33 34/34/34
f 32/32/32 34/34/34 31/31/31
f 35/35/35 34/34/34 33/33/33
f 34/34/34 35/35/35 36/36/36
f 37/37/37 36/36/36 35/35/35
f 38/38/38 31/31/31 34/34/34
f 36/36/36 38/38/38 34/34/34
f 36/36/36 37/37/37 39/39/39
f 35/35/35 33/33/33 40/40/40
f 41/41/41 40/40/40 33/33/33
f 40/40/40 41/41/41 42/42/42
f 43/43/43 42/42/42 41/41/41
f 42/42/42 43/43/43 44/44/44
f 45/45/45 44/44/44 43/43/43
f 45/45/45 46/46/46 44/44/44
f 45/45/45 47/47/47 46/46/46
f 47/47/47 45/45/45 48/48/48
f 41/41/41 33/33/33 48/48/48
f 45/45/45 43/43/43 48/48/48
f 41/41/41 48/48/48 43/43/43
f 47/47/47 48/48/48 16/16/16
f 19/19/19 16/16/16 48/48/48
f 47/47/47 16/16/16 49/49/49
f 49/49/49 46/46/46 47/47/47
f 20/20/20 49/49/49 16/16/16
f 50/50/50 44/44/44 46/46/46
f 46/46/46 49/49/49 50/50/50
f 50/50/50 51/51/51 44/44/44
f 50/50/50 52/52/52 51/51/51
f 52/52/52 50/50/50 53/53/53
f 49/49/49 20/20/20 53/53/53
f 53/53/53 50/50/50 49/49/49
f 52/52/52 53/53/53 54/54/54
f 55/55/55 54/54/54 53/53/53
f 55/55/55 53/53/53 20/20/20
f 52/52/52 54/54/54 56/56/56
f 56/56/56 51/51/51 52/52/52
f 57/57/57 56/56/56 54/54/54
f 19/19/19 48/48/48 33/33/33
f 55/55/55 20/20/20 58/58/58
f 59/59/59 58/58/58 20/20/20
f 57/57/57 60/60/60 56/56/56
f 61/61/61 56/56/56 60/60/60
f 56/56/56 61/61/61 51/51/51
f 60/60/60 62/62/62 61/61/61
f 63/63/63 61/61/61 62/62/62
f 63/63/63 62/62/62 64/64/64
f 39/39/39 64/64/64 62/62/62
f 63/63/63 65/65/65 61/61/61
f 64/64/64 66/66/66 63/63/63
f 65/65/65 63/63/63 66/66/66
f 60/60/60 67/67/67 62/62/62
f 60/60/60 57/57/57 67/67/67
f 68/68/68 62/62/62 67/67/67
f 68/68/68 39/39/39 62/62/62
f 65/65/65 66/66/66 44/44/44
f 65/65/65 44/44/44 51/51/51
f 65/65/65 51/51/51 61/61/61
f 42/42/42 44/44/44 66/66/66
f 39/39/39 37/37/37 64/64/64
f 69/69/69 64/64/64 37/37/37
f 42/42/42 66/66/66 69/69/69
f 64/64/64 69/69/69 66/66/66
f 37/37/37 35/35/35 69/69/69
f 40/40/40 69/69/69 35/35/35
f 40/40/40 42/42/42 69/69/69
f 70/70/70 67/67/67 57/57/57
f 57/57/57 54/54/54 70/70/70
f 71/71/71 70/70/70 54/54/54
f 54/54/54 55/55/55 71/71/71
f 58/58/58 71/71/71 55/55/55
f 58/58/58 72/72/72 71/71/71
f 72/72/72 58/58/58 73/73/73
f 58/58/58 74/74/74 73/73/73
f 74/74/74 58/58/58 75/75/75
f 74/74/74 75/75/75 76/76/76
f 74/74/74 76/76/76 77/77/77
f 77/77/77 73/73/73 74/74/74
f 78/78/78 77/77/77 76/76/76
f 78/78/78 79/79/79 77/77/77
f 80/80/80 77/77/77 79/79/79
f 78/78/78 76/76/76 81/81/81
f 81/81/81 82/82/82 78/78/78
f 79/79/79 78/78/78 82/82/82
f 81/81/81 83/83/83 82/82/82
f 81/81/81 84/84/84 83/83/83
f 85/85/85 83/83/83 84/84/84
f 85/85/85 84/84/84 86/86/86
f 85/85/85 86/86/86 87/87/87
f 86/86/86 88/88/88 87/87/87
f 88/88/88 75/75/75 17/17/17
f 17/17/17 15/15/15 88/88/88
f 89/89/89 88/88/88 15/15/15
f 15/15/15 9/9/9 89/89/89
f 90/90/90 89/89/89 9/9/9
f 90/90/90 9/9/9 91/91/91
f 91/91/91 9/9/9 92/92/92
f 91/91/91 93/93/93 90/90/90
f 91/91/91 94/94/94 93/93/93
f 95/95/95 93/93/93 94/94/94
f 96/96/96 93/93/93 95/95/95
f 95/95/95 97/97/97 96/96/96
f 7/7/7 94/94/94 91/91/91
f 98/98/98 90/90/90 93/93/93
f 93/93/93 99/99/99 98/98/98
f 100/100/100 99/99/99 97/97/97
f 89/89/89 90/90/90 101/101/101
f 98/98/98 101/101/101 90/90/90
f 89/89/89 101/101/101 88/88/88
f 102/102/102 88/88/88 101/101/101
f 101/101/101 98/98/98 103/103/103
f 101/101/101 103/103/103 102/102/102
f 103/103/103 98/98/98 104/104/104
f 105/105/105 104/104/104 98/98/98
f 105/105/105 98/98/98 106/106/106
f 106/106/106 100/100/100 105/105/105
f 104/104/104 105/105/105 107/107/107
f 108/108/108 107/107/107 105/105/105
f 108/108/108 105/105/105 109/109/109
f 110/110/110 107/107/107 108/108/108
f 104/104/104 111/111/111 103/103/103
f 112/112/112 103/103/103 111/111/111
f 112/112/112 102/102/102 103/103/103
f 111/111/111 113/113/113 112/112/112
f 114/114/114 112/112/112 113/113/113
f 112/112/112 114/114/114 102/102/102
f 115/115/115 102/102/102 114/114/114
f 114/114/114 116/116/116 115/115/115
f 114/114/114 113/113/113 116/116/116
f 117/117/117 115/115/115 116/116/116
f 116/116/116 118/118/118 117/117/117
f 119/119/119 117/117/117 118/118/118
f 120/120/120 116/116/116 113/113/113
f 120/120/120 118/118/118 116/116/116
f 119/119/119 118/118/118 121/121/121
f 117/117/117 122/122/122 115/115/115
f 123/123/123 115/115/115 122/122/122
f 122/122/122 124/124/124 123/123/123
f 125/125/125 123/123/123 124/124/124
f 124/124/124 83/83/83 125/125/125
f 85/85/85 125/125/125 83/83/83
f 124/124/124 126/126/126 83/83/83
f 127/127/127 83/83/83 126/126/126
f 127/127/127 126/126/126 128/128/128
f 127/127/127 128/128/128 129/129/129
f 128/128/128 130/130/130 129/129/129
f 131/131/131 129/129/129 130/130/130
f 128/128/128 132/132/132 130/130/130
f 121/121/121 130/130/130 132/132/132
f 132/132/132 128/128/128 126/126/126
f 121/121/121 132/132/132 119/119/119
f 131/131/131 130/130/130 133/133/133
f 134/134/134 133/133/133 130/130/130
f 121/121/121 134/134/134 130/130/130
f 127/127/127 82/82/82 83/83/83
f 127/127/127 129/129/129 82/82/82
f 123/123/123 125/125/125 87/87/87
f 85/85/85 87/87/87 125/125/125
f 123/123/123 87/87/87 115/115/115
f 102/102/102 115/115/115 87/87/87
f 102/102/102 87/87/87 88/88/88
f 129/129/129 131/131/131 79/79/79
f 79/79/79 82/82/82 129/129/129
f 80/80/80 79/79/79 131/131/131
f 131/131/131 133/133/133 80/80/80
f 135/135/135 80/80/80 133/133/133
f 80/80/80 135/135/135 77/77/77
f 73/73/73 77/77/77 135/135/135
f 75/75/75 88/88/88 136/136/136
f 86/86/86 136/136/136 88/88/88
f 136/136/136 86/86/86 84/84/84
f 136/136/136 76/76/76 75/75/75
f 84/84/84 81/81/81 136/136/136
f 76/76/76 136/136/136 81/81/81
f 59/59/59 75/75/75 58/58/58
f 59/59/59 17/17/17 75/75/75
f 17/17/17 59/59/59 20/20/20
f 139/139/139 138/138/138 137/137/137
f 139/139/139 140/140/140 138/138/138
f 141/141/141 138/138/138 140/140/140
f 142/142/142 141/141/141 140/140/140
f 142/142/142 143/143/143 141/141/141
f 142/142/142 144/144/144 143/143/143
f 145/145/145 143/143/143 144/144/144
f 140/140/140 146/146/146 142/142/142
f 146/146/146 140/140/140 147/147/147
f 148/148/148 147/147/147 140/140/140
f 146/146/146 147/147/147 149/149/149
f 150/150/150 149/149/149 147/147/147
f 151/151/151 142/142/142 146/146/146
f 146/146/146 149/149/149 151/151/151
f 152/152/152 151/151/151 149/149/149
f 149/149/149 153/153/153 152/152/152
f 152/152/152 153/153/153 154/154/154
f 155/155/155 154/154/154 153/153/153
f 152/152/152 154/154/154 156/156/156
f 152/152/152 156/156/156 151/151/151
f 157/157/157 156/156/156 154/154/154
f 154/154/154 158/158/158 157/157/157
f 159/159/159 157/157/157 158/158/158
f 160/160/160 151/151/151 156/156/156
f 160/160/160 161/161/161 151/151/151
f 142/142/142 151/151/151 161/161/161
f 158/158/158 162/162/162 159/159/159
f 163/163/163 159/159/159 162/162/162
f 163/163/163 162/162/162 164/164/164
f 165/165/165 164/164/164 162/162/162
f 165/165/165 166/166/166 164/164/164
f 167/167/167 164/164/164 166/166/166
f 165/165/165 168/168/168 166/166/166
f 169/169/169 166/166/166 168/168/168
f 167/167/167 166/166/166 170/170/170
f 171/171/171 170/170/170 166/166/166
f 166/166/166 169/169/169 171/171/171
f 171/171/171 169/169/169 172/172/172
f 173/173/173 172/172/172 169/169/169
f 168/168/168 174/174/174 169/169/169
f 173/173/173 169/169/169 174/174/174
f 174/174/174 168/168/168 175/175/175
f 176/176/176 175/175/175 168/168/168
f 168/168/168 165/165/165 176/176/176
f 162/162/162 176/176/176 165/165/165
f 162/162/162 158/158/158 176/176/176
f 177/177/177 176/176/176 158/158/158
f 158/158/158 154/154/154 177/177/177
f 155/155/155 177/177/177 154/154/154
f 178/178/178 176/176/176 177/177/177
f 175/175/175 176/176/176 179/179/179
f 180/180/180 179/179/179 176/176/176
f 171/171/171 181/181/181 170/170/170
f 171/171/171 182/182/182 181/181/181
f 171/171/171 172/172/172 182/182/182
f 183/183/183 170/170/170 181/181/181
f 184/184/184 182/182/182 172/172/172
f 183/183/183 185/185/185 170/170/170
f 185/185/185 186/186/186 170/170/170
f 186/186/186 187/187/187 170/170/170
f 188/188/188 170/170/170 187/187/187
f 188/188/188 189/189/189 170/170/170
f 167/167/167 170/170/170 189/189/189
f 167/167/167 189/189/189 164/164/164
f 190/190/190 164/164/164 189/189/189
f 190/190/190 189/189/189 191/191/191
f 192/192/192 191/191/191 189/189/189
f 192/192/192 189/189/189 188/188/188
f 188/188/188 193/193/193 192/192/192
f 194/194/194 192/192/192 193/193/193
f 195/195/195 188/188/188 187/187/187
f 188/188/188 195/195/195 193/193/193
f 190/190/190 196/196/196 164/164/164
f 163/163/163 164/164/164 196/196/196
f 163/163/163 196/196/196 159/159/159
f 197/197/197 159/159/159 196/196/196
f 159/159/159 197/197/197 157/157/157
f 198/198/198 157/157/157 197/197/197
f 157/157/157 198/198/198 156/156/156
f 199/199/199 156/156/156 198/198/198
f 199/199/199 198/198/198 200/200/200
f 200/200/200 201/201/201 199/199/199
f 202/202/202 200/200/200 198/198/198
f 199/199/199 201/201/201 203/203/203
f 199/199/199 203/203/203 156/156/156
f 204/204/204 203/203/203 201/201/201
f 204/204/204 201/201/201 205/205/205
f 204/204/204 205/205/205 206/206/206
f 207/207/207 206/206/206 205/205/205
f 208/208/208 205/205/205 201/201/201
f 206/206/206 209/209/209 204/204/204
f 203/203/203 204/204/204 209/209/209
f 210/210/210 209/209/209 206/206/206
f 211/211/211 209/209/209 210/210/210
f 209/209/209 211/211/211 144/144/144
f 145/145/145 144/144/144 211/211/211
f 209/209/209 161/161/161 203/203/203
f 160/160/160 203/203/203 161/161/161
f 160/160/160 156/156/156 203/203/203
f 210/210/210 206/206/206 212/212/212
f 213/213/213 212/212/212 206/206/206
f 212/212/212 213/213/213 214/214/214
f 217/217/217 216/216/216 215/215/215
f 218/218/218 217/217/217 215/215/215
f 219/219/219 216/216/216 217/217/217
f 217/217/217 220/220/220 219/219/219
f 217/217/217 218/218/218 220/220/220
f 221/221/221 219/219/219 220/220/220
f 222/222/222 220/220/220 218/218/218
f 222/222/222 223/223/223 220/220/220
f 224/224/224 220/220/220 223/223/223
f 221/221/221 225/225/225 219/219/219
f 226/226/226 219/219/219 225/225/225
f 221/221/221 220/220/220 227/227/227
f 228/228/228 221/221/221 227/227/227
f 229/229/229 227/227/227 220/220/220
f 220/220/220 224/224/224 229/229/229
f 221/221/221 230/230/230 225/225/225
f 231/231/231 225/225/225 230/230/230
f 231/231/231 230/230/230 232/232/232
f 233/233/233 232/232/232 230/230/230
f 230/230/230 221/221/221 234/234/234
f 235/235/235 234/234/234 221/221/221
f 221/221/221 228/228/228 235/235/235
f 233/233/233 230/230/230 236/236/236
f 237/237/237 236/236/236 230/230/230
f 234/234/234 237/237/237 230/230/230
f 232/232/232 238/238/238 231/231/231
f 239/239/239 231/231/231 238/238/238
f 231/231/231 239/239/239 225/225/225
f 225/225/225 240/240/240 226/226/226
f 240/240/240 225/225/225 239/239/239
f 241/241/241 226/226/226 240/240/240
f 241/241/241 242/242/242 226/226/226
f 242/242/242 241/241/241 243/243/243
f 242/242/242 243/243/243 216/216/216
f 242/242/242 216/216/216 219/219/219
f 244/244/244 216/216/216 243/243/243
f 243/243/243 245/245/245 244/244/244
f 245/245/245 243/243/243 246/246/246
f 247/247/247 246/246/246 243/243/243
f 247/247/247 243/243/243 241/241/241
f 241/241/241 240/240/240 247/247/247
f 246/246/246 248/248/248 245/245/245
f 245/245/245 248/248/248 244/244/244
f 249/249/249 244/244/244 248/248/248
f 216/216/216 244/244/244 250/250/250
f 244/244/244 251/251/251 250/250/250
f 252/252/252 250/250/250 251/251/251
f 252/252/252 215/215/215 250/250/250
f 216/216/216 250/250/250 215/215/215
f 244/244/244 253/253/253 251/251/251
f 244/244/244 249/249/249 253/253/253
f 253/253/253 254/254/254 251/251/251
f 255/255/255 251/251/251 254/254/254
f 247/247/247 256/256/256 246/246/246
f 248/248/248 246/246/246 257/257/257
f 256/256/256 257/257/257 246/246/246
f 247/247/247 258/258/258 256/256/256
f 258/258/258 247/247/247 240/240/240
f 259/259/259 256/256/256 258/258/258
f 239/239/239 258/258/258 240/240/240
f 239/239/239 238/238/238 258/258/258
f 260/260/260 258/258/258 238/238/238
f 259/259/259 258/258/258 261/261/261
f 258/258/258 260/260/260 261/261/261
f 262/262/262 261/261/261 260/260/260
f 255/255/255 263/263/263 251/251/251
f 215/215/215 252/252/252 264/264/264
f 252/252/252 251/251/251 264/264/264
f 265/265/265 251/251/251 263/263/263
f 266/266/266 264/264/264 251/251/251
f 265/265/265 266/266/266 251/251/251
f 266/266/266 267/267/267 264/264/264
f 264/264/264 267/267/267 215/215/215
f 268/268/268 215/215/215 267/267/267
f 268/268/268 218/218/218 215/215/215
f 267/267/267 269/269/269 268/268/268
f 268/268/268 269/269/269 270/270/270
f 268/268/268 270/270/270 218/218/218
f 271/271/271 270/270/270 269/269/269
f 222/222/222 218/218/218 270/270/270
f 222/222/222 270/270/270 223/223/223
f 272/272/272 223/223/223 270/270/270
f 271/271/271 269/269/269 273/273/273
f 274/274/274 273/273/273 269/269/269
f 271/271/271 275/275/275 270/270/270
f 271/271/271 276/276/276 275/275/275
f 277/277/277 270/270/270 275/275/275
f 272/272/272 270/270/270 277/277/277
f 271/271/271 273/273/273 278/278/278
f 279/279/279 278/278/278 273/273/273
f 279/279/279 280/280/280 278/278/278
f 281/281/281 278/278/278 280/280/280
f 278/278/278 282/282/282 271/271/271
f 283/283/283 271/271/271 282/282/282
f 276/276/276 271/271/271 283/283/283
f 281/281/281 284/284/284 278/278/278
f 285/285/285 278/278/278 284/284/284
f 285/285/285 282/282/282 278/278/278
f 280/280/280 279/279/279 286/286/286
f 287/287/287 286/286/286 279/279/279
f 279/279/279 273/273/273 287/287/287
f 273/273/273 274/274/274 288/288/288
f 288/288/288 287/287/287 273/273/273
f 289/289/289 288/288/288 274/274/274
f 289/289/289 274/274/274 290/290/290
f 269/269/269 290/290/290 274/274/274
f 290/290/290 269/269/269 267/267/267
f 290/290/290 267/267/267 291/291/291
f 290/290/290 291/291/291 289/289/289
f 266/266/266 291/291/291 267/267/267
f 292/292/292 291/291/291 266/266/266
f 292/292/292 293/293/293 291/291/291
f 294/294/294 291/291/291 293/293/293
f 294/294/294 289/289/289 291/291/291
f 289/289/289 294/294/294 288/288/288
f 295/295/295 293/293/293 292/292/292
f 292/292/292 266/266/266 295/295/295
f 296/296/296 295/295/295 266/266/266
f 297/297/297 294/294/294 293/293/293
f 297/297/297 293/293/293 298/298/298
f 295/295/295 298/298/298 293/293/293
f 299/299/299 288/288/288 294/294/294
f 294/294/294 297/297/297 299/299/299
f 300/300/300 299/299/299 297/297/297
f 299/299/299 300/300/300 301/301/301
f 299/299/299 301/301/301 302/302/302
f 302/302/302 286/286/286 299/299/299
f 287/287/287 299/299/299 286/286/286
f 299/299/299 287/287/287 288/288/288
f 303/303/303 302/302/302 301/301/301
f 296/296/296 266/266/266 265/265/265
f 219/219/219 226/226/226 242/242/242
f 194/194/194 304/304/304 192/192/192
f 191/191/191 192/192/192 304/304/304
f 304/304/304 305/305/305 191/191/191
f 306/306/306 191/191/191 305/305/305
f 191/191/191 306/306/306 190/190/190
f 196/196/196 190/190/190 306/306/306
f 196/196/196 306/306/306 197/197/197
f 307/307/307 197/197/197 306/306/306
f 197/197/197 307/307/307 198/198/198
f 202/202/202 198/198/198 307/307/307
f 306/306/306 308/308/308 307/307/307
f 305/305/305 309/309/309 306/306/306
f 310/310/310 306/306/306 309/309/309
f 311/311/311 193/193/193 195/195/195
f 312/312/312 119/119/119 132/132/132
f 132/132/132 126/126/126 312/312/312
f 124/124/124 312/312/312 126/126/126
f 119/119/119 312/312/312 117/117/117
f 122/122/122 117/117/117 312/312/312
f 122/122/122 312/312/312 124/124/124
f 315/315/315 314/314/314 313/313/313
f 316/316/316 313/313/313 314/314/314
f 313/313/313 317/317/317 315/315/315
f 318/318/318 315/315/315 317/317/317
f 316/316/316 319/319/319 313/313/313
f 320/320/320 319/319/319 316/316/316
f 319/319/319 321/321/321 313/313/313
f 313/313/313 321/321/321 317/317/317
f 318/318/318 317/317/317 322/322/322
f 323/323/323 322/322/322 317/317/317
f 323/323/323 317/317/317 324/324/324
f 321/321/321 324/324/324 317/317/317
f 316/316/316 314/314/314 325/325/325
f 316/316/316 325/325/325 326/326/326
f 326/326/326 320/320/320 316/316/316
f 327/327/327 326/326/326 325/325/325
f 314/314/314 328/328/328 325/325/325
f 314/314/314 315/315/315 328/328/328
f 329/329/329 325/325/325 328/328/328
f 328/328/328 330/330/330 329/329/329
f 331/331/331 329/329/329 330/330/330
f 331/331/331 330/330/330 332/332/332
f 333/333/333 332/332/332 330/330/330
f 333/333/333 330/330/330 334/334/334
f 335/335/335 334/334/334 330/330/330
f 334/334/334 335/335/335 336/336/336
f 337/337/337 336/336/336 335/335/335
f 335/335/335 338/338/338 337/337/337
f 328/328/328 338/338/338 330/330/330
f 335/335/335 330/330/330 338/338/338
f 339/339/339 337/337/337 338/338/338
f 337/337/337 340/340/340 336/336/336
f 341/341/341 336/336/336 340/340/340
f 333/333/333 334/334/334 342/342/342
f 343/343/343 342/342/342 334/334/334
f 343/343/343 334/334/334 344/344/344
f 336/336/336 344/344/344 334/334/334
f 344/344/344 336/336/336 345/345/345
f 332/332/332 333/333/333 346/346/346
f 342/342/342 346/346/346 333/333/333
f 332/332/332 346/346/346 347/347/347
f 348/348/348 347/347/347 346/346/346
f 338/338/338 315/315/315 339/339/339
f 338/338/338 328/328/328 315/315/315
f 318/318/318 339/339/339 315/315/315
f 339/339/339 349/349/349 337/337/337
f 340/340/340 337/337/337 349/349/349
f 339/339/339 350/350/350 349/349/349
f 339/339/339 318/318/318 350/350/350
f 322/322/322 350/350/350 318/318/318
f 340/340/340 349/349/349 351/351/351
f 340/340/340 351/351/351 341/341/341
f 352/352/352 351/351/351 349/349/349
f 352/352/352 349/349/349 353/353/353
f 352/352/352 354/354/354 351/351/351
f 355/355/355 351/351/351 354/354/354
f 355/355/355 356/356/356 351/351/351
f 357/357/357 351/351/351 356/356/356
f 358/358/358 357/357/357 356/356/356
f 357/357/357 341/341/341 351/351/351
f 341/341/341 357/357/357 359/359/359
f 360/360/360 359/359/359 357/357/357
f 341/341/341 359/359/359 336/336/336
f 345/345/345 336/336/336 359/359/359
f 361/361/361 360/360/360 357/357/357
f 364/364/364 363/363/363 362/362/362
f 362/362/362 366/366/366 365/365/365
f 368/368/368 367/367/367 366/366/366
f 368/368/368 366/366/366 369/369/369
f 366/366/366 329/329/329 369/369/369
f 370/370/370 329/329/329 366/366/366
f 331/331/331 369/369/369 329/329/329
f 369/369/369 331/331/331 347/347/347
f 332/332/332 347/347/347 331/331/331
f 372/372/372 371/371/371 366/366/366
f 373/373/373 371/371/371 372/372/372
f 374/374/374 325/325/325 329/329/329
f 325/325/325 374/374/374 375/375/375
f 327/327/327 325/325/325 375/375/375
f 378/378/378 377/377/377 376/376/376
f 379/379/379 376/376/376 377/377/377
f 376/376/376 379/379/379 380/380/380
f 381/381/381 380/380/380 379/379/379
f 382/382/382 378/378/378 376/376/376
f 382/382/382 383/383/383 378/378/378
f 384/384/384 382/382/382 376/376/376
f 384/384/384 376/376/376 380/380/380
f 381/381/381 385/385/385 380/380/380
f 386/386/386 380/380/380 385/385/385
f 384/384/384 380/380/380 387/387/387
f 386/386/386 387/387/387 380/380/380
f 377/377/377 378/378/378 388/388/388
f 378/378/378 389/389/389 388/388/388
f 383/383/383 389/389/389 378/378/378
f 390/390/390 388/388/388 389/389/389
f 377/377/377 388/388/388 391/391/391
f 377/377/377 391/391/391 379/379/379
f 392/392/392 391/391/391 388/388/388
f 391/391/391 392/392/392 393/393/393
f 394/394/394 393/393/393 392/392/392
f 394/394/394 395/395/395 393/393/393
f 396/396/396 393/393/393 395/395/395
f 396/396/396 397/397/397 393/393/393
f 398/398/398 393/393/393 397/397/397
f 397/397/397 399/399/399 398/398/398
f 400/400/400 398/398/398 399/399/399
f 398/398/398 400/400/400 401/401/401
f 398/398/398 401/401/401 393/393/393
f 391/391/391 393/393/393 401/401/401
f 402/402/402 401/401/401 400/400/400
f 400/400/400 399/399/399 403/403/403
f 404/404/404 403/403/403 399/399/399
f 396/396/396 405/405/405 397/397/397
f 406/406/406 397/397/397 405/405/405
f 397/397/397 406/406/406 407/407/407
f 407/407/407 399/399/399 397/397/397
f 399/399/399 407/407/407 408/408/408
f 405/405/405 396/396/396 409/409/409
f 395/395/395 409/409/409 396/396/396
f 395/395/395 410/410/410 409/409/409
f 411/411/411 409/409/409 410/410/410
f 401/401/401 402/402/402 379/379/379
f 401/401/401 379/379/379 391/391/391
f 381/381/381 379/379/379 402/402/402
f 403/403/403 412/412/412 400/400/400
f 402/402/402 400/400/400 412/412/412
f 413/413/413 402/402/402 412/412/412
f 381/381/381 402/402/402 413/413/413
f 413/413/413 385/385/385 381/381/381
f 403/403/403 414/414/414 412/412/412
f 403/403/403 404/404/404 414/414/414
f 415/415/415 412/412/412 414/414/414
f 412/412/412 415/415/415 416/416/416
f 415/415/415 414/414/414 417/417/417
f 418/418/418 417/417/417 414/414/414
f 418/418/418 414/414/414 419/419/419
f 420/420/420 419/419/419 414/414/414
f 420/420/420 421/421/421 419/419/419
f 420/420/420 414/414/414 404/404/404
f 404/404/404 422/422/422 420/420/420
f 423/423/423 420/420/420 422/422/422
f 404/404/404 399/399/399 422/422/422
f 408/408/408 422/422/422 399/399/399
f 423/423/423 424/424/424 420/420/420
f 427/427/427 426/426/426 425/425/425
f 425/425/425 429/429/429 428/428/428
f 431/431/431 428/428/428 430/430/430
f 428/428/428 431/431/431 432/432/432
f 428/428/428 432/432/432 392/392/392
f 392/392/392 433/433/433 428/428/428
f 394/394/394 392/392/392 432/432/432
f 432/432/432 410/410/410 394/394/394
f 395/395/395 394/394/394 410/410/410
f 435/435/435 434/434/434 428/428/428
f 435/435/435 436/436/436 434/434/434
f 388/388/388 437/437/437 392/392/392
f 437/437/437 388/388/388 438/438/438
f 388/388/388 390/390/390 438/438/438
f 441/441/441 440/440/440 439/439/439
f 440/440/440 442/442/442 439/439/439
f 443/443/443 439/439/439 442/442/442
f 441/441/441 444/444/444 440/440/440
f 440/440/440 445/445/445 442/442/442
f 440/440/440 446/446/446 445/445/445
f 440/440/440 444/444/444 446/446/446
f 447/447/447 446/446/446 444/444/444
f 439/439/439 448/448/448 441/441/441
f 449/449/449 441/441/441 448/448/448
f 450/450/450 441/441/441 449/449/449
f 444/444/444 441/441/441 451/451/451
f 450/450/450 451/451/451 441/441/441
f 450/450/450 452/452/452 451/451/451
f 453/453/453 451/451/451 452/452/452
f 447/447/447 444/444/444 454/454/454
f 451/451/451 454/454/454 444/444/444
f 451/451/451 453/453/453 454/454/454
f 455/455/455 454/454/454 453/453/453
f 454/454/454 455/455/455 456/456/456
f 457/457/457 456/456/456 455/455/455
f 454/454/454 458/458/458 447/447/447
f 459/459/459 447/447/447 458/458/458
f 447/447/447 459/459/459 446/446/446
f 460/460/460 446/446/446 459/459/459
f 445/445/445 446/446/446 461/461/461
f 460/460/460 461/461/461 446/446/446
f 461/461/461 462/462/462 445/445/445
f 464/464/464 461/461/461 463/463/463
f 466/466/466 465/465/465 445/445/445
f 462/462/462 467/467/467 465/465/465
f 468/468/468 465/465/465 467/467/467
f 445/445/445 465/465/465 442/442/442
f 469/469/469 442/442/442 465/465/465
f 468/468/468 469/469/469 465/465/465
f 442/442/442 469/469/469 443/443/443
f 470/470/470 443/443/443 469/469/469
f 470/470/470 469/469/469 471/471/471
f 468/468/468 471/471/471 469/469/469
f 470/470/470 471/471/471 472/472/472
f 473/473/473 472/472/472 471/471/471
f 474/474/474 443/443/443 472/472/472
f 443/443/443 474/474/474 439/439/439
f 448/448/448 439/439/439 474/474/474
f 470/470/470 475/475/475 443/443/443
f 477/477/477 476/476/476 474/474/474
f 478/478/478 474/474/474 476/476/476
f 478/478/478 476/476/476 479/479/479
f 480/480/480 479/479/479 476/476/476
f 477/477/477 474/474/474 481/481/481
f 482/482/482 481/481/481 474/474/474
f 485/485/485 484/484/484 483/483/483
f 488/488/488 487/487/487 486/486/486
f 489/489/489 486/486/486 487/487/487
f 488/488/488 486/486/486 490/490/490
f 491/491/491 490/490/490 486/486/486
f 494/494/494 493/493/493 492/492/492
f 493/493/493 495/495/495 492/492/492
f 498/498/498 497/497/497 496/496/496
f 499/499/499 496/496/496 497/497/497
f 499/499/499 501/501/501 500/500/500
f 502/502/502 500/500/500 501/501/501
f 503/503/503 502/502/502 501/501/501
f 503/503/503 504/504/504 502/502/502
f 505/505/505 502/502/502 504/504/504
f 507/507/507 497/497/497 506/506/506
f 507/507/507 506/506/506 508/508/508
f 511/511/511 510/510/510 509/509/509
f 514/514/514 513/513/513 512/512/512
f 514/514/514 512/512/512 515/515/515
f 516/516/516 515/515/515 512/512/512
f 517/517/517 513/513/513 514/514/514
f 518/518/518 514/514/514 515/515/515
f 519/519/519 514/514/514 518/518/518
f 514/514/514 519/519/519 517/517/517
f 520/520/520 517/517/517 519/519/519
f 512/512/512 513/513/513 521/521/521
f 522/522/522 521/521/521 513/513/513
f 513/513/513 523/523/523 522/522/522
f 523/523/523 513/513/513 524/524/524
f 517/517/517 524/524/524 513/513/513
f 523/523/523 524/524/524 525/525/525
f 526/526/526 525/525/525 524/524/524
f 524/524/524 517/517/517 527/527/527
f 520/520/520 527/527/527 517/517/517
f 524/524/524 527/527/527 526/526/526
f 528/528/528 526/526/526 527/527/527
f 527/527/527 529/529/529 528/528/528
f 530/530/530 528/528/528 529/529/529
f 527/527/527 520/520/520 531/531/531
f 532/532/532 531/531/531 520/520/520
f 520/520/520 519/519/519 532/532/532
f 533/533/533 532/532/532 519/519/519
f 533/533/533 519/519/519 534/534/534
f 518/518/518 534/534/534 519/519/519
f 535/535/535 534/534/534 518/518/518
f 537/537/537 536/536/536 534/534/534
f 539/539/539 538/538/538 518/518/518
f 535/535/535 539/539/539 540/540/540
f 541/541/541 540/540/540 539/539/539
f 518/518/518 515/515/515 539/539/539
f 542/542/542 539/539/539 515/515/515
f 542/542/542 541/541/541 539/539/539
f 515/515/515 516/516/516 542/542/542
f 543/543/543 542/542/542 516/516/516
f 541/541/541 542/542/542 544/544/544
f 543/543/543 544/544/544 542/542/542
f 543/543/543 545/545/545 544/544/544
f 546/546/546 544/544/544 545/545/545
f 543/543/543 516/516/516 547/547/547
f 548/548/548 545/545/545 516/516/516
f 516/516/516 512/512/512 548/548/548
f 521/521/521 548/548/548 512/512/512
f 550/550/550 549/549/549 548/548/548
f 550/550/550 551/551/551 549/549/549
f 552/552/552 549/549/549 551/551/551
f 553/553/553 548/548/548 549/549/549
f 553/553/553 554/554/554 548/548/548
f 555/555/555 548/548/548 554/554/554
f 558/558/558 557/557/557 556/556/556
f 561/561/561 560/560/560 559/559/559
f 562/562/562 559/559/559 560/560/560
f 562/562/562 563/563/563 559/559/559
f 564/564/564 559/559/559 563/563/563
f 567/567/567 566/566/566 565/565/565
f 567/567/567 565/565/565 568/568/568
f 571/571/571 570/570/570 569/569/569
f 572/572/572 569/569/569 570/570/570
f 571/571/571 574/574/574 573/573/573
f 575/575/575 573/573/573 574/574/574
f 575/575/575 576/576/576 573/573/573
f 576/576/576 575/575/575 577/577/577
f 578/578/578 577/577/577 575/575/575
f 570/570/570 580/580/580 579/579/579
f 580/580/580 581/581/581 579/579/579
f 584/584/584 583/583/583 582/582/582
