g blue_asn_m_pve_3_boots
v -0.0871679932 0.16632247 0.588045478
v -0.065032497 0.10523428 0.577589691
v -0.0746778101 0.105693936 0.598793626
v -0.0781686008 0.166841745 0.571028709
v -0.081438683 0.0426758863 0.590484798
v -0.0871331394 0.0529037789 0.610045433
v -0.111238211 0.0193154905 0.622789502
v -0.107818827 0.00419314066 0.601854622
v -0.148946971 -0.00901242252 0.621163189
v -0.145118952 -0.0157743227 0.607349575
v -0.103572696 0.0599325486 0.570592701
v -0.0779437721 0.108037546 0.560482025
v -0.0781686008 0.166841745 0.571028709
v -0.0966427624 0.155799121 0.560769856
v -0.0877408385 0.11511974 0.49442625
v -0.0997919515 0.175188676 0.518634081
v -0.0723078027 0.152919665 0.491003662
v -0.0908766761 0.192108989 0.506083965
v -0.0724335089 0.122172318 0.480871528
v -0.0891030952 0.14634423 0.470786929
v -0.103196532 0.191991463 0.495176464
v -0.0908766761 0.192108989 0.506083965
v -0.0771308988 0.126830056 0.465804577
v -0.12043307 0.064731732 0.431738764
v -0.145081028 0.0840416625 0.370458871
v -0.0817196369 0.135820165 0.386556357
v -0.0872214809 0.135401562 0.347758353
v -0.177219182 0.0812086314 0.258457512
v -0.232404411 0.044715669 0.285243183
v -0.243861467 0.0399466865 0.175929606
v -0.182654053 0.0632000417 0.146794185
v -0.13682358 0.118326187 0.232360572
v -0.145953655 0.125908718 0.12945281
v -0.227280632 0.038714394 0.151571333
v -0.194004744 0.0702405497 0.126234084
v -0.161763474 0.0918803513 0.10904438
v -0.151588529 0.112441503 0.106490165
v -0.169252247 0.115113638 0.0905643031
v -0.191500381 0.120800026 0.0951913968
v -0.219740704 0.0318671651 0.389941663
v -0.284616172 0.0883380324 0.385136604
v -0.284909725 0.0943113416 0.284255862
v -0.287991345 0.0984852836 0.191971302
v -0.315617949 0.156335011 0.204859421
v -0.328436315 0.150858209 0.276993185
v -0.321449757 0.103519402 0.137097463
v -0.329922169 0.166089356 0.126736805
v -0.320896834 0.159930468 0.1080525
v -0.275148571 0.0532430783 0.174871817
v -0.344554633 0.179828674 0.375890106
v -0.310036778 0.17001453 0.512448311
v -0.286093503 0.0730339363 0.468934089
v -0.304843903 0.110354103 0.504203618
v -0.284122378 0.110867567 0.509473622
v -0.250190586 0.0549798757 0.599392712
v -0.274019271 0.114971861 0.586191237
v -0.284512609 0.114681162 0.607634008
v -0.258302629 0.043999631 0.628447175
v -0.221777916 -0.0061202799 0.629143178
v -0.242375582 0.0498219468 0.643278658
v -0.208847895 0.00356735103 0.636673927
v -0.26805532 0.112361208 0.626693845
v -0.264534712 0.171838835 0.608751714
v -0.278641015 0.17205736 0.595511556
v -0.275940597 0.181101903 0.538662553
v -0.26636523 0.165135831 0.581911087
v -0.278641015 0.17205736 0.595511556
v -0.266389638 0.0474946313 0.466350555
v -0.289800435 0.183381304 0.537317276
v -0.211796165 0.00765628973 0.474321723
v -0.235659227 0.0194221996 0.494612187
v -0.1869082 -0.0235721208 0.594449341
v -0.179465115 -0.00475470303 0.607825816
v -0.180193484 0.00995933171 0.4875094
v -0.136277363 0.0195824914 0.585762858
v -0.150753975 0.0361744091 0.440137327
v -0.179465115 -0.00475470303 0.607825816
v -0.148946971 -0.00901242252 0.621163189
v -0.208847895 0.00356735103 0.636673927
v -0.179465115 -0.00475470303 0.607825816
v -0.124481112 0.155187264 0.500316441
v -0.103196532 0.191991463 0.495176464
v -0.11848481 0.194270954 0.509607971
v -0.0861665457 0.156701967 0.389989495
v -0.0890890509 0.160949558 0.341367185
v -0.142297402 0.140292123 0.225573346
v -0.103658691 0.15339984 0.572976887
v -0.15569368 0.19408828 0.583110511
v -0.0966427624 0.155799121 0.560769856
v -0.0997919515 0.175188676 0.518634081
v -0.11848481 0.194270954 0.509607971
v -0.11848481 0.194270954 0.509607971
v -0.18023771 0.216812819 0.528011978
v -0.185682014 0.201451674 0.522240579
v -0.124481112 0.155187264 0.500316441
v -0.15870896 0.232689962 0.398798406
v -0.228374854 0.242694303 0.410022467
v -0.271353275 0.174434796 0.514920473
v -0.259042054 0.194919109 0.534692764
v -0.216939762 0.192589045 0.594788551
v -0.15569368 0.19408828 0.583110511
v -0.26636523 0.165135831 0.581911087
v -0.252266467 0.173469514 0.591067433
v -0.298885047 0.193947032 0.493874848
v -0.23588945 0.211655676 0.34158209
v -0.173564494 0.197999954 0.334412605
v -0.201378569 0.186542511 0.234488487
v -0.245585918 0.195149019 0.240871251
v -0.210898802 0.192001432 0.134519592
v -0.178570539 0.14342086 0.225756541
v -0.192055643 0.126369402 0.108463027
v -0.25753364 0.195395216 0.137771919
v -0.303899974 0.172534913 0.20670706
v -0.31381765 0.177552328 0.270382047
v -0.297610074 0.172040492 0.137081966
v -0.331925929 0.208666965 0.370057136
v -0.142297402 0.140292123 0.225573346
v -0.145953655 0.125908718 0.12945281
v -0.0890890509 0.160949558 0.341367185
v -0.0861665457 0.156701967 0.389989495
v -0.297494501 0.147224754 0.11090377
v -0.329922169 0.166089356 0.126736805
v -0.315399468 0.178724721 0.141260162
v -0.297610074 0.172040492 0.137081966
v -0.289761245 0.189328939 0.517771304
v -0.289800435 0.183381304 0.537317276
v -0.0891030952 0.14634423 0.470786929
v -0.298885047 0.193947032 0.493874848
v -0.252266467 0.173469514 0.591067433
v -0.255356103 0.156750858 0.606450796
v -0.264534712 0.171838835 0.608751714
v -0.255356103 0.156750858 0.606450796
v -0.264534712 0.171838835 0.608751714
v -0.264725387 0.210460275 0.0847493634
v -0.200344428 0.216199353 0
v -0.207371265 0.202199459 0.0810872614
v -0.282926619 0.226238742 0
v -0.25753364 0.195395216 0.137771919
v -0.210898802 0.192001432 0.134519592
v -0.297494501 0.147224754 0.11090377
v -0.325358868 0.163783759 0
v -0.347986847 0.0868983343 0
v -0.305507839 0.102242954 0.11833331
v -0.328236729 0.0302991401 0.0873330012
v -0.35231939 0.0384517871 0.0484992005
v -0.373881221 0.0360189863 0
v -0.37307024 0.0258147288 0.0522259213
v -0.361500055 0.00590297906 0.0424661376
v -0.347014993 0.01256618 0.0925423577
v -0.342121154 -0.00953182578 0.0700144097
v -0.350272089 -0.055436682 0.0493088327
v -0.289307117 -0.00567805348 0.118490987
v -0.263351619 0.040172413 0.156055808
v -0.289454579 -0.0251357909 0.102881439
v -0.375475407 -0.0315141454 0
v -0.335853159 -0.104343213 0
v -0.284196258 -0.13445282 0.0547333509
v -0.289200664 -0.139512703 0
v -0.245953515 -0.124304414 0
v -0.275348902 -0.0834600329 0.0873947442
v -0.263965577 -0.0146154165 0.119015895
v -0.240020588 -0.0336418599 0.105736531
v -0.202960849 -0.0695192963 0.0547333881
v -0.186093092 -0.0663406327 0
v -0.192191735 -0.0287032034 0.0686144158
v -0.175048485 0.012123785 0
v -0.232374117 -0.0159913432 0.117441423
v -0.227280632 0.038714394 0.151571333
v -0.197238162 0.00801786128 0.0913006216
v -0.188287094 -0.0116482293 0.0948904008
v -0.184371546 0.0115755247 0.0580623373
v -0.16674532 -0.00397317391 0.0605230741
v -0.189925626 0.0602935664 0
v -0.194004744 0.0702405497 0.126234084
v -0.16674532 -0.00397317391 0.0605230741
v -0.16674532 -0.00397317391 0.0605230741
v -0.191500381 0.120800026 0.0951913968
v -0.177369669 0.119183525 0
v -0.207371265 0.202199459 0.0810872614
v -0.200344428 0.216199353 0
v -0.210898802 0.192001432 0.134519592
v -0.192055643 0.126369402 0.108463027
v -0.243861467 0.0399466865 0.175929606
v -0.243861467 0.0399466865 0.175929606
v -0.263351619 0.040172413 0.156055808
v -0.305507839 0.102242954 0.11833331
v -0.297494501 0.147224754 0.11090377
v -0.185231432 0.129478842 0.111590669
v -0.191500381 0.120800026 0.0951913968
v -0.191500381 0.120800026 0.0951913968
v -0.192055643 0.126369402 0.108463027
v -0.185231432 0.129478842 0.111590669
v -0.192055643 0.126369402 0.108463027
v -0.164608404 0.14406237 0.128066495
v -0.145953655 0.125908718 0.12945281
v -0.151588529 0.112441503 0.106490165
v 0.0871679932 0.16632247 0.588045478
v 0.065032497 0.10523428 0.577589691
v 0.0781686008 0.166841745 0.571028709
v 0.0871679932 0.16632247 0.588045478
v 0.0746778101 0.105693936 0.598793626
v 0.081438683 0.0426758863 0.590484798
v 0.0871331394 0.0529037789 0.610045433
v 0.111238211 0.0193154905 0.622789502
v 0.107818827 0.00419314066 0.601854622
v 0.148946971 -0.00901242252 0.621163189
v 0.145118952 -0.0157743227 0.607349575
v 0.103572696 0.0599325486 0.570592701
v 0.0779437721 0.108037546 0.560482025
v 0.0781686008 0.166841745 0.571028709
v 0.0966427624 0.155799121 0.560769856
v 0.0877408385 0.11511974 0.49442625
v 0.0997919515 0.175188676 0.518634081
v 0.0723078027 0.152919665 0.491003662
v 0.0908766761 0.192108989 0.506083965
v 0.0724335089 0.122172318 0.480871528
v 0.0891030952 0.14634423 0.470786929
v 0.103196532 0.191991463 0.495176464
v 0.0908766761 0.192108989 0.506083965
v 0.0771308988 0.126830056 0.465804577
v 0.12043307 0.064731732 0.431738764
v 0.145081028 0.0840416625 0.370458871
v 0.0817196369 0.135820165 0.386556357
v 0.0872214809 0.135401562 0.347758353
v 0.177219182 0.0812086314 0.258457512
v 0.232404411 0.044715669 0.285243183
v 0.243861467 0.0399466865 0.175929606
v 0.182654053 0.0632000417 0.146794185
v 0.13682358 0.118326187 0.232360572
v 0.145953655 0.125908718 0.12945281
v 0.227280632 0.038714394 0.151571333
v 0.194004744 0.0702405497 0.126234084
v 0.161763474 0.0918803513 0.10904438
v 0.151588529 0.112441503 0.106490165
v 0.191500381 0.120800026 0.0951913968
v 0.169252247 0.115113638 0.0905643031
v 0.151588529 0.112441503 0.106490165
v 0.219740704 0.0318671651 0.389941663
v 0.284616172 0.0883380324 0.385136604
v 0.284909725 0.0943113416 0.284255862
v 0.287991345 0.0984852836 0.191971302
v 0.315617949 0.156335011 0.204859421
v 0.328436315 0.150858209 0.276993185
v 0.321449757 0.103519402 0.137097463
v 0.329922169 0.166089356 0.126736805
v 0.320896834 0.159930468 0.1080525
v 0.275148571 0.0532430783 0.174871817
v 0.344554633 0.179828674 0.375890106
v 0.310036778 0.17001453 0.512448311
v 0.286093503 0.0730339363 0.468934089
v 0.304843903 0.110354103 0.504203618
v 0.284122378 0.110867567 0.509473622
v 0.250190586 0.0549798757 0.599392712
v 0.274019271 0.114971861 0.586191237
v 0.284512609 0.114681162 0.607634008
v 0.258302629 0.043999631 0.628447175
v 0.221777916 -0.0061202799 0.629143178
v 0.242375582 0.0498219468 0.643278658
v 0.208847895 0.00356735103 0.636673927
v 0.26805532 0.112361208 0.626693845
v 0.264534712 0.171838835 0.608751714
v 0.275940597 0.181101903 0.538662553
v 0.26636523 0.165135831 0.581911087
v 0.278641015 0.17205736 0.595511556
v 0.266389638 0.0474946313 0.466350555
v 0.289800435 0.183381304 0.537317276
v 0.235659227 0.0194221996 0.494612187
v 0.211796165 0.00765628973 0.474321723
v 0.1869082 -0.0235721208 0.594449341
v 0.179465115 -0.00475470303 0.607825816
v 0.208847895 0.00356735103 0.636673927
v 0.180193484 0.00995933171 0.4875094
v 0.136277363 0.0195824914 0.585762858
v 0.150753975 0.0361744091 0.440137327
v 0.179465115 -0.00475470303 0.607825816
v 0.148946971 -0.00901242252 0.621163189
v 0.264534712 0.171838835 0.608751714
v 0.278641015 0.17205736 0.595511556
v 0.124481112 0.155187264 0.500316441
v 0.103196532 0.191991463 0.495176464
v 0.11848481 0.194270954 0.509607971
v 0.0861665457 0.156701967 0.389989495
v 0.0890890509 0.160949558 0.341367185
v 0.142297402 0.140292123 0.225573346
v 0.103658691 0.15339984 0.572976887
v 0.0966427624 0.155799121 0.560769856
v 0.15569368 0.19408828 0.583110511
v 0.0997919515 0.175188676 0.518634081
v 0.11848481 0.194270954 0.509607971
v 0.11848481 0.194270954 0.509607971
v 0.18023771 0.216812819 0.528011978
v 0.185682014 0.201451674 0.522240579
v 0.124481112 0.155187264 0.500316441
v 0.15870896 0.232689962 0.398798406
v 0.228374854 0.242694303 0.410022467
v 0.271353275 0.174434796 0.514920473
v 0.259042054 0.194919109 0.534692764
v 0.216939762 0.192589045 0.594788551
v 0.15569368 0.19408828 0.583110511
v 0.26636523 0.165135831 0.581911087
v 0.252266467 0.173469514 0.591067433
v 0.298885047 0.193947032 0.493874848
v 0.23588945 0.211655676 0.34158209
v 0.173564494 0.197999954 0.334412605
v 0.201378569 0.186542511 0.234488487
v 0.245585918 0.195149019 0.240871251
v 0.210898802 0.192001432 0.134519592
v 0.178570539 0.14342086 0.225756541
v 0.192055643 0.126369402 0.108463027
v 0.25753364 0.195395216 0.137771919
v 0.303899974 0.172534913 0.20670706
v 0.31381765 0.177552328 0.270382047
v 0.297610074 0.172040492 0.137081966
v 0.331925929 0.208666965 0.370057136
v 0.142297402 0.140292123 0.225573346
v 0.145953655 0.125908718 0.12945281
v 0.0890890509 0.160949558 0.341367185
v 0.0861665457 0.156701967 0.389989495
v 0.297494501 0.147224754 0.11090377
v 0.329922169 0.166089356 0.126736805
v 0.315399468 0.178724721 0.141260162
v 0.297610074 0.172040492 0.137081966
v 0.289761245 0.189328939 0.517771304
v 0.289800435 0.183381304 0.537317276
v 0.0891030952 0.14634423 0.470786929
v 0.289800435 0.183381304 0.537317276
v 0.252266467 0.173469514 0.591067433
v 0.264534712 0.171838835 0.608751714
v 0.255356103 0.156750858 0.606450796
v 0.255356103 0.156750858 0.606450796
v 0.264725387 0.210460275 0.0847493634
v 0.200344428 0.216199353 0
v 0.282926619 0.226238742 0
v 0.207371265 0.202199459 0.0810872614
v 0.25753364 0.195395216 0.137771919
v 0.210898802 0.192001432 0.134519592
v 0.297494501 0.147224754 0.11090377
v 0.325358868 0.163783759 0
v 0.347986847 0.0868983343 0
v 0.305507839 0.102242954 0.11833331
v 0.328236729 0.0302991401 0.0873330012
v 0.35231939 0.0384517871 0.0484992005
v 0.373881221 0.0360189863 0
v 0.347014993 0.01256618 0.0925423577
v 0.37307024 0.0258147288 0.0522259213
v 0.373881221 0.0360189863 0
v 0.361500055 0.00590297906 0.0424661376
v 0.342121154 -0.00953182578 0.0700144097
v 0.350272089 -0.055436682 0.0493088327
v 0.289307117 -0.00567805348 0.118490987
v 0.263351619 0.040172413 0.156055808
v 0.289454579 -0.0251357909 0.102881439
v 0.375475407 -0.0315141454 0
v 0.335853159 -0.104343213 0
v 0.284196258 -0.13445282 0.0547333509
v 0.289200664 -0.139512703 0
v 0.245953515 -0.124304414 0
v 0.275348902 -0.0834600329 0.0873947442
v 0.263965577 -0.0146154165 0.119015895
v 0.240020588 -0.0336418599 0.105736531
v 0.202960849 -0.0695192963 0.0547333881
v 0.186093092 -0.0663406327 0
v 0.192191735 -0.0287032034 0.0686144158
v 0.175048485 0.012123785 0
v 0.232374117 -0.0159913432 0.117441423
v 0.227280632 0.038714394 0.151571333
v 0.197238162 0.00801786128 0.0913006216
v 0.188287094 -0.0116482293 0.0948904008
v 0.184371546 0.0115755247 0.0580623373
v 0.16674532 -0.00397317391 0.0605230741
v 0.189925626 0.0602935664 0
v 0.194004744 0.0702405497 0.126234084
v 0.16674532 -0.00397317391 0.0605230741
v 0.16674532 -0.00397317391 0.0605230741
v 0.188287094 -0.0116482293 0.0948904008
v 0.191500381 0.120800026 0.0951913968
v 0.177369669 0.119183525 0
v 0.207371265 0.202199459 0.0810872614
v 0.200344428 0.216199353 0
v 0.210898802 0.192001432 0.134519592
v 0.192055643 0.126369402 0.108463027
v 0.243861467 0.0399466865 0.175929606
v 0.243861467 0.0399466865 0.175929606
v 0.263351619 0.040172413 0.156055808
v 0.305507839 0.102242954 0.11833331
v 0.320896834 0.159930468 0.1080525
v 0.297494501 0.147224754 0.11090377
v 0.185231432 0.129478842 0.111590669
v 0.191500381 0.120800026 0.0951913968
v 0.192055643 0.126369402 0.108463027
v 0.191500381 0.120800026 0.0951913968
v 0.185231432 0.129478842 0.111590669
v 0.192055643 0.126369402 0.108463027
v 0.164608404 0.14406237 0.128066495
v 0.145953655 0.125908718 0.12945281
v 0.151588529 0.112441503 0.106490165
v 0.289761245 0.189328939 0.517771304
v 0.298885047 0.193947032 0.493874848
v -0.102648109 0.153154641 0.581866503
v -0.0746778101 0.105693936 0.598793626
v -0.101820573 0.103076026 0.577395678
v -0.103658691 0.15339984 0.572976887
v -0.115297966 0.0644309595 0.594917417
v -0.125082999 0.125742048 0.572186053
v -0.140004978 0.157738954 0.578870952
v -0.123315014 0.0805489868 0.567225039
v -0.136208668 0.029514879 0.607657552
v -0.111238211 0.0193154905 0.622789502
v -0.0871331394 0.0529037789 0.610045433
v -0.0746778101 0.105693936 0.598793626
v -0.0871679932 0.16632247 0.588045478
v -0.148946971 -0.00901242252 0.621163189
v -0.179465115 -0.00475470303 0.607825816
v -0.15668501 0.0541790091 0.573614061
v -0.183104992 0.0316150151 0.576600015
v -0.15569368 0.19408828 0.583110511
v -0.166896984 0.171465963 0.586492956
v -0.201812983 0.165710986 0.594015956
v -0.216939762 0.192589045 0.594788551
v -0.227213964 0.14670898 0.59799695
v -0.207828015 0.034326002 0.582181096
v -0.239817038 0.116187967 0.597847998
v -0.255356103 0.156750858 0.606450796
v -0.216939762 0.192589045 0.594788551
v -0.242375582 0.0498219468 0.643278658
v -0.26805532 0.112361208 0.626693845
v -0.224109665 0.0619357303 0.614672244
v -0.208847895 0.00356735103 0.636673927
v -0.203140765 0.0228097681 0.613140643
v -0.255356103 0.156750858 0.606450796
v -0.237655997 0.0702930167 0.592724979
v -0.179465115 -0.00475470303 0.607825816
v -0.200344428 0.216199353 0
v -0.325358868 0.163783759 0
v -0.177369669 0.119183525 0
v -0.282926619 0.226238742 0
v -0.189925626 0.0602935664 0
v -0.347986847 0.0868983343 0
v -0.373881221 0.0360189863 0
v -0.175048485 0.012123785 0
v -0.375475407 -0.0315141454 0
v -0.186093092 -0.0663406327 0
v -0.245953515 -0.124304414 0
v -0.335853159 -0.104343213 0
v -0.289200664 -0.139512703 0
v -0.136144102 0.238171577 0.58061254
v -0.0781686008 0.166841745 0.571028709
v -0.0871679932 0.16632247 0.588045478
v -0.102648109 0.153154641 0.581866503
v -0.136144102 0.238171577 0.58061254
v -0.0871679932 0.16632247 0.588045478
v -0.103658691 0.15339984 0.572976887
v -0.136144102 0.238171577 0.58061254
v -0.278641015 0.17205736 0.595511556
v -0.235684544 0.239402696 0.586948872
v -0.264534712 0.171838835 0.608751714
v -0.103658691 0.15339984 0.572976887
v -0.0966427624 0.155799121 0.560769856
v -0.136144102 0.238171577 0.58061254
v -0.136144102 0.238171577 0.58061254
v -0.0781686008 0.166841745 0.571028709
v -0.103196532 0.191991463 0.495176464
v -0.0908766761 0.192108989 0.506083965
v -0.131961763 0.244937822 0.532767236
v -0.0908766761 0.192108989 0.506083965
v -0.0997919515 0.175188676 0.518634081
v -0.131961763 0.244937822 0.532767236
v -0.235684544 0.239402696 0.586948872
v -0.252266467 0.173469514 0.591067433
v -0.264534712 0.171838835 0.608751714
v -0.131961763 0.244937822 0.532767236
v -0.11848481 0.194270954 0.509607971
v -0.103196532 0.191991463 0.495176464
v -0.289761245 0.189328939 0.517771304
v -0.241973221 0.240535632 0.543790102
v -0.289800435 0.183381304 0.537317276
v -0.235684544 0.239402696 0.586948872
v -0.26636523 0.165135831 0.581911087
v -0.252266467 0.173469514 0.591067433
v -0.26636523 0.165135831 0.581911087
v -0.235684544 0.239402696 0.586948872
v -0.278641015 0.17205736 0.595511556
v -0.271353275 0.174434796 0.514920473
v -0.241973221 0.240535632 0.543790102
v -0.289761245 0.189328939 0.517771304
v -0.259042054 0.194919109 0.534692764
v -0.289800435 0.183381304 0.537317276
v -0.241973221 0.240535632 0.543790102
v -0.259042054 0.194919109 0.534692764
v -0.271353275 0.174434796 0.514920473
v -0.289800435 0.183381304 0.537317276
v -0.259042054 0.194919109 0.534692764
v -0.275940597 0.181101903 0.538662553
v -0.302746147 0.24708496 0.139992565
v -0.297610074 0.172040492 0.137081966
v -0.315399468 0.178724721 0.141260162
v -0.329922169 0.166089356 0.126736805
v -0.302746147 0.24708496 0.139992565
v -0.320896834 0.159930468 0.1080525
v -0.302746147 0.24708496 0.139992565
v -0.329922169 0.166089356 0.126736805
v -0.297494501 0.147224754 0.11090377
v -0.302746147 0.24708496 0.139992565
v -0.297494501 0.147224754 0.11090377
v -0.297610074 0.172040492 0.137081966
v -0.302746147 0.24708496 0.139992565
v -0.151588529 0.112441503 0.106490165
v -0.164608404 0.14406237 0.128066495
v -0.166755021 0.225939497 0.128160596
v -0.166755021 0.225939497 0.128160596
v -0.169252247 0.115113638 0.0905643031
v -0.151588529 0.112441503 0.106490165
v -0.185231432 0.129478842 0.111590669
v -0.166755021 0.225939497 0.128160596
v -0.164608404 0.14406237 0.128066495
v -0.185231432 0.129478842 0.111590669
v -0.166755021 0.225939497 0.128160596
v -0.131961763 0.244937822 0.532767236
v -0.0997919515 0.175188676 0.518634081
v -0.11848481 0.194270954 0.509607971
v 0.102648109 0.153154641 0.581866503
v 0.0746778101 0.105693936 0.598793626
v 0.0871679932 0.16632247 0.588045478
v 0.0746778101 0.105693936 0.598793626
v 0.101820573 0.103076026 0.577395678
v 0.103658691 0.15339984 0.572976887
v 0.115297966 0.0644309595 0.594917417
v 0.0871331394 0.0529037789 0.610045433
v 0.125082999 0.125742048 0.572186053
v 0.111238211 0.0193154905 0.622789502
v 0.136208668 0.029514879 0.607657552
v 0.148946971 -0.00901242252 0.621163189
v 0.179465115 -0.00475470303 0.607825816
v 0.15668501 0.0541790091 0.573614061
v 0.183104992 0.0316150151 0.576600015
v 0.140004978 0.157738954 0.578870952
v 0.123315014 0.0805489868 0.567225039
v 0.15569368 0.19408828 0.583110511
v 0.166896984 0.171465963 0.586492956
v 0.201812983 0.165710986 0.594015956
v 0.216939762 0.192589045 0.594788551
v 0.227213964 0.14670898 0.59799695
v 0.255356103 0.156750858 0.606450796
v 0.239817038 0.116187967 0.597847998
v 0.207828015 0.034326002 0.582181096
v 0.242375582 0.0498219468 0.643278658
v 0.224109665 0.0619357303 0.614672244
v 0.208847895 0.00356735103 0.636673927
v 0.203140765 0.0228097681 0.613140643
v 0.26805532 0.112361208 0.626693845
v 0.255356103 0.156750858 0.606450796
v 0.237655997 0.0702930167 0.592724979
v 0.179465115 -0.00475470303 0.607825816
v 0.200344428 0.216199353 0
v 0.325358868 0.163783759 0
v 0.282926619 0.226238742 0
v 0.177369669 0.119183525 0
v 0.189925626 0.0602935664 0
v 0.347986847 0.0868983343 0
v 0.373881221 0.0360189863 0
v 0.175048485 0.012123785 0
v 0.375475407 -0.0315141454 0
v 0.186093092 -0.0663406327 0
v 0.245953515 -0.124304414 0
v 0.335853159 -0.104343213 0
v 0.289200664 -0.139512703 0
v 0.136144102 0.238171577 0.58061254
v 0.0871679932 0.16632247 0.588045478
v 0.0781686008 0.166841745 0.571028709
v 0.102648109 0.153154641 0.581866503
v 0.0871679932 0.16632247 0.588045478
v 0.136144102 0.238171577 0.58061254
v 0.103658691 0.15339984 0.572976887
v 0.136144102 0.238171577 0.58061254
v 0.278641015 0.17205736 0.595511556
v 0.264534712 0.171838835 0.608751714
v 0.235684544 0.239402696 0.586948872
v 0.103658691 0.15339984 0.572976887
v 0.136144102 0.238171577 0.58061254
v 0.0966427624 0.155799121 0.560769856
v 0.103196532 0.191991463 0.495176464
v 0.131961763 0.244937822 0.532767236
v 0.0908766761 0.192108989 0.506083965
v 0.0908766761 0.192108989 0.506083965
v 0.131961763 0.244937822 0.532767236
v 0.0997919515 0.175188676 0.518634081
v 0.136144102 0.238171577 0.58061254
v 0.0781686008 0.166841745 0.571028709
v 0.0966427624 0.155799121 0.560769856
v 0.235684544 0.239402696 0.586948872
v 0.264534712 0.171838835 0.608751714
v 0.252266467 0.173469514 0.591067433
v 0.131961763 0.244937822 0.532767236
v 0.103196532 0.191991463 0.495176464
v 0.11848481 0.194270954 0.509607971
v 0.289761245 0.189328939 0.517771304
v 0.289800435 0.183381304 0.537317276
v 0.241973221 0.240535632 0.543790102
v 0.235684544 0.239402696 0.586948872
v 0.252266467 0.173469514 0.591067433
v 0.26636523 0.165135831 0.581911087
v 0.26636523 0.165135831 0.581911087
v 0.278641015 0.17205736 0.595511556
v 0.235684544 0.239402696 0.586948872
v 0.271353275 0.174434796 0.514920473
v 0.289761245 0.189328939 0.517771304
v 0.241973221 0.240535632 0.543790102
v 0.259042054 0.194919109 0.534692764
v 0.289800435 0.183381304 0.537317276
v 0.275940597 0.181101903 0.538662553
v 0.289800435 0.183381304 0.537317276
v 0.259042054 0.194919109 0.534692764
v 0.241973221 0.240535632 0.543790102
v 0.259042054 0.194919109 0.534692764
v 0.271353275 0.174434796 0.514920473
v 0.302746147 0.24708496 0.139992565
v 0.315399468 0.178724721 0.141260162
v 0.297610074 0.172040492 0.137081966
v 0.329922169 0.166089356 0.126736805
v 0.302746147 0.24708496 0.139992565
v 0.320896834 0.159930468 0.1080525
v 0.329922169 0.166089356 0.126736805
v 0.302746147 0.24708496 0.139992565
v 0.297494501 0.147224754 0.11090377
v 0.302746147 0.24708496 0.139992565
v 0.297494501 0.147224754 0.11090377
v 0.302746147 0.24708496 0.139992565
v 0.297610074 0.172040492 0.137081966
v 0.151588529 0.112441503 0.106490165
v 0.166755021 0.225939497 0.128160596
v 0.164608404 0.14406237 0.128066495
v 0.166755021 0.225939497 0.128160596
v 0.151588529 0.112441503 0.106490165
v 0.169252247 0.115113638 0.0905643031
v 0.185231432 0.129478842 0.111590669
v 0.166755021 0.225939497 0.128160596
v 0.164608404 0.14406237 0.128066495
v 0.166755021 0.225939497 0.128160596
v 0.185231432 0.129478842 0.111590669
v 0.131961763 0.244937822 0.532767236
v 0.11848481 0.194270954 0.509607971
v 0.0997919515 0.175188676 0.518634081
vt 0.966436148 0.453416586
vt 0.91307503 0.456541657
vt 0.917626202 0.4738307
vt 0.961000741 0.440214753
vt 0.865798771 0.477425575
vt 0.875356734 0.493219376
vt 0.841779649 0.507658601
vt 0.832342565 0.489778996
vt 0.800020754 0.506289363
vt 0.799687564 0.492037654
vt 0.864300072 0.448648214
vt 0.910026968 0.437473536
vt 0.961000741 0.440214753
vt 0.951529682 0.42774713
vt 0.907262266 0.379800916
vt 0.963075936 0.394999266
vt 0.939136207 0.371855855
vt 0.975221634 0.380523443
vt 0.914860427 0.365309238
vt 0.936009943 0.352306962
vt 0.978606224 0.367830515
vt 0.975221634 0.380523443
vt 0.915513456 0.35299778
vt 0.848346055 0.331923485
vt 0.841307938 0.274672151
vt 0.911101758 0.28702414
vt 0.906575143 0.256356597
vt 0.823723614 0.177060425
vt 0.761480153 0.196308374
vt 0.762304246 0.101144373
vt 0.818563044 0.08276546
vt 0.877037704 0.155014515
vt 0.878983676 0.0668168664
vt 0.77484411 0.0790049434
vt 0.815480411 0.0628905892
vt 0.849024355 0.0534897484
vt 0.866399109 0.0482007898
vt 0.857013285 0.0299794711
vt 0.840609848 0.0191274919
vt 0.761690795 0.291487813
vt 0.692308128 0.275616288
vt 0.697153747 0.187281609
vt 0.697351873 0.109113097
vt 0.63384074 0.110810757
vt 0.634653389 0.172254145
vt 0.684304774 0.0590486564
vt 0.635731757 0.0427830853
vt 0.64313215 0.0276820101
vt 0.737237751 0.0919123888
vt 0.608293235 0.250053883
vt 0.596653521 0.363216519
vt 0.682463467 0.350146651
vt 0.642002404 0.366901994
vt 0.642243564 0.379541278
vt 0.683851182 0.462026
vt 0.629128873 0.442302704
vt 0.626738369 0.459738612
vt 0.68409723 0.488059759
vt 0.732699811 0.494077444
vt 0.684345663 0.508358479
vt 0.735054076 0.50490427
vt 0.626347601 0.484343767
vt 0.585529149 0.45343256
vt 0.583906591 0.450367689
vt 0.575843275 0.395960093
vt 0.584673345 0.435312748
vt 0.583906591 0.450367689
vt 0.707040727 0.350593805
vt 0.575729787 0.383319259
vt 0.75987345 0.367183089
vt 0.735371649 0.379307747
vt 0.767733395 0.475068212
vt 0.770562112 0.496291518
vt 0.784537971 0.380716801
vt 0.821049988 0.463961005
vt 0.815700233 0.341300011
vt 0.770562112 0.496291518
vt 0.800020754 0.506289363
vt 0.735054076 0.50490427
vt 0.770562112 0.496291518
vt 0.970536709 0.332681894
vt 0.978606224 0.367830515
vt 0.993568897 0.358144164
vt 0.929032505 0.286783576
vt 0.925804317 0.24851656
vt 0.898523748 0.14529103
vt 0.427550972 0.478144765
vt 0.482525289 0.463858962
vt 0.419737518 0.468781829
vt 0.415361464 0.429452538
vt 0.429333508 0.41078341
vt 0.429333508 0.41078341
vt 0.486633718 0.40819025
vt 0.485319793 0.38700223
vt 0.413525045 0.374212265
vt 0.464966118 0.275483608
vt 0.511319816 0.28013587
vt 0.561472118 0.373503447
vt 0.553774297 0.395960569
vt 0.537858665 0.461450458
vt 0.482525289 0.463858962
vt 0.584673345 0.435312748
vt 0.570208848 0.451174736
vt 0.579787076 0.348879695
vt 0.521539509 0.217409492
vt 0.469469488 0.211429179
vt 0.498731911 0.124631226
vt 0.54437691 0.132249057
vt 0.522324264 0.0452974476
vt 0.457933486 0.108595014
vt 0.479901612 0.0102569489
vt 0.561971009 0.0484475531
vt 0.60712105 0.108877957
vt 0.604819119 0.162275791
vt 0.603250325 0.0496489443
vt 0.594804466 0.245369434
vt 0.428525031 0.11251086
vt 0.424604833 0.0294835009
vt 0.3879233 0.217564702
vt 0.379651368 0.267309666
vt 0.614800036 0.021898929
vt 0.635731757 0.0427830853
vt 0.619079053 0.0536693968
vt 0.603250325 0.0496489443
vt 0.575786889 0.368148088
vt 0.575729787 0.383319259
vt 0.379060566 0.342340231
vt 0.579787076 0.348879695
vt 0.570208848 0.451174736
vt 0.585162103 0.464257717
vt 0.585529149 0.45343256
vt 0.585162103 0.464257717
vt 0.585529149 0.45343256
vt 0.0675942749 0.0989169553
vt 0.0296293329 0.0173050836
vt 0.0200689863 0.08689899
vt 0.0990135521 0.0313412622
vt 0.0520342439 0.143207967
vt 0.0134904217 0.132859528
vt 0.109952077 0.14688319
vt 0.156587109 0.0606176332
vt 0.215047106 0.0970615819
vt 0.137747392 0.173564851
vt 0.20392786 0.188017905
vt 0.225175962 0.152730286
vt 0.261573881 0.122384258
vt 0.241340742 0.160049617
vt 0.257529348 0.168335974
vt 0.222837076 0.193333566
vt 0.246495232 0.19919008
vt 0.286631793 0.209680617
vt 0.200905308 0.242387354
vt 0.146513328 0.245389998
vt 0.221584782 0.248932421
vt 0.310391396 0.16500932
vt 0.345498294 0.235256255
vt 0.309102386 0.288847983
vt 0.350208849 0.294169247
vt 0.328785628 0.338222802
vt 0.262517661 0.27979368
vt 0.198878154 0.267267406
vt 0.212045655 0.294563472
vt 0.249564514 0.34588021
vt 0.268879265 0.390211761
vt 0.215933904 0.347257674
vt 0.200457916 0.415766776
vt 0.192557916 0.295258701
vt 0.138858184 0.285251915
vt 0.175696835 0.336258352
vt 0.19276391 0.335350573
vt 0.180219516 0.367989123
vt 0.19558011 0.365504682
vt 0.156912193 0.426035464
vt 0.116470322 0.325630367
vt 0.19558011 0.365504682
vt 0.19558011 0.365504682
vt 0.0831166357 0.364522636
vt 0.109759435 0.441542685
vt 0.0192113947 0.396813095
vt 0.0295693707 0.466082871
vt 0.0134315323 0.350954115
vt 0.0752230734 0.355286419
vt 0.129694447 0.261955321
vt 0.762304246 0.101144373
vt 0.753865778 0.0767897367
vt 0.691723406 0.0428198017
vt 0.662529886 0.0164710917
vt 0.85062927 0.00557011645
vt 0.840609848 0.0191274919
vt 0.840609848 0.0191274919
vt 0.843947351 0.0073005585
vt 0.468589842 0.0125417737
vt 0.479901612 0.0102569489
vt 0.446428359 0.0269305147
vt 0.424604833 0.0294835009
vt 0.41944927 0.00673216861
vt 0.035456486 0.938868046
vt 0.0888173729 0.941992879
vt 0.0408919379 0.925666332
vt 0.035456486 0.938868046
vt 0.0842669234 0.959281802
vt 0.136094138 0.96287632
vt 0.126536146 0.978670359
vt 0.160113543 0.993109345
vt 0.169550583 0.975229859
vt 0.201872632 0.991739869
vt 0.202205211 0.977488041
vt 0.137592539 0.934099197
vt 0.091865696 0.922924757
vt 0.0408919379 0.925666332
vt 0.0503628775 0.913198709
vt 0.0946300626 0.865252256
vt 0.0388162956 0.880451083
vt 0.0627560467 0.857307315
vt 0.0266706031 0.865975022
vt 0.0870314986 0.850760818
vt 0.0658819303 0.837758541
vt 0.0232858397 0.853282332
vt 0.0266706031 0.865975022
vt 0.0863786116 0.838449121
vt 0.153545842 0.817374229
vt 0.160583526 0.760122895
vt 0.090789631 0.772475481
vt 0.095316425 0.741808176
vt 0.178166807 0.662510991
vt 0.240410835 0.681758642
vt 0.239585564 0.586594582
vt 0.183327019 0.568216085
vt 0.124852896 0.640465498
vt 0.122906379 0.552267551
vt 0.227045864 0.564455271
vt 0.186409652 0.548341036
vt 0.152865499 0.538940787
vt 0.135490537 0.53365171
vt 0.161279753 0.504578352
vt 0.144876376 0.51543057
vt 0.135490537 0.53365171
vt 0.240200683 0.776937604
vt 0.309583545 0.761066079
vt 0.304736942 0.672731519
vt 0.304538131 0.594563007
vt 0.368049353 0.596259952
vt 0.367237389 0.65770328
vt 0.31758517 0.544498444
vt 0.366158068 0.528232217
vt 0.358757645 0.513131261
vt 0.264652401 0.577362418
vt 0.393598229 0.735502958
vt 0.40523845 0.848665714
vt 0.319428563 0.835596085
vt 0.359889746 0.852351308
vt 0.359648407 0.864990711
vt 0.318041444 0.947475672
vt 0.372763783 0.92775178
vt 0.375154167 0.945187807
vt 0.317795515 0.973509669
vt 0.269192964 0.979527473
vt 0.317547411 0.99380827
vt 0.266839176 0.990354538
vt 0.375545412 0.969792962
vt 0.416363537 0.938881516
vt 0.426048666 0.881408811
vt 0.417219013 0.920761704
vt 0.417986006 0.935816765
vt 0.294851422 0.836043477
vt 0.426162302 0.868768334
vt 0.26652047 0.864758015
vt 0.242018759 0.852633119
vt 0.23415947 0.96051836
vt 0.231330886 0.981741667
vt 0.266839176 0.990354538
vt 0.217354029 0.866167307
vt 0.180842936 0.949411511
vt 0.186191425 0.826750398
vt 0.231330886 0.981741667
vt 0.201872632 0.991739869
vt 0.416363537 0.938881516
vt 0.417986006 0.935816765
vt 0.0313551314 0.818133831
vt 0.0232858397 0.853282332
vt 0.00832327735 0.843596101
vt 0.0728591233 0.772234917
vt 0.0760868043 0.733968019
vt 0.103366584 0.630742192
vt 0.574341714 0.963592529
vt 0.58215493 0.954229593
vt 0.519367278 0.949307084
vt 0.586530864 0.914900184
vt 0.572558701 0.896231294
vt 0.572558701 0.896231294
vt 0.515258372 0.893638611
vt 0.516572177 0.872450709
vt 0.588367164 0.85965991
vt 0.536925375 0.760931611
vt 0.490571588 0.765584111
vt 0.440420002 0.858952284
vt 0.448118091 0.881409287
vt 0.464033753 0.946899056
vt 0.519367278 0.949307084
vt 0.417219013 0.920761704
vt 0.431684047 0.936623693
vt 0.422104508 0.834328651
vt 0.480351418 0.702857852
vt 0.53242141 0.696877241
vt 0.503158212 0.610079527
vt 0.45751363 0.617697716
vt 0.479565412 0.530745983
vt 0.543956578 0.594042778
vt 0.521987736 0.495705277
vt 0.439918578 0.533896327
vt 0.394769162 0.594327331
vt 0.397071391 0.647724628
vt 0.398639381 0.535098076
vt 0.40708676 0.73081851
vt 0.573365033 0.597958684
vt 0.577284515 0.514931202
vt 0.613967478 0.703012466
vt 0.622239769 0.752757072
vt 0.387089252 0.507347941
vt 0.366158068 0.528232217
vt 0.382810712 0.539118528
vt 0.398639381 0.535098076
vt 0.426105052 0.853596926
vt 0.426162302 0.868768334
vt 0.622831166 0.827787638
vt 0.426162302 0.868768334
vt 0.431684047 0.936623693
vt 0.416363537 0.938881516
vt 0.416730613 0.949706435
vt 0.416730613 0.949706435
vt 0.928770065 0.609711409
vt 0.966734409 0.528099179
vt 0.897350192 0.542135775
vt 0.976294875 0.597692728
vt 0.944330454 0.654001892
vt 0.982873797 0.643653393
vt 0.886412501 0.65767777
vt 0.839777172 0.571412206
vt 0.781316519 0.607856572
vt 0.85861671 0.684359372
vt 0.792436779 0.698812842
vt 0.77118814 0.663525164
vt 0.734790385 0.633179426
vt 0.773527384 0.704128981
vt 0.755023837 0.670844615
vt 0.734790385 0.633179426
vt 0.738835216 0.679131091
vt 0.749869525 0.709985375
vt 0.709733367 0.720476091
vt 0.795459569 0.753182054
vt 0.849851489 0.75618434
vt 0.774779797 0.759726942
vt 0.68597281 0.675804973
vt 0.65086621 0.746052027
vt 0.687262237 0.799643397
vt 0.646155298 0.804965377
vt 0.66757977 0.849017978
vt 0.733846843 0.790588975
vt 0.797486901 0.778062463
vt 0.78431952 0.805358589
vt 0.746800184 0.856675148
vt 0.72748673 0.901006937
vt 0.780431449 0.858052313
vt 0.795907617 0.926561594
vt 0.803807139 0.806053519
vt 0.85750711 0.79604584
vt 0.820668757 0.84705317
vt 0.803601503 0.846145511
vt 0.816145658 0.878783822
vt 0.800785542 0.87629956
vt 0.83945328 0.936829746
vt 0.879894972 0.836424589
vt 0.800785542 0.87629956
vt 0.800785542 0.87629956
vt 0.803601503 0.846145511
vt 0.913249254 0.875317156
vt 0.886606097 0.952337265
vt 0.977153897 0.907607377
vt 0.966796756 0.976877093
vt 0.982933402 0.86174804
vt 0.921142578 0.866080761
vt 0.866670847 0.772749662
vt 0.239585564 0.586594582
vt 0.248024225 0.562239885
vt 0.31016627 0.52826941
vt 0.358757645 0.513131261
vt 0.33935973 0.5019207
vt 0.151260376 0.491020948
vt 0.161279753 0.504578352
vt 0.157942235 0.49275139
vt 0.161279753 0.504578352
vt 0.533299744 0.497989923
vt 0.521987736 0.495705277
vt 0.555460751 0.512378454
vt 0.577284515 0.514931202
vt 0.582440078 0.492180139
vt 0.426105052 0.853596926
vt 0.422104508 0.834328651
vt 0.615115941 0.641641378
vt 0.650900245 0.660764575
vt 0.649327815 0.637306213
vt 0.614198267 0.634910762
vt 0.67903018 0.632032216
vt 0.633978724 0.622680008
vt 0.614146352 0.608718991
vt 0.66127491 0.619685173
vt 0.705634892 0.618642688
vt 0.716335356 0.636543691
vt 0.689386785 0.652821481
vt 0.650900245 0.660764575
vt 0.607595384 0.654078543
vt 0.73231864 0.607191622
vt 0.724420726 0.584582388
vt 0.679320157 0.601123691
vt 0.691888273 0.585361004
vt 0.590820432 0.594393611
vt 0.607065141 0.587464929
vt 0.61251545 0.561796188
vt 0.594076097 0.55128926
vt 0.625126958 0.542679369
vt 0.689370632 0.573906422
vt 0.644971907 0.535713971
vt 0.618483186 0.522774398
vt 0.594076097 0.55128926
vt 0.699073792 0.525352657
vt 0.651887119 0.509581327
vt 0.683979452 0.545020044
vt 0.727765799 0.554476202
vt 0.708846986 0.56367451
vt 0.618483186 0.522774398
vt 0.667844355 0.553984463
vt 0.724420726 0.584582388
vt 0.381844372 0.441037029
vt 0.31490615 0.397623301
vt 0.342285722 0.484374732
vt 0.359346032 0.397550792
vt 0.309487671 0.497793615
vt 0.270014614 0.412112951
vt 0.236684904 0.416394562
vt 0.291001141 0.520998597
vt 0.20331651 0.438017815
vt 0.249190554 0.541648567
vt 0.201156542 0.531767905
vt 0.181045368 0.481437534
vt 0.179418877 0.515785158
vt 0.378432155 0.171375319
vt 0.38105458 0.0932864621
vt 0.365700543 0.0987001583
vt 0.347825944 0.100434899
vt 0.378432155 0.171375319
vt 0.365700543 0.0987001583
vt 0.341142088 0.103981808
vt 0.378432155 0.171375319
vt 0.301897824 0.0872565061
vt 0.312986463 0.154264271
vt 0.318074375 0.0896762758
vt 0.411467463 0.101797707
vt 0.4010728 0.0956529006
vt 0.378432155 0.171375319
vt 0.378432155 0.171375319
vt 0.38105458 0.0932864621
vt 0.391721249 0.0211301371
vt 0.378159255 0.0180295333
vt 0.375260144 0.0788719878
vt 0.378159255 0.0180295333
vt 0.359081954 0.0148560489
vt 0.375260144 0.0788719878
vt 0.312986463 0.154264271
vt 0.332947046 0.100251064
vt 0.318074375 0.0896762758
vt 0.375260144 0.0788719878
vt 0.39979136 0.0370833203
vt 0.391721249 0.0211301371
vt 0.284780502 0.0143255368
vt 0.301434517 0.0752131268
vt 0.301900029 0.011958085
vt 0.312986463 0.154264271
vt 0.285970807 0.0917870402
vt 0.280540794 0.106691942
vt 0.285970807 0.0917870402
vt 0.312986463 0.154264271
vt 0.301897824 0.0872565061
vt 0.265483677 0.0201231167
vt 0.301434517 0.0752131268
vt 0.284780502 0.0143255368
vt 0.316168606 0.0360766612
vt 0.301900029 0.011958085
vt 0.301434517 0.0752131268
vt 0.316168606 0.0360766612
vt 0.33607012 0.0193313435
vt 0.301900029 0.011958085
vt 0.316168606 0.0360766612
vt 0.312271059 0.0178687796
vt 0.0616519153 0.287211657
vt 0.0856437981 0.228265956
vt 0.0692061782 0.228913441
vt 0.0548521243 0.214436412
vt 0.0616519153 0.287211657
vt 0.0368418656 0.211196214
vt 0.0616519153 0.287211657
vt 0.0548521243 0.214436412
vt 0.0142722391 0.213001162
vt 0.0616519153 0.287211657
vt 0.113626122 0.216142476
vt 0.0856437981 0.228265956
vt 0.0616519153 0.287211657
vt 0.936967075 0.715613127
vt 0.921708167 0.746203303
vt 0.93519038 0.81412375
vt 0.93519038 0.81412375
vt 0.957101643 0.717616677
vt 0.936967075 0.715613127
vt 0.971850932 0.738315821
vt 0.93519038 0.81412375
vt 0.921708167 0.746203303
vt 0.897269547 0.73893857
vt 0.93519038 0.81412375
vt 0.375260144 0.0788719878
vt 0.359081954 0.0148560489
vt 0.350625515 0.0371439382
vt 0.615115941 0.641641378
vt 0.650900245 0.660764575
vt 0.607595384 0.654078543
vt 0.650900245 0.660764575
vt 0.649327815 0.637306213
vt 0.614198267 0.634910762
vt 0.67903018 0.632032216
vt 0.689386785 0.652821481
vt 0.633978724 0.622680008
vt 0.716335356 0.636543691
vt 0.705634892 0.618642688
vt 0.73231864 0.607191622
vt 0.724420726 0.584582388
vt 0.679320157 0.601123691
vt 0.691888273 0.585361004
vt 0.614146352 0.608718991
vt 0.66127491 0.619685173
vt 0.590820432 0.594393611
vt 0.607065141 0.587464929
vt 0.61251545 0.561796188
vt 0.594076097 0.55128926
vt 0.625126958 0.542679369
vt 0.618483186 0.522774398
vt 0.644971907 0.535713971
vt 0.689370632 0.573906422
vt 0.699073792 0.525352657
vt 0.683979452 0.545020044
vt 0.727765799 0.554476202
vt 0.708846986 0.56367451
vt 0.651887119 0.509581327
vt 0.618483186 0.522774398
vt 0.667844355 0.553984463
vt 0.724420726 0.584582388
vt 0.381844372 0.441037029
vt 0.31490615 0.397623301
vt 0.359346032 0.397550792
vt 0.342285722 0.484374732
vt 0.309487671 0.497793615
vt 0.270014614 0.412112951
vt 0.236684904 0.416394562
vt 0.291001141 0.520998597
vt 0.20331651 0.438017815
vt 0.249190554 0.541648567
vt 0.201156542 0.531767905
vt 0.181045368 0.481437534
vt 0.179418877 0.515785158
vt 0.378432155 0.171375319
vt 0.365700543 0.0987001583
vt 0.38105458 0.0932864621
vt 0.347825944 0.100434899
vt 0.365700543 0.0987001583
vt 0.378432155 0.171375319
vt 0.341142088 0.103981808
vt 0.378432155 0.171375319
vt 0.301897824 0.0872565061
vt 0.318074375 0.0896762758
vt 0.312986463 0.154264271
vt 0.411467463 0.101797707
vt 0.378432155 0.171375319
vt 0.4010728 0.0956529006
vt 0.391721249 0.0211301371
vt 0.375260144 0.0788719878
vt 0.378159255 0.0180295333
vt 0.378159255 0.0180295333
vt 0.375260144 0.0788719878
vt 0.359081954 0.0148560489
vt 0.378432155 0.171375319
vt 0.38105458 0.0932864621
vt 0.4010728 0.0956529006
vt 0.312986463 0.154264271
vt 0.318074375 0.0896762758
vt 0.332947046 0.100251064
vt 0.375260144 0.0788719878
vt 0.391721249 0.0211301371
vt 0.39979136 0.0370833203
vt 0.284780502 0.0143255368
vt 0.301900029 0.011958085
vt 0.301434517 0.0752131268
vt 0.312986463 0.154264271
vt 0.280540794 0.106691942
vt 0.285970807 0.0917870402
vt 0.285970807 0.0917870402
vt 0.301897824 0.0872565061
vt 0.312986463 0.154264271
vt 0.265483677 0.0201231167
vt 0.284780502 0.0143255368
vt 0.301434517 0.0752131268
vt 0.316168606 0.0360766612
vt 0.301900029 0.011958085
vt 0.312271059 0.0178687796
vt 0.301900029 0.011958085
vt 0.316168606 0.0360766612
vt 0.301434517 0.0752131268
vt 0.316168606 0.0360766612
vt 0.33607012 0.0193313435
vt 0.0616519153 0.287211657
vt 0.0692061782 0.228913441
vt 0.0856437981 0.228265956
vt 0.0548521243 0.214436412
vt 0.0616519153 0.287211657
vt 0.0368418656 0.211196214
vt 0.0548521243 0.214436412
vt 0.0616519153 0.287211657
vt 0.0142722391 0.213001162
vt 0.0616519153 0.287211657
vt 0.113626122 0.216142476
vt 0.0616519153 0.287211657
vt 0.0856437981 0.228265956
vt 0.936967075 0.715613127
vt 0.93519038 0.81412375
vt 0.921708167 0.746203303
vt 0.93519038 0.81412375
vt 0.936967075 0.715613127
vt 0.957101643 0.717616677
vt 0.971850932 0.738315821
vt 0.93519038 0.81412375
vt 0.921708167 0.746203303
vt 0.93519038 0.81412375
vt 0.897269547 0.73893857
vt 0.375260144 0.0788719878
vt 0.350625515 0.0371439382
vt 0.359081954 0.0148560489
vn 0.37838465 0.273098171 0.884444714
vn 0.985639334 -0.0859557465 -0.145349741
vn 0.379737288 0.164886668 0.910281301
vn 0.84109199 0.4396393 -0.315089911
vn 0.834576011 -0.48023966 -0.269912601
vn 0.480257094 0.0466352589 0.875887156
vn 0.295977861 -0.088252604 0.951109052
vn 0.62453568 -0.754935563 -0.200068489
vn -0.102961339 -0.426238716 0.898732185
vn 0.263198823 -0.961524308 -0.0787237287
vn 0.661351681 -0.541916847 -0.518594325
vn 0.884251297 -0.145966023 -0.443614155
vn 0.84109199 0.4396393 -0.315089911
vn 0.668376207 0.539087236 -0.512501836
vn 0.889170408 -0.40865165 0.20586358
vn 0.773603559 0.317125797 0.548606217
vn 0.977757752 0.203704059 0.0499445461
vn 0.860458195 0.507442057 0.0459809154
vn 0.960448503 -0.259246498 0.101635814
vn 0.712097824 0.654502869 -0.25405255
vn -0.0330387205 0.526254117 -0.849685192
vn 0.860458195 0.507442057 0.0459809154
vn 0.979555547 0.0478930213 -0.195390239
vn 0.753611505 -0.623111606 -0.209288299
vn 0.602328718 -0.754789352 -0.259794623
vn 0.950257897 -0.290133387 -0.113280825
vn 0.906446159 -0.375715435 -0.192855686
vn 0.579983532 -0.813295424 -0.0465801172
vn -0.115297958 -0.991735995 -0.0562681332
vn -0.0446916856 -0.90611434 0.420665473
vn 0.58526361 -0.797882795 -0.144393876
vn 0.913440168 -0.363409817 -0.18319492
vn 0.954570055 0.23440057 -0.18399018
vn 0.585106015 -0.679123819 0.443217665
vn 0.744168282 -0.626472175 -0.231832296
vn 0.547929704 -0.666945159 -0.504932821
vn 0.895226002 -0.134122252 -0.42494902
vn 0.100422695 -0.101354457 -0.989768982
vn 0.904334605 0.250496656 -0.345587015
vn -0.115554035 -0.959520698 -0.256841093
vn -0.788849115 -0.613862216 -0.0298370533
vn -0.753149331 -0.656421661 -0.0433211662
vn -0.807341397 -0.516147196 0.285992771
vn -0.990889609 0.0901059359 0.100093588
vn -0.971856773 -0.155500606 -0.176957294
vn -0.866789997 -0.482933551 -0.124299198
vn -0.978138864 0.171742648 -0.117255665
vn -0.454951793 0.0856637061 -0.886386275
vn -0.588452101 -0.639149487 0.495188922
vn -0.997713566 -0.0182509944 0.0650739595
vn -0.912903607 0.132876515 0.385941476
vn -0.893998444 -0.446891308 0.0324796289
vn -0.831527531 -0.437337101 0.34248817
vn -0.723335803 -0.382739216 0.574713767
vn -0.879676819 -0.453449965 -0.143358663
vn -0.972621322 -0.173892185 -0.154172674
vn -0.98883003 -0.0814099237 0.124850653
vn -0.867078543 -0.433845848 0.244852036
vn -0.425403446 -0.769055784 0.477058917
vn 0.0116410386 0.0866714343 0.996168911
vn 0.403493792 -0.218923256 0.888406038
vn -0.162497237 0.222855777 0.961212814
vn -0.00105060078 0.359647334 0.933087707
vn -0.936613441 0.350075006 -0.0142336814
vn -0.505727589 0.294489026 0.810873508
vn -0.855268359 0.425853282 -0.295237303
vn -0.936613441 0.350075006 -0.0142336814
vn -0.707494318 -0.704336286 -0.0579840243
vn -0.568050086 0.196536824 0.799182296
vn -0.186207607 -0.949499071 -0.252543747
vn -0.642730236 -0.764045954 -0.0559601858
vn 0.0509537533 -0.991717935 0.11789488
vn 0.123840749 -0.0791776255 0.989138186
vn 0.351972014 -0.899607122 -0.258500814
vn 0.481589943 -0.670915425 -0.563864887
vn 0.529582262 -0.800207317 -0.281444192
vn 0.123840749 -0.0791776255 0.989138186
vn -0.102961339 -0.426238716 0.898732185
vn 0.403493792 -0.218923256 0.888406038
vn 0.123840749 -0.0791776255 0.989138186
vn 0.0952451378 0.876865804 -0.471205533
vn -0.0330387205 0.526254117 -0.849685192
vn -0.667218685 0.495808095 -0.555871964
vn 0.883196294 0.468988895 0.00369934621
vn 0.840048373 0.463144898 -0.28251642
vn 0.633276165 0.701946557 -0.325933099
vn -0.740605593 0.03445502 0.671056032
vn 0.333471239 0.612226069 0.716921329
vn 0.668376207 0.539087236 -0.512501836
vn 0.773603559 0.317125797 0.548606217
vn -0.667218685 0.495808095 -0.555871964
vn -0.667218685 0.495808095 -0.555871964
vn -0.0136283105 0.933743298 -0.357683748
vn -0.0289902035 0.848668516 -0.528130054
vn 0.0952451378 0.876865804 -0.471205533
vn 0.404525131 0.911042511 -0.0797555745
vn -0.0790926367 0.996780276 0.0131634008
vn 0.149138078 0.963618994 -0.22180213
vn 0.368003309 0.840232491 0.398224682
vn -0.0944307148 0.65145582 0.752786934
vn 0.333471239 0.612226069 0.716921329
vn -0.855268359 0.425853282 -0.295237303
vn 0.374839157 0.898969412 0.226604536
vn -0.400011629 0.834466636 0.379019737
vn -0.0172455143 0.946961582 -0.320883721
vn 0.306683928 0.868137956 -0.390232503
vn 0.567220211 0.81198734 -0.137614921
vn -0.0831445009 0.993457615 -0.0782882124
vn 0.621391475 0.782552004 0.0385345593
vn 0.514928937 0.818417549 -0.255031437
vn 0.504965723 0.820202768 -0.268844098
vn -0.288200378 0.955693603 0.0599185452
vn -0.588380933 0.808576941 0.00335798482
vn -0.628571749 0.744482994 -0.225039035
vn 0.34961468 0.934043884 -0.0730179772
vn -0.64521122 0.759139836 -0.0860775039
vn 0.633276165 0.701946557 -0.325933099
vn 0.954570055 0.23440057 -0.18399018
vn 0.840048373 0.463144898 -0.28251642
vn 0.883196294 0.468988895 0.00369934621
vn -0.66728729 0.489494681 -0.561357796
vn -0.978138864 0.171742648 -0.117255665
vn -0.45215264 0.598614931 0.661224782
vn 0.34961468 0.934043884 -0.0730179772
vn -0.339355081 0.934885204 -0.104057021
vn -0.568050086 0.196536824 0.799182296
vn 0.712097824 0.654502869 -0.25405255
vn -0.400011629 0.834466636 0.379019737
vn 0.374839157 0.898969412 0.226604536
vn 0.459920645 0.224162966 0.859199584
vn -0.00105060078 0.359647334 0.933087707
vn 0.459920645 0.224162966 0.859199584
vn -0.00105060078 0.359647334 0.933087707
vn -0.369849771 0.886275589 0.278795391
vn 0.557994187 0.637531877 -0.531220853
vn 0.666000545 0.720015049 0.194991335
vn -0.382329822 0.771157622 -0.50905776
vn -0.288200378 0.955693603 0.0599185452
vn 0.621391475 0.782552004 0.0385345593
vn -0.66728729 0.489494681 -0.561357796
vn -0.745266616 0.352353811 -0.566060424
vn -0.752438247 0.268965393 -0.601243973
vn -0.970481575 -0.237892166 -0.0396572165
vn -0.673945785 0.35169524 0.649697959
vn -0.594231606 0.681716383 0.426792234
vn -0.797835588 0.22697182 -0.558517754
vn -0.922470272 0.210195065 0.32383126
vn -0.913763165 -0.305328041 0.267977178
vn -0.675397456 0.0311822109 0.736794353
vn -0.716962874 -0.40427202 0.567915976
vn -0.770151854 -0.354376853 0.530361414
vn -0.441683829 -0.419234544 0.793194652
vn -0.677342892 -0.527191043 0.513104498
vn -0.450595677 -0.438910007 0.777381241
vn -0.831137478 -0.178604171 -0.52660346
vn -0.640867531 -0.531095922 -0.554279566
vn -0.0853520706 -0.846252739 0.525900602
vn -0.143054575 -0.806085825 -0.574248254
vn 0.450238585 -0.672581375 -0.587298512
vn -0.0664699674 -0.50523597 0.860417545
vn -0.104493827 -0.53220588 0.840141594
vn 0.300298929 -0.555393279 0.775473297
vn 0.702433467 -0.546553373 0.455923945
vn 0.734983206 -0.374853402 -0.565052748
vn 0.754055202 -0.555088162 0.351109505
vn 0.77772975 0.0717750564 -0.624487579
vn 0.320479453 -0.513994157 0.795677722
vn 0.585106015 -0.679123819 0.443217665
vn 0.826529086 0.00760574592 0.562842727
vn 0.711863577 -0.167338595 0.682090998
vn 0.879457235 0.416572869 0.230264693
vn 0.986450315 -0.0109314974 0.163695425
vn 0.679287553 0.0310996231 -0.733212948
vn 0.744168282 -0.626472175 -0.231832296
vn 0.986450315 -0.0109314974 0.163695425
vn 0.986450315 -0.0109314974 0.163695425
vn 0.904334605 0.250496656 -0.345587015
vn 0.79506284 0.00386479823 -0.606514692
vn 0.666000545 0.720015049 0.194991335
vn 0.557994187 0.637531877 -0.531220853
vn 0.621391475 0.782552004 0.0385345593
vn 0.504965723 0.820202768 -0.268844098
vn -0.0446916856 -0.90611434 0.420665473
vn -0.0446916856 -0.90611434 0.420665473
vn -0.677342892 -0.527191043 0.513104498
vn -0.970481575 -0.237892166 -0.0396572165
vn -0.66728729 0.489494681 -0.561357796
vn -0.552724957 0.777565122 -0.299812704
vn 0.904334605 0.250496656 -0.345587015
vn 0.904334605 0.250496656 -0.345587015
vn 0.504965723 0.820202768 -0.268844098
vn -0.552724957 0.777565122 -0.299812704
vn 0.504965723 0.820202768 -0.268844098
vn 0.313184977 0.758923054 0.570921183
vn 0.954570055 0.23440057 -0.18399018
vn 0.895226002 -0.134122252 -0.42494902
vn -0.37838462 0.273098171 0.884444714
vn -0.985639334 -0.0859557316 -0.145349726
vn -0.84109199 0.4396393 -0.315089852
vn -0.37838462 0.273098171 0.884444714
vn -0.379737198 0.164886653 0.910281301
vn -0.834576011 -0.48023966 -0.269912601
vn -0.480257094 0.0466352589 0.875887156
vn -0.295977861 -0.0882525891 0.951109052
vn -0.62453568 -0.754935563 -0.200068414
vn 0.102961339 -0.426238716 0.898732185
vn -0.263198793 -0.961524308 -0.0787237287
vn -0.661351681 -0.541916847 -0.518594325
vn -0.884251297 -0.145966023 -0.443614155
vn -0.84109199 0.4396393 -0.315089852
vn -0.668376327 0.539087236 -0.512501836
vn -0.889170408 -0.40865165 0.20586358
vn -0.773603559 0.317125857 0.548606217
vn -0.977757752 0.203704059 0.0499445647
vn -0.860458195 0.507442057 0.0459808558
vn -0.960448623 -0.259246558 0.101635814
vn -0.712097824 0.654502869 -0.25405246
vn 0.0330387391 0.526254117 -0.849685192
vn -0.860458195 0.507442057 0.0459808558
vn -0.979555547 0.0478930064 -0.195390269
vn -0.753611505 -0.623111606 -0.209288299
vn -0.602328658 -0.754789352 -0.259794623
vn -0.950257897 -0.290133387 -0.113280825
vn -0.906446159 -0.375715435 -0.192855686
vn -0.579983532 -0.813295424 -0.0465801172
vn 0.115297988 -0.991735995 -0.0562681332
vn 0.0446916968 -0.90611434 0.420665473
vn -0.58526361 -0.797882795 -0.144393876
vn -0.913440168 -0.363409817 -0.18319492
vn -0.954570055 0.23440057 -0.18399018
vn -0.585106015 -0.679123819 0.443217605
vn -0.744168282 -0.626472175 -0.231832296
vn -0.547929704 -0.666945159 -0.504932821
vn -0.895226002 -0.134122252 -0.424948931
vn -0.904334605 0.250496656 -0.345587015
vn -0.100422725 -0.101354457 -0.989768982
vn -0.895226002 -0.134122252 -0.424948931
vn 0.115554042 -0.959520698 -0.256841093
vn 0.788849115 -0.613862276 -0.029837057
vn 0.753149331 -0.656421661 -0.0433211662
vn 0.807341397 -0.516147196 0.285992771
vn 0.990889609 0.0901059359 0.100093588
vn 0.971856773 -0.155500606 -0.176957294
vn 0.866790056 -0.482933491 -0.124299191
vn 0.978138864 0.171742618 -0.117255695
vn 0.454951853 0.0856637135 -0.886386275
vn 0.58845216 -0.639149547 0.495188922
vn 0.997713566 -0.0182509981 0.0650739595
vn 0.912903666 0.13287653 0.385941446
vn 0.893998444 -0.446891308 0.0324796289
vn 0.831527531 -0.437337101 0.34248817
vn 0.723335922 -0.382739097 0.574713767
vn 0.879676819 -0.453449965 -0.143358648
vn 0.972621322 -0.173892185 -0.154172674
vn 0.98883003 -0.0814099237 0.124850653
vn 0.867078543 -0.433845848 0.244852066
vn 0.425403446 -0.769055784 0.477058917
vn -0.0116410386 0.0866714343 0.996168911
vn -0.403493792 -0.218923271 0.888406038
vn 0.162497282 0.222855777 0.961212814
vn 0.00105058728 0.359647334 0.933087707
vn 0.505727589 0.294489056 0.810873508
vn 0.855268359 0.425853282 -0.295237303
vn 0.936613441 0.350075006 -0.0142336525
vn 0.707494318 -0.704336286 -0.0579840168
vn 0.568050027 0.196536824 0.799182296
vn 0.642730236 -0.764045954 -0.0559601858
vn 0.186207607 -0.949499071 -0.252543747
vn -0.050953757 -0.991717935 0.11789491
vn -0.123840749 -0.0791776404 0.989138186
vn -0.403493792 -0.218923271 0.888406038
vn -0.351972103 -0.899607122 -0.258500814
vn -0.481589913 -0.670915425 -0.563864887
vn -0.529582262 -0.800207317 -0.281444252
vn -0.123840749 -0.0791776404 0.989138186
vn 0.102961339 -0.426238716 0.898732185
vn 0.00105058728 0.359647334 0.933087707
vn 0.936613441 0.350075006 -0.0142336525
vn -0.0952451229 0.876865923 -0.471205533
vn 0.0330387391 0.526254117 -0.849685192
vn 0.667218685 0.495808095 -0.555872023
vn -0.883196354 0.468988866 0.00369934598
vn -0.840048373 0.463144898 -0.28251642
vn -0.633276165 0.701946557 -0.325933099
vn 0.740605593 0.0344551243 0.671056032
vn -0.668376327 0.539087236 -0.512501836
vn -0.333471149 0.612226129 0.716921329
vn -0.773603559 0.317125857 0.548606217
vn 0.667218685 0.495808095 -0.555872023
vn 0.667218685 0.495808095 -0.555872023
vn 0.0136283105 0.933743298 -0.357683748
vn 0.0289902035 0.848668516 -0.528129995
vn -0.0952451229 0.876865923 -0.471205533
vn -0.404525131 0.911042511 -0.0797555596
vn 0.0790926516 0.996780276 0.0131634055
vn -0.149138063 0.963618994 -0.221802101
vn -0.368003309 0.840232491 0.398224741
vn 0.0944307074 0.651455879 0.752786934
vn -0.333471149 0.612226129 0.716921329
vn 0.855268359 0.425853282 -0.295237303
vn -0.374839157 0.898969412 0.226604536
vn 0.400011629 0.834466636 0.379019737
vn 0.0172455069 0.946961582 -0.320883662
vn -0.306683928 0.868137956 -0.390232503
vn -0.567220211 0.81198734 -0.137614951
vn 0.0831445009 0.993457615 -0.0782882124
vn -0.621391535 0.782552004 0.0385345593
vn -0.514928877 0.81841749 -0.255031466
vn -0.504965723 0.820202768 -0.268844098
vn 0.288200378 0.955693603 0.0599185601
vn 0.588380933 0.808576941 0.00335799204
vn 0.628571808 0.744483054 -0.225039035
vn -0.34961468 0.934043884 -0.0730179548
vn 0.64521122 0.759139836 -0.0860775039
vn -0.633276165 0.701946557 -0.325933099
vn -0.954570055 0.23440057 -0.18399018
vn -0.840048373 0.463144898 -0.28251642
vn -0.883196354 0.468988866 0.00369934598
vn 0.667287409 0.489494681 -0.561357737
vn 0.978138864 0.171742618 -0.117255695
vn 0.45215264 0.598614991 0.661224723
vn -0.34961468 0.934043884 -0.0730179548
vn 0.339355141 0.934885204 -0.104057029
vn 0.568050027 0.196536824 0.799182296
vn -0.712097824 0.654502869 -0.25405246
vn 0.568050027 0.196536824 0.799182296
vn -0.374839157 0.898969412 0.226604536
vn 0.00105058728 0.359647334 0.933087707
vn -0.459920734 0.224162981 0.859199584
vn -0.459920734 0.224162981 0.859199584
vn 0.369849801 0.886275589 0.278795362
vn -0.557994187 0.637531877 -0.531220853
vn 0.382329822 0.771157622 -0.50905776
vn -0.666000485 0.720015109 0.194991335
vn 0.288200378 0.955693603 0.0599185601
vn -0.621391535 0.782552004 0.0385345593
vn 0.667287409 0.489494681 -0.561357737
vn 0.745266616 0.352353811 -0.566060424
vn 0.752438247 0.268965393 -0.601243973
vn 0.970481575 -0.237892151 -0.0396572165
vn 0.673945785 0.35169524 0.649697959
vn 0.594231606 0.681716383 0.426792234
vn 0.797835588 0.22697182 -0.558517754
vn 0.675397396 0.0311822165 0.736794412
vn 0.922470272 0.210195065 0.32383126
vn 0.797835588 0.22697182 -0.558517754
vn 0.913763165 -0.305327982 0.267977178
vn 0.716962874 -0.40427202 0.567915976
vn 0.770151854 -0.354376853 0.530361414
vn 0.441683829 -0.419234544 0.793194652
vn 0.677342892 -0.527191043 0.513104498
vn 0.450595677 -0.438910007 0.777381241
vn 0.831137478 -0.178604171 -0.52660346
vn 0.640867531 -0.531095922 -0.554279566
vn 0.0853520706 -0.846252739 0.525900602
vn 0.143054575 -0.806085825 -0.574248254
vn -0.450238556 -0.672581375 -0.587298512
vn 0.0664699674 -0.50523597 0.860417545
vn 0.104493842 -0.53220588 0.840141594
vn -0.300298929 -0.555393279 0.775473297
vn -0.702433467 -0.546553373 0.455923945
vn -0.734983206 -0.374853343 -0.565052748
vn -0.754055321 -0.555088103 0.351109594
vn -0.77772975 0.0717750564 -0.624487698
vn -0.320479453 -0.513994157 0.795677722
vn -0.585106015 -0.679123819 0.443217605
vn -0.826529086 0.00760574592 0.562842727
vn -0.711863518 -0.16733861 0.682090998
vn -0.879457235 0.416572869 0.230264723
vn -0.986450315 -0.0109314797 0.163695425
vn -0.679287553 0.0310996268 -0.733212948
vn -0.744168282 -0.626472175 -0.231832296
vn -0.986450315 -0.0109314797 0.163695425
vn -0.986450315 -0.0109314797 0.163695425
vn -0.711863518 -0.16733861 0.682090998
vn -0.904334605 0.250496656 -0.345587015
vn -0.79506284 0.00386479823 -0.606514692
vn -0.666000485 0.720015109 0.194991335
vn -0.557994187 0.637531877 -0.531220853
vn -0.621391535 0.782552004 0.0385345593
vn -0.504965723 0.820202768 -0.268844098
vn 0.0446916968 -0.90611434 0.420665473
vn 0.0446916968 -0.90611434 0.420665473
vn 0.677342892 -0.527191043 0.513104498
vn 0.970481575 -0.237892151 -0.0396572165
vn 0.454951853 0.0856637135 -0.886386275
vn 0.667287409 0.489494681 -0.561357737
vn 0.552725017 0.777565062 -0.299812675
vn -0.904334605 0.250496656 -0.345587015
vn -0.504965723 0.820202768 -0.268844098
vn -0.904334605 0.250496656 -0.345587015
vn 0.552725017 0.777565062 -0.299812675
vn -0.504965723 0.820202768 -0.268844098
vn -0.313184947 0.758923054 0.570921123
vn -0.954570055 0.23440057 -0.18399018
vn -0.895226002 -0.134122252 -0.424948931
vn 0.339355141 0.934885204 -0.104057029
vn 0.400011629 0.834466636 0.379019737
vn -0.773460388 -0.114334032 0.623447418
vn 0.379737288 0.164886668 0.910281301
vn -0.333111674 0.276780605 0.901348472
vn -0.740605593 0.03445502 0.671056032
vn -0.516548574 0.448653907 0.729306042
vn -0.127705887 0.0545665622 0.990309894
vn 0.173799753 -0.0621624142 0.982817173
vn -0.867044866 0.233011603 0.440384954
vn -0.384983182 0.509664416 0.769434929
vn 0.295977861 -0.088252604 0.951109052
vn 0.480257094 0.0466352589 0.875887156
vn 0.379737288 0.164886668 0.910281301
vn 0.37838465 0.273098171 0.884444714
vn -0.102961339 -0.426238716 0.898732185
vn 0.123840749 -0.0791776255 0.989138186
vn -0.399885565 0.604394495 0.689056456
vn -0.137097403 0.637328327 0.758298695
vn 0.333471239 0.612226069 0.716921329
vn 0.233452901 0.0297039971 0.971914291
vn 0.158540472 0.0566105135 0.985728323
vn -0.0944307148 0.65145582 0.752786934
vn 0.24239783 -0.0357913747 0.969516516
vn 0.709842503 0.657556951 0.25247249
vn 0.700855553 0.209696203 0.681783676
vn 0.459920645 0.224162966 0.859199584
vn -0.0944307148 0.65145582 0.752786934
vn 0.0116410386 0.0866714343 0.996168911
vn -0.162497237 0.222855777 0.961212814
vn 0.844829082 0.473723978 0.248695374
vn 0.403493792 -0.218923256 0.888406038
vn 0.795553863 0.508773267 0.329004228
vn 0.459920645 0.224162966 0.859199584
vn 0.852984846 0.337863237 -0.397825688
vn 0.123840749 -0.0791776255 0.989138186
vn 0.557994187 0.637531877 -0.531220853
vn -0.745266616 0.352353811 -0.566060424
vn 0.79506284 0.00386479823 -0.606514692
vn -0.382329822 0.771157622 -0.50905776
vn 0.679287553 0.0310996231 -0.733212948
vn -0.752438247 0.268965393 -0.601243973
vn -0.797835588 0.22697182 -0.558517754
vn 0.77772975 0.0717750564 -0.624487579
vn -0.831137478 -0.178604171 -0.52660346
vn 0.734983206 -0.374853402 -0.565052748
vn 0.450238585 -0.672581375 -0.587298512
vn -0.640867531 -0.531095922 -0.554279566
vn -0.143054575 -0.806085825 -0.574248254
vn -0.490884274 0.869112492 0.0606290773
vn 0.84109199 0.4396393 -0.315089911
vn 0.37838465 0.273098171 0.884444714
vn -0.773460388 -0.114334032 0.623447418
vn -0.490884274 0.869112492 0.0606290773
vn 0.37838465 0.273098171 0.884444714
vn -0.740605593 0.03445502 0.671056032
vn -0.490884274 0.869112492 0.0606290773
vn -0.936613441 0.350075006 -0.0142336814
vn 0.391020715 0.914489448 -0.103980668
vn -0.00105060078 0.359647334 0.933087707
vn -0.740605593 0.03445502 0.671056032
vn 0.668376207 0.539087236 -0.512501836
vn -0.490884274 0.869112492 0.0606290773
vn -0.490884274 0.869112492 0.0606290773
vn 0.84109199 0.4396393 -0.315089911
vn -0.0330387205 0.526254117 -0.849685192
vn 0.860458195 0.507442057 0.0459809154
vn -0.412151009 0.831504226 0.372467667
vn 0.860458195 0.507442057 0.0459809154
vn 0.773603559 0.317125797 0.548606217
vn -0.412151009 0.831504226 0.372467667
vn 0.391020715 0.914489448 -0.103980668
vn 0.374839157 0.898969412 0.226604536
vn -0.00105060078 0.359647334 0.933087707
vn -0.412151009 0.831504226 0.372467667
vn -0.667218685 0.495808095 -0.555871964
vn -0.0330387205 0.526254117 -0.849685192
vn -0.339355081 0.934885204 -0.104057021
vn 0.518042326 0.818488717 0.248411611
vn -0.568050086 0.196536824 0.799182296
vn 0.391020715 0.914489448 -0.103980668
vn -0.855268359 0.425853282 -0.295237303
vn 0.374839157 0.898969412 0.226604536
vn -0.855268359 0.425853282 -0.295237303
vn 0.391020715 0.914489448 -0.103980668
vn -0.936613441 0.350075006 -0.0142336814
vn 0.149138078 0.963618994 -0.22180213
vn 0.518042326 0.818488717 0.248411611
vn -0.339355081 0.934885204 -0.104057021
vn 0.368003309 0.840232491 0.398224682
vn -0.568050086 0.196536824 0.799182296
vn 0.518042326 0.818488717 0.248411611
vn 0.368003309 0.840232491 0.398224682
vn 0.149138078 0.963618994 -0.22180213
vn -0.568050086 0.196536824 0.799182296
vn 0.368003309 0.840232491 0.398224682
vn -0.505727589 0.294489026 0.810873508
vn 0.111261658 0.980614066 0.161297917
vn 0.34961468 0.934043884 -0.0730179772
vn -0.45215264 0.598614931 0.661224782
vn -0.978138864 0.171742648 -0.117255665
vn 0.111261658 0.980614066 0.161297917
vn -0.454951793 0.0856637061 -0.886386275
vn 0.111261658 0.980614066 0.161297917
vn -0.978138864 0.171742648 -0.117255665
vn -0.66728729 0.489494681 -0.561357796
vn 0.111261658 0.980614066 0.161297917
vn -0.66728729 0.489494681 -0.561357796
vn 0.34961468 0.934043884 -0.0730179772
vn 0.111261658 0.980614066 0.161297917
vn 0.895226002 -0.134122252 -0.42494902
vn 0.313184977 0.758923054 0.570921183
vn 0.0171677135 0.985681534 0.167741388
vn 0.0171677135 0.985681534 0.167741388
vn 0.100422695 -0.101354457 -0.989768982
vn 0.895226002 -0.134122252 -0.42494902
vn -0.552724957 0.777565122 -0.299812704
vn 0.0171677135 0.985681534 0.167741388
vn 0.313184977 0.758923054 0.570921183
vn -0.552724957 0.777565122 -0.299812704
vn 0.0171677135 0.985681534 0.167741388
vn -0.412151009 0.831504226 0.372467667
vn 0.773603559 0.317125797 0.548606217
vn -0.667218685 0.495808095 -0.555871964
vn 0.773460448 -0.114334039 0.623447418
vn -0.379737198 0.164886653 0.910281301
vn -0.37838462 0.273098171 0.884444714
vn -0.379737198 0.164886653 0.910281301
vn 0.333111674 0.276780605 0.901348472
vn 0.740605593 0.0344551243 0.671056032
vn 0.516548574 0.448653907 0.729305983
vn -0.480257094 0.0466352589 0.875887156
vn 0.127705887 0.0545665771 0.990309894
vn -0.295977861 -0.0882525891 0.951109052
vn 0.384983182 0.509664416 0.769434929
vn 0.102961339 -0.426238716 0.898732185
vn -0.123840749 -0.0791776404 0.989138186
vn 0.399885565 0.604394495 0.689056456
vn 0.137097403 0.637328327 0.758298695
vn -0.173799723 -0.0621624067 0.982817173
vn 0.867044866 0.233011603 0.440384954
vn -0.333471149 0.612226129 0.716921329
vn -0.233452901 0.0297039952 0.971914291
vn -0.158540472 0.0566105135 0.985728323
vn 0.0944307074 0.651455879 0.752786934
vn -0.24239783 -0.0357913785 0.969516516
vn -0.459920734 0.224162981 0.859199584
vn -0.700855553 0.209696203 0.681783676
vn -0.709842503 0.657556951 0.25247249
vn -0.0116410386 0.0866714343 0.996168911
vn -0.844829082 0.473724067 0.248695374
vn -0.403493792 -0.218923271 0.888406038
vn -0.795553863 0.508773267 0.329004228
vn 0.162497282 0.222855777 0.961212814
vn -0.459920734 0.224162981 0.859199584
vn -0.852984846 0.337863237 -0.397825718
vn -0.123840749 -0.0791776404 0.989138186
vn -0.557994187 0.637531877 -0.531220853
vn 0.745266616 0.352353811 -0.566060424
vn 0.382329822 0.771157622 -0.50905776
vn -0.79506284 0.00386479823 -0.606514692
vn -0.679287553 0.0310996268 -0.733212948
vn 0.752438247 0.268965393 -0.601243973
vn 0.797835588 0.22697182 -0.558517754
vn -0.77772975 0.0717750564 -0.624487698
vn 0.831137478 -0.178604171 -0.52660346
vn -0.734983206 -0.374853343 -0.565052748
vn -0.450238556 -0.672581375 -0.587298512
vn 0.640867531 -0.531095922 -0.554279566
vn 0.143054575 -0.806085825 -0.574248254
vn 0.490884274 0.869112492 0.0606292002
vn -0.37838462 0.273098171 0.884444714
vn -0.84109199 0.4396393 -0.315089852
vn 0.773460448 -0.114334039 0.623447418
vn -0.37838462 0.273098171 0.884444714
vn 0.490884274 0.869112492 0.0606292002
vn 0.740605593 0.0344551243 0.671056032
vn 0.490884274 0.869112492 0.0606292002
vn 0.936613441 0.350075006 -0.0142336525
vn 0.00105058728 0.359647334 0.933087707
vn -0.391020715 0.914489329 -0.10398066
vn 0.740605593 0.0344551243 0.671056032
vn 0.490884274 0.869112492 0.0606292002
vn -0.668376327 0.539087236 -0.512501836
vn 0.0330387391 0.526254117 -0.849685192
vn 0.412151068 0.831504285 0.372467458
vn -0.860458195 0.507442057 0.0459808558
vn -0.860458195 0.507442057 0.0459808558
vn 0.412151068 0.831504285 0.372467458
vn -0.773603559 0.317125857 0.548606217
vn 0.490884274 0.869112492 0.0606292002
vn -0.84109199 0.4396393 -0.315089852
vn -0.668376327 0.539087236 -0.512501836
vn -0.391020715 0.914489329 -0.10398066
vn 0.00105058728 0.359647334 0.933087707
vn -0.374839157 0.898969412 0.226604536
vn 0.412151068 0.831504285 0.372467458
vn 0.0330387391 0.526254117 -0.849685192
vn 0.667218685 0.495808095 -0.555872023
vn 0.339355141 0.934885204 -0.104057029
vn 0.568050027 0.196536824 0.799182296
vn -0.518042326 0.818488717 0.248411804
vn -0.391020715 0.914489329 -0.10398066
vn -0.374839157 0.898969412 0.226604536
vn 0.855268359 0.425853282 -0.295237303
vn 0.855268359 0.425853282 -0.295237303
vn 0.936613441 0.350075006 -0.0142336525
vn -0.391020715 0.914489329 -0.10398066
vn -0.149138063 0.963618994 -0.221802101
vn 0.339355141 0.934885204 -0.104057029
vn -0.518042326 0.818488717 0.248411804
vn -0.368003309 0.840232491 0.398224741
vn 0.568050027 0.196536824 0.799182296
vn 0.505727589 0.294489056 0.810873508
vn 0.568050027 0.196536824 0.799182296
vn -0.368003309 0.840232491 0.398224741
vn -0.518042326 0.818488717 0.248411804
vn -0.368003309 0.840232491 0.398224741
vn -0.149138063 0.963618994 -0.221802101
vn -0.111261651 0.980614066 0.161297753
vn 0.45215264 0.598614991 0.661224723
vn -0.34961468 0.934043884 -0.0730179548
vn 0.978138864 0.171742618 -0.117255695
vn -0.111261651 0.980614066 0.161297753
vn 0.454951853 0.0856637135 -0.886386275
vn 0.978138864 0.171742618 -0.117255695
vn -0.111261651 0.980614066 0.161297753
vn 0.667287409 0.489494681 -0.561357737
vn -0.111261651 0.980614066 0.161297753
vn 0.667287409 0.489494681 -0.561357737
vn -0.111261651 0.980614066 0.161297753
vn -0.34961468 0.934043884 -0.0730179548
vn -0.895226002 -0.134122252 -0.424948931
vn -0.0171678588 0.985681534 0.167741537
vn -0.313184947 0.758923054 0.570921123
vn -0.0171678588 0.985681534 0.167741537
vn -0.895226002 -0.134122252 -0.424948931
vn -0.100422725 -0.101354457 -0.989768982
vn 0.552725017 0.777565062 -0.299812675
vn -0.0171678588 0.985681534 0.167741537
vn -0.313184947 0.758923054 0.570921123
vn -0.0171678588 0.985681534 0.167741537
vn 0.552725017 0.777565062 -0.299812675
vn 0.412151068 0.831504285 0.372467458
vn 0.667218685 0.495808095 -0.555872023
vn -0.773603559 0.317125857 0.548606217
g blue_asn_m_pve_3_boots_0
f 3/3/3 2/2/2 1/1/1
f 4/4/4 1/1/1 2/2/2
f 2/2/2 3/3/3 5/5/5
f 6/6/6 5/5/5 3/3/3
f 6/6/6 7/7/7 5/5/5
f 8/8/8 5/5/5 7/7/7
f 7/7/7 9/9/9 8/8/8
f 10/10/10 8/8/8 9/9/9
f 5/5/5 11/11/11 2/2/2
f 12/12/12 2/2/2 11/11/11
f 2/2/2 12/12/12 13/13/13
f 14/14/14 13/13/13 12/12/12
f 12/12/12 15/15/15 14/14/14
f 12/12/12 11/11/11 15/15/15
f 16/16/16 14/14/14 15/15/15
f 15/15/15 17/17/17 16/16/16
f 18/18/18 16/16/16 17/17/17
f 19/19/19 17/17/17 15/15/15
f 17/17/17 19/19/19 20/20/20
f 20/20/20 21/21/21 17/17/17
f 22/22/22 17/17/17 21/21/21
f 23/23/23 20/20/20 19/19/19
f 19/19/19 24/24/24 23/23/23
f 19/19/19 15/15/15 24/24/24
f 24/24/24 25/25/25 23/23/23
f 26/26/26 23/23/23 25/25/25
f 27/27/27 26/26/26 25/25/25
f 25/25/25 28/28/28 27/27/27
f 28/28/28 25/25/25 29/29/29
f 29/29/29 30/30/30 28/28/28
f 31/31/31 28/28/28 30/30/30
f 28/28/28 31/31/31 32/32/32
f 32/32/32 27/27/27 28/28/28
f 33/33/33 32/32/32 31/31/31
f 30/30/30 34/34/34 31/31/31
f 35/35/35 31/31/31 34/34/34
f 31/31/31 36/36/36 33/33/33
f 35/35/35 36/36/36 31/31/31
f 37/37/37 33/33/33 36/36/36
f 37/37/37 36/36/36 38/38/38
f 38/38/38 36/36/36 39/39/39
f 35/35/35 39/39/39 36/36/36
f 40/40/40 29/29/29 25/25/25
f 40/40/40 41/41/41 29/29/29
f 42/42/42 29/29/29 41/41/41
f 42/42/42 43/43/43 29/29/29
f 43/43/43 42/42/42 44/44/44
f 45/45/45 44/44/44 42/42/42
f 42/42/42 41/41/41 45/45/45
f 43/43/43 44/44/44 46/46/46
f 47/47/47 46/46/46 44/44/44
f 47/47/47 48/48/48 46/46/46
f 46/46/46 49/49/49 43/43/43
f 50/50/50 45/45/45 41/41/41
f 50/50/50 41/41/41 51/51/51
f 41/41/41 52/52/52 51/51/51
f 53/53/53 51/51/51 52/52/52
f 52/52/52 54/54/54 53/53/53
f 52/52/52 55/55/55 54/54/54
f 56/56/56 54/54/54 55/55/55
f 56/56/56 55/55/55 57/57/57
f 58/58/58 57/57/57 55/55/55
f 59/59/59 58/58/58 55/55/55
f 58/58/58 59/59/59 60/60/60
f 61/61/61 60/60/60 59/59/59
f 57/57/57 58/58/58 62/62/62
f 60/60/60 62/62/62 58/58/58
f 62/62/62 63/63/63 57/57/57
f 64/64/64 57/57/57 63/63/63
f 54/54/54 56/56/56 65/65/65
f 66/66/66 65/65/65 56/56/56
f 66/66/66 56/56/56 67/67/67
f 57/57/57 67/67/67 56/56/56
f 52/52/52 68/68/68 55/55/55
f 65/65/65 69/69/69 54/54/54
f 52/52/52 41/41/41 68/68/68
f 40/40/40 68/68/68 41/41/41
f 40/40/40 70/70/70 68/68/68
f 71/71/71 68/68/68 70/70/70
f 59/59/59 55/55/55 71/71/71
f 68/68/68 71/71/71 55/55/55
f 70/70/70 72/72/72 71/71/71
f 59/59/59 71/71/71 72/72/72
f 73/73/73 59/59/59 72/72/72
f 70/70/70 74/74/74 72/72/72
f 75/75/75 72/72/72 74/74/74
f 10/10/10 72/72/72 75/75/75
f 8/8/8 10/10/10 75/75/75
f 8/8/8 75/75/75 5/5/5
f 11/11/11 5/5/5 75/75/75
f 75/75/75 76/76/76 11/11/11
f 74/74/74 70/70/70 76/76/76
f 40/40/40 76/76/76 70/70/70
f 76/76/76 75/75/75 74/74/74
f 25/25/25 76/76/76 40/40/40
f 76/76/76 25/25/25 24/24/24
f 76/76/76 24/24/24 15/15/15
f 15/15/15 11/11/11 76/76/76
f 77/77/77 72/72/72 10/10/10
f 77/77/77 10/10/10 78/78/78
f 80/80/80 79/79/79 59/59/59
f 82/82/82 20/20/20 81/81/81
f 82/82/82 81/81/81 83/83/83
f 20/20/20 23/23/23 84/84/84
f 26/26/26 84/84/84 23/23/23
f 26/26/26 27/27/27 84/84/84
f 85/85/85 84/84/84 27/27/27
f 27/27/27 32/32/32 85/85/85
f 86/86/86 85/85/85 32/32/32
f 33/33/33 86/86/86 32/32/32
f 89/89/89 88/88/88 87/87/87
f 90/90/90 88/88/88 89/89/89
f 90/90/90 91/91/91 88/88/88
f 93/93/93 88/88/88 92/92/92
f 93/93/93 92/92/92 94/94/94
f 95/95/95 94/94/94 92/92/92
f 94/94/94 95/95/95 96/96/96
f 94/94/94 96/96/96 97/97/97
f 94/94/94 97/97/97 98/98/98
f 93/93/93 94/94/94 99/99/99
f 98/98/98 99/99/99 94/94/94
f 99/99/99 100/100/100 93/93/93
f 101/101/101 93/93/93 100/100/100
f 99/99/99 102/102/102 100/100/100
f 103/103/103 100/100/100 102/102/102
f 102/102/102 99/99/99 65/65/65
f 97/97/97 104/104/104 98/98/98
f 97/97/97 96/96/96 105/105/105
f 106/106/106 105/105/105 96/96/96
f 106/106/106 107/107/107 105/105/105
f 108/108/108 105/105/105 107/107/107
f 107/107/107 109/109/109 108/108/108
f 107/107/107 110/110/110 109/109/109
f 106/106/106 110/110/110 107/107/107
f 111/111/111 109/109/109 110/110/110
f 112/112/112 108/108/108 109/109/109
f 108/108/108 112/112/112 113/113/113
f 114/114/114 108/108/108 113/113/113
f 108/108/108 114/114/114 105/105/105
f 115/115/115 113/113/113 112/112/112
f 116/116/116 105/105/105 114/114/114
f 116/116/116 104/104/104 97/97/97
f 105/105/105 116/116/116 97/97/97
f 110/110/110 106/106/106 117/117/117
f 117/117/117 118/118/118 110/110/110
f 119/119/119 117/117/117 106/106/106
f 106/106/106 96/96/96 119/119/119
f 120/120/120 119/119/119 96/96/96
f 121/121/121 115/115/115 112/112/112
f 114/114/114 113/113/113 45/45/45
f 114/114/114 45/45/45 116/116/116
f 44/44/44 45/45/45 113/113/113
f 44/44/44 113/113/113 122/122/122
f 123/123/123 122/122/122 113/113/113
f 124/124/124 123/123/123 113/113/113
f 50/50/50 116/116/116 45/45/45
f 116/116/116 50/50/50 104/104/104
f 51/51/51 104/104/104 50/50/50
f 104/104/104 51/51/51 125/125/125
f 126/126/126 125/125/125 51/51/51
f 96/96/96 127/127/127 120/120/120
f 127/127/127 96/96/96 95/95/95
f 69/69/69 51/51/51 53/53/53
f 53/53/53 54/54/54 69/69/69
f 98/98/98 128/128/128 125/125/125
f 131/131/131 130/130/130 129/129/129
f 132/132/132 100/100/100 129/129/129
f 133/133/133 62/62/62 132/132/132
f 136/136/136 135/135/135 134/134/134
f 137/137/137 134/134/134 135/135/135
f 134/134/134 138/138/138 136/136/136
f 139/139/139 136/136/136 138/138/138
f 134/134/134 140/140/140 138/138/138
f 140/140/140 134/134/134 141/141/141
f 137/137/137 141/141/141 134/134/134
f 141/141/141 142/142/142 140/140/140
f 143/143/143 140/140/140 142/142/142
f 143/143/143 142/142/142 144/144/144
f 145/145/145 144/144/144 142/142/142
f 142/142/142 146/146/146 145/145/145
f 147/147/147 145/145/145 146/146/146
f 147/147/147 146/146/146 148/148/148
f 144/144/144 145/145/145 149/149/149
f 147/147/147 149/149/149 145/145/145
f 149/149/149 147/147/147 150/150/150
f 148/148/148 150/150/150 147/147/147
f 151/151/151 150/150/150 148/148/148
f 149/149/149 152/152/152 144/144/144
f 152/152/152 153/153/153 144/144/144
f 143/143/143 144/144/144 153/153/153
f 152/152/152 149/149/149 154/154/154
f 150/150/150 154/154/154 149/149/149
f 150/150/150 151/151/151 154/154/154
f 151/151/151 148/148/148 155/155/155
f 146/146/146 155/155/155 148/148/148
f 155/155/155 156/156/156 151/151/151
f 157/157/157 151/151/151 156/156/156
f 156/156/156 158/158/158 157/157/157
f 159/159/159 157/157/157 158/158/158
f 160/160/160 151/151/151 157/157/157
f 160/160/160 154/154/154 151/151/151
f 153/153/153 152/152/152 161/161/161
f 152/152/152 154/154/154 161/161/161
f 161/161/161 154/154/154 160/160/160
f 161/161/161 160/160/160 162/162/162
f 157/157/157 159/159/159 163/163/163
f 157/157/157 163/163/163 160/160/160
f 160/160/160 163/163/163 162/162/162
f 164/164/164 163/163/163 159/159/159
f 163/163/163 164/164/164 165/165/165
f 165/165/165 162/162/162 163/163/163
f 166/166/166 165/165/165 164/164/164
f 161/161/161 162/162/162 167/167/167
f 161/161/161 167/167/167 168/168/168
f 169/169/169 168/168/168 167/167/167
f 170/170/170 169/169/169 167/167/167
f 165/165/165 170/170/170 162/162/162
f 167/167/167 162/162/162 170/170/170
f 169/169/169 170/170/170 171/171/171
f 172/172/172 171/171/171 170/170/170
f 166/166/166 171/171/171 172/172/172
f 166/166/166 173/173/173 171/171/171
f 173/173/173 174/174/174 171/171/171
f 169/169/169 171/171/171 174/174/174
f 169/169/169 174/174/174 168/168/168
f 170/170/170 165/165/165 175/175/175
f 166/166/166 176/176/176 165/165/165
f 174/174/174 173/173/173 177/177/177
f 178/178/178 177/177/177 173/173/173
f 177/177/177 178/178/178 179/179/179
f 180/180/180 179/179/179 178/178/178
f 179/179/179 181/181/181 177/177/177
f 182/182/182 177/177/177 181/181/181
f 161/161/161 168/168/168 183/183/183
f 161/161/161 183/183/183 153/153/153
f 184/184/184 29/29/29 43/43/43
f 43/43/43 49/49/49 184/184/184
f 49/49/49 185/185/185 184/184/184
f 185/185/185 49/49/49 186/186/186
f 46/46/46 186/186/186 49/49/49
f 46/46/46 48/48/48 186/186/186
f 187/187/187 186/186/186 48/48/48
f 38/38/38 189/189/189 188/188/188
f 191/191/191 188/188/188 190/190/190
f 193/193/193 110/110/110 192/192/192
f 194/194/194 192/192/192 110/110/110
f 194/194/194 110/110/110 195/195/195
f 195/195/195 196/196/196 194/194/194
f 199/199/199 198/198/198 197/197/197
f 201/201/201 200/200/200 198/198/198
f 198/198/198 202/202/202 201/201/201
f 203/203/203 201/201/201 202/202/202
f 203/203/203 202/202/202 204/204/204
f 205/205/205 204/204/204 202/202/202
f 204/204/204 205/205/205 206/206/206
f 207/207/207 206/206/206 205/205/205
f 202/202/202 198/198/198 208/208/208
f 209/209/209 208/208/208 198/198/198
f 198/198/198 210/210/210 209/209/209
f 211/211/211 209/209/209 210/210/210
f 209/209/209 211/211/211 212/212/212
f 208/208/208 209/209/209 212/212/212
f 213/213/213 212/212/212 211/211/211
f 212/212/212 213/213/213 214/214/214
f 215/215/215 214/214/214 213/213/213
f 214/214/214 216/216/216 212/212/212
f 214/214/214 217/217/217 216/216/216
f 217/217/217 214/214/214 218/218/218
f 219/219/219 218/218/218 214/214/214
f 220/220/220 216/216/216 217/217/217
f 221/221/221 216/216/216 220/220/220
f 216/216/216 221/221/221 212/212/212
f 221/221/221 220/220/220 222/222/222
f 223/223/223 222/222/222 220/220/220
f 223/223/223 224/224/224 222/222/222
f 222/222/222 224/224/224 225/225/225
f 225/225/225 226/226/226 222/222/222
f 226/226/226 225/225/225 227/227/227
f 228/228/228 227/227/227 225/225/225
f 225/225/225 229/229/229 228/228/228
f 229/229/229 225/225/225 224/224/224
f 230/230/230 228/228/228 229/229/229
f 227/227/227 228/228/228 231/231/231
f 232/232/232 231/231/231 228/228/228
f 228/228/228 230/230/230 233/233/233
f 233/233/233 232/232/232 228/228/228
f 234/234/234 233/233/233 230/230/230
f 232/232/232 233/233/233 235/235/235
f 236/236/236 235/235/235 233/233/233
f 233/233/233 237/237/237 236/236/236
f 238/238/238 222/222/222 226/226/226
f 238/238/238 226/226/226 239/239/239
f 240/240/240 239/239/239 226/226/226
f 240/240/240 226/226/226 241/241/241
f 241/241/241 242/242/242 240/240/240
f 243/243/243 240/240/240 242/242/242
f 240/240/240 243/243/243 239/239/239
f 241/241/241 244/244/244 242/242/242
f 245/245/245 242/242/242 244/244/244
f 246/246/246 245/245/245 244/244/244
f 247/247/247 244/244/244 241/241/241
f 248/248/248 239/239/239 243/243/243
f 239/239/239 248/248/248 249/249/249
f 239/239/239 249/249/249 250/250/250
f 251/251/251 250/250/250 249/249/249
f 252/252/252 250/250/250 251/251/251
f 250/250/250 252/252/252 253/253/253
f 254/254/254 253/253/253 252/252/252
f 254/254/254 255/255/255 253/253/253
f 256/256/256 253/253/253 255/255/255
f 256/256/256 257/257/257 253/253/253
f 256/256/256 258/258/258 257/257/257
f 259/259/259 257/257/257 258/258/258
f 258/258/258 256/256/256 260/260/260
f 255/255/255 260/260/260 256/256/256
f 260/260/260 255/255/255 261/261/261
f 252/252/252 262/262/262 254/254/254
f 263/263/263 254/254/254 262/262/262
f 255/255/255 254/254/254 264/264/264
f 263/263/263 264/264/264 254/254/254
f 265/265/265 250/250/250 253/253/253
f 262/262/262 252/252/252 266/266/266
f 251/251/251 266/266/266 252/252/252
f 265/265/265 253/253/253 267/267/267
f 257/257/257 267/267/267 253/253/253
f 267/267/267 268/268/268 265/265/265
f 238/238/238 265/265/265 268/268/268
f 238/238/238 239/239/239 265/265/265
f 250/250/250 265/265/265 239/239/239
f 257/257/257 269/269/269 267/267/267
f 268/268/268 267/267/267 269/269/269
f 257/257/257 270/270/270 269/269/269
f 271/271/271 270/270/270 257/257/257
f 268/268/268 269/269/269 272/272/272
f 273/273/273 272/272/272 269/269/269
f 269/269/269 207/207/207 273/273/273
f 207/207/207 205/205/205 273/273/273
f 205/205/205 202/202/202 273/273/273
f 208/208/208 273/273/273 202/202/202
f 273/273/273 208/208/208 274/274/274
f 238/238/238 268/268/268 274/274/274
f 272/272/272 274/274/274 268/268/268
f 273/273/273 274/274/274 272/272/272
f 274/274/274 222/222/222 238/238/238
f 222/222/222 274/274/274 221/221/221
f 274/274/274 212/212/212 221/221/221
f 212/212/212 274/274/274 208/208/208
f 269/269/269 275/275/275 207/207/207
f 207/207/207 275/275/275 276/276/276
f 278/278/278 277/277/277 255/255/255
f 217/217/217 280/280/280 279/279/279
f 279/279/279 280/280/280 281/281/281
f 217/217/217 282/282/282 220/220/220
f 223/223/223 220/220/220 282/282/282
f 223/223/223 282/282/282 224/224/224
f 283/283/283 224/224/224 282/282/282
f 224/224/224 283/283/283 229/229/229
f 284/284/284 229/229/229 283/283/283
f 284/284/284 230/230/230 229/229/229
f 287/287/287 286/286/286 285/285/285
f 287/287/287 288/288/288 286/286/286
f 288/288/288 287/287/287 289/289/289
f 291/291/291 290/290/290 287/287/287
f 291/291/291 292/292/292 290/290/290
f 293/293/293 290/290/290 292/292/292
f 293/293/293 292/292/292 294/294/294
f 294/294/294 292/292/292 295/295/295
f 295/295/295 292/292/292 296/296/296
f 296/296/296 292/292/292 297/297/297
f 291/291/291 297/297/297 292/292/292
f 297/297/297 291/291/291 298/298/298
f 299/299/299 298/298/298 291/291/291
f 297/297/297 298/298/298 300/300/300
f 301/301/301 300/300/300 298/298/298
f 297/297/297 300/300/300 262/262/262
f 302/302/302 295/295/295 296/296/296
f 295/295/295 303/303/303 294/294/294
f 304/304/304 294/294/294 303/303/303
f 304/304/304 303/303/303 305/305/305
f 306/306/306 305/305/305 303/303/303
f 305/305/305 306/306/306 307/307/307
f 305/305/305 307/307/307 308/308/308
f 308/308/308 304/304/304 305/305/305
f 309/309/309 308/308/308 307/307/307
f 310/310/310 307/307/307 306/306/306
f 306/306/306 311/311/311 310/310/310
f 306/306/306 312/312/312 311/311/311
f 306/306/306 303/303/303 312/312/312
f 313/313/313 310/310/310 311/311/311
f 314/314/314 312/312/312 303/303/303
f 302/302/302 314/314/314 295/295/295
f 314/314/314 303/303/303 295/295/295
f 308/308/308 315/315/315 304/304/304
f 315/315/315 308/308/308 316/316/316
f 317/317/317 304/304/304 315/315/315
f 304/304/304 317/317/317 294/294/294
f 318/318/318 294/294/294 317/317/317
f 313/313/313 319/319/319 310/310/310
f 312/312/312 243/243/243 311/311/311
f 312/312/312 314/314/314 243/243/243
f 242/242/242 311/311/311 243/243/243
f 242/242/242 320/320/320 311/311/311
f 321/321/321 311/311/311 320/320/320
f 321/321/321 322/322/322 311/311/311
f 248/248/248 243/243/243 314/314/314
f 314/314/314 302/302/302 248/248/248
f 249/249/249 248/248/248 302/302/302
f 249/249/249 302/302/302 323/323/323
f 323/323/323 324/324/324 249/249/249
f 325/325/325 294/294/294 318/318/318
f 294/294/294 325/325/325 293/293/293
f 249/249/249 326/326/326 251/251/251
f 329/329/329 328/328/328 327/327/327
f 298/298/298 330/330/330 327/327/327
f 260/260/260 328/328/328 330/330/330
f 333/333/333 332/332/332 331/331/331
f 334/334/334 331/331/331 332/332/332
f 331/331/331 334/334/334 335/335/335
f 336/336/336 335/335/335 334/334/334
f 337/337/337 331/331/331 335/335/335
f 333/333/333 331/331/331 338/338/338
f 337/337/337 338/338/338 331/331/331
f 338/338/338 337/337/337 339/339/339
f 340/340/340 339/339/339 337/337/337
f 340/340/340 341/341/341 339/339/339
f 342/342/342 339/339/339 341/341/341
f 343/343/343 339/339/339 342/342/342
f 341/341/341 344/344/344 342/342/342
f 345/345/345 342/342/342 344/344/344
f 342/342/342 345/345/345 346/346/346
f 343/343/343 345/345/345 347/347/347
f 347/347/347 345/345/345 348/348/348
f 344/344/344 348/348/348 345/345/345
f 348/348/348 349/349/349 347/347/347
f 350/350/350 344/344/344 341/341/341
f 340/340/340 351/351/351 341/341/341
f 350/350/350 341/341/341 351/351/351
f 348/348/348 344/344/344 352/352/352
f 350/350/350 352/352/352 344/344/344
f 348/348/348 352/352/352 349/349/349
f 343/343/343 347/347/347 353/353/353
f 349/349/349 353/353/353 347/347/347
f 353/353/353 349/349/349 354/354/354
f 355/355/355 354/354/354 349/349/349
f 356/356/356 354/354/354 355/355/355
f 355/355/355 357/357/357 356/356/356
f 349/349/349 358/358/358 355/355/355
f 358/358/358 349/349/349 352/352/352
f 350/350/350 351/351/351 359/359/359
f 352/352/352 350/350/350 359/359/359
f 352/352/352 359/359/359 358/358/358
f 358/358/358 359/359/359 360/360/360
f 355/355/355 361/361/361 357/357/357
f 361/361/361 355/355/355 358/358/358
f 358/358/358 360/360/360 361/361/361
f 362/362/362 357/357/357 361/361/361
f 361/361/361 363/363/363 362/362/362
f 363/363/363 361/361/361 360/360/360
f 364/364/364 362/362/362 363/363/363
f 360/360/360 359/359/359 365/365/365
f 365/365/365 359/359/359 366/366/366
f 366/366/366 367/367/367 365/365/365
f 367/367/367 368/368/368 365/365/365
f 365/365/365 368/368/368 360/360/360
f 367/367/367 369/369/369 368/368/368
f 370/370/370 368/368/368 369/369/369
f 369/369/369 364/364/364 370/370/370
f 371/371/371 364/364/364 369/369/369
f 367/367/367 372/372/372 369/369/369
f 371/371/371 369/369/369 372/372/372
f 372/372/372 367/367/367 366/366/366
f 363/363/363 368/368/368 373/373/373
f 374/374/374 364/364/364 363/363/363
f 363/363/363 360/360/360 375/375/375
f 372/372/372 376/376/376 371/371/371
f 377/377/377 371/371/371 376/376/376
f 376/376/376 378/378/378 377/377/377
f 379/379/379 377/377/377 378/378/378
f 378/378/378 376/376/376 380/380/380
f 381/381/381 380/380/380 376/376/376
f 366/366/366 359/359/359 382/382/382
f 382/382/382 359/359/359 351/351/351
f 383/383/383 241/241/241 226/226/226
f 247/247/247 241/241/241 383/383/383
f 384/384/384 247/247/247 383/383/383
f 384/384/384 385/385/385 247/247/247
f 244/244/244 247/247/247 385/385/385
f 386/386/386 244/244/244 385/385/385
f 385/385/385 387/387/387 386/386/386
f 390/390/390 389/389/389 388/388/388
f 236/236/236 388/388/388 391/391/391
f 308/308/308 393/393/393 392/392/392
f 392/392/392 394/394/394 308/308/308
f 394/394/394 395/395/395 308/308/308
f 396/396/396 395/395/395 394/394/394
f 398/398/398 296/296/296 397/397/397
f 401/401/401 400/400/400 399/399/399
f 399/399/399 402/402/402 401/401/401
f 401/401/401 403/403/403 400/400/400
f 401/401/401 402/402/402 404/404/404
f 401/401/401 404/404/404 403/403/403
f 405/405/405 404/404/404 402/402/402
f 406/406/406 403/403/403 404/404/404
f 403/403/403 406/406/406 407/407/407
f 407/407/407 408/408/408 403/403/403
f 409/409/409 403/403/403 408/408/408
f 409/409/409 410/410/410 403/403/403
f 411/411/411 399/399/399 410/410/410
f 408/408/408 407/407/407 412/412/412
f 413/413/413 412/412/412 407/407/407
f 407/407/407 414/414/414 413/413/413
f 414/414/414 407/407/407 406/406/406
f 415/415/415 413/413/413 414/414/414
f 416/416/416 405/405/405 402/402/402
f 417/417/417 405/405/405 416/416/416
f 417/417/417 416/416/416 418/418/418
f 419/419/419 418/418/418 416/416/416
f 418/418/418 419/419/419 420/420/420
f 415/415/415 421/421/421 413/413/413
f 420/420/420 423/423/423 422/422/422
f 423/423/423 420/420/420 424/424/424
f 426/426/426 425/425/425 422/422/422
f 427/427/427 422/422/422 425/425/425
f 425/425/425 428/428/428 427/427/427
f 429/429/429 427/427/427 428/428/428
f 429/429/429 421/421/421 427/427/427
f 426/426/426 422/422/422 430/430/430
f 431/431/431 427/427/427 421/421/421
f 431/431/431 422/422/422 427/427/427
f 413/413/413 429/429/429 428/428/428
f 429/429/429 432/432/432 421/421/421
f 435/435/435 434/434/434 433/433/433
f 436/436/436 433/433/433 434/434/434
f 435/435/435 437/437/437 434/434/434
f 438/438/438 434/434/434 437/437/437
f 438/438/438 437/437/437 439/439/439
f 440/440/440 439/439/439 437/437/437
f 439/439/439 440/440/440 441/441/441
f 442/442/442 441/441/441 440/440/440
f 442/442/442 443/443/443 441/441/441
f 444/444/444 441/441/441 443/443/443
f 445/445/445 444/444/444 443/443/443
f 448/448/448 447/447/447 446/446/446
f 451/451/451 450/450/450 449/449/449
f 449/449/449 453/453/453 452/452/452
f 456/456/456 455/455/455 454/454/454
f 459/459/459 458/458/458 457/457/457
f 461/461/461 458/458/458 460/460/460
f 464/464/464 463/463/463 462/462/462
f 467/467/467 466/466/466 465/465/465
f 470/470/470 469/469/469 468/468/468
f 473/473/473 472/472/472 471/471/471
f 476/476/476 475/475/475 474/474/474
f 479/479/479 478/478/478 477/477/477
f 482/482/482 481/481/481 480/480/480
f 485/485/485 484/484/484 483/483/483
f 488/488/488 487/487/487 486/486/486
f 490/490/490 488/488/488 489/489/489
f 493/493/493 492/492/492 491/491/491
f 496/496/496 495/495/495 494/494/494
f 496/496/496 498/498/498 497/497/497
f 501/501/501 500/500/500 499/499/499
f 499/499/499 503/503/503 502/502/502
f 506/506/506 505/505/505 504/504/504
f 509/509/509 508/508/508 507/507/507
f 512/512/512 511/511/511 510/510/510
f 514/514/514 511/511/511 513/513/513
f 517/517/517 516/516/516 515/515/515
f 520/520/520 519/519/519 518/518/518
f 523/523/523 522/522/522 521/521/521
f 525/525/525 521/521/521 524/524/524
f 526/526/526 521/521/521 525/525/525
f 525/525/525 524/524/524 527/527/527
f 528/528/528 527/527/527 522/522/522
f 526/526/526 525/525/525 529/529/529
f 525/525/525 527/527/527 529/529/529
f 528/528/528 530/530/530 527/527/527
f 531/531/531 527/527/527 530/530/530
f 530/530/530 532/532/532 531/531/531
f 533/533/533 531/531/531 532/532/532
f 531/531/531 533/533/533 534/534/534
f 535/535/535 534/534/534 533/533/533
f 529/529/529 536/536/536 526/526/526
f 537/537/537 529/529/529 527/527/527
f 534/534/534 537/537/537 531/531/531
f 527/527/527 531/531/531 537/537/537
f 536/536/536 538/538/538 526/526/526
f 536/536/536 539/539/539 538/538/538
f 539/539/539 540/540/540 538/538/538
f 541/541/541 538/538/538 540/540/540
f 540/540/540 542/542/542 541/541/541
f 543/543/543 541/541/541 542/542/542
f 542/542/542 544/544/544 543/543/543
f 535/535/535 533/533/533 545/545/545
f 547/547/547 546/546/546 544/544/544
f 546/546/546 547/547/547 548/548/548
f 549/549/549 548/548/548 547/547/547
f 549/549/549 547/547/547 545/545/545
f 550/550/550 544/544/544 546/546/546
f 550/550/550 551/551/551 544/544/544
f 552/552/552 545/545/545 547/547/547
f 544/544/544 552/552/552 547/547/547
f 549/549/549 533/533/533 548/548/548
f 549/549/549 545/545/545 553/553/553
f 556/556/556 555/555/555 554/554/554
f 557/557/557 554/554/554 555/555/555
f 557/557/557 555/555/555 558/558/558
f 559/559/559 558/558/558 555/555/555
f 559/559/559 560/560/560 558/558/558
f 561/561/561 558/558/558 560/560/560
f 560/560/560 562/562/562 561/561/561
f 563/563/563 561/561/561 562/562/562
f 563/563/563 562/562/562 564/564/564
f 565/565/565 564/564/564 562/562/562
f 565/565/565 566/566/566 564/564/564
f 569/569/569 568/568/568 567/567/567
f 572/572/572 571/571/571 570/570/570
f 574/574/574 570/570/570 573/573/573
f 577/577/577 576/576/576 575/575/575
f 580/580/580 579/579/579 578/578/578
f 583/583/583 582/582/582 581/581/581
f 586/586/586 585/585/585 584/584/584
f 589/589/589 588/588/588 587/587/587
f 592/592/592 591/591/591 590/590/590
f 595/595/595 594/594/594 593/593/593
f 598/598/598 597/597/597 596/596/596
f 601/601/601 600/600/600 599/599/599
f 604/604/604 603/603/603 602/602/602
f 607/607/607 606/606/606 605/605/605
f 610/610/610 609/609/609 608/608/608
f 613/613/613 612/612/612 611/611/611
f 613/613/613 615/615/615 614/614/614
f 618/618/618 617/617/617 616/616/616
f 620/620/620 617/617/617 619/619/619
f 623/623/623 622/622/622 621/621/621
f 625/625/625 621/621/621 624/624/624
f 628/628/628 627/627/627 626/626/626
f 631/631/631 630/630/630 629/629/629
f 634/634/634 633/633/633 632/632/632
f 634/634/634 636/636/636 635/635/635
f 639/639/639 638/638/638 637/637/637
f 642/642/642 641/641/641 640/640/640
