g blue_mag_m_pve_1_belt
v 0.050111603 -0.0609145537 1.20158482
v 7.29411838E-08 -0.0669756904 1.11440039
v 2.03691411E-06 -0.066727072 1.19907355
v 0.0543950349 -0.0591302179 1.1139847
v 2.03691411E-06 -0.0393249542 1.20126665
v 0.048321452 -0.0338312536 1.20433581
v 0.0651696846 -0.0574434251 1.12816215
v 0.0620770976 -0.0592741147 1.19310963
v 0.0866061002 -0.0302035548 1.19992769
v 0.0825206935 -0.0184294544 1.20301795
v 0.0698326975 -0.0235897042 1.12490273
v -0.050107535 -0.0609145537 1.20158482
v -0.0537252277 -0.0591302179 1.1139847
v -0.0483173728 -0.0338312536 1.20433581
v -0.0638451055 -0.0583094582 1.12709427
v -0.0620730184 -0.0592741147 1.19310963
v -0.0866020396 -0.0302035548 1.19992769
v -0.0825166404 -0.0184294544 1.20301795
v -0.0859644264 -0.0333445445 1.12845993
v 0.0749522895 -0.0417187475 1.14092529
v 0.0859650522 -0.0333445445 1.12845993
v 0.0863523558 -0.0217278078 1.13170421
v 0.0782042593 -0.00228000456 1.14447236
v 6.64591795E-08 -0.0393953212 1.11607659
v 4.76092083E-07 -0.0154808713 1.14021337
v -0.0782030597 -0.00228000456 1.14447236
v -0.0675482973 -0.023457313 1.12507975
v -0.0863515809 -0.0217278078 1.13170421
v -0.0749507844 -0.0417187475 1.14092529
v -0.0859644264 -0.0333445445 1.12845993
v 0.0859650522 -0.0333445445 1.12845993
v 0.0421344116 0.200845346 1.2469461
v 0.089249067 0.171296731 1.24786377
v 0.0412704349 0.18648015 1.24546683
v 0.0852270126 0.211663812 1.26034653
v 0.130138174 0.196463659 1.26166701
v 0.130348638 0.143121853 1.24681783
v 0.169737965 0.173721507 1.26046157
v 0.185964108 0.113744751 1.25302887
v 0.151075542 0.0883961692 1.24076939
v 0.137721404 0.207575753 1.26010203
v 0.180874631 0.184454739 1.25704706
v 0.205105111 0.148943111 1.26447403
v 0.194225192 0.146297127 1.26916587
v 0.237399757 0.114762291 1.28662443
v 0.231423736 0.110622376 1.29206204
v 0.134607911 0.213105902 1.19071245
v 0.176922813 0.171224356 1.18509126
v 0.181891307 0.209956706 1.12338889
v 0.128431574 0.249826372 1.13088274
v 0.094396688 0.226238683 1.19623458
v 0.0811624229 0.265130967 1.13992691
v 0.0857015699 0.228061125 1.25969636
v 0.0629526526 0.243152276 1.22914052
v 0.0653651208 0.239588261 1.20103371
v 0.190666303 0.13282074 1.18013692
v 0.219186068 0.159814298 1.11524987
v 0.172564879 0.200391293 1.11965489
v 0.207289353 0.154367164 1.11240911
v 0.138430104 0.169463903 1.13896012
v 0.117902726 0.237907916 1.12922204
v 0.0756831989 0.201209128 1.13709414
v 0.222121671 0.110172868 1.10109437
v 0.235266089 0.110389195 1.103073
v 0.135256693 0.131761298 1.16341376
v 0.147020027 0.0937965289 1.15539646
v 0.22092092 0.0657165796 1.08790088
v 0.235266089 0.110389195 1.103073
v 0.234765351 0.0626745448 1.08879304
v 0.204704896 0.0083573442 1.08109879
v 0.197457284 0.0552635379 1.1640377
v 0.175920591 0.013070371 1.15647662
v 0.160167515 -0.0298955552 1.08914256
v 0.14672415 -0.0144259445 1.15346014
v 0.124532484 -0.0458886772 1.10267794
v 0.120700374 -0.0401403792 1.14612877
v 0.193818763 0.0161776878 1.08106816
v 0.15252018 -0.0195066612 1.08903575
v 0.170191616 -0.0086903628 1.22783148
v 0.197091058 0.0439814478 1.24136806
v 0.12692219 -0.041527383 1.21403611
v 0.114396349 -0.0393721238 1.16266108
v 0.109106787 -0.0471684821 1.19929647
v 0.121163748 -0.0305897649 1.21635675
v 0.160723478 -0.00065737305 1.22930562
v 0.0894332305 -0.047984235 1.2072432
v 0.0952228978 -0.0589483343 1.20530772
v 0.185232744 0.046695061 1.24172378
v 0.121392868 0.0111272009 1.2169019
v 0.143054679 0.0456360914 1.23055053
v 0.212014943 0.0786160752 1.25445306
v 0.201442868 0.0809157342 1.25913763
v 0.237399757 0.114762291 1.28662443
v 0.231423736 0.110622376 1.29206204
v 0.185964108 0.113744751 1.25302887
v 0.197283879 0.0830032602 1.22140265
v 0.198707312 0.101706214 1.1677959
v 0.151075542 0.0883961692 1.24076939
v 0.196258157 0.0760847777 1.22006321
v 0.198899806 0.0740518942 1.16436696
v 0.219773382 0.116603792 1.13430405
v 0.226041138 0.134918794 1.11418188
v 0.235266089 0.110389195 1.103073
v 0.223417237 0.0813258812 1.12796557
v 0.23341319 0.0748410448 1.10428882
v 0.0412704349 0.18648015 1.24546683
v 2.03683976E-06 0.207440659 1.24572444
v 0.0421344116 0.200845346 1.2469461
v 2.03683976E-06 0.184944645 1.2448504
v 0.0211115479 0.216795877 1.214908
v 2.03683976E-06 0.217531756 1.2151444
v 2.03683976E-06 0.217539459 1.21508288
v 0.0193484463 0.21899268 1.20228672
v 2.03825539E-06 0.235103056 1.21456313
v 0.0193499271 0.234733865 1.20221698
v 6.16610009E-07 0.251989305 1.14031398
v 0.0226402245 0.240714282 1.16779363
v 0.0840330422 0.229097024 1.13628376
v -0.0412663594 0.18648015 1.24546683
v -0.0421303324 0.200845346 1.2469461
v -0.0211074706 0.216795877 1.214908
v -0.0211074706 0.216795877 1.214908
v -0.0193458553 0.234733865 1.20221698
v -0.0226371642 0.240714282 1.16779363
v -0.0193443727 0.21899268 1.20228672
v -0.0788897946 0.229097024 1.13628376
v 0.0866061002 -0.0302035548 1.19992769
v 0.0825206935 -0.0184294544 1.20301795
v 0.0866061002 -0.0302035548 1.19992769
v 0.0489712618 0.2319085 1.25890434
v 0.0489712618 0.2319085 1.25890434
v 0.0494491123 0.217690632 1.25871444
v 0.0421344116 0.200845346 1.2469461
v 0.0492122658 0.244472072 1.20990968
v 0.0232366752 0.245118663 1.21359742
v 0.0183990262 0.24667941 1.19764793
v 0.0379269719 0.247617334 1.1953274
v 0.0220354144 0.257861555 1.17106843
v 0.0211115479 0.216795877 1.214908
v 0.0193499271 0.234733865 1.20221698
v 0.0183990262 0.24667941 1.19764793
v 0.0211115479 0.216795877 1.214908
v 0.0193484463 0.21899268 1.20228672
v 0.0220354144 0.257861555 1.17106843
v 0.0183990262 0.24667941 1.19764793
v 0.0226402245 0.240714282 1.16779363
v 0.0226402245 0.240714282 1.16779363
v 0.0673277378 0.248464212 1.14059103
v 0.0840330422 0.229097024 1.13628376
v 0.0435906909 0.255744845 1.1705991
v 0.0379269719 0.247617334 1.1953274
v 0.0679561198 0.243488938 1.18295991
v 0.120123915 0.157540798 1.17247665
v 0.0727632046 0.183740005 1.17701912
v 0.116532244 -0.0357110202 1.10241497
v 0.107290782 -0.0576640554 1.11801469
v 0.100676566 -0.0468250364 1.11741257
v 0.0754966587 -0.0791031569 1.12129736
v 0.0717188045 -0.0704519525 1.12208378
v 0.106765695 -0.0553357825 1.12466395
v 0.0765288994 -0.0636307523 1.14437377
v 0.0863523558 -0.0217278078 1.13170421
v 0.125178009 0.0382601395 1.14828467
v 0.106765695 -0.0553357825 1.12466395
v 0.0831071287 -0.0605922341 1.14680374
v 0.0869698375 -0.0555978008 1.17313492
v 0.094163619 -0.0521337837 1.16356373
v 0.0859650522 -0.0333445445 1.12845993
v 0.0749522895 -0.0417187475 1.14092529
v 0.0782042593 -0.00228000456 1.14447236
v 0.094163619 -0.0521337837 1.16356373
v 0.0952228978 -0.0589483343 1.20530772
v 0.0765288994 -0.0636307523 1.14437377
v 0.0717188045 -0.0704519525 1.12208378
v 0.0749522895 -0.0417187475 1.14092529
v 0.0754966587 -0.0791031569 1.12129736
v 0.0869698375 -0.0555978008 1.17313492
v 0.0866061002 -0.0302035548 1.19992769
v 0.0866061002 -0.0302035548 1.19992769
v 0.0894332305 -0.047984235 1.2072432
v 0.0232366752 0.245118663 1.21359742
v 0.0489712618 0.2319085 1.25890434
v 0.0494491123 0.217690632 1.25871444
v 0.0679561198 0.243488938 1.18295991
v 0.0653651208 0.239588261 1.20103371
v 0.0560072511 0.280425429 1.19805062
v 0.0598961115 0.258698016 1.21532512
v 0.0629526526 0.243152276 1.22914052
v 0.0537522435 0.30084303 1.18809164
v 0.0435906909 0.255744845 1.1705991
v 0.0679561198 0.243488938 1.18295991
v 0.0598961115 0.258698016 1.21532512
v 0.0629526526 0.243152276 1.22914052
v 0.0492122658 0.244472072 1.20990968
v 0.0560072511 0.280425429 1.19805062
v 0.0379269719 0.247617334 1.1953274
v 0.0537522435 0.30084303 1.18809164
v 0.0435906909 0.255744845 1.1705991
v 0.245115623 0.0989955142 1.14685857
v 0.198899806 0.0740518942 1.16436696
v 0.228892609 0.0925632045 1.16951513
v 0.223417237 0.0813258812 1.12796557
v 0.204293966 0.0808119923 1.2230953
v 0.196258157 0.0760847777 1.22006321
v 0.197283879 0.0830032602 1.22140265
v 0.266421378 0.10602282 1.13127697
v 0.23341319 0.0748410448 1.10428882
v 0.305799872 0.114243597 1.12654221
v 0.235266089 0.110389195 1.103073
v 0.266421378 0.10602282 1.13127697
v 0.305799872 0.114243597 1.12654221
v 0.198707312 0.101706214 1.1677959
v 0.245115623 0.0989955142 1.14685857
v 0.228892609 0.0925632045 1.16951513
v 0.219773382 0.116603792 1.13430405
v 0.204293966 0.0808119923 1.2230953
v 0.197283879 0.0830032602 1.22140265
v 0.266421378 0.10602282 1.13127697
v 0.226041138 0.134918794 1.11418188
v 0.305799872 0.114243597 1.12654221
v 0.266421378 0.10602282 1.13127697
v 0.109106787 -0.0471684821 1.19929647
v 0.117119469 -0.0683373362 1.17779326
v 0.094163619 -0.0521337837 1.16356373
v 0.130662262 -0.0922952145 1.16175449
v 0.0831071287 -0.0605922341 1.14680374
v 0.144278273 -0.114596114 1.15319002
v 0.094163619 -0.0521337837 1.16356373
v 0.106765695 -0.0553357825 1.12466395
v 0.0831071287 -0.0605922341 1.14680374
v 0.109106787 -0.0471684821 1.19929647
v 0.114396349 -0.0393721238 1.16266108
v 0.117119469 -0.0683373362 1.17779326
v 0.130662262 -0.0922952145 1.16175449
v 0.120700374 -0.0401403792 1.14612877
v 0.144278273 -0.114596114 1.15319002
v 0.106765695 -0.0553357825 1.12466395
v 2.03691411E-06 0.200405255 1.18699074
v 0.0756831989 0.201209128 1.13709414
v 1.02937224E-06 0.19645755 1.13961327
v 0.0727632046 0.183740005 1.17701912
v -0.0767958015 0.198534429 1.13709414
v -0.07276164 0.183740005 1.17701912
v 0.305799872 0.114243597 1.12654221
v 0.226041138 0.134918794 1.11418188
v 0.235266089 0.110389195 1.103073
v -0.0421303324 0.200845346 1.2469461
v -0.0412663594 0.18648015 1.24546683
v -0.089244999 0.171296731 1.24786377
v -0.085222967 0.211663812 1.26034653
v -0.130134106 0.196463659 1.26166701
v -0.130344585 0.143121853 1.24681783
v -0.169733882 0.173721507 1.26046157
v -0.185960025 0.113744751 1.25302887
v -0.151071474 0.0883961692 1.24076939
v -0.137717336 0.207575753 1.26010203
v -0.180870563 0.184454739 1.25704706
v -0.205101073 0.148943111 1.26447403
v -0.194221109 0.146297127 1.26916587
v -0.231419653 0.110622376 1.29206204
v -0.237395689 0.114762291 1.28662431
v -0.134603873 0.213105902 1.19071245
v -0.176921383 0.171224356 1.18509126
v -0.181890965 0.209956706 1.12338889
v -0.128431082 0.249826372 1.13088274
v -0.0943926498 0.226238683 1.19623458
v -0.0811614096 0.265130967 1.13992691
v -0.0856974944 0.228061125 1.25969636
v -0.0629485771 0.243152276 1.22914052
v -0.0653610528 0.239588261 1.20103371
v -0.190665349 0.132820711 1.18013692
v -0.219186053 0.159814298 1.11524987
v -0.172564521 0.200391293 1.11965489
v -0.207289323 0.154367164 1.11240911
v -0.13842909 0.169463903 1.13896012
v -0.117902026 0.237907916 1.12922204
v -0.0767958015 0.198534429 1.13709414
v -0.222121656 0.110172868 1.10109437
v -0.235266075 0.11038918 1.103073
v -0.135256425 0.131761283 1.16341376
v -0.147019923 0.0937965289 1.15539646
v -0.220920905 0.0657165796 1.08790088
v -0.235266075 0.11038918 1.103073
v -0.234765336 0.0626745448 1.08879304
v -0.204704896 0.0083573442 1.08109879
v -0.197455987 0.0552635379 1.1640377
v -0.175920084 0.013070371 1.15647662
v -0.1601675 -0.0298955552 1.08914256
v -0.146723211 -0.0144259445 1.15346014
v -0.124532484 -0.0458886772 1.10267794
v -0.120698757 -0.0401403792 1.14612877
v -0.193818733 0.0161776878 1.08106816
v -0.15252018 -0.0195066612 1.08903575
v -0.170187533 -0.0086903628 1.22783148
v -0.197086975 0.0439814478 1.24136806
v -0.126918137 -0.041527383 1.21403611
v -0.114393689 -0.0393721238 1.16266108
v -0.109102726 -0.0471684821 1.19929647
v -0.121159695 -0.0305897649 1.21635675
v -0.160719395 -0.00065737305 1.22930562
v -0.0894291773 -0.047984235 1.2072432
v -0.0952188373 -0.0589483343 1.20530772
v -0.185228661 0.046695061 1.24172378
v -0.121388815 0.0111272009 1.2169019
v -0.143050611 0.0456360914 1.23055053
v -0.212010875 0.0786160752 1.25445306
v -0.201438785 0.0809157342 1.25913763
v -0.237395689 0.114762291 1.28662431
v -0.231419653 0.110622376 1.29206204
v -0.185960025 0.113744751 1.25302887
v -0.197279811 0.0830032527 1.22140265
v -0.151071474 0.0883961692 1.24076939
v -0.0866020396 -0.0302035548 1.19992769
v -0.0825166404 -0.0184294544 1.20301795
v -0.196254089 0.0760847777 1.22006321
v -0.198898256 0.0740518942 1.16436696
v -0.223417222 0.0813258812 1.12796557
v -0.233413175 0.0748410448 1.10428882
v -0.235266075 0.11038918 1.103073
v -0.198705867 0.101706207 1.1677959
v -0.219773367 0.116603792 1.13430405
v -0.226041123 0.134918794 1.11418188
v -0.0489671789 0.2319085 1.25890434
v -0.0494450331 0.217690632 1.25871444
v -0.0489671789 0.2319085 1.25890434
v -0.0492081791 0.244472072 1.20990968
v -0.023232596 0.245118663 1.21359742
v -0.0183949545 0.24667941 1.19764793
v -0.0379228927 0.247617334 1.1953274
v -0.0220322087 0.257861555 1.17106843
v -0.0193458553 0.234733865 1.20221698
v -0.0211074706 0.216795877 1.214908
v -0.0421303324 0.200845346 1.2469461
v -0.0494450331 0.217690632 1.25871444
v -0.0226371642 0.240714282 1.16779363
v -0.0183949545 0.24667941 1.19764793
v -0.0226371642 0.240714282 1.16779363
v -0.0673265159 0.248464212 1.14059103
v -0.0788897946 0.229097024 1.13628376
v -0.043587368 0.255744815 1.1705991
v -0.0220322087 0.257861555 1.17106843
v -0.0679524317 0.243488938 1.18295991
v -0.12012244 0.157540798 1.17247665
v -0.07276164 0.183740005 1.17701912
v -0.116532259 -0.0357110202 1.10241497
v -0.107290573 -0.0576640554 1.11801469
v -0.10067638 -0.0468250364 1.11741257
v -0.0754961818 -0.0791031569 1.12129736
v -0.071718201 -0.0704519525 1.12208378
v -0.106765248 -0.0553357825 1.12466395
v -0.0765270442 -0.0636307523 1.14437377
v -0.0863515809 -0.0217278078 1.13170421
v -0.125177473 0.0382601395 1.14828467
v -0.106765248 -0.0553357825 1.12466395
v -0.0831052661 -0.0605922341 1.14680374
v -0.0869668573 -0.0555978008 1.17313492
v -0.0941611156 -0.0521337837 1.16356373
v -0.0859644264 -0.0333445445 1.12845993
v -0.0782030597 -0.00228000456 1.14447236
v -0.0952188373 -0.0589483343 1.20530772
v -0.071718201 -0.0704519525 1.12208378
v -0.0749507844 -0.0417187475 1.14092529
v -0.0765270442 -0.0636307523 1.14437377
v -0.071718201 -0.0704519525 1.12208378
v -0.071718201 -0.0704519525 1.12208378
v -0.0765270442 -0.0636307523 1.14437377
v -0.0749507844 -0.0417187475 1.14092529
v -0.0869668573 -0.0555978008 1.17313492
v -0.0866020396 -0.0302035548 1.19992769
v -0.0894291773 -0.047984235 1.2072432
v -0.0211074706 0.216795877 1.214908
v -0.0193443727 0.21899268 1.20228672
v -0.0679524317 0.243488938 1.18295991
v -0.056003172 0.280425429 1.19805062
v -0.0653610528 0.239588261 1.20103371
v -0.0598920397 0.258698016 1.21532512
v -0.0629485771 0.243152276 1.22914052
v -0.0537481718 0.30084303 1.18809164
v -0.0598920397 0.258698016 1.21532512
v -0.0492081791 0.244472072 1.20990968
v -0.056003172 0.280425429 1.19805062
v -0.0379228927 0.247617334 1.1953274
v -0.0537481718 0.30084303 1.18809164
v -0.043587368 0.255744815 1.1705991
v -0.0379228927 0.247617334 1.1953274
v -0.043587368 0.255744815 1.1705991
v -0.0679524317 0.243488938 1.18295991
v -0.245115429 0.0989954993 1.14685857
v -0.198898256 0.0740518942 1.16436696
v -0.223417222 0.0813258812 1.12796557
v -0.228891179 0.0925632045 1.16951513
v -0.204289913 0.0808119923 1.2230953
v -0.196254089 0.0760847777 1.22006321
v -0.197279811 0.0830032527 1.22140265
v -0.266421348 0.10602282 1.13127697
v -0.233413175 0.0748410448 1.10428882
v -0.305799842 0.114243589 1.12654221
v -0.235266075 0.11038918 1.103073
v -0.305799842 0.114243589 1.12654221
v -0.266421348 0.10602282 1.13127697
v -0.198705867 0.101706207 1.1677959
v -0.245115429 0.0989954993 1.14685857
v -0.219773367 0.116603792 1.13430405
v -0.228891179 0.0925632045 1.16951513
v -0.204289913 0.0808119923 1.2230953
v -0.197279811 0.0830032527 1.22140265
v -0.266421348 0.10602282 1.13127697
v -0.226041123 0.134918794 1.11418188
v -0.266421348 0.10602282 1.13127697
v -0.305799842 0.114243589 1.12654221
v -0.109102726 -0.0471684821 1.19929647
v -0.0941611156 -0.0521337837 1.16356373
v -0.117116421 -0.0683373362 1.17779326
v -0.13066107 -0.0922952145 1.16175449
v -0.0831052661 -0.0605922341 1.14680374
v -0.144278169 -0.114596114 1.15319002
v -0.106765248 -0.0553357825 1.12466395
v -0.0831052661 -0.0605922341 1.14680374
v -0.109102726 -0.0471684821 1.19929647
v -0.117116421 -0.0683373362 1.17779326
v -0.114393689 -0.0393721238 1.16266108
v -0.13066107 -0.0922952145 1.16175449
v -0.120698757 -0.0401403792 1.14612877
v -0.144278169 -0.114596114 1.15319002
v -0.120698757 -0.0401403792 1.14612877
v -0.106765248 -0.0553357825 1.12466395
v -0.305799842 0.114243589 1.12654221
v -0.235266075 0.11038918 1.103073
v -0.226041123 0.134918794 1.11418188
v -0.0869668573 -0.0555978008 1.17313492
v -0.0952188373 -0.0589483343 1.20530772
v -0.0894291773 -0.047984235 1.2072432
v 0.0869698375 -0.0555978008 1.17313492
v 0.0894332305 -0.047984235 1.2072432
v 0.0952228978 -0.0589483343 1.20530772
v 0.0421344116 0.200845346 1.2469461
v 0.0211115479 0.216795877 1.214908
v 0.0494491123 0.217690632 1.25871444
v -0.023232596 0.245118663 1.21359742
v -0.0489671789 0.2319085 1.25890434
v 1.02937224E-06 0.19645755 1.13961327
v 0.0840330422 0.229097024 1.13628376
v 6.16610009E-07 0.251989305 1.14031398
v 0.0756831989 0.201209128 1.13709414
v 1.02937224E-06 0.19645755 1.13961327
v -0.0788897946 0.229097024 1.13628376
v -0.0767958015 0.198534429 1.13709414
v 6.16610009E-07 0.251989305 1.14031398
v -0.0537252277 -0.0591302179 1.1139847
v -0.0863515809 -0.0217278078 1.13170421
v -0.0859644264 -0.0333445445 1.12845993
v -0.0863515809 -0.0217278078 1.13170421
v -0.0537252277 -0.0591302179 1.1139847
v -0.0675482973 -0.023457313 1.12507975
v -0.0537252277 -0.0591302179 1.1139847
v 6.64591795E-08 -0.0393953212 1.11607659
v -0.0675482973 -0.023457313 1.12507975
v 6.64591795E-08 -0.0393953212 1.11607659
v -0.0537252277 -0.0591302179 1.1139847
v 7.29411838E-08 -0.0669756904 1.11440039
v 0.0543950349 -0.0591302179 1.1139847
v 6.64591795E-08 -0.0393953212 1.11607659
v 0.0543950349 -0.0591302179 1.1139847
v 0.0698326975 -0.0235897042 1.12490273
vt 0.873600602 0.224458471
vt 0.80407244 0.105275176
vt 0.807870805 0.228273109
vt 0.872051775 0.099488616
vt 0.809326112 0.268607318
vt 0.884585381 0.259881705
vt 0.890835345 0.110566877
vt 0.8867383 0.211616054
vt 0.934765577 0.224681586
vt 0.937939644 0.245545074
vt 0.897222042 0.053840965
vt 0.742085934 0.230414942
vt 0.737067223 0.103828013
vt 0.733726978 0.267077327
vt 0.720833182 0.119012825
vt 0.728077292 0.219536632
vt 0.680855453 0.236572415
vt 0.679362595 0.257753789
vt 0.687944531 0.0760361999
vt 0.914353609 0.133096024
vt 0.91854465 0.0696415901
vt 0.920372069 0.0495692641
vt 0.911914945 0.0124682775
vt 0.803548276 0.0684432909
vt 0.803240895 0.0193768144
vt 0.693835557 0.0138781136
vt 0.712829888 0.0532757305
vt 0.685774982 0.053030733
vt 0.696346343 0.143722996
vt 0.677890956 0.126106441
vt 0.932256818 0.115268074
vt 0.585449457 0.427384138
vt 0.517978311 0.438603044
vt 0.580258846 0.446916163
vt 0.54730469 0.357043087
vt 0.486507684 0.362662315
vt 0.455057144 0.451620042
vt 0.419355392 0.388549
vt 0.378713131 0.45832777
vt 0.408301294 0.510797381
vt 0.483056158 0.349522978
vt 0.411680549 0.366342515
vt 0.359692395 0.389560968
vt 0.373560667 0.405607671
vt 0.3119151 0.436500877
vt 0.312202603 0.443003982
vt 0.459918976 0.258506745
vt 0.388386756 0.266203016
vt 0.421874195 0.168118492
vt 0.492389202 0.163674012
vt 0.520165086 0.254737467
vt 0.543770015 0.166429177
vt 0.55129385 0.337181538
vt 0.572990716 0.291784823
vt 0.56112349 0.253901273
vt 0.341472924 0.267965227
vt 0.358314663 0.168646812
vt 0.421477556 0.148141459
vt 0.359142929 0.145693555
vt 0.422850013 0.0785107017
vt 0.497286975 0.142411202
vt 0.513992906 0.0681884438
vt 0.311617732 0.138278976
vt 0.311718851 0.145979226
vt 0.380191237 0.0234264918
vt 0.30216679 0.0160492212
vt 0.268902361 0.152800828
vt 0.311718851 0.145979226
vt 0.2702654 0.169417933
vt 0.211305857 0.148301333
vt 0.233688176 0.26429379
vt 0.176086038 0.241206378
vt 0.151972443 0.137516901
vt 0.128440991 0.220634893
vt 0.109723769 0.130866945
vt 0.0890747085 0.189738318
vt 0.213547185 0.140478685
vt 0.154887646 0.124912336
vt 0.146598071 0.330065161
vt 0.214705884 0.365231782
vt 0.0844952315 0.295790374
vt 0.0810482875 0.218288466
vt 0.0654088408 0.267925024
vt 0.0825956687 0.313745946
vt 0.14228785 0.339727551
vt 0.038681455 0.297378242
vt 0.042889297 0.272074461
vt 0.201767549 0.376612931
vt 0.0986108109 0.37116614
vt 0.1496595 0.402576536
vt 0.260463655 0.38901794
vt 0.24824208 0.405822039
vt 0.3119151 0.436500877
vt 0.306963056 0.440149695
vt 0.238710463 0.457548112
vt 0.272098958 0.334319979
vt 0.300740033 0.25615254
vt 0.184448913 0.449212193
vt 0.257199317 0.33772245
vt 0.255782783 0.266866863
vt 0.309573025 0.199243143
vt 0.33124879 0.165708721
vt 0.311718851 0.145979226
vt 0.27955839 0.21995689
vt 0.282883883 0.18190755
vt 0.704703033 0.800592661
vt 0.761223078 0.774253249
vt 0.703670979 0.779105365
vt 0.761221945 0.801539898
vt 0.731857777 0.727350175
vt 0.761312902 0.725371003
vt 0.761304855 0.723714292
vt 0.73085767 0.708800972
vt 0.761536002 0.691441894
vt 0.734696984 0.677546799
vt 0.763349533 0.582134485
vt 0.728924036 0.620413661
vt 0.653218687 0.555045366
vt 0.817741156 0.800647438
vt 0.818766356 0.779271841
vt 0.790745616 0.727636755
vt 0.790745616 0.727636755
vt 0.788747132 0.678440034
vt 0.796307206 0.621991515
vt 0.791956961 0.709398746
vt 0.867968142 0.56212908
vt 0.0387905315 0.327692509
vt 0.039058432 0.345922977
vt 0.0387905315 0.327692509
vt 0.5963884 0.331434429
vt 0.5963884 0.331434429
vt 0.592282474 0.361787766
vt 0.585449457 0.427384138
vt 0.586426795 0.261670798
vt 0.619581878 0.261237651
vt 0.622591913 0.237874314
vt 0.598153353 0.237777129
vt 0.615409732 0.198223397
vt 0.6635077 0.273110807
vt 0.638629079 0.247805312
vt 0.622591913 0.237874314
vt 0.6635077 0.273110807
vt 0.661955297 0.255031228
vt 0.615409732 0.198223397
vt 0.622591913 0.237874314
vt 0.636476398 0.198568717
vt 0.618580639 0.167835489
vt 0.558550835 0.146356851
vt 0.535554647 0.115799502
vt 0.588596106 0.203389153
vt 0.598153353 0.237777129
vt 0.557715178 0.229057506
vt 0.426890731 0.023889482
vt 0.494479626 0.00955335516
vt 0.111699715 0.109347105
vt 0.0812577382 0.131598562
vt 0.0853079259 0.106348976
vt 0.0376725271 0.126623735
vt 0.0414100289 0.108760633
vt 0.0791230351 0.14398253
vt 0.0431301221 0.169668958
vt 0.0979333594 0.0465402417
vt 0.19822064 0.0164877325
vt 0.0791230351 0.14398253
vt 0.0513578355 0.177029118
vt 0.0419127122 0.220278025
vt 0.0547694713 0.211626381
vt 0.0812572017 0.072674945
vt 0.0597186908 0.0650045946
vt 0.116801776 0.0128574362
vt 0.0547694713 0.211626381
vt 0.042889297 0.272074461
vt 0.0431301221 0.169668958
vt 0.0305193234 0.13504
vt 0.0172285847 0.176847816
vt 0.0376725271 0.126623735
vt 0.0419127122 0.220278025
vt 0.0125508308 0.257446319
vt 0.0125508308 0.257446319
vt 0.0302338544 0.268000424
vt 0.619581878 0.261237651
vt 0.5963884 0.331434429
vt 0.616649687 0.335074782
vt 0.563024223 0.0822450966
vt 0.578701615 0.0975963473
vt 0.605898142 0.0543508306
vt 0.606924176 0.090821296
vt 0.608169615 0.115193546
vt 0.605519176 0.0238181539
vt 0.549615741 0.0455008857
vt 0.563024223 0.0822450966
vt 0.606924176 0.090821296
vt 0.608169615 0.115193546
vt 0.62870717 0.0951077268
vt 0.605898142 0.0543508306
vt 0.645039499 0.0796338618
vt 0.605519176 0.0238181539
vt 0.659831226 0.0497509874
vt 0.884828746 0.756126285
vt 0.842224538 0.810071051
vt 0.883190632 0.796091974
vt 0.843848109 0.759477854
vt 0.882198572 0.873135805
vt 0.870476425 0.87399745
vt 0.876144171 0.880801797
vt 0.887502611 0.714706898
vt 0.824782133 0.738786459
vt 0.891949832 0.65822494
vt 0.810423732 0.695876479
vt 0.887502611 0.714706898
vt 0.891949832 0.65822494
vt 0.919601321 0.808934391
vt 0.884828746 0.756126285
vt 0.883190632 0.796091974
vt 0.924882412 0.762353837
vt 0.882198572 0.873135805
vt 0.890676618 0.873817444
vt 0.887502611 0.714706898
vt 0.94777 0.744600832
vt 0.891949832 0.65822494
vt 0.887502611 0.714706898
vt 0.772754431 0.41722697
vt 0.75573051 0.379360765
vt 0.725983322 0.407268912
vt 0.739177883 0.340662837
vt 0.698831201 0.403447717
vt 0.725754023 0.307575703
vt 0.725983322 0.407268912
vt 0.667217135 0.37778157
vt 0.698831201 0.403447717
vt 0.772754431 0.41722697
vt 0.796934366 0.38019529
vt 0.75573051 0.379360765
vt 0.739177883 0.340662837
vt 0.806653738 0.361851037
vt 0.725754023 0.307575703
vt 0.816782653 0.32482931
vt 0.76640451 0.434596896
vt 0.665713072 0.510560691
vt 0.765473664 0.502801657
vt 0.667685986 0.44705987
vt 0.866391122 0.513723612
vt 0.864852488 0.45117864
vt 0.891949832 0.65822494
vt 0.94777 0.744600832
vt 0.964334607 0.713056028
vt 0.0907536522 0.864644349
vt 0.0925638601 0.885019779
vt 0.155171379 0.890901685
vt 0.140352741 0.804355323
vt 0.199089497 0.823457062
vt 0.214948356 0.917688906
vt 0.260748863 0.863670468
vt 0.288872689 0.941015601
vt 0.250942498 0.986056507
vt 0.204699725 0.811382771
vt 0.272058874 0.843650699
vt 0.319370389 0.877837658
vt 0.303014398 0.89049679
vt 0.356896013 0.940882862
vt 0.358614564 0.934368014
vt 0.242782608 0.727328658
vt 0.311839312 0.750585914
vt 0.295537174 0.64712131
vt 0.22710152 0.627678096
vt 0.184193358 0.709912539
vt 0.176429242 0.61789906
vt 0.139786139 0.783936679
vt 0.126392886 0.734324813
vt 0.14420177 0.69990027
vt 0.357669234 0.762427151
vt 0.357754529 0.661242366
vt 0.299266219 0.627616882
vt 0.360690951 0.638392687
vt 0.308967233 0.558848619
vt 0.226055518 0.60657686
vt 0.223878726 0.528803468
vt 0.408450067 0.640931249
vt 0.407084644 0.648271263
vt 0.359874964 0.513730407
vt 0.437727839 0.523028135
vt 0.447756618 0.664617717
vt 0.407084644 0.648271263
vt 0.443462491 0.680698216
vt 0.505033195 0.672532499
vt 0.463785589 0.781792998
vt 0.524070442 0.771307647
vt 0.565091252 0.674540937
vt 0.574412525 0.761195242
vt 0.607724726 0.677035689
vt 0.61822772 0.739279926
vt 0.504125774 0.664333403
vt 0.564322054 0.661545575
vt 0.538869977 0.864745021
vt 0.466218084 0.885121226
vt 0.60542661 0.844260216
vt 0.621398568 0.768916249
vt 0.628748357 0.820889652
vt 0.604375243 0.862322807
vt 0.541479826 0.875218391
vt 0.650194645 0.855536997
vt 0.650129855 0.829812884
vt 0.476989239 0.898987889
vt 0.579287767 0.915379584
vt 0.523990214 0.935502291
vt 0.417176962 0.898744524
vt 0.426462471 0.917828739
vt 0.358614564 0.934368014
vt 0.363084823 0.939038396
vt 0.427414745 0.970678568
vt 0.414709777 0.842547894
vt 0.482165247 0.974003613
vt 0.645161867 0.885302186
vt 0.641933203 0.903163016
vt 0.428859532 0.849073052
vt 0.441664487 0.779688835
vt 0.426017851 0.728519917
vt 0.428884685 0.690251291
vt 0.407084644 0.648271263
vt 0.399633586 0.759625971
vt 0.40051502 0.701778233
vt 0.384783864 0.663987875
vt 0.0965776965 0.767711997
vt 0.0954376236 0.798578322
vt 0.0965776965 0.767711997
vt 0.118756726 0.701192975
vt 0.0862976313 0.693504214
vt 0.0872903615 0.669676006
vt 0.111201413 0.674725533
vt 0.100463353 0.631518185
vt 0.0701210946 0.676060796
vt 0.041094847 0.69453913
vt 0.0250939988 0.748131037
vt 0.0759827718 0.766424417
vt 0.0793701336 0.628040791
vt 0.0872903615 0.669676006
vt 0.102889918 0.59980309
vt 0.165624455 0.59415859
vt 0.188151255 0.569073677
vt 0.125984073 0.642897546
vt 0.100463353 0.631518185
vt 0.151538163 0.676008344
vt 0.313988775 0.504315615
vt 0.250155538 0.475469202
vt 0.609330893 0.655488074
vt 0.63560468 0.683868408
vt 0.635765672 0.658177078
vt 0.679294705 0.688150704
vt 0.678526223 0.669835865
vt 0.635660648 0.696509242
vt 0.666984379 0.729295909
vt 0.633197784 0.596744239
vt 0.539653718 0.545779824
vt 0.635660648 0.696509242
vt 0.65771842 0.734781146
vt 0.660078347 0.779284537
vt 0.648836792 0.768023252
vt 0.645257711 0.625935674
vt 0.620225012 0.559621334
vt 0.650129855 0.829812884
vt 0.678526223 0.669835865
vt 0.667670429 0.622951984
vt 0.666984379 0.729295909
vt 0.684979379 0.697930336
vt 0.684979379 0.697930336
vt 0.666984379 0.729295909
vt 0.691280961 0.741861045
vt 0.660078347 0.779284537
vt 0.682584345 0.822218835
vt 0.663166106 0.828734457
vt 0.041094847 0.69453913
vt 0.0460927263 0.677066743
vt 0.138213247 0.498195887
vt 0.0950625017 0.470805436
vt 0.122691043 0.513729632
vt 0.0944020748 0.507285357
vt 0.0934006423 0.53167057
vt 0.0951354206 0.440271407
vt 0.0944020748 0.507285357
vt 0.0726638958 0.511827409
vt 0.0950625017 0.470805436
vt 0.0561773777 0.496548235
vt 0.0951354206 0.440271407
vt 0.0410866514 0.466840714
vt 0.0561773777 0.496548235
vt 0.151252612 0.461297184
vt 0.138213247 0.498195887
vt 0.906750679 0.382393479
vt 0.949368238 0.436326861
vt 0.947731793 0.385733336
vt 0.908398986 0.422359109
vt 0.909408271 0.499402434
vt 0.921130776 0.500261545
vt 0.915464044 0.507067084
vt 0.904066443 0.340975136
vt 0.966792822 0.365036666
vt 0.899605811 0.284494281
vt 0.981140792 0.322122961
vt 0.899605811 0.284494281
vt 0.904066443 0.340975136
vt 0.871990979 0.43521145
vt 0.906750679 0.382393479
vt 0.866698205 0.388632625
vt 0.908398986 0.422359109
vt 0.909408271 0.499402434
vt 0.900930345 0.500086665
vt 0.904066443 0.340975136
vt 0.843805909 0.370885104
vt 0.904066443 0.340975136
vt 0.899605811 0.284494281
vt 0.76009804 0.951109052
vt 0.798715413 0.922996819
vt 0.760161102 0.909591675
vt 0.759454846 0.8675071
vt 0.821935654 0.908468246
vt 0.758185804 0.831818461
vt 0.840300441 0.872166455
vt 0.821935654 0.908468246
vt 0.76009804 0.951109052
vt 0.760161102 0.909591675
vt 0.722896159 0.927105606
vt 0.759454846 0.8675071
vt 0.706528723 0.914295614
vt 0.758185804 0.831818461
vt 0.706528723 0.914295614
vt 0.682156086 0.884587824
vt 0.899605811 0.284494281
vt 0.827233732 0.339344472
vt 0.843805909 0.370885104
vt 0.660078347 0.779284537
vt 0.650129855 0.829812884
vt 0.663166106 0.828734457
vt 0.0419127122 0.220278025
vt 0.0302338544 0.268000424
vt 0.042889297 0.272074461
vt 0.669679046 0.32906124
vt 0.6635077 0.273110807
vt 0.616649687 0.335074782
vt 0.0862976313 0.693504214
vt 0.0965776965 0.767711997
vt 0.765473664 0.502801657
vt 0.653218687 0.555045366
vt 0.763349533 0.582134485
vt 0.665713072 0.510560691
vt 0.765473664 0.502801657
vt 0.867968142 0.56212908
vt 0.866391122 0.513723612
vt 0.763349533 0.582134485
vt 0.737067223 0.103828013
vt 0.685774982 0.053030733
vt 0.687944531 0.0760361999
vt 0.685774982 0.053030733
vt 0.737067223 0.103828013
vt 0.712829888 0.0532757305
vt 0.737067223 0.103828013
vt 0.803548276 0.0684432909
vt 0.712829888 0.0532757305
vt 0.803548276 0.0684432909
vt 0.737067223 0.103828013
vt 0.80407244 0.105275176
vt 0.872051775 0.099488616
vt 0.803548276 0.0684432909
vt 0.872051775 0.099488616
vt 0.897222042 0.053840965
vn 0.280809611 -0.6558792 0.700691402
vn -0.000590691052 -0.999965906 -0.00824545883
vn 1.27228657E-06 -0.765478015 0.643462121
vn 0.423338652 -0.876259208 -0.230117664
vn -0 -0.0874089673 0.996172488
vn 0.122203596 -0.187862843 0.97456342
vn 0.62026608 -0.732041717 -0.281753212
vn 0.497381806 -0.774076045 0.391685545
vn -0.288794488 -0.272007883 0.917937636
vn -0.00971684139 -0.25700134 0.966362238
vn 0.180989385 0.414640874 -0.891804755
vn -0.27964741 -0.655298352 0.701698959
vn -0.283830076 -0.948557615 -0.140281811
vn -0.122203581 -0.187862888 0.97456342
vn -0.526794136 -0.833809078 -0.165077254
vn -0.501222432 -0.77011013 0.394596517
vn 0.288792491 -0.272015065 0.917936146
vn 0.00971693173 -0.25700137 0.966362238
vn 0.374423623 0.163083375 -0.912803829
vn -0.120864019 -0.979890466 0.158765629
vn -0.181409925 0.162943736 -0.969814241
vn -0.149189755 0.44016704 -0.885435104
vn -0.138734013 0.559813559 -0.816922009
vn 4.22524354E-05 0.706421733 -0.707791209
vn -5.80188498E-07 0.710371315 -0.703827083
vn 0.138642326 0.557290852 -0.818660617
vn -0.0177749339 0.670363724 -0.741819739
vn 0.291399866 0.467880666 -0.834370196
vn 0.133897051 -0.982481778 0.129619345
vn 0.374423623 0.163083375 -0.912803829
vn -0.181409925 0.162943736 -0.969814241
vn -0.324136585 -0.00859984942 0.945971251
vn -0.158808202 -0.277498931 0.947509527
vn -0.0586383305 -0.0896319747 0.994247198
vn -0.0917595997 -0.148314074 0.984674096
vn -0.0379160084 -0.0816959813 0.995935798
vn -0.172015429 -0.221812293 0.959796846
vn -0.0479880087 0.0115023255 0.998781741
vn -0.444845647 -0.185680479 0.876147926
vn -0.222112566 -0.173297301 0.959496677
vn 0.321374416 0.662070632 0.677038372
vn 0.587849498 0.629321575 0.508318186
vn 0.752312422 0.594307005 0.284297824
vn -0.240650088 0.184203565 0.952972472
vn 0.947181821 0.158986598 0.27851364
vn 0.250999808 -0.273755938 0.928470135
vn 0.513052642 0.828737378 0.223543108
vn 0.857174397 0.509116709 0.0777956396
vn 0.632757425 0.667083144 -0.39321509
vn 0.329040498 0.831820607 -0.446997732
vn 0.370290667 0.900735974 0.227067322
vn 0.00104243017 0.897024691 -0.441979349
vn 0.212591514 0.662279785 0.718463778
vn 0.175704062 0.95156914 0.252278209
vn 0.751698136 0.652116477 0.098457627
vn 0.959929526 0.231054202 0.158585608
vn 0.789121687 0.504052877 -0.351023763
vn -0.11624904 0.0769678727 -0.990233421
vn -0.185938388 0.0973133296 -0.977730513
vn -0.408786833 -0.414438158 -0.813101649
vn -0.133244798 0.0825506002 -0.987639129
vn -0.258815497 -0.684078336 -0.681946695
vn -0.211466357 0.230462849 -0.949825704
vn 0.301127583 0.253864586 -0.919170797
vn -0.622420132 -0.22581926 -0.749398947
vn -0.588246644 0.15712361 -0.793270528
vn -0.204444394 0.262170315 -0.943116784
vn 0.301127583 0.253864586 -0.919170797
vn 0.836874962 -0.158033863 -0.524085402
vn 0.638988376 -0.504240096 -0.580892205
vn 0.931960285 -0.296154886 0.209146753
vn 0.784929693 -0.607193589 0.123293653
vn 0.334592789 -0.755695462 -0.563002646
vn 0.646897078 -0.756697476 0.0945155844
vn 0.126013517 -0.813785255 -0.567339599
vn 0.903452337 -0.414621979 0.108915083
vn -0.261721849 0.199153945 -0.944372535
vn -0.352413535 0.11458496 -0.928803027
vn 0.53356576 -0.634578109 0.559122622
vn 0.697106242 -0.418337524 0.582268476
vn 0.328392684 -0.773871541 0.541554391
vn 0.915133536 -0.368933618 0.162538096
vn 0.523816705 -0.844398201 -0.112284087
vn -0.252318919 -0.121644549 0.959967613
vn -0.176944494 -0.173619837 0.968786299
vn -0.711991668 -0.171140417 0.681013048
vn -0.142889529 -0.889575601 0.433863968
vn -0.161592752 -0.232882813 0.958985627
vn -0.317259818 -0.0718121082 0.945615828
vn -0.245789751 -0.205425978 0.947305501
vn 0.780810356 -0.58837384 0.210122496
vn -0.257975966 -0.423171759 0.868547142
vn 0.947181821 0.158986598 0.27851364
vn 0.250999808 -0.273755938 0.928470135
vn -0.444845647 -0.185680479 0.876147926
vn 0.930662334 0.347077638 0.115778618
vn 0.72442621 0.542810202 0.42492795
vn -0.222112566 -0.173297301 0.959496677
vn 0.923920214 -0.382580966 0.00180951855
vn 0.847209215 -0.469255596 0.249069631
vn 0.56649226 0.544681132 0.618392169
vn 0.83662498 0.449425757 0.31316945
vn 0.301127583 0.253864586 -0.919170797
vn 0.681532085 -0.63324666 0.366759837
vn 0.866388679 -0.458404481 0.198080972
vn -0.0586383305 -0.0896319747 0.994247198
vn -0 0.590967655 0.806695282
vn -0.324136585 -0.00859984942 0.945971251
vn -0 -0.0388230793 0.99924612
vn -0.530247808 0.71039474 0.462792277
vn -0 0.975481153 0.220083117
vn -0 0.81630826 0.577616453
vn -0.352391064 0.496056587 0.793566942
vn 6.47072909E-07 0.548848093 0.835922122
vn -0.687832534 0.48115623 0.543484211
vn -0.00472949026 0.982643664 0.18544291
vn -0.306819946 0.925861597 -0.220548972
vn -0.233661145 0.083025597 -0.968766928
vn 0.058638338 -0.0896320045 0.994247198
vn 0.324136555 -0.00859984662 0.945971251
vn 0.530247808 0.71039474 0.462792188
vn 0.530247808 0.71039474 0.462792188
vn 0.687831402 0.481160223 0.543482006
vn 0.304133415 0.924815059 -0.228516772
vn 0.352391183 0.496056616 0.793566763
vn 0.222090557 0.112588763 -0.968503714
vn -0.288794488 -0.272007883 0.917937636
vn -0.00971684139 -0.25700134 0.966362238
vn -0.288794488 -0.272007883 0.917937636
vn -0.411171556 0.492460847 0.767085612
vn -0.411171556 0.492460847 0.767085612
vn -0.467204213 -0.191083118 0.863254011
vn -0.324136585 -0.00859984942 0.945971251
vn -0.432389677 0.770346463 0.468620688
vn -0.600808263 0.70534879 0.376181513
vn -0.810863674 0.567698717 0.142190486
vn -0.388339341 0.84033525 0.378191918
vn -0.643326759 0.72829175 -0.236054495
vn -0.530247808 0.71039474 0.462792277
vn -0.687832534 0.48115623 0.543484211
vn -0.810863674 0.567698717 0.142190486
vn -0.530247808 0.71039474 0.462792277
vn -0.352391064 0.496056587 0.793566942
vn -0.643326759 0.72829175 -0.236054495
vn -0.810863674 0.567698717 0.142190486
vn -0.306819946 0.925861597 -0.220548972
vn -0.306819946 0.925861597 -0.220548972
vn -0.434312999 0.107388467 -0.894337714
vn -0.233661145 0.083025597 -0.968766928
vn -0.00621046452 0.995841682 0.0908885822
vn -0.388339341 0.84033525 0.378191918
vn 0.604584336 0.758066177 0.244567677
vn -0.604718506 -0.609141409 -0.513090968
vn -0.367080748 -0.842026711 -0.395275354
vn -0.497797102 0.0408812985 -0.866329491
vn 0.358706743 -0.838967919 -0.40922147
vn -0.456309915 -0.0268705338 -0.889415085
vn -0.240494043 -0.910759747 -0.335677534
vn -0.863927901 -0.102354228 -0.493104517
vn 0.555509329 -0.821788847 -0.126777038
vn -0.525800407 -0.710136831 0.468230367
vn -0.149189755 0.44016704 -0.885435104
vn -0.520352542 0.436641097 -0.733878613
vn 0.555509329 -0.821788847 -0.126777038
vn 0.0802003145 -0.988247693 0.130132809
vn -0.485861897 -0.86586684 0.119217739
vn -0.109844647 -0.935733318 0.335167527
vn -0.181409925 0.162943736 -0.969814241
vn -0.120864019 -0.979890466 0.158765629
vn -0.138734013 0.559813559 -0.816922009
vn -0.109844647 -0.935733318 0.335167527
vn -0.142889529 -0.889575601 0.433863968
vn -0.525800407 -0.710136831 0.468230367
vn -0.863927901 -0.102354228 -0.493104517
vn -0.120864019 -0.979890466 0.158765629
vn -0.240494043 -0.910759747 -0.335677534
vn -0.485861897 -0.86586684 0.119217739
vn -0.288794488 -0.272007883 0.917937636
vn -0.288794488 -0.272007883 0.917937636
vn -0.711991668 -0.171140417 0.681013048
vn -0.600808263 0.70534879 0.376181513
vn -0.411171556 0.492460847 0.767085612
vn -0.467204213 -0.191083118 0.863254011
vn 0.604584336 0.758066177 0.244567677
vn 0.751698136 0.652116477 0.098457627
vn 0.286122888 0.486503363 0.82549876
vn 0.258219332 0.645740092 0.718569756
vn 0.175704062 0.95156914 0.252278209
vn 0.0326774269 0.998948514 -0.0321583375
vn -0.00621046452 0.995841682 0.0908885822
vn 0.604584336 0.758066177 0.244567677
vn 0.258219332 0.645740092 0.718569756
vn 0.175704062 0.95156914 0.252278209
vn -0.432389677 0.770346463 0.468620688
vn 0.286122888 0.486503363 0.82549876
vn -0.388339341 0.84033525 0.378191918
vn 0.0326774269 0.998948514 -0.0321583375
vn -0.00621046452 0.995841682 0.0908885822
vn 0.683535874 -0.0670351461 0.726832151
vn 0.847209215 -0.469255596 0.249069631
vn 0.847591162 0.0338154286 0.529571176
vn 0.681532085 -0.63324666 0.366759837
vn 0.587017775 -0.0283859596 0.80907619
vn 0.923920214 -0.382580966 0.00180951855
vn 0.930662334 0.347077638 0.115778618
vn 0.282340646 -0.149069786 0.94766134
vn 0.866388679 -0.458404481 0.198080972
vn 0.98091507 0.134185791 0.140711516
vn 0.301127583 0.253864586 -0.919170797
vn 0.282340646 -0.149069786 0.94766134
vn 0.98091507 0.134185791 0.140711516
vn 0.72442621 0.542810202 0.42492795
vn 0.683535874 -0.0670351461 0.726832151
vn 0.847591162 0.0338154286 0.529571176
vn 0.56649226 0.544681132 0.618392169
vn 0.587017775 -0.0283859596 0.80907619
vn 0.930662334 0.347077638 0.115778618
vn 0.282340646 -0.149069786 0.94766134
vn 0.83662498 0.449425757 0.31316945
vn 0.98091507 0.134185791 0.140711516
vn 0.282340646 -0.149069786 0.94766134
vn 0.523816705 -0.844398201 -0.112284087
vn 0.278046221 -0.50400722 0.817720592
vn -0.109844647 -0.935733318 0.335167527
vn 0.225044906 -0.263947129 0.937916219
vn 0.0802003145 -0.988247693 0.130132809
vn 0.539034188 -0.840727746 0.0511763692
vn -0.109844647 -0.935733318 0.335167527
vn 0.555509329 -0.821788847 -0.126777038
vn 0.0802003145 -0.988247693 0.130132809
vn 0.523816705 -0.844398201 -0.112284087
vn 0.915133536 -0.368933618 0.162538096
vn 0.278046221 -0.50400722 0.817720592
vn 0.225044906 -0.263947129 0.937916219
vn 0.903452337 -0.414621979 0.108915083
vn 0.539034188 -0.840727746 0.0511763692
vn 0.555509329 -0.821788847 -0.126777038
vn 0.0102742454 -0.997258306 -0.0732816309
vn -0.258815497 -0.684078336 -0.681946695
vn 0.0177469309 -0.996389568 0.0830231309
vn -0.367080748 -0.842026711 -0.395275354
vn 0.256376117 -0.679640234 -0.687284887
vn 0.36521095 -0.860294104 -0.355689585
vn 0.98091507 0.134185791 0.140711516
vn 0.83662498 0.449425757 0.31316945
vn 0.301127583 0.253864586 -0.919170797
vn 0.324136555 -0.00859984662 0.945971251
vn 0.058638338 -0.0896320045 0.994247198
vn 0.158808172 -0.277498841 0.947509527
vn 0.091759555 -0.148314029 0.984674096
vn 0.0379160084 -0.0816959962 0.995935798
vn 0.172015503 -0.221812293 0.959796846
vn 0.0479880758 0.0115022408 0.998781741
vn 0.444845647 -0.185680479 0.876147926
vn 0.222112656 -0.173297286 0.959496677
vn -0.321374387 0.662070572 0.677038372
vn -0.587840617 0.629322827 0.508326888
vn -0.752311409 0.594301641 0.284311563
vn 0.240649745 0.184203237 0.95297271
vn -0.251004189 -0.273752123 0.928470016
vn -0.947183669 0.158986509 0.278507262
vn -0.513041437 0.82874012 0.223558009
vn -0.857164502 0.509129465 0.0778212696
vn -0.632756054 0.667090118 -0.393205702
vn -0.329045981 0.831823587 -0.446988076
vn -0.370289862 0.900734484 0.227074668
vn -0.00104895129 0.897027254 -0.441973984
vn -0.212591469 0.662279785 0.718463778
vn -0.175703987 0.95156914 0.252278358
vn -0.751698434 0.652115226 0.0984643698
vn -0.95992744 0.231043249 0.158613935
vn -0.789121509 0.504056096 -0.351019412
vn 0.116247475 0.0769688711 -0.990233541
vn 0.185936764 0.0973135307 -0.97773087
vn 0.402880579 -0.416126221 -0.815184832
vn 0.129064366 0.0844369605 -0.988034785
vn 0.256376117 -0.679640234 -0.687284887
vn 0.211465895 0.230462819 -0.949825823
vn -0.301127762 0.253864646 -0.919170678
vn 0.622412443 -0.225831032 -0.749401808
vn 0.588245511 0.157124236 -0.793271184
vn 0.204443663 0.262170434 -0.943116784
vn -0.301127762 0.253864646 -0.919170678
vn -0.836875975 -0.158037454 -0.524082839
vn -0.638991117 -0.504239917 -0.580889404
vn -0.931956053 -0.296146691 0.209177107
vn -0.784929633 -0.607188821 0.123317443
vn -0.334593564 -0.755696893 -0.563000381
vn -0.646887839 -0.75670284 0.0945353732
vn -0.126015887 -0.813789725 -0.567332506
vn -0.903448403 -0.414619565 0.108956993
vn 0.261720598 0.199153185 -0.944373071
vn 0.352411747 0.114582203 -0.92880404
vn -0.533556044 -0.63457495 0.559135497
vn -0.697100341 -0.418331474 0.58227998
vn -0.328383327 -0.77387023 0.541561723
vn -0.915124834 -0.368936688 0.162579611
vn -0.523814559 -0.844401062 -0.112272687
vn 0.252318799 -0.121644549 0.959967613
vn 0.176944569 -0.173619777 0.968786299
vn 0.711999476 -0.171143919 0.681003988
vn 0.142900154 -0.889574111 0.433863521
vn 0.161592752 -0.232882813 0.958985627
vn 0.317259908 -0.0718120784 0.945615828
vn 0.245789856 -0.205425993 0.947305381
vn -0.780809879 -0.588374138 0.210123345
vn 0.257975668 -0.423171461 0.86854732
vn -0.947183669 0.158986509 0.278507262
vn -0.251004189 -0.273752123 0.928470016
vn 0.444845647 -0.185680479 0.876147926
vn -0.930667102 0.347059041 0.115796298
vn 0.222112656 -0.173297286 0.959496677
vn 0.288792491 -0.272015065 0.917936146
vn 0.00971693173 -0.25700137 0.966362238
vn -0.923924387 -0.382570684 0.00183287344
vn -0.847201765 -0.469251841 0.24910216
vn -0.681521952 -0.633253515 0.366766781
vn -0.866388559 -0.458404481 0.198080957
vn -0.301127762 0.253864646 -0.919170678
vn -0.724422574 0.542796016 0.424952149
vn -0.566485405 0.544680476 0.618399084
vn -0.83662498 0.449425638 0.313169479
vn 0.411171556 0.492460757 0.767085612
vn 0.467204183 -0.191083133 0.863254011
vn 0.411171556 0.492460757 0.767085612
vn 0.432389587 0.770346582 0.468620777
vn 0.600808442 0.70534873 0.376181304
vn 0.810870469 0.567694306 0.142169744
vn 0.388337404 0.840337932 0.378188014
vn 0.643319249 0.728294253 -0.236067578
vn 0.687831402 0.481160223 0.543482006
vn 0.530247808 0.71039474 0.462792188
vn 0.324136555 -0.00859984662 0.945971251
vn 0.467204183 -0.191083133 0.863254011
vn 0.304133415 0.924815059 -0.228516772
vn 0.810870469 0.567694306 0.142169744
vn 0.304133415 0.924815059 -0.228516772
vn 0.428284615 0.158594713 -0.88961786
vn 0.222090557 0.112588763 -0.968503714
vn 0.00620722724 0.995842159 0.0908843875
vn 0.643319249 0.728294253 -0.236067578
vn -0.60457921 0.758065283 0.244583428
vn 0.59999764 -0.620497644 -0.504961014
vn 0.36521095 -0.860294104 -0.355689585
vn 0.497793257 0.0408772901 -0.866331816
vn -0.358710736 -0.838971198 -0.409211308
vn 0.456305116 -0.026873691 -0.88941741
vn 0.24047555 -0.910763204 -0.33568114
vn 0.863915265 -0.102358423 -0.493125737
vn -0.555517673 -0.821785152 -0.126763985
vn 0.525825679 -0.710133731 0.468206584
vn 0.291399866 0.467880666 -0.834370196
vn 0.520349443 0.436642557 -0.733879924
vn -0.555517673 -0.821785152 -0.126763985
vn -0.080200702 -0.988245904 0.13014552
vn 0.485871643 -0.8658638 0.119200125
vn 0.109848797 -0.935734928 0.335161984
vn 0.374423623 0.163083375 -0.912803829
vn 0.138642326 0.557290852 -0.818660617
vn 0.142900154 -0.889574111 0.433863521
vn 0.863915265 -0.102358423 -0.493125737
vn 0.133897051 -0.982481778 0.129619345
vn 0.525825679 -0.710133731 0.468206584
vn 0.863915265 -0.102358423 -0.493125737
vn 0.863915265 -0.102358423 -0.493125737
vn 0.525825679 -0.710133731 0.468206584
vn 0.133897051 -0.982481778 0.129619345
vn 0.485871643 -0.8658638 0.119200125
vn 0.288792491 -0.272015065 0.917936146
vn 0.711999476 -0.171143919 0.681003988
vn 0.530247808 0.71039474 0.462792188
vn 0.352391183 0.496056616 0.793566763
vn -0.60457921 0.758065283 0.244583428
vn -0.286117524 0.486502439 0.825501144
vn -0.751698434 0.652115226 0.0984643698
vn -0.258219689 0.645740092 0.718569636
vn -0.175703987 0.95156914 0.252278358
vn -0.0326718651 0.998948634 -0.0321583152
vn -0.258219689 0.645740092 0.718569636
vn 0.432389587 0.770346582 0.468620777
vn -0.286117524 0.486502439 0.825501144
vn 0.388337404 0.840337932 0.378188014
vn -0.0326718651 0.998948634 -0.0321583152
vn 0.00620722724 0.995842159 0.0908843875
vn 0.388337404 0.840337932 0.378188014
vn 0.00620722724 0.995842159 0.0908843875
vn -0.60457921 0.758065283 0.244583428
vn -0.683524907 -0.0670390055 0.726842165
vn -0.847201765 -0.469251841 0.24910216
vn -0.681521952 -0.633253515 0.366766781
vn -0.847570837 0.0338098034 0.529604077
vn -0.587002099 -0.0283856969 0.809087694
vn -0.923924387 -0.382570684 0.00183287344
vn -0.930667102 0.347059041 0.115796298
vn -0.28234002 -0.149069726 0.947661519
vn -0.866388559 -0.458404481 0.198080957
vn -0.980915189 0.134185404 0.140711725
vn -0.301127762 0.253864646 -0.919170678
vn -0.980915189 0.134185404 0.140711725
vn -0.28234002 -0.149069726 0.947661519
vn -0.724422574 0.542796016 0.424952149
vn -0.683524907 -0.0670390055 0.726842165
vn -0.566485405 0.544680476 0.618399084
vn -0.847570837 0.0338098034 0.529604077
vn -0.587002099 -0.0283856969 0.809087694
vn -0.930667102 0.347059041 0.115796298
vn -0.28234002 -0.149069726 0.947661519
vn -0.83662498 0.449425638 0.313169479
vn -0.28234002 -0.149069726 0.947661519
vn -0.980915189 0.134185404 0.140711725
vn -0.523814559 -0.844401062 -0.112272687
vn 0.109848797 -0.935734928 0.335161984
vn -0.278007627 -0.504015863 0.8177284
vn -0.22502166 -0.263949633 0.937920988
vn -0.080200702 -0.988245904 0.13014552
vn -0.539049566 -0.840717673 0.0511786304
vn -0.555517673 -0.821785152 -0.126763985
vn -0.080200702 -0.988245904 0.13014552
vn -0.523814559 -0.844401062 -0.112272687
vn -0.278007627 -0.504015863 0.8177284
vn -0.915124834 -0.368936688 0.162579611
vn -0.22502166 -0.263949633 0.937920988
vn -0.903448403 -0.414619565 0.108956993
vn -0.539049566 -0.840717673 0.0511786304
vn -0.903448403 -0.414619565 0.108956993
vn -0.555517673 -0.821785152 -0.126763985
vn -0.980915189 0.134185404 0.140711725
vn -0.301127762 0.253864646 -0.919170678
vn -0.83662498 0.449425638 0.313169479
vn 0.485871643 -0.8658638 0.119200125
vn 0.142900154 -0.889574111 0.433863521
vn 0.711999476 -0.171143919 0.681003988
vn -0.485861897 -0.86586684 0.119217739
vn -0.711991668 -0.171140417 0.681013048
vn -0.142889529 -0.889575601 0.433863968
vn -0.324136585 -0.00859984942 0.945971251
vn -0.530247808 0.71039474 0.462792277
vn -0.467204213 -0.191083118 0.863254011
vn 0.600808442 0.70534873 0.376181304
vn 0.411171556 0.492460757 0.767085612
vn -0.0444746427 0.0126038929 -0.998930991
vn -0.0444746427 0.0126038929 -0.998930991
vn -0.044474639 0.012603892 -0.998930991
vn -0.0320406742 -0.0194453634 -0.99929738
vn 0.0321181826 -0.0242938101 -0.99918884
vn 0.0321181864 -0.024293812 -0.99918884
vn 0.0321181826 -0.0242938101 -0.99918884
vn 0.0473669469 0.0126028983 -0.998798013
vn -0.218313068 0.255731046 -0.941775501
vn -0.218313068 0.255731016 -0.941775501
vn -0.218313068 0.255731016 -0.941775501
vn -0.313629925 0.16907759 -0.934370995
vn -0.313629955 0.16907759 -0.934370995
vn -0.313629955 0.16907759 -0.934370995
vn -0.0632675514 0.273956746 -0.959658682
vn -0.0632675588 0.273956746 -0.959658682
vn -0.0632675588 0.273956716 -0.959658682
vn 0.0165785309 0.0606540442 -0.998021126
vn 0.0165785328 0.0606540479 -0.998021126
vn 0.0165785309 0.0606540479 -0.998021126
vn -0.0163744856 0.0606542416 -0.998024464
vn 0.0606155768 0.268961817 -0.961241543
vn 0.0606155843 0.268961817 -0.961241543
vn 0.0606155843 0.268961817 -0.961241543
g blue_mag_m_pve_1_belt_0
f 3/3/3 2/2/2 1/1/1
f 4/4/4 1/1/1 2/2/2
f 3/3/3 1/1/1 5/5/5
f 6/6/6 5/5/5 1/1/1
f 4/4/4 7/7/7 1/1/1
f 8/8/8 1/1/1 7/7/7
f 1/1/1 8/8/8 6/6/6
f 8/8/8 9/9/9 6/6/6
f 10/10/10 6/6/6 9/9/9
f 11/11/11 7/7/7 4/4/4
f 3/3/3 12/12/12 2/2/2
f 3/3/3 5/5/5 12/12/12
f 13/13/13 2/2/2 12/12/12
f 14/14/14 12/12/12 5/5/5
f 13/13/13 12/12/12 15/15/15
f 16/16/16 15/15/15 12/12/12
f 16/16/16 12/12/12 14/14/14
f 16/16/16 14/14/14 17/17/17
f 18/18/18 17/17/17 14/14/14
f 15/15/15 19/19/19 13/13/13
f 9/9/9 8/8/8 20/20/20
f 7/7/7 20/20/20 8/8/8
f 21/21/21 7/7/7 11/11/11
f 22/22/22 21/21/21 11/11/11
f 11/11/11 23/23/23 22/22/22
f 11/11/11 24/24/24 23/23/23
f 25/25/25 23/23/23 24/24/24
f 25/25/25 24/24/24 26/26/26
f 27/27/27 26/26/26 24/24/24
f 26/26/26 27/27/27 28/28/28
f 17/17/17 29/29/29 16/16/16
f 15/15/15 16/16/16 29/29/29
f 29/29/29 30/30/30 15/15/15
f 20/20/20 7/7/7 31/31/31
f 34/34/34 33/33/33 32/32/32
f 32/32/32 33/33/33 35/35/35
f 36/36/36 35/35/35 33/33/33
f 33/33/33 37/37/37 36/36/36
f 38/38/38 36/36/36 37/37/37
f 38/38/38 37/37/37 39/39/39
f 40/40/40 39/39/39 37/37/37
f 36/36/36 38/38/38 41/41/41
f 42/42/42 41/41/41 38/38/38
f 42/42/42 38/38/38 43/43/43
f 44/44/44 43/43/43 38/38/38
f 38/38/38 39/39/39 44/44/44
f 43/43/43 44/44/44 45/45/45
f 46/46/46 45/45/45 44/44/44
f 44/44/44 39/39/39 46/46/46
f 41/41/41 42/42/42 47/47/47
f 48/48/48 47/47/47 42/42/42
f 42/42/42 43/43/43 48/48/48
f 48/48/48 49/49/49 47/47/47
f 50/50/50 47/47/47 49/49/49
f 47/47/47 50/50/50 51/51/51
f 52/52/52 51/51/51 50/50/50
f 51/51/51 53/53/53 47/47/47
f 41/41/41 47/47/47 53/53/53
f 53/53/53 51/51/51 54/54/54
f 55/55/55 54/54/54 51/51/51
f 48/48/48 56/56/56 49/49/49
f 56/56/56 48/48/48 43/43/43
f 57/57/57 49/49/49 56/56/56
f 49/49/49 57/57/57 58/58/58
f 59/59/59 58/58/58 57/57/57
f 60/60/60 58/58/58 59/59/59
f 58/58/58 60/60/60 61/61/61
f 58/58/58 61/61/61 49/49/49
f 50/50/50 49/49/49 61/61/61
f 62/62/62 61/61/61 60/60/60
f 59/59/59 57/57/57 63/63/63
f 64/64/64 63/63/63 57/57/57
f 59/59/59 63/63/63 65/65/65
f 65/65/65 60/60/60 59/59/59
f 66/66/66 65/65/65 63/63/63
f 63/63/63 67/67/67 66/66/66
f 63/63/63 68/68/68 67/67/67
f 69/69/69 67/67/67 68/68/68
f 69/69/69 70/70/70 67/67/67
f 69/69/69 71/71/71 70/70/70
f 72/72/72 70/70/70 71/71/71
f 70/70/70 72/72/72 73/73/73
f 74/74/74 73/73/73 72/72/72
f 73/73/73 74/74/74 75/75/75
f 76/76/76 75/75/75 74/74/74
f 77/77/77 67/67/67 70/70/70
f 70/70/70 73/73/73 77/77/77
f 78/78/78 77/77/77 73/73/73
f 73/73/73 75/75/75 78/78/78
f 72/72/72 71/71/71 79/79/79
f 80/80/80 79/79/79 71/71/71
f 74/74/74 72/72/72 81/81/81
f 79/79/79 81/81/81 72/72/72
f 74/74/74 81/81/81 82/82/82
f 76/76/76 74/74/74 82/82/82
f 83/83/83 82/82/82 81/81/81
f 81/81/81 79/79/79 84/84/84
f 85/85/85 84/84/84 79/79/79
f 79/79/79 80/80/80 85/85/85
f 84/84/84 86/86/86 81/81/81
f 87/87/87 81/81/81 86/86/86
f 88/88/88 85/85/85 80/80/80
f 85/85/85 88/88/88 89/89/89
f 89/89/89 84/84/84 85/85/85
f 90/90/90 89/89/89 88/88/88
f 80/80/80 91/91/91 88/88/88
f 92/92/92 88/88/88 91/91/91
f 91/91/91 93/93/93 92/92/92
f 94/94/94 92/92/92 93/93/93
f 95/95/95 92/92/92 94/94/94
f 95/95/95 88/88/88 92/92/92
f 93/93/93 91/91/91 96/96/96
f 43/43/43 93/93/93 96/96/96
f 43/43/43 96/96/96 56/56/56
f 97/97/97 56/56/56 96/96/96
f 98/98/98 88/88/88 95/95/95
f 98/98/98 90/90/90 88/88/88
f 96/96/96 91/91/91 99/99/99
f 91/91/91 80/80/80 99/99/99
f 80/80/80 71/71/71 99/99/99
f 100/100/100 99/99/99 71/71/71
f 97/97/97 101/101/101 56/56/56
f 101/101/101 57/57/57 56/56/56
f 102/102/102 57/57/57 101/101/101
f 103/103/103 57/57/57 102/102/102
f 100/100/100 71/71/71 104/104/104
f 71/71/71 69/69/69 104/104/104
f 105/105/105 104/104/104 69/69/69
f 103/103/103 105/105/105 69/69/69
f 108/108/108 107/107/107 106/106/106
f 109/109/109 106/106/106 107/107/107
f 108/108/108 110/110/110 107/107/107
f 111/111/111 107/107/107 110/110/110
f 111/111/111 110/110/110 112/112/112
f 113/113/113 112/112/112 110/110/110
f 112/112/112 113/113/113 114/114/114
f 115/115/115 114/114/114 113/113/113
f 114/114/114 115/115/115 116/116/116
f 117/117/117 116/116/116 115/115/115
f 118/118/118 116/116/116 117/117/117
f 109/109/109 107/107/107 119/119/119
f 120/120/120 119/119/119 107/107/107
f 120/120/120 107/107/107 121/121/121
f 111/111/111 122/122/122 107/107/107
f 111/111/111 112/112/112 122/122/122
f 114/114/114 116/116/116 123/123/123
f 124/124/124 123/123/123 116/116/116
f 123/123/123 125/125/125 114/114/114
f 112/112/112 114/114/114 125/125/125
f 125/125/125 122/122/122 112/112/112
f 116/116/116 126/126/126 124/124/124
f 128/128/128 127/127/127 89/89/89
f 89/89/89 127/127/127 84/84/84
f 86/86/86 84/84/84 129/129/129
f 53/53/53 130/130/130 35/35/35
f 35/35/35 36/36/36 53/53/53
f 41/41/41 53/53/53 36/36/36
f 132/132/132 35/35/35 131/131/131
f 133/133/133 35/35/35 132/132/132
f 131/131/131 53/53/53 54/54/54
f 54/54/54 134/134/134 130/130/130
f 135/135/135 131/131/131 134/134/134
f 134/134/134 136/136/136 135/135/135
f 134/134/134 137/137/137 136/136/136
f 136/136/136 137/137/137 138/138/138
f 135/135/135 140/140/140 139/139/139
f 141/141/141 140/140/140 135/135/135
f 143/143/143 142/142/142 140/140/140
f 145/145/145 144/144/144 140/140/140
f 146/146/146 140/140/140 144/144/144
f 144/144/144 52/52/52 147/147/147
f 148/148/148 147/147/147 52/52/52
f 52/52/52 50/50/50 148/148/148
f 61/61/61 148/148/148 50/50/50
f 148/148/148 149/149/149 147/147/147
f 61/61/61 149/149/149 148/148/148
f 62/62/62 149/149/149 61/61/61
f 138/138/138 150/150/150 52/52/52
f 150/150/150 138/138/138 151/151/151
f 150/150/150 152/152/152 52/52/52
f 152/152/152 51/51/51 52/52/52
f 55/55/55 51/51/51 152/152/152
f 60/60/60 153/153/153 62/62/62
f 154/154/154 62/62/62 153/153/153
f 153/153/153 60/60/60 65/65/65
f 155/155/155 78/78/78 75/75/75
f 75/75/75 156/156/156 155/155/155
f 157/157/157 155/155/155 156/156/156
f 156/156/156 158/158/158 157/157/157
f 159/159/159 157/157/157 158/158/158
f 156/156/156 75/75/75 160/160/160
f 76/76/76 160/160/160 75/75/75
f 161/161/161 158/158/158 156/156/156
f 155/155/155 162/162/162 78/78/78
f 155/155/155 157/157/157 162/162/162
f 162/162/162 77/77/77 78/78/78
f 163/163/163 77/77/77 162/162/162
f 77/77/77 163/163/163 67/67/67
f 66/66/66 67/67/67 163/163/163
f 156/156/156 164/164/164 161/161/161
f 165/165/165 161/161/161 164/164/164
f 161/161/161 165/165/165 166/166/166
f 167/167/167 166/166/166 165/165/165
f 159/159/159 168/168/168 157/157/157
f 168/168/168 162/162/162 157/157/157
f 168/168/168 159/159/159 169/169/169
f 162/162/162 170/170/170 163/163/163
f 166/166/166 171/171/171 87/87/87
f 83/83/83 172/172/172 171/171/171
f 172/172/172 83/83/83 81/81/81
f 175/175/175 174/174/174 173/173/173
f 176/176/176 173/173/173 174/174/174
f 173/173/173 177/177/177 175/175/175
f 178/178/178 175/175/175 177/177/177
f 180/180/180 179/179/179 177/177/177
f 183/183/183 182/182/182 181/181/181
f 186/186/186 185/185/185 184/184/184
f 186/186/186 187/187/187 185/185/185
f 187/187/187 188/188/188 185/185/185
f 186/186/186 184/184/184 189/189/189
f 189/189/189 191/191/191 190/190/190
f 194/194/194 193/193/193 192/192/192
f 192/192/192 195/195/195 194/194/194
f 196/196/196 194/194/194 195/195/195
f 197/197/197 196/196/196 195/195/195
f 198/198/198 196/196/196 197/197/197
f 201/201/201 200/200/200 199/199/199
f 202/202/202 199/199/199 200/200/200
f 201/201/201 203/203/203 200/200/200
f 204/204/204 200/200/200 203/203/203
f 203/203/203 205/205/205 204/204/204
f 199/199/199 202/202/202 206/206/206
f 206/206/206 202/202/202 207/207/207
f 207/207/207 209/209/209 208/208/208
f 211/211/211 210/210/210 207/207/207
f 214/214/214 213/213/213 212/212/212
f 215/215/215 212/212/212 213/213/213
f 214/214/214 212/212/212 216/216/216
f 217/217/217 216/216/216 212/212/212
f 213/213/213 218/218/218 215/215/215
f 219/219/219 215/215/215 218/218/218
f 221/221/221 220/220/220 219/219/219
f 224/224/224 223/223/223 222/222/222
f 223/223/223 224/224/224 225/225/225
f 227/227/227 225/225/225 226/226/226
f 225/225/225 228/228/228 226/226/226
f 227/227/227 230/230/230 229/229/229
f 233/233/233 232/232/232 231/231/231
f 233/233/233 234/234/234 232/232/232
f 235/235/235 232/232/232 234/234/234
f 234/234/234 236/236/236 235/235/235
f 236/236/236 237/237/237 235/235/235
f 240/240/240 239/239/239 238/238/238
f 241/241/241 238/238/238 239/239/239
f 240/240/240 238/238/238 242/242/242
f 243/243/243 242/242/242 238/238/238
f 246/246/246 245/245/245 244/244/244
f 249/249/249 248/248/248 247/247/247
f 247/247/247 250/250/250 249/249/249
f 251/251/251 249/249/249 250/250/250
f 249/249/249 251/251/251 252/252/252
f 253/253/253 252/252/252 251/251/251
f 253/253/253 254/254/254 252/252/252
f 255/255/255 252/252/252 254/254/254
f 251/251/251 256/256/256 253/253/253
f 257/257/257 253/253/253 256/256/256
f 257/257/257 258/258/258 253/253/253
f 259/259/259 253/253/253 258/258/258
f 254/254/254 253/253/253 259/259/259
f 254/254/254 259/259/259 260/260/260
f 258/258/258 261/261/261 259/259/259
f 260/260/260 259/259/259 261/261/261
f 256/256/256 262/262/262 257/257/257
f 263/263/263 257/257/257 262/262/262
f 257/257/257 263/263/263 258/258/258
f 263/263/263 262/262/262 264/264/264
f 265/265/265 264/264/264 262/262/262
f 262/262/262 266/266/266 265/265/265
f 267/267/267 265/265/265 266/266/266
f 256/256/256 268/268/268 262/262/262
f 266/266/266 262/262/262 268/268/268
f 268/268/268 269/269/269 266/266/266
f 270/270/270 266/266/266 269/269/269
f 263/263/263 264/264/264 271/271/271
f 271/271/271 258/258/258 263/263/263
f 272/272/272 271/271/271 264/264/264
f 264/264/264 273/273/273 272/272/272
f 274/274/274 272/272/272 273/273/273
f 273/273/273 275/275/275 274/274/274
f 273/273/273 276/276/276 275/275/275
f 265/265/265 276/276/276 264/264/264
f 273/273/273 264/264/264 276/276/276
f 277/277/277 275/275/275 276/276/276
f 274/274/274 278/278/278 272/272/272
f 279/279/279 272/272/272 278/278/278
f 274/274/274 280/280/280 278/278/278
f 275/275/275 280/280/280 274/274/274
f 281/281/281 278/278/278 280/280/280
f 282/282/282 278/278/278 281/281/281
f 278/278/278 282/282/282 283/283/283
f 284/284/284 283/283/283 282/282/282
f 284/284/284 282/282/282 285/285/285
f 284/284/284 285/285/285 286/286/286
f 287/287/287 286/286/286 285/285/285
f 285/285/285 288/288/288 287/287/287
f 289/289/289 287/287/287 288/288/288
f 288/288/288 290/290/290 289/289/289
f 291/291/291 289/289/289 290/290/290
f 292/292/292 285/285/285 282/282/282
f 285/285/285 292/292/292 288/288/288
f 293/293/293 288/288/288 292/292/292
f 288/288/288 293/293/293 290/290/290
f 287/287/287 294/294/294 286/286/286
f 295/295/295 286/286/286 294/294/294
f 294/294/294 287/287/287 296/296/296
f 289/289/289 296/296/296 287/287/287
f 289/289/289 297/297/297 296/296/296
f 289/289/289 291/291/291 297/297/297
f 298/298/298 296/296/296 297/297/297
f 296/296/296 299/299/299 294/294/294
f 300/300/300 294/294/294 299/299/299
f 294/294/294 300/300/300 295/295/295
f 299/299/299 296/296/296 301/301/301
f 302/302/302 301/301/301 296/296/296
f 303/303/303 295/295/295 300/300/300
f 300/300/300 304/304/304 303/303/303
f 299/299/299 304/304/304 300/300/300
f 305/305/305 303/303/303 304/304/304
f 295/295/295 303/303/303 306/306/306
f 307/307/307 306/306/306 303/303/303
f 306/306/306 307/307/307 308/308/308
f 309/309/309 308/308/308 307/307/307
f 303/303/303 310/310/310 307/307/307
f 307/307/307 310/310/310 309/309/309
f 306/306/306 308/308/308 311/311/311
f 303/303/303 312/312/312 310/310/310
f 305/305/305 312/312/312 303/303/303
f 304/304/304 299/299/299 313/313/313
f 301/301/301 313/313/313 299/299/299
f 313/313/313 314/314/314 304/304/304
f 306/306/306 311/311/311 315/315/315
f 295/295/295 306/306/306 315/315/315
f 295/295/295 315/315/315 286/286/286
f 316/316/316 286/286/286 315/315/315
f 286/286/286 316/316/316 317/317/317
f 286/286/286 317/317/317 284/284/284
f 318/318/318 284/284/284 317/317/317
f 318/318/318 319/319/319 284/284/284
f 261/261/261 258/258/258 311/311/311
f 258/258/258 271/271/271 311/311/311
f 320/320/320 311/311/311 271/271/271
f 321/321/321 320/320/320 271/271/271
f 272/272/272 321/321/321 271/271/271
f 272/272/272 319/319/319 322/322/322
f 272/272/272 322/322/322 321/321/321
f 324/324/324 323/323/323 250/250/250
f 250/250/250 247/247/247 324/324/324
f 268/268/268 250/250/250 325/325/325
f 250/250/250 268/268/268 251/251/251
f 256/256/256 251/251/251 268/268/268
f 268/268/268 323/323/323 269/269/269
f 269/269/269 325/325/325 326/326/326
f 327/327/327 326/326/326 323/323/323
f 328/328/328 326/326/326 327/327/327
f 329/329/329 326/326/326 328/328/328
f 328/328/328 330/330/330 329/329/329
f 328/328/328 327/327/327 331/331/331
f 327/327/327 332/332/332 331/331/331
f 332/332/332 327/327/327 333/333/333
f 334/334/334 333/333/333 327/327/327
f 335/335/335 330/330/330 331/331/331
f 336/336/336 331/331/331 330/330/330
f 330/330/330 337/337/337 267/267/267
f 338/338/338 267/267/267 337/337/337
f 267/267/267 338/338/338 265/265/265
f 276/276/276 265/265/265 338/338/338
f 339/339/339 338/338/338 337/337/337
f 339/339/339 276/276/276 338/338/338
f 339/339/339 277/277/277 276/276/276
f 340/340/340 330/330/330 267/267/267
f 340/340/340 329/329/329 341/341/341
f 342/342/342 340/340/340 267/267/267
f 266/266/266 342/342/342 267/267/267
f 266/266/266 270/270/270 342/342/342
f 344/344/344 343/343/343 277/277/277
f 275/275/275 277/277/277 343/343/343
f 275/275/275 343/343/343 280/280/280
f 345/345/345 290/290/290 293/293/293
f 290/290/290 345/345/345 346/346/346
f 347/347/347 346/346/346 345/345/345
f 346/346/346 347/347/347 348/348/348
f 349/349/349 348/348/348 347/347/347
f 346/346/346 350/350/350 290/290/290
f 348/348/348 351/351/351 346/346/346
f 352/352/352 345/345/345 293/293/293
f 345/345/345 352/352/352 347/347/347
f 292/292/292 352/352/352 293/293/293
f 292/292/292 353/353/353 352/352/352
f 292/292/292 282/282/282 353/353/353
f 281/281/281 353/353/353 282/282/282
f 346/346/346 351/351/351 354/354/354
f 291/291/291 290/290/290 354/354/354
f 355/355/355 354/354/354 351/351/351
f 351/351/351 356/356/356 355/355/355
f 357/357/357 355/355/355 356/356/356
f 356/356/356 302/302/302 357/357/357
f 358/358/358 347/347/347 352/352/352
f 359/359/359 352/352/352 353/353/353
f 298/298/298 357/357/357 360/360/360
f 298/298/298 360/360/360 296/296/296
f 358/358/358 361/361/361 347/347/347
f 361/361/361 358/358/358 362/362/362
f 348/348/348 364/364/364 363/363/363
f 367/367/367 366/366/366 365/365/365
f 366/366/366 367/367/367 368/368/368
f 369/369/369 368/368/368 367/367/367
f 369/369/369 370/370/370 368/368/368
f 372/372/372 331/331/331 371/371/371
f 375/375/375 374/374/374 373/373/373
f 376/376/376 374/374/374 375/375/375
f 377/377/377 376/376/376 375/375/375
f 373/373/373 374/374/374 378/378/378
f 377/377/377 380/380/380 379/379/379
f 381/381/381 379/379/379 380/380/380
f 380/380/380 382/382/382 381/381/381
f 382/382/382 383/383/383 381/381/381
f 385/385/385 384/384/384 383/383/383
f 387/387/387 378/378/378 386/386/386
f 390/390/390 389/389/389 388/388/388
f 391/391/391 388/388/388 389/389/389
f 391/391/391 389/389/389 392/392/392
f 393/393/393 392/392/392 389/389/389
f 394/394/394 392/392/392 393/393/393
f 390/390/390 388/388/388 395/395/395
f 390/390/390 395/395/395 396/396/396
f 398/398/398 396/396/396 397/397/397
f 400/400/400 399/399/399 396/396/396
f 403/403/403 402/402/402 401/401/401
f 404/404/404 401/401/401 402/402/402
f 404/404/404 405/405/405 401/401/401
f 406/406/406 401/401/401 405/405/405
f 407/407/407 402/402/402 403/403/403
f 403/403/403 408/408/408 407/407/407
f 410/410/410 409/409/409 408/408/408
f 413/413/413 412/412/412 411/411/411
f 412/412/412 413/413/413 414/414/414
f 412/412/412 414/414/414 415/415/415
f 414/414/414 416/416/416 415/415/415
f 418/418/418 416/416/416 417/417/417
f 421/421/421 420/420/420 419/419/419
f 422/422/422 420/420/420 421/421/421
f 421/421/421 423/423/423 422/422/422
f 424/424/424 422/422/422 423/423/423
f 426/426/426 424/424/424 425/425/425
f 429/429/429 428/428/428 427/427/427
f 432/432/432 431/431/431 430/430/430
f 435/435/435 434/434/434 433/433/433
f 437/437/437 436/436/436 135/135/135
f 438/438/438 135/135/135 436/436/436
f 440/440/440 334/334/334 439/439/439
f 443/443/443 442/442/442 441/441/441
f 444/444/444 441/441/441 442/442/442
f 447/447/447 446/446/446 445/445/445
f 448/448/448 445/445/445 446/446/446
f 451/451/451 450/450/450 449/449/449
f 454/454/454 453/453/453 452/452/452
f 457/457/457 456/456/456 455/455/455
f 460/460/460 459/459/459 458/458/458
f 460/460/460 458/458/458 461/461/461
f 464/464/464 463/463/463 462/462/462
