g blue_war_m_pve_3_hand_r
v -0.69178617 0.0485671982 1.2161653
v -0.647477627 0.0304038804 1.23774314
v -0.663130045 0.034020815 1.20934367
v -0.677161098 0.0572584085 1.24854529
v -0.656959355 0.0222097114 1.20738506
v -0.639294446 -0.0192494504 1.22018695
v -0.58013922 -0.0247775596 1.29586852
v -0.598549366 0.0493625998 1.34332788
v -0.612152636 0.0749653578 1.31533217
v -0.616119802 0.0856043771 1.36486411
v -0.594741106 0.111684784 1.33272839
v -0.568333209 0.122205473 1.3814894
v -0.599998891 0.0913932025 1.39444542
v -0.558322906 0.0942634866 1.4193387
v -0.650433362 0.0789883435 1.22610211
v -0.647477627 0.0304038804 1.23774314
v -0.574651301 0.0553646274 1.38841057
v -0.517452776 0.0457070284 1.4688108
v -0.514899254 0.107880093 1.50944972
v -0.496973097 0.0453393608 1.47183335
v -0.491278142 0.110486001 1.51871789
v -0.519859016 0.154261321 1.44244075
v -0.525478721 0.178710461 1.36245847
v -0.522785604 -0.0116822897 1.40070295
v -0.565853179 -0.0144177992 1.34472704
v -0.503177941 -0.00614255015 1.40281689
v -0.500680089 0.154994383 1.44715738
v -0.508299291 0.174169138 1.36395919
v -0.449159563 0.0130226593 1.3447578
v -0.511254191 -0.0069795195 1.27065635
v -0.394948691 0.0620199889 1.32624948
v -0.495100319 0.0292299297 1.20320404
v -0.528938174 -0.0125491293 1.22839451
v -0.474112839 0.0268215984 1.418589
v -0.490614802 0.0374994501 1.45034838
v -0.428887993 0.022263309 1.37400508
v -0.562207043 -0.0382337086 1.25016153
v -0.529347658 -0.0260280203 1.21287096
v -0.496020168 0.0199371185 1.18526423
v -0.591042936 -0.0467096269 1.22074044
v -0.543778956 -0.0286426302 1.19274795
v -0.533891797 0.00896396954 1.1570586
v -0.587414622 -0.0259489883 1.20597208
v -0.626585543 -0.0104157496 1.20171654
v -0.673394084 0.01978199 1.16798282
v -0.695596457 -0.0405118875 1.12859774
v -0.731817782 0.00361853 1.10476243
v -0.675324082 0.0564047992 1.1614598
v -0.682649612 0.0385313593 1.17392778
v -0.727896512 0.0548823886 1.08963549
v -0.63543278 -0.0687474012 1.14854109
v -0.55274272 -0.0219050404 1.18633235
v -0.573975325 -0.0726776123 1.16046572
v -0.55274272 -0.0219050404 1.18633235
v -0.544953108 -0.0480347574 1.15103281
v -0.551770806 0.015774291 1.15724838
v -0.545862019 -0.0361037813 1.12729418
v -0.690798581 0.0989374965 1.07825458
v -0.643074095 0.103308573 1.16954553
v -0.659358859 0.075694643 1.19272101
v -0.646960735 0.113950901 1.17993462
v -0.587548375 0.144696131 1.2488631
v -0.572480559 0.153121293 1.29772425
v -0.524301589 0.140501559 1.26160204
v -0.575468004 0.142318785 1.20507503
v -0.537845552 0.123749875 1.20772469
v -0.541854322 0.131339595 1.184955
v -0.495180219 0.0863157809 1.19798446
v -0.40085876 0.123363808 1.30918193
v -0.394948691 0.0620199889 1.32624948
v -0.495100319 0.0292299297 1.20320404
v -0.4933258 0.0856129751 1.17756128
v -0.496020168 0.0199371185 1.18526423
v -0.423445761 0.155422986 1.31741285
v -0.454917163 0.16981326 1.33916926
v -0.508299291 0.174169138 1.36395919
v -0.611964941 0.13629961 1.15930009
v -0.569212854 0.114566371 1.13592803
v -0.54138428 0.0674477965 1.13256538
v -0.533891797 0.00896396954 1.1570586
v -0.6077739 0.114392385 1.14813995
v -0.582724988 0.096837692 1.13969493
v -0.563452601 0.0602980964 1.14045727
v -0.551770806 0.015774291 1.15724838
v -0.630477726 0.09529645 1.06609452
v -0.608255744 0.0826761201 1.07436883
v -0.689776361 0.0926959887 1.06715977
v -0.721440017 0.0499787591 1.07627201
v -0.723738849 3.88099979E-05 1.09213853
v -0.549641013 -0.0155961476 1.11456978
v -0.583212793 0.051787097 1.10148501
v -0.638879657 0.0707821175 1.06302118
v -0.653450668 0.0826228708 1.07213283
v -0.639492989 0.0551784784 1.03910029
v -0.578955352 -0.00624764431 1.11086392
v -0.582050025 -0.0108464696 1.08891094
v -0.579887152 -0.0169497896 1.1119622
v -0.626530111 -0.0136929518 1.04956973
v -0.611863017 -0.0288204383 1.08240747
v -0.639492989 0.0551784784 1.03910029
v -0.611863017 -0.0288204383 1.08240747
v -0.603458047 -0.0413276181 1.08932877
v -0.579887152 -0.0169497896 1.1119622
v -0.723738849 3.88099979E-05 1.09213853
v -0.688009024 -0.0407292061 1.11109293
v -0.632049024 -0.0685835108 1.13371575
v -0.688009024 -0.0407292061 1.11109293
v -0.607402861 -0.0702085644 1.13843536
v -0.584339201 -0.0750973746 1.14089036
v -0.557992697 -0.0590227582 1.13942897
v -0.549641013 -0.0155961476 1.11456978
v -0.69178617 0.0485671982 1.2161653
v -0.682649612 0.0385313593 1.17392778
v -0.665474713 0.060099449 1.20174253
v -0.682649612 0.0385313593 1.17392778
v -0.69178617 0.0485671982 1.2161653
v -0.677161098 0.0572584085 1.24854529
v -0.44739899 0.143307984 1.40500498
v -0.477564901 0.11663118 1.45804667
v -0.472809732 0.152265429 1.42746699
v -0.461598396 0.10925027 1.4513737
v -0.474483967 0.0811748579 1.48031127
v -0.454583585 0.0827651173 1.47745204
v -0.50214684 0.0953901857 1.45452476
v -0.496700317 0.154143214 1.40863001
v -0.46570009 0.0528453924 1.46955121
v -0.452030778 0.0586629286 1.46183133
v -0.441823065 0.0254571289 1.44494498
v -0.438677549 0.0374793783 1.44167006
v -0.431496978 0.0444139987 1.421597
v -0.415405899 0.0147748487 1.41571784
v -0.436467469 0.00183163991 1.39919579
v -0.467734009 0.0142776892 1.43220091
v -0.406049997 0.0140430992 1.36471891
v -0.388842791 0.0249939486 1.38509667
v -0.392743051 0.0686290041 1.38038802
v -0.368016541 0.0522832014 1.35730386
v -0.382831037 0.100459993 1.36083496
v -0.360212713 0.0913180634 1.33868098
v -0.39692992 0.139961004 1.35767901
v -0.371368259 0.137736708 1.33397627
v -0.392145216 0.171751916 1.33940411
v -0.423835397 0.188541487 1.36222589
v -0.416931003 0.158585981 1.36895418
v -0.455209255 0.181410745 1.39534426
v -0.439437032 0.157484993 1.39051008
v -0.472809732 0.152265429 1.42746699
v -0.44739899 0.143307984 1.40500498
v -0.496700317 0.154143214 1.40863001
v -0.480357587 0.179243594 1.38099563
v -0.444041461 0.186669558 1.34166682
v -0.508299291 0.174169138 1.36395919
v -0.386034727 0.130479261 1.30827343
v -0.375379413 0.081917271 1.31317842
v -0.383154184 0.0420901105 1.33449221
v -0.394948691 0.0620199889 1.32624948
v -0.428887993 0.022263309 1.37400508
v -0.474112839 0.0268215984 1.418589
v -0.490614802 0.0374994501 1.45034838
v -0.40085876 0.123363808 1.30918193
v -0.394948691 0.0620199889 1.32624948
v -0.50214684 0.0953901857 1.45452476
v -0.490614802 0.0374994501 1.45034838
v -0.410449922 0.166082934 1.31656146
v -0.423445761 0.155422986 1.31741285
v -0.40085876 0.123363808 1.30918193
v -0.454917163 0.16981326 1.33916926
v -0.423445761 0.155422986 1.31741285
v -0.454917163 0.16981326 1.33916926
v -0.419056088 0.0478789993 1.40768015
v -0.444518983 0.046203997 1.43823588
v -0.457405984 0.0633659959 1.44626093
v -0.463303983 0.084092997 1.44546485
v -0.457878977 0.123682 1.42424893
v -0.508299291 0.174169138 1.36395919
v -0.496700317 0.154143214 1.40863001
v -0.500680089 0.154994383 1.44715738
v -0.50214684 0.0953901857 1.45452476
v -0.496700317 0.154143214 1.40863001
v -0.491278142 0.110486001 1.51871789
v -0.496973097 0.0453393608 1.47183335
v -0.496973097 0.0453393608 1.47183335
v -0.490614802 0.0374994501 1.45034838
v -0.503177941 -0.00614255015 1.40281689
v -0.454917163 0.16981326 1.33916926
v -0.673205256 0.0592752174 1.09167862
v -0.721440017 0.0499787591 1.07627201
v -0.671825409 0.0518947318 1.08968246
v -0.689776361 0.0926959887 1.06715977
v -0.676847339 0.0405776203 1.09838426
v -0.723738849 3.88099979E-05 1.09213853
v -0.670400679 0.0259007309 1.09532022
v -0.664973676 0.0151903098 1.10138667
v -0.667473793 0.001342737 1.11056793
v -0.658148468 -0.0117936442 1.10919452
v -0.688009024 -0.0407292061 1.11109293
v -0.656559765 0.0228826907 1.08431864
v -0.650022745 0.0174618848 1.08848512
v -0.633939147 0.0114974566 1.07610857
v -0.646855295 -0.0167325325 1.10703492
v -0.644733131 -0.0134132076 1.09378135
v -0.635454476 -0.0121170282 1.09139478
v -0.630252659 -0.0058969995 1.08052838
v -0.618421078 -0.013815714 1.08037555
v -0.645203054 -0.0289911795 1.1157968
v -0.637087762 -0.0408108272 1.11059451
v -0.613642514 -0.0579368584 1.13283002
v -0.633939147 0.0114974566 1.07610857
v -0.642255545 0.0288648475 1.0730201
v -0.639492989 0.0551784784 1.03910029
v -0.626530111 -0.0136929518 1.04956973
v -0.643162072 0.0450018682 1.06935489
v -0.641252875 0.0553613938 1.0662179
v -0.638879657 0.0707821175 1.06302118
v -0.658136189 0.054935921 1.07792079
v -0.658478558 0.052531369 1.07772708
v -0.673205256 0.0592752174 1.09167862
v -0.632049024 -0.0685835108 1.13371575
v -0.688009024 -0.0407292061 1.11109293
v -0.607402861 -0.0702085644 1.13843536
v -0.613642514 -0.0579368584 1.13283002
v -0.621747553 -0.0515946522 1.11812007
v -0.603458047 -0.0413276181 1.08932877
v -0.623585343 -0.0391550809 1.09551609
v -0.611863017 -0.0288204383 1.08240747
v -0.609498918 -0.0399306081 1.12956619
v -0.579887152 -0.0169497896 1.1119622
v -0.668556511 0.0852073878 1.08575976
v -0.653450668 0.0826228708 1.07213283
v -0.675173879 0.0739160255 1.09482992
v -0.689776361 0.0926959887 1.06715977
v -0.673205256 0.0592752174 1.09167862
v -0.675173879 0.0739160255 1.09482992
v -0.626530111 -0.0136929518 1.04956973
v -0.618421078 -0.013815714 1.08037555
v -0.611863017 -0.0288204383 1.08240747
v -0.626530111 -0.0136929518 1.04956973
v -0.69178617 0.0485671982 1.2161653
v -0.682649612 0.0385313593 1.17392778
v -0.650480092 -0.0680002868 1.05789471
v -0.637087762 -0.0408108272 1.11059451
v -0.623585343 -0.0391550809 1.09551609
v -0.67097652 -0.0688298568 1.06046271
v -0.691466451 -0.0651755631 1.05967093
v -0.645203054 -0.0289911795 1.1157968
v -0.625150144 -0.0466069467 1.05110681
v -0.611863017 -0.0288204383 1.08240747
v -0.618421078 -0.013815714 1.08037555
v -0.637298167 -0.0171139333 1.04728651
v -0.651256561 -0.0612611435 1.05648851
v -0.670377493 -0.0649531409 1.05922508
v -0.642359972 -0.023291545 1.04888558
v -0.633197486 -0.0455362126 1.05176711
v -0.681495428 -0.0610824488 1.05827975
v -0.698311627 -0.048556909 1.05751824
v -0.645203054 -0.0289911795 1.1157968
v -0.646855295 -0.0167325325 1.10703492
v -0.686290205 -0.0316513143 1.05564678
v -0.670848668 -0.0185494516 1.05148911
v -0.635454476 -0.0121170282 1.09139478
v -0.637298167 -0.0171139333 1.04728651
v -0.618421078 -0.013815714 1.08037555
v -0.688068151 -0.0444090292 1.05609822
v -0.642359972 -0.023291545 1.04888558
v -0.666597247 -0.0240168087 1.05166399
v -0.683059394 -0.0341639295 1.05523694
v -0.688068151 -0.0444090292 1.05609822
v -0.651256561 -0.0612611435 1.05648851
v -0.638554096 -0.0534150787 1.02820802
v -0.66298455 -0.074076727 1.02576602
v -0.633197486 -0.0455362126 1.05176711
v -0.642359972 -0.023291545 1.04888558
v -0.649536252 -0.026752552 1.02475429
v -0.68261373 -0.0756303966 1.02420831
v -0.670377493 -0.0649531409 1.05922508
v -0.681495428 -0.0610824488 1.05827975
v -0.700906515 -0.0738535598 1.01768732
v -0.688068151 -0.0444090292 1.05609822
v -0.707301259 -0.0583284274 1.01567626
v -0.6960603 -0.0429847054 1.01997948
v -0.683059394 -0.0341639295 1.05523694
v -0.681106269 -0.0300806127 1.02006698
v -0.666597247 -0.0240168087 1.05166399
v -0.649536252 -0.026752552 1.02475429
v -0.654840589 -0.0351321921 1.0242399
v -0.67936492 -0.0386905409 1.02030528
v -0.642359972 -0.023291545 1.04888558
v -0.693139315 -0.070837751 1.01900411
v -0.698529422 -0.0517990589 1.01769161
v -0.693139315 -0.070837751 1.01900411
v -0.693139315 -0.070837751 1.01900411
v -0.669285417 -0.0678561553 1.02390468
v -0.649024665 -0.0542394705 1.02641976
v -0.654840589 -0.0351321921 1.0242399
v -0.693139315 -0.070837751 1.01900411
v -0.654840589 -0.0351321921 1.0242399
v -0.698529422 -0.0517990589 1.01769161
v -0.683604419 -0.0428212024 0.997113347
v -0.67936492 -0.0386905409 1.02030528
v -0.703591764 -0.0557000153 0.999575198
v -0.697677314 -0.0737483352 1.00249374
v -0.693139315 -0.070837751 1.01900411
v -0.698260784 -0.0584692545 0.983711958
v -0.693064928 -0.0738128424 0.986195505
v -0.676833153 -0.0656182319 0.946462333
v -0.685173333 -0.0460622013 0.9822402
v -0.667914212 -0.0448096693 0.982364476
v -0.663929105 -0.0408466682 0.996320009
v -0.676833153 -0.0656182319 0.946462333
v -0.675101757 -0.0758044571 0.987054527
v -0.673606098 -0.0733276382 1.00204659
v -0.660634756 -0.0663066432 0.985844076
v -0.676833153 -0.0656182319 0.946462333
v -0.65674299 -0.0627669394 0.999864757
v -0.667914212 -0.0448096693 0.982364476
v -0.676833153 -0.0656182319 0.946462333
v -0.663929105 -0.0408466682 0.996320009
v -0.676833153 -0.0656182319 0.946462333
v -0.676833153 -0.0656182319 0.946462333
v -0.669285417 -0.0678561553 1.02390468
v -0.649024665 -0.0542394705 1.02641976
v -0.654840589 -0.0351321921 1.0242399
v -0.654840589 -0.0351321921 1.0242399
v -0.663929105 -0.0408466682 0.996320009
v -0.663929105 -0.0408466682 0.996320009
v -0.654840589 -0.0351321921 1.0242399
v -0.687323928 0.00344490516 1.04558229
v -0.670400679 0.0259007309 1.09532022
v -0.656559765 0.0228826907 1.08431864
v -0.705925226 0.00859294366 1.04616106
v -0.723015428 0.0174631346 1.04338586
v -0.676847339 0.0405776203 1.09838426
v -0.658314824 0.0149002979 1.04043984
v -0.642255545 0.0288648475 1.0730201
v -0.704209149 0.0117754471 1.04486227
v -0.68600595 0.009539227 1.04385221
v -0.665198267 0.0181353185 1.04027057
v -0.712911487 0.0182259157 1.04277825
v -0.714107811 0.0344455801 1.03934669
v -0.724232137 0.033961311 1.03989542
v -0.676847339 0.0405776203 1.09838426
v -0.671825409 0.0518947318 1.08968246
v -0.708647311 0.0455019623 1.03835237
v -0.690944552 0.0525372922 1.03519607
v -0.658478558 0.052531369 1.07772708
v -0.660474241 0.0441795178 1.03424537
v -0.643162072 0.0450018682 1.06935489
v -0.666826904 0.0402187705 1.03559864
v -0.688732803 0.0465136133 1.0360297
v -0.658314824 0.0149002979 1.04043984
v -0.643162072 0.0450018682 1.06935489
v -0.642255545 0.0288648475 1.0730201
v -0.665198267 0.0181353185 1.04027057
v -0.706463397 0.0423414707 1.03839564
v -0.714107811 0.0344455801 1.03934669
v -0.68600595 0.009539227 1.04385221
v -0.670529485 0.0107984822 1.01833582
v -0.697885752 -0.000970430381 1.01495397
v -0.665198267 0.0181353185 1.04027057
v -0.677382588 0.0167781245 1.01554084
v -0.696699262 0.00901307352 1.01263702
v -0.704209149 0.0117754471 1.04486227
v -0.715633214 0.00297446246 1.01181972
v -0.712911487 0.0182259157 1.04277825
v -0.730903625 0.00912373513 1.00402391
v -0.714107811 0.0344455801 1.03934669
v -0.732040405 0.0245363414 1.00076306
v -0.718023419 0.0353835374 1.00496304
v -0.706463397 0.0423414707 1.03839564
v -0.701107025 0.0427067764 1.00571334
v -0.688732803 0.0465136133 1.0360297
v -0.672481656 0.0372677408 1.01273584
v -0.680260777 0.0319689438 1.01190674
v -0.70076704 0.0323997699 1.00711477
v -0.666826904 0.0402187705 1.03559864
v -0.670529485 0.0107984822 1.01833582
v -0.665198267 0.0181353185 1.04027057
v -0.721820116 0.0242429916 1.00333703
v -0.677382588 0.0167781245 1.01554084
v -0.718304038 0.00872900151 1.00775039
v -0.721820116 0.0242429916 1.00333703
v -0.721820116 0.0242429916 1.00333703
v -0.696699262 0.00901307352 1.01263702
v -0.722859621 0.00585419638 1.00117075
v -0.718304038 0.00872900151 1.00775039
v -0.702479482 0.00311884866 1.00188899
v -0.677382588 0.0167781245 1.01554084
v -0.729608774 0.00254896167 0.985761404
v -0.724926889 0.0233141128 0.998873174
v -0.731736958 0.0206081439 0.983385623
v -0.70583266 0.0316861533 0.99813056
v -0.721820116 0.0242429916 1.00333703
v -0.70076704 0.0323997699 1.00711477
v -0.685857296 0.0295983218 0.99874568
v -0.680260777 0.0319689438 1.01190674
v -0.683657885 0.0106947515 1.00123239
v -0.677382588 0.0167781245 1.01554084
v -0.706091166 0.0299994033 0.981537521
v -0.706963003 0.0268527698 0.963348806
v -0.692811728 0.0226688944 0.961205423
v -0.686552107 0.0272657778 0.981889188
v -0.724303782 0.0174328983 0.964239836
v -0.702005804 0.00677462574 0.932788312
v -0.722541392 0.00242883665 0.966213882
v -0.702005804 0.00677462574 0.932788312
v -0.703616023 -0.00164237968 0.967097819
v -0.702005804 0.00677462574 0.932788312
v -0.702471852 -0.000530056946 0.985554039
v -0.690585852 0.0037190055 0.963698626
v -0.684180617 0.00704503525 0.984545112
v -0.684180617 0.00704503525 0.984545112
v -0.702005804 0.00677462574 0.932788312
v -0.683657885 0.0106947515 1.00123239
v -0.677382588 0.0167781245 1.01554084
v -0.684180617 0.00704503525 0.984545112
v -0.702005804 0.00677462574 0.932788312
v -0.690585852 0.0037190055 0.963698626
v -0.684180617 0.00704503525 0.984545112
v -0.684180617 0.00704503525 0.984545112
v -0.718304038 0.00872900151 1.00775039
v -0.718304038 0.00872900151 1.00775039
v -0.721820116 0.0242429916 1.00333703
v -0.588744164 -0.0801897421 1.12082589
v -0.610531926 -0.0887952223 1.0930388
v -0.604687393 -0.0656761974 1.12839305
v -0.588328719 -0.103779301 1.08389986
v -0.619864166 -0.0598439313 1.0939151
v -0.609498918 -0.0399306081 1.12956619
v -0.584817708 -0.0326454304 1.07308042
v -0.579887152 -0.0169497896 1.1119622
v -0.563105166 -0.104862563 1.07152212
v -0.564742327 -0.076380305 1.10792279
v -0.554372549 -0.0774269775 1.06371331
v -0.553138256 -0.0522033721 1.0996083
v -0.562985539 -0.0518959574 1.0647732
v -0.608814955 -0.0776151419 1.13123214
v -0.613642514 -0.0579368584 1.13283002
v -0.588744164 -0.0801897421 1.12082589
v -0.583150446 -0.044149857 1.07382548
v -0.61109215 -0.065837048 1.09042776
v -0.591387033 -0.0623634979 1.03563166
v -0.601717293 -0.0864765942 1.08794069
v -0.619667709 -0.0843112171 1.0524441
v -0.606871605 -0.100272395 1.04813969
v -0.609095454 -0.101026133 0.997636855
v -0.591387033 -0.0623634979 1.03563166
v -0.609095454 -0.101026133 0.997636855
v -0.578989029 -0.102374516 1.07898939
v -0.588300943 -0.112320736 1.04293144
v -0.561867237 -0.0890933126 1.06871188
v -0.575651169 -0.102503642 1.03541136
v -0.568484604 -0.0607586578 1.06812656
v -0.581626236 -0.0806802511 1.03313172
v -0.609095454 -0.101026133 0.997636855
v -0.609095454 -0.101026133 0.997636855
v -0.609095454 -0.101026133 0.997636855
v -0.591387033 -0.0623634979 1.03563166
v -0.609095454 -0.101026133 0.997636855
v -0.583150446 -0.044149857 1.07382548
v -0.584817708 -0.0326454304 1.07308042
v -0.553138256 -0.0522033721 1.0996083
v -0.561122835 -0.0318506844 1.10252333
v -0.584817708 -0.0326454304 1.07308042
v -0.579887152 -0.0169497896 1.1119622
v -0.591387033 -0.0623634979 1.03563166
v -0.583150446 -0.044149857 1.07382548
v -0.578955352 -0.00624764431 1.11086392
v -0.549047053 -0.0312311016 1.0957011
v -0.579887152 -0.0169497896 1.1119622
v -0.544728875 -0.0610294677 1.09543824
v -0.545862019 -0.0361037813 1.12729418
v -0.557992697 -0.0590227582 1.13942897
v -0.556826055 -0.0899246931 1.10430455
v -0.564742327 -0.076380305 1.10792279
v -0.553138256 -0.0522033721 1.0996083
v -0.585423112 -0.0926110223 1.11963034
v -0.584339201 -0.0750973746 1.14089036
v -0.607402861 -0.0702085644 1.13843536
v -0.613642514 -0.0579368584 1.13283002
v -0.549641013 -0.0155961476 1.11456978
v -0.578955352 -0.00624764431 1.11086392
v -0.588744164 -0.0801897421 1.12082589
v -0.585423112 -0.0926110223 1.11963034
v -0.564742327 -0.076380305 1.10792279
v -0.556826055 -0.0899246931 1.10430455
v -0.563105166 -0.104862563 1.07152212
v -0.561867237 -0.0890933126 1.06871188
v -0.578989029 -0.102374516 1.07898939
v -0.588328719 -0.103779301 1.08389986
v -0.677455068 -0.0371905752 1.05498111
v -0.658148468 -0.0117936442 1.10919452
v -0.644733131 -0.0134132076 1.09378135
v -0.698299766 -0.0333461165 1.05715179
v -0.718065619 -0.0250881854 1.05575824
v -0.667473793 0.001342737 1.11056793
v -0.647038698 -0.021562757 1.04810464
v -0.630252659 -0.0058969995 1.08052838
v -0.633939147 0.0114974566 1.07610857
v -0.652538717 0.0107157659 1.04319501
v -0.696801066 -0.029617276 1.05580187
v -0.678647757 -0.0303028673 1.05356014
v -0.654901803 -0.0186589453 1.04856622
v -0.659050107 0.00568665331 1.04486322
v -0.707091212 -0.023252653 1.05447078
v -0.710138083 -0.00537149142 1.0517509
v -0.721164763 -0.00689996686 1.05299175
v -0.667473793 0.001342737 1.11056793
v -0.705232978 0.00734381191 1.05096281
v -0.664973676 0.0151903098 1.10138667
v -0.667473793 0.001342737 1.11056793
v -0.6866768 0.016930718 1.04674911
v -0.650022745 0.0174618848 1.08848512
v -0.652538717 0.0107157659 1.04319501
v -0.633939147 0.0114974566 1.07610857
v -0.659050107 0.00568665331 1.04486322
v -0.685502827 0.00992890447 1.04744089
v -0.702542722 0.00407984853 1.05067647
v -0.710138083 -0.00537149142 1.0517509
v -0.678647757 -0.0303028673 1.05356014
v -0.661628425 -0.0260320324 1.02435052
v -0.690804899 -0.0413830541 1.02172387
v -0.654901803 -0.0186589453 1.04856622
v -0.687499285 -0.0326644927 1.02076733
v -0.666355431 -0.0220926255 1.02300072
v -0.666600585 0.00314867008 1.01991212
v -0.659050107 0.00568665331 1.04486322
v -0.696801066 -0.029617276 1.05580187
v -0.710864544 -0.0385763347 1.01968229
v -0.707091212 -0.023252653 1.05447078
v -0.728738308 -0.0328593291 1.01248312
v -0.710138083 -0.00537149142 1.0517509
v -0.731633425 -0.0158678908 1.00989866
v -0.716952443 -0.00284735672 1.01424789
v -0.702542722 0.00407984853 1.05067647
v -0.699009359 0.0067683314 1.01440001
v -0.685502827 0.00992890447 1.04744089
v -0.666600585 0.00314867008 1.01991212
v -0.659050107 0.00568665331 1.04486322
v -0.710478902 -0.0306280218 1.01595831
v -0.714054406 -0.011381058 1.01285517
v -0.714054406 -0.011381058 1.01285517
v -0.670067132 -0.00143738207 1.01988101
v -0.693484008 -5.18342058E-05 1.0157485
v -0.714054406 -0.011381058 1.01285517
v -0.716948092 -0.0364435688 0.985532224
v -0.714054406 -0.011381058 1.01285517
v -0.710478902 -0.0306280218 1.01595831
v -0.72044307 -0.0176435467 0.982506394
v -0.709206223 -0.036448095 0.966703176
v -0.712159097 -0.020601796 0.964137495
v -0.687905788 -0.0309887584 0.93374294
v -0.696655035 -0.00808183663 0.970755875
v -0.696736276 -0.00548679801 0.985125124
v -0.687905788 -0.0309887584 0.93374294
v -0.6787287 -0.010351982 0.972891152
v -0.690710127 -0.0401609614 0.975877821
v -0.687905788 -0.0309887584 0.93374294
v -0.690680981 -0.0381618366 0.990342259
v -0.674859285 -0.0312353224 0.976222038
v -0.687905788 -0.0309887584 0.93374294
v -0.672226071 -0.0284434352 0.991603911
v -0.666355431 -0.0220926255 1.02300072
v -0.687499285 -0.0326644927 1.02076733
v -0.676447749 -0.00763005717 0.986449122
v -0.670067132 -0.00143738207 1.01988101
v -0.6787287 -0.010351982 0.972891152
v -0.6787287 -0.010351982 0.972891152
v -0.6787287 -0.010351982 0.972891152
v -0.687905788 -0.0309887584 0.93374294
v -0.670067132 -0.00143738207 1.01988101
v -0.676447749 -0.00763005717 0.986449122
v -0.693484008 -5.18342058E-05 1.0157485
v -0.6787287 -0.010351982 0.972891152
v -0.6787287 -0.010351982 0.972891152
v -0.687905788 -0.0309887584 0.93374294
v -0.670067132 -0.00143738207 1.01988101
v -0.710478902 -0.0306280218 1.01595831
v -0.691769958 0.036129836 1.04337764
v -0.673205256 0.0592752174 1.09167862
v -0.658136189 0.054935921 1.07792079
v -0.712179303 0.047871422 1.04390275
v -0.726897418 0.0582322143 1.04253161
v -0.675173879 0.0739160255 1.09482992
v -0.657386899 0.0417026207 1.03745127
v -0.641252875 0.0553613938 1.0662179
v -0.638879657 0.0707821175 1.06302118
v -0.653739154 0.0720587894 1.03183961
v -0.661557436 0.0693940297 1.03332257
v -0.664323211 0.0464161038 1.03757823
v -0.689034045 0.0420882963 1.04171884
v -0.708678961 0.0482992306 1.0432688
v -0.716370821 0.0565570928 1.04171836
v -0.714793086 0.0737632513 1.03860438
v -0.726923347 0.0750788972 1.03966081
v -0.675173879 0.0739160255 1.09482992
v -0.668556511 0.0852073878 1.08575976
v -0.707599938 0.0862965584 1.0375613
v -0.685093462 0.0915071964 1.03317928
v -0.653450668 0.0826228708 1.07213283
v -0.653739154 0.0720587894 1.03183961
v -0.638879657 0.0707821175 1.06302118
v -0.704595447 0.0814471319 1.0374341
v -0.661557436 0.0693940297 1.03332257
v -0.684452593 0.0804602131 1.03454018
v -0.708678961 0.0482992306 1.0432688
v -0.701909482 0.0347530842 1.01326597
v -0.72124368 0.0425624922 1.00972486
v -0.689034045 0.0420882963 1.04171884
v -0.664323211 0.0464161038 1.03757823
v -0.669929385 0.0407357588 1.0158515
v -0.661557436 0.0693940297 1.03332257
v -0.666617513 0.0682065636 1.01079249
v -0.677739382 0.0495470427 1.01293933
v -0.67655319 0.0654774308 1.00994074
v -0.716370821 0.0565570928 1.04171836
v -0.73507309 0.0522515476 1.00362444
v -0.714793086 0.0737632513 1.03860438
v -0.733121157 0.0684416741 1.00064278
v -0.717188478 0.0761978477 1.0035305
v -0.704595447 0.0814471319 1.0374341
v -0.684452593 0.0804602131 1.03454018
v -0.696444392 0.0800829306 1.00491798
v -0.661557436 0.0693940297 1.03332257
v -0.666617513 0.0682065636 1.01079249
v -0.717809379 0.0656424239 1.00364649
v -0.67655319 0.0654774308 1.00994074
v -0.718844295 0.0514843129 1.00636065
v -0.699014544 0.0694241673 1.00600457
v -0.67655319 0.0654774308 1.00994074
v -0.717809379 0.0656424239 1.00364649
v -0.718844295 0.0514843129 1.00636065
v -0.717809379 0.0656424239 1.00364649
v -0.718844295 0.0514843129 1.00636065
v -0.700639486 0.0467334911 1.01025069
v -0.677739382 0.0495470427 1.01293933
v -0.684030592 0.0617033988 0.981620789
v -0.685276449 0.0415179729 0.986324489
v -0.67655319 0.0654774308 1.00994074
v -0.689693332 0.05673825 0.963822842
v -0.690803111 0.038759239 0.968012393
v -0.704227746 0.0377799533 0.98414439
v -0.705996513 0.0361106209 0.966641009
v -0.723551333 0.0426884703 0.978981316
v -0.718844295 0.0514843129 1.00636065
v -0.72245568 0.0603851154 0.974854887
v -0.717809379 0.0656424239 1.00364649
v -0.700639486 0.0467334911 1.01025069
v -0.702408135 0.0662779883 0.97749877
v -0.699014544 0.0694241673 1.00600457
v -0.67655319 0.0654774308 1.00994074
v -0.684030592 0.0617033988 0.981620789
v -0.689693332 0.05673825 0.963822842
v -0.703340054 0.0602237992 0.961012483
v -0.717586815 0.0566228107 0.961598516
v -0.718555272 0.0409331881 0.965254486
v -0.702546239 0.0414230041 0.935420334
v -0.702546239 0.0414230041 0.935420334
v -0.702546239 0.0414230041 0.935420334
v -0.702546239 0.0414230041 0.935420334
vt 0.397003978 0.591065168
vt 0.440900952 0.618117094
vt 0.426162213 0.577210724
vt 0.403704137 0.615415692
vt 0.440207154 0.570393324
vt 0.497834951 0.574191391
vt 0.571819544 0.66759038
vt 0.499392092 0.754954576
vt 0.446099311 0.744689643
vt 0.468310267 0.799389362
vt 0.414793164 0.800029159
vt 0.441539615 0.866119146
vt 0.477916598 0.827183664
vt 0.503897369 0.876465201
vt 0.375882864 0.644641757
vt 0.440900952 0.618117094
vt 0.52534163 0.810255706
vt 0.60707438 0.899431705
vt 0.575732708 0.976228416
vt 0.628146529 0.905520797
vt 0.591606975 0.990769625
vt 0.47403565 0.96863538
vt 0.373778373 0.925682425
vt 0.62962091 0.797179759
vt 0.586191416 0.727162898
vt 0.64995122 0.803786755
vt 0.478994608 0.99058187
vt 0.365405917 0.941091955
vt 0.738733053 0.754224956
vt 0.669328809 0.645987511
vt 0.833965778 0.744380593
vt 0.726452112 0.566419542
vt 0.655415058 0.588477194
vt 0.691860914 0.847922146
vt 0.663527846 0.887775064
vt 0.7592839 0.798111379
vt 0.598427057 0.606447458
vt 0.645486951 0.562881887
vt 0.719521642 0.546533048
vt 0.56684351 0.565147281
vt 0.633410573 0.530048668
vt 0.691998601 0.494205236
vt 0.564018726 0.528103352
vt 0.497585952 0.540921986
vt 0.405837089 0.526622057
vt 0.417568952 0.428410321
vt 0.348721713 0.433404297
vt 0.352937222 0.552743554
vt 0.382500172 0.547991812
vt 0.297891974 0.458095849
vt 0.501155913 0.428838104
vt 0.625162601 0.506352901
vt 0.576273203 0.441432476
vt 0.625162601 0.506352901
vt 0.619805813 0.446311086
vt 0.688011885 0.476907581
vt 0.639730692 0.420648724
vt 0.250054926 0.498151869
vt 0.297654301 0.617252767
vt 0.348730236 0.60784483
vt 0.303641677 0.637244225
vt 0.313818842 0.76262933
vt 0.341289639 0.821855426
vt 0.263027757 0.840329409
vt 0.265553981 0.736815333
vt 0.224328518 0.772080183
vt 0.21758619 0.739912808
vt 0.154646739 0.791220665
vt 0.170291275 0.98726213
vt 0.0853405297 0.993436277
vt 0.0796079636 0.788320482
vt 0.14405255 0.761902988
vt 0.0658923611 0.765142977
vt 0.229843408 0.987906098
vt 0.293741703 0.981909454
vt 0.365405917 0.941091955
vt 0.256816387 0.660152674
vt 0.195467159 0.668932736
vt 0.13043572 0.678552926
vt 0.0511101782 0.696336091
vt 0.235580891 0.635694623
vt 0.185472026 0.642122984
vt 0.125031218 0.64753294
vt 0.0597549453 0.666065574
vt 0.191011935 0.536557257
vt 0.171031073 0.554265738
vt 0.242442265 0.487600118
vt 0.287995249 0.446358919
vt 0.343277872 0.418292046
vt 0.0231604036 0.605900347
vt 0.120189533 0.585222363
vt 0.17186451 0.511893749
vt 0.197702214 0.504391372
vt 0.152829677 0.48008737
vt 0.0455391333 0.574044168
vt 0.0486526266 0.547455013
vt 0.0322453827 0.57085681
vt 0.0617058501 0.475328833
vt 0.0248917658 0.509824514
vt 0.152829677 0.48008737
vt 0.0248917658 0.509824514
vt 0.00740268547 0.524311244
vt 0.0322453827 0.57085681
vt 0.343277872 0.418292046
vt 0.411993682 0.401295871
vt 0.499407232 0.40210253
vt 0.411993682 0.401295871
vt 0.534312606 0.408416301
vt 0.565264702 0.41560033
vt 0.604061127 0.424445033
vt 0.668274879 0.412533432
vt 0.397003978 0.591065168
vt 0.382500172 0.547991812
vt 0.367249757 0.599129796
vt 0.382500172 0.547991812
vt 0.397003978 0.591065168
vt 0.403704137 0.615415692
vt 0.456470907 0.38173157
vt 0.507137299 0.312377989
vt 0.45208773 0.333158493
vt 0.518684626 0.33656913
vt 0.554371953 0.302558541
vt 0.558667898 0.319468856
vt 0.521130204 0.267884135
vt 0.426442564 0.301145196
vt 0.587928295 0.307117105
vt 0.589347482 0.331560135
vt 0.638212681 0.32284832
vt 0.63130486 0.339621544
vt 0.651564121 0.364222348
vt 0.686398029 0.33702445
vt 0.698661685 0.301482558
vt 0.646709681 0.282702029
vt 0.74988246 0.321881175
vt 0.732701778 0.355123639
vt 0.737823129 0.413410425
vt 0.776139379 0.381180406
vt 0.789730787 0.447404504
vt 0.814264178 0.413821876
vt 0.83451879 0.496343136
vt 0.85322845 0.453369319
vt 0.882527232 0.48709476
vt 0.902581811 0.53073287
vt 0.862770319 0.535858631
vt 0.913819671 0.58466363
vt 0.876660228 0.580947161
vt 0.905657411 0.642897606
vt 0.871197104 0.610753655
vt 0.947707772 0.639784336
vt 0.951040387 0.586862445
vt 0.937843323 0.520335138
vt 0.992552996 0.590175867
vt 0.88132751 0.425391257
vt 0.83907485 0.383190989
vt 0.797998905 0.349596858
vt 0.831620693 0.342350304
vt 0.741609216 0.287682295
vt 0.65576148 0.259821475
vt 0.603933096 0.263264656
vt 0.895486712 0.411230087
vt 0.831620693 0.342350304
vt 0.521130204 0.267884135
vt 0.603933096 0.263264656
vt 0.914671421 0.467629075
vt 0.933226109 0.459770858
vt 0.895486712 0.411230087
vt 0.960083008 0.516130865
vt 0.933226109 0.459770858
vt 0.960083008 0.516130865
vt 0.680955172 0.380321324
vt 0.62133038 0.351265669
vt 0.584614277 0.352150559
vt 0.550921559 0.350409985
vt 0.492584795 0.366472065
vt 0.996931672 0.433460265
vt 0.95129478 0.388314992
vt 0.903121591 0.377224952
vt 0.912559867 0.301152855
vt 0.95129478 0.388314992
vt 0.827288032 0.30005005
vt 0.90557301 0.233617932
vt 0.90557301 0.233617932
vt 0.93554318 0.229230076
vt 0.996893525 0.172026336
vt 0.293741703 0.981909454
vt 0.902883589 0.927521586
vt 0.965264142 0.939814866
vt 0.904632628 0.918437064
vt 0.914543688 0.984322548
vt 0.913233101 0.901645303
vt 0.989492416 0.88148129
vt 0.914744377 0.880303264
vt 0.914780915 0.863232672
vt 0.92469126 0.845904529
vt 0.923137784 0.82709527
vt 0.972704947 0.811786473
vt 0.891585052 0.874927163
vt 0.8902933 0.862462759
vt 0.866619706 0.850025773
vt 0.91232127 0.816056907
vt 0.898275375 0.827606976
vt 0.888505042 0.821283698
vt 0.872595012 0.826436758
vt 0.868382812 0.808658361
vt 0.918653727 0.797023773
vt 0.917490125 0.776994705
vt 0.918079972 0.72856468
vt 0.866619706 0.850025773
vt 0.866707027 0.875543833
vt 0.823543787 0.908100486
vt 0.83000654 0.81974256
vt 0.862423182 0.896817923
vt 0.857768714 0.909551919
vt 0.852561772 0.928926945
vt 0.882865608 0.912629664
vt 0.883586764 0.909873545
vt 0.902883589 0.927521586
vt 0.943850636 0.734304428
vt 0.972704947 0.811786473
vt 0.923221946 0.710699141
vt 0.918079972 0.72856468
vt 0.908936501 0.751107872
vt 0.866861701 0.769588411
vt 0.891516626 0.78037113
vt 0.867624283 0.789896309
vt 0.896109998 0.72825551
vt 0.844687045 0.723573029
vt 0.886419713 0.961114645
vt 0.867440283 0.978282332
vt 0.894470692 0.943256497
vt 0.914543688 0.984322548
vt 0.902883589 0.927521586
vt 0.894470692 0.943256497
vt 0.83000654 0.81974256
vt 0.868382812 0.808658361
vt 0.867624283 0.789896309
vt 0.83000654 0.81974256
vt 0.397003978 0.591065168
vt 0.382500172 0.547991812
vt 0.393009067 0.158556193
vt 0.386103511 0.239040703
vt 0.417501092 0.222108573
vt 0.370581508 0.155967802
vt 0.350630879 0.152108401
vt 0.356780648 0.250866503
vt 0.432248473 0.160995096
vt 0.446529746 0.208119363
vt 0.468347907 0.202365369
vt 0.470119834 0.151628107
vt 0.397757649 0.151182622
vt 0.37215364 0.150879949
vt 0.46178472 0.14032349
vt 0.430856824 0.149710864
vt 0.35564816 0.147190779
vt 0.335206628 0.153089732
vt 0.356780648 0.250866503
vt 0.326183677 0.243904203
vt 0.316536307 0.15949735
vt 0.2948488 0.166573495
vt 0.294001222 0.234843224
vt 0.256863236 0.182307094
vt 0.265395522 0.23445639
vt 0.32918489 0.148540348
vt 0.258045554 0.164950103
vt 0.288803697 0.158243388
vt 0.313797593 0.153719753
vt 0.32918489 0.148540348
vt 0.397757649 0.151182622
vt 0.421733975 0.116714567
vt 0.385175824 0.109788388
vt 0.430856824 0.149710864
vt 0.46178472 0.14032349
vt 0.453884482 0.103743285
vt 0.364562392 0.102702588
vt 0.37215364 0.150879949
vt 0.35564816 0.147190779
vt 0.346778035 0.0941991508
vt 0.32918489 0.148540348
vt 0.331573606 0.0951376855
vt 0.314145446 0.103347272
vt 0.313797593 0.153719753
vt 0.294013143 0.112371296
vt 0.288803697 0.158243388
vt 0.256861806 0.123822778
vt 0.261891007 0.103790373
vt 0.293561578 0.099909991
vt 0.258045554 0.164950103
vt 0.351654649 0.0929856002
vt 0.323407769 0.0934168994
vt 0.351654649 0.0929856002
vt 0.351654649 0.0929856002
vt 0.383329034 0.100032181
vt 0.415782094 0.103114694
vt 0.4404248 0.0926103294
vt 0.351654649 0.0929856002
vt 0.4404248 0.0926103294
vt 0.323407769 0.0934168994
vt 0.302019954 0.068413645
vt 0.293561578 0.099909991
vt 0.328004718 0.0746216476
vt 0.348376393 0.076624006
vt 0.351654649 0.0929856002
vt 0.331270576 0.0575918853
vt 0.34955132 0.059825927
vt 0.349958539 0.00784084201
vt 0.312834859 0.0499635637
vt 0.296089768 0.0390659273
vt 0.279458165 0.061183244
vt 0.349958539 0.00784084201
vt 0.369204164 0.0565920174
vt 0.375745416 0.0735346973
vt 0.387142777 0.0509523451
vt 0.349958539 0.00784084201
vt 0.398634076 0.0680193007
vt 0.406662583 0.0319505632
vt 0.349958539 0.00784084201
vt 0.422987342 0.0526539981
vt 0.349958539 0.00784084201
vt 0.349958539 0.00784084201
vt 0.383329034 0.100032181
vt 0.415782094 0.103114694
vt 0.4404248 0.0926103294
vt 0.4404248 0.0926103294
vt 0.422987342 0.0526539981
vt 0.279458165 0.061183244
vt 0.261891007 0.103790373
vt 0.659414291 0.164589211
vt 0.636502028 0.240545079
vt 0.665261745 0.232625887
vt 0.638655186 0.15913336
vt 0.620861053 0.154217646
vt 0.605977535 0.247037098
vt 0.696377516 0.176318452
vt 0.69209671 0.229932711
vt 0.64077425 0.153405473
vt 0.66426301 0.156195924
vt 0.693530798 0.160436675
vt 0.62578392 0.149535343
vt 0.601273537 0.149956152
vt 0.606393814 0.15420036
vt 0.605977535 0.247037098
vt 0.576806784 0.239386365
vt 0.587851524 0.15887849
vt 0.567129374 0.162797853
vt 0.547489166 0.227521822
vt 0.530642509 0.168015644
vt 0.51940155 0.217408344
vt 0.531411648 0.15733628
vt 0.562386513 0.156155989
vt 0.494449615 0.161920592
vt 0.51940155 0.217408344
vt 0.497048855 0.21387665
vt 0.501742601 0.15075998
vt 0.586147785 0.154267237
vt 0.601273537 0.149956152
vt 0.66426301 0.156195924
vt 0.69116807 0.122813627
vt 0.655380964 0.113383815
vt 0.693530798 0.160436675
vt 0.688005447 0.104395673
vt 0.660308123 0.100439236
vt 0.64077425 0.153405473
vt 0.636004448 0.10555701
vt 0.62578392 0.149535343
vt 0.619502306 0.0996066779
vt 0.601273537 0.149956152
vt 0.606379986 0.0997317284
vt 0.590951681 0.108367845
vt 0.586147785 0.154267237
vt 0.572245359 0.116214082
vt 0.562386513 0.156155989
vt 0.538355589 0.125803396
vt 0.540997982 0.112628028
vt 0.569427252 0.104846999
vt 0.531411648 0.15733628
vt 0.506903172 0.116370723
vt 0.501742601 0.15075998
vt 0.601074219 0.0951074213
vt 0.519979477 0.107806131
vt 0.628984451 0.0945110768
vt 0.601074219 0.0951074213
vt 0.601074219 0.0951074213
vt 0.660308123 0.100439236
vt 0.626046181 0.088164255
vt 0.628984451 0.0945110768
vt 0.651926279 0.0840186924
vt 0.688005447 0.104395673
vt 0.620069265 0.0728632659
vt 0.602206945 0.0924882144
vt 0.603723049 0.0763626546
vt 0.574070454 0.0941667408
vt 0.601074219 0.0951074213
vt 0.569427252 0.104846999
vt 0.547418594 0.0925131291
vt 0.540997982 0.112628028
vt 0.523663282 0.0837648362
vt 0.519979477 0.107806131
vt 0.574006796 0.0737784952
vt 0.579588413 0.0514208488
vt 0.566707373 0.0435581021
vt 0.552218437 0.0693358034
vt 0.600273132 0.0548407249
vt 0.595801353 0.00719610974
vt 0.615679264 0.051161211
vt 0.595801353 0.00719610974
vt 0.633185148 0.0392482691
vt 0.595801353 0.00719610974
vt 0.647291899 0.0610849075
vt 0.643327713 0.0261694603
vt 0.668970346 0.0518650226
vt 0.530270815 0.0577069931
vt 0.595801353 0.00719610974
vt 0.676995277 0.0799406022
vt 0.688005447 0.104395673
vt 0.668970346 0.0518650226
vt 0.595801353 0.00719610974
vt 0.54993391 0.0282378606
vt 0.530270815 0.0577069931
vt 0.530270815 0.0577069931
vt 0.628984451 0.0945110768
vt 0.628984451 0.0945110768
vt 0.601074219 0.0951074213
vt 0.177497715 0.313214988
vt 0.213059157 0.34380433
vt 0.204130441 0.290711701
vt 0.19237119 0.368139744
vt 0.242129475 0.3263551
vt 0.236855775 0.272173733
vt 0.302520663 0.327210665
vt 0.293830514 0.270840496
vt 0.168862224 0.385599196
vt 0.14309606 0.339939445
vt 0.141395032 0.398893178
vt 0.103017733 0.358978361
vt 0.113644525 0.409134001
vt 0.189022839 0.284330875
vt 0.210336536 0.271343112
vt 0.177497715 0.313214988
vt 0.295345753 0.344674945
vt 0.243322402 0.340731114
vt 0.289508641 0.406786382
vt 0.215745866 0.355270207
vt 0.24326691 0.396121532
vt 0.225122184 0.408361942
vt 0.238590777 0.471728534
vt 0.289508641 0.406786382
vt 0.238590777 0.471728534
vt 0.185815424 0.379508257
vt 0.204514831 0.420206517
vt 0.159138918 0.399240464
vt 0.191224992 0.431284577
vt 0.126097128 0.418823928
vt 0.174599081 0.449551731
vt 0.238590777 0.471728534
vt 0.238590777 0.471728534
vt 0.238590777 0.471728534
vt 0.15700233 0.467399716
vt 0.238590777 0.471728534
vt 0.102160439 0.436056852
vt 0.0822320729 0.427961349
vt 0.103017733 0.358978361
vt 0.0721261129 0.371245623
vt 0.0822320729 0.427961349
vt 0.0398939177 0.385226935
vt 0.15700233 0.467399716
vt 0.102160439 0.436056852
vt 0.0270038154 0.375488758
vt 0.0741834268 0.35321638
vt 0.0398939177 0.385226935
vt 0.106688395 0.343810529
vt 0.0681651458 0.308715492
vt 0.105313435 0.281799108
vt 0.136609003 0.328579456
vt 0.14309606 0.339939445
vt 0.103017733 0.358978361
vt 0.163159788 0.307517469
vt 0.153184325 0.273825943
vt 0.188884765 0.270929724
vt 0.210336536 0.271343112
vt 0.0461334512 0.338066339
vt 0.0270038154 0.375488758
vt 0.177497715 0.313214988
vt 0.163159788 0.307517469
vt 0.14309606 0.339939445
vt 0.136609003 0.328579456
vt 0.168862224 0.385599196
vt 0.159138918 0.399240464
vt 0.185815424 0.379508257
vt 0.19237119 0.368139744
vt 0.15193513 0.174234107
vt 0.14512828 0.258802265
vt 0.177526981 0.239775613
vt 0.129104406 0.172420815
vt 0.108653583 0.169179872
vt 0.111207046 0.264907688
vt 0.192226201 0.175518826
vt 0.2076464 0.224639848
vt 0.231251746 0.215973094
vt 0.231255561 0.165603593
vt 0.130929977 0.167206362
vt 0.154364616 0.165581301
vt 0.190433532 0.163338259
vt 0.222426921 0.154291227
vt 0.114116229 0.16490896
vt 0.0871596709 0.165098384
vt 0.0927122012 0.169478968
vt 0.111207046 0.264907688
vt 0.0731621161 0.173647121
vt 0.0769348517 0.256827444
vt 0.111207046 0.264907688
vt 0.0502825156 0.177948549
vt 0.0436773673 0.248624161
vt 0.00966028124 0.189328745
vt 0.0138309374 0.242895797
vt 0.0130160227 0.169966653
vt 0.0474045649 0.167426303
vt 0.0706265345 0.167618468
vt 0.0871596709 0.165098384
vt 0.154364616 0.165581301
vt 0.180392295 0.12820287
vt 0.141824275 0.122211777
vt 0.190433532 0.163338259
vt 0.149046689 0.11418768
vt 0.181025296 0.117621981
vt 0.215618879 0.117402636
vt 0.222426921 0.154291227
vt 0.130929977 0.167206362
vt 0.120960988 0.117292009
vt 0.114116229 0.16490896
vt 0.105072059 0.112504326
vt 0.0871596709 0.165098384
vt 0.0943510905 0.112160526
vt 0.0790410414 0.116318665
vt 0.0706265345 0.167618468
vt 0.0580826178 0.120280705
vt 0.0474045649 0.167426303
vt 0.0183992758 0.126621202
vt 0.0130160227 0.169966653
vt 0.117111243 0.104979239
vt 0.0848322287 0.10301777
vt 0.0848322287 0.10301777
vt 0.0221758261 0.109633528
vt 0.0528087988 0.108251058
vt 0.0848322287 0.10301777
vt 0.113977946 0.0720833763
vt 0.0848322287 0.10301777
vt 0.117111243 0.104979239
vt 0.0942783728 0.0700733289
vt 0.116447248 0.0528418049
vt 0.0984249488 0.0502247438
vt 0.120595016 0.00751968287
vt 0.0750093833 0.048101984
vt 0.0644874945 0.066809915
vt 0.120595016 0.00751968287
vt 0.0586419478 0.0358953103
vt 0.139567167 0.0589695796
vt 0.120595016 0.00751968287
vt 0.144052058 0.0760672316
vt 0.158657104 0.0545969233
vt 0.120595016 0.00751968287
vt 0.168541938 0.0748465881
vt 0.181025296 0.117621981
vt 0.149046689 0.11418768
vt 0.192062646 0.0615153536
vt 0.207649738 0.109109722
vt 0.178856403 0.0392772779
vt 0.178856403 0.0392772779
vt 0.178856403 0.0392772779
vt 0.120595016 0.00751968287
vt 0.0221758261 0.109633528
vt 0.0413785353 0.0587694272
vt 0.0528087988 0.108251058
vt 0.0586419478 0.0358953103
vt 0.0586419478 0.0358953103
vt 0.120595016 0.00751968287
vt 0.207649738 0.109109722
vt 0.117111243 0.104979239
vt 0.862200797 0.158316597
vt 0.849758983 0.233547747
vt 0.88429445 0.218559429
vt 0.837185264 0.155197173
vt 0.821431756 0.152514249
vt 0.817719102 0.244022161
vt 0.902451217 0.160934582
vt 0.915164888 0.204838082
vt 0.936894059 0.20057267
vt 0.939004242 0.154031888
vt 0.930773973 0.141232401
vt 0.900670111 0.149526983
vt 0.867133439 0.151128784
vt 0.841783285 0.1519804
vt 0.827316344 0.148446634
vt 0.802342415 0.147454441
vt 0.808496952 0.152840167
vt 0.817719102 0.244022161
vt 0.783584416 0.235901266
vt 0.788762212 0.157262221
vt 0.76462853 0.161676332
vt 0.749251306 0.223548964
vt 0.72107178 0.166930094
vt 0.719422817 0.216461942
vt 0.785170496 0.149929509
vt 0.726505995 0.147824466
vt 0.759205103 0.147999421
vt 0.841783285 0.1519804
vt 0.855344594 0.113005482
vt 0.834247231 0.105961747
vt 0.867133439 0.151128784
vt 0.900670111 0.149526983
vt 0.892107308 0.119075723
vt 0.930773973 0.141232401
vt 0.923395634 0.107691966
vt 0.890716553 0.102235205
vt 0.911856234 0.0941138938
vt 0.827316344 0.148446634
vt 0.820441425 0.101556055
vt 0.802342415 0.147454441
vt 0.80977118 0.101061873
vt 0.795805752 0.104241304
vt 0.785170496 0.149929509
vt 0.759205103 0.147999421
vt 0.773456454 0.108538039
vt 0.726505995 0.147824466
vt 0.733956039 0.10876482
vt 0.804024458 0.090829663
vt 0.746486127 0.0932378098
vt 0.829945207 0.0924948677
vt 0.776593089 0.0933311805
vt 0.746486127 0.0932378098
vt 0.804024458 0.090829663
vt 0.829945207 0.0924948677
vt 0.804024458 0.090829663
vt 0.829945207 0.0924948677
vt 0.857843459 0.0988426432
vt 0.890716553 0.102235205
vt 0.898606062 0.0539829396
vt 0.876287937 0.0658744201
vt 0.911856234 0.0941138938
vt 0.880068362 0.0287756585
vt 0.863733888 0.0431157164
vt 0.853787184 0.0652519986
vt 0.846771479 0.0450207852
vt 0.831002116 0.0610682927
vt 0.829945207 0.0924948677
vt 0.811497331 0.0584524237
vt 0.804024458 0.090829663
vt 0.857843459 0.0988426432
vt 0.78783083 0.0564516596
vt 0.776593089 0.0933311805
vt 0.746486127 0.0932378098
vt 0.765099049 0.051932659
vt 0.786270261 0.0275329016
vt 0.800511956 0.0359789692
vt 0.814281583 0.0437290184
vt 0.832348466 0.0471326075
vt 0.833490968 0.00743966829
vt 0.833490968 0.00743966829
vt 0.833490968 0.00743966829
vt 0.833490968 0.00743966829
vn -0.997974932 -0.0410847887 0.0485605784
vn -0.747147262 -0.355791837 0.561411619
vn -0.640724063 -0.723314166 0.257466912
vn -0.469405383 0.183446378 0.863716424
vn -0.812278509 -0.508223355 0.286203772
vn -0.741137207 -0.668279231 -0.0641758963
vn -0.315897852 -0.86122793 0.398114204
vn -0.830811083 -0.420814395 0.364236593
vn -0.957436323 0.0825720653 0.276581854
vn -0.961957157 0.0819665417 0.260614485
vn -0.787729144 0.592701733 0.167891324
vn -0.689847827 0.633867919 0.349744946
vn -0.752098024 0.14884603 0.642022908
vn -0.792819858 0.124888085 0.596522868
vn -0.757790864 0.543903708 0.360446721
vn -0.747147262 -0.355791837 0.561411619
vn -0.707529545 -0.433785468 0.557881892
vn -0.488995492 -0.557459176 0.670911789
vn -0.598224878 0.134680718 0.789929092
vn 0.584842861 -0.491207451 0.645502985
vn 0.50830406 0.180831403 0.841978073
vn -0.488980114 0.774671316 0.400977314
vn -0.181866303 0.982955933 -0.0268736761
vn -0.19534795 -0.908761978 0.368769467
vn -0.409210861 -0.853824317 0.321761519
vn 0.352778077 -0.877941668 0.323675931
vn 0.59144181 0.724036574 0.354919255
vn 0.0401171967 0.997748435 -0.0537452623
vn 0.460937142 -0.884611607 -0.070705317
vn 0.48858875 -0.870328546 -0.0617197677
vn 0.209516704 -0.538250983 -0.81632638
vn 0.911320746 -0.378617615 -0.161688745
vn 0.749079585 -0.651561618 0.119780101
vn -0.0769530907 -0.992366374 0.0963703692
vn 0.331157148 -0.65249896 0.681601048
vn -0.151789933 -0.888964415 -0.432090312
vn 0.295707881 -0.935990691 0.190992638
vn 0.667845249 -0.743693054 0.0300563518
vn 0.867181361 -0.395527303 -0.302579969
vn -0.208026186 -0.944110632 -0.255695701
vn 0.285193682 -0.833149552 -0.473842144
vn 0.267213345 -0.535411716 -0.801206112
vn -0.246834069 -0.951105177 -0.185665667
vn -0.609719157 -0.787981033 0.0856065005
vn -0.806002259 -0.282750577 0.520011961
vn -0.686457038 -0.668390691 0.286409974
vn -0.965505838 -0.234266281 0.113656424
vn -0.86562866 0.392739534 0.31055221
vn -0.984602332 -0.105986275 -0.139015272
vn -0.931076348 0.364792585 0.00480387732
vn -0.328995734 -0.878546417 0.346291721
vn 0.442646921 -0.861973763 -0.247113347
vn 0.314745873 -0.883321285 0.347388178
vn 0.442646921 -0.861973763 -0.247113347
vn 0.899567306 -0.419969589 0.120017476
vn 0.642816186 -0.250702769 -0.723833919
vn 0.998364747 -0.057160452 -0.000657047611
vn -0.48057425 0.869583786 -0.113456182
vn -0.75968796 0.580156386 -0.293756157
vn -0.888030231 0.441887707 0.127033934
vn -0.803625584 0.573512316 -0.15896368
vn -0.389041811 0.920484304 0.0368138142
vn -0.461638063 0.886918485 -0.0163079072
vn 0.219629556 0.901054561 -0.373983473
vn 0.0287608374 0.991946757 -0.123346515
vn 0.554223061 0.822460771 -0.128043368
vn 0.478430212 0.86011517 -0.176935881
vn 0.849532127 0.443864733 -0.285095394
vn 0.233208939 0.126252517 -0.964196086
vn 0.209516704 -0.538250983 -0.81632638
vn 0.911320746 -0.378617615 -0.161688745
vn 0.876439095 0.329037249 -0.351552308
vn 0.867181361 -0.395527303 -0.302579969
vn -0.0360319875 0.486990333 -0.872663796
vn -0.271292359 0.782075405 -0.561033428
vn 0.0401171967 0.997748435 -0.0537452623
vn -0.349882096 0.826123953 -0.44170329
vn 0.122022957 0.483360231 -0.866875648
vn 0.267934054 -0.0589893945 -0.961629629
vn 0.267213345 -0.535411716 -0.801206112
vn -0.256277263 0.682637036 -0.684345424
vn 0.216607228 0.344638735 -0.913403273
vn 0.397179186 0.030973902 -0.917218328
vn 0.642816186 -0.250702769 -0.723833919
vn 0.170243874 0.633098066 -0.755118489
vn 0.641675413 0.228616163 -0.732111633
vn -0.240088582 0.274627656 -0.931094587
vn -0.434510291 -0.0586949438 -0.898752332
vn -0.440107435 -0.436263293 -0.784843862
vn 0.84277457 0.335061669 -0.421265662
vn 0.775634587 0.224777922 -0.589801669
vn 0.428205818 0.443173766 -0.787551045
vn 0.165066659 0.383383811 -0.908718705
vn -0.295499384 0.3203592 -0.900027871
vn 0.617158413 0.00791698042 -0.786799073
vn 0.840039194 -0.205627143 -0.5020473
vn 0.372433603 0.143320099 -0.91692555
vn -0.28010425 -0.57599175 -0.767968118
vn 0.503363609 -0.576198936 -0.643909872
vn -0.295499384 0.3203592 -0.900027871
vn 0.503363609 -0.576198936 -0.643909872
vn 0.335742414 -0.777557731 -0.531677485
vn 0.372433603 0.143320099 -0.91692555
vn -0.440107435 -0.436263293 -0.784843862
vn -0.265123039 -0.690215111 -0.673285186
vn -0.0614002831 -0.837388992 -0.543147922
vn -0.265123039 -0.690215111 -0.673285186
vn -0.370894909 -0.908358872 0.193186522
vn 0.12869592 -0.903659821 0.408456057
vn 0.699149907 -0.675928175 0.233046502
vn 0.84277457 0.335061669 -0.421265662
vn -0.997974932 -0.0410847887 0.0485605784
vn -0.984602332 -0.105986275 -0.139015272
vn -0.741034865 0.668256998 -0.0655738115
vn -0.984602332 -0.105986275 -0.139015272
vn -0.997974932 -0.0410847887 0.0485605784
vn -0.469405383 0.183446378 0.863716424
vn 0.716176569 0.309246421 0.625665724
vn -0.0274272207 0.627754152 0.777928293
vn 0.0945755839 0.655957699 0.748849154
vn 0.844423115 0.35395056 0.402080327
vn -0.301428765 0.0360072404 0.952808619
vn 0.675733149 0.234040901 0.699006081
vn 0.661129653 0.290820926 0.691614628
vn 0.300369829 0.835896969 0.459406286
vn -0.0111687696 -0.457285225 0.88924998
vn 0.916230619 0.0150557831 0.400368273
vn 0.478181899 -0.515787363 0.710848391
vn 0.909496486 0.139907211 0.391461462
vn 0.758901179 0.286619097 0.584737957
vn 0.636797309 -0.50229162 0.584972084
vn -0.173835307 -0.971925378 -0.158563882
vn -0.400574595 -0.883638382 0.242328852
vn 0.0934657305 -0.876565754 -0.472119272
vn 0.803976595 -0.471478075 0.362394929
vn 0.712967277 0.166987047 0.681023538
vn 0.943069518 -0.27093637 0.192907378
vn 0.72867763 0.24511382 0.639490604
vn 0.997127593 0.05383531 0.0532755516
vn 0.672905862 0.285653442 0.682348788
vn 0.916949332 0.396495759 0.044665847
vn 0.708273351 0.705563545 0.0229988061
vn 0.416312754 0.865652025 0.278083116
vn 0.663111031 0.304168612 0.683933556
vn 0.198530883 0.803787529 0.560812891
vn 0.66854918 0.298295498 0.68122071
vn 0.0945755839 0.655957699 0.748849154
vn 0.716176569 0.309246421 0.625665724
vn 0.300369829 0.835896969 0.459406286
vn -0.289860904 0.940429449 0.177687883
vn -0.251668423 0.838876247 -0.482648581
vn 0.0401171967 0.997748435 -0.0537452623
vn 0.425374836 0.226570442 -0.876197517
vn 0.422855407 -0.260730386 -0.867878497
vn 0.332906157 -0.669699073 -0.66383481
vn 0.209516704 -0.538250983 -0.81632638
vn -0.151789933 -0.888964415 -0.432090312
vn -0.0769530907 -0.992366374 0.0963703692
vn 0.331157148 -0.65249896 0.681601048
vn 0.233208939 0.126252517 -0.964196086
vn 0.209516704 -0.538250983 -0.81632638
vn 0.661129653 0.290820926 0.691614628
vn 0.331157148 -0.65249896 0.681601048
vn 0.120999478 0.578541219 -0.806628287
vn -0.0360319875 0.486990333 -0.872663796
vn 0.233208939 0.126252517 -0.964196086
vn -0.271292359 0.782075405 -0.561033428
vn -0.0360319875 0.486990333 -0.872663796
vn -0.271292359 0.782075405 -0.561033428
vn 0.632570505 0.247905821 0.733755589
vn 0.783981323 0.604289353 0.142153561
vn 0.887439132 0.425197035 -0.177930459
vn 0.933214188 0.0599706285 -0.3542808
vn 0.816823244 -0.548197687 -0.179663956
vn 0.0401171967 0.997748435 -0.0537452623
vn 0.300369829 0.835896969 0.459406286
vn 0.59144181 0.724036574 0.354919255
vn 0.661129653 0.290820926 0.691614628
vn 0.300369829 0.835896969 0.459406286
vn 0.50830406 0.180831403 0.841978073
vn 0.584842861 -0.491207451 0.645502985
vn 0.584842861 -0.491207451 0.645502985
vn 0.331157148 -0.65249896 0.681601048
vn 0.352778077 -0.877941668 0.323675931
vn -0.271292359 0.782075405 -0.561033428
vn -0.163051173 -0.741415203 -0.650936067
vn -0.434510291 -0.0586949438 -0.898752332
vn -0.439963698 0.554430425 -0.706426799
vn -0.240088582 0.274627656 -0.931094587
vn -0.632176816 -0.337198108 -0.697603047
vn -0.440107435 -0.436263293 -0.784843862
vn -0.349979371 -0.797127426 -0.492038906
vn -0.627331674 0.0931332633 -0.77316314
vn -0.637907982 -0.223009795 -0.737116039
vn -0.206949919 -0.724108875 -0.657904327
vn -0.265123039 -0.690215111 -0.673285186
vn -0.127040088 -0.973519564 -0.19005388
vn -0.663455546 0.189374387 -0.723853648
vn -0.527030826 0.0143273091 -0.849725366
vn -0.870459497 -0.21644631 -0.442098498
vn 0.199735045 -0.979646504 -0.0199660175
vn -0.405462921 0.128871039 -0.904981732
vn 0.214610443 -0.629320502 -0.746925831
vn -0.789614081 0.117627501 -0.602223635
vn -0.693631589 -0.299174488 -0.655263066
vn -0.144395605 -0.966250241 -0.213331372
vn -0.104470223 -0.370559931 -0.922914505
vn -0.527030826 0.0143273091 -0.849725366
vn -0.203960717 -0.737401426 -0.643924713
vn -0.295499384 0.3203592 -0.900027871
vn -0.28010425 -0.57599175 -0.767968118
vn -0.492588788 0.358717829 -0.792892039
vn -0.647534192 -0.567335308 -0.508753479
vn 0.428205818 0.443173766 -0.787551045
vn -0.39240855 -0.796067238 -0.4607521
vn -0.271370292 0.726419568 -0.631405413
vn -0.163051173 -0.741415203 -0.650936067
vn -0.0614002831 -0.837388992 -0.543147922
vn -0.265123039 -0.690215111 -0.673285186
vn -0.370894909 -0.908358872 0.193186522
vn -0.104470223 -0.370559931 -0.922914505
vn -0.0312810056 -0.96772635 -0.250054181
vn 0.335742414 -0.777557731 -0.531677485
vn 0.214117631 -0.971185386 -0.104654305
vn 0.503363609 -0.576198936 -0.643909872
vn -0.215820193 -0.815787017 -0.536575556
vn 0.372433603 0.143320099 -0.91692555
vn -0.830018938 -0.202253431 -0.519771278
vn 0.165066659 0.383383811 -0.908718705
vn 0.420017064 0.597700119 0.682891071
vn -0.240088582 0.274627656 -0.931094587
vn -0.163051173 -0.741415203 -0.650936067
vn 0.420017064 0.597700119 0.682891071
vn -0.28010425 -0.57599175 -0.767968118
vn -0.789614081 0.117627501 -0.602223635
vn 0.503363609 -0.576198936 -0.643909872
vn -0.28010425 -0.57599175 -0.767968118
vn -0.997974932 -0.0410847887 0.0485605784
vn -0.984602332 -0.105986275 -0.139015272
vn 0.200921759 -0.883427322 -0.423304379
vn -0.144395605 -0.966250241 -0.213331372
vn 0.214117631 -0.971185386 -0.104654305
vn -0.105182745 -0.947437227 -0.302158028
vn -0.65045011 -0.725872397 -0.223660529
vn -0.693631589 -0.299174488 -0.655263066
vn 0.63664794 -0.394670427 -0.662506402
vn 0.503363609 -0.576198936 -0.643909872
vn -0.789614081 0.117627501 -0.602223635
vn 0.239145741 0.573209345 -0.783734918
vn -0.0936547741 -0.215448827 -0.972013652
vn -0.0531613715 -0.296215832 -0.953640401
vn -0.109536618 -0.161929086 -0.980704188
vn -0.10329967 -0.172316685 -0.979610205
vn -0.0387549773 -0.238102525 -0.970466435
vn -0.948692441 -0.00116732379 -0.31619817
vn -0.693631589 -0.299174488 -0.655263066
vn -0.870459497 -0.21644631 -0.442098498
vn -0.712208688 0.509815037 -0.482542843
vn -0.426633894 0.66018492 -0.618174195
vn -0.405462921 0.128871039 -0.904981732
vn 0.239145741 0.573209345 -0.783734918
vn -0.789614081 0.117627501 -0.602223635
vn -0.108887047 -0.0719302297 -0.991448283
vn -0.109536618 -0.161929086 -0.980704188
vn -0.118239798 -0.123469479 -0.985278964
vn -0.160111353 -0.0569066741 -0.985457242
vn -0.108887047 -0.0719302297 -0.991448283
vn 0.472186536 -0.866212666 0.163448408
vn 0.77289784 -0.304888695 -0.5564816
vn 0.311622441 -0.829224408 -0.463981152
vn 0.96860683 -0.194108069 -0.155315086
vn 0.57078135 0.771731853 -0.280425698
vn 0.390108347 0.624711335 -0.676425338
vn 0.0508689694 -0.948808551 -0.311728388
vn -0.0135351466 -0.955105126 0.295957923
vn -0.593724191 -0.656135976 0.465808064
vn -0.527984917 -0.718780816 -0.452311814
vn -0.920907676 0.152985737 0.358503103
vn -0.826991916 0.0327652469 -0.561258316
vn -0.599267185 0.603842616 -0.525597692
vn -0.709982932 0.692140818 0.129866377
vn -0.284095824 0.675043821 -0.680885732
vn -0.254654586 0.965384245 -0.0564293303
vn 0.390108347 0.624711335 -0.676425338
vn 0.164797559 -0.0416703597 -0.985446811
vn 0.0781692713 0.0183108654 -0.996771872
vn 0.57078135 0.771731853 -0.280425698
vn 0.251592577 -0.246531293 -0.935907781
vn 0.0811605901 0.177794471 -0.980715036
vn 0.251592577 -0.246531293 -0.935907781
vn 0.251592577 -0.246531293 -0.935907781
vn 0.147522822 -0.19273214 -0.970098674
vn 0.175013497 -0.0788434967 -0.981404066
vn 0.164797559 -0.0416703597 -0.985446811
vn 0.251592577 -0.246531293 -0.935907781
vn 0.164797559 -0.0416703597 -0.985446811
vn -0.87762922 0.45999822 0.134790838
vn -0.337409139 0.931250095 -0.137579769
vn -0.293090343 0.948646188 -0.1190309
vn -0.960687399 0.272413105 -0.0535795614
vn -0.631839097 -0.768675447 0.0995863006
vn -0.453185618 -0.848230958 0.274093091
vn -0.891696215 0.166417867 -0.420931101
vn -0.567239106 -0.782315016 -0.257338375
vn 0.057045985 -0.132922024 -0.989483416
vn -0.375955701 0.853939295 -0.359784603
vn 0.491152287 0.759316206 -0.426858753
vn 0.504196405 0.793487966 -0.34082666
vn 0.057045985 -0.132922024 -0.989483416
vn 0.239399105 -0.968421698 -0.0696234405
vn 0.283343345 -0.94670105 0.153211623
vn 0.886920989 -0.397004992 -0.236131623
vn 0.057045985 -0.132922024 -0.989483416
vn 0.911279321 -0.383392364 -0.15026705
vn 0.491152287 0.759316206 -0.426858753
vn 0.057045985 -0.132922024 -0.989483416
vn 0.504196405 0.793487966 -0.34082666
vn 0.057045985 -0.132922024 -0.989483416
vn 0.057045985 -0.132922024 -0.989483416
vn 0.371358603 -0.916691363 0.147545561
vn 0.952942193 -0.222989902 -0.205370009
vn 0.631622255 0.693839967 -0.3458893
vn 0.631622255 0.693839967 -0.3458893
vn 0.504196405 0.793487966 -0.34082666
vn 0.504196405 0.793487966 -0.34082666
vn 0.631622255 0.693839967 -0.3458893
vn -0.0475516729 -0.92844373 -0.368416935
vn -0.349979371 -0.797127426 -0.492038906
vn -0.127040088 -0.973519564 -0.19005388
vn -0.370115101 -0.889332473 -0.268519461
vn -0.819311321 -0.514814794 -0.252378106
vn -0.632176816 -0.337198108 -0.697603047
vn 0.526693106 -0.606637239 -0.595471084
vn -0.203960717 -0.737401426 -0.643924713
vn -0.0786638707 -0.332438797 -0.939838588
vn -0.0756402388 -0.25494647 -0.963992178
vn -0.0768008232 -0.214374065 -0.973727524
vn -0.0360854529 -0.295693725 -0.95460099
vn -0.0488760807 -0.122259416 -0.991294086
vn -0.874193609 0.258478165 -0.41106528
vn -0.632176816 -0.337198108 -0.697603047
vn -0.439963698 0.554430425 -0.706426799
vn -0.487446129 0.657055855 -0.575042486
vn -0.164547861 0.701490521 -0.693422675
vn -0.271370292 0.726419568 -0.631405413
vn 0.45455727 0.401365459 -0.795162559
vn -0.492588788 0.358717829 -0.792892039
vn -0.0795048177 -0.202740729 -0.975999594
vn -0.0757559165 -0.16393809 -0.983557582
vn 0.526693106 -0.606637239 -0.595471084
vn -0.492588788 0.358717829 -0.792892039
vn -0.203960717 -0.737401426 -0.643924713
vn -0.0768008232 -0.214374065 -0.973727524
vn -0.0966041982 -0.0890647471 -0.991329908
vn -0.0488760807 -0.122259416 -0.991294086
vn 0.197392315 -0.941432178 0.27338931
vn 0.68274498 -0.566292882 -0.461705029
vn 0.0957439244 -0.903237879 -0.418323398
vn 0.872965932 -0.485224932 -0.0498720184
vn 0.221420214 -0.198839173 -0.954691648
vn 0.196421996 -0.270036042 -0.942602158
vn -0.346741289 -0.853794515 0.388336658
vn -0.211077407 -0.933837056 -0.288781345
vn -0.794743121 -0.415369987 0.442550868
vn -0.676940918 -0.563058734 -0.474042058
vn -0.858002663 0.442338079 0.261091024
vn -0.736680925 0.228112444 -0.636604965
vn -0.336385608 0.681894243 -0.649511278
vn -0.474607706 0.879933834 0.0215410721
vn -0.0172605533 0.667443335 -0.744460523
vn 0.0549981035 0.989306033 -0.135088339
vn 0.611312985 0.422462791 -0.669194639
vn 0.218238458 -0.164715454 -0.961894393
vn 0.164484158 -0.093727991 -0.981916487
vn 0.79725337 0.541354299 -0.267062873
vn 0.68274498 -0.566292882 -0.461705029
vn 0.872965932 -0.485224932 -0.0498720184
vn 0.222898558 -0.0468163155 -0.973716795
vn 0.221420214 -0.198839173 -0.954691648
vn 0.234046206 -0.412745863 -0.880263209
vn 0.222898558 -0.0468163155 -0.973716795
vn 0.222898558 -0.0468163155 -0.973716795
vn 0.190264866 -0.9023422 0.386752844
vn -0.615564406 -0.598173499 0.513097465
vn -0.460198104 -0.651527584 0.603099883
vn 0.0848631635 -0.93637979 0.340574682
vn 0.903956234 -0.360224247 -0.230437875
vn -0.757658362 -0.644658804 0.101827212
vn -0.785048902 0.521154404 0.334807754
vn -0.894984782 0.443920225 -0.0440141223
vn -0.176783964 0.984050333 -0.019809898
vn -0.693642735 0.622591853 0.362269521
vn -0.0400116853 0.996148825 -0.0780164972
vn 0.65091902 0.717618942 -0.247644022
vn 0.761762679 0.490780532 -0.422909141
vn 0.820100188 -0.571974456 0.0167578813
vn 0.903956234 -0.360224247 -0.230437875
vn -0.098121047 0.983754456 -0.150330916
vn -0.115645818 0.921883821 -0.369805843
vn 0.662261009 0.620183825 -0.42045489
vn 0.719292998 0.654236674 -0.233649313
vn -0.787240028 0.374180317 -0.490144998
vn 0.103854224 -0.160833657 -0.981502354
vn -0.659175336 -0.671120405 -0.33924222
vn 0.103854224 -0.160833657 -0.981502354
vn 0.0883421078 -0.991683125 -0.0935965553
vn 0.103854224 -0.160833657 -0.981502354
vn 0.143581852 -0.980950713 0.130843282
vn 0.791857719 -0.559534609 -0.244708613
vn 0.862244725 -0.504434288 -0.0456092991
vn 0.862244725 -0.504434288 -0.0456092991
vn 0.103854224 -0.160833657 -0.981502354
vn 0.820100188 -0.571974456 0.0167578813
vn 0.903956234 -0.360224247 -0.230437875
vn 0.862244725 -0.504434288 -0.0456092991
vn 0.103854224 -0.160833657 -0.981502354
vn 0.791857719 -0.559534609 -0.244708613
vn 0.862244725 -0.504434288 -0.0456092991
vn 0.862244725 -0.504434288 -0.0456092991
vn 0.234046206 -0.412745863 -0.880263209
vn 0.234046206 -0.412745863 -0.880263209
vn -0.693642735 0.622591853 0.362269521
vn -0.577163398 -0.706433237 -0.409676015
vn -0.765712798 -0.613182843 -0.194141209
vn -0.856937826 -0.292592347 -0.424319893
vn -0.346414089 -0.901516378 -0.259355932
vn -0.939320683 0.0868053585 -0.331875652
vn -0.215820193 -0.815787017 -0.536575556
vn -0.224967211 0.631765127 -0.741796851
vn 0.372433603 0.143320099 -0.91692555
vn 0.37255168 -0.809651017 -0.453509063
vn 0.185446367 -0.707967341 -0.681463063
vn 0.619204104 -0.188280925 -0.762323081
vn 0.294291556 0.017262768 -0.95555979
vn 0.34676677 0.332325101 -0.877104878
vn -0.768063247 -0.631787181 -0.104517005
vn -0.104470223 -0.370559931 -0.922914505
vn -0.577163398 -0.706433237 -0.409676015
vn -0.425061136 0.245451644 -0.871249974
vn -0.705063641 0.0360074379 -0.708229184
vn 0.00911475904 0.810656071 -0.585451722
vn -0.757775962 -0.496483922 -0.423413813
vn -0.999800265 0.0198262427 0.00250940071
vn -0.622641087 -0.759320736 0.18907699
vn -0.312637806 -0.241369024 -0.9186939
vn 0.00911475904 0.810656071 -0.585451722
vn -0.312637806 -0.241369024 -0.9186939
vn -0.363741636 -0.67684108 -0.639982879
vn 0.0555597059 -0.998299181 0.0176636614
vn 0.154088423 -0.276458859 -0.948592246
vn 0.807377994 -0.423933476 -0.41039139
vn 0.145427644 0.220631346 -0.964454591
vn 0.751205444 0.298472166 -0.588731527
vn -0.312637806 -0.241369024 -0.9186939
vn -0.312637806 -0.241369024 -0.9186939
vn -0.312637806 -0.241369024 -0.9186939
vn 0.00911475904 0.810656071 -0.585451722
vn -0.312637806 -0.241369024 -0.9186939
vn -0.425061136 0.245451644 -0.871249974
vn -0.224967211 0.631765127 -0.741796851
vn 0.294291556 0.017262768 -0.95555979
vn 0.0216032639 0.397997797 -0.91713196
vn -0.224967211 0.631765127 -0.741796851
vn 0.372433603 0.143320099 -0.91692555
vn 0.00911475904 0.810656071 -0.585451722
vn -0.425061136 0.245451644 -0.871249974
vn 0.617158413 0.00791698042 -0.786799073
vn 0.431715071 0.249888852 -0.86670506
vn 0.372433603 0.143320099 -0.91692555
vn 0.596821487 -0.266524732 -0.756814897
vn 0.998364747 -0.057160452 -0.000657047611
vn 0.699149907 -0.675928175 0.233046502
vn 0.342215151 -0.813374102 -0.470437407
vn 0.185446367 -0.707967341 -0.681463063
vn 0.294291556 0.017262768 -0.95555979
vn -0.257641375 -0.935107291 -0.243300617
vn 0.12869592 -0.903659821 0.408456057
vn -0.370894909 -0.908358872 0.193186522
vn -0.104470223 -0.370559931 -0.922914505
vn 0.84277457 0.335061669 -0.421265662
vn 0.617158413 0.00791698042 -0.786799073
vn -0.577163398 -0.706433237 -0.409676015
vn -0.257641375 -0.935107291 -0.243300617
vn 0.185446367 -0.707967341 -0.681463063
vn 0.342215151 -0.813374102 -0.470437407
vn 0.37255168 -0.809651017 -0.453509063
vn 0.154088423 -0.276458859 -0.948592246
vn -0.363741636 -0.67684108 -0.639982879
vn -0.346414089 -0.901516378 -0.259355932
vn 0.0163103025 -0.917535126 -0.397320151
vn -0.206949919 -0.724108875 -0.657904327
vn 0.199735045 -0.979646504 -0.0199660175
vn -0.311397791 -0.90763545 -0.281477034
vn -0.789535522 -0.571888387 -0.222659752
vn -0.637907982 -0.223009795 -0.737116039
vn 0.544947267 -0.542311132 -0.639477253
vn 0.214610443 -0.629320502 -0.746925831
vn -0.527030826 0.0143273091 -0.849725366
vn 0.368565112 0.478445143 -0.79702574
vn -0.111001097 -0.292109162 -0.949921548
vn -0.117699504 -0.217706636 -0.968891442
vn -0.120518655 -0.170904934 -0.977888942
vn -0.124632552 -0.160215408 -0.979182184
vn -0.072415635 -0.25034067 -0.965445697
vn -0.101938717 -0.07707192 -0.991800606
vn -0.920058966 0.197557464 -0.338323295
vn -0.637907982 -0.223009795 -0.737116039
vn -0.575705707 0.637556672 -0.51194191
vn -0.627331674 0.0931332633 -0.77316314
vn -0.637907982 -0.223009795 -0.737116039
vn -0.262765288 0.717928886 -0.644618034
vn -0.663455546 0.189374387 -0.723853648
vn 0.368565112 0.478445143 -0.79702574
vn -0.527030826 0.0143273091 -0.849725366
vn -0.124632552 -0.160215408 -0.979182184
vn -0.129301324 -0.118939079 -0.984446347
vn -0.152686089 -0.0474504642 -0.987134993
vn -0.101938717 -0.07707192 -0.991800606
vn 0.272818595 -0.935599864 0.224104792
vn 0.697352409 -0.487748474 -0.525167644
vn 0.140581697 -0.865905464 -0.480046451
vn 0.900291979 -0.417563587 -0.122943692
vn 0.150353014 -0.188305512 -0.970533371
vn 0.17695196 -0.122269869 -0.976595223
vn 0.524083912 0.511951566 -0.680618525
vn 0.721419752 0.632204354 -0.282614976
vn -0.250683874 -0.898316622 0.360811353
vn -0.152871668 -0.932175875 -0.328143716
vn -0.727367759 -0.503884017 0.465872437
vn -0.661210299 -0.597998261 -0.452988952
vn -0.873378754 0.353022009 0.335537016
vn -0.796795547 0.193191022 -0.572532952
vn -0.431831628 0.69532752 -0.574491978
vn -0.545575619 0.832362235 0.0975728184
vn -0.122594707 0.687456906 -0.715802789
vn -0.0563024357 0.995978355 -0.0696923956
vn 0.524083912 0.511951566 -0.680618525
vn 0.721419752 0.632204354 -0.282614976
vn 0.19096984 -0.325364083 -0.926104069
vn 0.120776281 0.0814278573 -0.989334404
vn 0.120776281 0.0814278573 -0.989334404
vn 0.162772328 -0.112662092 -0.980210364
vn 0.132788897 -0.0529644229 -0.989728153
vn 0.120776281 0.0814278573 -0.989334404
vn -0.718477249 -0.695388556 0.0150037389
vn -0.848314047 0.52481389 0.0702396035
vn -0.614523709 -0.740455449 0.272188187
vn -0.916079402 0.369752496 -0.15518257
vn -0.591763377 -0.721311152 -0.359897673
vn -0.771774948 0.329585195 -0.543817103
vn 0.16950798 -0.160131186 -0.972432613
vn -0.157548875 0.918765247 -0.362006605
vn -0.176682353 0.969641685 -0.169050992
vn 0.16950798 -0.160131186 -0.972432613
vn 0.654129028 0.673300028 -0.344648093
vn 0.187931776 -0.981652677 -0.0322422162
vn 0.16950798 -0.160131186 -0.972432613
vn 0.182849169 -0.97302568 0.140666723
vn 0.872625291 -0.465777695 -0.146888331
vn 0.16950798 -0.160131186 -0.972432613
vn 0.884319961 -0.461694986 -0.069397293
vn 0.919702053 -0.382223606 -0.0897399709
vn 0.216679618 -0.963536024 0.156997859
vn 0.670104086 0.697516501 -0.253833205
vn 0.732082546 0.632958293 -0.251831263
vn 0.654129028 0.673300028 -0.344648093
vn 0.654129028 0.673300028 -0.344648093
vn 0.654129028 0.673300028 -0.344648093
vn 0.16950798 -0.160131186 -0.972432613
vn 0.732082546 0.632958293 -0.251831263
vn 0.670104086 0.697516501 -0.253833205
vn -0.140139922 0.978196561 -0.153271914
vn 0.654129028 0.673300028 -0.344648093
vn 0.654129028 0.673300028 -0.344648093
vn 0.16950798 -0.160131186 -0.972432613
vn 0.162772328 -0.112662092 -0.980210364
vn 0.19096984 -0.325364083 -0.926104069
vn -0.242693976 -0.91098088 -0.333486617
vn -0.163051173 -0.741415203 -0.650936067
vn -0.39240855 -0.796067238 -0.4607521
vn -0.51106751 -0.80564636 -0.299573094
vn -0.883462012 -0.409199476 -0.228145868
vn 0.420017064 0.597700119 0.682891071
vn 0.403113216 -0.733540356 -0.547191322
vn -0.647534192 -0.567335308 -0.508753479
vn 0.428205818 0.443173766 -0.787551045
vn 0.532571614 0.274096131 -0.800773859
vn -0.130785838 -0.155427992 -0.979151249
vn -0.132124782 -0.168120965 -0.976871789
vn -0.1369517 -0.205272034 -0.96907568
vn -0.143635526 -0.245520547 -0.958691061
vn -0.114811741 -0.248182833 -0.961885452
vn -0.0956037119 -0.0853643045 -0.991752446
vn -0.863773942 0.3636581 -0.348779649
vn 0.420017064 0.597700119 0.682891071
vn -0.830018938 -0.202253431 -0.519771278
vn -0.410547346 0.739109933 -0.534010708
vn -0.0286227092 0.741755247 -0.670059681
vn 0.165066659 0.383383811 -0.908718705
vn 0.532571614 0.274096131 -0.800773859
vn 0.428205818 0.443173766 -0.787551045
vn -0.121785499 -0.0494377986 -0.991324425
vn -0.130785838 -0.155427992 -0.979151249
vn -0.132746384 -0.125158891 -0.983215988
vn -0.496300012 -0.790181935 0.359581381
vn -0.0592849925 -0.903116941 -0.42528227
vn -0.397370428 -0.838693619 -0.372410804
vn 0.00802768767 -0.969179571 0.246224299
vn 0.748701513 -0.662124336 -0.0322094187
vn 0.54946357 -0.688873231 -0.472803831
vn 0.879430056 0.416187614 -0.231064379
vn 0.673577726 0.332464367 -0.660121679
vn 0.132270575 -0.208847344 -0.968961954
vn 0.133563206 -0.172097847 -0.975983202
vn -0.854548752 -0.291717321 0.429706216
vn -0.790938079 -0.403401047 -0.460091919
vn -0.775942683 0.57370913 0.262241662
vn -0.694595873 0.384556532 -0.607990801
vn -0.177703843 0.718547583 -0.672391832
vn -0.250060916 0.966564357 -0.0567714199
vn 0.233310074 0.961132288 -0.147618458
vn 0.0961445123 0.704389691 -0.703271985
vn 0.879430056 0.416187614 -0.231064379
vn 0.673577726 0.332464367 -0.660121679
vn 0.1582001 -0.0880890712 -0.983469903
vn 0.133563206 -0.172097847 -0.975983202
vn 0.118663497 -0.299432516 -0.946709573
vn 0.120825447 -0.111868814 -0.986350119
vn 0.133563206 -0.172097847 -0.975983202
vn 0.1582001 -0.0880890712 -0.983469903
vn 0.118663497 -0.299432516 -0.946709573
vn 0.1582001 -0.0880890712 -0.983469903
vn 0.118663497 -0.299432516 -0.946709573
vn 0.140744045 -0.255648762 -0.956469953
vn 0.803834081 -0.593964517 -0.0325118192
vn 0.785707176 0.527605116 -0.322950602
vn 0.709492743 -0.703793883 -0.0359747261
vn 0.854998291 0.444341898 -0.267466396
vn 0.760537088 0.465309203 -0.452847302
vn 0.682743251 -0.707307994 -0.18324022
vn -0.0750351548 -0.973626375 0.215456411
vn -0.0905629024 -0.994668901 -0.0493159778
vn -0.837854981 -0.543376327 0.0523568653
vn -0.79613775 -0.520354927 0.308861583
vn -0.793313026 0.571848452 -0.208910912
vn -0.701303184 0.712801576 0.00937294867
vn -0.0835921019 -0.939022064 0.333541423
vn 0.0161151178 0.969492435 -0.244590864
vn 0.0361160561 0.992837965 -0.113878988
vn 0.854998291 0.444341898 -0.267466396
vn 0.785707176 0.527605116 -0.322950602
vn 0.760537088 0.465309203 -0.452847302
vn 0.03271088 0.879983187 -0.473877192
vn -0.688519299 0.513811707 -0.511799455
vn -0.75731802 -0.585621476 -0.288992912
vn 0.0528980345 -0.228700265 -0.972058713
vn 0.0528980345 -0.228700265 -0.972058713
vn 0.0528980345 -0.228700265 -0.972058713
vn 0.0528980345 -0.228700265 -0.972058713
g blue_war_m_pve_3_hand_r_0
f 3/3/3 2/2/2 1/1/1
f 4/4/4 1/1/1 2/2/2
f 3/3/3 5/5/5 2/2/2
f 5/5/5 6/6/6 2/2/2
f 2/2/2 6/6/6 7/7/7
f 2/2/2 7/7/7 8/8/8
f 9/9/9 2/2/2 8/8/8
f 9/9/9 8/8/8 10/10/10
f 9/9/9 10/10/10 11/11/11
f 11/11/11 10/10/10 12/12/12
f 13/13/13 12/12/12 10/10/10
f 14/14/14 12/12/12 13/13/13
f 9/9/9 11/11/11 15/15/15
f 15/15/15 2/2/2 9/9/9
f 4/4/4 16/16/16 15/15/15
f 14/14/14 13/13/13 17/17/17
f 8/8/8 17/17/17 10/10/10
f 13/13/13 10/10/10 17/17/17
f 17/17/17 18/18/18 14/14/14
f 19/19/19 14/14/14 18/18/18
f 18/18/18 20/20/20 19/19/19
f 21/21/21 19/19/19 20/20/20
f 12/12/12 14/14/14 22/22/22
f 19/19/19 22/22/22 14/14/14
f 22/22/22 23/23/23 12/12/12
f 18/18/18 17/17/17 24/24/24
f 24/24/24 17/17/17 25/25/25
f 8/8/8 25/25/25 17/17/17
f 25/25/25 8/8/8 7/7/7
f 24/24/24 26/26/26 18/18/18
f 20/20/20 18/18/18 26/26/26
f 22/22/22 19/19/19 27/27/27
f 21/21/21 27/27/27 19/19/19
f 23/23/23 22/22/22 28/28/28
f 27/27/27 28/28/28 22/22/22
f 24/24/24 25/25/25 29/29/29
f 26/26/26 24/24/24 29/29/29
f 30/30/30 29/29/29 25/25/25
f 7/7/7 30/30/30 25/25/25
f 29/29/29 30/30/30 31/31/31
f 32/32/32 31/31/31 30/30/30
f 33/33/33 32/32/32 30/30/30
f 26/26/26 29/29/29 34/34/34
f 26/26/26 34/34/34 35/35/35
f 36/36/36 34/34/34 29/29/29
f 36/36/36 29/29/29 31/31/31
f 30/30/30 37/37/37 33/33/33
f 37/37/37 30/30/30 7/7/7
f 38/38/38 33/33/33 37/37/37
f 38/38/38 39/39/39 33/33/33
f 32/32/32 33/33/33 39/39/39
f 37/37/37 7/7/7 40/40/40
f 6/6/6 40/40/40 7/7/7
f 38/38/38 37/37/37 41/41/41
f 40/40/40 41/41/41 37/37/37
f 41/41/41 42/42/42 38/38/38
f 39/39/39 38/38/38 42/42/42
f 40/40/40 6/6/6 43/43/43
f 40/40/40 43/43/43 41/41/41
f 44/44/44 43/43/43 6/6/6
f 5/5/5 44/44/44 6/6/6
f 5/5/5 45/45/45 44/44/44
f 44/44/44 45/45/45 46/46/46
f 47/47/47 46/46/46 45/45/45
f 45/45/45 48/48/48 47/47/47
f 49/49/49 48/48/48 45/45/45
f 50/50/50 47/47/47 48/48/48
f 43/43/43 44/44/44 51/51/51
f 46/46/46 51/51/51 44/44/44
f 52/52/52 41/41/41 43/43/43
f 51/51/51 53/53/53 43/43/43
f 54/54/54 43/43/43 53/53/53
f 41/41/41 54/54/54 42/42/42
f 53/53/53 55/55/55 54/54/54
f 56/56/56 42/42/42 54/54/54
f 54/54/54 55/55/55 56/56/56
f 57/57/57 56/56/56 55/55/55
f 50/50/50 48/48/48 58/58/58
f 59/59/59 58/58/58 48/48/48
f 60/60/60 59/59/59 48/48/48
f 60/60/60 61/61/61 59/59/59
f 60/60/60 15/15/15 61/61/61
f 62/62/62 61/61/61 15/15/15
f 15/15/15 11/11/11 62/62/62
f 63/63/63 62/62/62 11/11/11
f 11/11/11 12/12/12 63/63/63
f 23/23/23 63/63/63 12/12/12
f 63/63/63 64/64/64 62/62/62
f 65/65/65 62/62/62 64/64/64
f 62/62/62 65/65/65 61/61/61
f 65/65/65 64/64/64 66/66/66
f 65/65/65 66/66/66 67/67/67
f 66/66/66 68/68/68 67/67/67
f 68/68/68 66/66/66 64/64/64
f 68/68/68 64/64/64 69/69/69
f 69/69/69 70/70/70 68/68/68
f 71/71/71 68/68/68 70/70/70
f 68/68/68 71/71/71 72/72/72
f 72/72/72 67/67/67 68/68/68
f 73/73/73 72/72/72 71/71/71
f 74/74/74 69/69/69 64/64/64
f 75/75/75 74/74/74 64/64/64
f 64/64/64 63/63/63 76/76/76
f 23/23/23 76/76/76 63/63/63
f 65/65/65 67/67/67 77/77/77
f 77/77/77 61/61/61 65/65/65
f 78/78/78 77/77/77 67/67/67
f 67/67/67 72/72/72 78/78/78
f 79/79/79 78/78/78 72/72/72
f 72/72/72 73/73/73 79/79/79
f 80/80/80 79/79/79 73/73/73
f 77/77/77 78/78/78 81/81/81
f 82/82/82 81/81/81 78/78/78
f 78/78/78 79/79/79 82/82/82
f 61/61/61 77/77/77 59/59/59
f 81/81/81 59/59/59 77/77/77
f 83/83/83 82/82/82 79/79/79
f 83/83/83 79/79/79 84/84/84
f 80/80/80 84/84/84 79/79/79
f 81/81/81 82/82/82 85/85/85
f 81/81/81 85/85/85 59/59/59
f 86/86/86 85/85/85 82/82/82
f 58/58/58 59/59/59 85/85/85
f 87/87/87 58/58/58 85/85/85
f 87/87/87 88/88/88 58/58/58
f 50/50/50 58/58/58 88/88/88
f 88/88/88 89/89/89 50/50/50
f 47/47/47 50/50/50 89/89/89
f 84/84/84 90/90/90 83/83/83
f 91/91/91 83/83/83 90/90/90
f 83/83/83 91/91/91 82/82/82
f 86/86/86 82/82/82 91/91/91
f 91/91/91 92/92/92 86/86/86
f 85/85/85 86/86/86 92/92/92
f 92/92/92 93/93/93 85/85/85
f 87/87/87 85/85/85 93/93/93
f 92/92/92 91/91/91 94/94/94
f 90/90/90 95/95/95 91/91/91
f 96/96/96 91/91/91 95/95/95
f 95/95/95 97/97/97 96/96/96
f 91/91/91 96/96/96 98/98/98
f 98/98/98 96/96/96 99/99/99
f 98/98/98 100/100/100 91/91/91
f 96/96/96 102/102/102 101/101/101
f 96/96/96 103/103/103 102/102/102
f 47/47/47 104/104/104 46/46/46
f 105/105/105 46/46/46 104/104/104
f 107/107/107 106/106/106 46/46/46
f 51/51/51 46/46/46 106/106/106
f 106/106/106 108/108/108 51/51/51
f 51/51/51 108/108/108 53/53/53
f 109/109/109 53/53/53 108/108/108
f 53/53/53 109/109/109 55/55/55
f 110/110/110 55/55/55 109/109/109
f 57/57/57 55/55/55 110/110/110
f 111/111/111 56/56/56 57/57/57
f 114/114/114 113/113/113 112/112/112
f 114/114/114 112/112/112 15/15/15
f 15/15/15 60/60/60 114/114/114
f 60/60/60 48/48/48 114/114/114
f 115/115/115 114/114/114 48/48/48
f 117/117/117 15/15/15 116/116/116
f 120/120/120 119/119/119 118/118/118
f 121/121/121 118/118/118 119/119/119
f 119/119/119 122/122/122 121/121/121
f 123/123/123 121/121/121 122/122/122
f 119/119/119 120/120/120 124/124/124
f 124/124/124 122/122/122 119/119/119
f 125/125/125 124/124/124 120/120/120
f 122/122/122 126/126/126 123/123/123
f 127/127/127 123/123/123 126/126/126
f 123/123/123 127/127/127 121/121/121
f 126/126/126 128/128/128 127/127/127
f 129/129/129 127/127/127 128/128/128
f 129/129/129 128/128/128 130/130/130
f 131/131/131 130/130/130 128/128/128
f 131/131/131 128/128/128 132/132/132
f 133/133/133 132/132/132 128/128/128
f 132/132/132 134/134/134 131/131/131
f 135/135/135 131/131/131 134/134/134
f 135/135/135 136/136/136 131/131/131
f 137/137/137 136/136/136 135/135/135
f 136/136/136 137/137/137 138/138/138
f 139/139/139 138/138/138 137/137/137
f 138/138/138 139/139/139 140/140/140
f 141/141/141 140/140/140 139/139/139
f 142/142/142 140/140/140 141/141/141
f 142/142/142 143/143/143 140/140/140
f 144/144/144 140/140/140 143/143/143
f 143/143/143 145/145/145 144/144/144
f 146/146/146 144/144/144 145/145/145
f 145/145/145 147/147/147 146/146/146
f 148/148/148 146/146/146 147/147/147
f 147/147/147 145/145/145 149/149/149
f 150/150/150 149/149/149 145/145/145
f 143/143/143 151/151/151 145/145/145
f 150/150/150 145/145/145 151/151/151
f 149/149/149 150/150/150 152/152/152
f 141/141/141 139/139/139 153/153/153
f 154/154/154 153/153/153 139/139/139
f 139/139/139 137/137/137 154/154/154
f 155/155/155 154/154/154 137/137/137
f 137/137/137 135/135/135 155/155/155
f 134/134/134 155/155/155 135/135/135
f 155/155/155 156/156/156 154/154/154
f 155/155/155 134/134/134 156/156/156
f 157/157/157 156/156/156 134/134/134
f 132/132/132 157/157/157 134/134/134
f 157/157/157 132/132/132 158/158/158
f 133/133/133 158/158/158 132/132/132
f 133/133/133 159/159/159 158/158/158
f 133/133/133 128/128/128 159/159/159
f 126/126/126 159/159/159 128/128/128
f 153/153/153 154/154/154 160/160/160
f 161/161/161 160/160/160 154/154/154
f 122/122/122 162/162/162 126/126/126
f 163/163/163 126/126/126 162/162/162
f 153/153/153 160/160/160 164/164/164
f 153/153/153 164/164/164 141/141/141
f 142/142/142 141/141/141 164/164/164
f 142/142/142 164/164/164 143/143/143
f 151/151/151 143/143/143 164/164/164
f 164/164/164 165/165/165 151/151/151
f 165/165/165 164/164/164 166/166/166
f 151/151/151 167/167/167 150/150/150
f 167/167/167 151/151/151 168/168/168
f 152/152/152 150/150/150 169/169/169
f 170/170/170 131/131/131 136/136/136
f 170/170/170 130/130/130 131/131/131
f 129/129/129 130/130/130 171/171/171
f 129/129/129 171/171/171 127/127/127
f 172/172/172 127/127/127 171/171/171
f 172/172/172 173/173/173 127/127/127
f 121/121/121 127/127/127 173/173/173
f 173/173/173 174/174/174 121/121/121
f 174/174/174 118/118/118 121/121/121
f 177/177/177 176/176/176 175/175/175
f 179/179/179 177/177/177 178/178/178
f 180/180/180 178/178/178 177/177/177
f 181/181/181 178/178/178 180/180/180
f 183/183/183 178/178/178 182/182/182
f 182/182/182 184/184/184 183/183/183
f 185/185/185 64/64/64 28/28/28
f 188/188/188 187/187/187 186/186/186
f 187/187/187 189/189/189 186/186/186
f 188/188/188 190/190/190 187/187/187
f 187/187/187 190/190/190 191/191/191
f 192/192/192 191/191/191 190/190/190
f 192/192/192 193/193/193 191/191/191
f 193/193/193 194/194/194 191/191/191
f 194/194/194 195/195/195 191/191/191
f 195/195/195 196/196/196 191/191/191
f 192/192/192 197/197/197 193/193/193
f 198/198/198 193/193/193 197/197/197
f 198/198/198 197/197/197 199/199/199
f 195/195/195 200/200/200 196/196/196
f 195/195/195 201/201/201 200/200/200
f 202/202/202 200/200/200 201/201/201
f 201/201/201 203/203/203 202/202/202
f 204/204/204 202/202/202 203/203/203
f 205/205/205 196/196/196 200/200/200
f 206/206/206 196/196/196 205/205/205
f 196/196/196 206/206/206 207/207/207
f 203/203/203 208/208/208 204/204/204
f 209/209/209 208/208/208 197/197/197
f 209/209/209 210/210/210 208/208/208
f 210/210/210 211/211/211 199/199/199
f 212/212/212 210/210/210 209/209/209
f 213/213/213 210/210/210 212/212/212
f 214/214/214 210/210/210 213/213/213
f 213/213/213 212/212/212 215/215/215
f 216/216/216 215/215/215 212/212/212
f 215/215/215 216/216/216 217/217/217
f 188/188/188 217/217/217 216/216/216
f 219/219/219 207/207/207 218/218/218
f 218/218/218 207/207/207 220/220/220
f 222/222/222 221/221/221 206/206/206
f 222/222/222 206/206/206 223/223/223
f 224/224/224 223/223/223 206/206/206
f 225/225/225 223/223/223 224/224/224
f 223/223/223 226/226/226 222/222/222
f 222/222/222 226/226/226 207/207/207
f 227/227/227 226/226/226 223/223/223
f 229/229/229 228/228/228 189/189/189
f 228/228/228 230/230/230 189/189/189
f 233/233/233 232/232/232 231/231/231
f 236/236/236 235/235/235 234/234/234
f 237/237/237 235/235/235 199/199/199
f 239/239/239 3/3/3 238/238/238
f 239/239/239 45/45/45 3/3/3
f 5/5/5 3/3/3 45/45/45
f 242/242/242 241/241/241 240/240/240
f 243/243/243 240/240/240 241/241/241
f 243/243/243 241/241/241 244/244/244
f 245/245/245 244/244/244 241/241/241
f 240/240/240 246/246/246 242/242/242
f 247/247/247 242/242/242 246/246/246
f 247/247/247 246/246/246 248/248/248
f 249/249/249 248/248/248 246/246/246
f 240/240/240 243/243/243 250/250/250
f 240/240/240 250/250/250 246/246/246
f 251/251/251 250/250/250 243/243/243
f 249/249/249 246/246/246 252/252/252
f 253/253/253 252/252/252 246/246/246
f 253/253/253 246/246/246 250/250/250
f 251/251/251 243/243/243 254/254/254
f 244/244/244 254/254/254 243/243/243
f 244/244/244 255/255/255 254/254/254
f 244/244/244 256/256/256 255/255/255
f 256/256/256 257/257/257 255/255/255
f 258/258/258 255/255/255 257/257/257
f 258/258/258 257/257/257 259/259/259
f 260/260/260 259/259/259 257/257/257
f 259/259/259 260/260/260 261/261/261
f 262/262/262 261/261/261 260/260/260
f 263/263/263 254/254/254 255/255/255
f 255/255/255 258/258/258 263/263/263
f 261/261/261 264/264/264 259/259/259
f 265/265/265 259/259/259 264/264/264
f 265/265/265 266/266/266 259/259/259
f 258/258/258 259/259/259 266/266/266
f 266/266/266 267/267/267 258/258/258
f 270/270/270 269/269/269 268/268/268
f 271/271/271 268/268/268 269/269/269
f 271/271/271 269/269/269 272/272/272
f 273/273/273 272/272/272 269/269/269
f 270/270/270 268/268/268 274/274/274
f 275/275/275 274/274/274 268/268/268
f 275/275/275 276/276/276 274/274/274
f 277/277/277 274/274/274 276/276/276
f 276/276/276 278/278/278 277/277/277
f 279/279/279 277/277/277 278/278/278
f 279/279/279 278/278/278 280/280/280
f 281/281/281 280/280/280 278/278/278
f 280/280/280 281/281/281 282/282/282
f 283/283/283 282/282/282 281/281/281
f 282/282/282 283/283/283 284/284/284
f 284/284/284 285/285/285 282/282/282
f 286/286/286 282/282/282 285/285/285
f 282/282/282 286/286/286 280/280/280
f 287/287/287 284/284/284 283/283/283
f 277/277/277 279/279/279 288/288/288
f 280/280/280 289/289/289 279/279/279
f 289/289/289 280/280/280 286/286/286
f 289/289/289 290/290/290 279/279/279
f 274/274/274 277/277/277 291/291/291
f 270/270/270 274/274/274 292/292/292
f 292/292/292 293/293/293 270/270/270
f 269/269/269 270/270/270 293/293/293
f 293/293/293 294/294/294 269/269/269
f 292/292/292 274/274/274 295/295/295
f 273/273/273 269/269/269 296/296/296
f 299/299/299 298/298/298 297/297/297
f 300/300/300 297/297/297 298/298/298
f 300/300/300 301/301/301 297/297/297
f 302/302/302 297/297/297 301/301/301
f 300/300/300 303/303/303 301/301/301
f 304/304/304 301/301/301 303/303/303
f 303/303/303 305/305/305 304/304/304
f 303/303/303 300/300/300 306/306/306
f 298/298/298 306/306/306 300/300/300
f 306/306/306 298/298/298 307/307/307
f 308/308/308 307/307/307 298/298/298
f 298/298/298 299/299/299 308/308/308
f 309/309/309 303/303/303 306/306/306
f 304/304/304 310/310/310 301/301/301
f 311/311/311 301/301/301 310/310/310
f 310/310/310 312/312/312 311/311/311
f 310/310/310 313/313/313 312/312/312
f 314/314/314 311/311/311 312/312/312
f 312/312/312 315/315/315 314/314/314
f 315/315/315 312/312/312 316/316/316
f 317/317/317 314/314/314 315/315/315
f 306/306/306 307/307/307 318/318/318
f 310/310/310 304/304/304 319/319/319
f 311/311/311 314/314/314 320/320/320
f 321/321/321 320/320/320 314/314/314
f 321/321/321 314/314/314 322/322/322
f 311/311/311 320/320/320 301/301/301
f 302/302/302 301/301/301 320/320/320
f 324/324/324 323/323/323 314/314/314
f 326/326/326 325/325/325 299/299/299
f 329/329/329 328/328/328 327/327/327
f 330/330/330 327/327/327 328/328/328
f 330/330/330 328/328/328 331/331/331
f 332/332/332 331/331/331 328/328/328
f 327/327/327 333/333/333 329/329/329
f 334/334/334 329/329/329 333/333/333
f 330/330/330 335/335/335 327/327/327
f 336/336/336 327/327/327 335/335/335
f 327/327/327 336/336/336 333/333/333
f 337/337/337 333/333/333 336/336/336
f 335/335/335 330/330/330 338/338/338
f 331/331/331 338/338/338 330/330/330
f 338/338/338 331/331/331 339/339/339
f 340/340/340 339/339/339 331/331/331
f 331/331/331 341/341/341 340/340/340
f 341/341/341 342/342/342 340/340/340
f 343/343/343 340/340/340 342/342/342
f 340/340/340 343/343/343 339/339/339
f 343/343/343 342/342/342 344/344/344
f 345/345/345 344/344/344 342/342/342
f 344/344/344 345/345/345 346/346/346
f 347/347/347 346/346/346 345/345/345
f 346/346/346 348/348/348 344/344/344
f 349/349/349 344/344/344 348/348/348
f 346/346/346 350/350/350 348/348/348
f 346/346/346 351/351/351 350/350/350
f 352/352/352 350/350/350 351/351/351
f 353/353/353 348/348/348 350/350/350
f 349/349/349 354/354/354 344/344/344
f 343/343/343 344/344/344 354/354/354
f 354/354/354 355/355/355 343/343/343
f 358/358/358 357/357/357 356/356/356
f 359/359/359 356/356/356 357/357/357
f 357/357/357 358/358/358 360/360/360
f 361/361/361 360/360/360 358/358/358
f 356/356/356 362/362/362 358/358/358
f 363/363/363 358/358/358 362/362/362
f 358/358/358 363/363/363 361/361/361
f 362/362/362 364/364/364 363/363/363
f 365/365/365 363/363/363 364/364/364
f 364/364/364 366/366/366 365/365/365
f 367/367/367 365/365/365 366/366/366
f 367/367/367 366/366/366 368/368/368
f 369/369/369 368/368/368 366/366/366
f 368/368/368 369/369/369 370/370/370
f 371/371/371 370/370/370 369/369/369
f 370/370/370 371/371/371 372/372/372
f 372/372/372 373/373/373 370/370/370
f 374/374/374 370/370/370 373/373/373
f 370/370/370 374/374/374 368/368/368
f 375/375/375 372/372/372 371/371/371
f 372/372/372 375/375/375 376/376/376
f 372/372/372 376/376/376 373/373/373
f 377/377/377 376/376/376 375/375/375
f 367/367/367 368/368/368 378/378/378
f 379/379/379 373/373/373 376/376/376
f 365/365/365 367/367/367 380/380/380
f 381/381/381 380/380/380 367/367/367
f 382/382/382 368/368/368 374/374/374
f 385/385/385 384/384/384 383/383/383
f 386/386/386 383/383/383 384/384/384
f 383/383/383 386/386/386 387/387/387
f 384/384/384 388/388/388 386/386/386
f 384/384/384 389/389/389 388/388/388
f 384/384/384 385/385/385 389/389/389
f 390/390/390 388/388/388 389/389/389
f 389/389/389 391/391/391 390/390/390
f 389/389/389 392/392/392 391/391/391
f 393/393/393 391/391/391 392/392/392
f 391/391/391 393/393/393 394/394/394
f 395/395/395 394/394/394 393/393/393
f 394/394/394 395/395/395 396/396/396
f 397/397/397 396/396/396 395/395/395
f 398/398/398 390/390/390 391/391/391
f 391/391/391 394/394/394 398/398/398
f 398/398/398 399/399/399 390/390/390
f 399/399/399 398/398/398 400/400/400
f 401/401/401 400/400/400 398/398/398
f 401/401/401 398/398/398 394/394/394
f 402/402/402 390/390/390 399/399/399
f 403/403/403 402/402/402 399/399/399
f 402/402/402 404/404/404 390/390/390
f 405/405/405 404/404/404 402/402/402
f 388/388/388 390/390/390 404/404/404
f 404/404/404 406/406/406 388/388/388
f 407/407/407 406/406/406 404/404/404
f 408/408/408 388/388/388 406/406/406
f 407/407/407 409/409/409 406/406/406
f 406/406/406 409/409/409 408/408/408
f 410/410/410 408/408/408 409/409/409
f 401/401/401 411/411/411 400/400/400
f 412/412/412 399/399/399 400/400/400
f 408/408/408 386/386/386 388/388/388
f 386/386/386 408/408/408 413/413/413
f 413/413/413 414/414/414 386/386/386
f 415/415/415 413/413/413 408/408/408
f 417/417/417 416/416/416 400/400/400
f 417/417/417 400/400/400 418/418/418
f 396/396/396 419/419/419 394/394/394
f 401/401/401 394/394/394 419/419/419
f 363/363/363 365/365/365 420/420/420
f 421/421/421 361/361/361 363/363/363
f 422/422/422 389/389/389 385/385/385
f 425/425/425 424/424/424 423/423/423
f 426/426/426 423/423/423 424/424/424
f 424/424/424 425/425/425 427/427/427
f 428/428/428 427/427/427 425/425/425
f 427/427/427 428/428/428 429/429/429
f 430/430/430 429/429/429 428/428/428
f 426/426/426 431/431/431 423/423/423
f 432/432/432 423/423/423 431/431/431
f 431/431/431 433/433/433 432/432/432
f 434/434/434 432/432/432 433/433/433
f 433/433/433 435/435/435 434/434/434
f 425/425/425 436/436/436 428/428/428
f 437/437/437 428/428/428 436/436/436
f 425/425/425 438/438/438 436/436/436
f 429/429/429 439/439/439 427/427/427
f 440/440/440 427/427/427 439/439/439
f 439/439/439 441/441/441 440/440/440
f 440/440/440 442/442/442 427/427/427
f 440/440/440 443/443/443 442/442/442
f 444/444/444 442/442/442 443/443/443
f 445/445/445 444/444/444 443/443/443
f 443/443/443 440/440/440 446/446/446
f 446/446/446 447/447/447 443/443/443
f 442/442/442 444/444/444 448/448/448
f 449/449/449 448/448/448 444/444/444
f 448/448/448 449/449/449 450/450/450
f 451/451/451 450/450/450 449/449/449
f 450/450/450 451/451/451 452/452/452
f 453/453/453 452/452/452 451/451/451
f 449/449/449 454/454/454 451/451/451
f 449/449/449 444/444/444 455/455/455
f 453/453/453 451/451/451 456/456/456
f 453/453/453 457/457/457 452/452/452
f 458/458/458 457/457/457 453/453/453
f 450/450/450 452/452/452 433/433/433
f 433/433/433 431/431/431 450/450/450
f 435/435/435 433/433/433 452/452/452
f 452/452/452 459/459/459 435/435/435
f 460/460/460 435/435/435 459/459/459
f 462/462/462 461/461/461 435/435/435
f 435/435/435 463/463/463 462/462/462
f 464/464/464 462/462/462 463/463/463
f 466/466/466 452/452/452 465/465/465
f 468/468/468 462/462/462 467/467/467
f 469/469/469 467/467/467 462/462/462
f 468/468/468 470/470/470 462/462/462
f 470/470/470 468/468/468 471/471/471
f 471/471/471 472/472/472 470/470/470
f 473/473/473 470/470/470 472/472/472
f 473/473/473 474/474/474 470/470/470
f 475/475/475 470/470/470 474/474/474
f 473/473/473 472/472/472 476/476/476
f 477/477/477 476/476/476 472/472/472
f 476/476/476 477/477/477 436/436/436
f 478/478/478 436/436/436 477/477/477
f 436/436/436 478/478/478 479/479/479
f 480/480/480 471/471/471 468/468/468
f 468/468/468 481/481/481 480/480/480
f 483/483/483 436/436/436 482/482/482
f 482/482/482 484/484/484 476/476/476
f 485/485/485 476/476/476 484/484/484
f 448/448/448 487/487/487 486/486/486
f 486/486/486 426/426/426 448/448/448
f 424/424/424 427/427/427 442/442/442
f 442/442/442 488/488/488 424/424/424
f 489/489/489 424/424/424 488/488/488
f 434/434/434 462/462/462 470/470/470
f 492/492/492 491/491/491 490/490/490
f 493/493/493 490/490/490 491/491/491
f 493/493/493 491/491/491 494/494/494
f 495/495/495 494/494/494 491/491/491
f 490/490/490 496/496/496 492/492/492
f 497/497/497 492/492/492 496/496/496
f 497/497/497 496/496/496 498/498/498
f 499/499/499 498/498/498 496/496/496
f 493/493/493 500/500/500 490/490/490
f 501/501/501 490/490/490 500/500/500
f 490/490/490 501/501/501 496/496/496
f 502/502/502 496/496/496 501/501/501
f 502/502/502 503/503/503 496/496/496
f 499/499/499 496/496/496 503/503/503
f 500/500/500 493/493/493 504/504/504
f 494/494/494 504/504/504 493/493/493
f 504/504/504 494/494/494 505/505/505
f 506/506/506 505/505/505 494/494/494
f 494/494/494 507/507/507 506/506/506
f 506/506/506 508/508/508 505/505/505
f 508/508/508 506/506/506 509/509/509
f 510/510/510 509/509/509 506/506/506
f 508/508/508 509/509/509 511/511/511
f 512/512/512 511/511/511 509/509/509
f 511/511/511 512/512/512 513/513/513
f 514/514/514 513/513/513 512/512/512
f 513/513/513 515/515/515 511/511/511
f 516/516/516 511/511/511 515/515/515
f 516/516/516 517/517/517 511/511/511
f 508/508/508 511/511/511 517/517/517
f 517/517/517 518/518/518 508/508/508
f 521/521/521 520/520/520 519/519/519
f 522/522/522 519/519/519 520/520/520
f 521/521/521 523/523/523 520/520/520
f 524/524/524 520/520/520 523/523/523
f 520/520/520 525/525/525 522/522/522
f 526/526/526 522/522/522 525/525/525
f 519/519/519 527/527/527 521/521/521
f 528/528/528 521/521/521 527/527/527
f 521/521/521 528/528/528 523/523/523
f 527/527/527 529/529/529 528/528/528
f 530/530/530 528/528/528 529/529/529
f 529/529/529 531/531/531 530/530/530
f 532/532/532 530/530/530 531/531/531
f 532/532/532 531/531/531 533/533/533
f 534/534/534 533/533/533 531/531/531
f 533/533/533 534/534/534 535/535/535
f 536/536/536 535/535/535 534/534/534
f 535/535/535 536/536/536 537/537/537
f 538/538/538 537/537/537 536/536/536
f 530/530/530 532/532/532 539/539/539
f 530/530/530 539/539/539 528/528/528
f 540/540/540 539/539/539 532/532/532
f 541/541/541 532/532/532 533/533/533
f 537/537/537 542/542/542 535/535/535
f 543/543/543 535/535/535 542/542/542
f 535/535/535 543/543/543 533/533/533
f 544/544/544 533/533/533 543/543/543
f 547/547/547 546/546/546 545/545/545
f 548/548/548 545/545/545 546/546/546
f 545/545/545 548/548/548 549/549/549
f 550/550/550 549/549/549 548/548/548
f 550/550/550 551/551/551 549/549/549
f 550/550/550 548/548/548 552/552/552
f 553/553/553 552/552/552 548/548/548
f 554/554/554 550/550/550 552/552/552
f 552/552/552 553/553/553 555/555/555
f 549/549/549 556/556/556 545/545/545
f 557/557/557 556/556/556 549/549/549
f 558/558/558 545/545/545 556/556/556
f 556/556/556 559/559/559 558/558/558
f 560/560/560 559/559/559 556/556/556
f 561/561/561 558/558/558 559/559/559
f 561/561/561 562/562/562 558/558/558
f 563/563/563 558/558/558 562/562/562
f 561/561/561 564/564/564 562/562/562
f 565/565/565 562/562/562 564/564/564
f 564/564/564 561/561/561 566/566/566
f 559/559/559 567/567/567 561/561/561
f 558/558/558 563/563/563 545/545/545
f 547/547/547 545/545/545 563/563/563
f 559/559/559 569/569/569 568/568/568
f 571/571/571 553/553/553 570/570/570
f 572/572/572 570/570/570 553/553/553
f 571/571/571 573/573/573 553/553/553
f 553/553/553 548/548/548 572/572/572
f 546/546/546 572/572/572 548/548/548
f 575/575/575 552/552/552 574/574/574
f 524/524/524 576/576/576 520/520/520
f 525/525/525 520/520/520 576/576/576
f 577/577/577 523/523/523 528/528/528
f 580/580/580 579/579/579 578/578/578
f 581/581/581 578/578/578 579/579/579
f 581/581/581 579/579/579 582/582/582
f 583/583/583 582/582/582 579/579/579
f 578/578/578 584/584/584 580/580/580
f 585/585/585 580/580/580 584/584/584
f 585/585/585 584/584/584 586/586/586
f 587/587/587 586/586/586 584/584/584
f 587/587/587 584/584/584 588/588/588
f 589/589/589 588/588/588 584/584/584
f 578/578/578 581/581/581 590/590/590
f 578/578/578 590/590/590 584/584/584
f 589/589/589 584/584/584 590/590/590
f 591/591/591 590/590/590 581/581/581
f 591/591/591 581/581/581 592/592/592
f 582/582/582 592/592/592 581/581/581
f 592/592/592 582/582/582 593/593/593
f 594/594/594 593/593/593 582/582/582
f 582/582/582 595/595/595 594/594/594
f 595/595/595 596/596/596 594/594/594
f 597/597/597 594/594/594 596/596/596
f 594/594/594 597/597/597 593/593/593
f 597/597/597 596/596/596 598/598/598
f 599/599/599 598/598/598 596/596/596
f 598/598/598 599/599/599 600/600/600
f 601/601/601 600/600/600 599/599/599
f 602/602/602 593/593/593 597/597/597
f 600/600/600 603/603/603 598/598/598
f 604/604/604 598/598/598 603/603/603
f 598/598/598 604/604/604 597/597/597
f 602/602/602 597/597/597 604/604/604
f 607/607/607 606/606/606 605/605/605
f 608/608/608 605/605/605 606/606/606
f 608/608/608 606/606/606 609/609/609
f 610/610/610 609/609/609 606/606/606
f 609/609/609 610/610/610 611/611/611
f 612/612/612 611/611/611 610/610/610
f 610/610/610 613/613/613 612/612/612
f 610/610/610 606/606/606 613/613/613
f 614/614/614 612/612/612 613/613/613
f 605/605/605 615/615/615 607/607/607
f 616/616/616 607/607/607 615/615/615
f 615/615/615 617/617/617 616/616/616
f 618/618/618 616/616/616 617/617/617
f 618/618/618 617/617/617 619/619/619
f 620/620/620 619/619/619 617/617/617
f 620/620/620 621/621/621 619/619/619
f 622/622/622 619/619/619 621/621/621
f 621/621/621 623/623/623 622/622/622
f 624/624/624 622/622/622 623/623/623
f 619/619/619 625/625/625 618/618/618
f 624/624/624 626/626/626 622/622/622
f 616/616/616 618/618/618 627/627/627
f 622/622/622 628/628/628 619/619/619
f 628/628/628 622/622/622 629/629/629
f 630/630/630 619/619/619 628/628/628
f 632/632/632 631/631/631 618/618/618
f 607/607/607 631/631/631 606/606/606
f 616/616/616 631/631/631 607/607/607
f 634/634/634 606/606/606 633/633/633
f 634/634/634 613/613/613 606/606/606
f 637/637/637 636/636/636 635/635/635
f 638/638/638 635/635/635 636/636/636
f 636/636/636 637/637/637 639/639/639
f 640/640/640 639/639/639 637/637/637
f 637/637/637 641/641/641 640/640/640
f 637/637/637 635/635/635 641/641/641
f 642/642/642 640/640/640 641/641/641
f 641/641/641 643/643/643 642/642/642
f 643/643/643 641/641/641 644/644/644
f 643/643/643 644/644/644 645/645/645
f 646/646/646 645/645/645 644/644/644
f 647/647/647 644/644/644 641/641/641
f 647/647/647 641/641/641 635/635/635
f 645/645/645 646/646/646 648/648/648
f 649/649/649 648/648/648 646/646/646
f 649/649/649 650/650/650 648/648/648
f 651/651/651 648/648/648 650/650/650
f 651/651/651 652/652/652 648/648/648
f 653/653/653 648/648/648 652/652/652
f 648/648/648 653/653/653 645/645/645
f 654/654/654 645/645/645 653/653/653
f 655/655/655 642/642/642 643/643/643
f 654/654/654 655/655/655 645/645/645
f 643/643/643 645/645/645 655/655/655
f 655/655/655 654/654/654 656/656/656
f 657/657/657 642/642/642 655/655/655
f 658/658/658 654/654/654 653/653/653
f 658/658/658 653/653/653 652/652/652
f 659/659/659 640/640/640 642/642/642
f 640/640/640 659/659/659 639/639/639
