g center
v 10.5726881 1.76128864E-07 0.000649871829
v 9.38583565 3.41616511 0.064969942
v 9.93507671 3.61607265 0.000649871829
v 9.98819733 1.5949837E-07 0.064969942
v 7.65140295 6.42028999 0.064969942
v 8.0991478 6.79599285 0.000649871829
v 4.99409819 8.650033 0.064969942
v 5.28634262 9.15621662 0.000649871829
v 1.73443174 9.83645439 0.064969942
v 1.83592749 10.4120636 0.000649871829
v -1.73443305 9.83645439 0.064969942
v -1.8359288 10.4120636 0.000649871829
v -4.99409866 8.65003204 0.064969942
v -5.28634405 9.15621567 0.000649871829
v -7.65140295 6.42028999 0.064969942
v -8.0991478 6.79599285 0.000649871829
v -9.38583565 3.41616559 0.064969942
v -9.93507671 3.61607361 0.000649871829
v -9.98819733 1.66767416E-06 0.064969942
v -10.5726881 1.77256027E-06 0.000649871829
v -9.38583565 -3.41616225 0.064969942
v -9.93507767 -3.61606956 0.000649871829
v -7.65140486 -6.42028713 0.064969942
v -8.0991497 -6.79599047 0.000649871829
v -4.99410152 -8.65003014 0.064969942
v -5.28634739 -9.15621376 0.000649871829
v -1.73443615 -9.83645344 0.064969942
v -1.83593178 -10.4120636 0.000649871829
v 1.73442757 -9.83645439 0.064969942
v 1.83592308 -10.4120655 0.000649871829
v 4.99409389 -8.6500349 0.064969942
v 5.28633833 -9.15621853 0.000649871829
v 7.65139866 -6.42029476 0.064969942
v 8.09914303 -6.79599762 0.000649871829
v 9.38583279 -3.41617107 0.064969942
v 9.93507385 -3.61607862 0.000649871829
v 9.38583565 3.41616511 0.064969942
v 4.99409819 8.650033 0.064969942
v 7.65140295 6.42028999 0.064969942
v 9.38583279 -3.41617107 0.064969942
v 4.99409389 -8.6500349 0.064969942
v -7.65140295 6.42028999 0.064969942
v -1.73443305 9.83645439 0.064969942
v 1.73443174 9.83645439 0.064969942
v -4.99409866 8.65003204 0.064969942
v -7.65140486 -6.42028713 0.064969942
v -9.98819733 1.66767416E-06 0.064969942
v -9.38583565 3.41616559 0.064969942
v -9.38583565 -3.41616225 0.064969942
v -1.73443615 -9.83645344 0.064969942
v -4.99410152 -8.65003014 0.064969942
v 1.73442757 -9.83645439 0.064969942
v 7.65139866 -6.42029476 0.064969942
v 9.98819733 1.5949837E-07 0.064969942
vt 0.999500513 0.499999911
vt 0.943428397 0.663884401
vt 0.969376922 0.67347461
vt 0.971886575 0.499999911
vt 0.861486137 0.808002055
vt 0.882639647 0.826025724
vt 0.735943377 0.9149701
vt 0.749750316 0.93925333
vt 0.58194232 0.971886575
vt 0.586737454 0.999500513
vt 0.418057799 0.971886635
vt 0.413262725 0.999500513
vt 0.264056802 0.91497016
vt 0.250249863 0.939253449
vt 0.138513982 0.808002234
vt 0.117360562 0.826025903
vt 0.0565716922 0.66388464
vt 0.0306231081 0.673474908
vt 0.0281134248 0.500000179
vt 0.000499516726 0.500000238
vt 0.0565716028 0.336115718
vt 0.0306229889 0.326525539
vt 0.138513774 0.191998124
vt 0.117360294 0.173974425
vt 0.264056444 0.0850300789
vt 0.250249505 0.0607468486
vt 0.418057442 0.0281135142
vt 0.413262337 0.000499635935
vt 0.581941903 0.0281133652
vt 0.586736977 0.000499486923
vt 0.73594296 0.0850297511
vt 0.749749899 0.060746491
vt 0.861485839 0.191997588
vt 0.882639229 0.173973888
vt 0.943428159 0.336115092
vt 0.969376802 0.326524854
vt 0.943428397 0.663884401
vt 0.735943377 0.9149701
vt 0.861486137 0.808002055
vt 0.943428159 0.336115092
vt 0.73594296 0.0850297511
vt 0.138513982 0.808002234
vt 0.418057799 0.971886635
vt 0.58194232 0.971886575
vt 0.264056802 0.91497016
vt 0.138513774 0.191998124
vt 0.0281134248 0.500000179
vt 0.0565716922 0.66388464
vt 0.0565716028 0.336115718
vt 0.418057442 0.0281135142
vt 0.264056444 0.0850300789
vt 0.581941903 0.0281133652
vt 0.861485839 0.191997588
vt 0.971886575 0.499999911
vn 0.109384365 0 0.993999481
vn 0.102787681 0.0374116562 0.993999481
vn 0.102787681 0.03741166 0.993999481
vn 0.109384388 0 0.993999481
vn 0.0837933794 0.0703109875 0.993999481
vn 0.0837933719 0.0703110099 0.993999481
vn 0.0546922758 0.094729811 0.993999481
vn 0.0546922646 0.094729811 0.993999481
vn 0.0189944096 0.107722737 0.993999481
vn 0.0189944226 0.107722744 0.993999481
vn -0.0189944375 0.107722752 0.993999481
vn -0.0189944357 0.107722729 0.993999481
vn -0.0546921939 0.0947296619 0.993999481
vn -0.0546921901 0.0947296545 0.993999481
vn -0.0837933943 0.070310995 0.993999481
vn -0.0837933645 0.0703110024 0.993999481
vn -0.102787681 0.0374116637 0.993999481
vn -0.102787644 0.0374116711 0.993999481
vn -0.10938438 0 0.993999481
vn -0.10938438 0 0.993999481
vn -0.102787696 -0.0374116451 0.993999481
vn -0.102787711 -0.0374116376 0.993999481
vn -0.0837934017 -0.0703109801 0.993999481
vn -0.0837933794 -0.0703109875 0.993999481
vn -0.0546921901 -0.09472958 0.993999481
vn -0.0546921976 -0.0947295502 0.993999481
vn -0.0189944487 -0.107722521 0.993999481
vn -0.0189944301 -0.107722521 0.993999481
vn 0.0189943612 -0.107722647 0.993999481
vn 0.0189943686 -0.107722633 0.993999481
vn 0.0546922237 -0.0947298184 0.993999481
vn 0.0546922274 -0.0947298259 0.993999481
vn 0.0837934166 -0.0703110918 0.993999481
vn 0.0837933794 -0.0703110993 0.993999481
vn 0.102787666 -0.0374117382 0.993999481
vn 0.102787651 -0.0374117233 0.993999481
vn -0 0 1
vn -0 0 1
vn -0 0 1
vn -0 0 1
vn -0 0 1
vn -0 0 1
vn -0 0 1
vn -0 0 1
vn -0 0 1
vn -0 0 1
vn -0 0 1
vn -0 0 1
vn -0 0 1
vn -0 0 1
vn -0 0 1
vn -0 0 1
vn -0 0 1
vn -0 0 1
g center_0
f 3/3/3 2/2/2 1/1/1
f 4/4/4 1/1/1 2/2/2
f 2/2/2 3/3/3 5/5/5
f 6/6/6 5/5/5 3/3/3
f 5/5/5 6/6/6 7/7/7
f 8/8/8 7/7/7 6/6/6
f 7/7/7 8/8/8 9/9/9
f 10/10/10 9/9/9 8/8/8
f 9/9/9 10/10/10 11/11/11
f 12/12/12 11/11/11 10/10/10
f 11/11/11 12/12/12 13/13/13
f 14/14/14 13/13/13 12/12/12
f 13/13/13 14/14/14 15/15/15
f 16/16/16 15/15/15 14/14/14
f 15/15/15 16/16/16 17/17/17
f 18/18/18 17/17/17 16/16/16
f 17/17/17 18/18/18 19/19/19
f 20/20/20 19/19/19 18/18/18
f 19/19/19 20/20/20 21/21/21
f 22/22/22 21/21/21 20/20/20
f 21/21/21 22/22/22 23/23/23
f 24/24/24 23/23/23 22/22/22
f 23/23/23 24/24/24 25/25/25
f 26/26/26 25/25/25 24/24/24
f 25/25/25 26/26/26 27/27/27
f 28/28/28 27/27/27 26/26/26
f 27/27/27 28/28/28 29/29/29
f 30/30/30 29/29/29 28/28/28
f 29/29/29 30/30/30 31/31/31
f 32/32/32 31/31/31 30/30/30
f 31/31/31 32/32/32 33/33/33
f 34/34/34 33/33/33 32/32/32
f 33/33/33 34/34/34 35/35/35
f 36/36/36 35/35/35 34/34/34
f 35/35/35 36/36/36 4/4/4
f 1/1/1 4/4/4 36/36/36
f 39/39/39 38/38/38 37/37/37
f 38/38/38 40/40/40 37/37/37
f 41/41/41 40/40/40 38/38/38
f 42/42/42 41/41/41 38/38/38
f 43/43/43 42/42/42 38/38/38
f 44/44/44 43/43/43 38/38/38
f 45/45/45 42/42/42 43/43/43
f 46/46/46 41/41/41 42/42/42
f 47/47/47 46/46/46 42/42/42
f 48/48/48 47/47/47 42/42/42
f 49/49/49 46/46/46 47/47/47
f 50/50/50 41/41/41 46/46/46
f 51/51/51 50/50/50 46/46/46
f 52/52/52 41/41/41 50/50/50
f 53/53/53 40/40/40 41/41/41
f 37/37/37 40/40/40 54/54/54
