g CTRL_LegLB
v 0.0960316435 0 0
v 0.0799434036 0.0188242402 0.00798165984
v 0.093494907 0.0219864026 -9.47491655E-19
v 0.0821152851 -3.48889417E-10 0.00798165984
v 0.073763676 0.0360951871 0.00798165984
v 0.0862588361 0.0422096141 -5.09875288E-18
v 0.0640650988 0.0513415523 0.00798165984
v 0.0749144778 0.0600431822 1.67582937E-17
v 0.0513416044 0.0640650541 0.00798165984
v 0.0600430556 0.0749145672 2.31148111E-17
v 0.0360951833 0.0737636611 0.00798165984
v 0.0422096066 0.0862588361 6.59843505E-18
v 0.0188242309 0.0799434036 0.00798165984
v 0.0219863858 0.093494907 2.21082134E-18
v -5.59322755E-10 0.0821152851 0.00798165984
v -7.57684582E-09 0.0960316435 9.55792929E-19
v -0.0188242458 0.0799433962 0.00798165984
v -0.0219864007 0.093494907 -2.52665958E-18
v -0.0360951871 0.073763676 0.00798165984
v -0.0422096178 0.0862588361 5.99856698E-19
v -0.0513415523 0.0640650988 0.00798165984
v -0.0600431859 0.0749144703 1.76251989E-17
v -0.0640650466 0.0513416082 0.00798165984
v -0.0749145746 0.0600430556 2.39817179E-17
v -0.0737636611 0.0360951833 0.00798165984
v -0.0862588361 0.0422095992 7.49822599E-18
v -0.0799433962 0.018824229 0.00798165984
v -0.093494907 0.0219863839 2.84249802E-18
v -0.0821152851 -4.30670388E-09 0.00798165984
v -0.0960316435 -1.34416602E-08 2.23019474E-18
v -0.0799433962 -0.0188242495 0.00798165984
v -0.093494907 -0.0219864082 -2.21082134E-18
v -0.073763676 -0.0360951908 0.00798165984
v -0.0862588361 -0.0422096252 1.49963595E-18
v -0.0640650988 -0.0513415486 0.00798165984
v -0.0749144703 -0.0600431859 1.82030143E-17
v -0.0513416007 -0.0640650466 0.00798165984
v -0.0600430481 -0.0749145746 2.45595317E-17
v -0.0360951759 -0.0737636611 0.00798165984
v -0.042209588 -0.0862588361 8.09802458E-18
v -0.0188242253 -0.0799433962 0.00798165984
v -0.0219863746 -0.093494907 3.78996662E-18
v 7.51567786E-09 -0.0821152851 0.00798165984
v 2.03832879E-08 -0.0960316435 2.23019474E-18
v 0.0188242458 -0.0799434036 0.00798165984
v 0.0219864212 -0.093494907 1.26332979E-18
v 0.0360951945 -0.073763676 0.00798165984
v 0.0422096401 -0.0862588286 -1.79960421E-18
v 0.0513415486 -0.0640650913 0.00798165984
v 0.0600431897 -0.0749144554 1.30019442E-17
v 0.0640650615 -0.0513416007 0.00798165984
v 0.0749145895 -0.0600430369 3.43834926E-17
v 0.0737636611 -0.0360951908 0.00798165984
v 0.0862588361 -0.0422095954 9.59770716E-18
v 0.0799433962 -0.0188242421 0.00798165984
v 0.0934949219 -0.0219863653 1.13699921E-17
v 0.0821152851 -3.48889417E-10 0.00798165984
v 0.0799434036 0.0188242402 -0.00798165984
v 0.0799434036 0.0188242402 0.00798165984
v 0.0821152851 3.48889445E-10 -0.00798165984
v 0.073763676 0.0360951908 -0.00798165984
v 0.073763676 0.0360951871 0.00798165984
v 0.0640650988 0.0513415523 -0.00798165984
v 0.0640650988 0.0513415523 0.00798165984
v 0.0513416044 0.0640650541 -0.00798165984
v 0.0513416044 0.0640650541 0.00798165984
v 0.0360951833 0.0737636685 -0.00798165984
v 0.0360951833 0.0737636611 0.00798165984
v 0.018824229 0.0799434036 -0.00798165984
v 0.0188242309 0.0799434036 0.00798165984
v -1.25710231E-09 0.0821152851 -0.00798165984
v -5.59322755E-10 0.0821152851 0.00798165984
v -0.0188242458 0.0799434036 -0.00798165984
v -0.0188242458 0.0799433962 0.00798165984
v -0.0360951908 0.073763676 -0.00798165984
v -0.0360951871 0.073763676 0.00798165984
v -0.0513415523 0.0640650988 -0.00798165984
v -0.0513415523 0.0640650988 0.00798165984
v -0.0640650541 0.0513416082 -0.00798165984
v -0.0640650466 0.0513416082 0.00798165984
v -0.0737636611 0.0360951833 -0.00798165984
v -0.0737636611 0.0360951833 0.00798165984
v -0.0799434036 0.0188242272 -0.00798165984
v -0.0799433962 0.018824229 0.00798165984
v -0.0821152851 -5.00448349E-09 -0.00798165984
v -0.0821152851 -4.30670388E-09 0.00798165984
v -0.0799434036 -0.0188242495 -0.00798165984
v -0.0799433962 -0.0188242495 0.00798165984
v -0.073763676 -0.0360951908 -0.00798165984
v -0.073763676 -0.0360951908 0.00798165984
v -0.0640650988 -0.0513415523 -0.00798165984
v -0.0640650988 -0.0513415486 0.00798165984
v -0.0513416007 -0.0640650541 -0.00798165984
v -0.0513416007 -0.0640650466 0.00798165984
v -0.0360951759 -0.0737636611 -0.00798165984
v -0.0360951759 -0.0737636611 0.00798165984
v -0.0188242253 -0.0799434036 -0.00798165984
v -0.0188242253 -0.0799433962 0.00798165984
v 8.21345747E-09 -0.0821152851 -0.00798165984
v 7.51567786E-09 -0.0821152851 0.00798165984
v 0.0188242476 -0.0799434036 -0.00798165984
v 0.0188242458 -0.0799434036 0.00798165984
v 0.0360951945 -0.073763676 -0.00798165984
v 0.0360951945 -0.073763676 0.00798165984
v 0.0513415486 -0.0640650913 -0.00798165984
v 0.0513415486 -0.0640650913 0.00798165984
v 0.0640650615 -0.0513416007 -0.00798165984
v 0.0640650615 -0.0513416007 0.00798165984
v 0.0737636611 -0.0360951908 -0.00798165984
v 0.0737636611 -0.0360951908 0.00798165984
v 0.0799433962 -0.0188242421 -0.00798165984
v 0.0799433962 -0.0188242421 0.00798165984
v 0.0821152851 3.48889445E-10 -0.00798165984
v 0.093494907 0.0219864026 -9.47491655E-19
v 0.0799434036 0.0188242402 -0.00798165984
v 0.0960316435 0 0
v 0.0862588361 0.0422096141 -5.09875288E-18
v 0.073763676 0.0360951908 -0.00798165984
v 0.0749144778 0.0600431822 1.67582937E-17
v 0.0640650988 0.0513415523 -0.00798165984
v 0.0600430556 0.0749145672 2.31148111E-17
v 0.0513416044 0.0640650541 -0.00798165984
v 0.0422096066 0.0862588361 6.59843505E-18
v 0.0360951833 0.0737636685 -0.00798165984
v 0.0219863858 0.093494907 2.21082134E-18
v 0.018824229 0.0799434036 -0.00798165984
v -7.57684582E-09 0.0960316435 9.55792929E-19
v -1.25710231E-09 0.0821152851 -0.00798165984
v -0.0219864007 0.093494907 -2.52665958E-18
v -0.0188242458 0.0799434036 -0.00798165984
v -0.0422096178 0.0862588361 5.99856698E-19
v -0.0360951908 0.073763676 -0.00798165984
v -0.0600431859 0.0749144703 1.76251989E-17
v -0.0513415523 0.0640650988 -0.00798165984
v -0.0749145746 0.0600430556 2.39817179E-17
v -0.0640650541 0.0513416082 -0.00798165984
v -0.0862588361 0.0422095992 7.49822599E-18
v -0.0737636611 0.0360951833 -0.00798165984
v -0.093494907 0.0219863839 2.84249802E-18
v -0.0799434036 0.0188242272 -0.00798165984
v -0.0960316435 -1.34416602E-08 2.23019474E-18
v -0.0821152851 -5.00448349E-09 -0.00798165984
v -0.093494907 -0.0219864082 -2.21082134E-18
v -0.0799434036 -0.0188242495 -0.00798165984
v -0.0862588361 -0.0422096252 1.49963595E-18
v -0.073763676 -0.0360951908 -0.00798165984
v -0.0749144703 -0.0600431859 1.82030143E-17
v -0.0640650988 -0.0513415523 -0.00798165984
v -0.0600430481 -0.0749145746 2.45595317E-17
v -0.0513416007 -0.0640650541 -0.00798165984
v -0.042209588 -0.0862588361 8.09802458E-18
v -0.0360951759 -0.0737636611 -0.00798165984
v -0.0219863746 -0.093494907 3.78996662E-18
v -0.0188242253 -0.0799434036 -0.00798165984
v 2.03832879E-08 -0.0960316435 2.23019474E-18
v 8.21345747E-09 -0.0821152851 -0.00798165984
v 0.0219864212 -0.093494907 1.26332979E-18
v 0.0188242476 -0.0799434036 -0.00798165984
v 0.0422096401 -0.0862588286 -1.79960421E-18
v 0.0360951945 -0.073763676 -0.00798165984
v 0.0600431897 -0.0749144554 1.30019442E-17
v 0.0513415486 -0.0640650913 -0.00798165984
v 0.0749145895 -0.0600430369 3.43834926E-17
v 0.0640650615 -0.0513416007 -0.00798165984
v 0.0862588361 -0.0422095954 9.59770716E-18
v 0.0737636611 -0.0360951908 -0.00798165984
v 0.0934949219 -0.0219863653 1.13699921E-17
v 0.0799433962 -0.0188242421 -0.00798165984
vt 0 0
vt 0 0
vt 0 0
vt 0 0
vt 0 0
vt 0 0
vt 0 0
vt 0 0
vt 0 0
vt 0 0
vt 0 0
vt 0 0
vt 0 0
vt 0 0
vt 0 0
vt 0 0
vt 0 0
vt 0 0
vt 0 0
vt 0 0
vt 0 0
vt 0 0
vt 0 0
vt 0 0
vt 0 0
vt 0 0
vt 0 0
vt 0 0
vt 0 0
vt 0 0
vt 0 0
vt 0 0
vt 0 0
vt 0 0
vt 0 0
vt 0 0
vt 0 0
vt 0 0
vt 0 0
vt 0 0
vt 0 0
vt 0 0
vt 0 0
vt 0 0
vt 0 0
vt 0 0
vt 0 0
vt 0 0
vt 0 0
vt 0 0
vt 0 0
vt 0 0
vt 0 0
vt 0 0
vt 0 0
vt 0 0
vt 0 0
vt 0 0
vt 0 0
vt 0 0
vt 0 0
vt 0 0
vt 0 0
vt 0 0
vt 0 0
vt 0 0
vt 0 0
vt 0 0
vt 0 0
vt 0 0
vt 0 0
vt 0 0
vt 0 0
vt 0 0
vt 0 0
vt 0 0
vt 0 0
vt 0 0
vt 0 0
vt 0 0
vt 0 0
vt 0 0
vt 0 0
vt 0 0
vt 0 0
vt 0 0
vt 0 0
vt 0 0
vt 0 0
vt 0 0
vt 0 0
vt 0 0
vt 0 0
vt 0 0
vt 0 0
vt 0 0
vt 0 0
vt 0 0
vt 0 0
vt 0 0
vt 0 0
vt 0 0
vt 0 0
vt 0 0
vt 0 0
vt 0 0
vt 0 0
vt 0 0
vt 0 0
vt 0 0
vt 0 0
vt 0 0
vt 0 0
vt 0 0
vt 0 0
vt 0 0
vt 0 0
vt 0 0
vt 0 0
vt 0 0
vt 0 0
vt 0 0
vt 0 0
vt 0 0
vt 0 0
vt 0 0
vt 0 0
vt 0 0
vt 0 0
vt 0 0
vt 0 0
vt 0 0
vt 0 0
vt 0 0
vt 0 0
vt 0 0
vt 0 0
vt 0 0
vt 0 0
vt 0 0
vt 0 0
vt 0 0
vt 0 0
vt 0 0
vt 0 0
vt 0 0
vt 0 0
vt 0 0
vt 0 0
vt 0 0
vt 0 0
vt 0 0
vt 0 0
vt 0 0
vt 0 0
vt 0 0
vt 0 0
vt 0 0
vt 0 0
vt 0 0
vt 0 0
vt 0 0
vt 0 0
vt 0 0
vt 0 0
vt 0 0
vt 0 0
vt 0 0
vn 0.497522444 0 0.867451012
vn 0.484527647 0.113061897 0.867438734
vn 0.484527647 0.113061905 0.867438734
vn 0.497522384 0 0.867451131
vn 0.44701606 0.218744949 0.867368042
vn 0.44701606 0.218744934 0.867368042
vn 0.38829425 0.311423957 0.867319286
vn 0.388294101 0.311424404 0.867319107
vn 0.311424226 0.388294041 0.867319286
vn 0.311423689 0.388294637 0.867319107
vn 0.218744889 0.447015613 0.867368221
vn 0.218744725 0.447015941 0.867368162
vn 0.113061868 0.484527618 0.867438734
vn 0.113061808 0.484527707 0.867438734
vn -0 0.497522444 0.867451131
vn -0 0.497522444 0.867451131
vn -0.113061905 0.484527558 0.867438734
vn -0.11306186 0.484527618 0.867438734
vn -0.218744874 0.447016001 0.867368042
vn -0.218744934 0.447015941 0.867368042
vn -0.311423957 0.388294309 0.867319286
vn -0.311424464 0.388294041 0.867319107
vn -0.388293862 0.311424196 0.867319345
vn -0.388294607 0.3114236 0.867319167
vn -0.447015673 0.218744814 0.867368221
vn -0.447015941 0.21874465 0.867368162
vn -0.484527558 0.113061897 0.867438853
vn -0.484527647 0.113061808 0.867438734
vn -0.497522444 0 0.867451131
vn -0.497522384 0 0.867451131
vn -0.484527528 -0.113061897 0.867438853
vn -0.484527618 -0.11306186 0.867438734
vn -0.447016001 -0.218744978 0.867368042
vn -0.447015941 -0.218744934 0.867368042
vn -0.38829416 -0.311423987 0.867319286
vn -0.388294041 -0.311424464 0.867319167
vn -0.311424106 -0.388293862 0.867319345
vn -0.31142354 -0.388294637 0.867319167
vn -0.218744859 -0.447015733 0.867368162
vn -0.218744621 -0.44701606 0.867368042
vn -0.113061935 -0.484527558 0.867438734
vn -0.113061816 -0.484527647 0.867438734
vn -1.49669248E-07 -0.497522444 0.867451131
vn -0 -0.497522444 0.867451131
vn 0.11306192 -0.484527618 0.867438734
vn 0.113061987 -0.484527647 0.867438734
vn 0.218745083 -0.447015852 0.867368042
vn 0.218745127 -0.447015852 0.867368042
vn 0.311423957 -0.38829425 0.867319167
vn 0.311424613 -0.388294131 0.867319107
vn 0.388293862 -0.311424345 0.867319286
vn 0.388294637 -0.311423719 0.867319107
vn 0.447015733 -0.218744874 0.867368162
vn 0.44701609 -0.218744695 0.867368042
vn 0.484527528 -0.113062002 0.867438853
vn 0.484527618 -0.113061756 0.867438734
vn -1 1.14591657E-07 0
vn -0.973838866 -0.227239802 0
vn -0.973838866 -0.227239802 0
vn -1 1.1220434E-07 0
vn -0.898222744 -0.439540714 0
vn -0.898222744 -0.439540714 0
vn -0.780095279 -0.625660777 0
vn -0.780095279 -0.625660777 0
vn -0.625660896 -0.780095041 0
vn -0.625660896 -0.780095041 0
vn -0.439540774 -0.898222625 -2.0989394E-07
vn -0.439540803 -0.898222625 -1.98024154E-07
vn -0.227240115 -0.973838747 0
vn -0.22724019 -0.973838747 0
vn -0 -1 0
vn -0 -1 0
vn 0.227239937 -0.973838747 -2.40505614E-07
vn 0.227239907 -0.973838747 -2.49102897E-07
vn 0.439540714 -0.898222744 -1.2438791E-07
vn 0.439540595 -0.898222744 0
vn 0.625660658 -0.780095279 0
vn 0.625660658 -0.780095279 0
vn 0.78009522 -0.625660837 -1.839379E-07
vn 0.78009522 -0.625660896 -1.74621633E-07
vn 0.898222625 -0.439540774 0
vn 0.898222625 -0.439540774 0
vn 0.973838747 -0.227240056 -2.15163794E-07
vn 0.973838747 -0.227240115 -2.08158625E-07
vn 1 0 0
vn 1 -1.05042361E-07 0
vn 0.973838747 0.227239937 -2.40505642E-07
vn 0.973838747 0.227239937 -2.375577E-07
vn 0.898222744 0.439540714 0
vn 0.898222744 0.439540714 0
vn 0.780095041 0.625660896 -1.49740757E-07
vn 0.780095041 0.625660896 -1.8688992E-07
vn 0.625660658 0.780095279 -2.33020685E-07
vn 0.625660777 0.78009522 -1.74621633E-07
vn 0.439540803 0.898222625 0
vn 0.439540893 0.898222625 0
vn 0.227240115 0.973838747 -2.26360783E-07
vn 0.227240145 0.973838747 -2.23208303E-07
vn -0 1 0
vn 1.43239575E-07 1 0
vn -0.227239937 0.973838747 0
vn -0.227239951 0.973838747 0
vn -0.439540952 0.898222506 0
vn -0.439540982 0.898222506 0
vn -0.625660837 0.78009522 0
vn -0.625660777 0.780095279 0
vn -0.780094981 0.625661075 0
vn -0.780094981 0.625661075 0
vn -0.898222625 0.439540774 0
vn -0.898222625 0.439540803 0
vn -0.973838747 0.22724019 0
vn -0.973838747 0.227240205 0
vn 0.497522444 0 -0.867451012
vn 0.484527767 0.11306183 -0.867438734
vn 0.484527767 0.11306183 -0.867438734
vn 0.497522444 0 -0.867451131
vn 0.44701609 0.218744978 -0.867368042
vn 0.44701606 0.218745038 -0.867367983
vn 0.388293892 0.311424464 -0.867319167
vn 0.388294339 0.311424255 -0.867319107
vn 0.311423689 0.388294548 -0.867319286
vn 0.311424434 0.388294101 -0.867319107
vn 0.218744725 0.447015852 -0.867368162
vn 0.218745008 0.447015882 -0.867368042
vn 0.113061935 0.484527647 -0.867438734
vn 0.113062024 0.484527707 -0.867438734
vn -0 0.497522473 -0.867451012
vn -0 0.497522473 -0.867451012
vn -0.113061801 0.484527767 -0.867438674
vn -0.113061838 0.484527767 -0.867438674
vn -0.218744978 0.447016001 -0.867368042
vn -0.218745053 0.447016001 -0.867368042
vn -0.311424404 0.388293952 -0.867319167
vn -0.311424226 0.388294429 -0.867319107
vn -0.388294548 0.31142363 -0.867319286
vn -0.388294101 0.311424434 -0.867319107
vn -0.447015882 0.218744636 -0.867368221
vn -0.447015941 0.218744934 -0.867368042
vn -0.484527647 0.11306195 -0.867438734
vn -0.484527707 0.113062091 -0.867438734
vn -0.497522473 0 -0.867451012
vn -0.497522473 0 -0.867451012
vn -0.484527767 -0.113061808 -0.867438734
vn -0.484527767 -0.113061838 -0.867438674
vn -0.447016001 -0.218745053 -0.867368042
vn -0.447016001 -0.218745112 -0.867368042
vn -0.388293862 -0.311424494 -0.867319167
vn -0.388294309 -0.311424226 -0.867319107
vn -0.311423451 -0.388294518 -0.867319345
vn -0.311424285 -0.388294101 -0.867319167
vn -0.21874465 -0.447015911 -0.867368162
vn -0.218745053 -0.447016001 -0.867368042
vn -0.113062002 -0.484527707 -0.867438734
vn -0.113062166 -0.484527707 -0.867438734
vn -0 -0.497522473 -0.867451012
vn -0 -0.497522444 -0.867451012
vn 0.113061897 -0.484527558 -0.867438734
vn 0.11306186 -0.484527618 -0.867438734
vn 0.218745217 -0.447015852 -0.867368042
vn 0.218745217 -0.447015882 -0.867368042
vn 0.311424524 -0.388293833 -0.867319167
vn 0.311424285 -0.388294429 -0.867319107
vn 0.388294429 -0.3114236 -0.867319286
vn 0.388294041 -0.311424553 -0.867319107
vn 0.447015911 -0.218744695 -0.867368162
vn 0.447016001 -0.218745053 -0.867368042
vn 0.484527558 -0.113061823 -0.867438853
vn 0.484527528 -0.113062106 -0.867438853
g CTRL_LegLB_0
f 3/3/3 2/2/2 1/1/1
f 4/4/4 1/1/1 2/2/2
f 2/2/2 3/3/3 5/5/5
f 6/6/6 5/5/5 3/3/3
f 5/5/5 6/6/6 7/7/7
f 8/8/8 7/7/7 6/6/6
f 7/7/7 8/8/8 9/9/9
f 10/10/10 9/9/9 8/8/8
f 9/9/9 10/10/10 11/11/11
f 12/12/12 11/11/11 10/10/10
f 11/11/11 12/12/12 13/13/13
f 14/14/14 13/13/13 12/12/12
f 13/13/13 14/14/14 15/15/15
f 16/16/16 15/15/15 14/14/14
f 15/15/15 16/16/16 17/17/17
f 18/18/18 17/17/17 16/16/16
f 17/17/17 18/18/18 19/19/19
f 20/20/20 19/19/19 18/18/18
f 19/19/19 20/20/20 21/21/21
f 22/22/22 21/21/21 20/20/20
f 21/21/21 22/22/22 23/23/23
f 24/24/24 23/23/23 22/22/22
f 23/23/23 24/24/24 25/25/25
f 26/26/26 25/25/25 24/24/24
f 25/25/25 26/26/26 27/27/27
f 28/28/28 27/27/27 26/26/26
f 27/27/27 28/28/28 29/29/29
f 30/30/30 29/29/29 28/28/28
f 29/29/29 30/30/30 31/31/31
f 32/32/32 31/31/31 30/30/30
f 31/31/31 32/32/32 33/33/33
f 34/34/34 33/33/33 32/32/32
f 33/33/33 34/34/34 35/35/35
f 36/36/36 35/35/35 34/34/34
f 35/35/35 36/36/36 37/37/37
f 38/38/38 37/37/37 36/36/36
f 37/37/37 38/38/38 39/39/39
f 40/40/40 39/39/39 38/38/38
f 39/39/39 40/40/40 41/41/41
f 42/42/42 41/41/41 40/40/40
f 41/41/41 42/42/42 43/43/43
f 44/44/44 43/43/43 42/42/42
f 43/43/43 44/44/44 45/45/45
f 46/46/46 45/45/45 44/44/44
f 45/45/45 46/46/46 47/47/47
f 48/48/48 47/47/47 46/46/46
f 47/47/47 48/48/48 49/49/49
f 50/50/50 49/49/49 48/48/48
f 49/49/49 50/50/50 51/51/51
f 52/52/52 51/51/51 50/50/50
f 51/51/51 52/52/52 53/53/53
f 54/54/54 53/53/53 52/52/52
f 53/53/53 54/54/54 55/55/55
f 56/56/56 55/55/55 54/54/54
f 55/55/55 56/56/56 4/4/4
f 1/1/1 4/4/4 56/56/56
f 59/59/59 58/58/58 57/57/57
f 60/60/60 57/57/57 58/58/58
f 58/58/58 59/59/59 61/61/61
f 62/62/62 61/61/61 59/59/59
f 61/61/61 62/62/62 63/63/63
f 64/64/64 63/63/63 62/62/62
f 63/63/63 64/64/64 65/65/65
f 66/66/66 65/65/65 64/64/64
f 65/65/65 66/66/66 67/67/67
f 68/68/68 67/67/67 66/66/66
f 67/67/67 68/68/68 69/69/69
f 70/70/70 69/69/69 68/68/68
f 69/69/69 70/70/70 71/71/71
f 72/72/72 71/71/71 70/70/70
f 71/71/71 72/72/72 73/73/73
f 74/74/74 73/73/73 72/72/72
f 73/73/73 74/74/74 75/75/75
f 76/76/76 75/75/75 74/74/74
f 75/75/75 76/76/76 77/77/77
f 78/78/78 77/77/77 76/76/76
f 77/77/77 78/78/78 79/79/79
f 80/80/80 79/79/79 78/78/78
f 79/79/79 80/80/80 81/81/81
f 82/82/82 81/81/81 80/80/80
f 81/81/81 82/82/82 83/83/83
f 84/84/84 83/83/83 82/82/82
f 83/83/83 84/84/84 85/85/85
f 86/86/86 85/85/85 84/84/84
f 85/85/85 86/86/86 87/87/87
f 88/88/88 87/87/87 86/86/86
f 87/87/87 88/88/88 89/89/89
f 90/90/90 89/89/89 88/88/88
f 89/89/89 90/90/90 91/91/91
f 92/92/92 91/91/91 90/90/90
f 91/91/91 92/92/92 93/93/93
f 94/94/94 93/93/93 92/92/92
f 93/93/93 94/94/94 95/95/95
f 96/96/96 95/95/95 94/94/94
f 95/95/95 96/96/96 97/97/97
f 98/98/98 97/97/97 96/96/96
f 97/97/97 98/98/98 99/99/99
f 100/100/100 99/99/99 98/98/98
f 99/99/99 100/100/100 101/101/101
f 102/102/102 101/101/101 100/100/100
f 101/101/101 102/102/102 103/103/103
f 104/104/104 103/103/103 102/102/102
f 103/103/103 104/104/104 105/105/105
f 106/106/106 105/105/105 104/104/104
f 105/105/105 106/106/106 107/107/107
f 108/108/108 107/107/107 106/106/106
f 107/107/107 108/108/108 109/109/109
f 110/110/110 109/109/109 108/108/108
f 109/109/109 110/110/110 111/111/111
f 112/112/112 111/111/111 110/110/110
f 111/111/111 112/112/112 60/60/60
f 57/57/57 60/60/60 112/112/112
f 115/115/115 114/114/114 113/113/113
f 116/116/116 113/113/113 114/114/114
f 114/114/114 115/115/115 117/117/117
f 118/118/118 117/117/117 115/115/115
f 117/117/117 118/118/118 119/119/119
f 120/120/120 119/119/119 118/118/118
f 119/119/119 120/120/120 121/121/121
f 122/122/122 121/121/121 120/120/120
f 121/121/121 122/122/122 123/123/123
f 124/124/124 123/123/123 122/122/122
f 123/123/123 124/124/124 125/125/125
f 126/126/126 125/125/125 124/124/124
f 125/125/125 126/126/126 127/127/127
f 128/128/128 127/127/127 126/126/126
f 127/127/127 128/128/128 129/129/129
f 130/130/130 129/129/129 128/128/128
f 129/129/129 130/130/130 131/131/131
f 132/132/132 131/131/131 130/130/130
f 131/131/131 132/132/132 133/133/133
f 134/134/134 133/133/133 132/132/132
f 133/133/133 134/134/134 135/135/135
f 136/136/136 135/135/135 134/134/134
f 135/135/135 136/136/136 137/137/137
f 138/138/138 137/137/137 136/136/136
f 137/137/137 138/138/138 139/139/139
f 140/140/140 139/139/139 138/138/138
f 139/139/139 140/140/140 141/141/141
f 142/142/142 141/141/141 140/140/140
f 141/141/141 142/142/142 143/143/143
f 144/144/144 143/143/143 142/142/142
f 143/143/143 144/144/144 145/145/145
f 146/146/146 145/145/145 144/144/144
f 145/145/145 146/146/146 147/147/147
f 148/148/148 147/147/147 146/146/146
f 147/147/147 148/148/148 149/149/149
f 150/150/150 149/149/149 148/148/148
f 149/149/149 150/150/150 151/151/151
f 152/152/152 151/151/151 150/150/150
f 151/151/151 152/152/152 153/153/153
f 154/154/154 153/153/153 152/152/152
f 153/153/153 154/154/154 155/155/155
f 156/156/156 155/155/155 154/154/154
f 155/155/155 156/156/156 157/157/157
f 158/158/158 157/157/157 156/156/156
f 157/157/157 158/158/158 159/159/159
f 160/160/160 159/159/159 158/158/158
f 159/159/159 160/160/160 161/161/161
f 162/162/162 161/161/161 160/160/160
f 161/161/161 162/162/162 163/163/163
f 164/164/164 163/163/163 162/162/162
f 163/163/163 164/164/164 165/165/165
f 166/166/166 165/165/165 164/164/164
f 165/165/165 166/166/166 167/167/167
f 168/168/168 167/167/167 166/166/166
f 167/167/167 168/168/168 116/116/116
f 113/113/113 116/116/116 168/168/168
