g CTRL_Leg_swAng_RM01
v 0.0769102424 -3.60696695E-09 -1.14198877E-15
v 0.0572491251 0.0334689319 0.00590499723
v 0.0664086267 0.0387736596 1.05963458E-11
v 0.0663139895 1.54536806E-09 0.00590499723
v 0.0334689282 0.05724914 0.00590499723
v 0.0387736596 0.0664086416 5.42926745E-11
v -3.73628728E-09 0.0663139969 0.00590499723
v -1.1889052E-09 0.0769102573 1.63946828E-10
v -0.0334689319 0.0572491363 0.00590499723
v -0.0387736633 0.0664086342 9.09944828E-11
v -0.0572491437 0.033468917 0.00590499723
v -0.0664086267 0.0387736894 8.13486431E-11
v -0.0663139895 -7.70483766E-09 0.00590499723
v -0.0769102424 -2.44060017E-09 3.66779003E-12
v -0.0572491251 -0.0334689394 0.00590499723
v -0.0664086267 -0.0387736708 -7.40259729E-11
v -0.0334689207 -0.05724914 0.00590499723
v -0.0387736447 -0.0664086416 -8.36738248E-11
v 1.00814699E-08 -0.0663139969 0.00590499723
v 6.84469947E-09 -0.0769102573 -1.61077471E-10
v 0.0334689394 -0.0572491363 0.00590499723
v 0.0387736708 -0.0664086342 -2.24981908E-10
v 0.0572491437 -0.033468917 0.00590499723
v 0.0664086267 -0.0387736894 -1.4723732E-10
v 0.0663139895 1.54536806E-09 0.00590499723
v 0.0572491251 0.0334689356 -0.00590499723
v 0.0572491251 0.0334689319 0.00590499723
v 0.0663139895 2.06159867E-09 -0.00590499723
v 0.0334689282 0.0572491437 -0.00590499723
v 0.0334689282 0.05724914 0.00590499723
v -4.23402113E-09 0.0663139969 -0.00590499723
v -3.73628728E-09 0.0663139969 0.00590499723
v -0.0334689319 0.0572491363 -0.00590499723
v -0.0334689319 0.0572491363 0.00590499723
v -0.0572491437 0.033468917 -0.00590499723
v -0.0572491437 0.033468917 0.00590499723
v -0.0663139895 -8.17297607E-09 -0.00590499723
v -0.0663139895 -7.70483766E-09 0.00590499723
v -0.0572491251 -0.0334689394 -0.00590499723
v -0.0572491251 -0.0334689394 0.00590499723
v -0.0334689207 -0.0572491437 -0.00590499723
v -0.0334689207 -0.05724914 0.00590499723
v 1.05514575E-08 -0.0663139969 -0.00590499723
v 1.00814699E-08 -0.0663139969 0.00590499723
v 0.0334689394 -0.0572491363 -0.00590499723
v 0.0334689394 -0.0572491363 0.00590499723
v 0.0572491437 -0.033468917 -0.00590499723
v 0.0572491437 -0.033468917 0.00590499723
v 0.0663139895 2.06159867E-09 -0.00590499723
v 0.0664086267 0.0387736596 1.05963458E-11
v 0.0572491251 0.0334689356 -0.00590499723
v 0.0769102424 -3.60696695E-09 -1.14198877E-15
v 0.0387736596 0.0664086416 5.42926745E-11
v 0.0334689282 0.0572491437 -0.00590499723
v -1.1889052E-09 0.0769102573 1.63946828E-10
v -4.23402113E-09 0.0663139969 -0.00590499723
v -0.0387736633 0.0664086342 9.09944828E-11
v -0.0334689319 0.0572491363 -0.00590499723
v -0.0664086267 0.0387736894 8.13486431E-11
v -0.0572491437 0.033468917 -0.00590499723
v -0.0769102424 -2.44060017E-09 3.66779003E-12
v -0.0663139895 -8.17297607E-09 -0.00590499723
v -0.0664086267 -0.0387736708 -7.40259729E-11
v -0.0572491251 -0.0334689394 -0.00590499723
v -0.0387736447 -0.0664086416 -8.36738248E-11
v -0.0334689207 -0.0572491437 -0.00590499723
v 6.84469947E-09 -0.0769102573 -1.61077471E-10
v 1.05514575E-08 -0.0663139969 -0.00590499723
v 0.0387736708 -0.0664086342 -2.24981908E-10
v 0.0334689394 -0.0572491363 -0.00590499723
v 0.0664086267 -0.0387736894 -1.4723732E-10
v 0.0572491437 -0.033468917 -0.00590499723
v -3.35111561E-09 0.00681850361 0.0698460862
v -0.0382998586 -0.00340925367 0.0655905381
v -0.0352371745 0.00681850174 0.0603022985
v -1.12732146E-09 -0.00340925204 0.0759638324
v -0.0655905306 -0.00340925506 0.0382998846
v -0.0603023022 0.00681850128 0.0352371745
v -0.075963825 -0.0034092553 -2.38358755E-09
v -0.0698460788 0.00681850081 -6.09769346E-09
v -0.0655905306 -0.00340925483 -0.0382998697
v -0.0603022911 0.00681850128 -0.0352371819
v -0.0382998511 -0.00340925367 -0.065590553
v -0.035237167 0.00681850221 -0.0603023097
v 7.45638395E-09 -0.00340925204 -0.0759638324
v 8.85923335E-09 0.00681850361 -0.0698460862
v 0.0382998697 -0.00340924994 -0.0655905306
v 0.0352371819 0.00681850547 -0.0603022911
v 0.0655905306 -0.00340924901 -0.0382998772
v 0.0603023022 0.0068185064 -0.0352371633
v 0.075963825 -0.00340924878 1.22966375E-08
v 0.0698460788 0.0068185064 1.22380088E-08
v 0.0655905306 -0.00340924901 0.0382998735
v 0.0603022911 0.00681850594 0.0352371894
v 0.0382998809 -0.00340925064 0.0655905381
v 0.035237167 0.006818505 0.0603023134
v -1.12732146E-09 -0.00340925204 0.0759638324
v -0.0321744904 -0.00340925273 0.0550140589
v -0.0382998586 -0.00340925367 0.0655905381
v -4.68077088E-09 -0.00340925157 0.0637283325
v -0.0550140813 -0.00340925367 0.0321744606
v -0.0655905306 -0.00340925506 0.0382998846
v -0.0637283251 -0.0034092539 -9.83711956E-09
v -0.075963825 -0.0034092553 -2.38358755E-09
v -0.0550140515 -0.0034092532 -0.0321744941
v -0.0655905306 -0.00340925483 -0.0382998697
v -0.0321744829 -0.00340925273 -0.0550140664
v -0.0382998511 -0.00340925367 -0.065590553
v 1.11620055E-08 -0.00340925087 -0.0637283325
v 7.45638395E-09 -0.00340925204 -0.0759638324
v 0.0321744941 -0.00340924971 -0.0550140515
v 0.0382998697 -0.00340924994 -0.0655905306
v 0.0550140813 -0.00340924878 -0.0321744494
v 0.0655905306 -0.00340924901 -0.0382998772
v 0.0637283251 -0.00340924854 1.21021753E-08
v 0.075963825 -0.00340924878 1.22966375E-08
v 0.0550140515 -0.00340924878 0.0321745016
v 0.0655905306 -0.00340924901 0.0382998735
v 0.0321744569 -0.00340924971 0.0550140887
v 0.0382998809 -0.00340925064 0.0655905381
v -4.68077088E-09 -0.00340925157 0.0637283325
v -0.0352371745 0.00681850174 0.0603022985
v -0.0321744904 -0.00340925273 0.0550140589
v -3.35111561E-09 0.00681850361 0.0698460862
v -0.0603023022 0.00681850128 0.0352371745
v -0.0550140813 -0.00340925367 0.0321744606
v -0.0698460788 0.00681850081 -6.09769346E-09
v -0.0637283251 -0.0034092539 -9.83711956E-09
v -0.0603022911 0.00681850128 -0.0352371819
v -0.0550140515 -0.0034092532 -0.0321744941
v -0.035237167 0.00681850221 -0.0603023097
v -0.0321744829 -0.00340925273 -0.0550140664
v 8.85923335E-09 0.00681850361 -0.0698460862
v 1.11620055E-08 -0.00340925087 -0.0637283325
v 0.0352371819 0.00681850547 -0.0603022911
v 0.0321744941 -0.00340924971 -0.0550140515
v 0.0603023022 0.0068185064 -0.0352371633
v 0.0550140813 -0.00340924878 -0.0321744494
v 0.0698460788 0.0068185064 1.22380088E-08
v 0.0637283251 -0.00340924854 1.21021753E-08
v 0.0603022911 0.00681850594 0.0352371894
v 0.0550140515 -0.00340924878 0.0321745016
v 0.035237167 0.006818505 0.0603023134
v 0.0321744569 -0.00340924971 0.0550140887
v 0.00681850081 -1.490114E-10 0.0698460862
v -0.00340925483 0.0382998586 0.0655905381
v 0.00681850128 0.0352371745 0.0603022985
v -0.00340925506 -4.18970059E-09 0.0759638324
v -0.00340925367 0.065590553 0.0382998623
v 0.00681850174 0.0603023097 0.0352371745
v -0.0034092518 0.0759638324 -1.35253087E-09
v 0.00681850361 0.0698460862 -2.68218625E-09
v -0.00340925041 0.0655905381 -0.0382998623
v 0.00681850547 0.0603022985 -0.0352371745
v -0.00340924878 0.0382998548 -0.065590553
v 0.00681850594 0.0352371708 -0.0603023097
v -0.00340924854 -3.59742097E-10 -0.0759638324
v 0.0068185064 -5.96046412E-09 -0.0698460862
v -0.00340924878 -0.0382998735 -0.0655905306
v 0.00681850594 -0.0352371819 -0.0603022911
v -0.00340925041 -0.0655905455 -0.0382998511
v 0.00681850547 -0.0603023097 -0.035237167
v -0.0034092518 -0.0759638324 4.09461665E-09
v 0.00681850361 -0.0698460862 9.38775546E-09
v -0.00340925367 -0.0655905306 0.0382998697
v 0.00681850174 -0.0603022911 0.0352371819
v -0.00340925483 -0.0382998846 0.0655905381
v 0.00681850128 -0.0352371745 0.0603023134
v -0.00340925506 -4.18970059E-09 0.0759638324
v -0.0034092539 0.0321744904 0.0550140589
v -0.00340925483 0.0382998586 0.0655905381
v -0.00340925413 3.8916772E-09 0.0637283325
v -0.00340925273 0.0550140664 0.0321744904
v -0.00340925367 0.065590553 0.0382998623
v -0.00340925157 0.0637283325 -4.90597918E-09
v -0.0034092518 0.0759638324 -1.35253087E-09
v -0.00340924994 0.0550140589 -0.0321744904
v -0.00340925041 0.0655905381 -0.0382998623
v -0.00340924901 0.0321744867 -0.0550140664
v -0.00340924878 0.0382998548 -0.065590553
v -0.00340924878 -1.15611876E-08 -0.0637283325
v -0.00340924854 -3.59742097E-10 -0.0759638324
v -0.00340924901 -0.0321744941 -0.0550140515
v -0.00340924878 -0.0382998735 -0.0655905306
v -0.00340924994 -0.0550140701 -0.0321744829
v -0.00340925041 -0.0655905455 -0.0382998511
v -0.00340925157 -0.0637283325 1.37867513E-08
v -0.0034092518 -0.0759638324 4.09461665E-09
v -0.00340925273 -0.0550140515 0.0321744941
v -0.00340925367 -0.0655905306 0.0382998697
v -0.0034092539 -0.0321744606 0.0550140887
v -0.00340925483 -0.0382998846 0.0655905381
v -0.00340925413 3.8916772E-09 0.0637283325
v 0.00681850128 0.0352371745 0.0603022985
v -0.0034092539 0.0321744904 0.0550140589
v 0.00681850081 -1.490114E-10 0.0698460862
v 0.00681850174 0.0603023097 0.0352371745
v -0.00340925273 0.0550140664 0.0321744904
v 0.00681850361 0.0698460862 -2.68218625E-09
v -0.00340925157 0.0637283325 -4.90597918E-09
v 0.00681850547 0.0603022985 -0.0352371745
v -0.00340924994 0.0550140589 -0.0321744904
v 0.00681850594 0.0352371708 -0.0603023097
v -0.00340924901 0.0321744867 -0.0550140664
v 0.0068185064 -5.96046412E-09 -0.0698460862
v -0.00340924878 -1.15611876E-08 -0.0637283325
v 0.00681850594 -0.0352371819 -0.0603022911
v -0.00340924901 -0.0321744941 -0.0550140515
v 0.00681850547 -0.0603023097 -0.035237167
v -0.00340924994 -0.0550140701 -0.0321744829
v 0.00681850361 -0.0698460862 9.38775546E-09
v -0.00340925157 -0.0637283325 1.37867513E-08
v 0.00681850174 -0.0603022911 0.0352371819
v -0.00340925273 -0.0550140515 0.0321744941
v 0.00681850128 -0.0352371745 0.0603023134
v -0.0034092539 -0.0321744606 0.0550140887
vt 0 0
vt 0 0
vt 0 0
vt 0 0
vt 0 0
vt 0 0
vt 0 0
vt 0 0
vt 0 0
vt 0 0
vt 0 0
vt 0 0
vt 0 0
vt 0 0
vt 0 0
vt 0 0
vt 0 0
vt 0 0
vt 0 0
vt 0 0
vt 0 0
vt 0 0
vt 0 0
vt 0 0
vt 0 0
vt 0 0
vt 0 0
vt 0 0
vt 0 0
vt 0 0
vt 0 0
vt 0 0
vt 0 0
vt 0 0
vt 0 0
vt 0 0
vt 0 0
vt 0 0
vt 0 0
vt 0 0
vt 0 0
vt 0 0
vt 0 0
vt 0 0
vt 0 0
vt 0 0
vt 0 0
vt 0 0
vt 0 0
vt 0 0
vt 0 0
vt 0 0
vt 0 0
vt 0 0
vt 0 0
vt 0 0
vt 0 0
vt 0 0
vt 0 0
vt 0 0
vt 0 0
vt 0 0
vt 0 0
vt 0 0
vt 0 0
vt 0 0
vt 0 0
vt 0 0
vt 0 0
vt 0 0
vt 0 0
vt 0 0
vt 0 0
vt 0 0
vt 0 0
vt 0 0
vt 0 0
vt 0 0
vt 0 0
vt 0 0
vt 0 0
vt 0 0
vt 0 0
vt 0 0
vt 0 0
vt 0 0
vt 0 0
vt 0 0
vt 0 0
vt 0 0
vt 0 0
vt 0 0
vt 0 0
vt 0 0
vt 0 0
vt 0 0
vt 0 0
vt 0 0
vt 0 0
vt 0 0
vt 0 0
vt 0 0
vt 0 0
vt 0 0
vt 0 0
vt 0 0
vt 0 0
vt 0 0
vt 0 0
vt 0 0
vt 0 0
vt 0 0
vt 0 0
vt 0 0
vt 0 0
vt 0 0
vt 0 0
vt 0 0
vt 0 0
vt 0 0
vt 0 0
vt 0 0
vt 0 0
vt 0 0
vt 0 0
vt 0 0
vt 0 0
vt 0 0
vt 0 0
vt 0 0
vt 0 0
vt 0 0
vt 0 0
vt 0 0
vt 0 0
vt 0 0
vt 0 0
vt 0 0
vt 0 0
vt 0 0
vt 0 0
vt 0 0
vt 0 0
vt 0 0
vt 0 0
vt 0 0
vt 0 0
vt 0 0
vt 0 0
vt 0 0
vt 0 0
vt 0 0
vt 0 0
vt 0 0
vt 0 0
vt 0 0
vt 0 0
vt 0 0
vt 0 0
vt 0 0
vt 0 0
vt 0 0
vt 0 0
vt 0 0
vt 0 0
vt 0 0
vt 0 0
vt 0 0
vt 0 0
vt 0 0
vt 0 0
vt 0 0
vt 0 0
vt 0 0
vt 0 0
vt 0 0
vt 0 0
vt 0 0
vt 0 0
vt 0 0
vt 0 0
vt 0 0
vt 0 0
vt 0 0
vt 0 0
vt 0 0
vt 0 0
vt 0 0
vt 0 0
vt 0 0
vt 0 0
vt 0 0
vt 0 0
vt 0 0
vt 0 0
vt 0 0
vt 0 0
vt 0 0
vt 0 0
vt 0 0
vt 0 0
vt 0 0
vt 0 0
vt 0 0
vt 0 0
vt 0 0
vt 0 0
vt 0 0
vt 0 0
vt 0 0
vt 0 0
vt 0 0
vt 0 0
vt 0 0
vt 0 0
vt 0 0
vn 0.486788273 0 0.873519957
vn 0.421591967 0.244165421 0.873294652
vn 0.421592027 0.244165391 0.873294532
vn 0.486788273 0 0.873519957
vn 0.244165421 0.421591789 0.873294652
vn 0.244165376 0.421591818 0.873294652
vn -0 0.486788243 0.873520076
vn -0 0.486788243 0.873519957
vn -0.244165495 0.421591908 0.873294532
vn -0.244165421 0.421591878 0.873294652
vn -0.421592057 0.244164988 0.873294652
vn -0.421591699 0.244165525 0.873294711
vn -0.486788273 0 0.873519957
vn -0.486788273 0 0.873519957
vn -0.421591938 -0.24416548 0.873294652
vn -0.421591967 -0.244165435 0.873294532
vn -0.24416545 -0.421591938 0.873294652
vn -0.244165286 -0.421592027 0.873294652
vn -0 -0.486788273 0.873519957
vn -0 -0.486788243 0.873519957
vn 0.244165525 -0.421591908 0.873294532
vn 0.244165421 -0.421591878 0.873294652
vn 0.421592057 -0.244164988 0.873294652
vn 0.421591699 -0.244165495 0.873294711
vn -1 -2.26047675E-07 0
vn -0.865349829 -0.501168132 0
vn -0.865349948 -0.501168132 -1.17056196E-07
vn -1 -2.13762462E-07 0
vn -0.501168191 -0.865349829 -3.33510314E-07
vn -0.501168251 -0.865349829 -3.0605645E-07
vn -0 -1 0
vn -0 -1 0
vn 0.501168311 -0.86534977 0
vn 0.50116837 -0.86534977 0
vn 0.865350008 -0.501167953 0
vn 0.865350008 -0.501168013 0
vn 1 1.96563164E-07 0
vn 1 2.06391348E-07 0
vn 0.865349829 0.501168191 0
vn 0.865349829 0.501168191 0
vn 0.501168072 0.865350008 -3.17629258E-07
vn 0.501168132 0.865349829 -3.06122871E-07
vn -0 1 0
vn -0 1 0
vn -0.50116837 0.86534977 0
vn -0.501168549 0.86534977 0
vn -0.865350008 0.501168013 0
vn -0.865350008 0.501168013 0
vn 0.486788243 1.9609692E-07 -0.873519957
vn 0.421592057 0.244165316 -0.873294532
vn 0.421592057 0.244165421 -0.873294532
vn 0.486788332 0 -0.873519957
vn 0.244165421 0.421591908 -0.873294532
vn 0.244165495 0.421591908 -0.873294532
vn -0 0.486788332 -0.873519957
vn -1.41857356E-07 0.486788273 -0.873519957
vn -0.244165361 0.421592057 -0.873294532
vn -0.244165376 0.421591938 -0.873294652
vn -0.421591729 0.244165495 -0.873294652
vn -0.421592057 0.244164899 -0.873294711
vn -0.486788273 0 -0.873519957
vn -0.486788243 -1.9609692E-07 -0.873519957
vn -0.421591967 -0.244165421 -0.873294652
vn -0.421591908 -0.244165465 -0.873294532
vn -0.244165435 -0.421592087 -0.873294532
vn -0.244165525 -0.421592027 -0.873294532
vn -0 -0.486788332 -0.873519957
vn 1.29340535E-07 -0.486788273 -0.873519957
vn 0.244165361 -0.421591967 -0.873294532
vn 0.244165391 -0.421591938 -0.873294652
vn 0.421591878 -0.244165584 -0.873294652
vn 0.421592057 -0.244164914 -0.873294711
vn -1.97352435E-07 0.51332891 0.858192027
vn -0.430221707 0.512917697 0.742849052
vn -0.430221766 0.512917697 0.742848992
vn -1.0652046E-07 0.51332885 0.858192027
vn -0.742848873 0.512917697 0.430222034
vn -0.742849231 0.512917757 0.430221379
vn -0.858192027 0.51332885 -1.06520474E-07
vn -0.858192027 0.51332891 -2.33234687E-07
vn -0.742848992 0.512917697 -0.430221796
vn -0.742848992 0.512917697 -0.430221856
vn -0.430221617 0.512917876 -0.742848992
vn -0.430221736 0.512917876 -0.742848933
vn 1.7043277E-07 0.513328969 -0.858191907
vn 2.42205232E-07 0.51332891 -0.858192027
vn 0.430221856 0.512917697 -0.742848992
vn 0.430221915 0.512917757 -0.742848933
vn 0.742848933 0.512917697 -0.430222005
vn 0.742849171 0.512917817 -0.430221349
vn 0.858192027 0.51332891 1.49128667E-07
vn 0.858191907 0.51332891 1.79411245E-07
vn 0.742849052 0.512917757 0.430221707
vn 0.742848992 0.512917697 0.430221766
vn 0.430222094 0.512917697 0.742848873
vn 0.430221468 0.512917757 0.742849112
vn -0 -1 0
vn -0 -1 0
vn -0 -1 0
vn -0 -1 0
vn 1.15118326E-07 -1 0
vn 1.1727964E-07 -1 0
vn 1.22181831E-07 -1 0
vn 1.22718717E-07 -1 0
vn 1.13518361E-07 -1 0
vn 1.12024026E-07 -1 0
vn -0 -1 0
vn -0 -1 0
vn -0 -1 0
vn -0 -1 0
vn -0 -1 0
vn -0 -1 0
vn -0 -1 0
vn -0 -1 0
vn -0 -1 0
vn -0 -1 0
vn -0 -1 0
vn -0 -1 0
vn -0 -1 0
vn -0 -1 0
vn 2.78087469E-07 0.51332891 -0.858191907
vn 0.430221766 0.512917697 -0.742848992
vn 0.430221885 0.512917757 -0.742848992
vn 1.67769727E-07 0.51332891 -0.858192027
vn 0.742848992 0.512917757 -0.430221885
vn 0.742849231 0.512917876 -0.43022114
vn 0.858191907 0.51332891 1.91736817E-07
vn 0.858191907 0.513329029 3.5882266E-07
vn 0.742848992 0.512917757 0.430221766
vn 0.742848933 0.512917817 0.430221766
vn 0.430221617 0.512917936 0.742848992
vn 0.430221677 0.512917876 0.742848992
vn -1.91736845E-07 0.513329029 0.858191907
vn -2.60146379E-07 0.513328969 0.858191907
vn -0.430221945 0.512917697 0.742848933
vn -0.430221975 0.512917757 0.742848754
vn -0.742848992 0.512917757 0.430221856
vn -0.742849231 0.512917817 0.43022114
vn -0.858191907 0.51332891 -2.13040906E-07
vn -0.858191907 0.51332891 -2.78087469E-07
vn -0.742848992 0.512917757 -0.430221766
vn -0.742848992 0.512917757 -0.430221856
vn -0.430221885 0.512917697 -0.742848992
vn -0.430221349 0.512917817 -0.742849171
vn 0.51332891 2.42205232E-07 0.858192027
vn 0.512917638 0.430221647 0.742849171
vn 0.512917697 0.430221766 0.742849052
vn 0.51332885 0 0.858192027
vn 0.512917936 0.742848992 0.430221617
vn 0.512917995 0.742848873 0.430221796
vn 0.51332891 0.858191907 0
vn 0.513329029 0.858191907 -1.16617358E-07
vn 0.512917697 0.742849052 -0.430221766
vn 0.512917697 0.742849052 -0.430221766
vn 0.512917936 0.430221617 -0.742848992
vn 0.512917876 0.430221766 -0.742848933
vn 0.51332891 0 -0.858191907
vn 0.513328969 -2.87058015E-07 -0.858191907
vn 0.512917817 -0.430221856 -0.742848873
vn 0.512917817 -0.430221856 -0.742848873
vn 0.512917697 -0.742848992 -0.430221766
vn 0.512917697 -0.742848992 -0.430221766
vn 0.513328969 -0.858191907 1.70432756E-07
vn 0.513328969 -0.858191907 3.31910854E-07
vn 0.512917697 -0.742849052 0.430221707
vn 0.512917757 -0.742848992 0.430221766
vn 0.512917697 -0.430222124 0.742848754
vn 0.512917876 -0.430221498 0.742849052
vn -1 0 0
vn -1 0 0
vn -1 0 0
vn -1 0 0
vn -1 0 0
vn -1 0 0
vn -1 0 0
vn -1 0 0
vn -1 0 0
vn -1 0 0
vn -1 0 0
vn -1 0 0
vn -1 0 0
vn -1 0 0
vn -1 0 0
vn -1 0 0
vn -1 0 0
vn -1 0 0
vn -1 0 0
vn -1 0 0
vn -1 0 0
vn -1 0 0
vn -1 0 0
vn -1 0 0
vn 0.513328969 -3.76763666E-07 -0.858191907
vn 0.512917697 -0.430221707 -0.742849052
vn 0.512917697 -0.430221766 -0.742849052
vn 0.51332891 -1.94399846E-07 -0.858192027
vn 0.512917995 -0.742848933 -0.430221587
vn 0.512918055 -0.742848873 -0.430221617
vn 0.513329029 -0.858191907 0
vn 0.51332891 -0.858191907 1.07646763E-07
vn 0.512917697 -0.742849052 0.430221796
vn 0.512917697 -0.742848992 0.430221885
vn 0.512917936 -0.430221617 0.742848992
vn 0.512917936 -0.430221736 0.742848873
vn 0.51332891 1.06520453E-07 0.858191907
vn 0.51332891 2.87058015E-07 0.858191907
vn 0.512917817 0.430221856 0.742848873
vn 0.512917817 0.430221856 0.742848873
vn 0.512917757 0.742849052 0.430221766
vn 0.512917697 0.742848992 0.430221856
vn 0.51332891 0.858191907 -1.27824549E-07
vn 0.513328969 0.858191907 -3.22940281E-07
vn 0.512917757 0.742848992 -0.430221766
vn 0.512917876 0.742848873 -0.430221856
vn 0.512917697 0.430221915 -0.742848933
vn 0.512917757 0.430221319 -0.742849231
g CTRL_Leg_swAng_RM01_0
f 3/3/3 2/2/2 1/1/1
f 4/4/4 1/1/1 2/2/2
f 2/2/2 3/3/3 5/5/5
f 6/6/6 5/5/5 3/3/3
f 5/5/5 6/6/6 7/7/7
f 8/8/8 7/7/7 6/6/6
f 7/7/7 8/8/8 9/9/9
f 10/10/10 9/9/9 8/8/8
f 9/9/9 10/10/10 11/11/11
f 12/12/12 11/11/11 10/10/10
f 11/11/11 12/12/12 13/13/13
f 14/14/14 13/13/13 12/12/12
f 13/13/13 14/14/14 15/15/15
f 16/16/16 15/15/15 14/14/14
f 15/15/15 16/16/16 17/17/17
f 18/18/18 17/17/17 16/16/16
f 17/17/17 18/18/18 19/19/19
f 20/20/20 19/19/19 18/18/18
f 19/19/19 20/20/20 21/21/21
f 22/22/22 21/21/21 20/20/20
f 21/21/21 22/22/22 23/23/23
f 24/24/24 23/23/23 22/22/22
f 23/23/23 24/24/24 4/4/4
f 1/1/1 4/4/4 24/24/24
f 27/27/27 26/26/26 25/25/25
f 28/28/28 25/25/25 26/26/26
f 26/26/26 27/27/27 29/29/29
f 30/30/30 29/29/29 27/27/27
f 29/29/29 30/30/30 31/31/31
f 32/32/32 31/31/31 30/30/30
f 31/31/31 32/32/32 33/33/33
f 34/34/34 33/33/33 32/32/32
f 33/33/33 34/34/34 35/35/35
f 36/36/36 35/35/35 34/34/34
f 35/35/35 36/36/36 37/37/37
f 38/38/38 37/37/37 36/36/36
f 37/37/37 38/38/38 39/39/39
f 40/40/40 39/39/39 38/38/38
f 39/39/39 40/40/40 41/41/41
f 42/42/42 41/41/41 40/40/40
f 41/41/41 42/42/42 43/43/43
f 44/44/44 43/43/43 42/42/42
f 43/43/43 44/44/44 45/45/45
f 46/46/46 45/45/45 44/44/44
f 45/45/45 46/46/46 47/47/47
f 48/48/48 47/47/47 46/46/46
f 47/47/47 48/48/48 28/28/28
f 25/25/25 28/28/28 48/48/48
f 51/51/51 50/50/50 49/49/49
f 52/52/52 49/49/49 50/50/50
f 50/50/50 51/51/51 53/53/53
f 54/54/54 53/53/53 51/51/51
f 53/53/53 54/54/54 55/55/55
f 56/56/56 55/55/55 54/54/54
f 55/55/55 56/56/56 57/57/57
f 58/58/58 57/57/57 56/56/56
f 57/57/57 58/58/58 59/59/59
f 60/60/60 59/59/59 58/58/58
f 59/59/59 60/60/60 61/61/61
f 62/62/62 61/61/61 60/60/60
f 61/61/61 62/62/62 63/63/63
f 64/64/64 63/63/63 62/62/62
f 63/63/63 64/64/64 65/65/65
f 66/66/66 65/65/65 64/64/64
f 65/65/65 66/66/66 67/67/67
f 68/68/68 67/67/67 66/66/66
f 67/67/67 68/68/68 69/69/69
f 70/70/70 69/69/69 68/68/68
f 69/69/69 70/70/70 71/71/71
f 72/72/72 71/71/71 70/70/70
f 71/71/71 72/72/72 52/52/52
f 49/49/49 52/52/52 72/72/72
f 75/75/75 74/74/74 73/73/73
f 76/76/76 73/73/73 74/74/74
f 74/74/74 75/75/75 77/77/77
f 78/78/78 77/77/77 75/75/75
f 77/77/77 78/78/78 79/79/79
f 80/80/80 79/79/79 78/78/78
f 79/79/79 80/80/80 81/81/81
f 82/82/82 81/81/81 80/80/80
f 81/81/81 82/82/82 83/83/83
f 84/84/84 83/83/83 82/82/82
f 83/83/83 84/84/84 85/85/85
f 86/86/86 85/85/85 84/84/84
f 85/85/85 86/86/86 87/87/87
f 88/88/88 87/87/87 86/86/86
f 87/87/87 88/88/88 89/89/89
f 90/90/90 89/89/89 88/88/88
f 89/89/89 90/90/90 91/91/91
f 92/92/92 91/91/91 90/90/90
f 91/91/91 92/92/92 93/93/93
f 94/94/94 93/93/93 92/92/92
f 93/93/93 94/94/94 95/95/95
f 96/96/96 95/95/95 94/94/94
f 95/95/95 96/96/96 76/76/76
f 73/73/73 76/76/76 96/96/96
f 99/99/99 98/98/98 97/97/97
f 100/100/100 97/97/97 98/98/98
f 98/98/98 99/99/99 101/101/101
f 102/102/102 101/101/101 99/99/99
f 101/101/101 102/102/102 103/103/103
f 104/104/104 103/103/103 102/102/102
f 103/103/103 104/104/104 105/105/105
f 106/106/106 105/105/105 104/104/104
f 105/105/105 106/106/106 107/107/107
f 108/108/108 107/107/107 106/106/106
f 107/107/107 108/108/108 109/109/109
f 110/110/110 109/109/109 108/108/108
f 109/109/109 110/110/110 111/111/111
f 112/112/112 111/111/111 110/110/110
f 111/111/111 112/112/112 113/113/113
f 114/114/114 113/113/113 112/112/112
f 113/113/113 114/114/114 115/115/115
f 116/116/116 115/115/115 114/114/114
f 115/115/115 116/116/116 117/117/117
f 118/118/118 117/117/117 116/116/116
f 117/117/117 118/118/118 119/119/119
f 120/120/120 119/119/119 118/118/118
f 119/119/119 120/120/120 100/100/100
f 97/97/97 100/100/100 120/120/120
f 123/123/123 122/122/122 121/121/121
f 124/124/124 121/121/121 122/122/122
f 122/122/122 123/123/123 125/125/125
f 126/126/126 125/125/125 123/123/123
f 125/125/125 126/126/126 127/127/127
f 128/128/128 127/127/127 126/126/126
f 127/127/127 128/128/128 129/129/129
f 130/130/130 129/129/129 128/128/128
f 129/129/129 130/130/130 131/131/131
f 132/132/132 131/131/131 130/130/130
f 131/131/131 132/132/132 133/133/133
f 134/134/134 133/133/133 132/132/132
f 133/133/133 134/134/134 135/135/135
f 136/136/136 135/135/135 134/134/134
f 135/135/135 136/136/136 137/137/137
f 138/138/138 137/137/137 136/136/136
f 137/137/137 138/138/138 139/139/139
f 140/140/140 139/139/139 138/138/138
f 139/139/139 140/140/140 141/141/141
f 142/142/142 141/141/141 140/140/140
f 141/141/141 142/142/142 143/143/143
f 144/144/144 143/143/143 142/142/142
f 143/143/143 144/144/144 124/124/124
f 121/121/121 124/124/124 144/144/144
f 147/147/147 146/146/146 145/145/145
f 148/148/148 145/145/145 146/146/146
f 146/146/146 147/147/147 149/149/149
f 150/150/150 149/149/149 147/147/147
f 149/149/149 150/150/150 151/151/151
f 152/152/152 151/151/151 150/150/150
f 151/151/151 152/152/152 153/153/153
f 154/154/154 153/153/153 152/152/152
f 153/153/153 154/154/154 155/155/155
f 156/156/156 155/155/155 154/154/154
f 155/155/155 156/156/156 157/157/157
f 158/158/158 157/157/157 156/156/156
f 157/157/157 158/158/158 159/159/159
f 160/160/160 159/159/159 158/158/158
f 159/159/159 160/160/160 161/161/161
f 162/162/162 161/161/161 160/160/160
f 161/161/161 162/162/162 163/163/163
f 164/164/164 163/163/163 162/162/162
f 163/163/163 164/164/164 165/165/165
f 166/166/166 165/165/165 164/164/164
f 165/165/165 166/166/166 167/167/167
f 168/168/168 167/167/167 166/166/166
f 167/167/167 168/168/168 148/148/148
f 145/145/145 148/148/148 168/168/168
f 171/171/171 170/170/170 169/169/169
f 172/172/172 169/169/169 170/170/170
f 170/170/170 171/171/171 173/173/173
f 174/174/174 173/173/173 171/171/171
f 173/173/173 174/174/174 175/175/175
f 176/176/176 175/175/175 174/174/174
f 175/175/175 176/176/176 177/177/177
f 178/178/178 177/177/177 176/176/176
f 177/177/177 178/178/178 179/179/179
f 180/180/180 179/179/179 178/178/178
f 179/179/179 180/180/180 181/181/181
f 182/182/182 181/181/181 180/180/180
f 181/181/181 182/182/182 183/183/183
f 184/184/184 183/183/183 182/182/182
f 183/183/183 184/184/184 185/185/185
f 186/186/186 185/185/185 184/184/184
f 185/185/185 186/186/186 187/187/187
f 188/188/188 187/187/187 186/186/186
f 187/187/187 188/188/188 189/189/189
f 190/190/190 189/189/189 188/188/188
f 189/189/189 190/190/190 191/191/191
f 192/192/192 191/191/191 190/190/190
f 191/191/191 192/192/192 172/172/172
f 169/169/169 172/172/172 192/192/192
f 195/195/195 194/194/194 193/193/193
f 196/196/196 193/193/193 194/194/194
f 194/194/194 195/195/195 197/197/197
f 198/198/198 197/197/197 195/195/195
f 197/197/197 198/198/198 199/199/199
f 200/200/200 199/199/199 198/198/198
f 199/199/199 200/200/200 201/201/201
f 202/202/202 201/201/201 200/200/200
f 201/201/201 202/202/202 203/203/203
f 204/204/204 203/203/203 202/202/202
f 203/203/203 204/204/204 205/205/205
f 206/206/206 205/205/205 204/204/204
f 205/205/205 206/206/206 207/207/207
f 208/208/208 207/207/207 206/206/206
f 207/207/207 208/208/208 209/209/209
f 210/210/210 209/209/209 208/208/208
f 209/209/209 210/210/210 211/211/211
f 212/212/212 211/211/211 210/210/210
f 211/211/211 212/212/212 213/213/213
f 214/214/214 213/213/213 212/212/212
f 213/213/213 214/214/214 215/215/215
f 216/216/216 215/215/215 214/214/214
f 215/215/215 216/216/216 196/196/196
f 193/193/193 196/196/196 216/216/216
