g green_asn_f_pve_3_belt
v -0.034906771 -0.150935054 1.37977958
v -0.0494962595 -0.133561 1.36021399
v -0.0310709588 -0.14427115 1.38904166
v -0.0459662266 -0.144778416 1.35653496
v -0.0510279499 -0.137723923 1.33145094
v -0.0543623194 -0.122371592 1.33863509
v -0.0344379209 -0.149427831 1.35354626
v -0.034906771 -0.150935054 1.37977958
v -0.0226028096 -0.1528624 1.33794105
v -0.0210833494 -0.142121792 1.34546876
v -0.0308359191 -0.138987154 1.35765731
v -0.0745512396 -0.117608719 1.31518614
v -0.0758247524 -0.102230564 1.32255125
v -0 -0.149221271 1.27970374
v -0.0830668733 -0.108528666 1.28343165
v -0 -0.144631803 1.34741366
v -0 -0.157674044 1.34004116
v -0.0817497969 -0.0881614685 1.29128873
v -0.0921208039 -0.10463047 1.21254349
v -0 -0.140377015 1.20771003
v 0.0226028096 -0.1528624 1.33794105
v 0.0510279499 -0.137723923 1.33145094
v 0.0344379209 -0.149427831 1.35354626
v 0.0210833494 -0.142121792 1.34546876
v 0.0308359191 -0.138987154 1.35765731
v 0.0459662266 -0.144778416 1.35653496
v 0.034906771 -0.150935054 1.37977958
v 0.0494962595 -0.133561 1.36021399
v 0.034906771 -0.150935054 1.37977958
v 0.0310709588 -0.14427115 1.38904166
v 0.0543623194 -0.122371592 1.33863509
v 0.0745512396 -0.117608719 1.31518614
v 0.0758247524 -0.102230564 1.32255125
v 0.0830668733 -0.108528666 1.28343165
v 0.0817497969 -0.0881614685 1.29128873
v 0.0921208039 -0.10463047 1.21254349
v 0.0529468991 -0.125774071 1.13897645
v -0 -0.131943554 1.13906014
v -0 -0.117601909 1.13547063
v -0.0529468991 -0.125774071 1.13897645
v -0.0520551391 -0.113020264 1.13572681
v -0.0958365723 -0.103030629 1.1834507
v -0.0947675481 -0.0901016966 1.18064106
v 0.0520551391 -0.113020264 1.13572681
v 0.0958365723 -0.103030629 1.1834507
v 0.0947675481 -0.0901016966 1.18064106
v -0.034906771 -0.150935054 1.37977958
v -0.0344379209 -0.149427831 1.35354626
v -0.034906771 -0.150935054 1.37977958
v -0.0310709588 -0.14427115 1.38904166
v -0.12620388 -0.0816924945 1.21793175
v -0.0947675481 -0.0901016966 1.18064106
v -0.122711353 -0.0709265172 1.21545529
v -0.0958365723 -0.103030629 1.1834507
v -0.142791077 -0.0545258 1.24522185
v -0.115110174 -0.0855190009 1.29038584
v -0.128743038 -0.0481588058 1.30148017
v -0.134088382 -0.047363162 1.23886383
v -0.102750488 -0.0781042725 1.29705644
v -0.114538305 -0.0481249094 1.30568767
v -0.147311851 -0.0249289479 1.26230013
v -0.137078509 -0.0226206984 1.25482869
v -0.111539647 -0.0138350492 1.3149966
v -0.124472767 -0.00842889026 1.3098582
v -0.138297901 0.00862490013 1.26926243
v -0.12850748 0.00542473001 1.26064789
v -0.0948374793 0.031937398 1.31984556
v -0.0861572474 0.0217552204 1.32647896
v -0.118855052 0.0383651778 1.26637375
v -0.110850491 0.0285410397 1.25574684
v -0.0527031086 0.0555437617 1.32774544
v -0.048122678 0.0381768681 1.3320787
v -0.0811396465 0.0658821985 1.25211608
v -0 0.042801328 1.33371818
v -0 0.0606156178 1.32881081
v -0.0481665395 0.0768369883 1.24360013
v -0 0.081772536 1.24175203
v -0.0427929498 0.0627208427 1.23496509
v -0 0.0668083951 1.23299456
v -0.0774193704 0.0511798896 1.24263346
v -0.0817497969 -0.0881614685 1.29128873
v -0.0830668733 -0.108528666 1.28343165
v -0.0921208039 -0.10463047 1.21254349
v 0.034906771 -0.150935054 1.37977958
v 0.0310709588 -0.14427115 1.38904166
v 0.034906771 -0.150935054 1.37977958
v 0.0344379209 -0.149427831 1.35354626
v 0.12620388 -0.0816924945 1.21793175
v 0.0947675481 -0.0901016966 1.18064106
v 0.0958365723 -0.103030629 1.1834507
v 0.122711353 -0.0709265172 1.21545529
v 0.142791077 -0.0545258 1.24522185
v 0.115110174 -0.0855190009 1.29038584
v 0.128743038 -0.0481588058 1.30148017
v 0.134088382 -0.047363162 1.23886383
v 0.102750488 -0.0781042725 1.29705644
v 0.114538305 -0.0481249094 1.30568767
v 0.147311851 -0.0249289479 1.26230013
v 0.137078509 -0.0226206984 1.25482869
v 0.111539647 -0.0138350492 1.3149966
v 0.124472767 -0.00842889026 1.3098582
v 0.138297901 0.00862490013 1.26926243
v 0.12850748 0.00542473001 1.26064789
v 0.0948374793 0.031937398 1.31984556
v 0.0861572474 0.0217552204 1.32647896
v 0.118855052 0.0383651778 1.26637375
v 0.110850491 0.0285410397 1.25574684
v 0.0527031086 0.0555437617 1.32774544
v 0.048122678 0.0381768681 1.3320787
v 0.0811396465 0.0658821985 1.25211608
v -0 0.042801328 1.33371818
v -0 0.0606156178 1.32881081
v 0.0481665395 0.0768369883 1.24360013
v -0 0.081772536 1.24175203
v 0.0427929498 0.0627208427 1.23496509
v -0 0.0668083951 1.23299456
v 0.0774193704 0.0511798896 1.24263346
v 0.0817497969 -0.0881614685 1.29128873
v 0.0830668733 -0.108528666 1.28343165
v 0.0921208039 -0.10463047 1.21254349
vt 0.127477124 0.943363547
vt 0.0957115591 0.863061547
vt 0.127225831 0.982079506
vt 0.115959853 0.85221076
vt 0.106474876 0.757757902
vt 0.077954486 0.782694221
vt 0.137048513 0.848615766
vt 0.127477124 0.943363547
vt 0.162504539 0.792450786
vt 0.166062176 0.840422273
vt 0.151055574 0.878320694
vt 0.0572764017 0.682217479
vt 0.0309006535 0.710351467
vt 0.205168679 0.57958293
vt 0.0410926081 0.56466186
vt 0.20257318 0.84670949
vt 0.203067511 0.79628551
vt 0.00502602244 0.594717741
vt 0.0325355604 0.306178689
vt 0.207754642 0.316040039
vt 0.243666723 0.79581809
vt 0.30027771 0.765389919
vt 0.268046498 0.854005933
vt 0.239196658 0.843521595
vt 0.253540844 0.882744551
vt 0.289018542 0.85904026
vt 0.276190728 0.949423909
vt 0.309044749 0.871242881
vt 0.276190728 0.949423909
vt 0.275902927 0.988129854
vt 0.328232169 0.792622089
vt 0.351026982 0.694339156
vt 0.376870662 0.72477746
vt 0.369369686 0.578237414
vt 0.404813141 0.610970736
vt 0.383024961 0.320757985
vt 0.299613625 0.0627827644
vt 0.210217983 0.0664608479
vt 0.210753471 0.0122026205
vt 0.120968983 0.0553488731
vt 0.112933896 0.0153990984
vt 0.0296239592 0.195296407
vt 0.0137675907 0.157934785
vt 0.308430284 0.0235382318
vt 0.388123989 0.210227489
vt 0.404704928 0.174221039
vt 0.127477124 0.943363547
vt 0.137048513 0.848615766
vt 0.127477124 0.943363547
vt 0.127225831 0.982079506
vt 0.481844544 0.50801897
vt 0.390138149 0.452611327
vt 0.487048239 0.463054895
vt 0.383474618 0.50523138
vt 0.562130511 0.505969167
vt 0.561448395 0.751144767
vt 0.632587016 0.689401269
vt 0.560053349 0.454576731
vt 0.576340199 0.804484844
vt 0.641144812 0.745852828
vt 0.627491534 0.49208951
vt 0.623457849 0.441729188
vt 0.7127648 0.701416731
vt 0.70587492 0.643357754
vt 0.692568064 0.458518028
vt 0.685934246 0.406115294
vt 0.802884161 0.627577662
vt 0.805860043 0.687535405
vt 0.755310476 0.410136104
vt 0.744041204 0.34861207
vt 0.8950634 0.633649349
vt 0.89367044 0.705456614
vt 0.838996708 0.328698397
vt 0.994844198 0.709957242
vt 0.994825065 0.634898186
vt 0.902837634 0.28553772
vt 0.99473393 0.272614479
vt 0.90306294 0.217016578
vt 0.994716167 0.20321846
vt 0.825285792 0.264410496
vt 0.540121496 0.873885036
vt 0.498695791 0.842177987
vt 0.415687323 0.604766369
vt 0.276190728 0.949423909
vt 0.275902927 0.988129854
vt 0.276190728 0.949423909
vt 0.268046498 0.854005933
vt 0.481844544 0.50801897
vt 0.390138149 0.452611327
vt 0.383474618 0.50523138
vt 0.487048239 0.463054895
vt 0.562130511 0.505969167
vt 0.561448395 0.751144767
vt 0.632587016 0.689401269
vt 0.560053349 0.454576731
vt 0.576340199 0.804484844
vt 0.641144812 0.745852828
vt 0.627491534 0.49208951
vt 0.623457849 0.441729188
vt 0.7127648 0.701416731
vt 0.70587492 0.643357754
vt 0.692568064 0.458518028
vt 0.685934246 0.406115294
vt 0.802884161 0.627577662
vt 0.805860043 0.687535405
vt 0.755310476 0.410136104
vt 0.744041204 0.34861207
vt 0.8950634 0.633649349
vt 0.89367044 0.705456614
vt 0.838996708 0.328698397
vt 0.994844198 0.709957242
vt 0.994825065 0.634898186
vt 0.902837634 0.28553772
vt 0.99473393 0.272614479
vt 0.90306294 0.217016578
vt 0.994716167 0.20321846
vt 0.825285792 0.264410496
vt 0.540121496 0.873885036
vt 0.498695791 0.842177987
vt 0.415687323 0.604766369
vn -0.00963129196 -0.905991971 0.423185349
vn -0.924467385 -0.317801327 0.210623682
vn -0.0250202119 -0.806538522 0.59065181
vn -0.729586542 -0.68156445 0.0563327298
vn -0.687914491 -0.725014925 -0.0335723497
vn -0.862460673 -0.345721424 0.369646251
vn 0.162003845 -0.977577567 0.134524748
vn -0.00963129196 -0.905991971 0.423185349
vn -0.196706876 -0.953334749 0.229040012
vn 0.321425229 -0.564893305 0.759987831
vn 0.862850547 -0.423952192 0.275233686
vn -0.807000518 -0.565185905 0.17121619
vn -0.91478914 -0.23358573 0.329542935
vn -0 -0.989133418 -0.147020817
vn -0.632885754 -0.746615469 0.20498988
vn -0 -0.514920592 0.857237935
vn -0 -0.898194611 0.439597905
vn -0.56437254 -0.32843703 0.75737232
vn -0.481877029 -0.87610507 0.0153138507
vn -0 -0.99810636 -0.0615124851
vn 0.196706876 -0.953334749 0.229040012
vn 0.687914491 -0.725014925 -0.0335723497
vn -0.16200389 -0.977577567 0.134524748
vn -0.321425229 -0.564893305 0.759987831
vn -0.862850547 -0.423952192 0.275233686
vn 0.729586542 -0.68156445 0.0563327298
vn 0.00963130593 -0.905991971 0.423185319
vn 0.924467385 -0.317801327 0.210623652
vn 0.00963130593 -0.905991971 0.423185319
vn 0.0250202119 -0.806538522 0.59065181
vn 0.862460673 -0.345721424 0.369646281
vn 0.807000518 -0.565185905 0.171216175
vn 0.91478914 -0.23358573 0.329542935
vn 0.632885754 -0.746615469 0.20498988
vn 0.56437254 -0.32843703 0.75737226
vn 0.481877029 -0.87610507 0.0153138461
vn 0.42537722 -0.674860716 -0.60300684
vn -0 -0.766740143 -0.641957581
vn -0 -0.243157327 -0.969986916
vn -0.42537722 -0.674860716 -0.603006721
vn -0.436298817 -0.19120568 -0.879251778
vn -0.734445989 -0.567981243 -0.371465236
vn -0.757686198 -0.0656261072 -0.649311125
vn 0.436298817 -0.19120568 -0.879251778
vn 0.734446049 -0.567981124 -0.371465206
vn 0.757686198 -0.0656261072 -0.649311125
vn -0.00963129196 -0.905991971 0.423185349
vn 0.162003845 -0.977577567 0.134524748
vn -0.00963129196 -0.905991971 0.423185349
vn -0.0250202119 -0.806538522 0.59065181
vn -0.843796074 -0.424072117 -0.328893512
vn -0.757686198 -0.0656261072 -0.649311125
vn -0.767777562 0.124319121 -0.62853986
vn -0.734445989 -0.567981243 -0.371465236
vn -0.960822761 -0.13642028 -0.24126558
vn -0.559212685 -0.632862389 0.535505712
vn -0.691186965 -0.274384886 0.668560743
vn -0.712503552 0.304603994 -0.632103682
vn -0.165618598 -0.492352486 0.854493737
vn -0.27044639 -0.29800877 0.915450513
vn -0.977342725 0.121886402 -0.173046082
vn -0.612467945 0.321426392 -0.722196698
vn -0.38944611 -0.0568340831 0.919294059
vn -0.699899197 0.138072461 0.700768888
vn -0.89128983 0.429978639 -0.143946901
vn -0.571539164 0.314532727 -0.757899821
vn -0.571440876 0.501318693 0.649719059
vn -0.415598154 0.195641398 0.888258159
vn -0.750443399 0.636741638 -0.177185923
vn -0.574724376 0.335734874 -0.746306956
vn -0.25051108 0.679910541 0.689177752
vn -0.136455387 0.205793276 0.969035029
vn -0.509997845 0.799016535 -0.318551183
vn -0 0.257955462 0.966156781
vn -0 0.72799623 0.685581207
vn -0.244290859 0.878045499 -0.411531299
vn -0 0.92080617 -0.390020579
vn -0.191277027 0.459106773 -0.867544889
vn -0 0.50509578 -0.863063276
vn -0.448919088 0.393949866 -0.802044332
vn -0.56437254 -0.32843703 0.75737232
vn -0.632885754 -0.746615469 0.20498988
vn -0.481877029 -0.87610507 0.0153138507
vn 0.00963130593 -0.905991971 0.423185319
vn 0.0250202119 -0.806538522 0.59065181
vn 0.00963130593 -0.905991971 0.423185319
vn -0.16200389 -0.977577567 0.134524748
vn 0.843796074 -0.424072117 -0.328893512
vn 0.757686198 -0.0656261072 -0.649311125
vn 0.734446049 -0.567981124 -0.371465206
vn 0.767777562 0.124319121 -0.62853986
vn 0.960822761 -0.136420265 -0.24126555
vn 0.559212685 -0.632862329 0.535505772
vn 0.691187024 -0.274384856 0.668560684
vn 0.712503552 0.304603994 -0.632103682
vn 0.165618598 -0.492352486 0.854493737
vn 0.27044639 -0.29800877 0.915450513
vn 0.977342725 0.121886402 -0.173046082
vn 0.612468004 0.321426392 -0.722196639
vn 0.38944608 -0.0568340868 0.919294059
vn 0.699899197 0.138072461 0.700768888
vn 0.89128983 0.429978639 -0.143946901
vn 0.571539164 0.314532727 -0.757899821
vn 0.571440876 0.501318693 0.649719059
vn 0.415598124 0.195641413 0.888258159
vn 0.750443399 0.636741638 -0.177185923
vn 0.574724376 0.335734934 -0.746306896
vn 0.25051108 0.679910541 0.689177752
vn 0.136455387 0.205793276 0.969035029
vn 0.509997845 0.799016535 -0.318551183
vn -0 0.257955462 0.966156781
vn -0 0.72799623 0.685581207
vn 0.244290859 0.878045499 -0.411531299
vn -0 0.92080617 -0.390020579
vn 0.191277027 0.459106773 -0.867544889
vn -0 0.50509578 -0.863063276
vn 0.448919147 0.393949866 -0.802044332
vn 0.56437254 -0.32843703 0.75737226
vn 0.632885754 -0.746615469 0.20498988
vn 0.481877029 -0.87610507 0.0153138461
g green_asn_f_pve_3_belt_0
f 3/3/3 2/2/2 1/1/1
f 4/4/4 1/1/1 2/2/2
f 4/4/4 2/2/2 5/5/5
f 6/6/6 5/5/5 2/2/2
f 4/4/4 5/5/5 7/7/7
f 8/8/8 4/4/4 7/7/7
f 9/9/9 7/7/7 5/5/5
f 9/9/9 10/10/10 7/7/7
f 11/11/11 7/7/7 10/10/10
f 5/5/5 6/6/6 12/12/12
f 13/13/13 12/12/12 6/6/6
f 12/12/12 14/14/14 5/5/5
f 9/9/9 5/5/5 14/14/14
f 14/14/14 12/12/12 15/15/15
f 10/10/10 9/9/9 16/16/16
f 17/17/17 16/16/16 9/9/9
f 9/9/9 14/14/14 17/17/17
f 15/15/15 12/12/12 18/18/18
f 13/13/13 18/18/18 12/12/12
f 15/15/15 19/19/19 14/14/14
f 20/20/20 14/14/14 19/19/19
f 17/17/17 21/21/21 16/16/16
f 14/14/14 21/21/21 17/17/17
f 21/21/21 14/14/14 22/22/22
f 21/21/21 22/22/22 23/23/23
f 21/21/21 23/23/23 24/24/24
f 24/24/24 16/16/16 21/21/21
f 25/25/25 24/24/24 23/23/23
f 26/26/26 23/23/23 22/22/22
f 26/26/26 27/27/27 23/23/23
f 26/26/26 22/22/22 28/28/28
f 26/26/26 28/28/28 29/29/29
f 30/30/30 29/29/29 28/28/28
f 31/31/31 28/28/28 22/22/22
f 22/22/22 32/32/32 31/31/31
f 33/33/33 31/31/31 32/32/32
f 32/32/32 22/22/22 14/14/14
f 32/32/32 14/14/14 34/34/34
f 33/33/33 32/32/32 35/35/35
f 34/34/34 35/35/35 32/32/32
f 34/34/34 14/14/14 36/36/36
f 20/20/20 36/36/36 14/14/14
f 36/36/36 20/20/20 37/37/37
f 38/38/38 37/37/37 20/20/20
f 38/38/38 39/39/39 37/37/37
f 38/38/38 40/40/40 39/39/39
f 38/38/38 20/20/20 40/40/40
f 41/41/41 39/39/39 40/40/40
f 40/40/40 42/42/42 41/41/41
f 43/43/43 41/41/41 42/42/42
f 44/44/44 37/37/37 39/39/39
f 37/37/37 44/44/44 45/45/45
f 37/37/37 45/45/45 36/36/36
f 46/46/46 45/45/45 44/44/44
f 42/42/42 40/40/40 19/19/19
f 19/19/19 40/40/40 20/20/20
f 48/48/48 11/11/11 47/47/47
f 50/50/50 49/49/49 11/11/11
f 53/53/53 52/52/52 51/51/51
f 54/54/54 51/51/51 52/52/52
f 51/51/51 55/55/55 53/53/53
f 51/51/51 56/56/56 55/55/55
f 57/57/57 55/55/55 56/56/56
f 58/58/58 53/53/53 55/55/55
f 56/56/56 59/59/59 57/57/57
f 60/60/60 57/57/57 59/59/59
f 55/55/55 57/57/57 61/61/61
f 61/61/61 62/62/62 55/55/55
f 58/58/58 55/55/55 62/62/62
f 60/60/60 63/63/63 57/57/57
f 64/64/64 57/57/57 63/63/63
f 57/57/57 64/64/64 61/61/61
f 65/65/65 61/61/61 64/64/64
f 61/61/61 65/65/65 62/62/62
f 66/66/66 62/62/62 65/65/65
f 64/64/64 63/63/63 67/67/67
f 68/68/68 67/67/67 63/63/63
f 67/67/67 69/69/69 64/64/64
f 65/65/65 64/64/64 69/69/69
f 65/65/65 69/69/69 66/66/66
f 70/70/70 66/66/66 69/69/69
f 67/67/67 68/68/68 71/71/71
f 72/72/72 71/71/71 68/68/68
f 71/71/71 73/73/73 67/67/67
f 69/69/69 67/67/67 73/73/73
f 69/69/69 73/73/73 70/70/70
f 72/72/72 74/74/74 71/71/71
f 75/75/75 71/71/71 74/74/74
f 71/71/71 75/75/75 76/76/76
f 76/76/76 73/73/73 71/71/71
f 77/77/77 76/76/76 75/75/75
f 76/76/76 77/77/77 78/78/78
f 79/79/79 78/78/78 77/77/77
f 80/80/80 70/70/70 73/73/73
f 73/73/73 76/76/76 80/80/80
f 78/78/78 80/80/80 76/76/76
f 82/82/82 81/81/81 56/56/56
f 59/59/59 56/56/56 81/81/81
f 56/56/56 51/51/51 82/82/82
f 83/83/83 82/82/82 51/51/51
f 54/54/54 83/83/83 51/51/51
f 85/85/85 25/25/25 84/84/84
f 87/87/87 86/86/86 25/25/25
f 90/90/90 89/89/89 88/88/88
f 91/91/91 88/88/88 89/89/89
f 88/88/88 91/91/91 92/92/92
f 88/88/88 92/92/92 93/93/93
f 94/94/94 93/93/93 92/92/92
f 95/95/95 92/92/92 91/91/91
f 93/93/93 94/94/94 96/96/96
f 97/97/97 96/96/96 94/94/94
f 94/94/94 92/92/92 98/98/98
f 95/95/95 99/99/99 92/92/92
f 98/98/98 92/92/92 99/99/99
f 97/97/97 94/94/94 100/100/100
f 101/101/101 100/100/100 94/94/94
f 94/94/94 98/98/98 101/101/101
f 102/102/102 101/101/101 98/98/98
f 98/98/98 99/99/99 102/102/102
f 103/103/103 102/102/102 99/99/99
f 101/101/101 104/104/104 100/100/100
f 105/105/105 100/100/100 104/104/104
f 102/102/102 106/106/106 101/101/101
f 104/104/104 101/101/101 106/106/106
f 102/102/102 103/103/103 106/106/106
f 107/107/107 106/106/106 103/103/103
f 104/104/104 108/108/108 105/105/105
f 109/109/109 105/105/105 108/108/108
f 106/106/106 110/110/110 104/104/104
f 108/108/108 104/104/104 110/110/110
f 106/106/106 107/107/107 110/110/110
f 109/109/109 108/108/108 111/111/111
f 112/112/112 111/111/111 108/108/108
f 108/108/108 113/113/113 112/112/112
f 110/110/110 113/113/113 108/108/108
f 114/114/114 112/112/112 113/113/113
f 113/113/113 115/115/115 114/114/114
f 116/116/116 114/114/114 115/115/115
f 117/117/117 110/110/110 107/107/107
f 115/115/115 113/113/113 117/117/117
f 110/110/110 117/117/117 113/113/113
f 96/96/96 118/118/118 93/93/93
f 119/119/119 93/93/93 118/118/118
f 93/93/93 119/119/119 88/88/88
f 120/120/120 88/88/88 119/119/119
f 90/90/90 88/88/88 120/120/120
