g green_asn_m_pve_3_belt
v -0.0736961961 -0.0993592367 1.39448893
v -0.106494732 -0.0807057619 1.3754288
v -0.110139184 -0.0610212423 1.38296032
v -0.0679682493 -0.111813203 1.38819242
v -0.117146403 -0.0472023562 1.34918153
v -0.11460001 -0.0665418878 1.33868849
v -0.17451416 -0.000355669996 1.35297036
v -0.161512867 0.00484733982 1.35776162
v -0.173011526 0.063119866 1.36325431
v -0.187177747 0.063995868 1.35938799
v -0.15701434 0.12452659 1.3689636
v -0.168808743 0.130948678 1.36493909
v -0.114125669 0.17168051 1.37402987
v -0.119484156 0.185698807 1.36931717
v -0.055138696 0.193416819 1.37523448
v -0.0564268194 0.209271297 1.37050509
v -0 0.19783479 1.37261474
v -0 0.209569082 1.36911464
v -0.0645376444 0.20487383 1.26847732
v -0 0.212594807 1.25974739
v -0.0608497001 0.192618117 1.26289308
v -0 0.199613228 1.25345635
v -0.118051551 0.18877475 1.28603339
v -0.113192566 0.175514698 1.28113997
v -0.164907873 0.155189544 1.29830813
v -0.154850304 0.145574197 1.2931987
v -0.178937986 0.106692709 1.29360688
v -0.191703945 0.108418882 1.29979932
v -0.202273607 0.0534824505 1.28871608
v -0.189361528 0.00988642965 1.27200329
v -0.189444408 0.0564043596 1.28311968
v -0.178438246 0.0158422291 1.26684558
v -0.130767941 -0.0365667194 1.23394847
v -0.129345953 -0.0226419307 1.23090279
v -0.0607736669 -0.0487416796 1.19161081
v -0.0613194294 -0.0634702742 1.19537628
v -0 -0.0571270995 1.19141674
v -0 -0.0726160929 1.19523799
v -0 -0.104271226 1.28737593
v -0.0322201476 -0.120419413 1.3952204
v -0.0451352783 -0.121696495 1.40752244
v -0.0612030402 -0.118104152 1.42384803
v -0.047938481 -0.122736335 1.42583954
v -0.0408193581 -0.125048012 1.45110047
v -0.0384342 -0.113366172 1.41255128
v -0.042201817 -0.114151359 1.42620361
v -0.0408193581 -0.125048012 1.45110047
v -0.0375532284 -0.117378443 1.45250106
v -0.0676116943 -0.106113829 1.42559111
v -0.0506724976 -0.112030961 1.45061767
v -0.0408193581 -0.125048012 1.45110047
v -0.0257337186 -0.124258593 1.46999228
v -0.0291106291 -0.111240402 1.40321374
v -0 -0.120954476 1.39862442
v -0 -0.112400241 1.40594983
v 0.0291106291 -0.111240402 1.40321374
v 0.0322201476 -0.120419413 1.3952204
v 0.0451352783 -0.121696495 1.40752244
v 0.0679682493 -0.111813203 1.38819242
v 0.0612030402 -0.118104152 1.42384803
v 0.047938481 -0.122736335 1.42583954
v 0.0408193581 -0.125048012 1.45110047
v 0.0384342 -0.113366172 1.41255128
v 0.042201817 -0.114151359 1.42620361
v 0.0408193581 -0.125048012 1.45110047
v 0.0375532284 -0.117378443 1.45250106
v 0.0736961961 -0.0993592367 1.39448893
v 0.106494732 -0.0807057619 1.3754288
v 0.110139184 -0.0610212423 1.38296032
v 0.117146403 -0.0472023562 1.34918153
v 0.11460001 -0.0665418878 1.33868849
v 0.0676116943 -0.106113829 1.42559111
v 0.0506724976 -0.112030961 1.45061767
v 0.0408193581 -0.125048012 1.45110047
v 0.0257337186 -0.124258593 1.46999228
v 0.130767941 -0.0365667194 1.23394847
v 0.0613194294 -0.0634702742 1.19537628
v 0.0607736669 -0.0487416796 1.19161081
v 0.129345953 -0.0226419307 1.23090279
v -0 0.19783479 1.37261474
v 0.0564268194 0.209271297 1.37050509
v 0.055138696 0.193416819 1.37523448
v -0 0.209569082 1.36911464
v 0.0645376444 0.20487383 1.26847732
v -0 0.212594807 1.25974739
v 0.0608497001 0.192618117 1.26289308
v -0 0.199613228 1.25345635
v 0.119484156 0.185698807 1.36931717
v 0.114125669 0.17168051 1.37402987
v 0.118051551 0.18877475 1.28603339
v 0.113192566 0.175514698 1.28113997
v 0.164907873 0.155189544 1.29830813
v 0.168808743 0.130948678 1.36493909
v 0.154850304 0.145574197 1.2931987
v 0.15701434 0.12452659 1.3689636
v 0.178937986 0.106692709 1.29360688
v 0.191703945 0.108418882 1.29979932
v 0.187177747 0.063995868 1.35938799
v 0.173011526 0.063119866 1.36325431
v 0.17451416 -0.000355669996 1.35297036
v 0.161512867 0.00484733982 1.35776162
v 0.117146403 -0.0472023562 1.34918153
v 0.11460001 -0.0665418878 1.33868849
v 0.202273607 0.0534824505 1.28871608
v 0.189361528 0.00988642965 1.27200329
v 0.189444408 0.0564043596 1.28311968
v 0.178438246 0.0158422291 1.26684558
v 0.130767941 -0.0365667194 1.23394847
v 0.129345953 -0.0226419307 1.23090279
v -0.0408193581 -0.125048012 1.45110047
v -0.0257337186 -0.124258593 1.46999228
v 0.0408193581 -0.125048012 1.45110047
v 0.0257337186 -0.124258593 1.46999228
vt 0.66278702 0.62878561
vt 0.618486822 0.551889062
vt 0.591108263 0.573022366
vt 0.682932317 0.614949107
vt 0.57489723 0.471966863
vt 0.603127956 0.440025687
vt 0.476158857 0.426107526
vt 0.47554183 0.466576457
vt 0.385818899 0.458407044
vt 0.385879099 0.416806221
vt 0.290977627 0.461737037
vt 0.29004842 0.421954989
vt 0.196061552 0.485009551
vt 0.189509839 0.443371177
vt 0.102449447 0.50679028
vt 0.0977045074 0.461486816
vt 0.0217780471 0.508643508
vt 0.0195074752 0.472414732
vt 0.0985861942 0.168985009
vt 0.00682321284 0.157963037
vt 0.0984210968 0.129697442
vt 0.00952596962 0.116239429
vt 0.177793503 0.206323862
vt 0.181967959 0.164614916
vt 0.258185923 0.22985661
vt 0.25965181 0.188235521
vt 0.328364402 0.193156242
vt 0.332602173 0.233389378
vt 0.410470188 0.214217186
vt 0.474910915 0.189451814
vt 0.406553119 0.175146461
vt 0.474692702 0.152211785
vt 0.586344123 0.124423742
vt 0.575701833 0.0894607306
vt 0.690071404 0.00376236439
vt 0.69593811 0.0436242819
vt 0.781320214 0.00734770298
vt 0.781368375 0.0532251596
vt 0.781237066 0.330447555
vt 0.734824955 0.643459439
vt 0.71464628 0.678591251
vt 0.688658535 0.718980908
vt 0.707504511 0.731732488
vt 0.709543884 0.808102131
vt 0.727829397 0.698517323
vt 0.721975863 0.735159039
vt 0.709543884 0.808102131
vt 0.721194804 0.811494708
vt 0.669477046 0.720681548
vt 0.686634898 0.802421093
vt 0.709543884 0.808102131
vt 0.718495011 0.874971271
vt 0.741183758 0.677561522
vt 0.781431437 0.651738524
vt 0.781440854 0.683052063
vt 0.821708679 0.677533627
vt 0.828035295 0.643372536
vt 0.848265052 0.678503871
vt 0.87989831 0.614647031
vt 0.87434572 0.718585372
vt 0.855562687 0.731676221
vt 0.853628516 0.808024764
vt 0.835117221 0.698545933
vt 0.84111619 0.735256076
vt 0.853628516 0.808024764
vt 0.841924012 0.81216526
vt 0.900189519 0.628226638
vt 0.94446826 0.551512003
vt 0.972200394 0.571588516
vt 0.98810333 0.466375709
vt 0.958316326 0.440998435
vt 0.893519878 0.720031023
vt 0.87656635 0.801235318
vt 0.853628516 0.808024764
vt 0.846522272 0.875836492
vt 0.977170527 0.125094533
vt 0.86670357 0.0439640284
vt 0.872414768 0.00407373905
vt 0.985688925 0.0869703293
vt 0.587571263 0.991607904
vt 0.510869205 0.947942019
vt 0.506641328 0.993613005
vt 0.589423776 0.955151558
vt 0.506531775 0.654613018
vt 0.598443508 0.639150023
vt 0.506236374 0.615209222
vt 0.595243216 0.597442865
vt 0.41859144 0.934139609
vt 0.412518442 0.976209521
vt 0.427508265 0.695826888
vt 0.42282182 0.654203176
vt 0.347126812 0.723344445
vt 0.317501158 0.917379141
vt 0.345120311 0.681636453
vt 0.31716609 0.957333803
vt 0.276043534 0.689626932
vt 0.272389442 0.730177879
vt 0.221596554 0.917248964
vt 0.222293809 0.958992481
vt 0.131491855 0.932611942
vt 0.132862791 0.973188639
vt 0.0327884257 0.99181366
vt 0.00555443112 0.957396746
vt 0.193738744 0.715771198
vt 0.128376558 0.695566654
vt 0.197017148 0.67637825
vt 0.127982765 0.658524275
vt 0.0140810348 0.640109897
vt 0.0264494605 0.606295347
vt 0.709543884 0.808102131
vt 0.718495011 0.874971271
vt 0.853628516 0.808024764
vt 0.846522272 0.875836492
vn -0.764823556 -0.522420943 0.376989752
vn -0.788231134 -0.564752102 0.244431406
vn -0.901825905 -0.289650172 0.320644349
vn -0.540569127 -0.837754309 -0.0771545172
vn -0.667476237 -0.416864604 0.617008388
vn -0.683460951 -0.72984302 -0.0144979283
vn -0.681416094 -0.440276504 0.584661186
vn -0.249510959 -0.240355045 0.938069224
vn -0.268571973 -0.0845870152 0.959538519
vn -0.752932847 -0.0281404108 0.657495439
vn -0.284451634 0.0685985163 0.956232965
vn -0.690744162 0.340215266 0.638064265
vn -0.220226601 0.229300052 0.948114812
vn -0.445656031 0.680089831 0.582124174
vn -0.0548991263 0.281314909 0.958043873
vn -0.131985694 0.814187825 0.565400839
vn -0 0.286131322 0.958190501
vn -0 0.812155604 0.583440959
vn -0.287010431 0.780590057 -0.55525142
vn -0 0.843462706 -0.537187636
vn -0.273811787 0.334245741 -0.901835203
vn -0 0.436106205 -0.899895191
vn -0.49311161 0.700007021 -0.516557038
vn -0.380359739 0.200877368 -0.902759492
vn -0.701347947 0.547144949 -0.456884444
vn -0.32738331 0.161189795 -0.93104136
vn -0.391011059 0.229597449 -0.891288519
vn -0.86106962 0.339529246 -0.378522307
vn -0.921895564 0.0524453968 -0.383872449
vn -0.837780058 -0.292913377 -0.460788727
vn -0.435890973 0.234222412 -0.868987262
vn -0.49732244 0.142696857 -0.855749965
vn -0.625835896 -0.56813103 -0.534375012
vn -0.5929721 -0.113794141 -0.797141731
vn -0.314850271 -0.220686242 -0.923128903
vn -0.343581975 -0.649684012 -0.678131402
vn -0 -0.240526736 -0.970642507
vn -0 -0.697708845 -0.716381431
vn -0 -0.968099594 -0.250565827
vn 0.0287752356 -0.987650931 0.154005423
vn 0.14864631 -0.988803208 0.0131310094
vn -0.649504483 -0.749735832 0.12664938
vn 0.230793819 -0.970839322 -0.0648483783
vn 0.0998099968 -0.98417294 0.146429509
vn 0.685711384 -0.677159965 0.266934931
vn 0.84265697 -0.537781477 -0.0268378481
vn 0.0998099968 -0.98417294 0.146429509
vn 0.857746124 -0.287444115 -0.426201046
vn -0.847691536 -0.484489858 0.216075599
vn -0.727249742 -0.518012643 0.450300723
vn 0.0998099968 -0.98417294 0.146429509
vn -0.12380743 -0.982393026 0.139913335
vn 0.241416812 -0.699528217 0.672590673
vn -0 -0.926168561 0.377109826
vn -0 -0.650445521 0.759553015
vn -0.241416812 -0.699528217 0.672590673
vn -0.0287752356 -0.987650931 0.154005423
vn -0.14864631 -0.988803208 0.0131310094
vn 0.540569127 -0.837754309 -0.0771545172
vn 0.649504483 -0.749735832 0.12664938
vn -0.230793819 -0.970839322 -0.0648483709
vn -0.0998099893 -0.98417294 0.146429494
vn -0.685711384 -0.677159965 0.266934931
vn -0.84265697 -0.537781477 -0.0268378481
vn -0.0998099893 -0.98417294 0.146429494
vn -0.857746124 -0.287444115 -0.426201046
vn 0.764823496 -0.522420943 0.376989812
vn 0.788231134 -0.564752102 0.244431406
vn 0.901825905 -0.289650172 0.320644349
vn 0.667476237 -0.416864544 0.617008388
vn 0.68346101 -0.72984302 -0.0144979255
vn 0.847691536 -0.484489858 0.216075599
vn 0.727249742 -0.518012643 0.450300723
vn -0.0998099893 -0.98417294 0.146429494
vn 0.12380743 -0.982393026 0.139913335
vn 0.625835896 -0.56813103 -0.534375012
vn 0.343581975 -0.649684012 -0.678131402
vn 0.314850241 -0.220686242 -0.923128903
vn 0.5929721 -0.113794141 -0.797141731
vn -0 0.286131322 0.958190501
vn 0.131985694 0.814187825 0.565400839
vn 0.0548991375 0.281314909 0.958043873
vn -0 0.812155604 0.583440959
vn 0.287010461 0.780590057 -0.55525142
vn -0 0.843462706 -0.537187636
vn 0.273811787 0.334245741 -0.901835203
vn -0 0.436106205 -0.899895191
vn 0.445656061 0.680089831 0.582124174
vn 0.220226571 0.229300022 0.948114812
vn 0.49311161 0.700007021 -0.516557038
vn 0.380359739 0.200877368 -0.902759492
vn 0.701347947 0.547144949 -0.456884503
vn 0.690744162 0.340215266 0.638064265
vn 0.32738331 0.161189795 -0.93104136
vn 0.284451634 0.0685985014 0.956232965
vn 0.391011059 0.229597449 -0.891288519
vn 0.86106962 0.339529246 -0.378522307
vn 0.752932847 -0.0281404052 0.657495379
vn 0.268571973 -0.0845870301 0.959538519
vn 0.681416154 -0.440276504 0.584661186
vn 0.249510959 -0.240355045 0.938069224
vn 0.667476237 -0.416864544 0.617008388
vn 0.68346101 -0.72984302 -0.0144979255
vn 0.921895564 0.0524453968 -0.383872449
vn 0.837780058 -0.292913347 -0.460788727
vn 0.435890973 0.234222427 -0.868987262
vn 0.49732244 0.142696857 -0.855749965
vn 0.625835896 -0.56813103 -0.534375012
vn 0.5929721 -0.113794141 -0.797141731
vn 0.0998099968 -0.98417294 0.146429509
vn -0.12380743 -0.982393026 0.139913335
vn -0.0998099893 -0.98417294 0.146429494
vn 0.12380743 -0.982393026 0.139913335
g green_asn_m_pve_3_belt_0
f 3/3/3 2/2/2 1/1/1
f 4/4/4 1/1/1 2/2/2
f 3/3/3 5/5/5 2/2/2
f 6/6/6 2/2/2 5/5/5
f 2/2/2 6/6/6 4/4/4
f 6/6/6 5/5/5 7/7/7
f 8/8/8 7/7/7 5/5/5
f 8/8/8 9/9/9 7/7/7
f 10/10/10 7/7/7 9/9/9
f 9/9/9 11/11/11 10/10/10
f 12/12/12 10/10/10 11/11/11
f 11/11/11 13/13/13 12/12/12
f 14/14/14 12/12/12 13/13/13
f 13/13/13 15/15/15 14/14/14
f 16/16/16 14/14/14 15/15/15
f 15/15/15 17/17/17 16/16/16
f 18/18/18 16/16/16 17/17/17
f 16/16/16 18/18/18 19/19/19
f 20/20/20 19/19/19 18/18/18
f 19/19/19 20/20/20 21/21/21
f 22/22/22 21/21/21 20/20/20
f 19/19/19 23/23/23 16/16/16
f 14/14/14 16/16/16 23/23/23
f 21/21/21 24/24/24 19/19/19
f 23/23/23 19/19/19 24/24/24
f 23/23/23 25/25/25 14/14/14
f 12/12/12 14/14/14 25/25/25
f 24/24/24 26/26/26 23/23/23
f 25/25/25 23/23/23 26/26/26
f 26/26/26 27/27/27 25/25/25
f 28/28/28 25/25/25 27/27/27
f 25/25/25 28/28/28 12/12/12
f 12/12/12 28/28/28 10/10/10
f 28/28/28 29/29/29 10/10/10
f 10/10/10 29/29/29 7/7/7
f 30/30/30 7/7/7 29/29/29
f 27/27/27 31/31/31 28/28/28
f 29/29/29 28/28/28 31/31/31
f 29/29/29 31/31/31 30/30/30
f 32/32/32 30/30/30 31/31/31
f 30/30/30 32/32/32 33/33/33
f 34/34/34 33/33/33 32/32/32
f 34/34/34 35/35/35 33/33/33
f 36/36/36 33/33/33 35/35/35
f 35/35/35 37/37/37 36/36/36
f 38/38/38 36/36/36 37/37/37
f 7/7/7 30/30/30 6/6/6
f 33/33/33 6/6/6 30/30/30
f 38/38/38 39/39/39 36/36/36
f 33/33/33 36/36/36 39/39/39
f 33/33/33 39/39/39 6/6/6
f 39/39/39 4/4/4 6/6/6
f 39/39/39 40/40/40 4/4/4
f 4/4/4 40/40/40 41/41/41
f 42/42/42 4/4/4 41/41/41
f 42/42/42 41/41/41 43/43/43
f 42/42/42 43/43/43 44/44/44
f 41/41/41 45/45/45 43/43/43
f 46/46/46 43/43/43 45/45/45
f 43/43/43 46/46/46 47/47/47
f 48/48/48 47/47/47 46/46/46
f 4/4/4 42/42/42 1/1/1
f 49/49/49 1/1/1 42/42/42
f 49/49/49 42/42/42 50/50/50
f 51/51/51 50/50/50 42/42/42
f 50/50/50 51/51/51 52/52/52
f 45/45/45 41/41/41 53/53/53
f 40/40/40 53/53/53 41/41/41
f 40/40/40 54/54/54 53/53/53
f 55/55/55 53/53/53 54/54/54
f 55/55/55 54/54/54 56/56/56
f 57/57/57 56/56/56 54/54/54
f 57/57/57 58/58/58 56/56/56
f 57/57/57 59/59/59 58/58/58
f 59/59/59 60/60/60 58/58/58
f 58/58/58 60/60/60 61/61/61
f 61/61/61 60/60/60 62/62/62
f 58/58/58 61/61/61 63/63/63
f 63/63/63 56/56/56 58/58/58
f 64/64/64 63/63/63 61/61/61
f 61/61/61 65/65/65 64/64/64
f 66/66/66 64/64/64 65/65/65
f 59/59/59 67/67/67 60/60/60
f 59/59/59 68/68/68 67/67/67
f 69/69/69 67/67/67 68/68/68
f 69/69/69 68/68/68 70/70/70
f 71/71/71 70/70/70 68/68/68
f 68/68/68 59/59/59 71/71/71
f 72/72/72 60/60/60 67/67/67
f 72/72/72 73/73/73 60/60/60
f 74/74/74 60/60/60 73/73/73
f 74/74/74 73/73/73 75/75/75
f 39/39/39 71/71/71 59/59/59
f 39/39/39 76/76/76 71/71/71
f 76/76/76 39/39/39 77/77/77
f 77/77/77 78/78/78 76/76/76
f 78/78/78 77/77/77 37/37/37
f 38/38/38 37/37/37 77/77/77
f 38/38/38 77/77/77 39/39/39
f 79/79/79 76/76/76 78/78/78
f 57/57/57 39/39/39 59/59/59
f 57/57/57 54/54/54 39/39/39
f 54/54/54 40/40/40 39/39/39
f 82/82/82 81/81/81 80/80/80
f 83/83/83 80/80/80 81/81/81
f 81/81/81 84/84/84 83/83/83
f 85/85/85 83/83/83 84/84/84
f 84/84/84 86/86/86 85/85/85
f 87/87/87 85/85/85 86/86/86
f 81/81/81 82/82/82 88/88/88
f 89/89/89 88/88/88 82/82/82
f 88/88/88 90/90/90 81/81/81
f 84/84/84 81/81/81 90/90/90
f 90/90/90 91/91/91 84/84/84
f 86/86/86 84/84/84 91/91/91
f 90/90/90 88/88/88 92/92/92
f 93/93/93 92/92/92 88/88/88
f 88/88/88 89/89/89 93/93/93
f 92/92/92 94/94/94 90/90/90
f 91/91/91 90/90/90 94/94/94
f 95/95/95 93/93/93 89/89/89
f 94/94/94 92/92/92 96/96/96
f 97/97/97 96/96/96 92/92/92
f 97/97/97 92/92/92 93/93/93
f 97/97/97 93/93/93 98/98/98
f 93/93/93 95/95/95 98/98/98
f 99/99/99 98/98/98 95/95/95
f 98/98/98 99/99/99 100/100/100
f 101/101/101 100/100/100 99/99/99
f 101/101/101 102/102/102 100/100/100
f 103/103/103 100/100/100 102/102/102
f 98/98/98 100/100/100 104/104/104
f 104/104/104 97/97/97 98/98/98
f 105/105/105 104/104/104 100/100/100
f 100/100/100 103/103/103 105/105/105
f 104/104/104 106/106/106 97/97/97
f 96/96/96 97/97/97 106/106/106
f 104/104/104 105/105/105 106/106/106
f 107/107/107 106/106/106 105/105/105
f 105/105/105 108/108/108 107/107/107
f 108/108/108 105/105/105 103/103/103
f 109/109/109 107/107/107 108/108/108
f 111/111/111 110/110/110 48/48/48
f 113/113/113 66/66/66 112/112/112
