g Green_war_m_pve_3_pelvis
v -0.0959383771 -0.0703472123 1.13421869
v -0 -0.0644865036 1.18009758
v -0 -0.09386044 1.10822022
v -0.0475405678 -0.054973226 1.18859076
v -0.0950802192 -0.0454017073 1.19713593
v -0.0968262479 -0.0953031257 1.06367278
v -0 -0.10818857 1.02870858
v -0.0983884409 -0.122156925 0.920395434
v -0 -0.133855119 0.86748749
v -0.0995915756 -0.13562426 0.781913459
v -0 -0.147773042 0.711047411
v -0.100494176 -0.130125925 0.643356919
v -0 -0.142725214 0.554518163
v -0.0484280176 -0.0422980003 1.18953204
v -0.0999001041 -0.0254719984 1.2003119
v -0.0999001041 -0.0254719984 1.2003119
v -0.0976525471 -0.0914192945 0.918196976
v -0.0953352302 -0.0650518462 1.05950022
v -0.0953352302 -0.0650518462 1.05950022
v -0.0867538601 -0.0448215418 1.12465668
v -0.0982718617 -0.104788527 0.78111577
v -0.0976525471 -0.0914192945 0.918196976
v -0.0981953219 -0.0993939415 0.643896878
v 0.0995915756 -0.13562426 0.781913459
v 0.0983884409 -0.122156925 0.920395434
v 0.100494176 -0.130125925 0.643356919
v 0.0976525471 -0.0914192945 0.918196976
v 0.0953352302 -0.0650518462 1.05950022
v 0.0982718617 -0.104788527 0.78111577
v 0.0976525471 -0.0914192945 0.918196976
v 0.0981953219 -0.0993939415 0.643896878
v 0.0968262479 -0.0953031257 1.06367278
v 0.0959383771 -0.0703472123 1.13421869
v 0.0475405678 -0.054973226 1.18859076
v 0.0950802192 -0.0454017073 1.19713593
v 0.0484280176 -0.0422980003 1.18953204
v 0.0999001041 -0.0254719984 1.2003119
v 0.0999001041 -0.0254719984 1.2003119
v -0 -0.0433089994 1.1851629
v 0.0953352302 -0.0650518462 1.05950022
v 0.0867538601 -0.0448215418 1.12465668
v 0.0959383771 -0.0703472123 1.13421869
v 0.0999001041 -0.0254719984 1.2003119
v -0.0999001041 -0.0254719984 1.2003119
v -0.0959383771 -0.0703472123 1.13421869
v -0.0867538601 -0.0448215418 1.12465668
v -0.204779029 0.17102024 1.12057686
v -0.171234027 0.0880759954 1.24054599
v -0.232309073 0.0880213752 1.10726631
v -0.147888869 0.146507978 1.24700403
v -0.249758646 0.186562121 0.982681155
v -0.170089513 0.27940625 0.982047319
v -0.133261159 0.220932379 1.16284466
v -0.292698622 0.109178953 0.969494939
v -0.285887778 0.206752032 0.848939061
v -0.335328013 0.115561768 0.836018801
v -0.101598039 0.176590994 1.24812102
v -0.162200078 0.0424199961 1.229635
v -0.137801901 0.00557400193 1.21506202
v -0.202556506 -0.00279430859 1.09217095
v -0.250088334 -0.00700429408 0.954372585
v -0.108749136 0.295243531 1.00548804
v -0.106030792 0.30319339 0.899024785
v -0.173342869 0.303452075 0.854846776
v -0.258793265 0.26051873 0.716344535
v -0.28553915 0.235131055 0.715804815
v -0.0996553227 0.235958144 1.15685976
v -0.085313119 0.217799962 1.19713593
v -0.170273811 -0.0670837238 0.931899548
v -0.124609716 -0.0567123629 1.07176495
v -0.0409595296 -0.0712246448 0.921208024
v -0 -0.0619150139 1.05562341
v -0 -0.0618368909 1.05661392
v -0.0999001116 -0.0254719965 1.2003119
v -0.247184232 -0.0504824966 0.81252867
v -0.195574164 -0.0901273862 0.804688156
v -0.212054625 -0.0967883468 0.674544573
v -0.120437942 0.337867588 0.712626636
v -0.0643661469 -0.110754944 0.793212175
v -0.129970163 -0.100441165 0.798950195
v -0.123639666 -0.120949492 0.671606183
v -0.107656151 -0.113356374 0.665616393
v -0.10804119 -0.0879150927 0.664560318
v -0.0640518442 -0.0852972791 0.791786194
v -0.10804119 -0.0879150927 0.664560318
v -0.0398451015 -0.0458432138 0.919041932
v -0 -0.036422085 1.05340922
v -0.275798768 -0.0793574378 0.63294816
v -0.262941509 -0.0582780205 0.629629135
v -0.207985133 -0.0838216543 0.671842396
v -0.194406062 -0.109911174 0.666770935
v -0.207985133 -0.0838216543 0.671842396
v -0.158654377 -0.12412481 0.629703701
v -0.155463889 -0.0691452175 0.627824605
v -0.155463889 -0.0691452175 0.627824605
v -0 -0.0619150139 1.05562341
v -0.262941509 -0.0582780205 0.629629135
v -0.302121371 -0.0296729598 0.678328097
v -0.297984958 0.00345946779 0.687590957
v -0.298794299 -0.0108376024 0.820369244
v -0.317061156 0.0523620881 0.828194022
v -0.315782905 -0.00992818829 0.691526949
v -0.302121371 -0.0296729598 0.678328097
v -0.325750113 0.00995718967 0.687843144
v -0.297984958 0.00345946779 0.687590957
v -0.356283218 0.0609839708 0.656121731
v -0.342377156 0.111521013 0.704171896
v -0.33103472 0.0670802444 0.651738346
v -0.321041703 0.114663102 0.699341178
v -0.338460147 0.152093574 0.702192128
v -0.297984958 0.00345946779 0.687590957
v -0.33103472 0.0670802444 0.651738346
v -0.328477085 0.207234338 0.66751039
v -0.314528883 0.144019499 0.697399557
v -0.321041703 0.114663102 0.699341178
v -0.305572689 0.192697719 0.662737012
v -0.267613083 0.220683366 0.71105057
v -0.241470143 0.244377077 0.712151468
v -0.305572689 0.192697719 0.662737012
v -0.241470143 0.244377077 0.712151468
v -0.258793265 0.26051873 0.716344535
v -0.241470143 0.244377077 0.712151468
v -0.224300861 0.303671271 0.685064197
v -0.224300861 0.303671271 0.685064197
v -0.214532271 0.283540577 0.681373477
v -0.214532271 0.283540577 0.681373477
v -0.18432121 0.307871878 0.727173269
v -0.174885482 0.286846668 0.723984838
v -0.120938741 0.313590705 0.709730923
v -0.120437942 0.337867588 0.712626636
v -0.120437942 0.337867588 0.712626636
v -0.269144744 0.00419071177 0.815549195
v -0.207985133 -0.0838216543 0.671842396
v -0.168706521 -0.0424026437 0.833012342
v -0.262941509 -0.0582780205 0.629629135
v -0.297984958 0.00345946779 0.687590957
v -0.33103472 0.0670802444 0.651738346
v -0.297984958 0.00345946779 0.687590957
v -0.321041703 0.114663102 0.699341178
v -0.294545174 0.0922314972 0.830257416
v -0.314528883 0.144019499 0.697399557
v -0.267644048 0.186066791 0.843457699
v -0.267613083 0.220683366 0.71105057
v -0.241470143 0.244377077 0.712151468
v -0.151474744 0.259512484 0.851043046
v -0.305572689 0.192697719 0.662737012
v -0.174885482 0.286846668 0.723984838
v -0.120938741 0.313590705 0.709730923
v -0.106030606 0.278684527 0.896238029
v -0.214532271 0.283540577 0.681373477
v -0.0932610035 -0.025847001 0.947185934
v -0 -0.036422085 1.05340922
v -1.86264511E-11 -0.0364237316 1.05390489
v -0 -0.036422085 1.05340922
v -0.0398451015 -0.0458432138 0.919041932
v -0.0640518442 -0.0852972791 0.791786194
v -0.10804119 -0.0879150927 0.664560318
v -0.155463889 -0.0691452175 0.627824605
v -0.207985133 -0.0838216543 0.671842396
v -0.106030606 0.278684527 0.896238029
v -0.131041318 0.245565936 0.977890849
v -0.108768068 0.270722657 1.00283241
v -0.151474744 0.259512484 0.851043046
v -0.118507996 0.213068977 1.03997099
v -0.101108722 0.227293357 1.0909524
v -0.0797279924 0.234430999 1.08798504
v -0.0996553227 0.235958144 1.15685976
v -0.0834436491 0.231457636 1.13009858
v -0.0858658403 0.220097065 1.16881907
v -0.085313119 0.217799962 1.19713593
v -0.0777379945 0.226475999 1.04604602
v -0 0.196520641 1.05679119
v -0 0.208652452 1.09495199
v -0.119869001 0.193027988 0.994504988
v -0.0723240003 0.192378491 1.00410843
v -0 0.196696371 1.05687439
v -0.0881119967 0.182631999 0.906444073
v -0.0459212251 0.140581936 0.889909983
v -0.0188304987 0.130103484 1.00406682
v -0.0235479996 0.0862849951 0.912752986
v -0.0316420011 0.093937993 0.865615964
v -0.067878142 0.145563886 0.79777801
v -0.0521692373 0.0914405584 0.788649201
v -0.0154484995 0.0648344979 0.986520648
v -0.109733 0.182693005 0.815291047
v -0.16622299 0.183162987 0.831458032
v -0.140460998 0.187724963 0.924629033
v -0.144215196 0.189882249 0.694456935
v -0.206313893 0.181872979 0.653726935
v -0.219323903 0.148764402 0.772520065
v -0.236421466 0.145009503 0.679434955
v -0.201813087 0.165711001 0.594016016
v -0.168416798 0.185525641 0.659105062
v -0.166897029 0.171466008 0.586492956
v -0.132898465 0.170405716 0.665662766
v -0.124904327 0.162925109 0.584279001
v -0.0937550142 0.127500072 0.633143604
v -0.109559745 0.133299157 0.572237909
v -0.206313893 0.181872979 0.653726935
v -0.0881789923 0.149652973 0.725899935
v -0.0594654307 0.111695841 0.721896589
v -0.0937550142 0.127500072 0.633143604
v -0.250769526 0.116219193 0.698621631
v -0.250485271 0.116836734 0.657345712
v -0.256889105 0.113389887 0.607227445
v -0.227214023 0.146708995 0.59799701
v -0.252570957 0.0616565272 0.699106991
v -0.251361609 0.0654142871 0.6397053
v -0.228374779 0.00512584671 0.626646399
v -0.228589281 0.00742033962 0.685198605
v -0.225201368 0.00914913602 0.733714879
v -0.253263831 0.0617965199 0.751500607
v -0.169737846 -0.00689114071 0.61855787
v -0.176232621 -0.014207229 0.671074331
v -0.164274782 -0.0246851873 0.717193961
v -0.126682043 0.0148428343 0.613542557
v -0.114255235 0.00307397847 0.653561592
v -0.0935473219 -0.00744777173 0.69351989
v -0.0921059996 -0.0213340037 0.763701081
v -0.0958079994 -0.0267709959 0.830897987
v -0.168706521 -0.0424026437 0.833012342
v -0.0932610035 -0.025847001 0.947185934
v -0.0595849976 0.0153709976 0.830149949
v -0.0676289946 0.0262560006 0.753082037
v -0.0521692373 0.0914405584 0.788649201
v -0.0594654307 0.111695841 0.721896589
v -0.0647545829 0.0432829931 0.691401064
v -0.0903367102 0.0610952899 0.627318382
v -0.156687364 0.0542116538 0.573667049
v -0.183105022 0.0316150002 0.576600015
v -0.123334311 0.0805570781 0.5672791
v -0.109559745 0.133299157 0.572237909
v -0.0297299996 0.0298319999 0.871079087
v -0.0513489991 -0.0120819993 0.934101999
v -0.0251049995 0.0153249977 0.92811203
v -0.0235479996 0.0862849951 0.912752986
v -0.0316420011 0.093937993 0.865615964
v -0.0170070007 -0.0050720023 1.01234925
v -0 -0.0359286815 1.0535332
v -0 -0.036422085 1.05340922
v -0.0154484995 0.0648344979 0.986520648
v -0.207828015 0.0343259983 0.582180977
v -0.249994844 0.0642696172 0.592766881
v -0.237655982 0.0702929944 0.592724979
v -0.239817113 0.116187997 0.597847998
v -1.86264511E-11 -0.0364237316 1.05390489
v -0 -0.036422085 1.05340922
v 0.0513489991 -0.0120819993 0.934101999
v -0 -0.0359286815 1.0535332
v 0.0170070007 -0.0050720023 1.01234925
v 0.0251049995 0.0153249977 0.92811203
v 0.0297299996 0.0298319999 0.871079087
v 0.0235479996 0.0862849951 0.912752986
v 0.0316420011 0.093937993 0.865615964
v 0.0595849976 0.0153709976 0.830149949
v 0.0154484995 0.0648344979 0.986520648
v 0.0521692373 0.0914405584 0.788649201
v 0.0676289946 0.0262560006 0.753082037
v 0.0921059996 -0.0213340037 0.763701081
v 0.0958079994 -0.0267709959 0.830897987
v 0.164274782 -0.0246851873 0.717193961
v 0.0935473219 -0.00744777173 0.69351989
v 0.168706521 -0.0424026437 0.833012342
v 0.0932610035 -0.025847001 0.947185934
v 0.0594654307 0.111695841 0.721896589
v 0.176232621 -0.014207229 0.671074331
v 0.228589281 0.00742033962 0.685198605
v 0.169737846 -0.00689114071 0.61855787
v 0.228374779 0.00512584671 0.626646399
v 0.252570957 0.0616565272 0.699106991
v 0.251361609 0.0654142871 0.6397053
v 0.250485271 0.116836734 0.657345712
v 0.250769526 0.116219193 0.698621631
v 0.236421466 0.145009503 0.679434955
v 0.256889105 0.113389887 0.607227445
v 0.227214023 0.146708995 0.59799701
v 0.225201368 0.00914913602 0.733714879
v 0.253263831 0.0617965199 0.751500607
v 0.126682043 0.0148428343 0.613542557
v 0.114255235 0.00307397847 0.653561592
v 0.0647545829 0.0432829931 0.691401064
v 0.0903367102 0.0610952899 0.627318382
v 0.249994844 0.0642696172 0.592766881
v 0.123334311 0.0805570781 0.5672791
v 0.156687364 0.0542116538 0.573667049
v 0.183105022 0.0316150002 0.576600015
v 0.109559745 0.133299157 0.572237909
v 0.207828015 0.0343259983 0.582180977
v 0.237655982 0.0702929944 0.592724979
v 0.239817113 0.116187997 0.597847998
v 0.0594654307 0.111695841 0.721896589
v 0.0937550142 0.127500072 0.633143604
v 0.109559745 0.133299157 0.572237909
v 0.12508297 0.125741988 0.572185993
v 0.201813087 0.165711001 0.594016016
v 0.206313893 0.181872979 0.653726935
v 0.219323903 0.148764402 0.772520065
v 0.16622299 0.183162987 0.831458032
v 0.168416798 0.185525641 0.659105062
v 0.166897029 0.171466008 0.586492956
v 0.132898465 0.170405716 0.665662766
v 0.124904327 0.162925109 0.584279001
v 0.0937550142 0.127500072 0.633143604
v 0.109559745 0.133299157 0.572237909
v 0.206313893 0.181872979 0.653726935
v 0.144215196 0.189882249 0.694456935
v 0.0881789923 0.149652973 0.725899935
v 0.0594654307 0.111695841 0.721896589
v 0.0937550142 0.127500072 0.633143604
v 0.242485419 0.120364167 0.779456377
v 0.067878142 0.145563886 0.79777801
v 0.0521692373 0.0914405584 0.788649201
v 0.0594654307 0.111695841 0.721896589
v 0.109733 0.182693005 0.815291047
v 0.0459212251 0.140581936 0.889909983
v 0.0316420011 0.093937993 0.865615964
v 0.0521692373 0.0914405584 0.788649201
v 0.0235479996 0.0862849951 0.912752986
v 0.0188304987 0.130103484 1.00406682
v 0.0154484995 0.0648344979 0.986520648
v 0.0723240003 0.192378491 1.00410843
v 0.0881119967 0.182631999 0.906444073
v 0.140460998 0.187724963 0.924629033
v 0.119869001 0.193027988 0.994504988
v 0.0777379945 0.226475999 1.04604602
v -0 0.196696371 1.05687439
v 0.118507996 0.213068977 1.03997099
v 0.0797279924 0.234430999 1.08798504
v -0 0.196520641 1.05679119
v 0.0916739032 0.227427632 1.0909524
v 0.0996553227 0.235958144 1.15685976
v 0.0834436491 0.231457636 1.13009858
v 0.0858658403 0.220097065 1.16881907
v 0.085313119 0.217799962 1.19713593
v 0.131041318 0.245565936 0.977890849
v 0.101084046 0.270302743 1.00283241
v 0.106030606 0.278684527 0.896238029
v 0.151474744 0.259512484 0.851043046
v 0.0916739032 0.227427632 1.0909524
v -0 0.211078092 1.1320734
v -0 0.20762296 1.17028272
v -0 0.211078092 1.1320734
v -0 0.20762296 1.17028272
v 0.151474744 0.259512484 0.851043046
v 0.267644048 0.186066791 0.843457699
v 0.151474744 0.259512484 0.851043046
v 0.294545174 0.0922314972 0.830257416
v 0.269144744 0.00419071177 0.815549195
v -0.106030606 0.278684527 0.896238029
v -0.108768068 0.270722657 1.00283241
v -0.120938741 0.313590705 0.709730923
v -0.101108722 0.227293357 1.0909524
v -0.155463889 -0.0691452175 0.627824605
v -0.10804119 -0.0879150927 0.664560318
v -0.0625249818 0.184640989 1.24622011
v -0.0325928628 0.18814899 1.24490297
v -0 0.185701996 1.24490297
v -0 0.204166383 1.24989557
v -0.0777379945 0.226475999 1.04604602
v -0 0.196520641 1.05679119
v -0.0159532595 0.168962985 1.02639663
v -0 0.16245845 1.03258789
v -0 0.130103484 1.00406682
v -0.0154484995 0.0648344979 0.986520648
v -0 0.0648344979 0.986520648
v -0 0.196520641 1.05679119
v -0.0521692373 0.0914405584 0.788649201
v -0.0594654307 0.111695841 0.721896589
v -0 -0.0359286815 1.0535332
v -0 -0.00507199811 1.01234925
v -0 0.0648344979 0.986520648
v -0.0154484995 0.0648344979 0.986520648
v -0.0594654307 0.111695841 0.721896589
v -0.0937550142 0.127500072 0.633143604
v -0.109559745 0.133299157 0.572237909
v -0.12508297 0.125741988 0.572185993
v -0.242485419 0.120364167 0.779456377
v -0.267644048 0.186066791 0.843457699
v -0.151474744 0.259512484 0.851043046
v -0.294545174 0.0922314972 0.830257416
v -0.269144744 0.00419071177 0.815549195
v -0.151474744 0.259512484 0.851043046
v -0 0.196696371 1.05687439
v -0.0159532595 0.168962985 1.02639663
v -0 0.196520641 1.05679119
v -0 -0.0573099889 1.09940243
v -0.0867537931 -0.0448215418 1.12465668
v -0.12508297 0.125741988 0.572185993
v -0.109559745 0.133299157 0.572237909
v -0.140005037 0.157739013 0.578871012
v -0.0883012116 0.270943254 1.13673329
v -0 0.300188988 1.10833442
v -0.0845885128 0.239192113 1.19345593
v -0.0916409642 0.295505673 1.06367278
v -0 0.326433241 1.02871454
v -0.0984322652 0.322359502 0.920395494
v -0 0.345920563 0.86748749
v -0.105053633 0.335826814 0.781913459
v -0 0.359842569 0.711036801
v -0.111757487 0.330328554 0.643356919
v -0 0.342931211 0.554492295
v -0.085865818 0.220097065 1.16881907
v -0.0858004466 0.243477866 1.130391
v -0.0977302119 0.293390036 0.918196917
v -0.0902722627 0.26702258 1.05950022
v -0.0902722627 0.26702258 1.05950022
v -0.0858004466 0.243477866 1.130391
v -0.103588931 0.306759298 0.78111583
v -0.0977302119 0.293390036 0.918196917
v 0.105053633 0.335826814 0.781913459
v 0.0984322652 0.322359502 0.920395494
v 0.0916409642 0.295505673 1.06367278
v 0.0883012116 0.270943254 1.13673329
v 0.0845885128 0.239192113 1.19345593
v 0.085865818 0.220097065 1.16881907
v 0.0858004466 0.243477866 1.130391
v 0.0977302119 0.293390036 0.918196917
v 0.0902722627 0.26702258 1.05950022
v 0.0902722627 0.26702258 1.05950022
v 0.0858004466 0.243477866 1.130391
v 0.085313119 0.217799962 1.19713593
v -0 0.204166383 1.24989557
v -0.085313119 0.217799962 1.19713593
v 0.085313119 0.217799962 1.19713593
v -0.085313119 0.217799962 1.19713593
v -0.085865818 0.220097065 1.16881907
v -0.103588931 0.306759298 0.78111583
v -0.10891901 0.30136475 0.643896878
v -0 0.313791931 0.554995656
v -0.10891901 0.30136475 0.643896878
v -0 0.342931211 0.554492295
v -0.0982718617 -0.104788527 0.78111577
v -0 -0.103042692 0.865711033
v -0.0976525471 -0.0914192945 0.918196976
v -0 -0.1168577 0.71101737
v -0 -0.0775114298 1.02601397
v -0.0976525471 -0.0914192945 0.918196976
v -0.0953352302 -0.0650518462 1.05950022
v -0 -0.0573099889 1.09940243
v -0.0953352302 -0.0650518462 1.05950022
v -0.0867538601 -0.0448215418 1.12465668
v -0.0981953219 -0.0993939415 0.643896878
v -0.0982718617 -0.104788527 0.78111577
v -0 -0.11181774 0.555021584
v -0 -0.11181774 0.555021584
v -0.0981953219 -0.0993939415 0.643896878
v -0 -0.142725214 0.554518163
v -0 0.20762296 1.17028272
v -0.0858004466 0.243477866 1.130391
v -0.085865818 0.220097065 1.16881907
v -0 0.265699774 1.10337365
v -0.0902722627 0.26702258 1.05950022
v -0.0858004466 0.243477866 1.130391
v -0.0902722627 0.26702258 1.05950022
v -0 0.279479831 1.02601969
v -0.0977302119 0.293390036 0.918196917
v -0 0.305013239 0.865710974
v -0.103588931 0.306759298 0.78111583
v -0 0.318830013 0.711006761
v -0.10891901 0.30136475 0.643896878
v -0 0.313791931 0.554995656
v 0.0867538601 -0.0448215418 1.12465668
v 0.0953352302 -0.0650518462 1.05950022
v 0.204779029 0.17102024 1.12057686
v 0.171234027 0.0880759954 1.24054599
v 0.147888869 0.146507978 1.24700403
v 0.232309073 0.0880213752 1.10726631
v 0.249758646 0.186562121 0.982681155
v 0.170089513 0.27940625 0.982047319
v 0.133261159 0.220932379 1.16284466
v 0.292698622 0.109178953 0.969494939
v 0.285887778 0.206752032 0.848939061
v 0.335328013 0.115561768 0.836018801
v 0.101598039 0.176590994 1.24812102
v 0.162200078 0.0424199961 1.229635
v 0.137801901 0.00557400193 1.21506202
v 0.202556506 -0.00279430859 1.09217095
v 0.250088334 -0.00700429408 0.954372585
v 0.108749136 0.295243531 1.00548804
v 0.106030792 0.30319339 0.899024785
v 0.173342869 0.303452075 0.854846776
v 0.258793265 0.26051873 0.716344535
v 0.28553915 0.235131055 0.715804815
v 0.0996553227 0.235958144 1.15685976
v 0.085313119 0.217799962 1.19713593
v 0.170273811 -0.0670837238 0.931899548
v 0.124609716 -0.0567123629 1.07176495
v 0.0409595296 -0.0712246448 0.921208024
v -0 -0.0619150139 1.05562341
v -0 -0.0618368909 1.05661392
v 0.0999001116 -0.0254719965 1.2003119
v 0.247184232 -0.0504824966 0.81252867
v 0.195574164 -0.0901273862 0.804688156
v 0.212054625 -0.0967883468 0.674544573
v 0.120437942 0.337867588 0.712626636
v 0.0643661469 -0.110754944 0.793212175
v 0.129970163 -0.100441165 0.798950195
v 0.123639666 -0.120949492 0.671606183
v 0.107656151 -0.113356374 0.665616393
v -0 -0.036422085 1.05340922
v 0.0398451015 -0.0458432138 0.919041932
v 0.10804119 -0.0879150927 0.664560318
v 0.0640518442 -0.0852972791 0.791786194
v 0.10804119 -0.0879150927 0.664560318
v 0.275798768 -0.0793574378 0.63294816
v 0.262941509 -0.0582780205 0.629629135
v 0.207985133 -0.0838216543 0.671842396
v 0.194406062 -0.109911174 0.666770935
v 0.207985133 -0.0838216543 0.671842396
v 0.158654377 -0.12412481 0.629703701
v 0.155463889 -0.0691452175 0.627824605
v 0.155463889 -0.0691452175 0.627824605
v 0.302121371 -0.0296729598 0.678328097
v 0.262941509 -0.0582780205 0.629629135
v 0.297984958 0.00345946779 0.687590957
v 0.298794299 -0.0108376024 0.820369244
v 0.317061156 0.0523620881 0.828194022
v 0.315782905 -0.00992818829 0.691526949
v 0.302121371 -0.0296729598 0.678328097
v 0.325750113 0.00995718967 0.687843144
v 0.297984958 0.00345946779 0.687590957
v 0.356283218 0.0609839708 0.656121731
v 0.342377156 0.111521013 0.704171896
v 0.33103472 0.0670802444 0.651738346
v 0.321041703 0.114663102 0.699341178
v 0.338460147 0.152093574 0.702192128
v 0.297984958 0.00345946779 0.687590957
v 0.33103472 0.0670802444 0.651738346
v 0.328477085 0.207234338 0.66751039
v 0.314528883 0.144019499 0.697399557
v 0.321041703 0.114663102 0.699341178
v 0.305572689 0.192697719 0.662737012
v 0.267613083 0.220683366 0.71105057
v 0.241470143 0.244377077 0.712151468
v 0.305572689 0.192697719 0.662737012
v 0.241470143 0.244377077 0.712151468
v 0.258793265 0.26051873 0.716344535
v 0.224300861 0.303671271 0.685064197
v 0.241470143 0.244377077 0.712151468
v 0.224300861 0.303671271 0.685064197
v 0.214532271 0.283540577 0.681373477
v 0.18432121 0.307871878 0.727173269
v 0.214532271 0.283540577 0.681373477
v 0.174885482 0.286846668 0.723984838
v 0.120938741 0.313590705 0.709730923
v 0.120437942 0.337867588 0.712626636
v 0.120437942 0.337867588 0.712626636
v 0.269144744 0.00419071177 0.815549195
v 0.262941509 -0.0582780205 0.629629135
v 0.297984958 0.00345946779 0.687590957
v 0.207985133 -0.0838216543 0.671842396
v 0.168706521 -0.0424026437 0.833012342
v 0.321041703 0.114663102 0.699341178
v 0.294545174 0.0922314972 0.830257416
v 0.33103472 0.0670802444 0.651738346
v 0.297984958 0.00345946779 0.687590957
v 0.314528883 0.144019499 0.697399557
v 0.267644048 0.186066791 0.843457699
v 0.267613083 0.220683366 0.71105057
v 0.241470143 0.244377077 0.712151468
v 0.151474744 0.259512484 0.851043046
v 0.305572689 0.192697719 0.662737012
v 0.174885482 0.286846668 0.723984838
v 0.120938741 0.313590705 0.709730923
v 0.106030606 0.278684527 0.896238029
v 0.214532271 0.283540577 0.681373477
v 0.155463889 -0.0691452175 0.627824605
v 0.207985133 -0.0838216543 0.671842396
v 0.10804119 -0.0879150927 0.664560318
v 0.0640518442 -0.0852972791 0.791786194
v 0.0932610035 -0.025847001 0.947185934
v 0.0398451015 -0.0458432138 0.919041932
v -0 -0.036422085 1.05340922
v -0 -0.036422085 1.05340922
v 1.86264511E-11 -0.0364237316 1.05390489
v 0.106030606 0.278684527 0.896238029
v 0.101084046 0.270302743 1.00283241
v 0.120938741 0.313590705 0.709730923
v 0.0916739032 0.227427632 1.0909524
v 0.155463889 -0.0691452175 0.627824605
v 0.10804119 -0.0879150927 0.664560318
v 0.0625249818 0.184640989 1.24622011
v 0.0325928628 0.18814899 1.24490297
v -0 0.185701996 1.24490297
v -0 0.204166383 1.24989557
v 0.0777379945 0.226475999 1.04604602
v -0 0.196520641 1.05679119
v 0.0159532595 0.168962985 1.02639663
v -0 0.16245845 1.03258789
v -0 0.130103484 1.00406682
v 0.0154484995 0.0648344979 0.986520648
v -0 0.0648344979 0.986520648
v -0 0.196520641 1.05679119
v 1.86264511E-11 -0.0364237316 1.05390489
v -0 -0.036422085 1.05340922
v -0 -0.00507199811 1.01234925
v -0 -0.0359286815 1.0535332
v -0 0.0648344979 0.986520648
v 0.0154484995 0.0648344979 0.986520648
v 0.0159532595 0.168962985 1.02639663
v -0 0.196696371 1.05687439
v -0 0.196520641 1.05679119
v -0 -0.0573099889 1.09940243
v 0.0867537931 -0.0448215418 1.12465668
v 0.12508297 0.125741988 0.572185993
v 0.140005037 0.157739013 0.578871012
v 0.109559745 0.133299157 0.572237909
v 0.111757487 0.330328554 0.643356919
v 0.103588931 0.306759298 0.78111583
v 0.0977302119 0.293390036 0.918196917
v 0.10891901 0.30136475 0.643896878
v -0 0.313791931 0.554995656
v -0 0.342931211 0.554492295
v 0.10891901 0.30136475 0.643896878
v 0.0982718617 -0.104788527 0.78111577
v -0 -0.103042692 0.865711033
v -0 -0.1168577 0.71101737
v 0.0976525471 -0.0914192945 0.918196976
v -0 -0.0775114298 1.02601397
v 0.0976525471 -0.0914192945 0.918196976
v 0.0953352302 -0.0650518462 1.05950022
v -0 -0.0573099889 1.09940243
v 0.0953352302 -0.0650518462 1.05950022
v 0.0867538601 -0.0448215418 1.12465668
v 0.0981953219 -0.0993939415 0.643896878
v -0 -0.11181774 0.555021584
v 0.0982718617 -0.104788527 0.78111577
v -0 -0.11181774 0.555021584
v -0 -0.142725214 0.554518163
v 0.0981953219 -0.0993939415 0.643896878
v -0 0.20762296 1.17028272
v 0.0858004466 0.243477866 1.130391
v -0 0.265699774 1.10337365
v 0.085865818 0.220097065 1.16881907
v 0.0902722627 0.26702258 1.05950022
v -0 0.279479831 1.02601969
v 0.0977302119 0.293390036 0.918196917
v 0.0977302119 0.293390036 0.918196917
v -0 0.305013239 0.865710974
v 0.103588931 0.306759298 0.78111583
v -0 0.318830013 0.711006761
v 0.0902722627 0.26702258 1.05950022
v 0.0858004466 0.243477866 1.130391
v 0.10891901 0.30136475 0.643896878
v -0 0.313791931 0.554995656
v 0.103588931 0.306759298 0.78111583
v -0 0.204166383 1.24989557
v -0.0325928628 0.18814899 1.24490297
v -0.085313119 0.217799962 1.19713593
v 0.085313119 0.217799962 1.19713593
v 0.0325928628 0.18814899 1.24490297
v -0 0.204166383 1.24989557
vt 0.834076285 0.492035359
vt 0.896053135 0.521762669
vt 0.896150649 0.472159505
vt 0.865097582 0.528364122
vt 0.834209681 0.535319328
vt 0.834330738 0.444510788
vt 0.896254361 0.421122491
vt 0.833426654 0.351693362
vt 0.896459579 0.317184269
vt 0.833278537 0.263053864
vt 0.896612585 0.217193365
vt 0.831047475 0.174424231
vt 0.896699786 0.117385589
vt 0.864619792 0.536401033
vt 0.831265926 0.548252761
vt 0.823452771 0.542088985
vt 0.813769042 0.353215873
vt 0.815163851 0.446840912
vt 0.815163851 0.446840912
vt 0.815872312 0.491849571
vt 0.813882709 0.263602525
vt 0.813769042 0.353215873
vt 0.810600281 0.175064132
vt 0.959854186 0.263240486
vt 0.95937252 0.351900548
vt 0.96218586 0.174604088
vt 0.979026556 0.35349369
vt 0.977247298 0.447128952
vt 0.979275763 0.263835102
vt 0.979026556 0.35349369
vt 0.982575953 0.175263897
vt 0.958089709 0.444727719
vt 0.958153307 0.492250055
vt 0.927000999 0.528417408
vt 0.95785898 0.535528481
vt 0.927459061 0.536434174
vt 0.960734069 0.54847753
vt 0.968586862 0.542343795
vt 0.896046579 0.535850763
vt 0.977247298 0.447128952
vt 0.9763574 0.492135584
vt 0.958153307 0.492250055
vt 0.968586862 0.542343795
vt 0.823452771 0.542088985
vt 0.834076285 0.492035359
vt 0.815872312 0.491849571
vt 0.29289794 0.80953306
vt 0.369724542 0.764865339
vt 0.283455223 0.75891155
vt 0.37552619 0.803927124
vt 0.207070217 0.813412726
vt 0.218662992 0.882986605
vt 0.328631997 0.853482902
vt 0.194806591 0.763735175
vt 0.124681145 0.821153879
vt 0.113207109 0.760852218
vt 0.385521799 0.836175621
vt 0.367567033 0.735816658
vt 0.367072493 0.708068669
vt 0.285487801 0.702756763
vt 0.200435996 0.691446304
vt 0.243934274 0.912602723
vt 0.185570747 0.934710264
vt 0.146148652 0.906507134
vt 0.0529578142 0.870808482
vt 0.0481823869 0.846657276
vt 0.332668632 0.87526089
vt 0.35994038 0.867229044
vt 0.209651515 0.631932259
vt 0.295661479 0.647670448
vt 0.240959466 0.561484575
vt 0.323262185 0.579528868
vt 0.323781192 0.579815447
vt 0.36983183 0.676124632
vt 0.124926277 0.646552622
vt 0.1348425 0.609035373
vt 0.0603056476 0.586240888
vt 0.0795805678 0.970151544
vt 0.164734066 0.53697288
vt 0.149495631 0.572476685
vt 0.0827761739 0.532865345
vt 0.0882237107 0.525378287
vt 0.0901830718 0.511087477
vt 0.169788897 0.523487091
vt 0.0901830718 0.511087477
vt 0.246408477 0.547288001
vt 0.326200992 0.564988613
vt 0.0213651415 0.613874316
vt 0.0150602814 0.600887358
vt 0.0532056987 0.584002376
vt 0.0623827651 0.570972204
vt 0.0532056987 0.584002376
vt 0.0521305464 0.540809512
vt 0.0243600756 0.555979967
vt 0.0454698391 0.509322464
vt 0.323262185 0.579528868
vt 0.0100445915 0.622917712
vt 0.0378944427 0.654446363
vt 0.0289278384 0.672275186
vt 0.116767049 0.683963776
vt 0.114378378 0.722485125
vt 0.0412752815 0.672228098
vt 0.0378944427 0.654446363
vt 0.0354841799 0.686858237
vt 0.0289278384 0.672275186
vt 0.010005217 0.720221996
vt 0.0353214033 0.756049037
vt 0.000112280701 0.731536806
vt 0.0237051174 0.761978209
vt 0.034336213 0.782809198
vt 0.0289278384 0.672275186
vt 5.1043213E-07 0.708597064
vt 0.0152524924 0.818445623
vt 0.0202751681 0.777214289
vt 0.0237051174 0.761978209
vt 0.00335848681 0.807727396
vt 0.0371061228 0.854340434
vt 0.0390191339 0.870885313
vt 0.00711485697 0.8316167
vt 0.0390191339 0.870885313
vt 0.0529578142 0.870808482
vt 0.0390191339 0.870885313
vt 0.0417543277 0.908290923
vt 0.0417543277 0.908290923
vt 0.0311505403 0.901439488
vt 0.0356154293 0.918593764
vt 0.0724499151 0.926576793
vt 0.062154986 0.934479892
vt 0.0667701587 0.96730864
vt 0.0795805678 0.970151544
vt 0.0795805678 0.970151544
vt 0.687523544 0.130433604
vt 0.743617177 0.0835410431
vt 0.727633178 0.15122807
vt 0.725172222 0.0598364323
vt 0.692782938 0.0775165632
vt 0.666974425 0.0576658472
vt 0.692782938 0.0775165632
vt 0.646337926 0.0756170526
vt 0.649762034 0.130594656
vt 0.63411504 0.0741484389
vt 0.609823525 0.134142771
vt 0.597493589 0.079870373
vt 0.583255291 0.0809678957
vt 0.554370821 0.142136171
vt 0.615048587 0.0590465441
vt 0.551597416 0.0884849355
vt 0.526641428 0.0857290477
vt 0.536487103 0.162571773
vt 0.564050436 0.0684130713
vt 0.730709851 0.207270131
vt 0.744797766 0.263201267
vt 0.744668007 0.26343447
vt 0.744797766 0.263201267
vt 0.756607354 0.207301959
vt 0.77643609 0.155874148
vt 0.784228802 0.10163822
vt 0.77184546 0.07930924
vt 0.743617177 0.0835410431
vt 0.288662583 0.448708892
vt 0.22787948 0.429545313
vt 0.21404624 0.456020743
vt 0.313950092 0.410534054
vt 0.179900631 0.423125595
vt 0.146084934 0.444565088
vt 0.135891497 0.433192492
vt 0.111506961 0.477369905
vt 0.11635457 0.455508888
vt 0.0949883461 0.474550456
vt 0.0805959105 0.488483906
vt 0.15504232 0.410373956
vt 0.110116489 0.374390453
vt 0.0912989676 0.394385248
vt 0.204843834 0.397728652
vt 0.176398814 0.377962768
vt 0.111019447 0.375377834
vt 0.241426006 0.343860954
vt 0.224570841 0.304311931
vt 0.146379933 0.32780841
vt 0.190542534 0.275384933
vt 0.219513774 0.266735613
vt 0.282395601 0.276666313
vt 0.262522876 0.241032645
vt 0.13851431 0.28027305
vt 0.303046346 0.316483438
vt 0.331485599 0.358467638
vt 0.255475521 0.377802074
vt 0.371463805 0.2610659
vt 0.41986841 0.258743972
vt 0.402653009 0.345110804
vt 0.441384941 0.286715209
vt 0.440029413 0.219845951
vt 0.397819847 0.244956821
vt 0.425679177 0.20214656
vt 0.373984694 0.234865189
vt 0.403351247 0.184336737
vt 0.357309133 0.190033734
vt 0.39282009 0.162565991
vt 0.41986841 0.258743972
vt 0.322417021 0.246620163
vt 0.300801963 0.22156845
vt 0.357309133 0.190033734
vt 0.457269967 0.306472868
vt 0.466001719 0.2779046
vt 0.480483919 0.245321333
vt 0.455551058 0.229361176
vt 0.494475245 0.31748265
vt 0.502992034 0.275600791
vt 0.546912074 0.27670452
vt 0.537680149 0.315714657
vt 0.534061849 0.34976545
vt 0.485876679 0.353970051
vt 0.584502995 0.272925764
vt 0.578032136 0.30903843
vt 0.585704803 0.341050714
vt 0.614403903 0.264576703
vt 0.621968865 0.293065876
vt 0.634365737 0.320445031
vt 0.640540004 0.367883921
vt 0.646754801 0.413337082
vt 0.593557656 0.422816128
vt 0.663299382 0.492952555
vt 0.685489416 0.403375298
vt 0.674053013 0.34936887
vt 0.725337327 0.355144233
vt 0.721451879 0.30376479
vt 0.670083344 0.305361956
vt 0.654930115 0.258482605
vt 0.602975607 0.221849442
vt 0.574382007 0.232658029
vt 0.635732055 0.212492317
vt 0.671637893 0.196414292
vt 0.711868882 0.428255886
vt 0.693114758 0.480305821
vt 0.717905045 0.469310999
vt 0.758683085 0.437067509
vt 0.749981523 0.404987514
vt 0.732878029 0.528645396
vt 0.73142916 0.566574872
vt 0.731188655 0.566733956
vt 0.76892221 0.48941195
vt 0.551706672 0.237400845
vt 0.514107525 0.24327454
vt 0.514574587 0.234556347
vt 0.479089856 0.232284412
vt 0.73119247 0.5669927
vt 0.731188655 0.566733956
vt 0.693114758 0.480305821
vt 0.73142916 0.566574872
vt 0.732878029 0.528645396
vt 0.717905045 0.469310999
vt 0.711868882 0.428255886
vt 0.758683085 0.437067509
vt 0.749981523 0.404987514
vt 0.685489416 0.403375298
vt 0.76892221 0.48941195
vt 0.725337327 0.355144233
vt 0.674053013 0.34936887
vt 0.640540004 0.367883921
vt 0.646754801 0.413337082
vt 0.585704803 0.341050714
vt 0.634365737 0.320445031
vt 0.593557656 0.422816128
vt 0.663299382 0.492952555
vt 0.721451879 0.30376479
vt 0.578032136 0.30903843
vt 0.537680149 0.315714657
vt 0.584502995 0.272925764
vt 0.546912074 0.27670452
vt 0.494475245 0.31748265
vt 0.502992034 0.275600791
vt 0.466001719 0.2779046
vt 0.457269967 0.306472868
vt 0.441384941 0.286715209
vt 0.480483919 0.245321333
vt 0.455551058 0.229361176
vt 0.534061849 0.34976545
vt 0.485876679 0.353970051
vt 0.614403903 0.264576703
vt 0.621968865 0.293065876
vt 0.670083344 0.305361956
vt 0.654930115 0.258482605
vt 0.514107525 0.24327454
vt 0.635732055 0.212492317
vt 0.602975607 0.221849442
vt 0.574382007 0.232658029
vt 0.671637893 0.196414292
vt 0.551706672 0.237400845
vt 0.514574587 0.234556347
vt 0.479089856 0.232284412
vt 0.721451879 0.30376479
vt 0.695589781 0.235900477
vt 0.671637893 0.196414292
vt 0.660328567 0.191280514
vt 0.440029413 0.219845951
vt 0.41986841 0.258743972
vt 0.402653009 0.345110804
vt 0.331485599 0.358467638
vt 0.397819847 0.244956821
vt 0.425679177 0.20214656
vt 0.373984694 0.234865189
vt 0.403351247 0.184336737
vt 0.357309133 0.190033734
vt 0.39282009 0.162565991
vt 0.41986841 0.258743972
vt 0.371463805 0.2610659
vt 0.322417021 0.246620163
vt 0.300801963 0.22156845
vt 0.357309133 0.190033734
vt 0.434071302 0.359079063
vt 0.282395601 0.276666313
vt 0.262522876 0.241032645
vt 0.300801963 0.22156845
vt 0.303046346 0.316483438
vt 0.224570841 0.304311931
vt 0.219513774 0.266735613
vt 0.262522876 0.241032645
vt 0.190542534 0.275384933
vt 0.146379933 0.32780841
vt 0.13851431 0.28027305
vt 0.176398814 0.377962768
vt 0.241426006 0.343860954
vt 0.255475521 0.377802074
vt 0.204843834 0.397728652
vt 0.15504232 0.410373956
vt 0.111019447 0.375377834
vt 0.179900631 0.423125595
vt 0.135891497 0.433192492
vt 0.110116489 0.374390453
vt 0.146084934 0.444565088
vt 0.111506961 0.477369905
vt 0.11635457 0.455508888
vt 0.0949883461 0.474550456
vt 0.0805959105 0.488483906
vt 0.22787948 0.429545313
vt 0.21404624 0.456020743
vt 0.288662583 0.448708892
vt 0.313950092 0.410534054
vt 0.146084934 0.444565088
vt 0.0729055777 0.412576705
vt 0.0529632606 0.430481046
vt 0.0729055777 0.412576705
vt 0.0529632606 0.430481046
vt 0.313950092 0.410534054
vt 0.39392215 0.409035504
vt 0.313950092 0.410534054
vt 0.453819036 0.409877717
vt 0.514995396 0.412715405
vt 0.191104218 0.948391259
vt 0.250929683 0.924827814
vt 0.084621653 0.98361367
vt 0.30760926 0.906514764
vt 0.0454698391 0.509322464
vt 0.0822014362 0.511452138
vt 0.396159023 0.857490599
vt 0.405073106 0.873010039
vt 0.421145588 0.883716404
vt 0.414179862 0.892727971
vt 0.15504232 0.410373956
vt 0.110116489 0.374390453
vt 0.135317847 0.356817633
vt 0.124389552 0.351007164
vt 0.133634314 0.325948417
vt 0.13851431 0.28027305
vt 0.128037319 0.280495703
vt 0.111196414 0.37503475
vt 0.262522876 0.241032645
vt 0.300801963 0.22156845
vt 0.73142916 0.566574872
vt 0.74335748 0.534690678
vt 0.777243197 0.496053666
vt 0.76892221 0.48941195
vt 0.721451879 0.30376479
vt 0.695589781 0.235900477
vt 0.671637893 0.196414292
vt 0.660328567 0.191280514
vt 0.434071302 0.359079063
vt 0.39392215 0.409035504
vt 0.313950092 0.410534054
vt 0.453819036 0.409877717
vt 0.514995396 0.412715405
vt 0.313950092 0.410534054
vt 0.111019447 0.375377834
vt 0.135317847 0.356817633
vt 0.111196414 0.37503475
vt 0.346259087 0.592829287
vt 0.334040135 0.645227849
vt 0.404427588 0.157878071
vt 0.39282009 0.162565991
vt 0.414168328 0.182448342
vt 0.968426824 0.915939271
vt 0.915491402 0.893748045
vt 0.966433346 0.953966141
vt 0.970885336 0.870334744
vt 0.915465117 0.845607281
vt 0.97480762 0.783901215
vt 0.915389895 0.750816047
vt 0.978504777 0.701395512
vt 0.915244281 0.658842504
vt 0.982546389 0.619049489
vt 0.914994538 0.566297114
vt 0.985001981 0.947108865
vt 0.984611034 0.919471443
vt 0.99197185 0.785890877
vt 0.987653732 0.873135209
vt 0.987653732 0.873135209
vt 0.984611034 0.919471443
vt 0.995640695 0.702457964
vt 0.99197185 0.785890877
vt 0.852199852 0.701588154
vt 0.856048763 0.784047008
vt 0.860081196 0.870438755
vt 0.862588823 0.916020811
vt 0.864618659 0.954031885
vt 0.846041143 0.94719851
vt 0.846406758 0.919573009
vt 0.838891685 0.786070228
vt 0.843314052 0.873266041
vt 0.843314052 0.873266041
vt 0.846406758 0.919573009
vt 0.852994859 0.962680578
vt 0.91554749 0.994537771
vt 0.969804823 0.968182743
vt 0.86125958 0.968242526
vt 0.978065073 0.96260184
vt 0.985001981 0.947108865
vt 0.995640695 0.702457964
vt 0.999980927 0.620111704
vt 0.927164972 0.553954422
vt 0.993279099 0.605509937
vt 0.914994538 0.566297114
vt 0.166025177 0.0246694516
vt 0.223104686 0.0866599157
vt 0.255577832 0.0221056212
vt 0.122720271 0.0903228521
vt 0.328157246 0.0829915777
vt 0.255577832 0.0221056212
vt 0.348926783 0.0203524325
vt 0.377398103 0.0812785774
vt 0.348926783 0.0203524325
vt 0.393418759 0.0243646018
vt 0.0768086314 0.0276337899
vt 0.166025177 0.0246694516
vt 0.0217806976 0.0940457061
vt 0.881973565 0.104111061
vt 0.817640722 0.159960583
vt 0.896699786 0.117385589
vt 0.388634026 0.111945249
vt 0.353607625 0.159429222
vt 0.379589707 0.16164647
vt 0.337182999 0.108051144
vt 0.310088605 0.159966618
vt 0.353607625 0.159429222
vt 0.310088605 0.159966618
vt 0.291496247 0.106554985
vt 0.226150423 0.161299735
vt 0.196870938 0.103226714
vt 0.14574413 0.162139565
vt 0.106313884 0.100369275
vt 0.0655959249 0.163709715
vt 0.0152795501 0.0985675678
vt 0.9763574 0.492135584
vt 0.977247298 0.447128952
vt 0.693939924 0.824180782
vt 0.770766556 0.779513121
vt 0.776568294 0.818574905
vt 0.684497297 0.773559332
vt 0.608112276 0.828060627
vt 0.619705081 0.897634625
vt 0.729674041 0.868130922
vt 0.59584868 0.778382897
vt 0.525723219 0.835801721
vt 0.514248967 0.775500178
vt 0.786563873 0.850823343
vt 0.768609107 0.750464499
vt 0.768114626 0.72271651
vt 0.686529934 0.717404604
vt 0.60147804 0.706094146
vt 0.644976377 0.927250504
vt 0.586612761 0.949358106
vt 0.547190487 0.921155214
vt 0.453999966 0.885456502
vt 0.449224502 0.861305118
vt 0.733710706 0.889908671
vt 0.760982454 0.881876886
vt 0.610693336 0.64658016
vt 0.696703553 0.662318289
vt 0.64200151 0.576132357
vt 0.724304259 0.59417659
vt 0.724823236 0.594463289
vt 0.770873964 0.690772414
vt 0.525968432 0.661200404
vt 0.535884559 0.623683214
vt 0.461347759 0.600888789
vt 0.480622441 0.984799325
vt 0.565775871 0.551620603
vt 0.550537646 0.587124527
vt 0.483818233 0.547513187
vt 0.4892658 0.540026069
vt 0.727243006 0.579636395
vt 0.647450507 0.561935782
vt 0.491225183 0.525735319
vt 0.570830941 0.538134873
vt 0.491225183 0.525735319
vt 0.422407031 0.628522038
vt 0.416102409 0.615535319
vt 0.454247802 0.598650157
vt 0.463424832 0.585620046
vt 0.454247802 0.598650157
vt 0.453172475 0.555457413
vt 0.425402015 0.570627928
vt 0.446511954 0.523970366
vt 0.438936353 0.669094026
vt 0.411086529 0.637565613
vt 0.429969966 0.686923027
vt 0.517809153 0.698611557
vt 0.515420437 0.737133026
vt 0.442317426 0.68687588
vt 0.438936353 0.669094026
vt 0.436526299 0.701506078
vt 0.429969966 0.686923027
vt 0.41104731 0.734869838
vt 0.436363518 0.770696819
vt 0.40115416 0.746184647
vt 0.424747199 0.776625931
vt 0.435378373 0.79745698
vt 0.429969966 0.686923027
vt 0.40104261 0.723245025
vt 0.416294605 0.833093643
vt 0.421317279 0.791862249
vt 0.424747199 0.776625931
vt 0.404400617 0.822375357
vt 0.438148022 0.868988335
vt 0.440061271 0.885533333
vt 0.408156961 0.846264541
vt 0.440061271 0.885533333
vt 0.453999966 0.885456502
vt 0.442796201 0.922939062
vt 0.440061271 0.885533333
vt 0.442796201 0.922939062
vt 0.432192445 0.916087389
vt 0.473491758 0.941224635
vt 0.436657369 0.933241785
vt 0.463196874 0.949127674
vt 0.467812061 0.981956601
vt 0.480622441 0.984799325
vt 0.480622441 0.984799325
vt 0.687523544 0.130433604
vt 0.725172222 0.0598364323
vt 0.692782938 0.0775165632
vt 0.743617177 0.0835410431
vt 0.727633178 0.15122807
vt 0.646337926 0.0756170526
vt 0.649762034 0.130594656
vt 0.666974425 0.0576658472
vt 0.692782938 0.0775165632
vt 0.63411504 0.0741484389
vt 0.609823525 0.134142771
vt 0.597493589 0.079870373
vt 0.583255291 0.0809678957
vt 0.554370821 0.142136171
vt 0.615048587 0.0590465441
vt 0.551597416 0.0884849355
vt 0.526641428 0.0857290477
vt 0.536487103 0.162571773
vt 0.564050436 0.0684130713
vt 0.77184546 0.07930924
vt 0.743617177 0.0835410431
vt 0.784228802 0.10163822
vt 0.77643609 0.155874148
vt 0.730709851 0.207270131
vt 0.756607354 0.207301959
vt 0.744797766 0.263201267
vt 0.744797766 0.263201267
vt 0.744668007 0.26343447
vt 0.592146277 0.963039398
vt 0.651971698 0.939475775
vt 0.485663533 0.998261869
vt 0.708651364 0.921162724
vt 0.446511954 0.523970366
vt 0.483243525 0.526100039
vt 0.797201097 0.872138381
vt 0.80611521 0.887658119
vt 0.822187662 0.898364246
vt 0.815221906 0.907375813
vt 0.15504232 0.410373956
vt 0.110116489 0.374390453
vt 0.135317847 0.356817633
vt 0.124389552 0.351007164
vt 0.133634314 0.325948417
vt 0.13851431 0.28027305
vt 0.128037319 0.280495703
vt 0.111196414 0.37503475
vt 0.73119247 0.5669927
vt 0.731188655 0.566733956
vt 0.74335748 0.534690678
vt 0.73142916 0.566574872
vt 0.777243197 0.496053666
vt 0.76892221 0.48941195
vt 0.135317847 0.356817633
vt 0.111019447 0.375377834
vt 0.111196414 0.37503475
vt 0.747301161 0.607477129
vt 0.735082209 0.659875631
vt 0.404427588 0.157878071
vt 0.414168328 0.182448342
vt 0.39282009 0.162565991
vt 0.84759742 0.619284153
vt 0.835121453 0.702725291
vt 0.838891685 0.786070228
vt 0.830055058 0.620477855
vt 0.902781606 0.554000318
vt 0.914994538 0.566297114
vt 0.836832404 0.605768979
vt 0.166025177 0.0246694516
vt 0.223104686 0.0866599157
vt 0.122720271 0.0903228521
vt 0.255577832 0.0221056212
vt 0.328157246 0.0829915777
vt 0.255577832 0.0221056212
vt 0.348926783 0.0203524325
vt 0.377398103 0.0812785774
vt 0.348926783 0.0203524325
vt 0.393418759 0.0243646018
vt 0.0768086314 0.0276337899
vt 0.0217806976 0.0940457061
vt 0.166025177 0.0246694516
vt 0.911462784 0.104150206
vt 0.896699786 0.117385589
vt 0.975637496 0.160182133
vt 0.388634026 0.111945249
vt 0.353607625 0.159429222
vt 0.337182999 0.108051144
vt 0.379589707 0.16164647
vt 0.310088605 0.159966618
vt 0.291496247 0.106554985
vt 0.226150423 0.161299735
vt 0.226150423 0.161299735
vt 0.196870938 0.103226714
vt 0.14574413 0.162139565
vt 0.106313884 0.100369275
vt 0.310088605 0.159966618
vt 0.353607625 0.159429222
vt 0.0655959249 0.163709715
vt 0.0152795501 0.0985675678
vt 0.14574413 0.162139565
vt 0.91554749 0.994537771
vt 0.936716199 0.999947667
vt 0.969804823 0.968182743
vt 0.86125958 0.968242526
vt 0.894381642 0.99996984
vt 0.91554749 0.994537771
vn -0.831623614 -0.529323578 0.167984292
vn -0 -0.708045781 0.706166506
vn -0 -0.955348253 0.295482397
vn 0.00347448071 -0.598245203 0.801305592
vn -0.478055596 -0.518811882 0.708729267
vn -0.747012317 -0.63739723 0.188937142
vn -0 -0.984475017 0.175524801
vn -0.723968685 -0.681509614 0.106836148
vn -0 -0.993317962 0.115409963
vn -0.736830354 -0.674894512 0.0399796553
vn -0 -0.999997735 0.00215206156
vn -0.779542506 -0.531214714 -0.331849873
vn -0 -0.591607094 -0.806226552
vn 0.132252097 -0.0701652691 0.988729537
vn -0.689942241 -0.164438412 0.704939485
vn -0.689942241 -0.164438412 0.704939485
vn -0.691211522 0.71645385 -0.0944485441
vn -0.698636234 0.704716146 -0.123622254
vn -0.698636234 0.704716146 -0.123622254
vn -0.782511473 0.579427183 -0.227903381
vn -0.67490685 0.737111986 -0.0341557749
vn -0.691211522 0.71645385 -0.0944485441
vn -0.634077132 0.712337673 -0.300867677
vn 0.736830354 -0.674894512 0.0399796553
vn 0.723968685 -0.681509614 0.106836148
vn 0.779542625 -0.531214774 -0.331849873
vn 0.691211522 0.71645385 -0.094448559
vn 0.698636293 0.704716146 -0.123622261
vn 0.674906909 0.737111926 -0.0341557749
vn 0.691211522 0.71645385 -0.094448559
vn 0.634077132 0.712337673 -0.300867677
vn 0.747012317 -0.637397289 0.188937142
vn 0.831623614 -0.529323578 0.167984322
vn -0.00347448071 -0.598245203 0.801305592
vn 0.478055596 -0.518811882 0.708729267
vn -0.132252097 -0.0701652691 0.988729537
vn 0.689942241 -0.164438412 0.704939485
vn 0.689942241 -0.164438412 0.704939485
vn -0 -0.206268072 0.978495538
vn 0.698636293 0.704716146 -0.123622261
vn 0.782511473 0.579427183 -0.227903381
vn 0.831623614 -0.529323578 0.167984322
vn 0.689942241 -0.164438412 0.704939485
vn -0.689942241 -0.164438412 0.704939485
vn -0.831623614 -0.529323578 0.167984292
vn -0.782511473 0.579427183 -0.227903381
vn -0.807723403 0.453764081 0.376405537
vn -0.901198685 0.0332757384 0.43212682
vn -0.916937888 -0.0624287613 0.394116193
vn -0.708016634 0.514558554 0.48367545
vn -0.793881178 0.523651063 0.309099227
vn -0.528519809 0.819354594 0.222091809
vn -0.482304037 0.758114696 0.438913435
vn -0.934069872 0.0422030054 0.354587406
vn -0.771735668 0.592556179 0.230870351
vn -0.969526947 0.0891272202 0.228197232
vn -0.32869643 0.759658992 0.561138928
vn -0.831998885 -0.464295626 0.303656846
vn -0.673366249 -0.669659197 0.31326434
vn -0.716249883 -0.607544959 0.343329906
vn -0.745580673 -0.605207503 0.278986067
vn 0.531019211 0.823744297 0.198655769
vn 0.678212166 0.727997422 0.100239351
vn -0.41247502 0.891198575 0.188757688
vn -0.709017575 0.518356562 -0.478121877
vn -0.433287263 0.816374421 -0.381831199
vn 0.15856719 0.924497843 0.346641272
vn -0.532170296 0.598791361 0.598534644
vn -0.318389773 -0.923850298 0.212434754
vn -0.267880589 -0.940348804 0.209724113
vn 0.68736738 -0.725482225 -0.0346635468
vn -0 -0.996906459 -0.0785970837
vn -0 -0.995862126 0.0908770338
vn -0.463237971 -0.836619914 0.29236576
vn -0.576833665 -0.793968916 0.192031771
vn -0.382084578 -0.906240821 0.180939168
vn -0.406534642 -0.80260402 -0.43652758
vn 0.387830675 0.732250214 -0.559818685
vn 0.650424898 -0.758454621 -0.0411592834
vn -0.139774576 -0.974717617 0.174322948
vn 0.195027411 -0.924741447 -0.326829463
vn 0.44015944 -0.453810841 -0.774800241
vn 0.716564655 0.377571464 -0.58649379
vn 0.810635626 0.511872947 -0.284351885
vn 0.716564655 0.377571464 -0.58649379
vn 0.735607505 0.602791548 -0.309069455
vn -0 0.400196195 -0.91642952
vn -0.476273447 -0.594830453 -0.647565007
vn 0.173952147 0.368724078 -0.913117349
vn 0.0289404243 0.555602252 -0.830944479
vn -0.577246845 -0.741675615 -0.341618776
vn 0.0289404243 0.555602252 -0.830944479
vn -0.0294159614 -0.676514745 -0.735841393
vn 0.0407549888 0.565519035 -0.823727608
vn 0.0407549888 0.565519035 -0.823727608
vn -0 -0.996906459 -0.0785970837
vn 0.173952147 0.368724078 -0.913117349
vn -0.900211871 -0.248627543 -0.357495368
vn 0.530926406 0.366378903 -0.764122784
vn -0.79900676 -0.561881244 0.2141909
vn -0.918629766 -0.313108623 0.241002843
vn -0.801902533 -0.377259374 -0.463279366
vn -0.900211871 -0.248627543 -0.357495368
vn -0.698935807 -0.577840805 -0.421412796
vn 0.530926406 0.366378903 -0.764122784
vn -0.761062264 -0.060874179 -0.645816088
vn -0.845312119 0.342558622 -0.410001069
vn 0.328742802 0.217228249 -0.919097483
vn 0.597295642 0.195294857 -0.77788043
vn -0.894502521 0.040230386 -0.44524914
vn 0.530926406 0.366378903 -0.764122784
vn 0.328742802 0.217228249 -0.919097483
vn -0.610418141 0.450857759 -0.651242554
vn 0.488132536 -0.415879041 -0.767314315
vn 0.597295642 0.195294857 -0.77788043
vn 0.309902549 -0.0956612006 -0.945943594
vn 0.673374772 -0.198703185 -0.712097943
vn 0.253071159 -0.601569831 -0.757673264
vn 0.309902549 -0.0956612006 -0.945943594
vn 0.253071159 -0.601569831 -0.757673264
vn -0.709017575 0.518356562 -0.478121877
vn 0.253071159 -0.601569831 -0.757673264
vn -0.298021495 0.683313668 -0.666532576
vn -0.298021495 0.683313668 -0.666532576
vn 0.212883025 -0.209898606 -0.954265893
vn 0.212883025 -0.209898606 -0.954265893
vn -0.0757802948 0.892719567 -0.444194943
vn 0.479410589 -0.53775543 -0.6935305
vn 0.537913322 -0.320759624 -0.779591203
vn 0.387830675 0.732250214 -0.559818685
vn 0.387830675 0.732250214 -0.559818685
vn 0.274869561 0.195756778 -0.941342711
vn 0.0289404243 0.555602252 -0.830944479
vn 0.59540987 0.0531710498 -0.801660717
vn 0.173952147 0.368724078 -0.913117349
vn 0.530926406 0.366378903 -0.764122784
vn 0.328742802 0.217228249 -0.919097483
vn 0.530926406 0.366378903 -0.764122784
vn 0.597295642 0.195294857 -0.77788043
vn 0.338136911 0.242302775 -0.909369409
vn 0.488132536 -0.415879041 -0.767314315
vn 0.487264544 -0.136494309 -0.862521052
vn 0.673374772 -0.198703185 -0.712097943
vn 0.253071159 -0.601569831 -0.757673264
vn 0.681936204 -0.629217267 -0.372892112
vn 0.309902549 -0.0956612006 -0.945943594
vn 0.479410589 -0.53775543 -0.6935305
vn 0.537913322 -0.320759624 -0.779591203
vn 0.880023718 -0.462397426 -0.108382918
vn 0.212883025 -0.209898606 -0.954265893
vn 0.819356084 -0.0854137093 -0.566886246
vn -0 0.400196195 -0.91642952
vn -0.363022745 0.0899175853 -0.927431524
vn -0 0.400196195 -0.91642952
vn 0.735607505 0.602791548 -0.309069455
vn 0.810635626 0.511872947 -0.284351885
vn 0.716564655 0.377571464 -0.58649379
vn 0.0407549888 0.565519035 -0.823727608
vn 0.0289404243 0.555602252 -0.830944479
vn 0.880023718 -0.462397426 -0.108382918
vn 0.92993325 -0.309481978 -0.198607668
vn 0.968490183 -0.215242267 -0.12528947
vn 0.681936204 -0.629217267 -0.372892112
vn 0.666563213 0.578046083 -0.470697582
vn 0.540186822 0.820608795 -0.18654561
vn 0.0341338851 0.994893432 -0.0949835703
vn 0.15856719 0.924497843 0.346641272
vn 0.36329338 0.919220805 0.151825309
vn 0.55870378 0.814788222 0.154823437
vn -0.532170296 0.598791361 0.598534644
vn 0.0925079286 0.927963793 -0.361006021
vn -0 0.837620795 -0.546252072
vn -0 0.987266839 -0.159073144
vn 0.574369848 0.758046746 -0.308973312
vn 0.386358589 0.801491439 -0.456441194
vn 0.720235348 0.401999831 0.565382242
vn 0.389110506 0.912174165 -0.128574401
vn 0.820533514 0.547928572 -0.162785262
vn 0.545796812 0.506734371 -0.667327702
vn 0.982118368 0.127351493 -0.138654098
vn 0.961528778 0.192352384 -0.1961198
vn 0.804381311 0.563852787 -0.187192008
vn 0.973789811 0.0842070356 -0.211288124
vn 0.732844591 -0.0274711344 -0.67984128
vn 0.353071123 0.933879375 -0.0566567406
vn 0.108543187 0.894097626 -0.434520215
vn 0.711177349 0.672523201 -0.204790965
vn 0.265602261 0.946034908 -0.185670421
vn -0.477408975 0.870050788 -0.12285018
vn -0.650329292 0.739006579 -0.175900415
vn -0.815141976 0.578258872 0.0340650342
vn -0.425982952 0.888084412 -0.172755957
vn 0.0371099524 0.838158846 0.544162393
vn 0.0573205762 0.975058675 -0.214417532
vn 0.532982886 0.824696898 -0.189220384
vn 0.465568304 0.735064626 -0.492875457
vn 0.892728984 0.405714661 -0.196037143
vn 0.581325531 0.285002321 -0.762124896
vn -0.477408975 0.870050788 -0.12285018
vn 0.734182417 0.65014267 -0.195680007
vn 0.937186241 0.323565125 -0.130336359
vn 0.892728984 0.405714661 -0.196037143
vn -0.959605694 0.273979425 0.0639701262
vn -0.974556148 0.217495009 0.0541875474
vn -0.891623914 0.261066705 -0.369933754
vn -0.682670712 0.713685036 -0.156890079
vn -0.982143462 -0.187528208 0.0150757749
vn -0.98117733 -0.19306241 -0.00424203882
vn -0.594864726 -0.765636563 -0.244819537
vn -0.701242447 -0.712866426 0.00897489302
vn -0.698360205 -0.703378677 -0.132481694
vn -0.962719679 -0.0690797269 -0.26153183
vn 0.0943127871 -0.913398683 -0.395989746
vn -0.137580335 -0.970373452 -0.198612422
vn -0.137618512 -0.978384614 -0.154352754
vn 0.495377213 -0.682576358 -0.537299693
vn 0.482381612 -0.773554683 -0.411000222
vn 0.576519132 -0.758837044 -0.302972078
vn 0.535932839 -0.835425973 -0.121817872
vn 0.458705187 -0.884884357 -0.081050545
vn 0.59540987 0.0531710498 -0.801660717
vn 0.819356084 -0.0854137093 -0.566886246
vn 0.829852998 -0.500764966 -0.246127009
vn 0.939960837 -0.323432446 -0.10892646
vn 0.973789811 0.0842070356 -0.211288124
vn 0.937186241 0.323565125 -0.130336359
vn 0.93572706 -0.244113132 -0.254604876
vn 0.873117566 -0.227435604 -0.431206077
vn 0.313841045 -0.580769241 -0.7511397
vn 0.12467625 -0.714153469 -0.68879658
vn 0.661070347 -0.324832171 -0.676365316
vn 0.581325531 0.285002321 -0.762124896
vn 0.897121012 -0.357743502 -0.259217113
vn 0.523932517 -0.824907243 -0.212185666
vn 0.896055281 -0.404161423 -0.183680028
vn 0.982118368 0.127351493 -0.138654098
vn 0.961528778 0.192352384 -0.1961198
vn 0.667539418 -0.375291795 -0.643076301
vn -0 -0.130177766 -0.991490662
vn -0 0.400196195 -0.91642952
vn 0.732844591 -0.0274711344 -0.67984128
vn -0.355720162 -0.652330995 -0.669273734
vn -0.723952353 -0.156254262 -0.671920776
vn -0.0779623613 0.152848691 -0.985169649
vn -0.470634907 0.193428531 -0.860864758
vn -0.363022745 0.0899175853 -0.927431524
vn -0 0.400196195 -0.91642952
vn -0.523932457 -0.824907243 -0.212185636
vn -0 -0.130177766 -0.991490662
vn -0.667539418 -0.375291824 -0.643076301
vn -0.8960554 -0.404161394 -0.183680058
vn -0.897120893 -0.357743502 -0.259217113
vn -0.982118368 0.127351493 -0.138654083
vn -0.961528778 0.192352384 -0.1961198
vn -0.829852998 -0.500764966 -0.246127009
vn -0.732844591 -0.0274711326 -0.67984128
vn -0.973789811 0.0842070431 -0.211288139
vn -0.939960957 -0.323432416 -0.10892646
vn -0.535932839 -0.835425973 -0.121817872
vn -0.458705187 -0.884884357 -0.081050545
vn 0.137618512 -0.978384614 -0.154352754
vn -0.576519132 -0.758837044 -0.302972078
vn -0.59540987 0.0531710498 -0.801660717
vn -0.819356084 -0.0854137093 -0.566886246
vn -0.937186241 0.323565125 -0.130336344
vn 0.137580335 -0.970373452 -0.198612392
vn 0.701242447 -0.712866426 0.00897489302
vn -0.0943128169 -0.913398683 -0.395989776
vn 0.594864726 -0.765636563 -0.244819537
vn 0.982143462 -0.187528208 0.0150757749
vn 0.98117733 -0.19306241 -0.00424204022
vn 0.974556148 0.217495009 0.0541875474
vn 0.959605694 0.273979425 0.0639701337
vn 0.815141976 0.578258872 0.0340650231
vn 0.891623914 0.261066705 -0.369933754
vn 0.682670712 0.713685036 -0.156890079
vn 0.698360205 -0.703378677 -0.132481694
vn 0.962719679 -0.0690797195 -0.261531889
vn -0.495377243 -0.682576358 -0.537299693
vn -0.482381612 -0.773554683 -0.411000162
vn -0.93572706 -0.244113132 -0.254604876
vn -0.873117685 -0.227435589 -0.431206018
vn 0.723952353 -0.156254247 -0.671920776
vn -0.661070347 -0.324832171 -0.676365316
vn -0.313841045 -0.580769241 -0.7511397
vn -0.124676272 -0.714153409 -0.68879658
vn -0.581325531 0.285002321 -0.762124896
vn 0.355720162 -0.652330995 -0.669273734
vn 0.0779623464 0.152848691 -0.985169649
vn 0.470634907 0.193428531 -0.860864758
vn -0.937186241 0.323565125 -0.130336344
vn -0.892728984 0.405714661 -0.196037143
vn -0.581325531 0.285002321 -0.762124896
vn 0.0453901142 0.196469322 -0.979458749
vn 0.425982952 0.888084412 -0.172755957
vn 0.477408975 0.870050788 -0.122850195
vn 0.650329292 0.739006579 -0.175900415
vn -0.108543195 0.894097626 -0.434520274
vn -0.0371099338 0.838158846 0.544162333
vn -0.0573205762 0.975058675 -0.214417532
vn -0.532982886 0.824696898 -0.189220339
vn -0.465568304 0.735064626 -0.492875487
vn -0.892728984 0.405714661 -0.196037143
vn -0.581325531 0.285002321 -0.762124896
vn 0.477408975 0.870050788 -0.122850195
vn -0.265602261 0.946034908 -0.185670376
vn -0.734182417 0.65014267 -0.195680007
vn -0.937186241 0.323565125 -0.130336344
vn -0.892728984 0.405714661 -0.196037143
vn 0.833066463 0.411740869 -0.369417995
vn -0.804381311 0.563852787 -0.187192053
vn -0.973789811 0.0842070431 -0.211288139
vn -0.937186241 0.323565125 -0.130336344
vn -0.353071123 0.933879375 -0.0566567406
vn -0.820533514 0.547928572 -0.162785262
vn -0.961528778 0.192352384 -0.1961198
vn -0.973789811 0.0842070431 -0.211288139
vn -0.982118368 0.127351493 -0.138654083
vn -0.545796812 0.506734371 -0.667327702
vn -0.732844591 -0.0274711326 -0.67984128
vn -0.386358589 0.801491439 -0.456441194
vn -0.389110535 0.912174165 -0.128574401
vn -0.711177349 0.672523201 -0.204790965
vn -0.574369848 0.758046746 -0.308973312
vn -0.0925079286 0.927963793 -0.361006081
vn -0.720235348 0.401999831 0.565382242
vn -0.666419089 0.491751373 -0.560416102
vn 0.037754342 0.996152937 -0.079082571
vn -0 0.837620795 -0.546252072
vn -0.295438886 0.951061189 -0.0905450359
vn -0.158226728 0.920856118 0.356354088
vn -0.363293409 0.919220805 0.151825309
vn -0.55870378 0.814788222 0.154823467
vn 0.532170296 0.598791361 0.598534644
vn -0.902767062 -0.362469912 -0.231575608
vn -0.984155953 -0.112899385 -0.136714503
vn -0.879709005 -0.461289763 -0.115428582
vn -0.681936264 -0.629217267 -0.372892141
vn -0.295438886 0.951061189 -0.0905450359
vn -0 0.99906224 0.0432985313
vn -0 0.432146221 -0.901803613
vn -0 0.99906224 0.0432985313
vn -0 0.432146221 -0.901803613
vn -0.681936264 -0.629217267 -0.372892141
vn -0.487264603 -0.136494309 -0.862521052
vn -0.681936264 -0.629217267 -0.372892141
vn -0.338136792 0.24230276 -0.909369469
vn -0.274869561 0.195756719 -0.941342711
vn 0.880023718 -0.462397426 -0.108382918
vn 0.968490183 -0.215242267 -0.12528947
vn 0.537913322 -0.320759624 -0.779591203
vn 0.540186822 0.820608795 -0.18654561
vn 0.0407549888 0.565519035 -0.823727608
vn 0.716564655 0.377571464 -0.58649379
vn -0.0970266238 0.803250968 0.587685049
vn -0.0610190406 0.492709309 0.868051887
vn -0 -0.261021078 0.965333164
vn -0 0.274696201 0.961531103
vn 0.0925079286 0.927963793 -0.361006021
vn -0 0.837620795 -0.546252072
vn 0.481895655 0.458420724 -0.746744215
vn -0 0.549418569 -0.835547268
vn -0 0.472884387 -0.881124556
vn 0.732844591 -0.0274711344 -0.67984128
vn -0 -0.0456324555 -0.998958349
vn -0 0.837620795 -0.546252072
vn 0.973789811 0.0842070356 -0.211288124
vn 0.937186241 0.323565125 -0.130336359
vn -0 -0.130177766 -0.991490662
vn -0 -0.597875953 -0.801588714
vn -0 -0.0456324555 -0.998958349
vn 0.732844591 -0.0274711344 -0.67984128
vn 0.937186241 0.323565125 -0.130336359
vn 0.892728984 0.405714661 -0.196037143
vn 0.581325531 0.285002321 -0.762124896
vn -0.0453901179 0.196469307 -0.979458749
vn -0.833066463 0.411740869 -0.369417995
vn 0.487264544 -0.136494309 -0.862521052
vn 0.681936204 -0.629217267 -0.372892112
vn 0.338136911 0.242302775 -0.909369409
vn 0.274869561 0.195756778 -0.941342711
vn 0.681936204 -0.629217267 -0.372892112
vn 0.720235348 0.401999831 0.565382242
vn 0.481895655 0.458420724 -0.746744215
vn -0 0.837620795 -0.546252072
vn -0 -0.165665776 -0.986181855
vn -0.0464944616 -0.966957211 0.25066331
vn -0.0453901179 0.196469307 -0.979458749
vn 0.581325531 0.285002321 -0.762124896
vn 0.143710986 0.48252517 -0.864011943
vn -0.763691545 0.571446061 0.300373971
vn -0 0.915478289 0.402367502
vn -0.684553742 0.493840158 0.536197722
vn -0.780359387 0.591529489 0.2028106
vn -0 0.975200117 0.221325055
vn -0.76944387 0.62819165 0.115461573
vn -0 0.994415522 0.105535865
vn -0.773092031 0.630920708 0.065329209
vn -0 0.999851704 -0.0172214285
vn -0.798049212 0.492630869 -0.34703356
vn -0 0.573938251 -0.818898618
vn -0.869407892 -0.434482455 -0.235276327
vn -0.690634608 -0.638707995 -0.339228481
vn -0.690752566 -0.719903827 -0.067818366
vn -0.673658609 -0.727112055 -0.132258296
vn -0.673658609 -0.727112055 -0.132258296
vn -0.690634608 -0.638707995 -0.339228481
vn -0.672379196 -0.74019134 -0.00478758011
vn -0.690752566 -0.719903827 -0.067818366
vn 0.773092031 0.630920708 0.065329209
vn 0.76944381 0.62819165 0.115461566
vn 0.780359387 0.591529489 0.202810571
vn 0.763691604 0.571446061 0.300374031
vn 0.684553742 0.493840158 0.536197722
vn 0.869407892 -0.434482455 -0.235276327
vn 0.690634608 -0.638707995 -0.339228481
vn 0.690752566 -0.719903827 -0.067818366
vn 0.673658609 -0.727112055 -0.132258296
vn 0.673658609 -0.727112055 -0.132258296
vn 0.690634608 -0.638707995 -0.339228481
vn 0.532170296 0.598791361 0.598534644
vn -0 0.274696201 0.961531103
vn -0.532170296 0.598791361 0.598534644
vn 0.532170296 0.598791361 0.598534644
vn -0.532170296 0.598791361 0.598534644
vn -0.869407892 -0.434482455 -0.235276327
vn -0.672379196 -0.74019134 -0.00478758011
vn -0.636438847 -0.707731783 -0.306694239
vn -0 -0.583935916 -0.811799705
vn -0.636438847 -0.707731783 -0.306694239
vn -0 0.573938251 -0.818898618
vn -0.67490685 0.737111986 -0.0341557749
vn -0 0.993303835 -0.115531273
vn -0.691211522 0.71645385 -0.0944485441
vn -0 0.999998212 -0.00191476743
vn -0 0.97777164 -0.209672719
vn -0.691211522 0.71645385 -0.0944485441
vn -0.698636234 0.704716146 -0.123622254
vn -0 -0.165665776 -0.986181855
vn -0.698636234 0.704716146 -0.123622254
vn -0.782511473 0.579427183 -0.227903381
vn -0.634077132 0.712337673 -0.300867677
vn -0.67490685 0.737111986 -0.0341557749
vn -0 0.575923443 -0.817503691
vn -0 0.575923443 -0.817503691
vn -0.634077132 0.712337673 -0.300867677
vn -0 -0.591607094 -0.806226552
vn -0 0.432146221 -0.901803613
vn -0.690634608 -0.638707995 -0.339228481
vn -0.869407892 -0.434482455 -0.235276327
vn -0 -0.912749529 -0.408519685
vn -0.673658609 -0.727112055 -0.132258296
vn -0.690634608 -0.638707995 -0.339228481
vn -0.673658609 -0.727112055 -0.132258296
vn -0 -0.984468162 -0.175563201
vn -0.690752566 -0.719903827 -0.067818366
vn -0 -0.993203759 -0.116388738
vn -0.672379196 -0.74019134 -0.00478758011
vn -0 -0.999987602 -0.00498394854
vn -0.636438847 -0.707731783 -0.306694239
vn -0 -0.583935916 -0.811799705
vn 0.782511473 0.579427183 -0.227903381
vn 0.698636293 0.704716146 -0.123622261
vn 0.807723403 0.453764081 0.376405537
vn 0.901198685 0.0332757384 0.43212682
vn 0.708016694 0.514558554 0.48367548
vn 0.916937888 -0.0624287464 0.394116193
vn 0.793881178 0.523651063 0.309099227
vn 0.528519809 0.819354594 0.222091809
vn 0.482304096 0.758114636 0.438913345
vn 0.934069872 0.0422030129 0.354587406
vn 0.771735668 0.592556179 0.230870351
vn 0.969526947 0.0891272202 0.228197232
vn 0.32869643 0.759658992 0.561138928
vn 0.831998885 -0.464295566 0.303656876
vn 0.673366308 -0.669659138 0.31326437
vn 0.716249883 -0.607544959 0.343329906
vn 0.745580673 -0.605207503 0.278986067
vn -0.422736436 0.885757506 0.19164443
vn -0.678212166 0.727997422 0.100239336
vn 0.41247502 0.891198575 0.188757688
vn 0.709017634 0.518356502 -0.478121907
vn 0.433287263 0.816374421 -0.381831199
vn -0.158226728 0.920856118 0.356354088
vn 0.532170296 0.598791361 0.598534644
vn 0.318389773 -0.923850298 0.212434754
vn 0.267880559 -0.940348804 0.209724113
vn -0.68736738 -0.725482225 -0.0346635468
vn -0 -0.996906459 -0.0785970837
vn -0 -0.995862126 0.0908770338
vn 0.463237971 -0.836619914 0.29236576
vn 0.576833665 -0.793968916 0.192031771
vn 0.382084608 -0.906240821 0.180939198
vn 0.406534642 -0.80260402 -0.43652764
vn -0.387830675 0.732250214 -0.559818685
vn -0.650424957 -0.758454561 -0.0411592871
vn 0.139774576 -0.974717617 0.174322948
vn -0.195027411 -0.924741447 -0.326829463
vn -0.44015944 -0.453810841 -0.774800241
vn -0 0.400196195 -0.91642952
vn -0.735607505 0.602791548 -0.309069455
vn -0.716564655 0.377571464 -0.58649379
vn -0.810635626 0.511872888 -0.284351885
vn -0.716564655 0.377571464 -0.58649379
vn 0.476273447 -0.594830453 -0.647565007
vn -0.173952147 0.368724078 -0.913117349
vn -0.0289404131 0.555602193 -0.830944479
vn 0.577246845 -0.741675615 -0.341618776
vn -0.0289404131 0.555602193 -0.830944479
vn 0.0294159614 -0.676514745 -0.735841393
vn -0.0407549888 0.565519035 -0.823727667
vn -0.0407549888 0.565519035 -0.823727667
vn 0.900211871 -0.248627514 -0.357495368
vn -0.173952147 0.368724078 -0.913117349
vn -0.530926406 0.366378963 -0.764122784
vn 0.79900676 -0.561881244 0.214190871
vn 0.918629766 -0.313108623 0.241002813
vn 0.801902533 -0.377259374 -0.463279366
vn 0.900211871 -0.248627514 -0.357495368
vn 0.698935866 -0.577840805 -0.421412796
vn -0.530926406 0.366378963 -0.764122784
vn 0.761062264 -0.060874179 -0.645816088
vn 0.845312119 0.342558622 -0.410001069
vn -0.328742802 0.217228293 -0.919097364
vn -0.597295642 0.195294857 -0.77788043
vn 0.894502521 0.0402303711 -0.44524914
vn -0.530926406 0.366378963 -0.764122784
vn -0.328742802 0.217228293 -0.919097364
vn 0.6104182 0.450857729 -0.651242614
vn -0.488132447 -0.415879041 -0.767314315
vn -0.597295642 0.195294857 -0.77788043
vn -0.309902549 -0.0956612006 -0.945943594
vn -0.673374772 -0.198703185 -0.712097943
vn -0.253071189 -0.601569831 -0.757673264
vn -0.309902549 -0.0956612006 -0.945943594
vn -0.253071189 -0.601569831 -0.757673264
vn 0.709017634 0.518356502 -0.478121907
vn 0.298021495 0.683313608 -0.666532516
vn -0.253071189 -0.601569831 -0.757673264
vn 0.298021495 0.683313608 -0.666532516
vn -0.212882981 -0.209898576 -0.954265893
vn 0.0757802948 0.892719567 -0.444194943
vn -0.212882981 -0.209898576 -0.954265893
vn -0.479410529 -0.53775543 -0.6935305
vn -0.537913322 -0.320759654 -0.779591203
vn -0.387830675 0.732250214 -0.559818685
vn -0.387830675 0.732250214 -0.559818685
vn -0.274869561 0.195756719 -0.941342711
vn -0.173952147 0.368724078 -0.913117349
vn -0.530926406 0.366378963 -0.764122784
vn -0.0289404131 0.555602193 -0.830944479
vn -0.59540987 0.0531710498 -0.801660717
vn -0.597295642 0.195294857 -0.77788043
vn -0.338136792 0.24230276 -0.909369469
vn -0.328742802 0.217228293 -0.919097364
vn -0.530926406 0.366378963 -0.764122784
vn -0.488132447 -0.415879041 -0.767314315
vn -0.487264603 -0.136494309 -0.862521052
vn -0.673374772 -0.198703185 -0.712097943
vn -0.253071189 -0.601569831 -0.757673264
vn -0.681936264 -0.629217267 -0.372892141
vn -0.309902549 -0.0956612006 -0.945943594
vn -0.479410529 -0.53775543 -0.6935305
vn -0.537913322 -0.320759654 -0.779591203
vn -0.879709005 -0.461289763 -0.115428582
vn -0.212882981 -0.209898576 -0.954265893
vn -0.0407549888 0.565519035 -0.823727667
vn -0.0289404131 0.555602193 -0.830944479
vn -0.716564655 0.377571464 -0.58649379
vn -0.810635626 0.511872888 -0.284351885
vn -0.819356084 -0.0854137093 -0.566886246
vn -0.735607505 0.602791548 -0.309069455
vn -0 0.400196195 -0.91642952
vn -0 0.400196195 -0.91642952
vn 0.363022745 0.0899175853 -0.927431524
vn -0.879709005 -0.461289763 -0.115428582
vn -0.984155953 -0.112899385 -0.136714503
vn -0.537913322 -0.320759654 -0.779591203
vn -0.295438886 0.951061189 -0.0905450359
vn -0.0407549888 0.565519035 -0.823727667
vn -0.716564655 0.377571464 -0.58649379
vn 0.0970266536 0.803250968 0.587684989
vn 0.0610190406 0.492709309 0.868051887
vn -0 -0.261021078 0.965333164
vn -0 0.274696201 0.961531103
vn -0.0925079286 0.927963793 -0.361006081
vn -0 0.837620795 -0.546252072
vn -0.481895655 0.458420724 -0.746744215
vn -0 0.549418569 -0.835547268
vn -0 0.472884387 -0.881124556
vn -0.732844591 -0.0274711326 -0.67984128
vn -0 -0.0456324555 -0.998958349
vn -0 0.837620795 -0.546252072
vn 0.363022745 0.0899175853 -0.927431524
vn -0 0.400196195 -0.91642952
vn -0 -0.597875953 -0.801588714
vn -0 -0.130177766 -0.991490662
vn -0 -0.0456324555 -0.998958349
vn -0.732844591 -0.0274711326 -0.67984128
vn -0.481895655 0.458420724 -0.746744215
vn -0.720235348 0.401999831 0.565382242
vn -0 0.837620795 -0.546252072
vn -0 -0.165665776 -0.986181855
vn 0.0464944467 -0.966957211 0.25066328
vn 0.0453901142 0.196469322 -0.979458749
vn -0.143710956 0.48252517 -0.864011943
vn -0.581325531 0.285002321 -0.762124896
vn 0.798049212 0.492630869 -0.34703353
vn 0.672379196 -0.74019134 -0.00478758244
vn 0.690752566 -0.719903827 -0.067818366
vn 0.636438847 -0.707731783 -0.306694239
vn -0 -0.583935916 -0.811799705
vn -0 0.573938251 -0.818898618
vn 0.636438847 -0.707731783 -0.306694239
vn 0.674906909 0.737111926 -0.0341557749
vn -0 0.993303835 -0.115531273
vn -0 0.999998212 -0.00191476743
vn 0.691211522 0.71645385 -0.094448559
vn -0 0.97777164 -0.209672719
vn 0.691211522 0.71645385 -0.094448559
vn 0.698636293 0.704716146 -0.123622261
vn -0 -0.165665776 -0.986181855
vn 0.698636293 0.704716146 -0.123622261
vn 0.782511473 0.579427183 -0.227903381
vn 0.634077132 0.712337673 -0.300867677
vn -0 0.575923443 -0.817503691
vn 0.674906909 0.737111926 -0.0341557749
vn -0 0.575923443 -0.817503691
vn -0 -0.591607094 -0.806226552
vn 0.634077132 0.712337673 -0.300867677
vn -0 0.432146221 -0.901803613
vn 0.690634608 -0.638707995 -0.339228481
vn -0 -0.912749529 -0.408519685
vn 0.869407892 -0.434482455 -0.235276327
vn 0.673658609 -0.727112055 -0.132258296
vn -0 -0.984468162 -0.175563201
vn 0.690752566 -0.719903827 -0.067818366
vn 0.690752566 -0.719903827 -0.067818366
vn -0 -0.993203759 -0.116388738
vn 0.672379196 -0.74019134 -0.00478758244
vn -0 -0.999987602 -0.00498394854
vn 0.673658609 -0.727112055 -0.132258296
vn 0.690634608 -0.638707995 -0.339228481
vn 0.636438847 -0.707731783 -0.306694239
vn -0 -0.583935916 -0.811799705
vn 0.672379196 -0.74019134 -0.00478758244
vn -0.379602104 0.537782967 0.752789378
vn -0.379602045 0.537782967 0.752789259
vn -0.379602045 0.537782967 0.752789259
vn 0.379602045 0.537782967 0.752789259
vn 0.379602045 0.537782967 0.752789259
vn 0.379602045 0.537782967 0.752789259
g Green_war_m_pve_3_pelvis_0
f 3/3/3 2/2/2 1/1/1
f 2/2/2 4/4/4 1/1/1
f 4/4/4 5/5/5 1/1/1
f 1/1/1 6/6/6 3/3/3
f 7/7/7 3/3/3 6/6/6
f 6/6/6 8/8/8 7/7/7
f 9/9/9 7/7/7 8/8/8
f 8/8/8 10/10/10 9/9/9
f 11/11/11 9/9/9 10/10/10
f 10/10/10 12/12/12 11/11/11
f 13/13/13 11/11/11 12/12/12
f 4/4/4 14/14/14 5/5/5
f 15/15/15 5/5/5 14/14/14
f 5/5/5 16/16/16 1/1/1
f 8/8/8 17/17/17 10/10/10
f 17/17/17 8/8/8 18/18/18
f 6/6/6 19/19/19 8/8/8
f 19/19/19 6/6/6 20/20/20
f 10/10/10 21/21/21 12/12/12
f 21/21/21 10/10/10 22/22/22
f 23/23/23 12/12/12 21/21/21
f 11/11/11 24/24/24 9/9/9
f 25/25/25 9/9/9 24/24/24
f 24/24/24 11/11/11 26/26/26
f 13/13/13 26/26/26 11/11/11
f 25/25/25 24/24/24 27/27/27
f 27/27/27 28/28/28 25/25/25
f 24/24/24 26/26/26 29/29/29
f 29/29/29 30/30/30 24/24/24
f 31/31/31 29/29/29 26/26/26
f 32/32/32 7/7/7 25/25/25
f 9/9/9 25/25/25 7/7/7
f 7/7/7 32/32/32 3/3/3
f 33/33/33 3/3/3 32/32/32
f 2/2/2 3/3/3 33/33/33
f 34/34/34 2/2/2 33/33/33
f 35/35/35 34/34/34 33/33/33
f 34/34/34 35/35/35 36/36/36
f 37/37/37 36/36/36 35/35/35
f 35/35/35 33/33/33 38/38/38
f 36/36/36 39/39/39 34/34/34
f 2/2/2 34/34/34 39/39/39
f 2/2/2 39/39/39 4/4/4
f 14/14/14 4/4/4 39/39/39
f 32/32/32 25/25/25 40/40/40
f 42/42/42 32/32/32 41/41/41
f 41/41/41 43/43/43 42/42/42
f 46/46/46 45/45/45 44/44/44
f 45/45/45 46/46/46 6/6/6
f 49/49/49 48/48/48 47/47/47
f 50/50/50 47/47/47 48/48/48
f 47/47/47 51/51/51 49/49/49
f 51/51/51 47/47/47 52/52/52
f 53/53/53 52/52/52 47/47/47
f 47/47/47 50/50/50 53/53/53
f 54/54/54 49/49/49 51/51/51
f 51/51/51 55/55/55 54/54/54
f 56/56/56 54/54/54 55/55/55
f 57/57/57 53/53/53 50/50/50
f 48/48/48 49/49/49 58/58/58
f 58/58/58 49/49/49 59/59/59
f 49/49/49 60/60/60 59/59/59
f 49/49/49 54/54/54 60/60/60
f 61/61/61 60/60/60 54/54/54
f 52/52/52 53/53/53 62/62/62
f 62/62/62 63/63/63 52/52/52
f 64/64/64 52/52/52 63/63/63
f 52/52/52 64/64/64 51/51/51
f 55/55/55 51/51/51 64/64/64
f 64/64/64 65/65/65 55/55/55
f 66/66/66 55/55/55 65/65/65
f 67/67/67 62/62/62 53/53/53
f 53/53/53 57/57/57 67/67/67
f 68/68/68 67/67/67 57/57/57
f 61/61/61 69/69/69 60/60/60
f 70/70/70 60/60/60 69/69/69
f 60/60/60 70/70/70 59/59/59
f 70/70/70 69/69/69 71/71/71
f 72/72/72 70/70/70 71/71/71
f 73/73/73 70/70/70 72/72/72
f 74/74/74 59/59/59 70/70/70
f 61/61/61 75/75/75 69/69/69
f 76/76/76 69/69/69 75/75/75
f 75/75/75 77/77/77 76/76/76
f 64/64/64 63/63/63 78/78/78
f 71/71/71 69/69/69 79/79/79
f 80/80/80 79/79/79 69/69/69
f 76/76/76 80/80/80 69/69/69
f 80/80/80 81/81/81 79/79/79
f 82/82/82 79/79/79 81/81/81
f 82/82/82 83/83/83 79/79/79
f 84/84/84 79/79/79 83/83/83
f 79/79/79 84/84/84 71/71/71
f 81/81/81 85/85/85 82/82/82
f 86/86/86 71/71/71 84/84/84
f 86/86/86 87/87/87 71/71/71
f 88/88/88 77/77/77 75/75/75
f 88/88/88 89/89/89 77/77/77
f 90/90/90 77/77/77 89/89/89
f 80/80/80 76/76/76 91/91/91
f 77/77/77 91/91/91 76/76/76
f 80/80/80 91/91/91 81/81/81
f 77/77/77 92/92/92 91/91/91
f 93/93/93 81/81/81 91/91/91
f 91/91/91 94/94/94 93/93/93
f 92/92/92 94/94/94 91/91/91
f 93/93/93 95/95/95 81/81/81
f 96/96/96 71/71/71 87/87/87
f 88/88/88 98/98/98 97/97/97
f 99/99/99 97/97/97 98/98/98
f 98/98/98 88/88/88 75/75/75
f 75/75/75 100/100/100 98/98/98
f 100/100/100 75/75/75 61/61/61
f 100/100/100 61/61/61 101/101/101
f 54/54/54 101/101/101 61/61/61
f 102/102/102 98/98/98 100/100/100
f 102/102/102 99/99/99 103/103/103
f 56/56/56 101/101/101 54/54/54
f 101/101/101 104/104/104 100/100/100
f 102/102/102 100/100/100 104/104/104
f 105/105/105 102/102/102 104/104/104
f 104/104/104 101/101/101 106/106/106
f 101/101/101 56/56/56 106/106/106
f 106/106/106 56/56/56 107/107/107
f 106/106/106 107/107/107 108/108/108
f 109/109/109 108/108/108 107/107/107
f 107/107/107 110/110/110 109/109/109
f 107/107/107 56/56/56 110/110/110
f 104/104/104 106/106/106 111/111/111
f 112/112/112 111/111/111 106/106/106
f 56/56/56 55/55/55 110/110/110
f 110/110/110 55/55/55 113/113/113
f 113/113/113 55/55/55 66/66/66
f 110/110/110 113/113/113 114/114/114
f 114/114/114 115/115/115 110/110/110
f 116/116/116 114/114/114 113/113/113
f 66/66/66 117/117/117 113/113/113
f 117/117/117 66/66/66 118/118/118
f 119/119/119 113/113/113 117/117/117
f 121/121/121 120/120/120 66/66/66
f 121/121/121 123/123/123 122/122/122
f 125/125/125 122/122/122 124/124/124
f 124/124/124 127/127/127 126/126/126
f 128/128/128 126/126/126 127/127/127
f 128/128/128 127/127/127 129/129/129
f 130/130/130 129/129/129 127/127/127
f 127/127/127 124/124/124 64/64/64
f 124/124/124 65/65/65 64/64/64
f 127/127/127 64/64/64 131/131/131
f 134/134/134 133/133/133 132/132/132
f 133/133/133 135/135/135 132/132/132
f 135/135/135 136/136/136 132/132/132
f 138/138/138 137/137/137 132/132/132
f 137/137/137 139/139/139 132/132/132
f 139/139/139 140/140/140 132/132/132
f 139/139/139 141/141/141 140/140/140
f 142/142/142 140/140/140 141/141/141
f 142/142/142 141/141/141 143/143/143
f 143/143/143 144/144/144 142/142/142
f 145/145/145 142/142/142 144/144/144
f 146/146/146 143/143/143 141/141/141
f 145/145/145 144/144/144 147/147/147
f 147/147/147 148/148/148 145/145/145
f 149/149/149 145/145/145 148/148/148
f 150/150/150 147/147/147 144/144/144
f 153/153/153 152/152/152 151/151/151
f 155/155/155 151/151/151 154/154/154
f 155/155/155 156/156/156 151/151/151
f 134/134/134 151/151/151 156/156/156
f 156/156/156 157/157/157 134/134/134
f 158/158/158 134/134/134 157/157/157
f 158/158/158 159/159/159 134/134/134
f 162/162/162 161/161/161 160/160/160
f 163/163/163 160/160/160 161/161/161
f 161/161/161 162/162/162 164/164/164
f 165/165/165 164/164/164 162/162/162
f 165/165/165 166/166/166 164/164/164
f 165/165/165 167/167/167 166/166/166
f 168/168/168 166/166/166 167/167/167
f 167/167/167 169/169/169 168/168/168
f 169/169/169 167/167/167 170/170/170
f 171/171/171 164/164/164 166/166/166
f 171/171/171 166/166/166 172/172/172
f 173/173/173 172/172/172 166/166/166
f 166/166/166 168/168/168 173/173/173
f 164/164/164 171/171/171 174/174/174
f 161/161/161 164/164/164 174/174/174
f 175/175/175 174/174/174 171/171/171
f 175/175/175 171/171/171 176/176/176
f 175/175/175 177/177/177 174/174/174
f 177/177/177 175/175/175 178/178/178
f 179/179/179 178/178/178 175/175/175
f 178/178/178 179/179/179 180/180/180
f 180/180/180 181/181/181 178/178/178
f 178/178/178 181/181/181 182/182/182
f 183/183/183 182/182/182 181/181/181
f 184/184/184 180/180/180 179/179/179
f 182/182/182 185/185/185 178/178/178
f 177/177/177 178/178/178 185/185/185
f 185/185/185 186/186/186 177/177/177
f 187/187/187 177/177/177 186/186/186
f 187/187/187 174/174/174 177/177/177
f 185/185/185 188/188/188 186/186/186
f 185/185/185 182/182/182 188/188/188
f 189/189/189 186/186/186 188/188/188
f 186/186/186 189/189/189 190/190/190
f 190/190/190 189/189/189 191/191/191
f 189/189/189 192/192/192 191/191/191
f 189/189/189 193/193/193 192/192/192
f 194/194/194 192/192/192 193/193/193
f 193/193/193 195/195/195 194/194/194
f 188/188/188 195/195/195 189/189/189
f 196/196/196 194/194/194 195/195/195
f 195/195/195 197/197/197 196/196/196
f 198/198/198 196/196/196 197/197/197
f 199/199/199 195/195/195 193/193/193
f 195/195/195 188/188/188 200/200/200
f 200/200/200 201/201/201 195/195/195
f 202/202/202 195/195/195 201/201/201
f 191/191/191 203/203/203 190/190/190
f 203/203/203 191/191/191 204/204/204
f 204/204/204 191/191/191 205/205/205
f 206/206/206 205/205/205 191/191/191
f 192/192/192 206/206/206 191/191/191
f 203/203/203 204/204/204 207/207/207
f 208/208/208 207/207/207 204/204/204
f 204/204/204 205/205/205 208/208/208
f 208/208/208 209/209/209 207/207/207
f 210/210/210 207/207/207 209/209/209
f 210/210/210 211/211/211 207/207/207
f 212/212/212 207/207/207 211/211/211
f 209/209/209 213/213/213 210/210/210
f 214/214/214 210/210/210 213/213/213
f 211/211/211 210/210/210 215/215/215
f 214/214/214 215/215/215 210/210/210
f 213/213/213 216/216/216 214/214/214
f 217/217/217 214/214/214 216/216/216
f 215/215/215 214/214/214 218/218/218
f 217/217/217 218/218/218 214/214/214
f 218/218/218 219/219/219 215/215/215
f 219/219/219 220/220/220 215/215/215
f 221/221/221 215/215/215 220/220/220
f 215/215/215 221/221/221 211/211/211
f 220/220/220 222/222/222 221/221/221
f 220/220/220 219/219/219 223/223/223
f 224/224/224 223/223/223 219/219/219
f 219/219/219 218/218/218 224/224/224
f 223/223/223 224/224/224 225/225/225
f 226/226/226 225/225/225 224/224/224
f 218/218/218 217/217/217 227/227/227
f 227/227/227 224/224/224 218/218/218
f 226/226/226 224/224/224 227/227/227
f 228/228/228 227/227/227 217/217/217
f 227/227/227 228/228/228 226/226/226
f 228/228/228 217/217/217 216/216/216
f 216/216/216 213/213/213 229/229/229
f 230/230/230 229/229/229 213/213/213
f 228/228/228 216/216/216 231/231/231
f 229/229/229 231/231/231 216/216/216
f 231/231/231 232/232/232 228/228/228
f 213/213/213 209/209/209 230/230/230
f 223/223/223 225/225/225 233/233/233
f 223/223/223 233/233/233 234/234/234
f 235/235/235 234/234/234 233/233/233
f 235/235/235 233/233/233 236/236/236
f 237/237/237 236/236/236 233/233/233
f 237/237/237 233/233/233 225/225/225
f 235/235/235 238/238/238 234/234/234
f 238/238/238 239/239/239 234/234/234
f 239/239/239 240/240/240 234/234/234
f 236/236/236 241/241/241 235/235/235
f 238/238/238 235/235/235 241/241/241
f 230/230/230 209/209/209 242/242/242
f 243/243/243 242/242/242 209/209/209
f 243/243/243 209/209/209 208/208/208
f 243/243/243 208/208/208 205/205/205
f 244/244/244 242/242/242 243/243/243
f 205/205/205 245/245/245 243/243/243
f 244/244/244 243/243/243 245/245/245
f 206/206/206 245/245/245 205/205/205
f 247/247/247 246/246/246 234/234/234
f 222/222/222 234/234/234 246/246/246
f 222/222/222 220/220/220 234/234/234
f 223/223/223 234/234/234 220/220/220
f 240/240/240 249/249/249 248/248/248
f 249/249/249 250/250/250 248/248/248
f 250/250/250 251/251/251 248/248/248
f 251/251/251 252/252/252 248/248/248
f 251/251/251 253/253/253 252/252/252
f 254/254/254 252/252/252 253/253/253
f 255/255/255 248/248/248 252/252/252
f 250/250/250 256/256/256 251/251/251
f 253/253/253 251/251/251 256/256/256
f 254/254/254 257/257/257 252/252/252
f 255/255/255 252/252/252 257/257/257
f 255/255/255 257/257/257 258/258/258
f 258/258/258 259/259/259 255/255/255
f 260/260/260 255/255/255 259/259/259
f 255/255/255 260/260/260 248/248/248
f 259/259/259 261/261/261 260/260/260
f 259/259/259 262/262/262 261/261/261
f 259/259/259 258/258/258 262/262/262
f 263/263/263 260/260/260 261/261/261
f 264/264/264 260/260/260 263/263/263
f 265/265/265 258/258/258 257/257/257
f 261/261/261 262/262/262 266/266/266
f 266/266/266 267/267/267 261/261/261
f 266/266/266 268/268/268 267/267/267
f 269/269/269 267/267/267 268/268/268
f 267/267/267 269/269/269 270/270/270
f 271/271/271 270/270/270 269/269/269
f 271/271/271 272/272/272 270/270/270
f 273/273/273 270/270/270 272/272/272
f 274/274/274 273/273/273 272/272/272
f 272/272/272 275/275/275 274/274/274
f 272/272/272 271/271/271 275/275/275
f 276/276/276 274/274/274 275/275/275
f 267/267/267 270/270/270 277/277/277
f 278/278/278 277/277/277 270/270/270
f 277/277/277 261/261/261 267/267/267
f 268/268/268 266/266/266 279/279/279
f 280/280/280 279/279/279 266/266/266
f 280/280/280 266/266/266 262/262/262
f 262/262/262 281/281/281 280/280/280
f 282/282/282 280/280/280 281/281/281
f 280/280/280 282/282/282 279/279/279
f 281/281/281 265/265/265 282/282/282
f 283/283/283 275/275/275 271/271/271
f 282/282/282 284/284/284 279/279/279
f 285/285/285 279/279/279 284/284/284
f 279/279/279 285/285/285 268/268/268
f 286/286/286 268/268/268 285/285/285
f 284/284/284 282/282/282 287/287/287
f 281/281/281 262/262/262 258/258/258
f 258/258/258 265/265/265 281/281/281
f 269/269/269 268/268/268 286/286/286
f 269/269/269 283/283/283 271/271/271
f 269/269/269 286/286/286 288/288/288
f 288/288/288 283/283/283 269/269/269
f 288/288/288 289/289/289 283/283/283
f 289/289/289 290/290/290 283/283/283
f 275/275/275 283/283/283 290/290/290
f 290/290/290 276/276/276 275/275/275
f 292/292/292 282/282/282 291/291/291
f 292/292/292 293/293/293 282/282/282
f 294/294/294 284/284/284 293/293/293
f 276/276/276 295/295/295 274/274/274
f 295/295/295 296/296/296 274/274/274
f 296/296/296 297/297/297 274/274/274
f 296/296/296 298/298/298 297/297/297
f 296/296/296 295/295/295 299/299/299
f 300/300/300 299/299/299 295/295/295
f 299/299/299 300/300/300 301/301/301
f 302/302/302 301/301/301 300/300/300
f 303/303/303 301/301/301 302/302/302
f 302/302/302 304/304/304 303/303/303
f 301/301/301 305/305/305 299/299/299
f 301/301/301 306/306/306 296/296/296
f 296/296/296 306/306/306 298/298/298
f 306/306/306 301/301/301 307/307/307
f 307/307/307 301/301/301 308/308/308
f 309/309/309 308/308/308 301/301/301
f 274/274/274 297/297/297 273/273/273
f 310/310/310 273/273/273 297/297/297
f 273/273/273 310/310/310 270/270/270
f 278/278/278 270/270/270 310/310/310
f 307/307/307 311/311/311 306/306/306
f 311/311/311 307/307/307 312/312/312
f 313/313/313 312/312/312 307/307/307
f 314/314/314 306/306/306 311/311/311
f 311/311/311 315/315/315 314/314/314
f 315/315/315 311/311/311 316/316/316
f 317/317/317 316/316/316 311/311/311
f 316/316/316 318/318/318 315/315/315
f 315/315/315 318/318/318 319/319/319
f 320/320/320 319/319/319 318/318/318
f 319/319/319 321/321/321 315/315/315
f 322/322/322 315/315/315 321/321/321
f 322/322/322 314/314/314 315/315/315
f 314/314/314 322/322/322 298/298/298
f 323/323/323 298/298/298 322/322/322
f 323/323/323 322/322/322 324/324/324
f 321/321/321 324/324/324 322/322/322
f 321/321/321 325/325/325 324/324/324
f 321/321/321 326/326/326 325/325/325
f 327/327/327 324/324/324 325/325/325
f 314/314/314 298/298/298 306/306/306
f 325/325/325 328/328/328 327/327/327
f 325/325/325 329/329/329 328/328/328
f 173/173/173 328/328/328 329/329/329
f 330/330/330 327/327/327 328/328/328
f 330/330/330 328/328/328 331/331/331
f 332/332/332 331/331/331 328/328/328
f 328/328/328 173/173/173 332/332/332
f 333/333/333 331/331/331 332/332/332
f 331/331/331 333/333/333 334/334/334
f 324/324/324 335/335/335 323/323/323
f 327/327/327 335/335/335 324/324/324
f 335/335/335 327/327/327 336/336/336
f 336/336/336 337/337/337 335/335/335
f 338/338/338 335/335/335 337/337/337
f 339/339/339 336/336/336 327/327/327
f 338/338/338 323/323/323 335/335/335
f 332/332/332 340/340/340 333/333/333
f 340/340/340 332/332/332 173/173/173
f 341/341/341 333/333/333 340/340/340
f 342/342/342 173/173/173 168/168/168
f 168/168/168 169/169/169 342/342/342
f 343/343/343 342/342/342 169/169/169
f 323/323/323 344/344/344 298/298/298
f 346/346/346 345/345/345 298/298/298
f 297/297/297 298/298/298 345/345/345
f 297/297/297 345/345/345 310/310/310
f 347/347/347 310/310/310 345/345/345
f 347/347/347 278/278/278 310/310/310
f 347/347/347 348/348/348 278/278/278
f 277/277/277 278/278/278 348/348/348
f 348/348/348 263/263/263 277/277/277
f 261/261/261 277/277/277 263/263/263
f 63/63/63 62/62/62 349/349/349
f 350/350/350 349/349/349 62/62/62
f 349/349/349 351/351/351 63/63/63
f 78/78/78 63/63/63 351/351/351
f 350/350/350 62/62/62 352/352/352
f 67/67/67 352/352/352 62/62/62
f 354/354/354 81/81/81 353/353/353
f 355/355/355 68/68/68 57/57/57
f 356/356/356 68/68/68 355/355/355
f 358/358/358 356/356/356 357/357/357
f 360/360/360 176/176/176 359/359/359
f 175/175/175 176/176/176 361/361/361
f 175/175/175 361/361/361 179/179/179
f 361/361/361 362/362/362 179/179/179
f 363/363/363 179/179/179 362/362/362
f 179/179/179 363/363/363 364/364/364
f 365/365/365 364/364/364 363/363/363
f 361/361/361 366/366/366 362/362/362
f 182/182/182 367/367/367 200/200/200
f 368/368/368 200/200/200 367/367/367
f 200/200/200 188/188/188 182/182/182
f 370/370/370 369/369/369 238/238/238
f 370/370/370 238/238/238 371/371/371
f 372/372/372 371/371/371 238/238/238
f 374/374/374 373/373/373 228/228/228
f 374/374/374 228/228/228 375/375/375
f 231/231/231 376/376/376 375/375/375
f 212/212/212 377/377/377 207/207/207
f 203/203/203 207/207/207 377/377/377
f 377/377/377 190/190/190 203/203/203
f 190/190/190 377/377/377 378/378/378
f 190/190/190 378/378/378 186/186/186
f 379/379/379 186/186/186 378/378/378
f 380/380/380 378/378/378 377/377/377
f 212/212/212 380/380/380 377/377/377
f 380/380/380 212/212/212 381/381/381
f 211/211/211 381/381/381 212/212/212
f 381/381/381 211/211/211 221/221/221
f 382/382/382 187/187/187 186/186/186
f 163/163/163 161/161/161 187/187/187
f 174/174/174 187/187/187 161/161/161
f 385/385/385 384/384/384 383/383/383
f 73/73/73 386/386/386 70/70/70
f 386/386/386 387/387/387 70/70/70
f 70/70/70 387/387/387 74/74/74
f 389/389/389 388/388/388 196/196/196
f 390/390/390 196/196/196 388/388/388
f 390/390/390 194/194/194 196/196/196
f 393/393/393 392/392/392 391/391/391
f 391/391/391 392/392/392 394/394/394
f 395/395/395 394/394/394 392/392/392
f 394/394/394 395/395/395 396/396/396
f 397/397/397 396/396/396 395/395/395
f 396/396/396 397/397/397 398/398/398
f 399/399/399 398/398/398 397/397/397
f 398/398/398 399/399/399 400/400/400
f 401/401/401 400/400/400 399/399/399
f 393/393/393 391/391/391 402/402/402
f 403/403/403 402/402/402 391/391/391
f 391/391/391 394/394/394 403/403/403
f 396/396/396 398/398/398 404/404/404
f 394/394/394 396/396/396 405/405/405
f 404/404/404 406/406/406 396/396/396
f 406/406/406 407/407/407 394/394/394
f 398/398/398 400/400/400 408/408/408
f 408/408/408 409/409/409 398/398/398
f 399/399/399 397/397/397 410/410/410
f 411/411/411 410/410/410 397/397/397
f 397/397/397 395/395/395 411/411/411
f 412/412/412 411/411/411 395/395/395
f 395/395/395 392/392/392 412/412/412
f 413/413/413 412/412/412 392/392/392
f 392/392/392 414/414/414 413/413/413
f 414/414/414 415/415/415 413/413/413
f 416/416/416 413/413/413 415/415/415
f 413/413/413 416/416/416 412/412/412
f 411/411/411 417/417/417 410/410/410
f 417/417/417 411/411/411 418/418/418
f 412/412/412 419/419/419 411/411/411
f 419/419/419 412/412/412 420/420/420
f 421/421/421 415/415/415 414/414/414
f 422/422/422 414/414/414 392/392/392
f 393/393/393 422/422/422 392/392/392
f 393/393/393 423/423/423 422/422/422
f 424/424/424 414/414/414 422/422/422
f 426/426/426 425/425/425 393/393/393
f 428/428/428 427/427/427 400/400/400
f 430/430/430 400/400/400 429/429/429
f 431/431/431 429/429/429 400/400/400
f 434/434/434 433/433/433 432/432/432
f 435/435/435 432/432/432 433/433/433
f 433/433/433 437/437/437 436/436/436
f 438/438/438 436/436/436 437/437/437
f 436/436/436 440/440/440 439/439/439
f 441/441/441 439/439/439 440/440/440
f 443/443/443 435/435/435 442/442/442
f 444/444/444 442/442/442 435/435/435
f 446/446/446 445/445/445 12/12/12
f 447/447/447 12/12/12 445/445/445
f 450/450/450 449/449/449 448/448/448
f 451/451/451 448/448/448 449/449/449
f 453/453/453 452/452/452 451/451/451
f 455/455/455 451/451/451 454/454/454
f 454/454/454 456/456/456 455/455/455
f 457/457/457 455/455/455 456/456/456
f 456/456/456 458/458/458 457/457/457
f 459/459/459 457/457/457 458/458/458
f 458/458/458 460/460/460 459/459/459
f 461/461/461 459/459/459 460/460/460
f 463/463/463 462/462/462 32/32/32
f 466/466/466 465/465/465 464/464/464
f 467/467/467 464/464/464 465/465/465
f 464/464/464 467/467/467 468/468/468
f 468/468/468 469/469/469 464/464/464
f 470/470/470 464/464/464 469/469/469
f 464/464/464 470/470/470 466/466/466
f 471/471/471 468/468/468 467/467/467
f 468/468/468 471/471/471 472/472/472
f 473/473/473 472/472/472 471/471/471
f 474/474/474 466/466/466 470/470/470
f 465/465/465 475/475/475 467/467/467
f 467/467/467 475/475/475 476/476/476
f 477/477/477 467/467/467 476/476/476
f 467/467/467 477/477/477 471/471/471
f 478/478/478 471/471/471 477/477/477
f 469/469/469 479/479/479 470/470/470
f 479/479/479 469/469/469 480/480/480
f 481/481/481 480/480/480 469/469/469
f 472/472/472 481/481/481 468/468/468
f 469/469/469 468/468/468 481/481/481
f 481/481/481 472/472/472 482/482/482
f 483/483/483 482/482/482 472/472/472
f 484/484/484 470/470/470 479/479/479
f 470/470/470 484/484/484 474/474/474
f 485/485/485 474/474/474 484/484/484
f 478/478/478 477/477/477 486/486/486
f 487/487/487 486/486/486 477/477/477
f 477/477/477 476/476/476 487/487/487
f 486/486/486 487/487/487 488/488/488
f 487/487/487 489/489/489 488/488/488
f 490/490/490 489/489/489 487/487/487
f 491/491/491 487/487/487 476/476/476
f 478/478/478 486/486/486 492/492/492
f 493/493/493 492/492/492 486/486/486
f 494/494/494 492/492/492 493/493/493
f 480/480/480 481/481/481 495/495/495
f 488/488/488 496/496/496 486/486/486
f 497/497/497 486/486/486 496/496/496
f 497/497/497 493/493/493 486/486/486
f 497/497/497 496/496/496 498/498/498
f 499/499/499 498/498/498 496/496/496
f 489/489/489 500/500/500 488/488/488
f 501/501/501 488/488/488 500/500/500
f 499/499/499 496/496/496 502/502/502
f 503/503/503 502/502/502 496/496/496
f 501/501/501 503/503/503 488/488/488
f 496/496/496 488/488/488 503/503/503
f 504/504/504 498/498/498 499/499/499
f 494/494/494 505/505/505 492/492/492
f 505/505/505 494/494/494 506/506/506
f 507/507/507 506/506/506 494/494/494
f 494/494/494 493/493/493 508/508/508
f 497/497/497 508/508/508 493/493/493
f 497/497/497 498/498/498 508/508/508
f 509/509/509 494/494/494 508/508/508
f 510/510/510 508/508/508 498/498/498
f 511/511/511 508/508/508 510/510/510
f 511/511/511 509/509/509 508/508/508
f 510/510/510 498/498/498 512/512/512
f 505/505/505 514/514/514 513/513/513
f 515/515/515 513/513/513 514/514/514
f 505/505/505 513/513/513 492/492/492
f 492/492/492 513/513/513 516/516/516
f 492/492/492 516/516/516 478/478/478
f 516/516/516 517/517/517 478/478/478
f 471/471/471 478/478/478 517/517/517
f 518/518/518 516/516/516 513/513/513
f 515/515/515 518/518/518 519/519/519
f 517/517/517 473/473/473 471/471/471
f 518/518/518 520/520/520 516/516/516
f 517/517/517 516/516/516 520/520/520
f 518/518/518 521/521/521 520/520/520
f 517/517/517 520/520/520 522/522/522
f 473/473/473 517/517/517 522/522/522
f 473/473/473 522/522/522 523/523/523
f 522/522/522 524/524/524 523/523/523
f 525/525/525 523/523/523 524/524/524
f 523/523/523 525/525/525 526/526/526
f 473/473/473 523/523/523 526/526/526
f 520/520/520 527/527/527 522/522/522
f 528/528/528 522/522/522 527/527/527
f 472/472/472 473/473/473 526/526/526
f 472/472/472 526/526/526 529/529/529
f 472/472/472 529/529/529 483/483/483
f 526/526/526 530/530/530 529/529/529
f 530/530/530 526/526/526 531/531/531
f 532/532/532 529/529/529 530/530/530
f 483/483/483 529/529/529 533/533/533
f 533/533/533 534/534/534 483/483/483
f 535/535/535 533/533/533 529/529/529
f 537/537/537 483/483/483 536/536/536
f 537/537/537 539/539/539 538/538/538
f 541/541/541 540/540/540 539/539/539
f 540/540/540 543/543/543 542/542/542
f 544/544/544 542/542/542 543/543/543
f 544/544/544 545/545/545 542/542/542
f 546/546/546 542/542/542 545/545/545
f 540/540/540 542/542/542 481/481/481
f 482/482/482 540/540/540 481/481/481
f 481/481/481 542/542/542 547/547/547
f 550/550/550 549/549/549 548/548/548
f 549/549/549 551/551/551 548/548/548
f 551/551/551 552/552/552 548/548/548
f 554/554/554 553/553/553 548/548/548
f 553/553/553 555/555/555 548/548/548
f 555/555/555 556/556/556 548/548/548
f 553/553/553 554/554/554 557/557/557
f 558/558/558 557/557/557 554/554/554
f 558/558/558 559/559/559 557/557/557
f 559/559/559 558/558/558 560/560/560
f 561/561/561 560/560/560 558/558/558
f 562/562/562 557/557/557 559/559/559
f 561/561/561 563/563/563 560/560/560
f 563/563/563 561/561/561 564/564/564
f 565/565/565 564/564/564 561/561/561
f 566/566/566 560/560/560 563/563/563
f 568/568/568 567/567/567 552/552/552
f 567/567/567 569/569/569 552/552/552
f 570/570/570 552/552/552 569/569/569
f 552/552/552 570/570/570 571/571/571
f 572/572/572 571/571/571 570/570/570
f 572/572/572 573/573/573 571/571/571
f 575/575/575 571/571/571 574/574/574
f 577/577/577 479/479/479 576/576/576
f 480/480/480 576/576/576 479/479/479
f 576/576/576 480/480/480 578/578/578
f 495/495/495 578/578/578 480/480/480
f 577/577/577 579/579/579 479/479/479
f 484/484/484 479/479/479 579/579/579
f 581/581/581 580/580/580 498/498/498
f 485/485/485 582/582/582 474/474/474
f 485/485/485 583/583/583 582/582/582
f 583/583/583 585/585/585 584/584/584
f 587/587/587 586/586/586 326/326/326
f 321/321/321 588/588/588 326/326/326
f 588/588/588 321/321/321 319/319/319
f 588/588/588 319/319/319 589/589/589
f 590/590/590 589/589/589 319/319/319
f 319/319/319 591/591/591 590/590/590
f 592/592/592 590/590/590 591/591/591
f 593/593/593 588/588/588 589/589/589
f 264/264/264 594/594/594 248/248/248
f 595/595/595 248/248/248 594/594/594
f 264/264/264 248/248/248 260/260/260
f 597/597/597 596/596/596 250/250/250
f 596/596/596 598/598/598 250/250/250
f 599/599/599 250/250/250 598/598/598
f 602/602/602 601/601/601 600/600/600
f 490/490/490 487/487/487 603/603/603
f 603/603/603 487/487/487 604/604/604
f 604/604/604 487/487/487 491/491/491
f 606/606/606 605/605/605 302/302/302
f 607/607/607 302/302/302 605/605/605
f 300/300/300 606/606/606 302/302/302
f 401/401/401 399/399/399 608/608/608
f 410/410/410 608/608/608 399/399/399
f 410/410/410 609/609/609 608/608/608
f 609/609/609 410/410/410 610/610/610
f 611/611/611 608/608/608 609/609/609
f 613/613/613 608/608/608 612/612/612
f 614/614/614 612/612/612 608/608/608
f 617/617/617 616/616/616 615/615/615
f 618/618/618 615/615/615 616/616/616
f 616/616/616 619/619/619 618/618/618
f 621/621/621 620/620/620 619/619/619
f 619/619/619 622/622/622 621/621/621
f 624/624/624 623/623/623 622/622/622
f 626/626/626 617/617/617 625/625/625
f 627/627/627 625/625/625 617/617/617
f 629/629/629 628/628/628 26/26/26
f 630/630/630 26/26/26 628/628/628
f 633/633/633 632/632/632 631/631/631
f 634/634/634 631/631/631 632/632/632
f 636/636/636 635/635/635 633/633/633
f 635/635/635 636/636/636 637/637/637
f 639/639/639 638/638/638 636/636/636
f 638/638/638 639/639/639 640/640/640
f 641/641/641 640/640/640 639/639/639
f 643/643/643 633/633/633 642/642/642
f 645/645/645 644/644/644 641/641/641
f 646/646/646 641/641/641 644/644/644
f 649/649/649 648/648/648 647/647/647
f 652/652/652 651/651/651 650/650/650
