g green_mag_pve_f_4_hand_l
v 0.473865837 -0.111537762 0.95802176
v 0.470265269 -0.0922928303 0.885107934
v 0.482948661 -0.123635501 0.876330614
v 0.479149997 -0.0899908394 0.957018852
v 0.460109383 -0.131428853 0.959946096
v 0.461789727 -0.139782429 0.887238681
v 0.404600769 -0.122204505 0.899713278
v 0.449635357 -0.141448051 0.833665729
v 0.403891981 -0.126909524 0.849976957
v 0.405662954 -0.113751657 0.943658173
v 0.46469596 -0.0905782655 0.82785213
v 0.466008067 -0.12225236 0.823701322
v 0.441274434 -0.0950274095 0.793868005
v 0.447635591 -0.11795114 0.781923056
v 0.434861988 -0.13566646 0.794290125
v 0.395734131 -0.119902864 0.770314634
v 0.404990107 -0.109399468 0.762802899
v 0.404990107 -0.109399468 0.762802899
v 0.400103092 -0.0884362757 0.810043037
v 0.397356331 -0.0987524316 0.772772193
v 0.404990107 -0.109399468 0.762802899
v 0.386963576 -0.0962632895 0.783459067
v 0.415735245 -0.0817305744 0.846036434
v 0.355145663 -0.102770954 0.761054814
v 0.387154043 -0.12429478 0.81155467
v 0.376147568 -0.11453034 0.783826113
v 0.355145663 -0.102770954 0.761054814
v 0.404990107 -0.109399468 0.762802899
v 0.355145663 -0.102770954 0.761054814
v 0.404990107 -0.109399468 0.762802899
v 0.355145663 -0.102770954 0.761054814
v 0.418384135 -0.0812225044 0.892620206
v 0.479149997 -0.0899908394 0.957018852
v 0.42125541 -0.0745594129 0.944146097
v 0.477657765 -0.0737826079 0.958654165
v 0.42125541 -0.0745594129 0.944146097
v 0.421551585 -0.0621265247 0.945554078
v 0.507515728 -0.0463235863 0.939370334
v 0.487675667 0.0207486916 0.967472136
v 0.502979815 0.00659236871 0.977744102
v 0.480080545 0.00855909288 1.05602252
v 0.486113161 -0.0034406851 1.05110812
v 0.472304076 -0.0590644963 1.08593905
v 0.46721226 -0.058273349 1.0960927
v 0.467336446 0.0264766682 1.05984795
v 0.438905567 -0.051199425 1.10480762
v 0.468409687 -0.118618794 1.0631572
v 0.462271452 -0.12421485 1.06537521
v 0.470917076 -0.149560839 1.01405084
v 0.475048155 -0.141063973 1.01714337
v 0.503619254 -0.00167059898 0.981459916
v 0.507942021 -0.0486163311 0.950869441
v 0.489893049 -0.122991458 0.96340549
v 0.488519251 -0.126355752 0.95483768
v 0.42504999 -0.187813252 0.967852712
v 0.422021389 -0.171682104 1.02759516
v 0.52554673 -0.100845143 1.05678141
v 0.534149289 -0.114551753 1.02623737
v 0.546532214 -0.101606309 0.998536527
v 0.530049682 -0.0653439537 1.06889713
v 0.537527025 -0.0352237597 1.04811776
v 0.551678061 -0.0369538218 1.01346743
v 0.554411948 -0.0640645996 0.990467072
v 0.591121435 -0.0756932497 1.03588378
v 0.382253915 -0.170477897 0.988124311
v 0.44835484 -0.142004117 0.961470723
v 0.405662954 -0.113751657 0.943658173
v 0.401884556 -0.121043414 0.94618696
v 0.385382652 -0.189867169 1.01055586
v 0.409392506 -0.212475196 1.01360655
v 0.375172615 -0.224097699 1.02647722
v 0.393929809 -0.181547165 1.07002664
v 0.333671093 -0.250428587 1.0137217
v 0.345912933 -0.194123492 1.08014786
v 0.299959779 -0.153204337 1.06693244
v 0.278240472 -0.173214301 1.03039145
v 0.305052966 -0.0521939211 1.05402887
v 0.297835886 -0.0571172163 1.01900446
v 0.364898056 -0.152919859 1.11143291
v 0.31848678 -0.119318217 1.10518622
v 0.295837104 -0.0527024269 1.11349297
v 0.3072097 -0.0983366296 1.14602113
v 0.287356228 -0.0524417758 1.11228037
v 0.302418441 -0.10164091 1.14803314
v 0.355021477 -0.0985455364 1.18428111
v 0.355291307 -0.0999580547 1.18904948
v 0.284776121 -0.0992461368 1.18688238
v 0.346627891 -0.0989899412 1.23106909
v 0.420829117 -0.0557613745 1.18449235
v 0.392973691 -0.0676613823 1.2972728
v 0.239536718 -0.0398409292 1.1636517
v 0.409433901 -0.0519965738 1.17839515
v 0.289567083 -0.0869342387 1.19117105
v 0.289567083 -0.0869342387 1.19117105
v 0.253851444 -0.0377416126 1.17500734
v 0.366309762 -0.120219894 1.14859962
v 0.366309762 -0.120219894 1.14859962
v 0.397404253 -0.0413721427 1.26665437
v 0.420829117 -0.0557613745 1.18449235
v 0.427168757 -0.0387388133 1.18774188
v 0.444380552 -0.0251539275 1.17930615
v 0.39000088 -0.0384782739 1.26778555
v 0.444380552 -0.0251539275 1.17930615
v 0.445988774 -0.0130082034 1.31727338
v 0.430265009 -0.0126736872 1.31989682
v 0.39000088 -0.0384782739 1.26778555
v 0.384340912 -0.0652454048 1.29960573
v 0.397404253 -0.0413721427 1.26665437
v 0.39000088 -0.0384782739 1.26778555
v 0.457780987 -0.160456106 0.903610826
v 0.431239337 -0.150455505 0.840209484
v 0.444848239 -0.174490213 0.820218921
v 0.44106096 -0.143813193 0.905186236
v 0.413448274 -0.154000953 0.786036789
v 0.419589192 -0.172859386 0.772886097
v 0.37752375 -0.148423105 0.771853566
v 0.378319919 -0.155304879 0.753904879
v 0.342802942 -0.140918076 0.758882284
v 0.420480609 -0.207047492 0.834535062
v 0.434402138 -0.201837853 0.906733692
v 0.426611006 -0.175314352 0.968787432
v 0.44835484 -0.142004117 0.961470723
v 0.405934781 -0.19614853 0.777668595
v 0.367235571 -0.177237481 0.803933978
v 0.38172251 -0.179885969 0.858576119
v 0.357281566 -0.164025262 0.787833512
v 0.369964361 -0.171659753 0.766175091
v 0.342802942 -0.140918076 0.758882284
v 0.368237078 -0.145008683 0.786571741
v 0.390094191 -0.146954089 0.806083024
v 0.3789967 -0.171542525 0.911664426
v 0.38172251 -0.179885969 0.858576119
v 0.378792435 -0.167559162 0.962431848
v 0.406066269 -0.136469498 0.853975892
v 0.406066269 -0.136469498 0.853975892
v 0.406066269 -0.136469498 0.853975892
v 0.40869993 -0.128866866 0.903080523
v 0.401884556 -0.121043414 0.94618696
v 0.44835484 -0.142004117 0.961470723
v 0.401884556 -0.121043414 0.94618696
v 0.382253915 -0.170477897 0.988124311
v 0.378792435 -0.167559162 0.962431848
v 0.426611006 -0.175314352 0.968787432
v 0.44835484 -0.142004117 0.961470723
v 0.378792435 -0.167559162 0.962431848
v 0.485402137 -0.0549540259 0.960668623
v 0.486812621 -0.0273119826 0.898305118
v 0.491935998 -0.0521118157 0.894189715
v 0.485735357 -0.0334341712 0.961773217
v 0.438338637 -0.0192634668 0.908788264
v 0.475743741 -0.0218404289 0.843016207
v 0.480753899 -0.0463730991 0.837128639
v 0.451226115 -0.0242836475 0.796559632
v 0.455215782 -0.0442253947 0.782931983
v 0.412207454 -0.0267414656 0.779277086
v 0.415970922 -0.0372023098 0.771204829
v 0.371175528 -0.034279421 0.772267282
v 0.444028854 -0.0621529073 0.792016864
v 0.467710108 -0.0702009648 0.841071546
v 0.410081893 -0.0477507673 0.774634361
v 0.394714743 -0.0490370542 0.792060077
v 0.410186678 -0.0567524806 0.815435469
v 0.423460156 -0.0238407888 0.81580925
v 0.396211058 -0.0263008401 0.794676661
v 0.435367942 -0.0226690862 0.851822495
v 0.476144403 -0.0719261691 0.89857018
v 0.42872718 -0.0596176647 0.905411899
v 0.477657765 -0.0737826079 0.958654165
v 0.421551585 -0.0621265247 0.945554078
v 0.420837402 -0.0623444505 0.855540156
v 0.420837402 -0.0623444505 0.855540156
v 0.371175528 -0.034279421 0.772267282
v 0.477657765 -0.0737826079 0.958654165
v 0.485402137 -0.0549540259 0.960668623
v 0.485765994 0.00257563591 0.960588276
v 0.490248203 -0.0164777562 0.903749764
v 0.484996796 -0.0181680955 0.960254848
v 0.49138698 0.00283483509 0.904810667
v 0.478954375 0.0196542442 0.962233007
v 0.485074073 0.0199978631 0.906885028
v 0.481419235 0.0214906298 0.857380211
v 0.49190414 0.00480319979 0.851517081
v 0.449554235 0.0112428563 0.908600986
v 0.453766137 0.0237684529 0.959061384
v 0.485220402 -0.0175182726 0.855165303
v 0.474408001 -0.0123561192 0.828903019
v 0.479571253 0.0042661475 0.825455308
v 0.452575624 -0.00748496037 0.815318763
v 0.453705251 0.00198397622 0.811325729
v 0.413204223 0.0020456505 0.796190798
v 0.466241986 0.0169811063 0.831293523
v 0.446037024 0.0113549419 0.812287271
v 0.43165648 0.0111774253 0.822172999
v 0.4339661 0.0132303713 0.839806676
v 0.413204223 0.0020456505 0.796190798
v 0.428911895 -0.00895720441 0.839704216
v 0.427571923 -0.00592461554 0.818007886
v 0.435988724 -0.0151738832 0.878266454
v 0.434387386 -0.0193014145 0.904404759
v 0.484996796 -0.0181680955 0.960254848
v 0.443125933 0.0109104253 0.878262281
v 0.449554235 0.0112428563 0.908600986
v 0.443125933 0.0109104253 0.878262281
v 0.453766137 0.0237684529 0.959061384
v 0.475362182 0.0251698103 0.992402792
v 0.447418749 0.0267098807 0.980759203
v 0.434847444 0.0360485055 1.01990569
v 0.460216254 0.0289292708 1.02273929
v 0.487675667 0.0207486916 0.967472136
v 0.479122996 0.032989759 1.03157508
v 0.479122996 0.032989759 1.03157508
v 0.438760638 0.0697005615 1.02342677
v 0.446330965 0.055800464 1.03736269
v 0.427223146 0.0619922616 1.0527724
v 0.356793255 0.0496496856 1.01141977
v 0.35040468 0.0394427292 1.04693019
v 0.305052966 -0.0521939211 1.05402887
v 0.297835886 -0.0571172163 1.01900446
v 0.324327469 0.0516157821 1.13645542
v 0.307372004 0.0128800105 1.10968041
v 0.389656782 0.0541993231 1.10372376
v 0.296424657 0.0144630382 1.11224163
v 0.32067126 0.0560993962 1.13692963
v 0.250706196 0.0285270587 1.15836358
v 0.297888756 0.0736430511 1.17065036
v 0.3825894 0.0554805845 1.17899144
v 0.367065877 0.07631623 1.21749187
v 0.428276747 0.0110346219 1.17785811
v 0.382793963 0.0523100644 1.17479706
v 0.419644624 0.0109068723 1.17207634
v 0.405066907 0.0527178757 1.28102493
v 0.430598736 -0.0054463339 1.18298638
v 0.403954864 0.0154919811 1.26208091
v 0.444380552 -0.0251539275 1.17930615
v 0.395748824 0.0531907752 1.28393912
v 0.395461708 0.0146472026 1.26263213
v 0.30126366 0.0591344647 1.17685711
v 0.263431668 0.0227610637 1.17026246
v 0.36413452 0.0677389055 1.22095907
v 0.395748824 0.0531907752 1.28393912
v 0.395748824 0.0531907752 1.28393912
v 0.398230761 0.0556740165 1.13240039
v 0.444380552 -0.0251539275 1.17930615
v 0.445988774 -0.0130082034 1.31727338
v 0.430265009 -0.0126736872 1.31989682
v 0.430265009 -0.0126736872 1.31989682
v 0.395461708 0.0146472026 1.26263213
v 0.437122464 -0.00102960586 0.956492603
v 0.484996796 -0.0181680955 0.960254848
v 0.434537768 -0.018821096 0.951862216
v 0.438338637 -0.0192634668 0.908788264
v 0.485402137 -0.0549540259 0.960668623
v 0.477657765 -0.0737826079 0.958654165
v 0.484996796 -0.0181680955 0.960254848
v 0.485765994 0.00257563591 0.960588276
v 0.487675667 0.0207486916 0.967472136
v 0.479149997 -0.0899908394 0.957018852
v 0.371175528 -0.034279421 0.772267282
v 0.396211058 -0.0263008401 0.794676661
v 0.38528645 -0.035856951 0.798684061
v 0.403971285 -0.0390341841 0.82399106
v 0.423460156 -0.0238407888 0.81580925
v 0.38528645 -0.035856951 0.798684061
v 0.435367942 -0.0226690862 0.851822495
v 0.435367942 -0.0226690862 0.851822495
v 0.418898433 -0.0418670848 0.859431565
v 0.438338637 -0.0192634668 0.908788264
v 0.420837402 -0.0623444505 0.855540156
v 0.410186678 -0.0567524806 0.815435469
v 0.394714743 -0.0490370542 0.792060077
v 0.41969502 -0.0365332514 0.949040592
v 0.426146299 -0.0368615128 0.911150813
v 0.42872718 -0.0596176647 0.905411899
v 0.421551585 -0.0621265247 0.945554078
v 0.412461013 -0.0336239412 0.965968609
v 0.434537768 -0.018821096 0.951862216
v 0.438338637 -0.0192634668 0.908788264
v 0.426618695 0.00237606047 0.972454906
v 0.437122464 -0.00102960586 0.956492603
v 0.390678585 -0.0227136519 0.996878743
v 0.398481697 0.0120794391 1.00528896
v 0.447418749 0.0267098807 0.980759203
v 0.437122464 -0.00102960586 0.956492603
v 0.453766137 0.0237684529 0.959061384
v 0.434847444 0.0360485055 1.01990569
v 0.376297534 -0.0712561756 0.990054548
v 0.399764866 -0.0841340795 0.958915055
v 0.42125541 -0.0745594129 0.944146097
v 0.379339665 -0.134547144 0.953503311
v 0.401884556 -0.121043414 0.94618696
v 0.405662954 -0.113751657 0.943658173
v 0.415252268 -0.0921765491 0.942995191
v 0.4077048 -0.0982862934 0.90249747
v 0.404600769 -0.122204505 0.899713278
v 0.402063221 -0.101608835 0.854676962
v 0.403891981 -0.126909524 0.849976957
v 0.418384135 -0.0812225044 0.892620206
v 0.42125541 -0.0745594129 0.944146097
v 0.356428474 -0.14077282 0.982580483
v 0.378792435 -0.167559162 0.962431848
v 0.384183198 -0.142392233 0.908746481
v 0.3789967 -0.171542525 0.911664426
v 0.38172251 -0.179885969 0.858576119
v 0.401884556 -0.121043414 0.94618696
v 0.40869993 -0.128866866 0.903080523
v 0.406066269 -0.136469498 0.853975892
v 0.379539102 -0.102528386 0.818585038
v 0.415735245 -0.0817305744 0.846036434
v 0.400103092 -0.0884362757 0.810043037
v 0.387154043 -0.12429478 0.81155467
v 0.376147568 -0.11453034 0.783826113
v 0.369214624 -0.104540437 0.786574244
v 0.386963576 -0.0962632895 0.783459067
v 0.355145663 -0.102770954 0.761054814
v 0.36457029 -0.151359454 0.814515769
v 0.390094191 -0.146954089 0.806083024
v 0.358810365 -0.151857212 0.792251468
v 0.36457029 -0.151359454 0.814515769
v 0.368237078 -0.145008683 0.786571741
v 0.357281566 -0.164025262 0.787833512
v 0.342802942 -0.140918076 0.758882284
v 0.367235571 -0.177237481 0.803933978
v 0.390127301 -0.150225729 0.856998265
v 0.406066269 -0.136469498 0.853975892
v 0.38172251 -0.179885969 0.858576119
v 0.406066269 -0.136469498 0.853975892
v 0.342802942 -0.140918076 0.758882284
v 0.379539102 -0.102528386 0.818585038
v 0.369214624 -0.104540437 0.786574244
v 0.355145663 -0.102770954 0.761054814
v 0.421551585 -0.0621265247 0.945554078
v 0.453766137 0.0237684529 0.959061384
v 0.434387386 -0.0193014145 0.904404759
v 0.449554235 0.0112428563 0.908600986
v 0.443125933 0.0109104253 0.878262281
v 0.449554235 0.0112428563 0.908600986
v 0.435988724 -0.0151738832 0.878266454
v 0.4339661 0.0132303713 0.839806676
v 0.443125933 0.0109104253 0.878262281
v 0.428911895 -0.00895720441 0.839704216
v 0.43165648 0.0111774253 0.822172999
v 0.427571923 -0.00592461554 0.818007886
v 0.413204223 0.0020456505 0.796190798
v 0.434387386 -0.0193014145 0.904404759
v 0.437122464 -0.00102960586 0.956492603
v 0.403971285 -0.0390341841 0.82399106
v 0.38528645 -0.035856951 0.798684061
v 0.371175528 -0.034279421 0.772267282
v 0.42872718 -0.0596176647 0.905411899
v 0.420837402 -0.0623444505 0.855540156
v 0.438338637 -0.0192634668 0.908788264
v 0.296218246 -0.160831943 1.01529992
v 0.35941717 -0.188685104 0.951595068
v 0.366235524 -0.208865002 0.963158548
v 0.33582595 -0.0643510669 1.02392519
v 0.379844785 0.021425914 1.02016056
v 0.296218246 -0.160831943 1.01529992
v 0.300519645 -0.163789436 0.979228497
v 0.296831131 -0.173690721 0.908278704
v 0.343270689 -0.194142088 0.906882942
v 0.317141801 -0.209659413 0.853557289
v 0.289461106 -0.199084908 0.85568428
v 0.340795964 -0.210602462 0.912848115
v 0.320047379 -0.221319616 0.853824675
v 0.318280935 -0.189826071 0.810866594
v 0.289461106 -0.199084908 0.85568428
v 0.366235524 -0.208865002 0.963158548
v 0.288151622 -0.209250942 0.921614766
v 0.29497692 -0.230729789 0.850819528
v 0.285326302 -0.217841089 0.852959752
v 0.299339443 -0.24379158 0.93113029
v 0.318280935 -0.189826071 0.810866594
v 0.284270734 -0.202904806 0.963852048
v 0.299604625 -0.25311926 0.956400871
v 0.290842891 -0.199819177 0.987830341
v 0.329836309 -0.23190628 1.00829208
v 0.348203778 -0.232467517 0.989574313
v 0.366684228 -0.213254005 1.01911759
v 0.302099496 -0.192337513 1.01812983
v 0.289461106 -0.199084908 0.85568428
v 0.305865973 -0.230797291 0.851189077
v 0.320047379 -0.221319616 0.853824675
v 0.317218393 -0.235617056 0.920175433
v 0.340795964 -0.210602462 0.912848115
v 0.324963182 -0.235541984 0.947540045
v 0.366235524 -0.208865002 0.963158548
v 0.300519645 -0.163789436 0.979228497
v 0.296831131 -0.173690721 0.908278704
v 0.289461106 -0.199084908 0.85568428
v 0.296218246 -0.160831943 1.01529992
v 0.333671093 -0.250428587 1.0137217
v 0.329836309 -0.23190628 1.00829208
v 0.33582595 -0.0643510669 1.02392519
v 0.278240472 -0.173214301 1.03039145
v 0.382253915 -0.170477897 0.988124311
v 0.366235524 -0.208865002 0.963158548
v 0.382253915 -0.170477897 0.988124311
v 0.420416981 -0.158176973 1.05204797
v 0.364898056 -0.152919859 1.11143291
v 0.432717264 -0.140350908 1.06919062
v 0.366235524 -0.208865002 0.963158548
v 0.382253915 -0.170477897 0.988124311
v 0.378792435 -0.167559162 0.962431848
v 0.356428474 -0.14077282 0.982580483
v 0.382253915 -0.170477897 0.988124311
v 0.438338637 -0.0192634668 0.908788264
v 0.435367942 -0.0226690862 0.851822495
v 0.487675667 0.0207486916 0.967472136
v 0.487675667 0.0207486916 0.967472136
v 0.289567083 -0.0869342387 1.19117105
v 0.344039708 -0.0890756696 1.23134184
v 0.384340912 -0.0652454048 1.29960573
v 0.384340912 -0.0652454048 1.29960573
v 0.392973691 -0.0676613823 1.2972728
v 0.33582595 -0.0643510669 1.02392519
v 0.379844785 0.021425914 1.02016056
v 0.438760638 0.0697005615 1.02342677
v 0.253851444 -0.0377416126 1.17500734
v 0.239536718 -0.0398409292 1.1636517
v 0.263431668 0.0227610637 1.17026246
v 0.287356228 -0.0524417758 1.11228037
v 0.295837104 -0.0527024269 1.11349297
v 0.494507104 -0.130577043 1.09583056
v 0.434917659 -0.156171933 1.24258697
v 0.464660794 -0.134272471 1.30481553
v 0.485989183 -0.0832597688 1.25891089
v 0.511409283 -0.0967188403 1.09559476
v 0.527599752 -0.0609566756 1.09398484
v 0.510059655 -0.0425333902 1.2954669
v 0.396129251 -0.212144881 1.23047197
v 0.386227369 -0.174141541 1.16160452
v 0.493530333 -0.00380489812 1.25191677
v 0.520760119 -0.0250879191 1.08963454
v 0.511161745 0.0133262919 1.08419168
v 0.485295445 0.0587652586 1.28807557
v 0.459157825 0.072491698 1.22504473
v 0.433213562 0.137807921 1.20052719
v 0.412642598 0.0913644284 1.13724029
v 0.480703831 0.0380193032 1.06080461
v 0.461046576 -0.151285261 1.07823038
v 0.362057686 -0.156479046 1.13181436
v 0.461046576 -0.151285261 1.07823038
v 0.427340388 -0.167607442 1.05892968
v 0.386227369 -0.174141541 1.16160452
v 0.384957492 0.0740809441 1.11043966
v 0.450242758 0.06028115 1.03952873
v 0.480703831 0.0380193032 1.06080461
v 0.389656782 0.0541993231 1.10372376
v 0.398230761 0.0556740165 1.13240039
v 0.364557296 -0.13171047 1.12234759
v 0.366309762 -0.120219894 1.14859962
v 0.364557296 -0.13171047 1.12234759
v 0.366309762 -0.120219894 1.14859962
v 0.438905567 -0.051199425 1.10480762
v 0.511409283 -0.0967188403 1.09559476
v 0.527599752 -0.0609566756 1.09398484
v 0.432717264 -0.140350908 1.06919062
v 0.520760119 -0.0250879191 1.08963454
v 0.467336446 0.0264766682 1.05984795
v 0.511161745 0.0133262919 1.08419168
v 0.520760119 -0.0250879191 1.08963454
v 0.480703831 0.0380193032 1.06080461
v 0.450242758 0.06028115 1.03952873
v 0.446330965 0.055800464 1.03736269
v 0.494507104 -0.130577043 1.09583056
v 0.461046576 -0.151285261 1.07823038
v 0.511409283 -0.0967188403 1.09559476
v 0.427340388 -0.167607442 1.05892968
v 0.420416981 -0.158176973 1.05204797
v 0.427340388 -0.167607442 1.05892968
v 0.461046576 -0.151285261 1.07823038
v 0.364898056 -0.152919859 1.11143291
v 0.362057686 -0.156479046 1.13181436
v 0.364898056 -0.152919859 1.11143291
v 0.420416981 -0.158176973 1.05204797
v 0.427223146 0.0619922616 1.0527724
v 0.450242758 0.06028115 1.03952873
v 0.384957492 0.0740809441 1.11043966
v 0.450242758 0.06028115 1.03952873
v 0.384957492 0.0740809441 1.11043966
v 0.389656782 0.0541993231 1.10372376
v 0.398230761 0.0556740165 1.13240039
v 0.389656782 0.0541993231 1.10372376
v 0.398230761 0.0556740165 1.13240039
v 0.412642598 0.0913644284 1.13724029
v 0.433213562 0.137807921 1.20052719
v 0.459157825 0.072491698 1.22504473
v 0.428276747 0.0110346219 1.17785811
v 0.419644624 0.0109068723 1.17207634
v 0.485295445 0.0587652586 1.28807557
v 0.493530333 -0.00380489812 1.25191677
v 0.430598736 -0.0054463339 1.18298638
v 0.444380552 -0.0251539275 1.17930615
v 0.444380552 -0.0251539275 1.17930615
v 0.510059655 -0.0425333902 1.2954669
v 0.485989183 -0.0832597688 1.25891089
v 0.444380552 -0.0251539275 1.17930615
v 0.427168757 -0.0387388133 1.18774188
v 0.420829117 -0.0557613745 1.18449235
v 0.464660794 -0.134272471 1.30481553
v 0.434917659 -0.156171933 1.24258697
v 0.366309762 -0.120219894 1.14859962
v 0.366309762 -0.120219894 1.14859962
v 0.396129251 -0.212144881 1.23047197
v 0.366309762 -0.120219894 1.14859962
v 0.409433901 -0.0519965738 1.17839515
v 0.386227369 -0.174141541 1.16160452
v 0.396129251 -0.212144881 1.23047197
v 0.362057686 -0.156479046 1.13181436
v 0.364557296 -0.13171047 1.12234759
v 0.364898056 -0.152919859 1.11143291
v 0.335393757 0.0160212461 1.15534472
v 0.308151543 -0.0158011913 1.14903045
v 0.263431668 0.0227610637 1.17026246
v 0.30126366 0.0591344647 1.17685711
v 0.349843055 0.0307380855 1.15936649
v 0.360146433 0.0370399766 1.1631546
v 0.365494102 0.0675833002 1.21925902
v 0.387120008 0.0216501318 1.17998123
v 0.395748824 0.0531907752 1.28393912
v 0.408728957 -0.00350496755 1.19712448
v 0.395461708 0.0146472026 1.26263213
v 0.430265009 -0.0126736872 1.31989682
v 0.430265009 -0.0126736872 1.31989682
v 0.400162041 -0.0195642412 1.19549537
v 0.39000088 -0.0384782739 1.26778555
v 0.430265009 -0.0126736872 1.31989682
v 0.385414004 -0.0378728732 1.190938
v 0.384340912 -0.0652454048 1.29960573
v 0.344039708 -0.0890756696 1.23134184
v 0.361811489 -0.0639996454 1.18346918
v 0.289567083 -0.0869342387 1.19117105
v 0.344039708 -0.0890756696 1.23134184
v 0.334115475 -0.0465209298 1.16636646
v 0.253851444 -0.0377416126 1.17500734
v 0.289567083 -0.0869342387 1.19117105
v 0.263431668 0.0227610637 1.17026246
v 0.43064484 -0.220649898 0.886338115
v 0.50676477 -0.181474492 0.962073565
v 0.463730127 -0.197816044 0.846581757
v 0.48676306 -0.165554494 0.844436705
v 0.523684621 -0.158851892 0.940894008
v 0.506789625 -0.133573532 0.799947858
v 0.574249268 -0.132591665 0.963446259
v 0.566309631 -0.0985523984 0.940823853
v 0.515200317 -0.0972746089 0.815602183
v 0.430094868 -0.205398142 0.957508147
v 0.40967232 -0.222417578 0.904643834
v 0.520458877 -0.0622056201 0.797596574
v 0.587585688 -0.068998687 0.962652266
v 0.39547351 -0.209989309 0.909886658
v 0.430094868 -0.205398142 0.957508147
v 0.40967232 -0.222417578 0.904643834
v 0.415855318 -0.193381235 0.962787509
v 0.493864536 -0.17120041 0.964894235
v 0.50676477 -0.181474492 0.962073565
v 0.523684621 -0.158851892 0.940894008
v 0.506815612 -0.148972467 0.947580338
v 0.574249268 -0.132591665 0.963446259
v 0.552182555 -0.129478648 0.966096759
v 0.566309631 -0.0985523984 0.940823853
v 0.5459795 -0.0880959705 0.944366574
v 0.5459795 -0.0880959705 0.944366574
v 0.587585688 -0.068998687 0.962652266
v 0.565778911 -0.0650542229 0.963326991
v 0.565778911 -0.0650542229 0.963326991
v 0.552544713 -0.0323423967 0.939223826
v 0.53126049 -0.0365547761 0.942917764
v 0.52317971 -0.000872201927 0.959470868
v 0.552544713 -0.0323423967 0.939223826
v 0.544277549 0.00152748101 0.955633044
v 0.477292418 0.0474165343 0.956497252
v 0.544277549 0.00152748101 0.955633044
v 0.459793627 0.0382227302 0.961314678
v 0.448215485 0.0566635318 0.899455726
v 0.466755807 0.0661465824 0.894189715
v 0.39547351 -0.209989309 0.909886658
v 0.43064484 -0.220649898 0.886338115
v 0.420225441 -0.204052612 0.886361659
v 0.40967232 -0.222417578 0.904643834
v 0.463730127 -0.197816044 0.846581757
v 0.449436665 -0.180167884 0.852370262
v 0.467627436 -0.153336108 0.850923061
v 0.48676306 -0.165554494 0.844436705
v 0.48676306 -0.165554494 0.844436705
v 0.48551771 -0.128920704 0.813259363
v 0.506789625 -0.133573532 0.799947858
v 0.515200317 -0.0972746089 0.815602183
v 0.492307663 -0.0935059637 0.826912045
v 0.498668462 -0.0593170635 0.810923338
v 0.520458877 -0.0622056201 0.797596574
v 0.489043325 -0.0252793394 0.844852507
v 0.506789625 -0.133573532 0.799947858
v 0.489043325 -0.0252793394 0.844852507
v 0.51335609 -0.0171860028 0.836993456
v 0.485150009 0.00215281476 0.844423652
v 0.506652415 0.0174881257 0.836938739
v 0.472719103 0.0255403221 0.869187534
v 0.489341527 0.04174814 0.867521405
v 0.448215485 0.0566635318 0.899455726
v 0.466755807 0.0661465824 0.894189715
v 0.489341527 0.04174814 0.867521405
v 0.506652415 0.0174881257 0.836938739
v 0.544277549 0.00152748101 0.955633044
v 0.51335609 -0.0171860028 0.836993456
v 0.552544713 -0.0323423967 0.939223826
v 0.520458877 -0.0622056201 0.797596574
v 0.587585688 -0.068998687 0.962652266
v 0.477292418 0.0474165343 0.956497252
v 0.466755807 0.0661465824 0.894189715
v 0.472719103 0.0255403221 0.869187534
v 0.459793627 0.0382227302 0.961314678
v 0.52317971 -0.000872201927 0.959470868
v 0.448215485 0.0566635318 0.899455726
v 0.472719103 0.0255403221 0.869187534
v 0.53126049 -0.0365547761 0.942917764
v 0.485150009 0.00215281476 0.844423652
v 0.52317971 -0.000872201927 0.959470868
v 0.489043325 -0.0252793394 0.844852507
v 0.53126049 -0.0365547761 0.942917764
v 0.565778911 -0.0650542229 0.963326991
v 0.53126049 -0.0365547761 0.942917764
v 0.485150009 0.00215281476 0.844423652
v 0.489043325 -0.0252793394 0.844852507
v 0.5459795 -0.0880959705 0.944366574
v 0.498668462 -0.0593170635 0.810923338
v 0.565778911 -0.0650542229 0.963326991
v 0.48551771 -0.128920704 0.813259363
v 0.5459795 -0.0880959705 0.944366574
v 0.552182555 -0.129478648 0.966096759
v 0.492307663 -0.0935059637 0.826912045
v 0.48551771 -0.128920704 0.813259363
v 0.506815612 -0.148972467 0.947580338
v 0.467627436 -0.153336108 0.850923061
v 0.552182555 -0.129478648 0.966096759
v 0.449436665 -0.180167884 0.852370262
v 0.506815612 -0.148972467 0.947580338
v 0.493864536 -0.17120041 0.964894235
v 0.467627436 -0.153336108 0.850923061
v 0.420225441 -0.204052612 0.886361659
v 0.493864536 -0.17120041 0.964894235
v 0.415855318 -0.193381235 0.962787509
v 0.449436665 -0.180167884 0.852370262
v 0.420225441 -0.204052612 0.886361659
v 0.415855318 -0.193381235 0.962787509
v 0.39547351 -0.209989309 0.909886658
v 0.498668462 -0.0593170635 0.810923338
v 0.5459795 -0.0880959705 0.944366574
v 0.492307663 -0.0935059637 0.826912045
vt 0.519975722 0.675462961
vt 0.543792367 0.619436443
vt 0.509289622 0.619906843
vt 0.567651749 0.670900941
vt 0.470241904 0.67805028
vt 0.478545666 0.623504817
vt 0.406298101 0.623674631
vt 0.468533754 0.581054568
vt 0.395454079 0.580532074
vt 0.423603714 0.651293576
vt 0.523590147 0.576172352
vt 0.495814234 0.577524304
vt 0.511799753 0.546559393
vt 0.48971054 0.546756327
vt 0.46820873 0.550196826
vt 0.46002239 0.519462705
vt 0.477411509 0.518565297
vt 0.477411509 0.518565297
vt 0.553188026 0.532282174
vt 0.494927347 0.515713334
vt 0.477411509 0.518565297
vt 0.511482656 0.511672676
vt 0.595337391 0.563841462
vt 0.459945947 0.491947919
vt 0.413357049 0.543395877
vt 0.43364504 0.517084301
vt 0.459945947 0.491947919
vt 0.477411509 0.518565297
vt 0.459945947 0.491947919
vt 0.477411509 0.518565297
vt 0.459945947 0.491947919
vt 0.604043841 0.607077122
vt 0.567651749 0.670900941
vt 0.606928229 0.638169527
vt 0.60567975 0.674005389
vt 0.606928229 0.638169527
vt 0.620242178 0.640137076
vt 0.592721939 0.723541617
vt 0.659274161 0.756718636
vt 0.62962997 0.758137465
vt 0.591264069 0.807843983
vt 0.587924719 0.803732634
vt 0.511190593 0.812843204
vt 0.50775212 0.815525293
vt 0.604293525 0.818874359
vt 0.496907026 0.836337984
vt 0.458937585 0.787867367
vt 0.453799754 0.788500965
vt 0.450544566 0.750305653
vt 0.455328047 0.751677334
vt 0.622637033 0.758347094
vt 0.589226544 0.726593971
vt 0.505405903 0.71904707
vt 0.505926192 0.71485889
vt 0.397226512 0.719981194
vt 0.387650698 0.763329208
vt 0.500460923 0.777719676
vt 0.503284097 0.758847654
vt 0.527502418 0.746578634
vt 0.526666582 0.789999843
vt 0.560602427 0.784130931
vt 0.573496521 0.763911247
vt 0.560368359 0.747920394
vt 0.544832826 0.763755858
vt 0.334364384 0.740727663
vt 0.429360271 0.684905708
vt 0.423603714 0.651293576
vt 0.41636923 0.65420258
vt 0.317049295 0.752966046
vt 0.34469837 0.765044332
vt 0.307734728 0.774250031
vt 0.360614747 0.80076319
vt 0.258928448 0.777524829
vt 0.307130784 0.816252112
vt 0.243799746 0.83391881
vt 0.204095721 0.814403117
vt 0.176963791 0.868507385
vt 0.13866885 0.858795106
vt 0.348038405 0.837779284
vt 0.277695745 0.858834982
vt 0.226867557 0.886722445
vt 0.290256977 0.886676311
vt 0.225778848 0.89350307
vt 0.285385221 0.892209053
vt 0.365757763 0.890612602
vt 0.364088118 0.89597261
vt 0.287632495 0.921545804
vt 0.363775611 0.923173249
vt 0.45192948 0.894949675
vt 0.409752548 0.961551726
vt 0.219476715 0.932741225
vt 0.447526962 0.885775089
vt 0.284457564 0.925854564
vt 0.284457564 0.925854564
vt 0.218770534 0.937140167
vt 0.366326988 0.864411712
vt 0.366326988 0.864411712
vt 0.433228344 0.945999086
vt 0.45192948 0.894949675
vt 0.472039878 0.898467898
vt 0.496140927 0.899731398
vt 0.433470726 0.95262152
vt 0.496140927 0.899731398
vt 0.475485653 0.978552222
vt 0.473912328 0.986063659
vt 0.433470726 0.95262152
vt 0.407788128 0.968020797
vt 0.433228344 0.945999086
vt 0.433470726 0.95262152
vt 0.353800029 0.668138504
vt 0.290616006 0.631133676
vt 0.265901178 0.642409086
vt 0.365506321 0.656961918
vt 0.231492251 0.624092519
vt 0.220781624 0.632473767
vt 0.184856519 0.61669606
vt 0.1730939 0.622737288
vt 0.140557081 0.615650713
vt 0.249116331 0.662494779
vt 0.327025622 0.687217355
vt 0.392689556 0.711014748
vt 0.429360271 0.684905708
vt 0.209383622 0.642588973
vt 0.1718622 0.661917388
vt 0.225374237 0.700339854
vt 0.148627013 0.644162655
vt 0.167645574 0.631590009
vt 0.140557081 0.615650713
vt 0.192121506 0.605861783
vt 0.242802218 0.607791483
vt 0.286883265 0.718959808
vt 0.225374237 0.700339854
vt 0.336257815 0.730251312
vt 0.323694944 0.616651118
vt 0.323694944 0.616651118
vt 0.323694944 0.616651118
vt 0.384056687 0.636807919
vt 0.41636923 0.65420258
vt 0.429360271 0.684905708
vt 0.41636923 0.65420258
vt 0.334364384 0.740727663
vt 0.336257815 0.730251312
vt 0.392689556 0.711014748
vt 0.429360271 0.684905708
vt 0.336257815 0.730251312
vt 0.62984246 0.690060139
vt 0.713407874 0.669701934
vt 0.697231829 0.660056651
vt 0.656176567 0.705689669
vt 0.7684322 0.692232013
vt 0.778874457 0.645294487
vt 0.765264511 0.634176493
vt 0.82265842 0.625942111
vt 0.813963532 0.615425944
vt 0.85872072 0.609011889
vt 0.851635993 0.602572322
vt 0.897043467 0.587760925
vt 0.80304879 0.606713176
vt 0.749214828 0.622390866
vt 0.846522033 0.597183764
vt 0.841802597 0.581804514
vt 0.790571094 0.580489993
vt 0.862922251 0.641046166
vt 0.883400977 0.618111908
vt 0.829631329 0.673432231
vt 0.68423748 0.648131788
vt 0.656090975 0.618086815
vt 0.60567975 0.674005389
vt 0.620242178 0.640137076
vt 0.717332125 0.589983881
vt 0.717332125 0.589983881
vt 0.897043467 0.587760925
vt 0.60567975 0.674005389
vt 0.62984246 0.690060139
vt 0.671434343 0.745073199
vt 0.770156503 0.730571628
vt 0.669123352 0.724513173
vt 0.767829835 0.739616394
vt 0.685092449 0.763295472
vt 0.768327594 0.748441339
vt 0.821834385 0.743400812
vt 0.82191664 0.734209061
vt 0.766166985 0.779261053
vt 0.72082603 0.782625675
vt 0.819455266 0.724114895
vt 0.85326159 0.722448587
vt 0.857059896 0.729403436
vt 0.880068839 0.718205333
vt 0.885479867 0.724231184
vt 0.932033539 0.715084195
vt 0.861144006 0.738480806
vt 0.892636478 0.730413139
vt 0.903018773 0.739551961
vt 0.877663016 0.755625844
vt 0.932033539 0.715084195
vt 0.85432446 0.69507134
vt 0.89240402 0.704390645
vt 0.807678521 0.692993402
vt 0.759399116 0.698525429
vt 0.669123352 0.724513173
vt 0.829566836 0.772500753
vt 0.766166985 0.779261053
vt 0.829566836 0.772500753
vt 0.72082603 0.782625675
vt 0.66935432 0.780386567
vt 0.703224659 0.790967584
vt 0.698387206 0.805040836
vt 0.665210009 0.800067306
vt 0.659274161 0.756718636
vt 0.637913108 0.799273193
vt 0.637913108 0.799273193
vt 0.683687627 0.818941116
vt 0.66347599 0.819694638
vt 0.666898489 0.83586812
vt 0.765120089 0.841567278
vt 0.75195843 0.861823916
vt 0.849674642 0.885699511
vt 0.874509394 0.864368081
vt 0.703434169 0.912159741
vt 0.759425402 0.907448173
vt 0.664788306 0.872474194
vt 0.759850144 0.915810645
vt 0.705079913 0.916810393
vt 0.752078176 0.958784997
vt 0.69739306 0.946798861
vt 0.614735365 0.911893845
vt 0.608948708 0.940900385
vt 0.543523848 0.89859581
vt 0.615065336 0.90672493
vt 0.549893022 0.890206516
vt 0.5457865 0.966022968
vt 0.520570278 0.899676323
vt 0.528636217 0.951654494
vt 0.496140927 0.899731398
vt 0.542489767 0.972686946
vt 0.526661098 0.957694232
vt 0.6961326 0.950555563
vt 0.749949336 0.963850498
vt 0.606308043 0.945600808
vt 0.542489767 0.972686946
vt 0.542489767 0.972686946
vt 0.633074999 0.882106006
vt 0.496140927 0.899731398
vt 0.475485653 0.978552222
vt 0.473912328 0.986063659
vt 0.473912328 0.986063659
vt 0.526661098 0.957694232
vt 0.719890893 0.707573235
vt 0.669123352 0.724513173
vt 0.716566563 0.703123569
vt 0.7684322 0.692232013
vt 0.62984246 0.690060139
vt 0.60567975 0.674005389
vt 0.669123352 0.724513173
vt 0.671434343 0.745073199
vt 0.659274161 0.756718636
vt 0.567651749 0.670900941
vt 0.0958136991 0.275963575
vt 0.0815791339 0.304106414
vt 0.107331671 0.302384585
vt 0.114749528 0.319409192
vt 0.0763765275 0.321796894
vt 0.107331671 0.302384585
vt 0.09123189 0.3523224
vt 0.09123189 0.3523224
vt 0.127941772 0.348475397
vt 0.102964006 0.386589408
vt 0.163284525 0.342917502
vt 0.147528321 0.312371373
vt 0.135462075 0.296894819
vt 0.153049663 0.413112819
vt 0.13994585 0.379640758
vt 0.180046514 0.374453127
vt 0.194479674 0.408179104
vt 0.158356592 0.431404352
vt 0.116960928 0.418897271
vt 0.102964006 0.386589408
vt 0.100804836 0.440216482
vt 0.0935331881 0.423656285
vt 0.16364722 0.468545794
vt 0.113275051 0.478686213
vt 0.0499548689 0.442747653
vt 0.0935331881 0.423656285
vt 0.0446528941 0.426431417
vt 0.0371701196 0.478544474
vt 0.235991761 0.461683214
vt 0.23433122 0.4226529
vt 0.208259717 0.404270172
vt 0.319704711 0.416452229
vt 0.28058821 0.406382263
vt 0.273385197 0.4029423
vt 0.236461431 0.402567089
vt 0.23108542 0.366464913
vt 0.27111429 0.362040758
vt 0.231076986 0.322188497
vt 0.273284435 0.317975044
vt 0.193983063 0.36267668
vt 0.208259717 0.404270172
vt 0.348103851 0.448680639
vt 0.371058524 0.416598141
vt 0.325657696 0.376657963
vt 0.374324501 0.378587604
vt 0.390789419 0.340439796
vt 0.28058821 0.406382263
vt 0.280666441 0.369785249
vt 0.294705689 0.328960478
vt 0.232098669 0.290280432
vt 0.188969433 0.31887126
vt 0.188515633 0.286628038
vt 0.271682858 0.285810292
vt 0.255952865 0.266560137
vt 0.234528422 0.266485721
vt 0.200566173 0.264549464
vt 0.243792608 0.2409098
vt 0.36260578 0.296676517
vt 0.321590245 0.287173033
vt 0.371453971 0.278899223
vt 0.36260578 0.296676517
vt 0.353974223 0.272268742
vt 0.393673807 0.279050499
vt 0.385857552 0.247793779
vt 0.40852505 0.293190598
vt 0.339467913 0.336639524
vt 0.294705689 0.328960478
vt 0.390789419 0.340439796
vt 0.294705689 0.328960478
vt 0.385857552 0.247793779
vt 0.232098669 0.290280432
vt 0.234528422 0.266485721
vt 0.243792608 0.2409098
vt 0.194479674 0.408179104
vt 0.0446528941 0.426431417
vt 0.0923683271 0.392729223
vt 0.0384624153 0.397639871
vt 0.0368403867 0.373641849
vt 0.0384624153 0.397639871
vt 0.0816854388 0.369862974
vt 0.0342933387 0.352261603
vt 0.0368403867 0.373641849
vt 0.0726350695 0.351580739
vt 0.0370350927 0.338576138
vt 0.0664158538 0.334462464
vt 0.0549867749 0.31190145
vt 0.759399116 0.698525429
vt 0.719890893 0.707573235
vt 0.114749528 0.319409192
vt 0.107331671 0.302384585
vt 0.0958136991 0.275963575
vt 0.180046514 0.374453127
vt 0.163284525 0.342917502
vt 0.102964006 0.386589408
vt 0.409141988 0.495415151
vt 0.418171853 0.430296659
vt 0.409481376 0.420833528
vt 0.255940199 0.510700285
vt 0.120478794 0.502173901
vt 0.409141988 0.495415151
vt 0.449147314 0.480559111
vt 0.54271549 0.451435685
vt 0.507035613 0.417859197
vt 0.599882305 0.40289253
vt 0.621910095 0.423242033
vt 0.496965438 0.404669225
vt 0.59198904 0.394432366
vt 0.668960214 0.393547893
vt 0.621910095 0.423242033
vt 0.409481376 0.420833528
vt 0.125870243 0.744836807
vt 0.10199514 0.704434454
vt 0.08686959 0.70911777
vt 0.167653859 0.73658967
vt 0.0564133525 0.679004908
vt 0.150271237 0.763891339
vt 0.192589939 0.748241842
vt 0.174685895 0.778285623
vt 0.242729157 0.773667157
vt 0.25398314 0.750286162
vt 0.290655404 0.763882041
vt 0.204946056 0.795734763
vt 0.0676258504 0.712029338
vt 0.109493457 0.700336695
vt 0.117311351 0.693189442
vt 0.17592822 0.723517954
vt 0.188298762 0.709657967
vt 0.209662333 0.733892143
vt 0.269561708 0.731285095
vt 0.145586118 0.785414219
vt 0.0870702416 0.749513566
vt 0.0676258504 0.712029338
vt 0.184547663 0.808389664
vt 0.258928448 0.777524829
vt 0.242729157 0.773667157
vt 0.100929596 0.84436202
vt 0.204095721 0.814403117
vt 0.334364384 0.740727663
vt 0.269561708 0.731285095
vt 0.334364384 0.740727663
vt 0.398785502 0.783150196
vt 0.348038405 0.837779284
vt 0.421970397 0.795332909
vt 0.409481376 0.420833528
vt 0.379818857 0.42468822
vt 0.371058524 0.416598141
vt 0.348103851 0.448680639
vt 0.379818857 0.42468822
vt 0.7684322 0.692232013
vt 0.829631329 0.673432231
vt 0.659274161 0.756718636
vt 0.659274161 0.756718636
vt 0.284457564 0.925854564
vt 0.36087954 0.927345157
vt 0.407788128 0.968020797
vt 0.407788128 0.968020797
vt 0.409752548 0.961551726
vt 0.871326864 0.837775826
vt 0.771080434 0.822708488
vt 0.683687627 0.818941116
vt 0.809828162 0.974318087
vt 0.810491145 0.970184803
vt 0.749949336 0.963850498
vt 0.819138288 0.91634196
vt 0.820227623 0.909561694
vt 0.635798037 0.261805832
vt 0.56026876 0.345910877
vt 0.60133934 0.382107407
vt 0.668372214 0.358312339
vt 0.678602576 0.263000309
vt 0.723042071 0.263459861
vt 0.72059536 0.380351812
vt 0.483915716 0.336030275
vt 0.494530529 0.291783899
vt 0.774488151 0.358673781
vt 0.764469862 0.263314545
vt 0.80968225 0.262697399
vt 0.842318118 0.382742375
vt 0.882247329 0.348048836
vt 0.964204431 0.336970836
vt 0.954826534 0.291548282
vt 0.85204035 0.251248837
vt 0.595814168 0.251440942
vt 0.473835826 0.272004187
vt 0.595814168 0.251440942
vt 0.561167419 0.237584248
vt 0.494530529 0.291783899
vt 0.975167811 0.272028029
vt 0.888918519 0.238166466
vt 0.85204035 0.251248837
vt 0.664788306 0.872474194
vt 0.633074999 0.882106006
vt 0.352151513 0.84943223
vt 0.366326988 0.864411712
vt 0.352151513 0.84943223
vt 0.366326988 0.864411712
vt 0.743897557 0.0662518218
vt 0.782969594 0.0240542274
vt 0.743279815 0.0180032291
vt 0.844103038 0.063372843
vt 0.705615401 0.0232706163
vt 0.648305535 0.0545432717
vt 0.663745582 0.0284179617
vt 0.705615401 0.0232706163
vt 0.634153903 0.0489730611
vt 0.621407151 0.0726445615
vt 0.627488256 0.0734455511
vt 0.822685182 0.0288792942
vt 0.853456795 0.0473326594
vt 0.782969594 0.0240542274
vt 0.872129858 0.0700320005
vt 0.860144675 0.0727053359
vt 0.872129858 0.0700320005
vt 0.853456795 0.0473326594
vt 0.861693263 0.115185782
vt 0.873470128 0.124758132
vt 0.861693263 0.115185782
vt 0.860144675 0.0727053359
vt 0.628236532 0.0864521042
vt 0.621407151 0.0726445615
vt 0.624748826 0.12430463
vt 0.621407151 0.0726445615
vt 0.624748826 0.12430463
vt 0.644186139 0.120601952
vt 0.644577622 0.138144314
vt 0.644186139 0.120601952
vt 0.644577622 0.138144314
vt 0.604535401 0.142532974
vt 0.549919903 0.175797239
vt 0.617758811 0.197189614
vt 0.688200533 0.169329464
vt 0.690077484 0.163760319
vt 0.627824187 0.234368905
vt 0.701986134 0.222879663
vt 0.705216765 0.172737822
vt 0.727817655 0.175741434
vt 0.727817655 0.175741434
vt 0.741483331 0.24779205
vt 0.785773158 0.225962669
vt 0.727817655 0.175741434
vt 0.748464108 0.174251527
vt 0.765531838 0.171512961
vt 0.85885644 0.237545684
vt 0.877767086 0.199669674
vt 0.83682102 0.137309656
vt 0.83682102 0.137309656
vt 0.941784143 0.180550233
vt 0.83682102 0.137309656
vt 0.76191175 0.164464802
vt 0.898587406 0.143460706
vt 0.941784143 0.180550233
vt 0.873470128 0.124758132
vt 0.845190167 0.123652078
vt 0.861693263 0.115185782
vt 0.219648734 0.129088581
vt 0.260905117 0.110364243
vt 0.216567501 0.101219893
vt 0.170181632 0.126282588
vt 0.201103866 0.139210805
vt 0.19469893 0.146720827
vt 0.159972131 0.176290855
vt 0.217966244 0.167083994
vt 0.19042109 0.221518248
vt 0.254447758 0.183217719
vt 0.243907526 0.207526803
vt 0.29144603 0.248559892
vt 0.29144603 0.248559892
vt 0.276004344 0.177148819
vt 0.316933393 0.203576595
vt 0.29144603 0.248559892
vt 0.301183015 0.166469619
vt 0.367340893 0.213910207
vt 0.37999019 0.160047829
vt 0.334394306 0.148871645
vt 0.365414411 0.116291448
vt 0.37999019 0.160047829
vt 0.30653888 0.128346324
vt 0.295909971 0.0937671065
vt 0.365414411 0.116291448
vt 0.216567501 0.101219893
vt 0.577195644 0.466416061
vt 0.62958318 0.522402644
vt 0.617798448 0.44979012
vt 0.661473572 0.453835309
vt 0.665893078 0.514437079
vt 0.714171886 0.433758438
vt 0.718368828 0.5374192
vt 0.756028295 0.523083091
vt 0.755190551 0.443785846
vt 0.551210165 0.509791434
vt 0.538313866 0.472235441
vt 0.796352029 0.434875309
vt 0.791888416 0.539375424
vt 0.261130989 0.0766704455
vt 0.333098531 0.06820786
vt 0.258697361 0.0626795217
vt 0.336961985 0.079881072
vt 0.421770602 0.0560528077
vt 0.409872979 0.0445023179
vt 0.44967559 0.0440862551
vt 0.452192754 0.0555174388
vt 0.519771576 0.0424368829
vt 0.504116714 0.0517051965
vt 0.535338223 0.0649393499
vt 0.527564406 0.0770817846
vt 0.527564406 0.0770817846
vt 0.578166306 0.0760897473
vt 0.558983088 0.083341077
vt 0.558983088 0.083341077
vt 0.549954653 0.104816586
vt 0.533406854 0.10353227
vt 0.53592062 0.126907706
vt 0.549954653 0.104816586
vt 0.553112388 0.126697198
vt 0.507687449 0.16733411
vt 0.553112388 0.126697198
vt 0.491180569 0.161502302
vt 0.464708656 0.198224843
vt 0.479904234 0.202582911
vt 0.261130989 0.0766704455
vt 0.214246899 0.0691239089
vt 0.203958541 0.0843719766
vt 0.258697361 0.0626795217
vt 0.157415003 0.0743520558
vt 0.157928675 0.0909573287
vt 0.135993719 0.110296756
vt 0.124847621 0.0942589045
vt 0.124847621 0.0942589045
vt 0.0874619931 0.121571101
vt 0.0606574044 0.112427108
vt 0.0557745621 0.138843119
vt 0.08308696 0.144655749
vt 0.0579240657 0.165985957
vt 0.0274095088 0.159978077
vt 0.0769252777 0.189796492
vt 0.0606574044 0.112427108
vt 0.0769252777 0.189796492
vt 0.0516433492 0.197058097
vt 0.0757861212 0.207472593
vt 0.0529661253 0.219908923
vt 0.0994320959 0.223699689
vt 0.0874603912 0.241307318
vt 0.14074786 0.252248645
vt 0.123483963 0.261880249
vt 0.93164283 0.465806663
vt 0.89165765 0.452066183
vt 0.881125093 0.525434732
vt 0.852487683 0.454293013
vt 0.840124846 0.51873076
vt 0.796352029 0.434875309
vt 0.791888416 0.539375424
vt 0.969444156 0.514714479
vt 0.974422872 0.476316094
vt 0.686218679 0.0822806135
vt 0.655328989 0.114994019
vt 0.685995221 0.133012056
vt 0.662766039 0.0846743584
vt 0.686218679 0.0822806135
vt 0.705429733 0.132349014
vt 0.702564538 0.0775409788
vt 0.685995221 0.133012056
vt 0.714499831 0.081600301
vt 0.705429733 0.132349014
vt 0.719225168 0.151311934
vt 0.705429733 0.132349014
vt 0.702564538 0.0775409788
vt 0.714499831 0.081600301
vt 0.735487163 0.141039878
vt 0.73358053 0.0722982213
vt 0.719225168 0.151311934
vt 0.764336169 0.075344719
vt 0.735487163 0.141039878
vt 0.755196214 0.154058814
vt 0.748083353 0.0807364285
vt 0.764336169 0.075344719
vt 0.776140034 0.139102906
vt 0.781314909 0.0897527412
vt 0.755196214 0.154058814
vt 0.796490669 0.0877526626
vt 0.776140034 0.139102906
vt 0.789751232 0.145003438
vt 0.781314909 0.0897527412
vt 0.811472833 0.0991137773
vt 0.789751232 0.145003438
vt 0.825311244 0.134088814
vt 0.796490669 0.0877526626
vt 0.811472833 0.0991137773
vt 0.825311244 0.134088814
vt 0.831039488 0.105963856
vt 0.73358053 0.0722982213
vt 0.735487163 0.141039878
vt 0.748083353 0.0807364285
vn 0.775464892 -0.130748987 -0.617704511
vn 0.792828441 0.607719183 -0.0458307303
vn 0.937903941 -0.340249509 -0.0675760284
vn 0.107560873 0.407166392 -0.906998396
vn 0.151042804 -0.816641271 -0.557030499
vn 0.185232714 -0.981176972 0.054594934
vn -0.748649061 -0.653928101 0.109099172
vn 0.128942147 -0.988544285 -0.0784480199
vn -0.760678053 -0.601154447 0.244912624
vn -0.744056523 -0.147693902 -0.651587546
vn 0.567121863 0.787655711 -0.240772486
vn 0.867056549 -0.287346452 -0.406995058
vn 0.471493781 0.711132705 -0.521520734
vn 0.596507788 -0.287715524 -0.749265015
vn 0.207297444 -0.904837847 -0.371881992
vn -0.124454752 -0.853412151 -0.506160736
vn 0.245863184 0.198408917 -0.948780835
vn 0.245863184 0.198408917 -0.948780835
vn -0.198010847 0.972805202 -0.120173529
vn 0.0698481351 0.900393486 -0.429432988
vn 0.245863184 0.198408917 -0.948780835
vn -0.224867731 0.971246421 -0.0781976134
vn -0.40129903 0.913771808 0.0630883276
vn -0.709082186 0.258710623 -0.655950665
vn -0.53874445 -0.841337502 0.0436520949
vn -0.666832685 -0.73630923 0.11481677
vn -0.709082186 0.258710623 -0.655950665
vn 0.245863184 0.198408917 -0.948780835
vn -0.709082186 0.258710623 -0.655950665
vn 0.245863184 0.198408917 -0.948780835
vn -0.709082186 0.258710623 -0.655950665
vn -0.397209167 0.917719424 -0.00398343988
vn 0.107560873 0.407166392 -0.906998396
vn -0.449948609 0.411878377 -0.792402983
vn 0.113290563 -0.560764015 -0.820188403
vn -0.449948609 0.411878377 -0.792402983
vn -0.831045151 -0.208950981 -0.515464365
vn -0.0417224579 0.11674083 -0.992285728
vn 0.500242889 0.740759552 -0.448366255
vn 0.937621951 0.346681267 0.0260236841
vn 0.846723974 0.345591068 0.404506296
vn 0.693934441 0.528416216 0.489112705
vn 0.691436112 0.0268379413 0.721938968
vn 0.615173221 -0.101107143 0.781881928
vn 0.929734766 0.236832067 -0.28196454
vn 0.192403287 -0.137361035 -0.971654713
vn 0.569192708 -0.502368987 0.650880098
vn 0.532754362 -0.602381408 0.594398439
vn 0.660226345 -0.693841279 0.287550718
vn 0.623530447 -0.765235424 0.160076603
vn 0.869660258 0.467669964 -0.158037737
vn 0.904947996 -0.0325522572 -0.424275219
vn 0.847556531 -0.479172438 -0.228126317
vn 0.393477172 -0.347752482 -0.851025164
vn 0.000176021276 -0.800488353 -0.599348307
vn 0.622260869 -0.781359315 0.047635112
vn 0.352113694 -0.658441663 0.665184557
vn 0.46353364 -0.87229836 0.155666709
vn 0.603318334 -0.624850094 -0.495549589
vn 0.358832717 0.0544080324 0.931814849
vn 0.528991997 0.663881898 0.528609693
vn 0.670372128 0.735890806 -0.0952154025
vn 0.734451652 0.186319187 -0.652584016
vn 0.957250059 -0.134948626 0.255853713
vn 0.177161276 -0.883145809 -0.434358537
vn 0.299385428 0.112445965 -0.947483122
vn -0.744056523 -0.147693902 -0.651587546
vn -0.266053438 0.730076671 -0.629447162
vn 0.586688042 -0.472171217 -0.65791446
vn 0.659415781 -0.620224953 -0.424843252
vn 0.350859463 -0.8031708 -0.481471062
vn 0.538493097 -0.615345001 0.57565248
vn -0.284614801 -0.936466217 -0.20500119
vn -0.213251099 -0.611021876 0.762349069
vn -0.709096253 -0.322328091 0.627125978
vn -0.909263849 -0.100575194 -0.40388611
vn -0.976986706 0.207315877 0.0501711629
vn -0.682068765 0.178320706 -0.709213614
vn -0.379731089 -0.836621583 0.394802123
vn -0.775361836 -0.550882399 0.308775902
vn -0.647904158 -0.23726663 -0.723826468
vn -0.251071483 -0.910460711 -0.32867074
vn -0.255177289 -0.378560841 -0.889705718
vn -0.140486598 -0.884108663 -0.445662856
vn 0.350815982 -0.936385334 -0.0105229709
vn 0.31201154 -0.92549032 -0.214747488
vn -0.507426918 -0.764757276 0.397069663
vn -0.202296808 -0.798520505 0.566957653
vn -0.0147275114 -0.382979602 0.923639476
vn 0.71260041 -0.0774747059 0.697279274
vn -0.968706608 -0.244057253 0.0452051349
vn 0.448185325 -0.880258083 0.155806035
vn -0.416809082 0.233282104 0.878549695
vn -0.416809082 0.233282104 0.878549695
vn -0.220077798 0.218287557 0.950745165
vn -0.692819953 -0.413051516 0.591091394
vn -0.692819953 -0.413051516 0.591091394
vn 0.635752082 -0.579273045 0.510159016
vn -0.0147275114 -0.382979602 0.923639476
vn 0.289672166 -0.118855529 0.949717522
vn -7.87082172E-05 0.0700027719 0.997546732
vn -0.526064754 0.62378639 0.578053892
vn -7.87082172E-05 0.0700027719 0.997546732
vn 0.817461908 -0.0664301366 0.572139025
vn -0.709082663 0.180658638 0.681589544
vn -0.526064754 0.62378639 0.578053892
vn -0.743675947 0.188502669 0.641414762
vn 0.635752082 -0.579273045 0.510159016
vn -0.526064754 0.62378639 0.578053892
vn 0.999906778 -0.000421471312 -0.0136495316
vn 0.534821928 0.816433311 -0.217720792
vn 0.936752975 0.12921679 -0.325264394
vn 0.518801749 0.844547987 -0.132602379
vn 0.436516881 0.844989061 -0.308944285
vn 0.654244304 -0.02517155 -0.755864263
vn 0.333743989 0.889207065 -0.312930733
vn 0.245246515 0.26043734 -0.933823586
vn -0.729367852 0.642136037 -0.235973984
vn 0.191265464 -0.977496266 -0.0889859796
vn 0.151659802 -0.967603862 0.201846868
vn 0.513634443 -0.753471017 -0.410440117
vn 0.299385428 0.112445965 -0.947483122
vn -0.181022823 -0.88148272 -0.436141074
vn -0.824303091 -0.538928807 0.173436418
vn -0.968344748 -0.242590666 0.058806058
vn -0.87260139 -0.4777942 0.101387605
vn -0.323511541 -0.68018049 -0.65779537
vn -0.729367852 0.642136037 -0.235973984
vn -0.0105667124 0.99172616 0.127935976
vn 0.000314733421 0.999255836 -0.0385689177
vn -0.834480107 -0.548174798 0.0561007746
vn -0.968344748 -0.242590666 0.058806058
vn -0.778921902 -0.581323445 -0.23525241
vn -0.129836291 0.984346747 -0.119180724
vn -0.129836291 0.984346747 -0.119180724
vn -0.129836291 0.984346747 -0.119180724
vn -0.0465081856 0.984645188 -0.168258235
vn -0.266053438 0.730076671 -0.629447162
vn 0.299385428 0.112445965 -0.947483122
vn -0.266053438 0.730076671 -0.629447162
vn 0.177161276 -0.883145809 -0.434358537
vn -0.778921902 -0.581323445 -0.23525241
vn 0.513634443 -0.753471017 -0.410440117
vn 0.299385428 0.112445965 -0.947483122
vn -0.778921902 -0.581323445 -0.23525241
vn 0.794053972 0.101180375 -0.599366903
vn 0.813346863 0.581156373 0.026913004
vn 0.979969323 -0.184768707 -0.0743008479
vn 0.0790729523 0.526817799 -0.846292198
vn -0.373964876 0.927421272 -0.00632393081
vn 0.512194633 0.845041275 -0.153498814
vn 0.914948046 -0.2087356 -0.345397383
vn 0.461521327 0.786983728 -0.40945667
vn 0.546176016 0.0198541936 -0.837435067
vn 0.0779769942 0.880441606 -0.467698812
vn 0.145813391 0.168525741 -0.974852562
vn -0.711904585 0.216349497 -0.668120325
vn 0.187044531 -0.888921857 -0.418129414
vn 0.165771395 -0.977575183 -0.129871488
vn -0.0426103771 -0.680125415 -0.731856525
vn -0.538737118 -0.840145648 0.0625916645
vn -0.526257634 -0.848272324 0.0590505376
vn -0.192117199 0.978771508 0.0713958293
vn -0.350646764 0.912047923 0.212639153
vn -0.438247144 0.894551575 0.0878462344
vn 0.450063676 -0.88767767 -0.0973194912
vn -0.664008975 -0.747515082 0.0177012831
vn 0.113290563 -0.560764015 -0.820188403
vn -0.831045151 -0.208950981 -0.515464365
vn -0.75156343 -0.637343049 0.170135811
vn -0.75156343 -0.637343049 0.170135811
vn -0.711904585 0.216349497 -0.668120325
vn 0.113290563 -0.560764015 -0.820188403
vn 0.794053972 0.101180375 -0.599366903
vn 0.736975312 0.258275688 -0.624628782
vn 0.757504761 -0.652770638 -0.00877112709
vn -0.218486488 -0.700268626 -0.679623067
vn 0.967623055 0.247876227 0.0475706123
vn 0.551750243 0.810187161 -0.19791013
vn 0.39656952 0.917670429 -0.0247725546
vn 0.287424624 0.95505923 -0.0724505708
vn 0.952322066 0.137783855 -0.272209734
vn -0.556021094 0.8311553 0.0046251365
vn -0.382281482 0.910470903 -0.157809123
vn 0.388040751 -0.901266098 -0.192727253
vn 0.478905976 -0.730410874 -0.486979514
vn 0.662234724 0.0874754712 -0.744172752
vn 0.185859829 -0.780373693 -0.597053647
vn 0.440645486 0.160999104 -0.883125603
vn -0.248343378 0.0143159432 -0.968566239
vn 0.270526171 0.873964846 -0.40373379
vn 0.161867738 0.808744669 -0.56544739
vn -0.681610465 0.72931987 0.0591591448
vn -0.674236536 0.732375205 0.0950352326
vn -0.248343378 0.0143159432 -0.968566239
vn -0.708661258 -0.704394341 -0.0403468832
vn -0.758454323 -0.645557106 0.0894598067
vn -0.796835244 -0.60255444 0.0445185043
vn -0.954904199 -0.295265198 0.0312495064
vn -0.218486488 -0.700268626 -0.679623067
vn -0.742237449 0.658007503 0.126924306
vn -0.556021094 0.8311553 0.0046251365
vn -0.742237449 0.658007503 0.126924306
vn -0.382281482 0.910470903 -0.157809123
vn 0.0725567117 0.987007558 -0.143358052
vn -0.369873703 0.849934161 -0.375240356
vn 0.0453197844 0.731054723 -0.68081212
vn 0.144436225 0.92449826 -0.352761954
vn 0.500242889 0.740759552 -0.448366255
vn 0.54757005 0.800582528 -0.243381903
vn 0.54757005 0.800582528 -0.243381903
vn 0.466906279 0.791939855 -0.393484026
vn 0.566426873 0.781067193 -0.26285848
vn -0.223344713 0.967064977 -0.122075826
vn -0.46891433 0.612244487 -0.636612833
vn -0.67660594 0.718227386 -0.162338227
vn -0.976986706 0.207315877 0.0501711629
vn -0.682068765 0.178320706 -0.709213614
vn 0.00730365142 0.866764545 -0.498663992
vn -0.683130085 0.391499847 -0.61649096
vn -0.576147377 0.816957891 -0.0251770467
vn -0.281724364 0.274258256 -0.919463873
vn 0.0331289284 0.685755849 -0.727077305
vn -0.830004811 0.500001132 0.24716562
vn -0.323690236 0.940909386 0.0995703936
vn 0.45695281 0.769479036 -0.446201921
vn -0.0254275762 0.93872124 0.343738109
vn -0.0770059079 0.874404371 0.479048222
vn 0.384012967 0.881278038 -0.275468647
vn 0.40772149 0.892449439 0.193124667
vn 0.83695966 0.341275483 0.42781958
vn 0.582988501 0.0382830612 0.811577976
vn 0.604395568 0.438768327 0.664972484
vn -7.87082172E-05 0.0700027719 0.997546732
vn -0.714028656 -0.126355201 0.688619971
vn -0.80520916 -0.0956376791 0.585227787
vn -0.303031445 -0.110113621 0.946597636
vn -0.0932795107 -0.0216867514 0.995403767
vn -0.657525957 0.464505672 0.593206763
vn -0.714028656 -0.126355201 0.688619971
vn -0.714028656 -0.126355201 0.688619971
vn -0.741878927 0.383534074 0.550015807
vn -7.87082172E-05 0.0700027719 0.997546732
vn 0.817461908 -0.0664301366 0.572139025
vn -0.709082663 0.180658638 0.681589544
vn -0.709082663 0.180658638 0.681589544
vn -0.80520916 -0.0956376791 0.585227787
vn -0.660676003 0.27926591 -0.696791112
vn -0.218486488 -0.700268626 -0.679623067
vn -0.504018247 0.658988476 -0.558300853
vn -0.373964876 0.927421272 -0.00632393081
vn 0.794053972 0.101180375 -0.599366903
vn 0.113290563 -0.560764015 -0.820188403
vn -0.218486488 -0.700268626 -0.679623067
vn 0.736975312 0.258275688 -0.624628782
vn 0.500242889 0.740759552 -0.448366255
vn 0.107560873 0.407166392 -0.906998396
vn -0.711904585 0.216349497 -0.668120325
vn -0.350646764 0.912047923 0.212639153
vn -0.840249419 0.072165288 0.537376106
vn -0.870925009 0.218220025 0.440306276
vn -0.192117199 0.978771508 0.0713958293
vn -0.840249419 0.072165288 0.537376106
vn -0.438247144 0.894551575 0.0878462344
vn -0.438247144 0.894551575 0.0878462344
vn -0.941154957 0.273719817 0.198254794
vn -0.373964876 0.927421272 -0.00632393081
vn -0.75156343 -0.637343049 0.170135811
vn -0.526257634 -0.848272324 0.0590505376
vn -0.538737118 -0.840145648 0.0625916645
vn -0.891264498 0.37762326 -0.251094073
vn -0.981041133 0.18420516 -0.0602218211
vn -0.664008975 -0.747515082 0.0177012831
vn -0.831045151 -0.208950981 -0.515464365
vn -0.755921125 0.293439686 -0.585214853
vn -0.504018247 0.658988476 -0.558300853
vn -0.373964876 0.927421272 -0.00632393081
vn -0.654027283 0.443060637 -0.61314404
vn -0.660676003 0.27926591 -0.696791112
vn -0.628929257 0.310161054 -0.712915182
vn -0.477325499 0.587698936 -0.653276682
vn -0.369873703 0.849934161 -0.375240356
vn -0.660676003 0.27926591 -0.696791112
vn -0.382281482 0.910470903 -0.157809123
vn 0.0453197844 0.731054723 -0.68081212
vn -0.660518825 0.291233271 -0.692024648
vn -0.641789436 0.263947725 -0.720026374
vn -0.449948609 0.411878377 -0.792402983
vn -0.779795349 0.285247892 -0.557272613
vn -0.266053438 0.730076671 -0.629447162
vn -0.744056523 -0.147693902 -0.651587546
vn -0.871205986 0.399589777 -0.285180837
vn -0.929957688 0.360830247 0.0705704466
vn -0.748649061 -0.653928101 0.109099172
vn -0.931156993 0.298454016 0.209456131
vn -0.760678053 -0.601154447 0.244912624
vn -0.397209167 0.917719424 -0.00398343988
vn -0.449948609 0.411878377 -0.792402983
vn -0.446789563 0.153177664 -0.881428242
vn -0.778921902 -0.581323445 -0.23525241
vn -0.840043485 0.522224545 -0.146998063
vn -0.834480107 -0.548174798 0.0561007746
vn -0.968344748 -0.242590666 0.058806058
vn -0.266053438 0.730076671 -0.629447162
vn -0.0465081856 0.984645188 -0.168258235
vn -0.129836291 0.984346747 -0.119180724
vn -0.923393071 0.138915688 0.357837409
vn -0.40129903 0.913771808 0.0630883276
vn -0.198010847 0.972805202 -0.120173529
vn -0.53874445 -0.841337502 0.0436520949
vn -0.666832685 -0.73630923 0.11481677
vn -0.850187004 0.437284201 0.293197215
vn -0.224867731 0.971246421 -0.0781976134
vn -0.709082186 0.258710623 -0.655950665
vn -0.817690015 0.4938308 0.295827955
vn 0.000314733421 0.999255836 -0.0385689177
vn -0.660853505 0.643892288 0.385584474
vn -0.817690015 0.4938308 0.295827955
vn -0.0105667124 0.99172616 0.127935976
vn -0.87260139 -0.4777942 0.101387605
vn -0.729367852 0.642136037 -0.235973984
vn -0.824303091 -0.538928807 0.173436418
vn -0.902624369 0.394404113 0.17237927
vn -0.129836291 0.984346747 -0.119180724
vn -0.968344748 -0.242590666 0.058806058
vn -0.129836291 0.984346747 -0.119180724
vn -0.729367852 0.642136037 -0.235973984
vn -0.923393071 0.138915688 0.357837409
vn -0.850187004 0.437284201 0.293197215
vn -0.709082186 0.258710623 -0.655950665
vn -0.831045151 -0.208950981 -0.515464365
vn -0.382281482 0.910470903 -0.157809123
vn -0.954904199 -0.295265198 0.0312495064
vn -0.556021094 0.8311553 0.0046251365
vn -0.742237449 0.658007503 0.126924306
vn -0.556021094 0.8311553 0.0046251365
vn -0.796835244 -0.60255444 0.0445185043
vn -0.674236536 0.732375205 0.0950352326
vn -0.742237449 0.658007503 0.126924306
vn -0.708661258 -0.704394341 -0.0403468832
vn -0.681610465 0.72931987 0.0591591448
vn -0.758454323 -0.645557106 0.0894598067
vn -0.248343378 0.0143159432 -0.968566239
vn -0.954904199 -0.295265198 0.0312495064
vn -0.660676003 0.27926591 -0.696791112
vn -0.870925009 0.218220025 0.440306276
vn -0.840249419 0.072165288 0.537376106
vn -0.711904585 0.216349497 -0.668120325
vn -0.664008975 -0.747515082 0.0177012831
vn -0.75156343 -0.637343049 0.170135811
vn -0.373964876 0.927421272 -0.00632393081
vn -0.638006985 0.341001242 -0.690409482
vn 0.530211687 0.761290729 -0.373245239
vn 0.877515197 -0.288203806 -0.383282781
vn -0.333444566 0.131500453 -0.933553696
vn -0.171451643 0.201831058 -0.964296937
vn -0.638006985 0.341001242 -0.690409482
vn -0.751234412 0.658283174 0.0480648167
vn -0.316091686 0.904666603 -0.28576979
vn 0.839556634 0.316563278 -0.441511542
vn 0.790222764 0.572044194 -0.219803095
vn -0.65742135 0.737691879 -0.1536486
vn 0.837355733 -0.448824286 -0.312077135
vn 0.880050957 -0.409972578 -0.23965165
vn 0.215917066 -0.19019337 -0.957708836
vn -0.65742135 0.737691879 -0.1536486
vn 0.877515197 -0.288203806 -0.383282781
vn -0.994641542 -0.103344731 -0.0028458701
vn -0.433696628 -0.837276757 -0.332978874
vn -0.939125896 -0.140730351 -0.313428462
vn -0.264422238 -0.947595835 -0.179284766
vn 0.215917066 -0.19019337 -0.957708836
vn -0.999013066 -0.00613187021 0.0439909063
vn -0.524492621 -0.823451877 0.216412976
vn -0.907518566 -0.165704072 0.385943234
vn -0.320669204 -0.947103322 0.0128996223
vn 0.5455724 -0.837369919 -0.0340912156
vn 0.522648513 -0.609348178 -0.59626621
vn -0.907815874 -0.255474508 -0.332570672
vn -0.65742135 0.737691879 -0.1536486
vn 0.306975543 -0.866860688 -0.392834067
vn 0.880050957 -0.409972578 -0.23965165
vn 0.457543999 -0.878280699 -0.138839886
vn 0.837355733 -0.448824286 -0.312077135
vn 0.532003641 -0.822760344 -0.200093865
vn 0.877515197 -0.288203806 -0.383282781
vn -0.751234412 0.658283174 0.0480648167
vn -0.316091686 0.904666603 -0.28576979
vn -0.65742135 0.737691879 -0.1536486
vn -0.638006985 0.341001242 -0.690409482
vn -0.284614801 -0.936466217 -0.20500119
vn -0.320669204 -0.947103322 0.0128996223
vn -0.333444566 0.131500453 -0.933553696
vn -0.909263849 -0.100575194 -0.40388611
vn 0.177161276 -0.883145809 -0.434358537
vn 0.877515197 -0.288203806 -0.383282781
vn 0.177161276 -0.883145809 -0.434358537
vn 0.612888157 -0.746110797 0.260166824
vn -0.379731089 -0.836621583 0.394802123
vn 0.805832982 -0.230405882 -0.545478046
vn 0.877515197 -0.288203806 -0.383282781
vn 0.177161276 -0.883145809 -0.434358537
vn -0.778921902 -0.581323445 -0.23525241
vn -0.446789563 0.153177664 -0.881428242
vn 0.177161276 -0.883145809 -0.434358537
vn -0.373964876 0.927421272 -0.00632393081
vn -0.438247144 0.894551575 0.0878462344
vn 0.500242889 0.740759552 -0.448366255
vn 0.500242889 0.740759552 -0.448366255
vn -0.416809082 0.233282104 0.878549695
vn -0.753443718 0.451797783 0.477704167
vn -0.743675947 0.188502669 0.641414762
vn -0.743675947 0.188502669 0.641414762
vn 0.71260041 -0.0774747059 0.697279274
vn -0.333444566 0.131500453 -0.933553696
vn -0.171451643 0.201831058 -0.964296937
vn 0.466906279 0.791939855 -0.393484026
vn -0.220077798 0.218287557 0.950745165
vn -0.968706608 -0.244057253 0.0452051349
vn -0.0932795107 -0.0216867514 0.995403767
vn -0.255177289 -0.378560841 -0.889705718
vn -0.647904158 -0.23726663 -0.723826468
vn 0.721959114 -0.644282401 -0.252339751
vn -0.448132664 -0.317247987 0.835781634
vn 0.130981222 -0.26842761 0.954353392
vn 0.398340076 -0.0253099781 0.916888595
vn 0.651118398 -0.202538073 -0.731452763
vn 0.903061152 -0.132949442 -0.408417672
vn 0.00206115306 0.101323791 0.99485141
vn -0.464040905 -0.86834693 0.175042257
vn -0.403699934 -0.912639499 -0.0641517565
vn 0.315936059 0.109777905 0.942408204
vn 0.678591251 -0.0564452037 -0.732344151
vn 0.839776576 0.431284726 -0.329801112
vn -0.00463978201 0.501318395 0.865250528
vn -0.460775435 0.540149927 0.704218805
vn -0.391411036 0.916777432 0.0794771537
vn -0.251989245 0.95339936 -0.165924937
vn 0.56188947 0.544046104 -0.623132408
vn 0.413332045 -0.728174567 -0.546734333
vn -0.753492057 -0.655796885 0.0466926619
vn 0.413332045 -0.728174567 -0.546734333
vn 0.158107728 -0.755162776 -0.636184871
vn -0.403699934 -0.912639499 -0.0641517565
vn -0.624668837 0.777432203 -0.0734033585
vn 0.309739709 0.609582305 -0.729705989
vn 0.56188947 0.544046104 -0.623132408
vn -0.576147377 0.816957891 -0.0251770467
vn -0.741878927 0.383534074 0.550015807
vn -0.751590192 -0.409865797 0.51683867
vn -0.692819953 -0.413051516 0.591091394
vn -0.751590192 -0.409865797 0.51683867
vn -0.692819953 -0.413051516 0.591091394
vn 0.192403287 -0.137361035 -0.971654713
vn 0.651118398 -0.202538073 -0.731452763
vn 0.903061152 -0.132949442 -0.408417672
vn 0.805832982 -0.230405882 -0.545478046
vn 0.678591251 -0.0564452037 -0.732344151
vn 0.929734766 0.236832067 -0.28196454
vn 0.839776576 0.431284726 -0.329801112
vn 0.678591251 -0.0564452037 -0.732344151
vn 0.56188947 0.544046104 -0.623132408
vn 0.309739709 0.609582305 -0.729705989
vn 0.566426873 0.781067193 -0.26285848
vn 0.721959114 -0.644282401 -0.252339751
vn 0.413332045 -0.728174567 -0.546734333
vn 0.651118398 -0.202538073 -0.731452763
vn 0.158107728 -0.755162776 -0.636184871
vn 0.612888157 -0.746110797 0.260166824
vn 0.158107728 -0.755162776 -0.636184871
vn 0.413332045 -0.728174567 -0.546734333
vn -0.379731089 -0.836621583 0.394802123
vn -0.753492057 -0.655796885 0.0466926619
vn -0.379731089 -0.836621583 0.394802123
vn 0.612888157 -0.746110797 0.260166824
vn -0.223344713 0.967064977 -0.122075826
vn 0.309739709 0.609582305 -0.729705989
vn -0.624668837 0.777432203 -0.0734033585
vn 0.309739709 0.609582305 -0.729705989
vn -0.624668837 0.777432203 -0.0734033585
vn -0.576147377 0.816957891 -0.0251770467
vn -0.741878927 0.383534074 0.550015807
vn -0.576147377 0.816957891 -0.0251770467
vn -0.741878927 0.383534074 0.550015807
vn -0.251989245 0.95339936 -0.165924937
vn -0.391411036 0.916777432 0.0794771537
vn -0.460775435 0.540149927 0.704218805
vn -0.0770059079 0.874404371 0.479048222
vn 0.40772149 0.892449439 0.193124667
vn -0.00463978201 0.501318395 0.865250528
vn 0.315936059 0.109777905 0.942408204
vn 0.582988501 0.0382830612 0.811577976
vn -7.87082172E-05 0.0700027719 0.997546732
vn -7.87082172E-05 0.0700027719 0.997546732
vn 0.00206115306 0.101323791 0.99485141
vn 0.398340076 -0.0253099781 0.916888595
vn -7.87082172E-05 0.0700027719 0.997546732
vn 0.289672166 -0.118855529 0.949717522
vn -0.0147275114 -0.382979602 0.923639476
vn 0.130981222 -0.26842761 0.954353392
vn -0.448132664 -0.317247987 0.835781634
vn -0.692819953 -0.413051516 0.591091394
vn -0.692819953 -0.413051516 0.591091394
vn -0.464040905 -0.86834693 0.175042257
vn -0.692819953 -0.413051516 0.591091394
vn 0.448185325 -0.880258083 0.155806035
vn -0.403699934 -0.912639499 -0.0641517565
vn -0.464040905 -0.86834693 0.175042257
vn -0.753492057 -0.655796885 0.0466926619
vn -0.751590192 -0.409865797 0.51683867
vn -0.379731089 -0.836621583 0.394802123
vn 0.147117034 -0.342591643 0.927894175
vn 0.270151556 0.0934772342 0.958269298
vn -0.0932795107 -0.0216867514 0.995403767
vn -0.303031445 -0.110113621 0.946597636
vn 0.0609081127 -0.445852637 0.893031657
vn -0.297835469 -0.721556127 0.625020683
vn -0.565184414 -0.723546743 0.396291107
vn -0.748010695 -0.593223214 0.297600836
vn -0.714028656 -0.126355201 0.688619971
vn -0.976780415 -0.201327488 0.0732615665
vn -0.80520916 -0.0956376791 0.585227787
vn -0.709082663 0.180658638 0.681589544
vn -0.709082663 0.180658638 0.681589544
vn -0.775832355 0.619750798 0.118292958
vn -0.526064754 0.62378639 0.578053892
vn -0.709082663 0.180658638 0.681589544
vn -0.814417899 0.57351321 0.0883519873
vn -0.743675947 0.188502669 0.641414762
vn -0.753443718 0.451797783 0.477704167
vn -0.405101329 0.793341756 0.45442459
vn -0.416809082 0.233282104 0.878549695
vn -0.753443718 0.451797783 0.477704167
vn 0.0619776584 0.534145832 0.843117476
vn -0.220077798 0.218287557 0.950745165
vn -0.416809082 0.233282104 0.878549695
vn -0.0932795107 -0.0216867514 0.995403767
vn -0.169275209 -0.893020928 -0.41696465
vn 0.642179847 -0.685302198 0.343461752
vn -0.103546664 -0.449576765 -0.887219787
vn 0.190949485 -0.709756792 -0.678073347
vn 0.713861644 -0.541385889 0.444187969
vn 0.557510972 -0.460868001 -0.69049412
vn 0.557850957 -0.557597756 0.614725232
vn 0.971700847 -0.0577951334 0.229035094
vn 0.0139600402 -0.040645089 -0.999076128
vn -0.0700674281 -0.778805852 0.623339415
vn -0.372272372 -0.927505493 -0.0338642001
vn 0.495193779 0.262824684 -0.828073919
vn 0.661559463 -0.123058669 0.739726722
vn -0.680916309 -0.710160851 -0.178953931
vn -0.0700674281 -0.778805852 0.623339415
vn -0.372272372 -0.927505493 -0.0338642001
vn -0.231465146 -0.607945323 0.759490967
vn 0.292741835 0.0365200676 0.955493808
vn 0.642179847 -0.685302198 0.343461752
vn 0.713861644 -0.541385889 0.444187969
vn 0.179701477 -0.374929726 0.909469664
vn 0.557850957 -0.557597756 0.614725232
vn 0.22780326 0.151952505 0.961777508
vn 0.971700847 -0.0577951334 0.229035094
vn 0.0689467564 -0.255614579 0.964317203
vn 0.0689467564 -0.255614579 0.964317203
vn 0.661559463 -0.123058669 0.739726722
vn 0.0305643976 0.256712049 0.966004491
vn 0.0305643976 0.256712049 0.966004491
vn 0.715040088 0.40222159 0.571782649
vn 0.14373377 0.133588687 0.980558336
vn 0.195039436 -0.0886513516 0.976780772
vn 0.715040088 0.40222159 0.571782649
vn 0.843440235 0.452727765 0.289216429
vn 0.199511454 0.788796544 0.581373572
vn 0.843440235 0.452727765 0.289216429
vn -0.124024026 0.635411739 0.762148261
vn -0.512596548 0.809260011 -0.286954612
vn -0.0184262618 0.980228901 -0.197006568
vn -0.680916309 -0.710160851 -0.178953931
vn -0.169275209 -0.893020928 -0.41696465
vn -0.606287777 -0.33826828 -0.71971494
vn -0.372272372 -0.927505493 -0.0338642001
vn -0.103546664 -0.449576765 -0.887219787
vn -0.458099186 -0.0806653202 -0.885233462
vn -0.381788731 -0.114059873 -0.917184711
vn 0.190949485 -0.709756792 -0.678073347
vn 0.190949485 -0.709756792 -0.678073347
vn -0.533298969 -0.0798302889 -0.842151582
vn 0.557510972 -0.460868001 -0.69049412
vn 0.0139600402 -0.040645089 -0.999076128
vn -0.435970604 0.0485876054 -0.898648322
vn -0.498412758 -0.00782011077 -0.866904557
vn 0.495193779 0.262824684 -0.828073919
vn -0.374580175 0.392371833 -0.840079784
vn 0.557510972 -0.460868001 -0.69049412
vn -0.374580175 0.392371833 -0.840079784
vn 0.417577326 0.333546609 -0.845207572
vn -0.397953123 0.114919178 -0.910179675
vn 0.0828222781 0.530945301 -0.84334904
vn -0.523889363 0.442843616 -0.727619052
vn 0.141267419 0.824405253 -0.54808712
vn -0.512596548 0.809260011 -0.286954612
vn -0.0184262618 0.980228901 -0.197006568
vn 0.141267419 0.824405253 -0.54808712
vn 0.0828222781 0.530945301 -0.84334904
vn 0.843440235 0.452727765 0.289216429
vn 0.417577326 0.333546609 -0.845207572
vn 0.715040088 0.40222159 0.571782649
vn 0.495193779 0.262824684 -0.828073919
vn 0.661559463 -0.123058669 0.739726722
vn 0.199511454 0.788796544 0.581373572
vn -0.0184262618 0.980228901 -0.197006568
vn -0.673544645 -0.739110947 0.00724911503
vn -0.673544645 -0.739110947 0.00724911503
vn -0.523532987 -0.850884914 0.0436824858
vn -0.799090326 -0.600489438 -0.0294475686
vn -0.837845504 -0.479033172 0.261805713
vn -0.837845504 -0.479033172 0.261805713
vn -0.800719082 -0.580824733 0.146599665
vn -0.854015291 -0.365259826 0.37046349
vn -0.848049819 -0.425245941 0.316191882
vn -0.848049819 -0.425245941 0.316191882
vn -0.695246875 -0.684064865 0.220651552
vn -0.848049819 -0.425245941 0.316191882
vn -0.916502476 -0.124130517 0.380282581
vn -0.894473791 -0.135947734 0.425951689
vn -0.894473791 -0.135947734 0.425951689
vn -0.866277099 -0.453602701 0.209305063
vn -0.789719939 0.201913878 0.579286814
vn -0.912309647 0.0434684008 0.407187372
vn -0.912309647 0.0434684008 0.407187372
vn -0.91409266 0.0724841431 0.398974538
vn -0.909694254 0.0144129945 0.415028632
vn -0.532079041 0.821018815 0.206929728
vn -0.532079041 0.821018815 0.206929728
vn -0.604844034 0.768004596 0.210553139
vn -0.45499444 0.867367685 0.20162639
vn -0.764540732 0.585852206 0.268802255
vn -0.764540732 0.585852206 0.268802255
vn -0.74326849 0.622980952 0.243816793
vn -0.783935726 0.54728502 0.293127686
vn -0.403661847 0.914898574 -0.00421734713
vn -0.403661847 0.914898574 -0.00421734713
vn -0.26676935 0.952294052 -0.148223296
vn -0.524054348 0.840105891 0.139960974
vn -0.362446159 0.9199875 -0.149183691
vn -0.362446159 0.9199875 -0.149183691
vn -0.362446159 0.9199875 -0.149183691
vn -0.862006724 0.337320149 0.378364235
vn -0.862006724 0.337320149 0.378364235
vn -0.862006724 0.337320149 0.378364235
g green_mag_pve_f_4_hand_l_0
f 3/3/3 2/2/2 1/1/1
f 4/4/4 1/1/1 2/2/2
f 1/1/1 5/5/5 3/3/3
f 6/6/6 3/3/3 5/5/5
f 6/6/6 5/5/5 7/7/7
f 6/6/6 7/7/7 8/8/8
f 6/6/6 8/8/8 3/3/3
f 9/9/9 8/8/8 7/7/7
f 10/10/10 7/7/7 5/5/5
f 2/2/2 3/3/3 11/11/11
f 12/12/12 11/11/11 3/3/3
f 12/12/12 3/3/3 8/8/8
f 11/11/11 12/12/12 13/13/13
f 14/14/14 13/13/13 12/12/12
f 8/8/8 15/15/15 12/12/12
f 14/14/14 12/12/12 15/15/15
f 15/15/15 16/16/16 14/14/14
f 17/17/17 14/14/14 16/16/16
f 14/14/14 18/18/18 13/13/13
f 13/13/13 19/19/19 11/11/11
f 13/13/13 20/20/20 19/19/19
f 20/20/20 13/13/13 21/21/21
f 22/22/22 19/19/19 20/20/20
f 23/23/23 11/11/11 19/19/19
f 22/22/22 20/20/20 24/24/24
f 15/15/15 25/25/25 16/16/16
f 26/26/26 16/16/16 25/25/25
f 27/27/27 16/16/16 26/26/26
f 15/15/15 8/8/8 25/25/25
f 9/9/9 25/25/25 8/8/8
f 29/29/29 28/28/28 16/16/16
f 31/31/31 20/20/20 30/30/30
f 23/23/23 32/32/32 11/11/11
f 2/2/2 11/11/11 32/32/32
f 2/2/2 32/32/32 33/33/33
f 34/34/34 4/4/4 32/32/32
f 4/4/4 36/36/36 35/35/35
f 37/37/37 35/35/35 36/36/36
f 4/4/4 35/35/35 38/38/38
f 40/40/40 38/38/38 39/39/39
f 40/40/40 39/39/39 41/41/41
f 41/41/41 42/42/42 40/40/40
f 42/42/42 41/41/41 43/43/43
f 44/44/44 43/43/43 41/41/41
f 41/41/41 45/45/45 44/44/44
f 46/46/46 44/44/44 45/45/45
f 43/43/43 44/44/44 47/47/47
f 48/48/48 47/47/47 44/44/44
f 48/48/48 49/49/49 47/47/47
f 50/50/50 47/47/47 49/49/49
f 51/51/51 40/40/40 42/42/42
f 51/51/51 52/52/52 40/40/40
f 38/38/38 40/40/40 52/52/52
f 52/52/52 53/53/53 38/38/38
f 54/54/54 38/38/38 53/53/53
f 49/49/49 54/54/54 50/50/50
f 53/53/53 50/50/50 54/54/54
f 49/49/49 55/55/55 54/54/54
f 56/56/56 55/55/55 49/49/49
f 47/47/47 50/50/50 57/57/57
f 58/58/58 57/57/57 50/50/50
f 53/53/53 59/59/59 50/50/50
f 58/58/58 50/50/50 59/59/59
f 53/53/53 52/52/52 59/59/59
f 57/57/57 60/60/60 47/47/47
f 43/43/43 47/47/47 60/60/60
f 43/43/43 60/60/60 42/42/42
f 61/61/61 42/42/42 60/60/60
f 61/61/61 62/62/62 42/42/42
f 51/51/51 42/42/42 62/62/62
f 62/62/62 63/63/63 51/51/51
f 52/52/52 51/51/51 63/63/63
f 63/63/63 59/59/59 52/52/52
f 59/59/59 63/63/63 64/64/64
f 64/64/64 63/63/63 62/62/62
f 64/64/64 62/62/62 61/61/61
f 64/64/64 61/61/61 60/60/60
f 64/64/64 60/60/60 57/57/57
f 57/57/57 58/58/58 64/64/64
f 58/58/58 59/59/59 64/64/64
f 56/56/56 65/65/65 55/55/55
f 54/54/54 55/55/55 66/66/66
f 66/66/66 5/5/5 54/54/54
f 5/5/5 66/66/66 67/67/67
f 68/68/68 67/67/67 66/66/66
f 70/70/70 69/69/69 56/56/56
f 70/70/70 71/71/71 69/69/69
f 71/71/71 70/70/70 72/72/72
f 71/71/71 72/72/72 73/73/73
f 74/74/74 73/73/73 72/72/72
f 74/74/74 75/75/75 73/73/73
f 76/76/76 73/73/73 75/75/75
f 75/75/75 77/77/77 76/76/76
f 78/78/78 76/76/76 77/77/77
f 72/72/72 79/79/79 74/74/74
f 77/77/77 75/75/75 80/80/80
f 77/77/77 80/80/80 81/81/81
f 82/82/82 81/81/81 80/80/80
f 81/81/81 82/82/82 83/83/83
f 84/84/84 83/83/83 82/82/82
f 82/82/82 85/85/85 84/84/84
f 86/86/86 84/84/84 85/85/85
f 84/84/84 86/86/86 87/87/87
f 88/88/88 87/87/87 86/86/86
f 86/86/86 89/89/89 88/88/88
f 90/90/90 88/88/88 89/89/89
f 83/83/83 84/84/84 91/91/91
f 87/87/87 91/91/91 84/84/84
f 85/85/85 92/92/92 86/86/86
f 89/89/89 86/86/86 92/92/92
f 87/87/87 88/88/88 93/93/93
f 87/87/87 94/94/94 91/91/91
f 95/95/95 91/91/91 94/94/94
f 85/85/85 96/96/96 92/92/92
f 82/82/82 97/97/97 85/85/85
f 90/90/90 99/99/99 98/98/98
f 100/100/100 98/98/98 89/89/89
f 100/100/100 101/101/101 98/98/98
f 98/98/98 102/102/102 90/90/90
f 104/104/104 98/98/98 103/103/103
f 104/104/104 105/105/105 98/98/98
f 107/107/107 90/90/90 106/106/106
f 109/109/109 108/108/108 105/105/105
f 112/112/112 111/111/111 110/110/110
f 113/113/113 110/110/110 111/111/111
f 111/111/111 112/112/112 114/114/114
f 115/115/115 114/114/114 112/112/112
f 114/114/114 115/115/115 116/116/116
f 117/117/117 116/116/116 115/115/115
f 117/117/117 118/118/118 116/116/116
f 112/112/112 110/110/110 119/119/119
f 112/112/112 119/119/119 115/115/115
f 120/120/120 119/119/119 110/110/110
f 120/120/120 110/110/110 121/121/121
f 122/122/122 121/121/121 110/110/110
f 123/123/123 115/115/115 119/119/119
f 123/123/123 119/119/119 124/124/124
f 125/125/125 124/124/124 119/119/119
f 124/124/124 126/126/126 123/123/123
f 127/127/127 123/123/123 126/126/126
f 123/123/123 127/127/127 115/115/115
f 117/117/117 115/115/115 127/127/127
f 126/126/126 128/128/128 127/127/127
f 127/127/127 128/128/128 117/117/117
f 116/116/116 129/129/129 114/114/114
f 116/116/116 118/118/118 129/129/129
f 130/130/130 114/114/114 129/129/129
f 120/120/120 131/131/131 119/119/119
f 132/132/132 119/119/119 131/131/131
f 131/131/131 120/120/120 133/133/133
f 114/114/114 130/130/130 111/111/111
f 134/134/134 111/111/111 130/130/130
f 111/111/111 135/135/135 113/113/113
f 137/137/137 113/113/113 136/136/136
f 137/137/137 138/138/138 113/113/113
f 113/113/113 139/139/139 110/110/110
f 139/139/139 113/113/113 140/140/140
f 133/133/133 55/55/55 141/141/141
f 143/143/143 55/55/55 142/142/142
f 143/143/143 144/144/144 55/55/55
f 143/143/143 145/145/145 120/120/120
f 148/148/148 147/147/147 146/146/146
f 149/149/149 146/146/146 147/147/147
f 147/147/147 150/150/150 149/149/149
f 147/147/147 148/148/148 151/151/151
f 147/147/147 151/151/151 150/150/150
f 152/152/152 151/151/151 148/148/148
f 151/151/151 152/152/152 153/153/153
f 154/154/154 153/153/153 152/152/152
f 153/153/153 154/154/154 155/155/155
f 156/156/156 155/155/155 154/154/154
f 156/156/156 157/157/157 155/155/155
f 154/154/154 152/152/152 158/158/158
f 159/159/159 158/158/158 152/152/152
f 158/158/158 160/160/160 154/154/154
f 156/156/156 154/154/154 160/160/160
f 160/160/160 158/158/158 161/161/161
f 161/161/161 157/157/157 160/160/160
f 162/162/162 161/161/161 158/158/158
f 158/158/158 159/159/159 162/162/162
f 153/153/153 155/155/155 163/163/163
f 153/153/153 163/163/163 151/151/151
f 164/164/164 163/163/163 155/155/155
f 157/157/157 164/164/164 155/155/155
f 165/165/165 151/151/151 163/163/163
f 159/159/159 152/152/152 166/166/166
f 166/166/166 167/167/167 159/159/159
f 166/166/166 168/168/168 167/167/167
f 169/169/169 167/167/167 168/168/168
f 170/170/170 159/159/159 167/167/167
f 171/171/171 162/162/162 159/159/159
f 160/160/160 172/172/172 156/156/156
f 166/166/166 148/148/148 173/173/173
f 174/174/174 173/173/173 148/148/148
f 148/148/148 166/166/166 152/152/152
f 177/177/177 176/176/176 175/175/175
f 178/178/178 175/175/175 176/176/176
f 175/175/175 178/178/178 179/179/179
f 180/180/180 179/179/179 178/178/178
f 180/180/180 178/178/178 181/181/181
f 182/182/182 181/181/181 178/178/178
f 178/178/178 176/176/176 182/182/182
f 180/180/180 181/181/181 183/183/183
f 179/179/179 180/180/180 184/184/184
f 185/185/185 182/182/182 176/176/176
f 185/185/185 186/186/186 182/182/182
f 187/187/187 182/182/182 186/186/186
f 186/186/186 188/188/188 187/187/187
f 189/189/189 187/187/187 188/188/188
f 189/189/189 188/188/188 190/190/190
f 187/187/187 189/189/189 191/191/191
f 187/187/187 191/191/191 182/182/182
f 181/181/181 182/182/182 191/191/191
f 192/192/192 191/191/191 189/189/189
f 189/189/189 190/190/190 192/192/192
f 192/192/192 193/193/193 191/191/191
f 194/194/194 191/191/191 193/193/193
f 191/191/191 194/194/194 181/181/181
f 192/192/192 195/195/195 193/193/193
f 186/186/186 196/196/196 188/188/188
f 186/186/186 185/185/185 196/196/196
f 197/197/197 188/188/188 196/196/196
f 197/197/197 190/190/190 188/188/188
f 198/198/198 196/196/196 185/185/185
f 185/185/185 176/176/176 198/198/198
f 199/199/199 198/198/198 176/176/176
f 176/176/176 200/200/200 199/199/199
f 201/201/201 181/181/181 194/194/194
f 203/203/203 202/202/202 181/181/181
f 202/202/202 204/204/204 180/180/180
f 179/179/179 204/204/204 205/205/205
f 206/206/206 205/205/205 204/204/204
f 206/206/206 207/207/207 205/205/205
f 208/208/208 205/205/205 207/207/207
f 179/179/179 205/205/205 209/209/209
f 210/210/210 205/205/205 208/208/208
f 210/210/210 39/39/39 205/205/205
f 208/208/208 207/207/207 211/211/211
f 212/212/212 211/211/211 207/207/207
f 210/210/210 212/212/212 45/45/45
f 213/213/213 45/45/45 212/212/212
f 214/214/214 213/213/213 212/212/212
f 212/212/212 215/215/215 214/214/214
f 216/216/216 214/214/214 215/215/215
f 216/216/216 215/215/215 217/217/217
f 218/218/218 217/217/217 215/215/215
f 216/216/216 219/219/219 214/214/214
f 216/216/216 220/220/220 219/219/219
f 216/216/216 217/217/217 220/220/220
f 221/221/221 214/214/214 219/219/219
f 220/220/220 222/222/222 219/219/219
f 223/223/223 219/219/219 222/222/222
f 222/222/222 224/224/224 223/223/223
f 225/225/225 223/223/223 224/224/224
f 223/223/223 225/225/225 226/226/226
f 223/223/223 226/226/226 219/219/219
f 227/227/227 226/226/226 225/225/225
f 226/226/226 227/227/227 228/228/228
f 226/226/226 228/228/228 229/229/229
f 229/229/229 219/219/219 226/226/226
f 230/230/230 229/229/229 228/228/228
f 231/231/231 228/228/228 227/227/227
f 228/228/228 231/231/231 232/232/232
f 233/233/233 232/232/232 231/231/231
f 232/232/232 233/233/233 234/234/234
f 231/231/231 235/235/235 233/233/233
f 236/236/236 233/233/233 235/235/235
f 225/225/225 224/224/224 237/237/237
f 225/225/225 237/237/237 227/227/227
f 238/238/238 237/237/237 224/224/224
f 239/239/239 227/227/227 237/237/237
f 239/239/239 240/240/240 227/227/227
f 231/231/231 227/227/227 241/241/241
f 229/229/229 230/230/230 242/242/242
f 244/244/244 243/243/243 233/233/233
f 244/244/244 233/233/233 245/245/245
f 247/247/247 246/246/246 233/233/233
f 249/249/249 149/149/149 248/248/248
f 250/250/250 248/248/248 149/149/149
f 250/250/250 149/149/149 251/251/251
f 149/149/149 38/38/38 252/252/252
f 252/252/252 38/38/38 253/253/253
f 254/254/254 38/38/38 149/149/149
f 254/254/254 255/255/255 38/38/38
f 256/256/256 38/38/38 255/255/255
f 38/38/38 54/54/54 257/257/257
f 257/257/257 54/54/54 1/1/1
f 1/1/1 54/54/54 5/5/5
f 260/260/260 259/259/259 258/258/258
f 262/262/262 259/259/259 261/261/261
f 263/263/263 261/261/261 259/259/259
f 262/262/262 261/261/261 264/264/264
f 266/266/266 265/265/265 261/261/261
f 265/265/265 266/266/266 267/267/267
f 266/266/266 261/261/261 268/268/268
f 269/269/269 268/268/268 261/261/261
f 269/269/269 261/261/261 270/270/270
f 272/272/272 271/271/271 267/267/267
f 272/272/272 266/266/266 273/273/273
f 273/273/273 274/274/274 272/272/272
f 271/271/271 272/272/272 274/274/274
f 275/275/275 271/271/271 274/274/274
f 275/275/275 276/276/276 271/271/271
f 276/276/276 277/277/277 271/271/271
f 275/275/275 278/278/278 276/276/276
f 279/279/279 276/276/276 278/278/278
f 275/275/275 280/280/280 278/278/278
f 281/281/281 278/278/278 280/280/280
f 278/278/278 281/281/281 282/282/282
f 278/278/278 282/282/282 283/283/283
f 284/284/284 283/283/283 282/282/282
f 285/285/285 282/282/282 281/281/281
f 280/280/280 275/275/275 286/286/286
f 287/287/287 286/286/286 275/275/275
f 287/287/287 275/275/275 288/288/288
f 287/287/287 289/289/289 286/286/286
f 289/289/289 287/287/287 290/290/290
f 291/291/291 290/290/290 287/287/287
f 292/292/292 291/291/291 287/287/287
f 292/292/292 293/293/293 291/291/291
f 294/294/294 291/291/291 293/293/293
f 293/293/293 295/295/295 294/294/294
f 296/296/296 294/294/294 295/295/295
f 288/288/288 297/297/297 292/292/292
f 293/293/293 292/292/292 297/297/297
f 293/293/293 297/297/297 295/295/295
f 287/287/287 298/298/298 292/292/292
f 299/299/299 286/286/286 289/289/289
f 289/289/289 300/300/300 299/299/299
f 289/289/289 301/301/301 300/300/300
f 302/302/302 300/300/300 301/301/301
f 302/302/302 301/301/301 303/303/303
f 289/289/289 304/304/304 301/301/301
f 305/305/305 301/301/301 304/304/304
f 305/305/305 306/306/306 301/301/301
f 295/295/295 307/307/307 296/296/296
f 295/295/295 308/308/308 307/307/307
f 308/308/308 295/295/295 297/297/297
f 309/309/309 307/307/307 308/308/308
f 310/310/310 296/296/296 307/307/307
f 310/310/310 307/307/307 311/311/311
f 307/307/307 309/309/309 312/312/312
f 313/313/313 312/312/312 309/309/309
f 312/312/312 313/313/313 314/314/314
f 316/316/316 315/315/315 306/306/306
f 318/318/318 316/316/316 317/317/317
f 319/319/319 317/317/317 316/316/316
f 317/317/317 320/320/320 315/315/315
f 320/320/320 317/317/317 321/321/321
f 322/322/322 315/315/315 320/320/320
f 315/315/315 322/322/322 323/323/323
f 323/323/323 324/324/324 315/315/315
f 325/325/325 323/323/323 322/322/322
f 323/323/323 325/325/325 301/301/301
f 323/323/323 301/301/301 326/326/326
f 317/317/317 319/319/319 327/327/327
f 329/329/329 311/311/311 328/328/328
f 311/311/311 329/329/329 330/330/330
f 331/331/331 298/298/298 275/275/275
f 334/334/334 333/333/333 332/332/332
f 283/283/283 332/332/332 333/333/333
f 336/336/336 335/335/335 333/333/333
f 337/337/337 333/333/333 335/335/335
f 339/339/339 338/338/338 337/337/337
f 340/340/340 337/337/337 338/338/338
f 338/338/338 341/341/341 340/340/340
f 342/342/342 340/340/340 341/341/341
f 342/342/342 341/341/341 343/343/343
f 345/345/345 344/344/344 177/177/177
f 347/347/347 270/270/270 346/346/346
f 348/348/348 270/270/270 347/347/347
f 350/350/350 349/349/349 266/266/266
f 272/272/272 351/351/351 266/266/266
f 299/299/299 353/353/353 352/352/352
f 353/353/353 299/299/299 354/354/354
f 299/299/299 352/352/352 286/286/286
f 355/355/355 286/286/286 352/352/352
f 286/286/286 355/355/355 280/280/280
f 356/356/356 280/280/280 355/355/355
f 356/356/356 281/281/281 280/280/280
f 285/285/285 281/281/281 356/356/356
f 358/358/358 357/357/357 353/353/353
f 358/358/358 353/353/353 359/359/359
f 360/360/360 359/359/359 353/353/353
f 360/360/360 361/361/361 359/359/359
f 362/362/362 359/359/359 361/361/361
f 360/360/360 363/363/363 361/361/361
f 364/364/364 361/361/361 363/363/363
f 365/365/365 361/361/361 364/364/364
f 366/366/366 361/361/361 365/365/365
f 363/363/363 360/360/360 367/367/367
f 353/353/353 367/367/367 360/360/360
f 370/370/370 369/369/369 368/368/368
f 371/371/371 368/368/368 369/369/369
f 369/369/369 370/370/370 372/372/372
f 368/368/368 371/371/371 373/373/373
f 371/371/371 374/374/374 373/373/373
f 375/375/375 373/373/373 374/374/374
f 374/374/374 376/376/376 375/375/375
f 374/374/374 377/377/377 376/376/376
f 374/374/374 371/371/371 377/377/377
f 378/378/378 376/376/376 377/377/377
f 379/379/379 375/375/375 376/376/376
f 370/370/370 380/380/380 372/372/372
f 370/370/370 368/368/368 380/380/380
f 381/381/381 369/369/369 372/372/372
f 372/372/372 382/382/382 381/381/381
f 381/381/381 382/382/382 383/383/383
f 371/371/371 369/369/369 383/383/383
f 381/381/381 383/383/383 369/369/369
f 384/384/384 383/383/383 382/382/382
f 383/383/383 384/384/384 385/385/385
f 385/385/385 371/371/371 383/383/383
f 385/385/385 377/377/377 371/371/371
f 385/385/385 386/386/386 377/377/377
f 386/386/386 385/385/385 384/384/384
f 375/375/375 387/387/387 373/373/373
f 375/375/375 379/379/379 387/387/387
f 387/387/387 388/388/388 373/373/373
f 368/368/368 373/373/373 388/388/388
f 388/388/388 389/389/389 368/368/368
f 390/390/390 387/387/387 379/379/379
f 390/390/390 379/379/379 76/76/76
f 76/76/76 379/379/379 391/391/391
f 392/392/392 391/391/391 379/379/379
f 390/390/390 394/394/394 393/393/393
f 78/78/78 393/393/393 394/394/394
f 392/392/392 378/378/378 73/73/73
f 71/71/71 73/73/73 378/378/378
f 378/378/378 69/69/69 71/71/71
f 386/386/386 69/69/69 377/377/377
f 378/378/378 377/377/377 69/69/69
f 69/69/69 396/396/396 395/395/395
f 397/397/397 56/56/56 69/69/69
f 70/70/70 56/56/56 72/72/72
f 398/398/398 72/72/72 56/56/56
f 399/399/399 72/72/72 398/398/398
f 56/56/56 49/49/49 398/398/398
f 49/49/49 48/48/48 398/398/398
f 400/400/400 398/398/398 48/48/48
f 48/48/48 44/44/44 400/400/400
f 46/46/46 400/400/400 44/44/44
f 402/402/402 401/401/401 299/299/299
f 405/405/405 404/404/404 403/403/403
f 407/407/407 406/406/406 151/151/151
f 408/408/408 175/175/175 179/179/179
f 210/210/210 41/41/41 409/409/409
f 45/45/45 41/41/41 210/210/210
f 411/411/411 410/410/410 88/88/88
f 411/411/411 88/88/88 412/412/412
f 414/414/414 413/413/413 88/88/88
f 416/416/416 415/415/415 215/215/215
f 218/218/218 215/215/215 415/415/415
f 215/215/215 417/417/417 416/416/416
f 207/207/207 416/416/416 417/417/417
f 419/419/419 418/418/418 224/224/224
f 420/420/420 224/224/224 418/418/418
f 224/224/224 222/222/222 419/419/419
f 421/421/421 419/419/419 222/222/222
f 421/421/421 222/222/222 422/422/422
f 220/220/220 422/422/422 222/222/222
f 422/422/422 220/220/220 217/217/217
f 425/425/425 424/424/424 423/423/423
f 425/425/425 423/423/423 426/426/426
f 427/427/427 426/426/426 423/423/423
f 427/427/427 428/428/428 426/426/426
f 429/429/429 426/426/426 428/428/428
f 430/430/430 423/423/423 424/424/424
f 430/430/430 431/431/431 423/423/423
f 429/429/429 428/428/428 432/432/432
f 433/433/433 432/432/432 428/428/428
f 433/433/433 434/434/434 432/432/432
f 435/435/435 432/432/432 434/434/434
f 436/436/436 435/435/435 434/434/434
f 434/434/434 437/437/437 436/436/436
f 437/437/437 434/434/434 438/438/438
f 439/439/439 438/438/438 434/434/434
f 431/431/431 441/441/441 440/440/440
f 443/443/443 442/442/442 441/441/441
f 442/442/442 423/423/423 444/444/444
f 446/446/446 445/445/445 439/439/439
f 438/438/438 447/447/447 445/445/445
f 449/449/449 448/448/448 229/229/229
f 219/219/219 229/229/229 448/448/448
f 75/75/75 450/450/450 80/80/80
f 75/75/75 74/74/74 450/450/450
f 450/450/450 451/451/451 80/80/80
f 79/79/79 452/452/452 74/74/74
f 82/82/82 80/80/80 453/453/453
f 456/456/456 455/455/455 454/454/454
f 457/457/457 454/454/454 455/455/455
f 456/456/456 454/454/454 458/458/458
f 459/459/459 458/458/458 454/454/454
f 461/461/461 459/459/459 460/460/460
f 462/462/462 460/460/460 459/459/459
f 462/462/462 459/459/459 463/463/463
f 464/464/464 463/463/463 459/459/459
f 466/466/466 457/457/457 465/465/465
f 467/467/467 465/465/465 457/457/457
f 469/469/469 457/457/457 468/468/468
f 471/471/471 470/470/470 457/457/457
f 473/473/473 472/472/472 470/470/470
f 475/475/475 468/468/468 474/474/474
f 477/477/477 464/464/464 476/476/476
f 479/479/479 476/476/476 478/478/478
f 481/481/481 480/480/480 476/476/476
f 483/483/483 482/482/482 480/480/480
f 485/485/485 478/478/478 484/484/484
f 486/486/486 485/485/485 484/484/484
f 486/486/486 484/484/484 487/487/487
f 488/488/488 487/487/487 484/484/484
f 489/489/489 488/488/488 484/484/484
f 488/488/488 490/490/490 487/487/487
f 490/490/490 488/488/488 491/491/491
f 492/492/492 491/491/491 488/488/488
f 492/492/492 493/493/493 491/491/491
f 495/495/495 491/491/491 494/494/494
f 495/495/495 494/494/494 496/496/496
f 498/498/498 496/496/496 497/497/497
f 498/498/498 499/499/499 496/496/496
f 500/500/500 496/496/496 499/499/499
f 501/501/501 500/500/500 499/499/499
f 499/499/499 502/502/502 501/501/501
f 504/504/504 501/501/501 503/503/503
f 506/506/506 505/505/505 499/499/499
f 507/507/507 505/505/505 473/473/473
f 507/507/507 508/508/508 505/505/505
f 510/510/510 509/509/509 505/505/505
f 509/509/509 510/510/510 511/511/511
f 514/514/514 513/513/513 512/512/512
f 514/514/514 512/512/512 515/515/515
f 516/516/516 515/515/515 512/512/512
f 516/516/516 517/517/517 515/515/515
f 518/518/518 515/515/515 517/517/517
f 517/517/517 519/519/519 518/518/518
f 520/520/520 518/518/518 519/519/519
f 519/519/519 521/521/521 520/520/520
f 522/522/522 520/520/520 521/521/521
f 522/522/522 521/521/521 523/523/523
f 525/525/525 524/524/524 521/521/521
f 527/527/527 525/525/525 526/526/526
f 528/528/528 526/526/526 525/525/525
f 526/526/526 528/528/528 529/529/529
f 529/529/529 528/528/528 530/530/530
f 531/531/531 530/530/530 528/528/528
f 533/533/533 531/531/531 532/532/532
f 534/534/534 532/532/532 531/531/531
f 536/536/536 534/534/534 535/535/535
f 513/513/513 535/535/535 534/534/534
f 513/513/513 537/537/537 535/535/535
f 540/540/540 539/539/539 538/538/538
f 540/540/540 541/541/541 539/539/539
f 542/542/542 539/539/539 541/541/541
f 541/541/541 543/543/543 542/542/542
f 544/544/544 542/542/542 543/543/543
f 544/544/544 543/543/543 545/545/545
f 546/546/546 545/545/545 543/543/543
f 539/539/539 547/547/547 538/538/538
f 548/548/548 538/538/538 547/547/547
f 546/546/546 549/549/549 545/545/545
f 550/550/550 545/545/545 549/549/549
f 553/553/553 552/552/552 551/551/551
f 554/554/554 551/551/551 552/552/552
f 554/554/554 552/552/552 555/555/555
f 556/556/556 555/555/555 552/552/552
f 556/556/556 557/557/557 555/555/555
f 558/558/558 555/555/555 557/557/557
f 557/557/557 559/559/559 558/558/558
f 560/560/560 558/558/558 559/559/559
f 559/559/559 561/561/561 560/560/560
f 562/562/562 560/560/560 561/561/561
f 561/561/561 564/564/564 563/563/563
f 565/565/565 563/563/563 564/564/564
f 564/564/564 567/567/567 566/566/566
f 568/568/568 566/566/566 567/567/567
f 568/568/568 570/570/570 569/569/569
f 571/571/571 569/569/569 570/570/570
f 573/573/573 572/572/572 569/569/569
f 574/574/574 569/569/569 572/572/572
f 574/574/574 572/572/572 575/575/575
f 576/576/576 575/575/575 572/572/572
f 579/579/579 578/578/578 577/577/577
f 580/580/580 577/577/577 578/578/578
f 578/578/578 579/579/579 581/581/581
f 582/582/582 581/581/581 579/579/579
f 582/582/582 583/583/583 581/581/581
f 584/584/584 581/581/581 583/583/583
f 583/583/583 586/586/586 585/585/585
f 587/587/587 585/585/585 586/586/586
f 589/589/589 588/588/588 586/586/586
f 589/589/589 590/590/590 588/588/588
f 591/591/591 588/588/588 590/590/590
f 590/590/590 592/592/592 591/591/591
f 593/593/593 586/586/586 588/588/588
f 595/595/595 591/591/591 594/594/594
f 594/594/594 596/596/596 595/595/595
f 597/597/597 595/595/595 596/596/596
f 596/596/596 598/598/598 597/597/597
f 599/599/599 597/597/597 598/598/598
f 598/598/598 600/600/600 599/599/599
f 601/601/601 599/599/599 600/600/600
f 604/604/604 603/603/603 602/602/602
f 603/603/603 604/604/604 605/605/605
f 606/606/606 605/605/605 604/604/604
f 605/605/605 606/606/606 607/607/607
f 608/608/608 607/607/607 606/606/606
f 604/604/604 602/602/602 609/609/609
f 610/610/610 609/609/609 602/602/602
f 613/613/613 612/612/612 611/611/611
f 614/614/614 611/611/611 612/612/612
f 617/617/617 616/616/616 615/615/615
f 618/618/618 615/615/615 616/616/616
f 621/621/621 620/620/620 619/619/619
f 623/623/623 619/619/619 622/622/622
f 626/626/626 625/625/625 624/624/624
f 627/627/627 624/624/624 625/625/625
f 630/630/630 629/629/629 628/628/628
f 631/631/631 628/628/628 629/629/629
f 634/634/634 633/633/633 632/632/632
f 635/635/635 632/632/632 633/633/633
f 638/638/638 637/637/637 636/636/636
f 639/639/639 636/636/636 637/637/637
f 642/642/642 641/641/641 640/640/640
f 643/643/643 640/640/640 641/641/641
f 646/646/646 645/645/645 644/644/644
f 649/649/649 648/648/648 647/647/647
