g green_mag_pve_f_4_HELM
v -8.07836041E-05 0.0696160868 1.72456145
v -8.07836041E-05 0.0812224969 1.70342481
v 0.00587045075 0.0785765722 1.71034944
v 0.0221483894 0.06579303 1.72213328
v -8.07836041E-05 0.0392871983 1.74480224
v 0.0301607512 0.0393743925 1.7343576
v 0.0488786697 0.035980992 1.70493221
v 0.026602339 0.0728064179 1.69958854
v 0.0428703874 -0.0176482387 1.70787513
v 0.0292177312 -0.00999975577 1.73608911
v 0.0191102885 -0.0383709632 1.70806968
v -8.32565856E-05 -0.0319442302 1.73835564
v 0.0266135503 0.0705205277 1.69220245
v 0.0433207974 0.032971926 1.67896414
v 0.0280158781 -0.0312492177 1.67215538
v 0.0510687158 0.0373100378 1.64185679
v 0.0383828133 0.0730793551 1.64679098
v 0.0266148709 0.0664628521 1.67849481
v 0.0482413098 -0.0198139213 1.62868619
v -8.07836041E-05 -0.00854908209 1.74627471
v 0.0709320977 0.0426090136 1.61069381
v 0.0540082455 0.0826638862 1.61006498
v 0.0215344392 0.0866511166 1.64459097
v 0.015000578 0.073044464 1.67826688
v 0.0266135503 0.0705205277 1.69220245
v 0.0109014194 0.0773664489 1.69000793
v 0.020124888 0.102224521 1.61818004
v 0.100999564 0.0507095195 1.59680808
v 0.0620809272 -0.0168132223 1.59264886
v 0.0957806483 -0.0086922273 1.57216418
v 0.0333525017 -0.0332384594 1.58887815
v 0.050482817 -0.0248445068 1.56462801
v 0.0269528385 -0.0628554299 1.58802152
v 0.0244957171 -0.0669327974 1.62869978
v 0.0243928432 -0.0341196693 1.62586844
v 0.0316078402 -0.0618744828 1.54916942
v -2.94257879E-05 0.0985348895 1.61664927
v -8.07836041E-05 0.0866510347 1.64459097
v -8.07836041E-05 0.0758608356 1.69338191
v -8.07836041E-05 0.0730443522 1.67826712
v 0.0146266688 0.113900661 1.65397561
v -8.07836041E-05 0.132695585 1.60561597
v 0.0219400059 0.133986041 1.60689175
v -8.07836041E-05 0.113447413 1.65212119
v 0.0278045218 0.105873719 1.65329313
v 0.0595268607 0.10808792 1.61756623
v 0.021815367 0.123808093 1.60552514
v 0.0466846712 0.0946558341 1.64659142
v 0.044482097 0.0900136158 1.64533031
v 0.0565256886 0.104040794 1.61471176
v 0.021815367 0.123808093 1.60552514
v 0.0250611976 0.0965843722 1.64959073
v 0.00587045075 0.0785765722 1.71034944
v 0.026602339 0.0728064179 1.69958854
v 0.0423197448 0.0926856026 1.65931678
v 0.0250611976 0.0965843722 1.64959073
v 0.0402747802 0.0868764892 1.65740383
v -8.07836041E-05 0.120636404 1.60412133
v 0.0266135503 0.0705205277 1.69220245
v 0.026602339 0.0728064179 1.69958854
v 0.0402747802 0.0868764892 1.65740383
v -8.07836041E-05 0.0812224969 1.70342481
v 0.0565256886 0.104040794 1.61471176
v 0.0466846712 0.0946558341 1.64659142
v 0.0595268607 0.10808792 1.61756623
v 0.0565256886 0.104040794 1.61471176
v 0.0250611976 0.0965843722 1.64959073
v 0.044482097 0.0900136158 1.64533031
v 0.021815367 0.123808093 1.60552514
v -8.07836041E-05 0.120636404 1.60412133
v -8.07836041E-05 0.0935732052 1.65633905
v 0.0109014194 0.0773664489 1.69000793
v 0.0266135503 0.0705205277 1.69220245
v 0.0402747802 0.0868764892 1.65740383
v -8.07836041E-05 0.0758608356 1.69338191
v -8.07836041E-05 0.0696160868 1.72456145
v -0.00603201846 0.0785763711 1.71034944
v -8.07836041E-05 0.0812224969 1.70342481
v -0.0223099608 0.0657928288 1.7221334
v -8.07836041E-05 0.0392871983 1.74480224
v -0.0303223152 0.0393741876 1.7343576
v -0.0490402319 0.0359807871 1.70493221
v -0.0267639067 0.0728062391 1.69958878
v -0.043031957 -0.0176484436 1.70787513
v -0.0293792989 -0.00999996159 1.73608911
v -0.0192718618 -0.0383711606 1.70806968
v -8.32565856E-05 -0.0319442302 1.73835564
v -0.026775118 0.0705203414 1.69220269
v -0.0434823595 0.0329717211 1.67896414
v -0.0281823911 -0.0312493108 1.67215538
v -0.0512302779 0.0373098515 1.64185679
v -0.0385443792 0.0730791613 1.64679122
v -0.0267764349 0.0664626509 1.67849493
v -0.0484078191 -0.0198140163 1.62868619
v -8.07836041E-05 -0.00854908209 1.74627471
v -0.0710936636 0.0426088385 1.61069381
v -0.0540908426 0.0826638192 1.61006498
v -0.0216960087 0.0866509452 1.64459097
v -0.0151621504 0.0730442628 1.67826712
v -0.026775118 0.0705203414 1.69220269
v -0.0110629862 0.0773662701 1.69000793
v -0.0202074852 0.102224521 1.61818004
v -0.101082169 0.0507094264 1.59680808
v -0.0622424819 -0.0168134067 1.59264886
v -0.0958632529 -0.00869231485 1.57216418
v -0.0335140713 -0.0332386494 1.58887815
v -0.050565403 -0.0248445943 1.56462801
v -0.0271193516 -0.0628555343 1.58802152
v -0.0246622264 -0.0669328868 1.62869978
v -0.0245593544 -0.0341197625 1.62586844
v -0.028518131 -0.0618745461 1.54916942
v -2.94257879E-05 0.0985348895 1.61664927
v -8.07836041E-05 0.0866510347 1.64459097
v -8.07836041E-05 0.0758608356 1.69338191
v -8.07836041E-05 0.0730443522 1.67826712
v -0.0147882402 0.113900468 1.65397561
v -8.07836041E-05 0.132695585 1.60561597
v -8.07836041E-05 0.113447413 1.65212119
v -0.0221015736 0.133985892 1.60689175
v -0.0279660914 0.105873525 1.65329337
v -0.0596884191 0.108087748 1.61756623
v -0.0219769385 0.123807877 1.60552514
v -0.0468462259 0.0946556851 1.64659178
v -0.0446436591 0.0900134221 1.64533031
v -0.0566872545 0.104040623 1.61471188
v -0.0219769385 0.123807877 1.60552514
v -0.0252227653 0.0965841562 1.64959085
v -0.00603201846 0.0785763711 1.71034944
v -0.0267639067 0.0728062391 1.69958878
v -0.0424813181 0.0926854014 1.65931702
v -0.0252227653 0.0965841562 1.64959085
v -0.0404363535 0.0868762732 1.65740395
v -8.07836041E-05 0.120636404 1.60412133
v -0.026775118 0.0705203414 1.69220269
v -0.0404363535 0.0868762732 1.65740395
v -0.0267639067 0.0728062391 1.69958878
v -8.07836041E-05 0.0812224969 1.70342481
v -0.0468462259 0.0946556851 1.64659178
v -0.0566872545 0.104040623 1.61471188
v -0.0596884191 0.108087748 1.61756623
v -0.0566872545 0.104040623 1.61471188
v -0.0252227653 0.0965841562 1.64959085
v -0.0219769385 0.123807877 1.60552514
v -0.0446436591 0.0900134221 1.64533031
v -8.07836041E-05 0.120636404 1.60412133
v -8.07836041E-05 0.0935732052 1.65633905
v -0.0110629862 0.0773662701 1.69000793
v -0.026775118 0.0705203414 1.69220269
v -0.0404363535 0.0868762732 1.65740395
v -8.07836041E-05 0.0758608356 1.69338191
v -7.21550532E-05 -0.0904810503 1.70414495
v 0.0198162887 -0.0844626427 1.69794548
v 0.0147569645 -0.0904570147 1.69208097
v 0.0130094159 -0.0840265229 1.70574212
v -7.21550532E-05 -0.0166680403 1.80700874
v 0.0227007382 -0.0490340851 1.7088083
v -7.21550532E-05 -0.0166680403 1.80700874
v 0.0454578102 -0.0641367659 1.69294858
v 0.0501161963 -0.0639287755 1.65014994
v 0.0143903075 -0.0971158668 1.64684749
v 0.0733427927 -0.0209988784 1.63472509
v 0.0582749434 -0.0223488994 1.67481804
v 0.0343724005 -0.0750908852 1.63263154
v 0.0356012397 -0.065263696 1.62850738
v 0.0482413098 -0.0198139213 1.62868619
v 0.0762747228 0.0141399996 1.77918291
v 0.0296533555 -0.0473191589 1.70634198
v 0.0331102088 -0.0762798041 1.59030819
v 0.0349628888 -0.0657026023 1.58786094
v 0.025239706 -0.0385507792 1.70447028
v 0.0174396932 -0.0383711532 1.70806968
v 0.0138264745 -0.0965459645 1.59698117
v 0.0149378544 -0.0941754356 1.53576875
v 0.033597745 -0.076906018 1.54293334
v 0.0360212363 -0.0660649464 1.54743099
v 0.0243928432 -0.0341196693 1.62586844
v -0.0118346261 -0.0941754356 1.53576875
v -0.0139523288 -0.0965459645 1.59698117
v -0.0332545228 -0.0762798041 1.59030819
v -0.0305129755 -0.076906018 1.54293334
v -0.0345167145 -0.0750908852 1.63263154
v -0.0357726961 -0.065263696 1.62850738
v -0.0734870955 -0.0209988784 1.63472509
v -0.0502604917 -0.0639287755 1.65014994
v -0.0456021205 -0.0641367659 1.69294858
v -0.0148828179 -0.0904570147 1.69208097
v -0.0145161618 -0.0971158668 1.64684749
v -0.05841925 -0.0223488994 1.67481804
v -0.0484078191 -0.0198140163 1.62868619
v -0.0764190257 0.0141399996 1.77918291
v -0.0297976676 -0.0473191589 1.70634198
v -0.0228450559 -0.0490340851 1.7088083
v -0.0199606046 -0.0844626427 1.69794548
v -0.0131537318 -0.0840265229 1.70574212
v -7.21550532E-05 -0.0166680403 1.80700874
v -7.21550532E-05 -0.0166680403 1.80700874
v -0.0209325645 -0.0383711532 1.70806968
v -7.21550532E-05 -0.0166680403 1.80700874
v -0.0287325811 -0.0385507792 1.70447028
v -0.0764190257 0.0141399996 1.77918291
v -0.0287325811 -0.0385507792 1.70447028
v 0.0762747228 0.0141399996 1.77918291
v 0.025239706 -0.0385507792 1.70447028
v 0.0582749434 -0.0223488994 1.67481804
v 0.0280158781 -0.0312492177 1.67215538
v 0.0482413098 -0.0198139213 1.62868619
v 0.0733427927 -0.0209988784 1.63472509
v 0.0174396932 -0.0383711532 1.70806968
v -7.21550532E-05 -0.0166680403 1.80700874
v 0.0174396932 -0.0383711532 1.70806968
v -8.32565856E-05 -0.0319442302 1.73835564
v 0.0174396932 -0.0383711532 1.70806968
v -7.21550532E-05 -0.0166680403 1.80700874
v -0.0209325645 -0.0383711532 1.70806968
v -0.0287325811 -0.0385507792 1.70447028
v -0.0281823911 -0.0312493108 1.67215538
v -0.05841925 -0.0223488994 1.67481804
v -0.0764190257 0.0141399996 1.77918291
v -0.0484078191 -0.0198140163 1.62868619
v -0.0734870955 -0.0209988784 1.63472509
v 0.0244957171 -0.0669327974 1.62869978
v 0.0349628888 -0.0657026023 1.58786094
v 0.0356012397 -0.065263696 1.62850738
v 0.0244957171 -0.0669327974 1.62869978
v 0.0269528385 -0.0628554299 1.58802152
v 0.0360212363 -0.0660649464 1.54743099
v 0.0243928432 -0.0341196693 1.62586844
v 0.0244957171 -0.0669327974 1.62869978
v 0.0269528385 -0.0628554299 1.58802152
v 0.0316078402 -0.0618744828 1.54916942
v -0.0351343453 -0.0657026023 1.58786094
v -0.0329364687 -0.0660649464 1.54743099
v -0.0246622264 -0.0669328868 1.62869978
v -0.0271193516 -0.0628555343 1.58802152
v -0.0245593544 -0.0341197625 1.62586844
v -0.0329364687 -0.0660649464 1.54743099
v -0.0246622264 -0.0669328868 1.62869978
v -0.0357726961 -0.065263696 1.62850738
v -0.0271193516 -0.0628555343 1.58802152
v -0.028518131 -0.0618745461 1.54916942
v 0.0149378544 -0.0941754356 1.53576875
v -0.0305129755 -0.076906018 1.54293334
v -0.0118346261 -0.0941754356 1.53576875
v 0.033597745 -0.076906018 1.54293334
v -0.0329364687 -0.0660649464 1.54743099
v 0.0360212363 -0.0660649464 1.54743099
v -0.028518131 -0.0618745461 1.54916942
v 0.0316078402 -0.0618744828 1.54916942
v 0.050482817 -0.0248445068 1.56462801
v -0.050565403 -0.0248445943 1.56462801
vt 0.730166554 0.329662174
vt 0.793616176 0.308934033
vt 0.762846708 0.307803214
vt 0.690667093 0.304244429
vt 0.611146271 0.354313761
vt 0.600278378 0.311469585
vt 0.593213916 0.265377015
vt 0.728978336 0.274001569
vt 0.428064764 0.271715254
vt 0.446254492 0.312492698
vt 0.333241343 0.281183064
vt 0.347198516 0.338579059
vt 0.718982041 0.258687675
vt 0.592712283 0.23018989
vt 0.368372411 0.224446729
vt 0.605649054 0.176105022
vt 0.730265498 0.188164562
vt 0.716582835 0.237303838
vt 0.419296622 0.161747321
vt 0.437518656 0.354080945
vt 0.617239594 0.127188846
vt 0.759649754 0.130988359
vt 0.802091837 0.194271863
vt 0.762038887 0.242946103
vt 0.718982041 0.258687675
vt 0.766143739 0.261333168
vt 0.886604309 0.141257539
vt 0.650415421 0.0663633049
vt 0.412134916 0.108504988
vt 0.416298389 0.033008948
vt 0.307546169 0.12770687
vt 0.215832502 0.0273208674
vt 0.215875357 0.143124089
vt 0.247917086 0.197595984
vt 0.343057722 0.178041294
vt 0.116385117 0.0486798696
vt 0.945545495 0.157380477
vt 0.8629812 0.209806919
vt 0.793560624 0.270903349
vt 0.808075666 0.251922786
vt 0.925327063 0.411725253
vt 0.974001825 0.332545727
vt 0.904922724 0.335662007
vt 0.975583613 0.409466028
vt 0.875812113 0.414881796
vt 0.769430995 0.363308311
vt 0.891006947 0.322570413
vt 0.802535474 0.409023255
vt 0.794134974 0.414247364
vt 0.758816898 0.360782206
vt 0.891006947 0.322570413
vt 0.865008354 0.415561855
vt 0.955684364 0.503653169
vt 0.876607299 0.494418502
vt 0.825668514 0.431164622
vt 0.865008354 0.415561855
vt 0.809770525 0.430583686
vt 0.973715603 0.313992053
vt 0.852279305 0.489188284
vt 0.876607299 0.494418502
vt 0.809770525 0.430583686
vt 0.976042092 0.493011296
vt 0.758816898 0.360782206
vt 0.802535474 0.409023255
vt 0.769430995 0.363308311
vt 0.0476732552 0.303295106
vt 0.156438872 0.357562453
vt 0.08930628 0.350933909
vt 0.167658955 0.289002091
vt 0.243330151 0.28681767
vt 0.243330151 0.368062228
vt 0.205384582 0.420446992
vt 0.151072383 0.423861414
vt 0.103849441 0.36971885
vt 0.243330151 0.425696403
vt 0.730166554 0.329662174
vt 0.762846708 0.307803214
vt 0.793616176 0.308934033
vt 0.690667093 0.304244429
vt 0.611146271 0.354313761
vt 0.600278378 0.311469585
vt 0.593213916 0.265377015
vt 0.728978336 0.274001569
vt 0.428064764 0.271715254
vt 0.446254492 0.312492698
vt 0.333241343 0.281183064
vt 0.347198516 0.338579059
vt 0.718982041 0.258687675
vt 0.592712283 0.23018989
vt 0.368372411 0.224446729
vt 0.605649054 0.176105022
vt 0.730265498 0.188164562
vt 0.716582835 0.237303838
vt 0.419296622 0.161747321
vt 0.437518656 0.354080945
vt 0.617239594 0.127188846
vt 0.759649754 0.130988359
vt 0.802091837 0.194271863
vt 0.762038887 0.242946103
vt 0.718982041 0.258687675
vt 0.766143739 0.261333168
vt 0.886604309 0.141257539
vt 0.650415421 0.0663633049
vt 0.412134916 0.108504988
vt 0.416298389 0.033008948
vt 0.307546169 0.12770687
vt 0.215832502 0.0273208674
vt 0.215875357 0.143124089
vt 0.247917086 0.197595984
vt 0.343057722 0.178041294
vt 0.116385117 0.0486798696
vt 0.945545495 0.157380477
vt 0.8629812 0.209806919
vt 0.793560624 0.270903349
vt 0.808075666 0.251922786
vt 0.925327063 0.411725253
vt 0.974001825 0.332545727
vt 0.975583613 0.409466028
vt 0.904922724 0.335662007
vt 0.875812113 0.414881796
vt 0.769430995 0.363308311
vt 0.891006947 0.322570413
vt 0.802535474 0.409023255
vt 0.794134974 0.414247364
vt 0.758816898 0.360782206
vt 0.891006947 0.322570413
vt 0.865008354 0.415561855
vt 0.955684364 0.503653169
vt 0.876607299 0.494418502
vt 0.825668514 0.431164622
vt 0.865008354 0.415561855
vt 0.809770525 0.430583686
vt 0.973715603 0.313992053
vt 0.852279305 0.489188284
vt 0.809770525 0.430583686
vt 0.876607299 0.494418502
vt 0.976042092 0.493011296
vt 0.802535474 0.409023255
vt 0.758816898 0.360782206
vt 0.769430995 0.363308311
vt 0.0476732552 0.303295106
vt 0.156438872 0.357562453
vt 0.167658955 0.289002091
vt 0.08930628 0.350933909
vt 0.243330151 0.28681767
vt 0.243330151 0.368062228
vt 0.205384582 0.420446992
vt 0.151072383 0.423861414
vt 0.103849441 0.36971885
vt 0.243330151 0.425696403
vt 0.499054611 0.652511597
vt 0.430260569 0.647154272
vt 0.451089025 0.637227774
vt 0.454738796 0.658067882
vt 0.498308122 0.829847038
vt 0.364544123 0.690684199
vt 0.498308122 0.829847038
vt 0.319839418 0.648277879
vt 0.29472366 0.587807119
vt 0.451287448 0.573291719
vt 0.132323235 0.573632777
vt 0.16906248 0.630172849
vt 0.350329489 0.555888891
vt 0.319685906 0.549513936
vt 0.15898715 0.541550636
vt 0.0678737909 0.78139472
vt 0.33724761 0.685397863
vt 0.360292524 0.494865388
vt 0.325675428 0.490734488
vt 0.336440474 0.697217524
vt 0.345944464 0.703036964
vt 0.452896655 0.503931046
vt 0.454176545 0.388113201
vt 0.365511179 0.388143986
vt 0.325643659 0.386543602
vt 0.23074016 0.519914687
vt 0.544732153 0.388134241
vt 0.545992732 0.503957868
vt 0.638638616 0.494924068
vt 0.633418858 0.388192505
vt 0.648672104 0.555983007
vt 0.679400623 0.549612463
vt 0.86647284 0.574292123
vt 0.70395571 0.588128865
vt 0.678283751 0.648563802
vt 0.547112823 0.637295842
vt 0.547523856 0.573318362
vt 0.829214036 0.630735815
vt 0.840252101 0.542149186
vt 0.928965449 0.782129228
vt 0.660548747 0.685649693
vt 0.63321954 0.690890968
vt 0.567886174 0.64725852
vt 0.543316066 0.65813458
vt 0.498308122 0.829847038
vt 0.498308122 0.829847038
vt 0.651711166 0.703270674
vt 0.498308122 0.829847038
vt 0.66125077 0.697467566
vt 0.928965449 0.782129228
vt 0.66125077 0.697467566
vt 0.729988337 0.969010592
vt 0.593313694 0.84531188
vt 0.747373998 0.825566947
vt 0.647448242 0.807614744
vt 0.777838767 0.765902936
vt 0.850178063 0.785450399
vt 0.564317346 0.845270514
vt 0.498308122 0.829847038
vt 0.345944464 0.703036964
vt 0.497992873 0.885349393
vt 0.564317346 0.845270514
vt 0.501969337 0.975495636
vt 0.428168744 0.846057236
vt 0.399167091 0.846072197
vt 0.345337212 0.808317602
vt 0.245268643 0.826165318
vt 0.261474282 0.969625473
vt 0.215278447 0.766470909
vt 0.142784119 0.78594321
vt 0.302357107 0.543839455
vt 0.325675428 0.490734488
vt 0.319685906 0.549513936
vt 0.302357107 0.543839455
vt 0.2987279 0.49057284
vt 0.325643659 0.386543602
vt 0.23074016 0.519914687
vt 0.302357107 0.543839455
vt 0.2987279 0.49057284
vt 0.305577755 0.385065913
vt 0.673246801 0.490802228
vt 0.673279822 0.386603564
vt 0.696867585 0.543881059
vt 0.70018971 0.490630329
vt 0.768908799 0.520274341
vt 0.673279822 0.386603564
vt 0.696867585 0.543881059
vt 0.679400623 0.549612463
vt 0.70018971 0.490630329
vt 0.693343341 0.385127395
vt 0.154430404 0.987526834
vt 0.0517522618 0.954338014
vt 0.0939486101 0.987526834
vt 0.196584955 0.954338074
vt 0.0462773368 0.933392286
vt 0.20205988 0.933392406
vt 0.0562588684 0.925241828
vt 0.192089573 0.925241828
vt 0.23473011 0.839759707
vt 0.00645142375 0.839759827
vn -9.70575275E-06 0.761252701 0.648455322
vn -1.34574102E-05 0.861841798 0.507177114
vn 0.205060393 0.833270073 0.513430893
vn 0.474115223 0.646853745 0.59732306
vn -1.24562234E-06 0.374141365 0.92737174
vn 0.632125139 0.165211737 0.757048726
vn 0.967229784 0.245856971 0.0634101257
vn 0.75671345 0.562700987 0.332794696
vn 0.894424498 -0.367764503 0.254468203
vn 0.591764152 -0.361793011 0.72036165
vn 0.612053394 -0.718177855 0.331075996
vn -2.32817256E-05 -0.576974928 0.816761911
vn 0.937305033 0.133758247 -0.321819782
vn 0.976742327 0.20990783 0.0437383093
vn 0.934936464 0.327181071 0.137281805
vn 0.923262417 -0.00665919343 0.384112269
vn 0.744663417 0.521449864 0.416613013
vn 0.691105545 0.702563345 0.169640571
vn 0.989987433 -0.106261857 -0.092915602
vn 1.05766287E-06 -0.0891882554 0.996014833
vn 0.764104903 0.0039095548 0.645080209
vn 0.620815039 0.456150681 0.637585521
vn 0.201866314 0.883432269 0.42284447
vn 0.201113686 0.978556275 -0.0445087552
vn 0.937305033 0.133758247 -0.321819782
vn -0.0647011176 -0.40124923 -0.913680971
vn 0.311388195 0.824352443 0.472737253
vn 0.479052246 -0.175691962 0.860024035
vn 0.62436384 -0.576032758 0.527594507
vn 0.486195207 -0.783768237 0.386421412
vn 0.743083894 -0.634454787 0.212822571
vn 0.770003736 -0.605737686 0.200439662
vn 0.905638695 0.37730512 0.193544418
vn 0.770623982 0.596894681 -0.223283604
vn 0.644800365 -0.383165121 -0.661375046
vn 0.983230174 0.136228874 0.121244088
vn -5.99175837E-05 0.890921652 0.454157084
vn -3.10614701E-06 0.923741341 0.383016884
vn -0 0.683773935 -0.72969383
vn -5.1492384E-06 0.980675519 0.195641279
vn 0.0883054584 0.876020551 0.474120378
vn -4.40831263E-06 0.864660203 -0.502357304
vn 0.400799245 0.88730365 -0.228149444
vn -7.52674396E-06 0.888571501 0.458738238
vn 0.545013964 0.582143366 0.603381157
vn 0.867135465 0.422922462 -0.263082922
vn 0.135152429 -0.195857361 -0.971274197
vn 0.789287865 -0.257197917 0.557560742
vn 0.281450599 -0.761443913 0.583942354
vn 0.426202297 -0.741803408 -0.517763793
vn 0.135152429 -0.195857361 -0.971274197
vn -0.00710637774 -0.820006073 -0.572310746
vn 0.205060393 0.833270073 0.513430893
vn 0.75671345 0.562700987 0.332794696
vn 0.965801716 0.0597351007 -0.25230661
vn -0.00710637774 -0.820006073 -0.572310746
vn 0.579036772 -0.55781132 -0.594611704
vn 2.94223787E-06 -0.628770709 -0.777590752
vn 0.937305033 0.133758247 -0.321819782
vn 0.75671345 0.562700987 0.332794696
vn 0.579036772 -0.55781132 -0.594611704
vn -1.34574102E-05 0.861841798 0.507177114
vn 0.426202297 -0.741803408 -0.517763793
vn 0.789287865 -0.257197917 0.557560742
vn 0.867135465 0.422922462 -0.263082922
vn 0.426202297 -0.741803408 -0.517763793
vn -0.00710637774 -0.820006073 -0.572310746
vn 0.281450599 -0.761443913 0.583942354
vn 0.135152429 -0.195857361 -0.971274197
vn 2.94223787E-06 -0.628770709 -0.777590752
vn 5.19976584E-06 -0.89745307 -0.441109896
vn -0.0647011176 -0.40124923 -0.913680971
vn 0.937305033 0.133758247 -0.321819782
vn 0.579036772 -0.55781132 -0.594611704
vn -0 0.683773935 -0.72969383
vn -9.70575275E-06 0.761252701 0.648455322
vn -0.205068275 0.833269119 0.513429105
vn -1.34574102E-05 0.861841798 0.507177114
vn -0.474117309 0.646853387 0.597321987
vn -1.24562234E-06 0.374141365 0.92737174
vn -0.632124007 0.165211439 0.757049739
vn -0.967226326 0.245866984 0.0634248182
vn -0.756712675 0.56270057 0.33279717
vn -0.894416511 -0.367757469 0.254506648
vn -0.591782212 -0.361775786 0.72035557
vn -0.612068534 -0.71816057 0.331085533
vn -2.32817256E-05 -0.576974928 0.816761911
vn -0.937304795 0.133758843 -0.321820259
vn -0.97673744 0.209930435 0.0437393822
vn -0.934429586 0.326904505 0.141332418
vn -0.923259258 -0.0066172923 0.384120435
vn -0.744729102 0.521807849 0.416046917
vn -0.691106617 0.702562153 0.169641197
vn -0.98998487 -0.106232181 -0.092976734
vn 1.05766287E-06 -0.0891882554 0.996014833
vn -0.76443547 0.00439513754 0.644685328
vn -0.62102735 0.457248151 0.636591792
vn -0.201984644 0.883471906 0.422705203
vn -0.201121524 0.978554428 -0.0445116796
vn -0.937304795 0.133758843 -0.321820259
vn 0.0647049472 -0.401247978 -0.913681269
vn -0.311685622 0.824626088 0.472063482
vn -0.479946852 -0.175319642 0.85960108
vn -0.624841154 -0.576037943 0.527023613
vn -0.486765802 -0.783892691 0.385449529
vn -0.743312836 -0.634429872 0.212096184
vn -0.765919685 -0.619603276 0.171636075
vn -0.91200608 0.377959669 0.159346968
vn -0.770569742 0.596952677 -0.223315552
vn -0.644771993 -0.383142948 -0.661415517
vn -0.991099179 0.127316162 0.03889722
vn -5.99175837E-05 0.890921652 0.454157084
vn -3.10614701E-06 0.923741341 0.383016884
vn -0 0.683773935 -0.72969383
vn -5.1492384E-06 0.980675519 0.195641279
vn -0.0883139372 0.876019537 0.474120617
vn -4.40831263E-06 0.864660203 -0.502357304
vn -7.52674396E-06 0.888571501 0.458738238
vn -0.40080148 0.887302577 -0.228150025
vn -0.545010269 0.582143009 0.603384793
vn -0.86713475 0.422917992 -0.263092637
vn -0.135147393 -0.195861787 -0.971274137
vn -0.789278388 -0.257218927 0.557564378
vn -0.281425059 -0.761460483 0.583933055
vn -0.426191151 -0.741808176 -0.517766178
vn -0.135147393 -0.195861787 -0.971274137
vn 0.00710413186 -0.820007682 -0.572308421
vn -0.205068275 0.833269119 0.513429105
vn -0.756712675 0.56270057 0.33279717
vn -0.965804517 0.0597359426 -0.252296031
vn 0.00710413186 -0.820007682 -0.572308421
vn -0.579052269 -0.557803929 -0.59460336
vn 2.94223787E-06 -0.628770709 -0.777590752
vn -0.937304795 0.133758843 -0.321820259
vn -0.579052269 -0.557803929 -0.59460336
vn -0.756712675 0.56270057 0.33279717
vn -1.34574102E-05 0.861841798 0.507177114
vn -0.789278388 -0.257218927 0.557564378
vn -0.426191151 -0.741808176 -0.517766178
vn -0.86713475 0.422917992 -0.263092637
vn -0.426191151 -0.741808176 -0.517766178
vn 0.00710413186 -0.820007682 -0.572308421
vn -0.135147393 -0.195861787 -0.971274137
vn -0.281425059 -0.761460483 0.583933055
vn 2.94223787E-06 -0.628770709 -0.777590752
vn 5.19976584E-06 -0.89745307 -0.441109896
vn 0.0647049472 -0.401247978 -0.913681269
vn -0.937304795 0.133758843 -0.321820259
vn -0.579052269 -0.557803929 -0.59460336
vn -0 0.683773935 -0.72969383
vn 1.22037436E-05 -0.901224375 0.433352798
vn 0.541984737 -0.632393897 0.553471267
vn 0.357333004 -0.917352736 0.175434366
vn 0.630217254 -0.58594054 0.509411275
vn -0.0495173596 0.304337204 0.951276481
vn 0.696478128 -0.0983955786 0.710799932
vn -0.0495173596 0.304337204 0.951276481
vn 0.69509685 -0.553270102 0.459056288
vn 0.752162814 -0.657180667 -0.0486282818
vn 0.377687067 -0.925880313 0.00990806986
vn 0.899230063 -0.148086876 -0.411649942
vn 0.228610843 0.96408236 0.135211766
vn 0.796538472 -0.559896827 -0.228127018
vn 0.593028843 0.0257218424 -0.80477035
vn 0.989987433 -0.106261857 -0.092915602
vn -0.384708583 -0.336999029 0.859319985
vn 0.044814121 -0.165563792 0.985180378
vn 0.890373468 -0.455207795 -0.00457848329
vn 0.833505929 0.55159241 0.0318372957
vn -0.301061273 0.817250252 0.49138993
vn 0.433435708 0.76508975 0.476204991
vn 0.39599362 -0.917991459 -0.0219225138
vn 0.498905391 -0.866562903 -0.012733317
vn 0.918109536 -0.395835429 0.0197287276
vn 0.817212999 0.573912144 0.052800227
vn 0.644800365 -0.383165121 -0.661375046
vn -0.377930999 -0.924835622 -0.0429789536
vn -0.394238383 -0.91869837 -0.0238622352
vn -0.88839817 -0.458023071 -0.0310416855
vn -0.920724511 -0.387340754 -0.0472592227
vn -0.796250403 -0.560490787 -0.227673635
vn -0.593344033 0.0244025644 -0.80457896
vn -0.899435163 -0.148337707 -0.411111027
vn -0.752053022 -0.657310665 -0.0485677794
vn -0.695123076 -0.553405046 0.458853543
vn -0.415759236 -0.891912282 0.17786701
vn -0.377947628 -0.925029218 0.0384261794
vn -0.219539538 0.964104295 0.149349183
vn -0.98998487 -0.106232181 -0.092976734
vn 0.53803432 -0.182375669 0.82295692
vn -0.0246816855 -0.165668294 0.985872626
vn -0.690071464 -0.159053311 0.706047773
vn -0.54205966 -0.63268131 0.553069413
vn -0.630216897 -0.585940659 0.509411573
vn -0.0495173596 0.304337204 0.951276481
vn -0.0495173596 0.304337204 0.951276481
vn -0.490771174 0.680686474 0.543883741
vn -0.0495173596 0.304337204 0.951276481
vn 0.335811287 0.817995608 0.467026621
vn 0.53803432 -0.182375669 0.82295692
vn 0.335811287 0.817995608 0.467026621
vn -0.384708583 -0.336999029 0.859319985
vn -0.301061273 0.817250252 0.49138993
vn 0.228610843 0.96408236 0.135211766
vn 0.934936464 0.327181071 0.137281805
vn 0.989987433 -0.106261857 -0.092915602
vn 0.899230063 -0.148086876 -0.411649942
vn 0.433435708 0.76508975 0.476204991
vn -0.0495173596 0.304337204 0.951276481
vn 0.433435708 0.76508975 0.476204991
vn -0.00138094241 0.976126075 -0.21720022
vn 0.433435708 0.76508975 0.476204991
vn -0.0495173596 0.304337204 0.951276481
vn -0.490771174 0.680686474 0.543883741
vn 0.335811287 0.817995608 0.467026621
vn -0.934429586 0.326904505 0.141332418
vn -0.219539538 0.964104295 0.149349183
vn 0.53803432 -0.182375669 0.82295692
vn -0.98998487 -0.106232181 -0.092976734
vn -0.899435163 -0.148337707 -0.411111027
vn 0.770623982 0.596894681 -0.223283604
vn 0.833505929 0.55159241 0.0318372957
vn 0.593028843 0.0257218424 -0.80477035
vn 0.770623982 0.596894681 -0.223283604
vn 0.905638695 0.37730512 0.193544418
vn 0.817212999 0.573912144 0.052800227
vn 0.644800365 -0.383165121 -0.661375046
vn 0.770623982 0.596894681 -0.223283604
vn 0.905638695 0.37730512 0.193544418
vn 0.983230174 0.136228874 0.121244088
vn -0.832578421 0.553822696 -0.00967443269
vn -0.80873698 0.588002861 -0.0140446778
vn -0.770569742 0.596952677 -0.223315552
vn -0.91200608 0.377959669 0.159346968
vn -0.644771993 -0.383142948 -0.661415517
vn -0.80873698 0.588002861 -0.0140446778
vn -0.770569742 0.596952677 -0.223315552
vn -0.593344033 0.0244025644 -0.80457896
vn -0.91200608 0.377959669 0.159346968
vn -0.991099179 0.127316162 0.03889722
vn -0 0.383203238 -0.923664033
vn -0 0.383203238 -0.923664033
vn -0 0.383203149 -0.923664033
vn -0 0.383203357 -0.923663974
vn -0 0.383204103 -0.923663735
vn -0 0.383204252 -0.923663676
vn -0 0.383191139 -0.92366904
vn -0 0.383188337 -0.923670292
vn 1.02449951E-06 0.385239094 -0.922816753
vn -3.01053296E-06 0.385238886 -0.922816813
g green_mag_pve_f_4_HELM_0
f 3/3/3 2/2/2 1/1/1
f 1/1/1 4/4/4 3/3/3
f 1/1/1 5/5/5 4/4/4
f 6/6/6 4/4/4 5/5/5
f 6/6/6 7/7/7 4/4/4
f 8/8/8 4/4/4 7/7/7
f 8/8/8 3/3/3 4/4/4
f 7/7/7 6/6/6 9/9/9
f 10/10/10 9/9/9 6/6/6
f 9/9/9 10/10/10 11/11/11
f 12/12/12 11/11/11 10/10/10
f 8/8/8 7/7/7 13/13/13
f 14/14/14 13/13/13 7/7/7
f 9/9/9 15/15/15 7/7/7
f 14/14/14 7/7/7 15/15/15
f 15/15/15 9/9/9 11/11/11
f 14/14/14 15/15/15 16/16/16
f 16/16/16 17/17/17 14/14/14
f 18/18/18 14/14/14 17/17/17
f 14/14/14 18/18/18 13/13/13
f 19/19/19 16/16/16 15/15/15
f 5/5/5 20/20/20 6/6/6
f 10/10/10 6/6/6 20/20/20
f 20/20/20 12/12/12 10/10/10
f 16/16/16 21/21/21 17/17/17
f 16/16/16 19/19/19 21/21/21
f 22/22/22 17/17/17 21/21/21
f 17/17/17 23/23/23 18/18/18
f 24/24/24 18/18/18 23/23/23
f 18/18/18 24/24/24 25/25/25
f 26/26/26 25/25/25 24/24/24
f 23/23/23 17/17/17 27/27/27
f 22/22/22 27/27/27 17/17/17
f 22/22/22 21/21/21 28/28/28
f 21/21/21 29/29/29 28/28/28
f 29/29/29 21/21/21 19/19/19
f 30/30/30 28/28/28 29/29/29
f 29/29/29 31/31/31 30/30/30
f 29/29/29 19/19/19 31/31/31
f 32/32/32 30/30/30 31/31/31
f 31/31/31 33/33/33 32/32/32
f 33/33/33 31/31/31 34/34/34
f 35/35/35 34/34/34 31/31/31
f 36/36/36 32/32/32 33/33/33
f 35/35/35 31/31/31 19/19/19
f 27/27/27 37/37/37 23/23/23
f 38/38/38 23/23/23 37/37/37
f 26/26/26 24/24/24 39/39/39
f 40/40/40 39/39/39 24/24/24
f 24/24/24 23/23/23 40/40/40
f 38/38/38 40/40/40 23/23/23
f 43/43/43 42/42/42 41/41/41
f 44/44/44 41/41/41 42/42/42
f 45/45/45 43/43/43 41/41/41
f 43/43/43 45/45/45 46/46/46
f 43/43/43 46/46/46 47/47/47
f 43/43/43 47/47/47 42/42/42
f 48/48/48 46/46/46 45/45/45
f 48/48/48 45/45/45 49/49/49
f 49/49/49 50/50/50 48/48/48
f 50/50/50 51/51/51 46/46/46
f 52/52/52 49/49/49 45/45/45
f 41/41/41 53/53/53 45/45/45
f 53/53/53 54/54/54 45/45/45
f 55/55/55 45/45/45 54/54/54
f 45/45/45 55/55/55 56/56/56
f 57/57/57 56/56/56 55/55/55
f 58/58/58 42/42/42 47/47/47
f 60/60/60 59/59/59 55/55/55
f 61/61/61 55/55/55 59/59/59
f 53/53/53 41/41/41 62/62/62
f 44/44/44 62/62/62 41/41/41
f 65/65/65 64/64/64 63/63/63
f 68/68/68 67/67/67 66/66/66
f 69/69/69 66/66/66 67/67/67
f 69/69/69 67/67/67 70/70/70
f 71/71/71 70/70/70 67/67/67
f 67/67/67 72/72/72 71/71/71
f 72/72/72 67/67/67 73/73/73
f 74/74/74 73/73/73 67/67/67
f 75/75/75 71/71/71 72/72/72
f 78/78/78 77/77/77 76/76/76
f 76/76/76 77/77/77 79/79/79
f 76/76/76 79/79/79 80/80/80
f 81/81/81 80/80/80 79/79/79
f 81/81/81 79/79/79 82/82/82
f 83/83/83 82/82/82 79/79/79
f 83/83/83 79/79/79 77/77/77
f 82/82/82 84/84/84 81/81/81
f 85/85/85 81/81/81 84/84/84
f 84/84/84 86/86/86 85/85/85
f 87/87/87 85/85/85 86/86/86
f 83/83/83 88/88/88 82/82/82
f 89/89/89 82/82/82 88/88/88
f 89/89/89 90/90/90 82/82/82
f 84/84/84 82/82/82 90/90/90
f 84/84/84 90/90/90 86/86/86
f 89/89/89 91/91/91 90/90/90
f 91/91/91 89/89/89 92/92/92
f 93/93/93 92/92/92 89/89/89
f 93/93/93 89/89/89 88/88/88
f 94/94/94 90/90/90 91/91/91
f 85/85/85 95/95/95 81/81/81
f 80/80/80 81/81/81 95/95/95
f 87/87/87 95/95/95 85/85/85
f 91/91/91 92/92/92 96/96/96
f 91/91/91 96/96/96 94/94/94
f 97/97/97 96/96/96 92/92/92
f 92/92/92 93/93/93 98/98/98
f 99/99/99 98/98/98 93/93/93
f 93/93/93 100/100/100 99/99/99
f 101/101/101 99/99/99 100/100/100
f 97/97/97 92/92/92 102/102/102
f 98/98/98 102/102/102 92/92/92
f 96/96/96 97/97/97 103/103/103
f 96/96/96 103/103/103 104/104/104
f 104/104/104 94/94/94 96/96/96
f 105/105/105 104/104/104 103/103/103
f 104/104/104 105/105/105 106/106/106
f 104/104/104 106/106/106 94/94/94
f 107/107/107 106/106/106 105/105/105
f 106/106/106 107/107/107 108/108/108
f 108/108/108 109/109/109 106/106/106
f 110/110/110 106/106/106 109/109/109
f 111/111/111 108/108/108 107/107/107
f 110/110/110 94/94/94 106/106/106
f 102/102/102 98/98/98 112/112/112
f 113/113/113 112/112/112 98/98/98
f 101/101/101 114/114/114 99/99/99
f 115/115/115 99/99/99 114/114/114
f 113/113/113 98/98/98 115/115/115
f 99/99/99 115/115/115 98/98/98
f 118/118/118 117/117/117 116/116/116
f 119/119/119 116/116/116 117/117/117
f 119/119/119 120/120/120 116/116/116
f 119/119/119 121/121/121 120/120/120
f 119/119/119 122/122/122 121/121/121
f 119/119/119 117/117/117 122/122/122
f 123/123/123 120/120/120 121/121/121
f 123/123/123 124/124/124 120/120/120
f 124/124/124 123/123/123 125/125/125
f 125/125/125 121/121/121 126/126/126
f 127/127/127 120/120/120 124/124/124
f 128/128/128 116/116/116 120/120/120
f 128/128/128 120/120/120 129/129/129
f 130/130/130 129/129/129 120/120/120
f 120/120/120 131/131/131 130/130/130
f 132/132/132 130/130/130 131/131/131
f 133/133/133 122/122/122 117/117/117
f 135/135/135 134/134/134 130/130/130
f 136/136/136 130/130/130 134/134/134
f 128/128/128 137/137/137 116/116/116
f 118/118/118 116/116/116 137/137/137
f 140/140/140 139/139/139 138/138/138
f 143/143/143 142/142/142 141/141/141
f 144/144/144 141/141/141 142/142/142
f 143/143/143 145/145/145 142/142/142
f 146/146/146 142/142/142 145/145/145
f 142/142/142 146/146/146 147/147/147
f 147/147/147 148/148/148 142/142/142
f 149/149/149 142/142/142 148/148/148
f 150/150/150 147/147/147 146/146/146
f 153/153/153 152/152/152 151/151/151
f 154/154/154 151/151/151 152/152/152
f 151/151/151 154/154/154 155/155/155
f 156/156/156 154/154/154 152/152/152
f 156/156/156 157/157/157 154/154/154
f 152/152/152 158/158/158 156/156/156
f 158/158/158 152/152/152 153/153/153
f 158/158/158 153/153/153 159/159/159
f 160/160/160 159/159/159 153/153/153
f 159/159/159 161/161/161 158/158/158
f 162/162/162 158/158/158 161/161/161
f 161/161/161 159/159/159 163/163/163
f 160/160/160 163/163/163 159/159/159
f 163/163/163 164/164/164 161/161/161
f 165/165/165 161/161/161 164/164/164
f 158/158/158 162/162/162 166/166/166
f 158/158/158 166/166/166 167/167/167
f 167/167/167 156/156/156 158/158/158
f 163/163/163 168/168/168 164/164/164
f 169/169/169 164/164/164 168/168/168
f 170/170/170 167/167/167 166/166/166
f 170/170/170 171/171/171 167/167/167
f 156/156/156 167/167/167 171/171/171
f 160/160/160 172/172/172 163/163/163
f 168/168/168 163/163/163 172/172/172
f 172/172/172 173/173/173 168/168/168
f 174/174/174 168/168/168 173/173/173
f 168/168/168 174/174/174 169/169/169
f 175/175/175 169/169/169 174/174/174
f 165/165/165 164/164/164 176/176/176
f 173/173/173 172/172/172 177/177/177
f 178/178/178 177/177/177 172/172/172
f 178/178/178 179/179/179 177/177/177
f 180/180/180 177/177/177 179/179/179
f 179/179/179 178/178/178 181/181/181
f 181/181/181 182/182/182 179/179/179
f 181/181/181 183/183/183 182/182/182
f 183/183/183 181/181/181 184/184/184
f 184/184/184 185/185/185 183/183/183
f 185/185/185 184/184/184 186/186/186
f 187/187/187 186/186/186 184/184/184
f 187/187/187 184/184/184 181/181/181
f 187/187/187 181/181/181 178/178/178
f 186/186/186 187/187/187 153/153/153
f 160/160/160 153/153/153 187/187/187
f 187/187/187 178/178/178 160/160/160
f 188/188/188 183/183/183 185/185/185
f 189/189/189 182/182/182 183/183/183
f 188/188/188 185/185/185 190/190/190
f 190/190/190 185/185/185 191/191/191
f 191/191/191 185/185/185 192/192/192
f 193/193/193 192/192/192 185/185/185
f 193/193/193 185/185/185 186/186/186
f 186/186/186 151/151/151 193/193/193
f 186/186/186 153/153/153 151/151/151
f 194/194/194 193/193/193 151/151/151
f 194/194/194 192/192/192 193/193/193
f 194/194/194 151/151/151 195/195/195
f 196/196/196 192/192/192 194/194/194
f 192/192/192 197/197/197 191/191/191
f 197/197/197 192/192/192 198/198/198
f 199/199/199 191/191/191 197/197/197
f 191/191/191 201/201/201 200/200/200
f 172/172/172 160/160/160 178/178/178
f 204/204/204 203/203/203 202/202/202
f 204/204/204 205/205/205 203/203/203
f 205/205/205 204/204/204 206/206/206
f 207/207/207 206/206/206 204/204/204
f 208/208/208 203/203/203 205/205/205
f 156/156/156 210/210/210 209/209/209
f 213/213/213 212/212/212 211/211/211
f 214/214/214 213/213/213 211/211/211
f 214/214/214 216/216/216 215/215/215
f 217/217/217 215/215/215 216/216/216
f 215/215/215 217/217/217 218/218/218
f 216/216/216 219/219/219 217/217/217
f 220/220/220 217/217/217 219/219/219
f 223/223/223 222/222/222 221/221/221
f 225/225/225 224/224/224 222/222/222
f 222/222/222 226/226/226 225/225/225
f 228/228/228 227/227/227 223/223/223
f 230/230/230 229/229/229 226/226/226
f 231/231/231 179/179/179 182/182/182
f 179/179/179 231/231/231 180/180/180
f 232/232/232 180/180/180 231/231/231
f 234/234/234 231/231/231 233/233/233
f 233/233/233 182/182/182 235/235/235
f 189/189/189 235/235/235 182/182/182
f 231/231/231 234/234/234 236/236/236
f 238/238/238 237/237/237 231/231/231
f 240/240/240 236/236/236 239/239/239
f 243/243/243 242/242/242 241/241/241
f 244/244/244 241/241/241 242/242/242
f 242/242/242 245/245/245 244/244/244
f 246/246/246 244/244/244 245/245/245
f 245/245/245 247/247/247 246/246/246
f 248/248/248 246/246/246 247/247/247
f 248/248/248 247/247/247 249/249/249
f 250/250/250 249/249/249 247/247/247
