g green_asn_f_pve_3_helm
v 0.0412761867 -0.0939763784 1.70117247
v 0.0365324579 -0.0952775255 1.68249178
v 0.034196496 -0.0913161933 1.68259716
v 0.0434990786 -0.0976569951 1.69963348
v 0.0365324579 -0.0952775255 1.68249178
v 0.0667926893 -0.086209476 1.70559585
v 0.0660779476 -0.0985413268 1.72883177
v 0.0934950486 -0.0761114135 1.7350682
v 0.0705825984 -0.0984038711 1.74280238
v 0.0666234568 -0.0962137952 1.75534201
v 0.0734693855 -0.0941213965 1.77467406
v 0.08625599 -0.053451281 1.71490645
v 0.106766835 -0.03698349 1.74858546
v 0.0982398465 -0.0315954983 1.73064172
v 0.0981131792 -0.02847852 1.71432006
v 0.100562885 0.0151606295 1.73230803
v 0.0923554748 -0.0144606493 1.69690573
v 0.0904551297 -0.0594925098 1.68003809
v 0.0825306624 -0.0454052687 1.66580665
v 0.0640492961 -0.0842922032 1.65512931
v 0.0520388782 -0.08102718 1.64406347
v 0.0698634312 -0.0660513416 1.63400507
v 0.0430148989 -0.0739685297 1.63203323
v 0.0873714909 -0.0338436179 1.65044451
v 0.104859933 -0.00210966007 1.6802783
v 0.100974664 0.00417053979 1.6723181
v 0.0982497409 0.0201655999 1.71168423
v 0.110640571 0.0227268413 1.68713236
v 0.101222247 0.0207331982 1.67507243
v 0.0948018655 0.0537184626 1.70898461
v 0.100343399 0.0605949089 1.68142712
v 0.101222247 0.0207331982 1.67507243
v 0.0851629823 0.0553528666 1.66194892
v 0.0866226628 0.0760568827 1.69834459
v 0.0667414963 0.0876413137 1.66561735
v 0.0851629823 0.0553528666 1.66194892
v 0.0619441196 0.0734439269 1.65237284
v 0.0957977548 0.0548950285 1.72657084
v 0.101281859 0.0128951501 1.73951137
v 0.0825125799 0.0580546893 1.73275125
v 0.0863548741 0.0822264776 1.70560801
v 0.0686051473 0.0975468159 1.67335105
v 0.0470617488 0.0935454518 1.65745521
v 0.0402020216 0.0817647353 1.65450048
v 0.0343065895 0.0903306305 1.66176569
v 0.0412561297 0.094492197 1.67325151
v 0.0591688007 0.0850364864 1.70550299
v 0.00440838002 0.103763871 1.65768754
v 0.00031204999 0.095556207 1.65017915
v 0.000399008975 0.0876583084 1.64616883
v -0.0378468372 0.102501474 1.65494943
v -0.0460873544 0.0887045562 1.64667654
v -0.0679484159 0.0932811052 1.6616205
v -0.0753159598 0.0744361132 1.65243852
v -0.0931847394 0.0723147988 1.6762023
v -0.0946960896 0.05136225 1.66432321
v -0.10923253 0.0377969667 1.69603789
v -0.100957789 0.0193223488 1.67279065
v -0.114248842 0.0121295592 1.69907105
v 0.0210190006 0.103689477 1.68698037
v 0.0287794583 0.0908010826 1.74644518
v 0.0691938698 0.0575053506 1.77687025
v 0.0302191209 0.075839527 1.797611
v 0.0611647591 0.0537123568 1.81200576
v 0.0366145298 0.0698652342 1.84452546
v 0.059302263 0.0526899956 1.8457576
v 0.107786901 0.0108623998 1.7517184
v 0.0936558321 0.00762824994 1.7892766
v 0.0816607252 0.010091966 1.82070434
v 0.073190175 0.0181553569 1.84762204
v 0.0855245218 -0.0435043983 1.79055917
v 0.0606994107 -0.0912769362 1.79103386
v 0.0759550184 -0.0468645692 1.81708908
v 0.0709244013 -0.0470694192 1.85216439
v 0.0619220585 -0.0783029795 1.85390913
v 0.0506961904 -0.0961185619 1.82926011
v 0.0470896624 -0.100540414 1.85550654
v 0.0444504283 -0.0958273783 1.83826315
v 0.0470896624 -0.100540414 1.85550654
v 0.0417152382 -0.100081019 1.85764444
v 0.0569660254 -0.0893869698 1.78912354
v 0.0734693855 -0.0941213965 1.77467406
v 0.0698098391 -0.0918240547 1.77309608
v 0.0637671947 -0.0926145315 1.75512505
v 0.0673146397 -0.0951958448 1.74236763
v 0.0632757023 -0.095184423 1.73025954
v 0.0469053984 -0.0938439742 1.82906699
v 0.0444504283 -0.0958273783 1.83826315
v 0.0506961904 -0.0961185619 1.82926011
v 0.0606994107 -0.0912769362 1.79103386
v 0.0153992902 -0.119317077 1.86878526
v -0.0162562598 -0.119221449 1.86867177
v -0.000168405022 -0.135708347 1.91694856
v 0.0146676498 -0.126820251 1.91520667
v 0.0299352277 -0.115885571 1.86834407
v -0.0150931096 -0.126649767 1.91430616
v -0.03053822 -0.115140416 1.86850166
v 0.000121769997 -0.124138832 1.99636948
v 0.000121769997 -0.124138832 1.99636948
v 0.0133324796 -0.120392904 1.91508448
v 0.000121769997 -0.124138832 1.99636948
v 0.0292606205 -0.113034181 1.86949074
v -0.0164335202 -0.115699403 1.85825133
v 0.016500961 -0.115674309 1.85815287
v -0.0256951451 -0.104436621 1.85633171
v 0.0256951451 -0.104436621 1.85701692
v -0.0132409697 -0.119723581 1.91348922
v 0.000121769997 -0.124138832 1.99636948
v -0.0296486802 -0.112226062 1.86935282
v -0.03053822 -0.115140416 1.86850166
v -0.0995740369 -0.0697705671 1.90712488
v -0.0715624988 -0.081840001 1.86720145
v -0.0809572712 -0.0514566973 1.86510766
v -0.0968999937 -0.0750774443 1.90743506
v -0.0996910334 -0.0564778969 1.91145658
v -0.105224267 -0.0671883896 1.98088729
v -0.0800780654 -0.0380529501 1.86385918
v -0.105224267 -0.0671883896 1.98088729
v -0.0874963626 -0.0818914622 1.9147799
v -0.105224267 -0.0671883896 1.98088729
v -0.0621574298 -0.0915312916 1.86682081
v -0.0817367062 -0.0797707364 1.91750169
v -0.105224267 -0.0671883896 1.98088729
v -0.0574767292 -0.0904840827 1.86827552
v -0.0748189539 -0.047566399 1.85399628
v -0.0652235076 -0.0793485492 1.85561943
v -0.0630732775 -0.0778095052 1.85437846
v -0.0697052628 -0.0466324091 1.85233498
v -0.094672963 -0.0523278192 1.91257966
v -0.105224267 -0.0671883896 1.98088729
v -0.0765101612 -0.0348806605 1.86509717
v -0.0800780654 -0.0380529501 1.86385918
v 0.0994511172 -0.0694704056 1.90652144
v 0.0711156502 -0.0819502547 1.86660397
v 0.096722275 -0.0750525147 1.90679765
v 0.0808771402 -0.0509086326 1.86481369
v 0.0996730179 -0.0567257293 1.91119194
v 0.0802436545 -0.0388810597 1.86370063
v 0.105050981 -0.0673715398 1.9813838
v 0.105050981 -0.0673715398 1.9813838
v 0.0878195539 -0.0820326582 1.91474009
v 0.105050981 -0.0673715398 1.9813838
v 0.0620149709 -0.0914025754 1.86645865
v 0.080975391 -0.0799504817 1.91649926
v 0.105050981 -0.0673715398 1.9813838
v 0.0649908185 -0.0803778917 1.85612822
v 0.0744503513 -0.0487808771 1.85401404
v 0.0619220585 -0.0783029795 1.85390913
v 0.0709244013 -0.0470694192 1.85216439
v 0.105050981 -0.0673715398 1.9813838
v 0.0933681056 -0.0511977002 1.90866387
v 0.076554887 -0.0350481197 1.86518228
v 0.0802436545 -0.0388810597 1.86370063
v 0.080975391 -0.0799504817 1.91649926
v 0.0574372709 -0.090773724 1.86816633
v -0.0132409697 -0.119723581 1.91348922
v 0.0133324796 -0.120392904 1.91508448
v 0.000121769997 -0.124138832 1.99636948
v 0.0292606205 -0.113034181 1.86949074
v -0.0296486802 -0.112226062 1.86935282
v 0.000537899963 0.0779996663 1.85646176
v -0.0389428213 0.0660474077 1.84420371
v -3.42200001E-05 0.0773744881 1.84360516
v -0.0399065502 0.0677384138 1.85694039
v -0.0624895766 0.0499175154 1.85841322
v -0.0629007965 0.0475292951 1.84554756
v -0.0749517083 0.0161218848 1.8607744
v -0.0744213611 0.0147976121 1.84799409
v -0.0702897534 0.0272100307 1.88298357
v -0.0440189317 0.04687519 1.90133119
v -0.0133021697 0.0754002482 1.87805283
v -0.0157057289 0.0597089864 1.9105624
v -0.0141244894 0.0258769076 1.93203092
v -0.0447196476 -0.00429507485 1.92104864
v -0.0137951896 -0.0215914883 1.93590307
v -0.0431210399 -0.0571377873 1.91351008
v -0.0160723198 -0.067238681 1.91725135
v -0.0296486802 -0.112226062 1.86935282
v -0.067319423 -0.02002161 1.89461422
v -0.0765101612 -0.0348806605 1.86509717
v -0.058523111 -0.060923107 1.88422859
v -0.0574767292 -0.0904840827 1.86827552
v -0.0574767292 -0.0904840827 1.86827552
v -0.03053822 -0.115140416 1.86850166
v -0.0621574298 -0.0915312916 1.86682081
v 0.0210932586 0.0566630587 1.91018713
v 0.0240628496 0.0749581829 1.8750509
v 0.0181330703 0.023119539 1.9337213
v 0.0164540391 -0.0227793194 1.93849707
v 0.0484492481 -0.00844307989 1.91923559
v 0.0506899767 0.0292870309 1.90596569
v 0.059370473 0.0515240952 1.87658882
v 0.0735190511 0.0183453951 1.87915766
v 0.0735680535 0.0186346211 1.86078382
v 0.0745721906 -0.0290497709 1.8845582
v 0.076554887 -0.0350481197 1.86518228
v 0.0597171709 0.0530581363 1.85842407
v 0.0368748978 0.0696042106 1.85686135
v 0.0366145298 0.0698652342 1.84452546
v 0.000537899963 0.0779996663 1.85646176
v -3.42200001E-05 0.0773744881 1.84360516
v 0.0240628496 0.0749581829 1.8750509
v 0.059302263 0.0526899956 1.8457576
v 0.073190175 0.0181553569 1.84762204
v 0.0462467708 -0.0511063188 1.91072094
v 0.0523720793 -0.0821260512 1.88390315
v 0.0574372709 -0.090773724 1.86816633
v 0.0189042296 -0.0684600398 1.91888535
v 0.0292606205 -0.113034181 1.86949074
v 0.0299352277 -0.115885571 1.86834407
v 0.0620149709 -0.0914025754 1.86645865
v 0.0292606205 -0.113034181 1.86949074
v 0.043545451 -0.10666737 1.85800958
v 0.016500961 -0.115674309 1.85815287
v 0.0649908185 -0.0803778917 1.85612822
v 0.0417152382 -0.100081019 1.85764444
v 0.0470896624 -0.100540414 1.85550654
v 0.0256951451 -0.104436621 1.85701692
v 0.0389391221 -0.09656775 1.8567996
v 0.0470896624 -0.100540414 1.85550654
v 0.0619220585 -0.0783029795 1.85390913
v -0.0744213611 0.0147976121 1.84799409
v -0.0748189539 -0.047566399 1.85399628
v -0.0697052628 -0.0466324091 1.85233498
v -0.0800780654 -0.0380529501 1.86385918
v -0.094672963 -0.0523278192 1.91257966
v -0.0817367062 -0.0797707364 1.91750169
v -0.105224267 -0.0671883896 1.98088729
v -0.0574767292 -0.0904840827 1.86827552
v -0.0765101612 -0.0348806605 1.86509717
v 0.0240628496 0.0749581829 1.8750509
v 0.0240628496 0.0749581829 1.8750509
v 0.0802436545 -0.0388810597 1.86370063
v 0.076554887 -0.0350481197 1.86518228
v 0.0744503513 -0.0487808771 1.85401404
v 0.073190175 0.0181553569 1.84762204
v 0.0709244013 -0.0470694192 1.85216439
v -0.0462843776 -0.104804754 1.85766506
v -0.0652235076 -0.0793485492 1.85561943
v -0.0164335202 -0.115699403 1.85825133
v -0.0440838523 -0.101932593 1.8554281
v -0.0477574766 -0.101596065 1.85601556
v -0.0630732775 -0.0778095052 1.85437846
v -0.0256951451 -0.104436621 1.85633171
v -0.0399045683 -0.0957404599 1.85568869
v 0.0933681056 -0.0511977002 1.90866387
v 0.0574372709 -0.090773724 1.86816633
v 0.076554887 -0.0350481197 1.86518228
v 0.080975391 -0.0799504817 1.91649926
v 0.0574372709 -0.090773724 1.86816633
v 0.105050981 -0.0673715398 1.9813838
v -0.0222615004 -0.094458133 1.66845679
v -0.0386624075 -0.0915073678 1.65654325
v -0.0289737005 -0.0955618918 1.67814207
v -0.0529127568 -0.089994736 1.6663655
v -0.0548881814 -0.100153625 1.67875183
v -0.0582919866 -0.0909074023 1.66213906
v -0.0860959217 -0.065139465 1.67147195
v -0.0669454783 -0.0724653825 1.63092399
v -0.0866640359 -0.0446092486 1.64770234
v -0.107418887 -0.0285562202 1.68841147
v -0.0954824686 -0.0137184095 1.66498232
v -0.100957789 0.0193223488 1.67279065
v -0.0439168103 -0.0876591876 1.64153123
v -0.0436274186 -0.0816079378 1.62184811
v -0.00616330979 -0.0906581506 1.63392544
v -0.00477482984 -0.0765830129 1.62261701
v 0.0520388782 -0.08102718 1.64406347
v 0.0430148989 -0.0739685297 1.63203323
v 0.0496862493 -0.0944488496 1.65024471
v -0.00767721981 -0.0886444226 1.64504516
v -0.0245671105 -0.086649552 1.65346825
v -0.114281334 0.0110219391 1.70844865
v -0.106439315 -0.034439981 1.70293319
v -0.085333623 -0.0758471936 1.68928254
v -0.103903852 -0.0370727777 1.72202897
v -0.0800630376 -0.0859497935 1.70512998
v -0.0879425332 -0.0374124907 1.74521327
v -0.0563839003 -0.0938814133 1.71334088
v -0.0610382482 -0.103597611 1.69569159
v -0.0510360189 -0.095700793 1.70683086
v -0.0511898994 -0.0926473811 1.71822524
v -0.10940519 0.00278926012 1.72650957
v -0.0926831961 0.00466152979 1.7515322
v -0.091566205 -0.0385477282 1.76711035
v -0.0955037549 0.00672002975 1.77265692
v -0.104031831 0.0454687588 1.72149193
v -0.109359622 0.0414307117 1.70337999
v -0.0839908421 0.0484409817 1.74714351
v -0.0839592069 0.0520169772 1.76933837
v -0.0761883408 0.0498744473 1.80399489
v -0.0857117996 0.00786230154 1.80680144
v -0.0629007965 0.0475292951 1.84554756
v -0.0744213611 0.0147976121 1.84799409
v -0.093864724 0.0806277841 1.68423426
v -0.0672827363 0.100778922 1.67201245
v -0.0355921611 0.109255657 1.66355097
v -0.0592224412 0.0876308009 1.75595522
v -0.0606323071 0.0825336426 1.7321943
v -0.0389428213 0.0660474077 1.84420371
v -0.0510836318 0.0822522119 1.79569328
v -0.00463667978 0.0856252909 1.78822219
v -3.42200001E-05 0.0773744881 1.84360516
v -0.0393653885 0.105372444 1.70488846
v -0.0746461004 0.0938506126 1.69760108
v -0.00477699982 0.108375259 1.72001445
v 0.0681653544 -0.0716199651 1.69286025
v 0.0590574294 -0.0931502357 1.66273892
v 0.0365324579 -0.0952775255 1.68249178
v 0.0496862493 -0.0944488496 1.65024471
v 0.0528896004 -0.0923825726 1.66237175
v 0.0534494333 -0.0878188312 1.66250908
v 0.0365324579 -0.0952775255 1.68249178
v 0.0496862493 -0.0944488496 1.65024471
v 0.0534494333 -0.0878188312 1.66250908
v -0.0746585131 -0.0876238346 1.74614942
v -0.0643461421 -0.0930336267 1.743999
v -0.0603652373 -0.081551604 1.80417848
v -0.0792105719 -0.0396322608 1.80467784
v -0.0697052628 -0.0466324091 1.85233498
v -0.0630732775 -0.0778095052 1.85437846
v -0.0517367832 -0.0974233225 1.83965445
v -0.0547831468 -0.0846914575 1.80402815
v -0.0477250852 -0.0982973874 1.83793545
v -0.0517082959 -0.0881154165 1.71763146
v -0.0517649464 -0.0915171728 1.70506287
v -0.0584315062 -0.0998107493 1.69553494
v -0.0610382482 -0.103597611 1.69569159
v -0.0440838523 -0.101932593 1.8554281
v -0.0477574766 -0.101596065 1.85601556
v -0.0506872833 -0.0805264488 1.80832398
v -0.0458261967 -0.0938277543 1.83776236
v -0.0399045683 -0.0957404599 1.85568869
v -0.0440838523 -0.101932593 1.8554281
v -0.052958034 -0.0968788788 1.68134224
v -0.0287481174 -0.0911414996 1.67939484
v -0.0223665833 -0.0900300592 1.66969824
v -0.0249890704 -0.0821139887 1.65410912
v -0.0249890704 -0.0821139887 1.65410912
v -0.0222615004 -0.094458133 1.66845679
v -0.062381357 -0.0888763219 1.74387097
v -0.0506872833 -0.0805264488 1.80832398
v 0.0444504283 -0.0958273783 1.83826315
v 0.0389391221 -0.09656775 1.8567996
v 0.0417152382 -0.100081019 1.85764444
v -0 -0.0626221523 1.64727211
v -0.0190810002 -0.0468392856 1.68232954
v -0 -0.0488124453 1.6726054
v -0 -0.0598391108 1.7057327
v -0.0215534307 -0.0535634086 1.71869338
v -0.0388699435 -0.0474215969 1.65334952
v -0.0376749784 -0.0283108223 1.70002103
v -0.0396356992 -0.0314633921 1.73985374
v -0.0607371368 -0.0376578644 1.76808846
v 0.0190810002 -0.0468392856 1.68232954
v 0.0215534307 -0.0535634086 1.71869338
v 0.0388699435 -0.0474215969 1.65334952
v 0.0376749784 -0.0283108223 1.70002103
v 0.0396356992 -0.0314633921 1.73985374
v 0.0522085018 -0.030601209 1.75705278
v 0.0938816443 -0.0309578534 1.73196816
v -0.0249890704 -0.0821139887 1.65410912
v -0.0596365184 -0.0596187785 1.65122521
v -0.101203576 -0.0328851081 1.70838487
v -0.00767721981 -0.0886444226 1.64504516
v 0.0499691851 -0.0783362165 1.64716768
v 0.0496862493 -0.0944488496 1.65024471
v 0.0534494333 -0.0878188312 1.66250908
v 0.0783144757 -0.0439990126 1.66699266
v 0.0783144757 -0.0439990126 1.66699266
v 0.0938816443 -0.0309578534 1.73196816
v -0.052958034 -0.0968788788 1.68134224
v -0.0287481174 -0.0911414996 1.67939484
v -0.0223665833 -0.0900300592 1.66969824
v -0.0584315062 -0.0998107493 1.69553494
v -0.101203576 -0.0328851081 1.70838487
v 0.0632757023 -0.095184423 1.73025954
v 0.0412761867 -0.0939763784 1.70117247
v 0.0673146397 -0.0951958448 1.74236763
v 0.034196496 -0.0913161933 1.68259716
v 0.0783144757 -0.0439990126 1.66699266
v 0.034196496 -0.0913161933 1.68259716
v 0.0637671947 -0.0926145315 1.75512505
v 0.0633373037 -0.0523928665 1.78612256
v 0.0698098391 -0.0918240547 1.77309608
v 0.0569660254 -0.0893869698 1.78912354
v 0.0622261688 -0.0682311505 1.79843426
v 0.0522085018 -0.030601209 1.75705278
v 0.0485189371 -0.082279183 1.80718935
v 0.0469053984 -0.0938439742 1.82906699
v 0.0435411632 -0.0904579312 1.83117962
v 0.0444504283 -0.0958273783 1.83826315
v -0.0517082959 -0.0881154165 1.71763146
v -0.0584315062 -0.0998107493 1.69553494
v -0.0517649464 -0.0915171728 1.70506287
v -0.0815863982 -0.0367911048 1.75064194
v -0.101203576 -0.0328851081 1.70838487
v -0.062381357 -0.0888763219 1.74387097
v -0.0815863982 -0.0367911048 1.75064194
v -0.0622261688 -0.0682311505 1.79843426
v -0.0506872833 -0.0805264488 1.80832398
v -0.0607371368 -0.0376578644 1.76808846
v -0.0815863982 -0.0367911048 1.75064194
v -0.0815863982 -0.0367911048 1.75064194
v -0.101203576 -0.0328851081 1.70838487
v -0.0815863982 -0.0367911048 1.75064194
v -0.0815863982 -0.0367911048 1.75064194
v 0.0389381982 -0.0484011769 1.65067995
v 0.0430148989 -0.0739685297 1.63203323
v 0.0698634312 -0.0660513416 1.63400507
v 0.0164383985 -0.0588304922 1.64753997
v 0.0873714909 -0.0338436179 1.65044451
v 0.047828 -0.00204147981 1.67162001
v 0.100974664 0.00417053979 1.6723181
v 0.0489022993 0.0103270989 1.68213999
v 0.0493208952 0.030392101 1.69052994
v 0.101222247 0.0207331982 1.67507243
v 0.0851629823 0.0553528666 1.66194892
v 0.0619441196 0.0734439269 1.65237284
v 0.0257930979 0.0488722995 1.69348991
v 0.0851629823 0.0553528666 1.66194892
v 0.0402020216 0.0817647353 1.65450048
v -9.99999994E-09 0.0536072999 1.69389009
v 0.000399008975 0.0876583084 1.64616883
v -0.0257930979 0.0488722995 1.69348991
v -0.0460873544 0.0887045562 1.64667654
v -0.0753159598 0.0744361132 1.65243852
v -0.0493209958 0.030392101 1.69052994
v -0.0946960896 0.05136225 1.66432321
v -0.100957789 0.0193223488 1.67279065
v -0.0489022993 0.0103270989 1.68213999
v -0.0954824686 -0.0137184095 1.66498232
v -0.047828 -0.00204147981 1.67162001
v -0.0866640359 -0.0446092486 1.64770234
v -0.0389382988 -0.0484011769 1.65067995
v -0.0669454783 -0.0724653825 1.63092399
v -0.0436274186 -0.0816079378 1.62184811
v -0.0164384991 -0.0588304698 1.64753997
v -0.00477482984 -0.0765830129 1.62261701
v -9.98576155E-09 -0.0646507218 1.63992
v -0.100957789 0.0193223488 1.67279065
v -0.00477482984 -0.0765830129 1.62261701
v 0.0430148989 -0.0739685297 1.63203323
v 0.0130003588 -0.111476198 1.77255881
v -0.00591469277 -0.131582931 1.77543271
v 0.00591469277 -0.131582931 1.77543271
v -0.0130003588 -0.111476198 1.77255881
v -0.0104208943 -0.11637567 1.75071836
v 0.0104208943 -0.11637567 1.75071836
v 0.0077262097 -0.111863852 1.82242179
v -0.0077262097 -0.111863852 1.82242179
v 0.0159836598 -0.111862555 1.83110225
v -0.0159836598 -0.111862555 1.83110225
v -0.0249359198 -0.0982349589 1.75092947
v -0.0137935197 -0.105954885 1.73471498
v -0.0268966183 -0.0935463086 1.73034573
v -0.0135024404 -0.108010948 1.7196815
v -0.0476561375 -0.0729349852 1.76251495
v -0.0184333939 -0.0968073756 1.80915833
v -0.0474243201 -0.085483022 1.78476608
v -0.0622261688 -0.0682311505 1.79843426
v -0.04209169 -0.0871533528 1.80382657
v -0.0506872833 -0.0805264488 1.80832398
v -0.035822019 -0.0983192027 1.82860529
v -0.0458261967 -0.0938277543 1.83776236
v -0.034860529 -0.106889829 1.83808279
v -0.0195792112 -0.099551782 1.82553983
v -0.0524937809 -0.0478744693 1.74562776
v -0.0607371368 -0.0376578644 1.76808846
v -0.0337399282 -0.0697002187 1.72462988
v -0.0141722998 -0.096082516 1.71189678
v -0 -0.0686239302 1.71127164
v -0.0215534307 -0.0535634086 1.71869338
v -0 -0.0598391108 1.7057327
v -0.0396356992 -0.0314633921 1.73985374
v -0.0399045683 -0.0957404599 1.85568869
v -0.0256951451 -0.104436621 1.85633171
v 0.0256951451 -0.104436621 1.85701692
v 0.034860529 -0.106889829 1.83808279
v 0.0195792094 -0.099551782 1.82553983
v 0.0184333939 -0.0968073756 1.80915833
v 0.035822019 -0.0983192027 1.82860529
v 0.04209169 -0.0871533528 1.80382657
v 0.0474243201 -0.085483022 1.78476608
v 0.0476561375 -0.0729349852 1.76251495
v 0.0249359198 -0.0982349589 1.75092947
v 0.0137935197 -0.105954885 1.73471498
v 0.0135024404 -0.108010948 1.7196815
v 0.0141722998 -0.096082516 1.71189678
v -0 -0.0686239302 1.71127164
v 0.0268966183 -0.0935463086 1.73034573
v 0.0633373037 -0.0523928665 1.78612256
v 0.0622261688 -0.0682311505 1.79843426
v 0.0337399282 -0.0697002187 1.72462988
v 0.0524937809 -0.0478744693 1.74562776
v -0 -0.0686239302 1.71127164
v 0.0215534307 -0.0535634086 1.71869338
v -0 -0.0598391108 1.7057327
v 0.0396356992 -0.0314633921 1.73985374
v 0.0522085018 -0.030601209 1.75705278
v 0.0485189371 -0.082279183 1.80718935
v 0.0435411632 -0.0904579312 1.83117962
v 0.0444504283 -0.0958273783 1.83826315
v 0.0389391221 -0.09656775 1.8567996
v 0.0389391221 -0.09656775 1.8567996
v -0.0396356992 -0.0314633921 1.73985374
v -0.0607371368 -0.0376578644 1.76808846
vt 0.0120994393 0.270263553
vt 0.00836264156 0.225776911
vt 0.0034247213 0.226663828
vt 0.0164815318 0.265158653
vt 0.00836264156 0.225776911
vt 0.0458142124 0.27086544
vt 0.0420853347 0.331662178
vt 0.0811422765 0.325464964
vt 0.0499074385 0.362444639
vt 0.054019928 0.393718004
vt 0.0702218339 0.430505157
vt 0.0909880027 0.258451104
vt 0.126739711 0.32172513
vt 0.123681217 0.276200533
vt 0.121230811 0.239112258
vt 0.17464307 0.250748158
vt 0.130339667 0.188363671
vt 0.0775980055 0.184904337
vt 0.0845078155 0.139083147
vt 0.0335788466 0.144762754
vt 0.0267923586 0.110912323
vt 0.0500969552 0.0778056383
vt 0.0184686612 0.077113986
vt 0.0936752558 0.0984982252
vt 0.142287582 0.137716055
vt 0.145414248 0.113165855
vt 0.173525542 0.201252818
vt 0.170580775 0.138168097
vt 0.166352078 0.104730129
vt 0.210181028 0.180282593
vt 0.211043209 0.114766479
vt 0.166352078 0.104730129
vt 0.21148394 0.0585622787
vt 0.233979464 0.147589684
vt 0.255258739 0.067376256
vt 0.21148394 0.0585622787
vt 0.24980171 0.0260343552
vt 0.215867266 0.21849978
vt 0.175192609 0.266511202
vt 0.229926735 0.236774564
vt 0.239309341 0.161122441
vt 0.259392977 0.089851141
vt 0.278359056 0.0517526865
vt 0.282948822 0.0253037214
vt 0.29265672 0.0521998405
vt 0.287906706 0.0862621069
vt 0.26726988 0.166229486
vt 0.328928083 0.0491850376
vt 0.332472771 0.0244873762
vt 0.331794947 0.00530350208
vt 0.37617901 0.0430111885
vt 0.38873595 0.0124125481
vt 0.412025541 0.0585967302
vt 0.431392342 0.0286823511
vt 0.44920516 0.0932747126
vt 0.471584946 0.0646166801
vt 0.487168491 0.153274894
vt 0.513102353 0.103829265
vt 0.513516486 0.175403833
vt 0.311323494 0.116456866
vt 0.301758498 0.256088734
vt 0.246515363 0.336615086
vt 0.297331631 0.37790966
vt 0.254334897 0.418437958
vt 0.291401833 0.486927748
vt 0.256287366 0.496781111
vt 0.176147178 0.297723651
vt 0.18721202 0.385784984
vt 0.202186152 0.457488298
vt 0.217647329 0.514578938
vt 0.132415682 0.427978873
vt 0.076837182 0.476121068
vt 0.137865454 0.490822315
vt 0.150960118 0.56709671
vt 0.118965127 0.597174883
vt 0.089542605 0.56273067
vt 0.0958026201 0.622687221
vt 0.0852609873 0.586856604
vt 0.0958026201 0.622687221
vt 0.0906023011 0.631178021
vt 0.0717506409 0.478652835
vt 0.0702218339 0.430505157
vt 0.0652095899 0.43300581
vt 0.0497428887 0.398813844
vt 0.0451503545 0.366061687
vt 0.0376887172 0.337722659
vt 0.0846988559 0.566231012
vt 0.0852609873 0.586856604
vt 0.089542605 0.56273067
vt 0.076837182 0.476121068
vt 0.153476 0.686839819
vt 0.115827292 0.68656075
vt 0.135001332 0.807808161
vt 0.154916897 0.801913857
vt 0.171502113 0.682984352
vt 0.114908785 0.799787045
vt 0.0978324637 0.683034062
vt 0.135313213 0.996516109
vt 0.135313213 0.996516109
vt 0.162550077 0.804223061
vt 0.135313213 0.996516109
vt 0.175382033 0.687196374
vt 0.115387 0.658622026
vt 0.154918909 0.658236504
vt 0.104469404 0.624538183
vt 0.165673807 0.624411106
vt 0.106442839 0.801071525
vt 0.135313213 0.996516109
vt 0.0937897265 0.686755657
vt 0.0978324637 0.683034062
vt 0.0426765494 0.80333817
vt 0.0663296953 0.692340016
vt 0.0281479638 0.689613223
vt 0.0486959442 0.801468372
vt 0.0274541061 0.814230323
vt 0.0526007637 0.978673935
vt 0.0123939291 0.684671879
vt 0.0526007637 0.978673935
vt 0.0632061213 0.811920404
vt 0.0526007637 0.978673935
vt 0.0812608972 0.684835672
vt 0.0704644248 0.816844225
vt 0.0526007637 0.978673935
vt 0.0880888551 0.687516093
vt 0.0254207235 0.65855968
vt 0.0646887347 0.660003304
vt 0.063172549 0.653109431
vt 0.026406439 0.645507216
vt 0.0198067017 0.816013932
vt 0.0526007637 0.978673935
vt 0.00656160759 0.686344147
vt 0.0123939291 0.684671879
vt 0.223698467 0.801999688
vt 0.20140852 0.691156983
vt 0.216937184 0.801094174
vt 0.240181491 0.689846396
vt 0.23860611 0.812315106
vt 0.254267126 0.685127735
vt 0.220834985 0.980333447
vt 0.220834985 0.980333447
vt 0.202419639 0.814667106
vt 0.220834985 0.980333447
vt 0.187445417 0.68462193
vt 0.193906009 0.817439675
vt 0.220834985 0.980333447
vt 0.202010259 0.661831737
vt 0.24089393 0.659533024
vt 0.203834757 0.651615739
vt 0.241452307 0.649233341
vt 0.220834985 0.980333447
vt 0.248021409 0.804172039
vt 0.260787994 0.6863904
vt 0.254267126 0.685127735
vt 0.193906009 0.817439675
vt 0.181460276 0.687419891
vt 0.651166737 0.530690551
vt 0.648179233 0.570061445
vt 0.709338784 0.576440573
vt 0.61167258 0.578351021
vt 0.620803118 0.492176294
vt 0.807455301 0.95795536
vt 0.759935796 0.902917027
vt 0.794729769 0.976860404
vt 0.771827877 0.886838794
vt 0.752451837 0.819914699
vt 0.739129782 0.829413533
vt 0.742592514 0.740417242
vt 0.728880644 0.747739553
vt 0.767738521 0.751587629
vt 0.802120984 0.79514873
vt 0.814950943 0.905774713
vt 0.834843278 0.839137197
vt 0.842629969 0.763492703
vt 0.81004864 0.691696167
vt 0.84352529 0.661697865
vt 0.811573327 0.575168848
vt 0.839075267 0.55374229
vt 0.811330378 0.416968226
vt 0.776035964 0.651691437
vt 0.743510127 0.614487886
vt 0.778903544 0.548327684
vt 0.774248779 0.474583745
vt 0.774248779 0.474583745
vt 0.807357609 0.412407041
vt 0.771107376 0.4668715
vt 0.881038964 0.860213757
vt 0.847899556 0.961568117
vt 0.874066174 0.764335871
vt 0.871011078 0.662442207
vt 0.907348394 0.689635873
vt 0.914397061 0.776259899
vt 0.946305811 0.816661358
vt 0.954255283 0.740842342
vt 0.97367841 0.74407661
vt 0.950760722 0.632155895
vt 0.970671713 0.614011407
vt 0.965837777 0.826239347
vt 0.953821838 0.893528819
vt 0.967598855 0.903788686
vt 0.940414429 0.979454637
vt 0.954615891 0.989537239
vt 0.926042199 0.913925648
vt 0.979517937 0.834543943
vt 0.987845182 0.750397921
vt 0.906823039 0.589434624
vt 0.924428463 0.503823757
vt 0.936823905 0.474123478
vt 0.875534177 0.555232763
vt 0.898945451 0.418060422
vt 0.901973307 0.413650751
vt 0.940172315 0.466173172
vt 0.898945451 0.418060422
vt 0.925327361 0.41904068
vt 0.900288641 0.373992085
vt 0.956970096 0.455418348
vt 0.932807088 0.406939149
vt 0.934618294 0.421188354
vt 0.919911683 0.377769232
vt 0.935251653 0.396765351
vt 0.934618294 0.421188354
vt 0.959334254 0.445851445
vt 0.728880644 0.747739553
vt 0.723247647 0.603907228
vt 0.717191219 0.608872056
vt 0.738138855 0.616996408
vt 0.719069123 0.346333385
vt 0.701854587 0.376411557
vt 0.741043925 0.442365885
vt 0.669585943 0.324802876
vt 0.702942252 0.272905588
vt 0.847899556 0.961568117
vt 0.926042199 0.913925648
vt 0.975806832 0.612028837
vt 0.970671713 0.614011407
vt 0.990311921 0.595805168
vt 0.987845182 0.750397921
vt 0.994712412 0.601572037
vt 0.781410098 0.42224431
vt 0.752507389 0.457675099
vt 0.809060514 0.371439934
vt 0.777831078 0.413323045
vt 0.776466429 0.422486305
vt 0.750644326 0.451680064
vt 0.789278746 0.376266956
vt 0.772770762 0.397079587
vt 0.669152617 0.470917583
vt 0.657495439 0.375275135
vt 0.63457799 0.446788549
vt 0.685012043 0.434827566
vt 0.657495439 0.375275135
vt 0.721779525 0.509582639
vt 0.69428277 0.204158068
vt 0.676934898 0.173855543
vt 0.687465072 0.223971725
vt 0.65930301 0.194577575
vt 0.659092069 0.232317448
vt 0.654908657 0.181374073
vt 0.61156106 0.178019524
vt 0.643826365 0.100443125
vt 0.601002932 0.110186696
vt 0.560337961 0.182419419
vt 0.557470143 0.114509583
vt 0.513102353 0.103829265
vt 0.672387779 0.136907816
vt 0.672232747 0.088922739
vt 0.71499145 0.116733432
vt 0.715958595 0.0756320953
vt 0.782315254 0.112122059
vt 0.770925701 0.0820658207
vt 0.779052079 0.145387053
vt 0.713596165 0.141216636
vt 0.694534242 0.165044308
vt 0.512160242 0.197450519
vt 0.561587751 0.218257427
vt 0.614727855 0.224413157
vt 0.557944417 0.261990905
vt 0.619926751 0.266253114
vt 0.553826094 0.325644374
vt 0.63693589 0.313150644
vt 0.649555981 0.270268679
vt 0.647004485 0.306851268
vt 0.640253425 0.328996181
vt 0.515455246 0.244017959
vt 0.50393188 0.308563113
vt 0.545146704 0.374193072
vt 0.495188177 0.354164958
vt 0.472386271 0.209390521
vt 0.481940895 0.170003057
vt 0.454232991 0.27352488
vt 0.445787609 0.321759462
vt 0.435413212 0.39980185
vt 0.481177241 0.431057811
vt 0.424369544 0.498184919
vt 0.46049431 0.520206451
vt 0.441285342 0.112130404
vt 0.406516463 0.0831602812
vt 0.371961057 0.0645073652
vt 0.40117383 0.276788116
vt 0.408674091 0.226012588
vt 0.385725111 0.484768152
vt 0.391964406 0.365890741
vt 0.339020371 0.352502704
vt 0.336446375 0.479997396
vt 0.376342595 0.157529354
vt 0.415688485 0.139622808
vt 0.33973515 0.190123439
vt 0.0549787395 0.229068041
vt 0.0236003958 0.165292978
vt 0.00836264156 0.225776911
vt 0.0143977366 0.135847807
vt 0.0162232928 0.166687012
vt 0.0110733137 0.166098475
vt 0.00836264156 0.225776911
vt 0.0143977366 0.135847807
vt 0.0110733137 0.166098475
vt 0.60752511 0.37617445
vt 0.619718075 0.380586624
vt 0.58209902 0.502152443
vt 0.53344363 0.462281346
vt 0.522994757 0.572012067
vt 0.553820968 0.602127314
vt 0.579982877 0.588980198
vt 0.589207411 0.507925153
vt 0.584816039 0.588760614
vt 0.644356012 0.335363746
vt 0.651933432 0.309563518
vt 0.653597951 0.274312735
vt 0.649555981 0.270268679
vt 0.582835555 0.630164981
vt 0.578814685 0.628866196
vt 0.594305515 0.520920396
vt 0.59059298 0.588245392
vt 0.591987848 0.631031394
vt 0.582835555 0.630164981
vt 0.662476122 0.240788937
vt 0.690653563 0.231874347
vt 0.698409021 0.207043052
vt 0.698179781 0.168838024
vt 0.698179781 0.168838024
vt 0.69428277 0.204158068
vt 0.623937905 0.385285139
vt 0.594305515 0.520920396
vt 0.0852609873 0.586856604
vt 0.0851932988 0.630790591
vt 0.0906023011 0.631178021
vt 0.860816479 0.159736872
vt 0.852125227 0.212548137
vt 0.864043653 0.196905017
vt 0.867073417 0.244377375
vt 0.852406979 0.260755062
vt 0.839761615 0.181142688
vt 0.837744176 0.236833096
vt 0.831170559 0.283643365
vt 0.807486475 0.310499787
vt 0.877981544 0.205076814
vt 0.883057535 0.252525449
vt 0.884215951 0.165267229
vt 0.895853162 0.222569466
vt 0.905786812 0.267609954
vt 0.922563136 0.280606151
vt 0.932851017 0.225888848
vt 0.838384986 0.134499669
vt 0.828297436 0.180774927
vt 0.807252586 0.247347236
vt 0.852711082 0.119985223
vt 0.89015764 0.118939519
vt 0.889919102 0.09897089
vt 0.901642978 0.104821324
vt 0.908769488 0.16553092
vt 0.908769488 0.16553092
vt 0.932851017 0.225888848
vt 0.808712125 0.140596867
vt 0.822505832 0.118440986
vt 0.830171704 0.11841011
vt 0.793469965 0.158294678
vt 0.807252586 0.247347236
vt 0.959715664 0.152652025
vt 0.940082014 0.106434584
vt 0.968515694 0.180860996
vt 0.922870338 0.0894728899
vt 0.908769488 0.16553092
vt 0.922870338 0.0894728899
vt 0.974493682 0.214354634
vt 0.955542624 0.285186291
vt 0.976082504 0.245696783
vt 0.979284465 0.27179575
vt 0.967713296 0.290032148
vt 0.922563136 0.280606151
vt 0.979883611 0.29904592
vt 0.990561903 0.318909883
vt 0.988840163 0.324716687
vt 0.993643224 0.329324841
vt 0.781573474 0.196085572
vt 0.793469965 0.158294678
vt 0.785000741 0.174922943
vt 0.802488565 0.279567599
vt 0.807252586 0.247347236
vt 0.773585379 0.245271802
vt 0.802488565 0.279567599
vt 0.775657117 0.32437849
vt 0.763961971 0.329212785
vt 0.807486475 0.310499787
vt 0.802488565 0.279567599
vt 0.802488565 0.279567599
vt 0.807252586 0.247347236
vt 0.802488565 0.279567599
vt 0.802488565 0.279567599
vt 0.598648608 0.730697989
vt 0.598463297 0.67477417
vt 0.577141821 0.683048129
vt 0.616963744 0.71471715
vt 0.561106205 0.736084461
vt 0.588878512 0.79757452
vt 0.548346937 0.802467585
vt 0.587324083 0.820801139
vt 0.586436927 0.851113796
vt 0.546774745 0.830086946
vt 0.553230226 0.892210722
vt 0.567916632 0.93264389
vt 0.602715075 0.876026511
vt 0.553230226 0.892210722
vt 0.585436106 0.947591662
vt 0.619594514 0.883529544
vt 0.615893126 0.970670938
vt 0.637123406 0.880326509
vt 0.652215958 0.972774386
vt 0.675369501 0.950156331
vt 0.656084716 0.861284494
vt 0.69077611 0.909804344
vt 0.698160231 0.858133197
vt 0.660202324 0.83212924
vt 0.698284566 0.803090692
vt 0.661412179 0.810232759
vt 0.695148587 0.746127725
vt 0.659109473 0.74157393
vt 0.682988703 0.692494273
vt 0.66590476 0.668566942
vt 0.642543912 0.719210505
vt 0.635668993 0.668646097
vt 0.63036418 0.704633713
vt 0.698160231 0.858133197
vt 0.635668993 0.668646097
vt 0.598463297 0.67477417
vt 0.416816413 0.76636672
vt 0.395060688 0.785961151
vt 0.401997745 0.786023974
vt 0.38060841 0.766176224
vt 0.387094557 0.715298057
vt 0.410396069 0.71531713
vt 0.409316689 0.903028488
vt 0.387470543 0.903067708
vt 0.418508828 0.924008369
vt 0.377865374 0.924114108
vt 0.363639385 0.71017766
vt 0.381036133 0.671647072
vt 0.361292243 0.657838225
vt 0.383274823 0.635965109
vt 0.323293775 0.732800603
vt 0.366794258 0.864144206
vt 0.331438214 0.796281099
vt 0.301234275 0.822363257
vt 0.335820556 0.847104669
vt 0.321917921 0.856865287
vt 0.346481919 0.912120938
vt 0.33321771 0.937285185
vt 0.353991777 0.940634012
vt 0.365708351 0.900865555
vt 0.297786474 0.673977017
vt 0.276233196 0.720653296
vt 0.336822212 0.63061583
vt 0.379031301 0.607413173
vt 0.354582369 0.54867816
vt 0.318811923 0.579185128
vt 0.343058705 0.532899261
vt 0.27881065 0.623349309
vt 0.34188059 0.985314369
vt 0.364047647 0.988334298
vt 0.43103531 0.990534425
vt 0.442261964 0.942131519
vt 0.431126833 0.901352644
vt 0.430299044 0.864516616
vt 0.450416774 0.913408041
vt 0.461415619 0.848033547
vt 0.465963215 0.796823025
vt 0.474247009 0.732972026
vt 0.433869749 0.710313916
vt 0.416491032 0.671661496
vt 0.414281517 0.635971189
vt 0.418543398 0.607434154
vt 0.398794562 0.543762684
vt 0.436255515 0.657923102
vt 0.51169771 0.778662801
vt 0.495707005 0.824446321
vt 0.460758239 0.630687237
vt 0.49978587 0.673998475
vt 0.443013191 0.548730135
vt 0.478791982 0.579242349
vt 0.454538673 0.532957196
vt 0.518866599 0.623424053
vt 0.525861919 0.679747701
vt 0.471902162 0.85541904
vt 0.463705808 0.91998446
vt 0.459769756 0.944263816
vt 0.450997263 0.991908431
vt 0.450997263 0.991908431
vt 0.27881065 0.623349309
vt 0.276233196 0.720653296
vn -0.866608024 0.0525922962 0.496210217
vn -0.467919797 -0.847515106 -0.250537872
vn -0.97720021 0.172845453 -0.123305388
vn -0.216614082 -0.976059735 0.0196380522
vn -0.467919797 -0.847515106 -0.250537872
vn 0.648274362 -0.60895294 -0.457074076
vn 0.0293746255 -0.999456584 -0.0149558801
vn 0.870991051 -0.46873489 -0.147180721
vn 0.122382738 -0.98905015 0.082475923
vn -0.202552512 -0.974153161 0.0999904275
vn 0.38451153 -0.891485095 0.239593834
vn 0.877667546 -0.429516196 -0.212639555
vn 0.986472011 -0.163333714 -0.0139649743
vn 0.945481181 -0.134081617 -0.2967951
vn 0.974927962 -0.183498725 -0.125871211
vn 0.98359412 0.106418081 0.145663142
vn 0.983453989 -0.175528869 -0.0448080674
vn 0.904245555 -0.390906096 -0.171850339
vn 0.915670216 -0.340183139 -0.214063808
vn 0.72898066 -0.437314332 -0.526633918
vn 0.477137238 -0.61399436 -0.628769457
vn 0.580283284 -0.228243187 -0.78177774
vn 0.0953318775 -0.15490666 -0.983318806
vn 0.686698198 -0.0232494958 -0.726570666
vn 0.964234948 -0.25568518 -0.069827579
vn 0.510775387 0.219195023 -0.831301451
vn 0.995904744 0.00799612049 0.0900539532
vn 0.998648107 0.00523838634 -0.0517150909
vn 0.436067909 0.0437510163 -0.898849547
vn 0.963385284 0.248990148 0.0994619355
vn 0.88798368 0.409011215 -0.210225418
vn 0.436067909 0.0437510163 -0.898849547
vn 0.309411883 -0.0753421262 -0.9479388
vn 0.890240312 0.433273047 -0.140523151
vn 0.592031002 0.471704155 -0.653448105
vn 0.309411883 -0.0753421262 -0.9479388
vn 0.126078546 -0.0675461665 -0.98971796
vn 0.835784853 0.397476822 0.378781945
vn 0.976138711 0.150577947 -0.156459674
vn 0.587013483 0.670659959 0.453464776
vn 0.661985755 0.711722791 0.235001162
vn 0.484369189 0.854279518 -0.18866086
vn -0.0116491672 0.762545824 -0.646829307
vn -0.0499740355 -0.103014886 -0.993423581
vn 0.134585097 0.862362862 -0.488074958
vn 0.131188855 0.990865409 -0.0312277228
vn 0.283665299 0.905354261 0.316018224
vn 0.178095579 0.870563865 -0.458694339
vn 0.121405348 0.573940933 -0.809847236
vn 0.0819034725 -0.173349172 -0.981448948
vn -0.163478807 0.669067085 -0.724999189
vn -0.117878065 -0.030581113 -0.992557049
vn -0.522465765 0.611290276 -0.594435573
vn -0.317407161 -0.0155308219 -0.948162198
vn -0.829858482 0.375739396 -0.412498146
vn -0.47916624 0.00632499438 -0.877701342
vn -0.951338172 0.185904652 -0.245754108
vn -0.526393056 0.137634128 -0.839027524
vn -0.977217376 0.0197679214 -0.211318359
vn 0.293525577 0.955378473 -0.0330862701
vn 0.383579224 0.894441783 0.229871452
vn 0.687065661 0.679007828 0.258629382
vn 0.381327868 0.908032835 0.173393846
vn 0.73602289 0.658187807 0.158300847
vn 0.420284539 0.907027185 0.0257404838
vn 0.781733453 0.623207271 0.0224860758
vn 0.978792846 0.204707801 0.0076908418
vn 0.920861483 0.184474036 0.343487144
vn 0.954910398 0.166983724 0.245484427
vn 0.975810289 0.218542039 -0.00579092558
vn 0.89106065 -0.254287243 0.375964046
vn 0.243924499 -0.969189703 0.0342387781
vn 0.931892872 -0.257800967 0.255174875
vn 0.864376128 -0.181367755 -0.468998551
vn 0.787667334 -0.42352736 -0.447442442
vn 0.306618363 -0.944738626 -0.115991637
vn 0.3124246 -0.72561574 -0.613084495
vn 0.0952357352 -0.959566712 -0.264880806
vn 0.3124246 -0.72561574 -0.613084495
vn -0.282256365 -0.452821493 -0.845744669
vn -0.827327192 -0.398796946 -0.395589083
vn 0.38451153 -0.891485095 0.239593834
vn -0.88210988 -0.457214326 -0.113301523
vn -0.969277561 -0.213075101 -0.122881562
vn -0.972325981 -0.233628139 0.000258632062
vn -0.921217978 -0.100755192 0.375773609
vn -0.646950781 -0.711553812 -0.274127692
vn 0.0952357352 -0.959566712 -0.264880806
vn 0.306618363 -0.944738626 -0.115991637
vn 0.243924499 -0.969189703 0.0342387781
vn 0.165190503 -0.949972451 -0.265074402
vn -0.187932521 -0.945567548 -0.265675485
vn -0.00892945565 -0.999831796 -0.0160188191
vn 0.856720686 -0.500960767 0.122751601
vn 0.612255216 -0.78400594 0.102363326
vn -0.876761734 -0.463116378 0.12966153
vn -0.63924557 -0.755802989 0.14186947
vn 0.00313014677 0.0249126125 0.999684691
vn 0.00313014677 0.0249126125 0.999684691
vn 0.606235683 0.75935781 0.236334488
vn 0.00313014677 0.0249126125 0.999684691
vn 0.543146193 -0.169614106 0.822327912
vn -0.0916835889 -0.662743449 -0.743212819
vn 0.0922689959 -0.654302895 -0.750582516
vn -0.185359612 -0.739115417 -0.647572517
vn 0.249856755 -0.754637361 -0.606707513
vn -0.553182721 0.79598999 0.245741442
vn 0.00313014677 0.0249126125 0.999684691
vn -0.513528109 -0.106392056 0.851451457
vn -0.63924557 -0.755802989 0.14186947
vn -0.941820502 -0.197228372 -0.272167355
vn -0.733141541 -0.540169537 -0.413183063
vn -0.878174007 -0.118330628 -0.463474184
vn -0.778080046 -0.587546408 -0.222217739
vn -0.907338917 0.40660435 -0.106812455
vn -0.187092483 0.0210345145 0.982117116
vn -0.953899443 0.277461946 -0.1144142
vn -0.187092483 0.0210345145 0.982117116
vn -0.254318118 -0.962284029 0.0966009349
vn -0.187092483 0.0210345145 0.982117116
vn -0.509085536 -0.86066848 -0.00903498102
vn 0.789974988 -0.41405043 0.452218592
vn -0.187092483 0.0210345145 0.982117116
vn -0.0896411017 -0.451254249 0.887881815
vn -0.671993852 -0.11923489 -0.730894923
vn -0.621243596 -0.381480217 -0.684491992
vn -0.758048654 -0.393868089 -0.519836664
vn -0.811692655 -0.220424116 -0.54089582
vn 0.122306585 0.948058665 0.293642581
vn -0.187092483 0.0210345145 0.982117116
vn -0.658236027 0.232193142 0.71610868
vn -0.953899443 0.277461946 -0.1144142
vn 0.941622615 -0.194383949 -0.274885118
vn 0.735258698 -0.535464585 -0.415538579
vn 0.784192383 -0.576315403 -0.230006203
vn 0.875012398 -0.115054719 -0.470229417
vn 0.90992111 0.401599973 -0.103735916
vn 0.951878667 0.266948491 -0.150550574
vn 0.187641561 0.0172616914 0.982085824
vn 0.187641561 0.0172616914 0.982085824
vn 0.272261798 -0.958172679 0.0881975144
vn 0.187641561 0.0172616914 0.982085824
vn 0.510850668 -0.858661771 -0.0416111834
vn -0.787984371 -0.421768278 0.448544443
vn 0.187641561 0.0172616914 0.982085824
vn 0.642304659 -0.406451166 -0.649801731
vn 0.708253503 -0.135503769 -0.692831755
vn 0.787667334 -0.42352736 -0.447442442
vn 0.864376128 -0.181367755 -0.468998551
vn 0.187641561 0.0172616914 0.982085824
vn -0.108121999 0.95231545 0.285315543
vn 0.742041528 0.229297325 0.629918396
vn 0.951878667 0.266948491 -0.150550574
vn -0.787984371 -0.421768278 0.448544443
vn 0.247626409 -0.575422645 0.779467762
vn -0.553182721 0.79598999 0.245741442
vn 0.606235683 0.75935781 0.236334488
vn 0.00313014677 0.0249126125 0.999684691
vn 0.543146193 -0.169614106 0.822327912
vn -0.513528109 -0.106392056 0.851451457
vn -0.0334422067 0.999088883 -0.0265125427
vn -0.434749782 0.895460427 0.095619753
vn 0.00851117447 0.997909486 0.0640631989
vn -0.478159606 0.874819934 0.0778042972
vn -0.781155944 0.619576991 0.076939635
vn -0.830094278 0.546333253 0.11163976
vn -0.985403299 0.16958198 0.014912474
vn -0.988650799 0.145997062 0.0354188681
vn -0.868078887 0.327039003 0.373476297
vn -0.620443404 0.549037099 0.560007393
vn -0.199290454 0.942993402 0.266545922
vn -0.25029099 0.721114397 0.646025121
vn -0.251919538 0.328529418 0.910277307
vn -0.606359124 0.0502933487 0.793598831
vn -0.230609626 -0.138552323 0.963131666
vn -0.581118107 -0.374571741 0.722494006
vn -0.202403113 -0.536410272 0.819327235
vn -0.513528109 -0.106392056 0.851451457
vn -0.86547941 -0.0642480478 0.496807426
vn -0.658236027 0.232193142 0.71610868
vn -0.784187973 -0.34884879 0.513180077
vn -0.0896411017 -0.451254249 0.887881815
vn -0.0896411017 -0.451254249 0.887881815
vn -0.63924557 -0.755802989 0.14186947
vn -0.509085536 -0.86066848 -0.00903498102
vn 0.305915087 0.680759072 0.665569723
vn 0.288214296 0.929473162 0.230243742
vn 0.264301866 0.309435546 0.913451731
vn 0.214298904 -0.14916873 0.965310574
vn 0.667177022 0.00970372651 0.744835973
vn 0.678133309 0.375743061 0.631626844
vn 0.738333642 0.607900262 0.292097181
vn 0.929022551 0.218238711 0.298812687
vn 0.974414885 0.218355432 -0.0532605052
vn 0.911179185 -0.115144968 0.395593286
vn 0.742041528 0.229297325 0.629918396
vn 0.780415893 0.624825954 0.0233124979
vn 0.443816364 0.896054447 0.0106564108
vn 0.420284539 0.907027185 0.0257404838
vn -0.0334422067 0.999088883 -0.0265125427
vn 0.00851117447 0.997909486 0.0640631989
vn 0.288214296 0.929473162 0.230243742
vn 0.781733453 0.623207271 0.0224860758
vn 0.975810289 0.218542039 -0.00579092558
vn 0.618629336 -0.337912202 0.709304631
vn 0.677598298 -0.48675701 0.55129683
vn 0.247626409 -0.575422645 0.779467762
vn 0.21464777 -0.541465282 0.812860072
vn 0.543146193 -0.169614106 0.822327912
vn 0.612255216 -0.78400594 0.102363326
vn 0.510850668 -0.858661771 -0.0416111834
vn 0.543146193 -0.169614106 0.822327912
vn 0.389106542 -0.661259532 -0.6413517
vn 0.0922689959 -0.654302895 -0.750582516
vn 0.642304659 -0.406451166 -0.649801731
vn -0.282256365 -0.452821493 -0.845744669
vn 0.3124246 -0.72561574 -0.613084495
vn 0.249856755 -0.754637361 -0.606707513
vn 0.0343840756 -0.865066588 -0.500477195
vn 0.3124246 -0.72561574 -0.613084495
vn 0.787667334 -0.42352736 -0.447442442
vn -0.988650799 0.145997062 0.0354188681
vn -0.671993852 -0.11923489 -0.730894923
vn -0.811692655 -0.220424116 -0.54089582
vn -0.953899443 0.277461946 -0.1144142
vn 0.122306585 0.948058665 0.293642581
vn 0.789974988 -0.41405043 0.452218592
vn -0.187092483 0.0210345145 0.982117116
vn -0.0896411017 -0.451254249 0.887881815
vn -0.658236027 0.232193142 0.71610868
vn 0.288214296 0.929473162 0.230243742
vn 0.288214296 0.929473162 0.230243742
vn 0.951878667 0.266948491 -0.150550574
vn 0.742041528 0.229297325 0.629918396
vn 0.708253503 -0.135503769 -0.692831755
vn 0.975810289 0.218542039 -0.00579092558
vn 0.864376128 -0.181367755 -0.468998551
vn -0.477028936 -0.745490432 -0.465496987
vn -0.621243596 -0.381480217 -0.684491992
vn -0.0916835889 -0.662743449 -0.743212819
vn 0.0965295807 -0.638915598 -0.763196588
vn -0.489719212 -0.667011499 -0.56148982
vn -0.758048654 -0.393868089 -0.519836664
vn -0.185359612 -0.739115417 -0.647572517
vn 0.0129437596 -0.82626456 -0.563133478
vn -0.108121999 0.95231545 0.285315543
vn 0.247626409 -0.575422645 0.779467762
vn 0.742041528 0.229297325 0.629918396
vn -0.787984371 -0.421768278 0.448544443
vn 0.247626409 -0.575422645 0.779467762
vn 0.187641561 0.0172616914 0.982085824
vn 0.731836379 -0.681426883 -0.00853361748
vn 0.0633547008 -0.954612076 -0.29103598
vn 0.381482482 -0.805321097 0.453793913
vn -0.281429887 -0.940746486 -0.189191028
vn -0.128974855 -0.98677212 -0.0982159898
vn -0.449942082 -0.890414059 0.0686647967
vn -0.821144521 -0.489043772 -0.294207215
vn -0.48332262 -0.175801888 -0.857608914
vn -0.581352353 0.051837571 -0.811998904
vn -0.944203913 -0.218821898 -0.246162608
vn -0.542105436 0.174349353 -0.822024345
vn -0.526393056 0.137634128 -0.839027524
vn -0.183649853 -0.951974809 -0.244983107
vn -0.205862045 -0.269205242 -0.940823793
vn 0.0442589857 -0.917233765 -0.395883083
vn 0.102997698 0.14789471 -0.983625233
vn 0.477137238 -0.61399436 -0.628769457
vn 0.0953318775 -0.15490666 -0.983318806
vn -0.15942888 -0.975930333 -0.148803517
vn 0.0696493611 -0.74868083 0.659261584
vn 0.60031873 -0.782678843 0.16441153
vn -0.992756069 0.0181529541 0.11876782
vn -0.948416114 -0.317028254 -0.000155318165
vn -0.799279273 -0.559200048 -0.220108926
vn -0.861192107 -0.362753332 0.35603115
vn -0.721662045 -0.658573508 0.213271752
vn -0.942765236 -0.300590128 0.144358054
vn -0.330664039 -0.896753311 0.294099897
vn -0.0411221199 -0.999120414 0.00820204616
vn 0.811366141 -0.583417535 0.0361817256
vn 0.713574886 -0.670929849 0.201653495
vn -0.916913629 -0.0218826067 0.398485273
vn -0.974334419 0.043692138 0.220824555
vn -0.972035825 -0.230112076 0.046847418
vn -0.993869662 0.0642847121 0.0899474621
vn -0.816978574 0.394914031 0.420224756
vn -0.945800364 0.311276227 0.0925672129
vn -0.874555886 0.436017483 0.212227792
vn -0.899226308 0.428665221 0.0873966441
vn -0.840476334 0.46896854 0.271418273
vn -0.963487387 0.0678558275 0.259012759
vn -0.830094278 0.546333253 0.11163976
vn -0.988650799 0.145997062 0.0354188681
vn -0.817305028 0.569908082 -0.084954679
vn -0.476420999 0.850124359 -0.224302679
vn -0.134980232 0.941317797 -0.309356272
vn -0.53970772 0.827709734 0.153662369
vn -0.587972701 0.770089984 0.247486487
vn -0.434749782 0.895460427 0.095619753
vn -0.439629644 0.854817331 0.275704831
vn 0.0425258763 0.969254613 0.242356986
vn 0.00851117447 0.997909486 0.0640631989
vn -0.235679775 0.960737705 0.146417454
vn -0.538534522 0.801876783 0.25879389
vn 0.0585539639 0.987680197 0.14511846
vn 0.739148617 -0.670639157 -0.0624697283
vn 0.469955653 -0.88068819 -0.0594136454
vn -0.467919797 -0.847515106 -0.250537872
vn -0.15942888 -0.975930333 -0.148803517
vn -0.653610587 -0.739593327 -0.160608113
vn -0.952430546 0.249093935 -0.175580174
vn -0.467919797 -0.847515106 -0.250537872
vn -0.15942888 -0.975930333 -0.148803517
vn -0.952430546 0.249093935 -0.175580174
vn -0.773766756 -0.632630885 -0.0326079391
vn 0.258915663 -0.954702616 0.146647707
vn -0.75090754 -0.655168414 0.083020024
vn -0.945324779 -0.241796568 0.21885024
vn -0.811692655 -0.220424116 -0.54089582
vn -0.758048654 -0.393868089 -0.519836664
vn -0.617764533 -0.77852422 -0.110756129
vn 0.286385983 -0.946570814 -0.148279279
vn 0.317576349 -0.88161546 -0.349140882
vn 0.937110901 0.34903115 0.000663807266
vn 0.44357428 0.732408941 -0.516545117
vn 0.994577289 -0.0861712396 -0.0582279749
vn -0.0411221199 -0.999120414 0.00820204616
vn 0.0965295807 -0.638915598 -0.763196588
vn -0.489719212 -0.667011499 -0.56148982
vn 0.154015705 -0.936930239 -0.313753009
vn 0.192858115 -0.922246754 -0.335062236
vn 0.0129437596 -0.82626456 -0.563133478
vn 0.0965295807 -0.638915598 -0.763196588
vn 0.687801659 0.0446025878 0.724527001
vn 0.381915748 0.398465931 0.83388561
vn 0.862349451 0.385672897 0.328039259
vn 0.469426483 0.268163592 0.841265142
vn 0.469426483 0.268163592 0.841265142
vn 0.731836379 -0.681426883 -0.00853361748
vn 0.983784199 -0.0210572351 0.178116083
vn 0.154015705 -0.936930239 -0.313753009
vn 0.0952357352 -0.959566712 -0.264880806
vn 0.0343840756 -0.865066588 -0.500477195
vn -0.282256365 -0.452821493 -0.845744669
vn 0.0475429595 -0.48443082 0.873536706
vn -0.4128052 -0.907676756 0.0755952373
vn -0 -0.97250843 0.232867762
vn -0 -0.75705421 -0.653352141
vn -0.680419385 -0.399511188 -0.614345491
vn 0.0953564346 -0.536954165 0.838204801
vn -0.335135937 -0.941177726 0.0432246737
vn -0.520775855 -0.675065219 -0.522570074
vn -0.285082489 -0.772536874 -0.567375302
vn 0.41280517 -0.907676756 0.0755952299
vn 0.680419385 -0.399511188 -0.614345491
vn 0.0123976031 -0.696563244 0.717388332
vn 0.301366359 -0.945101976 0.126334667
vn 0.683166265 -0.548291147 -0.482349038
vn 0.500999331 -0.678903878 -0.536739409
vn -0.850445926 -0.524525762 -0.0401797891
vn 0.469426483 0.268163592 0.841265142
vn 0.569611251 0.267506093 0.777163804
vn 0.906449854 -0.408654034 0.106539235
vn 0.0696493611 -0.74868083 0.659261584
vn -0.476994276 0.0762931854 0.875588834
vn -0.15942888 -0.975930333 -0.148803517
vn -0.952430546 0.249093935 -0.175580174
vn -0.747604012 -0.387893885 0.539097965
vn -0.747604012 -0.387893885 0.539097965
vn -0.850445926 -0.524525762 -0.0401797891
vn 0.687801659 0.0446025878 0.724527001
vn 0.381915748 0.398465931 0.83388561
vn 0.862349451 0.385672897 0.328039259
vn 0.994577289 -0.0861712396 -0.0582279749
vn 0.906449854 -0.408654034 0.106539235
vn -0.921217978 -0.100755192 0.375773609
vn -0.866608024 0.0525922962 0.496210217
vn -0.972325981 -0.233628139 0.000258632062
vn -0.97720021 0.172845453 -0.123305388
vn -0.747604012 -0.387893885 0.539097965
vn -0.97720021 0.172845453 -0.123305388
vn -0.969277561 -0.213075101 -0.122881562
vn -0.0586783662 -0.463053077 -0.884386063
vn -0.88210988 -0.457214326 -0.113301523
vn -0.827327192 -0.398796946 -0.395589083
vn -0.197844058 -0.384978652 -0.901470542
vn 0.500999331 -0.678903878 -0.536739409
vn -0.074367553 -0.925635636 -0.37103647
vn -0.646950781 -0.711553812 -0.274127692
vn -0.0128632188 -0.891422272 -0.452991098
vn 0.0952357352 -0.959566712 -0.264880806
vn 0.937110901 0.34903115 0.000663807266
vn 0.994577289 -0.0861712396 -0.0582279749
vn 0.44357428 0.732408941 -0.516545117
vn 0.815591514 -0.51418221 -0.265381485
vn 0.906449854 -0.408654034 0.106539235
vn 0.983784199 -0.0210572351 0.178116083
vn 0.815591514 -0.51418221 -0.265381485
vn 0.27827704 -0.215866134 -0.935929298
vn 0.154015705 -0.936930239 -0.313753009
vn -0.285082489 -0.772536874 -0.567375302
vn 0.815591514 -0.51418221 -0.265381485
vn 0.815591514 -0.51418221 -0.265381485
vn 0.906449854 -0.408654034 0.106539235
vn 0.815591514 -0.51418221 -0.265381485
vn 0.815591514 -0.51418221 -0.265381485
vn -0.136216566 0.518963456 -0.843873143
vn 0.0953318775 -0.15490666 -0.983318806
vn 0.580283284 -0.228243187 -0.78177774
vn -0.009133677 0.72015059 -0.693757653
vn 0.686698198 -0.0232494958 -0.726570666
vn -0.0809939355 0.525633037 -0.846846998
vn 0.510775387 0.219195023 -0.831301451
vn -0.126730859 0.412550777 -0.902076006
vn -0.312179893 -0.287364155 -0.905519545
vn 0.436067909 0.0437510163 -0.898849547
vn 0.309411883 -0.0753421262 -0.9479388
vn 0.126078546 -0.0675461665 -0.98971796
vn -0.193874657 -0.701701343 -0.685585737
vn 0.309411883 -0.0753421262 -0.9479388
vn -0.0499740355 -0.103014886 -0.993423581
vn -0.00674236706 -0.785507262 -0.61881572
vn 0.0819034725 -0.173349172 -0.981448948
vn 0.162067279 -0.69018054 -0.70525527
vn -0.117878065 -0.030581113 -0.992557049
vn -0.317407161 -0.0155308219 -0.948162198
vn 0.336254656 -0.297514856 -0.89354229
vn -0.47916624 0.00632499438 -0.877701342
vn -0.526393056 0.137634128 -0.839027524
vn 0.234628335 0.192535922 -0.952827096
vn -0.542105436 0.174349353 -0.822024345
vn 0.098108314 0.417586744 -0.903324962
vn -0.581352353 0.051837571 -0.811998904
vn 0.0721286386 0.56840539 -0.819580793
vn -0.48332262 -0.175801888 -0.857608914
vn -0.205862045 -0.269205242 -0.940823793
vn -0.00350389001 0.739793539 -0.67282474
vn 0.102997698 0.14789471 -0.983625233
vn 0.00448854174 0.794755757 -0.606912792
vn -0.526393056 0.137634128 -0.839027524
vn 0.102997698 0.14789471 -0.983625233
vn 0.0953318775 -0.15490666 -0.983318806
vn 0.62658304 -0.770674229 -0.115995012
vn -0.421321034 -0.811938047 -0.404036045
vn 0.421321034 -0.811938047 -0.404036045
vn -0.62658304 -0.770674229 -0.115995012
vn -0.353057951 -0.9251104 -0.139716998
vn 0.353057921 -0.9251104 -0.139716983
vn 0.409358203 -0.911992192 0.0263850503
vn -0.409358203 -0.911992192 0.026385041
vn 0.295494616 -0.946292996 -0.131196231
vn -0.296489865 -0.946121991 -0.130180463
vn -0.748401642 -0.660299182 -0.062450178
vn -0.44653064 -0.883891284 -0.139092579
vn -0.804582775 -0.518732965 -0.289072096
vn -0.388292879 -0.834208071 -0.391568065
vn -0.83952117 -0.46642974 -0.278652936
vn -0.628053546 -0.776234448 -0.0548539385
vn -0.695613444 -0.709049404 -0.115633167
vn 0.27827704 -0.215866134 -0.935929298
vn -0.555281043 -0.831359029 -0.0224738736
vn 0.154015705 -0.936930239 -0.313753009
vn -0.480692357 -0.762778819 -0.432554364
vn 0.192858115 -0.922246754 -0.335062236
vn -0.509298921 -0.846768618 -0.153615355
vn -0.466013759 -0.747868657 -0.47278285
vn -0.855624914 0.0254777297 -0.516969025
vn -0.285082489 -0.772536874 -0.567375302
vn -0.723285079 -0.12974976 -0.678250551
vn -0.401867658 -0.272663862 -0.874160647
vn -0 -0.0554872826 -0.998459339
vn -0.680419385 -0.399511188 -0.614345491
vn -0 -0.75705421 -0.653352141
vn -0.520775855 -0.675065219 -0.522570074
vn 0.0129437596 -0.82626456 -0.563133478
vn -0.185359612 -0.739115417 -0.647572517
vn 0.249856755 -0.754637361 -0.606707513
vn 0.504089177 -0.848323882 -0.161990061
vn 0.466013789 -0.747868657 -0.47278285
vn 0.628053606 -0.776234388 -0.054853905
vn 0.512398303 -0.7369169 -0.440909892
vn 0.575853586 -0.817531347 0.0059360005
vn 0.714153349 -0.68927902 -0.121981055
vn 0.831866205 -0.478192121 -0.281657368
vn 0.748401642 -0.660299182 -0.062450178
vn 0.44653064 -0.883891284 -0.139092579
vn 0.388292938 -0.834208071 -0.391568035
vn 0.401867658 -0.272663862 -0.874160647
vn -0 -0.0554872826 -0.998459339
vn 0.804582775 -0.518732905 -0.289072067
vn -0.0586783662 -0.463053077 -0.884386063
vn -0.197844058 -0.384978652 -0.901470542
vn 0.723285079 -0.12974979 -0.678250551
vn 0.866759777 0.0167722087 -0.498443753
vn -0 -0.0554872826 -0.998459339
vn 0.680419385 -0.399511188 -0.614345491
vn -0 -0.75705421 -0.653352141
vn 0.683166265 -0.548291147 -0.482349038
vn 0.500999331 -0.678903878 -0.536739409
vn -0.074367553 -0.925635636 -0.37103647
vn -0.0128632188 -0.891422272 -0.452991098
vn 0.0952357352 -0.959566712 -0.264880806
vn 0.0343840756 -0.865066588 -0.500477195
vn 0.0343840756 -0.865066588 -0.500477195
vn -0.520775855 -0.675065219 -0.522570074
vn -0.285082489 -0.772536874 -0.567375302
g green_asn_f_pve_3_helm_0
f 3/3/3 2/2/2 1/1/1
f 5/5/5 4/4/4 1/1/1
f 4/4/4 5/5/5 6/6/6
f 7/7/7 4/4/4 6/6/6
f 6/6/6 8/8/8 7/7/7
f 8/8/8 9/9/9 7/7/7
f 9/9/9 8/8/8 10/10/10
f 11/11/11 10/10/10 8/8/8
f 12/12/12 8/8/8 6/6/6
f 13/13/13 8/8/8 12/12/12
f 14/14/14 13/13/13 12/12/12
f 14/14/14 12/12/12 15/15/15
f 14/14/14 15/15/15 16/16/16
f 16/16/16 15/15/15 17/17/17
f 15/15/15 18/18/18 17/17/17
f 18/18/18 15/15/15 12/12/12
f 18/18/18 19/19/19 17/17/17
f 19/19/19 18/18/18 20/20/20
f 21/21/21 19/19/19 20/20/20
f 21/21/21 22/22/22 19/19/19
f 22/22/22 21/21/21 23/23/23
f 22/22/22 24/24/24 19/19/19
f 24/24/24 25/25/25 19/19/19
f 25/25/25 17/17/17 19/19/19
f 24/24/24 26/26/26 25/25/25
f 27/27/27 17/17/17 25/25/25
f 27/27/27 16/16/16 17/17/17
f 28/28/28 27/27/27 25/25/25
f 28/28/28 25/25/25 29/29/29
f 25/25/25 26/26/26 29/29/29
f 27/27/27 28/28/28 30/30/30
f 28/28/28 31/31/31 30/30/30
f 31/31/31 28/28/28 32/32/32
f 33/33/33 31/31/31 32/32/32
f 30/30/30 31/31/31 34/34/34
f 31/31/31 35/35/35 34/34/34
f 31/31/31 36/36/36 35/35/35
f 36/36/36 37/37/37 35/35/35
f 30/30/30 38/38/38 27/27/27
f 38/38/38 16/16/16 27/27/27
f 39/39/39 16/16/16 38/38/38
f 40/40/40 39/39/39 38/38/38
f 39/39/39 14/14/14 16/16/16
f 38/38/38 30/30/30 41/41/41
f 30/30/30 34/34/34 41/41/41
f 40/40/40 38/38/38 41/41/41
f 41/41/41 34/34/34 42/42/42
f 34/34/34 35/35/35 42/42/42
f 43/43/43 35/35/35 37/37/37
f 42/42/42 35/35/35 43/43/43
f 44/44/44 43/43/43 37/37/37
f 44/44/44 45/45/45 43/43/43
f 45/45/45 46/46/46 43/43/43
f 42/42/42 43/43/43 46/46/46
f 46/46/46 47/47/47 42/42/42
f 47/47/47 41/41/41 42/42/42
f 47/47/47 40/40/40 41/41/41
f 45/45/45 44/44/44 48/48/48
f 44/44/44 49/49/49 48/48/48
f 44/44/44 50/50/50 49/49/49
f 49/49/49 50/50/50 51/51/51
f 50/50/50 52/52/52 51/51/51
f 51/51/51 52/52/52 53/53/53
f 52/52/52 54/54/54 53/53/53
f 53/53/53 54/54/54 55/55/55
f 54/54/54 56/56/56 55/55/55
f 55/55/55 56/56/56 57/57/57
f 56/56/56 58/58/58 57/57/57
f 57/57/57 58/58/58 59/59/59
f 46/46/46 45/45/45 60/60/60
f 45/45/45 48/48/48 60/60/60
f 46/46/46 60/60/60 47/47/47
f 60/60/60 61/61/61 47/47/47
f 47/47/47 61/61/61 40/40/40
f 61/61/61 62/62/62 40/40/40
f 61/61/61 63/63/63 62/62/62
f 63/63/63 64/64/64 62/62/62
f 63/63/63 65/65/65 64/64/64
f 65/65/65 66/66/66 64/64/64
f 40/40/40 62/62/62 67/67/67
f 40/40/40 67/67/67 39/39/39
f 39/39/39 67/67/67 14/14/14
f 67/67/67 13/13/13 14/14/14
f 62/62/62 68/68/68 67/67/67
f 62/62/62 64/64/64 68/68/68
f 67/67/67 68/68/68 13/13/13
f 64/64/64 66/66/66 69/69/69
f 64/64/64 69/69/69 68/68/68
f 66/66/66 70/70/70 69/69/69
f 68/68/68 71/71/71 13/13/13
f 68/68/68 69/69/69 71/71/71
f 8/8/8 13/13/13 71/71/71
f 11/11/11 8/8/8 71/71/71
f 11/11/11 71/71/71 72/72/72
f 71/71/71 73/73/73 72/72/72
f 69/69/69 73/73/73 71/71/71
f 70/70/70 74/74/74 69/69/69
f 74/74/74 73/73/73 69/69/69
f 74/74/74 75/75/75 73/73/73
f 72/72/72 73/73/73 76/76/76
f 73/73/73 75/75/75 76/76/76
f 75/75/75 77/77/77 76/76/76
f 76/76/76 79/79/79 78/78/78
f 80/80/80 78/78/78 77/77/77
f 82/82/82 72/72/72 81/81/81
f 83/83/83 82/82/82 81/81/81
f 10/10/10 82/82/82 83/83/83
f 84/84/84 10/10/10 83/83/83
f 9/9/9 10/10/10 84/84/84
f 85/85/85 9/9/9 84/84/84
f 7/7/7 9/9/9 85/85/85
f 86/86/86 7/7/7 85/85/85
f 4/4/4 7/7/7 86/86/86
f 1/1/1 4/4/4 86/86/86
f 81/81/81 72/72/72 87/87/87
f 87/87/87 89/89/89 88/88/88
f 90/90/90 76/76/76 87/87/87
f 93/93/93 92/92/92 91/91/91
f 93/93/93 91/91/91 94/94/94
f 91/91/91 95/95/95 94/94/94
f 93/93/93 96/96/96 92/92/92
f 96/96/96 97/97/97 92/92/92
f 96/96/96 93/93/93 98/98/98
f 94/94/94 99/99/99 93/93/93
f 100/100/100 94/94/94 95/95/95
f 94/94/94 100/100/100 101/101/101
f 102/102/102 100/100/100 95/95/95
f 97/97/97 103/103/103 92/92/92
f 91/91/91 92/92/92 103/103/103
f 95/95/95 91/91/91 104/104/104
f 104/104/104 91/91/91 103/103/103
f 104/104/104 103/103/103 105/105/105
f 106/106/106 104/104/104 105/105/105
f 96/96/96 108/108/108 107/107/107
f 109/109/109 97/97/97 107/107/107
f 110/110/110 96/96/96 107/107/107
f 113/113/113 112/112/112 111/111/111
f 112/112/112 114/114/114 111/111/111
f 113/113/113 111/111/111 115/115/115
f 116/116/116 115/115/115 111/111/111
f 117/117/117 113/113/113 115/115/115
f 111/111/111 114/114/114 118/118/118
f 119/119/119 114/114/114 112/112/112
f 120/120/120 114/114/114 119/119/119
f 121/121/121 119/119/119 112/112/112
f 122/122/122 119/119/119 121/121/121
f 123/123/123 119/119/119 122/122/122
f 124/124/124 122/122/122 121/121/121
f 117/117/117 125/125/125 113/113/113
f 112/112/112 113/113/113 126/126/126
f 113/113/113 125/125/125 126/126/126
f 112/112/112 126/126/126 121/121/121
f 126/126/126 125/125/125 127/127/127
f 125/125/125 128/128/128 127/127/127
f 130/130/130 129/129/129 115/115/115
f 131/131/131 117/117/117 129/129/129
f 132/132/132 115/115/115 129/129/129
f 135/135/135 134/134/134 133/133/133
f 134/134/134 136/136/136 133/133/133
f 133/133/133 136/136/136 137/137/137
f 136/136/136 138/138/138 137/137/137
f 137/137/137 139/139/139 133/133/133
f 135/135/135 133/133/133 140/140/140
f 134/134/134 135/135/135 141/141/141
f 142/142/142 141/141/141 135/135/135
f 143/143/143 134/134/134 141/141/141
f 143/143/143 141/141/141 144/144/144
f 145/145/145 144/144/144 141/141/141
f 143/143/143 146/146/146 134/134/134
f 136/136/136 134/134/134 146/146/146
f 147/147/147 136/136/136 146/146/146
f 138/138/138 136/136/136 147/147/147
f 147/147/147 146/146/146 148/148/148
f 149/149/149 147/147/147 148/148/148
f 137/137/137 151/151/151 150/150/150
f 152/152/152 151/151/151 138/138/138
f 151/151/151 137/137/137 153/153/153
f 155/155/155 143/143/143 154/154/154
f 158/158/158 157/157/157 156/156/156
f 156/156/156 157/157/157 159/159/159
f 160/160/160 156/156/156 159/159/159
f 163/163/163 162/162/162 161/161/161
f 162/162/162 164/164/164 161/161/161
f 165/165/165 164/164/164 162/162/162
f 166/166/166 165/165/165 162/162/162
f 167/167/167 165/165/165 166/166/166
f 168/168/168 167/167/167 166/166/166
f 165/165/165 167/167/167 169/169/169
f 169/169/169 170/170/170 165/165/165
f 170/170/170 164/164/164 165/165/165
f 171/171/171 164/164/164 170/170/170
f 161/161/161 164/164/164 171/171/171
f 172/172/172 171/171/171 170/170/170
f 173/173/173 172/172/172 170/170/170
f 174/174/174 173/173/173 170/170/170
f 174/174/174 170/170/170 169/169/169
f 175/175/175 173/173/173 174/174/174
f 174/174/174 176/176/176 175/175/175
f 176/176/176 177/177/177 175/175/175
f 178/178/178 177/177/177 176/176/176
f 179/179/179 174/174/174 169/169/169
f 179/179/179 169/169/169 167/167/167
f 176/176/176 174/174/174 179/179/179
f 180/180/180 179/179/179 167/167/167
f 181/181/181 176/176/176 179/179/179
f 176/176/176 181/181/181 178/178/178
f 179/179/179 180/180/180 181/181/181
f 181/181/181 180/180/180 182/182/182
f 178/178/178 181/181/181 183/183/183
f 184/184/184 178/178/178 183/183/183
f 185/185/185 184/184/184 183/183/183
f 172/172/172 186/186/186 171/171/171
f 186/186/186 172/172/172 173/173/173
f 186/186/186 187/187/187 171/171/171
f 188/188/188 186/186/186 173/173/173
f 188/188/188 173/173/173 175/175/175
f 189/189/189 188/188/188 175/175/175
f 189/189/189 175/175/175 177/177/177
f 188/188/188 189/189/189 190/190/190
f 190/190/190 191/191/191 188/188/188
f 191/191/191 186/186/186 188/188/188
f 191/191/191 192/192/192 186/186/186
f 192/192/192 191/191/191 193/193/193
f 193/193/193 191/191/191 190/190/190
f 192/192/192 193/193/193 194/194/194
f 194/194/194 193/193/193 195/195/195
f 195/195/195 193/193/193 190/190/190
f 196/196/196 194/194/194 195/195/195
f 197/197/197 192/192/192 194/194/194
f 197/197/197 198/198/198 192/192/192
f 199/199/199 198/198/198 197/197/197
f 200/200/200 198/198/198 199/199/199
f 201/201/201 200/200/200 199/199/199
f 198/198/198 200/200/200 202/202/202
f 198/198/198 202/202/202 192/192/192
f 203/203/203 199/199/199 197/197/197
f 203/203/203 197/197/197 204/204/204
f 197/197/197 194/194/194 204/204/204
f 205/205/205 190/190/190 189/189/189
f 195/195/195 190/190/190 205/205/205
f 196/196/196 195/195/195 206/206/206
f 206/206/206 195/195/195 205/205/205
f 207/207/207 196/196/196 206/206/206
f 206/206/206 205/205/205 208/208/208
f 208/208/208 205/205/205 189/189/189
f 208/208/208 189/189/189 177/177/177
f 208/208/208 177/177/177 209/209/209
f 209/209/209 210/210/210 207/207/207
f 210/210/210 211/211/211 207/207/207
f 177/177/177 178/178/178 209/209/209
f 212/212/212 206/206/206 208/208/208
f 207/207/207 206/206/206 212/212/212
f 211/211/211 210/210/210 213/213/213
f 214/214/214 213/213/213 210/210/210
f 215/215/215 211/211/211 213/213/213
f 214/214/214 216/216/216 213/213/213
f 213/213/213 216/216/216 217/217/217
f 215/215/215 213/213/213 217/217/217
f 216/216/216 214/214/214 218/218/218
f 219/219/219 216/216/216 218/218/218
f 221/221/221 215/215/215 220/220/220
f 224/224/224 223/223/223 222/222/222
f 168/168/168 223/223/223 225/225/225
f 167/167/167 168/168/168 225/225/225
f 180/180/180 167/167/167 225/225/225
f 228/228/228 227/227/227 226/226/226
f 227/227/227 229/229/229 226/226/226
f 229/229/229 230/230/230 226/226/226
f 231/231/231 161/161/161 171/171/171
f 192/192/192 232/232/232 186/186/186
f 234/234/234 233/233/233 194/194/194
f 204/204/204 194/194/194 233/233/233
f 235/235/235 204/204/204 233/233/233
f 237/237/237 236/236/236 235/235/235
f 184/184/184 185/185/185 238/238/238
f 239/239/239 238/238/238 185/185/185
f 184/184/184 238/238/238 240/240/240
f 238/238/238 241/241/241 240/240/240
f 238/238/238 239/239/239 242/242/242
f 238/238/238 242/242/242 241/241/241
f 239/239/239 243/243/243 242/242/242
f 244/244/244 240/240/240 241/241/241
f 245/245/245 244/244/244 241/241/241
f 248/248/248 247/247/247 246/246/246
f 250/250/250 249/249/249 246/246/246
f 249/249/249 251/251/251 246/246/246
f 254/254/254 253/253/253 252/252/252
f 253/253/253 254/254/254 255/255/255
f 254/254/254 256/256/256 255/255/255
f 255/255/255 257/257/257 253/253/253
f 255/255/255 258/258/258 257/257/257
f 259/259/259 257/257/257 258/258/258
f 260/260/260 259/259/259 258/258/258
f 260/260/260 258/258/258 261/261/261
f 262/262/262 260/260/260 261/261/261
f 262/262/262 261/261/261 59/59/59
f 263/263/263 262/262/262 59/59/59
f 257/257/257 264/264/264 253/253/253
f 257/257/257 259/259/259 264/264/264
f 265/265/265 264/264/264 259/259/259
f 265/265/265 266/266/266 264/264/264
f 267/267/267 266/266/266 265/265/265
f 267/267/267 268/268/268 266/266/266
f 267/267/267 269/269/269 268/268/268
f 268/268/268 270/270/270 266/266/266
f 271/271/271 266/266/266 270/270/270
f 271/271/271 272/272/272 266/266/266
f 272/272/272 264/264/264 266/266/266
f 253/253/253 264/264/264 272/272/272
f 273/273/273 59/59/59 261/261/261
f 274/274/274 273/273/273 261/261/261
f 274/274/274 261/261/261 258/258/258
f 275/275/275 274/274/274 258/258/258
f 275/275/275 258/258/258 255/255/255
f 256/256/256 275/275/275 255/255/255
f 274/274/274 275/275/275 276/276/276
f 275/275/275 277/277/277 276/276/276
f 276/276/276 277/277/277 278/278/278
f 277/277/277 279/279/279 278/278/278
f 280/280/280 279/279/279 277/277/277
f 256/256/256 280/280/280 275/275/275
f 280/280/280 277/277/277 275/275/275
f 281/281/281 279/279/279 280/280/280
f 281/281/281 282/282/282 279/279/279
f 276/276/276 283/283/283 274/274/274
f 283/283/283 273/273/273 274/274/274
f 276/276/276 278/278/278 283/283/283
f 278/278/278 284/284/284 283/283/283
f 278/278/278 285/285/285 284/284/284
f 285/285/285 286/286/286 284/284/284
f 283/283/283 284/284/284 287/287/287
f 283/283/283 287/287/287 273/273/273
f 287/287/287 288/288/288 273/273/273
f 273/273/273 288/288/288 59/59/59
f 288/288/288 57/57/57 59/59/59
f 284/284/284 289/289/289 287/287/287
f 284/284/284 286/286/286 289/289/289
f 286/286/286 290/290/290 289/289/289
f 291/291/291 290/290/290 286/286/286
f 292/292/292 291/291/291 286/286/286
f 293/293/293 291/291/291 292/292/292
f 294/294/294 293/293/293 292/292/292
f 57/57/57 288/288/288 55/55/55
f 288/288/288 295/295/295 55/55/55
f 288/288/288 287/287/287 295/295/295
f 53/53/53 55/55/55 295/295/295
f 296/296/296 53/53/53 295/295/295
f 51/51/51 53/53/53 296/296/296
f 297/297/297 51/51/51 296/296/296
f 49/49/49 51/51/51 297/297/297
f 48/48/48 49/49/49 297/297/297
f 290/290/290 298/298/298 289/289/289
f 298/298/298 299/299/299 289/289/289
f 293/293/293 300/300/300 291/291/291
f 300/300/300 301/301/301 291/291/291
f 302/302/302 301/301/301 300/300/300
f 301/301/301 302/302/302 298/298/298
f 303/303/303 302/302/302 300/300/300
f 63/63/63 302/302/302 303/303/303
f 65/65/65 63/63/63 303/303/303
f 301/301/301 298/298/298 290/290/290
f 291/291/291 301/301/301 290/290/290
f 297/297/297 304/304/304 48/48/48
f 299/299/299 298/298/298 304/304/304
f 297/297/297 296/296/296 304/304/304
f 299/299/299 304/304/304 305/305/305
f 299/299/299 305/305/305 287/287/287
f 287/287/287 305/305/305 295/295/295
f 296/296/296 295/295/295 305/305/305
f 296/296/296 305/305/305 304/304/304
f 289/289/289 299/299/299 287/287/287
f 63/63/63 61/61/61 302/302/302
f 61/61/61 306/306/306 302/302/302
f 61/61/61 60/60/60 306/306/306
f 304/304/304 306/306/306 48/48/48
f 48/48/48 306/306/306 60/60/60
f 302/302/302 306/306/306 298/298/298
f 298/298/298 306/306/306 304/304/304
f 307/307/307 18/18/18 12/12/12
f 18/18/18 307/307/307 308/308/308
f 307/307/307 309/309/309 308/308/308
f 6/6/6 309/309/309 307/307/307
f 307/307/307 12/12/12 6/6/6
f 18/18/18 308/308/308 20/20/20
f 20/20/20 308/308/308 310/310/310
f 21/21/21 20/20/20 310/310/310
f 310/310/310 308/308/308 311/311/311
f 311/311/311 308/308/308 5/5/5
f 312/312/312 311/311/311 3/3/3
f 311/311/311 313/313/313 3/3/3
f 311/311/311 315/315/315 314/314/314
f 285/285/285 278/278/278 316/316/316
f 278/278/278 279/279/279 316/316/316
f 317/317/317 316/316/316 279/279/279
f 282/282/282 317/317/317 279/279/279
f 285/285/285 316/316/316 318/318/318
f 319/319/319 285/285/285 318/318/318
f 286/286/286 285/285/285 319/319/319
f 292/292/292 286/286/286 319/319/319
f 292/292/292 319/319/319 294/294/294
f 319/319/319 320/320/320 294/294/294
f 319/319/319 318/318/318 320/320/320
f 318/318/318 321/321/321 320/320/320
f 318/318/318 322/322/322 321/321/321
f 318/318/318 323/323/323 322/322/322
f 317/317/317 323/323/323 316/316/316
f 323/323/323 318/318/318 316/316/316
f 323/323/323 324/324/324 322/322/322
f 317/317/317 282/282/282 325/325/325
f 325/325/325 282/282/282 326/326/326
f 282/282/282 281/281/281 326/326/326
f 326/326/326 281/281/281 327/327/327
f 281/281/281 328/328/328 327/327/327
f 322/322/322 324/324/324 329/329/329
f 330/330/330 322/322/322 329/329/329
f 330/330/330 321/321/321 322/322/322
f 323/323/323 331/331/331 324/324/324
f 331/331/331 332/332/332 324/324/324
f 332/332/332 333/333/333 324/324/324
f 333/333/333 334/334/334 324/324/324
f 327/327/327 280/280/280 335/335/335
f 280/280/280 256/256/256 335/335/335
f 335/335/335 256/256/256 336/336/336
f 256/256/256 254/254/254 336/336/336
f 336/336/336 254/254/254 337/337/337
f 254/254/254 252/252/252 337/337/337
f 272/272/272 252/252/252 253/253/253
f 271/271/271 338/338/338 272/272/272
f 337/337/337 340/340/340 339/339/339
f 340/340/340 272/272/272 339/339/339
f 341/341/341 317/317/317 325/325/325
f 323/323/323 317/317/317 341/341/341
f 342/342/342 323/323/323 341/341/341
f 345/345/345 344/344/344 343/343/343
f 348/348/348 347/347/347 346/346/346
f 348/348/348 349/349/349 347/347/347
f 349/349/349 350/350/350 347/347/347
f 351/351/351 346/346/346 347/347/347
f 352/352/352 351/351/351 347/347/347
f 347/347/347 350/350/350 352/352/352
f 350/350/350 353/353/353 352/352/352
f 354/354/354 352/352/352 353/353/353
f 348/348/348 346/346/346 355/355/355
f 349/349/349 348/348/348 355/355/355
f 356/356/356 349/349/349 355/355/355
f 346/346/346 357/357/357 355/355/355
f 357/357/357 358/358/358 355/355/355
f 356/356/356 355/355/355 358/358/358
f 359/359/359 356/356/356 358/358/358
f 358/358/358 360/360/360 359/359/359
f 358/358/358 357/357/357 361/361/361
f 361/361/361 360/360/360 358/358/358
f 346/346/346 351/351/351 362/362/362
f 351/351/351 363/363/363 362/362/362
f 363/363/363 351/351/351 364/364/364
f 365/365/365 346/346/346 362/362/362
f 366/366/366 346/346/346 365/365/365
f 357/357/357 346/346/346 366/366/366
f 366/366/366 365/365/365 367/367/367
f 368/368/368 366/366/366 367/367/367
f 369/369/369 366/366/366 368/368/368
f 370/370/370 357/357/357 366/366/366
f 370/370/370 371/371/371 357/357/357
f 362/362/362 363/363/363 372/372/372
f 373/373/373 362/362/362 372/372/372
f 373/373/373 374/374/374 362/362/362
f 372/372/372 363/363/363 375/375/375
f 375/375/375 363/363/363 376/376/376
f 378/378/378 377/377/377 369/369/369
f 369/369/369 377/377/377 379/379/379
f 380/380/380 378/378/378 369/369/369
f 382/382/382 381/381/381 368/368/368
f 361/361/361 381/381/381 379/379/379
f 379/379/379 383/383/383 361/361/361
f 384/384/384 361/361/361 383/383/383
f 385/385/385 384/384/384 383/383/383
f 385/385/385 386/386/386 384/384/384
f 386/386/386 387/387/387 384/384/384
f 361/361/361 384/384/384 388/388/388
f 386/386/386 389/389/389 387/387/387
f 386/386/386 390/390/390 389/389/389
f 390/390/390 391/391/391 389/389/389
f 390/390/390 392/392/392 391/391/391
f 395/395/395 394/394/394 393/393/393
f 396/396/396 393/393/393 375/375/375
f 397/397/397 396/396/396 375/375/375
f 393/393/393 399/399/399 398/398/398
f 399/399/399 400/400/400 398/398/398
f 398/398/398 400/400/400 401/401/401
f 400/400/400 403/403/403 402/402/402
f 352/352/352 404/404/404 351/351/351
f 406/406/406 405/405/405 351/351/351
f 352/352/352 354/354/354 407/407/407
f 410/410/410 409/409/409 408/408/408
f 409/409/409 411/411/411 408/408/408
f 410/410/410 408/408/408 412/412/412
f 408/408/408 413/413/413 412/412/412
f 412/412/412 413/413/413 414/414/414
f 413/413/413 415/415/415 414/414/414
f 415/415/415 416/416/416 414/414/414
f 416/416/416 417/417/417 414/414/414
f 418/418/418 417/417/417 416/416/416
f 420/420/420 419/419/419 416/416/416
f 419/419/419 421/421/421 416/416/416
f 419/419/419 420/420/420 422/422/422
f 420/420/420 423/423/423 422/422/422
f 423/423/423 424/424/424 422/422/422
f 424/424/424 423/423/423 425/425/425
f 426/426/426 424/424/424 425/425/425
f 427/427/427 426/426/426 425/425/425
f 427/427/427 425/425/425 428/428/428
f 429/429/429 427/427/427 428/428/428
f 429/429/429 428/428/428 430/430/430
f 428/428/428 431/431/431 430/430/430
f 433/433/433 432/432/432 431/431/431
f 434/434/434 432/432/432 433/433/433
f 435/435/435 434/434/434 433/433/433
f 434/434/434 435/435/435 436/436/436
f 437/437/437 436/436/436 435/435/435
f 438/438/438 437/437/437 435/435/435
f 439/439/439 437/437/437 438/438/438
f 440/440/440 439/439/439 438/438/438
f 440/440/440 411/411/411 439/439/439
f 432/432/432 441/441/441 431/431/431
f 411/411/411 443/443/443 442/442/442
f 446/446/446 445/445/445 444/444/444
f 445/445/445 447/447/447 444/444/444
f 444/444/444 447/447/447 448/448/448
f 449/449/449 444/444/444 448/448/448
f 446/446/446 450/450/450 445/445/445
f 446/446/446 444/444/444 450/450/450
f 450/450/450 451/451/451 445/445/445
f 447/447/447 445/445/445 451/451/451
f 450/450/450 452/452/452 451/451/451
f 452/452/452 453/453/453 451/451/451
f 448/448/448 447/447/447 454/454/454
f 455/455/455 448/448/448 454/454/454
f 456/456/456 455/455/455 454/454/454
f 457/457/457 455/455/455 456/456/456
f 456/456/456 454/454/454 458/458/458
f 447/447/447 458/458/458 454/454/454
f 459/459/459 447/447/447 451/451/451
f 458/458/458 447/447/447 460/460/460
f 447/447/447 459/459/459 460/460/460
f 460/460/460 461/461/461 458/458/458
f 460/460/460 462/462/462 461/461/461
f 459/459/459 462/462/462 460/460/460
f 462/462/462 463/463/463 461/461/461
f 462/462/462 464/464/464 463/463/463
f 464/464/464 462/462/462 459/459/459
f 464/464/464 465/465/465 463/463/463
f 466/466/466 465/465/465 464/464/464
f 453/453/453 467/467/467 451/451/451
f 453/453/453 466/466/466 467/467/467
f 466/466/466 464/464/464 467/467/467
f 467/467/467 464/464/464 459/459/459
f 467/467/467 459/459/459 451/451/451
f 458/458/458 461/461/461 468/468/468
f 461/461/461 469/469/469 468/468/468
f 456/456/456 458/458/458 470/470/470
f 458/458/458 468/468/468 470/470/470
f 470/470/470 471/471/471 456/456/456
f 470/470/470 472/472/472 471/471/471
f 470/470/470 473/473/473 472/472/472
f 473/473/473 470/470/470 468/468/468
f 473/473/473 474/474/474 472/472/472
f 475/475/475 473/473/473 468/468/468
f 476/476/476 465/465/465 466/466/466
f 477/477/477 476/476/476 466/466/466
f 453/453/453 477/477/477 466/466/466
f 477/477/477 453/453/453 452/452/452
f 478/478/478 477/477/477 452/452/452
f 479/479/479 478/478/478 452/452/452
f 479/479/479 452/452/452 480/480/480
f 480/480/480 452/452/452 450/450/450
f 481/481/481 480/480/480 450/450/450
f 444/444/444 481/481/481 450/450/450
f 482/482/482 479/479/479 480/480/480
f 482/482/482 480/480/480 481/481/481
f 483/483/483 482/482/482 481/481/481
f 483/483/483 481/481/481 484/484/484
f 481/481/481 444/444/444 484/484/484
f 444/444/444 485/485/485 484/484/484
f 485/485/485 444/444/444 486/486/486
f 444/444/444 449/449/449 486/486/486
f 449/449/449 487/487/487 486/486/486
f 449/449/449 448/448/448 487/487/487
f 448/448/448 455/455/455 487/487/487
f 455/455/455 457/457/457 487/487/487
f 457/457/457 488/488/488 487/487/487
f 488/488/488 457/457/457 489/489/489
f 457/457/457 471/471/471 489/489/489
f 489/489/489 471/471/471 490/490/490
f 471/471/471 457/457/457 456/456/456
f 487/487/487 488/488/488 491/491/491
f 487/487/487 491/491/491 486/486/486
f 486/486/486 491/491/491 485/485/485
f 488/488/488 489/489/489 491/491/491
f 484/484/484 485/485/485 492/492/492
f 493/493/493 484/484/484 492/492/492
f 485/485/485 491/491/491 494/494/494
f 489/489/489 494/494/494 491/491/491
f 495/495/495 485/485/485 494/494/494
f 496/496/496 494/494/494 489/489/489
f 497/497/497 494/494/494 496/496/496
f 494/494/494 497/497/497 495/495/495
f 498/498/498 497/497/497 496/496/496
f 497/497/497 499/499/499 495/495/495
f 499/499/499 500/500/500 495/495/495
f 500/500/500 492/492/492 495/495/495
f 485/485/485 495/495/495 492/492/492
f 484/484/484 493/493/493 501/501/501
f 483/483/483 484/484/484 501/501/501
f 483/483/483 501/501/501 482/482/482
f 501/501/501 502/502/502 482/482/482
f 502/502/502 503/503/503 482/482/482
f 503/503/503 479/479/479 482/482/482
f 479/479/479 503/503/503 504/504/504
f 478/478/478 479/479/479 505/505/505
f 468/468/468 507/507/507 506/506/506
