g green_mag_pve_f_4_pelvis
v -0.197173417 0.00592933176 1.15893352
v -0.210677579 -0.0331857763 1.10383165
v -0.2291563 -0.00583621953 1.06586015
v -0.187171221 -0.0215448234 1.16161942
v -0.185212374 -0.104183711 1.07866549
v -0.136760145 -0.0797943398 1.23164904
v -0.204244107 -0.0327637866 1.09765124
v -0.174721941 -0.0850575641 1.07574725
v -0.188087523 -0.0900895745 1.0018692
v -0.233696967 -0.0350744724 0.993456006
v -0.218274727 -0.0272633266 0.979587615
v -0.177038893 -0.070567064 0.985919714
v -0.212663651 0.0851540267 0.927902579
v -0.2226872 0.0892368034 0.935560584
v -0.214390695 -0.00122095109 1.06136167
v -0.218283802 0.0238248389 1.07583654
v -0.197489426 0.0552719571 1.09140337
v -0.207928687 0.0214193631 1.06963861
v -0.210084409 0.0786828473 1.02197349
v -0.207231283 0.0694984272 1.01652586
v -0.219867736 0.113179073 0.929069579
v -0.197123557 0.0971025601 1.03580093
v -0.193707675 0.11230886 0.982472658
v -0.238066062 0.0893746912 0.834102452
v -0.23510088 0.112945981 0.839171708
v -0.237876311 -0.0337281711 0.904912531
v -0.191395909 -0.0739073902 0.909792066
v -0.182784036 -0.0525068939 0.892864466
v -0.223995268 -0.0187162291 0.889143825
v -0.227723897 0.0785875097 0.82994312
v -0.244500816 -0.0218166821 0.792698324
v -0.243932903 0.0686220378 0.726074636
v -0.201888263 -0.066311866 0.806978464
v -0.196858704 -0.0499867052 0.79484874
v -0.232033402 -0.0154628223 0.784526944
v -0.228253588 0.0619967766 0.72066313
v -0.199460596 -0.0386631377 0.721999884
v -0.226759672 0.00108713622 0.721537292
v -0.192241594 -0.00197836384 0.645684779
v -0.21880573 0.0315723754 0.672012687
v -0.231104791 0.0287310332 0.662067115
v -0.228879139 0.0401635543 0.651172459
v -0.243515894 0.0941291004 0.739938498
v -0.19549495 -0.00854087807 0.635626435
v -0.228879139 0.0401635543 0.651172459
v -0.145293668 -0.0557285398 0.773947001
v -0.13160105 -0.0456239767 0.862842143
v -0.0726156607 0.00982811395 0.811340213
v -0.0632836968 0.00546479225 0.817972898
v -0.123382896 -0.0568950064 0.87525028
v -0.061372757 0.0117654894 0.915936708
v -0.116248757 -0.0538574196 0.960301578
v -0.111914001 -0.0710908771 0.973999381
v -0.113197461 -0.0807999298 1.09014821
v -0.174721941 -0.0850575641 1.07574725
v -0.109225988 -0.0866874084 1.09526479
v -0.0865660012 -0.0713753998 1.05493438
v -0.0609563775 -0.057863377 1.15009785
v -0.0920663625 -0.0768389478 1.16157889
v -0.136760145 -0.0797943398 1.23164904
v -0.092042394 -0.0620897487 1.05218112
v -0.0638509616 -0.044866465 1.06101692
v -0.0722109377 -0.0400678329 1.05917358
v -0.0442072935 0.000230388643 1.00015414
v -0.0523406193 -0.000255575171 0.99853009
v -0.0521884486 0.00785108097 0.91940695
v -0.0359140225 0.0173390582 0.899385333
v -0.0475694165 0.0166232251 0.809770465
v -0.0760120973 0.00340458867 0.717976809
v -0.097215727 -0.00577614782 0.715080261
v -0.10791339 0.0045168302 0.712615311
v -0.149054691 -0.0441154763 0.763755322
v -0.150849715 -0.0312510096 0.71540457
v -0.143928617 -0.012110414 0.661386251
v -0.131761655 -0.0121616358 0.640295386
v -0.14280121 -0.0207973626 0.649997532
v -0.14280121 -0.0207973626 0.649997532
v -0.10791339 0.0045168302 0.712615311
v -0.174721941 -0.0850575641 1.07574725
v -0.185212374 -0.104183711 1.07866549
v -0.2291563 -0.00583621953 1.06586015
v -0.214390695 -0.00122095109 1.06136167
v -0.243515894 0.0941291004 0.739938498
v -0.220272437 0.113221489 0.830848932
v -0.23510088 0.112945981 0.839171708
v -0.184229389 0.144787297 0.837722063
v -0.203325853 0.136803508 0.752087831
v -0.159542531 0.154588789 0.733879864
v -0.140797675 0.162012741 0.825030863
v -0.193215534 0.120282225 0.74156338
v -0.226678103 0.0951531082 0.729514897
v -0.160155118 0.132242292 0.723258317
v -0.102324314 0.15893802 0.774775684
v -0.120266199 0.15291898 0.697835267
v -0.127798587 0.132596031 0.689742088
v -0.17050375 0.0997580066 0.667589009
v -0.20135209 0.0806459486 0.666571856
v -0.220221937 0.0525203869 0.664772093
v -0.228879139 0.0401635543 0.651172459
v -0.228879139 0.0401635543 0.651172459
v -0.140337899 0.176148102 0.840075254
v -0.0931898654 0.175744772 0.795313001
v -0.189183846 0.153248012 0.848926127
v -0.118150622 0.180768788 0.914622009
v -0.0799129829 0.179198131 0.865555406
v -0.166629404 0.151474267 0.92854017
v -0.206055984 0.114343129 0.919095993
v -0.11600852 0.192304984 0.923759222
v -0.0710615218 0.193172112 0.881171525
v -0.172236606 0.160731122 0.935854614
v -0.219867736 0.113179073 0.929069579
v -0.102772422 0.170818955 0.997678876
v -0.0569810197 0.170967951 0.991615057
v -0.148866892 0.148357034 0.999223828
v -0.193707675 0.11230886 0.982472658
v -0.017792115 0.143560991 0.913984299
v -0.0302200448 0.136478677 0.907363117
v -0.0409572013 0.129871249 0.829561293
v -0.0486048609 0.118382782 0.821166337
v -0.0637790859 0.111868538 0.73317641
v -0.0444799177 0.0420702919 0.809435546
v -0.0511393994 0.0520119816 0.729120612
v -0.0760120973 0.00340458867 0.717976809
v -0.0559416898 0.0299869981 0.806550145
v -0.0475694165 0.0166232251 0.809770465
v -0.0634740815 0.0440146439 0.720460057
v -0.0795736685 0.0164142456 0.705950618
v -0.0769555867 0.10079623 0.724710345
v -0.0334487706 0.0409396365 0.817721486
v -0.0209696814 0.0490271971 0.899026573
v -0.037213672 0.0268116165 0.892629981
v -0.0103775775 0.0488502122 0.9042629
v -0.0359140225 0.0173390582 0.899385333
v -0.00424909033 0.0524927899 0.964593589
v -0.011058161 0.13780348 0.978510857
v -0.0343896709 0.0224484541 0.953281164
v -0.0490063466 0.158882767 0.993312716
v -0.115985841 0.161798239 1.00032377
v -0.107932813 0.167950854 1.00879824
v -0.0499051549 0.171535656 1.00881946
v -0.146608204 0.135187134 1.00222278
v -0.161557078 0.138032585 1.02084482
v -0.185308218 0.101448648 1.00701964
v -0.176634818 0.105083197 0.988994479
v -0.0190911163 0.138469726 0.987578154
v -0.00884092227 0.0835886151 0.976675212
v -8.14080049E-05 0.133082613 0.99813205
v -8.14080049E-05 0.0845391378 0.981019795
v -0.0219293628 0.0506065153 0.984574616
v -0.0435247682 0.0342849009 0.990832806
v -0.0219293628 0.0506065153 0.984574616
v -8.14080049E-05 0.0479784682 0.982425392
v -0.170258328 0.121243648 1.04756546
v -0.150862023 0.147344857 1.03036869
v -0.159776956 0.134615555 1.05374694
v -0.163018629 0.125693887 1.0747627
v -0.172046214 0.109675959 1.07274103
v -0.189277738 0.0908562839 1.03705752
v -0.188156158 0.0736803561 1.06879067
v -0.167965308 0.0939882323 1.10164154
v -0.185371667 0.0520375334 1.0931592
v -0.16223377 0.0789004862 1.13120973
v -0.16828391 0.0267197452 1.12107217
v -0.138558418 0.0411007106 1.16880631
v -0.159266025 0.114028506 1.1035434
v -0.141833767 0.0979613662 1.14009547
v -0.119663969 0.0721770972 1.17540824
v -0.153306544 0.156546697 1.03348994
v -0.113352232 0.183548987 1.00621116
v -0.0487654582 0.204427481 0.978866875
v -0.0428545475 0.203829765 1.02298641
v -8.14080049E-05 0.20558174 0.999680459
v -0.0929172486 0.189925402 1.04049587
v -0.0528036244 0.193971843 0.978340566
v -8.14080049E-05 0.200565845 0.933283985
v -8.14080049E-05 0.208871201 0.935539603
v -0.166047901 0.123179264 1.10683894
v -0.170310125 0.135210499 1.07555962
v -0.137754798 0.143984303 1.11917794
v -0.151994601 0.107350506 1.14414597
v -0.125203833 0.127668396 1.15252018
v -0.10203097 0.101054564 1.18148744
v -0.140539303 0.156093925 1.09192896
v -0.165828362 0.144663557 1.05496883
v -0.134888709 0.167589292 1.06822503
v -0.120071284 0.179962039 1.04880226
v -0.0956538171 0.180803582 1.06567097
v -0.0445835292 0.198216453 1.05430782
v -0.0463532992 0.189219236 1.08779454
v -8.14080049E-05 0.189248845 1.07542872
v -8.14080049E-05 0.180387035 1.10697925
v -0.0470299982 0.176928625 1.12294543
v -8.14080049E-05 0.16705063 1.14221847
v -0.047103174 0.161861226 1.15145051
v -0.0960054472 0.161791056 1.12849474
v -0.0892391205 0.145280778 1.15638947
v -0.0448321886 0.130992085 1.17186224
v -8.14080049E-05 0.138850689 1.16789556
v -0.0712538436 0.117163122 1.17635882
v -0.0980549678 0.173181474 1.09751856
v -8.14080049E-05 0.199461877 1.03760731
v -0.174721941 -0.0850575641 1.07574725
v -0.185212374 -0.104183711 1.07866549
v -8.14080049E-05 0.155870259 1.02011406
v -8.14080049E-05 0.133082613 0.99813205
v -8.14080049E-05 0.155870259 1.02011406
v 0.0189283006 0.138469726 0.987578154
v 0.00867810752 0.0835886151 0.976675212
v -8.14080049E-05 0.0845391378 0.981019795
v 0.00408627419 0.0524927899 0.964593589
v 0.0108953454 0.13780348 0.978510857
v 0.0176292993 0.143560991 0.913984299
v 0.0708987042 0.193172112 0.881171525
v 0.0797501728 0.179198131 0.865555406
v 0.115845688 0.192304984 0.923759222
v 0.117987812 0.180768788 0.914622009
v 0.0930270553 0.175744772 0.795313001
v 0.140175089 0.176148102 0.840075254
v 0.102161497 0.15893802 0.774775684
v 0.14063485 0.162012741 0.825030863
v 0.159379721 0.154588789 0.733879864
v 0.184066564 0.144787297 0.837722063
v 0.203163043 0.136803508 0.752087831
v 0.243353069 0.0941291004 0.739938498
v 0.220109627 0.113221489 0.830848932
v 0.23493807 0.112945981 0.839171708
v 0.193052724 0.120282225 0.74156338
v 0.226515293 0.0951531082 0.729514897
v 0.159992307 0.132242292 0.723258317
v 0.120103382 0.15291898 0.697835267
v 0.127635777 0.132596031 0.689742088
v 0.170340911 0.0997580066 0.667589009
v 0.20118928 0.0806459486 0.666571856
v 0.220059127 0.0525203869 0.664772093
v 0.228716329 0.0401635543 0.651172459
v 0.228716329 0.0401635543 0.651172459
v 0.189021036 0.153248012 0.848926127
v 0.166466594 0.151474267 0.92854017
v 0.205893129 0.114343129 0.919095993
v 0.172073781 0.160731122 0.935854614
v 0.219704911 0.113179073 0.929069579
v 0.148704082 0.148357034 0.999223828
v 0.102609612 0.170818955 0.997678876
v 0.0568182059 0.170967951 0.991615057
v 0.193544865 0.11230886 0.982472658
v 0.176472008 0.105083197 0.988994479
v 0.146445394 0.135187134 1.00222278
v 0.185145408 0.101448648 1.00701964
v 0.161394268 0.138032585 1.02084482
v 0.107770003 0.167950854 1.00879824
v 0.11582303 0.161798239 1.00032377
v 0.0488435254 0.158882767 0.993312716
v 0.0497423448 0.171535656 1.00881946
v 0.170095503 0.121243648 1.04756546
v 0.189114928 0.0908562839 1.03705752
v 0.171883404 0.109675959 1.07274103
v 0.187993348 0.0736803561 1.06879067
v 0.167802498 0.0939882323 1.10164154
v 0.185208857 0.0520375334 1.0931592
v 0.16207096 0.0789004862 1.13120973
v 0.168121099 0.0267197452 1.12107217
v 0.138395607 0.0411007106 1.16880631
v 0.150699198 0.147344857 1.03036869
v 0.159614131 0.134615555 1.05374694
v 0.162855819 0.125693887 1.0747627
v 0.159103215 0.114028506 1.1035434
v 0.141670942 0.0979613662 1.14009547
v 0.119501159 0.0721770972 1.17540824
v 0.153143734 0.156546697 1.03348994
v 0.113189422 0.183548987 1.00621116
v 0.0486026369 0.204427481 0.978866875
v 0.04269173 0.203829765 1.02298641
v -8.14080049E-05 0.20558174 0.999680459
v 0.0927544385 0.189925402 1.04049587
v 0.0526408143 0.193971843 0.978340566
v -8.14080049E-05 0.200565845 0.933283985
v -8.14080049E-05 0.208871201 0.935539603
v 0.165885076 0.123179264 1.10683894
v 0.170147315 0.135210499 1.07555962
v 0.137591973 0.143984303 1.11917794
v 0.151831791 0.107350506 1.14414597
v 0.125041008 0.127668396 1.15252018
v 0.10186816 0.101054564 1.18148744
v 0.140376493 0.156093925 1.09192896
v 0.165665552 0.144663557 1.05496883
v 0.134725899 0.167589292 1.06822503
v 0.119908474 0.179962039 1.04880226
v 0.095491007 0.180803582 1.06567097
v 0.044420708 0.198216453 1.05430782
v 0.0461904854 0.189219236 1.08779454
v -8.14080049E-05 0.189248845 1.07542872
v -8.14080049E-05 0.180387035 1.10697925
v 0.0468671843 0.176928625 1.12294543
v -8.14080049E-05 0.16705063 1.14221847
v 0.0469403639 0.161861226 1.15145051
v 0.0958426297 0.161791056 1.12849474
v 0.0890763104 0.145280778 1.15638947
v 0.0446693711 0.130992085 1.17186224
v -8.14080049E-05 0.138850689 1.16789556
v 0.0710910335 0.117163122 1.17635882
v 0.0978921577 0.173181474 1.09751856
v -8.14080049E-05 0.199461877 1.03760731
v -0.16828391 0.0267197452 1.12107217
v -0.120231234 -0.0165556185 1.14895952
v -0.0435247682 0.0342849009 0.990832806
v -0.0320927836 0.0177412312 0.994569302
v -8.14080049E-05 0.00308936578 0.992038608
v -0.0388655886 0.00705494871 0.999971747
v -8.14080049E-05 -0.0279685017 1.04275703
v -0.0503053479 -0.0202624407 1.04882932
v -8.14080049E-05 -0.0370182022 1.09630144
v -0.0527570061 -0.0346121415 1.09888041
v -0.0447201617 -0.034485139 1.1251899
v -8.14080049E-05 -0.0316968039 1.11759007
v -0.0531669036 -0.0370746404 1.11174428
v -8.14080049E-05 0.0479784682 0.982425392
v -0.120231234 -0.0165556185 1.14895952
v -0.0531669036 -0.0370746404 1.11174428
v -0.188156158 0.0736803561 1.06879067
v -0.189277738 0.0908562839 1.03705752
v -0.185308218 0.101448648 1.00701964
v -0.176634818 0.105083197 0.988994479
v -0.185371667 0.0520375334 1.0931592
v -0.16828391 0.0267197452 1.12107217
v -0.187171221 -0.0215448234 1.16161942
v -0.0531669036 -0.0370746404 1.11174428
v -0.0527570061 -0.0346121415 1.09888041
v -0.0503053479 -0.0202624407 1.04882932
v -0.0388655886 0.00705494871 0.999971747
v -0.0343896709 0.0224484541 0.953281164
v -0.0320927836 0.0177412312 0.994569302
v -0.0531669036 -0.0370746404 1.11174428
v -0.120231234 -0.0165556185 1.14895952
v -0.136760145 -0.0797943398 1.23164904
v -0.0531669036 -0.0370746404 1.11174428
v -0.120231234 -0.0165556185 1.14895952
v -0.136760145 -0.0797943398 1.23164904
v -0.16828391 0.0267197452 1.12107217
v -0.0320927836 0.0177412312 0.994569302
v -0.0435247682 0.0342849009 0.990832806
v -0.134788334 0.117161483 0.668358982
v -0.102870211 0.0754681826 0.664958954
v -0.102204524 0.0315981656 0.656788409
v -0.125583306 0.00560911186 0.658124745
v -0.131761655 -0.0121616358 0.640295386
v -0.131761655 -0.0121616358 0.640295386
v -0.228879139 0.0401635543 0.651172459
v -8.14080049E-05 0.20558174 0.999680459
v -8.14080049E-05 0.208871201 0.935539603
v 0.197010592 0.00592933176 1.15893352
v 0.210514769 -0.0331857763 1.10383165
v 0.187008411 -0.0215448234 1.16161942
v 0.22899349 -0.00583621953 1.06586015
v 0.185049549 -0.104183711 1.07866549
v 0.136597335 -0.0797943398 1.23164904
v 0.204081267 -0.0327637866 1.09765124
v 0.174559131 -0.0850575641 1.07574725
v 0.187924698 -0.0900895745 1.0018692
v 0.233534157 -0.0350744724 0.993456006
v 0.218111917 -0.0272633266 0.979587615
v 0.176876083 -0.070567064 0.985919714
v 0.212500811 0.0851540267 0.927902579
v 0.22252439 0.0892368034 0.935560584
v 0.214227855 -0.00122095109 1.06136167
v 0.218120992 0.0238248389 1.07583654
v 0.197326601 0.0552719571 1.09140337
v 0.207765877 0.0214193631 1.06963861
v 0.209921598 0.0786828473 1.02197349
v 0.207068473 0.0694984272 1.01652586
v 0.219704911 0.113179073 0.929069579
v 0.196960747 0.0971025601 1.03580093
v 0.193544865 0.11230886 0.982472658
v 0.237903252 0.0893746912 0.834102452
v 0.23493807 0.112945981 0.839171708
v 0.237713501 -0.0337281711 0.904912531
v 0.191233099 -0.0739073902 0.909792066
v 0.182621226 -0.0525068939 0.892864466
v 0.223832443 -0.0187162291 0.889143825
v 0.227561086 0.0785875097 0.82994312
v 0.244338006 -0.0218166821 0.792698324
v 0.243770093 0.0686220378 0.726074636
v 0.201725453 -0.066311866 0.806978464
v 0.196695894 -0.0499867052 0.79484874
v 0.231870577 -0.0154628223 0.784526944
v 0.228090778 0.0619967766 0.72066313
v 0.199297786 -0.0386631377 0.721999884
v 0.226596862 0.00108713622 0.721537292
v 0.192078784 -0.00197836384 0.645684779
v 0.21864292 0.0315723754 0.672012687
v 0.230941981 0.0287310332 0.662067115
v 0.228716329 0.0401635543 0.651172459
v 0.243353069 0.0941291004 0.739938498
v 0.19533214 -0.00854087807 0.635626435
v 0.228716329 0.0401635543 0.651172459
v 0.145130858 -0.0557285398 0.773947001
v 0.13143824 -0.0456239767 0.862842143
v 0.0724528357 0.00982811395 0.811340213
v 0.0631208867 0.00546479225 0.817972898
v 0.123220079 -0.0568950064 0.87525028
v 0.0612099431 0.0117654894 0.915936708
v 0.116085947 -0.0538574196 0.960301578
v 0.111751191 -0.0710908771 0.973999381
v 0.113034643 -0.0807999298 1.09014821
v 0.174559131 -0.0850575641 1.07574725
v 0.109063178 -0.0866874084 1.09526479
v 0.0864031762 -0.0713753998 1.05493438
v 0.0607935637 -0.057863377 1.15009785
v 0.0919035301 -0.0768389478 1.16157889
v 0.136597335 -0.0797943398 1.23164904
v 0.0918795764 -0.0620897487 1.05218112
v 0.0636881515 -0.044866465 1.06101692
v 0.0720481202 -0.0400678329 1.05917358
v 0.0440444835 0.000230388643 1.00015414
v 0.0521778055 -0.000255575171 0.99853009
v 0.0520256273 0.00785108097 0.91940695
v 0.0357512049 0.0173390582 0.899385333
v 0.0474065952 0.0166232251 0.809770465
v 0.0758492872 0.00340458867 0.717976809
v 0.0970529169 -0.00577614782 0.715080261
v 0.107750572 0.0045168302 0.712615311
v 0.148891866 -0.0441154763 0.763755322
v 0.150686905 -0.0312510096 0.71540457
v 0.143765792 -0.012110414 0.661386251
v 0.13159883 -0.0121616358 0.640295386
v 0.1426384 -0.0207973626 0.649997532
v 0.107750572 0.0045168302 0.712615311
v 0.1426384 -0.0207973626 0.649997532
v 0.174559131 -0.0850575641 1.07574725
v 0.185049549 -0.104183711 1.07866549
v 0.22899349 -0.00583621953 1.06586015
v 0.214227855 -0.00122095109 1.06136167
v 0.174559131 -0.0850575641 1.07574725
v 0.185049549 -0.104183711 1.07866549
v 0.0758492872 0.00340458867 0.717976809
v 0.0557788759 0.0299869981 0.806550145
v 0.0474065952 0.0166232251 0.809770465
v 0.0443171002 0.0420702919 0.809435546
v 0.0509765856 0.0520119816 0.729120612
v 0.0636162683 0.111868538 0.73317641
v 0.0484420434 0.118382782 0.821166337
v 0.0633112714 0.0440146439 0.720460057
v 0.0794108585 0.0164142456 0.705950618
v 0.0767927766 0.10079623 0.724710345
v 0.0407943912 0.129871249 0.829561293
v 0.0332859531 0.0409396365 0.817721486
v 0.0300572291 0.136478677 0.907363117
v 0.0208068658 0.0490271971 0.899026573
v 0.0370508581 0.0268116165 0.892629981
v 0.0102147628 0.0488502122 0.9042629
v 0.0357512049 0.0173390582 0.899385333
v 0.0342268534 0.0224484541 0.953281164
v 0.0433619544 0.0342849009 0.990832806
v 0.0217665471 0.0506065153 0.984574616
v 0.0433619544 0.0342849009 0.990832806
v 0.0319299661 0.0177412312 0.994569302
v 0.0217665471 0.0506065153 0.984574616
v -8.14080049E-05 0.0479784682 0.982425392
v 0.0433619544 0.0342849009 0.990832806
v 0.0319299661 0.0177412312 0.994569302
v -8.14080049E-05 0.00308936578 0.992038608
v 0.0387027748 0.00705494871 0.999971747
v -8.14080049E-05 -0.0279685017 1.04275703
v 0.0501425304 -0.0202624407 1.04882932
v -8.14080049E-05 -0.0370182022 1.09630144
v 0.0525941849 -0.0346121415 1.09888041
v 0.0445573479 -0.034485139 1.1251899
v -8.14080049E-05 -0.0316968039 1.11759007
v 0.0530040935 -0.0370746404 1.11174428
v -8.14080049E-05 0.0479784682 0.982425392
v 0.120068423 -0.0165556185 1.14895952
v 0.0530040935 -0.0370746404 1.11174428
v 0.168121099 0.0267197452 1.12107217
v 0.120068423 -0.0165556185 1.14895952
v 0.187993348 0.0736803561 1.06879067
v 0.189114928 0.0908562839 1.03705752
v 0.185145408 0.101448648 1.00701964
v 0.176472008 0.105083197 0.988994479
v 0.185208857 0.0520375334 1.0931592
v 0.168121099 0.0267197452 1.12107217
v 0.187008411 -0.0215448234 1.16161942
v 0.0530040935 -0.0370746404 1.11174428
v 0.0530040935 -0.0370746404 1.11174428
v 0.0525941849 -0.0346121415 1.09888041
v 0.0501425304 -0.0202624407 1.04882932
v 0.0387027748 0.00705494871 0.999971747
v 0.0342268534 0.0224484541 0.953281164
v 0.0319299661 0.0177412312 0.994569302
v 0.120068423 -0.0165556185 1.14895952
v 0.136597335 -0.0797943398 1.23164904
v 0.0530040935 -0.0370746404 1.11174428
v 0.120068423 -0.0165556185 1.14895952
v 0.136597335 -0.0797943398 1.23164904
v 0.168121099 0.0267197452 1.12107217
v 0.134625524 0.117161483 0.668358982
v 0.102707393 0.0754681826 0.664958954
v 0.102041706 0.0315981656 0.656788409
v 0.125420496 0.00560911186 0.658124745
v 0.13159883 -0.0121616358 0.640295386
v 0.13159883 -0.0121616358 0.640295386
v 0.228716329 0.0401635543 0.651172459
vt 0.620397866 0.656896651
vt 0.654013038 0.594811618
vt 0.622591674 0.544233024
vt 0.645847738 0.674500942
vt 0.738656878 0.574145317
vt 0.739771605 0.766895592
vt 0.658378124 0.586146176
vt 0.740409553 0.566305876
vt 0.742507637 0.482527703
vt 0.66768229 0.456439495
vt 0.670106649 0.437247932
vt 0.749976754 0.457931548
vt 0.536639214 0.359803349
vt 0.525090873 0.369942844
vt 0.622530282 0.534844577
vt 0.589327037 0.556326032
vt 0.545646846 0.581081867
vt 0.591990948 0.542675555
vt 0.531117678 0.480659932
vt 0.540141344 0.473968983
vt 0.495630562 0.360358715
vt 0.507964849 0.499524474
vt 0.481462836 0.436274499
vt 0.548953831 0.240999103
vt 0.519354284 0.242204323
vt 0.681280851 0.350386113
vt 0.746926904 0.369651884
vt 0.750790358 0.342130095
vt 0.67793721 0.326641798
vt 0.566785932 0.236610144
vt 0.685866058 0.21369645
vt 0.601242363 0.109783456
vt 0.746849954 0.242234334
vt 0.74680984 0.224424198
vt 0.689941049 0.202223703
vt 0.622616649 0.102812953
vt 0.746726453 0.139169037
vt 0.692425966 0.125949383
vt 0.744383693 0.0388808735
vt 0.680334747 0.0583962761
vt 0.674907088 0.0438479148
vt 0.666238368 0.0280806758
vt 0.567546189 0.119715266
vt 0.746035933 0.0252704322
vt 0.666238368 0.0280806758
vt 0.808339179 0.203204647
vt 0.823541522 0.309997767
vt 0.922128141 0.243622437
vt 0.931949496 0.254249841
vt 0.828930259 0.329126716
vt 0.940500677 0.375151008
vt 0.835837126 0.431554019
vt 0.833927095 0.456893057
vt 0.817786813 0.598057568
vt 0.740409553 0.566305876
vt 0.818768859 0.608544171
vt 0.85834837 0.562887967
vt 0.862587988 0.677900612
vt 0.821996748 0.696510315
vt 0.739771605 0.766895592
vt 0.857449591 0.552868843
vt 0.901089013 0.573490024
vt 0.89569658 0.561132073
vt 0.951012969 0.48637569
vt 0.943447888 0.482562304
vt 0.949617624 0.383220553
vt 0.971863151 0.358661979
vt 0.954871178 0.243331924
vt 0.911635816 0.126097828
vt 0.883958459 0.123720653
vt 0.869279921 0.116095327
vt 0.805213988 0.187714174
vt 0.803492844 0.128230631
vt 0.810421824 0.060576316
vt 0.828175783 0.0340083167
vt 0.813197076 0.047361929
vt 0.813197076 0.047361929
vt 0.869279921 0.116095327
vt 0.740409553 0.566305876
vt 0.738656878 0.574145317
vt 0.622591674 0.544233024
vt 0.622530282 0.534844577
vt 0.391306311 0.268079847
vt 0.403831452 0.37922132
vt 0.426509768 0.393843561
vt 0.359327972 0.40652591
vt 0.339594543 0.310424715
vt 0.286834538 0.31603685
vt 0.306414545 0.415465593
vt 0.328408033 0.284852147
vt 0.364053428 0.25628677
vt 0.284714758 0.285825044
vt 0.243393853 0.38374421
vt 0.23823069 0.298965722
vt 0.232953206 0.274184197
vt 0.267607421 0.21446754
vt 0.306252211 0.192641288
vt 0.340138853 0.176808625
vt 0.348766774 0.153863549
vt 0.348766774 0.153863549
vt 0.309335232 0.441761643
vt 0.248445764 0.416207582
vt 0.366095364 0.428670675
vt 0.313329875 0.529180229
vt 0.254763842 0.493618399
vt 0.375177205 0.52342993
vt 0.427384228 0.497543573
vt 0.309278488 0.552294493
vt 0.257959276 0.520100415
vt 0.376889527 0.547967196
vt 0.447277546 0.516549289
vt 0.312908381 0.646070361
vt 0.25720191 0.642619133
vt 0.371318787 0.632074773
vt 0.435158938 0.607250869
vt 0.190052673 0.557576537
vt 0.183475539 0.537719548
vt 0.178925022 0.451564968
vt 0.169107497 0.432518661
vt 0.170761004 0.33557111
vt 0.0880866572 0.410749584
vt 0.108536437 0.323285073
vt 0.0537793003 0.295139015
vt 0.0713556632 0.40109545
vt 0.0556136407 0.414381921
vt 0.103212625 0.3021743
vt 0.0736342296 0.278663218
vt 0.166427299 0.311616957
vt 0.0862489492 0.431577414
vt 0.0897505432 0.524075627
vt 0.0602755211 0.512368262
vt 0.091866143 0.542899489
vt 0.0481262989 0.527336895
vt 0.100315973 0.610689044
vt 0.192162499 0.628079653
vt 0.0512777679 0.60497272
vt 0.246097669 0.658382535
vt 0.326285064 0.668682694
vt 0.316149265 0.700625718
vt 0.244736269 0.6892277
vt 0.378094643 0.658760786
vt 0.393374652 0.697439253
vt 0.440239489 0.669384956
vt 0.429022819 0.642377853
vt 0.199424863 0.640812695
vt 0.134161562 0.62629199
vt 0.181383252 0.656287611
vt 0.135981575 0.633711815
vt 0.0931893736 0.640056789
vt 0.0669635311 0.647740722
vt 0.0931893736 0.640056789
vt 0.109756663 0.657076776
vt 0.42888552 0.728255391
vt 0.380016595 0.722321808
vt 0.412374079 0.74378109
vt 0.435814053 0.767068505
vt 0.455631047 0.75650692
vt 0.463966161 0.703357756
vt 0.496334523 0.736979008
vt 0.484078914 0.788776517
vt 0.530540168 0.763983071
vt 0.509056985 0.822994828
vt 0.565121412 0.804136455
vt 0.549777985 0.875153005
vt 0.459520698 0.799565017
vt 0.483688265 0.845015287
vt 0.507068336 0.89803648
vt 0.374379933 0.73808378
vt 0.313600391 0.73344028
vt 0.235828385 0.757101059
vt 0.257705927 0.804583848
vt 0.20461531 0.816915452
vt 0.313711256 0.784620702
vt 0.240038887 0.737656415
vt 0.167586848 0.760370255
vt 0.176982716 0.777764857
vt 0.445569158 0.80645901
vt 0.42351824 0.774615228
vt 0.417161614 0.836565614
vt 0.467258751 0.848607063
vt 0.439129889 0.875745475
vt 0.465204746 0.920726538
vt 0.396362603 0.808357418
vt 0.402854264 0.755067348
vt 0.372772008 0.787622333
vt 0.344752818 0.776047111
vt 0.333689541 0.810335994
vt 0.278954059 0.83545357
vt 0.303638726 0.86748153
vt 0.254589349 0.890847147
vt 0.280017853 0.923021436
vt 0.331647843 0.9005211
vt 0.311798424 0.956860125
vt 0.358155102 0.928067625
vt 0.380696177 0.871578336
vt 0.403232336 0.903599262
vt 0.388507068 0.958214641
vt 0.343942136 0.98851186
vt 0.424377531 0.943301499
vt 0.357672036 0.840362072
vt 0.228002533 0.852249563
vt 0.740409553 0.566305876
vt 0.738656878 0.574145317
vt 0.186646029 0.678661287
vt 0.181383252 0.656287611
vt 0.186646029 0.678661287
vt 0.199424863 0.640812695
vt 0.134161562 0.62629199
vt 0.135981575 0.633711815
vt 0.100315973 0.610689044
vt 0.192162499 0.628079653
vt 0.190052673 0.557576537
vt 0.257959276 0.520100415
vt 0.254763842 0.493618399
vt 0.309278488 0.552294493
vt 0.313329875 0.529180229
vt 0.248445764 0.416207582
vt 0.309335232 0.441761643
vt 0.243393853 0.38374421
vt 0.306414545 0.415465593
vt 0.286834538 0.31603685
vt 0.359327972 0.40652591
vt 0.339594543 0.310424715
vt 0.391306311 0.268079847
vt 0.403831452 0.37922132
vt 0.426509768 0.393843561
vt 0.328408033 0.284852147
vt 0.364053428 0.25628677
vt 0.284714758 0.285825044
vt 0.23823069 0.298965722
vt 0.232953206 0.274184197
vt 0.267607421 0.21446754
vt 0.306252211 0.192641288
vt 0.340138853 0.176808625
vt 0.348766774 0.153863549
vt 0.348766774 0.153863549
vt 0.366095364 0.428670675
vt 0.375177205 0.52342993
vt 0.427384228 0.497543573
vt 0.376889527 0.547967196
vt 0.447277546 0.516549289
vt 0.371318787 0.632074773
vt 0.312908381 0.646070361
vt 0.25720191 0.642619133
vt 0.435158938 0.607250869
vt 0.429022819 0.642377853
vt 0.378094643 0.658760786
vt 0.440239489 0.669384956
vt 0.393374652 0.697439253
vt 0.316149265 0.700625718
vt 0.326285064 0.668682694
vt 0.246097669 0.658382535
vt 0.244736269 0.6892277
vt 0.42888552 0.728255391
vt 0.463966161 0.703357756
vt 0.455631047 0.75650692
vt 0.496334523 0.736979008
vt 0.484078914 0.788776517
vt 0.530540168 0.763983071
vt 0.509056985 0.822994828
vt 0.565121412 0.804136455
vt 0.549777985 0.875153005
vt 0.380016595 0.722321808
vt 0.412374079 0.74378109
vt 0.435814053 0.767068505
vt 0.459520698 0.799565017
vt 0.483688265 0.845015287
vt 0.507068336 0.89803648
vt 0.374379933 0.73808378
vt 0.313600391 0.73344028
vt 0.235828385 0.757101059
vt 0.257705927 0.804583848
vt 0.20461531 0.816915452
vt 0.313711256 0.784620702
vt 0.240038887 0.737656415
vt 0.167586848 0.760370255
vt 0.176982716 0.777764857
vt 0.445569158 0.80645901
vt 0.42351824 0.774615228
vt 0.417161614 0.836565614
vt 0.467258751 0.848607063
vt 0.439129889 0.875745475
vt 0.465204746 0.920726538
vt 0.396362603 0.808357418
vt 0.402854264 0.755067348
vt 0.372772008 0.787622333
vt 0.344752818 0.776047111
vt 0.333689541 0.810335994
vt 0.278954059 0.83545357
vt 0.303638726 0.86748153
vt 0.254589349 0.890847147
vt 0.280017853 0.923021436
vt 0.331647843 0.9005211
vt 0.311798424 0.956860125
vt 0.358155102 0.928067625
vt 0.380696177 0.871578336
vt 0.403232336 0.903599262
vt 0.388507068 0.958214641
vt 0.343942136 0.98851186
vt 0.424377531 0.943301499
vt 0.357672036 0.840362072
vt 0.228002533 0.852249563
vt 0.565121412 0.804136455
vt 0.62248677 0.863161981
vt 0.0669635311 0.647740722
vt 0.0575991906 0.66702038
vt 0.0888793021 0.694822013
vt 0.04631963 0.694308698
vt 0.0993641466 0.756569743
vt 0.0427628718 0.770730317
vt 0.115847349 0.814071715
vt 0.0587443598 0.835496008
vt 0.0803000703 0.860300839
vt 0.124528393 0.836687922
vt 0.0642224178 0.851985097
vt 0.109756663 0.657076776
vt 0.0270131212 0.936250985
vt 0.0642224178 0.851985097
vt 0.519487321 0.551241159
vt 0.499601305 0.508625329
vt 0.48167786 0.471648276
vt 0.464119554 0.453512579
vt 0.535656333 0.595156372
vt 0.563220322 0.651161969
vt 0.645847738 0.674500942
vt 0.904654503 0.650938392
vt 0.911220133 0.623899162
vt 0.934505165 0.556322217
vt 0.960586846 0.484878957
vt 0.979359269 0.425887764
vt 0.975968838 0.476812243
vt 0.904654503 0.650938392
vt 0.864396691 0.76023078
vt 0.739771605 0.766895592
vt 0.904654503 0.650938392
vt 0.616098762 0.739365101
vt 0.739771605 0.766895592
vt 0.563220322 0.651161969
vt 0.0575991906 0.66702038
vt 0.0669635311 0.647740722
vt 0.227309331 0.24215436
vt 0.161898434 0.234575719
vt 0.109261781 0.217382878
vt 0.0722959638 0.207964525
vt 0.0553788878 0.182774723
vt 0.0553788878 0.182774723
vt 0.348766774 0.153863549
vt 0.20461531 0.816915452
vt 0.176982716 0.777764857
vt 0.620397866 0.656896651
vt 0.654013038 0.594811618
vt 0.645847738 0.674500942
vt 0.622591674 0.544233024
vt 0.738656878 0.574145317
vt 0.739771605 0.766895592
vt 0.658378124 0.586146176
vt 0.740409553 0.566305876
vt 0.742507637 0.482527703
vt 0.66768229 0.456439495
vt 0.670106649 0.437247932
vt 0.749976754 0.457931548
vt 0.536639214 0.359803349
vt 0.525090873 0.369942844
vt 0.622530282 0.534844577
vt 0.589327037 0.556326032
vt 0.545646846 0.581081867
vt 0.591990948 0.542675555
vt 0.531117678 0.480659932
vt 0.540141344 0.473968983
vt 0.495630562 0.360358715
vt 0.507964849 0.499524474
vt 0.481462836 0.436274499
vt 0.548953831 0.240999103
vt 0.519354284 0.242204323
vt 0.681280851 0.350386113
vt 0.746926904 0.369651884
vt 0.750790358 0.342130095
vt 0.67793721 0.326641798
vt 0.566785932 0.236610144
vt 0.685866058 0.21369645
vt 0.601242363 0.109783456
vt 0.746849954 0.242234334
vt 0.74680984 0.224424198
vt 0.689941049 0.202223703
vt 0.622616649 0.102812953
vt 0.746726453 0.139169037
vt 0.692425966 0.125949383
vt 0.744383693 0.0388808735
vt 0.680334747 0.0583962761
vt 0.674907088 0.0438479148
vt 0.666238368 0.0280806758
vt 0.567546189 0.119715266
vt 0.746035933 0.0252704322
vt 0.666238368 0.0280806758
vt 0.808339179 0.203204647
vt 0.823541522 0.309997767
vt 0.922128141 0.243622437
vt 0.931949496 0.254249841
vt 0.828930259 0.329126716
vt 0.940500677 0.375151008
vt 0.835837126 0.431554019
vt 0.833927095 0.456893057
vt 0.817786813 0.598057568
vt 0.740409553 0.566305876
vt 0.818768859 0.608544171
vt 0.85834837 0.562887967
vt 0.862587988 0.677900612
vt 0.821996748 0.696510315
vt 0.739771605 0.766895592
vt 0.857449591 0.552868843
vt 0.901089013 0.573490024
vt 0.89569658 0.561132073
vt 0.951012969 0.48637569
vt 0.943447888 0.482562304
vt 0.949617624 0.383220553
vt 0.971863151 0.358661979
vt 0.954871178 0.243331924
vt 0.911635816 0.126097828
vt 0.883958459 0.123720653
vt 0.869279921 0.116095327
vt 0.805213988 0.187714174
vt 0.803492844 0.128230631
vt 0.810421824 0.060576316
vt 0.828175783 0.0340083167
vt 0.813197076 0.047361929
vt 0.869279921 0.116095327
vt 0.813197076 0.047361929
vt 0.740409553 0.566305876
vt 0.738656878 0.574145317
vt 0.622591674 0.544233024
vt 0.622530282 0.534844577
vt 0.740409553 0.566305876
vt 0.738656878 0.574145317
vt 0.0537793003 0.295139015
vt 0.0713556632 0.40109545
vt 0.0556136407 0.414381921
vt 0.0880866572 0.410749584
vt 0.108536437 0.323285073
vt 0.170761004 0.33557111
vt 0.169107497 0.432518661
vt 0.103212625 0.3021743
vt 0.0736342296 0.278663218
vt 0.166427299 0.311616957
vt 0.178925022 0.451564968
vt 0.0862489492 0.431577414
vt 0.183475539 0.537719548
vt 0.0897505432 0.524075627
vt 0.0602755211 0.512368262
vt 0.091866143 0.542899489
vt 0.0481262989 0.527336895
vt 0.0512777679 0.60497272
vt 0.0669635311 0.647740722
vt 0.0931893736 0.640056789
vt 0.0669635311 0.647740722
vt 0.0575991906 0.66702038
vt 0.0931893736 0.640056789
vt 0.109756663 0.657076776
vt 0.0669635311 0.647740722
vt 0.0575991906 0.66702038
vt 0.0888793021 0.694822013
vt 0.04631963 0.694308698
vt 0.0993641466 0.756569743
vt 0.0427628718 0.770730317
vt 0.115847349 0.814071715
vt 0.0587443598 0.835496008
vt 0.0803000703 0.860300839
vt 0.124528393 0.836687922
vt 0.0642224178 0.851985097
vt 0.109756663 0.657076776
vt 0.0270131212 0.936250985
vt 0.0642224178 0.851985097
vt 0.565121412 0.804136455
vt 0.62248677 0.863161981
vt 0.519487321 0.551241159
vt 0.499601305 0.508625329
vt 0.48167786 0.471648276
vt 0.464119554 0.453512579
vt 0.535656333 0.595156372
vt 0.563220322 0.651161969
vt 0.645847738 0.674500942
vt 0.904654503 0.650938392
vt 0.904654503 0.650938392
vt 0.911220133 0.623899162
vt 0.934505165 0.556322217
vt 0.960586846 0.484878957
vt 0.979359269 0.425887764
vt 0.975968838 0.476812243
vt 0.864396691 0.76023078
vt 0.739771605 0.766895592
vt 0.904654503 0.650938392
vt 0.616098762 0.739365101
vt 0.739771605 0.766895592
vt 0.563220322 0.651161969
vt 0.227309331 0.24215436
vt 0.161898434 0.234575719
vt 0.109261781 0.217382878
vt 0.0722959638 0.207964525
vt 0.0553788878 0.182774723
vt 0.0553788878 0.182774723
vt 0.348766774 0.153863549
vn -0.682576537 0.332182169 0.650956511
vn -0.911723733 -0.365106106 -0.188301191
vn -0.836147904 -0.352448255 -0.420281976
vn -0.462529302 0.174290821 0.869303882
vn -0.440697461 -0.86066848 -0.25502032
vn 0.0868176147 -0.0593672618 0.994453728
vn -0.76232326 -0.600946605 -0.240263343
vn -0.3508434 -0.565400124 -0.746479571
vn -0.378983289 -0.819552004 -0.429774582
vn -0.943077266 -0.229671076 -0.240534082
vn -0.770210207 -0.526542306 -0.359901816
vn -0.317137808 -0.830065429 -0.458710074
vn -0.911973715 -0.327128321 -0.247569934
vn -0.977163434 -0.21243003 -0.00502101844
vn -0.900037825 0.123787016 -0.417862087
vn -0.91828239 0.333894908 -0.212771207
vn -0.274812371 0.758106887 0.591398418
vn -0.886541486 -0.0394541398 -0.460963726
vn -0.999736011 -0.0208870471 -0.00956599973
vn -0.994747102 0.0148042189 0.101286337
vn -0.793667495 0.608176589 -0.0146035589
vn -0.27635172 0.85966301 0.429661751
vn -0.307940453 0.808799088 0.501015604
vn -0.958506823 -0.27708599 -0.0669942349
vn -0.676583111 0.731873393 -0.081219092
vn -0.826245785 -0.423515171 -0.371420115
vn -0.313077301 -0.915547192 -0.252499253
vn -0.320904434 -0.79662174 -0.512263715
vn -0.772756457 -0.547713876 -0.320713311
vn -0.962901592 -0.268274546 -0.029140383
vn -0.726171851 -0.491369963 -0.480863869
vn -0.942540109 -0.329865396 -0.052980423
vn -0.337050021 -0.918100178 -0.208540872
vn -0.35081169 -0.714116454 -0.605779588
vn -0.683753669 -0.568257213 -0.457782328
vn -0.710805357 -0.680411041 -0.178315967
vn -0.387055546 -0.879300177 -0.277523428
vn -0.916232884 -0.316873878 -0.245169863
vn -0.454771727 -0.88068527 0.132575378
vn -0.752734363 -0.634287715 0.176267311
vn -0.592013657 -0.745338976 0.306577474
vn -0.831882417 0.380210459 -0.404242158
vn -0.729595006 0.620689213 -0.287116796
vn -0.484189153 -0.874947011 -0.00535159977
vn -0.831882417 0.380210459 -0.404242158
vn 0.0721864477 -0.851833224 -0.518815339
vn 0.200040162 -0.922901273 -0.328994095
vn 0.291835368 -0.945014238 -0.147580802
vn 0.255469799 -0.954484999 -0.15392682
vn 0.262531787 -0.870928228 -0.415404826
vn 0.305573314 -0.869509161 -0.388044745
vn 0.204011217 -0.859213352 -0.469182074
vn 0.395008266 -0.803682208 -0.445043087
vn 0.0133701544 -0.916296065 -0.40027836
vn -0.3508434 -0.565400124 -0.746479571
vn 0.26658991 -0.857230723 -0.440551043
vn 0.168636441 -0.778531611 -0.60452491
vn 0.836519718 -0.460800499 0.29647541
vn 0.575963855 -0.645358622 0.501774848
vn 0.0868176147 -0.0593672618 0.994453728
vn 0.485437214 -0.585885584 -0.648913622
vn 0.692794919 -0.542205632 -0.475445449
vn 0.274591774 -0.658764124 -0.700449288
vn 0.454045564 -0.832434237 -0.31764105
vn 0.552865982 -0.806469679 -0.209632546
vn 0.359718025 -0.913534999 -0.189886481
vn 0.770500243 -0.584198534 -0.25503242
vn 0.886054337 -0.336518347 -0.318846375
vn 0.796229601 -0.518488407 -0.311750025
vn 0.0867612436 -0.994757414 -0.054130055
vn -0.0657489821 -0.978323579 -0.196367547
vn 0.0659574643 -0.89356029 -0.444071829
vn 0.283074796 -0.909639657 -0.304013729
vn -0.0643658265 -0.983804643 0.167288557
vn 0.66359961 -0.639853776 -0.38758564
vn -0.252053887 -0.921108603 0.296694815
vn -0.252053887 -0.921108603 0.296694815
vn -0.0657489821 -0.978323579 -0.196367547
vn -0.3508434 -0.565400124 -0.746479571
vn -0.440697461 -0.86066848 -0.25502032
vn -0.836147904 -0.352448255 -0.420281976
vn -0.900037825 0.123787016 -0.417862087
vn -0.729595006 0.620689213 -0.287116796
vn -0.431692421 0.804494977 -0.407957822
vn -0.676583111 0.731873393 -0.081219092
vn -0.540662348 0.812827945 -0.216783375
vn -0.533938646 0.68934828 -0.489600331
vn -0.408620298 0.814120233 -0.41259855
vn -0.407516599 0.818840384 -0.404265612
vn -0.456349939 0.636091292 -0.622199774
vn -0.454862833 0.743436277 -0.490308464
vn -0.564598143 0.581574917 -0.58566159
vn 0.265208095 0.84713012 -0.460472733
vn 0.121507034 0.629900575 -0.767112315
vn 0.100006089 0.69092077 -0.715979934
vn -0.444174498 0.80247879 -0.398417711
vn -0.654920101 0.695611835 -0.295303047
vn -0.659907997 0.670935094 -0.338182807
vn -0.831882417 0.380210459 -0.404242158
vn -0.831882417 0.380210459 -0.404242158
vn -0.435273319 0.863740385 -0.253948331
vn 0.330439627 0.89643842 -0.295309633
vn -0.549677551 0.769632101 -0.324840039
vn -0.406923145 0.831402063 -0.378396988
vn 0.199460536 0.743469119 -0.638333142
vn -0.552073896 0.759212315 -0.344689757
vn -0.532972574 0.845350444 -0.0363720506
vn -0.425443083 0.893306673 -0.144918293
vn 0.359250963 0.925248086 -0.121879861
vn -0.625253916 0.736525178 -0.258046806
vn -0.793667495 0.608176589 -0.0146035589
vn -0.0429321416 0.73713398 0.674381435
vn 0.377554923 0.722382963 0.579323053
vn -0.437432379 0.531250298 0.725552261
vn -0.307940453 0.808799088 0.501015604
vn 0.834406972 0.225355417 -0.502971113
vn 0.739900947 0.303228617 -0.600498974
vn 0.844150603 0.269966424 -0.463171542
vn 0.778422058 0.255983919 -0.573176503
vn 0.780900061 0.338751614 -0.524826169
vn 0.912068903 -0.195476905 -0.360442907
vn 0.856000125 -0.0584682785 -0.513658643
vn 0.796229601 -0.518488407 -0.311750025
vn 0.780320227 -0.164362296 -0.603394806
vn 0.886054337 -0.336518347 -0.318846375
vn 0.740994513 0.00807572715 -0.671462417
vn 0.8010481 -0.189191237 -0.567915976
vn 0.646317303 0.214338452 -0.732347667
vn 0.800927997 -0.154666141 -0.578440011
vn 0.83588165 -0.149041563 -0.528288364
vn 0.902782857 -0.363640577 -0.229670525
vn 0.779719353 -0.249749318 -0.57416296
vn 0.770500243 -0.584198534 -0.25503242
vn 0.928632736 -0.26977697 0.25467965
vn 0.782836199 0.517955244 0.344804257
vn 0.892397046 -0.447899938 0.0548922718
vn 0.376177371 0.874089837 0.307339579
vn -0.276273996 0.726886868 0.628735423
vn -0.464442253 0.394616693 -0.792824745
vn 0.20243907 0.196644738 -0.959348321
vn -0.689274669 0.708117366 0.153200135
vn -0.675446689 0.701576293 -0.227073789
vn -0.338982224 0.938732326 0.0622294582
vn -0.427529424 0.607805729 0.669171691
vn 0.748546004 0.58564204 -0.310969889
vn 0.83047992 0.0727481321 -0.552277803
vn -0 0.451206535 -0.892419517
vn -0 -0.0390738137 -0.999236345
vn 0.312100321 -0.444686949 -0.839551687
vn 0.879464328 -0.474298656 -0.0397904068
vn 0.312100321 -0.444686949 -0.839551687
vn -0 -0.124286845 -0.99224633
vn -0.827261627 0.550996363 0.109732717
vn -0.845333755 0.366803557 -0.388414532
vn -0.962495267 -0.0504608303 -0.266564488
vn -0.998962998 -0.0451429896 -0.00592808519
vn -0.875706792 0.415120453 0.246602163
vn -0.439530194 0.830071509 0.343212157
vn -0.454792172 0.706127346 0.542723
vn -0.849527895 0.365093023 0.380800962
vn -0.593747914 0.520588219 0.613556147
vn -0.797039747 0.257822156 0.546127617
vn -0.271185845 0.417338312 0.867344856
vn -0.779238224 -0.0563769229 0.624186933
vn -0.966105819 -0.0196563508 0.257396966
vn -0.924424291 -0.175853461 0.33840102
vn -0.779140592 0.0309463982 0.626084805
vn -0.746419847 0.367065877 -0.555085659
vn -0.517759919 0.747597337 -0.415960163
vn -0.484339178 0.656590998 -0.578190088
vn -0.121133357 0.98825562 0.0931531265
vn -0 0.997091532 0.076213859
vn -0.264866859 0.951169908 0.158497751
vn -0.38775599 -0.484022975 -0.784453392
vn -0 -0.196357265 -0.980532467
vn -0 0.871386886 -0.490596503
vn -0.952502012 -0.269548327 0.141716301
vn -0.993511975 0.11287348 0.0139152985
vn -0.556416869 0.692244947 0.459562123
vn -0.835354209 0.0667484924 0.545644581
vn -0.486119658 0.574620068 0.658406794
vn -0.403860211 0.413882226 0.815842152
vn -0.53106755 0.788342595 0.310617328
vn -0.901837647 0.401578695 -0.159447253
vn -0.451622963 0.861729741 0.231211156
vn -0.450306952 0.882313251 0.136919394
vn -0.265079468 0.925755262 0.269648254
vn -0.0917129889 0.967091084 0.237325683
vn -0.0949300826 0.95694375 0.274311632
vn -0 0.964337826 0.264674574
vn -0 0.947880089 0.318627417
vn -0.0999091417 0.918309331 0.383048385
vn -0 0.787119746 0.616800308
vn -0.101376064 0.756067455 0.646594763
vn -0.329928488 0.83480829 0.440729171
vn -0.267260969 0.643915057 0.716899574
vn -0.0490340628 0.575651824 0.816223323
vn -0 0.673257291 0.739408255
vn -0.128790036 0.518132567 0.845548213
vn -0.301415831 0.907899559 0.291319072
vn -0 0.979862273 0.199674636
vn -0.3508434 -0.565400124 -0.746479571
vn -0.440697461 -0.86066848 -0.25502032
vn -0 -0.153203189 -0.988194704
vn -0 0.451206535 -0.892419517
vn -0 -0.153203189 -0.988194704
vn -0.748546004 0.58564204 -0.31096983
vn -0.83047986 0.0727482438 -0.552278042
vn -0 -0.0390738137 -0.999236345
vn -0.928632736 -0.269776911 0.254679441
vn -0.782836258 0.517955422 0.344803751
vn -0.834406912 0.225355402 -0.502971172
vn -0.359250754 0.925248265 -0.121879555
vn -0.199460536 0.743469536 -0.638332546
vn 0.425442815 0.893306971 -0.144917667
vn 0.406922787 0.831402302 -0.378396749
vn -0.330439597 0.89643842 -0.295309782
vn 0.435273379 0.863740206 -0.253948599
vn -0.265208125 0.84713006 -0.460472852
vn 0.407516599 0.818840384 -0.404265583
vn 0.408620358 0.814120352 -0.41259858
vn 0.540661931 0.812828243 -0.216783151
vn 0.533938646 0.68934834 -0.489600331
vn 0.729594767 0.620689452 -0.287116647
vn 0.431692332 0.804494977 -0.407957941
vn 0.676582873 0.731873691 -0.0812190846
vn 0.45634985 0.636091411 -0.622199833
vn 0.454862565 0.743436933 -0.490307689
vn 0.564598203 0.581574976 -0.58566159
vn -0.121507049 0.629900694 -0.767112255
vn -0.100005895 0.690920711 -0.715979993
vn 0.44417426 0.802478969 -0.398417681
vn 0.654919684 0.695612192 -0.295303047
vn 0.659907043 0.670936465 -0.338181704
vn 0.83188206 0.38021183 -0.404241472
vn 0.83188206 0.38021183 -0.404241472
vn 0.549677372 0.76963222 -0.32483992
vn 0.552073956 0.759212196 -0.344689995
vn 0.532972395 0.845350444 -0.0363722667
vn 0.625254035 0.736525178 -0.258046687
vn 0.793667018 0.608177125 -0.0146037228
vn 0.437432408 0.531250298 0.725552201
vn 0.0429320931 0.737134039 0.674381435
vn -0.377555311 0.72238332 0.579322159
vn 0.307940334 0.808799267 0.501015484
vn 0.427529246 0.607805848 0.669171631
vn 0.689274669 0.708117366 0.15320012
vn 0.338982046 0.938732445 0.0622295029
vn 0.675446153 0.701576889 -0.227073491
vn 0.464442104 0.394616783 -0.792824805
vn 0.276274115 0.726886749 0.628735423
vn -0.376177609 0.874089837 0.307338923
vn -0.202439383 0.196644872 -0.959348202
vn 0.827261448 0.550996721 0.10973268
vn 0.439530194 0.830071509 0.343211949
vn 0.875706792 0.415120602 0.246601954
vn 0.45479241 0.706126928 0.542723358
vn 0.849527717 0.36509335 0.380800992
vn 0.593747854 0.520588279 0.613556325
vn 0.797039747 0.257822186 0.546127617
vn 0.271185815 0.417338312 0.867344737
vn 0.779238164 -0.056376718 0.624187052
vn 0.845333934 0.366803318 -0.388414651
vn 0.962495267 -0.0504614972 -0.266564339
vn 0.998962998 -0.0451424643 -0.00592824304
vn 0.966105819 -0.019656064 0.257397115
vn 0.924424291 -0.175853908 0.33840093
vn 0.779140651 0.030946441 0.626084685
vn 0.746420026 0.367064834 -0.555086076
vn 0.517759919 0.747597337 -0.415960222
vn 0.484339237 0.656591177 -0.57818985
vn 0.12113335 0.98825562 0.093153283
vn -0 0.997091532 0.076213859
vn 0.264866799 0.951169908 0.158497721
vn 0.387756169 -0.484022796 -0.784453332
vn -0 -0.196357265 -0.980532467
vn -0 0.871386886 -0.490596503
vn 0.952502012 -0.269548476 0.141716138
vn 0.993511975 0.112873107 0.0139152762
vn 0.556416631 0.692244947 0.459562033
vn 0.835354328 0.0667485744 0.545644462
vn 0.486119658 0.574620068 0.658406794
vn 0.403860211 0.413882226 0.815842152
vn 0.531067491 0.788342714 0.310617179
vn 0.901837826 0.401578009 -0.159447521
vn 0.451622903 0.861729741 0.231211096
vn 0.450306952 0.882313311 0.136919409
vn 0.265079498 0.925755143 0.269648254
vn 0.0917129815 0.967091203 0.237325475
vn 0.0949300826 0.95694375 0.274311811
vn -0 0.964337826 0.264674574
vn -0 0.947880089 0.318627417
vn 0.0999091864 0.918309331 0.383048445
vn -0 0.787119746 0.616800308
vn 0.101376064 0.756067634 0.646594644
vn 0.329928517 0.83480829 0.440729201
vn 0.267260998 0.643915057 0.716899574
vn 0.0490340441 0.575651824 0.816223323
vn -0 0.673257291 0.739408255
vn 0.128789976 0.518132567 0.845548213
vn 0.301415771 0.907899559 0.291319311
vn -0 0.979862273 0.199674636
vn -0.271185845 0.417338312 0.867344856
vn 0.161703169 0.331112951 0.929632306
vn 0.879464328 -0.474298656 -0.0397904068
vn 0.355067462 -0.254370093 -0.899568141
vn 4.08448983E-07 -0.430956721 -0.902372599
vn 0.494669646 -0.780906081 -0.381428391
vn -0 -0.912076354 -0.410020411
vn 0.405940413 -0.874815166 -0.264406443
vn -0 -0.998906851 -0.0467445329
vn 0.461965352 -0.876670718 -0.134299591
vn 0.108430982 -0.989000142 0.100605294
vn -0 -0.97015059 0.242503271
vn 0.751624346 -0.647102594 0.127746359
vn -0 -0.124286845 -0.99224633
vn 0.161703169 0.331112951 0.929632306
vn 0.751624346 -0.647102594 0.127746359
vn -0.454792172 0.706127346 0.542723
vn -0.439530194 0.830071509 0.343212157
vn -0.338982224 0.938732326 0.0622294582
vn -0.427529424 0.607805729 0.669171691
vn -0.593747914 0.520588219 0.613556147
vn -0.271185845 0.417338312 0.867344856
vn -0.462529302 0.174290821 0.869303882
vn 0.751624346 -0.647102594 0.127746359
vn 0.461965352 -0.876670718 -0.134299591
vn 0.405940413 -0.874815166 -0.264406443
vn 0.494669646 -0.780906081 -0.381428391
vn 0.892397046 -0.447899938 0.0548922718
vn 0.355067462 -0.254370093 -0.899568141
vn 0.751624346 -0.647102594 0.127746359
vn 0.161703169 0.331112951 0.929632306
vn 0.0868176147 -0.0593672618 0.994453728
vn 0.751624346 -0.647102594 0.127746359
vn 0.161703169 0.331112951 0.929632306
vn 0.0868176147 -0.0593672618 0.994453728
vn -0.271185845 0.417338312 0.867344856
vn 0.355067462 -0.254370093 -0.899568141
vn 0.879464328 -0.474298656 -0.0397904068
vn 0.141221434 0.780230701 -0.609341145
vn 0.764977574 0.35621807 -0.536579907
vn 0.865957677 -0.385810554 -0.318225563
vn 0.872178078 -0.338423431 -0.353235066
vn 0.66359961 -0.639853776 -0.38758564
vn 0.66359961 -0.639853776 -0.38758564
vn -0.831882417 0.380210459 -0.404242158
vn -0 0.997091532 0.076213859
vn -0 0.871386886 -0.490596503
vn 0.682576597 0.33218205 0.650956511
vn 0.911723673 -0.365105957 -0.188301802
vn 0.46252954 0.174290627 0.869303823
vn 0.836147308 -0.352449 -0.420282543
vn 0.440697491 -0.8606686 -0.255020171
vn -0.0868169963 -0.0593671724 0.994453728
vn 0.762323201 -0.600946426 -0.240264103
vn 0.350842983 -0.565399647 -0.746479988
vn 0.378983319 -0.819552004 -0.429774642
vn 0.943077266 -0.229670629 -0.240534082
vn 0.770210207 -0.526542485 -0.359901905
vn 0.317137688 -0.830065429 -0.458710164
vn 0.911973655 -0.327128232 -0.247570425
vn 0.977163434 -0.212429702 -0.00502129225
vn 0.900037706 0.123787157 -0.417862326
vn 0.918282211 0.333895355 -0.212771118
vn 0.274812162 0.758106887 0.591398656
vn 0.886541486 -0.0394539237 -0.460963666
vn 0.99973613 -0.0208864566 -0.00956604909
vn 0.994747102 0.0148037877 0.10128621
vn 0.793667018 0.608177125 -0.0146037228
vn 0.276351303 0.859663188 0.429661751
vn 0.307940334 0.808799267 0.501015484
vn 0.958506703 -0.277086079 -0.0669943467
vn 0.676582873 0.731873691 -0.0812190846
vn 0.826245785 -0.423515022 -0.371420234
vn 0.313077182 -0.915547192 -0.252499282
vn 0.320904434 -0.79662174 -0.512263715
vn 0.772756338 -0.547713935 -0.320713341
vn 0.962901473 -0.268275291 -0.0291403662
vn 0.726171792 -0.491369933 -0.480863959
vn 0.94253999 -0.329865664 -0.0529807806
vn 0.337050021 -0.918100178 -0.208540931
vn 0.35081166 -0.714116395 -0.605779707
vn 0.683753729 -0.568257213 -0.457782209
vn 0.710805178 -0.68041116 -0.178316146
vn 0.387055725 -0.879300058 -0.277523398
vn 0.916233003 -0.316873461 -0.245169863
vn 0.454771787 -0.88068527 0.132575423
vn 0.752734423 -0.634287477 0.176267266
vn 0.592013597 -0.745339096 0.306577235
vn 0.83188206 0.38021183 -0.404241472
vn 0.729594767 0.620689452 -0.287116647
vn 0.484189183 -0.874947011 -0.00535153924
vn 0.83188206 0.38021183 -0.404241472
vn -0.0721863955 -0.851833224 -0.518815279
vn -0.200040162 -0.922901273 -0.328994185
vn -0.291835338 -0.945014238 -0.147581086
vn -0.25546971 -0.954484999 -0.153926924
vn -0.262531847 -0.870928109 -0.415404946
vn -0.305573285 -0.86950928 -0.388044745
vn -0.204011217 -0.859213352 -0.469182074
vn -0.395008147 -0.803682327 -0.445043057
vn -0.0133702373 -0.916296184 -0.400278151
vn 0.350842983 -0.565399647 -0.746479988
vn -0.266590178 -0.857230902 -0.440550566
vn -0.168636858 -0.778531611 -0.604524672
vn -0.836520076 -0.460799992 0.296475172
vn -0.575964391 -0.645358324 0.501774549
vn -0.0868169963 -0.0593671724 0.994453728
vn -0.485437095 -0.585885346 -0.648913801
vn -0.6927948 -0.54220587 -0.47544536
vn -0.274592012 -0.658764064 -0.700449169
vn -0.454045981 -0.832433999 -0.317641109
vn -0.552866161 -0.806469619 -0.20963265
vn -0.359718025 -0.91353488 -0.189886451
vn -0.770500124 -0.584198534 -0.25503248
vn -0.886054456 -0.336518049 -0.318846524
vn -0.796229601 -0.518488348 -0.311750114
vn -0.0867611393 -0.994757414 -0.0541301183
vn 0.0657489821 -0.978323579 -0.196367547
vn -0.0659574196 -0.89356029 -0.444071651
vn -0.283074766 -0.909639657 -0.304013699
vn 0.0643658116 -0.983804643 0.167288497
vn -0.663599372 -0.639854252 -0.387585342
vn 0.252053887 -0.921108603 0.296694815
vn 0.0657489821 -0.978323579 -0.196367547
vn 0.252053887 -0.921108603 0.296694815
vn 0.350842983 -0.565399647 -0.746479988
vn 0.440697491 -0.8606686 -0.255020171
vn 0.836147308 -0.352449 -0.420282543
vn 0.900037706 0.123787157 -0.417862326
vn 0.350842983 -0.565399647 -0.746479988
vn 0.440697491 -0.8606686 -0.255020171
vn -0.796229601 -0.518488348 -0.311750114
vn -0.780320227 -0.164361715 -0.603395045
vn -0.886054456 -0.336518049 -0.318846524
vn -0.912068903 -0.195476905 -0.360442907
vn -0.856000125 -0.058468394 -0.513658702
vn -0.780900002 0.338751674 -0.524826348
vn -0.778422177 0.255984098 -0.573176324
vn -0.740994513 0.00807570387 -0.671462476
vn -0.801048219 -0.189191118 -0.567915976
vn -0.646317303 0.214338332 -0.732347488
vn -0.844150662 0.269966483 -0.463171452
vn -0.800927997 -0.154666066 -0.578439951
vn -0.739900887 0.303228617 -0.600498974
vn -0.835881531 -0.149041548 -0.528288364
vn -0.902782977 -0.363640428 -0.229670644
vn -0.779719353 -0.249749303 -0.57416296
vn -0.770500124 -0.584198534 -0.25503248
vn -0.892396927 -0.447900146 0.054892268
vn -0.879464328 -0.474298686 -0.0397903547
vn -0.312100321 -0.444686562 -0.839551806
vn -0.879464328 -0.474298686 -0.0397903547
vn -0.355066806 -0.254370362 -0.899568379
vn -0.312100321 -0.444686562 -0.839551806
vn -0 -0.124286845 -0.99224633
vn -0.879464328 -0.474298686 -0.0397903547
vn -0.355066806 -0.254370362 -0.899568379
vn 4.08448983E-07 -0.430956721 -0.902372599
vn -0.494669467 -0.78090626 -0.38142845
vn -0 -0.912076354 -0.410020411
vn -0.405940831 -0.874814928 -0.264406651
vn -0 -0.998906851 -0.0467445329
vn -0.461964995 -0.876671016 -0.134299502
vn -0.10843084 -0.989000142 0.100605406
vn -0 -0.97015059 0.242503271
vn -0.751623809 -0.64710319 0.127746537
vn -0 -0.124286845 -0.99224633
vn -0.161703393 0.33111304 0.929632306
vn -0.751623809 -0.64710319 0.127746537
vn 0.271185815 0.417338312 0.867344737
vn -0.161703393 0.33111304 0.929632306
vn 0.45479241 0.706126928 0.542723358
vn 0.439530194 0.830071509 0.343211949
vn 0.338982046 0.938732445 0.0622295029
vn 0.427529246 0.607805848 0.669171631
vn 0.593747854 0.520588279 0.613556325
vn 0.271185815 0.417338312 0.867344737
vn 0.46252954 0.174290627 0.869303823
vn -0.751623809 -0.64710319 0.127746537
vn -0.751623809 -0.64710319 0.127746537
vn -0.461964995 -0.876671016 -0.134299502
vn -0.405940831 -0.874814928 -0.264406651
vn -0.494669467 -0.78090626 -0.38142845
vn -0.892396927 -0.447900146 0.054892268
vn -0.355066806 -0.254370362 -0.899568379
vn -0.161703393 0.33111304 0.929632306
vn -0.0868169963 -0.0593671724 0.994453728
vn -0.751623809 -0.64710319 0.127746537
vn -0.161703393 0.33111304 0.929632306
vn -0.0868169963 -0.0593671724 0.994453728
vn 0.271185815 0.417338312 0.867344737
vn -0.141221285 0.78023082 -0.609340966
vn -0.764977515 0.356218159 -0.536579907
vn -0.865957499 -0.385811239 -0.318225294
vn -0.872178018 -0.338423967 -0.353234619
vn -0.663599372 -0.639854252 -0.387585342
vn -0.663599372 -0.639854252 -0.387585342
vn 0.83188206 0.38021183 -0.404241472
g green_mag_pve_f_4_pelvis_0
f 3/3/3 2/2/2 1/1/1
f 4/4/4 1/1/1 2/2/2
f 2/2/2 5/5/5 4/4/4
f 6/6/6 4/4/4 5/5/5
f 2/2/2 3/3/3 7/7/7
f 7/7/7 8/8/8 2/2/2
f 8/8/8 7/7/7 9/9/9
f 10/10/10 9/9/9 7/7/7
f 10/10/10 11/11/11 9/9/9
f 12/12/12 9/9/9 11/11/11
f 11/11/11 10/10/10 13/13/13
f 14/14/14 13/13/13 10/10/10
f 7/7/7 15/15/15 10/10/10
f 3/3/3 16/16/16 15/15/15
f 3/3/3 1/1/1 16/16/16
f 1/1/1 17/17/17 16/16/16
f 18/18/18 15/15/15 16/16/16
f 16/16/16 19/19/19 18/18/18
f 20/20/20 18/18/18 19/19/19
f 20/20/20 15/15/15 18/18/18
f 20/20/20 19/19/19 14/14/14
f 15/15/15 20/20/20 10/10/10
f 14/14/14 10/10/10 20/20/20
f 14/14/14 19/19/19 21/21/21
f 22/22/22 21/21/21 19/19/19
f 17/17/17 22/22/22 16/16/16
f 19/19/19 16/16/16 22/22/22
f 22/22/22 23/23/23 21/21/21
f 14/14/14 21/21/21 24/24/24
f 13/13/13 14/14/14 24/24/24
f 25/25/25 24/24/24 21/21/21
f 24/24/24 26/26/26 13/13/13
f 11/11/11 13/13/13 26/26/26
f 26/26/26 27/27/27 11/11/11
f 12/12/12 11/11/11 27/27/27
f 27/27/27 26/26/26 28/28/28
f 29/29/29 28/28/28 26/26/26
f 26/26/26 24/24/24 29/29/29
f 30/30/30 29/29/29 24/24/24
f 29/29/29 30/30/30 31/31/31
f 32/32/32 31/31/31 30/30/30
f 30/30/30 24/24/24 32/32/32
f 28/28/28 29/29/29 33/33/33
f 31/31/31 33/33/33 29/29/29
f 33/33/33 31/31/31 34/34/34
f 35/35/35 34/34/34 31/31/31
f 32/32/32 36/36/36 31/31/31
f 35/35/35 31/31/31 36/36/36
f 34/34/34 35/35/35 37/37/37
f 38/38/38 37/37/37 35/35/35
f 35/35/35 36/36/36 38/38/38
f 37/37/37 38/38/38 39/39/39
f 40/40/40 39/39/39 38/38/38
f 40/40/40 38/38/38 36/36/36
f 40/40/40 36/36/36 41/41/41
f 32/32/32 41/41/41 36/36/36
f 40/40/40 41/41/41 39/39/39
f 41/41/41 32/32/32 42/42/42
f 43/43/43 42/42/42 32/32/32
f 32/32/32 24/24/24 43/43/43
f 25/25/25 43/43/43 24/24/24
f 44/44/44 39/39/39 41/41/41
f 41/41/41 45/45/45 44/44/44
f 33/33/33 34/34/34 46/46/46
f 46/46/46 47/47/47 33/33/33
f 47/47/47 46/46/46 48/48/48
f 48/48/48 49/49/49 47/47/47
f 50/50/50 47/47/47 49/49/49
f 49/49/49 51/51/51 50/50/50
f 52/52/52 50/50/50 51/51/51
f 52/52/52 51/51/51 53/53/53
f 53/53/53 9/9/9 52/52/52
f 53/53/53 54/54/54 9/9/9
f 55/55/55 9/9/9 54/54/54
f 54/54/54 56/56/56 55/55/55
f 56/56/56 54/54/54 57/57/57
f 57/57/57 58/58/58 56/56/56
f 59/59/59 56/56/56 58/58/58
f 56/56/56 59/59/59 5/5/5
f 60/60/60 5/5/5 59/59/59
f 61/61/61 57/57/57 54/54/54
f 61/61/61 54/54/54 53/53/53
f 57/57/57 61/61/61 62/62/62
f 58/58/58 57/57/57 62/62/62
f 63/63/63 62/62/62 61/61/61
f 62/62/62 63/63/63 64/64/64
f 65/65/65 64/64/64 63/63/63
f 61/61/61 65/65/65 63/63/63
f 61/61/61 53/53/53 65/65/65
f 64/64/64 65/65/65 66/66/66
f 66/66/66 65/65/65 53/53/53
f 66/66/66 53/53/53 51/51/51
f 66/66/66 51/51/51 49/49/49
f 66/66/66 49/49/49 67/67/67
f 68/68/68 67/67/67 49/49/49
f 68/68/68 49/49/49 69/69/69
f 70/70/70 69/69/69 49/49/49
f 49/49/49 48/48/48 70/70/70
f 70/70/70 48/48/48 46/46/46
f 70/70/70 46/46/46 71/71/71
f 72/72/72 71/71/71 46/46/46
f 72/72/72 46/46/46 34/34/34
f 34/34/34 37/37/37 72/72/72
f 73/73/73 72/72/72 37/37/37
f 72/72/72 73/73/73 71/71/71
f 37/37/37 39/39/39 73/73/73
f 74/74/74 73/73/73 39/39/39
f 74/74/74 71/71/71 73/73/73
f 69/69/69 70/70/70 75/75/75
f 76/76/76 75/75/75 70/70/70
f 74/74/74 76/76/76 71/71/71
f 74/74/74 39/39/39 76/76/76
f 76/76/76 44/44/44 75/75/75
f 44/44/44 76/76/76 39/39/39
f 70/70/70 78/78/78 77/77/77
f 80/80/80 2/2/2 79/79/79
f 82/82/82 7/7/7 81/81/81
f 85/85/85 84/84/84 83/83/83
f 84/84/84 86/86/86 83/83/83
f 87/87/87 83/83/83 86/86/86
f 87/87/87 86/86/86 88/88/88
f 89/89/89 88/88/88 86/86/86
f 87/87/87 90/90/90 83/83/83
f 87/87/87 88/88/88 90/90/90
f 91/91/91 83/83/83 90/90/90
f 92/92/92 90/90/90 88/88/88
f 89/89/89 93/93/93 88/88/88
f 94/94/94 88/88/88 93/93/93
f 88/88/88 94/94/94 92/92/92
f 95/95/95 92/92/92 94/94/94
f 92/92/92 96/96/96 90/90/90
f 92/92/92 95/95/95 96/96/96
f 97/97/97 90/90/90 96/96/96
f 90/90/90 97/97/97 91/91/91
f 98/98/98 91/91/91 97/97/97
f 83/83/83 91/91/91 99/99/99
f 98/98/98 100/100/100 91/91/91
f 89/89/89 101/101/101 93/93/93
f 102/102/102 93/93/93 101/101/101
f 101/101/101 89/89/89 103/103/103
f 86/86/86 103/103/103 89/89/89
f 86/86/86 84/84/84 103/103/103
f 85/85/85 103/103/103 84/84/84
f 101/101/101 104/104/104 102/102/102
f 105/105/105 102/102/102 104/104/104
f 103/103/103 106/106/106 101/101/101
f 104/104/104 101/101/101 106/106/106
f 85/85/85 107/107/107 103/103/103
f 106/106/106 103/103/103 107/107/107
f 104/104/104 108/108/108 105/105/105
f 109/109/109 105/105/105 108/108/108
f 106/106/106 110/110/110 104/104/104
f 108/108/108 104/104/104 110/110/110
f 110/110/110 106/106/106 111/111/111
f 107/107/107 111/111/111 106/106/106
f 111/111/111 107/107/107 85/85/85
f 108/108/108 112/112/112 109/109/109
f 113/113/113 109/109/109 112/112/112
f 110/110/110 114/114/114 108/108/108
f 112/112/112 108/108/108 114/114/114
f 114/114/114 110/110/110 115/115/115
f 111/111/111 115/115/115 110/110/110
f 109/109/109 116/116/116 105/105/105
f 117/117/117 105/105/105 116/116/116
f 105/105/105 117/117/117 102/102/102
f 118/118/118 102/102/102 117/117/117
f 102/102/102 118/118/118 93/93/93
f 119/119/119 93/93/93 118/118/118
f 119/119/119 120/120/120 93/93/93
f 119/119/119 121/121/121 120/120/120
f 122/122/122 120/120/120 121/121/121
f 122/122/122 121/121/121 123/123/123
f 124/124/124 123/123/123 121/121/121
f 124/124/124 125/125/125 123/123/123
f 122/122/122 123/123/123 126/126/126
f 122/122/122 126/126/126 120/120/120
f 127/127/127 126/126/126 123/123/123
f 128/128/128 120/120/120 126/126/126
f 94/94/94 93/93/93 120/120/120
f 120/120/120 128/128/128 94/94/94
f 95/95/95 94/94/94 128/128/128
f 118/118/118 129/129/129 119/119/119
f 121/121/121 119/119/119 129/129/129
f 121/121/121 129/129/129 124/124/124
f 125/125/125 124/124/124 129/129/129
f 129/129/129 118/118/118 130/130/130
f 117/117/117 130/130/130 118/118/118
f 130/130/130 131/131/131 129/129/129
f 125/125/125 129/129/129 131/131/131
f 130/130/130 117/117/117 132/132/132
f 116/116/116 132/132/132 117/117/117
f 131/131/131 130/130/130 133/133/133
f 132/132/132 133/133/133 130/130/130
f 131/131/131 133/133/133 125/125/125
f 132/132/132 116/116/116 134/134/134
f 135/135/135 134/134/134 116/116/116
f 116/116/116 109/109/109 135/135/135
f 113/113/113 135/135/135 109/109/109
f 133/133/133 132/132/132 136/136/136
f 134/134/134 136/136/136 132/132/132
f 113/113/113 137/137/137 135/135/135
f 113/113/113 112/112/112 137/137/137
f 138/138/138 137/137/137 112/112/112
f 138/138/138 139/139/139 137/137/137
f 140/140/140 137/137/137 139/139/139
f 138/138/138 141/141/141 139/139/139
f 142/142/142 139/139/139 141/141/141
f 142/142/142 141/141/141 143/143/143
f 144/144/144 143/143/143 141/141/141
f 141/141/141 114/114/114 144/144/144
f 112/112/112 114/114/114 138/138/138
f 141/141/141 138/138/138 114/114/114
f 115/115/115 144/144/144 114/114/114
f 145/145/145 135/135/135 137/137/137
f 137/137/137 140/140/140 145/145/145
f 135/135/135 145/145/145 134/134/134
f 146/146/146 134/134/134 145/145/145
f 145/145/145 147/147/147 146/146/146
f 148/148/148 146/146/146 147/147/147
f 146/146/146 149/149/149 134/134/134
f 149/149/149 150/150/150 134/134/134
f 136/136/136 134/134/134 150/150/150
f 146/146/146 148/148/148 151/151/151
f 152/152/152 151/151/151 148/148/148
f 142/142/142 143/143/143 153/153/153
f 142/142/142 153/153/153 154/154/154
f 155/155/155 154/154/154 153/153/153
f 155/155/155 153/153/153 156/156/156
f 157/157/157 156/156/156 153/153/153
f 153/153/153 158/158/158 157/157/157
f 159/159/159 157/157/157 158/158/158
f 157/157/157 159/159/159 160/160/160
f 161/161/161 160/160/160 159/159/159
f 160/160/160 161/161/161 162/162/162
f 163/163/163 162/162/162 161/161/161
f 162/162/162 163/163/163 164/164/164
f 158/158/158 153/153/153 143/143/143
f 156/156/156 157/157/157 165/165/165
f 160/160/160 165/165/165 157/157/157
f 165/165/165 160/160/160 166/166/166
f 162/162/162 166/166/166 160/160/160
f 166/166/166 162/162/162 167/167/167
f 164/164/164 167/167/167 162/162/162
f 139/139/139 142/142/142 154/154/154
f 154/154/154 168/168/168 139/139/139
f 169/169/169 139/139/139 168/168/168
f 169/169/169 170/170/170 139/139/139
f 170/170/170 169/169/169 171/171/171
f 171/171/171 172/172/172 170/170/170
f 173/173/173 171/171/171 169/169/169
f 174/174/174 139/139/139 170/170/170
f 174/174/174 170/170/170 175/175/175
f 176/176/176 175/175/175 170/170/170
f 165/165/165 166/166/166 177/177/177
f 165/165/165 177/177/177 156/156/156
f 178/178/178 156/156/156 177/177/177
f 177/177/177 179/179/179 178/178/178
f 177/177/177 180/180/180 179/179/179
f 181/181/181 179/179/179 180/180/180
f 181/181/181 180/180/180 182/182/182
f 167/167/167 182/182/182 180/180/180
f 183/183/183 178/178/178 179/179/179
f 180/180/180 177/177/177 166/166/166
f 180/180/180 166/166/166 167/167/167
f 178/178/178 183/183/183 184/184/184
f 185/185/185 184/184/184 183/183/183
f 156/156/156 178/178/178 155/155/155
f 184/184/184 155/155/155 178/178/178
f 185/185/185 186/186/186 184/184/184
f 168/168/168 184/184/184 186/186/186
f 155/155/155 184/184/184 154/154/154
f 168/168/168 154/154/154 184/184/184
f 168/168/168 186/186/186 169/169/169
f 173/173/173 169/169/169 186/186/186
f 173/173/173 186/186/186 187/187/187
f 185/185/185 187/187/187 186/186/186
f 187/187/187 188/188/188 173/173/173
f 188/188/188 187/187/187 189/189/189
f 189/189/189 190/190/190 188/188/188
f 190/190/190 189/189/189 191/191/191
f 192/192/192 191/191/191 189/189/189
f 191/191/191 192/192/192 193/193/193
f 194/194/194 193/193/193 192/192/192
f 192/192/192 195/195/195 194/194/194
f 196/196/196 194/194/194 195/195/195
f 194/194/194 197/197/197 193/193/193
f 194/194/194 196/196/196 197/197/197
f 198/198/198 193/193/193 197/197/197
f 199/199/199 197/197/197 196/196/196
f 195/195/195 192/192/192 200/200/200
f 189/189/189 200/200/200 192/192/192
f 200/200/200 189/189/189 187/187/187
f 201/201/201 188/188/188 190/190/190
f 188/188/188 201/201/201 171/171/171
f 172/172/172 171/171/171 201/201/201
f 171/171/171 173/173/173 188/188/188
f 200/200/200 183/183/183 195/195/195
f 183/183/183 200/200/200 185/185/185
f 187/187/187 185/185/185 200/200/200
f 179/179/179 195/195/195 183/183/183
f 195/195/195 179/179/179 196/196/196
f 181/181/181 196/196/196 179/179/179
f 199/199/199 196/196/196 182/182/182
f 181/181/181 182/182/182 196/196/196
f 203/203/203 202/202/202 56/56/56
f 12/12/12 52/52/52 9/9/9
f 12/12/12 27/27/27 52/52/52
f 50/50/50 52/52/52 27/27/27
f 27/27/27 28/28/28 50/50/50
f 47/47/47 50/50/50 28/28/28
f 28/28/28 33/33/33 47/47/47
f 205/205/205 145/145/145 204/204/204
f 204/204/204 145/145/145 140/140/140
f 140/140/140 174/174/174 204/204/204
f 174/174/174 140/140/140 139/139/139
f 175/175/175 204/204/204 174/174/174
f 207/207/207 205/205/205 206/206/206
f 207/207/207 208/208/208 205/205/205
f 209/209/209 205/205/205 208/208/208
f 208/208/208 207/207/207 210/210/210
f 211/211/211 210/210/210 207/207/207
f 211/211/211 212/212/212 210/210/210
f 212/212/212 211/211/211 213/213/213
f 213/213/213 214/214/214 212/212/212
f 213/213/213 215/215/215 214/214/214
f 216/216/216 214/214/214 215/215/215
f 214/214/214 216/216/216 217/217/217
f 218/218/218 217/217/217 216/216/216
f 217/217/217 218/218/218 219/219/219
f 220/220/220 219/219/219 218/218/218
f 220/220/220 221/221/221 219/219/219
f 220/220/220 222/222/222 221/221/221
f 223/223/223 221/221/221 222/222/222
f 223/223/223 222/222/222 224/224/224
f 225/225/225 224/224/224 222/222/222
f 225/225/225 226/226/226 224/224/224
f 223/223/223 224/224/224 227/227/227
f 223/223/223 227/227/227 221/221/221
f 228/228/228 227/227/227 224/224/224
f 229/229/229 221/221/221 227/227/227
f 230/230/230 219/219/219 221/221/221
f 221/221/221 229/229/229 230/230/230
f 231/231/231 230/230/230 229/229/229
f 229/229/229 227/227/227 232/232/232
f 229/229/229 232/232/232 231/231/231
f 233/233/233 232/232/232 227/227/227
f 227/227/227 228/228/228 233/233/233
f 234/234/234 233/233/233 228/228/228
f 234/234/234 228/228/228 235/235/235
f 224/224/224 236/236/236 228/228/228
f 222/222/222 237/237/237 225/225/225
f 226/226/226 225/225/225 237/237/237
f 222/222/222 220/220/220 237/237/237
f 218/218/218 237/237/237 220/220/220
f 237/237/237 218/218/218 238/238/238
f 216/216/216 238/238/238 218/218/218
f 238/238/238 239/239/239 237/237/237
f 226/226/226 237/237/237 239/239/239
f 238/238/238 216/216/216 240/240/240
f 215/215/215 240/240/240 216/216/216
f 239/239/239 238/238/238 241/241/241
f 240/240/240 241/241/241 238/238/238
f 239/239/239 241/241/241 226/226/226
f 240/240/240 215/215/215 242/242/242
f 243/243/243 242/242/242 215/215/215
f 215/215/215 213/213/213 243/243/243
f 244/244/244 243/243/243 213/213/213
f 241/241/241 240/240/240 245/245/245
f 242/242/242 245/245/245 240/240/240
f 244/244/244 213/213/213 211/211/211
f 245/245/245 242/242/242 246/246/246
f 247/247/247 246/246/246 242/242/242
f 246/246/246 247/247/247 248/248/248
f 249/249/249 248/248/248 247/247/247
f 249/249/249 247/247/247 250/250/250
f 251/251/251 250/250/250 247/247/247
f 247/247/247 242/242/242 251/251/251
f 243/243/243 251/251/251 242/242/242
f 251/251/251 252/252/252 250/250/250
f 244/244/244 252/252/252 243/243/243
f 251/251/251 243/243/243 252/252/252
f 244/244/244 211/211/211 252/252/252
f 253/253/253 250/250/250 252/252/252
f 207/207/207 252/252/252 211/211/211
f 252/252/252 207/207/207 253/253/253
f 249/249/249 254/254/254 248/248/248
f 255/255/255 248/248/248 254/254/254
f 254/254/254 256/256/256 255/255/255
f 257/257/257 255/255/255 256/256/256
f 256/256/256 258/258/258 257/257/257
f 259/259/259 257/257/257 258/258/258
f 258/258/258 260/260/260 259/259/259
f 261/261/261 259/259/259 260/260/260
f 260/260/260 262/262/262 261/261/261
f 206/206/206 253/253/253 207/207/207
f 249/249/249 263/263/263 254/254/254
f 264/264/264 254/254/254 263/263/263
f 256/256/256 254/254/254 265/265/265
f 264/264/264 265/265/265 254/254/254
f 258/258/258 256/256/256 266/266/266
f 265/265/265 266/266/266 256/256/256
f 260/260/260 258/258/258 267/267/267
f 266/266/266 267/267/267 258/258/258
f 262/262/262 260/260/260 268/268/268
f 267/267/267 268/268/268 260/260/260
f 249/249/249 250/250/250 263/263/263
f 263/263/263 250/250/250 269/269/269
f 270/270/270 269/269/269 250/250/250
f 270/270/270 250/250/250 271/271/271
f 271/271/271 272/272/272 270/270/270
f 272/272/272 271/271/271 273/273/273
f 274/274/274 270/270/270 272/272/272
f 275/275/275 271/271/271 250/250/250
f 275/275/275 276/276/276 271/271/271
f 277/277/277 271/271/271 276/276/276
f 266/266/266 265/265/265 278/278/278
f 266/266/266 278/278/278 267/267/267
f 279/279/279 278/278/278 265/265/265
f 278/278/278 279/279/279 280/280/280
f 278/278/278 280/280/280 281/281/281
f 281/281/281 267/267/267 278/278/278
f 267/267/267 281/281/281 268/268/268
f 282/282/282 281/281/281 280/280/280
f 268/268/268 281/281/281 283/283/283
f 282/282/282 283/283/283 281/281/281
f 284/284/284 280/280/280 279/279/279
f 279/279/279 285/285/285 284/284/284
f 286/286/286 284/284/284 285/285/285
f 285/285/285 279/279/279 264/264/264
f 265/265/265 264/264/264 279/279/279
f 286/286/286 285/285/285 287/287/287
f 269/269/269 287/287/287 285/285/285
f 269/269/269 285/285/285 263/263/263
f 264/264/264 263/263/263 285/285/285
f 269/269/269 270/270/270 287/287/287
f 274/274/274 287/287/287 270/270/270
f 286/286/286 287/287/287 288/288/288
f 274/274/274 288/288/288 287/287/287
f 288/288/288 274/274/274 289/289/289
f 289/289/289 290/290/290 288/288/288
f 290/290/290 289/289/289 291/291/291
f 291/291/291 292/292/292 290/290/290
f 293/293/293 290/290/290 292/292/292
f 292/292/292 294/294/294 293/293/293
f 295/295/295 293/293/293 294/294/294
f 293/293/293 295/295/295 296/296/296
f 297/297/297 296/296/296 295/295/295
f 295/295/295 294/294/294 298/298/298
f 295/295/295 298/298/298 297/297/297
f 299/299/299 298/298/298 294/294/294
f 300/300/300 297/297/297 298/298/298
f 290/290/290 293/293/293 301/301/301
f 296/296/296 301/301/301 293/293/293
f 301/301/301 288/288/288 290/290/290
f 302/302/302 291/291/291 289/289/289
f 289/289/289 272/272/272 302/302/302
f 273/273/273 302/302/302 272/272/272
f 272/272/272 289/289/289 274/274/274
f 301/301/301 296/296/296 284/284/284
f 284/284/284 286/286/286 301/301/301
f 288/288/288 301/301/301 286/286/286
f 280/280/280 284/284/284 296/296/296
f 296/296/296 297/297/297 280/280/280
f 282/282/282 280/280/280 297/297/297
f 282/282/282 297/297/297 283/283/283
f 300/300/300 283/283/283 297/297/297
f 304/304/304 164/164/164 303/303/303
f 151/151/151 306/306/306 305/305/305
f 306/306/306 151/151/151 307/307/307
f 307/307/307 308/308/308 306/306/306
f 307/307/307 309/309/309 308/308/308
f 310/310/310 308/308/308 309/309/309
f 309/309/309 311/311/311 310/310/310
f 312/312/312 310/310/310 311/311/311
f 312/312/312 311/311/311 313/313/313
f 314/314/314 313/313/313 311/311/311
f 313/313/313 315/315/315 312/312/312
f 316/316/316 307/307/307 151/151/151
f 318/318/318 313/313/313 317/317/317
f 320/320/320 22/22/22 319/319/319
f 321/321/321 22/22/22 320/320/320
f 23/23/23 22/22/22 321/321/321
f 23/23/23 321/321/321 322/322/322
f 22/22/22 17/17/17 319/319/319
f 323/323/323 319/319/319 17/17/17
f 323/323/323 17/17/17 324/324/324
f 1/1/1 324/324/324 17/17/17
f 1/1/1 325/325/325 324/324/324
f 327/327/327 326/326/326 62/62/62
f 328/328/328 327/327/327 62/62/62
f 62/62/62 64/64/64 328/328/328
f 329/329/329 328/328/328 64/64/64
f 64/64/64 66/66/66 329/329/329
f 67/67/67 329/329/329 66/66/66
f 67/67/67 330/330/330 329/329/329
f 331/331/331 329/329/329 330/330/330
f 58/58/58 62/62/62 332/332/332
f 59/59/59 58/58/58 333/333/333
f 334/334/334 59/59/59 333/333/333
f 335/335/335 333/333/333 58/58/58
f 4/4/4 337/337/337 336/336/336
f 338/338/338 4/4/4 336/336/336
f 340/340/340 339/339/339 136/136/136
f 341/341/341 96/96/96 95/95/95
f 341/341/341 95/95/95 342/342/342
f 128/128/128 342/342/342 95/95/95
f 128/128/128 126/126/126 342/342/342
f 343/343/343 342/342/342 126/126/126
f 126/126/126 127/127/127 343/343/343
f 344/344/344 343/343/343 127/127/127
f 344/344/344 127/127/127 345/345/345
f 344/344/344 346/346/346 343/343/343
f 123/123/123 346/346/346 127/127/127
f 97/97/97 347/347/347 98/98/98
f 349/349/349 170/170/170 348/348/348
f 349/349/349 348/348/348 271/271/271
f 352/352/352 351/351/351 350/350/350
f 353/353/353 350/350/350 351/351/351
f 351/351/351 352/352/352 354/354/354
f 355/355/355 354/354/354 352/352/352
f 351/351/351 356/356/356 353/353/353
f 356/356/356 351/351/351 357/357/357
f 357/357/357 358/358/358 356/356/356
f 359/359/359 356/356/356 358/358/358
f 359/359/359 358/358/358 360/360/360
f 361/361/361 360/360/360 358/358/358
f 360/360/360 362/362/362 359/359/359
f 363/363/363 359/359/359 362/362/362
f 364/364/364 356/356/356 359/359/359
f 353/353/353 364/364/364 365/365/365
f 350/350/350 353/353/353 365/365/365
f 366/366/366 350/350/350 365/365/365
f 367/367/367 365/365/365 364/364/364
f 365/365/365 367/367/367 368/368/368
f 369/369/369 368/368/368 367/367/367
f 364/364/364 369/369/369 367/367/367
f 368/368/368 369/369/369 363/363/363
f 363/363/363 369/369/369 359/359/359
f 364/364/364 359/359/359 369/369/369
f 363/363/363 370/370/370 368/368/368
f 371/371/371 368/368/368 370/370/370
f 368/368/368 371/371/371 365/365/365
f 366/366/366 365/365/365 371/371/371
f 372/372/372 371/371/371 370/370/370
f 363/363/363 373/373/373 370/370/370
f 363/363/363 362/362/362 373/373/373
f 374/374/374 370/370/370 373/373/373
f 360/360/360 375/375/375 362/362/362
f 373/373/373 362/362/362 375/375/375
f 375/375/375 360/360/360 376/376/376
f 361/361/361 376/376/376 360/360/360
f 376/376/376 377/377/377 375/375/375
f 378/378/378 375/375/375 377/377/377
f 375/375/375 378/378/378 373/373/373
f 379/379/379 373/373/373 378/378/378
f 378/378/378 380/380/380 379/379/379
f 381/381/381 379/379/379 380/380/380
f 373/373/373 379/379/379 381/381/381
f 380/380/380 378/378/378 382/382/382
f 377/377/377 382/382/382 378/378/378
f 382/382/382 383/383/383 380/380/380
f 384/384/384 380/380/380 383/383/383
f 384/384/384 385/385/385 380/380/380
f 381/381/381 380/380/380 385/385/385
f 383/383/383 386/386/386 384/384/384
f 387/387/387 384/384/384 386/386/386
f 384/384/384 387/387/387 385/385/385
f 386/386/386 388/388/388 387/387/387
f 389/389/389 387/387/387 388/388/388
f 389/389/389 385/385/385 387/387/387
f 381/381/381 385/385/385 390/390/390
f 389/389/389 390/390/390 385/385/385
f 389/389/389 388/388/388 390/390/390
f 390/390/390 391/391/391 381/381/381
f 392/392/392 381/381/381 391/391/391
f 381/381/381 392/392/392 373/373/373
f 374/374/374 373/373/373 392/392/392
f 393/393/393 390/390/390 388/388/388
f 394/394/394 390/390/390 393/393/393
f 382/382/382 395/395/395 383/383/383
f 395/395/395 382/382/382 396/396/396
f 396/396/396 397/397/397 395/395/395
f 397/397/397 396/396/396 398/398/398
f 399/399/399 398/398/398 396/396/396
f 398/398/398 399/399/399 400/400/400
f 401/401/401 400/400/400 399/399/399
f 401/401/401 402/402/402 400/400/400
f 402/402/402 401/401/401 358/358/358
f 402/402/402 358/358/358 403/403/403
f 404/404/404 403/403/403 358/358/358
f 403/403/403 404/404/404 405/405/405
f 405/405/405 406/406/406 403/403/403
f 406/406/406 405/405/405 407/407/407
f 408/408/408 407/407/407 405/405/405
f 405/405/405 354/354/354 408/408/408
f 409/409/409 408/408/408 354/354/354
f 410/410/410 403/403/403 406/406/406
f 403/403/403 410/410/410 402/402/402
f 406/406/406 411/411/411 410/410/410
f 406/406/406 407/407/407 411/411/411
f 412/412/412 410/410/410 411/411/411
f 411/411/411 413/413/413 412/412/412
f 414/414/414 412/412/412 413/413/413
f 414/414/414 410/410/410 412/412/412
f 410/410/410 414/414/414 402/402/402
f 414/414/414 413/413/413 415/415/415
f 415/415/415 402/402/402 414/414/414
f 415/415/415 400/400/400 402/402/402
f 400/400/400 415/415/415 398/398/398
f 415/415/415 416/416/416 398/398/398
f 417/417/417 398/398/398 416/416/416
f 417/417/417 418/418/418 398/398/398
f 419/419/419 398/398/398 418/418/418
f 397/397/397 398/398/398 419/419/419
f 419/419/419 395/395/395 397/397/397
f 419/419/419 420/420/420 395/395/395
f 421/421/421 395/395/395 420/420/420
f 421/421/421 383/383/383 395/395/395
f 383/383/383 421/421/421 386/386/386
f 422/422/422 386/386/386 421/421/421
f 421/421/421 420/420/420 422/422/422
f 386/386/386 422/422/422 388/388/388
f 423/423/423 388/388/388 422/422/422
f 423/423/423 422/422/422 420/420/420
f 418/418/418 424/424/424 419/419/419
f 425/425/425 419/419/419 424/424/424
f 423/423/423 420/420/420 425/425/425
f 423/423/423 425/425/425 388/388/388
f 393/393/393 425/425/425 424/424/424
f 393/393/393 388/388/388 425/425/425
f 419/419/419 427/427/427 426/426/426
f 429/429/429 428/428/428 351/351/351
f 431/431/431 430/430/430 356/356/356
f 433/433/433 405/405/405 432/432/432
f 361/361/361 358/358/358 401/401/401
f 361/361/361 401/401/401 376/376/376
f 399/399/399 376/376/376 401/401/401
f 376/376/376 399/399/399 377/377/377
f 396/396/396 377/377/377 399/399/399
f 377/377/377 396/396/396 382/382/382
f 436/436/436 435/435/435 434/434/434
f 435/435/435 437/437/437 434/434/434
f 438/438/438 434/434/434 437/437/437
f 438/438/438 437/437/437 439/439/439
f 440/440/440 439/439/439 437/437/437
f 438/438/438 441/441/441 434/434/434
f 438/438/438 439/439/439 441/441/441
f 442/442/442 434/434/434 441/441/441
f 443/443/443 441/441/441 439/439/439
f 440/440/440 219/219/219 439/439/439
f 230/230/230 439/439/439 219/219/219
f 439/439/439 230/230/230 443/443/443
f 231/231/231 443/443/443 230/230/230
f 440/440/440 444/444/444 219/219/219
f 217/217/217 219/219/219 444/444/444
f 437/437/437 445/445/445 440/440/440
f 444/444/444 440/440/440 445/445/445
f 436/436/436 445/445/445 435/435/435
f 437/437/437 435/435/435 445/445/445
f 444/444/444 446/446/446 217/217/217
f 214/214/214 217/217/217 446/446/446
f 445/445/445 447/447/447 444/444/444
f 446/446/446 444/444/444 447/447/447
f 447/447/447 445/445/445 448/448/448
f 436/436/436 448/448/448 445/445/445
f 446/446/446 212/212/212 214/214/214
f 447/447/447 449/449/449 446/446/446
f 212/212/212 446/446/446 449/449/449
f 449/449/449 447/447/447 450/450/450
f 448/448/448 450/450/450 447/447/447
f 450/450/450 448/448/448 436/436/436
f 449/449/449 210/210/210 212/212/212
f 210/210/210 449/449/449 451/451/451
f 450/450/450 451/451/451 449/449/449
f 451/451/451 452/452/452 210/210/210
f 453/453/453 210/210/210 452/452/452
f 453/453/453 208/208/208 210/210/210
f 455/455/455 454/454/454 451/451/451
f 208/208/208 456/456/456 209/209/209
f 457/457/457 209/209/209 456/456/456
f 459/459/459 456/456/456 458/458/458
f 459/459/459 460/460/460 456/456/456
f 461/461/461 460/460/460 459/459/459
f 460/460/460 461/461/461 462/462/462
f 463/463/463 462/462/462 461/461/461
f 462/462/462 463/463/463 464/464/464
f 465/465/465 464/464/464 463/463/463
f 465/465/465 466/466/466 464/464/464
f 467/467/467 464/464/464 466/466/466
f 468/468/468 466/466/466 465/465/465
f 469/469/469 456/456/456 460/460/460
f 466/466/466 471/471/471 470/470/470
f 473/473/473 472/472/472 262/262/262
f 371/371/371 475/475/475 474/474/474
f 371/371/371 476/476/476 475/475/475
f 371/371/371 372/372/372 476/476/476
f 476/476/476 372/372/372 477/477/477
f 371/371/371 474/474/474 366/366/366
f 478/478/478 366/366/366 474/474/474
f 478/478/478 479/479/479 366/366/366
f 350/350/350 366/366/366 479/479/479
f 480/480/480 350/350/350 479/479/479
f 407/407/407 481/481/481 411/411/411
f 483/483/483 411/411/411 482/482/482
f 483/483/483 484/484/484 411/411/411
f 411/411/411 484/484/484 413/413/413
f 485/485/485 413/413/413 484/484/484
f 413/413/413 485/485/485 415/415/415
f 416/416/416 415/415/415 485/485/485
f 416/416/416 485/485/485 486/486/486
f 487/487/487 486/486/486 485/485/485
f 407/407/407 408/408/408 488/488/488
f 408/408/408 489/489/489 488/488/488
f 488/488/488 490/490/490 407/407/407
f 492/492/492 352/352/352 491/491/491
f 352/352/352 493/493/493 491/491/491
f 494/494/494 231/231/231 232/232/232
f 494/494/494 495/495/495 231/231/231
f 443/443/443 231/231/231 495/495/495
f 443/443/443 495/495/495 441/441/441
f 496/496/496 441/441/441 495/495/495
f 441/441/441 496/496/496 442/442/442
f 497/497/497 442/442/442 496/496/496
f 497/497/497 498/498/498 442/442/442
f 499/499/499 497/497/497 496/496/496
f 434/434/434 442/442/442 499/499/499
f 500/500/500 233/233/233 234/234/234
f 253/253/253 275/275/275 250/250/250
f 253/253/253 206/206/206 275/275/275
f 276/276/276 275/275/275 206/206/206
