g hand_r
v -0.274834007 -0.0247612987 1.35781991
v -0.317016989 -0.015743399 1.33003008
v -0.294449002 -0.00591717009 1.36404991
v -0.298335969 -0.0345433988 1.32408988
v -0.275889993 -0.0364485011 1.30992007
v -0.25624001 -0.0243775006 1.34635997
v -0.324499995 -0.0488438979 1.26896
v -0.339634001 -0.0339054987 1.27219999
v -0.300536007 -0.0540276989 1.25878
v -0.326423973 -0.0624886975 1.21157992
v -0.342835009 -0.0543192998 1.22224998
v -0.353160024 -0.0400237963 1.22887993
v -0.341185004 0.00727854017 1.26871002
v -0.356882989 -0.00471601961 1.22687995
v -0.348347992 0.0102172997 1.21510005
v -0.327596009 0.0255842991 1.26157999
v -0.327113003 0.0137192998 1.19818997
v -0.377218008 -0.0197128002 1.15785003
v -0.36006099 -0.0117922993 1.14427996
v -0.39377898 -0.0296621975 1.10184991
v -0.380190015 -0.0288798995 1.09682
v -0.340065986 -0.0333510004 1.13822997
v -0.363357008 -0.0496109985 1.09105003
v -0.390509993 -0.0353701971 1.06808996
v -0.373340994 -0.0608661957 1.06430995
v -0.299552977 0.029992098 1.24977994
v -0.281250983 0.0372757986 1.2957499
v -0.252858996 0.00385695975 1.28065991
v -0.274286985 -0.00111848 1.24226999
v -0.299230993 0.0413751975 1.30767
v -0.263782978 0.0499490015 1.32835996
v -0.282398999 0.0493149981 1.33990991
v -0.307169974 -0.0145011991 1.18724
v -0.235659003 0.00726671983 1.32389998
v -0.290998995 0.0249011982 1.35257006
v -0.312813997 0.0170916002 1.31924999
v -0.238372982 -0.0130547993 1.3319
v -0.252858996 0.00385695975 1.28065991
v -0.257337004 -0.0301292986 1.29174995
v -0.235659003 0.00726671983 1.32389998
v -0.274286985 -0.00111848 1.24226999
v -0.27867201 -0.0419880003 1.24699998
v -0.307169974 -0.0145011991 1.18724
v -0.308086991 -0.0515509993 1.19649005
v -0.340065986 -0.0333510004 1.13822997
v -0.333824009 -0.0643190965 1.14558995
v -0.363357008 -0.0496109985 1.09105003
v -0.354966015 -0.0762868002 1.10042
v -0.377178997 -0.0864666998 1.11248994
v -0.357078999 -0.0747762993 1.16204
v -0.376851976 -0.0942201018 1.08103991
v -0.363043994 -0.0864323974 1.07290995
v -0.373340994 -0.0608661957 1.06430995
v -0.363043994 -0.0864323974 1.07290995
v -0.368849963 -0.0629273951 1.16596997
v -0.377949983 -0.0464658998 1.16719997
v -0.389706999 -0.0734611005 1.11291003
v -0.401454985 -0.0478894971 1.10817003
v -0.397347987 -0.0796472952 1.07939005
v -0.409376979 -0.050554499 1.07938004
v -0.403607994 -0.0336963013 1.07595003
v -0.432761997 -0.100040995 0.87231499
v -0.434662998 -0.106912002 0.864158988
v -0.429963976 -0.104865998 0.870894015
v -0.437718987 -0.100256003 0.867632985
v -0.442048967 -0.103649996 0.866994977
v -0.439150989 -0.108347997 0.864085972
v -0.429393977 -0.110208996 0.873140991
v -0.433321983 -0.113576002 0.868700027
v -0.435871005 -0.113455996 0.895901024
v -0.429984987 -0.109611996 0.893610001
v -0.438820004 -0.113405995 0.867788017
v -0.433718979 -0.0985459983 0.892773926
v -0.441083968 -0.0985212997 0.894760966
v -0.437718987 -0.100256003 0.867632985
v -0.433059007 -0.0977902934 0.898640931
v -0.435900986 -0.0932194963 0.926063955
v -0.427468985 -0.0940507948 0.920154035
v -0.429177999 -0.109026 0.899587989
v -0.423231989 -0.105387002 0.921135008
v -0.42613399 -0.0928878933 0.926464975
v -0.420975 -0.0860695988 0.953310013
v -0.42175597 -0.104480997 0.927565992
v -0.414730966 -0.101790994 0.955529988
v -0.429794997 -0.109778002 0.927403033
v -0.42454201 -0.107400998 0.957643926
v -0.411496997 -0.107764997 0.957425952
v -0.423134983 -0.109996997 0.958719969
v -0.412495971 -0.0789131969 0.963615
v -0.403498977 -0.100192003 0.96477896
v -0.388220996 -0.115293995 0.986283004
v -0.401753992 -0.0790174976 0.989196002
v -0.401603997 -0.119868003 0.963934004
v -0.409608006 -0.125867993 0.970688999
v -0.394556999 -0.122690998 0.995588958
v -0.375717014 -0.130467996 0.997103989
v -0.412277967 -0.126863003 0.934855998
v -0.417067975 -0.115029998 0.932979941
v -0.42643699 -0.115649991 0.931145012
v -0.423134983 -0.109996997 0.958719969
v -0.413801998 -0.128004998 0.928818941
v -0.418151021 -0.116409995 0.927142978
v -0.417555988 -0.131400004 0.909452975
v -0.421190977 -0.121077001 0.907675982
v -0.428442985 -0.121348999 0.903149009
v -0.419766009 -0.132607996 0.934251964
v -0.409608006 -0.125867993 0.970688999
v -0.423103958 -0.136443004 0.905752003
v -0.417620987 -0.131990999 0.904618979
v -0.414988995 -0.133936986 0.884527922
v -0.418090999 -0.137075007 0.880150974
v -0.41941002 -0.131197989 0.875607967
v -0.41565299 -0.129123002 0.882167935
v -0.421131998 -0.121958993 0.90289396
v -0.418233991 -0.124375999 0.882925987
v -0.422239989 -0.124658003 0.87816
v -0.425886005 -0.127272993 0.876982987
v -0.423595995 -0.132559001 0.875055969
v -0.420619994 -0.133139998 0.867218971
v -0.422560006 -0.1373 0.878546
v -0.420249999 -0.135315999 0.869830966
v -0.421875983 -0.130400002 0.869060934
v -0.422560006 -0.1373 0.878546
v -0.423595995 -0.132559001 0.875055969
v -0.418090999 -0.137075007 0.880150974
v -0.42986998 -0.0556728989 0.896853983
v -0.428863972 -0.059973795 0.889843941
v -0.427787989 -0.0588081963 0.896600008
v -0.431677014 -0.0556265004 0.891775966
v -0.442620993 -0.055171296 0.911414981
v -0.43738398 -0.0558008999 0.911517978
v -0.433919966 -0.0570589006 0.89013195
v -0.431313008 -0.0607841015 0.888671994
v -0.42809999 -0.0625037998 0.897583008
v -0.429240972 -0.064666599 0.892772973
v -0.431715012 -0.0648806989 0.891077995
v -0.435726017 -0.063267 0.91237998
v -0.439441979 -0.0667354017 0.912954032
v -0.429240972 -0.064666599 0.892772973
v -0.438032985 -0.0554030985 0.915133953
v -0.444429994 -0.0517177992 0.936494946
v -0.438309997 -0.0527693965 0.93233496
v -0.436223984 -0.0631010979 0.916055977
v -0.435656011 -0.061338 0.933373034
v -0.437543988 -0.0517546982 0.937818944
v -0.437244982 -0.0446814001 0.972962022
v -0.428933978 -0.0453545973 0.969474971
v -0.428339005 -0.0583472997 0.963013947
v -0.434780002 -0.0605960973 0.938919961
v -0.440420985 -0.0649596974 0.93758595
v -0.436183006 -0.0626577958 0.961874962
v -0.430817962 -0.0377221964 1.00163996
v -0.420664996 -0.0369632989 0.998858035
v -0.419776976 -0.0469492003 0.980251968
v -0.413694978 -0.0437628962 0.998570025
v -0.39865002 -0.0420845971 1.02163994
v -0.394999981 -0.0756903961 1.01257002
v -0.405719966 -0.0331383981 1.02592003
v -0.418902993 -0.0609544963 0.971720934
v -0.389023989 -0.0399186984 1.04843998
v -0.395896971 -0.0341600999 1.05316997
v -0.421663016 -0.0349907987 1.03077996
v -0.410264015 -0.0363834985 1.05756998
v -0.390509993 -0.0353701971 1.06808996
v -0.403607994 -0.0336963013 1.07595003
v -0.381543994 -0.0676516965 1.04040003
v -0.373340994 -0.0608661957 1.06430995
v -0.379896015 -0.0853629932 1.01663005
v -0.374844998 -0.121703997 0.993214011
v -0.375717014 -0.130467996 0.997103989
v -0.366325974 -0.130986005 0.986751974
v -0.366249979 -0.0885568038 1.02184999
v -0.362981975 -0.117501996 0.99693197
v -0.365161002 -0.0753479972 1.04442
v -0.355270982 -0.0967487991 1.03130996
v -0.35355702 -0.117664002 1.00505996
v -0.352714986 -0.122810997 1.01162004
v -0.353666991 -0.109989002 1.04034996
v -0.357626975 -0.0864316002 1.05353999
v -0.360726982 -0.0977165997 1.06224
v -0.363043994 -0.0864323974 1.07290995
v -0.349137992 -0.125819996 0.994718969
v -0.343676001 -0.133468002 0.984112978
v -0.359301984 -0.137409002 0.978502989
v -0.339607984 -0.134293005 0.975113988
v -0.336562991 -0.139991 0.97558403
v -0.335344017 -0.136957988 0.962148964
v -0.332318991 -0.142554998 0.962325931
v -0.351137996 -0.141252995 0.957214952
v -0.356829971 -0.13859199 0.969576001
v -0.342032015 -0.138530001 0.986509979
v -0.331727982 -0.142515004 0.95192498
v -0.329007983 -0.147921994 0.950227916
v -0.355516016 -0.145484 0.969544947
v -0.349494994 -0.147931993 0.956965029
v -0.344859004 -0.146892995 0.947883964
v -0.342076987 -0.152349994 0.946104944
v -0.338019967 -0.144179001 0.948261976
v -0.334385991 -0.150705993 0.945037007
v -0.337915003 -0.157468989 0.946493983
v -0.332102984 -0.156542987 0.945413947
v -0.328437001 -0.154070988 0.949485004
v -0.328283012 -0.159809992 0.936724961
v -0.331328005 -0.159897998 0.938049018
v -0.326882005 -0.158484995 0.939506948
v -0.35898298 -0.143581003 0.980884969
v -0.366461962 -0.137513995 0.990680993
v -0.375717014 -0.130467996 0.997103989
v -0.436068982 -0.0773501024 0.879367948
v -0.437156975 -0.082476303 0.872129977
v -0.433774978 -0.0810711905 0.878285944
v -0.439709991 -0.0771702006 0.874988973
v -0.443953991 -0.0764682963 0.898553967
v -0.437902987 -0.0772209987 0.897352934
v -0.442850977 -0.0796872973 0.874341965
v -0.440488994 -0.0834132954 0.872008979
v -0.433530986 -0.0853483006 0.879876971
v -0.436304003 -0.0879951939 0.875706017
v -0.44027698 -0.0875529945 0.874954939
v -0.435279995 -0.0852809995 0.897669971
v -0.439959973 -0.0888594985 0.899327993
v -0.436304003 -0.0879951939 0.875706017
v -0.437714994 -0.0767280981 0.902493954
v -0.441393018 -0.0724963993 0.928049982
v -0.434533 -0.0734999999 0.923210979
v -0.434994996 -0.0850347951 0.903077006
v -0.431392998 -0.0829685926 0.923681974
v -0.430219978 -0.0822453946 0.929593921
v -0.433424979 -0.0723673999 0.929321945
v -0.42355299 -0.0798365027 0.954149008
v -0.427150995 -0.0658808947 0.956789017
v -0.436408997 -0.0664485991 0.958914995
v -0.436789006 -0.0868659019 0.928622961
v -0.432739973 -0.084785901 0.955617964
v -0.42355299 -0.0798365027 0.954149008
v -0.43194598 -0.0876852944 0.955202997
v -0.432739973 -0.084785901 0.955617964
v -0.435900986 -0.0932194963 0.926063955
v -0.436408997 -0.0664485991 0.958914995
v -0.436183006 -0.0626577958 0.961874962
v -0.423134983 -0.109996997 0.958719969
v -0.433167994 -0.106879994 0.970493019
v -0.429602981 -0.113297991 0.972335935
v -0.42454201 -0.107400998 0.957643926
v -0.439217985 -0.109609 0.930417001
v -0.43878299 -0.0916725993 0.968527973
v -0.44341898 -0.0982024968 0.929642022
v -0.429794997 -0.109778002 0.927403033
v -0.434488982 -0.0842658952 0.997305989
v -0.426798999 -0.105002001 0.998118937
v -0.420628011 -0.125733003 0.976675987
v -0.429048985 -0.132442996 0.935588002
v -0.433530986 -0.120969996 0.933584929
v -0.409608006 -0.125867993 0.970688999
v -0.419766009 -0.132607996 0.934251964
v -0.41397202 -0.119916998 1.00395
v -0.446655989 -0.103050999 0.893768013
v -0.443185002 -0.112826996 0.894440949
v -0.435871005 -0.113455996 0.895901024
v -0.433070987 -0.125979006 0.901471019
v -0.429609984 -0.136056989 0.903117955
v -0.423103958 -0.136443004 0.905752003
v -0.433321983 -0.113576002 0.868700027
v -0.438820004 -0.113405995 0.867788017
v -0.418090999 -0.137075007 0.880150974
v -0.422560006 -0.1373 0.878546
v -0.428442985 -0.121348999 0.903149009
v -0.42643699 -0.115649991 0.931145012
v -0.422239989 -0.124658003 0.87816
v -0.425886005 -0.127272993 0.876982987
v -0.441709995 -0.109196991 0.864744008
v -0.437368006 -0.111225992 0.858556986
v -0.438062996 -0.108568996 0.856046975
v -0.439185977 -0.105686992 0.858103037
v -0.442048967 -0.103649996 0.866994977
v -0.437718987 -0.100256003 0.867632985
v -0.441083968 -0.0985212997 0.894760966
v -0.435900986 -0.0932194963 0.926063955
v -0.43194598 -0.0876852944 0.955202997
v -0.440259993 -0.0844269991 0.96864301
v -0.432739973 -0.084785901 0.955617964
v -0.444578022 -0.0865752026 0.930706978
v -0.447726995 -0.0769969001 0.930146992
v -0.442988008 -0.0705348998 0.970735967
v -0.436789006 -0.0868659019 0.928622961
v -0.436841995 -0.0636009946 1.00013995
v -0.445397973 -0.087988697 0.897623956
v -0.448089957 -0.0800526962 0.897038996
v -0.439959973 -0.0888594985 0.899327993
v -0.436304003 -0.0879951939 0.875706017
v -0.44027698 -0.0875529945 0.874954939
v -0.436408997 -0.0664485991 0.958914995
v -0.441393018 -0.0724963993 0.928049982
v -0.443953991 -0.0764682963 0.898553967
v -0.439709991 -0.0771702006 0.874988973
v -0.442850977 -0.0796872973 0.874341965
v -0.427986979 -0.0481049009 1.03064001
v -0.420902997 -0.0799420029 1.0314399
v -0.393081993 -0.113166995 1.03665996
v -0.409373015 -0.0758485943 1.05936992
v -0.392197996 -0.0973923951 1.06358004
v -0.368822992 -0.118669003 1.04422998
v -0.374796987 -0.103877999 1.06668997
v -0.376851976 -0.0942201018 1.08103991
v -0.397347987 -0.0796472952 1.07939005
v -0.367727995 -0.128839999 1.02810991
v -0.359252006 -0.127220005 1.02692997
v -0.353666991 -0.109989002 1.04034996
v -0.365022004 -0.140673995 1.01216006
v -0.357084006 -0.137305006 1.01513994
v -0.360639006 -0.143555999 1.00525999
v -0.354387999 -0.140438005 1.00716996
v -0.350493997 -0.137906 1.00082994
v -0.361437976 -0.143701002 0.997310996
v -0.354674965 -0.14948599 0.984178007
v -0.343394011 -0.145502999 0.987490952
v -0.370713979 -0.136674002 1.00669992
v -0.354259968 -0.130481005 1.01425004
v -0.352714986 -0.122810997 1.01162004
v -0.348188996 -0.130830005 0.998554945
v -0.350589961 -0.151479989 0.981074989
v -0.343177974 -0.148990005 0.983260989
v -0.349067986 -0.152171001 0.975807011
v -0.340609014 -0.149388 0.978420973
v -0.336987972 -0.147283003 0.975189924
v -0.350620002 -0.151829988 0.970923007
v -0.332554996 -0.149533987 0.962419927
v -0.344906986 -0.153845996 0.958458006
v -0.349494994 -0.147931993 0.956965029
v -0.355516016 -0.145484 0.969544947
v -0.35898298 -0.143581003 0.980884969
v -0.342076987 -0.152349994 0.946104944
v -0.337915003 -0.157468989 0.946493983
v -0.332318991 -0.142554998 0.962325931
v -0.336562991 -0.139991 0.97558403
v -0.342032015 -0.138530001 0.986509979
v -0.329007983 -0.147921994 0.950227916
v -0.328437001 -0.154070988 0.949485004
v -0.366461962 -0.137513995 0.990680993
v -0.375717014 -0.130467996 0.997103989
v -0.394556999 -0.122690998 0.995588958
v -0.376161993 -0.128884003 1.01968002
v -0.375717014 -0.130467996 0.997103989
v -0.326882005 -0.158484995 0.939506948
v -0.332033992 -0.158562005 0.946904957
v -0.328283012 -0.159809992 0.936724961
v -0.331328005 -0.159897998 0.938049018
v -0.430817962 -0.0377221964 1.00163996
v -0.435872972 -0.0465919003 1.00386
v -0.421663016 -0.0349907987 1.03077996
v -0.442433 -0.049747698 0.976188958
v -0.442286968 -0.0621456988 0.975093961
v -0.450134009 -0.0558749996 0.937415004
v -0.447514981 -0.0645819008 0.938458979
v -0.44372499 -0.0658193007 0.909578025
v -0.445820004 -0.0586570948 0.908535957
v -0.439441979 -0.0667354017 0.912954032
v -0.440420985 -0.0649596974 0.93758595
v -0.436183006 -0.0626577958 0.961874962
v -0.429240972 -0.064666599 0.892772973
v -0.431715012 -0.0648806989 0.891077995
v -0.437244982 -0.0446814001 0.972962022
v -0.444429994 -0.0517177992 0.936494946
v -0.442620993 -0.055171296 0.911414981
v -0.431677014 -0.0556265004 0.891775966
v -0.433919966 -0.0570589006 0.89013195
v -0.433013976 -0.0612552017 0.888422966
v -0.427766979 -0.0622399971 0.884891927
v -0.427439988 -0.0601450019 0.883354008
v -0.42888099 -0.0582952015 0.884413958
v -0.433919966 -0.0570589006 0.89013195
v -0.436183006 -0.0626577958 0.961874962
v -0.442286968 -0.0621456988 0.975093961
v -0.436183006 -0.0626577958 0.961874962
v -0.436408997 -0.0664485991 0.958914995
v -0.436183006 -0.0626577958 0.961874962
v -0.428339005 -0.0583472997 0.963013947
v -0.360726982 -0.0977165997 1.06224
v -0.363043994 -0.0864323974 1.07290995
v -0.410264015 -0.0363834985 1.05756998
v -0.409376979 -0.050554499 1.07938004
v -0.418202013 -0.0474128984 1.05799997
v -0.403607994 -0.0336963013 1.07595003
v -0.348188996 -0.130830005 0.998554945
v -0.438062996 -0.108568996 0.856046975
v -0.438820004 -0.113405995 0.867788017
v -0.437368006 -0.111225992 0.858556986
v -0.442048967 -0.103649996 0.866994977
v -0.439185977 -0.105686992 0.858103037
v -0.439114988 -0.0831241012 0.865576982
v -0.44027698 -0.0875529945 0.874954939
v -0.438758999 -0.0854493976 0.867492974
v -0.442850977 -0.0796872973 0.874341965
v -0.440233976 -0.0809269026 0.867146969
v -0.427439988 -0.0601450019 0.883354008
v -0.431715012 -0.0648806989 0.891077995
v -0.427766979 -0.0622399971 0.884891927
v -0.433919966 -0.0570589006 0.89013195
v -0.42888099 -0.0582952015 0.884413958
v -0.421875983 -0.130400002 0.869060934
v -0.425158978 -0.133210003 0.875034034
v -0.420619994 -0.133139998 0.867218971
v -0.420249999 -0.135315999 0.869830966
v -0.442462981 -0.0840351954 0.872292995
v -0.440233976 -0.0809269026 0.867146969
v -0.442850977 -0.0796872973 0.874341965
v -0.439114988 -0.0831241012 0.865576982
v -0.438758999 -0.0854493976 0.867492974
v -0.363043994 -0.0864323974 1.07290995
v -0.438820004 -0.113405995 0.867788017
vt 0.255378217 0.983933985
vt 0.209107623 0.852960885
vt 0.209017828 0.977824032
vt 0.249054685 0.850390553
vt 0.288959354 0.839254081
vt 0.293351382 0.980576217
vt 0.246100754 0.670072258
vt 0.21554862 0.672566533
vt 0.284030139 0.66375792
vt 0.272557616 0.500964582
vt 0.240478173 0.520850122
vt 0.212756604 0.539315045
vt 0.158290312 0.686235368
vt 0.159822866 0.554672778
vt 0.129515082 0.543460727
vt 0.124617405 0.694607079
vt 0.0908147693 0.521584868
vt 0.149271324 0.329605371
vt 0.111839332 0.315643549
vt 0.139691025 0.137684643
vt 0.115870528 0.138503537
vt 0.0650467575 0.292863101
vt 0.0725008249 0.122207068
vt 0.115697667 0.0388514437
vt 0.0672538206 0.0271821879
vt 0.0804105848 0.69606632
vt 0.0819679946 0.845314205
vt 0.00863904133 0.820805788
vt 0.0185374841 0.679374516
vt 0.115311004 0.855613112
vt 0.0856888518 0.959456742
vt 0.116588965 0.961693108
vt 0.040059872 0.479169607
vt 0.00760306465 0.971366584
vt 0.158257082 0.969878674
vt 0.159176394 0.851404369
vt 0.336715817 0.967079341
vt 0.385372788 0.812612891
vt 0.328580558 0.815501809
vt 0.372645497 0.960975051
vt 0.388963938 0.671967447
vt 0.324819386 0.662442386
vt 0.374361098 0.466525435
vt 0.313424796 0.482415855
vt 0.351693928 0.277772754
vt 0.301171452 0.296784669
vt 0.337620944 0.10804791
vt 0.290779978 0.130562738
vt 0.24673444 0.142611846
vt 0.252925038 0.315805048
vt 0.256643057 0.0434040241
vt 0.284187973 0.0333528556
vt 0.329038113 0.0128350211
vt 0.284187973 0.0333528556
vt 0.225727245 0.325566828
vt 0.195487052 0.333262086
vt 0.21807602 0.142826721
vt 0.173173204 0.136160687
vt 0.217288122 0.0342395008
vt 0.167771876 0.0435597897
vt 0.139388651 0.0485264808
vt 0.490034491 0.066269055
vt 0.479889929 0.0504438579
vt 0.483717531 0.0679419115
vt 0.491014391 0.0481969677
vt 0.48739472 0.0323986448
vt 0.476671219 0.0372412428
vt 0.47884208 0.0762569457
vt 0.4715648 0.0656617731
vt 0.478247941 0.132248074
vt 0.486634254 0.122163288
vt 0.468014061 0.0503964797
vt 0.501750529 0.109041423
vt 0.511455417 0.103443846
vt 0.491014391 0.0481969677
vt 0.505368888 0.124019846
vt 0.532122791 0.1792254
vt 0.518229783 0.181678027
vt 0.489815831 0.137805521
vt 0.503045678 0.195657
vt 0.522508919 0.198111519
vt 0.553829849 0.281828463
vt 0.506377816 0.213157579
vt 0.515608966 0.31507349
vt 0.49317953 0.213445127
vt 0.496232241 0.293153584
vt 0.503084838 0.340535045
vt 0.49347651 0.300371498
vt 0.569742143 0.343607694
vt 0.525220454 0.379273653
vt 0.5066576 0.492876291
vt 0.575618327 0.447115183
vt 0.489101946 0.403513461
vt 0.476640403 0.426789761
vt 0.485167742 0.497982413
vt 0.482389212 0.550385058
vt 0.449717134 0.344379395
vt 0.457672805 0.312720656
vt 0.457714289 0.287786007
vt 0.49347651 0.300371498
vt 0.442141771 0.335332394
vt 0.450020641 0.305648208
vt 0.418036729 0.307539463
vt 0.425160408 0.280790776
vt 0.423642844 0.259010673
vt 0.439415932 0.358304113
vt 0.476640403 0.426789761
vt 0.408169717 0.316438079
vt 0.412441909 0.300607085
vt 0.392894506 0.275686681
vt 0.384971261 0.275637478
vt 0.386414289 0.256246656
vt 0.393987089 0.264539361
vt 0.419179738 0.275288343
vt 0.398030967 0.256267339
vt 0.39383918 0.243015766
vt 0.387939751 0.236265063
vt 0.381030679 0.249561176
vt 0.369140059 0.23775129
vt 0.378809541 0.268322378
vt 0.370105654 0.24701871
vt 0.373914838 0.233977228
vt 0.378809541 0.268322378
vt 0.381030679 0.249561176
vt 0.384971261 0.275637478
vt 0.681410372 0.149631307
vt 0.681416392 0.129826739
vt 0.678190947 0.144367337
vt 0.687182307 0.140576363
vt 0.680332184 0.195003405
vt 0.674704909 0.187296912
vt 0.689761281 0.131651133
vt 0.683032632 0.121457957
vt 0.674026906 0.143018886
vt 0.673438311 0.128728122
vt 0.674742103 0.119674958
vt 0.664227068 0.178352132
vt 0.657666922 0.175890431
vt 0.673438311 0.128728122
vt 0.672709465 0.197185129
vt 0.668713748 0.258825839
vt 0.662623346 0.243165404
vt 0.662007868 0.188085392
vt 0.65106076 0.232749015
vt 0.659329355 0.257704884
vt 0.65453124 0.358604938
vt 0.641683578 0.352739483
vt 0.623245537 0.316359103
vt 0.647609472 0.247191444
vt 0.641532004 0.23273237
vt 0.622007608 0.283018678
vt 0.664277852 0.434619516
vt 0.650701642 0.442484885
vt 0.633739114 0.392524362
vt 0.637765884 0.450070739
vt 0.640572608 0.524839461
vt 0.590313613 0.521278739
vt 0.656012535 0.522074521
vt 0.610360205 0.362576723
vt 0.652454197 0.592954397
vt 0.66529119 0.591204464
vt 0.676060855 0.50887382
vt 0.683770835 0.580273151
vt 0.670125842 0.630057991
vt 0.689759314 0.628708422
vt 0.613565147 0.60300523
vt 0.633555114 0.660516441
vt 0.573744416 0.567498744
vt 0.498369008 0.555534542
vt 0.482389212 0.550385058
vt 0.478977144 0.590024054
vt 0.568629324 0.611027181
vt 0.508155167 0.599833906
vt 0.600292027 0.645627201
vt 0.564571202 0.656671047
vt 0.515798271 0.638062298
vt 0.518532038 0.66246748
vt 0.558374524 0.699147046
vt 0.593895137 0.685577273
vt 0.591265857 0.72313118
vt 0.612157106 0.723240495
vt 0.494287431 0.646280408
vt 0.473669946 0.665097892
vt 0.46108824 0.613287747
vt 0.460332215 0.675314903
vt 0.461206287 0.692957163
vt 0.443419993 0.687489986
vt 0.442345798 0.703886867
vt 0.434705049 0.651082575
vt 0.449047714 0.630613923
vt 0.476899981 0.680927396
vt 0.430112571 0.696406364
vt 0.424331516 0.708069861
vt 0.44122532 0.618220747
vt 0.42650485 0.643621504
vt 0.422757685 0.667176306
vt 0.414664716 0.670783937
vt 0.425179124 0.682764649
vt 0.416505992 0.692349374
vt 0.40689075 0.682793021
vt 0.408207595 0.702271819
vt 0.415675431 0.714959621
vt 0.39359051 0.717491627
vt 0.394922972 0.70779568
vt 0.398493469 0.720909357
vt 0.455137402 0.596329749
vt 0.47069326 0.574864447
vt 0.482389212 0.550385058
vt 0.614149034 0.0613344163
vt 0.611361742 0.0409585945
vt 0.609700501 0.0567010194
vt 0.619267702 0.0498745516
vt 0.61835885 0.109433077
vt 0.610693812 0.103829443
vt 0.620505154 0.0370755717
vt 0.612370491 0.030440256
vt 0.604667008 0.0577029251
vt 0.60225904 0.0435921513
vt 0.603540182 0.0315697268
vt 0.599147737 0.098869063
vt 0.591084599 0.0986679345
vt 0.60225904 0.0435921513
vt 0.609496117 0.117945962
vt 0.61399281 0.188791737
vt 0.604577065 0.176694795
vt 0.597335875 0.113442212
vt 0.591004431 0.170690805
vt 0.588981748 0.187322408
vt 0.603346825 0.194441035
vt 0.572035372 0.27693823
vt 0.604620934 0.290348172
vt 0.618310094 0.27385208
vt 0.580177844 0.174363688
vt 0.563105047 0.237954944
vt 0.572035372 0.27693823
vt 0.558838546 0.239440292
vt 0.563105047 0.237954944
vt 0.532122791 0.1792254
vt 0.618310094 0.27385208
vt 0.622007608 0.283018678
vt 0.858012974 0.551496923
vt 0.830412745 0.574558198
vt 0.841328621 0.597955644
vt 0.855126798 0.542731404
vt 0.859710276 0.450650662
vt 0.802090645 0.53880769
vt 0.844105005 0.43133226
vt 0.873912573 0.459358603
vt 0.772913396 0.641342998
vt 0.806212544 0.669927955
vt 0.855918944 0.647720754
vt 0.909166455 0.576729357
vt 0.901558936 0.544768274
vt 0.872835875 0.668538749
vt 0.916748047 0.598686099
vt 0.827869415 0.718323112
vt 0.873517931 0.345061243
vt 0.886071384 0.35992083
vt 0.89420855 0.373711407
vt 0.942693472 0.505697191
vt 0.949047685 0.532156169
vt 0.951275289 0.551100969
vt 0.913639247 0.304478168
vt 0.906731486 0.295696676
vt 0.983700395 0.514540255
vt 0.981217265 0.501950741
vt 0.936756611 0.491107553
vt 0.897597611 0.519462168
vt 0.970897198 0.462099046
vt 0.974274874 0.473478913
vt 0.901788056 0.28210479
vt 0.910853922 0.269351751
vt 0.908828855 0.259346306
vt 0.903366327 0.260060459
vt 0.893356323 0.279271752
vt 0.886351109 0.270980924
vt 0.864025056 0.336863309
vt 0.834313154 0.409958571
vt 0.805508733 0.47949931
vt 0.786403775 0.529657006
vt 0.800262988 0.47811538
vt 0.787373781 0.400299609
vt 0.772604346 0.397685111
vt 0.757493138 0.528588295
vt 0.799160004 0.39658156
vt 0.738290846 0.636625767
vt 0.790381849 0.30601564
vt 0.778529644 0.303461581
vt 0.798314631 0.310559511
vt 0.799669564 0.241694942
vt 0.793728828 0.240857512
vt 0.747941613 0.481580466
vt 0.761249185 0.390374303
vt 0.770449519 0.305240542
vt 0.775207937 0.236930266
vt 0.781143248 0.23815316
vt 0.707421482 0.725720704
vt 0.754428744 0.753215611
vt 0.808107078 0.829861999
vt 0.738759577 0.838095903
vt 0.771275103 0.88646394
vt 0.825351119 0.899644852
vt 0.787903965 0.929700911
vt 0.765350699 0.952659249
vt 0.737565339 0.906144619
vt 0.849938393 0.871807516
vt 0.857368529 0.893139064
vt 0.837253451 0.945692897
vt 0.874987066 0.848806798
vt 0.876141012 0.871521711
vt 0.885807157 0.84699589
vt 0.887064934 0.865150034
vt 0.898106515 0.871591866
vt 0.894451499 0.833044767
vt 0.917039335 0.825449705
vt 0.921325028 0.858267605
vt 0.873721004 0.826064467
vt 0.877583802 0.891028643
vt 0.880443275 0.913511515
vt 0.901300073 0.893422484
vt 0.92408061 0.829879284
vt 0.926795304 0.848465979
vt 0.93076539 0.82524693
vt 0.933723629 0.848020971
vt 0.940275788 0.854889512
vt 0.935452223 0.814192593
vt 0.959603608 0.846614838
vt 0.955374062 0.806902409
vt 0.951028764 0.786559403
vt 0.930667996 0.793114066
vt 0.91421175 0.803947985
vt 0.971076787 0.787030816
vt 0.9761554 0.802832544
vt 0.959987521 0.866782904
vt 0.939968586 0.875421107
vt 0.92237258 0.877759397
vt 0.978175521 0.85171324
vt 0.979589701 0.834267557
vt 0.893930554 0.802692354
vt 0.875152826 0.791365981
vt 0.855567157 0.747488976
vt 0.851317108 0.836472988
vt 0.875152826 0.791365981
vt 0.99323529 0.818940043
vt 0.980664134 0.816895962
vt 0.995668828 0.810655653
vt 0.991751611 0.805242658
vt 0.695578873 0.637984931
vt 0.711010456 0.643119335
vt 0.685978115 0.725082636
vt 0.717194498 0.553462744
vt 0.739176393 0.543761373
vt 0.70664078 0.439640611
vt 0.718664169 0.433630049
vt 0.706775904 0.360369116
vt 0.69722867 0.364977986
vt 0.714071989 0.3610636
vt 0.727472186 0.424892068
vt 0.741759062 0.49077633
vt 0.704025805 0.303222328
vt 0.700002789 0.304909706
vt 0.70480603 0.54963541
vt 0.697020829 0.442787319
vt 0.691095769 0.372897327
vt 0.68466872 0.313625485
vt 0.688726544 0.310914814
vt 0.693777621 0.303914666
vt 0.694356918 0.287110329
vt 0.691004753 0.284552753
vt 0.688771904 0.290079027
vt 0.688726544 0.310914814
vt 0.741759062 0.49077633
vt 0.739176393 0.543761373
vt 0.741759062 0.49077633
vt 0.747941613 0.481580466
vt 0.622007608 0.283018678
vt 0.623245537 0.316359103
vt 0.801138461 0.967600822
vt 0.781934023 0.991704941
vt 0.678840578 0.807078898
vt 0.695469558 0.873423696
vt 0.698414922 0.807376444
vt 0.670179367 0.860537529
vt 0.496613979 0.663772047
vt 0.47072196 0.0127054378
vt 0.468014061 0.0503964797
vt 0.468437105 0.0216439776
vt 0.48739472 0.0323986448
vt 0.47587955 0.014632659
vt 0.614551961 0.00871604774
vt 0.603540182 0.0315697268
vt 0.610839486 0.0123877246
vt 0.620505154 0.0370755717
vt 0.617500424 0.0144801121
vt 0.687491775 0.100607142
vt 0.674742103 0.119674958
vt 0.683774769 0.102581933
vt 0.689761281 0.131651133
vt 0.68955195 0.107191294
vt 0.987675488 0.47048068
vt 0.980686128 0.485409915
vt 0.992268741 0.475124866
vt 0.991107166 0.484599352
vt 0.787662387 0.234008387
vt 0.784725368 0.217031822
vt 0.781143248 0.23815316
vt 0.788451374 0.212820306
vt 0.791774571 0.218599692
vt 0.612157106 0.723240495
vt 0.906731486 0.295696676
vn -0.186756179 -0.893954039 0.407392174
vn -0.804471135 -0.257370174 0.535338104
vn -0.769836307 -0.252713591 0.586078465
vn -0.266862333 -0.873122454 0.407972693
vn 0.252785146 -0.950161994 0.182460204
vn 0.343649268 -0.925343812 0.160137415
vn -0.37627393 -0.862661541 0.337983757
vn -0.835348308 -0.389259934 0.388162255
vn 0.202679619 -0.971774697 0.120726816
vn 0.128348857 -0.983543694 0.127154857
vn -0.491985559 -0.803679705 0.33473742
vn -0.851088226 -0.372089982 0.370402396
vn -0.889042795 0.347513556 0.298055738
vn -0.927395225 0.265637517 0.26339075
vn -0.596929133 0.800287366 -0.0567073189
vn -0.520782173 0.852973044 0.0349691659
vn 0.13516216 0.88534373 -0.444856942
vn -0.806478739 0.578018785 0.124444395
vn 0.0391726457 0.928116024 -0.370224535
vn -0.595114112 0.803413868 0.0191140473
vn 0.278826267 0.888271272 -0.365006924
vn 0.759630382 0.363557488 -0.539247334
vn 0.795804977 0.388835818 -0.464220971
vn 0.407608062 0.887295485 -0.215783134
vn 0.830970049 0.470912039 -0.296193361
vn 0.242008179 0.910841882 -0.334363699
vn 0.328633219 0.863580167 -0.382399768
vn 0.869085073 0.246161312 -0.429063916
vn 0.821988642 0.25888297 -0.507261574
vn -0.462676674 0.88649565 -0.00746320607
vn 0.302812696 0.847150922 -0.436623037
vn -0.573386312 0.813273191 0.09906964
vn 0.770207703 0.26802519 -0.578742266
vn 0.891367495 0.159282431 -0.424373806
vn -0.821376264 0.392941892 0.413446307
vn -0.814568043 0.426328421 0.393348455
vn 0.807910144 -0.57111001 -0.145308226
vn 0.869085073 0.246161312 -0.429063916
vn 0.753906727 -0.636879623 -0.161272675
vn 0.891367495 0.159282431 -0.424373806
vn 0.821988642 0.25888297 -0.507261574
vn 0.764960349 -0.583582759 -0.272519439
vn 0.770207703 0.26802519 -0.578742266
vn 0.764240146 -0.562969744 -0.314645976
vn 0.759630382 0.363557488 -0.539247334
vn 0.812214375 -0.512161851 -0.27928111
vn 0.795804977 0.388835818 -0.464220971
vn 0.871893287 -0.449791878 -0.193621725
vn -0.180044919 -0.944802046 0.273738861
vn -0.105564959 -0.96354121 0.245854571
vn 0.00492120814 -0.898303032 0.439348876
vn 0.956098795 -0.191931278 0.221444368
vn 0.830970049 0.470912039 -0.296193361
vn 0.956098795 -0.191931278 0.221444368
vn -0.697474658 -0.598448038 0.394194067
vn -0.910689414 -0.188398823 0.367628276
vn -0.790211082 -0.51503706 0.332119435
vn -0.958359718 0.0329546109 0.283655792
vn -0.756523371 -0.542798817 0.364748985
vn -0.942881227 0.0193387922 0.332567126
vn -0.55500108 0.829452574 0.0631052703
vn 0.525590599 0.819128394 -0.229745641
vn 0.403605789 0.0608238615 -0.912909031
vn 0.897119939 0.270810634 -0.34905225
vn -0.0693480521 0.831198573 -0.551633835
vn -0.722827435 0.496770352 -0.480353802
vn 0.832689226 0.238700986 -0.499650329
vn 0.917853296 -0.368498236 -0.147493958
vn 0.448967546 -0.782143593 -0.432064265
vn 0.219798118 -0.974682391 0.0410240442
vn 0.935152233 -0.354041398 -0.0120461555
vn -0.274119765 -0.886880338 -0.371889442
vn 0.551986217 0.829287112 -0.0871448889
vn -0.361253083 0.926773727 -0.102891833
vn -0.0693480521 0.831198573 -0.551633835
vn 0.54813987 0.804595172 -0.228405878
vn -0.316243082 0.939452171 -0.131984442
vn 0.549623787 0.789614201 -0.272805721
vn 0.924972415 -0.352692157 -0.14154245
vn 0.928185999 -0.323429286 -0.184022516
vn 0.549626052 0.784839272 -0.286249071
vn 0.506119549 0.488280803 -0.710932374
vn 0.929039419 -0.318925709 -0.187542617
vn 0.684605896 -0.144100875 -0.714527488
vn 0.292895675 -0.955461502 0.0361307785
vn -0.0505345128 -0.926270843 -0.373454779
vn 0.535500586 0.340373665 -0.772906721
vn -0.672516763 0.368986189 -0.641537547
vn 0.724610269 0.387183011 -0.570113361
vn 0.769235194 0.221773073 -0.599244416
vn 0.714537203 -0.171164215 -0.678335786
vn 0.862112582 0.374903172 -0.340895057
vn 0.843115509 -0.375620693 -0.384792566
vn 0.300212294 -0.953599274 0.022824429
vn -0.0626495332 -0.977463484 -0.201594055
vn -0.48492986 -0.685807109 -0.542689383
vn 0.932939351 -0.294918388 -0.206512675
vn 0.541555285 0.774399459 -0.327144116
vn -0.346331954 0.921419501 -0.176182434
vn -0.672516763 0.368986189 -0.641537547
vn 0.942989767 -0.29670316 -0.150789335
vn 0.547851861 0.786815763 -0.284216791
vn 0.956610918 -0.285755008 -0.0569175556
vn 0.593688548 0.779316127 -0.200500011
vn -0.350170702 0.918879867 -0.181769699
vn 0.31360212 -0.945780337 0.084577702
vn 0.300212294 -0.953599274 0.022824429
vn 0.26928398 -0.958808839 0.0903981328
vn 0.957037091 -0.27336219 0.0967120007
vn 0.939999163 -0.337484747 -0.0500562452
vn 0.540495992 -0.764591575 -0.351089269
vn 0.510984361 0.0296456125 -0.859078586
vn 0.924984455 0.262188762 -0.275065184
vn 0.595388532 0.800753653 -0.0656203777
vn 0.583726227 0.783054531 -0.21468398
vn 0.0509029105 0.812183678 -0.581176877
vn -0.620583057 0.480392098 -0.619758129
vn 0.908187568 0.248976335 -0.336461097
vn 0.379729062 -0.0336311869 -0.924486279
vn -0.173831627 -0.897832513 -0.404573083
vn 0.671484411 -0.646835268 -0.361542463
vn 0.218258008 0.763616145 -0.607662678
vn -0.173831627 -0.897832513 -0.404573083
vn 0.908187568 0.248976335 -0.336461097
vn 0.540495992 -0.764591575 -0.351089269
vn 0.565300107 0.82190299 0.0700811222
vn 0.750142634 0.128432125 -0.648684263
vn 0.959501982 0.264144182 0.097897023
vn 0.202688754 0.884513199 -0.420183033
vn -0.317053318 0.934544206 -0.161568582
vn 0.603824317 0.774806619 0.187272087
vn -0.447443545 0.600996435 -0.662267029
vn 0.962746441 0.268301934 -0.0336651988
vn 0.903446198 -0.370442808 0.215771049
vn 0.646951735 -0.724912047 -0.236550137
vn -0.045930434 -0.864443839 -0.500626922
vn 0.906027019 -0.289687365 0.308539122
vn 0.235872015 -0.970100462 0.0571802519
vn 0.646951735 -0.724912047 -0.236550137
vn 0.659860015 0.750505507 -0.0364175476
vn -0.314615935 0.938606501 -0.14154397
vn 0.603939414 0.778406501 -0.17129077
vn 0.955553353 -0.2842592 0.0781959519
vn 0.948996723 -0.311510533 -0.0486457646
vn 0.586461484 0.767191827 -0.259768426
vn -0.383179039 0.916525006 -0.114698537
vn 0.443284631 0.797519028 -0.409221351
vn 0.754253626 0.274593562 -0.596405864
vn 0.933555424 -0.324620008 -0.151974291
vn 0.290514588 -0.955389917 0.0532113351
vn -0.375205398 -0.633191288 -0.676970899
vn -0.529757261 0.84794426 0.0186508875
vn 0.247363299 0.924538612 -0.289896041
vn 0.753843486 0.510169148 -0.414062142
vn 0.747378588 0.513636351 -0.421429545
vn 0.766834259 0.473986149 -0.432784408
vn 0.769395769 0.426673174 -0.475373715
vn 0.300136954 0.935602963 -0.185916469
vn 0.764428794 0.406809717 -0.500154376
vn 0.762469113 0.603940547 -0.232156783
vn 0.241004243 0.97011739 -0.028094478
vn -0.550949514 0.817345023 0.168528035
vn -0.493562788 0.841834009 0.218429536
vn 0.407608062 0.887295485 -0.215783134
vn -0.55500108 0.829452574 0.0631052703
vn 0.696234822 0.559888124 -0.449201912
vn 0.830970049 0.470912039 -0.296193361
vn 0.480693161 0.62281996 -0.617275774
vn 0.111552455 0.208900973 -0.971553683
vn -0.48492986 -0.685807109 -0.542689383
vn -0.469467968 0.244208112 -0.848505914
vn 0.563428938 0.618640065 -0.547569513
vn 0.230672628 0.669461966 -0.706123769
vn 0.696733177 0.661747575 -0.27686277
vn 0.909824669 0.361687541 -0.203472659
vn 0.781866968 0.56656611 -0.260166824
vn 0.991449535 0.036436636 0.125299975
vn 0.897865951 -0.289313793 0.331864804
vn 0.951433778 0.284679621 0.117180437
vn 0.781653464 -0.393463165 0.483946979
vn 0.956098795 -0.191931278 0.221444368
vn 0.68707639 0.670240164 -0.280542731
vn 0.547374964 0.835906267 -0.0405123532
vn -0.70444876 0.454214245 -0.545381963
vn 0.42970261 0.902296901 0.0348715335
vn 0.91885674 0.207517549 0.335616976
vn 0.446075201 0.883503914 -0.142960772
vn 0.947938561 0.242125258 0.206852198
vn -0.682505488 0.50455308 -0.528783977
vn -0.763706028 0.533410251 -0.363629878
vn 0.899793088 0.132511497 0.415708125
vn 0.577552021 0.713489056 -0.396695197
vn 0.899282992 0.300910741 -0.317400038
vn -0.874196231 -0.408642083 -0.262283355
vn -0.83551389 -0.420273215 -0.353959024
vn -0.568390012 0.237406507 -0.787763238
vn -0.553672493 -0.24423033 -0.796114445
vn -0.0103025166 0.667297065 -0.744720399
vn 0.196047872 0.223878697 -0.954695523
vn -0.431099296 -0.747477174 -0.505402029
vn -0.00938623492 0.673488855 -0.739137828
vn 0.969833314 -0.239109933 -0.0474338681
vn 0.342185915 -0.243790656 -0.907455146
vn -0.517962337 -0.330160767 -0.789119065
vn 0.946521997 0.0973485336 -0.307602793
vn -0.851849616 -0.463609517 -0.243758887
vn -0.759740829 -0.549555421 -0.347537965
vn -0.48492986 -0.685807109 -0.542689383
vn 0.559345424 0.816570163 -0.142639592
vn 0.458024621 0.082447879 -0.885107756
vn 0.925024092 0.279847473 -0.256935209
vn -0.0150661999 0.852807939 -0.522007227
vn -0.310983568 0.946121752 -0.0902372077
vn 0.620030284 0.784567177 -0.00409135735
vn -0.703040421 0.509572685 -0.496054322
vn 0.863033533 0.261116356 -0.432425052
vn 0.930229843 -0.356679022 -0.0863279179
vn 0.462535203 -0.770522654 -0.438584
vn -0.289275706 -0.860062838 -0.420251846
vn 0.948440611 -0.313720882 0.0451634526
vn 0.221574455 -0.975040197 0.0141925495
vn 0.462535203 -0.770522654 -0.438584
vn 0.621354759 0.768254876 -0.153956786
vn -0.310856491 0.941530347 -0.129956961
vn 0.581815064 0.780535519 -0.22859478
vn 0.945411384 -0.315317363 -0.0822939351
vn 0.934689164 -0.327441573 -0.138340488
vn 0.927821755 -0.332241565 -0.169594958
vn 0.570339382 0.770880163 -0.283648759
vn 0.693172812 0.087983638 -0.715381205
vn 0.488687068 0.668472648 -0.560650706
vn -0.502072453 0.790293097 -0.351226687
vn 0.292135864 -0.955920517 0.0295379981
vn -0.219246104 -0.822350979 -0.525042892
vn 0.693172812 0.087983638 -0.715381205
vn -0.609940767 0.599570513 -0.518157899
vn -0.219246104 -0.822350979 -0.525042892
vn -0.316243082 0.939452171 -0.131984442
vn -0.502072453 0.790293097 -0.351226687
vn -0.375205398 -0.633191288 -0.676970899
vn -0.672516763 0.368986189 -0.641537547
vn -0.853814423 -0.518492281 0.0465471819
vn -0.910546482 -0.406461269 0.0754607618
vn -0.0505345128 -0.926270843 -0.373454779
vn -0.572623909 -0.806658745 0.146299794
vn -0.987225711 -0.157731086 0.0225009788
vn -0.953497648 0.296182275 0.0558426157
vn 0.292895675 -0.955461502 0.0361307785
vn -0.928487301 -0.23339431 0.288857043
vn -0.829481006 -0.428163707 0.358660072
vn -0.448857963 -0.861855268 0.23607628
vn -0.572948992 -0.803514004 0.161538929
vn -0.966962755 0.254905581 0.00248882384
vn 0.300212294 -0.953599274 0.022824429
vn 0.31360212 -0.945780337 0.084577702
vn -0.53119123 -0.765637219 0.362816006
vn -0.966238022 0.25429824 -0.041428782
vn -0.628872335 -0.776604235 0.0374887958
vn 0.219798118 -0.974682391 0.0410240442
vn -0.96220696 0.221773595 -0.158032477
vn -0.625199676 -0.780425191 -0.00785971712
vn 0.26928398 -0.958808839 0.0903981328
vn 0.448967546 -0.782143593 -0.432064265
vn -0.274119765 -0.886880338 -0.371889442
vn 0.540495992 -0.764591575 -0.351089269
vn -0.173831627 -0.897832513 -0.404573083
vn -0.350170702 0.918879867 -0.181769699
vn -0.346331954 0.921419501 -0.176182434
vn 0.0509029105 0.812183678 -0.581176877
vn -0.620583057 0.480392098 -0.619758129
vn -0.908292115 -0.326652229 -0.261349916
vn 0.5758003 -0.650975525 -0.494656175
vn 0.248072296 0.0103780674 -0.968685925
vn 0.0967918932 0.790507734 -0.604755163
vn -0.722827435 0.496770352 -0.480353802
vn -0.0693480521 0.831198573 -0.551633835
vn -0.361253083 0.926773727 -0.102891833
vn -0.316243082 0.939452171 -0.131984442
vn -0.609940767 0.599570513 -0.518157899
vn -0.951510966 -0.305505812 0.0359593146
vn -0.219246104 -0.822350979 -0.525042892
vn -0.602362752 -0.792713225 0.0936203822
vn -0.95573312 0.293709397 0.0175747927
vn -0.997543633 0.0662690327 0.0226952657
vn 0.292135864 -0.955920517 0.0295379981
vn -0.958221555 -0.0875963569 0.272283375
vn -0.651941657 -0.757033288 -0.0432749838
vn -0.96240592 0.252340913 -0.100493282
vn 0.221574455 -0.975040197 0.0141925495
vn 0.462535203 -0.770522654 -0.438584
vn -0.289275706 -0.860062838 -0.420251846
vn -0.502072453 0.790293097 -0.351226687
vn -0.310856491 0.941530347 -0.129956961
vn -0.310983568 0.946121752 -0.0902372077
vn -0.0150661999 0.852807939 -0.522007227
vn -0.703040421 0.509572685 -0.496054322
vn -0.935970426 0.125218675 0.329058617
vn -0.83747679 -0.348982096 0.420528501
vn -0.521326303 -0.719090879 0.459485859
vn -0.833702207 -0.401046902 0.379607797
vn -0.582971096 -0.680574358 0.443805248
vn 0.0926943049 -0.812391877 0.575697124
vn 0.0382059403 -0.829838216 0.556694567
vn 0.00492120814 -0.898303032 0.439348876
vn -0.756523371 -0.542798817 0.364748985
vn -0.104308367 -0.850901484 0.514865398
vn 0.498867244 -0.677513897 0.540468633
vn 0.897865951 -0.289313793 0.331864804
vn -0.323528349 -0.86403507 0.385710776
vn 0.522781789 -0.641931415 0.560912907
vn -0.00863022637 -0.988774657 0.149164826
vn 0.637589633 -0.71277982 0.292274594
vn 0.749726117 -0.508793712 0.423131049
vn -0.28385517 -0.955001473 0.0860144198
vn -0.395050526 -0.887153149 0.23852545
vn 0.599136472 -0.524149716 0.605229318
vn -0.604182601 -0.793355048 0.0745060071
vn 0.910799086 -0.243718594 0.333236128
vn 0.991449535 0.036436636 0.125299975
vn 0.938478708 0.0958341435 0.331773132
vn -0.0739277303 -0.952752471 0.294614226
vn 0.426585197 -0.770087421 0.474331439
vn 0.0619873255 -0.998075843 0.00145606871
vn 0.526571631 -0.830636978 0.181009591
vn 0.771645129 -0.548119903 0.322689414
vn -0.363195986 -0.928958952 -0.0715818405
vn 0.740976453 -0.533498645 0.407839507
vn -0.364827216 -0.92953366 0.0535563007
vn -0.83551389 -0.420273215 -0.353959024
vn -0.874196231 -0.408642083 -0.262283355
vn -0.851849616 -0.463609517 -0.243758887
vn -0.553672493 -0.24423033 -0.796114445
vn -0.431099296 -0.747477174 -0.505402029
vn 0.947938561 0.242125258 0.206852198
vn 0.91885674 0.207517549 0.335616976
vn 0.899793088 0.132511497 0.415708125
vn 0.899282992 0.300910741 -0.317400038
vn 0.969833314 -0.239109933 -0.0474338681
vn -0.759740829 -0.549555421 -0.347537965
vn -0.48492986 -0.685807109 -0.542689383
vn -0.0626495332 -0.977463484 -0.201594055
vn -0.400848359 -0.858530045 0.319760442
vn -0.48492986 -0.685807109 -0.542689383
vn 0.946521997 0.0973485336 -0.307602793
vn 0.207202002 -0.922254741 0.32636404
vn 0.342185915 -0.243790656 -0.907455146
vn -0.517962337 -0.330160767 -0.789119065
vn -0.529757261 0.84794426 0.0186508875
vn -0.928254366 0.282650441 0.241769686
vn -0.550949514 0.817345023 0.168528035
vn -0.920693636 0.370122969 0.123823479
vn -0.991733432 -0.0739754811 0.104844525
vn -0.955893755 0.291515231 -0.0358623303
vn -0.642165005 -0.763964117 0.0631098002
vn -0.634413898 -0.737805128 -0.230570257
vn -0.907407641 0.242618516 -0.343143702
vn 0.235872015 -0.970100462 0.0571802519
vn 0.290514588 -0.955389917 0.0532113351
vn -0.375205398 -0.633191288 -0.676970899
vn 0.646951735 -0.724912047 -0.236550137
vn -0.045930434 -0.864443839 -0.500626922
vn -0.383179039 0.916525006 -0.114698537
vn -0.314615935 0.938606501 -0.14154397
vn -0.317053318 0.934544206 -0.161568582
vn 0.202688754 0.884513199 -0.420183033
vn -0.447443545 0.600996435 -0.662267029
vn -0.72286272 -0.281570137 -0.631021202
vn 0.703854501 -0.628633678 -0.330769747
vn 0.646330118 0.101181686 -0.756319821
vn 0.27992779 0.822663844 -0.494837821
vn -0.447443545 0.600996435 -0.662267029
vn -0.375205398 -0.633191288 -0.676970899
vn -0.991733432 -0.0739754811 0.104844525
vn -0.375205398 -0.633191288 -0.676970899
vn -0.502072453 0.790293097 -0.351226687
vn -0.375205398 -0.633191288 -0.676970899
vn 0.754253626 0.274593562 -0.596405864
vn 0.781653464 -0.393463165 0.483946979
vn 0.956098795 -0.191931278 0.221444368
vn -0.493562788 0.841834009 0.218429536
vn -0.942881227 0.0193387922 0.332567126
vn -0.910625279 0.164951295 0.37888357
vn -0.55500108 0.829452574 0.0631052703
vn 0.938478708 0.0958341435 0.331773132
vn 0.248072296 0.0103780674 -0.968685925
vn -0.274119765 -0.886880338 -0.371889442
vn 0.5758003 -0.650975525 -0.494656175
vn -0.722827435 0.496770352 -0.480353802
vn 0.0967918932 0.790507734 -0.604755163
vn 0.321209699 0.058460407 -0.945201993
vn -0.289275706 -0.860062838 -0.420251846
vn 0.557567835 -0.652359664 -0.513366401
vn -0.703040421 0.509572685 -0.496054322
vn 0.0653124601 0.804712355 -0.590061247
vn 0.646330118 0.101181686 -0.756319821
vn -0.045930434 -0.864443839 -0.500626922
vn 0.703854501 -0.628633678 -0.330769747
vn -0.447443545 0.600996435 -0.662267029
vn 0.27992779 0.822663844 -0.494837821
vn 0.218258008 0.763616145 -0.607662678
vn -0.863960385 -0.349093944 -0.362912923
vn 0.379729062 -0.0336311869 -0.924486279
vn 0.671484411 -0.646835268 -0.361542463
vn -0.890814066 -0.319948763 -0.32261914
vn 0.0653124601 0.804712355 -0.590061247
vn -0.703040421 0.509572685 -0.496054322
vn 0.321209699 0.058460407 -0.945201993
vn 0.557567835 -0.652359664 -0.513366401
vn 0.956098795 -0.191931278 0.221444368
vn -0.274119765 -0.886880338 -0.371889442
g hand_r_0
f 3/3/3 2/2/2 1/1/1
f 4/4/4 1/1/1 2/2/2
f 4/4/4 5/5/5 1/1/1
f 6/6/6 1/1/1 5/5/5
f 4/4/4 2/2/2 7/7/7
f 8/8/8 7/7/7 2/2/2
f 7/7/7 9/9/9 4/4/4
f 5/5/5 4/4/4 9/9/9
f 9/9/9 7/7/7 10/10/10
f 11/11/11 10/10/10 7/7/7
f 7/7/7 8/8/8 11/11/11
f 12/12/12 11/11/11 8/8/8
f 8/8/8 13/13/13 12/12/12
f 8/8/8 2/2/2 13/13/13
f 14/14/14 12/12/12 13/13/13
f 14/14/14 13/13/13 15/15/15
f 16/16/16 15/15/15 13/13/13
f 15/15/15 16/16/16 17/17/17
f 15/15/15 17/17/17 18/18/18
f 15/15/15 18/18/18 14/14/14
f 19/19/19 18/18/18 17/17/17
f 18/18/18 19/19/19 20/20/20
f 21/21/21 20/20/20 19/19/19
f 19/19/19 22/22/22 21/21/21
f 23/23/23 21/21/21 22/22/22
f 21/21/21 23/23/23 24/24/24
f 25/25/25 24/24/24 23/23/23
f 26/26/26 17/17/17 16/16/16
f 26/26/26 16/16/16 27/27/27
f 27/27/27 28/28/28 26/26/26
f 29/29/29 26/26/26 28/28/28
f 26/26/26 29/29/29 17/17/17
f 30/30/30 27/27/27 16/16/16
f 27/27/27 30/30/30 31/31/31
f 32/32/32 31/31/31 30/30/30
f 33/33/33 17/17/17 29/29/29
f 22/22/22 19/19/19 33/33/33
f 17/17/17 33/33/33 19/19/19
f 31/31/31 34/34/34 27/27/27
f 28/28/28 27/27/27 34/34/34
f 32/32/32 30/30/30 35/35/35
f 36/36/36 35/35/35 30/30/30
f 30/30/30 16/16/16 36/36/36
f 13/13/13 36/36/36 16/16/16
f 36/36/36 13/13/13 2/2/2
f 2/2/2 3/3/3 36/36/36
f 35/35/35 36/36/36 3/3/3
f 39/39/39 38/38/38 37/37/37
f 40/40/40 37/37/37 38/38/38
f 38/38/38 39/39/39 41/41/41
f 42/42/42 41/41/41 39/39/39
f 41/41/41 42/42/42 43/43/43
f 44/44/44 43/43/43 42/42/42
f 43/43/43 44/44/44 45/45/45
f 46/46/46 45/45/45 44/44/44
f 45/45/45 46/46/46 47/47/47
f 48/48/48 47/47/47 46/46/46
f 48/48/48 46/46/46 49/49/49
f 50/50/50 49/49/49 46/46/46
f 49/49/49 51/51/51 48/48/48
f 52/52/52 48/48/48 51/51/51
f 47/47/47 48/48/48 53/53/53
f 54/54/54 53/53/53 48/48/48
f 50/50/50 55/55/55 49/49/49
f 55/55/55 50/50/50 11/11/11
f 11/11/11 12/12/12 55/55/55
f 56/56/56 55/55/55 12/12/12
f 55/55/55 56/56/56 57/57/57
f 57/57/57 49/49/49 55/55/55
f 58/58/58 57/57/57 56/56/56
f 57/57/57 58/58/58 59/59/59
f 57/57/57 59/59/59 49/49/49
f 51/51/51 49/49/49 59/59/59
f 60/60/60 59/59/59 58/58/58
f 12/12/12 14/14/14 56/56/56
f 18/18/18 56/56/56 14/14/14
f 56/56/56 18/18/18 58/58/58
f 10/10/10 11/11/11 50/50/50
f 58/58/58 20/20/20 60/60/60
f 20/20/20 58/58/58 18/18/18
f 61/61/61 60/60/60 20/20/20
f 20/20/20 21/21/21 61/61/61
f 24/24/24 61/61/61 21/21/21
f 9/9/9 10/10/10 42/42/42
f 42/42/42 39/39/39 9/9/9
f 5/5/5 9/9/9 39/39/39
f 5/5/5 39/39/39 6/6/6
f 37/37/37 6/6/6 39/39/39
f 44/44/44 42/42/42 10/10/10
f 44/44/44 10/10/10 46/46/46
f 50/50/50 46/46/46 10/10/10
f 64/64/64 63/63/63 62/62/62
f 65/65/65 62/62/62 63/63/63
f 65/65/65 63/63/63 66/66/66
f 67/67/67 66/66/66 63/63/63
f 64/64/64 68/68/68 63/63/63
f 69/69/69 63/63/63 68/68/68
f 69/69/69 68/68/68 70/70/70
f 71/71/71 70/70/70 68/68/68
f 71/71/71 68/68/68 64/64/64
f 67/67/67 63/63/63 72/72/72
f 69/69/69 72/72/72 63/63/63
f 71/71/71 64/64/64 73/73/73
f 64/64/64 62/62/62 73/73/73
f 73/73/73 62/62/62 74/74/74
f 75/75/75 74/74/74 62/62/62
f 73/73/73 76/76/76 71/71/71
f 76/76/76 73/73/73 74/74/74
f 74/74/74 77/77/77 76/76/76
f 78/78/78 76/76/76 77/77/77
f 76/76/76 78/78/78 79/79/79
f 79/79/79 71/71/71 76/76/76
f 70/70/70 71/71/71 79/79/79
f 80/80/80 79/79/79 78/78/78
f 78/78/78 81/81/81 80/80/80
f 78/78/78 77/77/77 81/81/81
f 81/81/81 77/77/77 82/82/82
f 81/81/81 82/82/82 83/83/83
f 83/83/83 80/80/80 81/81/81
f 84/84/84 83/83/83 82/82/82
f 83/83/83 84/84/84 85/85/85
f 80/80/80 85/85/85 79/79/79
f 70/70/70 79/79/79 85/85/85
f 85/85/85 80/80/80 83/83/83
f 86/86/86 85/85/85 84/84/84
f 84/84/84 87/87/87 86/86/86
f 88/88/88 86/86/86 87/87/87
f 82/82/82 89/89/89 84/84/84
f 90/90/90 84/84/84 89/89/89
f 87/87/87 84/84/84 90/90/90
f 90/90/90 89/89/89 91/91/91
f 92/92/92 91/91/91 89/89/89
f 93/93/93 87/87/87 90/90/90
f 91/91/91 93/93/93 90/90/90
f 93/93/93 91/91/91 94/94/94
f 95/95/95 94/94/94 91/91/91
f 95/95/95 91/91/91 96/96/96
f 93/93/93 97/97/97 87/87/87
f 98/98/98 87/87/87 97/97/97
f 98/98/98 99/99/99 87/87/87
f 100/100/100 87/87/87 99/99/99
f 97/97/97 101/101/101 98/98/98
f 102/102/102 98/98/98 101/101/101
f 102/102/102 99/99/99 98/98/98
f 101/101/101 103/103/103 102/102/102
f 104/104/104 102/102/102 103/103/103
f 102/102/102 104/104/104 99/99/99
f 105/105/105 99/99/99 104/104/104
f 97/97/97 93/93/93 106/106/106
f 101/101/101 106/106/106 103/103/103
f 106/106/106 101/101/101 97/97/97
f 107/107/107 106/106/106 93/93/93
f 108/108/108 103/103/103 106/106/106
f 103/103/103 109/109/109 104/104/104
f 108/108/108 109/109/109 103/103/103
f 109/109/109 108/108/108 110/110/110
f 111/111/111 110/110/110 108/108/108
f 111/111/111 112/112/112 110/110/110
f 113/113/113 110/110/110 112/112/112
f 109/109/109 110/110/110 113/113/113
f 114/114/114 104/104/104 109/109/109
f 109/109/109 113/113/113 114/114/114
f 104/104/104 114/114/114 105/105/105
f 114/114/114 115/115/115 105/105/105
f 113/113/113 112/112/112 115/115/115
f 113/113/113 115/115/115 114/114/114
f 116/116/116 105/105/105 115/115/115
f 116/116/116 115/115/115 112/112/112
f 116/116/116 112/112/112 117/117/117
f 118/118/118 117/117/117 112/112/112
f 118/118/118 119/119/119 117/117/117
f 118/118/118 120/120/120 119/119/119
f 121/121/121 119/119/119 120/120/120
f 122/122/122 117/117/117 119/119/119
f 124/124/124 112/112/112 123/123/123
f 125/125/125 123/123/123 112/112/112
f 128/128/128 127/127/127 126/126/126
f 129/129/129 126/126/126 127/127/127
f 129/129/129 130/130/130 126/126/126
f 131/131/131 126/126/126 130/130/130
f 128/128/128 126/126/126 131/131/131
f 129/129/129 127/127/127 132/132/132
f 133/133/133 132/132/132 127/127/127
f 128/128/128 134/134/134 127/127/127
f 135/135/135 127/127/127 134/134/134
f 133/133/133 127/127/127 136/136/136
f 135/135/135 136/136/136 127/127/127
f 134/134/134 128/128/128 137/137/137
f 131/131/131 137/137/137 128/128/128
f 137/137/137 138/138/138 134/134/134
f 139/139/139 134/134/134 138/138/138
f 131/131/131 140/140/140 137/137/137
f 140/140/140 131/131/131 130/130/130
f 130/130/130 141/141/141 140/140/140
f 142/142/142 140/140/140 141/141/141
f 140/140/140 142/142/142 143/143/143
f 143/143/143 137/137/137 140/140/140
f 138/138/138 137/137/137 143/143/143
f 144/144/144 143/143/143 142/142/142
f 142/142/142 145/145/145 144/144/144
f 142/142/142 141/141/141 145/145/145
f 141/141/141 146/146/146 145/145/145
f 147/147/147 145/145/145 146/146/146
f 147/147/147 148/148/148 145/145/145
f 149/149/149 145/145/145 148/148/148
f 149/149/149 144/144/144 145/145/145
f 144/144/144 150/150/150 143/143/143
f 138/138/138 143/143/143 150/150/150
f 150/150/150 144/144/144 149/149/149
f 150/150/150 149/149/149 151/151/151
f 146/146/146 152/152/152 147/147/147
f 153/153/153 147/147/147 152/152/152
f 147/147/147 153/153/153 154/154/154
f 155/155/155 154/154/154 153/153/153
f 155/155/155 153/153/153 156/156/156
f 156/156/156 157/157/157 155/155/155
f 92/92/92 155/155/155 157/157/157
f 158/158/158 156/156/156 153/153/153
f 153/153/153 152/152/152 158/158/158
f 92/92/92 159/159/159 155/155/155
f 154/154/154 155/155/155 159/159/159
f 154/154/154 159/159/159 147/147/147
f 148/148/148 147/147/147 159/159/159
f 156/156/156 158/158/158 160/160/160
f 161/161/161 160/160/160 158/158/158
f 162/162/162 158/158/158 152/152/152
f 161/161/161 158/158/158 163/163/163
f 162/162/162 163/163/163 158/158/158
f 161/161/161 163/163/163 164/164/164
f 160/160/160 161/161/161 164/164/164
f 165/165/165 164/164/164 163/163/163
f 157/157/157 156/156/156 166/166/166
f 160/160/160 166/166/166 156/156/156
f 166/166/166 160/160/160 167/167/167
f 164/164/164 167/167/167 160/160/160
f 166/166/166 168/168/168 157/157/157
f 157/157/157 168/168/168 91/91/91
f 91/91/91 92/92/92 157/157/157
f 169/169/169 91/91/91 168/168/168
f 169/169/169 170/170/170 91/91/91
f 169/169/169 171/171/171 170/170/170
f 168/168/168 172/172/172 169/169/169
f 168/168/168 166/166/166 172/172/172
f 173/173/173 169/169/169 172/172/172
f 171/171/171 169/169/169 173/173/173
f 174/174/174 172/172/172 166/166/166
f 166/166/166 167/167/167 174/174/174
f 172/172/172 175/175/175 173/173/173
f 172/172/172 174/174/174 175/175/175
f 176/176/176 173/173/173 175/175/175
f 176/176/176 175/175/175 177/177/177
f 178/178/178 177/177/177 175/175/175
f 175/175/175 179/179/179 178/178/178
f 179/179/179 175/175/175 174/174/174
f 174/174/174 167/167/167 179/179/179
f 180/180/180 178/178/178 179/179/179
f 181/181/181 179/179/179 167/167/167
f 176/176/176 177/177/177 182/182/182
f 176/176/176 182/182/182 173/173/173
f 171/171/171 173/173/173 182/182/182
f 182/182/182 183/183/183 171/171/171
f 184/184/184 171/171/171 183/183/183
f 183/183/183 185/185/185 184/184/184
f 185/185/185 183/183/183 186/186/186
f 185/185/185 186/186/186 187/187/187
f 188/188/188 187/187/187 186/186/186
f 187/187/187 189/189/189 185/185/185
f 190/190/190 185/185/185 189/189/189
f 190/190/190 184/184/184 185/185/185
f 191/191/191 186/186/186 183/183/183
f 187/187/187 188/188/188 192/192/192
f 193/193/193 192/192/192 188/188/188
f 190/190/190 189/189/189 194/194/194
f 190/190/190 194/194/194 184/184/184
f 195/195/195 194/194/194 189/189/189
f 189/189/189 196/196/196 195/195/195
f 197/197/197 195/195/195 196/196/196
f 196/196/196 198/198/198 197/197/197
f 187/187/187 192/192/192 198/198/198
f 198/198/198 196/196/196 189/189/189
f 189/189/189 187/187/187 198/198/198
f 199/199/199 197/197/197 198/198/198
f 198/198/198 192/192/192 199/199/199
f 193/193/193 199/199/199 192/192/192
f 197/197/197 199/199/199 200/200/200
f 201/201/201 200/200/200 199/199/199
f 199/199/199 193/193/193 201/201/201
f 202/202/202 201/201/201 193/193/193
f 201/201/201 203/203/203 200/200/200
f 201/201/201 202/202/202 203/203/203
f 204/204/204 200/200/200 203/203/203
f 205/205/205 203/203/203 202/202/202
f 206/206/206 184/184/184 194/194/194
f 206/206/206 207/207/207 184/184/184
f 171/171/171 184/184/184 207/207/207
f 207/207/207 208/208/208 171/171/171
f 211/211/211 210/210/210 209/209/209
f 212/212/212 209/209/209 210/210/210
f 212/212/212 213/213/213 209/209/209
f 214/214/214 209/209/209 213/213/213
f 211/211/211 209/209/209 214/214/214
f 212/212/212 210/210/210 215/215/215
f 216/216/216 215/215/215 210/210/210
f 211/211/211 217/217/217 210/210/210
f 218/218/218 210/210/210 217/217/217
f 216/216/216 210/210/210 219/219/219
f 218/218/218 219/219/219 210/210/210
f 217/217/217 211/211/211 220/220/220
f 214/214/214 220/220/220 211/211/211
f 220/220/220 221/221/221 217/217/217
f 222/222/222 217/217/217 221/221/221
f 214/214/214 223/223/223 220/220/220
f 223/223/223 214/214/214 213/213/213
f 213/213/213 224/224/224 223/223/223
f 225/225/225 223/223/223 224/224/224
f 223/223/223 225/225/225 226/226/226
f 226/226/226 220/220/220 223/223/223
f 221/221/221 220/220/220 226/226/226
f 227/227/227 226/226/226 225/225/225
f 227/227/227 225/225/225 228/228/228
f 229/229/229 228/228/228 225/225/225
f 225/225/225 224/224/224 229/229/229
f 228/228/228 229/229/229 230/230/230
f 231/231/231 230/230/230 229/229/229
f 229/229/229 224/224/224 231/231/231
f 232/232/232 231/231/231 224/224/224
f 231/231/231 232/232/232 148/148/148
f 227/227/227 233/233/233 226/226/226
f 221/221/221 226/226/226 233/233/233
f 233/233/233 227/227/227 228/228/228
f 233/233/233 228/228/228 234/234/234
f 235/235/235 234/234/234 228/228/228
f 231/231/231 159/159/159 230/230/230
f 148/148/148 159/159/159 231/231/231
f 89/89/89 230/230/230 159/159/159
f 82/82/82 230/230/230 89/89/89
f 82/82/82 236/236/236 230/230/230
f 237/237/237 230/230/230 236/236/236
f 236/236/236 82/82/82 238/238/238
f 92/92/92 89/89/89 159/159/159
f 240/240/240 148/148/148 239/239/239
f 243/243/243 242/242/242 241/241/241
f 244/244/244 241/241/241 242/242/242
f 242/242/242 245/245/245 244/244/244
f 242/242/242 246/246/246 245/245/245
f 247/247/247 245/245/245 246/246/246
f 248/248/248 244/244/244 245/245/245
f 246/246/246 242/242/242 249/249/249
f 250/250/250 249/249/249 242/242/242
f 242/242/242 243/243/243 250/250/250
f 243/243/243 251/251/251 250/250/250
f 251/251/251 243/243/243 252/252/252
f 253/253/253 252/252/252 243/243/243
f 243/243/243 241/241/241 253/253/253
f 251/251/251 252/252/252 254/254/254
f 255/255/255 254/254/254 252/252/252
f 256/256/256 250/250/250 251/251/251
f 247/247/247 257/257/257 245/245/245
f 258/258/258 245/245/245 257/257/257
f 248/248/248 245/245/245 259/259/259
f 258/258/258 259/259/259 245/245/245
f 253/253/253 260/260/260 252/252/252
f 261/261/261 252/252/252 260/260/260
f 255/255/255 252/252/252 262/262/262
f 261/261/261 262/262/262 252/252/252
f 259/259/259 258/258/258 263/263/263
f 264/264/264 263/263/263 258/258/258
f 262/262/262 261/261/261 265/265/265
f 266/266/266 265/265/265 261/261/261
f 260/260/260 253/253/253 267/267/267
f 268/268/268 267/267/267 253/253/253
f 268/268/268 253/253/253 241/241/241
f 267/267/267 269/269/269 260/260/260
f 270/270/270 260/260/260 269/269/269
f 257/257/257 271/271/271 258/258/258
f 264/264/264 271/271/271 272/272/272
f 273/273/273 272/272/272 271/271/271
f 273/273/273 271/271/271 274/274/274
f 275/275/275 274/274/274 271/271/271
f 257/257/257 275/275/275 271/271/271
f 275/275/275 257/257/257 276/276/276
f 277/277/277 276/276/276 257/257/257
f 257/257/257 247/247/247 277/277/277
f 278/278/278 277/277/277 247/247/247
f 278/278/278 247/247/247 279/279/279
f 246/246/246 279/279/279 247/247/247
f 246/246/246 280/280/280 279/279/279
f 281/281/281 279/279/279 280/280/280
f 280/280/280 282/282/282 281/281/281
f 282/282/282 280/280/280 283/283/283
f 284/284/284 283/283/283 280/280/280
f 285/285/285 281/281/281 282/282/282
f 284/284/284 280/280/280 286/286/286
f 249/249/249 286/286/286 280/280/280
f 280/280/280 246/246/246 249/249/249
f 282/282/282 283/283/283 287/287/287
f 288/288/288 287/287/287 283/283/283
f 285/285/285 282/282/282 289/289/289
f 287/287/287 289/289/289 282/282/282
f 289/289/289 287/287/287 290/290/290
f 291/291/291 290/290/290 287/287/287
f 284/284/284 292/292/292 283/283/283
f 293/293/293 283/283/283 292/292/292
f 288/288/288 283/283/283 294/294/294
f 293/293/293 294/294/294 283/283/283
f 294/294/294 295/295/295 288/288/288
f 296/296/296 288/288/288 295/295/295
f 286/286/286 249/249/249 297/297/297
f 298/298/298 297/297/297 249/249/249
f 249/249/249 250/250/250 298/298/298
f 299/299/299 298/298/298 250/250/250
f 298/298/298 299/299/299 300/300/300
f 298/298/298 300/300/300 297/297/297
f 301/301/301 300/300/300 299/299/299
f 299/299/299 302/302/302 301/301/301
f 303/303/303 301/301/301 302/302/302
f 303/303/303 304/304/304 301/301/301
f 305/305/305 301/301/301 304/304/304
f 300/300/300 301/301/301 305/305/305
f 302/302/302 299/299/299 306/306/306
f 306/306/306 307/307/307 302/302/302
f 308/308/308 302/302/302 307/307/307
f 306/306/306 309/309/309 307/307/307
f 310/310/310 307/307/307 309/309/309
f 309/309/309 311/311/311 310/310/310
f 312/312/312 310/310/310 311/311/311
f 312/312/312 311/311/311 313/313/313
f 314/314/314 313/313/313 311/311/311
f 314/314/314 315/315/315 313/313/313
f 316/316/316 313/313/313 315/315/315
f 309/309/309 317/317/317 311/311/311
f 314/314/314 311/311/311 317/317/317
f 309/309/309 306/306/306 317/317/317
f 313/313/313 318/318/318 312/312/312
f 310/310/310 312/312/312 318/318/318
f 307/307/307 318/318/318 308/308/308
f 307/307/307 310/310/310 318/318/318
f 318/318/318 313/313/313 319/319/319
f 319/319/319 308/308/308 318/318/318
f 320/320/320 319/319/319 313/313/313
f 315/315/315 321/321/321 316/316/316
f 322/322/322 316/316/316 321/321/321
f 321/321/321 323/323/323 322/322/322
f 324/324/324 322/322/322 323/323/323
f 322/322/322 324/324/324 316/316/316
f 325/325/325 316/316/316 324/324/324
f 324/324/324 323/323/323 325/325/325
f 326/326/326 325/325/325 323/323/323
f 315/315/315 326/326/326 321/321/321
f 323/323/323 321/321/321 326/326/326
f 325/325/325 326/326/326 327/327/327
f 328/328/328 327/327/327 326/326/326
f 328/328/328 326/326/326 329/329/329
f 330/330/330 329/329/329 326/326/326
f 330/330/330 326/326/326 331/331/331
f 315/315/315 331/331/331 326/326/326
f 329/329/329 332/332/332 328/328/328
f 333/333/333 328/328/328 332/332/332
f 327/327/327 334/334/334 325/325/325
f 335/335/335 325/325/325 334/334/334
f 335/335/335 336/336/336 325/325/325
f 316/316/316 325/325/325 336/336/336
f 334/334/334 327/327/327 337/337/337
f 338/338/338 337/337/337 327/327/327
f 315/315/315 314/314/314 331/331/331
f 339/339/339 331/331/331 314/314/314
f 339/339/339 314/314/314 340/340/340
f 317/317/317 340/340/340 314/314/314
f 316/316/316 336/336/336 313/313/313
f 320/320/320 313/313/313 336/336/336
f 342/342/342 341/341/341 317/317/317
f 343/343/343 317/317/317 341/341/341
f 341/341/341 342/342/342 256/256/256
f 256/256/256 251/251/251 341/341/341
f 254/254/254 341/341/341 251/251/251
f 299/299/299 256/256/256 342/342/342
f 342/342/342 306/306/306 299/299/299
f 342/342/342 317/317/317 306/306/306
f 250/250/250 256/256/256 299/299/299
f 338/338/338 345/345/345 344/344/344
f 346/346/346 344/344/344 345/345/345
f 346/346/346 345/345/345 347/347/347
f 333/333/333 347/347/347 345/345/345
f 338/338/338 327/327/327 345/345/345
f 327/327/327 328/328/328 345/345/345
f 328/328/328 333/333/333 345/345/345
f 349/349/349 297/297/297 348/348/348
f 350/350/350 348/348/348 297/297/297
f 349/349/349 348/348/348 351/351/351
f 349/349/349 351/351/351 286/286/286
f 286/286/286 297/297/297 349/349/349
f 352/352/352 286/286/286 351/351/351
f 351/351/351 353/353/353 352/352/352
f 354/354/354 352/352/352 353/353/353
f 354/354/354 353/353/353 355/355/355
f 356/356/356 355/355/355 353/353/353
f 355/355/355 357/357/357 354/354/354
f 358/358/358 354/354/354 357/357/357
f 358/358/358 359/359/359 354/354/354
f 357/357/357 355/355/355 360/360/360
f 361/361/361 360/360/360 355/355/355
f 362/362/362 351/351/351 348/348/348
f 351/351/351 362/362/362 353/353/353
f 363/363/363 353/353/353 362/362/362
f 356/356/356 353/353/353 364/364/364
f 363/363/363 364/364/364 353/353/353
f 364/364/364 365/365/365 356/356/356
f 366/366/366 356/356/356 365/365/365
f 356/356/356 367/367/367 355/355/355
f 367/367/367 361/361/361 355/355/355
f 361/361/361 367/367/367 368/368/368
f 369/369/369 368/368/368 367/367/367
f 369/369/369 367/367/367 370/370/370
f 371/371/371 370/370/370 367/367/367
f 356/356/356 371/371/371 367/367/367
f 373/373/373 354/354/354 372/372/372
f 352/352/352 374/374/374 284/284/284
f 375/375/375 284/284/284 374/374/374
f 352/352/352 284/284/284 286/286/286
f 377/377/377 376/376/376 149/149/149
f 303/303/303 302/302/302 378/378/378
f 308/308/308 378/378/378 302/302/302
f 303/303/303 378/378/378 304/304/304
f 379/379/379 304/304/304 378/378/378
f 382/382/382 381/381/381 380/380/380
f 383/383/383 380/380/380 381/381/381
f 380/380/380 350/350/350 382/382/382
f 297/297/297 382/382/382 350/350/350
f 382/382/382 297/297/297 300/300/300
f 382/382/382 300/300/300 381/381/381
f 305/305/305 381/381/381 300/300/300
f 182/182/182 384/384/384 183/183/183
f 191/191/191 183/183/183 384/384/384
f 384/384/384 182/182/182 177/177/177
f 67/67/67 386/386/386 385/385/385
f 387/387/387 385/385/385 386/386/386
f 67/67/67 385/385/385 388/388/388
f 389/389/389 388/388/388 385/385/385
f 216/216/216 391/391/391 390/390/390
f 392/392/392 390/390/390 391/391/391
f 216/216/216 390/390/390 393/393/393
f 394/394/394 393/393/393 390/390/390
f 133/133/133 396/396/396 395/395/395
f 397/397/397 395/395/395 396/396/396
f 133/133/133 395/395/395 398/398/398
f 399/399/399 398/398/398 395/395/395
f 402/402/402 401/401/401 400/400/400
f 270/270/270 400/400/400 401/401/401
f 402/402/402 403/403/403 401/401/401
f 266/266/266 401/401/401 403/403/403
f 401/401/401 260/260/260 270/270/270
f 401/401/401 266/266/266 261/261/261
f 401/401/401 261/261/261 260/260/260
f 406/406/406 405/405/405 404/404/404
f 407/407/407 404/404/404 405/405/405
f 407/407/407 408/408/408 404/404/404
f 291/291/291 404/404/404 408/408/408
f 404/404/404 291/291/291 287/287/287
f 288/288/288 404/404/404 287/287/287
f 288/288/288 406/406/406 404/404/404
f 409/409/409 180/180/180 179/179/179
f 271/271/271 410/410/410 258/258/258
