g helm
v 0.124505334 0.0777938217 -0.0553427264
v 0.133550569 0.0525398999 -0.0689616129
v 0.139881581 0.0738875791 -0.0553936474
v 0.117107444 0.0566189736 -0.0688415542
v 0.126818612 0.0298899356 -0.0749461129
v 0.107611567 0.0337716341 -0.0748568252
v 0.1293336 0.0915402696 -0.0394933447
v 0.144377232 0.0876792297 -0.0395060852
v 0.136970237 0.0501168147 -0.0653762221
v 0.143037617 0.0705160573 -0.0523808151
v 0.142111257 0.0668855682 -0.0478294753
v 0.13643302 0.0478855073 -0.0599509403
v 0.119273461 0.072775133 -0.0476845726
v 0.112531036 0.0539764725 -0.0597115867
v 0.130248234 0.0271893218 -0.0653485954
v 0.10332074 0.03270391 -0.0652088672
v 0.124458037 0.0022923965 -0.0693912134
v 0.0898312628 0.0106464112 -0.0692634881
v 0.0926272646 -0.0164332073 -0.070630312
v 0.121001072 -0.0227042045 -0.070794791
v 0.090728119 -0.0407824218 -0.0657854453
v 0.11778944 -0.0470298082 -0.0659620389
v 0.113279313 -0.0685744956 -0.051149115
v 0.0848837048 -0.0620817058 -0.0509405397
v 0.080707632 -0.0741915703 -0.0291027185
v 0.111637115 -0.0788909867 -0.0293100569
v 0.110944957 -0.0845710337 8.79736433E-07
v 0.0786216035 -0.0796799287 8.79736433E-07
v 0.124583803 0.00290015922 -0.0752886087
v 0.130483732 0.0283548776 -0.0711592957
v 0.120879635 -0.0231528636 -0.0766799599
v 0.117253661 -0.0492633581 -0.0713494122
v 0.112410218 -0.07281515 -0.0550078675
v 0.110076055 -0.0903692245 8.79736433E-07
v 0.11079827 -0.0844258517 -0.0311720055
v 0.11699573 -0.0225797333 -0.0805582032
v 0.113098189 -0.0498793274 -0.0749711692
v 0.0936205089 -0.0452941172 -0.0748796761
v 0.0963389277 -0.0178523678 -0.0804488733
v 0.108020015 -0.0748661608 -0.0576688088
v 0.0869985968 -0.0699652582 -0.0576189794
v 0.0829603001 -0.0839068368 -0.0323527344
v 0.106397741 -0.0875077248 -0.0323996469
v 0.105644971 -0.0936938375 8.79736433E-07
v 0.0809764713 -0.0899610892 8.79736433E-07
v 0.0925141945 -0.0167501923 -0.0765254349
v 0.0901848301 -0.0429417305 -0.0712044388
v 0.090728119 -0.0407824218 -0.0657854453
v 0.0926272646 -0.0164332073 -0.070630312
v 0.0899235234 0.0112858033 -0.075166516
v 0.0898312628 0.0106464112 -0.0692634881
v 0.0848837048 -0.0620817058 -0.0509405397
v 0.0838882029 -0.0662438273 -0.0549059585
v 0.080707632 -0.0741915703 -0.0291027185
v 0.0797515288 -0.0796571076 -0.0310449135
v 0.0786216035 -0.0796799287 8.79736433E-07
v 0.0777299702 -0.085472703 8.79736433E-07
v 0.0933937505 0.00154910958 -0.0782076716
v 0.0921207964 0.0109882317 -0.077271156
v 0.103521898 0.033832822 -0.0710294321
v 0.0898312628 0.0106464112 -0.0692634881
v 0.10332074 0.03270391 -0.0652088672
v 0.112996586 0.0561284944 -0.065174818
v 0.112531036 0.0539764725 -0.0597115867
v 0.120147072 0.076365985 -0.0522768311
v 0.119273461 0.072775133 -0.0476845726
v 0.124684922 0.0890275165 -0.0376539864
v 0.123425841 0.0840389505 -0.0350222513
v 0.127295628 0.0961646363 -2.55135973E-07
v 0.125202745 0.0902714878 8.51126231E-07
v 0.0957836732 0.0169436801 -0.076239638
v 0.128723755 0.096302554 -0.006287992
v 0.127295628 0.0961646363 -2.55135973E-07
v 0.132130966 0.0988501087 -0.00508391112
v 0.145584449 0.0919862241 -0.0178953093
v 0.147251904 0.0832212642 -0.0377126075
v 0.145966157 0.0782063678 -0.0351311788
v 0.123425841 0.0840389505 -0.0350222513
v 0.125202745 0.0902714878 8.51126231E-07
v 0.148163557 0.0850165188 6.91818932E-05
v 0.148452207 0.0865421966 -0.0159964487
v 0.0980387777 0.0176073611 -0.0777942613
v 0.112281457 0.0254265629 -0.0765327215
v 0.115009986 0.0253007319 -0.0764869079
v 0.123495594 0.0155285727 -0.0772915408
v 0.125027522 0.0139378374 -0.0756253004
v 0.122833602 0.00352183008 -0.0771072581
v 0.12073116 -0.00664855866 -0.0783081949
v 0.122833602 0.00352183008 -0.0771072581
v 0.119336218 -0.00642613415 -0.0797026604
v 0.108210467 -0.0131128645 -0.0807832405
v 0.103791818 -0.0116159711 -0.0807490647
v 0.0948585048 1.8197803E-05 -0.0795698985
v 0.133550584 0.0525399186 0.0689633042
v 0.124505349 0.0777938291 0.0553444363
v 0.139881581 0.0738875866 0.055395335
v 0.117107458 0.056618996 0.0688432604
v 0.126818612 0.0298899543 0.074947834
v 0.107611574 0.0337716565 0.0748585463
v 0.1293336 0.0915402845 0.0394950397
v 0.144377232 0.0876792297 0.0395077914
v 0.11299675 0.0561284907 0.0651765317
v 0.120147072 0.0763659999 0.0522785261
v 0.11927361 0.0727751255 0.0476862788
v 0.112531193 0.0539764613 0.0597132966
v 0.103521898 0.0338328443 0.0710311458
v 0.10332074 0.0327039324 0.0652105883
v 0.0899235234 0.0112858247 0.0751682445
v 0.0898312703 0.0106464326 0.0692652091
v 0.123425841 0.0840389505 0.0350239687
v 0.12468493 0.0890275389 0.0376556888
v 0.147251904 0.0832212791 0.03771431
v 0.143037617 0.0705160797 0.0523825139
v 0.142111257 0.0668855831 0.0478311628
v 0.13643302 0.047885526 0.0599526502
v 0.11927361 0.0727751255 0.0476862788
v 0.112531193 0.0539764613 0.0597132966
v 0.130248234 0.0271893367 0.065350309
v 0.10332074 0.0327039324 0.0652105883
v 0.124445111 0.00229714229 0.0694060996
v 0.0898312703 0.0106464326 0.0692652091
v 0.092627272 -0.0164331831 0.070632048
v 0.121001072 -0.0227041841 0.0707965195
v 0.0907281265 -0.0407824032 0.0657871738
v 0.11778944 -0.0470297933 0.0659637749
v 0.113279313 -0.0685744807 0.0511508547
v 0.0848837048 -0.0620816946 0.0509422757
v 0.080707632 -0.0741915628 0.0291044638
v 0.111637115 -0.0788909793 0.0293118022
v 0.110944957 -0.0845710337 8.79736433E-07
v 0.0786216035 -0.0796799287 8.79736433E-07
v 0.130483732 0.0283548962 0.0711610019
v 0.124583803 0.00290018041 0.0752903372
v 0.120879635 -0.0231528413 0.0766816884
v 0.117253676 -0.049263332 0.0713511333
v 0.112410374 -0.0728151575 0.0550096035
v 0.11079827 -0.0844258368 0.0311737452
v 0.110076055 -0.0903692245 8.79736433E-07
v 0.113098353 -0.0498793311 0.0749729127
v 0.116995744 -0.0225797091 0.0805599019
v 0.0963389277 -0.0178523436 0.080450587
v 0.0936205164 -0.0452940948 0.0748814195
v 0.108020015 -0.0748661458 0.0576705448
v 0.0869986042 -0.0699652359 0.0576207153
v 0.0829603001 -0.0839068368 0.032354489
v 0.106397748 -0.0875077099 0.032401409
v 0.105644971 -0.0936938375 8.79736433E-07
v 0.0809764713 -0.0899610892 8.79736433E-07
v 0.0901848301 -0.0429417081 0.0712061673
v 0.0925141945 -0.0167501699 0.0765271559
v 0.092627272 -0.0164331831 0.070632048
v 0.0898312703 0.0106464326 0.0692652091
v 0.0907281265 -0.0407824032 0.0657871738
v 0.0838882178 -0.0662438124 0.0549076945
v 0.0848837048 -0.0620816946 0.0509422757
v 0.0797515288 -0.0796570927 0.0310466588
v 0.080707632 -0.0741915628 0.0291044638
v 0.0777299702 -0.085472703 8.79736433E-07
v 0.0786216035 -0.0796799287 8.79736433E-07
v 0.0935035571 0.00139266008 0.0782178864
v 0.0921145976 0.0109890876 0.07726679
v 0.0956755131 0.0168809257 0.0762579888
v 0.0982755795 0.0180072859 0.0777233094
v 0.112281606 0.0254265536 0.0765344799
v 0.115009993 0.025300758 0.0764886662
v 0.123290949 0.0146437977 0.0774377584
v 0.125038981 0.0139218876 0.0756297112
v 0.136970237 0.0501168296 0.0653779209
v 0.122868545 0.00350944395 0.0770726725
v 0.120697983 -0.00666990364 0.0783117488
v 0.122868545 0.00350944395 0.0770726725
v 0.119221754 -0.00721562747 0.0797461867
v 0.108125158 -0.0130088506 0.0809776857
v 0.103893913 -0.0115689468 0.0809614137
v 0.09480194 0.000700187462 0.0795380548
v 0.145966157 0.0782063901 0.0351328962
v 0.125202745 0.0902714878 8.51126231E-07
v 0.123425841 0.0840389505 0.0350239687
v 0.148163557 0.0850165188 6.91818932E-05
v 0.148438781 0.0865443051 0.0160151403
v 0.145615876 0.0920636654 0.0178974848
v 0.132175326 0.0989436135 0.00509873638
v 0.128712252 0.0963066295 0.00629632222
v 0.127295628 0.0961646363 -2.55135973E-07
v 0.125202745 0.0902714878 8.51126231E-07
v 0.127295628 0.0961646363 -2.55135973E-07
v 0.0864058509 0.0115091819 0.0776742324
v 0.0935035571 0.00139266008 0.0782178864
v 0.0921145976 0.0109890876 0.07726679
v 0.0880834237 0.0114041567 0.0826922432
v 0.09480194 0.000700187462 0.0795380548
v 0.103893913 -0.0115689468 0.0809614137
v 0.13236104 0.00222625979 0.0826390982
v 0.108125158 -0.0130088506 0.0809776857
v 0.112281606 0.0254265536 0.0765344799
v 0.115009993 0.025300758 0.0764886662
v 0.123290949 0.0146437977 0.0774377584
v 0.0982755795 0.0180072859 0.0777233094
v 0.125038981 0.0139218876 0.0756297112
v 0.133810073 0.00170737749 0.0776276961
v 0.0956755131 0.0168809257 0.0762579888
v 0.0864058509 0.0115091819 0.0776742324
v 0.125038981 0.0139218876 0.0756297112
v 0.122868545 0.00350944395 0.0770726725
v 0.119221754 -0.00721562747 0.0797461867
v 0.13236104 0.00222625979 0.0826390982
v 0.120697983 -0.00666990364 0.0783117488
v 0.133810073 0.00170737749 0.0776276961
v 0.122868545 0.00350944395 0.0770726725
v 0.120697983 -0.00666990364 0.0783117488
v 0.0921145976 0.0109890876 0.07726679
v 0.0956755131 0.0168809257 0.0762579888
v 0.133809909 0.0017074279 -0.0776258782
v 0.12073116 -0.00664855866 -0.0783081949
v 0.122833602 0.00352183008 -0.0771072581
v 0.132360786 0.00222492404 -0.0828701556
v 0.12073116 -0.00664855866 -0.0783081949
v 0.119336218 -0.00642613415 -0.0797026604
v 0.108210467 -0.0131128645 -0.0807832405
v 0.103791818 -0.0116159711 -0.0807490647
v 0.0880828723 0.0114036947 -0.0829316154
v 0.112281457 0.0254265629 -0.0765327215
v 0.0980387777 0.0176073611 -0.0777942613
v 0.115009986 0.0253007319 -0.0764869079
v 0.123495594 0.0155285727 -0.0772915408
v 0.125027522 0.0139378374 -0.0756253004
v 0.133809909 0.0017074279 -0.0776258782
v 0.122833602 0.00352183008 -0.0771072581
v 0.0864056945 0.0115091931 -0.0776724294
v 0.0957836732 0.0169436801 -0.076239638
v 0.0921207964 0.0109882317 -0.077271156
v 0.0948585048 1.8197803E-05 -0.0795698985
v 0.0880828723 0.0114036947 -0.0829316154
v 0.0933937505 0.00154910958 -0.0782076716
v 0.0864056945 0.0115091931 -0.0776724294
v 0.0921207964 0.0109882317 -0.077271156
v 0.0933937505 0.00154910958 -0.0782076716
v 0.152486056 0.0986212641 0.0163041893
v 0.180983946 0.088111043 8.70199699E-07
v 0.188989565 0.0819890276 8.70199699E-07
v 0.150403425 0.103047691 0.0113051627
v 0.143953979 0.10792312 8.79736433E-07
v 0.126136988 0.115159974 0.00359514472
v 0.150675192 0.102887422 -0.0112397596
v 0.188989565 0.0819890276 8.70199699E-07
v 0.153085366 0.0983481854 -0.0160348006
v 0.126124382 0.115165643 -0.0035991834
v 0.11873927 0.118503876 -0.00719506014
v 0.112593599 0.11090757 -0.0164898839
v 0.0926527455 0.123942383 1.02278761E-06
v 0.123629205 0.106477618 -0.010460021
v 0.11873927 0.118503876 0.0071971151
v 0.112593599 0.110907607 0.0164919589
v 0.123679601 0.106457412 0.0104345726
v 0.11181365 0.121622339 1.03232435E-06
v 0.0804284438 0.123713203 1.02278761E-06
v 0.0804284438 0.123713203 1.02278761E-06
v 0.12516968 0.112240992 -0.0314689875
v 0.172011748 0.089756161 -0.04612533
v 0.150637612 0.0907772109 -0.0158049408
v 0.188989565 0.0819890276 8.70199699E-07
v 0.185983658 0.0730987564 8.89273167E-07
v 0.148452207 0.0865421966 -0.0159964487
v 0.145584449 0.0919862241 -0.0178953093
v 0.165972367 0.0800969601 -0.0433779359
v 0.153085366 0.0983481854 -0.0160348006
v 0.172011748 0.089756161 -0.04612533
v 0.150637612 0.0907772109 -0.0158049408
v 0.150675192 0.102887422 -0.0112397596
v 0.132130966 0.0988501087 -0.00508391112
v 0.145584449 0.0919862241 -0.0178953093
v 0.150637612 0.0907772109 -0.0158049408
v 0.165972367 0.0800969601 -0.0433779359
v 0.165972367 0.0800969601 -0.0433779359
v 0.121801533 0.0996987224 -0.0302564781
v 0.122754946 0.1032224 -0.0103167556
v 0.123629205 0.106477618 -0.010460021
v 0.12516968 0.112240992 -0.0314689875
v 0.126124382 0.115165643 -0.0035991834
v 0.165972367 0.0800969601 -0.0433779359
v 0.12516968 0.112240992 -0.0314689875
v 0.12516968 0.112240992 -0.0314689875
v 0.172011748 0.089756161 -0.04612533
v 0.172011912 0.0897561312 0.046127107
v 0.121801548 0.0996987447 0.0302582756
v 0.125157639 0.11223723 0.0314739235
v 0.172011912 0.0897561312 0.046127107
v 0.165972367 0.080096975 0.0433796979
v 0.132175326 0.0989436135 0.00509873638
v 0.122754 0.10321898 0.0103378985
v 0.165972367 0.080096975 0.0433796979
v 0.123679601 0.106457412 0.0104345726
v 0.125157639 0.11223723 0.0314739235
v 0.126136988 0.115159974 0.00359514472
v 0.145615876 0.0920636654 0.0178974848
v 0.150649011 0.0907692984 0.0158271436
v 0.165972367 0.080096975 0.0433796979
v 0.172011912 0.0897561312 0.046127107
v 0.150649011 0.0907692984 0.0158271436
v 0.152486056 0.0986212641 0.0163041893
v 0.150403425 0.103047691 0.0113051627
v 0.123629205 0.106477618 -0.010460021
v 0.109807506 0.102987297 -0.0165039562
v 0.122754946 0.1032224 -0.0103167556
v 0.112593599 0.11090757 -0.0164898839
v 0.128723755 0.096302554 -0.006287992
v 0.127295628 0.0961646363 -2.55135973E-07
v 0.0773412436 0.114688165 1.02278761E-06
v 0.112593599 0.11090757 -0.0164898839
v 0.0804284438 0.123713203 1.02278761E-06
v 0.132130966 0.0988501087 -0.00508391112
v 0.112593599 0.110907607 0.0164919589
v 0.0773412436 0.114688165 1.02278761E-06
v 0.0804284438 0.123713203 1.02278761E-06
v 0.109807506 0.102987319 0.0165060535
v 0.127295628 0.0961646363 -2.55135973E-07
v 0.128712252 0.0963066295 0.00629632222
v 0.132175326 0.0989436135 0.00509873638
v 0.122754 0.10321898 0.0103378985
v 0.123679601 0.106457412 0.0104345726
v 0.112593599 0.110907607 0.0164919589
v 0.185983658 0.0730987564 8.89273167E-07
v 0.148452207 0.0865421966 -0.0159964487
v 0.148163557 0.0850165188 6.91818932E-05
v 0.188989565 0.0819890276 8.70199699E-07
v 0.150649011 0.0907692984 0.0158271436
v 0.185983658 0.0730987564 8.89273167E-07
v 0.148438781 0.0865443051 0.0160151403
v 0.145615876 0.0920636654 0.0178974848
v 0.185983658 0.0730987564 8.89273167E-07
v 0.148163557 0.0850165188 6.91818932E-05
v 0.148438781 0.0865443051 0.0160151403
v 0.125157639 0.11223723 0.0314739235
v 0.172011912 0.0897561312 0.046127107
vt 0.688338876 0.515982389
vt 0.606742024 0.556415379
vt 0.683755696 0.564120293
vt 0.610173583 0.504760742
vt 0.533375561 0.551262558
vt 0.533803165 0.489663333
vt 0.751724422 0.527245343
vt 0.74576664 0.573388755
vt 0.606393933 0.57295531
vt 0.682530522 0.580368996
vt 0.680938661 0.597657263
vt 0.605946779 0.590809047
vt 0.669947028 0.669190228
vt 0.601180434 0.666692257
vt 0.534743309 0.590651453
vt 0.531213462 0.676876307
vt 0.453318864 0.595704734
vt 0.455229253 0.704198718
vt 0.374612123 0.677852631
vt 0.373569876 0.587332666
vt 0.297387034 0.670048773
vt 0.293207258 0.584937692
vt 0.20683822 0.588599324
vt 0.21466352 0.678373039
vt 0.137250453 0.69125241
vt 0.128258675 0.595034897
vt 0.0349348187 0.604259431
vt 0.0464285463 0.704703987
vt 0.454408407 0.580944419
vt 0.534539819 0.569067001
vt 0.375786453 0.567381382
vt 0.294021994 0.568340182
vt 0.205556497 0.571165025
vt 0.0273808595 0.586311281
vt 0.12468189 0.577187538
vt 0.379064739 0.551217735
vt 0.295384973 0.552785397
vt 0.297351778 0.492115706
vt 0.382639498 0.486689895
vt 0.205032259 0.554850519
vt 0.205088317 0.489030242
vt 0.118177079 0.487883568
vt 0.121742256 0.560581326
vt 0.0215332098 0.567888498
vt 0.0176348928 0.4887954
vt 0.379796356 0.470143467
vt 0.296245068 0.475474119
vt 0.294827819 0.457631856
vt 0.374537349 0.452233821
vt 0.461069316 0.438171893
vt 0.453175992 0.421556741
vt 0.206139132 0.455455363
vt 0.205525532 0.472772986
vt 0.121460766 0.453772247
vt 0.119663268 0.471491158
vt 0.0270624124 0.452152222
vt 0.0218346324 0.470326453
vt 0.436037153 0.460029483
vt 0.460881114 0.447281003
vt 0.537386596 0.471457154
vt 0.469682723 0.42196095
vt 0.543868661 0.453957826
vt 0.613320529 0.488365293
vt 0.617684901 0.470849961
vt 0.690805674 0.499669433
vt 0.694201052 0.482156426
vt 0.752004504 0.510979176
vt 0.753487766 0.4939152
vt 0.868495405 0.527118027
vt 0.866097867 0.507198751
vt 0.479374975 0.45712173
vt 0.85131979 0.532802999
vt 0.868495405 0.527118027
vt 0.857667983 0.548069119
vt 0.810145259 0.588574767
vt 0.742447853 0.588900566
vt 0.73840189 0.605533421
vt 0.720277727 0.675849319
vt 0.823774576 0.707764864
vt 0.845404923 0.63948375
vt 0.80563134 0.610969901
vt 0.480133981 0.466770321
vt 0.509979546 0.508781433
vt 0.510757565 0.519126534
vt 0.487683833 0.554824889
vt 0.485564679 0.56583333
vt 0.455118328 0.575024545
vt 0.426767856 0.56436938
vt 0.455118328 0.575024545
vt 0.428277433 0.556256413
vt 0.40454784 0.521218896
vt 0.406489581 0.505167544
vt 0.433829606 0.467631638
vt 0.393830627 0.824627101
vt 0.312497258 0.783816636
vt 0.316869587 0.832082093
vt 0.390906036 0.773128927
vt 0.467242777 0.821262956
vt 0.467620492 0.759508967
vt 0.248977333 0.794859469
vt 0.255010217 0.841315687
vt 0.387918204 0.756733954
vt 0.310094595 0.767410457
vt 0.306819826 0.749828398
vt 0.38378343 0.739181757
vt 0.464368403 0.7412166
vt 0.458218724 0.723587573
vt 0.541687071 0.709989965
vt 0.533378482 0.69357276
vt 0.246752262 0.760885894
vt 0.248649344 0.778114259
vt 0.258207977 0.856969357
vt 0.317996114 0.848478317
vt 0.31949845 0.865918934
vt 0.394271433 0.859471202
vt 0.33022964 0.937559307
vt 0.398838967 0.935547471
vt 0.465378195 0.859994709
vt 0.468376398 0.945988238
vt 0.546822429 0.865843713
vt 0.543265402 0.974309266
vt 0.623704553 0.949567318
vt 0.626706362 0.859113872
vt 0.700604796 0.943758607
vt 0.707039475 0.858738184
vt 0.793191135 0.865173876
vt 0.782785475 0.954619944
vt 0.859737635 0.969827354
vt 0.871512413 0.87393415
vt 0.964520395 0.885845602
vt 0.95012933 0.985915005
vt 0.465834528 0.83891952
vt 0.545961738 0.850958467
vt 0.624901891 0.839147568
vt 0.706588924 0.841979921
vt 0.79487288 0.847928643
vt 0.875558615 0.856245339
vt 0.972567737 0.868126631
vt 0.705536306 0.826225936
vt 0.62207979 0.822856843
vt 0.620114565 0.758161187
vt 0.705375791 0.765483081
vt 0.795716763 0.831800759
vt 0.797741771 0.766041577
vt 0.884560943 0.767248869
vt 0.878940523 0.839788914
vt 0.978921115 0.849892974
vt 0.985033631 0.770950556
vt 0.70679158 0.748938024
vt 0.62319833 0.741660655
vt 0.628695667 0.72382915
vt 0.549710631 0.693363667
vt 0.708666503 0.731180251
vt 0.797652602 0.749678731
vt 0.797543049 0.73229897
vt 0.883534908 0.750813961
vt 0.882231832 0.733049452
vt 0.981355608 0.752371669
vt 0.976637721 0.734058619
vt 0.567192614 0.732012391
vt 0.541746259 0.719091833
vt 0.523104608 0.728138387
vt 0.520466685 0.738432527
vt 0.491079688 0.779098868
vt 0.490070462 0.789322972
vt 0.51576817 0.825229168
vt 0.514918447 0.835981905
vt 0.393982321 0.841225386
vt 0.545346797 0.845082045
vt 0.574072897 0.834844649
vt 0.545346797 0.845082045
vt 0.575190127 0.826483488
vt 0.597124577 0.791925013
vt 0.595779717 0.776664913
vt 0.566948175 0.738296449
vt 0.262175679 0.87371397
vt 0.176673993 0.97589767
vt 0.280108213 0.944068193
vt 0.155561104 0.907514393
vt 0.19519639 0.879340351
vt 0.190842912 0.85721463
vt 0.143473864 0.818191409
vt 0.150084853 0.80375725
vt 0.133332655 0.800488532
vt 0.134748831 0.781440377
vt 0.133332655 0.800488532
vt 0.899857461 0.0493868068
vt 0.935687959 0.0963090733
vt 0.927261055 0.0505775735
vt 0.884043992 0.069055669
vt 0.934352696 0.105578981
vt 0.975494444 0.166131675
vt 0.881874025 0.284868121
vt 0.977892578 0.187335581
vt 0.789368749 0.16765058
vt 0.787214041 0.18051827
vt 0.823479652 0.233959645
vt 0.833349586 0.105830066
vt 0.8193174 0.245545432
vt 0.864132345 0.302397102
vt 0.83430624 0.0906312093
vt 0.86681813 0.0505852625
vt 0.8193174 0.245545432
vt 0.811508358 0.296173453
vt 0.943882525 0.236812562
vt 0.881874025 0.284868121
vt 0.944259942 0.246971264
vt 0.897278845 0.304584086
vt 0.949683964 0.296707779
vt 0.944259942 0.246971264
vt 0.84040606 0.0579848848
vt 0.83430624 0.0906312093
vt 0.671170056 0.433805078
vt 0.624716103 0.376028895
vt 0.618658662 0.425554246
vt 0.687503815 0.413572103
vt 0.624716103 0.376028895
vt 0.627168119 0.367140889
vt 0.590609908 0.316842496
vt 0.593007922 0.294692248
vt 0.684706569 0.197762668
vt 0.780029714 0.296084404
vt 0.734784842 0.232809722
vt 0.78220886 0.308935612
vt 0.749057174 0.361202866
vt 0.750777185 0.374296039
vt 0.706358731 0.431596756
vt 0.75909698 0.424914926
vt 0.702978432 0.178781152
vt 0.735719502 0.219413429
vt 0.729393363 0.18628031
vt 0.632071733 0.236312777
vt 0.684706569 0.197762668
vt 0.63316077 0.224337995
vt 0.667734563 0.177606523
vt 0.640323997 0.17922172
vt 0.63316077 0.224337995
vt 0.358638912 0.294187099
vt 0.301579267 0.390004069
vt 0.3015365 0.423698068
vt 0.339789838 0.275832981
vt 0.301750124 0.24894385
vt 0.314775497 0.184457436
vt 0.263855845 0.276800781
vt 0.3015365 0.423698068
vt 0.245694324 0.296247154
vt 0.288837761 0.184379652
vt 0.278704315 0.156901643
vt 0.238082364 0.141877517
vt 0.302003562 0.0681831092
vt 0.24894993 0.182237834
vt 0.325012475 0.156971559
vt 0.365686089 0.142087057
vt 0.354605883 0.182609439
vt 0.301897854 0.132296875
vt 0.302067816 0.0285754967
vt 0.302067816 0.0285754967
vt 0.194676489 0.186418846
vt 0.146950155 0.36142081
vt 0.22408022 0.32100153
vt 0.3015365 0.423698068
vt 0.273746431 0.438577354
vt 0.210809454 0.32792142
vt 0.214226097 0.313945055
vt 0.111242667 0.344847053
vt 0.0338473469 0.254915476
vt 0.0800124034 0.368791103
vt 0.0589852408 0.24588038
vt 0.0159864612 0.2394609
vt 0.0605366081 0.169103354
vt 0.0738209561 0.234306604
vt 0.0589852408 0.24588038
vt 0.111242667 0.344847053
vt 0.111242667 0.344847053
vt 0.151170507 0.181405306
vt 0.0924927443 0.146824554
vt 0.0968444943 0.136355817
vt 0.170020521 0.141840771
vt 0.0856573358 0.0999039114
vt 0.111242667 0.344847053
vt 0.194676489 0.186418846
vt 0.194676489 0.186418846
vt 0.146950155 0.36142081
vt 0.456302106 0.361752927
vt 0.452469498 0.181725934
vt 0.408967078 0.18661657
vt 0.456302106 0.361752927
vt 0.492044508 0.345252216
vt 0.543139696 0.169636622
vt 0.511183143 0.147335723
vt 0.492044508 0.345252216
vt 0.507009864 0.136809647
vt 0.43372342 0.142136067
vt 0.518222153 0.100400284
vt 0.529738247 0.234779179
vt 0.544454038 0.246471584
vt 0.492044508 0.345252216
vt 0.523139656 0.369263947
vt 0.544454038 0.246471584
vt 0.57004261 0.255117834
vt 0.587861836 0.239785254
vt 0.172740176 0.151100025
vt 0.219923079 0.129181251
vt 0.172878161 0.139764979
vt 0.217114821 0.157252088
vt 0.147325665 0.112732381
vt 0.14372173 0.091416508
vt 0.273179203 0.014631371
vt 0.238082364 0.141877517
vt 0.302067816 0.0285754967
vt 0.137263045 0.123663232
vt 0.365686089 0.142087057
vt 0.33099997 0.0147265857
vt 0.302067816 0.0285754967
vt 0.390484959 0.128663465
vt 0.4590967 0.0906374604
vt 0.455303162 0.111941174
vt 0.465384156 0.123276994
vt 0.431081712 0.139455959
vt 0.431376994 0.150774032
vt 0.388978869 0.154441416
vt 0.273746431 0.438577354
vt 0.210809454 0.32792142
vt 0.173092604 0.357604295
vt 0.3015365 0.423698068
vt 0.379992336 0.320426553
vt 0.329292774 0.438645273
vt 0.394678205 0.32795468
vt 0.390071332 0.313880324
vt 0.329292774 0.438645273
vt 0.430463165 0.356447548
vt 0.394678205 0.32795468
vt 0.408967078 0.18661657
vt 0.456302106 0.361752927
vn -0.21326983 0.680136681 -0.701377332
vn 0.440600842 0.247889385 -0.862798691
vn 0.501521289 0.47137177 -0.725454986
vn -0.265430063 0.469554931 -0.84205997
vn 0.402695447 0.094956331 -0.910395265
vn -0.298477352 0.353700638 -0.886457622
vn -0.147591516 0.89801544 -0.414469689
vn 0.565372884 0.70481497 -0.428473264
vn 0.913084805 -0.0966507196 -0.396149933
vn 0.940062165 0.00180265063 -0.340998381
vn 0.601593196 -0.621014655 0.502420604
vn 0.653929412 -0.459521085 0.601012945
vn -0.802722812 -0.190609425 0.565070093
vn -0.742011368 0.00625304552 0.670358062
vn 0.660246074 -0.317957431 0.680424929
vn -0.647814691 0.176508367 0.74106741
vn 0.682704151 -0.202942088 0.701947033
vn -0.770498872 0.100449011 0.629477143
vn -0.70315671 0.0328953229 0.710273504
vn 0.744183362 -0.0512417331 0.666007102
vn -0.660404146 0.382151544 0.646394968
vn 0.809656858 0.113192677 0.57588464
vn 0.849935353 0.320583016 0.418134481
vn -0.622131586 0.660061657 0.421035618
vn -0.626939237 0.757517219 0.181974962
vn 0.82450366 0.524713516 0.211824387
vn 0.843639076 0.536910653 -8.53045276E-06
vn -0.654421687 0.756126046 0.00239648437
vn 0.910287797 -0.127542764 -0.393838674
vn 0.904033959 -0.153851181 -0.398813814
vn 0.896227539 -0.15854609 -0.414293885
vn 0.857477903 -0.319647282 -0.403183907
vn 0.818551302 -0.494665205 -0.292027503
vn 0.837201297 -0.546894908 -5.3841366E-05
vn 0.842930913 -0.520379484 -0.136648044
vn 0.355728954 -0.131565407 -0.925282359
vn 0.284464955 -0.419023305 -0.862263918
vn -0.433319271 -0.286765605 -0.854400277
vn -0.386213481 -0.0715138689 -0.91963309
vn 0.213144198 -0.7511006 -0.624833882
vn -0.514729202 -0.572191775 -0.63847506
vn -0.513153493 -0.791896641 -0.331018448
vn 0.23567228 -0.923727334 -0.30197072
vn 0.228465647 -0.973551929 -3.566546E-05
vn -0.512122631 -0.858911991 -0.000666963053
vn -0.918035984 -0.0296787713 -0.395384699
vn -0.929131508 0.00200705347 -0.369743943
vn -0.660404146 0.382151544 0.646394968
vn -0.70315671 0.0328953229 0.710273504
vn -0.896601021 0.244133219 -0.369466782
vn -0.770498872 0.100449011 0.629477143
vn -0.622131586 0.660061657 0.421035618
vn -0.947876751 -0.0765014738 -0.309317023
vn -0.626939237 0.757517219 0.181974962
vn -0.958517432 -0.214603469 -0.187589347
vn -0.654421687 0.756126046 0.00239648437
vn -0.962802589 -0.270205736 0.000241607151
vn -0.824612796 -0.270851821 -0.496641815
vn -0.889341712 0.118522011 0.441615164
vn -0.803721964 0.488812774 -0.339253604
vn -0.770498872 0.100449011 0.629477143
vn -0.647814691 0.176508367 0.74106741
vn -0.818840861 0.465215236 -0.336265385
vn -0.742011368 0.00625304552 0.670358062
vn -0.80750668 0.522343457 -0.274025828
vn -0.802722812 -0.190609425 0.565070093
vn -0.776178837 0.609195888 -0.1625631
vn -0.8818174 -0.342508286 0.324170113
vn -0.909946144 -0.414713591 -0.00327080954
vn -0.908381522 -0.41810739 -0.00540830335
vn -0.582199037 0.648915112 -0.489850372
vn -0.579626739 0.453936875 -0.676737905
vn -0.909946144 -0.414713591 -0.00327080954
vn -0.626373351 -0.168248296 -0.761149764
vn 0.699647129 -0.654084921 -0.287518531
vn 0.967563152 0.132908374 -0.214841485
vn 0.612134635 -0.746961415 0.259499401
vn -0.8818174 -0.342508286 0.324170113
vn -0.908381522 -0.41810739 -0.00540830335
vn -0.169352427 -0.98555553 -0.000111516703
vn 0.830004632 -0.299275786 -0.470665693
vn -0.509094238 0.744039118 -0.432699412
vn 0.0195871126 0.267640054 -0.963319898
vn 0.0551283471 0.256833881 -0.964882016
vn 0.692338049 0.400332779 -0.600334644
vn 0.868979633 0.185168445 -0.458897591
vn 0.902567804 -0.234925225 0.360806733
vn 0.716587484 -0.359610409 -0.597647727
vn 0.902567804 -0.234925225 0.360806733
vn 0.565316498 -0.610503435 -0.554709673
vn 0.00990081672 -0.0550815314 -0.998432696
vn -0.0558140911 -0.0528376438 -0.99704212
vn -0.751268566 -0.344850063 -0.562737942
vn 0.440671474 0.247809693 0.862785578
vn -0.212645009 0.679916382 0.701780617
vn 0.501187563 0.471163452 0.725820959
vn -0.264400721 0.469858736 0.842214406
vn 0.402784258 0.0949915722 0.910352409
vn -0.298157901 0.35242033 0.887074828
vn -0.146635696 0.897074878 0.416839033
vn 0.568728626 0.704321027 0.424828947
vn -0.819980204 0.465034038 0.333730131
vn -0.808713794 0.521461964 0.272138715
vn -0.803398371 -0.188658267 -0.564764619
vn -0.743381143 0.00633907365 -0.668838084
vn -0.805109501 0.488072246 0.337022454
vn -0.649009526 0.17756778 -0.73976773
vn -0.895933628 0.245798469 0.36998114
vn -0.76878798 0.105995573 -0.630658269
vn -0.882721007 -0.347523093 -0.316277385
vn -0.777388036 0.606454909 0.166973755
vn 0.968026161 0.138020709 0.209464803
vn 0.940463483 0.00104205543 0.339893252
vn 0.60287267 -0.619467199 -0.502797127
vn 0.654174387 -0.459389746 -0.600846887
vn -0.803398371 -0.188658267 -0.564764619
vn -0.743381143 0.00633907365 -0.668838084
vn 0.660331607 -0.318312407 -0.6801759
vn -0.649009526 0.17756778 -0.73976773
vn 0.681922138 -0.201292351 -0.703181028
vn -0.76878798 0.105995573 -0.630658269
vn -0.700433135 0.0333100744 -0.712940276
vn 0.743184865 -0.0498419479 -0.667227149
vn -0.660211027 0.377624273 -0.649246693
vn 0.808739364 0.110058986 -0.577778161
vn 0.850631595 0.317529321 -0.419047773
vn -0.625576854 0.655492783 -0.423063666
vn -0.629229784 0.756753266 -0.177184418
vn 0.825424194 0.524564207 -0.208583638
vn 0.843639076 0.536910653 -8.53045276E-06
vn -0.654421687 0.756126046 0.00239648437
vn 0.904119134 -0.153898969 0.398602277
vn 0.910490453 -0.127255365 0.393463075
vn 0.895326138 -0.158736199 0.41616559
vn 0.857095838 -0.320170879 0.403580576
vn 0.820836782 -0.491302431 0.291288435
vn 0.844458103 -0.518402636 0.134718835
vn 0.837201297 -0.546894908 -5.3841366E-05
vn 0.284848601 -0.41819948 0.862537265
vn 0.357975215 -0.135061488 0.923911393
vn -0.391815275 -0.0772055015 0.91679889
vn -0.433921695 -0.285119087 0.85464561
vn 0.211603761 -0.750206411 0.626429737
vn -0.512526035 -0.571662247 0.640717864
vn -0.511208177 -0.793922246 0.329171181
vn 0.234029144 -0.924759984 0.300082117
vn 0.228465647 -0.973551929 -3.566546E-05
vn -0.512122631 -0.858911991 -0.000666963053
vn -0.928329468 0.00136761821 0.371756077
vn -0.916346788 -0.0317600146 0.399123818
vn -0.700433135 0.0333100744 -0.712940276
vn -0.76878798 0.105995573 -0.630658269
vn -0.660211027 0.377624273 -0.649246693
vn -0.948941648 -0.0716201738 0.307213813
vn -0.625576854 0.655492783 -0.423063666
vn -0.96013242 -0.209658906 0.184902012
vn -0.629229784 0.756753266 -0.177184418
vn -0.962802589 -0.270205736 0.000241607151
vn -0.654421687 0.756126046 0.00239648437
vn -0.784068525 -0.24958919 0.568279743
vn -0.89126873 0.110268645 -0.439864486
vn -0.598515272 0.672340155 0.435589463
vn -0.492750138 0.724191368 0.482435524
vn 0.0198270343 0.262594372 0.964702606
vn 0.0548094586 0.251889557 0.966202617
vn 0.744144499 0.457707167 0.486572832
vn 0.818376839 0.171022281 0.548644543
vn 0.913143992 -0.0967299864 0.395994306
vn 0.903194726 -0.236746833 -0.358036727
vn 0.763854146 -0.415407181 0.493926853
vn 0.903194726 -0.236746833 -0.358036727
vn 0.554018736 -0.515321374 0.653840303
vn 0.0132261002 -0.0622053221 0.997975767
vn -0.0616573058 -0.0541534573 0.996627212
vn -0.769705474 -0.379414648 0.513418019
vn 0.612674177 -0.747357309 -0.257074833
vn -0.908381522 -0.41810739 -0.00540830335
vn -0.882721007 -0.347523093 -0.316277385
vn -0.169352427 -0.98555553 -0.000111516703
vn 0.82872653 -0.298079997 0.473667115
vn 0.689795017 -0.662795424 0.291350424
vn -0.629533648 -0.1729476 0.757480383
vn -0.594693124 0.445310295 0.669357121
vn -0.909946144 -0.414713591 -0.00327080954
vn -0.908381522 -0.41810739 -0.00540830335
vn -0.909946144 -0.414713591 -0.00327080954
vn -0.890881538 0.163348362 -0.423848242
vn -0.784068525 -0.24958919 0.568279743
vn -0.89126873 0.110268645 -0.439864486
vn -0.667727649 0.2014184 0.716638267
vn -0.769705474 -0.379414648 0.513418019
vn -0.0616573058 -0.0541534573 0.996627212
vn 0.700574338 -0.0786776468 0.709228814
vn 0.0132261002 -0.0622053221 0.997975767
vn 0.0198270343 0.262594372 0.964702606
vn 0.0548094586 0.251889557 0.966202617
vn 0.744144499 0.457707167 0.486572832
vn -0.492750138 0.724191368 0.482435524
vn 0.818376839 0.171022281 0.548644543
vn 0.87764591 -0.201143965 -0.435061812
vn -0.598515272 0.672340155 0.435589463
vn -0.890881538 0.163348362 -0.423848242
vn 0.818376839 0.171022281 0.548644543
vn 0.903194726 -0.236746833 -0.358036727
vn 0.554018736 -0.515321374 0.653840303
vn 0.700574338 -0.0786776468 0.709228814
vn 0.763854146 -0.415407181 0.493926853
vn 0.87764591 -0.201143965 -0.435061812
vn 0.903194726 -0.236746833 -0.358036727
vn 0.763854146 -0.415407181 0.493926853
vn -0.89126873 0.110268645 -0.439864486
vn -0.598515272 0.672340155 0.435589463
vn 0.874941528 -0.200316891 0.440851986
vn 0.716587484 -0.359610409 -0.597647727
vn 0.902567804 -0.234925225 0.360806733
vn 0.701202214 -0.0855315179 -0.707813382
vn 0.716587484 -0.359610409 -0.597647727
vn 0.565316498 -0.610503435 -0.554709673
vn 0.00990081672 -0.0550815314 -0.998432696
vn -0.0558140911 -0.0528376438 -0.99704212
vn -0.670833051 0.207681343 -0.711935043
vn 0.0195871126 0.267640054 -0.963319898
vn -0.509094238 0.744039118 -0.432699412
vn 0.0551283471 0.256833881 -0.964882016
vn 0.692338049 0.400332779 -0.600334644
vn 0.868979633 0.185168445 -0.458897591
vn 0.874941528 -0.200316891 0.440851986
vn 0.902567804 -0.234925225 0.360806733
vn -0.887184501 0.170066714 0.428929985
vn -0.582199037 0.648915112 -0.489850372
vn -0.889341712 0.118522011 0.441615164
vn -0.751268566 -0.344850063 -0.562737942
vn -0.670833051 0.207681343 -0.711935043
vn -0.824612796 -0.270851821 -0.496641815
vn -0.887184501 0.170066714 0.428929985
vn -0.889341712 0.118522011 0.441615164
vn -0.824612796 -0.270851821 -0.496641815
vn 0.996699512 0.0179152489 -0.0791770741
vn 0.591199756 0.80636096 -0.0162708294
vn 0.991727471 0.128358841 -0.000745332974
vn 0.501703799 0.853229344 0.142453551
vn 0.423767298 0.905769765 -0.0015624424
vn 0.344584078 0.915663123 0.206936792
vn 0.502233267 0.853249252 -0.140454918
vn 0.991727471 0.128358841 -0.000745332974
vn 0.996836185 0.0702275932 0.0372233577
vn 0.344929367 0.915575325 -0.206749961
vn 0.367169201 0.802468002 -0.470352978
vn 0.117237411 0.330165237 -0.936614275
vn -0.00300797704 0.99999547 -1.08398922E-06
vn -0.531324506 0.399587482 -0.747009993
vn 0.367167115 0.802470148 0.470350832
vn 0.117235534 0.330167472 0.936613798
vn -0.531783402 0.404277951 0.744154334
vn 0.195618629 0.980680108 3.01916174E-07
vn -0.686022758 0.72758007 -3.40644675E-07
vn -0.686022758 0.72758007 -3.40644675E-07
vn -0.417724609 0.728614748 -0.5427953
vn 0.816906989 0.0989252105 -0.568222523
vn 0.519218624 -0.565477669 -0.640817523
vn 0.991727471 0.128358841 -0.000745332974
vn 0.619251847 -0.78519243 -0.000239040921
vn 0.830004632 -0.299275786 -0.470665693
vn 0.699647129 -0.654084921 -0.287518531
vn 0.337749153 -0.859416604 -0.383834183
vn 0.996836185 0.0702275932 0.0372233577
vn 0.816906989 0.0989252105 -0.568222523
vn 0.519218624 -0.565477669 -0.640817523
vn 0.502233267 0.853249252 -0.140454918
vn -0.626373351 -0.168248296 -0.761149764
vn 0.699647129 -0.654084921 -0.287518531
vn 0.519218624 -0.565477669 -0.640817523
vn 0.337749153 -0.859416604 -0.383834183
vn 0.337749153 -0.859416604 -0.383834183
vn -0.812952101 -0.404625505 -0.418792337
vn -0.164389327 -0.459881395 -0.872631192
vn -0.531324506 0.399587482 -0.747009993
vn -0.417724609 0.728614748 -0.5427953
vn 0.344929367 0.915575325 -0.206749961
vn 0.337749153 -0.859416604 -0.383834183
vn -0.417724609 0.728614748 -0.5427953
vn -0.417724609 0.728614748 -0.5427953
vn 0.816906989 0.0989252105 -0.568222523
vn 0.817574501 0.104555294 0.56625092
vn -0.81574434 -0.4054465 0.412521899
vn -0.420588911 0.730133653 0.538525522
vn 0.817574501 0.104555294 0.56625092
vn 0.333436936 -0.861526191 0.382874042
vn -0.629533648 -0.1729476 0.757480383
vn -0.159337282 -0.453260273 0.877021492
vn 0.333436936 -0.861526191 0.382874042
vn -0.531783402 0.404277951 0.744154334
vn -0.420588911 0.730133653 0.538525522
vn 0.344584078 0.915663123 0.206936792
vn 0.689795017 -0.662795424 0.291350424
vn 0.523004353 -0.549207449 0.651795626
vn 0.333436936 -0.861526191 0.382874042
vn 0.817574501 0.104555294 0.56625092
vn 0.523004353 -0.549207449 0.651795626
vn 0.996699512 0.0179152489 -0.0791770741
vn 0.501703799 0.853229344 0.142453551
vn -0.531324506 0.399587482 -0.747009993
vn -0.199052364 -0.578513265 -0.791012406
vn -0.164389327 -0.459881395 -0.872631192
vn 0.117237411 0.330165237 -0.936614275
vn -0.579626739 0.453936875 -0.676737905
vn -0.909946144 -0.414713591 -0.00327080954
vn -0.971255779 -0.238038465 0
vn 0.117237411 0.330165237 -0.936614275
vn -0.686022758 0.72758007 -3.40644675E-07
vn -0.626373351 -0.168248296 -0.761149764
vn 0.117235534 0.330167472 0.936613798
vn -0.971255779 -0.238038465 0
vn -0.686022758 0.72758007 -3.40644675E-07
vn -0.19921954 -0.57844311 0.791021645
vn -0.909946144 -0.414713591 -0.00327080954
vn -0.594693124 0.445310295 0.669357121
vn -0.629533648 -0.1729476 0.757480383
vn -0.159337282 -0.453260273 0.877021492
vn -0.531783402 0.404277951 0.744154334
vn 0.117235534 0.330167472 0.936613798
vn 0.619251847 -0.78519243 -0.000239040921
vn 0.830004632 -0.299275786 -0.470665693
vn -0.169352427 -0.98555553 -0.000111516703
vn 0.991727471 0.128358841 -0.000745332974
vn 0.523004353 -0.549207449 0.651795626
vn 0.619251847 -0.78519243 -0.000239040921
vn 0.82872653 -0.298079997 0.473667115
vn 0.689795017 -0.662795424 0.291350424
vn 0.619251847 -0.78519243 -0.000239040921
vn -0.169352427 -0.98555553 -0.000111516703
vn 0.82872653 -0.298079997 0.473667115
vn -0.420588911 0.730133653 0.538525522
vn 0.817574501 0.104555294 0.56625092
g helm_0
f 3/3/3 2/2/2 1/1/1
f 4/4/4 1/1/1 2/2/2
f 2/2/2 5/5/5 4/4/4
f 6/6/6 4/4/4 5/5/5
f 1/1/1 7/7/7 3/3/3
f 8/8/8 3/3/3 7/7/7
f 2/2/2 3/3/3 9/9/9
f 10/10/10 9/9/9 3/3/3
f 3/3/3 8/8/8 10/10/10
f 10/10/10 11/11/11 9/9/9
f 12/12/12 9/9/9 11/11/11
f 11/11/11 13/13/13 12/12/12
f 14/14/14 12/12/12 13/13/13
f 12/12/12 14/14/14 15/15/15
f 16/16/16 15/15/15 14/14/14
f 15/15/15 16/16/16 17/17/17
f 18/18/18 17/17/17 16/16/16
f 18/18/18 19/19/19 17/17/17
f 20/20/20 17/17/17 19/19/19
f 19/19/19 21/21/21 20/20/20
f 22/22/22 20/20/20 21/21/21
f 22/22/22 21/21/21 23/23/23
f 24/24/24 23/23/23 21/21/21
f 24/24/24 25/25/25 23/23/23
f 26/26/26 23/23/23 25/25/25
f 26/26/26 25/25/25 27/27/27
f 28/28/28 27/27/27 25/25/25
f 17/17/17 29/29/29 15/15/15
f 30/30/30 15/15/15 29/29/29
f 29/29/29 17/17/17 31/31/31
f 20/20/20 31/31/31 17/17/17
f 31/31/31 20/20/20 32/32/32
f 22/22/22 32/32/32 20/20/20
f 32/32/32 22/22/22 33/33/33
f 23/23/23 33/33/33 22/22/22
f 27/27/27 34/34/34 26/26/26
f 35/35/35 26/26/26 34/34/34
f 33/33/33 23/23/23 35/35/35
f 26/26/26 35/35/35 23/23/23
f 31/31/31 32/32/32 36/36/36
f 37/37/37 36/36/36 32/32/32
f 32/32/32 33/33/33 37/37/37
f 37/37/37 38/38/38 36/36/36
f 39/39/39 36/36/36 38/38/38
f 37/37/37 40/40/40 38/38/38
f 40/40/40 37/37/37 33/33/33
f 33/33/33 35/35/35 40/40/40
f 41/41/41 38/38/38 40/40/40
f 41/41/41 40/40/40 42/42/42
f 43/43/43 42/42/42 40/40/40
f 35/35/35 34/34/34 43/43/43
f 43/43/43 40/40/40 35/35/35
f 43/43/43 44/44/44 42/42/42
f 44/44/44 43/43/43 34/34/34
f 45/45/45 42/42/42 44/44/44
f 39/39/39 38/38/38 46/46/46
f 47/47/47 46/46/46 38/38/38
f 38/38/38 41/41/41 47/47/47
f 47/47/47 48/48/48 46/46/46
f 49/49/49 46/46/46 48/48/48
f 46/46/46 49/49/49 50/50/50
f 51/51/51 50/50/50 49/49/49
f 48/48/48 47/47/47 52/52/52
f 53/53/53 52/52/52 47/47/47
f 53/53/53 47/47/47 41/41/41
f 41/41/41 42/42/42 53/53/53
f 52/52/52 53/53/53 54/54/54
f 55/55/55 54/54/54 53/53/53
f 42/42/42 45/45/45 55/55/55
f 55/55/55 53/53/53 42/42/42
f 54/54/54 55/55/55 56/56/56
f 57/57/57 56/56/56 55/55/55
f 57/57/57 55/55/55 45/45/45
f 46/46/46 50/50/50 58/58/58
f 59/59/59 58/58/58 50/50/50
f 50/50/50 60/60/60 59/59/59
f 50/50/50 61/61/61 60/60/60
f 62/62/62 60/60/60 61/61/61
f 60/60/60 62/62/62 63/63/63
f 64/64/64 63/63/63 62/62/62
f 63/63/63 64/64/64 65/65/65
f 66/66/66 65/65/65 64/64/64
f 65/65/65 66/66/66 67/67/67
f 68/68/68 67/67/67 66/66/66
f 63/63/63 65/65/65 4/4/4
f 1/1/1 4/4/4 65/65/65
f 65/65/65 67/67/67 1/1/1
f 4/4/4 6/6/6 63/63/63
f 60/60/60 63/63/63 6/6/6
f 7/7/7 1/1/1 67/67/67
f 67/67/67 68/68/68 69/69/69
f 70/70/70 69/69/69 68/68/68
f 71/71/71 59/59/59 60/60/60
f 67/67/67 72/72/72 7/7/7
f 72/72/72 67/67/67 73/73/73
f 74/74/74 7/7/7 72/72/72
f 74/74/74 75/75/75 7/7/7
f 8/8/8 7/7/7 75/75/75
f 8/8/8 75/75/75 76/76/76
f 76/76/76 10/10/10 8/8/8
f 76/76/76 77/77/77 10/10/10
f 11/11/11 10/10/10 77/77/77
f 77/77/77 78/78/78 11/11/11
f 78/78/78 77/77/77 79/79/79
f 80/80/80 79/79/79 77/77/77
f 13/13/13 11/11/11 78/78/78
f 81/81/81 76/76/76 75/75/75
f 77/77/77 76/76/76 81/81/81
f 80/80/80 77/77/77 81/81/81
f 71/71/71 60/60/60 82/82/82
f 6/6/6 82/82/82 60/60/60
f 83/83/83 82/82/82 6/6/6
f 6/6/6 5/5/5 83/83/83
f 84/84/84 83/83/83 5/5/5
f 85/85/85 84/84/84 5/5/5
f 5/5/5 30/30/30 85/85/85
f 5/5/5 2/2/2 30/30/30
f 9/9/9 30/30/30 2/2/2
f 9/9/9 12/12/12 30/30/30
f 15/15/15 30/30/30 12/12/12
f 86/86/86 85/85/85 30/30/30
f 30/30/30 29/29/29 86/86/86
f 87/87/87 86/86/86 29/29/29
f 89/89/89 29/29/29 88/88/88
f 31/31/31 88/88/88 29/29/29
f 31/31/31 36/36/36 88/88/88
f 90/90/90 88/88/88 36/36/36
f 36/36/36 91/91/91 90/90/90
f 36/36/36 39/39/39 91/91/91
f 92/92/92 91/91/91 39/39/39
f 93/93/93 92/92/92 39/39/39
f 39/39/39 46/46/46 93/93/93
f 58/58/58 93/93/93 46/46/46
f 96/96/96 95/95/95 94/94/94
f 97/97/97 94/94/94 95/95/95
f 94/94/94 97/97/97 98/98/98
f 99/99/99 98/98/98 97/97/97
f 95/95/95 96/96/96 100/100/100
f 101/101/101 100/100/100 96/96/96
f 97/97/97 95/95/95 102/102/102
f 103/103/103 102/102/102 95/95/95
f 95/95/95 100/100/100 103/103/103
f 103/103/103 104/104/104 102/102/102
f 105/105/105 102/102/102 104/104/104
f 102/102/102 105/105/105 106/106/106
f 99/99/99 97/97/97 106/106/106
f 102/102/102 106/106/106 97/97/97
f 107/107/107 106/106/106 105/105/105
f 106/106/106 107/107/107 108/108/108
f 109/109/109 108/108/108 107/107/107
f 104/104/104 103/103/103 110/110/110
f 111/111/111 110/110/110 103/103/103
f 111/111/111 103/103/103 100/100/100
f 101/101/101 96/96/96 112/112/112
f 113/113/113 112/112/112 96/96/96
f 113/113/113 114/114/114 112/112/112
f 114/114/114 113/113/113 115/115/115
f 114/114/114 115/115/115 116/116/116
f 117/117/117 116/116/116 115/115/115
f 115/115/115 118/118/118 117/117/117
f 119/119/119 117/117/117 118/118/118
f 118/118/118 120/120/120 119/119/119
f 121/121/121 119/119/119 120/120/120
f 121/121/121 120/120/120 122/122/122
f 123/123/123 122/122/122 120/120/120
f 122/122/122 123/123/123 124/124/124
f 125/125/125 124/124/124 123/123/123
f 125/125/125 126/126/126 124/124/124
f 127/127/127 124/124/124 126/126/126
f 127/127/127 126/126/126 128/128/128
f 129/129/129 128/128/128 126/126/126
f 129/129/129 130/130/130 128/128/128
f 131/131/131 128/128/128 130/130/130
f 118/118/118 132/132/132 120/120/120
f 133/133/133 120/120/120 132/132/132
f 120/120/120 133/133/133 123/123/123
f 134/134/134 123/123/123 133/133/133
f 123/123/123 134/134/134 125/125/125
f 135/135/135 125/125/125 134/134/134
f 125/125/125 135/135/135 126/126/126
f 136/136/136 126/126/126 135/135/135
f 126/126/126 136/136/136 129/129/129
f 129/129/129 137/137/137 130/130/130
f 137/137/137 129/129/129 136/136/136
f 138/138/138 130/130/130 137/137/137
f 135/135/135 134/134/134 139/139/139
f 140/140/140 139/139/139 134/134/134
f 140/140/140 141/141/141 139/139/139
f 142/142/142 139/139/139 141/141/141
f 139/139/139 142/142/142 143/143/143
f 139/139/139 143/143/143 135/135/135
f 136/136/136 135/135/135 143/143/143
f 144/144/144 143/143/143 142/142/142
f 144/144/144 145/145/145 143/143/143
f 146/146/146 143/143/143 145/145/145
f 143/143/143 146/146/146 136/136/136
f 137/137/137 136/136/136 146/146/146
f 146/146/146 145/145/145 147/147/147
f 146/146/146 147/147/147 137/137/137
f 138/138/138 137/137/137 147/147/147
f 148/148/148 147/147/147 145/145/145
f 142/142/142 141/141/141 149/149/149
f 150/150/150 149/149/149 141/141/141
f 150/150/150 151/151/151 149/149/149
f 151/151/151 150/150/150 152/152/152
f 108/108/108 152/152/152 150/150/150
f 153/153/153 149/149/149 151/151/151
f 149/149/149 153/153/153 154/154/154
f 144/144/144 142/142/142 154/154/154
f 149/149/149 154/154/154 142/142/142
f 155/155/155 154/154/154 153/153/153
f 154/154/154 155/155/155 156/156/156
f 145/145/145 144/144/144 156/156/156
f 154/154/154 156/156/156 144/144/144
f 157/157/157 156/156/156 155/155/155
f 156/156/156 157/157/157 158/158/158
f 148/148/148 145/145/145 158/158/158
f 156/156/156 158/158/158 145/145/145
f 159/159/159 158/158/158 157/157/157
f 150/150/150 160/160/160 108/108/108
f 161/161/161 108/108/108 160/160/160
f 161/161/161 162/162/162 108/108/108
f 106/106/106 108/108/108 162/162/162
f 162/162/162 163/163/163 106/106/106
f 99/99/99 106/106/106 163/163/163
f 99/99/99 163/163/163 164/164/164
f 99/99/99 164/164/164 98/98/98
f 165/165/165 98/98/98 164/164/164
f 166/166/166 98/98/98 165/165/165
f 166/166/166 167/167/167 98/98/98
f 132/132/132 98/98/98 167/167/167
f 132/132/132 168/168/168 98/98/98
f 132/132/132 118/118/118 168/168/168
f 115/115/115 168/168/168 118/118/118
f 168/168/168 115/115/115 113/113/113
f 168/168/168 113/113/113 94/94/94
f 94/94/94 98/98/98 168/168/168
f 96/96/96 94/94/94 113/113/113
f 132/132/132 167/167/167 133/133/133
f 169/169/169 133/133/133 167/167/167
f 134/134/134 133/133/133 170/170/170
f 171/171/171 170/170/170 133/133/133
f 170/170/170 172/172/172 134/134/134
f 140/140/140 134/134/134 172/172/172
f 140/140/140 172/172/172 173/173/173
f 140/140/140 173/173/173 141/141/141
f 174/174/174 141/141/141 173/173/173
f 175/175/175 141/141/141 174/174/174
f 141/141/141 175/175/175 150/150/150
f 160/160/160 150/150/150 175/175/175
f 178/178/178 177/177/177 176/176/176
f 179/179/179 176/176/176 177/177/177
f 176/176/176 114/114/114 178/178/178
f 116/116/116 178/178/178 114/114/114
f 176/176/176 112/112/112 114/114/114
f 176/176/176 179/179/179 180/180/180
f 112/112/112 176/176/176 180/180/180
f 112/112/112 180/180/180 101/101/101
f 181/181/181 101/101/101 180/180/180
f 101/101/101 181/181/181 100/100/100
f 182/182/182 100/100/100 181/181/181
f 100/100/100 182/182/182 111/111/111
f 183/183/183 111/111/111 182/182/182
f 184/184/184 111/111/111 183/183/183
f 110/110/110 111/111/111 185/185/185
f 186/186/186 185/185/185 111/111/111
f 189/189/189 188/188/188 187/187/187
f 187/187/187 188/188/188 190/190/190
f 191/191/191 190/190/190 188/188/188
f 190/190/190 191/191/191 192/192/192
f 190/190/190 192/192/192 193/193/193
f 194/194/194 193/193/193 192/192/192
f 190/190/190 193/193/193 195/195/195
f 196/196/196 195/195/195 193/193/193
f 193/193/193 197/197/197 196/196/196
f 190/190/190 195/195/195 198/198/198
f 197/197/197 193/193/193 199/199/199
f 200/200/200 199/199/199 193/193/193
f 198/198/198 201/201/201 190/190/190
f 202/202/202 190/190/190 201/201/201
f 200/200/200 204/204/204 203/203/203
f 206/206/206 194/194/194 205/205/205
f 205/205/205 207/207/207 206/206/206
f 208/208/208 206/206/206 207/207/207
f 210/210/210 209/209/209 208/208/208
f 212/212/212 211/211/211 202/202/202
f 215/215/215 214/214/214 213/213/213
f 213/213/213 217/217/217 216/216/216
f 218/218/218 216/216/216 217/217/217
f 219/219/219 216/216/216 218/218/218
f 219/219/219 220/220/220 216/216/216
f 221/221/221 216/216/216 220/220/220
f 221/221/221 222/222/222 216/216/216
f 221/221/221 223/223/223 222/222/222
f 224/224/224 216/216/216 222/222/222
f 216/216/216 224/224/224 225/225/225
f 225/225/225 226/226/226 216/216/216
f 227/227/227 216/216/216 226/226/226
f 226/226/226 228/228/228 227/227/227
f 221/221/221 229/229/229 223/223/223
f 230/230/230 223/223/223 229/229/229
f 229/229/229 231/231/231 230/230/230
f 233/233/233 220/220/220 232/232/232
f 232/232/232 234/234/234 233/233/233
f 235/235/235 233/233/233 234/234/234
f 237/237/237 236/236/236 235/235/235
f 240/240/240 239/239/239 238/238/238
f 241/241/241 238/238/238 239/239/239
f 241/241/241 239/239/239 242/242/242
f 243/243/243 241/241/241 242/242/242
f 242/242/242 239/239/239 244/244/244
f 239/239/239 245/245/245 244/244/244
f 246/246/246 244/244/244 245/245/245
f 247/247/247 243/243/243 242/242/242
f 244/244/244 247/247/247 242/242/242
f 247/247/247 248/248/248 243/243/243
f 248/248/248 247/247/247 249/249/249
f 250/250/250 248/248/248 249/249/249
f 251/251/251 249/249/249 247/247/247
f 252/252/252 243/243/243 248/248/248
f 250/250/250 253/253/253 252/252/252
f 252/252/252 253/253/253 243/243/243
f 254/254/254 243/243/243 253/253/253
f 255/255/255 252/252/252 248/248/248
f 255/255/255 248/248/248 250/250/250
f 255/255/255 250/250/250 252/252/252
f 256/256/256 250/250/250 249/249/249
f 257/257/257 253/253/253 250/250/250
f 247/247/247 244/244/244 258/258/258
f 259/259/259 258/258/258 244/244/244
f 246/246/246 261/261/261 260/260/260
f 262/262/262 260/260/260 261/261/261
f 260/260/260 262/262/262 263/263/263
f 264/264/264 260/260/260 263/263/263
f 267/267/267 266/266/266 265/265/265
f 268/268/268 265/265/265 266/266/266
f 269/269/269 266/266/266 267/267/267
f 271/271/271 270/270/270 265/265/265
f 271/271/271 273/273/273 272/272/272
f 275/275/275 274/274/274 270/270/270
f 276/276/276 275/275/275 270/270/270
f 276/276/276 277/277/277 275/275/275
f 278/278/278 275/275/275 277/277/277
f 277/277/277 279/279/279 278/278/278
f 275/275/275 281/281/281 280/280/280
f 283/283/283 280/280/280 282/282/282
f 286/286/286 285/285/285 284/284/284
f 288/288/288 287/287/287 285/285/285
f 285/285/285 290/290/290 289/289/289
f 285/285/285 289/289/289 291/291/291
f 290/290/290 285/285/285 292/292/292
f 293/293/293 292/292/292 285/285/285
f 293/293/293 294/294/294 292/292/292
f 296/296/296 291/291/291 295/295/295
f 295/295/295 297/297/297 289/289/289
f 297/297/297 296/296/296 298/298/298
f 300/300/300 298/298/298 299/299/299
f 301/301/301 298/298/298 300/300/300
f 304/304/304 303/303/303 302/302/302
f 305/305/305 302/302/302 303/303/303
f 303/303/303 304/304/304 306/306/306
f 306/306/306 307/307/307 303/303/303
f 308/308/308 303/303/303 307/307/307
f 303/303/303 308/308/308 309/309/309
f 310/310/310 309/309/309 308/308/308
f 311/311/311 306/306/306 304/304/304
f 314/314/314 313/313/313 312/312/312
f 315/315/315 312/312/312 313/313/313
f 313/313/313 316/316/316 315/315/315
f 317/317/317 315/315/315 316/316/316
f 317/317/317 318/318/318 315/315/315
f 319/319/319 315/315/315 318/318/318
f 319/319/319 320/320/320 315/315/315
f 321/321/321 315/315/315 320/320/320
f 324/324/324 323/323/323 322/322/322
f 238/238/238 326/326/326 325/325/325
f 327/327/327 325/325/325 326/326/326
f 328/328/328 327/327/327 326/326/326
f 329/329/329 328/328/328 326/326/326
f 332/332/332 331/331/331 330/330/330
f 334/334/334 241/241/241 333/333/333
f 243/243/243 333/333/333 241/241/241
