g jugger_green_war_m_hand_l
v 0.490416706 -0.112979956 1.1289233
v 0.402680695 -0.0570415594 1.10881424
v 0.388839841 -0.0766249821 1.09573722
v 0.505826235 -0.0837212652 1.13865948
v 0.409882545 -0.0389315411 1.09835219
v 0.503946662 -0.0508227795 1.11746693
v 0.407773346 -0.0966641977 1.07849622
v 0.472734183 -0.129552752 1.09592879
v 0.46703437 -0.136166602 1.06130183
v 0.497979343 -0.0383479223 1.08768761
v 0.409882545 -0.0389315411 1.09835219
v 0.424037576 -0.0320071653 1.0738827
v 0.495785177 -0.0381619148 1.05158842
v 0.424037576 -0.0320071653 1.0738827
v 0.402680695 -0.0570415594 1.10881424
v 0.409882545 -0.0389315411 1.09835219
v 0.519821286 -0.09877792 1.0849508
v 0.495785177 -0.0381619148 1.05158842
v 0.407773346 -0.0966641977 1.07849622
v 0.388839841 -0.0766249821 1.09573722
v 0.519821286 -0.09877792 1.0849508
v 0.46703437 -0.136166602 1.06130183
v 0.504825354 -0.102136284 0.984660447
v 0.477428436 -0.146111131 0.995100021
v 0.439821959 -0.186377838 1.00334477
v 0.419353843 -0.183104932 1.0408752
v 0.401482761 -0.196634725 0.994702101
v 0.381562769 -0.198367462 1.0377605
v 0.381519437 -0.18480961 0.988239706
v 0.370676339 -0.194899291 1.03591275
v 0.348001391 -0.209467113 1.00938058
v 0.357666194 -0.185273662 1.0706389
v 0.323456407 -0.17966263 1.06721008
v 0.336063564 -0.208950922 1.01194072
v 0.297283053 -0.191848889 1.01321399
v 0.322498083 -0.147489652 1.05185115
v 0.324324876 -0.154075593 1.07309461
v 0.344336927 -0.131478265 1.07979023
v 0.290208429 -0.152241677 1.05393302
v 0.416263998 -0.199165568 0.955133975
v 0.459109843 -0.193640739 0.948785782
v 0.394183487 -0.171742246 0.948616147
v 0.299345285 -0.120612405 1.03316307
v 0.287673801 -0.140461549 0.995290935
v 0.282707363 -0.176279679 1.0095185
v 0.330282062 -0.111331306 0.973988116
v 0.332146287 -0.110229328 1.02297175
v 0.313704669 -0.10266006 1.00863099
v 0.339072406 -0.0308570173 0.961787701
v 0.392589867 -0.127820358 0.925262272
v 0.35881567 -0.151124626 0.98563534
v 0.406463802 -0.0616031997 0.930279613
v 0.458335549 0.0361628234 0.972326875
v 0.405221015 0.058478944 1.00095892
v 0.316624314 -0.0247781351 1.00547385
v 0.348218769 0.0313348658 1.04163671
v 0.401887208 0.0587425902 1.05554485
v 0.445253134 0.0561367981 1.02119374
v 0.330688864 -0.0139786387 1.04389572
v 0.355566472 0.0104266834 1.05308521
v 0.316358149 -0.0543490499 1.04948354
v 0.325554192 -0.0825908482 1.06494975
v 0.383293986 0.0131635852 1.07048261
v 0.383293986 0.0131635852 1.07048261
v 0.51418364 -0.00871325471 0.967113256
v 0.495785177 -0.0381619148 1.05158842
v 0.433053821 0.0429409891 1.06106758
v 0.422390133 0.036813572 1.06823993
v 0.403937489 0.0160479639 1.07668436
v 0.410236478 0.0231582727 1.07712221
v 0.359981298 -0.115139998 1.04611564
v 0.344336927 -0.131478265 1.07979023
v 0.342472523 -0.123757102 1.07749474
v 0.346862018 -0.0994989201 1.08835649
v 0.484927535 0.00172810548 0.968896031
v 0.457879633 -0.00111454003 0.958766937
v 0.457879633 -0.00111454003 0.958766937
v 0.456894368 -0.0354587249 0.946787298
v 0.45487982 -0.0453842245 0.94617939
v 0.449602991 -0.0757005587 0.942781627
v 0.446849942 -0.0916734934 0.941037714
v 0.426915497 -0.126124129 0.938611746
v 0.478638053 -0.0888207629 0.945383668
v 0.417880237 -0.137767851 0.93867141
v 0.448909223 -0.141958192 0.944613039
v 0.451601833 -0.139600322 0.94350189
v 0.394183487 -0.171742246 0.948616147
v 0.478638053 -0.0888207629 0.945383668
v 0.479105979 -0.0927879289 0.94455868
v 0.485616177 -0.0470443629 0.952448487
v 0.456894368 -0.0354587249 0.946787298
v 0.483335376 -0.0425550006 0.952871859
v 0.446230739 0.0698300526 1.21347392
v 0.497979343 -0.0383479223 1.08768761
v 0.497585058 0.0130763333 1.24002135
v 0.442912728 0.0561075024 1.13829195
v 0.433053821 0.0429409891 1.06106758
v 0.495785177 -0.0381619148 1.05158842
v 0.503946662 -0.0508227795 1.11746693
v 0.505826235 -0.0837212652 1.13865948
v 0.517565131 -0.0558461174 1.25853765
v 0.492606103 -0.116593577 1.26254988
v 0.484854847 0.0042471122 1.24472427
v 0.503402054 -0.0555121303 1.26092505
v 0.503402054 -0.0555121303 1.26092505
v 0.482511729 -0.107274257 1.26424217
v 0.432987094 0.0616258793 1.21628952
v 0.432625443 0.0478626825 1.14043927
v 0.432987094 0.0616258793 1.21628952
v 0.446230739 0.0698300526 1.21347392
v 0.422390133 0.036813572 1.06823993
v 0.433053821 0.0429409891 1.06106758
v 0.490416706 -0.112979956 1.1289233
v 0.428552419 -0.151090398 1.24950111
v 0.472734183 -0.129552752 1.09592879
v 0.367246896 -0.165888056 1.15367556
v 0.371495724 -0.164085314 1.08142018
v 0.46703437 -0.136166602 1.06130183
v 0.358299017 -0.164162844 1.22996402
v 0.35343504 -0.149949104 1.23180366
v 0.425084054 -0.135532215 1.2511822
v 0.482511729 -0.107274257 1.26424217
v 0.505826235 -0.0837212652 1.13865948
v 0.363951623 -0.15227145 1.15406704
v 0.35343504 -0.149949104 1.23180366
v 0.365474641 -0.150782645 1.08517039
v 0.35881567 -0.151124626 0.98563534
v 0.323309511 -0.134910688 0.987570465
v 0.287673801 -0.140461549 0.995290935
v 0.287673801 -0.140461549 0.995290935
v 0.29469645 -0.152282327 0.998837054
v 0.292760104 -0.066775009 1.10416865
v 0.269751072 -0.0668638498 1.12204599
v 0.313739061 -0.0910320804 1.1623944
v 0.265219122 -0.0161865335 1.0970993
v 0.289664149 -0.0252464097 1.08225739
v 0.316358149 -0.0543490499 1.04948354
v 0.325554192 -0.0825908482 1.06494975
v 0.330688864 -0.0139786387 1.04389572
v 0.317320943 0.0236298181 1.08406329
v 0.355566472 0.0104266834 1.05308521
v 0.302151382 0.0337460302 1.09715927
v 0.273441911 0.0487266257 1.14463627
v 0.23529312 0.00523079839 1.14868295
v 0.246731415 -0.0519788638 1.1749326
v 0.356222212 0.045786228 1.12602556
v 0.383293986 0.0131635852 1.07048261
v 0.399853617 0.000749940868 1.08902895
v 0.322083414 0.0693606287 1.18965542
v 0.26159668 0.0664174706 1.20581353
v 0.2225274 0.0281451419 1.21220231
v 0.246394306 0.0408194438 1.22421575
v 0.394989908 0.0214865301 1.13362765
v 0.340771556 0.0627459586 1.22961259
v 0.309125185 0.0521026105 1.20251334
v 0.265483469 0.0503994226 1.21294534
v 0.246394306 0.0408194438 1.22421575
v 0.280356199 0.0535189062 1.23560405
v 0.334692061 0.0315393247 1.2427299
v 0.314011186 0.040206518 1.2532084
v 0.322764963 -0.000796813925 1.26641572
v 0.359729916 0.0329519659 1.26119208
v 0.351386487 -0.0146808 1.27739716
v 0.223194972 -0.00964128785 1.2251755
v 0.247666091 -0.0479218289 1.23100328
v 0.284692049 -0.0683944225 1.23077798
v 0.364727706 -0.07640706 1.18567789
v 0.31859228 -0.0508159995 1.26856732
v 0.351386487 -0.0146808 1.27739716
v 0.402444839 -0.0341930576 1.17699707
v 0.435772896 -0.0990543365 1.15019894
v 0.305077136 -0.0269487575 1.26081491
v 0.322764963 -0.000796813925 1.26641572
v 0.351386487 -0.0146808 1.27739716
v 0.272605449 -0.0335377865 1.23869729
v 0.255036682 0.00737686874 1.24203634
v 0.390156865 -0.123893403 1.12265766
v 0.346862018 -0.0994989201 1.08835649
v 0.342472523 -0.123757102 1.07749474
v 0.298850864 0.015253529 1.26141405
v 0.288731575 -0.00379168824 1.25995803
v 0.266276181 -0.00847070199 1.25013924
v 0.260668099 0.0285612959 1.240991
v 0.275250584 0.0388371348 1.24609864
v 0.292925954 0.0323687531 1.25560677
v 0.298850864 0.015253529 1.26141405
v 0.402444839 -0.0341930576 1.17699707
v 0.459920108 -0.0540694185 1.15631843
v 0.51418364 -0.00871325471 0.967113256
v 0.519799352 -0.0377838984 0.955219984
v 0.518625915 -0.0564442426 0.948055148
v 0.514367461 -0.0890582129 0.940997422
v 0.519821286 -0.09877792 1.0849508
v 0.508874834 -0.110439166 0.937689185
v 0.491809428 -0.148044765 0.935950279
v 0.480635136 -0.16056782 0.943428159
v 0.451601833 -0.139600322 0.94350189
v 0.480635136 -0.16056782 0.943428159
v 0.448909223 -0.141958192 0.944613039
v 0.371495724 -0.164085314 1.08142018
v 0.365474641 -0.150782645 1.08517039
v 0.482511729 -0.107274257 1.26424217
v 0.500165939 -0.0693706721 1.15162718
v 0.503402054 -0.0555121303 1.26092505
v 0.483722717 -0.107643105 1.1527884
v 0.484854847 0.0042471122 1.24472427
v 0.48785311 -0.0285822712 1.1305629
v 0.432987094 0.0616258793 1.21628952
v 0.432625443 0.0478626825 1.14043927
v 0.422390133 0.036813572 1.06823993
v 0.425084054 -0.135532215 1.2511822
v 0.482511729 -0.107274257 1.26424217
v 0.442915827 -0.132516012 1.12126839
v 0.363951623 -0.15227145 1.15406704
v 0.35343504 -0.149949104 1.23180366
v 0.365474641 -0.150782645 1.08517039
v 0.402444839 -0.0341930576 1.17699707
v 0.452391356 -0.00967221241 1.13990164
v 0.459920108 -0.0540694185 1.15631843
v 0.403937489 0.0160479639 1.07668436
v 0.455445319 -0.0916669667 1.16199684
v 0.500165939 -0.0693706721 1.15162718
v 0.483722717 -0.107643105 1.1527884
v 0.46740526 -0.0538748764 1.164294
v 0.442915827 -0.132516012 1.12126839
v 0.455445319 -0.0916669667 1.16199684
v 0.419505566 -0.123806551 1.14805686
v 0.380106926 -0.137060568 1.11239409
v 0.365474641 -0.150782645 1.08517039
v 0.344336927 -0.131478265 1.07979023
v 0.46740526 -0.0538748764 1.164294
v 0.48785311 -0.0285822712 1.1305629
v 0.464766651 -0.00408087717 1.14679253
v 0.410236478 0.0231582727 1.07712221
v 0.410236478 0.0231582727 1.07712221
v 0.422390133 0.036813572 1.06823993
v 0.323309511 -0.134910688 0.987570465
v 0.277609408 -0.189490929 0.917467475
v 0.305628896 -0.172188282 0.918244243
v 0.29469645 -0.152282327 0.998837054
v 0.303942114 -0.176833898 0.901206434
v 0.304916799 -0.181803241 0.849286377
v 0.330056846 -0.192877322 0.84854573
v 0.336937845 -0.191368386 0.900234282
v 0.28777495 -0.191171065 0.844078064
v 0.31938827 -0.180495292 0.811116993
v 0.31938827 -0.180495292 0.811116993
v 0.340066761 -0.187358052 0.917229652
v 0.280589104 -0.229576617 0.92297864
v 0.290150076 -0.215074614 0.845527172
v 0.31485945 -0.244672567 0.921968818
v 0.336063564 -0.208950922 1.01194072
v 0.297283053 -0.191848889 1.01321399
v 0.315290123 -0.22614868 0.844786406
v 0.34615016 -0.219682872 0.915447891
v 0.334442824 -0.211728126 0.842703104
v 0.330056846 -0.192877322 0.84854573
v 0.336937845 -0.191368386 0.900234282
v 0.31938827 -0.180495292 0.811116993
v 0.31938827 -0.180495292 0.811116993
v 0.330056846 -0.192877322 0.84854573
v 0.340066761 -0.187358052 0.917229652
v 0.365701437 -0.184417695 0.995174706
v 0.35881567 -0.151124626 0.98563534
v 0.35881567 -0.151124626 0.98563534
v 0.282707363 -0.176279679 1.0095185
v 0.365701437 -0.184417695 0.995174706
v 0.35881567 -0.151124626 0.98563534
v 0.35881567 -0.151124626 0.98563534
v 0.29469645 -0.152282327 0.998837054
v 0.282707363 -0.176279679 1.0095185
v 0.297283053 -0.191848889 1.01321399
v 0.508874834 -0.110439166 0.937689185
v 0.478638053 -0.0888207629 0.945383668
v 0.479105979 -0.0927879289 0.94455868
v 0.514367461 -0.0890582129 0.940997422
v 0.483335376 -0.0425550006 0.952871859
v 0.518625915 -0.0564442426 0.948055148
v 0.519799352 -0.0377838984 0.955219984
v 0.485616177 -0.0470443629 0.952448487
v 0.420971632 -0.0918175876 0.747071803
v 0.464740068 -0.0791646913 0.82515347
v 0.407276362 -0.0730553195 0.766004443
v 0.494348139 -0.109043159 0.812713921
v 0.411691785 -0.122434586 0.74754858
v 0.482852399 -0.146971092 0.813304603
v 0.390049934 -0.129890278 0.766889632
v 0.441748559 -0.155020565 0.826334715
v 0.385319173 -0.113853239 0.785301447
v 0.39459908 -0.0832362548 0.784824669
v 0.4286488 -0.0895046517 0.827757239
v 0.417490989 -0.126317576 0.828330517
v 0.385319173 -0.113853239 0.785301447
v 0.357956767 -0.0891021863 0.768550575
v 0.479105979 -0.0927879289 0.94455868
v 0.508874834 -0.110439166 0.937689185
v 0.357956767 -0.0891021863 0.768550575
v 0.508874834 -0.110439166 0.937689185
v 0.491809428 -0.148044765 0.935950279
v 0.357956767 -0.0891021863 0.768550575
v 0.451601833 -0.139600322 0.94350189
v 0.426915497 -0.126124129 0.938611746
v 0.424990833 -0.129035637 0.845838964
v 0.417490989 -0.126317576 0.828330517
v 0.436546892 -0.0909086391 0.845245242
v 0.446849942 -0.0916734934 0.941037714
v 0.426915497 -0.126124129 0.938611746
v 0.424990833 -0.129035637 0.845838964
v 0.385319173 -0.113853239 0.785301447
v 0.357956767 -0.0891021863 0.768550575
v 0.385319173 -0.113853239 0.785301447
v 0.357956767 -0.0891021863 0.768550575
v 0.357956767 -0.0891021863 0.768550575
v 0.421789646 0.0204616915 0.812541485
v 0.474258095 0.0287992284 0.878203154
v 0.416147232 0.0287960041 0.834446847
v 0.508537352 0.0139368623 0.861654937
v 0.42140609 -0.00683811167 0.807824373
v 0.508067071 -0.0195373241 0.855871022
v 0.415435255 -0.0218811799 0.825690567
v 0.473317564 -0.0381491929 0.866635442
v 0.41340372 -0.0135017866 0.84704113
v 0.443747729 -0.0211307909 0.873255849
v 0.413787216 0.0137980264 0.851758242
v 0.444204181 0.0113593675 0.878869712
v 0.443747729 -0.0211307909 0.873255849
v 0.41340372 -0.0135017866 0.84704113
v 0.384973973 0.000427141174 0.850111902
v 0.484927535 0.00172810548 0.968896031
v 0.51418364 -0.00871325471 0.967113256
v 0.51418364 -0.00871325471 0.967113256
v 0.519799352 -0.0377838984 0.955219984
v 0.384973973 0.000427141174 0.850111902
v 0.384973973 0.000427141174 0.850111902
v 0.384973973 0.000427141174 0.850111902
v 0.452096671 -0.0245891176 0.889135361
v 0.456894368 -0.0354587249 0.946787298
v 0.483335376 -0.0425550006 0.952871859
v 0.519799352 -0.0377838984 0.955219984
v 0.452569425 0.00906076375 0.894949496
v 0.457879633 -0.00111454003 0.958766937
v 0.456894368 -0.0354587249 0.946787298
v 0.452096671 -0.0245891176 0.889135361
v 0.384973973 0.000427141174 0.850111902
v 0.384973973 0.000427141174 0.850111902
v 0.3964414 -0.0582631417 1.31411219
v 0.46740526 -0.0538748764 1.164294
v 0.455445319 -0.0916669667 1.16199684
v 0.421081275 0.00383097632 1.3142724
v 0.349831492 -0.106778219 1.28656745
v 0.419505566 -0.123806551 1.14805686
v 0.464766651 -0.00408087717 1.14679253
v 0.418379366 0.0583330803 1.28932035
v 0.397957116 0.0644551739 1.16145277
v 0.386003345 0.096013695 1.23479903
v 0.380106926 -0.137060568 1.11239409
v 0.296815515 -0.12617141 1.23642004
v 0.344315171 -0.0960472003 1.28951621
v 0.295517325 -0.11517942 1.2378577
v 0.386273265 -0.05145742 1.31673026
v 0.409559548 0.00624404894 1.3175503
v 0.40647459 0.0560048074 1.29391873
v 0.376847327 0.0892680138 1.24058533
v 0.386003345 0.096013695 1.23479903
v 0.410236478 0.0231582727 1.07712221
v 0.390746325 0.0575079136 1.16422939
v 0.386003345 0.096013695 1.23479903
v 0.376847327 0.0892680138 1.24058533
v 0.403937489 0.0160479639 1.07668436
v 0.344336927 -0.131478265 1.07979023
v 0.296815515 -0.12617141 1.23642004
v 0.342472523 -0.123757102 1.07749474
v 0.344336927 -0.131478265 1.07979023
v 0.296815515 -0.12617141 1.23642004
v 0.295517325 -0.11517942 1.2378577
v 0.295517325 -0.11517942 1.2378577
v 0.452391356 -0.00967221241 1.13990164
v 0.403937489 0.0160479639 1.07668436
v 0.390746325 0.0575079136 1.16422939
v 0.40647459 0.0560048074 1.29391873
v 0.376847327 0.0892680138 1.24058533
v 0.409559548 0.00624404894 1.3175503
v 0.459920108 -0.0540694185 1.15631843
v 0.386273265 -0.05145742 1.31673026
v 0.435772896 -0.0990543365 1.15019894
v 0.344315171 -0.0960472003 1.28951621
v 0.390156865 -0.123893403 1.12265766
v 0.295517325 -0.11517942 1.2378577
v 0.342472523 -0.123757102 1.07749474
v 0.406787217 -0.166806072 0.75703156
v 0.441277087 -0.141663879 0.836723626
v 0.391995996 -0.144420177 0.770377696
v 0.470376343 -0.1743536 0.83377248
v 0.395728827 -0.196467549 0.761684716
v 0.456677288 -0.211097807 0.839536905
v 0.371467888 -0.199481353 0.77901566
v 0.413878918 -0.215152293 0.848252416
v 0.365460575 -0.180189073 0.793516815
v 0.391296655 -0.185718685 0.841929674
v 0.376518965 -0.150527611 0.78886348
v 0.404592991 -0.150054649 0.836334765
v 0.391296655 -0.185718685 0.841929674
v 0.365460575 -0.180189073 0.793516815
v 0.341877878 -0.157954961 0.769197822
v 0.448909223 -0.141958192 0.944613039
v 0.480635136 -0.16056782 0.943428159
v 0.480635136 -0.16056782 0.943428159
v 0.341877878 -0.157954961 0.769197822
v 0.459109843 -0.193640739 0.948785782
v 0.480635136 -0.16056782 0.943428159
v 0.416263998 -0.199165568 0.955133975
v 0.394183487 -0.171742246 0.948616147
v 0.396409839 -0.185456082 0.860476077
v 0.410180688 -0.148518994 0.854681432
v 0.417880237 -0.137767851 0.93867141
v 0.394183487 -0.171742246 0.948616147
v 0.396409839 -0.185456082 0.860476077
v 0.341877878 -0.157954961 0.769197822
v 0.365460575 -0.180189073 0.793516815
v 0.341877878 -0.157954961 0.769197822
v 0.365460575 -0.180189073 0.793516815
v 0.341877878 -0.157954961 0.769197822
v 0.341877878 -0.157954961 0.769197822
v 0.44039762 -0.0282013882 0.779387355
v 0.476142079 -0.0163553525 0.853308558
v 0.425058544 -0.0146412561 0.797222257
v 0.506878614 -0.0392564461 0.841328919
v 0.435734272 -0.055567503 0.777606189
v 0.500795424 -0.0749548152 0.839005589
v 0.416401923 -0.0654415339 0.793916225
v 0.463975698 -0.0877520815 0.848662019
v 0.409530699 -0.0533068441 0.811481774
v 0.438584626 -0.0646093711 0.851264179
v 0.414194018 -0.0259407423 0.813262641
v 0.444488943 -0.0299604498 0.853519022
v 0.438584626 -0.0646093711 0.851264179
v 0.409530699 -0.0533068441 0.811481774
v 0.382288426 -0.0335547999 0.796553791
v 0.485616177 -0.0470443629 0.952448487
v 0.518625915 -0.0564442426 0.948055148
v 0.518625915 -0.0564442426 0.948055148
v 0.514367461 -0.0890582129 0.940997422
v 0.382288426 -0.0335547999 0.796553791
v 0.478638053 -0.0888207629 0.945383668
v 0.449602991 -0.0757005587 0.942781627
v 0.445111424 -0.0674096048 0.867383301
v 0.451226532 -0.0315238647 0.86971879
v 0.45487982 -0.0453842245 0.94617939
v 0.449602991 -0.0757005587 0.942781627
v 0.445111424 -0.0674096048 0.867383301
v 0.382288426 -0.0335547999 0.796553791
v 0.409530699 -0.0533068441 0.811481774
v 0.382288426 -0.0335547999 0.796553791
v 0.409530699 -0.0533068441 0.811481774
v 0.382288426 -0.0335547999 0.796553791
v 0.382288426 -0.0335547999 0.796553791
v 0.562576354 -0.046735961 0.90373075
v 0.559950769 -0.121687427 0.955288768
v 0.560640275 -0.042743206 0.951322436
v 0.559268534 -0.125213608 0.906679332
v 0.523538291 0.0200916659 0.901471615
v 0.525466919 0.0219122879 0.950408459
v 0.518694282 -0.192089617 0.9150545
v 0.517898262 -0.186805218 0.962307394
v 0.451684952 -0.223262131 0.922225177
v 0.45234856 -0.219573081 0.968658566
v 0.474616587 -0.193307355 1.01999545
v 0.505359054 -0.167465925 1.01278162
v 0.529705465 -0.00848104432 1.00545168
v 0.543161392 -0.0465917066 1.00251186
v 0.448641658 -0.211650237 0.91086477
v 0.511136472 -0.181768075 0.902846336
v 0.547131479 -0.122589201 0.893605769
v 0.550090194 -0.0528449193 0.892790496
v 0.513914287 0.010412693 0.893257737
v 0.482221097 0.044667948 0.906827152
v 0.471905112 0.0383738503 0.900360823
v 0.513753057 -0.0170665253 1.0139879
v 0.500211298 0.000549736025 1.02160966
v 0.514527678 0.0111997025 1.01221919
v 0.527630568 -0.0494879335 1.00860679
v 0.544791639 -0.0865718052 1.01722205
v 0.530148625 -0.0835442021 1.02260852
v 0.530724764 -0.133742824 1.02085161
v 0.517050683 -0.127495214 1.02599001
v 0.494360298 -0.156258881 1.01768708
v 0.467211992 -0.177734911 1.02636063
v 0.4530195 -0.199271917 1.028036
v 0.447387576 -0.180772617 1.03496492
v 0.388934046 -0.2136347 1.00269866
v 0.379531235 -0.194910929 1.00671935
v 0.396526814 -0.220015794 0.963537335
v 0.386210352 -0.204858989 0.962063432
v 0.379531235 -0.194910929 1.00671935
v 0.402423382 -0.223703668 0.927499294
v 0.396997631 -0.213793844 0.919790924
v 0.396997631 -0.213793844 0.919790924
v 0.461065918 0.0437640175 0.942754745
v 0.476567596 0.0501118079 0.942726791
v 0.471905112 0.0383738503 0.900360823
v 0.469259113 0.0545718931 0.981905937
v 0.453230321 0.0460584238 0.986903489
v 0.453230321 0.0460584238 0.986903489
v 0.527630568 -0.0494879335 1.00860679
v 0.547131479 -0.122589201 0.893605769
v 0.550090194 -0.0528449193 0.892790496
v 0.530148625 -0.0835442021 1.02260852
v 0.513914287 0.010412693 0.893257737
v 0.513753057 -0.0170665253 1.0139879
v 0.500211298 0.000549736025 1.02160966
v 0.517050683 -0.127495214 1.02599001
v 0.511136472 -0.181768075 0.902846336
v 0.494360298 -0.156258881 1.01768708
v 0.448641658 -0.211650237 0.91086477
v 0.467211992 -0.177734911 1.02636063
v 0.447387576 -0.180772617 1.03496492
v 0.453230321 0.0460584238 0.986903489
v 0.471905112 0.0383738503 0.900360823
v 0.461065918 0.0437640175 0.942754745
v 0.379531235 -0.194910929 1.00671935
v 0.396997631 -0.213793844 0.919790924
v 0.386210352 -0.204858989 0.962063432
vt 0.497122616 0.587484479
vt 0.602162719 0.599734128
vt 0.608836055 0.573458791
vt 0.493972033 0.621618032
vt 0.607008934 0.621274471
vt 0.516149879 0.653803527
vt 0.587366939 0.549328983
vt 0.512693644 0.5498541
vt 0.522515297 0.515608311
vt 0.538651586 0.677573562
vt 0.607008934 0.621274471
vt 0.608830452 0.650230408
vt 0.559511662 0.707021415
vt 0.503348589 0.995220721
vt 0.438076407 0.965057135
vt 0.463064581 0.98788023
vt 0.532681167 0.888293386
vt 0.575055182 0.932347596
vt 0.427115202 0.892760754
vt 0.412153929 0.934089839
vt 0.532681167 0.888293386
vt 0.503301859 0.840206683
vt 0.603347182 0.833243191
vt 0.559446692 0.796360672
vt 0.514806747 0.757434607
vt 0.475489914 0.775559485
vt 0.486276299 0.723972559
vt 0.444178939 0.747444749
vt 0.469505757 0.702305496
vt 0.433999896 0.738459349
vt 0.419706404 0.702142
vt 0.408468157 0.772001147
vt 0.37995702 0.756127298
vt 0.405745327 0.69722271
vt 0.347132802 0.698854804
vt 0.352132231 0.779118657
vt 0.366641283 0.787306786
vt 0.368947953 0.814463079
vt 0.344067395 0.75539571
vt 0.524015605 0.702666938
vt 0.564389408 0.724433124
vt 0.505401969 0.673480988
vt 0.319007099 0.773036778
vt 0.300232917 0.738836408
vt 0.329755247 0.715333223
vt 0.260947585 0.777967691
vt 0.30702278 0.803941548
vt 0.287596017 0.808641255
vt 0.213021785 0.839873731
vt 0.188306898 0.737828553
vt 0.256273955 0.722446561
vt 0.155462295 0.790906787
vt 0.0885659903 0.885156989
vt 0.137882724 0.918221295
vt 0.243972495 0.871261954
vt 0.207310066 0.934481502
vt 0.151504755 0.958491862
vt 0.105867215 0.935780466
vt 0.254759103 0.913426995
vt 0.221818835 0.951147079
vt 0.294664204 0.871330559
vt 0.323631376 0.854338706
vt 0.189977542 0.984348476
vt 0.189977542 0.984348476
vt 0.0248103011 0.863356352
vt 0.00447032554 0.954752326
vt 0.112549059 0.974776864
vt 0.13809891 0.984590828
vt 0.168172449 0.995155931
vt 0.159087673 0.993980348
vt 0.333809555 0.816127598
vt 0.368947953 0.814463079
vt 0.36550796 0.819154322
vt 0.359999806 0.848016858
vt 0.0574100539 0.85852474
vt 0.089509055 0.845290482
vt 0.089509055 0.845290482
vt 0.0992347598 0.807077885
vt 0.102926537 0.796545565
vt 0.116212465 0.766556084
vt 0.124208368 0.751382291
vt 0.155320048 0.723921478
vt 0.092699267 0.74520123
vt 0.16901201 0.716495574
vt 0.142592967 0.699214101
vt 0.139215156 0.700415134
vt 0.207038715 0.696175933
vt 0.092699267 0.74520123
vt 0.0935321897 0.741267085
vt 0.0722046643 0.791208446
vt 0.0992347598 0.807077885
vt 0.0736868456 0.795957625
vt 0.97393626 0.71247226
vt 0.858526349 0.581329703
vt 0.898000538 0.737535954
vt 0.966534078 0.635962129
vt 0.963527799 0.556727469
vt 0.860783219 0.545080006
vt 0.842576385 0.610384226
vt 0.808330357 0.62939769
vt 0.828309536 0.751578748
vt 0.766008198 0.751011729
vt 0.898564875 0.75311929
vt 0.828447104 0.764587939
vt 0.828447104 0.764587939
vt 0.765013278 0.763323784
vt 0.979909539 0.727628767
vt 0.979877591 0.63488996
vt 0.989785194 0.711650789
vt 0.97393626 0.71247226
vt 0.977180898 0.560888827
vt 0.963527799 0.556727469
vt 0.775768995 0.61744839
vt 0.696549118 0.734263241
vt 0.754184008 0.583199978
vt 0.639238954 0.634794891
vt 0.647785127 0.562680006
vt 0.748641074 0.547897518
vt 0.626861632 0.711032331
vt 0.621093214 0.725470245
vt 0.695050955 0.749934375
vt 0.765013278 0.763323784
vt 0.808330357 0.62939769
vt 0.625267625 0.633550465
vt 0.611678421 0.711243451
vt 0.63282454 0.56469059
vt 0.256273955 0.722446561
vt 0.274168551 0.752757072
vt 0.300232917 0.738836408
vt 0.300232917 0.738836408
vt 0.301090837 0.727095246
vt 0.320261002 0.0733996555
vt 0.317659527 0.100105412
vt 0.376703054 0.116341658
vt 0.267051637 0.0897442922
vt 0.269529194 0.0623518005
vt 0.291531801 0.015426361
vt 0.33163628 0.0210217517
vt 0.241583377 0.0111922668
vt 0.209301934 0.061597608
vt 0.197833076 0.0122726941
vt 0.209715158 0.0826396942
vt 0.210049823 0.139577955
vt 0.259461462 0.150222942
vt 0.314764559 0.158093229
vt 0.150297537 0.0856574625
vt 0.156176776 0.0145672197
vt 0.125994116 0.0191096682
vt 0.150988683 0.164002374
vt 0.198648483 0.202814937
vt 0.247099817 0.21630083
vt 0.223112404 0.232033089
vt 0.107692741 0.0668362603
vt 0.118364677 0.184573889
vt 0.15875791 0.19136399
vt 0.197449505 0.216868713
vt 0.223112404 0.232033089
vt 0.176511735 0.234686449
vt 0.111362018 0.214760706
vt 0.129022896 0.235571161
vt 0.0804796144 0.244007125
vt 0.0835281536 0.201027572
vt 0.0436446555 0.220333353
vt 0.28336367 0.221994862
vt 0.326682806 0.209944516
vt 0.366167009 0.197296575
vt 0.43526417 0.131499723
vt 0.403457582 0.226482138
vt 0.443842292 0.24817045
vt 0.493448466 0.14283517
vt 0.488957137 0.0646180212
vt 0.386375964 0.248528853
vt 0.413303435 0.27089411
vt 0.443842292 0.24817045
vt 0.343085289 0.232959017
vt 0.280048817 0.233995661
vt 0.433204353 0.0428657383
vt 0.371599972 0.0323557332
vt 0.37722975 0.00534840766
vt 0.41868791 0.286655337
vt 0.382600158 0.257357061
vt 0.328518957 0.249553576
vt 0.224054664 0.239096537
vt 0.182203829 0.248271003
vt 0.136659279 0.247390226
vt 0.0967945531 0.253253788
vt 0.493448466 0.14283517
vt 0.532897234 0.0917377546
vt 0.667251229 0.912817657
vt 0.663443983 0.880064368
vt 0.66028285 0.859388053
vt 0.649356782 0.823911965
vt 0.532681167 0.888293386
vt 0.639127135 0.801047683
vt 0.613064766 0.763595879
vt 0.595522881 0.75388664
vt 0.6122756 0.720635891
vt 0.595522881 0.75388664
vt 0.609258354 0.718255043
vt 0.412134618 0.798357725
vt 0.398717135 0.810487926
vt 0.621646702 0.0805620104
vt 0.567378223 0.105986848
vt 0.622311532 0.108453408
vt 0.566240132 0.0852291733
vt 0.61634475 0.140145198
vt 0.558343589 0.12790902
vt 0.602978885 0.17901583
vt 0.564763367 0.174775019
vt 0.527968585 0.174546912
vt 0.612748086 0.0492268838
vt 0.621646702 0.0805620104
vt 0.548719108 0.0626968741
vt 0.562211692 0.0210533179
vt 0.600614369 0.0135312704
vt 0.527983606 0.024357859
vt 0.0406472199 0.0975598767
vt 0.0517217703 0.0307031889
vt 0.00451990403 0.0430551097
vt 0.133670449 0.00633390713
vt 0.719446182 0.871130705
vt 0.733964682 0.891813397
vt 0.735947251 0.871203899
vt 0.715023994 0.890430689
vt 0.730115771 0.84358263
vt 0.719446182 0.871130705
vt 0.712625623 0.847592711
vt 0.708212495 0.820766509
vt 0.711488843 0.80426985
vt 0.698088884 0.798731983
vt 0.715023994 0.890430689
vt 0.722429037 0.912195981
vt 0.704929352 0.914645076
vt 0.698142886 0.959804356
vt 0.698142886 0.959804356
vt 0.703591466 0.963756621
vt 0.797915757 0.989964604
vt 0.817765713 0.895292759
vt 0.788873196 0.905827105
vt 0.838169754 0.986246109
vt 0.786376238 0.883724153
vt 0.781701326 0.826114953
vt 0.756177425 0.821827948
vt 0.749804139 0.882782638
vt 0.796108246 0.823688567
vt 0.785574138 0.778000772
vt 0.785574138 0.778000772
vt 0.750401199 0.906328142
vt 0.850729108 0.884925067
vt 0.813572526 0.821596682
vt 0.875138402 0.868337393
vt 0.934643984 0.944808125
vt 0.888834834 0.973676622
vt 0.830254436 0.808663428
vt 0.898077786 0.842113256
vt 0.836584866 0.792787313
vt 0.842512846 0.778128147
vt 0.901349247 0.808247447
vt 0.785574138 0.778000772
vt 0.785574138 0.778000772
vt 0.842512846 0.778128147
vt 0.923971295 0.823931754
vt 0.966759384 0.905822277
vt 0.991488457 0.877193987
vt 0.756739974 0.989966035
vt 0.329755247 0.715333223
vt 0.451724052 0.696424842
vt 0.451951444 0.662712872
vt 0.451951444 0.662712872
vt 0.301090837 0.727095246
vt 0.329755247 0.715333223
vt 0.347132802 0.698854804
vt 0.639127135 0.801047683
vt 0.678583384 0.800662518
vt 0.675596714 0.797708094
vt 0.649356782 0.823911965
vt 0.699009657 0.866837084
vt 0.66028285 0.859388053
vt 0.663443983 0.880064368
vt 0.695780933 0.862890422
vt 0.331641167 0.318114728
vt 0.39547345 0.374800533
vt 0.347123086 0.30544737
vt 0.37021625 0.40062812
vt 0.311697245 0.323107123
vt 0.341619879 0.411076039
vt 0.295676827 0.31965518
vt 0.304720312 0.409415156
vt 0.279560745 0.315234512
vt 0.360117108 0.294214636
vt 0.406465709 0.339324355
vt 0.431819797 0.309557825
vt 0.376278967 0.268514454
vt 0.318803102 0.261835515
vt 0.465763241 0.478809476
vt 0.428565443 0.509225905
vt 0.318803102 0.261835515
vt 0.428565443 0.509225905
vt 0.376548469 0.526495695
vt 0.318803102 0.261835515
vt 0.32628125 0.533298314
vt 0.294367075 0.527996004
vt 0.275078326 0.426457435
vt 0.271026134 0.391803741
vt 0.423825413 0.359638274
vt 0.48660323 0.441659898
vt 0.514664114 0.408742785
vt 0.452236742 0.330269814
vt 0.279560745 0.315234512
vt 0.318803102 0.261835515
vt 0.376278967 0.268514454
vt 0.318803102 0.261835515
vt 0.318803102 0.261835515
vt 0.861533344 0.290938586
vt 0.899284482 0.363156348
vt 0.87754631 0.291152537
vt 0.872319639 0.381235808
vt 0.845848501 0.288421452
vt 0.850111187 0.382150918
vt 0.838587642 0.286817938
vt 0.820617855 0.365925103
vt 0.82796061 0.280126125
vt 0.799137592 0.336838454
vt 0.894640028 0.287198871
vt 0.917396605 0.332814842
vt 0.946241081 0.314734757
vt 0.917081892 0.271477371
vt 0.877262115 0.247339487
vt 0.938653171 0.455239654
vt 0.898558259 0.482272983
vt 0.898558259 0.482272983
vt 0.848334908 0.480818212
vt 0.877262115 0.247339487
vt 0.877262115 0.247339487
vt 0.877262115 0.247339487
vt 0.789372385 0.369253427
vt 0.776024699 0.436451674
vt 0.802015126 0.458242625
vt 0.848334908 0.480818212
vt 0.928658843 0.356762856
vt 0.959615469 0.421127319
vt 0.989498854 0.394367009
vt 0.95879823 0.337625802
vt 0.877262115 0.247339487
vt 0.877262115 0.247339487
vt 0.790492952 0.223555371
vt 0.833661377 0.0631516278
vt 0.793580055 0.0567742623
vt 0.854873657 0.229307458
vt 0.722258508 0.204762161
vt 0.743087411 0.0499213003
vt 0.887383044 0.0591282137
vt 0.91165477 0.219734296
vt 0.972442746 0.106083617
vt 0.976330757 0.186892316
vt 0.692369342 0.0278123505
vt 0.654480278 0.173321053
vt 0.721164405 0.216609344
vt 0.652924597 0.184577316
vt 0.789178491 0.235602483
vt 0.85507077 0.24104467
vt 0.913763344 0.23163335
vt 0.978147149 0.199923828
vt 0.976330757 0.186892316
vt 0.967225254 0.0114821298
vt 0.982832074 0.106213674
vt 0.976330757 0.186892316
vt 0.988674521 0.190201223
vt 0.97622472 0.00831485074
vt 0.647199214 0.00931748282
vt 0.654480278 0.173321053
vt 0.639052987 0.0082963435
vt 0.647199214 0.00931748282
vt 0.654480278 0.173321053
vt 0.643653035 0.175885126
vt 0.652924597 0.184577316
vt 0.55673331 0.24923791
vt 0.591450632 0.226042792
vt 0.548524618 0.202900946
vt 0.483345032 0.203253999
vt 0.511621177 0.183307096
vt 0.468174428 0.226192981
vt 0.545878172 0.27053684
vt 0.459066331 0.25580436
vt 0.539685011 0.29535526
vt 0.456760347 0.288847804
vt 0.536620736 0.324166715
vt 0.462116867 0.324884832
vt 0.539231956 0.356512606
vt 0.126000702 0.324050367
vt 0.164687574 0.398475349
vt 0.144540027 0.31703043
vt 0.131658465 0.416471213
vt 0.106020905 0.321664721
vt 0.101109691 0.41551584
vt 0.0923803225 0.312051654
vt 0.0667085275 0.398489296
vt 0.0789144635 0.301517904
vt 0.0426005311 0.367724627
vt 0.160546064 0.310535103
vt 0.18774727 0.368345708
vt 0.221938178 0.348821282
vt 0.184661791 0.291906595
vt 0.133779898 0.266122371
vt 0.195878208 0.505576432
vt 0.149110883 0.523807943
vt 0.149110883 0.523807943
vt 0.133779898 0.266122371
vt 0.0941305831 0.523855984
vt 0.149110883 0.523807943
vt 0.0411890186 0.510750234
vt 0.00501000974 0.493582547
vt 0.0315706693 0.398542672
vt 0.197181836 0.392130405
vt 0.226162225 0.478253543
vt 0.268843502 0.463347942
vt 0.233773649 0.37404713
vt 0.133779898 0.266122371
vt 0.0789144635 0.301517904
vt 0.133779898 0.266122371
vt 0.184661791 0.291906595
vt 0.133779898 0.266122371
vt 0.133779898 0.266122371
vt 0.645490706 0.250162095
vt 0.684157193 0.31613794
vt 0.662233114 0.242589533
vt 0.655771136 0.333553344
vt 0.628227651 0.24946858
vt 0.628558993 0.335696876
vt 0.615382373 0.241609395
vt 0.596884608 0.322426528
vt 0.602328181 0.233075947
vt 0.573151767 0.296232551
vt 0.676870048 0.23637861
vt 0.703927696 0.288686067
vt 0.734517217 0.270052642
vt 0.697179317 0.21942699
vt 0.649934232 0.197394937
vt 0.721393883 0.416562438
vt 0.678709328 0.437351972
vt 0.678709328 0.437351972
vt 0.630675972 0.43796441
vt 0.649934232 0.197394937
vt 0.585971117 0.425876796
vt 0.553618848 0.409861952
vt 0.565626144 0.326048762
vt 0.713169336 0.310813755
vt 0.748539627 0.386337519
vt 0.778053343 0.369984657
vt 0.746485353 0.293707728
vt 0.649934232 0.197394937
vt 0.602328181 0.233075947
vt 0.649934232 0.197394937
vt 0.697179317 0.21942699
vt 0.649934232 0.197394937
vt 0.649934232 0.197394937
vt 0.304974318 0.554401517
vt 0.22757116 0.596684158
vt 0.302696049 0.602186501
vt 0.227495134 0.548330426
vt 0.380428523 0.565862119
vt 0.372404665 0.613493085
vt 0.150015533 0.554909527
vt 0.153656334 0.602241933
vt 0.0778780654 0.567986071
vt 0.0838742182 0.613895953
vt 0.11939922 0.664670825
vt 0.15994738 0.657983005
vt 0.335143298 0.664418876
vt 0.294811487 0.656587958
vt 0.0760796964 0.551924646
vt 0.15062277 0.53793484
vt 0.227414012 0.530844331
vt 0.304160893 0.53735888
vt 0.382433653 0.550784647
vt 0.426685899 0.57954663
vt 0.433831036 0.567237914
vt 0.331300735 0.684142232
vt 0.357240438 0.693543911
vt 0.358471215 0.674326658
vt 0.293761283 0.674224198
vt 0.25233677 0.664293468
vt 0.253297746 0.679585457
vt 0.203017429 0.664409399
vt 0.20208545 0.679724514
vt 0.161009178 0.675182462
vt 0.123100162 0.682664394
vt 0.098340936 0.673918664
vt 0.099627234 0.693525791
vt 0.0294583775 0.659305811
vt 0.0231095161 0.680293381
vt 0.02907148 0.61796385
vt 0.0110297492 0.620152771
vt 0.00953455735 0.667270839
vt 0.0298413727 0.580177784
vt 0.0170878395 0.575120747
vt 0.02334431 0.56761384
vt 0.444234103 0.619360268
vt 0.427821904 0.617597938
vt 0.439458609 0.574560642
vt 0.426492572 0.658678234
vt 0.444274515 0.665219188
vt 0.432284057 0.677148581
vt 0.630397022 0.516435862
vt 0.659897208 0.45441854
vt 0.625335932 0.457800508
vt 0.64813894 0.521139801
vt 0.589844108 0.465352297
vt 0.613643229 0.522346675
vt 0.603596985 0.528443158
vt 0.671143055 0.521234691
vt 0.694423437 0.458191872
vt 0.689374328 0.517204762
vt 0.728314281 0.466043353
vt 0.706014276 0.522538006
vt 0.71493423 0.52843529
vt 0.567769051 0.519467235
vt 0.566478908 0.475163341
vt 0.565974176 0.497145414
vt 0.751436353 0.520958662
vt 0.752712786 0.475746989
vt 0.753220856 0.497961044
vn 0.78465414 -0.0513777994 -0.61780113
vn 0.944715917 -0.324653625 0.0459535681
vn 0.787357926 0.424823195 -0.446758121
vn 0.807338119 -0.272397786 -0.523454428
vn 0.275127918 -0.817721963 -0.505604088
vn 0.762941778 -0.427315623 -0.485099256
vn 0.718961596 0.309284568 0.62244463
vn 0.745976746 -0.634651363 -0.201832026
vn 0.650227964 -0.661572158 0.373531669
vn 0.946240902 -0.0660435781 -0.316648811
vn 0.275127918 -0.817721963 -0.505604088
vn 0.604956269 -0.357793897 0.711344779
vn 0.943726003 0.15592289 0.291666418
vn 0.604956269 -0.357793897 0.711344779
vn 0.944715917 -0.324653625 0.0459535681
vn 0.275127918 -0.817721963 -0.505604088
vn 0.5763219 -0.113480583 0.809305429
vn 0.943726003 0.15592289 0.291666418
vn 0.718961596 0.309284568 0.62244463
vn 0.787357926 0.424823195 -0.446758121
vn 0.5763219 -0.113480583 0.809305429
vn 0.650227964 -0.661572158 0.373531669
vn 0.934267104 -0.340433031 0.106067717
vn 0.79536736 -0.566318274 0.216042906
vn 0.520059705 -0.81508261 0.255300015
vn 0.35793221 -0.832459331 0.422960848
vn -0.140453607 -0.987314522 -0.0740468577
vn 0.0161696803 -0.980028749 0.198197126
vn -0.343344718 -0.776152849 -0.528867781
vn -0.0169442333 -0.984617829 0.173898622
vn 0.0092075998 -0.855076194 -0.518420517
vn -0.224589527 -0.686039269 0.692033052
vn -0.282183647 -0.567707121 0.773356974
vn -0.0942006558 -0.966172457 0.240077093
vn -0.695873618 -0.690057337 0.198949173
vn -0.424788773 0.553809166 0.716135323
vn -0.696706951 -0.17156741 0.696537197
vn -0.950818777 -0.189764887 0.244812191
vn -0.762706578 0.0782433897 0.641994238
vn -0.231019944 -0.969554722 0.0811999142
vn 0.457097054 -0.867235184 0.197396755
vn -0.832292438 -0.436428696 -0.341788262
vn -0.45815444 0.80309087 0.3809717
vn -0.728419185 0.0204381328 -0.684826851
vn -0.745598614 -0.41848579 -0.518606067
vn -0.710264087 -0.132318139 -0.691387653
vn -0.686354399 -0.0690506026 0.723981738
vn -0.93949002 -0.340200484 -0.0402739272
vn -0.616927505 0.33589536 -0.711740673
vn -0.321897537 -0.257193983 -0.911171377
vn -0.115209982 -0.239962921 -0.963921428
vn 0.146505892 0.126051888 -0.981145799
vn 0.131324217 0.561791599 -0.816788852
vn -0.230035916 0.90249753 -0.364117682
vn -0.94797951 0.3062374 -0.0869113505
vn -0.726914704 0.61393857 0.307692111
vn -0.090221025 0.822038054 0.562239945
vn 0.510789871 0.850702941 0.124089867
vn -0.873898804 0.459221542 -0.159425691
vn -0.524213314 0.816361606 0.242392391
vn -0.976676822 -0.0763328373 -0.200688064
vn -0.728057086 -0.677236199 0.106226303
vn -0.162075996 0.832772493 0.529359341
vn -0.162075996 0.832772493 0.529359341
vn 0.867647171 0.488009632 -0.0950525776
vn 0.943726003 0.15592289 0.291666418
vn 0.484414697 0.835267127 0.260136843
vn -0.523150563 0.64721626 0.554458916
vn -0.717027843 0.549164236 0.429289788
vn -0.234564349 0.96521908 -0.115462713
vn -0.996363819 -0.0361294746 0.0771609321
vn -0.950818777 -0.189764887 0.244812191
vn -0.977671802 0.0966804475 -0.186576471
vn -0.760795414 -0.648945212 0.00777725596
vn 0.251485705 0.901856542 -0.351297021
vn -0.332885206 0.730590582 -0.596175194
vn -0.332885206 0.730590582 -0.596175194
vn -0.439545959 -0.271822125 -0.856102824
vn -0.190410122 0.653173983 -0.732876241
vn -0.637436926 -0.278278351 -0.71849525
vn -0.0979202837 0.596079051 -0.796932518
vn -0.577043295 -0.281915396 -0.766514719
vn -0.101371981 -0.302923471 -0.947608113
vn 0.0154015478 0.43138206 -0.902037799
vn 0.353760779 0.461899817 -0.81332761
vn -0.28850466 -0.715571642 -0.636177838
vn -0.832292438 -0.436428696 -0.341788262
vn -0.101371981 -0.302923471 -0.947608113
vn 0.330895901 0.796134472 -0.506633699
vn 0.319798619 0.74460417 -0.585912526
vn -0.439545959 -0.271822125 -0.856102824
vn 0.0138928751 -0.413754135 -0.910282671
vn 0.100786358 0.942624748 0.318277836
vn 0.946240902 -0.0660435781 -0.316648811
vn 0.851479053 0.420224786 0.313679099
vn -0.050738968 0.986534238 -0.155485436
vn 0.484414697 0.835267127 0.260136843
vn 0.943726003 0.15592289 0.291666418
vn 0.762941778 -0.427315623 -0.485099256
vn 0.807338119 -0.272397786 -0.523454428
vn 0.650606513 0.1256468 0.748948693
vn 0.479857773 -0.42351532 0.768356204
vn -0.518827677 0.0608825013 0.852708101
vn -0.422914624 0.119459704 0.898260891
vn -0.422914624 0.119459704 0.898260891
vn -0.683045745 0.431179732 0.589518964
vn -0.902382195 0.00823583454 0.430858046
vn -0.943867981 0.330256402 0.00662125926
vn -0.902382195 0.00823583454 0.430858046
vn 0.100786358 0.942624748 0.318277836
vn -0.523150563 0.64721626 0.554458916
vn 0.484414697 0.835267127 0.260136843
vn 0.78465414 -0.0513777994 -0.61780113
vn 0.191700161 -0.79819119 0.571088314
vn 0.745976746 -0.634651363 -0.201832026
vn -0.480961174 -0.875402451 -0.0484435335
vn 0.106963031 -0.84170121 0.529242873
vn 0.650227964 -0.661572158 0.373531669
vn -0.721551418 -0.632395089 0.281851083
vn -0.66669035 0.133862197 0.733215451
vn -0.394176364 0.689735651 0.607362866
vn -0.683045745 0.431179732 0.589518964
vn 0.807338119 -0.272397786 -0.523454428
vn -0.853149533 0.516557455 -0.0728304684
vn -0.66669035 0.133862197 0.733215451
vn -0.638674676 -0.329110086 0.695543706
vn -0.115209982 -0.239962921 -0.963921428
vn -0.18975924 0.405405015 -0.894224942
vn -0.728419185 0.0204381328 -0.684826851
vn -0.728419185 0.0204381328 -0.684826851
vn -0.743935585 -0.0797434598 -0.663476348
vn -0.625310421 -0.644277453 -0.440333247
vn -0.684843957 -0.622579157 -0.378660738
vn -0.328036636 -0.941435993 0.0780401155
vn -0.69822222 0.0394812822 -0.714791596
vn -0.667338371 0.0836833045 -0.740038216
vn -0.976676822 -0.0763328373 -0.200688064
vn -0.728057086 -0.677236199 0.106226303
vn -0.873898804 0.459221542 -0.159425691
vn -0.239547119 0.73600316 -0.633179605
vn -0.524213314 0.816361606 0.242392391
vn -0.336307317 0.643911481 -0.687222898
vn -0.450935245 0.780474305 -0.433032721
vn -0.928811431 0.0283846986 -0.369463831
vn -0.742557168 -0.667964578 -0.0493179075
vn 0.273597807 0.904245019 -0.327849388
vn -0.162075996 0.832772493 0.529359341
vn 0.244426802 0.957141995 0.155353814
vn 0.100563608 0.990445971 0.0943594649
vn -0.163791999 0.821711838 0.54585886
vn -0.853717983 0.511618197 0.0970182046
vn -0.462369591 0.525303185 0.714332521
vn 0.633435786 0.771432519 0.0604231283
vn -0.154142633 0.849499226 0.504570067
vn -0.116890967 0.79936558 0.589365065
vn 0.00756018702 0.846073389 0.533012748
vn -0.462369591 0.525303185 0.714332521
vn -0.156874195 0.909186959 0.385706574
vn -0.098440364 0.771625459 0.628413558
vn 0.135374174 0.658816755 0.740023196
vn -0.145682707 0.278381199 0.949357867
vn 0.328644156 0.568074346 0.754509449
vn 0.438986033 -0.20350191 0.87514466
vn -0.888068497 -0.0990782678 0.448907465
vn -0.506997883 -0.477793247 0.717402697
vn -0.354342878 -0.746598721 0.563055456
vn 0.296128422 -0.75022459 0.591160715
vn -0.195194662 -0.416167617 0.888089836
vn 0.438986033 -0.20350191 0.87514466
vn 0.644348919 0.0550178103 0.76274997
vn -0.498656213 0.46135518 0.733821154
vn -0.412679046 -0.144239441 0.899383664
vn -0.145682707 0.278381199 0.949357867
vn 0.438986033 -0.20350191 0.87514466
vn -0.424711734 -0.340811789 0.83872962
vn -0.578048825 -0.0426218621 0.814888358
vn -0.755569458 0.0896596089 0.648903608
vn -0.760795414 -0.648945212 0.00777725596
vn -0.977671802 0.0966804475 -0.186576471
vn -0.103508048 0.0858614892 0.990915716
vn -0.295035183 -0.275363892 0.91494745
vn -0.594028533 -0.453325987 0.664549291
vn -0.581305802 0.446450144 0.680268884
vn -0.317773551 0.636623263 0.702659845
vn -0.0480798185 0.438334286 0.897525132
vn -0.103508048 0.0858614892 0.990915716
vn 0.644348919 0.0550178103 0.76274997
vn -0.877130806 0.322160065 0.356166214
vn 0.867647171 0.488009632 -0.0950525776
vn 0.909005702 -0.358771831 -0.212112129
vn 0.916383624 0.170641288 -0.36210838
vn 0.851863325 -0.500297427 -0.155020744
vn 0.5763219 -0.113480583 0.809305429
vn 0.901722789 -0.0326008126 -0.431083828
vn 0.609964967 -0.790666163 -0.0528191663
vn 0.849433362 -0.466953069 -0.245800287
vn -0.28850466 -0.715571642 -0.636177838
vn 0.849433362 -0.466953069 -0.245800287
vn 0.353760779 0.461899817 -0.81332761
vn 0.106963031 -0.84170121 0.529242873
vn -0.638674676 -0.329110086 0.695543706
vn -0.683045745 0.431179732 0.589518964
vn -0.703562319 0.130129755 0.698617399
vn -0.422914624 0.119459704 0.898260891
vn -0.629535019 0.508825541 0.587181509
vn -0.518827677 0.0608825013 0.852708101
vn -0.543324292 0.0228510145 0.839211822
vn -0.902382195 0.00823583454 0.430858046
vn -0.943867981 0.330256402 0.00662125926
vn -0.523150563 0.64721626 0.554458916
vn -0.394176364 0.689735651 0.607362866
vn -0.683045745 0.431179732 0.589518964
vn -0.317103148 -0.186770886 0.929818451
vn -0.853149533 0.516557455 -0.0728304684
vn -0.66669035 0.133862197 0.733215451
vn -0.638674676 -0.329110086 0.695543706
vn 0.644348919 0.0550178103 0.76274997
vn -0.815701306 0.199346721 0.543039799
vn -0.877130806 0.322160065 0.356166214
vn -0.717027843 0.549164236 0.429289788
vn 0.447914988 -0.55218643 0.703180075
vn -0.703562319 0.130129755 0.698617399
vn -0.629535019 0.508825541 0.587181509
vn 0.785613358 0.0226551741 0.618302882
vn -0.317103148 -0.186770886 0.929818451
vn 0.447914988 -0.55218643 0.703180075
vn 0.289647222 -0.877865791 0.381387115
vn -0.0761936083 -0.946413517 0.313840568
vn -0.638674676 -0.329110086 0.695543706
vn -0.950818777 -0.189764887 0.244812191
vn 0.785613358 0.0226551741 0.618302882
vn -0.543324292 0.0228510145 0.839211822
vn 0.859452844 0.499610394 0.108306341
vn -0.234564349 0.96521908 -0.115462713
vn -0.234564349 0.96521908 -0.115462713
vn -0.523150563 0.64721626 0.554458916
vn -0.18975924 0.405405015 -0.894224942
vn -0.73362565 0.666255772 -0.133778617
vn -0.0817692354 0.930300832 -0.357567072
vn -0.743935585 -0.0797434598 -0.663476348
vn 0.105026774 0.977692127 -0.181899652
vn -0.128329232 0.990622699 -0.0468849391
vn 0.755359709 0.650737822 -0.0772783458
vn 0.755502701 0.623848081 -0.200073063
vn -0.88353163 0.361455768 -0.297861606
vn 0.114965431 0.323805928 -0.939112782
vn 0.114965431 0.323805928 -0.939112782
vn 0.608118713 0.687680006 -0.396595359
vn -0.86667788 -0.482146949 0.128077284
vn -0.641425312 -0.596652865 -0.482264489
vn 0.151071563 -0.988298416 0.0210616253
vn -0.0942006558 -0.966172457 0.240077093
vn -0.695873618 -0.690057337 0.198949173
vn 0.200546607 -0.845889151 -0.494219184
vn 0.961677492 -0.195564061 -0.192174658
vn 0.886531949 -0.260932833 -0.382066905
vn 0.755359709 0.650737822 -0.0772783458
vn 0.755502701 0.623848081 -0.200073063
vn 0.114965431 0.323805928 -0.939112782
vn 0.114965431 0.323805928 -0.939112782
vn 0.755359709 0.650737822 -0.0772783458
vn 0.608118713 0.687680006 -0.396595359
vn 0.342339009 -0.614355683 -0.710894525
vn -0.115209982 -0.239962921 -0.963921428
vn -0.115209982 -0.239962921 -0.963921428
vn -0.745598614 -0.41848579 -0.518606067
vn 0.342339009 -0.614355683 -0.710894525
vn -0.115209982 -0.239962921 -0.963921428
vn -0.115209982 -0.239962921 -0.963921428
vn -0.743935585 -0.0797434598 -0.663476348
vn -0.745598614 -0.41848579 -0.518606067
vn -0.695873618 -0.690057337 0.198949173
vn 0.901722789 -0.0326008126 -0.431083828
vn -0.101371981 -0.302923471 -0.947608113
vn 0.330895901 0.796134472 -0.506633699
vn 0.851863325 -0.500297427 -0.155020744
vn 0.0138928751 -0.413754135 -0.910282671
vn 0.916383624 0.170641288 -0.36210838
vn 0.909005702 -0.358771831 -0.212112129
vn 0.319798619 0.74460417 -0.585912526
vn 0.280021876 0.493204266 -0.823612273
vn 0.0982971787 0.994855165 0.0245104935
vn -0.0805713758 0.983089805 -0.16444619
vn 0.832577169 0.335454196 -0.440778613
vn 0.102719449 -0.418180048 -0.902537644
vn 0.552144051 -0.755791545 -0.352017254
vn -0.478152394 -0.852944613 -0.209417582
vn -0.483004987 -0.868178308 0.113897726
vn -0.748637974 -0.327703863 0.576325715
vn -0.505012989 0.633308113 0.586415172
vn -0.597402453 0.670378089 0.440117627
vn -0.869413555 -0.0460993014 0.491929889
vn -0.748637974 -0.327703863 0.576325715
vn -0.903704584 0.268716425 -0.333330959
vn 0.330895901 0.796134472 -0.506633699
vn 0.901722789 -0.0326008126 -0.431083828
vn -0.903704584 0.268716425 -0.333330959
vn 0.901722789 -0.0326008126 -0.431083828
vn 0.609964967 -0.790666163 -0.0528191663
vn -0.903704584 0.268716425 -0.333330959
vn -0.28850466 -0.715571642 -0.636177838
vn -0.577043295 -0.281915396 -0.766514719
vn -0.964371622 -0.181582823 0.192392796
vn -0.869413555 -0.0460993014 0.491929889
vn -0.774187028 0.594297528 0.217818588
vn -0.0979202837 0.596079051 -0.796932518
vn -0.577043295 -0.281915396 -0.766514719
vn -0.964371622 -0.181582823 0.192392796
vn -0.748637974 -0.327703863 0.576325715
vn -0.903704584 0.268716425 -0.333330959
vn -0.748637974 -0.327703863 0.576325715
vn -0.903704584 0.268716425 -0.333330959
vn -0.903704584 0.268716425 -0.333330959
vn -0.133097813 0.721001327 -0.680031002
vn -0.166470379 0.961557567 0.21839112
vn -0.397880077 0.907222271 0.136525393
vn 0.664250076 0.649103701 -0.370723784
vn -0.0747434497 -0.20889762 -0.975077033
vn 0.72193265 -0.452975214 -0.523093462
vn -0.285537571 -0.912403166 -0.29323858
vn -0.205901191 -0.977022409 -0.0550614633
vn -0.445793927 -0.666162133 0.597909629
vn -0.762638152 -0.396915197 0.510726392
vn -0.488701254 0.343670309 0.801911354
vn -0.69939661 0.392165065 0.597537339
vn -0.762638152 -0.396915197 0.510726392
vn -0.445793927 -0.666162133 0.597909629
vn -0.996631205 -0.000170906977 0.0820125192
vn 0.251485705 0.901856542 -0.351297021
vn 0.867647171 0.488009632 -0.0950525776
vn 0.867647171 0.488009632 -0.0950525776
vn 0.909005702 -0.358771831 -0.212112129
vn -0.996631205 -0.000170906977 0.0820125192
vn -0.996631205 -0.000170906977 0.0820125192
vn -0.996631205 -0.000170906977 0.0820125192
vn -0.856261492 -0.495820761 0.144837886
vn -0.439545959 -0.271822125 -0.856102824
vn 0.0138928751 -0.413754135 -0.910282671
vn 0.909005702 -0.358771831 -0.212112129
vn -0.911406875 0.278143942 0.303271025
vn -0.332885206 0.730590582 -0.596175194
vn -0.439545959 -0.271822125 -0.856102824
vn -0.856261492 -0.495820761 0.144837886
vn -0.996631205 -0.000170906977 0.0820125192
vn -0.996631205 -0.000170906977 0.0820125192
vn 0.435207903 -0.448601514 0.78060925
vn 0.785613358 0.0226551741 0.618302882
vn 0.447914988 -0.55218643 0.703180075
vn 0.639156461 0.0998803303 0.762563348
vn 0.0060636336 -0.785483658 0.618852735
vn 0.289647222 -0.877865791 0.381387115
vn 0.859452844 0.499610394 0.108306341
vn 0.543938935 0.719203293 0.432292789
vn 0.223373979 0.911273777 -0.345953912
vn -0.283216417 0.955032289 -0.087759614
vn -0.0761936083 -0.946413517 0.313840568
vn -0.701067746 -0.70465976 0.109355435
vn -0.657847703 0.471323043 0.587444544
vn -0.826774299 0.452857673 0.333712786
vn -0.691575527 0.34612146 0.633974075
vn -0.9062047 0.105974771 0.409343839
vn -0.648327112 0.0904704854 0.755967617
vn -0.660757303 0.667267203 0.343735754
vn -0.283216417 0.955032289 -0.087759614
vn -0.234564349 0.96521908 -0.115462713
vn -0.971485376 0.0863492638 -0.220816374
vn -0.283216417 0.955032289 -0.087759614
vn -0.660757303 0.667267203 0.343735754
vn -0.717027843 0.549164236 0.429289788
vn -0.950818777 -0.189764887 0.244812191
vn -0.701067746 -0.70465976 0.109355435
vn -0.977671802 0.0966804475 -0.186576471
vn -0.950818777 -0.189764887 0.244812191
vn -0.701067746 -0.70465976 0.109355435
vn -0.826774299 0.452857673 0.333712786
vn -0.826774299 0.452857673 0.333712786
vn -0.815701306 0.199346721 0.543039799
vn -0.717027843 0.549164236 0.429289788
vn -0.971485376 0.0863492638 -0.220816374
vn -0.648327112 0.0904704854 0.755967617
vn -0.660757303 0.667267203 0.343735754
vn -0.9062047 0.105974771 0.409343839
vn -0.877130806 0.322160065 0.356166214
vn -0.691575527 0.34612146 0.633974075
vn -0.498656213 0.46135518 0.733821154
vn -0.657847703 0.471323043 0.587444544
vn -0.755569458 0.0896596089 0.648903608
vn -0.826774299 0.452857673 0.333712786
vn -0.977671802 0.0966804475 -0.186576471
vn 0.407928854 0.32394141 -0.853613555
vn 0.16741915 0.978246987 -0.122488916
vn -0.00155068387 0.938687921 -0.344764709
vn 0.884841681 0.222711518 -0.409212321
vn 0.18822293 -0.579566419 -0.792890191
vn 0.525292993 -0.833363175 -0.171968296
vn -0.498220563 -0.859183848 -0.116530478
vn -0.536867321 -0.826343596 0.170087263
vn -0.831935942 -0.189780742 0.521407485
vn -0.924567878 0.0757819116 0.373405129
vn -0.535122991 0.747525156 0.39350903
vn -0.60644263 0.760502756 0.232083872
vn -0.924567878 0.0757819116 0.373405129
vn -0.831935942 -0.189780742 0.521407485
vn -0.838332474 0.23541069 -0.491711706
vn 0.353760779 0.461899817 -0.81332761
vn 0.849433362 -0.466953069 -0.245800287
vn 0.849433362 -0.466953069 -0.245800287
vn -0.838332474 0.23541069 -0.491711706
vn 0.457097054 -0.867235184 0.197396755
vn 0.849433362 -0.466953069 -0.245800287
vn -0.231019944 -0.969554722 0.0811999142
vn -0.832292438 -0.436428696 -0.341788262
vn -0.985981107 -0.106594577 0.128370225
vn -0.746704221 0.662882626 0.0549490973
vn 0.0154015478 0.43138206 -0.902037799
vn -0.832292438 -0.436428696 -0.341788262
vn -0.985981107 -0.106594577 0.128370225
vn -0.838332474 0.23541069 -0.491711706
vn -0.831935942 -0.189780742 0.521407485
vn -0.838332474 0.23541069 -0.491711706
vn -0.831935942 -0.189780742 0.521407485
vn -0.838332474 0.23541069 -0.491711706
vn -0.838332474 0.23541069 -0.491711706
vn 0.24071604 0.589371741 -0.771165848
vn -0.00871326588 0.990843952 0.134730592
vn -0.19241327 0.975803494 -0.10384877
vn 0.800441861 0.480004817 -0.35901019
vn 0.183937415 -0.342506945 -0.92133379
vn 0.657474697 -0.620452821 -0.427510619
vn -0.356434375 -0.887306869 -0.292645097
vn -0.374091327 -0.927391648 0.00062651129
vn -0.722895384 -0.467064768 0.509188354
vn -0.875332773 -0.18919459 0.444969684
vn -0.60085845 0.529144943 0.599145055
vn -0.69383508 0.559186935 0.453765273
vn -0.875332773 -0.18919459 0.444969684
vn -0.722895384 -0.467064768 0.509188354
vn -0.915559113 0.179441959 -0.359933406
vn 0.319798619 0.74460417 -0.585912526
vn 0.916383624 0.170641288 -0.36210838
vn 0.916383624 0.170641288 -0.36210838
vn 0.851863325 -0.500297427 -0.155020744
vn -0.915559113 0.179441959 -0.359933406
vn -0.101371981 -0.302923471 -0.947608113
vn -0.637436926 -0.278278351 -0.71849525
vn -0.934874892 -0.314988375 0.163680241
vn -0.859692872 0.442663372 0.254906207
vn -0.190410122 0.653173983 -0.732876241
vn -0.637436926 -0.278278351 -0.71849525
vn -0.934874892 -0.314988375 0.163680241
vn -0.915559113 0.179441959 -0.359933406
vn -0.722895384 -0.467064768 0.509188354
vn -0.915559113 0.179441959 -0.359933406
vn -0.722895384 -0.467064768 0.509188354
vn -0.915559113 0.179441959 -0.359933406
vn -0.915559113 0.179441959 -0.359933406
vn 0.902915537 0.122915864 -0.411867857
vn 0.944253862 -0.271531433 0.186159238
vn 0.942474127 0.302016914 0.143276468
vn 0.828327894 -0.334341913 -0.449542433
vn 0.651245832 0.622517228 -0.433994532
vn 0.716021776 0.691340387 0.0967545062
vn 0.601373613 -0.707885563 -0.370469749
vn 0.626874506 -0.746984482 0.221455678
vn 0.197455168 -0.959581852 -0.200534567
vn 0.229142785 -0.952675641 0.199756682
vn 0.48207581 -0.535754919 0.693231225
vn 0.516737878 -0.474826574 0.712405622
vn 0.732319176 0.269480228 0.625371099
vn 0.730905354 0.155666366 0.664488733
vn -0.270554513 0.401375711 -0.875041604
vn -0.221715033 0.150793806 -0.96338129
vn -0.541576684 0.0377952233 -0.839801311
vn -0.0619675033 0.0262715369 -0.997732282
vn -0.641149521 -0.376916289 -0.668477058
vn 0.0303404853 0.865564346 -0.4998779
vn -0.773783386 -0.0747281909 -0.629026949
vn -0.170586213 -0.326905251 0.929533958
vn -0.183613494 -0.259964883 0.948000193
vn 0.435668707 0.593919694 0.676352143
vn -0.782925904 -0.0650410727 0.61870563
vn 0.663847685 0.126430437 0.737103522
vn -0.330607742 0.179574385 0.926526606
vn 0.571999311 -0.289797634 0.767355263
vn -0.645238578 0.229012504 0.728848755
vn -0.345358402 0.571861207 0.744111836
vn 0.1281192 0.437252641 0.890166044
vn 0.22857517 -0.607598484 0.760642767
vn -0.200709432 0.392528027 0.897573113
vn -0.457641572 -0.768397868 0.447357744
vn -0.571650445 0.818278134 0.0603050478
vn -0.367981553 -0.928731263 0.045253031
vn -0.940940499 -0.309183568 -0.137972772
vn -0.571650445 0.818278134 0.0603050478
vn -0.432669669 -0.823917389 -0.366001427
vn -0.596011221 0.400129139 -0.696180463
vn -0.596011221 0.400129139 -0.696180463
vn -0.620300055 0.754803598 -0.213305578
vn 0.170156941 0.979677916 -0.106196627
vn -0.773783386 -0.0747281909 -0.629026949
vn 0.0451014079 0.981038153 0.188494116
vn -0.885879576 -0.0987024382 0.453293771
vn -0.885879576 -0.0987024382 0.453293771
vn -0.782925904 -0.0650410727 0.61870563
vn -0.541576684 0.0377952233 -0.839801311
vn -0.0619675033 0.0262715369 -0.997732282
vn -0.330607742 0.179574385 0.926526606
vn -0.641149521 -0.376916289 -0.668477058
vn -0.170586213 -0.326905251 0.929533958
vn -0.183613494 -0.259964883 0.948000193
vn -0.645238578 0.229012504 0.728848755
vn -0.221715033 0.150793806 -0.96338129
vn -0.345358402 0.571861207 0.744111836
vn -0.270554513 0.401375711 -0.875041604
vn 0.1281192 0.437252641 0.890166044
vn -0.200709432 0.392528027 0.897573113
vn -0.885879576 -0.0987024382 0.453293771
vn -0.773783386 -0.0747281909 -0.629026949
vn -0.620300055 0.754803598 -0.213305578
vn -0.571650445 0.818278134 0.0603050478
vn -0.596011221 0.400129139 -0.696180463
vn -0.940940499 -0.309183568 -0.137972772
g jugger_green_war_m_hand_l_0
f 3/3/3 2/2/2 1/1/1
f 4/4/4 1/1/1 2/2/2
f 2/2/2 5/5/5 4/4/4
f 6/6/6 4/4/4 5/5/5
f 3/3/3 1/1/1 7/7/7
f 8/8/8 7/7/7 1/1/1
f 7/7/7 8/8/8 9/9/9
f 6/6/6 11/11/11 10/10/10
f 12/12/12 10/10/10 11/11/11
f 13/13/13 10/10/10 12/12/12
f 16/16/16 15/15/15 14/14/14
f 17/17/17 14/14/14 15/15/15
f 14/14/14 17/17/17 18/18/18
f 20/20/20 19/19/19 15/15/15
f 21/21/21 15/15/15 19/19/19
f 21/21/21 19/19/19 22/22/22
f 17/17/17 22/22/22 23/23/23
f 24/24/24 23/23/23 22/22/22
f 24/24/24 22/22/22 25/25/25
f 26/26/26 25/25/25 22/22/22
f 25/25/25 26/26/26 27/27/27
f 28/28/28 27/27/27 26/26/26
f 27/27/27 28/28/28 29/29/29
f 30/30/30 29/29/29 28/28/28
f 31/31/31 29/29/29 30/30/30
f 28/28/28 32/32/32 30/30/30
f 33/33/33 30/30/30 32/32/32
f 33/33/33 34/34/34 30/30/30
f 31/31/31 30/30/30 34/34/34
f 34/34/34 33/33/33 35/35/35
f 33/33/33 32/32/32 36/36/36
f 37/37/37 36/36/36 32/32/32
f 37/37/37 38/38/38 36/36/36
f 33/33/33 36/36/36 39/39/39
f 39/39/39 35/35/35 33/33/33
f 27/27/27 40/40/40 25/25/25
f 41/41/41 25/25/25 40/40/40
f 40/40/40 27/27/27 42/42/42
f 29/29/29 42/42/42 27/27/27
f 39/39/39 36/36/36 43/43/43
f 43/43/43 44/44/44 39/39/39
f 45/45/45 39/39/39 44/44/44
f 44/44/44 43/43/43 46/46/46
f 47/47/47 46/46/46 43/43/43
f 47/47/47 43/43/43 36/36/36
f 47/47/47 48/48/48 46/46/46
f 46/46/46 48/48/48 49/49/49
f 46/46/46 49/49/49 50/50/50
f 50/50/50 51/51/51 46/46/46
f 52/52/52 50/50/50 49/49/49
f 52/52/52 49/49/49 53/53/53
f 54/54/54 53/53/53 49/49/49
f 55/55/55 49/49/49 48/48/48
f 54/54/54 49/49/49 56/56/56
f 55/55/55 56/56/56 49/49/49
f 56/56/56 57/57/57 54/54/54
f 58/58/58 54/54/54 57/57/57
f 58/58/58 53/53/53 54/54/54
f 55/55/55 59/59/59 56/56/56
f 60/60/60 56/56/56 59/59/59
f 61/61/61 59/59/59 55/55/55
f 55/55/55 48/48/48 61/61/61
f 47/47/47 62/62/62 48/48/48
f 61/61/61 48/48/48 62/62/62
f 60/60/60 63/63/63 56/56/56
f 57/57/57 56/56/56 64/64/64
f 53/53/53 58/58/58 65/65/65
f 65/65/65 58/58/58 66/66/66
f 67/67/67 66/66/66 58/58/58
f 58/58/58 57/57/57 67/67/67
f 68/68/68 67/67/67 57/57/57
f 64/64/64 68/68/68 57/57/57
f 64/64/64 69/69/69 68/68/68
f 70/70/70 68/68/68 69/69/69
f 47/47/47 71/71/71 62/62/62
f 36/36/36 71/71/71 47/47/47
f 36/36/36 72/72/72 71/71/71
f 73/73/73 71/71/71 72/72/72
f 74/74/74 62/62/62 71/71/71
f 73/73/73 74/74/74 71/71/71
f 53/53/53 65/65/65 75/75/75
f 76/76/76 53/53/53 75/75/75
f 52/52/52 53/53/53 77/77/77
f 78/78/78 52/52/52 77/77/77
f 78/78/78 79/79/79 52/52/52
f 80/80/80 52/52/52 79/79/79
f 81/81/81 52/52/52 80/80/80
f 52/52/52 81/81/81 82/82/82
f 80/80/80 83/83/83 81/81/81
f 82/82/82 84/84/84 52/52/52
f 84/84/84 82/82/82 85/85/85
f 86/86/86 85/85/85 82/82/82
f 50/50/50 52/52/52 84/84/84
f 50/50/50 84/84/84 87/87/87
f 51/51/51 50/50/50 87/87/87
f 89/89/89 81/81/81 88/88/88
f 79/79/79 91/91/91 90/90/90
f 92/92/92 90/90/90 91/91/91
f 95/95/95 94/94/94 93/93/93
f 96/96/96 93/93/93 94/94/94
f 94/94/94 97/97/97 96/96/96
f 94/94/94 98/98/98 97/97/97
f 94/94/94 95/95/95 99/99/99
f 99/99/99 95/95/95 100/100/100
f 101/101/101 100/100/100 95/95/95
f 101/101/101 102/102/102 100/100/100
f 95/95/95 103/103/103 101/101/101
f 95/95/95 93/93/93 103/103/103
f 104/104/104 101/101/101 103/103/103
f 101/101/101 105/105/105 102/102/102
f 106/106/106 102/102/102 105/105/105
f 107/107/107 103/103/103 93/93/93
f 109/109/109 93/93/93 108/108/108
f 96/96/96 108/108/108 110/110/110
f 108/108/108 96/96/96 111/111/111
f 112/112/112 111/111/111 96/96/96
f 102/102/102 114/114/114 113/113/113
f 115/115/115 113/113/113 114/114/114
f 115/115/115 114/114/114 116/116/116
f 116/116/116 117/117/117 115/115/115
f 118/118/118 115/115/115 117/117/117
f 119/119/119 116/116/116 114/114/114
f 119/119/119 114/114/114 120/120/120
f 121/121/121 120/120/120 114/114/114
f 114/114/114 102/102/102 121/121/121
f 122/122/122 121/121/121 102/102/102
f 113/113/113 123/123/123 102/102/102
f 116/116/116 119/119/119 124/124/124
f 125/125/125 124/124/124 119/119/119
f 117/117/117 116/116/116 126/126/126
f 124/124/124 126/126/126 116/116/116
f 128/128/128 46/46/46 127/127/127
f 46/46/46 128/128/128 129/129/129
f 131/131/131 130/130/130 128/128/128
f 134/134/134 133/133/133 132/132/132
f 133/133/133 135/135/135 132/132/132
f 136/136/136 132/132/132 135/135/135
f 136/136/136 137/137/137 132/132/132
f 138/138/138 132/132/132 137/137/137
f 139/139/139 137/137/137 136/136/136
f 136/136/136 140/140/140 139/139/139
f 141/141/141 139/139/139 140/140/140
f 140/140/140 136/136/136 142/142/142
f 135/135/135 142/142/142 136/136/136
f 142/142/142 135/135/135 143/143/143
f 144/144/144 143/143/143 135/135/135
f 135/135/135 133/133/133 144/144/144
f 145/145/145 144/144/144 133/133/133
f 133/133/133 134/134/134 145/145/145
f 142/142/142 146/146/146 140/140/140
f 142/142/142 143/143/143 146/146/146
f 141/141/141 140/140/140 147/147/147
f 146/146/146 147/147/147 140/140/140
f 147/147/147 146/146/146 148/148/148
f 149/149/149 146/146/146 143/143/143
f 149/149/149 143/143/143 150/150/150
f 144/144/144 151/151/151 143/143/143
f 150/150/150 143/143/143 151/151/151
f 151/151/151 152/152/152 150/150/150
f 146/146/146 149/149/149 153/153/153
f 146/146/146 153/153/153 148/148/148
f 154/154/154 153/153/153 149/149/149
f 149/149/149 155/155/155 154/154/154
f 149/149/149 150/150/150 155/155/155
f 156/156/156 155/155/155 150/150/150
f 156/156/156 150/150/150 157/157/157
f 158/158/158 155/155/155 156/156/156
f 152/152/152 158/158/158 156/156/156
f 155/155/155 158/158/158 159/159/159
f 155/155/155 159/159/159 154/154/154
f 160/160/160 159/159/159 158/158/158
f 160/160/160 161/161/161 159/159/159
f 159/159/159 161/161/161 162/162/162
f 162/162/162 154/154/154 159/159/159
f 162/162/162 153/153/153 154/154/154
f 163/163/163 162/162/162 161/161/161
f 151/151/151 164/164/164 152/152/152
f 151/151/151 144/144/144 164/164/164
f 145/145/145 164/164/164 144/144/144
f 165/165/165 164/164/164 145/145/145
f 166/166/166 165/165/165 145/145/145
f 166/166/166 145/145/145 134/134/134
f 134/134/134 167/167/167 166/166/166
f 168/168/168 166/166/166 167/167/167
f 168/168/168 167/167/167 169/169/169
f 170/170/170 169/169/169 167/167/167
f 167/167/167 171/171/171 170/170/170
f 168/168/168 172/172/172 166/166/166
f 172/172/172 168/168/168 173/173/173
f 174/174/174 173/173/173 168/168/168
f 175/175/175 166/166/166 172/172/172
f 166/166/166 175/175/175 165/165/165
f 175/175/175 176/176/176 165/165/165
f 165/165/165 176/176/176 164/164/164
f 176/176/176 152/152/152 164/164/164
f 171/171/171 167/167/167 177/177/177
f 134/134/134 177/177/177 167/167/167
f 177/177/177 134/134/134 178/178/178
f 134/134/134 132/132/132 178/178/178
f 138/138/138 178/178/178 132/132/132
f 179/179/179 177/177/177 178/178/178
f 173/173/173 180/180/180 172/172/172
f 181/181/181 172/172/172 180/180/180
f 172/172/172 181/181/181 175/175/175
f 182/182/182 175/175/175 181/181/181
f 175/175/175 182/182/182 176/176/176
f 176/176/176 183/183/183 152/152/152
f 152/152/152 183/183/183 158/158/158
f 184/184/184 158/158/158 183/183/183
f 158/158/158 184/184/184 160/160/160
f 185/185/185 160/160/160 184/184/184
f 160/160/160 185/185/185 161/161/161
f 186/186/186 161/161/161 185/185/185
f 188/188/188 187/187/187 171/171/171
f 190/190/190 189/189/189 18/18/18
f 190/190/190 18/18/18 191/191/191
f 191/191/191 18/18/18 192/192/192
f 23/23/23 192/192/192 18/18/18
f 193/193/193 23/23/23 18/18/18
f 194/194/194 192/192/192 23/23/23
f 194/194/194 23/23/23 195/195/195
f 24/24/24 195/195/195 23/23/23
f 196/196/196 195/195/195 24/24/24
f 24/24/24 25/25/25 196/196/196
f 41/41/41 196/196/196 25/25/25
f 195/195/195 198/198/198 197/197/197
f 199/199/199 197/197/197 198/198/198
f 26/26/26 200/200/200 28/28/28
f 32/32/32 28/28/28 200/200/200
f 26/26/26 22/22/22 200/200/200
f 200/200/200 201/201/201 32/32/32
f 37/37/37 32/32/32 201/201/201
f 38/38/38 37/37/37 201/201/201
f 204/204/204 203/203/203 202/202/202
f 205/205/205 202/202/202 203/203/203
f 204/204/204 206/206/206 203/203/203
f 207/207/207 203/203/203 206/206/206
f 206/206/206 208/208/208 207/207/207
f 209/209/209 207/207/207 208/208/208
f 207/207/207 209/209/209 210/210/210
f 212/212/212 205/205/205 211/211/211
f 213/213/213 211/211/211 205/205/205
f 213/213/213 214/214/214 211/211/211
f 215/215/215 211/211/211 214/214/214
f 216/216/216 214/214/214 213/213/213
f 163/163/163 217/217/217 162/162/162
f 153/153/153 162/162/162 217/217/217
f 218/218/218 153/153/153 217/217/217
f 217/217/217 219/219/219 218/218/218
f 153/153/153 218/218/218 148/148/148
f 220/220/220 148/148/148 218/218/218
f 147/147/147 148/148/148 220/220/220
f 223/223/223 222/222/222 221/221/221
f 224/224/224 221/221/221 222/222/222
f 223/223/223 221/221/221 225/225/225
f 227/227/227 225/225/225 226/226/226
f 227/227/227 228/228/228 225/225/225
f 229/229/229 225/225/225 228/228/228
f 229/229/229 228/228/228 230/230/230
f 222/222/222 232/232/232 231/231/231
f 233/233/233 231/231/231 232/232/232
f 233/233/233 232/232/232 234/234/234
f 236/236/236 235/235/235 232/232/232
f 239/239/239 238/238/238 237/237/237
f 240/240/240 237/237/237 238/238/238
f 241/241/241 238/238/238 239/239/239
f 241/241/241 242/242/242 238/238/238
f 242/242/242 241/241/241 243/243/243
f 244/244/244 243/243/243 241/241/241
f 245/245/245 238/238/238 242/242/242
f 246/246/246 245/245/245 242/242/242
f 247/247/247 242/242/242 243/243/243
f 239/239/239 248/248/248 241/241/241
f 244/244/244 241/241/241 248/248/248
f 239/239/239 237/237/237 248/248/248
f 238/238/238 245/245/245 249/249/249
f 238/238/238 249/249/249 240/240/240
f 250/250/250 249/249/249 245/245/245
f 249/249/249 250/250/250 251/251/251
f 251/251/251 252/252/252 249/249/249
f 253/253/253 249/249/249 252/252/252
f 253/253/253 240/240/240 249/249/249
f 254/254/254 251/251/251 250/250/250
f 251/251/251 254/254/254 255/255/255
f 256/256/256 255/255/255 254/254/254
f 256/256/256 257/257/257 255/255/255
f 258/258/258 255/255/255 257/257/257
f 259/259/259 250/250/250 245/245/245
f 260/260/260 256/256/256 254/254/254
f 260/260/260 254/254/254 250/250/250
f 260/260/260 261/261/261 256/256/256
f 255/255/255 258/258/258 262/262/262
f 255/255/255 263/263/263 251/251/251
f 252/252/252 251/251/251 263/263/263
f 263/263/263 255/255/255 264/264/264
f 262/262/262 264/264/264 255/255/255
f 265/265/265 248/248/248 237/237/237
f 266/266/266 35/35/35 39/39/39
f 268/268/268 29/29/29 267/267/267
f 29/29/29 31/31/31 267/267/267
f 34/34/34 267/267/267 31/31/31
f 269/269/269 42/42/42 29/29/29
f 272/272/272 271/271/271 270/270/270
f 44/44/44 270/270/270 271/271/271
f 275/275/275 274/274/274 273/273/273
f 276/276/276 273/273/273 274/274/274
f 279/279/279 278/278/278 277/277/277
f 280/280/280 277/277/277 278/278/278
f 283/283/283 282/282/282 281/281/281
f 284/284/284 281/281/281 282/282/282
f 281/281/281 284/284/284 285/285/285
f 286/286/286 285/285/285 284/284/284
f 285/285/285 286/286/286 287/287/287
f 288/288/288 287/287/287 286/286/286
f 287/287/287 288/288/288 289/289/289
f 283/283/283 290/290/290 282/282/282
f 291/291/291 282/282/282 290/290/290
f 291/291/291 290/290/290 292/292/292
f 293/293/293 292/292/292 290/290/290
f 294/294/294 283/283/283 281/281/281
f 282/282/282 295/295/295 284/284/284
f 296/296/296 284/284/284 295/295/295
f 297/297/297 281/281/281 285/285/285
f 284/284/284 298/298/298 286/286/286
f 299/299/299 286/286/286 298/298/298
f 286/286/286 299/299/299 288/288/288
f 300/300/300 285/285/285 287/287/287
f 301/301/301 288/288/288 299/299/299
f 301/301/301 302/302/302 288/288/288
f 303/303/303 288/288/288 302/302/302
f 304/304/304 288/288/288 303/303/303
f 291/291/291 292/292/292 305/305/305
f 282/282/282 291/291/291 305/305/305
f 305/305/305 306/306/306 282/282/282
f 295/295/295 282/282/282 306/306/306
f 306/306/306 305/305/305 307/307/307
f 308/308/308 307/307/307 305/305/305
f 308/308/308 305/305/305 292/292/292
f 304/304/304 309/309/309 288/288/288
f 310/310/310 287/287/287 309/309/309
f 312/312/312 311/311/311 290/290/290
f 313/313/313 290/290/290 283/283/283
f 316/316/316 315/315/315 314/314/314
f 317/317/317 314/314/314 315/315/315
f 314/314/314 317/317/317 318/318/318
f 319/319/319 318/318/318 317/317/317
f 318/318/318 319/319/319 320/320/320
f 321/321/321 320/320/320 319/319/319
f 320/320/320 321/321/321 322/322/322
f 323/323/323 322/322/322 321/321/321
f 316/316/316 324/324/324 315/315/315
f 325/325/325 315/315/315 324/324/324
f 325/325/325 324/324/324 326/326/326
f 327/327/327 326/326/326 324/324/324
f 328/328/328 316/316/316 314/314/314
f 315/315/315 329/329/329 317/317/317
f 330/330/330 317/317/317 329/329/329
f 317/317/317 331/331/331 319/319/319
f 332/332/332 319/319/319 331/331/331
f 319/319/319 332/332/332 321/321/321
f 333/333/333 318/318/318 320/320/320
f 334/334/334 320/320/320 322/322/322
f 335/335/335 327/327/327 324/324/324
f 323/323/323 321/321/321 336/336/336
f 336/336/336 321/321/321 337/337/337
f 338/338/338 337/337/337 321/321/321
f 338/338/338 321/321/321 339/339/339
f 325/325/325 326/326/326 340/340/340
f 315/315/315 325/325/325 340/340/340
f 340/340/340 341/341/341 315/315/315
f 329/329/329 315/315/315 341/341/341
f 341/341/341 340/340/340 342/342/342
f 343/343/343 342/342/342 340/340/340
f 343/343/343 340/340/340 326/326/326
f 344/344/344 314/314/314 318/318/318
f 345/345/345 324/324/324 316/316/316
f 348/348/348 347/347/347 346/346/346
f 349/349/349 346/346/346 347/347/347
f 346/346/346 350/350/350 348/348/348
f 351/351/351 348/348/348 350/350/350
f 347/347/347 352/352/352 349/349/349
f 353/353/353 349/349/349 352/352/352
f 352/352/352 354/354/354 353/353/353
f 355/355/355 353/353/353 354/354/354
f 351/351/351 350/350/350 356/356/356
f 350/350/350 357/357/357 356/356/356
f 350/350/350 346/346/346 358/358/358
f 358/358/358 359/359/359 350/350/350
f 360/360/360 358/358/358 346/346/346
f 346/346/346 349/349/349 360/360/360
f 361/361/361 360/360/360 349/349/349
f 361/361/361 349/349/349 362/362/362
f 353/353/353 362/362/362 349/349/349
f 362/362/362 353/353/353 363/363/363
f 364/364/364 363/363/363 353/353/353
f 352/352/352 365/365/365 354/354/354
f 354/354/354 365/365/365 366/366/366
f 354/354/354 366/366/366 367/367/367
f 368/368/368 367/367/367 366/366/366
f 369/369/369 366/366/366 365/365/365
f 356/356/356 371/371/371 370/370/370
f 373/373/373 371/371/371 372/372/372
f 375/375/375 372/372/372 374/374/374
f 371/371/371 350/350/350 376/376/376
f 379/379/379 378/378/378 377/377/377
f 377/377/377 380/380/380 379/379/379
f 381/381/381 379/379/379 380/380/380
f 380/380/380 377/377/377 382/382/382
f 383/383/383 382/382/382 377/377/377
f 382/382/382 383/383/383 384/384/384
f 385/385/385 384/384/384 383/383/383
f 384/384/384 385/385/385 386/386/386
f 387/387/387 386/386/386 385/385/385
f 386/386/386 387/387/387 388/388/388
f 389/389/389 388/388/388 387/387/387
f 392/392/392 391/391/391 390/390/390
f 393/393/393 390/390/390 391/391/391
f 390/390/390 393/393/393 394/394/394
f 395/395/395 394/394/394 393/393/393
f 394/394/394 395/395/395 396/396/396
f 397/397/397 396/396/396 395/395/395
f 396/396/396 397/397/397 398/398/398
f 399/399/399 398/398/398 397/397/397
f 392/392/392 400/400/400 391/391/391
f 401/401/401 391/391/391 400/400/400
f 401/401/401 400/400/400 402/402/402
f 403/403/403 402/402/402 400/400/400
f 404/404/404 392/392/392 390/390/390
f 391/391/391 405/405/405 393/393/393
f 406/406/406 393/393/393 405/405/405
f 393/393/393 407/407/407 395/395/395
f 408/408/408 394/394/394 396/396/396
f 395/395/395 409/409/409 397/397/397
f 409/409/409 395/395/395 410/410/410
f 411/411/411 397/397/397 409/409/409
f 411/411/411 412/412/412 397/397/397
f 413/413/413 397/397/397 412/412/412
f 399/399/399 397/397/397 413/413/413
f 401/401/401 402/402/402 414/414/414
f 391/391/391 401/401/401 414/414/414
f 414/414/414 415/415/415 391/391/391
f 405/405/405 391/391/391 415/415/415
f 415/415/415 414/414/414 416/416/416
f 417/417/417 416/416/416 414/414/414
f 417/417/417 414/414/414 402/402/402
f 418/418/418 390/390/390 394/394/394
f 420/420/420 396/396/396 419/419/419
f 422/422/422 421/421/421 400/400/400
f 423/423/423 400/400/400 392/392/392
f 426/426/426 425/425/425 424/424/424
f 427/427/427 424/424/424 425/425/425
f 424/424/424 427/427/427 428/428/428
f 429/429/429 428/428/428 427/427/427
f 428/428/428 429/429/429 430/430/430
f 431/431/431 430/430/430 429/429/429
f 430/430/430 431/431/431 432/432/432
f 433/433/433 432/432/432 431/431/431
f 426/426/426 434/434/434 425/425/425
f 435/435/435 425/425/425 434/434/434
f 435/435/435 434/434/434 436/436/436
f 437/437/437 436/436/436 434/434/434
f 438/438/438 426/426/426 424/424/424
f 425/425/425 439/439/439 427/427/427
f 440/440/440 427/427/427 439/439/439
f 427/427/427 441/441/441 429/429/429
f 442/442/442 429/429/429 441/441/441
f 429/429/429 442/442/442 431/431/431
f 443/443/443 428/428/428 430/430/430
f 444/444/444 431/431/431 442/442/442
f 444/444/444 445/445/445 431/431/431
f 446/446/446 431/431/431 445/445/445
f 433/433/433 431/431/431 446/446/446
f 435/435/435 436/436/436 447/447/447
f 425/425/425 435/435/435 447/447/447
f 447/447/447 448/448/448 425/425/425
f 439/439/439 425/425/425 448/448/448
f 448/448/448 447/447/447 449/449/449
f 450/450/450 449/449/449 447/447/447
f 450/450/450 447/447/447 436/436/436
f 451/451/451 424/424/424 428/428/428
f 453/453/453 430/430/430 452/452/452
f 455/455/455 454/454/454 434/434/434
f 456/456/456 434/434/434 426/426/426
f 459/459/459 458/458/458 457/457/457
f 460/460/460 457/457/457 458/458/458
f 457/457/457 461/461/461 459/459/459
f 462/462/462 459/459/459 461/461/461
f 460/460/460 458/458/458 463/463/463
f 464/464/464 463/463/463 458/458/458
f 463/463/463 464/464/464 465/465/465
f 466/466/466 465/465/465 464/464/464
f 466/466/466 464/464/464 467/467/467
f 468/468/468 467/467/467 464/464/464
f 464/464/464 458/458/458 468/468/468
f 462/462/462 469/469/469 459/459/459
f 470/470/470 459/459/459 469/469/469
f 459/459/459 470/470/470 458/458/458
f 465/465/465 471/471/471 463/463/463
f 472/472/472 463/463/463 471/471/471
f 463/463/463 472/472/472 460/460/460
f 473/473/473 460/460/460 472/472/472
f 460/460/460 473/473/473 457/457/457
f 474/474/474 457/457/457 473/473/473
f 457/457/457 474/474/474 461/461/461
f 475/475/475 461/461/461 474/474/474
f 461/461/461 475/475/475 476/476/476
f 477/477/477 476/476/476 475/475/475
f 469/469/469 478/478/478 470/470/470
f 478/478/478 469/469/469 479/479/479
f 480/480/480 479/479/479 469/469/469
f 481/481/481 470/470/470 478/478/478
f 470/470/470 481/481/481 482/482/482
f 483/483/483 482/482/482 481/481/481
f 482/482/482 483/483/483 484/484/484
f 458/458/458 482/482/482 484/484/484
f 485/485/485 484/484/484 483/483/483
f 484/484/484 485/485/485 468/468/468
f 484/484/484 468/468/468 458/458/458
f 486/486/486 468/468/468 485/485/485
f 468/468/468 486/486/486 467/467/467
f 487/487/487 467/467/467 486/486/486
f 467/467/467 487/487/487 488/488/488
f 489/489/489 488/488/488 487/487/487
f 488/488/488 489/489/489 490/490/490
f 491/491/491 490/490/490 489/489/489
f 482/482/482 458/458/458 470/470/470
f 488/488/488 466/466/466 467/467/467
f 488/488/488 490/490/490 466/466/466
f 492/492/492 466/466/466 490/490/490
f 492/492/492 490/490/490 493/493/493
f 494/494/494 493/493/493 490/490/490
f 492/492/492 493/493/493 495/495/495
f 496/496/496 495/495/495 493/493/493
f 466/466/466 492/492/492 465/465/465
f 495/495/495 465/465/465 492/492/492
f 465/465/465 495/495/495 471/471/471
f 497/497/497 471/471/471 495/495/495
f 499/499/499 476/476/476 498/498/498
f 500/500/500 498/498/498 476/476/476
f 499/499/499 498/498/498 501/501/501
f 502/502/502 501/501/501 498/498/498
f 476/476/476 499/499/499 461/461/461
f 462/462/462 461/461/461 499/499/499
f 499/499/499 501/501/501 462/462/462
f 480/480/480 462/462/462 501/501/501
f 480/480/480 469/469/469 462/462/462
f 501/501/501 503/503/503 480/480/480
f 479/479/479 480/480/480 503/503/503
f 506/506/506 505/505/505 504/504/504
f 507/507/507 504/504/504 505/505/505
f 506/506/506 504/504/504 508/508/508
f 509/509/509 508/508/508 504/504/504
f 508/508/508 509/509/509 510/510/510
f 505/505/505 511/511/511 507/507/507
f 505/505/505 512/512/512 511/511/511
f 513/513/513 511/511/511 512/512/512
f 512/512/512 514/514/514 513/513/513
f 515/515/515 513/513/513 514/514/514
f 514/514/514 516/516/516 515/515/515
f 510/510/510 517/517/517 508/508/508
f 518/518/518 508/508/508 517/517/517
f 517/517/517 519/519/519 518/518/518
f 516/516/516 514/514/514 520/520/520
f 521/521/521 520/520/520 514/514/514
f 521/521/521 522/522/522 520/520/520
