g jugger_green_war_m_torso1
v -0.130832151 -0.0645549297 1.57581758
v -0.192870155 0.0023964576 1.6028372
v -0.144083366 -0.00600573421 1.62019777
v -0.177049711 -0.0515421666 1.56805062
v -0.201052696 0.0363470837 1.61541164
v -0.146227732 0.0336840972 1.63696349
v -0.0937143117 -0.0740441531 1.56688762
v -0.103213057 -0.0114055173 1.62050247
v -0.215985194 -0.0361194797 1.52578092
v -0.233784407 0.00852070469 1.54255688
v -0.24050796 0.0408631712 1.54702878
v -0.164725468 -0.0806495249 1.49280488
v -0.150419086 -0.0915111527 1.48895073
v -0.138032258 -0.102458715 1.47973049
v -0.143797219 0.0624253564 1.64151824
v -0.20121631 0.0630770177 1.61558533
v -0.104571827 0.0416632071 1.64645576
v -0.241221994 0.0668416247 1.54756212
v -0.0939323902 -0.00312260888 1.61301863
v -0.0856166705 -0.0578585006 1.56246352
v -0.091228351 -0.110455625 1.50401986
v -0.0816052109 -0.0926385894 1.5018754
v -0.0931548178 0.0579526499 1.64239478
v -0.101945676 0.0686752349 1.64727032
v -0.229018107 0.0156720653 1.535936
v -0.212686777 -0.0230564326 1.52048922
v -0.182182074 -0.0656060502 1.47523665
v -0.17513895 -0.0516049378 1.46807432
v -0.164725468 -0.0806495249 1.49280488
v -0.17513895 -0.0516049378 1.46807432
v -0.158616289 -0.0689511374 1.47682214
v -0.0875092372 0.0976468697 1.63276422
v -0.0959659815 0.108907014 1.64444649
v -0.136669263 0.0948579311 1.6342659
v -0.19156602 0.0899054855 1.60507751
v -0.122422904 0.122874342 1.60484838
v -0.167788386 0.115511201 1.57655227
v -0.0849595889 0.136418641 1.61390626
v -0.117950134 0.148986548 1.51334
v -0.0782819763 0.157265708 1.565534
v -0.197458073 0.1250287 1.52028632
v -0.149192274 0.138444558 1.51215196
v -0.164795354 0.135137618 1.48716903
v -0.231320396 0.101127215 1.54128921
v -0.133836612 0.140819743 1.51370978
v -0.0875092372 0.0976468697 1.63276422
v -0.0780495033 0.120852374 1.60629392
v -0.0782819763 0.157265708 1.565534
v -0.068982847 0.140424311 1.5683322
v -0.225949794 0.0935936347 1.53390515
v -0.234300852 0.0551533289 1.53773737
v -0.195550606 0.113553882 1.51362836
v -0.159548312 0.121069506 1.48075438
v -0.159548312 0.121069506 1.48075438
v -0.139725402 0.125534758 1.49750149
v -0.229018107 0.0156720653 1.535936
v -0.234300852 0.0551533289 1.53773737
v -0.139725402 0.125534758 1.49750149
v -0.119530961 0.131892905 1.49341178
v -0.068982847 0.140424311 1.5683322
v -0.0782819763 0.157265708 1.565534
v -0.212686777 -0.0230564326 1.52048922
v -0.17513895 -0.0516049378 1.46807432
v -0.0856166705 -0.0578585006 1.56246352
v -0.229018107 0.0156720653 1.535936
v -0.0939323902 -0.00312260888 1.61301863
v -0.0931548178 0.0579526499 1.64239478
v -0.234300852 0.0551533289 1.53773737
v -0.0875092372 0.0976468697 1.63276422
v -0.225949794 0.0935936347 1.53390515
v -0.195550606 0.113553882 1.51362836
v -0.0780495033 0.120852374 1.60629392
v -0.159548312 0.121069506 1.48075438
v -0.139725402 0.125534758 1.49750149
v -0.158616289 -0.0689511374 1.47682214
v -0.14051114 -0.0840490535 1.46794522
v -0.0816052109 -0.0926385894 1.5018754
v -0.17513895 -0.0516049378 1.46807432
v -0.158616289 -0.0689511374 1.47682214
v -0.119530961 0.131892905 1.49341178
v -0.139725402 0.125534758 1.49750149
v -0.068982847 0.140424311 1.5683322
v -0.158616289 -0.0689511374 1.47682214
v -0.14051114 -0.0840490535 1.46794522
v -0.138032258 -0.102458715 1.47973049
v -0.0816052109 -0.0926385894 1.5018754
v -0.0816052109 -0.0926385894 1.5018754
v -0.091228351 -0.110455625 1.50401986
v 0.130832151 -0.0645549297 1.57581758
v 0.192870155 0.0023964576 1.6028372
v 0.177049711 -0.0515421666 1.56805062
v 0.14404735 -0.00587732578 1.62046874
v 0.201052696 0.0363470837 1.61541164
v 0.145935133 0.0346480012 1.63897049
v 0.0937143117 -0.0740441531 1.56688762
v 0.103213057 -0.0114055155 1.62050247
v 0.215985194 -0.0361194797 1.52578092
v 0.233784407 0.00852070469 1.54255688
v 0.24050796 0.0408631712 1.54702878
v 0.164725468 -0.0806495249 1.49280488
v 0.150419086 -0.0915111527 1.48895073
v 0.138032272 -0.102458715 1.47973049
v 0.14379999 0.0624253564 1.64152193
v 0.20121631 0.0630770177 1.61558533
v 0.104311995 0.0416632071 1.64755476
v 0.241221994 0.0668416247 1.54756212
v 0.0939323902 -0.00312260888 1.61314845
v 0.085488297 -0.0578585006 1.56273735
v 0.091228351 -0.110455625 1.50401986
v 0.0816052109 -0.0926385894 1.5018754
v 0.0930588916 0.0579526499 1.64281094
v 0.101945676 0.0686752349 1.64727032
v 0.229018107 0.0156720653 1.535936
v 0.212645501 -0.0230564326 1.51909339
v 0.182182074 -0.0656060502 1.47523665
v 0.17513895 -0.0516049378 1.46807432
v 0.17513895 -0.0516049378 1.46807432
v 0.158616289 -0.0689511374 1.47682214
v 0.0875092372 0.0976468697 1.63276422
v 0.0959659815 0.108907014 1.64444649
v 0.136672035 0.0948579311 1.63426936
v 0.19156602 0.0899054855 1.60507751
v 0.122422904 0.122874342 1.60484838
v 0.167788386 0.115511201 1.57655227
v 0.0849595889 0.136418641 1.61390626
v 0.11799112 0.148986548 1.51339209
v 0.0782819763 0.157265708 1.56520891
v 0.197458073 0.1250287 1.52028632
v 0.149192274 0.138444558 1.51215196
v 0.164795354 0.135137618 1.48867583
v 0.231318086 0.101127215 1.54128623
v 0.133654803 0.143039763 1.51753306
v 0.0780495033 0.120852374 1.60629392
v 0.068982847 0.140424311 1.56418943
v 0.0875092372 0.0976468697 1.63276422
v 0.225949794 0.0935936347 1.53390515
v 0.234300852 0.0551533289 1.53773737
v 0.195552096 0.113553882 1.51366675
v 0.159548312 0.121069506 1.48075438
v 0.159548312 0.121069506 1.48075438
v 0.139725402 0.125534758 1.49750149
v 0.119530961 0.131892905 1.49341178
v 0.068982847 0.140424311 1.56418943
v 0.229018107 0.0156720653 1.535936
v 0.234300852 0.0551533289 1.53773737
v 0.212645501 -0.0230564326 1.51909339
v 0.085488297 -0.0578585006 1.56273735
v 0.17513895 -0.0516049378 1.46807432
v 0.229018107 0.0156720653 1.535936
v 0.0939323902 -0.00312260888 1.61314845
v 0.0930588916 0.0579526499 1.64281094
v 0.234300852 0.0551533289 1.53773737
v 0.0875092372 0.0976468697 1.63276422
v 0.225949794 0.0935936347 1.53390515
v 0.195552096 0.113553882 1.51366675
v 0.0780495033 0.120852374 1.60629392
v 0.159548312 0.121069506 1.48075438
v 0.139725402 0.125534758 1.49750149
v 0.119530961 0.131892905 1.49341178
v 0.068982847 0.140424311 1.56418943
v 0.14051114 -0.0840490535 1.46794522
v 0.158616289 -0.0689511374 1.47682214
v 0.0816052109 -0.0926385894 1.5018754
v 0.158616289 -0.0689511374 1.47682214
v 0.17513895 -0.0516049378 1.46807432
v 0.158616289 -0.0689511374 1.47682214
v 0.14051114 -0.0840490535 1.46794522
v 0.0816052109 -0.0926385894 1.5018754
v 0.138032272 -0.102458715 1.47973049
v 0.0816052109 -0.0926385894 1.5018754
v 0.091228351 -0.110455625 1.50401986
v -0.159534544 -0.0207705703 1.54042768
v -0.111137711 0.0140258158 1.57197726
v -0.121836528 -0.0255266894 1.50099242
vt 0.263115913 0.484120548
vt 0.19070594 0.450746775
vt 0.198370919 0.495793611
vt 0.248684078 0.445382506
vt 0.159940809 0.451038688
vt 0.165843457 0.500055611
vt 0.275199443 0.51890713
vt 0.211508185 0.535427868
vt 0.234024733 0.399544448
vt 0.186205462 0.394789487
vt 0.155399352 0.392457455
vt 0.298696965 0.42132625
vt 0.308214337 0.43653217
vt 0.320372611 0.446343273
vt 0.144654527 0.501915753
vt 0.138953701 0.451376259
vt 0.172499612 0.542075455
vt 0.132317543 0.393568486
vt 0.211893424 0.547574818
vt 0.270188719 0.534565508
vt 0.325403422 0.500323832
vt 0.323573977 0.519046247
vt 0.163696364 0.558127463
vt 0.148097783 0.543678463
vt 0.182617515 0.386987567
vt 0.227544978 0.389345497
vt 0.290393084 0.397494227
vt 0.289935797 0.381989121
vt 0.298696965 0.42132625
vt 0.302147299 0.38751331
vt 0.311673135 0.411683649
vt 0.120034106 0.557921827
vt 0.116899587 0.544208944
vt 0.11815732 0.502728283
vt 0.114505447 0.454496205
vt 0.0797838196 0.50297755
vt 0.0760943294 0.462080002
vt 0.0783828422 0.541634738
vt 0.020273285 0.481653571
vt 0.0396374315 0.53559643
vt 0.0600334182 0.416975021
vt 0.029370008 0.454151839
vt 0.0244860817 0.431245297
vt 0.100696564 0.399666041
vt 0.0277162362 0.469998032
vt 0.120034106 0.557921827
vt 0.0824564323 0.557090819
vt 0.0396374315 0.53559643
vt 0.0429531336 0.553400934
vt 0.0998020172 0.391639292
vt 0.141642809 0.381930947
vt 0.0587330386 0.406309575
vt 0.0163568873 0.418771058
vt 0.00963414833 0.432086021
vt 0.0124967489 0.455475301
vt 0.182617515 0.386987567
vt 0.141642809 0.381930947
vt 0.0124967489 0.455475301
vt 0.00422683172 0.476247072
vt 0.0273084696 0.547477424
vt 0.0396374315 0.53559643
vt 0.814065933 0.364575565
vt 0.811026812 0.33465755
vt 0.751941204 0.348310888
vt 0.817267656 0.38464123
vt 0.746313095 0.375313997
vt 0.744100332 0.396585882
vt 0.819453478 0.402268469
vt 0.744324684 0.414836824
vt 0.817888737 0.419814646
vt 0.810370207 0.437265098
vt 0.746308088 0.430967748
vt 0.801946163 0.456545174
vt 0.790547132 0.456140816
vt 0.799696684 0.329506457
vt 0.792745352 0.320611328
vt 0.758359909 0.322345912
vt 0.811026812 0.33465755
vt 0.799696684 0.329506457
vt 0.783168554 0.462238848
vt 0.790547132 0.456140816
vt 0.749252081 0.449566722
vt 0.311673135 0.411683649
vt 0.330947489 0.430832177
vt 0.320372611 0.446343273
vt 0.343625337 0.501346767
vt 0.343625337 0.501346767
vt 0.325403422 0.500323832
vt 0.263115913 0.484120548
vt 0.19070594 0.450746775
vt 0.248684078 0.445382506
vt 0.198370919 0.495793611
vt 0.159940809 0.451038688
vt 0.165843457 0.500055611
vt 0.275199443 0.51890713
vt 0.211508185 0.535427868
vt 0.234024733 0.399544448
vt 0.186205462 0.394789487
vt 0.155399352 0.392457455
vt 0.298696965 0.42132625
vt 0.308214337 0.43653217
vt 0.320372611 0.446343273
vt 0.144654527 0.501915753
vt 0.138953701 0.451376259
vt 0.172499612 0.542075455
vt 0.132317543 0.393568486
vt 0.211893424 0.547574818
vt 0.270188719 0.534565508
vt 0.325403422 0.500323832
vt 0.323573977 0.519046247
vt 0.163696364 0.558127463
vt 0.148097783 0.543678463
vt 0.182617515 0.386987567
vt 0.227544978 0.389345497
vt 0.290393084 0.397494227
vt 0.289935797 0.381989121
vt 0.302147299 0.38751331
vt 0.311673135 0.411683649
vt 0.120034106 0.557921827
vt 0.116899587 0.544208944
vt 0.11815732 0.502728283
vt 0.114505447 0.454496205
vt 0.0797838196 0.50297755
vt 0.0760943294 0.462080002
vt 0.0783828422 0.541634738
vt 0.020273285 0.481653571
vt 0.0396374315 0.53559643
vt 0.0600334182 0.416975021
vt 0.029370008 0.454151839
vt 0.0244860817 0.431245297
vt 0.100696564 0.399666041
vt 0.0277162362 0.469998032
vt 0.0824564323 0.557090819
vt 0.0429531336 0.553400934
vt 0.120034106 0.557921827
vt 0.0998020172 0.391639292
vt 0.141642809 0.381930947
vt 0.0587330386 0.406309575
vt 0.0163568873 0.418771058
vt 0.00963414833 0.432086021
vt 0.0124967489 0.455475301
vt 0.00422683172 0.476247072
vt 0.0273084696 0.547477424
vt 0.182617515 0.386987567
vt 0.141642809 0.381930947
vt 0.814065933 0.364575565
vt 0.751941204 0.348310888
vt 0.811026812 0.33465755
vt 0.817267656 0.38464123
vt 0.746313095 0.375313997
vt 0.744100332 0.396585882
vt 0.819453478 0.402268469
vt 0.744324684 0.414836824
vt 0.817888737 0.419814646
vt 0.810370207 0.437265098
vt 0.746308088 0.430967748
vt 0.801946163 0.456545174
vt 0.790547132 0.456140816
vt 0.783168554 0.462238848
vt 0.749252081 0.449566722
vt 0.792745352 0.320611328
vt 0.799696684 0.329506457
vt 0.758359909 0.322345912
vt 0.799696684 0.329506457
vt 0.811026812 0.33465755
vt 0.311673135 0.411683649
vt 0.330947489 0.430832177
vt 0.343625337 0.501346767
vt 0.320372611 0.446343273
vt 0.343625337 0.501346767
vt 0.325403422 0.500323832
vt 0.306461275 0.910101652
vt 0.295350879 0.965934575
vt 0.338493139 0.932819068
vn -0.30171454 -0.780785561 0.547121704
vn -0.565812707 -0.511146843 0.646981418
vn -0.202963233 -0.518572509 0.830595315
vn -0.492270261 -0.737505794 0.4623366
vn -0.608074963 -0.231912896 0.759250402
vn -0.210248426 -0.251995295 0.944613159
vn 0.334120423 -0.697903752 0.633477509
vn 0.27621907 -0.475976169 0.834954858
vn -0.876241446 -0.4677158 -0.115943134
vn -0.953503609 -0.298723668 0.0399394296
vn -0.993500531 -0.0889216587 -0.0710605159
vn -0.458957046 -0.866066098 -0.198211744
vn -0.651782095 -0.75283587 -0.0917503089
vn -0.335826963 -0.890159905 -0.307953835
vn -0.299310803 0.0642627031 0.951989114
vn -0.683471799 0.224405259 0.694628298
vn 0.339588106 -0.250799805 0.906520486
vn -0.970753372 0.115577199 -0.210427895
vn 0.975803137 -0.0579325147 0.21083656
vn 0.823651493 0.450349927 -0.344649255
vn 0.674381912 -0.736312509 0.0552536175
vn 0.73766315 -0.1408066 -0.660323024
vn 0.999838233 -0.017906541 0.00171488291
vn 0.237869933 -0.0164745413 0.971157312
vn -0.199061856 0.228103116 -0.953070462
vn -0.464991242 0.388953537 -0.795297682
vn -0.65148747 -0.408381969 -0.639365435
vn 0.0591762476 0.0360619128 -0.997595966
vn -0.458957046 -0.866066098 -0.198211744
vn 0.0591762476 0.0360619128 -0.997595966
vn -0.33678937 -0.283693582 -0.897825658
vn 0.945854247 -0.324027032 -0.0191364922
vn 0.205267921 0.318731755 0.925351381
vn -0.400560886 0.567467451 0.71939683
vn -0.467377394 0.717927814 0.515885711
vn -0.35430184 0.867914796 0.34812957
vn -0.338807046 0.882370949 0.326544583
vn 0.201577395 0.795866132 0.570932269
vn -0.133009642 0.945554078 -0.297045112
vn 0.701322198 0.700755596 0.130723953
vn -0.59202224 0.785418034 -0.180632412
vn -0.00287760701 0.986782074 -0.16202727
vn -0.351624012 0.652526498 -0.671244919
vn -0.853986621 0.520268857 0.0052135312
vn -0.294842362 0.929213405 -0.222778827
vn 0.945854247 -0.324027032 -0.0191364922
vn 0.788941085 -0.613517046 -0.0341877863
vn 0.701322198 0.700755596 0.130723953
vn 0.925806403 0.184641033 -0.329833359
vn -0.439788669 -0.072809495 -0.895144999
vn -0.142902181 -0.0805367455 -0.986454606
vn -0.3115924 -0.518554628 -0.796248317
vn 0.363963664 -0.200819924 -0.909506321
vn 0.363963664 -0.200819924 -0.909506321
vn 0.0570398048 0.388545632 -0.919662356
vn -0.199061856 0.228103116 -0.953070462
vn -0.142902181 -0.0805367455 -0.986454606
vn 0.0570398048 0.388545632 -0.919662356
vn 0.565327942 -0.239316493 -0.789386988
vn 0.925806403 0.184641033 -0.329833359
vn 0.701322198 0.700755596 0.130723953
vn -0.464991242 0.388953537 -0.795297682
vn 0.0591762476 0.0360619128 -0.997595966
vn 0.823651493 0.450349927 -0.344649255
vn -0.199061856 0.228103116 -0.953070462
vn 0.975803137 -0.0579325147 0.21083656
vn 0.999838233 -0.017906541 0.00171488291
vn -0.142902181 -0.0805367455 -0.986454606
vn 0.945854247 -0.324027032 -0.0191364922
vn -0.439788669 -0.072809495 -0.895144999
vn -0.3115924 -0.518554628 -0.796248317
vn 0.788941085 -0.613517046 -0.0341877863
vn 0.363963664 -0.200819924 -0.909506321
vn 0.0570398048 0.388545632 -0.919662356
vn -0.33678937 -0.283693582 -0.897825658
vn 0.21337074 0.276700616 -0.936968327
vn 0.73766315 -0.1408066 -0.660323024
vn 0.0591762476 0.0360619128 -0.997595966
vn -0.33678937 -0.283693582 -0.897825658
vn 0.565327942 -0.239316493 -0.789386988
vn 0.0570398048 0.388545632 -0.919662356
vn 0.925806403 0.184641033 -0.329833359
vn -0.33678937 -0.283693582 -0.897825658
vn 0.21337074 0.276700616 -0.936968327
vn -0.335826963 -0.890159905 -0.307953835
vn 0.73766315 -0.1408066 -0.660323024
vn 0.73766315 -0.1408066 -0.660323024
vn 0.674381912 -0.736312509 0.0552536175
vn 0.302009523 -0.781028152 0.546612501
vn 0.566474378 -0.511223376 0.646341562
vn 0.492270261 -0.737505794 0.4623366
vn 0.205816224 -0.526538193 0.824861884
vn 0.614800632 -0.225653812 0.755711913
vn 0.216073707 -0.236536533 0.947292209
vn -0.330550909 -0.698961318 0.634183824
vn -0.278234839 -0.487066478 0.8278597
vn 0.874992311 -0.473519653 -0.100835122
vn 0.953503609 -0.298723668 0.0399394296
vn 0.993500531 -0.0889215246 -0.0710605532
vn 0.458956987 -0.866066217 -0.1982117
vn 0.651781559 -0.752836466 -0.0917502865
vn 0.335826546 -0.890160084 -0.307953775
vn 0.3043347 0.0854123011 0.948728144
vn 0.68349421 0.224418432 0.694602072
vn -0.354123801 -0.239351913 0.90405035
vn 0.970748544 0.115597874 -0.210438505
vn -0.976639986 -0.0611715242 0.205991149
vn -0.8247177 0.451816976 -0.340149999
vn -0.671900034 -0.738536537 0.0558056049
vn -0.737361372 -0.140752181 -0.660671651
vn -0.999999642 7.99555492E-05 -0.000894649536
vn -0.234729037 0.0124076679 0.971981645
vn 0.207355216 0.231444687 -0.950493157
vn 0.485073239 0.382100523 -0.786576807
vn 0.64930439 -0.422779411 -0.632187784
vn -0.0622061566 0.0329915434 -0.997517943
vn -0.0622061566 0.0329915434 -0.997517943
vn 0.336748809 -0.283610225 -0.897867203
vn -0.946068764 -0.323538065 -0.0166461486
vn -0.205326393 0.318718791 0.925342858
vn 0.400559992 0.567489505 0.719379842
vn 0.467402786 0.717930138 0.515859365
vn 0.356842279 0.863525569 0.356352717
vn 0.338807046 0.882370949 0.326544583
vn -0.20219548 0.796120286 0.57035917
vn 0.118095882 0.953413546 -0.277589619
vn -0.696811616 0.708507717 0.111671068
vn 0.589417815 0.786849856 -0.182904258
vn 0.0324990489 0.987621844 -0.153449997
vn 0.350173712 0.673232198 -0.651257873
vn 0.853984714 0.520272315 0.00518665882
vn 0.296800822 0.935690224 -0.190769404
vn -0.783648312 -0.619756579 -0.0423925966
vn -0.915581167 0.202090561 -0.347664207
vn -0.946068764 -0.323538065 -0.0166461486
vn 0.439433098 -0.0730598569 -0.895299315
vn 0.14265053 -0.0820003748 -0.986370564
vn 0.311740398 -0.50417316 -0.805373967
vn -0.350635141 -0.154753745 -0.923637509
vn -0.350635141 -0.154753745 -0.923637509
vn -0.0650031716 0.400758654 -0.913874745
vn -0.543709993 -0.244419932 -0.802893639
vn -0.915581167 0.202090561 -0.347664207
vn 0.207355216 0.231444687 -0.950493157
vn 0.14265053 -0.0820003748 -0.986370564
vn 0.485073239 0.382100523 -0.786576807
vn -0.8247177 0.451816976 -0.340149999
vn -0.0622061566 0.0329915434 -0.997517943
vn 0.207355216 0.231444687 -0.950493157
vn -0.976639986 -0.0611715242 0.205991149
vn -0.999999642 7.99555492E-05 -0.000894649536
vn 0.14265053 -0.0820003748 -0.986370564
vn -0.946068764 -0.323538065 -0.0166461486
vn 0.439433098 -0.0730598569 -0.895299315
vn 0.311740398 -0.50417316 -0.805373967
vn -0.783648312 -0.619756579 -0.0423925966
vn -0.350635141 -0.154753745 -0.923637509
vn -0.0650031716 0.400758654 -0.913874745
vn -0.543709993 -0.244419932 -0.802893639
vn -0.915581167 0.202090561 -0.347664207
vn -0.213452131 0.277125299 -0.936824322
vn 0.336748809 -0.283610225 -0.897867203
vn -0.737361372 -0.140752181 -0.660671651
vn 0.336748809 -0.283610225 -0.897867203
vn -0.0622061566 0.0329915434 -0.997517943
vn 0.336748809 -0.283610225 -0.897867203
vn -0.213452131 0.277125299 -0.936824322
vn -0.737361372 -0.140752181 -0.660671651
vn 0.335826546 -0.890160084 -0.307953775
vn -0.737361372 -0.140752181 -0.660671651
vn -0.671900034 -0.738536537 0.0558056049
vn 0.333018273 -0.844136596 0.420157552
vn 0.333018273 -0.844136596 0.420157552
vn 0.333018273 -0.844136596 0.420157552
g jugger_green_war_m_torso1_0
f 3/3/3 2/2/2 1/1/1
f 4/4/4 1/1/1 2/2/2
f 2/2/2 3/3/3 5/5/5
f 6/6/6 5/5/5 3/3/3
f 1/1/1 7/7/7 3/3/3
f 8/8/8 3/3/3 7/7/7
f 3/3/3 8/8/8 6/6/6
f 4/4/4 2/2/2 9/9/9
f 10/10/10 9/9/9 2/2/2
f 2/2/2 5/5/5 10/10/10
f 11/11/11 10/10/10 5/5/5
f 4/4/4 12/12/12 1/1/1
f 13/13/13 1/1/1 12/12/12
f 1/1/1 13/13/13 14/14/14
f 1/1/1 14/14/14 7/7/7
f 6/6/6 15/15/15 5/5/5
f 16/16/16 5/5/5 15/15/15
f 5/5/5 16/16/16 11/11/11
f 17/17/17 6/6/6 8/8/8
f 18/18/18 11/11/11 16/16/16
f 8/8/8 7/7/7 19/19/19
f 8/8/8 19/19/19 17/17/17
f 20/20/20 19/19/19 7/7/7
f 7/7/7 21/21/21 20/20/20
f 21/21/21 7/7/7 14/14/14
f 22/22/22 20/20/20 21/21/21
f 23/23/23 17/17/17 19/19/19
f 24/24/24 17/17/17 23/23/23
f 10/10/10 11/11/11 25/25/25
f 10/10/10 25/25/25 9/9/9
f 26/26/26 9/9/9 25/25/25
f 9/9/9 26/26/26 27/27/27
f 28/28/28 27/27/27 26/26/26
f 27/27/27 29/29/29 9/9/9
f 27/27/27 30/30/30 29/29/29
f 31/31/31 29/29/29 30/30/30
f 4/4/4 9/9/9 29/29/29
f 23/23/23 32/32/32 24/24/24
f 33/33/33 24/24/24 32/32/32
f 24/24/24 33/33/33 15/15/15
f 34/34/34 15/15/15 33/33/33
f 15/15/15 34/34/34 16/16/16
f 35/35/35 16/16/16 34/34/34
f 34/34/34 36/36/36 35/35/35
f 37/37/37 35/35/35 36/36/36
f 33/33/33 38/38/38 34/34/34
f 36/36/36 34/34/34 38/38/38
f 36/36/36 38/38/38 39/39/39
f 40/40/40 39/39/39 38/38/38
f 37/37/37 41/41/41 35/35/35
f 37/37/37 42/42/42 41/41/41
f 37/37/37 36/36/36 42/42/42
f 43/43/43 41/41/41 42/42/42
f 44/44/44 35/35/35 41/41/41
f 35/35/35 44/44/44 16/16/16
f 18/18/18 16/16/16 44/44/44
f 45/45/45 42/42/42 36/36/36
f 39/39/39 45/45/45 36/36/36
f 33/33/33 46/46/46 38/38/38
f 47/47/47 38/38/38 46/46/46
f 38/38/38 47/47/47 48/48/48
f 49/49/49 48/48/48 47/47/47
f 44/44/44 50/50/50 18/18/18
f 44/44/44 41/41/41 50/50/50
f 51/51/51 18/18/18 50/50/50
f 52/52/52 50/50/50 41/41/41
f 41/41/41 43/43/43 52/52/52
f 53/53/53 52/52/52 43/43/43
f 43/43/43 42/42/42 54/54/54
f 55/55/55 54/54/54 42/42/42
f 45/45/45 55/55/55 42/42/42
f 18/18/18 51/51/51 11/11/11
f 57/57/57 56/56/56 11/11/11
f 45/45/45 39/39/39 58/58/58
f 59/59/59 55/55/55 39/39/39
f 59/59/59 39/39/39 60/60/60
f 61/61/61 60/60/60 39/39/39
f 64/64/64 63/63/63 62/62/62
f 62/62/62 65/65/65 64/64/64
f 66/66/66 64/64/64 65/65/65
f 66/66/66 65/65/65 67/67/67
f 68/68/68 67/67/67 65/65/65
f 67/67/67 68/68/68 69/69/69
f 70/70/70 69/69/69 68/68/68
f 70/70/70 71/71/71 69/69/69
f 72/72/72 69/69/69 71/71/71
f 71/71/71 73/73/73 72/72/72
f 72/72/72 73/73/73 74/74/74
f 76/76/76 75/75/75 64/64/64
f 77/77/77 76/76/76 64/64/64
f 79/79/79 78/78/78 64/64/64
f 72/72/72 81/81/81 80/80/80
f 72/72/72 80/80/80 82/82/82
f 83/83/83 13/13/13 29/29/29
f 13/13/13 83/83/83 14/14/14
f 84/84/84 14/14/14 83/83/83
f 84/84/84 86/86/86 85/85/85
f 88/88/88 85/85/85 87/87/87
f 15/15/15 6/6/6 24/24/24
f 17/17/17 24/24/24 6/6/6
f 91/91/91 90/90/90 89/89/89
f 92/92/92 89/89/89 90/90/90
f 90/90/90 93/93/93 92/92/92
f 94/94/94 92/92/92 93/93/93
f 89/89/89 92/92/92 95/95/95
f 96/96/96 95/95/95 92/92/92
f 92/92/92 94/94/94 96/96/96
f 91/91/91 97/97/97 90/90/90
f 98/98/98 90/90/90 97/97/97
f 90/90/90 98/98/98 93/93/93
f 99/99/99 93/93/93 98/98/98
f 91/91/91 89/89/89 100/100/100
f 91/91/91 100/100/100 97/97/97
f 101/101/101 100/100/100 89/89/89
f 101/101/101 89/89/89 102/102/102
f 89/89/89 95/95/95 102/102/102
f 94/94/94 93/93/93 103/103/103
f 104/104/104 103/103/103 93/93/93
f 93/93/93 99/99/99 104/104/104
f 105/105/105 96/96/96 94/94/94
f 106/106/106 104/104/104 99/99/99
f 96/96/96 107/107/107 95/95/95
f 96/96/96 105/105/105 107/107/107
f 108/108/108 95/95/95 107/107/107
f 95/95/95 108/108/108 109/109/109
f 109/109/109 102/102/102 95/95/95
f 110/110/110 109/109/109 108/108/108
f 111/111/111 107/107/107 105/105/105
f 105/105/105 112/112/112 111/111/111
f 98/98/98 113/113/113 99/99/99
f 98/98/98 97/97/97 113/113/113
f 114/114/114 113/113/113 97/97/97
f 97/97/97 115/115/115 114/114/114
f 116/116/116 114/114/114 115/115/115
f 115/115/115 97/97/97 100/100/100
f 115/115/115 100/100/100 117/117/117
f 118/118/118 117/117/117 100/100/100
f 111/111/111 112/112/112 119/119/119
f 120/120/120 119/119/119 112/112/112
f 112/112/112 103/103/103 120/120/120
f 121/121/121 120/120/120 103/103/103
f 103/103/103 104/104/104 121/121/121
f 122/122/122 121/121/121 104/104/104
f 121/121/121 122/122/122 123/123/123
f 124/124/124 123/123/123 122/122/122
f 123/123/123 125/125/125 121/121/121
f 120/120/120 121/121/121 125/125/125
f 123/123/123 126/126/126 125/125/125
f 127/127/127 125/125/125 126/126/126
f 124/124/124 122/122/122 128/128/128
f 124/124/124 128/128/128 129/129/129
f 124/124/124 129/129/129 123/123/123
f 130/130/130 129/129/129 128/128/128
f 131/131/131 128/128/128 122/122/122
f 122/122/122 104/104/104 131/131/131
f 106/106/106 131/131/131 104/104/104
f 132/132/132 123/123/123 129/129/129
f 132/132/132 126/126/126 123/123/123
f 125/125/125 127/127/127 133/133/133
f 134/134/134 133/133/133 127/127/127
f 133/133/133 135/135/135 125/125/125
f 120/120/120 125/125/125 135/135/135
f 131/131/131 106/106/106 136/136/136
f 131/131/131 136/136/136 128/128/128
f 137/137/137 136/136/136 106/106/106
f 138/138/138 128/128/128 136/136/136
f 128/128/128 138/138/138 130/130/130
f 139/139/139 130/130/130 138/138/138
f 130/130/130 140/140/140 129/129/129
f 141/141/141 129/129/129 140/140/140
f 141/141/141 132/132/132 129/129/129
f 132/132/132 141/141/141 126/126/126
f 142/142/142 126/126/126 141/141/141
f 142/142/142 143/143/143 126/126/126
f 127/127/127 126/126/126 143/143/143
f 137/137/137 106/106/106 99/99/99
f 145/145/145 99/99/99 144/144/144
f 148/148/148 147/147/147 146/146/146
f 146/146/146 147/147/147 149/149/149
f 150/150/150 149/149/149 147/147/147
f 150/150/150 151/151/151 149/149/149
f 152/152/152 149/149/149 151/151/151
f 151/151/151 153/153/153 152/152/152
f 154/154/154 152/152/152 153/153/153
f 154/154/154 153/153/153 155/155/155
f 156/156/156 155/155/155 153/153/153
f 157/157/157 155/155/155 156/156/156
f 157/157/157 156/156/156 158/158/158
f 158/158/158 156/156/156 159/159/159
f 159/159/159 156/156/156 160/160/160
f 162/162/162 161/161/161 147/147/147
f 161/161/161 163/163/163 147/147/147
f 165/165/165 164/164/164 147/147/147
f 101/101/101 166/166/166 100/100/100
f 101/101/101 102/102/102 166/166/166
f 167/167/167 166/166/166 102/102/102
f 167/167/167 169/169/169 168/168/168
f 171/171/171 170/170/170 169/169/169
f 105/105/105 94/94/94 112/112/112
f 103/103/103 112/112/112 94/94/94
f 174/174/174 173/173/173 172/172/172
