g jugger_green_war_m_helm
v 1.38067398E-08 0.0011150646 1.74643004
v -0.0161605719 -0.0088205291 1.74253082
v -0.0187191181 0.00111402513 1.74279678
v -0.00933185779 -0.0159168765 1.74232423
v 1.18180683E-08 -0.0185136031 1.74224818
v 0.0093319118 -0.0159168951 1.74232423
v 0.0161606129 -0.0088205291 1.74253082
v 0.018719025 0.00111398217 1.7427969
v -0.0306983553 -0.017209949 1.73192608
v -0.035462901 0.00145676604 1.73243737
v -0.0177346841 -0.0305693336 1.73153603
v 3.93975119E-09 -0.0354599282 1.73139143
v 0.0177347045 -0.0305693429 1.73153603
v 0.0306983981 -0.0172099583 1.73192608
v 0.0354628228 0.00145685195 1.73243737
v -0.0416267999 -0.0231217239 1.71616423
v -0.0480432399 0.00182051177 1.7168566
v -0.0240503456 -0.0409835242 1.71564448
v 6.27870367E-10 -0.0475207046 1.71545041
v 0.0240503661 -0.0409835428 1.7156446
v 0.0416268446 -0.0231217425 1.71616423
v 0.0480433069 0.00182058802 1.7168566
v -0.0272001289 -0.0454329178 1.69660425
v -0.0470877439 -0.0255683791 1.6971736
v -0.0480432399 0.00182051177 1.7168566
v -0.0543381497 0.00217814907 1.6979425
v -1.17721257E-07 -0.0526982471 1.69639146
v 0.0272002053 -0.0454328731 1.69660425
v 0.0470877066 -0.0255685039 1.6971736
v 0.0543381907 0.00217826827 1.6979425
v 0.0480433069 0.00182058802 1.7168566
v -0.0697162896 0.00513513573 1.56799889
v -0.0603699163 -0.0270394217 1.56722534
v -0.0348398685 -0.0499808118 1.56665099
v -3.28137816E-07 -0.0583544634 1.5664376
v 0.0348395668 -0.0499809459 1.56665099
v 0.0603700578 -0.0270392075 1.56722534
v 0.0697163492 0.00513529312 1.56799889
v -0.0542681664 0.0245956257 1.69856024
v -0.0696386695 0.0311534274 1.56862211
v -0.060135372 0.0632337108 1.56938994
v -0.0468784459 0.0522479191 1.69931805
v -0.0414506085 0.0486668907 1.71818268
v -0.0238991212 0.0664212108 1.71866393
v -0.0270192157 0.0719843358 1.69984055
v 1.75158394E-08 0.0729090795 1.71883643
v 1.64174789E-08 0.0791909769 1.70002711
v -0.0479805954 0.0238064304 1.71747482
v 2.92546032E-09 0.0943512544 1.5701052
v -0.0346365459 0.0860397667 1.56991732
v -0.0479805954 0.0238064304 1.71747482
v 0.0696387291 0.0311533045 1.56862211
v 0.0542682447 0.0245957468 1.69856012
v 0.0468786024 0.0522477292 1.69931805
v 0.0479806885 0.0238064062 1.71747482
v 0.0414506719 0.0486669093 1.71818268
v 0.0270191543 0.071984373 1.69984055
v 0.0238991715 0.066421248 1.71866393
v 1.64174789E-08 0.0791909769 1.70002711
v 1.75158394E-08 0.0729090795 1.71883643
v 0.0601350777 0.0632341728 1.56938994
v 0.0346363112 0.0860398635 1.56991744
v 2.92546032E-09 0.0943512544 1.5701052
v 0.0479806885 0.0238064062 1.71747482
v 2.62740549E-08 0.0228179302 1.74706542
v 0.0161216427 0.0329324827 1.74374568
v 0.0186946932 0.0230198763 1.74343455
v 0.00930227339 0.0400073603 1.74395072
v 1.19748522E-08 0.0425947718 1.74402559
v -0.00930222124 0.0400073528 1.74395072
v -0.0161215886 0.0329325162 1.74374568
v -0.0186946467 0.0230198577 1.74343455
v 0.0305911992 0.0418768525 1.73361874
v 0.0354166627 0.023262782 1.73306239
v 0.017645672 0.0551727526 1.73399198
v 1.97668797E-08 0.0600346327 1.73412681
v -0.0176456217 0.0551727489 1.73399198
v -0.0305911507 0.0418768451 1.73361874
v -0.0354166068 0.0232627671 1.73306239
v 0.0414506719 0.0486669093 1.71818268
v 0.0479806885 0.0238064062 1.71747482
v 0.0238991715 0.066421248 1.71866393
v 1.75158394E-08 0.0729090795 1.71883643
v -0.0238991212 0.0664212108 1.71866393
v -0.0414506085 0.0486668907 1.71818268
v -0.0479805954 0.0238064304 1.71747482
v -0.0479805954 0.0238064304 1.71747482
vt 0.44064945 0.723833561
vt 0.410583049 0.686253667
vt 0.405149281 0.716740251
vt 0.42345807 0.665835142
vt 0.44064945 0.658660173
vt 0.45784077 0.665834665
vt 0.470715672 0.686252832
vt 0.476149321 0.716738701
vt 0.379685163 0.644807339
vt 0.368275881 0.710492134
vt 0.40691644 0.606907964
vt 0.44064945 0.594421387
vt 0.474381864 0.60690701
vt 0.501613081 0.644805193
vt 0.51302284 0.710489631
vt 0.349416763 0.590390682
vt 0.330880374 0.700994611
vt 0.394472182 0.547882318
vt 0.44064945 0.534078836
vt 0.486825287 0.547881961
vt 0.531879783 0.590387464
vt 0.550418258 0.700990915
vt 0.388687193 0.485251188
vt 0.339446127 0.50894165
vt 0.296764195 0.60028398
vt 0.288239777 0.527815938
vt 0.44064945 0.47475183
vt 0.492610276 0.485250235
vt 0.541848898 0.508938313
vt 0.593053102 0.527810454
vt 0.584528804 0.600278497
vt 0.2396487 0.057580471
vt 0.302637339 0.0334403515
vt 0.369132996 0.0143375397
vt 0.44064945 0.00877285004
vt 0.512166679 0.0143368244
vt 0.578663886 0.0334388018
vt 0.641653419 0.0575791597
vt 0.24740392 0.543781281
vt 0.191135168 0.0774618387
vt 0.129217505 0.106408
vt 0.195452109 0.567389727
vt 0.205242097 0.63741219
vt 0.158410713 0.665484905
vt 0.145751134 0.597600937
vt 0.114271611 0.700373173
vt 0.0968712792 0.634922504
vt 0.25431639 0.61572969
vt 0.00392129319 0.190903068
vt 0.0671814978 0.144604325
vt 0.25431639 0.61572969
vt 0.690167427 0.0774611235
vt 0.633886576 0.543774486
vt 0.685835242 0.567387104
vt 0.626972675 0.615723252
vt 0.676043749 0.637408257
vt 0.73553443 0.59760499
vt 0.722872138 0.665486813
vt 0.784412265 0.634933472
vt 0.767009139 0.700381994
vt 0.752086282 0.106413722
vt 0.814120829 0.144619346
vt 0.877378821 0.190925956
vt 0.626972675 0.615723252
vt 0.44064945 0.789500833
vt 0.470495433 0.824897647
vt 0.476101637 0.792262673
vt 0.457756072 0.848579645
vt 0.44064945 0.85725975
vt 0.423542887 0.848580003
vt 0.410803586 0.824898601
vt 0.405197561 0.792263746
vt 0.501166821 0.861055613
vt 0.512633562 0.792292237
vt 0.475110859 0.909068584
vt 0.44064945 0.9261415
vt 0.406188399 0.9090693
vt 0.380132556 0.861057043
vt 0.368665576 0.792294621
vt 0.532361269 0.899280429
vt 0.550008178 0.797106504
vt 0.492847919 0.971106887
vt 0.44064945 0.996342301
vt 0.388451576 0.971107602
vt 0.348938584 0.899282336
vt 0.331291229 0.797109365
vt 0.331291229 0.797109365
vn -0.0215280745 -0.109776653 0.993723094
vn -0.329982579 -0.241424397 0.912592947
vn -0.419746071 -0.0785868391 0.904233038
vn -0.17447114 -0.374083519 0.910835445
vn 0.0286596529 -0.412332058 0.910582781
vn 0.223622903 -0.345405638 0.911420763
vn 0.358469099 -0.192441627 0.91349113
vn 0.329535395 -0.0637371913 0.941989303
vn -0.569615543 -0.353109449 0.742194057
vn -0.700306356 -0.107805602 0.705654979
vn -0.325071365 -0.592984617 0.736680388
vn 0.0111901853 -0.677645624 0.735303462
vn 0.343798846 -0.580187023 0.738366663
vn 0.579893649 -0.332070291 0.743944049
vn 0.615984857 -0.0995868072 0.781437755
vn -0.760366797 -0.453046381 0.465393871
vn -0.898846984 -0.125075191 0.420036167
vn -0.43873325 -0.778230786 0.449299395
vn 0.00654991064 -0.896499455 0.442996353
vn 0.45036456 -0.770089984 0.451810986
vn 0.767329097 -0.438303381 0.468077123
vn 0.842038333 -0.120372325 0.525815427
vn -0.557013869 -0.81217128 0.173531413
vn -0.886186242 -0.417127281 0.201690018
vn -0.898846984 -0.125075191 0.420036167
vn -0.968411922 -0.128890917 0.213460803
vn -0.0836081207 -0.984323204 0.155298367
vn 0.409505457 -0.897697866 0.162615135
vn 0.797178626 -0.573245943 0.189460546
vn 0.96835649 -0.13179554 0.211933091
vn 0.842038333 -0.120372325 0.525815427
vn -0.984539807 -0.134711519 0.111956075
vn -0.799446702 -0.594757915 0.0845459253
vn -0.395788491 -0.91678226 0.053495314
vn 0.0880864486 -0.995088279 0.0451668128
vn 0.550903499 -0.832002997 0.0653933361
vn 0.892082632 -0.44107309 0.0981994942
vn 0.983489037 -0.141209781 0.113177538
vn -0.967374444 0.125479072 0.220094413
vn -0.982305586 0.140960664 0.123311631
vn -0.889222622 0.43865028 0.129880518
vn -0.794367909 0.563888848 0.225851506
vn -0.766514838 0.414760917 0.490334958
vn -0.449683607 0.745001316 0.49270463
vn -0.40788278 0.886057377 0.220304266
vn -0.0063521699 0.870977819 0.491281241
vn 0.0833146423 0.972209573 0.218785778
vn -0.84192121 0.0946979299 0.531226039
vn -0.0878202841 0.9892084 0.117278971
vn -0.548504531 0.826678514 0.125480995
vn -0.84192121 0.0946979299 0.531226039
vn 0.983453333 0.134271875 0.121616378
vn 0.967450023 0.122556746 0.221405268
vn 0.883623421 0.408894569 0.228067771
vn 0.89841491 0.106438518 0.426053435
vn 0.759529829 0.429134429 0.488833398
vn 0.554690301 0.800881684 0.225626051
vn 0.438377053 0.752931833 0.49083522
vn 0.0833146423 0.972209573 0.218785778
vn -0.0063521699 0.870977819 0.491281241
vn 0.79639554 0.591215432 0.127351835
vn 0.394145876 0.911201835 0.119834006
vn -0.0878202841 0.9892084 0.117278971
vn 0.89841491 0.106438518 0.426053435
vn 0.021481704 0.0522247963 0.998404324
vn 0.33145231 0.18990846 0.924161375
vn 0.420431346 0.0275425948 0.906906247
vn 0.175487548 0.32312727 0.92994231
vn -0.0288091805 0.361526936 0.931916475
vn -0.224686041 0.294225484 0.928949714
vn -0.359541476 0.140713423 0.922458529
vn -0.330007136 0.00947588589 0.943930864
vn 0.570930839 0.312841028 0.759057641
vn 0.700766861 0.0708124414 0.70986712
vn 0.326268911 0.55294013 0.766684949
vn -0.0110752825 0.637815177 0.770109832
vn -0.344702691 0.540187716 0.767709136
vn -0.580915868 0.29197219 0.759795368
vn -0.616509914 0.056729082 0.785300791
vn 0.759529829 0.429134429 0.488833398
vn 0.89841491 0.106438518 0.426053435
vn 0.438377053 0.752931833 0.49083522
vn -0.0063521699 0.870977819 0.491281241
vn -0.449683607 0.745001316 0.49270463
vn -0.766514838 0.414760917 0.490334958
vn -0.84192121 0.0946979299 0.531226039
vn -0.84192121 0.0946979299 0.531226039
g jugger_green_war_m_helm_0
f 3/3/3 2/2/2 1/1/1
f 2/2/2 4/4/4 1/1/1
f 4/4/4 5/5/5 1/1/1
f 5/5/5 6/6/6 1/1/1
f 6/6/6 7/7/7 1/1/1
f 7/7/7 8/8/8 1/1/1
f 2/2/2 3/3/3 9/9/9
f 10/10/10 9/9/9 3/3/3
f 4/4/4 2/2/2 11/11/11
f 9/9/9 11/11/11 2/2/2
f 5/5/5 4/4/4 12/12/12
f 11/11/11 12/12/12 4/4/4
f 6/6/6 5/5/5 13/13/13
f 12/12/12 13/13/13 5/5/5
f 7/7/7 6/6/6 14/14/14
f 13/13/13 14/14/14 6/6/6
f 8/8/8 7/7/7 15/15/15
f 14/14/14 15/15/15 7/7/7
f 9/9/9 10/10/10 16/16/16
f 17/17/17 16/16/16 10/10/10
f 11/11/11 9/9/9 18/18/18
f 16/16/16 18/18/18 9/9/9
f 12/12/12 11/11/11 19/19/19
f 18/18/18 19/19/19 11/11/11
f 13/13/13 12/12/12 20/20/20
f 19/19/19 20/20/20 12/12/12
f 14/14/14 13/13/13 21/21/21
f 20/20/20 21/21/21 13/13/13
f 15/15/15 14/14/14 22/22/22
f 21/21/21 22/22/22 14/14/14
f 18/18/18 16/16/16 23/23/23
f 24/24/24 23/23/23 16/16/16
f 16/16/16 25/25/25 24/24/24
f 26/26/26 24/24/24 25/25/25
f 19/19/19 18/18/18 27/27/27
f 23/23/23 27/27/27 18/18/18
f 20/20/20 19/19/19 28/28/28
f 27/27/27 28/28/28 19/19/19
f 21/21/21 20/20/20 29/29/29
f 28/28/28 29/29/29 20/20/20
f 29/29/29 30/30/30 21/21/21
f 31/31/31 21/21/21 30/30/30
f 26/26/26 32/32/32 24/24/24
f 33/33/33 24/24/24 32/32/32
f 24/24/24 33/33/33 23/23/23
f 34/34/34 23/23/23 33/33/33
f 23/23/23 34/34/34 27/27/27
f 35/35/35 27/27/27 34/34/34
f 27/27/27 35/35/35 28/28/28
f 36/36/36 28/28/28 35/35/35
f 28/28/28 36/36/36 29/29/29
f 37/37/37 29/29/29 36/36/36
f 29/29/29 37/37/37 30/30/30
f 38/38/38 30/30/30 37/37/37
f 26/26/26 39/39/39 32/32/32
f 26/26/26 25/25/25 39/39/39
f 40/40/40 32/32/32 39/39/39
f 40/40/40 39/39/39 41/41/41
f 42/42/42 41/41/41 39/39/39
f 42/42/42 39/39/39 43/43/43
f 43/43/43 44/44/44 42/42/42
f 45/45/45 42/42/42 44/44/44
f 44/44/44 46/46/46 45/45/45
f 47/47/47 45/45/45 46/46/46
f 48/48/48 43/43/43 39/39/39
f 47/47/47 49/49/49 45/45/45
f 50/50/50 45/45/45 49/49/49
f 41/41/41 42/42/42 50/50/50
f 45/45/45 50/50/50 42/42/42
f 51/51/51 39/39/39 25/25/25
f 38/38/38 52/52/52 30/30/30
f 53/53/53 30/30/30 52/52/52
f 53/53/53 52/52/52 54/54/54
f 53/53/53 54/54/54 55/55/55
f 56/56/56 55/55/55 54/54/54
f 54/54/54 57/57/57 56/56/56
f 58/58/58 56/56/56 57/57/57
f 57/57/57 59/59/59 58/58/58
f 60/60/60 58/58/58 59/59/59
f 61/61/61 54/54/54 52/52/52
f 54/54/54 61/61/61 57/57/57
f 62/62/62 57/57/57 61/61/61
f 57/57/57 62/62/62 59/59/59
f 63/63/63 59/59/59 62/62/62
f 53/53/53 64/64/64 30/30/30
f 31/31/31 30/30/30 64/64/64
f 67/67/67 66/66/66 65/65/65
f 66/66/66 68/68/68 65/65/65
f 68/68/68 69/69/69 65/65/65
f 69/69/69 70/70/70 65/65/65
f 70/70/70 71/71/71 65/65/65
f 71/71/71 72/72/72 65/65/65
f 66/66/66 67/67/67 73/73/73
f 74/74/74 73/73/73 67/67/67
f 68/68/68 66/66/66 75/75/75
f 73/73/73 75/75/75 66/66/66
f 69/69/69 68/68/68 76/76/76
f 75/75/75 76/76/76 68/68/68
f 70/70/70 69/69/69 77/77/77
f 76/76/76 77/77/77 69/69/69
f 71/71/71 70/70/70 78/78/78
f 77/77/77 78/78/78 70/70/70
f 72/72/72 71/71/71 79/79/79
f 78/78/78 79/79/79 71/71/71
f 73/73/73 74/74/74 80/80/80
f 81/81/81 80/80/80 74/74/74
f 75/75/75 73/73/73 82/82/82
f 80/80/80 82/82/82 73/73/73
f 76/76/76 75/75/75 83/83/83
f 82/82/82 83/83/83 75/75/75
f 77/77/77 76/76/76 84/84/84
f 83/83/83 84/84/84 76/76/76
f 78/78/78 77/77/77 85/85/85
f 84/84/84 85/85/85 77/77/77
f 79/79/79 78/78/78 86/86/86
f 85/85/85 86/86/86 78/78/78
f 79/79/79 86/86/86 10/10/10
f 10/10/10 3/3/3 79/79/79
f 72/72/72 79/79/79 3/3/3
f 3/3/3 1/1/1 72/72/72
f 65/65/65 72/72/72 1/1/1
f 1/1/1 8/8/8 65/65/65
f 67/67/67 65/65/65 8/8/8
f 8/8/8 15/15/15 67/67/67
f 74/74/74 67/67/67 15/15/15
f 15/15/15 22/22/22 74/74/74
f 81/81/81 74/74/74 22/22/22
f 17/17/17 10/10/10 87/87/87
