g jugger_green_war_m_shoulderstrap
v 0.142246068 0.0759476274 1.87893593
v 0.131456703 -0.0357561372 1.88947141
v 0.133704469 0.075269863 1.8778981
v 0.140476376 -0.0369092375 1.89010751
v 0.128797978 0.172118902 1.82120788
v 0.140244544 0.174082175 1.82208121
v 0.120782427 -0.153385088 1.86554193
v 0.13124162 -0.153598651 1.86637795
v 0.11985404 -0.266570508 1.80417144
v 0.105182849 -0.269646704 1.8037082
v 0.159931824 0.0848760605 1.7317462
v 0.152079433 -0.0261591338 1.72889435
v 0.135714248 -0.0851361156 1.67316556
v 0.124059483 -0.135237351 1.6579684
v 0.105182849 -0.269646704 1.8037082
v 0.118182793 -0.116512433 1.59545255
v 0.118814968 -0.146674693 1.60698771
v 0.126611888 0.235152602 1.72564757
v 0.14124541 0.235827208 1.72755432
v 0.140244544 0.174082175 1.82208121
v 0.146966666 0.264330029 1.61547208
v 0.156879663 0.172922239 1.66360235
v 0.129131213 0.265103906 1.61271966
v 0.14810653 0.206720307 1.58971834
v 0.135733888 0.26118052 1.5189538
v 0.144872904 0.220310226 1.50054741
v 0.149118528 0.25614801 1.48773813
v 0.151980564 0.221790373 1.47553587
v 0.175687373 0.252671689 1.47175074
v 0.163294196 0.259726644 1.52210474
v 0.146966666 0.264330029 1.61547208
v 0.135733888 0.26118052 1.5189538
v 0.126611888 0.235152602 1.72564757
v 0.1717958 0.224334955 1.46092379
v 0.34332642 0.225745887 1.51091886
v 0.307124496 0.251237452 1.42190039
v 0.364560276 0.220801517 1.48416746
v 0.398109734 0.150869742 1.56091356
v 0.420544744 0.144974962 1.5362246
v 0.42682448 0.0421964787 1.58950102
v 0.444072783 0.0426186919 1.55603969
v 0.4024584 -0.0602766201 1.56931579
v 0.424142241 -0.0577121899 1.53688586
v 0.372617096 -0.121256024 1.49102342
v 0.338745803 -0.143763587 1.50515449
v 0.298152983 -0.162948623 1.42188776
v 0.252360433 -0.142930374 1.56069243
v 0.135161057 -0.162726626 1.48122323
v 0.118814968 -0.146674693 1.60698771
v 0.153512076 -0.125950262 1.65653801
v 0.124059483 -0.135237351 1.6579684
v 0.11985404 -0.266570508 1.80417144
v 0.105182849 -0.269646704 1.8037082
v 0.264535844 -0.0993357822 1.65989625
v 0.169790134 -0.0668648332 1.73894835
v 0.13124162 -0.153598651 1.86637795
v 0.11985404 -0.266570508 1.80417144
v 0.140476376 -0.0369092375 1.89010751
v 0.177045017 -0.0188449714 1.77672029
v 0.276230335 -0.0405495539 1.71999228
v 0.180931926 0.0420510098 1.79764223
v 0.142246068 0.0759476274 1.87893593
v 0.180539578 0.107097238 1.78321469
v 0.140244544 0.174082175 1.82208121
v 0.283780038 0.106234349 1.73936188
v 0.284171522 0.0249495152 1.74819851
v 0.177272186 0.156972021 1.74127638
v 0.14124541 0.235827208 1.72755432
v 0.169928968 0.20083122 1.6644336
v 0.271123797 0.179905012 1.67612267
v 0.146966666 0.264330029 1.61547208
v 0.160334647 0.234694213 1.57141459
v 0.257886827 0.22984983 1.56133723
v 0.175687373 0.252671689 1.47175074
v 0.163294196 0.259726644 1.52210474
v 0.146966666 0.264330029 1.61547208
v 0.1717958 0.224334955 1.46092379
v 0.304895133 0.224080712 1.41151714
v 0.304270118 0.110062331 1.75049591
v 0.287731588 0.193206862 1.68467629
v 0.269233137 0.242216468 1.57211757
v 0.350546479 0.237678811 1.52690196
v 0.405648947 0.162254274 1.57828379
v 0.348143637 0.180395156 1.64234972
v 0.437633783 0.0410342477 1.60855222
v 0.381229401 0.0445033237 1.69393158
v 0.30509007 0.024995517 1.76258361
v 0.297299802 -0.0511868559 1.734519
v 0.282866746 -0.116173573 1.6697216
v 0.266841501 -0.159502119 1.57511199
v 0.346971512 -0.163887799 1.52316666
v 0.35579291 -0.0836672783 1.65255785
v 0.346971512 -0.163887799 1.52316666
v 0.412208855 -0.0722838119 1.587098
v 0.260366142 -0.0736472979 1.46656859
v 0.212597594 0.13089481 1.62040281
v 0.207390487 -0.0545142367 1.60828018
v 0.265630275 0.181056231 1.48154807
v 0.152079433 -0.0261591338 1.72889435
v 0.135714248 -0.0851361156 1.67316556
v 0.159931824 0.0848760605 1.7317462
v 0.118182793 -0.116512433 1.59545255
v 0.156879663 0.172922239 1.66360235
v 0.14810653 0.206720307 1.58971834
v 0.1717958 0.224334955 1.46092379
v 0.190823659 -0.099789843 1.49963677
v 0.236691892 -0.0937509909 1.45969951
v 0.1717958 0.224334955 1.46092379
v 0.131848812 -0.132480443 1.47165966
v 0.330264479 0.173830956 1.41591311
v 0.320858836 -0.0667328238 1.40304863
v 0.39195326 0.114441849 1.45381558
v 0.362294793 -0.0415968373 1.43035626
v 0.374262869 -0.0448032655 1.40849769
v 0.309062123 -0.082958363 1.36423087
v 0.418819338 0.0473625064 1.46773338
v 0.405925542 0.00299883587 1.45662975
v 0.43339619 0.049489554 1.44998002
v 0.41730991 -0.000123910897 1.43869722
v 0.403153688 0.120153025 1.43210351
v 0.326481521 0.186997771 1.38152313
v 0.236691892 -0.0937509909 1.45969951
v 0.239678055 0.200104505 1.46399808
v 0.1717958 0.224334955 1.46092379
v 0.144872904 0.220310226 1.50054741
v 0.1717958 0.224334955 1.46092379
v 0.151980564 0.221790373 1.47553587
v 0.144872904 0.220310226 1.50054741
v 0.417170703 -0.047815077 1.5231595
v 0.366120279 -0.0987751931 1.47747993
v 0.436958998 0.0429766662 1.53980863
v 0.296086997 -0.130245924 1.41291833
v 0.412691057 0.131703272 1.51718628
v 0.359852374 0.19726558 1.46753764
v 0.436958998 0.0429766662 1.53980863
v 0.304895133 0.224080712 1.41151714
v 0.131848812 -0.132480443 1.47165966
v 0.135161057 -0.162726626 1.48122323
v 0.296086997 -0.130245924 1.41291833
v 0.359598488 -0.0185975172 1.53958595
v 0.436958998 0.0429766662 1.53980863
v 0.379257619 0.0461806953 1.54747581
v 0.417170703 -0.047815077 1.5231595
v 0.412691057 0.131703272 1.51718628
v 0.369395137 0.111498505 1.53256691
v 0.366120279 -0.0987751931 1.47747993
v 0.311745018 -0.072395362 1.49719048
v 0.296086997 -0.130245924 1.41291833
v 0.255390376 -0.108524814 1.45856452
v 0.131848812 -0.132480443 1.47165966
v 0.190823659 -0.099789843 1.49963677
v 0.326121449 0.160668001 1.51720285
v 0.359852374 0.19726558 1.46753764
v 0.276472598 0.211706862 1.44845712
v 0.304895133 0.224080712 1.41151714
v 0.1717958 0.224334955 1.46092379
v 0.1717958 0.224334955 1.46092379
v 0.239678055 0.200104505 1.46399808
v 0.276472598 0.211706862 1.44845712
v 0.190823659 -0.099789843 1.49963677
v 0.255390376 -0.108524814 1.45856452
v 0.236691892 -0.0937509909 1.45969951
v 0.311745018 -0.072395362 1.49719048
v 0.315555602 -0.0984598324 1.37944901
v 0.375300288 -0.0620978922 1.42160964
v 0.359598488 -0.0185975172 1.53958595
v 0.424488246 -0.0094189737 1.45453918
v 0.379257619 0.0461806953 1.54747581
v 0.440687299 0.0479769893 1.46668196
v 0.43339619 0.049489554 1.44998002
v 0.409083784 0.130830884 1.44963455
v 0.403153688 0.120153025 1.43210351
v 0.333562046 0.202506021 1.39797163
v 0.326481521 0.186997771 1.38152313
v 0.41730991 -0.000123910897 1.43869722
v 0.369395137 0.111498505 1.53256691
v 0.379257619 0.0461806953 1.54747581
v 0.326121449 0.160668001 1.51720285
v 0.276472598 0.211706862 1.44845712
v 0.239678055 0.200104505 1.46399808
v 0.374262869 -0.0448032655 1.40849769
v 0.309062123 -0.082958363 1.36423087
v 0.236691892 -0.0937509909 1.45969951
v 0.236691892 -0.0937509909 1.45969951
v 0.135161057 -0.162726626 1.48122323
v 0.131848812 -0.132480443 1.47165966
v -0.113286801 -0.0974178463 1.64792311
v -0.345317036 0.0119880158 1.5231446
v -0.320472091 -0.0245707892 1.50736785
v -0.113286801 -0.0974178463 1.64792311
v -0.137480661 -0.0425100885 1.71229577
v -0.147739619 0.0310944375 1.74159288
v -0.355506003 0.0618984066 1.53168988
v -0.121646114 -0.115843751 1.58866453
v -0.291607201 -0.0457200743 1.48895729
v -0.12153057 0.102712341 1.71782005
v -0.334671676 0.108911343 1.52683127
v -0.0854814723 0.155744657 1.6575532
v -0.302364558 0.140294924 1.51363933
v -0.269451141 0.156006306 1.49663079
v -0.0891596377 0.17993933 1.5999161
v -0.0997627079 0.187539518 1.53151917
v -0.22933729 0.160164028 1.47052789
v -0.253134042 -0.0565016977 1.46228623
v -0.133080155 -0.115809113 1.51998007
v -0.121646114 -0.115843751 1.58866453
v -0.136175767 -0.133546248 1.5963608
v -0.133080155 -0.115809113 1.51998007
v -0.147395879 -0.134079829 1.5287745
v -0.121646114 -0.115843751 1.58866453
v -0.21827504 -0.117595091 1.58732247
v -0.260720313 -0.0977047682 1.55143642
v -0.306521982 -0.0730469152 1.59409332
v -0.264416277 -0.0922412276 1.63590252
v -0.328298301 -0.0217125025 1.62208116
v -0.287164748 -0.0340263173 1.67211366
v -0.331308663 0.0551574901 1.63903368
v -0.290468961 0.0486091524 1.69326258
v -0.218165979 -0.10163676 1.65569448
v -0.233544096 -0.0427782722 1.70827556
v -0.239522502 0.0414070226 1.73549736
v -0.153581545 -0.0523941331 1.73052275
v -0.162440255 0.0318875089 1.76318967
v -0.137480661 -0.0425100885 1.71229577
v -0.147739619 0.0310944375 1.74159288
v -0.113286801 -0.0974178463 1.64792311
v -0.128973469 -0.111248612 1.65994871
v -0.3730461 0.0632524937 1.54673743
v -0.361946017 0.0027203965 1.53633177
v -0.355506003 0.0618984066 1.53168988
v -0.345317036 0.0119880158 1.5231446
v -0.334354937 -0.0411288738 1.5162127
v -0.320472091 -0.0245707892 1.50736785
v -0.300583422 -0.0662721321 1.4935559
v -0.291607201 -0.0457200743 1.48895729
v -0.263739318 -0.0774509013 1.46891785
v -0.253134042 -0.0565016977 1.46228623
v -0.253134042 -0.0565016977 1.46228623
v -0.133080155 -0.115809113 1.51998007
v -0.349005014 0.120546073 1.54081368
v -0.311569631 0.130598202 1.62787473
v -0.278954953 0.177945271 1.60364068
v -0.234036252 0.184363663 1.64642417
v -0.268921018 0.129909113 1.67863274
v -0.187013686 0.181998879 1.666484
v -0.215215966 0.124095552 1.71462321
v -0.312401056 0.158756584 1.52381623
v -0.334671676 0.108911343 1.52683127
v -0.302364558 0.140294924 1.51363933
v -0.273797214 0.17761071 1.50283289
v -0.269451141 0.156006306 1.49663079
v -0.235204235 0.182355493 1.47880077
v -0.22933729 0.160164028 1.47052789
v -0.228547662 0.195220888 1.56257915
v -0.183097675 0.202687755 1.5995059
v -0.0995700732 0.199741244 1.60903883
v -0.0978962108 0.17170392 1.67071199
v -0.0891596377 0.17993933 1.5999161
v -0.0997627079 0.187539518 1.53151917
v -0.10985022 0.207765728 1.54177821
v -0.22933729 0.160164028 1.47052789
v -0.0997627079 0.187539518 1.53151917
v -0.0854814723 0.155744657 1.6575532
v -0.135256246 0.114454322 1.73686945
v -0.12153057 0.102712341 1.71782005
v -0.0854814723 0.155744657 1.6575532
v -0.12153057 0.102712341 1.71782005
v -0.121646114 -0.115843751 1.58866453
v -0.113286801 -0.0974178463 1.64792311
v -0.355506003 0.0618984066 1.53168988
v -0.245990321 0.0252018329 1.66898584
v -0.352185637 0.102006003 1.47826886
v -0.23549749 0.0876957327 1.66723883
v -0.362678438 0.0395120829 1.48001564
v -0.332175523 -0.0183714107 1.45679688
v -0.215487406 -0.0326816253 1.64576721
v -0.187768668 -0.0512744896 1.62724304
v -0.304456711 -0.0369642824 1.43827271
v -0.187987536 0.131103575 1.64118922
v -0.304675639 0.145413861 1.45221889
v -0.272576898 0.152907342 1.43296564
v -0.155888826 0.138597041 1.62193596
v -0.155767769 -0.0637940466 1.60645521
v -0.272385299 -0.0494925007 1.4175992
v -0.238362864 0.153140441 1.41193545
v -0.121745266 0.138838798 1.60079157
v -0.235543996 0.0278276317 1.66273439
v -0.226537526 0.0814690068 1.66123474
v -0.183113411 -0.0398999378 1.62522972
v -0.207959786 -0.0235841889 1.64180779
v -0.27190724 0.140544742 1.43161583
v -0.300565571 0.134157002 1.44882834
v -0.183877468 0.119846724 1.63779879
v -0.155219108 0.126234427 1.62058616
v -0.343225628 0.0957792848 1.47226465
v -0.152080283 -0.052122578 1.60506225
v -0.238699108 0.140847132 1.41121209
v -0.122081563 0.126545504 1.60006833
v -0.352232128 0.0421378799 1.47376382
v -0.324647903 -0.00927396771 1.45283747
v -0.299801528 -0.0255897231 1.43625939
v -0.268697858 -0.0378210023 1.416206
v -0.352232128 0.0421378799 1.47376382
v -0.226537526 0.0814690068 1.66123474
v -0.343225628 0.0957792848 1.47226465
v -0.235543996 0.0278276317 1.66273439
v -0.207959786 -0.0235841889 1.64180779
v -0.324647903 -0.00927396771 1.45283747
v -0.299801528 -0.0255897231 1.43625939
v -0.183113411 -0.0398999378 1.62522972
v -0.300565571 0.134157002 1.44882834
v -0.183877468 0.119846724 1.63779879
v -0.155219108 0.126234427 1.62058616
v -0.27190724 0.140544742 1.43161583
v -0.268697858 -0.0378210023 1.416206
v -0.152080283 -0.052122578 1.60506225
v -0.122081563 0.126545504 1.60006833
v -0.238699108 0.140847132 1.41121209
v -0.268697858 -0.0378210023 1.416206
v -0.155767769 -0.0637940466 1.60645521
v -0.152080283 -0.052122578 1.60506225
v -0.272385299 -0.0494925007 1.4175992
v -0.122081563 0.126545504 1.60006833
v -0.238362864 0.153140441 1.41193545
v -0.238699108 0.140847132 1.41121209
v -0.121745266 0.138838798 1.60079157
vt 0.77959162 0.981718361
vt 0.84865737 0.983389616
vt 0.781270206 0.971364915
vt 0.849395812 0.994777203
vt 0.720605969 0.909404039
vt 0.71588999 0.920228004
vt 0.921141684 0.959102929
vt 0.922514558 0.971736908
vt 0.996113598 0.90739888
vt 0.995015979 0.888780296
vt 0.772058725 0.7857306
vt 0.843039274 0.781098425
vt 0.883498311 0.715138435
vt 0.915572822 0.698707044
vt 0.995015979 0.888780296
vt 0.906335354 0.618802726
vt 0.924449384 0.635374129
vt 0.676824629 0.801019907
vt 0.669581771 0.812079728
vt 0.71588999 0.920228004
vt 0.637532473 0.679724932
vt 0.712305903 0.709885359
vt 0.647707283 0.670826495
vt 0.681344986 0.62536788
vt 0.637352049 0.559372425
vt 0.656835496 0.519361436
vt 0.632688761 0.521265507
vt 0.647100389 0.487631917
vt 0.620444953 0.492625177
vt 0.620864868 0.561797142
vt 0.637532473 0.679724932
vt 0.637352049 0.559372425
vt 0.676824629 0.801019907
vt 0.635247052 0.464587331
vt 0.420130283 0.413704187
vt 0.475144774 0.365250587
vt 0.417181164 0.370572388
vt 0.351975322 0.400618404
vt 0.348088175 0.359530628
vt 0.27766028 0.400355607
vt 0.277881145 0.353779703
vt 0.208969027 0.40298298
vt 0.208989769 0.355474323
vt 0.148158118 0.368575484
vt 0.129465848 0.413191497
vt 0.077703014 0.370388627
vt 0.114108719 0.55010736
vt 0.026401097 0.570029199
vt 0.0749264061 0.708027899
vt 0.11987827 0.732243299
vt 0.101575673 0.745233595
vt 0.0758183748 0.980791926
vt 0.0663896948 0.981733739
vt 0.170302927 0.638578475
vt 0.181450665 0.798897803
vt 0.155694589 0.994112253
vt 0.0758183748 0.980791926
vt 0.228958338 0.980513752
vt 0.226271287 0.828622341
vt 0.22044006 0.684184492
vt 0.276129484 0.841350496
vt 0.29767698 0.953693569
vt 0.32657373 0.826473594
vt 0.365718246 0.90399617
vt 0.318321168 0.688299477
vt 0.266295999 0.699531794
vt 0.370803893 0.789382219
vt 0.426819503 0.821104348
vt 0.422498167 0.723542392
vt 0.375956923 0.640723228
vt 0.476618111 0.709873497
vt 0.474452734 0.640111148
vt 0.440175533 0.540869057
vt 0.515237093 0.531940579
vt 0.503258467 0.599526823
vt 0.476618111 0.709873497
vt 0.53159982 0.511209249
vt 0.491746813 0.349899292
vt 0.31581375 0.665699661
vt 0.373018414 0.620116651
vt 0.434097409 0.534641922
vt 0.416927755 0.426359832
vt 0.353611588 0.425689667
vt 0.362389088 0.533119261
vt 0.276855022 0.42464146
vt 0.278123736 0.549352348
vt 0.268618643 0.674093008
vt 0.224592268 0.656875432
vt 0.175528437 0.613645196
vt 0.124445572 0.541729391
vt 0.13179563 0.428454936
vt 0.202475816 0.535737216
vt 0.13179563 0.428454936
vt 0.207505524 0.429029077
vt 0.568861127 0.813264012
vt 0.50382638 0.908385754
vt 0.560540795 0.907417774
vt 0.490573168 0.813610673
vt 0.550788283 0.989203095
vt 0.57333374 0.964712799
vt 0.51663667 0.98615551
vt 0.592478096 0.927604139
vt 0.488144368 0.948545635
vt 0.471919894 0.910533965
vt 0.459372818 0.833034754
vt 0.5849635 0.85335511
vt 0.577917099 0.819645762
vt 0.459372818 0.833034754
vt 0.607351303 0.855395257
vt 0.493322611 0.753749669
vt 0.568531871 0.755114913
vt 0.511331499 0.707645476
vt 0.558872998 0.724483609
vt 0.564580381 0.71481967
vt 0.581860721 0.751925826
vt 0.530801773 0.688316584
vt 0.544136941 0.695666671
vt 0.529993594 0.675403893
vt 0.547737479 0.685257494
vt 0.506253183 0.697196424
vt 0.482674122 0.746010602
vt 0.577917099 0.819645762
vt 0.479340672 0.814947128
vt 0.459372818 0.833034754
vt 0.458868325 0.861826777
vt 0.459372818 0.833034754
vt 0.457320124 0.845931172
vt 0.458868325 0.861826777
vt 0.209742099 0.33382529
vt 0.148837939 0.334745169
vt 0.278251201 0.332260162
vt 0.0832878575 0.326436102
vt 0.347056776 0.329905182
vt 0.416120619 0.334209502
vt 0.278251201 0.332260162
vt 0.471074164 0.326532602
vt 0.0092404997 0.549217641
vt 0.026401097 0.570029199
vt 0.0585753471 0.351395756
vt 0.564998806 0.49386853
vt 0.540856361 0.531835973
vt 0.55886662 0.533968627
vt 0.547088146 0.473175079
vt 0.547986388 0.590311587
vt 0.561495662 0.575327516
vt 0.56354481 0.430221856
vt 0.579894245 0.452030092
vt 0.587388515 0.388914973
vt 0.598262072 0.422879517
vt 0.63708812 0.432399988
vt 0.616908073 0.452915609
vt 0.575297475 0.605190277
vt 0.56422168 0.642807424
vt 0.58992058 0.658583105
vt 0.58116889 0.682871521
vt 0.622472107 0.651759028
vt 0.361401945 0.247371078
vt 0.344307631 0.164042115
vt 0.321918637 0.138290033
vt 0.0059837671 0.247389585
vt 0.0358819552 0.170696497
vt 0.0212851185 0.176605418
vt 0.0842844099 0.179522097
vt 0.0471586064 0.0554248467
vt 0.0963352248 0.0554248467
vt 0.136640415 0.194247186
vt 0.144251257 0.0554248467
vt 0.180051744 0.188169882
vt 0.180063426 0.0554248467
vt 0.181206897 0.0308783501
vt 0.234140411 0.0554248467
vt 0.234209955 0.0308783501
vt 0.304328769 0.0554248467
vt 0.309521586 0.0308783501
vt 0.144298777 0.0308783501
vt 0.222971976 0.177364781
vt 0.180051744 0.188169882
vt 0.26451841 0.186148271
vt 0.321918637 0.138290033
vt 0.344307631 0.164042115
vt 0.0985511392 0.0308783501
vt 0.0405078754 0.0308783501
vt 0.0212851185 0.176605418
vt 0.0212851185 0.176605418
vt 0.938982666 0.478187442
vt 0.920504808 0.464576423
vt 0.80373323 0.627697587
vt 0.719340086 0.678456903
vt 0.730754018 0.696324706
vt 0.80373323 0.627697587
vt 0.792372227 0.577792943
vt 0.777995348 0.537266612
vt 0.707726121 0.656415641
vt 0.801250041 0.666505814
vt 0.740653276 0.711457372
vt 0.760841966 0.501449347
vt 0.699066937 0.629371405
vt 0.738600016 0.469993144
vt 0.692398787 0.603456736
vt 0.686791182 0.581044436
vt 0.719310284 0.468107969
vt 0.698039353 0.473319978
vt 0.678931594 0.555791378
vt 0.751536071 0.731586218
vt 0.794967771 0.708010614
vt 0.801250041 0.666505814
vt 0.641345978 0.137290969
vt 0.600741982 0.195837483
vt 0.613860905 0.21712108
vt 0.630650222 0.118580759
vt 0.669920862 0.226272687
vt 0.67931205 0.300819963
vt 0.718517005 0.300483316
vt 0.710936069 0.226057336
vt 0.753373623 0.302281111
vt 0.75088197 0.222027421
vt 0.798236907 0.299916536
vt 0.798134267 0.216960073
vt 0.701847613 0.168568954
vt 0.747272253 0.143780351
vt 0.797997236 0.137721568
vt 0.736994326 0.0435010828
vt 0.797831059 0.0372872278
vt 0.732414842 0.0151935387
vt 0.797783196 0.00855683722
vt 0.667114854 0.0522044301
vt 0.675174356 0.0736803785
vt 0.79845351 0.427405268
vt 0.756028652 0.42246744
vt 0.798497319 0.454100728
vt 0.75465095 0.450751752
vt 0.717959046 0.412088335
vt 0.715930223 0.440754443
vt 0.68558681 0.399621755
vt 0.684204876 0.428574651
vt 0.655340254 0.389710784
vt 0.651242793 0.421923071
vt 0.641322672 0.402879238
vt 0.600277901 0.233655453
vt 0.840866148 0.421929121
vt 0.843117058 0.301741451
vt 0.877984226 0.299458951
vt 0.885334611 0.224936128
vt 0.845399022 0.220982358
vt 0.89423871 0.167308286
vt 0.848739982 0.143116489
vt 0.878909528 0.411041468
vt 0.842336297 0.450189799
vt 0.881032228 0.439677894
vt 0.911246777 0.398130983
vt 0.912723839 0.427063286
vt 0.941462696 0.387805969
vt 0.945665121 0.419961601
vt 0.917195976 0.299249291
vt 0.926347077 0.224574655
vt 0.954629719 0.135199875
vt 0.920597792 0.0720483139
vt 0.965264916 0.116345853
vt 0.995422721 0.19319886
vt 0.982372701 0.214657366
vt 0.955523968 0.400781721
vt 0.99600935 0.231006294
vt 0.928586543 0.0504617244
vt 0.858685017 0.0426952206
vt 0.863170207 0.0143248495
vt 0.928586543 0.0504617244
vt 0.863170207 0.0143248495
vt 0.630650222 0.118580759
vt 0.667114854 0.0522044301
vt 0.798497319 0.454100728
vt 0.498245716 0.301513255
vt 0.460482657 0.0195995644
vt 0.46045047 0.301513255
vt 0.498245716 0.0195995644
vt 0.540207744 0.0195995644
vt 0.540176332 0.301513255
vt 0.563181818 0.301513255
vt 0.563214362 0.0195995644
vt 0.418547869 0.301513255
vt 0.418579549 0.0195995644
vt 0.395573944 0.0195995644
vt 0.395541161 0.301513255
vt 0.588030994 0.301513255
vt 0.588063896 0.0195995644
vt 0.370724797 0.0195995644
vt 0.370692134 0.301513255
vt 0.498245716 0.316913456
vt 0.460538387 0.316913456
vt 0.562940478 0.316913456
vt 0.539948046 0.316913456
vt 0.395815343 0.0041983854
vt 0.418806821 0.0041983854
vt 0.418770909 0.316913456
vt 0.395778149 0.316913456
vt 0.460568994 0.0041983854
vt 0.587835133 0.316913456
vt 0.370920569 0.0041983854
vt 0.370883405 0.316913456
vt 0.498245716 0.0041983854
vt 0.539983571 0.0041983854
vt 0.562977016 0.0041983854
vt 0.587872148 0.0041983854
vt 0.811706185 0.597133219
vt 0.880385876 0.563117325
vt 0.811706305 0.563112974
vt 0.880385756 0.59713906
vt 0.880384445 0.635895312
vt 0.811704457 0.635888875
vt 0.811702967 0.65716809
vt 0.880383492 0.657176197
vt 0.811705589 0.524358571
vt 0.880386591 0.524359882
vt 0.880386591 0.503078341
vt 0.811706543 0.503077865
vt 0.811723709 0.681539416
vt 0.880361855 0.681547701
vt 0.88036561 0.478707492
vt 0.811726987 0.478705555
vt 0.595766127 0.0195995644
vt 0.588030994 0.301513255
vt 0.595732987 0.301513255
vt 0.588063896 0.0195995644
vt 0.362989098 0.301513255
vt 0.370724797 0.0195995644
vt 0.363022655 0.0195995644
vt 0.370692134 0.301513255
vn 0.3908436 0.280470371 0.87668556
vn -0.786218822 0.0492334552 0.615983844
vn -0.821089208 0.163883656 0.546767473
vn 0.641311169 -0.15759325 0.750922382
vn -0.599736333 0.538017809 0.592328548
vn 0.552756429 0.577938616 0.600372612
vn -0.746618807 -0.110119753 0.656074643
vn 0.731765866 -0.3398242 0.590794623
vn 0.458769202 -0.870051026 0.180394232
vn -0.561054707 -0.811360538 0.164047673
vn -0.956672192 -0.129228085 -0.26091817
vn -0.943452001 0.204231858 -0.261128038
vn -0.887189925 0.449216753 -0.105348803
vn -0.846835017 -0.479650676 -0.229794994
vn -0.561054707 -0.811360538 0.164047673
vn -0.902786374 0.41856581 -0.0988907069
vn -0.443990916 -0.877922118 0.179233983
vn -0.826697946 0.54055649 0.156106919
vn 0.4564417 0.797712624 0.394101024
vn 0.552756429 0.577938616 0.600372612
vn 0.565599442 0.807707608 0.166450039
vn -0.881731272 -0.409367681 -0.23445259
vn -0.802734137 0.59632498 -0.003787308
vn -0.802415788 -0.583534718 -0.124964558
vn -0.866380513 0.46008122 -0.194190815
vn -0.766263664 -0.601026535 -0.22717157
vn -0.618545592 0.616287947 -0.48743245
vn -0.708167136 -0.133008331 -0.693403304
vn -0.0508936346 0.901976049 -0.428776175
vn 0.433314025 0.901234806 0.00383599964
vn 0.565599442 0.807707608 0.166450039
vn -0.866380513 0.46008122 -0.194190815
vn -0.826697946 0.54055649 0.156106919
vn -0.375749737 -0.63390398 -0.67600137
vn 0.301500529 0.933009923 -0.196443617
vn 0.297085047 0.815571189 -0.496572286
vn 0.746497333 0.662338793 -0.0636311099
vn 0.885273635 0.463576645 -0.0372462161
vn 0.924316347 0.381055266 -0.0208886564
vn 0.995979667 0.0894547477 0.00472093653
vn 0.997902393 -0.0336548351 -0.0553001389
vn 0.921635449 -0.380053461 -0.078405641
vn 0.919115603 -0.389364272 -0.0601826236
vn 0.785516083 -0.566091239 -0.250010282
vn 0.282604903 -0.919127643 -0.274478942
vn 0.298655123 -0.754900932 -0.583891928
vn -0.0995447263 -0.983680069 0.149880946
vn -0.637660623 -0.733024001 -0.23677972
vn -0.443990916 -0.877922118 0.179233983
vn 0.515297949 -0.842653692 0.15621379
vn -0.846835017 -0.479650676 -0.229794994
vn 0.458769202 -0.870051026 0.180394232
vn -0.561054707 -0.811360538 0.164047673
vn -0.313608289 -0.769988537 0.555668533
vn 0.684448659 -0.561146855 0.465450674
vn 0.731765866 -0.3398242 0.590794623
vn 0.458769202 -0.870051026 0.180394232
vn 0.641311169 -0.15759325 0.750922382
vn 0.639545262 -0.404714853 0.653595984
vn -0.199960038 -0.561325431 0.803075135
vn 0.724973083 -0.0106706703 0.688694477
vn 0.3908436 0.280470371 0.87668556
vn 0.726509511 0.330471218 0.602472186
vn 0.552756429 0.577938616 0.600372612
vn -0.0291772336 0.42787981 0.903364539
vn -0.173702568 -0.151404426 0.973089993
vn 0.617800415 0.613720357 0.491599411
vn 0.4564417 0.797712624 0.394101024
vn 0.582826436 0.756402016 0.296933353
vn -0.307681292 0.770328581 0.558503449
vn 0.565599442 0.807707608 0.166450039
vn 0.71760416 0.661220133 0.218705833
vn -0.0937902555 0.981505811 0.166882828
vn -0.0508936346 0.901976049 -0.428776175
vn 0.433314025 0.901234806 0.00383599964
vn 0.565599442 0.807707608 0.166450039
vn -0.375749737 -0.63390398 -0.67600137
vn 0.0705815554 -0.482501835 -0.873046517
vn 0.0839513019 0.377738953 0.922098339
vn -0.218431652 0.72820884 0.64961493
vn -0.293023258 0.953110993 0.0756093934
vn 0.613082111 0.762376249 -0.207153872
vn 0.928298771 0.371754557 -0.00773555739
vn 0.577345788 0.655613899 0.486664444
vn 0.996927559 -0.0736314282 0.0267161373
vn 0.770362675 0.0372278951 0.636518121
vn 0.0702231079 -0.107344516 0.991738856
vn -0.00312590669 -0.492359102 0.870386541
vn -0.295052111 -0.739027739 0.60562551
vn -0.359051436 -0.929609537 0.0831153095
vn 0.60610491 -0.757131755 -0.243697256
vn 0.598535657 -0.599646807 0.531205058
vn 0.60610491 -0.757131755 -0.243697256
vn 0.922433376 -0.384976149 -0.0301654637
vn -0.756923199 0.403724998 -0.51388073
vn -0.848776281 -0.338064939 -0.406559885
vn -0.73126334 0.579283535 -0.360117257
vn -0.61952883 -0.57354188 -0.535941899
vn -0.943452001 0.204231858 -0.261128038
vn -0.887189925 0.449216753 -0.105348803
vn -0.956672192 -0.129228085 -0.26091817
vn -0.902786374 0.41856581 -0.0988907069
vn -0.881731272 -0.409367681 -0.23445259
vn -0.802415788 -0.583534718 -0.124964558
vn -0.375749737 -0.63390398 -0.67600137
vn -0.522942901 0.712441742 -0.467928946
vn -0.737303972 0.104048789 -0.667500436
vn -0.375749737 -0.63390398 -0.67600137
vn -0.566081882 0.409326345 -0.715544045
vn -0.498552948 -0.577720225 -0.646285057
vn -0.245381072 0.678406775 -0.692497134
vn -0.0674764663 -0.350321472 -0.934195757
vn 0.0341708176 0.562576115 -0.826039016
vn 0.280055553 0.432469755 -0.857052326
vn -0.341340005 0.371622831 -0.863355935
vn -0.15813297 0.0279449504 -0.98702234
vn -0.471117258 0.475832194 -0.742719531
vn 0.146644995 0.0166120511 -0.989049673
vn 0.190043628 0.310247481 -0.931466579
vn 0.18882595 -0.33394599 -0.923485219
vn -0.418873399 0.0321255885 -0.907476187
vn -0.737303972 0.104048789 -0.667500436
vn -0.440643728 -0.628525496 -0.64092809
vn -0.375749737 -0.63390398 -0.67600137
vn -0.766263664 -0.601026535 -0.22717157
vn -0.375749737 -0.63390398 -0.67600137
vn -0.708167136 -0.133008331 -0.693403304
vn -0.766263664 -0.601026535 -0.22717157
vn 0.641910255 0.0443307683 -0.765497327
vn 0.48470062 0.299723029 -0.821724653
vn 0.351474732 0.0283069685 -0.93576926
vn 0.047825966 0.519541562 -0.853105724
vn 0.354117572 -0.208040521 -0.911767483
vn 0.557368994 -0.296516925 -0.775511086
vn 0.351474732 0.0283069685 -0.93576926
vn 0.0705815554 -0.482501835 -0.873046517
vn -0.566081882 0.409326345 -0.715544045
vn -0.637660623 -0.733024001 -0.23677972
vn 0.047825966 0.519541562 -0.853105724
vn 0.598394692 -0.0758189261 -0.797605932
vn 0.351474732 0.0283069685 -0.93576926
vn 0.794521928 -0.332039714 -0.508413732
vn 0.641910255 0.0443307683 -0.765497327
vn 0.354117572 -0.208040521 -0.911767483
vn 0.923311472 0.340284705 -0.178051159
vn 0.48470062 0.299723029 -0.821724653
vn 0.763236284 -0.165955707 -0.624442935
vn 0.047825966 0.519541562 -0.853105724
vn -0.424620777 0.116186619 -0.897885144
vn -0.566081882 0.409326345 -0.715544045
vn -0.522942901 0.712441742 -0.467928946
vn 0.712132752 0.236810043 -0.66089946
vn 0.557368994 -0.296516925 -0.775511086
vn -0.247244403 -0.284351766 -0.926290572
vn 0.0705815554 -0.482501835 -0.873046517
vn -0.375749737 -0.63390398 -0.67600137
vn -0.375749737 -0.63390398 -0.67600137
vn -0.440643728 -0.628525496 -0.64092809
vn -0.247244403 -0.284351766 -0.926290572
vn -0.522942901 0.712441742 -0.467928946
vn -0.424620777 0.116186619 -0.897885144
vn -0.737303972 0.104048789 -0.667500436
vn 0.763236284 -0.165955707 -0.624442935
vn 0.240586117 -0.879707277 -0.410162628
vn 0.713552117 -0.684143484 -0.150967315
vn 0.598394692 -0.0758189261 -0.797605932
vn 0.911567509 -0.411111414 0.00565958768
vn 0.794521928 -0.332039714 -0.508413732
vn 0.974325359 0.0981447622 0.202627003
vn 0.146644995 0.0166120511 -0.989049673
vn 0.845494628 0.533644021 -0.0190484915
vn 0.18882595 -0.33394599 -0.923485219
vn 0.525377274 0.806999087 -0.269687295
vn -0.418873399 0.0321255885 -0.907476187
vn 0.190043628 0.310247481 -0.931466579
vn 0.923311472 0.340284705 -0.178051159
vn 0.794521928 -0.332039714 -0.508413732
vn 0.712132752 0.236810043 -0.66089946
vn -0.247244403 -0.284351766 -0.926290572
vn -0.440643728 -0.628525496 -0.64092809
vn 0.280055553 0.432469755 -0.857052326
vn -0.341340005 0.371622831 -0.863355935
vn -0.737303972 0.104048789 -0.667500436
vn -0.737303972 0.104048789 -0.667500436
vn -0.637660623 -0.733024001 -0.23677972
vn -0.566081882 0.409326345 -0.715544045
vn 0.979208291 0.202643111 -0.00932506472
vn 0.146698788 0.37952736 -0.91347599
vn -0.010922702 0.541658938 -0.840527415
vn 0.979208291 0.202643111 -0.00932506472
vn 0.974093854 0.140737161 0.17701456
vn 0.97385639 -0.0149748558 -0.226670355
vn -0.112871625 -0.0271819755 -0.993237615
vn 0.93175149 0.350482643 -0.0948735699
vn -0.243771076 0.566038609 -0.787512481
vn 0.922457814 -0.385380685 -0.0235243142
vn -0.0602843612 -0.288336128 -0.955629647
vn 0.836005151 -0.540537298 -0.0944179371
vn -0.230833948 -0.30120942 -0.925196528
vn -0.131905034 -0.705403328 -0.696424484
vn 0.987493575 -0.130860344 -0.0879312381
vn 0.908004522 -0.169536203 -0.383125663
vn 0.0920367241 0.0511696301 -0.994440079
vn 0.231150329 0.331652135 -0.914645493
vn 0.814920545 -0.366808116 -0.448727548
vn 0.93175149 0.350482643 -0.0948735699
vn 0.345194966 -0.933824778 0.093869701
vn 0.814920545 -0.366808116 -0.448727548
vn 0.0601120926 -0.89763248 -0.436626077
vn 0.93175149 0.350482643 -0.0948735699
vn -0.322628915 -0.94380182 0.0717545375
vn -0.452630788 -0.884665608 -0.111768894
vn -0.672976732 -0.730321944 0.117184155
vn -0.540663898 -0.744530082 0.391608775
vn -0.837911725 -0.357173711 0.41271171
vn -0.652279198 -0.408742219 0.638327241
vn -0.83041209 0.0701997802 0.552709401
vn -0.669172466 0.0450875498 0.741738021
vn -0.283239812 -0.820189655 0.497055382
vn -0.469557494 -0.444668949 0.76274848
vn -0.421076715 0.0117484313 0.906948984
vn 0.224079236 -0.512277842 0.829071701
vn 0.532104373 -0.0904642716 0.841832042
vn 0.974093854 0.140737161 0.17701456
vn 0.97385639 -0.0149748558 -0.226670355
vn 0.979208291 0.202643111 -0.00932506472
vn 0.468478531 -0.784054756 0.40716821
vn -0.993853688 0.109717339 -0.0147254942
vn -0.901532471 -0.251321107 -0.35224548
vn -0.112871625 -0.0271819755 -0.993237615
vn 0.146698788 0.37952736 -0.91347599
vn -0.740848422 -0.436094105 -0.510847986
vn -0.010922702 0.541658938 -0.840527415
vn -0.637308359 -0.385455281 -0.66727978
vn -0.243771076 0.566038609 -0.787512481
vn -0.401364923 -0.536872089 -0.74207449
vn 0.231150329 0.331652135 -0.914645493
vn 0.231150329 0.331652135 -0.914645493
vn 0.814920545 -0.366808116 -0.448727548
vn -0.82269913 0.466455817 -0.324938655
vn -0.743955493 0.498277426 0.445252508
vn -0.499635518 0.847913742 0.17721945
vn -0.36949718 0.812697053 0.45054996
vn -0.553018272 0.491429329 0.672806084
vn -0.102126084 0.83023417 0.547979534
vn -0.297283649 0.532405376 0.792569816
vn -0.624486566 0.623381793 -0.47054404
vn -0.0602843612 -0.288336128 -0.955629647
vn -0.230833948 -0.30120942 -0.925196528
vn -0.53309685 0.563394248 -0.631185114
vn -0.131905034 -0.705403328 -0.696424484
vn -0.269334525 0.665255249 -0.696343601
vn 0.0920367241 0.0511696301 -0.994440079
vn -0.249194786 0.967571855 -0.0413115993
vn -0.110984191 0.983179212 0.145055473
vn 0.53859818 0.827066004 0.160852998
vn 0.512188435 0.669490159 0.538001835
vn 0.987493575 -0.130860344 -0.0879312381
vn 0.908004522 -0.169536203 -0.383125663
vn 0.256831139 0.89344883 -0.368492782
vn 0.0920367241 0.0511696301 -0.994440079
vn 0.908004522 -0.169536203 -0.383125663
vn 0.836005151 -0.540537298 -0.0944179371
vn 0.380922794 0.329461783 0.863917172
vn 0.922457814 -0.385380685 -0.0235243142
vn 0.836005151 -0.540537298 -0.0944179371
vn 0.922457814 -0.385380685 -0.0235243142
vn 0.93175149 0.350482643 -0.0948735699
vn 0.979208291 0.202643111 -0.00932506472
vn -0.112871625 -0.0271819755 -0.993237615
vn -0.491545796 -0.216249511 0.84357512
vn -0.88920182 0.42996493 -0.156365916
vn 0.065357551 0.209439188 0.975634992
vn -0.955534756 -0.0968272164 -0.278527886
vn -0.79878813 -0.538977146 -0.267284483
vn 0.207573161 -0.377027333 0.902642608
vn -0.0382741503 -0.784141719 0.619400322
vn -0.616997719 -0.608097374 -0.49953109
vn 0.0592618957 0.676197648 0.734332919
vn -0.615764737 0.45277223 -0.644849658
vn -0.357953697 0.857664227 -0.369163007
vn 0.353706986 0.656948805 0.665815055
vn 0.591013074 -0.764861584 0.256301194
vn -0.223011523 -0.462557882 -0.858082771
vn 0.205857933 0.616998613 -0.759562552
vn 0.787780583 0.357761919 0.501406193
vn 0.829139888 0.0323394388 0.558105052
vn 0.887782216 -0.432389259 0.157740816
vn 0.628291428 0.502959073 0.593533516
vn 0.772869468 0.62511301 0.10911648
vn -0.404858947 -0.544416964 -0.734642386
vn 0.0475728139 -0.777349889 -0.627267063
vn 0.615876377 -0.54718405 0.566820979
vn 0.42559588 -0.743990958 0.51511699
vn -0.066899389 -0.210896283 -0.975216448
vn 0.936078012 0.328320622 0.126346484
vn 0.173768163 -0.534262121 -0.82726568
vn 0.724242151 -0.68128264 -0.106429622
vn 0.18756856 0.193371698 -0.963029385
vn -0.114322916 0.454113036 -0.883578897
vn -0.0930350423 0.682280898 -0.725146413
vn 0.556557477 0.443626106 -0.70245266
vn 0.18756856 0.193371698 -0.963029385
vn 0.887782216 -0.432389259 0.157740816
vn -0.066899389 -0.210896283 -0.975216448
vn 0.829139888 0.0323394388 0.558105052
vn 0.772869468 0.62511301 0.10911648
vn -0.114322916 0.454113036 -0.883578897
vn -0.0930350423 0.682280898 -0.725146413
vn 0.628291428 0.502959073 0.593533516
vn 0.0475728139 -0.777349889 -0.627267063
vn 0.615876377 -0.54718405 0.566820979
vn 0.42559588 -0.743990958 0.51511699
vn -0.404858947 -0.544416964 -0.734642386
vn 0.556557477 0.443626106 -0.70245266
vn 0.936078012 0.328320622 0.126346484
vn 0.724242151 -0.68128264 -0.106429622
vn 0.173768163 -0.534262121 -0.82726568
vn 0.556557477 0.443626106 -0.70245266
vn 0.591013074 -0.764861584 0.256301194
vn 0.936078012 0.328320622 0.126346484
vn -0.223011523 -0.462557882 -0.858082771
vn 0.724242151 -0.68128264 -0.106429622
vn 0.205857933 0.616998613 -0.759562552
vn 0.173768163 -0.534262121 -0.82726568
vn 0.787780583 0.357761919 0.501406193
g jugger_green_war_m_shoulderstrap_0
f 3/3/3 2/2/2 1/1/1
f 4/4/4 1/1/1 2/2/2
f 3/3/3 1/1/1 5/5/5
f 6/6/6 5/5/5 1/1/1
f 2/2/2 7/7/7 4/4/4
f 8/8/8 4/4/4 7/7/7
f 8/8/8 7/7/7 9/9/9
f 10/10/10 9/9/9 7/7/7
f 3/3/3 11/11/11 2/2/2
f 5/5/5 11/11/11 3/3/3
f 12/12/12 2/2/2 11/11/11
f 2/2/2 12/12/12 7/7/7
f 13/13/13 7/7/7 12/12/12
f 13/13/13 14/14/14 7/7/7
f 15/15/15 7/7/7 14/14/14
f 13/13/13 16/16/16 14/14/14
f 17/17/17 14/14/14 16/16/16
f 5/5/5 18/18/18 11/11/11
f 18/18/18 5/5/5 19/19/19
f 20/20/20 19/19/19 5/5/5
f 19/19/19 21/21/21 18/18/18
f 22/22/22 11/11/11 18/18/18
f 18/18/18 23/23/23 22/22/22
f 24/24/24 22/22/22 23/23/23
f 23/23/23 25/25/25 24/24/24
f 26/26/26 24/24/24 25/25/25
f 25/25/25 27/27/27 26/26/26
f 28/28/28 26/26/26 27/27/27
f 27/27/27 29/29/29 28/28/28
f 29/29/29 27/27/27 30/30/30
f 31/31/31 30/30/30 23/23/23
f 32/32/32 23/23/23 30/30/30
f 32/32/32 30/30/30 27/27/27
f 23/23/23 33/33/33 31/31/31
f 34/34/34 28/28/28 29/29/29
f 37/37/37 36/36/36 35/35/35
f 35/35/35 38/38/38 37/37/37
f 39/39/39 37/37/37 38/38/38
f 38/38/38 40/40/40 39/39/39
f 41/41/41 39/39/39 40/40/40
f 40/40/40 42/42/42 41/41/41
f 43/43/43 41/41/41 42/42/42
f 43/43/43 42/42/42 44/44/44
f 45/45/45 44/44/44 42/42/42
f 44/44/44 45/45/45 46/46/46
f 45/45/45 47/47/47 46/46/46
f 48/48/48 46/46/46 47/47/47
f 49/49/49 48/48/48 47/47/47
f 47/47/47 50/50/50 49/49/49
f 51/51/51 49/49/49 50/50/50
f 50/50/50 52/52/52 51/51/51
f 53/53/53 51/51/51 52/52/52
f 47/47/47 54/54/54 50/50/50
f 55/55/55 50/50/50 54/54/54
f 55/55/55 56/56/56 50/50/50
f 57/57/57 50/50/50 56/56/56
f 56/56/56 55/55/55 58/58/58
f 59/59/59 58/58/58 55/55/55
f 54/54/54 60/60/60 55/55/55
f 59/59/59 55/55/55 60/60/60
f 59/59/59 61/61/61 58/58/58
f 62/62/62 58/58/58 61/61/61
f 61/61/61 63/63/63 62/62/62
f 64/64/64 62/62/62 63/63/63
f 63/63/63 61/61/61 65/65/65
f 66/66/66 65/65/65 61/61/61
f 60/60/60 66/66/66 59/59/59
f 61/61/61 59/59/59 66/66/66
f 63/63/63 67/67/67 64/64/64
f 63/63/63 65/65/65 67/67/67
f 64/64/64 67/67/67 68/68/68
f 69/69/69 68/68/68 67/67/67
f 67/67/67 70/70/70 69/69/69
f 70/70/70 67/67/67 65/65/65
f 68/68/68 69/69/69 71/71/71
f 72/72/72 71/71/71 69/69/69
f 72/72/72 69/69/69 73/73/73
f 70/70/70 73/73/73 69/69/69
f 74/74/74 72/72/72 73/73/73
f 74/74/74 75/75/75 72/72/72
f 76/76/76 72/72/72 75/75/75
f 74/74/74 73/73/73 36/36/36
f 35/35/35 36/36/36 73/73/73
f 74/74/74 36/36/36 77/77/77
f 78/78/78 77/77/77 36/36/36
f 65/65/65 66/66/66 79/79/79
f 70/70/70 65/65/65 80/80/80
f 79/79/79 80/80/80 65/65/65
f 73/73/73 70/70/70 81/81/81
f 80/80/80 81/81/81 70/70/70
f 73/73/73 81/81/81 35/35/35
f 82/82/82 35/35/35 81/81/81
f 35/35/35 82/82/82 38/38/38
f 83/83/83 38/38/38 82/82/82
f 83/83/83 82/82/82 84/84/84
f 81/81/81 84/84/84 82/82/82
f 80/80/80 84/84/84 81/81/81
f 80/80/80 79/79/79 84/84/84
f 38/38/38 83/83/83 40/40/40
f 85/85/85 40/40/40 83/83/83
f 85/85/85 83/83/83 86/86/86
f 84/84/84 86/86/86 83/83/83
f 86/86/86 84/84/84 79/79/79
f 79/79/79 87/87/87 86/86/86
f 87/87/87 79/79/79 66/66/66
f 87/87/87 66/66/66 88/88/88
f 87/87/87 88/88/88 86/86/86
f 60/60/60 88/88/88 66/66/66
f 88/88/88 60/60/60 89/89/89
f 54/54/54 89/89/89 60/60/60
f 89/89/89 54/54/54 90/90/90
f 47/47/47 90/90/90 54/54/54
f 47/47/47 45/45/45 90/90/90
f 91/91/91 90/90/90 45/45/45
f 88/88/88 89/89/89 92/92/92
f 86/86/86 92/92/92 85/85/85
f 92/92/92 86/86/86 88/88/88
f 89/89/89 90/90/90 92/92/92
f 40/40/40 85/85/85 42/42/42
f 45/45/45 42/42/42 93/93/93
f 93/93/93 92/92/92 90/90/90
f 94/94/94 93/93/93 42/42/42
f 93/93/93 94/94/94 92/92/92
f 94/94/94 42/42/42 85/85/85
f 94/94/94 85/85/85 92/92/92
f 97/97/97 96/96/96 95/95/95
f 98/98/98 95/95/95 96/96/96
f 97/97/97 99/99/99 96/96/96
f 99/99/99 97/97/97 100/100/100
f 101/101/101 96/96/96 99/99/99
f 97/97/97 102/102/102 100/100/100
f 101/101/101 103/103/103 96/96/96
f 104/104/104 96/96/96 103/103/103
f 104/104/104 105/105/105 96/96/96
f 97/97/97 95/95/95 106/106/106
f 97/97/97 106/106/106 102/102/102
f 107/107/107 106/106/106 95/95/95
f 96/96/96 108/108/108 98/98/98
f 109/109/109 102/102/102 106/106/106
f 98/98/98 110/110/110 95/95/95
f 111/111/111 95/95/95 110/110/110
f 110/110/110 112/112/112 111/111/111
f 113/113/113 111/111/111 112/112/112
f 113/113/113 114/114/114 111/111/111
f 115/115/115 111/111/111 114/114/114
f 112/112/112 116/116/116 113/113/113
f 117/117/117 113/113/113 116/116/116
f 116/116/116 118/118/118 117/117/117
f 116/116/116 112/112/112 118/118/118
f 119/119/119 117/117/117 118/118/118
f 114/114/114 113/113/113 119/119/119
f 117/117/117 119/119/119 113/113/113
f 120/120/120 118/118/118 112/112/112
f 112/112/112 110/110/110 120/120/120
f 121/121/121 120/120/120 110/110/110
f 95/95/95 111/111/111 107/107/107
f 115/115/115 122/122/122 111/111/111
f 121/121/121 110/110/110 123/123/123
f 98/98/98 123/123/123 110/110/110
f 123/123/123 98/98/98 124/124/124
f 127/127/127 126/126/126 125/125/125
f 128/128/128 126/126/126 104/104/104
f 130/130/130 129/129/129 44/44/44
f 43/43/43 44/44/44 129/129/129
f 43/43/43 129/129/129 41/41/41
f 131/131/131 41/41/41 129/129/129
f 44/44/44 46/46/46 130/130/130
f 132/132/132 130/130/130 46/46/46
f 39/39/39 41/41/41 133/133/133
f 133/133/133 134/134/134 39/39/39
f 37/37/37 39/39/39 134/134/134
f 135/135/135 133/133/133 41/41/41
f 37/37/37 134/134/134 36/36/36
f 136/136/136 36/36/36 134/134/134
f 138/138/138 137/137/137 46/46/46
f 139/139/139 46/46/46 137/137/137
f 142/142/142 141/141/141 140/140/140
f 143/143/143 140/140/140 141/141/141
f 141/141/141 142/142/142 144/144/144
f 145/145/145 144/144/144 142/142/142
f 143/143/143 146/146/146 140/140/140
f 147/147/147 140/140/140 146/146/146
f 146/146/146 148/148/148 147/147/147
f 149/149/149 147/147/147 148/148/148
f 148/148/148 150/150/150 149/149/149
f 149/149/149 150/150/150 151/151/151
f 145/145/145 152/152/152 144/144/144
f 153/153/153 144/144/144 152/152/152
f 152/152/152 154/154/154 153/153/153
f 155/155/155 153/153/153 154/154/154
f 155/155/155 154/154/154 156/156/156
f 159/159/159 158/158/158 157/157/157
f 162/162/162 161/161/161 160/160/160
f 161/161/161 164/164/164 163/163/163
f 165/165/165 163/163/163 164/164/164
f 163/163/163 165/165/165 166/166/166
f 167/167/167 166/166/166 165/165/165
f 166/166/166 167/167/167 168/168/168
f 169/169/169 168/168/168 167/167/167
f 169/169/169 167/167/167 170/170/170
f 169/169/169 170/170/170 171/171/171
f 172/172/172 171/171/171 170/170/170
f 171/171/171 172/172/172 173/173/173
f 174/174/174 173/173/173 172/172/172
f 175/175/175 170/170/170 167/167/167
f 167/167/167 165/165/165 175/175/175
f 169/169/169 171/171/171 176/176/176
f 177/177/177 169/169/169 176/176/176
f 178/178/178 176/176/176 171/171/171
f 171/171/171 173/173/173 178/178/178
f 173/173/173 174/174/174 179/179/179
f 179/179/179 178/178/178 173/173/173
f 180/180/180 179/179/179 174/174/174
f 181/181/181 175/175/175 165/165/165
f 182/182/182 181/181/181 164/164/164
f 165/165/165 164/164/164 181/181/181
f 182/182/182 164/164/164 183/183/183
f 161/161/161 184/184/184 164/164/164
f 186/186/186 185/185/185 16/16/16
f 17/17/17 16/16/16 185/185/185
f 189/189/189 188/188/188 187/187/187
f 191/191/191 190/190/190 188/188/188
f 191/191/191 188/188/188 192/192/192
f 193/193/193 192/192/192 188/188/188
f 190/190/190 194/194/194 189/189/189
f 195/195/195 189/189/189 194/194/194
f 192/192/192 193/193/193 196/196/196
f 197/197/197 196/196/196 193/193/193
f 196/196/196 197/197/197 198/198/198
f 199/199/199 198/198/198 197/197/197
f 199/199/199 200/200/200 198/198/198
f 201/201/201 198/198/198 200/200/200
f 201/201/201 200/200/200 202/202/202
f 203/203/203 202/202/202 200/200/200
f 205/205/205 204/204/204 194/194/194
f 195/195/195 206/206/206 204/204/204
f 209/209/209 208/208/208 207/207/207
f 210/210/210 207/207/207 208/208/208
f 207/207/207 211/211/211 209/209/209
f 211/211/211 212/212/212 209/209/209
f 212/212/212 211/211/211 213/213/213
f 214/214/214 213/213/213 211/211/211
f 213/213/213 214/214/214 215/215/215
f 216/216/216 215/215/215 214/214/214
f 215/215/215 216/216/216 217/217/217
f 218/218/218 217/217/217 216/216/216
f 214/214/214 219/219/219 216/216/216
f 219/219/219 214/214/214 211/211/211
f 211/211/211 207/207/207 219/219/219
f 220/220/220 216/216/216 219/219/219
f 216/216/216 220/220/220 218/218/218
f 221/221/221 218/218/218 220/220/220
f 220/220/220 222/222/222 221/221/221
f 220/220/220 219/219/219 222/222/222
f 223/223/223 221/221/221 222/222/222
f 222/222/222 224/224/224 223/223/223
f 225/225/225 223/223/223 224/224/224
f 224/224/224 222/222/222 226/226/226
f 227/227/227 226/226/226 222/222/222
f 227/227/227 222/222/222 219/219/219
f 217/217/217 228/228/228 215/215/215
f 229/229/229 215/215/215 228/228/228
f 228/228/228 230/230/230 229/229/229
f 231/231/231 229/229/229 230/230/230
f 229/229/229 231/231/231 232/232/232
f 233/233/233 232/232/232 231/231/231
f 232/232/232 233/233/233 234/234/234
f 235/235/235 234/234/234 233/233/233
f 234/234/234 235/235/235 236/236/236
f 237/237/237 236/236/236 235/235/235
f 232/232/232 213/213/213 229/229/229
f 215/215/215 229/229/229 213/213/213
f 234/234/234 212/212/212 232/232/232
f 213/213/213 232/232/232 212/212/212
f 234/234/234 236/236/236 212/212/212
f 209/209/209 212/212/212 236/236/236
f 236/236/236 238/238/238 209/209/209
f 239/239/239 209/209/209 238/238/238
f 228/228/228 240/240/240 230/230/230
f 240/240/240 228/228/228 241/241/241
f 241/241/241 242/242/242 240/240/240
f 242/242/242 241/241/241 243/243/243
f 244/244/244 243/243/243 241/241/241
f 241/241/241 217/217/217 244/244/244
f 217/217/217 241/241/241 228/228/228
f 218/218/218 244/244/244 217/217/217
f 243/243/243 244/244/244 245/245/245
f 246/246/246 245/245/245 244/244/244
f 244/244/244 218/218/218 246/246/246
f 247/247/247 240/240/240 242/242/242
f 240/240/240 247/247/247 248/248/248
f 249/249/249 248/248/248 247/247/247
f 247/247/247 250/250/250 249/249/249
f 251/251/251 249/249/249 250/250/250
f 250/250/250 252/252/252 251/251/251
f 253/253/253 251/251/251 252/252/252
f 250/250/250 247/247/247 254/254/254
f 242/242/242 254/254/254 247/247/247
f 250/250/250 254/254/254 252/252/252
f 221/221/221 246/246/246 218/218/218
f 254/254/254 242/242/242 255/255/255
f 243/243/243 255/255/255 242/242/242
f 243/243/243 245/245/245 255/255/255
f 255/255/255 245/245/245 256/256/256
f 257/257/257 256/256/256 245/245/245
f 245/245/245 246/246/246 257/257/257
f 256/256/256 257/257/257 258/258/258
f 258/258/258 259/259/259 256/256/256
f 260/260/260 256/256/256 259/259/259
f 260/260/260 252/252/252 254/254/254
f 255/255/255 260/260/260 254/254/254
f 256/256/256 260/260/260 255/255/255
f 252/252/252 260/260/260 261/261/261
f 262/262/262 261/261/261 260/260/260
f 263/263/263 258/258/258 257/257/257
f 265/265/265 263/263/263 264/264/264
f 264/264/264 223/223/223 265/265/265
f 223/223/223 264/264/264 221/221/221
f 257/257/257 264/264/264 266/266/266
f 264/264/264 257/257/257 246/246/246
f 246/246/246 221/221/221 264/264/264
f 225/225/225 267/267/267 223/223/223
f 207/207/207 268/268/268 227/227/227
f 269/269/269 227/227/227 268/268/268
f 227/227/227 219/219/219 207/207/207
f 248/248/248 270/270/270 240/240/240
f 273/273/273 272/272/272 271/271/271
f 274/274/274 271/271/271 272/272/272
f 274/274/274 275/275/275 271/271/271
f 276/276/276 271/271/271 275/275/275
f 276/276/276 275/275/275 277/277/277
f 278/278/278 277/277/277 275/275/275
f 273/273/273 279/279/279 272/272/272
f 280/280/280 272/272/272 279/279/279
f 280/280/280 279/279/279 281/281/281
f 282/282/282 281/281/281 279/279/279
f 277/277/277 278/278/278 283/283/283
f 284/284/284 283/283/283 278/278/278
f 281/281/281 282/282/282 285/285/285
f 286/286/286 285/285/285 282/282/282
f 271/271/271 287/287/287 273/273/273
f 271/271/271 276/276/276 287/287/287
f 288/288/288 273/273/273 287/287/287
f 277/277/277 289/289/289 276/276/276
f 277/277/277 283/283/283 289/289/289
f 290/290/290 276/276/276 289/289/289
f 290/290/290 287/287/287 276/276/276
f 281/281/281 291/291/291 280/280/280
f 281/281/281 285/285/285 291/291/291
f 292/292/292 280/280/280 291/291/291
f 279/279/279 293/293/293 282/282/282
f 293/293/293 279/279/279 288/288/288
f 294/294/294 282/282/282 293/293/293
f 282/282/282 294/294/294 286/286/286
f 292/292/292 295/295/295 280/280/280
f 296/296/296 289/289/289 283/283/283
f 297/297/297 291/291/291 285/285/285
f 298/298/298 286/286/286 294/294/294
f 295/295/295 299/299/299 272/272/272
f 274/274/274 272/272/272 299/299/299
f 274/274/274 299/299/299 275/275/275
f 300/300/300 275/275/275 299/299/299
f 275/275/275 300/300/300 278/278/278
f 301/301/301 278/278/278 300/300/300
f 272/272/272 280/280/280 295/295/295
f 278/278/278 301/301/301 284/284/284
f 302/302/302 284/284/284 301/301/301
f 305/305/305 304/304/304 303/303/303
f 306/306/306 303/303/303 304/304/304
f 306/306/306 307/307/307 303/303/303
f 308/308/308 303/303/303 307/307/307
f 308/308/308 307/307/307 309/309/309
f 310/310/310 309/309/309 307/307/307
f 305/305/305 311/311/311 304/304/304
f 312/312/312 304/304/304 311/311/311
f 312/312/312 311/311/311 313/313/313
f 314/314/314 313/313/313 311/311/311
f 309/309/309 310/310/310 315/315/315
f 316/316/316 315/315/315 310/310/310
f 313/313/313 314/314/314 317/317/317
f 318/318/318 317/317/317 314/314/314
f 273/273/273 288/288/288 279/279/279
f 321/321/321 320/320/320 319/319/319
f 322/322/322 319/319/319 320/320/320
f 325/325/325 324/324/324 323/323/323
f 326/326/326 323/323/323 324/324/324
