g Mesh02
v 0.0349633098 -0.0878249705 1.09773028
v 6.25848751E-09 -0.097349368 1.10399032
v 0.0403982922 -0.0934016779 1.12147653
v 6.85453383E-09 -0.0938764587 1.09057009
v -0.0415181629 -0.0952459499 1.12852228
v 6.85453383E-09 -0.0938764587 1.09057009
v -0.0349632986 -0.0878249705 1.09773028
v 6.25848751E-09 -0.097349368 1.10399032
v -1.47223474E-07 -0.1186314 0.888619006
v -0.0592626706 -0.119499043 0.94913727
v -1.17719168E-07 -0.118788145 0.949137092
v -0.0622721612 -0.119213566 0.888619542
v 0.059262421 -0.118077256 0.949137032
v 0.0622718669 -0.118049234 0.88861835
v -0.0562531762 -0.119784504 1.009655
v -0.0856835246 -0.102482215 1.01046205
v -0.088543497 -0.102612406 0.950336814
v -8.82148754E-08 -0.118944891 1.00965536
v -0.0532436743 -0.120069966 1.07017267
v -5.87105724E-08 -0.119101636 1.0701735
v 0.0532435514 -0.118133292 1.07017434
v 0.0562529899 -0.118105277 1.00965571
v 0.0856832862 -0.0998551473 1.01046455
v 0.0885432065 -0.100438371 0.950338423
v 0.084270753 -0.0888779834 0.950954258
v 0.0811474398 -0.0884815603 1.01169622
v -0.0842815489 -0.0905060619 0.951107323
v -0.0873944089 -0.0909199342 0.890211523
v -0.0914034843 -0.102742605 0.890211523
v -0.0905182436 -0.0907994732 0.818559885
v -0.0946707726 -0.102667898 0.818554759
v -0.0655809119 -0.118886046 0.819447398
v 0.0828233734 -0.0992719159 1.0705905
v 0.0799634606 -0.0967829227 1.13071668
v 0.0502341166 -0.114887871 1.13069308
v 0.0780241117 -0.0880851224 1.07243812
v -2.4557113E-07 -0.118422285 0.819446802
v 0.0655804127 -0.117958531 0.819446146
v 0.0914031193 -0.101021603 0.890212357
v 0.0946703702 -0.101308875 0.818555593
v 0.0905178562 -0.0895000324 0.818560719
v 0.0873940662 -0.0892744139 0.890212297
v -3.21865059E-08 -0.117352605 1.13069165
v -0.0502341837 -0.117082 1.13069046
v -0.0799635872 -0.100316048 1.13071239
v -0.0828235596 -0.102352016 1.07058728
v -0.0811686814 -0.0900921896 1.01200318
v -0.0780558288 -0.0896783173 1.07289898
v -0.0749429688 -0.0892644674 1.13379478
v -0.0873944089 -0.0909199342 0.890211523
v -1.09374518E-07 -0.0925508663 0.942461729
v -0.0842815489 -0.0905060619 0.951107323
v -1.41263001E-07 -0.0909513757 0.888619006
v -0.0811686814 -0.0900921896 1.01200318
v -7.74860354E-08 -0.0941503569 0.996304631
v 0.0811474398 -0.0884815603 1.01169622
v 0.084270753 -0.0888779834 0.950954258
v -4.52995295E-08 -0.095749855 1.05014741
v -0.0780558288 -0.0896783173 1.07289898
v 0.0780241117 -0.0880851224 1.07243812
v 0.0873940662 -0.0892744139 0.890212297
v -2.3484229E-07 -0.089915432 0.819456637
v 0.0905178562 -0.0895000324 0.818560719
v -0.0905182436 -0.0907994732 0.818559885
v -0.0415181629 -0.0952459499 1.12852228
v 0.0403982922 -0.0934016779 1.12147653
v 6.25848751E-09 -0.097349368 1.10399032
v -0.0749429688 -0.0892644674 1.13379478
vt 0.58124131 0.722985864
vt 0.565554976 0.755792022
vt 0.590226054 0.74782604
vt 0.561942935 0.741001964
vt 0.406205118 0.765515924
vt 0.436905384 0.749843061
vt 0.41742906 0.732671857
vt 0.433496654 0.764693499
vt 0.0690369159 0.524402738
vt 0.0384716913 0.592573583
vt 0.0690550134 0.592450857
vt 0.0368961953 0.524455547
vt 0.0996383354 0.59243834
vt 0.101177424 0.52433145
vt 0.040070489 0.660646737
vt 0.0224670731 0.662027061
vt 0.021035336 0.594207525
vt 0.0690785274 0.660461247
vt 0.0417774692 0.728565872
vt 0.0691138878 0.72848171
vt 0.0964369923 0.72840482
vt 0.0980853066 0.660496593
vt 0.115938991 0.661906123
vt 0.117269829 0.594103217
vt 0.123588875 0.595758855
vt 0.122186884 0.664342999
vt 0.0144554032 0.596016705
vt 0.0132102733 0.527272284
vt 0.0196350068 0.526423991
vt 0.0114650158 0.446445763
vt 0.0179405101 0.445650578
vt 0.0351430327 0.446604311
vt 0.114424661 0.729747057
vt 0.112743057 0.797848284
vt 0.0949786305 0.796365917
vt 0.120556884 0.733039379
vt 0.0690188184 0.446644664
vt 0.102895431 0.446484268
vt 0.118580282 0.526326418
vt 0.120209038 0.445552021
vt 0.126655415 0.446381509
vt 0.124966323 0.527214825
vt 0.0691906586 0.796655715
vt 0.0433954075 0.796416759
vt 0.0258140415 0.798090637
vt 0.0240893774 0.729897499
vt 0.0157394335 0.664823949
vt 0.0172641687 0.733763278
vt 0.0195771754 0.802189887
vt 0.296904981 0.867440879
vt 0.268881261 0.926968396
vt 0.264296114 0.869533181
vt 0.297742546 0.926976383
vt 0.231687024 0.871580303
vt 0.240019605 0.926959395
vt 0.231854066 0.982389092
vt 0.264382362 0.984434009
vt 0.211160526 0.926948309
vt 0.199073359 0.873580158
vt 0.199321732 0.98039031
vt 0.296910137 0.986522198
vt 0.334803641 0.926978707
vt 0.335288763 0.988642454
vt 0.335283995 0.86531204
vt 0.169196889 0.898599744
vt 0.172989294 0.954612851
vt 0.182300195 0.926939428
vt 0.16644083 0.875457048
vn 0.209259778 -0.941591978 -0.263846606
vn -0.0690396205 0.281035393 -0.957210839
vn 0.0104913833 0.972303391 -0.233486548
vn 0.00538651319 -0.966599226 -0.256236196
vn 0.0762168169 0.992378354 -0.0968301073
vn 0.00538651319 -0.966599226 -0.256236196
vn -0.217970878 -0.937207222 -0.272270799
vn -0.0690396205 0.281035393 -0.957210839
vn 0.0100011006 -0.999946117 -0.00280641112
vn -0.252668232 -0.967500627 0.0100658918
vn 0.0126930652 -0.999916077 -0.00258981786
vn -0.24987404 -0.968246043 0.00791052077
vn 0.273733169 -0.96170187 0.0141303539
vn 0.266167045 -0.963837147 0.0131544741
vn -0.256152034 -0.966590524 0.00942205545
vn -0.938721716 -0.34174341 0.0448663943
vn -0.935974956 -0.34907192 0.0458216146
vn 0.0156727862 -0.999873877 -0.00258970517
vn -0.254560143 -0.966532469 0.0318441316
vn 0.0189809874 -0.99963057 0.0194546264
vn 0.284950495 -0.957831979 0.0368935317
vn 0.281445384 -0.959468126 0.0144721195
vn 0.947296917 -0.316749305 0.0479419045
vn 0.941354752 -0.334022433 0.0477509387
vn 0.553788781 0.832374215 0.0217058733
vn 0.531397045 0.846610606 0.0294582341
vn -0.56872642 0.82220602 0.0229685251
vn -0.581585884 0.812905014 0.0307142083
vn -0.933235347 -0.356848329 0.0416070111
vn -0.594810307 0.803370833 0.0282141399
vn -0.939078927 -0.341068298 0.0424630046
vn -0.258574873 -0.965952635 0.00862581003
vn 0.854933262 -0.515669048 0.0563429333
vn 0.524546862 -0.848678887 0.0677834079
vn 0.281345963 -0.957875133 0.0576158352
vn 0.319195718 0.947371304 0.0245284084
vn 0.00813380722 -0.99996233 -0.00302294292
vn 0.271028161 -0.96248275 0.0130607616
vn 0.935480416 -0.350536615 0.044726003
vn 0.940460742 -0.337012082 0.0442321673
vn 0.589437127 0.807456136 0.0240507331
vn 0.572891057 0.819133937 0.0285560191
vn 0.0218191687 -0.999344647 0.0288819354
vn -0.245244324 -0.967953324 0.0540503636
vn -0.966709733 -0.246318385 0.069279395
vn -0.939411223 -0.339037836 0.0505951345
vn -0.55299139 0.832609236 0.0310220029
vn -0.528986573 0.848077893 0.0306114759
vn -0.427371055 0.903939962 0.0157030951
vn -0.581585884 0.812905014 0.0307142083
vn -0.00962672662 0.999846935 0.0146088125
vn -0.56872642 0.82220602 0.0229685251
vn -0.00941118132 0.999708116 0.0222504493
vn -0.55299139 0.832609236 0.0310220029
vn -0.00982804783 0.999510765 0.0296921823
vn 0.531397045 0.846610606 0.0294582341
vn 0.553788781 0.832374215 0.0217058733
vn -0.0112070795 0.999705851 0.0215078294
vn -0.528986573 0.848077893 0.0306114759
vn 0.319195718 0.947371304 0.0245284084
vn 0.572891057 0.819133937 0.0285560191
vn -0.00844884757 0.999930978 0.00816338975
vn 0.589437127 0.807456136 0.0240507331
vn -0.594810307 0.803370833 0.0282141399
vn 0.0762168169 0.992378354 -0.0968301073
vn 0.0104913833 0.972303391 -0.233486548
vn -0.0690396205 0.281035393 -0.957210839
vn -0.427371055 0.903939962 0.0157030951
g Mesh02_0
f 3/3/3 2/2/2 1/1/1
f 4/4/4 1/1/1 2/2/2
f 7/7/7 6/6/6 5/5/5
f 8/8/8 5/5/5 6/6/6
f 11/11/11 10/10/10 9/9/9
f 12/12/12 9/9/9 10/10/10
f 11/11/11 9/9/9 13/13/13
f 14/14/14 13/13/13 9/9/9
f 10/10/10 11/11/11 15/15/15
f 15/15/15 16/16/16 10/10/10
f 17/17/17 10/10/10 16/16/16
f 18/18/18 15/15/15 11/11/11
f 15/15/15 18/18/18 19/19/19
f 20/20/20 19/19/19 18/18/18
f 20/20/20 18/18/18 21/21/21
f 22/22/22 21/21/21 18/18/18
f 18/18/18 11/11/11 22/22/22
f 13/13/13 22/22/22 11/11/11
f 22/22/22 13/13/13 23/23/23
f 24/24/24 23/23/23 13/13/13
f 13/13/13 14/14/14 24/24/24
f 24/24/24 25/25/25 23/23/23
f 26/26/26 23/23/23 25/25/25
f 17/17/17 16/16/16 27/27/27
f 27/27/27 28/28/28 17/17/17
f 29/29/29 17/17/17 28/28/28
f 28/28/28 30/30/30 29/29/29
f 31/31/31 29/29/29 30/30/30
f 31/31/31 32/32/32 29/29/29
f 12/12/12 29/29/29 32/32/32
f 23/23/23 33/33/33 22/22/22
f 21/21/21 22/22/22 33/33/33
f 23/23/23 26/26/26 33/33/33
f 33/33/33 34/34/34 21/21/21
f 35/35/35 21/21/21 34/34/34
f 36/36/36 33/33/33 26/26/26
f 32/32/32 37/37/37 12/12/12
f 9/9/9 12/12/12 37/37/37
f 9/9/9 37/37/37 14/14/14
f 38/38/38 14/14/14 37/37/37
f 14/14/14 38/38/38 39/39/39
f 40/40/40 39/39/39 38/38/38
f 40/40/40 41/41/41 39/39/39
f 42/42/42 39/39/39 41/41/41
f 39/39/39 24/24/24 14/14/14
f 39/39/39 42/42/42 24/24/24
f 25/25/25 24/24/24 42/42/42
f 12/12/12 10/10/10 29/29/29
f 17/17/17 29/29/29 10/10/10
f 43/43/43 20/20/20 35/35/35
f 43/43/43 44/44/44 20/20/20
f 19/19/19 20/20/20 44/44/44
f 44/44/44 45/45/45 19/19/19
f 46/46/46 19/19/19 45/45/45
f 19/19/19 46/46/46 15/15/15
f 16/16/16 15/15/15 46/46/46
f 16/16/16 46/46/46 47/47/47
f 48/48/48 47/47/47 46/46/46
f 46/46/46 45/45/45 48/48/48
f 47/47/47 27/27/27 16/16/16
f 49/49/49 48/48/48 45/45/45
f 21/21/21 35/35/35 20/20/20
f 52/52/52 51/51/51 50/50/50
f 53/53/53 50/50/50 51/51/51
f 52/52/52 54/54/54 51/51/51
f 55/55/55 51/51/51 54/54/54
f 55/55/55 56/56/56 51/51/51
f 57/57/57 51/51/51 56/56/56
f 55/55/55 54/54/54 58/58/58
f 55/55/55 58/58/58 56/56/56
f 59/59/59 58/58/58 54/54/54
f 60/60/60 56/56/56 58/58/58
f 53/53/53 51/51/51 61/61/61
f 57/57/57 61/61/61 51/51/51
f 53/53/53 61/61/61 62/62/62
f 53/53/53 62/62/62 50/50/50
f 63/63/63 62/62/62 61/61/61
f 64/64/64 50/50/50 62/62/62
f 65/65/65 58/58/58 59/59/59
f 58/58/58 66/66/66 60/60/60
f 67/67/67 66/66/66 58/58/58
f 67/67/67 58/58/58 65/65/65
f 68/68/68 65/65/65 59/59/59
