g nWoman_sword_MR1
v 0.00604341552 -0.125638619 0.138021499
v 0.0102968635 -0.124714315 0.127226144
v -2.75958371E-07 -0.146912336 0.12532413
v 0.0069539994 -0.111185491 0.141155541
v -2.83258998E-07 -0.111490592 0.144715071
v -2.79232154E-07 -0.125910446 0.141231641
v -2.75958371E-07 -0.146912336 0.12532413
v -2.90790069E-07 -0.10003002 0.129375532
v 0.011435722 -0.110095635 0.128478736
v -2.90790069E-07 -0.10003002 0.129375532
v 0.00604341971 -0.123788714 0.116431043
v 0.0069539831 -0.109012946 0.115801163
v -2.91963005E-07 -0.108708076 0.112241782
v -2.86739834E-07 -0.123510547 0.113221392
v -2.75958371E-07 -0.146912336 0.12532413
v -2.90790069E-07 -0.10003002 0.129375532
v -0.0060439771 -0.125638619 0.138021499
v -0.0102974279 -0.124714315 0.127226144
v -2.79232154E-07 -0.125910446 0.141231641
v -2.83258998E-07 -0.111490592 0.144715071
v -0.00695456797 -0.111185491 0.141155541
v -2.90790069E-07 -0.10003002 0.129375532
v -0.0114362966 -0.110095635 0.128478736
v -2.90790069E-07 -0.10003002 0.129375532
v -0.00695456471 -0.109012946 0.115801163
v -0.00604399201 -0.123788714 0.116431043
v -2.91963005E-07 -0.108708076 0.112241782
v -2.86739834E-07 -0.123510547 0.113221392
v -2.90790069E-07 -0.10003002 0.129375532
v 0.0037535571 0.0251369067 0.0862805545
v 0.00352739752 0.0318876989 0.1135609
v 0.00339428708 0.0424225181 0.103276633
v 0.00386521243 -0.012436945 0.0694918036
v 0.00356824696 -0.0231092479 0.211694375
v 0.00359424273 0.0203278698 0.267616481
v -2.96441158E-07 -0.0251539256 0.211264029
v -2.82072762E-07 -0.0434047356 0.245623767
v 0.0035274257 -0.0430157892 0.245530084
v 0.00352743291 -0.0296723582 0.254383057
v -2.84505859E-07 -0.0299103949 0.254466802
v -2.82072762E-07 -0.0434047356 0.245623767
v -3.33904865E-07 -0.0145246526 0.0695944577
v -3.43364462E-07 0.0255166218 0.0864679292
v -3.45107878E-07 0.0426188968 0.103279188
v -3.39144805E-07 0.032384146 0.113789558
v -2.98403961E-07 0.020755345 0.26775372
v 0.00352749787 0.0126433158 0.346728951
v 0.00392745854 -0.0169222653 0.341901839
v 0.00392746134 -0.0104007358 0.283097029
v 0.00276480871 -0.0246784613 0.264390171
v 0.00392752327 -0.0268870182 0.439974666
v 0.00352753419 0.00282138516 0.445062578
v 0.00392755959 -0.0325475708 0.54470098
v -2.09696438E-07 -0.0460425988 0.544536948
v -2.36722713E-07 -0.0418716855 0.437408596
v -1.8331022E-07 -0.042096369 0.660428166
v 0.00392762432 -0.0278365724 0.661183
v -1.64249045E-07 -0.0312462244 0.75541991
v 0.00392764295 -0.0182725172 0.752104163
v 0.00392769743 -0.00334545434 0.84167552
v -1.48268569E-07 -0.0142286317 0.846221447
v 0.00352755981 -0.00249073305 0.54506588
v 0.00352764665 -0.00042934707 0.631695032
v 0.00352767948 0.016909292 0.833042562
v 0.00352764293 0.0064521376 0.745784879
v 0.00392770348 0.012470128 0.88928467
v -1.43506298E-07 0.00482745795 0.892988741
v -1.44918161E-07 0.0299837086 0.922536135
v -1.4353472E-07 0.0257112477 0.922299922
v -1.44918161E-07 0.0299837086 0.922536135
v -1.62076461E-07 0.0172764175 0.832883596
v -2.24381793E-07 -0.00209072395 0.545070648
v -2.50071707E-07 0.00321559608 0.445129991
v -2.76900039E-07 0.0130380606 0.346793592
v -2.04342285E-07 -2.69728116E-05 0.631771088
v 0.00352760963 -0.00950969942 0.662954867
v -1.93818025E-07 -0.00911045354 0.662976086
v 0.0035276108 -0.000241816553 0.681192636
v -1.92609491E-07 0.000148350664 0.681077123
v -1.79413036E-07 0.00683978712 0.745685875
v 0.00373987644 -0.0317956954 -0.093832545
v 0.0033591392 -0.047577329 -0.124510117
v 0.0033591222 -0.0517026931 -0.121862598
v -3.66993589E-07 -0.0529136322 -0.122859992
v -3.57888922E-07 -0.053924527 -0.086214751
v 0.00335923582 -0.0524091758 -0.0866602287
v -3.59810684E-07 -0.0388946943 -0.0730697587
v 0.0035963743 -0.0376739129 -0.0738269389
v -3.55269549E-07 -0.021193048 -0.0291361231
v 0.00392731372 -0.0211931244 -0.0291361604
v -3.42109473E-07 -0.0109767551 0.0402877033
v 0.00392735563 -0.0109768314 0.0402875878
v -3.33904865E-07 -0.0145246526 0.0695944577
v 0.00386521243 -0.012436945 0.0694918036
v 0.0108676748 -0.0039503891 0.0398601517
v 0.00986456405 -0.00550655648 0.0645220578
v 0.0119179441 -0.0152415102 -0.0310089495
v 0.00895157736 -0.032821618 -0.077230528
v 0.0113881947 -0.000576899562 -0.0375568755
v 0.00970844459 -0.0190124922 -0.0851876065
v 0.00359638198 -0.0129986973 -0.0869825706
v 0.00373988203 -0.0195492953 -0.0936521143
v 0.0039273072 0.00534686726 -0.0395816788
v -3.72423813E-07 -0.0116175478 -0.0873699933
v -3.77599008E-07 -0.0130928438 -0.111088328
v 0.00335932686 -0.0142797492 -0.110034294
v -3.69423276E-07 -0.0479607806 -0.126039654
v -3.66993589E-07 -0.0529136322 -0.122859992
v -3.66712356E-07 0.00534686726 -0.0395816416
v 0.00392734306 0.0225850269 0.0341361985
v -3.54891995E-07 0.0225851033 0.034136124
v 0.0037535571 0.0251369067 0.0862805545
v -3.43364462E-07 0.0255166218 0.0864679292
v 0.0103389751 0.0156998038 0.0350202546
v 0.0102758789 0.020394627 0.0740269423
v 0.00882585067 -0.0298302863 -0.0903223753
v 0.00373989553 -0.0377120599 -0.0823291764
v -2.63611241E-07 -0.0317129157 0.339294165
v -2.79545787E-07 -0.0257490184 0.280810684
v -2.83816348E-07 -0.0248427987 0.26449123
v -2.84505859E-07 -0.0299103949 0.254466802
v -0.00392800616 -0.0268870182 0.439974666
v -0.00392798893 -0.0325475708 0.54470098
v -0.00392800057 -0.0278365724 0.661183
v -0.00392798195 -0.0182725172 0.752104163
v -0.00392800383 -0.00334545434 0.84167552
v -0.00352803431 0.00282138516 0.445062578
v -0.0035280087 -0.00249073305 0.54506588
v -0.0035280555 -0.00042934707 0.631695032
v -0.00352800358 0.016909292 0.833042562
v -0.00352800172 0.0064521376 0.745784879
v -0.00392799778 0.012470128 0.88928467
v -1.62076461E-07 0.0172764175 0.832883596
v -2.50071707E-07 0.00321559608 0.445129991
v -2.76900039E-07 0.0130380606 0.346793592
v -0.00352805154 0.0126433158 0.346728951
v -0.00392799499 -0.0169222653 0.341901839
v -0.00359484018 0.0203278698 0.267616481
v -0.00392802991 -0.0104007358 0.283097029
v -0.00276537682 -0.0246784613 0.264390171
v -2.98403961E-07 0.020755345 0.26775372
v -3.39144805E-07 0.032384146 0.113789558
v -0.00352807576 0.0318876989 0.1135609
v -0.00356884184 -0.0231092479 0.211694375
v -0.00386588182 -0.012436945 0.0694918036
v -0.00375424372 0.0251369067 0.0862805545
v -0.00339497742 0.0424225181 0.103276633
v -2.96441158E-07 -0.0251539256 0.211264029
v -2.82072762E-07 -0.0434047356 0.245623767
v -0.00352799031 -0.0430157892 0.245530084
v -0.00352800218 -0.0296723582 0.254383057
v -2.84505859E-07 -0.0299103949 0.254466802
v -2.82072762E-07 -0.0434047356 0.245623767
v -3.33904865E-07 -0.0145246526 0.0695944577
v -3.43364462E-07 0.0255166218 0.0864679292
v -3.45107878E-07 0.0426188968 0.103279188
v -3.43364462E-07 0.0255166218 0.0864679292
v -3.45107878E-07 0.0426188968 0.103279188
v -2.83816348E-07 -0.0248427987 0.26449123
v -2.79545787E-07 -0.0257490184 0.280810684
v -2.84505859E-07 -0.0299103949 0.254466802
v -3.43364462E-07 0.0255166218 0.0864679292
v -3.45107878E-07 0.0426188968 0.103279188
v -0.00352799706 -0.00950969942 0.662954867
v -0.0035279959 -0.000241816553 0.681192636
v -1.93818025E-07 -0.00911045354 0.662976086
v -2.04342285E-07 -2.69728116E-05 0.631771088
v -2.24381793E-07 -0.00209072395 0.545070648
v -1.92609491E-07 0.000148350664 0.681077123
v -1.79413036E-07 0.00683978712 0.745685875
v -0.00374061125 -0.0317956954 -0.093832545
v -0.00335985655 -0.0517026931 -0.121862598
v -0.00335987774 -0.047577329 -0.124510117
v -3.66993589E-07 -0.0529136322 -0.122859992
v -3.57888922E-07 -0.053924527 -0.086214751
v -0.00335995271 -0.0524091758 -0.0866602287
v -3.59810684E-07 -0.0388946943 -0.0730697587
v -0.00359709561 -0.0376739129 -0.0738269389
v -3.55269549E-07 -0.021193048 -0.0291361231
v -0.00392802479 -0.0211931244 -0.0291361604
v -3.42109473E-07 -0.0109767551 0.0402877033
v -0.00392804062 -0.0109768314 0.0402875878
v -3.33904865E-07 -0.0145246526 0.0695944577
v -0.00386588182 -0.012436945 0.0694918036
v -0.010868364 -0.0039503891 0.0398601517
v -0.00986524113 -0.00550655648 0.0645220578
v -0.0119186593 -0.0152415102 -0.0310089495
v -0.00895230379 -0.032821618 -0.077230528
v -0.011388924 -0.000576899562 -0.0375568755
v -0.00970918406 -0.0190124922 -0.0851876065
v -0.00359712588 -0.0129986973 -0.0869825706
v -0.00374062476 -0.0195492953 -0.0936521143
v -0.00392804109 0.00534686726 -0.0395816788
v -3.72423813E-07 -0.0116175478 -0.0873699933
v -3.77599008E-07 -0.0130928438 -0.111088328
v -0.003360081 -0.0142797492 -0.110034294
v -3.69423276E-07 -0.0479607806 -0.126039654
v -3.66993589E-07 -0.0529136322 -0.122859992
v -3.66712356E-07 0.00534686726 -0.0395816416
v -0.00392805319 0.0225850269 0.0341361985
v -3.54891995E-07 0.0225851033 0.034136124
v -0.00375424372 0.0251369067 0.0862805545
v -3.43364462E-07 0.0255166218 0.0864679292
v -0.0103396783 0.0156998038 0.0350202546
v -0.0102765653 0.020394627 0.0740269423
v -0.00882658456 -0.0298302863 -0.0903223753
v -0.0037406208 -0.0377120599 -0.0823291764
v 0.00224846788 -0.0524242818 0.214077026
v -2.30148927E-07 -0.0371840298 0.232243225
v 0.00224848511 -0.0353893675 0.230366662
v -2.37826967E-07 -0.0543412417 0.215836525
v -2.35192374E-07 -0.0505071692 0.212317422
v -2.32256141E-07 -0.0335949324 0.228490025
v -0.00224892842 -0.0353895202 0.230366707
v -0.00224894565 -0.0524242818 0.21407707
v -2.32256141E-07 -0.0335949324 0.228490025
v -2.35192374E-07 -0.0505071692 0.212317422
v 0.00224846369 -0.0669469833 0.196022227
v -2.46778768E-07 -0.0690714642 0.197523907
v -2.44160674E-07 -0.0648226589 0.194520444
v -0.00224895449 -0.0669470653 0.196022138
v -2.44160674E-07 -0.0648226589 0.194520444
v 0.00224844879 -0.0793464333 0.175946847
v -2.52177415E-07 -0.0816292912 0.17719166
v -2.63848477E-07 -0.077063337 0.174701884
v -0.00224896939 -0.0793464333 0.175946802
v -2.63848477E-07 -0.077063337 0.174701884
v 0.00224844227 -0.0900104865 0.153595418
v -2.7302022E-07 -0.0924025327 0.154611692
v -2.60813607E-07 -0.0876182914 0.152579188
v -0.0022489808 -0.0900104865 0.153595418
v -2.60813607E-07 -0.0876182914 0.152579188
v 0.00224843458 -0.0993275046 0.128712848
v -2.76083142E-07 -0.102555498 0.127496675
v -2.82445654E-07 -0.0960995108 0.129928887
v -0.00224897894 -0.0993275046 0.128712848
v -2.82445654E-07 -0.0960995108 0.129928887
v 0.00224843039 -0.0797613189 0.118227653
v -2.76083142E-07 -0.102555498 0.127496675
v 0.00224843458 -0.0993275046 0.128712848
v -2.81406187E-07 -0.0808622316 0.115871653
v -2.81021386E-07 -0.0786604732 0.120583571
v -2.82445654E-07 -0.0960995108 0.129928887
v -0.00224897894 -0.0993275046 0.128712848
v -0.00224898802 -0.0797613189 0.118227653
v -2.82445654E-07 -0.0960995108 0.129928887
v -2.81021386E-07 -0.0786604732 0.120583571
v 0.00224842317 -0.063334927 0.111622006
v -2.79127988E-07 -0.0641067177 0.109133638
v -2.78458089E-07 -0.0625629872 0.114110298
v -0.00224899501 -0.063334927 0.111622006
v -2.78458089E-07 -0.0625629872 0.114110298
v 0.00224842667 -0.0479493365 0.108193889
v -2.80525711E-07 -0.0483089089 0.10561382
v -2.84302473E-07 -0.0475893803 0.110773958
v -0.00224899151 -0.0479491837 0.108193927
v -2.84302473E-07 -0.0475893803 0.110773958
v 0.00224842108 -0.0315057002 0.107241668
v -2.81645953E-07 -0.0315263756 0.104641914
v -2.75648063E-07 -0.0314849503 0.109841384
v -0.00224899268 -0.0315057002 0.107241668
v -2.75648063E-07 -0.0314849503 0.109841384
v 0.00224843388 -0.0119057866 0.10806343
v -2.88097453E-07 -0.0117971441 0.105469093
v -2.77246528E-07 -0.0120145055 0.110657729
v -0.00224898453 -0.0119057866 0.10806343
v -2.77246528E-07 -0.0120145055 0.110657729
v 7.02955949E-05 -0.00179340644 0.109082907
v -0.00936381891 -0.0100724436 0.113218918
v -0.0114845866 -0.00844028778 0.10851337
v 7.02976613E-05 -0.00464557949 0.113683887
v -0.00936382543 -0.0209263247 0.112288855
v -0.0114845913 -0.0217339732 0.107374229
v 7.03093829E-05 -0.00382122328 0.104063645
v -0.00936382171 -0.00924816448 0.103598706
v -0.00936382264 -0.0201018918 0.102668643
v 7.0299764E-05 -0.0263531134 0.111823916
v 7.02944817E-05 -0.0283808541 0.10680481
v -0.00936382543 -0.0209263247 0.112288855
v -0.00936382264 -0.0201018918 0.102668643
v 7.02971884E-05 -0.0255288333 0.102203593
v 0.00950442441 -0.00924816448 0.103598706
v -0.00936382171 -0.00924816448 0.103598706
v -0.00936382264 -0.0201018918 0.102668643
v 7.03093829E-05 -0.00382122328 0.104063645
v 7.02971884E-05 -0.0255288333 0.102203593
v 0.00950441323 -0.0201018918 0.102668643
v -0.00936381891 -0.0100724436 0.113218918
v 0.00950441789 -0.0100724436 0.113218918
v -0.00936382543 -0.0209263247 0.112288855
v 7.02976613E-05 -0.00464557949 0.113683887
v 7.0299764E-05 -0.0263531134 0.111823916
v 0.00950442534 -0.0209261719 0.112288818
v 7.02944817E-05 -0.0283808541 0.10680481
v 0.00950442534 -0.0209261719 0.112288818
v 0.0116251772 -0.0217339732 0.107374229
v 7.0299764E-05 -0.0263531134 0.111823916
v 0.00950441789 -0.0100724436 0.113218918
v 0.0116251875 -0.00844036415 0.108513407
v 7.02971884E-05 -0.0255288333 0.102203593
v 0.00950441323 -0.0201018918 0.102668643
v 0.00950442441 -0.00924816448 0.103598706
v 7.02976613E-05 -0.00464557949 0.113683887
v 7.02955949E-05 -0.00179340644 0.109082907
v 0.00950441789 -0.0100724436 0.113218918
v 0.00950442441 -0.00924816448 0.103598706
v 7.03093829E-05 -0.00382122328 0.104063645
v 7.02905818E-05 -0.0231161136 0.237496033
v -0.00936383381 -0.0323540904 0.236938477
v -0.0114845978 -0.0285877623 0.233679384
v 7.0292801E-05 -0.0278866217 0.240054652
v -0.0093638422 -0.0412887223 0.230706021
v -0.0114846146 -0.0395309068 0.226045981
v 7.02890466E-05 -0.0223627109 0.232135385
v -0.00936383754 -0.0268299505 0.229019195
v -0.00936384592 -0.0357647352 0.222786859
v 7.02863108E-05 -0.0457559638 0.22758998
v 7.02752295E-05 -0.0450025611 0.222229347
v -0.0093638422 -0.0412887223 0.230706021
v -0.00936384592 -0.0357647352 0.222786859
v 7.02730104E-05 -0.0402320512 0.219670743
v 7.02752295E-05 -0.0450025611 0.222229347
v 0.00950442255 -0.0412887223 0.230706096
v 0.0116251642 -0.0395309068 0.226045907
v 7.02863108E-05 -0.0457559638 0.22758998
v 0.00950441137 -0.0323540904 0.236938477
v 0.011625181 -0.0285877623 0.233679384
v 7.02730104E-05 -0.0402320512 0.219670743
v 0.00950440951 -0.0357647352 0.222786859
v 0.00950441789 -0.0268299505 0.229019195
v 7.0292801E-05 -0.0278866217 0.240054652
v 7.02905818E-05 -0.0231161136 0.237496033
v 0.00950441789 -0.0268299505 0.229019195
v 7.02890466E-05 -0.0223627109 0.232135385
v 0.00950441137 -0.0323540904 0.236938477
v 7.0292801E-05 -0.0278866217 0.240054652
v -0.0093638422 -0.0412887223 0.230706021
v 7.0292801E-05 -0.0278866217 0.240054652
v 0.00950441137 -0.0323540904 0.236938477
v -0.00936383381 -0.0323540904 0.236938477
v 7.02863108E-05 -0.0457559638 0.22758998
v 0.00950442255 -0.0412887223 0.230706096
v -0.00936383754 -0.0268299505 0.229019195
v 0.00950441789 -0.0268299505 0.229019195
v 7.02890466E-05 -0.0223627109 0.232135385
v -0.00936384592 -0.0357647352 0.222786859
v 0.00950440951 -0.0357647352 0.222786859
v 7.02730104E-05 -0.0402320512 0.219670743
v 0.00480899308 -0.10203968 0.127601236
v -2.88770309E-07 -0.105072513 0.130714789
v 0.00480898982 -0.102326542 0.130950123
v -2.89667952E-07 -0.104785576 0.127365991
v 0.00480899168 -0.0965477377 0.128071785
v 0.00480901636 -0.0968345255 0.131420702
v -2.93144666E-07 -0.0938018411 0.128307194
v -2.9224708E-07 -0.0940887034 0.131656036
v -2.9224708E-07 -0.0940887034 0.131656036
v 0.00480898982 -0.102326542 0.130950123
v -2.88770309E-07 -0.105072513 0.130714789
v 0.00480901636 -0.0968345255 0.131420702
v 0.00480899168 -0.0965477377 0.128071785
v -2.89667952E-07 -0.104785576 0.127365991
v 0.00480899308 -0.10203968 0.127601236
v -2.93144666E-07 -0.0938018411 0.128307194
v -0.00480957516 -0.10203968 0.127601236
v -2.88770309E-07 -0.105072513 0.130714789
v -2.89667952E-07 -0.104785576 0.127365991
v -0.0048095691 -0.102326542 0.130950123
v -0.00480957655 -0.0965477377 0.128071785
v -0.00480959937 -0.0968345255 0.131420702
v -2.93144666E-07 -0.0938018411 0.128307194
v -2.9224708E-07 -0.0940887034 0.131656036
v -2.9224708E-07 -0.0940887034 0.131656036
v -0.0048095691 -0.102326542 0.130950123
v -0.00480959937 -0.0968345255 0.131420702
v -2.88770309E-07 -0.105072513 0.130714789
v -0.00480957655 -0.0965477377 0.128071785
v -2.89667952E-07 -0.104785576 0.127365991
v -2.93144666E-07 -0.0938018411 0.128307194
v -0.00480957516 -0.10203968 0.127601236
vt 0.0393264629 0.30398941
vt 0.0693963766 0.308475256
vt 0.0697327331 0.0470671654
vt 0.036783807 0.462984324
vt 0.0193639472 0.484773636
vt 0.0220664255 0.291321516
vt 0.0697327331 0.0470671654
vt 0.0689026415 0.6116395
vt 0.0692096278 0.454645872
vt 0.0689026415 0.6116395
vt 0.0994759202 0.305298805
vt 0.101611108 0.464396954
vt 0.118962944 0.48698616
vt 0.116767526 0.293387413
vt 0.0697327331 0.0470671654
vt 0.0689026415 0.6116395
vt 0.0393264629 0.30398941
vt 0.0693963766 0.308475256
vt 0.0220664255 0.291321516
vt 0.0193639472 0.484773636
vt 0.036783807 0.462984324
vt 0.0689026415 0.6116395
vt 0.0692096278 0.454645872
vt 0.0689026415 0.6116395
vt 0.101611108 0.464396954
vt 0.0994759202 0.305298805
vt 0.118962944 0.48698616
vt 0.116767526 0.293387413
vt 0.0689026415 0.6116395
vt 0.985420406 0.226503611
vt 0.953525245 0.278325558
vt 0.967662871 0.31843257
vt 0.99571681 0.0263259411
vt 0.826510847 0.104953766
vt 0.770467401 0.363929987
vt 0.826776266 0.0848708153
vt 0.781716108 0.0292630196
vt 0.782913566 0.0414330959
vt 0.775103033 0.111355782
vt 0.771919191 0.0998079777
vt 0.781716108 0.0292630196
vt 0.994428635 0.0058567524
vt 0.987596333 0.242534161
vt 0.968210101 0.330712557
vt 0.952655375 0.295133829
vt 0.770658731 0.381598949
vt 0.676076293 0.402124166
vt 0.674955547 0.25606966
vt 0.745274663 0.231679678
vt 0.764060199 0.145304203
vt 0.558000565 0.299774408
vt 0.558714747 0.44682169
vt 0.434175432 0.367296696
vt 0.431286633 0.299771547
vt 0.557577193 0.223188877
vt 0.296361446 0.420511007
vt 0.298636585 0.492160559
vt 0.186996743 0.551689625
vt 0.193761364 0.613835096
vt 0.0917998552 0.761839151
vt 0.0838525593 0.710758924
vt 0.440303326 0.511819124
vt 0.339265645 0.597068787
vt 0.106196024 0.851353645
vt 0.206289396 0.727289915
vt 0.039510943 0.879678965
vt 0.0328205004 0.843622446
vt 0.00434172573 0.994258881
vt 0.00376146054 0.973751545
vt 0.00434172573 0.994258881
vt 0.107534662 0.867774963
vt 0.441009164 0.528931379
vt 0.559155583 0.464062214
vt 0.676440358 0.419376612
vt 0.339570701 0.613953352
vt 0.30042544 0.582335711
vt 0.301446408 0.598645926
vt 0.280496567 0.641085148
vt 0.282191753 0.656349659
vt 0.207575858 0.743814707
vt 0.369427294 0.173272848
vt 0.409678578 0.141910553
vt 0.408288956 0.121850967
vt 0.41147995 0.111246347
vt 0.369305819 0.049230814
vt 0.369235486 0.0663635731
vt 0.347363979 0.0906162262
vt 0.348370761 0.109179258
vt 0.291200727 0.0983734131
vt 0.291049182 0.117349386
vt 0.207954466 0.074202776
vt 0.207381755 0.0928556919
vt 0.173572749 0.0494570732
vt 0.172662824 0.0702652931
vt 0.205866247 0.140555859
vt 0.177539796 0.112609863
vt 0.291064411 0.166861534
vt 0.349606246 0.146642447
vt 0.294166178 0.244256735
vt 0.353943199 0.220615387
vt 0.35556224 0.260728121
vt 0.365353018 0.234083176
vt 0.295048058 0.291329145
vt 0.355617851 0.279762745
vt 0.384419531 0.291962147
vt 0.382685572 0.276812792
vt 0.413744688 0.144284248
vt 0.41147995 0.111246347
vt 0.295295417 0.310065746
vt 0.204887867 0.282529593
vt 0.204431742 0.301271439
vt 0.142951712 0.234649897
vt 0.143300191 0.252939224
vt 0.206099868 0.23815155
vt 0.159892932 0.22174716
vt 0.362803012 0.179245234
vt 0.358325273 0.125145912
vt 0.674563646 0.180404186
vt 0.744269192 0.154903889
vt 0.762616932 0.134697676
vt 0.771919191 0.0998079777
vt 0.558000565 0.299774408
vt 0.434175432 0.367296696
vt 0.298636585 0.492160559
vt 0.193761364 0.613835096
vt 0.0917998552 0.761839151
vt 0.558714747 0.44682169
vt 0.440303326 0.511819124
vt 0.339265645 0.597068787
vt 0.106196024 0.851353645
vt 0.206289396 0.727289915
vt 0.039510943 0.879678965
vt 0.107534662 0.867774963
vt 0.559155583 0.464062214
vt 0.676440358 0.419376612
vt 0.676076293 0.402124166
vt 0.674955547 0.25606966
vt 0.770467401 0.363929987
vt 0.745274663 0.231679678
vt 0.764060199 0.145304203
vt 0.770658731 0.381598949
vt 0.952655375 0.295133829
vt 0.953525245 0.278325558
vt 0.826510847 0.104953766
vt 0.99571681 0.0263259411
vt 0.985420406 0.226503611
vt 0.967662871 0.31843257
vt 0.826776266 0.0848708153
vt 0.781716108 0.0292630196
vt 0.782913566 0.0414330959
vt 0.775103033 0.111355782
vt 0.771919191 0.0998079777
vt 0.781716108 0.0292630196
vt 0.994428635 0.0058567524
vt 0.987596333 0.242534161
vt 0.968210101 0.330712557
vt 0.987596333 0.242534161
vt 0.968210101 0.330712557
vt 0.762616932 0.134697676
vt 0.744269192 0.154903889
vt 0.771919191 0.0998079777
vt 0.987596333 0.242534161
vt 0.968210101 0.330712557
vt 0.30042544 0.582335711
vt 0.280496567 0.641085148
vt 0.301446408 0.598645926
vt 0.339570701 0.613953352
vt 0.441009164 0.528931379
vt 0.282191753 0.656349659
vt 0.207575858 0.743814707
vt 0.369427294 0.173272848
vt 0.408288956 0.121850967
vt 0.409678578 0.141910553
vt 0.41147995 0.111246347
vt 0.369305819 0.049230814
vt 0.369235486 0.0663635731
vt 0.347363979 0.0906162262
vt 0.348370761 0.109179258
vt 0.291200727 0.0983734131
vt 0.291049182 0.117349386
vt 0.207954466 0.074202776
vt 0.207381755 0.0928556919
vt 0.173572749 0.0494570732
vt 0.172662824 0.0702652931
vt 0.205866247 0.140555859
vt 0.177539796 0.112609863
vt 0.291064411 0.166861534
vt 0.349606246 0.146642447
vt 0.294166178 0.244256735
vt 0.353943199 0.220615387
vt 0.35556224 0.260728121
vt 0.365353018 0.234083176
vt 0.295048058 0.291329145
vt 0.355617851 0.279762745
vt 0.384419531 0.291962147
vt 0.382685572 0.276812792
vt 0.413744688 0.144284248
vt 0.41147995 0.111246347
vt 0.295295417 0.310065746
vt 0.204887867 0.282529593
vt 0.204431742 0.301271439
vt 0.142951712 0.234649897
vt 0.143300191 0.252939224
vt 0.206099868 0.23815155
vt 0.159892932 0.22174716
vt 0.362803012 0.179245234
vt 0.358325273 0.125145912
vt 0.237401143 0.952040672
vt 0.183755532 0.919629574
vt 0.183908835 0.952132225
vt 0.237318382 0.92029953
vt 0.237485334 0.98394537
vt 0.184078172 0.984283447
vt 0.183947578 0.887126684
vt 0.237435117 0.888562679
vt 0.184161142 0.854977846
vt 0.237563327 0.856661558
vt 0.289891064 0.953009605
vt 0.289876699 0.921055317
vt 0.289890766 0.98497963
vt 0.289911509 0.889100075
vt 0.289947093 0.857127666
vt 0.343278706 0.954002857
vt 0.343144715 0.921660423
vt 0.343386233 0.986105919
vt 0.343271255 0.889307737
vt 0.343388379 0.857196569
vt 0.399263859 0.955254078
vt 0.398375511 0.921718121
vt 0.400189519 0.987670422
vt 0.399211228 0.888153553
vt 0.400099337 0.855708838
vt 0.459344506 0.949047565
vt 0.45928818 0.921292782
vt 0.459392726 0.980225563
vt 0.459240198 0.893189192
vt 0.459168375 0.861699581
vt 0.509504974 0.952020168
vt 0.45928818 0.921292782
vt 0.459344506 0.949047565
vt 0.510251999 0.918239117
vt 0.508710742 0.984528065
vt 0.459392726 0.980225563
vt 0.459240198 0.893189192
vt 0.509307921 0.884549618
vt 0.459168375 0.861699581
vt 0.508305669 0.852133751
vt 0.549453139 0.94816494
vt 0.549468338 0.91578722
vt 0.549473464 0.980285168
vt 0.549227059 0.883419991
vt 0.549006701 0.851305962
vt 0.585062683 0.945189953
vt 0.58501327 0.913311481
vt 0.585126936 0.977136135
vt 0.58481586 0.881442547
vt 0.584620774 0.849498034
vt 0.622345805 0.94251585
vt 0.622343004 0.910604477
vt 0.622343898 0.974480152
vt 0.622086346 0.878709793
vt 0.621816576 0.846764803
vt 0.666860163 0.939947128
vt 0.666879356 0.907419443
vt 0.666824579 0.972111702
vt 0.666591942 0.8749125
vt 0.666286409 0.8427701
vt 0.691386461 0.867430449
vt 0.75435251 0.962055683
vt 0.752092302 0.863583088
vt 0.701680541 0.989700794
vt 0.809226692 0.958297253
vt 0.810915768 0.871442318
vt 0.699331403 0.754118443
vt 0.753669381 0.777333498
vt 0.808699787 0.773253202
vt 0.863527954 0.982819557
vt 0.871593714 0.869796276
vt 0.809226692 0.958297253
vt 0.808699787 0.773253202
vt 0.861394465 0.746687889
vt 0.986817837 0.798725367
vt 0.915754914 0.630289316
vt 0.891913474 0.798725367
vt 0.963207006 0.630289316
vt 0.915524304 0.967159271
vt 0.962976158 0.967159271
vt 0.915524304 0.967159271
vt 0.986817837 0.798725367
vt 0.891913474 0.798725367
vt 0.962976158 0.967159271
vt 0.915754914 0.630289316
vt 0.963207006 0.630289316
vt 0.691400707 0.867353201
vt 0.754216552 0.963636398
vt 0.752111137 0.865104198
vt 0.701501966 0.989891052
vt 0.809095681 0.961324692
vt 0.810921013 0.874515772
vt 0.699523509 0.754247904
vt 0.753823519 0.778898478
vt 0.808859169 0.776272297
vt 0.863357663 0.987278938
vt 0.871600211 0.874471664
vt 0.809095681 0.961324692
vt 0.808859169 0.776272297
vt 0.861594796 0.751095057
vt 0.691392601 0.865697861
vt 0.754232824 0.961484909
vt 0.752084196 0.862999678
vt 0.701545715 0.988126278
vt 0.809095025 0.958764553
vt 0.810881197 0.871967077
vt 0.699462235 0.752570629
vt 0.753757834 0.77680397
vt 0.808776259 0.77376771
vt 0.863352597 0.984305859
vt 0.87154299 0.871466398
vt 0.809095025 0.958764553
vt 0.808776259 0.77376771
vt 0.861485302 0.748203516
vt 0.691392601 0.865697861
vt 0.75411588 0.962763786
vt 0.752086639 0.864234924
vt 0.70139724 0.988334179
vt 0.808980644 0.961161613
vt 0.810872197 0.874399424
vt 0.699599147 0.752734661
vt 0.753864586 0.778073788
vt 0.808886349 0.776160955
vt 0.863206565 0.98780632
vt 0.871533453 0.875135183
vt 0.808886349 0.776160955
vt 0.86162585 0.751668692
vt 0.808980644 0.961161613
vt 0.863206565 0.98780632
vt 0.891913474 0.798725367
vt 0.962976158 0.967159271
vt 0.986817837 0.798725367
vt 0.915524304 0.967159271
vt 0.915754914 0.630289316
vt 0.963207006 0.630289316
vt 0.915754914 0.630289316
vt 0.986817837 0.798725367
vt 0.963207006 0.630289316
vt 0.891913474 0.798725367
vt 0.962976158 0.967159271
vt 0.915524304 0.967159271
vt 0.856760502 0.504541159
vt 0.844771743 0.423956394
vt 0.844771743 0.504541159
vt 0.856760502 0.42395854
vt 0.856760502 0.585126877
vt 0.844771743 0.585125446
vt 0.856760025 0.665710449
vt 0.844771743 0.665710449
vt 0.866995573 0.655983925
vt 0.888802171 0.500870228
vt 0.866952777 0.449262857
vt 0.888823628 0.604226828
vt 0.888878107 0.501047611
vt 0.866995573 0.655983925
vt 0.888848782 0.604409218
vt 0.867053747 0.449266195
vt 0.856760502 0.504541159
vt 0.844771743 0.423956394
vt 0.856760502 0.42395854
vt 0.844771743 0.504541159
vt 0.856760502 0.585126877
vt 0.844771743 0.585125446
vt 0.856760025 0.665710449
vt 0.844771743 0.665710449
vt 0.866995573 0.655983925
vt 0.888802171 0.500870228
vt 0.888823628 0.604226828
vt 0.866952777 0.449262857
vt 0.888878107 0.501047611
vt 0.866995573 0.655983925
vt 0.867053747 0.449266195
vt 0.888848782 0.604409218
vn 0.7129125 -0.342486441 0.61193037
vn 0.968116999 -0.249583915 -0.0213860888
vn -0 -0.996349096 -0.0853720754
vn 0.685082197 0.303773254 0.662105858
vn -0 0.285459727 0.958390713
vn 1.25826205E-07 -0.411981672 0.911192119
vn -0 -0.996349096 -0.0853720754
vn -1.84037461E-07 0.996262729 0.086374566
vn 0.940646231 0.338161141 0.0288411584
vn -1.84037461E-07 0.996262729 0.086374566
vn 0.712913454 -0.233394995 -0.661272466
vn 0.68481636 0.41263929 -0.600629091
vn -0 0.445018858 -0.895521224
vn -0 -0.250970483 -0.967994809
vn -0 -0.996349096 -0.0853720754
vn -1.84037461E-07 0.996262729 0.086374566
vn -0.712912321 -0.342486858 0.61193043
vn -0.968116879 -0.249584466 -0.0213857237
vn 1.25826205E-07 -0.411981672 0.911192119
vn -0 0.285459727 0.958390713
vn -0.685082197 0.303772897 0.662106037
vn -1.84037461E-07 0.996262729 0.086374566
vn -0.94064635 0.338160664 0.0288414992
vn -1.84037461E-07 0.996262729 0.086374566
vn -0.684816658 0.412639141 -0.600628972
vn -0.712913573 -0.233395457 -0.661272049
vn -0 0.445018858 -0.895521224
vn -0 -0.250970483 -0.967994809
vn -1.84037461E-07 0.996262729 0.086374566
vn 0.803714752 0.580581367 -0.13026084
vn 0.82926929 0.50753969 0.233914316
vn 0.610356867 0.792121351 -0.00287851319
vn 0.723321378 -0.687140048 0.0681524724
vn 0.878783226 -0.457448572 -0.135943905
vn 0.747609735 0.661907971 0.0543824658
vn -0 -0.953397036 -0.301718652
vn -0 -0.966382205 0.257109672
vn 0.690046132 -0.699340284 0.186438441
vn 0.793842971 -0.450748891 0.408213943
vn -0 -0.743659258 0.668558836
vn -0 -0.966382205 0.257109672
vn -0 -0.996822357 -0.0796570405
vn -0 0.903567016 -0.428446621
vn -0 0.999982834 -0.0058665406
vn -0 0.908845842 0.417132109
vn -0 0.996276319 0.086217612
vn 0.741841793 0.667317629 0.066015251
vn 0.992723644 -0.119774826 -0.0123974718
vn 0.995256841 -0.0972514302 -0.00243527349
vn 0.775234342 -0.612885535 0.152914837
vn 0.992033303 -0.125651881 -0.00902590062
vn 0.746208251 0.663768232 0.0508434735
vn 0.99109894 -0.13312678 -0.000471703272
vn 4.33336965E-07 -0.999991179 -0.00421899511
vn 2.24975551E-07 -0.997164071 -0.0752581581
vn 4.25660801E-07 -0.99750632 0.0705781356
vn 0.991177201 -0.132133812 0.0104124453
vn -0 -0.989385545 0.145314172
vn 0.990138292 -0.138675272 0.0198839363
vn 0.989742517 -0.135292083 0.0458896533
vn 3.64638879E-07 -0.961329222 0.27540186
vn 0.749444127 0.661997557 0.00963610597
vn 0.710476935 0.697981238 0.0896922201
vn 0.731643319 0.676488817 -0.0840294585
vn 0.741494417 0.666794181 -0.0746427551
vn 0.990372419 -0.104429998 0.0908669457
vn 4.18550542E-07 -0.870197296 0.492703348
vn 4.19689059E-07 -0.64342308 0.765510857
vn 3.23967868E-07 -0.761418462 0.648260653
vn 4.19689059E-07 -0.64342308 0.765510857
vn -0 0.991589487 -0.129423276
vn -0 0.999892831 0.0146387946
vn -0 0.997101843 0.0760775656
vn -0 0.995167732 0.0981895104
vn -0 0.99153018 0.129877001
vn 0.823159993 0.565378249 -0.0524877198
vn -0 0.995182455 -0.0980394185
vn 0.702735007 0.682549238 -0.200723976
vn -0 0.958976746 -0.283484787
vn -0 0.993830621 -0.11090856
vn 0.97303617 -0.116464056 -0.199089557
vn 0.772704065 -0.037623737 -0.633650541
vn 0.773987472 -0.558949709 -0.297520787
vn -0 -0.860688925 -0.509131372
vn -0 -0.921697617 0.387908936
vn 0.765029967 -0.587210715 0.264409989
vn -0 -0.821948469 0.569561779
vn 0.598259628 -0.728386343 0.333974123
vn -0 -0.967454672 0.253044397
vn 0.406898171 -0.885215282 0.225450307
vn -0 -0.999472439 0.0324776284
vn 0.444684148 -0.894702613 0.0419921428
vn -0 -0.996822357 -0.0796570405
vn 0.723321378 -0.687140048 0.0681524724
vn 0.934082448 -0.355588228 0.0323549025
vn 0.91448772 -0.350822806 0.201582342
vn 0.925353825 -0.369436443 0.0850712806
vn 0.881310046 -0.472534597 -0.00191876432
vn 0.910701513 0.391713411 -0.131086111
vn 0.896823227 0.297519535 -0.327399254
vn 0.577771842 0.765627682 -0.282832205
vn 0.952231467 0.129140466 -0.276727349
vn 0.407561094 0.873095095 -0.267579615
vn -0 0.978111029 -0.208083808
vn -1.11602183E-07 0.808550656 -0.58842653
vn 0.756248176 0.540255487 -0.369069993
vn -0 -0.101245038 -0.994861543
vn -0 -0.860688925 -0.509131372
vn -0 0.957609236 -0.28807053
vn 0.359668076 0.923565924 -0.132909
vn -0 0.990063727 -0.140619338
vn 0.803714752 0.580581367 -0.13026084
vn -0 0.903567016 -0.428446621
vn 0.903699338 0.424602568 -0.0551380441
vn 0.925838292 0.307467282 0.219743922
vn 0.873198807 -0.251848996 -0.417247891
vn 0.933041155 -0.351897299 -0.0748504326
vn 1.51243768E-07 -0.994575143 -0.104020081
vn 3.61781844E-07 -0.983095467 0.183094054
vn -0 -0.979617298 0.200872838
vn -0 -0.743659258 0.668558836
vn -0.992033303 -0.125652581 -0.00902542844
vn -0.991098821 -0.133127451 -0.000471229607
vn -0.991177082 -0.132134467 0.0104129156
vn -0.990138173 -0.138675898 0.0198844057
vn -0.989742398 -0.135292724 0.0458901152
vn -0.746208429 0.663767934 0.0508438461
vn -0.749444306 0.661997259 0.00963647664
vn -0.710477173 0.697981 0.0896925405
vn -0.731643558 0.676488578 -0.0840291381
vn -0.741494715 0.666794002 -0.0746424496
vn -0.9903723 -0.104430616 0.0908674002
vn -0 0.991589487 -0.129423276
vn -0 0.997101843 0.0760775656
vn -0 0.995167732 0.0981895104
vn -0.741842031 0.667317331 0.066015631
vn -0.992723644 -0.119775489 -0.0123969996
vn -0.747609913 0.661907673 0.054382842
vn -0.995256841 -0.0972521082 -0.00243479456
vn -0.775234103 -0.612885833 0.152915195
vn -0 0.996276319 0.086217612
vn -0 0.908845842 0.417132109
vn -0.829269409 0.507539272 0.233914852
vn -0.878783107 -0.457449079 -0.135943413
vn -0.72332108 -0.687140286 0.0681527555
vn -0.803714991 0.580581069 -0.130260557
vn -0.610357046 0.792121112 -0.00287843193
vn -0 -0.953397036 -0.301718652
vn -0 -0.966382205 0.257109672
vn -0.690045834 -0.699340582 0.186438665
vn -0.793842793 -0.450749218 0.408214152
vn -0 -0.743659258 0.668558836
vn -0 -0.966382205 0.257109672
vn -0 -0.996822357 -0.0796570405
vn -0 0.903567016 -0.428446621
vn -0 0.999982834 -0.0058665406
vn -0 0.903567016 -0.428446621
vn -0 0.999982834 -0.0058665406
vn -0 -0.979617298 0.200872838
vn 3.61781844E-07 -0.983095467 0.183094054
vn -0 -0.743659258 0.668558836
vn -0 0.903567016 -0.428446621
vn -0 0.999982834 -0.0058665406
vn -0.823160231 0.565377951 -0.0524873137
vn -0.702735305 0.682549 -0.200723723
vn -0 0.995182455 -0.0980394185
vn -0 0.99153018 0.129877001
vn -0 0.999892831 0.0146387946
vn -0 0.958976746 -0.283484787
vn -0 0.993830621 -0.11090856
vn -0.97303617 -0.116464742 -0.19908914
vn -0.773987412 -0.558950007 -0.297520518
vn -0.772704184 -0.037624117 -0.633650303
vn -0 -0.860688925 -0.509131372
vn -0 -0.921697617 0.387908936
vn -0.765029669 -0.587211072 0.264410317
vn -0 -0.821948469 0.569561779
vn -0.59825933 -0.728386402 0.333974332
vn -0 -0.967454672 0.253044397
vn -0.406897992 -0.885215282 0.225450441
vn -0 -0.999472439 0.0324776284
vn -0.444683969 -0.894702673 0.0419923514
vn -0 -0.996822357 -0.0796570405
vn -0.72332108 -0.687140286 0.0681527555
vn -0.934082389 -0.355588675 0.0323553421
vn -0.914487541 -0.350823283 0.201582685
vn -0.925353587 -0.36943683 0.0850716531
vn -0.881309807 -0.472534984 -0.00191836501
vn -0.910701573 0.391712934 -0.131085694
vn -0.896823406 0.297519147 -0.327399045
vn -0.577771962 0.765627503 -0.282832056
vn -0.952231586 0.129139856 -0.276727021
vn -0.407561272 0.873095036 -0.267579585
vn -0 0.978111029 -0.208083808
vn -1.11602183E-07 0.808550656 -0.58842653
vn -0.756248474 0.540255249 -0.369069844
vn -0 -0.101245038 -0.994861543
vn -0 -0.860688925 -0.509131372
vn -0 0.957609236 -0.28807053
vn -0.359668195 0.923565924 -0.132908851
vn -0 0.990063727 -0.140619338
vn -0.803714991 0.580581069 -0.130260557
vn -0 0.903567016 -0.428446621
vn -0.903699517 0.424602151 -0.0551376157
vn -0.925838292 0.307466984 0.219744161
vn -0.873198926 -0.251849413 -0.417247623
vn -0.933040917 -0.351897776 -0.0748499259
vn 0.999632239 -0.0199793167 0.0183372162
vn 1.59392166E-05 -0.691122115 0.722737908
vn 1 1.40555335E-06 -6.77677519E-07
vn 4.19771595E-06 -0.736727178 0.676190138
vn -4.81528832E-06 0.736728549 -0.676188588
vn 5.79627454E-07 0.691123903 -0.722736239
vn -1 -9.78850221E-06 1.24238677E-05
vn -0.999632001 -0.0199845452 0.0183435492
vn 5.79627454E-07 0.691123903 -0.722736239
vn -4.81528832E-06 0.736728549 -0.676188588
vn 0.999666452 -0.0210883021 0.0149062928
vn 1.28704755E-06 -0.816575408 0.577238858
vn -7.61263891E-07 0.816574275 -0.577240288
vn -0.999666452 -0.021089755 0.014908419
vn -7.61263891E-07 0.816574275 -0.577240288
vn 0.999746501 -0.0197681934 0.0107790092
vn 5.065761E-07 -0.877952337 0.478748053
vn 1.9801476E-07 0.87795186 -0.478748947
vn -0.999746501 -0.0197672043 0.010779568
vn 1.9801476E-07 0.87795186 -0.478748947
vn 0.999836087 -0.0166631993 0.00707915705
vn -7.11067571E-07 -0.920387506 0.391007274
vn 8.24030565E-07 0.920388162 -0.391005874
vn -0.999836087 -0.016662145 0.00707937684
vn 8.24030565E-07 0.920388162 -0.391005874
vn 0.951854169 -0.287085623 0.107495926
vn -4.6139391E-07 -0.936501503 0.350663543
vn -1.09853693E-06 0.936501265 -0.350664079
vn -0.951854408 -0.287085116 0.107496202
vn -1.09853693E-06 0.936501265 -0.350664079
vn 0.999740064 -0.00965266302 -0.0206552763
vn -2.76833731E-07 -0.47233659 -0.881418347
vn 0.951859355 -0.144787133 -0.270185679
vn -2.68305286E-07 -0.423352897 -0.905964792
vn -3.95901026E-07 0.423352927 0.905964792
vn -1.81676387E-06 0.472337604 0.881417692
vn -0.951859474 -0.144787461 -0.270185411
vn -0.999740064 -0.00965309702 -0.0206553787
vn -1.81676387E-06 0.472337604 0.881417692
vn -3.95901026E-07 0.423352927 0.905964792
vn 0.99942565 -0.0100396629 -0.032366883
vn -9.98823225E-07 -0.296270192 -0.955104113
vn 2.51809547E-06 0.296271592 0.955103695
vn -0.999425769 -0.0100392634 -0.0323645435
vn 2.51809547E-06 0.296271592 0.955103695
vn 0.999437511 -0.00463003106 -0.0332129523
vn -1.78485504E-06 -0.138092265 -0.990419328
vn 3.55447582E-06 0.138093084 0.990419209
vn -0.999437749 -0.00462896517 -0.0332060084
vn 3.55447582E-06 0.138093084 0.990419209
vn 0.999784529 -0.000166185113 -0.0207601935
vn -1.2189862E-06 -0.00797161553 -0.99996829
vn 2.21028154E-06 0.00797065999 0.99996829
vn -0.999784529 -0.000165958612 -0.0207574721
vn 2.21028154E-06 0.00797065999 0.99996829
vn 1 -1.13258125E-06 1.72679429E-05
vn -1.10127087E-06 0.0418898202 -0.999122202
vn 8.11483403E-07 -0.0418903828 0.999122202
vn -1 -8.80024515E-07 1.91252384E-05
vn 8.11483403E-07 -0.0418903828 0.999122202
vn 1.09180883E-06 0.996348739 0.0853757858
vn -0.543272913 0.246025577 0.802699149
vn -0.866024196 0.498176366 0.0426899493
vn 8.38839128E-07 0.558538616 0.829478562
vn -0.54327482 -0.379007548 0.749136686
vn -0.866027474 -0.498170972 -0.0426862463
vn 2.2675149E-06 0.691512048 -0.722364962
vn -0.543276548 0.37899664 -0.749140978
vn -0.543277085 -0.246032223 -0.80269438
vn 2.46478976E-06 -0.691514969 0.72236222
vn 5.59892442E-07 -0.996349573 -0.0853665024
vn -0.54327482 -0.379007548 0.749136686
vn -0.543277085 -0.246032223 -0.80269438
vn 1.83500276E-07 -0.558549821 -0.829471052
vn 0.543277979 0.379000187 -0.749138117
vn -0.543276548 0.37899664 -0.749140978
vn -0.543277085 -0.246032223 -0.80269438
vn 2.2675149E-06 0.691512048 -0.722364962
vn 1.83500276E-07 -0.558549821 -0.829471052
vn 0.543277919 -0.246030957 -0.802694142
vn -0.543272913 0.246025577 0.802699149
vn 0.543272376 0.246027142 0.802699029
vn -0.54327482 -0.379007548 0.749136686
vn 8.38839128E-07 0.558538616 0.829478562
vn 2.46478976E-06 -0.691514969 0.72236222
vn 0.543277025 -0.37899974 0.749138951
vn 5.59892442E-07 -0.996349573 -0.0853665024
vn 0.543277025 -0.37899974 0.749138951
vn 0.866025984 -0.498173922 -0.0426833965
vn 2.46478976E-06 -0.691514969 0.72236222
vn 0.543272376 0.246027142 0.802699029
vn 0.866026759 0.498171598 0.0426927507
vn 1.83500276E-07 -0.558549821 -0.829471052
vn 0.543277919 -0.246030957 -0.802694142
vn 0.543277979 0.379000187 -0.749138117
vn 8.38839128E-07 0.558538616 0.829478562
vn 1.09180883E-06 0.996348739 0.0853757858
vn 0.543272376 0.246027142 0.802699029
vn 0.543277979 0.379000187 -0.749138117
vn 2.2675149E-06 0.691512048 -0.722364962
vn -0 0.820177674 0.572108924
vn -0.543275893 -0.188286394 0.818168402
vn -0.866024971 0.410088748 0.286055893
vn 1.17963296E-07 0.068977192 0.997618139
vn -0.543275476 -0.702796936 0.459269345
vn -0.866027415 -0.410086721 -0.286051601
vn -0 0.960050344 -0.279827356
vn -0.543274641 0.702794254 -0.459274143
vn -0.543276489 0.188275784 -0.818170428
vn -5.31423666E-07 -0.960049927 0.279828787
vn -1.1897821E-06 -0.820179224 -0.572106659
vn -0.543275476 -0.702796936 0.459269345
vn -0.543276489 0.188275784 -0.818170428
vn -1.48108563E-06 -0.0689804479 -0.99761802
vn -1.1897821E-06 -0.820179224 -0.572106659
vn 0.543276012 -0.702795267 0.459271014
vn 0.866024792 -0.410087764 -0.286057711
vn -5.31423666E-07 -0.960049927 0.279828787
vn 0.543277621 -0.188285455 0.818167448
vn 0.866025448 0.410089195 0.286054045
vn -1.48108563E-06 -0.0689804479 -0.99761802
vn 0.543274999 0.188276291 -0.818171382
vn 0.543274701 0.7027933 -0.459275723
vn 1.17963296E-07 0.068977192 0.997618139
vn -0 0.820177674 0.572108924
vn 0.543274701 0.7027933 -0.459275723
vn -0 0.960050344 -0.279827356
vn 0.543277621 -0.188285455 0.818167448
vn 1.17963296E-07 0.068977192 0.997618139
vn -0.543275476 -0.702796936 0.459269345
vn 1.17963296E-07 0.068977192 0.997618139
vn 0.543277621 -0.188285455 0.818167448
vn -0.543275893 -0.188286394 0.818168402
vn -5.31423666E-07 -0.960049927 0.279828787
vn 0.543276012 -0.702795267 0.459271014
vn -0.543274641 0.702794254 -0.459274143
vn 0.543274701 0.7027933 -0.459275723
vn -0 0.960050344 -0.279827356
vn -0.543276489 0.188275784 -0.818170428
vn 0.543274999 0.188276291 -0.818171382
vn -1.48108563E-06 -0.0689804479 -0.99761802
vn 0.865215063 -0.499570757 -0.0428010896
vn 1.31202768E-07 -0.996350169 -0.0853591934
vn 0.865221322 -0.499559999 -0.0428001657
vn -0 -0.996350169 -0.0853591934
vn 0.86522305 0.499558508 0.0427835323
vn 0.865208447 0.499583513 0.0427856743
vn -1.31199641E-07 0.996352434 0.0853340849
vn -0 0.996352434 0.0853340849
vn 1.35492803E-06 -0.0853774548 0.996348619
vn 1.35492803E-06 -0.0853774473 0.996348619
vn 1.35492803E-06 -0.0853774473 0.996348619
vn 1.35492814E-06 -0.0853774473 0.996348619
vn -1.58043622E-05 0.0853736624 -0.996348977
vn -1.58043622E-05 0.0853736773 -0.996348977
vn -1.58043604E-05 0.0853736699 -0.996348977
vn -1.58043604E-05 0.0853736624 -0.996348977
vn -0.865214884 -0.499571085 -0.0428005718
vn 1.31202768E-07 -0.996350169 -0.0853591934
vn -0 -0.996350169 -0.0853591934
vn -0.865221143 -0.499560416 -0.0427996628
vn -0.865223229 0.499558091 0.0427840091
vn -0.865208566 0.499583215 0.0427861661
vn -1.31199641E-07 0.996352434 0.0853340849
vn -0 0.996352434 0.0853340849
vn -1.35492792E-06 -0.0853774324 0.996348619
vn -1.3549278E-06 -0.0853774324 0.996348619
vn -1.3549278E-06 -0.085377425 0.996348619
vn -1.35492792E-06 -0.0853774324 0.996348619
vn 1.58043567E-05 0.0853736624 -0.996348977
vn 1.58043586E-05 0.0853736624 -0.996348977
vn 1.58043567E-05 0.0853736624 -0.996348977
vn 1.58043567E-05 0.0853736624 -0.996348977
g nWoman_sword_MR1_0
f 3/3/3 2/2/2 1/1/1
f 1/1/1 2/2/2 4/4/4
f 4/4/4 5/5/5 1/1/1
f 5/5/5 6/6/6 1/1/1
f 7/7/7 1/1/1 6/6/6
f 5/5/5 4/4/4 8/8/8
f 2/2/2 9/9/9 4/4/4
f 4/4/4 9/9/9 10/10/10
f 2/2/2 3/3/3 11/11/11
f 12/12/12 10/10/10 9/9/9
f 11/11/11 12/12/12 2/2/2
f 12/12/12 9/9/9 2/2/2
f 13/13/13 12/12/12 11/11/11
f 14/14/14 13/13/13 11/11/11
f 11/11/11 15/15/15 14/14/14
f 12/12/12 13/13/13 16/16/16
f 18/18/18 3/3/3 17/17/17
f 17/17/17 15/15/15 19/19/19
f 19/19/19 20/20/20 17/17/17
f 20/20/20 21/21/21 17/17/17
f 18/18/18 17/17/17 21/21/21
f 21/21/21 20/20/20 22/22/22
f 23/23/23 18/18/18 21/21/21
f 23/23/23 21/21/21 24/24/24
f 24/24/24 25/25/25 23/23/23
f 23/23/23 25/25/25 18/18/18
f 25/25/25 26/26/26 18/18/18
f 3/3/3 18/18/18 26/26/26
f 25/25/25 27/27/27 26/26/26
f 27/27/27 28/28/28 26/26/26
f 7/7/7 26/26/26 28/28/28
f 27/27/27 25/25/25 29/29/29
f 32/32/32 31/31/31 30/30/30
f 31/31/31 33/33/33 30/30/30
f 34/34/34 33/33/33 31/31/31
f 35/35/35 34/34/34 31/31/31
f 33/33/33 34/34/34 36/36/36
f 36/36/36 34/34/34 37/37/37
f 34/34/34 38/38/38 37/37/37
f 38/38/38 34/34/34 39/39/39
f 34/34/34 35/35/35 39/39/39
f 38/38/38 39/39/39 40/40/40
f 41/41/41 38/38/38 40/40/40
f 42/42/42 33/33/33 36/36/36
f 32/32/32 30/30/30 43/43/43
f 31/31/31 32/32/32 44/44/44
f 45/45/45 31/31/31 44/44/44
f 35/35/35 31/31/31 45/45/45
f 46/46/46 35/35/35 45/45/45
f 47/47/47 35/35/35 46/46/46
f 35/35/35 47/47/47 48/48/48
f 49/49/49 35/35/35 48/48/48
f 50/50/50 35/35/35 49/49/49
f 35/35/35 50/50/50 39/39/39
f 51/51/51 48/48/48 47/47/47
f 52/52/52 51/51/51 47/47/47
f 53/53/53 51/51/51 52/52/52
f 51/51/51 53/53/53 54/54/54
f 55/55/55 51/51/51 54/54/54
f 54/54/54 53/53/53 56/56/56
f 53/53/53 57/57/57 56/56/56
f 56/56/56 57/57/57 58/58/58
f 57/57/57 59/59/59 58/58/58
f 58/58/58 59/59/59 60/60/60
f 61/61/61 58/58/58 60/60/60
f 62/62/62 53/53/53 52/52/52
f 62/62/62 63/63/63 53/53/53
f 63/63/63 57/57/57 53/53/53
f 64/64/64 60/60/60 59/59/59
f 65/65/65 64/64/64 59/59/59
f 60/60/60 66/66/66 61/61/61
f 60/60/60 64/64/64 66/66/66
f 66/66/66 67/67/67 61/61/61
f 64/64/64 68/68/68 66/66/66
f 67/67/67 66/66/66 69/69/69
f 66/66/66 70/70/70 69/69/69
f 68/68/68 64/64/64 71/71/71
f 63/63/63 62/62/62 72/72/72
f 72/72/72 62/62/62 73/73/73
f 62/62/62 52/52/52 73/73/73
f 73/73/73 52/52/52 74/74/74
f 52/52/52 47/47/47 74/74/74
f 74/74/74 47/47/47 46/46/46
f 75/75/75 63/63/63 72/72/72
f 76/76/76 63/63/63 75/75/75
f 77/77/77 76/76/76 75/75/75
f 78/78/78 76/76/76 77/77/77
f 76/76/76 78/78/78 57/57/57
f 79/79/79 78/78/78 77/77/77
f 65/65/65 78/78/78 79/79/79
f 80/80/80 65/65/65 79/79/79
f 71/71/71 64/64/64 80/80/80
f 64/64/64 65/65/65 80/80/80
f 65/65/65 59/59/59 78/78/78
f 59/59/59 57/57/57 78/78/78
f 76/76/76 57/57/57 63/63/63
f 83/83/83 82/82/82 81/81/81
f 82/82/82 83/83/83 84/84/84
f 84/84/84 83/83/83 85/85/85
f 83/83/83 86/86/86 85/85/85
f 83/83/83 81/81/81 86/86/86
f 85/85/85 86/86/86 87/87/87
f 86/86/86 88/88/88 87/87/87
f 87/87/87 88/88/88 89/89/89
f 88/88/88 90/90/90 89/89/89
f 89/89/89 90/90/90 91/91/91
f 90/90/90 92/92/92 91/91/91
f 91/91/91 92/92/92 93/93/93
f 92/92/92 94/94/94 93/93/93
f 92/92/92 95/95/95 94/94/94
f 95/95/95 96/96/96 94/94/94
f 90/90/90 97/97/97 92/92/92
f 97/97/97 95/95/95 92/92/92
f 88/88/88 98/98/98 90/90/90
f 98/98/98 97/97/97 90/90/90
f 97/97/97 98/98/98 99/99/99
f 98/98/98 100/100/100 99/99/99
f 99/99/99 100/100/100 101/101/101
f 101/101/101 100/100/100 102/102/102
f 103/103/103 99/99/99 101/101/101
f 103/103/103 101/101/101 104/104/104
f 104/104/104 101/101/101 105/105/105
f 101/101/101 106/106/106 105/105/105
f 101/101/101 102/102/102 106/106/106
f 105/105/105 106/106/106 107/107/107
f 106/106/106 82/82/82 107/107/107
f 107/107/107 82/82/82 108/108/108
f 109/109/109 103/103/103 104/104/104
f 110/110/110 103/103/103 109/109/109
f 111/111/111 110/110/110 109/109/109
f 112/112/112 110/110/110 111/111/111
f 113/113/113 112/112/112 111/111/111
f 110/110/110 114/114/114 103/103/103
f 114/114/114 99/99/99 103/103/103
f 112/112/112 115/115/115 110/110/110
f 115/115/115 114/114/114 110/110/110
f 97/97/97 99/99/99 114/114/114
f 95/95/95 97/97/97 114/114/114
f 115/115/115 96/96/96 114/114/114
f 96/96/96 95/95/95 114/114/114
f 112/112/112 94/94/94 115/115/115
f 94/94/94 96/96/96 115/115/115
f 82/82/82 106/106/106 81/81/81
f 81/81/81 106/106/106 102/102/102
f 102/102/102 100/100/100 81/81/81
f 100/100/100 116/116/116 81/81/81
f 81/81/81 116/116/116 117/117/117
f 116/116/116 98/98/98 117/117/117
f 100/100/100 98/98/98 116/116/116
f 117/117/117 86/86/86 81/81/81
f 88/88/88 86/86/86 117/117/117
f 88/88/88 117/117/117 98/98/98
f 55/55/55 118/118/118 51/51/51
f 118/118/118 48/48/48 51/51/51
f 48/48/48 118/118/118 49/49/49
f 118/118/118 119/119/119 49/49/49
f 119/119/119 50/50/50 49/49/49
f 50/50/50 119/119/119 120/120/120
f 39/39/39 50/50/50 120/120/120
f 121/121/121 39/39/39 120/120/120
f 118/118/118 55/55/55 122/122/122
f 122/122/122 55/55/55 54/54/54
f 123/123/123 122/122/122 54/54/54
f 123/123/123 54/54/54 56/56/56
f 124/124/124 123/123/123 56/56/56
f 124/124/124 56/56/56 58/58/58
f 125/125/125 124/124/124 58/58/58
f 125/125/125 58/58/58 126/126/126
f 58/58/58 61/61/61 126/126/126
f 122/122/122 123/123/123 127/127/127
f 123/123/123 128/128/128 127/127/127
f 124/124/124 129/129/129 123/123/123
f 129/129/129 128/128/128 123/123/123
f 126/126/126 130/130/130 125/125/125
f 130/130/130 131/131/131 125/125/125
f 132/132/132 126/126/126 61/61/61
f 130/130/130 126/126/126 132/132/132
f 67/67/67 132/132/132 61/61/61
f 70/70/70 130/130/130 132/132/132
f 70/70/70 132/132/132 69/69/69
f 132/132/132 67/67/67 69/69/69
f 130/130/130 70/70/70 133/133/133
f 127/127/127 128/128/128 134/134/134
f 127/127/127 134/134/134 135/135/135
f 136/136/136 127/127/127 135/135/135
f 122/122/122 127/127/127 136/136/136
f 137/137/137 122/122/122 136/136/136
f 136/136/136 138/138/138 137/137/137
f 138/138/138 139/139/139 137/137/137
f 138/138/138 140/140/140 139/139/139
f 137/137/137 118/118/118 122/122/122
f 118/118/118 137/137/137 139/139/139
f 138/138/138 136/136/136 141/141/141
f 136/136/136 135/135/135 141/141/141
f 138/138/138 141/141/141 142/142/142
f 143/143/143 138/138/138 142/142/142
f 144/144/144 138/138/138 143/143/143
f 145/145/145 144/144/144 143/143/143
f 145/145/145 143/143/143 146/146/146
f 143/143/143 147/147/147 146/146/146
f 144/144/144 145/145/145 148/148/148
f 144/144/144 148/148/148 149/149/149
f 150/150/150 144/144/144 149/149/149
f 144/144/144 150/150/150 151/151/151
f 140/140/140 138/138/138 151/151/151
f 138/138/138 144/144/144 151/151/151
f 151/151/151 150/150/150 152/152/152
f 150/150/150 153/153/153 152/152/152
f 145/145/145 154/154/154 148/148/148
f 146/146/146 147/147/147 155/155/155
f 147/147/147 143/143/143 156/156/156
f 143/143/143 142/142/142 156/156/156
f 147/147/147 158/158/158 157/157/157
f 140/140/140 151/151/151 159/159/159
f 160/160/160 140/140/140 159/159/159
f 151/151/151 161/161/161 159/159/159
f 140/140/140 160/160/160 139/139/139
f 160/160/160 118/118/118 139/139/139
f 163/163/163 32/32/32 162/162/162
f 165/165/165 164/164/164 124/124/124
f 164/164/164 165/165/165 166/166/166
f 164/164/164 166/166/166 167/167/167
f 129/129/129 164/164/164 167/167/167
f 124/124/124 164/164/164 129/129/129
f 129/129/129 167/167/167 168/168/168
f 128/128/128 129/129/129 168/168/168
f 128/128/128 168/168/168 134/134/134
f 165/165/165 169/169/169 166/166/166
f 165/165/165 131/131/131 169/169/169
f 131/131/131 170/170/170 169/169/169
f 131/131/131 130/130/130 170/170/170
f 130/130/130 133/133/133 170/170/170
f 124/124/124 125/125/125 165/165/165
f 125/125/125 131/131/131 165/165/165
f 173/173/173 172/172/172 171/171/171
f 172/172/172 173/173/173 174/174/174
f 172/172/172 174/174/174 175/175/175
f 176/176/176 172/172/172 175/175/175
f 171/171/171 172/172/172 176/176/176
f 176/176/176 175/175/175 177/177/177
f 178/178/178 176/176/176 177/177/177
f 178/178/178 177/177/177 179/179/179
f 180/180/180 178/178/178 179/179/179
f 180/180/180 179/179/179 181/181/181
f 182/182/182 180/180/180 181/181/181
f 182/182/182 181/181/181 183/183/183
f 184/184/184 182/182/182 183/183/183
f 185/185/185 182/182/182 184/184/184
f 186/186/186 185/185/185 184/184/184
f 185/185/185 187/187/187 182/182/182
f 187/187/187 180/180/180 182/182/182
f 187/187/187 188/188/188 180/180/180
f 188/188/188 178/178/178 180/180/180
f 188/188/188 187/187/187 189/189/189
f 190/190/190 188/188/188 189/189/189
f 190/190/190 189/189/189 191/191/191
f 190/190/190 191/191/191 192/192/192
f 189/189/189 193/193/193 191/191/191
f 191/191/191 193/193/193 194/194/194
f 191/191/191 194/194/194 195/195/195
f 196/196/196 191/191/191 195/195/195
f 192/192/192 191/191/191 196/196/196
f 196/196/196 195/195/195 197/197/197
f 173/173/173 196/196/196 197/197/197
f 173/173/173 197/197/197 198/198/198
f 193/193/193 199/199/199 194/194/194
f 193/193/193 200/200/200 199/199/199
f 200/200/200 201/201/201 199/199/199
f 200/200/200 202/202/202 201/201/201
f 202/202/202 203/203/203 201/201/201
f 189/189/189 204/204/204 193/193/193
f 204/204/204 200/200/200 193/193/193
f 204/204/204 205/205/205 200/200/200
f 205/205/205 202/202/202 200/200/200
f 189/189/189 187/187/187 204/204/204
f 187/187/187 185/185/185 204/204/204
f 185/185/185 186/186/186 204/204/204
f 186/186/186 205/205/205 204/204/204
f 186/186/186 184/184/184 205/205/205
f 184/184/184 202/202/202 205/205/205
f 196/196/196 173/173/173 171/171/171
f 196/196/196 171/171/171 192/192/192
f 190/190/190 192/192/192 171/171/171
f 206/206/206 190/190/190 171/171/171
f 206/206/206 171/171/171 207/207/207
f 188/188/188 206/206/206 207/207/207
f 188/188/188 190/190/190 206/206/206
f 176/176/176 207/207/207 171/171/171
f 176/176/176 178/178/178 207/207/207
f 207/207/207 178/178/178 188/188/188
f 210/210/210 209/209/209 208/208/208
f 209/209/209 211/211/211 208/208/208
f 210/210/210 208/208/208 212/212/212
f 213/213/213 210/210/210 212/212/212
f 209/209/209 214/214/214 211/211/211
f 214/214/214 215/215/215 211/211/211
f 214/214/214 216/216/216 215/215/215
f 216/216/216 217/217/217 215/215/215
f 208/208/208 211/211/211 218/218/218
f 211/211/211 219/219/219 218/218/218
f 211/211/211 215/215/215 219/219/219
f 212/212/212 208/208/208 220/220/220
f 208/208/208 218/218/218 220/220/220
f 215/215/215 217/217/217 221/221/221
f 215/215/215 221/221/221 219/219/219
f 217/217/217 222/222/222 221/221/221
f 218/218/218 219/219/219 223/223/223
f 219/219/219 224/224/224 223/223/223
f 219/219/219 221/221/221 224/224/224
f 220/220/220 218/218/218 225/225/225
f 218/218/218 223/223/223 225/225/225
f 221/221/221 222/222/222 226/226/226
f 221/221/221 226/226/226 224/224/224
f 222/222/222 227/227/227 226/226/226
f 223/223/223 224/224/224 228/228/228
f 224/224/224 229/229/229 228/228/228
f 224/224/224 226/226/226 229/229/229
f 225/225/225 223/223/223 230/230/230
f 223/223/223 228/228/228 230/230/230
f 226/226/226 227/227/227 231/231/231
f 226/226/226 231/231/231 229/229/229
f 227/227/227 232/232/232 231/231/231
f 228/228/228 229/229/229 233/233/233
f 229/229/229 234/234/234 233/233/233
f 229/229/229 231/231/231 234/234/234
f 230/230/230 228/228/228 235/235/235
f 228/228/228 233/233/233 235/235/235
f 231/231/231 232/232/232 236/236/236
f 231/231/231 236/236/236 234/234/234
f 232/232/232 237/237/237 236/236/236
f 240/240/240 239/239/239 238/238/238
f 239/239/239 241/241/241 238/238/238
f 240/240/240 238/238/238 242/242/242
f 243/243/243 240/240/240 242/242/242
f 239/239/239 244/244/244 241/241/241
f 244/244/244 245/245/245 241/241/241
f 244/244/244 246/246/246 245/245/245
f 246/246/246 247/247/247 245/245/245
f 238/238/238 241/241/241 248/248/248
f 241/241/241 249/249/249 248/248/248
f 241/241/241 245/245/245 249/249/249
f 242/242/242 238/238/238 250/250/250
f 238/238/238 248/248/248 250/250/250
f 245/245/245 247/247/247 251/251/251
f 245/245/245 251/251/251 249/249/249
f 247/247/247 252/252/252 251/251/251
f 248/248/248 249/249/249 253/253/253
f 249/249/249 254/254/254 253/253/253
f 249/249/249 251/251/251 254/254/254
f 250/250/250 248/248/248 255/255/255
f 248/248/248 253/253/253 255/255/255
f 251/251/251 252/252/252 256/256/256
f 251/251/251 256/256/256 254/254/254
f 252/252/252 257/257/257 256/256/256
f 253/253/253 254/254/254 258/258/258
f 254/254/254 259/259/259 258/258/258
f 254/254/254 256/256/256 259/259/259
f 255/255/255 253/253/253 260/260/260
f 253/253/253 258/258/258 260/260/260
f 256/256/256 257/257/257 261/261/261
f 256/256/256 261/261/261 259/259/259
f 257/257/257 262/262/262 261/261/261
f 258/258/258 259/259/259 263/263/263
f 259/259/259 264/264/264 263/263/263
f 259/259/259 261/261/261 264/264/264
f 260/260/260 258/258/258 265/265/265
f 258/258/258 263/263/263 265/265/265
f 261/261/261 262/262/262 266/266/266
f 261/261/261 266/266/266 264/264/264
f 262/262/262 267/267/267 266/266/266
f 270/270/270 269/269/269 268/268/268
f 269/269/269 271/271/271 268/268/268
f 272/272/272 269/269/269 270/270/270
f 273/273/273 272/272/272 270/270/270
f 270/270/270 268/268/268 274/274/274
f 275/275/275 270/270/270 274/274/274
f 273/273/273 270/270/270 275/275/275
f 276/276/276 273/273/273 275/275/275
f 278/278/278 277/277/277 273/273/273
f 277/277/277 279/279/279 273/273/273
f 278/278/278 273/273/273 280/280/280
f 281/281/281 278/278/278 280/280/280
f 284/284/284 283/283/283 282/282/282
f 283/283/283 285/285/285 282/282/282
f 286/286/286 284/284/284 282/282/282
f 287/287/287 286/286/286 282/282/282
f 290/290/290 289/289/289 288/288/288
f 289/289/289 291/291/291 288/288/288
f 289/289/289 290/290/290 292/292/292
f 293/293/293 289/289/289 292/292/292
f 296/296/296 295/295/295 294/294/294
f 295/295/295 297/297/297 294/294/294
f 298/298/298 295/295/295 296/296/296
f 299/299/299 298/298/298 296/296/296
f 296/296/296 294/294/294 300/300/300
f 301/301/301 296/296/296 300/300/300
f 299/299/299 296/296/296 301/301/301
f 302/302/302 299/299/299 301/301/301
f 304/304/304 303/303/303 299/299/299
f 303/303/303 305/305/305 299/299/299
f 304/304/304 299/299/299 306/306/306
f 307/307/307 304/304/304 306/306/306
f 310/310/310 309/309/309 308/308/308
f 309/309/309 311/311/311 308/308/308
f 312/312/312 309/309/309 310/310/310
f 313/313/313 312/312/312 310/310/310
f 310/310/310 308/308/308 314/314/314
f 315/315/315 310/310/310 314/314/314
f 313/313/313 310/310/310 315/315/315
f 316/316/316 313/313/313 315/315/315
f 318/318/318 317/317/317 313/313/313
f 317/317/317 319/319/319 313/313/313
f 318/318/318 313/313/313 320/320/320
f 321/321/321 318/318/318 320/320/320
f 324/324/324 323/323/323 322/322/322
f 323/323/323 325/325/325 322/322/322
f 326/326/326 323/323/323 324/324/324
f 327/327/327 326/326/326 324/324/324
f 324/324/324 322/322/322 328/328/328
f 329/329/329 324/324/324 328/328/328
f 327/327/327 324/324/324 329/329/329
f 330/330/330 327/327/327 329/329/329
f 332/332/332 331/331/331 327/327/327
f 332/332/332 327/327/327 333/333/333
f 334/334/334 332/332/332 333/333/333
f 336/336/336 335/335/335 327/327/327
f 339/339/339 338/338/338 337/337/337
f 338/338/338 340/340/340 337/337/337
f 339/339/339 337/337/337 341/341/341
f 342/342/342 339/339/339 341/341/341
f 345/345/345 344/344/344 343/343/343
f 344/344/344 346/346/346 343/343/343
f 346/346/346 344/344/344 347/347/347
f 348/348/348 346/346/346 347/347/347
f 351/351/351 350/350/350 349/349/349
f 350/350/350 352/352/352 349/349/349
f 351/351/351 349/349/349 353/353/353
f 354/354/354 351/351/351 353/353/353
f 354/354/354 353/353/353 355/355/355
f 356/356/356 354/354/354 355/355/355
f 359/359/359 358/358/358 357/357/357
f 358/358/358 360/360/360 357/357/357
f 363/363/363 362/362/362 361/361/361
f 362/362/362 364/364/364 361/361/361
f 367/367/367 366/366/366 365/365/365
f 366/366/366 368/368/368 365/365/365
f 365/365/365 368/368/368 369/369/369
f 368/368/368 370/370/370 369/369/369
f 369/369/369 370/370/370 371/371/371
f 370/370/370 372/372/372 371/371/371
f 375/375/375 374/374/374 373/373/373
f 374/374/374 376/376/376 373/373/373
f 379/379/379 378/378/378 377/377/377
f 378/378/378 380/380/380 377/377/377
