g nWoman_hair_MC1
v 0.0263123475 0.0170973744 1.94774699
v 0.0131972572 0.00788863841 1.93112969
v 0.0185737349 0.0016058808 1.95477998
v 0.0388140157 0.0222850647 1.96738124
v 0.0137581592 0.000412287103 1.95594418
v 0.014442509 0.01130509 1.97524059
v 0.0282758269 0.00720017543 1.97380304
v 0.0388140157 0.0222850647 1.96738124
v 0.0439378954 0.0266239494 2.00428319
v 0.0597136579 0.0417584404 1.98553169
v 0.0722120181 0.0739813671 2.02424121
v 0.0832856447 0.0742113367 2.00365925
v 0.0178930145 0.0400312506 1.99660397
v 0.0264474843 0.0788478702 2.01431417
v 0.0402847938 0.13271153 2.0093646
v 0.0881940126 0.133180976 2.01970553
v 0.0832856447 0.0742113367 2.00365925
v 0.0998747721 0.127149642 1.99721289
v 0.043490544 0.179560319 1.99160385
v 0.0920933709 0.184303641 1.99481773
v 0.0998747721 0.127149642 1.99721289
v 0.102653451 0.172483116 1.96025598
v 0.0867072567 0.231692806 1.94765437
v 0.0909296423 0.212540999 1.90796089
v 0.0755704269 0.272109181 1.91538513
v 0.0732191578 0.258800089 1.87010157
v 0.0404269844 0.232501611 1.95631826
v 0.0271765217 0.276850283 1.92279375
v 0.0628955662 0.316417545 1.87468278
v 0.0596549101 0.312534273 1.84040892
v 0.0504353717 0.36777851 1.82393706
v 0.0470965244 0.366102487 1.80225825
v 0.0452194288 0.413789332 1.78006542
v 0.0447685234 0.412340343 1.76497996
v 0.0447685421 0.458944857 1.74041986
v 0.0447685421 0.458364785 1.72728741
v 0.018804431 0.298253983 1.9023422
v 0.0136128385 0.373648584 1.8318373
v -4.98819874E-09 0.299254268 1.90268493
v -1.38768268E-08 0.375110388 1.83212686
v 0.0121305604 0.417861849 1.7873677
v -1.21158834E-08 0.418698609 1.78825736
v -3.81938836E-09 0.458169669 1.74887908
v 0.0118671097 0.457845837 1.74783468
v 3.32995231E-09 0.495291084 1.71596336
v 0.0111436127 0.493828684 1.71637368
v 0.00891014282 0.517818451 1.69525886
v 6.0365406E-09 0.526411414 1.68401659
v 0.0440491512 0.495492131 1.70758522
v 0.0447685421 0.458364785 1.72728741
v 0.0334214047 0.522164166 1.68232071
v 0.0447685458 0.494226664 1.6961621
v 0.0447685421 0.458364785 1.72728741
v 0.0360209644 0.520059168 1.66797316
v 0.0141502712 0.550495923 1.62494349
v 3.272093E-08 0.550405741 1.66164207
v 0.0167107116 0.550582409 1.6556859
v 0.0141502712 0.550495923 1.62494349
v 4.4968818E-08 0.566331923 1.60850739
v 3.25471419E-08 0.567058861 1.63845146
v 0.0263123475 0.0170973744 1.94774699
v 0.0131816752 0.0190973971 1.92753243
v 0.0131972516 0.00431489898 1.91865504
v 0.0131816715 0.0155236572 1.91505778
v 4.65937866E-08 -0.00130485895 1.95611918
v 0.0085579101 0.000222465387 1.93369818
v 3.88185555E-08 -0.00107208011 1.93395519
v 0.0137581592 0.000412287103 1.95594418
v 5.5726904E-08 0.0128143262 1.9746592
v 0.014442509 0.01130509 1.97524059
v 4.64604994E-08 0.0436938182 1.9943434
v 0.0178930145 0.0400312506 1.99660397
v 4.66896672E-08 0.086619474 2.02072668
v 0.0173070841 0.0822146907 2.02072668
v 5.38820863E-08 0.133956388 2.0347507
v 0.0250667445 0.134521484 2.02950478
v 4.28292246E-08 0.19717136 2.02924323
v 0.0285305325 0.195181131 2.02203488
v 0.0219084471 0.2557154 1.99304283
v 2.39034055E-08 0.261568278 1.99723566
v 0.0131972572 0.00788863841 1.93112969
v 0.0264474843 0.0788478702 2.01431417
v 0.0402847938 0.13271153 2.0093646
v 0.043490544 0.179560319 1.99160385
v 0.0404269844 0.232501611 1.95631826
v 0.0271765217 0.276850283 1.92279375
v 0.0150083741 0.28913638 1.95107162
v 1.19014096E-08 0.288267255 1.95192719
v 0.00919264462 0.310968518 1.92988658
v 8.28780955E-09 0.310028493 1.93135524
v 0.018804431 0.298253983 1.9023422
v 0.0125069134 0.333232254 1.90771043
v 0.00580374803 0.332966149 1.92691493
v -3.72244879E-09 0.332579672 1.9277612
v 0.00620940095 0.360072523 1.93212545
v -4.79530993E-09 0.360398978 1.93117583
v -0.0062094056 0.360072523 1.93212545
v -0.00580374012 0.332966149 1.92691493
v -0.00919263624 0.310968518 1.92988658
v -0.0125069125 0.333232254 1.90771043
v -0.0188044347 0.298254013 1.9023422
v -0.015008349 0.28913638 1.95107174
v -0.0217935443 0.2557154 1.99304283
v -0.028530458 0.195181131 2.02203512
v -0.0250666402 0.134521499 2.02950501
v -0.0173069779 0.0822146982 2.02072668
v -0.0178929009 0.0400312506 1.99660397
v -0.0144424075 0.0113050835 1.97524059
v -0.0137580596 0.00041228233 1.95594418
v -0.00855782162 0.000222461807 1.93369818
v -0.0131971715 0.00788860396 1.93112969
v -0.0264473744 0.0788478479 2.01431441
v -0.0402847193 0.13271153 2.0093646
v -0.0434904769 0.179560319 1.99160385
v -0.0386202857 0.232501641 1.95631826
v -0.027150318 0.276850283 1.92279375
v -0.00855782442 -0.00335126161 1.92122352
v 3.94434068E-08 -0.00464580394 1.92148054
v 0.00855790637 -0.00335125905 1.92122352
v 0.0131972516 0.00431489898 1.91865504
v -0.013197179 0.00431487896 1.91865504
v 0.0141502712 0.550495923 1.62494349
v 4.4968818E-08 0.566331923 1.60850739
v 0.00445509562 0.544653356 1.63023949
v 1.77158963E-08 0.543922961 1.63057578
v 0.00884325523 0.518531621 1.65036666
v 5.87826188E-09 0.517768681 1.64879084
v -1.23873747E-08 0.491768748 1.67454743
v 0.0119352872 0.491368771 1.67586756
v 0.0360209644 0.520059168 1.66797316
v 0.0447685458 0.494226664 1.6961621
v 0.0119352788 0.453579158 1.70357358
v 0.0447685421 0.458364785 1.72728741
v 0.0120104766 0.40859583 1.73600447
v -2.95678593E-08 0.408467174 1.73180413
v -3.8218225E-08 0.363863796 1.76050544
v 0.0125559056 0.365144908 1.76424313
v 0.0447685234 0.412340343 1.76497996
v 0.0470965244 0.366102487 1.80225825
v 0.0158815961 0.308865875 1.7935679
v 0.0596549101 0.312534273 1.84040892
v 0.0193533935 0.237905398 1.82238781
v 0.0732191578 0.258800089 1.87010157
v 0.0447685421 0.458364785 1.72728741
v 0.0228780713 0.185682729 1.85821021
v -5.43631806E-09 0.185681745 1.85223126
v -1.84914821E-08 0.237759382 1.81644297
v 0.0909296423 0.212540999 1.90796089
v 0.0264795963 0.147576079 1.92263496
v 0.102653451 0.172483116 1.96025598
v 0.0998747721 0.127149642 1.99721289
v 2.06904449E-08 0.146844983 1.919734
v 0.024534639 0.102523498 1.95784104
v 0.0832856447 0.0742113367 2.00365925
v 0.0998747721 0.127149642 1.99721289
v 3.61155337E-08 0.102860115 1.9581877
v 0.0220490471 0.0502767563 1.95658827
v 0.0597136579 0.0417584404 1.98553169
v 0.0388140157 0.0222850647 1.96738124
v 0.0832856447 0.0742113367 2.00365925
v 3.57384273E-08 0.0607805587 1.95387411
v 0.0161788072 0.0381923579 1.94154036
v 0.0263123475 0.0170973744 1.94774699
v 0.0131816752 0.0190973971 1.92753243
v 0.00728416024 0.0246199742 1.9267503
v 3.86132974E-08 0.0443382151 1.94007516
v 3.80493503E-08 0.0254454408 1.92664278
v -0.00728408387 0.0246199649 1.9267503
v -0.0161787253 0.0381923616 1.94154036
v -0.0131815923 0.0190973915 1.92753243
v -0.0263122655 0.0170973651 1.94774711
v -0.0220489744 0.0502767488 1.95658827
v -0.0388139188 0.0222850647 1.96738124
v -0.0245345775 0.102523513 1.95784104
v -0.0597135611 0.0417584106 1.98553169
v -0.0388139188 0.0222850647 1.96738124
v -0.083285518 0.0742113218 2.00365949
v -0.0264795534 0.147576079 1.92263496
v -0.0998746827 0.127149612 1.99721313
v -0.083285518 0.0742113218 2.00365949
v -0.101774633 0.172483116 1.96025598
v -0.0860141441 0.212540969 1.90796089
v -0.0226571821 0.185682729 1.85821021
v -0.0721519291 0.258800089 1.87010169
v -0.019353414 0.237905428 1.82238781
v -0.0596549362 0.312534213 1.84040892
v -0.0158816427 0.308865875 1.7935679
v -0.0470965654 0.366102517 1.80225837
v -0.0125559736 0.365144938 1.76424313
v -0.0447685793 0.412340373 1.76498008
v -0.0120105315 0.40859583 1.73600447
v -0.0447685607 0.458364785 1.72728741
v -0.0119353123 0.453579277 1.70357347
v -2.55251162E-08 0.308012515 1.78799224
v -1.78571007E-08 0.453196824 1.70050681
v -0.0119353067 0.49127537 1.67559338
v -0.044768557 0.493103832 1.69286907
v -0.0447685607 0.458364785 1.72728741
v -0.0360209458 0.516045034 1.65620065
v -0.00884323474 0.51760453 1.64764762
v -0.00445504114 0.544528127 1.62987196
v -0.0141502246 0.550138116 1.62389421
v -0.0141502246 0.550138116 1.62389421
v -0.0141502246 0.550138116 1.62389421
v 4.4968818E-08 0.566331923 1.60850739
v 0.0263123475 0.0170973744 1.94774699
v 0.0388140157 0.0222850647 1.96738124
v -4.98819874E-09 0.299254268 1.90268493
v 0.0125069134 0.333232254 1.90771043
v 3.14684806E-11 0.333850384 1.90719402
v 0.018804431 0.298253983 1.9023422
v 0.00620940095 0.360072523 1.93212545
v -4.79530993E-09 0.360398978 1.93117583
v -0.0125069125 0.333232254 1.90771043
v -0.0188044347 0.298254013 1.9023422
v -0.0062094056 0.360072523 1.93212545
v 0.0141502712 0.550495923 1.62494349
v -0.0263122655 0.0170973651 1.94774711
v -0.0131971715 0.00788860396 1.93112969
v -0.0131815923 0.0190973915 1.92753243
v -0.0185736567 0.00160588976 1.95477998
v -0.0388139188 0.0222850647 1.96738124
v -0.0282757357 0.00720018148 1.97380304
v -0.0439377911 0.0266239215 2.00428319
v -0.0597135611 0.0417584106 1.98553169
v -0.0722118914 0.0739813372 2.02424121
v -0.0137580596 0.00041228233 1.95594418
v -0.0264473744 0.0788478479 2.01431441
v -0.0178929009 0.0400312506 1.99660397
v -0.0282757357 0.00720018148 1.97380304
v -0.0402847193 0.13271153 2.0093646
v -0.0881939009 0.133180961 2.01970553
v -0.083285518 0.0742113218 2.00365949
v -0.0597135611 0.0417584106 1.98553169
v -0.0434904769 0.179560319 1.99160385
v -0.0912210792 0.184303626 1.99481797
v -0.0998746827 0.127149612 1.99721313
v -0.083285518 0.0742113218 2.00365949
v -0.101774633 0.172483116 1.96025598
v -0.0817917436 0.231692746 1.94765437
v -0.0860141441 0.212540969 1.90796089
v -0.0740644857 0.272109151 1.91538513
v -0.0721519291 0.258800089 1.87010169
v -0.0386202857 0.232501641 1.95631826
v -0.027150318 0.276850283 1.92279375
v -0.0628955886 0.316417485 1.87468278
v -0.0596549362 0.312534213 1.84040892
v -0.0504354127 0.367778569 1.8239373
v -0.0470965654 0.366102517 1.80225837
v -0.0452194884 0.4137896 1.78006577
v -0.0447685793 0.412340373 1.76498008
v -0.0447685607 0.458945006 1.74041998
v -0.0188044347 0.298254013 1.9023422
v -0.0136128636 0.373648584 1.8318373
v -4.98819874E-09 0.299254268 1.90268493
v -1.38768268E-08 0.375110388 1.83212686
v -0.0121305902 0.417861819 1.78736782
v -1.21158834E-08 0.418698609 1.78825736
v -3.81938836E-09 0.458169669 1.74887908
v -0.0118671162 0.457845688 1.74783468
v 3.32995231E-09 0.495291084 1.71596336
v -0.011143608 0.493814379 1.71633172
v -0.00891012605 0.516890526 1.69253731
v 6.0365406E-09 0.526411414 1.68401659
v -0.0440491512 0.494908363 1.70587337
v -0.0447685607 0.458364785 1.72728741
v -0.044768557 0.493103832 1.69286907
v -0.0334213488 0.519406259 1.67423189
v -0.0360209458 0.516045034 1.65620065
v -0.0141502246 0.550138116 1.62389421
v -0.0167106669 0.550226212 1.65464127
v 3.272093E-08 0.550405741 1.66164207
v 3.25471419E-08 0.567058861 1.63845146
v 4.4968818E-08 0.566331923 1.60850739
v -0.0141502246 0.550138116 1.62389421
v -0.0447685793 0.412340373 1.76498008
v -0.0447685607 0.458364785 1.72728741
v -0.0282757357 0.00720018148 1.97380304
v -0.0144424075 0.0113050835 1.97524059
v -0.0131815923 0.0155236684 1.91505778
v -0.013197179 0.00431487896 1.91865504
v -0.00728408247 0.0210462473 1.91427565
v -0.0131815923 0.0155236684 1.91505778
v 3.09396704E-08 0.0218717102 1.91416824
v 0.00728415698 0.0210462343 1.91427565
v 0.0131816715 0.0155236572 1.91505778
v 0.00664269924 0.0802690312 1.76859021
v 0.0195836499 0.0563129187 1.7857362
v 0.00979183242 0.0675849244 1.80180323
v 0.0132853854 0.0705818161 1.76218867
v -0.00664267596 0.080267325 1.76859021
v -0.00979180634 0.0675845519 1.80180323
v -0.0132853584 0.070580788 1.76218867
v -0.0195836183 0.0563126989 1.7857362
v -0.00664266711 0.0609027073 1.75578701
v -0.00979179423 0.0449378379 1.76966906
v 0.00979183614 0.0449381806 1.76966906
v 0.0066427025 0.0609045476 1.75578701
v -0.00979179423 0.0449378379 1.76966906
v -0.00664266711 0.0609027073 1.75578701
v 0.00664269598 0.100297064 1.73406231
v 0.0132853827 0.0902253911 1.72813737
v -0.00664267875 0.100294746 1.73406231
v -0.0132853612 0.090223521 1.72813737
v -0.0066426699 0.0801778585 1.7222122
v 0.00664269971 0.0801814422 1.7222122
v -0.0066426699 0.0801778585 1.7222122
v 0.00664269319 0.122191735 1.68837786
v 0.0132853789 0.111795321 1.68291926
v -0.00664268201 0.122188784 1.68837786
v -0.013285365 0.111792207 1.68291926
v -0.0066426727 0.101413861 1.67746055
v 0.00664269691 0.101419859 1.67746055
v -0.0066426727 0.101413861 1.67746055
v 0.00664268853 0.144034058 1.63079643
v 0.0132853771 0.133330539 1.62579691
v -0.00664268667 0.144029215 1.63079643
v -0.0132853668 0.133330107 1.62579691
v -0.00664267642 0.122684442 1.6207974
v 0.00664269319 0.122692004 1.6207974
v -0.00664267642 0.122684442 1.6207974
v 0.00664268527 0.162009239 1.56720054
v 0.0132853733 0.151033804 1.56265223
v -0.00664268946 0.16200164 1.56720054
v -0.0132853705 0.151033118 1.56265223
v -0.00664268015 0.140155137 1.55810392
v 0.00664268946 0.140162885 1.55810392
v -0.00664268015 0.140155137 1.55810392
v 0.0132853687 0.163435087 1.49893761
v 0.00664268294 0.174596399 1.50326478
v -0.00664269179 0.174584821 1.50326478
v -0.0132853752 0.163434029 1.49893761
v -0.00664268341 0.152423352 1.49461055
v -0.00664268341 0.152423352 1.49461055
v 0.0066426862 0.152435154 1.49461055
v 0.0132853668 0.17183277 1.43000352
v 0.00664268062 0.183237433 1.43402278
v -0.00664269412 0.183218271 1.43402278
v -0.0132853771 0.171830848 1.43000352
v -0.00664268481 0.160742685 1.4260006
v 0.00664268481 0.160762101 1.4260006
v -0.00664268481 0.160742685 1.4260006
v 0.013285364 0.175686836 1.37542021
v 0.00664267875 0.187277347 1.37932932
v 0.00980576687 0.176167384 1.36224699
v 0.00491579482 0.184728295 1.36509514
v -0.00664269598 0.18724443 1.37932932
v -0.00491580972 0.184679776 1.36509514
v -0.0132853799 0.175683081 1.37542021
v -0.00980577897 0.176144347 1.36224699
v -0.0066426876 0.164674297 1.37154877
v -0.00490288856 0.168095872 1.35939527
v 0.00490288297 0.168143675 1.35939527
v 0.00664268201 0.164707065 1.37154877
v -0.00490288856 0.168095872 1.35939527
v -0.0066426876 0.164674297 1.37154877
v 0.0300365612 0.165530503 1.30338717
v 0.0195689909 0.199186757 1.26490831
v 0.0378471017 0.16960685 1.25612772
v 0.0155706685 0.191964433 1.30975199
v -0.0136308763 0.191964433 1.30975199
v -0.0176291894 0.199186757 1.26490831
v 0.0154254753 0.140471861 1.2959888
v 0.0192634296 0.140972182 1.23904312
v -0.017323602 0.140972182 1.23904312
v -0.0134856552 0.140471861 1.2959888
v -0.0359072797 0.16960685 1.25612772
v -0.0280967392 0.165530488 1.30338717
v -0.0176291894 0.199186757 1.26490831
v 0.0215874724 0.212553844 1.23818648
v 0.0409621522 0.182519808 1.21381974
v 0.00980576687 0.176167384 1.36224699
v 0.00491579482 0.184728295 1.36509514
v -0.00491580972 0.184679776 1.36509514
v -0.0196476877 0.212553814 1.23818648
v -0.0390223637 0.182519838 1.21381974
v -0.0123216854 0.1574011 1.16719186
v -0.00490288856 0.168095872 1.35939527
v -0.00980577897 0.176144347 1.36224699
v -0.0136308763 0.191964433 1.30975199
v -0.0176291894 0.199186757 1.26490831
v -0.00491580972 0.184679776 1.36509514
v -0.0176291894 0.199186757 1.26490831
v -0.0196476877 0.212553814 1.23818648
v 0.0142615205 0.1574011 1.16719186
v 0.00490288297 0.168143675 1.35939527
v 0.0284418147 0.165555641 1.30336821
v 0.0185485482 0.197581157 1.2642746
v 0.0147695951 0.190539286 1.30938387
v 0.0358238295 0.16962415 1.25597584
v -0.0128298029 0.190539286 1.30938387
v -0.0166087486 0.197581157 1.2642746
v 0.0146323694 0.141871855 1.29637575
v 0.0182597525 0.142560512 1.23982859
v -0.0163199268 0.142560512 1.23982859
v -0.0126925493 0.141871855 1.29637575
v -0.0338840075 0.16962415 1.25597584
v -0.0265019927 0.165555641 1.30336821
v -0.0166087486 0.197581157 1.2642746
v 0.0215874724 0.212553844 1.23818648
v 0.0409621522 0.182519808 1.21381974
v -5.3644178E-09 0.176326558 1.3622458
v -0.0166087486 0.197581157 1.2642746
v -0.0196476877 0.212553814 1.23818648
v -5.3644178E-09 0.176326558 1.3622458
v -0.0390223637 0.182519838 1.21381974
v -0.0196476877 0.212553814 1.23818648
v -0.0166087486 0.197581157 1.2642746
v -0.0128298029 0.190539286 1.30938387
v -0.0123216854 0.1574011 1.16719186
v 0.0142615205 0.1574011 1.16719186
v -5.3644178E-09 0.176326558 1.3622458
v -0.0128298029 0.190539286 1.30938387
v -5.3644178E-09 0.176326558 1.3622458
v -5.3644178E-09 0.176326558 1.3622458
v -5.3644178E-09 0.176326558 1.3622458
v 0.0304474402 0.0284621213 1.94855142
v 0.0327755958 0.0571177788 1.95452142
v 0.0293695834 0.0319186375 1.94231641
v 0.0352734923 0.0554826483 1.96250546
v 0.0153045841 0.0107875261 1.9285965
v 0.0131972153 0.00788862351 1.93112969
v 0.0199096669 0.0406118669 1.93294656
v 0.0201549307 0.0622973554 1.94113135
v 0.0394677706 0.0830188915 1.95451677
v 0.0228593182 0.0887797326 1.9425596
v 0.0131816324 0.0190973971 1.92753243
v 0.0406166837 0.0833633766 1.96465337
v 0.0504391454 0.107346997 1.95179152
v 0.0502590165 0.109671101 1.96408105
v 0.0846463293 0.167087957 1.93913412
v 0.0801631138 0.162097692 1.92241263
v 0.10070017 0.221881568 1.91683745
v 0.0976539031 0.215437487 1.90037239
v 0.100176185 0.264545351 1.90021265
v 0.0997384638 0.257991225 1.88484824
v 0.090726383 0.294368476 1.86932218
v 0.0892037377 0.304965079 1.88618577
v 0.0747018903 0.339416087 1.85524106
v 0.0697923601 0.3601183 1.87069118
v 0.029615555 0.113689102 1.94126749
v 0.0499847829 0.165605813 1.89971435
v 0.0691194758 0.212464198 1.87444901
v 0.0622879341 0.292036623 1.8444761
v 0.0700129122 0.272364914 1.85082757
v 0.0733825117 0.246434823 1.85959351
v 0.0285381209 0.541694224 1.58539367
v 0.00111618091 0.583877146 1.56923378
v 0.0252859015 0.588212669 1.5302186
v 0.00577200809 0.555895507 1.61972129
v 0.032480441 0.509379089 1.61886728
v 0.0101680243 0.521077812 1.66049647
v 0.0371832326 0.470618844 1.65781462
v 0.0133351656 0.485588163 1.69540107
v 0.0403259285 0.424963057 1.70090246
v 0.013181584 0.434503496 1.74106348
v 0.0402535535 0.379232675 1.73517179
v 0.0127130048 0.388399929 1.77226496
v 0.0334636346 0.310228109 1.781178
v 0.00996429194 0.316015154 1.81315017
v 0.0275220871 0.235442668 1.8229239
v 0.00307981553 0.249935672 1.85268235
v 0.0228780676 0.186476469 1.86186075
v -0.000574354897 0.202024207 1.88266122
v -0.0435707271 0.497237414 1.73000765
v -0.0646393076 0.48502627 1.70891082
v -0.0515932031 0.521071255 1.67267096
v -0.0714159757 0.457021773 1.74614859
v -0.0419834144 0.467371285 1.76938879
v -0.0507353693 0.479943007 1.70177436
v -0.0794230625 0.420408279 1.78521013
v -0.0422493145 0.440821975 1.7316426
v -0.0447690226 0.406102091 1.75865293
v -0.05155278 0.362827986 1.78938794
v -0.0882415175 0.376993775 1.81838751
v -0.0453410521 0.422713041 1.81245673
v -0.0498054922 0.37656635 1.84549904
v -0.097515583 0.321986496 1.86557734
v -0.0606013276 0.325003535 1.87935269
v -0.103834137 0.277091771 1.89709055
v -0.0707686245 0.276908875 1.91118217
v -0.0693519637 0.307684928 1.8338691
v -0.102457426 0.228909597 1.93646657
v -0.0995684192 0.216558278 1.91963518
v -0.0911659151 0.184303641 1.99481797
v -0.0866620615 0.262266427 1.87110329
v -0.0816395804 0.230244592 1.94818604
v 0.0304474402 0.0284621213 1.94855142
v 0.0327755958 0.0571177788 1.95452142
v 0.0352734923 0.0554826483 1.96250546
v 0.0293695834 0.0319186375 1.94231641
v 0.0153045841 0.0107875261 1.9285965
v 0.0131972153 0.00788862351 1.93112969
v 0.0199096669 0.0406118669 1.93294656
v 0.0201549307 0.0622973554 1.94113135
v 0.0394677706 0.0830188915 1.95451677
v 0.0228593182 0.0887797326 1.9425596
v 0.0131816324 0.0190973971 1.92753243
v 0.0406166837 0.0833633766 1.96465337
v 0.0504391454 0.107346997 1.95179152
v 0.0502590165 0.109671101 1.96408105
v 0.0846463293 0.167087957 1.93913412
v 0.0801631138 0.162097692 1.92241263
v 0.10070017 0.221881568 1.91683745
v 0.0976539031 0.215437487 1.90037239
v 0.100176185 0.264545351 1.90021265
v 0.0997384638 0.257991225 1.88484824
v 0.090726383 0.294368476 1.86932218
v 0.0892037377 0.304965079 1.88618577
v 0.0747018903 0.339416087 1.85524106
v 0.0697923601 0.3601183 1.87069118
v 0.029615555 0.113689102 1.94126749
v 0.0499847829 0.165605813 1.89971435
v 0.0691194758 0.212464198 1.87444901
v 0.0622879341 0.292036623 1.8444761
v 0.0700129122 0.272364914 1.85082757
v 0.0733825117 0.246434823 1.85959351
v 0.0285381209 0.541694224 1.58539367
v 0.00111618091 0.583877146 1.56923378
v 0.00577200809 0.555895507 1.61972129
v 0.0252859015 0.588212669 1.5302186
v 0.032480441 0.509379089 1.61886728
v 0.0101680243 0.521077812 1.66049647
v 0.0371832326 0.470618844 1.65781462
v 0.0133351656 0.485588163 1.69540107
v 0.0403259285 0.424963057 1.70090246
v 0.013181584 0.434503496 1.74106348
v 0.0402535535 0.379232675 1.73517179
v 0.0127130048 0.388399929 1.77226496
v 0.0334636346 0.310228109 1.781178
v 0.00996429194 0.316015154 1.81315017
v 0.0275220871 0.235442668 1.8229239
v 0.00307981553 0.249935672 1.85268235
v 0.0228780676 0.186476469 1.86186075
v -0.000574354897 0.202024207 1.88266122
v -0.0435707271 0.497237414 1.73000765
v -0.0515932031 0.521071255 1.67267096
v -0.0646393076 0.48502627 1.70891082
v -0.0714159757 0.457021773 1.74614859
v -0.0419834144 0.467371285 1.76938879
v -0.0507353693 0.479943007 1.70177436
v -0.0794230625 0.420408279 1.78521013
v -0.0422493145 0.440821975 1.7316426
v -0.0447690226 0.406102091 1.75865293
v -0.05155278 0.362827986 1.78938794
v -0.0882415175 0.376993775 1.81838751
v -0.0453410521 0.422713041 1.81245673
v -0.0498054922 0.37656635 1.84549904
v -0.097515583 0.321986496 1.86557734
v -0.0606013276 0.325003535 1.87935269
v -0.103834137 0.277091771 1.89709055
v -0.0707686245 0.276908875 1.91118217
v -0.0693519637 0.307684928 1.8338691
v -0.102457426 0.228909597 1.93646657
v -0.0995684192 0.216558278 1.91963518
v -0.0911659151 0.184303641 1.99481797
v -0.0866620615 0.262266427 1.87110329
v -0.0816395804 0.230244592 1.94818604
vt 0.317220837 0.818417728
vt 0.333288997 0.845697343
vt 0.342006803 0.813322604
vt 0.307917625 0.78637141
vt 0.348762959 0.814087033
vt 0.354095578 0.783499539
vt 0.33459121 0.78560859
vt 0.307917625 0.78637141
vt 0.317457616 0.739243627
vt 0.280213833 0.745509505
vt 0.280496269 0.675502121
vt 0.251701772 0.686195254
vt 0.356325597 0.731372118
vt 0.343424767 0.668661058
vt 0.319250941 0.591533124
vt 0.254276067 0.602872074
vt 0.251701772 0.686195254
vt 0.220505774 0.610188961
vt 0.300509095 0.520507574
vt 0.236954883 0.533718228
vt 0.220505774 0.610188961
vt 0.186854824 0.532573223
vt 0.214647427 0.450868785
vt 0.154800043 0.445986092
vt 0.203825176 0.384744048
vt 0.143408015 0.365365952
vt 0.277533382 0.438502669
vt 0.272110522 0.368917197
vt 0.202613682 0.309384346
vt 0.155261189 0.287287474
vt 0.205718651 0.223591954
vt 0.16686897 0.205306068
vt 0.226214826 0.15687038
vt 0.197164148 0.142457575
vt 0.264632642 0.0988320112
vt 0.243674368 0.0806983709
vt 0.271827608 0.333686203
vt 0.260836601 0.227388963
vt 0.296581507 0.330230027
vt 0.278942823 0.22807312
vt 0.274138153 0.173225835
vt 0.288673878 0.181206584
vt 0.315904796 0.141811743
vt 0.306235343 0.127013594
vt 0.352765769 0.110373057
vt 0.353287935 0.0911897197
vt 0.394681662 0.0725704208
vt 0.402836561 0.0809176192
vt 0.315232456 0.0551791899
vt 0.243674368 0.0806983709
vt 0.379977554 0.0381278768
vt 0.299010396 0.0329893827
vt 0.243674368 0.0806983709
vt 0.349628448 0.0105231823
vt 0.449032217 0.0195334814
vt 0.446056902 0.0606506132
vt 0.441245347 0.0352741778
vt 0.449032217 0.0195334814
vt 0.490372926 0.0339953043
vt 0.483197063 0.0457337201
vt 0.317220837 0.818417728
vt 0.318610519 0.851175249
vt 0.339088231 0.862223864
vt 0.324194223 0.867858112
vt 0.738622665 0.942719519
vt 0.726527929 0.97396642
vt 0.73935163 0.973471463
vt 0.71980536 0.942427218
vt 0.738249063 0.91027391
vt 0.717971444 0.911475182
vt 0.738257408 0.859140992
vt 0.712278247 0.861544371
vt 0.738685131 0.789451003
vt 0.713067293 0.794048071
vt 0.739383101 0.723316312
vt 0.70347333 0.721148968
vt 0.740322232 0.639892101
vt 0.702007055 0.638608217
vt 0.714254379 0.550215721
vt 0.741030216 0.545622826
vt 0.713658571 0.97734195
vt 0.698226333 0.80057168
vt 0.668620825 0.722857237
vt 0.652469277 0.644057751
vt 0.650531292 0.547648549
vt 0.67342937 0.474623054
vt 0.718369246 0.48322925
vt 0.741496801 0.480973333
vt 0.725073934 0.4442074
vt 0.741746664 0.444126934
vt 0.68233192 0.442394942
vt 0.707772255 0.399732679
vt 0.732439637 0.406446069
vt 0.74186933 0.407407612
vt 0.737704754 0.366084188
vt 0.742126346 0.367213458
vt 0.746561289 0.366147846
vt 0.751333714 0.406576723
vt 0.758394241 0.444422096
vt 0.776095271 0.400152892
vt 0.801139951 0.443123788
vt 0.764590859 0.483563632
vt 0.767727137 0.550644755
vt 0.778603435 0.639280558
vt 0.775359631 0.721794844
vt 0.764245749 0.794413805
vt 0.764208078 0.861757517
vt 0.758535028 0.911253333
vt 0.757381201 0.941806853
vt 0.752220392 0.97350198
vt 0.765275478 0.976300061
vt 0.779004216 0.801166296
vt 0.810196519 0.724150419
vt 0.827969432 0.645598292
vt 0.831472516 0.549072742
vt 0.809648395 0.475586861
vt 0.750998259 0.991789639
vt 0.739726782 0.991532862
vt 0.728494644 0.992218554
vt 0.716145396 0.994701445
vt 0.763458967 0.993770182
vt 0.53338033 0.0522051193
vt 0.511213481 0.0184514523
vt 0.516991854 0.0581885315
vt 0.511233389 0.0590705909
vt 0.52327472 0.115980983
vt 0.51115948 0.117091082
vt 0.511350274 0.202380538
vt 0.528669178 0.203233927
vt 0.562996626 0.139210612
vt 0.572296619 0.187122285
vt 0.527184844 0.260010898
vt 0.568286002 0.257701576
vt 0.528376877 0.343360364
vt 0.511390746 0.347954422
vt 0.51165396 0.407766998
vt 0.528538644 0.405318141
vt 0.573442936 0.34058702
vt 0.582371593 0.422011077
vt 0.533740282 0.500793993
vt 0.607135832 0.51534766
vt 0.532812297 0.607644737
vt 0.625601828 0.604612708
vt 0.568286002 0.257701576
vt 0.537686288 0.684709668
vt 0.512631476 0.681529284
vt 0.512309134 0.605335653
vt 0.64753288 0.689825475
vt 0.551133692 0.777727425
vt 0.665693402 0.773940504
vt 0.665851712 0.841620862
vt 0.513115942 0.778760374
vt 0.550657749 0.853538334
vt 0.642867208 0.899293482
vt 0.665851712 0.841620862
vt 0.513541639 0.853999317
vt 0.545146525 0.922926247
vt 0.606410325 0.931026042
vt 0.578107893 0.953796566
vt 0.642867208 0.899293482
vt 0.513839424 0.910512507
vt 0.533781886 0.946257532
vt 0.556607664 0.966154039
vt 0.531264722 0.975686133
vt 0.522393465 0.972053111
vt 0.51395911 0.940440953
vt 0.514100075 0.971206129
vt 0.505815685 0.972123325
vt 0.494192719 0.946428001
vt 0.496978402 0.97583288
vt 0.471558005 0.966534317
vt 0.48264125 0.92320174
vt 0.449965894 0.954384744
vt 0.476431996 0.853873193
vt 0.421467394 0.931917727
vt 0.449965894 0.954384744
vt 0.384711623 0.900611222
vt 0.475075632 0.778065979
vt 0.361124873 0.843265593
vt 0.384711623 0.900611222
vt 0.360463858 0.775523782
vt 0.377814174 0.691057205
vt 0.487605691 0.684929669
vt 0.398856014 0.605535388
vt 0.491829157 0.607812643
vt 0.416841686 0.515965343
vt 0.490133882 0.500952899
vt 0.441035509 0.422458291
vt 0.494757056 0.405415177
vt 0.44942531 0.340878129
vt 0.494670928 0.343522221
vt 0.454347223 0.257858306
vt 0.495366573 0.26009956
vt 0.511934578 0.50075084
vt 0.511278808 0.261593968
vt 0.49353084 0.203523412
vt 0.450242251 0.187220693
vt 0.454347223 0.257858306
vt 0.459628522 0.139585897
vt 0.499545842 0.115906782
vt 0.505473137 0.0581998564
vt 0.489079118 0.0522323586
vt 0.489079118 0.0522323586
vt 0.489079118 0.0522323586
vt 0.511213481 0.0184514523
vt 0.556607664 0.966154039
vt 0.578107893 0.953796566
vt 0.644767702 0.395427763
vt 0.665665925 0.331524521
vt 0.644767821 0.330939025
vt 0.676218331 0.396450579
vt 0.654981315 0.273589343
vt 0.64476794 0.273631036
vt 0.623869836 0.331524402
vt 0.613316953 0.396450281
vt 0.634554625 0.273589283
vt 0.53338033 0.0522051193
vt 0.893975198 0.944236219
vt 0.88326627 0.974043667
vt 0.898706317 0.976702571
vt 0.868674159 0.943852425
vt 0.897120893 0.910987079
vt 0.870775461 0.915229142
vt 0.878900945 0.866454005
vt 0.916662693 0.865631282
vt 0.903254628 0.796900392
vt 0.862179697 0.94586277
vt 0.840151012 0.801915824
vt 0.83924365 0.865999639
vt 0.870775461 0.915229142
vt 0.849557877 0.721599996
vt 0.915504217 0.720634162
vt 0.933551371 0.802019298
vt 0.916662693 0.865631282
vt 0.854673326 0.648307204
vt 0.919573128 0.649420917
vt 0.950036943 0.721511781
vt 0.933551371 0.802019298
vt 0.968574107 0.638941884
vt 0.925997734 0.563828588
vt 0.983890355 0.547892809
vt 0.924418807 0.496998906
vt 0.980040789 0.466950625
vt 0.861907721 0.563385904
vt 0.854282737 0.493894756
vt 0.911422074 0.422799319
vt 0.952605546 0.39280501
vt 0.892716646 0.338748515
vt 0.927604139 0.313712776
vt 0.860536873 0.276857138
vt 0.88654083 0.257478833
vt 0.812489927 0.226550624
vt 0.848053336 0.459096253
vt 0.839166701 0.35251984
vt 0.823067963 0.460207433
vt 0.821461856 0.356483042
vt 0.816138685 0.301675975
vt 0.803384662 0.312007159
vt 0.769575179 0.277918518
vt 0.776405513 0.26187551
vt 0.727745473 0.253316939
vt 0.723904788 0.233905852
vt 0.679883659 0.223301679
vt 0.673298001 0.232929051
vt 0.75518316 0.192680717
vt 0.829927504 0.205004141
vt 0.76718545 0.16772002
vt 0.688382685 0.186825797
vt 0.711371005 0.157298818
vt 0.617157042 0.180439577
vt 0.627551436 0.194601014
vt 0.627203345 0.220430121
vt 0.588036716 0.212144345
vt 0.57893908 0.201819852
vt 0.617157042 0.180439577
vt 0.88654083 0.257478833
vt 0.829927504 0.205004141
vt 0.870775461 0.915229142
vt 0.851219296 0.916806221
vt 0.896305203 0.994139731
vt 0.880625963 0.991358042
vt 0.506558239 0.989022553
vt 0.497122765 0.991139591
vt 0.51417321 0.988142669
vt 0.52179569 0.988957584
vt 0.531248927 0.990994155
vt 0.0728161335 0.452072382
vt 0.0565359592 0.476920605
vt 0.073045373 0.485100865
vt 0.0590622425 0.450773835
vt 0.0865138769 0.451912761
vt 0.0892159939 0.484843373
vt 0.0997645855 0.450206041
vt 0.105609059 0.475739956
vt 0.112070084 0.447411537
vt 0.12132287 0.463908672
vt 0.0402187109 0.467978239
vt 0.0457626581 0.448701382
vt 0.023914814 0.462025404
vt 0.0335009098 0.445836306
vt 0.0734225512 0.415171385
vt 0.0611965656 0.414115667
vt 0.0855048895 0.415067196
vt 0.0977077484 0.413866878
vt 0.109982491 0.412693143
vt 0.0490044355 0.412564754
vt 0.0368503332 0.411620975
vt 0.0739386082 0.368756771
vt 0.0617291927 0.367649078
vt 0.0859923363 0.368705869
vt 0.0982655287 0.36759758
vt 0.110624671 0.366630673
vt 0.049467802 0.36635375
vt 0.0372464657 0.366113544
vt 0.0741618872 0.312589884
vt 0.0617986917 0.311282516
vt 0.0863409042 0.312521815
vt 0.0987119675 0.311124802
vt 0.111082673 0.30976367
vt 0.0494501591 0.309891105
vt 0.037194252 0.30988121
vt 0.0739041567 0.252389312
vt 0.0614682436 0.250815034
vt 0.0861411095 0.252245784
vt 0.0985348225 0.250395775
vt 0.110869408 0.248521924
vt 0.0491018295 0.249177337
vt 0.0368360281 0.249293208
vt 0.0606998205 0.19100666
vt 0.0731633902 0.193035126
vt 0.0854259729 0.192789435
vt 0.0977908373 0.190264344
vt 0.110038877 0.187689424
vt 0.0360867977 0.189068079
vt 0.0483603477 0.188886762
vt 0.0595047474 0.127074361
vt 0.0719217062 0.129345059
vt 0.0840779543 0.129003406
vt 0.0963485241 0.125978827
vt 0.108394146 0.122792833
vt 0.0473182201 0.124614947
vt 0.035045743 0.12464916
vt 0.0589737892 0.0767594501
vt 0.0706266165 0.0792275593
vt 0.0588424206 0.0643447563
vt 0.0701224804 0.0660530254
vt 0.0819624662 0.0788806602
vt 0.0812959671 0.0657060072
vt 0.0935108662 0.0755344555
vt 0.0919870138 0.0631443188
vt 0.10477984 0.0713502094
vt 0.100906253 0.0595446751
vt 0.0486073494 0.0624103472
vt 0.0477036238 0.0740724728
vt 0.0390862226 0.0614401028
vt 0.035787344 0.0733371899
vt 0.206160396 0.807891548
vt 0.240830988 0.782774746
vt 0.214441389 0.768930614
vt 0.226650089 0.81977576
vt 0.247175664 0.831686437
vt 0.268099159 0.798464954
vt 0.185602635 0.799952805
vt 0.187960476 0.754648149
vt 0.160435289 0.755516112
vt 0.164541095 0.800838411
vt 0.134649605 0.771306098
vt 0.144373029 0.81063062
vt 0.108760089 0.785296857
vt 0.252654046 0.759766519
vt 0.224654406 0.73368901
vt 0.197586626 0.859723032
vt 0.207278579 0.863808334
vt 0.214998335 0.867711723
vt 0.0959882438 0.76198262
vt 0.123484343 0.735965073
vt 0.158637613 0.695059478
vt 0.171676606 0.857333958
vt 0.160568684 0.860499084
vt 0.12443313 0.824890554
vt 0.108760089 0.785296857
vt 0.153178662 0.865929782
vt 0.268099159 0.798464954
vt 0.28209874 0.777711809
vt 0.187582463 0.694264829
vt 0.185282439 0.857051432
vt 0.206160396 0.807891548
vt 0.240830988 0.782774746
vt 0.226650089 0.81977576
vt 0.214441389 0.768930614
vt 0.247175664 0.831686437
vt 0.268099159 0.798464954
vt 0.185602635 0.799952805
vt 0.187960476 0.754648149
vt 0.160435289 0.755516112
vt 0.164541095 0.800838411
vt 0.134649605 0.771306098
vt 0.144373029 0.81063062
vt 0.108760089 0.785296857
vt 0.252654046 0.759766519
vt 0.224654406 0.73368901
vt 0.18436715 0.861722529
vt 0.268099159 0.798464954
vt 0.28209874 0.777711809
vt 0.18436715 0.861722529
vt 0.123484343 0.735965073
vt 0.0959882438 0.76198262
vt 0.108760089 0.785296857
vt 0.12443313 0.824890554
vt 0.158637613 0.695059478
vt 0.187582463 0.694264829
vt 0.18436715 0.861722529
vt 0.12443313 0.824890554
vt 0.18436715 0.861722529
vt 0.18436715 0.861722529
vt 0.18436715 0.861722529
vt 0.376188904 0.570580781
vt 0.378642291 0.53276509
vt 0.367958844 0.567015946
vt 0.389369011 0.53386873
vt 0.347134531 0.596915305
vt 0.349712163 0.601698935
vt 0.349909544 0.558252275
vt 0.354652762 0.529303968
vt 0.379900098 0.498210847
vt 0.353144825 0.496086061
vt 0.342746496 0.586868823
vt 0.392709196 0.498758018
vt 0.382660627 0.463226497
vt 0.398521483 0.464955837
vt 0.399158388 0.374701649
vt 0.376969278 0.375250012
vt 0.39229095 0.299979925
vt 0.370400608 0.300631642
vt 0.390469372 0.244118586
vt 0.369008273 0.242991582
vt 0.379700154 0.194083378
vt 0.404225081 0.192810252
vt 0.409004241 0.134733722
vt 0.440710098 0.125091568
vt 0.352264553 0.464155555
vt 0.329942673 0.378414869
vt 0.323624551 0.301722139
vt 0.337938935 0.159543708
vt 0.326991588 0.199399695
vt 0.323604017 0.241076723
vt 0.0833963305 0.56974721
vt 0.17428939 0.561293662
vt 0.169942185 0.515288591
vt 0.129425257 0.609392047
vt 0.0314826928 0.639007211
vt 0.095164448 0.676860869
vt 0.00814360008 0.732440412
vt 0.0759236291 0.730745077
vt 0.0264788866 0.848902702
vt 0.0849771053 0.819772959
vt 0.0822499096 0.92596072
vt 0.124951318 0.876910329
vt 0.19915992 0.985833824
vt 0.220726103 0.929616988
vt 0.32567668 0.992677927
vt 0.3245942 0.941092372
vt 0.409282923 0.969557345
vt 0.400451779 0.926587105
vt 0.6622895 0.120852567
vt 0.653072 0.082234621
vt 0.593906105 0.126531065
vt 0.711411655 0.0675800741
vt 0.718789518 0.116627179
vt 0.641779006 0.0656197667
vt 0.783891022 0.0672876984
vt 0.710303843 0.0221671648
vt 0.795100331 0.00552421529
vt 0.894114673 0.0493466742
vt 0.855606496 0.101257302
vt 0.780239046 0.125303477
vt 0.828615665 0.15840213
vt 0.913269639 0.175246388
vt 0.869349182 0.207236469
vt 0.943614483 0.235281959
vt 0.905627906 0.262630939
vt 0.961721659 0.135857061
vt 0.970478892 0.30818361
vt 0.995496809 0.29844138
vt 0.981206834 0.402182251
vt 0.981770039 0.212168753
vt 0.947494209 0.325847119
vt 0.376188904 0.570580781
vt 0.378642291 0.53276509
vt 0.389369011 0.53386873
vt 0.367958844 0.567015946
vt 0.347134531 0.596915305
vt 0.349712163 0.601698935
vt 0.349909544 0.558252275
vt 0.354652762 0.529303968
vt 0.379900098 0.498210847
vt 0.353144825 0.496086061
vt 0.342746496 0.586868823
vt 0.392709196 0.498758018
vt 0.382660627 0.463226497
vt 0.398521483 0.464955837
vt 0.399158388 0.374701649
vt 0.376969278 0.375250012
vt 0.39229095 0.299979925
vt 0.370400608 0.300631642
vt 0.390469372 0.244118586
vt 0.369008273 0.242991582
vt 0.379700154 0.194083378
vt 0.404225081 0.192810252
vt 0.409004241 0.134733722
vt 0.440710098 0.125091568
vt 0.352264553 0.464155555
vt 0.329942673 0.378414869
vt 0.323624551 0.301722139
vt 0.337938935 0.159543708
vt 0.326991588 0.199399695
vt 0.323604017 0.241076723
vt 0.0833963305 0.56974721
vt 0.17428939 0.561293662
vt 0.129425257 0.609392047
vt 0.169942185 0.515288591
vt 0.0314826928 0.639007211
vt 0.095164448 0.676860869
vt 0.00814360008 0.732440412
vt 0.0759236291 0.730745077
vt 0.0264788866 0.848902702
vt 0.0849771053 0.819772959
vt 0.0822499096 0.92596072
vt 0.124951318 0.876910329
vt 0.19915992 0.985833824
vt 0.220726103 0.929616988
vt 0.32567668 0.992677927
vt 0.3245942 0.941092372
vt 0.409282923 0.969557345
vt 0.400451779 0.926587105
vt 0.6622895 0.120852567
vt 0.593906105 0.126531065
vt 0.653072 0.082234621
vt 0.711411655 0.0675800741
vt 0.718789518 0.116627179
vt 0.641779006 0.0656197667
vt 0.783891022 0.0672876984
vt 0.710303843 0.0221671648
vt 0.795100331 0.00552421529
vt 0.894114673 0.0493466742
vt 0.855606496 0.101257302
vt 0.780239046 0.125303477
vt 0.828615665 0.15840213
vt 0.913269639 0.175246388
vt 0.869349182 0.207236469
vt 0.943614483 0.235281959
vt 0.905627906 0.262630939
vt 0.961721659 0.135857061
vt 0.970478892 0.30818361
vt 0.995496809 0.29844138
vt 0.981206834 0.402182251
vt 0.981770039 0.212168753
vt 0.947494209 0.325847119
vn 0.859854758 -0.156384647 -0.485997617
vn 0.907749236 -0.39140287 -0.15098007
vn 0.424212843 -0.898307681 -0.114397876
vn 0.840844095 -0.338217527 -0.422599196
vn 0.0955458954 -0.976339579 0.193989649
vn -0.170462951 -0.738576472 0.652263165
vn 0.326809824 -0.903255403 0.278073788
vn 0.840844095 -0.338217527 -0.422599196
vn 0.24005799 -0.713184297 0.658589661
vn 0.840986311 -0.404613793 -0.359207124
vn 0.381603837 -0.298106253 0.874934971
vn 0.911537826 -0.377973795 -0.161971539
vn -0.232265696 -0.487264931 0.841798902
vn 0.17595464 -0.240396455 0.954593837
vn 0.363065988 0.137575462 0.92155093
vn 0.470667243 0.155716702 0.868461072
vn 0.911537826 -0.377973795 -0.161971539
vn 0.961990237 -0.248979479 -0.112178214
vn 0.505542994 0.411044627 0.75859642
vn 0.55833751 0.465133041 0.686957419
vn 0.961990237 -0.248979479 -0.112178214
vn 0.952099383 -0.197507411 -0.233447045
vn 0.685231209 0.558194995 0.467842489
vn 0.911837935 -0.188052088 -0.364949435
vn 0.710338712 0.570103228 0.412796795
vn 0.898353279 -0.0614930764 -0.434948295
vn 0.564593852 0.568534195 0.59833324
vn 0.60055238 0.622166097 0.502241135
vn 0.740050256 0.55604738 0.378334463
vn 0.910081983 -0.0461701266 -0.411848426
vn 0.777607322 0.506831944 0.372086376
vn 0.901527405 -0.163904965 -0.400479078
vn 0.79661411 0.442005783 0.412355244
vn 0.892052174 -0.257153273 -0.371638298
vn 0.764470339 0.436060727 0.474801242
vn 0.889043033 -0.278382391 -0.363463491
vn 0.512963176 0.744967341 0.426488608
vn 0.151127964 0.693581998 0.704346836
vn 5.81180359E-07 0.947434723 -0.31994921
vn 9.93625918E-07 0.69729805 0.716781318
vn 0.15619503 0.693248391 0.703569353
vn 5.35863876E-07 0.707455277 0.706758142
vn -0.000437036593 0.683979571 0.729501009
vn 0.128069326 0.673075199 0.728401065
vn -0.0429800339 0.684805274 0.727457583
vn 0.0912245438 0.675663292 0.731544256
vn 0.0720638558 0.706301451 0.704233646
vn -0.0843147114 0.717725396 0.691202819
vn 0.739891291 0.497690052 0.452620596
vn 0.889043033 -0.278382391 -0.363463491
vn 0.628096819 0.665774047 0.402789295
vn 0.920900941 -0.1348643 -0.365722924
vn 0.889043033 -0.278382391 -0.363463491
vn 0.896618903 -0.03818826 -0.441153049
vn 0.782134771 -0.0323991589 -0.622266471
vn -0.0613778718 0.760599911 0.646312952
vn 0.57722193 0.748771369 0.325816333
vn 0.782134771 -0.0323991589 -0.622266471
vn 0.00589318248 0.47732392 -0.878707647
vn -0.00574930152 0.990257859 0.139126733
vn 0.859854758 -0.156384647 -0.485997617
vn 0.908257961 0.224734142 -0.352933228
vn 0.967901111 -0.241612211 0.0692164749
vn 0.920827627 0.374889284 -0.10739848
vn 1.56143514E-07 -0.961076915 0.276280761
vn 0.544384122 -0.837415099 0.0488057435
vn -0 -0.991553128 0.12970072
vn 0.0955458954 -0.976339579 0.193989649
vn 1.08169232E-07 -0.707684994 0.706528068
vn -0.170462951 -0.738576472 0.652263165
vn -0 -0.534607708 0.845100343
vn -0.232265696 -0.487264931 0.841798902
vn 1.0007559E-06 -0.35419482 0.935171723
vn 0.274245143 -0.35807091 0.892510414
vn 2.22819108E-06 -0.0692243129 0.997601092
vn 0.514905691 -0.0580252819 0.855280757
vn -0.000146401042 0.277884275 0.960614562
vn 0.627509356 0.2437751 0.739463151
vn 0.609755456 0.543682277 0.576721549
vn -0.000261002308 0.671676815 0.740844309
vn 0.907749236 -0.39140287 -0.15098007
vn 0.17595464 -0.240396455 0.954593837
vn 0.363065988 0.137575462 0.92155093
vn 0.505542994 0.411044627 0.75859642
vn 0.564593852 0.568534195 0.59833324
vn 0.60055238 0.622166097 0.502241135
vn 0.584452271 0.672508061 0.45403567
vn -0.000148366133 0.768957257 0.639300108
vn 0.654148519 0.43131578 0.621334255
vn 1.3698932E-06 0.472979426 0.881073475
vn 0.512963176 0.744967341 0.426488608
vn 0.728707254 0.389750689 -0.563098788
vn 0.625548065 0.0209574401 0.779904127
vn -0 0.00648875535 0.999979019
vn 0.568507612 0.700126469 0.431997687
vn -0 0.936781108 0.349915683
vn -0.568507791 0.700126529 0.431997508
vn -0.625547886 0.0209572688 0.779904306
vn -0.65425694 0.431159079 0.62132895
vn -0.728707254 0.389750719 -0.563098669
vn -0.514043212 0.744034588 0.426816434
vn -0.591465652 0.666412532 0.453941435
vn -0.616317689 0.540986001 0.572264552
vn -0.631916046 0.245707944 0.735057652
vn -0.514903784 -0.0580257028 0.855281889
vn -0.274242043 -0.358071595 0.89251107
vn 0.232265964 -0.487265408 0.841798604
vn 0.170462787 -0.73857671 0.652262926
vn -0.0955464691 -0.976339579 0.193989754
vn -0.544383168 -0.837415695 0.0488061085
vn -0.907749534 -0.391402751 -0.150978923
vn -0.175950766 -0.240397528 0.954594254
vn -0.362722844 0.137269393 0.921731651
vn -0.505918026 0.415239066 0.756057799
vn -0.580964088 0.561220229 0.589501977
vn -0.605136693 0.615554512 0.504878402
vn -0.568632185 -0.790781915 0.226542145
vn -0 -0.961329699 0.275400221
vn 0.568632901 -0.790781498 0.226541862
vn 0.967901111 -0.241612211 0.0692164749
vn -0.967900991 -0.241612628 0.069217138
vn 0.782134771 -0.0323991589 -0.622266471
vn 0.00589318248 0.47732392 -0.878707647
vn 0.178319588 -0.650288403 -0.738462746
vn 0.0834313035 -0.630980968 -0.771299005
vn 0.264787972 -0.627284467 -0.732394338
vn 0.0928977504 -0.640050471 -0.762696147
vn 0.0395460092 -0.645706952 -0.762560606
vn 0.320501387 -0.601419091 -0.731829107
vn 0.896618903 -0.03818826 -0.441153049
vn 0.920900941 -0.1348643 -0.365722924
vn 0.379726768 -0.551720798 -0.742570996
vn 0.889043033 -0.278382391 -0.363463491
vn 0.450469077 -0.513657331 -0.730228543
vn 4.17262925E-07 -0.562657833 -0.826689959
vn -4.58210906E-07 -0.49558866 -0.868557274
vn 0.500771344 -0.434835136 -0.748429298
vn 0.892052174 -0.257153273 -0.371638298
vn 0.901527405 -0.163904965 -0.400479078
vn 0.525972903 -0.331374705 -0.783290148
vn 0.910081983 -0.0461701266 -0.411848426
vn 0.483241171 -0.387215018 -0.785202205
vn 0.898353279 -0.0614930764 -0.434948295
vn 0.889043033 -0.278382391 -0.363463491
vn 0.396478295 -0.644679964 -0.653599799
vn -0.000444095029 -0.712581992 -0.701588631
vn -0.000259890774 -0.460385561 -0.887718976
vn 0.911837935 -0.188052088 -0.364949435
vn 0.328506082 -0.700008035 -0.634091854
vn 0.952099383 -0.197507411 -0.233447045
vn 0.961990237 -0.248979479 -0.112178214
vn -0.000128146829 -0.766263425 -0.642526567
vn 0.344973326 -0.32778129 -0.879518449
vn 0.911537826 -0.377973795 -0.161971539
vn 0.961990237 -0.248979479 -0.112178214
vn -0 -0.314148784 -0.949373782
vn 0.536922812 0.230119467 -0.811639726
vn 0.840986311 -0.404613793 -0.359207124
vn 0.840844095 -0.338217527 -0.422599196
vn 0.911537826 -0.377973795 -0.161971539
vn -0 0.308232039 -0.951311231
vn 0.571938694 0.465533376 -0.67539978
vn 0.859854758 -0.156384647 -0.485997617
vn 0.908257961 0.224734142 -0.352933228
vn 0.479130119 0.703120887 -0.525409758
vn -0 0.649039328 -0.760754883
vn -0 0.826302469 -0.563226521
vn -0.479131222 0.703120768 -0.525408924
vn -0.57193923 0.465532392 -0.675399959
vn -0.908258736 0.224733859 -0.352931559
vn -0.859854996 -0.156385288 -0.485996783
vn -0.53692317 0.230118975 -0.811639607
vn -0.840843856 -0.338217646 -0.422599614
vn -0.345539242 -0.326711863 -0.879694283
vn -0.840986669 -0.404613316 -0.359206796
vn -0.840843856 -0.338217646 -0.422599614
vn -0.911538124 -0.377973855 -0.16196911
vn -0.335574329 -0.693251848 -0.637802303
vn -0.963688433 -0.241596058 -0.113736019
vn -0.911538124 -0.377973855 -0.16196911
vn -0.955126405 -0.162229493 -0.247820824
vn -0.913421273 -0.191006288 -0.359413773
vn -0.405468166 -0.643111229 -0.64961797
vn -0.9063254 -0.0799987614 -0.414939135
vn -0.489562958 -0.390444368 -0.779667437
vn -0.911811471 -0.0504927151 -0.407492876
vn -0.526873767 -0.332128882 -0.782364607
vn -0.90152812 -0.163903862 -0.400478035
vn -0.500772595 -0.434834689 -0.748428762
vn -0.892052948 -0.257152379 -0.371637136
vn -0.450469673 -0.51365751 -0.730228066
vn -0.88936913 -0.283102781 -0.358991981
vn -0.365675807 -0.563530266 -0.740752876
vn -2.37535858E-07 -0.409094393 -0.912492037
vn 0.00317703909 -0.577469289 -0.81640619
vn -0.216636971 -0.670799375 -0.709293008
vn -0.910304725 -0.169350982 -0.377711028
vn -0.88936913 -0.283102781 -0.358991981
vn -0.826352656 -0.193218246 -0.528968751
vn -0.0619873665 -0.657992363 -0.75046891
vn -0.00842865091 -0.637943804 -0.770036757
vn -0.730075955 -0.0223193131 -0.683001459
vn -0.730075955 -0.0223193131 -0.683001459
vn -0.730075955 -0.0223193131 -0.683001459
vn 0.00589318248 0.47732392 -0.878707647
vn 0.859854758 -0.156384647 -0.485997617
vn 0.840844095 -0.338217527 -0.422599196
vn 5.81180359E-07 0.947434723 -0.31994921
vn 0.728707254 0.389750689 -0.563098788
vn -0 0.433084726 -0.901353121
vn 0.512963176 0.744967341 0.426488608
vn 0.568507612 0.700126469 0.431997687
vn -0 0.936781108 0.349915683
vn -0.728707254 0.389750719 -0.563098669
vn -0.514043212 0.744034588 0.426816434
vn -0.568507791 0.700126529 0.431997508
vn 0.782134771 -0.0323991589 -0.622266471
vn -0.859854996 -0.156385288 -0.485996783
vn -0.907749534 -0.391402751 -0.150978923
vn -0.908258736 0.224733859 -0.352931559
vn -0.424214751 -0.898306668 -0.114397734
vn -0.840843856 -0.338217646 -0.422599614
vn -0.326810122 -0.903255403 0.278073341
vn -0.24005802 -0.713184834 0.658588946
vn -0.840986669 -0.404613316 -0.359206796
vn -0.381603628 -0.298106194 0.874935091
vn -0.0955464691 -0.976339579 0.193989754
vn -0.175950766 -0.240397528 0.954594254
vn 0.232265964 -0.487265408 0.841798604
vn -0.326810122 -0.903255403 0.278073341
vn -0.362722844 0.137269393 0.921731651
vn -0.473070323 0.15889816 0.866577029
vn -0.911538124 -0.377973855 -0.16196911
vn -0.840986669 -0.404613316 -0.359206796
vn -0.505918026 0.415239066 0.756057799
vn -0.559651494 0.481203645 0.674709797
vn -0.963688433 -0.241596058 -0.113736019
vn -0.911538124 -0.377973855 -0.16196911
vn -0.955126405 -0.162229493 -0.247820824
vn -0.673111796 0.566159785 0.475797743
vn -0.913421273 -0.191006288 -0.359413773
vn -0.726078689 0.541268826 0.424072891
vn -0.9063254 -0.0799987614 -0.414939135
vn -0.580964088 0.561220229 0.589501977
vn -0.605136693 0.615554512 0.504878402
vn -0.745588243 0.546705782 0.381065577
vn -0.911811471 -0.0504927151 -0.407492876
vn -0.777605474 0.506832778 0.372089058
vn -0.90152812 -0.163903862 -0.400478035
vn -0.796610475 0.44200927 0.412358493
vn -0.892052948 -0.257152379 -0.371637136
vn -0.765013158 0.44048655 0.469815314
vn -0.514043212 0.744034588 0.426816434
vn -0.151124611 0.693581581 0.704347968
vn 5.81180359E-07 0.947434723 -0.31994921
vn 9.93625918E-07 0.69729805 0.716781318
vn -0.156190142 0.693249226 0.703569651
vn 5.35863876E-07 0.707455277 0.706758142
vn -0.000437036593 0.683979571 0.729501009
vn -0.133078471 0.67561686 0.725142717
vn -0.0429800339 0.684805274 0.727457583
vn -0.144965559 0.700840712 0.698431969
vn -0.203472286 0.723084927 0.660111547
vn -0.0843147114 0.717725396 0.691202819
vn -0.745016694 0.523751438 0.413079202
vn -0.88936913 -0.283102781 -0.358991981
vn -0.910304725 -0.169350982 -0.377711028
vn -0.703003645 0.632287204 0.325574517
vn -0.826352656 -0.193218246 -0.528968751
vn -0.730075955 -0.0223193131 -0.683001459
vn -0.63041532 0.703046679 0.329092652
vn -0.0613778718 0.760599911 0.646312952
vn -0.00574930152 0.990257859 0.139126733
vn 0.00589318248 0.47732392 -0.878707647
vn -0.730075955 -0.0223193131 -0.683001459
vn -0.892052948 -0.257152379 -0.371637136
vn -0.88936913 -0.283102781 -0.358991981
vn -0.326810122 -0.903255403 0.278073341
vn 0.170462787 -0.73857671 0.652262926
vn -0.920827627 0.374889642 -0.107397534
vn -0.967900991 -0.241612628 0.069217138
vn -0.429689467 0.868058085 -0.248680726
vn -0.920827627 0.374889642 -0.107397534
vn -0 0.961329162 -0.275402278
vn 0.429689437 0.868057847 -0.248681784
vn 0.920827627 0.374889284 -0.10739848
vn 0.491465271 0.798236191 0.348254204
vn 0.957614779 0.27141118 -0.0964876562
vn 0.403737754 0.868258357 0.288310975
vn 0.992013037 0.0903899074 -0.0879764706
vn -0.49154228 0.798200786 0.348226488
vn -0.403789639 0.868238628 0.288297713
vn -0.99201268 0.0904041007 -0.0879659653
vn -0.957609534 0.271430403 -0.0964849517
vn -0.51892978 -0.639307022 -0.567449152
vn -0.559263766 -0.49873355 -0.662184954
vn 0.559280455 -0.49872306 -0.662178695
vn 0.519017637 -0.639270008 -0.567410409
vn -0.559263766 -0.49873355 -0.662184954
vn -0.51892978 -0.639307022 -0.567449152
vn 0.497208267 0.767055273 0.405475169
vn 0.99992907 0.0105453711 0.0055407472
vn -0.497337937 0.766990423 0.4054389
vn -0.999928713 0.0105738239 0.00556007493
vn -0.507783353 -0.763284087 -0.39944157
vn 0.507974148 -0.763182044 -0.399393767
vn -0.507783353 -0.763284087 -0.39944157
vn 0.497440487 0.797304094 0.341846645
vn 0.999919534 0.0118751386 0.00445780018
vn -0.497620165 0.797209144 0.341806561
vn -0.999918699 0.0119387768 0.00448665721
vn -0.508630931 -0.792763233 -0.335888445
vn 0.508923292 -0.792605579 -0.335817695
vn -0.508630931 -0.792763233 -0.335888445
vn 0.497516662 0.823523343 0.272555381
vn 0.999920607 0.0122765051 0.00282718032
vn -0.497774839 0.823382199 0.272510529
vn -0.999918342 0.0124500599 0.00287929759
vn -0.508674502 -0.818674505 -0.266500175
vn 0.509026229 -0.818479538 -0.266427428
vn -0.508674502 -0.818674505 -0.266500175
vn 0.49779883 0.843305588 0.202563718
vn 0.999940395 0.0108732842 0.000994631904
vn -0.498193115 0.843086123 0.202508047
vn -0.999937415 0.0111401696 0.00105275144
vn -0.507367492 -0.838971138 -0.196737513
vn 0.507785201 -0.838731647 -0.196681082
vn -0.507367492 -0.838971138 -0.196737513
vn 0.999968052 0.00797722489 -0.000646599568
vn 0.498199284 0.855960488 0.138308242
vn -0.498830706 0.855603218 0.138242066
vn -0.999964595 0.00839079451 -0.000585670932
vn -0.504898429 -0.852897346 -0.132829353
vn -0.504898429 -0.852897346 -0.132829353
vn 0.505518079 -0.852537811 -0.132780731
vn 0.999997735 0.00157055329 -0.00143157912
vn 0.499471605 0.862044632 0.0860652104
vn -0.500523806 0.861442506 0.0859812126
vn -0.999996543 0.00226377463 -0.00137240067
vn -0.500572383 -0.861778975 -0.0822453722
vn 0.501596212 -0.861186564 -0.0822132602
vn -0.500572383 -0.861778975 -0.0822453722
vn 0.991971135 0.0261520296 -0.123730451
vn 0.488666117 0.87038219 -0.0603332482
vn 0.999263942 0.0183918625 0.0336649641
vn 0.479422212 0.877158523 -0.0273350868
vn -0.490420341 0.869394898 -0.060334865
vn -0.484682828 0.874009073 -0.0345062912
vn -0.991930425 0.0273397788 -0.123800397
vn -0.999592364 0.0233692657 0.016400937
vn -0.504565895 -0.84295845 -0.186639875
vn -0.493198752 -0.864100933 0.100422211
vn 0.489031166 -0.865445197 0.10887228
vn 0.506282926 -0.841943324 -0.186571985
vn -0.493198752 -0.864100933 0.100422211
vn -0.504565895 -0.84295845 -0.186639875
vn 0.964162946 -0.0999855474 0.245749488
vn 0.531907082 0.794344664 0.293413192
vn 0.991531253 -0.0883256868 0.0952072069
vn 0.523987174 0.827381432 0.202181458
vn -0.520610869 0.831912279 0.192058295
vn -0.53190726 0.794344544 0.29341343
vn 0.442793876 -0.872652352 0.20594041
vn 0.480216891 -0.870939493 -0.104192846
vn -0.480216801 -0.870939612 -0.104192905
vn -0.441272795 -0.874316812 0.202110127
vn -0.991531134 -0.0883260965 0.0952073112
vn -0.967599511 -0.0981422812 0.232635096
vn -0.53190726 0.794344544 0.29341343
vn 0.552570522 0.74180311 0.379992008
vn 0.97513026 -0.220768064 -0.0195528455
vn 0.999263942 0.0183918625 0.0336649641
vn 0.479422212 0.877158523 -0.0273350868
vn -0.484682828 0.874009073 -0.0345062912
vn -0.552570641 0.741802812 0.379992396
vn -0.975130379 -0.22076793 -0.0195524357
vn -0.305047035 -0.926042438 -0.222242445
vn -0.493198752 -0.864100933 0.100422211
vn -0.999592364 0.0233692657 0.016400937
vn -0.520610869 0.831912279 0.192058295
vn -0.53190726 0.794344544 0.29341343
vn -0.484682828 0.874009073 -0.0345062912
vn -0.53190726 0.794344544 0.29341343
vn -0.552570641 0.741802812 0.379992396
vn 0.305047214 -0.926042438 -0.222242445
vn 0.489031166 -0.865445197 0.10887228
vn -0.951258659 0.101872288 -0.291082293
vn -0.533505201 -0.783090234 -0.31959644
vn -0.519201756 -0.811037838 -0.269531369
vn -0.98882091 0.100623742 -0.110037044
vn 0.516405225 -0.81579423 -0.260394812
vn 0.53350538 -0.783089995 -0.319596678
vn -0.439615011 0.866733551 -0.235609114
vn -0.474094063 0.875754952 0.0910385549
vn 0.474093974 0.875755072 0.0910385698
vn 0.438675612 0.868102908 -0.232294902
vn 0.988820791 0.100624211 -0.110037163
vn 0.954744518 0.100710809 -0.279857397
vn 0.53350538 -0.783089995 -0.319596678
vn -0.553137243 -0.711846948 -0.432796806
vn -0.968407393 0.248912394 -0.0151553294
vn 0.0141005656 -0.104714945 -0.994402349
vn 0.53350538 -0.783089995 -0.319596678
vn 0.553137302 -0.71184665 -0.432797313
vn 0.0141005656 -0.104714945 -0.994402349
vn 0.968407452 0.24891229 -0.015155822
vn 0.553137302 -0.71184665 -0.432797313
vn 0.53350538 -0.783089995 -0.319596678
vn 0.516405225 -0.81579423 -0.260394812
vn 0.298615664 0.934172273 0.195322514
vn -0.298615813 0.934172153 0.195322484
vn 0.0141005656 -0.104714945 -0.994402349
vn 0.516405225 -0.81579423 -0.260394812
vn 0.0141005656 -0.104714945 -0.994402349
vn 0.0141005656 -0.104714945 -0.994402349
vn 0.0141005656 -0.104714945 -0.994402349
vn 0.939364433 -0.232975692 -0.25162816
vn 0.886001945 -0.0383392833 -0.462093741
vn 0.876397729 -0.0933973268 -0.472444803
vn 0.965496242 -0.124339186 -0.228816196
vn 0.841883242 -0.326954544 -0.429340512
vn 0.853510022 -0.464378148 -0.236376122
vn 0.73019278 0.122329131 -0.672200918
vn 0.705710828 0.0507612787 -0.706679225
vn 0.822832346 -0.250405818 -0.510141015
vn 0.535421431 -0.168551698 -0.827595413
vn 0.672588646 0.00408358919 -0.740005195
vn 0.949395716 -0.299101502 -0.0958436951
vn 0.757151186 -0.50110507 -0.419065446
vn 0.899481714 -0.436957687 0.000855930848
vn 0.90755105 -0.416817993 -0.0511252135
vn 0.739724278 -0.53932035 -0.402419686
vn 0.976861 -0.19201532 -0.0941950828
vn 0.857868791 -0.32641837 -0.396878093
vn 0.992203712 0.0892452747 -0.0869892016
vn 0.917864799 -0.0669260919 -0.391209662
vn 0.887968838 0.108667374 -0.446881115
vn 0.95818007 0.269238561 -0.0969617516
vn 0.926326215 0.240048304 -0.290338695
vn 0.946896672 0.303681672 -0.105659992
vn 0.396614373 -0.454741061 -0.797438204
vn 0.453560591 -0.568238974 -0.686576426
vn 0.62457788 -0.414224595 -0.662057877
vn 0.657769859 0.00357916835 -0.753210545
vn 0.696901321 -0.070293203 -0.713713825
vn 0.708881974 -0.2226073 -0.669277489
vn 0.75524956 0.550304711 0.356037647
vn 0.706949949 0.601867855 0.37145251
vn 0.70694989 0.601867855 0.371452481
vn 0.783807099 0.516147852 0.345308363
vn 0.826973498 0.452343166 0.333916843
vn 0.830854297 0.442330092 0.337676376
vn 0.829398274 0.418381661 0.370209724
vn 0.826126456 0.41309917 0.38322857
vn 0.813990295 0.379191458 0.440038204
vn 0.810568392 0.365231305 0.457804501
vn 0.803482831 0.315043539 0.505136669
vn 0.80290103 0.302053839 0.513919652
vn 0.801968157 0.260703146 0.53747642
vn 0.802449167 0.254070491 0.539929152
vn 0.791443944 0.277056575 0.544844985
vn 0.788939297 0.28420788 0.544794202
vn 0.775393069 0.320598125 0.544042528
vn 0.775393069 0.320598125 0.544042528
vn -0.673381805 0.620445848 0.401999921
vn -0.97892946 0.0306110922 -0.201891109
vn -0.953064501 0.299350888 -0.0453560315
vn -0.992019236 0.0997496471 -0.0771220252
vn -0.598707914 0.627915382 0.49726361
vn -0.557088077 -0.544174373 -0.627317429
vn -0.983254015 0.181972653 -0.00987059623
vn -0.60443747 -0.52736634 -0.597109795
vn -0.641297877 -0.429223657 -0.636006236
vn -0.683496058 -0.352636367 -0.63912493
vn -0.98196435 0.187704325 0.022649873
vn -0.527742028 0.588256478 0.612733722
vn -0.443990916 0.585161448 0.678570747
vn -0.945884645 0.290130973 0.14534913
vn -0.361433625 0.587592959 0.723947644
vn -0.932831883 0.286815912 0.218085319
vn -0.339360952 0.590656042 0.732092559
vn -0.75883013 -0.282239288 -0.586956501
vn -0.913825691 0.248666167 0.321072847
vn -0.957916081 -0.20660001 -0.199281543
vn -0.819730282 0.367340922 0.439434797
vn -0.868188262 -0.194335178 -0.456599295
vn -0.372040898 0.657086432 0.655608833
vn -0.939364433 0.232975692 0.25162816
vn -0.886001945 0.0383392759 0.462093741
vn -0.965496242 0.124339186 0.228816167
vn -0.87639761 0.0933973193 0.472444832
vn -0.841883242 0.326954544 0.429340512
vn -0.853509903 0.464378148 0.236376166
vn -0.73019278 -0.122329146 0.672200918
vn -0.705710828 -0.0507612936 0.706679225
vn -0.822832346 0.250405818 0.510141015
vn -0.535421431 0.168551698 0.827595413
vn -0.672588646 -0.00408359291 0.740005195
vn -0.949395716 0.299101502 0.0958436951
vn -0.757151186 0.50110507 0.419065446
vn -0.899481714 0.436957687 -0.000855937018
vn -0.90755105 0.416817993 0.0511252135
vn -0.739724219 0.53932035 0.402419657
vn -0.976861 0.19201535 0.0941950902
vn -0.857868791 0.32641837 0.396878093
vn -0.992203712 -0.0892453045 0.0869892016
vn -0.917864799 0.0669260845 0.391209662
vn -0.887968838 -0.108667396 0.446881115
vn -0.95818007 -0.269238591 0.096961759
vn -0.926326215 -0.240048304 0.290338695
vn -0.946896672 -0.303681672 0.105659992
vn -0.396614343 0.454741091 0.797438145
vn -0.453560591 0.568238974 0.686576426
vn -0.62457788 0.414224595 0.662057877
vn -0.657769859 -0.00357916835 0.753210545
vn -0.696901321 0.0702931881 0.713713825
vn -0.708881974 0.2226073 0.669277489
vn -0.755249619 -0.550304711 -0.356037617
vn -0.706949949 -0.601867855 -0.371452481
vn -0.783807099 -0.516147852 -0.345308363
vn -0.706949949 -0.601867855 -0.37145251
vn -0.826973498 -0.452343166 -0.333916843
vn -0.830854177 -0.442330122 -0.337676376
vn -0.829398274 -0.418381661 -0.370209754
vn -0.826126456 -0.41309911 -0.383228511
vn -0.813990295 -0.379191518 -0.440038204
vn -0.810568392 -0.365231305 -0.457804501
vn -0.803482831 -0.315043539 -0.505136669
vn -0.802901089 -0.302053869 -0.513919592
vn -0.801968157 -0.260703146 -0.53747642
vn -0.802449167 -0.254070491 -0.539929152
vn -0.791443944 -0.277056575 -0.544844985
vn -0.788939297 -0.284207851 -0.544794142
vn -0.775393069 -0.320598125 -0.544042528
vn -0.775393069 -0.320598125 -0.544042528
vn 0.673381805 -0.620445848 -0.401999921
vn 0.953064501 -0.299350888 0.0453560315
vn 0.97892946 -0.0306110922 0.201891094
vn 0.992019236 -0.099749662 0.0771220326
vn 0.598707914 -0.627915382 -0.49726361
vn 0.557088077 0.544174373 0.627317429
vn 0.983254135 -0.181972623 0.00987053197
vn 0.60443747 0.52736634 0.597109795
vn 0.641297996 0.429223657 0.636006296
vn 0.683496058 0.352636367 0.63912493
vn 0.98196435 -0.18770434 -0.0226498712
vn 0.527742088 -0.588256419 -0.612733841
vn 0.443990916 -0.585161448 -0.678570747
vn 0.945884645 -0.290130943 -0.145349115
vn 0.361433625 -0.587592959 -0.723947644
vn 0.932831943 -0.286815882 -0.218085289
vn 0.339360952 -0.590655982 -0.732092619
vn 0.75883013 0.282239288 0.586956501
vn 0.913825691 -0.248666167 -0.321072847
vn 0.957916081 0.20660001 0.199281543
vn 0.819730282 -0.367340922 -0.439434797
vn 0.868188262 0.194335178 0.456599295
vn 0.372040898 -0.657086432 -0.655608833
g nWoman_hair_MC1_0
f 3/3/3 2/2/2 1/1/1
f 3/3/3 1/1/1 4/4/4
f 3/3/3 5/5/5 2/2/2
f 6/6/6 5/5/5 3/3/3
f 7/7/7 6/6/6 3/3/3
f 7/7/7 3/3/3 8/8/8
f 7/7/7 8/8/8 9/9/9
f 8/8/8 10/10/10 9/9/9
f 9/9/9 10/10/10 11/11/11
f 10/10/10 12/12/12 11/11/11
f 9/9/9 13/13/13 7/7/7
f 13/13/13 6/6/6 7/7/7
f 11/11/11 14/14/14 9/9/9
f 14/14/14 13/13/13 9/9/9
f 15/15/15 14/14/14 11/11/11
f 16/16/16 15/15/15 11/11/11
f 11/11/11 17/17/17 16/16/16
f 17/17/17 18/18/18 16/16/16
f 19/19/19 15/15/15 16/16/16
f 20/20/20 19/19/19 16/16/16
f 16/16/16 21/21/21 20/20/20
f 21/21/21 22/22/22 20/20/20
f 20/20/20 22/22/22 23/23/23
f 20/20/20 23/23/23 19/19/19
f 22/22/22 24/24/24 23/23/23
f 25/25/25 23/23/23 24/24/24
f 26/26/26 25/25/25 24/24/24
f 23/23/23 27/27/27 19/19/19
f 25/25/25 28/28/28 23/23/23
f 28/28/28 27/27/27 23/23/23
f 29/29/29 25/25/25 26/26/26
f 30/30/30 29/29/29 26/26/26
f 29/29/29 30/30/30 31/31/31
f 30/30/30 32/32/32 31/31/31
f 31/31/31 32/32/32 33/33/33
f 32/32/32 34/34/34 33/33/33
f 33/33/33 34/34/34 35/35/35
f 34/34/34 36/36/36 35/35/35
f 29/29/29 31/31/31 37/37/37
f 29/29/29 37/37/37 25/25/25
f 37/37/37 28/28/28 25/25/25
f 31/31/31 38/38/38 37/37/37
f 31/31/31 33/33/33 38/38/38
f 39/39/39 37/37/37 38/38/38
f 40/40/40 39/39/39 38/38/38
f 40/40/40 38/38/38 41/41/41
f 33/33/33 41/41/41 38/38/38
f 33/33/33 35/35/35 41/41/41
f 42/42/42 40/40/40 41/41/41
f 42/42/42 41/41/41 43/43/43
f 41/41/41 44/44/44 43/43/43
f 35/35/35 44/44/44 41/41/41
f 43/43/43 44/44/44 45/45/45
f 44/44/44 46/46/46 45/45/45
f 46/46/46 44/44/44 35/35/35
f 45/45/45 46/46/46 47/47/47
f 48/48/48 45/45/45 47/47/47
f 49/49/49 46/46/46 35/35/35
f 35/35/35 50/50/50 49/49/49
f 49/49/49 51/51/51 46/46/46
f 51/51/51 47/47/47 46/46/46
f 48/48/48 47/47/47 51/51/51
f 49/49/49 52/52/52 51/51/51
f 53/53/53 52/52/52 49/49/49
f 52/52/52 54/54/54 51/51/51
f 51/51/51 54/54/54 55/55/55
f 56/56/56 48/48/48 51/51/51
f 51/51/51 57/57/57 56/56/56
f 57/57/57 51/51/51 58/58/58
f 57/57/57 55/55/55 59/59/59
f 60/60/60 57/57/57 59/59/59
f 60/60/60 56/56/56 57/57/57
f 2/2/2 62/62/62 61/61/61
f 2/2/2 63/63/63 62/62/62
f 63/63/63 64/64/64 62/62/62
f 67/67/67 66/66/66 65/65/65
f 66/66/66 68/68/68 65/65/65
f 65/65/65 68/68/68 69/69/69
f 68/68/68 70/70/70 69/69/69
f 69/69/69 70/70/70 71/71/71
f 70/70/70 72/72/72 71/71/71
f 71/71/71 72/72/72 73/73/73
f 72/72/72 74/74/74 73/73/73
f 73/73/73 74/74/74 75/75/75
f 74/74/74 76/76/76 75/75/75
f 75/75/75 76/76/76 77/77/77
f 76/76/76 78/78/78 77/77/77
f 77/77/77 78/78/78 79/79/79
f 80/80/80 77/77/77 79/79/79
f 68/68/68 66/66/66 81/81/81
f 82/82/82 74/74/74 72/72/72
f 76/76/76 74/74/74 82/82/82
f 83/83/83 76/76/76 82/82/82
f 78/78/78 76/76/76 83/83/83
f 84/84/84 78/78/78 83/83/83
f 79/79/79 78/78/78 84/84/84
f 85/85/85 79/79/79 84/84/84
f 79/79/79 85/85/85 86/86/86
f 87/87/87 79/79/79 86/86/86
f 79/79/79 87/87/87 80/80/80
f 87/87/87 88/88/88 80/80/80
f 87/87/87 89/89/89 88/88/88
f 89/89/89 90/90/90 88/88/88
f 89/89/89 87/87/87 91/91/91
f 87/87/87 86/86/86 91/91/91
f 91/91/91 92/92/92 89/89/89
f 92/92/92 93/93/93 89/89/89
f 89/89/89 93/93/93 90/90/90
f 93/93/93 94/94/94 90/90/90
f 94/94/94 93/93/93 95/95/95
f 95/95/95 93/93/93 92/92/92
f 96/96/96 94/94/94 95/95/95
f 94/94/94 96/96/96 97/97/97
f 98/98/98 94/94/94 97/97/97
f 94/94/94 98/98/98 90/90/90
f 90/90/90 99/99/99 88/88/88
f 98/98/98 99/99/99 90/90/90
f 98/98/98 100/100/100 99/99/99
f 98/98/98 97/97/97 100/100/100
f 100/100/100 101/101/101 99/99/99
f 99/99/99 102/102/102 88/88/88
f 102/102/102 99/99/99 101/101/101
f 88/88/88 102/102/102 80/80/80
f 102/102/102 103/103/103 80/80/80
f 77/77/77 80/80/80 103/103/103
f 104/104/104 77/77/77 103/103/103
f 104/104/104 105/105/105 77/77/77
f 105/105/105 75/75/75 77/77/77
f 105/105/105 106/106/106 75/75/75
f 106/106/106 73/73/73 75/75/75
f 106/106/106 107/107/107 73/73/73
f 107/107/107 71/71/71 73/73/73
f 107/107/107 108/108/108 71/71/71
f 108/108/108 69/69/69 71/71/71
f 108/108/108 109/109/109 69/69/69
f 109/109/109 65/65/65 69/69/69
f 109/109/109 110/110/110 65/65/65
f 110/110/110 67/67/67 65/65/65
f 110/110/110 109/109/109 111/111/111
f 106/106/106 112/112/112 107/107/107
f 106/106/106 105/105/105 112/112/112
f 105/105/105 113/113/113 112/112/112
f 105/105/105 104/104/104 113/113/113
f 104/104/104 114/114/114 113/113/113
f 104/104/104 103/103/103 114/114/114
f 103/103/103 115/115/115 114/114/114
f 115/115/115 103/103/103 116/116/116
f 103/103/103 102/102/102 116/116/116
f 116/116/116 102/102/102 101/101/101
f 110/110/110 117/117/117 67/67/67
f 117/117/117 118/118/118 67/67/67
f 67/67/67 118/118/118 66/66/66
f 118/118/118 119/119/119 66/66/66
f 66/66/66 119/119/119 81/81/81
f 119/119/119 120/120/120 81/81/81
f 111/111/111 121/121/121 110/110/110
f 121/121/121 117/117/117 110/110/110
f 124/124/124 123/123/123 122/122/122
f 123/123/123 124/124/124 125/125/125
f 125/125/125 124/124/124 126/126/126
f 127/127/127 125/125/125 126/126/126
f 128/128/128 127/127/127 126/126/126
f 129/129/129 128/128/128 126/126/126
f 129/129/129 126/126/126 130/130/130
f 130/130/130 126/126/126 122/122/122
f 131/131/131 129/129/129 130/130/130
f 132/132/132 129/129/129 131/131/131
f 133/133/133 132/132/132 131/131/131
f 134/134/134 132/132/132 133/133/133
f 134/134/134 135/135/135 132/132/132
f 136/136/136 135/135/135 134/134/134
f 137/137/137 136/136/136 134/134/134
f 137/137/137 134/134/134 138/138/138
f 139/139/139 137/137/137 138/138/138
f 140/140/140 137/137/137 139/139/139
f 141/141/141 140/140/140 139/139/139
f 142/142/142 140/140/140 141/141/141
f 143/143/143 142/142/142 141/141/141
f 138/138/138 134/134/134 144/144/144
f 145/145/145 142/142/142 143/143/143
f 145/145/145 146/146/146 142/142/142
f 146/146/146 147/147/147 142/142/142
f 142/142/142 147/147/147 140/140/140
f 148/148/148 145/145/145 143/143/143
f 149/149/149 145/145/145 148/148/148
f 150/150/150 149/149/149 148/148/148
f 150/150/150 151/151/151 149/149/149
f 149/149/149 152/152/152 145/145/145
f 152/152/152 146/146/146 145/145/145
f 149/149/149 153/153/153 152/152/152
f 151/151/151 154/154/154 153/153/153
f 155/155/155 153/153/153 149/149/149
f 153/153/153 156/156/156 152/152/152
f 153/153/153 157/157/157 156/156/156
f 158/158/158 157/157/157 153/153/153
f 158/158/158 159/159/159 157/157/157
f 160/160/160 158/158/158 153/153/153
f 157/157/157 161/161/161 156/156/156
f 157/157/157 162/162/162 161/161/161
f 163/163/163 162/162/162 157/157/157
f 163/163/163 164/164/164 162/162/162
f 164/164/164 165/165/165 162/162/162
f 162/162/162 165/165/165 166/166/166
f 162/162/162 166/166/166 161/161/161
f 165/165/165 167/167/167 166/166/166
f 167/167/167 168/168/168 166/166/166
f 168/168/168 169/169/169 166/166/166
f 166/166/166 169/169/169 161/161/161
f 168/168/168 170/170/170 169/169/169
f 170/170/170 171/171/171 169/169/169
f 169/169/169 171/171/171 172/172/172
f 169/169/169 172/172/172 161/161/161
f 171/171/171 173/173/173 172/172/172
f 161/161/161 172/172/172 156/156/156
f 172/172/172 174/174/174 156/156/156
f 172/172/172 175/175/175 174/174/174
f 176/176/176 175/175/175 172/172/172
f 175/175/175 177/177/177 174/174/174
f 156/156/156 174/174/174 152/152/152
f 174/174/174 178/178/178 152/152/152
f 174/174/174 179/179/179 178/178/178
f 180/180/180 179/179/179 174/174/174
f 179/179/179 181/181/181 178/178/178
f 178/178/178 181/181/181 182/182/182
f 183/183/183 178/178/178 182/182/182
f 152/152/152 178/178/178 183/183/183
f 183/183/183 182/182/182 184/184/184
f 185/185/185 183/183/183 184/184/184
f 185/185/185 184/184/184 186/186/186
f 187/187/187 185/185/185 186/186/186
f 187/187/187 186/186/186 188/188/188
f 189/189/189 187/187/187 188/188/188
f 189/189/189 188/188/188 190/190/190
f 191/191/191 189/189/189 190/190/190
f 191/191/191 190/190/190 192/192/192
f 193/193/193 191/191/191 192/192/192
f 146/146/146 183/183/183 185/185/185
f 147/147/147 146/146/146 185/185/185
f 147/147/147 185/185/185 187/187/187
f 146/146/146 152/152/152 183/183/183
f 194/194/194 147/147/147 187/187/187
f 194/194/194 187/187/187 189/189/189
f 147/147/147 194/194/194 140/140/140
f 140/140/140 194/194/194 137/137/137
f 194/194/194 136/136/136 137/137/137
f 136/136/136 194/194/194 189/189/189
f 136/136/136 189/189/189 191/191/191
f 135/135/135 136/136/136 191/191/191
f 135/135/135 191/191/191 193/193/193
f 195/195/195 135/135/135 193/193/193
f 135/135/135 195/195/195 132/132/132
f 132/132/132 195/195/195 129/129/129
f 195/195/195 128/128/128 129/129/129
f 128/128/128 195/195/195 196/196/196
f 195/195/195 193/193/193 196/196/196
f 196/196/196 193/193/193 197/197/197
f 193/193/193 198/198/198 197/197/197
f 196/196/196 197/197/197 199/199/199
f 200/200/200 196/196/196 199/199/199
f 128/128/128 196/196/196 200/200/200
f 127/127/127 128/128/128 200/200/200
f 125/125/125 127/127/127 200/200/200
f 201/201/201 125/125/125 200/200/200
f 201/201/201 200/200/200 202/202/202
f 200/200/200 199/199/199 203/203/203
f 201/201/201 123/123/123 125/125/125
f 205/205/205 201/201/201 204/204/204
f 207/207/207 206/206/206 157/157/157
f 210/210/210 209/209/209 208/208/208
f 209/209/209 211/211/211 208/208/208
f 212/212/212 209/209/209 210/210/210
f 213/213/213 212/212/212 210/210/210
f 214/214/214 210/210/210 208/208/208
f 215/215/215 214/214/214 208/208/208
f 214/214/214 216/216/216 210/210/210
f 216/216/216 213/213/213 210/210/210
f 126/126/126 124/124/124 217/217/217
f 220/220/220 219/219/219 218/218/218
f 219/219/219 221/221/221 218/218/218
f 218/218/218 221/221/221 222/222/222
f 221/221/221 223/223/223 222/222/222
f 222/222/222 223/223/223 224/224/224
f 225/225/225 222/222/222 224/224/224
f 225/225/225 224/224/224 226/226/226
f 227/227/227 221/221/221 219/219/219
f 228/228/228 226/226/226 224/224/224
f 229/229/229 228/228/228 224/224/224
f 229/229/229 224/224/224 230/230/230
f 228/228/228 231/231/231 226/226/226
f 231/231/231 232/232/232 226/226/226
f 233/233/233 226/226/226 232/232/232
f 233/233/233 234/234/234 226/226/226
f 231/231/231 235/235/235 232/232/232
f 235/235/235 236/236/236 232/232/232
f 237/237/237 232/232/232 236/236/236
f 237/237/237 238/238/238 232/232/232
f 239/239/239 237/237/237 236/236/236
f 239/239/239 236/236/236 240/240/240
f 240/240/240 236/236/236 235/235/235
f 241/241/241 239/239/239 240/240/240
f 240/240/240 242/242/242 241/241/241
f 242/242/242 243/243/243 241/241/241
f 244/244/244 240/240/240 235/235/235
f 244/244/244 245/245/245 240/240/240
f 245/245/245 242/242/242 240/240/240
f 242/242/242 246/246/246 243/243/243
f 246/246/246 247/247/247 243/243/243
f 247/247/247 246/246/246 248/248/248
f 249/249/249 247/247/247 248/248/248
f 249/249/249 248/248/248 250/250/250
f 251/251/251 249/249/249 250/250/250
f 251/251/251 250/250/250 252/252/252
f 248/248/248 246/246/246 253/253/253
f 245/245/245 253/253/253 242/242/242
f 253/253/253 246/246/246 242/242/242
f 254/254/254 248/248/248 253/253/253
f 250/250/250 248/248/248 254/254/254
f 253/253/253 255/255/255 254/254/254
f 255/255/255 256/256/256 254/254/254
f 254/254/254 256/256/256 257/257/257
f 257/257/257 250/250/250 254/254/254
f 252/252/252 250/250/250 257/257/257
f 256/256/256 258/258/258 257/257/257
f 257/257/257 258/258/258 259/259/259
f 260/260/260 257/257/257 259/259/259
f 260/260/260 252/252/252 257/257/257
f 260/260/260 259/259/259 261/261/261
f 262/262/262 260/260/260 261/261/261
f 260/260/260 262/262/262 252/252/252
f 262/262/262 261/261/261 263/263/263
f 261/261/261 264/264/264 263/263/263
f 262/262/262 265/265/265 252/252/252
f 266/266/266 252/252/252 265/265/265
f 267/267/267 266/266/266 265/265/265
f 267/267/267 265/265/265 268/268/268
f 263/263/263 268/268/268 262/262/262
f 268/268/268 265/265/265 262/262/262
f 269/269/269 267/267/267 268/268/268
f 269/269/269 268/268/268 270/270/270
f 268/268/268 271/271/271 270/270/270
f 271/271/271 263/263/263 264/264/264
f 271/271/271 268/268/268 263/263/263
f 264/264/264 272/272/272 271/271/271
f 272/272/272 273/273/273 271/271/271
f 271/271/271 273/273/273 274/274/274
f 275/275/275 271/271/271 274/274/274
f 277/277/277 276/276/276 252/252/252
f 279/279/279 229/229/229 278/278/278
f 279/279/279 278/278/278 221/221/221
f 227/227/227 279/279/279 221/221/221
f 220/220/220 280/280/280 219/219/219
f 280/280/280 281/281/281 219/219/219
f 168/168/168 282/282/282 170/170/170
f 282/282/282 283/283/283 170/170/170
f 284/284/284 282/282/282 168/168/168
f 167/167/167 284/284/284 168/168/168
f 285/285/285 284/284/284 167/167/167
f 165/165/165 285/285/285 167/167/167
f 286/286/286 285/285/285 165/165/165
f 164/164/164 286/286/286 165/165/165
f 289/289/289 288/288/288 287/287/287
f 288/288/288 290/290/290 287/287/287
f 289/289/289 287/287/287 291/291/291
f 292/292/292 289/289/289 291/291/291
f 292/292/292 291/291/291 293/293/293
f 294/294/294 292/292/292 293/293/293
f 294/294/294 293/293/293 295/295/295
f 296/296/296 294/294/294 295/295/295
f 288/288/288 297/297/297 290/290/290
f 297/297/297 298/298/298 290/290/290
f 297/297/297 299/299/299 298/298/298
f 299/299/299 300/300/300 298/298/298
f 287/287/287 290/290/290 301/301/301
f 290/290/290 302/302/302 301/301/301
f 290/290/290 298/298/298 302/302/302
f 291/291/291 287/287/287 303/303/303
f 287/287/287 301/301/301 303/303/303
f 293/293/293 291/291/291 304/304/304
f 291/291/291 303/303/303 304/304/304
f 295/295/295 293/293/293 305/305/305
f 293/293/293 304/304/304 305/305/305
f 298/298/298 300/300/300 306/306/306
f 298/298/298 306/306/306 302/302/302
f 300/300/300 307/307/307 306/306/306
f 301/301/301 302/302/302 308/308/308
f 302/302/302 309/309/309 308/308/308
f 302/302/302 306/306/306 309/309/309
f 303/303/303 301/301/301 310/310/310
f 301/301/301 308/308/308 310/310/310
f 304/304/304 303/303/303 311/311/311
f 303/303/303 310/310/310 311/311/311
f 305/305/305 304/304/304 312/312/312
f 304/304/304 311/311/311 312/312/312
f 306/306/306 307/307/307 313/313/313
f 306/306/306 313/313/313 309/309/309
f 307/307/307 314/314/314 313/313/313
f 308/308/308 309/309/309 315/315/315
f 309/309/309 316/316/316 315/315/315
f 309/309/309 313/313/313 316/316/316
f 310/310/310 308/308/308 317/317/317
f 308/308/308 315/315/315 317/317/317
f 311/311/311 310/310/310 318/318/318
f 310/310/310 317/317/317 318/318/318
f 312/312/312 311/311/311 319/319/319
f 311/311/311 318/318/318 319/319/319
f 313/313/313 314/314/314 320/320/320
f 313/313/313 320/320/320 316/316/316
f 314/314/314 321/321/321 320/320/320
f 315/315/315 316/316/316 322/322/322
f 316/316/316 323/323/323 322/322/322
f 316/316/316 320/320/320 323/323/323
f 317/317/317 315/315/315 324/324/324
f 315/315/315 322/322/322 324/324/324
f 318/318/318 317/317/317 325/325/325
f 317/317/317 324/324/324 325/325/325
f 319/319/319 318/318/318 326/326/326
f 318/318/318 325/325/325 326/326/326
f 320/320/320 321/321/321 327/327/327
f 320/320/320 327/327/327 323/323/323
f 321/321/321 328/328/328 327/327/327
f 322/322/322 323/323/323 329/329/329
f 330/330/330 322/322/322 329/329/329
f 324/324/324 322/322/322 330/330/330
f 331/331/331 324/324/324 330/330/330
f 325/325/325 324/324/324 331/331/331
f 332/332/332 325/325/325 331/331/331
f 326/326/326 325/325/325 332/332/332
f 333/333/333 326/326/326 332/332/332
f 327/327/327 328/328/328 334/334/334
f 335/335/335 327/327/327 334/334/334
f 329/329/329 323/323/323 335/335/335
f 323/323/323 327/327/327 335/335/335
f 330/330/330 329/329/329 336/336/336
f 337/337/337 330/330/330 336/336/336
f 331/331/331 330/330/330 337/337/337
f 338/338/338 331/331/331 337/337/337
f 332/332/332 331/331/331 338/338/338
f 339/339/339 332/332/332 338/338/338
f 333/333/333 332/332/332 339/339/339
f 340/340/340 333/333/333 339/339/339
f 341/341/341 335/335/335 334/334/334
f 336/336/336 329/329/329 341/341/341
f 329/329/329 335/335/335 341/341/341
f 342/342/342 341/341/341 334/334/334
f 337/337/337 336/336/336 343/343/343
f 343/343/343 336/336/336 341/341/341
f 344/344/344 337/337/337 343/343/343
f 338/338/338 337/337/337 344/344/344
f 343/343/343 345/345/345 344/344/344
f 345/345/345 346/346/346 344/344/344
f 344/344/344 346/346/346 347/347/347
f 347/347/347 338/338/338 344/344/344
f 339/339/339 338/338/338 347/347/347
f 346/346/346 348/348/348 347/347/347
f 347/347/347 348/348/348 349/349/349
f 349/349/349 339/339/339 347/347/347
f 340/340/340 339/339/339 349/349/349
f 348/348/348 350/350/350 349/349/349
f 349/349/349 350/350/350 351/351/351
f 351/351/351 340/340/340 349/349/349
f 350/350/350 352/352/352 351/351/351
f 353/353/353 345/345/345 343/343/343
f 354/354/354 353/353/353 343/343/343
f 354/354/354 343/343/343 341/341/341
f 355/355/355 353/353/353 354/354/354
f 356/356/356 355/355/355 354/354/354
f 354/354/354 341/341/341 356/356/356
f 341/341/341 342/342/342 356/356/356
f 359/359/359 358/358/358 357/357/357
f 358/358/358 360/360/360 357/357/357
f 361/361/361 360/360/360 358/358/358
f 362/362/362 361/361/361 358/358/358
f 359/359/359 357/357/357 363/363/363
f 364/364/364 359/359/359 363/363/363
f 364/364/364 363/363/363 365/365/365
f 363/363/363 366/366/366 365/365/365
f 365/365/365 366/366/366 367/367/367
f 366/366/366 368/368/368 367/367/367
f 367/367/367 368/368/368 369/369/369
f 370/370/370 358/358/358 359/359/359
f 362/362/362 358/358/358 370/370/370
f 371/371/371 370/370/370 359/359/359
f 371/371/371 359/359/359 364/364/364
f 372/372/372 357/357/357 360/360/360
f 373/373/373 372/372/372 360/360/360
f 373/373/373 360/360/360 374/374/374
f 360/360/360 361/361/361 374/374/374
f 367/367/367 369/369/369 375/375/375
f 376/376/376 367/367/367 375/375/375
f 365/365/365 367/367/367 376/376/376
f 377/377/377 365/365/365 376/376/376
f 364/364/364 365/365/365 377/377/377
f 368/368/368 366/366/366 378/378/378
f 379/379/379 368/368/368 378/378/378
f 380/380/380 368/368/368 379/379/379
f 368/368/368 380/380/380 381/381/381
f 382/382/382 380/380/380 379/379/379
f 384/384/384 383/383/383 370/370/370
f 385/385/385 364/364/364 377/377/377
f 385/385/385 371/371/371 364/364/364
f 378/378/378 366/366/366 386/386/386
f 366/366/366 363/363/363 386/386/386
f 386/386/386 363/363/363 357/357/357
f 372/372/372 386/386/386 357/357/357
f 389/389/389 388/388/388 387/387/387
f 388/388/388 390/390/390 387/387/387
f 389/389/389 391/391/391 388/388/388
f 391/391/391 392/392/392 388/388/388
f 387/387/387 390/390/390 393/393/393
f 390/390/390 394/394/394 393/393/393
f 393/393/393 394/394/394 395/395/395
f 396/396/396 393/393/393 395/395/395
f 396/396/396 395/395/395 397/397/397
f 398/398/398 396/396/396 397/397/397
f 398/398/398 397/397/397 399/399/399
f 388/388/388 400/400/400 390/390/390
f 400/400/400 401/401/401 390/390/390
f 390/390/390 401/401/401 394/394/394
f 387/387/387 402/402/402 389/389/389
f 388/388/388 403/403/403 400/400/400
f 403/403/403 404/404/404 400/400/400
f 389/389/389 405/405/405 391/391/391
f 397/397/397 395/395/395 406/406/406
f 397/397/397 406/406/406 407/407/407
f 408/408/408 397/397/397 407/407/407
f 409/409/409 398/398/398 408/408/408
f 395/395/395 410/410/410 406/406/406
f 395/395/395 394/394/394 410/410/410
f 394/394/394 411/411/411 410/410/410
f 401/401/401 411/411/411 394/394/394
f 413/413/413 412/412/412 398/398/398
f 398/398/398 414/414/414 396/396/396
f 393/393/393 396/396/396 415/415/415
f 393/393/393 416/416/416 387/387/387
f 419/419/419 418/418/418 417/417/417
f 418/418/418 420/420/420 417/417/417
f 421/421/421 419/419/419 417/417/417
f 422/422/422 421/421/421 417/417/417
f 418/418/418 419/419/419 423/423/423
f 424/424/424 418/418/418 423/423/423
f 425/425/425 418/418/418 424/424/424
f 418/418/418 425/425/425 420/420/420
f 426/426/426 425/425/425 424/424/424
f 423/423/423 419/419/419 427/427/427
f 419/419/419 421/421/421 427/427/427
f 425/425/425 428/428/428 420/420/420
f 425/425/425 429/429/429 428/428/428
f 429/429/429 425/425/425 426/426/426
f 429/429/429 430/430/430 428/428/428
f 430/430/430 429/429/429 431/431/431
f 429/429/429 432/432/432 431/431/431
f 431/431/431 432/432/432 433/433/433
f 432/432/432 434/434/434 433/433/433
f 433/433/433 434/434/434 435/435/435
f 434/434/434 436/436/436 435/435/435
f 436/436/436 437/437/437 435/435/435
f 437/437/437 438/438/438 435/435/435
f 437/437/437 439/439/439 438/438/438
f 439/439/439 440/440/440 438/438/438
f 432/432/432 429/429/429 441/441/441
f 441/441/441 429/429/429 426/426/426
f 442/442/442 432/432/432 441/441/441
f 434/434/434 432/432/432 442/442/442
f 443/443/443 434/434/434 442/442/442
f 436/436/436 434/434/434 443/443/443
f 444/444/444 439/439/439 437/437/437
f 445/445/445 444/444/444 437/437/437
f 445/445/445 437/437/437 436/436/436
f 446/446/446 436/436/436 443/443/443
f 446/446/446 445/445/445 436/436/436
f 449/449/449 448/448/448 447/447/447
f 448/448/448 450/450/450 447/447/447
f 447/447/447 450/450/450 451/451/451
f 450/450/450 452/452/452 451/451/451
f 451/451/451 452/452/452 453/453/453
f 452/452/452 454/454/454 453/453/453
f 453/453/453 454/454/454 455/455/455
f 454/454/454 456/456/456 455/455/455
f 455/455/455 456/456/456 457/457/457
f 456/456/456 458/458/458 457/457/457
f 457/457/457 458/458/458 459/459/459
f 458/458/458 460/460/460 459/459/459
f 459/459/459 460/460/460 461/461/461
f 460/460/460 462/462/462 461/461/461
f 461/461/461 462/462/462 463/463/463
f 462/462/462 464/464/464 463/463/463
f 467/467/467 466/466/466 465/465/465
f 466/466/466 468/468/468 465/465/465
f 468/468/468 469/469/469 465/465/465
f 467/467/467 470/470/470 466/466/466
f 468/468/468 466/466/466 470/470/470
f 468/468/468 471/471/471 469/469/469
f 468/468/468 472/472/472 471/471/471
f 472/472/472 468/468/468 470/470/470
f 472/472/472 473/473/473 471/471/471
f 471/471/471 473/473/473 474/474/474
f 475/475/475 471/471/471 474/474/474
f 471/471/471 475/475/475 476/476/476
f 471/471/471 476/476/476 469/469/469
f 475/475/475 477/477/477 476/476/476
f 475/475/475 478/478/478 477/477/477
f 478/478/478 479/479/479 477/477/477
f 478/478/478 480/480/480 479/479/479
f 480/480/480 481/481/481 479/479/479
f 478/478/478 475/475/475 482/482/482
f 475/475/475 474/474/474 482/482/482
f 480/480/480 483/483/483 481/481/481
f 483/483/483 480/480/480 484/484/484
f 483/483/483 484/484/484 485/485/485
f 480/480/480 486/486/486 484/484/484
f 480/480/480 478/478/478 486/486/486
f 478/478/478 482/482/482 486/486/486
f 485/485/485 487/487/487 483/483/483
f 483/483/483 487/487/487 481/481/481
f 490/490/490 489/489/489 488/488/488
f 489/489/489 491/491/491 488/488/488
f 491/491/491 492/492/492 488/488/488
f 492/492/492 493/493/493 488/488/488
f 491/491/491 489/489/489 494/494/494
f 489/489/489 495/495/495 494/494/494
f 489/489/489 496/496/496 495/495/495
f 496/496/496 489/489/489 490/490/490
f 496/496/496 497/497/497 495/495/495
f 492/492/492 491/491/491 498/498/498
f 491/491/491 494/494/494 498/498/498
f 499/499/499 496/496/496 490/490/490
f 500/500/500 496/496/496 499/499/499
f 496/496/496 500/500/500 497/497/497
f 501/501/501 500/500/500 499/499/499
f 500/500/500 501/501/501 502/502/502
f 503/503/503 500/500/500 502/502/502
f 503/503/503 502/502/502 504/504/504
f 505/505/505 503/503/503 504/504/504
f 505/505/505 504/504/504 506/506/506
f 507/507/507 505/505/505 506/506/506
f 508/508/508 507/507/507 506/506/506
f 509/509/509 508/508/508 506/506/506
f 510/510/510 508/508/508 509/509/509
f 511/511/511 510/510/510 509/509/509
f 500/500/500 503/503/503 512/512/512
f 500/500/500 512/512/512 497/497/497
f 503/503/503 513/513/513 512/512/512
f 503/503/503 505/505/505 513/513/513
f 505/505/505 514/514/514 513/513/513
f 505/505/505 507/507/507 514/514/514
f 510/510/510 515/515/515 508/508/508
f 515/515/515 516/516/516 508/508/508
f 508/508/508 516/516/516 507/507/507
f 507/507/507 517/517/517 514/514/514
f 516/516/516 517/517/517 507/507/507
f 520/520/520 519/519/519 518/518/518
f 519/519/519 521/521/521 518/518/518
f 520/520/520 518/518/518 522/522/522
f 523/523/523 520/520/520 522/522/522
f 523/523/523 522/522/522 524/524/524
f 525/525/525 523/523/523 524/524/524
f 525/525/525 524/524/524 526/526/526
f 527/527/527 525/525/525 526/526/526
f 527/527/527 526/526/526 528/528/528
f 529/529/529 527/527/527 528/528/528
f 529/529/529 528/528/528 530/530/530
f 531/531/531 529/529/529 530/530/530
f 531/531/531 530/530/530 532/532/532
f 533/533/533 531/531/531 532/532/532
f 533/533/533 532/532/532 534/534/534
f 535/535/535 533/533/533 534/534/534
f 538/538/538 537/537/537 536/536/536
f 539/539/539 538/538/538 536/536/536
f 540/540/540 539/539/539 536/536/536
f 541/541/541 537/537/537 538/538/538
f 538/538/538 539/539/539 541/541/541
f 542/542/542 539/539/539 540/540/540
f 543/543/543 539/539/539 542/542/542
f 539/539/539 543/543/543 541/541/541
f 544/544/544 543/543/543 542/542/542
f 544/544/544 542/542/542 545/545/545
f 542/542/542 546/546/546 545/545/545
f 546/546/546 542/542/542 547/547/547
f 547/547/547 542/542/542 540/540/540
f 548/548/548 546/546/546 547/547/547
f 549/549/549 546/546/546 548/548/548
f 550/550/550 549/549/549 548/548/548
f 551/551/551 549/549/549 550/550/550
f 552/552/552 551/551/551 550/550/550
f 545/545/545 546/546/546 553/553/553
f 546/546/546 549/549/549 553/553/553
f 554/554/554 551/551/551 552/552/552
f 551/551/551 554/554/554 555/555/555
f 555/555/555 554/554/554 556/556/556
f 557/557/557 551/551/551 555/555/555
f 553/553/553 549/549/549 557/557/557
f 549/549/549 551/551/551 557/557/557
f 558/558/558 556/556/556 554/554/554
f 558/558/558 554/554/554 552/552/552
