g pelvis
v 0.149377003 0.0171055999 1.17478991
v 0.137643993 0.0531318001 1.14596999
v 0.156640992 0.0249847006 1.14342999
v 0.132058993 0.0435548015 1.17809999
v 0.170398995 0.0368041992 1.10042
v 0.145959988 0.0676342994 1.10843003
v 0.108758003 0.0729556009 1.18353999
v 0.114048004 0.087317802 1.15032995
v 0.159334004 0.0696640015 1.06537998
v 0.146255001 0.0815972984 1.07999003
v 0.125286996 0.0860661939 1.04191995
v 0.123287 0.099371098 1.06940997
v 0.122059003 0.099213995 1.1094799
v 0.0854541957 0.111499004 1.06209993
v 0.0855171978 0.119944997 1.10881996
v 0.0395848975 0.113545999 1.07060993
v 0.0384247974 0.123911999 1.11320996
v 0.0091529293 0.107290998 1.08794999
v 0.00775149977 0.112910993 1.12001991
v 0.0807129964 0.0900816992 1.03275001
v 0.0821701214 0.084623605 1.01906204
v 0.13069959 0.081096895 1.0239352
v 0.0384805985 0.084958002 1.03991997
v 0.0116590001 0.0896172971 1.06353998
v 0.0144705996 0.0479497984 1.04426003
v 0.00915331021 0.0491513014 1.04759002
v 0.0174567997 0.0465116985 1.03669
v 0.0445895977 0.0777859986 1.02388
v -0 0.0844871998 1.06920993
v -0 0.0979600996 1.09344995
v 0.0816055015 0.110494003 1.15265
v 0.0777406991 0.0922067985 1.18796992
v 0.0676897019 0.0646265 1.22529995
v 0.0981709957 0.0502716005 1.22505999
v 0.122139998 0.0325587988 1.22237992
v 0.140597999 0.00828504935 1.21664
v 0.150328994 -0.0188453998 1.21032989
v 0.161208004 -0.0117287999 1.17273998
v 0.148177996 -0.0496589988 1.19972992
v 0.155974999 -0.0483699962 1.16643989
v 0.133885995 -0.0736577958 1.19028997
v 0.134981006 -0.0759222955 1.15654993
v 0.0994526967 -0.0870423988 1.14584994
v 0.106677994 -0.0861845016 1.18549001
v 0.0837012976 -0.0945428982 1.1822499
v 0.0733041018 -0.0908344984 1.13898003
v 0.0630495995 -0.0835579932 1.10743999
v 0.0938175023 -0.0865340009 1.11636996
v 0.0401723981 -0.110895991 1.17826998
v 0.0361258984 -0.0995162949 1.13053
v 0.0349632986 -0.0898933038 1.09773004
v 0.0355842002 -0.0725583956 1.07634997
v 0.0527033992 -0.0721845999 1.08144999
v 0.0269256998 -0.0477662981 1.05891001
v 0.0418446995 -0.0532088988 1.05199993
v 0.0219619982 -0.011516599 1.04094005
v 0.0199544989 -0.00946501922 1.04764998
v 0.0174567997 0.0465116985 1.03669
v 0.0144705996 0.0479497984 1.04426003
v 0.00915331021 0.0491513014 1.04759002
v 0.0173138995 -0.0525102988 1.05411994
v 0.0133449994 -0.00929615926 1.04523003
v -0 -0.0549194999 1.05066001
v -0 -0.0823957995 1.06692004
v 0.0220308993 -0.0790548995 1.07010996
v -0 -0.00711079082 1.04342997
v 0.00915331021 0.0491513014 1.04759002
v -0 -0.00711079082 1.04342997
v -0 0.0489967987 1.04914999
v -0 -0.0959447846 1.09056997
v 0.0211102143 0.0405736007 0.995872915
v -0 -0.105260998 1.12656999
v -0 -0.117612988 1.17710996
v 0.0276052374 -0.0215099994 0.996750176
v 0.0408404246 0.0264539998 0.922477007
v 0.0493294038 -0.0317186974 0.921848834
v 0.0601042099 -0.0601786971 0.992522657
v 0.077160649 -0.0660038963 0.921500862
v 0.100104578 -0.0944521055 0.988156438
v 0.109931231 -0.0943910033 0.919897914
v 0.148464978 -0.0944923982 0.986574292
v 0.152473524 -0.0906777903 0.921065629
v 0.0901704356 -0.060988497 0.851873398
v 0.117262274 -0.0838799924 0.853075325
v 0.141351998 -0.0904769972 1.05065
v 0.179466993 -0.055057101 1.05465996
v 0.187265664 -0.0534075014 0.989675879
v 0.135609999 -0.0837028027 1.09366989
v 0.0906765983 -0.0864600986 1.08623993
v 0.0914591029 -0.0878242031 1.04974997
v 0.170001999 -0.0521434024 1.09975994
v 0.13404499 -0.0784788951 1.12846994
v 0.161671013 -0.0494560003 1.13678002
v 0.184179991 -0.00543962 1.10413003
v 0.194136009 0.00493260007 1.05988002
v 0.171375006 -0.00810111966 1.14190996
v 0.201786965 0.00271424977 0.991338909
v 0.189138412 -0.0494615957 0.923942864
v 0.201721951 0.00335199945 0.926000297
v 0.184346482 0.0527700968 0.926534235
v 0.182005882 0.0553367995 0.987620115
v 0.173283994 0.0581137985 1.03456998
v 0.141966686 0.0826980919 0.984846711
v 0.148660302 0.0801755041 0.926251411
v 0.151525214 0.0753923953 0.864087045
v 0.185497358 0.0499666966 0.864040136
v 0.110042579 0.0784884989 0.858144879
v 0.102009088 0.0832544044 0.925274968
v 0.0682590455 0.0675087944 0.923918962
v 0.0932335928 0.0866697952 0.984632254
v 0.0548201315 0.0754825994 0.98997581
v 0.0786103085 0.0597637966 0.853640854
v 0.0408404246 0.0264539998 0.922477007
v 0.0211102143 0.0405736007 0.995872915
v 0.200563967 0.00462268712 0.86293149
v 0.199531212 0.0125472909 0.80309993
v 0.186256632 0.0529004373 0.803397954
v 0.201580867 0.0235434249 0.749877214
v 0.193604872 0.0628011227 0.752168775
v 0.163283437 0.0818063617 0.752007365
v 0.156002447 0.0755836293 0.801138222
v 0.189943284 -0.0337259509 0.799879134
v 0.19093056 -0.0440744013 0.859686613
v 0.208294868 0.0323181078 0.713123441
v 0.195728868 0.0703100264 0.718352199
v 0.167475089 0.0881048962 0.718912542
v 0.188667938 -0.0204319209 0.742168963
v 0.161825895 -0.0436835475 0.736731231
v 0.158635169 -0.0620080084 0.796667993
v 0.192971528 -0.0138628464 0.703444779
v 0.195082217 -0.00510815391 0.676323831
v 0.214119986 0.0399733596 0.682834506
v 0.169146478 -0.0381361544 0.699932098
v 0.129200578 -0.0441532396 0.735276759
v 0.123500198 -0.0634956285 0.794337273
v 0.0931777656 -0.023589449 0.741637111
v 0.0967399254 -0.0496433303 0.794443488
v 0.156596825 -0.0805502981 0.855962038
v 0.101878345 -0.00957156718 0.702891529
v 0.136297837 -0.0345595554 0.700218022
v 0.143613294 -0.0210785549 0.670387328
v 0.176215604 -0.0245537534 0.671331286
v 0.181420594 -0.0107326573 0.643189311
v 0.202948794 0.0102036214 0.645919919
v 0.190522984 0.0119090742 0.600847661
v 0.162375003 0.0121707814 0.597832501
v 0.153285593 -0.00405393587 0.640351295
v 0.132117882 0.0141341472 0.639482558
v 0.1165125 0.00421635993 0.672277451
v 0.214629307 0.0336165167 0.605765998
v 0.218268931 0.0500277951 0.651049435
v 0.229739115 0.0651013628 0.611626506
v 0.205540448 0.0865481272 0.653121471
v 0.198800147 0.0781188235 0.685789764
v 0.18176946 0.107739367 0.653089523
v 0.171736643 0.0979811922 0.688274443
v 0.217095986 0.0980889574 0.615971923
v 0.144356251 0.028652031 0.598594725
v 0.114273362 0.0537859946 0.64357543
v 0.127997875 0.0672120675 0.601122141
v 0.192630872 0.119363733 0.616833806
v 0.163347065 0.123657718 0.614104927
v 0.153694317 0.110822678 0.652209759
v 0.137629405 0.107812621 0.608121157
v 0.127240553 0.089782007 0.648791671
v 0.143556491 0.0992571115 0.69012922
v 0.115963817 0.0849167407 0.685493529
v 0.127997875 0.0672120675 0.601122141
v 0.114273362 0.0537859946 0.64357543
v 0.136592254 0.09135665 0.720421493
v 0.130825326 0.0854546428 0.749602735
v 0.107355624 0.0771669 0.716177225
v 0.0984558165 0.0481216311 0.678661346
v 0.0873834938 0.0391661786 0.7096861
v 0.0992688984 0.0670580119 0.747964561
v 0.121898055 0.0783271492 0.797679603
v 0.0929628536 0.0610893853 0.795386791
v 0.081008397 0.0272028949 0.746645033
v 0.0763404742 0.015618586 0.797684371
v 0.0638294518 0.0145074986 0.84852016
v 0.0638294518 0.0145074986 0.84852016
v 0.0837154165 -0.0242392924 0.795848191
v 0.0763404742 0.015618586 0.797684371
v 0.0755235255 -0.0318006985 0.850231826
v 0.081008397 0.0272028949 0.746645033
v 0.0873834938 0.0391661786 0.7096861
v 0.0984558165 0.0481216311 0.678661346
v 0.00915331021 0.0491513014 1.04759002
v -0 0.0844871998 1.06920993
v -0 0.0489967987 1.04914999
v -0 0.0979600996 1.09344995
v 0.0144819999 0.0934266001 1.17711997
v -0 0.0976539999 1.15339994
v 0.00993719976 0.108072996 1.15070999
v -0 0.0912866965 1.17278993
v 0.040712297 0.116031997 1.15283
v 0.0412150994 0.0978360996 1.18516994
v 0.0307708997 0.0676753968 1.22026992
v -0 0.0677307993 1.21420991
v -0 0.102327995 1.12223995
v -0 0.0976539999 1.15339994
v -0.149377003 0.0171055999 1.17478991
v -0.137643993 0.0531318001 1.14596999
v -0.132058993 0.0435548015 1.17809999
v -0.156640992 0.0249847006 1.14342999
v -0.170398995 0.0368041992 1.10042
v -0.145959988 0.0676342994 1.10843003
v -0.108758003 0.0729556009 1.18353999
v -0.114048004 0.087317802 1.15032995
v -0.159334004 0.0696640015 1.06537998
v -0.146255001 0.0815972984 1.07999003
v -0.125286996 0.0860661939 1.04191995
v -0.123287 0.099371098 1.06940997
v -0.122059003 0.099213995 1.1094799
v -0.0854541957 0.111499004 1.06209993
v -0.0855171978 0.119945012 1.10881996
v -0.0395848975 0.113546006 1.07060993
v -0.0384247974 0.123912007 1.11320996
v -0.0091529293 0.107290998 1.08794999
v -0.00775149977 0.112910993 1.12001991
v -0.0807129964 0.0900816992 1.03275001
v -0.0821701214 0.084623605 1.01906204
v -0.13069959 0.081096895 1.0239352
v -0.0384805985 0.084958002 1.03991997
v -0.0116590001 0.0896172971 1.06353998
v -0.0144705996 0.0479497984 1.04426003
v -0.00915331021 0.0491513014 1.04759002
v -0.0174567997 0.0465116985 1.03669
v -0.0445895977 0.0777859986 1.02388
v -0 0.0844871998 1.06920993
v -0 0.0979600996 1.09344995
v -0.0816055015 0.110494003 1.15265
v -0.0777406991 0.0922067985 1.18796992
v -0.0676897019 0.0646265 1.22529995
v -0.0981709957 0.0502716005 1.22505999
v -0.122139998 0.0325587988 1.22237992
v -0.140597999 0.00828505028 1.21664
v -0.150328994 -0.0188453998 1.21032989
v -0.161208004 -0.0117288018 1.17273998
v -0.148177996 -0.0496589988 1.19972992
v -0.155974999 -0.0483699962 1.16643989
v -0.133885995 -0.0736577958 1.19028997
v -0.134981006 -0.0759222955 1.15654993
v -0.106677994 -0.0861845016 1.18549001
v -0.0994526967 -0.0870423838 1.14584994
v -0.0733041018 -0.0908344984 1.13898003
v -0.0837012976 -0.0945428982 1.1822499
v -0.0938175023 -0.0865340009 1.11636996
v -0.0630495995 -0.0835579857 1.10743999
v -0.0401723981 -0.110895991 1.17826998
v -0.0361258984 -0.0995162949 1.13053
v -0.0349632986 -0.0898933038 1.09773004
v -0.0355842002 -0.072558403 1.07634997
v -0.0527033992 -0.0721845999 1.08144999
v -0.0269256998 -0.0477662981 1.05891001
v -0.0418446995 -0.0532089025 1.05199993
v -0.0219619982 -0.011516599 1.04094005
v -0.0199544989 -0.00946501922 1.04764998
v -0.0174567997 0.0465116985 1.03669
v -0.0144705996 0.0479497984 1.04426003
v -0.00915331021 0.0491513014 1.04759002
v -0.0173138995 -0.0525102988 1.05411994
v -0.0133449994 -0.00929615926 1.04523003
v -0 -0.0549194999 1.05066001
v -0 -0.0823957995 1.06692004
v -0.0220308993 -0.0790548846 1.07010996
v -0 -0.00711079082 1.04342997
v -0.00915331021 0.0491513014 1.04759002
v -0 -0.00711079082 1.04342997
v -0 0.0489967987 1.04914999
v -0 -0.0959447846 1.09056997
v -0.0211102143 0.0405736007 0.995872915
v -0.0276052374 -0.0215099994 0.996750176
v -0.0408404246 0.0264539998 0.922477007
v -0.0493294038 -0.0317186974 0.921848834
v -0.0601042099 -0.0601786971 0.992522657
v -0.077160649 -0.0660038963 0.921500862
v -0.100104578 -0.0944520906 0.988156438
v -0.109931231 -0.0943910033 0.919897914
v -0.148464978 -0.0944923982 0.986574292
v -0.152473524 -0.0906777903 0.921065629
v -0.0901704356 -0.0609885007 0.851873398
v -0.117262274 -0.0838799849 0.853075325
v -0.141351998 -0.0904769897 1.05065
v -0.179466993 -0.0550571047 1.05465996
v -0.187265664 -0.0534074977 0.989675879
v -0.135609999 -0.0837027878 1.09366989
v -0.0906765983 -0.0864600912 1.08623993
v -0.0914591029 -0.0878241882 1.04974997
v -0.170001999 -0.0521434024 1.09975994
v -0.13404499 -0.0784788877 1.12846994
v -0.161671013 -0.0494560003 1.13678002
v -0.184179991 -0.00543962 1.10413003
v -0.194136009 0.00493259914 1.05988002
v -0.171375006 -0.00810111966 1.14190996
v -0.201786965 0.00271425 0.991338909
v -0.189138412 -0.0494615957 0.923942864
v -0.201721951 0.00335199828 0.926000297
v -0.184346482 0.0527700968 0.926534235
v -0.182005882 0.0553367995 0.987620115
v -0.173283994 0.0581137985 1.03456998
v -0.141966686 0.0826980919 0.984846711
v -0.148660302 0.0801755041 0.926251411
v -0.151525214 0.0753923953 0.864087045
v -0.185497358 0.0499666966 0.864040136
v -0.110042579 0.0784884989 0.858144879
v -0.102009088 0.0832544044 0.925274968
v -0.0682590455 0.0675087944 0.923918962
v -0.0932335928 0.0866697952 0.984632254
v -0.0548201315 0.0754825994 0.98997581
v -0.0786103085 0.0597637966 0.853640854
v -0.0408404246 0.0264539998 0.922477007
v -0.0211102143 0.0405736007 0.995872915
v -0.200563967 0.00462268805 0.86293149
v -0.199531212 0.0125472909 0.80309993
v -0.186256632 0.0529004373 0.803397954
v -0.201580867 0.0235434249 0.749877155
v -0.193604872 0.0628011227 0.752168775
v -0.163283437 0.0818063617 0.752007365
v -0.156002447 0.0755836293 0.801138222
v -0.189943284 -0.0337259471 0.799879134
v -0.19093056 -0.0440744013 0.859686613
v -0.208294868 0.0323181078 0.713123441
v -0.195728868 0.070310019 0.718352199
v -0.167475089 0.0881048962 0.718912542
v -0.188667938 -0.0204319227 0.742168963
v -0.16182588 -0.0436835475 0.736731231
v -0.158635169 -0.0620080084 0.796667993
v -0.192971528 -0.0138628483 0.703444719
v -0.195082217 -0.00510815624 0.676323771
v -0.214119986 0.0399733596 0.682834506
v -0.169146478 -0.0381361656 0.699931979
v -0.129200578 -0.0441532396 0.735276699
v -0.123500198 -0.063495636 0.794337213
v -0.0931777656 -0.023589449 0.741637111
v -0.0967399254 -0.0496433303 0.794443488
v -0.156596825 -0.0805502906 0.855962038
v -0.101878345 -0.00957156904 0.702891469
v -0.136297837 -0.0345595628 0.700217962
v -0.143613294 -0.0210785568 0.670387268
v -0.176215604 -0.0245537665 0.671331227
v -0.181420594 -0.0107326573 0.643189311
v -0.202948794 0.0102036176 0.645919859
v -0.190522984 0.0119090732 0.600847661
v -0.162375003 0.0121707795 0.597832501
v -0.153285593 -0.00405393355 0.640351295
v -0.132117882 0.0141341453 0.639482498
v -0.116512507 0.0042163562 0.672277331
v -0.214629307 0.0336165167 0.605765939
v -0.218268931 0.0500277951 0.651049435
v -0.229739115 0.0651013628 0.611626506
v -0.205540448 0.0865481272 0.653121471
v -0.198800147 0.0781188235 0.685789764
v -0.18176946 0.107739381 0.653089523
v -0.171736643 0.0979811922 0.688274443
v -0.217095986 0.0980889574 0.615971863
v -0.144356251 0.0286520291 0.598594725
v -0.114273362 0.0537859946 0.64357543
v -0.127997875 0.0672120675 0.601122081
v -0.192630872 0.119363748 0.616833806
v -0.163347065 0.123657726 0.614104927
v -0.153694317 0.110822693 0.652209759
v -0.137629405 0.107812628 0.608121157
v -0.127240553 0.089782007 0.648791671
v -0.143556491 0.0992571115 0.69012922
v -0.115963817 0.0849167407 0.685493529
v -0.127997875 0.0672120675 0.601122081
v -0.114273362 0.0537859946 0.64357543
v -0.136592254 0.09135665 0.720421493
v -0.130825326 0.0854546428 0.749602735
v -0.107355624 0.0771669 0.716177225
v -0.0984558165 0.0481216311 0.678661346
v -0.0873834938 0.0391661786 0.7096861
v -0.0992688984 0.0670580119 0.747964561
v -0.121898055 0.0783271492 0.797679603
v -0.0929628536 0.0610893853 0.795386791
v -0.081008397 0.0272028912 0.746645033
v -0.0763404742 0.015618586 0.797684371
v -0.0638294518 0.0145074986 0.84852016
v -0.0638294518 0.0145074986 0.84852016
v -0.0837154165 -0.0242392924 0.795848191
v -0.0755235255 -0.0318006985 0.850231826
v -0.0763404742 0.015618586 0.797684371
v -0.081008397 0.0272028912 0.746645033
v -0.0873834938 0.0391661786 0.7096861
v -0.0984558165 0.0481216311 0.678661346
v -0 0.0844871998 1.06920993
v -0.00915331021 0.0491513014 1.04759002
v -0 0.0489967987 1.04914999
v -0 0.0979600996 1.09344995
v -0.0144819999 0.0934266001 1.17711997
v -0 0.0976539999 1.15339994
v -0 0.0912866965 1.17278993
v -0.00993719976 0.108072996 1.15070999
v -0.040712297 0.116032004 1.15283
v -0.0412150994 0.0978360996 1.18516994
v -0.0307708997 0.0676753968 1.22026992
v -0 0.0677307993 1.21420991
v -0 0.102327995 1.12223995
v -0 0.0976539999 1.15339994
v -0 -0.117612988 1.17710996
v -0 -0.105260998 1.12656999
vt 0.313294768 0.875674248
vt 0.339569181 0.842286527
vt 0.317290843 0.834520519
vt 0.334384412 0.882885635
vt 0.32322222 0.77760607
vt 0.34763366 0.794922233
vt 0.358582348 0.893468261
vt 0.365651101 0.852249563
vt 0.34892118 0.739554942
vt 0.358284533 0.761874676
vt 0.378156185 0.719596624
vt 0.378196746 0.759021342
vt 0.372066766 0.803974509
vt 0.403878659 0.763503253
vt 0.396323681 0.815865159
vt 0.430145144 0.789839089
vt 0.421839356 0.837470114
vt 0.44656077 0.820336521
vt 0.439261794 0.85784626
vt 0.412064165 0.718913019
vt 0.412996203 0.696886718
vt 0.376016021 0.692327619
vt 0.443130434 0.739634037
vt 0.455588311 0.784773827
vt 0.476944417 0.735629737
vt 0.478945345 0.74363631
vt 0.475683659 0.724352181
vt 0.442479074 0.712582409
vt 0.46404478 0.79569906
vt 0.454976082 0.830155253
vt 0.389294773 0.863697886
vt 0.380943418 0.906288505
vt 0.372146279 0.963065028
vt 0.349711359 0.95123446
vt 0.33006072 0.940849304
vt 0.309635848 0.930655658
vt 0.289717436 0.923443258
vt 0.291784167 0.871778011
vt 0.266919136 0.916097522
vt 0.264830083 0.870084703
vt 0.245435342 0.913362622
vt 0.237824082 0.86809051
vt 0.207347304 0.869144559
vt 0.222784683 0.920816243
vt 0.204205886 0.928261459
vt 0.185193732 0.871895373
vt 0.167946115 0.828224242
vt 0.195810392 0.828404546
vt 0.170115441 0.948019862
vt 0.154249564 0.883413434
vt 0.142257541 0.836499035
vt 0.132915318 0.79406625
vt 0.149589285 0.788920283
vt 0.111883134 0.752312899
vt 0.126958176 0.737611115
vt 0.0869025216 0.695810676
vt 0.0821703896 0.704451621
vt 0.0449804366 0.643214524
vt 0.0404195301 0.652485371
vt 0.0362766348 0.658856928
vt 0.104316622 0.767052591
vt 0.077241227 0.712118089
vt 0.0922576189 0.783771455
vt 0.104960874 0.823133647
vt 0.120415688 0.806500375
vt 0.067515105 0.724651456
vt 0.0362766348 0.658856928
vt 0.067515105 0.724651456
vt 0.0314323939 0.66991365
vt 0.115368932 0.85588634
vt 0.0638447851 0.594516695
vt 0.127793834 0.901265085
vt 0.141643822 0.967447877
vt 0.10801892 0.631626666
vt 0.0962239653 0.49525705
vt 0.136761263 0.521790445
vt 0.148168728 0.638442636
vt 0.167883947 0.53235817
vt 0.188357741 0.635462105
vt 0.197800666 0.537822783
vt 0.222677931 0.631084204
vt 0.226734474 0.539829195
vt 0.182178095 0.432917327
vt 0.205820397 0.444809467
vt 0.221479043 0.717662215
vt 0.258548915 0.717673063
vt 0.261361718 0.631894171
vt 0.224287301 0.779426396
vt 0.186756715 0.783434451
vt 0.182550251 0.726190269
vt 0.259566665 0.777890742
vt 0.230742469 0.829464257
vt 0.262008518 0.829146147
vt 0.293492287 0.77860105
vt 0.300499022 0.722166538
vt 0.292630136 0.829276383
vt 0.300397485 0.632714927
vt 0.264203191 0.540068448
vt 0.301898479 0.540323079
vt 0.338924766 0.541625261
vt 0.338706553 0.629903972
vt 0.340557307 0.697056472
vt 0.372767389 0.632101238
vt 0.37144357 0.544294894
vt 0.370820403 0.446575433
vt 0.337993741 0.445857465
vt 0.403545767 0.441281259
vt 0.405982226 0.548692107
vt 0.434087455 0.550684392
vt 0.408115983 0.641073227
vt 0.437640518 0.656538486
vt 0.432102889 0.43782708
vt 0.47108084 0.547555029
vt 0.474580109 0.664967895
vt 0.302054882 0.447067857
vt 0.30434218 0.349860668
vt 0.337977409 0.344928354
vt 0.306023329 0.253961802
vt 0.337743372 0.252144724
vt 0.36679852 0.252973109
vt 0.369172722 0.340996832
vt 0.268721491 0.354762614
vt 0.266495615 0.448340356
vt 0.307171375 0.18736808
vt 0.339068234 0.191632777
vt 0.366536558 0.193400979
vt 0.269737035 0.249648482
vt 0.242250413 0.247180715
vt 0.237974629 0.357275844
vt 0.26837346 0.180515483
vt 0.267745286 0.134261608
vt 0.307040989 0.133171573
vt 0.243671283 0.177431986
vt 0.218575343 0.245141536
vt 0.212605342 0.352487475
vt 0.188978061 0.248899937
vt 0.191488564 0.344823092
vt 0.232234076 0.449332565
vt 0.19409132 0.182517007
vt 0.221699715 0.178513318
vt 0.224371344 0.130568936
vt 0.244989753 0.130851984
vt 0.247221351 0.0871210471
vt 0.272735626 0.0850107223
vt 0.256254464 0.0329917707
vt 0.233653411 0.033367116
vt 0.225563303 0.0834551901
vt 0.207951918 0.0802571177
vt 0.199772194 0.130198762
vt 0.283202171 0.0288274288
vt 0.307940364 0.0806425363
vt 0.310985059 0.0233527012
vt 0.339282334 0.0772521794
vt 0.33987689 0.131771028
vt 0.365368903 0.0775736347
vt 0.367564917 0.13646017
vt 0.338511467 0.0226482153
vt 0.215468332 0.0282809641
vt 0.178864658 0.0694572404
vt 0.186624587 0.014818402
vt 0.363887221 0.0246394146
vt 0.387147069 0.0287569165
vt 0.38838318 0.0833315477
vt 0.410823673 0.0342487656
vt 0.415277928 0.0921133906
vt 0.390252829 0.145904586
vt 0.414955974 0.150119543
vt 0.44139722 0.0414453633
vt 0.444089741 0.095913589
vt 0.391690791 0.200943589
vt 0.393534958 0.252762318
vt 0.417396814 0.202980995
vt 0.445676297 0.150352746
vt 0.449346125 0.201983243
vt 0.422274053 0.258000731
vt 0.397583157 0.338615954
vt 0.424955159 0.339954138
vt 0.454537034 0.262375206
vt 0.461919546 0.345997989
vt 0.468072683 0.427397162
vt 0.127977371 0.39238736
vt 0.1718411 0.334397674
vt 0.144098043 0.31614098
vt 0.160275131 0.417762995
vt 0.153261662 0.232153296
vt 0.159468234 0.171178982
vt 0.167289883 0.120507792
vt 0.478945345 0.74363631
vt 0.46404478 0.79569906
vt 0.483886302 0.752696812
vt 0.454976082 0.830155253
vt 0.422255754 0.927211642
vt 0.438623667 0.905264616
vt 0.431326658 0.892280042
vt 0.432920307 0.930972934
vt 0.41255185 0.879078627
vt 0.403590262 0.919083178
vt 0.397250354 0.97800523
vt 0.418943316 0.989419818
vt 0.447027951 0.8665362
vt 0.438623667 0.905264616
vt 0.686478674 0.875674248
vt 0.660204232 0.842286527
vt 0.665389001 0.882885635
vt 0.6824826 0.834520519
vt 0.676551223 0.77760607
vt 0.652139783 0.794922233
vt 0.641191065 0.893468261
vt 0.634122372 0.852249563
vt 0.650852263 0.739554942
vt 0.64148891 0.761874676
vt 0.621617258 0.719596624
vt 0.621576726 0.759021342
vt 0.627706707 0.803974509
vt 0.595894814 0.763503253
vt 0.603449762 0.815865159
vt 0.569628358 0.789839089
vt 0.577934146 0.837470114
vt 0.553212702 0.820336521
vt 0.560511649 0.85784626
vt 0.587709308 0.718913019
vt 0.58677727 0.696886718
vt 0.623757541 0.692327619
vt 0.556643009 0.739634037
vt 0.544185162 0.784773827
vt 0.522828996 0.735629737
vt 0.520828187 0.74363631
vt 0.524089873 0.724352181
vt 0.557294369 0.712582409
vt 0.535728693 0.79569906
vt 0.544797361 0.830155253
vt 0.610478699 0.863697886
vt 0.618830085 0.906288505
vt 0.627627134 0.963065028
vt 0.650062144 0.95123446
vt 0.669712722 0.940849304
vt 0.690137625 0.930655658
vt 0.710056007 0.923443258
vt 0.707989275 0.871778011
vt 0.732854247 0.916097522
vt 0.73494333 0.870084703
vt 0.754338086 0.913362622
vt 0.76194942 0.86809051
vt 0.776988745 0.920816243
vt 0.792426169 0.869144559
vt 0.814579725 0.871895373
vt 0.795567453 0.928261459
vt 0.803963065 0.828404546
vt 0.831827283 0.828224242
vt 0.829658091 0.948019862
vt 0.845523834 0.883413434
vt 0.857515872 0.836499035
vt 0.866858125 0.79406625
vt 0.850184083 0.788920283
vt 0.887890279 0.752312899
vt 0.872815311 0.737611115
vt 0.912870824 0.695810676
vt 0.917603076 0.704451621
vt 0.954792976 0.643214524
vt 0.959353983 0.652485371
vt 0.963496804 0.658856928
vt 0.895456731 0.767052591
vt 0.922532201 0.712118089
vt 0.907515764 0.783771455
vt 0.894812584 0.823133647
vt 0.879357755 0.806500375
vt 0.932258248 0.724651456
vt 0.963496804 0.658856928
vt 0.932258248 0.724651456
vt 0.968340993 0.66991365
vt 0.88440448 0.85588634
vt 0.935928702 0.594516695
vt 0.891754389 0.631626666
vt 0.903549373 0.49525705
vt 0.863012195 0.521790445
vt 0.85160476 0.638442636
vt 0.83188951 0.53235817
vt 0.811415672 0.635462105
vt 0.801972806 0.537822783
vt 0.777095556 0.631084204
vt 0.773039043 0.539829195
vt 0.817595303 0.432917327
vt 0.793953061 0.444809467
vt 0.778294444 0.717662215
vt 0.741224587 0.717673063
vt 0.738411665 0.631894171
vt 0.775486231 0.779426396
vt 0.813016772 0.783434451
vt 0.817223132 0.726190269
vt 0.740206778 0.777890742
vt 0.769030988 0.829464257
vt 0.737765014 0.829146147
vt 0.706281126 0.77860105
vt 0.69927448 0.722166538
vt 0.707143307 0.829276383
vt 0.699375987 0.632714927
vt 0.735570312 0.540068448
vt 0.697874963 0.540323079
vt 0.660848677 0.541625261
vt 0.66106689 0.629903972
vt 0.659216106 0.697056472
vt 0.627006054 0.632101238
vt 0.628329933 0.544294894
vt 0.62895298 0.446575433
vt 0.661779642 0.445857465
vt 0.596227705 0.441281259
vt 0.593791187 0.548692107
vt 0.565686047 0.550684392
vt 0.59165746 0.641073227
vt 0.562132955 0.656538486
vt 0.567670584 0.43782708
vt 0.528692603 0.547555029
vt 0.525193334 0.664967895
vt 0.697718501 0.447067857
vt 0.695431352 0.349860668
vt 0.661796033 0.344928354
vt 0.693750083 0.253961802
vt 0.662030041 0.252144724
vt 0.632974923 0.252973109
vt 0.630600691 0.340996832
vt 0.731051981 0.354762614
vt 0.733277917 0.448340356
vt 0.692602098 0.18736808
vt 0.660705209 0.191632777
vt 0.633236945 0.193400979
vt 0.730036438 0.249648482
vt 0.75752306 0.247180715
vt 0.761798859 0.357275844
vt 0.731399894 0.180515483
vt 0.732028127 0.134261608
vt 0.692732453 0.133171573
vt 0.756102145 0.177431986
vt 0.781198144 0.245141536
vt 0.787168145 0.352487475
vt 0.810795367 0.248899937
vt 0.808284879 0.344823092
vt 0.767539263 0.449332565
vt 0.805682123 0.182517007
vt 0.778073847 0.178513318
vt 0.775402129 0.130568936
vt 0.75478369 0.130851984
vt 0.752552092 0.0871210471
vt 0.727037728 0.0850107223
vt 0.743519008 0.0329917707
vt 0.766120076 0.033367116
vt 0.774210155 0.0834551901
vt 0.791821539 0.0802571177
vt 0.800001204 0.130198762
vt 0.716571271 0.0288274288
vt 0.691833138 0.0806425363
vt 0.688788354 0.0233527012
vt 0.660491109 0.0772521794
vt 0.659896612 0.131771028
vt 0.63440454 0.0775736347
vt 0.632208526 0.13646017
vt 0.661261976 0.0226482153
vt 0.784305155 0.0282809641
vt 0.820908725 0.0694572404
vt 0.813148797 0.014818402
vt 0.635886192 0.0246394146
vt 0.612626374 0.0287569165
vt 0.611390352 0.0833315477
vt 0.5889498 0.0342487656
vt 0.584495604 0.0921133906
vt 0.609520733 0.145904586
vt 0.584817469 0.150119543
vt 0.558376253 0.0414453633
vt 0.555683732 0.095913589
vt 0.608082712 0.200943589
vt 0.606238484 0.252762318
vt 0.582376719 0.202980995
vt 0.554097235 0.150352746
vt 0.550427318 0.201983243
vt 0.577499449 0.258000731
vt 0.602190375 0.338615954
vt 0.574818373 0.339954138
vt 0.545236409 0.262375206
vt 0.537853897 0.345997989
vt 0.53170079 0.427397162
vt 0.871796072 0.39238736
vt 0.827932298 0.334397674
vt 0.839498401 0.417762995
vt 0.855675459 0.31614098
vt 0.846511781 0.232153296
vt 0.84030515 0.171178982
vt 0.83248353 0.120507792
vt 0.535728693 0.79569906
vt 0.520828187 0.74363631
vt 0.515887141 0.752696812
vt 0.544797361 0.830155253
vt 0.577517688 0.927211642
vt 0.561149836 0.905264616
vt 0.566853225 0.930972934
vt 0.568446815 0.892280042
vt 0.587221622 0.879078627
vt 0.596183181 0.919083178
vt 0.602523029 0.97800523
vt 0.580830216 0.989419818
vt 0.552745521 0.8665362
vt 0.561149836 0.905264616
vt 0.858129621 0.967447877
vt 0.871979654 0.901265085
vn 0.859883845 0.417989254 0.293061227
vn 0.789003074 0.509637833 0.343137741
vn 0.836539567 0.428670436 0.341237813
vn 0.776442289 0.541018844 0.323165715
vn 0.850822628 0.437994719 0.290278345
vn 0.777890682 0.541361988 0.319082111
vn 0.634540319 0.630717874 0.446714044
vn 0.663645148 0.660397947 0.351354063
vn 0.724534333 0.686226845 0.0643637329
vn 0.713006616 0.698257267 0.0637052581
vn 0.341874659 0.902236521 -0.262851626
vn 0.464065075 0.861866415 -0.204523325
vn 0.600913346 0.777682245 0.184698403
vn 0.164621264 0.898292243 -0.407395303
vn 0.298095375 0.954148889 0.0271867085
vn -0.207984179 0.866220713 -0.454317391
vn -0.122547619 0.992345035 -0.0152800865
vn -0.580764294 0.742009878 -0.334864289
vn -0.577462792 0.816157162 0.0205959696
vn -0.00966839027 0.884308159 -0.466803759
vn -0.0771553367 0.980956137 -0.178247705
vn 0.306940138 0.951257706 -0.0299421195
vn -0.446713328 0.647557616 -0.617346227
vn -0.538421512 0.548259199 -0.63993293
vn -0.723485649 0.158872098 -0.671809554
vn -0.32826364 0.232247025 -0.915589571
vn -0.930232406 0.231565252 -0.28468436
vn -0.516229212 0.78192234 -0.34943521
vn -0 0.678255558 -0.734826028
vn -0 0.912860394 -0.408271909
vn 0.34428969 0.874431431 0.341810286
vn 0.301575512 0.781394601 0.546328366
vn 0.206221268 0.782761395 0.587160468
vn 0.522873104 0.720117629 0.456107765
vn 0.688713372 0.652407825 0.316287786
vn 0.868887365 0.408927649 0.278949648
vn 0.957634926 0.0944391564 0.272060126
vn 0.948940694 0.0971677974 0.300116658
vn 0.916979969 -0.33876881 0.210673764
vn 0.89211148 -0.410675496 0.188368484
vn 0.638618708 -0.765946507 0.0741076693
vn 0.542397916 -0.836138904 0.0817081705
vn 0.223263368 -0.972932816 -0.0596265309
vn 0.394764602 -0.91730386 -0.0521024093
vn 0.318833679 -0.941445529 -0.109660536
vn 0.250763774 -0.938806832 -0.236134022
vn 0.0760843605 -0.958922505 -0.273274362
vn 0.0180680547 -0.999790967 0.00956661813
vn 0.248157308 -0.942972004 -0.221859723
vn 0.229438141 -0.936602473 -0.264828146
vn 0.306256205 -0.858659089 -0.410988748
vn 0.410156727 -0.591171086 -0.69446975
vn -0.175852954 -0.897196233 -0.405110598
vn 0.0610930957 -0.492738008 -0.868030429
vn -0.625532866 -0.718436778 -0.304231972
vn -0.955417335 -0.235303596 -0.178353503
vn -0.468725711 -0.167509392 -0.867315888
vn -0.930232406 0.231565252 -0.28468436
vn -0.723485649 0.158872098 -0.671809554
vn -0.32826364 0.232247025 -0.915589571
vn 0.366906941 -0.310878336 -0.876774728
vn 0.23818931 -0.0549245477 -0.969664454
vn -0 -0.353979766 -0.935253143
vn -1.35073677E-07 -0.707333088 -0.70688045
vn 0.366680861 -0.637613237 -0.677491307
vn -0 -0.036537677 -0.999332249
vn -0.32826364 0.232247025 -0.915589571
vn -0 -0.036537677 -0.999332249
vn -0 0.307678968 -0.951490223
vn -0 -0.926651597 -0.37592116
vn -0.931684613 0.287655979 -0.221850693
vn -0 -0.967300415 -0.253633678
vn -0 -0.970238805 -0.242149934
vn -0.920019507 -0.360254318 -0.154210612
vn -0.939764559 0.207457438 -0.27166906
vn -0.887755752 -0.398289114 -0.23077172
vn -0.700935245 -0.705518186 -0.104565382
vn -0.709771633 -0.689042866 -0.146438405
vn -0.351486295 -0.936159313 -0.00794404931
vn -0.303808212 -0.945078671 -0.120528035
vn 0.395078778 -0.917941988 0.0359924771
vn 0.443075895 -0.893663347 -0.0710602328
vn -0.745273113 -0.629627466 -0.219401971
vn -0.264468193 -0.933685541 -0.241428956
vn 0.34487924 -0.928663671 0.136536017
vn 0.844459414 -0.513880253 0.151047796
vn 0.875700474 -0.480365962 0.0489620119
vn 0.378113151 -0.912816465 0.154260978
vn -0.131757215 -0.991273224 -0.00418563746
vn -0.317264378 -0.948296607 -0.00876038894
vn 0.821398616 -0.528423429 0.214646369
vn 0.464792311 -0.879725099 0.100258745
vn 0.856622458 -0.479386806 0.19075194
vn 0.958393335 0.00876037497 0.285316229
vn 0.98019731 0.102539629 0.169407144
vn 0.949321449 0.0703404248 0.306334913
vn 0.996967614 0.0492316969 0.0602643564
vn 0.883945644 -0.467369705 -0.0143376701
vn 0.998466372 0.0552019551 -0.00421481999
vn 0.80557555 0.592486799 -0.00273531396
vn 0.775194824 0.62896502 0.0589572713
vn 0.741034806 0.664958358 0.0932620391
vn 0.343017548 0.937480688 0.0588973872
vn 0.359069616 0.932983875 -0.024699498
vn 0.35520041 0.934690833 -0.0136308046
vn 0.815709591 0.578311801 0.0131670348
vn -0.220978841 0.97176975 -0.0826551169
vn -0.176400468 0.980695009 -0.0843812898
vn -0.629592896 0.756781399 -0.175768688
vn -0.112013713 0.992859364 -0.0410279371
vn -0.513098836 0.833973467 -0.203021765
vn -0.742763162 0.636772811 -0.20693779
vn -0.939764559 0.207457438 -0.27166906
vn -0.931684613 0.287655979 -0.221850693
vn 0.998360932 0.0557278953 -0.0130356001
vn 0.999033928 0.0435004607 0.0062449323
vn 0.812407017 0.573073804 0.107615888
vn 0.993135452 -0.0461650267 0.107474841
vn 0.803219914 0.555594802 0.214830458
vn 0.327110857 0.923069596 0.202339068
vn 0.345543355 0.93280822 0.102316126
vn 0.864958167 -0.488555372 -0.114721917
vn 0.881659269 -0.466886818 -0.0685103312
vn 0.987941206 -0.0526622608 0.145598322
vn 0.777436316 0.58945787 0.219390363
vn 0.317623496 0.909149587 0.269373745
vn 0.848539054 -0.525910974 -0.0583016574
vn 0.351910561 -0.91576612 -0.19373019
vn 0.391929865 -0.885558486 -0.24935326
vn 0.849679947 -0.526250005 -0.0332414508
vn 0.838048041 -0.539316654 -0.0825409964
vn 0.989235461 -0.0373032354 0.141497567
vn 0.329096079 -0.921149969 -0.207794189
vn -0.269392163 -0.907334626 -0.322756559
vn -0.196384653 -0.921191871 -0.335914552
vn -0.794754922 -0.527823746 -0.299610972
vn -0.680016279 -0.677809298 -0.279557616
vn 0.438440084 -0.880220532 -0.18160975
vn -0.763031662 -0.480729192 -0.432067394
vn -0.336714298 -0.86314708 -0.376298577
vn -0.370399207 -0.791609764 -0.485961348
vn 0.364237785 -0.866725504 -0.340760559
vn 0.327607661 -0.873177528 -0.36087963
vn 0.82932359 -0.552290618 -0.084838748
vn 0.428980976 -0.83405441 -0.346884042
vn -0.346354932 -0.829216897 -0.438677043
vn -0.372464001 -0.793081462 -0.481967241
vn -0.726030171 -0.514234185 -0.456555963
vn -0.743410587 -0.450997949 -0.493904442
vn 0.845599234 -0.532735705 -0.0339793898
vn 0.982111692 -0.0445985645 0.182941377
vn 0.963184953 -0.032362368 0.266884536
vn 0.783487201 0.51328665 0.350263476
vn 0.780647933 0.566664875 0.263589919
vn 0.367000937 0.858391702 0.358432859
vn 0.316019058 0.89084214 0.3263928
vn 0.769285262 0.501985192 0.395235479
vn -0.757070661 -0.516310334 -0.400334418
vn -0.937111795 0.00983940437 -0.348890632
vn -0.960911572 0.00879658014 -0.276715934
vn 0.38874349 0.837094128 0.38490513
vn -0.203979269 0.943158567 0.26238209
vn -0.280314922 0.930089891 0.237395033
vn -0.790037513 0.611894906 0.0377556458
vn -0.809329033 0.584078968 -0.0619532764
vn -0.231603935 0.954073489 0.190009162
vn -0.707729459 0.7018767 -0.0805490538
vn -0.960911572 0.00879658014 -0.276715934
vn -0.937111795 0.00983940437 -0.348890632
vn -0.183962926 0.967107892 0.175669879
vn -0.210836977 0.968017697 0.135975793
vn -0.704335868 0.709864438 -0.00186858827
vn -0.932171464 0.100635439 -0.347748309
vn -0.96440047 0.115492411 -0.237893388
vn -0.748546004 0.663033962 0.00804500468
vn -0.231588334 0.972413182 0.0279181059
vn -0.760972917 0.64360857 -0.0817813724
vn -0.988448083 0.082870774 -0.126896799
vn -0.983227134 0.0639730021 -0.170797721
vn -0.960225761 0.047460109 -0.275161892
vn -0.960225761 0.047460109 -0.275161892
vn -0.931573391 -0.312404662 -0.185942024
vn -0.983227134 0.0639730021 -0.170797721
vn -0.900152445 -0.353095263 -0.25504753
vn -0.988448083 0.082870774 -0.126896799
vn -0.96440047 0.115492411 -0.237893388
vn -0.932171464 0.100635439 -0.347748309
vn -0.32826364 0.232247025 -0.915589571
vn -0 0.678255558 -0.734826028
vn -0 0.307678968 -0.951490223
vn -0 0.912860394 -0.408271909
vn -0.299777389 0.807380557 0.50820291
vn -0 0.923193991 0.384334147
vn -0.475804299 0.824987173 0.304969758
vn -0 0.906420171 0.42237711
vn -0.0696862787 0.936094344 0.344777137
vn -0.0876045674 0.824496448 0.559044719
vn -0.0910516456 0.81009835 0.579180717
vn -0 0.869259775 0.4943555
vn -0 0.998120248 0.0612852015
vn -0 0.923193991 0.384334147
vn -0.859883845 0.417989254 0.293061167
vn -0.789003074 0.509637833 0.343137741
vn -0.776442289 0.541018844 0.323165715
vn -0.836539567 0.428670377 0.341237813
vn -0.850822628 0.437994719 0.290278345
vn -0.777890682 0.541361988 0.319082111
vn -0.634540319 0.630717874 0.446714044
vn -0.663645208 0.660397887 0.351354092
vn -0.724534333 0.686226845 0.0643637329
vn -0.713006616 0.698257267 0.0637052581
vn -0.341874659 0.902236521 -0.262851626
vn -0.464065075 0.861866415 -0.20452331
vn -0.600913346 0.777682245 0.184698373
vn -0.164621338 0.898292184 -0.407395303
vn -0.298095465 0.954148769 0.0271867011
vn 0.207984254 0.866220653 -0.454317451
vn 0.122547776 0.992345035 -0.0152800735
vn 0.580764413 0.742009819 -0.334864259
vn 0.577462912 0.816157043 0.0205959752
vn 0.00966839027 0.884308159 -0.466803759
vn 0.0771553367 0.980956137 -0.178247705
vn -0.306940138 0.951257706 -0.0299421232
vn 0.446713328 0.647557616 -0.617346227
vn 0.538421571 0.548259139 -0.63993299
vn 0.723485649 0.158872098 -0.671809554
vn 0.32826364 0.232247025 -0.915589571
vn 0.930232406 0.231565267 -0.28468442
vn 0.516229212 0.78192234 -0.34943521
vn -0 0.678255558 -0.734826028
vn -0 0.912860394 -0.408271909
vn -0.34428969 0.874431372 0.341810346
vn -0.301575512 0.781394601 0.546328366
vn -0.206221268 0.782761395 0.587160468
vn -0.522873104 0.720117629 0.456107765
vn -0.688713372 0.652407825 0.316287786
vn -0.868887365 0.408927649 0.278949648
vn -0.957634926 0.0944391489 0.272060096
vn -0.948940694 0.0971677974 0.300116658
vn -0.916979969 -0.33876881 0.210673764
vn -0.89211148 -0.410675496 0.188368484
vn -0.65537262 -0.748268485 0.102864429
vn -0.5617975 -0.824901402 0.0626202151
vn -0.329349101 -0.943624318 -0.0331989042
vn -0.205659717 -0.978437304 -0.0190937035
vn -0.21410428 -0.961271167 -0.1735425
vn -0.358610094 -0.918804705 -0.164914295
vn -0.0668671653 -0.997079134 -0.0369051062
vn -0.0699184686 -0.953752697 -0.292347461
vn -0.248157308 -0.942972004 -0.221859723
vn -0.225686193 -0.938385904 -0.26172027
vn -0.303927332 -0.858222306 -0.413621306
vn -0.410156637 -0.591171205 -0.694469631
vn 0.175852761 -0.897196352 -0.405110449
vn -0.0610930324 -0.492738038 -0.868030548
vn 0.625532925 -0.718436837 -0.304231912
vn 0.955417335 -0.235303536 -0.178353533
vn 0.468725711 -0.167509392 -0.867315888
vn 0.930232406 0.231565267 -0.28468442
vn 0.723485649 0.158872098 -0.671809554
vn 0.32826364 0.232247025 -0.915589571
vn -0.36690703 -0.310878366 -0.876774728
vn -0.23818931 -0.0549245477 -0.969664454
vn -0 -0.353979766 -0.935253143
vn -1.35073677E-07 -0.707333088 -0.70688045
vn -0.366680831 -0.637613237 -0.677491307
vn -0 -0.036537677 -0.999332249
vn 0.32826364 0.232247025 -0.915589571
vn -0 -0.036537677 -0.999332249
vn -0 0.307678968 -0.951490223
vn -0 -0.926651597 -0.37592116
vn 0.931684613 0.287655979 -0.221850693
vn 0.920019507 -0.360254288 -0.154210612
vn 0.939764559 0.207457408 -0.27166903
vn 0.887755752 -0.398289114 -0.23077175
vn 0.700935125 -0.705518246 -0.104565412
vn 0.709771633 -0.689042866 -0.146438345
vn 0.351486355 -0.936159313 -0.00794398598
vn 0.303808212 -0.945078671 -0.120528005
vn -0.395078659 -0.917941988 0.035992533
vn -0.443075866 -0.893663347 -0.0710602924
vn 0.745273054 -0.629627526 -0.219402
vn 0.264468193 -0.933685541 -0.241428867
vn -0.34487915 -0.928663671 0.136536032
vn -0.844459414 -0.513880312 0.151047796
vn -0.875700474 -0.480365962 0.0489620082
vn -0.378113121 -0.912816465 0.154260948
vn 0.131757155 -0.991273224 -0.00418571569
vn 0.317264348 -0.948296726 -0.00876038801
vn -0.821398497 -0.528423488 0.214646384
vn -0.464792311 -0.879725099 0.100258678
vn -0.856622458 -0.479386806 0.19075188
vn -0.958393335 0.00876037497 0.285316229
vn -0.98019731 0.102539636 0.169407129
vn -0.949321449 0.0703404173 0.306334913
vn -0.996967614 0.049231682 0.0602643564
vn -0.883945644 -0.467369705 -0.0143376719
vn -0.998466372 0.055201944 -0.00421481812
vn -0.80557555 0.592486799 -0.00273531396
vn -0.775194824 0.62896502 0.0589572713
vn -0.741034865 0.664958298 0.0932620242
vn -0.343017519 0.937480807 0.0588973947
vn -0.359069616 0.932983875 -0.024699498
vn -0.35520041 0.934690833 -0.0136308046
vn -0.815709591 0.578311801 0.0131670348
vn 0.220978856 0.97176975 -0.0826551169
vn 0.176400468 0.980695009 -0.0843812898
vn 0.629592955 0.756781399 -0.175768718
vn 0.112013713 0.992859364 -0.0410279371
vn 0.513098836 0.833973467 -0.20302175
vn 0.742763162 0.636772811 -0.20693779
vn 0.939764559 0.207457408 -0.27166903
vn 0.931684613 0.287655979 -0.221850693
vn -0.998360932 0.0557278916 -0.0130356001
vn -0.999033928 0.0435005017 0.0062449188
vn -0.812407017 0.573073804 0.107615836
vn -0.993135333 -0.0461652726 0.107474931
vn -0.803220093 0.555594683 0.214830458
vn -0.327110857 0.923069596 0.202339023
vn -0.345543355 0.93280822 0.102316126
vn -0.864958167 -0.488555312 -0.114721961
vn -0.88165921 -0.466886908 -0.0685103312
vn -0.987941086 -0.0526623279 0.145598412
vn -0.777436376 0.58945781 0.219390303
vn -0.317623556 0.909149587 0.269373715
vn -0.848538995 -0.525911093 -0.0583017021
vn -0.351910651 -0.91576612 -0.193730041
vn -0.391930282 -0.885558426 -0.249353215
vn -0.849679947 -0.526249945 -0.0332413614
vn -0.838048041 -0.539316595 -0.0825410783
vn -0.989235461 -0.0373033099 0.141497567
vn -0.329096079 -0.921150088 -0.207793906
vn 0.269392133 -0.907334626 -0.322756439
vn 0.196384817 -0.92119199 -0.335914314
vn 0.79475522 -0.527823567 -0.299610585
vn 0.680016577 -0.67780906 -0.279557317
vn -0.438440084 -0.880220532 -0.18160969
vn 0.76303184 -0.480728984 -0.432067305
vn 0.336714357 -0.86314708 -0.376298428
vn 0.370399088 -0.791609466 -0.485961825
vn -0.364237726 -0.866725266 -0.340761155
vn -0.327607661 -0.873177469 -0.360879958
vn -0.829323351 -0.552290916 -0.0848389342
vn -0.428981006 -0.83405441 -0.346884042
vn 0.346355051 -0.829217017 -0.438676745
vn 0.372463644 -0.793081343 -0.481967628
vn 0.726029992 -0.514234066 -0.45655638
vn 0.743410647 -0.450997591 -0.49390465
vn -0.845599234 -0.532735705 -0.0339794904
vn -0.982111692 -0.0445985869 0.182941332
vn -0.963185072 -0.0323623158 0.266884446
vn -0.78348726 0.513286591 0.350263447
vn -0.780647933 0.566664875 0.263589948
vn -0.367001086 0.858391523 0.358432949
vn -0.316019088 0.89084208 0.326392978
vn -0.769285381 0.501985192 0.395235091
vn 0.757070661 -0.516310453 -0.400334269
vn 0.937111795 0.00983951427 -0.348890573
vn 0.960911572 0.00879636873 -0.276715755
vn -0.388743728 0.837094009 0.38490501
vn 0.203979179 0.943158686 0.262381911
vn 0.280314952 0.930089772 0.237395108
vn 0.790037572 0.611894727 0.037755575
vn 0.809329093 0.584078908 -0.0619532317
vn 0.23160401 0.954073489 0.190009326
vn 0.707729518 0.7018767 -0.0805490538
vn 0.960911572 0.00879636873 -0.276715755
vn 0.937111795 0.00983951427 -0.348890573
vn 0.183962926 0.967107892 0.175669879
vn 0.210836977 0.968017697 0.135975793
vn 0.704335868 0.709864438 -0.00186859095
vn 0.932171464 0.100635663 -0.34774828
vn 0.96440047 0.115492612 -0.237893328
vn 0.748546004 0.663033962 0.00804499909
vn 0.231588334 0.972413182 0.0279181059
vn 0.760972857 0.64360863 -0.081781365
vn 0.988448083 0.0828708038 -0.126896739
vn 0.983227134 0.0639730021 -0.170797721
vn 0.960225761 0.047460109 -0.275161892
vn 0.960225761 0.047460109 -0.275161892
vn 0.931573391 -0.312404662 -0.185942024
vn 0.900152445 -0.353095174 -0.25504756
vn 0.983227134 0.0639730021 -0.170797721
vn 0.988448083 0.0828708038 -0.126896739
vn 0.96440047 0.115492612 -0.237893328
vn 0.932171464 0.100635663 -0.34774828
vn -0 0.678255558 -0.734826028
vn 0.32826364 0.232247025 -0.915589571
vn -0 0.307678968 -0.951490223
vn -0 0.912860394 -0.408271909
vn 0.299777418 0.807380557 0.50820291
vn -0 0.923193991 0.384334147
vn -0 0.906420171 0.42237711
vn 0.475804389 0.824986994 0.304969728
vn 0.0696862862 0.936094344 0.344777197
vn 0.0876045674 0.824496448 0.559044898
vn 0.0910516232 0.81009829 0.579180777
vn -0 0.869259775 0.4943555
vn -0 0.998120248 0.0612852015
vn -0 0.923193991 0.384334147
vn -0 -0.970238805 -0.242149934
vn -0 -0.967300415 -0.253633678
g pelvis_0
f 3/3/3 2/2/2 1/1/1
f 4/4/4 1/1/1 2/2/2
f 3/3/3 5/5/5 2/2/2
f 6/6/6 2/2/2 5/5/5
f 4/4/4 2/2/2 7/7/7
f 8/8/8 7/7/7 2/2/2
f 2/2/2 6/6/6 8/8/8
f 5/5/5 9/9/9 6/6/6
f 10/10/10 6/6/6 9/9/9
f 9/9/9 11/11/11 10/10/10
f 12/12/12 10/10/10 11/11/11
f 12/12/12 13/13/13 10/10/10
f 6/6/6 10/10/10 13/13/13
f 13/13/13 8/8/8 6/6/6
f 12/12/12 14/14/14 13/13/13
f 15/15/15 13/13/13 14/14/14
f 13/13/13 15/15/15 8/8/8
f 14/14/14 16/16/16 15/15/15
f 17/17/17 15/15/15 16/16/16
f 16/16/16 18/18/18 17/17/17
f 19/19/19 17/17/17 18/18/18
f 14/14/14 12/12/12 20/20/20
f 11/11/11 20/20/20 12/12/12
f 20/20/20 11/11/11 21/21/21
f 22/22/22 21/21/21 11/11/11
f 20/20/20 23/23/23 14/14/14
f 16/16/16 14/14/14 23/23/23
f 23/23/23 24/24/24 16/16/16
f 18/18/18 16/16/16 24/24/24
f 23/23/23 25/25/25 24/24/24
f 26/26/26 24/24/24 25/25/25
f 25/25/25 23/23/23 27/27/27
f 28/28/28 27/27/27 23/23/23
f 23/23/23 20/20/20 28/28/28
f 21/21/21 28/28/28 20/20/20
f 24/24/24 26/26/26 29/29/29
f 18/18/18 24/24/24 30/30/30
f 18/18/18 30/30/30 19/19/19
f 15/15/15 17/17/17 31/31/31
f 31/31/31 8/8/8 15/15/15
f 31/31/31 32/32/32 8/8/8
f 7/7/7 8/8/8 32/32/32
f 32/32/32 33/33/33 7/7/7
f 34/34/34 7/7/7 33/33/33
f 7/7/7 34/34/34 4/4/4
f 35/35/35 4/4/4 34/34/34
f 35/35/35 36/36/36 4/4/4
f 1/1/1 4/4/4 36/36/36
f 36/36/36 37/37/37 1/1/1
f 38/38/38 1/1/1 37/37/37
f 37/37/37 39/39/39 38/38/38
f 40/40/40 38/38/38 39/39/39
f 39/39/39 41/41/41 40/40/40
f 42/42/42 40/40/40 41/41/41
f 42/42/42 41/41/41 43/43/43
f 44/44/44 43/43/43 41/41/41
f 44/44/44 45/45/45 43/43/43
f 46/46/46 43/43/43 45/45/45
f 46/46/46 47/47/47 43/43/43
f 48/48/48 43/43/43 47/47/47
f 45/45/45 49/49/49 46/46/46
f 50/50/50 46/46/46 49/49/49
f 46/46/46 50/50/50 47/47/47
f 51/51/51 47/47/47 50/50/50
f 51/51/51 52/52/52 47/47/47
f 53/53/53 47/47/47 52/52/52
f 52/52/52 54/54/54 53/53/53
f 55/55/55 53/53/53 54/54/54
f 55/55/55 54/54/54 56/56/56
f 57/57/57 56/56/56 54/54/54
f 56/56/56 57/57/57 58/58/58
f 59/59/59 58/58/58 57/57/57
f 59/59/59 57/57/57 60/60/60
f 54/54/54 61/61/61 57/57/57
f 54/54/54 52/52/52 61/61/61
f 62/62/62 57/57/57 61/61/61
f 61/61/61 63/63/63 62/62/62
f 63/63/63 61/61/61 64/64/64
f 65/65/65 64/64/64 61/61/61
f 65/65/65 61/61/61 52/52/52
f 65/65/65 52/52/52 51/51/51
f 66/66/66 62/62/62 63/63/63
f 62/62/62 67/67/67 57/57/57
f 62/62/62 68/68/68 67/67/67
f 69/69/69 60/60/60 68/68/68
f 64/64/64 65/65/65 70/70/70
f 51/51/51 70/70/70 65/65/65
f 58/58/58 71/71/71 56/56/56
f 70/70/70 51/51/51 72/72/72
f 50/50/50 72/72/72 51/51/51
f 72/72/72 50/50/50 73/73/73
f 49/49/49 73/73/73 50/50/50
f 71/71/71 75/75/75 74/74/74
f 76/76/76 74/74/74 75/75/75
f 74/74/74 76/76/76 77/77/77
f 78/78/78 77/77/77 76/76/76
f 77/77/77 78/78/78 79/79/79
f 80/80/80 79/79/79 78/78/78
f 79/79/79 80/80/80 81/81/81
f 82/82/82 81/81/81 80/80/80
f 78/78/78 83/83/83 80/80/80
f 78/78/78 76/76/76 83/83/83
f 84/84/84 80/80/80 83/83/83
f 80/80/80 84/84/84 82/82/82
f 81/81/81 85/85/85 79/79/79
f 85/85/85 81/81/81 86/86/86
f 87/87/87 86/86/86 81/81/81
f 81/81/81 82/82/82 87/87/87
f 85/85/85 86/86/86 88/88/88
f 88/88/88 89/89/89 85/85/85
f 90/90/90 85/85/85 89/89/89
f 90/90/90 79/79/79 85/85/85
f 79/79/79 90/90/90 77/77/77
f 91/91/91 88/88/88 86/86/86
f 88/88/88 91/91/91 92/92/92
f 93/93/93 92/92/92 91/91/91
f 91/91/91 86/86/86 94/94/94
f 95/95/95 94/94/94 86/86/86
f 86/86/86 87/87/87 95/95/95
f 92/92/92 48/48/48 88/88/88
f 89/89/89 88/88/88 48/48/48
f 93/93/93 91/91/91 96/96/96
f 94/94/94 96/96/96 91/91/91
f 96/96/96 94/94/94 3/3/3
f 5/5/5 3/3/3 94/94/94
f 94/94/94 95/95/95 5/5/5
f 97/97/97 95/95/95 87/87/87
f 87/87/87 98/98/98 97/97/97
f 99/99/99 97/97/97 98/98/98
f 99/99/99 100/100/100 97/97/97
f 101/101/101 97/97/97 100/100/100
f 97/97/97 101/101/101 95/95/95
f 102/102/102 95/95/95 101/101/101
f 102/102/102 101/101/101 22/22/22
f 103/103/103 22/22/22 101/101/101
f 101/101/101 100/100/100 103/103/103
f 104/104/104 103/103/103 100/100/100
f 104/104/104 100/100/100 105/105/105
f 106/106/106 105/105/105 100/100/100
f 105/105/105 107/107/107 104/104/104
f 108/108/108 104/104/104 107/107/107
f 104/104/104 108/108/108 103/103/103
f 108/108/108 107/107/107 109/109/109
f 108/108/108 109/109/109 110/110/110
f 110/110/110 103/103/103 108/108/108
f 103/103/103 110/110/110 22/22/22
f 111/111/111 110/110/110 109/109/109
f 112/112/112 109/109/109 107/107/107
f 109/109/109 113/113/113 111/111/111
f 109/109/109 112/112/112 113/113/113
f 114/114/114 111/111/111 113/113/113
f 106/106/106 100/100/100 115/115/115
f 115/115/115 116/116/116 106/106/106
f 117/117/117 106/106/106 116/116/116
f 116/116/116 118/118/118 117/117/117
f 119/119/119 117/117/117 118/118/118
f 119/119/119 120/120/120 117/117/117
f 121/121/121 117/117/117 120/120/120
f 116/116/116 115/115/115 122/122/122
f 123/123/123 122/122/122 115/115/115
f 118/118/118 124/124/124 119/119/119
f 125/125/125 119/119/119 124/124/124
f 125/125/125 126/126/126 119/119/119
f 120/120/120 119/119/119 126/126/126
f 122/122/122 127/127/127 116/116/116
f 118/118/118 116/116/116 127/127/127
f 127/127/127 122/122/122 128/128/128
f 129/129/129 128/128/128 122/122/122
f 122/122/122 123/123/123 129/129/129
f 127/127/127 128/128/128 130/130/130
f 127/127/127 130/130/130 118/118/118
f 124/124/124 118/118/118 130/130/130
f 130/130/130 131/131/131 124/124/124
f 132/132/132 124/124/124 131/131/131
f 124/124/124 132/132/132 125/125/125
f 133/133/133 130/130/130 128/128/128
f 128/128/128 129/129/129 134/134/134
f 135/135/135 134/134/134 129/129/129
f 134/134/134 135/135/135 136/136/136
f 137/137/137 136/136/136 135/135/135
f 129/129/129 138/138/138 135/135/135
f 138/138/138 129/129/129 123/123/123
f 84/84/84 135/135/135 138/138/138
f 135/135/135 84/84/84 137/137/137
f 136/136/136 139/139/139 134/134/134
f 140/140/140 134/134/134 139/139/139
f 133/133/133 128/128/128 140/140/140
f 134/134/134 140/140/140 128/128/128
f 140/140/140 141/141/141 133/133/133
f 142/142/142 133/133/133 141/141/141
f 131/131/131 130/130/130 142/142/142
f 133/133/133 142/142/142 130/130/130
f 142/142/142 143/143/143 131/131/131
f 142/142/142 141/141/141 143/143/143
f 144/144/144 131/131/131 143/143/143
f 131/131/131 144/144/144 132/132/132
f 143/143/143 145/145/145 144/144/144
f 145/145/145 143/143/143 146/146/146
f 147/147/147 146/146/146 143/143/143
f 147/147/147 143/143/143 141/141/141
f 147/147/147 141/141/141 148/148/148
f 149/149/149 148/148/148 141/141/141
f 141/141/141 140/140/140 149/149/149
f 139/139/139 149/149/149 140/140/140
f 150/150/150 144/144/144 145/145/145
f 144/144/144 150/150/150 151/151/151
f 152/152/152 151/151/151 150/150/150
f 151/151/151 152/152/152 153/153/153
f 153/153/153 154/154/154 151/151/151
f 132/132/132 151/151/151 154/154/154
f 151/151/151 132/132/132 144/144/144
f 153/153/153 155/155/155 154/154/154
f 156/156/156 154/154/154 155/155/155
f 157/157/157 153/153/153 152/152/152
f 146/146/146 147/147/147 158/158/158
f 148/148/148 158/158/158 147/147/147
f 148/148/148 159/159/159 158/158/158
f 160/160/160 158/158/158 159/159/159
f 157/157/157 161/161/161 153/153/153
f 155/155/155 153/153/153 161/161/161
f 161/161/161 162/162/162 155/155/155
f 163/163/163 155/155/155 162/162/162
f 155/155/155 163/163/163 156/156/156
f 162/162/162 164/164/164 163/163/163
f 165/165/165 163/163/163 164/164/164
f 163/163/163 165/165/165 166/166/166
f 166/166/166 156/156/156 163/163/163
f 167/167/167 166/166/166 165/165/165
f 164/164/164 168/168/168 165/165/165
f 169/169/169 165/165/165 168/168/168
f 165/165/165 169/169/169 167/167/167
f 156/156/156 166/166/166 126/126/126
f 170/170/170 126/126/126 166/166/166
f 166/166/166 167/167/167 170/170/170
f 126/126/126 170/170/170 120/120/120
f 171/171/171 120/120/120 170/170/170
f 170/170/170 172/172/172 171/171/171
f 172/172/172 170/170/170 167/167/167
f 167/167/167 173/173/173 172/172/172
f 173/173/173 167/167/167 169/169/169
f 174/174/174 172/172/172 173/173/173
f 175/175/175 171/171/171 172/172/172
f 172/172/172 174/174/174 175/175/175
f 171/171/171 175/175/175 176/176/176
f 177/177/177 176/176/176 175/175/175
f 175/175/175 178/178/178 177/177/177
f 178/178/178 175/175/175 174/174/174
f 179/179/179 177/177/177 178/178/178
f 177/177/177 179/179/179 112/112/112
f 180/180/180 112/112/112 179/179/179
f 120/120/120 171/171/171 121/121/121
f 176/176/176 121/121/121 171/171/171
f 176/176/176 177/177/177 107/107/107
f 112/112/112 107/107/107 177/177/177
f 121/121/121 176/176/176 105/105/105
f 107/107/107 105/105/105 176/176/176
f 105/105/105 106/106/106 121/121/121
f 117/117/117 121/121/121 106/106/106
f 180/180/180 113/113/113 112/112/112
f 183/183/183 182/182/182 181/181/181
f 184/184/184 181/181/181 182/182/182
f 184/184/184 76/76/76 181/181/181
f 75/75/75 181/181/181 76/76/76
f 182/182/182 183/183/183 136/136/136
f 185/185/185 136/136/136 183/183/183
f 136/136/136 185/185/185 139/139/139
f 186/186/186 139/139/139 185/185/185
f 139/139/139 186/186/186 149/149/149
f 187/187/187 149/149/149 186/186/186
f 149/149/149 187/187/187 148/148/148
f 159/159/159 148/148/148 187/187/187
f 182/182/182 137/137/137 184/184/184
f 136/136/136 137/137/137 182/182/182
f 83/83/83 184/184/184 137/137/137
f 184/184/184 83/83/83 76/76/76
f 83/83/83 137/137/137 84/84/84
f 138/138/138 82/82/82 84/84/84
f 82/82/82 138/138/138 98/98/98
f 123/123/123 98/98/98 138/138/138
f 98/98/98 87/87/87 82/82/82
f 98/98/98 123/123/123 99/99/99
f 115/115/115 99/99/99 123/123/123
f 99/99/99 115/115/115 100/100/100
f 190/190/190 189/189/189 188/188/188
f 189/189/189 191/191/191 24/24/24
f 194/194/194 193/193/193 192/192/192
f 195/195/195 192/192/192 193/193/193
f 194/194/194 192/192/192 196/196/196
f 197/197/197 196/196/196 192/192/192
f 196/196/196 197/197/197 31/31/31
f 196/196/196 31/31/31 17/17/17
f 32/32/32 31/31/31 197/197/197
f 197/197/197 198/198/198 32/32/32
f 192/192/192 195/195/195 198/198/198
f 197/197/197 192/192/192 198/198/198
f 33/33/33 32/32/32 198/198/198
f 199/199/199 198/198/198 195/195/195
f 17/17/17 19/19/19 196/196/196
f 194/194/194 196/196/196 19/19/19
f 19/19/19 200/200/200 194/194/194
f 200/200/200 19/19/19 30/30/30
f 201/201/201 194/194/194 200/200/200
f 154/154/154 125/125/125 132/132/132
f 154/154/154 156/156/156 125/125/125
f 126/126/126 125/125/125 156/156/156
f 48/48/48 47/47/47 89/89/89
f 53/53/53 89/89/89 47/47/47
f 89/89/89 53/53/53 90/90/90
f 55/55/55 90/90/90 53/53/53
f 55/55/55 77/77/77 90/90/90
f 77/77/77 55/55/55 74/74/74
f 56/56/56 74/74/74 55/55/55
f 74/74/74 56/56/56 71/71/71
f 48/48/48 92/92/92 43/43/43
f 42/42/42 43/43/43 92/92/92
f 92/92/92 93/93/93 42/42/42
f 40/40/40 42/42/42 93/93/93
f 93/93/93 96/96/96 40/40/40
f 38/38/38 40/40/40 96/96/96
f 96/96/96 3/3/3 38/38/38
f 1/1/1 38/38/38 3/3/3
f 21/21/21 22/22/22 110/110/110
f 110/110/110 111/111/111 21/21/21
f 28/28/28 21/21/21 111/111/111
f 111/111/111 114/114/114 28/28/28
f 27/27/27 28/28/28 114/114/114
f 22/22/22 11/11/11 102/102/102
f 9/9/9 102/102/102 11/11/11
f 102/102/102 9/9/9 95/95/95
f 5/5/5 95/95/95 9/9/9
f 204/204/204 203/203/203 202/202/202
f 205/205/205 202/202/202 203/203/203
f 205/205/205 203/203/203 206/206/206
f 207/207/207 206/206/206 203/203/203
f 204/204/204 208/208/208 203/203/203
f 209/209/209 203/203/203 208/208/208
f 203/203/203 209/209/209 207/207/207
f 206/206/206 207/207/207 210/210/210
f 211/211/211 210/210/210 207/207/207
f 210/210/210 211/211/211 212/212/212
f 213/213/213 212/212/212 211/211/211
f 207/207/207 214/214/214 211/211/211
f 213/213/213 211/211/211 214/214/214
f 214/214/214 207/207/207 209/209/209
f 213/213/213 214/214/214 215/215/215
f 216/216/216 215/215/215 214/214/214
f 214/214/214 209/209/209 216/216/216
f 215/215/215 216/216/216 217/217/217
f 218/218/218 217/217/217 216/216/216
f 217/217/217 218/218/218 219/219/219
f 220/220/220 219/219/219 218/218/218
f 212/212/212 213/213/213 221/221/221
f 215/215/215 221/221/221 213/213/213
f 221/221/221 222/222/222 212/212/212
f 223/223/223 212/212/212 222/222/222
f 217/217/217 224/224/224 215/215/215
f 221/221/221 215/215/215 224/224/224
f 219/219/219 225/225/225 217/217/217
f 224/224/224 217/217/217 225/225/225
f 224/224/224 225/225/225 226/226/226
f 227/227/227 226/226/226 225/225/225
f 226/226/226 228/228/228 224/224/224
f 229/229/229 224/224/224 228/228/228
f 222/222/222 221/221/221 229/229/229
f 224/224/224 229/229/229 221/221/221
f 225/225/225 230/230/230 227/227/227
f 219/219/219 231/231/231 225/225/225
f 219/219/219 220/220/220 231/231/231
f 216/216/216 232/232/232 218/218/218
f 232/232/232 216/216/216 209/209/209
f 232/232/232 209/209/209 233/233/233
f 208/208/208 233/233/233 209/209/209
f 233/233/233 208/208/208 234/234/234
f 235/235/235 234/234/234 208/208/208
f 208/208/208 204/204/204 235/235/235
f 236/236/236 235/235/235 204/204/204
f 236/236/236 204/204/204 237/237/237
f 202/202/202 237/237/237 204/204/204
f 237/237/237 202/202/202 238/238/238
f 239/239/239 238/238/238 202/202/202
f 238/238/238 239/239/239 240/240/240
f 241/241/241 240/240/240 239/239/239
f 240/240/240 241/241/241 242/242/242
f 243/243/243 242/242/242 241/241/241
f 242/242/242 243/243/243 244/244/244
f 245/245/245 244/244/244 243/243/243
f 245/245/245 246/246/246 244/244/244
f 247/247/247 244/244/244 246/246/246
f 245/245/245 248/248/248 246/246/246
f 249/249/249 246/246/246 248/248/248
f 247/247/247 246/246/246 250/250/250
f 251/251/251 250/250/250 246/246/246
f 251/251/251 246/246/246 252/252/252
f 249/249/249 252/252/252 246/246/246
f 252/252/252 249/249/249 253/253/253
f 254/254/254 253/253/253 249/249/249
f 253/253/253 254/254/254 255/255/255
f 256/256/256 255/255/255 254/254/254
f 256/256/256 257/257/257 255/255/255
f 258/258/258 255/255/255 257/257/257
f 257/257/257 259/259/259 258/258/258
f 260/260/260 258/258/258 259/259/259
f 260/260/260 261/261/261 258/258/258
f 255/255/255 258/258/258 262/262/262
f 255/255/255 262/262/262 253/253/253
f 263/263/263 262/262/262 258/258/258
f 262/262/262 263/263/263 264/264/264
f 264/264/264 265/265/265 262/262/262
f 266/266/266 262/262/262 265/265/265
f 266/266/266 253/253/253 262/262/262
f 253/253/253 266/266/266 252/252/252
f 267/267/267 264/264/264 263/263/263
f 263/263/263 258/258/258 268/268/268
f 263/263/263 268/268/268 269/269/269
f 270/270/270 269/269/269 261/261/261
f 265/265/265 271/271/271 266/266/266
f 252/252/252 266/266/266 271/271/271
f 259/259/259 257/257/257 272/272/272
f 273/273/273 272/272/272 257/257/257
f 272/272/272 273/273/273 274/274/274
f 275/275/275 274/274/274 273/273/273
f 273/273/273 276/276/276 275/275/275
f 277/277/277 275/275/275 276/276/276
f 276/276/276 278/278/278 277/277/277
f 279/279/279 277/277/277 278/278/278
f 278/278/278 280/280/280 279/279/279
f 281/281/281 279/279/279 280/280/280
f 277/277/277 279/279/279 282/282/282
f 277/277/277 282/282/282 275/275/275
f 283/283/283 282/282/282 279/279/279
f 279/279/279 281/281/281 283/283/283
f 280/280/280 278/278/278 284/284/284
f 284/284/284 285/285/285 280/280/280
f 286/286/286 280/280/280 285/285/285
f 280/280/280 286/286/286 281/281/281
f 284/284/284 287/287/287 285/285/285
f 287/287/287 284/284/284 288/288/288
f 289/289/289 288/288/288 284/284/284
f 289/289/289 284/284/284 278/278/278
f 278/278/278 276/276/276 289/289/289
f 290/290/290 285/285/285 287/287/287
f 287/287/287 291/291/291 290/290/290
f 292/292/292 290/290/290 291/291/291
f 290/290/290 293/293/293 285/285/285
f 294/294/294 285/285/285 293/293/293
f 285/285/285 294/294/294 286/286/286
f 288/288/288 248/248/248 287/287/287
f 291/291/291 287/287/287 248/248/248
f 293/293/293 290/290/290 295/295/295
f 292/292/292 295/295/295 290/290/290
f 295/295/295 205/205/205 293/293/293
f 206/206/206 293/293/293 205/205/205
f 294/294/294 293/293/293 206/206/206
f 296/296/296 286/286/286 294/294/294
f 286/286/286 296/296/296 297/297/297
f 298/298/298 297/297/297 296/296/296
f 298/298/298 296/296/296 299/299/299
f 300/300/300 299/299/299 296/296/296
f 296/296/296 294/294/294 300/300/300
f 301/301/301 300/300/300 294/294/294
f 301/301/301 223/223/223 300/300/300
f 302/302/302 300/300/300 223/223/223
f 300/300/300 302/302/302 299/299/299
f 303/303/303 299/299/299 302/302/302
f 303/303/303 304/304/304 299/299/299
f 305/305/305 299/299/299 304/304/304
f 304/304/304 303/303/303 306/306/306
f 307/307/307 306/306/306 303/303/303
f 303/303/303 302/302/302 307/307/307
f 307/307/307 308/308/308 306/306/306
f 307/307/307 309/309/309 308/308/308
f 309/309/309 307/307/307 302/302/302
f 302/302/302 223/223/223 309/309/309
f 310/310/310 308/308/308 309/309/309
f 311/311/311 306/306/306 308/308/308
f 308/308/308 310/310/310 312/312/312
f 308/308/308 312/312/312 311/311/311
f 313/313/313 312/312/312 310/310/310
f 305/305/305 314/314/314 299/299/299
f 314/314/314 305/305/305 315/315/315
f 316/316/316 315/315/315 305/305/305
f 315/315/315 316/316/316 317/317/317
f 318/318/318 317/317/317 316/316/316
f 318/318/318 316/316/316 319/319/319
f 320/320/320 319/319/319 316/316/316
f 316/316/316 305/305/305 320/320/320
f 315/315/315 321/321/321 314/314/314
f 322/322/322 314/314/314 321/321/321
f 317/317/317 318/318/318 323/323/323
f 324/324/324 323/323/323 318/318/318
f 319/319/319 325/325/325 318/318/318
f 324/324/324 318/318/318 325/325/325
f 317/317/317 326/326/326 315/315/315
f 321/321/321 315/315/315 326/326/326
f 326/326/326 327/327/327 321/321/321
f 328/328/328 321/321/321 327/327/327
f 321/321/321 328/328/328 322/322/322
f 326/326/326 329/329/329 327/327/327
f 323/323/323 329/329/329 317/317/317
f 326/326/326 317/317/317 329/329/329
f 329/329/329 323/323/323 330/330/330
f 331/331/331 330/330/330 323/323/323
f 323/323/323 324/324/324 331/331/331
f 332/332/332 327/327/327 329/329/329
f 327/327/327 333/333/333 328/328/328
f 334/334/334 328/328/328 333/333/333
f 333/333/333 335/335/335 334/334/334
f 336/336/336 334/334/334 335/335/335
f 328/328/328 334/334/334 337/337/337
f 337/337/337 322/322/322 328/328/328
f 283/283/283 337/337/337 334/334/334
f 334/334/334 336/336/336 283/283/283
f 335/335/335 333/333/333 338/338/338
f 339/339/339 338/338/338 333/333/333
f 333/333/333 327/327/327 339/339/339
f 332/332/332 339/339/339 327/327/327
f 339/339/339 332/332/332 340/340/340
f 341/341/341 340/340/340 332/332/332
f 332/332/332 329/329/329 341/341/341
f 330/330/330 341/341/341 329/329/329
f 341/341/341 330/330/330 342/342/342
f 341/341/341 342/342/342 340/340/340
f 343/343/343 342/342/342 330/330/330
f 330/330/330 331/331/331 343/343/343
f 342/342/342 343/343/343 344/344/344
f 344/344/344 345/345/345 342/342/342
f 346/346/346 342/342/342 345/345/345
f 346/346/346 340/340/340 342/342/342
f 346/346/346 347/347/347 340/340/340
f 348/348/348 340/340/340 347/347/347
f 338/338/338 339/339/339 348/348/348
f 340/340/340 348/348/348 339/339/339
f 349/349/349 344/344/344 343/343/343
f 343/343/343 350/350/350 349/349/349
f 351/351/351 349/349/349 350/350/350
f 350/350/350 352/352/352 351/351/351
f 352/352/352 350/350/350 353/353/353
f 331/331/331 353/353/353 350/350/350
f 350/350/350 343/343/343 331/331/331
f 352/352/352 353/353/353 354/354/354
f 355/355/355 354/354/354 353/353/353
f 356/356/356 351/351/351 352/352/352
f 347/347/347 346/346/346 357/357/357
f 345/345/345 357/357/357 346/346/346
f 347/347/347 357/357/357 358/358/358
f 359/359/359 358/358/358 357/357/357
f 354/354/354 360/360/360 352/352/352
f 356/356/356 352/352/352 360/360/360
f 360/360/360 354/354/354 361/361/361
f 362/362/362 361/361/361 354/354/354
f 354/354/354 355/355/355 362/362/362
f 361/361/361 362/362/362 363/363/363
f 364/364/364 363/363/363 362/362/362
f 362/362/362 365/365/365 364/364/364
f 365/365/365 362/362/362 355/355/355
f 366/366/366 364/364/364 365/365/365
f 363/363/363 364/364/364 367/367/367
f 368/368/368 367/367/367 364/364/364
f 364/364/364 366/366/366 368/368/368
f 355/355/355 325/325/325 365/365/365
f 369/369/369 365/365/365 325/325/325
f 365/365/365 369/369/369 366/366/366
f 325/325/325 319/319/319 369/369/369
f 370/370/370 369/369/369 319/319/319
f 369/369/369 370/370/370 371/371/371
f 371/371/371 366/366/366 369/369/369
f 366/366/366 371/371/371 372/372/372
f 372/372/372 368/368/368 366/366/366
f 373/373/373 372/372/372 371/371/371
f 374/374/374 371/371/371 370/370/370
f 371/371/371 374/374/374 373/373/373
f 370/370/370 375/375/375 374/374/374
f 376/376/376 374/374/374 375/375/375
f 374/374/374 376/376/376 377/377/377
f 377/377/377 373/373/373 374/374/374
f 378/378/378 377/377/377 376/376/376
f 376/376/376 311/311/311 378/378/378
f 379/379/379 378/378/378 311/311/311
f 375/375/375 370/370/370 320/320/320
f 319/319/319 320/320/320 370/370/370
f 311/311/311 376/376/376 306/306/306
f 375/375/375 306/306/306 376/376/376
f 306/306/306 375/375/375 304/304/304
f 320/320/320 304/304/304 375/375/375
f 304/304/304 320/320/320 305/305/305
f 379/379/379 311/311/311 312/312/312
f 382/382/382 381/381/381 380/380/380
f 383/383/383 380/380/380 381/381/381
f 382/382/382 380/380/380 275/275/275
f 274/274/274 275/275/275 380/380/380
f 381/381/381 335/335/335 383/383/383
f 384/384/384 383/383/383 335/335/335
f 335/335/335 338/338/338 384/384/384
f 385/385/385 384/384/384 338/338/338
f 338/338/338 348/348/348 385/385/385
f 386/386/386 385/385/385 348/348/348
f 348/348/348 347/347/347 386/386/386
f 358/358/358 386/386/386 347/347/347
f 381/381/381 382/382/382 336/336/336
f 336/336/336 335/335/335 381/381/381
f 282/282/282 336/336/336 382/382/382
f 382/382/382 275/275/275 282/282/282
f 282/282/282 283/283/283 336/336/336
f 337/337/337 283/283/283 281/281/281
f 281/281/281 297/297/297 337/337/337
f 322/322/322 337/337/337 297/297/297
f 297/297/297 281/281/281 286/286/286
f 297/297/297 298/298/298 322/322/322
f 314/314/314 322/322/322 298/298/298
f 298/298/298 299/299/299 314/314/314
f 389/389/389 388/388/388 387/387/387
f 387/387/387 225/225/225 390/390/390
f 393/393/393 392/392/392 391/391/391
f 394/394/394 391/391/391 392/392/392
f 394/394/394 395/395/395 391/391/391
f 396/396/396 391/391/391 395/395/395
f 395/395/395 232/232/232 396/396/396
f 395/395/395 218/218/218 232/232/232
f 233/233/233 396/396/396 232/232/232
f 396/396/396 233/233/233 397/397/397
f 391/391/391 397/397/397 393/393/393
f 391/391/391 396/396/396 397/397/397
f 234/234/234 397/397/397 233/233/233
f 398/398/398 393/393/393 397/397/397
f 394/394/394 220/220/220 395/395/395
f 218/218/218 395/395/395 220/220/220
f 220/220/220 394/394/394 399/399/399
f 399/399/399 231/231/231 220/220/220
f 400/400/400 399/399/399 394/394/394
f 353/353/353 331/331/331 324/324/324
f 353/353/353 324/324/324 355/355/355
f 325/325/325 355/355/355 324/324/324
f 254/254/254 249/249/249 288/288/288
f 248/248/248 288/288/288 249/249/249
f 288/288/288 289/289/289 254/254/254
f 256/256/256 254/254/254 289/289/289
f 256/256/256 289/289/289 276/276/276
f 276/276/276 273/273/273 256/256/256
f 257/257/257 256/256/256 273/273/273
f 248/248/248 245/245/245 291/291/291
f 243/243/243 291/291/291 245/245/245
f 291/291/291 243/243/243 292/292/292
f 241/241/241 292/292/292 243/243/243
f 292/292/292 241/241/241 295/295/295
f 239/239/239 295/295/295 241/241/241
f 295/295/295 239/239/239 205/205/205
f 202/202/202 205/205/205 239/239/239
f 222/222/222 309/309/309 223/223/223
f 309/309/309 222/222/222 310/310/310
f 229/229/229 310/310/310 222/222/222
f 310/310/310 229/229/229 313/313/313
f 228/228/228 313/313/313 229/229/229
f 223/223/223 301/301/301 212/212/212
f 210/210/210 212/212/212 301/301/301
f 301/301/301 294/294/294 210/210/210
f 206/206/206 210/210/210 294/294/294
f 402/402/402 401/401/401 251/251/251
f 250/250/250 251/251/251 401/401/401
f 251/251/251 252/252/252 402/402/402
f 271/271/271 402/402/402 252/252/252
