g polySurface010
v 0.118243493 -0.0864296257 1.45104945
v -0.0137767829 -0.0648709685 1.34812558
v 0.100611836 -0.0903787911 1.31910729
v -1.58691975E-07 -0.100929432 1.4526242
v 0.205638632 -0.118045725 1.42908978
v 0.130636752 -0.151126817 1.31288981
v 0.264024377 -0.166307658 1.40340209
v 0.184418961 -0.193083569 1.30743372
v 0.0803420395 -0.128916353 1.16745746
v -0.00175279856 -0.10108874 1.14812839
v 0.158000842 -0.197348461 1.17419314
v -0.102946118 -0.0687863752 1.284886
v -0.118263811 -0.086276941 1.45104945
v -0.160982415 -0.113623694 1.22837865
v -0.210336968 -0.172810242 1.33278072
v -0.0615848117 -0.117502764 1.08988166
v -0.111170173 -0.170775697 1.14186156
v -0.18985185 -0.187067583 1.15753174
v -0.224077597 -0.244310215 1.27344763
v -0.293212861 -0.235793516 1.38129127
v -0.264024645 -0.166307822 1.40340209
v -0.277623773 -0.348740697 1.35022676
v -0.211459696 -0.314443767 1.25625539
v -0.223859921 -0.397282392 1.39496624
v -0.177103326 -0.363424063 1.25494564
v -0.144926876 -0.467036128 1.30042446
v -0.109297961 -0.394998759 1.27299297
v -2.24096581E-08 -0.468305618 1.28372753
v -0.0290254112 -0.373334378 1.29155481
v 0.0515525341 -0.356045097 1.29247165
v 0.144926876 -0.467036009 1.30042446
v 0.117779769 -0.337599486 1.27817535
v 0.223859802 -0.397282243 1.39496624
v 0.186025441 -0.300160199 1.23315156
v 0.277623624 -0.348740488 1.35022676
v 0.228214756 -0.227026165 1.29734576
v 0.293212652 -0.235793382 1.38129127
v 0.184418961 -0.193083569 1.30743372
v 0.264024377 -0.166307658 1.40340209
v 0.0739231259 -0.272589535 1.16437137
v -0.0435485579 -0.340261668 1.08677816
v 0.158000842 -0.197348461 1.17419314
v 0.158000842 -0.197348461 1.17419314
v -0.135767549 -0.35200426 1.07790446
v -0.109297961 -0.394998759 1.27299297
v -0.166398868 -0.290374011 1.10451674
v 0.0214119982 -0.255460441 0.967273295
v 0.115698799 -0.228642419 1.02330649
v -0.0434650108 -0.250754058 0.951012611
v -0.0988945737 -0.205346823 0.952194631
v -0.100895822 -0.142571792 0.991273165
v -0.0262651294 -0.122009806 0.99588424
v 0.0363829881 -0.106827296 1.00683129
v 0.0821579695 -0.128472179 1.0628444
v 0.146615461 -0.192586511 1.06351244
v 0.158000842 -0.197348461 1.17419314
v 0.13719663 -0.0967876762 0.924632847
v 0.0768654421 -0.0401147269 0.867131233
v 0.170472383 -0.136637554 0.903393865
v 0.0258233584 -0.0549013689 0.89908433
v -0.0273297206 -0.106945321 0.877968192
v -0.056267567 -0.165573955 0.845972478
v 0.131427422 -0.0787909776 0.824813604
v 0.0685915574 -0.0458078086 0.778688788
v -0.0125129195 -0.0422558859 0.763239264
v -0.0604674369 -0.0790004581 0.730004728
v 0.166056737 -0.114950873 0.842859924
v 0.151793152 -0.175623894 0.904998243
v 0.13548255 -0.174283534 0.816003501
v 0.115698799 -0.228642419 1.02330649
v 0.0670140609 -0.0760574117 0.716511846
v 0.0259104241 -0.0516836159 0.682689905
v 0.0781653076 -0.107356682 0.725260854
v 0.0590657517 -0.134043545 0.720420539
v 0.0124603426 -0.174381047 0.75348866
v 0.0398951508 -0.194721222 0.79918015
v -0.0120372269 -0.0163731575 0.636895001
v -0.0672840551 -0.0626444444 0.647174239
v 0.0321518369 -0.0674441829 0.642509043
v 0.0234059617 -0.0303992592 0.628856897
v -0.032248538 -0.151760578 0.679176331
v 0.0372591242 -0.101025619 0.645227253
v 0.0329268463 -0.0488796234 0.566724896
v 0.0260303635 -0.0105713606 0.570418954
v -0.00290102768 -0.0949975401 0.550640345
v 0.0234632771 -0.0763416141 0.548290074
v -0.0132195782 0.00280137523 0.565560579
v -0.0332358479 -0.0392127521 0.554824054
v -0.0771225318 -0.106680341 0.635188758
v -0.0666318089 -0.127532825 0.739745378
v -0.0977623239 -0.150696203 0.718756616
v -0.0667183697 -0.135804519 0.628050148
v -0.032248538 -0.151760578 0.679176331
v -0.0298591126 -0.212333784 0.813279986
v 0.0124603426 -0.174381047 0.75348866
v -0.0170900244 -0.204720423 0.869326174
v 0.0197665598 -0.213075444 0.874362111
v 0.0932372287 -0.192115888 0.921165526
v 0.0398951508 -0.194721222 0.79918015
v 0.151793152 -0.175623894 0.904998243
v 0.146615461 -0.192586511 1.06351244
v 0.158000842 -0.197348461 1.17419314
v 0.158000842 -0.197348461 1.17419314
v -0.205638915 -0.118045881 1.42908978
v -0.0474555828 -0.0673307851 0.550601602
v -0.0172376912 -0.0930266082 0.547702134
v -0.0436330251 -0.108015746 0.421678126
v -0.0141875846 -0.133054689 0.418852657
v -0.0297767054 -0.0806164742 0.425792634
v -0.0128465984 -0.0638044178 0.407612801
v 0.033440657 -0.152611226 0.333065301
v 0.033440657 -0.152611226 0.333065301
v -0.0128465984 -0.0638044178 0.407612801
v 0.0180830937 -0.105975285 0.427852273
v 0.0180830937 -0.105975285 0.427852273
v 0.0180830937 -0.105975285 0.427852273
v -0.00290102768 -0.0949975401 0.550640345
v -0.032248538 -0.151760578 0.679176331
v 0.277623624 -0.348740488 1.35022676
v 0.316630572 -0.492751032 1.420825
v 0.311294913 -0.378736138 1.48403466
v 0.223859802 -0.397282243 1.39496624
v 0.293212652 -0.235793382 1.38129127
v 0.316651762 -0.29274115 1.50366759
v 0.197033569 -0.574025095 1.42049897
v 0.144926876 -0.467036009 1.30042446
v 5.18589083E-08 -0.603890598 1.385355
v -2.24096581E-08 -0.468305618 1.28372753
v 0.435401261 -0.425487518 1.61147046
v 0.414977938 -0.330224991 1.62228799
v 0.426133573 -0.402691305 1.7526654
v 0.437885225 -0.308489561 1.75917935
v 0.418931156 -0.35357514 1.85857606
v 0.4182432 -0.401872277 1.88959074
v 0.413094252 -0.461339861 1.79393125
v 0.418825835 -0.280446589 1.85890651
v 0.464853585 -0.479715496 1.91809654
v 0.416340709 -0.423414588 1.94600272
v 0.453688681 -0.484153837 2.02907395
v 0.459395826 -0.432729632 1.99947953
v 0.480912298 -0.464528114 2.16615462
v 0.386754841 -0.209442273 1.92819357
v 0.392359167 -0.326854825 1.89256024
v 0.413593471 -0.387150496 1.93019342
v 0.454752326 -0.4068712 1.99280989
v 0.518089652 -0.39120236 2.07436657
v 0.503073573 -0.407433659 2.23135853
v 0.537225306 -0.33369261 2.13690233
v 0.499056011 -0.313923836 2.27474809
v 0.50209111 -0.228560343 2.27047729
v 0.496616423 -0.233255655 2.13545918
v 0.509738863 -0.111576386 2.22060943
v 0.447976142 -0.170256302 2.10026979
v 0.493584365 -0.0209185984 2.06641054
v 0.385045767 -0.140203625 2.02049351
v 0.414498657 -0.0543154143 1.99856806
v 0.420847088 -0.00250587449 1.91285324
v 0.414420247 -0.107590437 1.93534994
v 0.439312398 -0.0607236847 1.89514935
v 0.340910077 0.0193145834 1.92164993
v 0.32830897 -0.100084372 1.72936225
v 0.199073151 0.00333196623 1.76328504
v 0.179909453 0.0383608341 1.99014413
v -1.37681127E-07 0.0187479202 1.78548276
v -1.52959885E-07 0.0616777316 1.97797632
v 0.154617175 0.042479638 2.06444263
v -1.53628491E-07 0.063891679 2.0698905
v 0.194502294 -0.016227128 2.22138691
v -1.21677161E-07 -0.0419103801 2.26163793
v 0.291193038 -0.0147764944 2.20670199
v 0.283244044 -0.154998764 2.34843707
v 0.187620506 -0.219682172 2.38931513
v 0.296067238 0.0397760086 2.07819581
v -1.06471376E-07 -0.0796035528 1.57844567
v 0.153672755 -0.0787005424 1.58522987
v -1.58691975E-07 -0.100929432 1.4526242
v 0.118243493 -0.0864296257 1.45104945
v 0.247099698 -0.0977837369 1.56003892
v 0.205638632 -0.118045725 1.42908978
v 0.302565068 -0.16805549 1.47852349
v 0.264024377 -0.166307658 1.40340209
v 0.316651762 -0.29274115 1.50366759
v 0.293212652 -0.235793382 1.38129127
v 0.390627623 -0.21420376 1.649189
v 0.414977938 -0.330224991 1.62228799
v 0.420689344 -0.19967483 1.79075193
v 0.437885225 -0.308489561 1.75917935
v 0.416924208 -0.189857379 1.88727582
v 0.418825835 -0.280446589 1.85890651
v 0.386754841 -0.209442273 1.92819357
v 0.385045767 -0.140203625 2.02049351
v 0.419685483 -0.0295335576 2.21780872
v 0.387986779 0.0216321424 2.05759978
v 0.440125734 -0.124428079 2.3280561
v -4.7683713E-08 -0.273234576 2.41747236
v -0.194502562 -0.0162272435 2.22138691
v -0.154617473 0.0424795374 2.06444263
v -0.291193336 -0.0147766657 2.20670199
v -0.283244193 -0.154998943 2.36054683
v -0.187620655 -0.219682306 2.38931513
v -0.296067566 0.0397758149 2.07819581
v -0.179909766 0.0383607373 1.99014413
v -0.199073449 0.003331871 1.76328504
v -0.340910345 0.01946887 1.92164993
v -0.328309119 -0.100084558 1.72936225
v -0.153672963 -0.0787006393 1.58522987
v -0.118263811 -0.086276941 1.45104945
v -0.247099921 -0.0977838859 1.56003892
v -0.205638915 -0.118045881 1.42908978
v -0.302565217 -0.168055683 1.47852349
v -0.264024645 -0.166307822 1.40340209
v -0.31665194 -0.292741328 1.50366759
v -0.293212861 -0.235793516 1.38129127
v -0.390627712 -0.214203984 1.649189
v -0.414977938 -0.330225199 1.62228799
v -0.438202083 -0.0607239902 1.89514935
v -0.419736773 -0.00250614155 1.91285324
v -0.413309902 -0.107590675 1.93534994
v -0.413388401 -0.0543156601 1.99856794
v -0.419578969 -0.199675098 1.79075193
v -0.415813804 -0.189857632 1.88727582
v -0.436774731 -0.308489859 1.75917935
v -0.4177154 -0.280446857 1.85890651
v -0.39682135 -0.140203848 2.02049327
v -0.482506633 -0.0209188834 2.06641054
v -0.447967201 -0.17025657 2.10026979
v -0.509739041 -0.111576691 2.22060943
v -0.398530394 -0.209442511 1.92819357
v -0.496609777 -0.233255953 2.13545918
v -0.502091229 -0.228560656 2.27047729
v -0.537218511 -0.333692938 2.13690233
v -0.499056071 -0.313924134 2.27474809
v -0.503073573 -0.407433957 2.23135853
v -0.518082857 -0.391202658 2.07436657
v -0.490200728 -0.464528441 2.16615438
v -0.46652773 -0.406871468 1.99280965
v -0.460100025 -0.4327299 1.99947929
v -0.459252715 -0.484154105 2.02907395
v -0.415230244 -0.423414856 1.94600272
v -0.463743001 -0.479715794 1.91809654
v -0.417132676 -0.401872545 1.88959074
v -0.411983699 -0.461340159 1.79393125
v -0.425023019 -0.402691573 1.7526654
v -0.417820603 -0.353575468 1.85857606
v -0.436774731 -0.308489859 1.75917935
v -0.414977938 -0.330225199 1.62228799
v -0.435401171 -0.425487727 1.61147046
v -0.31665194 -0.292741328 1.50366759
v -0.311294943 -0.378736347 1.48403466
v -0.293212861 -0.235793516 1.38129127
v -0.277623773 -0.348740697 1.35022676
v -0.316630542 -0.492751211 1.420825
v -0.223859921 -0.397282392 1.39496624
v -0.197033495 -0.574025154 1.42049897
v -0.144926876 -0.467036128 1.30042446
v 5.18589083E-08 -0.603890598 1.385355
v -2.24096581E-08 -0.468305618 1.28372753
v -0.4177154 -0.280446857 1.85890651
v -0.398530394 -0.209442511 1.92819357
v -0.404134601 -0.326855093 1.89256012
v -0.425368875 -0.387150705 1.93019331
v -0.419685692 -0.0295338221 2.21780872
v -0.387987047 0.0216318928 2.05759978
v -0.440125793 -0.124428324 2.34016562
v 0.541321814 -0.214186296 2.02456117
v 0.492259651 -0.194052562 1.94195008
v 0.561383247 -0.196954682 1.95836711
v 0.571380019 -0.244566381 2.04908037
v 0.612723231 -0.217686057 1.96143854
v 0.600171208 -0.313878328 2.03116703
v 0.661691248 -0.283035338 1.94291961
v 0.570428491 -0.374078542 1.98756874
v 0.618238688 -0.351331145 1.90174055
v 0.559917569 -0.358766139 1.87990439
v 0.528109252 -0.393042743 1.93651593
v 0.49710685 -0.329010159 1.87204385
v 0.481312126 -0.363030016 1.90699303
v 0.644887209 -0.181639627 1.90970886
v 0.595145762 -0.165241122 1.90219784
v 0.492259651 -0.194052562 1.94195008
v 0.68556726 -0.142981559 1.85786188
v 0.628473282 -0.125974298 1.8367883
v 0.557982802 -0.181490362 1.88081968
v 0.492259651 -0.194052562 1.94195008
v 0.586142778 -0.136536106 1.81834054
v 0.590228558 -0.326216996 1.82034492
v 0.642911077 -0.322448671 1.84117103
v 0.556623876 -0.292091042 1.8290652
v 0.58561492 -0.250648201 1.76274896
v 0.624636948 -0.277943105 1.75549841
v 0.684629858 -0.274817944 1.77595246
v 0.713479221 -0.202202812 1.82190275
v 0.663418889 -0.248599231 1.88070929
v 0.545413554 -0.238873839 1.85462463
v 0.49507606 -0.269370764 1.90446496
v 0.492259651 -0.194052562 1.94195008
v 0.567996681 -0.190372735 1.78829801
v 0.557982802 -0.181490362 1.88081968
v 0.492259651 -0.194052562 1.94195008
v 0.586142778 -0.136536106 1.81834054
v 0.654296696 -0.221640825 1.68362164
v 0.703656375 -0.203545526 1.70769715
v 0.610054255 -0.186761454 1.69692302
v 0.626727223 -0.128122792 1.62552106
v 0.69323498 -0.149481818 1.61577737
v 0.724517584 -0.137812346 1.63079727
v 0.785687149 -0.0789034665 1.66066802
v 0.738969326 -0.145055652 1.74300683
v 0.733923316 -0.0960715637 1.78528011
v 0.658110738 -0.05812639 1.78151071
v 0.619880319 -0.0781965405 1.74805784
v 0.800313294 -0.015874844 1.707026
v 0.697530866 0.0101957507 1.74628675
v 0.649241149 -0.0025804739 1.69326079
v 0.755944431 0.0635274276 1.69979072
v 0.713807106 0.0719733238 1.71233332
v 0.770543933 0.0637591705 1.6635263
v 0.781012774 0.0293813087 1.64393282
v 0.725167572 0.0841176808 1.65160763
v 0.72041446 0.0632342324 1.62963438
v 0.68638283 0.0817468241 1.65491593
v 0.633842587 0.0438725837 1.63093102
v 0.670962453 0.0734702647 1.68085611
v 0.633842587 0.0438725837 1.63093102
v 0.68638283 0.0817468241 1.65491593
v 0.776713252 0.117522396 1.64816356
v 0.717255771 0.13002415 1.68487668
v 0.691964388 0.129175663 1.63834131
v 0.763850689 0.182359308 1.62685263
v 0.726198494 0.190312445 1.65228319
v 0.708490252 0.182732403 1.61950696
v 0.691964388 0.129175663 1.63834131
v 0.68638283 0.0817468241 1.65491593
v 0.708490252 0.182732403 1.61950696
v 0.737876654 0.241298348 1.59895182
v 0.708490252 0.182732403 1.61950696
v 0.708490252 0.182732403 1.61950696
v 0.737876654 0.241298348 1.59895182
v 0.61211592 -0.128274977 1.72518921
v 0.619880319 -0.0781965405 1.74805784
v 0.615737438 -0.0669885203 1.64852655
v 0.649241149 -0.0025804739 1.69326079
v 0.629133344 -0.0316070728 1.59459352
v 0.623880327 -0.100644894 1.59366846
v 0.633842587 0.0438725837 1.63093102
v 0.633625984 0.0646809936 1.59654367
v 0.386754841 -0.209442273 1.92819357
v 0.385045767 -0.140203625 2.02049351
v 0.385045767 -0.140203625 2.02049351
v 0.447976142 -0.170256302 2.10026979
v 0.447976142 -0.170256302 2.10026979
v 0.496616423 -0.233255655 2.13545918
v 0.537225306 -0.33369261 2.13690233
v 0.518089652 -0.39120236 2.07436657
v 0.454752326 -0.4068712 1.99280989
v 0.413593471 -0.387150496 1.93019342
v 0.392359167 -0.326854825 1.89256024
v 0.386754841 -0.209442273 1.92819357
v 0.691964388 0.129175663 1.63834131
v 0.68638283 0.0817468241 1.65491593
v 0.633625984 0.0646809936 1.59654367
v -0.541377723 -0.22150062 2.02157116
v -0.561391532 -0.197643727 1.95803189
v -0.492877692 -0.194767162 1.94175959
v -0.569702089 -0.250128359 2.04467607
v -0.612278521 -0.218192264 1.96107614
v -0.596832633 -0.315442473 2.02779603
v -0.660814643 -0.282965094 1.94272065
v -0.568805397 -0.372170299 1.98671234
v -0.61774528 -0.350658357 1.90190482
v -0.559938729 -0.358027726 1.8802613
v -0.531176269 -0.381783754 1.94434714
v -0.497681975 -0.328534245 1.87247002
v -0.484829247 -0.361758977 1.91078436
v -0.645280123 -0.181094438 1.91009772
v -0.595107496 -0.164553732 1.90252161
v -0.492877692 -0.194767162 1.94175959
v -0.684261322 -0.144447014 1.8564353
v -0.628629446 -0.127875298 1.83590162
v -0.557622313 -0.180943847 1.8809582
v -0.492877692 -0.194767162 1.94175959
v -0.587383151 -0.138166577 1.81792629
v -0.590147555 -0.326925069 1.81995916
v -0.643286824 -0.323124081 1.84096587
v -0.556251585 -0.292503208 1.82875502
v -0.586868703 -0.249356151 1.76375854
v -0.624891281 -0.275952011 1.75669348
v -0.683347762 -0.272906899 1.77662385
v -0.711458325 -0.202151567 1.82139719
v -0.663972318 -0.248634472 1.88084686
v -0.544944167 -0.23882474 1.85453594
v -0.495669216 -0.269420952 1.90460503
v -0.492877692 -0.194767162 1.94175959
v -0.569701731 -0.190624371 1.78865302
v -0.557622313 -0.180943847 1.8809582
v -0.492877692 -0.194767162 1.94175959
v -0.587383151 -0.138166577 1.81792629
v -0.654508173 -0.220208347 1.68450117
v -0.703004539 -0.202429533 1.70815551
v -0.61103946 -0.185938925 1.69756985
v -0.627452135 -0.126426414 1.63029969
v -0.694075763 -0.14661485 1.61569834
v -0.72480154 -0.135153115 1.63045084
v -0.784882367 -0.077292867 1.65979004
v -0.737699926 -0.144962609 1.74284768
v -0.73274231 -0.0968352109 1.78438163
v -0.658255577 -0.0595535934 1.78067839
v -0.620693624 -0.0792727247 1.74781036
v -0.801680505 -0.0197280645 1.7040838
v -0.693409383 0.00773475645 1.74544108
v -0.642541051 -0.00572366919 1.68958354
v -0.625955582 -0.0986472145 1.59398293
v -0.631115198 -0.0308382548 1.59489143
v -0.757822573 0.0630203485 1.70098817
v -0.713454962 0.0719133168 1.71419442
v -0.77319479 0.06326437 1.66280425
v -0.78029114 0.0290644169 1.64335263
v -0.72541672 0.0847004503 1.65025449
v -0.720771611 0.0623147897 1.62930858
v -0.684579074 0.0822041333 1.6537379
v -0.635740638 0.0432978347 1.63058221
v -0.668342471 0.0734895095 1.68105114
v -0.635740638 0.0432978347 1.63058221
v -0.684579074 0.0822041333 1.6537379
v -0.778744102 0.117181778 1.64778483
v -0.716774881 0.130211681 1.68604875
v -0.690415084 0.129327372 1.63754761
v -0.690415084 0.129327372 1.63754761
v -0.767048538 0.18207261 1.62623107
v -0.72551322 0.190845981 1.654284
v -0.705978811 0.182484239 1.61812782
v -0.705978811 0.182484239 1.61812782
v -0.737876892 0.241297886 1.5971663
v -0.737876892 0.241297886 1.5971663
v -0.737876892 0.241297886 1.5971663
v -0.635527968 0.0637358502 1.59680688
v -0.613065064 -0.128475308 1.72534156
v -0.620693624 -0.0792727247 1.74781036
v -0.616658032 -0.0663803294 1.65289545
v -0.642541051 -0.00572366919 1.68958354
v -0.635740638 0.0432978347 1.63058221
v -0.635527968 0.0637358502 1.59680688
v -0.387459189 -0.209442541 1.92819357
v -0.385750204 -0.140203863 2.02049351
v -0.447976291 -0.17025657 2.10026979
v -0.496616572 -0.233255953 2.13545918
v -0.537225306 -0.333692938 2.13690233
v -0.518089652 -0.391202658 2.07436657
v -0.466534555 -0.406871468 1.99280965
v -0.41429767 -0.387150705 1.93019331
v -0.393063396 -0.326855093 1.89256012
v -0.387459189 -0.209442541 1.92819357
v -0.684579074 0.0822041333 1.6537379
v -0.690415084 0.129327372 1.63754761
v 0.497283399 0.0756990984 2.41467452
v 0.161926329 -0.0409090035 2.44455934
v 0.458059877 0.164457798 2.39174819
v 0.159664392 -0.194527507 2.43647385
v 0.595769167 0.193388343 2.45185518
v 0.586889088 0.105849542 2.46855211
v 0.980663717 0.218643203 2.9919045
v 1.00816345 0.139281273 2.99105453
v 0.955087662 0.319903523 2.81010342
v 1.06374764 0.295029074 2.98289585
v 0.597286105 0.207112238 2.25982451
v 0.145739302 0.0360366069 2.33477283
v 0.0639645383 -0.0912523046 2.36756372
v 0.0767529309 -0.166264892 2.40616155
v 0.458059877 0.164457798 2.39174819
v 0.159664392 -0.194527507 2.43647385
v 0.106798649 -0.20046325 2.42911196
v 1.50103045 0.525769114 2.63198233
v 1.50709343 0.477190465 2.76951265
v 1.10144162 0.174839661 2.97680449
v 1.97369683 0.58939743 2.50818658
v 1.53059947 0.39537853 2.78695369
v 1.10144162 0.174839661 2.97680449
v 0.11293745 0.0265102386 2.1509037
v 0.0570439436 -0.089904733 2.22641635
v 0.11293745 0.0265102386 2.1509037
v 0.307686388 0.0312679969 1.90249479
v 2.02822924 0.774414361 2.17221785
v 2.11090255 0.609045625 2.45490789
v 2.91294861 1.06417596 1.20725954
v 2.14876676 0.989180744 1.36916161
v 1.50036907 0.61310941 1.8657583
v 1.49889708 0.573328555 2.30147743
v 0.925715446 0.300320953 2.40085435
v 0.600232542 0.204139456 1.84629226
v 0.458059877 0.164457798 2.39174819
v 0.161926329 -0.0409090035 2.44455934
v 0.0595144145 -0.194633514 2.36674809
v 1.13055992 0.143552646 2.9129982
v 1.00469804 0.124328159 2.84340668
v 1.03502715 0.111780629 2.92206836
v 1.10144162 0.174839661 2.97680449
v 1.00816345 0.139281273 2.99105453
v 0.633343637 0.0354679339 2.41452622
v 0.586889088 0.105849542 2.46855211
v 0.527631462 0.0389326215 2.35865021
v 0.497283399 0.0756990984 2.41467452
v 1.53059947 0.39537853 2.78695369
v 1.55256832 0.370296121 2.73703146
v 0.579072773 0.102449335 2.24360132
v 0.154694617 -0.172240809 2.36160946
v 0.18707104 -0.218779802 2.41113424
v 0.497283399 0.0756990984 2.41467452
v 0.159664392 -0.194527507 2.43647385
v 1.97369683 0.58939743 2.50818658
v 1.5458777 0.405771136 2.61556077
v 0.11293745 0.0265102386 2.1509037
v 0.600232542 0.204139456 1.84629226
v 0.925715446 0.300320953 2.40085435
v 0.307686388 0.0312679969 1.90249479
v 1.531389 0.473869175 2.34079909
v 1.50036907 0.61310941 1.8657583
v 0.925715446 0.300320953 2.40085435
v 2.14876676 0.989180744 1.36916161
v 2.01759219 0.723544896 2.21092868
v 2.11090255 0.609045625 2.45490789
v 2.91294861 1.06417596 1.20725954
v 2.91294861 1.06417596 1.20725954
v 0.307686388 0.0312679969 1.90249479
v 0.11293745 0.0265102386 2.1509037
v -0.497359037 0.0752560794 2.41737819
v -0.160785675 -0.0456694029 2.44672346
v -0.158583596 -0.195222482 2.43885207
v -0.457132816 0.166283682 2.39386582
v -0.59196949 0.194857791 2.45197845
v -0.582929909 0.105746813 2.46897507
v -0.976763129 0.213996157 2.99168134
v -1.00333357 0.137316316 2.99086022
v -0.955299079 0.31907028 2.81024528
v -1.06974781 0.294517845 2.98146629
v -0.596849799 0.204605058 2.25943589
v -0.151937649 0.042854175 2.33551383
v -0.0654163882 -0.0946804062 2.37176561
v -0.0778663456 -0.167707801 2.40934205
v -0.457132816 0.166283682 2.39386582
v -0.158583596 -0.195222482 2.43885207
v -0.107116915 -0.201001123 2.43168521
v -1.50039256 0.525690675 2.6397934
v -1.50625086 0.480671763 2.76467991
v -1.10616779 0.178390309 2.97558093
v -1.97369683 0.58991003 2.50713563
v -1.53037894 0.39669466 2.78258228
v -1.10616779 0.178390309 2.97558093
v -0.118168168 0.0296319947 2.15018249
v -0.0590300225 -0.0935408771 2.2300787
v -0.118168168 0.0296319947 2.15018249
v -0.307686388 0.0312679969 1.9017154
v -2.0276351 0.771572709 2.1743803
v -2.11090255 0.609045625 2.45490789
v -2.91294861 1.06417596 1.20725954
v -2.14876676 0.989180744 1.36916161
v -1.50036907 0.61310941 1.8657583
v -1.50107479 0.566662371 2.30411315
v -0.925715446 0.299782127 2.40152812
v -0.600232542 0.20473516 1.84256637
v -0.160785675 -0.0456694029 2.44672346
v -0.457132816 0.166283682 2.39386582
v -0.0618355349 -0.198642731 2.37175202
v -1.13430202 0.148160666 2.91393113
v -1.02928936 0.110745065 2.92420554
v -1.00448668 0.125161394 2.84326482
v -1.10616779 0.178390309 2.97558093
v -1.00333357 0.137316316 2.99086022
v -0.630218744 0.0341011658 2.41397929
v -0.582929909 0.105746813 2.46897507
v -0.528482854 0.0375497602 2.35992193
v -0.497359037 0.0752560794 2.41737819
v -1.53037894 0.39669466 2.78258228
v -1.5529294 0.370948434 2.73133898
v -0.579509079 0.104956508 2.24399018
v -0.153657213 -0.177040175 2.36679459
v -0.18526493 -0.21883294 2.41418362
v -0.497359037 0.0752560794 2.41737819
v -0.158583596 -0.195222482 2.43885207
v -1.97369683 0.58991003 2.50713563
v -1.54721785 0.400399894 2.62264729
v -0.118168168 0.0296319947 2.15018249
v -0.600232542 0.20473516 1.84256637
v -0.925715446 0.299782127 2.40152812
v -0.307686388 0.0312679969 1.9017154
v -1.52921128 0.480535418 2.33816361
v -1.50036907 0.61310941 1.8657583
v -0.925715446 0.299782127 2.40152812
v -2.14876676 0.989180744 1.36916161
v -2.01818633 0.726386547 2.20876646
v -2.11090255 0.609045625 2.45490789
v -2.91294861 1.06417596 1.20725954
v -2.91294861 1.06417596 1.20725954
v -0.118168168 0.0296319947 2.15018249
v -0.307686388 0.0312679969 1.9017154
vt 0.94500196 0.930229843
vt 0.941544294 0.893681467
vt 0.923547208 0.913236976
vt 0.959335983 0.907564104
vt 0.931945324 0.946564078
vt 0.913380682 0.923191249
vt 0.917783678 0.958514273
vt 0.903766274 0.935316682
vt 0.894658804 0.893608093
vt 0.90020299 0.872739673
vt 0.883435905 0.915686667
vt 0.938506186 0.869580388
vt 0.971496046 0.883248508
vt 0.935042202 0.850884259
vt 0.965208948 0.845846236
vt 0.895203114 0.851578236
vt 0.912546456 0.839045823
vt 0.929411173 0.830341578
vt 0.957782924 0.824496984
vt 0.984314084 0.830896437
vt 0.983349741 0.847058952
vt 0.981965184 0.806372046
vt 0.956628382 0.805978894
vt 0.987613797 0.791842639
vt 0.956335962 0.789986193
vt 0.972765565 0.77114594
vt 0.956263125 0.770110488
vt 0.965560794 0.739802003
vt 0.947995305 0.75001663
vt 0.938711464 0.731693029
vt 0.959367692 0.706861258
vt 0.93013674 0.718363225
vt 0.944155931 0.684375763
vt 0.911007285 0.707718432
vt 0.927019715 0.67823112
vt 0.896500468 0.68694067
vt 0.903312743 0.665662527
vt 0.883354962 0.687971711
vt 0.885962725 0.661559105
vt 0.904077053 0.736686468
vt 0.908373654 0.773255587
vt 0.885742366 0.716803253
vt 0.885742366 0.716803253
vt 0.916285574 0.79137212
vt 0.956263125 0.770110488
vt 0.919763267 0.805983543
vt 0.872399628 0.774785876
vt 0.87096858 0.747948647
vt 0.874518514 0.79226768
vt 0.875730276 0.811110437
vt 0.879489064 0.829655528
vt 0.872712314 0.847633719
vt 0.867749095 0.864332855
vt 0.87439537 0.882395923
vt 0.866459608 0.903293908
vt 0.883435905 0.915686667
vt 0.841294646 0.878601193
vt 0.833043039 0.857586324
vt 0.832713723 0.888750017
vt 0.844142795 0.848844469
vt 0.847925723 0.830388129
vt 0.847098827 0.811229885
vt 0.821090579 0.869127095
vt 0.814396858 0.853747725
vt 0.814636052 0.835743308
vt 0.812455237 0.821214318
vt 0.823717117 0.879265845
vt 0.829298794 0.898599803
vt 0.811966956 0.887413621
vt 0.85626173 0.914144099
vt 0.796360493 0.855968654
vt 0.792223573 0.843531013
vt 0.794993699 0.864859462
vt 0.788748503 0.871113122
vt 0.782142878 0.887048602
vt 0.791867137 0.8961941
vt 0.785663605 0.830156744
vt 0.794818699 0.815500557
vt 0.780024648 0.847848654
vt 0.780491233 0.838439226
vt 0.766244054 0.875840545
vt 0.77648139 0.856052279
vt 0.765274286 0.838071823
vt 0.769952178 0.831651688
vt 0.75309217 0.846905768
vt 0.757867575 0.840744793
vt 0.772270441 0.823756933
vt 0.772461355 0.81376487
vt 0.796235383 0.804925203
vt 0.819304824 0.813816786
vt 0.816589117 0.806802988
vt 0.796755493 0.798411191
vt 0.809944093 0.793808877
vt 0.841641545 0.797926784
vt 0.826125264 0.788541079
vt 0.853303254 0.796096921
vt 0.852560401 0.785330534
vt 0.852780342 0.763833284
vt 0.833985686 0.784779668
vt 0.842756212 0.752742827
vt 0.87035042 0.734543204
vt 0.885742366 0.716803253
vt 0.885742366 0.716803253
vt 0.979756117 0.863961279
vt 0.773565054 0.80627656
vt 0.773169219 0.796470702
vt 0.744720519 0.798205137
vt 0.742786944 0.789048016
vt 0.743354976 0.805452883
vt 0.736750662 0.810372949
vt 0.717597187 0.785174668
vt 0.717597187 0.785174668
vt 0.736750662 0.810372949
vt 0.733664453 0.82587713
vt 0.72229588 0.811316371
vt 0.733664453 0.82587713
vt 0.77262336 0.792942226
vt 0.804144382 0.786095202
vt 0.672339201 0.0968480334
vt 0.632539034 0.0948928818
vt 0.647771537 0.11996384
vt 0.661631167 0.087523967
vt 0.689329088 0.118626751
vt 0.661013007 0.136590034
vt 0.624680698 0.0624842718
vt 0.665221393 0.0574487597
vt 0.631414533 0.0147483982
vt 0.673348784 0.022738846
vt 0.616077542 0.145615727
vt 0.634269118 0.158980623
vt 0.604458988 0.177619532
vt 0.620742381 0.190085977
vt 0.59679693 0.203593135
vt 0.582897305 0.201964542
vt 0.589600086 0.179065824
vt 0.610255599 0.213041067
vt 0.562188745 0.191318333
vt 0.56968981 0.207446709
vt 0.543340325 0.206478149
vt 0.554674268 0.213417456
vt 0.516651332 0.222523794
vt 0.613327086 0.236055791
vt 0.595135152 0.214988083
vt 0.577289343 0.211834103
vt 0.558960795 0.217917845
vt 0.541188478 0.235766888
vt 0.505517662 0.238178343
vt 0.52831912 0.259489119
vt 0.496909052 0.260406107
vt 0.493017644 0.281825393
vt 0.518913269 0.295528173
vt 0.487598926 0.312730879
vt 0.511745751 0.330280542
vt 0.474762172 0.355514228
vt 0.502049327 0.372513562
vt 0.475639492 0.378899336
vt 0.452879369 0.390230805
vt 0.478618115 0.396127909
vt 0.461931825 0.401320457
vt 0.433491021 0.395158798
vt 0.437685937 0.44349882
vt 0.39805904 0.431988686
vt 0.392057002 0.38395375
vt 0.348961234 0.427814305
vt 0.349359393 0.387548
vt 0.383720577 0.370084435
vt 0.349518776 0.371334046
vt 0.39161399 0.333866745
vt 0.349943876 0.32816726
vt 0.409278393 0.33103174
vt 0.407524288 0.282985657
vt 0.386008441 0.276127011
vt 0.411067545 0.362479627
vt 0.348477453 0.476722598
vt 0.38917172 0.473846376
vt 0.348165601 0.508404672
vt 0.37999931 0.507471442
vt 0.41419208 0.479091257
vt 0.404007167 0.51278764
vt 0.432403177 0.501295686
vt 0.422089368 0.520422935
vt 0.461616158 0.509010613
vt 0.436552644 0.530889988
vt 0.462577909 0.468193263
vt 0.485219717 0.48465091
vt 0.47716248 0.436729789
vt 0.495970607 0.454438835
vt 0.488206506 0.415183544
vt 0.502120972 0.431068301
vt 0.50019002 0.406631261
vt 0.502049327 0.372513562
vt 0.433257908 0.321952164
vt 0.427893579 0.36010462
vt 0.440577954 0.288549632
vt 0.350481659 0.277075112
vt 0.308170974 0.333025008
vt 0.315351009 0.369399488
vt 0.290573776 0.329845876
vt 0.293306768 0.281850785
vt 0.314970106 0.27541554
vt 0.288162649 0.361253381
vt 0.306743026 0.383103579
vt 0.299791247 0.431012273
vt 0.265096694 0.393482625
vt 0.259945363 0.441732407
vt 0.307848394 0.473039836
vt 0.316350728 0.506835222
vt 0.28272897 0.477785468
vt 0.292240083 0.51167804
vt 0.264080435 0.499623418
vt 0.274011761 0.518952131
vt 0.23472032 0.506757021
vt 0.259344101 0.529129922
vt 0.234569192 0.465928257
vt 0.211605385 0.481933385
vt 0.236541182 0.399080276
vt 0.245810956 0.388171345
vt 0.219961092 0.393557668
vt 0.223280206 0.376390487
vt 0.22061187 0.434181213
vt 0.209997371 0.412419856
vt 0.201456368 0.451513708
vt 0.195771068 0.428025842
vt 0.197001979 0.369481355
vt 0.224619985 0.353025407
vt 0.188142762 0.327061862
vt 0.212633476 0.309992403
vt 0.198185727 0.4036313
vt 0.181659624 0.292171985
vt 0.207822829 0.278981954
vt 0.172954723 0.255948424
vt 0.204346523 0.257485002
vt 0.19616361 0.23508358
vt 0.160534874 0.231959447
vt 0.185324773 0.21920152
vt 0.143097356 0.213727593
vt 0.147476599 0.209313437
vt 0.158954948 0.202606425
vt 0.132569671 0.203010291
vt 0.140412986 0.187044933
vt 0.119466692 0.197228014
vt 0.113251299 0.174184158
vt 0.0984181836 0.172397181
vt 0.105525449 0.19854337
vt 0.0818604678 0.184496045
vt 0.0690024719 0.153065443
vt 0.0874872953 0.14012754
vt 0.0428027436 0.130000427
vt 0.0564426817 0.113688901
vt 0.0149263218 0.111361809
vt 0.0324314833 0.089993611
vt 0.0722727925 0.088951081
vt 0.0433564 0.0809205174
vt 0.0808868483 0.0567736663
vt 0.0404765829 0.0507709943
vt 0.0752937868 0.00889703631
vt 0.0331817195 0.0158785209
vt 0.0918580145 0.207686707
vt 0.0882710814 0.230627164
vt 0.106944241 0.209979922
vt 0.124878764 0.20723246
vt 0.266782403 0.320292145
vt 0.271387696 0.358544409
vt 0.260134995 0.286751211
vt 0.657673657 0.377781808
vt 0.675048232 0.363693148
vt 0.65796721 0.361191779
vt 0.646498084 0.38261205
vt 0.644359469 0.358936816
vt 0.627529263 0.382499844
vt 0.625053763 0.357890129
vt 0.60773021 0.383610368
vt 0.604501843 0.361754775
vt 0.589938641 0.365582883
vt 0.592899024 0.381535143
vt 0.573148787 0.369321585
vt 0.577407002 0.380484819
vt 0.643885136 0.342158347
vt 0.656797945 0.34437117
vt 0.675048232 0.363693148
vt 0.64258045 0.324736476
vt 0.657665431 0.325207382
vt 0.667861998 0.345649838
vt 0.675048232 0.363693148
vt 0.668457806 0.328510761
vt 0.588802934 0.349382997
vt 0.602824986 0.347249895
vt 0.576815784 0.350004107
vt 0.57864207 0.330221027
vt 0.589859188 0.329655677
vt 0.604558289 0.328145891
vt 0.625120282 0.323449612
vt 0.624643564 0.343258828
vt 0.561642945 0.346749634
vt 0.557193935 0.363481551
vt 0.537671268 0.357064098
vt 0.563225329 0.327381819
vt 0.546645522 0.34012872
vt 0.537671268 0.357064098
vt 0.548751056 0.322965324
vt 0.590818048 0.308605909
vt 0.604858696 0.306473553
vt 0.576886117 0.308569551
vt 0.576595187 0.287846088
vt 0.593595624 0.285829663
vt 0.602646708 0.284216404
vt 0.62194705 0.275101602
vt 0.62326169 0.301045895
vt 0.639937937 0.302088588
vt 0.661030829 0.304204106
vt 0.673501551 0.308665544
vt 0.638159037 0.272938073
vt 0.662841618 0.285411537
vt 0.680817187 0.289645135
vt 0.655903101 0.263172567
vt 0.666709125 0.269526511
vt 0.649221897 0.253220916
vt 0.641452909 0.255855739
vt 0.646947503 0.239037529
vt 0.642023921 0.240510061
vt 0.641058862 0.230384275
vt 0.627734065 0.22522755
vt 0.680236042 0.272348881
vt 0.693484247 0.278044522
vt 0.685227811 0.267329365
vt 0.659433663 0.245644644
vt 0.673536777 0.256807029
vt 0.650596261 0.225706115
vt 0.670768797 0.234702274
vt 0.680051744 0.242898211
vt 0.662831545 0.221432567
vt 0.687650084 0.257320732
vt 0.685227811 0.267329365
vt 0.690172732 0.24440743
vt 0.681573093 0.220987409
vt 0.662831545 0.221432567
vt 0.690172732 0.24440743
vt 0.69159627 0.232565179
vt 0.561479092 0.30517298
vt 0.548411369 0.301671922
vt 0.561154366 0.283926964
vt 0.543100536 0.281515449
vt 0.561767519 0.268401563
vt 0.574842155 0.277785391
vt 0.542317033 0.264122069
vt 0.543387294 0.254585236
vt 0.695275962 0.36032927
vt 0.692351937 0.385940671
vt 0.692351937 0.385940671
vt 0.675076842 0.399496853
vt 0.675076842 0.399496853
vt 0.656853497 0.40543139
vt 0.632615328 0.409638375
vt 0.612551451 0.405999303
vt 0.590584159 0.400221437
vt 0.574317336 0.394033372
vt 0.560459256 0.385948449
vt 0.535910726 0.376420587
vt 0.650596261 0.225706115
vt 0.641058862 0.230384275
vt 0.621457875 0.23244442
vt 0.657673657 0.377781808
vt 0.65796721 0.361191779
vt 0.675048232 0.363693148
vt 0.646498084 0.38261205
vt 0.644359469 0.358936816
vt 0.627529263 0.382499844
vt 0.625053763 0.357890129
vt 0.60773021 0.383610368
vt 0.604501843 0.361754775
vt 0.589938641 0.365582883
vt 0.592899024 0.381535143
vt 0.573148787 0.369321585
vt 0.577407002 0.380484819
vt 0.643885136 0.342158347
vt 0.656797945 0.34437117
vt 0.675048232 0.363693148
vt 0.64258045 0.324736476
vt 0.657665431 0.325207382
vt 0.667861998 0.345649838
vt 0.675048232 0.363693148
vt 0.668457806 0.328510761
vt 0.588802934 0.349382997
vt 0.602824986 0.347249895
vt 0.576815784 0.350004107
vt 0.57864207 0.330221027
vt 0.589859188 0.329655677
vt 0.604558289 0.328145891
vt 0.625120282 0.323449612
vt 0.624643564 0.343258828
vt 0.561642945 0.346749634
vt 0.557193935 0.363481551
vt 0.537671268 0.357064098
vt 0.563225329 0.327381819
vt 0.546645522 0.34012872
vt 0.537671268 0.357064098
vt 0.548751056 0.322965324
vt 0.590818048 0.308605909
vt 0.604858696 0.306473553
vt 0.576886117 0.308569551
vt 0.576595187 0.287846088
vt 0.593595624 0.285829663
vt 0.602646708 0.284216404
vt 0.62194705 0.275101602
vt 0.62326169 0.301045895
vt 0.639937937 0.302088588
vt 0.661030829 0.304204106
vt 0.673501551 0.308665544
vt 0.638159037 0.272938073
vt 0.662841618 0.285411537
vt 0.680817187 0.289645135
vt 0.574842155 0.277785391
vt 0.561767519 0.268401563
vt 0.655903101 0.263172567
vt 0.666709125 0.269526511
vt 0.649221897 0.253220916
vt 0.641452909 0.255855739
vt 0.646947503 0.239037529
vt 0.642023921 0.240510061
vt 0.641058862 0.230384275
vt 0.627734065 0.22522755
vt 0.680236042 0.272348881
vt 0.693484247 0.278044522
vt 0.685227811 0.267329365
vt 0.659433663 0.245644644
vt 0.673536777 0.256807029
vt 0.650596261 0.225706115
vt 0.687650084 0.257320732
vt 0.670768797 0.234702274
vt 0.680051744 0.242898211
vt 0.662831545 0.221432567
vt 0.690172732 0.24440743
vt 0.67790252 0.217675596
vt 0.687361181 0.227054566
vt 0.687361181 0.227054566
vt 0.621457875 0.23244442
vt 0.561479092 0.30517298
vt 0.548411369 0.301671922
vt 0.561154366 0.283926964
vt 0.543100536 0.281515449
vt 0.542317033 0.264122069
vt 0.543387294 0.254585236
vt 0.695275962 0.36032927
vt 0.692351937 0.385940671
vt 0.675076842 0.399496853
vt 0.656853497 0.40543139
vt 0.632615328 0.409638375
vt 0.612551451 0.405999303
vt 0.590584159 0.400221437
vt 0.574317336 0.394033372
vt 0.560459256 0.385948449
vt 0.535910726 0.376420587
vt 0.641058862 0.230384275
vt 0.650596261 0.225706115
vt 0.877825618 0.186634138
vt 0.878718853 0.107192315
vt 0.852609098 0.185847282
vt 0.913824916 0.0972006246
vt 0.861808717 0.217196196
vt 0.879332483 0.204086274
vt 0.969163001 0.297774792
vt 0.986640573 0.288611561
vt 0.922524214 0.302894235
vt 0.96547401 0.322773993
vt 0.817846775 0.220770076
vt 0.849630892 0.112927936
vt 0.867051661 0.0821150616
vt 0.88288641 0.0712319016
vt 0.852609098 0.185847282
vt 0.902760029 0.0793880895
vt 0.89430958 0.0702751949
vt 0.928830802 0.431217641
vt 0.959653676 0.426899791
vt 0.995507419 0.317656755
vt 0.952996671 0.535733104
vt 0.981971085 0.426877111
vt 0.995507419 0.317656755
vt 0.809432328 0.103565656
vt 0.835980952 0.0741104782
vt 0.809432328 0.103565656
vt 0.746156037 0.14860867
vt 0.878550112 0.561774731
vt 0.945499778 0.571861029
vt 0.707514882 0.779506385
vt 0.723728359 0.60376507
vt 0.768558621 0.447698951
vt 0.859876454 0.438243181
vt 0.831954837 0.297958255
vt 0.722756565 0.223512948
vt 0.852609098 0.185847282
vt 0.878718853 0.107192315
vt 0.876363099 0.0611235201
vt 0.231308445 0.811268806
vt 0.205441713 0.783283412
vt 0.208243802 0.802462935
vt 0.225225762 0.826889873
vt 0.200427786 0.818564415
vt 0.133336291 0.692224324
vt 0.117654964 0.711719155
vt 0.112509139 0.681176364
vt 0.10608869 0.700790763
vt 0.332027972 0.831551135
vt 0.335459709 0.81892246
vt 0.131655306 0.652856648
vt 0.0172801707 0.687646627
vt 0.0154379215 0.702036679
vt 0.10608869 0.700790763
vt 0.0125795547 0.71312207
vt 0.442018718 0.81693989
vt 0.340617388 0.793165505
vt 0.0278464314 0.62719208
vt 0.157432497 0.562245011
vt 0.22011514 0.677301764
vt 0.0820418671 0.581166804
vt 0.352031708 0.733059347
vt 0.372322232 0.628892064
vt 0.22011514 0.677301764
vt 0.531008363 0.59895438
vt 0.470163167 0.756553113
vt 0.47772783 0.813284099
vt 0.707423747 0.598111153
vt 0.707423747 0.598111153
vt 0.0820418671 0.581166804
vt 0.0278464314 0.62719208
vt 0.877825618 0.186634138
vt 0.878718853 0.107192315
vt 0.913824916 0.0972006246
vt 0.852609098 0.185847282
vt 0.861808717 0.217196196
vt 0.879332483 0.204086274
vt 0.969163001 0.297774792
vt 0.986640573 0.288611561
vt 0.922524214 0.302894235
vt 0.96547401 0.322773993
vt 0.817846775 0.220770076
vt 0.849630892 0.112927936
vt 0.867051661 0.0821150616
vt 0.88288641 0.0712319016
vt 0.852609098 0.185847282
vt 0.902760029 0.0793880895
vt 0.89430958 0.0702751949
vt 0.928830802 0.431217641
vt 0.959653676 0.426899791
vt 0.995507419 0.317656755
vt 0.952996671 0.535733104
vt 0.981971085 0.426877111
vt 0.995507419 0.317656755
vt 0.809432328 0.103565656
vt 0.835980952 0.0741104782
vt 0.809432328 0.103565656
vt 0.746156037 0.14860867
vt 0.878550112 0.561774731
vt 0.945499778 0.571861029
vt 0.707514882 0.779506385
vt 0.723728359 0.60376507
vt 0.768558621 0.447698951
vt 0.859876454 0.438243181
vt 0.831954837 0.297958255
vt 0.722756565 0.223512948
vt 0.878718853 0.107192315
vt 0.852609098 0.185847282
vt 0.876363099 0.0611235201
vt 0.231308445 0.811268806
vt 0.208243802 0.802462935
vt 0.205441713 0.783283412
vt 0.225225762 0.826889873
vt 0.200427786 0.818564415
vt 0.133336291 0.692224324
vt 0.117654964 0.711719155
vt 0.112509139 0.681176364
vt 0.10608869 0.700790763
vt 0.332027972 0.831551135
vt 0.335459709 0.81892246
vt 0.131655306 0.652856648
vt 0.0172801707 0.687646627
vt 0.0154379215 0.702036679
vt 0.10608869 0.700790763
vt 0.0125795547 0.71312207
vt 0.442018718 0.81693989
vt 0.340617388 0.793165505
vt 0.0278464314 0.62719208
vt 0.157432497 0.562245011
vt 0.22011514 0.677301764
vt 0.0820418671 0.581166804
vt 0.352031708 0.733059347
vt 0.372322232 0.628892064
vt 0.22011514 0.677301764
vt 0.531008363 0.59895438
vt 0.470163167 0.756553113
vt 0.47772783 0.813284099
vt 0.707423747 0.598111153
vt 0.707423747 0.598111153
vt 0.0278464314 0.62719208
vt 0.0820418671 0.581166804
vn 0.187210739 0.974852204 -0.120894209
vn 0.0726994351 0.996874452 0.0309194289
vn 0.449103266 0.875879884 -0.176467448
vn 0.0432809815 0.997688174 0.0523931831
vn 0.447108507 0.83186233 -0.328784257
vn 0.639793515 0.709379613 -0.295710891
vn 0.678895593 0.608152509 -0.4114016
vn 0.572483599 0.74245739 -0.347878575
vn 0.50977546 0.854836345 -0.0968706012
vn 0.109747089 0.983622253 -0.142978296
vn 0.899306417 0.22851716 -0.372864366
vn -0.36121887 0.925881028 -0.11074847
vn -0.165840283 0.984150529 -0.0628070682
vn -0.689585388 0.671278775 -0.271766335
vn -0.725635886 0.615402341 -0.307786405
vn -0.365653276 0.91813314 -0.152739361
vn -0.614613473 0.637277126 -0.464895815
vn -0.712116241 0.428779244 -0.555912673
vn -0.908516109 0.113125816 -0.402245015
vn -0.89735961 0.201880187 -0.392415941
vn -0.706315339 0.597096622 -0.38025555
vn -0.820968509 -0.261824697 -0.507403612
vn -0.845791221 -0.324264854 -0.423662156
vn -0.635716379 -0.340848804 -0.692594171
vn -0.641184747 -0.661546886 -0.388893127
vn -0.364406973 -0.43326354 -0.824312031
vn -0.191382006 -0.707125068 -0.680695951
vn 0.0281721707 -0.352478802 -0.935395718
vn 0.16244933 -0.624749303 -0.763739884
vn 0.313331544 -0.498949319 -0.808005512
vn 0.352621168 -0.290714324 -0.889462471
vn 0.281329334 -0.654629946 -0.701650441
vn 0.539400578 -0.336981893 -0.771680176
vn 0.538664579 -0.501861215 -0.676739097
vn 0.748463333 -0.31148234 -0.585475326
vn 0.766173542 0.373529196 -0.522928357
vn 0.881902754 0.222276002 -0.415741324
vn 0.572483599 0.74245739 -0.347878575
vn 0.678895593 0.608152509 -0.4114016
vn 0.526525855 -0.753726482 -0.393277109
vn 0.312096775 -0.887230396 -0.339732111
vn 0.899306417 0.22851716 -0.372864366
vn 0.899306417 0.22851716 -0.372864366
vn -0.38430196 -0.787203252 -0.482310027
vn -0.191382006 -0.707125068 -0.680695951
vn -0.892799914 -0.121982999 -0.433622539
vn 0.323135316 -0.864401281 -0.385219514
vn 0.639281273 -0.752479553 -0.158411041
vn -0.217778832 -0.77825886 -0.588969946
vn -0.881192386 -0.0865575299 -0.464766294
vn -0.782264233 0.61422497 -0.103876621
vn -0.367994428 0.92525816 0.0920731649
vn 0.0496012047 0.966663718 0.251199216
vn 0.515437484 0.841250181 0.163163304
vn 0.996036947 -0.0343018994 0.0820593312
vn 0.899306417 0.22851716 -0.372864366
vn 0.572406769 0.768454134 0.286057204
vn 0.226777032 0.962719262 0.147457808
vn 0.992616057 0.10453169 0.061534781
vn -0.325833291 0.902543366 0.281510592
vn -0.76716888 0.635534465 0.0868790969
vn -0.977033436 -0.183105797 -0.108985417
vn 0.74030751 0.638059497 -0.211718619
vn 0.397101611 0.908877254 -0.127485469
vn -0.346114457 0.923597753 0.164839536
vn -0.866068065 0.459089249 0.197896764
vn 0.956043839 0.175289243 -0.235061243
vn 0.679938614 -0.717887998 -0.149399698
vn 0.615757942 -0.683277249 -0.392395556
vn 0.639281273 -0.752479553 -0.158411041
vn 0.796203077 0.455161273 -0.398608714
vn 0.576615155 0.816236436 -0.0356802158
vn 0.83646661 -0.0251852404 -0.54743892
vn 0.557642043 -0.631001353 -0.539326251
vn 0.263361216 -0.855957091 -0.44494769
vn 0.239822969 -0.910768211 -0.336134255
vn -0.21311 0.958616674 0.188780904
vn -0.87039566 0.491243124 0.0330399722
vn 0.956348479 0.254875809 -0.142953873
vn 0.716511726 0.671989977 0.187191203
vn -0.0314465724 -0.927954376 -0.371364772
vn 0.805199683 -0.45911178 -0.375326395
vn 0.986743689 0.130661115 -0.0962519944
vn 0.70506531 0.70729351 -0.0511740223
vn 0.41587016 -0.888485849 -0.194022819
vn 0.836057425 -0.548165739 -0.0228512455
vn -0.244469598 0.965758443 -0.0868628696
vn -0.8495242 0.508973718 -0.138760313
vn -0.950920284 -0.160841689 -0.264349401
vn -0.894012213 0.388336927 0.223464906
vn -0.981067419 -0.193549097 0.00674947584
vn -0.36600256 -0.813347101 -0.4522264
vn -0.0314465724 -0.927954376 -0.371364772
vn -0.281817406 -0.949194074 -0.140034154
vn 0.263361216 -0.855957091 -0.44494769
vn -0.423640221 -0.881962597 -0.206569806
vn 0.141979858 -0.952555895 -0.269219548
vn 0.317505538 -0.904703498 -0.284080803
vn 0.239822969 -0.910768211 -0.336134255
vn 0.679938614 -0.717887998 -0.149399698
vn 0.996036947 -0.0343018994 0.0820593312
vn 0.899306417 0.22851716 -0.372864366
vn 0.899306417 0.22851716 -0.372864366
vn -0.348442495 0.871806443 -0.344298154
vn -0.970487297 -0.00948201213 -0.240965441
vn -0.457394332 -0.851564765 -0.256179422
vn -0.93828547 -0.182253852 -0.293945402
vn -0.649443269 -0.759469569 -0.0378074013
vn -0.824284136 0.417946428 -0.381937802
vn -0.0942610651 0.724912584 -0.682361066
vn -0.201868266 0.387442708 -0.899520576
vn -0.201868266 0.387442708 -0.899520576
vn -0.0942610651 0.724912584 -0.682361066
vn 0.914342105 0.358105421 -0.189047575
vn 0.914342105 0.358105421 -0.189047575
vn 0.914342105 0.358105421 -0.189047575
vn 0.41587016 -0.888485849 -0.194022819
vn -0.0314465724 -0.927954376 -0.371364772
vn 0.748463333 -0.31148234 -0.585475326
vn 0.673206091 -0.0304461978 -0.738827825
vn 0.831330419 0.103944324 -0.54597187
vn 0.539400578 -0.336981893 -0.771680176
vn 0.881902754 0.222276002 -0.415741324
vn 0.896877766 0.107682131 -0.428969383
vn 0.389954746 -0.420901299 -0.81900996
vn 0.352621168 -0.290714324 -0.889462471
vn 2.13740066E-07 -0.65398705 -0.756505787
vn 0.0281721707 -0.352478802 -0.935395718
vn 0.924115956 0.131979465 -0.358596057
vn 0.917963862 0.145812973 -0.368891656
vn 0.99627775 -0.0685559586 0.0522557981
vn 0.997168005 0.0734209195 -0.0162886716
vn 0.961120546 0.0118225766 0.275876224
vn 0.965941608 0.25781557 0.0220872536
vn 0.999278486 0.032894168 0.018984843
vn 0.945280075 -0.0366424583 0.324195951
vn 0.893661857 0.42583245 -0.141545966
vn 0.927752554 0.213320673 -0.306217998
vn 0.986442804 -0.00778144179 -0.163921118
vn 0.940413177 -0.127783522 -0.315110177
vn 0.903041124 -0.424277157 -0.0671245828
vn 0.920885563 0.31583342 -0.228515089
vn 0.946511447 -0.0129442215 -0.322410673
vn 0.775861681 -0.329990447 -0.537721992
vn 0.577458322 -0.697199166 -0.424800307
vn 0.757685125 -0.65192771 0.0300571453
vn 0.955022275 -0.248758435 0.161405414
vn 0.951146483 -0.113133654 0.287265092
vn 0.981307924 0.0924817622 0.168765664
vn 0.985893846 0.154837534 -0.0635496825
vn 0.922821701 0.350679159 0.159449548
vn 0.928996384 -0.0912107751 -0.358673155
vn 0.922856629 0.318522602 -0.216515794
vn 0.785206199 -0.364808828 -0.500365734
vn 0.947521091 0.191417679 -0.256052941
vn 0.944832683 -0.281670153 -0.167191893
vn 0.781104445 0.529552341 -0.330832362
vn 0.956881404 -0.177487731 0.229948103
vn 0.945616245 0.286446393 -0.154137582
vn 0.279500186 0.884107113 -0.374478787
vn 0.574239254 0.720485747 -0.3887797
vn 0.195829213 0.925190389 -0.325074852
vn 0.118683524 0.983133376 -0.139150754
vn -2.43420573E-07 0.955550969 -0.29482609
vn -2.60886111E-07 0.994862497 -0.10123571
vn 0.0681593418 0.982418835 0.173803553
vn -2.85565022E-07 0.977952003 0.20882979
vn 0.0130375791 0.805767238 0.592088819
vn -2.39961679E-07 0.751176357 0.660101593
vn 0.0352978595 0.84797442 0.528860569
vn -0.0167142786 0.69253844 0.721187294
vn 0.00859038625 0.620559394 0.784112453
vn 0.0746154487 0.976451635 0.202422187
vn 0.000147975574 0.964501917 -0.264075637
vn 0.154496878 0.947164059 -0.281088769
vn 0.0432809815 0.997688174 0.0523931831
vn 0.187210739 0.974852204 -0.120894209
vn 0.482384503 0.834349632 -0.26676932
vn 0.447108507 0.83186233 -0.328784257
vn 0.799901605 0.506173253 -0.32240665
vn 0.678895593 0.608152509 -0.4114016
vn 0.896877766 0.107682131 -0.428969383
vn 0.881902754 0.222276002 -0.415741324
vn 0.85804981 0.37325418 -0.35274896
vn 0.917963862 0.145812973 -0.368891656
vn 0.962559164 0.220206842 -0.158078015
vn 0.997168005 0.0734209195 -0.0162886716
vn 0.934773326 -0.150600627 0.321742475
vn 0.945280075 -0.0366424583 0.324195951
vn 0.920885563 0.31583342 -0.228515089
vn 0.947521091 0.191417679 -0.256052941
vn 0.0527712703 0.832689643 0.551219583
vn 0.153272808 0.93244487 0.327191055
vn -0.0183000714 0.730576813 0.68258518
vn -2.0244471E-07 0.597054005 0.802201033
vn 0.00240886817 0.8092888 0.58740592
vn -0.0680696443 0.982405245 0.173914805
vn -0.0219156519 0.85645628 0.515754223
vn 0.0522632301 0.713628113 0.698572397
vn 0.0100830588 0.626901865 0.779032946
vn -0.0744695738 0.976426065 0.202599436
vn -0.118436448 0.983181655 -0.139020294
vn -0.195637017 0.925191939 -0.325186193
vn -0.280662954 0.883931398 -0.374023706
vn -0.576245844 0.719621539 -0.387408853
vn -0.154610395 0.947205365 -0.280887246
vn -0.165840283 0.984150529 -0.0628070682
vn -0.482584476 0.834265769 -0.266670197
vn -0.348442495 0.871806443 -0.344298154
vn -0.799901962 0.506172895 -0.322406173
vn -0.706315339 0.597096622 -0.38025555
vn -0.896878064 0.107681535 -0.428969085
vn -0.89735961 0.201880187 -0.392415941
vn -0.859678149 0.372351497 -0.349725336
vn -0.919465959 0.145369247 -0.365308404
vn -0.946260512 0.28501603 -0.152829468
vn -0.782735467 0.527697086 -0.329941005
vn -0.975741982 -0.125243306 0.179559678
vn -0.964961946 -0.192357257 -0.178457856
vn -0.963453114 0.218693867 -0.154697001
vn -0.966729999 -0.109332889 0.231256068
vn -0.99727577 0.072753787 -0.0121630039
vn -0.975222647 -0.0137824025 0.220795527
vn -0.951059282 -0.239161864 -0.195672914
vn -0.821427345 -0.297209024 -0.486748308
vn -0.906413138 -0.165426001 -0.388650775
vn -0.935939014 -0.0644665137 -0.346211016
vn -0.949964881 -0.119295537 0.288678616
vn -0.983798862 0.140590981 -0.111238457
vn -0.985891759 0.154829919 -0.0636005625
vn -0.986785471 -0.110393204 0.118608013
vn -0.981315553 0.0924896747 0.168717325
vn -0.963681579 -0.208491564 0.166880414
vn -0.867616653 -0.474736631 -0.147873223
vn -0.938747168 -0.340105593 -0.0555158965
vn -0.739674985 -0.483019233 -0.468586564
vn -0.920480549 -0.168263391 -0.352708042
vn -0.977957547 0.0504556783 -0.202615932
vn -0.930036664 0.101582289 -0.353147209
vn -0.884484529 0.438650399 -0.158974692
vn -0.983381927 0.167524427 -0.0699675158
vn -0.999201953 0.0341586806 0.0207055807
vn -0.996119857 -0.0671949312 0.0568334237
vn -0.982718706 -0.0124031724 0.184689283
vn -0.99727577 0.072753787 -0.0121630039
vn -0.919465959 0.145369247 -0.365308404
vn -0.925329089 0.132462323 -0.355274379
vn -0.896878064 0.107681535 -0.428969085
vn -0.831330776 0.103943586 -0.545971513
vn -0.89735961 0.201880187 -0.392415941
vn -0.820968509 -0.261824697 -0.507403612
vn -0.673206329 -0.0304467604 -0.738827586
vn -0.635716379 -0.340848804 -0.692594171
vn -0.389954478 -0.420901716 -0.8190099
vn -0.364406973 -0.43326354 -0.824312031
vn 2.13740066E-07 -0.65398705 -0.756505787
vn 0.0281721707 -0.352478802 -0.935395718
vn -0.975222647 -0.0137824025 0.220795527
vn -0.949964881 -0.119295537 0.288678616
vn -0.970175982 0.0120990798 0.242099449
vn -0.93120569 -0.128544107 -0.34107554
vn -0.0511046015 0.84775418 0.527921498
vn -0.153273493 0.932444811 0.327190965
vn 0.0210802387 0.760829449 0.648609459
vn 0.422122329 0.865292251 0.270336717
vn -0.0862134323 0.906350851 -0.413636744
vn 0.0932972655 0.926489592 0.364571989
vn 0.690250099 0.516723394 0.506509423
vn 0.607630074 0.575719774 0.547112763
vn 0.85374099 -0.198754027 0.481272429
vn 0.930333614 -0.144897416 0.336873978
vn 0.555582404 -0.820798695 0.132731125
vn 0.617268026 -0.783482909 -0.0716571584
vn 0.00912388228 -0.858126879 -0.513356626
vn 0.144091979 -0.943170011 -0.299445927
vn -0.368394345 -0.296802938 -0.881018519
vn -0.115263611 -0.756692171 -0.64353025
vn 0.550100744 0.525361955 0.649141073
vn -0.0855693221 0.881036758 0.465244234
vn -0.0862134323 0.906350851 -0.413636744
vn 0.573085725 0.421400219 0.702847481
vn -0.203071907 0.804699063 0.557872057
vn -0.676344991 0.734094024 -0.0605251566
vn -0.0862134323 0.906350851 -0.413636744
vn -0.785739899 0.60998112 0.102644272
vn -0.135785729 -0.786658287 -0.602271378
vn 0.619140327 -0.761155903 -0.193150207
vn -0.697799027 -0.257200688 -0.668523967
vn -0.770839036 -0.291533142 -0.566405773
vn -0.137016013 -0.743911326 -0.654081523
vn 0.685539484 -0.69611001 -0.213228583
vn 0.917578101 -0.238642111 0.317962766
vn 0.919429302 -0.170921639 0.354169071
vn -0.845555723 0.221392944 -0.485819608
vn -0.406102091 0.367515177 -0.836668134
vn -0.0862134323 0.906350851 -0.413636744
vn -0.939011991 0.170561701 -0.298605323
vn -0.676344991 0.734094024 -0.0605251566
vn -0.0862134323 0.906350851 -0.413636744
vn -0.785739899 0.60998112 0.102644272
vn -0.0430935994 -0.724954665 -0.687447131
vn 0.697594345 -0.639572203 -0.322970033
vn -0.792739153 -0.275582522 -0.543708503
vn -0.894922972 -0.233060688 -0.380519956
vn 0.12124072 -0.746332049 -0.654438019
vn 0.687041521 -0.661773562 -0.300049424
vn 0.932642579 -0.35843578 0.0412508696
vn 0.92018652 -0.369307637 0.129879206
vn 0.697951734 0.203268513 0.686691523
vn -0.244217113 0.686120391 0.685271382
vn -0.836568415 0.510200679 0.199620724
vn 0.909231722 0.139402732 0.392255843
vn -0.147176266 0.515484869 0.844164968
vn -0.845753551 0.407208502 0.344793171
vn 0.617197096 0.389538497 0.683613539
vn -0.111132599 0.428700626 0.896585286
vn 0.853054762 0.476950258 -0.211697653
vn 0.886082411 0.409722567 -0.216760889
vn 0.164226234 0.201146677 -0.965696514
vn 0.114130132 0.756020665 -0.644520819
vn -0.683014631 0.578389525 -0.446045607
vn -0.846432209 0.493967116 0.198869184
vn -0.754396439 0.457259834 0.470955908
vn -0.846432209 0.493967116 0.198869184
vn -0.683014631 0.578389525 -0.446045607
vn 0.947059929 0.0719966888 -0.312880099
vn -0.178810894 0.549775422 0.8159495
vn -0.782406569 0.113549307 -0.612328768
vn 0.948885202 0.145483926 -0.280091912
vn -0.182547972 0.605742753 0.774436593
vn -0.793434739 0.112471625 -0.59817338
vn -0.782406569 0.113549307 -0.612328768
vn -0.683014631 0.578389525 -0.446045607
vn -0.793434739 0.112471625 -0.59817338
vn 0.074329108 0.858960032 -0.506619036
vn -0.793434739 0.112471625 -0.59817338
vn -0.793434739 0.112471625 -0.59817338
vn 0.074329108 0.858960032 -0.506619036
vn -0.966096699 0.182806566 -0.182315156
vn -0.836568415 0.510200679 0.199620724
vn -0.992826223 0.118820444 -0.0133364145
vn -0.845753551 0.407208502 0.344793171
vn -0.994086266 0.100620605 0.0408396274
vn -0.990594149 -0.018737901 -0.135543361
vn -0.846432209 0.493967116 0.198869184
vn -0.702859461 0.606611371 0.371498555
vn 0.920885563 0.31583342 -0.228515089
vn 0.947521091 0.191417679 -0.256052941
vn 0.947521091 0.191417679 -0.256052941
vn 0.922856629 0.318522602 -0.216515794
vn 0.922856629 0.318522602 -0.216515794
vn 0.922821701 0.350679159 0.159449548
vn 0.951146483 -0.113133654 0.287265092
vn 0.757685125 -0.65192771 0.0300571453
vn 0.577458322 -0.697199166 -0.424800307
vn 0.775861681 -0.329990447 -0.537721992
vn 0.946511447 -0.0129442215 -0.322410673
vn 0.920885563 0.31583342 -0.228515089
vn -0.782406569 0.113549307 -0.612328768
vn -0.683014631 0.578389525 -0.446045607
vn -0.702859461 0.606611371 0.371498555
vn -0.42823866 0.853368342 0.297277927
vn -0.0726730227 0.907774806 0.413114369
vn 0.0816291198 0.913734198 -0.398028105
vn -0.696232855 0.509448707 0.505689502
vn -0.589430332 0.561994731 0.580287635
vn -0.853481114 -0.20525223 0.479000568
vn -0.920932889 -0.151545957 0.359049261
vn -0.55187571 -0.82601428 0.114601828
vn -0.594028831 -0.802653968 -0.0536325462
vn 0.0253238324 -0.88267678 -0.469297886
vn -0.160172433 -0.947266579 -0.27754426
vn 0.377505362 -0.341697454 -0.860658169
vn 0.0631572306 -0.800689816 -0.595740676
vn -0.554185688 0.530511498 0.641432524
vn 0.0829428211 0.8844558 0.45919314
vn 0.0816291198 0.913734198 -0.398028105
vn -0.58173573 0.428383887 0.691426516
vn 0.199383393 0.812603891 0.547650695
vn 0.672482312 0.737150669 -0.0661547482
vn 0.0816291198 0.913734198 -0.398028105
vn 0.783668458 0.614529431 0.0906502232
vn 0.133948848 -0.783448339 -0.606849551
vn -0.620966673 -0.758321464 -0.198365942
vn 0.694841743 -0.254967213 -0.672448277
vn 0.76735425 -0.283162743 -0.575314105
vn 0.133448899 -0.734863698 -0.664956212
vn -0.690073192 -0.688651204 -0.222617209
vn -0.921218455 -0.234561786 0.310382336
vn -0.921472967 -0.168014169 0.35022679
vn 0.842216134 0.223755598 -0.49051559
vn 0.410613149 0.366282076 -0.835005581
vn 0.0816291198 0.913734198 -0.398028105
vn 0.935387373 0.17471236 -0.30745095
vn 0.672482312 0.737150669 -0.0661547482
vn 0.0816291198 0.913734198 -0.398028105
vn 0.783668458 0.614529431 0.0906502232
vn 0.047917217 -0.722463846 -0.689746261
vn -0.696694374 -0.641660631 -0.320762515
vn 0.792384684 -0.272104889 -0.545972109
vn 0.797025204 -0.388082266 -0.462755799
vn -0.0461439155 -0.75433749 -0.654863
vn -0.688074589 -0.660198152 -0.30115059
vn -0.929386377 -0.368425459 0.0224417821
vn -0.917299032 -0.376731277 0.12898013
vn -0.696198761 0.204175308 0.688200295
vn 0.239395097 0.68047297 0.692565203
vn 0.84399718 0.492768168 0.211773932
vn -0.921573818 0.10982462 0.372344196
vn 0.16371341 0.500203013 0.850291073
vn 0.868435621 0.386205405 0.310909808
vn 0.908784211 -0.27605328 -0.312899232
vn 0.994901776 0.100634098 -0.00656783301
vn -0.622159362 0.363683045 0.693290949
vn 0.103795715 0.410021663 0.90615046
vn -0.861396551 0.454102129 -0.227567822
vn -0.885573566 0.389539778 -0.25301829
vn -0.165742129 0.192488715 -0.967200935
vn -0.116298467 0.721344233 -0.682742357
vn 0.679144263 0.560700417 -0.473685801
vn 0.852789938 0.498533487 0.155607745
vn 0.765066743 0.460098475 0.450535566
vn 0.852789938 0.498533487 0.155607745
vn 0.679144263 0.560700417 -0.473685801
vn -0.946449935 0.0761195421 -0.313748807
vn 0.17726329 0.551141441 0.815365374
vn 0.78243953 0.116073765 -0.611813009
vn 0.78243953 0.116073765 -0.611813009
vn -0.948655844 0.149956927 -0.278504819
vn 0.181503266 0.612572074 0.769293249
vn 0.793779373 0.11574845 -0.597090125
vn 0.793779373 0.11574845 -0.597090125
vn -0.0732979923 0.848504364 -0.524087369
vn -0.0732979923 0.848504364 -0.524087369
vn -0.0732979923 0.848504364 -0.524087369
vn 0.702859104 0.606612384 0.371497661
vn 0.968542635 0.17049174 -0.181267157
vn 0.84399718 0.492768168 0.211773932
vn 0.993280232 0.110853478 -0.0332545079
vn 0.868435621 0.386205405 0.310909808
vn 0.852789938 0.498533487 0.155607745
vn 0.702859104 0.606612384 0.371497661
vn 0.0326140597 0.59717226 -0.801449776
vn -0.303665251 0.921909451 -0.240562707
vn -0.53564626 0.834794044 0.127287373
vn -0.717158794 0.555702627 0.420568347
vn -0.867109656 -0.0906262472 0.489803761
vn -0.622596979 -0.758776367 0.191393644
vn -0.216035247 -0.942756116 -0.254046649
vn -0.0259912163 -0.72436136 -0.688930392
vn 0.0951066241 -0.0913176611 -0.991269827
vn 0.0326140597 0.59717226 -0.801449776
vn 0.679144263 0.560700417 -0.473685801
vn 0.78243953 0.116073765 -0.611813009
vn -0.0577300638 -0.313029528 0.947987199
vn -0.363690645 0.416695029 0.833123267
vn -0.354477733 0.701951683 0.617745399
vn 0.042276632 -0.171241552 0.984321594
vn -0.62902683 0.579772174 0.517870069
vn -0.550622642 -0.417230636 0.72300297
vn -0.485553622 0.298728853 0.821583092
vn -0.230742693 -0.469682574 0.852147937
vn -0.434323728 0.869839251 0.233971432
vn -0.0943684131 0.578677893 0.810078025
vn -0.346761137 0.937485814 0.0296168849
vn -0.59426868 0.787263751 0.164500684
vn -0.883215427 0.337946862 0.325149715
vn -0.764482439 0.148041978 0.627415359
vn -0.354477733 0.701951683 0.617745399
vn 0.042276632 -0.171241552 0.984321594
vn -0.335781008 0.0248519555 0.941612184
vn -0.197876126 0.945684254 0.257926822
vn 0.120345652 0.695756197 0.708124459
vn 0.376168877 -0.369743705 0.849580228
vn 0.84990412 -0.105552569 0.516257465
vn 0.531951785 -0.200590402 0.822672963
vn 0.376168877 -0.369743705 0.849580228
vn -0.71985364 0.480710149 -0.500727952
vn -0.902651668 0.418282479 0.101290554
vn -0.71985364 0.480710149 -0.500727952
vn -0.16327095 -0.0393909477 -0.985794544
vn -0.0739677325 0.940143406 0.332654864
vn 0.584048152 -0.384026349 0.715130389
vn 0.768889308 0.204677239 -0.605736256
vn -0.210004598 0.297568768 -0.931316793
vn -0.361252129 0.0423455462 -0.931506157
vn -0.369008482 0.923686564 0.103130758
vn 0.191535383 0.36563468 -0.91083777
vn 0.239366084 0.270420134 -0.932511032
vn -0.354477733 0.701951683 0.617745399
vn -0.363690645 0.416695029 0.833123267
vn -0.991107166 0.0416657701 0.12637502
vn 0.455596387 -0.875029504 0.16357021
vn 0.487127125 -0.794657588 -0.362251997
vn 0.10489279 -0.969518125 0.221431971
vn 0.376168877 -0.369743705 0.849580228
vn -0.230742693 -0.469682574 0.852147937
vn 0.198724911 -0.980029643 -0.00708445814
vn -0.550622642 -0.417230636 0.72300297
vn 0.297738433 -0.953555286 0.045651529
vn -0.0577300638 -0.313029528 0.947987199
vn 0.531951785 -0.200590402 0.822672963
vn 0.524614453 -0.836633086 0.157558411
vn 0.450103462 -0.826741576 -0.337498486
vn 0.348954141 -0.83922106 -0.417059779
vn 0.572004795 -0.78545624 0.236366212
vn -0.0577300638 -0.313029528 0.947987199
vn 0.042276632 -0.171241552 0.984321594
vn 0.84990412 -0.105552569 0.516257465
vn 0.34554702 -0.89745599 -0.274171621
vn -0.71985364 0.480710149 -0.500727952
vn 0.239366084 0.270420134 -0.932511032
vn 0.191535383 0.36563468 -0.91083777
vn -0.16327095 -0.0393909477 -0.985794544
vn 0.322260767 -0.904128671 -0.28053391
vn -0.361252129 0.0423455462 -0.931506157
vn 0.191535383 0.36563468 -0.91083777
vn -0.210004598 0.297568768 -0.931316793
vn 0.146753803 -0.931291878 -0.333404779
vn 0.584048152 -0.384026349 0.715130389
vn 0.768889308 0.204677239 -0.605736256
vn 0.768889308 0.204677239 -0.605736256
vn -0.16327095 -0.0393909477 -0.985794544
vn -0.71985364 0.480710149 -0.500727952
vn 0.0564528108 -0.31446594 0.947588623
vn 0.366151631 0.408601314 0.83604902
vn -0.04131037 -0.171562567 0.984306812
vn 0.352414548 0.703094304 0.617626429
vn 0.622447848 0.593048036 0.5107373
vn 0.551846325 -0.412242472 0.724928737
vn 0.481853485 0.309076309 0.819932342
vn 0.228521451 -0.468492925 0.853400469
vn 0.427419066 0.873279512 0.233871073
vn 0.0806785449 0.576790452 0.812898397
vn 0.34613809 0.937755346 0.0283439532
vn 0.587354004 0.793882668 0.157371148
vn 0.885371685 0.336465061 0.320793003
vn 0.772813439 0.144969478 0.617853642
vn 0.352414548 0.703094304 0.617626429
vn -0.04131037 -0.171562567 0.984306812
vn 0.335779577 0.0248530954 0.941612601
vn 0.201348975 0.946686149 0.251483113
vn -0.118615441 0.696306407 0.70787549
vn -0.382373899 -0.361790419 0.850234032
vn -0.861106455 -0.097618863 0.498965234
vn -0.534450829 -0.198406518 0.821582019
vn -0.382373899 -0.361790419 0.850234032
vn 0.711093962 0.478705168 -0.514962792
vn 0.905887008 0.412617892 0.0954733118
vn 0.711093962 0.478705168 -0.514962792
vn 0.147481397 -0.0333904885 -0.988501072
vn 0.0765599608 0.9403193 0.331569195
vn -0.580884516 -0.385385126 0.716973901
vn -0.76887548 0.204731777 -0.605735481
vn 0.215115368 0.296863139 -0.93037498
vn 0.356492072 0.0463249348 -0.933149159
vn 0.370117068 0.923841953 0.0976180434
vn -0.208537027 0.371807158 -0.904583812
vn -0.23860167 0.270384073 -0.932717443
vn 0.366151631 0.408601314 0.83604902
vn 0.352414548 0.703094304 0.617626429
vn 0.992376804 0.0341655314 0.118410558
vn -0.462631732 -0.869358957 0.173744082
vn -0.116530366 -0.967536271 0.224263996
vn -0.481426656 -0.802237391 -0.35304904
vn -0.382373899 -0.361790419 0.850234032
vn 0.228521451 -0.468492925 0.853400469
vn -0.193021238 -0.981183887 -0.00458318507
vn 0.551846325 -0.412242472 0.724928737
vn -0.302119523 -0.952491403 0.0385204032
vn 0.0564528108 -0.31446594 0.947588623
vn -0.534450829 -0.198406518 0.821582019
vn -0.524051189 -0.835643351 0.164531484
vn -0.450750321 -0.826702416 -0.336730212
vn -0.351222813 -0.837642729 -0.418326765
vn -0.571304083 -0.78811872 0.229086146
vn 0.0564528108 -0.31446594 0.947588623
vn -0.04131037 -0.171562567 0.984306812
vn -0.861106455 -0.097618863 0.498965234
vn -0.340688467 -0.897597969 -0.279730797
vn 0.711093962 0.478705168 -0.514962792
vn -0.23860167 0.270384073 -0.932717443
vn -0.208537027 0.371807158 -0.904583812
vn 0.147481397 -0.0333904885 -0.988501072
vn -0.317342818 -0.902630568 -0.290777534
vn 0.356492072 0.0463249348 -0.933149159
vn -0.208537027 0.371807158 -0.904583812
vn 0.215115368 0.296863139 -0.93037498
vn -0.143578187 -0.931065083 -0.335414857
vn -0.580884516 -0.385385126 0.716973901
vn -0.76887548 0.204731777 -0.605735481
vn -0.76887548 0.204731777 -0.605735481
vn 0.711093962 0.478705168 -0.514962792
vn 0.147481397 -0.0333904885 -0.988501072
g polySurface010_0
f 3/3/3 2/2/2 1/1/1
f 2/2/2 4/4/4 1/1/1
f 1/1/1 5/5/5 3/3/3
f 5/5/5 6/6/6 3/3/3
f 6/6/6 5/5/5 7/7/7
f 8/8/8 6/6/6 7/7/7
f 3/3/3 9/9/9 2/2/2
f 6/6/6 9/9/9 3/3/3
f 9/9/9 10/10/10 2/2/2
f 8/8/8 11/11/11 6/6/6
f 11/11/11 9/9/9 6/6/6
f 2/2/2 10/10/10 12/12/12
f 12/12/12 13/13/13 2/2/2
f 4/4/4 2/2/2 13/13/13
f 12/12/12 14/14/14 13/13/13
f 14/14/14 15/15/15 13/13/13
f 12/12/12 16/16/16 14/14/14
f 10/10/10 16/16/16 12/12/12
f 16/16/16 17/17/17 14/14/14
f 14/14/14 18/18/18 15/15/15
f 17/17/17 18/18/18 14/14/14
f 15/15/15 18/18/18 19/19/19
f 19/19/19 20/20/20 15/15/15
f 20/20/20 21/21/21 15/15/15
f 22/22/22 20/20/20 19/19/19
f 23/23/23 22/22/22 19/19/19
f 24/24/24 22/22/22 23/23/23
f 25/25/25 24/24/24 23/23/23
f 26/26/26 24/24/24 25/25/25
f 27/27/27 26/26/26 25/25/25
f 28/28/28 26/26/26 27/27/27
f 29/29/29 28/28/28 27/27/27
f 28/28/28 29/29/29 30/30/30
f 31/31/31 28/28/28 30/30/30
f 30/30/30 32/32/32 31/31/31
f 32/32/32 33/33/33 31/31/31
f 33/33/33 32/32/32 34/34/34
f 35/35/35 33/33/33 34/34/34
f 34/34/34 36/36/36 35/35/35
f 36/36/36 37/37/37 35/35/35
f 37/37/37 36/36/36 38/38/38
f 39/39/39 37/37/37 38/38/38
f 30/30/30 40/40/40 32/32/32
f 32/32/32 40/40/40 34/34/34
f 29/29/29 41/41/41 30/30/30
f 41/41/41 40/40/40 30/30/30
f 36/36/36 42/42/42 38/38/38
f 34/34/34 43/43/43 36/36/36
f 44/44/44 41/41/41 29/29/29
f 45/45/45 44/44/44 29/29/29
f 25/25/25 44/44/44 45/45/45
f 46/46/46 44/44/44 25/25/25
f 23/23/23 46/46/46 25/25/25
f 19/19/19 46/46/46 23/23/23
f 18/18/18 46/46/46 19/19/19
f 41/41/41 47/47/47 40/40/40
f 47/47/47 48/48/48 40/40/40
f 44/44/44 49/49/49 41/41/41
f 49/49/49 47/47/47 41/41/41
f 46/46/46 50/50/50 44/44/44
f 50/50/50 49/49/49 44/44/44
f 51/51/51 50/50/50 46/46/46
f 17/17/17 51/51/51 46/46/46
f 17/17/17 46/46/46 18/18/18
f 52/52/52 51/51/51 17/17/17
f 16/16/16 52/52/52 17/17/17
f 53/53/53 52/52/52 16/16/16
f 10/10/10 53/53/53 16/16/16
f 54/54/54 53/53/53 10/10/10
f 9/9/9 54/54/54 10/10/10
f 55/55/55 54/54/54 9/9/9
f 56/56/56 55/55/55 9/9/9
f 54/54/54 57/57/57 53/53/53
f 57/57/57 58/58/58 53/53/53
f 53/53/53 58/58/58 52/52/52
f 55/55/55 59/59/59 54/54/54
f 59/59/59 57/57/57 54/54/54
f 58/58/58 60/60/60 52/52/52
f 52/52/52 60/60/60 51/51/51
f 51/51/51 61/61/61 50/50/50
f 60/60/60 61/61/61 51/51/51
f 61/61/61 62/62/62 50/50/50
f 57/57/57 63/63/63 58/58/58
f 63/63/63 64/64/64 58/58/58
f 58/58/58 64/64/64 60/60/60
f 64/64/64 65/65/65 60/60/60
f 60/60/60 65/65/65 61/61/61
f 65/65/65 66/66/66 61/61/61
f 59/59/59 67/67/67 57/57/57
f 67/67/67 63/63/63 57/57/57
f 67/67/67 59/59/59 68/68/68
f 69/69/69 67/67/67 68/68/68
f 68/68/68 59/59/59 70/70/70
f 59/59/59 55/55/55 70/70/70
f 63/63/63 71/71/71 64/64/64
f 71/71/71 72/72/72 64/64/64
f 64/64/64 72/72/72 65/65/65
f 67/67/67 73/73/73 63/63/63
f 73/73/73 71/71/71 63/63/63
f 69/69/69 74/74/74 67/67/67
f 74/74/74 73/73/73 67/67/67
f 75/75/75 74/74/74 69/69/69
f 76/76/76 75/75/75 69/69/69
f 69/69/69 68/68/68 76/76/76
f 72/72/72 77/77/77 65/65/65
f 65/65/65 77/77/77 66/66/66
f 77/77/77 78/78/78 66/66/66
f 71/71/71 79/79/79 72/72/72
f 79/79/79 80/80/80 72/72/72
f 72/72/72 80/80/80 77/77/77
f 75/75/75 81/81/81 74/74/74
f 81/81/81 82/82/82 74/74/74
f 73/73/73 82/82/82 71/71/71
f 82/82/82 79/79/79 71/71/71
f 74/74/74 82/82/82 73/73/73
f 79/79/79 83/83/83 80/80/80
f 83/83/83 84/84/84 80/80/80
f 80/80/80 84/84/84 77/77/77
f 81/81/81 85/85/85 82/82/82
f 85/85/85 86/86/86 82/82/82
f 82/82/82 86/86/86 79/79/79
f 86/86/86 83/83/83 79/79/79
f 84/84/84 87/87/87 77/77/77
f 77/77/77 87/87/87 78/78/78
f 87/87/87 88/88/88 78/78/78
f 78/78/78 88/88/88 89/89/89
f 78/78/78 89/89/89 90/90/90
f 90/90/90 89/89/89 91/91/91
f 89/89/89 92/92/92 91/91/91
f 92/92/92 93/93/93 91/91/91
f 90/90/90 91/91/91 62/62/62
f 91/91/91 93/93/93 62/62/62
f 61/61/61 90/90/90 62/62/62
f 93/93/93 94/94/94 62/62/62
f 95/95/95 94/94/94 93/93/93
f 62/62/62 94/94/94 96/96/96
f 62/62/62 96/96/96 49/49/49
f 50/50/50 62/62/62 49/49/49
f 97/97/97 96/96/96 94/94/94
f 97/97/97 49/49/49 96/96/96
f 94/94/94 95/95/95 97/97/97
f 49/49/49 97/97/97 47/47/47
f 97/97/97 98/98/98 47/47/47
f 97/97/97 99/99/99 98/98/98
f 95/95/95 99/99/99 97/97/97
f 99/99/99 100/100/100 98/98/98
f 100/100/100 48/48/48 98/98/98
f 48/48/48 47/47/47 98/98/98
f 40/40/40 48/48/48 101/101/101
f 40/40/40 101/101/101 102/102/102
f 66/66/66 90/90/90 61/61/61
f 66/66/66 78/78/78 90/90/90
f 40/40/40 103/103/103 34/34/34
f 21/21/21 104/104/104 15/15/15
f 104/104/104 13/13/13 15/15/15
f 89/89/89 105/105/105 92/92/92
f 105/105/105 106/106/106 92/92/92
f 88/88/88 105/105/105 89/89/89
f 105/105/105 107/107/107 106/106/106
f 107/107/107 108/108/108 106/106/106
f 88/88/88 109/109/109 105/105/105
f 109/109/109 107/107/107 105/105/105
f 110/110/110 109/109/109 88/88/88
f 87/87/87 110/110/110 88/88/88
f 107/107/107 111/111/111 108/108/108
f 109/109/109 112/112/112 107/107/107
f 113/113/113 112/112/112 109/109/109
f 84/84/84 113/113/113 87/87/87
f 114/114/114 113/113/113 84/84/84
f 83/83/83 114/114/114 84/84/84
f 86/86/86 114/114/114 83/83/83
f 115/115/115 112/112/112 113/113/113
f 85/85/85 116/116/116 86/86/86
f 106/106/106 117/117/117 92/92/92
f 117/117/117 118/118/118 92/92/92
f 121/121/121 120/120/120 119/119/119
f 120/120/120 122/122/122 119/119/119
f 119/119/119 123/123/123 121/121/121
f 123/123/123 124/124/124 121/121/121
f 122/122/122 120/120/120 125/125/125
f 126/126/126 122/122/122 125/125/125
f 125/125/125 127/127/127 126/126/126
f 127/127/127 128/128/128 126/126/126
f 129/129/129 120/120/120 121/121/121
f 121/121/121 124/124/124 129/129/129
f 124/124/124 130/130/130 129/129/129
f 129/129/129 130/130/130 131/131/131
f 130/130/130 132/132/132 131/131/131
f 131/131/131 132/132/132 133/133/133
f 133/133/133 134/134/134 131/131/131
f 134/134/134 135/135/135 131/131/131
f 131/131/131 135/135/135 129/129/129
f 132/132/132 136/136/136 133/133/133
f 135/135/135 134/134/134 137/137/137
f 134/134/134 138/138/138 137/137/137
f 137/137/137 138/138/138 139/139/139
f 138/138/138 140/140/140 139/139/139
f 139/139/139 140/140/140 141/141/141
f 133/133/133 136/136/136 142/142/142
f 143/143/143 133/133/133 142/142/142
f 134/134/134 133/133/133 143/143/143
f 138/138/138 134/134/134 143/143/143
f 144/144/144 138/138/138 143/143/143
f 140/140/140 138/138/138 144/144/144
f 145/145/145 140/140/140 144/144/144
f 141/141/141 140/140/140 145/145/145
f 146/146/146 141/141/141 145/145/145
f 147/147/147 141/141/141 146/146/146
f 148/148/148 147/147/147 146/146/146
f 149/149/149 147/147/147 148/148/148
f 150/150/150 149/149/149 148/148/148
f 151/151/151 150/150/150 148/148/148
f 152/152/152 150/150/150 151/151/151
f 153/153/153 152/152/152 151/151/151
f 154/154/154 152/152/152 153/153/153
f 155/155/155 154/154/154 153/153/153
f 156/156/156 154/154/154 155/155/155
f 156/156/156 158/158/158 157/157/157
f 158/158/158 159/159/159 157/157/157
f 157/157/157 159/159/159 160/160/160
f 159/159/159 161/161/161 160/160/160
f 160/160/160 161/161/161 162/162/162
f 163/163/163 160/160/160 162/162/162
f 162/162/162 164/164/164 163/163/163
f 164/164/164 165/165/165 163/163/163
f 163/163/163 165/165/165 166/166/166
f 165/165/165 167/167/167 166/166/166
f 166/166/166 167/167/167 168/168/168
f 167/167/167 169/169/169 168/168/168
f 168/168/168 170/170/170 166/166/166
f 171/171/171 170/170/170 168/168/168
f 172/172/172 171/171/171 168/168/168
f 170/170/170 173/173/173 166/166/166
f 166/166/166 173/173/173 163/163/163
f 173/173/173 160/160/160 163/163/163
f 174/174/174 164/164/164 162/162/162
f 175/175/175 174/174/174 162/162/162
f 162/162/162 161/161/161 175/175/175
f 176/176/176 174/174/174 175/175/175
f 177/177/177 176/176/176 175/175/175
f 175/175/175 178/178/178 177/177/177
f 178/178/178 179/179/179 177/177/177
f 179/179/179 178/178/178 180/180/180
f 181/181/181 179/179/179 180/180/180
f 180/180/180 182/182/182 181/181/181
f 182/182/182 183/183/183 181/181/181
f 161/161/161 178/178/178 175/175/175
f 180/180/180 178/178/178 184/184/184
f 178/178/178 161/161/161 184/184/184
f 184/184/184 185/185/185 180/180/180
f 185/185/185 182/182/182 180/180/180
f 185/185/185 184/184/184 186/186/186
f 187/187/187 185/185/185 186/186/186
f 186/186/186 188/188/188 187/187/187
f 158/158/158 188/188/188 186/186/186
f 159/159/159 158/158/158 186/186/186
f 186/186/186 184/184/184 159/159/159
f 184/184/184 161/161/161 159/159/159
f 188/188/188 189/189/189 187/187/187
f 188/188/188 158/158/158 190/190/190
f 189/189/189 188/188/188 190/190/190
f 190/190/190 158/158/158 191/191/191
f 158/158/158 156/156/156 191/191/191
f 193/193/193 173/173/173 192/192/192
f 173/173/173 170/170/170 192/192/192
f 192/192/192 170/170/170 194/194/194
f 170/170/170 171/171/171 194/194/194
f 172/172/172 168/168/168 195/195/195
f 168/168/168 169/169/169 195/195/195
f 169/169/169 196/196/196 195/195/195
f 169/169/169 167/167/167 196/196/196
f 167/167/167 197/197/197 196/196/196
f 198/198/198 196/196/196 197/197/197
f 198/198/198 199/199/199 196/196/196
f 199/199/199 200/200/200 196/196/196
f 196/196/196 200/200/200 195/195/195
f 201/201/201 198/198/198 197/197/197
f 167/167/167 165/165/165 197/197/197
f 165/165/165 202/202/202 197/197/197
f 201/201/201 197/197/197 202/202/202
f 165/165/165 164/164/164 202/202/202
f 164/164/164 203/203/203 202/202/202
f 204/204/204 201/201/201 202/202/202
f 204/204/204 202/202/202 203/203/203
f 205/205/205 204/204/204 203/203/203
f 164/164/164 174/174/174 203/203/203
f 174/174/174 206/206/206 203/203/203
f 205/205/205 203/203/203 206/206/206
f 174/174/174 176/176/176 206/206/206
f 176/176/176 207/207/207 206/206/206
f 208/208/208 206/206/206 207/207/207
f 208/208/208 205/205/205 206/206/206
f 209/209/209 208/208/208 207/207/207
f 208/208/208 209/209/209 210/210/210
f 209/209/209 211/211/211 210/210/210
f 212/212/212 210/210/210 211/211/211
f 213/213/213 212/212/212 211/211/211
f 205/205/205 208/208/208 214/214/214
f 208/208/208 210/210/210 214/214/214
f 212/212/212 215/215/215 210/210/210
f 215/215/215 214/214/214 210/210/210
f 205/205/205 216/216/216 204/204/204
f 205/205/205 214/214/214 216/216/216
f 216/216/216 217/217/217 204/204/204
f 216/216/216 218/218/218 217/217/217
f 218/218/218 219/219/219 217/217/217
f 218/218/218 216/216/216 220/220/220
f 214/214/214 215/215/215 220/220/220
f 214/214/214 220/220/220 216/216/216
f 221/221/221 218/218/218 220/220/220
f 221/221/221 220/220/220 222/222/222
f 215/215/215 222/222/222 220/220/220
f 223/223/223 221/221/221 222/222/222
f 219/219/219 218/218/218 224/224/224
f 225/225/225 219/219/219 224/224/224
f 225/225/225 224/224/224 226/226/226
f 227/227/227 225/225/225 226/226/226
f 218/218/218 228/228/228 224/224/224
f 218/218/218 221/221/221 228/228/228
f 221/221/221 223/223/223 228/228/228
f 227/227/227 226/226/226 229/229/229
f 230/230/230 227/227/227 229/229/229
f 230/230/230 229/229/229 231/231/231
f 232/232/232 230/230/230 231/231/231
f 233/233/233 232/232/232 231/231/231
f 233/233/233 231/231/231 234/234/234
f 235/235/235 233/233/233 234/234/234
f 235/235/235 234/234/234 236/236/236
f 237/237/237 235/235/235 236/236/236
f 237/237/237 238/238/238 235/235/235
f 237/237/237 239/239/239 238/238/238
f 239/239/239 240/240/240 238/238/238
f 239/239/239 241/241/241 240/240/240
f 241/241/241 242/242/242 240/240/240
f 242/242/242 241/241/241 243/243/243
f 241/241/241 244/244/244 243/243/243
f 245/245/245 243/243/243 244/244/244
f 245/245/245 246/246/246 243/243/243
f 246/246/246 247/247/247 243/243/243
f 242/242/242 243/243/243 247/247/247
f 246/246/246 248/248/248 247/247/247
f 248/248/248 249/249/249 247/247/247
f 248/248/248 250/250/250 249/249/249
f 250/250/250 251/251/251 249/249/249
f 252/252/252 249/249/249 251/251/251
f 252/252/252 247/247/247 249/249/249
f 253/253/253 252/252/252 251/251/251
f 252/252/252 253/253/253 254/254/254
f 253/253/253 255/255/255 254/254/254
f 256/256/256 254/254/254 255/255/255
f 257/257/257 256/256/256 255/255/255
f 258/258/258 245/245/245 244/244/244
f 258/258/258 244/244/244 259/259/259
f 244/244/244 260/260/260 259/259/259
f 244/244/244 241/241/241 260/260/260
f 241/241/241 239/239/239 260/260/260
f 239/239/239 261/261/261 260/260/260
f 239/239/239 237/237/237 261/261/261
f 237/237/237 236/236/236 261/261/261
f 198/198/198 201/201/201 262/262/262
f 201/201/201 263/263/263 262/262/262
f 198/198/198 262/262/262 264/264/264
f 199/199/199 198/198/198 264/264/264
f 267/267/267 266/266/266 265/265/265
f 265/265/265 268/268/268 267/267/267
f 268/268/268 269/269/269 267/267/267
f 269/269/269 268/268/268 270/270/270
f 271/271/271 269/269/269 270/270/270
f 270/270/270 272/272/272 271/271/271
f 272/272/272 273/273/273 271/271/271
f 274/274/274 273/273/273 272/272/272
f 275/275/275 274/274/274 272/272/272
f 276/276/276 274/274/274 275/275/275
f 277/277/277 276/276/276 275/275/275
f 267/267/267 269/269/269 278/278/278
f 269/269/269 271/271/271 278/278/278
f 279/279/279 267/267/267 278/278/278
f 280/280/280 267/267/267 279/279/279
f 278/278/278 281/281/281 279/279/279
f 281/281/281 282/282/282 279/279/279
f 279/279/279 282/282/282 283/283/283
f 283/283/283 284/284/284 279/279/279
f 282/282/282 285/285/285 283/283/283
f 273/273/273 274/274/274 286/286/286
f 287/287/287 273/273/273 286/286/286
f 286/286/286 274/274/274 288/288/288
f 274/274/274 276/276/276 288/288/288
f 288/288/288 289/289/289 286/286/286
f 289/289/289 290/290/290 286/286/286
f 286/286/286 290/290/290 287/287/287
f 290/290/290 291/291/291 287/287/287
f 291/291/291 292/292/292 287/287/287
f 292/292/292 293/293/293 287/287/287
f 292/292/292 281/281/281 293/293/293
f 281/281/281 278/278/278 293/293/293
f 271/271/271 293/293/293 278/278/278
f 287/287/287 293/293/293 271/271/271
f 273/273/273 287/287/287 271/271/271
f 289/289/289 288/288/288 294/294/294
f 295/295/295 294/294/294 288/288/288
f 276/276/276 295/295/295 288/288/288
f 295/295/295 296/296/296 294/294/294
f 297/297/297 289/289/289 294/294/294
f 297/297/297 294/294/294 298/298/298
f 299/299/299 298/298/298 294/294/294
f 300/300/300 297/297/297 298/298/298
f 291/291/291 290/290/290 301/301/301
f 302/302/302 291/291/291 301/301/301
f 291/291/291 302/302/302 292/292/292
f 301/301/301 290/290/290 303/303/303
f 290/290/290 289/289/289 303/303/303
f 303/303/303 304/304/304 301/301/301
f 304/304/304 305/305/305 301/301/301
f 301/301/301 305/305/305 302/302/302
f 305/305/305 306/306/306 302/302/302
f 306/306/306 307/307/307 302/302/302
f 307/307/307 308/308/308 302/302/302
f 302/302/302 308/308/308 292/292/292
f 292/292/292 308/308/308 281/281/281
f 308/308/308 309/309/309 281/281/281
f 282/282/282 281/281/281 309/309/309
f 310/310/310 282/282/282 309/309/309
f 285/285/285 282/282/282 310/310/310
f 311/311/311 285/285/285 310/310/310
f 309/309/309 312/312/312 310/310/310
f 307/307/307 312/312/312 308/308/308
f 312/312/312 309/309/309 308/308/308
f 312/312/312 313/313/313 310/310/310
f 310/310/310 313/313/313 311/311/311
f 313/313/313 314/314/314 311/311/311
f 312/312/312 315/315/315 313/313/313
f 315/315/315 316/316/316 313/313/313
f 313/313/313 316/316/316 314/314/314
f 315/315/315 312/312/312 317/317/317
f 312/312/312 318/318/318 317/317/317
f 312/312/312 307/307/307 318/318/318
f 319/319/319 317/317/317 318/318/318
f 320/320/320 319/319/319 318/318/318
f 321/321/321 319/319/319 320/320/320
f 322/322/322 321/321/321 320/320/320
f 316/316/316 323/323/323 314/314/314
f 314/314/314 323/323/323 324/324/324
f 323/323/323 325/325/325 324/324/324
f 317/317/317 326/326/326 315/315/315
f 326/326/326 327/327/327 315/315/315
f 323/323/323 327/327/327 325/325/325
f 316/316/316 327/327/327 323/323/323
f 316/316/316 315/315/315 327/327/327
f 319/319/319 328/328/328 317/317/317
f 317/317/317 328/328/328 326/326/326
f 326/326/326 329/329/329 327/327/327
f 326/326/326 328/328/328 329/329/329
f 329/329/329 330/330/330 327/327/327
f 328/328/328 331/331/331 329/329/329
f 327/327/327 330/330/330 332/332/332
f 327/327/327 332/332/332 333/333/333
f 330/330/330 334/334/334 332/332/332
f 329/329/329 335/335/335 330/330/330
f 336/336/336 335/335/335 329/329/329
f 330/330/330 338/338/338 337/337/337
f 297/297/297 339/339/339 289/289/289
f 339/339/339 303/303/303 289/289/289
f 340/340/340 339/339/339 297/297/297
f 300/300/300 340/340/340 297/297/297
f 341/341/341 339/339/339 340/340/340
f 342/342/342 341/341/341 340/340/340
f 341/341/341 304/304/304 339/339/339
f 304/304/304 303/303/303 339/339/339
f 341/341/341 343/343/343 304/304/304
f 343/343/343 344/344/344 304/304/304
f 342/342/342 345/345/345 341/341/341
f 345/345/345 343/343/343 341/341/341
f 345/345/345 346/346/346 343/343/343
f 348/348/348 280/280/280 347/347/347
f 265/265/265 280/280/280 349/349/349
f 350/350/350 265/265/265 349/349/349
f 268/268/268 265/265/265 351/351/351
f 352/352/352 268/268/268 351/351/351
f 268/268/268 352/352/352 270/270/270
f 352/352/352 353/353/353 270/270/270
f 270/270/270 353/353/353 354/354/354
f 272/272/272 270/270/270 354/354/354
f 275/275/275 272/272/272 354/354/354
f 355/355/355 275/275/275 354/354/354
f 277/277/277 275/275/275 355/355/355
f 356/356/356 277/277/277 355/355/355
f 357/357/357 277/277/277 356/356/356
f 277/277/277 357/357/357 276/276/276
f 276/276/276 357/357/357 295/295/295
f 357/357/357 358/358/358 295/295/295
f 295/295/295 358/358/358 296/296/296
f 360/360/360 359/359/359 319/319/319
f 322/322/322 320/320/320 361/361/361
f 364/364/364 363/363/363 362/362/362
f 365/365/365 362/362/362 363/363/363
f 366/366/366 365/365/365 363/363/363
f 365/365/365 366/366/366 367/367/367
f 366/366/366 368/368/368 367/367/367
f 369/369/369 367/367/367 368/368/368
f 370/370/370 369/369/369 368/368/368
f 370/370/370 371/371/371 369/369/369
f 371/371/371 372/372/372 369/369/369
f 371/371/371 373/373/373 372/372/372
f 373/373/373 374/374/374 372/372/372
f 366/366/366 363/363/363 375/375/375
f 368/368/368 366/366/366 375/375/375
f 363/363/363 376/376/376 375/375/375
f 363/363/363 377/377/377 376/376/376
f 378/378/378 375/375/375 376/376/376
f 379/379/379 378/378/378 376/376/376
f 379/379/379 376/376/376 380/380/380
f 381/381/381 380/380/380 376/376/376
f 382/382/382 379/379/379 380/380/380
f 371/371/371 370/370/370 383/383/383
f 370/370/370 384/384/384 383/383/383
f 373/373/373 371/371/371 385/385/385
f 371/371/371 383/383/383 385/385/385
f 386/386/386 385/385/385 383/383/383
f 387/387/387 386/386/386 383/383/383
f 387/387/387 383/383/383 384/384/384
f 388/388/388 387/387/387 384/384/384
f 389/389/389 388/388/388 384/384/384
f 390/390/390 389/389/389 384/384/384
f 375/375/375 378/378/378 390/390/390
f 378/378/378 389/389/389 390/390/390
f 390/390/390 368/368/368 375/375/375
f 390/390/390 384/384/384 368/368/368
f 384/384/384 370/370/370 368/368/368
f 385/385/385 386/386/386 391/391/391
f 391/391/391 392/392/392 385/385/385
f 392/392/392 373/373/373 385/385/385
f 393/393/393 392/392/392 391/391/391
f 386/386/386 394/394/394 391/391/391
f 391/391/391 394/394/394 395/395/395
f 395/395/395 396/396/396 391/391/391
f 394/394/394 397/397/397 395/395/395
f 387/387/387 388/388/388 398/398/398
f 388/388/388 399/399/399 398/398/398
f 399/399/399 388/388/388 389/389/389
f 387/387/387 398/398/398 400/400/400
f 386/386/386 387/387/387 400/400/400
f 401/401/401 400/400/400 398/398/398
f 402/402/402 401/401/401 398/398/398
f 402/402/402 398/398/398 399/399/399
f 403/403/403 402/402/402 399/399/399
f 404/404/404 403/403/403 399/399/399
f 405/405/405 404/404/404 399/399/399
f 405/405/405 399/399/399 389/389/389
f 405/405/405 389/389/389 378/378/378
f 406/406/406 405/405/405 378/378/378
f 378/378/378 379/379/379 406/406/406
f 379/379/379 407/407/407 406/406/406
f 379/379/379 382/382/382 407/407/407
f 382/382/382 408/408/408 407/407/407
f 409/409/409 406/406/406 407/407/407
f 406/406/406 409/409/409 405/405/405
f 409/409/409 404/404/404 405/405/405
f 410/410/410 409/409/409 407/407/407
f 410/410/410 407/407/407 408/408/408
f 411/411/411 410/410/410 408/408/408
f 401/401/401 402/402/402 412/412/412
f 412/412/412 413/413/413 401/401/401
f 414/414/414 409/409/409 410/410/410
f 415/415/415 414/414/414 410/410/410
f 415/415/415 410/410/410 411/411/411
f 409/409/409 414/414/414 416/416/416
f 417/417/417 409/409/409 416/416/416
f 416/416/416 418/418/418 417/417/417
f 418/418/418 419/419/419 417/417/417
f 418/418/418 420/420/420 419/419/419
f 420/420/420 421/421/421 419/419/419
f 422/422/422 415/415/415 411/411/411
f 422/422/422 411/411/411 423/423/423
f 424/424/424 422/422/422 423/423/423
f 425/425/425 416/416/416 414/414/414
f 426/426/426 425/425/425 414/414/414
f 426/426/426 422/422/422 424/424/424
f 426/426/426 415/415/415 422/422/422
f 414/414/414 415/415/415 426/426/426
f 427/427/427 418/418/418 416/416/416
f 427/427/427 416/416/416 425/425/425
f 428/428/428 426/426/426 424/424/424
f 429/429/429 425/425/425 426/426/426
f 427/427/427 425/425/425 429/429/429
f 430/430/430 429/429/429 426/426/426
f 430/430/430 426/426/426 428/428/428
f 431/431/431 427/427/427 429/429/429
f 432/432/432 430/430/430 428/428/428
f 433/433/433 431/431/431 429/429/429
f 434/434/434 430/430/430 432/432/432
f 435/435/435 429/429/429 430/430/430
f 419/419/419 421/421/421 436/436/436
f 400/400/400 437/437/437 386/386/386
f 437/437/437 394/394/394 386/386/386
f 437/437/437 438/438/438 394/394/394
f 438/438/438 397/397/397 394/394/394
f 437/437/437 439/439/439 438/438/438
f 439/439/439 440/440/440 438/438/438
f 400/400/400 401/401/401 437/437/437
f 401/401/401 439/439/439 437/437/437
f 413/413/413 439/439/439 401/401/401
f 413/413/413 441/441/441 439/439/439
f 441/441/441 440/440/440 439/439/439
f 442/442/442 441/441/441 413/413/413
f 377/377/377 444/444/444 443/443/443
f 377/377/377 362/362/362 444/444/444
f 362/362/362 445/445/445 444/444/444
f 362/362/362 365/365/365 445/445/445
f 365/365/365 446/446/446 445/445/445
f 446/446/446 365/365/365 367/367/367
f 447/447/447 446/446/446 367/367/367
f 447/447/447 367/367/367 448/448/448
f 367/367/367 369/369/369 448/448/448
f 369/369/369 372/372/372 448/448/448
f 372/372/372 449/449/449 448/448/448
f 372/372/372 374/374/374 449/449/449
f 374/374/374 450/450/450 449/449/449
f 374/374/374 451/451/451 450/450/450
f 451/451/451 374/374/374 373/373/373
f 451/451/451 373/373/373 392/392/392
f 452/452/452 451/451/451 392/392/392
f 452/452/452 392/392/392 393/393/393
f 454/454/454 453/453/453 418/418/418
f 404/404/404 409/409/409 417/417/417
f 457/457/457 456/456/456 455/455/455
f 456/456/456 458/458/458 455/455/455
f 459/459/459 457/457/457 455/455/455
f 460/460/460 459/459/459 455/455/455
f 461/461/461 459/459/459 460/460/460
f 462/462/462 461/461/461 460/460/460
f 459/459/459 461/461/461 463/463/463
f 461/461/461 464/464/464 463/463/463
f 461/461/461 462/462/462 464/464/464
f 465/465/465 459/459/459 463/463/463
f 466/466/466 456/456/456 465/465/465
f 456/456/456 466/466/466 467/467/467
f 468/468/468 456/456/456 467/467/467
f 465/465/465 469/469/469 459/459/459
f 456/456/456 468/468/468 470/470/470
f 468/468/468 471/471/471 470/470/470
f 472/472/472 463/463/463 464/464/464
f 473/473/473 472/472/472 464/464/464
f 473/473/473 464/464/464 474/474/474
f 462/462/462 474/474/474 464/464/464
f 473/473/473 475/475/475 472/472/472
f 476/476/476 475/475/475 473/473/473
f 476/476/476 473/473/473 477/477/477
f 478/478/478 466/466/466 465/465/465
f 479/479/479 467/467/467 466/466/466
f 480/480/480 479/479/479 466/466/466
f 481/481/481 480/480/480 465/465/465
f 482/482/482 472/472/472 475/475/475
f 483/483/483 482/482/482 475/475/475
f 484/484/484 482/482/482 483/483/483
f 485/485/485 482/482/482 484/484/484
f 485/485/485 486/486/486 482/482/482
f 486/486/486 487/487/487 482/482/482
f 487/487/487 472/472/472 482/482/482
f 487/487/487 463/463/463 472/472/472
f 486/486/486 488/488/488 487/487/487
f 488/488/488 463/463/463 487/487/487
f 488/488/488 489/489/489 463/463/463
f 489/489/489 465/465/465 463/463/463
f 489/489/489 481/481/481 465/465/465
f 491/491/491 490/490/490 465/465/465
f 479/479/479 492/492/492 467/467/467
f 492/492/492 468/468/468 467/467/467
f 495/495/495 494/494/494 493/493/493
f 493/493/493 496/496/496 495/495/495
f 496/496/496 497/497/497 495/495/495
f 495/495/495 497/497/497 498/498/498
f 497/497/497 499/499/499 498/498/498
f 498/498/498 499/499/499 500/500/500
f 499/499/499 501/501/501 500/500/500
f 502/502/502 496/496/496 493/493/493
f 503/503/503 502/502/502 493/493/493
f 498/498/498 500/500/500 504/504/504
f 494/494/494 495/495/495 504/504/504
f 495/495/495 498/498/498 504/504/504
f 505/505/505 504/504/504 500/500/500
f 506/506/506 505/505/505 500/500/500
f 500/500/500 507/507/507 506/506/506
f 507/507/507 508/508/508 506/506/506
f 503/503/503 509/509/509 502/502/502
f 509/509/509 503/503/503 510/510/510
f 503/503/503 493/493/493 510/510/510
f 493/493/493 494/494/494 510/510/510
f 505/505/505 511/511/511 504/504/504
f 504/504/504 512/512/512 494/494/494
f 512/512/512 513/513/513 494/494/494
f 514/514/514 512/512/512 504/504/504
f 510/510/510 494/494/494 515/515/515
f 516/516/516 515/515/515 494/494/494
f 517/517/517 516/516/516 494/494/494
f 516/516/516 518/518/518 515/515/515
f 518/518/518 519/519/519 515/515/515
f 510/510/510 515/515/515 519/519/519
f 509/509/509 510/510/510 519/519/519
f 509/509/509 519/519/519 520/520/520
f 521/521/521 520/520/520 519/519/519
f 518/518/518 522/522/522 519/519/519
f 524/524/524 523/523/523 504/504/504
f 527/527/527 526/526/526 525/525/525
f 526/526/526 528/528/528 525/525/525
f 528/528/528 529/529/529 525/525/525
f 529/529/529 530/530/530 525/525/525
f 529/529/529 531/531/531 530/530/530
f 531/531/531 532/532/532 530/530/530
f 531/531/531 529/529/529 533/533/533
f 534/534/534 531/531/531 533/533/533
f 532/532/532 531/531/531 534/534/534
f 529/529/529 535/535/535 533/533/533
f 526/526/526 536/536/536 535/535/535
f 536/536/536 526/526/526 537/537/537
f 526/526/526 538/538/538 537/537/537
f 539/539/539 535/535/535 529/529/529
f 538/538/538 526/526/526 540/540/540
f 541/541/541 538/538/538 540/540/540
f 533/533/533 542/542/542 534/534/534
f 542/542/542 543/543/543 534/534/534
f 534/534/534 543/543/543 544/544/544
f 544/544/544 532/532/532 534/534/534
f 545/545/545 543/543/543 542/542/542
f 545/545/545 546/546/546 543/543/543
f 543/543/543 546/546/546 547/547/547
f 536/536/536 548/548/548 535/535/535
f 537/537/537 549/549/549 536/536/536
f 549/549/549 550/550/550 536/536/536
f 550/550/550 551/551/551 535/535/535
f 542/542/542 552/552/552 545/545/545
f 552/552/552 553/553/553 545/545/545
f 552/552/552 554/554/554 553/553/553
f 552/552/552 555/555/555 554/554/554
f 556/556/556 555/555/555 552/552/552
f 557/557/557 556/556/556 552/552/552
f 542/542/542 557/557/557 552/552/552
f 533/533/533 557/557/557 542/542/542
f 533/533/533 558/558/558 557/557/557
f 558/558/558 556/556/556 557/557/557
f 559/559/559 558/558/558 533/533/533
f 535/535/535 559/559/559 533/533/533
f 551/551/551 559/559/559 535/535/535
f 561/561/561 560/560/560 535/535/535
f 562/562/562 549/549/549 537/537/537
f 538/538/538 562/562/562 537/537/537
f 565/565/565 564/564/564 563/563/563
f 566/566/566 563/563/563 564/564/564
f 567/567/567 566/566/566 564/564/564
f 567/567/567 564/564/564 568/568/568
f 569/569/569 567/567/567 568/568/568
f 569/569/569 568/568/568 570/570/570
f 571/571/571 569/569/569 570/570/570
f 566/566/566 572/572/572 563/563/563
f 572/572/572 573/573/573 563/563/563
f 570/570/570 568/568/568 574/574/574
f 568/568/568 564/564/564 574/574/574
f 564/564/564 565/565/565 574/574/574
f 574/574/574 575/575/575 570/570/570
f 575/575/575 576/576/576 570/570/570
f 577/577/577 570/570/570 576/576/576
f 578/578/578 577/577/577 576/576/576
f 579/579/579 573/573/573 572/572/572
f 573/573/573 579/579/579 580/580/580
f 565/565/565 563/563/563 580/580/580
f 563/563/563 573/573/573 580/580/580
f 581/581/581 575/575/575 574/574/574
f 582/582/582 574/574/574 565/565/565
f 583/583/583 582/582/582 565/565/565
f 582/582/582 584/584/584 574/574/574
f 565/565/565 580/580/580 585/585/585
f 585/585/585 586/586/586 565/565/565
f 586/586/586 587/587/587 565/565/565
f 588/588/588 586/586/586 585/585/585
f 589/589/589 588/588/588 585/585/585
f 585/585/585 580/580/580 589/589/589
f 580/580/580 579/579/579 589/589/589
f 589/589/589 579/579/579 590/590/590
f 590/590/590 591/591/591 589/589/589
f 592/592/592 588/588/588 589/589/589
f 594/594/594 593/593/593 574/574/574
