g polySurface53
v -0.0158188138 0.123102926 1.99234462
v -0 0.135403723 2.03689742
v -0 0.118866034 1.98985732
v -0.024901513 0.135187015 2.03837347
v -0.020816559 0.16740571 2.07788825
v -0 0.167992815 2.09507346
v -0.040262118 0.169299081 2.07944965
v -0 0.119808063 1.94130027
v -0.0230104066 0.128472626 1.93539977
v -0.0386319384 0.126343682 1.99406552
v -0.0506009907 0.142732814 1.96824443
v -0.026194891 0.0905306861 1.93103063
v -0 0.0833304375 1.93512464
v -0.042201288 0.144380197 1.9217943
v -0.0602106787 0.16091226 1.9485544
v -0.0660745874 0.165647909 1.9862498
v -0.0548052117 0.172005758 1.90085793
v -0.0726104006 0.182805091 1.93586218
v -0.0637395307 0.21018441 1.91689193
v -0.0838922933 0.21669063 1.94590998
v -0.0688517392 0.253227532 1.93595076
v -0.0570708849 0.219361886 1.90033698
v -0.0427604243 0.229955032 1.89764762
v -0.0783954114 0.190701619 1.96246302
v -0.0804086924 0.196295485 2.00201273
v -0.0503694825 0.143721133 2.03395653
v -0.0690631121 0.177112728 2.02370095
v -0.0570727922 0.178887919 2.0744133
v -0.048287861 0.204473734 2.09609365
v -0.0662075952 0.195949718 2.06351066
v -0.034787979 0.206600189 2.09905577
v -0.0421463773 0.240089566 2.09221244
v -0.0573228784 0.217489779 2.08644462
v -0 0.194354266 2.11478066
v -0.0842085332 0.200950757 2.02832127
v -0.0862552375 0.215655148 2.05340338
v -0.0881168842 0.232961684 2.02035904
v -0.0771485046 0.238711908 2.07054639
v -0.0629523471 0.256163716 2.07703137
v -0 0.225633353 2.11518407
v -0.0301686917 0.250786752 2.09115124
v -0 0.246167123 2.10058069
v -0.04563706 0.279976249 2.05985975
v -0.0184667576 0.271071076 2.09216571
v -0 0.268381447 2.09756732
v -0.0290674698 0.286719412 2.07530761
v -0 0.29299441 2.07697225
v -0.021230964 0.300281167 2.06075048
v -0.024460936 0.302514434 2.04246283
v -0 0.307234228 2.05685353
v -0.0787017122 0.259344906 2.04167938
v -0.0670542866 0.283554137 2.02893829
v -0.0536075495 0.306505293 2.02193356
v -0.0280240271 0.311415404 2.01520848
v -0 0.312790275 2.039958
v -0 0.329872787 2.01892996
v -0 0.335220188 1.99925375
v -0.0380484648 0.312373638 1.99434745
v -0.0682184473 0.298628509 1.99196875
v -0.076631695 0.278616488 1.9884057
v -0.0745093897 0.267777711 1.95884621
v -0.0923073962 0.257514298 1.99852836
v -0.0930414945 0.23784703 1.97204757
v -0 0.334102094 1.96686697
v -0.028801864 0.308263659 1.95121014
v -0.0517537668 0.304219037 1.94149053
v -0.0638596714 0.284208417 1.95462763
v -0.0591943339 0.278671235 1.92285228
v -0.0410688855 0.255420536 1.89563489
v -0.0201528277 0.232399464 1.88882065
v -0.0219645072 0.210882932 1.86854184
v -0.0463141575 0.197212785 1.87973595
v -0.0325889103 0.205723733 1.84265101
v -0.0632348955 0.186064139 1.85418534
v -0 0.214853227 1.86753118
v -0 0.237847373 1.88011742
v -0 0.270734102 1.90471077
v -0 0.211628571 1.83789456
v -0.0350026228 0.274963439 1.90173626
v -0.0212868303 0.298699498 1.93142343
v -0 0.313436985 1.93798232
v -0.0466058254 0.292886049 1.92093492
v -0.0350962281 0.179980382 1.80231106
v -0.0680094138 0.153715879 1.81469023
v -0.0488206632 0.154962733 1.7869128
v -0.0241921209 0.166064143 1.77927017
v 0.000445197249 0.177021787 1.77603602
v -0 0.191287518 1.79838777
v -0.0635768697 0.13740921 1.79628229
v -0.0717853978 0.108245544 1.82415247
v -0.072277151 0.127857953 1.83805752
v -0.0738905966 0.104647689 1.85903239
v -0.0668468028 0.128282368 1.89507413
v -0.0703181475 0.158114552 1.87390554
v -0.0693683177 0.0908805802 1.83908689
v -0.0670207292 0.0776801929 1.87248313
v -0.0629468635 0.0715611503 1.85673714
v -0.0551461168 0.0547261685 1.885934
v -0.0544526652 0.0891198292 1.91040397
v -0.0267105829 0.0581935197 1.9170326
v -0.054265473 0.0513530187 1.87242639
v -9.53674295E-09 0.049293492 1.91568291
v -0.0418267101 0.0419733524 1.89063299
v -0.0403656699 0.0372441784 1.87699759
v -0.0197441708 0.0251165833 1.87662482
v -0.0249760579 0.0340486355 1.89513242
v -9.53674295E-09 0.0298549291 1.8934021
v -0 0.0220653452 1.87225747
v 0.0267105736 0.0581935197 1.9170326
v 0.026194891 0.0905306861 1.93103063
v 0.0230104066 0.128472626 1.93539977
v 0.0158188138 0.123102926 1.99234462
v 0.0386319384 0.126343682 1.99406552
v 0.0506009907 0.142732814 1.96824443
v 0.024901513 0.135187015 2.03837347
v 0.020816559 0.16740571 2.07788825
v 0.040262118 0.169299081 2.07944965
v 0.042201288 0.144380197 1.9217943
v 0.0602106787 0.16091226 1.9485544
v 0.0660745874 0.165647909 1.9862498
v 0.0548052117 0.172005758 1.90085793
v 0.0726104006 0.182805091 1.93586218
v 0.0637395307 0.21018441 1.91689193
v 0.0838922933 0.21669063 1.94590998
v 0.0688517392 0.253227532 1.93595076
v 0.0570708849 0.219361886 1.90033698
v 0.0427604243 0.229955032 1.89764762
v 0.0783954114 0.190701619 1.96246302
v 0.0804086924 0.196295485 2.00201273
v 0.0503694825 0.143721133 2.03395653
v 0.0570727922 0.178887919 2.0744133
v 0.0690631121 0.177112728 2.02370095
v 0.0662075952 0.195949718 2.06351066
v 0.048287861 0.204473734 2.09609365
v 0.034787979 0.206600189 2.09905577
v 0.0421463773 0.240089566 2.09221244
v 0.0573228784 0.217489779 2.08644462
v 0.0842085332 0.200950757 2.02832127
v 0.0862552375 0.215655148 2.05340338
v 0.0881168842 0.232961684 2.02035904
v 0.0771485046 0.238711908 2.07054639
v 0.0629523471 0.256163716 2.07703137
v 0.0301686917 0.250786752 2.09115124
v 0.04563706 0.279976249 2.05985975
v 0.0184667576 0.271071076 2.09216571
v 0.0290674698 0.286719412 2.07530761
v 0.021230964 0.300281167 2.06075048
v 0.024460936 0.302514434 2.04246283
v 0.0787017122 0.259344906 2.04167938
v 0.0670542866 0.283554137 2.02893829
v 0.0536075495 0.306505293 2.02193356
v 0.0280240271 0.311415404 2.01520848
v 0.0380484648 0.312373638 1.99434745
v 0.0682184473 0.298628509 1.99196875
v 0.076631695 0.278616488 1.9884057
v 0.0745093897 0.267777711 1.95884621
v 0.0923073962 0.257514298 1.99852836
v 0.0930414945 0.23784703 1.97204757
v 0.028801864 0.308263659 1.95121014
v 0.0517537668 0.304219037 1.94149053
v 0.0638596714 0.284208417 1.95462763
v 0.0591943339 0.278671235 1.92285228
v 0.0410688855 0.255420536 1.89563489
v 0.0201528277 0.232399464 1.88882065
v 0.0219645072 0.210882932 1.86854184
v 0.0463141575 0.197212785 1.87973595
v 0.0325889103 0.205723733 1.84265101
v 0.0632348955 0.186064139 1.85418534
v 0.0350026228 0.274963439 1.90173626
v 0.0212868303 0.298699498 1.93142343
v 0.0466058254 0.292886049 1.92093492
v 0.0350962281 0.179980382 1.80231106
v 0.0680094138 0.153715879 1.81469023
v 0.0488206632 0.154962733 1.7869128
v 0.0241921209 0.166064143 1.77927017
v -0.000445197249 0.177021787 1.77603602
v 0.0635768697 0.13740921 1.79628229
v 0.0717853978 0.108245544 1.82415247
v 0.072277151 0.127857953 1.83805752
v 0.0738905966 0.104647689 1.85903239
v 0.0668468028 0.128282368 1.89507413
v 0.0703181475 0.158114552 1.87390554
v 0.0693683177 0.0908805802 1.83908689
v 0.0670207292 0.0776801929 1.87248313
v 0.0629468635 0.0715611503 1.85673714
v 0.0551461168 0.0547261685 1.885934
v 0.0544526652 0.0891198292 1.91040397
v 0.054265473 0.0513530187 1.87242639
v 0.0418267101 0.0419733524 1.89063299
v 0.0403656699 0.0372441784 1.87699759
v 0.0197441708 0.0251165833 1.87662482
v 0.0249760486 0.0340486355 1.89513242
vt 0.188228145 0.410557181
vt 0.0933399349 0.474660933
vt 0.147189781 0.376139224
vt 0.170205787 0.475668758
vt 0.164912686 0.655756712
vt 0.105688103 0.69028151
vt 0.218037933 0.628246605
vt 0.185575232 0.278776348
vt 0.265384734 0.279227495
vt 0.256129026 0.409838766
vt 0.339488924 0.365628362
vt 0.241573051 0.209562182
vt 0.16818805 0.213834226
vt 0.377090812 0.267924249
vt 0.415383697 0.348114133
vt 0.372915328 0.438517749
vt 0.504065871 0.268000007
vt 0.490240037 0.366621464
vt 0.589813471 0.3637757
vt 0.537329793 0.452934772
vt 0.643809676 0.49420172
vt 0.643311083 0.350357741
vt 0.699205756 0.360710412
vt 0.464705884 0.436496168
vt 0.41266939 0.514654517
vt 0.241548717 0.50000149
vt 0.33465302 0.529244661
vt 0.259234011 0.626779556
vt 0.271922231 0.72403425
vt 0.309512615 0.636425138
vt 0.242510065 0.757977247
vt 0.334961355 0.811140776
vt 0.311627328 0.72987628
vt 0.15864484 0.788412869
vt 0.386182547 0.572895288
vt 0.38238579 0.644824743
vt 0.456481218 0.614415467
vt 0.392840862 0.72255981
vt 0.406660169 0.784197569
vt 0.221259698 0.881662786
vt 0.350395352 0.856001377
vt 0.293941736 0.919464707
vt 0.47804004 0.835428476
vt 0.392877609 0.914249301
vt 0.364962935 0.955796242
vt 0.460125625 0.896187007
vt 0.469066679 0.973944306
vt 0.517707586 0.912498116
vt 0.572505951 0.88866806
vt 0.549286962 0.963756919
vt 0.471412867 0.713717818
vt 0.537573159 0.751866221
vt 0.594222605 0.796200991
vt 0.639195383 0.843215168
vt 0.604793549 0.944311023
vt 0.691147566 0.91726613
vt 0.746619344 0.865970969
vt 0.685379148 0.773119569
vt 0.628813088 0.704565167
vt 0.594385386 0.649792194
vt 0.627579033 0.570783138
vt 0.531908393 0.616553009
vt 0.534685493 0.535948396
vt 0.830354095 0.788971007
vt 0.783586621 0.668124616
vt 0.742841065 0.618921041
vt 0.669249773 0.607295275
vt 0.7164253 0.528472781
vt 0.747963548 0.423903465
vt 0.767507076 0.340700716
vt 0.732477784 0.259473562
vt 0.639282346 0.261186093
vt 0.721274376 0.195696294
vt 0.620105326 0.201668233
vt 0.798829436 0.259272605
vt 0.829839706 0.328344375
vt 0.875934601 0.457451224
vt 0.80726099 0.191966116
vt 0.783531666 0.478518426
vt 0.819154561 0.59827137
vt 0.879166842 0.662712634
vt 0.762960076 0.556145906
vt 0.709635913 0.111520618
vt 0.617900014 0.0978989601
vt 0.670191884 0.0571002811
vt 0.724712133 0.0603327155
vt 0.815823793 0.0756847262
vt 0.815320015 0.117792606
vt 0.613154113 0.0526260734
vt 0.500318289 0.0498099513
vt 0.529589653 0.0936207622
vt 0.466861993 0.0897806287
vt 0.464891642 0.202713028
vt 0.524688363 0.200127453
vt 0.463924229 0.0487243533
vt 0.393993378 0.092967838
vt 0.390390396 0.0536464155
vt 0.321124762 0.0961550474
vt 0.348907501 0.207721293
vt 0.229093999 0.159436062
vt 0.316856563 0.0585684776
vt 0.159116715 0.16002363
vt 0.274208903 0.0988411903
vt 0.26933974 0.0546390414
vt 0.221822917 0.0507096052
vt 0.214854702 0.10223949
vt 0.150912806 0.111358464
vt 0.147533461 0.037071228
vt 0.229093999 0.159436062
vt 0.241573051 0.209562182
vt 0.265384734 0.279227495
vt 0.188228145 0.410557181
vt 0.256129026 0.409838766
vt 0.339488924 0.365628362
vt 0.170205787 0.475668758
vt 0.164912686 0.655756712
vt 0.218037933 0.628246605
vt 0.377090812 0.267924249
vt 0.415383697 0.348114133
vt 0.372915328 0.438517749
vt 0.504065871 0.268000007
vt 0.490240037 0.366621464
vt 0.589813471 0.3637757
vt 0.537329793 0.452934772
vt 0.643809676 0.49420172
vt 0.643311083 0.350357741
vt 0.699205756 0.360710412
vt 0.464705884 0.436496168
vt 0.41266939 0.514654517
vt 0.241548717 0.50000149
vt 0.259234011 0.626779556
vt 0.33465302 0.529244661
vt 0.309512615 0.636425138
vt 0.271922231 0.72403425
vt 0.242510065 0.757977247
vt 0.334961355 0.811140776
vt 0.311627328 0.72987628
vt 0.386182547 0.572895288
vt 0.38238579 0.644824743
vt 0.456481218 0.614415467
vt 0.392840862 0.72255981
vt 0.406660169 0.784197569
vt 0.350395352 0.856001377
vt 0.47804004 0.835428476
vt 0.392877609 0.914249301
vt 0.460125625 0.896187007
vt 0.517707586 0.912498116
vt 0.572505951 0.88866806
vt 0.471412867 0.713717818
vt 0.537573159 0.751866221
vt 0.594222605 0.796200991
vt 0.639195383 0.843215168
vt 0.685379148 0.773119569
vt 0.628813088 0.704565167
vt 0.594385386 0.649792194
vt 0.627579033 0.570783138
vt 0.531908393 0.616553009
vt 0.534685493 0.535948396
vt 0.783586621 0.668124616
vt 0.742841065 0.618921041
vt 0.669249773 0.607295275
vt 0.7164253 0.528472781
vt 0.747963548 0.423903465
vt 0.767507076 0.340700716
vt 0.732477784 0.259473562
vt 0.639282346 0.261186093
vt 0.721274376 0.195696294
vt 0.620105326 0.201668233
vt 0.783531666 0.478518426
vt 0.819154561 0.59827137
vt 0.762960076 0.556145906
vt 0.709635913 0.111520618
vt 0.617900014 0.0978989601
vt 0.670191884 0.0571002811
vt 0.724712133 0.0603327155
vt 0.815823793 0.0756847262
vt 0.613154113 0.0526260734
vt 0.500318289 0.0498099513
vt 0.529589653 0.0936207622
vt 0.466861993 0.0897806287
vt 0.464891642 0.202713028
vt 0.524688363 0.200127453
vt 0.463924229 0.0487243533
vt 0.393993378 0.092967838
vt 0.390390396 0.0536464155
vt 0.321124762 0.0961550474
vt 0.348907501 0.207721293
vt 0.316856563 0.0585684776
vt 0.274208903 0.0988411903
vt 0.26933974 0.0546390414
vt 0.221822917 0.0507096052
vt 0.214854702 0.10223949
vn -0.199589103 -0.969088316 0.14502427
vn -0 -0.901813626 0.432125121
vn -0 -0.987107337 0.160060018
vn -0.134750098 -0.877600253 0.460065484
vn -0.236495271 -0.680668831 0.693368554
vn -0 -0.759376347 0.650651574
vn -0.262228131 -0.632307649 0.728987992
vn -0 -0.757006586 0.653407276
vn -0.597244501 -0.693707883 0.402577102
vn -0.550471783 -0.834364653 0.0285733584
vn -0.742907822 -0.660447598 -0.109073564
vn -0.380239785 -0.205503374 0.901768327
vn -0 -0.356519014 0.934288025
vn -0.871342421 -0.369435132 0.322924018
vn -0.831170082 -0.540513873 -0.130388632
vn -0.864375532 -0.502809405 0.00613227347
vn -0.998748779 0.0126250517 0.0483881496
vn -0.904552579 -0.313418865 -0.289055586
vn -0.886268854 -0.00489989109 -0.463145345
vn -0.919547737 -0.0588421933 -0.388548076
vn -0.84069705 0.228339911 -0.491008461
vn -0.766973495 0.260477453 -0.586432457
vn -0.544204772 0.36225152 -0.756713271
vn -0.921940565 -0.383168846 -0.0566325225
vn -0.935306132 -0.353838474 0.000956982025
vn -0.606675744 -0.740196049 0.289921016
vn -0.871995509 -0.466595948 0.14802736
vn -0.773990214 -0.430945307 0.463923872
vn -0.569295406 -0.167029738 0.804986894
vn -0.822430313 -0.379053622 0.424177736
vn -0.30284363 -0.221550375 0.926931024
vn -0.426655114 0.221183896 0.876950979
vn -0.69763875 -0.0935315862 0.710318208
vn -0 -0.423955858 0.905682921
vn -0.907000184 -0.410099328 0.0957556814
vn -0.922604084 -0.15835993 0.351743907
vn -0.995127559 -0.0491191782 0.0854889005
vn -0.757147312 0.165214613 0.632006347
vn -0.523750901 0.514818192 0.678709984
vn -0 0.297710568 0.954656124
vn -0.386873513 0.421637177 0.820092082
vn -0 0.287844598 0.957677126
vn -0.570803702 0.650317788 0.501268387
vn -0.313235253 0.393871546 0.864146352
vn -0 0.407445014 0.913229764
vn -0.49573949 0.588493049 0.638684809
vn -0 0.732591569 0.680668473
vn -0.391971916 0.831591368 0.393463999
vn -0.341858894 0.881755114 0.325023651
vn -0 0.931948662 0.362590015
vn -0.850601554 0.418115795 0.318835557
vn -0.785128713 0.538863063 0.305285782
vn -0.438885093 0.840999305 0.316385955
vn -0.374411702 0.872926831 0.312753379
vn -0 0.90214771 0.431427121
vn -0 0.888191223 0.459473938
vn -0 0.981926501 0.189262509
vn -0.458830655 0.887996852 -0.0305949841
vn -0.762165904 0.641452789 -0.0874164477
vn -0.873459578 0.484775126 -0.0454018228
vn -0.848216891 0.424184024 -0.317168802
vn -0.929234087 0.36768207 0.0365207568
vn -0.984773159 0.0109014977 -0.173502043
vn -0 0.952037811 -0.305980384
vn -0.302621722 0.875611186 -0.376464069
vn -0.478834689 0.823468149 -0.304331481
vn -0.817727745 0.522782683 -0.240872428
vn -0.786568046 0.358445197 -0.502819777
vn -0.445891559 0.185758382 -0.875599563
vn -0.295972824 0.459492713 -0.837416589
vn -0.348566651 0.840553939 -0.414693177
vn -0.79322654 0.512852907 -0.328288645
vn -0.408020377 0.877761364 -0.251106411
vn -0.800718665 0.59638226 -0.0563723072
vn -0 0.793952763 -0.607979476
vn -0 0.540872395 -0.841104686
vn -0 0.524372339 -0.851489067
vn -0 0.973087728 -0.230435029
vn -0.170470893 0.560849786 -0.810177267
vn -0.0502662025 0.797221899 -0.601589978
vn -0 0.758276939 -0.651932538
vn -0.317070276 0.704892993 -0.634501636
vn -0.494134039 0.707205653 -0.50565964
vn -0.90967226 0.307390869 -0.279297799
vn -0.645816028 0.553298712 -0.526100993
vn -0.432586133 0.666435182 -0.607234299
vn -0.352634221 0.74872297 -0.561304748
vn -0 0.861436307 -0.507865667
vn -0.89420712 0.20573771 -0.397574514
vn -0.991294205 -0.026028201 -0.129066765
vn -0.998163044 0.0601649694 -0.00712479372
vn -0.991271257 -0.130919904 0.0155368075
vn -0.927565336 0.0268112756 0.372697681
vn -0.97265619 0.183568925 0.142275944
vn -0.964812875 -0.25998345 -0.0393037684
vn -0.94875586 -0.26722452 0.168680817
vn -0.928872764 -0.368882328 -0.033485271
vn -0.833921373 -0.504930854 0.222755268
vn -0.724367499 -0.214354306 0.655243516
vn -0.377874941 -0.502120495 0.777872443
vn -0.841764271 -0.534107387 0.078499265
vn -0 -0.649275005 0.760553658
vn -0.592400312 -0.669376731 0.448326379
vn -0.648836553 -0.740429401 0.175429687
vn -0.293863147 -0.900064051 0.321759254
vn -0.273419738 -0.783417583 0.558120608
vn -0 -0.879646003 0.475628972
vn -0 -0.938350618 0.345685065
vn 0.377874821 -0.502120614 0.777872443
vn 0.380239755 -0.205503404 0.901768327
vn 0.597244442 -0.693707883 0.402577102
vn 0.199589089 -0.969088316 0.145024255
vn 0.550471783 -0.834364653 0.0285733584
vn 0.742907822 -0.660447598 -0.109073564
vn 0.134750098 -0.877600253 0.460065484
vn 0.236495286 -0.680668831 0.693368554
vn 0.262228131 -0.632307649 0.728987932
vn 0.871342421 -0.369435132 0.322924018
vn 0.831170082 -0.540513873 -0.130388632
vn 0.864375532 -0.502809405 0.00613227347
vn 0.998748779 0.0126250517 0.0483881496
vn 0.904552579 -0.313418865 -0.289055586
vn 0.886268854 -0.00489989063 -0.463145226
vn 0.919547737 -0.0588421933 -0.388548076
vn 0.84069705 0.228339911 -0.49100855
vn 0.766973495 0.260477453 -0.586432457
vn 0.544204712 0.362251461 -0.756713331
vn 0.921940565 -0.383168846 -0.0566325262
vn 0.935306132 -0.353838444 0.000956981909
vn 0.606675744 -0.740196049 0.289921016
vn 0.773990214 -0.430945396 0.463923782
vn 0.871995509 -0.466595948 0.14802736
vn 0.822430313 -0.379053622 0.424177736
vn 0.569295406 -0.167029738 0.804986894
vn 0.30284363 -0.221550375 0.926931024
vn 0.426655114 0.221183926 0.876951098
vn 0.69763875 -0.0935315862 0.710318208
vn 0.907000184 -0.410099328 0.0957556814
vn 0.922604084 -0.1583599 0.351743907
vn 0.995127559 -0.049119167 0.0854889005
vn 0.757147312 0.165214613 0.632006347
vn 0.52375102 0.514818072 0.678709984
vn 0.386873513 0.421637177 0.820092082
vn 0.570803702 0.650317788 0.501268387
vn 0.313235223 0.393871486 0.864146352
vn 0.49573949 0.588493049 0.638684809
vn 0.391971856 0.831591368 0.393463999
vn 0.341858894 0.881755114 0.325023651
vn 0.850601554 0.418115795 0.318835557
vn 0.785128713 0.538863063 0.305285782
vn 0.438885093 0.840999305 0.316385955
vn 0.374411702 0.872926831 0.312753379
vn 0.458830655 0.887996852 -0.0305949841
vn 0.762165904 0.641452789 -0.0874164477
vn 0.873459578 0.484775126 -0.0454018228
vn 0.848216891 0.424184084 -0.317168832
vn 0.929234087 0.367682129 0.0365207642
vn 0.984773159 0.0109014781 -0.173502073
vn 0.302621663 0.875611186 -0.376464039
vn 0.478834689 0.823468149 -0.304331481
vn 0.817727745 0.522782683 -0.240872428
vn 0.786568046 0.358445197 -0.502819777
vn 0.445891559 0.185758382 -0.875599563
vn 0.295972824 0.459492713 -0.837416589
vn 0.348566651 0.840553939 -0.414693177
vn 0.79322654 0.512852907 -0.328288645
vn 0.408020377 0.877761364 -0.251106411
vn 0.800718665 0.59638226 -0.0563723072
vn 0.170470893 0.560849845 -0.810177207
vn 0.0502662025 0.797221899 -0.601589978
vn 0.317070276 0.704892993 -0.634501636
vn 0.494134009 0.707205713 -0.505659699
vn 0.90967226 0.307390898 -0.279297829
vn 0.645816028 0.553298712 -0.526100993
vn 0.432586133 0.666435182 -0.607234299
vn 0.352634221 0.74872297 -0.561304748
vn 0.89420712 0.20573771 -0.397574514
vn 0.991294205 -0.0260281973 -0.129066765
vn 0.998163044 0.0601649694 -0.00712479372
vn 0.991271257 -0.130919889 0.0155368075
vn 0.927565336 0.0268112756 0.372697681
vn 0.97265619 0.183568925 0.142275959
vn 0.964812875 -0.25998345 -0.0393037684
vn 0.94875586 -0.26722452 0.168680817
vn 0.928872764 -0.368882358 -0.033485271
vn 0.833921373 -0.504930913 0.222755298
vn 0.72436744 -0.214354321 0.655243576
vn 0.841764271 -0.534107387 0.078499265
vn 0.592400134 -0.66937685 0.448326498
vn 0.648836553 -0.740429401 0.175429687
vn 0.293863058 -0.900064051 0.321759373
vn 0.273419619 -0.783417583 0.558120668
g polySurface53_0
f 3/3/3 2/2/2 1/1/1
f 4/4/4 1/1/1 2/2/2
f 2/2/2 5/5/5 4/4/4
f 5/5/5 2/2/2 6/6/6
f 5/5/5 7/7/7 4/4/4
f 8/8/8 3/3/3 1/1/1
f 9/9/9 8/8/8 1/1/1
f 10/10/10 9/9/9 1/1/1
f 11/11/11 9/9/9 10/10/10
f 9/9/9 12/12/12 8/8/8
f 12/12/12 13/13/13 8/8/8
f 9/9/9 11/11/11 14/14/14
f 11/11/11 15/15/15 14/14/14
f 11/11/11 16/16/16 15/15/15
f 11/11/11 10/10/10 16/16/16
f 15/15/15 17/17/17 14/14/14
f 18/18/18 17/17/17 15/15/15
f 19/19/19 17/17/17 18/18/18
f 18/18/18 20/20/20 19/19/19
f 20/20/20 21/21/21 19/19/19
f 19/19/19 21/21/21 22/22/22
f 22/22/22 21/21/21 23/23/23
f 24/24/24 20/20/20 18/18/18
f 16/16/16 24/24/24 15/15/15
f 24/24/24 18/18/18 15/15/15
f 25/25/25 24/24/24 16/16/16
f 10/10/10 26/26/26 16/16/16
f 16/16/16 26/26/26 27/27/27
f 16/16/16 27/27/27 25/25/25
f 26/26/26 28/28/28 27/27/27
f 7/7/7 28/28/28 26/26/26
f 7/7/7 29/29/29 28/28/28
f 4/4/4 7/7/7 26/26/26
f 1/1/1 4/4/4 26/26/26
f 1/1/1 26/26/26 10/10/10
f 28/28/28 30/30/30 27/27/27
f 28/28/28 29/29/29 30/30/30
f 31/31/31 29/29/29 7/7/7
f 31/31/31 32/32/32 29/29/29
f 29/29/29 32/32/32 33/33/33
f 29/29/29 33/33/33 30/30/30
f 5/5/5 31/31/31 7/7/7
f 31/31/31 5/5/5 34/34/34
f 5/5/5 6/6/6 34/34/34
f 27/27/27 30/30/30 35/35/35
f 30/30/30 36/36/36 35/35/35
f 36/36/36 30/30/30 33/33/33
f 36/36/36 37/37/37 35/35/35
f 35/35/35 37/37/37 25/25/25
f 38/38/38 36/36/36 33/33/33
f 33/33/33 32/32/32 38/38/38
f 32/32/32 39/39/39 38/38/38
f 32/32/32 31/31/31 40/40/40
f 31/31/31 34/34/34 40/40/40
f 32/32/32 40/40/40 41/41/41
f 39/39/39 32/32/32 41/41/41
f 40/40/40 42/42/42 41/41/41
f 43/43/43 39/39/39 41/41/41
f 41/41/41 42/42/42 44/44/44
f 42/42/42 45/45/45 44/44/44
f 43/43/43 41/41/41 46/46/46
f 41/41/41 44/44/44 46/46/46
f 46/46/46 44/44/44 47/47/47
f 44/44/44 45/45/45 47/47/47
f 43/43/43 46/46/46 48/48/48
f 46/46/46 47/47/47 48/48/48
f 49/49/49 43/43/43 48/48/48
f 47/47/47 50/50/50 48/48/48
f 49/49/49 48/48/48 50/50/50
f 43/43/43 51/51/51 39/39/39
f 51/51/51 38/38/38 39/39/39
f 51/51/51 43/43/43 52/52/52
f 53/53/53 52/52/52 43/43/43
f 49/49/49 53/53/53 43/43/43
f 53/53/53 49/49/49 54/54/54
f 55/55/55 49/49/49 50/50/50
f 54/54/54 49/49/49 55/55/55
f 56/56/56 54/54/54 55/55/55
f 54/54/54 56/56/56 57/57/57
f 58/58/58 54/54/54 57/57/57
f 53/53/53 54/54/54 58/58/58
f 59/59/59 53/53/53 58/58/58
f 52/52/52 53/53/53 59/59/59
f 60/60/60 52/52/52 59/59/59
f 59/59/59 61/61/61 60/60/60
f 60/60/60 62/62/62 52/52/52
f 62/62/62 60/60/60 61/61/61
f 62/62/62 51/51/51 52/52/52
f 62/62/62 37/37/37 51/51/51
f 37/37/37 36/36/36 51/51/51
f 36/36/36 38/38/38 51/51/51
f 37/37/37 62/62/62 63/63/63
f 63/63/63 62/62/62 61/61/61
f 25/25/25 37/37/37 63/63/63
f 25/25/25 63/63/63 24/24/24
f 63/63/63 20/20/20 24/24/24
f 58/58/58 57/57/57 64/64/64
f 65/65/65 58/58/58 64/64/64
f 66/66/66 58/58/58 65/65/65
f 67/67/67 58/58/58 66/66/66
f 67/67/67 61/61/61 59/59/59
f 58/58/58 67/67/67 59/59/59
f 67/67/67 21/21/21 61/61/61
f 20/20/20 63/63/63 21/21/21
f 63/63/63 61/61/61 21/21/21
f 21/21/21 67/67/67 68/68/68
f 67/67/67 66/66/66 68/68/68
f 21/21/21 68/68/68 69/69/69
f 23/23/23 21/21/21 69/69/69
f 23/23/23 69/69/69 70/70/70
f 70/70/70 71/71/71 23/23/23
f 71/71/71 72/72/72 23/23/23
f 72/72/72 22/22/22 23/23/23
f 19/19/19 22/22/22 72/72/72
f 17/17/17 19/19/19 72/72/72
f 72/72/72 71/71/71 73/73/73
f 74/74/74 72/72/72 73/73/73
f 17/17/17 72/72/72 74/74/74
f 71/71/71 70/70/70 75/75/75
f 70/70/70 76/76/76 75/75/75
f 70/70/70 77/77/77 76/76/76
f 70/70/70 69/69/69 77/77/77
f 73/73/73 71/71/71 78/78/78
f 71/71/71 75/75/75 78/78/78
f 69/69/69 79/79/79 77/77/77
f 69/69/69 68/68/68 79/79/79
f 77/77/77 79/79/79 80/80/80
f 81/81/81 77/77/77 80/80/80
f 79/79/79 82/82/82 80/80/80
f 68/68/68 82/82/82 79/79/79
f 66/66/66 82/82/82 68/68/68
f 82/82/82 66/66/66 80/80/80
f 66/66/66 65/65/65 80/80/80
f 81/81/81 80/80/80 65/65/65
f 64/64/64 81/81/81 65/65/65
f 74/74/74 73/73/73 83/83/83
f 84/84/84 74/74/74 83/83/83
f 83/83/83 85/85/85 84/84/84
f 83/83/83 86/86/86 85/85/85
f 86/86/86 83/83/83 87/87/87
f 83/83/83 88/88/88 87/87/87
f 83/83/83 73/73/73 88/88/88
f 73/73/73 78/78/78 88/88/88
f 85/85/85 89/89/89 84/84/84
f 84/84/84 89/89/89 90/90/90
f 91/91/91 84/84/84 90/90/90
f 91/91/91 90/90/90 92/92/92
f 92/92/92 93/93/93 91/91/91
f 93/93/93 94/94/94 91/91/91
f 91/91/91 94/94/94 84/84/84
f 93/93/93 17/17/17 94/94/94
f 90/90/90 95/95/95 92/92/92
f 96/96/96 93/93/93 92/92/92
f 96/96/96 92/92/92 97/97/97
f 92/92/92 95/95/95 97/97/97
f 96/96/96 97/97/97 98/98/98
f 98/98/98 99/99/99 96/96/96
f 96/96/96 99/99/99 93/93/93
f 99/99/99 14/14/14 93/93/93
f 14/14/14 17/17/17 93/93/93
f 9/9/9 14/14/14 99/99/99
f 12/12/12 9/9/9 99/99/99
f 99/99/99 100/100/100 12/12/12
f 97/97/97 101/101/101 98/98/98
f 12/12/12 100/100/100 13/13/13
f 100/100/100 102/102/102 13/13/13
f 99/99/99 98/98/98 103/103/103
f 99/99/99 103/103/103 100/100/100
f 103/103/103 98/98/98 104/104/104
f 98/98/98 101/101/101 104/104/104
f 103/103/103 104/104/104 105/105/105
f 106/106/106 103/103/103 105/105/105
f 103/103/103 106/106/106 100/100/100
f 100/100/100 106/106/106 102/102/102
f 107/107/107 106/106/106 105/105/105
f 106/106/106 107/107/107 102/102/102
f 108/108/108 107/107/107 105/105/105
f 102/102/102 109/109/109 13/13/13
f 109/109/109 110/110/110 13/13/13
f 13/13/13 110/110/110 8/8/8
f 110/110/110 111/111/111 8/8/8
f 8/8/8 111/111/111 112/112/112
f 111/111/111 113/113/113 112/112/112
f 111/111/111 114/114/114 113/113/113
f 3/3/3 8/8/8 112/112/112
f 2/2/2 3/3/3 112/112/112
f 112/112/112 115/115/115 2/2/2
f 116/116/116 2/2/2 115/115/115
f 2/2/2 116/116/116 6/6/6
f 117/117/117 116/116/116 115/115/115
f 114/114/114 111/111/111 118/118/118
f 119/119/119 114/114/114 118/118/118
f 120/120/120 114/114/114 119/119/119
f 113/113/113 114/114/114 120/120/120
f 121/121/121 119/119/119 118/118/118
f 121/121/121 122/122/122 119/119/119
f 121/121/121 123/123/123 122/122/122
f 124/124/124 122/122/122 123/123/123
f 125/125/125 124/124/124 123/123/123
f 125/125/125 123/123/123 126/126/126
f 125/125/125 126/126/126 127/127/127
f 124/124/124 128/128/128 122/122/122
f 122/122/122 128/128/128 119/119/119
f 128/128/128 120/120/120 119/119/119
f 128/128/128 129/129/129 120/120/120
f 117/117/117 115/115/115 130/130/130
f 115/115/115 112/112/112 130/130/130
f 131/131/131 117/117/117 130/130/130
f 130/130/130 113/113/113 120/120/120
f 130/130/130 112/112/112 113/113/113
f 131/131/131 130/130/130 132/132/132
f 130/130/130 120/120/120 132/132/132
f 132/132/132 120/120/120 129/129/129
f 133/133/133 131/131/131 132/132/132
f 134/134/134 131/131/131 133/133/133
f 134/134/134 117/117/117 131/131/131
f 134/134/134 135/135/135 117/117/117
f 136/136/136 135/135/135 134/134/134
f 136/136/136 134/134/134 137/137/137
f 137/137/137 134/134/134 133/133/133
f 135/135/135 116/116/116 117/117/117
f 116/116/116 135/135/135 34/34/34
f 6/6/6 116/116/116 34/34/34
f 133/133/133 132/132/132 138/138/138
f 139/139/139 133/133/133 138/138/138
f 133/133/133 139/139/139 137/137/137
f 140/140/140 139/139/139 138/138/138
f 140/140/140 138/138/138 129/129/129
f 138/138/138 132/132/132 129/129/129
f 139/139/139 141/141/141 137/137/137
f 136/136/136 137/137/137 141/141/141
f 142/142/142 136/136/136 141/141/141
f 34/34/34 135/135/135 40/40/40
f 135/135/135 136/136/136 40/40/40
f 40/40/40 136/136/136 143/143/143
f 136/136/136 142/142/142 143/143/143
f 42/42/42 40/40/40 143/143/143
f 142/142/142 144/144/144 143/143/143
f 42/42/42 143/143/143 145/145/145
f 45/45/45 42/42/42 145/145/145
f 145/145/145 143/143/143 146/146/146
f 143/143/143 144/144/144 146/146/146
f 45/45/45 145/145/145 47/47/47
f 145/145/145 146/146/146 47/47/47
f 146/146/146 144/144/144 147/147/147
f 47/47/47 146/146/146 147/147/147
f 144/144/144 148/148/148 147/147/147
f 50/50/50 47/47/47 147/147/147
f 147/147/147 148/148/148 50/50/50
f 141/141/141 149/149/149 142/142/142
f 149/149/149 144/144/144 142/142/142
f 144/144/144 149/149/149 150/150/150
f 150/150/150 151/151/151 144/144/144
f 151/151/151 148/148/148 144/144/144
f 148/148/148 151/151/151 152/152/152
f 148/148/148 55/55/55 50/50/50
f 148/148/148 152/152/152 55/55/55
f 152/152/152 56/56/56 55/55/55
f 56/56/56 152/152/152 57/57/57
f 152/152/152 153/153/153 57/57/57
f 152/152/152 151/151/151 153/153/153
f 151/151/151 154/154/154 153/153/153
f 151/151/151 150/150/150 154/154/154
f 150/150/150 155/155/155 154/154/154
f 156/156/156 154/154/154 155/155/155
f 157/157/157 155/155/155 150/150/150
f 155/155/155 157/157/157 156/156/156
f 149/149/149 157/157/157 150/150/150
f 140/140/140 157/157/157 149/149/149
f 139/139/139 140/140/140 149/149/149
f 141/141/141 139/139/139 149/149/149
f 157/157/157 140/140/140 158/158/158
f 157/157/157 158/158/158 156/156/156
f 140/140/140 129/129/129 158/158/158
f 158/158/158 129/129/129 128/128/128
f 124/124/124 158/158/158 128/128/128
f 57/57/57 153/153/153 64/64/64
f 153/153/153 159/159/159 64/64/64
f 153/153/153 160/160/160 159/159/159
f 153/153/153 161/161/161 160/160/160
f 156/156/156 161/161/161 154/154/154
f 161/161/161 153/153/153 154/154/154
f 125/125/125 161/161/161 156/156/156
f 156/156/156 158/158/158 125/125/125
f 158/158/158 124/124/124 125/125/125
f 161/161/161 125/125/125 162/162/162
f 160/160/160 161/161/161 162/162/162
f 162/162/162 125/125/125 163/163/163
f 125/125/125 127/127/127 163/163/163
f 163/163/163 127/127/127 164/164/164
f 165/165/165 164/164/164 127/127/127
f 166/166/166 165/165/165 127/127/127
f 126/126/126 166/166/166 127/127/127
f 126/126/126 123/123/123 166/166/166
f 123/123/123 121/121/121 166/166/166
f 165/165/165 166/166/166 167/167/167
f 166/166/166 168/168/168 167/167/167
f 166/166/166 121/121/121 168/168/168
f 164/164/164 165/165/165 75/75/75
f 76/76/76 164/164/164 75/75/75
f 77/77/77 164/164/164 76/76/76
f 163/163/163 164/164/164 77/77/77
f 75/75/75 165/165/165 78/78/78
f 165/165/165 167/167/167 78/78/78
f 169/169/169 163/163/163 77/77/77
f 162/162/162 163/163/163 169/169/169
f 169/169/169 77/77/77 170/170/170
f 77/77/77 81/81/81 170/170/170
f 171/171/171 169/169/169 170/170/170
f 171/171/171 162/162/162 169/169/169
f 171/171/171 160/160/160 162/162/162
f 160/160/160 171/171/171 170/170/170
f 159/159/159 160/160/160 170/170/170
f 170/170/170 81/81/81 159/159/159
f 81/81/81 64/64/64 159/159/159
f 167/167/167 168/168/168 172/172/172
f 168/168/168 173/173/173 172/172/172
f 174/174/174 172/172/172 173/173/173
f 175/175/175 172/172/172 174/174/174
f 172/172/172 175/175/175 176/176/176
f 88/88/88 172/172/172 176/176/176
f 167/167/167 172/172/172 88/88/88
f 78/78/78 167/167/167 88/88/88
f 177/177/177 174/174/174 173/173/173
f 177/177/177 173/173/173 178/178/178
f 173/173/173 179/179/179 178/178/178
f 178/178/178 179/179/179 180/180/180
f 181/181/181 180/180/180 179/179/179
f 182/182/182 181/181/181 179/179/179
f 182/182/182 179/179/179 173/173/173
f 121/121/121 181/181/181 182/182/182
f 183/183/183 178/178/178 180/180/180
f 181/181/181 184/184/184 180/180/180
f 183/183/183 180/180/180 185/185/185
f 180/180/180 184/184/184 185/185/185
f 185/185/185 184/184/184 186/186/186
f 187/187/187 186/186/186 184/184/184
f 187/187/187 184/184/184 181/181/181
f 118/118/118 187/187/187 181/181/181
f 121/121/121 118/118/118 181/181/181
f 118/118/118 111/111/111 187/187/187
f 111/111/111 110/110/110 187/187/187
f 109/109/109 187/187/187 110/110/110
f 188/188/188 185/185/185 186/186/186
f 186/186/186 187/187/187 189/189/189
f 189/189/189 187/187/187 109/109/109
f 188/188/188 186/186/186 190/190/190
f 186/186/186 189/189/189 190/190/190
f 190/190/190 189/189/189 191/191/191
f 189/189/189 192/192/192 191/191/191
f 192/192/192 189/189/189 109/109/109
f 192/192/192 107/107/107 191/191/191
f 107/107/107 108/108/108 191/191/191
f 107/107/107 192/192/192 102/102/102
f 192/192/192 109/109/109 102/102/102
f 27/27/27 35/35/35 25/25/25
f 94/94/94 17/17/17 74/74/74
f 94/94/94 74/74/74 84/84/84
f 121/121/121 182/182/182 168/168/168
f 168/168/168 182/182/182 173/173/173
