g polySurface98
v -0.00829284638 0.0737646446 -0.133231506
v -0.0186489858 0.031604927 -0.0217144769
v -0.0343157947 0.0714947283 -0.13713257
v -0.000832824677 0.0406149179 -0.0200604238
v -0.0234320071 0.00859467499 -0.0238034055
v -0.0466268919 0.02405487 -0.162591547
v -0.0191180408 -0.0101351924 -0.0257666018
v -0.0360360704 -0.0263653565 -0.152085572
v -0.002604065 -0.0239950549 -0.0270785522
v -0.01023407 -0.0356451422 -0.144967645
v 0.0100479126 -0.0173751824 -0.0273873899
v 0.0111630242 -0.0246353149 -0.125733644
v 0.0125448601 0.0734048411 -0.116594538
v 0.0108349603 -0.0345651247 0.405577391
v -0.0098699946 -0.0285351742 0.405734539
v -0.024960937 -0.0123650925 0.406400442
v -0.0303939804 0.00961486809 0.407396525
v -0.024714049 0.0315246396 0.408456415
v -0.00944305398 0.0474746488 0.409296572
v -0.0397540256 0.010174904 0.746887505
v -0.0323089585 0.0392148197 0.753536344
v -0.0162628163 0.0604547486 0.761775494
v 0.0113269044 0.0532147214 0.409690529
v 0.0109851072 0.0377847366 -0.0192834474
v 0.0125448601 0.0734048411 -0.116594538
v 0.011430053 0.0682046488 0.766519427
v 0.011322937 -0.0479952991 0.765695453
v -0.0163558964 -0.0401751325 0.761062622
v -0.0323620588 -0.0188851543 0.75312531
v 0.0114620971 -0.0600350946 0.812814593
v -0.0223419182 -0.0506152324 0.806640625
v -0.0223419182 -0.0506152324 0.806640625
v -0.0470880121 -0.0248651113 0.798287332
v -0.0602130108 0.0103149414 0.797103584
v -0.0470880121 0.0454849228 0.806442559
v -0.0223419182 0.0712347403 0.818151534
v 0.0114620971 0.080664672 0.824918509
v 0.0111630242 -0.0246353149 -0.125733644
v 0.022825012 -0.0245651249 -0.0266116336
v 0.0321350098 -0.0361453258 -0.146311641
v 0.0111630242 -0.0246353149 -0.125733644
v 0.0100479126 -0.0173751824 -0.0273873899
v 0.0316052251 -0.0288250539 0.405972272
v 0.0468771346 -0.0128652761 0.406811506
v 0.039682921 -0.0111251827 -0.0249566641
v 0.0321350098 -0.0361453258 -0.146311641
v 0.0583880618 -0.0272653196 -0.150920406
v 0.044465024 0.00744476309 -0.0228686519
v 0.0651568621 0.0225848388 -0.161596671
v 0.0401510596 0.0306149293 -0.0209054556
v 0.05560394 0.0707147196 -0.137348637
v 0.0226782225 0.0400347784 -0.0195935052
v 0.029186096 0.0732546821 -0.133233637
v 0.0109851072 0.0377847366 -0.0192834474
v 0.0125448601 0.0734048411 -0.116594538
v 0.0471231081 0.0310146902 0.408867478
v 0.0525558442 0.00903472863 0.407871395
v 0.0108349603 -0.0345651247 0.405577391
v 0.0113269044 0.0532147214 0.409690529
v 0.0320321657 0.0471847542 0.409533381
v 0.011430053 0.0682046488 0.766519427
v 0.0391088873 0.0603948943 0.761823416
v 0.0593560785 0.0391049571 0.753619373
v 0.0667480454 0.0100448607 0.746982396
v 0.0593029782 -0.0189950559 0.753207386
v 0.0390151963 -0.0402352512 0.761110544
v 0.011322937 -0.0479952991 0.765695453
v 0.0452648923 -0.0506152324 0.806640625
v 0.0114620971 -0.0600350946 0.812814593
v 0.0114620971 0.080664672 0.824918509
v 0.0452648923 0.0712347403 0.818151534
v 0.0452648923 0.0712347403 0.818151534
v 0.0700109825 0.0454849228 0.806442559
v 0.0790090933 0.0105447387 0.797165513
v 0.0700109825 -0.0248651113 0.798287332
v 0.0117709348 0.0184747316 -0.141759634
v -0.00923004095 0.0215347279 -0.161759645
v -0.0251718126 0.0224746708 -0.165435478
v -0.00923004095 0.0215347279 -0.161759645
v -0.00923004095 0.0215347279 -0.161759645
v 0.0117709348 0.0184747316 -0.141759634
v 0.0125448601 0.0734048411 -0.116594538
v 0.0265240464 0.0194448847 -0.161475524
v 0.0125448601 0.0734048411 -0.116594538
v 0.0117709348 0.0184747316 -0.141759634
v 0.0410379022 0.021014709 -0.167468563
v 0.0265240464 0.0194448847 -0.161475524
v 0.0125448601 0.0734048411 -0.116594538
v 0.0117709348 0.0184747316 -0.141759634
v 0.0114620971 0.0126547236 0.83714354
v -0.0223419182 -0.0506152324 0.806640625
v -0.0223419182 0.00640472397 0.823467374
v 0.0114620971 -0.0600350946 0.812814593
v 0.0452648923 0.014904785 0.823479593
v 0.0452648923 -0.0506152324 0.806640625
v 0.0700109825 0.013604736 0.806442559
v 0.0700109825 -0.0248651113 0.798287332
v 0.0790090933 0.0105447387 0.797165513
v 0.0700109825 0.0454849228 0.806442559
v 0.0452648923 0.0712347403 0.818151534
v 0.0114620971 0.080664672 0.824918509
v -0.0470880121 -0.0248651113 0.798287332
v -0.0407369994 0.00700469967 0.805157423
v -0.0223419182 -0.0506152324 0.806640625
v -0.0602130108 0.0103149414 0.797103584
v -0.0223419182 0.0712347403 0.818151534
v 0.0114620971 0.080664672 0.824918509
v -0.0470880121 0.0454849228 0.806442559
v 0.0452648923 0.0712347403 0.818151534
v 0.0863040164 0.0967046916 0.517040372
v -0.0521929935 0.101144694 0.493067324
v -0.0567550659 0.09794496 0.515898407
v 0.0795080513 0.0999947935 0.494117409
v 0.133377984 0.0476047136 0.516473353
v -0.104658812 0.0496746823 0.514575481
v 0.0707260147 0.151494727 0.488147587
v -0.042424012 0.152474642 0.487244546
v -0.0983731076 0.0112149427 0.528024614
v 0.126210019 0.00926486962 0.529815376
v -0.0917788669 -0.0503652953 0.514372528
v 0.118767999 -0.0521951281 0.516050398
v 0.0122311395 -0.116025046 0.512098372
v -0.069291994 -0.0967251211 0.518973351
v 0.0953298956 -0.0981552079 0.520285308
v 0.0707260147 0.151494727 0.488147587
v -0.0164709464 0.192054763 0.49543944
v 0.0453359969 0.191514909 0.495933533
v 0.0149429319 0.189724743 0.607269287
v -0.00250213617 0.180834636 0.571834385
v 0.0326110832 0.18042478 0.572197556
v -0.0164709464 0.192054763 0.49543944
v 0.0453359969 0.191514909 0.495933533
v 0.079700008 0.138074622 0.532877505
v 0.0707260147 0.151494727 0.488147587
v 0.0473629758 0.156914681 0.586568594
v 0.0796499625 0.148244947 0.573534548
v 0.0863040164 0.0967046916 0.517040372
v 0.0795080513 0.0999947935 0.494117409
v 0.106795959 0.136444718 0.574346304
v 0.127435908 0.127564713 0.533221424
v 0.110332027 0.126454815 0.596719325
v 0.0741479471 0.122314759 0.605089426
v 0.0434921272 0.155594826 0.617929339
v 0.12898986 0.0838849023 0.526586294
v 0.133377984 0.0476047136 0.516473353
v 0.134863883 0.071414791 0.607067525
v 0.147106022 0.0946747214 0.546654344
v 0.122515865 0.125184938 0.639976501
v 0.106853023 0.137664825 0.619005442
v 0.0858792067 0.153484792 0.633588552
v 0.145516962 0.00161472312 0.547817349
v 0.133377984 0.0476047136 0.516473353
v 0.140834957 -0.00851531979 0.598011434
v 0.0979290754 0.141144753 0.652045608
v 0.134446099 0.062824741 0.688341379
v 0.13978301 -0.020005187 0.680614293
v 0.0568719469 0.157324821 0.661423326
v 0.0633261129 0.159244686 0.637028515
v 0.101563111 0.109094888 0.713555276
v 0.0137429805 0.0821347386 0.746670544
v 0.0141189573 0.157734677 0.664372563
v 0.0144799799 0.164854765 0.626875579
v 0.0149429319 0.189724743 0.607269287
v 0.102344051 0.0515448004 0.755080521
v 0.0468740836 0.0653948933 0.757915616
v 0.101263121 -0.0330950543 0.744309366
v 0.079592891 -0.000845298753 0.755999446
v 0.130610049 -0.0971752554 0.658883333
v 0.0836160257 -0.0900152177 0.722454488
v 0.0110601801 -0.0835552961 0.728941619
v 0.109751888 -0.145785213 0.641406536
v 0.0113900751 -0.154515028 0.647221386
v 0.111243896 -0.1348553 0.559337437
v 0.134822085 -0.0838250741 0.571525574
v 0.118767999 -0.0521951281 0.516050398
v 0.0122570796 -0.156685174 0.5556674
v 0.0953298956 -0.0981552079 0.520285308
v 0.0122311395 -0.116025046 0.512098372
v 0.0122570796 -0.156685174 0.5556674
v 0.126210019 0.00926486962 0.529815376
v 0.133377984 0.0476047136 0.516473353
v -0.09980499 0.0858648494 0.524762571
v -0.104658812 0.0496746823 0.514575481
v -0.0567550659 0.09794496 0.515898407
v -0.0496881083 0.139194921 0.531844497
v -0.042424012 0.152474642 0.487244546
v -0.0170840453 0.15819487 0.585194409
v -0.0505587757 0.149894685 0.571021438
v -0.0521929935 0.101144694 0.493067324
v -0.0789340213 0.138244912 0.571330547
v -0.0975979567 0.129514784 0.53142637
v -0.0830648765 0.127944976 0.594497383
v -0.0456649773 0.122854955 0.603901327
v -0.0135220336 0.156734958 0.617844522
v -0.10717193 0.0738348737 0.604906619
v -0.118046872 0.0969747677 0.544540405
v -0.0944241285 0.127104834 0.638221443
v -0.0796020478 0.139524877 0.617716372
v -0.057792969 0.155484959 0.633277297
v -0.118092038 0.00390472403 0.54571563
v -0.104658812 0.0496746823 0.514575481
v -0.114386901 -0.00619506836 0.595900536
v -0.069758907 0.142604679 0.650707364
v -0.108201899 0.0651046708 0.686272562
v -0.11485412 -0.01772522 0.678533316
v -0.0285818484 0.158074647 0.660742462
v -0.0343350209 0.160964698 0.63729459
v -0.0749301165 0.110624731 0.712148428
v 0.0149429319 0.189724743 0.607269287
v -0.0773709118 0.0531048961 0.753647447
v -0.0475588962 0.0606448352 0.757794499
v -0.077709958 -0.0315353014 0.742881477
v -0.0475588962 0.0606448352 0.757794499
v -0.0431307964 -0.0221352763 0.755346358
v -0.106673889 -0.0949050486 0.65683043
v -0.061057128 -0.0836853012 0.721039414
v 0.0110601801 -0.0835552961 0.728941619
v -0.0863900706 -0.144085035 0.639841318
v 0.0113900751 -0.154515028 0.647221386
v -0.0863830522 -0.133145094 0.55776155
v -0.109262995 -0.0817053169 0.569578528
v -0.0917788669 -0.0503652953 0.514372528
v 0.0122570796 -0.156685174 0.5556674
v -0.069291994 -0.0967251211 0.518973351
v 0.0122311395 -0.116025046 0.512098372
v 0.0122570796 -0.156685174 0.5556674
v -0.0983731076 0.0112149427 0.528024614
v -0.104658812 0.0496746823 0.514575481
v 0.138455197 -0.0136053078 0.502239347
v 0.0187710561 0.00983489957 0.520380557
v 0.138454899 0.00983493775 0.502239347
v 0.1359732 0.00983489957 0.47479248
v 0.202272028 0.0366147235 0.494461358
v 0.199872121 0.0366147049 0.467911363
v 0.135972902 -0.013605346 0.47479248
v 0.21819213 0.0175949465 0.493022442
v 0.28987214 0.11598482 0.474663377
v 0.138455197 -0.0136053078 0.502239347
v 0.0187710561 -0.013605346 0.520380557
v 0.1359732 0.00983489957 0.47479248
v 0.0149670411 0.00983493775 0.478314489
v 0.0149670411 -0.0136053078 0.478314489
v 0.0149670411 0.00983493775 0.478314489
v 0.0149670411 -0.0136053078 0.478314489
v 0.135972902 -0.013605346 0.47479248
v 0.138455197 -0.0136053078 0.502239347
v 0.0187710561 -0.013605346 0.520380557
v 0.215791926 0.0175948907 0.466472477
v 0.28987214 0.11598482 0.474663377
v 0.21819213 0.0175949465 0.493022442
v 0.215791926 0.0175948907 0.466472477
v 0.28987214 0.11598482 0.474663377
v 0.138455197 -0.0136053078 0.502239347
v 0.135972902 -0.013605346 0.47479248
v 0.118257135 0.0147747612 0.438849479
v 0.038275145 0.0128848068 0.451787412
v 0.113730162 0.0324746706 0.439258426
v 0.0428021215 -0.00481506344 0.451378465
v 0.111795038 0.0324746519 0.417860389
v 0.0353091434 0.0128848264 0.418991387
v 0.148819879 0.0631149113 0.434520572
v 0.146947935 0.0631149113 0.413821399
v 0.116322935 0.0147747798 0.417451471
v 0.162542105 0.0513448901 0.433280319
v 0.188622132 0.137484759 0.421661377
v 0.0398361199 -0.00481504435 0.418582439
v 0.116322935 0.0147747798 0.417451471
v 0.118257135 0.0147747612 0.438849479
v 0.0428021215 -0.00481506344 0.451378465
v 0.160671994 0.0513448901 0.412581474
v 0.118257135 0.0147747612 0.438849479
v 0.160671994 0.0513448901 0.412581474
v 0.162542105 0.0513448901 0.433280319
v 0.188622132 0.137484759 0.421661377
v 0.0398361199 -0.00481504435 0.418582439
v 0.111795038 0.0324746519 0.417860389
v 0.0353091434 0.0128848264 0.418991387
v -0.118690796 -0.0136053078 0.499216288
v -0.019320067 0.00983489957 0.519194603
v -0.019320067 -0.013605346 0.519194305
v -0.118691102 0.00983493775 0.499216616
v -0.117062986 0.00983493775 0.471847534
v -0.0168249514 0.00983489957 0.477246374
v -0.171650991 0.0366147235 0.490456522
v -0.170075983 0.0366146639 0.463981628
v -0.117062986 -0.0136053078 0.471847534
v -0.184847102 0.0175949093 0.488772571
v -0.184847102 0.0175949093 0.488772571
v -0.244477838 0.115984783 0.469323456
v -0.244477838 0.115984783 0.469323456
v -0.0168249514 -0.013605346 0.477246374
v -0.117062986 -0.0136053078 0.471847534
v -0.118690796 -0.0136053078 0.499216288
v -0.019320067 -0.013605346 0.519194305
v -0.183273003 0.0175949279 0.46229735
v -0.244477838 0.115984783 0.469323456
v -0.0168249514 -0.013605346 0.477246374
v -0.0168249514 0.00983489957 0.477246374
v -0.183273003 0.0175949279 0.46229735
v -0.184847102 0.0175949093 0.488772571
v -0.118690796 -0.0136053078 0.499216288
v -0.117062986 -0.0136053078 0.471847534
v -0.184847102 0.0175949093 0.488772571
v -0.244477838 0.115984783 0.469323456
v -0.0949240103 0.0112149045 0.416702569
v -0.0132278437 0.0234848019 0.438277572
v -0.0215710439 0.000664672814 0.439032584
v -0.0865808055 0.0340447798 0.41594848
v -0.0860470533 0.033604756 0.388677359
v -0.012409973 0.0228048693 0.396482527
v -0.116096802 0.0657647699 0.405068338
v -0.115581051 0.0653347746 0.378688335
v -0.0943899527 0.0107748602 0.389431447
v -0.0207528677 -1.5277863E-05 0.397236317
v -0.012409973 0.0228048693 0.396482527
v -0.0949240103 0.0112149045 0.416702569
v -0.0215710439 0.000664672814 0.439032584
v -0.132070005 0.0482247733 0.377301335
v -0.132586062 0.0486547649 0.403681636
v -0.141762078 0.150734857 0.379671633
v -0.132070005 0.0482247733 0.377301335
v -0.132586062 0.0486547649 0.403681636
v -0.0949240103 0.0112149045 0.416702569
v -0.0943899527 0.0107748602 0.389431447
v -0.116096802 0.0657647699 0.405068338
v -0.141762078 0.150734857 0.379671633
v -0.0865808055 0.0340447798 0.41594848
v -0.132586062 0.0486547649 0.403681636
v -0.141762078 0.150734857 0.379671633
v -0.132586062 0.0486547649 0.403681636
v -0.141762078 0.150734857 0.379671633
v 0.247591853 0.0109048458 0.684966445
v 0.194111928 0.0364147946 0.675501406
v 0.247741997 0.048434753 0.665679634
v 0.194092095 0.0105649186 0.684048474
v 0.31398192 0.0115347672 0.666998565
v 0.0310659781 0.0473147556 0.67934233
v 0.031036986 0.0096448129 0.692369342
v 0.194402158 -0.0147152329 0.675572515
v 0.0315020755 -0.0271752924 0.679445505
v 0.248182058 -0.0261352155 0.665783346
v 0.31398192 0.0115347672 0.666998565
v 0.248182058 -0.0261352155 0.665783346
v 0.194822073 -0.0147451395 0.653909564
v 0.248332202 0.0107546998 0.646498382
v 0.194841921 0.0106848143 0.645362556
v 0.248182058 -0.0261352155 0.665783346
v 0.313931882 0.0115148919 0.666992486
v 0.0321649164 -0.0272253416 0.644904494
v 0.0321969613 0.00982486736 0.631877422
v 0.194522098 0.036384888 0.653838515
v 0.0317291245 0.0472647101 0.644801319
v 0.247741997 0.048434753 0.665679634
v 0.31398192 0.0115347672 0.666998565
v 0.247741997 0.048434753 0.665679634
v 0.194111928 0.0364147946 0.675501406
v 0.194522098 0.036384888 0.653838515
v 0.194111928 0.0364147946 0.675501406
v 0.0317291245 0.0472647101 0.644801319
v 0.0310659781 0.0473147556 0.67934233
v 0.194822073 -0.0147451395 0.653909564
v 0.194402158 -0.0147152329 0.675572515
v 0.248182058 -0.0261352155 0.665783346
v 0.0321649164 -0.0272253416 0.644904494
v 0.194402158 -0.0147152329 0.675572515
v 0.0315020755 -0.0271752924 0.679445505
v 0.248182058 -0.0261352155 0.665783346
v 0.31398192 0.0115347672 0.666998565
v 0.313931882 0.0115148919 0.666992486
v 0.248332202 0.0107546998 0.646498382
v 0.313931882 0.0115148919 0.666992486
v 0.31398192 0.0115347672 0.666998565
v 0.00836303737 -0.311395228 0.683954477
v 0.0362829566 -0.257955313 0.675983548
v 0.0459191874 -0.311555177 0.664717376
v 0.0083120726 -0.257875025 0.685188293
v 0.00863525365 -0.469185144 0.665272534
v 0.0521389768 -0.0148250954 0.683312356
v 0.00812591519 -0.0146950912 0.698470414
v -0.0190130603 -0.257955313 0.675983548
v -0.0348690785 -0.0148250954 0.683312356
v -0.028648071 -0.311555177 0.664717376
v -0.0190130603 -0.257955313 0.675983548
v 0.00863525365 -0.469185144 0.665272534
v -0.0190130603 -0.258155197 0.65255338
v 0.00826721173 -0.311715066 0.645480335
v 0.00849792454 -0.258225083 0.643347442
v -0.028648071 -0.311555177 0.664717376
v 0.00860778801 -0.469145507 0.665266395
v -0.0348690785 -0.015155334 0.642963529
v 0.00841888413 -0.0152853392 0.627805471
v 0.0362829566 -0.258155197 0.65255338
v 0.0521389768 -0.015155334 0.642963529
v 0.0459191874 -0.311555177 0.664717376
v 0.00863525365 -0.469185144 0.665272534
v 0.0459191874 -0.311555177 0.664717376
v 0.0362829566 -0.257955313 0.675983548
v 0.0362829566 -0.258155197 0.65255338
v 0.0362829566 -0.257955313 0.675983548
v 0.0521389768 -0.015155334 0.642963529
v 0.0521389768 -0.0148250954 0.683312356
v -0.0190130603 -0.258155197 0.65255338
v -0.0190130603 -0.257955313 0.675983548
v -0.028648071 -0.311555177 0.664717376
v -0.0348690785 -0.015155334 0.642963529
v -0.0190130603 -0.257955313 0.675983548
v -0.0348690785 -0.0148250954 0.683312356
v -0.028648071 -0.311555177 0.664717376
v 0.00863525365 -0.469185144 0.665272534
v 0.00860778801 -0.469145507 0.665266395
v 0.00826721173 -0.311715066 0.645480335
v 0.00860778801 -0.469145507 0.665266395
v 0.00863525365 -0.469185144 0.665272534
v -0.247519836 0.010614967 0.685357332
v -0.194216922 -0.0159152225 0.675726593
v -0.247969046 -0.0267053209 0.66567564
v -0.194011837 0.0106549449 0.684824526
v -0.0312170405 -0.0286550522 0.679178476
v -0.0309008788 0.0105347056 0.69320035
v -0.194216922 0.0368246436 0.676360488
v -0.0312170405 0.0491449349 0.680113494
v -0.247969046 0.0478549562 0.666570425
v -0.247969046 -0.0267053209 0.66567564
v -0.31398192 0.0105548091 0.667664468
v -0.31398192 0.0105548091 0.667664468
v -0.247969046 0.0478549562 0.666570425
v -0.194737852 0.0370846912 0.654020369
v -0.248417959 0.0111749647 0.646896362
v -0.194942921 0.0109549332 0.644927382
v -0.247969046 0.0478549562 0.666570425
v -0.313934028 0.0105847549 0.667658389
v -0.032059934 0.0495748892 0.644044459
v -0.0323757939 0.0110348891 0.630030513
v -0.194737852 -0.0156451035 0.653387427
v -0.032059934 -0.0282250587 0.643109441
v -0.247969046 -0.0267053209 0.66567564
v -0.31398192 0.0105548091 0.667664468
v -0.247969046 -0.0267053209 0.66567564
v -0.194216922 -0.0159152225 0.675726593
v -0.194737852 -0.0156451035 0.653387427
v -0.194216922 -0.0159152225 0.675726593
v -0.032059934 -0.0282250587 0.643109441
v -0.0312170405 -0.0286550522 0.679178476
v -0.194737852 0.0370846912 0.654020369
v -0.194216922 0.0368246436 0.676360488
v -0.247969046 0.0478549562 0.666570425
v -0.032059934 0.0495748892 0.644044459
v -0.194216922 0.0368246436 0.676360488
v -0.0312170405 0.0491449349 0.680113494
v -0.247969046 0.0478549562 0.666570425
v -0.31398192 0.0105548091 0.667664468
v -0.313934028 0.0105847549 0.667658389
v -0.248417959 0.0111749647 0.646896362
v -0.313934028 0.0105847549 0.667658389
v -0.31398192 0.0105548091 0.667664468
v 0.0127432244 0.326154768 0.711651623
v -0.0149499504 0.273184836 0.699461341
v -0.0245037843 0.32741484 0.691862464
v 0.0122192381 0.469184875 0.697154522
v 0.013312988 0.272664756 0.709248662
v -0.0149499504 0.273184836 0.699461341
v -0.0203878786 0.0300646964 0.688328564
v 0.0157431029 0.0292047113 0.704164386
v 0.0412121564 0.27368468 0.700386345
v 0.0514269993 0.0308447257 0.689763486
v 0.0500503518 0.328074634 0.693091393
v 0.0412121564 0.27368468 0.700386345
v 0.0122192381 0.469184875 0.697154522
v 0.0415863022 0.275654912 0.6766693
v 0.0134429932 0.329334706 0.673313558
v 0.0137911988 0.276174903 0.666890562
v 0.0500503518 0.328074634 0.693091393
v 0.0122473137 0.469144881 0.697145343
v 0.051950071 0.0341748036 0.649539471
v 0.0164175406 0.0350448601 0.633716404
v -0.0145758055 0.27515471 0.675744295
v -0.0198654179 0.033404883 0.648105443
v -0.0245037843 0.32741484 0.691862464
v 0.0122192381 0.469184875 0.697154522
v -0.0245037843 0.32741484 0.691862464
v -0.0149499504 0.273184836 0.699461341
v -0.0145758055 0.27515471 0.675744295
v -0.0149499504 0.273184836 0.699461341
v -0.0198654179 0.033404883 0.648105443
v -0.0149499504 0.273184836 0.699461341
v -0.0203878786 0.0300646964 0.688328564
v 0.0415863022 0.275654912 0.6766693
v 0.0412121564 0.27368468 0.700386345
v 0.0500503518 0.328074634 0.693091393
v 0.051950071 0.0341748036 0.649539471
v 0.0412121564 0.27368468 0.700386345
v 0.0514269993 0.0308447257 0.689763486
v 0.0500503518 0.328074634 0.693091393
v 0.0122192381 0.469184875 0.697154522
v 0.0122473137 0.469144881 0.697145343
v 0.0134429932 0.329334706 0.673313558
v 0.0122473137 0.469144881 0.697145343
v 0.0122192381 0.469184875 0.697154522
vt 0.879305005 0.146283001
vt 0.886851013 0.234852999
vt 0.889993012 0.152787
vt 0.868597984 0.234909996
vt 0.908587992 0.236165002
vt 0.904313982 0.151910007
vt 0.92523098 0.233344004
vt 0.917402029 0.153289005
vt 0.944685996 0.230638996
vt 0.928067982 0.149991006
vt 0.957139015 0.229568005
vt 0.94767803 0.145756006
vt 0.860032976 0.145763993
vt 0.964806974 0.617595971
vt 0.945757985 0.618359983
vt 0.926155984 0.619279981
vt 0.906039 0.620274007
vt 0.886078 0.621078014
vt 0.866439998 0.621474981
vt 0.905550003 0.930921972
vt 0.877382994 0.935459971
vt 0.85274601 0.940945029
vt 0.847132981 0.621163011
vt 0.857847989 0.235624999
vt 0.860032976 0.145763993
vt 0.827157974 0.941406012
vt 0.984162986 0.940685987
vt 0.958498001 0.940542996
vt 0.933694005 0.935330987
vt 0.994996011 0.979996979
vt 0.965135992 0.980910003
vt 0.965135992 0.980910003
vt 0.935383976 0.977411985
vt 0.905318975 0.978622019
vt 0.874868989 0.983797014
vt 0.844753981 0.990077972
vt 0.814809978 0.989889026
vt 0.810271978 0.786814988
vt 0.810087979 0.706470013
vt 0.792851985 0.781454027
vt 0.810271978 0.786814988
vt 0.822040021 0.708058
vt 0.811778009 0.347797006
vt 0.793560982 0.346679002
vt 0.791585982 0.703257978
vt 0.792851985 0.781454027
vt 0.784247994 0.777383029
vt 0.775996983 0.700272977
vt 0.772692025 0.778405011
vt 0.756213009 0.701322973
vt 0.760344982 0.775959015
vt 0.739795029 0.701461971
vt 0.74950099 0.781989992
vt 0.73032701 0.701264977
vt 0.735315979 0.780247986
vt 0.756254017 0.344983995
vt 0.77482599 0.345654011
vt 0.829526007 0.348825991
vt 0.720251024 0.345402986
vt 0.738049984 0.344841003
vt 0.699750006 0.049660001
vt 0.723514974 0.0503959991
vt 0.748558998 0.0552939996
vt 0.774269998 0.0599640012
vt 0.799965978 0.0553259999
vt 0.825139999 0.0504840016
vt 0.849005997 0.0498749986
vt 0.829524994 0.0125040002
vt 0.857725024 0.0123840002
vt 0.689366996 0.00377200008
vt 0.717522025 0.00432100007
vt 0.717522025 0.00432100007
vt 0.745875001 0.0112290001
vt 0.773572981 0.017833
vt 0.801459014 0.0171130002
vt 0.910081983 0.108295999
vt 0.905609012 0.138235003
vt 0.905035019 0.145581007
vt 0.905609012 0.138235003
vt 0.905609012 0.138235003
vt 0.910081983 0.108295999
vt 0.860032976 0.145763993
vt 0.773470998 0.791885972
vt 0.735315979 0.780247986
vt 0.774257004 0.814674973
vt 0.772909999 0.785265982
vt 0.773470998 0.791885972
vt 0.735315979 0.780247986
vt 0.774257004 0.814674973
vt 0.488090008 0.286945999
vt 0.539297998 0.272711992
vt 0.498391986 0.264883012
vt 0.539297998 0.298765987
vt 0.481651992 0.31003499
vt 0.527930021 0.322661996
vt 0.478763014 0.330525011
vt 0.506088972 0.338483989
vt 0.479391009 0.340104997
vt 0.456194013 0.326128989
vt 0.442382008 0.302094996
vt 0.442108005 0.275700986
vt 0.527038991 0.248841003
vt 0.503368974 0.247918993
vt 0.539297998 0.272711992
vt 0.505107999 0.232789993
vt 0.454468012 0.252433985
vt 0.442108005 0.275700986
vt 0.477503002 0.237625003
vt 0.442382008 0.302094996
vt 0.041997999 0.647215009
vt 0.161220998 0.667741001
vt 0.164965004 0.647216976
vt 0.0479670018 0.667741001
vt 0.00117800001 0.605364978
vt 0.205785006 0.605364978
vt 0.0558930002 0.712938011
vt 0.153237998 0.712936997
vt 0.200273007 0.571219027
vt 0.00356200011 0.569227993
vt 0.195136994 0.518269002
vt 0.0156570002 0.51424998
vt 0.107253 0.461010009
vt 0.176846996 0.478132993
vt 0.0357999988 0.474976003
vt 0.0558930002 0.712938011
vt 0.131153002 0.747857988
vt 0.077978 0.747857988
vt 0.404902995 0.719236016
vt 0.424073011 0.691093981
vt 0.386750996 0.690855026
vt 0.436682999 0.613004029
vt 0.37391001 0.612688005
vt 0.312914997 0.667501986
vt 0.323406011 0.614286005
vt 0.365493 0.710739017
vt 0.332112998 0.707234025
vt 0.263262987 0.652229011
vt 0.266104013 0.626350999
vt 0.309051007 0.718415976
vt 0.280481011 0.697040975
vt 0.310689002 0.740728974
vt 0.338734001 0.73536098
vt 0.374334991 0.740691006
vt 0.246310994 0.696278989
vt 0.208610997 0.695869029
vt 0.264836997 0.768648028
vt 0.259066999 0.717253983
vt 0.314253002 0.776399016
vt 0.323882014 0.757613003
vt 0.344671994 0.763354003
vt 0.175763994 0.750976026
vt 0.208610997 0.695869029
vt 0.199920997 0.797747016
vt 0.336764008 0.779240012
vt 0.289299011 0.827546
vt 0.234439999 0.858900011
vt 0.370366007 0.778523982
vt 0.36164701 0.761008024
vt 0.333977014 0.827769995
vt 0.404799998 0.882664979
vt 0.40465501 0.779785991
vt 0.405573994 0.744391024
vt 0.404902995 0.719236016
vt 0.31614399 0.875243008
vt 0.364262015 0.894398987
vt 0.258648008 0.912555993
vt 0.293047011 0.917770982
vt 0.179921001 0.883062005
vt 0.213973001 0.931873024
vt 0.225534007 0.996122003
vt 0.146164 0.902849972
vt 0.113977 0.98247999
vt 0.102764003 0.862019002
vt 0.136096999 0.829041004
vt 0.105772004 0.772041023
vt 0.0342409983 0.926087976
vt 0.071153 0.818928003
vt -0.000237999993 0.873640001
vt 0.0342409983 0.926087976
vt 0.158823997 0.726414979
vt 0.208610997 0.695869029
vt 0.564737976 0.695811987
vt 0.602910995 0.695881009
vt 0.547724009 0.652292013
vt 0.497680008 0.667492986
vt 0.487192005 0.61382699
vt 0.445542008 0.710857987
vt 0.479012996 0.706996977
vt 0.543862998 0.626142979
vt 0.502259016 0.718634009
vt 0.529708982 0.696466982
vt 0.499659985 0.740722001
vt 0.471666008 0.735931993
vt 0.43641001 0.74119401
vt 0.545379996 0.768420994
vt 0.551612973 0.716929018
vt 0.496491998 0.776560009
vt 0.486685008 0.757966995
vt 0.466048986 0.763091028
vt 0.635297 0.750577986
vt 0.602910995 0.695881009
vt 0.610894978 0.798134983
vt 0.47358799 0.778885007
vt 0.521328986 0.828050017
vt 0.576687992 0.858667016
vt 0.440129995 0.778958976
vt 0.449304998 0.760969996
vt 0.476087987 0.827758014
vt 0.404902995 0.719236016
vt 0.494394988 0.875594974
vt 0.447589993 0.89459902
vt 0.551662028 0.912880003
vt 0.447589993 0.89459902
vt 0.517524004 0.917838991
vt 0.63042599 0.883172989
vt 0.597223997 0.932289004
vt 0.577385008 0.99563998
vt 0.664305985 0.902917027
vt 0.689945996 0.982514024
vt 0.70738399 0.862075984
vt 0.674823999 0.828983009
vt 0.704991996 0.771789014
vt 0.776772976 0.926154971
vt 0.739248991 0.818839014
vt 0.810486019 0.873665988
vt 0.776772976 0.926154971
vt 0.651517987 0.72627598
vt 0.602910995 0.695881009
vt 0.371262014 0.164805993
vt 0.373385996 0.250362992
vt 0.388516992 0.163879007
vt 0.409301013 0.166122004
vt 0.396548986 0.111812003
vt 0.414923996 0.115139998
vt 0.426257014 0.171385005
vt 0.380921006 0.105062
vt 0.424730986 0.0344819985
vt 0.371262014 0.164805993
vt 0.357966006 0.247730002
vt 0.409301013 0.166122004
vt 0.401142001 0.254357994
vt 0.418190986 0.256015986
vt 0.401142001 0.254357994
vt 0.418190986 0.256015986
vt 0.426257014 0.171385005
vt 0.445434988 0.172291994
vt 0.448376 0.256814986
vt 0.430599988 0.114785001
vt 0.424730986 0.0344819985
vt 0.448376 0.113746002
vt 0.430599988 0.114785001
vt 0.424730986 0.0344819985
vt 0.445434988 0.172291994
vt 0.426257014 0.171385005
vt 0.303663999 0.129173994
vt 0.306425989 0.185093999
vt 0.316953987 0.128388003
vt 0.294001013 0.182857007
vt 0.333438993 0.130463004
vt 0.327753991 0.188244
vt 0.32357499 0.0930040032
vt 0.337976009 0.0959080011
vt 0.346731991 0.135370001
vt 0.311628997 0.0897239968
vt 0.345683992 0.0379640013
vt 0.339798987 0.189597994
vt 0.346731991 0.135370001
vt 0.361523986 0.136136994
vt 0.363110006 0.190669999
vt 0.349238992 0.0977609977
vt 0.361523986 0.136136994
vt 0.349238992 0.0977609977
vt 0.363110006 0.0969720036
vt 0.345683992 0.0379640013
vt 0.339798987 0.189597994
vt 0.333438993 0.130463004
vt 0.327753991 0.188244
vt 0.657463014 0.155964002
vt 0.654434979 0.228764996
vt 0.670570016 0.225733995
vt 0.64034301 0.155139998
vt 0.61917001 0.157253996
vt 0.626865029 0.230989993
vt 0.631066978 0.110232003
vt 0.612662971 0.113265999
vt 0.602419019 0.163449004
vt 0.646287024 0.105783001
vt 0.646287024 0.105783001
vt 0.601628006 0.0404100008
vt 0.601628006 0.0404100008
vt 0.609866977 0.232884005
vt 0.602419019 0.163449004
vt 0.583715975 0.165748
vt 0.580956995 0.235774994
vt 0.598497987 0.115970001
vt 0.601628006 0.0404100008
vt 0.609866977 0.232884005
vt 0.626865029 0.230989993
vt 0.598497987 0.115970001
vt 0.580956995 0.116039999
vt 0.583715975 0.165748
vt 0.602419019 0.163449004
vt 0.580956995 0.116039999
vt 0.601628006 0.0404100008
vt 0.541011989 0.134240001
vt 0.53323102 0.192172006
vt 0.547967017 0.186667994
vt 0.522612989 0.135279998
vt 0.500482023 0.135674
vt 0.506691992 0.191167995
vt 0.513544977 0.100125
vt 0.494033992 0.10193
vt 0.482205003 0.141082004
vt 0.491409987 0.190298006
vt 0.506691992 0.191167995
vt 0.464666992 0.145441994
vt 0.464199007 0.197594002
vt 0.48120299 0.108364001
vt 0.529987991 0.0985129997
vt 0.484497994 0.0411910005
vt 0.48120299 0.108364001
vt 0.464199007 0.109339997
vt 0.464666992 0.145441994
vt 0.482205003 0.141082004
vt 0.513544977 0.100125
vt 0.484497994 0.0411910005
vt 0.522612989 0.135279998
vt 0.529987991 0.0985129997
vt 0.484497994 0.0411910005
vt 0.464199007 0.109339997
vt 0.484497994 0.0411910005
vt 0.567094028 0.439422995
vt 0.598986983 0.464235991
vt 0.591473997 0.425554007
vt 0.580949008 0.472831994
vt 0.547752976 0.398155987
vt 0.654613972 0.563256025
vt 0.629612982 0.576011002
vt 0.56349802 0.480455011
vt 0.602585018 0.587239027
vt 0.542303026 0.450125992
vt 0.547752976 0.398155987
vt 0.542303026 0.450125992
vt 0.511557996 0.475032002
vt 0.519466996 0.434175014
vt 0.496019989 0.462825
vt 0.542303026 0.450125992
vt 0.547752976 0.398155987
vt 0.443356007 0.572022021
vt 0.420428991 0.554817021
vt 0.480886012 0.450109988
vt 0.398018986 0.536373973
vt 0.499045014 0.414579988
vt 0.547752976 0.398155987
vt 0.499045014 0.414579988
vt 0.467593998 0.439758986
vt 0.480886012 0.450109988
vt 0.467593998 0.439758986
vt 0.398018986 0.536373973
vt 0.379911989 0.517829001
vt 0.511557996 0.475032002
vt 0.524181008 0.484284014
vt 0.542303026 0.450125992
vt 0.443356007 0.572022021
vt 0.524181008 0.484284014
vt 0.464248002 0.585595012
vt 0.542303026 0.450125992
vt 0.547752976 0.398155987
vt 0.547752976 0.398155987
vt 0.519466996 0.434175014
vt 0.547752976 0.398155987
vt 0.547752976 0.398155987
vt 0.273492992 0.227853999
vt 0.310243011 0.259240001
vt 0.298507988 0.213321
vt 0.292261004 0.268027991
vt 0.228597 0.140274003
vt 0.39527899 0.397837013
vt 0.366445988 0.413071007
vt 0.274416 0.276026011
vt 0.337630004 0.426863998
vt 0.247251004 0.239246994
vt 0.274416 0.276026011
vt 0.228597 0.140274003
vt 0.169415995 0.263687015
vt 0.173246995 0.220918998
vt 0.151800007 0.251964003
vt 0.197558001 0.236091003
vt 0.228597 0.140274003
vt 0.0805519968 0.412916005
vt 0.053617999 0.395058006
vt 0.134443998 0.239625007
vt 0.0270550009 0.376161993
vt 0.149841994 0.203483
vt 0.228597 0.140274003
vt 0.149841994 0.203483
vt 0.121068999 0.229330003
vt 0.134443998 0.239625007
vt 0.121068999 0.229330003
vt 0.0270550009 0.376161993
vt 0.00525199994 0.357766002
vt 0.169415995 0.263687015
vt 0.183872998 0.27245
vt 0.197558001 0.236091003
vt 0.0805519968 0.412916005
vt 0.183872998 0.27245
vt 0.105614997 0.426833004
vt 0.247251004 0.239246994
vt 0.228597 0.140274003
vt 0.228597 0.140274003
vt 0.173246995 0.220918998
vt 0.228597 0.140274003
vt 0.228597 0.140274003
vt 0.567094028 0.439422995
vt 0.598986983 0.464235991
vt 0.591473997 0.425554007
vt 0.580949008 0.472831994
vt 0.654613972 0.563256025
vt 0.629612982 0.576011002
vt 0.56349802 0.480455011
vt 0.602585018 0.587239027
vt 0.542303026 0.450125992
vt 0.591473997 0.425554007
vt 0.547752976 0.398155987
vt 0.547752976 0.398155987
vt 0.542303026 0.450125992
vt 0.511557996 0.475032002
vt 0.519466996 0.434175014
vt 0.496019989 0.462825
vt 0.542303026 0.450125992
vt 0.547752976 0.398155987
vt 0.443356007 0.572022021
vt 0.420428991 0.554817021
vt 0.480886012 0.450109988
vt 0.398018986 0.536373973
vt 0.499045014 0.414579988
vt 0.547752976 0.398155987
vt 0.499045014 0.414579988
vt 0.467593998 0.439651012
vt 0.480886012 0.450109988
vt 0.467593998 0.439651012
vt 0.398018986 0.536373973
vt 0.379911989 0.517829001
vt 0.511557996 0.475032002
vt 0.524181008 0.484284014
vt 0.542303026 0.450125992
vt 0.443356007 0.572022021
vt 0.524181008 0.484284014
vt 0.464248002 0.585595012
vt 0.542303026 0.450125992
vt 0.547752976 0.398155987
vt 0.547752976 0.398155987
vt 0.519466996 0.434175014
vt 0.547752976 0.398155987
vt 0.547752976 0.398155987
vt 0.273492992 0.227853999
vt 0.310243011 0.259240001
vt 0.298507988 0.213321
vt 0.228597 0.140274003
vt 0.292261004 0.268027991
vt 0.310243011 0.259240001
vt 0.39527899 0.397837013
vt 0.366445988 0.413071007
vt 0.274416 0.276026011
vt 0.337630004 0.426863998
vt 0.247251004 0.239246994
vt 0.274416 0.276026011
vt 0.228597 0.140274003
vt 0.169415995 0.263687015
vt 0.173246995 0.220918998
vt 0.151800007 0.251964003
vt 0.197558001 0.236091003
vt 0.228597 0.140274003
vt 0.0805519968 0.412916005
vt 0.053617999 0.395058006
vt 0.134443998 0.239625007
vt 0.0270550009 0.376161993
vt 0.149841994 0.203483
vt 0.228597 0.140274003
vt 0.149841994 0.203483
vt 0.121068999 0.229330003
vt 0.134443998 0.239625007
vt 0.121068999 0.229330003
vt 0.0270550009 0.376161993
vt 0.121068999 0.229330003
vt 0.00525199994 0.357766002
vt 0.169415995 0.263687015
vt 0.183872998 0.27245
vt 0.197558001 0.236091003
vt 0.0805519968 0.412916005
vt 0.183872998 0.27245
vt 0.105614997 0.426833004
vt 0.247251004 0.239246994
vt 0.228597 0.140274003
vt 0.228597 0.140274003
vt 0.173246995 0.220918998
vt 0.228597 0.140274003
vt 0.228597 0.140274003
vn 0.148819014 0.935138226 -0.32151106
vn -0.795062304 0.591856301 0.132597044
vn -0.443495989 0.769266009 -0.459935963
vn -0.270065993 0.95066303 0.152657017
vn -0.996972442 -0.00810399465 0.0773319528
vn -0.818618476 0.0865839422 -0.56777364
vn -0.839183629 -0.539204776 0.0709149688
vn -0.537335277 -0.588549376 -0.604053378
vn -0.205435947 -0.977478623 0.0482869819
vn 0.28391102 -0.814388096 -0.506129086
vn -0.0144730024 -0.99971813 0.0188210011
vn -0.0406319909 -0.885197878 -0.463436931
vn -0.0155509952 0.9657377 -0.259053886
vn -0.00812199991 -0.999487042 -0.0309770033
vn -0.456763893 -0.889112771 -0.0290739927
vn -0.878589869 -0.477028996 -0.0228739977
vn -0.9997738 0.000809999881 -0.0212539956
vn -0.863287866 0.504119933 -0.0244359989
vn -0.449114203 0.892932415 -0.0311170164
vn -0.981478691 0.0122579969 -0.191178948
vn -0.848162353 0.504826248 -0.160534069
vn -0.505705059 0.851989031 -0.135562018
vn 0.00878899731 0.999361575 -0.0346309841
vn 0.0179090053 0.989232302 0.145254046
vn -0.0155509952 0.9657377 -0.259053886
vn 0.00207700091 0.991852462 -0.127375066
vn -0.00200399989 -0.989417017 -0.145086005
vn -0.507954895 -0.847428799 -0.15442197
vn -0.853507578 -0.490336776 -0.176336899
vn 0.0110199973 -0.877637744 0.47919786
vn -0.594268978 -0.699513078 0.396895081
vn -0.594268978 -0.699513078 0.396895081
vn -0.834598005 -0.422737032 0.353184998
vn -0.90863508 -0.0619920045 0.412964016
vn -0.857196867 0.324495971 0.399894983
vn -0.630788147 0.621426105 0.464689106
vn -0.0049410006 0.825811148 0.563925087
vn -0.0406319909 -0.885197878 -0.463436931
vn 0.178950936 -0.982775629 0.0461359844
vn -0.323797882 -0.818823755 -0.474006891
vn -0.0406319909 -0.885197878 -0.463436931
vn -0.0144730024 -0.99971813 0.0188210011
vn 0.429920077 -0.902340233 -0.0308330078
vn 0.864438057 -0.501899064 -0.0290560015
vn 0.836212099 -0.543765128 0.0711950064
vn -0.323797882 -0.818823755 -0.474006891
vn 0.564607978 -0.583349049 -0.583885014
vn 0.997377753 -0.0139799975 0.0710089877
vn 0.844707012 0.077482 -0.529591024
vn 0.808380961 0.574993968 0.126103982
vn 0.468395084 0.755077124 -0.458764046
vn 0.295144975 0.943399966 0.151280984
vn -0.179930925 0.939958513 -0.290004849
vn 0.0179090053 0.989232302 0.145254046
vn -0.0155509952 0.9657377 -0.259053886
vn 0.860709727 0.508154809 -0.0309419893
vn 0.999506712 -0.0104739964 -0.0296079908
vn -0.00812199991 -0.999487042 -0.0309770033
vn 0.00878899731 0.999361575 -0.0346309841
vn 0.448891819 0.892963707 -0.0333479904
vn 0.00207700091 0.991852462 -0.127375066
vn 0.487963796 0.86305064 -0.130517945
vn 0.850791037 0.507637024 -0.135865003
vn 0.989778697 0.00642799819 -0.142466962
vn 0.85236758 -0.501622677 -0.147797927
vn 0.483707786 -0.862651706 -0.147846937
vn -0.00200399989 -0.989417017 -0.145086005
vn 0.570557833 -0.708957851 0.41453889
vn 0.0110199973 -0.877637744 0.47919786
vn -0.0049410006 0.825811148 0.563925087
vn 0.59462887 0.646198869 0.478375912
vn 0.59462887 0.646198869 0.478375912
vn 0.878662169 0.331431061 0.343666017
vn 0.960059822 -0.0361039937 0.277455926
vn 0.855086029 -0.406670958 0.321631014
vn -0.0602079779 0.0738989785 -0.995446622
vn 0.454221815 0.0854229629 -0.886783719
vn 0.0242599975 0.126271993 -0.99169898
vn 0.454221815 0.0854229629 -0.886783719
vn 0.454221815 0.0854229629 -0.886783719
vn -0.0602079779 0.0738989785 -0.995446622
vn -0.0155509952 0.9657377 -0.259053886
vn -0.51991719 0.0790280327 -0.850553155
vn -0.0155509952 0.9657377 -0.259053886
vn -0.0602079779 0.0738989785 -0.995446622
vn 0.0188350044 0.117051028 -0.992947221
vn -0.51991719 0.0790280327 -0.850553155
vn -0.0155509952 0.9657377 -0.259053886
vn -0.0602079779 0.0738989785 -0.995446622
vn 0.00479799695 -0.0815159455 0.996660471
vn -0.594268978 -0.699513078 0.396895081
vn -0.450201809 -0.086391978 0.888737738
vn 0.0110199973 -0.877637744 0.47919786
vn 0.423850983 -0.072894983 0.902793884
vn 0.570557833 -0.708957851 0.41453889
vn 0.619244695 -0.075625971 0.781547666
vn 0.855086029 -0.406670958 0.321631014
vn 0.960059822 -0.0361039937 0.277455926
vn 0.878662169 0.331431061 0.343666017
vn 0.59462887 0.646198869 0.478375912
vn -0.0049410006 0.825811148 0.563925087
vn -0.834598005 -0.422737032 0.353184998
vn -0.491523176 -0.0967440233 0.865474224
vn -0.594268978 -0.699513078 0.396895081
vn -0.90863508 -0.0619920045 0.412964016
vn -0.630788147 0.621426105 0.464689106
vn -0.0049410006 0.825811148 0.563925087
vn -0.857196867 0.324495971 0.399894983
vn 0.59462887 0.646198869 0.478375912
vn 0.409341931 -0.067174986 -0.909904778
vn -0.758886337 -0.618276298 -0.204514116
vn -0.406667143 -0.0628450215 -0.911412299
vn 0.740040958 -0.625243962 -0.247808963
vn 0.38959682 -0.0747429729 -0.91794759
vn -0.376167089 -0.068095006 -0.924046218
vn 0.916322589 0.398657799 -0.0377469808
vn 0.00833700318 0.0418920107 -0.999087334
vn -0.334887117 -0.104251035 -0.93647337
vn 0.347899944 -0.110172972 -0.931035757
vn -0.496881872 -0.0533989891 -0.866173744
vn 0.509280026 -0.0619550049 -0.85836792
vn 0.0033149994 -0.372114897 -0.928180754
vn -0.416880816 -0.442679793 -0.793879628
vn 0.420419842 -0.44923985 -0.78830874
vn 0.916322589 0.398657799 -0.0377469808
vn -0.442421943 0.883766949 0.15237698
vn 0.450943023 0.88133204 0.141083002
vn 0.0108560026 0.942178309 -0.334936082
vn 0.0108560026 0.942178309 -0.334936082
vn 0.0108560026 0.942178309 -0.334936082
vn -0.442421943 0.883766949 0.15237698
vn 0.450943023 0.88133204 0.141083002
vn 0.638539076 0.713971078 -0.287251025
vn 0.916322589 0.398657799 -0.0377469808
vn 0.643418252 0.765219152 0.0212760083
vn 0.185536936 0.935201645 -0.301618904
vn 0.409341931 -0.067174986 -0.909904778
vn 0.740040958 -0.625243962 -0.247808963
vn 0.764216959 0.601566911 -0.232571974
vn 0.498441905 0.594638884 -0.630840898
vn 0.0368370004 0.998177052 -0.0478070043
vn 0.270702034 0.956032097 -0.112796016
vn 0.482740819 0.85919863 -0.169525936
vn 0.603097975 0.263372004 -0.752933025
vn 0.38959682 -0.0747429729 -0.91794759
vn 0.978995144 0.188840032 0.0768630132
vn 0.956718802 0.186627969 -0.223291948
vn 0.832142174 0.461405128 0.307644069
vn 0.818898976 0.432936013 0.376790017
vn 0.0825110301 0.738035262 -0.669698238
vn 0.876296997 -0.0962890014 -0.472050995
vn 0.38959682 -0.0747429729 -0.91794759
vn 0.995027244 -0.080320023 -0.0589020178
vn 0.507043779 0.702493787 0.499408841
vn 0.904268801 0.270605981 0.330257982
vn 0.961593807 -0.081013985 0.26224795
vn 0.122375995 0.927443922 0.353371948
vn 0.0832349882 0.946505845 0.311766952
vn 0.512153089 0.621788085 0.592519045
vn 0.000967000437 0.72097224 0.692963302
vn 0.00590699771 0.95421356 0.299067914
vn 0.00629099784 0.964888692 0.262583911
vn 0.0108560026 0.942178309 -0.334936082
vn 0.546471298 0.245510146 0.800683439
vn 0.157001048 0.301144063 0.940565228
vn 0.56479919 -0.160306066 0.809508324
vn 0.0974649712 -0.203092948 0.974296629
vn 0.92388916 -0.341507077 0.172632024
vn 0.571089625 -0.569119632 0.591573596
vn -0.0117619932 -0.689649642 0.724047601
vn 0.583220005 -0.803556085 0.118962005
vn -0.00957899354 -0.992664397 0.120521925
vn 0.598170936 -0.701338947 -0.387704968
vn 0.938425362 -0.269955099 -0.215597078
vn 0.509280026 -0.0619550049 -0.85836792
vn -0.00494200131 -0.905713201 -0.4238621
vn 0.420419842 -0.44923985 -0.78830874
vn 0.0033149994 -0.372114897 -0.928180754
vn -0.00494200131 -0.905713201 -0.4238621
vn 0.347899944 -0.110172972 -0.931035757
vn 0.38959682 -0.0747429729 -0.91794759
vn -0.586373091 0.273693055 -0.76240319
vn -0.376167089 -0.068095006 -0.924046218
vn -0.406667143 -0.0628450215 -0.911412299
vn -0.629501998 0.725700021 -0.277644962
vn 0.00833700318 0.0418920107 -0.999087334
vn -0.630288959 0.77628094 0.0111249993
vn -0.164450973 0.938242853 -0.30439496
vn -0.758886337 -0.618276298 -0.204514116
vn -0.749858022 0.614706993 -0.244639009
vn -0.477937818 0.603109837 -0.638618827
vn -0.0187360086 0.998659492 -0.0482510217
vn -0.252234995 0.960570991 -0.116965011
vn -0.464992166 0.867424309 -0.177080065
vn -0.976671517 0.205815896 0.0612579733
vn -0.949654102 0.203168035 -0.238495052
vn -0.828805804 0.475828886 0.294393927
vn -0.817161322 0.447151124 0.36373511
vn -0.0589990169 0.739272177 -0.670817196
vn -0.870203257 -0.0811310261 -0.485967159
vn -0.376167089 -0.068095006 -0.924046218
vn -0.995205045 -0.0630420074 -0.0747840106
vn -0.502676785 0.711262643 0.491346776
vn -0.904587328 0.286306113 0.315833151
vn -0.966915488 -0.0642740279 0.246867105
vn -0.111887954 0.929479659 0.351494879
vn -0.0717970282 0.947855353 0.310508132
vn -0.510665834 0.630665839 0.584363818
vn 0.0108560026 0.942178309 -0.334936082
vn -0.554825246 0.255068094 0.791902363
vn -0.198549002 0.29204601 0.935568035
vn -0.580334067 -0.15036802 0.800376058
vn -0.198549002 0.29204601 0.935568035
vn -0.181753919 -0.273576885 0.944521606
vn -0.932312965 -0.325396985 0.157827005
vn -0.590244055 -0.559041083 0.582310021
vn -0.0117619932 -0.689649642 0.724047601
vn -0.598902166 -0.793296218 0.109532043
vn -0.00957899354 -0.992664397 0.120521925
vn -0.604290128 -0.691038251 -0.396610111
vn -0.939410508 -0.253652871 -0.23058188
vn -0.496881872 -0.0533989891 -0.866173744
vn -0.00494200131 -0.905713201 -0.4238621
vn -0.416880816 -0.442679793 -0.793879628
vn 0.0033149994 -0.372114897 -0.928180754
vn -0.00494200131 -0.905713201 -0.4238621
vn -0.334887117 -0.104251035 -0.93647337
vn -0.376167089 -0.068095006 -0.924046218
vn 0.218971968 -0.811910868 0.541157901
vn 0.0804529712 0.843671739 0.530796885
vn -0.079428032 0.815998375 0.572571218
vn -0.191415906 0.813509583 -0.549146771
vn -0.326759875 0.69774276 0.637481868
vn -0.440300763 0.696797669 -0.566222727
vn 0.108037025 -0.814575195 -0.569908082
vn 0.535280943 -0.61114192 0.583077967
vn 0.558928072 0.827938139 -0.0460200086
vn 0.218971968 -0.811910868 0.541157901
vn 0.0804529712 -0.843671739 0.530796885
vn -0.191415906 0.813509583 -0.549146771
vn -0.0156190004 0.843671918 -0.536631942
vn -0.0156190004 -0.843671918 -0.536631942
vn -0.0156190004 0.843671918 -0.536631942
vn -0.0156190004 -0.843671918 -0.536631942
vn 0.108037025 -0.814575195 -0.569908082
vn 0.218971968 -0.811910868 0.541157901
vn 0.0804529712 -0.843671739 0.530796885
vn 0.417800158 -0.61267519 -0.670874238
vn 0.558928072 0.827938139 -0.0460200086
vn 0.535280943 -0.61114192 0.583077967
vn 0.417800158 -0.61267519 -0.670874238
vn 0.558928072 0.827938139 -0.0460200086
vn 0.218971968 -0.811910868 0.541157901
vn 0.108037025 -0.814575195 -0.569908082
vn 0.444120139 -0.731498241 0.517366111
vn -0.123412952 0.82658869 0.549108744
vn -0.301108032 0.748725057 0.590546072
vn 0.294494003 -0.807354987 0.511322916
vn -0.413475215 0.742749333 -0.526651263
vn -0.219393089 0.826714277 -0.518083155
vn -0.543194115 0.544958115 0.638718128
vn -0.653324008 0.54232198 -0.528256059
vn 0.333125144 -0.737686336 -0.587236345
vn 0.727261543 -0.428134739 0.536461711
vn 0.415172935 0.909132838 -0.0332999974
vn 0.198512003 -0.807219028 -0.555869043
vn 0.333125144 -0.737686336 -0.587236345
vn 0.444120139 -0.731498241 0.517366111
vn 0.294494003 -0.807354987 0.511322916
vn 0.615442932 -0.431040972 -0.659873962
vn 0.444120139 -0.731498241 0.517366111
vn 0.615442932 -0.431040972 -0.659873962
vn 0.727261543 -0.428134739 0.536461711
vn 0.415172935 0.909132838 -0.0332999974
vn 0.198512003 -0.807219028 -0.555869043
vn -0.413475215 0.742749333 -0.526651263
vn -0.219393089 0.826714277 -0.518083155
vn -0.270322859 -0.798828602 0.537399709
vn -0.106789008 0.840485036 0.531207085
vn -0.106791012 -0.840488076 0.531202018
vn 0.0851689801 0.815853775 0.571951866
vn 0.238436922 0.80284977 -0.546424806
vn 0.028945988 0.842876613 -0.537327766
vn 0.376564026 0.686400056 0.62213701
vn 0.514774144 0.6610322 -0.5459342
vn -0.119715028 -0.813977182 -0.568427145
vn -0.610905051 -0.56765604 0.551871061
vn -0.610905051 -0.56765604 0.551871061
vn -0.631218851 0.774889827 -0.0332929939
vn -0.631218851 0.774889827 -0.0332929939
vn 0.0289450157 -0.842874408 -0.537331283
vn -0.119715028 -0.813977182 -0.568427145
vn -0.270322859 -0.798828602 0.537399709
vn -0.106791012 -0.840488076 0.531202018
vn -0.478321016 -0.595451057 -0.645482063
vn -0.631218851 0.774889827 -0.0332929939
vn 0.0289450157 -0.842874408 -0.537331283
vn 0.028945988 0.842876613 -0.537327766
vn -0.478321016 -0.595451057 -0.645482063
vn -0.610905051 -0.56765604 0.551871061
vn -0.270322859 -0.798828602 0.537399709
vn -0.119715028 -0.813977182 -0.568427145
vn -0.610905051 -0.56765604 0.551871061
vn -0.631218851 0.774889827 -0.0332929939
vn -0.496560782 -0.649152696 0.576218784
vn -0.0302049909 0.861643791 0.50661391
vn -0.283887148 -0.773281336 0.566960275
vn 0.216368988 0.792394996 0.570345998
vn 0.45567888 0.669972897 -0.586082816
vn 0.177984089 0.805403352 -0.565373302
vn 0.582453847 0.527996838 0.61803478
vn 0.750923932 0.364015013 -0.551004946
vn -0.263381928 -0.778676808 -0.569466889
vn -0.0690250024 -0.849319994 -0.523346066
vn 0.177984089 0.805403352 -0.565373302
vn -0.496560782 -0.649152696 0.576218784
vn -0.283887148 -0.773281336 0.566960275
vn -0.684210956 -0.37875098 -0.623219967
vn -0.817733347 -0.220728084 0.531593263
vn -0.556219816 0.830768704 -0.0210439917
vn -0.684210956 -0.37875098 -0.623219967
vn -0.817733347 -0.220728084 0.531593263
vn -0.496560782 -0.649152696 0.576218784
vn -0.263381928 -0.778676808 -0.569466889
vn 0.582453847 0.527996838 0.61803478
vn -0.556219816 0.830768704 -0.0210439917
vn 0.216368988 0.792394996 0.570345998
vn -0.817733347 -0.220728084 0.531593263
vn -0.556219816 0.830768704 -0.0210439917
vn -0.817733347 -0.220728084 0.531593263
vn -0.556219816 0.830768704 -0.0210439917
vn 0.147943065 -0.000907000271 0.988995433
vn 0.037426997 0.362003952 0.931424856
vn 0.130811989 0.425350934 0.895524859
vn 0.0422149859 -0.00192299939 0.999106705
vn 0.230122998 0.444072008 0.865935028
vn 0.0451149903 0.321262956 0.945914805
vn 0.0495479926 -0.00196899963 0.99876982
vn 0.0412190072 -0.365421116 0.929929256
vn 0.0486659855 -0.324855894 0.944510639
vn 0.13686499 -0.426874012 0.893894017
vn 0.238089934 -0.443726927 0.863955796
vn 0.13686499 -0.426874012 0.893894017
vn 0.0732049718 -0.366709888 -0.927450716
vn 0.185778067 -0.00382200116 -0.982584298
vn 0.0771589652 -0.00321999891 -0.997013569
vn 0.170801073 -0.429432243 -0.886800408
vn 0.27146402 -0.446782053 -0.852463067
vn 0.0784949809 -0.325463891 -0.942290664
vn 0.0812149569 -0.00246899901 -0.996693611
vn 0.0705409795 0.360794842 -0.929973662
vn 0.0752180144 0.320848078 -0.944139242
vn 0.165349066 0.422579169 -0.891115367
vn 0.262814075 0.440599114 -0.858371258
vn -0.219586909 0.975577652 -0.00546299759
vn -0.0769139901 0.997033954 -0.00275199977
vn -0.0769139901 0.997033954 -0.00275199977
vn -0.0769139901 0.997033954 -0.00275199977
vn 0.0666919723 0.997773588 2.99999897E-06
vn 0.0666919723 0.997773588 2.99999897E-06
vn -0.0662509948 -0.997802913 5.99999976E-06
vn -0.0662509948 -0.997802913 5.99999976E-06
vn -0.208158076 -0.9780913 -0.00274300086
vn 0.0763459876 -0.997077703 0.00274199899
vn -0.0662509948 -0.997802913 5.99999976E-06
vn 0.0763459876 -0.997077703 0.00274199899
vn 0.496672064 -0.867873013 0.010644
vn 0.496672064 -0.867873013 0.010644
vn 0.496672064 -0.867873013 0.010644
vn 0.185778067 -0.00382200116 -0.982584298
vn 0.262814075 0.440599114 -0.858371258
vn 0.262814075 0.440599114 -0.858371258
vn -0.0032590006 -0.0971020162 0.99526912
vn 0.358928114 -0.0607300214 0.931387305
vn 0.425344914 -0.0875599682 0.900785744
vn -0.00356200035 -0.0651200041 0.997871041
vn 0.453065008 -0.104045004 0.885385036
vn 0.320049912 -0.0504089817 0.946058631
vn -0.00364700006 -0.0534670055 0.998562992
vn -0.365401924 -0.0606689826 0.928870678
vn -0.326816857 -0.0507769771 0.943722606
vn -0.431034952 -0.0879389942 0.898039937
vn -0.365401924 -0.0606689826 0.928870678
vn -0.458261788 -0.105283946 0.882559597
vn -0.364287108 -0.0722060129 -0.928483307
vn -0.00362399803 -0.109060943 -0.994028449
vn -0.00226000091 -0.0780940279 -0.996943414
vn -0.431484878 -0.098324962 -0.896745741
vn -0.45961985 -0.111735977 -0.881058753
vn -0.324971944 -0.0594729856 -0.943851769
vn -0.00155200053 -0.0627750307 -0.998026431
vn 0.360166937 -0.0733749866 -0.929997802
vn 0.322091937 -0.0593249835 -0.944847763
vn 0.42513296 -0.0987759978 -0.89972502
vn 0.452302188 -0.110176042 -0.885033369
vn 0.984168589 0.177228928 -0.00148799946
vn 0.99841404 0.0562950075 -0.000473000022
vn 0.99841404 0.0562950075 -0.000473000022
vn 0.99841404 0.0562950075 -0.000473000022
vn 0.997878909 -0.0650949925 0.000546999916
vn 0.997878909 -0.0650949925 0.000546999916
vn -0.99841404 0.0562950075 -0.000473000022
vn -0.99841404 0.0562950075 -0.000473000022
vn -0.984168589 0.177228928 -0.00148799946
vn -0.997878909 -0.0650949925 0.000546999916
vn -0.99841404 0.0562950075 -0.000473000022
vn -0.997878909 -0.0650949925 0.000546999916
vn -0.29856196 -0.0672659874 0.95201683
vn -0.29856196 -0.0672659874 0.95201683
vn -0.29856196 -0.0672659874 0.95201683
vn -0.00362399803 -0.109060943 -0.994028449
vn 0.452302188 -0.110176042 -0.885033369
vn 0.452302188 -0.110176042 -0.885033369
vn -0.149911985 -0.00872599799 0.988660812
vn -0.043368008 -0.370951056 0.927639186
vn -0.135120019 -0.433185041 0.891119123
vn -0.0463319793 -0.00843499601 0.99889046
vn -0.0472320169 -0.330968082 0.942459226
vn -0.0498069972 -0.00834599975 0.998723924
vn -0.0429749936 0.355066001 0.933852851
vn -0.0470430069 0.315036029 0.94791311
vn -0.136243999 0.417267025 0.898513079
vn -0.135120019 -0.433185041 0.891119123
vn -0.229110017 -0.451899022 0.86214608
vn -0.231897056 0.435902119 0.869605184
vn -0.136243999 0.417267025 0.898513079
vn -0.0826759636 0.376253814 -0.922820568
vn -0.195888922 0.0153059931 -0.980506659
vn -0.0895660147 0.0142370015 -0.995879173
vn -0.177547961 0.438903898 -0.880817831
vn -0.272391945 0.457374871 -0.846528769
vn -0.0847140104 0.33585304 -0.938097119
vn -0.0897770151 0.0135180028 -0.995870173
vn -0.0842339918 -0.349809974 -0.933025956
vn -0.0852090046 -0.310325027 -0.946804047
vn -0.17706199 -0.411265969 -0.89415288
vn -0.268953025 -0.429929078 -0.86187315
vn 0.199799031 -0.979699135 -0.0164320022
vn 0.0613790192 -0.998024344 -0.0134200044
vn 0.0613790192 -0.998024344 -0.0134200044
vn 0.0613790192 -0.998024344 -0.0134200044
vn -0.0776960254 -0.996925294 -0.0101600038
vn -0.0776960254 -0.996925294 -0.0101600038
vn 0.0623859651 0.997996509 0.010529994
vn 0.0623859651 0.997996509 0.010529994
vn 0.199799031 0.979811132 0.00710300123
vn -0.0756830126 0.997037292 0.0137420045
vn 0.0623859651 0.997996509 0.010529994
vn -0.0756830126 0.997037292 0.0137420045
vn -0.491543055 0.870577037 0.0219330005
vn -0.491543055 0.870577037 0.0219330005
vn -0.491543055 0.870577037 0.0219330005
vn -0.195888922 0.0153059931 -0.980506659
vn -0.268953025 -0.429929078 -0.86187315
vn -0.268953025 -0.429929078 -0.86187315
vn -0.0135949971 0.0546709932 0.998411894
vn -0.373821795 -0.00933399517 0.927453578
vn -0.438844174 0.0465950184 0.897354305
vn -0.465058804 0.0875849575 0.880936503
vn -0.0128600029 -0.00649400242 0.999896288
vn -0.373821795 -0.00933399517 0.927453578
vn -0.335390896 -0.0240269881 0.94177264
vn -0.0126330033 -0.0220820066 0.999676347
vn 0.34967795 -0.00277499948 0.936865866
vn 0.311347961 -0.0177650005 0.950129926
vn 0.414012998 0.0523040034 0.908767045
vn 0.34967795 -0.00277499948 0.936865866
vn 0.439719915 0.0921619758 0.893393815
vn 0.377746016 0.146580994 -0.914233029
vn 0.0183910057 0.171104074 -0.985081375
vn 0.0171679929 0.154473945 -0.987847686
vn 0.444910884 0.156915948 -0.881720781
vn 0.473868996 0.151913002 -0.867393017
vn 0.339194089 0.131009012 -0.931549191
vn 0.0166800003 0.135389 -0.990652084
vn -0.345830858 0.141429946 -0.927576721
vn -0.307685047 0.125207022 -0.943214238
vn -0.411887854 0.152283952 -0.898419738
vn -0.440128952 0.14714697 -0.885795832
vn -0.983645797 -0.177562952 -0.0302059948
vn -0.997865736 -0.0618829876 -0.0208429955
vn -0.997865736 -0.0618829876 -0.0208429955
vn -0.997865736 -0.0618829876 -0.0208429955
vn -0.998461008 0.0543119945 -0.0112209991
vn -0.997865736 -0.0618829876 -0.0208429955
vn -0.998461008 0.0543119945 -0.0112209991
vn 0.998950422 -0.0441870131 0.0120680053
vn 0.998950422 -0.0441870131 0.0120680053
vn 0.987098634 -0.160096958 0.0022749994
vn 0.997169316 0.0719990209 0.0216700062
vn 0.998950422 -0.0441870131 0.0120680053
vn 0.997169316 0.0719990209 0.0216700062
vn 0.413465023 0.0847200006 0.906570077
vn 0.413465023 0.0847200006 0.906570077
vn 0.413465023 0.0847200006 0.906570077
vn 0.0183910057 0.171104074 -0.985081375
vn -0.440128952 0.14714697 -0.885795832
vn -0.440128952 0.14714697 -0.885795832
g polySurface98_0
f 3/3/3 2/2/2 1/1/1
f 2/2/2 4/4/4 1/1/1
f 5/5/5 2/2/2 3/3/3
f 6/6/6 5/5/5 3/3/3
f 7/7/7 5/5/5 6/6/6
f 8/8/8 7/7/7 6/6/6
f 9/9/9 7/7/7 8/8/8
f 10/10/10 9/9/9 8/8/8
f 11/11/11 9/9/9 10/10/10
f 12/12/12 11/11/11 10/10/10
f 1/1/1 4/4/4 13/13/13
f 11/11/11 14/14/14 9/9/9
f 14/14/14 15/15/15 9/9/9
f 9/9/9 15/15/15 7/7/7
f 15/15/15 16/16/16 7/7/7
f 7/7/7 16/16/16 5/5/5
f 16/16/16 17/17/17 5/5/5
f 5/5/5 17/17/17 2/2/2
f 17/17/17 18/18/18 2/2/2
f 2/2/2 18/18/18 4/4/4
f 18/18/18 19/19/19 4/4/4
f 17/17/17 20/20/20 18/18/18
f 20/20/20 21/21/21 18/18/18
f 18/18/18 21/21/21 19/19/19
f 21/21/21 22/22/22 19/19/19
f 19/19/19 22/22/22 23/23/23
f 19/19/19 23/23/23 24/24/24
f 4/4/4 19/19/19 24/24/24
f 4/4/4 24/24/24 25/25/25
f 22/22/22 26/26/26 23/23/23
f 14/14/14 27/27/27 15/15/15
f 27/27/27 28/28/28 15/15/15
f 15/15/15 28/28/28 16/16/16
f 28/28/28 29/29/29 16/16/16
f 16/16/16 29/29/29 17/17/17
f 29/29/29 20/20/20 17/17/17
f 27/27/27 30/30/30 28/28/28
f 30/30/30 31/31/31 28/28/28
f 28/28/28 32/32/32 29/29/29
f 32/32/32 33/33/33 29/29/29
f 29/29/29 33/33/33 20/20/20
f 33/33/33 34/34/34 20/20/20
f 20/20/20 34/34/34 21/21/21
f 34/34/34 35/35/35 21/21/21
f 21/21/21 35/35/35 22/22/22
f 35/35/35 36/36/36 22/22/22
f 22/22/22 36/36/36 26/26/26
f 36/36/36 37/37/37 26/26/26
f 40/40/40 39/39/39 38/38/38
f 39/39/39 42/42/42 41/41/41
f 39/39/39 43/43/43 42/42/42
f 44/44/44 43/43/43 39/39/39
f 45/45/45 44/44/44 39/39/39
f 45/45/45 39/39/39 46/46/46
f 47/47/47 45/45/45 46/46/46
f 48/48/48 45/45/45 47/47/47
f 49/49/49 48/48/48 47/47/47
f 50/50/50 48/48/48 49/49/49
f 51/51/51 50/50/50 49/49/49
f 52/52/52 50/50/50 51/51/51
f 53/53/53 52/52/52 51/51/51
f 54/54/54 52/52/52 53/53/53
f 55/55/55 54/54/54 53/53/53
f 50/50/50 56/56/56 48/48/48
f 56/56/56 57/57/57 48/48/48
f 48/48/48 57/57/57 45/45/45
f 57/57/57 44/44/44 45/45/45
f 43/43/43 58/58/58 42/42/42
f 54/54/54 59/59/59 52/52/52
f 59/59/59 60/60/60 52/52/52
f 52/52/52 60/60/60 50/50/50
f 60/60/60 56/56/56 50/50/50
f 59/59/59 61/61/61 60/60/60
f 61/61/61 62/62/62 60/60/60
f 60/60/60 62/62/62 56/56/56
f 62/62/62 63/63/63 56/56/56
f 56/56/56 63/63/63 57/57/57
f 63/63/63 64/64/64 57/57/57
f 57/57/57 64/64/64 44/44/44
f 64/64/64 65/65/65 44/44/44
f 44/44/44 65/65/65 43/43/43
f 65/65/65 66/66/66 43/43/43
f 43/43/43 66/66/66 58/58/58
f 66/66/66 67/67/67 58/58/58
f 66/66/66 68/68/68 67/67/67
f 68/68/68 69/69/69 67/67/67
f 61/61/61 70/70/70 62/62/62
f 70/70/70 71/71/71 62/62/62
f 62/62/62 72/72/72 63/63/63
f 72/72/72 73/73/73 63/63/63
f 63/63/63 73/73/73 64/64/64
f 73/73/73 74/74/74 64/64/64
f 64/64/64 74/74/74 65/65/65
f 74/74/74 75/75/75 65/65/65
f 65/65/65 75/75/75 66/66/66
f 75/75/75 68/68/68 66/66/66
f 77/77/77 1/1/1 76/76/76
f 3/3/3 1/1/1 77/77/77
f 78/78/78 3/3/3 77/77/77
f 3/3/3 78/78/78 6/6/6
f 78/78/78 8/8/8 6/6/6
f 8/8/8 78/78/78 10/10/10
f 78/78/78 79/79/79 10/10/10
f 79/79/79 76/76/76 12/12/12
f 10/10/10 80/80/80 12/12/12
f 1/1/1 82/82/82 81/81/81
f 85/85/85 84/84/84 83/83/83
f 85/85/85 83/83/83 46/46/46
f 46/46/46 83/83/83 47/47/47
f 83/83/83 86/86/86 47/47/47
f 83/83/83 53/53/53 86/86/86
f 53/53/53 51/51/51 86/86/86
f 49/49/49 86/86/86 51/51/51
f 49/49/49 47/47/47 86/86/86
f 88/88/88 53/53/53 87/87/87
f 38/38/38 89/89/89 46/46/46
f 92/92/92 91/91/91 90/90/90
f 91/91/91 93/93/93 90/90/90
f 90/90/90 93/93/93 94/94/94
f 93/93/93 95/95/95 94/94/94
f 94/94/94 95/95/95 96/96/96
f 95/95/95 97/97/97 96/96/96
f 96/96/96 97/97/97 98/98/98
f 99/99/99 96/96/96 98/98/98
f 94/94/94 96/96/96 99/99/99
f 100/100/100 94/94/94 99/99/99
f 90/90/90 94/94/94 100/100/100
f 92/92/92 90/90/90 101/101/101
f 103/103/103 102/102/102 92/92/92
f 102/102/102 104/104/104 92/92/92
f 105/105/105 102/102/102 103/103/103
f 103/103/103 92/92/92 106/106/106
f 106/106/106 92/92/92 107/107/107
f 108/108/108 103/103/103 106/106/106
f 105/105/105 103/103/103 108/108/108
f 107/107/107 90/90/90 109/109/109
f 112/112/112 111/111/111 110/110/110
f 111/111/111 113/113/113 110/110/110
f 110/110/110 114/114/114 112/112/112
f 114/114/114 115/115/115 112/112/112
f 113/113/113 111/111/111 116/116/116
f 111/111/111 117/117/117 116/116/116
f 115/115/115 114/114/114 118/118/118
f 114/114/114 119/119/119 118/118/118
f 120/120/120 118/118/118 119/119/119
f 121/121/121 120/120/120 119/119/119
f 122/122/122 120/120/120 121/121/121
f 120/120/120 122/122/122 123/123/123
f 121/121/121 124/124/124 122/122/122
f 117/117/117 126/126/126 125/125/125
f 126/126/126 127/127/127 125/125/125
f 130/130/130 129/129/129 128/128/128
f 131/131/131 129/129/129 130/130/130
f 132/132/132 131/131/131 130/130/130
f 132/132/132 130/130/130 133/133/133
f 134/134/134 132/132/132 133/133/133
f 133/133/133 130/130/130 135/135/135
f 136/136/136 133/133/133 135/135/135
f 134/134/134 133/133/133 137/137/137
f 138/138/138 134/134/134 137/137/137
f 136/136/136 139/139/139 133/133/133
f 139/139/139 140/140/140 133/133/133
f 139/139/139 136/136/136 141/141/141
f 136/136/136 142/142/142 141/141/141
f 142/142/142 136/136/136 143/143/143
f 136/136/136 135/135/135 143/143/143
f 143/143/143 135/135/135 130/130/130
f 137/137/137 133/133/133 144/144/144
f 133/133/133 140/140/140 144/144/144
f 140/140/140 139/139/139 144/144/144
f 144/144/144 145/145/145 137/137/137
f 139/139/139 141/141/141 146/146/146
f 147/147/147 139/139/139 146/146/146
f 139/139/139 147/147/147 144/144/144
f 146/146/146 141/141/141 148/148/148
f 141/141/141 149/149/149 148/148/148
f 149/149/149 141/141/141 150/150/150
f 141/141/141 142/142/142 150/150/150
f 142/142/142 143/143/143 150/150/150
f 147/147/147 151/151/151 144/144/144
f 151/151/151 152/152/152 144/144/144
f 151/151/151 147/147/147 153/153/153
f 147/147/147 146/146/146 153/153/153
f 148/148/148 149/149/149 154/154/154
f 149/149/149 150/150/150 154/154/154
f 153/153/153 146/146/146 155/155/155
f 148/148/148 154/154/154 155/155/155
f 148/148/148 155/155/155 146/146/146
f 156/156/156 153/153/153 155/155/155
f 154/154/154 150/150/150 157/157/157
f 150/150/150 158/158/158 157/157/157
f 143/143/143 158/158/158 150/150/150
f 157/157/157 158/158/158 143/143/143
f 154/154/154 159/159/159 155/155/155
f 159/159/159 154/154/154 160/160/160
f 154/154/154 157/157/157 160/160/160
f 157/157/157 161/161/161 160/160/160
f 162/162/162 161/161/161 157/157/157
f 143/143/143 162/162/162 157/157/157
f 143/143/143 130/130/130 162/162/162
f 130/130/130 163/163/163 162/162/162
f 159/159/159 160/160/160 164/164/164
f 155/155/155 164/164/164 156/156/156
f 159/159/159 164/164/164 155/155/155
f 160/160/160 165/165/165 164/164/164
f 164/164/164 166/166/166 156/156/156
f 164/164/164 165/165/165 166/166/166
f 165/165/165 167/167/167 166/166/166
f 156/156/156 166/166/166 168/168/168
f 166/166/166 169/169/169 168/168/168
f 169/169/169 166/166/166 170/170/170
f 166/166/166 167/167/167 170/170/170
f 171/171/171 169/169/169 170/170/170
f 171/171/171 168/168/168 169/169/169
f 172/172/172 171/171/171 170/170/170
f 168/168/168 171/171/171 173/173/173
f 174/174/174 168/168/168 173/173/173
f 156/156/156 168/168/168 174/174/174
f 153/153/153 156/156/156 174/174/174
f 151/151/151 153/153/153 174/174/174
f 175/175/175 151/151/151 174/174/174
f 175/175/175 174/174/174 173/173/173
f 173/173/173 171/171/171 176/176/176
f 171/171/171 172/172/172 176/176/176
f 177/177/177 175/175/175 173/173/173
f 177/177/177 173/173/173 178/178/178
f 173/173/173 179/179/179 178/178/178
f 180/180/180 151/151/151 175/175/175
f 180/180/180 181/181/181 151/151/151
f 184/184/184 183/183/183 182/182/182
f 185/185/185 184/184/184 182/182/182
f 185/185/185 186/186/186 184/184/184
f 131/131/131 186/186/186 185/185/185
f 129/129/129 131/131/131 185/185/185
f 129/129/129 185/185/185 187/187/187
f 188/188/188 187/187/187 185/185/185
f 186/186/186 189/189/189 184/184/184
f 190/190/190 188/188/188 185/185/185
f 191/191/191 190/190/190 185/185/185
f 191/191/191 185/185/185 182/182/182
f 190/190/190 191/191/191 182/182/182
f 188/188/188 190/190/190 192/192/192
f 193/193/193 188/188/188 192/192/192
f 187/187/187 188/188/188 194/194/194
f 188/188/188 193/193/193 194/194/194
f 194/194/194 129/129/129 187/187/187
f 192/192/192 190/190/190 195/195/195
f 190/190/190 196/196/196 195/195/195
f 196/196/196 190/190/190 182/182/182
f 192/192/192 195/195/195 197/197/197
f 198/198/198 192/192/192 197/197/197
f 193/193/193 192/192/192 199/199/199
f 192/192/192 198/198/198 199/199/199
f 194/194/194 193/193/193 199/199/199
f 200/200/200 196/196/196 182/182/182
f 201/201/201 200/200/200 182/182/182
f 195/195/195 196/196/196 202/202/202
f 196/196/196 200/200/200 202/202/202
f 199/199/199 198/198/198 203/203/203
f 198/198/198 197/197/197 203/203/203
f 195/195/195 202/202/202 204/204/204
f 203/203/203 197/197/197 204/204/204
f 197/197/197 195/195/195 204/204/204
f 202/202/202 205/205/205 204/204/204
f 199/199/199 203/203/203 206/206/206
f 207/207/207 199/199/199 206/206/206
f 207/207/207 194/194/194 199/199/199
f 206/206/206 194/194/194 207/207/207
f 208/208/208 203/203/203 204/204/204
f 206/206/206 203/203/203 160/160/160
f 203/203/203 208/208/208 160/160/160
f 206/206/206 160/160/160 161/161/161
f 161/161/161 162/162/162 206/206/206
f 162/162/162 194/194/194 206/206/206
f 129/129/129 194/194/194 162/162/162
f 209/209/209 129/129/129 162/162/162
f 160/160/160 208/208/208 210/210/210
f 210/210/210 204/204/204 205/205/205
f 208/208/208 204/204/204 210/210/210
f 211/211/211 160/160/160 210/210/210
f 212/212/212 210/210/210 205/205/205
f 213/213/213 210/210/210 212/212/212
f 214/214/214 213/213/213 212/212/212
f 212/212/212 205/205/205 215/215/215
f 216/216/216 212/212/212 215/215/215
f 214/214/214 212/212/212 217/217/217
f 212/212/212 216/216/216 217/217/217
f 216/216/216 218/218/218 217/217/217
f 218/218/218 216/216/216 215/215/215
f 218/218/218 219/219/219 217/217/217
f 218/218/218 215/215/215 220/220/220
f 215/215/215 221/221/221 220/220/220
f 215/215/215 205/205/205 221/221/221
f 205/205/205 202/202/202 221/221/221
f 202/202/202 200/200/200 221/221/221
f 200/200/200 222/222/222 221/221/221
f 221/221/221 222/222/222 220/220/220
f 219/219/219 218/218/218 223/223/223
f 218/218/218 220/220/220 223/223/223
f 222/222/222 224/224/224 220/220/220
f 220/220/220 224/224/224 225/225/225
f 226/226/226 220/220/220 225/225/225
f 227/227/227 222/222/222 200/200/200
f 227/227/227 200/200/200 228/228/228
f 231/231/231 230/230/230 229/229/229
f 230/230/230 231/231/231 232/232/232
f 231/231/231 233/233/233 232/232/232
f 233/233/233 234/234/234 232/232/232
f 232/232/232 234/234/234 235/235/235
f 229/229/229 236/236/236 231/231/231
f 236/236/236 233/233/233 231/231/231
f 233/233/233 237/237/237 234/234/234
f 236/236/236 237/237/237 233/233/233
f 230/230/230 239/239/239 238/238/238
f 241/241/241 230/230/230 240/240/240
f 243/243/243 240/240/240 242/242/242
f 240/240/240 245/245/245 244/244/244
f 245/245/245 246/246/246 244/244/244
f 246/246/246 247/247/247 244/244/244
f 234/234/234 248/248/248 245/245/245
f 234/234/234 249/249/249 248/248/248
f 251/251/251 250/250/250 246/246/246
f 251/251/251 252/252/252 250/250/250
f 254/254/254 251/251/251 253/253/253
f 257/257/257 256/256/256 255/255/255
f 256/256/256 258/258/258 255/255/255
f 256/256/256 257/257/257 259/259/259
f 260/260/260 256/256/256 259/259/259
f 257/257/257 261/261/261 259/259/259
f 261/261/261 262/262/262 259/259/259
f 259/259/259 262/262/262 263/263/263
f 255/255/255 264/264/264 257/257/257
f 264/264/264 261/261/261 257/257/257
f 261/261/261 265/265/265 262/262/262
f 264/264/264 265/265/265 261/261/261
f 259/259/259 267/267/267 266/266/266
f 267/267/267 268/268/268 266/266/266
f 268/268/268 269/269/269 266/266/266
f 262/262/262 270/270/270 267/267/267
f 267/267/267 272/272/272 271/271/271
f 272/272/272 273/273/273 268/268/268
f 262/262/262 274/274/274 272/272/272
f 272/272/272 274/274/274 273/273/273
f 277/277/277 276/276/276 275/275/275
f 280/280/280 279/279/279 278/278/278
f 279/279/279 281/281/281 278/278/278
f 281/281/281 279/279/279 282/282/282
f 279/279/279 283/283/283 282/282/282
f 284/284/284 281/281/281 282/282/282
f 285/285/285 284/284/284 282/282/282
f 285/285/285 282/282/282 286/286/286
f 284/284/284 287/287/287 281/281/281
f 288/288/288 278/278/278 281/281/281
f 289/289/289 284/284/284 285/285/285
f 290/290/290 288/288/288 284/284/284
f 292/292/292 282/282/282 291/291/291
f 293/293/293 292/292/292 291/291/291
f 294/294/294 293/293/293 291/291/291
f 295/295/295 285/285/285 292/292/292
f 296/296/296 285/285/285 295/295/295
f 282/282/282 298/298/298 297/297/297
f 300/300/300 299/299/299 293/293/293
f 299/299/299 302/302/302 301/301/301
f 304/304/304 299/299/299 303/303/303
f 307/307/307 306/306/306 305/305/305
f 306/306/306 308/308/308 305/305/305
f 308/308/308 306/306/306 309/309/309
f 306/306/306 310/310/310 309/309/309
f 311/311/311 308/308/308 309/309/309
f 312/312/312 311/311/311 309/309/309
f 312/312/312 309/309/309 313/313/313
f 313/313/313 309/309/309 314/314/314
f 309/309/309 315/315/315 314/314/314
f 316/316/316 313/313/313 314/314/314
f 317/317/317 316/316/316 314/314/314
f 318/318/318 312/312/312 313/313/313
f 319/319/319 305/305/305 308/308/308
f 320/320/320 312/312/312 318/318/318
f 322/322/322 321/321/321 316/316/316
f 321/321/321 324/324/324 323/323/323
f 326/326/326 325/325/325 312/312/312
f 325/325/325 328/328/328 327/327/327
f 329/329/329 328/328/328 325/325/325
f 331/331/331 321/321/321 330/330/330
f 334/334/334 333/333/333 332/332/332
f 333/333/333 335/335/335 332/332/332
f 332/332/332 336/336/336 334/334/334
f 333/333/333 337/337/337 335/335/335
f 337/337/337 338/338/338 335/335/335
f 335/335/335 338/338/338 339/339/339
f 338/338/338 340/340/340 339/339/339
f 332/332/332 335/335/335 341/341/341
f 335/335/335 339/339/339 341/341/341
f 343/343/343 342/342/342 332/332/332
f 346/346/346 345/345/345 344/344/344
f 345/345/345 347/347/347 344/344/344
f 345/345/345 348/348/348 347/347/347
f 346/346/346 344/344/344 349/349/349
f 350/350/350 346/346/346 349/349/349
f 351/351/351 346/346/346 350/350/350
f 346/346/346 351/351/351 345/345/345
f 352/352/352 351/351/351 350/350/350
f 351/351/351 353/353/353 345/345/345
f 353/353/353 354/354/354 345/345/345
f 357/357/357 356/356/356 355/355/355
f 357/357/357 359/359/359 358/358/358
f 359/359/359 360/360/360 358/358/358
f 363/363/363 362/362/362 361/361/361
f 361/361/361 365/365/365 364/364/364
f 365/365/365 366/366/366 364/364/364
f 369/369/369 368/368/368 367/367/367
f 372/372/372 371/371/371 370/370/370
f 375/375/375 374/374/374 373/373/373
f 374/374/374 376/376/376 373/373/373
f 373/373/373 377/377/377 375/375/375
f 374/374/374 378/378/378 376/376/376
f 378/378/378 379/379/379 376/376/376
f 376/376/376 379/379/379 380/380/380
f 379/379/379 381/381/381 380/380/380
f 373/373/373 376/376/376 382/382/382
f 376/376/376 383/383/383 382/382/382
f 382/382/382 384/384/384 373/373/373
f 387/387/387 386/386/386 385/385/385
f 386/386/386 388/388/388 385/385/385
f 386/386/386 389/389/389 388/388/388
f 387/387/387 385/385/385 390/390/390
f 391/391/391 387/387/387 390/390/390
f 392/392/392 387/387/387 391/391/391
f 387/387/387 392/392/392 386/386/386
f 393/393/393 392/392/392 391/391/391
f 392/392/392 394/394/394 386/386/386
f 394/394/394 395/395/395 386/386/386
f 398/398/398 397/397/397 396/396/396
f 398/398/398 400/400/400 399/399/399
f 400/400/400 401/401/401 399/399/399
f 404/404/404 403/403/403 402/402/402
f 402/402/402 406/406/406 405/405/405
f 406/406/406 407/407/407 405/405/405
f 410/410/410 409/409/409 408/408/408
f 413/413/413 412/412/412 411/411/411
f 416/416/416 415/415/415 414/414/414
f 415/415/415 417/417/417 414/414/414
f 415/415/415 418/418/418 417/417/417
f 418/418/418 419/419/419 417/417/417
f 417/417/417 419/419/419 420/420/420
f 419/419/419 421/421/421 420/420/420
f 414/414/414 417/417/417 422/422/422
f 417/417/417 420/420/420 422/422/422
f 414/414/414 424/424/424 423/423/423
f 426/426/426 425/425/425 414/414/414
f 429/429/429 428/428/428 427/427/427
f 428/428/428 430/430/430 427/427/427
f 428/428/428 431/431/431 430/430/430
f 429/429/429 427/427/427 432/432/432
f 433/433/433 429/429/429 432/432/432
f 434/434/434 429/429/429 433/433/433
f 429/429/429 434/434/434 428/428/428
f 435/435/435 434/434/434 433/433/433
f 434/434/434 436/436/436 428/428/428
f 436/436/436 437/437/437 428/428/428
f 440/440/440 439/439/439 438/438/438
f 440/440/440 442/442/442 441/441/441
f 442/442/442 443/443/443 441/441/441
f 446/446/446 445/445/445 444/444/444
f 444/444/444 448/448/448 447/447/447
f 448/448/448 449/449/449 447/447/447
f 452/452/452 451/451/451 450/450/450
f 455/455/455 454/454/454 453/453/453
f 458/458/458 457/457/457 456/456/456
f 456/456/456 459/459/459 458/458/458
f 461/461/461 460/460/460 456/456/456
f 461/461/461 462/462/462 460/460/460
f 462/462/462 463/463/463 460/460/460
f 460/460/460 463/463/463 464/464/464
f 463/463/463 465/465/465 464/464/464
f 456/456/456 460/460/460 466/466/466
f 460/460/460 467/467/467 466/466/466
f 466/466/466 468/468/468 456/456/456
f 471/471/471 470/470/470 469/469/469
f 470/470/470 472/472/472 469/469/469
f 470/470/470 473/473/473 472/472/472
f 471/471/471 469/469/469 474/474/474
f 475/475/475 471/471/471 474/474/474
f 476/476/476 471/471/471 475/475/475
f 471/471/471 476/476/476 470/470/470
f 477/477/477 476/476/476 475/475/475
f 476/476/476 478/478/478 470/470/470
f 478/478/478 479/479/479 470/470/470
f 482/482/482 481/481/481 480/480/480
f 482/482/482 484/484/484 483/483/483
f 484/484/484 486/486/486 485/485/485
f 489/489/489 488/488/488 487/487/487
f 487/487/487 491/491/491 490/490/490
f 491/491/491 492/492/492 490/490/490
f 495/495/495 494/494/494 493/493/493
f 498/498/498 497/497/497 496/496/496
