g rider_Flag_slingShot_MC1
v 0.636579037 -1.83998501 0.611544192
v 0.613466263 -1.80771875 0.631748021
v 0.59340179 -1.80837309 0.604831278
v 0.612467587 -1.82330024 0.576341987
v 0.612467587 -1.82330024 0.576341987
v 0.639078736 -1.83827484 0.579517782
v 0.501128197 -1.93107605 0.651283622
v 0.636579037 -1.83998501 0.611544192
v 0.511046648 -1.96118164 0.635324478
v 0.613466263 -1.80771875 0.631748021
v 0.513985991 -1.96093047 0.599163592
v 0.639078736 -1.83827484 0.579517782
v 0.259084463 -2.05611992 0.811389267
v 0.244163856 -2.0421207 0.799913466
v 0.254724532 -2.08241963 0.806160688
v 0.249700621 -2.073982 0.781846285
v 0.476228982 -1.97019804 0.628415883
v 0.254724532 -2.08241963 0.806160688
v 0.348297 -2.22112203 0.526617587
v 0.368654191 -2.22932649 0.518336654
v 0.513985991 -1.96093047 0.599163592
v 0.36835891 -2.23245692 0.491352648
v 0.354177147 -2.21040177 0.491650224
v 0.495074153 -1.94555235 0.59452635
v 0.341039002 -2.20577288 0.511879504
v 0.486550897 -1.93596864 0.61275053
v 0.612467587 -1.82330024 0.576341987
v 0.59340179 -1.80837309 0.604831278
v 0.487872005 -1.92041683 0.633464634
v 0.501128197 -1.93107605 0.651283622
v 0.513985991 -1.96093047 0.599163592
v 0.639078736 -1.83827484 0.579517782
v 0.244163856 -2.0421207 0.799913466
v 0.241451606 -2.05097365 0.779425919
v 0.476228982 -1.97019804 0.628415883
v 0.501128197 -1.93107605 0.651283622
v 0.613466263 -1.80771875 0.631748021
v 0.249700621 -2.073982 0.781846285
v 0.476228982 -1.97019804 0.628415883
v 0.476228982 -1.97019804 0.628415883
v 0.348297 -2.22112203 0.526617587
v 0.259084463 -2.05611992 0.811389267
v 0.241451606 -2.05097365 0.779425919
v 0.244163856 -2.0421207 0.799913466
v 0.249700621 -2.073982 0.781846285
v 0.254724532 -2.08241963 0.806160688
v 0.368654191 -2.22932649 0.518336654
v 0.341039002 -2.20577288 0.511879504
v 0.348297 -2.22112203 0.526617587
v 0.354177147 -2.21040177 0.491650224
v 0.341039002 -2.20577288 0.511879504
v 0.36835891 -2.23245692 0.491352648
v 0.340334386 -2.01666522 0.728672266
v 0.29658407 -2.08367419 0.445370406
v 0.275841773 -2.04684472 0.773728251
v 0.350364864 -2.03506708 0.431833684
v 0.315470129 -2.11629105 0.360096037
v 0.368458807 -2.06632137 0.348889917
v 0.387308061 -2.09862065 0.323129028
v 0.334318638 -2.1485889 0.334337354
v 0.40459922 -2.12721944 0.539574623
v 0.334318638 -2.1485889 0.334337354
v 0.387308061 -2.09862065 0.323129028
v 0.367081225 -2.2038033 0.50525862
v 0.340334386 -2.01666522 0.728151023
v 0.29658407 -2.08367419 0.444849163
v 0.350364864 -2.03506708 0.431312442
v 0.275841773 -2.04684472 0.773207009
v 0.315470129 -2.11629105 0.359574795
v 0.368458807 -2.06632137 0.348368675
v 0.387308061 -2.09862065 0.322607785
v 0.334318638 -2.1485889 0.333816111
v 0.40459922 -2.12721944 0.53905338
v 0.334318638 -2.1485889 0.333816111
v 0.367081225 -2.2038033 0.504737377
v 0.387308061 -2.09862065 0.322607785
vt 0.0720942393 0.96709764
vt 0.0870563984 0.990547419
vt 0.116756752 0.979125321
vt 0.116739005 0.956878483
vt 0.116739005 0.956878483
vt 0.0888053775 0.945795238
vt 0.0459326394 0.883805513
vt 0.0397945382 0.781679571
vt 0.0757705867 0.880755723
vt 0.00422684569 0.792133331
vt 0.104084857 0.86684227
vt 0.0640477911 0.76904732
vt 0.0141058238 0.985819578
vt 0.0139858844 0.985807121
vt 0.0322297327 0.992877781
vt 0.0460863523 0.984952629
vt 0.0827417597 0.8972978
vt 0.0322297327 0.992877781
vt 0.166702181 0.938070953
vt 0.179556727 0.927232862
vt 0.10401345 0.866497457
vt 0.202195346 0.918529451
vt 0.188564271 0.920244455
vt 0.0974356756 0.870455503
vt 0.16903466 0.932509422
vt 0.0771914944 0.878568828
vt 0.055756893 0.777035654
vt 0.0235999189 0.79254812
vt 0.0526675396 0.881263852
vt 0.0458611883 0.883460641
vt 0.10401345 0.866497457
vt 0.0639764071 0.768702567
vt 0.0139858844 0.985807121
vt 0.0345379077 0.982249737
vt 0.0827417597 0.8972978
vt 0.0458611883 0.883460641
vt 0.00415547285 0.791788518
vt 0.0460149236 0.984607697
vt 0.0827417597 0.8972978
vt 0.0827417597 0.8972978
vt 0.166630775 0.937726021
vt 0.151551157 0.98897922
vt 0.123484656 0.957426071
vt 0.128108025 0.985134304
vt 0.146706179 0.944169521
vt 0.168201715 0.963193953
vt 0.151551157 0.98897922
vt 0.123484656 0.957426071
vt 0.128108025 0.985134304
vt 0.146706179 0.944169521
vt 0.123484656 0.957426071
vt 0.168201715 0.963193953
vt 0 0
vt 0.328194112 1
vt 0 1
vt 0.268735588 0
vt 0.5 1
vt 0.5 0
vt 0.704689503 0
vt 0.655048966 1
vt 1 0
vt 0.655048966 1
vt 0.704689503 0
vt 1 1
vt 0 0
vt 0.328194112 1
vt 0.268735588 0
vt 0 1
vt 0.5 1
vt 0.5 0
vt 0.704689503 0
vt 0.655048966 1
vt 1 0
vt 0.655048966 1
vt 1 1
vt 0.704689503 0
vn 0.565443635 0.815752327 -0.121744119
vn 0.573226929 0.688651085 -0.444038987
vn 0.597600102 0.765774906 -0.237618983
vn 0.554906547 0.831792176 0.0141640222
vn 0.554906547 0.831792176 0.0141640222
vn 0.48101905 0.872662902 0.0841441154
vn 0.209107935 0.264806539 0.941356122
vn 0.655759931 -0.574081659 0.490315348
vn 0.648379385 -0.578062057 0.495427579
vn -0.0329847001 0.198666483 0.979511976
vn 0.683088362 -0.425317615 -0.593713105
vn 0.502772808 -0.609812975 -0.612656295
vn 0.435425758 0.267731786 0.859490633
vn -0.319668829 0.923735976 0.211006254
vn 0.573402703 -0.748059809 0.334089726
vn -0.0616032295 -0.777244866 -0.626175284
vn -0.635139048 -0.767273068 0.0888283923
vn 0.573402703 -0.748059809 0.334089726
vn -0.485444278 -0.103372566 0.868134856
vn 0.634438038 -0.561917663 0.530789018
vn 0.683088362 -0.425317615 -0.593713105
vn 0.800789595 -0.207764477 -0.561756074
vn -0.0634413138 0.391781002 -0.917868614
vn -0.310016036 0.337921739 -0.88865006
vn -0.868257999 0.489221305 -0.0824049711
vn -0.715099216 0.509046853 -0.479066193
vn -0.287156463 0.124357916 -0.949777007
vn -0.7232548 0.690382838 -0.0165523756
vn -0.586708307 0.805714071 0.0812292844
vn 0.209107935 0.264806539 0.941356122
vn 0.683088362 -0.425317615 -0.593713105
vn 0.502772808 -0.609812975 -0.612656295
vn -0.319668829 0.923735976 0.211006254
vn -0.632492959 0.294762343 -0.716287613
vn -0.635139048 -0.767273068 0.0888283923
vn 0.209107935 0.264806539 0.941356122
vn -0.0329847001 0.198666483 0.979511976
vn -0.0616032295 -0.777244866 -0.626175284
vn -0.635139048 -0.767273068 0.0888283923
vn -0.635139048 -0.767273068 0.0888283923
vn -0.485444278 -0.103372566 0.868134856
vn -0.916918337 -0.191559121 0.35009402
vn -0.836507261 -0.372990936 0.401414186
vn -0.836507201 -0.372990936 0.401414216
vn -0.919521987 -0.183547452 0.347547978
vn -0.964634359 0.112526841 0.23836568
vn -0.695958912 -0.69548589 -0.178719327
vn -0.567809761 -0.755392253 -0.327069908
vn -0.567809761 -0.755392253 -0.327069908
vn -0.700830758 -0.692243397 -0.172148988
vn -0.567809761 -0.755392253 -0.327069908
vn -0.838503361 -0.540140152 0.0718393326
vn 0.58542794 -0.804546952 0.0998910889
vn 0.635166824 -0.735299528 0.236426935
vn 0.585427999 -0.804546952 0.0998911113
vn 0.642112494 -0.72136879 0.259458214
vn 0.603879631 -0.504462898 0.617127657
vn 0.60677439 -0.509114265 0.610432267
vn -0.179507226 0.102493301 0.978402972
vn -0.404936641 0.255424023 0.877943575
vn -0.811843455 0.540120065 0.221766815
vn -0.404936641 0.255424023 0.877943575
vn -0.179507226 0.102493301 0.978402972
vn -0.811843455 0.540120065 0.221766844
vn -0.58542794 0.804546952 -0.0998910889
vn -0.635166824 0.735299528 -0.236426935
vn -0.642112494 0.721368849 -0.259458214
vn -0.585427999 0.804546952 -0.0998911113
vn -0.603879571 0.504462898 -0.617127657
vn -0.60677433 0.509114206 -0.610432267
vn 0.179507226 -0.102493338 -0.978402972
vn 0.404936641 -0.255424023 -0.877943575
vn 0.811843455 -0.540120065 -0.221766815
vn 0.404936641 -0.255424023 -0.877943575
vn 0.811843455 -0.540120065 -0.221766844
vn 0.179507226 -0.102493338 -0.978402972
g rider_Flag_slingShot_MC1_0
f 3/3/3 2/2/2 1/1/1
f 4/4/4 3/3/3 1/1/1
f 6/6/6 5/5/5 1/1/1
f 9/9/9 8/8/8 7/7/7
f 8/8/8 10/10/10 7/7/7
f 8/8/8 9/9/9 11/11/11
f 12/12/12 8/8/8 11/11/11
f 7/7/7 13/13/13 9/9/9
f 14/14/14 13/13/13 7/7/7
f 13/13/13 15/15/15 9/9/9
f 17/17/17 9/9/9 16/16/16
f 9/9/9 18/18/18 16/16/16
f 17/17/17 19/19/19 9/9/9
f 19/19/19 20/20/20 9/9/9
f 9/9/9 20/20/20 21/21/21
f 20/20/20 22/22/22 21/21/21
f 21/21/21 22/22/22 23/23/23
f 24/24/24 21/21/21 23/23/23
f 24/24/24 23/23/23 25/25/25
f 26/26/26 24/24/24 25/25/25
f 27/27/27 24/24/24 26/26/26
f 28/28/28 27/27/27 26/26/26
f 29/29/29 28/28/28 26/26/26
f 28/28/28 29/29/29 30/30/30
f 24/24/24 27/27/27 31/31/31
f 27/27/27 32/32/32 21/21/21
f 29/29/29 33/33/33 30/30/30
f 26/26/26 34/34/34 29/29/29
f 34/34/34 33/33/33 29/29/29
f 26/26/26 17/17/17 34/34/34
f 26/26/26 25/25/25 35/35/35
f 37/37/37 28/28/28 36/36/36
f 39/39/39 38/38/38 34/34/34
f 25/25/25 41/41/41 40/40/40
f 44/44/44 43/43/43 42/42/42
f 43/43/43 45/45/45 42/42/42
f 45/45/45 46/46/46 42/42/42
f 49/49/49 48/48/48 47/47/47
f 51/51/51 50/50/50 47/47/47
f 50/50/50 52/52/52 47/47/47
f 55/55/55 54/54/54 53/53/53
f 54/54/54 56/56/56 53/53/53
f 54/54/54 57/57/57 56/56/56
f 57/57/57 58/58/58 56/56/56
f 59/59/59 58/58/58 57/57/57
f 60/60/60 59/59/59 57/57/57
f 63/63/63 62/62/62 61/61/61
f 62/62/62 64/64/64 61/61/61
f 67/67/67 66/66/66 65/65/65
f 66/66/66 68/68/68 65/65/65
f 69/69/69 66/66/66 67/67/67
f 70/70/70 69/69/69 67/67/67
f 70/70/70 71/71/71 69/69/69
f 71/71/71 72/72/72 69/69/69
f 75/75/75 74/74/74 73/73/73
f 74/74/74 76/76/76 73/73/73
