g spear_02
v 0.00928570051 0.0243800301 0.937652469
v -0.00928580016 -1.57952343E-07 0.96724242
v -0.00928578991 0.0243800301 0.937652409
v 0.00928569213 -1.57952343E-07 0.967242479
v 0.00928570982 -1.57952343E-07 0.908052444
v -0.00928578246 -1.57952343E-07 0.908052325
v 0.00928570051 -0.0243803449 0.937652469
v -0.00928579085 -0.0243803449 0.937652409
v 0.00928569213 -1.57952343E-07 0.967242479
v -0.00928580016 -1.57952343E-07 0.96724242
v 0.00936369225 -0.0155900633 0.999732435
v -0.00936380215 -0.0155900614 0.999732316
v -3.16454702E-07 -0.0311900396 1.04789233
v -0.0063997861 -0.0105601549 0.951732337
v 0.00639970647 -0.0105601549 0.951732397
v 0.00936369225 0.015599818 0.999732435
v -3.16454702E-07 0.0311997961 1.04789233
v -0.00936380029 0.0155998189 0.999732316
v -0.0063997861 0.010569606 0.951732337
v 0.00639970647 0.010569606 0.951732397
v 9.75023653E-08 0.0191697646 -0.322864652
v -0.016601149 0.00958999153 0.46746242
v -0.0166009106 0.00958999153 -0.322864652
v -1.41169764E-07 0.0191697646 0.46746242
v -0.0166011509 -0.009580235 0.46746242
v -0.0166009124 -0.009580235 -0.322864652
v -1.41169764E-07 -0.0191703849 0.46746242
v 9.75023653E-08 -0.0191703849 -0.322864652
v 0.0166010894 0.00958999153 -0.322864652
v 0.016600851 0.00958999153 0.46746245
v 0.0166010875 -0.00958023686 -0.322864652
v 0.0166008491 -0.00958023686 0.46746245
v 9.75023653E-08 -0.0191703849 -0.322864652
v -1.41169764E-07 -0.0191703849 0.46746242
v -2.49832397E-07 0.0191697646 0.827282488
v -0.00993829034 0.0057398933 0.922542393
v -0.0166012589 0.00958999153 0.827282488
v -2.78600112E-07 0.0114796394 0.922542393
v -0.00993829034 -0.00574020855 0.922542393
v -0.0166012608 -0.009580235 0.827282488
v -2.78600112E-07 -0.0114701884 0.922542393
v -2.49832397E-07 -0.0191703849 0.827282488
v 0.0166007411 0.00958999153 0.827282488
v 0.00993870571 0.00573989376 0.922542453
v 0.0166007392 -0.00958023686 0.827282488
v 0.00993870571 -0.00574020902 0.922542453
v -2.49832397E-07 -0.0191703849 0.827282488
v -2.78600112E-07 -0.0114701884 0.922542393
v -1.41169764E-07 0.0191697646 0.46746242
v -0.016601149 0.00958999153 0.46746242
v -0.0166011509 -0.009580235 0.46746242
v -1.41169764E-07 -0.0191703849 0.46746242
v -1.41169764E-07 -0.0191703849 0.46746242
v 0.0166008491 -0.00958023686 0.46746245
v 0.016600851 0.00958999153 0.46746245
v 1.64891162E-07 0.0191697646 -0.54601258
v -0.0166009106 0.00958999153 -0.322864652
v -0.0166008454 0.00958999153 -0.54601258
v 9.75023653E-08 0.0191697646 -0.322864652
v -0.0166009124 -0.009580235 -0.322864652
v -0.0166008454 -0.009580235 -0.54601258
v 9.75023653E-08 -0.0191703849 -0.322864652
v 1.64891162E-07 -0.0191703849 -0.54601258
v 0.0166011564 0.00958999153 -0.54601258
v 0.0166010894 0.00958999153 -0.322864652
v 0.0166011546 -0.00958023686 -0.54601258
v 0.0166010875 -0.00958023686 -0.322864652
v 1.64891162E-07 -0.0191703849 -0.54601258
v 9.75023653E-08 -0.0191703849 -0.322864652
v -0.0116698463 0.00673964946 -0.564964652
v 1.70614527E-07 0.0134797627 -0.564964652
v 0.0116711603 0.00673964946 -0.564964652
v 0.0116711603 -0.00673019979 -0.564964652
v 1.70614527E-07 -0.0134703116 -0.564964652
v 1.70614527E-07 -0.0134703116 -0.564964652
v -0.0116698463 -0.00673019979 -0.564964652
v 1.76337892E-07 0.011439967 -0.583916664
v -0.00990083348 0.00571975159 -0.583916664
v 0.00990116596 0.00571975205 -0.583916664
v 0.00990116596 -0.00571030192 -0.583916664
v 1.76337892E-07 -0.0114302104 -0.583916664
v -0.00990083348 -0.00571030146 -0.583916664
v 1.76337892E-07 -0.0114302104 -0.583916664
v -0.019200813 0.00979995169 -0.592634618
v 1.76337892E-07 0.011439967 -0.583916664
v -0.00990083348 0.00571975159 -0.583916664
v 1.78970637E-07 0.0195997581 -0.592634618
v -0.0192008149 -0.00980026927 -0.592634618
v -0.00990083348 -0.00571030146 -0.583916664
v 1.78970637E-07 -0.019590307 -0.592634618
v 1.76337892E-07 -0.0114302104 -0.583916664
v -0.0192008093 0.00979995169 -0.608386576
v 1.83727579E-07 0.0195997581 -0.608386576
v -0.0192008093 -0.00980026927 -0.608386576
v 1.83727579E-07 -0.019590307 -0.608386576
v -0.0112657985 0.00979995262 -0.610880733
v -0.0112657845 0.00979995262 -0.658267736
v 1.9879127E-07 0.0195997581 -0.658267736
v -0.00764077343 0.0072697401 -0.723901749
v 2.18612186E-07 0.014539944 -0.723901749
v -0.00764077343 -0.00727036083 -0.723901749
v -0.0112657845 -0.00980026741 -0.658267736
v 2.18612186E-07 -0.0145301875 -0.723901749
v 1.9879127E-07 -0.019590307 -0.658267736
v 2.38096945E-07 -1.5782652E-07 -0.789534748
v 2.38096945E-07 -1.5782652E-07 -0.789534748
v -0.0112657985 -0.00980026741 -0.610880733
v 2.38096945E-07 -1.5782652E-07 -0.789534748
v 0.00764120976 0.0072697401 -0.723901629
v 2.18612186E-07 0.014539944 -0.723901749
v 1.9879127E-07 0.0195997581 -0.658267736
v 0.0112661822 0.00979995262 -0.658267677
v 0.00764120976 -0.00727036083 -0.723901629
v 0.0112661822 -0.00980026834 -0.658267677
v 2.18612186E-07 -0.0145301875 -0.723901749
v 1.9879127E-07 -0.019590307 -0.658267736
v 1.83727579E-07 0.0195997581 -0.608386576
v 0.0112661682 0.00979995262 -0.610880733
v 0.0112661682 -0.00980026834 -0.610880733
v 1.83727579E-07 -0.019590307 -0.608386576
v 0.0192011762 0.00979995262 -0.608386576
v 1.78970637E-07 0.0195997581 -0.592634618
v 0.0192011725 0.00979995262 -0.592634618
v 1.76337892E-07 0.011439967 -0.583916664
v 0.00990116596 0.00571975205 -0.583916664
v 0.0192011707 -0.00980026834 -0.592634618
v 0.00990116596 -0.00571030192 -0.583916664
v 1.78970637E-07 -0.019590307 -0.592634618
v 1.76337892E-07 -0.0114302104 -0.583916664
v 0.0192011762 -0.00980026834 -0.608386576
v -0.0160152726 -1.57356297E-07 0.916002333
v -0.0160152856 -1.57356297E-07 0.959292293
v -0.01601528 -0.0178602636 0.937652409
v -0.0160152782 0.0178596452 0.937652409
v -0.00928578991 0.0243800301 0.937652409
v -0.00928580016 -1.57952343E-07 0.96724242
v -0.00928579085 -0.0243803449 0.937652409
v -0.00928580016 -1.57952343E-07 0.96724242
v -0.00928578246 -1.57952343E-07 0.908052325
v -0.00928578246 -1.57952343E-07 0.908052325
v -0.0153623121 -1.57356311E-07 1.04789233
v -0.00936380215 -0.0155900614 0.999732316
v -0.0132102938 -1.57356297E-07 0.999732316
v -3.16454702E-07 -0.0311900396 1.04789233
v -3.44425189E-07 -0.021990208 1.14051235
v -0.0111193284 -1.57356311E-07 1.14051235
v -3.82978101E-07 -1.57825468E-07 1.26706243
v -0.00902828481 -1.57952343E-07 0.951732337
v -0.0063997861 -0.0105601549 0.951732337
v -0.00936380029 0.0155998189 0.999732316
v -3.16454702E-07 0.0311997961 1.04789233
v -3.44425189E-07 0.021999659 1.14051235
v -0.0063997861 0.010569606 0.951732337
v 0.0160147194 -1.57356297E-07 0.916002393
v 0.0160147063 -1.57356297E-07 0.959292352
v 0.0160147119 0.0178596452 0.937652469
v 0.0160147119 -0.0178602654 0.937652469
v 0.00928570051 0.0243800301 0.937652469
v 0.00928569213 -1.57952343E-07 0.967242479
v 0.00928570051 -0.0243803449 0.937652469
v 0.00928569213 -1.57952343E-07 0.967242479
v 0.00928570982 -1.57952343E-07 0.908052444
v 0.00928570982 -1.57952343E-07 0.908052444
v 0.0153616806 -1.57356311E-07 1.04789233
v 0.00936369225 -0.0155900633 0.999732435
v -3.16454702E-07 -0.0311900396 1.04789233
v 0.0132096903 -1.57356297E-07 0.999732435
v -3.44425189E-07 -0.021990208 1.14051235
v 0.0111186393 -1.57356311E-07 1.14051247
v -3.82978101E-07 -1.57825468E-07 1.26706243
v 0.00902770832 -1.57952343E-07 0.951732397
v 0.00639970647 -0.0105601549 0.951732397
v 0.00936369225 0.015599818 0.999732435
v -3.16454702E-07 0.0311997961 1.04789233
v -3.44425189E-07 0.021999659 1.14051235
v 0.00639970647 0.010569606 0.951732397
v 0.00304947817 0.00947141182 0.92057699
v 0.00304946606 0.0290729627 0.965275943
v 0.00304947933 0.0274275728 0.913224101
v 0.00304946885 0.00684230775 0.954096556
v 0.00258364482 0.0397820733 0.890332162
v 4.94725864E-05 0.0620779246 0.929167986
v 4.94850538E-05 0.0565134026 0.887874365
v 4.94974556E-05 0.0370244235 0.84681195
v 4.94634005E-05 0.0593337007 0.975377738
v 0.00222759484 0.0424595438 0.986989677
v 4.9453527E-05 0.0431065708 1.00808215
v -0.00295053539 0.0290729664 0.965275884
v -0.00295052188 0.00947141182 0.92057693
v -0.00295051956 0.0274275728 0.913223982
v -0.00295053096 0.00684230775 0.954096496
v -0.00248467387 0.0397820733 0.890332103
v 4.94725864E-05 0.0620779246 0.929167986
v 4.94850538E-05 0.0565134026 0.887874365
v 4.94974556E-05 0.0370244235 0.84681195
v 4.94634005E-05 0.0593337007 0.975377738
v -0.00212867488 0.0424595438 0.986989558
v 4.9453527E-05 0.0431065708 1.00808215
v -0.00295051956 0.0274275728 0.913223982
v 0.00304947817 0.00947141182 0.92057699
v 0.00304947933 0.0274275728 0.913224101
v -0.00295052188 0.00947141182 0.92057693
v -0.00248467387 0.0397820733 0.890332103
v 0.00258364482 0.0397820733 0.890332162
v 4.94974556E-05 0.0370244235 0.84681195
v -0.00295053096 0.00684230775 0.954096496
v 0.00304946606 0.0290729627 0.965275943
v 0.00304946885 0.00684230775 0.954096556
v -0.00295053539 0.0290729664 0.965275884
v 0.00222759484 0.0424595438 0.986989677
v -0.00212867488 0.0424595438 0.986989558
v 4.9453527E-05 0.0431065708 1.00808215
v 0.00304947817 -0.00947142206 0.92057699
v 0.00304946606 -0.0290729739 0.965275943
v 0.00304946932 -0.00684231846 0.954096556
v 0.00304947933 -0.0274275821 0.913224101
v 0.00258364738 -0.0397820845 0.890332162
v 4.94725864E-05 -0.0620779246 0.929167986
v 4.94850538E-05 -0.0565134138 0.887874365
v 4.94974556E-05 -0.0370244309 0.84681195
v 4.94634005E-05 -0.0593337081 0.975377738
v 0.00222759484 -0.042459555 0.986989677
v 4.9453527E-05 -0.0431065783 1.00808215
v -0.00295053539 -0.0290729702 0.965275884
v -0.00295052188 -0.00947142206 0.92057693
v -0.0029505312 -0.00684231846 0.954096496
v -0.00295051956 -0.0274275821 0.913223982
v -0.00248467131 -0.0397820845 0.890332103
v 4.94725864E-05 -0.0620779246 0.929167986
v 4.94850538E-05 -0.0565134138 0.887874365
v 4.94974556E-05 -0.0370244309 0.84681195
v 4.94634005E-05 -0.0593337081 0.975377738
v -0.00212867488 -0.042459555 0.986989558
v 4.9453527E-05 -0.0431065783 1.00808215
v -0.00295051956 -0.0274275821 0.913223982
v 0.00304947817 -0.00947142206 0.92057699
v -0.00295052188 -0.00947142206 0.92057693
v 0.00304947933 -0.0274275821 0.913224101
v -0.00248467131 -0.0397820845 0.890332103
v 0.00258364738 -0.0397820845 0.890332162
v 4.94974556E-05 -0.0370244309 0.84681195
v -0.0029505312 -0.00684231846 0.954096496
v 0.00304946606 -0.0290729739 0.965275943
v -0.00295053539 -0.0290729702 0.965275884
v 0.00304946932 -0.00684231846 0.954096556
v 0.00222759484 -0.042459555 0.986989677
v -0.00212867488 -0.042459555 0.986989558
v 4.9453527E-05 -0.0431065783 1.00808215
v -0.0233396422 0.0134750018 0.804726839
v -2.52525211E-07 0.026950011 0.836199224
v -0.0233396534 0.0134750018 0.836199224
v -2.43020793E-07 0.026950011 0.804726839
v -0.0233396422 -0.013475012 0.804726839
v -0.0233396534 -0.013475012 0.836199224
v 0.0233391467 0.0134750009 0.836199343
v 0.0233391561 0.0134750009 0.804726839
v 0.0233391467 -0.0134750102 0.836199343
v 0.0233391561 -0.0134750102 0.804726839
v -2.50141028E-07 -0.0269500203 0.836199224
v -2.40636581E-07 -0.0269500203 0.804726839
v -0.0233396534 -0.013475012 0.836199224
v -0.0233396422 -0.013475012 0.804726839
v 0.0233391561 -0.0134750102 0.804726839
v -2.43020793E-07 0.026950011 0.804726839
v -2.40636581E-07 -0.0269500203 0.804726839
v 0.0233391561 0.0134750009 0.804726839
v -0.0233396422 -0.013475012 0.804726839
v -0.0233396422 0.0134750018 0.804726839
v -0.0233396534 0.0134750018 0.836199224
v -2.50141028E-07 -0.0269500203 0.836199224
v -0.0233396534 -0.013475012 0.836199224
v -2.52525211E-07 0.026950011 0.836199224
v 0.0233391467 -0.0134750102 0.836199343
v 0.0233391467 0.0134750009 0.836199343
v -0.0233395379 0.0134750018 0.458669603
v -1.48018827E-07 0.026950011 0.490142047
v -0.0233395472 0.0134750018 0.490142047
v -1.38514409E-07 0.026950011 0.458669603
v -0.0233395379 -0.013475012 0.458669603
v -0.0233395472 -0.013475012 0.490142047
v 0.0233392511 0.0134750009 0.490142077
v 0.0233392622 0.0134750009 0.458669662
v 0.0233392511 -0.0134750102 0.490142077
v 0.0233392622 -0.0134750102 0.458669662
v -1.4563463E-07 -0.0269500203 0.490142047
v -1.36130225E-07 -0.0269500203 0.458669603
v -0.0233395472 -0.013475012 0.490142047
v -0.0233395379 -0.013475012 0.458669603
v 0.0233392622 -0.0134750102 0.458669662
v -1.38514409E-07 0.026950011 0.458669603
v -1.36130225E-07 -0.0269500203 0.458669603
v 0.0233392622 0.0134750009 0.458669662
v -0.0233395379 -0.013475012 0.458669603
v -0.0233395379 0.0134750018 0.458669603
v -0.0233395472 0.0134750018 0.490142047
v -1.4563463E-07 -0.0269500203 0.490142047
v -0.0233395472 -0.013475012 0.490142047
v -1.48018827E-07 0.026950011 0.490142047
v 0.0233392511 -0.0134750102 0.490142077
v 0.0233392511 0.0134750009 0.490142077
v -0.0233392958 0.0134750018 -0.346829027
v 9.52350092E-08 0.026950011 -0.315356642
v -0.0233393051 0.0134750018 -0.315356642
v 1.04739406E-07 0.026950011 -0.346829027
v -0.0233392958 -0.013475012 -0.346829027
v -0.0233393051 -0.013475012 -0.315356642
v 0.0233394951 0.0134750009 -0.315356642
v 0.0233395044 0.0134750009 -0.346829027
v 0.0233394951 -0.0134750102 -0.315356642
v 0.0233395044 -0.0134750102 -0.346829027
v 9.76191927E-08 -0.0269500203 -0.315356642
v 1.07123597E-07 -0.0269500203 -0.346829027
v -0.0233393051 -0.013475012 -0.315356642
v -0.0233392958 -0.013475012 -0.346829027
v 0.0233395044 -0.0134750102 -0.346829027
v 1.04739406E-07 0.026950011 -0.346829027
v 1.07123597E-07 -0.0269500203 -0.346829027
v 0.0233395044 0.0134750009 -0.346829027
v -0.0233392958 -0.013475012 -0.346829027
v -0.0233392958 0.0134750018 -0.346829027
v -0.0233393051 0.0134750018 -0.315356642
v 9.76191927E-08 -0.0269500203 -0.315356642
v -0.0233393051 -0.013475012 -0.315356642
v 9.52350092E-08 0.026950011 -0.315356642
v 0.0233394951 -0.0134750102 -0.315356642
v 0.0233394951 0.0134750009 -0.315356642
vt 0.994228065 0.671867609
vt 0.96621573 0.643171906
vt 0.96621573 0.671867609
vt 0.994228065 0.643171906
vt 0.994228065 0.700562239
vt 0.966215611 0.700562239
vt 0.994228065 0.729257941
vt 0.966215611 0.729257941
vt 0.994228065 0.757953703
vt 0.966215611 0.757953703
vt 0.209216744 0.747363091
vt 0.174296767 0.744193017
vt 0.174486071 0.792305768
vt 0.195518404 0.700275898
vt 0.219437271 0.70241338
vt 0.269778877 0.747501671
vt 0.303663164 0.792516649
vt 0.304531008 0.744562984
vt 0.284214169 0.700567186
vt 0.260456949 0.702516437
vt 0.0840298235 0.00361595606
vt 0.108820543 0.515651941
vt 0.109148964 0.00359843229
vt 0.08376652 0.515648961
vt 0.133860931 0.51565969
vt 0.134281442 0.00354294037
vt 0.158910021 0.515672326
vt 0.158910021 0.00345240091
vt 0.0590707958 0.00359062408
vt 0.0587284714 0.515652895
vt 0.0339255929 0.00351760839
vt 0.0336823165 0.515660644
vt 0.0087248385 0.00340954517
vt 0.00867335498 0.515656829
vt 0.0812821388 0.927261055
vt 0.0968625471 0.989109576
vt 0.105704181 0.927509367
vt 0.0814992189 0.988869965
vt 0.112199262 0.989909708
vt 0.130325705 0.928244412
vt 0.127286866 0.991282403
vt 0.155368775 0.929452598
vt 0.0568308346 0.927513301
vt 0.0662154853 0.989144623
vt 0.0321449786 0.928250253
vt 0.0509467088 0.989983737
vt 0.00711949589 0.929452598
vt 0.0357775837 0.991416872
vt 0.0813624486 0.696775973
vt 0.106416464 0.696778953
vt 0.131456837 0.696786702
vt 0.156505927 0.696799338
vt 0.00626929523 0.696783841
vt 0.0312782601 0.696787655
vt 0.0563244112 0.696779907
vt 0.0817131251 0.549724698
vt 0.106744915 0.685573101
vt 0.104322918 0.549291909
vt 0.081625782 0.685590625
vt 0.131877378 0.685517609
vt 0.127465382 0.547996163
vt 0.156505927 0.68542707
vt 0.152031705 0.545359612
vt 0.0590598322 0.549112558
vt 0.0566667281 0.685565293
vt 0.0360876545 0.547567487
vt 0.0315215364 0.685492277
vt 0.0117582995 0.544769287
vt 0.00632077316 0.685384214
vt 0.101723298 0.536206067
vt 0.0818638951 0.53640312
vt 0.0620569848 0.536028326
vt 0.0422902666 0.534604609
vt 0.0232822038 0.531997263
vt 0.140700802 0.532450616
vt 0.12150342 0.534949183
vt 0.0821671784 0.522495329
vt 0.0992816016 0.522180557
vt 0.0650092661 0.522030115
vt 0.0482010655 0.520788491
vt 0.0318419375 0.518673241
vt 0.1161277 0.521075666
vt 0.132410839 0.519075632
vt 0.928931355 0.972788453
vt 0.95176363 0.984743595
vt 0.928627551 0.983356953
vt 0.962768435 0.973967075
vt 0.905373216 0.972812176
vt 0.904769778 0.984760523
vt 0.86811924 0.973942041
vt 0.879411757 0.985890746
vt 0.926564455 0.963726401
vt 0.960251093 0.957854152
vt 0.905416787 0.963373899
vt 0.873535872 0.957991123
vt 0.932621062 0.95805943
vt 0.932727039 0.918079138
vt 0.955433547 0.917612433
vt 0.92965591 0.868731022
vt 0.945743144 0.868108988
vt 0.90763545 0.868626595
vt 0.90286994 0.917923808
vt 0.891607821 0.867874265
vt 0.880131364 0.917238951
vt 0.919443011 0.818713784
vt 0.919443011 0.818713784
vt 0.899769485 0.958357334
vt 0.919443011 0.818713784
vt 0.929655671 0.868731022
vt 0.945743144 0.868108988
vt 0.955433309 0.917612433
vt 0.93272692 0.918079138
vt 0.90763545 0.868626595
vt 0.902869821 0.917923808
vt 0.891607702 0.867874265
vt 0.880131125 0.917238951
vt 0.960251093 0.957854152
vt 0.932620943 0.95805943
vt 0.899769366 0.958357334
vt 0.873535872 0.957991123
vt 0.926564336 0.963726401
vt 0.962768435 0.973967075
vt 0.928931117 0.972788453
vt 0.951763511 0.984743595
vt 0.928627551 0.983356953
vt 0.905373096 0.972812176
vt 0.904769778 0.984760523
vt 0.86811924 0.973942041
vt 0.879411638 0.985890746
vt 0.905416667 0.963373899
vt 0.903534532 0.708736002
vt 0.90278995 0.739724755
vt 0.878402591 0.723963261
vt 0.92792207 0.724450946
vt 0.945705175 0.724619687
vt 0.902362585 0.749319494
vt 0.86061734 0.723742783
vt 0.902362585 0.749319494
vt 0.903959334 0.699184597
vt 0.903959334 0.699184597
vt 0.239061505 0.792218626
vt 0.209216744 0.747363091
vt 0.239508063 0.747670531
vt 0.174486071 0.792305768
vt 0.192603499 0.878120303
vt 0.238742024 0.877501607
vt 0.23856917 0.995333076
vt 0.239954621 0.702676475
vt 0.219437271 0.70241338
vt 0.269778877 0.747501671
vt 0.303663164 0.792516649
vt 0.284776598 0.878197432
vt 0.260456949 0.702516437
vt 0.903534532 0.708736002
vt 0.90278995 0.739724755
vt 0.92792207 0.724450946
vt 0.878402591 0.723963261
vt 0.945705175 0.724619687
vt 0.902362585 0.749319494
vt 0.86061734 0.723742783
vt 0.902362585 0.749319494
vt 0.903959334 0.699184597
vt 0.903959334 0.699184597
vt 0.239061505 0.792218626
vt 0.209216744 0.747363091
vt 0.174486071 0.792305768
vt 0.239508063 0.747670531
vt 0.192603499 0.878120303
vt 0.238742024 0.877501607
vt 0.23856917 0.995333076
vt 0.239954621 0.702676475
vt 0.219437271 0.70241338
vt 0.269778877 0.747501671
vt 0.303663164 0.792516649
vt 0.284776598 0.878197432
vt 0.260456949 0.702516437
vt 0.421113253 0.694732487
vt 0.376341939 0.73621887
vt 0.387235492 0.685447037
vt 0.421280622 0.727856398
vt 0.366561085 0.661598504
vt 0.317409277 0.697031081
vt 0.334344894 0.65724808
vt 0.378360033 0.619309008
vt 0.315925986 0.74259311
vt 0.347067893 0.755922794
vt 0.342691779 0.776498854
vt 0.376341939 0.73621887
vt 0.421113253 0.694732487
vt 0.387235492 0.685447037
vt 0.421280622 0.727856398
vt 0.366561085 0.661598504
vt 0.317409277 0.697031081
vt 0.334344894 0.65724808
vt 0.378360033 0.619309008
vt 0.315925986 0.74259311
vt 0.347067893 0.755922794
vt 0.342691779 0.776498854
vt 0.387235492 0.685447037
vt 0.421113253 0.694732487
vt 0.387235492 0.685447037
vt 0.421113253 0.694732487
vt 0.366561085 0.661598504
vt 0.366561085 0.661598504
vt 0.378360033 0.619309008
vt 0.421280622 0.727856398
vt 0.376341939 0.73621887
vt 0.421280622 0.727856398
vt 0.376341939 0.73621887
vt 0.347067893 0.755922794
vt 0.347067893 0.755922794
vt 0.342691779 0.776498854
vt 0.421113253 0.694732487
vt 0.376341939 0.73621887
vt 0.421280622 0.727856398
vt 0.387235492 0.685447037
vt 0.366561085 0.661598504
vt 0.317409277 0.697031081
vt 0.334344894 0.65724808
vt 0.378360033 0.619309008
vt 0.315925986 0.74259311
vt 0.347067893 0.755922794
vt 0.342691779 0.776498854
vt 0.376341939 0.73621887
vt 0.421113253 0.694732487
vt 0.421280622 0.727856398
vt 0.387235492 0.685447037
vt 0.366561085 0.661598504
vt 0.317409277 0.697031081
vt 0.334344894 0.65724808
vt 0.378360033 0.619309008
vt 0.315925986 0.74259311
vt 0.347067893 0.755922794
vt 0.342691779 0.776498854
vt 0.387235492 0.685447037
vt 0.421113253 0.694732487
vt 0.421113253 0.694732487
vt 0.387235492 0.685447037
vt 0.366561085 0.661598504
vt 0.366561085 0.661598504
vt 0.378360033 0.619309008
vt 0.421280622 0.727856398
vt 0.376341939 0.73621887
vt 0.376341939 0.73621887
vt 0.421280622 0.727856398
vt 0.347067893 0.755922794
vt 0.347067893 0.755922794
vt 0.342691779 0.776498854
vt 0.347891331 0.972155213
vt 0.295864224 0.949879408
vt 0.295863867 0.972155094
vt 0.347891569 0.949879527
vt 0.347890973 0.9944309
vt 0.295863509 0.994430661
vt 0.295864344 0.927603722
vt 0.347891688 0.927603841
vt 0.295864463 0.905328155
vt 0.347891808 0.905328274
vt 0.295864582 0.883052468
vt 0.347892046 0.883052588
vt 0.295864701 0.860776782
vt 0.347892165 0.860776901
vt 0.215905577 0.969391882
vt 0.183139116 0.997768581
vt 0.183139116 0.959932983
vt 0.215905577 0.988309681
vt 0.15037249 0.969391882
vt 0.15037249 0.988309681
vt 0.15037249 0.988309681
vt 0.183139116 0.959932983
vt 0.15037249 0.969391882
vt 0.183139116 0.997768581
vt 0.215905577 0.969391882
vt 0.215905577 0.988309681
vt 0.347891331 0.972155213
vt 0.295864224 0.949879408
vt 0.295863867 0.972155094
vt 0.347891569 0.949879527
vt 0.347890973 0.9944309
vt 0.295863509 0.994430661
vt 0.295864344 0.927603722
vt 0.347891688 0.927603841
vt 0.295864463 0.905328155
vt 0.347891808 0.905328274
vt 0.295864582 0.883052468
vt 0.347892046 0.883052588
vt 0.295864701 0.860776782
vt 0.347892165 0.860776901
vt 0.215905577 0.969391882
vt 0.183139116 0.997768581
vt 0.183139116 0.959932983
vt 0.215905577 0.988309681
vt 0.15037249 0.969391882
vt 0.15037249 0.988309681
vt 0.15037249 0.988309681
vt 0.183139116 0.959932983
vt 0.15037249 0.969391882
vt 0.183139116 0.997768581
vt 0.215905577 0.969391882
vt 0.215905577 0.988309681
vt 0.347891331 0.972155213
vt 0.295864224 0.949879408
vt 0.295863867 0.972155094
vt 0.347891569 0.949879527
vt 0.347890973 0.9944309
vt 0.295863509 0.994430661
vt 0.295864344 0.927603722
vt 0.347891688 0.927603841
vt 0.295864463 0.905328155
vt 0.347891808 0.905328274
vt 0.295864582 0.883052468
vt 0.347892046 0.883052588
vt 0.295864701 0.860776782
vt 0.347892165 0.860776901
vt 0.215905577 0.969391882
vt 0.183139116 0.997768581
vt 0.183139116 0.959932983
vt 0.215905577 0.988309681
vt 0.15037249 0.969391882
vt 0.15037249 0.988309681
vt 0.15037249 0.988309681
vt 0.183139116 0.959932983
vt 0.15037249 0.969391882
vt 0.183139116 0.997768581
vt 0.215905577 0.969391882
vt 0.215905577 0.988309681
vn 0.331086606 0.943600357 7.95933884E-05
vn -0.357307225 0 0.933986902
vn -0.331073582 0.943604887 7.93592699E-05
vn 0.35731858 0 0.933982611
vn 0.357308805 0 -0.933986247
vn -0.357296437 0 -0.933991075
vn 0.331079811 -0.9436028 7.95856031E-05
vn -0.331066817 -0.94360733 7.93922154E-05
vn 0.35731858 0 0.933982611
vn -0.357307225 0 0.933986902
vn -0 -0.979176044 -0.203013361
vn -0 -0.979175925 -0.203013659
vn -0 -0.951335609 -0.308156818
vn -0 -0.9945544 -0.104219042
vn -0 -0.9945544 -0.104219049
vn 1.18050217E-07 0.979175329 -0.203016505
vn 1.53617734E-07 0.951335609 -0.308156818
vn 1.236385E-07 0.97917527 -0.203016907
vn -0 0.994553685 -0.10422527
vn -0 0.994553685 -0.10422527
vn 1.20477949E-07 1 0
vn -0.86597079 0.500094533 -2.61515879E-07
vn -0.86597091 0.500094473 -2.61515908E-07
vn 2.84766031E-07 1 0
vn -0.866088033 -0.49989149 -2.61551321E-07
vn -0.866088092 -0.49989149 -2.61551349E-07
vn 1.45160456E-07 -1 0
vn 4.60131218E-07 -1 0
vn 0.865970969 0.500094175 2.61515993E-07
vn 0.865970969 0.500094175 2.61515993E-07
vn 0.866088212 -0.499891251 2.61551321E-07
vn 0.866088092 -0.499891371 2.61551293E-07
vn 4.60131218E-07 -1 0
vn 1.45160456E-07 -1 0
vn -6.34967228E-06 0.999208868 0.039771162
vn -0.863247991 0.498322606 0.0804828703
vn -0.865283728 0.499701142 0.0397857726
vn -4.32256238E-05 0.996754587 0.0804991052
vn -0.863057375 -0.498654991 0.080467917
vn -0.865398765 -0.499501765 0.039786268
vn -7.61738047E-05 -0.99675566 0.0804865584
vn -1.56774768E-05 -0.999208391 0.0397831909
vn 0.865287006 0.499696642 0.0397717506
vn 0.863247991 0.498317868 0.0805118904
vn 0.86540699 -0.499489963 0.0397565477
vn 0.863070548 -0.498619497 0.0805480257
vn -1.56774768E-05 -0.999208391 0.0397831909
vn -7.61738047E-05 -0.99675566 0.0804865584
vn 2.84766031E-07 1 0
vn -0.86597079 0.500094533 -2.61515879E-07
vn -0.866088033 -0.49989149 -2.61551321E-07
vn 1.45160456E-07 -1 0
vn 1.45160456E-07 -1 0
vn 0.866088092 -0.499891371 2.61551293E-07
vn 0.865970969 0.500094175 2.61515993E-07
vn -2.85320584E-05 0.990275621 -0.139118731
vn -0.86597091 0.500094473 -2.61515908E-07
vn -0.857532442 0.495239019 -0.139198676
vn 1.20477949E-07 1 0
vn -0.866088092 -0.49989149 -2.61551349E-07
vn -0.857640266 -0.495049834 -0.139207512
vn 4.60131218E-07 -1 0
vn -9.8672881E-06 -0.990252614 -0.139283076
vn 0.857550621 0.495222956 -0.13914457
vn 0.865970969 0.500094175 2.61515993E-07
vn 0.857645988 -0.495048136 -0.139178321
vn 0.866088212 -0.499891251 2.61551321E-07
vn -9.8672881E-06 -0.990252614 -0.139283076
vn 4.60131218E-07 -1 0
vn -0.847813785 0.489401788 -0.204200178
vn -5.45180665E-05 0.978940785 -0.204144895
vn 0.847818494 0.489364684 -0.204269171
vn 0.84783262 -0.489340335 -0.204268739
vn -4.09046297E-05 -0.9788993 -0.204343379
vn -4.09046297E-05 -0.9788993 -0.204343379
vn -0.847822607 -0.489358604 -0.204266757
vn 1.38388104E-05 0.924536586 0.381093293
vn -0.773964226 0.466618657 0.428072929
vn 0.773952484 0.466636777 0.42807436
vn 0.771021903 -0.47927767 0.419306695
vn -1.47527771E-05 -0.930703223 0.365775317
vn -0.771004736 -0.479275912 0.419340193
vn -1.47527771E-05 -0.930703223 0.365775317
vn -0.798464239 0.476246119 0.368299425
vn 1.38388104E-05 0.924536586 0.381093293
vn -0.773964226 0.466618657 0.428072929
vn -1.3235659E-07 0.942102015 0.335326523
vn -0.795890152 -0.478173524 0.371361017
vn -0.771004736 -0.479275912 0.419340193
vn -0 -0.939242542 0.343254179
vn -1.47527771E-05 -0.930703223 0.365775317
vn -0.74729681 0.433106095 -0.503950953
vn -0 0.995732367 -0.092287682
vn -0.74722898 -0.433254153 -0.503924251
vn -0 -0.995738149 -0.092225939
vn -0.669235408 0.438219398 -0.600073159
vn -0.908896029 0.415730715 -0.0328007713
vn -0 0.999119461 -0.041955661
vn -0.911572695 0.397674799 -0.104355685
vn -0 0.989775658 -0.142632663
vn -0.911866546 -0.396374196 -0.106709376
vn -0.909295261 -0.414990872 -0.0310574304
vn -0 -0.988898337 -0.148593411
vn -0 -0.999283135 -0.0378592461
vn 3.01991605E-07 -3.67293578E-05 -1
vn 3.01991605E-07 -3.67293578E-05 -1
vn -0.669097245 -0.438499987 -0.600022137
vn 3.01991605E-07 -3.67293578E-05 -1
vn 0.911572695 0.397674739 -0.104355134
vn -0 0.989775658 -0.142632663
vn -0 0.999119461 -0.041955661
vn 0.908896029 0.415730715 -0.0328002274
vn 0.911866665 -0.396374166 -0.106708825
vn 0.90929538 -0.414990932 -0.0310568921
vn -0 -0.988898337 -0.148593411
vn -0 -0.999283135 -0.0378592461
vn -0 0.995732367 -0.092287682
vn 0.669235647 0.438219339 -0.600072801
vn 0.669097662 -0.438500106 -0.600021541
vn -0 -0.995738149 -0.092225939
vn 0.747297108 0.433106095 -0.503950536
vn -1.3235659E-07 0.942102015 0.335326523
vn 0.798463941 0.47624597 0.368300229
vn 1.38388104E-05 0.924536586 0.381093293
vn 0.773952484 0.466636777 0.42807436
vn 0.795889854 -0.478173405 0.371361792
vn 0.771021903 -0.47927767 0.419306695
vn -0 -0.939242542 0.343254179
vn -1.47527771E-05 -0.930703223 0.365775317
vn 0.747229338 -0.433254212 -0.503923774
vn -0.873817146 2.33129356E-07 -0.486254662
vn -0.873829782 2.58997801E-07 0.486231863
vn -0.858131945 -0.513429105 8.8304485E-05
vn -0.858139873 0.513415992 8.82297973E-05
vn -0.331073582 0.943604887 7.93592699E-05
vn -0.357307225 0 0.933986902
vn -0.331066817 -0.94360733 7.93922154E-05
vn -0.357307225 0 0.933986902
vn -0.357296437 0 -0.933991075
vn -0.357296437 0 -0.933991075
vn -0.999463499 -7.2488896E-05 0.0327511914
vn -0.958448887 -0.281487435 -0.0462664589
vn -0.997851014 -7.46745718E-05 -0.0655227154
vn -0.896436512 -0.441523194 0.0381954685
vn -0.891446412 -0.449345589 0.0584100708
vn -0.997802198 -8.87129354E-05 0.0662619919
vn -0.996162295 -1.4918138E-06 0.0875248462
vn -0.99617815 -0.000102561127 -0.0873453096
vn -0.966884971 -0.240668193 -0.0849249735
vn -0.958488524 0.281354427 -0.046253603
vn -0.896492422 0.441408187 0.038211599
vn -0.891524017 0.449191332 0.0584131815
vn -0.966938496 0.240459129 -0.0849078596
vn 0.873828173 2.42837331E-07 -0.486234814
vn 0.873840272 2.33092464E-07 0.486213058
vn 0.858150721 0.513397872 8.87952338E-05
vn 0.858142853 -0.513410985 8.87723218E-05
vn 0.331086606 0.943600357 7.95933884E-05
vn 0.35731858 0 0.933982611
vn 0.331079811 -0.9436028 7.95856031E-05
vn 0.35731858 0 0.933982611
vn 0.357308805 0 -0.933986247
vn 0.357308805 0 -0.933986247
vn 0.999463379 -7.24384445E-05 0.0327558555
vn 0.95845598 -0.281463623 -0.0462641492
vn 0.896436334 -0.441523045 0.0382001698
vn 0.997851133 -7.46740043E-05 -0.065522179
vn 0.891446412 -0.449345708 0.0584106147
vn 0.997802198 -8.87129354E-05 0.0662625954
vn 0.996162295 -1.4918138E-06 0.0875254497
vn 0.996178508 -0.000102538637 -0.087340869
vn 0.966895998 -0.240625516 -0.0849206001
vn 0.958495617 0.281330585 -0.0462512933
vn 0.896492243 0.441408068 0.0382162891
vn 0.891524017 0.449191332 0.0584137253
vn 0.966949522 0.240416512 -0.0849035084
vn 1 0 2.59674579E-07
vn 0.997654498 0.0684077293 -0.00246532098
vn 0.999703944 0.0243154839 -0.000768371217
vn 1 0 2.7531911E-07
vn 0.991655588 0.124951623 -0.0317214057
vn 0.994468927 0.104963399 0.00378578086
vn 0.988770366 0.143769816 -0.0407850519
vn 0.987939835 0.139882609 -0.0663906038
vn 0.992878139 0.118634596 0.0109034376
vn 0.986631811 0.15712063 0.043254137
vn 0.976888418 0.191475794 0.0950057358
vn -0.997654498 0.0684076846 -0.00246582064
vn -1 0 -2.94714397E-07
vn -0.999703944 0.0243153982 -0.000768927566
vn -1 0 -2.71823438E-07
vn -0.991655588 0.124951489 -0.0317219608
vn -0.994468927 0.104963265 0.00378525257
vn -0.988770366 0.143769696 -0.040785607
vn -0.987939835 0.139882475 -0.0663911551
vn -0.992878139 0.118634619 0.0109029626
vn -0.986631811 0.157120645 0.0432535708
vn -0.976888478 0.191475794 0.0950051546
vn 2.28828299E-07 -0.667042673 -0.745019495
vn 3.09926151E-07 -0.378950804 -0.925416768
vn 2.24989634E-07 -0.667042673 -0.745019495
vn 3.17113461E-07 -0.378950834 -0.925416768
vn -0 -0.975277305 -0.220984295
vn -0 -0.975277305 -0.22098428
vn -0 -0.997998416 0.0632380396
vn -2.96689024E-07 -0.449270695 0.893395662
vn -4.76757606E-07 -0.673699617 0.739005387
vn -2.69797994E-07 -0.449270785 0.893395662
vn -4.71874529E-07 -0.673699617 0.739005268
vn -1.16700306E-07 -0.954353809 0.298678428
vn -0 -0.954353809 0.298678458
vn -0 -0.999529839 0.0306611359
vn 1 0 2.57855277E-07
vn 0.997654378 -0.0684077293 -0.00246532168
vn 1 0 2.67777068E-07
vn 0.999703944 -0.0243153591 -0.000768367376
vn 0.991655588 -0.124951728 -0.0317214169
vn 0.994468808 -0.104963452 0.00378580485
vn 0.988770366 -0.14376995 -0.0407850705
vn 0.987939835 -0.139882758 -0.0663906708
vn 0.992878139 -0.118634589 0.0109034264
vn 0.986631811 -0.15712063 0.043254137
vn 0.976888418 -0.191475794 0.0950057358
vn -0.997654498 -0.0684076846 -0.00246583647
vn -1 0 -2.96533699E-07
vn -1 0 -2.7936548E-07
vn -0.999703944 -0.024315523 -0.000768929487
vn -0.991655588 -0.124951415 -0.0317219272
vn -0.994468927 -0.104963221 0.00378523651
vn -0.988770366 -0.143769577 -0.0407855548
vn -0.987939835 -0.139882356 -0.0663910806
vn -0.992878139 -0.118634596 0.0109029477
vn -0.986631811 -0.157120645 0.0432535671
vn -0.976888478 -0.191475794 0.0950051546
vn 2.24989634E-07 0.667042673 -0.745019495
vn 2.79468082E-07 0.378950804 -0.925416768
vn 2.79468082E-07 0.378950804 -0.925416768
vn 2.24989606E-07 0.667042673 -0.745019495
vn -0 0.975277305 -0.22098428
vn -0 0.975277305 -0.22098428
vn -0 0.997998416 0.0632380396
vn -2.42906907E-07 0.449270785 0.893395662
vn -0 0.673699617 0.739005268
vn -0 0.673699677 0.739005208
vn -2.69797994E-07 0.449270844 0.893395662
vn -0 0.954353809 0.298678547
vn -0 0.954353809 0.298678517
vn -0 0.999529839 0.0306611359
vn -0.686243355 0.396202862 -0.609994471
vn -1.32133437E-07 0.792405844 0.609994233
vn -0.686243773 0.396202892 0.609994113
vn 1.92893054E-07 0.792405903 -0.609994173
vn -0.686243415 -0.396202922 -0.609994411
vn -0.686243773 -0.396202981 0.609994054
vn 0.686243355 0.396202862 0.609994471
vn 0.686243773 0.396202892 -0.609994113
vn 0.686243474 -0.396202892 0.609994471
vn 0.686243773 -0.396202862 -0.609994054
vn -0 -0.792405784 0.609994352
vn 2.71012681E-07 -0.792405844 -0.609994292
vn -0.686243773 -0.396202981 0.609994054
vn -0.686243415 -0.396202922 -0.609994411
vn 0.686243773 -0.396202862 -0.609994054
vn 1.92893054E-07 0.792405903 -0.609994173
vn 2.71012681E-07 -0.792405844 -0.609994292
vn 0.686243773 0.396202892 -0.609994113
vn -0.686243415 -0.396202922 -0.609994411
vn -0.686243355 0.396202862 -0.609994471
vn -0.686243773 0.396202892 0.609994113
vn -0 -0.792405784 0.609994352
vn -0.686243773 -0.396202981 0.609994054
vn -1.32133437E-07 0.792405844 0.609994233
vn 0.686243474 -0.396202892 0.609994471
vn 0.686243355 0.396202862 0.609994471
vn -0.686243355 0.396202862 -0.609994471
vn -1.32133437E-07 0.792405844 0.609994233
vn -0.686243773 0.396202892 0.609994113
vn 1.92893054E-07 0.792405903 -0.609994173
vn -0.686243415 -0.396202922 -0.609994411
vn -0.686243773 -0.396202981 0.609994054
vn 0.686243355 0.396202862 0.609994471
vn 0.686243773 0.396202892 -0.609994113
vn 0.686243474 -0.396202892 0.609994471
vn 0.686243773 -0.396202862 -0.609994054
vn -0 -0.792405784 0.609994352
vn 2.71012681E-07 -0.792405844 -0.609994292
vn -0.686243773 -0.396202981 0.609994054
vn -0.686243415 -0.396202922 -0.609994411
vn 0.686243773 -0.396202862 -0.609994054
vn 1.92893054E-07 0.792405903 -0.609994173
vn 2.71012681E-07 -0.792405844 -0.609994292
vn 0.686243773 0.396202892 -0.609994113
vn -0.686243415 -0.396202922 -0.609994411
vn -0.686243355 0.396202862 -0.609994471
vn -0.686243773 0.396202892 0.609994113
vn -0 -0.792405784 0.609994352
vn -0.686243773 -0.396202981 0.609994054
vn -1.32133437E-07 0.792405844 0.609994233
vn 0.686243474 -0.396202892 0.609994471
vn 0.686243355 0.396202862 0.609994471
vn -0.686243355 0.396202952 -0.609994471
vn -1.49493317E-07 0.792405903 0.609994173
vn -0.686243773 0.396202952 0.609994113
vn 2.10252963E-07 0.792405903 -0.609994173
vn -0.686243415 -0.396202922 -0.609994411
vn -0.686243773 -0.396202981 0.609994113
vn 0.686243415 0.396202892 0.609994411
vn 0.686243773 0.396202952 -0.609994113
vn 0.686243355 -0.396202892 0.609994471
vn 0.686243773 -0.396202892 -0.609994054
vn -1.14773549E-07 -0.792405844 0.609994292
vn 2.36292877E-07 -0.792405844 -0.609994292
vn -0.686243773 -0.396202981 0.609994113
vn -0.686243415 -0.396202922 -0.609994411
vn 0.686243773 -0.396202892 -0.609994054
vn 2.10252963E-07 0.792405903 -0.609994173
vn 2.36292877E-07 -0.792405844 -0.609994292
vn 0.686243773 0.396202952 -0.609994113
vn -0.686243415 -0.396202922 -0.609994411
vn -0.686243355 0.396202952 -0.609994471
vn -0.686243773 0.396202952 0.609994113
vn -1.14773549E-07 -0.792405844 0.609994292
vn -0.686243773 -0.396202981 0.609994113
vn -1.49493317E-07 0.792405903 0.609994173
vn 0.686243355 -0.396202892 0.609994471
vn 0.686243415 0.396202892 0.609994411
g spear_02_0
f 3/3/3 2/2/2 1/1/1
f 4/4/4 1/1/1 2/2/2
f 1/1/1 5/5/5 3/3/3
f 6/6/6 3/3/3 5/5/5
f 5/5/5 7/7/7 6/6/6
f 8/8/8 6/6/6 7/7/7
f 7/7/7 9/9/9 8/8/8
f 10/10/10 8/8/8 9/9/9
f 13/13/13 12/12/12 11/11/11
f 12/12/12 14/14/14 11/11/11
f 15/15/15 11/11/11 14/14/14
f 18/18/18 17/17/17 16/16/16
f 18/18/18 16/16/16 19/19/19
f 20/20/20 19/19/19 16/16/16
f 23/23/23 22/22/22 21/21/21
f 24/24/24 21/21/21 22/22/22
f 22/22/22 23/23/23 25/25/25
f 26/26/26 25/25/25 23/23/23
f 25/25/25 26/26/26 27/27/27
f 28/28/28 27/27/27 26/26/26
f 21/21/21 24/24/24 29/29/29
f 30/30/30 29/29/29 24/24/24
f 29/29/29 30/30/30 31/31/31
f 32/32/32 31/31/31 30/30/30
f 31/31/31 32/32/32 33/33/33
f 34/34/34 33/33/33 32/32/32
f 37/37/37 36/36/36 35/35/35
f 38/38/38 35/35/35 36/36/36
f 36/36/36 37/37/37 39/39/39
f 40/40/40 39/39/39 37/37/37
f 39/39/39 40/40/40 41/41/41
f 42/42/42 41/41/41 40/40/40
f 35/35/35 38/38/38 43/43/43
f 44/44/44 43/43/43 38/38/38
f 43/43/43 44/44/44 45/45/45
f 46/46/46 45/45/45 44/44/44
f 45/45/45 46/46/46 47/47/47
f 48/48/48 47/47/47 46/46/46
f 35/35/35 49/49/49 37/37/37
f 50/50/50 37/37/37 49/49/49
f 37/37/37 50/50/50 40/40/40
f 51/51/51 40/40/40 50/50/50
f 40/40/40 51/51/51 42/42/42
f 52/52/52 42/42/42 51/51/51
f 47/47/47 53/53/53 45/45/45
f 54/54/54 45/45/45 53/53/53
f 45/45/45 54/54/54 43/43/43
f 55/55/55 43/43/43 54/54/54
f 49/49/49 35/35/35 55/55/55
f 43/43/43 55/55/55 35/35/35
f 58/58/58 57/57/57 56/56/56
f 59/59/59 56/56/56 57/57/57
f 57/57/57 58/58/58 60/60/60
f 61/61/61 60/60/60 58/58/58
f 60/60/60 61/61/61 62/62/62
f 63/63/63 62/62/62 61/61/61
f 56/56/56 59/59/59 64/64/64
f 65/65/65 64/64/64 59/59/59
f 64/64/64 65/65/65 66/66/66
f 67/67/67 66/66/66 65/65/65
f 66/66/66 67/67/67 68/68/68
f 69/69/69 68/68/68 67/67/67
f 58/58/58 56/56/56 70/70/70
f 71/71/71 70/70/70 56/56/56
f 56/56/56 64/64/64 71/71/71
f 72/72/72 71/71/71 64/64/64
f 64/64/64 66/66/66 72/72/72
f 73/73/73 72/72/72 66/66/66
f 66/66/66 68/68/68 73/73/73
f 74/74/74 73/73/73 68/68/68
f 63/63/63 61/61/61 75/75/75
f 76/76/76 75/75/75 61/61/61
f 61/61/61 58/58/58 76/76/76
f 70/70/70 76/76/76 58/58/58
f 71/71/71 77/77/77 70/70/70
f 78/78/78 70/70/70 77/77/77
f 70/70/70 78/78/78 76/76/76
f 72/72/72 79/79/79 71/71/71
f 77/77/77 71/71/71 79/79/79
f 73/73/73 80/80/80 72/72/72
f 79/79/79 72/72/72 80/80/80
f 74/74/74 81/81/81 73/73/73
f 80/80/80 73/73/73 81/81/81
f 76/76/76 82/82/82 75/75/75
f 82/82/82 76/76/76 78/78/78
f 83/83/83 75/75/75 82/82/82
f 86/86/86 85/85/85 84/84/84
f 87/87/87 84/84/84 85/85/85
f 84/84/84 88/88/88 86/86/86
f 89/89/89 86/86/86 88/88/88
f 88/88/88 90/90/90 89/89/89
f 91/91/91 89/89/89 90/90/90
f 84/84/84 87/87/87 92/92/92
f 93/93/93 92/92/92 87/87/87
f 88/88/88 84/84/84 94/94/94
f 92/92/92 94/94/94 84/84/84
f 90/90/90 88/88/88 95/95/95
f 94/94/94 95/95/95 88/88/88
f 96/96/96 92/92/92 93/93/93
f 96/96/96 93/93/93 97/97/97
f 98/98/98 97/97/97 93/93/93
f 97/97/97 98/98/98 99/99/99
f 100/100/100 99/99/99 98/98/98
f 99/99/99 101/101/101 97/97/97
f 102/102/102 97/97/97 101/101/101
f 97/97/97 102/102/102 96/96/96
f 101/101/101 103/103/103 102/102/102
f 104/104/104 102/102/102 103/103/103
f 100/100/100 105/105/105 99/99/99
f 99/99/99 106/106/106 101/101/101
f 107/107/107 96/96/96 102/102/102
f 95/95/95 107/107/107 104/104/104
f 102/102/102 104/104/104 107/107/107
f 94/94/94 92/92/92 107/107/107
f 96/96/96 107/107/107 92/92/92
f 95/95/95 94/94/94 107/107/107
f 101/101/101 108/108/108 103/103/103
f 108/108/108 110/110/110 109/109/109
f 110/110/110 111/111/111 109/109/109
f 112/112/112 109/109/109 111/111/111
f 109/109/109 112/112/112 113/113/113
f 106/106/106 109/109/109 113/113/113
f 114/114/114 113/113/113 112/112/112
f 113/113/113 114/114/114 115/115/115
f 105/105/105 113/113/113 115/115/115
f 116/116/116 115/115/115 114/114/114
f 111/111/111 117/117/117 112/112/112
f 118/118/118 112/112/112 117/117/117
f 112/112/112 118/118/118 114/114/114
f 119/119/119 114/114/114 118/118/118
f 114/114/114 119/119/119 116/116/116
f 120/120/120 116/116/116 119/119/119
f 121/121/121 118/118/118 117/117/117
f 118/118/118 121/121/121 119/119/119
f 117/117/117 122/122/122 121/121/121
f 123/123/123 121/121/121 122/122/122
f 122/122/122 124/124/124 123/123/123
f 125/125/125 123/123/123 124/124/124
f 123/123/123 125/125/125 126/126/126
f 127/127/127 126/126/126 125/125/125
f 126/126/126 127/127/127 128/128/128
f 128/128/128 120/120/120 126/126/126
f 129/129/129 128/128/128 127/127/127
f 121/121/121 123/123/123 130/130/130
f 126/126/126 130/130/130 123/123/123
f 130/130/130 126/126/126 120/120/120
f 130/130/130 119/119/119 121/121/121
f 130/130/130 120/120/120 119/119/119
f 133/133/133 132/132/132 131/131/131
f 134/134/134 131/131/131 132/132/132
f 134/134/134 132/132/132 135/135/135
f 134/134/134 135/135/135 131/131/131
f 136/136/136 135/135/135 132/132/132
f 133/133/133 137/137/137 132/132/132
f 133/133/133 131/131/131 137/137/137
f 138/138/138 132/132/132 137/137/137
f 139/139/139 137/137/137 131/131/131
f 140/140/140 131/131/131 135/135/135
f 143/143/143 142/142/142 141/141/141
f 144/144/144 141/141/141 142/142/142
f 144/144/144 145/145/145 141/141/141
f 146/146/146 141/141/141 145/145/145
f 146/146/146 145/145/145 147/147/147
f 143/143/143 148/148/148 142/142/142
f 149/149/149 142/142/142 148/148/148
f 143/143/143 141/141/141 150/150/150
f 143/143/143 150/150/150 148/148/148
f 151/151/151 150/150/150 141/141/141
f 152/152/152 146/146/146 147/147/147
f 146/146/146 152/152/152 141/141/141
f 151/151/151 141/141/141 152/152/152
f 153/153/153 148/148/148 150/150/150
f 156/156/156 155/155/155 154/154/154
f 157/157/157 154/154/154 155/155/155
f 156/156/156 158/158/158 155/155/155
f 156/156/156 154/154/154 158/158/158
f 159/159/159 155/155/155 158/158/158
f 157/157/157 155/155/155 160/160/160
f 157/157/157 160/160/160 154/154/154
f 161/161/161 160/160/160 155/155/155
f 162/162/162 154/154/154 160/160/160
f 163/163/163 158/158/158 154/154/154
f 166/166/166 165/165/165 164/164/164
f 167/167/167 164/164/164 165/165/165
f 166/166/166 164/164/164 168/168/168
f 169/169/169 168/168/168 164/164/164
f 168/168/168 169/169/169 170/170/170
f 167/167/167 165/165/165 171/171/171
f 172/172/172 171/171/171 165/165/165
f 167/167/167 173/173/173 164/164/164
f 167/167/167 171/171/171 173/173/173
f 174/174/174 164/164/164 173/173/173
f 169/169/169 175/175/175 170/170/170
f 174/174/174 175/175/175 164/164/164
f 169/169/169 164/164/164 175/175/175
f 176/176/176 173/173/173 171/171/171
f 179/179/179 178/178/178 177/177/177
f 180/180/180 177/177/177 178/178/178
f 178/178/178 179/179/179 181/181/181
f 178/178/178 181/181/181 182/182/182
f 183/183/183 182/182/182 181/181/181
f 181/181/181 184/184/184 183/183/183
f 182/182/182 185/185/185 178/178/178
f 186/186/186 178/178/178 185/185/185
f 187/187/187 186/186/186 185/185/185
f 190/190/190 189/189/189 188/188/188
f 191/191/191 188/188/188 189/189/189
f 192/192/192 190/190/190 188/188/188
f 188/188/188 193/193/193 192/192/192
f 194/194/194 192/192/192 193/193/193
f 194/194/194 195/195/195 192/192/192
f 193/193/193 188/188/188 196/196/196
f 197/197/197 196/196/196 188/188/188
f 196/196/196 197/197/197 198/198/198
f 201/201/201 200/200/200 199/199/199
f 202/202/202 199/199/199 200/200/200
f 199/199/199 203/203/203 201/201/201
f 204/204/204 201/201/201 203/203/203
f 203/203/203 205/205/205 204/204/204
f 208/208/208 207/207/207 206/206/206
f 209/209/209 206/206/206 207/207/207
f 207/207/207 210/210/210 209/209/209
f 211/211/211 209/209/209 210/210/210
f 212/212/212 211/211/211 210/210/210
f 215/215/215 214/214/214 213/213/213
f 216/216/216 213/213/213 214/214/214
f 216/216/216 214/214/214 217/217/217
f 214/214/214 218/218/218 217/217/217
f 219/219/219 217/217/217 218/218/218
f 220/220/220 217/217/217 219/219/219
f 218/218/218 214/214/214 221/221/221
f 222/222/222 221/221/221 214/214/214
f 222/222/222 223/223/223 221/221/221
f 226/226/226 225/225/225 224/224/224
f 227/227/227 224/224/224 225/225/225
f 227/227/227 228/228/228 224/224/224
f 224/224/224 228/228/228 229/229/229
f 230/230/230 229/229/229 228/228/228
f 231/231/231 230/230/230 228/228/228
f 229/229/229 232/232/232 224/224/224
f 233/233/233 224/224/224 232/232/232
f 233/233/233 232/232/232 234/234/234
f 237/237/237 236/236/236 235/235/235
f 238/238/238 235/235/235 236/236/236
f 235/235/235 238/238/238 239/239/239
f 240/240/240 239/239/239 238/238/238
f 241/241/241 239/239/239 240/240/240
f 244/244/244 243/243/243 242/242/242
f 245/245/245 242/242/242 243/243/243
f 243/243/243 244/244/244 246/246/246
f 247/247/247 246/246/246 244/244/244
f 247/247/247 248/248/248 246/246/246
f 251/251/251 250/250/250 249/249/249
f 252/252/252 249/249/249 250/250/250
f 249/249/249 253/253/253 251/251/251
f 254/254/254 251/251/251 253/253/253
f 250/250/250 255/255/255 252/252/252
f 256/256/256 252/252/252 255/255/255
f 255/255/255 257/257/257 256/256/256
f 258/258/258 256/256/256 257/257/257
f 257/257/257 259/259/259 258/258/258
f 260/260/260 258/258/258 259/259/259
f 259/259/259 261/261/261 260/260/260
f 262/262/262 260/260/260 261/261/261
f 265/265/265 264/264/264 263/263/263
f 266/266/266 263/263/263 264/264/264
f 265/265/265 267/267/267 264/264/264
f 268/268/268 264/264/264 267/267/267
f 271/271/271 270/270/270 269/269/269
f 272/272/272 269/269/269 270/270/270
f 270/270/270 273/273/273 272/272/272
f 274/274/274 272/272/272 273/273/273
f 277/277/277 276/276/276 275/275/275
f 278/278/278 275/275/275 276/276/276
f 275/275/275 279/279/279 277/277/277
f 280/280/280 277/277/277 279/279/279
f 276/276/276 281/281/281 278/278/278
f 282/282/282 278/278/278 281/281/281
f 281/281/281 283/283/283 282/282/282
f 284/284/284 282/282/282 283/283/283
f 283/283/283 285/285/285 284/284/284
f 286/286/286 284/284/284 285/285/285
f 285/285/285 287/287/287 286/286/286
f 288/288/288 286/286/286 287/287/287
f 291/291/291 290/290/290 289/289/289
f 292/292/292 289/289/289 290/290/290
f 291/291/291 293/293/293 290/290/290
f 294/294/294 290/290/290 293/293/293
f 297/297/297 296/296/296 295/295/295
f 298/298/298 295/295/295 296/296/296
f 296/296/296 299/299/299 298/298/298
f 300/300/300 298/298/298 299/299/299
f 303/303/303 302/302/302 301/301/301
f 304/304/304 301/301/301 302/302/302
f 301/301/301 305/305/305 303/303/303
f 306/306/306 303/303/303 305/305/305
f 302/302/302 307/307/307 304/304/304
f 308/308/308 304/304/304 307/307/307
f 307/307/307 309/309/309 308/308/308
f 310/310/310 308/308/308 309/309/309
f 309/309/309 311/311/311 310/310/310
f 312/312/312 310/310/310 311/311/311
f 311/311/311 313/313/313 312/312/312
f 314/314/314 312/312/312 313/313/313
f 317/317/317 316/316/316 315/315/315
f 318/318/318 315/315/315 316/316/316
f 317/317/317 319/319/319 316/316/316
f 320/320/320 316/316/316 319/319/319
f 323/323/323 322/322/322 321/321/321
f 324/324/324 321/321/321 322/322/322
f 322/322/322 325/325/325 324/324/324
f 326/326/326 324/324/324 325/325/325
