g spear_01
v 0.00928581599 0.0243801977 0.938445091
v -0.0092856735 9.53674295E-09 0.968035102
v -0.00928567443 0.0243801903 0.938445091
v 0.00928581972 1.2516975E-08 0.968035102
v 0.00928582437 1.66893006E-08 0.908845067
v -0.00928566884 1.31130218E-08 0.908845067
v 0.00928582624 -0.0243801661 0.938445091
v -0.00928566605 -0.0243801735 0.938445091
v 0.00928581972 1.2516975E-08 0.968035102
v -0.0092856735 9.53674295E-09 0.968035102
v 0.00936382823 -0.0155898901 1.000525
v -0.00936366618 -0.0155898929 1.000525
v -1.67524561E-07 -0.0311898608 1.04868495
v -0.00639966037 -0.0105599854 0.952524841
v 0.0063998322 -0.0105599798 0.952524841
v 0.00936382543 0.0155999837 1.000525
v -1.79445479E-07 0.0311999489 1.04868495
v -0.0093636699 0.015599981 1.000525
v -0.00639966549 0.0105697718 0.952524841
v 0.00639982708 0.0105697745 0.952524841
v -5.66599176E-08 0.0191700123 -0.32207188
v -0.0166011397 0.00959018525 0.468255073
v -0.0166010689 0.0095902374 -0.32207188
v -1.25801307E-07 0.0191699602 0.468255073
v -0.0166011341 -0.00958003756 0.468255073
v -0.0166010652 -0.00957998447 -0.32207188
v -1.18648749E-07 -0.0191701762 0.468255073
v -4.950736E-08 -0.0191701259 -0.32207188
v 0.0166009348 0.00959024206 -0.32207188
v 0.0166008659 0.00959019177 0.468255073
v 0.0166009404 -0.00957997888 -0.32207188
v 0.0166008696 -0.00958002824 0.468255073
v -4.950736E-08 -0.0191701259 -0.32207188
v -1.18648749E-07 -0.0191701762 0.468255073
v -1.56795721E-07 0.0191699378 0.828075111
v -0.00993817579 0.00574006187 0.923334956
v -0.0166011695 0.00959016383 0.828075111
v -1.63948272E-07 0.011479808 0.923334956
v -0.00993817206 -0.00574003626 0.923334956
v -0.0166011658 -0.00958005898 0.828075111
v -1.60371997E-07 -0.0114700152 0.923334956
v -1.50835248E-07 -0.0191701949 0.828075111
v 0.0166008342 0.00959016755 0.828075111
v 0.0099388212 0.00574006559 0.923334956
v 0.0166008379 -0.00958005153 0.828075111
v 0.00993882492 -0.00574003393 0.923334956
v -1.50835248E-07 -0.0191701949 0.828075111
v -1.60371997E-07 -0.0114700152 0.923334956
v -1.25801307E-07 0.0191699602 0.468255073
v -0.0166011397 0.00959018525 0.468255073
v -0.0166011341 -0.00958003756 0.468255073
v -1.18648749E-07 -0.0191701762 0.468255073
v -1.18648749E-07 -0.0191701762 0.468255073
v 0.0166008696 -0.00958002824 0.468255073
v 0.0166008659 0.00959019177 0.468255073
v -3.75864317E-08 0.0191700254 -0.5452196
v -0.0166010689 0.0095902374 -0.32207188
v -0.0166010484 0.00959024858 -0.5452196
v -5.66599176E-08 0.0191700123 -0.32207188
v -0.0166010652 -0.00957998447 -0.32207188
v -0.0166010447 -0.0095799733 -0.5452196
v -4.950736E-08 -0.0191701259 -0.32207188
v -3.04338741E-08 -0.0191701092 -0.5452196
v 0.0166009553 0.00959025603 -0.5452196
v 0.0166009348 0.00959024206 -0.32207188
v 0.0166009609 -0.00957996398 -0.5452196
v 0.0166009404 -0.00957997888 -0.32207188
v -3.04338741E-08 -0.0191701092 -0.5452196
v -4.950736E-08 -0.0191701259 -0.32207188
v -0.0116700511 0.00673991255 -0.564171791
v -3.40101529E-08 0.0134800263 -0.564171791
v 0.0116709564 0.00673991442 -0.564171791
v 0.0116709564 -0.00672993064 -0.564171791
v -2.92417823E-08 -0.0134700406 -0.564171791
v -2.92417823E-08 -0.0134700406 -0.564171791
v -0.0116700511 -0.0067299339 -0.564171791
v -3.28180612E-08 0.0114402324 -0.583123744
v -0.0099010421 0.00572001701 -0.583123744
v 0.00990095921 0.00572002167 -0.583123744
v 0.00990096107 -0.00571003044 -0.583123744
v -2.80496888E-08 -0.0114299413 -0.583123744
v -0.00990103837 -0.00571003463 -0.583123744
v -2.80496888E-08 -0.0114299413 -0.583123744
v -0.0192010272 0.00980021432 -0.591841698
v -3.28180612E-08 0.0114402324 -0.583123744
v -0.0099010421 0.00572001701 -0.583123744
v -3.28180612E-08 0.0196000207 -0.591841698
v -0.0192010235 -0.00980000012 -0.591841698
v -0.00990103837 -0.00571003463 -0.583123744
v -2.6857597E-08 -0.0195900332 -0.591841698
v -2.80496888E-08 -0.0114299413 -0.583123744
v -0.0192010272 0.00980021618 -0.607593715
v -3.16259694E-08 0.0196000244 -0.607593715
v -0.0192010235 -0.00980000012 -0.607593715
v -2.447341E-08 -0.0195900314 -0.607593715
v -0.0112660164 0.00980021711 -0.610087812
v -0.0112660127 0.00980021991 -0.657474816
v -2.6857597E-08 0.0196000244 -0.657474816
v -0.00764101138 0.00727001298 -0.723108828
v -2.08971311E-08 0.0145402132 -0.723108828
v -0.00764100812 -0.0072700833 -0.723108828
v -0.011266008 -0.00979999546 -0.657474816
v -1.61287605E-08 -0.014529909 -0.723108828
v -2.08971311E-08 -0.0195900314 -0.657474816
v -1.24989308E-08 1.22872876E-07 -0.788741887
v -1.24989308E-08 1.22872876E-07 -0.788741887
v -0.0112660127 -0.00979999732 -0.610087812
v -1.24989308E-08 1.22872876E-07 -0.788741887
v 0.0076409732 0.00727001531 -0.723108828
v -2.08971311E-08 0.0145402132 -0.723108828
v -2.6857597E-08 0.0196000244 -0.657474816
v 0.0112659549 0.00980022363 -0.657474816
v 0.00764097599 -0.00727008097 -0.723108828
v 0.0112659587 -0.0097999908 -0.657474816
v -1.61287605E-08 -0.014529909 -0.723108828
v -2.08971311E-08 -0.0195900314 -0.657474816
v -3.16259694E-08 0.0196000244 -0.607593715
v 0.0112659503 0.00980021898 -0.610087812
v 0.0112659549 -0.00979999546 -0.610087812
v -2.447341E-08 -0.0195900314 -0.607593715
v 0.0192009602 0.00980022363 -0.607593715
v -3.28180612E-08 0.0196000207 -0.591841698
v 0.0192009583 0.00980022177 -0.591841698
v -3.28180612E-08 0.0114402324 -0.583123744
v 0.00990095921 0.00572002167 -0.583123744
v 0.0192009639 -0.00979999453 -0.591841698
v 0.00990096107 -0.00571003044 -0.583123744
v -2.6857597E-08 -0.0195900332 -0.591841698
v -2.80496888E-08 -0.0114299413 -0.583123744
v 0.0192009639 -0.00979999267 -0.607593715
v -0.016015159 1.19209282E-08 0.916794896
v -0.0160151627 8.3446503E-09 0.960084975
v -0.016015159 -0.0178600922 0.938445091
v -0.0160151646 0.0178598091 0.938445091
v -0.00928567443 0.0243801903 0.938445091
v -0.0092856735 9.53674295E-09 0.968035102
v -0.00928566605 -0.0243801735 0.938445091
v -0.0092856735 9.53674295E-09 0.968035102
v -0.00928566884 1.31130218E-08 0.908845067
v -0.00928566884 1.31130218E-08 0.908845067
v -0.0153621715 3.57627861E-09 1.04868495
v -0.00936366618 -0.0155898929 1.000525
v -0.0132101625 7.15255721E-09 1.000525
v -1.67524561E-07 -0.0311898608 1.04868495
v -1.77061295E-07 -0.0219900459 1.14130485
v -0.0111191673 -1.19209287E-09 1.14130485
v -1.92291907E-07 -7.87083998E-09 1.26785493
v -0.00902816094 1.07288356E-08 0.952524841
v -0.00639966037 -0.0105599854 0.952524841
v -0.0093636699 0.015599981 1.000525
v -1.79445479E-07 0.0311999489 1.04868495
v -1.8421386E-07 0.0219998099 1.14130485
v -0.00639966549 0.0105697718 0.952524841
v -1.65688689E-07 1.14750582E-08 0.963544905
v 0.004392826 -0.0225802436 0.953424811
v -1.60371997E-07 -0.0242098775 0.955514967
v 0.00330483122 1.22189521E-08 0.961505115
v -0.00330518093 1.10268594E-08 0.961505115
v 0.00532783195 -0.0387399122 0.931245089
v -1.57987813E-07 -0.0416299254 0.932464898
v 0.00532783195 -0.0329400338 0.928805053
v 0.00439282693 -0.0193002131 0.949255049
v 0.00330483122 1.22189521E-08 0.961505115
v 0.00330483168 1.2516975E-08 0.95740509
v -1.61564088E-07 -0.0176699664 0.947164893
v -1.64972732E-07 1.19954349E-08 0.955364943
v -1.57987813E-07 -0.0300399493 0.927584946
v -0.004392175 -0.0225802418 0.953424811
v -0.00330518093 1.10268594E-08 0.961505115
v -0.00532717025 -0.0387399122 0.931245089
v -0.004392175 -0.0193002131 0.949255049
v -0.0033051807 1.13248824E-08 0.95740509
v -0.00532717258 -0.0329400301 0.928805053
v -1.61564088E-07 -0.0176699664 0.947164893
v -1.64972732E-07 1.19954349E-08 0.955364943
v -0.0033051807 1.13248824E-08 0.95740509
v -0.00330518093 1.10268594E-08 0.961505115
v -1.57987813E-07 -0.0300399493 0.927584946
v -0.00625415845 -0.0378298685 0.900055051
v -1.53219446E-07 -0.0341598243 0.900055051
v -0.00625415845 -0.0451800339 0.900055051
v -1.53219446E-07 -0.0488601476 0.900055051
v 0.00625484856 -0.0451800339 0.900055051
v 0.00625484623 -0.0378298685 0.900055051
v -1.53219446E-07 -0.0341598243 0.900055051
v 0.00625484623 -0.0392400846 0.86866498
v -1.48451065E-07 -0.0426400565 0.867224991
v 0.00625484623 -0.0324300826 0.871525109
v -1.53219446E-07 -0.0290298164 0.872965097
v -0.00625415612 -0.0324300788 0.871525109
v -1.53219446E-07 -0.0290298164 0.872965097
v -0.00625415612 -0.0392400883 0.86866498
v 0.00625484623 -0.0232699309 0.845815122
v -1.50835248E-07 -0.0255999491 0.842835069
v 0.00625484623 -0.0186098982 0.851755023
v -1.53219446E-07 -0.0162801892 0.854725003
v -0.00625415845 -0.0186099038 0.851755023
v -1.53219446E-07 -0.0162801892 0.854725003
v -0.00625415705 -0.023269929 0.845815122
v 0.00625484344 2.08616253E-08 0.836795032
v -1.54268349E-07 1.97789625E-08 0.832915008
v 0.0062548425 2.02655794E-08 0.844534874
v 0.0062548425 2.02655794E-08 0.844534874
v -1.55623411E-07 1.87940898E-08 0.848415077
v 0.0062548425 2.02655794E-08 0.844534874
v -0.00625416078 1.78813924E-08 0.844534874
v -0.00625416031 1.847744E-08 0.836795032
v -0.00625416078 1.78813924E-08 0.844534874
v -0.00625416078 1.78813924E-08 0.844534874
v -1.55623411E-07 1.87940898E-08 0.848415077
v -1.65688689E-07 1.14750582E-08 0.963544905
v 0.00439281855 0.0225802679 0.953424811
v 0.00330483122 1.22189521E-08 0.961505115
v -1.69908745E-07 0.0242099091 0.955514967
v -0.00330518093 1.10268594E-08 0.961505115
v 0.00532781985 0.0387399234 0.931245089
v -1.72292928E-07 0.0416299328 0.932464898
v 0.00532781985 0.0329400636 0.928805053
v 0.00439281855 0.0193002392 0.949255049
v 0.00330483168 1.2516975E-08 0.95740509
v 0.00330483122 1.22189521E-08 0.961505115
v -1.67524561E-07 0.0176699925 0.947164893
v -1.64972732E-07 1.19954349E-08 0.955364943
v -1.67524561E-07 0.0300399847 0.927584946
v -0.00439218339 0.0225802697 0.953424811
v -0.00330518093 1.10268594E-08 0.961505115
v -0.00532718468 0.0387399271 0.931245089
v -0.00439218106 0.0193002392 0.949255049
v -0.0033051807 1.13248824E-08 0.95740509
v -0.00532718468 0.0329400674 0.928805053
v -1.67524561E-07 0.0176699925 0.947164893
v -1.64972732E-07 1.19954349E-08 0.955364943
v -0.0033051807 1.13248824E-08 0.95740509
v -0.00330518093 1.10268594E-08 0.961505115
v -1.67524561E-07 0.0300399847 0.927584946
v -0.00625417056 0.037829902 0.900055051
v -1.65140364E-07 0.0341598615 0.900055051
v -0.00625417288 0.0451800525 0.900055051
v -1.67524561E-07 0.0488601737 0.900055051
v 0.00625482947 0.0451800525 0.900055051
v 0.00625482947 0.037829902 0.900055051
v -1.65140364E-07 0.0341598615 0.900055051
v 0.00625483459 0.0392401144 0.86866498
v -1.6275618E-07 0.0426400714 0.867224991
v 0.00625483459 0.0324301273 0.871525109
v -1.6275618E-07 0.0290298555 0.872965097
v -0.00625416823 0.0324301273 0.871525109
v -1.6275618E-07 0.0290298555 0.872965097
v -0.00625417056 0.0392401107 0.86866498
v 0.00625483925 0.0232699718 0.845815122
v -1.60371997E-07 0.0255999863 0.842835069
v 0.00625483925 0.0186099354 0.851755023
v -1.59179905E-07 0.0162802264 0.854725003
v -0.00625416217 0.0186099373 0.851755023
v -1.59179905E-07 0.0162802264 0.854725003
v -0.00625416311 0.0232699756 0.845815122
v 0.00625484344 2.08616253E-08 0.836795032
v -1.54268349E-07 1.97789625E-08 0.832915008
v 0.0062548425 2.02655794E-08 0.844534874
v 0.0062548425 2.02655794E-08 0.844534874
v -1.55623411E-07 1.87940898E-08 0.848415077
v 0.0062548425 2.02655794E-08 0.844534874
v -0.00625416078 1.78813924E-08 0.844534874
v -0.00625416031 1.847744E-08 0.836795032
v -0.00625416031 1.847744E-08 0.836795032
v -0.00625416078 1.78813924E-08 0.844534874
v -0.00625416078 1.78813924E-08 0.844534874
v -1.55623411E-07 1.87940898E-08 0.848415077
v 0.00304982229 -0.0119302198 0.935894907
v 0.00304982369 -0.0250100512 0.96413511
v 0.00304982113 -0.0108599719 0.961594999
v 0.00304982602 -0.0311199706 0.944945037
v 0.00304982602 -0.0402700715 0.972374856
v 0.00304982602 -0.0496401824 0.960494995
v 0.00304982602 -0.0532000512 0.985324979
v 0.00304982602 -0.0610598437 0.981504977
v 0.00304982602 -0.0630700514 1.00423491
v -0.00304917502 -0.0108599728 0.961594999
v -0.00304917386 -0.0250100531 0.96413511
v -0.0030491692 -0.0630700514 1.00423491
v -0.0030491692 -0.0610598512 0.981504977
v 0.00304982602 -0.0496401824 0.960494995
v -0.0030491692 -0.0496401936 0.960494995
v 0.00304982602 -0.0311199706 0.944945037
v -0.00304917153 -0.0311199762 0.944945037
v 0.00304982229 -0.0119302198 0.935894907
v -0.00304917269 -0.0119302198 0.935894907
v 0.00304982602 -0.0402700715 0.972374856
v 0.00304982369 -0.0250100512 0.96413511
v -0.00304917153 -0.0402700715 0.972374856
v 0.00304982602 -0.0532000512 0.985324979
v 0.00304982602 -0.0402700715 0.972374856
v -0.0030491692 -0.0532000512 0.985324979
v 0.00304982602 -0.0630700514 1.00423491
v -0.0030491692 -0.0532000512 0.985324979
v -0.0030491692 -0.0630700514 1.00423491
v -0.00304917386 -0.0250100531 0.96413511
v -0.00304917269 -0.0119302198 0.935894907
v -0.00304917502 -0.0108599728 0.961594999
v -0.00304917153 -0.0311199762 0.944945037
v -0.00304917153 -0.0402700715 0.972374856
v -0.0030491692 -0.0496401936 0.960494995
v -0.0030491692 -0.0532000512 0.985324979
v -0.0030491692 -0.0610598512 0.981504977
v -0.0030491692 -0.0630700514 1.00423491
v 0.0030498195 0.0119302468 0.935894907
v 0.00304981414 0.0250100773 0.96413511
v 0.00304981414 0.0311199967 0.944945037
v 0.00304981694 0.0108599942 0.961594999
v 0.00304981158 0.0402700715 0.972374856
v 0.00304981158 0.0496401861 0.960494995
v 0.00304980692 0.0532000586 0.98532486
v 0.00304980692 0.0610598586 0.981504977
v 0.00304980204 0.0630700514 1.00423491
v -0.00304917875 0.0108599942 0.961594999
v -0.00304918108 0.0250100754 0.96413511
v -0.00304919295 0.0630700514 1.00423491
v -0.00304918829 0.0610598549 0.981504977
v 0.00304981158 0.0496401861 0.960494995
v -0.0030491834 0.0496401787 0.960494995
v 0.00304981414 0.0311199967 0.944945037
v -0.00304918108 0.0311199967 0.944945037
v 0.0030498195 0.0119302468 0.935894907
v -0.00304917619 0.0119302487 0.935894907
v 0.00304981158 0.0402700715 0.972374856
v -0.0030491834 0.0402700715 0.972374856
v 0.00304981414 0.0250100773 0.96413511
v 0.00304980692 0.0532000586 0.98532486
v -0.00304918829 0.0532000586 0.98532486
v 0.00304981158 0.0402700715 0.972374856
v 0.00304980204 0.0630700514 1.00423491
v -0.00304919295 0.0630700514 1.00423491
v -0.00304918829 0.0532000586 0.98532486
v -0.00304918108 0.0250100754 0.96413511
v -0.00304917619 0.0119302487 0.935894907
v -0.00304918108 0.0311199967 0.944945037
v -0.00304917875 0.0108599942 0.961594999
v -0.0030491834 0.0402700715 0.972374856
v -0.0030491834 0.0496401787 0.960494995
v -0.00304918829 0.0532000586 0.98532486
v -0.00304918829 0.0610598549 0.981504977
v -0.00304919295 0.0630700514 1.00423491
v 0.016014833 1.66893006E-08 0.916794896
v 0.0160148293 1.43051144E-08 0.960084975
v 0.0160148274 0.0178598147 0.938445091
v 0.0160148311 -0.0178600848 0.938445091
v 0.00928581599 0.0243801977 0.938445091
v 0.00928581972 1.2516975E-08 0.968035102
v 0.00928582624 -0.0243801661 0.938445091
v 0.00928581972 1.2516975E-08 0.968035102
v 0.00928582437 1.66893006E-08 0.908845067
v 0.00928582437 1.66893006E-08 0.908845067
v 0.0153618203 8.3446503E-09 1.04868495
v 0.00936382823 -0.0155898901 1.000525
v -1.67524561E-07 -0.0311898608 1.04868495
v 0.0132098207 1.19209282E-08 1.000525
v -1.77061295E-07 -0.0219900459 1.14130485
v 0.0111187994 2.38418574E-09 1.14130485
v -1.92291907E-07 -7.87083998E-09 1.26785493
v 0.00902783219 1.37090677E-08 0.952524841
v 0.0063998322 -0.0105599798 0.952524841
v 0.00936382543 0.0155999837 1.000525
v -1.79445479E-07 0.0311999489 1.04868495
v -1.8421386E-07 0.0219998099 1.14130485
v 0.00639982708 0.0105697745 0.952524841
vt 0.994228065 0.671867609
vt 0.96621573 0.643171906
vt 0.96621573 0.671867609
vt 0.994228065 0.643171906
vt 0.994228065 0.700562239
vt 0.966215611 0.700562239
vt 0.994228065 0.729257941
vt 0.966215611 0.729257941
vt 0.994228065 0.757953703
vt 0.966215611 0.757953703
vt 0.0537465215 0.0744037703
vt 0.0188266467 0.0712336972
vt 0.0190160051 0.119346432
vt 0.0400483496 0.0273165852
vt 0.0639671534 0.0294540673
vt 0.11430867 0.0745423809
vt 0.148193121 0.119557358
vt 0.149060994 0.0716036633
vt 0.128744021 0.0276078805
vt 0.104986727 0.0295571163
vt 0.245936289 0.482041717
vt 0.270727009 0.994077682
vt 0.27105543 0.482024193
vt 0.245672986 0.994074702
vt 0.295767397 0.994085431
vt 0.296187907 0.481968701
vt 0.320816487 0.994098067
vt 0.320816487 0.481878161
vt 0.220977262 0.482016385
vt 0.220634937 0.994078636
vt 0.195832059 0.481943369
vt 0.195588782 0.994086385
vt 0.170631304 0.481835306
vt 0.170579821 0.99408257
vt 0.0812821388 0.927261055
vt 0.0968625471 0.989109576
vt 0.105704181 0.927509367
vt 0.0814992189 0.988869965
vt 0.112199262 0.989909708
vt 0.130325705 0.928244412
vt 0.127286866 0.991282403
vt 0.155368775 0.929452598
vt 0.0568308346 0.927513301
vt 0.0662154853 0.989144623
vt 0.0321449786 0.928250253
vt 0.0509467088 0.989983737
vt 0.00711949589 0.929452598
vt 0.0357775837 0.991416872
vt 0.0813624486 0.696775973
vt 0.106416464 0.696778953
vt 0.131456837 0.696786702
vt 0.156505927 0.696799338
vt 0.00626929523 0.696783841
vt 0.0312782601 0.696787655
vt 0.0563244112 0.696779907
vt 0.0817131251 0.549724698
vt 0.106744915 0.685573101
vt 0.104322918 0.549291909
vt 0.081625782 0.685590625
vt 0.131877378 0.685517609
vt 0.127465382 0.547996163
vt 0.156505927 0.68542707
vt 0.152031705 0.545359612
vt 0.0590598322 0.549112558
vt 0.0566667281 0.685565293
vt 0.0360876545 0.547567487
vt 0.0315215364 0.685492277
vt 0.0117582995 0.544769287
vt 0.00632077316 0.685384214
vt 0.101723298 0.536206067
vt 0.0818638951 0.53640312
vt 0.0620569848 0.536028326
vt 0.0422902666 0.534604609
vt 0.0232822038 0.531997263
vt 0.140700802 0.532450616
vt 0.12150342 0.534949183
vt 0.0821671784 0.522495329
vt 0.0992816016 0.522180557
vt 0.0650092661 0.522030115
vt 0.0482010655 0.520788491
vt 0.0318419375 0.518673241
vt 0.1161277 0.521075666
vt 0.132410839 0.519075632
vt 0.928931355 0.972788453
vt 0.95176363 0.984743595
vt 0.928627551 0.983356953
vt 0.962768435 0.973967075
vt 0.905373216 0.972812176
vt 0.904769778 0.984760523
vt 0.86811924 0.973942041
vt 0.879411757 0.985890746
vt 0.926564455 0.963726401
vt 0.960251093 0.957854152
vt 0.905416787 0.963373899
vt 0.873535872 0.957991123
vt 0.932621062 0.95805943
vt 0.932727039 0.918079138
vt 0.955433547 0.917612433
vt 0.92965591 0.868731022
vt 0.945743144 0.868108988
vt 0.90763545 0.868626595
vt 0.90286994 0.917923808
vt 0.891607821 0.867874265
vt 0.880131364 0.917238951
vt 0.919443011 0.818713784
vt 0.919443011 0.818713784
vt 0.899769485 0.958357334
vt 0.919443011 0.818713784
vt 0.929655671 0.868731022
vt 0.945743144 0.868108988
vt 0.955433309 0.917612433
vt 0.93272692 0.918079138
vt 0.90763545 0.868626595
vt 0.902869821 0.917923808
vt 0.891607702 0.867874265
vt 0.880131125 0.917238951
vt 0.960251093 0.957854152
vt 0.932620943 0.95805943
vt 0.899769366 0.958357334
vt 0.873535872 0.957991123
vt 0.926564336 0.963726401
vt 0.962768435 0.973967075
vt 0.928931117 0.972788453
vt 0.951763511 0.984743595
vt 0.928627551 0.983356953
vt 0.905373096 0.972812176
vt 0.904769778 0.984760523
vt 0.86811924 0.973942041
vt 0.879411638 0.985890746
vt 0.905416667 0.963373899
vt 0.903534532 0.708736002
vt 0.90278995 0.739724755
vt 0.878402591 0.723963261
vt 0.92792207 0.724450946
vt 0.945705175 0.724619687
vt 0.902362585 0.749319494
vt 0.86061734 0.723742783
vt 0.902362585 0.749319494
vt 0.903959334 0.699184597
vt 0.903959334 0.699184597
vt 0.083591409 0.11925935
vt 0.0537465215 0.0744037703
vt 0.0840379819 0.074711211
vt 0.0190160051 0.119346432
vt 0.0371333361 0.205161005
vt 0.0832718909 0.204542309
vt 0.0830991343 0.322373778
vt 0.0844845474 0.0297171995
vt 0.0639671534 0.0294540673
vt 0.11430867 0.0745423809
vt 0.148193121 0.119557358
vt 0.129306555 0.205238134
vt 0.104986727 0.0295571163
vt 0.950954914 0.466625988
vt 0.958176076 0.447488904
vt 0.950791538 0.447858572
vt 0.959053159 0.465469062
vt 0.942837119 0.465503573
vt 0.959836245 0.42734459
vt 0.950617015 0.427426428
vt 0.969123065 0.427266806
vt 0.965973258 0.446826816
vt 0.959053159 0.465469062
vt 0.966121852 0.463211596
vt 0.973855436 0.446674287
vt 0.972314715 0.462180853
vt 0.978500366 0.427497208
vt 0.943402469 0.447520494
vt 0.942837119 0.465503573
vt 0.941397786 0.427384108
vt 0.935594499 0.446891725
vt 0.935729861 0.463276327
vt 0.932109237 0.42734623
vt 0.927711427 0.446772695
vt 0.929519117 0.462271929
vt 0.935729861 0.463276327
vt 0.942837119 0.465503573
vt 0.9227373 0.427616805
vt 0.929154277 0.40415135
vt 0.918265641 0.404356211
vt 0.939806104 0.404076636
vt 0.950412869 0.404051065
vt 0.961020648 0.404030591
vt 0.971672475 0.404059172
vt 0.982565284 0.404216677
vt 0.960811734 0.38068375
vt 0.950203121 0.380615681
vt 0.971580446 0.380874008
vt 0.982585371 0.380990773
vt 0.928831816 0.380967408
vt 0.917830408 0.381132513
vt 0.939597189 0.380730122
vt 0.96002543 0.360277832
vt 0.950014532 0.359752953
vt 0.970926285 0.361467808
vt 0.982106149 0.362340808
vt 0.929135978 0.36155948
vt 0.917973697 0.362481624
vt 0.940014899 0.360321671
vt 0.964253843 0.341745913
vt 0.949835062 0.339660972
vt 0.976139247 0.345992595
vt 0.976139247 0.345992595
vt 0.986943185 0.348614216
vt 0.976139247 0.345992595
vt 0.923646033 0.34610793
vt 0.935455143 0.341809124
vt 0.923646033 0.34610793
vt 0.923646033 0.34610793
vt 0.912890971 0.348776907
vt 0.950935483 0.466629803
vt 0.943390012 0.447523952
vt 0.942818761 0.46550703
vt 0.950780272 0.447862327
vt 0.959033489 0.465473533
vt 0.941389382 0.427387655
vt 0.950610042 0.427430153
vt 0.932100713 0.427349627
vt 0.93558234 0.446895003
vt 0.935712218 0.463279605
vt 0.942818761 0.46550703
vt 0.927698076 0.446775734
vt 0.929501832 0.462275028
vt 0.922727227 0.427619994
vt 0.958163321 0.447493255
vt 0.959033489 0.465473533
vt 0.959827781 0.427348882
vt 0.965960503 0.446831763
vt 0.966102719 0.463216662
vt 0.969114542 0.427271754
vt 0.973841429 0.446679771
vt 0.972296119 0.462186337
vt 0.966102719 0.463216662
vt 0.959033489 0.465473533
vt 0.978490412 0.427502602
vt 0.971666217 0.404063851
vt 0.982557595 0.404221714
vt 0.96101439 0.404034823
vt 0.950407863 0.40405491
vt 0.939799368 0.404080272
vt 0.929147542 0.404154837
vt 0.918257475 0.404359549
vt 0.939593434 0.380733937
vt 0.950201094 0.380619586
vt 0.928827584 0.380971164
vt 0.917824745 0.381136209
vt 0.971577108 0.380878478
vt 0.982580662 0.380995393
vt 0.960808456 0.380687982
vt 0.940010667 0.360325575
vt 0.950011849 0.359756887
vt 0.929131448 0.361563355
vt 0.917967677 0.362485558
vt 0.970922709 0.361472189
vt 0.982101321 0.362345189
vt 0.960021734 0.360282004
vt 0.935450912 0.341813058
vt 0.949832499 0.339664966
vt 0.923641324 0.346111774
vt 0.923641324 0.346111774
vt 0.912884653 0.3487809
vt 0.923641324 0.346111774
vt 0.976136267 0.345997006
vt 0.964250505 0.341750115
vt 0.964250505 0.341750115
vt 0.976136267 0.345997006
vt 0.976136267 0.345997006
vt 0.986938715 0.348618537
vt 0.0302033741 0.435571462
vt 0.0649600551 0.458426625
vt 0.0728670582 0.445558935
vt 0.0297407415 0.453996509
vt 0.0590709634 0.474436849
vt 0.0334157161 0.473459214
vt 0.056109529 0.490527958
vt 0.0423161574 0.49149248
vt 0.0557880402 0.508241594
vt 0.0836727619 0.447162896
vt 0.0760533139 0.459798843
vt 0.0466184393 0.510036409
vt 0.0330812633 0.493012398
vt 0.0334157161 0.473459214
vt 0.0235405639 0.47435078
vt 0.0297407415 0.453996509
vt 0.0192328431 0.454258174
vt 0.0302033741 0.435571462
vt 0.0192328431 0.43554607
vt 0.0590709634 0.474436849
vt 0.0649600551 0.458426625
vt 0.0699003488 0.475210041
vt 0.056109529 0.490527958
vt 0.0590709634 0.474436849
vt 0.0664996505 0.490826517
vt 0.0557880402 0.508241594
vt 0.0664996505 0.490826517
vt 0.0657808185 0.508325756
vt 0.105633646 0.466418058
vt 0.129140213 0.442400306
vt 0.0935549363 0.455640763
vt 0.138003841 0.46006611
vt 0.11128749 0.481033832
vt 0.13743417 0.480808228
vt 0.108090661 0.496649355
vt 0.121808343 0.499800593
vt 0.0935549363 0.513472199
vt 0.0302033741 0.435571462
vt 0.0649600551 0.458426625
vt 0.0297407415 0.453996509
vt 0.0728670582 0.445558935
vt 0.0590709634 0.474436849
vt 0.0334157161 0.473459214
vt 0.056109529 0.490527958
vt 0.0423161574 0.49149248
vt 0.0557880402 0.508241594
vt 0.0836727619 0.447162896
vt 0.0760533139 0.459798843
vt 0.0466184393 0.510036409
vt 0.0330812633 0.493012398
vt 0.0334157161 0.473459214
vt 0.0235405639 0.47435078
vt 0.0297407415 0.453996509
vt 0.0192328431 0.454258174
vt 0.0302033741 0.435571462
vt 0.0192328431 0.43554607
vt 0.0590709634 0.474436849
vt 0.0699003488 0.475210041
vt 0.0649600551 0.458426625
vt 0.056109529 0.490527958
vt 0.0664996505 0.490826517
vt 0.0590709634 0.474436849
vt 0.0557880402 0.508241594
vt 0.0657808185 0.508325756
vt 0.0664996505 0.490826517
vt 0.105633646 0.466418058
vt 0.129140213 0.442400306
vt 0.138003841 0.46006611
vt 0.0935549363 0.455640763
vt 0.11128749 0.481033832
vt 0.13743417 0.480808228
vt 0.108090661 0.496649355
vt 0.121808343 0.499800593
vt 0.0935549363 0.513472199
vt 0.903534532 0.708736002
vt 0.90278995 0.739724755
vt 0.92792207 0.724450946
vt 0.878402591 0.723963261
vt 0.945705175 0.724619687
vt 0.902362585 0.749319494
vt 0.86061734 0.723742783
vt 0.902362585 0.749319494
vt 0.903959334 0.699184597
vt 0.903959334 0.699184597
vt 0.083591409 0.11925935
vt 0.0537465215 0.0744037703
vt 0.0190160051 0.119346432
vt 0.0840379819 0.074711211
vt 0.0371333361 0.205161005
vt 0.0832718909 0.204542309
vt 0.0830991343 0.322373778
vt 0.0844845474 0.0297171995
vt 0.0639671534 0.0294540673
vt 0.11430867 0.0745423809
vt 0.148193121 0.119557358
vt 0.129306555 0.205238134
vt 0.104986727 0.0295571163
vn 0.331086218 0.943600476 7.91898274E-05
vn -0.357306927 0 0.933987021
vn -0.331073433 0.943605006 7.90705672E-05
vn 0.357318819 0 0.933982551
vn 0.357307076 1.13082471E-07 -0.933987021
vn -0.357294977 0 -0.933991551
vn 0.33107993 -0.943602681 7.90561971E-05
vn -0.33106634 -0.94360745 7.90257909E-05
vn 0.357318819 0 0.933982551
vn -0.357306927 0 0.933987021
vn 1.68704503E-07 -0.979176044 -0.203012943
vn 1.38999397E-07 -0.979176044 -0.203013331
vn 1.50889448E-07 -0.951335788 -0.308156252
vn 3.85404377E-07 -0.9945544 -0.104218937
vn 4.63143834E-07 -0.9945544 -0.104218975
vn -1.38010719E-07 0.979175448 -0.203016117
vn -1.21113985E-07 0.951335788 -0.308156192
vn -1.246582E-07 0.979175329 -0.203016445
vn -2.42942008E-07 0.994553685 -0.104225017
vn -2.77886073E-07 0.994553685 -0.104225002
vn -0 1 0
vn -0.86597091 0.500094354 0
vn -0.86597091 0.500094295 0
vn 1.86193176E-07 1 0
vn -0.866087735 -0.499891937 -1.06342306E-07
vn -0.866087854 -0.499891877 -1.07868729E-07
vn 4.28291685E-07 -1 0
vn 6.57330247E-07 -1 0
vn 0.86597079 0.500094533 1.09443491E-07
vn 0.86597091 0.500094533 1.0721368E-07
vn 0.866088212 -0.499891192 0
vn 0.866088092 -0.499891341 0
vn 6.57330247E-07 -1 0
vn 4.28291685E-07 -1 0
vn -6.59294028E-06 0.999208868 0.0397712402
vn -0.863247871 0.498322636 0.080483146
vn -0.865283787 0.499701023 0.0397860259
vn -4.3158605E-05 0.996754587 0.0804991797
vn -0.863057315 -0.4986552 0.0804681629
vn -0.865398526 -0.499502242 0.0397864431
vn -7.60854819E-05 -0.99675566 0.0804864913
vn -1.54323061E-05 -0.999208391 0.0397831127
vn 0.865286767 0.49969691 0.0397716127
vn 0.863247871 0.498318017 0.0805117488
vn 0.86540699 -0.499489903 0.0397563465
vn 0.863070548 -0.498619378 0.0805478022
vn -1.54323061E-05 -0.999208391 0.0397831127
vn -7.60854819E-05 -0.99675566 0.0804864913
vn 1.86193176E-07 1 0
vn -0.86597091 0.500094354 0
vn -0.866087735 -0.499891937 -1.06342306E-07
vn 4.28291685E-07 -1 0
vn 4.28291685E-07 -1 0
vn 0.866088092 -0.499891341 0
vn 0.86597091 0.500094533 1.0721368E-07
vn -2.8747234E-05 0.99027586 -0.139117599
vn -0.86597091 0.500094295 0
vn -0.85753274 0.495239049 -0.139197469
vn -0 1 0
vn -0.866087854 -0.499891877 -1.07868729E-07
vn -0.857640266 -0.495050192 -0.13920632
vn 6.57330247E-07 -1 0
vn -9.60905891E-06 -0.990252733 -0.139282063
vn 0.857550621 0.495223194 -0.139143705
vn 0.86597079 0.500094533 1.09443491E-07
vn 0.857646108 -0.495048314 -0.139177606
vn 0.866088212 -0.499891192 0
vn -9.60905891E-06 -0.990252733 -0.139282063
vn 6.57330247E-07 -1 0
vn -0.847813964 0.489401877 -0.204198956
vn -5.47019154E-05 0.978940904 -0.204143688
vn 0.847818673 0.489364833 -0.204268262
vn 0.847832799 -0.489340544 -0.204267919
vn -4.06635336E-05 -0.978899539 -0.204342306
vn -4.06635336E-05 -0.978899539 -0.204342306
vn -0.847822726 -0.489359021 -0.204265654
vn 1.37382349E-05 0.924536705 0.381093055
vn -0.773964226 0.466618627 0.428072959
vn 0.773952663 0.466637105 0.428073823
vn 0.771022201 -0.479277641 0.419306278
vn -1.4467143E-05 -0.930703342 0.365774989
vn -0.771004558 -0.479276299 0.419340193
vn -1.4467143E-05 -0.930703342 0.365774989
vn -0.798464179 0.476246089 0.368299752
vn 1.37382349E-05 0.924536705 0.381093055
vn -0.773964226 0.466618627 0.428072959
vn -1.11926816E-07 0.942102015 0.335326523
vn -0.795889974 -0.478173673 0.371361256
vn -0.771004558 -0.479276299 0.419340193
vn 1.50169853E-07 -0.939242661 0.34325403
vn -1.4467143E-05 -0.930703342 0.365774989
vn -0.747295201 0.433105499 -0.503953874
vn -0 0.995732367 -0.0922877789
vn -0.747227252 -0.433253825 -0.503927112
vn 2.23214229E-07 -0.995738029 -0.0922259912
vn -0.66923213 0.438215822 -0.600079298
vn -0.908896029 0.415730715 -0.0328006223
vn -0 0.999119461 -0.0419556722
vn -0.911572695 0.397674739 -0.10435535
vn -2.01934839E-07 0.989775777 -0.142632425
vn -0.911866546 -0.396374285 -0.106709071
vn -0.909295142 -0.414991111 -0.0310573075
vn 1.60829117E-07 -0.988898456 -0.148593292
vn 2.49098179E-07 -0.999283135 -0.0378593393
vn 1.73252226E-06 -3.1036896E-05 -1
vn 1.73252226E-06 -3.1036896E-05 -1
vn -0.669093847 -0.438496977 -0.600028157
vn 1.73252226E-06 -3.1036896E-05 -1
vn 0.911572576 0.397675186 -0.104355194
vn -2.01934839E-07 0.989775777 -0.142632425
vn -0 0.999119461 -0.0419556722
vn 0.908895969 0.415730983 -0.0328004099
vn 0.911866665 -0.396374077 -0.106708899
vn 0.90929538 -0.414990723 -0.0310571231
vn 1.60829117E-07 -0.988898456 -0.148593292
vn 2.49098179E-07 -0.999283135 -0.0378593393
vn -0 0.995732367 -0.0922877789
vn 0.66923213 0.438215882 -0.600079358
vn 0.669094086 -0.438496768 -0.600028038
vn 2.23214229E-07 -0.995738029 -0.0922259912
vn 0.747295022 0.433105797 -0.503953815
vn -1.11926816E-07 0.942102015 0.335326523
vn 0.798463941 0.476246208 0.368299961
vn 1.37382349E-05 0.924536705 0.381093055
vn 0.773952663 0.466637105 0.428073823
vn 0.795889974 -0.478173375 0.371361494
vn 0.771022201 -0.479277641 0.419306278
vn 1.50169853E-07 -0.939242661 0.34325403
vn -1.4467143E-05 -0.930703342 0.365774989
vn 0.74722749 -0.433253556 -0.503927171
vn -0.873815775 1.81323443E-07 -0.486257076
vn -0.873829544 0 0.486232311
vn -0.858132064 -0.513429105 8.84171313E-05
vn -0.858139932 0.513415873 8.85376867E-05
vn -0.331073433 0.943605006 7.90705672E-05
vn -0.357306927 0 0.933987021
vn -0.33106634 -0.94360745 7.90257909E-05
vn -0.357306927 0 0.933987021
vn -0.357294977 0 -0.933991551
vn -0.357294977 0 -0.933991551
vn -0.999463499 -7.26479193E-05 0.0327514559
vn -0.958448768 -0.281487644 -0.0462662429
vn -0.997851133 -7.48216335E-05 -0.0655224547
vn -0.896436334 -0.441523463 0.0381956398
vn -0.891446352 -0.449345917 0.0584102906
vn -0.997802198 -8.88840077E-05 0.066262275
vn -0.996162295 -1.6647781E-06 0.0875251219
vn -0.99617815 -0.000102705802 -0.0873449743
vn -0.966884971 -0.240668401 -0.0849246532
vn -0.958488643 0.281354338 -0.0462533496
vn -0.896492422 0.441408068 0.0382118374
vn -0.891524017 0.449191332 0.0584134609
vn -0.966938555 0.240458965 -0.0849074945
vn -0.000782057585 0 0.999999762
vn 0.830699682 -0.307860345 0.463853478
vn -0.000625402608 -0.58466053 0.811277747
vn 0.822710633 1.58801598E-07 0.568460405
vn -0.823502779 -1.49248223E-07 0.567312121
vn 0.838899076 -0.486829013 0.243404761
vn -0.000400905235 -0.908212841 0.418508321
vn 0.896006167 0.423435271 -0.133699581
vn 0.908025384 0.298493445 -0.293924302
vn 0.822710633 1.58801598E-07 0.568460405
vn 0.92234987 1.88590988E-07 -0.386355788
vn -0.0012756834 0.663406372 -0.748258233
vn -0.0021445204 0 -0.999997735
vn -0.000703119498 0.938030064 -0.346553147
vn -0.831196189 -0.307202518 0.463400096
vn -0.823502779 -1.49248223E-07 0.567312121
vn -0.839232802 -0.486181855 0.243547559
vn -0.908240497 0.298675746 -0.293073416
vn -0.922658801 -1.54696551E-07 -0.385617465
vn -0.896205127 0.423181087 -0.133169428
vn -0.0012756834 0.663406372 -0.748258233
vn -0.0021445204 0 -0.999997735
vn -0.922658801 -1.54696551E-07 -0.385617465
vn -0.823502779 -1.49248223E-07 0.567312121
vn -0.000703119498 0.938030064 -0.346553147
vn -0.892638147 0.450364381 0.0192099605
vn -0.000268422562 0.999798596 0.020065885
vn -0.843001187 -0.53765291 0.0166811459
vn -0.000165992678 -0.999881744 0.0153787825
vn 0.842868924 -0.537879586 0.0160480104
vn 0.892562091 0.450557649 0.0181878209
vn -0.000268422562 0.999798596 0.020065885
vn 0.839849114 -0.500296354 -0.210610837
vn -3.82128237E-05 -0.921584845 -0.388177186
vn 0.896903276 0.407544643 0.171673566
vn -4.67809441E-05 0.921669185 0.387976706
vn -0.896913648 0.407516629 0.17168653
vn -4.67809441E-05 0.921669185 0.387976706
vn -0.839865267 -0.500312984 -0.210507244
vn 0.831883609 -0.342686921 -0.436503559
vn -2.37839013E-05 -0.617194057 -0.786811054
vn 0.909654498 0.256393969 0.326788694
vn -8.72858582E-05 0.617317379 0.786714256
vn -0.909650922 0.256439388 0.326762766
vn -8.72858582E-05 0.617317379 0.786714256
vn -0.83190918 -0.342603922 -0.436519802
vn 0.825868547 1.18263983E-07 -0.563862681
vn -5.72556164E-05 0 -1
vn 0.921009421 1.46043263E-07 0.389540344
vn 0.921009421 1.46043263E-07 0.389540344
vn -0.000156204565 0 1
vn 0.921009421 1.46043263E-07 0.389540344
vn -0.920986533 0 0.389594406
vn -0.82587564 -1.53569701E-07 -0.563852251
vn -0.920986533 0 0.389594406
vn -0.920986533 0 0.389594406
vn -0.000156204565 0 1
vn -0.000782057585 0 0.999999762
vn 0.830699742 0.307860792 0.463853061
vn 0.822710633 1.58801598E-07 0.568460405
vn -0.000625199813 0.584661067 0.81127739
vn -0.823502779 -1.49248223E-07 0.567312121
vn 0.838900328 0.486827791 0.243403047
vn -0.000400737801 0.908212364 0.418509364
vn 0.896006107 -0.423435301 -0.133699805
vn 0.908025384 -0.298493266 -0.29392451
vn 0.92234987 1.88590988E-07 -0.386355788
vn 0.822710633 1.58801598E-07 0.568460405
vn -0.00127556361 -0.663406134 -0.748258471
vn -0.0021445204 0 -0.999997735
vn -0.000703426136 -0.938030005 -0.346553236
vn -0.831196249 0.307202309 0.463399947
vn -0.823502779 -1.49248223E-07 0.567312121
vn -0.839234173 0.486180514 0.243545577
vn -0.908240378 -0.298676074 -0.293073505
vn -0.922658801 -1.54696551E-07 -0.385617465
vn -0.896205187 -0.423181057 -0.133169249
vn -0.00127556361 -0.663406134 -0.748258471
vn -0.0021445204 0 -0.999997735
vn -0.922658801 -1.54696551E-07 -0.385617465
vn -0.823502779 -1.49248223E-07 0.567312121
vn -0.000703426136 -0.938030005 -0.346553236
vn -0.892638028 -0.450364739 0.0192099046
vn -0.000268505624 -0.999798715 0.0200656131
vn -0.843001425 0.537652612 0.0166812949
vn -0.00016584924 0.999881744 0.0153790386
vn 0.842868984 0.537879467 0.0160482898
vn 0.892561972 -0.450557858 0.018187711
vn -0.000268505624 -0.999798715 0.0200656131
vn 0.839848518 0.500297308 -0.210610971
vn -3.88378357E-05 0.921584845 -0.388177067
vn 0.896902859 -0.407545447 0.171673805
vn -4.68936414E-05 -0.921668351 0.387978494
vn -0.896912932 -0.407518029 0.171686321
vn -4.68936414E-05 -0.921668351 0.387978494
vn -0.839865088 0.500313103 -0.210507169
vn 0.831883371 0.342687368 -0.43650347
vn -2.38346129E-05 0.617194116 -0.786810875
vn 0.909654498 -0.25639376 0.326788992
vn -8.74085963E-05 -0.617316842 0.786714673
vn -0.909650743 -0.256439626 0.326763242
vn -8.74085963E-05 -0.617316842 0.786714673
vn -0.83190918 0.342604041 -0.436519831
vn 0.825868547 1.18263983E-07 -0.563862681
vn -5.72556164E-05 0 -1
vn 0.921009421 1.46043263E-07 0.389540344
vn 0.921009421 1.46043263E-07 0.389540344
vn -0.000156204565 0 1
vn 0.921009421 1.46043263E-07 0.389540344
vn -0.920986533 0 0.389594406
vn -0.82587564 -1.53569701E-07 -0.563852251
vn -0.82587564 -1.53569701E-07 -0.563852251
vn -0.920986533 0 0.389594406
vn -0.920986533 0 0.389594406
vn -0.000156204565 0 1
vn 0.597921252 -0.341905445 -0.72497642
vn 0.744476855 0.22036165 0.630234122
vn 0.735815644 0.119654335 0.666527033
vn 0.67929101 -0.39574635 -0.618019998
vn 0.741253138 0.40119642 0.538131297
vn 0.667509794 -0.576580524 -0.471153527
vn 0.742776155 0.539885879 0.395988375
vn 0.664063156 -0.715803623 -0.21597515
vn 0.539490759 -0.236433044 0.808114529
vn -0.735815704 0.119654149 0.666526914
vn -0.744476974 0.220361397 0.630233943
vn -0.53949064 -0.236433148 0.808114529
vn -0.664062619 -0.7158041 -0.21597521
vn 0.667509794 -0.576580524 -0.471153527
vn -0.667508781 -0.576581419 -0.471153885
vn 0.67929101 -0.39574635 -0.618019998
vn -0.679290473 -0.395746678 -0.618020117
vn 0.597921252 -0.341905445 -0.72497642
vn -0.597921073 -0.341905564 -0.72497654
vn 0.741253138 0.40119642 0.538131297
vn 0.744476855 0.22036165 0.630234122
vn -0.741253257 0.401196301 0.538131297
vn 0.742776155 0.539885879 0.395988375
vn 0.741253138 0.40119642 0.538131297
vn -0.742776155 0.539885879 0.395988464
vn 0.539490759 -0.236433044 0.808114529
vn -0.742776155 0.539885879 0.395988464
vn -0.53949064 -0.236433148 0.808114529
vn -0.744476974 0.220361397 0.630233943
vn -0.597921073 -0.341905564 -0.72497654
vn -0.735815704 0.119654149 0.666526914
vn -0.679290473 -0.395746678 -0.618020117
vn -0.741253257 0.401196301 0.538131297
vn -0.667508781 -0.576581419 -0.471153885
vn -0.742776155 0.539885879 0.395988464
vn -0.664062619 -0.7158041 -0.21597521
vn -0.53949064 -0.236433148 0.808114529
vn 0.597921371 0.341905683 -0.724976242
vn 0.744476974 -0.220361575 0.630233884
vn 0.679290473 0.395747066 -0.618019879
vn 0.735815644 -0.119654045 0.666527033
vn 0.741252303 -0.401195347 0.538133204
vn 0.66750896 0.57658124 -0.471153736
vn 0.742777407 -0.53988415 0.395988405
vn 0.6640625 0.71580416 -0.21597515
vn 0.5394907 0.236431509 0.808115005
vn -0.735815585 -0.119654343 0.666527092
vn -0.744476974 -0.220361799 0.630233824
vn -0.539490938 0.236431479 0.808114946
vn -0.664063156 0.715803623 -0.215975314
vn 0.66750896 0.57658124 -0.471153736
vn -0.667509913 0.576580346 -0.471153438
vn 0.679290473 0.395747066 -0.618019879
vn -0.679290652 0.395746797 -0.618019938
vn 0.597921371 0.341905683 -0.724976242
vn -0.597921014 0.341905504 -0.72497654
vn 0.741252303 -0.401195347 0.538133204
vn -0.741252303 -0.401195556 0.538132966
vn 0.744476974 -0.220361575 0.630233884
vn 0.742777407 -0.53988415 0.395988405
vn -0.742777407 -0.539884388 0.395988196
vn 0.741252303 -0.401195347 0.538133204
vn 0.5394907 0.236431509 0.808115005
vn -0.539490938 0.236431479 0.808114946
vn -0.742777407 -0.539884388 0.395988196
vn -0.744476974 -0.220361799 0.630233824
vn -0.597921014 0.341905504 -0.72497654
vn -0.679290652 0.395746797 -0.618019938
vn -0.735815585 -0.119654343 0.666527092
vn -0.741252303 -0.401195556 0.538132966
vn -0.667509913 0.576580346 -0.471153438
vn -0.742777407 -0.539884388 0.395988196
vn -0.664063156 0.715803623 -0.215975314
vn -0.539490938 0.236431479 0.808114946
vn 0.873826623 3.65876019E-07 -0.486237496
vn 0.873840392 4.20861795E-07 0.486212969
vn 0.85815084 0.513397753 8.85604168E-05
vn 0.858143091 -0.513410449 8.8586261E-05
vn 0.331086218 0.943600476 7.91898274E-05
vn 0.357318819 0 0.933982551
vn 0.33107993 -0.943602681 7.90561971E-05
vn 0.357318819 0 0.933982551
vn 0.357307076 1.13082471E-07 -0.933987021
vn 0.357307076 1.13082471E-07 -0.933987021
vn 0.999463379 -7.22807526E-05 0.0327557065
vn 0.958456099 -0.281463385 -0.0462642834
vn 0.896436393 -0.441523075 0.0381999575
vn 0.997851133 -7.45710786E-05 -0.0655222535
vn 0.891446531 -0.44934544 0.0584104434
vn 0.997802198 -8.85311892E-05 0.0662624314
vn 0.996162295 -1.31884985E-06 0.0875252634
vn 0.996178508 -0.000102345766 -0.0873409361
vn 0.966895998 -0.240625486 -0.0849206597
vn 0.958495617 0.281330615 -0.0462513864
vn 0.896492243 0.441408336 0.0382161811
vn 0.891523898 0.449191391 0.0584135912
vn 0.966949403 0.24041684 -0.0849036276
g spear_01_0
f 3/3/3 2/2/2 1/1/1
f 4/4/4 1/1/1 2/2/2
f 1/1/1 5/5/5 3/3/3
f 6/6/6 3/3/3 5/5/5
f 5/5/5 7/7/7 6/6/6
f 8/8/8 6/6/6 7/7/7
f 7/7/7 9/9/9 8/8/8
f 10/10/10 8/8/8 9/9/9
f 13/13/13 12/12/12 11/11/11
f 12/12/12 14/14/14 11/11/11
f 15/15/15 11/11/11 14/14/14
f 18/18/18 17/17/17 16/16/16
f 18/18/18 16/16/16 19/19/19
f 20/20/20 19/19/19 16/16/16
f 23/23/23 22/22/22 21/21/21
f 24/24/24 21/21/21 22/22/22
f 22/22/22 23/23/23 25/25/25
f 26/26/26 25/25/25 23/23/23
f 25/25/25 26/26/26 27/27/27
f 28/28/28 27/27/27 26/26/26
f 21/21/21 24/24/24 29/29/29
f 30/30/30 29/29/29 24/24/24
f 29/29/29 30/30/30 31/31/31
f 32/32/32 31/31/31 30/30/30
f 31/31/31 32/32/32 33/33/33
f 34/34/34 33/33/33 32/32/32
f 37/37/37 36/36/36 35/35/35
f 38/38/38 35/35/35 36/36/36
f 36/36/36 37/37/37 39/39/39
f 40/40/40 39/39/39 37/37/37
f 39/39/39 40/40/40 41/41/41
f 42/42/42 41/41/41 40/40/40
f 35/35/35 38/38/38 43/43/43
f 44/44/44 43/43/43 38/38/38
f 43/43/43 44/44/44 45/45/45
f 46/46/46 45/45/45 44/44/44
f 45/45/45 46/46/46 47/47/47
f 48/48/48 47/47/47 46/46/46
f 35/35/35 49/49/49 37/37/37
f 50/50/50 37/37/37 49/49/49
f 37/37/37 50/50/50 40/40/40
f 51/51/51 40/40/40 50/50/50
f 40/40/40 51/51/51 42/42/42
f 52/52/52 42/42/42 51/51/51
f 47/47/47 53/53/53 45/45/45
f 54/54/54 45/45/45 53/53/53
f 45/45/45 54/54/54 43/43/43
f 55/55/55 43/43/43 54/54/54
f 49/49/49 35/35/35 55/55/55
f 43/43/43 55/55/55 35/35/35
f 58/58/58 57/57/57 56/56/56
f 59/59/59 56/56/56 57/57/57
f 57/57/57 58/58/58 60/60/60
f 61/61/61 60/60/60 58/58/58
f 60/60/60 61/61/61 62/62/62
f 63/63/63 62/62/62 61/61/61
f 56/56/56 59/59/59 64/64/64
f 65/65/65 64/64/64 59/59/59
f 64/64/64 65/65/65 66/66/66
f 67/67/67 66/66/66 65/65/65
f 66/66/66 67/67/67 68/68/68
f 69/69/69 68/68/68 67/67/67
f 58/58/58 56/56/56 70/70/70
f 71/71/71 70/70/70 56/56/56
f 56/56/56 64/64/64 71/71/71
f 72/72/72 71/71/71 64/64/64
f 64/64/64 66/66/66 72/72/72
f 73/73/73 72/72/72 66/66/66
f 66/66/66 68/68/68 73/73/73
f 74/74/74 73/73/73 68/68/68
f 63/63/63 61/61/61 75/75/75
f 76/76/76 75/75/75 61/61/61
f 61/61/61 58/58/58 76/76/76
f 70/70/70 76/76/76 58/58/58
f 71/71/71 77/77/77 70/70/70
f 78/78/78 70/70/70 77/77/77
f 70/70/70 78/78/78 76/76/76
f 72/72/72 79/79/79 71/71/71
f 77/77/77 71/71/71 79/79/79
f 73/73/73 80/80/80 72/72/72
f 79/79/79 72/72/72 80/80/80
f 74/74/74 81/81/81 73/73/73
f 80/80/80 73/73/73 81/81/81
f 76/76/76 82/82/82 75/75/75
f 82/82/82 76/76/76 78/78/78
f 83/83/83 75/75/75 82/82/82
f 86/86/86 85/85/85 84/84/84
f 87/87/87 84/84/84 85/85/85
f 84/84/84 88/88/88 86/86/86
f 89/89/89 86/86/86 88/88/88
f 88/88/88 90/90/90 89/89/89
f 91/91/91 89/89/89 90/90/90
f 84/84/84 87/87/87 92/92/92
f 93/93/93 92/92/92 87/87/87
f 88/88/88 84/84/84 94/94/94
f 92/92/92 94/94/94 84/84/84
f 90/90/90 88/88/88 95/95/95
f 94/94/94 95/95/95 88/88/88
f 96/96/96 92/92/92 93/93/93
f 96/96/96 93/93/93 97/97/97
f 98/98/98 97/97/97 93/93/93
f 97/97/97 98/98/98 99/99/99
f 100/100/100 99/99/99 98/98/98
f 99/99/99 101/101/101 97/97/97
f 102/102/102 97/97/97 101/101/101
f 97/97/97 102/102/102 96/96/96
f 101/101/101 103/103/103 102/102/102
f 104/104/104 102/102/102 103/103/103
f 100/100/100 105/105/105 99/99/99
f 99/99/99 106/106/106 101/101/101
f 107/107/107 96/96/96 102/102/102
f 95/95/95 107/107/107 104/104/104
f 102/102/102 104/104/104 107/107/107
f 94/94/94 92/92/92 107/107/107
f 96/96/96 107/107/107 92/92/92
f 95/95/95 94/94/94 107/107/107
f 101/101/101 108/108/108 103/103/103
f 108/108/108 110/110/110 109/109/109
f 110/110/110 111/111/111 109/109/109
f 112/112/112 109/109/109 111/111/111
f 109/109/109 112/112/112 113/113/113
f 106/106/106 109/109/109 113/113/113
f 114/114/114 113/113/113 112/112/112
f 113/113/113 114/114/114 115/115/115
f 105/105/105 113/113/113 115/115/115
f 116/116/116 115/115/115 114/114/114
f 111/111/111 117/117/117 112/112/112
f 118/118/118 112/112/112 117/117/117
f 112/112/112 118/118/118 114/114/114
f 119/119/119 114/114/114 118/118/118
f 114/114/114 119/119/119 116/116/116
f 120/120/120 116/116/116 119/119/119
f 121/121/121 118/118/118 117/117/117
f 118/118/118 121/121/121 119/119/119
f 117/117/117 122/122/122 121/121/121
f 123/123/123 121/121/121 122/122/122
f 122/122/122 124/124/124 123/123/123
f 125/125/125 123/123/123 124/124/124
f 123/123/123 125/125/125 126/126/126
f 127/127/127 126/126/126 125/125/125
f 126/126/126 127/127/127 128/128/128
f 128/128/128 120/120/120 126/126/126
f 129/129/129 128/128/128 127/127/127
f 121/121/121 123/123/123 130/130/130
f 126/126/126 130/130/130 123/123/123
f 130/130/130 126/126/126 120/120/120
f 130/130/130 119/119/119 121/121/121
f 130/130/130 120/120/120 119/119/119
f 133/133/133 132/132/132 131/131/131
f 134/134/134 131/131/131 132/132/132
f 134/134/134 132/132/132 135/135/135
f 134/134/134 135/135/135 131/131/131
f 136/136/136 135/135/135 132/132/132
f 133/133/133 137/137/137 132/132/132
f 133/133/133 131/131/131 137/137/137
f 138/138/138 132/132/132 137/137/137
f 139/139/139 137/137/137 131/131/131
f 140/140/140 131/131/131 135/135/135
f 143/143/143 142/142/142 141/141/141
f 144/144/144 141/141/141 142/142/142
f 144/144/144 145/145/145 141/141/141
f 146/146/146 141/141/141 145/145/145
f 146/146/146 145/145/145 147/147/147
f 143/143/143 148/148/148 142/142/142
f 149/149/149 142/142/142 148/148/148
f 143/143/143 141/141/141 150/150/150
f 143/143/143 150/150/150 148/148/148
f 151/151/151 150/150/150 141/141/141
f 152/152/152 146/146/146 147/147/147
f 146/146/146 152/152/152 141/141/141
f 151/151/151 141/141/141 152/152/152
f 153/153/153 148/148/148 150/150/150
f 156/156/156 155/155/155 154/154/154
f 157/157/157 154/154/154 155/155/155
f 154/154/154 158/158/158 156/156/156
f 155/155/155 156/156/156 159/159/159
f 160/160/160 159/159/159 156/156/156
f 159/159/159 161/161/161 155/155/155
f 162/162/162 155/155/155 161/161/161
f 155/155/155 162/162/162 163/163/163
f 164/164/164 157/157/157 162/162/162
f 162/162/162 165/165/165 164/164/164
f 166/166/166 164/164/164 165/165/165
f 161/161/161 167/167/167 162/162/162
f 165/165/165 162/162/162 167/167/167
f 156/156/156 168/168/168 160/160/160
f 168/168/168 156/156/156 169/169/169
f 170/170/170 160/160/160 168/168/168
f 168/168/168 171/171/171 170/170/170
f 171/171/171 168/168/168 172/172/172
f 173/173/173 170/170/170 171/171/171
f 171/171/171 174/174/174 173/173/173
f 174/174/174 171/171/171 175/175/175
f 176/176/176 175/175/175 171/171/171
f 177/177/177 176/176/176 168/168/168
f 178/178/178 173/173/173 174/174/174
f 173/173/173 178/178/178 179/179/179
f 180/180/180 179/179/179 178/178/178
f 179/179/179 181/181/181 173/173/173
f 170/170/170 173/173/173 181/181/181
f 181/181/181 182/182/182 170/170/170
f 160/160/160 170/170/170 182/182/182
f 182/182/182 183/183/183 160/160/160
f 159/159/159 160/160/160 183/183/183
f 183/183/183 184/184/184 159/159/159
f 161/161/161 159/159/159 184/184/184
f 184/184/184 185/185/185 161/161/161
f 167/167/167 161/161/161 185/185/185
f 183/183/183 182/182/182 186/186/186
f 187/187/187 186/186/186 182/182/182
f 182/182/182 181/181/181 187/187/187
f 186/186/186 188/188/188 183/183/183
f 184/184/184 183/183/183 188/188/188
f 188/188/188 189/189/189 184/184/184
f 185/185/185 184/184/184 189/189/189
f 179/179/179 180/180/180 190/190/190
f 191/191/191 190/190/190 180/180/180
f 192/192/192 187/187/187 181/181/181
f 190/190/190 192/192/192 179/179/179
f 181/181/181 179/179/179 192/192/192
f 186/186/186 187/187/187 193/193/193
f 194/194/194 193/193/193 187/187/187
f 187/187/187 192/192/192 194/194/194
f 193/193/193 195/195/195 186/186/186
f 188/188/188 186/186/186 195/195/195
f 195/195/195 196/196/196 188/188/188
f 189/189/189 188/188/188 196/196/196
f 190/190/190 191/191/191 197/197/197
f 198/198/198 197/197/197 191/191/191
f 197/197/197 199/199/199 190/190/190
f 192/192/192 190/190/190 199/199/199
f 199/199/199 194/194/194 192/192/192
f 193/193/193 194/194/194 200/200/200
f 201/201/201 200/200/200 194/194/194
f 194/194/194 199/199/199 201/201/201
f 200/200/200 202/202/202 193/193/193
f 195/195/195 193/193/193 203/203/203
f 196/196/196 195/195/195 204/204/204
f 205/205/205 204/204/204 195/195/195
f 197/197/197 198/198/198 206/206/206
f 199/199/199 197/197/197 207/207/207
f 207/207/207 201/201/201 199/199/199
f 208/208/208 207/207/207 197/197/197
f 210/210/210 209/209/209 198/198/198
f 213/213/213 212/212/212 211/211/211
f 214/214/214 211/211/211 212/212/212
f 211/211/211 214/214/214 215/215/215
f 212/212/212 216/216/216 214/214/214
f 217/217/217 214/214/214 216/216/216
f 216/216/216 212/212/212 218/218/218
f 219/219/219 218/218/218 212/212/212
f 220/220/220 219/219/219 213/213/213
f 212/212/212 221/221/221 219/219/219
f 219/219/219 220/220/220 222/222/222
f 223/223/223 222/222/222 220/220/220
f 222/222/222 224/224/224 219/219/219
f 218/218/218 219/219/219 224/224/224
f 214/214/214 217/217/217 225/225/225
f 225/225/225 226/226/226 214/214/214
f 227/227/227 225/225/225 217/217/217
f 225/225/225 227/227/227 228/228/228
f 228/228/228 229/229/229 225/225/225
f 230/230/230 228/228/228 227/227/227
f 228/228/228 230/230/230 231/231/231
f 231/231/231 232/232/232 228/228/228
f 233/233/233 228/228/228 232/232/232
f 234/234/234 225/225/225 233/233/233
f 235/235/235 231/231/231 230/230/230
f 230/230/230 236/236/236 235/235/235
f 237/237/237 235/235/235 236/236/236
f 227/227/227 238/238/238 230/230/230
f 236/236/236 230/230/230 238/238/238
f 238/238/238 227/227/227 239/239/239
f 217/217/217 239/239/239 227/227/227
f 239/239/239 217/217/217 240/240/240
f 216/216/216 240/240/240 217/217/217
f 240/240/240 216/216/216 241/241/241
f 218/218/218 241/241/241 216/216/216
f 241/241/241 218/218/218 242/242/242
f 224/224/224 242/242/242 218/218/218
f 240/240/240 243/243/243 239/239/239
f 244/244/244 239/239/239 243/243/243
f 239/239/239 244/244/244 238/238/238
f 241/241/241 245/245/245 240/240/240
f 243/243/243 240/240/240 245/245/245
f 242/242/242 246/246/246 241/241/241
f 245/245/245 241/241/241 246/246/246
f 236/236/236 247/247/247 237/237/237
f 248/248/248 237/237/237 247/247/247
f 249/249/249 238/238/238 244/244/244
f 238/238/238 249/249/249 236/236/236
f 247/247/247 236/236/236 249/249/249
f 243/243/243 250/250/250 244/244/244
f 251/251/251 244/244/244 250/250/250
f 244/244/244 251/251/251 249/249/249
f 245/245/245 252/252/252 243/243/243
f 250/250/250 243/243/243 252/252/252
f 246/246/246 253/253/253 245/245/245
f 252/252/252 245/245/245 253/253/253
f 247/247/247 254/254/254 248/248/248
f 255/255/255 248/248/248 254/254/254
f 249/249/249 256/256/256 247/247/247
f 254/254/254 247/247/247 256/256/256
f 256/256/256 249/249/249 251/251/251
f 250/250/250 257/257/257 251/251/251
f 258/258/258 251/251/251 257/257/257
f 251/251/251 258/258/258 256/256/256
f 252/252/252 259/259/259 250/250/250
f 257/257/257 250/250/250 260/260/260
f 253/253/253 261/261/261 252/252/252
f 262/262/262 252/252/252 261/261/261
f 254/254/254 263/263/263 255/255/255
f 256/256/256 264/264/264 254/254/254
f 265/265/265 256/256/256 258/258/258
f 266/266/266 254/254/254 265/265/265
f 268/268/268 255/255/255 267/267/267
f 271/271/271 270/270/270 269/269/269
f 272/272/272 269/269/269 270/270/270
f 270/270/270 273/273/273 272/272/272
f 274/274/274 272/272/272 273/273/273
f 273/273/273 275/275/275 274/274/274
f 276/276/276 274/274/274 275/275/275
f 275/275/275 277/277/277 276/276/276
f 271/271/271 278/278/278 270/270/270
f 279/279/279 270/270/270 278/278/278
f 277/277/277 280/280/280 276/276/276
f 281/281/281 276/276/276 280/280/280
f 276/276/276 281/281/281 282/282/282
f 283/283/283 282/282/282 281/281/281
f 282/282/282 283/283/283 284/284/284
f 285/285/285 284/284/284 283/283/283
f 284/284/284 285/285/285 286/286/286
f 287/287/287 286/286/286 285/285/285
f 289/289/289 279/279/279 288/288/288
f 290/290/290 288/288/288 279/279/279
f 292/292/292 290/290/290 291/291/291
f 293/293/293 291/291/291 290/290/290
f 291/291/291 295/295/295 294/294/294
f 296/296/296 294/294/294 293/293/293
f 299/299/299 298/298/298 297/297/297
f 300/300/300 297/297/297 298/298/298
f 297/297/297 300/300/300 301/301/301
f 302/302/302 301/301/301 300/300/300
f 301/301/301 302/302/302 303/303/303
f 304/304/304 303/303/303 302/302/302
f 303/303/303 304/304/304 305/305/305
f 308/308/308 307/307/307 306/306/306
f 309/309/309 306/306/306 307/307/307
f 307/307/307 308/308/308 310/310/310
f 311/311/311 310/310/310 308/308/308
f 310/310/310 311/311/311 312/312/312
f 313/313/313 312/312/312 311/311/311
f 314/314/314 312/312/312 313/313/313
f 309/309/309 307/307/307 315/315/315
f 316/316/316 315/315/315 307/307/307
f 314/314/314 313/313/313 317/317/317
f 318/318/318 317/317/317 313/313/313
f 313/313/313 319/319/319 318/318/318
f 320/320/320 318/318/318 319/319/319
f 319/319/319 321/321/321 320/320/320
f 322/322/322 320/320/320 321/321/321
f 321/321/321 323/323/323 322/322/322
f 324/324/324 322/322/322 323/323/323
f 326/326/326 316/316/316 325/325/325
f 327/327/327 325/325/325 316/316/316
f 329/329/329 326/326/326 328/328/328
f 330/330/330 328/328/328 326/326/326
f 332/332/332 329/329/329 331/331/331
f 328/328/328 331/331/331 333/333/333
f 336/336/336 335/335/335 334/334/334
f 337/337/337 334/334/334 335/335/335
f 334/334/334 338/338/338 336/336/336
f 339/339/339 336/336/336 338/338/338
f 338/338/338 340/340/340 339/339/339
f 341/341/341 339/339/339 340/340/340
f 341/341/341 340/340/340 342/342/342
f 345/345/345 344/344/344 343/343/343
f 346/346/346 343/343/343 344/344/344
f 345/345/345 347/347/347 344/344/344
f 345/345/345 343/343/343 347/347/347
f 348/348/348 344/344/344 347/347/347
f 346/346/346 344/344/344 349/349/349
f 346/346/346 349/349/349 343/343/343
f 350/350/350 349/349/349 344/344/344
f 351/351/351 343/343/343 349/349/349
f 352/352/352 347/347/347 343/343/343
f 355/355/355 354/354/354 353/353/353
f 356/356/356 353/353/353 354/354/354
f 355/355/355 353/353/353 357/357/357
f 358/358/358 357/357/357 353/353/353
f 357/357/357 358/358/358 359/359/359
f 356/356/356 354/354/354 360/360/360
f 361/361/361 360/360/360 354/354/354
f 356/356/356 362/362/362 353/353/353
f 356/356/356 360/360/360 362/362/362
f 363/363/363 353/353/353 362/362/362
f 358/358/358 364/364/364 359/359/359
f 363/363/363 364/364/364 353/353/353
f 358/358/358 353/353/353 364/364/364
f 365/365/365 362/362/362 360/360/360
