g t_a1_shield001
v -0.013690033 0.0090390062 0.0973909721
v 0.011979904 0.0090390062 0.0976149738
v -7.62939436E-08 4.76837148E-09 0
v 0.0239699557 0.0391770005 0.19526501
v -0.027380066 0.0391770005 0.194817007
v 0.0368399024 0.0090390062 0.0911869779
v 0.0736899525 0.0391770005 0.182405964
v 0.0591799133 0.0090390062 0.0785439685
v 0.118389964 0.0391770005 0.157116994
v 0.0774999186 0.0090390062 0.0605489723
v 0.155019909 0.0391770005 0.121119991
v -0.0384300984 0.0090390062 0.0905299708
v -0.0605500787 0.0090390062 0.077498965
v -0.0768700391 0.0391770005 0.181091949
v -0.121123046 0.0391770005 0.155026972
v -0.0785500333 0.0090390062 0.0591869727
v -0.157120049 0.0391770005 0.118395992
v -0.0911900327 0.0090390062 0.0368420035
v -0.0976200849 0.0090390062 0.0119849779
v -0.0973900557 0.0090390062 -0.0136880111
v -0.195268095 0.0391770005 0.0239759814
v -0.194820091 0.0391770005 -0.0273800269
v -0.09053009 0.0090390062 -0.0384280011
v -0.181096032 0.0391770005 -0.0768690109
v -0.0775000751 0.0090390062 -0.0605490096
v -0.0591900609 0.0090390062 -0.0785440058
v -0.0368400551 0.0090390062 -0.0911870152
v -0.0119900508 0.0090390062 -0.097615011
v 0.0136799617 0.0090390062 -0.0973910093
v 0.0384199508 0.0090390062 -0.0905300155
v 0.060549926 0.0090390062 -0.0774990097
v 0.0785399601 0.0090390062 -0.0591870099
v 0.0911799595 0.0090390062 -0.0368420035
v 0.157109901 0.0391770005 -0.118395992
v 0.182399899 0.0391770005 -0.0736970156
v 0.121119916 0.0391770005 -0.155027002
v 0.0768699646 0.0391770005 -0.181092009
v 0.0273799133 0.0391770005 -0.194817007
v -0.0239801016 0.0391770005 -0.19526501
v -0.0737001002 0.0391770005 -0.182406008
v -0.118399046 0.0391770005 -0.157116994
v -0.155030057 0.0391770005 -0.121119991
v 0.0976099372 0.0090390062 -0.011986007
v 0.0973899066 0.0090390062 0.0136869811
v 0.0905299336 0.0090390062 0.0384280011
v 0.194809869 0.0391770005 0.0273799896
v 0.181089938 0.0391770005 0.0768689737
v 0.195260003 0.0391770005 -0.0239760205
v 0.257429957 0.047451999 0.109272994
v 0.276939988 0.047451999 0.0389209725
v 0.220369875 0.047451999 0.172176972
v 0.168299943 0.047451999 0.223347962
v 0.104759902 0.047451999 0.259297967
v 0.0340799689 0.047451999 0.277577013
v -0.0389200598 0.047451999 0.276939958
v -0.109280087 0.047451999 0.257429987
v -0.172180101 0.047451999 0.220376015
v -0.223351061 0.047451999 0.16830498
v -0.259301066 0.047451999 0.104762994
v -0.182410046 0.0391770005 0.0736969709
v -0.277581096 0.047451999 0.0340819918
v -0.276943058 0.047451999 -0.0389210135
v -0.257433087 0.047451999 -0.109272994
v -0.220380098 0.047451999 -0.172177002
v -0.16830802 0.047451999 -0.223348007
v -0.104770049 0.047451999 -0.259298027
v -0.0340900421 0.047451999 -0.277577013
v 0.0389199071 0.047451999 -0.276940018
v 0.109269939 0.047451999 -0.257430017
v 0.172169954 0.047451999 -0.220376998
v 0.22333999 0.047451999 -0.16830501
v 0.25929001 0.047451999 -0.104763031
v 0.27756989 0.047451999 -0.034082029
v -0.0341400914 0.0531900004 -0.278039008
v -0.104940027 0.0531900004 -0.259730011
v -0.168588027 0.0531900004 -0.223720014
v -0.220747069 0.0531900004 -0.172463998
v -0.257862091 0.0531900004 -0.109453999
v -0.2774041 0.0531900004 -0.0389860161
v -0.278042048 0.0531900004 0.034138985
v -0.259733051 0.0531900004 0.10493698
v -0.223723069 0.0531900004 0.168584973
v -0.172467038 0.0531900004 0.220742986
v -0.109460063 0.0531900004 0.257858008
v -0.0389900953 0.0531900004 0.277401
v 0.0341399387 0.0531900004 0.278038979
v 0.104929961 0.0531900004 0.259728968
v 0.168579936 0.0531900004 0.223719969
v 0.220739901 0.0531900004 0.172463983
v 0.257859945 0.0531900004 0.109453999
v 0.277399898 0.0531900004 0.0389859751
v 0.278039992 0.0531900004 -0.0341390222
v 0.259729922 0.0531900004 -0.104938008
v 0.22371994 0.0531900004 -0.168585017
v 0.172459871 0.0531900004 -0.220743001
v 0.109449916 0.0531900004 -0.257859021
v 0.0389799476 0.0531900004 -0.277401
v -7.62939436E-08 0.0292760041 0
v 0.22371994 0.0531900004 -0.168585017
v 0.259729922 0.0531900004 -0.104938008
v 0.172459871 0.0531900004 -0.220743001
v 0.109449916 0.0531900004 -0.257859021
v 0.0389799476 0.0531900004 -0.277401
v -0.0341400914 0.0531900004 -0.278039008
v -0.104940027 0.0531900004 -0.259730011
v -0.168588027 0.0531900004 -0.223720014
v -0.220747069 0.0531900004 -0.172463998
v -0.257862091 0.0531900004 -0.109453999
v -0.2774041 0.0531900004 -0.0389860161
v -0.278042048 0.0531900004 0.034138985
v -0.259733051 0.0531900004 0.10493698
v -0.223723069 0.0531900004 0.168584973
v -0.172467038 0.0531900004 0.220742986
v -0.109460063 0.0531900004 0.257858008
v -0.0389900953 0.0531900004 0.277401
v 0.0341399387 0.0531900004 0.278038979
v 0.104929961 0.0531900004 0.259728968
v 0.168579936 0.0531900004 0.223719969
v 0.220739901 0.0531900004 0.172463983
v 0.257859945 0.0531900004 0.109453999
v 0.277399898 0.0531900004 0.0389859751
v 0.278039992 0.0531900004 -0.0341390222
v 0.34450987 0.0615320019 0.211871982
v 0.339238882 0.0568980016 0.167178005
v 0.31464988 0.0464320034 0.17254898
v 0.236198872 0.0371830016 0.148189992
v 0.235561892 0.0300360005 0.132125959
v 0.325989902 0.050803002 0.12142799
v 0.299228877 0.0428379998 0.0781110004
v 0.254381925 0.033222001 0.0480299741
v 0.170911938 0.0246750023 0.12920399
v 0.176035911 0.0181830022 0.11393398
v 0.115890883 0.00720200036 0.10040199
v 0.190163881 0.0158530045 0.0365359858
v 0.187761918 0.021130003 0.027324982
v 0.127993926 0.00555099966 0.0277509689
v 0.13076888 0.0118200015 0.0189439766
v 0.0985799357 0.000378003111 0.0188069902
v 0.10234993 0.0069500017 0.0118650049
v 0.0342098996 -0.00708300108 -0.0754120201
v 0.0400798805 -0.0120109981 -0.0634279996
v 0.0675598904 0.00400000066 0.0661759898
v 0.073569946 -0.0014090013 0.0640389994
v 0.090939939 0.00246699806 0.0881150067
v 0.0818399042 0.00784400478 0.0972290039
v 0.110729903 0.0136600016 0.116153978
v 0.102899931 0.0149830002 0.011012001
v 0.0339698792 0.00084599969 -0.0759030133
v 0.0339698792 0.00084599969 -0.0759030133
v 0.0673899055 0.0119820023 0.0662260056
v 0.0816699192 0.0157689992 0.0973899812
v 0.130567923 0.0194050018 0.0171769708
v 0.189281911 0.0291460026 0.0240839757
v 0.0816699192 0.0157689992 0.0973899812
v 0.110649943 0.0215810016 0.116379999
v 0.170838922 0.0325989984 0.129424974
v 0.110649943 0.0215810016 0.116379999
v 0.236208871 0.0451180004 0.148416966
v 0.346792907 0.0698659942 0.212354004
v 0.346792907 0.0698659942 0.212354004
v 0.343366921 0.0654279962 0.167515978
v 0.33017692 0.0592860021 0.121695973
v 0.303561926 0.051171001 0.0765139759
v 0.258715898 0.0414780043 0.0443439856
v 0.102899931 0.0149830002 0.011012001
v 0.0673899055 0.0119820023 0.0662260056
v 0.0339698792 0.00084599969 -0.0759030133
v 0.130567923 0.0194050018 0.0171769708
v 0.0816699192 0.0157689992 0.0973899812
v 0.110649943 0.0215810016 0.116379999
v 0.189281911 0.0291460026 0.0240839757
v 0.170838922 0.0325989984 0.129424974
v 0.258715898 0.0414780043 0.0443439856
v 0.236208871 0.0451180004 0.148416966
v 0.303561926 0.051171001 0.0765139759
v 0.33017692 0.0592860021 0.121695973
v 0.346792907 0.0698659942 0.212354004
v 0.343366921 0.0654279962 0.167515978
v -0.344510019 0.0615320019 0.211871982
v -0.314650029 0.0464320034 0.17254898
v -0.339239031 0.0568980016 0.167178005
v -0.236199036 0.0371830016 0.148189992
v -0.235562056 0.0300360005 0.132125959
v -0.325990051 0.050803002 0.12142799
v -0.299229056 0.0428379998 0.0781110004
v -0.254382104 0.033222001 0.0480299741
v -0.170912087 0.0246750023 0.12920399
v -0.176036075 0.0181830022 0.11393398
v -0.115891032 0.00720200036 0.10040199
v -0.19016403 0.0158530045 0.0365359858
v -0.187762067 0.021130003 0.027324982
v -0.127994075 0.00555099966 0.0277509689
v -0.130769044 0.0118200015 0.0189439766
v -0.0985800922 0.000378003111 0.0188069902
v -0.102350079 0.0069500017 0.0118650049
v -0.0342100523 -0.00708300108 -0.0754120201
v -0.0400800332 -0.0120109981 -0.0634279996
v -0.0675600395 0.00400000066 0.0661759898
v -0.073570095 -0.0014090013 0.0640389994
v -0.0909400955 0.00246699806 0.0881150067
v -0.0818400532 0.00784400478 0.0972290039
v -0.110730052 0.0136600016 0.116153978
v -0.10290008 0.0149830002 0.011012001
v -0.0339700319 0.00084599969 -0.0759030133
v -0.0339700319 0.00084599969 -0.0759030133
v -0.0673900619 0.0119820023 0.0662260056
v -0.0816700757 0.0157689992 0.0973899812
v -0.130568087 0.0194050018 0.0171769708
v -0.189282075 0.0291460026 0.0240839757
v -0.258716047 0.0414780043 0.0443439856
v -0.303562075 0.051171001 0.0765139759
v -0.330177069 0.0592860021 0.121695973
v -0.34336707 0.0654279962 0.167515978
v -0.346793056 0.0698659942 0.212354004
v -0.346793056 0.0698659942 0.212354004
v -0.23620902 0.0451180004 0.148416966
v -0.170839071 0.0325989984 0.129424974
v -0.1106501 0.0215810016 0.116379999
v -0.0816700757 0.0157689992 0.0973899812
v -0.1106501 0.0215810016 0.116379999
v -0.10290008 0.0149830002 0.011012001
v -0.0339700319 0.00084599969 -0.0759030133
v -0.0673900619 0.0119820023 0.0662260056
v -0.130568087 0.0194050018 0.0171769708
v -0.0816700757 0.0157689992 0.0973899812
v -0.1106501 0.0215810016 0.116379999
v -0.189282075 0.0291460026 0.0240839757
v -0.170839071 0.0325989984 0.129424974
v -0.258716047 0.0414780043 0.0443439856
v -0.23620902 0.0451180004 0.148416966
v -0.303562075 0.051171001 0.0765139759
v -0.330177069 0.0592860021 0.121695973
v -0.346793056 0.0698659942 0.212354004
v -0.34336707 0.0654279962 0.167515978
v 0.0750799403 0.091625087 0.147989959
v 0.0871799067 0.0410523303 0.138932914
v 0.0842499137 0.0377233326 0.142264903
v 0.0871799067 0.0410523303 0.138932914
v 0.0790799558 0.0917160884 0.143998951
v 0.0801598877 0.120074078 0.139473945
v 0.0719199181 0.137234077 0.094800964
v 0.0549499393 0.117006086 0.11418695
v 0.0738799125 0.132325068 0.0934439674
v 0.0973499119 0.13985908 0.0691249669
v 0.0969598964 0.145271078 0.0688569844
v 0.121829882 0.133419067 0.0454949848
v 0.123079881 0.138401091 0.0436489768
v 0.139979899 0.115685076 0.0295499749
v 0.142919883 0.119014092 0.0262179896
v 0.148089856 0.0907990783 0.0244849715
v 0.15207988 0.0908900797 0.0204940028
v 0.143589869 0.0398473367 0.0320209675
v 0.148289904 0.141469076 0.0689359829
v 0.168129921 0.122082077 0.0515049621
v 0.15207988 0.0908900797 0.0204940028
v 0.146999896 0.0366633348 0.0290099569
v 0.177289844 0.0939580798 0.0457809716
v 0.146999896 0.0366633348 0.0290099569
v 0.122179918 0.148339063 0.0941439644
v 0.0971399471 0.140301079 0.120087966
v 0.146999896 0.0366633348 0.0290099569
v 0.172209844 0.0397313312 0.0542969704
v 0.173299819 0.0938670784 0.0497719832
v 0.177289844 0.0939580798 0.0457809716
v 0.165189937 0.118753091 0.0548369884
v 0.168129921 0.122082077 0.0515049621
v 0.147049904 0.136487082 0.0707809627
v 0.122569934 0.142927065 0.0944109485
v 0.122179918 0.148339063 0.0941439644
v 0.0990999416 0.135393083 0.118729949
v 0.0971399471 0.140301079 0.120087966
v 0.083569929 0.116890088 0.136462927
v 0.0801598877 0.120074078 0.139473945
v 0.0750799403 0.091625087 0.147989959
v 0.0498699136 0.0885570794 0.122702941
v 0.0842499137 0.0377233326 0.142264903
v 0.0590299033 0.0346553326 0.116978951
v 0.0538599305 0.0886480883 0.118711986
v 0.06196988 0.0379843339 0.113646962
v 0.0583499037 0.113822088 0.111176968
v 0.0498699136 0.0885570794 0.122702941
v 0.0790799558 0.0917160884 0.143998951
v 0.06196988 0.0379843339 0.113646962
v 0.0871799067 0.0410523303 0.138932914
v 0.0538599305 0.0886480883 0.118711986
v 0.083569929 0.116890088 0.136462927
v 0.0583499037 0.113822088 0.111176968
v 0.0990999416 0.135393083 0.118729949
v 0.0738799125 0.132325068 0.0934439674
v 0.122569934 0.142927065 0.0944109485
v 0.0973499119 0.13985908 0.0691249669
v 0.147049904 0.136487082 0.0707809627
v 0.121829882 0.133419067 0.0454949848
v 0.165189937 0.118753091 0.0548369884
v 0.139979899 0.115685076 0.0295499749
v 0.173299819 0.0938670784 0.0497719832
v 0.148089856 0.0907990783 0.0244849715
v 0.168809891 0.0429153331 0.0573069565
v 0.143589869 0.0398473367 0.0320209675
v 0.173299819 0.0938670784 0.0497719832
v 0.172209844 0.0397313312 0.0542969704
v 0.168809891 0.0429153331 0.0573069565
v -0.0683000758 0.0621559806 0.00674400292
v -0.0582100675 0.0282430016 -0.00274902326
v -0.0609700754 0.024383001 0.000169982901
v -0.0641700551 0.0623389818 0.00260097487
v -0.0626300573 0.0824899748 0.0002840042
v -0.0722400472 0.0958469734 -0.0413400158
v -0.0879800171 0.0815149769 -0.02504001
v -0.0469000898 0.0968219712 -0.0160160046
v -0.0500400439 0.101907976 -0.0637980103
v -0.0246900879 0.102882974 -0.0384739973
v -0.0274200384 0.0978269726 -0.0862840042
v -0.00207008352 0.0988029614 -0.0609599911
v -0.0105600711 0.0849349797 -0.102660999
v 0.0147899622 0.0859099776 -0.0773369744
v -0.00323005673 0.065174982 -0.109234981
v 0.0221199039 0.0661509782 -0.0839119926
v -0.00890006963 0.0268270001 -0.102775
v 0.0164499655 0.0278030001 -0.0774520114
v -0.0683000758 0.0621559806 0.00674400292
v -0.0936500356 0.0611809753 -0.0185800139
v -0.0609700754 0.024383001 0.000169982901
v -0.0863200352 0.0234080032 -0.0251539983
v -0.00323005673 0.065174982 -0.109234981
v -0.0119800568 0.0304300021 -0.0998350158
v -0.00323005673 0.065174982 -0.109234981
v -0.0073600742 0.0649929792 -0.10509298
v -0.0105600711 0.0849349797 -0.102660999
v -0.0133200809 0.081074968 -0.0997419879
v -0.0274200384 0.0978269726 -0.0862840042
v -0.0285000559 0.0926799774 -0.0849999785
v -0.0498200879 0.0965249613 -0.0638130009
v -0.0722400472 0.0958469734 -0.0413400158
v -0.0707400292 0.0908139721 -0.0426529981
v -0.0879800171 0.0815149769 -0.02504001
v -0.0849000365 0.0779129788 -0.0279799979
v -0.0936500356 0.0611809753 -0.0185800139
v -0.0895200148 0.0613639764 -0.0227230024
v -0.0863200352 0.0234080032 -0.0251539983
v -0.0835500285 0.0272680037 -0.0280730054
v -0.0641700551 0.0623389818 0.00260097487
v -0.0835500285 0.0272680037 -0.0280730054
v -0.0582100675 0.0282430016 -0.00274902326
v -0.0895200148 0.0613639764 -0.0227230024
v -0.0595600791 0.0788879767 -0.00265602116
v -0.0849000365 0.0779129788 -0.0279799979
v -0.0453900807 0.0917899683 -0.0173290223
v -0.0707400292 0.0908139721 -0.0426529981
v -0.0244700573 0.0974999666 -0.0384889878
v -0.0498200879 0.0965249613 -0.0638130009
v -0.00315010059 0.0936549753 -0.0596760064
v -0.0285000559 0.0926799774 -0.0849999785
v 0.0120199583 0.0820499659 -0.0744189993
v -0.0133200809 0.081074968 -0.0997419879
v 0.0179899596 0.065967977 -0.0797690004
v -0.0073600742 0.0649929792 -0.10509298
v 0.013369903 0.0314049982 -0.0745110288
v -0.0119800568 0.0304300021 -0.0998350158
v 0.0164499655 0.0278030001 -0.0774520114
v 0.0179899596 0.065967977 -0.0797690004
v 0.0221199039 0.0661509782 -0.0839119926
v 0.013369903 0.0314049982 -0.0745110288
v 0.0120199583 0.0820499659 -0.0744189993
v 0.0147899622 0.0859099776 -0.0773369744
v -0.00315010059 0.0936549753 -0.0596760064
v -0.0244700573 0.0974999666 -0.0384889878
v -0.0246900879 0.102882974 -0.0384739973
v -0.0453900807 0.0917899683 -0.0173290223
v -0.0469000898 0.0968219712 -0.0160160046
v -0.0595600791 0.0788879767 -0.00265602116
v -0.0626300573 0.0824899748 0.0002840042
v -0.0597700477 0.0405330025 -0.165926009
v -0.0691400915 0.0648410022 -0.155339003
v -0.0662100986 0.068700999 -0.158097014
v -0.0639000684 0.0403500013 -0.161784023
v -0.083790049 0.076444 -0.140065998
v -0.0824800879 0.0815900043 -0.14113003
v -0.104900055 0.0802880004 -0.118673019
v -0.104890056 0.0856700018 -0.118423991
v -0.107870102 0.0828090012 -0.166400999
v -0.0916000381 0.069919005 -0.183366999
v -0.0662100986 0.068700999 -0.158097014
v -0.0851600617 0.041751001 -0.191196024
v -0.130276024 0.0868880078 -0.143695027
v -0.109180063 0.0776629969 -0.165336013
v -0.0945300236 0.0660599992 -0.180609018
v -0.0916000381 0.069919005 -0.183366999
v -0.0892900825 0.0415680036 -0.187053993
v -0.0851600617 0.041751001 -0.191196024
v -0.130287096 0.081505999 -0.143943027
v -0.126026079 0.0745790005 -0.097720027
v -0.127311096 0.079610005 -0.0961860269
v -0.152700037 0.0808279961 -0.121456027
v -0.151415095 0.0757970065 -0.122989997
v -0.127311096 0.079610005 -0.0961860269
v -0.140721053 0.0616800003 -0.0835769996
v -0.143635094 0.0652809963 -0.0804750025
v -0.169025034 0.0664990023 -0.105746001
v -0.166111067 0.0628980026 -0.108847007
v -0.169025034 0.0664990023 -0.105746001
v -0.146063074 0.0367209986 -0.0794129893
v -0.150195077 0.0365380011 -0.0752709955
v -0.174919054 0.0406690016 -0.101067998
v -0.170833051 0.0408340022 -0.105166011
v -0.150195077 0.0365380011 -0.0752709955
v -0.174919054 0.0406690016 -0.101067998
v -0.0639000684 0.0403500013 -0.161784023
v -0.0945300236 0.0660599992 -0.180609018
v -0.0691400915 0.0648410022 -0.155339003
v -0.0892900825 0.0415680036 -0.187053993
v -0.109180063 0.0776629969 -0.165336013
v -0.083790049 0.076444 -0.140065998
v -0.130287096 0.081505999 -0.143943027
v -0.104900055 0.0802880004 -0.118673019
v -0.151415095 0.0757970065 -0.122989997
v -0.126026079 0.0745790005 -0.097720027
v -0.166111067 0.0628980026 -0.108847007
v -0.140721053 0.0616800003 -0.0835769996
v -0.170833051 0.0408340022 -0.105166011
v -0.146063074 0.0367209986 -0.0794129893
vt 0.554696858 0.279690444
vt 0.59114027 0.279883772
vt 0.574892879 0.211196676
vt 0.608579576 0.352463186
vt 0.533753753 0.352058649
vt 0.626474261 0.27547121
vt 0.681195438 0.343315482
vt 0.658209562 0.266608894
vt 0.746406853 0.325089514
vt 0.684224188 0.253996789
vt 0.799691975 0.299194992
vt 0.519642115 0.274746835
vt 0.488361239 0.265458614
vt 0.461469144 0.342004001
vt 0.396918863 0.322930217
vt 0.463014275 0.252471924
vt 0.344675779 0.296238303
vt 0.44517681 0.236718044
vt 0.436329246 0.219184592
vt 0.436947823 0.201111034
vt 0.289799392 0.227766335
vt 0.290954977 0.190535799
vt 0.446827352 0.183700472
vt 0.311300784 0.154735982
vt 0.465624452 0.168196797
vt 0.491872877 0.155660361
vt 0.523660779 0.146863073
vt 0.558977544 0.142532945
vt 0.595321298 0.142803207
vt 0.630225062 0.147799224
vt 0.661402464 0.157027274
vt 0.686614513 0.169987768
vt 0.704206944 0.185726017
vt 0.804413676 0.12656343
vt 0.840602577 0.158827364
vt 0.752570748 0.0999606997
vt 0.688737392 0.0809663534
vt 0.61712271 0.0706769302
vt 0.542369187 0.069950901
vt 0.469810128 0.0789034143
vt 0.404122889 0.0967784971
vt 0.349877685 0.122659273
vt 0.713156044 0.203161255
vt 0.712725341 0.221171513
vt 0.702904701 0.238528967
vt 0.858259022 0.231663302
vt 0.837879658 0.267400742
vt 0.859046519 0.194573775
vt 0.948999226 0.290679514
vt 0.977969766 0.240153715
vt 0.894379437 0.335885227
vt 0.818876505 0.372970045
vt 0.726562679 0.399085045
vt 0.623277485 0.41191864
vt 0.516548634 0.411575317
vt 0.413113534 0.397237599
vt 0.321089178 0.369900703
vt 0.247108176 0.331792176
vt 0.195516691 0.285902649
vt 0.308221728 0.263816476
vt 0.16924876 0.23494482
vt 0.171211004 0.18207255
vt 0.199604332 0.130934224
vt 0.254316598 0.0850534439
vt 0.331550062 0.0485122353
vt 0.425573051 0.0232344605
vt 0.529308558 0.0103998259
vt 0.635444105 0.0114474297
vt 0.736352861 0.0263157859
vt 0.826956689 0.0529599786
vt 0.900275767 0.0907151699
vt 0.95157665 0.136642992
vt 0.978393257 0.187494293
vt 0.528381824 0.00613512099
vt 0.422424167 0.0191791989
vt 0.326537609 0.04507678
vt 0.247452304 0.0823298395
vt 0.191632122 0.129252538
vt 0.162684903 0.181456432
vt 0.16071941 0.235435411
vt 0.187636137 0.287449419
vt 0.240156204 0.334321856
vt 0.315653831 0.373259842
vt 0.40961194 0.401245654
vt 0.515341997 0.415825486
vt 0.624295473 0.416159034
vt 0.729758084 0.403045058
vt 0.8240605 0.376365125
vt 0.901119292 0.33851546
vt 0.956874847 0.292374849
vt 0.98645699 0.240731612
vt 0.986890793 0.186965629
vt 0.959513545 0.135070756
vt 0.907148004 0.0882001519
vt 0.832251072 0.0496459901
vt 0.739743412 0.0224927105
vt 0.636802912 0.00724321604
vt 0.688638151 0.570326328
vt 0.447363675 0.478670835
vt 0.407731742 0.512823701
vt 0.503470361 0.450784326
vt 0.572213233 0.43106389
vt 0.648896277 0.420854986
vt 0.72828126 0.420848578
vt 0.804952681 0.43104136
vt 0.873678625 0.450734735
vt 0.929777563 0.478583097
vt 0.969427943 0.512683928
vt 0.989931107 0.55071032
vt 0.989897251 0.590070367
vt 0.969335079 0.62808013
vt 0.929648578 0.662152648
vt 0.873549223 0.689966619
vt 0.804860651 0.709629834
vt 0.728261888 0.719805837
vt 0.648972213 0.719802737
vt 0.57238853 0.709624052
vt 0.503722847 0.689965665
vt 0.447647065 0.66216588
vt 0.407973349 0.62811774
vt 0.387396932 0.590140462
vt 0.387316644 0.55081749
vt 0.352139741 0.786557555
vt 0.40076229 0.763664901
vt 0.426330596 0.778573155
vt 0.541127205 0.802625656
vt 0.558469892 0.792626321
vt 0.458959609 0.744660616
vt 0.528597951 0.732719958
vt 0.606618762 0.733765483
vt 0.64113903 0.817824841
vt 0.648786604 0.805654705
vt 0.733672917 0.818918645
vt 0.69520092 0.753267407
vt 0.70483011 0.747076929
vt 0.780158341 0.771612227
vt 0.783435106 0.763781667
vt 0.823981464 0.778948963
vt 0.82592082 0.771340132
vt 0.983005106 0.772084832
vt 0.954297006 0.775991857
vt 0.814668894 0.822336674
vt 0.810367584 0.816998363
vt 0.771561801 0.821597934
vt 0.772351027 0.830501735
vt 0.726703167 0.830718815
vt 0.826423526 0.765450418
vt 0.98252207 0.766713798
vt 0.988548934 0.776733518
vt 0.818535745 0.827567637
vt 0.772753596 0.835967541
vt 0.786708713 0.758298755
vt 0.706065059 0.740751624
vt 0.772753596 0.835967541
vt 0.72321099 0.835962892
vt 0.635858476 0.822969317
vt 0.72321099 0.835962892
vt 0.536125541 0.808030427
vt 0.344641536 0.791778982
vt 0.341637492 0.782812178
vt 0.389797807 0.75932318
vt 0.449106425 0.739815652
vt 0.522092223 0.726653278
vt 0.603310347 0.726722717
vt 0.111923821 0.371716022
vt 0.076402545 0.402305067
vt 0.0313123576 0.32688868
vt 0.142555013 0.37428838
vt 0.0939453468 0.418661833
vt 0.126885802 0.428098768
vt 0.207285121 0.376443058
vt 0.193738446 0.433530331
vt 0.284611851 0.385490894
vt 0.266697288 0.442032427
vt 0.33586055 0.401605517
vt 0.368065 0.425212026
vt 0.392431527 0.473562866
vt 0.385633618 0.449523032
vt 0.352139741 0.786557555
vt 0.426330596 0.778573155
vt 0.40076229 0.763664901
vt 0.541127205 0.802625656
vt 0.558469892 0.792626321
vt 0.458959609 0.744660616
vt 0.528597951 0.732719958
vt 0.606618762 0.733765483
vt 0.64113903 0.817824841
vt 0.648786604 0.805654705
vt 0.733672917 0.818918645
vt 0.69520092 0.753267407
vt 0.70483011 0.747076929
vt 0.780158341 0.771612227
vt 0.783435106 0.763781667
vt 0.823981464 0.778948963
vt 0.82592082 0.771340132
vt 0.983005106 0.772084832
vt 0.954297006 0.775991857
vt 0.814668894 0.822336674
vt 0.810367584 0.816998363
vt 0.771561801 0.821597934
vt 0.772351027 0.830501735
vt 0.726703167 0.830718815
vt 0.826423526 0.765450418
vt 0.98252207 0.766713798
vt 0.988548934 0.776733518
vt 0.818535745 0.827567637
vt 0.772753596 0.835967541
vt 0.786708713 0.758298755
vt 0.706065059 0.740751624
vt 0.603310347 0.726722717
vt 0.522092223 0.726653278
vt 0.449106425 0.739815652
vt 0.389797807 0.75932318
vt 0.341637492 0.782812178
vt 0.344641536 0.791778982
vt 0.536125541 0.808030427
vt 0.635858476 0.822969317
vt 0.72321099 0.835962892
vt 0.772753596 0.835967541
vt 0.72321099 0.835962892
vt 0.111923821 0.371716022
vt 0.0313123576 0.32688868
vt 0.076402545 0.402305067
vt 0.142555013 0.37428838
vt 0.0939453468 0.418661833
vt 0.126885802 0.428098768
vt 0.207285121 0.376443058
vt 0.193738446 0.433530331
vt 0.284611851 0.385490894
vt 0.266697288 0.442032427
vt 0.33586055 0.401605517
vt 0.368065 0.425212026
vt 0.392431527 0.473562866
vt 0.385633618 0.449523032
vt 0.368382245 0.9672876
vt 0.355100632 0.988826573
vt 0.363616228 0.990601838
vt 0.355100632 0.988826573
vt 0.359915316 0.966946423
vt 0.368347645 0.946697533
vt 0.415987253 0.924441159
vt 0.415262699 0.946090758
vt 0.423516631 0.924585879
vt 0.423911631 0.900198042
vt 0.416591406 0.900120556
vt 0.424039692 0.875291407
vt 0.4162274 0.875246346
vt 0.424723387 0.852703393
vt 0.416539997 0.852560103
vt 0.42704466 0.831284344
vt 0.417875648 0.830778658
vt 0.433508098 0.807498515
vt 0.366364449 0.875473082
vt 0.366785288 0.852793276
vt 0.417875648 0.830778658
vt 0.424324304 0.805447638
vt 0.366245389 0.830635846
vt 0.424324304 0.805447638
vt 0.367199272 0.900184691
vt 0.367554396 0.924830735
vt 0.424324304 0.805447638
vt 0.35732159 0.806805909
vt 0.357252985 0.831186593
vt 0.366245389 0.830635846
vt 0.358545154 0.852861226
vt 0.366785288 0.852793276
vt 0.358580709 0.875535309
vt 0.359836251 0.90028888
vt 0.367199272 0.900184691
vt 0.359933585 0.924974501
vt 0.367554396 0.924830735
vt 0.360567778 0.946858704
vt 0.368347645 0.946697533
vt 0.368382245 0.9672876
vt 0.416458309 0.966757596
vt 0.363616228 0.990601838
vt 0.425845593 0.988601506
vt 0.424670786 0.966168225
vt 0.433508098 0.986518919
vt 0.422995597 0.946190178
vt 0.416458309 0.966757596
vt 0.494816482 0.970080554
vt 0.443069696 0.989175975
vt 0.494815052 0.989175975
vt 0.443069696 0.970080554
vt 0.494816482 0.950985134
vt 0.443071127 0.950985134
vt 0.494816482 0.929520547
vt 0.443071127 0.929520547
vt 0.494816482 0.904717386
vt 0.443071127 0.904717386
vt 0.494816482 0.879913747
vt 0.443071127 0.879913747
vt 0.494816482 0.858449876
vt 0.443069696 0.858449161
vt 0.494816482 0.839354694
vt 0.443069696 0.83935374
vt 0.494816482 0.820259035
vt 0.443071127 0.820258319
vt 0.357252985 0.831186593
vt 0.35732159 0.806805909
vt 0.348875791 0.808954537
vt 0.517517328 0.972602069
vt 0.501582086 0.985840261
vt 0.509186685 0.988238752
vt 0.509121299 0.971925437
vt 0.517541409 0.957730949
vt 0.565570235 0.939348161
vt 0.56374222 0.957093179
vt 0.51597625 0.93957907
vt 0.566707194 0.917514145
vt 0.51552552 0.91736263
vt 0.566404462 0.895274818
vt 0.515543282 0.89505285
vt 0.565297782 0.876572073
vt 0.516576469 0.876462281
vt 0.566583216 0.860930622
vt 0.517548084 0.86063832
vt 0.576974452 0.844303071
vt 0.511038661 0.841846168
vt 0.517517328 0.972602069
vt 0.563535154 0.971911371
vt 0.509186685 0.988238752
vt 0.57090956 0.988940418
vt 0.566583216 0.860930622
vt 0.584932268 0.847055614
vt 0.566583216 0.860930622
vt 0.575542927 0.861850202
vt 0.565297782 0.876572073
vt 0.573525608 0.876636803
vt 0.566404462 0.895274818
vt 0.574330986 0.895241678
vt 0.574249804 0.917602956
vt 0.565570235 0.939348161
vt 0.573233902 0.939571798
vt 0.56374222 0.957093179
vt 0.571544826 0.957341135
vt 0.563535154 0.971911371
vt 0.572243512 0.971290529
vt 0.57090956 0.988940418
vt 0.579322875 0.986490428
vt 0.642733455 0.975085318
vt 0.590988576 0.987954557
vt 0.642733455 0.987955511
vt 0.590986609 0.975084484
vt 0.642733455 0.96221596
vt 0.590988576 0.962215126
vt 0.642733455 0.94492954
vt 0.590988576 0.94492954
vt 0.642733455 0.923227251
vt 0.590988576 0.923227251
vt 0.642733455 0.901523888
vt 0.590986609 0.901523888
vt 0.642732024 0.884238422
vt 0.590988576 0.884239137
vt 0.642733455 0.871369064
vt 0.590988576 0.871369064
vt 0.642733455 0.858498871
vt 0.590986609 0.858498871
vt 0.511038661 0.841846168
vt 0.507939637 0.861174762
vt 0.517548084 0.86063832
vt 0.501582086 0.844341934
vt 0.508287072 0.876406848
vt 0.516576469 0.876462281
vt 0.507603765 0.895033777
vt 0.5078969 0.917428195
vt 0.51552552 0.91736263
vt 0.508154929 0.939766347
vt 0.51597625 0.93957907
vt 0.509659529 0.957983673
vt 0.517541409 0.957730949
vt 0.658963919 0.864806473
vt 0.660482883 0.887365401
vt 0.668780446 0.88710624
vt 0.650784075 0.867173254
vt 0.660411298 0.9059425
vt 0.668323457 0.90592128
vt 0.660907686 0.92821151
vt 0.66845417 0.928105652
vt 0.718594015 0.905458987
vt 0.717192769 0.886674941
vt 0.668780446 0.88710624
vt 0.722242296 0.862588704
vt 0.719041407 0.927586615
vt 0.726528764 0.905417264
vt 0.725764215 0.886681378
vt 0.717192769 0.886674941
vt 0.731486976 0.864649355
vt 0.722242296 0.862588704
vt 0.726581097 0.927632153
vt 0.661888957 0.9502514
vt 0.669556022 0.950012743
vt 0.7186113 0.949513257
vt 0.726426899 0.949650824
vt 0.669556022 0.950012743
vt 0.663796246 0.968001187
vt 0.671649754 0.967869341
vt 0.717662752 0.967867672
vt 0.725828111 0.96802026
vt 0.717662752 0.967867672
vt 0.656363666 0.987062037
vt 0.664197505 0.989111006
vt 0.723103464 0.988001168
vt 0.731486976 0.986011326
vt 0.664197505 0.989111006
vt 0.723103464 0.988001168
vt 0.79519701 0.873550951
vt 0.743450224 0.892075837
vt 0.79519701 0.89207536
vt 0.743450224 0.873550951
vt 0.743450224 0.909360707
vt 0.79519701 0.909360707
vt 0.743450224 0.931063712
vt 0.79519558 0.931063712
vt 0.743450224 0.952766001
vt 0.79519701 0.95276624
vt 0.743450224 0.970051825
vt 0.79519701 0.970051587
vt 0.743450224 0.986427605
vt 0.79519701 0.988575995
vn -0.0280344654 -0.979501903 0.199474409
vn 0.0245452337 -0.979501903 0.199933976
vn 2.37242443E-06 -1 -6.33468744E-07
vn 0.0230493061 -0.981953382 0.187713444
vn -0.0263204239 -0.981953263 0.187283143
vn 0.0754652172 -0.979500949 0.186769754
vn 0.070845902 -0.981952846 0.175355196
vn 0.121220097 -0.979502916 0.160872087
vn 0.11381752 -0.981953502 0.151039049
vn 0.158728108 -0.97949928 0.124042802
vn 0.149031579 -0.981952012 0.116446279
vn -0.0787123367 -0.979501426 0.185421616
vn -0.124002367 -0.979503274 0.158734724
vn -0.0738953501 -0.981953204 0.174090192
vn -0.116431892 -0.981953502 0.14903301
vn -0.160874143 -0.979501188 0.121230304
vn -0.151042163 -0.981952965 0.113818184
vn -0.186763033 -0.979502797 0.0754579827
vn -0.199943513 -0.979500413 0.0245292485
vn -0.199464723 -0.979503632 -0.0280475374
vn -0.187713757 -0.981953382 0.0230451878
vn -0.18727906 -0.981954098 -0.0263189562
vn -0.185418755 -0.979502916 -0.0787012801
vn -0.174086004 -0.981954098 -0.0738940835
vn -0.158731997 -0.979503036 -0.124007799
vn -0.121224135 -0.979501784 -0.160875276
vn -0.0754563287 -0.979502797 -0.1867636
vn -0.024553204 -0.979501903 -0.199932814
vn 0.028032599 -0.979502261 -0.199473277
vn 0.0786874294 -0.979503751 -0.185420871
vn 0.12402083 -0.979500949 -0.158734441
vn 0.160888702 -0.979501307 -0.121210665
vn 0.186766177 -0.979502022 -0.0754601061
vn 0.151050434 -0.98195225 -0.113813072
vn 0.175352842 -0.981952965 -0.0708506927
vn 0.11644125 -0.98195374 -0.149024621
vn 0.0738963187 -0.981953382 -0.174088836
vn 0.0263214633 -0.981953502 -0.187281683
vn -0.0230493974 -0.981953263 -0.187713549
vn -0.070847027 -0.981953621 -0.175350621
vn -0.113815233 -0.98195374 -0.151039734
vn -0.149029836 -0.98195374 -0.116434626
vn 0.199928448 -0.97950238 -0.0245709717
vn 0.199483618 -0.979500532 0.0280185062
vn 0.185429662 -0.979500771 0.0787024647
vn 0.187292919 -0.981951475 0.0263176747
vn 0.174088284 -0.981953621 0.0738939717
vn 0.187716082 -0.981952846 -0.0230493899
vn 0.6791991 -0.674944639 0.288337082
vn 0.730792165 -0.674829245 0.102705121
vn 0.581337929 -0.675072968 0.454227656
vn 0.444088012 -0.674897671 0.589320779
vn 0.276502609 -0.674751222 0.684293211
vn 0.0899072066 -0.674905479 0.732406557
vn -0.102627426 -0.674942136 0.730698764
vn -0.288381845 -0.674809456 0.679314435
vn -0.454295784 -0.674911678 0.58147198
vn -0.589322865 -0.674894154 0.444090486
vn -0.684173346 -0.674901843 0.276431501
vn -0.175352141 -0.981953263 0.070847474
vn -0.732480824 -0.674822271 0.0899262354
vn -0.730733335 -0.674894691 -0.10269364
vn -0.6792503 -0.674895525 -0.288331509
vn -0.581475377 -0.674910963 -0.454292297
vn -0.444093645 -0.674897671 -0.589316487
vn -0.276495457 -0.674807012 -0.684241056
vn -0.0899967477 -0.674835801 -0.732459664
vn 0.10275016 -0.674846232 -0.730770111
vn 0.288358122 -0.674865782 -0.679268539
vn 0.454239547 -0.674975455 -0.5814417
vn 0.588995159 -0.675294459 -0.443916649
vn 0.683746636 -0.675395131 -0.276282459
vn 0.731937289 -0.675413311 -0.0899145827
vn -0.0894718692 0.678266346 -0.72934866
vn -0.275211722 0.678292274 -0.681306183
vn -0.442259222 0.678207457 -0.586891413
vn -0.579101145 0.678186655 -0.452443063
vn -0.676461458 0.678203106 -0.287124455
vn -0.727721035 0.678204954 -0.102274202
vn -0.729331434 0.678274989 0.0895472094
vn -0.681367815 0.678199947 0.275286555
vn -0.586898088 0.678203583 0.442256242
vn -0.452442795 0.678192317 0.579094827
vn -0.287105262 0.67828244 0.676389992
vn -0.102324516 0.678163886 0.727752328
vn 0.0896088108 0.67818737 0.729405344
vn 0.275186807 0.67835331 0.681255519
vn 0.442252815 0.678207219 0.58689642
vn 0.579209447 0.678043664 0.452518553
vn 0.676513791 0.678133845 0.287164629
vn 0.727650702 0.678280056 0.102277555
vn 0.729841352 0.677713513 -0.089643687
vn 0.681792259 0.677713156 -0.275434434
vn 0.58721894 0.677800775 -0.442447811
vn 0.452511579 0.678123295 -0.579121828
vn 0.287113607 0.678225219 -0.676443934
vn 0.102216214 0.678251624 -0.72768575
vn -6.38181859E-07 1 0
vn 0.58721894 0.677800775 -0.442447811
vn 0.681792259 0.677713156 -0.275434434
vn 0.452511579 0.678123295 -0.579121828
vn 0.287113607 0.678225219 -0.676443934
vn 0.102216214 0.678251624 -0.72768575
vn -0.0894718692 0.678266346 -0.72934866
vn -0.275211722 0.678292274 -0.681306183
vn -0.442259222 0.678207457 -0.586891413
vn -0.579101145 0.678186655 -0.452443063
vn -0.676461458 0.678203106 -0.287124455
vn -0.727721035 0.678204954 -0.102274202
vn -0.729331434 0.678274989 0.0895472094
vn -0.681367815 0.678199947 0.275286555
vn -0.586898088 0.678203583 0.442256242
vn -0.452442795 0.678192317 0.579094827
vn -0.287105262 0.67828244 0.676389992
vn -0.102324516 0.678163886 0.727752328
vn 0.0896088108 0.67818737 0.729405344
vn 0.275186807 0.67835331 0.681255519
vn 0.442252815 0.678207219 0.58689642
vn 0.579209447 0.678043664 0.452518553
vn 0.676513791 0.678133845 0.287164629
vn 0.727650702 0.678280056 0.102277555
vn 0.729841352 0.677713513 -0.089643687
vn 0.383574128 -0.508061409 0.771196783
vn 0.705622435 -0.706275582 -0.0571995676
vn 0.19244881 -0.967453241 0.164309472
vn -0.208960488 -0.584734201 0.783850431
vn 0.131222263 -0.969188213 0.208458677
vn 0.635364115 -0.745662868 -0.20074667
vn 0.522443652 -0.777359247 -0.350378633
vn 0.375515848 -0.81882298 -0.434185237
vn -0.0996285602 -0.566438317 0.818059742
vn 0.121916033 -0.964335978 0.234931394
vn 0.0820323229 -0.967192531 0.240435526
vn 0.242089361 -0.936127961 -0.255063087
vn 0.259869516 -0.626617491 -0.73472327
vn 0.214775026 -0.950114787 -0.226171821
vn 0.249208242 -0.566668451 -0.785354793
vn 0.289852679 -0.941753507 -0.170545518
vn 0.536878705 -0.515833676 -0.66759038
vn -0.371033013 -0.507653117 -0.777574897
vn -0.053151913 -0.956712008 -0.286141574
vn -0.823742807 -0.437667221 0.360409796
vn -0.254766017 -0.938635588 0.232502475
vn -0.043365486 -0.968797803 0.244029179
vn -0.588346303 -0.537330151 0.604255795
vn -0.241503298 -0.548314691 0.800641716
vn 0.22741735 0.755609095 -0.614277005
vn -0.387797326 0.463121146 -0.79695183
vn -0.387797326 0.463121146 -0.79695183
vn -0.754689574 0.624512792 0.201065794
vn -0.64992857 0.598249853 0.46871084
vn 0.0351783484 0.621948898 -0.782267213
vn 0.104233108 0.509846091 -0.853927672
vn -0.64992857 0.598249853 0.46871084
vn -0.383084059 0.644033551 0.662168622
vn -0.296600699 0.700280845 0.649334073
vn -0.383084059 0.644033551 0.662168622
vn -0.401956528 0.712299705 0.57537818
vn 0.509382546 0.555840194 0.656940699
vn 0.509382546 0.555840194 0.656940699
vn 0.797947407 0.569181204 -0.198274493
vn 0.735356033 0.55719763 -0.385722905
vn 0.603791118 0.49256897 -0.626747251
vn 0.359678864 0.434221029 -0.825883389
vn 0.22741735 0.755609095 -0.614277005
vn -0.754689574 0.624512792 0.201065794
vn -0.387797326 0.463121146 -0.79695183
vn 0.0351783484 0.621948898 -0.782267213
vn -0.64992857 0.598249853 0.46871084
vn -0.383084059 0.644033551 0.662168622
vn 0.104233108 0.509846091 -0.853927672
vn -0.296600699 0.700280845 0.649334073
vn 0.359678864 0.434221029 -0.825883389
vn -0.401956528 0.712299705 0.57537818
vn 0.603791118 0.49256897 -0.626747251
vn 0.735356033 0.55719763 -0.385722905
vn 0.509382546 0.555840194 0.656940699
vn 0.797947407 0.569181204 -0.198274493
vn -0.383574128 -0.508061409 0.771196783
vn -0.19244881 -0.967453241 0.164309472
vn -0.705622435 -0.706275582 -0.0571995676
vn 0.208960518 -0.584734201 0.783850431
vn -0.131222308 -0.969188213 0.208458722
vn -0.635364115 -0.745662868 -0.20074667
vn -0.522443712 -0.777359247 -0.350378633
vn -0.375515878 -0.81882298 -0.434185237
vn 0.0996285602 -0.566438317 0.818059742
vn -0.121916033 -0.964335978 0.234931394
vn -0.0820323229 -0.967192531 0.240435526
vn -0.242089376 -0.936127961 -0.255063117
vn -0.259869516 -0.626617491 -0.73472327
vn -0.214775026 -0.950114787 -0.226171821
vn -0.249208242 -0.566668451 -0.785354793
vn -0.289852679 -0.941753507 -0.170545503
vn -0.536878705 -0.515833735 -0.66759032
vn 0.371032894 -0.507653117 -0.777574956
vn 0.0531519018 -0.956712008 -0.286141604
vn 0.823742807 -0.437667221 0.360409796
vn 0.254766017 -0.938635588 0.232502475
vn 0.0433655009 -0.968797803 0.244029179
vn 0.588346303 -0.537330151 0.604255795
vn 0.241503358 -0.54831481 0.800641716
vn -0.22741735 0.755609095 -0.614277005
vn 0.387797326 0.463121086 -0.79695183
vn 0.387797326 0.463121086 -0.79695183
vn 0.754689574 0.624512792 0.201065794
vn 0.64992857 0.598249853 0.46871084
vn -0.0351783484 0.621948898 -0.782267213
vn -0.104233108 0.509846091 -0.853927672
vn -0.359678864 0.43422097 -0.825883389
vn -0.603791058 0.492569 -0.626747251
vn -0.735356033 0.55719775 -0.385722965
vn -0.797947407 0.569181204 -0.198274493
vn -0.509382546 0.555840194 0.656940699
vn -0.509382546 0.555840194 0.656940699
vn 0.401956528 0.712299705 0.57537818
vn 0.296600729 0.700280845 0.649334073
vn 0.383084118 0.644033611 0.662168622
vn 0.64992857 0.598249853 0.46871084
vn 0.383084118 0.644033611 0.662168622
vn -0.22741735 0.755609095 -0.614277005
vn 0.387797326 0.463121086 -0.79695183
vn 0.754689574 0.624512792 0.201065794
vn -0.0351783484 0.621948898 -0.782267213
vn 0.64992857 0.598249853 0.46871084
vn 0.383084118 0.644033611 0.662168622
vn -0.104233108 0.509846091 -0.853927672
vn 0.296600729 0.700280845 0.649334073
vn -0.359678864 0.43422097 -0.825883389
vn 0.401956528 0.712299705 0.57537818
vn -0.603791058 0.492569 -0.626747251
vn -0.735356033 0.55719775 -0.385722965
vn -0.509382546 0.555840194 0.656940699
vn -0.797947407 0.569181204 -0.198274493
vn -0.0706996396 0.0933903456 0.993116319
vn 0.983661115 0.149561986 0.10020946
vn -0.149831757 -0.129524902 0.980190694
vn 0.983661115 0.149561986 0.10020946
vn 0.994820476 0.00284365984 0.101607442
vn -0.0114737907 0.492344201 0.87032485
vn -0.73417294 0.618954897 -0.279078603
vn -0.923369527 0.381374538 -0.0440706573
vn -0.302200556 -0.649124503 -0.6980775
vn -0.484513432 -0.717165768 -0.500919044
vn -0.521055877 0.687820852 -0.505374491
vn -0.683276594 -0.657539487 -0.317450494
vn -0.293046713 0.62930119 -0.719794095
vn -0.879667401 -0.44383508 -0.170866981
vn -0.0529851429 0.401239038 -0.914439619
vn -0.990408659 -0.108783744 -0.0851863697
vn 0.0772883296 0.0254622996 -0.996683538
vn -0.984527469 0.0603752211 -0.164500698
vn 0.635751247 0.742284715 0.211739689
vn 0.858964145 0.512035429 0.000405341532
vn 0.0772883296 0.0254622996 -0.996683538
vn 0.158892453 -0.167681143 -0.972952306
vn 0.991129518 0.112962671 -0.0700113028
vn 0.158892453 -0.167681143 -0.972952306
vn 0.413611263 0.801506996 0.431870759
vn 0.195022523 0.732130408 0.652649462
vn 0.158892453 -0.167681143 -0.972952306
vn 0.982608199 -0.11628101 -0.144774884
vn 0.103169031 -0.0113742631 0.994598746
vn 0.991129518 0.112962671 -0.0700113028
vn 0.213607565 -0.311127841 0.926051438
vn 0.858964145 0.512035429 0.000405341532
vn 0.387313634 -0.527244627 0.756307602
vn 0.578724742 -0.587822676 0.565280616
vn 0.413611263 0.801506996 0.431870759
vn 0.768157959 -0.518771231 0.375246525
vn 0.195022523 0.732130408 0.652649462
vn 0.933009386 -0.294275194 0.20711267
vn -0.0114737907 0.492344201 0.87032485
vn -0.0706996396 0.0933903456 0.993116319
vn -0.997179627 0.0058161309 0.074826397
vn -0.149831757 -0.129524902 0.980190694
vn -0.970273912 -0.180478975 0.161232039
vn -0.0801137611 -0.0943684205 -0.992308617
vn -0.169694871 0.071058169 -0.982931554
vn -0.161005482 -0.427262336 -0.889676452
vn -0.997179627 0.0058161309 0.074826397
vn 0.994820476 0.00284365984 0.101607442
vn -0.169694871 0.071058169 -0.982931554
vn 0.983661115 0.149561986 0.10020946
vn -0.0801137611 -0.0943684205 -0.992308617
vn 0.933009386 -0.294275194 0.20711267
vn -0.161005482 -0.427262336 -0.889676452
vn 0.768157959 -0.518771231 0.375246525
vn -0.302200556 -0.649124503 -0.6980775
vn 0.578724742 -0.587822676 0.565280616
vn -0.484513432 -0.717165768 -0.500919044
vn 0.387313634 -0.527244627 0.756307602
vn -0.683276594 -0.657539487 -0.317450494
vn 0.213607565 -0.311127841 0.926051438
vn -0.879667401 -0.44383508 -0.170866981
vn 0.103169031 -0.0113742631 0.994598746
vn -0.990408659 -0.108783744 -0.0851863697
vn 0.0930991992 0.13768208 0.986091316
vn -0.984527469 0.0603752211 -0.164500698
vn 0.103169031 -0.0113742631 0.994598746
vn 0.982608199 -0.11628101 -0.144774884
vn 0.0930991992 0.13768208 0.986091316
vn -0.0857092515 0.0689730346 0.993929863
vn 0.97847259 0.150144145 0.141591311
vn -0.167274863 -0.200463817 0.965315163
vn 0.992204666 -0.0368481316 0.119046956
vn 0.0354754739 0.510921955 0.858894765
vn -0.67894882 0.67413187 -0.290817618
vn -0.877934337 0.475780338 -0.0535198078
vn 0.264693081 0.710360229 0.652170181
vn -0.506576777 0.720533848 -0.473509133
vn 0.445670813 0.757012665 0.477817237
vn -0.32302177 0.689424813 -0.648344338
vn 0.621112764 0.726154983 0.294818223
vn -0.0777801946 0.51107192 -0.856011569
vn 0.835694015 0.546292365 0.0563924946
vn 0.0879543573 0.0790535957 -0.992982626
vn 0.9903391 0.106655546 -0.0886176899
vn 0.167260602 -0.187773719 -0.967866123
vn 0.971732378 -0.171805516 -0.161922604
vn -0.0857092515 0.0689730346 0.993929863
vn -0.99515754 0.0414430797 0.089127928
vn -0.167274863 -0.200463817 0.965315163
vn -0.96041882 -0.216184169 0.17567037
vn 0.0879543573 0.0790535957 -0.992982626
vn -0.98193258 0.106150977 -0.156653017
vn 0.0879543573 0.0790535957 -0.992982626
vn -0.988029659 -0.0958067104 -0.120906524
vn -0.0777801946 0.51107192 -0.856011569
vn -0.862339973 -0.453939289 -0.224296227
vn -0.32302177 0.689424813 -0.648344338
vn -0.663516819 -0.647789657 -0.374317974
vn -0.498945147 -0.687258482 -0.527948499
vn -0.67894882 0.67413187 -0.290817618
vn -0.348211676 -0.633321941 -0.691123784
vn -0.877934337 0.475780338 -0.0535198078
vn -0.207437232 -0.425040454 -0.881084859
vn -0.99515754 0.0414430797 0.089127928
vn -0.114507176 -0.068027921 -0.991090417
vn -0.96041882 -0.216184169 0.17567037
vn -0.168916032 0.123795599 -0.977825224
vn 0.992204666 -0.0368481316 0.119046956
vn -0.168916032 0.123795599 -0.977825224
vn 0.97847259 0.150144145 0.141591311
vn -0.114507176 -0.068027921 -0.991090417
vn 0.896944702 -0.382346064 0.222039655
vn -0.207437232 -0.425040454 -0.881084859
vn 0.714891315 -0.592515767 0.371288925
vn -0.348211676 -0.633321941 -0.691123784
vn 0.5539428 -0.647003591 0.523959696
vn -0.498945147 -0.687258482 -0.527948499
vn 0.399424195 -0.606355071 0.687600136
vn -0.663516819 -0.647789657 -0.374317974
vn 0.242036328 -0.411464483 0.878701031
vn -0.862339973 -0.453939289 -0.224296227
vn 0.129635021 -0.064277336 0.989476204
vn -0.988029659 -0.0958067104 -0.120906524
vn 0.132474646 0.131740198 0.98239249
vn -0.98193258 0.106150977 -0.156653017
vn 0.971732378 -0.171805516 -0.161922604
vn 0.129635021 -0.064277336 0.989476204
vn 0.9903391 0.106655546 -0.0886176899
vn 0.132474646 0.131740198 0.98239249
vn 0.242036328 -0.411464483 0.878701031
vn 0.835694015 0.546292365 0.0563924946
vn 0.399424195 -0.606355071 0.687600136
vn 0.5539428 -0.647003591 0.523959696
vn 0.445670813 0.757012665 0.477817237
vn 0.714891315 -0.592515767 0.371288925
vn 0.264693081 0.710360229 0.652170181
vn 0.896944702 -0.382346064 0.222039655
vn 0.0354754739 0.510921955 0.858894765
vn 0.967534006 0.241729274 -0.0737895817
vn 0.231054783 -0.413148582 0.880864263
vn 0.87651068 0.479405582 0.0435814671
vn 0.106264941 -0.231723398 0.966960192
vn 0.373022556 -0.652728081 0.659393847
vn 0.652484059 0.684822917 0.324472338
vn 0.525906861 -0.692311406 0.494091868
vn 0.478372604 0.715783894 0.50873667
vn -0.2930834 0.73043853 -0.616896808
vn -0.0235333331 0.522548616 -0.852284729
vn 0.87651068 0.479405582 0.0435814671
vn 0.081760712 0.284201622 -0.955272079
vn -0.475401908 0.761492431 -0.440593243
vn -0.691449463 -0.601288617 -0.400436848
vn -0.900503516 -0.358970344 -0.245425776
vn -0.0235333331 0.522548616 -0.852284729
vn -0.977381229 -0.179778084 -0.111381419
vn 0.081760712 0.284201622 -0.955272079
vn -0.528699875 -0.641730905 -0.555569947
vn 0.688908517 -0.638568938 0.342979252
vn 0.296169311 0.669225097 0.681484818
vn -0.649507165 0.714627385 -0.259707749
vn -0.375816822 -0.587469816 -0.716687441
vn 0.296169311 0.669225097 0.681484818
vn 0.89899987 -0.383715749 0.211095855
vn 0.0255709328 0.441779047 0.896759331
vn -0.874534667 0.484962255 0.000888551876
vn -0.23255755 -0.329418421 -0.915095866
vn -0.874534667 0.484962255 0.000888551876
vn 0.974637687 -0.18850176 0.120617129
vn -0.0545782112 0.189940989 0.98027724
vn -0.962994993 0.241444334 0.119771339
vn -0.0813502744 -0.147053346 -0.985777676
vn -0.0545782112 0.189940989 0.98027724
vn -0.962994993 0.241444334 0.119771339
vn 0.106264941 -0.231723398 0.966960192
vn -0.900503516 -0.358970344 -0.245425776
vn 0.231054783 -0.413148582 0.880864263
vn -0.977381229 -0.179778084 -0.111381419
vn -0.691449463 -0.601288617 -0.400436848
vn 0.373022556 -0.652728081 0.659393847
vn -0.528699875 -0.641730905 -0.555569947
vn 0.525906861 -0.692311406 0.494091868
vn -0.375816822 -0.587469816 -0.716687441
vn 0.688908517 -0.638568938 0.342979252
vn -0.23255755 -0.329418421 -0.915095866
vn 0.89899987 -0.383715749 0.211095855
vn -0.0813502744 -0.147053346 -0.985777676
vn 0.974637687 -0.18850176 0.120617129
g t_a1_shield001_0
f 3/3/3 2/2/2 1/1/1
f 2/2/2 4/4/4 1/1/1
f 5/5/5 1/1/1 4/4/4
f 3/3/3 6/6/6 2/2/2
f 6/6/6 7/7/7 2/2/2
f 4/4/4 2/2/2 7/7/7
f 3/3/3 8/8/8 6/6/6
f 8/8/8 9/9/9 6/6/6
f 7/7/7 6/6/6 9/9/9
f 3/3/3 10/10/10 8/8/8
f 10/10/10 11/11/11 8/8/8
f 9/9/9 8/8/8 11/11/11
f 3/3/3 1/1/1 12/12/12
f 1/1/1 5/5/5 12/12/12
f 3/3/3 12/12/12 13/13/13
f 12/12/12 14/14/14 13/13/13
f 14/14/14 12/12/12 5/5/5
f 15/15/15 13/13/13 14/14/14
f 3/3/3 13/13/13 16/16/16
f 13/13/13 15/15/15 16/16/16
f 17/17/17 16/16/16 15/15/15
f 3/3/3 16/16/16 18/18/18
f 16/16/16 17/17/17 18/18/18
f 3/3/3 18/18/18 19/19/19
f 3/3/3 19/19/19 20/20/20
f 19/19/19 21/21/21 20/20/20
f 22/22/22 20/20/20 21/21/21
f 3/3/3 20/20/20 23/23/23
f 20/20/20 22/22/22 23/23/23
f 24/24/24 23/23/23 22/22/22
f 3/3/3 23/23/23 25/25/25
f 23/23/23 24/24/24 25/25/25
f 3/3/3 25/25/25 26/26/26
f 3/3/3 26/26/26 27/27/27
f 3/3/3 27/27/27 28/28/28
f 3/3/3 28/28/28 29/29/29
f 3/3/3 29/29/29 30/30/30
f 3/3/3 30/30/30 31/31/31
f 3/3/3 31/31/31 32/32/32
f 3/3/3 32/32/32 33/33/33
f 32/32/32 34/34/34 33/33/33
f 35/35/35 33/33/33 34/34/34
f 31/31/31 36/36/36 32/32/32
f 34/34/34 32/32/32 36/36/36
f 30/30/30 37/37/37 31/31/31
f 36/36/36 31/31/31 37/37/37
f 29/29/29 38/38/38 30/30/30
f 37/37/37 30/30/30 38/38/38
f 28/28/28 39/39/39 29/29/29
f 38/38/38 29/29/29 39/39/39
f 27/27/27 40/40/40 28/28/28
f 39/39/39 28/28/28 40/40/40
f 26/26/26 41/41/41 27/27/27
f 40/40/40 27/27/27 41/41/41
f 41/41/41 26/26/26 42/42/42
f 25/25/25 42/42/42 26/26/26
f 42/42/42 25/25/25 24/24/24
f 33/33/33 35/35/35 43/43/43
f 3/3/3 33/33/33 43/43/43
f 3/3/3 43/43/43 44/44/44
f 3/3/3 44/44/44 45/45/45
f 44/44/44 46/46/46 45/45/45
f 47/47/47 45/45/45 46/46/46
f 3/3/3 45/45/45 10/10/10
f 45/45/45 47/47/47 10/10/10
f 11/11/11 10/10/10 47/47/47
f 43/43/43 48/48/48 44/44/44
f 46/46/46 44/44/44 48/48/48
f 48/48/48 43/43/43 35/35/35
f 47/47/47 46/46/46 49/49/49
f 50/50/50 49/49/49 46/46/46
f 49/49/49 51/51/51 47/47/47
f 11/11/11 47/47/47 51/51/51
f 51/51/51 52/52/52 11/11/11
f 9/9/9 11/11/11 52/52/52
f 52/52/52 53/53/53 9/9/9
f 7/7/7 9/9/9 53/53/53
f 53/53/53 54/54/54 7/7/7
f 4/4/4 7/7/7 54/54/54
f 54/54/54 55/55/55 4/4/4
f 5/5/5 4/4/4 55/55/55
f 55/55/55 56/56/56 5/5/5
f 14/14/14 5/5/5 56/56/56
f 56/56/56 57/57/57 14/14/14
f 15/15/15 14/14/14 57/57/57
f 57/57/57 58/58/58 15/15/15
f 17/17/17 15/15/15 58/58/58
f 58/58/58 59/59/59 17/17/17
f 60/60/60 17/17/17 59/59/59
f 60/60/60 18/18/18 17/17/17
f 18/18/18 60/60/60 19/19/19
f 21/21/21 19/19/19 60/60/60
f 59/59/59 61/61/61 60/60/60
f 21/21/21 60/60/60 61/61/61
f 61/61/61 62/62/62 21/21/21
f 22/22/22 21/21/21 62/62/62
f 62/62/62 63/63/63 22/22/22
f 24/24/24 22/22/22 63/63/63
f 63/63/63 64/64/64 24/24/24
f 42/42/42 24/24/24 64/64/64
f 64/64/64 65/65/65 42/42/42
f 41/41/41 42/42/42 65/65/65
f 65/65/65 66/66/66 41/41/41
f 40/40/40 41/41/41 66/66/66
f 66/66/66 67/67/67 40/40/40
f 39/39/39 40/40/40 67/67/67
f 67/67/67 68/68/68 39/39/39
f 38/38/38 39/39/39 68/68/68
f 68/68/68 69/69/69 38/38/38
f 37/37/37 38/38/38 69/69/69
f 69/69/69 70/70/70 37/37/37
f 36/36/36 37/37/37 70/70/70
f 70/70/70 71/71/71 36/36/36
f 34/34/34 36/36/36 71/71/71
f 71/71/71 72/72/72 34/34/34
f 35/35/35 34/34/34 72/72/72
f 72/72/72 73/73/73 35/35/35
f 48/48/48 35/35/35 73/73/73
f 48/48/48 73/73/73 46/46/46
f 50/50/50 46/46/46 73/73/73
f 67/67/67 74/74/74 68/68/68
f 74/74/74 67/67/67 75/75/75
f 66/66/66 75/75/75 67/67/67
f 75/75/75 66/66/66 76/76/76
f 65/65/65 76/76/76 66/66/66
f 76/76/76 65/65/65 77/77/77
f 64/64/64 77/77/77 65/65/65
f 77/77/77 64/64/64 78/78/78
f 63/63/63 78/78/78 64/64/64
f 78/78/78 63/63/63 79/79/79
f 62/62/62 79/79/79 63/63/63
f 79/79/79 62/62/62 80/80/80
f 61/61/61 80/80/80 62/62/62
f 80/80/80 61/61/61 81/81/81
f 59/59/59 81/81/81 61/61/61
f 81/81/81 59/59/59 82/82/82
f 58/58/58 82/82/82 59/59/59
f 82/82/82 58/58/58 83/83/83
f 57/57/57 83/83/83 58/58/58
f 83/83/83 57/57/57 84/84/84
f 56/56/56 84/84/84 57/57/57
f 84/84/84 56/56/56 85/85/85
f 55/55/55 85/85/85 56/56/56
f 85/85/85 55/55/55 86/86/86
f 54/54/54 86/86/86 55/55/55
f 86/86/86 54/54/54 87/87/87
f 53/53/53 87/87/87 54/54/54
f 87/87/87 53/53/53 88/88/88
f 52/52/52 88/88/88 53/53/53
f 88/88/88 52/52/52 89/89/89
f 51/51/51 89/89/89 52/52/52
f 89/89/89 51/51/51 90/90/90
f 49/49/49 90/90/90 51/51/51
f 90/90/90 49/49/49 91/91/91
f 50/50/50 91/91/91 49/49/49
f 91/91/91 50/50/50 92/92/92
f 73/73/73 92/92/92 50/50/50
f 92/92/92 73/73/73 93/93/93
f 72/72/72 93/93/93 73/73/73
f 93/93/93 72/72/72 94/94/94
f 71/71/71 94/94/94 72/72/72
f 94/94/94 71/71/71 95/95/95
f 70/70/70 95/95/95 71/71/71
f 95/95/95 70/70/70 96/96/96
f 69/69/69 96/96/96 70/70/70
f 96/96/96 69/69/69 97/97/97
f 68/68/68 97/97/97 69/69/69
f 97/97/97 68/68/68 74/74/74
f 100/100/100 99/99/99 98/98/98
f 99/99/99 101/101/101 98/98/98
f 101/101/101 102/102/102 98/98/98
f 102/102/102 103/103/103 98/98/98
f 103/103/103 104/104/104 98/98/98
f 104/104/104 105/105/105 98/98/98
f 105/105/105 106/106/106 98/98/98
f 106/106/106 107/107/107 98/98/98
f 107/107/107 108/108/108 98/98/98
f 108/108/108 109/109/109 98/98/98
f 109/109/109 110/110/110 98/98/98
f 110/110/110 111/111/111 98/98/98
f 111/111/111 112/112/112 98/98/98
f 112/112/112 113/113/113 98/98/98
f 113/113/113 114/114/114 98/98/98
f 114/114/114 115/115/115 98/98/98
f 115/115/115 116/116/116 98/98/98
f 116/116/116 117/117/117 98/98/98
f 117/117/117 118/118/118 98/98/98
f 118/118/118 119/119/119 98/98/98
f 119/119/119 120/120/120 98/98/98
f 120/120/120 121/121/121 98/98/98
f 121/121/121 122/122/122 98/98/98
f 122/122/122 100/100/100 98/98/98
f 125/125/125 124/124/124 123/123/123
f 123/123/123 126/126/126 125/125/125
f 127/127/127 125/125/125 126/126/126
f 125/125/125 127/127/127 128/128/128
f 128/128/128 124/124/124 125/125/125
f 129/129/129 128/128/128 127/127/127
f 130/130/130 129/129/129 127/127/127
f 126/126/126 131/131/131 127/127/127
f 132/132/132 127/127/127 131/131/131
f 132/132/132 131/131/131 133/133/133
f 132/132/132 133/133/133 134/134/134
f 130/130/130 127/127/127 134/134/134
f 132/132/132 134/134/134 127/127/127
f 134/134/134 135/135/135 130/130/130
f 134/134/134 136/136/136 135/135/135
f 136/136/136 134/134/134 133/133/133
f 137/137/137 135/135/135 136/136/136
f 136/136/136 138/138/138 137/137/137
f 139/139/139 137/137/137 138/138/138
f 139/139/139 138/138/138 140/140/140
f 141/141/141 140/140/140 138/138/138
f 140/140/140 141/141/141 142/142/142
f 143/143/143 142/142/142 141/141/141
f 143/143/143 141/141/141 138/138/138
f 138/138/138 136/136/136 143/143/143
f 143/143/143 144/144/144 142/142/142
f 144/144/144 143/143/143 136/136/136
f 133/133/133 144/144/144 136/136/136
f 144/144/144 133/133/133 145/145/145
f 145/145/145 142/142/142 144/144/144
f 146/146/146 145/145/145 133/133/133
f 146/146/146 133/133/133 131/131/131
f 139/139/139 140/140/140 147/147/147
f 148/148/148 147/147/147 140/140/140
f 140/140/140 142/142/142 149/149/149
f 150/150/150 149/149/149 142/142/142
f 142/142/142 145/145/145 150/150/150
f 151/151/151 150/150/150 145/145/145
f 145/145/145 146/146/146 151/151/151
f 147/147/147 152/152/152 139/139/139
f 137/137/137 139/139/139 152/152/152
f 152/152/152 153/153/153 137/137/137
f 155/155/155 154/154/154 146/146/146
f 156/156/156 155/155/155 131/131/131
f 146/146/146 131/131/131 157/157/157
f 131/131/131 126/126/126 156/156/156
f 158/158/158 156/156/156 126/126/126
f 158/158/158 126/126/126 159/159/159
f 123/123/123 159/159/159 126/126/126
f 123/123/123 124/124/124 160/160/160
f 161/161/161 160/160/160 124/124/124
f 124/124/124 128/128/128 161/161/161
f 162/162/162 161/161/161 128/128/128
f 128/128/128 129/129/129 162/162/162
f 163/163/163 162/162/162 129/129/129
f 129/129/129 130/130/130 163/163/163
f 164/164/164 163/163/163 130/130/130
f 130/130/130 135/135/135 164/164/164
f 153/153/153 164/164/164 135/135/135
f 135/135/135 137/137/137 153/153/153
f 167/167/167 166/166/166 165/165/165
f 165/165/165 166/166/166 168/168/168
f 169/169/169 168/168/168 166/166/166
f 168/168/168 169/169/169 170/170/170
f 168/168/168 170/170/170 171/171/171
f 172/172/172 171/171/171 170/170/170
f 171/171/171 172/172/172 173/173/173
f 174/174/174 173/173/173 172/172/172
f 175/175/175 173/173/173 174/174/174
f 174/174/174 176/176/176 175/175/175
f 174/174/174 177/177/177 176/176/176
f 178/178/178 176/176/176 177/177/177
f 181/181/181 180/180/180 179/179/179
f 179/179/179 180/180/180 182/182/182
f 183/183/183 182/182/182 180/180/180
f 180/180/180 184/184/184 183/183/183
f 181/181/181 184/184/184 180/180/180
f 185/185/185 183/183/183 184/184/184
f 185/185/185 186/186/186 183/183/183
f 182/182/182 183/183/183 187/187/187
f 188/188/188 187/187/187 183/183/183
f 188/188/188 189/189/189 187/187/187
f 188/188/188 190/190/190 189/189/189
f 188/188/188 183/183/183 190/190/190
f 186/186/186 190/190/190 183/183/183
f 191/191/191 190/190/190 186/186/186
f 190/190/190 191/191/191 192/192/192
f 192/192/192 189/189/189 190/190/190
f 193/193/193 192/192/192 191/191/191
f 192/192/192 193/193/193 194/194/194
f 195/195/195 194/194/194 193/193/193
f 195/195/195 196/196/196 194/194/194
f 197/197/197 194/194/194 196/196/196
f 196/196/196 198/198/198 197/197/197
f 199/199/199 197/197/197 198/198/198
f 197/197/197 199/199/199 194/194/194
f 194/194/194 199/199/199 192/192/192
f 199/199/199 198/198/198 200/200/200
f 200/200/200 192/192/192 199/199/199
f 200/200/200 189/189/189 192/192/192
f 200/200/200 201/201/201 189/189/189
f 201/201/201 200/200/200 198/198/198
f 202/202/202 189/189/189 201/201/201
f 202/202/202 187/187/187 189/189/189
f 195/195/195 203/203/203 196/196/196
f 204/204/204 196/196/196 203/203/203
f 196/196/196 205/205/205 198/198/198
f 206/206/206 198/198/198 205/205/205
f 198/198/198 206/206/206 201/201/201
f 207/207/207 201/201/201 206/206/206
f 201/201/201 207/207/207 202/202/202
f 193/193/193 208/208/208 195/195/195
f 203/203/203 195/195/195 208/208/208
f 208/208/208 193/193/193 209/209/209
f 191/191/191 209/209/209 193/193/193
f 209/209/209 191/191/191 210/210/210
f 186/186/186 210/210/210 191/191/191
f 210/210/210 186/186/186 211/211/211
f 185/185/185 211/211/211 186/186/186
f 211/211/211 185/185/185 212/212/212
f 184/184/184 212/212/212 185/185/185
f 212/212/212 184/184/184 213/213/213
f 181/181/181 213/213/213 184/184/184
f 213/213/213 181/181/181 214/214/214
f 179/179/179 214/214/214 181/181/181
f 179/179/179 182/182/182 215/215/215
f 216/216/216 215/215/215 182/182/182
f 216/216/216 182/182/182 217/217/217
f 187/187/187 217/217/217 182/182/182
f 217/217/217 187/187/187 218/218/218
f 218/218/218 202/202/202 219/219/219
f 202/202/202 220/220/220 187/187/187
f 223/223/223 222/222/222 221/221/221
f 221/221/221 224/224/224 223/223/223
f 225/225/225 223/223/223 224/224/224
f 225/225/225 224/224/224 226/226/226
f 224/224/224 227/227/227 226/226/226
f 228/228/228 226/226/226 227/227/227
f 227/227/227 229/229/229 228/228/228
f 230/230/230 228/228/228 229/229/229
f 229/229/229 231/231/231 230/230/230
f 232/232/232 230/230/230 231/231/231
f 230/230/230 232/232/232 233/233/233
f 234/234/234 233/233/233 232/232/232
f 237/237/237 236/236/236 235/235/235
f 239/239/239 235/235/235 238/238/238
f 235/235/235 239/239/239 240/240/240
f 242/242/242 240/240/240 241/241/241
f 241/241/241 243/243/243 242/242/242
f 243/243/243 241/241/241 244/244/244
f 245/245/245 244/244/244 241/241/241
f 244/244/244 245/245/245 246/246/246
f 247/247/247 246/246/246 245/245/245
f 246/246/246 247/247/247 248/248/248
f 249/249/249 248/248/248 247/247/247
f 248/248/248 249/249/249 250/250/250
f 251/251/251 250/250/250 249/249/249
f 250/250/250 251/251/251 252/252/252
f 247/247/247 253/253/253 249/249/249
f 254/254/254 249/249/249 253/253/253
f 249/249/249 254/254/254 255/255/255
f 256/256/256 252/252/252 255/255/255
f 257/257/257 255/255/255 254/254/254
f 255/255/255 257/257/257 258/258/258
f 245/245/245 259/259/259 247/247/247
f 253/253/253 247/247/247 259/259/259
f 259/259/259 245/245/245 260/260/260
f 241/241/241 260/260/260 245/245/245
f 260/260/260 241/241/241 240/240/240
f 262/262/262 261/261/261 257/257/257
f 264/264/264 263/263/263 262/262/262
f 263/263/263 264/264/264 265/265/265
f 266/266/266 265/265/265 264/264/264
f 253/253/253 267/267/267 266/266/266
f 265/265/265 266/266/266 267/267/267
f 267/267/267 253/253/253 268/268/268
f 269/269/269 268/268/268 253/253/253
f 268/268/268 269/269/269 270/270/270
f 271/271/271 270/270/270 269/269/269
f 270/270/270 271/271/271 272/272/272
f 273/273/273 272/272/272 271/271/271
f 272/272/272 273/273/273 239/239/239
f 240/240/240 242/242/242 274/274/274
f 275/275/275 274/274/274 242/242/242
f 274/274/274 275/275/275 276/276/276
f 277/277/277 276/276/276 275/275/275
f 275/275/275 278/278/278 277/277/277
f 279/279/279 277/277/277 278/278/278
f 242/242/242 280/280/280 275/275/275
f 280/280/280 242/242/242 243/243/243
f 278/278/278 281/281/281 280/280/280
f 284/284/284 283/283/283 282/282/282
f 285/285/285 282/282/282 283/283/283
f 282/282/282 285/285/285 286/286/286
f 287/287/287 286/286/286 285/285/285
f 286/286/286 287/287/287 288/288/288
f 289/289/289 288/288/288 287/287/287
f 288/288/288 289/289/289 290/290/290
f 291/291/291 290/290/290 289/289/289
f 290/290/290 291/291/291 292/292/292
f 293/293/293 292/292/292 291/291/291
f 292/292/292 293/293/293 294/294/294
f 295/295/295 294/294/294 293/293/293
f 294/294/294 295/295/295 296/296/296
f 297/297/297 296/296/296 295/295/295
f 296/296/296 297/297/297 298/298/298
f 299/299/299 298/298/298 297/297/297
f 302/302/302 301/301/301 300/300/300
f 305/305/305 304/304/304 303/303/303
f 306/306/306 303/303/303 304/304/304
f 303/303/303 306/306/306 307/307/307
f 309/309/309 307/307/307 308/308/308
f 310/310/310 308/308/308 307/307/307
f 308/308/308 310/310/310 311/311/311
f 312/312/312 311/311/311 310/310/310
f 311/311/311 312/312/312 313/313/313
f 314/314/314 313/313/313 312/312/312
f 313/313/313 314/314/314 315/315/315
f 316/316/316 315/315/315 314/314/314
f 315/315/315 316/316/316 317/317/317
f 318/318/318 317/317/317 316/316/316
f 317/317/317 318/318/318 319/319/319
f 320/320/320 319/319/319 318/318/318
f 307/307/307 309/309/309 321/321/321
f 322/322/322 321/321/321 309/309/309
f 321/321/321 322/322/322 323/323/323
f 324/324/324 323/323/323 322/322/322
f 319/319/319 326/326/326 325/325/325
f 328/328/328 327/327/327 326/326/326
f 327/327/327 328/328/328 329/329/329
f 330/330/330 329/329/329 328/328/328
f 329/329/329 330/330/330 331/331/331
f 332/332/332 331/331/331 330/330/330
f 331/331/331 332/332/332 311/311/311
f 333/333/333 311/311/311 332/332/332
f 311/311/311 333/333/333 334/334/334
f 335/335/335 334/334/334 333/333/333
f 334/334/334 335/335/335 309/309/309
f 337/337/337 336/336/336 335/335/335
f 336/336/336 337/337/337 338/338/338
f 339/339/339 338/338/338 337/337/337
f 338/338/338 339/339/339 340/340/340
f 341/341/341 340/340/340 339/339/339
f 344/344/344 343/343/343 342/342/342
f 345/345/345 342/342/342 343/343/343
f 342/342/342 345/345/345 346/346/346
f 347/347/347 346/346/346 345/345/345
f 346/346/346 347/347/347 348/348/348
f 349/349/349 348/348/348 347/347/347
f 348/348/348 349/349/349 350/350/350
f 351/351/351 350/350/350 349/349/349
f 350/350/350 351/351/351 352/352/352
f 353/353/353 352/352/352 351/351/351
f 352/352/352 353/353/353 354/354/354
f 355/355/355 354/354/354 353/353/353
f 354/354/354 355/355/355 356/356/356
f 357/357/357 356/356/356 355/355/355
f 356/356/356 357/357/357 358/358/358
f 359/359/359 358/358/358 357/357/357
f 362/362/362 361/361/361 360/360/360
f 363/363/363 360/360/360 361/361/361
f 361/361/361 362/362/362 364/364/364
f 365/365/365 364/364/364 362/362/362
f 364/364/364 365/365/365 366/366/366
f 314/314/314 366/366/366 365/365/365
f 366/366/366 314/314/314 367/367/367
f 368/368/368 367/367/367 314/314/314
f 367/367/367 368/368/368 369/369/369
f 370/370/370 369/369/369 368/368/368
f 369/369/369 370/370/370 371/371/371
f 372/372/372 371/371/371 370/370/370
f 371/371/371 372/372/372 306/306/306
f 375/375/375 374/374/374 373/373/373
f 376/376/376 373/373/373 374/374/374
f 374/374/374 375/375/375 377/377/377
f 378/378/378 377/377/377 375/375/375
f 377/377/377 378/378/378 379/379/379
f 380/380/380 379/379/379 378/378/378
f 378/378/378 381/381/381 380/380/380
f 381/381/381 378/378/378 382/382/382
f 383/383/383 382/382/382 378/378/378
f 382/382/382 383/383/383 384/384/384
f 373/373/373 384/384/384 383/383/383
f 385/385/385 380/380/380 381/381/381
f 381/381/381 386/386/386 385/385/385
f 386/386/386 381/381/381 387/387/387
f 388/388/388 387/387/387 381/381/381
f 387/387/387 388/388/388 389/389/389
f 390/390/390 389/389/389 388/388/388
f 391/391/391 385/385/385 386/386/386
f 379/379/379 380/380/380 392/392/392
f 393/393/393 392/392/392 380/380/380
f 385/385/385 391/391/391 394/394/394
f 395/395/395 394/394/394 391/391/391
f 394/394/394 396/396/396 385/385/385
f 380/380/380 385/385/385 396/396/396
f 392/392/392 393/393/393 397/397/397
f 398/398/398 397/397/397 393/393/393
f 396/396/396 394/394/394 398/398/398
f 394/394/394 395/395/395 399/399/399
f 400/400/400 399/399/399 395/395/395
f 401/401/401 398/398/398 394/394/394
f 397/397/397 398/398/398 402/402/402
f 403/403/403 402/402/402 398/398/398
f 399/399/399 400/400/400 404/404/404
f 405/405/405 404/404/404 400/400/400
f 398/398/398 401/401/401 406/406/406
f 407/407/407 406/406/406 401/401/401
f 410/410/410 409/409/409 408/408/408
f 411/411/411 408/408/408 409/409/409
f 409/409/409 410/410/410 412/412/412
f 413/413/413 412/412/412 410/410/410
f 412/412/412 413/413/413 414/414/414
f 415/415/415 414/414/414 413/413/413
f 414/414/414 415/415/415 416/416/416
f 417/417/417 416/416/416 415/415/415
f 416/416/416 417/417/417 418/418/418
f 419/419/419 418/418/418 417/417/417
f 418/418/418 419/419/419 420/420/420
f 421/421/421 420/420/420 419/419/419
