g WOMAN
v 0.78658253 -0.363518625 0.107065856
v 0.640906811 -0.465727448 -0.000365898712
v 0.628690302 -0.446272761 0.102011256
v 0.821516871 -0.380060405 -0.000365898712
v 0.477402627 -0.476044923 -0.000365873304
v 0.467280477 -0.460916519 0.0695837662
v 0.841257989 -0.255778372 0.109461084
v 0.710612535 -0.229191929 0.222889781
v 0.782287955 -0.15555416 0.195874318
v 0.876406789 -0.176237658 0.102857076
v 0.610367835 -0.239147902 0.256552309
v 0.880309582 -0.261770755 -0.000365873304
v 0.913341224 -0.174438536 -0.000365873304
v 0.904210865 -0.0711463094 0.0940483585
v 0.934327781 -0.0633822232 -0.000365847896
v 0.552755892 -0.304434508 0.248820588
v 0.354092777 -0.324688911 0.19281204
v 0.933761954 0.0394538864 0.0726920664
v 0.944718838 0.04766763 -0.000365873304
v 0.931464493 0.248894498 0.057706099
v 0.943561733 0.289802521 -0.000365873304
v 0.908494532 0.256189615 0.140208349
v 0.89762044 0.0296398923 0.137134314
v 0.856910288 0.0260851644 0.192265004
v 0.928604662 0.318157494 0.0725193545
v 0.929188132 0.345009565 0.0331849344
v 0.911625504 0.359872073 0.0940864533
v 0.907394409 0.38528651 0.0617040284
v 0.852030098 0.387660354 0.109118171
v 0.83416909 0.397152424 0.0938709304
v 0.840749621 0.267467767 0.192671373
v 0.777337253 0.0502027534 0.244068235
v 0.713040531 0.100687504 0.295528591
v 0.799338341 0.294715315 0.206712514
v 0.832395852 0.33709088 0.17604205
v 0.891871214 0.300331354 0.146880344
v 0.853307068 0.363339216 0.148566887
v 0.819415331 0.329596847 0.182153299
v 0.812223792 0.351916164 0.181188062
v 0.764044881 0.343018293 0.220956817
v 0.777096629 0.415525109 0.174703479
v 0.810990095 0.384268075 0.166806594
v 0.819772303 0.403517455 0.139737844
v 0.799189806 0.443124563 0.136240274
v 0.707748234 0.383574784 0.223649204
v 0.742233515 0.447954893 0.171271935
v 0.813617408 0.330767155 0.165744886
v 0.822759867 0.338099122 0.159826681
v 0.807535231 0.367111683 0.15278326
v 0.808405578 0.344375819 0.162623212
v 0.813617408 0.330767155 0.165744886
v 0.65029496 0.427100241 0.215160906
v 0.702508271 0.478041798 0.17075631
v 0.777932644 0.481515378 0.13992697
v 0.801257432 0.489725471 0.112903461
v 0.813536048 0.441675067 0.106125832
v 0.741371512 0.536730886 0.152686745
v 0.866738558 0.713209569 0.0729867145
v 0.833837092 0.728368104 0.0880463421
v 0.88649106 0.697954595 0.0605153106
v 0.821214557 0.466535449 0.0640255883
v 0.894893765 0.685771108 0.0409090742
v 0.869627416 0.447995365 0.0379398167
v 0.910098732 0.680243433 -0.000365847896
v 0.924161792 0.712307096 -0.000365873304
v 0.924073517 0.723511696 0.0381684154
v 0.88023591 0.45043537 -0.000365822489
v 0.825577915 0.424386173 0.0717878342
v 0.827381432 0.406922132 0.110411011
v 0.826675773 0.400315434 0.0931263342
v 0.852052748 0.410048485 0.0614678077
v 0.821650147 0.389480859 0.11347679
v 0.821724296 0.383616209 0.103844389
v 0.839823842 0.378664076 0.111195892
v 0.838040292 0.361320347 0.138096988
v 0.81529206 0.386548996 0.134457201
v 0.900510073 0.403827876 0.0413408764
v 0.902134597 0.414522797 -0.000365847896
v 0.927300215 0.360288918 -0.000365873304
v 0.869627416 0.447995365 -0.0386715084
v 0.894893765 0.685771108 -0.041640643
v 0.924073517 0.723511636 -0.0389001109
v 0.821214557 0.466535449 -0.0647573099
v 0.825577915 0.424386173 -0.0725195706
v 0.852052748 0.410048485 -0.0621996038
v 0.83416909 0.397152424 -0.0946026668
v 0.826675773 0.400315434 -0.0938581005
v 0.827381432 0.406922132 -0.111142814
v 0.813536048 0.441675067 -0.106857628
v 0.821650147 0.389480859 -0.114208564
v 0.821724296 0.383616209 -0.104576126
v 0.839823902 0.378664345 -0.111927599
v 0.852029502 0.387660444 -0.109849907
v 0.90739423 0.385285944 -0.0624357499
v 0.911624372 0.359872282 -0.0948181599
v 0.929188132 0.345009565 -0.0339166522
v 0.928604662 0.318157494 -0.0732510164
v 0.931464612 0.248894736 -0.0584377907
v 0.933761954 0.0394538864 -0.0734238103
v 0.908494532 0.256189615 -0.140939981
v 0.89762044 0.0296398923 -0.137865946
v 0.856910288 0.0260851644 -0.192996696
v 0.840749621 0.267467767 -0.19340311
v 0.777337253 0.0502027534 -0.244800121
v 0.713040531 0.100687504 -0.296260417
v 0.799337745 0.294715375 -0.207444221
v 0.832396448 0.337090522 -0.176773697
v 0.891871095 0.300330788 -0.147611946
v 0.853307068 0.363339216 -0.149298564
v 0.819415331 0.329596847 -0.182884976
v 0.812223792 0.351916164 -0.181919798
v 0.764044881 0.343018293 -0.221688509
v 0.777096868 0.415525049 -0.175435275
v 0.810990095 0.384268075 -0.167538434
v 0.819772303 0.403517455 -0.140469655
v 0.799189806 0.443124563 -0.13697207
v 0.707748234 0.383574784 -0.22438097
v 0.742233515 0.447954893 -0.172003642
v 0.813617408 0.330767155 -0.166476697
v 0.822760522 0.338099331 -0.160558507
v 0.807535231 0.367111683 -0.153515086
v 0.808405578 0.344375819 -0.163355038
v 0.813617408 0.330767155 -0.166476697
v 0.65029496 0.427100241 -0.215892658
v 0.702507973 0.478041798 -0.171488032
v 0.777932644 0.481515378 -0.140658721
v 0.801257432 0.489725471 -0.113635272
v 0.741371453 0.536730647 -0.153418452
v 0.866737366 0.713209808 -0.0737185776
v 0.833836496 0.728368223 -0.0887780935
v 0.88649106 0.697954595 -0.0612469502
v 0.698874295 0.57586205 -0.158089563
v 0.797960579 0.747952878 -0.095590353
v 0.648316503 0.620826662 -0.102555104
v 0.723999083 0.758703113 -0.0757809654
v 0.622354567 0.470006615 -0.196913436
v 0.57378304 0.44672668 -0.217520326
v 0.547554135 0.490895361 -0.143820599
v 0.567989171 0.503518522 -0.12739259
v 0.594242632 0.531656086 -0.110520497
v 0.661508381 0.514368832 -0.167129457
v 0.618071139 0.576361299 -0.106715597
v 0.527350426 0.475966096 -0.156346768
v 0.527119577 0.434904158 -0.208787531
v 0.594712555 0.398884833 -0.242425069
v 0.498276383 0.38895008 -0.231913984
v 0.490704983 0.445937335 -0.166356325
v 0.62818563 0.320020884 -0.278505296
v 0.541732967 0.241699845 -0.312375128
v 0.639696479 0.153217345 -0.325274378
v 0.633092761 0.0469712913 -0.401335031
v 0.678596854 -0.0272621904 -0.323908269
v 0.584704936 0.0782661587 -0.390252978
v 0.744125187 -0.044794783 -0.27169615
v 0.824832261 -0.0614068322 -0.223298922
v 0.836418748 -0.0837536007 -0.174985632
v 0.904211462 -0.0711466521 -0.0947800875
v 0.876406789 -0.176237658 -0.103588782
v 0.841257453 -0.255778015 -0.110192887
v 0.782287955 -0.15555428 -0.196606085
v 0.710612535 -0.229191929 -0.223621517
v 0.78658253 -0.363518625 -0.107797608
v 0.61036694 -0.239147812 -0.257284015
v 0.628690302 -0.446272761 -0.102743015
v 0.467280477 -0.460916519 -0.0703155398
v 0.552756131 -0.304434806 -0.249552175
v 0.354092777 -0.324688911 -0.193543732
v 0.636992872 -0.222348377 -0.287159532
v 0.662227869 -0.247592956 -0.325312495
v 0.788237453 -0.223286971 -0.245836362
v 0.698238671 -0.299899459 -0.368238866
v 0.827963531 -0.302930623 -0.297022432
v 0.801935732 -0.383080214 -0.395627558
v 0.884857059 -0.389048427 -0.357200056
v 0.888775289 -0.262307078 -0.288762301
v 0.851385355 -0.147344053 -0.217970058
v 0.782287955 -0.15555428 -0.196606085
v 0.836418748 -0.0837536007 -0.174985632
v 0.887621999 -0.249249756 -0.301281869
v 0.925401211 -0.371905863 -0.352920115
v 0.840983391 -0.131381899 -0.246501744
v 0.880983889 -0.431743801 -0.41552341
v 0.919704616 -0.441269666 -0.394074708
v 0.949061811 -0.429269195 -0.383933455
v 0.885386229 -0.413868129 -0.41056028
v 0.811364412 -0.339271933 -0.396681786
v 0.875466347 -0.398558199 -0.463935733
v 0.771381378 -0.2572999 -0.478805035
v 0.919726372 -0.445262402 -0.420542449
v 0.956886828 -0.461555928 -0.409290314
v 0.916965306 -0.44718039 -0.449302852
v 0.932834446 -0.465518683 -0.421934456
v 0.951653183 -0.479555935 -0.437641829
v 0.730776727 -0.249554023 -0.385282248
v 0.789930403 -0.238489702 -0.359069437
v 0.763067126 -0.130476445 -0.317184776
v 0.693252802 -0.131657287 -0.362406939
v 0.669900119 -0.113411836 -0.463057041
v 0.652253091 -0.0268416777 -0.438101441
v 0.613823354 -0.0534030944 -0.44609496
v 0.58124882 0.0204485431 -0.409978658
v 0.513692677 0.0215545725 -0.415429533
v 0.537403107 -0.0400536656 -0.359800935
v 0.587833762 -0.058406584 -0.348012835
v 0.555867434 -0.0705061108 -0.323329121
v 0.590631962 -0.134861633 -0.33199057
v 0.562393188 -0.166768089 -0.31067723
v 0.465179712 -0.0975821465 -0.318028122
v 0.498515844 -0.20605813 -0.309072018
v 0.312248588 -0.22455065 -0.240327105
v 0.288171262 -0.106274158 -0.273273736
v 0.354092777 -0.324688911 -0.193543732
v 0.552756131 -0.304434806 -0.249552175
v 0.410868824 -0.00854904857 -0.317113698
v 0.277513385 -0.00704399636 -0.292608231
v 0.301091135 0.0743519962 -0.303395122
v 0.357032001 0.0941456929 -0.312445164
v 0.465976447 0.0080184415 -0.299084783
v 0.279375881 0.109997883 -0.27387175
v 0.61036694 -0.239147812 -0.257284015
v 0.636992872 -0.222348377 -0.287159532
v 0.298442423 0.217314079 -0.221497595
v 0.616529882 -0.164557382 -0.378439516
v 0.662227869 -0.247592956 -0.325312495
v 0.66547972 -0.228518158 -0.416267663
v 0.656313002 -0.133418128 -0.477268279
v 0.760456681 -0.266512662 -0.488213181
v 0.758529365 -0.316096336 -0.453750402
v 0.698238671 -0.299899459 -0.368238866
v 0.801935732 -0.383080214 -0.395627558
v 0.875466347 -0.398558199 -0.463935733
v 0.880983889 -0.431743801 -0.41552341
v 0.916965306 -0.44718039 -0.449302852
v 0.932834446 -0.465518683 -0.421934456
v 0.951653183 -0.479555935 -0.437641829
v 0.613823354 -0.0534030944 -0.44609496
v 0.875466347 -0.398558199 -0.463935733
v 0.357030988 0.094146803 0.311713487
v 0.410868853 -0.00854882319 0.316381961
v 0.301091135 0.0743519962 0.302663445
v 0.465976298 0.00801928528 0.298353106
v 0.277513355 -0.00704418356 0.291876584
v 0.279375881 0.109997988 0.273140103
v 0.288171262 -0.106274158 0.27254203
v 0.465179712 -0.0975821465 0.317296386
v 0.312247694 -0.224550352 0.239595354
v 0.498515844 -0.20605813 0.308340341
v 0.562393188 -0.166768089 0.309945613
v 0.555867434 -0.0705061108 0.322597384
v 0.354092777 -0.324688911 0.19281204
v 0.552755892 -0.304434508 0.248820588
v 0.590631962 -0.134861633 0.331258774
v 0.587833762 -0.058406584 0.347281039
v 0.610367835 -0.239147902 0.256552309
v 0.636994064 -0.22234875 0.286427796
v 0.537403107 -0.0400536656 0.359069139
v 0.581249058 0.020448057 0.409246743
v 0.513692677 0.0215545725 0.414697707
v 0.473058969 -0.00999996439 0.387545079
v 0.584704936 0.0782661587 0.389521182
v 0.496122211 0.186572775 0.352046967
v 0.407144994 0.102189831 0.396078825
v 0.31019035 0.213541791 0.325855166
v 0.376637876 0.31219545 0.257712334
v 0.263442457 0.333516598 0.247345179
v 0.541732967 0.241699845 0.311643392
v 0.433111727 0.340500712 0.221184254
v 0.415345132 0.384559363 0.176138639
v 0.33745268 0.388911277 0.169615477
v 0.498276353 0.38894996 0.231182247
v 0.62818557 0.320020676 0.277773559
v 0.594712555 0.398884833 0.241693333
v 0.527120113 0.434904039 0.208055735
v 0.57378304 0.44672668 0.21678859
v 0.527351737 0.475966185 0.155615017
v 0.547554135 0.490895361 0.143088847
v 0.622354567 0.470006615 0.1961817
v 0.594242632 0.531656086 0.109788738
v 0.661508381 0.514368594 0.166397646
v 0.618071139 0.576361299 0.105983809
v 0.49070558 0.445937306 0.165624499
v 0.698874474 0.575861752 0.157357797
v 0.648316503 0.62082696 0.1018233
v 0.797960579 0.747952878 0.0948586166
v 0.723999083 0.758703113 0.0750491917
v 0.73809737 0.767709434 0.0620215312
v 0.816867888 0.777926326 0.0689557269
v 0.747745931 0.768172383 0.0411122739
v 0.838255048 0.798071563 0.0405331552
v 0.760891557 0.769794762 -0.000365873304
v 0.850526631 0.80247277 -0.000365873304
v 0.847021461 0.764664352 0.0674114078
v 0.873601615 0.782109439 0.0420698524
v 0.882398427 0.791095734 -0.000365873304
v 0.908213913 0.781241953 -0.000365873304
v 0.901087463 0.764046907 0.0458620787
v 0.925388336 0.755339921 0.0373886377
v 0.912330151 0.742560029 0.0539164208
v 0.931226015 0.742387652 0.0291234776
v 0.936234355 0.75110352 -0.000365847896
v 0.926679909 0.77071625 -0.000365847896
v 0.908213913 0.781241953 -0.000365873304
v 0.877539635 0.750820577 0.0643151477
v 0.925388336 0.755339921 -0.0381203778
v 0.931226075 0.742388308 -0.0298552457
v 0.912329555 0.74255985 -0.0546480827
v 0.908213913 0.781241953 -0.000365873304
v 0.901087463 0.764046907 -0.0465938188
v 0.908213913 0.781241953 -0.000365873304
v 0.877539277 0.750820398 -0.0650469437
v 0.873601615 0.782109439 -0.0428016223
v 0.882398427 0.791095734 -0.000365873304
v 0.850526631 0.80247277 -0.000365873304
v 0.838255763 0.798071802 -0.0412648991
v 0.760891557 0.769794762 -0.000365873304
v 0.747745931 0.768172383 -0.0418440476
v 0.816867888 0.777926326 -0.0696874484
v 0.73809737 0.767709434 -0.0627532974
v 0.847021461 0.764664352 -0.0681431815
v 0.298442423 0.217314079 0.220765829
v 0.33745268 0.388911277 0.169615477
v 0.270131767 0.252461493 0.217882052
v 0.415345132 0.384559363 0.176138639
v 0.2554726 0.264894158 0.235500351
v 0.291370153 0.163684845 0.301742077
v 0.247343034 0.388336748 0.156618878
v 0.249016449 0.44702816 0.137390107
v 0.357030988 0.094146803 0.311713487
v 0.373660803 0.0640532598 0.368150741
v 0.465976298 0.00801928528 0.298353106
v 0.247343034 0.388336748 0.156618878
v 0.249016449 0.44702816 0.137390107
v 0.465976298 0.00801928528 0.298353106
v 0.678596318 -0.0272618551 0.323176444
v 0.633092761 0.0469712913 0.400603205
v 0.639696479 0.153217345 0.324542642
v 0.744125187 -0.044794783 0.270964265
v 0.824832261 -0.0614068322 0.222567216
v 0.836418808 -0.0837534517 0.174253866
v 0.84098351 -0.131381646 0.245770052
v 0.851386011 -0.147343978 0.217238247
v 0.887622595 -0.249249682 0.300550193
v 0.888774693 -0.26230675 0.288030565
v 0.92540127 -0.371905625 0.352188319
v 0.788238049 -0.223287001 0.245104611
v 0.782287955 -0.15555416 0.195874318
v 0.836418808 -0.0837534517 0.174253866
v 0.827962935 -0.302930534 0.296290606
v 0.698238134 -0.299899101 0.3675071
v 0.801935732 -0.383080274 0.394895852
v 0.884857595 -0.389048755 0.35646823
v 0.662227929 -0.247592598 0.324580759
v 0.636994064 -0.22234875 0.286427796
v 0.880985081 -0.43174395 0.414791673
v 0.919705153 -0.441270173 0.393342912
v 0.949061871 -0.429268748 0.383201659
v 0.885386229 -0.413868129 0.409828484
v 0.811364412 -0.339271933 0.39594993
v 0.875467598 -0.398558646 0.463203907
v 0.771381378 -0.257300079 0.47807315
v 0.919726312 -0.445262641 0.419810742
v 0.956885636 -0.461555392 0.408558458
v 0.916965365 -0.447180152 0.448571056
v 0.932834446 -0.465518683 0.4212026
v 0.951653183 -0.479555935 0.436909884
v 0.730777323 -0.249553978 0.384550393
v 0.789930403 -0.238489702 0.358337611
v 0.763067126 -0.13047637 0.316453099
v 0.693252802 -0.131657287 0.361675173
v 0.669900179 -0.113411501 0.462325156
v 0.652253628 -0.0268420521 0.437369645
v 0.61382401 -0.0534031317 0.445363045
v 0.616529882 -0.164557382 0.37770763
v 0.656313002 -0.133418128 0.476536423
v 0.66547972 -0.228518158 0.415535927
v 0.760456681 -0.266512662 0.487481266
v 0.758529961 -0.316096425 0.453018606
v 0.662227929 -0.247592598 0.324580759
v 0.698238134 -0.299899101 0.3675071
v 0.801935732 -0.383080274 0.394895852
v 0.875467598 -0.398558646 0.463203907
v 0.880985081 -0.43174395 0.414791673
v 0.916965365 -0.447180152 0.448571056
v 0.932834446 -0.465518683 0.4212026
v 0.951653183 -0.479555935 0.436909884
v 0.61382401 -0.0534031317 0.445363045
v 0.875467598 -0.398558646 0.463203907
v 0.590375841 0.50826931 0.0852752477
v 0.594242632 0.531656086 0.109788738
v 0.547554135 0.490895361 0.143088847
v 0.620421648 0.507954359 0.0535877123
v 0.618071139 0.576361299 0.105983809
v 0.663207531 0.557476401 0.0467764735
v 0.628843129 0.500721991 -0.000365873304
v 0.678068399 0.580577552 -0.000365873304
v 0.694636524 0.613818705 0.0438986532
v 0.744029999 0.72255832 -0.000365847896
v 0.723203123 0.740042865 0.0482852347
v 0.723999083 0.758703113 0.0750491917
v 0.648316503 0.62082696 0.1018233
v 0.696281195 0.767644465 0.0565579869
v 0.703526378 0.782618463 0.0470203161
v 0.734895766 0.757901073 0.032077495
v 0.743389904 0.760185599 -0.000365847896
v 0.699703991 0.777116656 0.0718081445
v 0.655739069 0.786473393 0.0613789372
v 0.699703991 0.777116656 0.0718081445
v 0.655739069 0.786473393 0.0613789372
v 0.298442423 0.217314079 0.220765829
v 0.247343034 0.388336748 0.156618878
v 0.723999083 0.758703113 0.0750491917
v 0.699703991 0.777116656 0.0718081445
v 0.73809737 0.767709434 0.0620215312
v 0.704356074 0.790182948 0.0599996895
v 0.747745931 0.768172383 0.0411122739
v 0.703526378 0.782618463 0.0470203161
v 0.734895766 0.757901073 0.032077495
v 0.743389904 0.760185599 -0.000365847896
v 0.760891557 0.769794762 -0.000365873304
v 0.655739069 0.786473393 0.0613789372
v 0.699703991 0.777116656 0.0718081445
v 0.703526378 0.782618463 0.0470203161
v 0.655739069 0.786473393 0.0613789372
v 0.839823842 0.378664076 0.111195892
v 0.821724296 0.383616209 0.103844389
v 0.813617408 0.330767155 0.165744886
v 0.710612535 -0.229191929 0.222889781
v 0.33745268 0.388911277 -0.170347184
v 0.298442423 0.217314079 -0.221497595
v 0.270131767 0.252461493 -0.218613788
v 0.415345192 0.384559512 -0.176870316
v 0.2554726 0.264894158 -0.236232042
v 0.291370153 0.163684845 -0.302473843
v 0.31019035 0.213541791 -0.326586932
v 0.263442457 0.333516598 -0.248076916
v 0.376637876 0.31219545 -0.258444071
v 0.496122211 0.186572775 -0.352778822
v 0.407144427 0.102190048 -0.396810591
v 0.247342154 0.388337016 -0.157350644
v 0.249016449 0.44702816 -0.138121873
v 0.433110923 0.340501398 -0.221915871
v 0.415345192 0.384559512 -0.176870316
v 0.33745268 0.388911277 -0.170347184
v 0.473058879 -0.0100004887 -0.388276786
v 0.373661041 0.0640529394 -0.368882507
v 0.465976447 0.0080184415 -0.299084783
v 0.357032001 0.0941456929 -0.312445164
v 0.465976447 0.0080184415 -0.299084783
v 0.838040888 0.361320525 -0.138828769
v 0.81529206 0.386548758 -0.135189012
v 0.839823902 0.378664345 -0.111927599
v 0.821724296 0.383616209 -0.104576126
v 0.813617408 0.330767155 -0.166476697
v 0.900510073 0.403827876 -0.0420726426
v 0.249016449 0.44702816 -0.138121873
v 0.247342154 0.388337016 -0.157350644
v 0.247342154 0.388337016 -0.157350644
v 0.743389904 0.760185599 -0.000365847896
v 0.744029999 0.72255832 -0.000365847896
v 0.734895766 0.757901073 -0.0328093171
v 0.723203123 0.740042865 -0.0490170792
v 0.694636524 0.613818705 -0.0446303748
v 0.723999083 0.758703113 -0.0757809654
v 0.648316503 0.620826662 -0.102555104
v 0.678068399 0.580577552 -0.000365873304
v 0.703525782 0.782618523 -0.0477522127
v 0.696281254 0.767644703 -0.0572898611
v 0.699703991 0.777116656 -0.0725399479
v 0.655739069 0.786473393 -0.0621107072
v 0.663207531 0.557476401 -0.047508195
v 0.628843129 0.500721991 -0.000365873304
v 0.620421648 0.507954359 -0.0543195084
v 0.618071139 0.576361299 -0.106715597
v 0.594242632 0.531656086 -0.110520497
v 0.590375125 0.508268774 -0.0860070288
v 0.567989171 0.503518522 -0.12739259
v 0.699703991 0.777116656 -0.0725399479
v 0.655739069 0.786473393 -0.0621107072
v 0.723999083 0.758703113 -0.0757809654
v 0.73809737 0.767709434 -0.0627532974
v 0.699703991 0.777116656 -0.0725399479
v 0.704355478 0.790182889 -0.0607314855
v 0.747745931 0.768172383 -0.0418440476
v 0.703525782 0.782618523 -0.0477522127
v 0.734895766 0.757901073 -0.0328093171
v 0.743389904 0.760185599 -0.000365847896
v 0.760891557 0.769794762 -0.000365873304
v 0.655739069 0.786473393 -0.0621107072
v 0.699703991 0.777116656 -0.0725399479
v 0.703525782 0.782618523 -0.0477522127
v 0.655739069 0.786473393 -0.0621107072
v 0.710612535 -0.229191929 -0.223621517
vt 0.457260013 0.757474005
vt 0.499989986 0.830793977
vt 0.460000008 0.831643999
vt 0.499989986 0.752093971
vt 0.5 0.89815402
vt 0.468569994 0.900334001
vt 0.448460013 0.710904002
vt 0.383839995 0.755623996
vt 0.388859987 0.69809401
vt 0.44799 0.675163984
vt 0.366649985 0.803514004
vt 0.499989986 0.701973975
vt 0.5 0.66624397
vt 0.449849993 0.630263984
vt 0.5 0.622933984
vt 0.375409991 0.841804028
vt 0.385410011 0.934643984
vt 0.464899987 0.580323994
vt 0.5 0.576334
vt 0.474290013 0.489333987
vt 0.5 0.471913993
vt 0.438439995 0.484423995
vt 0.429280013 0.586084008
vt 0.397020012 0.585973978
vt 0.469940007 0.458633989
vt 0.486369997 0.446224004
vt 0.460869998 0.439963996
vt 0.473479986 0.426344007
vt 0.442400008 0.419604003
vt 0.443910003 0.408623993
vt 0.403059989 0.472963989
vt 0.355300009 0.565523982
vt 0.320560008 0.532584012
vt 0.387690008 0.455783993
vt 0.411929995 0.442063987
vt 0.434810013 0.464444011
vt 0.428620011 0.433984011
vt 0.404549986 0.442393988
vt 0.401959985 0.430373996
vt 0.376029998 0.430684
vt 0.396649987 0.397424012
vt 0.407539994 0.414584011
vt 0.420159996 0.405494004
vt 0.417659998 0.386193991
vt 0.358200014 0.405313998
vt 0.38714999 0.378383994
vt 0.408659995 0.436533988
vt 0.413199991 0.434673995
vt 0.413309991 0.42117399
vt 0.409240007 0.430743992
vt 0.408659995 0.436533988
vt 0.341309994 0.377833992
vt 0.373479992 0.360033989
vt 0.411680013 0.367493987
vt 0.429230005 0.365604013
vt 0.433340013 0.387073994
vt 0.39813 0.340404004
vt 0.463669986 0.27086401
vt 0.449470013 0.262894005
vt 0.472939998 0.278133988
vt 0.453570008 0.378594011
vt 0.481810004 0.283733994
vt 0.48010999 0.389003992
vt 0.5 0.285663992
vt 0.499989986 0.270384014
vt 0.487430006 0.265724003
vt 0.5 0.388814002
vt 0.450239986 0.395354003
vt 0.433499992 0.402983993
vt 0.441659987 0.405593991
vt 0.461210012 0.403813988
vt 0.431529999 0.410394013
vt 0.435909986 0.411024004
vt 0.436269999 0.417934
vt 0.425770015 0.427053988
vt 0.422199994 0.413004011
vt 0.481099993 0.415504009
vt 0.5 0.410144001
vt 0.5 0.43839401
vt 0.519879997 0.389003992
vt 0.518180013 0.283733994
vt 0.51256001 0.265724003
vt 0.546419978 0.378594011
vt 0.54974997 0.395354003
vt 0.538779974 0.403813988
vt 0.556079984 0.408623993
vt 0.558329999 0.405593991
vt 0.566489995 0.402983993
vt 0.566649973 0.387073994
vt 0.568459988 0.410394013
vt 0.56408 0.411024004
vt 0.563719988 0.417934
vt 0.557590008 0.419604003
vt 0.52651 0.426344007
vt 0.539120018 0.439963996
vt 0.513620019 0.446224004
vt 0.53004998 0.458633989
vt 0.525699973 0.489333987
vt 0.535090029 0.580323994
vt 0.561550021 0.484423995
vt 0.570710003 0.586084008
vt 0.602970004 0.585973978
vt 0.596930027 0.472963989
vt 0.644689977 0.565523982
vt 0.679430008 0.532584012
vt 0.612299979 0.455783993
vt 0.588060021 0.442063987
vt 0.565180004 0.464444011
vt 0.571370006 0.433984011
vt 0.59543997 0.442393988
vt 0.598029971 0.430373996
vt 0.623960018 0.430684
vt 0.60334003 0.397424012
vt 0.592450023 0.414584011
vt 0.579829991 0.405494004
vt 0.582329988 0.386193991
vt 0.641789973 0.405313998
vt 0.612839997 0.378383994
vt 0.591329992 0.436533988
vt 0.586790025 0.434673995
vt 0.586679995 0.42117399
vt 0.590749979 0.430743992
vt 0.591329992 0.436533988
vt 0.658680022 0.377833992
vt 0.626510024 0.360033989
vt 0.588310003 0.367493987
vt 0.570760012 0.365604013
vt 0.601859987 0.340404004
vt 0.536319971 0.27086401
vt 0.550520003 0.262894005
vt 0.527050018 0.278133988
vt 0.61747998 0.319213986
vt 0.56348002 0.251304001
vt 0.635129988 0.284303993
vt 0.589479983 0.232754007
vt 0.663929999 0.354153991
vt 0.687780023 0.358884007
vt 0.692019999 0.322714001
vt 0.68513 0.314844012
vt 0.671490014 0.30696401
vt 0.640990019 0.338714004
vt 0.653180003 0.297394007
vt 0.70164001 0.326463997
vt 0.707970023 0.351924002
vt 0.687359989 0.383064002
vt 0.727100015 0.365673989
vt 0.720470011 0.330024004
vt 0.687399983 0.423514009
vt 0.734080017 0.44114399
vt 0.709789991 0.498883992
vt 0.745570004 0.545733988
vt 0.706539989 0.583393991
vt 0.755309999 0.522083998
vt 0.670239985 0.602343976
vt 0.628539979 0.628163993
vt 0.604860008 0.646664977
vt 0.550140023 0.630263984
vt 0.55201 0.675163984
vt 0.551530004 0.710904002
vt 0.611129999 0.69809401
vt 0.616150022 0.755623996
vt 0.542729974 0.757474005
vt 0.633340001 0.803514004
vt 0.539990008 0.831643999
vt 0.531419992 0.900334001
vt 0.624580026 0.841804028
vt 0.614579976 0.934643984
vt 0.637419999 0.795293987
vt 0.644270003 0.791884005
vt 0.64060998 0.728663981
vt 0.66674 0.804063976
vt 0.680190027 0.748733997
vt 0.709039986 0.800064027
vt 0.726620018 0.772794008
vt 0.687020004 0.719663978
vt 0.636330009 0.675354004
vt 0.611129999 0.69809401
vt 0.604860008 0.646664977
vt 0.689429998 0.712924004
vt 0.734290004 0.758073986
vt 0.647369981 0.662693977
vt 0.742359996 0.801904023
vt 0.753279984 0.78925401
vt 0.757160008 0.777913988
vt 0.768149972 0.754974008
vt 0.753629982 0.715294003
vt 0.788839996 0.747204006
vt 0.781949997 0.680433989
vt 0.775139987 0.773114026
vt 0.770910025 0.788114011
vt 0.786989987 0.773114026
vt 0.76880002 0.798614025
vt 0.783110023 0.793713987
vt 0.741720021 0.669614017
vt 0.720510006 0.68165499
vt 0.689639986 0.639523983
vt 0.725059986 0.624614
vt 0.770210028 0.613503993
vt 0.759639978 0.578144014
vt 0.780939996 0.581413984
vt 0.776950002 0.544444025
vt 0.795210004 0.524233997
vt 0.824320018 0.54954499
vt 0.822480023 0.569884002
vt 0.841210008 0.565613985
vt 0.846859992 0.596804023
vt 0.869069993 0.600124002
vt 0.883059978 0.552403986
vt 0.90188998 0.594843984
vt 0.976220012 0.551624
vt 0.948840022 0.507863998
vt 0.99804002 0.59682399
vt 0.923110008 0.644104004
vt 0.880159974 0.509473979
vt 0.92553997 0.473773986
vt 0.883019984 0.455063999
vt 0.859870017 0.461104006
vt 0.857259989 0.51928401
vt 0.893620014 0.437703997
vt 0.886539996 0.641964018
vt 0.869490027 0.640644014
vt 0.879079998 0.394163996
vt 0.829280019 0.614784002
vt 0.857439995 0.65387398
vt 0.820900023 0.647844017
vt 0.781430006 0.618063986
vt 0.788869977 0.680674016
vt 0.807550013 0.696914017
vt 0.84513998 0.679934978
vt 0.827549994 0.732753992
vt 0.788839996 0.747204006
vt 0.806789994 0.765003979
vt 0.786989987 0.773114026
vt 0.793600023 0.787393987
vt 0.783110023 0.793713987
vt 0.780939996 0.581413984
vt 0.788839996 0.747204006
vt 0.14012 0.461104006
vt 0.119829997 0.509483993
vt 0.116970003 0.455063999
vt 0.142729998 0.519294977
vt 0.0744500011 0.473773986
vt 0.106370002 0.437703997
vt 0.0511500016 0.507863998
vt 0.11693 0.552403986
vt 0.0237700008 0.551624
vt 0.0980999991 0.594843984
vt 0.130919993 0.600124002
vt 0.158779994 0.565613985
vt 0.00194999995 0.59682399
vt 0.0768800005 0.644114017
vt 0.153129995 0.596813977
vt 0.177520007 0.569884002
vt 0.113449998 0.641964018
vt 0.130500004 0.640644014
vt 0.175679997 0.54955399
vt 0.22304 0.544444025
vt 0.204779997 0.524233997
vt 0.180189997 0.521243989
vt 0.244680002 0.522083998
vt 0.237069994 0.457704008
vt 0.186179996 0.473544002
vt 0.170210004 0.412903994
vt 0.210309997 0.374873996
vt 0.164580002 0.355493993
vt 0.26591 0.44114399
vt 0.238749996 0.365613997
vt 0.236819997 0.335743994
vt 0.199599996 0.319774002
vt 0.272890002 0.365673989
vt 0.312590003 0.423514009
vt 0.312629998 0.383064002
vt 0.292019993 0.351924002
vt 0.312209994 0.358884007
vt 0.298350006 0.326463997
vt 0.307969987 0.322714001
vt 0.336059988 0.354153991
vt 0.328500003 0.30696401
vt 0.358999997 0.338714004
vt 0.346810013 0.297394007
vt 0.279520005 0.330024004
vt 0.382510006 0.319213986
vt 0.364859998 0.284303993
vt 0.436509997 0.251304001
vt 0.410510004 0.232754007
vt 0.419369996 0.227234006
vt 0.44896999 0.239173993
vt 0.42662999 0.219753996
vt 0.462379992 0.229394004
vt 0.438129991 0.203853995
vt 0.474409997 0.216123998
vt 0.458900005 0.246974006
vt 0.473219991 0.238774002
vt 0.486200005 0.224854007
vt 0.495029986 0.233114004
vt 0.480049998 0.248584002
vt 0.488139987 0.252793998
vt 0.480940014 0.258583993
vt 0.491140008 0.257643998
vt 0.5 0.251933992
vt 0.499989986 0.241623998
vt 0.495029986 0.233114004
vt 0.468820006 0.25473401
vt 0.511849999 0.252793998
vt 0.508849978 0.257643998
vt 0.519050002 0.258583993
vt 0.504960001 0.233114004
vt 0.519940019 0.248584002
vt 0.504960001 0.233114004
vt 0.531170011 0.25473401
vt 0.526769996 0.238774002
vt 0.513800025 0.224854007
vt 0.525579989 0.216123998
vt 0.537609994 0.229394004
vt 0.561860025 0.203853995
vt 0.573360026 0.219753996
vt 0.551020026 0.239173993
vt 0.580619991 0.227234006
vt 0.541090012 0.246974006
vt 0.120909996 0.394163996
vt 0.105970003 0.316053987
vt 0.132290006 0.378674001
vt 0.0721900016 0.319243997
vt 0.14305 0.375173986
vt 0.148310006 0.423094004
vt 0.146620005 0.315504014
vt 0.154310003 0.290163994
vt 0.14012 0.461104006
vt 0.162799999 0.47607401
vt 0.142729998 0.519294977
vt 0.146620005 0.315504014
vt 0.154310003 0.290163994
vt 0.142729998 0.519294977
vt 0.293449998 0.583393991
vt 0.254420012 0.545733988
vt 0.290199995 0.498883992
vt 0.329750001 0.602343976
vt 0.371450007 0.628163993
vt 0.395130008 0.646664977
vt 0.352620006 0.662693977
vt 0.363660008 0.675354004
vt 0.310559988 0.712924004
vt 0.312970012 0.719663978
vt 0.265700012 0.758073986
vt 0.359380007 0.728663981
vt 0.388859987 0.69809401
vt 0.395130008 0.646664977
vt 0.319799989 0.748733997
vt 0.333249986 0.804063976
vt 0.29095 0.800064027
vt 0.273380011 0.772794008
vt 0.355729997 0.791884005
vt 0.362569988 0.795293987
vt 0.257629991 0.801904023
vt 0.246710002 0.78925401
vt 0.242829993 0.777913988
vt 0.23184 0.754974008
vt 0.246360004 0.715294003
vt 0.211150005 0.747204006
vt 0.218040004 0.680433989
vt 0.224849999 0.773114026
vt 0.229080006 0.788114011
vt 0.213 0.773114026
vt 0.231199995 0.798614025
vt 0.216879994 0.793713987
vt 0.258280009 0.669614017
vt 0.27948001 0.68165499
vt 0.310350001 0.639523983
vt 0.27493 0.624614
vt 0.229780003 0.613503993
vt 0.240349993 0.578144014
vt 0.219050005 0.581413984
vt 0.170709997 0.614784002
vt 0.218559995 0.618063986
vt 0.179089993 0.647844017
vt 0.211119995 0.680684984
vt 0.192440003 0.696914017
vt 0.142550007 0.65387398
vt 0.154850006 0.679944992
vt 0.172440007 0.732753992
vt 0.211150005 0.747204006
vt 0.193200007 0.765013993
vt 0.213 0.773114026
vt 0.206389993 0.787393987
vt 0.216879994 0.793713987
vt 0.219050005 0.581413984
vt 0.211150005 0.747204006
vt 0.314110011 0.299733996
vt 0.328500003 0.30696401
vt 0.307969987 0.322714001
vt 0.309859991 0.28146401
vt 0.346810013 0.297394007
vt 0.331620008 0.267894
vt 0.299919993 0.258554012
vt 0.332520008 0.245294005
vt 0.352970004 0.254644006
vt 0.377880007 0.213124007
vt 0.396629989 0.228274003
vt 0.410510004 0.232754007
vt 0.364859998 0.284303993
vt 0.404280007 0.220743999
vt 0.404080003 0.212464005
vt 0.394609988 0.215933993
vt 0.387769997 0.203503996
vt 0.4102 0.221663997
vt 0.407389998 0.215744004
vt 0.4102 0.221663997
vt 0.407389998 0.215744004
vt 0.120909996 0.394163996
vt 0.146620005 0.315504014
vt 0.410510004 0.232754007
vt 0.4102 0.221663997
vt 0.419369996 0.227234006
vt 0.411020011 0.214054003
vt 0.42662999 0.219753996
vt 0.413650006 0.209603995
vt 0.424629986 0.211334005
vt 0.431659997 0.200734004
vt 0.438129991 0.203853995
vt 0.407389998 0.215744004
vt 0.4102 0.221663997
vt 0.404080003 0.212464005
vt 0.407389998 0.215744004
vt 0.436269999 0.417934
vt 0.435909986 0.411024004
vt 0.408659995 0.436533988
vt 0.383839995 0.755623996
vt 0.894020021 0.316053987
vt 0.879079998 0.394163996
vt 0.867699981 0.378674001
vt 0.9278 0.319243997
vt 0.856939971 0.375173986
vt 0.851679981 0.423094004
vt 0.829779983 0.412903994
vt 0.835399985 0.355493993
vt 0.789680004 0.374873996
vt 0.762920022 0.457704008
vt 0.813809991 0.473533988
vt 0.853370011 0.315504014
vt 0.845679998 0.290163994
vt 0.761240005 0.365613997
vt 0.763170004 0.335743994
vt 0.800390005 0.319774002
vt 0.819800019 0.521243989
vt 0.837189972 0.47607401
vt 0.857259989 0.51928401
vt 0.859870017 0.461104006
vt 0.857259989 0.51928401
vt 0.574220002 0.427053988
vt 0.577790022 0.413004011
vt 0.563719988 0.417934
vt 0.56408 0.411024004
vt 0.591329992 0.436533988
vt 0.518890023 0.415504009
vt 0.845679998 0.290163994
vt 0.853370011 0.315504014
vt 0.853370011 0.315504014
vt 0.612219989 0.203503996
vt 0.622110009 0.213124007
vt 0.605379999 0.215933993
vt 0.603359997 0.228274003
vt 0.647019982 0.254644006
vt 0.589479983 0.232754007
vt 0.635129988 0.284303993
vt 0.667469978 0.245294005
vt 0.595910013 0.212464005
vt 0.59570998 0.220743999
vt 0.5898 0.221663997
vt 0.592599988 0.215744004
vt 0.668370008 0.267894
vt 0.700070024 0.258563995
vt 0.690129995 0.28146401
vt 0.653180003 0.297394007
vt 0.671490014 0.30696401
vt 0.685880005 0.299733996
vt 0.68513 0.314844012
vt 0.5898 0.221663997
vt 0.592599988 0.215744004
vt 0.589479983 0.232754007
vt 0.580619991 0.227234006
vt 0.5898 0.221663997
vt 0.588970006 0.214054003
vt 0.573360026 0.219753996
vt 0.58634001 0.209603995
vt 0.57536 0.211334005
vt 0.56832999 0.200734004
vt 0.561860025 0.203853995
vt 0.592599988 0.215744004
vt 0.5898 0.221663997
vt 0.595910013 0.212464005
vt 0.592599988 0.215744004
vt 0.616150022 0.755623996
vn 0.555327177 -0.604101598 0.571553111
vn 0.253344953 -0.967376053 0
vn 0.192442149 -0.83810401 0.51043874
vn 0.700269699 -0.713878334 0
vn 0.0559817851 -0.998431742 -1.00000022E-06
vn -0.0218106862 -0.887530208 0.460233063
vn 0.732555687 -0.378663838 0.565664053
vn 0.419470698 -0.875425041 0.240156963
vn 0.774143219 -0.628675878 -0.073951982
vn 0.809083581 -0.264855146 0.524628878
vn 0.231883585 -0.613752961 0.754677057
vn 0.912298977 -0.409524769 -9.9999977E-07
vn 0.957634926 -0.287984967 0
vn 0.873042345 -0.19088167 0.448733032
vn 0.983364761 -0.181641877 9.99999997E-07
vn 0.0791096166 -0.575389862 0.814044356
vn -0.154739246 -0.637887716 0.754423678
vn 0.93752867 -0.0841414183 0.337579966
vn 0.997469902 -0.0710893273 0
vn 0.968147755 0.0139069688 0.249992996
vn 0.994627893 0.103514791 -9.99999315E-07
vn 0.821763515 0.0456398055 0.567997932
vn 0.856274009 -0.119757056 0.502447009
vn 0.71482414 -0.04524865 0.697838724
vn 0.949380577 0.141444206 0.280481935
vn 0.955680192 0.262240499 0.133810967
vn 0.742794514 0.496614158 0.449033082
vn 0.694621086 0.63355577 0.340747088
vn 0.0915181562 0.771408558 0.629724801
vn 0.241799027 0.709968865 0.661420763
vn 0.554596364 0.16230844 0.816136479
vn 0.57904309 0.0458041504 0.814009368
vn 0.610553861 0.132779121 0.780764878
vn 0.52126497 0.185590118 0.832970142
vn 0.0207057912 0.689112842 0.724358261
vn 0.678378701 0.287329823 0.676198065
vn 0.0682050437 0.716178119 0.694576859
vn 0.546585202 0.601146281 0.582981825
vn 0.91580379 0.248989776 0.315130889
vn 0.468124181 0.304632217 0.829493165
vn 0.515144408 0.424266398 0.74473089
vn 0.9129318 0.146760017 0.380811125
vn 0.931571364 0.0841706544 0.353680879
vn 0.714082599 0.388898462 0.582103074
vn 0.294929892 0.427144796 0.854730248
vn 0.383303553 0.386994481 0.838637948
vn 0.424165785 0.792859614 0.437557966
vn -0.0390442424 0.728669107 0.683752
vn 0.857484758 0.159779117 0.489071131
vn 0.952139378 0.257813841 0.164203033
vn 0.424165785 0.792859614 0.437557966
vn 0.215376332 0.472888917 0.854393959
vn 0.256325603 0.321953148 0.911396384
vn 0.600959361 0.289007187 0.74519968
vn 0.775836051 0.118073806 0.619787872
vn 0.904400229 0.286667585 0.316040963
vn 0.404429793 0.170676202 0.898502231
vn 0.528986335 0.0232075192 0.848312855
vn 0.376782596 0.222290754 0.899233937
vn 0.613912284 -0.162040025 0.772563696
vn 0.745231688 0.0368960127 0.665784061
vn 0.790633678 -0.284597516 0.542127967
vn 0.718943477 0.199750006 0.665747821
vn 0.944713056 -0.327898443 -9.9999977E-07
vn 0.925936639 -0.377678901 -2.99999988E-06
vn 0.845746279 -0.312372237 0.432593137
vn 0.971190989 0.238302514 9.99999543E-07
vn 0.794245958 0.364221722 0.486328959
vn 0.980348647 0.040426407 0.193086043
vn 0.786473036 0.359492868 0.502220094
vn 0.452168256 0.516787887 0.726962268
vn 0.9494645 0.303548485 0.079847008
vn 0.528057277 0.684207916 0.503005981
vn 0.11042247 0.923501074 0.367359161
vn 0.0365548879 0.795220077 0.605217934
vn 0.878583848 0.176462576 0.443792045
vn 0.732433915 0.546512723 0.406035095
vn 0.871787429 0.489884347 9.99999884E-07
vn 0.933614254 0.358279765 -1.99999931E-06
vn 0.718943238 0.199754119 -0.665746927
vn 0.790634096 -0.284594536 -0.542128861
vn 0.845740199 -0.312375098 -0.432602882
vn 0.745230436 0.0368983708 -0.665785432
vn 0.794246018 0.364226937 -0.486324996
vn 0.452167839 0.516791105 -0.726960242
vn 0.241800621 0.709971845 -0.661416948
vn 0.786473393 0.359496593 -0.502216876
vn 0.980348885 0.0404264182 -0.193085089
vn 0.904400826 0.286664486 -0.316042036
vn 0.94946146 0.303557843 -0.0798469409
vn 0.52805227 0.684213996 -0.503003061
vn 0.110416606 0.923507452 -0.367344826
vn 0.0915259123 0.77141732 -0.62971288
vn 0.694619477 0.633554518 -0.34075287
vn 0.742794514 0.496614158 -0.449033082
vn 0.955679119 0.262241602 -0.133815929
vn 0.949379385 0.141445667 -0.280485123
vn 0.968147755 0.0139089273 -0.249992877
vn 0.937528372 -0.0841413885 -0.337580889
vn 0.821764052 0.0456417836 -0.567997038
vn 0.856274009 -0.119757056 -0.502447009
vn 0.714824796 -0.0452477001 -0.697838187
vn 0.554596543 0.162311241 -0.816135824
vn 0.57904309 0.0458041504 -0.814009368
vn 0.610553861 0.132780075 -0.780764639
vn 0.52126199 0.185585544 -0.832972944
vn 0.0207142513 0.689108729 -0.724361837
vn 0.678380013 0.287331551 -0.676196039
vn 0.0682115108 0.716180086 -0.694574118
vn 0.546592176 0.601139903 -0.582981765
vn 0.915804923 0.248984486 -0.315131873
vn 0.468124568 0.304628223 -0.829494476
vn 0.515145004 0.424268663 -0.74472934
vn 0.912932396 0.146758839 -0.380810022
vn 0.931571782 0.0841697305 -0.353680074
vn 0.714083314 0.3888973 -0.582103074
vn 0.294928968 0.427145869 -0.85472995
vn 0.383301497 0.38699472 -0.838638723
vn 0.424173117 0.792855144 -0.437558949
vn -0.0390428193 0.72866559 -0.683755934
vn 0.857480884 0.159781769 -0.489077002
vn 0.952138305 0.257815838 -0.164205953
vn 0.424173117 0.792855144 -0.437558949
vn 0.215376973 0.472886831 -0.854394972
vn 0.256326228 0.321951777 -0.911396682
vn 0.600959122 0.289004356 -0.745201051
vn 0.775835156 0.118073061 -0.619789124
vn 0.404429853 0.170677155 -0.898501992
vn 0.528985202 0.0232067108 -0.848313749
vn 0.376782805 0.222286642 -0.899234891
vn 0.613912284 -0.162034929 -0.772564769
vn -0.107799195 0.308443427 -0.945114732
vn 0.044086501 0.478439689 -0.877013087
vn -0.406644553 0.41809991 -0.81230092
vn -0.22202982 0.600635409 -0.768075347
vn -0.102938078 0.656350017 -0.747401118
vn -0.124025419 0.660446465 -0.74055934
vn -0.233071476 0.788854241 -0.568670988
vn -0.262542397 0.772782505 -0.577822328
vn -0.353822082 0.679273486 -0.642959952
vn -0.153211817 0.423629075 -0.892784715
vn -0.464907795 0.491626203 -0.736318111
vn -0.354426831 0.742952049 -0.567806184
vn -0.346520424 0.659665585 -0.666907012
vn 0.0165311173 0.46808666 -0.883527994
vn -0.333113462 0.491568863 -0.804608941
vn -0.447883338 0.677185833 -0.583797872
vn 0.141193956 0.37258023 -0.917195857
vn -0.0118094496 0.45293203 -0.891466796
vn 0.33907187 0.347736031 -0.874133825
vn 0.510262787 0.331910104 -0.793389976
vn 0.780527234 0.156456247 -0.605226159
vn 0.21675764 0.421556592 -0.880514801
vn 0.587854445 0.235451594 -0.773944378
vn 0.796944022 0.15174067 -0.584683597
vn 0.938018858 -0.22245881 -0.265767902
vn 0.873042345 -0.19088167 -0.448733032
vn 0.809083581 -0.264855146 -0.524628878
vn 0.73255378 -0.378666431 -0.565664887
vn 0.77414453 -0.62867403 0.0739529878
vn 0.419471115 -0.875424504 -0.240158096
vn 0.555326879 -0.6041013 -0.571553767
vn 0.231885061 -0.613749981 -0.754678845
vn 0.192442492 -0.838103652 -0.510439157
vn -0.0218106955 -0.887530565 -0.460232168
vn 0.0791107342 -0.575388849 -0.814044952
vn -0.154740334 -0.637887955 -0.754423261
vn -0.266344637 -0.90963161 -0.318796039
vn -0.600241542 -0.782050252 0.167652994
vn 0.0792505294 -0.688273609 0.72110939
vn -0.643670619 -0.727842033 0.236503884
vn -0.0909111574 -0.598017395 0.796310484
vn -0.571360946 -0.811163723 0.124740034
vn -0.139472514 -0.626696408 0.766680539
vn 0.763775408 -0.122483239 0.633754671
vn 0.837207258 -0.121942952 0.533117235
vn 0.77414453 -0.62867403 0.0739529878
vn 0.938018858 -0.22245881 -0.265767902
vn 0.823451638 0.421767175 -0.37952584
vn 0.975675344 0.113433845 0.187590986
vn 0.808904171 0.416233659 -0.415239185
vn -0.554351568 -0.828600883 0.078197971
vn -0.226140007 -0.705255806 0.671918929
vn 0.962903023 -0.0145518975 0.269455016
vn 0.647297978 0.691441119 -0.320803046
vn 0.650043428 0.612634897 -0.449579865
vn 0.176009744 -0.163822532 -0.970660925
vn 0.736910522 0.562545717 -0.37484014
vn 0.610925198 0.717382729 -0.334861904
vn 0.956928253 -0.257182628 0.134705052
vn 0.271011025 -0.129116699 -0.95387733
vn -0.442005575 -0.849286795 0.288691878
vn 0.801464021 -0.349542618 -0.485258073
vn 0.736276031 0.483690798 -0.473223895
vn 0.437265903 0.416269332 -0.797194004
vn 0.527392268 0.422705352 -0.73700577
vn 0.774592698 0.360670567 -0.519541025
vn 0.690608978 0.497354865 -0.525068879
vn 0.58992368 0.414403081 -0.693008125
vn -0.687138855 -0.000701214012 -0.726525843
vn -0.260815978 -0.229939342 -0.937604845
vn -0.0617495179 -0.076841183 -0.995129347
vn -0.227075323 -0.797786474 -0.558545887
vn -0.700996935 -0.368335545 -0.610681832
vn -0.278344452 -0.390097409 -0.877694964
vn -0.698752344 -0.411830723 -0.584927797
vn -0.116160616 -0.341146946 -0.932805181
vn -0.115059145 -0.0860869139 -0.989621401
vn -0.0521117151 -0.336063772 -0.940396428
vn -0.244820595 -0.39518255 -0.885377645
vn -0.242299631 -0.204398245 -0.948426247
vn -0.154740334 -0.637887955 -0.754423261
vn 0.0791107342 -0.575388849 -0.814044952
vn -0.116754159 0.0143134883 -0.993057609
vn -0.274147302 -0.0978773162 -0.956693947
vn -0.206641555 0.178978682 -0.961907446
vn -0.689376771 -0.415555179 -0.593357921
vn -0.428189039 -0.533725798 -0.72924
vn -0.335930437 0.22726059 -0.914058745
vn 0.231885061 -0.613749981 -0.754678845
vn -0.266344637 -0.90963161 -0.318796039
vn -0.78610599 -0.468213886 0.403501034
vn -0.880093634 -0.393727601 -0.265355974
vn -0.600241542 -0.782050252 0.167652994
vn -0.771727622 -0.495184243 -0.399035126
vn -0.336325198 -0.017304156 -0.941586912
vn -0.0653621778 -0.10137634 -0.99269861
vn -0.587324202 -0.592381358 -0.551484048
vn -0.643670619 -0.727842033 0.236503884
vn -0.571360946 -0.811163723 0.124740034
vn 0.176009744 -0.163822532 -0.970660925
vn -0.554351568 -0.828600883 0.078197971
vn 0.271011025 -0.129116699 -0.95387733
vn -0.442005575 -0.849286795 0.288691878
vn 0.801464021 -0.349542618 -0.485258073
vn -0.687138855 -0.000701214012 -0.726525843
vn 0.176009744 -0.163822532 -0.970660925
vn -0.689380646 -0.415554374 0.593353868
vn -0.116754532 0.0143115222 0.993057609
vn -0.20664455 0.17897816 0.96190685
vn -0.42819044 -0.533726811 0.729238391
vn -0.274146497 -0.0978784859 0.956694007
vn -0.335934639 0.227259293 0.914057553
vn -0.242299631 -0.204398245 0.948426247
vn -0.115059309 -0.08608789 0.989621282
vn -0.24482052 -0.395181745 0.885378003
vn -0.0521129109 -0.336064786 0.940396011
vn -0.116161026 -0.341149002 0.932804346
vn -0.278346062 -0.390100271 0.877693176
vn -0.154739246 -0.637887716 0.754423678
vn 0.0791096166 -0.575389862 0.814044356
vn -0.698751092 -0.41183418 0.584926963
vn -0.700993657 -0.368340194 0.610682845
vn 0.231883585 -0.613752961 0.754677057
vn -0.266342938 -0.909633577 0.318791896
vn -0.22707738 -0.797786772 0.558544755
vn -0.260815889 -0.229944423 0.937603593
vn -0.0617508516 -0.0768429413 0.995129108
vn -0.456241667 -0.768122852 0.449255884
vn 0.216758206 0.421554357 0.880515635
vn 0.0668105558 0.51895231 0.85218823
vn -0.27612868 0.141910225 0.950586379
vn -0.442472368 0.296968907 0.846184194
vn 0.0478979386 0.680363297 0.731308162
vn -0.534434259 0.453134537 0.713476837
vn -0.0118104387 0.452932537 0.891466498
vn -0.217463464 0.591633916 0.776324034
vn -0.323614925 0.655792296 0.682062924
vn 0.0827099979 0.740159869 0.667324722
vn -0.333114594 0.491568059 0.804608941
vn 0.141193956 0.37258023 0.917195857
vn 0.0165301356 0.468086779 0.883527935
vn -0.346521318 0.659666955 0.666905165
vn -0.133091271 0.64980787 0.748355746
vn -0.354429275 0.742950678 0.567806363
vn -0.236053795 0.778279424 0.581858873
vn -0.0689418763 0.607297242 0.791477799
vn -0.321779758 0.688651383 0.64978236
vn -0.153210297 0.423631847 0.892783701
vn -0.4649041 0.49162963 0.736318111
vn -0.447877884 0.677192867 0.583793819
vn -0.107799195 0.308443427 0.945114732
vn -0.40664196 0.418101192 0.812301457
vn 0.0440858789 0.478441745 0.877011955
vn -0.222029507 0.600636125 0.76807493
vn -0.176950216 0.868363202 0.463286161
vn 0.0718404576 0.746930242 0.661009908
vn -0.28324306 0.952884495 0.108556017
vn 0.0245749447 0.947157443 0.319826126
vn -0.328232318 0.944597006 0
vn 0.0180821922 0.999836445 1.00000011E-06
vn 0.333310008 0.480107456 0.811419249
vn 0.357302219 0.729857445 0.582789183
vn 0.408130974 0.912923336 9.99999997E-07
vn 0.45889321 0.888491392 0
vn 0.418281227 0.704204082 0.573705018
vn 0.710010171 0.463120878 0.530475795
vn 0.56204927 0.147198319 0.813899934
vn 0.961761653 -0.0685646534 0.265166938
vn 0.999182284 0.0404328965 0
vn 0.747969806 0.663732708 0
vn 0.45889321 0.888491392 0
vn 0.361155242 0.348225683 0.86504674
vn 0.710005403 0.463116765 -0.530485928
vn 0.961757898 -0.0685821995 -0.265176088
vn 0.562043905 0.147196338 -0.813904047
vn 0.45889321 0.888491392 0
vn 0.418280452 0.704200745 -0.573709726
vn 0.45889321 0.888491392 0
vn 0.361157656 0.348221421 -0.865047336
vn 0.357305616 0.729854345 -0.582790852
vn 0.408130974 0.912923336 9.99999997E-07
vn 0.0180821922 0.999836445 1.00000011E-06
vn 0.0245768968 0.947156787 -0.319828004
vn -0.328232318 0.944597006 0
vn -0.28324306 0.952884495 -0.108556017
vn 0.0718417242 0.746926367 -0.661014259
vn -0.17695041 0.868362129 -0.463288128
vn 0.333312482 0.480098814 -0.811423302
vn -0.786107838 -0.468209147 -0.403502822
vn 0.0101761678 -0.340574622 -0.940162361
vn -0.312298357 -0.460817099 -0.830733061
vn -0.0197158139 -0.281487465 -0.959362388
vn -0.934474766 -0.300787121 -0.190483943
vn -0.90531987 -0.390212625 0.167720065
vn -0.467089236 -0.328282475 -0.82101053
vn -0.801751435 0.594575822 -0.0606159866
vn -0.689380646 -0.415554374 0.593353868
vn -0.7324875 -0.579338372 0.357531965
vn -0.42819044 -0.533726811 0.729238391
vn -0.467089236 -0.328282475 -0.82101053
vn -0.801751435 0.594575822 -0.0606159866
vn -0.42819044 -0.533726811 0.729238391
vn 0.780527651 0.156455949 0.605225682
vn 0.510263622 0.331908047 0.793390274
vn 0.33907187 0.347736031 0.874133825
vn 0.587853909 0.235450476 0.773944914
vn 0.79694283 0.151742116 0.584684968
vn 0.938019574 -0.222455904 0.265767962
vn 0.808905184 0.416231006 0.415239811
vn 0.8372069 -0.121944912 -0.533117175
vn 0.823461831 0.421754271 0.379518062
vn 0.763767719 -0.122499079 -0.63376087
vn 0.975673914 0.113414824 -0.18761
vn 0.0792500973 -0.688275218 -0.7211079
vn 0.774143219 -0.628675878 -0.073951982
vn 0.938019574 -0.222455904 0.265767962
vn -0.0909099579 -0.598016441 -0.796311259
vn -0.643672466 -0.727840722 -0.236502886
vn -0.571359992 -0.811164796 -0.124737017
vn -0.139470354 -0.626695693 -0.766681552
vn -0.600241542 -0.782050252 -0.167652994
vn -0.266342938 -0.909633577 0.318791896
vn -0.554353416 -0.828599691 -0.0781979933
vn -0.22613731 -0.705257475 -0.671918035
vn 0.962907255 -0.0145567469 -0.269440025
vn 0.647296965 0.691442013 0.320802957
vn 0.650042832 0.612634659 0.449581236
vn 0.176008806 -0.163822383 0.970661163
vn 0.736909926 0.562546134 0.374840736
vn 0.610924602 0.717384994 0.334858
vn 0.956929207 -0.257175654 -0.134710997
vn 0.271009952 -0.129111379 0.953878284
vn -0.44200471 -0.849286556 -0.288694113
vn 0.801492512 -0.349520475 0.485226989
vn 0.736275733 0.483693093 0.473222017
vn 0.437265903 0.416270077 0.797193646
vn 0.527391553 0.42270574 0.737006128
vn 0.774593353 0.360671788 0.519539356
vn 0.690608501 0.497353733 0.525070727
vn 0.589923382 0.414402008 0.693008959
vn -0.687137604 -0.000704531267 0.726526976
vn -0.880094349 -0.393726498 0.265354961
vn -0.336326063 -0.0173039678 0.941586554
vn -0.771728873 -0.495182604 0.399034798
vn -0.0653629899 -0.101375185 0.992698729
vn -0.587323189 -0.592381537 0.551485062
vn -0.600241542 -0.782050252 -0.167652994
vn -0.643672466 -0.727840722 -0.236502886
vn -0.571359992 -0.811164796 -0.124737017
vn 0.176008806 -0.163822383 0.970661163
vn -0.554353416 -0.828599691 -0.0781979933
vn 0.271009952 -0.129111379 0.953878284
vn -0.44200471 -0.849286556 -0.288694113
vn 0.801492512 -0.349520475 0.485226989
vn -0.687137604 -0.000704531267 0.726526976
vn 0.176008806 -0.163822383 0.970661163
vn -0.655035675 0.595627367 -0.464926124
vn -0.670924783 0.540691376 -0.507457197
vn -0.747647047 0.53542161 -0.392870873
vn -0.709952712 0.566944003 -0.41778174
vn -0.690268695 0.400675505 -0.60248512
vn -0.801049411 0.485748351 -0.349811941
vn -0.817352116 0.576138556 0
vn -0.882851064 0.46965304 0
vn -0.85156244 0.379447758 -0.361746967
vn -0.984809816 0.173636094 0
vn -0.930621386 -0.0427681208 -0.3634758
vn -0.805358529 0.139255628 0.576199234
vn -0.751855493 0.327913076 -0.572002053
vn -0.608886063 -0.764968157 -0.209956005
vn -0.258600444 0.292303413 -0.920697868
vn -0.721048117 0.373944968 -0.583313704
vn -0.873556972 0.486721784 9.9999977E-07
vn -0.0647433102 0.109370396 0.991890311
vn -0.889994562 0.445809454 -0.0957270041
vn -0.0647433102 0.109370396 0.991890311
vn -0.889994562 0.445809454 -0.0957270041
vn -0.786107838 -0.468209147 -0.403502822
vn -0.467089236 -0.328282475 -0.82101053
vn -0.805358529 0.139255628 0.576199234
vn -0.0647433102 0.109370396 0.991890311
vn 0.411496431 0.674497902 0.612962663
vn 0.234993309 0.959964573 0.152466908
vn 0.0607176647 0.974795878 -0.214677006
vn -0.258600444 0.292303413 -0.920697868
vn -0.721048117 0.373944968 -0.583313704
vn -0.873556972 0.486721784 9.9999977E-07
vn -0.525064766 0.851062298 1.99999863E-06
vn -0.889994562 0.445809454 -0.0957270041
vn -0.0647433102 0.109370396 0.991890311
vn -0.258600444 0.292303413 -0.920697868
vn -0.889994562 0.445809454 -0.0957270041
vn 0.11042247 0.923501074 0.367359161
vn 0.528057277 0.684207916 0.503005981
vn 0.424165785 0.792859614 0.437557966
vn 0.419470698 -0.875425041 0.240156963
vn 0.0101759909 -0.340575874 0.940162063
vn -0.78610599 -0.468213886 0.403501034
vn -0.312297732 -0.460819274 0.830731988
vn -0.0197161697 -0.281489283 0.959361851
vn -0.93447578 -0.300786048 0.190479979
vn -0.905318916 -0.390214533 -0.167720973
vn -0.442472368 0.296968907 -0.846184194
vn -0.5344311 0.453136146 -0.713478148
vn 0.0478971228 0.680364311 -0.731307209
vn 0.0668105558 0.51895231 -0.85218823
vn -0.276129544 0.141910374 -0.95058614
vn -0.467092007 -0.328280926 0.821009576
vn -0.801748455 0.594581425 0.0605999902
vn -0.217462599 0.591637433 -0.77632153
vn -0.323614478 0.655795455 -0.682060122
vn 0.0827080309 0.740160167 -0.667324722
vn -0.45623976 -0.768122673 -0.449258119
vn -0.732487559 -0.579337597 -0.357533067
vn -0.428189039 -0.533725798 -0.72924
vn -0.689376771 -0.415555179 -0.593357921
vn -0.428189039 -0.533725798 -0.72924
vn 0.0365497172 0.795224965 -0.605211735
vn 0.878581405 0.17646797 -0.443794876
vn 0.110416606 0.923507452 -0.367344826
vn 0.52805227 0.684213996 -0.503003061
vn 0.424173117 0.792855144 -0.437558949
vn 0.732431591 0.546513736 -0.406037837
vn -0.801748455 0.594581425 0.0605999902
vn -0.467092007 -0.328280926 0.821009576
vn -0.467092007 -0.328280926 0.821009576
vn -0.873556972 0.486721784 9.9999977E-07
vn -0.984809816 0.173636094 0
vn -0.7210567 0.373931319 0.583311677
vn -0.930621862 -0.0427732281 0.363473982
vn -0.85156101 0.379451603 0.361746132
vn -0.80535984 0.139252812 -0.576198041
vn -0.751855493 0.327913076 0.572002053
vn -0.882851064 0.46965304 0
vn -0.258603692 0.292296916 0.920698941
vn -0.608881831 -0.764972925 0.209950969
vn -0.06474296 0.109377377 -0.991889536
vn -0.889992297 0.445813984 0.0957269669
vn -0.801049411 0.485748351 0.349811941
vn -0.817352116 0.576138556 0
vn -0.709952533 0.566945076 0.417780757
vn -0.69026953 0.400674522 0.602484822
vn -0.683350861 0.533274591 0.498647958
vn -0.673755109 0.584839523 0.451682121
vn -0.779841125 0.509754121 0.363316178
vn -0.06474296 0.109377377 -0.991889536
vn -0.889992297 0.445813984 0.0957269669
vn -0.80535984 0.139252812 -0.576198041
vn 0.411493212 0.674506545 -0.612955332
vn -0.06474296 0.109377377 -0.991889536
vn 0.234988734 0.959967077 -0.152458012
vn 0.0606972575 0.974795341 0.214685962
vn -0.258603692 0.292296916 0.920698941
vn -0.7210567 0.373931319 0.583311677
vn -0.873556972 0.486721784 9.9999977E-07
vn -0.525064766 0.851062298 1.99999863E-06
vn -0.889992297 0.445813984 0.0957269669
vn -0.06474296 0.109377377 -0.991889536
vn -0.258603692 0.292296916 0.920698941
vn -0.889992297 0.445813984 0.0957269669
vn 0.419471115 -0.875424504 -0.240158096
g WOMAN_0
f 3/3/3 2/2/2 1/1/1
f 4/4/4 1/1/1 2/2/2
f 2/2/2 3/3/3 5/5/5
f 6/6/6 5/5/5 3/3/3
f 1/1/1 4/4/4 7/7/7
f 7/7/7 8/8/8 1/1/1
f 8/8/8 7/7/7 9/9/9
f 10/10/10 9/9/9 7/7/7
f 11/11/11 1/1/1 8/8/8
f 1/1/1 11/11/11 3/3/3
f 7/7/7 12/12/12 10/10/10
f 12/12/12 7/7/7 4/4/4
f 13/13/13 10/10/10 12/12/12
f 10/10/10 13/13/13 14/14/14
f 15/15/15 14/14/14 13/13/13
f 16/16/16 3/3/3 11/11/11
f 3/3/3 16/16/16 6/6/6
f 17/17/17 6/6/6 16/16/16
f 14/14/14 15/15/15 18/18/18
f 19/19/19 18/18/18 15/15/15
f 18/18/18 19/19/19 20/20/20
f 21/21/21 20/20/20 19/19/19
f 20/20/20 22/22/22 18/18/18
f 23/23/23 18/18/18 22/22/22
f 18/18/18 23/23/23 14/14/14
f 22/22/22 24/24/24 23/23/23
f 20/20/20 21/21/21 25/25/25
f 25/25/25 22/22/22 20/20/20
f 26/26/26 25/25/25 21/21/21
f 25/25/25 26/26/26 27/27/27
f 28/28/28 27/27/27 26/26/26
f 27/27/27 28/28/28 29/29/29
f 30/30/30 29/29/29 28/28/28
f 22/22/22 31/31/31 24/24/24
f 32/32/32 24/24/24 31/31/31
f 32/32/32 31/31/31 33/33/33
f 34/34/34 33/33/33 31/31/31
f 31/31/31 35/35/35 34/34/34
f 31/31/31 36/36/36 35/35/35
f 22/22/22 25/25/25 36/36/36
f 27/27/27 36/36/36 25/25/25
f 36/36/36 31/31/31 22/22/22
f 37/37/37 35/35/35 36/36/36
f 29/29/29 37/37/37 27/27/27
f 36/36/36 27/27/27 37/37/37
f 38/38/38 34/34/34 35/35/35
f 38/38/38 39/39/39 34/34/34
f 40/40/40 34/34/34 39/39/39
f 40/40/40 39/39/39 41/41/41
f 42/42/42 41/41/41 39/39/39
f 42/42/42 43/43/43 41/41/41
f 44/44/44 41/41/41 43/43/43
f 40/40/40 41/41/41 45/45/45
f 46/46/46 45/45/45 41/41/41
f 41/41/41 44/44/44 46/46/46
f 38/38/38 35/35/35 47/47/47
f 48/48/48 47/47/47 35/35/35
f 35/35/35 37/37/37 48/48/48
f 42/42/42 39/39/39 49/49/49
f 50/50/50 49/49/49 39/39/39
f 49/49/49 50/50/50 48/48/48
f 38/38/38 51/51/51 39/39/39
f 50/50/50 39/39/39 51/51/51
f 45/45/45 46/46/46 52/52/52
f 53/53/53 52/52/52 46/46/46
f 46/46/46 54/54/54 53/53/53
f 54/54/54 46/46/46 44/44/44
f 54/54/54 44/44/44 55/55/55
f 56/56/56 55/55/55 44/44/44
f 44/44/44 43/43/43 56/56/56
f 57/57/57 53/53/53 54/54/54
f 54/54/54 55/55/55 57/57/57
f 55/55/55 58/58/58 57/57/57
f 59/59/59 57/57/57 58/58/58
f 58/58/58 55/55/55 60/60/60
f 61/61/61 60/60/60 55/55/55
f 55/55/55 56/56/56 61/61/61
f 60/60/60 61/61/61 62/62/62
f 63/63/63 62/62/62 61/61/61
f 62/62/62 63/63/63 64/64/64
f 64/64/64 65/65/65 62/62/62
f 66/66/66 62/62/62 65/65/65
f 62/62/62 66/66/66 60/60/60
f 67/67/67 64/64/64 63/63/63
f 61/61/61 68/68/68 63/63/63
f 68/68/68 61/61/61 56/56/56
f 56/56/56 69/69/69 68/68/68
f 70/70/70 68/68/68 69/69/69
f 71/71/71 63/63/63 68/68/68
f 70/70/70 30/30/30 68/68/68
f 71/71/71 68/68/68 30/30/30
f 69/69/69 72/72/72 70/70/70
f 73/73/73 70/70/70 72/72/72
f 70/70/70 73/73/73 30/30/30
f 73/73/73 74/74/74 30/30/30
f 29/29/29 30/30/30 74/74/74
f 74/74/74 75/75/75 29/29/29
f 37/37/37 29/29/29 75/75/75
f 69/69/69 43/43/43 72/72/72
f 76/76/76 72/72/72 43/43/43
f 72/72/72 76/76/76 74/74/74
f 75/75/75 74/74/74 76/76/76
f 75/75/75 48/48/48 37/37/37
f 43/43/43 42/42/42 76/76/76
f 49/49/49 76/76/76 42/42/42
f 76/76/76 49/49/49 75/75/75
f 48/48/48 75/75/75 49/49/49
f 69/69/69 56/56/56 43/43/43
f 30/30/30 28/28/28 71/71/71
f 77/77/77 71/71/71 28/28/28
f 71/71/71 77/77/77 63/63/63
f 77/77/77 78/78/78 63/63/63
f 67/67/67 63/63/63 78/78/78
f 79/79/79 78/78/78 77/77/77
f 28/28/28 26/26/26 77/77/77
f 79/79/79 77/77/77 26/26/26
f 21/21/21 79/79/79 26/26/26
f 67/67/67 78/78/78 80/80/80
f 67/67/67 80/80/80 64/64/64
f 81/81/81 64/64/64 80/80/80
f 64/64/64 81/81/81 65/65/65
f 82/82/82 65/65/65 81/81/81
f 80/80/80 83/83/83 81/81/81
f 83/83/83 80/80/80 84/84/84
f 85/85/85 84/84/84 80/80/80
f 85/85/85 86/86/86 84/84/84
f 87/87/87 84/84/84 86/86/86
f 87/87/87 88/88/88 84/84/84
f 89/89/89 84/84/84 88/88/88
f 84/84/84 89/89/89 83/83/83
f 88/88/88 87/87/87 90/90/90
f 91/91/91 90/90/90 87/87/87
f 91/91/91 87/87/87 86/86/86
f 91/91/91 86/86/86 92/92/92
f 93/93/93 92/92/92 86/86/86
f 86/86/86 94/94/94 93/93/93
f 86/86/86 85/85/85 94/94/94
f 95/95/95 93/93/93 94/94/94
f 94/94/94 96/96/96 95/95/95
f 97/97/97 95/95/95 96/96/96
f 96/96/96 21/21/21 97/97/97
f 98/98/98 97/97/97 21/21/21
f 21/21/21 19/19/19 98/98/98
f 99/99/99 98/98/98 19/19/19
f 98/98/98 99/99/99 100/100/100
f 100/100/100 97/97/97 98/98/98
f 101/101/101 100/100/100 99/99/99
f 102/102/102 100/100/100 101/101/101
f 100/100/100 102/102/102 103/103/103
f 104/104/104 103/103/103 102/102/102
f 104/104/104 105/105/105 103/103/103
f 106/106/106 103/103/103 105/105/105
f 103/103/103 106/106/106 107/107/107
f 103/103/103 107/107/107 108/108/108
f 95/95/95 97/97/97 108/108/108
f 100/100/100 108/108/108 97/97/97
f 103/103/103 108/108/108 100/100/100
f 109/109/109 108/108/108 107/107/107
f 110/110/110 107/107/107 106/106/106
f 110/110/110 106/106/106 111/111/111
f 112/112/112 111/111/111 106/106/106
f 112/112/112 113/113/113 111/111/111
f 114/114/114 111/111/111 113/113/113
f 114/114/114 113/113/113 115/115/115
f 116/116/116 115/115/115 113/113/113
f 112/112/112 117/117/117 113/113/113
f 118/118/118 113/113/113 117/117/117
f 113/113/113 118/118/118 116/116/116
f 110/110/110 119/119/119 107/107/107
f 120/120/120 107/107/107 119/119/119
f 107/107/107 120/120/120 109/109/109
f 114/114/114 121/121/121 111/111/111
f 122/122/122 111/111/111 121/121/121
f 121/121/121 120/120/120 122/122/122
f 122/122/122 123/123/123 111/111/111
f 110/110/110 111/111/111 123/123/123
f 117/117/117 124/124/124 118/118/118
f 125/125/125 118/118/118 124/124/124
f 118/118/118 125/125/125 126/126/126
f 126/126/126 116/116/116 118/118/118
f 126/126/126 127/127/127 116/116/116
f 89/89/89 116/116/116 127/127/127
f 116/116/116 89/89/89 115/115/115
f 128/128/128 126/126/126 125/125/125
f 127/127/127 126/126/126 128/128/128
f 127/127/127 128/128/128 129/129/129
f 130/130/130 129/129/129 128/128/128
f 129/129/129 131/131/131 127/127/127
f 83/83/83 127/127/127 131/131/131
f 127/127/127 83/83/83 89/89/89
f 131/131/131 81/81/81 83/83/83
f 128/128/128 132/132/132 130/130/130
f 133/133/133 130/130/130 132/132/132
f 132/132/132 134/134/134 133/133/133
f 135/135/135 133/133/133 134/134/134
f 124/124/124 136/136/136 125/125/125
f 136/136/136 124/124/124 137/137/137
f 136/136/136 137/137/137 138/138/138
f 138/138/138 139/139/139 136/136/136
f 140/140/140 136/136/136 139/139/139
f 136/136/136 140/140/140 141/141/141
f 142/142/142 141/141/141 140/140/140
f 134/134/134 132/132/132 142/142/142
f 141/141/141 142/142/142 132/132/132
f 138/138/138 137/137/137 143/143/143
f 144/144/144 143/143/143 137/137/137
f 137/137/137 145/145/145 144/144/144
f 145/145/145 137/137/137 124/124/124
f 146/146/146 144/144/144 145/145/145
f 144/144/144 147/147/147 143/143/143
f 144/144/144 146/146/146 147/147/147
f 145/145/145 148/148/148 146/146/146
f 149/149/149 146/146/146 148/148/148
f 141/141/141 125/125/125 136/136/136
f 125/125/125 141/141/141 128/128/128
f 132/132/132 128/128/128 141/141/141
f 124/124/124 117/117/117 145/145/145
f 148/148/148 145/145/145 117/117/117
f 117/117/117 112/112/112 148/148/148
f 150/150/150 148/148/148 112/112/112
f 150/150/150 149/149/149 148/148/148
f 112/112/112 106/106/106 150/150/150
f 105/105/105 150/150/150 106/106/106
f 105/105/105 151/151/151 150/150/150
f 152/152/152 151/151/151 105/105/105
f 153/153/153 150/150/150 151/151/151
f 105/105/105 104/104/104 152/152/152
f 154/154/154 152/152/152 104/104/104
f 154/154/154 104/104/104 155/155/155
f 102/102/102 155/155/155 104/104/104
f 155/155/155 102/102/102 156/156/156
f 101/101/101 156/156/156 102/102/102
f 156/156/156 101/101/101 157/157/157
f 157/157/157 158/158/158 156/156/156
f 158/158/158 157/157/157 13/13/13
f 13/13/13 12/12/12 158/158/158
f 159/159/159 158/158/158 12/12/12
f 158/158/158 159/159/159 160/160/160
f 160/160/160 156/156/156 158/158/158
f 161/161/161 160/160/160 159/159/159
f 159/159/159 162/162/162 161/161/161
f 163/163/163 161/161/161 162/162/162
f 15/15/15 13/13/13 157/157/157
f 162/162/162 159/159/159 4/4/4
f 12/12/12 4/4/4 159/159/159
f 4/4/4 2/2/2 162/162/162
f 164/164/164 162/162/162 2/2/2
f 162/162/162 164/164/164 163/163/163
f 2/2/2 5/5/5 164/164/164
f 165/165/165 164/164/164 5/5/5
f 166/166/166 163/163/163 164/164/164
f 164/164/164 165/165/165 166/166/166
f 167/167/167 166/166/166 165/165/165
f 163/163/163 168/168/168 161/161/161
f 168/168/168 169/169/169 161/161/161
f 170/170/170 161/161/161 169/169/169
f 169/169/169 171/171/171 170/170/170
f 172/172/172 170/170/170 171/171/171
f 171/171/171 173/173/173 172/172/172
f 174/174/174 172/172/172 173/173/173
f 172/172/172 175/175/175 170/170/170
f 176/176/176 170/170/170 175/175/175
f 170/170/170 176/176/176 177/177/177
f 178/178/178 177/177/177 176/176/176
f 175/175/175 179/179/179 176/176/176
f 180/180/180 179/179/179 175/175/175
f 175/175/175 172/172/172 180/180/180
f 174/174/174 180/180/180 172/172/172
f 181/181/181 176/176/176 179/179/179
f 176/176/176 181/181/181 156/156/156
f 155/155/155 156/156/156 181/181/181
f 173/173/173 182/182/182 174/174/174
f 183/183/183 174/174/174 182/182/182
f 180/180/180 174/174/174 184/184/184
f 183/183/183 184/184/184 174/174/174
f 184/184/184 185/185/185 180/180/180
f 186/186/186 180/180/180 185/185/185
f 180/180/180 186/186/186 179/179/179
f 185/185/185 187/187/187 186/186/186
f 188/188/188 186/186/186 187/187/187
f 185/185/185 184/184/184 189/189/189
f 190/190/190 189/189/189 184/184/184
f 184/184/184 183/183/183 190/190/190
f 187/187/187 185/185/185 191/191/191
f 189/189/189 191/191/191 185/185/185
f 183/183/183 182/182/182 192/192/192
f 192/192/192 190/190/190 183/183/183
f 190/190/190 192/192/192 193/193/193
f 190/190/190 193/193/193 189/189/189
f 189/189/189 193/193/193 191/191/191
f 186/186/186 188/188/188 194/194/194
f 194/194/194 195/195/195 186/186/186
f 195/195/195 194/194/194 196/196/196
f 197/197/197 196/196/196 194/194/194
f 194/194/194 198/198/198 197/197/197
f 198/198/198 194/194/194 188/188/188
f 199/199/199 197/197/197 198/198/198
f 199/199/199 198/198/198 200/200/200
f 200/200/200 201/201/201 199/199/199
f 151/151/151 199/199/199 201/201/201
f 151/151/151 201/201/201 153/153/153
f 202/202/202 153/153/153 201/201/201
f 201/201/201 203/203/203 202/202/202
f 201/201/201 204/204/204 203/203/203
f 204/204/204 201/201/201 200/200/200
f 205/205/205 203/203/203 204/204/204
f 204/204/204 206/206/206 205/205/205
f 207/207/207 205/205/205 206/206/206
f 205/205/205 207/207/207 208/208/208
f 209/209/209 208/208/208 207/207/207
f 209/209/209 210/210/210 208/208/208
f 211/211/211 208/208/208 210/210/210
f 210/210/210 209/209/209 212/212/212
f 213/213/213 212/212/212 209/209/209
f 208/208/208 211/211/211 214/214/214
f 215/215/215 214/214/214 211/211/211
f 214/214/214 215/215/215 216/216/216
f 216/216/216 217/217/217 214/214/214
f 218/218/218 214/214/214 217/217/217
f 214/214/214 218/218/218 208/208/208
f 205/205/205 208/208/208 218/218/218
f 219/219/219 216/216/216 215/215/215
f 216/216/216 219/219/219 217/217/217
f 207/207/207 220/220/220 209/209/209
f 213/213/213 209/209/209 220/220/220
f 220/220/220 207/207/207 221/221/221
f 206/206/206 221/221/221 207/207/207
f 222/222/222 217/217/217 219/219/219
f 224/224/224 221/221/221 223/223/223
f 206/206/206 223/223/223 221/221/221
f 223/223/223 225/225/225 224/224/224
f 225/225/225 223/223/223 226/226/226
f 200/200/200 226/226/226 223/223/223
f 226/226/226 227/227/227 225/225/225
f 228/228/228 225/225/225 227/227/227
f 229/229/229 224/224/224 225/225/225
f 225/225/225 228/228/228 229/229/229
f 206/206/206 204/204/204 223/223/223
f 200/200/200 223/223/223 204/204/204
f 230/230/230 229/229/229 228/228/228
f 228/228/228 231/231/231 230/230/230
f 227/227/227 231/231/231 228/228/228
f 232/232/232 230/230/230 231/231/231
f 231/231/231 233/233/233 232/232/232
f 234/234/234 232/232/232 233/233/233
f 235/235/235 234/234/234 233/233/233
f 227/227/227 226/226/226 188/188/188
f 198/198/198 188/188/188 226/226/226
f 226/226/226 236/236/236 198/198/198
f 188/188/188 237/237/237 227/227/227
f 240/240/240 239/239/239 238/238/238
f 241/241/241 238/238/238 239/239/239
f 239/239/239 240/240/240 242/242/242
f 243/243/243 242/242/242 240/240/240
f 240/240/240 238/238/238 243/243/243
f 242/242/242 244/244/244 239/239/239
f 245/245/245 239/239/239 244/244/244
f 239/239/239 245/245/245 241/241/241
f 244/244/244 246/246/246 245/245/245
f 247/247/247 245/245/245 246/246/246
f 247/247/247 248/248/248 245/245/245
f 249/249/249 245/245/245 248/248/248
f 249/249/249 241/241/241 245/245/245
f 246/246/246 250/250/250 247/247/247
f 251/251/251 247/247/247 250/250/250
f 248/248/248 252/252/252 249/249/249
f 253/253/253 249/249/249 252/252/252
f 248/248/248 247/247/247 254/254/254
f 251/251/251 254/254/254 247/247/247
f 254/254/254 255/255/255 248/248/248
f 252/252/252 248/248/248 255/255/255
f 249/249/249 253/253/253 256/256/256
f 257/257/257 256/256/256 253/253/253
f 257/257/257 258/258/258 256/256/256
f 259/259/259 256/256/256 258/258/258
f 258/258/258 257/257/257 260/260/260
f 260/260/260 261/261/261 258/258/258
f 262/262/262 258/258/258 261/261/261
f 258/258/258 262/262/262 259/259/259
f 262/262/262 261/261/261 263/263/263
f 261/261/261 264/264/264 263/263/263
f 265/265/265 263/263/263 264/264/264
f 261/261/261 266/266/266 264/264/264
f 267/267/267 264/264/264 266/266/266
f 267/267/267 268/268/268 264/264/264
f 269/269/269 264/264/264 268/268/268
f 264/264/264 269/269/269 265/265/265
f 268/268/268 267/267/267 270/270/270
f 270/270/270 267/267/267 266/266/266
f 266/266/266 271/271/271 270/270/270
f 272/272/272 270/270/270 271/271/271
f 270/270/270 272/272/272 273/273/273
f 274/274/274 273/273/273 272/272/272
f 273/273/273 274/274/274 275/275/275
f 276/276/276 275/275/275 274/274/274
f 274/274/274 277/277/277 276/276/276
f 278/278/278 276/276/276 277/277/277
f 277/277/277 279/279/279 278/278/278
f 280/280/280 278/278/278 279/279/279
f 281/281/281 273/273/273 275/275/275
f 273/273/273 281/281/281 270/270/270
f 268/268/268 270/270/270 281/281/281
f 272/272/272 52/52/52 274/274/274
f 277/277/277 274/274/274 52/52/52
f 52/52/52 53/53/53 277/277/277
f 279/279/279 277/277/277 53/53/53
f 279/279/279 282/282/282 280/280/280
f 283/283/283 280/280/280 282/282/282
f 282/282/282 284/284/284 283/283/283
f 285/285/285 283/283/283 284/284/284
f 284/284/284 282/282/282 59/59/59
f 57/57/57 59/59/59 282/282/282
f 53/53/53 57/57/57 279/279/279
f 282/282/282 279/279/279 57/57/57
f 285/285/285 284/284/284 286/286/286
f 287/287/287 286/286/286 284/284/284
f 284/284/284 59/59/59 287/287/287
f 286/286/286 287/287/287 288/288/288
f 289/289/289 288/288/288 287/287/287
f 288/288/288 289/289/289 290/290/290
f 291/291/291 290/290/290 289/289/289
f 287/287/287 292/292/292 289/289/289
f 292/292/292 287/287/287 59/59/59
f 293/293/293 289/289/289 292/292/292
f 289/289/289 293/293/293 291/291/291
f 294/294/294 291/291/291 293/293/293
f 294/294/294 293/293/293 295/295/295
f 296/296/296 295/295/295 293/293/293
f 296/296/296 297/297/297 295/295/295
f 298/298/298 297/297/297 296/296/296
f 297/297/297 298/298/298 299/299/299
f 66/66/66 299/299/299 298/298/298
f 299/299/299 300/300/300 297/297/297
f 301/301/301 297/297/297 300/300/300
f 301/301/301 302/302/302 297/297/297
f 298/298/298 60/60/60 66/66/66
f 298/298/298 303/303/303 60/60/60
f 293/293/293 303/303/303 296/296/296
f 298/298/298 296/296/296 303/303/303
f 293/293/293 292/292/292 303/303/303
f 58/58/58 60/60/60 303/303/303
f 65/65/65 299/299/299 66/66/66
f 299/299/299 65/65/65 300/300/300
f 58/58/58 303/303/303 59/59/59
f 292/292/292 59/59/59 303/303/303
f 301/301/301 300/300/300 304/304/304
f 305/305/305 304/304/304 300/300/300
f 65/65/65 305/305/305 300/300/300
f 304/304/304 305/305/305 306/306/306
f 82/82/82 306/306/306 305/305/305
f 305/305/305 65/65/65 82/82/82
f 301/301/301 304/304/304 307/307/307
f 306/306/306 82/82/82 131/131/131
f 81/81/81 131/131/131 82/82/82
f 304/304/304 306/306/306 308/308/308
f 308/308/308 309/309/309 304/304/304
f 306/306/306 131/131/131 310/310/310
f 306/306/306 310/310/310 308/308/308
f 129/129/129 310/310/310 131/131/131
f 308/308/308 311/311/311 309/309/309
f 311/311/311 308/308/308 310/310/310
f 312/312/312 309/309/309 311/311/311
f 312/312/312 311/311/311 313/313/313
f 314/314/314 313/313/313 311/311/311
f 313/313/313 314/314/314 315/315/315
f 316/316/316 315/315/315 314/314/314
f 314/314/314 317/317/317 316/316/316
f 318/318/318 316/316/316 317/317/317
f 311/311/311 319/319/319 314/314/314
f 317/317/317 314/314/314 319/319/319
f 319/319/319 311/311/311 310/310/310
f 317/317/317 133/133/133 318/318/318
f 135/135/135 318/318/318 133/133/133
f 319/319/319 130/130/130 317/317/317
f 133/133/133 317/317/317 130/130/130
f 319/319/319 310/310/310 130/130/130
f 129/129/129 130/130/130 310/310/310
f 322/322/322 321/321/321 320/320/320
f 323/323/323 320/320/320 321/321/321
f 322/322/322 320/320/320 324/324/324
f 325/325/325 324/324/324 320/320/320
f 325/325/325 263/263/263 324/324/324
f 265/265/265 324/324/324 263/263/263
f 324/324/324 265/265/265 326/326/326
f 327/327/327 326/326/326 265/265/265
f 327/327/327 265/265/265 269/269/269
f 320/320/320 328/328/328 325/325/325
f 329/329/329 325/325/325 328/328/328
f 328/328/328 330/330/330 329/329/329
f 259/259/259 329/329/329 330/330/330
f 329/329/329 259/259/259 262/262/262
f 329/329/329 262/262/262 325/325/325
f 263/263/263 325/325/325 262/262/262
f 259/259/259 330/330/330 256/256/256
f 321/321/321 322/322/322 331/331/331
f 321/321/321 331/331/331 332/332/332
f 249/249/249 256/256/256 333/333/333
f 335/335/335 334/334/334 33/33/33
f 33/33/33 336/336/336 335/335/335
f 260/260/260 335/335/335 336/336/336
f 33/33/33 34/34/34 336/336/336
f 40/40/40 336/336/336 34/34/34
f 336/336/336 40/40/40 271/271/271
f 45/45/45 271/271/271 40/40/40
f 33/33/33 334/334/334 32/32/32
f 337/337/337 32/32/32 334/334/334
f 337/337/337 338/338/338 32/32/32
f 24/24/24 32/32/32 338/338/338
f 338/338/338 339/339/339 24/24/24
f 23/23/23 24/24/24 339/339/339
f 339/339/339 14/14/14 23/23/23
f 14/14/14 339/339/339 10/10/10
f 9/9/9 10/10/10 339/339/339
f 260/260/260 336/336/336 261/261/261
f 266/266/266 261/261/261 336/336/336
f 271/271/271 45/45/45 272/272/272
f 52/52/52 272/272/272 45/45/45
f 338/338/338 340/340/340 339/339/339
f 338/338/338 337/337/337 340/340/340
f 341/341/341 339/339/339 340/340/340
f 340/340/340 342/342/342 341/341/341
f 343/343/343 341/341/341 342/342/342
f 342/342/342 344/344/344 343/343/343
f 341/341/341 343/343/343 345/345/345
f 345/345/345 346/346/346 341/341/341
f 347/347/347 341/341/341 346/346/346
f 348/348/348 345/345/345 343/343/343
f 343/343/343 344/344/344 348/348/348
f 348/348/348 349/349/349 345/345/345
f 349/349/349 348/348/348 350/350/350
f 351/351/351 350/350/350 348/348/348
f 351/351/351 348/348/348 344/344/344
f 352/352/352 345/345/345 349/349/349
f 345/345/345 352/352/352 8/8/8
f 353/353/353 8/8/8 352/352/352
f 350/350/350 351/351/351 354/354/354
f 355/355/355 354/354/354 351/351/351
f 344/344/344 356/356/356 351/351/351
f 355/355/355 351/351/351 356/356/356
f 356/356/356 344/344/344 357/357/357
f 358/358/358 357/357/357 344/344/344
f 357/357/357 358/358/358 359/359/359
f 360/360/360 359/359/359 358/358/358
f 357/357/357 361/361/361 356/356/356
f 362/362/362 356/356/356 361/361/361
f 356/356/356 362/362/362 355/355/355
f 359/359/359 363/363/363 357/357/357
f 361/361/361 357/357/357 363/363/363
f 354/354/354 355/355/355 364/364/364
f 364/364/364 355/355/355 362/362/362
f 364/364/364 362/362/362 365/365/365
f 365/365/365 362/362/362 361/361/361
f 365/365/365 361/361/361 363/363/363
f 358/358/358 366/366/366 360/360/360
f 367/367/367 366/366/366 358/358/358
f 367/367/367 368/368/368 366/366/366
f 369/369/369 366/366/366 368/368/368
f 366/366/366 369/369/369 370/370/370
f 370/370/370 360/360/360 366/366/366
f 371/371/371 370/370/370 369/369/369
f 371/371/371 372/372/372 370/370/370
f 372/372/372 371/371/371 257/257/257
f 335/335/335 257/257/257 371/371/371
f 335/335/335 260/260/260 257/257/257
f 369/369/369 368/368/368 334/334/334
f 369/369/369 334/334/334 371/371/371
f 335/335/335 371/371/371 334/334/334
f 337/337/337 334/334/334 368/368/368
f 368/368/368 340/340/340 337/337/337
f 368/368/368 367/367/367 340/340/340
f 342/342/342 340/340/340 367/367/367
f 257/257/257 253/253/253 372/372/372
f 372/372/372 253/253/253 373/373/373
f 372/372/372 373/373/373 374/374/374
f 375/375/375 374/374/374 373/373/373
f 374/374/374 375/375/375 376/376/376
f 377/377/377 376/376/376 375/375/375
f 373/373/373 378/378/378 375/375/375
f 378/378/378 373/373/373 255/255/255
f 252/252/252 255/255/255 373/373/373
f 252/252/252 373/373/373 253/253/253
f 379/379/379 375/375/375 378/378/378
f 375/375/375 379/379/379 377/377/377
f 380/380/380 377/377/377 379/379/379
f 377/377/377 380/380/380 381/381/381
f 381/381/381 376/376/376 377/377/377
f 382/382/382 381/381/381 380/380/380
f 381/381/381 382/382/382 383/383/383
f 384/384/384 383/383/383 382/382/382
f 384/384/384 385/385/385 383/383/383
f 376/376/376 360/360/360 374/374/374
f 370/370/370 374/374/374 360/360/360
f 374/374/374 370/370/370 386/386/386
f 387/387/387 360/360/360 376/376/376
f 390/390/390 389/389/389 388/388/388
f 391/391/391 388/388/388 389/389/389
f 389/389/389 392/392/392 391/391/391
f 393/393/393 391/391/391 392/392/392
f 391/391/391 393/393/393 394/394/394
f 395/395/395 394/394/394 393/393/393
f 396/396/396 395/395/395 393/393/393
f 395/395/395 396/396/396 397/397/397
f 398/398/398 397/397/397 396/396/396
f 398/398/398 396/396/396 399/399/399
f 400/400/400 399/399/399 396/396/396
f 396/396/396 393/393/393 400/400/400
f 392/392/392 400/400/400 393/393/393
f 398/398/398 399/399/399 401/401/401
f 401/401/401 402/402/402 398/398/398
f 403/403/403 398/398/398 402/402/402
f 397/397/397 398/398/398 403/403/403
f 397/397/397 403/403/403 404/404/404
f 405/405/405 401/401/401 399/399/399
f 406/406/406 402/402/402 401/401/401
f 408/408/408 401/401/401 407/407/407
f 409/409/409 243/243/243 238/238/238
f 324/324/324 410/410/410 322/322/322
f 413/413/413 412/412/412 411/411/411
f 413/413/413 414/414/414 412/412/412
f 413/413/413 415/415/415 414/414/414
f 414/414/414 415/415/415 416/416/416
f 417/417/417 416/416/416 415/415/415
f 417/417/417 415/415/415 418/418/418
f 419/419/419 418/418/418 415/415/415
f 421/421/421 414/414/414 420/420/420
f 423/423/423 414/414/414 422/422/422
f 367/367/367 358/358/358 342/342/342
f 344/344/344 342/342/342 358/358/358
f 425/425/425 72/72/72 424/424/424
f 426/426/426 48/48/48 50/50/50
f 266/266/266 336/336/336 271/271/271
f 353/353/353 11/11/11 8/8/8
f 427/427/427 346/346/346 345/345/345
f 430/430/430 429/429/429 428/428/428
f 431/431/431 428/428/428 429/429/429
f 430/430/430 432/432/432 429/429/429
f 433/433/433 429/429/429 432/432/432
f 433/433/433 432/432/432 434/434/434
f 435/435/435 434/434/434 432/432/432
f 435/435/435 436/436/436 434/434/434
f 437/437/437 434/434/434 436/436/436
f 437/437/437 438/438/438 434/434/434
f 434/434/434 438/438/438 433/433/433
f 432/432/432 439/439/439 435/435/435
f 440/440/440 435/435/435 439/439/439
f 437/437/437 436/436/436 149/149/149
f 441/441/441 149/149/149 436/436/436
f 441/441/441 436/436/436 442/442/442
f 443/443/443 442/442/442 436/436/436
f 440/440/440 443/443/443 435/435/435
f 436/436/436 435/435/435 443/443/443
f 441/441/441 442/442/442 146/146/146
f 441/441/441 146/146/146 149/149/149
f 438/438/438 437/437/437 202/202/202
f 153/153/153 202/202/202 437/437/437
f 153/153/153 437/437/437 150/150/150
f 149/149/149 150/150/150 437/437/437
f 202/202/202 444/444/444 438/438/438
f 444/444/444 202/202/202 203/203/203
f 445/445/445 438/438/438 444/444/444
f 444/444/444 446/446/446 445/445/445
f 444/444/444 203/203/203 446/446/446
f 447/447/447 445/445/445 446/446/446
f 445/445/445 447/447/447 433/433/433
f 429/429/429 433/433/433 447/447/447
f 445/445/445 433/433/433 438/438/438
f 442/442/442 147/147/147 146/146/146
f 205/205/205 448/448/448 203/203/203
f 92/92/92 93/93/93 449/449/449
f 109/109/109 449/449/449 93/93/93
f 93/93/93 95/95/95 109/109/109
f 108/108/108 109/109/109 95/95/95
f 449/449/449 109/109/109 120/120/120
f 449/449/449 450/450/450 92/92/92
f 90/90/90 92/92/92 450/450/450
f 450/450/450 115/115/115 90/90/90
f 88/88/88 90/90/90 115/115/115
f 115/115/115 450/450/450 114/114/114
f 121/121/121 114/114/114 450/450/450
f 450/450/450 449/449/449 121/121/121
f 120/120/120 121/121/121 449/449/449
f 88/88/88 115/115/115 89/89/89
f 90/90/90 452/452/452 451/451/451
f 453/453/453 122/122/122 120/120/120
f 157/157/157 99/99/99 15/15/15
f 19/19/19 15/15/15 99/99/99
f 99/99/99 157/157/157 101/101/101
f 454/454/454 85/85/85 80/80/80
f 454/454/454 80/80/80 78/78/78
f 78/78/78 79/79/79 454/454/454
f 79/79/79 96/96/96 454/454/454
f 94/94/94 454/454/454 96/96/96
f 454/454/454 94/94/94 85/85/85
f 79/79/79 21/21/21 96/96/96
f 456/456/456 428/428/428 455/455/455
f 428/428/428 456/456/456 430/430/430
f 432/432/432 430/430/430 457/457/457
f 460/460/460 459/459/459 458/458/458
f 461/461/461 459/459/459 460/460/460
f 461/461/461 462/462/462 459/459/459
f 461/461/461 463/463/463 462/462/462
f 464/464/464 462/462/462 463/463/463
f 465/465/465 459/459/459 462/462/462
f 460/460/460 466/466/466 461/461/461
f 467/467/467 461/461/461 466/466/466
f 461/461/461 467/467/467 463/463/463
f 468/468/468 463/463/463 467/467/467
f 466/466/466 469/469/469 467/467/467
f 465/465/465 462/462/462 470/470/470
f 462/462/462 464/464/464 470/470/470
f 465/465/465 470/470/470 471/471/471
f 472/472/472 471/471/471 470/470/470
f 473/473/473 470/470/470 464/464/464
f 470/470/470 473/473/473 472/472/472
f 474/474/474 472/472/472 473/473/473
f 475/475/475 472/472/472 474/474/474
f 474/474/474 476/476/476 475/475/475
f 467/467/467 478/478/478 477/477/477
f 481/481/481 480/480/480 479/479/479
f 482/482/482 480/480/480 481/481/481
f 483/483/483 480/480/480 482/482/482
f 482/482/482 484/484/484 483/483/483
f 485/485/485 483/483/483 484/484/484
f 485/485/485 486/486/486 483/483/483
f 487/487/487 483/483/483 486/486/486
f 482/482/482 489/489/489 488/488/488
f 482/482/482 491/491/491 490/490/490
f 154/154/154 196/196/196 152/152/152
f 197/197/197 152/152/152 196/196/196
f 197/197/197 199/199/199 152/152/152
f 151/151/151 152/152/152 199/199/199
f 196/196/196 154/154/154 181/181/181
f 155/155/155 181/181/181 154/154/154
f 196/196/196 181/181/181 195/195/195
f 179/179/179 195/195/195 181/181/181
f 195/195/195 179/179/179 186/186/186
f 177/177/177 492/492/492 170/170/170
