mtllib blue_war_f_pve_1_shoulderstrap.mtl
o blue_war_f_pve_1_shoulderstrap
usemtl blue_war_f_pve_1_shoulderstrap
v 0.259389 1.515142 -0.190867
v 0.165384 1.530494 -0.203290
v 0.204627 1.478421 -0.203808
v 0.195751 1.471500 -0.158170
v 0.157612 1.524515 -0.162140
v 0.125239 1.561566 -0.164278
v 0.131853 1.561180 -0.211492
v 0.099448 1.595751 -0.192365
v 0.098230 1.581299 -0.145674
v 0.086606 1.603135 -0.188363
v 0.083101 1.588871 -0.141943
v 0.119582 1.671324 -0.192365
v 0.110071 1.674762 -0.192049
v 0.125131 1.653662 -0.160762
v 0.135805 1.721433 -0.165432
v 0.126644 1.577837 -0.118886
v 0.169255 1.638552 -0.189195
v 0.125798 1.724813 -0.164272
v 0.154903 1.777132 -0.125346
v 0.144342 1.782602 -0.121626
v 0.145728 1.699691 -0.128422
v 0.165419 1.737923 -0.068873
v 0.170245 1.813728 -0.062886
v 0.144342 1.782602 -0.121626
v 0.179558 1.763596 -0.011183
v 0.209110 1.721866 -0.076456
v 0.228767 1.736101 -0.020179
v 0.184828 1.832616 0.011578
v 0.158329 1.819221 -0.059250
v 0.169280 1.838177 0.014479
v 0.193391 1.824543 0.086232
v 0.175303 1.832796 0.087880
v 0.144342 1.782602 -0.121626
v 0.188174 1.705815 -0.111112
v 0.162958 1.686066 -0.143013
v 0.202051 1.673127 -0.177825
v 0.208255 1.723861 -0.152288
v 0.256912 1.673310 -0.158705
v 0.270036 1.688590 -0.136770
v 0.235284 1.717253 -0.126910
v 0.247133 1.725806 -0.077009
v 0.281041 1.701395 -0.090425
v 0.294019 1.711740 -0.029575
v 0.262190 1.735489 -0.022768
v 0.281537 1.658022 -0.082783
v 0.270385 1.630389 -0.123946
v 0.303686 1.674186 -0.024176
v 0.373201 1.594344 -0.042836
v 0.363844 1.577944 0.031060
v 0.298917 1.657989 0.035567
v 0.349266 1.581259 -0.109034
v 0.300965 1.701537 0.033024
v 0.270385 1.630389 -0.123946
v 0.328722 1.552144 -0.036277
v 0.320205 1.543594 0.020744
v 0.336061 1.547932 0.096526
v 0.373201 1.594344 -0.042836
v 0.308049 1.541298 -0.088376
v 0.275139 1.520727 -0.128697
v 0.307236 1.553243 -0.165291
v 0.354334 1.485076 -0.103931
v 0.328722 1.552144 -0.036277
v 0.373730 1.492960 -0.048867
v 0.367070 1.486635 0.015521
v 0.335384 1.462505 0.064344
v 0.295877 1.523478 0.065427
v 0.299349 1.436113 0.102502
v 0.264210 1.496706 0.102417
v 0.298710 1.443300 0.027078
v 0.299349 1.436113 0.102502
v 0.265346 1.419788 0.057557
v 0.249894 1.392634 0.135948
v 0.221641 1.383838 0.093911
v 0.249894 1.392634 0.135948
v 0.226217 1.470038 0.128971
v 0.216986 1.457482 0.138528
v 0.155278 1.544175 0.170659
v 0.130075 1.537088 0.143446
v 0.192801 1.450238 0.108742
v 0.192922 1.515439 0.147458
v 0.256055 1.481637 0.175783
v 0.217609 1.524103 0.177586
v 0.162244 1.559246 0.159598
v 0.190693 1.570213 0.204428
v 0.163230 1.596242 0.194336
v 0.179849 1.607904 0.191623
v 0.140130 1.579877 0.161965
v 0.142405 1.609314 0.195550
v 0.124200 1.590630 0.163996
v 0.171476 1.634620 0.195966
v 0.156190 1.641443 0.198760
v 0.181168 1.682499 0.190042
v 0.170974 1.689039 0.193319
v 0.187843 1.721761 0.173808
v 0.176561 1.728824 0.177498
v 0.173485 1.653392 0.156322
v 0.178309 1.698851 0.143802
v 0.179129 1.700826 0.104540
v 0.175186 1.706417 0.108977
v 0.217546 1.674164 0.120961
v 0.190563 1.638260 0.159324
v 0.162837 1.706699 0.147091
v 0.162837 1.706699 0.147091
v 0.180842 1.737308 0.052847
v 0.175805 1.734082 0.079982
v 0.155826 1.715009 0.111788
v 0.181292 1.773371 0.066042
v 0.156220 1.742761 0.082449
v 0.155826 1.715009 0.111788
v 0.161846 1.781972 0.068236
v 0.186867 1.801490 0.069152
v 0.168879 1.809750 0.070967
v 0.193391 1.824543 0.086232
v 0.228133 1.722674 0.039657
v 0.211105 1.709904 0.080460
v 0.202430 1.697593 0.102179
v 0.266119 1.729518 0.034255
v 0.260535 1.721367 0.071012
v 0.248709 1.719286 0.093154
v 0.222761 1.720255 0.114477
v 0.298371 1.694241 0.060049
v 0.297874 1.682639 0.097617
v 0.282785 1.664596 0.121175
v 0.239248 1.680956 0.135546
v 0.270400 1.637878 0.145849
v 0.288546 1.619651 0.094071
v 0.259508 1.577147 0.140474
v 0.300381 1.515653 0.135602
v 0.238559 1.550625 0.159030
v 0.256055 1.481637 0.175783
v 0.249190 1.612291 0.175988
v 0.240477 1.579846 0.196525
v 0.209632 1.646173 0.180102
v 0.196440 1.615786 0.209027
v 0.190693 1.570213 0.204428
v 0.163230 1.596242 0.194336
v 0.297874 1.682639 0.097617
v 0.259389 1.515142 -0.190867
v 0.212871 1.576460 -0.183136
v 0.251326 1.616809 -0.152030
v 0.195865 1.604938 -0.194310
v 0.349266 1.581259 -0.109034
v 0.233345 1.649044 -0.182323
v 0.236178 1.496203 -0.148034
v 0.269646 1.425834 -0.155149
v 0.236178 1.496203 -0.148034
v 0.316851 1.460786 -0.140046
v 0.354334 1.485076 -0.103931
v 0.236178 1.496203 -0.148034
v 0.204627 1.478421 -0.203808
v 0.269646 1.425834 -0.155149
v 0.298532 1.445482 -0.094267
v 0.258187 1.418052 -0.104082
v 0.211733 1.386025 -0.160001
v 0.320501 1.459441 -0.073407
v 0.331164 1.464914 -0.042901
v 0.373730 1.492960 -0.048867
v 0.325944 1.461063 -0.008828
v 0.298710 1.443300 0.027078
v 0.178767 1.452194 -0.156274
v 0.171835 1.448117 -0.119005
v 0.097357 1.536066 -0.135282
v 0.109509 1.539901 -0.170827
v 0.126644 1.577837 -0.118886
v 0.125239 1.561566 -0.164278
v 0.205485 1.382989 -0.113422
v 0.211733 1.386025 -0.160001
v 0.093061 1.646715 -0.116329
v 0.159484 1.627443 -0.085040
v 0.126644 1.577837 -0.118886
v 0.101617 1.691340 -0.092375
v 0.111628 1.725021 -0.044705
v 0.120004 1.729535 -0.108305
v 0.130217 1.765512 -0.053328
v 0.104158 1.675812 -0.145290
v 0.086606 1.603135 -0.188363
v 0.083101 1.588871 -0.141943
v 0.125798 1.724813 -0.164272
v 0.144342 1.782602 -0.121626
v 0.121368 1.745201 0.000812
v 0.133397 1.781331 0.012687
v 0.137262 1.742251 0.065407
v 0.124335 1.725928 0.048669
v 0.158329 1.819221 -0.059250
v 0.169280 1.838177 0.014479
v 0.194102 1.645982 -0.016691
v 0.173540 1.629651 0.047708
v 0.127033 1.693147 0.094375
v 0.141057 1.585237 0.103281
v 0.127105 1.648337 0.130093
v 0.146529 1.673522 0.149913
v 0.140941 1.705841 0.104028
v 0.156220 1.742761 0.082449
v 0.155826 1.715009 0.111788
v 0.124200 1.590630 0.163996
v 0.142405 1.609314 0.195550
v 0.156190 1.641443 0.198760
v 0.170974 1.689039 0.193319
v 0.176561 1.728824 0.177498
v 0.325944 1.461063 -0.008828
v 0.331164 1.464914 -0.042901
v 0.298710 1.443300 0.027078
v 0.265346 1.419788 0.057557
v 0.162837 1.706699 0.147091
v 0.176561 1.728824 0.177498
v 0.155826 1.715009 0.111788
v 0.162837 1.706699 0.147091
v 0.161846 1.781972 0.068236
v 0.168879 1.809750 0.070967
v 0.175303 1.832796 0.087880
v 0.175303 1.832796 0.087880
v 0.162837 1.706699 0.147091
v 0.176561 1.728824 0.177498
v 0.155826 1.715009 0.111788
v 0.110071 1.674762 -0.192049
v 0.144342 1.782602 -0.121626
v 0.175303 1.832796 0.087880
v 0.336061 1.547932 0.096526
v 0.295877 1.523478 0.065427
v 0.300381 1.515653 0.135602
v 0.264210 1.496706 0.102417
v 0.256055 1.481637 0.175783
v 0.226217 1.470038 0.128971
v 0.299303 1.634918 0.060644
v 0.298371 1.694241 0.060049
v 0.299303 1.634918 0.060644
v 0.298532 1.445482 -0.094267
v 0.258187 1.418052 -0.104082
v 0.097357 1.536066 -0.135282
v 0.097357 1.536066 -0.135282
v 0.171835 1.448117 -0.119005
v 0.205485 1.382989 -0.113422
v 0.320501 1.459441 -0.073407
v 0.298532 1.445482 -0.094267
v 0.331164 1.464914 -0.042901
v 0.130075 1.537088 0.143446
v 0.265346 1.419788 0.057557
v 0.130075 1.537088 0.143446
v 0.192801 1.450238 0.108742
v 0.221641 1.383838 0.093911
v 0.270385 1.630389 -0.123946
v 0.304410 1.718591 -0.107869
v 0.330142 1.673940 -0.106701
v 0.348033 1.684863 -0.075948
v 0.270385 1.630389 -0.123946
v 0.270036 1.688590 -0.136770
v 0.322187 1.667249 -0.140313
v 0.270385 1.630389 -0.123946
v 0.251326 1.616809 -0.152030
v 0.348537 1.683338 -0.124186
v 0.362984 1.696165 -0.095690
v 0.320400 1.733752 -0.123096
v 0.327763 1.748722 -0.101892
v 0.338383 1.755372 -0.077077
v 0.302375 1.707684 -0.138456
v 0.251326 1.616809 -0.152030
v 0.256912 1.673310 -0.158705
v 0.304410 1.718591 -0.107869
v 0.348033 1.684863 -0.075948
v 0.353944 1.691620 -0.044195
v 0.379364 1.702734 -0.048156
v 0.377265 1.698435 0.002322
v 0.357499 1.686368 -0.010979
v 0.347409 1.760044 -0.044827
v 0.377265 1.698435 0.002322
v 0.349469 1.757638 -0.009655
v 0.345593 1.752828 0.016913
v 0.344171 1.738786 0.040368
v 0.320873 1.768918 0.041738
v 0.308684 1.747834 0.052613
v 0.331296 1.712280 0.060030
v 0.371630 1.687008 0.034306
v 0.349075 1.676949 0.023238
v 0.357499 1.686368 -0.010979
v 0.324627 1.718590 0.028754
v 0.353135 1.670539 0.059133
v 0.320121 1.775060 0.020936
v 0.299303 1.634918 0.060644
v 0.288546 1.619651 0.094071
v 0.297874 1.682639 0.097617
v 0.298371 1.694241 0.060049
v 0.324627 1.718590 0.028754
v 0.288546 1.619651 0.094071
v 0.283340 1.778095 0.045267
v 0.305558 1.751521 0.029550
v 0.283934 1.775975 0.029500
v 0.264024 1.798382 0.040321
v 0.268617 1.806723 0.037712
v 0.246132 1.814381 0.034794
v 0.268313 1.805335 0.030203
v 0.292525 1.794778 0.040049
v 0.291916 1.792001 0.025031
v 0.283934 1.775975 0.029500
v 0.305558 1.751521 0.029550
v 0.345593 1.752828 0.016913
v 0.324627 1.718590 0.028754
v 0.264321 1.797322 0.032437
v 0.246132 1.814381 0.034794
v 0.264321 1.797322 0.032437
v 0.304410 1.718591 -0.107869
v 0.270036 1.688590 -0.136770
v 0.260188 1.774416 -0.113627
v 0.286205 1.748447 -0.103273
v 0.282647 1.743696 -0.126078
v 0.265269 1.773009 -0.098605
v 0.296790 1.765860 -0.120608
v 0.269358 1.789986 -0.112061
v 0.274502 1.789631 -0.097619
v 0.302464 1.772254 -0.100246
v 0.265269 1.773009 -0.098605
v 0.286205 1.748447 -0.103273
v 0.251643 1.800939 -0.097107
v 0.249784 1.801984 -0.104446
v 0.244693 1.793564 -0.105256
v 0.247233 1.792860 -0.097745
v 0.247233 1.792860 -0.097745
v 0.304410 1.718591 -0.107869
v 0.327763 1.748722 -0.101892
v 0.304410 1.718591 -0.107869
v 0.224841 1.811286 -0.093824
v 0.224841 1.811286 -0.093824
v 0.333196 1.739087 -0.042271
v 0.349469 1.757638 -0.009655
v 0.334813 1.732515 -0.006800
v 0.345593 1.752828 0.016913
v 0.324627 1.718590 0.028754
v 0.338383 1.755372 -0.077077
v 0.324792 1.730923 -0.075570
v 0.327763 1.748722 -0.101892
v 0.304410 1.718591 -0.107869
v 0.324627 1.718590 0.028754
v 0.334813 1.732515 -0.006800
v 0.333196 1.739087 -0.042271
v 0.324792 1.730923 -0.075570
v 0.304410 1.718591 -0.107869
v 0.299303 1.634918 0.060644
v 0.298371 1.694241 0.060049
v 0.141057 1.585237 0.103281
v 0.141057 1.585237 0.103281
v 0.141057 1.585237 0.103281
v -0.147323 1.698451 -0.145843
v -0.086838 1.648719 -0.169062
v -0.106984 1.701438 -0.138334
v -0.086778 1.641844 -0.178817
v -0.145977 1.759608 -0.072734
v -0.094060 1.679089 -0.107971
v -0.181852 1.743952 -0.105883
v -0.199468 1.663660 -0.158561
v -0.236224 1.707218 -0.117085
v -0.272382 1.632784 -0.161613
v -0.278942 1.678019 -0.121994
v -0.210288 1.772078 -0.079701
v -0.265313 1.732962 -0.080721
v -0.306251 1.709186 -0.084354
v -0.286964 1.756622 -0.059648
v -0.330586 1.735538 -0.057949
v -0.345928 1.752183 -0.027236
v -0.305113 1.783934 -0.033934
v -0.236275 1.799348 -0.059175
v -0.309544 1.599531 -0.148997
v -0.350021 1.637257 -0.092032
v -0.325295 1.597878 -0.074231
v -0.344076 1.613176 -0.021430
v -0.369664 1.646327 -0.028345
v -0.288668 1.567555 -0.120772
v -0.253187 1.556445 -0.186522
v -0.238407 1.538892 -0.136493
v -0.179065 1.553904 -0.192431
v -0.161906 1.532922 -0.148709
v -0.318772 1.521209 -0.127963
v -0.369219 1.555244 -0.090339
v -0.397017 1.571664 -0.022123
v -0.344076 1.613176 -0.021430
v -0.291101 1.504317 -0.089416
v -0.228422 1.470278 -0.115795
v -0.254770 1.485506 -0.145296
v -0.317037 1.522352 -0.062098
v -0.330197 1.527172 -0.019466
v -0.397017 1.571664 -0.022123
v -0.195778 1.470409 -0.103011
v -0.217049 1.471268 -0.085595
v -0.290969 1.436700 -0.095502
v -0.264355 1.440367 -0.069956
v -0.321782 1.427773 -0.059496
v -0.287951 1.429547 -0.045247
v -0.208474 1.475976 -0.142678
v -0.164060 1.484549 -0.143394
v -0.152683 1.481319 -0.107447
v -0.331457 1.423947 -0.023412
v -0.292486 1.427235 -0.022051
v -0.096663 1.515526 -0.154467
v -0.107791 1.547352 -0.149782
v -0.096249 1.543317 -0.134013
v -0.081362 1.567466 -0.127863
v -0.084905 1.512737 -0.119279
v -0.118976 1.566684 -0.188476
v -0.104979 1.586557 -0.186096
v -0.081362 1.567466 -0.127863
v -0.179065 1.553904 -0.192431
v -0.134394 1.618417 -0.217619
v -0.084905 1.512737 -0.119279
v -0.062211 1.584557 -0.133758
v -0.077652 1.607604 -0.187007
v -0.043922 1.586822 -0.138899
v -0.060666 1.606468 -0.192489
v -0.030068 1.595268 -0.141632
v -0.047982 1.616378 -0.193694
v -0.046470 1.633524 -0.188131
v -0.046470 1.633524 -0.188131
v -0.066384 1.656777 -0.176925
v -0.047135 1.637486 -0.125359
v -0.028139 1.614557 -0.138044
v -0.069091 1.630915 -0.127944
v -0.077652 1.607604 -0.187007
v -0.092670 1.643895 -0.206761
v -0.046470 1.633524 -0.188131
v -0.030068 1.595268 -0.141632
v -0.047982 1.616378 -0.193694
v -0.208821 1.590001 -0.211793
v -0.255347 1.571614 -0.209084
v -0.208821 1.590001 -0.211793
v -0.179065 1.553904 -0.192431
v -0.151814 1.751533 0.089997
v -0.144628 1.747320 0.013930
v -0.126610 1.724050 0.070335
v -0.103791 1.676263 0.112384
v -0.144628 1.747320 0.013930
v -0.166098 1.782613 0.010080
v -0.188045 1.769249 0.026590
v -0.180762 1.764556 -0.022875
v -0.198350 1.750245 0.098654
v -0.161581 1.701696 0.145162
v -0.121077 1.697308 0.140856
v -0.103791 1.676263 0.112384
v -0.106344 1.649591 0.171579
v -0.089068 1.636951 0.142015
v -0.139209 1.661691 0.200447
v -0.099419 1.659104 0.188115
v -0.069755 1.638634 0.141357
v -0.085350 1.629991 0.213974
v -0.055831 1.611189 0.164751
v -0.225941 1.670277 0.142146
v -0.247929 1.716107 0.094983
v -0.290635 1.637401 0.133921
v -0.294687 1.687223 0.094080
v -0.218577 1.776225 0.068456
v -0.270631 1.744855 0.060713
v -0.315332 1.716697 0.056804
v -0.329740 1.594720 0.116480
v -0.357977 1.631220 0.062434
v -0.329254 1.597907 0.038979
v -0.344076 1.613176 -0.021430
v -0.369267 1.643834 0.022436
v -0.299314 1.565112 0.089647
v -0.269849 1.544850 0.181696
v -0.245281 1.529259 0.136267
v -0.206325 1.526656 0.160311
v -0.229140 1.539593 0.196643
v -0.327095 1.509484 0.094912
v -0.377721 1.553115 0.046649
v -0.277707 1.471683 0.128283
v -0.303868 1.502892 0.054537
v -0.258440 1.466593 0.086582
v -0.228190 1.464779 0.155680
v -0.199882 1.460831 0.115744
v -0.296502 1.438118 0.059305
v -0.268341 1.438687 0.034583
v -0.320585 1.426969 0.022855
v -0.287357 1.429519 0.011199
v -0.240057 1.465886 0.057744
v -0.142791 1.546862 0.185916
v -0.179180 1.488224 0.182771
v -0.133851 1.525084 0.194396
v -0.151636 1.482111 0.143775
v -0.107388 1.517544 0.161731
v -0.292486 1.427235 -0.022051
v -0.331457 1.423947 -0.023412
v -0.321024 1.522811 0.029473
v -0.330197 1.527172 -0.019466
v -0.397017 1.571664 -0.022123
v -0.377721 1.553115 0.046649
v -0.344076 1.613176 -0.021430
v -0.397017 1.571664 -0.022123
v -0.128461 1.541360 0.162964
v -0.107388 1.517544 0.161731
v -0.142791 1.546862 0.185916
v -0.327095 1.509484 0.094912
v -0.154314 1.587343 0.205568
v -0.159157 1.562586 0.216576
v -0.118777 1.567331 0.153530
v -0.219054 1.571964 0.185803
v -0.176943 1.618959 0.219958
v -0.132163 1.640603 0.225086
v -0.125306 1.602417 0.206413
v -0.154314 1.587343 0.205568
v -0.118777 1.567331 0.153530
v -0.094603 1.583414 0.156459
v -0.240833 1.586953 0.204957
v -0.285850 1.570310 0.198464
v -0.290635 1.637401 0.133921
v -0.229140 1.539593 0.196643
v -0.119528 1.642548 0.190490
v -0.125306 1.602417 0.206413
v -0.083396 1.579143 0.165680
v -0.113705 1.598149 0.216710
v -0.063830 1.588259 0.174477
v -0.093450 1.606024 0.223998
v -0.119528 1.642548 0.190490
v -0.093450 1.606024 0.223998
v -0.063830 1.588259 0.174477
v -0.055831 1.611189 0.164751
v -0.093450 1.606024 0.223998
v -0.094060 1.679089 -0.107971
v -0.126136 1.730674 -0.055429
v -0.144628 1.747320 0.013930
v -0.144831 1.610716 -0.084374
v -0.081362 1.567466 -0.127863
v -0.096249 1.543317 -0.134013
v -0.084905 1.512737 -0.119279
v -0.173563 1.523600 -0.096330
v -0.282578 1.536620 -0.063200
v -0.156173 1.641987 -0.055758
v -0.126136 1.730674 -0.055429
v -0.166466 1.662971 -0.008431
v -0.144628 1.747320 0.013930
v -0.217049 1.471268 -0.085595
v -0.264355 1.440367 -0.069956
v -0.306625 1.536094 -0.016827
v -0.286074 1.537665 0.038365
v -0.161036 1.644569 0.039001
v -0.144628 1.747320 0.013930
v -0.126610 1.724050 0.070335
v -0.292486 1.427235 -0.022051
v -0.287357 1.429519 0.011199
v -0.268341 1.438687 0.034583
v -0.203106 1.553077 0.090872
v -0.146831 1.608527 0.061002
v -0.103791 1.676263 0.112384
v -0.089068 1.636951 0.142015
v -0.126610 1.724050 0.070335
v -0.240057 1.465886 0.057744
v -0.107388 1.517544 0.161731
v -0.128461 1.541360 0.162964
v -0.118777 1.567331 0.153530
v -0.094603 1.583414 0.156459
v -0.069755 1.638634 0.141357
v -0.151636 1.482111 0.143775
v -0.199882 1.460831 0.115744
v -0.258440 1.466593 0.086582
v -0.240057 1.465886 0.057744
v -0.258440 1.466593 0.086582
v -0.083396 1.579143 0.165680
v -0.069755 1.638634 0.141357
v -0.055831 1.611189 0.164751
v -0.055831 1.611189 0.164751
v -0.063830 1.588259 0.174477
v -0.089068 1.636951 0.142015
v -0.126136 1.730674 -0.055429
v -0.094060 1.679089 -0.107971
v -0.069091 1.630915 -0.127944
v -0.062211 1.584557 -0.133758
v -0.094060 1.679089 -0.107971
v -0.047135 1.637486 -0.125359
v -0.062211 1.584557 -0.133758
v -0.028139 1.614557 -0.138044
v -0.043922 1.586822 -0.138899
v -0.030068 1.595268 -0.141632
v -0.378566 1.680144 0.020745
v -0.369267 1.643834 0.022436
v -0.332245 1.738774 0.036714
v -0.398809 1.705586 0.004901
v -0.418980 1.663812 0.029322
v -0.428081 1.688928 0.013450
v -0.397934 1.704895 -0.027181
v -0.347578 1.752158 0.007204
v -0.431454 1.686692 -0.014323
v -0.369263 1.682033 -0.042272
v -0.425568 1.660330 -0.024649
v -0.369267 1.643834 0.022436
v -0.417321 1.635700 0.022357
v -0.421637 1.635025 -0.011100
v -0.369267 1.643834 0.022436
v -0.417321 1.635700 0.022357
v -0.310492 1.781191 0.002765
v -0.261265 1.822512 -0.029534
v -0.264107 1.821679 0.013300
v -0.221637 1.829147 -0.027026
v -0.224412 1.828274 0.015496
v -0.202100 1.800614 0.036666
v -0.240263 1.801674 0.047268
v -0.198105 1.803038 -0.045985
v -0.180762 1.764556 -0.022875
v -0.180762 1.764556 -0.022875
v -0.297629 1.767900 0.033524
v -0.166098 1.782613 0.010080
v -0.180762 1.764556 -0.022875
v -0.461847 1.677373 0.005801
v -0.461080 1.678625 0.024614
v -0.510252 1.672916 0.035916
v -0.462806 1.662106 0.034528
v -0.464995 1.658999 -0.003951
v -0.466350 1.642396 0.006167
v -0.510252 1.672916 0.035916
v -0.465007 1.644146 0.025792
v -0.465007 1.644146 0.025792
v -0.195778 1.470409 -0.103011
v -0.152683 1.481319 -0.107447
v -0.287951 1.429547 -0.045247
v 0.324627 1.718590 0.028754
v -0.369267 1.643834 0.022436
v 0.249894 1.392634 0.135948
v -0.180762 1.764556 -0.022875
v -0.198105 1.803038 -0.045985
v -0.236275 1.799348 -0.059175
v -0.238407 1.538892 -0.136493
v -0.254770 1.485506 -0.145296
vt 0.174204 0.499121
vt 0.217059 0.428196
vt 0.165941 0.449161
vt 0.134335 0.435078
vt 0.195038 0.398834
vt 0.240284 0.370709
vt 0.255383 0.412833
vt 0.301012 0.400265
vt 0.278233 0.355039
vt 0.311581 0.390126
vt 0.293893 0.350976
vt 0.372838 0.424849
vt 0.377751 0.417679
vt 0.352430 0.453202
vt 0.415838 0.461296
vt 0.254312 0.331074
vt 0.310503 0.474670
vt 0.423279 0.454789
vt 0.465868 0.508650
vt 0.476302 0.505469
vt 0.394280 0.500661
vt 0.432790 0.569462
vt 0.500042 0.572373
vt 0.476302 0.505469
vt 0.453204 0.640358
vt 0.392343 0.584325
vt 0.398965 0.643621
vt 0.521942 0.644184
vt 0.512005 0.569855
vt 0.537164 0.641347
vt 0.531664 0.710792
vt 0.543819 0.716386
vt 0.476302 0.505469
vt 0.389318 0.543248
vt 0.371486 0.500005
vt 0.322599 0.512239
vt 0.354092 0.541639
vt 0.297900 0.555952
vt 0.307928 0.567796
vt 0.347716 0.562613
vt 0.361841 0.601212
vt 0.323708 0.597566
vt 0.330918 0.648666
vt 0.368084 0.648003
vt 0.287256 0.605944
vt 0.264870 0.569282
vt 0.296399 0.659054
vt 0.198113 0.653018
vt 0.194321 0.707707
vt 0.289412 0.712139
vt 0.190679 0.604414
vt 0.326692 0.698721
vt 0.264870 0.569282
vt 0.143477 0.656080
vt 0.143744 0.715023
vt 0.190078 0.766152
vt 0.198113 0.653018
vt 0.138053 0.597823
vt 0.134227 0.541078
vt 0.183938 0.548373
vt 0.071018 0.598385
vt 0.143477 0.656080
vt 0.073643 0.651019
vt 0.076366 0.709623
vt 0.075203 0.768022
vt 0.141468 0.768456
vt 0.078222 0.822572
vt 0.141482 0.822992
vt 0.023657 0.768386
vt 0.078222 0.822572
vt 0.024390 0.830501
vt 0.076202 0.884062
vt 0.047519 0.907842
vt 0.076202 0.884062
vt 0.149017 0.881787
vt 0.140333 0.899911
vt 0.238430 0.943292
vt 0.225521 0.972512
vt 0.124713 0.935146
vt 0.207347 0.913100
vt 0.185112 0.862567
vt 0.226694 0.882838
vt 0.261496 0.938536
vt 0.283931 0.892148
vt 0.321328 0.902204
vt 0.326658 0.883634
vt 0.297465 0.942846
vt 0.336965 0.919266
vt 0.315241 0.947990
vt 0.360263 0.889983
vt 0.367010 0.904094
vt 0.404978 0.877465
vt 0.412347 0.886231
vt 0.439682 0.859125
vt 0.449365 0.862809
vt 0.374981 0.848240
vt 0.419760 0.828193
vt 0.420231 0.787732
vt 0.426658 0.789573
vt 0.373440 0.793262
vt 0.357508 0.847293
vt 0.436806 0.826184
vt 0.436806 0.826184
vt 0.444679 0.720749
vt 0.447389 0.750743
vt 0.445939 0.793673
vt 0.479549 0.720007
vt 0.464872 0.760580
vt 0.445939 0.793673
vt 0.492833 0.734886
vt 0.506811 0.708363
vt 0.515277 0.725518
vt 0.531664 0.710792
vt 0.400551 0.703724
vt 0.408399 0.747734
vt 0.402696 0.776179
vt 0.367489 0.694696
vt 0.367331 0.723970
vt 0.371316 0.742546
vt 0.384312 0.762685
vt 0.325772 0.716134
vt 0.315298 0.737549
vt 0.311557 0.762995
vt 0.350681 0.783377
vt 0.300807 0.791945
vt 0.266025 0.760808
vt 0.250560 0.817098
vt 0.185023 0.812206
vt 0.237530 0.848925
vt 0.185112 0.862567
vt 0.292884 0.827000
vt 0.275344 0.851566
vt 0.336760 0.838594
vt 0.317844 0.869956
vt 0.283931 0.892148
vt 0.321328 0.902204
vt 0.315298 0.737549
vt 0.174204 0.499121
vt 0.241815 0.485288
vt 0.257113 0.538908
vt 0.271008 0.479608
vt 0.190679 0.604414
vt 0.291516 0.524212
vt 0.131479 0.489817
vt 0.061241 0.492763
vt 0.131479 0.489817
vt 0.067111 0.546773
vt 0.071018 0.598385
vt 0.131479 0.489817
vt 0.165941 0.449161
vt 0.061241 0.492763
vt 0.020552 0.552679
vt 0.012370 0.491283
vt 0.055518 0.434808
vt 0.024515 0.602428
vt 0.027409 0.653448
vt 0.073643 0.651019
vt 0.027986 0.706027
vt 0.023657 0.768386
vt 0.118884 0.412731
vt 0.099517 0.380252
vt 0.202271 0.332398
vt 0.212366 0.361683
vt 0.254312 0.331074
vt 0.240284 0.370709
vt 0.027186 0.415640
vt 0.055518 0.434808
vt 0.291402 0.105730
vt 0.323747 0.136439
vt 0.331081 0.095733
vt 0.275878 0.128885
vt 0.266436 0.160110
vt 0.251729 0.128850
vt 0.242770 0.162593
vt 0.270229 0.098960
vt 0.295073 0.061186
vt 0.312297 0.079147
vt 0.240594 0.101159
vt 0.220509 0.132993
vt 0.262416 0.188352
vt 0.243340 0.198123
vt 0.265274 0.224572
vt 0.273579 0.215070
vt 0.211330 0.168433
vt 0.209065 0.206529
vt 0.327601 0.179661
vt 0.329803 0.216288
vt 0.289967 0.240802
vt 0.347697 0.257432
vt 0.310663 0.263239
vt 0.293841 0.273600
vt 0.281041 0.246962
vt 0.259276 0.238573
vt 0.273254 0.252973
vt 0.337314 0.286377
vt 0.323476 0.302248
vt 0.305319 0.302459
vt 0.279772 0.297108
vt 0.260105 0.286279
vt 0.446231 0.176440
vt 0.445226 0.158199
vt 0.448067 0.201881
vt 0.451500 0.228236
vt 0.274685 0.271402
vt 0.260105 0.286279
vt 0.273254 0.252973
vt 0.274685 0.271402
vt 0.239741 0.230342
vt 0.226066 0.232879
vt 0.215594 0.243383
vt 0.215594 0.243383
vt 0.436806 0.826184
vt 0.449365 0.862809
vt 0.445939 0.793673
vt 0.258963 0.076554
vt 0.220509 0.132993
vt 0.543819 0.716386
vt 0.190078 0.766152
vt 0.141468 0.768456
vt 0.185023 0.812206
vt 0.141482 0.822992
vt 0.185112 0.862567
vt 0.149017 0.881787
vt 0.274198 0.736054
vt 0.325772 0.716134
vt 0.274198 0.736054
vt 0.441461 0.123787
vt 0.439246 0.098375
vt 0.337707 0.068819
vt 0.337707 0.068819
vt 0.398595 0.071901
vt 0.436483 0.064976
vt 0.443422 0.141122
vt 0.441461 0.123787
vt 0.445226 0.158199
vt 0.364499 0.285329
vt 0.451500 0.228236
vt 0.364499 0.285329
vt 0.420359 0.266312
vt 0.458910 0.262700
vt 0.044771 0.037704
vt 0.027663 0.117045
vt 0.072325 0.102407
vt 0.079273 0.138889
vt 0.044771 0.037704
vt 0.012231 0.075682
vt 0.088383 0.073115
vt 0.044771 0.037704
vt 0.046307 0.008763
vt 0.098832 0.099897
vt 0.101872 0.128305
vt 0.148149 0.090495
vt 0.164514 0.116746
vt 0.157292 0.145432
vt 0.128417 0.058909
vt 0.046307 0.008763
vt 0.091319 0.014155
vt 0.151631 0.041395
vt 0.079273 0.138889
vt 0.076836 0.172628
vt 0.099887 0.173673
vt 0.098430 0.219176
vt 0.076565 0.207120
vt 0.155505 0.175814
vt 0.098430 0.219176
vt 0.154835 0.207582
vt 0.160685 0.236031
vt 0.142769 0.261777
vt 0.173822 0.274089
vt 0.161453 0.291833
vt 0.120249 0.292341
vt 0.093125 0.247765
vt 0.066644 0.241795
vt 0.076565 0.207120
vt 0.025624 0.224463
vt 0.079966 0.273499
vt 0.184568 0.261419
vt 0.032933 0.302653
vt 0.029372 0.332786
vt 0.079926 0.331766
vt 0.111587 0.332027
vt 0.141843 0.312478
vt 0.029372 0.332786
vt 0.197060 0.301123
vt 0.167963 0.310772
vt 0.195244 0.314782
vt 0.222457 0.305852
vt 0.226146 0.298181
vt 0.244728 0.308078
vt 0.229387 0.292590
vt 0.205395 0.287557
vt 0.210331 0.277234
vt 0.219630 0.264675
vt 0.201790 0.244647
vt 0.160685 0.236031
vt 0.198153 0.221882
vt 0.221923 0.312829
vt 0.244728 0.308078
vt 0.234992 0.286793
vt 0.151631 0.041395
vt 0.114029 0.021752
vt 0.205056 0.053604
vt 0.176351 0.041837
vt 0.169093 0.060640
vt 0.203963 0.039840
vt 0.180886 0.078651
vt 0.212123 0.066486
vt 0.216089 0.077599
vt 0.190095 0.092413
vt 0.225130 0.091008
vt 0.205884 0.110338
vt 0.234615 0.064797
vt 0.231746 0.058882
vt 0.228546 0.050887
vt 0.239914 0.071035
vt 0.228232 0.043813
vt 0.151631 0.041395
vt 0.164514 0.116746
vt 0.198973 0.129899
vt 0.254749 0.048439
vt 0.254749 0.048439
vt 0.176243 0.176199
vt 0.154835 0.207582
vt 0.179015 0.205907
vt 0.160685 0.236031
vt 0.198153 0.221882
vt 0.157292 0.145432
vt 0.180419 0.147317
vt 0.164514 0.116746
vt 0.198973 0.129899
vt 0.025624 0.224463
vt 0.031646 0.196463
vt 0.030855 0.170649
vt 0.033773 0.145608
vt 0.027663 0.117045
vt 0.032933 0.302653
vt 0.007331 0.259131
vt 0.280519 0.986799
vt 0.280519 0.986799
vt 0.280519 0.986799
vt 0.877868 0.758331
vt 0.917681 0.827751
vt 0.913966 0.762883
vt 0.906999 0.843614
vt 0.912066 0.664264
vt 0.952171 0.757193
vt 0.870252 0.693131
vt 0.819691 0.765361
vt 0.807000 0.705424
vt 0.748253 0.760690
vt 0.756726 0.710984
vt 0.857863 0.658934
vt 0.790508 0.665706
vt 0.742642 0.666188
vt 0.782231 0.639979
vt 0.737430 0.630366
vt 0.737660 0.599381
vt 0.780853 0.608572
vt 0.845758 0.640502
vt 0.703306 0.768810
vt 0.677053 0.701119
vt 0.645131 0.733266
vt 0.616080 0.685710
vt 0.639498 0.645401
vt 0.672772 0.797298
vt 0.729821 0.835261
vt 0.696155 0.856128
vt 0.782055 0.871756
vt 0.755038 0.906148
vt 0.631452 0.824303
vt 0.602007 0.769185
vt 0.555030 0.721802
vt 0.616080 0.685710
vt 0.598912 0.855625
vt 0.640021 0.921359
vt 0.657545 0.887377
vt 0.571547 0.821813
vt 0.533525 0.799906
vt 0.555030 0.721802
vt 0.657992 0.953189
vt 0.628568 0.954300
vt 0.572059 0.910357
vt 0.571034 0.942304
vt 0.531707 0.899571
vt 0.531575 0.932813
vt 0.683436 0.918440
vt 0.720194 0.935656
vt 0.706665 0.976651
vt 0.498986 0.894235
vt 0.506946 0.932920
vt 0.784941 0.951165
vt 0.806446 0.930583
vt 0.813333 0.952358
vt 0.845715 0.956436
vt 0.789392 0.989247
vt 0.824343 0.891849
vt 0.850035 0.891554
vt 0.845715 0.956436
vt 0.782055 0.871756
vt 0.850977 0.852567
vt 0.789392 0.989247
vt 0.874907 0.949454
vt 0.888259 0.885834
vt 0.892870 0.951399
vt 0.904530 0.893318
vt 0.908289 0.953622
vt 0.921352 0.894403
vt 0.926182 0.879222
vt 0.926182 0.879222
vt 0.924160 0.849863
vt 0.978985 0.836859
vt 0.981860 0.871211
vt 0.966763 0.815946
vt 0.888259 0.885834
vt 0.887936 0.850192
vt 0.926182 0.879222
vt 0.984625 0.890266
vt 0.921352 0.894403
vt 0.780496 0.836820
vt 0.742900 0.830546
vt 0.780496 0.836820
vt 0.782055 0.871756
vt 0.912373 0.480323
vt 0.950546 0.568458
vt 0.948842 0.480548
vt 0.954526 0.398692
vt 0.950546 0.568458
vt 0.917863 0.570857
vt 0.897594 0.547392
vt 0.896199 0.603775
vt 0.869173 0.481744
vt 0.881890 0.404811
vt 0.917526 0.393377
vt 0.954526 0.398692
vt 0.931276 0.333065
vt 0.969483 0.345381
vt 0.890419 0.333565
vt 0.928422 0.315646
vt 0.986195 0.327999
vt 0.928436 0.281148
vt 0.991222 0.288208
vt 0.819245 0.409680
vt 0.812643 0.474660
vt 0.751671 0.417768
vt 0.759470 0.470160
vt 0.857604 0.518754
vt 0.799833 0.515410
vt 0.748150 0.512773
vt 0.695243 0.406694
vt 0.673343 0.467542
vt 0.633623 0.440195
vt 0.595449 0.490386
vt 0.652966 0.507028
vt 0.659707 0.376374
vt 0.726146 0.324460
vt 0.692276 0.301817
vt 0.726916 0.266628
vt 0.753384 0.293444
vt 0.615701 0.337535
vt 0.585162 0.403933
vt 0.638431 0.278145
vt 0.575720 0.320099
vt 0.601718 0.257497
vt 0.673048 0.241272
vt 0.652214 0.202848
vt 0.551596 0.265498
vt 0.545458 0.232738
vt 0.513846 0.274275
vt 0.511370 0.242701
vt 0.590662 0.224890
vt 0.796840 0.233180
vt 0.724468 0.221304
vt 0.779693 0.217242
vt 0.716075 0.178705
vt 0.782430 0.175556
vt 0.477231 0.245708
vt 0.472583 0.284591
vt 0.556207 0.351595
vt 0.514509 0.375480
vt 0.539733 0.451231
vt 0.585162 0.403933
vt 0.595449 0.490386
vt 0.539733 0.451231
vt 0.805219 0.203362
vt 0.782430 0.175556
vt 0.796840 0.233180
vt 0.615701 0.337535
vt 0.835493 0.276828
vt 0.817965 0.266342
vt 0.833101 0.204452
vt 0.782263 0.312995
vt 0.850073 0.308795
vt 0.886784 0.308282
vt 0.876351 0.270847
vt 0.835493 0.276828
vt 0.833101 0.204452
vt 0.861674 0.204638
vt 0.770322 0.330786
vt 0.737025 0.341178
vt 0.751671 0.417768
vt 0.753384 0.293444
vt 0.909987 0.315049
vt 0.876351 0.270847
vt 0.876209 0.202708
vt 0.891173 0.267880
vt 0.898069 0.198650
vt 0.917522 0.261305
vt 0.909987 0.315049
vt 0.917522 0.261305
vt 0.988216 0.263135
vt 0.991222 0.288208
vt 0.917522 0.261305
vt 0.952171 0.757193
vt 0.947249 0.666118
vt 0.950546 0.568458
vt 0.511365 0.079772
vt 0.462282 0.080095
vt 0.459140 0.095395
vt 0.454923 0.115816
vt 0.503843 0.132767
vt 0.561650 0.152117
vt 0.543618 0.061237
vt 0.546855 0.011802
vt 0.588927 0.048994
vt 0.595118 0.006822
vt 0.515718 0.171768
vt 0.539198 0.201769
vt 0.583094 0.156780
vt 0.608674 0.150728
vt 0.633285 0.059780
vt 0.595118 0.006822
vt 0.637848 0.014314
vt 0.577765 0.216356
vt 0.600995 0.213508
vt 0.619814 0.205346
vt 0.655599 0.125378
vt 0.666176 0.079200
vt 0.676634 0.032496
vt 0.702538 0.044832
vt 0.637848 0.014314
vt 0.639268 0.182273
vt 0.725216 0.117290
vt 0.716812 0.102528
vt 0.710956 0.089230
vt 0.718562 0.076804
vt 0.713488 0.044525
vt 0.710309 0.144740
vt 0.689181 0.168820
vt 0.657110 0.184705
vt 0.639268 0.182273
vt 0.657110 0.184705
vt 0.727294 0.076751
vt 0.713488 0.044525
vt 0.732928 0.053648
vt 0.732928 0.053648
vt 0.736878 0.067332
vt 0.702538 0.044832
vt 0.546855 0.011802
vt 0.503031 0.029523
vt 0.474176 0.045401
vt 0.456711 0.066278
vt 0.503031 0.029523
vt 0.466171 0.035423
vt 0.456711 0.066278
vt 0.448315 0.041819
vt 0.447891 0.059937
vt 0.443246 0.051796
vt 0.674433 0.533619
vt 0.652966 0.507028
vt 0.743988 0.540370
vt 0.685431 0.565605
vt 0.627806 0.536619
vt 0.639127 0.559783
vt 0.684158 0.601863
vt 0.738083 0.569908
vt 0.635936 0.584036
vt 0.673610 0.636448
vt 0.621730 0.601797
vt 0.652966 0.507028
vt 0.616630 0.516488
vt 0.606259 0.612971
vt 0.588382 0.648289
vt 0.580806 0.620242
vt 0.776058 0.578383
vt 0.826713 0.606950
vt 0.827058 0.575164
vt 0.854284 0.604978
vt 0.856695 0.571340
vt 0.877764 0.548526
vt 0.843507 0.547070
vt 0.868890 0.624180
vt 0.896199 0.603775
vt 0.896199 0.603775
vt 0.783353 0.549722
vt 0.917863 0.570857
vt 0.896199 0.603775
vt 0.583671 0.566482
vt 0.582411 0.554173
vt 0.530088 0.551194
vt 0.582125 0.541887
vt 0.582948 0.578605
vt 0.576520 0.587031
vt 0.530088 0.551194
vt 0.565049 0.592241
vt 0.581097 0.528850
vt 0.499286 0.166099
vt 0.480961 0.149345
vt 0.560531 0.212886
vt 0.141843 0.312478
vt 0.588382 0.648289
vt 0.076202 0.884062
vt 0.896199 0.603775
vt 0.868890 0.624180
vt 0.845758 0.640502
vt 0.696155 0.856128
vt 0.657545 0.887377
f 3/3/3 2/2/2 1/1/1
f 3/3/3 4/4/4 2/2/2
f 5/5/5 2/2/2 4/4/4
f 5/5/5 6/6/6 2/2/2
f 7/7/7 2/2/2 6/6/6
f 7/7/7 6/6/6 8/8/8
f 9/9/9 8/8/8 6/6/6
f 8/8/8 9/9/9 10/10/10
f 11/11/11 10/10/10 9/9/9
f 8/8/8 10/10/10 12/12/12
f 13/13/13 12/12/12 10/10/10
f 8/8/8 12/12/12 14/14/14
f 15/15/15 14/14/14 12/12/12
f 12/12/12 13/13/13 15/15/15
f 9/9/9 16/16/16 11/11/11
f 9/9/9 6/6/6 16/16/16
f 7/7/7 8/8/8 17/17/17
f 8/8/8 14/14/14 17/17/17
f 18/18/18 15/15/15 13/13/13
f 15/15/15 18/18/18 19/19/19
f 20/20/20 19/19/19 18/18/18
f 14/14/14 15/15/15 21/21/21
f 19/19/19 21/21/21 15/15/15
f 21/21/21 19/19/19 22/22/22
f 23/23/23 22/22/22 19/19/19
f 19/19/19 24/24/24 23/23/23
f 22/22/22 23/23/23 25/25/25
f 22/22/22 25/25/25 26/26/26
f 27/27/27 26/26/26 25/25/25
f 28/28/28 25/25/25 23/23/23
f 23/23/23 29/29/29 28/28/28
f 30/30/30 28/28/28 29/29/29
f 31/31/31 25/25/25 28/28/28
f 31/31/31 28/28/28 32/32/32
f 30/30/30 32/32/32 28/28/28
f 29/29/29 23/23/23 33/33/33
f 22/22/22 34/34/34 21/21/21
f 22/22/22 26/26/26 34/34/34
f 35/35/35 21/21/21 34/34/34
f 21/21/21 35/35/35 14/14/14
f 17/17/17 14/14/14 35/35/35
f 36/36/36 17/17/17 35/35/35
f 34/34/34 37/37/37 35/35/35
f 37/37/37 36/36/36 35/35/35
f 37/37/37 38/38/38 36/36/36
f 38/38/38 37/37/37 39/39/39
f 40/40/40 39/39/39 37/37/37
f 34/34/34 40/40/40 37/37/37
f 40/40/40 41/41/41 39/39/39
f 40/40/40 34/34/34 41/41/41
f 41/41/41 42/42/42 39/39/39
f 42/42/42 41/41/41 43/43/43
f 44/44/44 43/43/43 41/41/41
f 42/42/42 45/45/45 39/39/39
f 39/39/39 45/45/45 46/46/46
f 43/43/43 47/47/47 42/42/42
f 45/45/45 42/42/42 47/47/47
f 47/47/47 48/48/48 45/45/45
f 48/48/48 47/47/47 49/49/49
f 50/50/50 49/49/49 47/47/47
f 51/51/51 45/45/45 48/48/48
f 43/43/43 52/52/52 47/47/47
f 50/50/50 47/47/47 52/52/52
f 51/51/51 53/53/53 45/45/45
f 48/48/48 54/54/54 51/51/51
f 54/54/54 48/48/48 55/55/55
f 49/49/49 56/56/56 55/55/55
f 49/49/49 55/55/55 57/57/57
f 58/58/58 51/51/51 54/54/54
f 58/58/58 59/59/59 51/51/51
f 60/60/60 51/51/51 59/59/59
f 60/60/60 59/59/59 1/1/1
f 58/58/58 61/61/61 59/59/59
f 58/58/58 62/62/62 61/61/61
f 63/63/63 61/61/61 54/54/54
f 54/54/54 55/55/55 63/63/63
f 64/64/64 63/63/63 55/55/55
f 64/64/64 55/55/55 65/65/65
f 66/66/66 65/65/65 55/55/55
f 65/65/65 66/66/66 67/67/67
f 68/68/68 67/67/67 66/66/66
f 65/65/65 69/69/69 64/64/64
f 65/65/65 70/70/70 69/69/69
f 71/71/71 69/69/69 70/70/70
f 70/70/70 72/72/72 71/71/71
f 73/73/73 71/71/71 72/72/72
f 67/67/67 68/68/68 74/74/74
f 75/75/75 74/74/74 68/68/68
f 76/76/76 74/74/74 75/75/75
f 76/76/76 75/75/75 77/77/77
f 77/77/77 78/78/78 76/76/76
f 79/79/79 76/76/76 78/78/78
f 80/80/80 77/77/77 75/75/75
f 75/75/75 81/81/81 80/80/80
f 82/82/82 80/80/80 81/81/81
f 80/80/80 82/82/82 83/83/83
f 80/80/80 83/83/83 77/77/77
f 84/84/84 83/83/83 82/82/82
f 84/84/84 85/85/85 83/83/83
f 86/86/86 85/85/85 84/84/84
f 87/87/87 83/83/83 85/85/85
f 85/85/85 88/88/88 87/87/87
f 89/89/89 87/87/87 88/88/88
f 85/85/85 90/90/90 88/88/88
f 91/91/91 88/88/88 90/90/90
f 90/90/90 92/92/92 91/91/91
f 93/93/93 91/91/91 92/92/92
f 92/92/92 94/94/94 93/93/93
f 95/95/95 93/93/93 94/94/94
f 94/94/94 92/92/92 96/96/96
f 90/90/90 85/85/85 96/96/96
f 92/92/92 90/90/90 96/96/96
f 97/97/97 94/94/94 96/96/96
f 96/96/96 98/98/98 97/97/97
f 99/99/99 97/97/97 98/98/98
f 98/98/98 96/96/96 100/100/100
f 101/101/101 100/100/100 96/96/96
f 97/97/97 102/102/102 94/94/94
f 97/97/97 99/99/99 103/103/103
f 98/98/98 104/104/104 99/99/99
f 105/105/105 99/99/99 104/104/104
f 99/99/99 105/105/105 106/106/106
f 107/107/107 105/105/105 104/104/104
f 105/105/105 107/107/107 108/108/108
f 108/108/108 109/109/109 105/105/105
f 110/110/110 108/108/108 107/107/107
f 107/107/107 111/111/111 110/110/110
f 107/107/107 104/104/104 111/111/111
f 112/112/112 110/110/110 111/111/111
f 111/111/111 113/113/113 112/112/112
f 25/25/25 111/111/111 104/104/104
f 104/104/104 114/114/114 25/25/25
f 115/115/115 114/114/114 104/104/104
f 104/104/104 98/98/98 115/115/115
f 116/116/116 115/115/115 98/98/98
f 27/27/27 25/25/25 114/114/114
f 114/114/114 117/117/117 27/27/27
f 115/115/115 117/117/117 114/114/114
f 44/44/44 27/27/27 117/117/117
f 118/118/118 117/117/117 115/115/115
f 118/118/118 115/115/115 119/119/119
f 120/120/120 119/119/119 115/115/115
f 116/116/116 120/120/120 115/115/115
f 118/118/118 119/119/119 121/121/121
f 122/122/122 121/121/121 119/119/119
f 122/122/122 119/119/119 123/123/123
f 120/120/120 123/123/123 119/119/119
f 117/117/117 118/118/118 52/52/52
f 121/121/121 52/52/52 118/118/118
f 52/52/52 43/43/43 117/117/117
f 44/44/44 117/117/117 43/43/43
f 44/44/44 41/41/41 27/27/27
f 26/26/26 27/27/27 41/41/41
f 26/26/26 41/41/41 34/34/34
f 120/120/120 116/116/116 124/124/124
f 120/120/120 124/124/124 123/123/123
f 100/100/100 124/124/124 116/116/116
f 125/125/125 123/123/123 124/124/124
f 123/123/123 125/125/125 126/126/126
f 127/127/127 126/126/126 125/125/125
f 126/126/126 127/127/127 56/56/56
f 128/128/128 56/56/56 127/127/127
f 127/127/127 129/129/129 128/128/128
f 129/129/129 82/82/82 128/128/128
f 82/82/82 130/130/130 128/128/128
f 127/127/127 131/131/131 129/129/129
f 125/125/125 131/131/131 127/127/127
f 132/132/132 129/129/129 131/131/131
f 131/131/131 125/125/125 133/133/133
f 124/124/124 133/133/133 125/125/125
f 100/100/100 101/101/101 124/124/124
f 133/133/133 124/124/124 101/101/101
f 133/133/133 101/101/101 134/134/134
f 132/132/132 131/131/131 134/134/134
f 133/133/133 134/134/134 131/131/131
f 132/132/132 134/134/134 84/84/84
f 132/132/132 84/84/84 129/129/129
f 84/84/84 82/82/82 129/129/129
f 86/86/86 134/134/134 101/101/101
f 86/86/86 135/135/135 134/134/134
f 86/86/86 101/101/101 136/136/136
f 137/137/137 123/123/123 126/126/126
f 96/96/96 85/85/85 101/101/101
f 139/139/139 138/138/138 2/2/2
f 138/138/138 139/139/139 60/60/60
f 140/140/140 60/60/60 139/139/139
f 2/2/2 141/141/141 139/139/139
f 139/139/139 141/141/141 140/140/140
f 60/60/60 140/140/140 142/142/142
f 53/53/53 142/142/142 140/140/140
f 143/143/143 140/140/140 141/141/141
f 38/38/38 140/140/140 143/143/143
f 143/143/143 36/36/36 38/38/38
f 141/141/141 17/17/17 143/143/143
f 36/36/36 143/143/143 17/17/17
f 2/2/2 7/7/7 141/141/141
f 7/7/7 17/17/17 141/141/141
f 144/144/144 138/138/138 59/59/59
f 138/138/138 144/144/144 3/3/3
f 146/146/146 59/59/59 145/145/145
f 147/147/147 145/145/145 59/59/59
f 147/147/147 59/59/59 148/148/148
f 146/146/146 145/145/145 4/4/4
f 4/4/4 150/150/150 149/149/149
f 147/147/147 152/152/152 151/151/151
f 153/153/153 151/151/151 152/152/152
f 151/151/151 153/153/153 154/154/154
f 154/154/154 4/4/4 151/151/151
f 147/147/147 61/61/61 152/152/152
f 155/155/155 152/152/152 61/61/61
f 155/155/155 61/61/61 156/156/156
f 157/157/157 156/156/156 148/148/148
f 157/157/157 64/64/64 156/156/156
f 158/158/158 156/156/156 64/64/64
f 158/158/158 64/64/64 159/159/159
f 4/4/4 154/154/154 160/160/160
f 160/160/160 154/154/154 161/161/161
f 161/161/161 162/162/162 160/160/160
f 163/163/163 160/160/160 162/162/162
f 162/162/162 164/164/164 163/163/163
f 165/165/165 163/163/163 164/164/164
f 166/166/166 161/161/161 154/154/154
f 166/166/166 167/167/167 153/153/153
f 160/160/160 163/163/163 4/4/4
f 5/5/5 4/4/4 163/163/163
f 6/6/6 5/5/5 163/163/163
f 170/170/170 169/169/169 168/168/168
f 171/171/171 168/168/168 169/169/169
f 172/172/172 171/171/171 169/169/169
f 171/171/171 172/172/172 173/173/173
f 174/174/174 173/173/173 172/172/172
f 168/168/168 171/171/171 175/175/175
f 173/173/173 175/175/175 171/171/171
f 175/175/175 176/176/176 168/168/168
f 177/177/177 168/168/168 176/176/176
f 170/170/170 168/168/168 177/177/177
f 175/175/175 173/173/173 178/178/178
f 179/179/179 178/178/178 173/173/173
f 173/173/173 174/174/174 179/179/179
f 172/172/172 180/180/180 174/174/174
f 181/181/181 174/174/174 180/180/180
f 181/181/181 180/180/180 182/182/182
f 183/183/183 182/182/182 180/180/180
f 174/174/174 181/181/181 184/184/184
f 185/185/185 184/184/184 181/181/181
f 180/180/180 186/186/186 183/183/183
f 180/180/180 172/172/172 186/186/186
f 187/187/187 183/183/183 186/186/186
f 187/187/187 188/188/188 183/183/183
f 187/187/187 189/189/189 188/188/188
f 190/190/190 188/188/188 189/189/189
f 190/190/190 191/191/191 188/188/188
f 192/192/192 188/188/188 191/191/191
f 182/182/182 183/183/183 192/192/192
f 188/188/188 192/192/192 183/183/183
f 182/182/182 192/192/192 193/193/193
f 194/194/194 193/193/193 192/192/192
f 192/192/192 191/191/191 194/194/194
f 189/189/189 195/195/195 190/190/190
f 191/191/191 190/190/190 196/196/196
f 195/195/195 196/196/196 190/190/190
f 197/197/197 191/191/191 196/196/196
f 197/197/197 198/198/198 191/191/191
f 198/198/198 199/199/199 191/191/191
f 187/187/187 186/186/186 200/200/200
f 201/201/201 200/200/200 186/186/186
f 200/200/200 202/202/202 187/187/187
f 187/187/187 202/202/202 189/189/189
f 203/203/203 189/189/189 202/202/202
f 205/205/205 204/204/204 191/191/191
f 207/207/207 206/206/206 191/191/191
f 193/193/193 208/208/208 182/182/182
f 182/182/182 208/208/208 181/181/181
f 209/209/209 181/181/181 208/208/208
f 181/181/181 209/209/209 210/210/210
f 185/185/185 181/181/181 211/211/211
f 213/213/213 94/94/94 212/212/212
f 214/214/214 212/212/212 99/99/99
f 178/178/178 215/215/215 175/175/175
f 176/176/176 175/175/175 215/215/215
f 184/184/184 216/216/216 174/174/174
f 217/217/217 112/112/112 31/31/31
f 111/111/111 25/25/25 31/31/31
f 219/219/219 55/55/55 218/218/218
f 218/218/218 220/220/220 219/219/219
f 221/221/221 219/219/219 220/220/220
f 220/220/220 222/222/222 221/221/221
f 223/223/223 221/221/221 222/222/222
f 49/49/49 224/224/224 218/218/218
f 50/50/50 224/224/224 49/49/49
f 126/126/126 218/218/218 224/224/224
f 52/52/52 225/225/225 50/50/50
f 226/226/226 50/50/50 225/225/225
f 169/169/169 170/170/170 227/227/227
f 228/228/228 227/227/227 170/170/170
f 170/170/170 229/229/229 228/228/228
f 231/231/231 228/228/228 230/230/230
f 231/231/231 232/232/232 228/228/228
f 234/234/234 233/233/233 169/169/169
f 233/233/233 235/235/235 169/169/169
f 186/186/186 169/169/169 235/235/235
f 169/169/169 186/186/186 172/172/172
f 189/189/189 237/237/237 236/236/236
f 239/239/239 238/238/238 237/237/237
f 237/237/237 240/240/240 239/239/239
f 243/243/243 242/242/242 241/241/241
f 243/243/243 244/244/244 242/242/242
f 246/246/246 245/245/245 242/242/242
f 243/243/243 248/248/248 247/247/247
f 249/249/249 247/247/247 248/248/248
f 247/247/247 250/250/250 243/243/243
f 251/251/251 243/243/243 250/250/250
f 250/250/250 252/252/252 251/251/251
f 253/253/253 251/251/251 252/252/252
f 251/251/251 253/253/253 254/254/254
f 247/247/247 255/255/255 250/250/250
f 252/252/252 250/250/250 255/255/255
f 247/247/247 256/256/256 255/255/255
f 257/257/257 255/255/255 256/256/256
f 255/255/255 257/257/257 258/258/258
f 259/259/259 243/243/243 251/251/251
f 259/259/259 251/251/251 260/260/260
f 261/261/261 260/260/260 251/251/251
f 261/261/261 262/262/262 260/260/260
f 263/263/263 260/260/260 262/262/262
f 254/254/254 264/264/264 251/251/251
f 261/261/261 251/251/251 264/264/264
f 261/261/261 264/264/264 265/265/265
f 266/266/266 265/265/265 264/264/264
f 266/266/266 267/267/267 262/262/262
f 267/267/267 268/268/268 265/265/265
f 268/268/268 267/267/267 269/269/269
f 269/269/269 270/270/270 268/268/268
f 271/271/271 268/268/268 270/270/270
f 268/268/268 271/271/271 272/272/272
f 272/272/272 262/262/262 268/268/268
f 262/262/262 272/272/272 273/273/273
f 273/273/273 274/274/274 265/265/265
f 273/273/273 275/275/275 274/274/274
f 276/276/276 273/273/273 272/272/272
f 276/276/276 272/272/272 271/271/271
f 277/277/277 269/269/269 267/267/267
f 273/273/273 278/278/278 275/275/275
f 273/273/273 276/276/276 278/278/278
f 276/276/276 271/271/271 279/279/279
f 280/280/280 279/279/279 271/271/271
f 280/280/280 271/271/271 281/281/281
f 282/282/282 281/281/281 271/271/271
f 283/283/283 278/278/278 276/276/276
f 270/270/270 269/269/269 284/284/284
f 270/270/270 284/284/284 285/285/285
f 286/286/286 285/285/285 284/284/284
f 284/284/284 287/287/287 286/286/286
f 287/287/287 284/284/284 288/288/288
f 287/287/287 288/288/288 289/289/289
f 288/288/288 290/290/290 289/289/289
f 291/291/291 288/288/288 284/284/284
f 291/291/291 284/284/284 269/269/269
f 277/277/277 292/292/292 269/269/269
f 291/291/291 269/269/269 292/292/292
f 290/290/290 288/288/288 292/292/292
f 291/291/291 292/292/292 288/288/288
f 292/292/292 277/277/277 293/293/293
f 294/294/294 293/293/293 277/277/277
f 277/277/277 295/295/295 294/294/294
f 296/296/296 294/294/294 295/295/295
f 297/297/297 286/286/286 287/287/287
f 297/297/297 287/287/287 298/298/298
f 290/290/290 299/299/299 298/298/298
f 293/293/293 299/299/299 292/292/292
f 290/290/290 292/292/292 299/299/299
f 301/301/301 300/300/300 257/257/257
f 304/304/304 303/303/303 302/302/302
f 305/305/305 302/302/302 303/303/303
f 304/304/304 302/302/302 306/306/306
f 307/307/307 306/306/306 302/302/302
f 307/307/307 308/308/308 306/306/306
f 309/309/309 306/306/306 308/308/308
f 308/308/308 310/310/310 309/309/309
f 311/311/311 309/309/309 310/310/310
f 308/308/308 307/307/307 312/312/312
f 308/308/308 312/312/312 310/310/310
f 313/313/313 312/312/312 307/307/307
f 307/307/307 302/302/302 313/313/313
f 314/314/314 313/313/313 302/302/302
f 302/302/302 305/305/305 314/314/314
f 315/315/315 310/310/310 312/312/312
f 316/316/316 314/314/314 305/305/305
f 303/303/303 304/304/304 317/317/317
f 255/255/255 317/317/317 304/304/304
f 309/309/309 311/311/311 318/318/318
f 319/319/319 318/318/318 311/311/311
f 309/309/309 253/253/253 306/306/306
f 252/252/252 306/306/306 253/253/253
f 255/255/255 304/304/304 252/252/252
f 306/306/306 252/252/252 304/304/304
f 313/313/313 320/320/320 312/312/312
f 314/314/314 320/320/320 313/313/313
f 312/312/312 321/321/321 315/315/315
f 316/316/316 321/321/321 314/314/314
f 324/324/324 323/323/323 322/322/322
f 264/264/264 322/322/322 323/323/323
f 323/323/323 324/324/324 325/325/325
f 326/326/326 325/325/325 324/324/324
f 264/264/264 327/327/327 322/322/322
f 328/328/328 322/322/322 327/327/327
f 327/327/327 329/329/329 328/328/328
f 330/330/330 328/328/328 329/329/329
f 332/332/332 274/274/274 331/331/331
f 274/274/274 332/332/332 260/260/260
f 333/333/333 260/260/260 332/332/332
f 333/333/333 334/334/334 260/260/260
f 244/244/244 260/260/260 334/334/334
f 334/334/334 335/335/335 244/244/244
f 337/337/337 275/275/275 336/336/336
f 83/83/83 338/338/338 77/77/77
f 78/78/78 77/77/77 338/338/338
f 339/339/339 83/83/83 87/87/87
f 340/340/340 87/87/87 89/89/89
f 343/343/343 342/342/342 341/341/341
f 344/344/344 341/341/341 342/342/342
f 343/343/343 341/341/341 345/345/345
f 343/343/343 345/345/345 346/346/346
f 343/343/343 346/346/346 342/342/342
f 347/347/347 345/345/345 341/341/341
f 341/341/341 348/348/348 347/347/347
f 349/349/349 347/347/347 348/348/348
f 348/348/348 350/350/350 349/349/349
f 351/351/351 349/349/349 350/350/350
f 347/347/347 349/349/349 352/352/352
f 353/353/353 352/352/352 349/349/349
f 349/349/349 351/351/351 353/353/353
f 354/354/354 353/353/353 351/351/351
f 353/353/353 354/354/354 355/355/355
f 356/356/356 355/355/355 354/354/354
f 356/356/356 357/357/357 355/355/355
f 358/358/358 355/355/355 357/357/357
f 355/355/355 359/359/359 353/353/353
f 352/352/352 353/353/353 359/359/359
f 355/355/355 358/358/358 359/359/359
f 350/350/350 360/360/360 351/351/351
f 361/361/361 351/351/351 360/360/360
f 351/351/351 361/361/361 354/354/354
f 361/361/361 360/360/360 362/362/362
f 362/362/362 363/363/363 361/361/361
f 364/364/364 361/361/361 363/363/363
f 364/364/364 354/354/354 361/361/361
f 365/365/365 362/362/362 360/360/360
f 360/360/360 366/366/366 365/365/365
f 367/367/367 365/365/365 366/366/366
f 366/366/366 368/368/368 367/367/367
f 369/369/369 367/367/367 368/368/368
f 365/365/365 370/370/370 362/362/362
f 371/371/371 362/362/362 370/370/370
f 371/371/371 372/372/372 362/362/362
f 373/373/373 362/362/362 372/372/372
f 370/370/370 374/374/374 371/371/371
f 374/374/374 370/370/370 375/375/375
f 376/376/376 375/375/375 370/370/370
f 367/367/367 376/376/376 365/365/365
f 370/370/370 365/365/365 376/376/376
f 377/377/377 371/371/371 374/374/374
f 377/377/377 378/378/378 371/371/371
f 379/379/379 371/371/371 378/378/378
f 375/375/375 376/376/376 380/380/380
f 380/380/380 381/381/381 375/375/375
f 375/375/375 381/381/381 382/382/382
f 382/382/382 374/374/374 375/375/375
f 383/383/383 382/382/382 381/381/381
f 382/382/382 383/383/383 384/384/384
f 377/377/377 374/374/374 384/384/384
f 382/382/382 384/384/384 374/374/374
f 385/385/385 384/384/384 383/383/383
f 386/386/386 380/380/380 376/376/376
f 386/386/386 387/387/387 380/380/380
f 388/388/388 380/380/380 387/387/387
f 378/378/378 377/377/377 389/389/389
f 384/384/384 389/389/389 377/377/377
f 385/385/385 390/390/390 384/384/384
f 389/389/389 384/384/384 390/390/390
f 387/387/387 391/391/391 388/388/388
f 387/387/387 369/369/369 391/391/391
f 387/387/387 386/386/386 369/369/369
f 392/392/392 391/391/391 369/369/369
f 392/392/392 393/393/393 391/391/391
f 392/392/392 394/394/394 393/393/393
f 395/395/395 391/391/391 393/393/393
f 392/392/392 369/369/369 396/396/396
f 396/396/396 397/397/397 392/392/392
f 397/397/397 398/398/398 392/392/392
f 399/399/399 396/396/396 369/369/369
f 396/396/396 399/399/399 348/348/348
f 400/400/400 396/396/396 348/348/348
f 397/397/397 396/396/396 400/400/400
f 401/401/401 388/388/388 391/391/391
f 398/398/398 397/397/397 402/402/402
f 403/403/403 402/402/402 397/397/397
f 402/402/402 403/403/403 404/404/404
f 405/405/405 404/404/404 403/403/403
f 404/404/404 405/405/405 406/406/406
f 407/407/407 406/406/406 405/405/405
f 403/403/403 408/408/408 405/405/405
f 407/407/407 405/405/405 409/409/409
f 410/410/410 408/408/408 403/403/403
f 410/410/410 411/411/411 408/408/408
f 412/412/412 408/408/408 411/411/411
f 411/411/411 410/410/410 413/413/413
f 342/342/342 413/413/413 410/410/410
f 413/413/413 342/342/342 346/346/346
f 342/342/342 410/410/410 344/344/344
f 344/344/344 410/410/410 414/414/414
f 344/344/344 414/414/414 415/415/415
f 414/414/414 397/397/397 415/415/415
f 400/400/400 415/415/415 397/397/397
f 400/400/400 348/348/348 415/415/415
f 341/341/341 415/415/415 348/348/348
f 344/344/344 415/415/415 341/341/341
f 412/412/412 417/417/417 416/416/416
f 418/418/418 416/416/416 417/417/417
f 419/419/419 350/350/350 348/348/348
f 419/419/419 420/420/420 350/350/350
f 420/420/420 366/366/366 350/350/350
f 421/421/421 366/366/366 420/420/420
f 422/422/422 419/419/419 348/348/348
f 419/419/419 399/399/399 366/366/366
f 366/366/366 360/360/360 350/350/350
f 425/425/425 424/424/424 423/423/423
f 425/425/425 423/423/423 426/426/426
f 428/428/428 423/423/423 427/427/427
f 428/428/428 427/427/427 345/345/345
f 423/423/423 428/428/428 429/429/429
f 430/430/430 428/428/428 345/345/345
f 345/345/345 347/347/347 430/430/430
f 352/352/352 430/430/430 347/347/347
f 423/423/423 429/429/429 431/431/431
f 431/431/431 432/432/432 423/423/423
f 433/433/433 423/423/423 432/432/432
f 433/433/433 434/434/434 423/423/423
f 433/433/433 435/435/435 434/434/434
f 436/436/436 434/434/434 435/435/435
f 433/433/433 432/432/432 437/437/437
f 437/437/437 435/435/435 433/433/433
f 435/435/435 438/438/438 436/436/436
f 439/439/439 436/436/436 438/438/438
f 438/438/438 440/440/440 439/439/439
f 441/441/441 439/439/439 440/440/440
f 432/432/432 431/431/431 442/442/442
f 443/443/443 442/442/442 431/431/431
f 442/442/442 443/443/443 444/444/444
f 445/445/445 444/444/444 443/443/443
f 431/431/431 446/446/446 443/443/443
f 447/447/447 443/443/443 446/446/446
f 443/443/443 447/447/447 445/445/445
f 448/448/448 445/445/445 447/447/447
f 444/444/444 445/445/445 449/449/449
f 450/450/450 449/449/449 445/445/445
f 445/445/445 448/448/448 450/450/450
f 450/450/450 451/451/451 449/449/449
f 451/451/451 450/450/450 452/452/452
f 453/453/453 452/452/452 450/450/450
f 454/454/454 449/449/449 451/451/451
f 449/449/449 454/454/454 455/455/455
f 444/444/444 449/449/449 455/455/455
f 456/456/456 455/455/455 454/454/454
f 456/456/456 457/457/457 455/455/455
f 458/458/458 455/455/455 457/457/457
f 454/454/454 451/451/451 459/459/459
f 460/460/460 459/459/459 451/451/451
f 461/461/461 456/456/456 459/459/459
f 459/459/459 462/462/462 461/461/461
f 463/463/463 461/461/461 462/462/462
f 461/461/461 463/463/463 464/464/464
f 456/456/456 461/461/461 464/464/464
f 457/457/457 456/456/456 464/464/464
f 465/465/465 464/464/464 463/463/463
f 466/466/466 463/463/463 462/462/462
f 466/466/466 467/467/467 463/463/463
f 466/466/466 468/468/468 467/467/467
f 469/469/469 467/467/467 468/468/468
f 470/470/470 463/463/463 467/467/467
f 457/457/457 471/471/471 458/458/458
f 457/457/457 472/472/472 471/471/471
f 464/464/464 465/465/465 472/472/472
f 457/457/457 464/464/464 472/472/472
f 473/473/473 471/471/471 472/472/472
f 472/472/472 474/474/474 473/473/473
f 474/474/474 472/472/472 465/465/465
f 475/475/475 473/473/473 474/474/474
f 469/469/469 468/468/468 476/476/476
f 477/477/477 476/476/476 468/468/468
f 468/468/468 478/478/478 477/477/477
f 468/468/468 466/466/466 478/478/478
f 479/479/479 477/477/477 478/478/478
f 479/479/479 478/478/478 480/480/480
f 481/481/481 480/480/480 478/478/478
f 481/481/481 478/478/478 459/459/459
f 451/451/451 482/482/482 481/481/481
f 483/483/483 481/481/481 482/482/482
f 485/485/485 484/484/484 473/473/473
f 486/486/486 473/473/473 484/484/484
f 462/462/462 487/487/487 478/478/478
f 462/462/462 478/478/478 466/466/466
f 454/454/454 487/487/487 456/456/456
f 489/489/489 486/486/486 488/488/488
f 471/471/471 484/484/484 488/488/488
f 488/488/488 484/484/484 490/490/490
f 489/489/489 458/458/458 471/471/471
f 491/491/491 458/458/458 489/489/489
f 491/491/491 489/489/489 442/442/442
f 442/442/442 489/489/489 488/488/488
f 492/492/492 442/442/442 488/488/488
f 442/442/442 492/492/492 432/432/432
f 437/437/437 432/432/432 492/492/492
f 492/492/492 493/493/493 437/437/437
f 493/493/493 492/492/492 494/494/494
f 495/495/495 494/494/494 492/492/492
f 495/495/495 496/496/496 494/494/494
f 497/497/497 494/494/494 496/496/496
f 442/442/442 498/498/498 491/491/491
f 442/442/442 444/444/444 498/498/498
f 499/499/499 498/498/498 444/444/444
f 498/498/498 499/499/499 458/458/458
f 499/499/499 455/455/455 458/458/458
f 499/499/499 500/500/500 455/455/455
f 491/491/491 498/498/498 501/501/501
f 437/437/437 493/493/493 502/502/502
f 437/437/437 502/502/502 435/435/435
f 493/493/493 503/503/503 502/502/502
f 497/497/497 504/504/504 503/503/503
f 505/505/505 503/503/503 504/504/504
f 504/504/504 506/506/506 505/505/505
f 507/507/507 505/505/505 506/506/506
f 505/505/505 508/508/508 503/503/503
f 502/502/502 438/438/438 435/435/435
f 502/502/502 440/440/440 438/438/438
f 502/502/502 505/505/505 440/440/440
f 505/505/505 509/509/509 440/440/440
f 511/511/511 440/440/440 510/510/510
f 512/512/512 510/510/510 440/440/440
f 514/514/514 513/513/513 345/345/345
f 514/514/514 345/345/345 515/515/515
f 518/518/518 517/517/517 516/516/516
f 516/516/516 519/519/519 518/518/518
f 519/519/519 516/516/516 520/520/520
f 520/520/520 516/516/516 521/521/521
f 522/522/522 521/521/521 516/516/516
f 522/522/522 516/516/516 523/523/523
f 522/522/522 523/523/523 524/524/524
f 525/525/525 524/524/524 523/523/523
f 520/520/520 521/521/521 526/526/526
f 527/527/527 526/526/526 521/521/521
f 524/524/524 528/528/528 522/522/522
f 521/521/521 522/522/522 528/528/528
f 528/528/528 524/524/524 529/529/529
f 530/530/530 529/529/529 524/524/524
f 524/524/524 531/531/531 530/530/530
f 532/532/532 530/530/530 531/531/531
f 529/529/529 533/533/533 528/528/528
f 528/528/528 533/533/533 521/521/521
f 534/534/534 533/533/533 529/529/529
f 535/535/535 534/534/534 529/529/529
f 529/529/529 530/530/530 536/536/536
f 537/537/537 536/536/536 530/530/530
f 537/537/537 530/530/530 538/538/538
f 538/538/538 539/539/539 537/537/537
f 540/540/540 538/538/538 530/530/530
f 536/536/536 541/541/541 529/529/529
f 535/535/535 529/529/529 541/541/541
f 537/537/537 542/542/542 536/536/536
f 542/542/542 537/537/537 543/543/543
f 544/544/544 543/543/543 537/537/537
f 545/545/545 544/544/544 537/537/537
f 546/546/546 545/545/545 537/537/537
f 547/547/547 536/536/536 542/542/542
f 536/536/536 547/547/547 548/548/548
f 536/536/536 548/548/548 549/549/549
f 551/551/551 550/550/550 536/536/536
f 553/553/553 552/552/552 545/545/545
f 554/554/554 552/552/552 553/553/553
f 556/556/556 552/552/552 555/555/555
f 557/557/557 553/553/553 537/537/537
f 559/559/559 558/558/558 516/516/516
f 517/517/517 560/560/560 516/516/516
f 517/517/517 561/561/561 560/560/560
f 562/562/562 516/516/516 560/560/560
f 560/560/560 564/564/564 563/563/563
f 565/565/565 563/563/563 564/564/564
f 564/564/564 566/566/566 565/565/565
f 567/567/567 565/565/565 566/566/566
f 569/569/569 448/448/448 568/568/568
f 570/570/570 568/568/568 448/448/448
f 568/568/568 570/570/570 571/571/571
f 568/568/568 571/571/571 572/572/572
f 573/573/573 572/572/572 571/571/571
f 571/571/571 574/574/574 573/573/573
f 571/571/571 575/575/575 574/574/574
f 575/575/575 571/571/571 570/570/570
f 357/357/357 574/574/574 575/575/575
f 576/576/576 573/573/573 574/574/574
f 574/574/574 577/577/577 576/576/576
f 578/578/578 576/576/576 577/577/577
f 568/568/568 572/572/572 579/579/579
f 580/580/580 579/579/579 572/572/572
f 577/577/577 364/364/364 578/578/578
f 581/581/581 578/578/578 364/364/364
f 364/364/364 582/582/582 581/581/581
f 583/583/583 581/581/581 582/582/582
f 364/364/364 577/577/577 354/354/354
f 356/356/356 354/354/354 577/577/577
f 357/357/357 356/356/356 574/574/574
f 577/577/577 574/574/574 356/356/356
f 575/575/575 584/584/584 357/357/357
f 358/358/358 357/357/357 584/584/584
f 358/358/358 584/584/584 585/585/585
f 586/586/586 585/585/585 584/584/584
f 585/585/585 586/586/586 587/587/587
f 588/588/588 587/587/587 586/586/586
f 588/588/588 586/586/586 589/589/589
f 590/590/590 589/589/589 586/586/586
f 586/586/586 584/584/584 590/590/590
f 587/587/587 591/591/591 585/585/585
f 589/589/589 591/591/591 588/588/588
f 587/587/587 588/588/588 591/591/591
f 591/591/591 589/589/589 592/592/592
f 359/359/359 585/585/585 591/591/591
f 585/585/585 359/359/359 358/358/358
f 590/590/590 429/429/429 589/589/589
f 429/429/429 593/593/593 589/589/589
f 594/594/594 590/590/590 584/584/584
f 584/584/584 575/575/575 594/594/594
f 570/570/570 594/594/594 575/575/575
f 570/570/570 448/448/448 594/594/594
f 447/447/447 594/594/594 448/448/448
f 594/594/594 447/447/447 590/590/590
f 446/446/446 590/590/590 447/447/447
f 590/590/590 446/446/446 429/429/429
f 446/446/446 431/431/431 429/429/429
f 596/596/596 429/429/429 595/595/595
f 569/569/569 450/450/450 448/448/448
f 359/359/359 430/430/430 352/352/352
f 599/599/599 598/598/598 597/597/597
f 599/599/599 600/600/600 598/598/598
f 599/599/599 597/597/597 601/601/601
f 597/597/597 598/598/598 576/576/576
f 573/573/573 576/576/576 598/598/598
f 598/598/598 600/600/600 573/573/573
f 572/572/572 573/573/573 600/600/600
f 576/576/576 578/578/578 597/597/597
f 601/601/601 597/597/597 578/578/578
f 578/578/578 581/581/581 601/601/601
f 602/602/602 601/601/601 581/581/581
f 603/603/603 601/601/601 602/602/602
f 603/603/603 602/602/602 604/604/604
f 603/603/603 605/605/605 600/600/600
f 600/600/600 605/605/605 572/572/572
f 604/604/604 602/602/602 583/583/583
f 581/581/581 583/583/583 602/602/602
f 580/580/580 572/572/572 605/605/605
f 607/607/607 520/520/520 606/606/606
f 606/606/606 520/520/520 526/526/526
f 607/607/607 519/519/519 520/520/520
f 533/533/533 608/608/608 521/521/521
f 608/608/608 527/527/527 521/521/521
f 285/285/285 609/609/609 270/270/270
f 271/271/271 270/270/270 609/609/609
f 610/610/610 364/364/364 363/363/363
f 76/76/76 79/79/79 611/611/611
f 73/73/73 611/611/611 79/79/79
f 100/100/100 116/116/116 98/98/98
f 614/614/614 613/613/613 612/612/612
f 386/386/386 616/616/616 615/615/615
f 367/367/367 369/369/369 386/386/386
