mtllib blue_war_f_pve_1_hand_l.mtl
o blue_war_f_pve_1_hand_l
usemtl blue_war_f_pve_1_hand_l
v 0.309380 1.348917 -0.023856
v 0.294449 1.364050 0.005917
v 0.290999 1.352570 -0.024901
v 0.309277 1.358829 0.010023
v 0.289340 1.346288 0.032854
v 0.274834 1.357820 0.024761
v 0.256240 1.346360 0.024377
v 0.262674 1.327314 0.034838
v 0.291091 1.322611 -0.047070
v 0.303179 1.347543 0.065648
v 0.332636 1.370998 0.023672
v 0.317368 1.309566 -0.065130
v 0.343918 1.350720 -0.018115
v 0.258985 1.318750 0.068092
v 0.327164 1.376672 -0.037996
v 0.344280 1.379479 -0.003215
v 0.342782 1.377860 0.042448
v 0.378369 1.379813 0.060560
v 0.387675 1.384902 -0.004771
v 0.311879 1.373028 0.063882
v 0.284578 1.368512 0.076682
v 0.249899 1.358016 0.077522
v 0.245409 1.348622 0.124151
v 0.289337 1.363646 0.125557
v 0.336432 1.372970 0.101102
v 0.350004 1.300348 0.112245
v 0.292968 1.291709 0.132863
v 0.394968 1.309626 0.074751
v 0.365137 1.382579 -0.058607
v 0.334792 1.372115 -0.098993
v 0.308655 1.370138 -0.069763
v 0.399853 1.310185 0.008782
v 0.401830 1.257772 0.072339
v 0.402970 1.252027 0.024651
v 0.421364 1.156797 0.046206
v 0.407227 1.160898 0.009602
v 0.395556 1.233651 -0.013040
v 0.377992 1.155468 -0.029937
v 0.377002 1.209465 -0.039578
v 0.424040 1.167745 0.082881
v 0.364533 1.244422 0.102388
v 0.393429 1.166068 0.101110
v 0.409155 1.123206 0.116571
v 0.441412 1.134465 0.089186
v 0.356211 1.156590 0.114562
v 0.341185 1.215870 0.114887
v 0.322087 1.142672 0.104654
v 0.372876 1.312255 -0.054787
v 0.342194 1.092470 0.131924
v 0.411645 1.087638 -0.020622
v 0.383003 1.079453 0.009461
v 0.355825 1.154984 -0.011364
v 0.436510 1.073017 0.141323
v 0.402930 1.053054 0.157144
v 0.374676 1.106390 0.133651
v 0.342194 1.092470 0.131924
v 0.387479 1.020099 0.141682
v 0.420234 1.046298 0.128241
v 0.431610 1.006085 0.141071
v 0.396572 1.006956 0.147094
v 0.448325 1.056896 0.102327
v 0.462186 1.001157 0.111704
v 0.397849 0.975899 0.154163
v 0.437232 0.963926 0.143230
v 0.472244 1.078083 0.103739
v 0.478384 1.065091 0.060000
v 0.439597 1.121277 0.046712
v 0.462658 1.040937 0.020689
v 0.427047 1.105804 0.011804
v 0.446320 1.019465 -0.012187
v 0.440569 1.027101 0.030118
v 0.419963 1.007619 0.018711
v 0.453347 1.045520 0.067644
v 0.440569 1.027101 0.030118
v 0.448398 1.008218 0.030793
v 0.470167 0.999112 0.067825
v 0.453561 0.973356 0.028582
v 0.475642 0.958335 0.071650
v 0.427092 1.015513 0.035041
v 0.467966 0.953417 0.115599
v 0.477949 0.917180 0.075786
v 0.472589 0.906940 0.117865
v 0.439706 0.921310 0.145703
v 0.449578 0.928040 0.089534
v 0.447056 0.926189 0.104251
v 0.439586 0.926688 0.094999
v 0.451686 0.929708 0.078643
v 0.450338 0.918109 0.078142
v 0.446979 0.918935 0.089228
v 0.449609 0.893180 0.082627
v 0.445601 0.893475 0.091368
v 0.437556 0.893197 0.089919
v 0.434794 0.918839 0.087551
v 0.443339 0.892757 0.076269
v 0.440505 0.918428 0.073147
v 0.444383 0.868696 0.081803
v 0.441259 0.868911 0.088358
v 0.433416 0.868051 0.087415
v 0.440210 0.868082 0.077369
v 0.433416 0.868051 0.087415
v 0.440210 0.868082 0.077369
v 0.442158 0.929730 0.074838
v 0.450338 0.918109 0.078142
v 0.445037 0.928527 0.088129
v 0.439586 0.926688 0.094999
v 0.445037 0.928527 0.088129
v 0.449578 0.928040 0.089534
v 0.443366 0.932069 0.066325
v 0.442158 0.929730 0.074838
v 0.448894 0.932047 0.065337
v 0.449467 0.931379 0.056701
v 0.449282 0.927694 0.057365
v 0.443199 0.927093 0.052058
v 0.442722 0.908083 0.054471
v 0.447723 0.908782 0.058389
v 0.449138 0.927871 0.065722
v 0.446201 0.908896 0.065900
v 0.438996 0.908333 0.067995
v 0.431984 0.885703 0.055787
v 0.435037 0.886520 0.057971
v 0.432738 0.886674 0.063879
v 0.427907 0.885776 0.064899
v 0.431984 0.885703 0.055787
v 0.438996 0.908333 0.067995
v 0.441497 0.939231 0.050290
v 0.456729 0.935528 0.029631
v 0.434734 0.942522 0.043380
v 0.438996 0.908333 0.067995
v 0.440408 0.927752 0.066786
v 0.443366 0.932069 0.066325
v 0.448894 0.932047 0.065337
v 0.434734 0.942522 0.043380
v 0.235659 1.323900 -0.007267
v 0.273307 1.269013 0.021274
v 0.266780 1.257249 -0.006261
v 0.238373 1.331900 0.013055
v 0.262674 1.327314 0.034838
v 0.256240 1.346360 0.024377
v 0.258985 1.318750 0.068092
v 0.233649 1.314758 0.022901
v 0.217392 1.299569 0.049390
v 0.214317 1.314724 0.009014
v 0.266780 1.257249 -0.006261
v 0.193293 1.292131 0.030844
v 0.223640 1.250111 0.020038
v 0.242985 1.262798 0.052691
v 0.263009 1.288622 0.077502
v 0.246508 1.224744 0.021802
v 0.258430 1.238503 0.051045
v 0.229406 1.244386 -0.021353
v 0.167410 1.300113 0.009225
v 0.176914 1.299291 -0.046765
v 0.216896 1.296476 -0.080445
v 0.219806 1.326997 -0.053701
v 0.262594 1.284740 -0.080149
v 0.259635 1.247863 -0.047586
v 0.297438 1.251695 -0.057357
v 0.250373 1.308726 -0.055035
v 0.266780 1.257249 -0.006261
v 0.195751 1.332471 -0.034350
v 0.266780 1.257249 -0.006261
v 0.191342 1.333961 -0.004638
v 0.293870 1.198857 -0.033354
v 0.332068 1.196869 -0.032159
v 0.333134 1.272657 -0.048788
v 0.357071 1.216450 -0.026195
v 0.354011 1.163348 -0.004608
v 0.342784 1.135296 0.004472
v 0.365581 1.082281 0.021789
v 0.348768 1.077865 0.033926
v 0.325298 1.129625 0.019457
v 0.322675 1.164273 -0.019570
v 0.307246 1.158506 0.005841
v 0.309710 1.143892 0.044605
v 0.323673 1.129929 0.049864
v 0.343498 1.086835 0.055449
v 0.350591 1.086157 0.060170
v 0.360835 1.078246 0.041209
v 0.359535 1.097627 0.085264
v 0.388197 1.092264 0.018496
v 0.375465 1.074407 0.028916
v 0.373092 1.046650 0.044308
v 0.364824 1.058138 0.053247
v 0.394109 0.998379 0.067113
v 0.376718 1.025871 0.064298
v 0.387146 0.992504 0.094891
v 0.363373 1.014275 0.079320
v 0.384400 0.986468 0.112083
v 0.363429 0.986532 0.116856
v 0.378388 0.995109 0.129845
v 0.387522 0.990431 0.127158
v 0.398478 0.955643 0.119353
v 0.398306 0.958897 0.132935
v 0.409899 0.955329 0.108600
v 0.411999 0.957932 0.083368
v 0.412028 0.954785 0.098117
v 0.416334 0.957878 0.074929
v 0.424132 0.955972 0.067358
v 0.401954 1.004303 0.045083
v 0.426459 0.966227 0.055674
v 0.427341 0.966104 0.046747
v 0.413852 1.004314 0.034111
v 0.400694 1.043721 0.027408
v 0.388426 1.041507 0.029788
v 0.433052 0.918890 0.074654
v 0.429378 0.919071 0.082575
v 0.437053 0.927373 0.054093
v 0.434849 0.927739 0.061246
v 0.421878 0.915377 0.092736
v 0.434976 0.896914 0.076816
v 0.428834 0.896773 0.083413
v 0.434794 0.918839 0.087551
v 0.437556 0.893197 0.089919
v 0.440505 0.918428 0.073147
v 0.443339 0.892757 0.076269
v 0.436095 0.910073 0.055599
v 0.433883 0.910423 0.062640
v 0.440408 0.927752 0.066786
v 0.438996 0.908333 0.067995
v 0.443199 0.927093 0.052058
v 0.442722 0.908083 0.054471
v 0.428954 0.876586 0.081375
v 0.431322 0.876261 0.075482
v 0.428954 0.876586 0.081375
v 0.440210 0.868082 0.077369
v 0.433416 0.868051 0.087415
v 0.433416 0.868051 0.087415
v 0.427461 0.889055 0.056422
v 0.424752 0.889346 0.061763
v 0.431984 0.885703 0.055787
v 0.427907 0.885776 0.064899
v 0.438996 0.908333 0.067995
v 0.427907 0.885776 0.064899
v 0.431984 0.885703 0.055787
v 0.434405 0.969128 0.044367
v 0.441497 0.939231 0.050290
v 0.427092 1.015513 0.035041
v 0.399149 1.076342 0.026396
v 0.434079 0.998771 0.037965
v 0.434405 0.969128 0.044367
v 0.434734 0.942522 0.043380
v 0.434405 0.969128 0.044367
v 0.342045 1.006013 0.139648
v 0.362622 1.030793 0.132558
v 0.353247 1.005207 0.145597
v 0.363647 0.989139 0.151451
v 0.344155 0.981597 0.152717
v 0.354310 0.970512 0.153745
v 0.383780 1.010695 0.135169
v 0.378388 0.995109 0.129845
v 0.360084 0.978333 0.140613
v 0.334558 0.981702 0.147381
v 0.355183 0.959223 0.144517
v 0.347632 0.959361 0.155032
v 0.347074 0.948047 0.145614
v 0.339944 0.939024 0.155014
v 0.340326 0.942699 0.157770
v 0.325567 0.944817 0.157651
v 0.331656 0.947165 0.162159
v 0.338061 0.966482 0.158937
v 0.329507 0.964408 0.152940
v 0.325567 0.944817 0.157651
v 0.363647 0.989139 0.151451
v 0.360084 0.978333 0.140613
v 0.377828 1.048834 0.117265
v 0.368038 1.069407 0.102652
v 0.359014 1.069466 0.099815
v 0.361575 1.085632 0.083542
v 0.391012 1.014167 0.133654
v 0.342045 1.006013 0.139648
v 0.350098 1.042263 0.120781
v 0.359014 1.069466 0.099815
v 0.359535 1.097627 0.085264
v 0.368038 1.069407 0.102652
v 0.377828 1.048834 0.117265
v 0.376297 1.013469 0.144991
v 0.369517 1.022955 0.163868
v 0.342194 1.092470 0.131924
v 0.348925 1.094020 0.092810
v 0.322087 1.142672 0.104654
v 0.329936 1.141926 0.078917
v 0.320552 1.188568 0.083228
v 0.359535 1.097627 0.085264
v 0.368038 1.069407 0.102652
v 0.376297 1.013469 0.144991
v 0.359535 1.097627 0.085264
v 0.320552 1.188568 0.083228
v 0.318530 1.188327 0.110347
v 0.287202 1.252352 0.083174
v 0.288598 1.239912 0.113974
v 0.320552 1.188568 0.083228
v 0.259239 1.278543 0.122578
v 0.259239 1.278543 0.122578
v 0.318530 1.188327 0.110347
v 0.263009 1.288622 0.077502
v 0.245409 1.348622 0.124151
v 0.249899 1.358016 0.077522
v 0.258985 1.318750 0.068092
v 0.318530 1.188327 0.110347
v 0.322087 1.142672 0.104654
v 0.245409 1.348622 0.124151
v 0.259239 1.278543 0.122578
v 0.342045 1.006013 0.139648
v 0.346604 1.022067 0.113707
v 0.350098 1.042263 0.120781
v 0.359014 1.069466 0.099815
v 0.348928 1.056815 0.087784
v 0.341628 0.999626 0.130789
v 0.342045 1.006013 0.139648
v 0.350522 0.974163 0.130669
v 0.360084 0.978333 0.140613
v 0.378388 0.995109 0.129845
v 0.354487 1.050451 0.063274
v 0.335827 0.968911 0.135974
v 0.344529 0.961215 0.130739
v 0.350522 0.974163 0.130669
v 0.334558 0.981702 0.147381
v 0.355183 0.959223 0.144517
v 0.329507 0.964408 0.152940
v 0.330054 0.953335 0.141103
v 0.329392 0.941504 0.150807
v 0.325567 0.944817 0.157651
v 0.334337 0.941648 0.148541
v 0.339228 0.944901 0.139880
v 0.347074 0.948047 0.145614
v 0.339944 0.939024 0.155014
v 0.347074 0.948047 0.145614
v 0.350591 1.086157 0.060170
v 0.325567 0.944817 0.157651
v 0.329392 0.941504 0.150807
v 0.350522 0.974163 0.130669
v 0.360084 0.978333 0.140613
v 0.441484 0.855235 0.102555
v 0.443354 0.859571 0.113951
v 0.446319 0.858023 0.107346
v 0.441484 0.855235 0.102555
v 0.434019 0.857452 0.114553
v 0.450157 0.889520 0.105096
v 0.444587 0.891035 0.115531
v 0.439169 0.921708 0.114596
v 0.446319 0.858023 0.107346
v 0.433508 0.888247 0.113900
v 0.428521 0.919180 0.109938
v 0.439169 0.921708 0.114596
v 0.434019 0.857452 0.114553
v 0.438117 0.885562 0.097504
v 0.437843 0.917726 0.093255
v 0.444185 0.920277 0.101059
v 0.439169 0.921708 0.114596
v 0.441484 0.855235 0.102555
v 0.437795 0.927999 0.113692
v 0.439586 0.926688 0.094999
v 0.447056 0.926189 0.104251
v 0.431198 0.928407 0.112624
v 0.428009 0.927305 0.127429
v 0.423563 0.926246 0.133590
v 0.444185 0.920277 0.101059
v 0.415335 0.902544 0.134962
v 0.429152 0.903663 0.136965
v 0.413061 0.927234 0.132041
v 0.417803 0.876104 0.137742
v 0.434868 0.901726 0.132193
v 0.424648 0.876409 0.138893
v 0.432105 0.874811 0.134263
v 0.424862 0.872551 0.127130
v 0.417803 0.876104 0.137742
v 0.432105 0.874811 0.134263
v 0.411240 0.933552 0.133353
v 0.423563 0.926246 0.133590
v 0.394648 0.940458 0.155765
v 0.396662 0.939102 0.130140
v 0.424862 0.872551 0.127130
v 0.431762 0.899120 0.123981
v 0.424862 0.872551 0.127130
v 0.432105 0.874811 0.134263
v 0.423563 0.926246 0.133590
v 0.428009 0.927305 0.127429
v 0.428009 0.927305 0.127429
v 0.431762 0.899120 0.123981
v 0.431762 0.899120 0.123981
v 0.424800 0.930124 0.118011
v 0.394648 0.940458 0.155765
v 0.398306 0.958897 0.132935
v 0.396662 0.939102 0.130140
v 0.396572 1.006956 0.147094
v 0.399761 0.995509 0.132740
v 0.399761 0.995509 0.132740
v 0.387479 1.020099 0.141682
v 0.391012 1.014167 0.133654
v 0.399761 0.995509 0.132740
v 0.383780 1.010695 0.135169
v 0.387522 0.990431 0.127158
v 0.378388 0.995109 0.129845
v 0.398306 0.958897 0.132935
v 0.415140 0.883672 0.122630
v 0.417803 0.876104 0.137742
v 0.424862 0.872551 0.127130
v 0.417803 0.876104 0.137742
v 0.411167 0.885405 0.126911
v 0.412011 0.905888 0.126973
v 0.415335 0.902544 0.134962
v 0.413061 0.927234 0.132041
v 0.409558 0.925994 0.124572
v 0.418341 0.927755 0.113854
v 0.416985 0.903200 0.119015
v 0.424800 0.930124 0.118011
v 0.409899 0.955329 0.108600
v 0.423543 0.966540 0.107700
v 0.431762 0.899120 0.123981
v 0.417803 0.876104 0.137742
v 0.411240 0.933552 0.133353
v 0.431198 0.928407 0.112624
v 0.423543 0.966540 0.107700
v 0.412028 0.954785 0.098117
v 0.431762 0.899120 0.123981
v 0.424862 0.872551 0.127130
v 0.441484 0.855235 0.102555
v 0.430255 0.863773 0.108390
v 0.434019 0.857452 0.114553
v 0.434415 0.862599 0.101195
v 0.422494 0.889743 0.105465
v 0.433508 0.888247 0.113900
v 0.428521 0.919180 0.109938
v 0.422642 0.916884 0.103397
v 0.423543 0.966540 0.107700
v 0.421878 0.915377 0.092736
v 0.427605 0.888768 0.095804
v 0.427605 0.888768 0.095804
v 0.434019 0.857452 0.114553
v 0.438117 0.885562 0.097504
v 0.437843 0.917726 0.093255
v 0.421878 0.915377 0.092736
v 0.431198 0.928407 0.112624
v 0.435329 0.962570 0.086547
v 0.411999 0.957932 0.083368
v 0.435329 0.962570 0.086547
v 0.435329 0.962570 0.086547
v 0.445037 0.928527 0.088129
v 0.439586 0.926688 0.094999
v 0.435329 0.962570 0.086547
v 0.263783 1.328360 -0.049949
v 0.291091 1.322611 -0.047070
v 0.282399 1.339910 -0.049315
v 0.274952 1.313820 -0.052363
v 0.291843 1.295427 -0.075812
v 0.317368 1.309566 -0.065130
v 0.291091 1.322611 -0.047070
v 0.266780 1.257249 -0.006261
v 0.267568 1.293325 -0.041791
v 0.235659 1.323900 -0.007267
v 0.274952 1.313820 -0.052363
v 0.274952 1.313820 -0.052363
v 0.266780 1.257249 -0.006261
v 0.250373 1.308726 -0.055035
v 0.291091 1.322611 -0.047070
v 0.282399 1.339910 -0.049315
v 0.273307 1.269013 0.021274
v 0.262674 1.327314 0.034838
v 0.359535 1.097627 0.085264
v 0.338372 1.156236 0.075082
v 0.306614 1.161347 0.066907
v 0.290027 1.146505 0.046556
v 0.291510 1.137703 0.012825
v 0.256742 1.216832 0.056913
v 0.274417 1.231460 0.070785
v 0.311852 1.172073 0.076585
v 0.320552 1.188568 0.083228
v 0.246177 1.204543 0.030642
v 0.291510 1.137703 0.012825
v 0.246626 1.197212 -0.000944
v 0.257344 1.221722 -0.007140
v 0.291510 1.137703 0.012825
v 0.246626 1.197212 -0.000944
v 0.287202 1.252352 0.083174
v 0.320552 1.188568 0.083228
v 0.317368 1.309566 -0.065130
v 0.354781 1.086172 0.065386
v 0.361575 1.085632 0.083542
v 0.359535 1.097627 0.085264
v 0.350591 1.086157 0.060170
v 0.308655 1.370138 -0.069763
v 0.344812 1.303136 -0.090873
v 0.334792 1.372115 -0.098993
v 0.308655 1.370138 -0.069763
v 0.317368 1.309566 -0.065130
v 0.353766 1.267502 -0.072741
v 0.377002 1.209465 -0.039578
v 0.344812 1.303136 -0.090873
v 0.333134 1.272657 -0.048788
v 0.377002 1.209465 -0.039578
v 0.317368 1.309566 -0.065130
v 0.377002 1.209465 -0.039578
v 0.357071 1.216450 -0.026195
v 0.357071 1.216450 -0.026195
v 0.355825 1.154984 -0.011364
v 0.388197 1.092264 0.018496
v 0.354011 1.163348 -0.004608
v 0.388197 1.092264 0.018496
v 0.383003 1.079453 0.009461
v 0.399149 1.076342 0.026396
v 0.427092 1.015513 0.035041
v 0.419963 1.007619 0.018711
v 0.437459 0.960496 0.065744
v 0.442158 0.929730 0.074838
v 0.437459 0.960496 0.065744
v 0.443366 0.932069 0.066325
v 0.437459 0.960496 0.065744
v 0.442158 0.929730 0.074838
v 0.391012 1.014167 0.133654
v 0.376297 1.013469 0.144991
v 0.369517 1.022955 0.163868
v 0.369517 1.022955 0.163868
v 0.440569 1.027101 0.030118
v 0.434079 0.998771 0.037965
v 0.453561 0.973356 0.028582
v 0.448398 1.008218 0.030793
v 0.453561 0.973356 0.028582
v 0.434981 0.969835 0.041358
v 0.434734 0.942522 0.043380
v 0.456729 0.935528 0.029631
v 0.434734 0.942522 0.043380
v 0.434981 0.969835 0.041358
v 0.434405 0.969128 0.044367
v 0.434079 0.998771 0.037965
v 0.445037 0.928527 0.088129
v 0.435329 0.962570 0.086547
v 0.439586 0.926688 0.094999
v 0.398306 0.958897 0.132935
v 0.396662 0.939102 0.130140
v 0.411240 0.933552 0.133353
v 0.428009 0.927305 0.127429
v 0.424800 0.930124 0.118011
v 0.419963 1.007619 0.018711
v 0.359535 1.097627 0.085264
v 0.338372 1.156236 0.075082
v 0.320552 1.188568 0.083228
v 0.320552 1.188568 0.083228
v 0.266780 1.257249 -0.006261
vt 0.419903 0.941171
vt 0.352723 0.951790
vt 0.417034 0.969855
vt 0.357895 0.915577
vt 0.294938 0.922583
vt 0.301795 0.957108
vt 0.266026 0.974479
vt 0.248246 0.948911
vt 0.461249 0.985955
vt 0.271047 0.866208
vt 0.367736 0.855855
vt 0.518461 0.951509
vt 0.444620 0.876430
vt 0.197616 0.912511
vt 0.490814 0.839764
vt 0.430909 0.816304
vt 0.360830 0.795016
vt 0.365812 0.741372
vt 0.439344 0.744624
vt 0.301782 0.805383
vt 0.234981 0.826485
vt 0.172604 0.861485
vt 0.118606 0.774174
vt 0.202921 0.750461
vt 0.294711 0.734061
vt 0.272673 0.660958
vt 0.162971 0.675561
vt 0.358731 0.682045
vt 0.525997 0.766673
vt 0.620599 0.795151
vt 0.564783 0.878172
vt 0.451280 0.662553
vt 0.357887 0.629240
vt 0.447410 0.613446
vt 0.438843 0.526574
vt 0.529261 0.527091
vt 0.540349 0.584541
vt 0.618165 0.519683
vt 0.614460 0.576129
vt 0.353335 0.532170
vt 0.269987 0.618241
vt 0.268614 0.542022
vt 0.272954 0.496355
vt 0.356469 0.497582
vt 0.172661 0.543227
vt 0.167984 0.592734
vt 0.100859 0.538420
vt 0.570636 0.685589
vt 0.123372 0.478789
vt 0.589286 0.453458
vt 0.645763 0.416505
vt 0.666325 0.512270
vt 0.291278 0.406573
vt 0.227047 0.395715
vt 0.191466 0.486773
vt 0.123372 0.478789
vt 0.219649 0.335912
vt 0.276088 0.338084
vt 0.284143 0.292019
vt 0.230842 0.307687
vt 0.342279 0.345106
vt 0.352946 0.284473
vt 0.222803 0.261823
vt 0.283529 0.244987
vt 0.361019 0.407326
vt 0.418784 0.394408
vt 0.439349 0.489639
vt 0.484795 0.372567
vt 0.515265 0.478820
vt 0.546554 0.367557
vt 0.497769 0.317885
vt 0.566794 0.318029
vt 0.411111 0.336117
vt 0.497769 0.317885
vt 0.482650 0.286275
vt 0.418914 0.279529
vt 0.483836 0.242572
vt 0.414198 0.238103
vt 0.531886 0.300811
vt 0.348778 0.238012
vt 0.409482 0.196677
vt 0.344610 0.191551
vt 0.282916 0.197954
vt 0.369199 0.139462
vt 0.339702 0.142067
vt 0.349165 0.135700
vt 0.394748 0.143984
vt 0.391292 0.130501
vt 0.373538 0.128973
vt 0.390128 0.103844
vt 0.375889 0.102585
vt 0.363856 0.099932
vt 0.359959 0.123897
vt 0.403163 0.102248
vt 0.406647 0.127536
vt 0.387582 0.079738
vt 0.377827 0.078773
vt 0.372577 0.073761
vt 0.393974 0.075247
vt 0.372577 0.073761
vt 0.393974 0.075247
vt 0.403616 0.140019
vt 0.391292 0.130501
vt 0.363037 0.134021
vt 0.349165 0.135700
vt 0.363037 0.134021
vt 0.369199 0.139462
vt 0.416825 0.144095
vt 0.403616 0.140019
vt 0.422969 0.152026
vt 0.441160 0.158529
vt 0.438252 0.152022
vt 0.450303 0.150972
vt 0.453085 0.131529
vt 0.443596 0.130002
vt 0.426246 0.147621
vt 0.432853 0.126327
vt 0.422366 0.121462
vt 0.450814 0.108072
vt 0.446544 0.110016
vt 0.438446 0.107185
vt 0.434342 0.101829
vt 0.450814 0.108072
vt 0.422366 0.121462
vt 0.455103 0.157297
vt 0.485021 0.198868
vt 0.467692 0.148770
vt 0.422366 0.121462
vt 0.414523 0.140068
vt 0.416825 0.144095
vt 0.422969 0.152026
vt 0.467692 0.148770
vt 0.766559 0.016924
vt 0.709347 0.079589
vt 0.748789 0.060794
vt 0.689335 0.020967
vt 0.637226 0.104780
vt 0.640473 0.056873
vt 0.595247 0.186386
vt 0.675238 0.142768
vt 0.664357 0.201513
vt 0.703243 0.151438
vt 0.748789 0.060794
vt 0.697400 0.205643
vt 0.721220 0.265392
vt 0.664631 0.262894
vt 0.600188 0.255346
vt 0.735215 0.286208
vt 0.680945 0.292223
vt 0.789580 0.254368
vt 0.716706 0.200218
vt 0.773972 0.188956
vt 0.825336 0.183130
vt 0.797373 0.145782
vt 0.865633 0.176020
vt 0.853869 0.247377
vt 0.907427 0.233985
vt 0.825162 0.123718
vt 0.748789 0.060794
vt 0.764031 0.159949
vt 0.748789 0.060794
vt 0.725248 0.164862
vt 0.866001 0.297549
vt 0.925925 0.309987
vt 0.969258 0.226764
vt 0.973387 0.313476
vt 0.935433 0.361494
vt 0.885906 0.380496
vt 0.876756 0.446710
vt 0.836992 0.448078
vt 0.828507 0.386643
vt 0.877495 0.337588
vt 0.829345 0.352448
vt 0.760213 0.383910
vt 0.764805 0.403936
vt 0.791208 0.455385
vt 0.798746 0.470071
vt 0.838235 0.469916
vt 0.734869 0.475231
vt 0.920752 0.452271
vt 0.877007 0.468582
vt 0.850156 0.508636
vt 0.833111 0.496498
vt 0.855960 0.573013
vt 0.837672 0.544259
vt 0.818019 0.587600
vt 0.808729 0.542475
vt 0.792919 0.594264
vt 0.773861 0.569464
vt 0.770686 0.594405
vt 0.776784 0.601986
vt 0.797833 0.644195
vt 0.780212 0.640832
vt 0.811662 0.649014
vt 0.856832 0.643113
vt 0.834840 0.648262
vt 0.880585 0.636377
vt 0.900474 0.631747
vt 0.885499 0.567460
vt 0.918801 0.613219
vt 0.931110 0.605530
vt 0.908852 0.563282
vt 0.904248 0.511714
vt 0.883054 0.510498
vt 0.912717 0.671263
vt 0.903092 0.675935
vt 0.958081 0.637708
vt 0.948332 0.644435
vt 0.857137 0.692865
vt 0.921398 0.692695
vt 0.910173 0.697761
vt 0.896653 0.683086
vt 0.902771 0.707691
vt 0.922320 0.670737
vt 0.933673 0.694162
vt 0.968525 0.654716
vt 0.959540 0.660954
vt 0.942435 0.651932
vt 0.954288 0.670457
vt 0.967773 0.633802
vt 0.978463 0.653903
vt 0.919067 0.716741
vt 0.927834 0.712839
vt 0.919067 0.716741
vt 0.936503 0.721207
vt 0.917873 0.729628
vt 0.917873 0.729628
vt 0.978443 0.673844
vt 0.970451 0.678386
vt 0.985232 0.676441
vt 0.970886 0.685256
vt 0.954288 0.670457
vt 0.970886 0.685256
vt 0.985232 0.676441
vt 0.943895 0.598877
vt 0.963916 0.623494
vt 0.935268 0.557976
vt 0.919077 0.477376
vt 0.935251 0.574839
vt 0.943895 0.598877
vt 0.973564 0.612101
vt 0.943895 0.598877
vt 0.016817 0.364921
vt 0.033142 0.391379
vt 0.032839 0.365792
vt 0.056193 0.359548
vt 0.034206 0.337964
vt 0.051308 0.337923
vt 0.064958 0.374481
vt 0.072673 0.360591
vt 0.068921 0.351732
vt 0.018826 0.336625
vt 0.069888 0.331327
vt 0.050842 0.319727
vt 0.068847 0.312533
vt 0.051336 0.295797
vt 0.046634 0.298736
vt 0.026166 0.292844
vt 0.035495 0.297756
vt 0.034666 0.319014
vt 0.019010 0.317334
vt 0.026166 0.292844
vt 0.056193 0.359548
vt 0.068921 0.351732
vt 0.055827 0.411097
vt 0.045066 0.431256
vt 0.028232 0.431561
vt 0.023300 0.454848
vt 0.077567 0.370511
vt 0.016817 0.364921
vt 0.013878 0.392260
vt 0.028232 0.431561
vt 0.033450 0.467345
vt 0.045066 0.431256
vt 0.055827 0.411097
vt 0.100351 0.366878
vt 0.157400 0.384419
vt 0.123372 0.478789
vt 0.055849 0.471303
vt 0.100859 0.538420
vt 0.054561 0.534469
vt 0.052000 0.578070
vt 0.033450 0.467345
vt 0.045066 0.431256
vt 0.100351 0.366878
vt 0.033450 0.467345
vt 0.052000 0.578070
vt 0.109399 0.588518
vt 0.041709 0.640571
vt 0.096906 0.644620
vt 0.052000 0.578070
vt 0.096211 0.696400
vt 0.096211 0.696400
vt 0.109399 0.588518
vt 0.034714 0.699886
vt 0.118606 0.774174
vt 0.039218 0.774964
vt 0.024845 0.737838
vt 0.109399 0.588518
vt 0.100859 0.538420
vt 0.118606 0.774174
vt 0.096211 0.696400
vt 0.721952 0.553571
vt 0.741242 0.535582
vt 0.727718 0.532960
vt 0.740363 0.497184
vt 0.764315 0.509080
vt 0.738586 0.560603
vt 0.721952 0.553571
vt 0.756306 0.578251
vt 0.766909 0.593516
vt 0.770686 0.594405
vt 0.809435 0.505060
vt 0.728147 0.589633
vt 0.740927 0.597706
vt 0.756306 0.578251
vt 0.710807 0.576013
vt 0.752701 0.608937
vt 0.700969 0.593595
vt 0.717949 0.605367
vt 0.698992 0.616281
vt 0.691336 0.617044
vt 0.708094 0.624311
vt 0.728829 0.613496
vt 0.736148 0.626167
vt 0.710092 0.636505
vt 0.736148 0.626167
vt 0.798746 0.470071
vt 0.691336 0.617044
vt 0.698992 0.616281
vt 0.756306 0.578251
vt 0.766909 0.593516
vt 0.322785 0.067244
vt 0.306574 0.076992
vt 0.317682 0.074940
vt 0.322785 0.067244
vt 0.298199 0.071796
vt 0.327153 0.103761
vt 0.308922 0.106881
vt 0.313916 0.138754
vt 0.317682 0.074940
vt 0.292185 0.106353
vt 0.296039 0.136638
vt 0.313916 0.138754
vt 0.298199 0.071796
vt 0.342218 0.097329
vt 0.350931 0.127355
vt 0.334923 0.135787
vt 0.313916 0.138754
vt 0.322785 0.067244
vt 0.311847 0.147081
vt 0.349165 0.135700
vt 0.339702 0.142067
vt 0.300098 0.143340
vt 0.279532 0.159879
vt 0.260056 0.169189
vt 0.334923 0.135787
vt 0.236007 0.146359
vt 0.251136 0.142039
vt 0.241555 0.173082
vt 0.231227 0.114379
vt 0.262564 0.135924
vt 0.241074 0.116211
vt 0.248822 0.111627
vt 0.252875 0.102308
vt 0.231227 0.114379
vt 0.248822 0.111627
vt 0.236453 0.175433
vt 0.260056 0.169189
vt 0.214764 0.215959
vt 0.218569 0.167450
vt 0.252875 0.102308
vt 0.273784 0.126420
vt 0.252875 0.102308
vt 0.248822 0.111627
vt 0.260056 0.169189
vt 0.279532 0.159879
vt 0.279532 0.159879
vt 0.273784 0.126420
vt 0.273784 0.126420
vt 0.291257 0.148694
vt 0.214764 0.215959
vt 0.171314 0.244817
vt 0.166955 0.228277
vt 0.230842 0.307687
vt 0.187517 0.285552
vt 0.187517 0.285552
vt 0.219649 0.335912
vt 0.185100 0.317432
vt 0.187517 0.285552
vt 0.167687 0.308325
vt 0.161967 0.286918
vt 0.144226 0.308397
vt 0.171314 0.244817
vt 0.780680 0.732548
vt 0.758990 0.741883
vt 0.781933 0.750115
vt 0.758990 0.741883
vt 0.770292 0.728990
vt 0.777238 0.707358
vt 0.761690 0.711208
vt 0.772741 0.682873
vt 0.784699 0.685378
vt 0.797719 0.689447
vt 0.789897 0.712138
vt 0.810361 0.693239
vt 0.811662 0.649014
vt 0.820201 0.658754
vt 0.799539 0.724688
vt 0.758990 0.741883
vt 0.774674 0.675299
vt 0.821814 0.695973
vt 0.820201 0.658754
vt 0.834840 0.648262
vt 0.799539 0.724688
vt 0.781933 0.750115
vt 0.868941 0.760571
vt 0.849350 0.752424
vt 0.846708 0.763404
vt 0.862348 0.750540
vt 0.843770 0.722718
vt 0.832829 0.732753
vt 0.828443 0.701159
vt 0.840797 0.696347
vt 0.820201 0.658754
vt 0.857137 0.692865
vt 0.860874 0.720552
vt 0.860874 0.720552
vt 0.846708 0.763404
vt 0.874898 0.726489
vt 0.870478 0.693916
vt 0.857137 0.692865
vt 0.821814 0.695973
vt 0.872327 0.651935
vt 0.856832 0.643113
vt 0.872327 0.651935
vt 0.872327 0.651935
vt 0.886900 0.682742
vt 0.876210 0.688291
vt 0.872327 0.651935
vt 0.839719 0.080928
vt 0.891258 0.101645
vt 0.888527 0.091204
vt 0.858184 0.104687
vt 0.900052 0.161437
vt 0.945573 0.145630
vt 0.891258 0.101645
vt 0.748789 0.060794
vt 0.816549 0.083146
vt 0.766559 0.016924
vt 0.858184 0.104687
vt 0.858184 0.104687
vt 0.748789 0.060794
vt 0.825162 0.123718
vt 0.461249 0.985955
vt 0.450812 0.989732
vt 0.709347 0.079589
vt 0.637226 0.104780
vt 0.734869 0.475231
vt 0.692285 0.420036
vt 0.714899 0.374893
vt 0.759571 0.358938
vt 0.807616 0.348332
vt 0.706845 0.312918
vt 0.656322 0.319528
vt 0.681277 0.380328
vt 0.649037 0.386942
vt 0.745164 0.303856
vt 0.807616 0.348332
vt 0.784784 0.292579
vt 0.795303 0.281035
vt 0.807616 0.348332
vt 0.784784 0.292579
vt 0.612489 0.323833
vt 0.649037 0.386942
vt 0.518461 0.951509
vt 0.777075 0.471293
vt 0.750273 0.478570
vt 0.734869 0.475231
vt 0.798746 0.470071
vt 0.699076 0.787192
vt 0.635293 0.707748
vt 0.620599 0.795151
vt 0.699076 0.787192
vt 0.706949 0.710468
vt 0.635915 0.649235
vt 0.614460 0.576129
vt 0.635293 0.707748
vt 0.692464 0.638281
vt 0.614460 0.576129
vt 0.706949 0.710468
vt 0.614460 0.576129
vt 0.661371 0.572571
vt 0.973387 0.313476
vt 0.950164 0.368422
vt 0.920752 0.452271
vt 0.935433 0.361494
vt 0.920752 0.452271
vt 0.945847 0.452145
vt 0.919077 0.477376
vt 0.935268 0.557976
vt 0.965075 0.548357
vt 0.919549 0.630247
vt 0.929120 0.661123
vt 0.919549 0.630247
vt 0.937665 0.652740
vt 0.919549 0.630247
vt 0.929120 0.661123
vt 0.185100 0.317432
vt 0.178799 0.335949
vt 0.157400 0.384419
vt 0.157400 0.384419
vt 0.497769 0.317885
vt 0.530328 0.274752
vt 0.483836 0.242572
vt 0.482650 0.286275
vt 0.483836 0.242572
vt 0.534582 0.243846
vt 0.538836 0.212940
vt 0.485021 0.198868
vt 0.973564 0.612101
vt 0.954407 0.593470
vt 0.943895 0.598877
vt 0.935251 0.574839
vt 0.886900 0.682742
vt 0.872327 0.651935
vt 0.876210 0.688291
vt 0.780212 0.640832
vt 0.761654 0.661457
vt 0.774674 0.675299
vt 0.279532 0.159879
vt 0.291257 0.148694
vt 0.566794 0.318029
vt 0.033450 0.467345
vt 0.035133 0.540014
vt 0.052000 0.578070
vt 0.649037 0.386942
vt 0.748789 0.060794
f 3/3/3 2/2/2 1/1/1
f 4/4/4 1/1/1 2/2/2
f 4/4/4 2/2/2 5/5/5
f 6/6/6 5/5/5 2/2/2
f 6/6/6 7/7/7 5/5/5
f 8/8/8 5/5/5 7/7/7
f 1/1/1 9/9/9 3/3/3
f 5/5/5 10/10/10 4/4/4
f 11/11/11 4/4/4 10/10/10
f 4/4/4 11/11/11 1/1/1
f 9/9/9 1/1/1 12/12/12
f 13/13/13 12/12/12 1/1/1
f 13/13/13 1/1/1 11/11/11
f 8/8/8 14/14/14 5/5/5
f 10/10/10 5/5/5 14/14/14
f 13/13/13 15/15/15 12/12/12
f 16/16/16 15/15/15 13/13/13
f 13/13/13 11/11/11 16/16/16
f 11/11/11 10/10/10 17/17/17
f 17/17/17 16/16/16 11/11/11
f 17/17/17 18/18/18 16/16/16
f 19/19/19 16/16/16 18/18/18
f 20/20/20 17/17/17 10/10/10
f 10/10/10 14/14/14 21/21/21
f 21/21/21 20/20/20 10/10/10
f 22/22/22 21/21/21 14/14/14
f 22/22/22 23/23/23 21/21/21
f 24/24/24 21/21/21 23/23/23
f 24/24/24 25/25/25 21/21/21
f 20/20/20 21/21/21 25/25/25
f 18/18/18 17/17/17 25/25/25
f 20/20/20 25/25/25 17/17/17
f 25/25/25 24/24/24 26/26/26
f 27/27/27 26/26/26 24/24/24
f 24/24/24 23/23/23 27/27/27
f 26/26/26 28/28/28 25/25/25
f 18/18/18 25/25/25 28/28/28
f 18/18/18 28/28/28 19/19/19
f 19/19/19 29/29/29 16/16/16
f 15/15/15 16/16/16 29/29/29
f 29/29/29 30/30/30 15/15/15
f 31/31/31 15/15/15 30/30/30
f 19/19/19 32/32/32 29/29/29
f 32/32/32 19/19/19 28/28/28
f 28/28/28 33/33/33 32/32/32
f 28/28/28 26/26/26 33/33/33
f 34/34/34 32/32/32 33/33/33
f 34/34/34 33/33/33 35/35/35
f 35/35/35 36/36/36 34/34/34
f 37/37/37 34/34/34 36/36/36
f 36/36/36 38/38/38 37/37/37
f 39/39/39 37/37/37 38/38/38
f 40/40/40 35/35/35 33/33/33
f 33/33/33 41/41/41 40/40/40
f 26/26/26 27/27/27 41/41/41
f 41/41/41 33/33/33 26/26/26
f 42/42/42 40/40/40 41/41/41
f 42/42/42 43/43/43 40/40/40
f 44/44/44 40/40/40 43/43/43
f 40/40/40 44/44/44 35/35/35
f 42/42/42 41/41/41 45/45/45
f 46/46/46 45/45/45 41/41/41
f 45/45/45 46/46/46 47/47/47
f 48/48/48 37/37/37 39/39/39
f 37/37/37 48/48/48 34/34/34
f 47/47/47 49/49/49 45/45/45
f 38/38/38 36/36/36 50/50/50
f 50/50/50 51/51/51 38/38/38
f 52/52/52 38/38/38 51/51/51
f 43/43/43 53/53/53 44/44/44
f 53/53/53 43/43/43 54/54/54
f 55/55/55 54/54/54 43/43/43
f 45/45/45 55/55/55 42/42/42
f 43/43/43 42/42/42 55/55/55
f 55/55/55 45/45/45 56/56/56
f 54/54/54 57/57/57 53/53/53
f 58/58/58 53/53/53 57/57/57
f 58/58/58 57/57/57 59/59/59
f 60/60/60 59/59/59 57/57/57
f 58/58/58 59/59/59 61/61/61
f 58/58/58 61/61/61 53/53/53
f 62/62/62 61/61/61 59/59/59
f 60/60/60 63/63/63 59/59/59
f 64/64/64 59/59/59 63/63/63
f 59/59/59 64/64/64 62/62/62
f 65/65/65 53/53/53 61/61/61
f 65/65/65 61/61/61 66/66/66
f 66/66/66 67/67/67 65/65/65
f 66/66/66 68/68/68 67/67/67
f 69/69/69 67/67/67 68/68/68
f 68/68/68 70/70/70 69/69/69
f 50/50/50 69/69/69 70/70/70
f 44/44/44 65/65/65 67/67/67
f 68/68/68 71/71/71 70/70/70
f 72/72/72 70/70/70 71/71/71
f 73/73/73 66/66/66 61/61/61
f 66/66/66 73/73/73 68/68/68
f 74/74/74 68/68/68 73/73/73
f 71/71/71 73/73/73 75/75/75
f 76/76/76 75/75/75 73/73/73
f 75/75/75 76/76/76 77/77/77
f 78/78/78 77/77/77 76/76/76
f 73/73/73 61/61/61 76/76/76
f 62/62/62 76/76/76 61/61/61
f 76/76/76 62/62/62 78/78/78
f 79/79/79 72/72/72 71/71/71
f 69/69/69 50/50/50 36/36/36
f 36/36/36 35/35/35 69/69/69
f 67/67/67 35/35/35 44/44/44
f 67/67/67 69/69/69 35/35/35
f 80/80/80 78/78/78 62/62/62
f 78/78/78 80/80/80 81/81/81
f 82/82/82 81/81/81 80/80/80
f 82/82/82 80/80/80 83/83/83
f 64/64/64 83/83/83 80/80/80
f 80/80/80 62/62/62 64/64/64
f 82/82/82 84/84/84 81/81/81
f 82/82/82 85/85/85 84/84/84
f 85/85/85 86/86/86 84/84/84
f 87/87/87 81/81/81 84/84/84
f 87/87/87 84/84/84 88/88/88
f 89/89/89 88/88/88 84/84/84
f 88/88/88 89/89/89 90/90/90
f 91/91/91 90/90/90 89/89/89
f 91/91/91 89/89/89 92/92/92
f 93/93/93 92/92/92 89/89/89
f 90/90/90 94/94/94 88/88/88
f 95/95/95 88/88/88 94/94/94
f 90/90/90 91/91/91 96/96/96
f 97/97/97 96/96/96 91/91/91
f 97/97/97 98/98/98 96/96/96
f 99/99/99 96/96/96 98/98/98
f 92/92/92 100/100/100 91/91/91
f 97/97/97 91/91/91 100/100/100
f 94/94/94 90/90/90 101/101/101
f 96/96/96 101/101/101 90/90/90
f 95/95/95 102/102/102 88/88/88
f 87/87/87 103/103/103 102/102/102
f 93/93/93 89/89/89 104/104/104
f 104/104/104 84/84/84 105/105/105
f 107/107/107 106/106/106 89/89/89
f 109/109/109 108/108/108 87/87/87
f 110/110/110 87/87/87 108/108/108
f 110/110/110 81/81/81 87/87/87
f 110/110/110 111/111/111 81/81/81
f 111/111/111 110/110/110 112/112/112
f 112/112/112 113/113/113 111/111/111
f 113/113/113 112/112/112 114/114/114
f 115/115/115 114/114/114 112/112/112
f 112/112/112 116/116/116 115/115/115
f 116/116/116 112/112/112 110/110/110
f 117/117/117 115/115/115 116/116/116
f 117/117/117 116/116/116 118/118/118
f 114/114/114 115/115/115 119/119/119
f 120/120/120 119/119/119 115/115/115
f 115/115/115 117/117/117 120/120/120
f 121/121/121 120/120/120 117/117/117
f 121/121/121 122/122/122 120/120/120
f 121/121/121 117/117/117 122/122/122
f 123/123/123 120/120/120 122/122/122
f 124/124/124 122/122/122 117/117/117
f 125/125/125 111/111/111 113/113/113
f 126/126/126 81/81/81 111/111/111
f 125/125/125 127/127/127 111/111/111
f 129/129/129 128/128/128 116/116/116
f 129/129/129 116/116/116 130/130/130
f 131/131/131 130/130/130 116/116/116
f 126/126/126 111/111/111 132/132/132
f 81/81/81 126/126/126 78/78/78
f 77/77/77 78/78/78 126/126/126
f 135/135/135 134/134/134 133/133/133
f 136/136/136 133/133/133 134/134/134
f 134/134/134 137/137/137 136/136/136
f 138/138/138 136/136/136 137/137/137
f 137/137/137 140/140/140 139/139/139
f 141/141/141 139/139/139 140/140/140
f 140/140/140 142/142/142 141/141/141
f 142/142/142 140/140/140 143/143/143
f 144/144/144 141/141/141 142/142/142
f 144/144/144 145/145/145 141/141/141
f 146/146/146 141/141/141 145/145/145
f 141/141/141 146/146/146 139/139/139
f 147/147/147 139/139/139 146/146/146
f 145/145/145 148/148/148 146/146/146
f 149/149/149 146/146/146 148/148/148
f 145/145/145 150/150/150 148/148/148
f 145/145/145 151/151/151 150/150/150
f 151/151/151 145/145/145 144/144/144
f 152/152/152 150/150/150 151/151/151
f 152/152/152 153/153/153 150/150/150
f 153/153/153 152/152/152 154/154/154
f 153/153/153 154/154/154 155/155/155
f 153/153/153 155/155/155 156/156/156
f 156/156/156 150/150/150 153/153/153
f 157/157/157 156/156/156 155/155/155
f 158/158/158 155/155/155 154/154/154
f 154/154/154 159/159/159 158/158/158
f 160/160/160 154/154/154 152/152/152
f 154/154/154 160/160/160 161/161/161
f 160/160/160 162/162/162 161/161/161
f 160/160/160 152/152/152 162/162/162
f 151/151/151 162/162/162 152/152/152
f 156/156/156 157/157/157 163/163/163
f 164/164/164 163/163/163 157/157/157
f 157/157/157 165/165/165 164/164/164
f 166/166/166 164/164/164 165/165/165
f 166/166/166 167/167/167 164/164/164
f 167/167/167 168/168/168 164/164/164
f 168/168/168 167/167/167 169/169/169
f 169/169/169 170/170/170 168/168/168
f 171/171/171 168/168/168 170/170/170
f 168/168/168 171/171/171 172/172/172
f 172/172/172 164/164/164 168/168/168
f 163/163/163 164/164/164 172/172/172
f 173/173/173 172/172/172 171/171/171
f 172/172/172 173/173/173 163/163/163
f 173/173/173 171/171/171 174/174/174
f 175/175/175 174/174/174 171/171/171
f 170/170/170 176/176/176 171/171/171
f 175/175/175 171/171/171 176/176/176
f 176/176/176 170/170/170 177/177/177
f 178/178/178 177/177/177 170/170/170
f 176/176/176 179/179/179 175/175/175
f 180/180/180 169/169/169 167/167/167
f 169/169/169 180/180/180 181/181/181
f 178/178/178 170/170/170 181/181/181
f 169/169/169 181/181/181 170/170/170
f 178/178/178 181/181/181 182/182/182
f 178/178/178 182/182/182 183/183/183
f 177/177/177 178/178/178 183/183/183
f 182/182/182 184/184/184 183/183/183
f 185/185/185 183/183/183 184/184/184
f 184/184/184 186/186/186 185/185/185
f 187/187/187 185/185/185 186/186/186
f 185/185/185 187/187/187 183/183/183
f 186/186/186 188/188/188 187/187/187
f 189/189/189 187/187/187 188/188/188
f 189/189/189 188/188/188 190/190/190
f 191/191/191 190/190/190 188/188/188
f 188/188/188 192/192/192 191/191/191
f 193/193/193 191/191/191 192/192/192
f 186/186/186 194/194/194 188/188/188
f 192/192/192 188/188/188 194/194/194
f 184/184/184 195/195/195 186/186/186
f 196/196/196 186/186/186 195/195/195
f 186/186/186 196/196/196 194/194/194
f 195/195/195 184/184/184 197/197/197
f 197/197/197 184/184/184 198/198/198
f 199/199/199 198/198/198 184/184/184
f 199/199/199 200/200/200 198/198/198
f 200/200/200 199/199/199 201/201/201
f 202/202/202 201/201/201 199/199/199
f 202/202/202 199/199/199 203/203/203
f 204/204/204 203/203/203 199/199/199
f 198/198/198 205/205/205 197/197/197
f 206/206/206 197/197/197 205/205/205
f 201/201/201 207/207/207 200/200/200
f 208/208/208 200/200/200 207/207/207
f 195/195/195 209/209/209 196/196/196
f 205/205/205 210/210/210 206/206/206
f 211/211/211 206/206/206 210/210/210
f 206/206/206 211/211/211 212/212/212
f 213/213/213 212/212/212 211/211/211
f 205/205/205 214/214/214 210/210/210
f 215/215/215 210/210/210 214/214/214
f 207/207/207 216/216/216 208/208/208
f 217/217/217 208/208/208 216/216/216
f 208/208/208 217/217/217 218/218/218
f 219/219/219 218/218/218 217/217/217
f 207/207/207 220/220/220 216/216/216
f 221/221/221 216/216/216 220/220/220
f 211/211/211 222/222/222 213/213/213
f 210/210/210 223/223/223 211/211/211
f 210/210/210 215/215/215 223/223/223
f 224/224/224 211/211/211 223/223/223
f 223/223/223 225/225/225 224/224/224
f 225/225/225 223/223/223 215/215/215
f 226/226/226 224/224/224 225/225/225
f 227/227/227 213/213/213 224/224/224
f 216/216/216 228/228/228 217/217/217
f 216/216/216 221/221/221 228/228/228
f 229/229/229 217/217/217 228/228/228
f 228/228/228 230/230/230 229/229/229
f 231/231/231 229/229/229 230/230/230
f 217/217/217 229/229/229 232/232/232
f 233/233/233 232/232/232 229/229/229
f 234/234/234 228/228/228 221/221/221
f 207/207/207 201/201/201 220/220/220
f 201/201/201 202/202/202 235/235/235
f 201/201/201 235/235/235 236/236/236
f 220/220/220 201/201/201 236/236/236
f 202/202/202 203/203/203 237/237/237
f 238/238/238 237/237/237 203/203/203
f 203/203/203 204/204/204 238/238/238
f 181/181/181 238/238/238 204/204/204
f 204/204/204 182/182/182 181/181/181
f 182/182/182 204/204/204 184/184/184
f 199/199/199 184/184/184 204/204/204
f 238/238/238 181/181/181 180/180/180
f 239/239/239 202/202/202 237/237/237
f 239/239/239 240/240/240 202/202/202
f 236/236/236 242/242/242 241/241/241
f 245/245/245 244/244/244 243/243/243
f 245/245/245 246/246/246 244/244/244
f 245/245/245 247/247/247 246/246/246
f 245/245/245 243/243/243 247/247/247
f 248/248/248 246/246/246 247/247/247
f 249/249/249 244/244/244 246/246/246
f 249/249/249 246/246/246 250/250/250
f 251/251/251 250/250/250 246/246/246
f 252/252/252 247/247/247 243/243/243
f 248/248/248 253/253/253 246/246/246
f 248/248/248 254/254/254 253/253/253
f 255/255/255 253/253/253 254/254/254
f 255/255/255 254/254/254 256/256/256
f 257/257/257 256/256/256 254/254/254
f 256/256/256 257/257/257 258/258/258
f 259/259/259 258/258/258 257/257/257
f 259/259/259 257/257/257 260/260/260
f 254/254/254 260/260/260 257/257/257
f 254/254/254 248/248/248 260/260/260
f 247/247/247 260/260/260 248/248/248
f 247/247/247 252/252/252 260/260/260
f 260/260/260 261/261/261 259/259/259
f 261/261/261 260/260/260 252/252/252
f 262/262/262 259/259/259 261/261/261
f 264/264/264 263/263/263 253/253/253
f 249/249/249 265/265/265 244/244/244
f 266/266/266 244/244/244 265/265/265
f 266/266/266 267/267/267 244/244/244
f 267/267/267 266/266/266 268/268/268
f 265/265/265 249/249/249 269/269/269
f 271/271/271 270/270/270 244/244/244
f 271/271/271 244/244/244 272/272/272
f 274/274/274 273/273/273 268/268/268
f 269/269/269 276/276/276 275/275/275
f 277/277/277 49/49/49 276/276/276
f 279/279/279 276/276/276 278/278/278
f 278/278/278 280/280/280 279/279/279
f 281/281/281 279/279/279 280/280/280
f 281/281/281 280/280/280 282/282/282
f 279/279/279 281/281/281 283/283/283
f 279/279/279 284/284/284 276/276/276
f 275/275/275 285/285/285 284/284/284
f 279/279/279 286/286/286 284/284/284
f 288/288/288 287/287/287 280/280/280
f 290/290/290 289/289/289 288/288/288
f 291/291/291 288/288/288 289/289/289
f 290/290/290 292/292/292 289/289/289
f 27/27/27 293/293/293 290/290/290
f 294/294/294 27/27/27 290/290/290
f 295/295/295 289/289/289 293/293/293
f 293/293/293 296/296/296 295/295/295
f 297/297/297 295/295/295 296/296/296
f 297/297/297 298/298/298 295/295/295
f 46/46/46 27/27/27 299/299/299
f 299/299/299 300/300/300 46/46/46
f 46/46/46 41/41/41 27/27/27
f 302/302/302 27/27/27 301/301/301
f 305/305/305 304/304/304 303/303/303
f 305/305/305 306/306/306 304/304/304
f 307/307/307 304/304/304 306/306/306
f 304/304/304 307/307/307 189/189/189
f 304/304/304 189/189/189 308/308/308
f 308/308/308 309/309/309 304/304/304
f 310/310/310 308/308/308 189/189/189
f 310/310/310 189/189/189 311/311/311
f 312/312/312 311/311/311 189/189/189
f 187/187/187 189/189/189 307/307/307
f 313/313/313 187/187/187 307/307/307
f 313/313/313 183/183/183 187/187/187
f 308/308/308 314/314/314 309/309/309
f 315/315/315 314/314/314 310/310/310
f 308/308/308 316/316/316 314/314/314
f 317/317/317 309/309/309 314/314/314
f 315/315/315 310/310/310 318/318/318
f 317/317/317 314/314/314 319/319/319
f 320/320/320 319/319/319 314/314/314
f 320/320/320 321/321/321 319/319/319
f 322/322/322 319/319/319 321/321/321
f 321/321/321 320/320/320 323/323/323
f 324/324/324 323/323/323 320/320/320
f 320/320/320 314/314/314 324/324/324
f 315/315/315 324/324/324 314/314/314
f 324/324/324 325/325/325 323/323/323
f 326/326/326 323/323/323 325/325/325
f 326/326/326 322/322/322 323/323/323
f 324/324/324 315/315/315 327/327/327
f 318/318/318 327/327/327 315/315/315
f 328/328/328 183/183/183 313/313/313
f 330/330/330 323/323/323 329/329/329
f 332/332/332 318/318/318 331/331/331
f 335/335/335 334/334/334 333/333/333
f 337/337/337 336/336/336 334/334/334
f 339/339/339 334/334/334 338/338/338
f 339/339/339 338/338/338 340/340/340
f 341/341/341 338/338/338 334/334/334
f 339/339/339 342/342/342 334/334/334
f 342/342/342 339/339/339 343/343/343
f 344/344/344 343/343/343 339/339/339
f 345/345/345 334/334/334 342/342/342
f 338/338/338 341/341/341 346/346/346
f 346/346/346 347/347/347 338/338/338
f 348/348/348 338/338/338 347/347/347
f 348/348/348 349/349/349 338/338/338
f 350/350/350 346/346/346 341/341/341
f 349/349/349 348/348/348 351/351/351
f 347/347/347 352/352/352 348/348/348
f 353/353/353 348/348/348 352/352/352
f 351/351/351 354/354/354 340/340/340
f 343/343/343 344/344/344 354/354/354
f 351/351/351 355/355/355 354/354/354
f 351/351/351 82/82/82 355/355/355
f 83/83/83 355/355/355 82/82/82
f 83/83/83 356/356/356 355/355/355
f 85/85/85 82/82/82 351/351/351
f 85/85/85 351/351/351 357/357/357
f 359/359/359 356/356/356 358/358/358
f 360/360/360 358/358/358 356/356/356
f 358/358/358 361/361/361 359/359/359
f 359/359/359 362/362/362 356/356/356
f 359/359/359 363/363/363 362/362/362
f 363/363/363 361/361/361 364/364/364
f 365/365/365 364/364/364 361/361/361
f 363/363/363 359/359/359 366/366/366
f 367/367/367 362/362/362 363/363/363
f 360/360/360 356/356/356 368/368/368
f 369/369/369 83/83/83 368/368/368
f 370/370/370 368/368/368 83/83/83
f 370/370/370 371/371/371 368/368/368
f 373/373/373 362/362/362 372/372/372
f 375/375/375 374/374/374 362/362/362
f 377/377/377 376/376/376 362/362/362
f 362/362/362 379/379/379 378/378/378
f 381/381/381 378/378/378 380/380/380
f 83/83/83 64/64/64 370/370/370
f 63/63/63 370/370/370 64/64/64
f 63/63/63 383/383/383 382/382/382
f 382/382/382 383/383/383 384/384/384
f 63/63/63 385/385/385 383/383/383
f 386/386/386 383/383/383 385/385/385
f 385/385/385 388/388/388 387/387/387
f 389/389/389 387/387/387 388/388/388
f 391/391/391 390/390/390 389/389/389
f 390/390/390 391/391/391 392/392/392
f 393/393/393 392/392/392 391/391/391
f 392/392/392 394/394/394 390/390/390
f 397/397/397 396/396/396 395/395/395
f 399/399/399 395/395/395 398/398/398
f 399/399/399 400/400/400 395/395/395
f 400/400/400 399/399/399 401/401/401
f 401/401/401 402/402/402 400/400/400
f 403/403/403 400/400/400 402/402/402
f 403/403/403 404/404/404 400/400/400
f 403/403/403 192/192/192 404/404/404
f 194/194/194 404/404/404 192/192/192
f 405/405/405 400/400/400 404/404/404
f 405/405/405 395/395/395 400/400/400
f 404/404/404 406/406/406 405/405/405
f 404/404/404 407/407/407 406/406/406
f 408/408/408 406/406/406 194/194/194
f 409/409/409 405/405/405 406/406/406
f 410/410/410 401/401/401 399/399/399
f 192/192/192 403/403/403 193/193/193
f 402/402/402 411/411/411 403/403/403
f 403/403/403 411/411/411 193/193/193
f 412/412/412 406/406/406 408/408/408
f 414/414/414 413/413/413 194/194/194
f 405/405/405 415/415/415 395/395/395
f 416/416/416 395/395/395 409/409/409
f 419/419/419 418/418/418 417/417/417
f 420/420/420 417/417/417 418/418/418
f 418/418/418 421/421/421 420/420/420
f 421/421/421 418/418/418 422/422/422
f 422/422/422 423/423/423 421/421/421
f 424/424/424 421/421/421 423/423/423
f 423/423/423 425/425/425 424/424/424
f 196/196/196 424/424/424 425/425/425
f 424/424/424 196/196/196 426/426/426
f 421/421/421 424/424/424 427/427/427
f 427/427/427 420/420/420 421/421/421
f 426/426/426 428/428/428 424/424/424
f 429/429/429 422/422/422 418/418/418
f 427/427/427 430/430/430 420/420/420
f 417/417/417 420/420/420 430/430/430
f 430/430/430 427/427/427 431/431/431
f 432/432/432 431/431/431 427/427/427
f 423/423/423 433/433/433 425/425/425
f 432/432/432 195/195/195 431/431/431
f 197/197/197 434/434/434 195/195/195
f 434/434/434 431/431/431 435/435/435
f 197/197/197 206/206/206 436/436/436
f 212/212/212 436/436/436 206/206/206
f 212/212/212 438/438/438 437/437/437
f 431/431/431 440/440/440 439/439/439
f 443/443/443 442/442/442 441/441/441
f 444/444/444 441/441/441 442/442/442
f 444/444/444 442/442/442 445/445/445
f 445/445/445 155/155/155 444/444/444
f 155/155/155 445/445/445 157/157/157
f 445/445/445 446/446/446 157/157/157
f 446/446/446 445/445/445 447/447/447
f 165/165/165 157/157/157 446/446/446
f 449/449/449 448/448/448 441/441/441
f 450/450/450 441/441/441 448/448/448
f 444/444/444 158/158/158 449/449/449
f 158/158/158 451/451/451 155/155/155
f 441/441/441 452/452/452 449/449/449
f 449/449/449 454/454/454 453/453/453
f 456/456/456 3/3/3 455/455/455
f 457/457/457 161/161/161 140/140/140
f 140/140/140 458/458/458 457/457/457
f 460/460/460 175/175/175 459/459/459
f 175/175/175 460/460/460 174/174/174
f 461/461/461 174/174/174 460/460/460
f 462/462/462 174/174/174 461/461/461
f 174/174/174 462/462/462 173/173/173
f 463/463/463 173/173/173 462/462/462
f 461/461/461 464/464/464 462/462/462
f 464/464/464 461/461/461 465/465/465
f 466/466/466 465/465/465 461/461/461
f 460/460/460 466/466/466 461/461/461
f 465/465/465 466/466/466 467/467/467
f 468/468/468 462/462/462 464/464/464
f 462/462/462 468/468/468 469/469/469
f 470/470/470 469/469/469 468/468/468
f 470/470/470 471/471/471 463/463/463
f 471/471/471 163/163/163 173/173/173
f 163/163/163 471/471/471 156/156/156
f 150/150/150 156/156/156 471/471/471
f 471/471/471 148/148/148 150/150/150
f 471/471/471 470/470/470 148/148/148
f 468/468/468 464/464/464 148/148/148
f 173/173/173 472/472/472 471/471/471
f 468/468/468 148/148/148 473/473/473
f 149/149/149 148/148/148 464/464/464
f 465/465/465 149/149/149 464/464/464
f 465/465/465 146/146/146 149/149/149
f 465/465/465 474/474/474 146/146/146
f 475/475/475 474/474/474 465/465/465
f 147/147/147 146/146/146 474/474/474
f 31/31/31 476/476/476 15/15/15
f 307/307/307 306/306/306 477/477/477
f 478/478/478 477/477/477 306/306/306
f 478/478/478 479/479/479 477/477/477
f 479/479/479 176/176/176 477/477/477
f 477/477/477 176/176/176 177/177/177
f 313/313/313 307/307/307 177/177/177
f 477/477/477 480/480/480 307/307/307
f 483/483/483 482/482/482 481/481/481
f 485/485/485 484/484/484 482/482/482
f 482/482/482 486/486/486 485/485/485
f 486/486/486 48/48/48 487/487/487
f 486/486/486 488/488/488 48/48/48
f 488/488/488 30/30/30 48/48/48
f 29/29/29 48/48/48 30/30/30
f 48/48/48 29/29/29 32/32/32
f 32/32/32 34/34/34 48/48/48
f 486/486/486 490/490/490 489/489/489
f 489/489/489 491/491/491 486/486/486
f 493/493/493 489/489/489 492/492/492
f 490/490/490 38/38/38 493/493/493
f 52/52/52 493/493/493 38/38/38
f 495/495/495 167/167/167 494/494/494
f 497/497/497 495/495/495 496/496/496
f 499/499/499 498/498/498 495/495/495
f 500/500/500 498/498/498 499/499/499
f 500/500/500 499/499/499 501/501/501
f 502/502/502 501/501/501 499/499/499
f 205/205/205 198/198/198 214/214/214
f 503/503/503 214/214/214 198/198/198
f 198/198/198 200/200/200 503/503/503
f 214/214/214 503/503/503 504/504/504
f 200/200/200 208/208/208 505/505/505
f 218/218/218 505/505/505 208/208/208
f 218/218/218 506/506/506 505/505/505
f 506/506/506 508/508/508 507/507/507
f 510/510/510 509/509/509 57/57/57
f 510/510/510 57/57/57 511/511/511
f 54/54/54 511/511/511 57/57/57
f 54/54/54 55/55/55 511/511/511
f 56/56/56 512/512/512 55/55/55
f 75/75/75 514/514/514 513/513/513
f 79/79/79 513/513/513 514/514/514
f 516/516/516 515/515/515 514/514/514
f 518/518/518 514/514/514 517/517/517
f 518/518/518 517/517/517 519/519/519
f 520/520/520 519/519/519 517/517/517
f 523/523/523 522/522/522 521/521/521
f 524/524/524 522/522/522 523/523/523
f 527/527/527 526/526/526 525/525/525
f 530/530/530 529/529/529 528/528/528
f 532/532/532 354/354/354 531/531/531
f 65/65/65 44/44/44 53/53/53
f 70/70/70 533/533/533 50/50/50
f 51/51/51 50/50/50 533/533/533
f 535/535/535 534/534/534 281/281/281
f 535/535/535 281/281/281 536/536/536
f 460/460/460 537/537/537 466/466/466
f 151/151/151 144/144/144 162/162/162
f 142/142/142 162/162/162 144/144/144
f 162/162/162 142/142/142 538/538/538
