mtllib blue_asn_m_pve_1_pelvis.mtl
o blue_asn_m_pve_1_pelvis
usemtl blue_asn_m_pve_1_pelvis
v -0.225468 1.069720 -0.085021
v -0.208467 1.033910 -0.038186
v -0.221688 1.067150 -0.031902
v -0.215240 1.032710 -0.090492
v -0.199026 1.066900 0.002136
v -0.184509 1.021120 0.004182
v -0.213616 1.129270 -0.004404
v -0.233814 1.129650 -0.040527
v -0.163670 1.130540 0.037629
v -0.160360 1.065930 0.037212
v -0.231228 1.132240 -0.081752
v -0.204350 1.137410 -0.141030
v -0.202305 1.073060 -0.146844
v -0.163629 0.996864 0.032500
v -0.170382 0.980361 0.020433
v -0.204340 1.002430 -0.130447
v -0.204319 1.003740 -0.146201
v -0.178051 0.906464 0.029700
v -0.188037 0.872482 0.025731
v -0.210112 0.964270 -0.145265
v -0.205030 0.781033 0.008592
v -0.198271 0.779360 0.030494
v -0.207946 0.783452 0.023935
v -0.200029 0.758832 0.004888
v -0.194062 0.757824 0.031092
v -0.200029 0.758832 0.004888
v -0.208106 0.717324 0.024263
v -0.215372 0.722613 -0.012844
v -0.230462 0.705963 -0.005284
v -0.225082 0.704961 0.017354
v -0.215372 0.722613 -0.012844
v -0.239137 0.710934 -0.059280
v -0.253084 0.709784 -0.104633
v -0.233164 0.721557 -0.085784
v -0.245506 0.723642 -0.139987
v -0.228365 0.763619 -0.119560
v -0.235123 0.764761 -0.149238
v -0.258029 0.710527 -0.127341
v -0.228365 0.763619 -0.119560
v -0.238301 0.786123 -0.145307
v -0.232364 0.786926 -0.116086
v -0.245565 0.790158 -0.136237
v -0.230462 0.705963 -0.005284
v -0.261825 0.679325 -0.103647
v -0.239267 0.675514 -0.004578
v -0.253084 0.709784 -0.104633
v 0.225468 1.069720 -0.085021
v 0.208467 1.033910 -0.038186
v 0.215240 1.032710 -0.090492
v 0.221688 1.067150 -0.031902
v 0.199026 1.066900 0.002136
v 0.184509 1.021120 0.004182
v 0.213616 1.129270 -0.004404
v 0.233814 1.129650 -0.040527
v 0.163670 1.130540 0.037629
v 0.160360 1.065930 0.037212
v 0.231228 1.132240 -0.081752
v 0.204350 1.137410 -0.141030
v 0.202305 1.073060 -0.146844
v 0.170382 0.980361 0.020433
v 0.163629 0.996864 0.032500
v 0.204340 1.002430 -0.130447
v 0.204319 1.003740 -0.146201
v 0.178051 0.906464 0.029700
v 0.188037 0.872482 0.025731
v 0.210112 0.964270 -0.145265
v 0.205030 0.781033 0.008592
v 0.207946 0.783452 0.023935
v 0.198271 0.779360 0.030494
v 0.200029 0.758832 0.004888
v 0.194062 0.757824 0.031092
v 0.208106 0.717324 0.024263
v 0.200029 0.758832 0.004888
v 0.215372 0.722613 -0.012844
v 0.225082 0.704961 0.017354
v 0.230462 0.705963 -0.005284
v 0.215372 0.722613 -0.012844
v 0.239137 0.710934 -0.059280
v 0.253084 0.709784 -0.104633
v 0.233164 0.721557 -0.085784
v 0.245506 0.723642 -0.139987
v 0.228365 0.763619 -0.119560
v 0.235123 0.764761 -0.149238
v 0.258029 0.710527 -0.127341
v 0.238301 0.786123 -0.145307
v 0.228365 0.763619 -0.119560
v 0.232364 0.786926 -0.116086
v 0.245565 0.790158 -0.136237
v 0.230462 0.705963 -0.005284
v 0.261825 0.679325 -0.103647
v 0.253084 0.709784 -0.104633
v 0.239267 0.675514 -0.004578
v -0.243867 0.764611 -0.152408
v -0.273408 0.759305 -0.118947
v -0.253259 0.726343 -0.144074
v -0.255697 0.778825 -0.138605
v -0.245506 0.723642 -0.139987
v -0.235123 0.764761 -0.149238
v -0.264798 0.714638 -0.132472
v -0.258029 0.710527 -0.127341
v -0.283261 0.723269 -0.097319
v -0.291208 0.728384 -0.100067
v -0.292611 0.749338 -0.096711
v -0.302852 0.734445 -0.085778
v -0.298579 0.752524 -0.089119
v -0.289571 0.766119 -0.098683
v -0.302141 0.753921 -0.094364
v -0.317386 0.776123 -0.089618
v -0.309186 0.792397 -0.092912
v -0.327589 0.787013 -0.077263
v -0.316978 0.810088 -0.080446
v -0.315470 0.813939 -0.033885
v -0.326391 0.790016 -0.032511
v -0.314899 0.776933 -0.035631
v -0.308173 0.783733 0.008008
v -0.293814 0.772141 0.013905
v -0.283923 0.789314 0.014522
v -0.296649 0.807088 0.007965
v -0.264825 0.762075 0.009369
v -0.278387 0.749908 0.009958
v -0.268857 0.745325 0.007612
v -0.241514 0.753876 0.020123
v -0.228898 0.708573 0.025193
v -0.213283 0.719590 0.031486
v -0.208106 0.717324 0.024263
v -0.225082 0.704961 0.017354
v -0.260593 0.719438 0.002214
v -0.266262 0.724114 0.008592
v -0.275182 0.725165 -0.007880
v -0.283064 0.731102 0.001127
v -0.294302 0.733577 -0.041989
v -0.283507 0.726752 -0.044710
v -0.286665 0.692063 -0.006599
v -0.295036 0.693477 -0.043364
v -0.271737 0.687233 0.003266
v -0.230462 0.705963 -0.005284
v -0.239267 0.675514 -0.004578
v -0.303407 0.694892 -0.080130
v -0.291951 0.727998 -0.081525
v -0.303407 0.694892 -0.080130
v -0.294295 0.691044 -0.095802
v -0.253084 0.709784 -0.104633
v -0.261825 0.679325 -0.103647
v -0.289587 0.750725 -0.042403
v -0.299896 0.755682 -0.039865
v -0.277466 0.748957 0.003602
v -0.230462 0.705963 -0.005284
v -0.200577 0.757298 0.037711
v -0.216727 0.772201 0.031573
v -0.204724 0.776687 0.037101
v -0.212949 0.780312 0.033269
v -0.194062 0.757824 0.031092
v -0.212949 0.780312 0.033269
v -0.198271 0.779360 0.030494
v -0.207946 0.783452 0.023935
v -0.194062 0.757824 0.031092
v -0.253084 0.709784 -0.104633
v -0.247020 0.783832 -0.148650
v -0.252882 0.787122 -0.141177
v -0.235123 0.764761 -0.149238
v -0.238301 0.786123 -0.145307
v -0.245565 0.790158 -0.136237
v -0.252882 0.787122 -0.141177
v 0.200095 0.830335 0.028595
v 0.205963 0.831700 0.026004
v 0.198484 0.830063 0.017988
v 0.206116 0.833596 0.036163
v 0.209213 0.834405 0.034826
v 0.178051 0.906464 0.029700
v 0.184003 0.907732 0.037982
v 0.217445 0.850199 0.029954
v 0.254022 0.916288 0.009628
v 0.244645 1.004740 0.018675
v 0.170060 0.997431 0.041344
v 0.236398 1.057270 0.008408
v 0.167021 1.065950 0.045113
v 0.160360 1.065930 0.037212
v 0.169181 1.128910 0.045823
v 0.163629 0.996864 0.032500
v 0.241100 0.857776 0.019706
v 0.244979 0.859408 0.034103
v 0.221005 0.851428 0.041878
v 0.207812 0.826377 0.048925
v 0.204971 0.825341 0.040277
v 0.207018 0.798023 0.043514
v 0.209862 0.799383 0.052116
v 0.212949 0.780312 0.033269
v 0.222657 0.775419 0.051884
v 0.221320 1.127220 0.001973
v 0.248370 1.074450 -0.014755
v 0.243712 1.128420 -0.038320
v 0.261197 1.075360 -0.060908
v 0.240965 1.130540 -0.084302
v 0.258065 1.061140 -0.088795
v 0.233814 1.129650 -0.040527
v 0.213616 1.129270 -0.004404
v 0.231228 1.132240 -0.081752
v 0.247017 0.763721 0.046715
v 0.246580 0.756406 0.038272
v 0.216727 0.772201 0.031573
v 0.270429 0.764452 0.030493
v 0.270641 0.771700 0.039008
v 0.285030 0.793056 0.032010
v 0.283923 0.789314 0.014522
v 0.296649 0.807088 0.007965
v 0.303203 0.816439 0.015886
v 0.322204 0.823218 -0.031898
v 0.315470 0.813939 -0.033885
v 0.316978 0.810088 -0.080446
v 0.325842 0.820261 -0.083597
v 0.316892 0.798299 -0.107889
v 0.309186 0.792397 -0.092912
v 0.303477 0.770036 -0.114649
v 0.307741 0.777588 -0.121920
v 0.285474 0.762976 -0.132538
v 0.289738 0.770528 -0.139810
v 0.269618 0.783060 -0.154286
v 0.274060 0.825277 0.030566
v 0.290056 0.856414 0.013433
v 0.265071 0.845223 0.012117
v 0.276375 0.851778 0.004120
v 0.279949 0.922938 -0.037973
v 0.267843 0.957216 -0.019611
v 0.255670 0.969406 -0.000865
v 0.273349 0.990902 0.003566
v 0.256452 1.006280 0.015105
v 0.268490 0.995548 -0.002493
v 0.257075 1.043860 0.008009
v 0.277061 1.027310 0.006053
v 0.270046 1.058880 -0.013237
v 0.288827 1.039270 -0.013152
v 0.280989 1.035540 -0.017770
v 0.270943 1.023820 -0.000246
v 0.279455 1.060460 -0.054558
v 0.277196 1.047260 -0.080357
v 0.294644 1.030280 -0.071166
v 0.296749 1.040610 -0.047945
v 0.287748 1.036680 -0.047457
v 0.286463 1.026440 -0.068406
v 0.280328 1.010310 -0.089749
v 0.288185 0.989510 -0.051378
v 0.283751 0.998126 -0.069512
v 0.290828 0.993855 -0.073196
v 0.271251 1.009230 -0.098175
v 0.213932 1.004840 -0.151328
v 0.226540 0.914918 -0.148830
v 0.277265 0.920215 -0.092450
v 0.271444 0.863007 -0.111529
v 0.254454 0.856502 -0.131263
v 0.246922 0.840490 -0.143050
v 0.249272 0.841144 -0.140335
v 0.211725 1.073550 -0.151064
v 0.202305 1.073060 -0.146844
v 0.204319 1.003740 -0.146201
v 0.210112 0.964270 -0.145265
v 0.212889 1.136290 -0.146131
v 0.280770 0.865940 -0.122207
v 0.301101 0.852651 -0.108307
v 0.289783 0.849463 -0.095040
v 0.305927 0.830222 -0.109002
v 0.262477 0.858896 -0.140311
v 0.305927 0.830222 -0.109002
v 0.312267 0.860166 -0.084114
v 0.296230 0.855118 -0.082155
v 0.294486 0.858447 -0.036999
v 0.308262 0.862947 -0.033545
v 0.257628 0.807418 -0.158352
v 0.253925 0.834437 -0.154341
v 0.249272 0.841144 -0.140335
v 0.276396 0.958653 -0.057209
v 0.273320 0.972377 -0.078430
v 0.295624 0.981978 -0.052395
v 0.286863 0.980498 -0.013923
v 0.280471 0.988207 -0.017503
v 0.198484 0.830063 0.017988
v 0.198907 0.822681 0.017296
v 0.198907 0.822681 0.017296
v 0.200826 0.797302 0.014687
v 0.207946 0.783452 0.023935
v 0.205030 0.781033 0.008592
v 0.216727 0.772201 0.031573
v 0.232364 0.786926 -0.116086
v 0.245565 0.790158 -0.136237
v 0.236789 0.801078 -0.134879
v 0.228837 0.829147 -0.124552
v 0.242527 0.837886 -0.134001
v 0.228713 0.835170 -0.125113
v 0.238277 0.836785 -0.139089
v 0.217615 0.913148 -0.144053
v 0.217615 0.913148 -0.144053
v 0.252882 0.787122 -0.141177
v 0.255697 0.778825 -0.138605
v 0.253925 0.834437 -0.154341
v 0.249272 0.841144 -0.140335
v 0.269618 0.783060 -0.154286
v 0.255697 0.778825 -0.138605
v 0.273408 0.759305 -0.118947
v 0.273408 0.759305 -0.118947
v 0.289571 0.766119 -0.098683
v 0.169181 1.128910 0.045823
v 0.163670 1.130540 0.037629
v 0.212889 1.136290 -0.146131
v 0.204350 1.137410 -0.141030
v 0.269290 0.846924 0.029482
v 0.265071 0.845223 0.012117
v 0.274060 0.825277 0.030566
v 0.204350 1.137410 -0.141030
v 0.241514 0.753876 0.020123
v 0.241514 0.753876 0.020123
v 0.264825 0.762075 0.009369
v 0.209213 0.834405 0.034826
v 0.163670 1.130540 0.037629
v 0.188037 0.872482 0.025731
v 0.239267 0.675514 -0.004578
v 0.286665 0.692063 -0.006599
v 0.295036 0.693477 -0.043364
v 0.271737 0.687233 0.003266
v 0.261825 0.679325 -0.103647
v 0.303407 0.694892 -0.080130
v 0.294295 0.691044 -0.095802
v -0.200095 0.830335 0.028595
v -0.198484 0.830063 0.017988
v -0.205963 0.831700 0.026004
v -0.206116 0.833596 0.036163
v -0.209213 0.834405 0.034826
v -0.178051 0.906464 0.029700
v -0.184003 0.907732 0.037982
v -0.217445 0.850199 0.029954
v -0.254022 0.916288 0.009628
v -0.244645 1.004740 0.018675
v -0.170060 0.997431 0.041344
v -0.236398 1.057270 0.008408
v -0.167021 1.065950 0.045113
v -0.160360 1.065930 0.037212
v -0.169181 1.128910 0.045823
v -0.163629 0.996864 0.032500
v -0.241100 0.857776 0.019706
v -0.244979 0.859408 0.034103
v -0.221005 0.851428 0.041878
v -0.207812 0.826377 0.048925
v -0.204971 0.825341 0.040277
v -0.207018 0.798023 0.043514
v -0.209862 0.799383 0.052116
v -0.212949 0.780312 0.033269
v -0.222657 0.775419 0.051884
v -0.221320 1.127220 0.001973
v -0.248370 1.074450 -0.014755
v -0.243712 1.128420 -0.038320
v -0.261197 1.075360 -0.060908
v -0.240965 1.130540 -0.084302
v -0.258065 1.061140 -0.088795
v -0.233814 1.129650 -0.040527
v -0.213616 1.129270 -0.004404
v -0.231228 1.132240 -0.081752
v -0.247017 0.763721 0.046715
v -0.246580 0.756406 0.038272
v -0.216727 0.772201 0.031573
v -0.270429 0.764452 0.030493
v -0.270641 0.771700 0.039008
v -0.285030 0.793056 0.032010
v -0.283923 0.789314 0.014522
v -0.296649 0.807088 0.007965
v -0.303203 0.816439 0.015886
v -0.322204 0.823218 -0.031898
v -0.315470 0.813939 -0.033885
v -0.316978 0.810088 -0.080446
v -0.325842 0.820261 -0.083597
v -0.316892 0.798299 -0.107889
v -0.309186 0.792397 -0.092912
v -0.303477 0.770036 -0.114649
v -0.307741 0.777588 -0.121920
v -0.285474 0.762976 -0.132538
v -0.289738 0.770528 -0.139810
v -0.269618 0.783060 -0.154286
v -0.274060 0.825277 0.030566
v -0.290056 0.856414 0.013433
v -0.265071 0.845223 0.012117
v -0.276375 0.851778 0.004120
v -0.279949 0.922938 -0.037973
v -0.267843 0.957216 -0.019611
v -0.255670 0.969406 -0.000865
v -0.273349 0.990902 0.003566
v -0.256452 1.006280 0.015105
v -0.268490 0.995548 -0.002493
v -0.257075 1.043860 0.008009
v -0.277061 1.027310 0.006053
v -0.270046 1.058880 -0.013237
v -0.288827 1.039270 -0.013152
v -0.280989 1.035540 -0.017770
v -0.270943 1.023820 -0.000246
v -0.279455 1.060460 -0.054558
v -0.277196 1.047260 -0.080357
v -0.294644 1.030280 -0.071166
v -0.296749 1.040610 -0.047945
v -0.287748 1.036680 -0.047457
v -0.286463 1.026440 -0.068406
v -0.280328 1.010310 -0.089749
v -0.288185 0.989510 -0.051378
v -0.283751 0.998126 -0.069512
v -0.290828 0.993855 -0.073196
v -0.271251 1.009230 -0.098175
v -0.213932 1.004840 -0.151328
v -0.226540 0.914918 -0.148830
v -0.277265 0.920215 -0.092450
v -0.271444 0.863007 -0.111529
v -0.254454 0.856502 -0.131263
v -0.246922 0.840490 -0.143050
v -0.249272 0.841144 -0.140335
v -0.211725 1.073550 -0.151064
v -0.202305 1.073060 -0.146844
v -0.204319 1.003740 -0.146201
v -0.210112 0.964270 -0.145265
v -0.212889 1.136290 -0.146131
v -0.280770 0.865940 -0.122207
v -0.301101 0.852651 -0.108307
v -0.289783 0.849463 -0.095040
v -0.305927 0.830222 -0.109002
v -0.262477 0.858896 -0.140311
v -0.305927 0.830222 -0.109002
v -0.312267 0.860166 -0.084114
v -0.296230 0.855118 -0.082155
v -0.294486 0.858447 -0.036999
v -0.308262 0.862947 -0.033545
v -0.257628 0.807418 -0.158352
v -0.253925 0.834437 -0.154341
v -0.249272 0.841144 -0.140335
v -0.276396 0.958653 -0.057209
v -0.273320 0.972377 -0.078430
v -0.295624 0.981978 -0.052395
v -0.286863 0.980498 -0.013923
v -0.280471 0.988207 -0.017503
v -0.198484 0.830063 0.017988
v -0.198907 0.822681 0.017296
v -0.209213 0.834405 0.034826
v -0.198907 0.822681 0.017296
v -0.200826 0.797302 0.014687
v -0.207946 0.783452 0.023935
v -0.205030 0.781033 0.008592
v -0.232364 0.786926 -0.116086
v -0.236789 0.801078 -0.134879
v -0.245565 0.790158 -0.136237
v -0.228837 0.829147 -0.124552
v -0.242527 0.837886 -0.134001
v -0.252882 0.787122 -0.141177
v -0.228837 0.829147 -0.124552
v -0.228713 0.835170 -0.125113
v -0.228713 0.835170 -0.125113
v -0.238277 0.836785 -0.139089
v -0.217615 0.913148 -0.144053
v -0.228713 0.835170 -0.125113
v -0.217615 0.913148 -0.144053
v -0.253925 0.834437 -0.154341
v -0.249272 0.841144 -0.140335
v -0.255697 0.778825 -0.138605
v -0.273408 0.759305 -0.118947
v -0.252882 0.787122 -0.141177
v -0.273408 0.759305 -0.118947
v -0.289571 0.766119 -0.098683
v -0.169181 1.128910 0.045823
v -0.163670 1.130540 0.037629
v -0.212889 1.136290 -0.146131
v -0.204350 1.137410 -0.141030
v -0.269290 0.846924 0.029482
v -0.265071 0.845223 0.012117
v -0.274060 0.825277 0.030566
v -0.204350 1.137410 -0.141030
v -0.269618 0.783060 -0.154286
v -0.241514 0.753876 0.020123
v -0.241514 0.753876 0.020123
v -0.264825 0.762075 0.009369
v -0.212949 0.780312 0.033269
v -0.209213 0.834405 0.034826
v -0.163670 1.130540 0.037629
v -0.188037 0.872482 0.025731
v -0.198484 0.830063 0.017988
v -0.239267 0.675514 -0.004578
v -0.286665 0.692063 -0.006599
v -0.271737 0.687233 0.003266
v -0.295036 0.693477 -0.043364
v -0.261825 0.679325 -0.103647
v -0.303407 0.694892 -0.080130
v -0.294295 0.691044 -0.095802
v 0.243867 0.764611 -0.152408
v 0.273408 0.759305 -0.118947
v 0.255697 0.778825 -0.138605
v 0.253259 0.726343 -0.144074
v 0.245506 0.723642 -0.139987
v 0.235123 0.764761 -0.149238
v 0.264798 0.714638 -0.132472
v 0.258029 0.710527 -0.127341
v 0.283261 0.723269 -0.097319
v 0.291208 0.728384 -0.100067
v 0.292611 0.749338 -0.096711
v 0.302852 0.734445 -0.085778
v 0.298579 0.752524 -0.089119
v 0.289571 0.766119 -0.098683
v 0.291951 0.727998 -0.081525
v 0.303407 0.694892 -0.080130
v 0.294295 0.691044 -0.095802
v 0.253084 0.709784 -0.104633
v 0.261825 0.679325 -0.103647
v 0.294302 0.733577 -0.041989
v 0.283507 0.726752 -0.044710
v 0.275182 0.725165 -0.007880
v 0.283064 0.731102 0.001127
v 0.266262 0.724114 0.008592
v 0.260593 0.719438 0.002214
v 0.228898 0.708573 0.025193
v 0.225082 0.704961 0.017354
v 0.208106 0.717324 0.024263
v 0.213283 0.719590 0.031486
v 0.241514 0.753876 0.020123
v 0.268857 0.745325 0.007612
v 0.264825 0.762075 0.009369
v 0.286665 0.692063 -0.006599
v 0.295036 0.693477 -0.043364
v 0.271737 0.687233 0.003266
v 0.230462 0.705963 -0.005284
v 0.239267 0.675514 -0.004578
v 0.277466 0.748957 0.003602
v 0.289587 0.750725 -0.042403
v 0.299896 0.755682 -0.039865
v 0.302141 0.753921 -0.094364
v 0.278387 0.749908 0.009958
v 0.293814 0.772141 0.013905
v 0.283923 0.789314 0.014522
v 0.308173 0.783733 0.008008
v 0.314899 0.776933 -0.035631
v 0.326391 0.790016 -0.032511
v 0.327589 0.787013 -0.077263
v 0.315470 0.813939 -0.033885
v 0.316978 0.810088 -0.080446
v 0.309186 0.792397 -0.092912
v 0.317386 0.776123 -0.089618
v 0.296649 0.807088 0.007965
v 0.289571 0.766119 -0.098683
v 0.264825 0.762075 0.009369
v 0.303407 0.694892 -0.080130
v 0.200577 0.757298 0.037711
v 0.216727 0.772201 0.031573
v 0.194062 0.757824 0.031092
v 0.204724 0.776687 0.037101
v 0.216727 0.772201 0.031573
v 0.212949 0.780312 0.033269
v 0.198271 0.779360 0.030494
v 0.212949 0.780312 0.033269
v 0.207946 0.783452 0.023935
v 0.194062 0.757824 0.031092
v 0.253084 0.709784 -0.104633
v 0.247020 0.783832 -0.148650
v 0.252882 0.787122 -0.141177
v 0.235123 0.764761 -0.149238
v 0.238301 0.786123 -0.145307
v 0.245565 0.790158 -0.136237
v 0.252882 0.787122 -0.141177
v -0.014082 1.131810 -0.209917
v 0.000000 1.095100 -0.203519
v 0.000000 1.132590 -0.207445
v -0.011125 1.094390 -0.206410
v -0.034042 1.094140 -0.220804
v -0.037909 1.132050 -0.223119
v 0.000000 1.169570 -0.206364
v -0.019526 1.170040 -0.208863
v 0.000000 1.210170 -0.196577
v -0.027742 1.208810 -0.201479
v -0.032593 1.244900 -0.188149
v 0.000000 1.244900 -0.185702
v -0.079652 1.087840 -0.237026
v -0.083654 1.130540 -0.234011
v -0.045529 1.172740 -0.215049
v -0.089530 1.169890 -0.222241
v -0.056403 1.209100 -0.202661
v -0.096126 1.210710 -0.200411
v -0.062525 1.246220 -0.184641
v -0.101598 1.248120 -0.176591
v -0.151924 1.204180 -0.166506
v -0.147889 1.247000 -0.146508
v -0.183186 1.188980 -0.104517
v -0.171234 1.240550 -0.088076
v -0.162200 1.229640 -0.042420
v -0.183044 1.171410 -0.051990
v -0.157875 1.153740 -0.169796
v -0.185953 1.140840 -0.121022
v -0.135985 1.158810 -0.194976
v -0.130012 1.122310 -0.215848
v -0.178979 1.113410 -0.146982
v -0.158093 1.117660 -0.178733
v -0.193230 1.105150 -0.057003
v -0.137802 1.215060 -0.005574
v -0.151002 1.139460 -0.001491
v -0.099900 1.200310 0.025471
v -0.102627 1.113020 0.022105
v -0.048428 1.189530 0.042298
v -0.048296 1.102340 0.026425
v -0.149985 1.088850 0.012306
v -0.097159 1.068050 0.025752
v -0.048438 1.050110 0.020200
v 0.000000 1.102270 0.033790
v 0.000000 1.035430 0.032131
v -0.049421 1.030850 0.019103
v 0.000000 1.185160 0.043309
v -0.025599 1.009960 0.003956
v -0.051387 1.011380 0.018063
v -0.020532 0.992627 -0.001539
v 0.000000 1.012040 0.009399
v -0.047126 0.932814 0.019352
v -0.092545 0.947163 0.028347
v -0.093036 1.029130 0.030055
v -0.094444 0.830825 0.028983
v -0.142044 0.855630 0.042981
v -0.138822 0.958166 0.039755
v -0.052639 0.827819 -0.011051
v -0.022097 0.868382 -0.027220
v -0.023428 0.863650 -0.094938
v -0.046225 0.786946 -0.091062
v -0.015101 0.912130 -0.087067
v -0.017336 0.927302 -0.011959
v -0.059492 0.751646 -0.024236
v -0.066266 0.719979 -0.103510
v -0.148973 1.034140 0.027478
v -0.170382 0.980361 0.020433
v -0.012676 0.976429 -0.066293
v -0.146912 0.780736 0.038704
v -0.090554 0.763288 0.023379
v -0.157107 0.711009 0.014694
v -0.100267 0.695693 0.004976
v -0.166476 0.666805 -0.008142
v -0.115516 0.653143 -0.018532
v -0.169945 0.615998 -0.010576
v -0.132250 0.610173 -0.034424
v -0.078433 0.645946 -0.056128
v -0.089532 0.604998 -0.066751
v -0.109625 0.570238 -0.074403
v -0.089655 0.610639 -0.122914
v -0.106942 0.576564 -0.128444
v -0.143685 0.578269 -0.038546
v -0.179457 0.583247 -0.018603
v -0.202786 0.623653 -0.015034
v -0.211936 0.591324 -0.020099
v -0.200703 0.678088 -0.023395
v -0.242920 0.633964 -0.059672
v -0.234565 0.688373 -0.057230
v -0.245625 0.640920 -0.112590
v -0.224466 0.688973 -0.104709
v -0.249123 0.603625 -0.063572
v -0.252664 0.610548 -0.118459
v -0.229385 0.641333 -0.149125
v -0.237726 0.611017 -0.153553
v -0.199625 0.637541 -0.172652
v -0.204619 0.606333 -0.177777
v -0.160074 0.630535 -0.180081
v -0.164488 0.597881 -0.184498
v -0.124713 0.622728 -0.165007
v -0.129721 0.588659 -0.166131
v -0.184031 0.681480 -0.155872
v -0.210680 0.687485 -0.138534
v -0.214690 0.772405 -0.145382
v -0.228365 0.763619 -0.119560
v -0.182909 0.761486 -0.169489
v -0.131385 0.744044 -0.179045
v -0.149847 0.672757 -0.164544
v -0.086293 0.725105 -0.151257
v -0.117485 0.663221 -0.152199
v -0.167065 0.831321 -0.185620
v -0.205321 0.850808 -0.157207
v -0.140801 0.924714 -0.190301
v -0.087242 0.906270 -0.185076
v -0.121949 0.981803 -0.188180
v -0.067257 0.994902 -0.182852
v -0.109023 0.814995 -0.185177
v -0.186523 0.940367 -0.172286
v -0.165130 0.997813 -0.179820
v -0.153905 1.019700 -0.187046
v -0.118552 1.005610 -0.202696
v -0.075490 1.010460 -0.205706
v -0.055438 0.795728 -0.154059
v -0.119677 1.039260 -0.215281
v -0.077502 1.045120 -0.228892
v -0.030493 0.889110 -0.151052
v -0.019916 0.986854 -0.132091
v -0.038801 1.005480 -0.164469
v -0.023428 0.863650 -0.094938
v -0.046225 0.786946 -0.091062
v -0.066266 0.719979 -0.103510
v -0.080686 0.651669 -0.118762
v -0.089655 0.610639 -0.122914
v -0.106942 0.576564 -0.128444
v -0.015101 0.912130 -0.087067
v -0.012676 0.976429 -0.066293
v -0.013492 0.986618 -0.064597
v -0.014871 1.013250 -0.136047
v -0.013143 1.029940 -0.165234
v 0.000000 1.031140 -0.161269
v -0.037259 1.022650 -0.191566
v -0.010433 1.057380 -0.194987
v -0.033462 1.052020 -0.209816
v 0.000000 1.018670 -0.129343
v 0.000000 1.031140 -0.161269
v 0.000000 0.989984 -0.062268
v 0.000000 1.058190 -0.189563
v -0.124859 1.079330 -0.222622
v -0.149313 1.039820 -0.189505
v -0.155107 1.075550 -0.187200
v -0.180875 1.049710 -0.147751
v -0.182486 1.083200 -0.149670
v -0.202148 1.092440 -0.106056
v -0.215240 1.032710 -0.090492
v -0.208467 1.033910 -0.038186
v -0.174028 1.097210 -0.014146
v -0.184509 1.021120 0.004182
v -0.191910 1.013970 -0.146507
v -0.204340 1.002430 -0.130447
v -0.210112 0.964270 -0.145265
v -0.217615 0.913148 -0.144053
v -0.228713 0.835170 -0.125113
v -0.228837 0.829147 -0.124552
v -0.232364 0.786926 -0.116086
v -0.188037 0.872482 0.025731
v -0.198484 0.830063 0.017988
v -0.198907 0.822681 0.017296
v -0.200826 0.797302 0.014687
v -0.205030 0.781033 0.008592
v -0.200029 0.758832 0.004888
v -0.215372 0.722613 -0.012844
v -0.239137 0.710934 -0.059280
v -0.233164 0.721557 -0.085784
v -0.239137 0.710934 -0.059280
v -0.228365 0.763619 -0.119560
v 0.000000 0.989984 -0.062268
v 0.000000 1.012040 0.009399
v -0.013492 0.986618 -0.064597
v -0.068155 0.692812 -0.039728
v -0.080686 0.651669 -0.118762
v -0.106942 0.576564 -0.128444
v -0.125083 0.572186 -0.125742
v -0.140006 0.578871 -0.157739
v -0.166897 0.586493 -0.171466
v -0.201813 0.594016 -0.165711
v -0.227214 0.597997 -0.146709
v -0.239817 0.597848 -0.116188
v -0.237656 0.592725 -0.070293
v -0.207828 0.582181 -0.034326
v -0.183105 0.576600 -0.031615
v -0.156685 0.573614 -0.054179
v -0.123315 0.567225 -0.080549
v -0.106942 0.576564 -0.128444
v -0.125083 0.572186 -0.125742
v 0.014082 1.131810 -0.209917
v 0.000000 1.095100 -0.203519
v 0.011125 1.094390 -0.206410
v 0.000000 1.132590 -0.207445
v 0.034042 1.094140 -0.220804
v 0.037909 1.132050 -0.223119
v 0.000000 1.169570 -0.206364
v 0.019526 1.170040 -0.208863
v 0.000000 1.210170 -0.196577
v 0.027742 1.208810 -0.201479
v 0.032593 1.244900 -0.188149
v 0.000000 1.244900 -0.185702
v 0.079652 1.087840 -0.237026
v 0.083654 1.130540 -0.234011
v 0.045529 1.172740 -0.215049
v 0.089530 1.169890 -0.222241
v 0.056403 1.209100 -0.202661
v 0.096126 1.210710 -0.200411
v 0.062525 1.246220 -0.184641
v 0.101598 1.248120 -0.176591
v 0.151924 1.204180 -0.166506
v 0.147889 1.247000 -0.146508
v 0.183186 1.188980 -0.104517
v 0.171234 1.240550 -0.088076
v 0.162200 1.229640 -0.042420
v 0.183044 1.171410 -0.051990
v 0.157875 1.153740 -0.169796
v 0.185953 1.140840 -0.121022
v 0.135985 1.158810 -0.194976
v 0.130012 1.122310 -0.215848
v 0.178979 1.113410 -0.146982
v 0.158093 1.117660 -0.178733
v 0.193230 1.105150 -0.057003
v 0.137802 1.215060 -0.005574
v 0.151002 1.139460 -0.001491
v 0.099900 1.200310 0.025471
v 0.102627 1.113020 0.022105
v 0.048428 1.189530 0.042298
v 0.048296 1.102340 0.026425
v 0.149985 1.088850 0.012306
v 0.097159 1.068050 0.025752
v 0.048438 1.050110 0.020200
v 0.000000 1.102270 0.033790
v 0.000000 1.035430 0.032131
v 0.049421 1.030850 0.019103
v 0.000000 1.185160 0.043309
v 0.025599 1.009960 0.003956
v 0.051387 1.011380 0.018063
v 0.020532 0.992627 -0.001539
v 0.000000 1.012040 0.009399
v 0.047126 0.932814 0.019352
v 0.092545 0.947163 0.028347
v 0.093036 1.029130 0.030055
v 0.094444 0.830825 0.028983
v 0.142044 0.855630 0.042981
v 0.138822 0.958166 0.039755
v 0.052639 0.827819 -0.011051
v 0.022097 0.868382 -0.027220
v 0.023428 0.863650 -0.094938
v 0.046225 0.786946 -0.091062
v 0.015101 0.912130 -0.087067
v 0.017336 0.927302 -0.011959
v 0.059492 0.751646 -0.024236
v 0.066266 0.719979 -0.103510
v 0.148973 1.034140 0.027478
v 0.170382 0.980361 0.020433
v 0.012676 0.976429 -0.066293
v 0.146912 0.780736 0.038704
v 0.090554 0.763288 0.023379
v 0.157107 0.711009 0.014694
v 0.100267 0.695693 0.004976
v 0.166476 0.666805 -0.008142
v 0.115516 0.653143 -0.018532
v 0.169945 0.615998 -0.010576
v 0.132250 0.610173 -0.034424
v 0.078433 0.645946 -0.056128
v 0.089532 0.604998 -0.066751
v 0.109625 0.570238 -0.074403
v 0.089655 0.610639 -0.122914
v 0.106942 0.576564 -0.128444
v 0.143685 0.578269 -0.038546
v 0.179457 0.583247 -0.018603
v 0.202786 0.623653 -0.015034
v 0.211936 0.591324 -0.020099
v 0.200703 0.678088 -0.023395
v 0.242920 0.633964 -0.059672
v 0.234565 0.688373 -0.057230
v 0.245625 0.640920 -0.112590
v 0.224466 0.688973 -0.104709
v 0.249123 0.603625 -0.063572
v 0.252664 0.610548 -0.118459
v 0.229385 0.641333 -0.149125
v 0.237726 0.611017 -0.153553
v 0.199625 0.637541 -0.172652
v 0.204619 0.606333 -0.177777
v 0.160074 0.630535 -0.180081
v 0.164488 0.597881 -0.184498
v 0.124713 0.622728 -0.165007
v 0.129721 0.588659 -0.166131
v 0.184031 0.681480 -0.155872
v 0.210680 0.687485 -0.138534
v 0.214690 0.772405 -0.145382
v 0.228365 0.763619 -0.119560
v 0.182909 0.761486 -0.169489
v 0.131385 0.744044 -0.179045
v 0.149847 0.672757 -0.164544
v 0.086293 0.725105 -0.151257
v 0.117485 0.663221 -0.152199
v 0.167065 0.831321 -0.185620
v 0.205321 0.850808 -0.157207
v 0.140801 0.924714 -0.190301
v 0.087242 0.906270 -0.185076
v 0.121949 0.981803 -0.188180
v 0.067257 0.994902 -0.182852
v 0.109023 0.814995 -0.185177
v 0.186523 0.940367 -0.172286
v 0.165130 0.997813 -0.179820
v 0.153905 1.019700 -0.187046
v 0.118552 1.005610 -0.202696
v 0.075490 1.010460 -0.205706
v 0.055438 0.795728 -0.154059
v 0.119677 1.039260 -0.215281
v 0.077502 1.045120 -0.228892
v 0.030493 0.889110 -0.151052
v 0.019916 0.986854 -0.132091
v 0.038801 1.005480 -0.164469
v 0.023428 0.863650 -0.094938
v 0.046225 0.786946 -0.091062
v 0.066266 0.719979 -0.103510
v 0.080686 0.651669 -0.118762
v 0.089655 0.610639 -0.122914
v 0.106942 0.576564 -0.128444
v 0.015101 0.912130 -0.087067
v 0.012676 0.976429 -0.066293
v 0.013492 0.986618 -0.064597
v 0.014871 1.013250 -0.136047
v 0.013143 1.029940 -0.165234
v 0.000000 1.031140 -0.161269
v 0.037259 1.022650 -0.191566
v 0.010433 1.057380 -0.194987
v 0.033462 1.052020 -0.209816
v 0.000000 1.031140 -0.161269
v 0.000000 0.989984 -0.062268
v 0.000000 1.058190 -0.189563
v 0.124859 1.079330 -0.222622
v 0.149313 1.039820 -0.189505
v 0.155107 1.075550 -0.187200
v 0.180875 1.049710 -0.147751
v 0.182486 1.083200 -0.149670
v 0.202148 1.092440 -0.106056
v 0.215240 1.032710 -0.090492
v 0.208467 1.033910 -0.038186
v 0.174028 1.097210 -0.014146
v 0.184509 1.021120 0.004182
v 0.191910 1.013970 -0.146507
v 0.204340 1.002430 -0.130447
v 0.210112 0.964270 -0.145265
v 0.217615 0.913148 -0.144053
v 0.228713 0.835170 -0.125113
v 0.228837 0.829147 -0.124552
v 0.232364 0.786926 -0.116086
v 0.188037 0.872482 0.025731
v 0.198484 0.830063 0.017988
v 0.198907 0.822681 0.017296
v 0.200826 0.797302 0.014687
v 0.205030 0.781033 0.008592
v 0.200029 0.758832 0.004888
v 0.215372 0.722613 -0.012844
v 0.239137 0.710934 -0.059280
v 0.233164 0.721557 -0.085784
v 0.228365 0.763619 -0.119560
v 0.239137 0.710934 -0.059280
v 0.000000 0.989984 -0.062268
v 0.013492 0.986618 -0.064597
v 0.000000 1.012040 0.009399
v 0.068155 0.692812 -0.039728
v 0.080686 0.651669 -0.118762
v 0.106942 0.576564 -0.128444
v 0.125083 0.572186 -0.125742
v 0.140006 0.578871 -0.157739
v 0.166897 0.586493 -0.171466
v 0.201813 0.594016 -0.165711
v 0.227214 0.597997 -0.146709
v 0.239817 0.597848 -0.116188
v 0.237656 0.592725 -0.070293
v 0.207828 0.582181 -0.034326
v 0.183105 0.576600 -0.031615
v 0.156685 0.573614 -0.054179
v 0.123315 0.567225 -0.080549
v 0.106942 0.576564 -0.128444
v 0.125083 0.572186 -0.125742
vt 0.511300 0.901100
vt 0.475200 0.854400
vt 0.474900 0.904900
vt 0.512400 0.846900
vt 0.447000 0.903400
vt 0.440600 0.837300
vt 0.455900 0.992100
vt 0.485000 0.992400
vt 0.410500 0.989900
vt 0.411000 0.898900
vt 0.513900 0.989200
vt 0.559300 0.982400
vt 0.556700 0.891700
vt 0.416500 0.802400
vt 0.426300 0.779600
vt 0.538100 0.796700
vt 0.549000 0.795900
vt 0.424000 0.674600
vt 0.430000 0.626200
vt 0.545100 0.740400
vt 0.801900 0.615500
vt 0.801400 0.646600
vt 0.807000 0.634200
vt 0.786400 0.614100
vt 0.786800 0.650500
vt 0.786400 0.614100
vt 0.758200 0.640700
vt 0.760300 0.589200
vt 0.744700 0.595800
vt 0.744900 0.627300
vt 0.760300 0.589200
vt 0.747400 0.521600
vt 0.744000 0.457800
vt 0.757400 0.487700
vt 0.757000 0.412400
vt 0.785700 0.441800
vt 0.785500 0.400600
vt 0.743800 0.426300
vt 0.785700 0.441800
vt 0.800100 0.403400
vt 0.801700 0.443700
vt 0.807000 0.412600
vt 0.744700 0.595800
vt 0.722700 0.458500
vt 0.723500 0.596100
vt 0.744000 0.457800
vt 0.511300 0.901100
vt 0.475200 0.854400
vt 0.512400 0.846900
vt 0.474900 0.904900
vt 0.447000 0.903400
vt 0.440600 0.837300
vt 0.455900 0.992100
vt 0.485000 0.992400
vt 0.410500 0.989900
vt 0.411000 0.898900
vt 0.513900 0.989200
vt 0.559300 0.982400
vt 0.556700 0.891700
vt 0.426300 0.779600
vt 0.416500 0.802400
vt 0.538100 0.796700
vt 0.549000 0.795900
vt 0.424000 0.674600
vt 0.430000 0.626200
vt 0.545100 0.740400
vt 0.801900 0.615500
vt 0.807000 0.634200
vt 0.801400 0.646600
vt 0.786400 0.614100
vt 0.786800 0.650500
vt 0.758200 0.640700
vt 0.786400 0.614100
vt 0.760300 0.589200
vt 0.744900 0.627300
vt 0.744700 0.595800
vt 0.760300 0.589200
vt 0.747400 0.521600
vt 0.744000 0.457800
vt 0.757400 0.487700
vt 0.757000 0.412400
vt 0.785700 0.441800
vt 0.785500 0.400600
vt 0.743800 0.426300
vt 0.800100 0.403400
vt 0.785700 0.441800
vt 0.801700 0.443700
vt 0.807000 0.412600
vt 0.744700 0.595800
vt 0.722700 0.458500
vt 0.744000 0.457800
vt 0.723500 0.596100
vt 0.194400 0.712200
vt 0.229000 0.719000
vt 0.209700 0.660100
vt 0.204900 0.741100
vt 0.205600 0.649200
vt 0.187500 0.708900
vt 0.223100 0.649100
vt 0.222500 0.638200
vt 0.254100 0.655800
vt 0.254200 0.674300
vt 0.253600 0.712200
vt 0.266500 0.689200
vt 0.262400 0.718200
vt 0.246200 0.735600
vt 0.258900 0.725800
vt 0.260300 0.767800
vt 0.250600 0.788400
vt 0.268600 0.790000
vt 0.261200 0.825100
vt 0.300900 0.843300
vt 0.300600 0.804100
vt 0.300600 0.778000
vt 0.332600 0.789800
vt 0.340700 0.767500
vt 0.351300 0.789100
vt 0.340400 0.825300
vt 0.355000 0.735600
vt 0.342200 0.725600
vt 0.347500 0.712100
vt 0.372200 0.718700
vt 0.378000 0.649000
vt 0.391400 0.660000
vt 0.395500 0.649200
vt 0.378500 0.638100
vt 0.347000 0.655700
vt 0.347100 0.674000
vt 0.331400 0.668900
vt 0.334600 0.689200
vt 0.300500 0.692800
vt 0.300500 0.673500
vt 0.325800 0.615300
vt 0.300500 0.619800
vt 0.335300 0.607300
vt 0.367300 0.618800
vt 0.356500 0.578100
vt 0.275300 0.615400
vt 0.269700 0.669000
vt 0.275300 0.615400
vt 0.265700 0.607300
vt 0.233800 0.619000
vt 0.244600 0.578200
vt 0.300500 0.720100
vt 0.300500 0.737700
vt 0.338700 0.718100
vt 0.367300 0.618800
vt 0.406600 0.712200
vt 0.396300 0.740900
vt 0.407100 0.741500
vt 0.402100 0.752100
vt 0.413500 0.708900
vt 0.402100 0.752100
vt 0.413900 0.745100
vt 0.409200 0.763200
vt 0.413500 0.708900
vt 0.233800 0.619000
vt 0.193900 0.741400
vt 0.199100 0.752200
vt 0.187500 0.708900
vt 0.187100 0.745200
vt 0.193000 0.761600
vt 0.199100 0.752200
vt 0.492000 0.166600
vt 0.492100 0.160700
vt 0.499100 0.166200
vt 0.485300 0.166100
vt 0.484400 0.163500
vt 0.489200 0.272100
vt 0.482100 0.270000
vt 0.472000 0.181800
vt 0.429700 0.253500
vt 0.429200 0.378600
vt 0.480300 0.393400
vt 0.424800 0.455900
vt 0.474000 0.487200
vt 0.480600 0.490000
vt 0.463500 0.569100
vt 0.487600 0.395300
vt 0.451000 0.182200
vt 0.454700 0.166100
vt 0.470500 0.167800
vt 0.483500 0.142400
vt 0.487600 0.147200
vt 0.493600 0.111100
vt 0.488900 0.110700
vt 0.501600 0.085300
vt 0.487600 0.078400
vt 0.419200 0.554100
vt 0.404700 0.478400
vt 0.387000 0.550500
vt 0.370600 0.475300
vt 0.354800 0.552600
vt 0.349900 0.454600
vt 0.386900 0.564000
vt 0.418000 0.568000
vt 0.355800 0.566500
vt 0.476800 0.052600
vt 0.478600 0.038000
vt 0.499300 0.065800
vt 0.460400 0.039500
vt 0.460300 0.052100
vt 0.444800 0.067100
vt 0.438500 0.045400
vt 0.423400 0.063600
vt 0.424100 0.082300
vt 0.389800 0.081700
vt 0.389800 0.066000
vt 0.356100 0.062300
vt 0.355500 0.080900
vt 0.335000 0.064300
vt 0.341500 0.042900
vt 0.320300 0.034700
vt 0.320000 0.047600
vt 0.302000 0.031600
vt 0.303700 0.046900
vt 0.292200 0.072400
vt 0.441100 0.114200
vt 0.420100 0.138200
vt 0.434100 0.154900
vt 0.422500 0.158600
vt 0.388600 0.251800
vt 0.402500 0.300000
vt 0.418600 0.321600
vt 0.411800 0.353100
vt 0.423100 0.377600
vt 0.410100 0.361300
vt 0.418000 0.431500
vt 0.410000 0.405800
vt 0.401200 0.448400
vt 0.397800 0.418500
vt 0.396600 0.409800
vt 0.408800 0.396700
vt 0.373900 0.448100
vt 0.357300 0.430200
vt 0.365500 0.404900
vt 0.377600 0.418200
vt 0.378900 0.409400
vt 0.366900 0.395800
vt 0.352800 0.376100
vt 0.377100 0.347900
vt 0.365900 0.360300
vt 0.364400 0.352000
vt 0.346800 0.376700
vt 0.295500 0.389300
vt 0.294800 0.265900
vt 0.347400 0.251500
vt 0.326900 0.179400
vt 0.305500 0.178000
vt 0.291600 0.161900
vt 0.292700 0.159300
vt 0.300700 0.483400
vt 0.294000 0.485900
vt 0.288200 0.390700
vt 0.287900 0.336100
vt 0.310300 0.565700
vt 0.323400 0.163800
vt 0.335900 0.140500
vt 0.344200 0.152700
vt 0.337800 0.111500
vt 0.307300 0.164500
vt 0.337800 0.111500
vt 0.358700 0.137100
vt 0.355900 0.157000
vt 0.389200 0.161900
vt 0.389400 0.140300
vt 0.290000 0.105100
vt 0.295100 0.138500
vt 0.292700 0.159300
vt 0.374200 0.299300
vt 0.357800 0.320200
vt 0.376400 0.336900
vt 0.399900 0.337400
vt 0.399100 0.348300
vt 0.499100 0.166200
vt 0.502100 0.156900
vt 0.502100 0.156900
vt 0.511400 0.123500
vt 0.508200 0.098700
vt 0.518600 0.103700
vt 0.499300 0.065800
vt 0.254900 0.102500
vt 0.271300 0.090000
vt 0.270100 0.111000
vt 0.270800 0.153800
vt 0.284400 0.155400
vt 0.273400 0.161800
vt 0.284700 0.162100
vt 0.288000 0.267400
vt 0.288000 0.267400
vt 0.278000 0.078200
vt 0.280100 0.060500
vt 0.295100 0.138500
vt 0.292700 0.159300
vt 0.292200 0.072400
vt 0.280100 0.060500
vt 0.290600 0.017000
vt 0.305100 0.005600
vt 0.324100 0.008300
vt 0.463500 0.569100
vt 0.465300 0.577500
vt 0.310300 0.565700
vt 0.308400 0.574000
vt 0.442700 0.142400
vt 0.434100 0.154900
vt 0.441100 0.114200
vt 0.308400 0.574000
vt 0.489800 0.023900
vt 0.476100 0.011000
vt 0.456900 0.012300
vt 0.484400 0.163500
vt 0.465300 0.577500
vt 0.493000 0.225500
vt 0.486300 0.654200
vt 0.519900 0.672500
vt 0.519900 0.725400
vt 0.510800 0.654200
vt 0.486300 0.796600
vt 0.519900 0.778200
vt 0.510800 0.796600
vt 0.030300 0.423900
vt 0.023200 0.424300
vt 0.030200 0.429800
vt 0.037000 0.424400
vt 0.037900 0.427000
vt 0.033100 0.318400
vt 0.040200 0.320500
vt 0.050300 0.408800
vt 0.092600 0.337000
vt 0.093100 0.211900
vt 0.042000 0.197100
vt 0.097500 0.134600
vt 0.048400 0.103300
vt 0.041700 0.100500
vt 0.058800 0.021400
vt 0.034800 0.195300
vt 0.071400 0.408300
vt 0.067600 0.424400
vt 0.051800 0.422700
vt 0.038800 0.448100
vt 0.034700 0.443300
vt 0.028700 0.479400
vt 0.033400 0.479800
vt 0.020700 0.505200
vt 0.034700 0.512100
vt 0.103100 0.036400
vt 0.117700 0.112100
vt 0.135300 0.040000
vt 0.151700 0.115200
vt 0.167600 0.038000
vt 0.172400 0.135900
vt 0.135400 0.026500
vt 0.104300 0.022500
vt 0.166500 0.024100
vt 0.045500 0.537900
vt 0.043700 0.552500
vt 0.023100 0.524800
vt 0.061900 0.551000
vt 0.062000 0.538400
vt 0.077500 0.523400
vt 0.083800 0.545100
vt 0.098900 0.526900
vt 0.098200 0.508200
vt 0.132500 0.508800
vt 0.132500 0.524500
vt 0.166200 0.528200
vt 0.166900 0.509600
vt 0.187300 0.526200
vt 0.180900 0.547600
vt 0.202100 0.555800
vt 0.202300 0.542900
vt 0.220400 0.558900
vt 0.218700 0.543600
vt 0.230100 0.518200
vt 0.081200 0.476300
vt 0.102200 0.452300
vt 0.088200 0.435600
vt 0.099800 0.431900
vt 0.133700 0.338700
vt 0.119800 0.290500
vt 0.103700 0.268900
vt 0.110600 0.237400
vt 0.099300 0.212900
vt 0.112200 0.229300
vt 0.104400 0.159000
vt 0.112300 0.184700
vt 0.121100 0.142100
vt 0.124500 0.172100
vt 0.125700 0.180800
vt 0.113600 0.193800
vt 0.148400 0.142400
vt 0.165000 0.160300
vt 0.156800 0.185600
vt 0.144800 0.172300
vt 0.143400 0.181100
vt 0.155400 0.194700
vt 0.169500 0.214400
vt 0.145200 0.242600
vt 0.156400 0.230200
vt 0.158000 0.238500
vt 0.175600 0.213800
vt 0.226800 0.201200
vt 0.227500 0.324700
vt 0.175000 0.339100
vt 0.195500 0.411100
vt 0.216800 0.412500
vt 0.230700 0.428600
vt 0.229600 0.431200
vt 0.221600 0.107100
vt 0.228400 0.104600
vt 0.234100 0.199900
vt 0.234400 0.254400
vt 0.212000 0.024800
vt 0.198900 0.426700
vt 0.186400 0.450000
vt 0.178100 0.437800
vt 0.184500 0.479000
vt 0.215000 0.426000
vt 0.184500 0.479000
vt 0.163600 0.453400
vt 0.166400 0.433500
vt 0.133100 0.428600
vt 0.132900 0.450200
vt 0.232300 0.485400
vt 0.227300 0.452100
vt 0.229600 0.431200
vt 0.148200 0.291200
vt 0.164500 0.270400
vt 0.145900 0.253600
vt 0.122400 0.253100
vt 0.123200 0.242200
vt 0.023200 0.424300
vt 0.020200 0.433600
vt 0.037900 0.427000
vt 0.020200 0.433600
vt 0.010900 0.467000
vt 0.014200 0.491800
vt 0.003700 0.486800
vt 0.267400 0.488000
vt 0.252200 0.479600
vt 0.251000 0.500500
vt 0.251500 0.436700
vt 0.237900 0.435100
vt 0.244300 0.512300
vt 0.251500 0.436700
vt 0.249000 0.428800
vt 0.249000 0.428800
vt 0.237600 0.428400
vt 0.234400 0.323100
vt 0.249000 0.428800
vt 0.234400 0.323100
vt 0.227300 0.452100
vt 0.229600 0.431200
vt 0.242200 0.530000
vt 0.231700 0.573500
vt 0.244300 0.512300
vt 0.217300 0.585000
vt 0.198200 0.582200
vt 0.058800 0.021400
vt 0.057000 0.013000
vt 0.212000 0.024800
vt 0.213900 0.016600
vt 0.079700 0.448200
vt 0.088200 0.435600
vt 0.081200 0.476300
vt 0.213900 0.016600
vt 0.230100 0.518200
vt 0.032500 0.566600
vt 0.046300 0.579500
vt 0.065500 0.578200
vt 0.020700 0.505200
vt 0.037900 0.427000
vt 0.057000 0.013000
vt 0.029400 0.365000
vt 0.023200 0.424300
vt 0.443200 0.652500
vt 0.476800 0.670900
vt 0.467800 0.652500
vt 0.476800 0.723700
vt 0.443200 0.794900
vt 0.476800 0.776500
vt 0.467800 0.794900
vt 0.012200 0.863900
vt 0.046800 0.870700
vt 0.022700 0.892800
vt 0.027400 0.811800
vt 0.023300 0.800900
vt 0.005300 0.860600
vt 0.040800 0.800800
vt 0.040300 0.789900
vt 0.071900 0.807500
vt 0.071900 0.826000
vt 0.071400 0.863900
vt 0.084300 0.840900
vt 0.080200 0.869900
vt 0.063900 0.887300
vt 0.087500 0.820700
vt 0.093100 0.767100
vt 0.083500 0.759000
vt 0.051500 0.770700
vt 0.062300 0.729900
vt 0.118300 0.844500
vt 0.118300 0.825300
vt 0.149200 0.820700
vt 0.152400 0.840900
vt 0.164900 0.825700
vt 0.164700 0.807400
vt 0.195800 0.800700
vt 0.196300 0.789800
vt 0.213300 0.800900
vt 0.209200 0.811800
vt 0.190000 0.870400
vt 0.165200 0.863800
vt 0.172800 0.887300
vt 0.143500 0.767000
vt 0.118300 0.771500
vt 0.153100 0.759000
vt 0.185000 0.770600
vt 0.174200 0.729800
vt 0.156400 0.869800
vt 0.118300 0.871800
vt 0.118300 0.889400
vt 0.076700 0.877500
vt 0.159900 0.877300
vt 0.158500 0.919200
vt 0.169100 0.940800
vt 0.150400 0.941600
vt 0.118300 0.929700
vt 0.118400 0.955800
vt 0.086400 0.941700
vt 0.118600 0.995000
vt 0.079000 0.976800
vt 0.068400 0.940100
vt 0.078100 0.919500
vt 0.158200 0.977000
vt 0.063900 0.887300
vt 0.172800 0.887300
vt 0.093100 0.767100
vt 0.224400 0.863900
vt 0.214100 0.892600
vt 0.231300 0.860600
vt 0.224900 0.893200
vt 0.214100 0.892600
vt 0.219800 0.903800
vt 0.231700 0.896800
vt 0.219800 0.903800
vt 0.227000 0.914900
vt 0.231300 0.860600
vt 0.051500 0.770700
vt 0.011700 0.893100
vt 0.016900 0.904000
vt 0.005300 0.860600
vt 0.004800 0.896900
vt 0.010700 0.913400
vt 0.016900 0.904000
vt 0.567800 0.824300
vt 0.554000 0.775800
vt 0.558000 0.828500
vt 0.561900 0.772900
vt 0.580000 0.770300
vt 0.585800 0.818400
vt 0.562500 0.880500
vt 0.576100 0.875800
vt 0.567800 0.939700
vt 0.586900 0.928400
vt 0.595600 0.981100
vt 0.572800 0.991300
vt 0.609000 0.757800
vt 0.614200 0.807400
vt 0.594400 0.871600
vt 0.621900 0.855400
vt 0.606500 0.920600
vt 0.633000 0.911400
vt 0.617100 0.975700
vt 0.645600 0.968300
vt 0.675800 0.897900
vt 0.684500 0.960500
vt 0.721900 0.880500
vt 0.728600 0.955200
vt 0.761800 0.949400
vt 0.757800 0.863000
vt 0.676500 0.830900
vt 0.713500 0.813700
vt 0.655200 0.838200
vt 0.643000 0.791700
vt 0.695800 0.776800
vt 0.671400 0.783900
vt 0.758600 0.771000
vt 0.794200 0.942900
vt 0.802800 0.834600
vt 0.829800 0.941100
vt 0.845800 0.818800
vt 0.867900 0.949600
vt 0.886300 0.828300
vt 0.817000 0.764900
vt 0.859300 0.756900
vt 0.899500 0.751300
vt 0.918400 0.852700
vt 0.936600 0.768500
vt 0.903000 0.720900
vt 0.900800 0.963800
vt 0.931500 0.694000
vt 0.905000 0.690600
vt 0.937000 0.662500
vt 0.946900 0.727100
vt 0.912800 0.570500
vt 0.880300 0.584700
vt 0.869600 0.701600
vt 0.886400 0.427800
vt 0.854800 0.455100
vt 0.846800 0.590200
vt 0.925100 0.419400
vt 0.947100 0.479200
vt 0.992400 0.447000
vt 0.973600 0.333300
vt 0.995100 0.523400
vt 0.942900 0.562400
vt 0.920800 0.313900
vt 0.963000 0.228600
vt 0.829900 0.689800
vt 0.820000 0.613400
vt 0.985800 0.624800
vt 0.853700 0.366900
vt 0.887400 0.343000
vt 0.847800 0.277900
vt 0.882500 0.258500
vt 0.841200 0.212800
vt 0.876700 0.195200
vt 0.842000 0.146800
vt 0.868800 0.133100
vt 0.909100 0.168200
vt 0.900900 0.114500
vt 0.889500 0.070700
vt 0.932700 0.073700
vt 0.916600 0.026100
vt 0.860900 0.092400
vt 0.837100 0.106200
vt 0.821800 0.151600
vt 0.818700 0.113300
vt 0.815000 0.220600
vt 0.785100 0.150400
vt 0.781500 0.220800
vt 0.752800 0.143700
vt 0.747700 0.212800
vt 0.785300 0.112800
vt 0.753900 0.105900
vt 0.729400 0.135100
vt 0.733000 0.098700
vt 0.707300 0.124500
vt 0.710500 0.087500
vt 0.683800 0.111600
vt 0.688300 0.074000
vt 0.660400 0.097200
vt 0.667200 0.055600
vt 0.698700 0.189700
vt 0.721700 0.202600
vt 0.713600 0.323300
vt 0.733700 0.315700
vt 0.687800 0.304500
vt 0.654000 0.273700
vt 0.672900 0.172300
vt 0.620500 0.234900
vt 0.648100 0.151500
vt 0.670900 0.395300
vt 0.700500 0.424500
vt 0.649900 0.517000
vt 0.614300 0.485800
vt 0.635300 0.600300
vt 0.591700 0.614600
vt 0.634900 0.366100
vt 0.682700 0.540100
vt 0.668300 0.621100
vt 0.660200 0.653800
vt 0.631800 0.641200
vt 0.602000 0.653500
vt 0.596800 0.328300
vt 0.632300 0.690700
vt 0.605900 0.706200
vt 0.572100 0.447800
vt 0.539800 0.577600
vt 0.563800 0.621800
vt 0.540800 0.391000
vt 0.559200 0.286200
vt 0.587400 0.204900
vt 0.615200 0.121500
vt 0.626700 0.067600
vt 0.642600 0.024200
vt 0.524900 0.452200
vt 0.497000 0.527200
vt 0.493200 0.540300
vt 0.534500 0.618400
vt 0.546800 0.663700
vt 0.537400 0.669800
vt 0.572900 0.666000
vt 0.556800 0.719300
vt 0.575700 0.713600
vt 0.522900 0.629900
vt 0.537400 0.669800
vt 0.485500 0.554000
vt 0.548500 0.721100
vt 0.636000 0.741000
vt 0.658300 0.682700
vt 0.664400 0.730100
vt 0.694400 0.691600
vt 0.694700 0.736700
vt 0.726100 0.747100
vt 0.738100 0.668500
vt 0.771600 0.674200
vt 0.791400 0.767900
vt 0.803200 0.663600
vt 0.698700 0.641100
vt 0.712400 0.625400
vt 0.706000 0.572300
vt 0.710200 0.506100
vt 0.726300 0.408200
vt 0.727000 0.400600
vt 0.735100 0.347000
vt 0.823000 0.473900
vt 0.819400 0.422600
vt 0.817800 0.412700
vt 0.817900 0.380500
vt 0.814700 0.359300
vt 0.817800 0.331600
vt 0.806700 0.282400
vt 0.777800 0.250900
vt 0.759400 0.263000
vt 0.777800 0.250900
vt 0.733700 0.315700
vt 0.989200 0.659000
vt 0.946900 0.727100
vt 0.985400 0.641000
vt 0.914600 0.234100
vt 0.947800 0.127600
vt 0.642600 0.024200
vt 0.652300 0.007700
vt 0.671700 0.037000
vt 0.690600 0.053300
vt 0.713600 0.066800
vt 0.734300 0.076800
vt 0.756000 0.083700
vt 0.786000 0.091700
vt 0.817700 0.091100
vt 0.835200 0.087600
vt 0.856700 0.067100
vt 0.884800 0.053500
vt 0.916600 0.026100
vt 0.906700 0.010300
vt 0.567800 0.824300
vt 0.554000 0.775800
vt 0.561900 0.772900
vt 0.558000 0.828500
vt 0.580000 0.770300
vt 0.585800 0.818400
vt 0.562500 0.880500
vt 0.576100 0.875800
vt 0.567800 0.939700
vt 0.586900 0.928400
vt 0.595600 0.981100
vt 0.572800 0.991300
vt 0.609000 0.757800
vt 0.614200 0.807400
vt 0.594400 0.871600
vt 0.621900 0.855400
vt 0.606500 0.920600
vt 0.633000 0.911400
vt 0.617100 0.975700
vt 0.645600 0.968300
vt 0.675800 0.897900
vt 0.684500 0.960500
vt 0.721900 0.880500
vt 0.728600 0.955200
vt 0.761800 0.949400
vt 0.757800 0.863000
vt 0.676500 0.830900
vt 0.713500 0.813700
vt 0.655200 0.838200
vt 0.643000 0.791700
vt 0.695800 0.776800
vt 0.671400 0.783900
vt 0.758600 0.771000
vt 0.794200 0.942900
vt 0.802800 0.834600
vt 0.829800 0.941100
vt 0.845800 0.818800
vt 0.867900 0.949600
vt 0.886300 0.828300
vt 0.817000 0.764900
vt 0.859300 0.756900
vt 0.899500 0.751300
vt 0.918400 0.852700
vt 0.936600 0.768500
vt 0.903000 0.720900
vt 0.900800 0.963800
vt 0.931500 0.694000
vt 0.905000 0.690600
vt 0.937000 0.662500
vt 0.946900 0.727100
vt 0.912800 0.570500
vt 0.880300 0.584700
vt 0.869600 0.701600
vt 0.886400 0.427800
vt 0.854800 0.455100
vt 0.846800 0.590200
vt 0.925100 0.419400
vt 0.947100 0.479200
vt 0.992400 0.447000
vt 0.973600 0.333300
vt 0.995100 0.523400
vt 0.942900 0.562400
vt 0.920800 0.313900
vt 0.963000 0.228600
vt 0.829900 0.689800
vt 0.820000 0.613400
vt 0.985800 0.624800
vt 0.853700 0.366900
vt 0.887400 0.343000
vt 0.847800 0.277900
vt 0.882500 0.258500
vt 0.841200 0.212800
vt 0.876700 0.195200
vt 0.842000 0.146800
vt 0.868800 0.133100
vt 0.909100 0.168200
vt 0.900900 0.114500
vt 0.889500 0.070700
vt 0.932700 0.073700
vt 0.916600 0.026100
vt 0.860900 0.092400
vt 0.837100 0.106200
vt 0.821800 0.151600
vt 0.818700 0.113300
vt 0.815000 0.220600
vt 0.785100 0.150400
vt 0.781500 0.220800
vt 0.752800 0.143700
vt 0.747700 0.212800
vt 0.785300 0.112800
vt 0.753900 0.105900
vt 0.729400 0.135100
vt 0.733000 0.098700
vt 0.707300 0.124500
vt 0.710500 0.087500
vt 0.683800 0.111600
vt 0.688300 0.074000
vt 0.660400 0.097200
vt 0.667200 0.055600
vt 0.698700 0.189700
vt 0.721700 0.202600
vt 0.713600 0.323300
vt 0.733700 0.315700
vt 0.687800 0.304500
vt 0.654000 0.273700
vt 0.672900 0.172300
vt 0.620500 0.234900
vt 0.648100 0.151500
vt 0.670900 0.395300
vt 0.700500 0.424500
vt 0.649900 0.517000
vt 0.614300 0.485800
vt 0.635300 0.600300
vt 0.591700 0.614600
vt 0.634900 0.366100
vt 0.682700 0.540100
vt 0.668300 0.621100
vt 0.660200 0.653800
vt 0.631800 0.641200
vt 0.602000 0.653500
vt 0.596800 0.328300
vt 0.632300 0.690700
vt 0.605900 0.706200
vt 0.572100 0.447800
vt 0.539800 0.577600
vt 0.563800 0.621800
vt 0.540800 0.391000
vt 0.559200 0.286200
vt 0.587400 0.204900
vt 0.615200 0.121500
vt 0.626700 0.067600
vt 0.642600 0.024200
vt 0.524900 0.452200
vt 0.497000 0.527200
vt 0.493200 0.540300
vt 0.534500 0.618400
vt 0.546800 0.663700
vt 0.537400 0.669800
vt 0.572900 0.666000
vt 0.556800 0.719300
vt 0.575700 0.713600
vt 0.537400 0.669800
vt 0.485500 0.554000
vt 0.548500 0.721100
vt 0.636000 0.741000
vt 0.658300 0.682700
vt 0.664400 0.730100
vt 0.694400 0.691600
vt 0.694700 0.736700
vt 0.726100 0.747100
vt 0.738100 0.668500
vt 0.771600 0.674200
vt 0.791400 0.767900
vt 0.803200 0.663600
vt 0.698700 0.641100
vt 0.712400 0.625400
vt 0.706000 0.572300
vt 0.710200 0.506100
vt 0.726300 0.408200
vt 0.727000 0.400600
vt 0.735100 0.347000
vt 0.823000 0.473900
vt 0.819400 0.422600
vt 0.817800 0.412700
vt 0.817900 0.380500
vt 0.814700 0.359300
vt 0.817800 0.331600
vt 0.806700 0.282400
vt 0.777800 0.250900
vt 0.759400 0.263000
vt 0.733700 0.315700
vt 0.777800 0.250900
vt 0.989200 0.659000
vt 0.985400 0.641000
vt 0.946900 0.727100
vt 0.914600 0.234100
vt 0.947800 0.127600
vt 0.642600 0.024200
vt 0.652300 0.007700
vt 0.671700 0.037000
vt 0.690600 0.053300
vt 0.713600 0.066800
vt 0.734300 0.076800
vt 0.756000 0.083700
vt 0.786000 0.091700
vt 0.817700 0.091100
vt 0.835200 0.087600
vt 0.856700 0.067100
vt 0.884800 0.053500
vt 0.916600 0.026100
vt 0.906700 0.010300
f 3/3/3 2/2/2 1/1/1
f 4/4/4 1/1/1 2/2/2
f 3/3/3 5/5/5 2/2/2
f 6/6/6 2/2/2 5/5/5
f 5/5/5 3/3/3 7/7/7
f 8/8/8 7/7/7 3/3/3
f 3/3/3 1/1/1 8/8/8
f 7/7/7 9/9/9 5/5/5
f 10/10/10 5/5/5 9/9/9
f 11/11/11 8/8/8 1/1/1
f 11/11/11 1/1/1 12/12/12
f 13/13/13 12/12/12 1/1/1
f 10/10/10 14/14/14 5/5/5
f 14/14/14 15/15/15 5/5/5
f 15/15/15 6/6/6 5/5/5
f 13/13/13 1/1/1 16/16/16
f 1/1/1 4/4/4 16/16/16
f 17/17/17 13/13/13 16/16/16
f 14/14/14 18/18/18 15/15/15
f 19/19/19 15/15/15 18/18/18
f 16/16/16 20/20/20 17/17/17
f 23/23/23 22/22/22 21/21/21
f 21/21/21 22/22/22 24/24/24
f 25/25/25 24/24/24 22/22/22
f 25/25/25 27/27/27 26/26/26
f 28/28/28 26/26/26 27/27/27
f 30/30/30 29/29/29 27/27/27
f 27/27/27 29/29/29 31/31/31
f 32/32/32 31/31/31 29/29/29
f 29/29/29 33/33/33 32/32/32
f 32/32/32 33/33/33 34/34/34
f 35/35/35 34/34/34 33/33/33
f 34/34/34 35/35/35 36/36/36
f 37/37/37 36/36/36 35/35/35
f 38/38/38 35/35/35 33/33/33
f 37/37/37 40/40/40 39/39/39
f 41/41/41 39/39/39 40/40/40
f 42/42/42 41/41/41 40/40/40
f 45/45/45 44/44/44 43/43/43
f 46/46/46 43/43/43 44/44/44
f 49/49/49 48/48/48 47/47/47
f 50/50/50 47/47/47 48/48/48
f 50/50/50 48/48/48 51/51/51
f 52/52/52 51/51/51 48/48/48
f 51/51/51 53/53/53 50/50/50
f 54/54/54 50/50/50 53/53/53
f 50/50/50 54/54/54 47/47/47
f 53/53/53 51/51/51 55/55/55
f 56/56/56 55/55/55 51/51/51
f 57/57/57 47/47/47 54/54/54
f 57/57/57 58/58/58 47/47/47
f 59/59/59 47/47/47 58/58/58
f 52/52/52 60/60/60 51/51/51
f 60/60/60 61/61/61 51/51/51
f 61/61/61 56/56/56 51/51/51
f 49/49/49 47/47/47 62/62/62
f 47/47/47 59/59/59 62/62/62
f 59/59/59 63/63/63 62/62/62
f 61/61/61 60/60/60 64/64/64
f 65/65/65 64/64/64 60/60/60
f 66/66/66 62/62/62 63/63/63
f 69/69/69 68/68/68 67/67/67
f 67/67/67 70/70/70 69/69/69
f 71/71/71 69/69/69 70/70/70
f 71/71/71 73/73/73 72/72/72
f 74/74/74 72/72/72 73/73/73
f 76/76/76 75/75/75 72/72/72
f 72/72/72 77/77/77 76/76/76
f 78/78/78 76/76/76 77/77/77
f 79/79/79 76/76/76 78/78/78
f 78/78/78 80/80/80 79/79/79
f 81/81/81 79/79/79 80/80/80
f 80/80/80 82/82/82 81/81/81
f 83/83/83 81/81/81 82/82/82
f 81/81/81 84/84/84 79/79/79
f 83/83/83 86/86/86 85/85/85
f 87/87/87 85/85/85 86/86/86
f 87/87/87 88/88/88 85/85/85
f 91/91/91 90/90/90 89/89/89
f 92/92/92 89/89/89 90/90/90
f 95/95/95 94/94/94 93/93/93
f 96/96/96 93/93/93 94/94/94
f 95/95/95 93/93/93 97/97/97
f 98/98/98 97/97/97 93/93/93
f 95/95/95 97/97/97 99/99/99
f 95/95/95 99/99/99 94/94/94
f 100/100/100 99/99/99 97/97/97
f 100/100/100 101/101/101 99/99/99
f 102/102/102 99/99/99 101/101/101
f 99/99/99 102/102/102 103/103/103
f 103/103/103 94/94/94 99/99/99
f 102/102/102 104/104/104 103/103/103
f 104/104/104 105/105/105 103/103/103
f 106/106/106 94/94/94 103/103/103
f 103/103/103 107/107/107 106/106/106
f 103/103/103 105/105/105 107/107/107
f 107/107/107 108/108/108 106/106/106
f 109/109/109 106/106/106 108/108/108
f 108/108/108 110/110/110 109/109/109
f 111/111/111 109/109/109 110/110/110
f 111/111/111 110/110/110 112/112/112
f 113/113/113 112/112/112 110/110/110
f 108/108/108 114/114/114 110/110/110
f 113/113/113 110/110/110 114/114/114
f 113/113/113 114/114/114 115/115/115
f 113/113/113 115/115/115 112/112/112
f 116/116/116 115/115/115 114/114/114
f 116/116/116 117/117/117 115/115/115
f 118/118/118 115/115/115 117/117/117
f 118/118/118 112/112/112 115/115/115
f 117/117/117 116/116/116 119/119/119
f 120/120/120 119/119/119 116/116/116
f 120/120/120 121/121/121 119/119/119
f 119/119/119 121/121/121 122/122/122
f 121/121/121 123/123/123 122/122/122
f 124/124/124 122/122/122 123/123/123
f 124/124/124 123/123/123 125/125/125
f 126/126/126 125/125/125 123/123/123
f 126/126/126 123/123/123 127/127/127
f 128/128/128 127/127/127 123/123/123
f 128/128/128 123/123/123 121/121/121
f 127/127/127 128/128/128 129/129/129
f 130/130/130 129/129/129 128/128/128
f 130/130/130 128/128/128 121/121/121
f 130/130/130 131/131/131 129/129/129
f 132/132/132 129/129/129 131/131/131
f 129/129/129 132/132/132 133/133/133
f 129/129/129 133/133/133 127/127/127
f 134/134/134 133/133/133 132/132/132
f 135/135/135 127/127/127 133/133/133
f 127/127/127 135/135/135 136/136/136
f 137/137/137 136/136/136 135/135/135
f 134/134/134 132/132/132 138/138/138
f 139/139/139 138/138/138 132/132/132
f 132/132/132 131/131/131 139/139/139
f 104/104/104 139/139/139 131/131/131
f 104/104/104 102/102/102 139/139/139
f 101/101/101 139/139/139 102/102/102
f 139/139/139 101/101/101 140/140/140
f 141/141/141 140/140/140 101/101/101
f 101/101/101 142/142/142 141/141/141
f 143/143/143 141/141/141 142/142/142
f 131/131/131 144/144/144 104/104/104
f 105/105/105 104/104/104 144/144/144
f 144/144/144 145/145/145 105/105/105
f 107/107/107 105/105/105 145/145/145
f 144/144/144 146/146/146 145/145/145
f 120/120/120 145/145/145 146/146/146
f 120/120/120 116/116/116 145/145/145
f 114/114/114 145/145/145 116/116/116
f 107/107/107 145/145/145 108/108/108
f 114/114/114 108/108/108 145/145/145
f 131/131/131 130/130/130 144/144/144
f 146/146/146 144/144/144 130/130/130
f 146/146/146 130/130/130 121/121/121
f 121/121/121 120/120/120 146/146/146
f 147/147/147 126/126/126 127/127/127
f 149/149/149 122/122/122 148/148/148
f 124/124/124 148/148/148 122/122/122
f 148/148/148 150/150/150 149/149/149
f 151/151/151 149/149/149 150/150/150
f 148/148/148 152/152/152 150/150/150
f 148/148/148 124/124/124 152/152/152
f 125/125/125 152/152/152 124/124/124
f 150/150/150 154/154/154 153/153/153
f 155/155/155 153/153/153 154/154/154
f 154/154/154 150/150/150 156/156/156
f 157/157/157 101/101/101 100/100/100
f 159/159/159 158/158/158 96/96/96
f 93/93/93 96/96/96 158/158/158
f 93/93/93 158/158/158 98/98/98
f 161/161/161 160/160/160 158/158/158
f 161/161/161 158/158/158 162/162/162
f 163/163/163 162/162/162 158/158/158
f 166/166/166 165/165/165 164/164/164
f 164/164/164 165/165/165 167/167/167
f 168/168/168 167/167/167 165/165/165
f 164/164/164 167/167/167 169/169/169
f 170/170/170 169/169/169 167/167/167
f 170/170/170 167/167/167 171/171/171
f 170/170/170 171/171/171 172/172/172
f 172/172/172 173/173/173 170/170/170
f 174/174/174 170/170/170 173/173/173
f 173/173/173 175/175/175 174/174/174
f 176/176/176 174/174/174 175/175/175
f 176/176/176 177/177/177 174/174/174
f 176/176/176 178/178/178 177/177/177
f 179/179/179 174/174/174 177/177/177
f 169/169/169 170/170/170 179/179/179
f 174/174/174 179/179/179 170/170/170
f 180/180/180 172/172/172 171/171/171
f 180/180/180 171/171/171 181/181/181
f 182/182/182 181/181/181 171/171/171
f 182/182/182 171/171/171 168/168/168
f 182/182/182 168/168/168 183/183/183
f 184/184/184 183/183/183 168/168/168
f 184/184/184 185/185/185 183/183/183
f 186/186/186 183/183/183 185/185/185
f 183/183/183 186/186/186 182/182/182
f 185/185/185 187/187/187 186/186/186
f 188/188/188 186/186/186 187/187/187
f 175/175/175 189/189/189 176/176/176
f 178/178/178 176/176/176 189/189/189
f 190/190/190 189/189/189 175/175/175
f 189/189/189 190/190/190 191/191/191
f 190/190/190 192/192/192 191/191/191
f 192/192/192 193/193/193 191/191/191
f 192/192/192 194/194/194 193/193/193
f 191/191/191 195/195/195 189/189/189
f 191/191/191 193/193/193 195/195/195
f 196/196/196 189/189/189 195/195/195
f 197/197/197 195/195/195 193/193/193
f 188/188/188 198/198/198 186/186/186
f 198/198/198 188/188/188 199/199/199
f 200/200/200 199/199/199 188/188/188
f 199/199/199 201/201/201 198/198/198
f 202/202/202 198/198/198 201/201/201
f 202/202/202 201/201/201 203/203/203
f 202/202/202 203/203/203 198/198/198
f 204/204/204 203/203/203 201/201/201
f 204/204/204 205/205/205 203/203/203
f 206/206/206 203/203/203 205/205/205
f 206/206/206 205/205/205 207/207/207
f 208/208/208 207/207/207 205/205/205
f 208/208/208 209/209/209 207/207/207
f 210/210/210 207/207/207 209/209/209
f 210/210/210 209/209/209 211/211/211
f 212/212/212 211/211/211 209/209/209
f 212/212/212 213/213/213 211/211/211
f 214/214/214 211/211/211 213/213/213
f 213/213/213 215/215/215 214/214/214
f 216/216/216 214/214/214 215/215/215
f 214/214/214 216/216/216 211/211/211
f 216/216/216 215/215/215 217/217/217
f 203/203/203 206/206/206 218/218/218
f 219/219/219 218/218/218 206/206/206
f 206/206/206 207/207/207 219/219/219
f 218/218/218 219/219/219 220/220/220
f 221/221/221 220/220/220 219/219/219
f 172/172/172 220/220/220 221/221/221
f 172/172/172 221/221/221 222/222/222
f 222/222/222 223/223/223 172/172/172
f 224/224/224 172/172/172 223/223/223
f 224/224/224 173/173/173 172/172/172
f 224/224/224 225/225/225 173/173/173
f 226/226/226 173/173/173 225/225/225
f 225/225/225 227/227/227 226/226/226
f 173/173/173 226/226/226 228/228/228
f 229/229/229 228/228/228 226/226/226
f 228/228/228 229/229/229 230/230/230
f 230/230/230 190/190/190 228/228/228
f 175/175/175 228/228/228 190/190/190
f 175/175/175 173/173/173 228/228/228
f 231/231/231 230/230/230 229/229/229
f 231/231/231 229/229/229 232/232/232
f 233/233/233 232/232/232 229/229/229
f 226/226/226 233/233/233 229/229/229
f 226/226/226 227/227/227 233/233/233
f 190/190/190 230/230/230 192/192/192
f 234/234/234 192/192/192 230/230/230
f 230/230/230 231/231/231 234/234/234
f 234/234/234 235/235/235 192/192/192
f 235/235/235 234/234/234 236/236/236
f 237/237/237 236/236/236 234/234/234
f 237/237/237 234/234/234 231/231/231
f 237/237/237 238/238/238 236/236/236
f 237/237/237 231/231/231 238/238/238
f 232/232/232 238/238/238 231/231/231
f 239/239/239 236/236/236 238/238/238
f 239/239/239 240/240/240 236/236/236
f 236/236/236 240/240/240 235/235/235
f 194/194/194 192/192/192 235/235/235
f 238/238/238 241/241/241 239/239/239
f 242/242/242 239/239/239 241/241/241
f 239/239/239 242/242/242 240/240/240
f 242/242/242 243/243/243 240/240/240
f 242/242/242 241/241/241 243/243/243
f 240/240/240 243/243/243 244/244/244
f 244/244/244 235/235/235 240/240/240
f 235/235/235 244/244/244 194/194/194
f 244/244/244 245/245/245 194/194/194
f 245/245/245 244/244/244 246/246/246
f 247/247/247 246/246/246 244/244/244
f 247/247/247 248/248/248 246/246/246
f 249/249/249 246/246/246 248/248/248
f 246/246/246 249/249/249 250/250/250
f 251/251/251 250/250/250 249/249/249
f 252/252/252 194/194/194 245/245/245
f 252/252/252 245/245/245 253/253/253
f 254/254/254 253/253/253 245/245/245
f 255/255/255 254/254/254 245/245/245
f 245/245/245 246/246/246 255/255/255
f 252/252/252 253/253/253 256/256/256
f 248/248/248 257/257/257 249/249/249
f 257/257/257 248/248/248 258/258/258
f 259/259/259 258/258/258 248/248/248
f 247/247/247 259/259/259 248/248/248
f 259/259/259 260/260/260 258/258/258
f 261/261/261 249/249/249 257/257/257
f 261/261/261 257/257/257 262/262/262
f 258/258/258 262/262/262 257/257/257
f 262/262/262 259/259/259 263/263/263
f 264/264/264 263/263/263 259/259/259
f 264/264/264 265/265/265 263/263/263
f 266/266/266 263/263/263 265/265/265
f 265/265/265 221/221/221 266/266/266
f 265/265/265 222/222/222 221/221/221
f 265/265/265 264/264/264 222/222/222
f 219/219/219 266/266/266 221/221/221
f 266/266/266 219/219/219 207/207/207
f 266/266/266 207/207/207 263/263/263
f 263/263/263 210/210/210 262/262/262
f 210/210/210 263/263/263 207/207/207
f 211/211/211 262/262/262 210/210/210
f 262/262/262 211/211/211 216/216/216
f 262/262/262 267/267/267 261/261/261
f 262/262/262 216/216/216 267/267/267
f 268/268/268 261/261/261 267/267/267
f 269/269/269 261/261/261 268/268/268
f 247/247/247 222/222/222 264/264/264
f 247/247/247 264/264/264 259/259/259
f 222/222/222 247/247/247 270/270/270
f 271/271/271 270/270/270 247/247/247
f 244/244/244 271/271/271 247/247/247
f 271/271/271 244/244/244 243/243/243
f 243/243/243 272/272/272 271/271/271
f 270/270/270 271/271/271 272/272/272
f 272/272/272 273/273/273 270/270/270
f 273/273/273 272/272/272 274/274/274
f 241/241/241 274/274/274 272/272/272
f 272/272/272 243/243/243 241/241/241
f 241/241/241 238/238/238 274/274/274
f 232/232/232 274/274/274 238/238/238
f 273/273/273 274/274/274 225/225/225
f 227/227/227 225/225/225 274/274/274
f 225/225/225 224/224/224 273/273/273
f 223/223/223 273/273/273 224/224/224
f 223/223/223 270/270/270 273/273/273
f 222/222/222 270/270/270 223/223/223
f 227/227/227 274/274/274 233/233/233
f 232/232/232 233/233/233 274/274/274
f 276/276/276 165/165/165 275/275/275
f 276/276/276 184/184/184 165/165/165
f 168/168/168 165/165/165 184/184/184
f 184/184/184 277/277/277 185/185/185
f 278/278/278 185/185/185 277/277/277
f 278/278/278 279/279/279 185/185/185
f 280/280/280 279/279/279 278/278/278
f 187/187/187 185/185/185 279/279/279
f 281/281/281 188/188/188 187/187/187
f 284/284/284 283/283/283 282/282/282
f 285/285/285 284/284/284 282/282/282
f 285/285/285 268/268/268 284/284/284
f 285/285/285 286/286/286 268/268/268
f 287/287/287 286/286/286 285/285/285
f 288/288/288 286/286/286 287/287/287
f 287/287/287 289/289/289 288/288/288
f 288/288/288 250/250/250 286/286/286
f 269/269/269 286/286/286 250/250/250
f 288/288/288 290/290/290 250/250/250
f 246/246/246 250/250/250 290/290/290
f 267/267/267 284/284/284 268/268/268
f 283/283/283 284/284/284 267/267/267
f 291/291/291 283/283/283 267/267/267
f 267/267/267 217/217/217 291/291/291
f 292/292/292 291/291/291 217/217/217
f 290/290/290 255/255/255 246/246/246
f 294/294/294 293/293/293 286/286/286
f 269/269/269 249/249/249 261/261/261
f 295/295/295 267/267/267 216/216/216
f 217/217/217 215/215/215 296/296/296
f 297/297/297 296/296/296 215/215/215
f 215/215/215 213/213/213 298/298/298
f 299/299/299 298/298/298 213/213/213
f 213/213/213 212/212/212 299/299/299
f 301/301/301 177/177/177 300/300/300
f 303/303/303 302/302/302 253/253/253
f 180/180/180 220/220/220 172/172/172
f 220/220/220 180/180/180 304/304/304
f 181/181/181 304/304/304 180/180/180
f 304/304/304 181/181/181 218/218/218
f 182/182/182 218/218/218 181/181/181
f 218/218/218 182/182/182 186/186/186
f 218/218/218 186/186/186 198/198/198
f 218/218/218 198/198/198 203/203/203
f 304/304/304 306/306/306 305/305/305
f 256/256/256 193/193/193 252/252/252
f 194/194/194 252/252/252 193/193/193
f 193/193/193 256/256/256 197/197/197
f 307/307/307 197/197/197 256/256/256
f 200/200/200 308/308/308 199/199/199
f 199/199/199 309/309/309 201/201/201
f 310/310/310 201/201/201 309/309/309
f 201/201/201 310/310/310 204/204/204
f 311/311/311 171/171/171 167/167/167
f 312/312/312 178/178/178 196/196/196
f 189/189/189 196/196/196 178/178/178
f 313/313/313 166/166/166 164/164/164
f 164/164/164 169/169/169 313/313/313
f 316/316/316 315/315/315 314/314/314
f 317/317/317 314/314/314 315/315/315
f 316/316/316 314/314/314 318/318/318
f 316/316/316 318/318/318 319/319/319
f 320/320/320 319/319/319 318/318/318
f 323/323/323 322/322/322 321/321/321
f 321/321/321 324/324/324 323/323/323
f 325/325/325 323/323/323 324/324/324
f 321/321/321 326/326/326 324/324/324
f 327/327/327 324/324/324 326/326/326
f 327/327/327 328/328/328 324/324/324
f 327/327/327 329/329/329 328/328/328
f 329/329/329 327/327/327 330/330/330
f 331/331/331 330/330/330 327/327/327
f 330/330/330 331/331/331 332/332/332
f 333/333/333 332/332/332 331/331/331
f 333/333/333 331/331/331 334/334/334
f 333/333/333 334/334/334 335/335/335
f 336/336/336 334/334/334 331/331/331
f 331/331/331 327/327/327 336/336/336
f 326/326/326 336/336/336 327/327/327
f 337/337/337 328/328/328 329/329/329
f 337/337/337 338/338/338 328/328/328
f 339/339/339 328/328/328 338/338/338
f 328/328/328 339/339/339 325/325/325
f 339/339/339 340/340/340 325/325/325
f 341/341/341 325/325/325 340/340/340
f 341/341/341 340/340/340 342/342/342
f 343/343/343 342/342/342 340/340/340
f 340/340/340 339/339/339 343/343/343
f 342/342/342 343/343/343 344/344/344
f 345/345/345 344/344/344 343/343/343
f 335/335/335 346/346/346 333/333/333
f 332/332/332 333/333/333 346/346/346
f 346/346/346 347/347/347 332/332/332
f 347/347/347 346/346/346 348/348/348
f 349/349/349 347/347/347 348/348/348
f 350/350/350 349/349/349 348/348/348
f 351/351/351 349/349/349 350/350/350
f 348/348/348 346/346/346 352/352/352
f 348/348/348 352/352/352 350/350/350
f 353/353/353 352/352/352 346/346/346
f 354/354/354 350/350/350 352/352/352
f 345/345/345 343/343/343 355/355/355
f 355/355/355 356/356/356 345/345/345
f 357/357/357 345/345/345 356/356/356
f 356/356/356 355/355/355 358/358/358
f 359/359/359 358/358/358 355/355/355
f 359/359/359 360/360/360 358/358/358
f 359/359/359 355/355/355 360/360/360
f 361/361/361 358/358/358 360/360/360
f 361/361/361 360/360/360 362/362/362
f 363/363/363 362/362/362 360/360/360
f 363/363/363 364/364/364 362/362/362
f 365/365/365 362/362/362 364/364/364
f 365/365/365 364/364/364 366/366/366
f 367/367/367 366/366/366 364/364/364
f 367/367/367 368/368/368 366/366/366
f 369/369/369 366/366/366 368/368/368
f 369/369/369 368/368/368 370/370/370
f 371/371/371 370/370/370 368/368/368
f 370/370/370 371/371/371 372/372/372
f 373/373/373 372/372/372 371/371/371
f 371/371/371 368/368/368 373/373/373
f 372/372/372 373/373/373 374/374/374
f 360/360/360 375/375/375 363/363/363
f 376/376/376 363/363/363 375/375/375
f 363/363/363 376/376/376 364/364/364
f 375/375/375 377/377/377 376/376/376
f 378/378/378 376/376/376 377/377/377
f 377/377/377 329/329/329 378/378/378
f 329/329/329 379/379/379 378/378/378
f 379/379/379 329/329/329 380/380/380
f 381/381/381 380/380/380 329/329/329
f 330/330/330 381/381/381 329/329/329
f 381/381/381 330/330/330 382/382/382
f 383/383/383 382/382/382 330/330/330
f 384/384/384 382/382/382 383/383/383
f 330/330/330 385/385/385 383/383/383
f 386/386/386 383/383/383 385/385/385
f 385/385/385 387/387/387 386/386/386
f 387/387/387 385/385/385 347/347/347
f 332/332/332 347/347/347 385/385/385
f 330/330/330 332/332/332 385/385/385
f 388/388/388 386/386/386 387/387/387
f 388/388/388 389/389/389 386/386/386
f 390/390/390 386/386/386 389/389/389
f 390/390/390 383/383/383 386/386/386
f 384/384/384 383/383/383 390/390/390
f 347/347/347 349/349/349 387/387/387
f 391/391/391 387/387/387 349/349/349
f 387/387/387 391/391/391 388/388/388
f 391/391/391 349/349/349 392/392/392
f 392/392/392 393/393/393 391/391/391
f 394/394/394 391/391/391 393/393/393
f 394/394/394 388/388/388 391/391/391
f 394/394/394 393/393/393 395/395/395
f 394/394/394 395/395/395 388/388/388
f 389/389/389 388/388/388 395/395/395
f 396/396/396 395/395/395 393/393/393
f 397/397/397 396/396/396 393/393/393
f 393/393/393 392/392/392 397/397/397
f 351/351/351 392/392/392 349/349/349
f 395/395/395 396/396/396 398/398/398
f 399/399/399 398/398/398 396/396/396
f 399/399/399 396/396/396 397/397/397
f 400/400/400 399/399/399 397/397/397
f 399/399/399 400/400/400 398/398/398
f 397/397/397 401/401/401 400/400/400
f 401/401/401 397/397/397 392/392/392
f 401/401/401 392/392/392 351/351/351
f 401/401/401 351/351/351 402/402/402
f 402/402/402 403/403/403 401/401/401
f 404/404/404 401/401/401 403/403/403
f 404/404/404 403/403/403 405/405/405
f 406/406/406 405/405/405 403/403/403
f 403/403/403 407/407/407 406/406/406
f 408/408/408 406/406/406 407/407/407
f 409/409/409 402/402/402 351/351/351
f 409/409/409 410/410/410 402/402/402
f 411/411/411 402/402/402 410/410/410
f 411/411/411 412/412/412 402/402/402
f 402/402/402 412/412/412 403/403/403
f 409/409/409 413/413/413 410/410/410
f 405/405/405 406/406/406 414/414/414
f 414/414/414 415/415/415 405/405/405
f 416/416/416 405/405/405 415/415/415
f 416/416/416 404/404/404 405/405/405
f 417/417/417 416/416/416 415/415/415
f 418/418/418 414/414/414 406/406/406
f 415/415/415 414/414/414 419/419/419
f 418/418/418 419/419/419 414/414/414
f 419/419/419 420/420/420 416/416/416
f 421/421/421 416/416/416 420/420/420
f 421/421/421 420/420/420 422/422/422
f 423/423/423 422/422/422 420/420/420
f 422/422/422 423/423/423 378/378/378
f 422/422/422 378/378/378 379/379/379
f 422/422/422 379/379/379 421/421/421
f 376/376/376 378/378/378 423/423/423
f 423/423/423 364/364/364 376/376/376
f 423/423/423 420/420/420 364/364/364
f 420/420/420 419/419/419 367/367/367
f 367/367/367 364/364/364 420/420/420
f 368/368/368 367/367/367 419/419/419
f 419/419/419 373/373/373 368/368/368
f 419/419/419 418/418/418 424/424/424
f 419/419/419 424/424/424 373/373/373
f 425/425/425 424/424/424 418/418/418
f 418/418/418 426/426/426 425/425/425
f 404/404/404 421/421/421 379/379/379
f 421/421/421 404/404/404 416/416/416
f 379/379/379 427/427/427 404/404/404
f 428/428/428 404/404/404 427/427/427
f 428/428/428 401/401/401 404/404/404
f 428/428/428 400/400/400 401/401/401
f 427/427/427 429/429/429 428/428/428
f 400/400/400 428/428/428 429/429/429
f 429/429/429 427/427/427 430/430/430
f 430/430/430 431/431/431 429/429/429
f 398/398/398 429/429/429 431/431/431
f 429/429/429 398/398/398 400/400/400
f 398/398/398 431/431/431 395/395/395
f 389/389/389 395/395/395 431/431/431
f 430/430/430 382/382/382 431/431/431
f 384/384/384 431/431/431 382/382/382
f 382/382/382 430/430/430 381/381/381
f 380/380/380 381/381/381 430/430/430
f 380/380/380 430/430/430 427/427/427
f 427/427/427 379/379/379 380/380/380
f 389/389/389 431/431/431 390/390/390
f 384/384/384 390/390/390 431/431/431
f 323/323/323 433/433/433 432/432/432
f 433/433/433 323/323/323 341/341/341
f 434/434/434 341/341/341 323/323/323
f 341/341/341 342/342/342 435/435/435
f 436/436/436 435/435/435 342/342/342
f 436/436/436 342/342/342 437/437/437
f 437/437/437 438/438/438 436/436/436
f 344/344/344 437/437/437 342/342/342
f 441/441/441 440/440/440 439/439/439
f 440/440/440 442/442/442 439/439/439
f 442/442/442 440/440/440 425/425/425
f 442/442/442 425/425/425 443/443/443
f 424/424/424 425/425/425 440/440/440
f 440/440/440 441/441/441 424/424/424
f 441/441/441 444/444/444 424/424/424
f 424/424/424 444/444/444 374/374/374
f 443/443/443 446/446/446 445/445/445
f 443/443/443 448/448/448 447/447/447
f 448/448/448 443/443/443 407/407/407
f 426/426/426 407/407/407 443/443/443
f 448/448/448 407/407/407 449/449/449
f 403/403/403 449/449/449 407/407/407
f 449/449/449 403/403/403 412/412/412
f 451/451/451 450/450/450 448/448/448
f 453/453/453 443/443/443 452/452/452
f 406/406/406 426/426/426 418/418/418
f 374/374/374 454/454/454 372/372/372
f 455/455/455 372/372/372 454/454/454
f 454/454/454 374/374/374 456/456/456
f 372/372/372 457/457/457 370/370/370
f 458/458/458 370/370/370 457/457/457
f 369/369/369 370/370/370 458/458/458
f 460/460/460 459/459/459 334/334/334
f 462/462/462 410/410/410 461/461/461
f 377/377/377 337/337/337 329/329/329
f 377/377/377 463/463/463 337/337/337
f 338/338/338 337/337/337 463/463/463
f 463/463/463 375/375/375 338/338/338
f 339/339/339 338/338/338 375/375/375
f 375/375/375 343/343/343 339/339/339
f 375/375/375 355/355/355 343/343/343
f 375/375/375 360/360/360 355/355/355
f 465/465/465 463/463/463 464/464/464
f 351/351/351 350/350/350 409/409/409
f 413/413/413 409/409/409 350/350/350
f 350/350/350 354/354/354 413/413/413
f 466/466/466 413/413/413 354/354/354
f 467/467/467 373/373/373 424/424/424
f 468/468/468 357/357/357 356/356/356
f 356/356/356 358/358/358 469/469/469
f 470/470/470 469/469/469 358/358/358
f 470/470/470 358/358/358 361/361/361
f 345/345/345 357/357/357 471/471/471
f 472/472/472 324/324/324 328/328/328
f 346/346/346 335/335/335 353/353/353
f 473/473/473 353/353/353 335/335/335
f 475/475/475 474/474/474 321/321/321
f 326/326/326 321/321/321 474/474/474
f 478/478/478 477/477/477 476/476/476
f 479/479/479 476/476/476 477/477/477
f 476/476/476 479/479/479 480/480/480
f 479/479/479 481/481/481 480/480/480
f 482/482/482 480/480/480 481/481/481
f 485/485/485 484/484/484 483/483/483
f 486/486/486 483/483/483 484/484/484
f 486/486/486 487/487/487 483/483/483
f 488/488/488 483/483/483 487/487/487
f 486/486/486 489/489/489 487/487/487
f 486/486/486 484/484/484 489/489/489
f 490/490/490 487/487/487 489/489/489
f 490/490/490 489/489/489 491/491/491
f 492/492/492 491/491/491 489/489/489
f 492/492/492 489/489/489 493/493/493
f 493/493/493 489/489/489 484/484/484
f 494/494/494 492/492/492 493/493/493
f 495/495/495 494/494/494 493/493/493
f 484/484/484 496/496/496 493/493/493
f 494/494/494 497/497/497 492/492/492
f 491/491/491 492/492/492 497/497/497
f 497/497/497 498/498/498 491/491/491
f 499/499/499 491/491/491 498/498/498
f 491/491/491 499/499/499 500/500/500
f 501/501/501 500/500/500 499/499/499
f 494/494/494 502/502/502 497/497/497
f 503/503/503 497/497/497 502/502/502
f 503/503/503 502/502/502 504/504/504
f 505/505/505 504/504/504 502/502/502
f 505/505/505 506/506/506 504/504/504
f 507/507/507 504/504/504 506/506/506
f 506/506/506 508/508/508 507/507/507
f 509/509/509 507/507/507 508/508/508
f 509/509/509 508/508/508 510/510/510
f 511/511/511 510/510/510 508/508/508
f 511/511/511 508/508/508 512/512/512
f 513/513/513 512/512/512 508/508/508
f 508/508/508 506/506/506 513/513/513
f 506/506/506 505/505/505 513/513/513
f 513/513/513 514/514/514 512/512/512
f 504/504/504 515/515/515 503/503/503
f 504/504/504 507/507/507 515/515/515
f 516/516/516 503/503/503 515/515/515
f 517/517/517 515/515/515 507/507/507
f 507/507/507 518/518/518 517/517/517
f 509/509/509 518/518/518 507/507/507
f 519/519/519 517/517/517 518/518/518
f 505/505/505 520/520/520 513/513/513
f 520/520/520 505/505/505 521/521/521
f 521/521/521 522/522/522 520/520/520
f 521/521/521 495/495/495 522/522/522
f 495/495/495 521/521/521 494/494/494
f 502/502/502 494/494/494 521/521/521
f 502/502/502 521/521/521 505/505/505
f 523/523/523 522/522/522 495/495/495
f 524/524/524 520/520/520 522/522/522
f 524/524/524 513/513/513 520/520/520
f 524/524/524 525/525/525 514/514/514
f 524/524/524 522/522/522 525/525/525
f 526/526/526 514/514/514 525/525/525
f 525/525/525 527/527/527 526/526/526
f 525/525/525 528/528/528 527/527/527
f 528/528/528 525/525/525 522/522/522
f 529/529/529 527/527/527 528/528/528
f 529/529/529 528/528/528 530/530/530
f 529/529/529 530/530/530 531/531/531
f 529/529/529 531/531/531 527/527/527
f 532/532/532 531/531/531 530/530/530
f 532/532/532 530/530/530 533/533/533
f 534/534/534 533/533/533 530/530/530
f 534/534/534 530/530/530 528/528/528
f 528/528/528 522/522/522 534/534/534
f 523/523/523 534/534/534 522/522/522
f 523/523/523 496/496/496 534/534/534
f 533/533/533 534/534/534 496/496/496
f 535/535/535 526/526/526 527/527/527
f 535/535/535 527/527/527 531/531/531
f 523/523/523 493/493/493 536/536/536
f 495/495/495 493/493/493 523/523/523
f 513/513/513 524/524/524 537/537/537
f 497/497/497 503/503/503 538/538/538
f 516/516/516 538/538/538 503/503/503
f 511/511/511 512/512/512 539/539/539
f 540/540/540 539/539/539 512/512/512
f 539/539/539 541/541/541 511/511/511
f 539/539/539 542/542/542 541/541/541
f 539/539/539 543/543/543 542/542/542
f 544/544/544 542/542/542 543/543/543
f 510/510/510 511/511/511 541/541/541
f 542/542/542 546/546/546 545/545/545
f 547/547/547 545/545/545 546/546/546
f 545/545/545 548/548/548 542/542/542
f 491/491/491 549/549/549 490/490/490
f 483/483/483 550/550/550 485/485/485
f 551/551/551 485/485/485 550/550/550
f 483/483/483 488/488/488 550/550/550
f 553/553/553 550/550/550 552/552/552
f 553/553/553 554/554/554 550/550/550
f 555/555/555 550/550/550 554/554/554
f 558/558/558 557/557/557 556/556/556
f 559/559/559 556/556/556 557/557/557
f 559/559/559 560/560/560 556/556/556
f 561/561/561 556/556/556 560/560/560
f 558/558/558 556/556/556 562/562/562
f 563/563/563 562/562/562 556/556/556
f 556/556/556 561/561/561 563/563/563
f 562/562/562 563/563/563 564/564/564
f 565/565/565 564/564/564 563/563/563
f 565/565/565 566/566/566 564/564/564
f 567/567/567 564/564/564 566/566/566
f 560/560/560 568/568/568 561/561/561
f 569/569/569 561/561/561 568/568/568
f 561/561/561 569/569/569 570/570/570
f 563/563/563 570/570/570 565/565/565
f 570/570/570 563/563/563 561/561/561
f 571/571/571 570/570/570 569/569/569
f 570/570/570 571/571/571 572/572/572
f 572/572/572 565/565/565 570/570/570
f 565/565/565 572/572/572 566/566/566
f 573/573/573 572/572/572 571/571/571
f 572/572/572 573/573/573 574/574/574
f 574/574/574 566/566/566 572/572/572
f 575/575/575 574/574/574 573/573/573
f 573/573/573 576/576/576 575/575/575
f 577/577/577 575/575/575 576/576/576
f 576/576/576 578/578/578 577/577/577
f 579/579/579 577/577/577 578/578/578
f 579/579/579 578/578/578 580/580/580
f 581/581/581 580/580/580 578/578/578
f 576/576/576 582/582/582 578/578/578
f 583/583/583 578/578/578 582/582/582
f 578/578/578 583/583/583 581/581/581
f 576/576/576 573/573/573 584/584/584
f 571/571/571 584/584/584 573/573/573
f 576/576/576 584/584/584 582/582/582
f 584/584/584 571/571/571 585/585/585
f 569/569/569 585/585/585 571/571/571
f 583/583/583 582/582/582 586/586/586
f 587/587/587 586/586/586 582/582/582
f 585/585/585 587/587/587 584/584/584
f 582/582/582 584/584/584 587/587/587
f 588/588/588 581/581/581 583/583/583
f 580/580/580 581/581/581 589/589/589
f 590/590/590 589/589/589 581/581/581
f 581/581/581 588/588/588 590/590/590
f 589/589/589 590/590/590 591/591/591
f 592/592/592 591/591/591 590/590/590
f 591/591/591 592/592/592 593/593/593
f 594/594/594 593/593/593 592/592/592
f 590/590/590 595/595/595 592/592/592
f 596/596/596 592/592/592 595/595/595
f 592/592/592 596/596/596 597/597/597
f 592/592/592 597/597/597 594/594/594
f 594/594/594 597/597/597 598/598/598
f 599/599/599 598/598/598 597/597/597
f 600/600/600 597/597/597 596/596/596
f 598/598/598 601/601/601 594/594/594
f 593/593/593 594/594/594 601/601/601
f 597/597/597 602/602/602 599/599/599
f 602/602/602 597/597/597 600/600/600
f 600/600/600 603/603/603 602/602/602
f 604/604/604 602/602/602 603/603/603
f 605/605/605 599/599/599 602/602/602
f 603/603/603 606/606/606 604/604/604
f 606/606/606 603/603/603 607/607/607
f 608/608/608 607/607/607 603/603/603
f 603/603/603 600/600/600 608/608/608
f 596/596/596 608/608/608 600/600/600
f 607/607/607 609/609/609 606/606/606
f 609/609/609 607/607/607 610/610/610
f 611/611/611 610/610/610 607/607/607
f 607/607/607 608/608/608 611/611/611
f 612/612/612 606/606/606 609/609/609
f 612/612/612 613/613/613 606/606/606
f 613/613/613 612/612/612 614/614/614
f 615/615/615 614/614/614 612/612/612
f 614/614/614 616/616/616 613/613/613
f 617/617/617 613/613/613 616/616/616
f 617/617/617 606/606/606 613/613/613
f 617/617/617 604/604/604 606/606/606
f 612/612/612 618/618/618 615/615/615
f 619/619/619 615/615/615 618/618/618
f 620/620/620 611/611/611 608/608/608
f 620/620/620 621/621/621 611/611/611
f 616/616/616 622/622/622 617/617/617
f 604/604/604 617/617/617 622/622/622
f 610/610/610 623/623/623 609/609/609
f 624/624/624 609/609/609 623/623/623
f 618/618/618 612/612/612 624/624/624
f 623/623/623 625/625/625 624/624/624
f 626/626/626 624/624/624 625/625/625
f 624/624/624 626/626/626 618/618/618
f 625/625/625 627/627/627 626/626/626
f 628/628/628 626/626/626 627/627/627
f 627/627/627 629/629/629 628/628/628
f 630/630/630 628/628/628 629/629/629
f 628/628/628 630/630/630 631/631/631
f 632/632/632 631/631/631 630/630/630
f 632/632/632 630/630/630 633/633/633
f 632/632/632 633/633/633 634/634/634
f 635/635/635 634/634/634 633/633/633
f 636/636/636 633/633/633 630/630/630
f 630/630/630 629/629/629 636/636/636
f 637/637/637 636/636/636 629/629/629
f 629/629/629 638/638/638 637/637/637
f 629/629/629 627/627/627 638/638/638
f 639/639/639 637/637/637 638/638/638
f 640/640/640 638/638/638 627/627/627
f 627/627/627 625/625/625 640/640/640
f 638/638/638 640/640/640 641/641/641
f 638/638/638 641/641/641 639/639/639
f 642/642/642 641/641/641 640/640/640
f 641/641/641 642/642/642 643/643/643
f 644/644/644 643/643/643 642/642/642
f 641/641/641 643/643/643 645/645/645
f 645/645/645 639/639/639 641/641/641
f 646/646/646 645/645/645 643/643/643
f 643/643/643 647/647/647 646/646/646
f 648/648/648 646/646/646 647/647/647
f 647/647/647 649/649/649 648/648/648
f 650/650/650 648/648/648 649/649/649
f 649/649/649 651/651/651 650/650/650
f 652/652/652 650/650/650 651/651/651
f 651/651/651 653/653/653 652/652/652
f 654/654/654 652/652/652 653/653/653
f 649/649/649 647/647/647 655/655/655
f 649/649/649 655/655/655 651/651/651
f 656/656/656 655/655/655 647/647/647
f 644/644/644 656/656/656 643/643/643
f 647/647/647 643/643/643 656/656/656
f 657/657/657 656/656/656 644/644/644
f 658/658/658 657/657/657 644/644/644
f 657/657/657 659/659/659 656/656/656
f 655/655/655 656/656/656 659/659/659
f 659/659/659 660/660/660 655/655/655
f 661/661/661 655/655/655 660/660/660
f 661/661/661 651/651/651 655/655/655
f 651/651/651 661/661/661 653/653/653
f 660/660/660 662/662/662 661/661/661
f 663/663/663 661/661/661 662/662/662
f 663/663/663 653/653/653 661/661/661
f 659/659/659 657/657/657 664/664/664
f 665/665/665 664/664/664 657/657/657
f 664/664/664 665/665/665 666/666/666
f 666/666/666 667/667/667 664/664/664
f 666/666/666 668/668/668 667/667/667
f 669/669/669 667/667/667 668/668/668
f 670/670/670 664/664/664 667/667/667
f 664/664/664 670/670/670 659/659/659
f 660/660/660 659/659/659 670/670/670
f 671/671/671 666/666/666 665/665/665
f 668/668/668 666/666/666 672/672/672
f 671/671/671 672/672/672 666/666/666
f 672/672/672 673/673/673 668/668/668
f 674/674/674 668/668/668 673/673/673
f 668/668/668 674/674/674 669/669/669
f 675/675/675 669/669/669 674/674/674
f 670/670/670 676/676/676 660/660/660
f 662/662/662 660/660/660 676/676/676
f 674/674/674 677/677/677 675/675/675
f 678/678/678 675/675/675 677/677/677
f 667/667/667 669/669/669 679/679/679
f 676/676/676 670/670/670 679/679/679
f 667/667/667 679/679/679 670/670/670
f 680/680/680 679/679/679 669/669/669
f 680/680/680 669/669/669 681/681/681
f 679/679/679 682/682/682 676/676/676
f 683/683/683 676/676/676 682/682/682
f 683/683/683 684/684/684 676/676/676
f 662/662/662 676/676/676 684/684/684
f 684/684/684 685/685/685 662/662/662
f 663/663/663 662/662/662 685/685/685
f 685/685/685 686/686/686 663/663/663
f 653/653/653 663/663/663 686/686/686
f 686/686/686 687/687/687 653/653/653
f 679/679/679 680/680/680 688/688/688
f 688/688/688 682/682/682 679/679/679
f 689/689/689 688/688/688 680/680/680
f 690/690/690 689/689/689 680/680/680
f 691/691/691 690/690/690 680/680/680
f 681/681/681 691/691/691 680/680/680
f 691/691/691 681/681/681 692/692/692
f 692/692/692 693/693/693 691/691/691
f 694/694/694 692/692/692 681/681/681
f 692/692/692 694/694/694 695/695/695
f 696/696/696 695/695/695 694/694/694
f 691/691/691 697/697/697 690/690/690
f 697/697/697 691/691/691 698/698/698
f 699/699/699 690/690/690 697/697/697
f 693/693/693 692/692/692 700/700/700
f 695/695/695 700/700/700 692/692/692
f 696/696/696 694/694/694 678/678/678
f 675/675/675 678/678/678 694/694/694
f 675/675/675 694/694/694 669/669/669
f 681/681/681 669/669/669 694/694/694
f 678/678/678 568/568/568 696/696/696
f 568/568/568 678/678/678 701/701/701
f 701/701/701 585/585/585 568/568/568
f 569/569/569 568/568/568 585/585/585
f 677/677/677 701/701/701 678/678/678
f 560/560/560 696/696/696 568/568/568
f 695/695/695 696/696/696 559/559/559
f 560/560/560 559/559/559 696/696/696
f 559/559/559 557/557/557 695/695/695
f 700/700/700 695/695/695 557/557/557
f 677/677/677 702/702/702 701/701/701
f 703/703/703 701/701/701 702/702/702
f 701/701/701 703/703/703 585/585/585
f 702/702/702 704/704/704 703/703/703
f 705/705/705 703/703/703 704/704/704
f 703/703/703 705/705/705 587/587/587
f 587/587/587 585/585/585 703/703/703
f 586/586/586 587/587/587 705/705/705
f 705/705/705 706/706/706 586/586/586
f 704/704/704 706/706/706 705/705/705
f 706/706/706 704/704/704 707/707/707
f 706/706/706 707/707/707 588/588/588
f 708/708/708 588/588/588 707/707/707
f 588/588/588 708/708/708 709/709/709
f 710/710/710 709/709/709 708/708/708
f 709/709/709 710/710/710 595/595/595
f 620/620/620 595/595/595 710/710/710
f 595/595/595 620/620/620 596/596/596
f 608/608/608 596/596/596 620/620/620
f 711/711/711 707/707/707 704/704/704
f 704/704/704 673/673/673 711/711/711
f 672/672/672 711/711/711 673/673/673
f 709/709/709 590/590/590 588/588/588
f 709/709/709 595/595/595 590/590/590
f 583/583/583 586/586/586 706/706/706
f 588/588/588 583/583/583 706/706/706
f 712/712/712 707/707/707 711/711/711
f 711/711/711 672/672/672 713/713/713
f 713/713/713 712/712/712 711/711/711
f 671/671/671 713/713/713 672/672/672
f 710/710/710 621/621/621 620/620/620
f 713/713/713 671/671/671 714/714/714
f 671/671/671 665/665/665 714/714/714
f 715/715/715 714/714/714 665/665/665
f 715/715/715 665/665/665 716/716/716
f 657/657/657 716/716/716 665/665/665
f 717/717/717 716/716/716 657/657/657
f 658/658/658 717/717/717 657/657/657
f 673/673/673 702/702/702 674/674/674
f 677/677/677 674/674/674 702/702/702
f 702/702/702 673/673/673 704/704/704
f 621/621/621 718/718/718 611/611/611
f 610/610/610 611/611/611 718/718/718
f 718/718/718 719/719/719 610/610/610
f 719/719/719 720/720/720 610/610/610
f 623/623/623 610/610/610 720/720/720
f 720/720/720 721/721/721 623/623/623
f 623/623/623 721/721/721 722/722/722
f 723/723/723 623/623/623 722/722/722
f 623/623/623 723/723/723 625/625/625
f 724/724/724 625/625/625 723/723/723
f 724/724/724 640/640/640 625/625/625
f 640/640/640 724/724/724 642/642/642
f 725/725/725 642/642/642 724/724/724
f 727/727/727 726/726/726 642/642/642
f 644/644/644 642/642/642 726/726/726
f 726/726/726 728/728/728 644/644/644
f 730/730/730 602/602/602 729/729/729
f 731/731/731 729/729/729 602/602/602
f 602/602/602 604/604/604 731/731/731
f 622/622/622 731/731/731 604/604/604
f 732/732/732 618/618/618 626/626/626
f 626/626/626 628/628/628 732/732/732
f 631/631/631 732/732/732 628/628/628
f 732/732/732 631/631/631 619/619/619
f 619/619/619 618/618/618 732/732/732
f 733/733/733 619/619/619 631/631/631
f 631/631/631 632/632/632 733/733/733
f 634/634/634 733/733/733 632/632/632
f 654/654/654 653/653/653 734/734/734
f 687/687/687 735/735/735 654/654/654
f 736/736/736 654/654/654 735/735/735
f 736/736/736 737/737/737 654/654/654
f 652/652/652 654/654/654 737/737/737
f 737/737/737 738/738/738 652/652/652
f 650/650/650 652/652/652 738/738/738
f 738/738/738 739/739/739 650/650/650
f 648/648/648 650/650/650 739/739/739
f 739/739/739 740/740/740 648/648/648
f 646/646/646 648/648/648 740/740/740
f 646/646/646 740/740/740 645/645/645
f 741/741/741 645/645/645 740/740/740
f 741/741/741 742/742/742 645/645/645
f 639/639/639 645/645/645 742/742/742
f 639/639/639 742/742/742 637/637/637
f 743/743/743 637/637/637 742/742/742
f 637/637/637 743/743/743 636/636/636
f 744/744/744 636/636/636 743/743/743
f 744/744/744 745/745/745 636/636/636
f 633/633/633 636/636/636 745/745/745
f 633/633/633 745/745/745 746/746/746
f 747/747/747 746/746/746 745/745/745
f 609/609/609 624/624/624 612/612/612
f 750/750/750 749/749/749 748/748/748
f 751/751/751 748/748/748 749/749/749
f 750/750/750 748/748/748 752/752/752
f 753/753/753 752/752/752 748/748/748
f 751/751/751 754/754/754 748/748/748
f 755/755/755 748/748/748 754/754/754
f 748/748/748 755/755/755 753/753/753
f 754/754/754 756/756/756 755/755/755
f 757/757/757 755/755/755 756/756/756
f 757/757/757 756/756/756 758/758/758
f 759/759/759 758/758/758 756/756/756
f 752/752/752 753/753/753 760/760/760
f 761/761/761 760/760/760 753/753/753
f 753/753/753 762/762/762 761/761/761
f 755/755/755 757/757/757 762/762/762
f 762/762/762 753/753/753 755/755/755
f 763/763/763 761/761/761 762/762/762
f 762/762/762 764/764/764 763/763/763
f 764/764/764 762/762/762 757/757/757
f 757/757/757 758/758/758 764/764/764
f 765/765/765 763/763/763 764/764/764
f 764/764/764 766/766/766 765/765/765
f 766/766/766 764/764/764 758/758/758
f 767/767/767 765/765/765 766/766/766
f 765/765/765 767/767/767 768/768/768
f 769/769/769 768/768/768 767/767/767
f 768/768/768 769/769/769 770/770/770
f 771/771/771 770/770/770 769/769/769
f 771/771/771 772/772/772 770/770/770
f 773/773/773 770/770/770 772/772/772
f 768/768/768 770/770/770 774/774/774
f 775/775/775 774/774/774 770/770/770
f 770/770/770 773/773/773 775/775/775
f 763/763/763 765/765/765 776/776/776
f 768/768/768 776/776/776 765/765/765
f 776/776/776 768/768/768 774/774/774
f 761/761/761 763/763/763 777/777/777
f 776/776/776 777/777/777 763/763/763
f 775/775/775 778/778/778 774/774/774
f 779/779/779 774/774/774 778/778/778
f 774/774/774 779/779/779 776/776/776
f 777/777/777 776/776/776 779/779/779
f 780/780/780 775/775/775 773/773/773
f 772/772/772 781/781/781 773/773/773
f 782/782/782 773/773/773 781/781/781
f 773/773/773 782/782/782 780/780/780
f 781/781/781 783/783/783 782/782/782
f 784/784/784 782/782/782 783/783/783
f 783/783/783 785/785/785 784/784/784
f 786/786/786 784/784/784 785/785/785
f 782/782/782 784/784/784 787/787/787
f 788/788/788 787/787/787 784/784/784
f 784/784/784 789/789/789 788/788/788
f 789/789/789 784/784/784 786/786/786
f 786/786/786 790/790/790 789/789/789
f 791/791/791 789/789/789 790/790/790
f 792/792/792 788/788/788 789/789/789
f 785/785/785 793/793/793 786/786/786
f 790/790/790 786/786/786 793/793/793
f 789/789/789 791/791/791 794/794/794
f 789/789/789 794/794/794 792/792/792
f 792/792/792 794/794/794 795/795/795
f 796/796/796 795/795/795 794/794/794
f 797/797/797 794/794/794 791/791/791
f 795/795/795 796/796/796 798/798/798
f 798/798/798 799/799/799 795/795/795
f 800/800/800 795/795/795 799/799/799
f 788/788/788 792/792/792 800/800/800
f 795/795/795 800/800/800 792/792/792
f 799/799/799 798/798/798 801/801/801
f 801/801/801 802/802/802 799/799/799
f 803/803/803 799/799/799 802/802/802
f 799/799/799 803/803/803 800/800/800
f 804/804/804 801/801/801 798/798/798
f 804/804/804 798/798/798 805/805/805
f 805/805/805 806/806/806 804/804/804
f 807/807/807 804/804/804 806/806/806
f 806/806/806 805/805/805 808/808/808
f 809/809/809 808/808/808 805/805/805
f 809/809/809 805/805/805 798/798/798
f 809/809/809 798/798/798 796/796/796
f 804/804/804 807/807/807 810/810/810
f 811/811/811 810/810/810 807/807/807
f 812/812/812 800/800/800 803/803/803
f 813/813/813 812/812/812 803/803/803
f 808/808/808 809/809/809 814/814/814
f 796/796/796 814/814/814 809/809/809
f 802/802/802 801/801/801 815/815/815
f 816/816/816 815/815/815 801/801/801
f 810/810/810 816/816/816 804/804/804
f 815/815/815 816/816/816 817/817/817
f 818/818/818 817/817/817 816/816/816
f 816/816/816 810/810/810 818/818/818
f 817/817/817 818/818/818 819/819/819
f 820/820/820 819/819/819 818/818/818
f 819/819/819 820/820/820 821/821/821
f 822/822/822 821/821/821 820/820/820
f 820/820/820 823/823/823 822/822/822
f 824/824/824 822/822/822 823/823/823
f 824/824/824 825/825/825 822/822/822
f 824/824/824 826/826/826 825/825/825
f 827/827/827 825/825/825 826/826/826
f 828/828/828 822/822/822 825/825/825
f 822/822/822 828/828/828 821/821/821
f 829/829/829 821/821/821 828/828/828
f 821/821/821 829/829/829 830/830/830
f 821/821/821 830/830/830 819/819/819
f 831/831/831 830/830/830 829/829/829
f 832/832/832 819/819/819 830/830/830
f 819/819/819 832/832/832 817/817/817
f 830/830/830 833/833/833 832/832/832
f 830/830/830 831/831/831 833/833/833
f 834/834/834 832/832/832 833/833/833
f 833/833/833 835/835/835 834/834/834
f 836/836/836 834/834/834 835/835/835
f 833/833/833 837/837/837 835/835/835
f 837/837/837 833/833/833 831/831/831
f 838/838/838 835/835/835 837/837/837
f 835/835/835 838/838/838 839/839/839
f 840/840/840 839/839/839 838/838/838
f 839/839/839 840/840/840 841/841/841
f 842/842/842 841/841/841 840/840/840
f 841/841/841 842/842/842 843/843/843
f 844/844/844 843/843/843 842/842/842
f 843/843/843 844/844/844 845/845/845
f 846/846/846 845/845/845 844/844/844
f 841/841/841 847/847/847 839/839/839
f 841/841/841 843/843/843 847/847/847
f 848/848/848 839/839/839 847/847/847
f 839/839/839 848/848/848 835/835/835
f 836/836/836 835/835/835 848/848/848
f 848/848/848 849/849/849 836/836/836
f 849/849/849 850/850/850 836/836/836
f 847/847/847 851/851/851 848/848/848
f 849/849/849 848/848/848 851/851/851
f 851/851/851 847/847/847 852/852/852
f 853/853/853 852/852/852 847/847/847
f 853/853/853 847/847/847 843/843/843
f 843/843/843 845/845/845 853/853/853
f 852/852/852 853/853/853 854/854/854
f 855/855/855 854/854/854 853/853/853
f 855/855/855 853/853/853 845/845/845
f 851/851/851 856/856/856 849/849/849
f 857/857/857 849/849/849 856/856/856
f 856/856/856 858/858/858 857/857/857
f 858/858/858 856/856/856 859/859/859
f 858/858/858 859/859/859 860/860/860
f 861/861/861 860/860/860 859/859/859
f 862/862/862 859/859/859 856/856/856
f 852/852/852 862/862/862 851/851/851
f 856/856/856 851/851/851 862/862/862
f 863/863/863 857/857/857 858/858/858
f 863/863/863 858/858/858 864/864/864
f 860/860/860 864/864/864 858/858/858
f 864/864/864 860/860/860 865/865/865
f 866/866/866 865/865/865 860/860/860
f 860/860/860 861/861/861 866/866/866
f 867/867/867 866/866/866 861/861/861
f 854/854/854 868/868/868 852/852/852
f 862/862/862 852/852/852 868/868/868
f 866/866/866 867/867/867 869/869/869
f 870/870/870 869/869/869 867/867/867
f 859/859/859 871/871/871 861/861/861
f 859/859/859 862/862/862 871/871/871
f 868/868/868 871/871/871 862/862/862
f 872/872/872 861/861/861 871/871/871
f 861/861/861 872/872/872 873/873/873
f 871/871/871 868/868/868 874/874/874
f 875/875/875 874/874/874 868/868/868
f 875/875/875 868/868/868 876/876/876
f 854/854/854 876/876/876 868/868/868
f 876/876/876 854/854/854 877/877/877
f 855/855/855 877/877/877 854/854/854
f 877/877/877 855/855/855 878/878/878
f 845/845/845 878/878/878 855/855/855
f 878/878/878 845/845/845 879/879/879
f 871/871/871 880/880/880 872/872/872
f 874/874/874 880/880/880 871/871/871
f 881/881/881 872/872/872 880/880/880
f 881/881/881 882/882/882 872/872/872
f 882/882/882 883/883/883 872/872/872
f 883/883/883 873/873/873 872/872/872
f 883/883/883 884/884/884 873/873/873
f 884/884/884 883/883/883 885/885/885
f 886/886/886 873/873/873 884/884/884
f 884/884/884 887/887/887 886/886/886
f 888/888/888 886/886/886 887/887/887
f 883/883/883 882/882/882 697/697/697
f 697/697/697 889/889/889 883/883/883
f 890/890/890 697/697/697 882/882/882
f 887/887/887 884/884/884 891/891/891
f 885/885/885 891/891/891 884/884/884
f 888/888/888 870/870/870 886/886/886
f 867/867/867 886/886/886 870/870/870
f 867/867/867 861/861/861 886/886/886
f 873/873/873 886/886/886 861/861/861
f 870/870/870 888/888/888 760/760/760
f 760/760/760 892/892/892 870/870/870
f 892/892/892 760/760/760 777/777/777
f 761/761/761 777/777/777 760/760/760
f 869/869/869 870/870/870 892/892/892
f 752/752/752 760/760/760 888/888/888
f 752/752/752 888/888/888 750/750/750
f 887/887/887 750/750/750 888/888/888
f 891/891/891 749/749/749 887/887/887
f 750/750/750 887/887/887 749/749/749
f 869/869/869 892/892/892 893/893/893
f 894/894/894 893/893/893 892/892/892
f 892/892/892 777/777/777 894/894/894
f 893/893/893 894/894/894 895/895/895
f 896/896/896 895/895/895 894/894/894
f 894/894/894 779/779/779 896/896/896
f 779/779/779 894/894/894 777/777/777
f 778/778/778 896/896/896 779/779/779
f 896/896/896 778/778/778 897/897/897
f 897/897/897 895/895/895 896/896/896
f 897/897/897 898/898/898 895/895/895
f 897/897/897 780/780/780 898/898/898
f 899/899/899 898/898/898 780/780/780
f 780/780/780 900/900/900 899/899/899
f 901/901/901 899/899/899 900/900/900
f 900/900/900 787/787/787 901/901/901
f 812/812/812 901/901/901 787/787/787
f 787/787/787 788/788/788 812/812/812
f 800/800/800 812/812/812 788/788/788
f 902/902/902 895/895/895 898/898/898
f 895/895/895 902/902/902 865/865/865
f 864/864/864 865/865/865 902/902/902
f 900/900/900 780/780/780 782/782/782
f 787/787/787 900/900/900 782/782/782
f 775/775/775 897/897/897 778/778/778
f 775/775/775 780/780/780 897/897/897
f 898/898/898 903/903/903 902/902/902
f 902/902/902 904/904/904 864/864/864
f 903/903/903 904/904/904 902/902/902
f 863/863/863 864/864/864 904/904/904
f 813/813/813 901/901/901 812/812/812
f 863/863/863 904/904/904 905/905/905
f 863/863/863 905/905/905 857/857/857
f 906/906/906 857/857/857 905/905/905
f 906/906/906 907/907/907 857/857/857
f 849/849/849 857/857/857 907/907/907
f 907/907/907 908/908/908 849/849/849
f 908/908/908 850/850/850 849/849/849
f 865/865/865 866/866/866 893/893/893
f 869/869/869 893/893/893 866/866/866
f 865/865/865 893/893/893 895/895/895
f 813/813/813 803/803/803 909/909/909
f 802/802/802 909/909/909 803/803/803
f 910/910/910 909/909/909 802/802/802
f 910/910/910 802/802/802 911/911/911
f 815/815/815 911/911/911 802/802/802
f 912/912/912 911/911/911 815/815/815
f 912/912/912 815/815/815 913/913/913
f 815/815/815 914/914/914 913/913/913
f 815/815/815 817/817/817 914/914/914
f 915/915/915 914/914/914 817/817/817
f 915/915/915 817/817/817 832/832/832
f 832/832/832 834/834/834 915/915/915
f 916/916/916 915/915/915 834/834/834
f 836/836/836 917/917/917 834/834/834
f 918/918/918 917/917/917 836/836/836
f 919/919/919 834/834/834 917/917/917
f 921/921/921 794/794/794 920/920/920
f 922/922/922 920/920/920 794/794/794
f 794/794/794 921/921/921 796/796/796
f 814/814/814 796/796/796 921/921/921
f 923/923/923 818/818/818 810/810/810
f 818/818/818 923/923/923 820/820/820
f 823/823/823 820/820/820 923/923/923
f 923/923/923 811/811/811 823/823/823
f 810/810/810 811/811/811 923/923/923
f 924/924/924 823/823/823 811/811/811
f 823/823/823 924/924/924 824/824/824
f 826/826/826 824/824/824 924/924/924
f 846/846/846 925/925/925 845/845/845
f 927/927/927 926/926/926 846/846/846
f 879/879/879 846/846/846 926/926/926
f 927/927/927 846/846/846 928/928/928
f 844/844/844 928/928/928 846/846/846
f 928/928/928 844/844/844 929/929/929
f 842/842/842 929/929/929 844/844/844
f 929/929/929 842/842/842 930/930/930
f 840/840/840 930/930/930 842/842/842
f 930/930/930 840/840/840 931/931/931
f 838/838/838 931/931/931 840/840/840
f 838/838/838 837/837/837 931/931/931
f 932/932/932 931/931/931 837/837/837
f 932/932/932 837/837/837 933/933/933
f 831/831/831 933/933/933 837/837/837
f 831/831/831 829/829/829 933/933/933
f 934/934/934 933/933/933 829/829/829
f 829/829/829 828/828/828 934/934/934
f 935/935/935 934/934/934 828/828/828
f 935/935/935 828/828/828 936/936/936
f 825/825/825 936/936/936 828/828/828
f 825/825/825 937/937/937 936/936/936
f 938/938/938 936/936/936 937/937/937
f 801/801/801 804/804/804 816/816/816
