mtllib blue_war_f_pve_1_hand_r.mtl
o blue_war_f_pve_1_hand_r
usemtl blue_war_f_pve_1_hand_r
v -0.315969 1.336039 -0.012476
v -0.294449 1.364050 0.005917
v -0.314029 1.350208 0.010996
v -0.290999 1.352570 -0.024901
v -0.282399 1.339910 -0.049315
v -0.300245 1.301921 -0.041523
v -0.330127 1.313920 -0.012960
v -0.336867 1.320144 0.014695
v -0.317066 1.327881 0.046379
v -0.305515 1.349284 0.030637
v -0.274834 1.357820 0.024761
v -0.292124 1.342390 0.038514
v -0.273759 1.320393 0.038039
v -0.256240 1.346360 0.024377
v -0.279528 1.306948 0.040850
v -0.317066 1.327881 0.046379
v -0.348266 1.331101 0.063856
v -0.373973 1.328341 0.033194
v -0.304949 1.292458 -0.059260
v -0.354665 1.309101 -0.033580
v -0.376121 1.320282 -0.001978
v -0.320870 1.358192 -0.048230
v -0.331136 1.368134 -0.024073
v -0.349599 1.355078 -0.073028
v -0.291117 1.338657 -0.077493
v -0.306511 1.334411 -0.103788
v -0.364679 1.370174 -0.036008
v -0.366543 1.298575 -0.059795
v -0.388508 1.304943 -0.019980
v -0.331130 1.376178 0.007853
v -0.366492 1.383720 0.017637
v -0.319028 1.379961 0.037823
v -0.340126 1.386134 0.069419
v -0.296977 1.375455 0.047882
v -0.325752 1.327748 0.072665
v -0.276928 1.370335 0.052101
v -0.297282 1.318322 0.074328
v -0.296303 1.379570 0.086983
v -0.245986 1.357668 0.052634
v -0.244450 1.364835 0.089871
v -0.258070 1.294822 0.064390
v -0.245986 1.357668 0.052634
v -0.258070 1.294822 0.064390
v -0.253984 1.306086 0.101471
v -0.316916 1.315274 0.100068
v -0.268600 1.248219 0.098120
v -0.332050 1.253963 0.104220
v -0.371555 1.250233 0.083311
v -0.365854 1.190307 0.102508
v -0.326519 1.175529 0.100730
v -0.386555 1.192341 0.084914
v -0.402547 1.239383 0.044508
v -0.408215 1.189713 0.055321
v -0.407242 1.182805 0.019438
v -0.398554 1.235500 0.002686
v -0.423129 1.145827 0.019276
v -0.417126 1.155353 0.058494
v -0.373699 1.166956 0.118762
v -0.400351 1.155728 0.091125
v -0.438055 1.154690 0.061825
v -0.446906 1.143981 0.025612
v -0.445053 1.132409 0.004892
v -0.428314 1.159757 0.098149
v -0.418439 1.157646 0.113198
v -0.450101 1.124644 0.107115
v -0.419901 1.129837 -0.015482
v -0.434224 1.124913 -0.007476
v -0.450325 1.070290 0.001745
v -0.473207 1.084902 0.009551
v -0.461631 1.114311 0.037642
v -0.484859 1.058947 0.018940
v -0.471905 1.089701 0.043491
v -0.457296 1.124263 0.073583
v -0.454685 1.105350 0.110170
v -0.478921 1.066478 0.044213
v -0.464427 1.051493 0.013041
v -0.484517 1.031270 0.031858
v -0.471789 1.027856 0.028195
v -0.464427 1.051493 0.013041
v -0.481137 1.035585 0.045860
v -0.474837 1.010367 0.044836
v -0.466248 1.037364 0.041499
v -0.453993 1.059441 0.039564
v -0.471905 1.089701 0.043491
v -0.474837 1.010367 0.044836
v -0.455161 1.085886 0.146729
v -0.444192 1.117985 0.138235
v -0.426022 1.091901 0.142563
v -0.402473 1.152050 0.122825
v -0.411629 1.092532 0.144879
v -0.386842 1.142791 0.131402
v -0.381303 1.068580 0.150202
v -0.360479 1.110572 0.137193
v -0.348153 1.142261 0.125157
v -0.374920 1.059592 0.133779
v -0.325905 1.064825 0.144460
v -0.344543 1.049523 0.152524
v -0.343939 1.043066 0.138078
v -0.403638 1.085279 0.119904
v -0.430411 1.087021 0.103100
v -0.352767 1.085239 0.127184
v -0.366450 1.032266 0.143288
v -0.367928 1.040626 0.157923
v -0.325679 1.055968 0.128918
v -0.343939 1.043066 0.138078
v -0.353065 1.052356 0.125386
v -0.350845 1.072920 0.098097
v -0.333262 1.067194 0.100144
v -0.350845 1.072920 0.098097
v -0.322528 1.075868 0.132198
v -0.320410 1.134736 0.082533
v -0.320410 1.134736 0.082533
v -0.312984 1.144489 0.104637
v -0.302125 1.194999 0.069281
v -0.288761 1.207080 0.098451
v -0.275326 1.240675 0.065873
v -0.268600 1.248219 0.098120
v -0.312984 1.144489 0.104637
v -0.258070 1.294822 0.064390
v -0.253984 1.306086 0.101471
v -0.244450 1.364835 0.089871
v -0.245986 1.357668 0.052634
v -0.312984 1.144489 0.104637
v -0.352767 1.085239 0.127184
v -0.288761 1.207080 0.098451
v -0.273759 1.320393 0.038039
v -0.238373 1.331900 0.013055
v -0.260803 1.292255 0.025699
v -0.256240 1.346360 0.024377
v -0.235659 1.323900 -0.007267
v -0.279528 1.306948 0.040850
v -0.240568 1.297684 0.019339
v -0.261015 1.259037 -0.008906
v -0.235659 1.323900 -0.007267
v -0.229300 1.286371 0.041153
v -0.194235 1.287447 0.004088
v -0.266239 1.232787 0.053103
v -0.261300 1.231265 0.034675
v -0.213197 1.306282 -0.009861
v -0.261015 1.259037 -0.008906
v -0.258419 1.217804 -0.002604
v -0.197587 1.283062 -0.030390
v -0.214724 1.304224 -0.028048
v -0.215153 1.289140 -0.064976
v -0.222612 1.306537 -0.042094
v -0.263638 1.279744 -0.067977
v -0.261003 1.291390 -0.042811
v -0.299443 1.223979 -0.044185
v -0.304949 1.292458 -0.059260
v -0.322727 1.247427 -0.047865
v -0.266907 1.221424 -0.031477
v -0.257012 1.197116 0.000380
v -0.274749 1.193972 -0.036830
v -0.312466 1.144817 -0.025911
v -0.296273 1.142152 0.018778
v -0.290597 1.154237 0.049474
v -0.310894 1.144354 0.019658
v -0.305376 1.159851 0.053206
v -0.252792 1.204651 0.036070
v -0.312466 1.144817 -0.025911
v -0.325703 1.154775 -0.006372
v -0.343122 1.185253 -0.035800
v -0.339569 1.172518 -0.023406
v -0.377280 1.090084 0.004495
v -0.360984 1.088868 0.013157
v -0.377280 1.090084 0.004495
v -0.379178 1.044061 0.022159
v -0.393731 1.054037 0.010005
v -0.401273 0.996377 0.041632
v -0.390558 1.006654 0.058138
v -0.419864 0.952018 0.069405
v -0.426204 0.955554 0.058344
v -0.418829 0.953093 0.077306
v -0.416346 0.954719 0.086666
v -0.433063 0.962634 0.083428
v -0.432699 0.962871 0.084948
v -0.383184 0.995677 0.090588
v -0.412957 0.957700 0.098421
v -0.429103 0.916557 0.073162
v -0.427429 0.918166 0.081734
v -0.433063 0.962634 0.083428
v -0.433892 0.918852 0.086845
v -0.427628 0.897641 0.082242
v -0.434405 0.894899 0.088477
v -0.429315 0.895991 0.073128
v -0.436664 0.915829 0.068983
v -0.437241 0.891942 0.071424
v -0.433648 0.877544 0.077487
v -0.439969 0.869537 0.077039
v -0.432508 0.878864 0.084335
v -0.437726 0.871755 0.089883
v -0.437726 0.871755 0.089883
v -0.411040 0.960311 0.108689
v -0.426019 0.968715 0.106210
v -0.382216 0.988799 0.112703
v -0.355478 1.020435 0.075248
v -0.359267 0.986809 0.115577
v -0.377236 0.996802 0.127380
v -0.389560 0.992225 0.125504
v -0.402639 0.957774 0.120499
v -0.350754 1.043646 0.112429
v -0.347475 1.011715 0.126151
v -0.353556 1.046039 0.130127
v -0.357645 0.988223 0.124678
v -0.371353 0.989341 0.131248
v -0.338446 0.981040 0.137084
v -0.351451 0.976972 0.131978
v -0.366966 0.979295 0.135338
v -0.349753 0.952715 0.143377
v -0.338217 0.952004 0.140962
v -0.338446 0.981040 0.137084
v -0.328555 0.957445 0.146492
v -0.335154 0.943594 0.154485
v -0.343911 0.943485 0.156175
v -0.328555 0.957445 0.146492
v -0.334211 0.971905 0.152209
v -0.344123 0.996757 0.143681
v -0.328711 0.948163 0.158732
v -0.330512 0.952094 0.163560
v -0.334211 0.971905 0.152209
v -0.343911 0.943485 0.156175
v -0.357645 0.988223 0.124678
v -0.371353 0.989341 0.131248
v -0.359267 0.986809 0.115577
v -0.377236 0.996802 0.127380
v -0.334211 0.971905 0.152209
v -0.328555 0.957445 0.146492
v -0.235659 1.323900 -0.007267
v -0.263783 1.328360 -0.049949
v -0.261003 1.291390 -0.042811
v -0.278945 1.296019 -0.042184
v -0.300245 1.301921 -0.041523
v -0.282399 1.339910 -0.049315
v -0.304949 1.292458 -0.059260
v -0.261003 1.291390 -0.042811
v -0.261015 1.259037 -0.008906
v -0.353556 1.046039 0.130127
v -0.353065 1.052356 0.125386
v -0.350845 1.072920 0.098097
v -0.351358 1.074060 0.085702
v -0.343787 1.124140 0.085613
v -0.355478 1.020435 0.075248
v -0.340585 1.101190 0.068423
v -0.352512 1.082492 0.057260
v -0.343947 1.087314 0.034441
v -0.366688 1.052054 0.041091
v -0.343787 1.124140 0.085613
v -0.302125 1.194999 0.069281
v -0.275326 1.240675 0.065873
v -0.258070 1.294822 0.064390
v -0.389560 0.992225 0.125504
v -0.409536 0.966249 0.130869
v -0.411262 0.933226 0.123996
v -0.415788 0.937825 0.132008
v -0.410000 0.911112 0.125958
v -0.416424 0.930581 0.115628
v -0.414765 0.907642 0.116979
v -0.417077 0.888355 0.122473
v -0.426636 0.903839 0.119870
v -0.427245 0.878490 0.125139
v -0.413589 0.891005 0.129863
v -0.417478 0.909936 0.136307
v -0.415788 0.937825 0.132008
v -0.421147 0.883377 0.137944
v -0.427245 0.878490 0.125139
v -0.426265 0.932567 0.116166
v -0.426019 0.968715 0.106210
v -0.426651 0.968032 0.104788
v -0.419036 0.919388 0.104646
v -0.426651 0.968032 0.104788
v -0.426787 0.922669 0.110360
v -0.419834 0.894512 0.107236
v -0.428771 0.893004 0.113999
v -0.429644 0.869808 0.110901
v -0.434731 0.864439 0.115825
v -0.439333 0.860640 0.102128
v -0.432297 0.867449 0.102243
v -0.423878 0.890952 0.094830
v -0.435288 0.888239 0.094354
v -0.439333 0.860640 0.102128
v -0.433211 0.918556 0.090636
v -0.422763 0.916994 0.092120
v -0.416346 0.954719 0.086666
v -0.389560 0.992225 0.125504
v -0.388334 1.016129 0.131114
v -0.377236 0.996802 0.127380
v -0.411183 1.024759 0.121052
v -0.373235 0.998064 0.137462
v -0.371353 0.989341 0.131248
v -0.366966 0.979295 0.135338
v -0.365749 0.986343 0.141828
v -0.354903 0.965317 0.147693
v -0.349753 0.952715 0.143377
v -0.355250 0.995101 0.146222
v -0.364504 1.039538 0.135614
v -0.353556 1.046039 0.130127
v -0.344123 0.996757 0.143681
v -0.348862 0.975808 0.151834
v -0.345404 0.946727 0.159975
v -0.339121 0.951561 0.164615
v -0.334211 0.971905 0.152209
v -0.330512 0.952094 0.163560
v -0.330512 0.952094 0.163560
v -0.343911 0.943485 0.156175
v -0.330512 0.952094 0.163560
v -0.334211 0.971905 0.152209
v -0.371923 1.054165 0.129907
v -0.388347 1.073359 0.115043
v -0.405059 1.088066 0.091690
v -0.417863 1.119569 0.095438
v -0.421721 1.091586 0.072984
v -0.436193 1.113791 0.068647
v -0.427494 1.085178 0.048662
v -0.432743 1.106209 0.042894
v -0.411103 1.082635 0.074590
v -0.426502 1.034806 0.091720
v -0.425576 0.983102 0.123958
v -0.433366 0.979408 0.114196
v -0.427402 0.939941 0.131332
v -0.432434 0.937227 0.123489
v -0.428534 0.910939 0.135875
v -0.432976 0.907906 0.127770
v -0.430234 0.884040 0.138989
v -0.433702 0.881125 0.131416
v -0.421147 0.883377 0.137944
v -0.427245 0.878490 0.125139
v -0.421147 0.883377 0.137944
v -0.426636 0.903839 0.119870
v -0.421147 0.883377 0.137944
v -0.417478 0.909936 0.136307
v -0.426265 0.932567 0.116166
v -0.415788 0.937825 0.132008
v -0.426019 0.968715 0.106210
v -0.426019 0.968715 0.106210
v -0.426651 0.968032 0.104788
v -0.437770 0.973638 0.104197
v -0.432296 1.028811 0.066037
v -0.441706 0.970485 0.091734
v -0.438760 0.925312 0.109652
v -0.442966 0.922728 0.096882
v -0.444594 0.892582 0.100387
v -0.440359 0.895735 0.113008
v -0.426787 0.922669 0.110360
v -0.428771 0.893004 0.113999
v -0.442787 0.866597 0.114874
v -0.445803 0.864043 0.105928
v -0.439333 0.860640 0.102128
v -0.435288 0.888239 0.094354
v -0.439333 0.860640 0.102128
v -0.434731 0.864439 0.115825
v -0.433211 0.918556 0.090636
v -0.432699 0.962871 0.084948
v -0.443325 0.968152 0.083250
v -0.434842 1.020863 0.044791
v -0.444815 0.966698 0.069822
v -0.443667 0.918882 0.084933
v -0.445626 0.917021 0.074064
v -0.445089 0.893310 0.076555
v -0.443139 0.895147 0.086893
v -0.434405 0.894899 0.088477
v -0.433892 0.918852 0.086845
v -0.433063 0.962634 0.083428
v -0.434641 0.960060 0.064700
v -0.445807 0.967090 0.057328
v -0.445269 0.967698 0.046884
v -0.448441 0.926211 0.062390
v -0.438211 0.925535 0.065486
v -0.440184 0.905970 0.068537
v -0.447362 0.906172 0.064455
v -0.447275 0.904774 0.056086
v -0.447097 0.924336 0.052642
v -0.441077 0.903457 0.053166
v -0.439381 0.922874 0.048816
v -0.434751 0.959979 0.062703
v -0.437275 0.886018 0.056587
v -0.436195 0.887178 0.063439
v -0.431229 0.886541 0.065762
v -0.433474 0.884903 0.055054
v -0.441077 0.903457 0.053166
v -0.433474 0.884903 0.055054
v -0.434618 0.962028 0.042030
v -0.430933 1.005827 0.030734
v -0.409791 0.999661 0.029782
v -0.419887 1.034274 0.016578
v -0.393731 1.054037 0.010005
v -0.417862 1.063275 0.030540
v -0.420107 1.072457 0.050283
v -0.423611 1.091220 0.032723
v -0.432950 1.064508 0.026870
v -0.439663 1.077143 0.041828
v -0.439663 1.077143 0.041828
v -0.436193 1.113791 0.068647
v -0.436193 1.113791 0.068647
v -0.448989 1.080002 0.078965
v -0.430411 1.087021 0.103100
v -0.448989 1.080002 0.078965
v -0.430411 1.087021 0.103100
v -0.417863 1.119569 0.095438
v -0.403638 1.085279 0.119904
v -0.401759 1.107305 0.106808
v -0.374920 1.059592 0.133779
v -0.364504 1.039538 0.135614
v -0.366450 1.032266 0.143288
v -0.343939 1.043066 0.138078
v -0.343939 1.043066 0.138078
v -0.353556 1.046039 0.130127
v -0.374920 1.059592 0.133779
v -0.371923 1.054165 0.129907
v -0.388347 1.073359 0.115043
v -0.353556 1.046039 0.130127
v -0.325679 1.055968 0.128918
v -0.415788 0.937825 0.132008
v -0.409536 0.966249 0.130869
v -0.409536 0.966249 0.130869
v -0.389560 0.992225 0.125504
v -0.443325 0.968152 0.083250
v -0.432699 0.962871 0.084948
v -0.433063 0.962634 0.083428
v -0.436664 0.915829 0.068983
v -0.434641 0.960060 0.064700
v -0.434751 0.959979 0.062703
v -0.426204 0.955554 0.058344
v -0.426163 0.956654 0.048867
v -0.409791 0.999661 0.029782
v -0.434618 0.962028 0.042030
v -0.439381 0.922874 0.048816
v -0.433066 0.923580 0.053226
v -0.434470 0.905659 0.056089
v -0.441077 0.903457 0.053166
v -0.432257 0.924994 0.061742
v -0.434751 0.959979 0.062703
v -0.438211 0.925535 0.065486
v -0.433697 0.907174 0.064272
v -0.440184 0.905970 0.068537
v -0.429176 0.888226 0.056767
v -0.427547 0.889425 0.063116
v -0.433474 0.884903 0.055054
v -0.431229 0.886541 0.065762
v -0.431229 0.886541 0.065762
v -0.441077 0.903457 0.053166
v -0.433474 0.884903 0.055054
v -0.445807 0.967090 0.057328
v -0.434641 0.960060 0.064700
v -0.434751 0.959979 0.062703
v -0.436664 0.915829 0.068983
v -0.437241 0.891942 0.071424
v -0.439969 0.869537 0.077039
v -0.445200 0.870783 0.080646
v -0.443696 0.872173 0.088444
v -0.437726 0.871755 0.089883
v -0.437726 0.871755 0.089883
v -0.437726 0.871755 0.089883
v -0.439969 0.869537 0.077039
v -0.437726 0.871755 0.089883
v -0.338446 0.981040 0.137084
v -0.353556 1.046039 0.130127
v -0.353556 1.046039 0.130127
v -0.344123 0.996757 0.143681
v -0.312466 1.144817 -0.025911
v -0.370513 1.119908 -0.028643
v -0.372893 1.053711 -0.007576
v -0.362454 1.120820 -0.015055
v -0.384017 1.057578 -0.028892
v -0.400732 1.106973 -0.023666
v -0.351412 1.179730 -0.049586
v -0.395797 1.173941 -0.016992
v -0.427399 1.104666 -0.012055
v -0.443676 1.066843 -0.000468
v -0.424833 1.035543 -0.005124
v -0.432950 1.064508 0.026870
v -0.419887 1.034274 0.016578
v -0.409965 1.002390 -0.002578
v -0.406769 1.007702 0.014015
v -0.432950 1.064508 0.026870
v -0.439663 1.077143 0.041828
v -0.380241 1.236882 -0.038808
v -0.351412 1.179730 -0.049586
v -0.328627 1.238777 -0.078107
v -0.315389 1.288432 -0.093840
v -0.389293 1.313647 0.034243
v -0.361329 1.313814 0.078615
v -0.351412 1.179730 -0.049586
v -0.322727 1.247427 -0.047865
v -0.328627 1.238777 -0.078107
v -0.304949 1.292458 -0.059260
v -0.322727 1.247427 -0.047865
v -0.343122 1.185253 -0.035800
v -0.362454 1.120820 -0.015055
v -0.304949 1.292458 -0.059260
v -0.315389 1.288432 -0.093840
v -0.291117 1.338657 -0.077493
v -0.306511 1.334411 -0.103788
v -0.393731 1.054037 0.010005
v -0.372893 1.053711 -0.007576
v -0.377280 1.090084 0.004495
v -0.362454 1.120820 -0.015055
v -0.362454 1.120820 -0.015055
v -0.343122 1.185253 -0.035800
v -0.374920 1.059592 0.133779
v -0.403638 1.085279 0.119904
v -0.367928 1.040626 0.157923
v -0.366450 1.032266 0.143288
v -0.435489 1.080137 0.144048
v -0.430411 1.087021 0.103100
v -0.426022 1.091901 0.142563
v -0.464009 1.079524 0.120829
v -0.456415 1.061999 0.144465
v -0.462103 1.059744 0.126922
v -0.455032 1.033682 0.133355
v -0.435489 1.080137 0.144048
v -0.440514 1.072333 0.115106
v -0.454685 1.105350 0.110170
v -0.430411 1.087021 0.103100
v -0.448356 1.058216 0.123405
v -0.455032 1.033682 0.133355
v -0.445395 1.060852 0.143024
v -0.455032 1.033682 0.133355
v -0.448356 1.058216 0.123405
v -0.455032 1.033682 0.133355
v -0.440514 1.072333 0.115106
v -0.445395 1.060852 0.143024
v -0.435489 1.080137 0.144048
v -0.445395 1.060852 0.143024
v -0.435489 1.080137 0.144048
v -0.430411 1.087021 0.103100
v -0.440514 1.072333 0.115106
v -0.454685 1.105350 0.110170
v -0.470895 1.087618 0.081784
v -0.448989 1.080002 0.078965
v -0.471905 1.089701 0.043491
v -0.448989 1.080002 0.078965
v -0.430411 1.087021 0.103100
v -0.439663 1.077143 0.041828
v -0.471905 1.089701 0.043491
v -0.439663 1.077143 0.041828
v -0.464427 1.051493 0.013041
v -0.439663 1.077143 0.041828
v -0.453993 1.059441 0.039564
v -0.471789 1.027856 0.028195
v -0.471789 1.027856 0.028195
v -0.466248 1.037364 0.041499
v -0.474837 1.010367 0.044836
v -0.471789 1.027856 0.028195
v -0.474837 1.010367 0.044836
v -0.398900 1.018154 -0.002196
v -0.401477 1.062192 -0.010145
v -0.409965 1.002390 -0.002578
v -0.393731 1.054037 0.010005
v -0.378666 1.030166 -0.000165
v -0.378666 1.030166 -0.000165
v -0.381845 1.025589 -0.011995
v -0.398900 1.018154 -0.002196
v -0.396022 1.023766 0.006621
v -0.409965 1.002390 -0.002578
v -0.406769 1.007702 0.014015
v -0.401477 1.062192 -0.010145
v -0.381845 1.025589 -0.011995
v -0.406769 1.007702 0.014015
v -0.419887 1.034274 0.016578
v -0.396022 1.023766 0.006621
v -0.393731 1.054037 0.010005
v -0.378666 1.030166 -0.000165
v -0.333262 1.067194 0.100144
v -0.343787 1.124140 0.085613
v -0.350845 1.072920 0.098097
v -0.320410 1.134736 0.082533
v -0.302125 1.194999 0.069281
v -0.320410 1.134736 0.082533
v -0.401759 1.107305 0.106808
v -0.374920 1.059592 0.133779
v -0.352767 1.085239 0.127184
v -0.322528 1.075868 0.132198
v -0.353556 1.046039 0.130127
v -0.325679 1.055968 0.128918
v -0.353065 1.052356 0.125386
v -0.384017 1.057578 -0.028892
v -0.393731 1.054037 0.010005
v -0.258070 1.294822 0.064390
v -0.304949 1.292458 -0.059260
v -0.304949 1.292458 -0.059260
vt 0.294353 0.926205
vt 0.333301 0.972485
vt 0.337406 0.928725
vt 0.288724 0.975167
vt 0.237032 0.983571
vt 0.222071 0.940184
vt 0.280461 0.894690
vt 0.328054 0.877757
vt 0.391851 0.891983
vt 0.369786 0.928990
vt 0.371931 0.976088
vt 0.397396 0.940438
vt 0.430318 0.951055
vt 0.409666 0.988692
vt 0.437083 0.944088
vt 0.391851 0.891983
vt 0.391202 0.825699
vt 0.337460 0.805516
vt 0.183772 0.908336
vt 0.246628 0.852375
vt 0.290912 0.816434
vt 0.220707 0.785472
vt 0.277007 0.767537
vt 0.196674 0.726658
vt 0.129740 0.829289
vt 0.095860 0.775555
vt 0.260679 0.701116
vt 0.179187 0.657506
vt 0.256174 0.622613
vt 0.329048 0.758404
vt 0.327971 0.686988
vt 0.386664 0.764687
vt 0.408658 0.704647
vt 0.437149 0.790739
vt 0.420380 0.851322
vt 0.475696 0.812255
vt 0.450384 0.886292
vt 0.483305 0.740202
vt 0.539112 0.855255
vt 0.573022 0.789127
vt 0.480761 0.932581
vt 0.539112 0.855255
vt 0.480761 0.932581
vt 0.583629 0.715895
vt 0.507627 0.667639
vt 0.597385 0.641875
vt 0.508787 0.591112
vt 0.431749 0.563716
vt 0.481502 0.498427
vt 0.548842 0.511891
vt 0.427542 0.490539
vt 0.343324 0.545585
vt 0.346893 0.479024
vt 0.274874 0.481581
vt 0.261584 0.552480
vt 0.274154 0.391323
vt 0.346336 0.389870
vt 0.495510 0.424153
vt 0.419800 0.403597
vt 0.340716 0.340356
vt 0.280100 0.336885
vt 0.244719 0.340030
vt 0.401318 0.343885
vt 0.436467 0.351389
vt 0.400534 0.262616
vt 0.189038 0.400900
vt 0.214075 0.357556
vt 0.188526 0.273180
vt 0.229562 0.224006
vt 0.283936 0.255694
vt 0.197733 0.137672
vt 0.278911 0.164116
vt 0.342073 0.262249
vt 0.411565 0.174051
vt 0.227830 0.124221
vt 0.160826 0.157727
vt 0.161644 0.076494
vt 0.133298 0.078860
vt 0.160826 0.157727
vt 0.174738 0.059146
vt 0.121900 0.016583
vt 0.186514 0.039427
vt 0.246367 0.077831
vt 0.278911 0.164116
vt 0.121900 0.016583
vt 0.486764 0.153131
vt 0.453867 0.238402
vt 0.497758 0.272967
vt 0.468143 0.368934
vt 0.513244 0.302878
vt 0.506966 0.379614
vt 0.574849 0.319383
vt 0.571430 0.393912
vt 0.558785 0.439200
vt 0.582008 0.271721
vt 0.641747 0.350808
vt 0.635152 0.329499
vt 0.675417 0.321580
vt 0.545728 0.258905
vt 0.537626 0.222652
vt 0.624499 0.399647
vt 0.664294 0.285181
vt 0.624872 0.305666
vt 0.669962 0.360266
vt 0.675417 0.321580
vt 0.666367 0.390786
vt 0.676850 0.418361
vt 0.682588 0.447863
vt 0.676850 0.418361
vt 0.634651 0.432420
vt 0.651481 0.513042
vt 0.651481 0.513042
vt 0.602808 0.501865
vt 0.648606 0.564690
vt 0.609380 0.581476
vt 0.641958 0.612348
vt 0.597385 0.641875
vt 0.602808 0.501865
vt 0.645720 0.681392
vt 0.583629 0.715895
vt 0.573022 0.789127
vt 0.639710 0.786218
vt 0.602808 0.501865
vt 0.624499 0.399647
vt 0.609380 0.581476
vt 0.706838 0.647134
vt 0.751398 0.689094
vt 0.744643 0.636782
vt 0.708983 0.687388
vt 0.806287 0.688599
vt 0.703383 0.625959
vt 0.753993 0.597931
vt 0.799086 0.646569
vt 0.806287 0.688599
vt 0.735393 0.553407
vt 0.787244 0.556890
vt 0.719890 0.472719
vt 0.746671 0.478248
vt 0.797606 0.578844
vt 0.799086 0.646569
vt 0.804484 0.480008
vt 0.814310 0.560011
vt 0.815216 0.581653
vt 0.844353 0.571302
vt 0.829870 0.585423
vt 0.886360 0.574582
vt 0.860379 0.623758
vt 0.902919 0.493325
vt 0.950949 0.578801
vt 0.951894 0.501278
vt 0.850225 0.493484
vt 0.804906 0.469945
vt 0.849014 0.469483
vt 0.861660 0.430595
vt 0.816186 0.404409
vt 0.777921 0.404244
vt 0.824717 0.388075
vt 0.768317 0.389004
vt 0.764319 0.463851
vt 0.861660 0.430595
vt 0.874538 0.394832
vt 0.936696 0.422668
vt 0.917476 0.412510
vt 0.900791 0.308289
vt 0.875174 0.311051
vt 0.900791 0.308289
vt 0.876702 0.260118
vt 0.905394 0.263601
vt 0.885948 0.204555
vt 0.853125 0.202526
vt 0.896520 0.145932
vt 0.919751 0.159884
vt 0.882578 0.136132
vt 0.864606 0.129120
vt 0.881772 0.122682
vt 0.878163 0.120865
vt 0.820042 0.188207
vt 0.844388 0.123344
vt 0.918294 0.112482
vt 0.910324 0.105723
vt 0.881772 0.122682
vt 0.905017 0.097323
vt 0.922931 0.087326
vt 0.919221 0.075863
vt 0.931669 0.095117
vt 0.927350 0.116294
vt 0.943018 0.097021
vt 0.942943 0.077985
vt 0.952897 0.072431
vt 0.936249 0.071910
vt 0.938765 0.059385
vt 0.938765 0.059385
vt 0.825289 0.120133
vt 0.833664 0.109716
vt 0.797984 0.178476
vt 0.810757 0.236280
vt 0.779778 0.204089
vt 0.777904 0.176841
vt 0.784710 0.167751
vt 0.808557 0.121752
vt 0.750040 0.234608
vt 0.747065 0.209734
vt 0.732430 0.223903
vt 0.764919 0.194690
vt 0.774174 0.178998
vt 0.738103 0.182712
vt 0.751323 0.176209
vt 0.763269 0.165640
vt 0.751870 0.147663
vt 0.742234 0.158846
vt 0.738103 0.182712
vt 0.730599 0.165392
vt 0.729750 0.144473
vt 0.734345 0.133386
vt 0.730599 0.165392
vt 0.718563 0.172400
vt 0.724987 0.190570
vt 0.720268 0.150266
vt 0.713597 0.148144
vt 0.718563 0.172400
vt 0.734345 0.133386
vt 0.764919 0.194690
vt 0.774174 0.178998
vt 0.779778 0.204089
vt 0.777904 0.176841
vt 0.718563 0.172400
vt 0.730599 0.165392
vt 0.806287 0.688599
vt 0.880613 0.642701
vt 0.860379 0.623758
vt 0.893489 0.616426
vt 0.920645 0.614921
vt 0.907472 0.651961
vt 0.950949 0.578801
vt 0.860379 0.623758
vt 0.799086 0.646569
vt 0.732430 0.223903
vt 0.732264 0.234047
vt 0.757240 0.262356
vt 0.773054 0.269100
vt 0.753160 0.316819
vt 0.810757 0.236280
vt 0.783816 0.309288
vt 0.810205 0.289312
vt 0.834715 0.311894
vt 0.845226 0.263548
vt 0.753160 0.316819
vt 0.723262 0.405109
vt 0.695458 0.473670
vt 0.676820 0.560494
vt 0.784710 0.167751
vt 0.790028 0.121053
vt 0.806813 0.082815
vt 0.795704 0.082941
vt 0.805589 0.059756
vt 0.818848 0.081522
vt 0.818045 0.058141
vt 0.815444 0.036436
vt 0.829879 0.048620
vt 0.821145 0.019990
vt 0.805365 0.037225
vt 0.792829 0.052189
vt 0.795704 0.082941
vt 0.798861 0.021937
vt 0.821145 0.019990
vt 0.829727 0.079101
vt 0.833664 0.109716
vt 0.835944 0.110408
vt 0.857156 0.080074
vt 0.835944 0.110408
vt 0.846404 0.075393
vt 0.862517 0.054689
vt 0.853209 0.044061
vt 0.869996 0.025874
vt 0.868532 0.014842
vt 0.888727 0.019295
vt 0.881806 0.028658
vt 0.878141 0.058111
vt 0.891548 0.053504
vt 0.888727 0.019295
vt 0.884236 0.085629
vt 0.871405 0.084593
vt 0.864606 0.129120
vt 0.848644 0.751876
vt 0.871609 0.758369
vt 0.862455 0.744951
vt 0.846081 0.777928
vt 0.874778 0.739266
vt 0.862315 0.737430
vt 0.857528 0.720765
vt 0.868886 0.718420
vt 0.860771 0.703427
vt 0.849323 0.704824
vt 0.880804 0.709778
vt 0.897796 0.738523
vt 0.908394 0.726984
vt 0.891812 0.701902
vt 0.872446 0.694794
vt 0.854412 0.684447
vt 0.862335 0.678102
vt 0.883565 0.685984
vt 0.867110 0.669599
vt 0.867110 0.669599
vt 0.849555 0.684476
vt 0.867110 0.669599
vt 0.883565 0.685984
vt 0.897401 0.752440
vt 0.896378 0.779231
vt 0.886728 0.813519
vt 0.909219 0.827990
vt 0.885190 0.848772
vt 0.902913 0.865110
vt 0.876176 0.875480
vt 0.885418 0.881868
vt 0.877211 0.835489
vt 0.833530 0.817090
vt 0.797154 0.768613
vt 0.786226 0.782503
vt 0.762023 0.742552
vt 0.754787 0.753407
vt 0.738833 0.726259
vt 0.731817 0.736649
vt 0.717679 0.714398
vt 0.712626 0.721341
vt 0.717374 0.705015
vt 0.704184 0.724206
vt 0.717374 0.705015
vt 0.723579 0.747610
vt 0.717374 0.705015
vt 0.745969 0.713492
vt 0.746385 0.763458
vt 0.769562 0.728901
vt 0.772056 0.785608
vt 0.772056 0.785608
vt 0.771116 0.787302
vt 0.776471 0.800498
vt 0.823212 0.849962
vt 0.770560 0.821019
vt 0.732470 0.785547
vt 0.727525 0.803306
vt 0.701034 0.793136
vt 0.706194 0.776207
vt 0.735296 0.769226
vt 0.708304 0.760461
vt 0.680662 0.770127
vt 0.677432 0.780298
vt 0.670134 0.784079
vt 0.693974 0.806730
vt 0.670134 0.784079
vt 0.677220 0.761627
vt 0.720860 0.818305
vt 0.758785 0.828273
vt 0.766996 0.840809
vt 0.816840 0.881849
vt 0.765830 0.860453
vt 0.720396 0.834735
vt 0.718882 0.849977
vt 0.696600 0.845461
vt 0.697917 0.831695
vt 0.697991 0.819954
vt 0.721156 0.821372
vt 0.758878 0.828006
vt 0.754785 0.871641
vt 0.767398 0.879678
vt 0.771055 0.892424
vt 0.727920 0.892085
vt 0.723732 0.879660
vt 0.705782 0.887885
vt 0.709745 0.898143
vt 0.713004 0.908873
vt 0.731003 0.903376
vt 0.714682 0.918070
vt 0.733240 0.915360
vt 0.754074 0.870332
vt 0.695621 0.911510
vt 0.693173 0.903769
vt 0.688487 0.899867
vt 0.693903 0.915547
vt 0.714682 0.918070
vt 0.693903 0.915547
vt 0.769365 0.908439
vt 0.809963 0.911829
vt 0.793627 0.937940
vt 0.822528 0.925985
vt 0.820633 0.976879
vt 0.856446 0.895881
vt 0.863996 0.869411
vt 0.870362 0.890866
vt 0.874872 0.933305
vt 0.913920 0.945642
vt 0.913920 0.945642
vt 0.902913 0.865110
vt 0.902913 0.865110
vt 0.981734 0.897988
vt 0.990692 0.826113
vt 0.981734 0.897988
vt 0.990692 0.826113
vt 0.909219 0.827990
vt 0.949755 0.793739
vt 0.907242 0.804560
vt 0.926482 0.761128
vt 0.897796 0.738523
vt 0.963113 0.735309
vt 0.949412 0.706499
vt 0.949412 0.706499
vt 0.908394 0.726984
vt 0.926482 0.761128
vt 0.897401 0.752440
vt 0.896378 0.779231
vt 0.908394 0.726984
vt 0.927247 0.695264
vt 0.769562 0.728901
vt 0.801534 0.748046
vt 0.801534 0.748046
vt 0.848644 0.751876
vt 0.766996 0.840809
vt 0.758785 0.828273
vt 0.758878 0.828006
vt 0.927350 0.116294
vt 0.915857 0.148757
vt 0.918893 0.152052
vt 0.919751 0.159884
vt 0.927655 0.170056
vt 0.905545 0.214588
vt 0.937025 0.182858
vt 0.960074 0.150026
vt 0.952532 0.144540
vt 0.965021 0.130070
vt 0.973830 0.132689
vt 0.945397 0.136699
vt 0.918893 0.152052
vt 0.940337 0.128782
vt 0.957886 0.122466
vt 0.954629 0.112365
vt 0.977271 0.113208
vt 0.970793 0.107430
vt 0.983869 0.111838
vt 0.972367 0.100826
vt 0.972367 0.100826
vt 0.973830 0.132689
vt 0.983869 0.111838
vt 0.767398 0.879678
vt 0.754785 0.871641
vt 0.754074 0.870332
vt 0.716088 0.863927
vt 0.693578 0.857538
vt 0.671486 0.844454
vt 0.676347 0.839259
vt 0.677120 0.829975
vt 0.673650 0.824251
vt 0.673650 0.824251
vt 0.673650 0.824251
vt 0.671486 0.844454
vt 0.673650 0.824251
vt 0.738103 0.182712
vt 0.732430 0.223903
vt 0.732430 0.223903
vt 0.724987 0.190570
vt 0.861660 0.430595
vt 0.111096 0.465865
vt 0.046315 0.400681
vt 0.073899 0.475650
vt 0.093048 0.383518
vt 0.143404 0.418529
vt 0.105401 0.542544
vt 0.192184 0.502509
vt 0.167977 0.347365
vt 0.169039 0.297979
vt 0.103201 0.292241
vt 0.141271 0.246920
vt 0.101364 0.253274
vt 0.060851 0.259766
vt 0.075849 0.221487
vt 0.141271 0.246920
vt 0.144248 0.230090
vt 0.184799 0.579474
vt 0.105401 0.542544
vt 0.094125 0.619583
vt 0.086014 0.700343
vt 0.337301 0.611358
vt 0.427532 0.632306
vt 0.105401 0.542544
vt 0.049631 0.595265
vt 0.094125 0.619583
vt 0.034866 0.669159
vt 0.049631 0.595265
vt 0.081686 0.537592
vt 0.073899 0.475650
vt 0.034866 0.669159
vt 0.086014 0.700343
vt 0.042426 0.768804
vt 0.095860 0.775555
vt 0.905394 0.263601
vt 0.936159 0.276436
vt 0.900791 0.308289
vt 0.929623 0.354382
vt 0.929623 0.354382
vt 0.936696 0.422668
vt 0.582008 0.271721
vt 0.545728 0.258905
vt 0.624872 0.305666
vt 0.619421 0.268815
vt 0.518849 0.173465
vt 0.537626 0.222652
vt 0.497758 0.272967
vt 0.456777 0.133567
vt 0.530126 0.094380
vt 0.513666 0.078726
vt 0.568183 0.033544
vt 0.518849 0.173465
vt 0.439553 0.092180
vt 0.411565 0.174051
vt 0.405478 0.095493
vt 0.505247 0.054179
vt 0.568183 0.033544
vt 0.552717 0.100662
vt 0.568183 0.033544
vt 0.573474 0.105934
vt 0.568183 0.033544
vt 0.560199 0.189685
vt 0.552717 0.100662
vt 0.518849 0.173465
vt 0.552717 0.100662
vt 0.518849 0.173465
vt 0.537626 0.222652
vt 0.560199 0.189685
vt 0.411565 0.174051
vt 0.347720 0.174552
vt 0.357666 0.101696
vt 0.278911 0.164116
vt 0.357666 0.101696
vt 0.405478 0.095493
vt 0.300907 0.068530
vt 0.278911 0.164116
vt 0.300907 0.068530
vt 0.160826 0.157727
vt 0.144248 0.230090
vt 0.123170 0.169978
vt 0.133298 0.078860
vt 0.133298 0.078860
vt 0.114452 0.090541
vt 0.121900 0.016583
vt 0.133298 0.078860
vt 0.121900 0.016583
vt 0.052500 0.282175
vt 0.091138 0.360992
vt 0.060851 0.259766
vt 0.041794 0.368881
vt 0.015646 0.308563
vt 0.015646 0.308563
vt 0.042518 0.302511
vt 0.052500 0.282175
vt 0.018863 0.270652
vt 0.060851 0.259766
vt 0.023926 0.239125
vt 0.091138 0.360992
vt 0.042518 0.302511
vt 0.873667 0.939129
vt 0.822528 0.925985
vt 0.866554 0.965452
vt 0.820633 0.976879
vt 0.872010 0.993354
vt 0.722557 0.258788
vt 0.753160 0.316819
vt 0.757240 0.262356
vt 0.723577 0.338738
vt 0.723262 0.405109
vt 0.723577 0.338738
vt 0.907242 0.804560
vt 0.926482 0.761128
vt 0.624499 0.399647
vt 0.634651 0.432420
vt 0.908394 0.726984
vt 0.927247 0.695264
vt 0.899415 0.711953
vt 0.093048 0.383518
vt 0.041794 0.368881
vt 0.480761 0.932581
vt 0.183772 0.908336
vt 0.183772 0.908336
f 3/3/3 2/2/2 1/1/1
f 4/4/4 1/1/1 2/2/2
f 4/4/4 5/5/5 1/1/1
f 6/6/6 1/1/1 5/5/5
f 1/1/1 7/7/7 3/3/3
f 1/1/1 6/6/6 7/7/7
f 8/8/8 3/3/3 7/7/7
f 8/8/8 9/9/9 3/3/3
f 10/10/10 3/3/3 9/9/9
f 3/3/3 10/10/10 2/2/2
f 10/10/10 11/11/11 2/2/2
f 10/10/10 9/9/9 12/12/12
f 12/12/12 11/11/11 10/10/10
f 12/12/12 13/13/13 11/11/11
f 14/14/14 11/11/11 13/13/13
f 13/13/13 12/12/12 15/15/15
f 16/16/16 15/15/15 12/12/12
f 9/9/9 8/8/8 17/17/17
f 18/18/18 17/17/17 8/8/8
f 8/8/8 7/7/7 18/18/18
f 6/6/6 19/19/19 7/7/7
f 20/20/20 7/7/7 19/19/19
f 20/20/20 21/21/21 7/7/7
f 21/21/21 18/18/18 7/7/7
f 20/20/20 22/22/22 21/21/21
f 23/23/23 21/21/21 22/22/22
f 21/21/21 23/23/23 18/18/18
f 22/22/22 24/24/24 23/23/23
f 22/22/22 25/25/25 24/24/24
f 26/26/26 24/24/24 25/25/25
f 27/27/27 23/23/23 24/24/24
f 24/24/24 28/28/28 27/27/27
f 29/29/29 27/27/27 28/28/28
f 23/23/23 27/27/27 30/30/30
f 30/30/30 18/18/18 23/23/23
f 31/31/31 30/30/30 27/27/27
f 27/27/27 29/29/29 31/31/31
f 30/30/30 31/31/31 32/32/32
f 30/30/30 32/32/32 18/18/18
f 17/17/17 18/18/18 32/32/32
f 33/33/33 32/32/32 31/31/31
f 32/32/32 33/33/33 34/34/34
f 32/32/32 34/34/34 17/17/17
f 35/35/35 17/17/17 34/34/34
f 34/34/34 36/36/36 35/35/35
f 37/37/37 35/35/35 36/36/36
f 38/38/38 34/34/34 33/33/33
f 36/36/36 34/34/34 38/38/38
f 36/36/36 38/38/38 39/39/39
f 40/40/40 39/39/39 38/38/38
f 35/35/35 9/9/9 17/17/17
f 9/9/9 35/35/35 37/37/37
f 37/37/37 36/36/36 41/41/41
f 42/42/42 41/41/41 36/36/36
f 37/37/37 43/43/43 9/9/9
f 40/40/40 38/38/38 44/44/44
f 45/45/45 44/44/44 38/38/38
f 38/38/38 33/33/33 45/45/45
f 44/44/44 45/45/45 46/46/46
f 47/47/47 46/46/46 45/45/45
f 47/47/47 45/45/45 48/48/48
f 47/47/47 48/48/48 49/49/49
f 50/50/50 47/47/47 49/49/49
f 51/51/51 49/49/49 48/48/48
f 48/48/48 52/52/52 51/51/51
f 53/53/53 51/51/51 52/52/52
f 53/53/53 52/52/52 54/54/54
f 55/55/55 54/54/54 52/52/52
f 54/54/54 56/56/56 53/53/53
f 57/57/57 53/53/53 56/56/56
f 49/49/49 51/51/51 58/58/58
f 59/59/59 58/58/58 51/51/51
f 57/57/57 59/59/59 53/53/53
f 51/51/51 53/53/53 59/59/59
f 57/57/57 56/56/56 60/60/60
f 57/57/57 60/60/60 59/59/59
f 61/61/61 60/60/60 56/56/56
f 62/62/62 61/61/61 56/56/56
f 63/63/63 59/59/59 60/60/60
f 64/64/64 59/59/59 63/63/63
f 65/65/65 64/64/64 63/63/63
f 63/63/63 60/60/60 65/65/65
f 56/56/56 54/54/54 66/66/66
f 66/66/66 67/67/67 56/56/56
f 67/67/67 62/62/62 56/56/56
f 67/67/67 68/68/68 62/62/62
f 69/69/69 62/62/62 68/68/68
f 70/70/70 62/62/62 69/69/69
f 61/61/61 70/70/70 60/60/60
f 61/61/61 62/62/62 70/70/70
f 69/69/69 68/68/68 71/71/71
f 69/69/69 71/71/71 72/72/72
f 72/72/72 70/70/70 69/69/69
f 70/70/70 72/72/72 73/73/73
f 73/73/73 65/65/65 60/60/60
f 73/73/73 60/60/60 70/70/70
f 65/65/65 73/73/73 74/74/74
f 75/75/75 72/72/72 71/71/71
f 76/76/76 71/71/71 68/68/68
f 71/71/71 77/77/77 75/75/75
f 78/78/78 77/77/77 76/76/76
f 71/71/71 79/79/79 77/77/77
f 80/80/80 75/75/75 77/77/77
f 81/81/81 80/80/80 77/77/77
f 80/80/80 82/82/82 75/75/75
f 83/83/83 75/75/75 82/82/82
f 75/75/75 83/83/83 84/84/84
f 85/85/85 82/82/82 80/80/80
f 87/87/87 74/74/74 86/86/86
f 87/87/87 86/86/86 88/88/88
f 87/87/87 88/88/88 64/64/64
f 89/89/89 64/64/64 88/88/88
f 88/88/88 90/90/90 89/89/89
f 91/91/91 89/89/89 90/90/90
f 90/90/90 92/92/92 91/91/91
f 93/93/93 91/91/91 92/92/92
f 91/91/91 93/93/93 58/58/58
f 91/91/91 58/58/58 89/89/89
f 94/94/94 58/58/58 93/93/93
f 92/92/92 90/90/90 95/95/95
f 93/93/93 92/92/92 96/96/96
f 97/97/97 96/96/96 92/92/92
f 97/97/97 98/98/98 96/96/96
f 90/90/90 88/88/88 99/99/99
f 100/100/100 99/99/99 88/88/88
f 58/58/58 59/59/59 89/89/89
f 89/89/89 59/59/59 64/64/64
f 101/101/101 94/94/94 93/93/93
f 98/98/98 97/97/97 102/102/102
f 103/103/103 102/102/102 97/97/97
f 96/96/96 104/104/104 93/93/93
f 101/101/101 93/93/93 104/104/104
f 104/104/104 96/96/96 105/105/105
f 104/104/104 106/106/106 101/101/101
f 107/107/107 101/101/101 106/106/106
f 58/58/58 94/94/94 49/49/49
f 109/109/109 108/108/108 101/101/101
f 108/108/108 111/111/111 110/110/110
f 113/113/113 110/110/110 112/112/112
f 112/112/112 114/114/114 113/113/113
f 116/116/116 115/115/115 114/114/114
f 117/117/117 115/115/115 116/116/116
f 115/115/115 118/118/118 114/114/114
f 119/119/119 117/117/117 116/116/116
f 120/120/120 117/117/117 119/119/119
f 120/120/120 119/119/119 121/121/121
f 122/122/122 121/121/121 119/119/119
f 123/123/123 94/94/94 110/110/110
f 94/94/94 124/124/124 110/110/110
f 50/50/50 94/94/94 123/123/123
f 50/50/50 49/49/49 94/94/94
f 125/125/125 50/50/50 123/123/123
f 50/50/50 125/125/125 47/47/47
f 46/46/46 47/47/47 125/125/125
f 128/128/128 127/127/127 126/126/126
f 129/129/129 126/126/126 127/127/127
f 127/127/127 128/128/128 130/130/130
f 126/126/126 131/131/131 128/128/128
f 131/131/131 132/132/132 128/128/128
f 128/128/128 132/132/132 133/133/133
f 133/133/133 134/134/134 128/128/128
f 132/132/132 131/131/131 135/135/135
f 135/135/135 136/136/136 132/132/132
f 135/135/135 137/137/137 136/136/136
f 138/138/138 136/136/136 137/137/137
f 139/139/139 132/132/132 136/136/136
f 139/139/139 140/140/140 132/132/132
f 138/138/138 141/141/141 136/136/136
f 142/142/142 136/136/136 141/141/141
f 136/136/136 142/142/142 139/139/139
f 143/143/143 139/139/139 142/142/142
f 143/143/143 140/140/140 139/139/139
f 142/142/142 144/144/144 143/143/143
f 145/145/145 143/143/143 144/144/144
f 145/145/145 140/140/140 143/143/143
f 144/144/144 146/146/146 145/145/145
f 147/147/147 145/145/145 146/146/146
f 146/146/146 144/144/144 148/148/148
f 146/146/146 148/148/148 149/149/149
f 150/150/150 149/149/149 148/148/148
f 151/151/151 148/148/148 144/144/144
f 144/144/144 142/142/142 151/151/151
f 141/141/141 151/151/151 142/142/142
f 141/141/141 152/152/152 151/151/151
f 153/153/153 151/151/151 152/152/152
f 153/153/153 148/148/148 151/151/151
f 153/153/153 154/154/154 148/148/148
f 152/152/152 155/155/155 153/153/153
f 155/155/155 152/152/152 156/156/156
f 155/155/155 156/156/156 157/157/157
f 158/158/158 157/157/157 156/156/156
f 159/159/159 156/156/156 152/152/152
f 156/156/156 159/159/159 158/158/158
f 160/160/160 153/153/153 155/155/155
f 157/157/157 161/161/161 155/155/155
f 154/154/154 155/155/155 161/161/161
f 138/138/138 158/158/158 159/159/159
f 150/150/150 148/148/148 162/162/162
f 163/163/163 162/162/162 148/148/148
f 154/154/154 161/161/161 163/163/163
f 162/162/162 163/163/163 164/164/164
f 161/161/161 165/165/165 163/163/163
f 166/166/166 163/163/163 165/165/165
f 167/167/167 166/166/166 165/165/165
f 167/167/167 168/168/168 166/166/166
f 167/167/167 169/169/169 168/168/168
f 169/169/169 167/167/167 170/170/170
f 169/169/169 170/170/170 171/171/171
f 172/172/172 169/169/169 171/171/171
f 173/173/173 171/171/171 170/170/170
f 170/170/170 174/174/174 173/173/173
f 173/173/173 174/174/174 175/175/175
f 176/176/176 175/175/175 174/174/174
f 170/170/170 177/177/177 174/174/174
f 178/178/178 174/174/174 177/177/177
f 171/171/171 173/173/173 179/179/179
f 180/180/180 179/179/179 173/173/173
f 173/173/173 181/181/181 180/180/180
f 182/182/182 180/180/180 181/181/181
f 180/180/180 182/182/182 183/183/183
f 184/184/184 183/183/183 182/182/182
f 179/179/179 180/180/180 185/185/185
f 183/183/183 185/185/185 180/180/180
f 179/179/179 186/186/186 171/171/171
f 179/179/179 185/185/185 186/186/186
f 187/187/187 186/186/186 185/185/185
f 185/185/185 188/188/188 187/187/187
f 185/185/185 183/183/183 188/188/188
f 189/189/189 187/187/187 188/188/188
f 188/188/188 190/190/190 189/189/189
f 183/183/183 184/184/184 190/190/190
f 190/190/190 188/188/188 183/183/183
f 191/191/191 189/189/189 190/190/190
f 192/192/192 190/190/190 184/184/184
f 178/178/178 177/177/177 193/193/193
f 193/193/193 194/194/194 178/178/178
f 177/177/177 195/195/195 193/193/193
f 177/177/177 196/196/196 195/195/195
f 197/197/197 195/195/195 196/196/196
f 197/197/197 198/198/198 195/195/195
f 199/199/199 195/195/195 198/198/198
f 195/195/195 199/199/199 200/200/200
f 200/200/200 193/193/193 195/195/195
f 196/196/196 201/201/201 197/197/197
f 201/201/201 202/202/202 197/197/197
f 202/202/202 201/201/201 203/203/203
f 204/204/204 197/197/197 202/202/202
f 204/204/204 205/205/205 197/197/197
f 202/202/202 206/206/206 204/204/204
f 207/207/207 204/204/204 206/206/206
f 207/207/207 208/208/208 204/204/204
f 208/208/208 207/207/207 209/209/209
f 210/210/210 209/209/209 207/207/207
f 207/207/207 211/211/211 210/210/210
f 212/212/212 210/210/210 206/206/206
f 210/210/210 213/213/213 209/209/209
f 214/214/214 209/209/209 213/213/213
f 210/210/210 215/215/215 213/213/213
f 215/215/215 206/206/206 216/216/216
f 217/217/217 216/216/216 206/206/206
f 218/218/218 213/213/213 215/215/215
f 218/218/218 219/219/219 213/213/213
f 219/219/219 218/218/218 220/220/220
f 221/221/221 213/213/213 219/219/219
f 223/223/223 222/222/222 208/208/208
f 225/225/225 224/224/224 223/223/223
f 227/227/227 226/226/226 218/218/218
f 230/230/230 229/229/229 228/228/228
f 231/231/231 229/229/229 230/230/230
f 231/231/231 232/232/232 229/229/229
f 233/233/233 229/229/229 232/232/232
f 232/232/232 231/231/231 234/234/234
f 231/231/231 146/146/146 234/234/234
f 230/230/230 146/146/146 231/231/231
f 230/230/230 140/140/140 145/145/145
f 236/236/236 235/235/235 228/228/228
f 238/238/238 237/237/237 201/201/201
f 238/238/238 201/201/201 239/239/239
f 240/240/240 239/239/239 201/201/201
f 240/240/240 241/241/241 239/239/239
f 240/240/240 201/201/201 242/242/242
f 240/240/240 242/242/242 243/243/243
f 244/244/244 243/243/243 242/242/242
f 244/244/244 245/245/245 243/243/243
f 244/244/244 246/246/246 245/245/245
f 246/246/246 244/244/244 196/196/196
f 245/245/245 246/246/246 165/165/165
f 167/167/167 165/165/165 246/246/246
f 246/246/246 170/170/170 167/167/167
f 170/170/170 246/246/246 242/242/242
f 243/243/243 247/247/247 240/240/240
f 243/243/243 248/248/248 247/247/247
f 177/177/177 170/170/170 242/242/242
f 165/165/165 161/161/161 245/245/245
f 157/157/157 245/245/245 161/161/161
f 245/245/245 157/157/157 243/243/243
f 248/248/248 243/243/243 158/158/158
f 158/158/158 243/243/243 157/157/157
f 248/248/248 158/158/158 137/137/137
f 248/248/248 137/137/137 249/249/249
f 137/137/137 135/135/135 249/249/249
f 250/250/250 249/249/249 135/135/135
f 250/250/250 135/135/135 131/131/131
f 138/138/138 137/137/137 158/158/158
f 138/138/138 159/159/159 141/141/141
f 152/152/152 141/141/141 159/159/159
f 252/252/252 200/200/200 251/251/251
f 200/200/200 252/252/252 253/253/253
f 254/254/254 253/253/253 252/252/252
f 253/253/253 254/254/254 255/255/255
f 253/253/253 255/255/255 256/256/256
f 253/253/253 256/256/256 200/200/200
f 257/257/257 256/256/256 255/255/255
f 257/257/257 255/255/255 258/258/258
f 257/257/257 258/258/258 259/259/259
f 260/260/260 259/259/259 258/258/258
f 261/261/261 258/258/258 255/255/255
f 255/255/255 262/262/262 261/261/261
f 262/262/262 255/255/255 263/263/263
f 264/264/264 261/261/261 262/262/262
f 261/261/261 264/264/264 258/258/258
f 265/265/265 258/258/258 264/264/264
f 259/259/259 266/266/266 257/257/257
f 256/256/256 257/257/257 266/266/266
f 256/256/256 266/266/266 193/193/193
f 267/267/267 193/193/193 266/266/266
f 193/193/193 200/200/200 256/256/256
f 268/268/268 178/178/178 267/267/267
f 178/178/178 270/270/270 269/269/269
f 271/271/271 269/269/269 270/270/270
f 269/269/269 271/271/271 272/272/272
f 273/273/273 272/272/272 271/271/271
f 272/272/272 273/273/273 274/274/274
f 275/275/275 274/274/274 273/273/273
f 275/275/275 276/276/276 274/274/274
f 277/277/277 274/274/274 276/276/276
f 274/274/274 277/277/277 272/272/272
f 278/278/278 272/272/272 277/277/277
f 272/272/272 278/278/278 269/269/269
f 278/278/278 277/277/277 279/279/279
f 280/280/280 279/279/279 277/277/277
f 279/279/279 281/281/281 278/278/278
f 282/282/282 278/278/278 281/281/281
f 282/282/282 269/269/269 278/278/278
f 269/269/269 282/282/282 178/178/178
f 282/282/282 281/281/281 174/174/174
f 174/174/174 178/178/178 282/282/282
f 176/176/176 283/283/283 281/281/281
f 286/286/286 285/285/285 284/284/284
f 287/287/287 284/284/284 285/285/285
f 285/285/285 286/286/286 288/288/288
f 289/289/289 288/288/288 286/286/286
f 289/289/289 290/290/290 288/288/288
f 291/291/291 288/288/288 290/290/290
f 291/291/291 290/290/290 292/292/292
f 293/293/293 292/292/292 290/290/290
f 291/291/291 294/294/294 288/288/288
f 295/295/295 288/288/288 294/294/294
f 295/295/295 294/294/294 296/296/296
f 297/297/297 296/296/296 294/294/294
f 292/292/292 298/298/298 291/291/291
f 294/294/294 291/291/291 298/298/298
f 294/294/294 298/298/298 297/297/297
f 292/292/292 299/299/299 298/298/298
f 300/300/300 298/298/298 299/299/299
f 298/298/298 300/300/300 301/301/301
f 302/302/302 301/301/301 300/300/300
f 300/300/300 299/299/299 303/303/303
f 293/293/293 304/304/304 292/292/292
f 299/299/299 292/292/292 304/304/304
f 304/304/304 305/305/305 299/299/299
f 306/306/306 297/297/297 298/298/298
f 295/295/295 307/307/307 288/288/288
f 285/285/285 288/288/288 307/307/307
f 308/308/308 285/285/285 307/307/307
f 308/308/308 309/309/309 285/285/285
f 287/287/287 285/285/285 309/309/309
f 309/309/309 308/308/308 310/310/310
f 309/309/309 310/310/310 311/311/311
f 312/312/312 311/311/311 310/310/310
f 311/311/311 312/312/312 313/313/313
f 314/314/314 313/313/313 312/312/312
f 311/311/311 315/315/315 309/309/309
f 311/311/311 313/313/313 315/315/315
f 315/315/315 287/287/287 309/309/309
f 315/315/315 316/316/316 287/287/287
f 287/287/287 316/316/316 317/317/317
f 318/318/318 317/317/317 316/316/316
f 317/317/317 318/318/318 319/319/319
f 320/320/320 319/319/319 318/318/318
f 319/319/319 320/320/320 321/321/321
f 322/322/322 321/321/321 320/320/320
f 321/321/321 322/322/322 323/323/323
f 324/324/324 323/323/323 322/322/322
f 323/323/323 324/324/324 325/325/325
f 324/324/324 322/322/322 326/326/326
f 326/326/326 327/327/327 324/324/324
f 328/328/328 326/326/326 322/322/322
f 322/322/322 320/320/320 328/328/328
f 323/323/323 329/329/329 321/321/321
f 330/330/330 321/321/321 329/329/329
f 321/321/321 330/330/330 319/319/319
f 331/331/331 328/328/328 320/320/320
f 332/332/332 319/319/319 330/330/330
f 319/319/319 332/332/332 317/317/317
f 331/331/331 320/320/320 333/333/333
f 318/318/318 334/334/334 320/320/320
f 334/334/334 318/318/318 335/335/335
f 336/336/336 335/335/335 318/318/318
f 316/316/316 336/336/336 318/318/318
f 316/316/316 337/337/337 336/336/336
f 338/338/338 336/336/336 337/337/337
f 336/336/336 338/338/338 339/339/339
f 340/340/340 339/339/339 338/338/338
f 340/340/340 341/341/341 339/339/339
f 342/342/342 339/339/339 341/341/341
f 339/339/339 342/342/342 343/343/343
f 335/335/335 336/336/336 343/343/343
f 339/339/339 343/343/343 336/336/336
f 344/344/344 343/343/343 342/342/342
f 342/342/342 341/341/341 345/345/345
f 342/342/342 345/345/345 344/344/344
f 346/346/346 345/345/345 341/341/341
f 346/346/346 347/347/347 345/345/345
f 341/341/341 348/348/348 346/346/346
f 349/349/349 346/346/346 348/348/348
f 350/350/350 345/345/345 349/349/349
f 350/350/350 344/344/344 345/345/345
f 348/348/348 341/341/341 351/351/351
f 340/340/340 351/351/351 341/341/341
f 351/351/351 340/340/340 352/352/352
f 338/338/338 352/352/352 340/340/340
f 338/338/338 353/353/353 352/352/352
f 338/338/338 337/337/337 353/353/353
f 337/337/337 354/354/354 353/353/353
f 355/355/355 353/353/353 354/354/354
f 353/353/353 355/355/355 356/356/356
f 357/357/357 356/356/356 355/355/355
f 357/357/357 358/358/358 356/356/356
f 359/359/359 356/356/356 358/358/358
f 359/359/359 360/360/360 356/356/356
f 361/361/361 356/356/356 360/360/360
f 356/356/356 361/361/361 353/353/353
f 362/362/362 353/353/353 361/361/361
f 355/355/355 363/363/363 357/357/357
f 355/355/355 364/364/364 363/363/363
f 355/355/355 354/354/354 364/364/364
f 364/364/364 354/354/354 365/365/365
f 364/364/364 365/365/365 366/366/366
f 366/366/366 367/367/367 364/364/364
f 367/367/367 366/366/366 368/368/368
f 369/369/369 368/368/368 366/366/366
f 369/369/369 366/366/366 370/370/370
f 371/371/371 370/370/370 366/366/366
f 371/371/371 366/366/366 365/365/365
f 370/370/370 371/371/371 372/372/372
f 373/373/373 372/372/372 371/371/371
f 374/374/374 364/364/364 367/367/367
f 370/370/370 375/375/375 369/369/369
f 376/376/376 369/369/369 375/375/375
f 376/376/376 375/375/375 377/377/377
f 368/368/368 369/369/369 377/377/377
f 376/376/376 377/377/377 369/369/369
f 378/378/378 377/377/377 375/375/375
f 379/379/379 378/378/378 370/370/370
f 375/375/375 370/370/370 380/380/380
f 373/373/373 371/371/371 381/381/381
f 365/365/365 381/381/381 371/371/371
f 365/365/365 382/382/382 381/381/381
f 382/382/382 365/365/365 354/354/354
f 383/383/383 381/381/381 382/382/382
f 382/382/382 384/384/384 383/383/383
f 382/382/382 354/354/354 384/384/384
f 385/385/385 383/383/383 384/384/384
f 386/386/386 384/384/384 354/354/354
f 386/386/386 354/354/354 387/387/387
f 337/337/337 387/387/387 354/354/354
f 387/387/387 337/337/337 315/315/315
f 316/316/316 315/315/315 337/337/337
f 386/386/386 387/387/387 388/388/388
f 313/313/313 388/388/388 387/387/387
f 387/387/387 315/315/315 313/313/313
f 314/314/314 388/388/388 313/313/313
f 388/388/388 314/314/314 389/389/389
f 389/389/389 384/384/384 386/386/386
f 388/388/388 389/389/389 386/386/386
f 390/390/390 389/389/389 314/314/314
f 314/314/314 392/392/392 391/391/391
f 394/394/394 391/391/391 393/393/393
f 396/396/396 393/393/393 395/395/395
f 398/398/398 397/397/397 393/393/393
f 397/397/397 398/398/398 399/399/399
f 400/400/400 399/399/399 398/398/398
f 399/399/399 400/400/400 401/401/401
f 403/403/403 401/401/401 402/402/402
f 403/403/403 402/402/402 404/404/404
f 406/406/406 405/405/405 402/402/402
f 408/408/408 402/402/402 407/407/407
f 408/408/408 407/407/407 409/409/409
f 411/411/411 404/404/404 410/410/410
f 413/413/413 317/317/317 412/412/412
f 317/317/317 413/413/413 287/287/287
f 415/415/415 287/287/287 414/414/414
f 418/418/418 417/417/417 416/416/416
f 420/420/420 171/171/171 419/419/419
f 420/420/420 421/421/421 171/171/171
f 422/422/422 171/171/171 421/421/421
f 424/424/424 169/169/169 423/423/423
f 172/172/172 423/423/423 169/169/169
f 424/424/424 423/423/423 425/425/425
f 425/425/425 423/423/423 426/426/426
f 427/427/427 426/426/426 423/423/423
f 423/423/423 172/172/172 427/427/427
f 427/427/427 428/428/428 426/426/426
f 429/429/429 426/426/426 428/428/428
f 427/427/427 430/430/430 428/428/428
f 430/430/430 427/427/427 172/172/172
f 172/172/172 431/431/431 430/430/430
f 432/432/432 430/430/430 431/431/431
f 430/430/430 432/432/432 433/433/433
f 433/433/433 428/428/428 430/430/430
f 434/434/434 433/433/433 432/432/432
f 428/428/428 433/433/433 435/435/435
f 428/428/428 435/435/435 429/429/429
f 436/436/436 435/435/435 433/433/433
f 433/433/433 434/434/434 436/436/436
f 435/435/435 436/436/436 437/437/437
f 438/438/438 437/437/437 436/436/436
f 439/439/439 436/436/436 434/434/434
f 441/441/441 440/440/440 435/435/435
f 444/444/444 443/443/443 442/442/442
f 445/445/445 357/357/357 363/363/363
f 445/445/445 446/446/446 357/357/357
f 358/358/358 357/357/357 446/446/446
f 446/446/446 447/447/447 358/358/358
f 448/448/448 358/358/358 447/447/447
f 358/358/358 448/448/448 359/359/359
f 449/449/449 359/359/359 448/448/448
f 449/449/449 448/448/448 450/450/450
f 449/449/449 451/451/451 359/359/359
f 453/453/453 452/452/452 448/448/448
f 360/360/360 359/359/359 454/454/454
f 202/202/202 456/456/456 455/455/455
f 458/458/458 455/455/455 457/457/457
f 163/163/163 148/148/148 459/459/459
f 462/462/462 461/461/461 460/460/460
f 463/463/463 460/460/460 461/461/461
f 460/460/460 463/463/463 464/464/464
f 460/460/460 465/465/465 462/462/462
f 466/466/466 460/460/460 464/464/464
f 466/466/466 464/464/464 66/66/66
f 466/466/466 66/66/66 54/54/54
f 464/464/464 467/467/467 66/66/66
f 463/463/463 467/467/467 464/464/464
f 467/467/467 67/67/67 66/66/66
f 467/467/467 468/468/468 67/67/67
f 68/68/68 67/67/67 468/468/468
f 469/469/469 468/468/468 467/467/467
f 468/468/468 470/470/470 68/68/68
f 469/469/469 471/471/471 468/468/468
f 469/469/469 472/472/472 471/471/471
f 473/473/473 471/471/471 472/472/472
f 474/474/474 468/468/468 471/471/471
f 475/475/475 68/68/68 474/474/474
f 54/54/54 55/55/55 466/466/466
f 476/476/476 466/466/466 55/55/55
f 466/466/466 476/476/476 477/477/477
f 478/478/478 477/477/477 476/476/476
f 476/476/476 28/28/28 478/478/478
f 479/479/479 478/478/478 28/28/28
f 477/477/477 460/460/460 466/466/466
f 55/55/55 29/29/29 476/476/476
f 28/28/28 476/476/476 29/29/29
f 29/29/29 55/55/55 480/480/480
f 52/52/52 480/480/480 55/55/55
f 52/52/52 48/48/48 480/480/480
f 481/481/481 480/480/480 48/48/48
f 481/481/481 48/48/48 45/45/45
f 481/481/481 45/45/45 33/33/33
f 481/481/481 33/33/33 480/480/480
f 31/31/31 480/480/480 33/33/33
f 480/480/480 31/31/31 29/29/29
f 28/28/28 24/24/24 479/479/479
f 26/26/26 479/479/479 24/24/24
f 484/484/484 483/483/483 482/482/482
f 483/483/483 484/484/484 485/485/485
f 487/487/487 482/482/482 486/486/486
f 487/487/487 488/488/488 482/482/482
f 490/490/490 489/489/489 484/484/484
f 489/489/489 490/490/490 491/491/491
f 492/492/492 491/491/491 490/490/490
f 424/424/424 493/493/493 169/169/169
f 495/495/495 493/493/493 494/494/494
f 496/496/496 495/495/495 494/494/494
f 498/498/498 495/495/495 497/497/497
f 500/500/500 499/499/499 90/90/90
f 502/502/502 501/501/501 499/499/499
f 92/92/92 499/499/499 501/501/501
f 501/501/501 97/97/97 92/92/92
f 503/503/503 88/88/88 86/86/86
f 505/505/505 503/503/503 504/504/504
f 506/506/506 86/86/86 74/74/74
f 86/86/86 506/506/506 507/507/507
f 508/508/508 507/507/507 506/506/506
f 508/508/508 509/509/509 507/507/507
f 86/86/86 507/507/507 510/510/510
f 506/506/506 511/511/511 508/508/508
f 506/506/506 512/512/512 511/511/511
f 513/513/513 511/511/511 512/512/512
f 514/514/514 508/508/508 511/511/511
f 514/514/514 515/515/515 508/508/508
f 507/507/507 517/517/517 516/516/516
f 516/516/516 519/519/519 518/518/518
f 518/518/518 520/520/520 516/516/516
f 510/510/510 521/521/521 520/520/520
f 523/523/523 522/522/522 507/507/507
f 526/526/526 525/525/525 524/524/524
f 528/528/528 527/527/527 73/73/73
f 528/528/528 529/529/529 527/527/527
f 528/528/528 73/73/73 530/530/530
f 532/532/532 527/527/527 531/531/531
f 528/528/528 72/72/72 531/531/531
f 533/533/533 531/531/531 72/72/72
f 535/535/535 534/534/534 83/83/83
f 68/68/68 537/537/537 536/536/536
f 538/538/538 536/536/536 537/537/537
f 536/536/536 538/538/538 539/539/539
f 541/541/541 540/540/540 538/538/538
f 542/542/542 540/540/540 541/541/541
f 544/544/544 77/77/77 543/543/543
f 546/546/546 545/545/545 469/469/469
f 547/547/547 469/469/469 545/545/545
f 546/546/546 469/469/469 467/467/467
f 546/546/546 467/467/467 463/463/463
f 546/546/546 463/463/463 548/548/548
f 548/548/548 549/549/549 546/546/546
f 551/551/551 546/546/546 550/550/550
f 551/551/551 550/550/550 552/552/552
f 553/553/553 545/545/545 550/550/550
f 545/545/545 553/553/553 554/554/554
f 555/555/555 554/554/554 553/553/553
f 557/557/557 545/545/545 556/556/556
f 560/560/560 559/559/559 558/558/558
f 561/561/561 559/559/559 560/560/560
f 562/562/562 561/561/561 560/560/560
f 565/565/565 564/564/564 563/563/563
f 563/563/563 564/564/564 566/566/566
f 568/568/568 564/564/564 567/567/567
f 569/569/569 310/310/310 308/308/308
f 570/570/570 569/569/569 308/308/308
f 572/572/572 571/571/571 108/108/108
f 575/575/575 574/574/574 573/573/573
f 461/461/461 577/577/577 576/576/576
f 74/74/74 87/87/87 65/65/65
f 87/87/87 64/64/64 65/65/65
f 15/15/15 9/9/9 578/578/578
f 25/25/25 22/22/22 579/579/579
f 20/20/20 580/580/580 22/22/22
