mtllib blue_war_f_pve_1_boots.mtl
o blue_war_f_pve_1_boots
usemtl blue_war_f_pve_1_boots
v -0.230982 0.251782 -0.016258
v -0.268346 0.370433 -0.022661
v -0.221057 0.378438 0.013173
v -0.261475 0.244205 -0.045525
v -0.191140 0.243595 -0.027727
v -0.166201 0.364753 -0.016202
v -0.131185 0.346263 -0.052895
v -0.168646 0.226828 -0.055135
v -0.135804 0.274070 -0.090191
v -0.160260 0.213359 -0.081377
v -0.301293 0.353964 -0.084884
v -0.269578 0.229443 -0.076831
v -0.291532 0.281111 -0.133078
v -0.275121 0.210928 -0.113894
v -0.310474 0.151361 -0.067610
v -0.291236 0.188773 -0.006929
v -0.242571 0.199331 0.025564
v -0.188894 0.180725 0.012638
v -0.275121 0.210928 -0.113894
v -0.150867 0.147410 -0.025955
v -0.175299 0.143425 -0.040968
v -0.173359 0.211947 -0.091676
v -0.171278 0.121619 -0.088736
v -0.166516 0.175981 -0.157423
v -0.174572 0.218127 -0.145381
v -0.207951 0.221157 -0.169339
v -0.207742 0.178884 -0.187931
v -0.168567 0.287486 -0.136897
v -0.158547 0.304026 -0.090688
v -0.146972 0.352885 -0.137740
v -0.209588 0.280548 -0.158260
v -0.193164 0.356048 -0.171451
v -0.156872 0.338606 -0.072416
v -0.167258 0.131113 -0.161199
v -0.208418 0.134288 -0.190968
v -0.190217 0.076688 -0.144369
v -0.177864 0.091054 -0.133436
v -0.145521 0.088764 -0.122292
v -0.154749 0.119227 -0.077331
v -0.208350 0.088838 -0.167190
v -0.209012 0.041360 -0.163718
v -0.192443 0.038379 -0.143668
v -0.193452 0.063255 -0.108077
v -0.195062 0.032974 -0.119775
v -0.194216 -0.000213 -0.125184
v -0.192417 0.000061 -0.148991
v -0.207026 -0.000045 -0.164181
v -0.209012 0.041360 -0.163718
v -0.193452 0.063255 -0.108077
v -0.145521 0.088764 -0.122292
v -0.193452 0.063255 -0.108077
v -0.157401 0.032954 -0.092803
v -0.166747 0.065696 -0.040208
v -0.198412 0.093702 -0.007918
v -0.197871 0.153090 -0.025786
v -0.150867 0.147410 -0.025955
v -0.231928 0.161295 -0.019410
v -0.261683 0.160498 -0.034111
v -0.289226 0.145753 -0.064930
v -0.264419 0.215557 -0.116455
v -0.281502 0.101863 -0.018210
v -0.308486 0.079569 -0.064523
v -0.243047 0.108667 0.004968
v -0.290887 0.125500 -0.106569
v -0.301759 0.046675 -0.120782
v -0.315636 0.057365 -0.057354
v -0.297031 0.028188 -0.101705
v -0.308004 0.066838 0.018378
v -0.285258 0.075783 0.036057
v -0.253245 0.097177 0.023922
v -0.288605 0.042643 0.055330
v -0.307558 0.025790 0.041249
v -0.265742 0.060459 0.064938
v -0.266168 0.047714 0.066750
v -0.271481 -0.000221 0.072915
v -0.245345 0.043412 0.065467
v -0.319396 -0.000203 0.030172
v -0.327168 0.045754 0.003004
v -0.338585 -0.000221 -0.020895
v -0.317145 -0.000217 -0.095334
v -0.226048 0.024340 0.060462
v -0.216513 -0.000339 0.056153
v -0.194889 0.031951 0.030142
v -0.213101 0.058742 0.043795
v -0.172470 0.045022 -0.030732
v -0.158626 -0.000427 -0.055303
v -0.185972 -0.000423 0.017644
v -0.216513 -0.000339 0.056153
v -0.233173 0.075680 0.049555
v -0.253245 0.097177 0.023922
v -0.172171 0.024406 -0.070642
v -0.157401 0.032954 -0.092803
v -0.172171 0.024406 -0.070642
v -0.265742 0.060459 0.064938
v -0.264878 0.124866 0.072364
v -0.253245 0.097177 0.023922
v -0.157401 0.032954 -0.092803
v -0.145521 0.088764 -0.122292
v -0.275121 0.210928 -0.113894
v -0.275997 0.284308 -0.134982
v -0.291532 0.281111 -0.133078
v -0.310474 0.151361 -0.067610
v -0.308302 0.345556 -0.138441
v -0.242838 0.288385 -0.144881
v -0.240219 0.217313 -0.153463
v -0.265666 0.320590 -0.105003
v -0.255287 0.356179 -0.144547
v -0.209588 0.280548 -0.158260
v -0.193164 0.356048 -0.171451
v -0.266268 0.372203 -0.090768
v -0.207951 0.221157 -0.169339
v -0.207742 0.178884 -0.187931
v -0.247071 0.175869 -0.168750
v -0.272127 0.122307 -0.109828
v -0.208418 0.134288 -0.190968
v -0.248679 0.131762 -0.171171
v -0.208350 0.088838 -0.167190
v -0.232994 0.076870 -0.151983
v -0.249653 0.093224 -0.145207
v -0.277826 0.096164 -0.147804
v -0.250830 0.066249 -0.121534
v -0.301759 0.046675 -0.120782
v -0.301759 0.046675 -0.120782
v -0.209012 0.041360 -0.163718
v -0.229439 0.038902 -0.150505
v -0.242252 0.034356 -0.131126
v -0.238485 -0.000105 -0.137161
v -0.226259 -0.000061 -0.155689
v -0.207026 -0.000045 -0.164181
v -0.226259 -0.000061 -0.155689
v -0.209012 0.041360 -0.163718
v -0.223730 0.634849 0.041888
v -0.190523 0.600848 -0.011909
v -0.175247 0.627573 0.054602
v -0.214629 0.605766 -0.033617
v -0.162375 0.597833 -0.012171
v -0.207328 0.606346 0.053005
v -0.178867 0.619462 0.058948
v -0.211826 0.571561 0.058820
v -0.239217 0.541439 0.049437
v -0.252873 0.622475 -0.018568
v -0.265583 0.616276 -0.089406
v -0.229739 0.611627 -0.065101
v -0.272892 0.548669 -0.022242
v -0.282432 0.553104 -0.089938
v -0.262581 0.610509 -0.154143
v -0.278288 0.549126 -0.151236
v -0.236197 0.607285 -0.155258
v -0.250408 0.544884 -0.154112
v -0.258399 0.540377 -0.022218
v -0.266735 0.544981 -0.094856
v -0.188778 0.552926 0.066811
v -0.189935 0.535063 0.061596
v -0.194108 0.492903 0.021372
v -0.239134 0.492836 0.006460
v -0.199361 0.433447 -0.011556
v -0.250342 0.437226 -0.033086
v -0.151516 0.478968 0.009278
v -0.143715 0.422187 -0.035717
v -0.262377 0.516202 -0.022186
v -0.138279 0.522917 0.054715
v -0.115627 0.492174 -0.024080
v -0.116680 0.409293 -0.088063
v -0.114747 0.513822 -0.017906
v -0.101619 0.509046 -0.086343
v -0.209059 0.387705 -0.025272
v -0.246575 0.383837 -0.050721
v -0.145990 0.357500 -0.083616
v -0.163732 0.371480 -0.045809
v -0.146972 0.352885 -0.137740
v -0.123837 0.403578 -0.144455
v -0.109595 0.459520 -0.133260
v -0.102877 0.459169 -0.087203
v -0.193164 0.356048 -0.171451
v -0.140708 0.481093 -0.157955
v -0.198212 0.463347 -0.185776
v -0.192147 0.410035 -0.178941
v -0.193164 0.356048 -0.171451
v -0.107899 0.515462 -0.122066
v -0.088016 0.522903 -0.168073
v -0.076855 0.516262 -0.079013
v -0.081176 0.582211 -0.167787
v -0.071201 0.588286 -0.078705
v -0.095282 0.517595 -0.006892
v -0.086039 0.596257 -0.005000
v -0.126916 0.619063 0.046733
v -0.144356 0.598595 -0.028652
v -0.153313 0.599080 0.058126
v -0.158402 0.565086 0.065828
v -0.188778 0.552926 0.066811
v -0.178867 0.619462 0.058948
v -0.127998 0.601122 -0.067212
v -0.110986 0.592157 -0.094639
v -0.110986 0.592157 -0.094639
v -0.105268 0.586882 -0.165162
v -0.109815 0.522352 -0.164379
v -0.105268 0.586882 -0.165162
v -0.081176 0.582211 -0.167787
v -0.088016 0.522903 -0.168073
v -0.105268 0.586882 -0.165162
v -0.126988 0.531411 -0.118178
v -0.110986 0.592157 -0.094639
v -0.109815 0.522352 -0.164379
v -0.152445 0.512352 -0.144385
v -0.191740 0.506507 -0.153976
v -0.135688 0.600710 -0.129582
v -0.175134 0.606754 -0.148224
v -0.191740 0.506507 -0.153976
v -0.198212 0.463347 -0.185776
v -0.110986 0.592157 -0.094639
v -0.137629 0.608121 -0.107813
v -0.163347 0.614105 -0.123658
v -0.175134 0.606754 -0.148224
v -0.107899 0.515462 -0.122066
v -0.110986 0.592157 -0.094639
v -0.127998 0.601122 -0.067212
v -0.175134 0.606754 -0.148224
v -0.192631 0.616834 -0.119364
v -0.217935 0.610465 -0.134656
v -0.163347 0.614105 -0.123658
v -0.217096 0.615972 -0.098089
v -0.232235 0.513784 -0.144395
v -0.191740 0.506507 -0.153976
v -0.248931 0.552019 -0.098155
v -0.266735 0.544981 -0.094856
v -0.261375 0.483115 -0.155156
v -0.191740 0.506507 -0.153976
v -0.198212 0.463347 -0.185776
v -0.237021 0.610867 -0.095393
v -0.237021 0.610867 -0.095393
v -0.229739 0.611627 -0.065101
v -0.274351 0.426560 -0.097975
v -0.274603 0.501145 -0.088530
v -0.260358 0.417711 -0.157100
v -0.198212 0.463347 -0.185776
v -0.192147 0.410035 -0.178941
v -0.255287 0.356179 -0.144547
v -0.266268 0.372203 -0.090768
v -0.193164 0.356048 -0.171451
v -0.193164 0.356048 -0.171451
v -0.250408 0.544884 -0.154112
v -0.248931 0.552019 -0.098155
v -0.237021 0.610867 -0.095393
v -0.236197 0.607285 -0.155258
v -0.246575 0.383837 -0.050721
v -0.209059 0.387705 -0.025272
v -0.163732 0.371480 -0.045809
v -0.142749 0.357469 -0.069635
v -0.109427 0.329276 -0.084820
v -0.121546 0.339536 -0.101069
v -0.266268 0.372203 -0.090768
v -0.286250 0.354626 -0.144586
v -0.308302 0.345556 -0.138441
v -0.147255 0.277670 -0.102432
v -0.121546 0.339536 -0.101069
v -0.158547 0.304026 -0.090688
v -0.121546 0.339536 -0.101069
v -0.156872 0.338606 -0.072416
v -0.142749 0.357469 -0.069635
v -0.163732 0.371480 -0.045809
v -0.286250 0.354626 -0.144586
v -0.286250 0.354626 -0.144586
v -0.265666 0.320590 -0.105003
v -0.266268 0.372203 -0.090768
v -0.264419 0.215557 -0.116455
v -0.163732 0.371480 -0.045809
v -0.145990 0.357500 -0.083616
v -0.178867 0.619462 0.058948
v -0.201887 0.613510 0.086821
v -0.207328 0.606346 0.053005
v -0.180411 0.622743 0.087448
v -0.204832 0.590494 0.096340
v -0.211826 0.571561 0.058820
v -0.188778 0.552926 0.066811
v -0.187246 0.578264 0.103490
v -0.196212 0.640542 0.142647
v -0.176318 0.647569 0.139818
v -0.174317 0.673678 0.176183
v -0.186511 0.670048 0.178617
v -0.198346 0.622494 0.153927
v -0.187643 0.662298 0.188697
v -0.181797 0.612436 0.159748
v -0.177486 0.657471 0.193343
v -0.159542 0.634543 0.140880
v -0.164274 0.666410 0.177546
v -0.165471 0.658882 0.188776
v -0.161760 0.617367 0.153094
v -0.177486 0.657471 0.193343
v -0.181797 0.612436 0.159748
v -0.169931 0.707599 0.206254
v -0.169931 0.707599 0.206254
v -0.187246 0.578264 0.103490
v -0.164855 0.585757 0.099420
v -0.158402 0.565086 0.065828
v -0.188778 0.552926 0.066811
v -0.153313 0.599080 0.058126
v -0.161610 0.607931 0.088699
v -0.178867 0.619462 0.058948
v -0.250830 0.066249 -0.121534
v -0.157401 0.032954 -0.092803
v -0.193452 0.063255 -0.108077
v -0.301759 0.046675 -0.120782
v -0.297031 0.028188 -0.101705
v -0.157401 0.032954 -0.092803
v -0.297031 0.028188 -0.101705
v -0.172171 0.024406 -0.070642
v -0.158626 -0.000427 -0.055303
v -0.317145 -0.000217 -0.095334
v -0.317145 -0.000217 -0.095334
v -0.185972 -0.000423 0.017644
v -0.338585 -0.000221 -0.020895
v -0.319396 -0.000203 0.030172
v -0.216513 -0.000339 0.056153
v -0.271481 -0.000221 0.072915
v -0.193452 0.063255 -0.108077
v -0.242252 0.034356 -0.131126
v -0.250830 0.066249 -0.121534
v -0.195062 0.032974 -0.119775
v -0.238485 -0.000105 -0.137161
v -0.194216 -0.000213 -0.125184
v -0.226259 -0.000061 -0.155689
v -0.238485 -0.000105 -0.137161
v -0.192417 0.000061 -0.148991
v -0.207026 -0.000045 -0.164181
v -0.253245 0.097177 0.023922
v -0.264878 0.124866 0.072364
v -0.265742 0.060459 0.064938
v -0.297031 0.028188 -0.101705
v -0.237021 0.610867 -0.095393
v -0.237021 0.610867 -0.095393
v -0.236197 0.607285 -0.155258
v 0.230982 0.251782 -0.016258
v 0.268346 0.370433 -0.022661
v 0.261475 0.244205 -0.045525
v 0.221057 0.378438 0.013173
v 0.191140 0.243595 -0.027727
v 0.166201 0.364753 -0.016202
v 0.131185 0.346263 -0.052895
v 0.168646 0.226828 -0.055135
v 0.135804 0.274070 -0.090191
v 0.160260 0.213359 -0.081377
v 0.301293 0.353964 -0.084884
v 0.269578 0.229443 -0.076831
v 0.291532 0.281111 -0.133078
v 0.275121 0.210928 -0.113894
v 0.310474 0.151361 -0.067610
v 0.291236 0.188773 -0.006929
v 0.242571 0.199331 0.025564
v 0.188894 0.180725 0.012638
v 0.275121 0.210928 -0.113894
v 0.150867 0.147410 -0.025955
v 0.175299 0.143425 -0.040968
v 0.173359 0.211947 -0.091676
v 0.171278 0.121619 -0.088736
v 0.166516 0.175981 -0.157423
v 0.174572 0.218127 -0.145381
v 0.207951 0.221157 -0.169339
v 0.207742 0.178884 -0.187931
v 0.168567 0.287486 -0.136897
v 0.158547 0.304026 -0.090688
v 0.146972 0.352885 -0.137740
v 0.209588 0.280548 -0.158260
v 0.193164 0.356048 -0.171451
v 0.156872 0.338606 -0.072416
v 0.167258 0.131113 -0.161199
v 0.208418 0.134288 -0.190968
v 0.190217 0.076688 -0.144369
v 0.177864 0.091054 -0.133436
v 0.145521 0.088764 -0.122292
v 0.154749 0.119227 -0.077331
v 0.208350 0.088838 -0.167190
v 0.209012 0.041360 -0.163718
v 0.192443 0.038379 -0.143668
v 0.193452 0.063255 -0.108077
v 0.195062 0.032974 -0.119775
v 0.194216 -0.000213 -0.125184
v 0.192417 0.000061 -0.148991
v 0.193452 0.063255 -0.108077
v 0.145521 0.088764 -0.122292
v 0.145990 0.357500 -0.083616
v 0.163732 0.371480 -0.045809
v 0.193452 0.063255 -0.108077
v 0.157401 0.032954 -0.092803
v 0.166747 0.065696 -0.040208
v 0.198412 0.093702 -0.007918
v 0.197871 0.153090 -0.025786
v 0.150867 0.147410 -0.025955
v 0.231928 0.161295 -0.019410
v 0.261683 0.160498 -0.034111
v 0.289226 0.145753 -0.064930
v 0.264419 0.215557 -0.116455
v 0.281502 0.101863 -0.018210
v 0.308486 0.079569 -0.064523
v 0.243047 0.108667 0.004968
v 0.290887 0.125500 -0.106569
v 0.301759 0.046675 -0.120782
v 0.315636 0.057365 -0.057354
v 0.297031 0.028188 -0.101705
v 0.308004 0.066838 0.018378
v 0.285258 0.075783 0.036057
v 0.253245 0.097177 0.023922
v 0.288605 0.042643 0.055330
v 0.307558 0.025790 0.041249
v 0.265742 0.060459 0.064938
v 0.266168 0.047714 0.066750
v 0.271481 -0.000221 0.072915
v 0.245345 0.043412 0.065467
v 0.319396 -0.000203 0.030172
v 0.327168 0.045754 0.003004
v 0.338585 -0.000221 -0.020895
v 0.317145 -0.000217 -0.095334
v 0.338585 -0.000221 -0.020895
v 0.226048 0.024340 0.060462
v 0.216513 -0.000339 0.056153
v 0.194889 0.031951 0.030142
v 0.185972 -0.000423 0.017644
v 0.158626 -0.000427 -0.055303
v 0.172470 0.045022 -0.030732
v 0.213101 0.058742 0.043795
v 0.233173 0.075680 0.049555
v 0.253245 0.097177 0.023922
v 0.172171 0.024406 -0.070642
v 0.158626 -0.000427 -0.055303
v 0.157401 0.032954 -0.092803
v 0.172171 0.024406 -0.070642
v 0.145521 0.088764 -0.122292
v 0.157401 0.032954 -0.092803
v 0.264878 0.124866 0.072364
v 0.265742 0.060459 0.064938
v 0.253245 0.097177 0.023922
v 0.275121 0.210928 -0.113894
v 0.275997 0.284308 -0.134982
v 0.291532 0.281111 -0.133078
v 0.310474 0.151361 -0.067610
v 0.308302 0.345556 -0.138441
v 0.242838 0.288385 -0.144881
v 0.240219 0.217313 -0.153463
v 0.265666 0.320590 -0.105003
v 0.255287 0.356179 -0.144547
v 0.209588 0.280548 -0.158260
v 0.193164 0.356048 -0.171451
v 0.266268 0.372203 -0.090768
v 0.207951 0.221157 -0.169339
v 0.207742 0.178884 -0.187931
v 0.247071 0.175869 -0.168750
v 0.272127 0.122307 -0.109828
v 0.208418 0.134288 -0.190968
v 0.248679 0.131762 -0.171171
v 0.208350 0.088838 -0.167190
v 0.232994 0.076870 -0.151983
v 0.249653 0.093224 -0.145207
v 0.277826 0.096164 -0.147804
v 0.250830 0.066249 -0.121534
v 0.301759 0.046675 -0.120782
v 0.301759 0.046675 -0.120782
v 0.209012 0.041360 -0.163718
v 0.229439 0.038902 -0.150505
v 0.242252 0.034356 -0.131126
v 0.238485 -0.000105 -0.137161
v 0.226259 -0.000061 -0.155689
v 0.207026 -0.000045 -0.164181
v 0.209012 0.041360 -0.163718
v 0.223730 0.634849 0.041888
v 0.190523 0.600848 -0.011909
v 0.214629 0.605766 -0.033617
v 0.175247 0.627573 0.054602
v 0.162375 0.597833 -0.012171
v 0.207328 0.606346 0.053005
v 0.178867 0.619462 0.058948
v 0.211826 0.571561 0.058820
v 0.239217 0.541439 0.049437
v 0.253200 0.622475 -0.018568
v 0.263086 0.615440 -0.089406
v 0.229739 0.611627 -0.065101
v 0.274184 0.550828 -0.022242
v 0.280900 0.552267 -0.089938
v 0.260084 0.610509 -0.154143
v 0.276756 0.549126 -0.151236
v 0.234818 0.607285 -0.155258
v 0.188778 0.552926 0.066811
v 0.189935 0.535063 0.061596
v 0.194108 0.492903 0.021372
v 0.239134 0.492836 0.006460
v 0.199361 0.433447 -0.011556
v 0.246157 0.437226 -0.033086
v 0.151516 0.478968 0.009278
v 0.143715 0.422187 -0.035717
v 0.262377 0.518784 -0.022186
v 0.275857 0.507933 -0.083680
v 0.138279 0.522917 0.054715
v 0.116287 0.490637 -0.024080
v 0.209059 0.387705 -0.025272
v 0.246575 0.383837 -0.050721
v 0.163732 0.371480 -0.045809
v 0.145990 0.357500 -0.083616
v 0.119301 0.409293 -0.088063
v 0.104471 0.459169 -0.087203
v 0.111190 0.459520 -0.133260
v 0.126458 0.403578 -0.144455
v 0.146972 0.352885 -0.137740
v 0.193164 0.356048 -0.171451
v 0.265057 0.544981 -0.094856
v 0.258995 0.485560 -0.155156
v 0.277169 0.428190 -0.097975
v 0.266268 0.372203 -0.090768
v 0.255287 0.356179 -0.144547
v 0.260358 0.417711 -0.157100
v 0.198212 0.463347 -0.185776
v 0.193164 0.356048 -0.171451
v 0.192147 0.410035 -0.178941
v 0.140708 0.481093 -0.157955
v 0.198212 0.463347 -0.185776
v 0.192147 0.410035 -0.178941
v 0.191740 0.506507 -0.153976
v 0.152445 0.512352 -0.144385
v 0.120536 0.531411 -0.118178
v 0.108559 0.515462 -0.122066
v 0.135688 0.600710 -0.129582
v 0.175134 0.606754 -0.148224
v 0.191740 0.506507 -0.153976
v 0.109736 0.592157 -0.094639
v 0.137629 0.608121 -0.107813
v 0.163347 0.614105 -0.123658
v 0.175134 0.606754 -0.148224
v 0.113842 0.522352 -0.164379
v 0.107387 0.586882 -0.165162
v 0.109736 0.592157 -0.094639
v 0.088675 0.522903 -0.168073
v 0.102278 0.509046 -0.086343
v 0.115986 0.511026 -0.017334
v 0.095941 0.517595 -0.006892
v 0.089481 0.596257 -0.005000
v 0.074643 0.588286 -0.078705
v 0.077514 0.516262 -0.079013
v 0.084618 0.582211 -0.167787
v 0.126916 0.619063 0.046733
v 0.144356 0.598595 -0.028652
v 0.088675 0.522903 -0.168073
v 0.153313 0.599080 0.058126
v 0.127998 0.601122 -0.067212
v 0.109736 0.592157 -0.094639
v 0.109736 0.592157 -0.094639
v 0.107387 0.586882 -0.165162
v 0.158402 0.565086 0.065828
v 0.153313 0.599080 0.058126
v 0.158402 0.565086 0.065828
v 0.113842 0.522352 -0.164379
v 0.175134 0.606754 -0.148224
v 0.192631 0.616834 -0.119364
v 0.163347 0.614105 -0.123658
v 0.175134 0.606754 -0.148224
v 0.217935 0.610465 -0.134656
v 0.217096 0.615972 -0.098089
v 0.232269 0.610867 -0.095393
v 0.229739 0.611627 -0.065101
v 0.175134 0.606754 -0.148224
v 0.231330 0.513784 -0.141288
v 0.191740 0.506507 -0.153976
v 0.248931 0.552019 -0.098155
v 0.265057 0.544981 -0.094856
v 0.198212 0.463347 -0.185776
v 0.191740 0.506507 -0.153976
v 0.232269 0.610867 -0.095393
v 0.253781 0.544884 -0.154112
v 0.232269 0.610867 -0.095393
v 0.234818 0.607285 -0.155258
v 0.234818 0.607285 -0.155258
v 0.256698 0.542341 -0.022217
v 0.198212 0.463347 -0.185776
v 0.192147 0.410035 -0.178941
v 0.246575 0.383837 -0.050721
v 0.209059 0.387705 -0.025272
v 0.163732 0.371480 -0.045809
v 0.142749 0.357469 -0.069635
v 0.109427 0.329276 -0.084820
v 0.121546 0.339536 -0.101069
v 0.266268 0.372203 -0.090768
v 0.286250 0.354626 -0.144586
v 0.308302 0.345556 -0.138441
v 0.147255 0.277670 -0.102432
v 0.121546 0.339536 -0.101069
v 0.158547 0.304026 -0.090688
v 0.121546 0.339536 -0.101069
v 0.156872 0.338606 -0.072416
v 0.142749 0.357469 -0.069635
v 0.163732 0.371480 -0.045809
v 0.286250 0.354626 -0.144586
v 0.286250 0.354626 -0.144586
v 0.265666 0.320590 -0.105003
v 0.266268 0.372203 -0.090768
v 0.264419 0.215557 -0.116455
v 0.193164 0.356048 -0.171451
v 0.192147 0.410035 -0.178941
v 0.178867 0.619462 0.058948
v 0.201887 0.613510 0.086821
v 0.180411 0.622743 0.087448
v 0.207328 0.606346 0.053005
v 0.161610 0.607931 0.088699
v 0.153313 0.599080 0.058126
v 0.164855 0.585757 0.099420
v 0.196212 0.640542 0.142647
v 0.176318 0.647569 0.139818
v 0.174317 0.673678 0.176183
v 0.186511 0.670048 0.178617
v 0.198346 0.622494 0.153927
v 0.187643 0.662298 0.188697
v 0.181797 0.612436 0.159748
v 0.177486 0.657471 0.193343
v 0.159542 0.634543 0.140880
v 0.164274 0.666410 0.177546
v 0.165471 0.658882 0.188776
v 0.161760 0.617367 0.153094
v 0.177486 0.657471 0.193343
v 0.181797 0.612436 0.159748
v 0.169931 0.707599 0.206254
v 0.169931 0.707599 0.206254
v 0.169931 0.707599 0.206254
v 0.169931 0.707599 0.206254
v 0.177486 0.657471 0.193343
v 0.187246 0.578264 0.103490
v 0.204832 0.590494 0.096340
v 0.188778 0.552926 0.066811
v 0.211826 0.571561 0.058820
v 0.207328 0.606346 0.053005
v 0.187246 0.578264 0.103490
v 0.158402 0.565086 0.065828
v 0.188778 0.552926 0.066811
v 0.153313 0.599080 0.058126
v 0.158402 0.565086 0.065828
v 0.169931 0.707599 0.206254
v 0.250830 0.066249 -0.121534
v 0.157401 0.032954 -0.092803
v 0.301759 0.046675 -0.120782
v 0.297031 0.028188 -0.101705
v 0.172171 0.024406 -0.070642
v 0.157401 0.032954 -0.092803
v 0.193452 0.063255 -0.108077
v 0.158626 -0.000427 -0.055303
v 0.172171 0.024406 -0.070642
v 0.317145 -0.000217 -0.095334
v 0.185972 -0.000423 0.017644
v 0.338585 -0.000221 -0.020895
v 0.158626 -0.000427 -0.055303
v 0.319396 -0.000203 0.030172
v 0.216513 -0.000339 0.056153
v 0.271481 -0.000221 0.072915
v 0.193452 0.063255 -0.108077
v 0.242252 0.034356 -0.131126
v 0.195062 0.032974 -0.119775
v 0.250830 0.066249 -0.121534
v 0.238485 -0.000105 -0.137161
v 0.194216 -0.000213 -0.125184
v 0.226259 -0.000061 -0.155689
v 0.192417 0.000061 -0.148991
v 0.207026 -0.000045 -0.164181
v 0.207026 -0.000045 -0.164181
v 0.209012 0.041360 -0.163718
v 0.192417 0.000061 -0.148991
v 0.264878 0.124866 0.072364
v 0.253245 0.097177 0.023922
v 0.265742 0.060459 0.064938
v 0.297031 0.028188 -0.101705
v 0.317145 -0.000217 -0.095334
v 0.084618 0.582211 -0.167787
v 0.107387 0.586882 -0.165162
v 0.088675 0.522903 -0.168073
v 0.109736 0.592157 -0.094639
v 0.127998 0.601122 -0.067212
v 0.108559 0.515462 -0.122066
v 0.232269 0.610867 -0.095393
v 0.234818 0.607285 -0.155258
v 0.232269 0.610867 -0.095393
vt 0.228835 0.346722
vt 0.208240 0.474508
vt 0.238273 0.477949
vt 0.192812 0.342840
vt 0.264026 0.341295
vt 0.271518 0.471502
vt 0.301213 0.456429
vt 0.294011 0.327214
vt 0.325338 0.380674
vt 0.317218 0.313502
vt 0.166745 0.466130
vt 0.164591 0.332645
vt 0.130795 0.396371
vt 0.133427 0.317916
vt 0.156930 0.241983
vt 0.196799 0.268796
vt 0.227533 0.278161
vt 0.257339 0.264827
vt 0.133427 0.317916
vt 0.289810 0.239514
vt 0.293002 0.221503
vt 0.331425 0.307383
vt 0.330523 0.208433
vt 0.374577 0.264396
vt 0.371029 0.305445
vt 0.399293 0.302797
vt 0.408874 0.266727
vt 0.378263 0.375547
vt 0.352730 0.408017
vt 0.395583 0.441790
vt 0.405859 0.351322
vt 0.428395 0.418582
vt 0.352980 0.455006
vt 0.379028 0.223669
vt 0.412333 0.224961
vt 0.382581 0.161471
vt 0.367983 0.179080
vt 0.350501 0.172258
vt 0.321007 0.197512
vt 0.401410 0.177617
vt 0.407917 0.132058
vt 0.391949 0.121646
vt 0.366042 0.133452
vt 0.378012 0.108667
vt 0.387546 0.077328
vt 0.402837 0.084565
vt 0.416229 0.091288
vt 0.407917 0.132058
vt 0.366042 0.133452
vt 0.350501 0.172258
vt 0.366042 0.133452
vt 0.340204 0.115697
vt 0.301527 0.137837
vt 0.265908 0.152141
vt 0.262779 0.217488
vt 0.289810 0.239514
vt 0.229052 0.219249
vt 0.196783 0.221430
vt 0.156807 0.225048
vt 0.120889 0.320257
vt 0.188344 0.154841
vt 0.147642 0.149737
vt 0.225873 0.155934
vt 0.127543 0.206892
vt 0.107036 0.133442
vt 0.143261 0.124230
vt 0.107676 0.119431
vt 0.186485 0.091949
vt 0.201715 0.096331
vt 0.222166 0.135812
vt 0.206098 0.054893
vt 0.190632 0.042475
vt 0.220804 0.063751
vt 0.221138 0.056090
vt 0.219672 0.007316
vt 0.233371 0.056609
vt 0.175974 0.021119
vt 0.169867 0.076336
vt 0.141775 0.044887
vt 0.101272 0.089789
vt 0.247354 0.043191
vt 0.258564 0.022337
vt 0.270973 0.067865
vt 0.252229 0.085390
vt 0.302662 0.114678
vt 0.332782 0.081629
vt 0.289025 0.044386
vt 0.258564 0.022337
vt 0.240637 0.096151
vt 0.222166 0.135812
vt 0.331189 0.107880
vt 0.340204 0.115697
vt 0.331189 0.107880
vt 0.220804 0.063751
vt 0.221978 0.108860
vt 0.222166 0.135812
vt 0.340204 0.115697
vt 0.350501 0.172258
vt 0.133427 0.317916
vt 0.122205 0.397652
vt 0.130795 0.396371
vt 0.156930 0.241983
vt 0.133973 0.466118
vt 0.080384 0.388398
vt 0.088022 0.318335
vt 0.099319 0.432902
vt 0.065326 0.455795
vt 0.058890 0.371069
vt 0.024899 0.428553
vt 0.091842 0.489611
vt 0.063466 0.320920
vt 0.053173 0.287377
vt 0.081994 0.278175
vt 0.118151 0.216974
vt 0.046151 0.248223
vt 0.075082 0.238631
vt 0.047032 0.198207
vt 0.064426 0.179670
vt 0.081314 0.195474
vt 0.096481 0.188070
vt 0.080556 0.155483
vt 0.107036 0.133442
vt 0.107036 0.133442
vt 0.038810 0.152178
vt 0.053570 0.141770
vt 0.067054 0.129320
vt 0.055308 0.097764
vt 0.041160 0.105167
vt 0.027925 0.112625
vt 0.041160 0.105167
vt 0.038810 0.152178
vt 0.241892 0.868310
vt 0.255446 0.939649
vt 0.269214 0.871449
vt 0.212106 0.933473
vt 0.296537 0.936360
vt 0.253529 0.842222
vt 0.267305 0.864175
vt 0.244445 0.811274
vt 0.229476 0.781154
vt 0.197399 0.867118
vt 0.152877 0.869154
vt 0.178502 0.920698
vt 0.183287 0.783075
vt 0.141519 0.791367
vt 0.109813 0.875727
vt 0.107944 0.812758
vt 0.090224 0.873287
vt 0.099671 0.805381
vt 0.186243 0.766674
vt 0.129826 0.751670
vt 0.257505 0.804780
vt 0.257832 0.787260
vt 0.256209 0.731441
vt 0.221310 0.726085
vt 0.254683 0.664092
vt 0.214014 0.661516
vt 0.289298 0.717349
vt 0.301207 0.648746
vt 0.190172 0.744870
vt 0.286014 0.775067
vt 0.324076 0.721509
vt 0.334793 0.619626
vt 0.325329 0.741129
vt 0.373574 0.713689
vt 0.250609 0.613716
vt 0.217980 0.601815
vt 0.313088 0.569767
vt 0.287900 0.594348
vt 0.342084 0.540473
vt 0.364273 0.585779
vt 0.386455 0.642158
vt 0.354183 0.666657
vt 0.370037 0.500539
vt 0.407884 0.635844
vt 0.420109 0.569667
vt 0.396767 0.538215
vt 0.370037 0.500539
vt 0.408637 0.698536
vt 0.426112 0.746137
vt 0.371678 0.747617
vt 0.435720 0.808961
vt 0.376566 0.830780
vt 0.326556 0.760350
vt 0.330656 0.848193
vt 0.295749 0.865403
vt 0.334371 0.914330
vt 0.279686 0.846805
vt 0.273548 0.816914
vt 0.257505 0.804780
vt 0.267305 0.864175
vt 0.370716 0.887444
vt 0.392835 0.865714
vt 0.392835 0.865714
vt 0.439678 0.839639
vt 0.432086 0.734904
vt 0.454605 0.798652
vt 0.435720 0.808961
vt 0.426112 0.746137
vt 0.467084 0.762811
vt 0.435751 0.690485
vt 0.486569 0.701907
vt 0.432086 0.734904
vt 0.430834 0.645019
vt 0.436163 0.601102
vt 0.491410 0.666062
vt 0.500806 0.623845
vt 0.436163 0.601102
vt 0.420109 0.569667
vt 0.486569 0.701907
vt 0.501698 0.682766
vt 0.510064 0.651369
vt 0.500806 0.623845
vt 0.408637 0.698536
vt 0.486569 0.701907
vt 0.499586 0.727712
vt 0.023796 0.691552
vt 0.024049 0.731040
vt 0.043647 0.725589
vt 0.007471 0.710043
vt 0.037962 0.761343
vt 0.102118 0.677251
vt 0.081838 0.641090
vt 0.102454 0.746460
vt 0.129826 0.751670
vt 0.121578 0.657745
vt 0.081838 0.641090
vt 0.093129 0.602537
vt 0.057478 0.763479
vt 0.057478 0.763479
vt 0.047936 0.796183
vt 0.173433 0.625141
vt 0.148281 0.731754
vt 0.141167 0.593890
vt 0.093129 0.602537
vt 0.102482 0.549787
vt 0.163571 0.537669
vt 0.192060 0.577195
vt 0.123109 0.500921
vt 0.123109 0.500921
vt 0.099671 0.805381
vt 0.102454 0.746460
vt 0.057478 0.763479
vt 0.063337 0.817991
vt 0.205457 0.513235
vt 0.244314 0.510757
vt 0.285531 0.495169
vt 0.307812 0.479399
vt 0.323570 0.442540
vt 0.333126 0.461155
vt 0.171294 0.507366
vt 0.131214 0.492324
vt 0.133973 0.466118
vt 0.337125 0.381242
vt 0.328655 0.446484
vt 0.352730 0.408017
vt 0.328655 0.446484
vt 0.352980 0.455006
vt 0.342146 0.471245
vt 0.350340 0.501058
vt 0.125442 0.471686
vt 0.125442 0.471686
vt 0.099319 0.432902
vt 0.091842 0.489611
vt 0.120889 0.320257
vt 0.350340 0.501058
vt 0.367351 0.468211
vt 0.498393 0.887870
vt 0.489079 0.919007
vt 0.510300 0.908923
vt 0.481071 0.897496
vt 0.493882 0.943552
vt 0.520332 0.937907
vt 0.522189 0.967030
vt 0.494639 0.965758
vt 0.450662 0.934710
vt 0.445170 0.915511
vt 0.417325 0.930274
vt 0.420639 0.941769
vt 0.453552 0.955009
vt 0.420560 0.954178
vt 0.454006 0.974554
vt 0.418976 0.965729
vt 0.443695 0.894847
vt 0.416426 0.918208
vt 0.410674 0.908174
vt 0.437443 0.877054
vt 0.404218 0.900371
vt 0.428858 0.860995
vt 0.389258 0.944880
vt 0.389258 0.944880
vt 0.463553 0.827871
vt 0.471413 0.848457
vt 0.493147 0.828816
vt 0.484440 0.800925
vt 0.497630 0.859801
vt 0.478236 0.872222
vt 0.498393 0.887870
vt 0.445525 0.128075
vt 0.517327 0.112403
vt 0.483290 0.101861
vt 0.421743 0.174194
vt 0.434729 0.194539
vt 0.517327 0.112403
vt 0.434729 0.194539
vt 0.518373 0.141940
vt 0.536982 0.161654
vt 0.431791 0.232490
vt 0.431791 0.232490
vt 0.553233 0.241989
vt 0.451963 0.310195
vt 0.484608 0.341048
vt 0.552879 0.295064
vt 0.529604 0.345772
vt 0.483290 0.101861
vt 0.440813 0.091644
vt 0.445525 0.128075
vt 0.472212 0.071176
vt 0.433295 0.055445
vt 0.463324 0.037527
vt 0.432499 0.031501
vt 0.433295 0.055445
vt 0.454432 0.015666
vt 0.439844 0.011804
vt 0.222166 0.135812
vt 0.221978 0.108860
vt 0.220804 0.063751
vt 0.107676 0.119431
vt 0.152831 0.910810
vt 0.152831 0.910810
vt 0.109785 0.906695
vt 0.757421 0.352253
vt 0.778015 0.480039
vt 0.793443 0.348371
vt 0.747983 0.483480
vt 0.722230 0.346826
vt 0.714737 0.477033
vt 0.685042 0.461960
vt 0.692244 0.332745
vt 0.660918 0.386205
vt 0.669037 0.319033
vt 0.819511 0.471661
vt 0.821665 0.338176
vt 0.855461 0.401902
vt 0.852828 0.323447
vt 0.829326 0.247514
vt 0.789457 0.274327
vt 0.758722 0.283692
vt 0.728917 0.270358
vt 0.852828 0.323447
vt 0.696446 0.245045
vt 0.693253 0.227034
vt 0.654830 0.312914
vt 0.655733 0.213964
vt 0.611679 0.269926
vt 0.615227 0.310976
vt 0.586962 0.308328
vt 0.577381 0.272258
vt 0.607993 0.381078
vt 0.633525 0.413548
vt 0.590673 0.447321
vt 0.580397 0.356852
vt 0.557861 0.424113
vt 0.633276 0.460537
vt 0.607228 0.229200
vt 0.573922 0.230492
vt 0.603674 0.167002
vt 0.618273 0.184611
vt 0.635755 0.177789
vt 0.665248 0.203043
vt 0.584846 0.183148
vt 0.578339 0.137589
vt 0.594306 0.127176
vt 0.620214 0.138983
vt 0.608244 0.114198
vt 0.598710 0.082859
vt 0.583419 0.090096
vt 0.620214 0.138983
vt 0.635755 0.177789
vt 0.618905 0.473742
vt 0.635915 0.506588
vt 0.620214 0.138983
vt 0.646052 0.121228
vt 0.684729 0.143368
vt 0.720347 0.157672
vt 0.723476 0.223019
vt 0.696446 0.245045
vt 0.757203 0.224780
vt 0.789473 0.226961
vt 0.829449 0.230579
vt 0.865367 0.325787
vt 0.797912 0.160372
vt 0.838614 0.155268
vt 0.760383 0.161465
vt 0.858713 0.212423
vt 0.879220 0.138973
vt 0.842995 0.129761
vt 0.878580 0.124962
vt 0.799770 0.097479
vt 0.784540 0.101862
vt 0.764090 0.141343
vt 0.780158 0.060424
vt 0.795623 0.048006
vt 0.765451 0.069282
vt 0.765118 0.061621
vt 0.766583 0.012847
vt 0.752885 0.062140
vt 0.810282 0.026650
vt 0.816389 0.081867
vt 0.844481 0.050418
vt 0.884984 0.095320
vt 0.844481 0.050418
vt 0.738902 0.048722
vt 0.727692 0.027868
vt 0.715283 0.073396
vt 0.697231 0.049917
vt 0.653474 0.087160
vt 0.683594 0.120209
vt 0.734026 0.090921
vt 0.745618 0.101682
vt 0.764090 0.141343
vt 0.655066 0.113411
vt 0.653474 0.087160
vt 0.646052 0.121228
vt 0.655066 0.113411
vt 0.635755 0.177789
vt 0.646052 0.121228
vt 0.764277 0.114391
vt 0.765451 0.069282
vt 0.764090 0.141343
vt 0.852828 0.323447
vt 0.864050 0.403183
vt 0.855461 0.401902
vt 0.829326 0.247514
vt 0.852282 0.471649
vt 0.905871 0.393929
vt 0.898234 0.323866
vt 0.886937 0.438433
vt 0.920929 0.461326
vt 0.927365 0.376600
vt 0.961356 0.434084
vt 0.894414 0.495142
vt 0.922790 0.326450
vt 0.933083 0.292908
vt 0.904262 0.283706
vt 0.868105 0.222505
vt 0.940104 0.253754
vt 0.911173 0.244162
vt 0.939224 0.203738
vt 0.921830 0.185201
vt 0.904942 0.201005
vt 0.889774 0.193601
vt 0.905700 0.161014
vt 0.879220 0.138973
vt 0.879220 0.138973
vt 0.947446 0.157709
vt 0.932686 0.147301
vt 0.919202 0.134851
vt 0.930948 0.103295
vt 0.945096 0.110698
vt 0.958331 0.118156
vt 0.947446 0.157709
vt 0.773496 0.907014
vt 0.766815 0.980942
vt 0.809177 0.962431
vt 0.746719 0.917943
vt 0.725786 0.989515
vt 0.759496 0.884745
vt 0.747923 0.910253
vt 0.765570 0.851753
vt 0.777553 0.817883
vt 0.817473 0.893064
vt 0.861783 0.882275
vt 0.841268 0.940237
vt 0.823505 0.806503
vt 0.865679 0.802647
vt 0.905078 0.876359
vt 0.900972 0.814003
vt 0.924259 0.868336
vt 0.752015 0.849128
vt 0.750033 0.832022
vt 0.746359 0.776757
vt 0.780434 0.761475
vt 0.741499 0.710200
vt 0.781556 0.695990
vt 0.712237 0.772427
vt 0.693945 0.708497
vt 0.813067 0.770973
vt 0.852869 0.744263
vt 0.720953 0.828147
vt 0.678169 0.786499
vt 0.740770 0.659574
vt 0.771977 0.638519
vt 0.701985 0.651271
vt 0.674700 0.634373
vt 0.657910 0.689556
vt 0.643145 0.741298
vt 0.608848 0.726515
vt 0.625495 0.664795
vt 0.643195 0.613943
vt 0.611718 0.582767
vt 0.873510 0.760316
vt 0.872796 0.665737
vt 0.818326 0.648624
vt 0.795332 0.606904
vt 0.819823 0.559917
vt 0.847344 0.608675
vt 0.895763 0.603367
vt 0.856441 0.512219
vt 0.881504 0.554266
vt 0.587016 0.726472
vt 0.568640 0.665015
vt 0.588795 0.627432
vt 0.555707 0.700486
vt 0.565143 0.742071
vt 0.564572 0.788118
vt 0.592202 0.788234
vt 0.507107 0.780129
vt 0.493801 0.741382
vt 0.555707 0.700486
vt 0.515296 0.813928
vt 0.498493 0.799482
vt 0.487232 0.771062
vt 0.493801 0.741382
vt 0.572406 0.830673
vt 0.540366 0.868123
vt 0.515296 0.813928
vt 0.579389 0.839985
vt 0.628380 0.793040
vt 0.678834 0.807738
vt 0.679386 0.825343
vt 0.683634 0.912760
vt 0.636494 0.908851
vt 0.633468 0.825803
vt 0.575812 0.904421
vt 0.719853 0.919629
vt 0.686211 0.978756
vt 0.579389 0.839985
vt 0.734010 0.896756
vt 0.647652 0.962800
vt 0.623678 0.947820
vt 0.623678 0.947820
vt 0.574792 0.935676
vt 0.737265 0.865649
vt 0.734010 0.896756
vt 0.737265 0.865649
vt 0.572406 0.830673
vt 0.972889 0.670841
vt 0.976375 0.709680
vt 0.990816 0.684306
vt 0.972889 0.670841
vt 0.956439 0.709958
vt 0.965455 0.743427
vt 0.946318 0.751129
vt 0.958868 0.780494
vt 0.972889 0.670841
vt 0.893925 0.679298
vt 0.910600 0.637972
vt 0.900141 0.747339
vt 0.873510 0.760316
vt 0.895763 0.603367
vt 0.910600 0.637972
vt 0.946318 0.751129
vt 0.908473 0.804384
vt 0.946318 0.751129
vt 0.945670 0.806328
vt 0.924259 0.868336
vt 0.818736 0.790270
vt 0.895763 0.603367
vt 0.881504 0.554266
vt 0.780799 0.518766
vt 0.741942 0.516288
vt 0.700724 0.500700
vt 0.678444 0.484930
vt 0.662685 0.448071
vt 0.653130 0.466686
vt 0.814962 0.512897
vt 0.855041 0.497855
vt 0.852282 0.471649
vt 0.649131 0.386773
vt 0.657600 0.452015
vt 0.633525 0.413548
vt 0.657600 0.452015
vt 0.633276 0.460537
vt 0.644109 0.476776
vt 0.635915 0.506588
vt 0.860814 0.477217
vt 0.860814 0.477217
vt 0.886937 0.438433
vt 0.894414 0.495142
vt 0.865367 0.325787
vt 0.611718 0.582767
vt 0.588795 0.627432
vt 0.061607 0.492167
vt 0.044024 0.506095
vt 0.056743 0.516159
vt 0.048997 0.476770
vt 0.071427 0.519022
vt 0.077821 0.492095
vt 0.085399 0.527381
vt 0.036491 0.559081
vt 0.047778 0.565807
vt 0.040369 0.604346
vt 0.033611 0.600283
vt 0.024674 0.555945
vt 0.026459 0.600882
vt 0.013387 0.556100
vt 0.019862 0.603499
vt 0.059750 0.566999
vt 0.047361 0.605093
vt 0.053374 0.612536
vt 0.070256 0.574816
vt 0.058128 0.621026
vt 0.079855 0.585882
vt 0.033059 0.643180
vt 0.033059 0.643180
vt 0.033059 0.643180
vt 0.033059 0.643180
vt 0.058128 0.621026
vt 0.016850 0.500367
vt 0.029682 0.500520
vt 0.015025 0.462866
vt 0.031890 0.464244
vt 0.048997 0.476770
vt 0.097579 0.537280
vt 0.095863 0.496980
vt 0.112288 0.507743
vt 0.077821 0.492095
vt 0.095863 0.496980
vt 0.033059 0.643180
vt 0.490801 0.398405
vt 0.443856 0.483398
vt 0.528859 0.392100
vt 0.533117 0.419844
vt 0.459542 0.500524
vt 0.443856 0.483398
vt 0.456226 0.433516
vt 0.460452 0.535243
vt 0.459542 0.500524
vt 0.555557 0.436281
vt 0.495960 0.599254
vt 0.587526 0.503985
vt 0.460452 0.535243
vt 0.587070 0.562900
vt 0.525339 0.627123
vt 0.565650 0.623926
vt 0.456226 0.433516
vt 0.473280 0.372833
vt 0.445264 0.402733
vt 0.490801 0.398405
vt 0.457384 0.343735
vt 0.431501 0.373217
vt 0.444641 0.329920
vt 0.424224 0.349986
vt 0.429887 0.328957
vt 0.570027 0.096819
vt 0.578339 0.137589
vt 0.583419 0.090096
vt 0.764277 0.114391
vt 0.764090 0.141343
vt 0.765451 0.069282
vt 0.878580 0.124962
vt 0.884984 0.095320
vt 0.575812 0.904421
vt 0.556122 0.899726
vt 0.579389 0.839985
vt 0.515296 0.813928
vt 0.504838 0.843001
vt 0.592202 0.788234
vt 0.865770 0.923156
vt 0.908036 0.906753
vt 0.865770 0.923156
f 3/3/3 2/2/2 1/1/1
f 4/4/4 1/1/1 2/2/2
f 1/1/1 5/5/5 3/3/3
f 6/6/6 3/3/3 5/5/5
f 6/6/6 5/5/5 7/7/7
f 8/8/8 7/7/7 5/5/5
f 7/7/7 8/8/8 9/9/9
f 10/10/10 9/9/9 8/8/8
f 2/2/2 11/11/11 4/4/4
f 12/12/12 4/4/4 11/11/11
f 11/11/11 13/13/13 12/12/12
f 14/14/14 12/12/12 13/13/13
f 12/12/12 15/15/15 4/4/4
f 16/16/16 4/4/4 15/15/15
f 4/4/4 16/16/16 1/1/1
f 1/1/1 17/17/17 5/5/5
f 17/17/17 1/1/1 16/16/16
f 18/18/18 5/5/5 17/17/17
f 5/5/5 18/18/18 8/8/8
f 19/19/19 15/15/15 12/12/12
f 20/20/20 8/8/8 18/18/18
f 20/20/20 21/21/21 10/10/10
f 22/22/22 10/10/10 21/21/21
f 21/21/21 23/23/23 22/22/22
f 23/23/23 24/24/24 22/22/22
f 22/22/22 24/24/24 25/25/25
f 25/25/25 24/24/24 26/26/26
f 27/27/27 26/26/26 24/24/24
f 25/25/25 28/28/28 22/22/22
f 29/29/29 22/22/22 28/28/28
f 29/29/29 28/28/28 30/30/30
f 28/28/28 31/31/31 30/30/30
f 26/26/26 31/31/31 25/25/25
f 28/28/28 25/25/25 31/31/31
f 32/32/32 30/30/30 31/31/31
f 30/30/30 33/33/33 29/29/29
f 24/24/24 34/34/34 27/27/27
f 34/34/34 24/24/24 23/23/23
f 35/35/35 27/27/27 34/34/34
f 34/34/34 36/36/36 35/35/35
f 37/37/37 36/36/36 34/34/34
f 23/23/23 37/37/37 34/34/34
f 37/37/37 23/23/23 38/38/38
f 39/39/39 38/38/38 23/23/23
f 40/40/40 35/35/35 36/36/36
f 40/40/40 36/36/36 41/41/41
f 42/42/42 41/41/41 36/36/36
f 36/36/36 43/43/43 42/42/42
f 44/44/44 42/42/42 43/43/43
f 44/44/44 45/45/45 42/42/42
f 46/46/46 42/42/42 45/45/45
f 46/46/46 47/47/47 42/42/42
f 48/48/48 42/42/42 47/47/47
f 49/49/49 36/36/36 37/37/37
f 37/37/37 50/50/50 49/49/49
f 52/52/52 51/51/51 50/50/50
f 53/53/53 39/39/39 21/21/21
f 53/53/53 21/21/21 54/54/54
f 55/55/55 54/54/54 21/21/21
f 21/21/21 56/56/56 55/55/55
f 18/18/18 55/55/55 56/56/56
f 55/55/55 18/18/18 57/57/57
f 17/17/17 57/57/57 18/18/18
f 17/17/17 16/16/16 57/57/57
f 58/58/58 57/57/57 16/16/16
f 16/16/16 15/15/15 58/58/58
f 59/59/59 58/58/58 15/15/15
f 59/59/59 15/15/15 60/60/60
f 58/58/58 59/59/59 61/61/61
f 62/62/62 61/61/61 59/59/59
f 54/54/54 55/55/55 63/63/63
f 57/57/57 63/63/63 55/55/55
f 61/61/61 63/63/63 58/58/58
f 57/57/57 58/58/58 63/63/63
f 59/59/59 64/64/64 62/62/62
f 65/65/65 62/62/62 64/64/64
f 62/62/62 66/66/66 61/61/61
f 67/67/67 66/66/66 62/62/62
f 66/66/66 68/68/68 61/61/61
f 68/68/68 69/69/69 61/61/61
f 61/61/61 69/69/69 63/63/63
f 69/69/69 70/70/70 63/63/63
f 68/68/68 71/71/71 69/69/69
f 72/72/72 71/71/71 68/68/68
f 69/69/69 71/71/71 73/73/73
f 74/74/74 73/73/73 71/71/71
f 75/75/75 71/71/71 72/72/72
f 75/75/75 74/74/74 71/71/71
f 75/75/75 76/76/76 74/74/74
f 74/74/74 76/76/76 73/73/73
f 75/75/75 72/72/72 77/77/77
f 72/72/72 78/78/78 77/77/77
f 78/78/78 68/68/68 66/66/66
f 78/78/78 72/72/72 68/68/68
f 78/78/78 66/66/66 79/79/79
f 79/79/79 77/77/77 78/78/78
f 80/80/80 79/79/79 66/66/66
f 80/80/80 66/66/66 67/67/67
f 75/75/75 81/81/81 76/76/76
f 75/75/75 82/82/82 81/81/81
f 81/81/81 82/82/82 83/83/83
f 84/84/84 81/81/81 83/83/83
f 76/76/76 81/81/81 84/84/84
f 84/84/84 83/83/83 85/85/85
f 85/85/85 83/83/83 86/86/86
f 87/87/87 86/86/86 83/83/83
f 87/87/87 83/83/83 88/88/88
f 89/89/89 76/76/76 84/84/84
f 89/89/89 84/84/84 54/54/54
f 54/54/54 84/84/84 85/85/85
f 54/54/54 85/85/85 53/53/53
f 63/63/63 89/89/89 54/54/54
f 90/90/90 89/89/89 63/63/63
f 86/86/86 91/91/91 85/85/85
f 85/85/85 91/91/91 53/53/53
f 53/53/53 93/93/93 92/92/92
f 95/95/95 94/94/94 89/89/89
f 95/95/95 89/89/89 96/96/96
f 89/89/89 73/73/73 76/76/76
f 97/97/97 39/39/39 53/53/53
f 98/98/98 39/39/39 97/97/97
f 39/39/39 23/23/23 21/21/21
f 101/101/101 100/100/100 99/99/99
f 60/60/60 99/99/99 100/100/100
f 99/99/99 60/60/60 102/102/102
f 101/101/101 103/103/103 100/100/100
f 105/105/105 60/60/60 104/104/104
f 104/104/104 60/60/60 106/106/106
f 107/107/107 104/104/104 106/106/106
f 104/104/104 107/107/107 108/108/108
f 104/104/104 108/108/108 105/105/105
f 109/109/109 108/108/108 107/107/107
f 107/107/107 106/106/106 110/110/110
f 111/111/111 105/105/105 108/108/108
f 111/111/111 112/112/112 105/105/105
f 113/113/113 105/105/105 112/112/112
f 105/105/105 113/113/113 60/60/60
f 113/113/113 114/114/114 60/60/60
f 112/112/112 115/115/115 113/113/113
f 116/116/116 113/113/113 115/115/115
f 116/116/116 114/114/114 113/113/113
f 115/115/115 117/117/117 116/116/116
f 118/118/118 116/116/116 117/117/117
f 116/116/116 119/119/119 114/114/114
f 118/118/118 119/119/119 116/116/116
f 119/119/119 120/120/120 114/114/114
f 119/119/119 121/121/121 120/120/120
f 121/121/121 119/119/119 118/118/118
f 122/122/122 120/120/120 121/121/121
f 64/64/64 114/114/114 120/120/120
f 123/123/123 64/64/64 120/120/120
f 117/117/117 124/124/124 118/118/118
f 125/125/125 118/118/118 124/124/124
f 118/118/118 125/125/125 121/121/121
f 126/126/126 121/121/121 125/125/125
f 126/126/126 125/125/125 127/127/127
f 128/128/128 127/127/127 125/125/125
f 64/64/64 59/59/59 114/114/114
f 130/130/130 125/125/125 129/129/129
f 131/131/131 129/129/129 125/125/125
f 114/114/114 59/59/59 60/60/60
f 134/134/134 133/133/133 132/132/132
f 135/135/135 132/132/132 133/133/133
f 136/136/136 133/133/133 134/134/134
f 132/132/132 137/137/137 134/134/134
f 138/138/138 134/134/134 137/137/137
f 137/137/137 132/132/132 139/139/139
f 140/140/140 139/139/139 132/132/132
f 132/132/132 141/141/141 140/140/140
f 132/132/132 135/135/135 141/141/141
f 141/141/141 135/135/135 142/142/142
f 143/143/143 142/142/142 135/135/135
f 144/144/144 140/140/140 141/141/141
f 141/141/141 142/142/142 144/144/144
f 145/145/145 144/144/144 142/142/142
f 142/142/142 146/146/146 145/145/145
f 147/147/147 145/145/145 146/146/146
f 146/146/146 148/148/148 147/147/147
f 149/149/149 147/147/147 148/148/148
f 144/144/144 150/150/150 140/140/140
f 144/144/144 151/151/151 150/150/150
f 145/145/145 147/147/147 151/151/151
f 145/145/145 151/151/151 144/144/144
f 139/139/139 140/140/140 152/152/152
f 153/153/153 152/152/152 140/140/140
f 153/153/153 140/140/140 154/154/154
f 155/155/155 154/154/154 140/140/140
f 154/154/154 155/155/155 156/156/156
f 157/157/157 156/156/156 155/155/155
f 154/154/154 156/156/156 158/158/158
f 159/159/159 158/158/158 156/156/156
f 155/155/155 160/160/160 157/157/157
f 160/160/160 150/150/150 151/151/151
f 153/153/153 154/154/154 161/161/161
f 158/158/158 161/161/161 154/154/154
f 159/159/159 162/162/162 158/158/158
f 158/158/158 162/162/162 161/161/161
f 162/162/162 159/159/159 163/163/163
f 162/162/162 164/164/164 161/161/161
f 164/164/164 162/162/162 165/165/165
f 156/156/156 157/157/157 166/166/166
f 167/167/167 166/166/166 157/157/157
f 163/163/163 159/159/159 168/168/168
f 169/169/169 168/168/168 159/159/159
f 159/159/159 156/156/156 169/169/169
f 166/166/166 169/169/169 156/156/156
f 168/168/168 170/170/170 163/163/163
f 171/171/171 163/163/163 170/170/170
f 171/171/171 172/172/172 163/163/163
f 173/173/173 163/163/163 172/172/172
f 173/173/173 162/162/162 163/163/163
f 165/165/165 162/162/162 173/173/173
f 170/170/170 174/174/174 171/171/171
f 172/172/172 171/171/171 175/175/175
f 175/175/175 171/171/171 176/176/176
f 177/177/177 176/176/176 171/171/171
f 177/177/177 171/171/171 178/178/178
f 165/165/165 173/173/173 179/179/179
f 172/172/172 179/179/179 173/173/173
f 179/179/179 172/172/172 175/175/175
f 179/179/179 180/180/180 165/165/165
f 181/181/181 165/165/165 180/180/180
f 180/180/180 182/182/182 181/181/181
f 183/183/183 181/181/181 182/182/182
f 181/181/181 183/183/183 184/184/184
f 185/185/185 184/184/184 183/183/183
f 184/184/184 185/185/185 161/161/161
f 186/186/186 161/161/161 185/185/185
f 185/185/185 187/187/187 186/186/186
f 186/186/186 188/188/188 161/161/161
f 189/189/189 161/161/161 188/188/188
f 161/161/161 189/189/189 153/153/153
f 190/190/190 153/153/153 189/189/189
f 188/188/188 186/186/186 191/191/191
f 134/134/134 191/191/191 186/186/186
f 183/183/183 192/192/192 185/185/185
f 187/187/187 185/185/185 192/192/192
f 193/193/193 192/192/192 183/183/183
f 186/186/186 136/136/136 134/134/134
f 187/187/187 136/136/136 186/186/186
f 182/182/182 194/194/194 183/183/183
f 195/195/195 194/194/194 182/182/182
f 197/197/197 182/182/182 196/196/196
f 199/199/199 196/196/196 198/198/198
f 196/196/196 201/201/201 200/200/200
f 202/202/202 200/200/200 201/201/201
f 196/196/196 179/179/179 201/201/201
f 180/180/180 179/179/179 203/203/203
f 201/201/201 175/175/175 204/204/204
f 204/204/204 175/175/175 205/205/205
f 204/204/204 206/206/206 201/201/201
f 206/206/206 204/204/204 207/207/207
f 208/208/208 207/207/207 204/204/204
f 209/209/209 208/208/208 175/175/175
f 210/210/210 201/201/201 206/206/206
f 211/211/211 210/210/210 206/206/206
f 212/212/212 211/211/211 206/206/206
f 213/213/213 212/212/212 206/206/206
f 214/214/214 175/175/175 201/201/201
f 211/211/211 216/216/216 215/215/215
f 219/219/219 218/218/218 217/217/217
f 220/220/220 217/217/217 218/218/218
f 221/221/221 218/218/218 219/219/219
f 219/219/219 217/217/217 222/222/222
f 223/223/223 222/222/222 217/217/217
f 222/222/222 224/224/224 219/219/219
f 224/224/224 222/222/222 225/225/225
f 226/226/226 225/225/225 222/222/222
f 222/222/222 227/227/227 226/226/226
f 228/228/228 226/226/226 223/223/223
f 229/229/229 219/219/219 224/224/224
f 219/219/219 230/230/230 221/221/221
f 221/221/221 230/230/230 231/231/231
f 233/233/233 226/226/226 232/232/232
f 234/234/234 232/232/232 226/226/226
f 226/226/226 235/235/235 234/234/234
f 236/236/236 234/234/234 235/235/235
f 233/233/233 232/232/232 157/157/157
f 234/234/234 237/237/237 232/232/232
f 238/238/238 232/232/232 237/237/237
f 236/236/236 239/239/239 234/234/234
f 237/237/237 234/234/234 240/240/240
f 157/157/157 232/232/232 167/167/167
f 238/238/238 167/167/167 232/232/232
f 160/160/160 233/233/233 157/157/157
f 151/151/151 233/233/233 160/160/160
f 151/151/151 226/226/226 233/233/233
f 241/241/241 151/151/151 147/147/147
f 149/149/149 242/242/242 151/151/151
f 242/242/242 149/149/149 243/243/243
f 244/244/244 243/243/243 149/149/149
f 160/160/160 140/140/140 150/150/150
f 155/155/155 140/140/140 160/160/160
f 246/246/246 245/245/245 3/3/3
f 2/2/2 3/3/3 245/245/245
f 3/3/3 6/6/6 246/246/246
f 247/247/247 246/246/246 6/6/6
f 6/6/6 7/7/7 247/247/247
f 248/248/248 247/247/247 7/7/7
f 7/7/7 249/249/249 248/248/248
f 250/250/250 248/248/248 249/249/249
f 245/245/245 251/251/251 2/2/2
f 11/11/11 2/2/2 251/251/251
f 251/251/251 252/252/252 11/11/11
f 253/253/253 11/11/11 252/252/252
f 253/253/253 13/13/13 11/11/11
f 249/249/249 7/7/7 9/9/9
f 9/9/9 254/254/254 249/249/249
f 255/255/255 249/249/249 254/254/254
f 9/9/9 10/10/10 254/254/254
f 22/22/22 254/254/254 10/10/10
f 254/254/254 22/22/22 256/256/256
f 257/257/257 254/254/254 256/256/256
f 256/256/256 258/258/258 257/257/257
f 259/259/259 257/257/257 258/258/258
f 258/258/258 260/260/260 259/259/259
f 8/8/8 56/56/56 10/10/10
f 261/261/261 100/100/100 253/253/253
f 263/263/263 100/100/100 262/262/262
f 263/263/263 262/262/262 264/264/264
f 265/265/265 100/100/100 263/263/263
f 267/267/267 266/266/266 33/33/33
f 267/267/267 33/33/33 30/30/30
f 270/270/270 269/269/269 268/268/268
f 271/271/271 268/268/268 269/269/269
f 269/269/269 270/270/270 272/272/272
f 273/273/273 272/272/272 270/270/270
f 273/273/273 274/274/274 272/272/272
f 275/275/275 272/272/272 274/274/274
f 269/269/269 276/276/276 271/271/271
f 269/269/269 272/272/272 276/276/276
f 277/277/277 271/271/271 276/276/276
f 277/277/277 276/276/276 278/278/278
f 279/279/279 278/278/278 276/276/276
f 276/276/276 280/280/280 279/279/279
f 280/280/280 276/276/276 272/272/272
f 272/272/272 275/275/275 280/280/280
f 281/281/281 279/279/279 280/280/280
f 280/280/280 282/282/282 281/281/281
f 282/282/282 280/280/280 275/275/275
f 283/283/283 281/281/281 282/282/282
f 277/277/277 278/278/278 284/284/284
f 277/277/277 284/284/284 271/271/271
f 285/285/285 284/284/284 278/278/278
f 285/285/285 286/286/286 284/284/284
f 287/287/287 284/284/284 286/286/286
f 286/286/286 288/288/288 287/287/287
f 289/289/289 287/287/287 288/288/288
f 290/290/290 278/278/278 279/279/279
f 290/290/290 279/279/279 281/281/281
f 290/290/290 288/288/288 286/286/286
f 290/290/290 286/286/286 285/285/285
f 290/290/290 285/285/285 278/278/278
f 291/291/291 281/281/281 283/283/283
f 289/289/289 292/292/292 287/287/287
f 293/293/293 287/287/287 292/292/292
f 287/287/287 293/293/293 284/284/284
f 293/293/293 292/292/292 294/294/294
f 295/295/295 294/294/294 292/292/292
f 294/294/294 296/296/296 293/293/293
f 297/297/297 293/293/293 296/296/296
f 297/297/297 284/284/284 293/293/293
f 296/296/296 298/298/298 297/297/297
f 271/271/271 297/297/297 298/298/298
f 297/297/297 271/271/271 284/284/284
f 301/301/301 300/300/300 299/299/299
f 302/302/302 299/299/299 300/300/300
f 302/302/302 304/304/304 303/303/303
f 306/306/306 305/305/305 304/304/304
f 306/306/306 307/307/307 303/303/303
f 308/308/308 303/303/303 307/307/307
f 307/307/307 310/310/310 309/309/309
f 311/311/311 309/309/309 310/310/310
f 311/311/311 310/310/310 312/312/312
f 313/313/313 312/312/312 310/310/310
f 314/314/314 312/312/312 313/313/313
f 317/317/317 316/316/316 315/315/315
f 318/318/318 315/315/315 316/316/316
f 316/316/316 319/319/319 318/318/318
f 320/320/320 318/318/318 319/319/319
f 322/322/322 321/321/321 320/320/320
f 323/323/323 320/320/320 321/321/321
f 323/323/323 321/321/321 324/324/324
f 326/326/326 325/325/325 69/69/69
f 326/326/326 69/69/69 327/327/327
f 65/65/65 328/328/328 62/62/62
f 142/142/142 329/329/329 146/146/146
f 143/143/143 329/329/329 142/142/142
f 331/331/331 146/146/146 330/330/330
f 334/334/334 333/333/333 332/332/332
f 335/335/335 332/332/332 333/333/333
f 332/332/332 335/335/335 336/336/336
f 337/337/337 336/336/336 335/335/335
f 337/337/337 338/338/338 336/336/336
f 339/339/339 336/336/336 338/338/338
f 338/338/338 340/340/340 339/339/339
f 341/341/341 339/339/339 340/340/340
f 333/333/333 334/334/334 342/342/342
f 343/343/343 342/342/342 334/334/334
f 342/342/342 343/343/343 344/344/344
f 345/345/345 344/344/344 343/343/343
f 343/343/343 334/334/334 346/346/346
f 347/347/347 346/346/346 334/334/334
f 334/334/334 332/332/332 347/347/347
f 332/332/332 336/336/336 348/348/348
f 348/348/348 347/347/347 332/332/332
f 349/349/349 348/348/348 336/336/336
f 336/336/336 339/339/339 349/349/349
f 346/346/346 350/350/350 343/343/343
f 351/351/351 349/349/349 339/339/339
f 351/351/351 341/341/341 352/352/352
f 353/353/353 352/352/352 341/341/341
f 354/354/354 352/352/352 353/353/353
f 355/355/355 354/354/354 353/353/353
f 355/355/355 353/353/353 356/356/356
f 356/356/356 357/357/357 355/355/355
f 358/358/358 355/355/355 357/357/357
f 359/359/359 356/356/356 353/353/353
f 353/353/353 360/360/360 359/359/359
f 359/359/359 360/360/360 361/361/361
f 359/359/359 361/361/361 362/362/362
f 359/359/359 362/362/362 356/356/356
f 357/357/357 356/356/356 362/362/362
f 363/363/363 362/362/362 361/361/361
f 364/364/364 361/361/361 360/360/360
f 355/355/355 358/358/358 365/365/365
f 355/355/355 365/365/365 354/354/354
f 366/366/366 365/365/365 358/358/358
f 365/365/365 366/366/366 367/367/367
f 367/367/367 368/368/368 365/365/365
f 368/368/368 354/354/354 365/365/365
f 368/368/368 369/369/369 354/354/354
f 370/370/370 354/354/354 369/369/369
f 371/371/371 367/367/367 366/366/366
f 371/371/371 372/372/372 367/367/367
f 373/373/373 367/367/367 372/372/372
f 367/367/367 373/373/373 374/374/374
f 375/375/375 374/374/374 373/373/373
f 375/375/375 373/373/373 376/376/376
f 377/377/377 376/376/376 373/373/373
f 367/367/367 378/378/378 368/368/368
f 368/368/368 378/378/378 379/379/379
f 381/381/381 380/380/380 364/364/364
f 383/383/383 379/379/379 382/382/382
f 370/370/370 384/384/384 352/352/352
f 384/384/384 385/385/385 352/352/352
f 386/386/386 352/352/352 385/385/385
f 352/352/352 386/386/386 387/387/387
f 349/349/349 387/387/387 386/386/386
f 386/386/386 388/388/388 349/349/349
f 348/348/348 349/349/349 388/388/388
f 348/348/348 388/388/388 347/347/347
f 389/389/389 347/347/347 388/388/388
f 347/347/347 389/389/389 346/346/346
f 390/390/390 346/346/346 389/389/389
f 390/390/390 391/391/391 346/346/346
f 389/389/389 392/392/392 390/390/390
f 393/393/393 390/390/390 392/392/392
f 388/388/388 386/386/386 394/394/394
f 385/385/385 394/394/394 386/386/386
f 388/388/388 394/394/394 389/389/389
f 392/392/392 389/389/389 394/394/394
f 390/390/390 393/393/393 395/395/395
f 396/396/396 395/395/395 393/393/393
f 397/397/397 393/393/393 392/392/392
f 397/397/397 398/398/398 393/393/393
f 399/399/399 397/397/397 392/392/392
f 400/400/400 399/399/399 392/392/392
f 400/400/400 392/392/392 394/394/394
f 401/401/401 400/400/400 394/394/394
f 402/402/402 399/399/399 400/400/400
f 402/402/402 403/403/403 399/399/399
f 400/400/400 404/404/404 402/402/402
f 405/405/405 402/402/402 404/404/404
f 402/402/402 406/406/406 403/403/403
f 405/405/405 406/406/406 402/402/402
f 407/407/407 406/406/406 405/405/405
f 405/405/405 404/404/404 407/407/407
f 403/403/403 406/406/406 408/408/408
f 403/403/403 408/408/408 409/409/409
f 399/399/399 409/409/409 397/397/397
f 403/403/403 409/409/409 399/399/399
f 409/409/409 410/410/410 397/397/397
f 411/411/411 397/397/397 410/410/410
f 412/412/412 409/409/409 408/408/408
f 413/413/413 406/406/406 407/407/407
f 414/414/414 406/406/406 413/413/413
f 413/413/413 415/415/415 414/414/414
f 416/416/416 414/414/414 415/415/415
f 416/416/416 415/415/415 417/417/417
f 418/418/418 417/417/417 415/415/415
f 415/415/415 419/419/419 418/418/418
f 413/413/413 419/419/419 415/415/415
f 413/413/413 407/407/407 419/419/419
f 407/407/407 420/420/420 419/419/419
f 419/419/419 420/420/420 385/385/385
f 419/419/419 385/385/385 418/418/418
f 418/418/418 385/385/385 384/384/384
f 420/420/420 394/394/394 385/385/385
f 420/420/420 421/421/421 394/394/394
f 422/422/422 418/418/418 384/384/384
f 422/422/422 423/423/423 418/418/418
f 425/425/425 384/384/384 424/424/424
f 370/370/370 426/426/426 424/424/424
f 370/370/370 427/427/427 384/384/384
f 429/429/429 428/428/428 420/420/420
f 420/420/420 428/428/428 430/430/430
f 420/420/420 407/407/407 404/404/404
f 354/354/354 370/370/370 352/352/352
f 391/391/391 432/432/432 431/431/431
f 433/433/433 431/431/431 432/432/432
f 431/431/431 434/434/434 391/391/391
f 433/433/433 432/432/432 435/435/435
f 391/391/391 437/437/437 436/436/436
f 391/391/391 436/436/436 438/438/438
f 436/436/436 439/439/439 438/438/438
f 436/436/436 440/440/440 439/439/439
f 436/436/436 437/437/437 440/440/440
f 441/441/441 439/439/439 440/440/440
f 438/438/438 439/439/439 442/442/442
f 443/443/443 440/440/440 437/437/437
f 443/443/443 437/437/437 444/444/444
f 445/445/445 444/444/444 437/437/437
f 445/445/445 437/437/437 391/391/391
f 446/446/446 445/445/445 391/391/391
f 444/444/444 445/445/445 447/447/447
f 448/448/448 447/447/447 445/445/445
f 446/446/446 448/448/448 445/445/445
f 447/447/447 448/448/448 449/449/449
f 450/450/450 449/449/449 448/448/448
f 451/451/451 448/448/448 446/446/446
f 451/451/451 450/450/450 448/448/448
f 451/451/451 446/446/446 452/452/452
f 451/451/451 452/452/452 453/453/453
f 451/451/451 453/453/453 450/450/450
f 454/454/454 453/453/453 452/452/452
f 395/395/395 452/452/452 446/446/446
f 395/395/395 455/455/455 452/452/452
f 449/449/449 450/450/450 456/456/456
f 457/457/457 456/456/456 450/450/450
f 450/450/450 453/453/453 457/457/457
f 458/458/458 457/457/457 453/453/453
f 458/458/458 459/459/459 457/457/457
f 460/460/460 457/457/457 459/459/459
f 460/460/460 461/461/461 457/457/457
f 462/462/462 457/457/457 461/461/461
f 390/390/390 395/395/395 446/446/446
f 390/390/390 446/446/446 391/391/391
f 465/465/465 464/464/464 463/463/463
f 466/466/466 463/463/463 464/464/464
f 464/464/464 467/467/467 466/466/466
f 463/463/463 466/466/466 468/468/468
f 469/469/469 468/468/468 466/466/466
f 468/468/468 470/470/470 463/463/463
f 471/471/471 463/463/463 470/470/470
f 463/463/463 471/471/471 472/472/472
f 465/465/465 463/463/463 472/472/472
f 472/472/472 473/473/473 465/465/465
f 474/474/474 465/465/465 473/473/473
f 475/475/475 472/472/472 471/471/471
f 472/472/472 475/475/475 473/473/473
f 476/476/476 473/473/473 475/475/475
f 473/473/473 476/476/476 477/477/477
f 478/478/478 477/477/477 476/476/476
f 477/477/477 478/478/478 479/479/479
f 470/470/470 480/480/480 471/471/471
f 481/481/481 471/471/471 480/480/480
f 481/481/481 482/482/482 471/471/471
f 483/483/483 471/471/471 482/482/482
f 482/482/482 484/484/484 483/483/483
f 485/485/485 483/483/483 484/484/484
f 482/482/482 486/486/486 484/484/484
f 487/487/487 484/484/484 486/486/486
f 488/488/488 483/483/483 485/485/485
f 489/489/489 488/488/488 485/485/485
f 486/486/486 482/482/482 490/490/490
f 481/481/481 490/490/490 482/482/482
f 491/491/491 487/487/487 486/486/486
f 486/486/486 490/490/490 491/491/491
f 488/488/488 471/471/471 483/483/483
f 484/484/484 492/492/492 485/485/485
f 493/493/493 485/485/485 492/492/492
f 492/492/492 484/484/484 494/494/494
f 487/487/487 494/494/494 484/484/484
f 494/494/494 487/487/487 495/495/495
f 496/496/496 495/495/495 487/487/487
f 487/487/487 491/491/491 496/496/496
f 491/491/491 497/497/497 496/496/496
f 497/497/497 498/498/498 496/496/496
f 499/499/499 496/496/496 498/498/498
f 495/495/495 496/496/496 500/500/500
f 499/499/499 500/500/500 496/496/496
f 500/500/500 499/499/499 501/501/501
f 502/502/502 488/488/488 489/489/489
f 502/502/502 489/489/489 503/503/503
f 489/489/489 504/504/504 503/503/503
f 505/505/505 504/504/504 493/493/493
f 505/505/505 506/506/506 504/504/504
f 507/507/507 504/504/504 506/506/506
f 507/507/507 503/503/503 504/504/504
f 503/503/503 507/507/507 508/508/508
f 506/506/506 509/509/509 507/507/507
f 510/510/510 507/507/507 509/509/509
f 504/504/504 489/489/489 485/485/485
f 485/485/485 493/493/493 504/504/504
f 499/499/499 498/498/498 511/511/511
f 511/511/511 512/512/512 499/499/499
f 513/513/513 499/499/499 512/512/512
f 512/512/512 511/511/511 514/514/514
f 515/515/515 514/514/514 511/511/511
f 511/511/511 516/516/516 515/515/515
f 498/498/498 517/517/517 511/511/511
f 515/515/515 516/516/516 518/518/518
f 518/518/518 519/519/519 515/515/515
f 520/520/520 515/515/515 519/519/519
f 521/521/521 518/518/518 516/516/516
f 521/521/521 522/522/522 518/518/518
f 522/522/522 523/523/523 518/518/518
f 523/523/523 524/524/524 518/518/518
f 517/517/517 525/525/525 516/516/516
f 525/525/525 526/526/526 516/516/516
f 527/527/527 516/516/516 526/526/526
f 517/517/517 529/529/529 528/528/528
f 529/529/529 517/517/517 497/497/497
f 498/498/498 497/497/497 517/517/517
f 529/529/529 497/497/497 491/491/491
f 491/491/491 530/530/530 529/529/529
f 530/530/530 531/531/531 529/529/529
f 530/530/530 490/490/490 531/531/531
f 491/491/491 490/490/490 530/530/530
f 531/531/531 490/490/490 532/532/532
f 532/532/532 533/533/533 531/531/531
f 534/534/534 531/531/531 533/533/533
f 531/531/531 534/534/534 529/529/529
f 528/528/528 534/534/534 535/535/535
f 533/533/533 535/535/535 534/534/534
f 536/536/536 532/532/532 490/490/490
f 537/537/537 532/532/532 536/536/536
f 534/534/534 538/538/538 529/529/529
f 536/536/536 490/490/490 539/539/539
f 539/539/539 469/469/469 536/536/536
f 466/466/466 536/536/536 469/469/469
f 537/537/537 540/540/540 532/532/532
f 533/533/533 532/532/532 540/540/540
f 540/540/540 541/541/541 533/533/533
f 467/467/467 536/536/536 466/466/466
f 467/467/467 537/537/537 536/536/536
f 542/542/542 535/535/535 533/533/533
f 542/542/542 543/543/543 535/535/535
f 490/490/490 481/481/481 544/544/544
f 480/480/480 544/544/544 481/481/481
f 546/546/546 545/545/545 490/490/490
f 517/517/517 538/538/538 547/547/547
f 550/550/550 549/549/549 548/548/548
f 552/552/552 551/551/551 549/549/549
f 549/549/549 553/553/553 552/552/552
f 554/554/554 552/552/552 553/553/553
f 554/554/554 553/553/553 555/555/555
f 552/552/552 557/557/557 556/556/556
f 558/558/558 556/556/556 557/557/557
f 557/557/557 552/552/552 559/559/559
f 559/559/559 560/560/560 557/557/557
f 503/503/503 557/557/557 560/560/560
f 561/561/561 558/558/558 503/503/503
f 557/557/557 503/503/503 562/562/562
f 563/563/563 559/559/559 552/552/552
f 559/559/559 565/565/565 564/564/564
f 566/566/566 564/564/564 565/565/565
f 559/559/559 564/564/564 502/502/502
f 564/564/564 478/478/478 502/502/502
f 564/564/564 567/567/567 478/478/478
f 476/476/476 502/502/502 478/478/478
f 476/476/476 475/475/475 502/502/502
f 475/475/475 568/568/568 502/502/502
f 502/502/502 568/568/568 488/488/488
f 475/475/475 471/471/471 568/568/568
f 568/568/568 471/471/471 488/488/488
f 570/570/570 569/569/569 507/507/507
f 333/333/333 571/571/571 335/335/335
f 572/572/572 335/335/335 571/571/571
f 335/335/335 572/572/572 337/337/337
f 573/573/573 337/337/337 572/572/572
f 337/337/337 573/573/573 338/338/338
f 574/574/574 338/338/338 573/573/573
f 338/338/338 574/574/574 575/575/575
f 576/576/576 575/575/575 574/574/574
f 571/571/571 333/333/333 577/577/577
f 342/342/342 577/577/577 333/333/333
f 577/577/577 342/342/342 578/578/578
f 579/579/579 578/578/578 342/342/342
f 344/344/344 579/579/579 342/342/342
f 338/338/338 575/575/575 340/340/340
f 340/340/340 575/575/575 580/580/580
f 581/581/581 580/580/580 575/575/575
f 340/340/340 580/580/580 341/341/341
f 353/353/353 341/341/341 580/580/580
f 353/353/353 580/580/580 582/582/582
f 580/580/580 583/583/583 582/582/582
f 582/582/582 583/583/583 584/584/584
f 585/585/585 584/584/584 583/583/583
f 586/586/586 584/584/584 585/585/585
f 387/387/387 339/339/339 341/341/341
f 587/587/587 579/579/579 432/432/432
f 432/432/432 589/589/589 588/588/588
f 588/588/588 589/589/589 590/590/590
f 432/432/432 591/591/591 589/589/589
f 593/593/593 592/592/592 499/499/499
f 596/596/596 595/595/595 594/594/594
f 597/597/597 594/594/594 595/595/595
f 596/596/596 594/594/594 598/598/598
f 599/599/599 598/598/598 594/594/594
f 598/598/598 599/599/599 600/600/600
f 595/595/595 596/596/596 601/601/601
f 602/602/602 601/601/601 596/596/596
f 602/602/602 603/603/603 601/601/601
f 604/604/604 601/601/601 603/603/603
f 601/601/601 604/604/604 605/605/605
f 606/606/606 605/605/605 604/604/604
f 605/605/605 606/606/606 607/607/607
f 608/608/608 607/607/607 606/606/606
f 602/602/602 609/609/609 603/603/603
f 598/598/598 600/600/600 609/609/609
f 598/598/598 609/609/609 596/596/596
f 602/602/602 596/596/596 609/609/609
f 610/610/610 603/603/603 609/609/609
f 610/610/610 609/609/609 611/611/611
f 612/612/612 611/611/611 609/609/609
f 612/612/612 609/609/609 600/600/600
f 611/611/611 612/612/612 613/613/613
f 614/614/614 613/613/613 612/612/612
f 603/603/603 615/615/615 604/604/604
f 604/604/604 616/616/616 606/606/606
f 606/606/606 617/617/617 608/608/608
f 611/611/611 618/618/618 610/610/610
f 619/619/619 618/618/618 611/611/611
f 607/607/607 620/620/620 605/605/605
f 621/621/621 605/605/605 620/620/620
f 620/620/620 622/622/622 621/621/621
f 623/623/623 621/621/621 622/622/622
f 623/623/623 624/624/624 621/621/621
f 595/595/595 621/621/621 624/624/624
f 595/595/595 601/601/601 621/621/621
f 605/605/605 621/621/621 601/601/601
f 614/614/614 612/612/612 625/625/625
f 600/600/600 625/625/625 612/612/612
f 600/600/600 626/626/626 625/625/625
f 627/627/627 625/625/625 626/626/626
f 629/629/629 600/600/600 628/628/628
f 610/610/610 630/630/630 603/603/603
f 633/633/633 632/632/632 631/631/631
f 633/633/633 634/634/634 632/632/632
f 635/635/635 632/632/632 634/634/634
f 637/637/637 631/631/631 636/636/636
f 639/639/639 634/634/634 638/638/638
f 640/640/640 638/638/638 634/634/634
f 642/642/642 641/641/641 640/640/640
f 643/643/643 640/640/640 641/641/641
f 642/642/642 644/644/644 641/641/641
f 645/645/645 641/641/641 644/644/644
f 644/644/644 646/646/646 645/645/645
f 649/649/649 648/648/648 647/647/647
f 650/650/650 647/647/647 648/648/648
f 648/648/648 649/649/649 651/651/651
f 652/652/652 651/651/651 649/649/649
f 651/651/651 652/652/652 653/653/653
f 654/654/654 653/653/653 652/652/652
f 653/653/653 654/654/654 655/655/655
f 657/657/657 656/656/656 373/373/373
f 658/658/658 373/373/373 656/656/656
f 660/660/660 659/659/659 400/400/400
f 400/400/400 659/659/659 661/661/661
f 662/662/662 396/396/396 393/393/393
f 397/397/397 663/663/663 398/398/398
f 364/364/364 380/380/380 361/361/361
f 665/665/665 525/525/525 664/664/664
f 666/666/666 664/664/664 525/525/525
f 668/668/668 522/522/522 667/667/667
f 511/511/511 669/669/669 516/516/516
f 671/671/671 670/670/670 477/477/477
f 473/473/473 477/477/477 670/670/670
f 672/672/672 474/474/474 473/473/473
f 181/181/181 184/184/184 165/165/165
f 184/184/184 164/164/164 165/165/165
f 184/184/184 161/161/161 164/164/164
