mtllib blue_war_m_pve_1_boots.mtl
o blue_war_m_pve_1_boots
usemtl blue_war_m_pve_1_boots
v -0.230882 0.039775 -0.248371
v -0.165034 -0.020924 -0.201542
v -0.157598 0.047125 -0.213362
v -0.234178 -0.022850 -0.241506
v -0.221123 0.092586 -0.229037
v -0.165025 0.094329 -0.194942
v -0.149146 0.196612 -0.205586
v -0.218658 0.203897 -0.256226
v -0.286939 0.100125 -0.201706
v -0.292839 0.221790 -0.234329
v -0.304962 0.046844 -0.217127
v -0.234178 -0.022850 -0.241506
v -0.318142 -0.019427 -0.203947
v -0.333113 0.033818 -0.159298
v -0.314771 0.070351 -0.188439
v -0.129438 0.281406 -0.237985
v -0.205752 0.309611 -0.291005
v -0.122283 0.382908 -0.244349
v -0.205666 0.391546 -0.278808
v -0.286038 0.413965 -0.241414
v -0.300353 0.307594 -0.257404
v -0.092691 0.371379 -0.152638
v -0.095499 0.316424 -0.165278
v -0.127102 0.196031 -0.146903
v -0.080039 0.451081 -0.126166
v -0.117249 0.446715 -0.230882
v -0.091093 0.462426 -0.256905
v -0.193955 0.468884 -0.298296
v -0.190707 0.450080 -0.262513
v -0.041872 0.466239 -0.121643
v -0.087732 0.555728 -0.211451
v -0.048519 0.557546 -0.118409
v -0.125083 0.572186 -0.125742
v -0.140005 0.578871 -0.157739
v -0.166897 0.586493 -0.171466
v -0.181857 0.566880 -0.253886
v -0.268027 0.581629 -0.218205
v -0.201813 0.594016 -0.165711
v -0.288197 0.486870 -0.251459
v -0.332059 0.508601 -0.133773
v -0.310156 0.600780 -0.131293
v -0.239817 0.597848 -0.116188
v -0.227214 0.597997 -0.146709
v -0.237656 0.592725 -0.070293
v -0.283078 0.605270 -0.033817
v -0.297098 0.509760 -0.029202
v -0.223876 0.605279 0.034787
v -0.228755 0.507093 0.048185
v -0.156687 0.501919 0.063322
v -0.154308 0.599774 0.049653
v -0.076025 0.573618 -0.009485
v -0.076243 0.477614 0.004433
v -0.048519 0.557546 -0.118409
v -0.123315 0.567225 -0.080549
v -0.125083 0.572186 -0.125742
v -0.041872 0.466239 -0.121643
v -0.183105 0.576600 -0.031615
v -0.156685 0.573614 -0.054179
v -0.207828 0.582181 -0.034326
v -0.270683 0.483920 -0.053993
v -0.302149 0.484386 -0.136120
v -0.195576 0.475271 -0.011000
v -0.291681 0.450540 -0.067292
v -0.214865 0.406632 -0.023749
v -0.108300 0.457806 -0.034720
v -0.128783 0.383663 -0.053483
v -0.211348 0.347860 -0.019559
v -0.125526 0.327560 -0.047677
v -0.096039 0.324818 -0.113251
v -0.092691 0.371379 -0.152638
v -0.080039 0.451081 -0.126166
v -0.267352 0.466046 -0.223413
v -0.286133 0.346138 -0.067660
v -0.276047 0.327056 -0.013633
v -0.308875 0.454412 -0.152936
v -0.324880 0.355846 -0.172949
v -0.355340 0.428562 -0.040885
v -0.340048 0.336293 -0.023510
v -0.407969 0.406065 -0.066197
v -0.411565 0.330824 -0.073591
v -0.413883 0.335820 -0.131165
v -0.416936 0.409568 -0.128035
v -0.291681 0.450540 -0.067292
v -0.373273 0.435568 -0.164562
v -0.397391 0.256822 -0.072415
v -0.406216 0.255642 -0.128769
v -0.414199 0.201631 -0.119003
v -0.402163 0.202357 -0.059706
v -0.337088 0.260160 -0.029977
v -0.345581 0.195704 -0.015521
v -0.416894 0.162974 -0.097800
v -0.406285 0.172009 -0.052076
v -0.360393 0.155008 -0.031971
v -0.382185 0.178688 -0.165381
v -0.375921 0.237834 -0.169406
v -0.331613 0.233181 -0.204835
v -0.331256 0.170607 -0.198946
v -0.342574 0.317079 -0.225769
v -0.308494 0.114538 -0.154355
v -0.355889 0.078740 -0.185585
v -0.363428 0.044107 -0.153165
v -0.364706 0.092367 -0.109644
v -0.377947 0.052633 -0.080681
v -0.375211 0.005417 -0.122154
v -0.356950 0.129199 -0.136420
v -0.375211 0.005417 -0.122154
v -0.343619 -0.001473 -0.126981
v -0.329306 -0.004597 -0.120930
v -0.341629 -0.023649 -0.131912
v -0.343619 -0.001473 -0.126981
v -0.369607 0.079098 -0.085139
v -0.364875 0.098392 -0.035133
v -0.320565 0.087383 -0.031712
v -0.320328 0.126665 0.003024
v -0.296522 0.108376 -0.010056
v -0.264244 0.144065 0.029453
v -0.319105 0.168758 -0.020727
v -0.260929 0.175064 0.009019
v -0.209783 0.167922 0.000656
v -0.204327 0.130133 0.023586
v -0.149335 0.141208 -0.027233
v -0.152484 0.101337 0.001813
v -0.124952 0.092553 -0.076518
v -0.123649 0.051285 -0.047274
v -0.123612 0.038752 -0.132957
v -0.123811 -0.003576 -0.103011
v -0.136732 0.157688 -0.007497
v -0.195553 0.196692 0.027022
v -0.155353 0.215807 0.016563
v -0.099803 0.142065 -0.065460
v -0.116257 0.077746 -0.165396
v -0.117562 0.134313 -0.104926
v -0.116519 0.134506 -0.077197
v -0.162610 -0.006401 -0.116438
v -0.165316 0.045392 -0.063664
v -0.183943 0.090569 -0.011766
v -0.213624 0.113195 0.002955
v -0.255466 0.120869 0.009223
v -0.193025 0.077668 0.028741
v -0.218754 0.094611 0.036399
v -0.131009 0.205548 -0.115384
v -0.127102 0.196031 -0.146903
v -0.167217 0.039009 0.004941
v -0.164068 -0.010582 -0.024338
v -0.252419 0.103825 0.040730
v -0.293801 0.095604 0.036576
v -0.200238 0.125718 0.054462
v -0.173669 0.099666 0.042079
v -0.152042 0.041263 0.006274
v -0.161456 0.028611 0.121618
v -0.175477 0.078651 0.121735
v -0.152711 -0.023828 0.121601
v -0.191792 -0.023828 0.187770
v -0.196163 0.032512 0.183511
v -0.143284 -0.023814 -0.032148
v -0.203013 0.094432 0.162460
v -0.239675 0.145095 0.064229
v -0.243212 0.122253 0.120292
v -0.246094 -0.023828 0.221050
v -0.246092 0.036413 0.212515
v -0.299074 0.125733 0.054827
v -0.327259 0.077538 0.027247
v -0.346308 0.092773 0.040243
v -0.344460 0.039774 0.002428
v -0.326981 0.045063 -0.083584
v -0.375211 0.005417 -0.122154
v -0.345652 -0.010582 -0.024018
v -0.329306 -0.004597 -0.120930
v -0.362357 0.041301 0.007006
v -0.346567 0.076128 0.093036
v -0.375105 0.026824 0.096306
v -0.381346 -0.022701 0.087952
v -0.366242 -0.023769 -0.031413
v -0.366242 -0.023769 -0.031413
v -0.339811 -0.024153 0.158175
v -0.336676 0.028685 0.155658
v -0.246094 -0.023828 0.221050
v -0.286914 0.089900 0.161404
v -0.313635 0.085103 0.139070
v -0.246092 0.036413 0.212515
v -0.247301 0.069810 0.204224
v -0.240800 0.165776 0.202657
v -0.243212 0.122253 0.120292
v -0.344460 0.039774 0.002428
v -0.345652 -0.010582 -0.024018
v -0.247301 0.069810 0.204224
v -0.246092 0.036413 0.212515
v -0.243212 0.122253 0.120292
v -0.249520 -0.023148 -0.119451
v -0.165034 -0.020924 -0.201542
v -0.234178 -0.022850 -0.241506
v -0.149046 -0.024202 -0.131073
v -0.318142 -0.019427 -0.203947
v -0.162610 -0.006401 -0.116438
v -0.249706 -0.010632 -0.112829
v -0.329306 -0.004597 -0.120930
v -0.341629 -0.023649 -0.131912
v -0.318142 -0.019427 -0.203947
v -0.164068 -0.010582 -0.024338
v -0.258234 -0.010632 -0.024641
v -0.345652 -0.010582 -0.024018
v -0.137582 0.231317 -0.048228
v -0.217115 0.255017 -0.023328
v -0.141054 0.254659 -0.056264
v -0.263264 0.203347 0.010730
v -0.275229 0.262299 -0.019847
v -0.334873 0.144170 -0.043427
v -0.364875 0.098392 -0.035133
v -0.380133 0.116306 -0.018447
v -0.334873 0.144170 -0.043427
v -0.404788 0.094388 -0.099860
v -0.427900 0.124037 -0.077148
v -0.380133 0.116306 -0.018447
v -0.415573 0.134996 -0.036441
v -0.381611 0.136938 -0.123418
v -0.404788 0.094388 -0.099860
v -0.380133 0.116306 -0.018447
v -0.361761 0.103338 -0.098041
v -0.361761 0.103338 -0.098041
v -0.404788 0.094388 -0.099860
v -0.361761 0.103338 -0.098041
v -0.369607 0.079098 -0.085139
v -0.149046 -0.024202 -0.131073
v -0.150322 0.030422 -0.138369
v -0.150608 0.000630 -0.117237
v -0.123612 0.038752 -0.132957
v -0.116257 0.077746 -0.165396
v -0.155415 0.077844 -0.173573
v -0.117562 0.134313 -0.104926
v -0.123811 -0.003576 -0.103011
v -0.162610 -0.006401 -0.116438
v -0.162610 -0.006401 -0.116438
v -0.150608 0.000630 -0.117237
v -0.259808 -0.023832 -0.032174
v -0.152711 -0.023828 0.121601
v -0.143284 -0.023814 -0.032148
v -0.191792 -0.023828 0.187770
v -0.246094 -0.023828 0.221050
v -0.366242 -0.023769 -0.031413
v -0.339811 -0.024153 0.158175
v -0.381346 -0.022701 0.087952
v -0.345652 -0.010582 -0.024018
v -0.366242 -0.023769 -0.031413
v -0.258234 -0.010632 -0.024641
v -0.143284 -0.023814 -0.032148
v -0.164068 -0.010582 -0.024338
v -0.375445 0.326864 -0.187618
v -0.372605 0.346133 -0.160598
v -0.373273 0.435568 -0.164562
v -0.308875 0.454412 -0.152936
v -0.373273 0.435568 -0.164562
v -0.105886 0.210103 -0.095166
v -0.115979 0.244982 -0.124100
v -0.104042 0.246980 -0.105932
v -0.082635 0.316292 -0.098437
v -0.095499 0.316424 -0.165278
v -0.082635 0.316292 -0.098437
v 0.230881 0.039775 -0.248371
v 0.165034 -0.020924 -0.201542
v 0.234178 -0.022850 -0.241507
v 0.158861 0.044520 -0.211460
v 0.221123 0.092586 -0.229037
v 0.165070 0.094843 -0.195863
v 0.149445 0.157952 -0.214313
v 0.216576 0.145808 -0.249932
v 0.294566 0.101777 -0.201756
v 0.310171 0.167044 -0.214222
v 0.307907 0.046824 -0.220226
v 0.234178 -0.022850 -0.241507
v 0.318142 -0.019427 -0.203947
v 0.332370 0.037895 -0.153856
v 0.314288 0.071311 -0.187895
v 0.355406 0.079700 -0.185040
v 0.361997 0.044073 -0.151806
v 0.364706 0.092367 -0.109644
v 0.377947 0.052633 -0.080681
v 0.375211 0.005417 -0.122155
v 0.358186 0.131829 -0.139780
v 0.308494 0.114538 -0.154356
v 0.341639 0.005433 -0.124607
v 0.329306 -0.004597 -0.120930
v 0.341629 -0.023649 -0.131912
v 0.360509 0.109467 -0.092912
v 0.350922 0.159762 -0.109158
v 0.363265 0.096662 -0.036759
v 0.320565 0.087383 -0.031713
v 0.320328 0.126665 0.003023
v 0.296522 0.108376 -0.010056
v 0.264244 0.144065 0.029453
v 0.326647 0.173982 -0.043529
v 0.257716 0.175138 0.003647
v 0.273200 0.194478 0.004766
v 0.349485 0.205054 -0.017958
v 0.205547 0.166981 0.000323
v 0.204327 0.130133 0.023585
v 0.149335 0.141208 -0.027234
v 0.152484 0.101337 0.001813
v 0.124952 0.092553 -0.076518
v 0.123649 0.051285 -0.047274
v 0.123612 0.038752 -0.132957
v 0.123811 -0.003576 -0.103011
v 0.108631 0.134800 -0.096947
v 0.151173 0.167857 -0.019678
v 0.155502 0.233534 -0.051112
v 0.123654 0.193187 -0.114874
v 0.197334 0.188016 0.017890
v 0.251734 0.193586 0.026724
v 0.200640 0.255526 -0.008363
v 0.150466 0.245381 -0.026984
v 0.150949 0.177530 0.003690
v 0.116257 0.077746 -0.165396
v 0.162610 -0.006401 -0.116438
v 0.165316 0.045392 -0.063664
v 0.183943 0.090569 -0.011767
v 0.213624 0.113195 0.002955
v 0.255466 0.120869 0.009222
v 0.193025 0.077668 0.028741
v 0.218754 0.094611 0.036399
v 0.167217 0.039009 0.004941
v 0.252419 0.103825 0.040730
v 0.293801 0.095604 0.036576
v 0.200238 0.125718 0.054462
v 0.173669 0.099666 0.042079
v 0.152042 0.041263 0.006274
v 0.161456 0.028611 0.121618
v 0.175477 0.078651 0.121735
v 0.152711 -0.023828 0.121601
v 0.191792 -0.023828 0.187770
v 0.196163 0.032512 0.183511
v 0.143284 -0.023814 -0.032148
v 0.203013 0.094432 0.162460
v 0.239675 0.145095 0.064229
v 0.243213 0.122253 0.120292
v 0.164068 -0.010582 -0.024338
v 0.162610 -0.006401 -0.116438
v 0.246094 -0.023828 0.221050
v 0.246092 0.036413 0.212514
v 0.247301 0.069810 0.204223
v 0.240800 0.165776 0.202657
v 0.243213 0.122253 0.120292
v 0.299074 0.125733 0.054826
v 0.327259 0.077538 0.027246
v 0.346308 0.092773 0.040243
v 0.344460 0.039774 0.002428
v 0.326980 0.045063 -0.083584
v 0.375211 0.005417 -0.122155
v 0.329306 -0.004597 -0.120930
v 0.345652 -0.010582 -0.024018
v 0.362357 0.041301 0.007005
v 0.346567 0.076128 0.093035
v 0.375105 0.026824 0.096305
v 0.381346 -0.022701 0.087952
v 0.366242 -0.023769 -0.031414
v 0.339811 -0.024153 0.158175
v 0.336676 0.028685 0.155658
v 0.246094 -0.023828 0.221050
v 0.286914 0.089900 0.161404
v 0.313636 0.085103 0.139070
v 0.240800 0.165776 0.202657
v 0.247301 0.069810 0.204223
v 0.246092 0.036413 0.212514
v 0.249519 -0.023148 -0.119451
v 0.165034 -0.020924 -0.201542
v 0.149046 -0.024202 -0.131073
v 0.234178 -0.022850 -0.241507
v 0.318142 -0.019427 -0.203947
v 0.341629 -0.023649 -0.131912
v 0.329306 -0.004597 -0.120930
v 0.249706 -0.010632 -0.112829
v 0.258234 -0.010632 -0.024642
v 0.164068 -0.010582 -0.024338
v 0.162610 -0.006401 -0.116438
v 0.345652 -0.010582 -0.024018
v 0.213430 0.412021 -0.024814
v 0.108300 0.457806 -0.034720
v 0.195576 0.475271 -0.011000
v 0.127068 0.391105 -0.052337
v 0.080038 0.451081 -0.126166
v 0.092691 0.371379 -0.152638
v 0.107222 0.334643 -0.161818
v 0.141668 0.351967 -0.055554
v 0.156687 0.501919 0.063322
v 0.076243 0.477614 0.004433
v 0.076025 0.573618 -0.009485
v 0.048519 0.557546 -0.118409
v 0.123315 0.567225 -0.080549
v 0.125083 0.572186 -0.125742
v 0.041872 0.466239 -0.121643
v 0.154308 0.599774 0.049653
v 0.223876 0.605279 0.034787
v 0.228755 0.507093 0.048185
v 0.297098 0.509760 -0.029203
v 0.283078 0.605270 -0.033817
v 0.310156 0.600780 -0.131293
v 0.237656 0.592725 -0.070293
v 0.239817 0.597848 -0.116188
v 0.268027 0.581629 -0.218205
v 0.227214 0.597997 -0.146709
v 0.201813 0.594016 -0.165711
v 0.332058 0.508601 -0.133773
v 0.302149 0.484386 -0.136120
v 0.270683 0.483920 -0.053993
v 0.288197 0.486870 -0.251459
v 0.181856 0.566880 -0.253886
v 0.193955 0.468884 -0.298296
v 0.091093 0.462426 -0.256906
v 0.117249 0.446715 -0.230882
v 0.188974 0.452243 -0.269410
v 0.080038 0.451081 -0.126166
v 0.122283 0.382908 -0.244349
v 0.092691 0.371379 -0.152638
v 0.130144 0.330622 -0.249083
v 0.202611 0.339120 -0.291805
v 0.198801 0.404746 -0.273641
v 0.281870 0.413003 -0.235970
v 0.296361 0.358424 -0.243215
v 0.323955 0.413326 -0.157277
v 0.344232 0.365322 -0.184823
v 0.107222 0.334643 -0.161818
v 0.271213 0.467032 -0.230350
v 0.041872 0.466239 -0.121643
v 0.310870 0.395708 -0.108659
v 0.283552 0.400355 -0.057672
v 0.370369 0.364694 -0.120369
v 0.291325 0.292010 -0.244821
v 0.340280 0.304700 -0.179276
v 0.207250 0.275254 -0.276834
v 0.289968 0.224485 -0.215280
v 0.216056 0.208559 -0.244233
v 0.144922 0.264547 -0.236396
v 0.152650 0.211943 -0.208232
v 0.131554 0.219664 -0.136430
v 0.123301 0.265242 -0.152933
v 0.358491 0.184816 -0.164989
v 0.316575 0.154185 -0.115719
v 0.342488 0.238070 -0.173140
v 0.374143 0.261388 -0.120696
v 0.370058 0.305340 -0.121438
v 0.123654 0.193187 -0.114874
v 0.108631 0.134800 -0.096947
v 0.155927 0.074713 -0.171221
v 0.150321 0.030422 -0.138370
v 0.116257 0.077746 -0.165396
v 0.123612 0.038752 -0.132957
v 0.150607 0.000630 -0.117237
v 0.149046 -0.024202 -0.131073
v 0.123811 -0.003576 -0.103011
v 0.162610 -0.006401 -0.116438
v 0.390901 0.205081 -0.117531
v 0.108631 0.134800 -0.096947
v 0.116257 0.077746 -0.165396
v 0.087732 0.555728 -0.211451
v 0.166897 0.586493 -0.171466
v 0.140005 0.578871 -0.157739
v 0.125083 0.572186 -0.125742
v 0.048519 0.557546 -0.118409
v 0.218275 0.365269 -0.027730
v 0.136638 0.334388 -0.032445
v 0.232252 0.354023 0.006207
v 0.235985 0.282200 -0.001385
v 0.263649 0.355516 -0.009825
v 0.283552 0.400355 -0.057672
v 0.265528 0.293338 -0.017649
v 0.315543 0.359191 -0.008963
v 0.149176 0.269519 -0.041167
v 0.209690 0.256835 -0.036828
v 0.161821 0.258165 -0.070782
v 0.131554 0.219664 -0.136430
v 0.266126 0.265076 -0.026107
v 0.252865 0.253469 -0.000087
v 0.333968 0.256644 -0.023576
v 0.323940 0.302387 -0.018005
v 0.123301 0.265242 -0.152933
v 0.156685 0.573614 -0.054179
v 0.183105 0.576600 -0.031615
v 0.207828 0.582181 -0.034326
v 0.341639 0.005433 -0.124607
v 0.152711 -0.023828 0.121601
v 0.259808 -0.023832 -0.032175
v 0.143284 -0.023814 -0.032148
v 0.191792 -0.023828 0.187770
v 0.246094 -0.023828 0.221050
v 0.366242 -0.023769 -0.031414
v 0.339811 -0.024153 0.158175
v 0.381346 -0.022701 0.087952
v 0.345652 -0.010582 -0.024018
v 0.258234 -0.010632 -0.024642
v 0.366242 -0.023769 -0.031414
v 0.143284 -0.023814 -0.032148
v 0.164068 -0.010582 -0.024338
v 0.162610 -0.006401 -0.116438
v 0.149046 -0.024202 -0.131073
v 0.150607 0.000630 -0.117237
v 0.366433 0.131923 -0.036367
v 0.326647 0.173982 -0.043529
v 0.349485 0.205054 -0.017958
v 0.359530 0.112205 -0.052450
v 0.391706 0.159220 -0.036073
v 0.375982 0.214091 -0.045117
v 0.416624 0.161986 -0.064398
v 0.396699 0.213183 -0.080965
v 0.459492 0.135069 -0.032113
v 0.441271 0.133891 -0.009234
v 0.433462 0.110149 0.000237
v 0.468742 0.111666 -0.043534
v 0.420303 0.136680 -0.093173
v 0.390901 0.205081 -0.117531
v 0.458354 0.087697 -0.029454
v 0.360509 0.109467 -0.092912
v 0.359530 0.112205 -0.052450
v 0.441267 0.089791 -0.008421
v 0.360509 0.109467 -0.092912
v 0.487009 0.102517 0.017913
v 0.483259 0.120172 0.025784
v 0.543134 0.159690 0.053647
v 0.489162 0.135878 0.018672
v 0.500379 0.135681 0.004807
v 0.505957 0.119834 -0.002088
v 0.498763 0.102380 0.003537
v 0.543134 0.159690 0.053647
v 0.498763 0.102380 0.003537
v 0.458354 0.087697 -0.029454
v 0.360509 0.109467 -0.092912
v 0.297597 0.432300 -0.042934
v 0.310870 0.395708 -0.108659
v 0.331263 0.449513 -0.094628
v 0.283552 0.400355 -0.057672
v 0.315150 0.425402 -0.019150
v 0.384518 0.432873 -0.049151
v 0.358737 0.422822 -0.015138
v 0.315543 0.359191 -0.008963
v 0.364005 0.364214 -0.029343
v 0.383408 0.367867 -0.066556
v 0.384518 0.432873 -0.049151
v 0.323940 0.302387 -0.018005
v 0.361300 0.306012 -0.037661
v 0.283552 0.400355 -0.057672
v 0.297597 0.432300 -0.042934
v 0.365096 0.264236 -0.041742
v 0.382010 0.309976 -0.075719
v 0.385008 0.267488 -0.083072
v 0.370058 0.305340 -0.121438
v 0.374143 0.261388 -0.120696
v 0.333968 0.256644 -0.023576
v 0.370369 0.364694 -0.120369
v 0.384518 0.432873 -0.049151
v 0.366711 0.445504 -0.087177
v 0.310870 0.395708 -0.108659
v 0.331263 0.449513 -0.094628
v 0.331263 0.449513 -0.094628
v 0.297597 0.432300 -0.042934
v 0.384518 0.432873 -0.049151
v 0.359530 0.112205 -0.052450
v 0.360509 0.109467 -0.092912
v 0.359530 0.112205 -0.052450
v 0.350922 0.159762 -0.109158
v 0.390901 0.205081 -0.117531
v 0.350922 0.159762 -0.109158
v 0.350922 0.159762 -0.109158
v 0.390901 0.205081 -0.117531
v 0.350922 0.159762 -0.109158
v 0.360509 0.109467 -0.092912
vt 0.611897 0.415447
vt 0.576560 0.371029
vt 0.571638 0.427739
vt 0.611998 0.366866
vt 0.608401 0.462792
vt 0.568784 0.473204
vt 0.569729 0.567028
vt 0.615099 0.561356
vt 0.650422 0.453301
vt 0.655508 0.558515
vt 0.651517 0.403191
vt 0.611998 0.366866
vt 0.655750 0.345188
vt 0.684055 0.374534
vt 0.668634 0.413639
vt 0.580557 0.648758
vt 0.624005 0.655903
vt 0.593251 0.737522
vt 0.635860 0.723818
vt 0.680317 0.723488
vt 0.665760 0.631783
vt 0.546230 0.750034
vt 0.546020 0.690027
vt 0.535903 0.572247
vt 0.546499 0.831809
vt 0.598907 0.797546
vt 0.604727 0.829753
vt 0.646046 0.805467
vt 0.640076 0.776543
vt 0.546959 0.880237
vt 0.613611 0.914399
vt 0.577601 0.958203
vt 0.617892 0.991063
vt 0.638411 0.973705
vt 0.663906 0.964748
vt 0.658265 0.891190
vt 0.700161 0.885234
vt 0.693840 0.957849
vt 0.686889 0.799804
vt 0.741055 0.806088
vt 0.742604 0.891266
vt 0.747861 0.956975
vt 0.719949 0.953687
vt 0.782551 0.960626
vt 0.784807 0.905023
vt 0.786658 0.814421
vt 0.820811 0.912433
vt 0.825358 0.831119
vt 0.847244 0.838810
vt 0.844498 0.911232
vt 0.886137 0.895729
vt 0.883999 0.824272
vt 0.941362 0.883184
vt 0.909919 0.947964
vt 0.936006 0.952961
vt 0.939210 0.798571
vt 0.852229 0.974684
vt 0.883865 0.970533
vt 0.820552 0.969342
vt 0.789695 0.768976
vt 0.740817 0.767495
vt 0.836532 0.774380
vt 0.786595 0.732183
vt 0.840496 0.713746
vt 0.884606 0.778938
vt 0.890264 0.709684
vt 0.853886 0.656993
vt 0.896989 0.658734
vt 0.931733 0.664405
vt 0.945277 0.710433
vt 0.931405 0.771253
vt 0.687614 0.766355
vt 0.816563 0.655615
vt 0.830417 0.615917
vt 0.734132 0.740850
vt 0.706932 0.667402
vt 0.783656 0.681435
vt 0.802217 0.613951
vt 0.768175 0.656094
vt 0.763114 0.604483
vt 0.737588 0.615930
vt 0.745727 0.663825
vt 0.786595 0.732183
vt 0.734563 0.695967
vt 0.764127 0.548135
vt 0.734484 0.554666
vt 0.736395 0.513481
vt 0.765539 0.503896
vt 0.802799 0.549477
vt 0.800524 0.491440
vt 0.742288 0.483038
vt 0.765496 0.481074
vt 0.788034 0.459423
vt 0.708455 0.505879
vt 0.708131 0.549860
vt 0.680002 0.556663
vt 0.681395 0.508688
vt 0.686548 0.625759
vt 0.679295 0.453190
vt 0.687099 0.413800
vt 0.697587 0.386308
vt 0.722639 0.421423
vt 0.737622 0.387413
vt 0.711390 0.361731
vt 0.707633 0.455255
vt 0.711390 0.361731
vt 0.703462 0.339951
vt 0.711989 0.329371
vt 0.696554 0.322764
vt 0.703462 0.339951
vt 0.740562 0.411822
vt 0.771786 0.413100
vt 0.785132 0.374382
vt 0.809287 0.412892
vt 0.814024 0.382394
vt 0.844205 0.421136
vt 0.809756 0.458081
vt 0.844326 0.460086
vt 0.872558 0.460903
vt 0.876975 0.416840
vt 0.911077 0.462868
vt 0.909256 0.415337
vt 0.947463 0.451501
vt 0.945916 0.407855
vt 0.984476 0.438583
vt 0.983183 0.398244
vt 0.901675 0.488344
vt 0.873173 0.500071
vt 0.885975 0.519057
vt 0.925606 0.497317
vt 0.990569 0.479286
vt 0.952266 0.496589
vt 0.940060 0.486787
vt 0.986820 0.369799
vt 0.947268 0.370528
vt 0.906084 0.378562
vt 0.878664 0.385311
vt 0.847465 0.386837
vt 0.901088 0.335997
vt 0.879221 0.348060
vt 0.945992 0.560413
vt 0.961527 0.561336
vt 0.931022 0.319982
vt 0.961886 0.308663
vt 0.853023 0.351952
vt 0.824852 0.343305
vt 0.883096 0.313305
vt 0.901016 0.306648
vt 0.935602 0.298912
vt 0.906772 0.209495
vt 0.892144 0.239144
vt 0.919823 0.173847
vt 0.881945 0.129594
vt 0.880496 0.172891
vt 0.972219 0.282383
vt 0.876701 0.221094
vt 0.860871 0.314906
vt 0.858601 0.271958
vt 0.842227 0.120440
vt 0.852362 0.162664
vt 0.829597 0.315380
vt 0.802476 0.330173
vt 0.804652 0.305145
vt 0.778841 0.317517
vt 0.745594 0.354283
vt 0.711390 0.361731
vt 0.755344 0.296746
vt 0.711989 0.329371
vt 0.777326 0.303014
vt 0.807761 0.261102
vt 0.785406 0.238584
vt 0.766116 0.228895
vt 0.753062 0.301442
vt 0.753062 0.301442
vt 0.791316 0.174478
vt 0.804358 0.198519
vt 0.842227 0.120440
vt 0.833543 0.222291
vt 0.824953 0.234715
vt 0.852362 0.162664
vt 0.853591 0.175893
vt 0.857804 0.223538
vt 0.858601 0.271958
vt 0.778841 0.317517
vt 0.755344 0.296746
vt 0.853591 0.175893
vt 0.852362 0.162664
vt 0.858601 0.271958
vt 0.644048 0.080270
vt 0.602538 0.126058
vt 0.592766 0.071022
vt 0.629754 0.148644
vt 0.615928 0.018231
vt 0.640522 0.143287
vt 0.650149 0.082357
vt 0.654963 0.024897
vt 0.647209 0.013716
vt 0.615928 0.018231
vt 0.678140 0.157075
vt 0.687043 0.090869
vt 0.695679 0.029562
vt 0.908482 0.562796
vt 0.862595 0.568799
vt 0.905656 0.586209
vt 0.842585 0.494856
vt 0.834178 0.558613
vt 0.795527 0.441267
vt 0.771786 0.413100
vt 0.773797 0.431933
vt 0.795527 0.441267
vt 0.736713 0.434362
vt 0.748385 0.452967
vt 0.773797 0.431933
vt 0.764180 0.452244
vt 0.721082 0.463097
vt 0.736713 0.434362
vt 0.773797 0.431933
vt 0.726626 0.424126
vt 0.726626 0.424126
vt 0.736713 0.434362
vt 0.726626 0.424126
vt 0.740562 0.411822
vt 0.549217 0.343332
vt 0.539648 0.390871
vt 0.535918 0.354150
vt 0.528119 0.398767
vt 0.529507 0.444327
vt 0.549155 0.448372
vt 0.514491 0.509585
vt 0.520800 0.353185
vt 0.538834 0.340628
vt 0.538834 0.340628
vt 0.535918 0.354150
vt 0.693409 0.092326
vt 0.745866 0.192717
vt 0.682400 0.174155
vt 0.776516 0.176110
vt 0.795217 0.143433
vt 0.703849 0.017739
vt 0.778514 0.067332
vt 0.753869 0.026662
vt 0.695679 0.029562
vt 0.703849 0.017739
vt 0.687043 0.090869
vt 0.682400 0.174155
vt 0.678140 0.157075
vt 0.707271 0.621718
vt 0.716267 0.638516
vt 0.734563 0.695967
vt 0.734132 0.740850
vt 0.734563 0.695967
vt 0.929657 0.551727
vt 0.944071 0.598707
vt 0.930965 0.607187
vt 0.922581 0.651539
vt 0.956576 0.668657
vt 0.922581 0.651539
vt 0.396543 0.361478
vt 0.444059 0.318952
vt 0.402612 0.303050
vt 0.439441 0.379879
vt 0.394808 0.416251
vt 0.434861 0.430281
vt 0.426136 0.494229
vt 0.389146 0.472197
vt 0.346939 0.405589
vt 0.334758 0.470766
vt 0.353415 0.348108
vt 0.402612 0.303050
vt 0.353754 0.281806
vt 0.318707 0.319403
vt 0.333953 0.364512
vt 0.313551 0.361104
vt 0.303187 0.328803
vt 0.272090 0.362588
vt 0.265468 0.320508
vt 0.292387 0.297291
vt 0.287534 0.397032
vt 0.316922 0.408219
vt 0.304537 0.281285
vt 0.298362 0.265609
vt 0.312976 0.257210
vt 0.260100 0.374251
vt 0.274187 0.426075
vt 0.233392 0.331018
vt 0.220449 0.291021
vt 0.197573 0.334883
vt 0.192123 0.301931
vt 0.163060 0.348370
vt 0.210742 0.395789
vt 0.165819 0.396380
vt 0.175346 0.426123
vt 0.217536 0.439602
vt 0.134416 0.396845
vt 0.129208 0.351300
vt 0.096486 0.403996
vt 0.094876 0.356173
vt 0.055306 0.402380
vt 0.054977 0.360185
vt 0.012414 0.395125
vt 0.013266 0.353498
vt 0.056278 0.443099
vt 0.104381 0.424087
vt 0.105593 0.501369
vt 0.062806 0.489938
vt 0.135804 0.424745
vt 0.162217 0.424259
vt 0.139256 0.493210
vt 0.113636 0.491903
vt 0.112290 0.428470
vt 0.009911 0.440492
vt 0.010246 0.327926
vt 0.052173 0.323543
vt 0.096486 0.320178
vt 0.126272 0.319880
vt 0.158091 0.312713
vt 0.102216 0.278351
vt 0.125559 0.281108
vt 0.069982 0.270252
vt 0.152038 0.275413
vt 0.180951 0.258659
vt 0.121142 0.244344
vt 0.102686 0.247505
vt 0.065866 0.255340
vt 0.074973 0.145261
vt 0.098510 0.168580
vt 0.050837 0.120993
vt 0.081088 0.052037
vt 0.098469 0.092083
vt 0.025242 0.259445
vt 0.111944 0.142152
vt 0.142342 0.236733
vt 0.139759 0.189305
vt 0.037145 0.267653
vt 0.010246 0.327926
vt 0.122719 0.016196
vt 0.126998 0.066408
vt 0.130251 0.085145
vt 0.132595 0.140762
vt 0.139759 0.189305
vt 0.173887 0.227940
vt 0.205049 0.237374
vt 0.201376 0.211016
vt 0.233126 0.218608
vt 0.261077 0.279102
vt 0.292387 0.297291
vt 0.298362 0.265609
vt 0.264405 0.203189
vt 0.233370 0.200398
vt 0.192719 0.159407
vt 0.213979 0.121705
vt 0.234976 0.093113
vt 0.273379 0.186406
vt 0.194362 0.038628
vt 0.185206 0.082494
vt 0.122719 0.016196
vt 0.158428 0.125902
vt 0.168709 0.135954
vt 0.132595 0.140762
vt 0.130251 0.085145
vt 0.126998 0.066408
vt 0.665364 0.254432
vt 0.701367 0.198670
vt 0.672910 0.184251
vt 0.715914 0.249323
vt 0.698336 0.306837
vt 0.668440 0.319796
vt 0.659894 0.311088
vt 0.659260 0.254084
vt 0.622721 0.255959
vt 0.625243 0.189357
vt 0.662969 0.192397
vt 0.620007 0.317739
vt 0.155478 0.686314
vt 0.094144 0.744646
vt 0.149206 0.747196
vt 0.101443 0.675099
vt 0.040910 0.724082
vt 0.044205 0.643547
vt 0.046254 0.611136
vt 0.107593 0.632351
vt 0.131315 0.815343
vt 0.090098 0.793079
vt 0.087006 0.883465
vt 0.027343 0.880532
vt 0.066836 0.949331
vt 0.039934 0.960909
vt 0.025230 0.774009
vt 0.134295 0.896391
vt 0.164115 0.901093
vt 0.157634 0.812434
vt 0.201529 0.799942
vt 0.206017 0.897568
vt 0.253867 0.881850
vt 0.214539 0.951763
vt 0.254775 0.946483
vt 0.302360 0.871778
vt 0.286457 0.944044
vt 0.316223 0.946823
vt 0.252606 0.792100
vt 0.252222 0.756303
vt 0.200221 0.754472
vt 0.312775 0.777523
vt 0.350283 0.874566
vt 0.361134 0.778390
vt 0.409041 0.808987
vt 0.414026 0.778354
vt 0.366000 0.757156
vt 0.473866 0.814138
vt 0.414932 0.717395
vt 0.468065 0.723491
vt 0.415650 0.668114
vt 0.373221 0.658642
vt 0.366822 0.716081
vt 0.314701 0.701455
vt 0.317867 0.650976
vt 0.265023 0.687111
vt 0.278605 0.637590
vt 0.463525 0.676575
vt 0.311406 0.750391
vt 0.474568 0.868631
vt 0.235920 0.673015
vt 0.200674 0.671178
vt 0.243295 0.614003
vt 0.331373 0.594840
vt 0.288181 0.583847
vt 0.378840 0.602465
vt 0.335844 0.527871
vt 0.383156 0.533079
vt 0.417743 0.602731
vt 0.425605 0.547177
vt 0.467496 0.557212
vt 0.463982 0.602132
vt 0.294702 0.478505
vt 0.290638 0.423828
vt 0.296705 0.525470
vt 0.260323 0.531024
vt 0.254644 0.565795
vt 0.477354 0.539066
vt 0.489253 0.498338
vt 0.458614 0.412784
vt 0.478585 0.366652
vt 0.480298 0.422406
vt 0.489898 0.383198
vt 0.491154 0.336475
vt 0.481149 0.315047
vt 0.507440 0.347027
vt 0.492277 0.323116
vt 0.261299 0.480192
vt 0.489253 0.498338
vt 0.480298 0.422406
vt 0.401180 0.902319
vt 0.349513 0.952136
vt 0.378404 0.963028
vt 0.398690 0.985499
vt 0.443483 0.957611
vt 0.157871 0.639294
vt 0.114245 0.611832
vt 0.167822 0.608587
vt 0.161644 0.543513
vt 0.183917 0.609563
vt 0.200674 0.671178
vt 0.179234 0.543261
vt 0.212164 0.601802
vt 0.111883 0.553418
vt 0.138945 0.519891
vt 0.102691 0.533199
vt 0.058637 0.514529
vt 0.174815 0.508975
vt 0.165210 0.485185
vt 0.211472 0.492804
vt 0.210778 0.542146
vt 0.053556 0.552076
vt 0.099962 0.968134
vt 0.136297 0.968753
vt 0.171375 0.963569
vt 0.304537 0.281285
vt 0.556324 0.173402
vt 0.616418 0.256294
vt 0.619539 0.173975
vt 0.528154 0.197905
vt 0.513044 0.234703
vt 0.613180 0.331439
vt 0.536250 0.303868
vt 0.563884 0.336518
vt 0.620007 0.317739
vt 0.622721 0.255959
vt 0.613180 0.331439
vt 0.619539 0.173975
vt 0.625243 0.189357
vt 0.492277 0.323116
vt 0.481149 0.315047
vt 0.491154 0.336475
vt 0.353099 0.066760
vt 0.385615 0.063860
vt 0.385602 0.100964
vt 0.355808 0.043163
vt 0.347323 0.101479
vt 0.376743 0.128703
vt 0.337700 0.137048
vt 0.367605 0.159860
vt 0.305881 0.113512
vt 0.311744 0.087169
vt 0.312426 0.061662
vt 0.296631 0.134518
vt 0.326624 0.170374
vt 0.362823 0.189233
vt 0.284806 0.152519
vt 0.320385 0.230229
vt 0.355808 0.043163
vt 0.310186 0.039466
vt 0.367996 0.012011
vt 0.284889 0.044229
vt 0.283105 0.061245
vt 0.243187 0.064326
vt 0.280493 0.076114
vt 0.277725 0.090474
vt 0.274780 0.104425
vt 0.270577 0.119671
vt 0.243187 0.064326
vt 0.281552 0.028395
vt 0.307252 0.015108
vt 0.367996 0.012011
vt 0.506049 0.145074
vt 0.523655 0.084050
vt 0.538073 0.130663
vt 0.498989 0.113561
vt 0.494748 0.163866
vt 0.476320 0.220207
vt 0.480239 0.187449
vt 0.463241 0.131983
vt 0.452773 0.174321
vt 0.445186 0.209098
vt 0.476320 0.220207
vt 0.432909 0.120246
vt 0.425012 0.155876
vt 0.498989 0.113561
vt 0.506049 0.145074
vt 0.403865 0.143966
vt 0.417136 0.193051
vt 0.395443 0.181181
vt 0.405035 0.230262
vt 0.385855 0.211641
vt 0.409464 0.113360
vt 0.434773 0.253709
vt 0.476320 0.220207
vt 0.483401 0.248391
vt 0.456269 0.303143
vt 0.483970 0.281037
vt 0.502731 0.241047
vt 0.508436 0.182697
vt 0.476320 0.220207
vt 0.236933 0.353023
vt 0.260100 0.374251
vt 0.236933 0.353023
vt 0.274187 0.426075
vt 0.261299 0.480192
vt 0.274187 0.426075
vt 0.346018 0.229924
vt 0.362823 0.189233
vt 0.346018 0.229924
vt 0.320385 0.230229
f 3/3/3 2/2/2 1/1/1
f 4/4/4 1/1/1 2/2/2
f 1/1/1 5/5/5 3/3/3
f 6/6/6 3/3/3 5/5/5
f 6/6/6 5/5/5 7/7/7
f 8/8/8 7/7/7 5/5/5
f 5/5/5 9/9/9 8/8/8
f 10/10/10 8/8/8 9/9/9
f 1/1/1 11/11/11 5/5/5
f 9/9/9 5/5/5 11/11/11
f 1/1/1 12/12/12 11/11/11
f 13/13/13 11/11/11 12/12/12
f 13/13/13 14/14/14 11/11/11
f 15/15/15 11/11/11 14/14/14
f 11/11/11 15/15/15 9/9/9
f 7/7/7 8/8/8 16/16/16
f 17/17/17 16/16/16 8/8/8
f 8/8/8 10/10/10 17/17/17
f 16/16/16 17/17/17 18/18/18
f 19/19/19 18/18/18 17/17/17
f 19/19/19 17/17/17 20/20/20
f 21/21/21 20/20/20 17/17/17
f 21/21/21 17/17/17 10/10/10
f 18/18/18 22/22/22 16/16/16
f 23/23/23 16/16/16 22/22/22
f 23/23/23 24/24/24 16/16/16
f 7/7/7 16/16/16 24/24/24
f 22/22/22 18/18/18 25/25/25
f 26/26/26 25/25/25 18/18/18
f 26/26/26 27/27/27 25/25/25
f 27/27/27 26/26/26 28/28/28
f 29/29/29 28/28/28 26/26/26
f 26/26/26 18/18/18 29/29/29
f 19/19/19 29/29/29 18/18/18
f 19/19/19 20/20/20 29/29/29
f 30/30/30 25/25/25 27/27/27
f 27/27/27 31/31/31 30/30/30
f 32/32/32 30/30/30 31/31/31
f 32/32/32 31/31/31 33/33/33
f 34/34/34 33/33/33 31/31/31
f 34/34/34 31/31/31 35/35/35
f 36/36/36 35/35/35 31/31/31
f 28/28/28 36/36/36 27/27/27
f 31/31/31 27/27/27 36/36/36
f 36/36/36 37/37/37 35/35/35
f 38/38/38 35/35/35 37/37/37
f 28/28/28 39/39/39 36/36/36
f 37/37/37 36/36/36 39/39/39
f 28/28/28 29/29/29 39/39/39
f 39/39/39 40/40/40 37/37/37
f 41/41/41 37/37/37 40/40/40
f 41/41/41 42/42/42 37/37/37
f 43/43/43 37/37/37 42/42/42
f 43/43/43 38/38/38 37/37/37
f 42/42/42 41/41/41 44/44/44
f 45/45/45 44/44/44 41/41/41
f 40/40/40 46/46/46 41/41/41
f 45/45/45 41/41/41 46/46/46
f 45/45/45 46/46/46 47/47/47
f 48/48/48 47/47/47 46/46/46
f 48/48/48 49/49/49 47/47/47
f 50/50/50 47/47/47 49/49/49
f 50/50/50 49/49/49 51/51/51
f 52/52/52 51/51/51 49/49/49
f 51/51/51 52/52/52 53/53/53
f 51/51/51 53/53/53 54/54/54
f 55/55/55 54/54/54 53/53/53
f 56/56/56 53/53/53 52/52/52
f 50/50/50 51/51/51 57/57/57
f 50/50/50 57/57/57 47/47/47
f 58/58/58 57/57/57 51/51/51
f 54/54/54 58/58/58 51/51/51
f 44/44/44 45/45/45 59/59/59
f 47/47/47 59/59/59 45/45/45
f 59/59/59 47/47/47 57/57/57
f 46/46/46 60/60/60 48/48/48
f 60/60/60 46/46/46 61/61/61
f 40/40/40 61/61/61 46/46/46
f 62/62/62 48/48/48 60/60/60
f 48/48/48 62/62/62 49/49/49
f 60/60/60 63/63/63 62/62/62
f 60/60/60 61/61/61 63/63/63
f 64/64/64 62/62/62 63/63/63
f 62/62/62 64/64/64 65/65/65
f 52/52/52 65/65/65 56/56/56
f 66/66/66 65/65/65 64/64/64
f 64/64/64 67/67/67 66/66/66
f 64/64/64 63/63/63 67/67/67
f 68/68/68 66/66/66 67/67/67
f 68/68/68 69/69/69 66/66/66
f 70/70/70 66/66/66 69/69/69
f 65/65/65 66/66/66 71/71/71
f 70/70/70 71/71/71 66/66/66
f 62/62/62 65/65/65 49/49/49
f 52/52/52 49/49/49 65/65/65
f 71/71/71 56/56/56 65/65/65
f 61/61/61 40/40/40 72/72/72
f 39/39/39 72/72/72 40/40/40
f 72/72/72 39/39/39 29/29/29
f 72/72/72 29/29/29 20/20/20
f 73/73/73 67/67/67 63/63/63
f 67/67/67 73/73/73 74/74/74
f 20/20/20 75/75/75 72/72/72
f 61/61/61 72/72/72 75/75/75
f 20/20/20 76/76/76 75/75/75
f 75/75/75 63/63/63 61/61/61
f 63/63/63 75/75/75 77/77/77
f 77/77/77 78/78/78 63/63/63
f 74/74/74 73/73/73 78/78/78
f 77/77/77 79/79/79 78/78/78
f 80/80/80 78/78/78 79/79/79
f 80/80/80 79/79/79 81/81/81
f 82/82/82 81/81/81 79/79/79
f 79/79/79 77/77/77 82/82/82
f 73/73/73 83/83/83 78/78/78
f 84/84/84 77/77/77 75/75/75
f 84/84/84 82/82/82 77/77/77
f 80/80/80 81/81/81 85/85/85
f 86/86/86 85/85/85 81/81/81
f 86/86/86 87/87/87 85/85/85
f 88/88/88 85/85/85 87/87/87
f 85/85/85 88/88/88 89/89/89
f 78/78/78 80/80/80 89/89/89
f 85/85/85 89/89/89 80/80/80
f 90/90/90 89/89/89 88/88/88
f 87/87/87 91/91/91 88/88/88
f 92/92/92 88/88/88 91/91/91
f 88/88/88 92/92/92 90/90/90
f 93/93/93 90/90/90 92/92/92
f 87/87/87 86/86/86 94/94/94
f 95/95/95 94/94/94 86/86/86
f 95/95/95 96/96/96 94/94/94
f 97/97/97 94/94/94 96/96/96
f 96/96/96 10/10/10 97/97/97
f 96/96/96 98/98/98 10/10/10
f 96/96/96 95/95/95 98/98/98
f 21/21/21 10/10/10 98/98/98
f 10/10/10 9/9/9 97/97/97
f 9/9/9 99/99/99 97/97/97
f 99/99/99 9/9/9 15/15/15
f 15/15/15 100/100/100 99/99/99
f 15/15/15 14/14/14 100/100/100
f 101/101/101 100/100/100 14/14/14
f 101/101/101 102/102/102 100/100/100
f 102/102/102 101/101/101 103/103/103
f 104/104/104 103/103/103 101/101/101
f 105/105/105 100/100/100 102/102/102
f 105/105/105 99/99/99 100/100/100
f 99/99/99 105/105/105 97/97/97
f 101/101/101 14/14/14 106/106/106
f 107/107/107 106/106/106 14/14/14
f 107/107/107 108/108/108 104/104/104
f 107/107/107 14/14/14 109/109/109
f 110/110/110 109/109/109 108/108/108
f 13/13/13 109/109/109 14/14/14
f 111/111/111 102/102/102 103/103/103
f 112/112/112 111/111/111 103/103/103
f 112/112/112 103/103/103 113/113/113
f 112/112/112 113/113/113 114/114/114
f 115/115/115 114/114/114 113/113/113
f 114/114/114 115/115/115 116/116/116
f 114/114/114 116/116/116 117/117/117
f 114/114/114 117/117/117 112/112/112
f 118/118/118 117/117/117 116/116/116
f 118/118/118 116/116/116 119/119/119
f 120/120/120 119/119/119 116/116/116
f 119/119/119 120/120/120 121/121/121
f 122/122/122 121/121/121 120/120/120
f 121/121/121 122/122/122 123/123/123
f 124/124/124 123/123/123 122/122/122
f 123/123/123 124/124/124 125/125/125
f 126/126/126 125/125/125 124/124/124
f 121/121/121 127/127/127 119/119/119
f 128/128/128 119/119/119 127/127/127
f 119/119/119 128/128/128 118/118/118
f 127/127/127 129/129/129 128/128/128
f 127/127/127 130/130/130 129/129/129
f 127/127/127 121/121/121 130/130/130
f 125/125/125 131/131/131 123/123/123
f 132/132/132 123/123/123 131/131/131
f 133/133/133 123/123/123 132/132/132
f 133/133/133 130/130/130 121/121/121
f 121/121/121 123/123/123 133/133/133
f 126/126/126 124/124/124 134/134/134
f 135/135/135 134/134/134 124/124/124
f 124/124/124 122/122/122 135/135/135
f 122/122/122 120/120/120 136/136/136
f 136/136/136 135/135/135 122/122/122
f 137/137/137 136/136/136 120/120/120
f 137/137/137 120/120/120 138/138/138
f 116/116/116 138/138/138 120/120/120
f 138/138/138 116/116/116 115/115/115
f 136/136/136 137/137/137 139/139/139
f 140/140/140 139/139/139 137/137/137
f 137/137/137 138/138/138 140/140/140
f 133/133/133 132/132/132 141/141/141
f 142/142/142 141/141/141 132/132/132
f 135/135/135 143/143/143 134/134/134
f 139/139/139 143/143/143 136/136/136
f 135/135/135 136/136/136 143/143/143
f 144/144/144 134/134/134 143/143/143
f 138/138/138 115/115/115 145/145/145
f 145/145/145 140/140/140 138/138/138
f 146/146/146 145/145/145 115/115/115
f 140/140/140 147/147/147 139/139/139
f 140/140/140 145/145/145 147/147/147
f 148/148/148 139/139/139 147/147/147
f 143/143/143 139/139/139 149/149/149
f 148/148/148 149/149/149 139/139/139
f 143/143/143 149/149/149 144/144/144
f 149/149/149 148/148/148 150/150/150
f 151/151/151 150/150/150 148/148/148
f 148/148/148 147/147/147 151/151/151
f 150/150/150 152/152/152 149/149/149
f 152/152/152 150/150/150 153/153/153
f 154/154/154 153/153/153 150/150/150
f 150/150/150 151/151/151 154/154/154
f 155/155/155 149/149/149 152/152/152
f 155/155/155 144/144/144 149/149/149
f 156/156/156 154/154/154 151/151/151
f 156/156/156 151/151/151 147/147/147
f 147/147/147 157/157/157 156/156/156
f 157/157/157 147/147/147 145/145/145
f 158/158/158 156/156/156 157/157/157
f 153/153/153 154/154/154 159/159/159
f 160/160/160 159/159/159 154/154/154
f 154/154/154 156/156/156 160/160/160
f 157/157/157 145/145/145 161/161/161
f 157/157/157 161/161/161 158/158/158
f 146/146/146 161/161/161 145/145/145
f 146/146/146 162/162/162 161/161/161
f 163/163/163 161/161/161 162/162/162
f 162/162/162 164/164/164 163/163/163
f 162/162/162 113/113/113 164/164/164
f 165/165/165 164/164/164 113/113/113
f 165/165/165 113/113/113 103/103/103
f 103/103/103 166/166/166 165/165/165
f 108/108/108 165/165/165 166/166/166
f 164/164/164 165/165/165 167/167/167
f 168/168/168 167/167/167 165/165/165
f 169/169/169 163/163/163 164/164/164
f 163/163/163 169/169/169 170/170/170
f 163/163/163 170/170/170 161/161/161
f 171/171/171 170/170/170 169/169/169
f 171/171/171 169/169/169 172/172/172
f 173/173/173 172/172/172 169/169/169
f 169/169/169 164/164/164 174/174/174
f 172/172/172 175/175/175 171/171/171
f 176/176/176 171/171/171 175/175/175
f 171/171/171 176/176/176 170/170/170
f 176/176/176 175/175/175 160/160/160
f 177/177/177 160/160/160 175/175/175
f 176/176/176 160/160/160 178/178/178
f 179/179/179 170/170/170 176/176/176
f 179/179/179 176/176/176 178/178/178
f 178/178/178 161/161/161 179/179/179
f 179/179/179 161/161/161 170/170/170
f 178/178/178 158/158/158 161/161/161
f 181/181/181 178/178/178 180/180/180
f 182/182/182 178/178/178 181/181/181
f 182/182/182 183/183/183 178/178/178
f 185/185/185 173/173/173 184/184/184
f 182/182/182 186/186/186 156/156/156
f 186/186/186 187/187/187 156/156/156
f 182/182/182 156/156/156 188/188/188
f 191/191/191 190/190/190 189/189/189
f 192/192/192 189/189/189 190/190/190
f 191/191/191 189/189/189 193/193/193
f 192/192/192 194/194/194 189/189/189
f 195/195/195 189/189/189 194/194/194
f 195/195/195 196/196/196 189/189/189
f 197/197/197 189/189/189 196/196/196
f 197/197/197 198/198/198 189/189/189
f 194/194/194 199/199/199 195/195/195
f 200/200/200 195/195/195 199/199/199
f 195/195/195 200/200/200 196/196/196
f 201/201/201 196/196/196 200/200/200
f 204/204/204 203/203/203 202/202/202
f 203/203/203 129/129/129 202/202/202
f 128/128/128 129/129/129 203/203/203
f 128/128/128 203/203/203 205/205/205
f 206/206/206 205/205/205 203/203/203
f 205/205/205 118/118/118 128/128/128
f 203/203/203 67/67/67 206/206/206
f 74/74/74 206/206/206 67/67/67
f 74/74/74 78/78/78 206/206/206
f 89/89/89 206/206/206 78/78/78
f 206/206/206 89/89/89 205/205/205
f 118/118/118 205/205/205 117/117/117
f 90/90/90 117/117/117 205/205/205
f 90/90/90 205/205/205 89/89/89
f 117/117/117 90/90/90 207/207/207
f 93/93/93 207/207/207 90/90/90
f 207/207/207 93/93/93 208/208/208
f 209/209/209 208/208/208 93/93/93
f 210/210/210 112/112/112 117/117/117
f 111/111/111 112/112/112 211/211/211
f 211/211/211 112/112/112 212/212/212
f 212/212/212 112/112/112 213/213/213
f 214/214/214 212/212/212 213/213/213
f 214/214/214 92/92/92 212/212/212
f 92/92/92 214/214/214 93/93/93
f 91/91/91 212/212/212 92/92/92
f 91/91/91 215/215/215 212/212/212
f 216/216/216 212/212/212 215/215/215
f 217/217/217 93/93/93 214/214/214
f 91/91/91 87/87/87 215/215/215
f 94/94/94 215/215/215 87/87/87
f 94/94/94 97/97/97 215/215/215
f 105/105/105 215/215/215 97/97/97
f 215/215/215 105/105/105 218/218/218
f 219/219/219 102/102/102 111/111/111
f 102/102/102 219/219/219 105/105/105
f 215/215/215 221/221/221 220/220/220
f 222/222/222 220/220/220 221/221/221
f 2/2/2 224/224/224 223/223/223
f 225/225/225 223/223/223 224/224/224
f 224/224/224 226/226/226 225/225/225
f 226/226/226 224/224/224 227/227/227
f 228/228/228 227/227/227 224/224/224
f 227/227/227 228/228/228 229/229/229
f 230/230/230 225/225/225 226/226/226
f 228/228/228 224/224/224 3/3/3
f 2/2/2 3/3/3 224/224/224
f 231/231/231 225/225/225 230/230/230
f 229/229/229 228/228/228 6/6/6
f 3/3/3 6/6/6 228/228/228
f 6/6/6 7/7/7 229/229/229
f 24/24/24 229/229/229 7/7/7
f 223/223/223 233/233/233 232/232/232
f 236/236/236 235/235/235 234/234/234
f 235/235/235 237/237/237 234/234/234
f 237/237/237 238/238/238 234/234/234
f 234/234/234 238/238/238 239/239/239
f 238/238/238 240/240/240 239/239/239
f 240/240/240 241/241/241 239/239/239
f 243/243/243 242/242/242 234/234/234
f 244/244/244 234/234/234 242/242/242
f 234/234/234 244/244/244 245/245/245
f 246/246/246 245/245/245 244/244/244
f 113/113/113 162/162/162 115/115/115
f 146/146/146 115/115/115 162/162/162
f 81/81/81 248/248/248 247/247/247
f 248/248/248 76/76/76 247/247/247
f 98/98/98 247/247/247 76/76/76
f 247/247/247 98/98/98 95/95/95
f 81/81/81 247/247/247 86/86/86
f 95/95/95 86/86/86 247/247/247
f 248/248/248 249/249/249 76/76/76
f 250/250/250 76/76/76 249/249/249
f 81/81/81 82/82/82 248/248/248
f 251/251/251 248/248/248 82/82/82
f 98/98/98 76/76/76 21/21/21
f 20/20/20 21/21/21 76/76/76
f 252/252/252 202/202/202 130/130/130
f 129/129/129 130/130/130 202/202/202
f 130/130/130 133/133/133 252/252/252
f 141/141/141 252/252/252 133/133/133
f 252/252/252 141/141/141 202/202/202
f 202/202/202 141/141/141 204/204/204
f 253/253/253 204/204/204 141/141/141
f 253/253/253 254/254/254 204/204/204
f 254/254/254 255/255/255 204/204/204
f 68/68/68 204/204/204 255/255/255
f 204/204/204 68/68/68 203/203/203
f 67/67/67 203/203/203 68/68/68
f 253/253/253 69/69/69 254/254/254
f 255/255/255 69/69/69 68/68/68
f 69/69/69 253/253/253 256/256/256
f 142/142/142 256/256/256 253/253/253
f 142/142/142 253/253/253 141/141/141
f 257/257/257 254/254/254 69/69/69
f 256/256/256 70/70/70 69/69/69
f 260/260/260 259/259/259 258/258/258
f 261/261/261 258/258/258 259/259/259
f 258/258/258 261/261/261 262/262/262
f 263/263/263 262/262/262 261/261/261
f 263/263/263 264/264/264 262/262/262
f 265/265/265 262/262/262 264/264/264
f 262/262/262 265/265/265 266/266/266
f 267/267/267 266/266/266 265/265/265
f 266/266/266 268/268/268 262/262/262
f 258/258/258 262/262/262 268/268/268
f 258/258/258 268/268/268 269/269/269
f 270/270/270 269/269/269 268/268/268
f 270/270/270 268/268/268 271/271/271
f 272/272/272 271/271/271 268/268/268
f 268/268/268 266/266/266 272/272/272
f 272/272/272 273/273/273 271/271/271
f 274/274/274 271/271/271 273/273/273
f 274/274/274 273/273/273 275/275/275
f 275/275/275 276/276/276 274/274/274
f 277/277/277 274/274/274 276/276/276
f 274/274/274 277/277/277 271/271/271
f 278/278/278 275/275/275 273/273/273
f 279/279/279 272/272/272 266/266/266
f 278/278/278 273/273/273 279/279/279
f 272/272/272 279/279/279 273/273/273
f 266/266/266 267/267/267 279/279/279
f 280/280/280 271/271/271 277/277/277
f 281/281/281 280/280/280 277/277/277
f 270/270/270 271/271/271 282/282/282
f 280/280/280 282/282/282 271/271/271
f 275/275/275 278/278/278 283/283/283
f 284/284/284 283/283/283 278/278/278
f 276/276/276 275/275/275 285/285/285
f 285/285/285 286/286/286 276/276/276
f 285/285/285 287/287/287 286/286/286
f 288/288/288 286/286/286 287/287/287
f 287/287/287 289/289/289 288/288/288
f 287/287/287 290/290/290 289/289/289
f 291/291/291 289/289/289 290/290/290
f 291/291/291 290/290/290 292/292/292
f 293/293/293 292/292/292 290/290/290
f 291/291/291 294/294/294 289/289/289
f 295/295/295 289/289/289 294/294/294
f 294/294/294 296/296/296 295/295/295
f 297/297/297 295/295/295 296/296/296
f 296/296/296 298/298/298 297/297/297
f 299/299/299 297/297/297 298/298/298
f 298/298/298 300/300/300 299/299/299
f 301/301/301 299/299/299 300/300/300
f 298/298/298 296/296/296 302/302/302
f 303/303/303 302/302/302 296/296/296
f 296/296/296 294/294/294 303/303/303
f 303/303/303 304/304/304 302/302/302
f 305/305/305 302/302/302 304/304/304
f 294/294/294 291/291/291 306/306/306
f 307/307/307 306/306/306 291/291/291
f 306/306/306 307/307/307 308/308/308
f 308/308/308 309/309/309 306/306/306
f 309/309/309 308/308/308 304/304/304
f 310/310/310 306/306/306 309/309/309
f 303/303/303 310/310/310 304/304/304
f 309/309/309 304/304/304 310/310/310
f 300/300/300 298/298/298 311/311/311
f 302/302/302 311/311/311 298/298/298
f 301/301/301 312/312/312 299/299/299
f 313/313/313 299/299/299 312/312/312
f 299/299/299 313/313/313 297/297/297
f 314/314/314 297/297/297 313/313/313
f 297/297/297 314/314/314 295/295/295
f 315/315/315 295/295/295 314/314/314
f 315/315/315 316/316/316 295/295/295
f 289/289/289 295/295/295 316/316/316
f 316/316/316 288/288/288 289/289/289
f 314/314/314 317/317/317 315/315/315
f 318/318/318 315/315/315 317/317/317
f 315/315/315 318/318/318 316/316/316
f 313/313/313 312/312/312 319/319/319
f 313/313/313 319/319/319 314/314/314
f 317/317/317 314/314/314 319/319/319
f 316/316/316 320/320/320 288/288/288
f 320/320/320 316/316/316 318/318/318
f 321/321/321 288/288/288 320/320/320
f 318/318/318 317/317/317 322/322/322
f 318/318/318 322/322/322 320/320/320
f 323/323/323 322/322/322 317/317/317
f 323/323/323 317/317/317 324/324/324
f 319/319/319 324/324/324 317/317/317
f 324/324/324 325/325/325 323/323/323
f 326/326/326 323/323/323 325/325/325
f 323/323/323 326/326/326 322/322/322
f 325/325/325 324/324/324 327/327/327
f 327/327/327 328/328/328 325/325/325
f 329/329/329 325/325/325 328/328/328
f 325/325/325 329/329/329 326/326/326
f 330/330/330 327/327/327 324/324/324
f 331/331/331 326/326/326 329/329/329
f 331/331/331 322/322/322 326/326/326
f 322/322/322 331/331/331 332/332/332
f 332/332/332 320/320/320 322/322/322
f 333/333/333 332/332/332 331/331/331
f 319/319/319 334/334/334 324/324/324
f 330/330/330 324/324/324 334/334/334
f 334/334/334 319/319/319 335/335/335
f 328/328/328 336/336/336 329/329/329
f 337/337/337 329/329/329 336/336/336
f 329/329/329 337/337/337 331/331/331
f 338/338/338 331/331/331 337/337/337
f 338/338/338 339/339/339 331/331/331
f 331/331/331 339/339/339 340/340/340
f 332/332/332 333/333/333 341/341/341
f 332/332/332 341/341/341 320/320/320
f 321/321/321 320/320/320 341/341/341
f 321/321/321 341/341/341 342/342/342
f 343/343/343 342/342/342 341/341/341
f 342/342/342 343/343/343 344/344/344
f 342/342/342 344/344/344 286/286/286
f 345/345/345 286/286/286 344/344/344
f 345/345/345 276/276/276 286/286/286
f 276/276/276 345/345/345 346/346/346
f 347/347/347 346/346/346 345/345/345
f 347/347/347 345/345/345 348/348/348
f 344/344/344 348/348/348 345/345/345
f 349/349/349 344/344/344 343/343/343
f 343/343/343 350/350/350 349/349/349
f 343/343/343 341/341/341 350/350/350
f 351/351/351 349/349/349 350/350/350
f 351/351/351 352/352/352 349/349/349
f 353/353/353 349/349/349 352/352/352
f 348/348/348 344/344/344 353/353/353
f 349/349/349 353/353/353 344/344/344
f 352/352/352 351/351/351 354/354/354
f 355/355/355 354/354/354 351/351/351
f 351/351/351 350/350/350 355/355/355
f 355/355/355 337/337/337 354/354/354
f 356/356/356 354/354/354 337/337/337
f 355/355/355 357/357/357 337/337/337
f 358/358/358 355/355/355 350/350/350
f 358/358/358 357/357/357 355/355/355
f 341/341/341 357/357/357 358/358/358
f 358/358/358 350/350/350 341/341/341
f 357/357/357 341/341/341 333/333/333
f 333/333/333 359/359/359 357/357/357
f 357/357/357 359/359/359 360/360/360
f 360/360/360 361/361/361 357/357/357
f 364/364/364 363/363/363 362/362/362
f 365/365/365 362/362/362 363/363/363
f 365/365/365 366/366/366 362/362/362
f 367/367/367 362/362/362 366/366/366
f 367/367/367 368/368/368 362/362/362
f 369/369/369 362/362/362 368/368/368
f 369/369/369 368/368/368 370/370/370
f 370/370/370 371/371/371 369/369/369
f 372/372/372 369/369/369 371/371/371
f 364/364/364 362/362/362 372/372/372
f 369/369/369 372/372/372 362/362/362
f 373/373/373 370/370/370 368/368/368
f 376/376/376 375/375/375 374/374/374
f 377/377/377 374/374/374 375/375/375
f 375/375/375 378/378/378 377/377/377
f 379/379/379 377/377/377 378/378/378
f 379/379/379 380/380/380 377/377/377
f 381/381/381 377/377/377 380/380/380
f 377/377/377 381/381/381 374/374/374
f 376/376/376 382/382/382 375/375/375
f 383/383/383 375/375/375 382/382/382
f 383/383/383 382/382/382 384/384/384
f 384/384/384 385/385/385 383/383/383
f 384/384/384 386/386/386 385/385/385
f 387/387/387 385/385/385 386/386/386
f 388/388/388 383/383/383 385/385/385
f 383/383/383 388/388/388 375/375/375
f 378/378/378 375/375/375 388/388/388
f 389/389/389 384/384/384 382/382/382
f 389/389/389 382/382/382 390/390/390
f 391/391/391 390/390/390 382/382/382
f 376/376/376 391/391/391 382/382/382
f 391/391/391 392/392/392 390/390/390
f 393/393/393 390/390/390 392/392/392
f 393/393/393 392/392/392 394/394/394
f 393/393/393 394/394/394 395/395/395
f 396/396/396 395/395/395 394/394/394
f 394/394/394 397/397/397 396/396/396
f 398/398/398 396/396/396 397/397/397
f 398/398/398 397/397/397 399/399/399
f 400/400/400 394/394/394 392/392/392
f 394/394/394 400/400/400 397/397/397
f 400/400/400 392/392/392 401/401/401
f 402/402/402 401/401/401 392/392/392
f 392/392/392 391/391/391 402/402/402
f 403/403/403 397/397/397 400/400/400
f 397/397/397 403/403/403 404/404/404
f 405/405/405 404/404/404 403/403/403
f 376/376/376 402/402/402 391/391/391
f 405/405/405 406/406/406 404/404/404
f 406/406/406 405/405/405 407/407/407
f 408/408/408 407/407/407 405/405/405
f 405/405/405 403/403/403 408/408/408
f 407/407/407 409/409/409 406/406/406
f 407/407/407 410/410/410 409/409/409
f 407/407/407 408/408/408 410/410/410
f 411/411/411 409/409/409 410/410/410
f 410/410/410 412/412/412 411/411/411
f 412/412/412 410/410/410 413/413/413
f 414/414/414 413/413/413 410/410/410
f 414/414/414 410/410/410 408/408/408
f 414/414/414 415/415/415 413/413/413
f 414/414/414 408/408/408 415/415/415
f 416/416/416 413/413/413 415/415/415
f 415/415/415 417/417/417 416/416/416
f 418/418/418 416/416/416 417/417/417
f 419/419/419 411/411/411 412/412/412
f 415/415/415 420/420/420 417/417/417
f 420/420/420 415/415/415 408/408/408
f 401/401/401 417/417/417 420/420/420
f 421/421/421 406/406/406 409/409/409
f 420/420/420 408/408/408 403/403/403
f 403/403/403 400/400/400 420/420/420
f 401/401/401 420/420/420 400/400/400
f 418/418/418 417/417/417 422/422/422
f 422/422/422 417/417/417 401/401/401
f 401/401/401 402/402/402 422/422/422
f 423/423/423 422/422/422 402/402/402
f 422/422/422 424/424/424 418/418/418
f 416/416/416 418/418/418 425/425/425
f 426/426/426 425/425/425 418/418/418
f 418/418/418 424/424/424 426/426/426
f 416/416/416 425/425/425 413/413/413
f 427/427/427 413/413/413 425/425/425
f 425/425/425 428/428/428 427/427/427
f 429/429/429 427/427/427 428/428/428
f 427/427/427 429/429/429 430/430/430
f 431/431/431 430/430/430 429/429/429
f 431/431/431 432/432/432 430/430/430
f 433/433/433 430/430/430 432/432/432
f 429/429/429 265/265/265 431/431/431
f 264/264/264 431/431/431 265/265/265
f 431/431/431 264/264/264 432/432/432
f 428/428/428 267/267/267 429/429/429
f 265/265/265 429/429/429 267/267/267
f 267/267/267 428/428/428 434/434/434
f 435/435/435 267/267/267 434/434/434
f 436/436/436 434/434/434 428/428/428
f 428/428/428 425/425/425 436/436/436
f 426/426/426 436/436/436 425/425/425
f 436/436/436 426/426/426 437/437/437
f 438/438/438 437/437/437 426/426/426
f 439/439/439 432/432/432 264/264/264
f 439/439/439 264/264/264 440/440/440
f 263/263/263 440/440/440 264/264/264
f 440/440/440 263/263/263 441/441/441
f 261/261/261 441/441/441 263/263/263
f 441/441/441 261/261/261 442/442/442
f 441/441/441 442/442/442 443/443/443
f 444/444/444 443/443/443 442/442/442
f 442/442/442 445/445/445 444/444/444
f 445/445/445 442/442/442 446/446/446
f 259/259/259 446/446/446 442/442/442
f 259/259/259 442/442/442 261/261/261
f 447/447/447 444/444/444 445/445/445
f 445/445/445 448/448/448 447/447/447
f 437/437/437 449/449/449 436/436/436
f 441/441/441 451/451/451 450/450/450
f 454/454/454 453/453/453 452/452/452
f 404/404/404 452/452/452 453/453/453
f 454/454/454 452/452/452 455/455/455
f 456/456/456 455/455/455 452/452/452
f 456/456/456 452/452/452 421/421/421
f 406/406/406 421/421/421 452/452/452
f 452/452/452 404/404/404 406/406/406
f 404/404/404 453/453/453 397/397/397
f 399/399/399 397/397/397 453/453/453
f 381/381/381 458/458/458 457/457/457
f 459/459/459 457/457/457 458/458/458
f 459/459/459 458/458/458 460/460/460
f 459/459/459 460/460/460 461/461/461
f 457/457/457 459/459/459 461/461/461
f 457/457/457 461/461/461 462/462/462
f 463/463/463 461/461/461 460/460/460
f 464/464/464 462/462/462 461/461/461
f 461/461/461 463/463/463 464/464/464
f 465/465/465 460/460/460 458/458/458
f 458/458/458 381/381/381 465/465/465
f 460/460/460 465/465/465 466/466/466
f 467/467/467 466/466/466 465/465/465
f 467/467/467 465/465/465 381/381/381
f 304/304/304 466/466/466 467/467/467
f 304/304/304 467/467/467 305/305/305
f 468/468/468 305/305/305 467/467/467
f 460/460/460 466/466/466 469/469/469
f 460/460/460 469/469/469 463/463/463
f 466/466/466 308/308/308 469/469/469
f 466/466/466 304/304/304 308/308/308
f 470/470/470 469/469/469 308/308/308
f 308/308/308 307/307/307 470/470/470
f 469/469/469 470/470/470 292/292/292
f 307/307/307 292/292/292 470/470/470
f 292/292/292 293/293/293 469/469/469
f 471/471/471 469/469/469 293/293/293
f 292/292/292 307/307/307 291/291/291
f 463/463/463 469/469/469 472/472/472
f 471/471/471 472/472/472 469/469/469
f 473/473/473 468/468/468 467/467/467
f 467/467/467 381/381/381 473/473/473
f 380/380/380 473/473/473 381/381/381
f 472/472/472 464/464/464 463/463/463
f 457/457/457 374/374/374 381/381/381
f 462/462/462 374/374/374 457/457/457
f 374/374/374 462/462/462 376/376/376
f 402/402/402 376/376/376 462/462/462
f 386/386/386 384/384/384 474/474/474
f 474/474/474 384/384/384 475/475/475
f 389/389/389 475/475/475 384/384/384
f 389/389/389 390/390/390 475/475/475
f 476/476/476 475/475/475 390/390/390
f 390/390/390 393/393/393 476/476/476
f 395/395/395 476/476/476 393/393/393
f 282/282/282 477/477/477 347/347/347
f 480/480/480 479/479/479 478/478/478
f 479/479/479 481/481/481 478/478/478
f 482/482/482 481/481/481 479/479/479
f 479/479/479 483/483/483 482/482/482
f 483/483/483 484/484/484 482/482/482
f 485/485/485 484/484/484 483/483/483
f 487/487/487 486/486/486 479/479/479
f 488/488/488 479/479/479 486/486/486
f 479/479/479 489/489/489 487/487/487
f 490/490/490 487/487/487 489/489/489
f 493/493/493 492/492/492 491/491/491
f 321/321/321 342/342/342 288/288/288
f 286/286/286 288/288/288 342/342/342
f 496/496/496 495/495/495 494/494/494
f 497/497/497 494/494/494 495/495/495
f 494/494/494 498/498/498 496/496/496
f 499/499/499 496/496/496 498/498/498
f 498/498/498 500/500/500 499/499/499
f 501/501/501 499/499/499 500/500/500
f 500/500/500 498/498/498 502/502/502
f 503/503/503 502/502/502 498/498/498
f 494/494/494 504/504/504 498/498/498
f 503/503/503 498/498/498 504/504/504
f 502/502/502 505/505/505 500/500/500
f 506/506/506 500/500/500 505/505/505
f 506/506/506 507/507/507 500/500/500
f 501/501/501 500/500/500 507/507/507
f 505/505/505 508/508/508 506/506/506
f 509/509/509 506/506/506 508/508/508
f 494/494/494 510/510/510 504/504/504
f 511/511/511 504/504/504 510/510/510
f 510/510/510 512/512/512 511/511/511
f 511/511/511 513/513/513 504/504/504
f 514/514/514 504/504/504 513/513/513
f 504/504/504 514/514/514 503/503/503
f 513/513/513 515/515/515 514/514/514
f 514/514/514 515/515/515 516/516/516
f 503/503/503 516/516/516 502/502/502
f 516/516/516 503/503/503 514/514/514
f 516/516/516 515/515/515 517/517/517
f 517/517/517 515/515/515 518/518/518
f 518/518/518 505/505/505 517/517/517
f 505/505/505 518/518/518 508/508/508
f 517/517/517 502/502/502 516/516/516
f 502/502/502 517/517/517 505/505/505
f 519/519/519 508/508/508 518/518/518
f 518/518/518 520/520/520 519/519/519
f 521/521/521 520/520/520 513/513/513
f 513/513/513 511/511/511 521/521/521
f 522/522/522 521/521/521 511/511/511
f 522/522/522 511/511/511 523/523/523
f 526/526/526 525/525/525 524/524/524
f 527/527/527 524/524/524 525/525/525
f 530/530/530 529/529/529 528/528/528
f 528/528/528 531/531/531 530/530/530
f 532/532/532 530/530/530 531/531/531
f 532/532/532 533/533/533 530/530/530
f 534/534/534 530/530/530 533/533/533
f 531/531/531 535/535/535 532/532/532
f 536/536/536 532/532/532 535/535/535
f 532/532/532 536/536/536 533/533/533
f 531/531/531 528/528/528 537/537/537
f 538/538/538 537/537/537 528/528/528
f 536/536/536 535/535/535 539/539/539
f 536/536/536 539/539/539 540/540/540
f 540/540/540 533/533/533 536/536/536
f 541/541/541 540/540/540 539/539/539
f 540/540/540 541/541/541 542/542/542
f 543/543/543 542/542/542 541/541/541
f 539/539/539 499/499/499 541/541/541
f 501/501/501 541/541/541 499/499/499
f 541/541/541 501/501/501 543/543/543
f 499/499/499 539/539/539 496/496/496
f 544/544/544 496/496/496 539/539/539
f 544/544/544 539/539/539 535/535/535
f 507/507/507 543/543/543 501/501/501
f 533/533/533 540/540/540 545/545/545
f 542/542/542 545/545/545 540/540/540
f 533/533/533 545/545/545 546/546/546
f 547/547/547 534/534/534 545/545/545
f 545/545/545 548/548/548 547/547/547
f 549/549/549 547/547/547 548/548/548
f 551/551/551 547/547/547 550/550/550
f 551/551/551 528/528/528 547/547/547
f 552/552/552 547/547/547 528/528/528
f 554/554/554 553/553/553 275/275/275
f 275/275/275 553/553/553 285/285/285
f 285/285/285 555/555/555 287/287/287
f 290/290/290 287/287/287 555/555/555
f 556/556/556 278/278/278 435/435/435
f 279/279/279 435/435/435 278/278/278
f 435/435/435 279/279/279 267/267/267
f 435/435/435 434/434/434 284/284/284
f 434/434/434 436/436/436 557/557/557
f 557/557/557 558/558/558 434/434/434
f 560/560/560 506/506/506 559/559/559
f 562/562/562 561/561/561 506/506/506
f 306/306/306 310/310/310 294/294/294
f 303/303/303 294/294/294 310/310/310
f 430/430/430 412/412/412 427/427/427
f 413/413/413 427/427/427 412/412/412
f 412/412/412 430/430/430 419/419/419
f 433/433/433 419/419/419 430/430/430
f 438/438/438 426/426/426 424/424/424
