mtllib f_0_head.mtl
o f_0_head
usemtl f_0_head
v 0.055694 1.801690 -0.030574
v 0.037667 1.779750 -0.030757
v 0.045853 1.770520 -0.012089
v 0.046800 1.802620 -0.046425
v 0.019465 1.780240 -0.043607
v 0.018149 1.763150 -0.036599
v 0.000000 1.763220 -0.040049
v 0.000000 1.780110 -0.047112
v 0.022557 1.803130 -0.059479
v 0.000000 1.802930 -0.062440
v 0.034553 1.761520 -0.024502
v 0.052156 1.828850 -0.054864
v 0.024431 1.830570 -0.070037
v 0.000000 1.830990 -0.073593
v 0.041733 1.744040 -0.005215
v 0.034601 1.738510 -0.022439
v 0.039474 1.717010 0.000335
v 0.039262 1.713000 -0.024604
v 0.040052 1.692500 0.003422
v 0.037397 1.699140 0.023705
v 0.033642 1.678970 0.030362
v 0.040971 1.724650 0.016011
v 0.018289 1.742650 -0.035018
v 0.048902 1.682140 -0.010327
v 0.049321 1.690530 -0.030392
v 0.020508 1.718690 -0.039275
v 0.025793 1.693490 -0.048873
v 0.029221 1.695200 0.032770
v 0.024693 1.678220 0.037713
v 0.032632 1.665590 0.036060
v 0.021449 1.662960 0.044845
v 0.011122 1.688500 0.043920
v 0.009575 1.671610 0.042664
v 0.000000 1.686200 0.048472
v 0.000000 1.670040 0.045273
v 0.011583 1.659020 0.046551
v 0.000000 1.719190 -0.043998
v 0.000000 1.742740 -0.038736
v 0.000000 1.693890 -0.053608
v 0.016438 1.647540 0.055323
v 0.038938 1.650680 0.042289
v 0.012180 1.705680 0.046762
v 0.033748 1.718660 0.026870
v 0.023333 1.724680 0.044266
v 0.036208 1.737800 0.024940
v 0.040889 1.741390 0.031911
v 0.031593 1.729990 0.055164
v 0.012621 1.715960 0.055773
v 0.000000 1.701830 0.053436
v 0.000000 1.711410 0.058766
v 0.021252 1.720370 0.075337
v 0.045959 1.755600 0.008031
v 0.056593 1.791590 0.001760
v 0.059052 1.801280 -0.014393
v 0.048413 1.759320 0.014413
v 0.057110 1.788000 0.010804
v 0.026640 1.730320 0.081945
v 0.037841 1.737890 0.062859
v 0.026956 1.743220 0.086816
v 0.042005 1.748710 0.066008
v 0.044560 1.758990 0.066395
v 0.033345 1.753120 0.082610
v 0.034753 1.768080 0.084294
v 0.024477 1.756970 0.091577
v 0.025913 1.752480 0.090705
v 0.048159 1.775850 0.070231
v 0.029718 1.786290 0.090189
v 0.048995 1.792610 0.077522
v 0.031543 1.802150 0.087286
v 0.019689 1.794990 0.094737
v 0.021611 1.804800 0.089880
v 0.045417 1.803190 0.080122
v 0.012708 1.801540 0.098220
v 0.015222 1.808210 0.091547
v 0.013984 1.787150 0.096906
v 0.016168 1.777140 0.096342
v 0.020113 1.758480 0.098424
v 0.023120 1.753740 0.091931
v 0.019597 1.755680 0.098949
v 0.011133 1.770550 0.100933
v 0.010942 1.760560 0.106318
v 0.005468 1.768590 0.106191
v 0.051602 1.808620 0.073143
v 0.061572 1.807470 0.053555
v 0.014218 1.813200 0.089887
v 0.020721 1.812620 0.085339
v 0.012095 1.791360 0.099347
v 0.007692 1.805290 0.102856
v 0.008774 1.794260 0.104604
v 0.003333 1.807100 0.108866
v 0.006352 1.816460 0.101011
v 0.003522 1.817870 0.103475
v 0.004090 1.791930 0.117735
v 0.007132 1.787450 0.114721
v 0.010391 1.784340 0.107292
v 0.010891 1.780560 0.108827
v 0.007651 1.781880 0.117397
v 0.007427 1.778680 0.116935
v 0.010402 1.777840 0.109426
v 0.004633 1.783420 0.122548
v 0.003913 1.777860 0.120731
v 0.010699 1.786230 0.103082
v 0.000000 1.807210 0.109984
v 0.000000 1.818130 0.104175
v 0.000000 1.792200 0.118863
v 0.000000 1.783820 0.123909
v 0.000000 1.778100 0.122383
v 0.000000 1.774100 0.115161
v 0.002109 1.774080 0.113669
v 0.002788 1.776070 0.110756
v 0.005050 1.775390 0.106839
v 0.004799 1.772130 0.106741
v 0.008503 1.775950 0.104739
v 0.010389 1.773320 0.102098
v 0.012777 1.777840 0.097732
v 0.013324 1.779270 0.101294
v 0.012461 1.775610 0.104065
v 0.011393 1.785180 0.099187
v 0.000000 1.771800 0.109555
v 0.000000 1.768230 0.108150
v 0.005048 1.761370 0.109821
v 0.000000 1.760430 0.110667
v 0.005377 1.758670 0.109706
v 0.011239 1.757770 0.106451
v 0.004411 1.755270 0.108134
v 0.000000 1.758360 0.110532
v 0.000000 1.755030 0.108956
v 0.010531 1.754830 0.105008
v 0.018156 1.754330 0.098297
v 0.021236 1.754300 0.091276
v -0.004411 1.755270 0.108134
v -0.005377 1.758670 0.109706
v -0.011239 1.757770 0.106451
v -0.010531 1.754830 0.105008
v -0.019597 1.755680 0.098949
v -0.018156 1.754330 0.098297
v -0.020113 1.758480 0.098424
v -0.023120 1.753740 0.091931
v -0.010942 1.760560 0.106318
v -0.011133 1.770550 0.100933
v -0.016168 1.777140 0.096342
v -0.024477 1.756970 0.091577
v -0.023120 1.753740 0.091931
v -0.005468 1.768590 0.106191
v -0.012777 1.777840 0.097732
v -0.013984 1.787150 0.096906
v -0.029718 1.786290 0.090189
v -0.019689 1.794990 0.094737
v -0.031543 1.802150 0.087286
v -0.021611 1.804800 0.089880
v -0.048995 1.792610 0.077522
v -0.045417 1.803190 0.080122
v -0.012708 1.801540 0.098220
v -0.015222 1.808210 0.091547
v -0.061572 1.807470 0.053555
v -0.051602 1.808620 0.073143
v -0.048159 1.775850 0.070231
v -0.034753 1.768080 0.084294
v -0.044560 1.758990 0.066395
v -0.033345 1.753120 0.082610
v -0.025913 1.752480 0.090705
v -0.026956 1.743220 0.086816
v -0.042005 1.748710 0.066008
v -0.037841 1.737890 0.062859
v -0.026640 1.730320 0.081945
v -0.054598 1.768640 0.045250
v -0.058897 1.788040 0.048904
v -0.052237 1.757440 0.043487
v -0.047326 1.747280 0.041553
v -0.053697 1.760150 0.026936
v -0.058032 1.779660 0.021676
v -0.063773 1.803230 0.024056
v -0.065559 1.821910 0.027198
v -0.031593 1.729990 0.055164
v -0.021252 1.720370 0.075337
v -0.012621 1.715960 0.055773
v -0.023333 1.724680 0.044266
v -0.040889 1.741390 0.031911
v -0.036208 1.737800 0.024940
v -0.033748 1.718660 0.026870
v -0.012180 1.705680 0.046762
v -0.040971 1.724650 0.016011
v -0.045959 1.755600 0.008031
v -0.041733 1.744040 -0.005215
v -0.039474 1.717010 0.000335
v -0.037397 1.699140 0.023705
v -0.040052 1.692500 0.003422
v -0.033642 1.678970 0.030362
v -0.039262 1.713000 -0.024604
v -0.034601 1.738510 -0.022439
v -0.034553 1.761520 -0.024502
v -0.045853 1.770520 -0.012089
v -0.056593 1.791590 0.001760
v -0.059052 1.801280 -0.014393
v -0.037667 1.779750 -0.030757
v -0.055694 1.801690 -0.030574
v -0.046800 1.802620 -0.046425
v -0.018149 1.763150 -0.036599
v -0.019465 1.780240 -0.043607
v 0.000000 1.763220 -0.040049
v 0.000000 1.780110 -0.047112
v -0.022557 1.803130 -0.059479
v 0.000000 1.802930 -0.062440
v -0.052156 1.828850 -0.054864
v -0.024431 1.830570 -0.070037
v 0.000000 1.830990 -0.073593
v -0.018289 1.742650 -0.035018
v -0.065870 1.826190 -0.018436
v -0.066413 1.818450 -0.009964
v -0.061781 1.803820 -0.006169
v -0.061524 1.827860 -0.037167
v -0.067611 1.855390 -0.019041
v -0.062886 1.855890 -0.037109
v -0.052640 1.856690 -0.054552
v -0.060638 1.877900 -0.033929
v -0.050649 1.880560 -0.049043
v -0.057546 1.889190 -0.027850
v -0.049049 1.895800 -0.034095
v -0.025009 1.885570 -0.061695
v -0.025275 1.905580 -0.040874
v 0.000000 1.887750 -0.065449
v 0.000000 1.909690 -0.043184
v -0.068041 1.852970 -0.001785
v -0.067631 1.827010 -0.006899
v -0.064607 1.876300 0.005119
v -0.064286 1.878140 -0.015722
v -0.058962 1.892240 -0.010145
v -0.057854 1.891140 0.015256
v -0.062425 1.870920 0.028322
v -0.057854 1.891140 0.015256
v -0.054368 1.884650 0.043418
v -0.058629 1.858610 0.051714
v -0.051211 1.873650 0.066443
v -0.066418 1.849140 0.015900
v -0.067598 1.829780 0.000633
v -0.066214 1.827740 0.011719
v -0.063521 1.840650 0.033984
v -0.066821 1.818640 0.014332
v -0.059477 1.827430 0.055363
v -0.054492 1.821080 0.068433
v -0.053308 1.832840 0.076015
v -0.054748 1.840090 0.072352
v -0.048806 1.860460 0.077522
v -0.046979 1.841490 0.087206
v -0.037341 1.862840 0.090227
v -0.030262 1.835820 0.099650
v -0.030474 1.830460 0.095489
v -0.046333 1.834240 0.087006
v -0.039552 1.879450 0.079177
v -0.051211 1.873650 0.066443
v -0.019919 1.884360 0.089226
v -0.021869 1.902740 0.065886
v -0.043101 1.894380 0.055623
v -0.024023 1.914470 0.033891
v 0.000000 1.918830 0.036731
v 0.000000 1.905860 0.069418
v 0.021869 1.902740 0.065886
v 0.024023 1.914470 0.033891
v 0.043101 1.894380 0.055623
v 0.046731 1.903050 0.025079
v 0.039552 1.879450 0.079177
v 0.019919 1.884360 0.089226
v 0.054368 1.884650 0.043418
v 0.000000 1.921850 -0.003370
v 0.025563 1.917050 -0.004169
v 0.049021 1.904280 -0.006821
v 0.057854 1.891140 0.015256
v 0.058962 1.892240 -0.010145
v 0.049049 1.895800 -0.034095
v 0.025275 1.905580 -0.040874
v 0.054368 1.884650 0.043418
v 0.057546 1.889190 -0.027850
v 0.037341 1.862840 0.090227
v 0.048806 1.860460 0.077522
v 0.046979 1.841490 0.087206
v 0.030262 1.835820 0.099650
v 0.054748 1.840090 0.072352
v 0.058629 1.858610 0.051714
v 0.030474 1.830460 0.095489
v 0.046333 1.834240 0.087006
v 0.053308 1.832840 0.076015
v 0.044194 1.826640 0.084799
v 0.030539 1.826520 0.090977
v 0.017535 1.822490 0.091035
v 0.016271 1.824860 0.097426
v 0.011054 1.820130 0.097331
v 0.014207 1.829130 0.104702
v 0.008082 1.821710 0.101762
v 0.015192 1.847670 0.102581
v 0.005616 1.830000 0.105757
v 0.003994 1.823290 0.103452
v 0.000000 1.823880 0.103823
v 0.000000 1.830600 0.105421
v 0.013483 1.818330 0.091379
v 0.049986 1.825430 0.077504
v 0.030683 1.824590 0.088375
v 0.042217 1.824370 0.082362
v 0.031511 1.822610 0.088944
v 0.042119 1.822390 0.083218
v 0.047267 1.823320 0.076595
v 0.046220 1.821530 0.077771
v 0.020352 1.819330 0.087070
v 0.019710 1.820910 0.087511
v 0.020770 1.818350 0.084070
v 0.016803 1.816190 0.085893
v 0.016026 1.816810 0.087207
v 0.016824 1.816120 0.082258
v 0.020252 1.818080 0.079316
v 0.016741 1.814600 0.082327
v 0.020650 1.815720 0.079710
v 0.031061 1.821330 0.086670
v 0.029868 1.821020 0.081874
v 0.040546 1.821270 0.081733
v 0.037624 1.821740 0.078228
v 0.044160 1.820860 0.077202
v 0.040921 1.821360 0.074396
v 0.046103 1.819750 0.075140
v 0.042520 1.820350 0.072666
v 0.042025 1.817280 0.074702
v 0.045729 1.816310 0.077739
v 0.039452 1.815110 0.078346
v 0.042912 1.813990 0.082059
v 0.033161 1.813160 0.085907
v 0.020658 1.814230 0.084181
v 0.031305 1.814580 0.081828
v 0.048991 1.819580 0.073976
v 0.046038 1.813360 0.075757
v 0.042051 1.810630 0.079721
v 0.032892 1.810040 0.083716
v 0.016463 1.813680 0.086266
v 0.054492 1.821080 0.068433
v 0.059477 1.827430 0.055363
v 0.065559 1.821910 0.027198
v 0.063773 1.803230 0.024056
v 0.058897 1.788040 0.048904
v 0.058032 1.779660 0.021676
v 0.054598 1.768640 0.045250
v 0.052237 1.757440 0.043487
v 0.047326 1.747280 0.041553
v 0.053697 1.760150 0.026936
v 0.065963 1.804640 0.014053
v 0.066821 1.818640 0.014332
v 0.066214 1.827740 0.011719
v 0.063521 1.840650 0.033984
v 0.066418 1.849140 0.015900
v 0.067598 1.829780 0.000633
v 0.068041 1.852970 -0.001785
v 0.062425 1.870920 0.028322
v 0.064607 1.876300 0.005119
v 0.067611 1.855390 -0.019041
v 0.065870 1.826190 -0.018436
v 0.061524 1.827860 -0.037167
v 0.062886 1.855890 -0.037109
v 0.052640 1.856690 -0.054552
v 0.060638 1.877900 -0.033929
v 0.050649 1.880560 -0.049043
v 0.057546 1.889190 -0.027850
v 0.049049 1.895800 -0.034095
v 0.025009 1.885570 -0.061695
v 0.025275 1.905580 -0.040874
v 0.000000 1.887750 -0.065449
v 0.000000 1.909690 -0.043184
v 0.064286 1.878140 -0.015722
v 0.058962 1.892240 -0.010145
v 0.025017 1.859180 -0.069619
v 0.000000 1.860440 -0.073572
v 0.057854 1.891140 0.015256
v 0.054368 1.884650 0.043418
v 0.066413 1.818450 -0.009964
v 0.061781 1.803820 -0.006169
v 0.067631 1.827010 -0.006899
v 0.054368 1.884650 0.043418
v 0.051211 1.873650 0.066443
v 0.051211 1.873650 0.066443
v 0.067631 1.827010 -0.006899
v 0.069210 1.828250 0.004533
v 0.069210 1.828250 0.004533
v 0.000000 1.715740 0.093370
v 0.009266 1.721100 0.098588
v 0.008624 1.716290 0.092305
v 0.000000 1.720230 0.100053
v 0.017677 1.723350 0.092380
v 0.015349 1.717730 0.087519
v 0.000000 1.728360 0.102308
v 0.009925 1.728980 0.100176
v 0.000000 1.737640 0.100907
v 0.009726 1.738210 0.098811
v 0.008457 1.744630 0.104677
v 0.000000 1.744060 0.105843
v 0.008099 1.746610 0.107268
v 0.013243 1.747930 0.103042
v 0.013684 1.745840 0.100635
v 0.000000 1.746030 0.108226
v 0.007307 1.750400 0.107589
v 0.000000 1.749840 0.108620
v 0.006262 1.754180 0.105947
v 0.013154 1.750880 0.103379
v 0.018021 1.751960 0.097587
v 0.018958 1.750130 0.097073
v 0.016823 1.754320 0.097023
v 0.012201 1.754060 0.102416
v 0.000000 1.754000 0.106787
v 0.020707 1.748070 0.094766
v 0.017636 1.739450 0.093981
v 0.018654 1.730680 0.093449
v 0.015990 1.755015 0.095652
v 0.008763 1.754855 0.101803
v 0.000000 1.754200 0.105502
v -0.008763 1.754855 0.101803
v -0.012201 1.754060 0.102416
v -0.015990 1.755015 0.095652
v -0.016823 1.754320 0.097023
v -0.018021 1.751960 0.097587
v -0.021236 1.754300 0.091276
v -0.018958 1.750130 0.097073
v -0.013243 1.747930 0.103042
v -0.013154 1.750880 0.103379
v -0.006262 1.754180 0.105947
v -0.007307 1.750400 0.107589
v -0.008099 1.746610 0.107268
v -0.008457 1.744630 0.104677
v -0.013684 1.745840 0.100635
v -0.009726 1.738210 0.098811
v -0.017636 1.739450 0.093981
v -0.018654 1.730680 0.093449
v -0.009925 1.728980 0.100176
v -0.020707 1.748070 0.094766
v -0.009266 1.721100 0.098588
v -0.008624 1.716290 0.092305
v -0.017677 1.723350 0.092380
v -0.015349 1.717730 0.087519
v -0.008279 1.715150 0.079958
v -0.009083 1.715720 0.070303
v 0.000000 1.714720 0.068814
v 0.000000 1.714570 0.077942
v 0.008279 1.715150 0.079958
v 0.009083 1.715720 0.070303
v 0.018958 1.750130 0.097073
v 0.021236 1.754300 0.091276
v 0.023120 1.753740 0.091931
v 0.023120 1.753740 0.091931
v 0.047828 1.671620 0.002041
v 0.017866 1.864440 0.099346
v 0.000000 1.886320 0.093127
v 0.000000 1.865160 0.101732
v 0.000000 1.849210 0.103706
v -0.015192 1.847670 0.102581
v -0.017866 1.864440 0.099346
v -0.014207 1.829130 0.104702
v -0.005616 1.830000 0.105757
v -0.003994 1.823290 0.103452
v -0.008082 1.821710 0.101762
v -0.011054 1.820130 0.097331
v -0.016271 1.824860 0.097426
v -0.017535 1.822490 0.091035
v -0.030539 1.826520 0.090977
v -0.044194 1.826640 0.084799
v -0.013483 1.818330 0.091379
v -0.049986 1.825430 0.077504
v -0.030683 1.824590 0.088375
v -0.042217 1.824370 0.082362
v -0.031511 1.822610 0.088944
v -0.042119 1.822390 0.083218
v -0.047267 1.823320 0.076595
v -0.046220 1.821530 0.077771
v -0.020352 1.819330 0.087070
v -0.019710 1.820910 0.087511
v -0.020770 1.818350 0.084070
v -0.016803 1.816190 0.085893
v -0.016026 1.816810 0.087207
v -0.016824 1.816120 0.082258
v -0.020252 1.818080 0.079316
v -0.016741 1.814600 0.082327
v -0.020650 1.815720 0.079710
v -0.031061 1.821330 0.086670
v -0.029868 1.821020 0.081874
v -0.040546 1.821270 0.081733
v -0.037624 1.821740 0.078228
v -0.044160 1.820860 0.077202
v -0.040921 1.821360 0.074396
v -0.046103 1.819750 0.075140
v -0.048991 1.819580 0.073976
v -0.045729 1.816310 0.077739
v -0.046038 1.813360 0.075757
v -0.042025 1.817280 0.074702
v -0.039452 1.815110 0.078346
v -0.042912 1.813990 0.082059
v -0.033161 1.813160 0.085907
v -0.031305 1.814580 0.081828
v -0.042051 1.810630 0.079721
v -0.032892 1.810040 0.083716
v -0.020658 1.814230 0.084181
v -0.020721 1.812620 0.085339
v -0.016463 1.813680 0.086266
v -0.014218 1.813200 0.089887
v -0.009058 1.814940 0.097409
v -0.006352 1.816460 0.101011
v -0.003522 1.817870 0.103475
v -0.003333 1.807100 0.108866
v -0.007692 1.805290 0.102856
v -0.008774 1.794260 0.104604
v -0.012095 1.791360 0.099347
v -0.004090 1.791930 0.117735
v -0.007132 1.787450 0.114721
v -0.010391 1.784340 0.107292
v -0.010891 1.780560 0.108827
v -0.007651 1.781880 0.117397
v -0.007427 1.778680 0.116935
v -0.010402 1.777840 0.109426
v -0.004633 1.783420 0.122548
v -0.003913 1.777860 0.120731
v -0.010699 1.786230 0.103082
v -0.002109 1.774080 0.113669
v -0.002788 1.776070 0.110756
v -0.005050 1.775390 0.106839
v -0.004799 1.772130 0.106741
v -0.008503 1.775950 0.104739
v -0.010389 1.773320 0.102098
v -0.013324 1.779270 0.101294
v -0.012461 1.775610 0.104065
v -0.011393 1.785180 0.099187
v -0.005048 1.761370 0.109821
v 0.000000 1.909690 -0.043184
v -0.025275 1.905580 -0.040874
v -0.025563 1.917050 -0.004169
v -0.049049 1.895800 -0.034095
v -0.049021 1.904280 -0.006821
v -0.057546 1.889190 -0.027850
v -0.058962 1.892240 -0.010145
v -0.057854 1.891140 0.015256
v -0.046731 1.903050 0.025079
v -0.054368 1.884650 0.043418
v -0.057854 1.891140 0.015256
v 0.069362 1.818100 0.013046
v 0.069004 1.827560 0.010992
v 0.071857 1.826630 0.011133
v 0.066821 1.818640 0.014332
v 0.065963 1.804640 0.014053
v 0.068414 1.809510 0.008659
v 0.075796 1.832430 0.001543
v 0.072500 1.833230 0.000853
v 0.069004 1.827560 0.010992
v 0.077705 1.831040 -0.008353
v 0.076591 1.821580 -0.014292
v 0.069210 1.828250 0.004533
v 0.068849 1.802140 0.000677
v 0.067731 1.803080 0.011052
v 0.065398 1.798250 0.005548
v 0.071793 1.806310 -0.012328
v 0.068667 1.805940 -0.012767
v 0.072935 1.821280 -0.014851
v 0.065755 1.797620 -0.005491
v 0.063214 1.797680 -0.005815
v 0.058440 1.788240 0.001949
v 0.060657 1.788250 0.001944
v 0.060179 1.788200 0.009997
v 0.057110 1.788000 0.010804
v 0.056593 1.791590 0.001760
v 0.061781 1.803820 -0.006169
v 0.068667 1.805940 -0.012767
v 0.077705 1.831040 -0.008353
v 0.076591 1.821580 -0.014292
v 0.073999 1.831080 -0.009003
v 0.075796 1.832430 0.001543
v 0.073999 1.831080 -0.009003
v 0.070357 1.818540 -0.011805
v 0.071204 1.826250 -0.007358
v 0.072500 1.833230 0.000853
v 0.067631 1.827010 -0.006899
v 0.069210 1.828250 0.004533
v 0.068667 1.805940 -0.012767
v 0.072500 1.833230 0.000853
v 0.069210 1.828250 0.004533
v 0.067631 1.827010 -0.006899
v 0.066413 1.818450 -0.009964
v 0.061781 1.803820 -0.006169
v 0.061781 1.803820 -0.006169
v 0.068667 1.805940 -0.012767
v 0.073999 1.831080 -0.009003
v 0.072500 1.833230 0.000853
v 0.067631 1.827010 -0.006899
v 0.069210 1.828250 0.004533
v 0.067598 1.829780 0.000633
v 0.009058 1.814940 0.097409
v -0.011122 1.688500 0.043920
v -0.009575 1.671610 0.042664
v -0.024693 1.678220 0.037713
v -0.029221 1.695200 0.032770
v -0.032632 1.665590 0.036060
v -0.021449 1.662960 0.044845
v -0.011583 1.659020 0.046551
v -0.047828 1.671620 0.002041
v -0.016438 1.647540 0.055323
v -0.038938 1.650680 0.042289
v 0.000000 1.639920 0.059187
v 0.000000 1.655690 0.048472
v -0.048902 1.682140 -0.010327
v -0.049321 1.690530 -0.030392
v -0.020508 1.718690 -0.039275
v -0.025793 1.693490 -0.048873
v 0.000000 1.719190 -0.043998
v 0.000000 1.742740 -0.038736
v 0.000000 1.693890 -0.053608
v -0.048413 1.759320 0.014413
v -0.057110 1.788000 0.010804
v -0.065963 1.804640 0.014053
v -0.069210 1.828250 0.004533
v -0.069210 1.828250 0.004533
v -0.025017 1.859180 -0.069619
v 0.000000 1.860440 -0.073572
v -0.069362 1.818100 0.013046
v -0.069004 1.827560 0.010992
v -0.066821 1.818640 0.014332
v -0.071857 1.826630 0.011133
v -0.065963 1.804640 0.014053
v -0.068414 1.809510 0.008659
v -0.075796 1.832430 0.001543
v -0.072500 1.833230 0.000853
v -0.069004 1.827560 0.010992
v -0.077705 1.831040 -0.008353
v -0.076591 1.821580 -0.014292
v -0.069210 1.828250 0.004533
v -0.068849 1.802140 0.000677
v -0.067731 1.803080 0.011052
v -0.065398 1.798250 0.005548
v -0.071793 1.806310 -0.012328
v -0.065755 1.797620 -0.005491
v -0.063214 1.797680 -0.005815
v -0.058440 1.788240 0.001949
v -0.060657 1.788250 0.001944
v -0.060179 1.788200 0.009997
v -0.057110 1.788000 0.010804
v -0.056593 1.791590 0.001760
v -0.061781 1.803820 -0.006169
v -0.068667 1.805940 -0.012767
v -0.068667 1.805940 -0.012767
v -0.076591 1.821580 -0.014292
v -0.072935 1.821280 -0.014851
v -0.077705 1.831040 -0.008353
v -0.073999 1.831080 -0.009003
v -0.075796 1.832430 0.001543
v -0.070357 1.818540 -0.011805
v -0.073999 1.831080 -0.009003
v -0.071204 1.826250 -0.007358
v -0.072500 1.833230 0.000853
v -0.067631 1.827010 -0.006899
v -0.068667 1.805940 -0.012767
v -0.061781 1.803820 -0.006169
v -0.066413 1.818450 -0.009964
v -0.067631 1.827010 -0.006899
v -0.072500 1.833230 0.000853
v -0.069210 1.828250 0.004533
v -0.067631 1.827010 -0.006899
v -0.069210 1.828250 0.004533
v -0.069210 1.828250 0.004533
v -0.067598 1.829780 0.000633
v -0.073999 1.831080 -0.009003
v -0.072500 1.833230 0.000853
v -0.042520 1.820350 0.072666
v -0.015990 1.755015 0.095652
v -0.008763 1.754855 0.101803
v 0.000000 1.754200 0.105502
v 0.008763 1.754855 0.101803
v 0.015990 1.755015 0.095652
v 0.021236 1.754300 0.091276
v 0.069210 1.828250 0.004533
v 0.066821 1.818640 0.014332
v -0.069210 1.828250 0.004533
v -0.066821 1.818640 0.014332
v 0.025681 1.830070 0.079002
v 0.032410 1.826440 0.083749
v 0.028793 1.825460 0.084066
v 0.031946 1.831750 0.078454
v 0.021095 1.825460 0.079403
v 0.026145 1.822810 0.084298
v 0.019416 1.819180 0.079550
v 0.025175 1.819180 0.084382
v 0.021095 1.812890 0.079403
v 0.026145 1.815540 0.084298
v 0.025681 1.808280 0.079002
v 0.028793 1.812890 0.084066
v 0.031946 1.806600 0.078454
v 0.032410 1.811910 0.083749
v 0.038211 1.808280 0.077905
v 0.036027 1.812890 0.083433
v 0.042798 1.812890 0.077504
v 0.038675 1.815540 0.083201
v 0.044477 1.819180 0.077357
v 0.039644 1.819180 0.083117
v 0.042798 1.825460 0.077504
v 0.038675 1.822810 0.083201
v 0.038211 1.830070 0.077905
v 0.036027 1.825460 0.083433
v 0.031314 1.804650 0.071219
v 0.024079 1.806600 0.071852
v 0.018783 1.811910 0.072315
v 0.016845 1.819180 0.072485
v 0.018783 1.826440 0.072315
v 0.024079 1.831750 0.071852
v 0.031314 1.833700 0.071219
v 0.038548 1.831750 0.070586
v 0.032579 1.819180 0.085688
v 0.043844 1.826440 0.070123
v 0.045782 1.819180 0.069953
v 0.043844 1.811910 0.070123
v 0.038548 1.806600 0.070586
v -0.025681 1.830070 0.079002
v -0.032410 1.826440 0.083749
v -0.031946 1.831750 0.078454
v -0.028793 1.825460 0.084066
v -0.021095 1.825460 0.079403
v -0.026145 1.822810 0.084298
v -0.019416 1.819180 0.079550
v -0.025175 1.819180 0.084382
v -0.021095 1.812890 0.079403
v -0.026145 1.815540 0.084298
v -0.025681 1.808280 0.079002
v -0.028793 1.812890 0.084066
v -0.031946 1.806600 0.078454
v -0.032410 1.811910 0.083749
v -0.038211 1.808280 0.077905
v -0.036027 1.812890 0.083433
v -0.042798 1.812890 0.077504
v -0.038675 1.815540 0.083201
v -0.044477 1.819180 0.077357
v -0.039644 1.819180 0.083117
v -0.042798 1.825460 0.077504
v -0.038675 1.822810 0.083201
v -0.038211 1.830070 0.077905
v -0.036027 1.825460 0.083433
v -0.031314 1.804650 0.071219
v -0.038548 1.806600 0.070586
v -0.043844 1.811910 0.070123
v -0.045782 1.819180 0.069953
v -0.043844 1.826440 0.070123
v -0.038548 1.831750 0.070586
v -0.031314 1.833700 0.071219
v -0.024079 1.831750 0.071852
v -0.018783 1.826440 0.072315
v -0.016845 1.819180 0.072485
v -0.018783 1.811910 0.072315
v -0.024079 1.806600 0.071852
v -0.032579 1.819180 0.085688
vt 0.845126 0.550011
vt 0.869462 0.478231
vt 0.820060 0.453358
vt 0.874952 0.551033
vt 0.919217 0.471351
vt 0.914505 0.417747
vt 0.955731 0.411000
vt 0.960782 0.458237
vt 0.924766 0.540782
vt 0.969880 0.525763
vt 0.863048 0.417888
vt 0.877395 0.609816
vt 0.928593 0.604876
vt 0.975836 0.597704
vt 0.800720 0.362024
vt 0.853845 0.338247
vt 0.771682 0.265569
vt 0.846636 0.246495
vt 0.745385 0.182978
vt 0.680435 0.209808
vt 0.644132 0.137603
vt 0.724237 0.298706
vt 0.910395 0.353744
vt 0.783559 0.143857
vt 0.846671 0.165612
vt 0.910797 0.280146
vt 0.918106 0.209655
vt 0.634326 0.198991
vt 0.601165 0.136233
vt 0.623666 0.089977
vt 0.574600 0.078599
vt 0.548593 0.181785
vt 0.537662 0.116465
vt 0.498639 0.177361
vt 0.498928 0.111942
vt 0.538550 0.070132
vt 0.955876 0.298245
vt 0.952972 0.356872
vt 0.967498 0.244019
vt 0.546969 0.025388
vt 0.621723 0.039335
vt 0.557921 0.253322
vt 0.675643 0.282848
vt 0.612701 0.320386
vt 0.697276 0.350125
vt 0.682111 0.376538
vt 0.603000 0.367844
vt 0.550292 0.308119
vt 0.497926 0.249250
vt 0.496659 0.297935
vt 0.542805 0.374750
vt 0.762846 0.407053
vt 0.782487 0.521421
vt 0.814848 0.548779
vt 0.745687 0.424260
vt 0.760870 0.512895
vt 0.547628 0.404328
vt 0.600227 0.403643
vt 0.546791 0.435023
vt 0.604889 0.434562
vt 0.611758 0.460397
vt 0.565660 0.455663
vt 0.570532 0.490309
vt 0.538603 0.469877
vt 0.541102 0.458239
vt 0.614135 0.503331
vt 0.560407 0.531719
vt 0.605910 0.544204
vt 0.567581 0.563799
vt 0.541012 0.551277
vt 0.549522 0.571609
vt 0.596916 0.566507
vt 0.526223 0.565001
vt 0.538082 0.580737
vt 0.531615 0.536491
vt 0.533273 0.514966
vt 0.523986 0.478909
vt 0.534287 0.462095
vt 0.520909 0.474674
vt 0.519475 0.504661
vt 0.507177 0.490713
vt 0.504768 0.504650
vt 0.615098 0.580479
vt 0.665068 0.577405
vt 0.539246 0.591980
vt 0.554259 0.588530
vt 0.526335 0.546301
vt 0.512176 0.571401
vt 0.516409 0.552142
vt 0.497460 0.571698
vt 0.509224 0.598267
vt 0.499649 0.600700
vt 0.497609 0.546352
vt 0.504474 0.540133
vt 0.515846 0.534508
vt 0.513233 0.527642
vt 0.501841 0.531992
vt 0.501379 0.527727
vt 0.511103 0.522757
vt 0.495833 0.534200
vt 0.495698 0.527447
vt 0.521525 0.536058
vt 0.491283 0.571049
vt 0.490535 0.600754
vt 0.491910 0.546767
vt 0.492373 0.534691
vt 0.491802 0.528403
vt 0.492874 0.518146
vt 0.496631 0.516485
vt 0.501235 0.515828
vt 0.507026 0.513290
vt 0.504495 0.508928
vt 0.512840 0.514683
vt 0.517982 0.511274
vt 0.527523 0.519006
vt 0.523235 0.522839
vt 0.517911 0.517802
vt 0.526591 0.532622
vt 0.493061 0.510309
vt 0.492949 0.505292
vt 0.498795 0.494223
vt 0.492361 0.493650
vt 0.498190 0.490513
vt 0.505985 0.486558
vt 0.496691 0.485953
vt 0.492074 0.490929
vt 0.491914 0.486755
vt 0.504330 0.481936
vt 0.518180 0.471689
vt 0.525747 0.459598
vt 0.487163 0.486452
vt 0.486031 0.490924
vt 0.478668 0.487747
vt 0.479913 0.483650
vt 0.466837 0.477449
vt 0.469456 0.475612
vt 0.463565 0.480581
vt 0.458820 0.461451
vt 0.477700 0.491520
vt 0.467353 0.505199
vt 0.452629 0.513806
vt 0.452740 0.469129
vt 0.458820 0.461451
vt 0.481474 0.505144
vt 0.458295 0.518198
vt 0.452960 0.535016
vt 0.424865 0.528571
vt 0.442883 0.548878
vt 0.416169 0.559750
vt 0.433514 0.568474
vt 0.379536 0.538221
vt 0.387170 0.560689
vt 0.456794 0.563241
vt 0.444351 0.578130
vt 0.319897 0.567282
vt 0.368576 0.573304
vt 0.373782 0.497549
vt 0.418079 0.487230
vt 0.378260 0.455468
vt 0.425113 0.453236
vt 0.451051 0.457215
vt 0.444101 0.433253
vt 0.386113 0.430193
vt 0.391673 0.399704
vt 0.443550 0.402393
vt 0.319205 0.466307
vt 0.316658 0.517706
vt 0.323113 0.436089
vt 0.328339 0.405099
vt 0.281155 0.431273
vt 0.257847 0.482347
vt 0.255794 0.546890
vt 0.258062 0.594952
vt 0.389966 0.364133
vt 0.449131 0.373117
vt 0.443585 0.306722
vt 0.381716 0.316883
vt 0.311727 0.369542
vt 0.297720 0.343088
vt 0.320865 0.277748
vt 0.437577 0.251795
vt 0.272800 0.291833
vt 0.231760 0.396068
vt 0.196617 0.350819
vt 0.227402 0.258096
vt 0.317664 0.205841
vt 0.254545 0.178395
vt 0.354496 0.135336
vt 0.155037 0.238114
vt 0.145993 0.326277
vt 0.134774 0.402551
vt 0.174792 0.438517
vt 0.207983 0.506403
vt 0.176051 0.530541
vt 0.126554 0.460048
vt 0.146934 0.529851
vt 0.118410 0.529118
vt 0.085835 0.400430
vt 0.079581 0.451231
vt 0.047142 0.392622
vt 0.040967 0.437031
vt 0.071760 0.516589
vt 0.030028 0.499929
vt 0.113236 0.584945
vt 0.065043 0.577053
vt 0.020895 0.567208
vt 0.091543 0.339560
vt 0.170109 0.589809
vt 0.185064 0.574624
vt 0.191919 0.539412
vt 0.140970 0.588443
vt 0.165432 0.654020
vt 0.137457 0.646026
vt 0.109049 0.638762
vt 0.137423 0.691742
vt 0.110032 0.687357
vt 0.141902 0.720813
vt 0.123036 0.732157
vt 0.063670 0.691209
vt 0.078448 0.753770
vt 0.017964 0.696822
vt 0.030709 0.768197
vt 0.194650 0.657606
vt 0.189602 0.595105
vt 0.204354 0.713836
vt 0.166860 0.704414
vt 0.173592 0.740860
vt 0.224159 0.755943
vt 0.252254 0.714608
vt 0.224159 0.755943
vt 0.286901 0.757608
vt 0.307228 0.694911
vt 0.344187 0.738861
vt 0.227942 0.657649
vt 0.202883 0.603792
vt 0.224386 0.606449
vt 0.268671 0.644182
vt 0.231022 0.582489
vt 0.321036 0.617275
vt 0.356038 0.604541
vt 0.368820 0.637842
vt 0.357932 0.653794
vt 0.374756 0.707284
vt 0.393078 0.659874
vt 0.414705 0.704073
vt 0.431603 0.648449
vt 0.426871 0.636364
vt 0.394631 0.644697
vt 0.408112 0.744572
vt 0.366783 0.752732
vt 0.451097 0.742787
vt 0.444986 0.791649
vt 0.395728 0.800137
vt 0.437755 0.848075
vt 0.482385 0.843860
vt 0.484418 0.791321
vt 0.523847 0.795121
vt 0.526605 0.852208
vt 0.572660 0.807975
vt 0.579073 0.870168
vt 0.564393 0.751047
vt 0.521378 0.745751
vt 0.614248 0.825365
vt 0.479766 0.907569
vt 0.528252 0.916843
vt 0.582308 0.929915
vt 0.618491 0.889809
vt 0.616699 0.943119
vt 0.589149 0.986225
vt 0.531344 0.992130
vt 0.614248 0.825365
vt 0.615030 0.978868
vt 0.560552 0.709675
vt 0.600840 0.716137
vt 0.585252 0.666739
vt 0.547088 0.652428
vt 0.621291 0.663073
vt 0.670471 0.708476
vt 0.552569 0.640588
vt 0.584593 0.651273
vt 0.611184 0.646133
vt 0.583919 0.634563
vt 0.557998 0.630650
vt 0.540545 0.613300
vt 0.530088 0.621715
vt 0.522554 0.608125
vt 0.518284 0.634079
vt 0.510489 0.612391
vt 0.516872 0.672136
vt 0.501177 0.632869
vt 0.499809 0.615493
vt 0.490149 0.616297
vt 0.489673 0.633348
vt 0.535378 0.602924
vt 0.602728 0.628563
vt 0.561037 0.625407
vt 0.583227 0.626978
vt 0.563106 0.622126
vt 0.581817 0.622809
vt 0.598780 0.620880
vt 0.594358 0.617450
vt 0.549838 0.608402
vt 0.547690 0.610448
vt 0.553581 0.605116
vt 0.547803 0.599300
vt 0.544937 0.600270
vt 0.553030 0.598679
vt 0.557657 0.600780
vt 0.552869 0.596878
vt 0.557968 0.597788
vt 0.564302 0.618006
vt 0.566415 0.610473
vt 0.580786 0.618577
vt 0.579165 0.611104
vt 0.590634 0.614071
vt 0.585937 0.607446
vt 0.597032 0.608324
vt 0.589030 0.606468
vt 0.588549 0.601863
vt 0.595658 0.596107
vt 0.583801 0.596080
vt 0.587659 0.588907
vt 0.572947 0.585967
vt 0.555439 0.591730
vt 0.571340 0.592818
vt 0.605876 0.609212
vt 0.600720 0.590171
vt 0.590574 0.581926
vt 0.573033 0.579322
vt 0.547468 0.593970
vt 0.626165 0.613161
vt 0.661135 0.628424
vt 0.727142 0.609959
vt 0.732163 0.560476
vt 0.670923 0.527058
vt 0.732132 0.494174
vt 0.670747 0.474527
vt 0.668057 0.443623
vt 0.663975 0.411953
vt 0.710759 0.440770
vt 0.754816 0.563734
vt 0.754753 0.599209
vt 0.761574 0.622319
vt 0.713293 0.659319
vt 0.753839 0.675938
vt 0.782516 0.623350
vt 0.788079 0.678918
vt 0.725229 0.732755
vt 0.774332 0.736028
vt 0.818558 0.677674
vt 0.817503 0.611329
vt 0.848082 0.611629
vt 0.848193 0.671571
vt 0.878474 0.666247
vt 0.845253 0.719120
vt 0.874265 0.716884
vt 0.838524 0.749004
vt 0.857509 0.762564
vt 0.922674 0.724653
vt 0.902867 0.788975
vt 0.970316 0.734208
vt 0.952048 0.808003
vt 0.813721 0.729666
vt 0.804101 0.766788
vt 0.929774 0.665906
vt 0.977967 0.667793
vt 0.751021 0.777561
vt 0.687006 0.773928
vt 0.802753 0.594369
vt 0.797914 0.556913
vt 0.796630 0.615755
vt 0.687006 0.773928
vt 0.629997 0.750531
vt 0.605513 0.762779
vt 0.796630 0.615755
vt 0.775546 0.618450
vt 0.775546 0.618450
vt 0.495522 0.390732
vt 0.506577 0.402499
vt 0.507601 0.391383
vt 0.495289 0.402073
vt 0.521115 0.401646
vt 0.519832 0.388556
vt 0.495056 0.412894
vt 0.507867 0.413484
vt 0.494557 0.425954
vt 0.508791 0.427401
vt 0.503479 0.438495
vt 0.494059 0.436546
vt 0.501520 0.441696
vt 0.508942 0.444404
vt 0.512192 0.440950
vt 0.493807 0.440044
vt 0.500076 0.445480
vt 0.493442 0.443861
vt 0.498649 0.449548
vt 0.507766 0.448539
vt 0.518785 0.453581
vt 0.521385 0.450571
vt 0.516531 0.458436
vt 0.506137 0.453473
vt 0.492938 0.448087
vt 0.527062 0.447352
vt 0.523730 0.429358
vt 0.524138 0.413665
vt 0.517148 0.463428
vt 0.501423 0.455869
vt 0.492763 0.449298
vt 0.484136 0.451674
vt 0.480891 0.448895
vt 0.474202 0.456225
vt 0.473263 0.452665
vt 0.471127 0.449330
vt 0.464662 0.461803
vt 0.468613 0.447133
vt 0.479303 0.441603
vt 0.480040 0.445111
vt 0.487425 0.447765
vt 0.486940 0.443865
vt 0.486179 0.440196
vt 0.484742 0.436964
vt 0.476598 0.438417
vt 0.480581 0.426112
vt 0.466335 0.427549
vt 0.466305 0.412188
vt 0.482250 0.412683
vt 0.463401 0.444752
vt 0.484021 0.401915
vt 0.483417 0.390857
vt 0.469676 0.400483
vt 0.471372 0.387548
vt 0.479770 0.368754
vt 0.471997 0.345846
vt 0.496329 0.338581
vt 0.495984 0.362240
vt 0.512052 0.369354
vt 0.520566 0.346573
vt 0.521385 0.450571
vt 0.525747 0.459598
vt 0.534287 0.462095
vt 0.534287 0.462095
vt 0.741031 0.117997
vt 0.519549 0.705695
vt 0.486296 0.742947
vt 0.487537 0.703934
vt 0.488491 0.673227
vt 0.460314 0.670107
vt 0.455561 0.703221
vt 0.461174 0.632187
vt 0.478217 0.632106
vt 0.480536 0.614876
vt 0.470095 0.611140
vt 0.458344 0.606163
vt 0.450157 0.619156
vt 0.440263 0.610159
vt 0.422091 0.626190
vt 0.396248 0.628278
vt 0.445916 0.600232
vt 0.378108 0.621146
vt 0.419389 0.620823
vt 0.397355 0.620898
vt 0.417517 0.617451
vt 0.398979 0.616947
vt 0.382399 0.613891
vt 0.386921 0.610811
vt 0.431366 0.604758
vt 0.433362 0.606888
vt 0.427824 0.601268
vt 0.433831 0.595890
vt 0.436601 0.597023
vt 0.428670 0.594958
vt 0.424014 0.596735
vt 0.428925 0.593200
vt 0.423866 0.593774
vt 0.416557 0.613311
vt 0.414872 0.605745
vt 0.400242 0.612840
vt 0.402265 0.605570
vt 0.390834 0.607722
vt 0.395815 0.601543
vt 0.384887 0.601705
vt 0.376128 0.601992
vt 0.386842 0.589835
vt 0.382208 0.583705
vt 0.393552 0.595911
vt 0.398503 0.590523
vt 0.395094 0.583259
vt 0.409756 0.581243
vt 0.410980 0.588070
vt 0.392595 0.576207
vt 0.410013 0.574698
vt 0.426674 0.587958
vt 0.427988 0.584903
vt 0.434445 0.590689
vt 0.442652 0.589191
vt 0.461628 0.593567
vt 0.472071 0.597169
vt 0.481465 0.600155
vt 0.485074 0.571378
vt 0.470416 0.570324
vt 0.467218 0.551067
vt 0.457525 0.544832
vt 0.486211 0.546286
vt 0.479824 0.539844
vt 0.468821 0.533704
vt 0.471713 0.527170
vt 0.482840 0.531826
vt 0.483571 0.527278
vt 0.474122 0.522583
vt 0.488766 0.534393
vt 0.488166 0.527706
vt 0.463050 0.535147
vt 0.489193 0.516619
vt 0.484068 0.515957
vt 0.478710 0.513507
vt 0.481601 0.509048
vt 0.473005 0.514496
vt 0.467998 0.510952
vt 0.462108 0.521978
vt 0.467690 0.517140
vt 0.457987 0.531552
vt 0.486026 0.494615
vt 0.476166 0.989601
vt 0.421237 0.986626
vt 0.430790 0.912105
vt 0.364526 0.975154
vt 0.376133 0.919981
vt 0.339541 0.965353
vt 0.340989 0.929796
vt 0.343810 0.876824
vt 0.384324 0.861094
vt 0.353327 0.813612
vt 0.343810 0.876824
vt 0.195021 0.914237
vt 0.210229 0.937193
vt 0.211432 0.932820
vt 0.190133 0.918388
vt 0.181484 0.877431
vt 0.197889 0.889618
vt 0.239845 0.944424
vt 0.242045 0.953086
vt 0.210229 0.937193
vt 0.260568 0.933120
vt 0.268203 0.908963
vt 0.214288 0.952436
vt 0.216117 0.865908
vt 0.190120 0.873592
vt 0.201956 0.856557
vt 0.256468 0.870184
vt 0.263247 0.864891
vt 0.272637 0.906321
vt 0.231318 0.848974
vt 0.234508 0.842634
vt 0.205052 0.822751
vt 0.205099 0.826905
vt 0.184599 0.829154
vt 0.180254 0.823104
vt 0.210008 0.816072
vt 0.250888 0.837663
vt 0.263247 0.864891
vt 0.260568 0.933120
vt 0.268203 0.908963
vt 0.263707 0.933532
vt 0.239845 0.944424
vt 0.263707 0.933532
vt 0.277867 0.901715
vt 0.274821 0.930390
vt 0.242045 0.953086
vt 0.282057 0.931645
vt 0.262404 0.963822
vt 0.263247 0.864891
vt 0.242045 0.953086
vt 0.262404 0.963822
vt 0.282057 0.931645
vt 0.287016 0.900738
vt 0.286374 0.853643
vt 0.286374 0.853643
vt 0.263247 0.864891
vt 0.263707 0.933532
vt 0.242045 0.953086
vt 0.282057 0.931645
vt 0.262404 0.963822
vt 0.275052 0.955045
vt 0.519899 0.595268
vt 0.448570 0.180797
vt 0.460339 0.115952
vt 0.396966 0.134645
vt 0.363264 0.196101
vt 0.375122 0.088620
vt 0.423944 0.077827
vt 0.459879 0.069766
vt 0.259341 0.115151
vt 0.451689 0.025158
vt 0.377302 0.038682
vt 0.499276 0.009886
vt 0.499196 0.061732
vt 0.217687 0.139890
vt 0.156239 0.160306
vt 0.092772 0.269330
vt 0.086886 0.201916
vt 0.049468 0.285979
vt 0.051092 0.341533
vt 0.039155 0.234378
vt 0.247652 0.413543
vt 0.228728 0.499448
vt 0.234068 0.548736
vt 0.213167 0.601091
vt 0.213167 0.601091
vt 0.060452 0.634862
vt 0.014793 0.633256
vt 0.154624 0.914154
vt 0.138845 0.936968
vt 0.158748 0.918246
vt 0.138059 0.932767
vt 0.169155 0.878021
vt 0.151133 0.889015
vt 0.109471 0.944143
vt 0.107152 0.953020
vt 0.138845 0.936968
vt 0.088841 0.932495
vt 0.080581 0.908114
vt 0.134801 0.952286
vt 0.132747 0.865760
vt 0.159439 0.873752
vt 0.148549 0.856499
vt 0.093074 0.870108
vt 0.118474 0.848511
vt 0.115250 0.842279
vt 0.144963 0.822580
vt 0.144941 0.826724
vt 0.165631 0.829197
vt 0.169874 0.823204
vt 0.140088 0.815902
vt 0.098794 0.837082
vt 0.086372 0.864445
vt 0.086372 0.864445
vt 0.080581 0.908114
vt 0.076119 0.905850
vt 0.088841 0.932495
vt 0.085998 0.932901
vt 0.109471 0.944143
vt 0.070860 0.901526
vt 0.085998 0.932901
vt 0.074957 0.929838
vt 0.107152 0.953020
vt 0.066079 0.931963
vt 0.086372 0.864445
vt 0.061381 0.853788
vt 0.062443 0.900778
vt 0.066079 0.931963
vt 0.107152 0.953020
vt 0.086262 0.963867
vt 0.066079 0.931963
vt 0.086262 0.963867
vt 0.086262 0.963867
vt 0.075076 0.954563
vt 0.085998 0.932901
vt 0.107152 0.953020
vt 0.392835 0.600388
vt 0.471961 0.472887
vt 0.481023 0.480141
vt 0.491643 0.482700
vt 0.502624 0.477949
vt 0.515269 0.466754
vt 0.528980 0.462389
vt 0.214288 0.952436
vt 0.190133 0.918388
vt 0.134801 0.952286
vt 0.158748 0.918246
vt 0.676962 0.925895
vt 0.694956 0.911785
vt 0.686601 0.909300
vt 0.694976 0.929938
vt 0.663765 0.912493
vt 0.680324 0.903353
vt 0.658914 0.894502
vt 0.677905 0.894939
vt 0.663768 0.876473
vt 0.680054 0.886351
vt 0.677114 0.863657
vt 0.686275 0.879901
vt 0.695113 0.858290
vt 0.694987 0.877866
vt 0.713029 0.863970
vt 0.703655 0.880001
vt 0.726078 0.876860
vt 0.709795 0.886498
vt 0.730767 0.894741
vt 0.711882 0.895064
vt 0.726125 0.912715
vt 0.709438 0.903434
vt 0.712636 0.925491
vt 0.703199 0.909315
vt 0.695534 0.831102
vt 0.662525 0.838500
vt 0.639044 0.863392
vt 0.631649 0.895704
vt 0.641170 0.926689
vt 0.664135 0.948430
vt 0.695293 0.957720
vt 0.726448 0.948122
vt 0.694866 0.894829
vt 0.747825 0.925618
vt 0.757094 0.896068
vt 0.750519 0.864511
vt 0.728002 0.839412
vt 0.676962 0.925895
vt 0.694956 0.911785
vt 0.694976 0.929938
vt 0.686601 0.909300
vt 0.663765 0.912493
vt 0.680324 0.903353
vt 0.658914 0.894502
vt 0.677905 0.894939
vt 0.663768 0.876473
vt 0.680054 0.886351
vt 0.677114 0.863657
vt 0.686275 0.879901
vt 0.695113 0.858290
vt 0.694987 0.877866
vt 0.713029 0.863970
vt 0.703655 0.880001
vt 0.726078 0.876860
vt 0.709795 0.886498
vt 0.730767 0.894741
vt 0.711882 0.895064
vt 0.726125 0.912715
vt 0.709438 0.903434
vt 0.712636 0.925491
vt 0.703199 0.909315
vt 0.695534 0.831102
vt 0.728002 0.839412
vt 0.750519 0.864511
vt 0.757094 0.896068
vt 0.747825 0.925618
vt 0.726448 0.948122
vt 0.695293 0.957720
vt 0.664135 0.948430
vt 0.641170 0.926689
vt 0.631649 0.895704
vt 0.639044 0.863392
vt 0.662525 0.838500
vt 0.694866 0.894829
f 3/3/3 2/2/2 1/1/1
f 4/4/4 1/1/1 2/2/2
f 2/2/2 5/5/5 4/4/4
f 5/5/5 2/2/2 6/6/6
f 6/6/6 7/7/7 5/5/5
f 8/8/8 5/5/5 7/7/7
f 5/5/5 8/8/8 9/9/9
f 9/9/9 4/4/4 5/5/5
f 10/10/10 9/9/9 8/8/8
f 11/11/11 6/6/6 2/2/2
f 2/2/2 3/3/3 11/11/11
f 4/4/4 9/9/9 12/12/12
f 13/13/13 12/12/12 9/9/9
f 13/13/13 9/9/9 14/14/14
f 10/10/10 14/14/14 9/9/9
f 15/15/15 11/11/11 3/3/3
f 11/11/11 15/15/15 16/16/16
f 17/17/17 16/16/16 15/15/15
f 16/16/16 17/17/17 18/18/18
f 19/19/19 18/18/18 17/17/17
f 17/17/17 20/20/20 19/19/19
f 21/21/21 19/19/19 20/20/20
f 20/20/20 17/17/17 22/22/22
f 15/15/15 22/22/22 17/17/17
f 16/16/16 23/23/23 11/11/11
f 6/6/6 11/11/11 23/23/23
f 19/19/19 24/24/24 18/18/18
f 25/25/25 18/18/18 24/24/24
f 18/18/18 25/25/25 26/26/26
f 23/23/23 16/16/16 26/26/26
f 18/18/18 26/26/26 16/16/16
f 27/27/27 26/26/26 25/25/25
f 20/20/20 28/28/28 21/21/21
f 29/29/29 21/21/21 28/28/28
f 21/21/21 29/29/29 30/30/30
f 21/21/21 30/30/30 19/19/19
f 31/31/31 30/30/30 29/29/29
f 28/28/28 32/32/32 29/29/29
f 33/33/33 29/29/29 32/32/32
f 29/29/29 33/33/33 31/31/31
f 32/32/32 34/34/34 33/33/33
f 35/35/35 33/33/33 34/34/34
f 36/36/36 31/31/31 33/33/33
f 33/33/33 35/35/35 36/36/36
f 26/26/26 37/37/37 23/23/23
f 38/38/38 23/23/23 37/37/37
f 37/37/37 26/26/26 39/39/39
f 27/27/27 39/39/39 26/26/26
f 31/31/31 40/40/40 30/30/30
f 31/31/31 36/36/36 40/40/40
f 41/41/41 30/30/30 40/40/40
f 32/32/32 28/28/28 42/42/42
f 43/43/43 42/42/42 28/28/28
f 42/42/42 43/43/43 44/44/44
f 45/45/45 44/44/44 43/43/43
f 45/45/45 46/46/46 44/44/44
f 47/47/47 44/44/44 46/46/46
f 44/44/44 47/47/47 48/48/48
f 44/44/44 48/48/48 42/42/42
f 42/42/42 48/48/48 49/49/49
f 50/50/50 49/49/49 48/48/48
f 51/51/51 48/48/48 47/47/47
f 43/43/43 22/22/22 45/45/45
f 52/52/52 45/45/45 22/22/22
f 45/45/45 52/52/52 46/46/46
f 22/22/22 15/15/15 52/52/52
f 3/3/3 52/52/52 15/15/15
f 52/52/52 3/3/3 53/53/53
f 54/54/54 53/53/53 3/3/3
f 22/22/22 43/43/43 20/20/20
f 28/28/28 20/20/20 43/43/43
f 55/55/55 46/46/46 52/52/52
f 55/55/55 52/52/52 56/56/56
f 53/53/53 56/56/56 52/52/52
f 51/51/51 47/47/47 57/57/57
f 58/58/58 57/57/57 47/47/47
f 57/57/57 58/58/58 59/59/59
f 60/60/60 59/59/59 58/58/58
f 60/60/60 61/61/61 59/59/59
f 62/62/62 59/59/59 61/61/61
f 62/62/62 61/61/61 63/63/63
f 63/63/63 64/64/64 62/62/62
f 65/65/65 62/62/62 64/64/64
f 62/62/62 65/65/65 59/59/59
f 66/66/66 63/63/63 61/61/61
f 63/63/63 66/66/66 67/67/67
f 68/68/68 67/67/67 66/66/66
f 67/67/67 68/68/68 69/69/69
f 67/67/67 69/69/69 70/70/70
f 71/71/71 70/70/70 69/69/69
f 72/72/72 69/69/69 68/68/68
f 70/70/70 71/71/71 73/73/73
f 74/74/74 73/73/73 71/71/71
f 70/70/70 75/75/75 67/67/67
f 70/70/70 73/73/73 75/75/75
f 76/76/76 67/67/67 75/75/75
f 64/64/64 63/63/63 76/76/76
f 67/67/67 76/76/76 63/63/63
f 64/64/64 76/76/76 77/77/77
f 64/64/64 77/77/77 78/78/78
f 79/79/79 78/78/78 77/77/77
f 80/80/80 77/77/77 76/76/76
f 77/77/77 80/80/80 81/81/81
f 82/82/82 81/81/81 80/80/80
f 72/72/72 68/68/68 83/83/83
f 84/84/84 83/83/83 68/68/68
f 74/74/74 71/71/71 85/85/85
f 86/86/86 85/85/85 71/71/71
f 87/87/87 75/75/75 73/73/73
f 73/73/73 88/88/88 87/87/87
f 89/89/89 87/87/87 88/88/88
f 88/88/88 90/90/90 89/89/89
f 88/88/88 91/91/91 90/90/90
f 92/92/92 90/90/90 91/91/91
f 93/93/93 89/89/89 90/90/90
f 93/93/93 94/94/94 89/89/89
f 95/95/95 89/89/89 94/94/94
f 95/95/95 94/94/94 96/96/96
f 97/97/97 96/96/96 94/94/94
f 94/94/94 93/93/93 97/97/97
f 97/97/97 98/98/98 96/96/96
f 99/99/99 96/96/96 98/98/98
f 100/100/100 97/97/97 93/93/93
f 97/97/97 100/100/100 98/98/98
f 101/101/101 98/98/98 100/100/100
f 87/87/87 89/89/89 102/102/102
f 95/95/95 102/102/102 89/89/89
f 90/90/90 92/92/92 103/103/103
f 90/90/90 103/103/103 93/93/93
f 104/104/104 103/103/103 92/92/92
f 105/105/105 93/93/93 103/103/103
f 93/93/93 105/105/105 100/100/100
f 106/106/106 100/100/100 105/105/105
f 100/100/100 106/106/106 101/101/101
f 107/107/107 101/101/101 106/106/106
f 107/107/107 108/108/108 101/101/101
f 109/109/109 101/101/101 108/108/108
f 98/98/98 101/101/101 110/110/110
f 109/109/109 110/110/110 101/101/101
f 110/110/110 109/109/109 111/111/111
f 98/98/98 111/111/111 99/99/99
f 98/98/98 110/110/110 111/111/111
f 112/112/112 111/111/111 109/109/109
f 111/111/111 112/112/112 113/113/113
f 113/113/113 99/99/99 111/111/111
f 114/114/114 113/113/113 112/112/112
f 112/112/112 82/82/82 114/114/114
f 80/80/80 114/114/114 82/82/82
f 114/114/114 80/80/80 115/115/115
f 115/115/115 116/116/116 114/114/114
f 117/117/117 114/114/114 116/116/116
f 114/114/114 117/117/117 113/113/113
f 115/115/115 118/118/118 116/116/116
f 102/102/102 116/116/116 118/118/118
f 118/118/118 115/115/115 75/75/75
f 76/76/76 75/75/75 115/115/115
f 76/76/76 115/115/115 80/80/80
f 99/99/99 113/113/113 117/117/117
f 117/117/117 116/116/116 99/99/99
f 112/112/112 119/119/119 82/82/82
f 120/120/120 82/82/82 119/119/119
f 82/82/82 120/120/120 121/121/121
f 122/122/122 121/121/121 120/120/120
f 75/75/75 87/87/87 118/118/118
f 102/102/102 118/118/118 87/87/87
f 102/102/102 95/95/95 116/116/116
f 96/96/96 116/116/116 95/95/95
f 96/96/96 99/99/99 116/116/116
f 121/121/121 122/122/122 123/123/123
f 121/121/121 123/123/123 81/81/81
f 124/124/124 81/81/81 123/123/123
f 123/123/123 125/125/125 124/124/124
f 123/123/123 126/126/126 125/125/125
f 126/126/126 123/123/123 122/122/122
f 127/127/127 125/125/125 126/126/126
f 128/128/128 124/124/124 125/125/125
f 124/124/124 128/128/128 79/79/79
f 129/129/129 79/79/79 128/128/128
f 81/81/81 124/124/124 77/77/77
f 79/79/79 77/77/77 124/124/124
f 129/129/129 130/130/130 79/79/79
f 127/127/127 126/126/126 131/131/131
f 132/132/132 131/131/131 126/126/126
f 132/132/132 133/133/133 131/131/131
f 134/134/134 131/131/131 133/133/133
f 133/133/133 135/135/135 134/134/134
f 136/136/136 134/134/134 135/135/135
f 135/135/135 133/133/133 137/137/137
f 135/135/135 137/137/137 138/138/138
f 139/139/139 137/137/137 133/133/133
f 133/133/133 132/132/132 139/139/139
f 137/137/137 139/139/139 140/140/140
f 140/140/140 141/141/141 137/137/137
f 142/142/142 137/137/137 141/141/141
f 142/142/142 143/143/143 137/137/137
f 144/144/144 140/140/140 139/139/139
f 141/141/141 140/140/140 145/145/145
f 141/141/141 145/145/145 146/146/146
f 141/141/141 146/146/146 147/147/147
f 148/148/148 147/147/147 146/146/146
f 147/147/147 148/148/148 149/149/149
f 150/150/150 149/149/149 148/148/148
f 147/147/147 149/149/149 151/151/151
f 152/152/152 151/151/151 149/149/149
f 148/148/148 153/153/153 150/150/150
f 148/148/148 146/146/146 153/153/153
f 154/154/154 150/150/150 153/153/153
f 151/151/151 152/152/152 155/155/155
f 156/156/156 155/155/155 152/152/152
f 151/151/151 157/157/157 147/147/147
f 151/151/151 155/155/155 157/157/157
f 158/158/158 147/147/147 157/157/157
f 157/157/157 159/159/159 158/158/158
f 160/160/160 158/158/158 159/159/159
f 158/158/158 160/160/160 142/142/142
f 161/161/161 142/142/142 160/160/160
f 160/160/160 159/159/159 162/162/162
f 160/160/160 162/162/162 161/161/161
f 163/163/163 162/162/162 159/159/159
f 163/163/163 164/164/164 162/162/162
f 165/165/165 162/162/162 164/164/164
f 159/159/159 157/157/157 166/166/166
f 167/167/167 166/166/166 157/157/157
f 167/167/167 157/157/157 155/155/155
f 166/166/166 168/168/168 159/159/159
f 163/163/163 159/159/159 168/168/168
f 163/163/163 168/168/168 164/164/164
f 169/169/169 164/164/164 168/168/168
f 168/168/168 166/166/166 170/170/170
f 170/170/170 169/169/169 168/168/168
f 171/171/171 170/170/170 166/166/166
f 166/166/166 167/167/167 171/171/171
f 142/142/142 141/141/141 158/158/158
f 147/147/147 158/158/158 141/141/141
f 172/172/172 171/171/171 167/167/167
f 167/167/167 155/155/155 172/172/172
f 173/173/173 172/172/172 155/155/155
f 164/164/164 174/174/174 165/165/165
f 175/175/175 165/165/165 174/174/174
f 175/175/175 174/174/174 176/176/176
f 177/177/177 176/176/176 174/174/174
f 174/174/174 178/178/178 177/177/177
f 169/169/169 170/170/170 178/178/178
f 179/179/179 177/177/177 178/178/178
f 179/179/179 180/180/180 177/177/177
f 181/181/181 177/177/177 180/180/180
f 176/176/176 177/177/177 181/181/181
f 181/181/181 49/49/49 176/176/176
f 50/50/50 176/176/176 49/49/49
f 180/180/180 179/179/179 182/182/182
f 183/183/183 182/182/182 179/179/179
f 179/179/179 178/178/178 183/183/183
f 182/182/182 183/183/183 184/184/184
f 184/184/184 185/185/185 182/182/182
f 186/186/186 182/182/182 185/185/185
f 182/182/182 186/186/186 180/180/180
f 185/185/185 187/187/187 186/186/186
f 188/188/188 186/186/186 187/187/187
f 187/187/187 185/185/185 189/189/189
f 190/190/190 189/189/189 185/185/185
f 185/185/185 184/184/184 190/190/190
f 191/191/191 190/190/190 184/184/184
f 184/184/184 192/192/192 191/191/191
f 192/192/192 184/184/184 183/183/183
f 183/183/183 193/193/193 192/192/192
f 194/194/194 192/192/192 193/193/193
f 195/195/195 191/191/191 192/192/192
f 192/192/192 196/196/196 195/195/195
f 196/196/196 192/192/192 194/194/194
f 197/197/197 195/195/195 196/196/196
f 191/191/191 195/195/195 198/198/198
f 199/199/199 198/198/198 195/195/195
f 195/195/195 197/197/197 199/199/199
f 198/198/198 199/199/199 200/200/200
f 201/201/201 200/200/200 199/199/199
f 199/199/199 202/202/202 201/201/201
f 202/202/202 199/199/199 197/197/197
f 203/203/203 201/201/201 202/202/202
f 197/197/197 204/204/204 202/202/202
f 205/205/205 202/202/202 204/204/204
f 203/203/203 202/202/202 206/206/206
f 205/205/205 206/206/206 202/202/202
f 198/198/198 207/207/207 191/191/191
f 198/198/198 200/200/200 207/207/207
f 194/194/194 208/208/208 196/196/196
f 208/208/208 194/194/194 209/209/209
f 210/210/210 209/209/209 194/194/194
f 211/211/211 196/196/196 208/208/208
f 204/204/204 197/197/197 211/211/211
f 196/196/196 211/211/211 197/197/197
f 208/208/208 212/212/212 211/211/211
f 213/213/213 211/211/211 212/212/212
f 211/211/211 213/213/213 204/204/204
f 214/214/214 204/204/204 213/213/213
f 204/204/204 214/214/214 205/205/205
f 213/213/213 215/215/215 214/214/214
f 216/216/216 214/214/214 215/215/215
f 215/215/215 217/217/217 216/216/216
f 218/218/218 216/216/216 217/217/217
f 216/216/216 218/218/218 219/219/219
f 220/220/220 219/219/219 218/218/218
f 219/219/219 220/220/220 221/221/221
f 222/222/222 221/221/221 220/220/220
f 212/212/212 208/208/208 223/223/223
f 224/224/224 223/223/223 208/208/208
f 223/223/223 225/225/225 212/212/212
f 226/226/226 212/212/212 225/225/225
f 215/215/215 226/226/226 217/217/217
f 212/212/212 226/226/226 213/213/213
f 215/215/215 213/213/213 226/226/226
f 226/226/226 225/225/225 227/227/227
f 227/227/227 217/217/217 226/226/226
f 228/228/228 227/227/227 225/225/225
f 225/225/225 223/223/223 229/229/229
f 225/225/225 229/229/229 230/230/230
f 231/231/231 230/230/230 229/229/229
f 229/229/229 232/232/232 231/231/231
f 233/233/233 231/231/231 232/232/232
f 234/234/234 229/229/229 223/223/223
f 223/223/223 235/235/235 234/234/234
f 223/223/223 224/224/224 235/235/235
f 236/236/236 234/234/234 235/235/235
f 234/234/234 237/237/237 229/229/229
f 232/232/232 229/229/229 237/237/237
f 234/234/234 236/236/236 237/237/237
f 173/173/173 237/237/237 236/236/236
f 236/236/236 238/238/238 173/173/173
f 172/172/172 173/173/173 238/238/238
f 237/237/237 173/173/173 239/239/239
f 237/237/237 239/239/239 232/232/232
f 155/155/155 239/239/239 173/173/173
f 239/239/239 155/155/155 240/240/240
f 240/240/240 241/241/241 239/239/239
f 242/242/242 239/239/239 241/241/241
f 242/242/242 232/232/232 239/239/239
f 232/232/232 242/242/242 243/243/243
f 243/243/243 233/233/233 232/232/232
f 244/244/244 243/243/243 242/242/242
f 242/242/242 241/241/241 244/244/244
f 243/243/243 244/244/244 245/245/245
f 246/246/246 245/245/245 244/244/244
f 246/246/246 244/244/244 247/247/247
f 248/248/248 247/247/247 244/244/244
f 248/248/248 244/244/244 241/241/241
f 245/245/245 249/249/249 243/243/243
f 250/250/250 243/243/243 249/249/249
f 249/249/249 245/245/245 251/251/251
f 251/251/251 252/252/252 249/249/249
f 253/253/253 249/249/249 252/252/252
f 249/249/249 253/253/253 250/250/250
f 252/252/252 254/254/254 253/253/253
f 254/254/254 252/252/252 255/255/255
f 256/256/256 255/255/255 252/252/252
f 252/252/252 251/251/251 256/256/256
f 256/256/256 257/257/257 255/255/255
f 258/258/258 255/255/255 257/257/257
f 257/257/257 259/259/259 258/258/258
f 260/260/260 258/258/258 259/259/259
f 259/259/259 257/257/257 261/261/261
f 262/262/262 261/261/261 257/257/257
f 257/257/257 256/256/256 262/262/262
f 259/259/259 263/263/263 260/260/260
f 255/255/255 258/258/258 264/264/264
f 255/255/255 264/264/264 254/254/254
f 265/265/265 264/264/264 258/258/258
f 258/258/258 260/260/260 265/265/265
f 266/266/266 265/265/265 260/260/260
f 260/260/260 267/267/267 266/266/266
f 268/268/268 266/266/266 267/267/267
f 266/266/266 269/269/269 265/265/265
f 270/270/270 265/265/265 269/269/269
f 265/265/265 270/270/270 264/264/264
f 267/267/267 260/260/260 271/271/271
f 269/269/269 266/266/266 272/272/272
f 268/268/268 272/272/272 266/266/266
f 261/261/261 262/262/262 273/273/273
f 273/273/273 274/274/274 261/261/261
f 274/274/274 273/273/273 275/275/275
f 276/276/276 275/275/275 273/273/273
f 275/275/275 277/277/277 274/274/274
f 278/278/278 274/274/274 277/277/277
f 276/276/276 279/279/279 275/275/275
f 280/280/280 275/275/275 279/279/279
f 277/277/277 275/275/275 281/281/281
f 280/280/280 281/281/281 275/275/275
f 280/280/280 279/279/279 282/282/282
f 280/280/280 282/282/282 281/281/281
f 283/283/283 282/282/282 279/279/279
f 283/283/283 279/279/279 284/284/284
f 285/285/285 284/284/284 279/279/279
f 285/285/285 286/286/286 284/284/284
f 285/285/285 287/287/287 286/286/286
f 276/276/276 287/287/287 279/279/279
f 285/285/285 279/279/279 287/287/287
f 288/288/288 286/286/286 287/287/287
f 276/276/276 289/289/289 287/287/287
f 290/290/290 287/287/287 289/289/289
f 287/287/287 290/290/290 288/288/288
f 291/291/291 288/288/288 290/290/290
f 291/291/291 290/290/290 292/292/292
f 293/293/293 292/292/292 290/290/290
f 290/290/290 289/289/289 293/293/293
f 294/294/294 284/284/284 286/286/286
f 295/295/295 281/281/281 282/282/282
f 283/283/283 296/296/296 282/282/282
f 283/283/283 284/284/284 296/296/296
f 297/297/297 282/282/282 296/296/296
f 282/282/282 297/297/297 295/295/295
f 296/296/296 298/298/298 297/297/297
f 299/299/299 297/297/297 298/298/298
f 297/297/297 299/299/299 300/300/300
f 300/300/300 295/295/295 297/297/297
f 301/301/301 300/300/300 299/299/299
f 298/298/298 296/296/296 302/302/302
f 303/303/303 302/302/302 296/296/296
f 302/302/302 304/304/304 298/298/298
f 304/304/304 302/302/302 305/305/305
f 306/306/306 305/305/305 302/302/302
f 306/306/306 302/302/302 303/303/303
f 305/305/305 307/307/307 304/304/304
f 308/308/308 304/304/304 307/307/307
f 307/307/307 309/309/309 308/308/308
f 307/307/307 305/305/305 309/309/309
f 310/310/310 308/308/308 309/309/309
f 304/304/304 308/308/308 311/311/311
f 311/311/311 298/298/298 304/304/304
f 298/298/298 311/311/311 299/299/299
f 312/312/312 311/311/311 308/308/308
f 311/311/311 312/312/312 313/313/313
f 313/313/313 299/299/299 311/311/311
f 314/314/314 313/313/313 312/312/312
f 313/313/313 314/314/314 315/315/315
f 316/316/316 315/315/315 314/314/314
f 315/315/315 317/317/317 301/301/301
f 315/315/315 316/316/316 317/317/317
f 318/318/318 317/317/317 316/316/316
f 318/318/318 319/319/319 317/317/317
f 320/320/320 317/317/317 319/319/319
f 319/319/319 321/321/321 320/320/320
f 322/322/322 320/320/320 321/321/321
f 322/322/322 321/321/321 323/323/323
f 324/324/324 323/323/323 310/310/310
f 325/325/325 310/310/310 323/323/323
f 325/325/325 323/323/323 321/321/321
f 317/317/317 320/320/320 326/326/326
f 326/326/326 301/301/301 317/317/317
f 327/327/327 326/326/326 320/320/320
f 320/320/320 322/322/322 327/327/327
f 322/322/322 323/323/323 328/328/328
f 328/328/328 327/327/327 322/322/322
f 329/329/329 328/328/328 323/323/323
f 323/323/323 324/324/324 329/329/329
f 86/86/86 329/329/329 324/324/324
f 324/324/324 330/330/330 86/86/86
f 85/85/85 86/86/86 330/330/330
f 324/324/324 310/310/310 330/330/330
f 309/309/309 330/330/330 310/310/310
f 330/330/330 309/309/309 305/305/305
f 86/86/86 71/71/71 329/329/329
f 69/69/69 329/329/329 71/71/71
f 328/328/328 329/329/329 72/72/72
f 69/69/69 72/72/72 329/329/329
f 328/328/328 72/72/72 327/327/327
f 83/83/83 327/327/327 72/72/72
f 327/327/327 83/83/83 326/326/326
f 331/331/331 326/326/326 83/83/83
f 326/326/326 331/331/331 301/301/301
f 83/83/83 84/84/84 331/331/331
f 332/332/332 331/331/331 84/84/84
f 331/331/331 332/332/332 281/281/281
f 277/277/277 281/281/281 332/332/332
f 85/85/85 330/330/330 306/306/306
f 305/305/305 306/306/306 330/330/330
f 84/84/84 333/333/333 332/332/332
f 333/333/333 84/84/84 334/334/334
f 335/335/335 334/334/334 84/84/84
f 334/334/334 335/335/335 336/336/336
f 337/337/337 336/336/336 335/335/335
f 335/335/335 66/66/66 337/337/337
f 335/335/335 84/84/84 66/66/66
f 61/61/61 337/337/337 66/66/66
f 337/337/337 61/61/61 338/338/338
f 60/60/60 338/338/338 61/61/61
f 60/60/60 58/58/58 338/338/338
f 339/339/339 338/338/338 58/58/58
f 336/336/336 337/337/337 340/340/340
f 338/338/338 340/340/340 337/337/337
f 339/339/339 340/340/340 338/338/338
f 339/339/339 58/58/58 46/46/46
f 339/339/339 46/46/46 340/340/340
f 47/47/47 46/46/46 58/58/58
f 340/340/340 55/55/55 336/336/336
f 55/55/55 340/340/340 46/46/46
f 56/56/56 336/336/336 55/55/55
f 336/336/336 56/56/56 334/334/334
f 341/341/341 334/334/334 56/56/56
f 341/341/341 342/342/342 334/334/334
f 334/334/334 342/342/342 333/333/333
f 343/343/343 333/333/333 342/342/342
f 333/333/333 343/343/343 344/344/344
f 344/344/344 332/332/332 333/333/333
f 345/345/345 344/344/344 343/343/343
f 343/343/343 346/346/346 345/345/345
f 347/347/347 345/345/345 346/346/346
f 345/345/345 347/347/347 348/348/348
f 345/345/345 348/348/348 344/344/344
f 349/349/349 348/348/348 347/347/347
f 347/347/347 350/350/350 349/349/349
f 350/350/350 347/347/347 351/351/351
f 351/351/351 352/352/352 350/350/350
f 353/353/353 350/350/350 352/352/352
f 352/352/352 12/12/12 353/353/353
f 354/354/354 353/353/353 12/12/12
f 353/353/353 354/354/354 355/355/355
f 356/356/356 355/355/355 354/354/354
f 355/355/355 356/356/356 357/357/357
f 358/358/358 357/357/357 356/356/356
f 356/356/356 359/359/359 358/358/358
f 360/360/360 358/358/358 359/359/359
f 359/359/359 361/361/361 360/360/360
f 362/362/362 360/360/360 361/361/361
f 363/363/363 349/349/349 350/350/350
f 355/355/355 357/357/357 363/363/363
f 355/355/355 363/363/363 353/353/353
f 350/350/350 353/353/353 363/363/363
f 363/363/363 364/364/364 349/349/349
f 364/364/364 363/363/363 357/357/357
f 352/352/352 351/351/351 1/1/1
f 54/54/54 1/1/1 351/351/351
f 12/12/12 13/13/13 354/354/354
f 365/365/365 354/354/354 13/13/13
f 359/359/359 356/356/356 365/365/365
f 354/354/354 365/365/365 356/356/356
f 365/365/365 13/13/13 366/366/366
f 361/361/361 359/359/359 366/366/366
f 365/365/365 366/366/366 359/359/359
f 14/14/14 366/366/366 13/13/13
f 3/3/3 1/1/1 54/54/54
f 367/367/367 349/349/349 364/364/364
f 349/349/349 367/367/367 348/348/348
f 368/368/368 348/348/348 367/367/367
f 370/370/370 54/54/54 369/369/369
f 351/351/351 369/369/369 54/54/54
f 370/370/370 53/53/53 54/54/54
f 371/371/371 369/369/369 351/351/351
f 371/371/371 351/351/351 347/347/347
f 348/348/348 372/372/372 278/278/278
f 373/373/373 278/278/278 372/372/372
f 278/278/278 344/344/344 348/348/348
f 344/344/344 278/278/278 332/332/332
f 277/277/277 332/332/332 278/278/278
f 373/373/373 274/274/274 278/278/278
f 374/374/374 261/261/261 274/274/274
f 261/261/261 374/374/374 259/259/259
f 263/263/263 259/259/259 374/374/374
f 375/375/375 347/347/347 346/346/346
f 343/343/343 376/376/376 346/346/346
f 343/343/343 342/342/342 377/377/377
f 380/380/380 379/379/379 378/378/378
f 381/381/381 378/378/378 379/379/379
f 379/379/379 380/380/380 382/382/382
f 383/383/383 382/382/382 380/380/380
f 381/381/381 379/379/379 384/384/384
f 385/385/385 384/384/384 379/379/379
f 379/379/379 382/382/382 385/385/385
f 382/382/382 383/383/383 57/57/57
f 51/51/51 57/57/57 383/383/383
f 384/384/384 385/385/385 386/386/386
f 387/387/387 386/386/386 385/385/385
f 387/387/387 388/388/388 386/386/386
f 389/389/389 386/386/386 388/388/388
f 388/388/388 390/390/390 389/389/389
f 390/390/390 388/388/388 391/391/391
f 392/392/392 391/391/391 388/388/388
f 388/388/388 387/387/387 392/392/392
f 393/393/393 389/389/389 390/390/390
f 390/390/390 394/394/394 393/393/393
f 395/395/395 393/393/393 394/394/394
f 394/394/394 396/396/396 395/395/395
f 394/394/394 397/397/397 396/396/396
f 394/394/394 390/390/390 397/397/397
f 391/391/391 397/397/397 390/390/390
f 397/397/397 391/391/391 398/398/398
f 399/399/399 398/398/398 391/391/391
f 391/391/391 392/392/392 399/399/399
f 398/398/398 399/399/399 130/130/130
f 400/400/400 398/398/398 130/130/130
f 401/401/401 396/396/396 397/397/397
f 400/400/400 401/401/401 398/398/398
f 397/397/397 398/398/398 401/401/401
f 402/402/402 395/395/395 396/396/396
f 403/403/403 399/399/399 392/392/392
f 403/403/403 65/65/65 399/399/399
f 78/78/78 399/399/399 65/65/65
f 392/392/392 404/404/404 403/403/403
f 404/404/404 392/392/392 387/387/387
f 404/404/404 387/387/387 405/405/405
f 385/385/385 405/405/405 387/387/387
f 59/59/59 403/403/403 404/404/404
f 403/403/403 59/59/59 65/65/65
f 400/400/400 130/130/130 406/406/406
f 400/400/400 406/406/406 401/401/401
f 407/407/407 401/401/401 406/406/406
f 396/396/396 407/407/407 402/402/402
f 396/396/396 401/401/401 407/407/407
f 408/408/408 402/402/402 407/407/407
f 59/59/59 404/404/404 57/57/57
f 405/405/405 57/57/57 404/404/404
f 405/405/405 385/385/385 382/382/382
f 405/405/405 382/382/382 57/57/57
f 408/408/408 409/409/409 402/402/402
f 409/409/409 411/411/411 410/410/410
f 412/412/412 410/410/410 411/411/411
f 412/412/412 413/413/413 410/410/410
f 413/413/413 412/412/412 414/414/414
f 412/412/412 411/411/411 414/414/414
f 413/413/413 414/414/414 415/415/415
f 143/143/143 415/415/415 414/414/414
f 415/415/415 416/416/416 413/413/413
f 417/417/417 413/413/413 416/416/416
f 417/417/417 410/410/410 413/413/413
f 410/410/410 417/417/417 418/418/418
f 418/418/418 409/409/409 410/410/410
f 419/419/419 418/418/418 417/417/417
f 419/419/419 395/395/395 418/418/418
f 395/395/395 419/419/419 393/393/393
f 420/420/420 393/393/393 419/419/419
f 416/416/416 420/420/420 417/417/417
f 419/419/419 417/417/417 420/420/420
f 420/420/420 416/416/416 421/421/421
f 422/422/422 421/421/421 416/416/416
f 416/416/416 415/415/415 422/422/422
f 393/393/393 420/420/420 389/389/389
f 421/421/421 389/389/389 420/420/420
f 389/389/389 421/421/421 386/386/386
f 423/423/423 386/386/386 421/421/421
f 421/421/421 422/422/422 423/423/423
f 402/402/402 418/418/418 395/395/395
f 424/424/424 423/423/423 422/422/422
f 424/424/424 425/425/425 423/423/423
f 426/426/426 423/423/423 425/425/425
f 423/423/423 426/426/426 386/386/386
f 422/422/422 427/427/427 424/424/424
f 427/427/427 422/422/422 415/415/415
f 427/427/427 415/415/415 161/161/161
f 143/143/143 161/161/161 415/415/415
f 162/162/162 424/424/424 427/427/427
f 427/427/427 161/161/161 162/162/162
f 384/384/384 386/386/386 426/426/426
f 426/426/426 428/428/428 384/384/384
f 381/381/381 384/384/384 428/428/428
f 381/381/381 428/428/428 378/378/378
f 429/429/429 378/378/378 428/428/428
f 428/428/428 430/430/430 429/429/429
f 425/425/425 430/430/430 426/426/426
f 428/428/428 426/426/426 430/430/430
f 431/431/431 429/429/429 430/430/430
f 430/430/430 165/165/165 431/431/431
f 425/425/425 424/424/424 165/165/165
f 162/162/162 165/165/165 424/424/424
f 430/430/430 425/425/425 165/165/165
f 175/175/175 431/431/431 165/165/165
f 431/431/431 175/175/175 432/432/432
f 429/429/429 432/432/432 378/378/378
f 431/431/431 432/432/432 429/429/429
f 433/433/433 432/432/432 175/175/175
f 433/433/433 434/434/434 432/432/432
f 435/435/435 432/432/432 434/434/434
f 435/435/435 378/378/378 432/432/432
f 435/435/435 434/434/434 436/436/436
f 435/435/435 436/436/436 378/378/378
f 437/437/437 436/436/436 434/434/434
f 437/437/437 51/51/51 436/436/436
f 383/383/383 436/436/436 51/51/51
f 380/380/380 378/378/378 436/436/436
f 436/436/436 383/383/383 380/380/380
f 434/434/434 50/50/50 437/437/437
f 434/434/434 433/433/433 50/50/50
f 48/48/48 437/437/437 50/50/50
f 51/51/51 437/437/437 48/48/48
f 176/176/176 50/50/50 433/433/433
f 433/433/433 175/175/175 176/176/176
f 440/440/440 439/439/439 438/438/438
f 441/441/441 79/79/79 439/439/439
f 64/64/64 441/441/441 65/65/65
f 442/442/442 19/19/19 30/30/30
f 442/442/442 30/30/30 41/41/41
f 24/24/24 19/19/19 442/442/442
f 1/1/1 4/4/4 352/352/352
f 12/12/12 352/352/352 4/4/4
f 443/443/443 273/273/273 262/262/262
f 262/262/262 444/444/444 443/443/443
f 445/445/445 443/443/443 444/444/444
f 443/443/443 445/445/445 289/289/289
f 443/443/443 289/289/289 273/273/273
f 446/446/446 289/289/289 445/445/445
f 444/444/444 262/262/262 256/256/256
f 276/276/276 273/273/273 289/289/289
f 446/446/446 293/293/293 289/289/289
f 446/446/446 445/445/445 447/447/447
f 446/446/446 447/447/447 293/293/293
f 448/448/448 447/447/447 445/445/445
f 445/445/445 444/444/444 448/448/448
f 251/251/251 448/448/448 444/444/444
f 444/444/444 256/256/256 251/251/251
f 448/448/448 251/251/251 245/245/245
f 448/448/448 245/245/245 447/447/447
f 246/246/246 447/447/447 245/245/245
f 246/246/246 449/449/449 447/447/447
f 450/450/450 447/447/447 449/449/449
f 450/450/450 293/293/293 447/447/447
f 293/293/293 450/450/450 292/292/292
f 451/451/451 292/292/292 450/450/450
f 451/451/451 450/450/450 452/452/452
f 449/449/449 452/452/452 450/450/450
f 452/452/452 449/449/449 453/453/453
f 454/454/454 453/453/453 449/449/449
f 454/454/454 455/455/455 453/453/453
f 454/454/454 247/247/247 455/455/455
f 454/454/454 449/449/449 247/247/247
f 246/246/246 247/247/247 449/449/449
f 456/456/456 455/455/455 247/247/247
f 456/456/456 247/247/247 457/457/457
f 248/248/248 457/457/457 247/247/247
f 458/458/458 453/453/453 455/455/455
f 248/248/248 241/241/241 457/457/457
f 459/459/459 457/457/457 241/241/241
f 456/456/456 457/457/457 460/460/460
f 456/456/456 460/460/460 455/455/455
f 461/461/461 460/460/460 457/457/457
f 457/457/457 459/459/459 461/461/461
f 460/460/460 461/461/461 462/462/462
f 463/463/463 462/462/462 461/461/461
f 461/461/461 464/464/464 463/463/463
f 464/464/464 461/461/461 459/459/459
f 465/465/465 463/463/463 464/464/464
f 462/462/462 466/466/466 460/460/460
f 467/467/467 460/460/460 466/466/466
f 467/467/467 455/455/455 460/460/460
f 466/466/466 462/462/462 468/468/468
f 468/468/468 469/469/469 466/466/466
f 470/470/470 466/466/466 469/469/469
f 466/466/466 470/470/470 467/467/467
f 469/469/469 468/468/468 471/471/471
f 472/472/472 471/471/471 468/468/468
f 471/471/471 472/472/472 473/473/473
f 471/471/471 473/473/473 469/469/469
f 474/474/474 473/473/473 472/472/472
f 468/468/468 475/475/475 472/472/472
f 475/475/475 468/468/468 462/462/462
f 462/462/462 463/463/463 475/475/475
f 476/476/476 472/472/472 475/475/475
f 475/475/475 477/477/477 476/476/476
f 477/477/477 475/475/475 463/463/463
f 478/478/478 476/476/476 477/477/477
f 477/477/477 479/479/479 478/478/478
f 480/480/480 478/478/478 479/479/479
f 479/479/479 465/465/465 481/481/481
f 479/479/479 481/481/481 480/480/480
f 482/482/482 481/481/481 465/465/465
f 481/481/481 482/482/482 483/483/483
f 484/484/484 483/483/483 482/482/482
f 483/483/483 485/485/485 481/481/481
f 485/485/485 483/483/483 486/486/486
f 487/487/487 486/486/486 483/483/483
f 483/483/483 484/484/484 487/487/487
f 487/487/487 488/488/488 486/486/486
f 489/489/489 488/488/488 474/474/474
f 489/489/489 486/486/486 488/488/488
f 487/487/487 490/490/490 488/488/488
f 490/490/490 487/487/487 484/484/484
f 491/491/491 488/488/488 490/490/490
f 488/488/488 491/491/491 492/492/492
f 492/492/492 474/474/474 488/488/488
f 493/493/493 492/492/492 491/491/491
f 492/492/492 493/493/493 494/494/494
f 492/492/492 494/494/494 474/474/474
f 495/495/495 494/494/494 493/493/493
f 493/493/493 150/150/150 495/495/495
f 493/493/493 491/491/491 150/150/150
f 154/154/154 495/495/495 150/150/150
f 473/473/473 474/474/474 494/494/494
f 494/494/494 469/469/469 473/473/473
f 149/149/149 150/150/150 491/491/491
f 149/149/149 491/491/491 152/152/152
f 490/490/490 152/152/152 491/491/491
f 490/490/490 484/484/484 152/152/152
f 156/156/156 152/152/152 484/484/484
f 484/484/484 482/482/482 156/156/156
f 240/240/240 156/156/156 482/482/482
f 156/156/156 240/240/240 155/155/155
f 469/469/469 494/494/494 470/470/470
f 495/495/495 470/470/470 494/494/494
f 482/482/482 465/465/465 240/240/240
f 464/464/464 240/240/240 465/465/465
f 495/495/495 154/154/154 496/496/496
f 496/496/496 453/453/453 495/495/495
f 496/496/496 497/497/497 453/453/453
f 452/452/452 453/453/453 497/497/497
f 497/497/497 498/498/498 452/452/452
f 498/498/498 497/497/497 499/499/499
f 500/500/500 499/499/499 497/497/497
f 497/497/497 496/496/496 500/500/500
f 500/500/500 501/501/501 499/499/499
f 501/501/501 500/500/500 502/502/502
f 153/153/153 502/502/502 500/500/500
f 153/153/153 500/500/500 496/496/496
f 503/503/503 499/499/499 501/501/501
f 503/503/503 501/501/501 504/504/504
f 505/505/505 504/504/504 501/501/501
f 505/505/505 506/506/506 504/504/504
f 507/507/507 504/504/504 506/506/506
f 504/504/504 507/507/507 503/503/503
f 507/507/507 506/506/506 508/508/508
f 509/509/509 508/508/508 506/506/506
f 510/510/510 503/503/503 507/507/507
f 507/507/507 508/508/508 510/510/510
f 511/511/511 510/510/510 508/508/508
f 502/502/502 153/153/153 146/146/146
f 505/505/505 501/501/501 512/512/512
f 502/502/502 512/512/512 501/501/501
f 499/499/499 503/503/503 103/103/103
f 499/499/499 103/103/103 498/498/498
f 104/104/104 498/498/498 103/103/103
f 105/105/105 103/103/103 503/503/503
f 503/503/503 510/510/510 105/105/105
f 106/106/106 105/105/105 510/510/510
f 510/510/510 511/511/511 106/106/106
f 107/107/107 106/106/106 511/511/511
f 107/107/107 511/511/511 108/108/108
f 513/513/513 108/108/108 511/511/511
f 513/513/513 511/511/511 514/514/514
f 508/508/508 514/514/514 511/511/511
f 514/514/514 515/515/515 513/513/513
f 516/516/516 513/513/513 515/515/515
f 515/515/515 517/517/517 516/516/516
f 518/518/518 516/516/516 517/517/517
f 516/516/516 518/518/518 144/144/144
f 140/140/140 144/144/144 518/518/518
f 518/518/518 145/145/145 140/140/140
f 145/145/145 518/518/518 519/519/519
f 520/520/520 519/519/519 518/518/518
f 518/518/518 517/517/517 520/520/520
f 145/145/145 519/519/519 521/521/521
f 512/512/512 521/521/521 519/519/519
f 521/521/521 146/146/146 145/145/145
f 509/509/509 520/520/520 517/517/517
f 520/520/520 509/509/509 519/519/519
f 509/509/509 517/517/517 515/515/515
f 516/516/516 144/144/144 119/119/119
f 516/516/516 119/119/119 513/513/513
f 120/120/120 119/119/119 144/144/144
f 144/144/144 522/522/522 120/120/120
f 122/122/122 120/120/120 522/522/522
f 512/512/512 502/502/502 521/521/521
f 146/146/146 521/521/521 502/502/502
f 512/512/512 519/519/519 505/505/505
f 506/506/506 505/505/505 519/519/519
f 506/506/506 519/519/519 509/509/509
f 522/522/522 132/132/132 122/122/122
f 522/522/522 139/139/139 132/132/132
f 126/126/126 122/122/122 132/132/132
f 139/139/139 522/522/522 144/144/144
f 112/112/112 109/109/109 119/119/119
f 108/108/108 119/119/119 109/109/109
f 108/108/108 513/513/513 119/119/119
f 509/509/509 515/515/515 508/508/508
f 514/514/514 508/508/508 515/515/515
f 523/523/523 264/264/264 270/270/270
f 523/523/523 524/524/524 264/264/264
f 525/525/525 264/264/264 524/524/524
f 524/524/524 526/526/526 525/525/525
f 527/527/527 525/525/525 526/526/526
f 526/526/526 528/528/528 527/527/527
f 529/529/529 527/527/527 528/528/528
f 529/529/529 530/530/530 527/527/527
f 531/531/531 527/527/527 530/530/530
f 527/527/527 531/531/531 525/525/525
f 525/525/525 254/254/254 264/264/264
f 254/254/254 525/525/525 531/531/531
f 531/531/531 253/253/253 254/254/254
f 253/253/253 531/531/531 532/532/532
f 533/533/533 532/532/532 531/531/531
f 532/532/532 250/250/250 253/253/253
f 38/38/38 7/7/7 23/23/23
f 6/6/6 23/23/23 7/7/7
f 536/536/536 535/535/535 534/534/534
f 537/537/537 534/534/534 535/535/535
f 537/537/537 538/538/538 534/534/534
f 539/539/539 534/534/534 538/538/538
f 536/536/536 534/534/534 540/540/540
f 540/540/540 541/541/541 536/536/536
f 542/542/542 536/536/536 541/541/541
f 543/543/543 540/540/540 534/534/534
f 543/543/543 534/534/534 544/544/544
f 539/539/539 544/544/544 534/534/534
f 535/535/535 541/541/541 545/545/545
f 546/546/546 544/544/544 539/539/539
f 539/539/539 547/547/547 546/546/546
f 539/539/539 538/538/538 547/547/547
f 548/548/548 546/546/546 547/547/547
f 538/538/538 548/548/548 547/547/547
f 544/544/544 546/546/546 549/549/549
f 549/549/549 550/550/550 544/544/544
f 551/551/551 544/544/544 550/550/550
f 552/552/552 549/549/549 546/546/546
f 546/546/546 548/548/548 552/552/552
f 552/552/552 553/553/553 549/549/549
f 553/553/553 552/552/552 554/554/554
f 555/555/555 554/554/554 552/552/552
f 552/552/552 548/548/548 555/555/555
f 555/555/555 556/556/556 554/554/554
f 556/556/556 555/555/555 548/548/548
f 557/557/557 554/554/554 556/556/556
f 554/554/554 558/558/558 553/553/553
f 558/558/558 554/554/554 557/557/557
f 559/559/559 553/553/553 558/558/558
f 550/550/550 553/553/553 559/559/559
f 560/560/560 549/549/549 553/553/553
f 538/538/538 557/557/557 556/556/556
f 538/538/538 556/556/556 548/548/548
f 562/562/562 551/551/551 561/561/561
f 563/563/563 561/561/561 551/551/551
f 561/561/561 563/563/563 564/564/564
f 551/551/551 566/566/566 565/565/565
f 567/567/567 565/565/565 566/566/566
f 565/565/565 567/567/567 568/568/568
f 567/567/567 566/566/566 569/569/569
f 567/567/567 569/569/569 570/570/570
f 551/551/551 571/571/571 566/566/566
f 573/573/573 572/572/572 567/567/567
f 575/575/575 574/574/574 566/566/566
f 575/575/575 566/566/566 576/576/576
f 578/578/578 577/577/577 566/566/566
f 580/580/580 540/540/540 579/579/579
f 583/583/583 582/582/582 581/581/581
f 313/313/313 315/315/315 299/299/299
f 301/301/301 299/299/299 315/315/315
f 300/300/300 301/301/301 331/331/331
f 331/331/331 295/295/295 300/300/300
f 331/331/331 281/281/281 295/295/295
f 294/294/294 306/306/306 284/284/284
f 303/303/303 284/284/284 306/306/306
f 303/303/303 296/296/296 284/284/284
f 85/85/85 306/306/306 294/294/294
f 294/294/294 286/286/286 85/85/85
f 584/584/584 85/85/85 286/286/286
f 584/584/584 286/286/286 91/91/91
f 288/288/288 91/91/91 286/286/286
f 91/91/91 288/288/288 92/92/92
f 291/291/291 92/92/92 288/288/288
f 291/291/291 292/292/292 92/92/92
f 104/104/104 92/92/92 292/292/292
f 91/91/91 88/88/88 584/584/584
f 73/73/73 584/584/584 88/88/88
f 73/73/73 74/74/74 584/584/584
f 85/85/85 584/584/584 74/74/74
f 104/104/104 292/292/292 498/498/498
f 451/451/451 498/498/498 292/292/292
f 451/451/451 452/452/452 498/498/498
f 68/68/68 66/66/66 84/84/84
f 34/34/34 32/32/32 49/49/49
f 42/42/42 49/49/49 32/32/32
f 34/34/34 49/49/49 585/585/585
f 585/585/585 586/586/586 34/34/34
f 35/35/35 34/34/34 586/586/586
f 586/586/586 585/585/585 587/587/587
f 588/588/588 587/587/587 585/585/585
f 587/587/587 588/588/588 188/188/188
f 188/188/188 589/589/589 587/587/587
f 590/590/590 587/587/587 589/589/589
f 587/587/587 590/590/590 586/586/586
f 186/186/186 188/188/188 588/588/588
f 591/591/591 586/586/586 590/590/590
f 586/586/586 591/591/591 35/35/35
f 188/188/188 187/187/187 589/589/589
f 592/592/592 589/589/589 187/187/187
f 588/588/588 180/180/180 186/186/186
f 590/590/590 589/589/589 593/593/593
f 591/591/591 590/590/590 593/593/593
f 594/594/594 593/593/593 589/589/589
f 589/589/589 592/592/592 594/594/594
f 180/180/180 588/588/588 181/181/181
f 585/585/585 181/181/181 588/588/588
f 181/181/181 585/585/585 49/49/49
f 593/593/593 595/595/595 591/591/591
f 596/596/596 591/591/591 595/595/595
f 596/596/596 595/595/595 36/36/36
f 40/40/40 36/36/36 595/595/595
f 596/596/596 36/36/36 35/35/35
f 596/596/596 35/35/35 591/591/591
f 187/187/187 597/597/597 592/592/592
f 187/187/187 189/189/189 597/597/597
f 598/598/598 597/597/597 189/189/189
f 189/189/189 599/599/599 598/598/598
f 600/600/600 598/598/598 599/599/599
f 189/189/189 190/190/190 599/599/599
f 207/207/207 599/599/599 190/190/190
f 190/190/190 191/191/191 207/207/207
f 599/599/599 207/207/207 601/601/601
f 602/602/602 601/601/601 207/207/207
f 602/602/602 207/207/207 200/200/200
f 600/600/600 599/599/599 603/603/603
f 601/601/601 603/603/603 599/599/599
f 604/604/604 183/183/183 178/178/178
f 604/604/604 605/605/605 183/183/183
f 193/193/193 183/183/183 605/605/605
f 605/605/605 604/604/604 171/171/171
f 170/170/170 171/171/171 604/604/604
f 604/604/604 178/178/178 170/170/170
f 171/171/171 172/172/172 605/605/605
f 606/606/606 605/605/605 172/172/172
f 238/238/238 606/606/606 172/172/172
f 169/169/169 178/178/178 164/164/164
f 174/174/174 164/164/164 178/178/178
f 193/193/193 210/210/210 194/194/194
f 238/238/238 236/236/236 607/607/607
f 608/608/608 236/236/236 235/235/235
f 609/609/609 205/205/205 214/214/214
f 609/609/609 610/610/610 205/205/205
f 206/206/206 205/205/205 610/610/610
f 214/214/214 216/216/216 609/609/609
f 219/219/219 609/609/609 216/216/216
f 609/609/609 219/219/219 610/610/610
f 221/221/221 610/610/610 219/219/219
f 613/613/613 612/612/612 611/611/611
f 614/614/614 611/611/611 612/612/612
f 613/613/613 611/611/611 615/615/615
f 616/616/616 615/615/615 611/611/611
f 614/614/614 617/617/617 611/611/611
f 617/617/617 614/614/614 618/618/618
f 619/619/619 618/618/618 614/614/614
f 620/620/620 611/611/611 617/617/617
f 616/616/616 611/611/611 621/621/621
f 620/620/620 621/621/621 611/611/611
f 618/618/618 612/612/612 622/622/622
f 621/621/621 623/623/623 616/616/616
f 616/616/616 623/623/623 624/624/624
f 615/615/615 616/616/616 624/624/624
f 625/625/625 624/624/624 623/623/623
f 625/625/625 615/615/615 624/624/624
f 621/621/621 626/626/626 623/623/623
f 627/627/627 623/623/623 626/626/626
f 625/625/625 623/623/623 627/627/627
f 627/627/627 626/626/626 628/628/628
f 628/628/628 629/629/629 627/627/627
f 630/630/630 627/627/627 629/629/629
f 627/627/627 630/630/630 625/625/625
f 630/630/630 629/629/629 631/631/631
f 631/631/631 625/625/625 630/630/630
f 632/632/632 631/631/631 629/629/629
f 629/629/629 628/628/628 633/633/633
f 629/629/629 633/633/633 632/632/632
f 634/634/634 633/633/633 628/628/628
f 635/635/635 628/628/628 626/626/626
f 628/628/628 635/635/635 634/634/634
f 632/632/632 615/615/615 631/631/631
f 631/631/631 615/615/615 625/625/625
f 626/626/626 637/637/637 636/636/636
f 638/638/638 636/636/636 637/637/637
f 640/640/640 638/638/638 639/639/639
f 621/621/621 639/639/639 638/638/638
f 639/639/639 641/641/641 640/640/640
f 638/638/638 643/643/643 642/642/642
f 644/644/644 642/642/642 643/643/643
f 643/643/643 645/645/645 644/644/644
f 644/644/644 646/646/646 642/642/642
f 647/647/647 638/638/638 642/642/642
f 647/647/647 642/642/642 648/648/648
f 649/649/649 648/648/648 642/642/642
f 649/649/649 642/642/642 650/650/650
f 652/652/652 644/644/644 651/651/651
f 644/644/644 654/654/654 653/653/653
f 656/656/656 653/653/653 655/655/655
f 658/658/658 657/657/657 617/617/617
f 659/659/659 481/481/481 485/485/485
f 659/659/659 480/480/480 481/481/481
f 465/465/465 479/479/479 463/463/463
f 477/477/477 463/463/463 479/479/479
f 467/467/467 470/470/470 455/455/455
f 458/458/458 455/455/455 470/470/470
f 470/470/470 495/495/495 458/458/458
f 458/458/458 495/495/495 453/453/453
f 136/136/136 135/135/135 414/414/414
f 143/143/143 414/414/414 135/135/135
f 136/136/136 414/414/414 660/660/660
f 660/660/660 661/661/661 136/136/136
f 134/134/134 136/136/136 661/661/661
f 661/661/661 662/662/662 134/134/134
f 131/131/131 134/134/134 662/662/662
f 131/131/131 662/662/662 127/127/127
f 125/125/125 127/127/127 662/662/662
f 125/125/125 662/662/662 128/128/128
f 663/663/663 128/128/128 662/662/662
f 128/128/128 663/663/663 129/129/129
f 664/664/664 129/129/129 663/663/663
f 665/665/665 129/129/129 664/664/664
f 143/143/143 142/142/142 161/161/161
f 418/418/418 402/402/402 409/409/409
f 153/153/153 496/496/496 154/154/154
f 121/121/121 81/81/81 82/82/82
f 667/667/667 535/535/535 666/666/666
f 241/241/241 240/240/240 459/459/459
f 459/459/459 240/240/240 464/464/464
f 612/612/612 669/669/669 668/668/668
f 209/209/209 224/224/224 208/208/208
f 672/672/672 671/671/671 670/670/670
f 673/673/673 670/670/670 671/671/671
f 670/670/670 674/674/674 672/672/672
f 675/675/675 672/672/672 674/674/674
f 674/674/674 676/676/676 675/675/675
f 677/677/677 675/675/675 676/676/676
f 676/676/676 678/678/678 677/677/677
f 679/679/679 677/677/677 678/678/678
f 678/678/678 680/680/680 679/679/679
f 681/681/681 679/679/679 680/680/680
f 680/680/680 682/682/682 681/681/681
f 683/683/683 681/681/681 682/682/682
f 682/682/682 684/684/684 683/683/683
f 685/685/685 683/683/683 684/684/684
f 684/684/684 686/686/686 685/685/685
f 687/687/687 685/685/685 686/686/686
f 686/686/686 688/688/688 687/687/687
f 689/689/689 687/687/687 688/688/688
f 688/688/688 690/690/690 689/689/689
f 691/691/691 689/689/689 690/690/690
f 690/690/690 692/692/692 691/691/691
f 693/693/693 691/691/691 692/692/692
f 692/692/692 673/673/673 693/693/693
f 671/671/671 693/693/693 673/673/673
f 682/682/682 680/680/680 694/694/694
f 695/695/695 694/694/694 680/680/680
f 680/680/680 678/678/678 695/695/695
f 696/696/696 695/695/695 678/678/678
f 678/678/678 676/676/676 696/696/696
f 697/697/697 696/696/696 676/676/676
f 676/676/676 674/674/674 697/697/697
f 698/698/698 697/697/697 674/674/674
f 674/674/674 670/670/670 698/698/698
f 670/670/670 673/673/673 699/699/699
f 699/699/699 698/698/698 670/670/670
f 700/700/700 699/699/699 673/673/673
f 673/673/673 692/692/692 700/700/700
f 701/701/701 700/700/700 692/692/692
f 693/693/693 671/671/671 702/702/702
f 671/671/671 672/672/672 702/702/702
f 672/672/672 675/675/675 702/702/702
f 675/675/675 677/677/677 702/702/702
f 677/677/677 679/679/679 702/702/702
f 679/679/679 681/681/681 702/702/702
f 681/681/681 683/683/683 702/702/702
f 683/683/683 685/685/685 702/702/702
f 685/685/685 687/687/687 702/702/702
f 687/687/687 689/689/689 702/702/702
f 689/689/689 691/691/691 702/702/702
f 691/691/691 693/693/693 702/702/702
f 692/692/692 690/690/690 701/701/701
f 703/703/703 701/701/701 690/690/690
f 690/690/690 688/688/688 703/703/703
f 704/704/704 703/703/703 688/688/688
f 688/688/688 686/686/686 704/704/704
f 705/705/705 704/704/704 686/686/686
f 686/686/686 684/684/684 705/705/705
f 706/706/706 705/705/705 684/684/684
f 684/684/684 682/682/682 706/706/706
f 694/694/694 706/706/706 682/682/682
f 709/709/709 708/708/708 707/707/707
f 710/710/710 707/707/707 708/708/708
f 707/707/707 710/710/710 711/711/711
f 712/712/712 711/711/711 710/710/710
f 711/711/711 712/712/712 713/713/713
f 714/714/714 713/713/713 712/712/712
f 713/713/713 714/714/714 715/715/715
f 716/716/716 715/715/715 714/714/714
f 715/715/715 716/716/716 717/717/717
f 718/718/718 717/717/717 716/716/716
f 717/717/717 718/718/718 719/719/719
f 720/720/720 719/719/719 718/718/718
f 719/719/719 720/720/720 721/721/721
f 722/722/722 721/721/721 720/720/720
f 721/721/721 722/722/722 723/723/723
f 724/724/724 723/723/723 722/722/722
f 723/723/723 724/724/724 725/725/725
f 726/726/726 725/725/725 724/724/724
f 725/725/725 726/726/726 727/727/727
f 728/728/728 727/727/727 726/726/726
f 727/727/727 728/728/728 729/729/729
f 730/730/730 729/729/729 728/728/728
f 729/729/729 730/730/730 709/709/709
f 708/708/708 709/709/709 730/730/730
f 719/719/719 731/731/731 717/717/717
f 731/731/731 719/719/719 732/732/732
f 721/721/721 732/732/732 719/719/719
f 732/732/732 721/721/721 733/733/733
f 723/723/723 733/733/733 721/721/721
f 733/733/733 723/723/723 734/734/734
f 725/725/725 734/734/734 723/723/723
f 734/734/734 725/725/725 735/735/735
f 727/727/727 735/735/735 725/725/725
f 735/735/735 727/727/727 736/736/736
f 729/729/729 736/736/736 727/727/727
f 736/736/736 729/729/729 737/737/737
f 709/709/709 737/737/737 729/729/729
f 737/737/737 709/709/709 738/738/738
f 707/707/707 738/738/738 709/709/709
f 738/738/738 707/707/707 739/739/739
f 711/711/711 739/739/739 707/707/707
f 739/739/739 711/711/711 740/740/740
f 713/713/713 740/740/740 711/711/711
f 740/740/740 713/713/713 741/741/741
f 715/715/715 741/741/741 713/713/713
f 741/741/741 715/715/715 742/742/742
f 717/717/717 742/742/742 715/715/715
f 742/742/742 717/717/717 731/731/731
f 710/710/710 708/708/708 743/743/743
f 712/712/712 710/710/710 743/743/743
f 714/714/714 712/712/712 743/743/743
f 716/716/716 714/714/714 743/743/743
f 718/718/718 716/716/716 743/743/743
f 720/720/720 718/718/718 743/743/743
f 722/722/722 720/720/720 743/743/743
f 724/724/724 722/722/722 743/743/743
f 726/726/726 724/724/724 743/743/743
f 728/728/728 726/726/726 743/743/743
f 730/730/730 728/728/728 743/743/743
f 708/708/708 730/730/730 743/743/743
